<?xml version="1.0" encoding="UTF-8"?>
<svg xmlns="http://www.w3.org/2000/svg" viewBox="0 0 348 175" width="348" height="175" shape-rendering="geometricPrecision">
<path d="M51.75 131.42C51.11 131.2 51.25 130.4 52 130C52.55 129.71 52.67 129.3 52.67 127.7C52.67 126.37 52.51 125.62 52.17 125.33C51.41 124.71 51.57 123.7 52.48 123.28C54.08 122.55 54.33 123 54.33 126.63C54.33 129.66 54.39 129.97 55 130.17C55.71 130.39 55.87 130.84 55.35 131.15C54.94 131.41 52.29 131.6 51.75 131.42ZM46.15 125.78C45.43 125 45.33 124.6 45.33 122.25C45.33 120.36 45.17 119.33 44.77 118.65C44.24 117.75 44.24 117.66 44.77 117.07C45.08 116.73 45.33 116.04 45.33 115.53C45.33 114.74 45.45 114.64 46.25 114.73C46.97 114.81 47.2 115.04 47.33 115.83C47.48 116.68 47.69 116.85 48.76 117.03C49.44 117.14 50.1 117.32 50.22 117.44C50.62 117.84 49.61 118.63 48.56 118.73L47.5 118.83L47.4 121.24C47.29 124.13 47.65 125 48.99 125C50.13 125 50.55 125.5 49.99 126.18C49.29 127.02 47.09 126.79 46.15 125.78ZM66.27 124.58L66.17 122.83L64.67 122.66C62.04 122.35 61.36 121.33 63.78 121.33C65.56 121.33 66.33 120.6 66.33 118.89C66.33 118.05 66.48 117.67 66.81 117.67C67.41 117.67 67.79 118.8 67.53 119.84C67.28 120.84 68.08 121.33 69.98 121.33C70.72 121.33 71.33 121.48 71.33 121.65C71.33 122.18 70.13 122.67 68.86 122.67C67.68 122.67 67.67 122.68 67.67 124.1C67.67 125.42 67.24 126.33 66.62 126.33C66.48 126.33 66.32 125.55 66.27 124.58ZM76.33 125.69C76.33 125.34 76.55 124.63 76.82 124.11C77.62 122.55 79.93 117.57 80.3 116.58C80.7 115.53 81.9 115.32 82.23 116.25C82.34 116.57 83.24 118.78 84.22 121.15C85.21 123.53 85.94 125.67 85.85 125.9C85.73 126.23 84.52 126.33 81.01 126.33C76.62 126.33 76.33 126.29 76.33 125.69ZM89.83 125.92C89.74 125.69 89.63 123.33 89.59 120.67L89.5 115.83L87.78 115.73C86.07 115.63 85.07 115.03 85.49 114.35C85.78 113.88 95.55 113.88 95.84 114.35C96.28 115.06 95.26 115.67 93.63 115.67L92 115.67L92 120.36C92 122.95 91.85 125.33 91.65 125.69C91.27 126.41 90.06 126.56 89.83 125.92ZM82.77 124.92C83.3 124.53 83.25 124.3 82.18 121.84C81.54 120.37 80.9 119.13 80.75 119.08C80.49 119 80.01 119.83 78.7 122.69C77.89 124.45 77.84 124.88 78.42 125.11C79.26 125.45 82.22 125.32 82.77 124.92ZM70.21 108.15C69.95 107.47 70.22 107 70.88 107C71.2 107 71.34 107.25 71.27 107.72C71.14 108.62 70.49 108.88 70.21 108.15ZM220.33 107.86C220.33 107.3 220.52 107 220.86 107C221.2 107 221.34 107.24 221.27 107.72C221.12 108.79 220.33 108.91 220.33 107.86ZM70.13 104.81C69.84 103.65 70.48 103 71.2 103.73C71.62 104.15 71.65 104.4 71.35 104.96C70.85 105.91 70.39 105.85 70.13 104.81ZM220.13 104.81C219.84 103.65 220.48 103 221.2 103.73C221.62 104.15 221.65 104.4 221.35 104.96C220.85 105.91 220.39 105.85 220.13 104.81ZM70.13 101.53C69.85 100.79 70.21 100 70.85 100C71.23 100 71.35 100.25 71.27 100.89C71.15 101.91 70.43 102.31 70.13 101.53ZM220.12 101.5C219.86 100.81 220.22 100 220.79 100C221.44 100 221.76 100.98 221.3 101.54C220.8 102.14 220.36 102.12 220.12 101.5ZM70.14 97.83C69.88 96.8 70.45 95.99 71.03 96.56C71.48 97.02 71.3 98.4 70.76 98.58C70.54 98.65 70.26 98.32 70.14 97.83ZM220.14 97.85C219.91 96.92 220.17 96.33 220.82 96.33C221.45 96.33 221.73 97.27 221.32 98.02C220.85 98.9 220.39 98.83 220.14 97.85ZM142.17 96.67C142.05 96.3 142.04 95.87 142.15 95.7C142.25 95.53 142.24 95.15 142.13 94.86C141.97 94.45 141.42 94.33 139.53 94.33C138.11 94.33 136.97 94.17 136.73 93.93C135.8 93 136.31 91.82 139.01 88.65C143.22 83.68 144.33 83.73 144.33 88.86C144.33 91.64 144.41 92.02 145 92.33C145.37 92.53 145.67 92.91 145.67 93.18C145.67 93.44 145.37 93.85 145 94.08C144.57 94.35 144.33 94.85 144.33 95.51C144.33 96.07 144.15 96.71 143.93 96.93C143.32 97.55 142.4 97.41 142.17 96.67ZM150.83 96.92C150.74 96.69 150.63 94.33 150.59 91.67L150.5 86.83L148.78 86.73C147.07 86.63 146.07 86.03 146.49 85.35C146.62 85.13 148.58 85 151.67 85C154.75 85 156.71 85.13 156.84 85.35C157.28 86.06 156.26 86.67 154.63 86.67L153 86.67L153 91.36C153 93.95 152.85 96.33 152.65 96.69C152.27 97.41 151.06 97.56 150.83 96.92ZM220.14 94.52C219.91 93.59 220.17 93 220.82 93C221.45 93 221.73 93.93 221.32 94.69C220.85 95.57 220.39 95.5 220.14 94.52ZM70.13 94.53C69.85 93.79 70.21 93 70.85 93C71.23 93 71.35 93.25 71.27 93.89C71.15 94.91 70.43 95.31 70.13 94.53ZM74.36 92.46C72.79 91.59 71.96 91.32 71.28 91.46C70.49 91.62 70.31 91.52 70.14 90.84C69.88 89.81 70.18 89.33 71.1 89.33C71.5 89.33 72.87 88.8 74.14 88.15C75.4 87.5 76.75 87.01 77.14 87.07L77.83 87.17L77.11 87.89C75.41 89.59 75.31 90.48 76.66 91.99C77.62 93.07 77.71 93.68 76.9 93.65C76.68 93.64 75.53 93.1 74.36 92.46ZM214 93.05C214 92.71 214.3 92.17 214.66 91.84C215.75 90.85 215.8 90.07 214.86 88.84C214.39 88.22 214 87.63 214 87.52C214 87.06 215.38 87.41 216.87 88.24C217.76 88.74 219.09 89.22 219.83 89.32C221.05 89.48 221.17 89.58 221.17 90.5C221.17 91.45 221.1 91.49 219.97 91.4C219.08 91.32 218.19 91.61 216.6 92.48C214.11 93.85 214 93.88 214 93.05ZM141.99 91.69C142.45 90.82 142.43 88.76 141.95 88.47C141.47 88.18 139.02 90.91 139.01 91.75C138.99 92.63 141.51 92.58 141.99 91.69ZM40.37 56.75C40.32 21.27 40.39 22.63 38.63 24.48C36.83 26.38 36.89 24.96 38.75 21.48C39.53 20.03 40.4 18.8 40.68 18.74C41.05 18.67 41.63 19.56 42.64 21.68C44.14 24.85 44.15 26.08 42.67 24.5C42.24 24.04 41.72 23.67 41.53 23.67C40.96 23.67 41.18 70.7 41.74 71.05C41.98 71.2 50.95 71.33 61.69 71.33C76.79 71.33 81.33 71.24 81.77 70.92C82.28 70.54 82.34 68.98 82.42 53L82.5 35.5L115.53 35.42L148.56 35.33L148.96 36.21C149.25 36.85 149.35 41.5 149.32 53.92C149.29 67.54 149.37 70.82 149.73 71.04C149.97 71.2 166.15 71.33 185.69 71.33C213.59 71.33 221.33 71.24 221.77 70.92C222.28 70.54 222.34 68.98 222.42 53L222.5 35.5L255.53 35.42L288.56 35.33L288.95 36.2C289.24 36.84 289.34 41.57 289.32 53.92C289.3 67.43 289.38 70.83 289.73 71.05C289.97 71.2 299.36 71.33 310.59 71.33C328.52 71.33 331.04 71.4 331.21 71.84C331.32 72.11 331.22 72.56 331 72.84C330.64 73.27 327.69 73.33 308.95 73.33L287.32 73.33L286.99 72.48C286.8 71.96 286.67 64.88 286.67 54.68L286.67 37.74L285.92 37.54C284.93 37.28 225.88 37.27 225.19 37.54C224.72 37.72 224.67 39.56 224.67 54.97C224.67 68.25 224.57 72.33 224.25 72.74C223.84 73.26 221.82 73.74 220.5 73.64C220.13 73.61 203.56 73.53 183.67 73.46C150.19 73.34 147.47 73.29 147.08 72.77C146.76 72.34 146.67 68.24 146.67 54.98L146.67 37.74L145.92 37.54C144.93 37.28 85.88 37.27 85.19 37.54C84.72 37.72 84.67 39.56 84.67 54.97C84.67 68.24 84.57 72.33 84.25 72.76C83.89 73.23 82.9 73.34 77.5 73.46C74.02 73.55 70.87 73.61 70.5 73.61C70.13 73.61 63.68 73.54 56.17 73.46C48.65 73.37 42.15 73.39 41.72 73.5C41.02 73.67 40.96 73.83 41.15 74.88C41.43 76.37 40.99 89.67 40.66 89.67C40.52 89.67 40.39 74.85 40.37 56.75ZM70.23 87.78C70.1 87.66 70 87.19 70 86.75C70 86.17 70.16 85.98 70.58 86.06C70.95 86.13 71.17 86.48 71.17 86.98C71.17 87.78 70.66 88.22 70.23 87.78ZM220.12 87.5C219.86 86.81 220.22 86 220.79 86C221.44 86 221.76 86.98 221.3 87.54C220.8 88.14 220.36 88.12 220.12 87.5ZM70.14 83.84C69.9 82.89 70.38 82.11 70.97 82.48C71.49 82.8 71.42 83.85 70.85 84.32C70.45 84.65 70.32 84.57 70.14 83.84ZM220.14 83.83C219.88 82.8 220.45 81.99 221.03 82.56C221.48 83.02 221.3 84.4 220.76 84.58C220.54 84.65 220.26 84.32 220.14 83.83ZM70.23 80.78C70.1 80.66 70 80.19 70 79.75C70 79.17 70.16 78.98 70.58 79.06C70.95 79.13 71.17 79.48 71.17 79.98C71.17 80.78 70.66 81.22 70.23 80.78ZM220.13 80.53C219.85 79.79 220.21 79 220.85 79C221.23 79 221.35 79.25 221.27 79.89C221.15 80.91 220.43 81.31 220.13 80.53ZM26.32 76.75C25.13 75.69 24.69 74.12 24.68 71C24.66 66.54 25.83 64.82 28.85 64.85C31.92 64.88 33.33 66.89 33.33 71.22C33.33 75.28 31.65 77.67 28.79 77.67C27.68 77.67 27.11 77.45 26.32 76.75ZM70.22 77.44C70.1 77.32 70 76.87 70 76.44C70 75.89 70.19 75.67 70.67 75.67C71.1 75.67 71.33 75.89 71.33 76.29C71.33 76.99 70.56 77.78 70.22 77.44ZM220.14 76.83C219.88 75.8 220.45 74.99 221.03 75.56C221.48 76.02 221.3 77.4 220.76 77.58C220.54 77.65 220.26 77.32 220.14 76.83ZM30.47 74.89C31.05 74.1 31.17 73.48 31.17 71.01C31.16 67.56 30.67 66.67 28.76 66.67C27.77 66.67 27.57 66.82 27.12 67.9C26.41 69.58 26.6 73.84 27.44 75.12C28.21 76.3 29.49 76.2 30.47 74.89ZM25.08 40.3C24.05 39.92 24.14 39.12 25.25 38.84C26.87 38.44 27 38.13 27 34.78L27 31.63L25.83 31.15C24.54 30.61 24.16 29.33 25.29 29.33C25.63 29.33 26.32 29.01 26.83 28.61C27.52 28.07 27.88 27.97 28.29 28.23C28.74 28.52 28.85 29.37 28.93 33.47L29.02 38.37L30.18 38.86C31.38 39.36 31.62 39.79 30.93 40.21C30.35 40.57 25.97 40.64 25.08 40.3Z" fill="#1e2749" fill-rule="evenodd"/>
</svg>
