<?xml version="1.0" encoding="UTF-8"?>
<svg xmlns="http://www.w3.org/2000/svg" viewBox="0 0 2430 2078" width="2430" height="2078" shape-rendering="geometricPrecision">
<path d="M543.5 1984.62C525.04 1981.58 504.77 1973.77 489.2 1963.7C463.7 1947.2 439.35 1910.35 431.41 1876.22C426.34 1854.47 428.11 1833.2 437 1808.83C448.8 1776.51 476.95 1743.66 504.34 1730.24C515.18 1724.93 522.73 1722.62 539.49 1719.48C547.18 1718.03 554.04 1716.38 554.74 1715.8C555.75 1714.96 556 1586.06 556 1060.38L556 406L1210.38 406C1732.67 406 1864.96 405.75 1865.78 404.75C1866.34 404.06 1868.13 396.75 1869.76 388.5C1871.38 380.25 1873.97 370.35 1875.49 366.5C1886.56 338.64 1915.4 307.84 1943.18 294.19C1958.7 286.57 1980.82 280.38 1996 279.41C2016.1 278.12 2047.25 286.39 2067.18 298.31C2104.32 320.52 2130.78 362.61 2136.03 407.82C2139.52 437.93 2128.19 471.21 2104.41 500.6C2081.43 529.01 2053.31 546.65 2027.98 548.55C2015.85 549.46 2010.13 552.34 2006.04 559.58C2000.42 569.55 1989.85 573.94 1984.45 568.55C1981.74 565.83 1981.5 564.45 1983.05 560.38C1985.51 553.9 1980.32 549.64 1965.6 546.05C1945.94 541.27 1925.03 530.62 1912.87 519.19C1892.53 500.07 1871.36 463.77 1868.52 443.17L1867.81 438L1862.66 436.53C1850.45 433.06 1810.03 431.15 1726 430.09C1693.28 429.67 1421.78 429.25 1122.68 429.16L578.86 428.99L579.31 1013.24C579.76 1586.94 580.06 1642.26 583.05 1685.5C584.19 1702.06 586.14 1714.26 588.02 1716.52C588.61 1717.24 591.44 1718.14 594.3 1718.53C620.36 1722.05 664.16 1754.86 681.17 1783.6C684.65 1789.48 689.41 1796.42 691.74 1799.03C697.64 1805.63 701.59 1806.99 714.23 1806.76C722.94 1806.6 725.18 1806.89 728.53 1808.63C738.75 1813.92 733.13 1823.19 716.76 1828.07C704.46 1831.73 701.2 1836.76 698.54 1856.15C697.68 1862.39 696.51 1870.88 695.93 1875C688.68 1926.88 647.84 1970.02 594 1982.67C580.95 1985.73 556.09 1986.69 543.5 1984.62ZM320.21 1979.01C317.85 1977.94 313.32 1974.58 310.15 1971.56C306.97 1968.53 302.75 1965.37 300.75 1964.54C294.93 1962.11 284.57 1961.73 268.5 1963.36C243.81 1965.86 225.41 1963.32 207.16 1954.89C174.03 1939.6 158 1910.8 158 1866.59C158 1849.54 159.17 1839.45 163.01 1823.32C173.33 1780.02 196.86 1744.6 224.55 1730.7C232.86 1726.53 248.86 1721.37 259.29 1719.5C272.45 1717.15 294.17 1717.82 304.83 1720.92C348.56 1733.63 372.4 1776.79 368.13 1835.54C365.84 1867.01 358.75 1887.25 339.37 1917.65C329.11 1933.74 327.05 1938.17 327.02 1944.16C327 1948.05 327.59 1949.51 330.57 1953.09C335.76 1959.29 338 1964.27 338 1969.56C338 1973.5 337.49 1974.71 334.6 1977.6C330.58 1981.62 326.78 1981.99 320.21 1979.01ZM578.52 1964.54C616.96 1959.07 649.76 1934.6 667.04 1898.5C675.23 1881.39 678.76 1863.74 677.65 1845.47C673.81 1782.09 625.71 1738 560.41 1738C546.71 1738 536.76 1739.59 526.71 1743.38C476.86 1762.18 448.42 1807.29 453.06 1860.19C454.58 1877.48 458.42 1890.97 466.12 1906C483.5 1939.94 514.86 1960.77 555.5 1965.36C562.29 1966.13 569.04 1965.89 578.52 1964.54ZM265.02 1941.49C272.02 1937.87 270.89 1932.43 260.82 1921.27C255.81 1915.72 255.54 1910.73 260 1905.66C266.67 1898.06 272.22 1898.51 283.5 1907.56C295.53 1917.21 301.97 1919.14 308.59 1915.11C317.42 1909.72 326.93 1891.18 334.53 1864.5C344.87 1828.27 342.56 1788.13 328.92 1766.87C319.91 1752.84 304.17 1745.8 278.43 1744.3C261.06 1743.29 245.78 1746.59 235 1753.67C218.92 1764.23 199.72 1790.73 189.52 1816.49C177.15 1847.68 182.75 1891.51 202.44 1917.71C208.51 1925.78 212.81 1929.09 224.35 1934.56C240.63 1942.27 257.84 1945.2 265.02 1941.49ZM779.75 1802.5C777.6 1801.28 777 1800.2 777 1797.56C777 1793.21 780.69 1789.99 791.5 1784.9C810.33 1776.05 826.19 1773.36 830.75 1778.25C836.1 1783.98 833.75 1789.19 823.27 1794.77C810.08 1801.81 786.03 1806.08 779.75 1802.5ZM873.22 1769.44C867.5 1765.43 873.13 1756.97 885.72 1750.65C902.85 1742.06 915.37 1739.75 920.41 1744.25C929.87 1752.71 916.56 1765.09 893.16 1769.59C883.48 1771.45 876.01 1771.4 873.22 1769.44ZM965.17 1734.69C961.46 1730.73 962.94 1725.99 969.85 1719.75C977.16 1713.15 997.61 1704.78 1006.86 1704.6C1011.8 1704.51 1012.44 1704.77 1015.11 1707.96C1016.7 1709.87 1018 1711.78 1018 1712.21C1018 1714.26 1010.4 1720.98 1003.13 1725.37C993.89 1730.94 977.43 1736.98 971.42 1736.99C968.45 1737 966.76 1736.37 965.17 1734.69ZM1057.13 1690.13C1053.71 1686.71 1054.31 1682.34 1058.81 1678.1C1063.33 1673.83 1078.98 1665.05 1088.37 1661.51C1097.68 1658.01 1100.5 1658.19 1104.63 1662.57C1106.48 1664.54 1108 1666.8 1108 1667.59C1108 1669.95 1100.16 1677.76 1094.11 1681.43C1085.43 1686.69 1073.39 1691.08 1065.92 1691.71C1060.04 1692.2 1059.02 1692.02 1057.13 1690.13ZM1143.57 1648.43C1141.32 1646.18 1141.61 1644 1144.84 1638.91C1152.1 1627.47 1173.73 1614.08 1185.05 1614.02C1190.39 1614 1192 1615.26 1192 1619.5C1192 1627.41 1174.74 1641.75 1158.21 1647.59C1150.37 1650.36 1145.76 1650.62 1143.57 1648.43ZM1233.01 1595.51C1229.72 1591.55 1235.82 1581.33 1246.14 1573.53C1262.65 1561.05 1276 1559.51 1276 1570.1C1276 1573.46 1275.27 1574.86 1271.37 1579.03C1260.35 1590.81 1237.32 1600.71 1233.01 1595.51ZM1314.2 1544.8C1310.77 1541.37 1314.26 1529.53 1321.28 1520.81C1327.61 1512.93 1346.65 1501.68 1352.79 1502.19C1355.99 1502.46 1356.61 1502.97 1357.9 1506.37C1359.28 1510.01 1359.23 1510.51 1357.05 1514.61C1352.71 1522.79 1336.89 1537.01 1325.42 1543.04C1319.4 1546.21 1316.12 1546.72 1314.2 1544.8ZM1392.2 1478.8C1388.48 1475.08 1392.36 1466.63 1401.81 1457.89C1417.19 1443.68 1436.18 1436.85 1440.07 1444.14C1441.86 1447.47 1440.33 1450.65 1433.73 1457.35C1417.87 1473.43 1397.41 1484.01 1392.2 1478.8ZM1469.75 1413.89C1464.98 1411.19 1470.11 1399.71 1480.93 1388.87C1488.82 1380.97 1495.6 1376.47 1502.77 1374.38C1511.68 1371.78 1517.27 1374.78 1515.64 1381.29C1513.98 1387.92 1497.78 1402.58 1484.28 1409.67C1475.31 1414.38 1472.2 1415.29 1469.75 1413.89ZM1541.01 1338.25C1541.02 1333.61 1544.66 1325.63 1550.5 1317.44C1562.01 1301.32 1579.68 1292.77 1583.07 1301.69C1584.6 1305.71 1580.71 1311.59 1568.61 1323.5C1557.91 1334.04 1546.79 1342 1542.77 1342C1541.39 1342 1541 1341.18 1541.01 1338.25ZM1610 1268.31C1602.15 1265.5 1606.64 1249 1618.84 1235.79C1626.02 1228.01 1632.23 1224 1637.07 1224C1649.04 1224 1643.57 1241.72 1626.35 1258.72C1621.28 1263.72 1613.28 1269.33 1611.79 1268.92C1611.63 1268.88 1610.83 1268.6 1610 1268.31ZM1668.01 1192.29C1661.68 1187.86 1671.26 1165.63 1686.69 1148.97C1692.77 1142.4 1697.49 1140.15 1701.2 1142.06C1704.57 1143.78 1706.95 1147.13 1706.98 1150.17C1707.03 1156.5 1699.1 1169.61 1688.31 1181.06C1678.6 1191.35 1671.93 1195.04 1668.01 1192.29ZM133 1118.07C111.46 1117.13 104.67 1115.82 100.69 1111.84C97.87 1109.03 97.78 1108.65 98.44 1102.7C99.96 1089.04 106.67 1075.63 119.81 1060C131.06 1046.62 148.65 1031.6 169 1018C182.89 1008.72 198.99 995.72 207.38 987.01C220.69 973.21 224.25 963.29 220.52 950.39C216.47 936.35 207.58 925.5 195.47 919.84C187.62 916.16 175.58 914.96 166.89 916.99C159.19 918.78 150.22 923.74 145 929.1C140.54 933.68 139.57 935.33 132.59 950.16C129.97 955.71 127.48 959.19 123.54 962.79C117.19 968.59 113.85 969.78 110.35 967.49C100.47 961.02 108.26 932.62 125.73 911.44C135.73 899.32 148.22 895 175.58 894.23C189.64 893.83 192.72 894.04 200.05 895.89C227.08 902.73 244.28 920.46 247.99 945.32C250.01 958.88 247.59 975.07 241.81 986.5C234.26 1001.46 223.14 1011.46 187.77 1035.1C159.92 1053.71 150.49 1060.68 140.79 1069.84C132.79 1077.38 128.71 1083.66 129.18 1087.71C129.46 1090.12 130.14 1090.66 134.17 1091.65C143.22 1093.89 160.7 1095.13 195.92 1096.04C215.49 1096.55 233.63 1097.41 236.24 1097.95C242.2 1099.19 246.64 1101.46 247.97 1103.94C249.46 1106.73 249.29 1107.5 246.43 1110.9C241.61 1116.63 231.7 1117.85 185.63 1118.4C166.31 1118.63 142.62 1118.48 133 1118.07ZM294.41 1118.03C293.26 1117.56 291.6 1115.68 290.73 1113.84C287.12 1106.24 286.5 1094.48 286.52 1034.5C286.54 985.36 286.8 974.8 288.22 965.39C291.43 944.2 294.38 941.53 303.6 951.49C309.79 958.17 311.29 958.34 321.9 953.55C332.04 948.97 339.58 947.07 350.69 946.33C368.82 945.1 382.11 948.99 391.98 958.4C400.78 966.79 399.96 966.88 421.09 955.2C432.21 949.05 441.72 946.82 457.5 946.67C476.28 946.5 488.99 950.37 497.87 958.99C508.89 969.68 510.99 983.06 511 1042.6C511 1096.85 509.27 1112.55 502.78 1117.34C500.52 1119.01 499.64 1119.16 497.58 1118.22C490.83 1115.14 489.05 1103.86 486.52 1048C485.01 1014.7 483.43 999.49 480.4 989.03C475.91 973.52 469 968.23 454.61 969.27C433.46 970.81 423.01 978.11 415.97 996.26C409.49 1012.98 407.24 1030.15 406.04 1072C405.03 1107.12 404.26 1111.92 398.91 1116.42C397.22 1117.84 395.27 1119 394.56 1119C391.71 1119 387.99 1114.72 386.48 1109.7C384.56 1103.32 383.08 1075.81 383.03 1045.5C382.98 1014.46 380.82 993.93 376.54 983.73C375.67 981.65 373.33 978.16 371.35 975.97C366.39 970.47 359.87 968.65 347.11 969.18C325.23 970.1 316.78 979.32 311.53 1008C310.45 1013.89 309.67 1028.31 308.99 1055C307.71 1105.35 306.43 1114.17 299.93 1117.54C298.37 1118.34 296.96 1118.97 296.8 1118.94C296.63 1118.9 295.56 1118.49 294.41 1118.03ZM1727.88 1108.88C1726.07 1107.07 1725.84 1105.99 1726.34 1101.74C1727.88 1088.77 1745.9 1061.57 1754.37 1059.44C1759.06 1058.27 1761.35 1059.29 1762.84 1063.24C1764.14 1066.65 1764.06 1067.58 1762 1074.01C1759.08 1083.08 1750.07 1096.73 1741.7 1104.75C1734.52 1111.62 1731.52 1112.52 1727.88 1108.88ZM1782.3 1027.93C1778.82 1026.62 1777.68 1020.64 1779.55 1013.47C1785.44 990.85 1807.97 968.39 1814.61 978.52C1815.75 980.27 1816.09 982.27 1815.72 985.03C1814.68 992.81 1804.08 1010.59 1794.07 1021.34C1788.59 1027.21 1785.3 1029.06 1782.3 1027.93ZM1827.23 937.96C1822.22 935.95 1823.25 930.23 1831.65 913.52C1838.36 900.16 1844.81 890.9 1849.35 888.09C1853.69 885.41 1858.58 885.34 1859.96 887.93C1865.97 899.16 1843.38 939.36 1831.3 938.94C1830.31 938.9 1828.48 938.46 1827.23 937.96ZM1872.23 847.96C1867.22 845.95 1868.26 840.23 1876.62 823.59C1883.76 809.38 1889.22 801.71 1894.82 798C1900.15 794.46 1901.34 794.34 1904 797C1912.6 805.6 1889.24 849.39 1876.3 848.94C1875.31 848.9 1873.48 848.46 1872.23 847.96ZM1915.87 756.87C1913.96 754.96 1913.79 753.97 1914.29 747.62C1914.85 740.4 1919.15 726.61 1923.53 717.94C1930.09 704.99 1940.3 701.98 1943.06 712.21C1946.29 724.21 1934.05 751.78 1922.94 757.53C1919.19 759.47 1918.39 759.39 1915.87 756.87ZM1955.66 667.87C1953.17 666.42 1951 660.94 1951 656.08C1951 646.86 1956.42 631.56 1962.52 623.56C1967.76 616.7 1975.79 613.93 1979.55 617.7C1984.66 622.81 1974.4 652.86 1963.56 664.49C1959.08 669.3 1958.53 669.54 1955.66 667.87ZM2176.11 532.11C2171.82 527.82 2170.95 512.99 2173.53 488.22C2176.31 461.6 2181.45 431.1 2195.53 357.77C2200.15 333.72 2204.23 311.77 2204.6 308.98C2205.08 305.33 2205.85 303.59 2207.38 302.71C2208.93 301.82 2219 301.5 2245 301.5C2274.55 301.5 2282.04 301.79 2289.69 303.24C2327.66 310.43 2342.33 329.04 2340.7 367.96C2339.81 388.97 2335.49 400.6 2324.56 411.41C2310.09 425.7 2294.79 430.83 2254.28 434.95C2221.49 438.28 2206.08 441.91 2204.14 446.75C2201.94 452.21 2198.96 466.9 2195.97 487C2191.51 516.95 2188.66 526.59 2182.79 531.52C2179.25 534.5 2178.56 534.56 2176.11 532.11ZM2024 527.03C2065.9 517.92 2099.79 486.82 2111.37 446.85C2122.74 407.63 2110.43 363.15 2080.46 335.11C2042.9 299.98 1989.06 292.38 1945.23 316.02C1919.93 329.66 1900.06 355.9 1891.47 387C1888.21 398.8 1887.02 420.6 1888.97 432.75C1891.52 448.62 1899.98 469.7 1909.34 483.5C1925.27 506.99 1956.95 525.07 1989 528.95C1998.8 530.14 2013.38 529.34 2024 527.03ZM2258 410.54C2294.76 404.85 2316.69 388.31 2317.84 365.4C2318.65 349.41 2311.26 336.67 2297.55 330.39C2286.16 325.18 2281.31 324.52 2254.5 324.51L2229.51 324.5L2222.76 356C2215.22 391.2 2213.64 404.28 2216.41 408.5C2217.35 409.94 2219.1 411.54 2220.31 412.07C2223.2 413.33 2245.91 412.41 2258 410.54ZM1088.83 344.92C1077.27 343.96 1072.16 342.7 1068.63 339.92C1066.39 338.16 1066 337.09 1066.02 332.68C1066.06 324.99 1067.59 319.51 1072.5 309.5C1082.82 288.45 1101.2 270.07 1136.5 245.5C1156.69 231.45 1165.39 224.42 1175 214.38C1187.62 201.2 1191.01 192.67 1188.47 180.53C1185.51 166.38 1175.34 152.79 1163.75 147.49C1144.23 138.57 1119.02 145.07 1108.2 161.81C1106.16 164.97 1103.21 170.81 1101.65 174.8C1097.28 185.94 1087.3 196 1080.62 196C1077.46 196 1074.36 192.12 1073.51 187.08C1070.87 171.45 1089.72 136.56 1105.04 128.73C1114.01 124.15 1128.13 121.65 1145.5 121.58C1161.87 121.52 1166.92 122.35 1178.85 127.06C1196.63 134.09 1209.77 148.73 1214.43 166.72C1217.86 179.98 1215.67 201.14 1209.57 213.5C1202.08 228.69 1188.89 240.64 1155.5 262.46C1115.3 288.74 1094.58 307.37 1096.2 315.79C1097.04 320.19 1111.41 321.89 1157 322.99C1193.13 323.87 1204.16 324.79 1210.55 327.45C1216.61 329.99 1217.7 335.39 1212.95 339.38C1208.91 342.79 1204.53 343.85 1189.82 345C1175.28 346.13 1102.76 346.07 1088.83 344.92ZM1252.59 344.09C1247.5 338.48 1246.04 320.41 1246.04 263C1246.03 208.55 1247.98 182.26 1252.54 175.3C1255.11 171.38 1258.75 172.54 1263.37 178.75C1266.95 183.55 1267.62 184 1271.26 184C1273.67 184 1278.3 182.62 1282.93 180.53C1295.28 174.96 1302.3 173.72 1318.5 174.29C1337.12 174.94 1342.63 176.8 1351.99 185.63C1360.05 193.24 1361.87 193.51 1370.5 188.47C1390.99 176.48 1402 173.44 1421.93 174.27C1435.91 174.85 1444.05 176.97 1452.22 182.17C1461.74 188.22 1465.85 194.99 1468.55 209.07C1470.68 220.19 1471.77 295.24 1470.12 317.5C1468.84 334.73 1467.93 338.74 1464.33 343.02C1460.94 347.05 1457.41 346.75 1454.34 342.19C1450.27 336.12 1448.56 322.63 1447.03 284.5C1445.16 237.89 1442.93 220.07 1437.54 208.68C1432.37 197.74 1424.52 194.67 1408.62 197.35C1403.31 198.25 1396.82 200.07 1394.19 201.4C1380.81 208.19 1372.48 225.73 1368.48 255.62C1367.67 261.61 1366.76 278.43 1366.45 293C1366.15 307.57 1365.44 323.28 1364.89 327.9C1363.32 341.07 1359.04 347.23 1352.59 345.61C1345.53 343.84 1344.22 334.83 1342.98 279.54C1342.44 255.32 1341.55 232.57 1341 229C1338.41 212.17 1333.31 202.4 1325.18 198.69C1321.26 196.9 1318.72 196.57 1309.5 196.64C1301.88 196.7 1297.14 197.23 1294.07 198.38C1281.49 203.09 1275.29 213.51 1271.42 236.44C1270.4 242.5 1269.59 257.93 1268.99 283C1268.03 323.36 1267.67 328.72 1265.44 336.68C1263.16 344.79 1256.63 348.56 1252.59 344.09Z" fill="#1e2749" fill-rule="evenodd"/>
</svg>
