<?xml version="1.0" encoding="UTF-8"?>
<!-- Generator: visioncortex VTracer 0.6.12 -->
<svg version="1.1" xmlns="http://www.w3.org/2000/svg" width="2430" height="709">
<path d="M0 0 C801.9 0 1603.8 0 2430 0 C2430 233.97 2430 467.94 2430 709 C1628.1 709 826.2 709 0 709 C0 475.03 0 241.06 0 0 Z " fill="#FEFEFE" transform="translate(0,0)"/>
<path d="M0 0 C801.9 0 1603.8 0 2430 0 C2430 233.97 2430 467.94 2430 709 C1628.1 709 826.2 709 0 709 C0 475.03 0 241.06 0 0 Z M305 44 C305 107.03 305 170.06 305 235 C341.96 235 378.92 235 417 235 C417 284.5 417 334 417 385 C376 384 376 384 368 383 C365.66 383.29 363.33 383.62 361 384 C358.01 384.16 355.03 384.18 352.04 384.21 C351.17 384.22 350.3 384.23 349.4 384.24 C346.55 384.27 343.7 384.29 340.85 384.32 C338.86 384.34 336.88 384.36 334.89 384.38 C329.68 384.43 324.47 384.48 319.26 384.53 C313.94 384.58 308.62 384.64 303.29 384.69 C292.86 384.8 282.43 384.9 272 385 C271.67 385.66 271.67 385.66 270 389 C275.15 391.09 279.57 391.27 285.03 391.23 C285.48 391.23 285.48 391.23 287.73 391.23 C290.65 391.23 293.57 391.21 296.49 391.2 C298.52 391.19 300.56 391.19 302.59 391.19 C307.92 391.18 313.26 391.16 318.6 391.14 C324.05 391.12 329.5 391.11 334.95 391.1 C345.63 391.08 356.32 391.04 367 391 C367 391.57 367 392.15 367 392.74 C366.98 426.8 366.96 460.86 366.95 494.93 C366.95 499.03 366.95 503.13 366.95 507.23 C366.94 508.05 366.94 508.86 366.94 509.7 C366.94 522.88 366.93 536.05 366.92 549.22 C366.91 562.77 366.91 576.31 366.91 589.85 C366.9 598.19 366.9 606.53 366.89 614.87 C366.89 620.61 366.89 626.35 366.89 632.09 C366.89 635.38 366.89 638.68 366.88 641.98 C366.86 656.12 367.05 670.21 367.76 684.33 C367.81 685.21 367.85 686.08 367.9 686.98 C367.93 687.65 367.97 688.31 368 689 C382.64 689.89 397.21 690.14 411.87 690.13 C414.23 690.13 416.59 690.13 418.95 690.13 C424.74 690.13 430.53 690.13 436.31 690.13 C443.3 690.13 450.29 690.13 457.28 690.13 C470.34 690.14 483.39 690.14 496.45 690.13 C509.67 690.13 522.9 690.13 536.12 690.13 C536.96 690.13 537.79 690.13 538.66 690.13 C542.06 690.13 545.47 690.13 548.88 690.13 C580.58 690.14 612.28 690.14 643.99 690.14 C644.46 690.14 644.46 690.14 646.83 690.14 C647.77 690.14 648.71 690.14 649.68 690.14 C678.32 690.13 706.96 690.13 735.6 690.13 C737.52 690.13 739.44 690.13 741.36 690.13 C749.06 690.13 756.77 690.13 764.48 690.14 C786.03 690.14 807.58 690.14 829.12 690.14 C830.11 690.14 831.09 690.14 832.1 690.14 C863.35 690.14 894.61 690.14 925.86 690.13 C926.87 690.13 927.89 690.13 928.93 690.13 C945.39 690.13 961.85 690.13 978.3 690.13 C1043.63 690.13 1108.95 690.13 1174.27 690.13 C1190.74 690.13 1207.21 690.13 1223.69 690.13 C1224.7 690.13 1225.71 690.13 1226.76 690.13 C1258 690.14 1289.24 690.14 1320.47 690.14 C1321.45 690.14 1322.44 690.14 1323.44 690.14 C1344.96 690.14 1366.47 690.14 1387.98 690.13 C1395.68 690.13 1403.37 690.13 1411.07 690.13 C1412.98 690.13 1414.9 690.13 1416.81 690.13 C1445.46 690.13 1474.11 690.13 1502.75 690.14 C1503.69 690.14 1504.63 690.14 1505.6 690.14 C1506.07 690.14 1506.07 690.14 1508.45 690.14 C1540.04 690.14 1571.63 690.14 1603.22 690.13 C1606.6 690.13 1609.99 690.13 1613.38 690.13 C1614.21 690.13 1615.04 690.13 1615.9 690.13 C1629.09 690.13 1642.29 690.13 1655.49 690.13 C1668.45 690.14 1681.4 690.13 1694.36 690.13 C1701.3 690.13 1708.24 690.13 1715.18 690.13 C1721.48 690.13 1727.77 690.13 1734.07 690.13 C1736.35 690.13 1738.63 690.13 1740.91 690.13 C1743.97 690.13 1747.04 690.13 1750.11 690.13 C1751.01 690.13 1751.91 690.13 1752.83 690.13 C1758.89 690.11 1758.89 690.11 1760 689 C1761.11 680.9 1761.14 672.71 1761.12 664.55 C1761.12 663.35 1761.12 662.16 1761.12 660.93 C1761.12 657.65 1761.12 654.37 1761.12 651.09 C1761.11 647.54 1761.11 643.99 1761.11 640.44 C1761.11 634.3 1761.11 628.16 1761.11 622.02 C1761.1 613.15 1761.09 604.27 1761.09 595.4 C1761.09 581 1761.08 566.6 1761.08 552.19 C1761.07 538.21 1761.06 524.23 1761.05 510.24 C1761.05 509.37 1761.05 508.5 1761.05 507.6 C1761.05 500.78 1761.05 493.96 1761.05 487.14 C1761.04 453.76 1761.02 420.38 1761 387 C1808.52 387 1856.04 387 1905 387 C1904.99 403.02 1904.98 419.03 1904.96 435.54 C1904.96 445.67 1904.95 455.8 1904.95 465.93 C1904.95 471.25 1904.95 476.57 1904.95 481.89 C1904.94 482.56 1904.94 483.23 1904.94 483.91 C1904.94 494.68 1904.93 505.44 1904.92 516.2 C1904.91 527.25 1904.91 538.3 1904.91 549.35 C1904.9 555.55 1904.9 561.76 1904.89 567.96 C1904.89 573.8 1904.89 579.64 1904.89 585.48 C1904.89 587.62 1904.88 589.77 1904.88 591.91 C1904.88 594.84 1904.88 597.77 1904.88 600.69 C1904.88 601.54 1904.87 602.39 1904.87 603.26 C1904.88 607.95 1905.22 612.38 1906 617 C1924.48 618 1942.93 618.14 1961.43 618.12 C1965.63 618.11 1969.83 618.11 1974.04 618.11 C1982.15 618.11 1990.27 618.11 1998.39 618.1 C2007.8 618.1 2017.21 618.1 2026.62 618.09 C2051.41 618.09 2076.21 618.08 2101 618.06 C2156.44 618.04 2211.88 618.02 2269 618 C2269 491.61 2269 365.22 2269 235 C2307.61 235 2346.22 235 2386 235 C2386 171.64 2386 108.28 2386 43 C2290.76 42.99 2290.76 42.99 2254.09 42.99 C2252.95 42.99 2251.82 42.99 2250.66 42.99 C2232.17 42.99 2213.68 42.99 2195.19 42.98 C2193.94 42.98 2192.7 42.98 2191.41 42.98 C2109.8 42.98 2028.19 42.97 1793.68 42.96 C1791.47 42.96 1789.25 42.96 1787.03 42.96 C1724.19 42.95 1661.36 42.95 1598.52 42.95 C1596.2 42.95 1593.87 42.95 1591.55 42.95 C1590.78 42.95 1590.01 42.95 1589.22 42.95 C1560.34 42.95 1531.45 42.95 1502.57 42.95 C1499.43 42.95 1496.3 42.95 1493.16 42.94 C1419.07 42.94 1344.97 42.94 1270.88 42.93 C1270.49 42.93 1270.49 42.93 1268.52 42.93 C1242.58 42.93 1216.63 42.93 1190.69 42.92 C1167.25 42.92 1143.81 42.92 1120.37 42.92 C1119.6 42.92 1118.83 42.92 1118.03 42.92 C1069.83 42.91 1021.62 42.91 973.41 42.91 C973.04 42.91 973.04 42.91 971.16 42.91 C938.47 42.91 905.79 42.91 873.1 42.91 C859.95 42.91 846.81 42.91 833.66 42.91 C831.48 42.91 829.3 42.91 827.12 42.91 C793.75 42.9 760.38 42.9 727.01 42.9 C726.29 42.9 725.57 42.9 724.83 42.9 C713.24 42.9 701.66 42.9 690.07 42.89 C657.2 42.89 624.32 42.89 591.45 42.89 C591.12 42.89 591.12 42.89 589.43 42.89 C575.54 42.89 561.66 42.89 547.77 42.89 C541.33 42.89 534.88 42.89 528.43 42.89 C527.17 42.89 525.91 42.89 524.61 42.89 C504.54 42.89 484.48 42.88 464.42 42.88 C444.72 42.88 425.03 42.88 405.33 42.88 C393.76 42.88 382.2 42.88 370.63 42.87 C362.96 42.87 355.3 42.87 347.64 42.87 C343.28 42.88 338.93 42.88 334.57 42.87 C330.63 42.87 326.68 42.87 322.74 42.87 C321.31 42.88 319.89 42.87 318.47 42.87 C316.55 42.87 314.64 42.87 312.72 42.88 C311.65 42.88 310.59 42.88 309.49 42.88 C307 43 307 43 305 44 Z " fill="#FEFEFE" transform="translate(0,0)"/>
<path d="M0 0 C682.77 0 1365.54 0 2069 0 C2069 59.07 2069 118.14 2069 179 C2032.7 179 1996.4 179 1959 179 C1958.67 151.61 1958.34 124.22 1958 96 C1838.54 95.67 1719.08 95.34 1596 95 C1589.53 120.88 1594.35 148.33 1594 175 C1562.15 175.17 1562.15 175.17 1401 176 C1400.67 273.02 1400.34 370.04 1400 470 C1337.96 470 1275.92 470 1212 470 C1212 376.28 1212 282.56 1212 186 C1251.27 186 1290.54 186 1331 186 C1331 141.12 1331 96.24 1331 50 C1329.02 50 1327.04 50 1325 50 C1325 92.57 1325 135.14 1325 179 C1287.71 179 1250.42 179 1212 179 C1212 152.27 1212 125.54 1212 98 C1091.88 98 971.76 98 848 98 C848 124.73 848 151.46 848 179 C784.97 179.33 721.94 179.66 657 180 C656.67 277.02 656.34 374.04 656 474 C594.62 474 533.24 474 470 474 C470 378.3 470 282.6 470 184 C488.81 183.83 488.81 183.83 584 183 C584.04 150.56 584.04 150.56 584.05 136.98 C584.05 127.6 584.06 118.22 584.08 108.84 C584.09 102.01 584.09 95.18 584.09 88.35 C584.1 84.73 584.1 81.12 584.11 77.5 C584.11 73.46 584.11 69.42 584.11 65.39 C584.12 64.19 584.12 62.99 584.12 61.75 C584.12 60.65 584.12 59.55 584.12 58.42 C584.12 57.46 584.12 56.51 584.12 55.52 C584.01 53.2 583.66 51.22 583 49 C582.01 49 581.02 49 580 49 C578.75 51.5 578.86 53.22 578.84 56.02 C578.83 57.09 578.82 58.15 578.81 59.24 C578.81 60.42 578.8 61.59 578.79 62.79 C578.79 63.41 578.79 63.41 578.76 66.52 C578.74 69.89 578.72 73.27 578.7 76.65 C578.67 80.17 578.65 83.7 578.62 87.22 C578.57 93.9 578.53 100.58 578.48 107.26 C578.43 115.61 578.37 123.96 578.31 132.31 C578.2 147.21 578.1 162.1 578 177 C542.36 177 506.72 177 470 177 C469.56 137.06 469.56 137.06 469.43 124.43 C469.37 119.36 469.37 119.36 469.34 116.99 C469.32 115.32 469.31 113.66 469.29 112 C469.27 109.48 469.24 106.97 469.21 104.46 C469.2 103.71 469.19 102.97 469.19 102.2 C469.11 97.11 469.11 97.11 468 96 C466.09 95.9 464.17 95.87 462.26 95.87 C461.63 95.87 461.63 95.87 458.45 95.87 C457.04 95.87 455.63 95.87 454.22 95.87 C452.73 95.87 451.25 95.87 449.76 95.87 C445.66 95.86 441.56 95.87 437.46 95.87 C433.05 95.87 428.63 95.87 424.22 95.87 C415.56 95.86 406.91 95.86 398.25 95.86 C391.22 95.87 384.19 95.87 377.16 95.87 C376.16 95.87 375.16 95.87 374.13 95.87 C372.1 95.87 370.08 95.87 368.05 95.86 C349 95.86 329.96 95.87 310.91 95.87 C294.55 95.88 278.19 95.87 261.83 95.87 C242.85 95.86 223.88 95.86 204.91 95.87 C202.88 95.87 200.86 95.87 198.84 95.87 C198.34 95.87 198.34 95.87 195.83 95.87 C188.8 95.87 181.77 95.87 174.75 95.86 C166.19 95.86 157.63 95.86 149.07 95.87 C144.7 95.87 140.33 95.87 135.96 95.87 C131.97 95.86 127.97 95.87 123.98 95.87 C122.53 95.87 121.07 95.87 119.62 95.87 C117.66 95.87 115.7 95.87 113.74 95.87 C112.65 95.87 111.56 95.87 110.43 95.87 C108 96 108 96 107 97 C106.87 99.56 106.81 102.08 106.79 104.64 C106.78 105.45 106.77 106.27 106.76 107.1 C106.73 109.75 106.71 112.39 106.68 115.04 C106.67 116.66 106.65 118.29 106.63 119.92 C106.56 125.97 106.5 132.01 106.44 138.06 C106.29 151.57 106.15 165.08 106 179 C71.02 179 36.04 179 0 179 C0 119.93 0 60.86 0 0 Z " fill="#FEFEFE" transform="translate(311,49)"/>
<path d="M0 0 C116.16 0 232.32 0 352 0 C352 152.13 352 304.26 352 461 C294.11 461.02 236.21 461.04 176.56 461.06 C158.25 461.07 139.93 461.08 121.06 461.09 C98.79 461.09 98.79 461.09 88.37 461.1 C81.07 461.1 73.76 461.1 66.45 461.11 C58.03 461.11 49.61 461.11 41.19 461.11 C36.88 461.11 32.57 461.11 28.26 461.12 C24.37 461.12 20.47 461.12 16.58 461.12 C15.17 461.12 13.76 461.12 12.34 461.12 C10.43 461.13 8.52 461.13 6.6 461.12 C5.54 461.12 4.47 461.12 3.37 461.12 C1 461 1 461 0 460 C-0.13 457.63 -0.2 455.29 -0.22 452.92 C-0.23 452.55 -0.23 452.55 -0.26 450.65 C-0.29 448.12 -0.32 445.59 -0.35 443.06 C-0.38 441.26 -0.4 439.45 -0.43 437.64 C-0.64 421.12 -0.76 404.6 -0.86 388.07 C-0.93 376.96 -1.02 365.85 -1.19 354.74 C-1.33 345.05 -1.42 335.36 -1.45 325.67 C-1.47 320.54 -1.51 315.42 -1.62 310.29 C-1.71 305.46 -1.74 300.63 -1.71 295.8 C-1.72 294.03 -1.75 292.26 -1.8 290.49 C-2.19 277.52 -2.19 277.52 1.46 273.32 C5.02 270.27 8.95 268.04 13.14 265.95 C15.87 264.56 18.41 262.9 20.98 261.23 C22.86 260.07 24.74 258.91 26.62 257.75 C34.76 252.7 42.83 247.55 50.81 242.25 C51.7 241.67 52.58 241.08 53.49 240.48 C54.3 239.93 55.12 239.39 55.96 238.83 C56.31 238.59 56.31 238.59 58.11 237.39 C59.93 236.05 61.46 234.64 63 233 C61.62 229.74 60.17 228.07 57.32 226 C56.56 225.45 55.81 224.9 55.03 224.33 C54.63 224.04 54.63 224.04 52.56 222.56 C51.72 221.95 50.87 221.33 49.99 220.7 C43.44 215.96 36.79 211.38 30.09 206.85 C23.59 202.44 17.21 197.87 10.87 193.22 C10.17 192.71 9.48 192.2 8.76 191.68 C8.15 191.23 7.54 190.79 6.92 190.33 C5 189 5 189 2.42 187.88 C0 186 0 186 -0.62 182.73 C-0.64 181.34 -0.63 179.96 -0.6 178.58 C-0.6 178.2 -0.6 178.2 -0.61 176.27 C-0.62 173.71 -0.59 171.15 -0.57 168.59 C-0.57 166.72 -0.57 164.86 -0.57 163 C-0.57 158 -0.54 153 -0.51 148.01 C-0.48 143.32 -0.48 138.63 -0.47 133.95 C-0.45 120.24 -0.38 106.52 -0.31 92.81 C-0.21 62.18 -0.11 31.56 0 0 Z " fill="#FEFEFE" transform="translate(1912,151)"/>
<path d="M0 0 C115.83 0 231.66 0 351 0 C351 75 351 75 350 80 C350.33 80.66 350.66 81.32 351 82 C351.09 83.59 351.12 85.18 351.12 86.78 C351.13 87.79 351.13 88.8 351.13 89.85 C351.13 90.97 351.12 92.09 351.12 93.25 C351.12 93.84 351.12 93.84 351.12 96.84 C351.12 100.15 351.12 103.45 351.12 106.75 C351.11 110.31 351.11 113.86 351.11 117.42 C351.11 123.59 351.11 129.75 351.11 135.92 C351.1 144.83 351.09 153.75 351.09 162.66 C351.09 177.13 351.08 191.59 351.08 206.05 C351.07 220.1 351.06 234.16 351.05 248.21 C351.05 248.64 351.05 248.64 351.05 250.83 C351.05 255.17 351.05 259.52 351.05 263.86 C351.04 299.91 351.02 335.95 351 372 C349.68 372.33 348.36 372.66 347 373 C347.31 374.88 347.31 374.88 348 377 C348.99 377.66 349.98 378.32 351 379 C351 406.06 351 433.12 351 461 C235.17 461 119.34 461 0 461 C-0.45 431.28 -0.91 401.56 -1.38 370.94 C-1.58 361.57 -1.78 352.21 -1.98 342.56 C-2.08 331.07 -2.08 331.07 -2.1 325.69 C-2.12 321.94 -2.2 318.21 -2.32 314.46 C-3.27 283.77 -3.27 283.77 2.14 275.88 C7.19 270.93 12.84 267.86 19.34 265.17 C23.19 263.48 26.46 261.16 29.85 258.7 C31 257.92 32.15 257.14 33.3 256.37 C33.85 256 34.4 255.63 34.96 255.25 C36.09 254.49 37.21 253.73 38.34 252.97 C46.41 247.55 54.27 241.91 62 236 C59.85 225.83 41.8 217.49 33.7 211.87 C29.27 208.8 24.85 205.71 20.44 202.62 C19.65 202.08 18.87 201.53 18.06 200.97 C16.56 199.92 15.07 198.85 13.59 197.77 C11 196 11 196 8.17 194.56 C4.82 192.66 2.51 190.94 0 188 C-1.62 181.95 -1.39 176.06 -1.25 169.83 C-1.25 167.95 -1.25 166.07 -1.25 164.18 C-1.26 159.15 -1.19 154.12 -1.11 149.09 C-1.05 144.37 -1.05 139.64 -1.04 134.92 C-0.98 121.11 -0.83 107.31 -0.69 93.5 C-0.46 62.64 -0.23 31.79 0 0 Z " fill="#FEFEFE" transform="translate(424,151)"/>
<path d="M0 0 C61.71 0 123.42 0 187 0 C187 49.17 187 98.34 187 149 C137.83 149 88.66 149 38 149 C37.67 248.99 37.34 348.98 37 452 C-205.88 452 -448.76 452 -699 452 C-699 354.32 -699 256.64 -699 156 C-652.8 156 -606.6 156 -559 156 C-558.67 232.56 -558.34 309.12 -558 388 C-554.06 388.79 -551.02 389.13 -547.07 389.13 C-546.47 389.13 -546.47 389.13 -543.45 389.13 C-542.14 389.13 -540.83 389.13 -539.48 389.13 C-538.07 389.13 -536.66 389.13 -535.25 389.13 C-531.38 389.14 -527.51 389.13 -523.64 389.13 C-519.47 389.13 -515.29 389.13 -511.12 389.13 C-502.94 389.14 -494.75 389.14 -486.57 389.14 C-479.92 389.13 -473.27 389.13 -466.61 389.13 C-465.66 389.13 -464.72 389.13 -463.74 389.13 C-461.82 389.13 -459.89 389.13 -457.97 389.14 C-439.92 389.14 -421.87 389.13 -403.81 389.13 C-388.34 389.12 -372.87 389.13 -357.4 389.13 C-339.43 389.14 -321.46 389.14 -303.49 389.13 C-301.57 389.13 -299.65 389.13 -297.73 389.13 C-297.25 389.13 -297.25 389.13 -294.86 389.13 C-288.23 389.13 -281.59 389.13 -274.96 389.14 C-266.85 389.14 -258.75 389.14 -250.65 389.13 C-246.52 389.13 -242.39 389.13 -238.26 389.13 C-234.47 389.14 -230.68 389.13 -226.89 389.13 C-224.89 389.13 -222.89 389.13 -220.89 389.13 C-212.18 389.12 -203.73 388.58 -195 388 C-194.67 357.31 -194.34 326.62 -194 295 C-181.9 294.94 -169.8 294.88 -157.33 294.82 C-149.63 294.78 -141.94 294.74 -134.24 294.69 C-122.04 294.63 -109.84 294.56 -97.64 294.5 C-88.76 294.46 -79.87 294.41 -70.98 294.36 C-66.28 294.34 -61.59 294.31 -56.89 294.29 C-19.31 294.12 -19.31 294.12 -2 293 C-1.23 289.57 -0.87 286.4 -0.86 282.89 C-0.86 282.38 -0.86 282.38 -0.84 279.82 C-0.84 278.71 -0.84 277.6 -0.84 276.47 C-0.84 275.87 -0.84 275.87 -0.83 272.89 C-0.81 269.62 -0.81 266.34 -0.8 263.07 C-0.79 259.54 -0.78 256.01 -0.76 252.48 C-0.74 246.37 -0.72 240.25 -0.71 234.13 C-0.69 225.29 -0.66 216.45 -0.63 207.61 C-0.58 193.27 -0.54 178.92 -0.5 164.58 C-0.46 150.64 -0.42 136.71 -0.37 122.77 C-0.37 121.9 -0.37 121.04 -0.36 120.14 C-0.34 113.36 -0.32 106.57 -0.3 99.78 C-0.19 66.52 -0.1 33.26 0 0 Z " fill="#FEFEFE" transform="translate(1718,231)"/>
<path d="M0 0 C61.38 0 122.76 0 186 0 C186 47.85 186 95.7 186 145 C137.82 145.33 89.64 145.66 40 146 C40 245.66 40 345.32 40 448 C-170.87 448 -381.74 448 -599 448 C-599 351.31 -599 254.62 -599 155 C-584.81 155 -570.62 155 -556 155 C-555.67 229.58 -555.34 304.16 -555 381 C-551.76 382.08 -549.42 382.13 -546.01 382.14 C-544.75 382.14 -543.49 382.15 -542.19 382.16 C-540.78 382.16 -539.38 382.16 -537.97 382.16 C-536.48 382.16 -535 382.17 -533.51 382.17 C-529.41 382.19 -525.31 382.19 -521.22 382.2 C-516.8 382.21 -512.39 382.22 -507.97 382.24 C-500.32 382.26 -492.67 382.28 -485.01 382.29 C-473.95 382.31 -462.88 382.34 -451.82 382.37 C-433.87 382.42 -415.92 382.46 -397.97 382.5 C-380.52 382.54 -363.08 382.58 -345.64 382.63 C-345.11 382.63 -345.11 382.63 -342.39 382.64 C-337 382.65 -331.61 382.66 -326.22 382.68 C-281.48 382.79 -236.74 382.9 -192 383 C-192 353.96 -192 324.92 -192 295 C-179.3 294.94 -166.6 294.88 -153.52 294.82 C-145.47 294.78 -137.41 294.74 -129.36 294.69 C-116.58 294.63 -103.81 294.56 -91.03 294.5 C-81.72 294.46 -72.42 294.41 -63.11 294.36 C-58.19 294.34 -53.26 294.31 -48.34 294.29 C-43.7 294.27 -39.05 294.25 -34.41 294.22 C-32.71 294.21 -31.02 294.2 -29.32 294.2 C-26.99 294.19 -24.65 294.17 -22.32 294.16 C-21.02 294.15 -19.72 294.15 -18.38 294.14 C-12.58 293.95 -6.79 293.45 -1 293 C-0.84 244.65 -0.84 244.65 0 0 Z " fill="#FEFEFE" transform="translate(973,235)"/>
<path d="M0 0 C1.23 -0 2.46 -0 3.72 -0.01 C5.1 -0 6.48 -0 7.86 0 C9.32 -0 10.78 -0 12.24 -0 C16.3 -0.01 20.35 -0 24.4 -0 C28.82 0 33.23 0 37.64 -0 C45.41 -0 53.19 -0 60.97 -0 C72.61 0 84.24 0 95.88 0 C115.72 -0 135.55 0 155.38 0.01 C175.49 0.01 195.61 0.01 215.72 0.01 C216.98 0.01 218.25 0.01 219.56 0.01 C226.02 0.01 232.49 0.01 238.96 0.01 C252.21 0.01 265.47 0.01 278.73 0.01 C279.07 0.01 279.07 0.01 280.75 0.01 C313.67 0.01 346.59 0.01 379.52 0.02 C391.11 0.02 402.7 0.02 414.29 0.02 C415.02 0.02 415.74 0.02 416.48 0.02 C449.84 0.03 483.21 0.03 516.58 0.03 C518.76 0.03 520.94 0.03 523.12 0.03 C536.28 0.03 549.43 0.03 562.58 0.03 C595.29 0.03 627.99 0.03 660.69 0.03 C661.44 0.03 662.18 0.03 662.95 0.03 C711.18 0.04 759.42 0.04 807.65 0.04 C808.42 0.04 809.19 0.04 809.98 0.04 C833.43 0.04 856.88 0.05 880.32 0.05 C906.27 0.05 932.22 0.05 958.16 0.06 C958.55 0.06 958.55 0.06 960.53 0.06 C1034.62 0.06 1108.7 0.07 1182.79 0.07 C1185.93 0.07 1189.07 0.07 1192.21 0.07 C1221.08 0.07 1249.95 0.07 1278.83 0.07 C1279.21 0.07 1279.21 0.07 1281.15 0.07 C1283.48 0.07 1285.8 0.07 1288.13 0.07 C1350.93 0.08 1413.73 0.08 1476.53 0.08 C1478.75 0.08 1480.96 0.08 1483.18 0.08 C1555.16 0.09 1627.13 0.09 1882.47 0.11 C1883.71 0.11 1884.96 0.11 1886.24 0.11 C1904.62 0.11 1922.99 0.11 1941.37 0.11 C1942.45 0.11 1943.53 0.11 1944.64 0.11 C1987.52 0.12 2030.4 0.12 2073.28 0.12 C2073.28 63.48 2073.28 126.84 2073.28 192.12 C2034.67 192.12 1996.06 192.12 1956.28 192.12 C1956.28 318.51 1956.28 444.9 1956.28 575.12 C1900.84 575.15 1845.4 575.17 1788.28 575.19 C1779.54 575.19 1779.54 575.19 1735.31 575.21 C1713.9 575.22 1713.9 575.22 1703.87 575.22 C1696.89 575.22 1689.9 575.22 1682.92 575.23 C1674.85 575.24 1666.78 575.24 1658.71 575.24 C1654.59 575.24 1650.47 575.24 1646.35 575.24 C1628.64 575.27 1610.97 575.08 1593.28 574.12 C1592.36 568.64 1592.14 563.37 1592.16 557.82 C1592.16 556.9 1592.16 555.98 1592.16 555.04 C1592.16 551.98 1592.16 548.92 1592.17 545.86 C1592.17 543.66 1592.17 541.46 1592.17 539.27 C1592.17 533.3 1592.17 527.34 1592.18 521.38 C1592.19 515.15 1592.19 508.92 1592.19 502.69 C1592.19 492.23 1592.2 481.78 1592.21 471.32 C1592.22 460.55 1592.22 449.78 1592.23 439.02 C1592.23 438.35 1592.23 437.67 1592.23 436.98 C1592.23 431.15 1592.23 425.31 1592.23 419.47 C1592.24 394.36 1592.26 369.24 1592.28 344.12 C1544.76 344.12 1497.24 344.12 1448.28 344.12 C1448.29 364.92 1448.3 385.71 1448.32 407.14 C1448.32 420.3 1448.33 433.46 1448.33 446.62 C1448.33 453.54 1448.33 460.45 1448.34 467.37 C1448.34 468.23 1448.34 469.1 1448.34 469.99 C1448.34 483.97 1448.35 497.95 1448.36 511.92 C1448.37 526.27 1448.37 540.62 1448.38 554.98 C1448.38 563.83 1448.38 572.68 1448.39 581.53 C1448.39 587.6 1448.4 593.68 1448.39 599.75 C1448.39 603.25 1448.4 606.75 1448.4 610.26 C1448.41 614.06 1448.4 617.87 1448.4 621.67 C1448.4 622.77 1448.41 623.86 1448.41 624.99 C1448.37 645.03 1448.37 645.03 1446.28 647.12 C1443.31 647.22 1440.36 647.26 1437.39 647.25 C1436.91 647.25 1436.91 647.25 1434.51 647.25 C1431.27 647.26 1428.04 647.25 1424.8 647.25 C1422.47 647.25 1420.14 647.25 1417.8 647.25 C1412.01 647.26 1406.22 647.26 1400.43 647.25 C1393.45 647.25 1386.47 647.25 1379.49 647.26 C1366.44 647.26 1353.4 647.26 1340.35 647.26 C1327.12 647.25 1313.89 647.25 1300.66 647.26 C1300.24 647.26 1300.24 647.26 1298.13 647.26 C1294.73 647.26 1291.33 647.26 1287.94 647.26 C1256.25 647.26 1224.57 647.26 1192.88 647.26 C1191.94 647.26 1191 647.26 1190.04 647.26 C1189.56 647.26 1189.56 647.26 1187.18 647.26 C1158.53 647.26 1129.88 647.26 1101.22 647.26 C1099.31 647.26 1097.39 647.26 1095.47 647.26 C1087.77 647.26 1080.07 647.26 1072.36 647.26 C1050.83 647.26 1029.29 647.26 1007.76 647.26 C1006.78 647.26 1005.79 647.26 1004.78 647.26 C973.51 647.26 942.24 647.26 910.97 647.26 C909.95 647.26 908.94 647.26 907.89 647.26 C891.41 647.26 874.93 647.26 858.45 647.25 C793.13 647.25 727.81 647.25 662.49 647.26 C646.04 647.26 629.59 647.26 613.14 647.26 C612.63 647.26 612.63 647.26 610.07 647.26 C578.85 647.26 547.63 647.26 516.41 647.26 C515.92 647.26 515.92 647.26 513.43 647.26 C491.91 647.26 470.39 647.26 448.86 647.26 C441.16 647.26 433.46 647.26 425.76 647.26 C423.84 647.26 421.93 647.26 420.01 647.26 C391.38 647.26 362.74 647.26 334.11 647.26 C333.64 647.26 333.64 647.26 331.27 647.26 C330.33 647.26 329.4 647.26 328.43 647.26 C296.82 647.26 265.21 647.26 233.59 647.26 C230.2 647.26 226.8 647.26 223.4 647.26 C222.98 647.26 222.98 647.26 220.88 647.26 C207.69 647.25 194.5 647.26 181.32 647.26 C168.34 647.26 155.37 647.26 142.39 647.25 C135.46 647.25 128.52 647.25 121.58 647.26 C115.27 647.26 108.95 647.26 102.63 647.25 C100.37 647.25 98.1 647.25 95.84 647.25 C82.28 647.27 68.81 646.94 55.28 646.12 C55.2 644.57 55.12 643.01 55.04 641.46 C55 640.59 54.96 639.72 54.91 638.83 C54.19 624.31 54.15 609.81 54.17 595.27 C54.17 592.56 54.17 589.84 54.17 587.13 C54.17 581.34 54.17 575.55 54.18 569.76 C54.18 561.39 54.19 553.02 54.19 544.66 C54.19 531.07 54.2 517.48 54.21 503.9 C54.22 490.72 54.22 477.53 54.23 464.35 C54.23 463.54 54.23 462.72 54.23 461.88 C54.23 457.79 54.23 453.7 54.23 449.61 C54.24 415.78 54.26 381.95 54.28 348.12 C53.15 348.13 52.03 348.13 50.87 348.14 C40.24 348.18 29.62 348.21 19 348.23 C13.54 348.24 8.07 348.25 2.61 348.28 C-2.66 348.3 -7.93 348.31 -13.2 348.31 C-15.21 348.32 -17.22 348.33 -19.23 348.34 C-22.05 348.35 -24.87 348.35 -27.68 348.35 C-28.51 348.36 -29.34 348.37 -30.2 348.37 C-34.77 348.36 -38.41 347.87 -42.72 346.12 C-42.39 345.46 -42.39 345.46 -40.72 342.12 C-39.63 342.11 -38.54 342.1 -37.42 342.09 C-27.12 342 -16.83 341.89 -6.53 341.79 C-1.23 341.73 4.06 341.68 9.35 341.63 C14.47 341.58 19.58 341.53 24.7 341.47 C26.64 341.45 28.59 341.43 30.53 341.42 C49.17 341.25 49.17 341.25 58.09 340.23 C60.28 340.12 60.28 340.12 63.28 341.12 C70.05 341.29 70.05 341.29 104.28 342.12 C104.28 292.62 104.28 243.12 104.28 192.12 C67.32 192.12 30.36 192.12 -7.72 192.12 C-7.72 129.09 -7.72 66.06 -7.72 1.12 C-5.04 -0.21 -3 -0 0 0 Z M-1.72 6.12 C-1.72 65.19 -1.72 124.26 -1.72 185.12 C33.26 185.12 68.24 185.12 104.28 185.12 C104.72 144.19 104.72 144.19 104.85 131.24 C104.91 126.04 104.91 126.04 104.94 123.61 C104.96 121.91 104.97 120.2 104.99 118.5 C105.01 115.92 105.04 113.34 105.08 110.77 C105.08 110 105.09 109.24 105.09 108.45 C105.17 103.24 105.17 103.24 106.28 102.12 C108.19 102.03 110.11 102 112.02 102 C112.65 102 112.65 102 115.83 101.99 C117.24 101.99 118.65 102 120.06 102 C121.55 102 123.03 101.99 124.52 101.99 C128.62 101.99 132.72 101.99 136.82 101.99 C141.23 102 145.65 101.99 150.06 101.99 C158.72 101.99 167.37 101.99 176.03 101.99 C183.06 101.99 190.09 101.99 197.12 101.99 C198.12 101.99 199.12 101.99 200.15 101.99 C202.18 101.99 204.21 101.99 206.23 101.99 C225.28 101.99 244.33 101.99 263.37 102 C279.73 102 296.09 102 312.45 101.99 C331.43 101.99 350.4 101.99 369.38 101.99 C371.4 101.99 373.42 101.99 375.44 101.99 C376.43 101.99 377.43 101.99 378.45 101.99 C385.48 101.99 392.51 101.99 399.54 101.99 C408.09 101.99 416.65 101.99 425.21 101.99 C429.58 101.99 433.95 102 438.32 101.99 C442.32 101.99 446.31 101.99 450.3 102 C451.76 102 453.21 102 454.66 101.99 C456.62 101.99 458.58 101.99 460.54 102 C461.63 102 462.72 102 463.85 102 C466.28 102.12 466.28 102.12 467.28 103.12 C467.41 105.62 467.47 108.09 467.49 110.58 C467.49 110.98 467.49 110.98 467.52 112.99 C467.55 115.56 467.57 118.14 467.6 120.72 C467.62 122.31 467.64 123.9 467.65 125.48 C467.72 131.39 467.78 137.29 467.84 143.19 C467.99 156.37 468.13 169.55 468.28 183.12 C503.92 183.12 539.56 183.12 576.28 183.12 C576.34 174.05 576.4 164.98 576.47 155.63 C576.51 149.17 576.56 142.71 576.6 136.25 C576.67 127.87 576.72 119.49 576.78 111.11 C576.82 104.48 576.87 97.84 576.92 91.21 C576.94 87.7 576.97 84.18 576.99 80.67 C577.01 76.75 577.04 72.84 577.08 68.92 C577.08 67.75 577.09 66.58 577.09 65.37 C577.1 64.31 577.11 63.24 577.12 62.15 C577.13 61.68 577.13 61.68 577.14 59.34 C577.28 57.12 577.28 57.12 578.28 55.12 C579.27 55.12 580.26 55.12 581.28 55.12 C582.23 58.33 582.4 61.2 582.4 64.54 C582.4 65.64 582.4 66.74 582.41 67.87 C582.4 69.07 582.4 70.27 582.39 71.51 C582.4 72.78 582.4 74.05 582.4 75.36 C582.4 78.83 582.39 82.31 582.38 85.78 C582.38 89.41 582.38 93.05 582.37 96.68 C582.37 103.56 582.36 110.43 582.35 117.31 C582.34 126.61 582.33 135.9 582.33 145.2 C582.32 159.84 582.3 174.48 582.28 189.12 C563.47 189.29 563.47 189.29 468.28 190.12 C468.28 285.82 468.28 381.52 468.28 480.12 C529.66 480.12 591.04 480.12 654.28 480.12 C654.61 383.1 654.94 286.08 655.28 186.12 C686.8 185.96 686.8 185.96 846.28 185.12 C846.28 158.39 846.28 131.66 846.28 104.12 C966.4 104.12 1086.52 104.12 1210.28 104.12 C1210.28 130.85 1210.28 157.58 1210.28 185.12 C1247.57 185.12 1284.86 185.12 1323.28 185.12 C1323.28 142.55 1323.28 99.98 1323.28 56.12 C1325.26 56.12 1327.24 56.12 1329.28 56.12 C1329.28 101 1329.28 145.88 1329.28 192.12 C1290.01 192.12 1250.74 192.12 1210.28 192.12 C1210.28 285.84 1210.28 379.56 1210.28 476.12 C1272.32 476.12 1334.36 476.12 1398.28 476.12 C1398.61 379.1 1398.94 282.08 1399.28 182.12 C1431.13 181.96 1431.13 181.96 1592.28 181.12 C1592.61 156.04 1592.94 130.96 1593.28 105.12 C1593.61 103.8 1593.94 102.48 1594.28 101.12 C1654.01 101.29 1654.01 101.29 1956.28 102.12 C1956.61 129.51 1956.94 156.9 1957.28 185.12 C1993.58 185.12 2029.88 185.12 2067.28 185.12 C2067.28 126.05 2067.28 66.98 2067.28 6.12 C1384.51 6.12 701.74 6.12 -1.72 6.12 Z M111.28 108.12 C110.97 138.92 110.66 169.71 110.34 201.44 C110.28 206.29 110.28 206.29 109.93 230.88 C109.86 242.76 109.86 242.76 109.85 248.33 C109.84 252.21 109.78 256.09 109.7 259.97 C109.59 264.92 109.56 269.88 109.59 274.84 C109.58 276.65 109.55 278.46 109.49 280.28 C109.09 293.46 109.09 293.46 112.76 297.93 C116.35 301.23 120.31 303.77 124.55 306.14 C126.69 307.35 128.66 308.74 130.65 310.18 C131.82 310.98 132.99 311.77 134.16 312.56 C167.4 335.25 167.4 335.25 173.28 341.12 C173.08 343.68 172.6 344.82 170.75 346.61 C170.1 347.07 169.45 347.53 168.77 348.01 C168.04 348.53 167.31 349.05 166.56 349.59 C166.16 349.86 166.16 349.86 164.16 351.25 C163.75 351.54 163.75 351.54 161.66 353.01 C156.95 356.32 152.2 359.56 147.41 362.75 C146.88 363.13 146.35 363.5 145.81 363.89 C141.53 366.86 137.18 369.14 132.46 371.34 C124.27 375.41 114.31 380.39 110.38 389.13 C106.72 400.8 107.95 413.9 108.45 425.93 C108.61 430.48 108.61 435.02 108.63 439.58 C108.78 452.82 109.17 466.07 109.53 479.31 C110.11 508.95 110.69 538.59 111.28 569.12 C227.11 569.12 342.94 569.12 462.28 569.12 C462.28 542.06 462.28 515 462.28 487.12 C461.29 486.46 460.3 485.8 459.28 485.12 C458.59 483 458.59 483 458.28 481.12 C459.6 480.79 460.92 480.46 462.28 480.12 C462.3 443.27 462.32 406.41 462.33 369.55 C462.33 365.2 462.34 360.85 462.34 356.5 C462.34 355.63 462.34 354.77 462.34 353.87 C462.34 339.84 462.35 325.82 462.36 311.79 C462.37 297.4 462.37 283.01 462.38 268.61 C462.38 259.73 462.38 250.85 462.39 241.97 C462.39 235.88 462.4 229.79 462.39 223.7 C462.39 220.19 462.4 216.67 462.4 213.16 C462.41 209.35 462.4 205.54 462.4 201.74 C462.4 200.62 462.41 199.51 462.41 198.36 C462.41 197.34 462.41 196.32 462.4 195.27 C462.4 194.39 462.41 193.51 462.41 192.61 C462.28 190.12 462.28 190.12 461.71 187.43 C461.28 185.12 461.28 185.12 462.28 183.12 C462.28 158.37 462.28 133.62 462.28 108.12 C346.45 108.12 230.62 108.12 111.28 108.12 Z M1599.28 108.12 C1598.89 138.55 1598.5 168.97 1598.09 200.31 C1597.92 209.9 1597.75 219.5 1597.57 229.38 C1597.48 241.13 1597.48 241.13 1597.47 246.63 C1597.45 250.47 1597.38 254.3 1597.28 258.13 C1596.46 289.56 1596.46 289.56 1601.1 297.06 C1605.36 301.5 1610.11 303.95 1615.82 306.08 C1620.01 307.85 1623.48 310.59 1627.09 313.31 C1628.49 314.31 1629.89 315.3 1631.29 316.28 C1631.95 316.76 1632.62 317.24 1633.31 317.73 C1635.2 319.07 1637.1 320.41 1639 321.75 C1646.91 327.34 1654.64 333.16 1662.28 339.12 C1658.75 347.93 1645.71 353.44 1637.87 358.28 C1632.56 361.56 1627.3 364.9 1622.03 368.25 C1621.15 368.81 1620.26 369.37 1619.35 369.95 C1617.63 371.05 1615.92 372.16 1614.22 373.29 C1611.28 375.12 1611.28 375.12 1608.18 376.59 C1604.6 378.45 1602.04 380.17 1599.28 383.12 C1597.52 389.07 1597.75 394.84 1597.9 401 C1597.91 402.82 1597.9 404.64 1597.89 406.47 C1597.89 411.4 1597.95 416.33 1598.03 421.26 C1598.1 426.42 1598.11 431.58 1598.12 436.74 C1598.15 445.4 1598.22 454.06 1598.32 462.71 C1598.47 474.94 1598.54 487.17 1598.59 499.39 C1598.67 515.75 1598.77 532.11 1598.95 548.47 C1598.97 550.25 1598.99 552.02 1599 553.8 C1599.02 556.21 1599.05 558.62 1599.08 561.03 C1599.09 561.75 1599.09 562.46 1599.1 563.19 C1599.17 568.01 1599.17 568.01 1600.28 569.12 C1602.15 569.22 1604.02 569.25 1605.89 569.25 C1606.5 569.25 1606.5 569.25 1609.6 569.25 C1610.97 569.25 1612.35 569.25 1613.73 569.24 C1615.17 569.25 1616.62 569.25 1618.06 569.25 C1622.06 569.25 1626.06 569.25 1630.06 569.24 C1634.42 569.24 1638.79 569.24 1643.16 569.24 C1651.65 569.24 1660.14 569.23 1668.63 569.23 C1678.44 569.22 1688.25 569.22 1698.07 569.22 C1723.99 569.21 1749.92 569.2 1775.84 569.19 C1833.74 569.17 1891.63 569.15 1951.28 569.12 C1951.28 416.99 1951.28 264.86 1951.28 108.12 C1835.12 108.12 1718.96 108.12 1599.28 108.12 Z M853.28 109.12 C852.99 139.94 852.7 170.75 852.41 202.5 C852.28 212.22 852.15 221.95 852.02 231.97 C851.96 243.85 851.96 243.85 851.95 249.42 C851.93 253.31 851.88 257.19 851.8 261.07 C851.71 266.03 851.68 270.99 851.7 275.95 C851.69 277.77 851.67 279.58 851.61 281.4 C851.24 294.6 851.24 294.6 854.66 298.82 C858.46 302.3 862.76 304.69 867.28 307.12 C868.88 308.23 870.47 309.36 872.02 310.52 C872.71 311.02 873.39 311.51 874.1 312.02 C882.58 318.14 891.02 324.32 899.34 330.65 C900.66 331.66 901.99 332.66 903.32 333.65 C905.29 335.13 907.26 336.63 909.22 338.12 C909.52 338.35 909.52 338.35 911.03 339.47 C915.08 342.6 915.08 342.6 916.16 345.44 C916.18 345.72 916.18 345.72 916.28 347.12 C915.69 347.41 915.1 347.69 914.49 347.98 C912.48 349.02 910.73 350.14 908.89 351.47 C908.23 351.93 907.57 352.4 906.89 352.88 C905.26 354.05 903.65 355.27 902.08 356.52 C896.55 360.72 891.77 363.45 885.2 365.55 C873.26 369.46 862.29 375.11 855 385.67 C848.26 399.22 849.48 416.73 849.47 431.48 C849.47 432.38 849.47 433.28 849.47 434.22 C849.48 450.08 850.24 465.9 850.84 481.75 C851.65 511.24 852.45 540.74 853.28 571.12 C969.11 571.12 1084.94 571.12 1204.28 571.12 C1204.28 418.66 1204.28 266.2 1204.28 109.12 C1088.45 109.12 972.62 109.12 853.28 109.12 Z M1405.28 188.12 C1405.22 208.86 1405.16 229.59 1405.1 250.95 C1405.06 264.05 1405.02 277.15 1404.97 290.26 C1404.95 297.14 1404.93 304.02 1404.91 310.9 C1404.91 311.76 1404.9 312.62 1404.9 313.51 C1404.86 327.44 1404.82 341.37 1404.78 355.3 C1404.74 369.59 1404.69 383.88 1404.64 398.17 C1404.62 406.99 1404.59 415.82 1404.57 424.64 C1404.55 430.68 1404.53 436.73 1404.51 442.77 C1404.5 446.26 1404.48 449.75 1404.48 453.24 C1404.47 457.03 1404.46 460.81 1404.44 464.59 C1404.44 465.7 1404.44 466.8 1404.44 467.94 C1404.43 468.45 1404.43 468.45 1404.42 471.01 C1404.42 471.88 1404.41 472.76 1404.41 473.66 C1404.28 476.23 1403.85 478.62 1403.28 481.12 C1384.08 482.37 1364.86 482.34 1345.62 482.43 C1340.89 482.45 1336.15 482.48 1331.41 482.5 C1322.48 482.55 1313.54 482.6 1304.61 482.64 C1292.51 482.7 1280.41 482.77 1268.32 482.83 C1249.3 482.94 1230.29 483.03 1211.28 483.12 C1210.95 513.81 1210.62 544.5 1210.28 576.12 C1200.28 576.79 1190.49 577.27 1180.49 577.25 C1179.07 577.25 1177.64 577.25 1176.22 577.26 C1172.35 577.26 1168.48 577.26 1164.62 577.26 C1160.43 577.25 1156.24 577.26 1152.05 577.26 C1143.87 577.26 1135.69 577.26 1127.5 577.26 C1120.85 577.26 1114.2 577.26 1107.55 577.26 C1106.61 577.26 1105.66 577.26 1104.68 577.26 C1102.75 577.26 1100.83 577.26 1098.9 577.26 C1080.87 577.26 1062.83 577.26 1044.8 577.25 C1029.33 577.25 1013.85 577.25 998.38 577.26 C980.39 577.26 962.41 577.26 944.42 577.26 C942.5 577.26 940.59 577.26 938.67 577.26 C937.73 577.26 936.78 577.26 935.81 577.26 C929.17 577.26 922.52 577.26 915.87 577.26 C907.78 577.26 899.69 577.26 891.6 577.26 C887.47 577.26 883.34 577.25 879.22 577.26 C875.44 577.26 871.66 577.26 867.88 577.25 C865.87 577.25 863.85 577.25 861.83 577.26 C861.24 577.26 861.24 577.26 858.21 577.25 C857.18 577.25 856.15 577.25 855.08 577.25 C852.28 577.12 852.28 577.12 847.28 576.12 C846.95 499.56 846.62 423 846.28 344.12 C800.08 344.12 753.88 344.12 706.28 344.12 C706.28 441.8 706.28 539.48 706.28 640.12 C949.16 640.12 1192.04 640.12 1442.28 640.12 C1442.45 590.13 1442.45 590.13 1443.28 337.12 C1492.45 337.12 1541.62 337.12 1592.28 337.12 C1592.28 287.95 1592.28 238.78 1592.28 188.12 C1530.57 188.12 1468.86 188.12 1405.28 188.12 Z M660.28 192.12 C659.95 288.81 659.62 385.5 659.28 485.12 C644.66 486.25 644.66 486.25 637.96 486.28 C637.22 486.29 636.48 486.29 635.72 486.3 C633.3 486.31 630.89 486.32 628.47 486.33 C626.71 486.34 624.95 486.35 623.2 486.36 C618.47 486.39 613.75 486.41 609.02 486.43 C604.07 486.45 599.11 486.48 594.16 486.5 C584.79 486.55 575.43 486.6 566.07 486.64 C553.4 486.7 540.74 486.77 528.07 486.83 C508.14 486.94 488.21 487.03 468.28 487.12 C468.28 516.16 468.28 545.2 468.28 575.12 C422.47 575.02 376.66 574.91 330.85 574.79 C325.45 574.78 320.04 574.77 314.64 574.75 C313.56 574.75 312.49 574.75 311.38 574.74 C293.94 574.7 276.5 574.66 259.06 574.62 C241.18 574.58 223.3 574.54 205.42 574.49 C194.37 574.46 183.33 574.43 172.29 574.41 C164.73 574.39 157.16 574.37 149.6 574.35 C145.23 574.34 140.86 574.33 136.49 574.32 C132.5 574.31 128.5 574.3 124.51 574.29 C123.06 574.29 121.61 574.28 120.16 574.28 C118.2 574.28 116.24 574.27 114.27 574.26 C113.18 574.26 112.09 574.26 110.96 574.26 C108.28 574.12 108.28 574.12 105.28 573.12 C104.95 498.54 104.62 423.96 104.28 347.12 C90.09 347.12 75.9 347.12 61.28 347.12 C61.28 443.81 61.28 540.5 61.28 640.12 C272.15 640.12 483.02 640.12 700.28 640.12 C700.28 540.46 700.28 440.8 700.28 338.12 C748.46 337.79 796.64 337.46 846.28 337.12 C846.28 289.27 846.28 241.42 846.28 192.12 C784.9 192.12 723.52 192.12 660.28 192.12 Z " fill="#3E7AF0" transform="translate(312.7185277119279,42.875328835099936)"/>
<path d="M0 0 C61.05 0 122.1 0 185 0 C185 24.09 185 48.18 185 73 C182.29 73 182.29 73 168.56 73.03 C150.65 73.06 132.75 73.12 114.85 73.18 C104 73.22 93.14 73.26 82.28 73.27 C72.82 73.28 63.36 73.31 53.9 73.35 C48.89 73.38 43.87 73.39 38.86 73.39 C34.15 73.39 29.43 73.41 24.72 73.44 C22.99 73.45 21.25 73.45 19.52 73.45 C17.16 73.44 14.8 73.46 12.43 73.48 C12.09 73.48 12.09 73.48 10.36 73.46 C5.11 73.55 4.53 74.37 0 78 C0 52.26 0 26.52 0 0 Z " fill="#FEFEFE" transform="translate(974,235)"/>
<path d="M0 0 C0.33 0 0.66 0 1 0 C1 27.39 1 54.78 1 83 C9.58 82.97 18.15 82.95 26.99 82.92 C54.42 82.84 81.85 82.78 109.28 82.74 C113.54 82.74 117.8 82.73 122.06 82.73 C122.49 82.72 122.49 82.72 124.63 82.72 C138.37 82.7 152.11 82.66 165.85 82.61 C179.94 82.57 194.03 82.54 208.12 82.53 C216.82 82.52 225.52 82.5 234.22 82.46 C240.18 82.43 246.14 82.43 252.1 82.43 C255.55 82.44 258.99 82.43 262.43 82.4 C266.16 82.38 269.89 82.39 273.62 82.4 C274.16 82.39 274.16 82.39 276.92 82.35 C284.21 82.43 284.21 82.43 288.17 85.3 C290.62 88.91 290.7 92 290.63 96.22 C290.63 96.62 290.63 96.62 290.65 98.68 C290.67 101.36 290.65 104.04 290.63 106.72 C290.63 108.59 290.63 110.46 290.64 112.32 C290.64 116.23 290.62 120.14 290.6 124.05 C290.56 129.06 290.57 134.06 290.59 139.07 C290.6 142.93 290.59 146.78 290.57 150.63 C290.57 152.48 290.57 154.33 290.58 156.17 C290.58 158.75 290.56 161.33 290.53 163.91 C290.54 164.3 290.54 164.3 290.55 166.23 C290.5 169.36 290.29 171.55 288.56 174.2 C284.68 176.93 281.13 176.54 276.48 176.48 C276 176.48 276 176.48 273.53 176.49 C270.25 176.5 266.98 176.48 263.7 176.45 C261.35 176.45 259.01 176.45 256.66 176.46 C250.29 176.46 243.91 176.43 237.54 176.41 C231.55 176.38 225.56 176.38 219.58 176.37 C207.72 176.37 195.87 176.34 184.01 176.3 C172.5 176.27 160.98 176.24 149.46 176.22 C148.75 176.22 148.05 176.22 147.31 176.22 C143.75 176.21 140.19 176.21 136.63 176.2 C107.09 176.16 77.54 176.09 48 176 C52.34 171.41 55.63 167.94 62.13 167.65 C63.8 167.64 65.47 167.65 67.14 167.68 C67.6 167.68 67.6 167.68 69.94 167.68 C73.03 167.69 76.13 167.72 79.22 167.75 C81.44 167.76 83.66 167.77 85.87 167.78 C91.9 167.81 97.92 167.85 103.94 167.9 C110.23 167.94 116.53 167.97 122.82 168.01 C133.38 168.06 143.94 168.13 154.51 168.2 C165.39 168.28 176.27 168.35 187.14 168.41 C187.48 168.41 187.48 168.41 189.18 168.42 C192.54 168.44 195.91 168.46 199.27 168.48 C227.18 168.63 255.09 168.81 283 169 C283 142.93 283 116.86 283 90 C189.94 90 96.88 90 1 90 C1 98.25 1 106.5 1 115 C0.67 115 0.34 115 0 115 C0 77.05 0 39.1 0 0 Z " fill="#CBDAF9" transform="translate(1166,225)"/>
<path d="M0 0 C6.75 5.52 11 12 13.75 20.25 C14.29 31.45 14.41 41.67 7.75 51.25 C7.19 51.86 6.63 52.48 6.05 53.11 C4.26 55.13 2.88 56.79 1.75 59.25 C2.13 63.9 3.43 67.93 6.75 71.25 C8.75 71.25 8.75 71.25 10.75 70.25 C12 67.19 12 67.19 12.75 64.25 C13.74 64.25 14.73 64.25 15.75 64.25 C15.25 69.2 14.44 73.02 11.75 77.25 C9.03 79.46 7.2 80.17 3.75 80.75 C-0.43 80.05 -1.68 78.58 -4.25 75.25 C-6.3 71.11 -7.25 67.91 -7.25 63.25 C-8.29 63.3 -9.33 63.34 -10.4 63.39 C-20.02 63.7 -27.9 63.57 -35.71 57.26 C-43.06 50.37 -46.89 43.67 -47.45 33.58 C-47.68 21.9 -46.5 13.04 -38.25 4.25 C-26.58 -6.37 -13.93 -7.5 0 0 Z " fill="#3C79F0" transform="translate(1489.25,205.75)"/>
<path d="M0 0 C5.48 4.18 10.03 11.23 11.38 18 C11.65 21.75 11.65 25.49 11.69 29.25 C11.72 30.26 11.75 31.27 11.78 32.32 C11.84 40.02 10.59 45.42 5.38 51.21 C4.76 51.78 4.14 52.35 3.5 52.94 C0.4 56.29 0.4 56.29 0.3 59.36 C1.13 63.21 2.56 66.52 4.38 70 C6.75 69.81 6.75 69.81 9.38 69 C10.69 66.44 10.69 66.44 11.38 64 C12.37 64 13.36 64 14.38 64 C13.45 69.61 12.61 73.9 8.38 78 C4.78 79.2 2.15 79.33 -1.62 79 C-5.6 76.24 -7.08 72.49 -8.62 68 C-8.67 66 -8.68 64 -8.62 62 C-9.89 62.06 -11.16 62.12 -12.46 62.18 C-23.26 62.53 -30.6 62.62 -38.79 54.98 C-46.79 46.68 -49.98 37.8 -49.77 26.35 C-49.15 16.27 -45.15 7.95 -37.69 1.06 C-26.58 -7.78 -12 -7.28 0 0 Z " fill="#3D7AF0" transform="translate(1602.625,123)"/>
<path d="M0 0 C7.15 4.46 11.72 10.91 14 19 C15.3 29.76 15.84 41.74 8.92 50.69 C8.21 51.45 7.49 52.21 6.75 53 C3.12 57.34 3.12 57.34 2.6 60.24 C3.02 64.35 4.61 67.68 7 71 C7.83 70.84 7.83 70.84 12 70 C12.33 68.35 12.66 66.7 13 65 C13.99 65 14.98 65 16 65 C16.55 70.65 15.15 73.45 12 78 C9.06 80.41 5.6 80.48 1.9 80.39 C0 80 0 80 -2.38 77.75 C-2.91 76.84 -3.45 75.93 -4 75 C-4.39 74.4 -4.78 73.8 -5.19 73.19 C-6.42 69.87 -6.59 66.51 -7 63 C-8.24 63.08 -9.49 63.16 -10.77 63.25 C-19.96 63.67 -27.24 63.94 -34.84 58.04 C-42.42 50.89 -46.11 42.75 -47.31 32.29 C-47.37 29.82 -47.26 27.46 -47 25 C-46.92 24.17 -46.84 23.33 -46.75 22.48 C-45.36 13.07 -40.27 6.34 -32.98 0.44 C-23.13 -6.71 -10.42 -5.45 0 0 Z " fill="#3B78F0" transform="translate(1478,495)"/>
<path d="M0 0 C0.33 0 0.66 0 1 0 C1.33 25.08 1.66 50.16 2 76 C3.32 75.01 4.64 74.02 6 73 C8.52 72.72 10.79 72.61 13.31 72.64 C14.05 72.64 14.79 72.63 15.55 72.63 C18.03 72.63 20.5 72.64 22.98 72.66 C24.75 72.66 26.53 72.66 28.3 72.66 C33.12 72.66 37.93 72.67 42.75 72.7 C47.79 72.71 52.82 72.72 57.86 72.72 C67.39 72.73 76.92 72.75 86.46 72.78 C97.31 72.82 108.16 72.83 119.02 72.85 C141.35 72.88 163.67 72.93 186 73 C186 75.31 186 77.62 186 80 C127.26 80 68.52 80 8 80 C8 106.07 8 132.14 8 159 C18.56 159 29.12 159 40 159 C40 254.37 40 349.74 40 448 C39.67 448 39.34 448 39 448 C39 354.94 39 261.88 39 166 C27.78 166 16.56 166 5 166 C4.01 165.01 3.02 164.02 2 163 C1.67 199.63 1.34 236.26 1 274 C0.67 274 0.34 274 0 274 C0 183.58 0 93.16 0 0 Z " fill="#C0D3F9" transform="translate(973,235)"/>
<path d="M0 0 C46.2 0 92.4 0 140 0 C140 4.62 140 9.24 140 14 C94.13 14 48.26 14 1 14 C1 107.06 1 200.12 1 296 C0.67 296 0.34 296 0 296 C0 198.32 0 100.64 0 0 Z " fill="#CBDAF9" transform="translate(1019,387)"/>
<path d="M0 0 C4.64 -0.05 9.28 -0.09 13.92 -0.11 C15.5 -0.12 17.07 -0.13 18.64 -0.15 C43.69 -0.42 43.69 -0.42 51 6 C54.67 10.15 55.66 13.42 55.38 18.82 C54.66 22.96 52.76 25.68 49.42 28.18 C45.48 30.61 41.48 31.9 37 33 C37.53 33.27 38.06 33.54 38.61 33.81 C48.09 39.07 50.11 47.99 53 58 C53 58.66 53 59.32 53 60 C54.81 59.94 54.81 59.94 57 59 C58.75 55.44 58.75 55.44 60 52 C60.66 52 61.32 52 62 52 C62.51 57.31 61.31 59.87 58 64 C56.25 65.94 56.25 65.94 54 67 C47.1 67 47.1 67 43.91 64.1 C41.23 59.75 40.44 55.34 39.44 50.38 C39.05 48.48 38.65 46.6 38.25 44.71 C38.16 44.29 38.16 44.29 37.74 42.19 C36.63 38.89 34.9 37.48 31.88 35.88 C29 35 29 35 20 34 C20 43.24 20 52.48 20 62 C23.3 62.33 26.6 62.66 30 63 C30 63.99 30 64.98 30 66 C25.91 66.05 21.81 66.09 17.72 66.11 C16.33 66.12 14.93 66.13 13.54 66.15 C11.54 66.18 9.54 66.19 7.54 66.2 C6.33 66.21 5.13 66.22 3.89 66.23 C1 66 1 66 -1 64 C3.06 62.49 5.55 62 10 62 C9.67 43.52 9.34 25.04 9 6 C7.51 5.67 7.51 5.67 0 4 C0 2.68 0 1.36 0 0 Z " fill="#3C79F0" transform="translate(2164,476)"/>
<path d="M0 0 C9.33 -0.06 18.67 -0.07 28 0 C28.85 0.01 29.7 0.01 30.57 0.02 C38.21 0.12 44.17 0.73 50 6 C54.98 11.5 54.98 11.5 55.02 14.95 C54.54 20.29 53.77 23.94 50 28 C45.61 30.63 41.22 32.67 36 32 C36 32.66 36 33.32 36 34 C36.89 34.21 37.77 34.41 38.69 34.62 C43.29 36.54 45.94 39.55 47.9 44.07 C48.94 47.07 49.85 50.11 50.76 53.16 C51.47 55.39 51.47 55.39 53 59 C55.1 59.73 55.1 59.73 57 60 C57.66 57.69 58.32 55.38 59 53 C59.99 53 60.98 53 62 53 C61.52 58 60.07 61.03 57 65 C53.8 67.13 53.19 67.27 49.56 66.94 C48.8 66.88 48.04 66.83 47.25 66.78 C43.84 65.6 42.86 64.1 41 61 C39.82 56.81 39.24 52.51 38.58 48.22 C37.15 39.94 37.15 39.94 33 37 C29 35 29 35 20 34 C20 43.57 20 53.14 20 63 C22.97 63 25.94 63 29 63 C29.33 63.99 29.66 64.98 30 66 C20.1 66 10.2 66 0 66 C-0.33 65.34 -0.66 64.68 -1 64 C2.3 63.01 5.6 62.02 9 61 C9 42.52 9 24.04 9 5 C5.7 4.67 2.4 4.34 -1 4 C-0.67 2.68 -0.34 1.36 0 0 Z " fill="#3C79F0" transform="translate(2313,127)"/>
<path d="M0 0 C5.83 -0.1 11.67 -0.17 17.5 -0.22 C19.49 -0.24 21.47 -0.27 23.45 -0.3 C26.31 -0.35 29.17 -0.37 32.03 -0.39 C32.91 -0.41 33.79 -0.43 34.69 -0.45 C41.22 -0.46 46.76 0.85 51.56 5.52 C54.28 8.7 55.88 10.97 56.38 15.12 C55.89 20.13 54.28 23.23 51 27 C47.41 29.77 43.24 31.46 39 33 C39.91 33.54 40.82 34.07 41.75 34.62 C48.38 38.54 50.16 45.95 52.07 52.87 C52.66 54.83 52.66 54.83 54 58 C56.16 58.95 56.16 58.95 58 59 C58.66 56.69 59.32 54.38 60 52 C60.99 52 61.98 52 63 52 C62.63 58.15 61.17 60.73 57 65 C54.13 66.43 52.19 66.31 49 66 C45.96 64.67 45.96 64.67 43 62 C41.64 58.42 41.02 54.76 40.38 51 C38.54 40.7 38.54 40.7 35.99 37.39 C31 33.91 27.32 33.79 21 33 C21 42.57 21 52.14 21 62 C23.64 62 26.28 62 29 62 C29.66 62.33 30.32 62.66 31 63 C31 63.66 31 64.32 31 65 C21.1 65 11.2 65 1 65 C0.67 64.34 0.34 63.68 0 63 C3.3 62.01 6.6 61.02 10 60 C10 41.85 10 23.7 10 5 C8.51 4.67 8.51 4.67 1 3 C0.67 2.01 0.34 1.02 0 0 Z " fill="#3A77F0" transform="translate(2172,194)"/>
<path d="M0 0 C2.63 1.26 5.02 2.62 7.41 4.29 C7.73 4.52 7.73 4.52 9.38 5.68 C10.08 6.18 10.78 6.68 11.5 7.19 C12.24 7.71 12.98 8.23 13.74 8.77 C27.4 18.51 40.74 28.72 54 39 C49.49 43.96 44.2 47.54 38.69 51.31 C37.69 52 36.69 52.69 35.67 53.4 C32.45 55.61 29.23 57.81 26 60 C25.44 60.38 24.88 60.76 24.31 61.15 C20.44 63.78 16.57 66.39 12.69 69 C12.17 69.35 12.17 69.35 9.54 71.12 C8.58 71.76 7.63 72.4 6.64 73.06 C5.79 73.63 4.94 74.2 4.07 74.79 C2 76 2 76 0 76 C-0.07 70.79 -0.13 65.57 -0.16 60.36 C-0.18 58.58 -0.2 56.81 -0.23 55.03 C-0.26 52.49 -0.28 49.94 -0.29 47.39 C-0.31 46.59 -0.32 45.8 -0.34 44.98 C-0.34 39.46 -0.34 39.46 1.52 36.98 C2.01 36.65 2.5 36.33 3 36 C1.12 32.12 1.12 32.12 0 31 C-0.09 28.71 -0.11 26.41 -0.1 24.12 C-0.1 23.43 -0.09 22.75 -0.09 22.04 C-0.09 19.84 -0.08 17.64 -0.06 15.44 C-0.06 13.95 -0.05 12.46 -0.05 10.97 C-0.04 7.31 -0.02 3.66 0 0 Z " fill="#FCFDFE" transform="translate(1166,348)"/>
<path d="M0 0 C3.58 1.43 5.91 2.45 8.94 4.55 C9.31 4.8 9.31 4.8 11.18 6.09 C11.97 6.64 12.75 7.18 13.56 7.75 C14.39 8.32 15.21 8.89 16.06 9.48 C18.71 11.31 21.36 13.16 24 15 C24.44 15.31 24.44 15.31 26.68 16.87 C31.66 20.34 36.64 23.82 41.61 27.33 C43.33 28.53 45.07 29.72 46.81 30.9 C47.73 31.52 48.65 32.15 49.59 32.79 C50.43 33.36 51.28 33.92 52.14 34.51 C52.76 35 53.37 35.49 54 36 C54 36.66 54 37.32 54 38 C52.69 39.16 52.69 39.16 50.79 40.48 C50.05 41 49.32 41.51 48.56 42.04 C47.74 42.6 46.91 43.17 46.06 43.75 C45.21 44.34 44.35 44.93 43.47 45.54 C34.47 51.74 25.39 57.81 16.31 63.88 C15.56 64.38 14.81 64.88 14.04 65.39 C11.9 66.83 9.76 68.25 7.61 69.68 C6.96 70.12 6.31 70.55 5.63 71 C1.12 74 1.12 74 0 74 C0 49.58 0 25.16 0 0 Z " fill="#FDFDFE" transform="translate(424,348)"/>
<path d="M0 0 C3.77 1.89 7.2 4.03 10.69 6.38 C11.02 6.59 11.02 6.59 12.67 7.7 C19.06 12 25.35 16.43 31.62 20.89 C34.66 23.06 37.72 25.2 40.79 27.32 C41.56 27.87 42.34 28.41 43.15 28.97 C44.64 30.01 46.14 31.05 47.64 32.08 C48.32 32.55 48.99 33.02 49.68 33.5 C50.28 33.91 50.87 34.33 51.48 34.75 C53 36 53 36 55 39 C42.36 47.08 29.69 55.1 16.95 63.02 C16 63.62 15.04 64.21 14.06 64.82 C13.18 65.37 12.29 65.92 11.38 66.49 C9.38 67.76 7.44 69.07 5.5 70.43 C3 72 3 72 0 72 C0 48.24 0 24.48 0 0 Z " fill="#FBFCFE" transform="translate(1912,345)"/>
<path d="M0 0 C5.41 -0.07 10.82 -0.13 16.22 -0.16 C18.06 -0.18 19.9 -0.2 21.73 -0.23 C24.39 -0.26 27.04 -0.28 29.69 -0.29 C30.5 -0.31 31.31 -0.32 32.15 -0.34 C38.96 -0.34 44.79 1.08 50.31 5.31 C54.3 9.3 55.78 12.28 56.5 17.88 C56.28 22.8 54.19 26.33 51 30 C42.62 36.59 31.23 37 21 37 C21 44.92 21 52.84 21 61 C24.3 61.66 27.6 62.32 31 63 C31.16 63.33 31.16 63.33 32 65 C28.8 66.07 26.49 66.13 23.12 66.13 C21.98 66.13 20.83 66.14 19.64 66.14 C19.04 66.13 19.04 66.13 16 66.12 C14.8 66.13 13.6 66.13 12.36 66.14 C11.21 66.14 10.06 66.13 8.88 66.13 C8.35 66.13 8.35 66.13 5.68 66.13 C3 66 3 66 0 65 C0 64.34 0 63.68 0 63 C2.97 62.34 5.94 61.68 9 61 C9 42.52 9 24.04 9 5 C6.36 4.67 3.72 4.34 1 4 C0.67 2.68 0.34 1.36 0 0 Z " fill="#417CF0" transform="translate(685,492)"/>
<path d="M0 0 C4.82 -0.05 9.64 -0.09 14.46 -0.11 C16.1 -0.12 17.73 -0.13 19.37 -0.15 C42.37 -0.39 42.37 -0.39 50 6 C54.11 11.44 55.94 16.13 55 23 C52.05 28.68 48.43 32.16 42.36 34.27 C41.02 34.61 39.67 34.94 38.31 35.25 C37.66 35.42 37 35.6 36.32 35.77 C30.56 37.18 26.27 37 20 37 C20.33 44.92 20.66 52.84 21 61 C23.97 61.66 26.94 62.32 30 63 C30 63.99 30 64.98 30 66 C20.1 66 10.2 66 0 66 C0 65.01 0 64.02 0 63 C2.97 62.01 5.94 61.02 9 60 C9.02 52.81 9.04 45.62 9.05 38.43 C9.06 35.98 9.07 33.54 9.08 31.09 C9.09 27.58 9.09 24.06 9.1 20.55 C9.1 19.45 9.11 18.36 9.11 17.23 C9.11 16.21 9.11 15.19 9.11 14.14 C9.11 13.69 9.11 13.69 9.12 11.42 C9.01 9.14 8.64 7.18 8 5 C5.36 4.67 2.72 4.34 0 4 C0 2.68 0 1.36 0 0 Z " fill="#3D7AF0" transform="translate(32,418)"/>
<path d="M0 0 C42.34 -0.36 42.34 -0.36 49.61 6.53 C53.07 10.51 54.17 13.08 54.25 18.25 C54.28 19.18 54.3 20.12 54.33 21.08 C53.92 24.71 52.99 26.93 51 30 C40.83 37.09 30.95 37.12 19 37 C19.33 44.92 19.66 52.84 20 61 C23.3 61.66 26.6 62.32 30 63 C30 63.99 30 64.98 30 66 C19.77 66 9.54 66 -1 66 C-1 65.34 -1 64.68 -1 64 C1.97 63.01 4.94 62.02 8 61 C8.03 53.19 8.04 45.37 8.05 37.56 C8.06 34.9 8.07 32.23 8.08 29.57 C8.09 25.76 8.09 21.94 8.1 18.13 C8.1 16.93 8.11 15.73 8.11 14.5 C8.11 13.4 8.11 12.3 8.11 11.16 C8.11 10.67 8.11 10.67 8.12 8.21 C8 6 8 6 7 5 C5.65 4.77 4.3 4.59 2.94 4.44 C1.64 4.29 0.34 4.15 -1 4 C-0.67 2.68 -0.34 1.36 0 0 Z " fill="#3F7AF0" transform="translate(826,127)"/>
<path d="M0 0 C4.23 -0.03 8.46 -0.05 12.69 -0.06 C13.87 -0.07 15.05 -0.08 16.26 -0.09 C43.6 -0.16 43.6 -0.16 49.78 5.68 C54.4 10.92 55.38 14.24 55.27 21.24 C54.88 25.26 53.82 27.12 51 30 C41.68 37.05 31.3 37 20 37 C20.33 44.92 20.66 52.84 21 61 C24.3 61.66 27.6 62.32 31 63 C30.67 63.99 30.34 64.98 30 66 C20.43 66 10.86 66 1 66 C0.67 65.01 0.34 64.02 0 63 C2.97 62.34 5.94 61.68 9 61 C9.03 53.19 9.04 45.37 9.05 37.56 C9.06 34.9 9.07 32.23 9.08 29.57 C9.09 25.76 9.09 21.94 9.1 18.13 C9.1 16.93 9.11 15.73 9.11 14.5 C9.11 13.4 9.11 12.3 9.11 11.16 C9.11 10.67 9.11 10.67 9.12 8.21 C9 6 9 6 8 5 C6.65 4.77 5.3 4.59 3.94 4.44 C2.64 4.29 1.34 4.15 0 4 C0 2.68 0 1.36 0 0 Z " fill="#3A78F0" transform="translate(702,209)"/>
<path d="M0 0 C4.91 3.3 8.22 9.28 9.84 14.88 C11.28 26.2 10.83 37.78 7.19 48.62 C6.2 48.62 5.21 48.62 4.19 48.62 C2.76 46.95 2.76 46.95 1.31 44.75 C-1.1 41.39 -2.59 39.45 -6.81 38.62 C-10.94 38.17 -13.27 38.38 -17.06 40.12 C-20.66 43.4 -21.43 46 -22.81 50.62 C-28.95 44.78 -28.9 36.47 -29.1 28.43 C-29.19 19.08 -27.99 11.71 -22.94 3.62 C-16.8 -2.16 -7.78 -3.65 0 0 Z " fill="#FBFCFE" transform="translate(1481.8125,206.375)"/>
<path d="M0 0 C1.01 -0.02 2.02 -0.03 3.06 -0.05 C7.89 0.55 11.05 2.96 14.19 6.56 C14.43 6.83 14.43 6.83 15.67 8.2 C19.57 14.39 19.31 21.12 19.25 28.19 C19.25 28.66 19.25 28.66 19.27 31.04 C19.26 37.58 18.98 44.36 16 50.31 C11.76 48.8 10.42 45.95 8 42.31 C3.63 39.53 -0.99 39.55 -6 40.31 C-9.87 42.15 -11.73 44.67 -13.38 48.62 C-13.58 49.51 -13.79 50.4 -14 51.31 C-19.11 46.91 -19.78 40.1 -20.29 33.68 C-20.53 22.69 -19.57 12.73 -12.7 3.84 C-8.92 0.45 -4.93 0.02 0 0 Z " fill="#FBFCFE" transform="translate(1462,494.6875)"/>
<path d="M0 0 C5.56 2.34 8.4 6.7 11 12 C12.8 17.7 12.23 23.9 12.25 29.81 C12.27 31.07 12.29 32.33 12.31 33.63 C12.34 40.17 12.27 45.25 9 51 C6.65 48.74 4.52 46.43 2.5 43.88 C-0.85 40.03 -2.35 39.18 -7.38 38.62 C-11.67 39.07 -13.68 40.3 -17 43 C-18.95 45.92 -19.45 47.63 -20 51 C-20.66 51 -21.32 51 -22 51 C-27.43 39.2 -28.13 23.4 -24 11 C-18.16 0.15 -11.9 -1.49 0 0 Z " fill="#FDFDFE" transform="translate(1591,122)"/>
<path d="M0 0 C5.61 2.75 8.12 6.2 11.12 11.69 C13.54 19.19 12.78 26.28 9.31 33.38 C6.94 36.25 6.94 36.25 4.31 38.38 C3.61 38.95 2.91 39.53 2.19 40.12 C-2.78 42.28 -8.45 43.11 -13.78 41.9 C-19.28 39.69 -23.26 36.68 -26 31.44 C-28.67 24.79 -28.95 17.63 -26.91 10.75 C-21.75 -0.14 -10.99 -4.28 0 0 Z " fill="#FBFCFE" transform="translate(150.6875,334.625)"/>
<path d="M0 0 C0.96 0 1.91 0 2.9 0.01 C3.98 0.01 5.06 0.01 6.18 0.01 C6.76 0.01 6.76 0.01 9.74 0.02 C10.94 0.02 12.13 0.03 13.37 0.03 C17.21 0.03 21.05 0.05 24.89 0.06 C27.49 0.06 30.09 0.07 32.68 0.07 C39.07 0.08 45.45 0.1 51.83 0.12 C52 2.04 52.16 3.95 52.32 5.87 C52.42 6.94 52.51 8 52.6 9.1 C52.86 12.55 52.93 15.92 52.89 19.37 C52.88 20.47 52.87 21.57 52.86 22.7 C52.85 23.5 52.84 24.3 52.83 25.12 C51.51 25.12 50.19 25.12 48.83 25.12 C48.78 24.84 48.78 24.84 48.53 23.4 C47.46 17.87 45.76 13.91 42.83 9.12 C42.83 8.46 42.83 7.8 42.83 7.12 C37.95 5.29 34.25 4.8 28.83 4.12 C28.83 23.26 28.83 42.4 28.83 62.12 C30.81 62.12 32.79 62.12 34.83 62.12 C37.2 63.12 37.2 63.12 38.83 64.12 C38.83 64.78 38.83 65.44 38.83 66.12 C28.93 66.12 19.03 66.12 8.83 66.12 C8.83 65.13 8.83 64.14 8.83 63.12 C10.48 62.96 10.48 62.96 18.83 62.12 C18.5 43.31 18.17 24.5 17.83 5.12 C9.83 5.12 9.83 5.12 7.84 6.44 C7.4 7.04 6.97 7.63 6.52 8.25 C6.04 8.89 5.57 9.53 5.08 10.19 C2.73 13.82 1.08 17.29 -0.17 21.43 C-0.34 21.88 -0.34 21.88 -1.17 24.12 C-2.16 24.45 -3.15 24.78 -4.17 25.12 C-4.36 7.61 -4.36 7.61 -3.17 1.12 C-2.17 0.12 -2.17 0.12 0 0 Z " fill="#3C79F0" transform="translate(1924.1703033447266,203.87974548339844)"/>
<path d="M0 0 C17.82 0 35.64 0 54 0 C55.12 9 55.12 9 55.1 12.5 C55.09 13.24 55.09 13.98 55.09 14.75 C55.08 15.12 55.08 15.12 55.06 17 C55.06 17.77 55.05 18.55 55.05 19.35 C55.04 21.23 55.02 23.12 55 25 C54.01 25 53.02 25 52 25 C51.75 24.19 51.49 23.38 51.23 22.55 C50.89 21.48 50.54 20.41 50.19 19.31 C49.85 18.26 49.51 17.2 49.17 16.11 C47.53 11.76 46.17 8.77 42.25 6.19 C39 5 39 5 32 5 C31.67 23.81 31.34 42.62 31 62 C33.64 62.33 36.28 62.66 39 63 C39.99 63.33 40.98 63.66 42 64 C42 64.66 42 65.32 42 66 C31.77 66 21.54 66 11 66 C11.33 65.01 11.66 64.02 12 63 C14.97 63 17.94 63 21 63 C20.84 53.43 20.84 53.43 20 5 C13 5 13 5 10.38 6.38 C5.65 11.59 2.94 18.29 1 25 C0.01 25 -0.98 25 -2 25 C-2.31 16.31 -1.12 8.95 0 0 Z " fill="#3E7AF0" transform="translate(1194,200)"/>
<path d="M0 0 C5.28 0 10.56 0 16 0 C16.33 14.19 16.66 28.38 17 43 C28 34 28 34 29 29 C27.35 28.01 25.7 27.02 24 26 C26 24 26 24 28.06 23.77 C28.48 23.78 28.48 23.78 30.57 23.8 C31.47 23.81 32.36 23.82 33.29 23.82 C33.75 23.83 33.75 23.83 36.12 23.88 C37.07 23.88 38.01 23.89 38.99 23.9 C41.33 23.93 43.66 23.96 46 24 C46 25.32 46 26.64 46 28 C44.87 28.33 43.73 28.66 42.56 29 C37.02 31.03 33.17 34.94 29 39 C30.49 43.43 32.91 46.85 35.75 50.5 C36.17 51.06 36.59 51.61 37.02 52.18 C40.57 56.79 44.34 61.11 50 63 C50 63.99 50 64.98 50 66 C42.74 66 35.48 66 28 66 C27.67 65.01 27.34 64.02 27 63 C27.99 62.83 27.99 62.83 33 62 C30.42 55.87 26.23 51.08 22 46 C18.12 47.88 18.12 47.88 17 49 C16.77 51.18 16.59 53.37 16.44 55.56 C16.35 56.76 16.27 57.96 16.18 59.19 C16.15 59.65 16.15 59.65 16 62 C17.16 62.17 17.16 62.17 23 63 C23 63.99 23 64.98 23 66 C15.74 66 8.48 66 1 66 C1 65.01 1 64.02 1 63 C1.99 62.83 1.99 62.83 7 62 C6.67 43.19 6.34 24.38 6 5 C3.69 4.34 1.38 3.68 -1 3 C-0.67 2.01 -0.34 1.02 0 0 Z " fill="#417CF0" transform="translate(209,310)"/>
<path d="M0 0 C0.52 0 0.52 0 3.15 0 C3.72 0.01 3.72 0.01 6.55 0.05 C7.7 0.05 8.85 0.06 10.04 0.06 C13.72 0.08 17.4 0.11 21.07 0.15 C23.57 0.17 26.06 0.18 28.55 0.19 C34.66 0.23 40.77 0.28 46.89 0.34 C47.55 3.96 48.01 7.4 47.98 11.08 C47.98 11.92 47.98 12.76 47.97 13.62 C47.97 14.05 47.97 14.05 47.95 16.22 C47.94 17.09 47.94 17.97 47.93 18.88 C47.92 21.03 47.91 23.19 47.89 25.34 C46.9 25.34 45.91 25.34 44.89 25.34 C44.73 24.71 44.57 24.08 44.41 23.43 C42.6 16.81 40.6 9.68 34.51 5.84 C31.89 5.34 31.89 5.34 24.89 5.34 C24.89 24.15 24.89 42.96 24.89 62.34 C28.19 63 31.49 63.66 34.89 64.34 C34.89 65 34.89 65.66 34.89 66.34 C24.66 66.34 14.43 66.34 3.89 66.34 C4.22 65.35 4.55 64.36 4.89 63.34 C6.37 63.18 6.37 63.18 13.89 62.34 C14.22 43.53 14.55 24.72 14.89 5.34 C5.89 5.34 5.89 5.34 3.07 6.84 C-1.58 12.16 -3.76 18.76 -6.11 25.34 C-6.77 25.34 -7.43 25.34 -8.11 25.34 C-8.2 21.74 -8.25 18.13 -8.3 14.53 C-8.33 13.5 -8.35 12.48 -8.38 11.42 C-8.39 10.44 -8.4 9.46 -8.41 8.45 C-8.42 7.54 -8.44 6.63 -8.45 5.7 C-7.72 0.64 -4.65 -0.03 0 0 Z " fill="#3A77F0" transform="translate(444.114013671875,199.659423828125)"/>
<path d="M0 0 C0.66 -1.65 1.32 -3.3 2 -5 C2.99 -5 3.98 -5 5 -5 C6.02 -1.94 6.12 0.12 6.1 3.32 C6.09 4.35 6.09 5.38 6.09 6.44 C6.08 6.98 6.08 6.98 6.06 9.69 C6.06 10.77 6.05 11.85 6.05 12.97 C6.04 15.65 6.02 18.32 6 21 C5.01 21 4.02 21 3 21 C2.7 20.29 2.39 19.57 2.08 18.84 C-4.09 4.74 -4.09 4.74 -10.25 1.06 C-15.7 -0.48 -20.51 -1.05 -25.81 1.19 C-31.45 5.86 -34.52 11.55 -35.3 18.82 C-35.44 21.99 -35.46 25.14 -35.44 28.31 C-35.46 29.38 -35.48 30.44 -35.5 31.54 C-35.49 40.3 -34.06 48.89 -28.12 55.69 C-23.7 59.01 -18.72 58.59 -13.4 58.5 C-7.66 57.65 -3.75 55.42 -0.17 50.83 C2 47.43 3.51 43.74 5 40 C5.66 40 6.32 40 7 40 C7.77 45.07 6.89 47.76 4.06 52.06 C-0.7 58.25 -4.79 62.35 -12.71 63.57 C-22.74 64.24 -31.12 62 -38.93 55.36 C-45.85 47.99 -47.74 39.46 -47.62 29.62 C-47.62 28.61 -47.61 27.59 -47.6 26.54 C-47.36 18.77 -46.15 13.04 -41 7 C-40.37 6.25 -39.75 5.49 -39.1 4.72 C-26.98 -8.5 -15.26 -5.7 0 0 Z " fill="#3D79F0" transform="translate(82,314)"/>
<path d="M0 0 C45.87 0 91.74 0 139 0 C139 2.31 139 4.62 139 7 C93.13 7 47.26 7 0 7 C0 4.69 0 2.38 0 0 Z " fill="#FFFFFF" transform="translate(1020,387)"/>
<path d="M0 0 C3.33 2.42 4.32 4.67 5.12 8.66 C5.93 14.72 5.91 19.88 2.62 25.18 C-2.01 29.59 -4.87 30.35 -11.19 30.43 C-11.8 30.44 -11.8 30.44 -14.89 30.51 C-19.87 30.04 -22.33 28.34 -25.62 24.68 C-29.2 19.58 -28.85 14.19 -28.38 8.18 C-26.74 3.44 -24.56 0.93 -20.38 -1.82 C-13.43 -4 -6.31 -3.69 0 0 Z " fill="#CEDCFA" transform="translate(1362.375,340.8203125)"/>
<path d="M0 0 C4.39 2.74 7.67 6 9.25 11 C9.25 13.97 9.25 16.94 9.25 20 C-0.65 20 -10.55 20 -20.75 20 C-16.75 33 -16.75 33 -14 35.81 C-10.08 37.25 -6.82 38.04 -2.75 37 C-0.51 35.67 1.41 34.2 3.39 32.51 C5.26 30.99 7.07 29.99 9.25 29 C8.77 33.28 6.37 35.23 3.25 38 C-2.06 41.63 -6.3 42.54 -12.75 42 C-19.72 39.76 -24.12 35.27 -27.89 29.14 C-30.08 23.67 -29.46 16.35 -27.81 10.75 C-25.61 5.68 -21.13 2.18 -16.75 -1 C-10.86 -2.96 -5.59 -2.79 0 0 Z " fill="#3E7AF0" transform="translate(245.75,443)"/>
<path d="M0 0 C4.19 3.54 6.37 6.63 7.23 11.99 C7.55 18.17 6.49 21.64 2.86 26.58 C1.81 28.38 1.81 28.38 2 31.88 C2.27 32.7 2.54 33.52 2.81 34.38 C4.13 34.38 5.45 34.38 6.81 34.38 C5.94 38.25 5.94 38.25 4.81 39.38 C1.99 39.67 0.41 39.8 -1.94 38.12 C-3.31 36.2 -3.68 34.66 -4.19 32.38 C-4.48 32.36 -4.48 32.36 -5.95 32.3 C-12.35 31.83 -16.43 30.33 -20.94 25.5 C-23.82 20.6 -24.86 16.02 -24.19 10.38 C-22.39 5.94 -20.42 2.34 -16.62 -0.62 C-10.6 -3.1 -5.99 -3.06 0 0 Z " fill="#4780F1" transform="translate(1277.1875,252.625)"/>
<path d="M0 0 C1.83 1.83 1.17 4.77 1.21 7.23 C1.24 8.51 1.27 9.79 1.3 11.1 C1.34 13.14 1.37 15.18 1.4 17.21 C1.43 19.18 1.48 21.14 1.52 23.11 C1.54 24.28 1.56 25.46 1.58 26.67 C2.07 30.54 3.17 34.17 6 37 C11.24 37.35 14.83 37.56 19 34 C21.57 28.69 21.4 23.67 21.44 17.88 C21.47 16.87 21.5 15.87 21.54 14.84 C21.56 12.13 21.53 9.66 21 7 C18.47 5.01 18.47 5.01 16 4 C16 3.01 16 2.02 16 1 C20.62 0.67 25.24 0.34 30 0 C30.03 1.08 30.05 2.16 30.08 3.27 C30.17 7.27 30.27 11.27 30.37 15.27 C30.42 17 30.46 18.74 30.5 20.47 C30.55 22.96 30.62 25.44 30.68 27.93 C30.7 28.71 30.72 29.48 30.73 30.28 C30.89 35.77 30.89 35.77 32 38 C33.98 38.73 35.98 39.4 38 40 C37.67 40.99 37.34 41.98 37 43 C32.38 43 27.76 43 23 43 C23 40.69 23 38.38 23 36 C22.11 36.6 21.23 37.2 20.31 37.81 C19.22 38.53 18.13 39.26 17 40 C16.26 40.58 15.52 41.15 14.75 41.75 C10.49 43.69 6.59 43.86 2 43 C-2.53 40.74 -4.55 38.33 -6.18 33.53 C-7.4 28.06 -7.22 22.57 -7.12 17 C-7.12 15.94 -7.11 14.88 -7.1 13.79 C-7.07 11.19 -7.04 8.6 -7 6 C-8.98 5.34 -10.96 4.68 -13 4 C-13 3.01 -13 2.02 -13 1 C-3.89 -0.24 -3.89 -0.24 0 0 Z " fill="#3D79F0" transform="translate(104,441)"/>
<path d="M0 0 C4.29 0 8.58 0 13 0 C15.97 6.6 18.94 13.2 22 20 C24.97 13.4 27.94 6.8 31 0 C35.29 0 39.58 0 44 0 C44 0.66 44 1.32 44 2 C43.01 2.33 42.02 2.66 41 3 C41 11.91 41 20.82 41 30 C41.99 30.33 42.98 30.66 44 31 C44 31.66 44 32.32 44 33 C38.72 33 33.44 33 28 33 C28 32.34 28 31.68 28 31 C29.32 30.67 30.64 30.34 32 30 C32 22.74 32 15.48 32 8 C28.37 16.25 24.74 24.5 21 33 C18 32 18 32 16.74 29.78 C16.34 28.82 15.93 27.86 15.52 26.87 C15.08 25.84 14.64 24.8 14.18 23.74 C13.73 22.65 13.28 21.56 12.81 20.44 C12.35 19.35 11.89 18.25 11.41 17.13 C10.26 14.42 9.13 11.71 8 9 C7.67 16.26 7.34 23.52 7 31 C8.32 31 9.64 31 11 31 C11 31.66 11 32.32 11 33 C7.37 33 3.74 33 0 33 C0 32.34 0 31.68 0 31 C1.32 31 2.64 31 4 31 C4 21.43 4 11.86 4 2 C2.68 2 1.36 2 0 2 C0 1.34 0 0.68 0 0 Z " fill="#CDDBFA" transform="translate(1371,338)"/>
<path d="M0 0 C5.61 2.75 8.12 6.2 11.12 11.69 C13.54 19.19 12.78 26.28 9.31 33.38 C6.94 36.25 6.94 36.25 4.31 38.38 C3.61 38.95 2.91 39.53 2.19 40.12 C-2.78 42.28 -8.45 43.11 -13.78 41.9 C-19.28 39.69 -23.26 36.68 -26 31.44 C-28.67 24.79 -28.95 17.63 -26.91 10.75 C-21.75 -0.14 -10.99 -4.28 0 0 Z M-18.69 9.38 C-19.12 12.61 -19.01 15.86 -19 19.12 C-19.02 20.01 -19.03 20.89 -19.05 21.8 C-19.05 27.43 -18.4 31.41 -15.69 36.38 C-12.99 38.63 -11.2 39.29 -7.75 39.88 C-3.49 39.18 -1.65 37.47 1.31 34.38 C3.3 29.75 3.65 25.41 3.62 20.44 C3.64 19.76 3.66 19.08 3.67 18.38 C3.68 13.24 2.67 9.84 0.31 5.38 C-2.51 2.99 -4.58 1.62 -8.19 0.81 C-13.03 1.9 -16.02 5.38 -18.69 9.38 Z " fill="#3F7BF0" transform="translate(150.6875,334.625)"/>
<path d="M0 0 C5.61 0 11.22 0 17 0 C17 20.46 17 40.92 17 62 C18.98 62.33 20.96 62.66 23 63 C23 63.99 23 64.98 23 66 C15.74 66 8.48 66 1 66 C1 65.01 1 64.02 1 63 C2.98 62.34 4.96 61.68 7 61 C7 42.85 7 24.7 7 6 C4.36 5.01 1.72 4.02 -1 3 C-0.67 2.01 -0.34 1.02 0 0 Z " fill="#457FF1" transform="translate(145,418)"/>
<path d="M0 0 C3.18 2.44 4.27 4.14 5 8 C5.38 12.86 5.6 17.4 3.88 22 C-0.3 26.45 -5.09 27.5 -11 28 C-14 28.07 -17 28.06 -20 28 C-20.11 18.27 -19.93 8.7 -19 -1 C-12.58 -3.14 -6.28 -2.09 0 0 Z " fill="#FAFBFE" transform="translate(725,497)"/>
<path d="M0 0 C2.58 2.5 2.99 3.87 3.4 7.5 C3.39 8.8 3.38 10.1 3.38 11.44 C3.38 12.74 3.39 14.03 3.4 15.37 C2.99 19.13 2.28 21.03 0 24 C-6.42 27.57 -13.88 27 -21 27 C-21 17.43 -21 7.86 -21 -2 C-13.76 -4.41 -6.73 -3.31 0 0 Z " fill="#FAFCFE" transform="translate(743,215)"/>
<path d="M0 0 C2.9 1.62 4.28 3.34 6.04 6.14 C6.94 11.44 7.13 17.22 5.23 22.32 C3.05 25.38 0.35 26.59 -3.14 27.52 C-7.96 28.14 -7.96 28.14 -17.96 28.14 C-17.96 18.57 -17.96 9 -17.96 -0.86 C-12.43 -3.62 -5.6 -1.74 0 0 Z " fill="#FCFDFE" transform="translate(69.95703125,422.85546875)"/>
<path d="M0 0 C1.32 0 2.64 0 4 0 C4.33 4.29 4.66 8.58 5 13 C0.55 11.89 0.55 11.89 -1.5 8.56 C-4.7 3.85 -4.7 3.85 -8 3 C-12.16 2.46 -14.99 2.33 -18.56 4.69 C-20 7 -20 7 -19.94 9.62 C-19 12 -19 12 -16 14 C-14.1 14.53 -12.18 15 -10.25 15.44 C1.02 18.17 1.02 18.17 5.44 22.25 C7.47 25.82 7.5 27.94 7 32 C5.69 36.18 4.11 38.25 0.38 40.38 C-4.99 42.75 -10.32 43.01 -15.81 40.94 C-16.53 40.63 -17.26 40.32 -18 40 C-20.12 40.31 -20.12 40.31 -22 41 C-22.5 41.17 -22.5 41.17 -25 42 C-27.06 39.94 -26.41 35.78 -26.56 32.94 C-26.61 32.18 -26.65 31.42 -26.69 30.64 C-26.8 28.76 -26.9 26.88 -27 25 C-24.18 25.35 -23.21 25.73 -21.4 28 C-20.92 28.8 -20.44 29.61 -19.94 30.44 C-18.05 33.56 -17.11 34.93 -14 37 C-11.66 37.27 -11.66 37.27 -9.06 37.25 C-8.21 37.26 -7.35 37.26 -6.47 37.27 C-3.82 36.98 -2.2 36.5 0 35 C0.75 31.88 0.75 31.88 1 29 C-3.02 26.27 -6.72 25.2 -11.44 24.12 C-21.54 21.58 -21.54 21.58 -25 17 C-26.57 12.3 -26.53 9.11 -24.38 4.62 C-17.42 -3.06 -9.56 -1.53 0 0 Z " fill="#3F7BF0" transform="translate(201,443)"/>
<path d="M0 0 C2.54 -0.06 5.07 -0.12 7.69 -0.19 C8.48 -0.21 9.27 -0.24 10.08 -0.27 C14.62 -0.32 17.49 0.08 21 3 C23.98 6.8 24.41 9.73 24.38 14.5 C24.38 15.6 24.39 16.71 24.4 17.84 C23.96 21.35 23.14 23.21 21 26 C13.59 29.98 9.2 29 0 29 C0 19.43 0 9.86 0 0 Z " fill="#FCFDFE" transform="translate(846,131)"/>
<path d="M0 0 C4.62 5.83 5.69 10.75 5 18 C3.87 22.08 2.09 25.11 -1 28 C-4 25.79 -7 23.58 -10 21.38 C-10.84 20.76 -11.68 20.14 -12.54 19.5 C-17.71 15.7 -22.87 11.86 -28 8 C-26.76 3.05 -25.31 0.77 -21 -2 C-13.89 -4.25 -6.38 -3.83 0 0 Z " fill="#CCDBFA" transform="translate(1207,341)"/>
<path d="M0 0 C5.61 0 11.22 0 17 0 C17 20.46 17 40.92 17 62 C18.98 62.33 20.96 62.66 23 63 C23 63.99 23 64.98 23 66 C15.74 66 8.48 66 1 66 C1 65.01 1 64.02 1 63 C3.64 62.34 6.28 61.68 9 61 C8.88 53.69 8.76 46.37 8.63 39.06 C8.58 36.57 8.54 34.08 8.5 31.59 C8.44 28.02 8.38 24.44 8.32 20.86 C8.3 19.75 8.28 18.64 8.27 17.49 C8.25 16.45 8.23 15.41 8.21 14.34 C8.2 13.88 8.2 13.88 8.16 11.58 C8 8.97 7.57 6.54 7 4 C5.02 4 3.04 4 1 4 C0.67 2.68 0.34 1.36 0 0 Z " fill="#3876F0" transform="translate(94,310)"/>
<path d="M0 0 C1.31 -0.03 2.63 -0.05 3.98 -0.08 C8.04 0.27 10.39 1.08 13.81 3.25 C16.16 6.77 16.14 8.45 16.19 12.62 C16.22 13.75 16.24 14.87 16.27 16.02 C15.63 20.55 13.68 22.84 10.08 25.55 C6.61 26.62 3.16 26.46 -0.44 26.38 C-1.18 26.37 -1.93 26.36 -2.7 26.35 C-4.53 26.32 -6.36 26.29 -8.19 26.25 C-8.22 22.1 -8.23 17.96 -8.25 13.81 C-8.26 12.63 -8.27 11.44 -8.28 10.22 C-8.28 9.1 -8.28 7.98 -8.29 6.82 C-8.29 5.77 -8.3 4.73 -8.3 3.66 C-8.07 -1.32 -4 0.03 0 0 Z " fill="#F9FBFE" transform="translate(2192.1875,479.75)"/>
<path d="M0 0 C0.67 -0.02 1.34 -0.04 2.03 -0.06 C6.49 -0.1 9.24 0.48 12.75 3.25 C15.85 6.41 16.18 8.82 16.19 13.19 C16.09 17.09 15.93 18.93 14 22.38 C9.3 26.29 5.52 26.51 -0.5 26.38 C-1.25 26.37 -1.99 26.36 -2.76 26.35 C-4.59 26.32 -6.42 26.29 -8.25 26.25 C-8.28 22.1 -8.3 17.96 -8.31 13.81 C-8.32 12.63 -8.33 11.44 -8.34 10.22 C-8.34 9.1 -8.34 7.98 -8.35 6.82 C-8.35 5.77 -8.36 4.73 -8.36 3.66 C-8.13 -1.34 -4.01 0.03 0 0 Z " fill="#FAFBFE" transform="translate(2341.25,130.75)"/>
<path d="M0 0 C5.49 0.05 9.18 0.39 13.88 3.25 C17.69 7.28 17.43 11 17.3 16.32 C16.65 20.78 15.3 22.37 11.88 25.25 C8.1 26.68 4.1 26.36 0.12 26.31 C-0.57 26.31 -1.27 26.3 -1.99 26.3 C-3.7 26.29 -5.41 26.27 -7.12 26.25 C-7.15 22.1 -7.17 17.96 -7.19 13.81 C-7.2 12.63 -7.2 11.44 -7.21 10.22 C-7.22 9.1 -7.22 7.98 -7.22 6.82 C-7.23 5.77 -7.23 4.73 -7.24 3.66 C-7.02 -1.04 -4.07 0.06 0 0 Z " fill="#FAFCFE" transform="translate(2200.125,196.75)"/>
<path d="M0 0 C2.98 1.69 5.3 3 6.69 6.25 C6.25 12.69 6.25 12.69 4.69 14.25 C1.69 14.38 1.69 14.38 -1.31 14.25 C-2.31 13.25 -2.31 13.25 -2.44 9.88 C-2.31 6.25 -2.31 6.25 -1.31 3.25 C-11.38 1.63 -11.38 1.63 -15.31 4.25 C-16.56 6.75 -16.56 6.75 -17.31 9.25 C-17.64 9.91 -17.97 10.57 -18.31 11.25 C-18.46 14.01 -18.54 16.74 -18.56 19.5 C-18.58 20.25 -18.6 21 -18.62 21.78 C-18.67 27.53 -17.62 31.78 -13.56 36.12 C-10.31 37.75 -7.91 37.63 -4.31 37.25 C-1.28 35.87 0.32 34.74 2.31 32.06 C2.77 31.46 3.22 30.87 3.69 30.25 C4.68 30.25 5.67 30.25 6.69 30.25 C6.02 35.42 4.15 37.6 0.2 40.85 C-4.52 43.48 -9.11 43.23 -14.31 42.25 C-20.81 39.89 -24.35 35.33 -27.31 29.25 C-29.42 22.91 -28.94 16.17 -26.28 10.06 C-20.84 -0.12 -10.7 -4.93 0 0 Z " fill="#3F7BF0" transform="translate(196.3125,334.75)"/>
<path d="M0 0 C1.15 2.3 1.12 3.58 1.1 6.13 C1.09 6.94 1.09 7.74 1.09 8.57 C1.08 9 1.08 9 1.06 11.12 C1.06 11.97 1.05 12.82 1.05 13.7 C1.04 15.8 1.02 17.9 1 20 C1.66 20 2.32 20 3 20 C3 20.66 3 21.32 3 22 C-0.63 22 -4.26 22 -8 22 C-8 21.34 -8 20.68 -8 20 C-7.34 20 -6.68 20 -6 20 C-6.33 14.06 -6.66 8.12 -7 2 C-8.65 2.33 -10.3 2.66 -12 3 C-12.33 8.61 -12.66 14.22 -13 20 C-12.34 20 -11.68 20 -11 20 C-11 20.66 -11 21.32 -11 22 C-14.63 22 -18.26 22 -22 22 C-22 21.34 -22 20.68 -22 20 C-21.34 20 -20.68 20 -20 20 C-20.33 14.39 -20.66 8.78 -21 3 C-22.65 3 -24.3 3 -26 3 C-26.33 8.61 -26.66 14.22 -27 20 C-26.34 20 -25.68 20 -25 20 C-25 20.66 -25 21.32 -25 22 C-28.63 22 -32.26 22 -36 22 C-36 21.34 -36 20.68 -36 20 C-35.34 20 -34.68 20 -34 20 C-34 13.73 -34 7.46 -34 1 C-34.66 1 -35.32 1 -36 1 C-36 0.34 -36 -0.32 -36 -1 C-32 -1 -28 -1 -24 -1 C-23.64 -1.01 -23.64 -1.01 -21.84 -1.04 C-21.07 -1.04 -20.3 -1.05 -19.5 -1.06 C-18.73 -1.07 -17.95 -1.09 -17.16 -1.1 C-15 -1 -15 -1 -12 0 C-11.54 -0.18 -11.54 -0.18 -9.19 -1.06 C-5.32 -2.2 -3.6 -1.68 0 0 Z " fill="#CDDBFA" transform="translate(1133,349)"/>
<path d="M0 0 C3.37 -0.12 6.75 -0.19 10.12 -0.25 C11.08 -0.28 12.03 -0.32 13.01 -0.35 C18.96 -0.43 22.56 -0.14 27 4 C27.69 7.5 27.69 7.5 27 11 C24.69 13.44 24.69 13.44 22 15 C21.01 15 20.02 15 19 15 C19.21 15.25 19.21 15.25 20.28 16.54 C23.54 20.64 25.73 23.58 26 29 C26.99 29 27.98 29 29 29 C29 28.01 29 27.02 29 26 C29.66 26 30.32 26 31 26 C30.12 30.88 30.12 30.88 29 32 C26.67 32.04 24.33 32.04 22 32 C20.78 29.12 19.82 26.34 19 23.31 C18 20 18 20 16 18 C14.02 17.29 12.02 16.61 10 16 C10.06 18.29 10.15 20.58 10.25 22.88 C10.3 24.15 10.34 25.43 10.39 26.74 C10.59 27.82 10.79 28.89 11 30 C12.32 30.66 13.64 31.32 15 32 C9.72 32 4.44 32 -1 32 C-0.34 31.34 0.32 30.68 1 30 C2.32 30 3.64 30 5 30 C5 20.76 5 11.52 5 2 C3.35 1.67 1.7 1.34 0 1 C0 0.67 0 0.34 0 0 Z " fill="#447EF1" transform="translate(1977,257)"/>
<path d="M0 0 C1.13 0.02 2.27 0.04 3.44 0.06 C3.6 0.48 3.6 0.48 4.4 2.59 C5.58 5.68 6.78 8.77 7.97 11.86 C8.49 13.2 9 14.53 9.51 15.87 C10.25 17.8 10.99 19.72 11.74 21.64 C12.18 22.8 12.63 23.96 13.09 25.15 C14.32 27.81 15.33 29.12 17.44 31.06 C17.44 31.72 17.44 32.38 17.44 33.06 C12.49 33.06 7.54 33.06 2.44 33.06 C2.44 32.4 2.44 31.74 2.44 31.06 C3.76 31.06 5.08 31.06 6.44 31.06 C5.45 28.09 4.46 25.12 3.44 22.06 C-0.85 22.06 -5.14 22.06 -9.56 22.06 C-10.22 25.03 -10.88 28 -11.56 31.06 C-10.24 31.06 -8.92 31.06 -7.56 31.06 C-7.56 31.72 -7.56 32.38 -7.56 33.06 C-10.86 33.06 -14.16 33.06 -17.56 33.06 C-17.56 32.4 -17.56 31.74 -17.56 31.06 C-16.9 30.73 -16.24 30.4 -15.56 30.06 C-14.63 27.96 -13.79 25.81 -13 23.66 C-12.76 23.02 -12.52 22.38 -12.27 21.72 C-11.51 19.67 -10.75 17.62 -10 15.56 C-9.24 13.51 -8.48 11.46 -7.72 9.41 C-7.03 7.55 -6.34 5.68 -5.65 3.82 C-4.17 0.07 -4.17 0.07 0 0 Z " fill="#CEDCFA" transform="translate(1232.5625,337.9375)"/>
<path d="M0 0 C3.06 -0.05 6.12 -0.09 9.19 -0.12 C9.62 -0.13 9.62 -0.13 11.81 -0.18 C17.22 -0.22 21.18 0.15 25.81 3.19 C27.79 6.21 27.48 8.49 27 12 C25.31 14.88 25.31 14.88 22 17 C17.67 17.71 13.39 17.93 9 18 C9.14 19.63 9.29 21.25 9.44 22.88 C9.52 23.78 9.6 24.68 9.68 25.62 C10 28 10 28 11 30 C13.06 31.12 13.06 31.12 15 32 C12.24 33.38 9.95 33.1 6.88 33.06 C5.78 33.05 4.68 33.04 3.55 33.04 C2.71 33.02 1.87 33.01 1 33 C0.67 32.34 0.34 31.68 0 31 C1.32 31 2.64 31 4 31 C4 21.43 4 11.86 4 2 C2.68 1.67 1.36 1.34 0 1 C0 0.67 0 0.34 0 0 Z " fill="#467FF1" transform="translate(493,251)"/>
<path d="M0 0 C8.91 0 17.82 0 27 0 C27.98 2.93 28.08 4.96 28 8 C27.01 8 26.02 8 25 8 C25 6.35 25 4.7 25 3 C20.71 3 16.42 3 12 3 C12 6.96 12 10.92 12 15 C14.64 15 17.28 15 20 15 C20.33 13.68 20.66 12.36 21 11 C21.66 11 22.32 11 23 11 C23 14.3 23 17.6 23 21 C22.34 21 21.68 21 21 21 C20.67 20.34 20.34 19.68 20 19 C18.15 18.59 18.15 18.59 15.94 18.38 C14.64 18.25 13.34 18.13 12 18 C12 21.96 12 25.92 12 30 C16.62 30 21.24 30 26 30 C26.33 28.02 26.66 26.04 27 24 C27.66 24 28.32 24 29 24 C29 26.97 29 29.94 29 33 C19.43 33 9.86 33 0 33 C0 32.34 0 31.68 0 31 C1.32 31 2.64 31 4 31 C4 21.43 4 11.86 4 2 C2.68 2 1.36 2 0 2 C0 1.34 0 0.68 0 0 Z " fill="#CEDCFA" transform="translate(1014,338)"/>
<path d="M0 0 C2.92 2.17 3.77 3.94 4.53 7.46 C5.28 13.49 5.27 19.3 3 25 C0.75 27.65 -0.52 27.92 -3.94 28.5 C-8.03 27.83 -9.42 26.17 -12 23 C-14.08 16.75 -13.88 9.4 -11.62 3.25 C-8.68 -0.82 -4.71 -0.77 0 0 Z " fill="#FEFEFE" transform="translate(1355,341)"/>
<path d="M0 0 C11.22 0 22.44 0 34 0 C30.18 3.82 27.08 6.49 22.68 9.43 C22.38 9.62 22.38 9.62 20.9 10.62 C19.66 11.44 18.43 12.25 17.2 13.07 C15.3 14.32 13.42 15.58 11.53 16.85 C10.33 17.64 9.13 18.44 7.93 19.24 C7.38 19.6 7.38 19.6 4.63 21.43 C2 23 2 23 0 23 C0 15.41 0 7.82 0 0 Z " fill="#FBFCFE" transform="translate(1166,401)"/>
<path d="M0 0 C3.34 2.15 4.73 3.2 6 7 C6.12 9.68 6.19 12.32 6.19 15 C6.2 15.72 6.21 16.45 6.22 17.2 C6.24 21.01 6.16 22.75 4 26 C3.46 25.18 2.93 24.35 2.38 23.5 C0 21 0 21 -2.94 20.44 C-6.6 21.11 -8.32 22.48 -11 25 C-14 20 -13.49 14.64 -13 9 C-10.66 2.33 -7.29 -1.04 0 0 Z " fill="#F8FAFE" transform="translate(1272,252)"/>
<path d="M0 0 C5.61 0 11.22 0 17 0 C17 0.66 17 1.32 17 2 C15.35 2 13.7 2 12 2 C12 11.24 12 20.48 12 30 C16.62 30 21.24 30 26 30 C26.33 28.85 26.33 28.85 28 23 C28.66 23 29.32 23 30 23 C30.03 24.48 30.05 25.96 30.06 27.44 C30.07 28.26 30.09 29.08 30.1 29.93 C30 32 30 32 29 33 C26.85 33.09 24.71 33.11 22.56 33.1 C21.25 33.09 19.95 33.09 18.6 33.09 C17.21 33.08 15.83 33.07 14.44 33.06 C13.04 33.06 11.65 33.05 10.26 33.05 C6.84 33.04 3.42 33.02 0 33 C0 32.34 0 31.68 0 31 C1.32 31 2.64 31 4 31 C4 21.43 4 11.86 4 2 C2.68 2 1.36 2 0 2 C0 1.34 0 0.68 0 0 Z " fill="#CEDCFA" transform="translate(1251,338)"/>
<path d="M0 0 C2.05 1.8 2.9 3.2 3.23 5.92 C3.3 8.2 3.26 10.47 3.19 12.75 C3.18 13.15 3.18 13.15 3.15 15.15 C3.11 17.1 3.06 19.05 3 21 C3.66 21 4.32 21 5 21 C5 21.66 5 22.32 5 23 C1.71 23.06 -1.58 23.09 -4.88 23.12 C-5.34 23.13 -5.34 23.13 -7.71 23.18 C-8.16 23.18 -8.16 23.18 -10.43 23.2 C-11.26 23.21 -12.08 23.22 -12.94 23.23 C-15 23 -15 23 -17 21 C-17.55 17.94 -17.53 15.06 -17 12 C-14.71 9.63 -13.15 9.09 -9.89 8.84 C-7.92 8.82 -5.96 8.9 -4 9 C-4.33 6.69 -4.66 4.38 -5 2 C-11.75 3.75 -11.75 3.75 -14 6 C-14.33 4.35 -14.66 2.7 -15 1 C-9.5 -0.95 -5.73 -1.34 0 0 Z " fill="#CEDDFA" transform="translate(1090,348)"/>
<path d="M0 0 C0.51 -0 0.51 -0 3.06 -0.02 C6.07 0.26 8.27 0.99 11 2.25 C11 4.56 11 6.87 11 9.25 C10.34 9.25 9.68 9.25 9 9.25 C8.88 8.61 8.75 7.97 8.62 7.31 C8.42 6.63 8.21 5.95 8 5.25 C5.55 4.02 3.8 4.05 1.06 4 C0.19 3.97 -0.69 3.95 -1.59 3.92 C-4.47 4.31 -5.26 4.97 -7 7.25 C-9.61 13.16 -10.04 19.1 -7.75 25.12 C-5.9 28.43 -5.44 29.06 -2 30.25 C0.8 30.23 0.8 30.23 3.75 29.88 C4.73 29.76 5.72 29.65 6.73 29.54 C7.48 29.44 8.23 29.35 9 29.25 C9 27.6 9 25.95 9 24.25 C9.99 23.92 10.98 23.59 12 23.25 C12 25.89 12 28.53 12 31.25 C6.46 34.76 -0.71 33.8 -7 33.25 C-11.42 31.87 -14.71 29.31 -17 25.25 C-19.03 20.08 -18.46 14.62 -16.75 9.5 C-12.85 2.26 -8.12 -0.04 0 0 Z " fill="#CEDDFA" transform="translate(1316,337.75)"/>
<path d="M0 0 C3.25 2.33 4.28 4.17 5 8 C5.12 9.81 5.17 11.62 5.19 13.44 C5.2 14.36 5.22 15.29 5.23 16.25 C4.99 19.18 4.22 21.34 3 24 C-8.89 17.67 -8.89 17.67 -13 13 C-13.76 9.19 -12.43 6.13 -11.06 2.56 C-8.56 -1.12 -4 -0.58 0 0 Z " fill="#FCFDFE" transform="translate(1199,341)"/>
<path d="M0 0 C3.38 2.4 4.87 5.04 6 9 C6.25 12.19 6.25 12.19 6 15 C2.89 18.11 -0.22 17.93 -4.5 18.31 C-8.76 17.93 -10.23 17.26 -13 14 C-13.97 11.27 -14.31 8.88 -14 6 C-10.42 0.2 -6.67 -0.95 0 0 Z " fill="#F6F9FE" transform="translate(1476,248)"/>
<path d="M0 0 C3.03 2.44 4.77 5.31 6 9 C6.04 11.33 6.04 13.67 6 16 C1.45 18.62 -2.86 18.8 -8 18 C-11.12 15.94 -11.12 15.94 -13 13 C-13.69 8.7 -13.52 6.79 -11.12 3.12 C-7.57 -0.43 -4.98 -0.59 0 0 Z " fill="#F9FBFE" transform="translate(1465,537)"/>
<path d="M0 0 C14.85 0 29.7 0 45 0 C34.17 8.66 34.17 8.66 25.98 8.17 C25.23 8.14 24.48 8.12 23.72 8.09 C21.35 7.99 18.99 7.87 16.62 7.75 C15.01 7.68 13.4 7.62 11.79 7.55 C7.86 7.39 3.93 7.2 0 7 C0 4.69 0 2.38 0 0 Z " fill="#CBDAF9" transform="translate(1166,394)"/>
<path d="M0 0 C2.61 2.09 4.47 3.78 5.81 6.88 C6.08 9.92 6.06 12.94 6 16 C3.04 17.69 0.9 18.27 -2.5 18.25 C-3.25 18.26 -4.01 18.26 -4.78 18.27 C-7.26 17.97 -8.87 17.3 -11 16 C-13.3 12.78 -13.55 9.87 -13 6 C-8.97 1.23 -6.31 -0.74 0 0 Z " fill="#FAFBFE" transform="translate(1587,164)"/>
<path d="M0 0 C3.34 2.13 5.89 4.12 7 8 C6.75 11.69 6.75 11.69 6 15 C3.7 16.15 2.42 16.12 -0.13 16.1 C-0.94 16.09 -1.74 16.09 -2.57 16.09 C-3.42 16.08 -4.26 16.07 -5.12 16.06 C-5.97 16.06 -6.82 16.05 -7.7 16.05 C-9.8 16.04 -11.9 16.02 -14 16 C-13.81 7.02 -13.81 7.02 -10.56 2.94 C-6.79 0.09 -4.75 -0.47 0 0 Z " fill="#FAFCFE" transform="translate(240,444)"/>
<path d="M0 0 C0 0.99 0 1.98 0 3 C-0.55 3.12 -0.55 3.12 -3.31 3.75 C-7.25 5.08 -7.96 5.58 -10 9 C-11.58 14.79 -11.33 20.54 -9.23 26.15 C-6.95 29.58 -3.88 30.05 0 31 C0 31.66 0 32.32 0 33 C-4.07 34.36 -7.13 33.55 -11 32 C-15.08 29.51 -17.52 27.06 -19.5 22.69 C-20.3 16.78 -20 12.11 -17.44 6.69 C-12.49 1.23 -7.25 -0.6 0 0 Z " fill="#CEDCFA" transform="translate(1159,338)"/>
<path d="M0 0 C3.96 0 7.92 0 12 0 C12 0.66 12 1.32 12 2 C11.34 2 10.68 2 10 2 C10.66 3.65 11.32 5.3 12 7 C13.32 5.68 14.64 4.36 16 3 C15.67 2.01 15.34 1.02 15 0 C17.64 0 20.28 0 23 0 C23 0.66 23 1.32 23 2 C22.01 2 21.02 2 20 2 C19.86 2.31 19.86 2.31 19.12 3.88 C18 6 18 6 16 8 C16.25 12.52 18.49 15.36 21 19 C21 19.66 21 20.32 21 21 C21.99 21 22.98 21 24 21 C24 21.66 24 22.32 24 23 C20.04 23 16.08 23 12 23 C12.33 22.01 12.66 21.02 13 20 C12.06 17.31 12.06 17.31 11 15 C10.34 15 9.68 15 9 15 C7.24 18.09 7 19.23 7 23 C4.36 23 1.72 23 -1 23 C-0.04 21.87 0.92 20.75 1.88 19.62 C2.41 19 2.94 18.37 3.49 17.73 C4.61 16.44 5.79 15.21 7 14 C6.75 9.5 4.65 6.54 2 3 C1.34 2.67 0.68 2.34 0 2 C0 1.34 0 0.68 0 0 Z " fill="#CEDCFA" transform="translate(1047,348)"/>
<path d="M0 0 C4.88 0.45 7.52 1.52 11 5 C14.68 10.2 14.99 15.85 14 22 C12.85 24.25 11.54 26.17 10.05 28.21 C9 30 9 30 9.19 33.5 C9.46 34.32 9.72 35.15 10 36 C11.32 36 12.64 36 14 36 C13.12 39.88 13.12 39.88 12 41 C9.18 41.3 7.6 41.43 5.25 39.75 C3.88 37.83 3.4 36.31 3 34 C1.35 33.67 -0.3 33.34 -2 33 C-0.68 32.01 0.64 31.02 2 30 C1.12 24.25 1.12 24.25 0 22 C1.88 22.31 1.88 22.31 4 23 C4.66 23.99 5.32 24.98 6 26 C7.56 22.87 7.18 19.56 7.19 16.12 C7.2 15.4 7.21 14.68 7.22 13.94 C7.24 10.15 7.23 7.16 5 4 C2.38 1.75 2.38 1.75 0 0 Z " fill="#3F7BF0" transform="translate(1270,251)"/>
<path d="M0 0 C6.27 0 12.54 0 19 0 C19.33 0.66 19.66 1.32 20 2 C16.7 1.67 13.4 1.34 10 1 C10.33 10.57 10.66 20.14 11 30 C12.32 30.66 13.64 31.32 15 32 C9.72 32 4.44 32 -1 32 C-0.34 31.34 0.32 30.68 1 30 C2.32 30 3.64 30 5 30 C5 20.76 5 11.52 5 2 C3.35 1.67 1.7 1.34 0 1 C0 0.67 0 0.34 0 0 Z " fill="#3A77F0" transform="translate(1977,257)"/>
<path d="M0 0 C2.5 0.08 3.83 0.19 6.06 1.38 C7.67 4.49 7.48 6.88 7.06 10.31 C5.62 12.75 5.62 12.75 3.06 14.31 C0.03 14.63 -2.9 14.55 -5.94 14.31 C-5.99 12.35 -6.03 10.4 -6.06 8.44 C-6.09 7.35 -6.11 6.26 -6.13 5.13 C-5.81 0.51 -4.5 0.36 0 0 Z " fill="#F5F8FE" transform="translate(507.9375,252.6875)"/>
<path d="M0 0 C8.7 0 8.7 0 12 3 C12.56 6.27 12.3 8.25 11.06 11.31 C7.72 14.05 4.25 13.75 0 14 C0 9.38 0 4.76 0 0 Z " fill="#F6F9FE" transform="translate(1987,258)"/>
<path d="M0 0 C0.38 0.11 0.38 0.11 2.31 0.69 C1.77 5.93 0.53 10.07 -1.62 14.94 C-2.15 16.14 -2.67 17.34 -3.21 18.58 C-4.69 21.69 -4.69 21.69 -6.69 24.69 C-7.35 24.69 -8.01 24.69 -8.69 24.69 C-7.53 5 -7.53 5 -4.29 0.93 C-2.69 -0.31 -2.69 -0.31 0 0 Z " fill="#417CF0" transform="translate(2238.6875,481.3125)"/>
<path d="M0 0 C0.78 0.04 1.57 0.08 2.38 0.12 C3.65 3.68 3.12 5.47 1.57 8.86 C1.17 9.74 0.77 10.63 0.36 11.54 C-0.07 12.45 -0.5 13.37 -0.94 14.31 C-1.35 15.24 -1.77 16.17 -2.2 17.12 C-5.35 23.99 -5.35 23.99 -7.62 25.12 C-7.51 22.6 -7.38 20.08 -7.25 17.56 C-7.22 16.86 -7.19 16.15 -7.16 15.43 C-6.32 0.3 -6.32 0.3 0 0 Z " fill="#3E7AF0" transform="translate(751.625,496.875)"/>
<path d="M0 0 C-0.69 9.34 -4.17 17.07 -9 25 C-9.33 25 -9.66 25 -10 25 C-10.73 6.57 -10.73 6.57 -6.59 1.16 C-4.37 -0.46 -2.68 -0.22 0 0 Z " fill="#3D79F0" transform="translate(1512,497)"/>
<path d="M0 0 C6.81 4.44 13.59 8.98 20 14 C20 14.33 20 14.66 20 15 C14.96 15.36 11.15 15.58 6.56 13.25 C1.76 9.03 0.62 6.46 0 0 Z " fill="#CBDAFA" transform="translate(1178,356)"/>
<path d="M0 0 C2.64 0 5.28 0 8 0 C8 0.66 8 1.32 8 2 C7.67 2.17 7.67 2.17 6 3 C5.59 5.29 5.59 5.29 5.38 8.06 C5.3 8.98 5.23 9.9 5.15 10.85 C5.1 11.56 5.05 12.27 5 13 C3.35 13.33 1.7 13.66 0 14 C0 9.38 0 4.76 0 0 Z " fill="#CEDCFA" transform="translate(1166,356)"/>
<path d="M0 0 C3.59 4.3 4.52 8.65 6 14 C2.7 14 -0.6 14 -4 14 C-3.22 9.15 -1.6 4.62 0 0 Z " fill="#FDFDFE" transform="translate(1229,343)"/>
<path d="M0 0 C2.44 1.44 2.44 1.44 3.31 4.5 C3.35 5.47 3.39 6.44 3.44 7.44 C2.44 8.44 2.44 8.44 -0.5 8.69 C-1.51 8.61 -2.52 8.52 -3.56 8.44 C-5.56 5.44 -5.56 5.44 -5.31 2.81 C-5.07 2.03 -4.82 1.25 -4.56 0.44 C-2.56 -0.56 -2.56 -0.56 0 0 Z " fill="#F6F9FE" transform="translate(1269.5625,273.5625)"/>
<path d="M0 0 C1.32 0 2.64 0 4 0 C4 2.97 4 5.94 4 9 C2.02 9 0.04 9 -2 9 C-2.12 5.62 -2.12 5.62 -2 2 C-1.34 1.34 -0.68 0.68 0 0 Z " fill="#FBFCFE" transform="translate(1082,359)"/>
<path d="M0 0 C3.88 0.88 3.88 0.88 5 2 C5.12 4.5 5.12 4.5 5 7 C4 8 4 8 1.44 8.06 C0.63 8.04 -0.17 8.02 -1 8 C-1.66 6.68 -2.32 5.36 -3 4 C-2.01 2.68 -1.02 1.36 0 0 Z " fill="#CEDCFA" transform="translate(1288,363)"/>
<path d="M0 0 C3.3 0 6.6 0 10 0 C9.67 0.17 9.67 0.17 8 1 C8 1.66 8 2.32 8 3 C6.02 3 4.04 3 2 3 C2 2.34 2 1.68 2 1 C1.34 0.67 0.68 0.34 0 0 Z " fill="#D6E2FB" transform="translate(1190,338)"/>
<path d="M0 0 C1.98 0 3.96 0 6 0 C5.67 0.99 5.34 1.98 5 3 C3.35 3 1.7 3 0 3 C0 2.01 0 1.02 0 0 Z " fill="#5188F2" transform="translate(1933,267)"/>
<path d="M0 0 C0 0.66 0 1.32 0 2 C-1.65 2 -3.3 2 -5 2 C-5.33 1.34 -5.66 0.68 -6 0 C-3.51 -1.25 -2.59 -0.78 0 0 Z " fill="#6192F3" transform="translate(2318,191)"/>
<path d="M0 0 C0.99 0 1.98 0 3 0 C3 1.98 3 3.96 3 6 C2.01 5.34 1.02 4.68 0 4 C0 2.68 0 1.36 0 0 Z " fill="#5A8DF2" transform="translate(1491,560)"/>
<path d="M0 0 C0 0.66 0 1.32 0 2 C-1.65 2 -3.3 2 -5 2 C-5.33 1.34 -5.66 0.68 -6 0 C-3 -1 -3 -1 0 0 Z " fill="#598DF2" transform="translate(2178,257)"/>
<path d="M0 0 C0.83 0.33 0.83 0.33 5 2 C5 2.66 5 3.32 5 4 C3.06 3.69 3.06 3.69 1 3 C0.67 2.01 0.34 1.02 0 0 Z " fill="#F2F6FD" transform="translate(1189,365)"/>
<path d="M0 0 C0.99 0.33 1.98 0.66 3 1 C2.67 1.66 2.34 2.32 2 3 C1.34 3 0.68 3 0 3 C0 2.01 0 1.02 0 0 Z " fill="#6595F3" transform="translate(2192,539)"/>
</svg>
