<?xml version="1.0" encoding="UTF-8"?>
<svg xmlns="http://www.w3.org/2000/svg" viewBox="0 0 600 319" width="600" height="319" shape-rendering="geometricPrecision">
<path d="M188.33 306.88C188.33 306.42 188.48 305.95 188.67 305.83C188.86 305.71 189 303.81 189 301.26C189 297.72 188.9 296.77 188.47 296.3C187.41 295.13 188.18 294.9 192.27 295.15C196.36 295.4 197.29 295.74 197.95 297.19C198.45 298.28 198.49 298.13 197.29 299.5L196.24 300.7L197.45 301.81C199.07 303.29 199.09 304.55 197.53 306.25L196.39 307.5L192.36 307.61L188.33 307.72L188.33 306.88ZM326.12 307.18C326.02 306.89 326.11 306.44 326.33 306.18C326.86 305.53 326.9 297.1 326.37 296.57C326.17 296.37 326 295.94 326 295.62C326 295.09 326.43 295.03 330.62 295.05C333.17 295.07 335.39 295.17 335.57 295.29C336.09 295.63 336.34 297.53 335.91 297.95C335.63 298.24 335.28 298.09 334.52 297.35C333.75 296.61 333.13 296.34 332 296.27L330.5 296.17L330.4 298.25C330.29 300.6 330.77 300.99 331.94 299.5C332.81 298.4 333.23 298.45 333.51 299.7C333.76 300.84 333.44 303.56 333.03 303.81C332.89 303.9 332.44 303.53 332.04 302.99C330.77 301.26 330.26 301.66 330.4 304.25C330.47 305.49 330.6 306.72 330.68 307C330.91 307.75 326.41 307.93 326.12 307.18ZM195.04 304.89C195.12 303.37 194.94 302.81 194.13 302.08C192.69 300.78 192.33 301.07 192.33 303.52C192.33 304.73 192.49 306.01 192.68 306.37C193.03 307.01 193.05 307.01 194.02 306.32C194.56 305.94 195.02 305.29 195.04 304.89ZM194 299.67C194.85 298.82 194.86 297.27 194.01 296.51C192.92 295.52 192.33 296.07 192.33 298.1C192.33 300.5 192.76 300.91 194 299.67ZM180.83 285.37C179.34 284.98 177.26 283.83 176.45 282.95C176.05 282.52 175.3 281.27 174.77 280.17L173.82 278.17L172.16 278.14C168.13 278.07 161.03 276.99 155.75 275.64C132.76 269.78 110.38 252.96 96.84 231.37C93.81 226.53 90.61 220.01 88.7 214.77C87.31 210.93 86.99 209.85 86.11 205.83C85.41 202.68 85.29 202.57 82.94 202.84L81 203.07L81 202.08C81 201.53 81.28 200.43 81.62 199.63C81.96 198.82 82.81 196.69 83.51 194.88C84.65 191.94 84.74 191.53 84.32 190.88C84.07 190.49 83.52 189.49 83.11 188.67C80.99 184.44 83.45 178.52 87.83 177.27C89.45 176.8 90.16 176.24 90.62 175.06C91.73 172.17 97.43 157.72 97.68 157.17C97.84 156.8 99.86 151.7 102.17 145.83C104.47 139.97 106.5 134.87 106.67 134.5C107.14 133.45 110.33 125.32 110.33 125.14C110.33 125.06 109.51 124.63 108.5 124.18C106.38 123.24 106.13 122.47 107.58 121.33C108.09 120.94 109.97 119.26 111.77 117.6C114.66 114.93 114.98 114.53 114.57 114.04C112.87 112.03 112.43 107.57 113.7 105.16C114.78 103.12 116.29 101.73 118.25 101C120.62 100.11 122.29 100.16 124.86 101.19L127 102.05L132.25 99.31C135.14 97.81 138.4 96.09 139.5 95.5C140.6 94.91 143.85 93.21 146.72 91.72C149.59 90.24 152.74 88.59 153.72 88.06C154.7 87.54 157.18 86.24 159.24 85.18C161.3 84.12 163.12 83.09 163.3 82.88C163.5 82.63 163.33 81.9 162.78 80.75C162.33 79.8 162.05 78.86 162.16 78.67C162.29 78.47 164.49 78.33 167.81 78.33C173.67 78.33 173.75 78.31 174.18 76.5C175.56 70.66 181.91 68.08 187.22 71.18C188.78 72.09 190.53 74.28 190.84 75.71C191.18 77.25 190.55 77.23 200 75.98C202.85 75.61 208.99 74.84 214.83 74.13C217.03 73.87 220.56 73.43 222.67 73.17C224.78 72.91 227.78 72.54 229.33 72.35C230.89 72.17 233.29 71.86 234.67 71.67C236.04 71.48 240.92 70.88 245.5 70.33C250.08 69.79 254.36 69.27 255 69.18C257.77 68.8 267.17 67.6 271 67.14C273.29 66.86 276.89 66.41 279 66.14C281.11 65.87 284.11 65.51 285.67 65.34C287.22 65.16 289.62 64.87 291 64.68C292.38 64.49 294.85 64.17 296.5 63.97C300.29 63.53 300.68 63.21 300.43 60.81C300.26 59.19 300.31 59 300.87 59C301.22 59.01 303.66 59.76 306.3 60.67C311.49 62.48 311.77 62.47 312.14 60.57C312.43 59.15 313.93 57.02 315.31 56.09C317.35 54.71 320.7 54.25 322.96 55.04C324.17 55.46 325 55.02 325 53.96C325 52.19 327.45 46.8 329.45 44.17C338.54 32.21 356.94 23.04 377.67 20.14C392.45 18.06 406.28 20.3 419.44 26.88C431.03 32.68 441.57 42.06 447.3 51.67C448.93 54.39 451.16 58.95 451.47 60.15C451.71 61.14 451.55 61.13 455.08 60.43C456.43 60.16 456.55 61 455.58 63.94C454.11 68.41 453.57 70.34 453.74 70.52C453.83 70.61 454.34 70.52 454.87 70.31C455.4 70.1 456.75 69.92 457.87 69.9C461.35 69.86 464.29 71.75 466.01 75.13C466.76 76.62 466.61 80.19 465.73 81.9C465.33 82.68 465 83.48 465 83.69C465 83.9 466.07 86.19 467.38 88.79C470.98 95.92 483.25 120.07 494.17 141.5C496.6 146.27 500.72 154.37 503.33 159.5C505.95 164.63 509.99 172.58 512.33 177.17C514.66 181.75 519.54 191.35 523.17 198.5C526.79 205.65 529.89 211.64 530.04 211.81C530.21 212 530.97 211.81 531.97 211.35C534.63 210.1 534.64 210.12 534.74 216.74L534.83 222.5L536.5 222.91C542.84 224.48 545.06 231.78 540.7 236.74C538.17 239.62 534.27 240.42 530.65 238.8C528.34 237.76 529.72 237.58 510.5 241.49C503.53 242.91 496.71 244.29 495.33 244.56C492.73 245.06 489.35 245.73 485.67 246.48C484.47 246.73 482.3 247.16 480.83 247.44C477.07 248.18 457.01 252.21 454 252.84C452.62 253.13 450.75 253.51 449.83 253.68C448.92 253.86 446.97 254.24 445.5 254.53C444.03 254.82 441.86 255.26 440.67 255.49C439.47 255.72 431.68 257.3 423.33 259C414.99 260.69 407.12 262.28 405.83 262.53C404.55 262.77 402.3 263.22 400.83 263.52C399.37 263.82 397.19 264.25 396 264.49C394.81 264.72 388.96 265.89 383 267.08C377.04 268.28 371.42 269.4 370.5 269.59C369.58 269.77 365.38 270.63 361.17 271.5C356.95 272.36 353.12 273.15 352.67 273.24C352.21 273.33 349.58 273.84 346.83 274.38C344.08 274.91 341.48 275.43 341.04 275.53C340.28 275.69 340.25 275.79 340.45 277.65C340.72 280.31 340.32 280.65 337.73 279.88C336.69 279.57 335.31 279.18 334.67 279.01C334.02 278.84 332.64 278.45 331.6 278.14C330.55 277.84 329.5 277.66 329.26 277.75C329.02 277.84 328.64 278.61 328.41 279.47C327.78 281.82 325.09 284.44 322.54 285.17C320.18 285.85 318.52 285.66 316.27 284.43C313.4 282.87 312 280.34 312 276.73C312 274.84 312.18 274.08 313.02 272.4L314.04 270.35L311.18 265.78C309.6 263.26 308.35 260.97 308.41 260.69C308.48 260.32 308.97 260.14 310.05 260.07C312.6 259.9 312.67 259.69 312.13 253.67C311.4 245.44 310.69 237.59 310.17 231.83C309.9 228.9 309.45 223.95 309.18 220.83C308.37 211.77 307.72 204.64 307.52 202.67C307.27 200.22 306.48 191.56 305.83 184.17C305.24 177.36 304.42 168.45 304.13 165.55C303.94 163.68 303.88 163.58 302.71 163.13C302.05 162.86 301.27 162.5 301 162.32C299.97 161.65 299.59 161.58 299.31 162.03C299.15 162.29 298.39 164.45 297.62 166.83C296.84 169.22 295.94 171.46 295.61 171.82C295.01 172.47 294.99 172.46 293.71 171.21C292.85 170.37 292.17 169.98 291.7 170.05C291.29 170.12 269.9 191.26 240.33 220.83C212.47 248.69 189.67 271.52 189.67 271.55C189.67 271.58 190.04 272.4 190.5 273.38C191.51 275.56 191.57 277.72 190.69 279.78C189.88 281.66 187.92 283.86 186.32 284.67C184.89 285.41 182.25 285.74 180.83 285.37ZM184.25 283.28C186.12 282.81 188.39 280.69 189 278.85C189.95 275.94 188.53 272.61 185.67 271.08C182.99 269.64 179.17 270.42 177.32 272.77C176.43 273.91 175.93 277.2 176.39 278.87C176.83 280.48 178.84 282.58 180.5 283.17C182.16 283.75 182.35 283.76 184.25 283.28ZM321.83 283.3C322.57 283.1 323.66 282.56 324.25 282.11C325.64 281.07 327 278.4 326.99 276.76C326.98 274.95 325.69 272.67 324.03 271.5C322.76 270.61 322.34 270.5 320.17 270.5C317.95 270.5 317.61 270.59 316.45 271.52C314.92 272.74 313.7 275.03 313.68 276.72C313.65 279.38 315.68 282.28 318.21 283.18C319.8 283.74 320.16 283.76 321.83 283.3ZM174.64 273.61C175.43 272.04 175.57 271.48 175.25 271.28C175.02 271.13 172.7 270.31 170.08 269.46C165.61 268 165.33 267.86 165.33 267.05C165.33 266.52 165.78 265.73 166.52 264.98L167.71 263.76L132.18 228.3C106.59 202.75 96.41 192.8 95.8 192.73C95.34 192.67 94.77 192.78 94.53 192.98C93.77 193.61 90.72 194.01 89.23 193.68C88.47 193.51 87.79 193.43 87.72 193.5C87.65 193.57 88.59 195.22 89.8 197.17C91.01 199.12 92 200.9 92 201.12C92 201.92 91.18 202.33 89.57 202.33L87.94 202.33L88.16 203.75C88.69 207.13 90.62 213.32 92.6 218C103.88 244.67 130.36 267.24 157.83 273.6C164.04 275.03 167.29 275.5 171.89 275.62L173.61 275.67L174.64 273.61ZM333.57 272.11L337.76 268.88L338.35 269.61C338.68 270.01 339.04 270.93 339.17 271.67C339.29 272.4 339.5 273.06 339.63 273.14C339.76 273.22 343.91 272.47 348.85 271.47C353.79 270.47 359.03 269.42 360.5 269.14C361.97 268.85 364.14 268.42 365.33 268.17C367.58 267.71 371.59 266.91 375.33 266.18C376.52 265.94 386.57 263.91 397.67 261.67C408.76 259.43 418.88 257.39 420.17 257.14C421.45 256.9 423.55 256.48 424.83 256.22C426.12 255.96 429.94 255.19 433.33 254.51C438.83 253.42 442.19 252.74 450.17 251.11C451.45 250.85 453.55 250.44 454.83 250.19C456.12 249.94 458.44 249.48 460 249.17C461.56 248.86 463.81 248.41 465 248.18C466.19 247.94 472.87 246.59 479.83 245.17C486.8 243.75 493.47 242.4 494.67 242.16C495.86 241.92 497.96 241.5 499.33 241.23C502.13 240.67 506.4 239.82 509.67 239.18C522.14 236.71 526.22 235.85 526.54 235.61C526.82 235.4 526.8 234.99 526.47 234.08C526.23 233.39 526.02 232.55 526.01 232.2C526 231.5 526.46 231.49 518.5 232.46C513.88 233.02 513.54 232.85 514.42 230.37C514.74 229.47 515 228.67 515 228.59C515 228.34 509.63 226.22 506.81 225.36C506.27 225.19 504.33 224.51 502.5 223.85C500.67 223.18 497.52 222.06 495.5 221.35C493.48 220.64 489.88 219.36 487.5 218.5C485.12 217.64 481.97 216.52 480.5 216C479.03 215.48 475.28 214.13 472.17 213C469.05 211.86 465.9 210.73 465.17 210.49C463.92 210.08 461.71 209.29 451.08 205.47C448.75 204.63 444.96 203.29 442.67 202.48C440.38 201.68 437.22 200.55 435.67 199.98C434.11 199.41 431.63 198.52 430.17 198C428.7 197.49 425.55 196.36 423.17 195.5C420.78 194.65 416.36 193.07 413.33 192C410.31 190.92 405.88 189.35 403.5 188.49C401.12 187.63 397.97 186.51 396.5 185.99C395.03 185.47 392.33 184.5 390.5 183.84C388.67 183.17 386.12 182.27 384.83 181.84C383.55 181.41 380.62 180.35 378.33 179.49C376.04 178.64 373.57 177.74 372.83 177.5C370.42 176.72 356.22 171.68 354.5 171C353.88 170.75 351.31 169.83 344 167.25C342.44 166.7 339.59 165.68 337.67 164.98C335.74 164.28 332.22 163.01 329.83 162.17C323.94 160.09 319.27 158.42 316.66 157.46C313.85 156.43 313.59 156.46 313.03 157.75C312.15 159.81 310.38 161.61 308.34 162.55L306.37 163.46L306.54 165.64C306.63 166.85 306.84 168.81 307.01 170C307.17 171.19 307.39 173.59 307.5 175.33C307.61 177.07 307.84 179.78 308.01 181.33C308.18 182.89 308.56 186.87 308.84 190.17C309.12 193.47 309.57 198.49 309.83 201.33C310.1 204.17 310.54 208.97 310.81 212C311.72 221.99 312.31 228.45 312.68 232.33C313.33 239.25 314 246.74 314.47 252.5C314.73 255.62 315.04 258.43 315.17 258.75C315.36 259.21 315.81 259.33 317.35 259.33C318.42 259.33 319.38 259.47 319.49 259.65C319.68 259.96 317.73 265.38 316.82 267.05C316.07 268.42 316.18 269.13 317.08 268.84C317.5 268.71 318.69 268.53 319.75 268.43C323.38 268.1 327.37 270.66 328.36 273.97C328.59 274.72 328.91 275.33 329.07 275.33C329.24 275.33 331.26 273.88 333.57 272.11ZM179.11 269.07C181.17 268.13 183.74 268.1 185.85 269.01C186.72 269.38 187.67 269.6 187.96 269.51C188.26 269.41 211.37 246.46 239.33 218.51L290.15 167.68L288.7 166.2C287.9 165.38 287.32 164.52 287.41 164.27C287.51 164.02 289.77 163.11 292.43 162.23C295.1 161.35 297.43 160.45 297.62 160.22C298.06 159.69 296.52 156.33 295.84 156.33C295.58 156.33 293.94 157.35 292.18 158.58C287.89 161.6 287.08 162.09 286.69 161.84C286.5 161.73 286.25 160.88 286.13 159.96C286 158.99 285.71 158.2 285.44 158.1C284.95 157.91 282.4 158.26 269 160.35C266.52 160.74 263.11 161.26 261.42 161.53C259.72 161.79 256.87 162.23 255.08 162.51C253.3 162.79 250.41 163.23 248.67 163.5C245.31 164 240.16 164.79 236.83 165.31C234.5 165.67 226.4 166.91 223.5 167.35C222.4 167.51 219.47 167.96 217 168.34C206.19 170.02 202.66 170.56 197.5 171.31C196.22 171.5 194.34 171.8 193.33 171.98C192.32 172.16 190 172.53 188.17 172.81C186.33 173.08 181.83 173.77 178.17 174.33C174.5 174.89 170 175.58 168.17 175.86C166.33 176.13 163.86 176.52 162.67 176.71C161.47 176.9 159.07 177.28 157.33 177.54C153.78 178.08 148.98 178.81 144.5 179.5C142.85 179.75 140.38 180.12 139 180.32C137.62 180.51 135.67 180.82 134.67 181C133.66 181.18 130.81 181.63 128.33 182C125.86 182.37 122.93 182.82 121.83 183C120.73 183.18 117.28 183.72 114.17 184.19C111.05 184.67 107.08 185.28 105.33 185.54C103.59 185.81 101.56 186.11 100.82 186.22C99.53 186.4 99.45 186.48 98.75 188.38C98.36 189.47 98.1 190.55 98.19 190.77C98.28 191 114.37 207.11 133.96 226.57L169.57 261.96L170.87 260.63C172.94 258.51 173.22 258.75 175.05 264.17C175.91 266.73 176.69 269.11 176.79 269.45C176.88 269.79 177.08 270.01 177.23 269.94C177.38 269.86 178.22 269.47 179.11 269.07ZM96.38 261.64C95.94 261.23 95.67 260.64 95.73 260.22C95.89 259.11 97.4 259.1 98.82 260.18C100.15 261.19 100.64 261.13 101.32 259.86C101.97 258.64 101.46 257.37 99.91 256.36C98.45 255.42 98.36 254.84 99.5 253.94C101.31 252.51 99.94 250.49 97.69 251.27C96.9 251.55 96.67 251.54 96.67 251.21C96.67 250.36 98.28 249.26 99.73 249.11C101.43 248.95 102.61 249.49 103.32 250.75C103.78 251.57 103.77 251.75 103.22 252.77C102.62 253.89 102.62 253.9 103.48 255.16C103.95 255.86 104.33 256.79 104.33 257.23C104.33 260.62 98.66 263.76 96.38 261.64ZM418.23 252.43C417.54 252.25 416.93 250.91 417.21 250.17C417.48 249.47 418.78 249.54 420.08 250.33C421.45 251.17 422.07 251.17 422.82 250.35C423.72 249.36 423.25 248.14 421.67 247.34C420.95 246.97 420.01 246.67 419.58 246.67C419.15 246.67 418.53 246.47 418.21 246.24C417.69 245.86 417.66 245.62 418.01 244.15C418.22 243.24 418.63 241.86 418.92 241.07L419.43 239.64L422.3 239.74C424.76 239.82 425.18 239.92 425.28 240.44C425.52 241.71 424.41 242.33 421.92 242.33C419.96 242.33 419.63 242.42 419.73 242.88C419.79 243.22 420.45 243.58 421.49 243.85C424.09 244.51 425.72 246.74 425.18 248.9C424.92 249.92 422.96 251.9 421.76 252.36C420.93 252.68 419.29 252.71 418.23 252.43ZM558.08 246.45C557.52 246.22 557.56 245.5 558.17 245C558.57 244.67 558.67 243.66 558.67 239.96L558.67 235.33L557.72 235.33C557.15 235.33 556.48 235.66 556 236.17C554.9 237.34 554.61 237.21 554.73 235.58L554.83 234.17L560.12 234.07C565.97 233.97 566.33 234.08 566.33 235.85C566.33 237.43 565.9 237.5 564.57 236.17C562.48 234.08 562.33 234.33 562.33 239.93C562.33 243.43 562.45 244.99 562.75 245.29C563.44 245.98 562.13 246.67 560.19 246.64C559.26 246.63 558.31 246.54 558.08 246.45ZM537.82 236.65C538.48 236.2 539.47 235.17 540.01 234.36C540.81 233.16 541 232.53 541 231.02C541 228.53 539.38 226.12 537.04 225.14C533.41 223.61 529.26 225.48 528.16 229.15C527.24 232.18 528.94 235.91 531.83 237.22C533.36 237.92 536.35 237.63 537.82 236.65ZM142.78 231.19C141.59 230.67 141.08 229.55 141.68 228.82C142.26 228.12 142.78 228.21 144.57 229.35L146.17 230.36L146.77 229.62C147.15 229.15 147.33 228.47 147.27 227.7C147.18 226.73 146.91 226.35 145.75 225.57C144.97 225.05 144.33 224.5 144.33 224.36C144.33 224.22 144.78 223.63 145.33 223.05C146.46 221.87 146.51 221.7 145.89 220.86C145.55 220.39 145.12 220.28 144.06 220.38C142.45 220.54 142.2 220 143.42 218.98C143.95 218.53 144.71 218.35 146.06 218.34C147.71 218.33 148.04 218.44 148.64 219.21C149.37 220.14 149.56 221.49 149 221.83C148.47 222.16 148.61 223.22 149.33 224.41C149.7 225.01 150 225.95 150 226.5C150 229.53 145.55 232.43 142.78 231.19ZM319.06 230.8C318.52 230.43 318.33 230 318.4 229.38C318.53 228.22 319.54 228.08 321.29 228.98C323.03 229.87 323.53 229.85 324.18 228.86C325.14 227.39 323.68 225.91 320.78 225.41L319.17 225.14L319.24 223.68C319.27 222.88 319.41 221.99 319.54 221.7C319.68 221.4 319.95 220.57 320.14 219.83L320.5 218.5L323.11 218.4C326.63 218.27 327.46 218.91 325.85 220.52C325.14 221.22 324.72 221.33 322.82 221.33C321.2 221.33 320.65 221.44 320.75 221.75C320.83 221.98 321.18 222.21 321.53 222.26C325.8 222.92 327.75 226.25 325.56 229.12C325.05 229.79 324.43 230.33 324.19 230.33C323.95 230.33 323.56 230.56 323.33 230.83C322.77 231.51 320.04 231.49 319.06 230.8ZM526.51 227.78C526.97 226.75 527.29 225.84 527.22 225.77C527.15 225.7 526.28 225.51 525.3 225.35C524.31 225.19 523.09 224.95 522.58 224.83C521.16 224.47 521.43 225.2 523.58 227.52C524.64 228.66 525.54 229.61 525.59 229.63C525.64 229.65 526.05 228.82 526.51 227.78ZM515.99 225.51C516.22 225.24 516.43 224.43 516.47 223.71C516.51 222.88 516.86 221.97 517.43 221.22C517.93 220.57 518.33 219.89 518.33 219.69C518.33 219.39 512.18 214.73 489.5 197.89C486.93 195.98 478.91 190.02 471.66 184.63C464.42 179.24 456.17 173.11 453.33 171.01C450.49 168.91 444.64 164.57 440.33 161.37C436.02 158.17 428.85 152.84 424.38 149.53C419.92 146.21 412.64 140.8 408.21 137.5C403.77 134.2 396.7 128.94 392.49 125.82C388.28 122.69 378.31 115.28 370.33 109.35C362.36 103.43 354.03 97.25 351.83 95.62C349.63 93.99 342.09 88.39 335.07 83.16C328.05 77.94 322.17 73.67 321.99 73.67C321.55 73.67 321.57 73.86 322.37 76.86C323.64 81.61 323.77 82.26 323.56 82.8C323.32 83.41 322.13 83.49 320.8 82.99C320.11 82.73 319.78 82.75 319.46 83.07C319.1 83.43 315.92 98.24 314.49 106.17C314.26 107.45 313.06 113.45 311.83 119.5C310.59 125.55 309.46 131.1 309.32 131.83C309.01 133.48 308.1 138.04 307.46 141.17C306.42 146.31 306.32 145.77 308.65 147.02C311 148.27 312.43 149.82 313.22 152C313.53 152.82 313.88 153.62 314 153.76C314.19 153.98 318.41 155.55 327.17 158.66C328.63 159.18 332.01 160.38 334.67 161.33C337.32 162.29 339.88 163.19 340.33 163.34C340.79 163.49 343.72 164.53 346.83 165.66C349.95 166.79 354.97 168.59 358 169.66C361.02 170.73 365.45 172.31 367.83 173.17C370.22 174.03 372.77 174.93 373.5 175.18C374.23 175.43 376.11 176.1 377.67 176.68C379.22 177.27 381.1 177.94 381.83 178.18C382.57 178.42 385.72 179.54 388.83 180.68C391.95 181.81 395.1 182.93 395.83 183.18C396.57 183.42 399.12 184.32 401.5 185.18C403.88 186.04 406.43 186.94 407.17 187.18C407.9 187.43 409.77 188.1 411.33 188.68C412.89 189.26 415.37 190.16 416.83 190.67C418.3 191.19 421.45 192.31 423.83 193.17C426.22 194.02 428.62 194.88 429.17 195.06C429.72 195.25 431.74 195.97 433.67 196.66C435.59 197.35 438.74 198.48 440.67 199.17C442.59 199.85 444.64 200.62 445.22 200.87C445.79 201.13 446.38 201.33 446.53 201.33C446.67 201.33 448 201.77 449.48 202.3C450.96 202.84 453.52 203.75 455.17 204.33C456.82 204.91 459.74 205.96 461.67 206.66C463.59 207.35 466.74 208.48 468.67 209.16C470.59 209.84 472.69 210.6 473.33 210.85C473.97 211.09 477.12 212.21 480.33 213.33C483.54 214.45 486.69 215.57 487.33 215.82C488.49 216.28 491.42 217.33 497.17 219.34C506.22 222.51 514.15 225.38 514.67 225.68C515.38 226.08 515.53 226.06 515.99 225.51ZM530.62 223.49C531.62 222.99 532.23 222.48 532.13 222.24C531.98 221.88 526.33 217.7 525.56 217.38C525.4 217.31 525.32 217.46 525.39 217.71C525.55 218.35 528.64 224.33 528.81 224.33C528.88 224.33 529.7 223.95 530.62 223.49ZM521.41 215.82C522.15 214.77 522.63 214.38 522.99 214.53C524.28 215.09 524.99 215.01 526.29 214.19C527.05 213.72 527.67 213.17 527.67 212.98C527.67 212.79 525.89 209.15 523.71 204.9C521.53 200.65 517.39 192.52 514.5 186.83C506.72 171.51 499.43 157.18 494.83 148.17C492.59 143.77 488.39 135.52 485.5 129.83C482.61 124.15 478.49 116.05 476.33 111.83C474.17 107.62 470.35 100.12 467.84 95.17C465.33 90.22 463.14 86.03 462.98 85.86C462.81 85.68 462.12 85.81 461.27 86.19C459.1 87.18 455.87 87.05 453.92 85.9C452.02 84.79 450.55 83.05 450.03 81.3C449.55 79.71 448.78 79.33 446.03 79.33C444.97 79.33 442.92 79.18 441.47 79C440.02 78.82 436.51 78.51 433.67 78.31C427.81 77.9 419.78 77.29 410.5 76.54C407.02 76.26 402.22 75.87 399.83 75.68C397.45 75.49 392.72 75.11 389.33 74.84C375.86 73.75 370.55 73.33 364 72.84C360.24 72.56 355.67 72.18 353.83 72C352 71.82 348.93 71.59 347 71.49C345.07 71.39 342.25 71.15 340.73 70.95C339.21 70.75 337.86 70.7 337.73 70.82C337.61 70.95 337.43 71.9 337.34 72.94C337.21 74.36 337.03 74.85 336.61 74.93C336.12 75.03 330.86 72.09 328.28 70.29C327.8 69.95 327 69.67 326.52 69.67C325.67 69.67 323.67 70.87 323.67 71.38C323.67 71.66 325.18 72.82 335.01 80.1C338.77 82.89 345.29 87.73 349.51 90.86C353.72 93.99 359.79 98.5 363 100.87C366.21 103.25 372.96 108.27 377.99 112.02C386.48 118.34 388.53 119.86 395.83 125.28C403.02 130.62 422.96 145.42 426.5 148.05C428.7 149.68 434.47 153.98 439.33 157.59C444.19 161.21 451.69 166.78 456 169.97C460.31 173.16 469.61 180.07 476.67 185.31C483.72 190.56 491.73 196.5 494.45 198.51C497.17 200.52 503.92 205.57 509.45 209.72C514.98 213.87 519.69 217.29 519.92 217.3C520.16 217.32 520.83 216.65 521.41 215.82ZM238.5 215.68C238.12 215.54 237.76 215.02 237.66 214.47C237.5 213.55 237.4 213.5 235.58 213.4C233.48 213.29 232.77 212.64 233.14 211.17C233.52 209.63 238.24 203.11 239.15 202.87C240.39 202.54 240.67 203.23 240.67 206.66C240.67 209.41 240.77 210.04 241.33 210.76C242.16 211.81 242.16 212.08 241.35 212.82C241 213.14 240.66 213.78 240.6 214.25C240.48 215.29 239.41 216.02 238.5 215.68ZM237.27 210.27C237.49 210.05 237.67 209.3 237.67 208.6C237.67 207.61 237.54 207.34 237.08 207.34C236.4 207.36 235.46 208.54 235.15 209.79C234.95 210.59 235.02 210.67 235.9 210.67C236.43 210.67 237.05 210.49 237.27 210.27ZM93.06 191.37C95.79 190.18 97.33 187.93 97.33 185.12C97.33 183.3 97.2 182.88 96.25 181.61C94.05 178.7 90.8 177.94 87.65 179.59C85.22 180.85 84.23 182.67 84.4 185.54C84.56 188.17 85.7 189.99 87.92 191.15C89.84 192.14 91.15 192.2 93.06 191.37ZM65.47 185.36C65.4 185.28 65.33 184.35 65.33 183.28C65.33 181.06 65.96 180.63 66.68 182.35C67.08 183.33 68.89 185 69.54 185C69.72 185 70.36 184.58 70.98 184.07C71.97 183.24 72.05 183.05 71.7 182.4C71.49 182 70.59 181.3 69.7 180.85C67.36 179.66 66.06 178.45 65.64 177.04C64.82 174.3 67.13 171.99 70.17 172.51C70.9 172.63 72.02 172.76 72.67 172.78C73.77 172.83 73.84 172.9 73.94 174.12C74.13 176.49 73.81 176.62 72.03 174.87C70.74 173.59 70.23 173.3 69.47 173.39C68.78 173.47 68.42 173.75 68.2 174.41C67.79 175.56 68.47 176.37 70.82 177.54C73.53 178.89 74.33 179.85 74.33 181.69C74.33 183.1 74.2 183.38 72.98 184.48L71.63 185.7L68.62 185.6C66.97 185.55 65.55 185.44 65.47 185.36ZM311.75 185.4C310.2 185.29 310.07 185.05 310.85 183.85C311.27 183.21 311.35 182.26 311.24 178.78C311.16 176.43 310.98 174.06 310.83 173.53L310.57 172.56L314.47 172.78C319.26 173.06 320.66 173.71 321.98 176.28C322.96 178.16 322.35 181.58 320.71 183.45C319.35 185 316.07 185.71 311.75 185.4ZM317.4 183.42C319.71 180.94 319.27 175.63 316.63 174.08C314.84 173.03 314.67 173.47 314.67 178.93C314.67 181.66 314.77 183.99 314.89 184.11C315.39 184.61 316.59 184.28 317.4 183.42ZM104.89 183.14C106.69 182.87 109.59 182.43 111.33 182.15C113.08 181.87 115.92 181.43 117.67 181.17C119.41 180.91 121.81 180.54 123 180.36C124.19 180.17 127.19 179.71 129.67 179.33C132.14 178.94 135.59 178.41 137.33 178.14C139.07 177.87 141.47 177.51 142.67 177.33C143.86 177.16 146.78 176.71 149.17 176.33C151.55 175.95 155 175.41 156.83 175.14C158.67 174.86 161.52 174.42 163.17 174.17C164.82 173.91 167.67 173.47 169.5 173.2C175.37 172.32 179.41 171.7 182.83 171.15C184.67 170.86 187.07 170.49 188.17 170.32C189.27 170.16 192.19 169.71 194.67 169.32C201.16 168.31 205.07 167.72 208.67 167.18C210.41 166.92 213.33 166.47 215.17 166.18C217 165.89 219.92 165.44 221.67 165.18C223.41 164.92 226.26 164.49 228 164.22C232.16 163.57 241.4 162.14 246.83 161.3C252.91 160.35 256.96 159.73 260.83 159.14C262.67 158.86 265.52 158.42 267.17 158.16C271.03 157.57 275.88 156.84 280.5 156.16C285 155.5 285.35 155.25 285.09 152.81C284.92 151.17 284.97 151 285.56 151C286.25 151 289.11 151.83 293.28 153.24C294.96 153.8 295.84 153.96 296.08 153.72C296.54 153.26 297.65 149.92 297.45 149.59C297.37 149.45 294.97 149.33 292.14 149.33C286.15 149.33 286.07 149.29 287.49 146.57L288.39 144.84L287.64 144.34C287.23 144.06 285.53 143.11 283.87 142.23C282.2 141.34 280.23 140.27 279.5 139.85C278.77 139.43 276.97 138.45 275.5 137.67C274.03 136.88 272.08 135.84 271.17 135.34C270.25 134.84 265.75 132.4 261.17 129.92C256.58 127.44 247.58 122.56 241.17 119.08C234.75 115.59 228.6 112.26 227.5 111.66C226.4 111.06 224.38 109.97 223 109.24C221.62 108.5 218.1 106.6 215.17 105C212.23 103.4 208.48 101.37 206.83 100.49C205.18 99.62 200.61 97.14 196.67 95C185.31 88.81 181.15 86.67 180.45 86.67C178.8 86.67 175.53 83.76 174.69 81.56C174.49 81.03 174.13 80.66 173.86 80.73C173.6 80.78 172.13 82.56 170.6 84.67C169.06 86.77 167.6 88.5 167.34 88.5C167.09 88.5 166.48 87.83 166 87C165.52 86.18 164.89 85.46 164.62 85.4C164.34 85.35 162.17 86.34 159.8 87.6C157.44 88.86 152.95 91.21 149.83 92.82C146.72 94.43 144.02 95.85 143.83 95.99C143.65 96.13 140.35 97.85 136.5 99.83C132.65 101.8 129.36 103.54 129.2 103.69C129.02 103.85 129.15 104.76 129.5 105.88C129.83 106.94 130.09 108.43 130.08 109.2C130.04 112.01 127.84 115.21 124.9 116.73C123.1 117.66 119.69 117.73 118.05 116.87C117.43 116.54 116.81 116.4 116.68 116.55C116.54 116.71 116.55 117.96 116.69 119.33C117.45 126.65 117.45 126.49 116.88 126.96C116.42 127.34 116.16 127.33 115.2 126.87C114.58 126.58 113.71 126.33 113.28 126.34C112.44 126.34 112.6 125.98 106.49 141.5C101.93 153.07 95.27 169.87 94.85 170.83C94.61 171.38 94.15 172.58 93.82 173.5C93.49 174.42 93.1 175.31 92.94 175.48C92.33 176.19 92.69 176.96 93.81 177.32C95.98 178.04 97.55 179.5 98.67 181.84C99.67 183.93 99.77 184.03 100.67 183.83C101.19 183.72 103.1 183.4 104.89 183.14ZM387.06 177.67C386.57 177.26 386.32 176.74 386.39 176.26C386.55 175.13 388.04 175.08 389.44 176.15C390.81 177.19 391.15 177.21 391.81 176.26C392.88 174.73 392.23 173.14 390.08 172.03C389.1 171.52 389.13 170.75 390.17 169.94C391.91 168.57 390.81 166.76 388.5 167.19C387.13 167.45 387.02 167.08 388.15 166.02C389.13 165.1 391.47 164.78 392.66 165.41C393.11 165.65 393.7 166.24 393.98 166.73C394.42 167.52 394.41 167.72 393.83 168.79C393.25 169.88 393.24 170.01 393.74 170.57C394.58 171.49 395.05 173.02 394.82 174.07C394.13 177.19 389.22 179.47 387.06 177.67ZM174.67 169.17C174.67 168.72 175.27 166.74 176 164.79C176.73 162.84 177.33 161.04 177.33 160.79C177.33 160.24 173.5 160.13 173.17 160.67C172.72 161.39 172.33 160.94 172.33 159.69C172.33 157.32 172.31 157.33 176.54 157.33C179.85 157.33 180.33 157.4 180.33 157.89C180.33 158.63 177.41 167.17 176.62 168.75C175.86 170.25 174.67 170.51 174.67 169.17ZM307.14 161.01C308.7 160.42 310.97 158.02 311.37 156.55C312.56 152.1 309.55 148.33 304.81 148.33C302.35 148.33 300.85 149.08 299.51 150.96C298.66 152.17 298.53 152.64 298.53 154.61C298.53 156.56 298.66 157.06 299.52 158.34C301.24 160.9 304.47 162.03 307.14 161.01ZM85.07 154.27C84.85 154.05 84.67 153.52 84.67 153.11C84.67 152.29 84.17 152.08 81.83 151.92C80.55 151.84 80.5 151.79 80.39 150.55C80.33 149.78 80.48 149.05 80.77 148.72C81.03 148.41 81.3 148.01 81.37 147.82C81.81 146.64 85.62 141.95 86.27 141.78C87.52 141.46 87.77 142.08 87.8 145.62C87.83 148.27 87.95 149.06 88.42 149.57C89.13 150.37 89.16 151.12 88.5 151.67C88.22 151.89 88 152.33 88 152.63C88 154.17 86.05 155.25 85.07 154.27ZM84.36 148.97C84.74 148.59 84.96 148.06 84.86 147.78C84.75 147.5 84.67 146.99 84.67 146.64C84.67 145.7 83.89 145.86 83.06 146.99C81.56 149.01 82.65 150.68 84.36 148.97ZM506 149.24C505.42 148.94 505.14 148.49 505.06 147.74C504.97 146.76 505.04 146.67 505.88 146.67C506.38 146.67 507.37 147.06 508.06 147.54C509.41 148.48 509.94 148.36 510.69 146.95C511.23 145.94 510.23 144.06 508.85 143.48C508.2 143.21 507.67 142.83 507.67 142.62C507.67 142.42 508.13 141.73 508.69 141.09C509.62 140.04 509.66 139.87 509.23 139.22C508.68 138.39 507.34 138.13 506.35 138.66C505.28 139.23 505.49 138.43 506.7 137.3C509.18 134.99 513.67 137.02 512.38 139.87C511.84 141.04 511.91 141.61 512.67 142.58C514.2 144.53 513.09 147.4 510.26 148.81C508.35 149.76 507.25 149.87 506 149.24ZM300.94 147.17C301.85 146.71 302.84 146.33 303.14 146.33C303.44 146.33 303.82 146 303.99 145.58C304.16 145.17 305.3 139.81 306.53 133.67C308.61 123.24 308.97 121.39 309.99 116.17C310.2 115.07 310.69 112.67 311.07 110.83C311.44 109 311.94 106.52 312.16 105.33C312.39 104.14 313.5 98.61 314.64 93.04C315.78 87.47 316.63 82.73 316.55 82.5C316.46 82.27 315.81 81.98 315.11 81.86C313.01 81.49 312.67 81.32 312.67 80.68C312.67 80.34 314.09 78.22 315.84 75.96L319.01 71.86L317.07 70.98C314.84 69.97 312.83 67.84 312.32 65.95C312.13 65.26 311.83 64.6 311.63 64.48C311.44 64.36 309.25 65.63 306.75 67.29C301.75 70.62 301.33 70.69 301.33 68.17C301.33 65.88 301.15 65.83 294.76 66.64C291.68 67.02 287.37 67.56 285.17 67.84C282.97 68.11 279.97 68.5 278.5 68.7C277.03 68.9 274.11 69.27 272 69.52C269.89 69.77 266.29 70.2 264 70.48C261.71 70.76 258.03 71.21 255.83 71.47C248.08 72.41 240.81 73.33 238.5 73.66C237.22 73.85 234.89 74.14 233.33 74.32C229.62 74.73 214.5 76.61 213 76.84C211.87 77.01 207.74 77.53 199.5 78.52C197.3 78.79 194.6 79.11 193.5 79.25L191.5 79.5L190.62 81.34C190.14 82.35 189.05 83.81 188.21 84.59C187.36 85.37 186.67 86.2 186.68 86.42C186.68 86.77 198.85 93.55 212.14 100.62C213.99 101.6 218.88 104.24 223 106.49C227.12 108.73 231.85 111.29 233.5 112.16C235.15 113.04 241.53 116.49 247.67 119.83C268.4 131.1 277.04 135.77 282.17 138.49C283.82 139.37 286.01 140.59 287.04 141.21C288.08 141.83 289.08 142.33 289.27 142.33C289.47 142.33 290.05 141.58 290.56 140.67C291.11 139.69 291.73 139 292.07 139C292.67 139 292.85 139.22 296.62 144.58C297.95 146.46 299.09 148 299.15 148C299.22 148 300.03 147.62 300.94 147.17ZM421.73 139.27C421.51 139.05 421.33 138.52 421.33 138.1C421.33 137.4 421.19 137.33 419.57 137.33C418.6 137.33 417.62 137.15 417.4 136.93C416.78 136.32 416.93 134.52 417.67 133.58C418.03 133.11 418.33 132.59 418.33 132.43C418.33 132.26 418.75 131.69 419.27 131.15C419.78 130.61 420.55 129.6 420.96 128.92C421.67 127.75 422.84 126.67 423.38 126.67C423.51 126.67 423.85 126.9 424.14 127.19C424.55 127.59 424.67 128.45 424.67 130.95C424.67 133.42 424.8 134.37 425.22 134.97C425.72 135.68 425.72 135.86 425.26 136.8C424.98 137.37 424.59 138.25 424.38 138.75C424.1 139.45 423.79 139.67 423.07 139.67C422.56 139.67 421.95 139.49 421.73 139.27ZM421.15 133.93C421.81 132.98 421.81 131.87 421.16 131.33C420.88 131.09 420.61 130.96 420.55 131.04C418.78 133.36 418.51 134.67 419.81 134.67C420.28 134.67 420.85 134.35 421.15 133.93ZM218.75 127.17C218.33 126.87 218 126.28 218 125.81C218 125.13 218.16 125 219.02 125C219.58 125 220.61 125.33 221.32 125.74C222.59 126.47 222.63 126.47 223.31 125.86C223.69 125.51 224 124.82 224 124.33C224 123.37 222.72 121.83 221.63 121.49C220.75 121.21 220.84 120.26 221.83 119.33C222.88 118.35 222.89 117.5 221.88 116.83C221.26 116.43 220.89 116.39 220.17 116.67C219.03 117.1 218.83 116.94 219.33 116.01C220.23 114.33 224.34 114.19 225.41 115.8C225.78 116.35 225.71 117.86 225.28 118.82C224.95 119.55 224.99 119.78 225.61 120.44C227.22 122.15 226.71 124.79 224.45 126.52C222.96 127.65 219.9 128.01 218.75 127.17ZM124.33 114.82C125.28 114.34 126.59 112.96 127.48 111.54C128.39 110.07 128.09 106.79 126.91 105.24C125.43 103.3 123.88 102.54 121.35 102.52C117.62 102.49 115.41 104.42 115.09 108.01C114.77 111.53 116.38 114.23 119.38 115.17C120.95 115.67 122.97 115.53 124.33 114.82ZM96.58 109.41C95.89 109.26 95.81 108.24 96.46 107.7C96.72 107.49 97.27 106.38 97.68 105.24C98.1 104.1 98.64 102.93 98.89 102.64C99.13 102.35 99.33 101.88 99.33 101.59C99.33 101.3 99.78 100.06 100.33 98.84C101.04 97.26 101.48 96.65 101.86 96.73C102.2 96.79 103.22 98.76 104.62 102.05C105.84 104.93 107.09 107.56 107.41 107.91C108.31 108.9 107.55 109.33 104.93 109.33C102.97 109.33 102.67 109.25 102.67 108.73C102.67 108.4 102.83 107.97 103.03 107.77C103.72 107.08 102.81 106.11 101.3 105.9C99.45 105.66 98.33 106.1 98.33 107.09C98.33 107.52 98.5 108.03 98.7 108.24C99.43 108.96 98.07 109.71 96.58 109.41ZM297.17 109.4C296.02 109.17 295.8 108.7 296.6 108.14C297.28 107.66 297.33 107.37 297.33 103.84C297.33 99.78 297.19 99 296.46 99C295.37 99 296.39 97.79 298.1 97.06C299.38 96.52 300.22 96.57 300.46 97.19C300.58 97.48 300.67 100.03 300.67 102.84C300.67 107.38 300.73 108 301.25 108.3C301.63 108.51 301.72 108.73 301.5 108.94C301.13 109.29 298.2 109.6 297.17 109.4ZM101.4 104.42C101.84 103.91 101.85 103.69 101.45 102.75C101.2 102.15 100.9 101.67 100.79 101.67C100.34 101.67 99.69 102.87 99.68 103.69C99.66 105.11 100.5 105.46 101.4 104.42ZM129.21 93.91C128.73 93.56 128.69 93.32 128.98 92.55C129.17 92.04 129.33 89.91 129.33 87.81C129.33 84.37 129.27 83.97 128.67 83.59C128.3 83.36 128 83.02 128 82.84C128 82.42 130.58 81.33 131.56 81.33C132.28 81.33 132.29 81.44 132.39 87.03C132.49 92.11 132.57 92.77 133.12 93.17C133.46 93.42 133.63 93.78 133.51 93.98C133.21 94.48 129.92 94.42 129.21 93.91ZM185.08 84.37C188.99 82.7 190.54 77.76 188.11 74.76C186.76 73.09 185.77 72.43 183.93 71.95C182.59 71.6 182.1 71.62 180.54 72.11C177.22 73.16 175.56 76.09 176.28 79.62C177.16 83.9 181.15 86.06 185.08 84.37ZM460.67 84.25C462.48 83.34 464.19 81.16 464.49 79.39C464.99 76.43 463.01 73.19 460.09 72.19C458.24 71.56 457.53 71.54 456 72.1C454.02 72.81 453.36 73.31 452.42 74.76C450.75 77.37 451.41 81.61 453.76 83.33C456.31 85.18 458.3 85.45 460.67 84.25ZM482.93 78.67C480.29 77.88 478.54 75.35 478.53 72.33C478.52 70.03 479.62 67.62 481.12 66.7C482.63 65.76 484.89 65.31 485.96 65.72C486.44 65.9 487.58 66.08 488.5 66.11L490.17 66.17L490.27 67.61C490.33 68.4 490.19 69.27 489.98 69.53C489.64 69.93 489.47 69.86 488.87 69.05C487.77 67.55 486.15 66.33 485.26 66.33C484.8 66.33 484.04 66.77 483.48 67.35C482.55 68.33 482.49 68.54 482.39 71.77C482.29 74.88 482.35 75.26 483.06 76.28C483.48 76.9 484.26 77.65 484.77 77.95C485.69 78.49 485.73 78.48 486.52 77.56C487.46 76.49 487.57 75.15 486.8 74.3C485.98 73.39 486.53 73 488.6 73.01C490.8 73.01 491.73 73.41 491.08 74.05C490.85 74.28 490.67 75.02 490.67 75.7C490.67 77.44 489.84 78.27 487.7 78.67C485.62 79.05 484.2 79.05 482.93 78.67ZM449.39 76.45C449.73 76.14 450 75.67 450 75.39C450 75.12 450.37 74.26 450.82 73.49L451.64 72.09L448.68 68.08C445.54 63.82 444.84 62.71 445.11 62.44C445.21 62.35 446.08 62.1 447.05 61.88C448.32 61.6 448.86 61.31 448.94 60.88C449.14 59.85 445.39 52.79 442.75 49.22C433.75 37.05 419.27 27.55 403.83 23.69C393.92 21.21 383.75 21.22 371.5 23.71C368.75 24.28 366.25 24.87 365.94 25.03C365.63 25.2 365.14 25.33 364.84 25.33C364.04 25.33 354.87 28.75 351.83 30.17C338.03 36.67 328.77 46.01 327.3 54.91C326.94 57.1 326.96 57.28 327.78 58.85C328.9 61.01 329.17 62.88 328.67 64.99C328.2 66.93 328.35 67.27 329.42 66.74C331.73 65.59 336.15 64 337.04 64L338.06 64L337.95 66.08L337.83 68.17L343.5 68.71C346.62 69 351.57 69.43 354.5 69.65C357.43 69.87 361.56 70.19 363.67 70.36C365.77 70.53 370.35 70.9 373.83 71.17C377.32 71.45 383.09 71.91 386.67 72.19C390.24 72.47 395.87 72.91 399.17 73.17C402.47 73.43 408.17 73.88 411.83 74.17C422.14 74.99 429.53 75.56 437.17 76.14C441.02 76.43 444.47 76.73 444.83 76.79C446.72 77.13 448.81 76.97 449.39 76.45ZM322.59 69.15C326.11 67.68 327.97 63.56 326.46 60.57C325.14 57.96 323.03 56.67 320.08 56.67C315.42 56.67 312.51 61 314.22 65.41C314.92 67.22 315.75 68.14 317.46 68.99C319.1 69.8 320.9 69.85 322.59 69.15ZM386.67 67.33C386.67 66.96 387.25 66.02 387.96 65.24C391.72 61.15 392.43 57.67 389.51 57.67C388.88 57.67 388.28 57.82 388.17 58C387.79 58.61 387.33 58.35 387.33 57.53C387.33 56.38 389.09 55 390.55 55C392.76 55 394.31 56.38 394.33 58.36C394.33 59.76 392.9 62.12 391.35 63.27C390.79 63.68 390.33 64.24 390.33 64.5C390.33 65.17 391.66 65.45 392.78 65.02C393.29 64.82 394 64.67 394.36 64.67C394.9 64.67 394.98 64.82 394.8 65.58C394.27 67.85 393.98 68 390.16 68C386.88 68 386.67 67.96 386.67 67.33ZM176.33 62.97C174.51 62.15 173.53 61.02 172.81 58.88C171.83 56.02 172.94 52.68 175.37 51.14C176.62 50.36 176.95 50.3 179.28 50.47C180.69 50.57 182.4 50.65 183.08 50.65L184.33 50.65L184.33 52.31C184.33 53.22 184.16 54.07 183.95 54.2C183.73 54.34 183.01 53.79 182.2 52.86C180.87 51.33 180.79 51.29 179.17 51.39C177.64 51.49 177.45 51.6 176.9 52.67C176.42 53.61 176.32 54.47 176.4 57.11C176.5 60.34 176.52 60.4 177.59 61.36C179 62.62 180.19 62.61 181.98 61.31C182.87 60.66 183.6 60.37 183.95 60.5C184.4 60.68 184.27 60.93 183.2 61.86C181.04 63.74 178.82 64.1 176.33 62.97ZM234.83 62.99C234.71 62.8 234.96 62.37 235.39 62.02C236.13 61.42 236.17 61.19 236.17 57.21C236.17 53.41 236.11 52.98 235.5 52.54C234.72 51.96 234.93 51.7 236.9 50.85C239.29 49.82 239.33 49.9 239.33 56.13C239.33 60.66 239.42 61.71 239.85 62.14C240.14 62.43 240.28 62.81 240.17 63C239.9 63.44 235.1 63.43 234.83 62.99ZM310.5 48C310.39 47.82 310.53 47.33 310.81 46.93C311.55 45.88 311.57 37.44 310.84 36.48C310.57 36.12 310.35 35.72 310.34 35.58C310.33 35.14 319.82 35.29 320.27 35.73C320.77 36.23 320.79 38.22 320.31 38.52C320.11 38.64 319.53 38.25 319.03 37.64C318.23 36.69 317.91 36.55 316.47 36.52L314.83 36.5L314.73 38.75C314.64 40.8 314.69 41 315.29 41C315.66 41 316.32 40.53 316.77 39.96C317.91 38.5 318.33 38.96 318.33 41.67C318.33 44.29 317.89 44.88 316.92 43.55C316.53 43.01 315.96 42.67 315.46 42.67C314.66 42.67 314.64 42.73 314.73 44.72C314.8 46.14 314.99 46.86 315.36 47.1C316.26 47.66 318.17 47.06 319.44 45.83C320.1 45.19 320.79 44.67 320.98 44.67C321.52 44.67 321.4 46.76 320.81 47.59C320.32 48.3 320.08 48.33 315.5 48.33C312.67 48.33 310.62 48.2 310.5 48ZM420.34 25.39C419.6 25.15 420.09 24.07 421.88 22C422.9 20.81 424.04 19.18 424.41 18.38C425.06 16.93 425.06 16.91 424.42 16.04C423.63 14.98 422.57 14.77 421.49 15.47C420.46 16.15 420.33 16.14 420.33 15.37C420.33 15.02 420.76 14.28 421.28 13.72C422.94 11.95 424.97 11.92 426.71 13.66C428.46 15.41 427.8 17.96 424.88 20.64C423.65 21.77 423.71 22.67 425.01 22.67C425.57 22.67 426.39 22.43 426.83 22.14C427.76 21.53 428.33 21.75 428.33 22.7C428.33 23.73 427.38 25.33 426.74 25.36C424.84 25.47 420.62 25.48 420.34 25.39Z" fill="#1e2749" fill-rule="evenodd"/>
</svg>
