<?xml version="1.0" encoding="UTF-8"?>
<svg xmlns="http://www.w3.org/2000/svg" viewBox="0 0 2430 635" width="2430" height="635" shape-rendering="geometricPrecision">
<path d="M20.57 625.43C18.58 623.43 17.62 619.66 18.36 616.7C18.69 615.4 27.39 606.73 38.22 596.9C63.18 574.24 160.42 487.03 183.01 467.02C205.94 446.74 283.36 377.08 317.33 346.17C332.09 332.74 343.79 321.43 343.33 321.02C342.87 320.61 334.18 312.67 324 303.37C313.82 294.08 287.73 270.47 266 250.9C244.28 231.33 209.62 200.12 189 181.53C168.38 162.95 145.66 142.51 138.52 136.12C131.38 129.73 122.83 121.99 119.52 118.92C116.21 115.86 93.03 94.99 68 72.56C42.97 50.13 21.44 30.62 20.14 29.21C18.23 27.12 17.88 25.9 18.32 22.68C18.92 18.15 20.18 17.04 24.72 17.02C27.27 17 29.78 18.55 36.86 24.49C44.47 30.88 94.23 75.23 139.39 115.89C146.48 122.28 157.31 132 163.46 137.5C176.87 149.5 353.29 308.23 357.32 311.92L360.13 314.5L588.48 314.6L816.83 314.7L825.74 306.6C830.64 302.14 842.94 291.06 853.07 281.97C863.21 272.87 884.98 253.3 901.45 238.47C917.92 223.64 933.67 209.47 936.45 207C949.56 195.3 1022.19 129.7 1035.5 117.53C1092.73 65.22 1145.56 18.18 1148.68 16.75C1149.87 16.2 1151.94 16.02 1153.27 16.35C1155.55 16.92 1170.93 30.35 1217.08 72.05C1227.76 81.71 1268.22 118.14 1307 153.03C1424.21 258.47 1478.94 308.14 1486.49 315.91C1491.34 320.91 1491.44 321.13 1489.99 323.68C1489.17 325.12 1487.29 327.2 1485.82 328.3C1481.82 331.27 1487.07 335.51 1418.6 274.09C1404.24 261.22 1386.65 245.47 1379.51 239.09C1372.37 232.72 1353.24 215.57 1337.01 200.99C1320.78 186.41 1298.28 166.21 1287 156.1C1275.72 145.99 1260.88 132.65 1254 126.46C1247.12 120.27 1221.47 97.16 1197 75.11C1172.53 53.06 1151.91 35.02 1151.18 35.01C1150.46 35.01 1143.71 40.57 1136.18 47.37C1128.66 54.17 1115.08 66.42 1106 74.59C1079.89 98.11 1068.95 108.02 1046.5 128.51C1020.84 151.91 1012.93 159.07 918.06 244.53C876.56 281.92 838.5 316.14 833.47 320.59L824.33 328.67L800.01 329.34C786.62 329.7 681.9 330 567.29 330L358.89 330L324.7 360.79C261.46 417.72 190.05 481.7 181.05 489.5C178.51 491.7 152.6 514.92 123.47 541.1C94.34 567.28 60.9 597.32 49.17 607.85C26.84 627.9 24.49 629.35 20.57 625.43ZM1543.23 450.94C1536.45 449.6 1527.01 444.05 1520.37 437.49C1510.71 427.94 1504.91 414.33 1503.1 397C1501.97 386.17 1503.04 369.82 1505.49 360.5C1509.67 344.57 1518.82 331.97 1530.77 325.69C1539.1 321.31 1546.59 320.03 1558.59 320.94C1575.76 322.24 1588.53 330.84 1596.77 346.67C1603.79 360.16 1605.51 367.96 1605.45 386C1605.4 403.97 1604.14 410.1 1597.96 422.73C1587.39 444.3 1565.85 455.4 1543.23 450.94ZM1624 385.87L1624 321.74L1650.75 322.23C1680.64 322.79 1683.5 323.35 1693.3 330.56C1718.81 349.33 1720.83 412.67 1696.72 437.31C1686.33 447.92 1677.76 449.95 1643.25 449.98L1624 450L1624 385.87ZM1564.39 434.38C1571.58 431.93 1580.29 423.34 1584.43 414.62C1591.33 400.08 1592.21 378.72 1586.6 362.28C1580.91 345.59 1569.05 336 1554.1 336C1544.31 336 1538.45 338.53 1530.98 345.98C1525.63 351.31 1524.04 353.69 1522.23 359C1515.58 378.61 1517.38 406.52 1526.19 420.28C1534.59 433.41 1550.26 439.2 1564.39 434.38ZM1662 433.11C1676.97 432.25 1679.59 431.38 1685.56 425.25C1694.06 416.52 1697.34 405.27 1697.29 385C1697.24 365.2 1695.06 357.11 1687.34 348.08C1680.77 340.41 1678.04 339.6 1657.25 339.18L1639 338.81L1639 385.74C1639 411.55 1639.3 432.97 1639.67 433.33C1640.48 434.15 1644.57 434.11 1662 433.11ZM1854.29 369.49C1852.62 365.99 1852.62 365.98 1855.75 362.74C1859.16 359.21 1861 355.24 1861 351.43C1861 349.34 1860.53 349 1857.63 349C1854.58 349 1854.21 348.68 1853.71 345.63C1853.41 343.77 1853.42 339.48 1853.73 336.09L1854.28 329.92L1862.39 330.21L1870.5 330.5L1870.81 340C1871.33 356.02 1868.27 365.82 1861.15 370.89C1857.13 373.75 1856.24 373.57 1854.29 369.49ZM2058.5 347.02C2048.22 341.62 2043.22 335.46 2038.96 322.96C2037.1 317.5 2036.78 314.44 2036.86 303.25C2037.01 282.3 2040.64 271.01 2049.82 262.93C2056.75 256.83 2063.64 254.58 2075.5 254.54C2084.62 254.5 2086.01 254.76 2091.3 257.44C2098.15 260.9 2103.27 266.25 2106.59 273.36C2110.78 282.36 2109.51 284.77 2100.35 285.25C2095.6 285.5 2095.55 285.47 2092.99 280.79C2087.97 271.59 2082.82 267.98 2074.78 268.02C2065.44 268.07 2057.35 274.69 2054.33 284.75C2051.96 292.69 2051.97 311.36 2054.36 319.33C2056.67 327.05 2062.51 333.48 2068.96 335.4C2079.9 338.64 2089.97 332.58 2094.08 320.26L2095.66 315.5L2101.03 315.19C2103.98 315.02 2107.48 315.16 2108.81 315.49C2110.93 316.02 2111.15 316.5 2110.6 319.3C2109.52 324.76 2103.46 336.32 2099.62 340.22C2097.61 342.26 2093.84 345.19 2091.23 346.71C2086.98 349.21 2085.39 349.53 2075.5 349.84C2064.78 350.17 2064.35 350.1 2058.5 347.02ZM2316.99 349.07C2305.73 345.64 2299.68 336.65 2299.67 323.35C2299.67 317.58 2300.2 315.12 2302.41 310.59C2307.16 300.89 2311.96 298.55 2336.28 294.07C2345.36 292.4 2354.01 290.57 2355.51 289.99C2358.12 289 2358.22 288.71 2357.79 283.44C2356.92 273.02 2350.77 268.52 2337.5 268.58C2325.85 268.64 2322.97 270.18 2319 278.5L2315.81 285.17L2309.66 284.47C2306.27 284.09 2303.16 283.57 2302.75 283.33C2299.97 281.68 2305.04 268.7 2310.54 263.36C2317.44 256.66 2324.09 254.6 2339 254.55C2357.63 254.48 2365.31 257.76 2370.52 268.03C2373.2 273.32 2373.54 277.55 2374.49 317.62C2374.84 332.12 2375.44 339.99 2376.41 342.75C2378.29 348.06 2377.22 349 2369.33 349C2363.39 349 2362.97 348.84 2361.53 346.05C2360.69 344.43 2360 342.18 2360 341.05C2360 338.3 2358.9 338.46 2353.67 341.99C2344.08 348.46 2339.33 349.99 2329 349.9C2323.78 349.86 2318.37 349.48 2316.99 349.07ZM1921.36 347.5C1921.05 346.68 1922.68 340.72 1924.99 334.25C1927.3 327.79 1936.81 300.9 1946.14 274.5C1955.46 248.1 1963.58 225.26 1964.17 223.75C1965.2 221.11 1965.52 221 1972.37 221.01C1976.29 221.02 1980.45 221.28 1981.62 221.6C1983.35 222.06 1985.68 227.3 1994.37 250.33C2000.22 265.82 2008.18 286.82 2012.05 297C2015.93 307.18 2021.62 322.35 2024.7 330.72C2031.48 349.18 2031.47 349.22 2020.09 348.79L2012.5 348.5L2006 330.66C2002.17 320.14 1998.8 312.44 1997.8 311.89C1996.85 311.37 1986.09 311.08 1973.3 311.23L1950.5 311.5L1944.67 328.5C1941.47 337.85 1938.14 346.29 1937.27 347.25C1935.14 349.6 1922.25 349.81 1921.36 347.5ZM2123.2 347.8C2122.29 346.89 2122 331.3 2122 283.76L2122 220.92L2129.75 221.21L2137.5 221.5L2137.77 242.84L2138.04 264.17L2141.44 261.19C2149.35 254.24 2163.65 252.03 2174.48 256.08C2181.62 258.75 2185.49 262.06 2188.58 268.15C2191.91 274.72 2192.8 288.65 2192.06 322.5L2191.5 348.5L2184.5 348.5L2177.5 348.5L2177 315C2176.5 281.55 2176.5 281.49 2173.99 277C2171 271.63 2166.38 269 2159.9 269C2150.84 269 2144.27 272.76 2140.78 279.94C2138.67 284.29 2138.55 285.95 2138.18 315.5C2137.95 334.52 2137.4 346.98 2136.78 347.75C2135.46 349.36 2124.8 349.4 2123.2 347.8ZM2213.65 339.85C2212.81 328.07 2212.82 291.99 2213.66 271.71L2214.32 255.92L2221.41 256.21L2228.5 256.5L2228.76 301.39C2228.95 333.69 2228.7 346.65 2227.89 347.64C2227.15 348.52 2224.57 349 2220.53 349L2214.3 349L2213.65 339.85ZM2250.31 347.75C2249.86 347.06 2249.35 326.14 2249.16 301.25L2248.82 256L2255.91 256L2263 256L2263.01 260.75L2263.02 265.5L2267.38 260.78C2273.88 253.72 2279.74 252.33 2289.26 255.57C2296.18 257.93 2296.56 258.81 2294.02 266.45C2292.82 270.04 2291.53 273.17 2291.16 273.4C2290.78 273.64 2288.13 273.22 2285.28 272.48C2276.17 270.12 2269.28 273.84 2267.17 282.27C2266.59 284.6 2265.81 300.23 2265.43 317C2265.06 333.77 2264.56 347.84 2264.32 348.25C2263.56 349.55 2251.19 349.11 2250.31 347.75ZM2394.98 346.75C2394.91 340.85 2394.88 249.67 2394.94 236.21L2395 220.91L2402.25 221.21L2409.5 221.5L2409.76 283.89C2409.94 329.14 2409.7 346.65 2408.89 347.64C2408.15 348.53 2405.54 349 2401.38 349C2395.44 349 2395 348.85 2394.98 346.75ZM2339.6 335.87C2342.74 335.08 2345.71 333.2 2349.46 329.62C2355.32 324.02 2356.75 320.67 2357.7 310.25C2358.38 302.89 2358.43 302.91 2347.48 305.92C2343.64 306.97 2338.25 308.16 2335.5 308.55C2322.34 310.42 2316.01 315.21 2316 323.3C2315.99 333.92 2326.06 339.28 2339.6 335.87ZM1992.47 294.86C1992.82 294.51 1989.03 282.4 1984.05 267.93C1979.07 253.47 1975 241.49 1975 241.32C1975 241.14 1974.57 241 1974.04 241C1973.51 241 1972.59 242.91 1971.99 245.25C1971.39 247.59 1967.77 258.97 1963.95 270.54C1960.13 282.12 1957 292.33 1957 293.23C1957 294.27 1958 294.98 1959.75 295.18C1964.84 295.77 1991.83 295.51 1992.47 294.86ZM2213.63 237.75C2212.74 234.44 2212.9 223.71 2213.85 222.2C2214.43 221.29 2216.74 220.99 2221.59 221.2L2228.5 221.5L2228.79 229.34C2228.98 234.27 2228.65 237.71 2227.92 238.59C2227.15 239.53 2224.65 240 2220.49 240C2214.85 240 2214.17 239.78 2213.63 237.75Z" fill="#1e2749" fill-rule="evenodd"/>
</svg>
