<?xml version="1.0" encoding="UTF-8"?>
<svg xmlns="http://www.w3.org/2000/svg" viewBox="0 0 451 274" width="451" height="274" shape-rendering="geometricPrecision">
<path d="M61.62 255.66C59.9 254.75 59 252.76 59 249.86C59 247.34 59.61 245.69 60.92 244.66C62.46 243.45 65.14 244.03 66.48 245.86C66.94 246.49 69.11 246.5 187.67 246.67C274.25 246.79 308.47 246.73 308.69 246.47C309.13 245.95 309.11 204.65 308.68 204.21C308.49 204.02 308.33 202.72 308.33 201.32C308.33 198.43 308.24 198.28 305.45 196.88C304.5 196.41 303.4 195.56 303.01 195.01C302.15 193.81 302.23 192.56 303.17 192.39C303.53 192.32 304.28 192.07 304.83 191.83C305.38 191.6 306.99 190.99 308.41 190.49C311.35 189.45 312.12 188.84 310.93 188.5C309.9 188.2 304.67 186.34 303.83 185.97C303.47 185.81 302.75 185.53 302.25 185.35C301.44 185.05 301.33 184.85 301.33 183.55C301.33 182.44 301.48 182.03 301.92 181.89C303.97 181.23 309.79 178.69 310.21 178.26C310.67 177.8 310.45 177.66 308 176.87C304.31 175.68 304 175.49 304 174.35C304 173.16 304.3 172.33 304.74 172.33C304.92 172.33 305.54 172.11 306.12 171.84C306.69 171.57 308.66 170.7 310.48 169.91C312.3 169.12 313.84 168.32 313.9 168.13C314.04 167.72 309.78 165.67 308.78 165.67C307.18 165.67 307.21 166.29 307.43 139.18C307.62 116.45 307.58 113.71 307.13 113.53C306.84 113.42 305.33 113.33 303.76 113.33L300.91 113.33L301.11 111.87C301.24 110.89 301.17 110.29 300.91 110.08C300.02 109.38 275.75 97.33 275.23 97.33C274.73 97.33 274.67 97.79 274.67 101.15C274.67 104.59 274.6 105.01 274.02 105.32C273.67 105.51 273.15 105.57 272.86 105.47C272.41 105.29 272.33 103.98 272.25 95.55L272.17 85.83L246.17 85.9C231.87 85.94 218.22 86.02 215.83 86.07C211.53 86.17 211.5 86.16 211.39 85.4C211.33 84.98 211.45 84.43 211.65 84.19C211.91 83.87 211.88 83.65 211.53 83.35C210.87 82.81 186.09 70.33 185.67 70.33C185.46 70.33 185.33 71.79 185.33 74.1C185.33 77.99 185.12 78.67 183.93 78.67C183.6 78.67 183.3 78.63 183.26 78.58C183.22 78.54 183.11 74.15 183.01 68.83L182.83 59.17L137.24 58.89L91.64 58.61L90.95 59.49L90.26 60.37L78.97 60.27C67.04 60.16 67.33 60.13 67.33 61.65C67.33 62.39 64.78 65.33 64.14 65.33C63.47 65.33 63.5 65.45 65.21 68.95C66.89 72.36 66.89 73.07 65.22 73.27L64.34 73.38L64.25 96.07C64.17 117.26 64.13 118.79 63.58 119.13C63.16 119.4 62.84 119.4 62.42 119.13C61.87 118.78 61.83 117.32 61.83 96.13L61.83 73.5L60.58 73.4C59.5 73.31 59.33 73.18 59.33 72.45C59.33 71.99 60.01 70.34 60.85 68.79L62.36 65.97L60.9 64.55C59.31 63 59 62.09 59 58.93C59 55.55 60.63 53.33 63.12 53.33C64.06 53.33 64.62 53.64 65.89 54.83L67.48 56.33L124.86 56.33C172.12 56.33 182.32 56.26 182.62 55.89C182.85 55.61 183.02 53.06 183.08 48.97L183.17 42.5L184.17 42.5L185.17 42.5L185.27 44.83C185.32 46.12 185.48 47.28 185.62 47.42C185.77 47.57 193.22 43.97 202.19 39.43L218.5 31.18L281.87 31.01L345.24 30.83L346.76 29.44C349.22 27.17 351.32 27.19 353.44 29.51L354.52 30.68L377.07 30.67C397.47 30.66 399.66 30.71 400.15 31.2C400.63 31.68 400.64 31.83 400.22 32.46L399.75 33.17L376.89 33.25C354.51 33.34 354.01 33.35 353.67 34C353.18 34.92 351 36.33 350.08 36.33C349.14 36.33 347.77 35.48 346.72 34.25L345.94 33.33L328.75 33.33L311.57 33.33L311.78 39.08C312.57 59.62 312.58 59.33 310.83 59.33C310.41 59.33 309.99 59.54 309.89 59.79C309.8 60.05 302.24 63.97 293.11 68.52C283.97 73.07 276.09 77.07 275.58 77.42L274.67 78.05L274.67 85.97C274.67 93.1 274.72 93.95 275.25 94.4C275.57 94.68 281.82 97.88 289.14 101.51L302.44 108.11L303.15 107.22C303.54 106.73 304.08 106.33 304.35 106.33C304.63 106.33 305.64 107.39 306.61 108.68C307.57 109.97 308.73 111.17 309.18 111.34L310 111.65L310 125.15L310 138.66L330.25 138.67C341.39 138.68 350.91 138.73 351.41 138.79C352.64 138.95 353.54 138.25 354.02 136.75C354.53 135.14 355.48 134.11 356.88 133.65C358.15 133.23 358.91 133.4 360.15 134.38C363.14 136.73 363.06 142.21 359.99 144.79C357.96 146.5 355.35 145.54 354.21 142.67L353.67 141.33L331.79 141.33L309.9 141.33L310.08 151.97C310.19 157.82 310.4 162.85 310.56 163.13C310.72 163.42 312.24 164.33 313.93 165.15C316.31 166.31 317.09 166.86 317.36 167.57C317.95 169.09 317.38 169.58 312.66 171.62C311.66 172.06 310.4 172.62 309.87 172.87C309.33 173.13 308.7 173.33 308.45 173.33C308.2 173.33 308 173.54 308 173.8C308 174.27 308.94 174.7 312.46 175.86C314.46 176.51 315.48 177.48 315.28 178.53C315.19 179 312.5 180.36 310 181.2C308.06 181.86 305.2 183.23 305.09 183.56C305.02 183.78 305.46 184.1 306.06 184.28C307.65 184.75 314.59 187.25 314.99 187.5C315.56 187.85 315.38 189.85 314.74 190.44C314.19 190.93 310.12 192.56 307.42 193.37C306.02 193.79 306.04 194.43 307.5 195.29L308.67 195.98L309.15 194.82C309.42 194.19 309.83 193.67 310.07 193.67C311.42 193.69 311.39 193.11 311.42 220.11C311.43 234.33 311.53 246.12 311.65 246.3C311.91 246.73 341.26 247.15 349.26 246.83L355.38 246.59L356.84 245.33C357.65 244.63 358.76 243.96 359.32 243.84C360.77 243.52 362.51 244.2 363.61 245.53L364.56 246.68L386.91 246.67C399.2 246.66 409.5 246.75 409.79 246.86C410.43 247.11 410.51 248.36 409.93 248.93C409.63 249.24 404.08 249.33 386.99 249.33L364.44 249.33L363.1 250.65C362.36 251.37 361.34 252.07 360.84 252.19C359.69 252.48 357.9 251.66 356.78 250.33L355.94 249.33L223.72 249.33C91.85 249.33 91.49 249.34 91.08 250C90.67 250.65 90.3 250.67 79.17 250.67L67.68 250.67L67.46 251.58C67.1 253.12 65.99 254.67 64.63 255.52C63.11 256.48 63.17 256.48 61.62 255.66ZM64.19 252.64C65.02 251.77 65.17 251.36 65.17 249.82C65.17 248.3 65.02 247.87 64.27 247.11C63.48 246.33 63.26 246.26 62.53 246.59C61.56 247.03 61.16 248.57 61.42 250.87C61.57 252.2 62.39 253.67 62.99 253.67C63.11 253.67 63.65 253.21 64.19 252.64ZM397.36 243.93C397.2 243.51 396.53 242 395.87 240.58C394.35 237.32 394.32 236.67 395.68 236.67C396.28 236.67 396.77 236.46 396.88 236.15C396.99 235.87 397.1 225.63 397.12 213.4L397.17 191.17L397.94 191.06C399.73 190.8 399.67 189.95 399.51 213.72C399.43 225.8 399.45 235.91 399.55 236.18C399.66 236.45 400.16 236.67 400.71 236.67C401.25 236.67 401.76 236.87 401.86 237.11C402.1 237.73 399.02 243.97 398.28 244.36C397.78 244.63 397.6 244.55 397.36 243.93ZM61.77 240.93C61.29 240.32 58.67 234.75 58.67 234.34C58.67 234.15 59.11 234 59.65 234C60.19 234 60.75 233.81 60.9 233.58C61.05 233.35 61.24 223.04 61.33 210.67L61.5 188.17L62.5 188.17L63.5 188.17L63.67 210.76C63.84 234.9 63.78 233.98 65.4 233.99C65.71 234 66.04 234.12 66.13 234.27C66.37 234.67 63.03 241.15 62.53 241.26C62.3 241.32 61.95 241.17 61.77 240.93ZM75.22 236.44C75.1 236.32 75 236.02 75 235.78C75 235.43 75.88 235.33 78.94 235.33C81.11 235.33 82.99 235.43 83.11 235.55C83.23 235.67 83.16 235.97 82.96 236.22C82.69 236.54 81.59 236.67 79.01 236.67C77.05 236.67 75.34 236.57 75.22 236.44ZM355.22 236.44C355.1 236.32 355 236.02 355 235.78C355 235.43 355.88 235.33 358.94 235.33C361.11 235.33 362.99 235.43 363.11 235.55C363.23 235.67 363.16 235.97 362.96 236.22C362.69 236.54 361.59 236.67 359.01 236.67C357.05 236.67 355.34 236.57 355.22 236.44ZM322.92 184.43C321.92 184.18 322.24 183.17 323.42 182.82L324.5 182.5L324.59 179.1L324.69 175.69L323.62 175.41C322.05 175.01 322.11 174.53 323.86 173.35C326.41 171.63 326.49 171.74 326.59 177.44L326.68 182.37L327.84 182.86C329.18 183.42 329.32 183.9 328.25 184.3C327.47 184.59 323.93 184.67 322.92 184.43ZM332.15 183.9C332.06 183.67 332.02 181.01 332.07 177.99C332.16 172.87 332.21 172.5 332.81 172.38C333.81 172.19 334.33 173.26 334.34 175.48L334.35 177.5L336.7 174.92C338.61 172.83 339.25 172.33 340.03 172.33C340.56 172.33 341 172.5 341 172.7C341 172.9 340.02 174.07 338.83 175.31C337.64 176.54 336.67 177.7 336.67 177.89C336.67 178.07 337.73 179.45 339.03 180.94C340.32 182.43 341.29 183.8 341.17 183.99C341.06 184.18 340.61 184.33 340.17 184.33C339.62 184.33 338.77 183.65 337.31 182C336.17 180.72 335.03 179.67 334.78 179.67C334.46 179.67 334.33 180.2 334.33 181.6C334.33 182.66 334.15 183.71 333.93 183.93C333.4 184.46 332.36 184.44 332.15 183.9ZM68.13 158.94C67.99 158.71 68.19 158.35 68.61 158.07C69.53 157.46 69.6 155.06 68.75 153.62C68.24 152.76 68.23 152.6 68.67 152.32C68.94 152.14 69.47 152.03 69.83 152.08C70.43 152.16 70.51 152.45 70.59 154.83C70.66 157.05 70.8 157.6 71.37 158.07C71.74 158.39 71.96 158.8 71.84 158.99C71.55 159.47 68.43 159.42 68.13 158.94ZM60.46 157.32C60.03 157.16 59.54 156.47 59.24 155.61C58.96 154.82 58.11 152.44 57.36 150.33C55.82 145.98 55.72 145.33 56.64 145.33C57.69 145.33 58.1 146.02 59.49 150.11C60.22 152.25 60.96 153.96 61.13 153.9C61.57 153.75 61.78 153.29 62.99 149.83C64.59 145.26 64.55 145.33 65.53 145.33C66.31 145.33 66.39 145.44 66.24 146.25C66.05 147.31 63.23 155.28 62.68 156.3C62.18 157.24 61.31 157.64 60.46 157.32ZM398.67 143.76C398.67 143.43 399.42 142.35 400.35 141.35C402.46 139.07 402.48 138.21 400.42 138.06C398.8 137.95 398.49 137.22 399.81 136.62C401.41 135.89 403.67 137.19 403.67 138.83C403.67 139.32 403.17 140.22 402.46 141C401.07 142.54 401.14 143.33 402.68 143.33C403.37 143.33 403.67 143.48 403.58 143.75C403.5 144.02 402.6 144.2 401.06 144.26C398.94 144.35 398.67 144.29 398.67 143.76ZM358.72 142.75C360.94 140.09 359.91 135.35 357.29 136.18C355.85 136.64 355.66 141.32 357.02 142.69C357.82 143.48 358.1 143.49 358.72 142.75ZM391.56 142.23C390.99 141.78 387.33 132.06 387.33 130.99C387.33 130.42 387.51 130.31 388.24 130.39C389.07 130.49 389.26 130.83 390.69 134.76C391.55 137.1 392.33 139.11 392.44 139.22C392.69 139.47 392.99 138.76 394.57 134.17C395.64 131.08 395.95 130.48 396.59 130.39C397.88 130.21 397.8 131.2 396.22 135.43C395.39 137.67 394.61 139.9 394.49 140.39C394.13 141.9 392.47 142.94 391.56 142.23ZM324.5 124.45C321.62 122.99 320.33 122.14 320.33 121.69C320.33 121.57 321.98 120.66 324 119.67C327.97 117.71 328.22 117.71 328.63 119.72L328.86 120.83L344.6 120.92L360.33 121.01L360.33 121.8C360.33 122.23 360.13 122.75 359.89 122.96C359.58 123.21 354.72 123.35 343.97 123.41L328.5 123.5L328.33 124.64C328.24 125.27 328.02 125.82 327.83 125.87C327.65 125.92 326.15 125.28 324.5 124.45ZM342.24 111.12C341.76 110.65 342.03 110.12 343.67 108.33C345.42 106.42 345.67 105.69 344.82 104.99C344.43 104.67 344.12 104.66 343.48 104.95C342.79 105.27 342.61 105.24 342.43 104.78C342.19 104.16 343.13 103.33 344.08 103.33C344.97 103.33 346.55 104.22 346.79 104.85C347.21 105.94 346.97 106.7 345.8 108C344.4 109.54 344.48 110.33 346.02 110.33C346.7 110.33 347.01 110.48 346.92 110.75C346.77 111.2 342.65 111.53 342.24 111.12ZM335.75 109.46C335.1 109.18 335.26 108.06 336 107.67C336.61 107.34 336.67 106.97 336.67 103.54C336.67 100.19 336.59 99.7 336 99.17C335.63 98.83 335.33 98.29 335.33 97.95C335.33 97.41 335.62 97.33 337.65 97.33C338.92 97.33 340.05 97.48 340.17 97.67C340.28 97.85 339.99 98.35 339.52 98.79C338.7 99.55 338.67 99.73 338.67 103.43C338.67 107.24 338.68 107.28 339.58 107.95C340.3 108.48 340.41 108.71 340.1 109.03C339.67 109.46 336.46 109.78 335.75 109.46ZM397.77 90.25C397.62 90.02 397.5 79.71 397.5 67.33L397.5 44.83L396.34 44.67C395.64 44.57 395.13 44.29 395.07 43.98C394.93 43.21 398.15 37.18 398.77 37.06C399.15 36.99 399.79 37.92 401 40.34C402.8 43.92 402.83 44.67 401.16 44.67C400.66 44.67 400.34 44.92 400.21 45.42C400.1 45.83 400.01 55.93 400 67.87C400 88.46 399.97 89.59 399.39 90.12C398.66 90.77 398.14 90.82 397.77 90.25ZM245.5 83.33C265.3 83.33 271.63 83.24 271.93 82.93C272.22 82.65 272.33 80.62 272.33 75.91L272.33 69.29L273.42 69.4L274.5 69.5L274.6 72.08C274.67 73.92 274.82 74.67 275.12 74.67C275.36 74.67 282.89 70.99 291.86 66.5C302.45 61.2 308.46 58.36 309 58.42L309.83 58.5L309.82 55.33C309.8 50.3 309.31 34.91 309.14 34.08L308.99 33.33L264.41 33.35L219.83 33.37L202.67 41.97L185.5 50.56L185.41 58.66C185.35 64.27 185.44 66.89 185.7 67.2C185.9 67.45 192.09 70.66 199.45 74.34L212.83 81.04L213.74 79.95L214.65 78.87L215.49 79.66C215.95 80.09 216.88 81.25 217.56 82.23C218.39 83.44 218.9 83.9 219.13 83.67C219.35 83.45 228.25 83.33 245.5 83.33ZM78.75 76.1C78.5 76 78.33 75.32 78.33 74.35C78.33 72.5 77.77 71.82 76.5 72.14C75.42 72.41 74.33 71.83 74.33 70.99C74.33 70.43 74.57 70.33 75.93 70.33C76.81 70.33 77.71 70.15 77.93 69.93C78.15 69.71 78.33 68.8 78.33 67.91C78.33 66.34 78.36 66.29 79.25 66.39C80.1 66.49 80.18 66.63 80.33 68.33L80.5 70.17L82.31 70.33C83.3 70.42 84.17 70.66 84.24 70.87C84.45 71.51 83.35 72.1 81.9 72.14L80.5 72.17L80.4 73.71C80.3 75.3 79.54 76.38 78.75 76.1ZM64.36 61.97C64.76 61.4 65.15 60.32 65.23 59.55C65.51 56.81 63.17 54.86 61.85 56.74C61.14 57.76 61.17 60.79 61.91 62.03C62.64 63.28 63.44 63.26 64.36 61.97ZM352.07 53.94C351.85 53.71 351.67 52.89 351.67 52.11C351.67 51.01 351.51 50.61 350.97 50.32C350.59 50.12 350.07 50.03 349.8 50.13C349 50.44 347.67 49.74 347.67 49.01C347.67 48.44 347.88 48.33 349.02 48.33C351.2 48.33 351.67 47.91 351.67 45.97C351.67 44.33 351.69 44.29 352.58 44.39C353.44 44.49 353.51 44.63 353.67 46.33L353.83 48.17L355.64 48.33C356.63 48.42 357.51 48.68 357.58 48.9C357.79 49.54 356.15 50.39 354.94 50.27C353.85 50.17 353.83 50.19 353.65 51.75C353.44 53.57 352.71 54.58 352.07 53.94ZM113.56 49.11C113.43 48.99 113.33 48.57 113.33 48.18C113.33 47.79 113.15 47.29 112.93 47.07C112.63 46.76 107.63 46.67 92.46 46.67C81.42 46.67 72.15 46.58 71.86 46.46C71.55 46.34 71.33 45.87 71.33 45.3L71.33 44.33L91.93 44.33C107.51 44.33 112.63 44.24 112.93 43.93C113.15 43.71 113.33 43.11 113.33 42.6C113.33 42.09 113.5 41.67 113.71 41.67C114.12 41.67 119.92 44.54 120.58 45.08C120.81 45.26 121 45.55 121 45.71C121 45.96 114.43 49.33 113.94 49.33C113.85 49.33 113.68 49.23 113.56 49.11ZM84.13 36.94C83.99 36.71 84.19 36.35 84.61 36.07C85.53 35.46 85.6 33.06 84.75 31.62C84.24 30.76 84.23 30.6 84.67 30.32C84.94 30.14 85.47 30.03 85.83 30.08C86.43 30.16 86.51 30.45 86.59 32.83C86.66 35.05 86.8 35.6 87.37 36.07C87.74 36.39 87.96 36.8 87.84 36.99C87.55 37.47 84.43 37.42 84.13 36.94ZM77.25 36.44C76.46 36.23 76.51 35.26 77.33 34.74C77.94 34.37 78 33.97 78 30.34C78 26.7 77.94 26.33 77.33 26C76.97 25.8 76.67 25.35 76.67 24.99C76.67 24.4 76.9 24.33 79 24.33C81.48 24.33 81.8 24.59 80.76 25.74C80.28 26.28 80.21 26.99 80.28 30.44C80.36 34.05 80.44 34.55 81.03 34.96C81.65 35.4 81.65 35.46 81.12 36.05C80.58 36.65 78.76 36.83 77.25 36.44Z" fill="#1e2749" fill-rule="evenodd"/>
</svg>
