<?xml version="1.0" encoding="UTF-8"?>
<svg xmlns="http://www.w3.org/2000/svg" viewBox="0 0 429 193" width="429" height="193" shape-rendering="geometricPrecision">
<path d="M88.17 169.67C88.05 169.3 88.05 168.85 88.16 168.67C88.3 168.45 108.19 168.33 147.8 168.33C204.95 168.33 207.25 168.31 207.78 167.72C208.29 167.17 208.33 164.77 208.33 140.12C208.33 119.58 208.24 113.04 207.93 112.73C207.66 112.46 205.96 112.33 202.46 112.33C197.59 112.33 197.37 112.3 197.16 111.63C197.03 111.25 197.06 110.8 197.22 110.65C197.54 110.33 224.94 110.16 225.25 110.47C225.36 110.58 225.1 111.04 224.67 111.49C223.9 112.31 223.84 112.32 217.2 112.41L210.5 112.5L210.41 139.96C210.35 159.98 210.43 167.55 210.71 167.88C211.02 168.26 219.78 168.33 263.85 168.33C315.78 168.33 318.21 168.29 316.68 167.34C316.37 167.15 316.28 161.02 316.3 140.65C316.31 121.96 316.21 114.08 315.95 113.77C315.67 113.44 314.21 113.33 309.98 113.33C304.68 113.33 304.37 113.3 304.17 112.67C304.05 112.3 304.05 111.85 304.16 111.67C304.3 111.45 309.13 111.33 317.8 111.33C330.86 111.33 331.25 111.35 331.84 112.01C332.26 112.47 332.34 112.79 332.11 113.03C331.9 113.24 329.17 113.4 325.13 113.44L318.5 113.5L318.45 140.61L318.41 167.73L319.37 168.06C320.53 168.47 320.56 168.67 319.56 169.61L318.79 170.33L203.58 170.33C88.84 170.33 88.38 170.33 88.17 169.67ZM339.52 118.02C339.4 117.84 339.47 117.37 339.67 116.98C339.92 116.53 340.02 114.19 339.97 110.2C339.93 106.85 340 103.93 340.13 103.72C340.26 103.51 340.81 103.33 341.35 103.33L342.33 103.33L342.39 110.17C342.42 113.92 342.46 117.26 342.47 117.58C342.49 118.03 342.19 118.19 341.11 118.27C340.35 118.32 339.63 118.21 339.52 118.02ZM350.15 117.98C350.03 117.78 350.17 117.36 350.47 117.04C351.24 116.18 351.27 103.84 350.5 103.55C350.22 103.44 350 103.14 350 102.87C350 102.47 350.88 102.36 354.92 102.27C360.84 102.13 361.42 102.26 361.27 103.72C361.15 104.95 360.49 105.34 360.18 104.36C359.91 103.54 358.61 103.26 355.69 103.4L353.55 103.5L353.55 106.67L353.55 109.83L355.72 109.93C357.36 110 358 109.9 358.32 109.51C359.19 108.47 359.71 108.9 359.6 110.58C359.52 111.81 359.39 112.13 359 112.01C358.72 111.93 357.36 111.8 355.97 111.74L353.43 111.62L353.59 114.23C353.68 115.66 353.89 117.01 354.07 117.24C354.25 117.46 354.29 117.79 354.18 117.99C353.89 118.44 350.44 118.44 350.15 117.98ZM67.95 117.58C67.16 116.92 66.49 115.65 65.8 113.5C65.29 111.89 65.17 110.5 65.17 106.33C65.17 100.63 65.65 98.25 67.3 95.83C68.56 93.97 69.15 93.94 68.36 95.76C67.57 97.62 66.67 103.17 66.67 106.21C66.67 108.86 67.47 114.17 68.19 116.29C68.74 117.92 68.69 118.19 67.95 117.58ZM83.35 116.29C85.53 110.31 85.35 100.28 82.96 95.59C82.48 94.63 82.6 94.2 83.21 94.7C86.25 97.23 87.64 106.17 85.97 112.52C85.59 113.98 85.09 115.39 84.86 115.67C84.63 115.94 84.35 116.42 84.24 116.73C84.13 117.04 83.74 117.45 83.38 117.64C82.73 117.99 82.73 117.97 83.35 116.29ZM240.12 112.83C240.01 112.55 240.09 112.13 240.28 111.89C240.68 111.42 240.88 100.94 240.5 100.33C240.37 100.13 240.36 99.59 240.48 99.13C240.66 98.42 240.86 98.31 241.76 98.4L242.83 98.5L242.92 105.14C242.97 108.79 243.16 111.95 243.33 112.17C243.84 112.78 243.01 113.33 241.59 113.33C240.76 113.33 240.25 113.16 240.12 112.83ZM250.83 113C250.72 112.82 250.86 112.33 251.15 111.93C251.9 110.85 251.92 99.29 251.17 98.67C249.9 97.61 250.57 97.4 255.58 97.27C261.31 97.12 262 97.26 262 98.6C262 99.97 261.7 100.09 260.59 99.16C259.73 98.43 259.3 98.33 256.97 98.33L254.33 98.33L254.28 101.17C254.26 102.72 254.22 104.19 254.2 104.42C254.18 104.71 254.84 104.83 256.5 104.83C258.6 104.83 258.87 104.76 259.16 104.08C259.34 103.67 259.61 103.33 259.75 103.33C260.25 103.33 260.68 105.08 260.47 106.21C260.22 107.56 259.89 107.83 259.33 107.16C259.04 106.81 258.24 106.67 256.54 106.67L254.15 106.67L254.28 109.25C254.35 110.67 254.54 111.99 254.69 112.19C254.86 112.4 254.82 112.71 254.59 112.94C254.12 113.42 251.12 113.47 250.83 113ZM53.17 112.35C48.49 112.19 47.84 112.1 47.87 111.62C47.9 111.32 49.96 108.06 52.46 104.37C54.96 100.69 57 97.58 57 97.47C57 97.36 55.41 97.32 53.47 97.39C49.8 97.5 49.91 97.46 48.77 99.22C48.43 99.74 48.37 99.57 48.35 98.12C48.33 96.03 47.98 96.13 55.1 96.27C58.94 96.35 60.35 96.49 60.27 96.77C60.21 96.99 58.17 100.14 55.73 103.78C53.01 107.82 51.36 110.59 51.48 110.89C51.64 111.31 52.27 111.38 55.03 111.28L58.39 111.17L59.53 109.92C60.16 109.23 60.76 108.67 60.87 108.67C60.97 108.67 60.96 109.3 60.84 110.08C60.62 111.47 59.64 112.74 58.88 112.6C58.67 112.56 56.1 112.44 53.17 112.35ZM72.73 111.93C72.25 111.45 72.2 109.45 72.67 109.17C72.85 109.05 73.14 109.33 73.31 109.78C73.48 110.23 73.97 110.84 74.4 111.14C75.05 111.6 75.09 111.73 74.67 112C73.98 112.44 73.21 112.41 72.73 111.93ZM77 111.07C77.93 109.81 77.64 109.24 75.29 107.64C73.42 106.37 72.33 104.97 72.33 103.83C72.33 103.1 73.84 101.66 74.57 101.69C74.92 101.71 74.99 101.79 74.75 101.89C74.52 101.98 74.33 102.57 74.33 103.2C74.33 104.19 74.55 104.5 75.89 105.42C78.89 107.51 79.33 107.99 79.33 109.16C79.33 110.02 79.08 110.44 78.19 111.13C76.69 112.27 76.14 112.24 77 111.07ZM119 108.92C119 108.66 119.37 108.1 119.82 107.68C120.28 107.25 120.57 106.77 120.47 106.62C120.37 106.46 114.98 106.33 108.49 106.33C96.99 106.33 96.68 106.32 96.33 105.66C96.13 105.29 96.06 104.84 96.17 104.66C96.3 104.46 100.82 104.33 108.15 104.33C120.98 104.33 121.52 104.26 119.83 102.66C118.88 101.77 118.78 101.33 119.51 101.33C120.33 101.33 126.65 104.79 126.66 105.25C126.66 105.47 125.13 106.45 123.25 107.41C119.29 109.44 119 109.54 119 108.92ZM304.17 107.67C304.05 107.3 304.05 106.85 304.16 106.67C304.29 106.47 306.51 106.33 309.8 106.33C314.64 106.33 315.29 106.27 315.78 105.72C316.28 105.17 316.33 102.94 316.33 80.62C316.33 62.02 316.24 56.04 315.93 55.73C315.63 55.43 311.71 55.33 300.32 55.33L285.1 55.33L284.26 54.56C283.7 54.04 283.35 53.25 283.18 52.15C282.74 49.19 280.92 46.49 278.54 45.26C277.47 44.71 276.57 44.55 274.5 44.55C270.82 44.55 269.32 45.44 267.33 48.83C266.67 49.95 266.55 50.6 266.57 52.83C266.58 54.3 266.44 55.69 266.26 55.92C265.35 57.03 264.55 55.86 264.2 52.92C263.46 46.67 254.86 43.65 250.32 48.05C248.74 49.59 247.99 51.2 247.65 53.79C247.17 57.5 245.55 57.58 245.26 53.9C245.06 51.4 244.42 50.07 242.55 48.21C241 46.68 239.22 46 236.72 46C232.41 46 229.42 48.76 228.37 53.72C227.87 56.07 227.35 56.58 226.24 55.85C225.55 55.4 224.32 55.33 217.97 55.41L210.5 55.5L210.41 79.46C210.35 97.48 210.43 103.54 210.72 103.9C211.04 104.29 212.41 104.36 218.07 104.31C221.89 104.27 225.11 104.34 225.23 104.45C225.35 104.57 225.1 105.04 224.67 105.5L223.88 106.33L210.63 106.33C197.69 106.33 197.37 106.32 197.17 105.67C197.05 105.3 197.05 104.85 197.16 104.67C197.29 104.47 199.35 104.33 202.3 104.33C206.65 104.33 207.29 104.26 207.78 103.72C208.28 103.17 208.33 101.01 208.33 79.62C208.33 61.8 208.24 56.04 207.93 55.73C207.65 55.45 205.52 55.33 200.46 55.33C195.11 55.33 193.35 55.23 193.24 54.92C193.12 54.59 192.94 54.59 192.36 54.93C191.39 55.51 191.1 55.25 190.83 53.58C189.91 47.79 186.87 44.67 182.17 44.67C177.23 44.67 174.05 48.19 174.01 53.71C174 55.28 173.85 56.04 173.48 56.35C172.68 57.01 172.09 56.16 171.71 53.78C170.93 48.93 167.78 45.99 163.37 46.01C158.93 46.02 155.88 49.04 155.39 53.89C155.21 55.65 155.02 56.19 154.42 56.58C153.73 57.04 153.66 57.02 153.34 56.18C153.15 55.69 153 54.8 153 54.2C153 52.63 151.17 49.2 149.63 47.88C147.94 46.43 145.9 45.86 143.27 46.09C140.87 46.31 139.01 47.44 137.63 49.51C136.75 50.83 135.67 54.01 135.67 55.26C135.67 55.62 135.45 56.1 135.19 56.31C134.81 56.63 134.57 56.57 134.02 56.02C133.34 55.34 133.13 55.33 110.86 55.33C88.7 55.33 88.38 55.32 88.17 54.67C88.05 54.3 88.05 53.85 88.16 53.67C88.3 53.45 96.08 53.33 110.8 53.33C136.25 53.33 133.62 53.66 135.1 50.29C136.85 46.31 139.61 44.38 143.83 44.17C147.82 43.98 150.89 45.56 153.02 48.92L153.94 50.37L155.17 48.52C157.13 45.57 159.37 44.32 163 44.15C166.32 43.99 168.58 44.93 170.8 47.38L172.57 49.34L173.82 47.32C174.67 45.94 175.63 44.92 176.86 44.11C178.62 42.93 178.7 42.92 182.12 42.91C186.19 42.9 186.92 43.22 189.61 46.17C191.22 47.93 192.67 51.08 192.67 52.81C192.67 53.5 192.71 53.5 209.25 53.42C225.67 53.33 225.84 53.33 226.42 52.63C226.74 52.24 227 51.63 227 51.27C227 50.31 228.54 47.85 229.87 46.68C231.78 45.01 233.6 44.25 235.99 44.15C240.27 43.97 243.53 45.55 245.58 48.79C246.35 50.02 246.47 50.09 246.8 49.54C249.61 44.83 253.76 43.17 259.17 44.6C260.83 45.04 261.49 45.45 263.1 47.06L265.04 48.99L265.6 47.91C266.54 46.13 269.46 43.42 270.88 43.03C272.47 42.59 276.79 42.56 278.26 42.98C280.89 43.73 283.61 46.83 284.68 50.28C285.05 51.47 285.51 52.65 285.71 52.89C286.01 53.25 289.21 53.33 302.21 53.33L318.33 53.33L318.33 79.46C318.33 101.72 318.4 105.64 318.81 105.98C319.15 106.26 321.13 106.36 325.65 106.3C329.15 106.26 332.11 106.33 332.23 106.45C332.35 106.57 332.1 107.04 331.67 107.5L330.88 108.33L317.63 108.33C304.69 108.33 304.37 108.32 304.17 107.67ZM77.06 102.57C76.13 101.58 76.14 101.33 77.13 101.33C78.26 101.33 78.93 102.21 78.29 102.86C77.85 103.29 77.71 103.25 77.06 102.57ZM244.12 37.83C244.01 37.55 244.09 37.13 244.28 36.89C244.68 36.42 244.88 25.94 244.5 25.33C244.37 25.13 244.36 24.59 244.48 24.13C244.66 23.42 244.86 23.31 245.76 23.4L246.83 23.5L246.92 30.14C246.97 33.79 247.16 36.95 247.33 37.17C247.84 37.78 247.01 38.33 245.59 38.33C244.76 38.33 244.25 38.16 244.12 37.83ZM254.67 37.69C254.67 37.33 254.82 36.95 255 36.83C255.2 36.71 255.33 34.12 255.33 30.19C255.33 24.87 255.25 23.68 254.83 23.33C253.92 22.57 254.31 22.33 256.48 22.33C258.72 22.33 259.34 22.64 258.5 23.34C258.12 23.65 258 24.51 258 26.89L258 30.02L261.25 29.93L264.5 29.83L264.6 26.97C264.67 24.71 264.58 24.01 264.18 23.68C263.06 22.75 263.58 22.33 265.83 22.33C267.82 22.33 268.51 22.65 267.67 23.17C267.2 23.45 267.22 36.89 267.68 37.18C268.45 37.65 267.24 38.33 265.65 38.33C263.8 38.33 263.41 37.97 264.15 36.93C264.49 36.43 264.67 35.43 264.67 33.93L264.67 31.67L261.33 31.67L258 31.67L258 34.27C258 35.73 258.16 37.03 258.37 37.24C259.05 37.91 258.32 38.33 256.48 38.33C254.91 38.33 254.67 38.25 254.67 37.69ZM149.12 35.83C149.01 35.55 149.09 35.13 149.28 34.89C149.68 34.42 149.88 23.94 149.5 23.33C149.37 23.13 149.36 22.59 149.48 22.13C149.66 21.42 149.86 21.31 150.76 21.4L151.83 21.5L151.92 28.14C151.97 31.79 152.16 34.95 152.33 35.17C152.84 35.78 152.01 36.33 150.59 36.33C149.76 36.33 149.25 36.16 149.12 35.83ZM160 35.69C160 35.33 160.15 34.95 160.33 34.83C160.54 34.71 160.67 32.12 160.67 28.19C160.67 22.87 160.58 21.68 160.17 21.33C159.24 20.56 159.66 20.33 162 20.33C164.19 20.33 165.05 20.75 163.83 21.21C163.44 21.37 163.33 22.08 163.33 24.71L163.33 28.02L166.58 27.93L169.83 27.83L169.93 24.85C170.01 22.45 169.93 21.82 169.51 21.59C169.23 21.43 169 21.08 169 20.82C169 20.44 169.5 20.33 171.17 20.33C173.27 20.33 173.68 20.52 173.02 21.18C172.53 21.68 172.5 34.57 172.99 35.16C173.65 35.95 173.06 36.33 171.17 36.33C169.19 36.33 168.66 35.93 169.47 35.04C169.85 34.61 170 33.78 170 32.06L170 29.67L166.67 29.67L163.33 29.67L163.33 32.27C163.33 33.73 163.5 35.03 163.7 35.24C164.38 35.91 163.65 36.33 161.81 36.33C160.24 36.33 160 36.25 160 35.69Z" fill="#1e2749" fill-rule="evenodd"/>
</svg>
