<?xml version="1.0" encoding="UTF-8"?>
<svg xmlns="http://www.w3.org/2000/svg" viewBox="0 0 2430 936" width="2430" height="936" shape-rendering="geometricPrecision">
<path d="M1570.08 885.48C1543.42 880.65 1525.09 857.72 1523.29 826.96C1522.55 814.27 1524.72 803.23 1530.17 792.06C1541.15 769.55 1566.41 756.91 1591.5 761.36C1621.37 766.65 1641 791.1 1641 823C1641 853.63 1620.92 879.62 1592.79 885.41C1583.74 887.28 1580.08 887.29 1570.08 885.48ZM1656.75 883.31C1653.62 882.49 1654.84 880.12 1658.75 879.41C1664.55 878.36 1667.66 876.36 1669.08 872.78C1670.07 870.3 1670.48 857.94 1670.77 822.25L1671.15 775L1668.21 772.05C1666.58 770.43 1664.07 768.85 1662.63 768.55C1661.18 768.25 1658.88 767.77 1657.5 767.48C1654.39 766.83 1654.23 764.44 1657.25 763.63C1660.18 762.84 1700.82 762.84 1703.75 763.63C1708.32 764.86 1705.37 767.24 1697.74 768.48C1691.02 769.58 1690.55 771.28 1690.15 796.22L1689.8 818.03L1716.65 817.77L1743.5 817.5L1743.81 801.5C1743.97 792.7 1743.83 783.13 1743.48 780.24C1742.73 773.92 1739.38 769.44 1734.72 768.5C1729.06 767.36 1728 766.89 1728 765.55C1728 764.83 1729.01 763.96 1730.25 763.63C1733.2 762.84 1773.83 762.85 1776.79 763.64C1780.48 764.63 1778.78 766.38 1772.5 768.06C1763.01 770.6 1763.55 767.67 1763.19 819.12C1762.98 847.65 1763.25 865.96 1763.93 869.68C1765.08 875.98 1767.54 879 1771.55 879C1772.82 879 1775.14 879.48 1776.68 880.07C1779.4 881.11 1779.43 881.2 1777.56 882.57C1776.02 883.71 1771.16 884 1754.06 883.99C1742.2 883.98 1731.49 883.7 1730.25 883.37C1726.45 882.35 1727.74 880.36 1733.15 878.89C1742.33 876.41 1743.62 872.41 1744.16 845L1744.5 827.5L1717.25 827.23L1690 826.97L1690.06 846.73C1690.09 857.61 1690.43 868.29 1690.82 870.47C1691.65 875.13 1695.75 878.44 1702.02 879.5C1706.38 880.24 1707.05 881.37 1704.07 882.96C1702.17 883.98 1660.47 884.28 1656.75 883.31ZM1594.61 875.51C1601.56 872.42 1610.53 863.25 1614.07 855.61C1619.57 843.76 1620.56 812.6 1615.93 797.41C1612.34 785.64 1605.38 776.82 1595.8 771.87C1589.87 768.81 1577.19 768.11 1570.15 770.45C1559.64 773.94 1550.62 785.77 1546.86 801C1544.8 809.31 1545.09 836.69 1547.32 845C1554.76 872.7 1573.6 884.86 1594.61 875.51ZM1559.87 726.35C1558.73 724.97 1558.5 710.01 1558.5 638C1558.5 542.87 1558.19 547.59 1564.41 548.2C1570.34 548.78 1570.24 547.6 1570.45 620.41C1570.56 656.76 1570.39 694.89 1570.07 705.15C1569.57 721.6 1569.28 724.04 1567.6 725.9C1565.31 728.42 1561.76 728.62 1559.87 726.35ZM1191.28 548.05C1185.76 546.7 1182.84 544.22 1183.19 541.19C1183.45 538.89 1184.03 538.46 1187.1 538.2C1189.09 538.03 1193.14 538.82 1196.1 539.95C1203.07 542.59 1204.75 542.53 1209.26 539.47C1215.62 535.15 1217.84 527.46 1214.55 521.1C1212.63 517.39 1206.59 512.16 1203.48 511.51C1202.12 511.23 1199.88 510.77 1198.5 510.48C1194.82 509.72 1195.18 506.41 1199.02 505.65C1200.75 505.3 1203.92 503.1 1206.48 500.47C1213.79 492.94 1213.62 486.56 1205.95 481.25C1204.17 480.01 1201.4 479 1199.8 479C1196.16 479 1191.14 481.55 1188.71 484.64C1186.43 487.54 1185 487.66 1185 484.95C1185 482.23 1187.26 478.02 1190.17 475.3C1198.39 467.62 1214.68 468.65 1220.03 477.19C1223.19 482.22 1222.4 490.33 1218.2 496.05C1216.44 498.44 1215 500.75 1215 501.19C1215 501.63 1217.2 504.13 1219.89 506.75C1223.85 510.6 1224.98 512.49 1225.88 516.75C1228 526.88 1223.82 536.55 1214.62 542.74C1207.82 547.32 1197.7 549.62 1191.28 548.05ZM977.28 521.49C962.13 518.2 948.61 507.65 941.22 493.37C936.03 483.32 933.84 473.52 933.86 460.5C933.92 431.17 949.32 408.75 975.5 399.87C981.27 397.92 984.52 397.5 994 397.5C1004.47 397.5 1006.33 397.8 1014.8 400.82C1019.92 402.64 1025.09 403.98 1026.29 403.81C1027.49 403.64 1029.38 402.05 1030.48 400.29C1032.66 396.83 1035.41 396.03 1036.39 398.58C1036.73 399.45 1037.45 405.64 1038 412.33C1038.55 419.02 1039.2 426.94 1039.44 429.92C1039.9 435.44 1038.69 439.54 1036.92 438.45C1036.39 438.12 1034.11 434.2 1031.87 429.74C1027.34 420.73 1019.12 411.7 1012.5 408.46C1009.15 406.82 1006.38 406.5 995.48 406.5L982.45 406.5L977.21 409.86C966.8 416.55 960.33 426.42 957.46 440C955.64 448.65 955.36 470.52 956.97 479C961.17 501.18 982.04 516.25 1004.2 513.11C1013.51 511.8 1018.88 508.81 1028.88 499.4C1034.22 494.37 1038.64 491 1039.9 491C1041.06 491 1042 491.37 1042 491.83C1042 493.78 1035.58 502.08 1029.74 507.69C1016.03 520.86 997.18 525.81 977.28 521.49ZM1558.19 520.98C1547.81 518.25 1541.52 514.58 1533.5 506.53C1521.41 494.4 1516.66 481.63 1516.56 461C1516.51 449.81 1516.8 447.57 1519.4 439.65C1522.59 429.93 1529.41 418.67 1535.62 412.89C1540.76 408.11 1550.09 402.56 1557.5 399.87C1562.38 398.09 1565.83 397.67 1576 397.59C1587.43 397.51 1589.14 397.74 1596 400.34C1600.12 401.9 1605.18 403.4 1607.22 403.69C1610.66 404.17 1611.11 403.93 1613.07 400.6C1615.55 396.4 1617.67 395.99 1618.99 399.47C1620.41 403.2 1622.53 436.87 1621.42 437.98C1619.88 439.52 1618.45 437.88 1614.54 430.09C1610.34 421.73 1602.69 413.07 1596.08 409.2C1592.14 406.89 1590.31 406.55 1580.02 406.18C1565.19 405.65 1560.76 407.29 1552.15 416.5C1541.45 427.94 1538.63 437.06 1538.56 460.5C1538.51 474.37 1538.8 477.45 1540.75 483.63C1543.64 492.84 1548.18 499.39 1555.61 505.05C1563.37 510.96 1571.14 513.45 1581.5 513.36C1593.76 513.24 1599.08 510.77 1610.44 499.91C1619.14 491.59 1624.01 488.84 1624 492.25C1623.98 496.92 1609.47 511.99 1600.41 516.75C1588.37 523.07 1572.31 524.67 1558.19 520.98ZM251.93 520.68C245.6 518.91 239 514.85 234.71 510.1C226.84 501.39 224.56 492.96 225.16 474.84C225.53 463.75 225.88 461.77 228.33 456.75C232.17 448.9 238.74 441.96 245.65 438.46C251.03 435.74 252.34 435.5 262 435.5C270.85 435.5 273.29 435.86 277.5 437.8C288.97 443.09 294.13 452.75 288.99 459.29C283.39 466.4 273.87 462.09 271.57 451.39C269.91 443.67 259.57 439.65 252 443.79C243.48 448.45 238.69 462.76 240.87 476.99C243.67 495.32 255.51 507.82 267.87 505.5C275.42 504.08 280.36 500.39 285.6 492.25C287.95 488.6 289.63 487 291.12 487C293.03 487 293.2 487.4 292.67 490.66C291.71 496.55 286.9 505.1 281.42 510.65C272.43 519.75 261.67 523.41 251.93 520.68ZM432.93 520.68C422.58 517.78 414.46 510.71 409.22 500.03C406.6 494.71 406.5 493.88 406.5 478.5C406.5 463.02 406.59 462.32 409.29 456.82C412.92 449.42 420.12 441.93 427 438.39C432 435.81 433.46 435.55 443 435.53C451.88 435.5 454.27 435.85 458.5 437.8C470.74 443.44 475.56 453.59 469.08 460.08C467.47 461.68 465.2 463 464.03 463C458.72 463 453 457.31 453 452.03C453 450.9 451.52 448.36 449.72 446.39C442.92 438.97 431.76 441.24 426.07 451.2C415.55 469.62 424.08 500.05 441.21 505.18C449.98 507.81 460.21 502.59 466.98 492.03C469.11 488.71 470.9 487 472.24 487C474.01 487 474.19 487.45 473.67 490.67C472.08 500.47 461.6 514.02 452 518.69C446.18 521.52 438.7 522.3 432.93 520.68ZM635.73 520.96C626.61 518.69 618.92 512.7 613.6 503.69C609.17 496.22 607.59 487.42 608.19 473.8C608.59 464.75 609.08 462.43 611.75 456.71C617.9 443.58 628.6 436.12 642.51 435.25C659.59 434.18 674 442.75 674 453.96C674 457.75 669.34 463 665.98 463C661.29 463 655 456.99 655 452.5C655 451.57 654.26 449.56 653.36 448.04C647.66 438.38 633.2 440.74 627.59 452.25C622.59 462.49 622.47 478.26 627.31 489.12C630.09 495.38 636.7 502.56 641.55 504.59C651.01 508.54 661.47 503.73 669.02 491.97C671.12 488.69 672.9 487 674.24 487C676.02 487 676.2 487.47 675.73 490.98C675.44 493.17 674.18 497.07 672.93 499.65C670 505.69 659.76 516.04 654 518.77C648.61 521.32 640.9 522.24 635.73 520.96ZM769 520.45C759.64 517.52 749.94 507.8 746.08 497.49C743.52 490.65 743.23 475.38 745.49 466.69C748.83 453.88 756.57 443.57 766.72 438.43C773.95 434.76 785.25 433.87 792.63 436.39C799.97 438.89 800.36 438.13 799.49 423.05C798.55 406.64 798.28 406 792.46 406C788.26 406 787.89 405.8 788.18 403.75C788.7 400.11 804.78 393 812.49 393L816.91 393L817.2 448.25C817.43 490.98 817.79 504.01 818.79 505.75C819.82 507.57 820.95 508 824.62 508C827.8 508 829.05 508.38 828.78 509.25C827.85 512.24 803.45 523.02 801.02 521.51C800.46 521.17 800 519.36 800 517.5C800 515.64 799.6 513.87 799.11 513.57C798.62 513.26 795.6 514.59 792.4 516.52C783.01 522.17 777.46 523.1 769 520.45ZM1935.78 520.47C1904.55 514.26 1885.2 480.43 1892.5 444.82C1894.52 434.98 1901.74 420.53 1908.18 413.5C1914.65 406.42 1925.92 399.72 1935.21 397.45C1945.59 394.91 1963.94 395.85 1973.27 399.41C1982.8 403.05 1985.55 402.87 1988.16 398.46C1992.1 391.78 1994.35 395.73 1995.9 412.05C1997.39 427.7 1997.31 434.49 1995.63 435.89C1993.88 437.34 1992.96 436.26 1989.74 428.96C1982.29 412.07 1970.75 404 1954.08 404C1935.57 404 1924.04 411.97 1917.57 429.24C1912.07 443.92 1911.49 471.37 1916.4 484.37C1920.92 496.31 1928.92 504.8 1939.79 509.19C1944.49 511.09 1947.36 511.5 1956 511.5C1965.59 511.5 1967.02 511.25 1972.48 508.57C1976.22 506.73 1981.67 502.53 1987.08 497.32C1995.19 489.5 1999 487.26 1999 490.33C1999 492.74 1993.17 500.52 1986.74 506.69C1973.22 519.68 1955.65 524.43 1935.78 520.47ZM2066.5 521.37C2055.82 519.27 2052.7 518.37 2047.5 515.91C2028.45 506.88 2016.73 488.05 2014.57 463C2012.96 444.41 2019.89 424.27 2032.07 412.09C2043.02 401.14 2062.08 394.03 2076.5 395.52C2104.6 398.42 2123.55 414.68 2130.65 442C2133.03 451.19 2132.82 466.34 2130.16 476.26C2125.84 492.35 2113.28 508.05 2098.94 515.29C2088.97 520.32 2074.71 522.99 2066.5 521.37ZM2188.58 520.94C2171.56 518.09 2159.15 510.03 2150.02 495.91C2144.91 488 2142.35 481.04 2140.39 469.68C2137.67 453.98 2139.85 439.86 2147.17 425.79C2155.55 409.68 2170.04 399.48 2189.14 396.23C2197.97 394.73 2199.26 394.73 2207.57 396.32C2235.5 401.67 2253.67 421.71 2256.98 450.82C2258.81 466.89 2255.33 481.22 2246.33 494.79C2237.02 508.8 2224.21 517.54 2208.66 520.51C2200.16 522.13 2196.17 522.21 2188.58 520.94ZM161 519.85C155.13 518.77 152.11 516.44 148.77 510.42C143.57 501.03 145.65 489.02 153.72 481.94C157.14 478.94 172.64 470.85 183.68 466.3C188.62 464.27 188.88 463.97 189.53 459.63C191.07 449.4 185.41 442 176.07 442C173.53 442 170.46 442.69 169.26 443.53C166.97 445.14 165.02 450.55 165.01 455.33C165 458.99 160.1 464 156.53 464C150.16 464 147.2 456.24 150.54 448.25C152.62 443.27 154.61 441.25 160.5 438.15C165.15 435.7 166.4 435.52 178.5 435.51C190.03 435.5 191.97 435.75 195.66 437.72C200.58 440.36 203.56 443.88 205.07 448.87C205.68 450.86 206.55 463.85 207.01 477.72C207.47 491.59 208.13 503.85 208.49 504.97C209.29 507.5 210.79 507.51 214 505C216.71 502.88 220 502.36 220 504.05C220 507.28 214.17 514.25 208.03 518.35C205.28 520.19 199.47 520.51 195.6 519.04C193.95 518.41 192.78 516.94 192.23 514.79C191.75 512.94 190.63 511.36 189.66 511.17C188.72 510.99 184.47 512.85 180.22 515.3C171.78 520.17 167.85 521.11 161 519.85ZM322.56 519.46C318.18 517.95 315.39 515.6 313.15 511.5C311.75 508.94 311.46 503.87 311.17 476.75L310.83 445L307.17 444.99C298.22 444.95 296.17 441.44 302.55 437.09C308.17 433.27 315.4 424.75 319.09 417.59C324.88 406.41 327 408.97 327 427.12L327 437L331.86 437C339.59 437 345.84 438.14 346.42 439.65C346.71 440.42 346.06 441.94 344.98 443.02C343.33 444.67 341.64 445 334.87 445L326.74 445L327.2 473.75C327.67 503.3 328.02 505.87 331.88 507.94C333.31 508.7 334.92 508.16 339.11 505.49C342.07 503.6 345.06 502.04 345.75 502.03C349.8 501.94 343.68 512.2 337.07 516.57C331.72 520.11 327.13 521.03 322.56 519.46ZM545 520.01C538.88 518.87 535.16 516.21 532.02 510.73C528.13 503.95 527.93 496.83 531.44 489.31C534.47 482.78 538.97 479.4 554 472.32C574.71 462.57 572.46 464.35 572.76 457.5C572.91 454.09 572.47 450.44 571.74 449.03C569.63 444.93 564.31 442 558.96 442C552.07 442 549.93 444.12 548.85 452.02C547.84 459.37 546.01 462.71 542.49 463.59C533.07 465.96 528.92 454.83 535.49 444.85C537.06 442.47 539.92 440.21 543.69 438.36C548.61 435.96 550.98 435.48 559.49 435.16C570.45 434.76 575.94 435.8 581.01 439.25C588.84 444.58 589.66 448.07 590.61 480.43C591.41 507.49 591.71 508.58 597.23 505.17C601.45 502.56 603 502.43 603 504.7C603 507.54 598 513.81 593.2 516.99C585.64 522 578.12 520.91 575.4 514.42C574.62 512.54 573.29 511 572.46 511C571.63 511 567.48 512.98 563.23 515.4C555.13 520.01 550.82 521.1 545 520.01ZM1064.5 520.08C1052.76 519.4 1051.22 517.73 1059.89 515.12C1063.44 514.05 1066.01 512.53 1067.39 510.67C1069.47 507.9 1069.5 507.08 1069.5 460.68C1069.5 434.73 1069.16 412.28 1068.74 410.78C1067.87 407.67 1065.65 406.25 1059.12 404.64C1056.33 403.95 1054.4 402.87 1054.22 401.9C1053.97 400.58 1055.28 400.21 1061.71 399.75C1070.03 399.16 1104.09 399.75 1104.84 400.5C1105.93 401.6 1102.54 403.9 1098.95 404.51C1090.07 406.01 1089.15 409.01 1089.06 436.78C1089.01 450.54 1089.31 455.17 1090.25 455.51C1090.94 455.76 1102.97 455.64 1117 455.23L1142.5 454.5L1142.5 433.32C1142.5 408.09 1142.3 407.52 1132.41 404.99C1128.65 404.03 1126.41 402.91 1126.22 401.9C1125.96 400.56 1127.43 400.21 1135.21 399.72C1147.24 398.97 1176.14 399.74 1177.24 400.84C1178.58 402.18 1175.7 403.93 1170.56 404.89C1167.95 405.38 1165.38 406.22 1164.83 406.77C1162.79 408.81 1162.07 422.54 1162.05 459.5C1162.04 497.96 1162.84 510.26 1165.56 512.99C1166.38 513.82 1169.4 514.96 1172.27 515.52C1175.76 516.2 1177.5 517.04 1177.5 518.02C1177.5 519.21 1175.03 519.63 1164.75 520.17C1146.98 521.09 1126.5 519.97 1126.5 518.06C1126.5 517.25 1128.02 516.26 1130 515.77C1141.63 512.94 1141.98 512.16 1143.2 486.26C1143.73 475.05 1143.92 465.23 1143.61 464.44C1143.15 463.24 1138.61 463 1116.03 463L1089 463L1089.01 481.25C1089.02 510.35 1090.19 514.16 1099.56 515.56C1104.1 516.24 1105.92 517.53 1104.36 518.97C1103.18 520.05 1076.74 520.79 1064.5 520.08ZM32.75 518.34C30.76 517.79 30.34 515 32.25 514.99C35.43 514.98 41.22 512.68 44.03 510.32L47.12 507.72L46.81 459.11C46.45 402.14 46.95 405.04 37.05 403.09C30.38 401.78 28.99 399.65 34.12 398.62C38.17 397.82 77.35 397.83 82.26 398.64C85.26 399.14 85.8 399.54 84.91 400.61C84.3 401.34 82.16 402.24 80.15 402.61C73.78 403.76 69.32 406.02 67.9 408.8C66.82 410.91 66.45 419.7 66.18 449C65.78 492.4 66.34 503.97 69.01 507.25C70.78 509.43 71.37 509.5 88.67 509.47C104.65 509.44 106.98 509.21 111.15 507.32C117 504.65 122.49 499.19 127.05 491.5C130.69 485.35 134 483.13 134 486.85C134 490.17 125.96 515.39 124.39 517C123.14 518.28 116.55 518.52 78.72 518.67C54.4 518.76 33.71 518.61 32.75 518.34ZM350.25 518.34C347.98 517.42 348.95 515.26 351.89 514.67C357.18 513.61 360.2 509.99 361.06 503.67C362.18 495.43 360.66 453.04 359.15 450.25C358.17 448.43 357.07 448 353.46 448C343.59 448 350.47 441.88 366.28 436.6C368.92 435.72 372.4 435 374.03 435L377 435L377.1 443.75C377.15 448.56 377.49 465.14 377.85 480.6C378.58 511.96 378.33 510.92 385.93 514.29C390.06 516.12 390.24 516.35 388.49 517.63C387.06 518.68 382.46 518.98 369.06 518.92C359.4 518.88 350.94 518.62 350.25 518.34ZM689.25 518.34C686.99 517.43 687.94 515.17 690.86 514.53C692.43 514.19 695.02 512.54 696.61 510.88L699.5 507.86L699.42 481.17C699.33 449.45 699.15 448.67 691.74 448.2C687.88 447.95 687 447.54 687 446.02C687 444.74 688.66 443.37 692.25 441.69C701.19 437.51 709.58 434.82 712.6 435.17L715.5 435.5L716.11 469C716.45 487.43 716.78 503.98 716.86 505.8C717.02 509.67 720.69 513.55 725.08 514.52C728.46 515.26 728.82 516.49 726.07 517.96C724.13 519 691.7 519.33 689.25 518.34ZM2272.75 518.34C2269.15 517.34 2271.01 515.14 2276.39 514.02C2279.35 513.41 2282.53 512.07 2283.45 511.06C2286.35 507.86 2286.96 497.73 2286.98 452.84L2287 409.18L2283.92 406.59C2282.23 405.16 2279.76 403.77 2278.42 403.5C2277.09 403.22 2274.88 402.77 2273.5 402.48C2270 401.75 2270.38 399.37 2274.12 398.62C2278.12 397.83 2316.77 397.83 2319.75 398.63C2324.31 399.85 2321.8 401.87 2313.51 403.65C2307.16 405.01 2306.68 406.94 2306.58 431.49L2306.5 452.5L2332.38 452.77C2352.08 452.97 2358.62 452.73 2359.78 451.77C2361.08 450.69 2361.21 447.93 2360.67 432.5C2360.32 422.6 2359.55 412.79 2358.96 410.7C2357.8 406.62 2353.28 403.01 2349.33 403C2342.9 402.99 2342.04 399.41 2348.25 398.49C2354 397.64 2393.64 398.3 2394.6 399.27C2395.93 400.6 2393.35 402.19 2388.36 403.12C2385.71 403.62 2382.92 404.65 2382.16 405.42C2379.66 407.91 2378.84 424.64 2379.25 465C2379.73 512.67 2379.57 511.82 2388.5 513.89C2395.74 515.57 2396.02 515.78 2393.56 517.58C2392.02 518.7 2387.11 519 2370.06 518.99C2358.2 518.98 2347.49 518.7 2346.25 518.37C2342.43 517.35 2343.74 515.26 2348.99 514C2355.56 512.43 2358.55 508.9 2359.35 501.82C2359.68 498.89 2360.25 488.74 2360.61 479.25L2361.28 462L2333.5 462L2305.72 462L2306.27 485.23L2306.82 508.45L2309.43 510.69C2310.86 511.92 2313.94 513.42 2316.27 514.02C2323.31 515.82 2323.49 515.91 2322.12 517.28C2321.24 518.16 2314.41 518.54 2297.7 518.66C2284.94 518.75 2273.71 518.6 2272.75 518.34ZM2086.67 509.91C2093.99 506.4 2102.19 497.98 2105.66 490.41C2109.03 483.08 2110.33 471.08 2109.73 453.04C2109.04 432.04 2105.79 422.91 2095.39 412.65C2089.18 406.53 2082.36 403.99 2072.21 404.02C2056.7 404.07 2046.17 412.34 2040.53 428.91C2034.12 447.77 2035.09 475.11 2042.78 492C2051.54 511.25 2069.02 518.38 2086.67 509.91ZM2208 511.8C2216.12 509.27 2226 499.91 2230.42 490.57C2233.91 483.21 2235.35 470.42 2234.73 452.51C2234.32 440.75 2233.75 436.22 2232.1 431.58C2227.89 419.76 2220.9 411.07 2212.24 406.87C2205.62 403.67 2193.04 403.08 2185.81 405.63C2175.24 409.36 2166.71 420.96 2163.24 436.34C2161.05 446.08 2161.1 470 2163.33 479.23C2169.78 505.87 2186.92 518.37 2208 511.8ZM794.38 506.08L799.1 502.84L798.8 478.59L798.5 454.35L795.75 450.19C789.77 441.17 777.66 439.33 770.15 446.32C768.86 447.52 766.64 450.75 765.21 453.5C762.89 457.97 762.57 459.91 762.19 471.75C761.85 482.36 762.11 486.04 763.47 490.25C765.55 496.67 770.72 503.54 776.31 507.34C781.87 511.11 787.66 510.71 794.38 506.08ZM183 504.68L189.5 501.5L189.78 486.75C189.96 477.17 189.69 472 189.03 472C186.16 472 171.92 480.08 167.76 484.07C163.15 488.49 163 488.81 163 494.45C163 500 163.2 500.47 167.45 504.71C172.51 509.78 172.58 509.78 183 504.68ZM567.79 504.13C571.89 501.72 572.57 500.83 573.28 496.94C574.22 491.85 573.79 473.46 572.71 472.38C571.44 471.11 553.41 480.77 550.17 484.46C544.66 490.73 544.7 499.44 550.26 504.69C552.04 506.38 554.17 507.96 555 508.22C557.24 508.91 562.52 507.22 567.79 504.13ZM1675.38 444.07C1662.44 443.43 1660 442.53 1660 438.41C1660 433.42 1658.45 433.5 1750 433.51C1815.01 433.51 1836.16 433.81 1838.25 434.73C1841.55 436.2 1841.78 438.74 1838.93 442.37L1836.85 445L1762.18 444.83C1721.1 444.74 1682.05 444.4 1675.38 444.07ZM1280 442C1277.8 439.8 1277.54 438.28 1278.98 436C1279.76 434.76 1283.98 434.41 1303.21 434C1334.89 433.32 1455.09 434.39 1457.17 435.37C1462.16 437.72 1459.2 442.05 1451.9 443.09C1448.93 443.51 1409.49 443.89 1364.25 443.93C1283.28 444 1281.97 443.97 1280 442ZM363.31 408.59C360.95 406.56 360.52 405.43 360.6 401.59C360.73 395.37 362.97 393 368.72 393C374.31 393 376.52 394.2 377.82 397.91C381.02 407.1 370.54 414.81 363.31 408.59ZM701.75 409.02C699.42 407.18 699 406.11 699 401.93C699 395.39 701.29 393 707.55 393C713.37 393 717 396.22 717 401.4C717 409.04 707.68 413.7 701.75 409.02ZM1559.79 356.75C1558.77 354.98 1558.44 337.15 1558.23 272.96C1558.08 228.12 1558.3 189.02 1558.73 186.07C1559.58 180.13 1561.31 178.36 1565.27 179.35C1570.16 180.58 1570.26 181.95 1570.42 256.42C1570.61 341.01 1570.24 353.98 1567.6 356.9C1565.08 359.67 1561.41 359.6 1559.79 356.75ZM1513.25 160.34C1510.67 159.29 1512.08 157.08 1515.75 156.41C1522.02 155.28 1524.81 153.33 1526.02 149.25C1527.29 144.98 1528.71 59.58 1527.6 53.7C1526.78 49.32 1522.63 46.03 1516.97 45.27C1513.02 44.74 1510.08 42.59 1511.44 41.23C1512.46 40.21 1561.65 40.31 1562.67 41.33C1563.98 42.64 1560.33 44.72 1555.44 45.46C1547.9 46.59 1547.55 47.76 1547.18 73.22L1546.86 95.03L1573.68 94.77L1600.5 94.5L1600.81 79.5C1601.24 58.59 1600.51 52.6 1597.07 48.76C1595.07 46.51 1593.13 45.52 1589.92 45.09C1584.41 44.35 1583.27 41.6 1588.08 40.63C1592.17 39.82 1627.32 39.83 1632.29 40.65C1634.41 41 1635.91 41.76 1635.71 42.39C1635.34 43.49 1634.36 43.87 1626.33 45.95C1622.36 46.98 1622.11 47.28 1621.08 52.07C1619.81 57.99 1619.68 139.82 1620.93 147.44C1621.82 152.85 1624.62 156 1628.55 156C1629.82 156 1632.14 156.48 1633.68 157.07C1636.4 158.11 1636.43 158.2 1634.56 159.57C1633.02 160.71 1628.06 161 1610.39 161C1598.17 161 1587.45 160.73 1586.58 160.39C1583.91 159.37 1584.83 157.2 1588.25 156.46C1599.03 154.14 1600.01 151.66 1600.74 124.83L1601.31 104L1574.1 104L1546.9 104L1547.2 127.56L1547.5 151.12L1550 153.03C1551.38 154.08 1554.86 155.47 1557.75 156.13C1563.36 157.4 1564.15 158.31 1561.07 159.96C1559.12 161.01 1515.74 161.34 1513.25 160.34Z" fill="#1e2749" fill-rule="evenodd"/>
</svg>
