<?xml version="1.0" encoding="UTF-8"?>
<svg xmlns="http://www.w3.org/2000/svg" viewBox="0 0 680 242" width="680" height="242" shape-rendering="geometricPrecision">
<path d="M178.67 219.56C177.76 219.26 177.48 218.96 177.39 218.25C177.27 217.2 177.36 217.18 179.17 217.81C181.58 218.66 183.64 217.65 183.66 215.61C183.67 214.26 182.28 213.33 180.27 213.33C178.67 213.33 178.63 213.31 178.73 212.42C178.82 211.59 178.99 211.48 180.38 211.32C182.41 211.09 183 210.56 183 208.95C183 207.8 182.87 207.59 181.83 207.1C180.74 206.58 180.59 206.58 179.49 207.1C177.95 207.84 177.67 207.81 177.67 206.95C177.67 205.81 178.63 205.36 181.08 205.34C183.07 205.33 183.44 205.44 184.36 206.26C185.64 207.41 185.78 209.23 184.7 210.69C183.82 211.88 183.82 212.39 184.69 212.94C185.76 213.6 186.4 215.44 185.98 216.57C184.89 219.42 181.88 220.66 178.67 219.56ZM568.92 218.81C568.39 218.53 568 218.03 568 217.65C568 217.04 568.16 217.01 570.3 217.21C572.48 217.41 572.66 217.37 573.47 216.56C574.55 215.48 574.57 214.54 573.52 213.48C572.89 212.86 572.34 212.67 571.22 212.67C569.66 212.67 568.78 212.05 569.11 211.19C569.24 210.85 569.74 210.72 570.69 210.76C571.83 210.8 572.22 210.65 572.87 209.89C573.8 208.8 573.89 207.61 573.11 206.82C572.56 206.27 572.33 206.27 569.18 206.74C568.3 206.87 568.07 205.68 568.86 205.11C569.22 204.84 570.38 204.67 571.76 204.67C573.85 204.67 574.14 204.75 575.03 205.64C576.29 206.9 576.32 208.43 575.13 210.18L574.27 211.46L575.32 212.32C576.71 213.46 577 215.35 576.03 216.9C574.71 219.01 571.08 219.98 568.92 218.81ZM142.5 213.9C140.56 212.98 138.86 211.18 137.88 209.02C136.94 206.93 136.87 200.68 137.77 198.11C138.53 195.93 140.46 193.72 142.5 192.7C145.41 191.25 150.46 191.74 152.39 193.67C153.47 194.75 153.51 194.96 152.87 195.84C152.42 196.46 152.36 196.45 150.61 195.57C148.37 194.44 145.62 194.34 143.68 195.33C140.14 197.13 139.19 205.72 142.08 209.78C142.94 210.99 145.09 211.98 146.83 211.99C147.57 211.99 148.97 211.62 149.95 211.16C151.99 210.21 152.94 210.12 153.21 210.84C153.51 211.61 152.47 212.92 150.91 213.72C149.91 214.24 148.73 214.48 146.83 214.57C144.55 214.68 143.93 214.59 142.5 213.9ZM157.37 214.21C157.1 213.89 157.02 210.65 157.08 202.96L157.17 192.17L158.07 192.06C158.56 192.01 159.27 192.12 159.64 192.32C160.25 192.65 160.32 193.06 160.41 196.92L160.5 201.17L164.79 201.26C167.66 201.32 169.23 201.23 169.54 200.97C169.88 200.68 170 199.61 170 196.69C170 192.6 170.19 192 171.5 192C172.97 192 173 192.26 173 203.41L173 214.02L172.14 214.34C171.58 214.56 171.07 214.55 170.66 214.33C170.08 214.02 170.03 213.6 170.07 209.56C170.1 207.12 170.01 204.95 169.87 204.73C169.7 204.45 168.22 204.33 165.01 204.33L160.4 204.33L160.28 209.03C160.18 213.21 160.1 213.77 159.52 214.19C158.7 214.79 157.86 214.8 157.37 214.21ZM533.39 213.46C531.59 212.79 529.93 211.16 528.78 208.91C528.03 207.44 527.87 206.62 527.74 203.64C527.56 199.51 528.06 197.3 529.75 194.82C531.35 192.47 533.59 191.32 536.72 191.24C540.76 191.15 543.97 192.68 543.61 194.53C543.42 195.49 542.46 195.88 541.77 195.28C540.12 193.84 535.48 193.59 533.79 194.86C532.25 196.01 531.24 198.44 531.06 201.41C530.78 206.31 531.96 209.29 534.75 210.71C536.44 211.57 539.07 211.42 540.87 210.36C542.26 209.54 543.28 209.47 543.55 210.19C543.9 211.08 543.12 212.2 541.61 213C539.72 214.01 535.52 214.24 533.39 213.46ZM547.96 213.45C547.59 213.01 547.5 210.88 547.5 202.87C547.5 197.35 547.61 192.5 547.74 192.08C547.92 191.54 548.24 191.33 548.93 191.33C550.49 191.33 550.67 191.81 550.67 195.87C550.67 197.93 550.76 199.85 550.87 200.14C551.04 200.58 551.77 200.67 555.47 200.67C558.44 200.67 560 200.54 560.27 200.27C560.53 200 560.67 198.59 560.67 196.13C560.67 194.07 560.76 192.15 560.87 191.86C561.11 191.24 562.69 191.15 563.27 191.73C563.56 192.03 563.67 194.84 563.67 202.33C563.67 211.01 563.59 212.63 563.15 213.26C562.51 214.17 561.47 214.22 561.01 213.36C560.82 213 560.67 210.76 560.67 208.37C560.67 204.41 560.61 203.99 560.02 203.68C559.33 203.31 552.67 203.21 551.42 203.54C550.69 203.74 550.67 203.86 550.67 208.32C550.67 212.33 550.59 212.96 550.06 213.45C549.28 214.15 548.54 214.15 547.96 213.45ZM143.54 186.38C143.06 185.85 143 184.16 143 170.75C143 162.48 142.91 155.48 142.8 155.19C142.61 154.72 139.09 154.67 106.32 154.67C83.56 154.67 69.72 154.55 69.19 154.34C68.54 154.09 68.33 153.78 68.33 153.03C68.33 152.48 68.52 151.92 68.75 151.77C68.98 151.62 85.53 151.5 105.53 151.5C135.94 151.5 141.99 151.42 142.45 151.04C142.96 150.62 143 148.04 142.99 119.14C142.99 101.38 142.86 87.62 142.69 87.52C142.53 87.42 126.33 87.33 106.68 87.32C81.09 87.31 70.74 87.2 70.15 86.93C69.57 86.67 69.33 86.29 69.33 85.63C69.33 85.12 69.47 84.62 69.64 84.52C69.81 84.41 86.05 84.33 105.75 84.32C137.31 84.31 141.63 84.25 142.27 83.8L143 83.3L143 65.68C143 55.98 143.09 47.82 143.2 47.53C143.5 46.76 145.23 46.85 145.65 47.64C145.88 48.07 146 54.42 146 65.97C146 82.79 146.03 83.66 146.61 83.97C147.01 84.18 160.6 84.31 184.18 84.32C212.98 84.34 221.19 84.44 221.4 84.76C221.78 85.35 221.73 85.79 221.19 86.52C220.73 87.15 219.93 87.17 184.94 87.24C165.27 87.29 148.46 87.33 147.6 87.33L146.04 87.33L146.05 119.17C146.06 142.84 146.16 151.06 146.45 151.25C146.66 151.39 163.2 151.5 183.2 151.5C221.81 151.5 220.67 151.45 220.67 153C220.67 154.54 221.78 154.49 182.87 154.67L146.17 154.83L146.08 170.14C146.02 181.12 145.88 185.57 145.61 185.9C144.83 186.84 144.11 187.01 143.54 186.38ZM534.19 185.59C533.73 184.95 533.67 182.89 533.67 169.83C533.67 158.58 533.57 154.7 533.27 154.4C532.96 154.09 524.33 154 496.46 154C463.8 154 459.99 153.95 459.52 153.48C458.85 152.8 458.85 151.46 459.53 151.2C459.82 151.09 476.37 151 496.31 151C531.05 151 532.59 150.97 533.12 150.39C533.63 149.83 533.66 147.23 533.59 118.31L533.5 86.83L497.07 86.67C457.39 86.49 459.88 86.62 460.08 84.67C460.15 83.99 460.4 83.8 461.5 83.6C462.23 83.47 478.55 83.37 497.77 83.37C524.57 83.39 532.81 83.3 533.18 82.99C533.59 82.64 533.67 79.96 533.67 64.86C533.67 51.52 533.77 47.03 534.07 46.73C534.68 46.12 535.94 46.26 536.32 46.98C536.55 47.4 536.67 53.76 536.67 65.32C536.67 79.68 536.75 83.05 537.11 83.19C537.35 83.28 554.11 83.39 574.36 83.43C594.6 83.47 611.43 83.63 611.75 83.79C612.51 84.16 612.5 85.42 611.72 86.12C611.16 86.62 608.06 86.67 573.9 86.67L536.69 86.67L536.76 118.75L536.83 150.83L573.7 150.92L610.57 151L611.2 151.7C611.82 152.39 611.81 152.41 610.89 153.2L609.96 154L573.31 154L536.67 154L536.67 169.43C536.67 182.85 536.6 184.95 536.15 185.59C535.86 186 535.42 186.33 535.17 186.33C534.91 186.33 534.47 186 534.19 185.59ZM227.51 165.88C226.98 165.49 226.94 164.57 226.98 154.67C227.01 148.74 227.11 143.76 227.2 143.61C227.5 143.12 229.24 143.31 229.71 143.89C230.05 144.3 230.14 145.35 230.06 148.03C229.91 153.16 229.75 153 234.95 153C237.81 153 239.33 152.87 239.6 152.6C239.87 152.33 240 150.89 240 148.29C240 146.15 240.09 144.15 240.2 143.86C240.48 143.13 241.53 143.2 242.33 144C242.97 144.64 243 145.11 243 154.59C243 165.39 242.9 166 241.15 166C240.11 166 240.02 165.56 239.91 160.17L239.83 155.83L235 155.83L230.17 155.83L230.11 160.27C230.05 164.76 229.9 165.34 228.66 166.01C228.29 166.2 227.89 166.16 227.51 165.88ZM50.05 164.38C47.51 163.48 46.66 162.74 45.33 160.31L44.17 158.17L44.17 153.5C44.17 149.06 44.21 148.74 45.1 146.93C45.62 145.88 46.59 144.59 47.27 144.05C50.99 141.11 57.84 141.19 60.85 144.21C62.51 145.87 63.3 147.65 63.73 150.72C64.85 158.63 61.02 164.36 54.29 164.85C52.38 164.98 51.44 164.88 50.05 164.38ZM23.41 163.92C23.28 163.5 23.21 158.48 23.26 152.75L23.36 142.34L24.16 142.14C24.59 142.03 25.26 142.04 25.64 142.16C26.29 142.36 26.33 142.63 26.34 146.44C26.34 148.67 26.48 150.71 26.64 150.97C27.05 151.61 35.05 151.65 35.81 151.02C36.2 150.7 36.34 149.67 36.41 146.59C36.48 143.26 36.6 142.51 37.06 142.22C37.45 141.97 37.86 141.98 38.47 142.26L39.33 142.65L39.33 153.11C39.33 163.07 39.3 163.59 38.68 164.15C38.24 164.55 37.76 164.68 37.19 164.54L36.35 164.33L36.26 159.41L36.17 154.5L31.33 154.5L26.5 154.5L26.41 159.14C26.35 161.87 26.16 163.97 25.95 164.23C25.33 164.98 23.69 164.78 23.41 163.92ZM438.88 163.72C438.4 163.18 438.33 161.9 438.33 152.43C438.33 140.8 438.25 141.33 440.18 141.33C441.4 141.33 441.67 142.28 441.67 146.61C441.67 149.94 441.75 150.63 442.19 150.8C442.48 150.91 444.51 151 446.69 151C451.75 151 451.71 151.04 451.52 145.82C451.44 143.58 451.52 142.01 451.73 141.75C452.18 141.22 453.88 141.21 454.21 141.74C454.35 141.97 454.48 146.8 454.49 152.49C454.52 162.82 454.52 162.83 453.76 163.6C453.15 164.22 452.88 164.29 452.34 164C451.72 163.67 451.67 163.31 451.67 159.18C451.67 156.73 451.58 154.48 451.46 154.19C451.29 153.75 450.53 153.67 446.46 153.67L441.67 153.67L441.67 158.18C441.67 162.53 441.64 162.73 440.85 163.52C439.87 164.49 439.61 164.52 438.88 163.72ZM624 162.7C622.15 162.3 620.11 161.1 619.16 159.86C615.76 155.4 616 146.45 619.62 142.55C623.1 138.81 630.88 138.95 634.28 142.83C636.2 145.01 636.47 146.03 636.47 151C636.48 154.91 636.38 155.71 635.76 157.06C634.86 159.02 632.69 161.21 630.88 162C629.28 162.7 625.69 163.07 624 162.7ZM641.75 162.28C641.43 161.97 641.33 159.24 641.33 151.14L641.33 140.41L642.08 140.21C643.23 139.9 643.57 139.96 644.14 140.52C644.56 140.94 644.67 141.87 644.67 145.15C644.67 148.35 644.77 149.3 645.13 149.44C645.91 149.74 653.79 149.35 654.14 148.99C654.34 148.8 654.44 147.11 654.38 144.91C654.28 140.49 654.61 139.62 656.22 140.18L657.17 140.52L657.25 151.13C657.35 162.33 657.31 162.67 655.83 162.67C654.56 162.67 654.39 162.06 654.46 157.67C654.5 155.38 654.4 153.24 654.25 152.92C654.01 152.4 653.43 152.33 649.32 152.33L644.67 152.33L644.66 156.58C644.66 159.33 644.51 161.13 644.24 161.67C643.77 162.6 642.4 162.93 641.75 162.28ZM56.17 161.7C57.82 160.93 59.12 159.57 59.87 157.83C60.69 155.91 60.68 149.95 59.85 148.33C58.48 145.65 56.92 144.67 54.01 144.67C51.55 144.67 50.09 145.23 48.91 146.63C47.7 148.08 47.34 149.61 47.34 153.39C47.33 158.63 48.59 161 51.92 162C53.41 162.45 54.75 162.36 56.17 161.7ZM630.24 158.93C632.54 157.28 633.14 155.85 633.28 151.71C633.5 145.18 631.6 142.67 626.4 142.67C622.65 142.66 620.64 144.88 620.18 149.5C619.94 152.03 620.41 155.87 621.15 157.29C622.14 159.21 624.94 160.45 627.6 160.16C628.21 160.09 629.39 159.54 630.24 158.93ZM312.67 132.77C311.72 132.42 310.37 130.9 310.16 129.95C309.6 127.42 311.74 125.33 314.9 125.33C316.68 125.33 317.33 124.93 317.33 123.82C317.33 122.06 314.87 121.36 312.69 122.49C311.85 122.92 311.51 122.96 311.14 122.65C310.42 122.05 310.57 121.15 311.47 120.74C314.28 119.46 316.98 119.58 318.57 121.06C319.83 122.23 320.01 123.02 320.04 127.57C320.06 130.99 319.97 131.84 319.53 132.28C319.08 132.73 318.88 132.75 318.32 132.4C317.77 132.06 317.33 132.07 315.93 132.49C314.15 133.02 313.51 133.07 312.67 132.77ZM331.73 132.6C331.47 132.33 331.33 130.84 331.33 128.08C331.33 125.81 331.19 123.69 331.01 123.36C330.84 123.03 330.24 122.57 329.69 122.34C328.82 121.98 328.55 122.02 327.55 122.64C326.14 123.51 326.01 123.98 326 128.2C326 131.17 325.92 131.64 325.31 132.18C324.79 132.66 324.5 132.72 324.06 132.45C323.58 132.14 323.49 131.33 323.41 126.51C323.32 120.9 323.47 120 324.52 120C324.76 120 325.19 120.24 325.48 120.53C325.96 121.01 326.14 120.99 327.51 120.33C330.01 119.12 332.21 119.92 333.36 122.46C334.27 124.46 334.29 131.63 333.39 132.45C332.67 133.1 332.27 133.14 331.73 132.6ZM340.2 132.65C338.75 132.22 337.44 130.78 337.04 129.17C336.63 127.56 336.99 123.76 337.69 122.24C338.6 120.27 342.16 119.28 343.93 120.52C344.33 120.8 344.82 120.95 345 120.83C345.18 120.72 345.33 119.3 345.33 117.68C345.33 114.53 345.66 113.95 347.02 114.68C347.8 115.09 347.72 114.15 347.72 123.8C347.72 130.52 347.63 131.84 347.2 132.28C346.74 132.74 346.63 132.73 346.07 132.23C345.28 131.52 345.09 131.52 343.5 132.33C342.08 133.05 341.67 133.09 340.2 132.65ZM316.49 129.95C316.98 129.37 317.32 128.6 317.27 128.2C317.19 127.63 316.9 127.48 315.69 127.39C313.2 127.22 312.67 127.49 312.67 128.94C312.67 130.48 313.14 131 314.54 131C315.33 131 315.84 130.73 316.49 129.95ZM344.24 129.59C345.26 128.61 345.33 128.39 345.33 126.3C345.33 124.16 345.28 124.03 344.16 123.03C342.58 121.65 341.34 121.66 340.16 123.07C339.31 124.08 339.26 124.3 339.41 126.74C339.53 128.91 339.69 129.48 340.36 130.2C341.39 131.29 342.7 131.09 344.24 129.59ZM233.01 95.9C230.43 94.96 229.2 93.83 228.03 91.35C227.23 89.63 227.17 89.16 227.17 84.83C227.17 79.89 227.36 79.15 229.39 76.26C230.42 74.8 234.08 73.33 236.69 73.33C241.15 73.33 244.1 75.04 245.77 78.61C246.73 80.67 246.81 81.09 246.8 84.33C246.78 88.81 246.13 90.87 244.04 93.1C240.97 96.38 237.07 97.37 233.01 95.9ZM50.88 95.83C50.46 95.41 50.38 93.73 50.36 84.94C50.35 77.83 50.46 74.41 50.71 74.11C51.19 73.54 52.81 73.54 53.28 74.1C53.49 74.35 53.69 76.33 53.74 78.69L53.83 82.83L58.29 82.93C61.29 82.99 62.89 82.89 63.2 82.64C63.55 82.35 63.67 81.29 63.67 78.49C63.67 76.42 63.76 74.48 63.87 74.19C64.16 73.43 65.89 73.51 66.32 74.31C66.54 74.71 66.67 78.68 66.67 84.9C66.67 93.37 66.59 94.96 66.15 95.59C65.86 96 65.37 96.33 65.05 96.33C63.83 96.33 63.67 95.67 63.67 90.77C63.67 85.13 64.19 85.59 58 85.74L53.83 85.83L53.74 90.48C53.67 94.22 53.54 95.25 53.11 95.73C52.44 96.46 51.55 96.5 50.88 95.83ZM251.73 95.93C251.44 95.64 251.33 92.78 251.33 85.13C251.33 79.4 251.42 74.48 251.54 74.19C251.79 73.54 253.76 73.48 254.28 74.1C254.49 74.35 254.69 76.33 254.74 78.69L254.83 82.83L259.31 82.93C262.18 82.99 263.91 82.89 264.14 82.66C264.34 82.46 264.57 80.43 264.67 78.07L264.83 73.83L265.89 73.73C266.65 73.66 267.05 73.8 267.28 74.23C267.67 74.98 267.78 93.77 267.4 95.17C267.19 95.93 266.9 96.19 266.18 96.28C265.65 96.34 265.12 96.19 264.96 95.94C264.8 95.7 264.67 93.47 264.67 90.98C264.67 87.92 264.54 86.34 264.27 86.07C263.99 85.79 262.4 85.67 259.27 85.67L254.67 85.67L254.67 90.26C254.67 93.88 254.56 95.01 254.15 95.59C253.58 96.4 252.37 96.57 251.73 95.93ZM617.7 95.88C617.43 95.55 617.35 92.31 617.41 84.63L617.5 73.83L618.65 73.72C620.44 73.55 620.67 74.15 620.67 78.9L620.67 83L625.32 83C629.58 83 630.01 82.95 630.32 82.36C630.51 82 630.67 79.9 630.67 77.69L630.67 73.67L631.58 73.67C633.42 73.68 633.37 73.4 633.39 84.82C633.4 96.42 633.36 96.66 631.53 96.2L630.67 95.99L630.67 91.23C630.67 87.97 630.54 86.34 630.27 86.07C629.99 85.79 628.4 85.67 625.27 85.67L620.67 85.67L620.67 90.26C620.67 93.88 620.56 95.01 620.15 95.59C619.57 96.42 618.28 96.57 617.7 95.88ZM416.41 95.39C415.87 95.04 415.85 94.63 415.93 82.92L416 73L416.86 73C418.85 73 419 73.33 419 77.61C419 80.22 419.13 81.67 419.4 81.93C419.99 82.52 428.12 82.49 428.62 81.9C428.82 81.65 429.02 79.67 429.07 77.31L429.17 73.17L430 73.08C431.79 72.9 431.77 72.79 431.81 83.89C431.83 89.54 431.79 94.36 431.72 94.59C431.49 95.33 430.4 95.73 429.67 95.33C429.05 95 429 94.64 429 90.33C429 86.24 428.93 85.66 428.42 85.42C427.71 85.09 419.92 85.14 419.38 85.47C419.13 85.63 419 87.19 419 90.17C419 94.4 418.96 94.66 418.26 95.15C417.43 95.73 417.03 95.78 416.41 95.39ZM442.48 95.24C439.33 93.97 437.7 91.94 436.82 88.17C435.53 82.72 437.23 76.36 440.5 74.34C441.16 73.93 442.77 73.32 444.07 72.98C446.26 72.42 446.62 72.41 448.61 72.87C452.72 73.82 454.38 75.2 455.7 78.72C456.22 80.1 456.37 81.32 456.37 84.11C456.37 86.1 456.23 87.9 456.06 88.11C455.9 88.32 455.65 88.94 455.52 89.48C455.19 90.87 452.87 93.52 451.06 94.58C449.76 95.34 449.09 95.49 446.52 95.56C444.69 95.62 443.1 95.49 442.48 95.24ZM240.29 92.75C242.08 91.43 242.98 89.67 243.37 86.74C244.03 81.78 242.83 78.12 240.11 76.83C238.29 75.96 235.23 76.01 233.42 76.95C231.24 78.07 230.56 79.67 230.4 84.1C230.31 86.35 230.41 88.26 230.66 89.16C231.18 90.99 232.57 92.67 234.03 93.23C235.65 93.84 239.18 93.57 240.29 92.75ZM449.78 91.98C452.08 90.53 453.1 88.21 453.13 84.33C453.16 80.57 452.54 78.61 450.81 77.02C449.25 75.57 447.21 75.13 444.48 75.64C443.21 75.87 442.6 76.22 441.79 77.15C440.53 78.6 439.67 81.48 439.67 84.24C439.67 86.26 440.64 90.02 441.43 91.04C443.13 93.24 447.06 93.68 449.78 91.98ZM178.5 48.93C177.12 48.44 176.67 48.03 176.67 47.25C176.67 46.66 176.8 46.62 177.75 46.86C180.97 47.66 183 46.86 183 44.79C183 43.41 181.86 42.56 179.87 42.47C179.12 42.43 178.38 42.38 178.23 42.37C178.08 42.35 178 41.92 178.06 41.42C178.16 40.58 178.29 40.5 179.63 40.48C181.38 40.45 182.33 39.52 182.33 37.84C182.33 36.34 180.94 35.71 178.94 36.31C177.47 36.75 176.76 36.45 177.11 35.52C177.81 33.7 183.29 34.05 184.32 35.98C184.91 37.08 184.74 39.17 184 39.83C183.1 40.65 183.16 41.54 184.16 42.19C185.13 42.83 185.76 44.73 185.35 45.78C184.93 46.84 183 48.52 181.7 48.96C180.36 49.4 179.84 49.4 178.5 48.93ZM568.77 47.94C568.37 47.74 567.95 47.35 567.84 47.07C567.48 46.14 568.19 45.9 569.97 46.36C571.45 46.74 571.81 46.72 572.82 46.24C574.12 45.62 574.62 44.4 574.08 43.21C573.73 42.44 571.81 41.67 570.25 41.67C569.42 41.67 568.82 40.9 569.19 40.3C569.29 40.14 569.95 40 570.65 40C572.21 40 573.26 39.19 573.53 37.78C573.92 35.78 571.83 34.71 569.69 35.82C569.17 36.09 568.66 36.21 568.54 36.1C568.16 35.71 568.33 34.41 568.79 34.23C570.01 33.76 572.35 33.65 573.63 33.99C574.86 34.32 575.15 34.58 575.71 35.85C576.31 37.2 576.32 37.4 575.85 38.3C575.57 38.85 575.19 39.38 575 39.5C574.41 39.87 574.64 40.72 575.67 41.88C577.21 43.64 577.07 45.06 575.16 46.89C573.71 48.29 573.59 48.33 571.58 48.31C570.43 48.3 569.17 48.13 568.77 47.94ZM143.72 44.31C139 43.38 136.33 39.32 136.33 33.08C136.33 28.4 138.1 24.61 141.09 22.86C143.99 21.18 149.64 21.44 151.68 23.35C152.77 24.36 152.89 24.9 152.22 25.82C151.8 26.4 151.7 26.38 150.17 25.48C148.3 24.39 145.25 24.08 143.49 24.81C141.26 25.75 139.67 29.04 139.67 32.71C139.67 37.71 141.54 40.91 144.9 41.62C146.74 42.01 148.24 41.68 150.36 40.43C151.36 39.84 152.29 40.04 152.58 40.91C152.83 41.65 150.82 43.35 148.92 44C146.89 44.71 146.02 44.76 143.72 44.31ZM156.56 44.11C156.43 43.99 156.33 38.98 156.33 32.98L156.33 22.08L157.25 21.9C159.27 21.52 159.47 22.03 159.34 27.51C159.31 28.61 159.45 29.93 159.64 30.43L159.98 31.33L164.09 31.33C166.86 31.33 168.39 31.2 168.76 30.92C169.22 30.57 169.34 29.77 169.41 26.33L169.5 22.17L170.83 22.17L172.17 22.17L172.25 32.79C172.32 40.36 172.23 43.55 171.96 43.88C171.76 44.13 171.16 44.33 170.63 44.33C169.42 44.33 169.35 44.04 169.25 38.5L169.17 34.17L164.33 34.17L159.5 34.17L159.43 38.78C159.39 41.71 159.22 43.57 158.97 43.86C158.58 44.34 156.95 44.51 156.56 44.11ZM534.73 43.64C530.88 43.14 528.19 40.51 527.31 36.37C526.74 33.72 527.07 28.52 527.93 26.61C528.91 24.39 530.73 22.53 532.75 21.66C534.23 21.02 534.88 20.94 537.22 21.09C540.78 21.31 542.78 22.3 542.94 23.92C543.08 25.39 542.39 25.58 540.43 24.63C536.7 22.83 532.9 23.75 531.36 26.83C530.24 29.08 529.96 34.25 530.83 36.53C532.44 40.77 536.07 42.19 540.16 40.19C542.12 39.23 542.85 39.13 543.1 39.79C543.43 40.63 542.49 41.83 540.83 42.71C538.79 43.79 537.45 43.99 534.73 43.64ZM547.22 43.44C547.1 43.32 547 38.31 547 32.3C547 21.93 547.03 21.37 547.62 21.18C547.97 21.07 548.62 21.13 549.08 21.3C550.1 21.69 550.33 22.7 550.33 26.83C550.33 28.92 550.47 30.02 550.75 30.22C550.98 30.39 553.1 30.45 555.5 30.35L559.83 30.17L559.93 26.02C559.98 23.66 560.18 21.69 560.38 21.44C560.88 20.85 561.84 20.89 562.48 21.52C562.93 21.98 563 23.42 563 32.31C563 41.82 562.96 42.6 562.39 43.12C561.66 43.78 560.88 43.82 560.38 43.23C560.17 42.97 559.98 40.87 559.93 38.14L559.83 33.5L555.08 33.41L550.33 33.32L550.3 34.41C550.28 35.01 550.24 37.02 550.22 38.88C550.18 41.69 550.06 42.38 549.53 42.97C548.92 43.64 547.68 43.9 547.22 43.44Z" fill="#1e2749" fill-rule="evenodd"/>
</svg>
