<?xml version="1.0" encoding="UTF-8"?>
<svg xmlns="http://www.w3.org/2000/svg" viewBox="0 0 2430 1066" width="2430" height="1066" shape-rendering="geometricPrecision">
<path d="M804.51 1025.01C804.13 1024.41 804.54 1022.82 805.41 1021.49C807.41 1018.44 807.42 1016.6 805.45 1014.96C804.5 1014.17 804.02 1012.46 804.2 1010.59C804.43 1008.24 805.05 1007.42 806.81 1007.17C810.83 1006.6 812.26 1008.79 811.77 1014.75C811.2 1021.67 806.52 1028.27 804.51 1025.01ZM898.53 1015.87C890.47 1013.98 886.04 1006.77 886.04 995.5C886.04 987.61 888.09 982.02 892.43 978.02C894.67 975.95 896.34 975.47 902.31 975.18C908.53 974.88 909.97 975.15 913 977.17C917.27 980.02 921.03 987.24 921.3 993.13L921.5 997.5L907.25 997.78C891.64 998.08 891.48 998.16 894.49 1003.99C898.06 1010.89 904.53 1011.9 910.93 1006.56C918.02 1000.64 922.73 1000.75 919.62 1006.77C917.52 1010.84 912.71 1014.71 908.22 1015.96C903.99 1017.13 903.91 1017.13 898.53 1015.87ZM639 995.5L639 975L644.34 975L649.68 975L650.32 994.17C650.77 1007.57 650.63 1013.74 649.86 1014.67C649.22 1015.44 646.72 1016 643.88 1016L639 1016L639 995.5ZM660 995.5L660 975L665.34 975L670.68 975L671.32 994.17C671.77 1007.57 671.63 1013.74 670.86 1014.67C670.22 1015.44 667.72 1016 664.88 1016L660 1016L660 995.5ZM704.67 1015.33C704.3 1014.97 704 1002.37 704 987.33L704 960L706.94 960C708.56 960 710.11 960.38 710.4 960.84C710.68 961.3 711.23 966.47 711.61 972.34L712.29 983L725.11 983C740.49 983 740 983.44 740 969.5L740 959.87L743.25 960.19L746.5 960.5L746.5 988L746.5 1015.5L743.5 1015.5L740.5 1015.5L740.22 1002.75L739.94 990L728.22 990.01C711.12 990.03 712.41 989.04 711.59 1002.76C711.21 1009.14 710.67 1014.73 710.39 1015.18C709.78 1016.16 705.61 1016.28 704.67 1015.33ZM844.71 1015.38C844.32 1014.99 844 1002.34 844 987.27L844 959.87L847.25 960.19L850.5 960.5L850.79 969.58L851.07 978.66L855.98 976.23C862.29 973.11 867.73 973.81 872.71 978.37L876.15 981.53L876.73 997.23C877.34 1014.11 876.92 1016 872.49 1016C870.26 1016 870.22 1015.74 869.5 999.98C868.83 985.26 868.6 983.83 866.66 982.48C862.38 979.48 855.14 981.27 852.98 985.86C852.3 987.31 851.46 994.58 851.12 1002L850.5 1015.5L847.96 1015.8C846.57 1015.96 845.1 1015.77 844.71 1015.38ZM932.22 1014.44C928.56 1011.87 926.73 1007.3 927.45 1002.5C928.39 996.25 931.16 994.23 941.71 992.11C952.23 990 953 989.62 953 986.6C953 983.03 949.96 981 944.64 981C940.58 981 939.44 981.49 936.37 984.57C934.23 986.71 932.2 987.91 931.32 987.57C930.5 987.26 929.65 987 929.42 987C928.49 987 929.09 983.73 930.52 980.97C932.7 976.75 936.8 975 944.55 975C951.93 975 957.39 977 959.21 980.38C959.84 981.55 960.56 988.48 960.81 995.79C961.22 1007.88 961.45 1009.2 963.37 1010.55C965.05 1011.72 965.26 1012.37 964.39 1013.76C962.74 1016.4 957.38 1016.59 955.81 1014.06C954.2 1011.49 952.96 1011.48 948.26 1014C943.7 1016.45 935.41 1016.67 932.22 1014.44ZM975.41 1013.9C973.76 1012.08 973.46 1009.82 973.15 996.96C972.8 982.92 972.67 982.09 970.74 981.81C969.62 981.64 968.21 980.68 967.6 979.68C966.69 978.18 967 977.46 969.42 975.51C971.56 973.78 972.5 971.99 972.92 968.82C973.42 965.08 973.85 964.46 976.13 964.2C978.62 963.91 978.79 964.18 979.45 969.49C980.1 974.68 980.37 975.12 983.13 975.68C985.4 976.13 986.03 976.75 985.8 978.28C985.5 980.27 984.19 981.33 980.75 982.4C979.22 982.87 979 984.32 979.01 993.72C979.03 1006.73 979.47 1008.65 982.64 1009.45C983.98 1009.78 985.34 1010.73 985.65 1011.54C987.29 1015.8 978.88 1017.73 975.41 1013.9ZM950.25 1006C952.91 1003.07 954.01 997.74 952.19 996.62C950.68 995.68 937.52 999.19 935.6 1001.03C933.93 1002.63 933.85 1003.23 934.95 1005.88C937.34 1011.64 945.08 1011.7 950.25 1006ZM114 991.93C104.1 987.79 101.11 974.5 108.25 966.37L111.29 962.91L108.51 960.01C106.03 957.42 105.79 956.57 106.23 951.98C107.09 943 112.25 938.61 122.01 938.56C134.77 938.5 142.81 950 136.23 958.91C133.35 962.8 133.41 963.57 136.95 967.6C138.57 969.44 140.19 972.5 140.54 974.38C141.43 979.08 138.23 985.96 133.48 989.58C130.35 991.97 128.61 992.49 123.11 992.71C119.47 992.86 115.38 992.51 114 991.93ZM228.02 991.25C222.81 988.63 220 983.78 220 977.4C220 971.14 221.39 967.63 224.76 965.42L227.2 963.82L224.35 960.84C222.01 958.4 221.51 957.03 221.58 953.18C221.72 944.73 225.69 940.09 234.13 938.5C243.03 936.83 254 944.05 254 951.58C254 954.06 253.09 956.71 251.39 959.16L248.78 962.93L251.95 966.93C255.29 971.16 256.66 976.21 255.61 980.43C254.8 983.65 249.55 989.66 245.9 991.55C242.01 993.57 232.31 993.4 228.02 991.25ZM913.14 990.26C914.61 988.79 912.02 984.06 908.85 982.43C904.68 980.26 900.54 980.67 897.08 983.59C894.15 986.05 893.07 989.7 894.75 991.44C895.77 992.5 911.95 991.45 913.14 990.26ZM773.49 988.75C773.25 988.06 772.92 984.58 772.77 981L772.5 974.5L765.5 974C757.65 973.44 756 972.74 756 969.96C756 967.72 757.97 967.12 766.5 966.76L772.5 966.5L772.79 958.75C773.09 950.96 773.72 949.9 776.88 951.9C777.74 952.45 778.44 955.41 778.76 959.89L779.27 967L784.88 967.01C792.37 967.03 795 967.83 795 970.08C795 972.79 791.92 974 785.07 974L779 974L779 980.8C779 987.52 777.99 990 775.27 990C774.54 990 773.74 989.44 773.49 988.75ZM130.36 982.92C132.75 980.25 133.12 979.13 132.64 976.11C131.8 970.8 128.08 968 121.9 968C117.93 968 116.4 968.5 114.45 970.45C111.81 973.1 111.14 978.52 113.03 982.05C116.11 987.81 125.56 988.29 130.36 982.92ZM243.02 985.49C246.61 983.63 248 981.18 248 976.71C248 971.47 244.26 968 238.61 968C231.87 968 229.27 969.35 228.14 973.45C226.65 978.83 228.38 983.82 232.32 985.54C236.49 987.35 239.45 987.34 243.02 985.49ZM639 965.61L639 961.12L643.49 960.45C650.07 959.46 651.17 960.18 650.81 965.24L650.5 969.5L644.75 969.8L639 970.1L639 965.61ZM660 965.61L660 961.12L664.49 960.45C671.07 959.46 672.17 960.18 671.81 965.24L671.5 969.5L665.75 969.8L660 970.1L660 965.61ZM51.42 965.18C43.69 961.45 38.59 956.2 36.03 949.35C27.06 925.38 35.53 898.68 53.78 893.37C61.49 891.13 75.1 891.9 81.35 894.93C86.56 897.45 92.54 903.65 94.66 908.73C96.68 913.57 95.86 915 91.04 915C87.46 915 86.76 914.58 84.58 911.12C79.81 903.57 72.83 900.34 63.38 901.3C56.07 902.05 50.57 905.17 47.61 910.25C43 918.14 41.9 933.26 45.14 944.07C48.7 955.95 62.33 962.21 73.56 957.11C78.33 954.95 84.63 947.98 85.53 943.87C86.29 940.39 88.98 938.77 93.3 939.19C96.2 939.47 96.47 939.78 96.19 942.5C95.4 950.22 87.68 960.59 79.64 964.72C75.58 966.8 72.72 967.43 66 967.74C58.22 968.09 56.98 967.87 51.42 965.18ZM286.89 966.62C278.77 963.72 270.33 955.13 267.03 946.42C264.21 938.96 263.27 926.24 265 918.89C267.89 906.63 275.03 898.02 285.58 894.04C293.46 891.07 306.84 891.48 314.71 894.93C320.86 897.62 327.58 904.45 331.05 911.5C333.28 916.06 333.5 917.69 333.5 930C333.5 942.72 333.34 943.79 330.81 948.59C327.2 955.44 318.38 963.34 311.46 965.93C305.02 968.34 292.66 968.69 286.89 966.62ZM152.67 966.33C152.3 965.97 152 949.32 152 929.33L152 893L157 893L162 893L162 908.02L162 923.04L180.75 922.77L199.5 922.5L199.78 907.75L200.05 893L205.03 893L210 893L210 928.88C210 968.4 210.16 967.43 203.82 966.82L200.5 966.5L200.23 949.75L199.95 933L180.98 933L162 933L162 948.8C162 959.76 161.63 964.97 160.8 965.8C159.52 967.08 153.79 967.45 152.67 966.33ZM128.25 957.18C132.36 953.36 131.82 948.99 126.93 946.46C121.43 943.62 115.68 945.07 113.91 949.74C112.52 953.4 114.56 957.91 118.31 959.49C122.04 961.06 124.75 960.43 128.25 957.18ZM242.06 958.97C245.05 957.37 247.27 952.38 246.02 950.04C243.29 944.93 234.79 943.21 231 947C228.32 949.68 228.41 954.74 231.17 957.69C233.53 960.19 238.65 960.8 242.06 958.97ZM310.64 955.42C320.36 949.41 324.8 939.59 323.75 926.46C323.22 919.81 320.15 911.87 316.7 908.17C311.22 902.29 300.06 899.6 291.31 902.05C284.98 903.83 278.83 910 276.55 916.86C274.39 923.36 274.33 934.18 276.41 941.34C278.37 948.08 284.81 955.49 290.5 957.56C296.73 959.83 304.92 958.96 310.64 955.42ZM1299.98 936.79C1299.96 924.13 1299.83 923.26 1297.18 918.5C1283.24 893.51 1276 879.85 1276 878.55C1276 877.28 1277.47 877 1284.27 877L1292.53 877L1299.83 891.64C1304.39 900.79 1307.48 905.92 1308.07 905.33C1308.59 904.81 1311.9 898.11 1315.43 890.45C1319.57 881.47 1322.47 876.37 1323.57 876.15C1326.75 875.5 1338 877.14 1338 878.26C1338 878.86 1332.94 888.84 1326.75 900.43L1315.5 921.5L1315 935.5L1314.5 949.5L1307.25 949.79L1300 950.09L1299.98 936.79ZM1337 942.46L1337 934.91L1344.25 935.21L1351.5 935.5L1352.21 941.91C1352.6 945.44 1352.68 948.7 1352.4 949.16C1352.11 949.62 1348.53 950 1344.44 950L1337 950L1337 942.46ZM1152 947.45C1152 946.59 1154.7 941.22 1158 935.5C1161.3 929.78 1164 924.86 1164 924.55C1164 924.25 1006.36 924 813.7 924C542.58 924 463.13 923.73 462.2 922.8C461.54 922.14 461 920.36 461 918.84L461 916.07L811.45 915.79C1043.37 915.6 1162.24 915.16 1162.9 914.5C1163.57 913.83 1161.72 909.72 1157.37 902.16C1153.78 895.92 1151.1 890.56 1151.42 890.25C1152.29 889.37 1157.01 891.17 1190.99 905.36C1208.31 912.59 1222.45 918.95 1222.42 919.5C1222.39 920.05 1217.9 922.46 1212.43 924.86C1199.48 930.55 1153.94 949 1152.84 949C1152.38 949 1152 948.3 1152 947.45ZM969.67 888.33C968.69 887.36 968.85 881.52 969.93 878.68C971.58 874.35 977.23 868.86 985.59 863.47C994.69 857.6 997 854.97 997 850.5C997 843.89 990.36 839.95 983.19 842.31C980.19 843.29 979.26 844.29 977.91 848C976.32 852.34 972.67 855.53 970.69 854.31C969.05 853.29 970.59 844.39 972.99 841.01C974.26 839.23 976.79 837.15 978.62 836.39C982.85 834.62 991.12 834.61 995.33 836.36C999.62 838.16 1003.76 843.18 1004.59 847.63C1006.14 855.86 1001.64 861.96 988.1 870.01C980.91 874.28 976.64 878.4 977.3 880.42C977.53 881.09 982.78 881.69 991.07 882C1002.95 882.44 1004.52 882.7 1004.82 884.3C1005.62 888.49 1003.63 889 986.54 889C977.63 889 970.03 888.7 969.67 888.33ZM764.31 877.11C760.78 874.89 759 872.19 759 869.07C759 866 762.6 866.44 766.65 870C771.36 874.13 776.97 874.18 781.03 870.13C783.77 867.39 785.83 862.5 784.71 861.38C784.43 861.09 782.02 861.59 779.36 862.5C773.45 864.5 769.15 863.84 764.89 860.25C760.05 856.18 758.05 850.78 758.02 841.72C758 832.6 759.45 828.48 764.06 824.6C767.1 822.05 767.97 821.83 773.64 822.19C777.71 822.45 780.55 823.19 781.8 824.32C783.51 825.86 783.85 825.89 784.98 824.53C785.68 823.69 787.82 823 789.74 823L793.23 823L792.84 843.75C792.48 862.96 792.28 864.85 790.14 869.24C786.78 876.14 783.05 878.42 774.5 878.8C768.87 879.04 766.88 878.71 764.31 877.11ZM876 871.53C876 870.64 876.65 868.65 877.44 867.12C878.75 864.59 878.7 864.19 876.94 862.68C874.57 860.65 874.32 855.2 876.56 854.34C877.42 854.01 879.28 854.26 880.68 854.9C883.07 855.99 883.21 856.44 882.79 861.58C882.51 864.9 881.55 868.13 880.35 869.73C877.96 872.94 876 873.75 876 871.53ZM1029.99 863.13C1022.12 860.53 1018.32 857.05 1014.58 849C1009.49 838.05 1011.78 820.47 1019.25 813.25C1024.01 808.64 1028.8 807 1037.5 807C1049.08 807 1056.23 811.05 1061.34 820.5C1064.32 826.01 1064.5 843.62 1061.64 849C1059.03 853.9 1054.18 858.83 1049.66 861.15C1045.44 863.33 1034.07 864.47 1029.99 863.13ZM559.71 862.38C558.82 861.49 558.78 839.9 559.65 829.6L560.3 821.91L565.4 822.2L570.5 822.5L570.5 842.5L570.5 862.5L565.46 862.79C562.69 862.96 560.1 862.77 559.71 862.38ZM580.71 862.38C579.84 861.51 579.77 854.76 580.61 852.58C581.06 851.41 582.62 851 586.66 851L592.1 851L591.8 856.75L591.5 862.5L586.46 862.79C583.69 862.96 581.1 862.77 580.71 862.38ZM625 835.5L625 808L645 808L665 808L665 810.3C665 814.6 663.5 815 647.3 815L632 815L632 823L632 831L647 831C661.99 831 662 831 662 833.3C662 837.54 660.42 838 645.8 838L632 838L632 846.48L632 854.95L648.25 855.23C664.36 855.5 664.5 855.52 664.83 857.81C665.52 862.67 664.19 863 643.88 863L625 863L625 835.5ZM677.87 861.35C676.9 860.18 676.35 855.32 676 844.64L675.5 829.58L673 829C669.44 828.17 669 823.77 672.33 822.26C674.17 821.42 674.97 819.99 675.64 816.33C676.41 812.09 676.82 811.5 679.01 811.5C681.14 811.5 681.54 812.01 681.77 815C682.29 821.74 682.88 823 685.55 823C686.93 823 688.32 823.68 688.64 824.51C689.46 826.63 687.21 829 684.38 829L682 829L682 841.97L682 854.95L684.94 856.47C688.69 858.41 689.47 859.72 687.96 861.54C686.3 863.55 679.59 863.42 677.87 861.35ZM696 835.56L696 808L701.27 808L706.54 808L713.34 828.48C717.08 839.75 720.53 849.21 721.02 849.51C722.29 850.3 723.02 848.6 730.55 827.21L737.35 807.91L742.93 808.21L748.5 808.5L748.77 834.38C749.05 862.17 748.86 863.36 744.09 862.8L741.5 862.5L741.23 842.25C741.08 831.11 740.6 822 740.16 822C739.72 822 736.24 831.11 732.43 842.25L725.5 862.5L721.85 862.8L718.2 863.11L712.02 844.55C706.33 827.5 704.22 823.16 703.86 827.75C703.79 828.71 703.45 836.92 703.11 846L702.5 862.5L699.25 862.81L696 863.13L696 835.56ZM802 835.52L802 807.82L816.75 808.16C829.03 808.44 832.02 808.82 834.61 810.39C838.61 812.8 841.2 817.22 841.2 821.6C841.2 824.65 840.44 826.28 836.52 831.61C835.82 832.57 836.42 833.86 838.65 836.22C842.55 840.34 844 843.13 844 846.55C844 850.94 839.93 856.96 835.01 859.84C830.81 862.3 829.51 862.51 816.25 862.85L802 863.22L802 835.52ZM853.67 862.33C853.3 861.97 853 852.97 853 842.33L853 823L856 823C858.33 823 859 823.44 859 825C859 827.57 859.45 827.52 863.41 824.5C865.34 823.03 868.01 822 869.91 822C872.93 822 873.11 822.2 872.81 825.19C872.55 827.92 871.99 828.51 869 829.24C867.08 829.71 864.49 831.22 863.25 832.6C861.17 834.93 861 836.05 861 847.86C861 856.43 860.61 860.99 859.8 861.8C858.51 863.09 854.75 863.42 853.67 862.33ZM916.67 862.33C916.3 861.97 916 849.59 916 834.83L916 808L919.39 808C923.69 808 924 808.84 924 820.61L924 830.06L937.75 829.78L951.5 829.5L951.78 818.75L952.07 808L956.03 808L960 808L960 834.38C960 862.77 959.86 863.54 954.81 862.83C952.55 862.51 952.49 862.21 952.22 849.75L951.94 837L948.63 837C946.8 837 940.52 837.29 934.66 837.65L924 838.3L924 848.72C924 854.45 923.53 860 922.96 861.07C921.97 862.93 918.05 863.71 916.67 862.33ZM782.75 852.03C786.86 845.95 785.25 833.39 779.88 829.63C775.48 826.55 768.45 828.52 766.19 833.47C764.49 837.22 764.72 846.26 766.65 851.09C769.77 858.87 777.81 859.34 782.75 852.03ZM1044.98 854.75C1047.4 853.51 1050.75 850.78 1052.43 848.68C1055.07 845.35 1055.52 843.89 1055.84 837.51C1056.6 822.43 1049.94 814 1037.27 814C1028.19 814 1022.09 819.42 1020.04 829.32C1017.89 839.66 1021.69 849.79 1029.5 854.55C1034.5 857.59 1039.29 857.65 1044.98 854.75ZM831.67 853.4C837.09 849.35 837.02 841.7 831.54 839.2C830.31 838.64 824.67 837.85 818.99 837.45L808.68 836.72L809.34 843.61C809.69 847.4 809.99 851.78 809.99 853.35L810 856.19L819.43 855.85C827.1 855.56 829.38 855.11 831.67 853.4ZM173.77 843.36C164.92 823.43 146.77 777.9 147.42 777.25C147.7 776.97 152.97 779.49 159.13 782.85C167.68 787.51 170.66 788.7 171.67 787.86C172.77 786.95 173 742.56 173 531.32L173 275.88L176.75 276.19L180.5 276.5L181 532.17C181.28 672.78 181.77 788.1 182.1 788.43C182.43 788.76 187.47 786.32 193.31 783.01C204.32 776.78 206 776.14 205.99 778.25C205.98 780.73 179.92 844.36 177.63 847.49C176.51 849.02 176.07 848.55 173.77 843.36ZM826.22 829.96C832.63 828.18 835.21 821.31 830.93 817.44C829.28 815.94 826.86 815.48 818.93 815.17L809 814.77L809 822.22C809 826.31 809.3 829.97 809.67 830.33C810.7 831.37 822.07 831.11 826.22 829.96ZM559.71 816.38C558.84 815.51 558.78 811.73 559.61 809.58C560.06 808.41 561.62 808 565.66 808L571.11 808L570.81 812.25L570.5 816.5L565.46 816.79C562.69 816.96 560.1 816.77 559.71 816.38ZM446.61 624.42C446.27 623.55 446 621.77 446 620.46C446 618.21 445.63 618.07 438.75 617.79C432.25 617.53 431.47 617.28 431.2 615.39C431.02 614.11 433.26 609.79 436.9 604.39C445.44 591.74 447.38 589.55 449.34 590.3C450.74 590.84 451 592.58 451 601.5C451 610.01 451.29 612.15 452.5 612.53C457.72 614.16 457.66 614.03 454.25 616.91C452.46 618.41 451 620.54 451 621.62C451 623.56 449.28 626 447.91 626C447.53 626 446.94 625.29 446.61 624.42ZM557 624.52C557 623.71 557.73 621.23 558.61 619.01C559.86 615.89 561.99 613.74 568 609.5C572.28 606.48 576.07 603.25 576.44 602.31C577.44 599.68 573.82 595.55 570.19 595.19C567.94 594.97 566.59 595.49 565.29 597.09C561.27 602.05 559.8 603.2 558.8 602.2C557.23 600.63 558.9 595.22 561.62 593.08C569.15 587.16 579.8 590.77 581.62 599.86C582.34 603.46 578.24 608.41 569.77 614.16C566.53 616.36 564.06 618.68 564.27 619.33C564.51 620.05 567.52 620.62 572.04 620.8C580.02 621.12 582.8 622.33 580.89 624.63C579.17 626.7 557 626.6 557 624.52ZM710.52 624.75C710.29 624.06 709.96 622.38 709.8 621C709.52 618.66 709.06 618.47 702.5 618C695.91 617.53 695.48 617.35 695.21 614.97C694.89 612.28 699.46 604.56 706.87 595.25C713.61 586.78 714.96 588.19 714.99 603.68C715 612.33 715.12 612.88 717.17 613.18C720.34 613.65 720.56 615.79 717.58 617.15C715.76 617.98 715 619.09 715 620.96C715 624.84 711.53 627.77 710.52 624.75ZM289.42 615.58C285.81 614.01 282 609.53 282 606.87C282 603.99 286.15 604.54 290.5 608C292.58 609.65 295.36 611 296.69 611C302.26 611 308 605.45 308 600.05C308 597.6 307.99 597.6 304.36 599.49C300.02 601.76 292.91 601.42 288.95 598.75C283.31 594.95 281.6 590.82 281.19 580.02C280.85 571.34 281.03 570.2 283.16 567.09C286.92 561.62 290.51 559.49 295.83 559.58C298.4 559.62 302 560.44 303.84 561.4C306.95 563.02 307.31 563.03 309.01 561.49C310.01 560.58 311.88 559.99 313.17 560.17L315.5 560.5L315.5 580C315.5 590.73 315.14 601.21 314.69 603.31C312.52 613.59 299.43 619.94 289.42 615.58ZM445.8 606.75C445.97 603.52 445.68 601 445.14 601C443.94 601 437 610.33 437 611.94C437 612.7 438.49 613.01 441.25 612.81L445.5 612.5L445.8 606.75ZM708.94 611.57C710.38 609.84 709.94 601.8 708.38 601.29C707.22 600.91 701 609.79 701 611.84C701 613.5 707.52 613.28 708.94 611.57ZM465.45 609.92C465.08 609.32 465.61 607.26 466.64 605.34C468.41 602.03 468.41 601.79 466.75 600.57C465.63 599.74 465 597.95 465 595.58C465 591.92 465.04 591.88 468.75 592.19L472.5 592.5L472.34 597.21C472.25 599.8 471.66 603.51 471.01 605.46C469.75 609.28 466.61 611.8 465.45 609.92ZM338.18 600.93C331.91 599.7 327.43 596.53 325.07 591.65C322.02 585.35 322.28 583 326.02 583C328.54 583 329.51 583.76 331.77 587.51C333.79 590.85 335.6 592.45 338.74 593.64C344.82 595.97 351.45 595.04 355.02 591.36C362 584.17 359.22 580.45 343.5 575.95C330.25 572.15 329.42 571.74 326.95 567.69C323.47 561.98 324.94 553.08 330.17 548.26C333.42 545.27 341.18 543.9 348.75 544.96C356.07 546 358.18 547.05 361.38 551.26C364.69 555.61 365.55 559.3 363.61 560.91C361.39 562.75 358.7 561.85 357.23 558.79C352.45 548.83 334.76 548.41 332.45 558.2C331.55 561.98 335.32 565.47 342.4 567.44C345.48 568.3 350.47 569.69 353.49 570.53C357.12 571.53 360.17 573.24 362.49 575.56C365.46 578.53 366 579.76 366 583.57C366 592.95 360.66 599.17 351.03 601C345.06 602.13 344.23 602.12 338.18 600.93ZM393.1 600.92C387.33 599.78 382.97 596.7 379.21 591.07C375.44 585.44 374.01 580.33 374.01 572.43C373.99 560.48 378.73 551.22 387.01 546.99C395.38 542.72 408.44 543.64 415.86 549.01C429.46 558.86 430.28 583.65 417.38 594.97C415.33 596.77 412.26 598.81 410.57 599.5C406.18 601.28 398.23 601.92 393.1 600.92ZM603.33 601C595.29 599.32 590.34 595.31 588.55 589C588.16 587.62 587.62 585.71 587.35 584.75C586.97 583.36 587.49 583 589.89 583C593.16 583 594.07 583.73 597.08 588.81C603.1 598.97 623 595.89 623 584.8C623 581.04 620.34 579.51 606.81 575.49C592.84 571.34 590 568.87 590 560.87C590 554.86 592.82 549.13 597 546.66C599.03 545.46 602.19 545 608.44 545C620.76 545 625.1 547.21 628.42 555.15C629.66 558.12 629.69 559.04 628.61 560.51C626.72 563.1 622.74 561.81 621.36 558.15C617.16 547.01 594.57 550.17 597.41 561.49C598.2 564.63 601.12 566.01 613.6 569.14C624.9 571.97 629.94 576.07 630.66 583.04C631.35 589.59 627.9 595.81 622 598.71C616.71 601.3 609.18 602.23 603.33 601ZM657 600.94C651.03 599.72 645.2 595.49 641.69 589.81C636.3 581.11 636.27 564.37 641.61 555.23C649.35 541.99 670.51 540.23 682.14 551.86C691.83 561.55 692.72 579.81 684.08 591.73C678.85 598.95 667.02 602.98 657 600.94ZM228.67 600.33C228.3 599.97 228 587.37 228 572.33L228 545L231.48 545C235.66 545 235.89 545.65 236.25 558.5L236.5 567.5L248.86 567.78C257.12 567.97 261.68 567.68 262.61 566.91C263.63 566.06 264 563.01 264 555.32L264 544.88L267.75 545.19L271.5 545.5L271.77 571.88C272.05 600.2 271.87 601.36 267.09 600.8L264.5 600.5L264.22 587.72L263.94 574.94L250.22 575.22L236.5 575.5L236.21 586.46C235.99 594.86 235.55 597.84 234.31 599.21C232.68 601.01 229.9 601.57 228.67 600.33ZM506.67 600.33C506.3 599.97 506 587.34 506 572.27L506 544.87L509.25 545.19C512.4 545.49 512.51 545.65 512.74 550.5C512.87 553.25 513.24 558.31 513.57 561.75L514.16 568L527.02 568C534.09 568 540.14 567.59 540.45 567.09C540.75 566.59 541.3 561.41 541.66 555.59L542.3 545L545.65 545L549 545L549 571.88C549 600.34 548.78 601.68 544.3 600.82C542.7 600.51 542.47 599.08 542.22 587.74L541.94 575L528.11 575L514.27 575L513.64 579.64C513.29 582.19 513 587.5 513 591.44C513 595.68 512.51 599.09 511.8 599.8C510.49 601.11 507.73 601.39 506.67 600.33ZM302.78 593.44C306.2 591.05 308.14 586.37 308.14 580.55C308.14 574.38 306 568.61 303.15 567.08C299.68 565.22 294.35 565.8 291.38 568.35C289.1 570.31 288.58 571.69 288.21 576.74C287.22 590.45 294.75 599.07 302.78 593.44ZM409.19 591.48C411.23 590.14 414.15 586.9 415.69 584.27C419.52 577.77 419.64 568.77 416 561.55C412.41 554.45 409.4 552.61 400.7 552.18C394.46 551.88 393.03 552.14 390 554.17C379.73 561.05 379.02 581.19 388.73 590.3C394.34 595.56 402.3 596.02 409.19 591.48ZM668.78 593.45C680.77 588.44 685.67 573.77 679.5 561.38C675.94 554.24 671.09 551.66 662.17 552.16C654.51 552.59 651.32 554.42 647.99 560.27C643.15 568.79 644.84 582.78 651.53 589.47C656.77 594.7 662.57 596.04 668.78 593.45ZM279.28 529.92C279.94 525.01 281.36 523.33 290.75 516.36C298.53 510.59 299.5 508.5 296 505C292.8 501.8 288.56 502.4 285.43 506.5C282.09 510.88 280 511.05 280 506.95C280 500.9 287.54 496.79 295.06 498.74C299.11 499.78 303 504.89 303 509.15C303 512.5 298.03 517.91 290.73 522.5C283.87 526.82 284.71 528.43 294.01 528.8C302.11 529.12 304.06 530.01 302.04 532.46C301.02 533.68 298.45 534 289.75 534L278.74 534L279.28 529.92ZM326.82 509.65C319.91 507.72 315.57 503.89 311.94 496.53C308.9 490.35 308.78 489.66 309.17 480.29C309.52 471.77 309.96 469.8 312.52 465.11C316.14 458.5 320.75 455.3 328.81 453.8C340.85 451.56 352.2 456.41 357.43 466.03C363.21 476.68 361.88 493.11 354.53 501.69C348.19 509.1 336.71 512.4 326.82 509.65ZM228.67 509.33C228.3 508.97 228 496.37 228 481.33L228 454L230.8 454C235.39 454 236 455.49 236 466.7L236 477L248.88 477C258.25 477 262.05 476.64 262.84 475.69C263.44 474.98 264.05 469.91 264.21 464.44L264.5 454.5L268 454.5L271.5 454.5L271.77 480.88C272.05 509.2 271.87 510.36 267.09 509.8L264.5 509.5L264.22 496.72L263.94 483.94L250.22 484.22L236.5 484.5L236.21 495.46C235.99 503.86 235.55 506.84 234.31 508.21C232.68 510.01 229.9 510.57 228.67 509.33ZM340.5 502.13C352.95 496.46 357.06 481.51 349.72 468.6C346.71 463.32 342.04 461 334.41 461C326.91 461 322.65 463.51 319.03 470.04C314.1 478.96 316.73 494.83 324.01 500.01C330.12 504.36 334.4 504.91 340.5 502.13ZM655.02 279.25C655.08 274.74 658.94 269.12 664.66 265.21C667.87 263.02 671.6 260.04 672.94 258.6L675.37 255.98L673.34 253.24C671.99 251.42 670.19 250.39 668.02 250.18C665.29 249.91 664.26 250.44 661.8 253.43C658.42 257.52 656 258.07 656 254.72C656 251.7 658.46 248.33 662.01 246.49C668.08 243.35 675.64 245.62 678.39 251.4C681.23 257.4 678.65 261.69 667.69 269.18C664.5 271.37 662.06 273.68 662.27 274.33C662.51 275.04 665.85 275.7 670.75 276C679.61 276.55 681.51 277.42 678.56 279.58C677.17 280.6 673.56 281 665.81 281C656.17 281 655 280.81 655.02 279.25ZM1520 277.97C1520 273.91 1522.5 268.15 1525.8 264.61C1527.29 263.03 1532.23 259.3 1536.78 256.34C1548.95 248.41 1551.74 242.59 1546.08 236.92C1543.74 234.59 1542.29 234 1538.83 234.02C1533.17 234.04 1532.05 234.86 1529.03 241.2C1526.97 245.51 1526.03 246.5 1524 246.5C1521.7 246.5 1521.51 246.16 1521.68 242.33C1521.92 236.92 1524.32 232.38 1528.21 230.02C1539.25 223.3 1554.45 228.95 1555.72 240.23C1556.01 242.79 1555.96 246.02 1555.61 247.42C1554.58 251.53 1549.38 256.62 1541.17 261.58C1532.13 267.03 1529 269.72 1529 272.05C1529 274.34 1532.83 275 1546.12 275C1555.93 275 1557 275.18 1557 276.8C1557 280.61 1555.19 281 1537.3 281L1520 281L1520 277.97ZM1622 276.72C1622 269.83 1626.35 264.02 1636.3 257.6C1640.88 254.64 1645.84 250.79 1647.32 249.04C1650.21 245.6 1650.83 240.67 1648.72 237.91C1643.85 231.57 1632.38 233.35 1630.53 240.73C1629.65 244.29 1627.19 247 1624.85 247C1622.21 247 1622.36 239.92 1625.09 235.05C1627.62 230.55 1631.35 228.19 1637.18 227.39C1650.32 225.59 1660.51 235.68 1657.09 247.11C1655.53 252.29 1650.93 256.72 1640.96 262.63C1632.05 267.91 1628.88 271.27 1630.9 273.3C1631.67 274.07 1636.74 274.62 1645.11 274.83L1658.12 275.16L1657.81 277.83L1657.5 280.5L1639.75 280.77L1622 281.05L1622 276.72ZM2015.32 277.39C2016.12 272.48 2018.3 269.44 2023.73 265.68C2034.58 258.16 2036.47 254.84 2031.78 251.56C2028.03 248.93 2024.55 249.59 2021.57 253.5C2018.31 257.78 2016 258.08 2016 254.22C2016 250.23 2018.5 247.23 2022.94 245.9C2031.25 243.41 2039 248.15 2039 255.73C2039 259.79 2034.93 264.34 2026.64 269.56C2019.87 273.82 2020.74 275.43 2030.01 275.8C2038.11 276.12 2040.06 277.01 2038.04 279.46C2037.02 280.68 2034.45 281 2025.75 281L2014.74 281L2015.32 277.39ZM1668.54 265.07C1668.23 264.56 1668.73 262.54 1669.66 260.59C1671.24 257.27 1671.24 256.92 1669.67 255.19C1668.75 254.18 1668 251.89 1668 250.11C1668 246.99 1668.13 246.89 1671.75 247.19L1675.5 247.5L1675.47 252.51C1675.45 255.27 1674.83 259 1674.08 260.8C1672.64 264.28 1669.54 266.68 1668.54 265.07ZM1923.03 263.83C1923.05 262.55 1923.7 260.66 1924.48 259.63C1925.72 258 1925.64 257.44 1923.86 255.02C1922.74 253.51 1921.98 251.2 1922.16 249.89C1922.44 247.89 1923.07 247.5 1926 247.5L1929.5 247.5L1929.4 253.81C1929.33 258.4 1928.77 260.84 1927.34 262.75C1924.7 266.28 1922.99 266.71 1923.03 263.83ZM1577.46 254.12C1572.73 251.97 1568.51 247.3 1565.62 241C1562.62 234.47 1562.74 220.46 1565.86 213.51C1570.5 203.17 1576.47 199.58 1589 199.58C1595.75 199.58 1598.34 200.02 1601.57 201.72C1606.78 204.45 1612.38 210.66 1614.12 215.62C1616.01 220.98 1615.81 235.51 1613.79 240.14C1611.52 245.32 1605.18 252 1600.5 254.13C1595.03 256.63 1582.96 256.62 1577.46 254.12ZM1768.26 254.97C1765.37 253.81 1762.01 248.3 1762 244.72C1761.99 236.67 1766.58 232.95 1778.31 231.48C1785.47 230.59 1788.56 228.37 1787.66 224.77C1786.3 219.35 1775.59 218.93 1771.74 224.14C1770.28 226.11 1768.75 227 1766.81 227C1762.73 227 1762.96 222.84 1767.28 218.52C1771.58 214.22 1778.44 213.11 1786.44 215.44C1794.37 217.74 1795.03 219.16 1795.69 235.18C1796.19 247.21 1796.45 248.67 1798.37 250.21C1800.08 251.58 1800.28 252.27 1799.4 253.71C1797.57 256.69 1792.89 256.6 1790.44 253.53L1788.33 250.88L1783.52 253.44C1778.54 256.09 1772.53 256.69 1768.26 254.97ZM1820.68 254.98C1816.04 253.59 1811.62 249.56 1808.52 243.87C1806.02 239.31 1805.52 237.13 1805.18 229.35C1804.67 217.9 1806.57 211.43 1812.07 205.93C1821.42 196.58 1839.85 196.8 1849.44 206.38C1854.63 211.57 1857 218.03 1856.99 226.93C1856.99 235.28 1855.76 239.65 1851.72 245.64C1847.01 252.64 1840.05 256.03 1830.64 255.91C1826.71 255.87 1822.23 255.45 1820.68 254.98ZM2059.44 254.11C2054.18 251.72 2048.5 245.02 2046.41 238.74C2042.44 226.76 2046.73 208.82 2054.85 203.51C2066.37 195.96 2083.81 198.49 2091.71 208.85C2099.5 219.06 2099.07 237.39 2090.81 247.41C2084.22 255.4 2069.3 258.59 2059.44 254.11ZM605 227.56L605 200L608.5 200C611.89 200 612 200.12 612 203.85C612 205.97 612.29 211.14 612.65 215.35L613.29 223L626.09 223C634.86 223 639.11 222.63 639.61 221.82C640.02 221.17 640.55 215.99 640.8 210.32L641.26 200L644.65 200L648.03 200L647.77 227.25L647.5 254.5L644.25 254.81L641 255.13L641 242.56L641 230L627.1 230L613.19 230L612.54 240.75C612.18 246.66 611.8 252.18 611.68 253C611.56 253.9 610.2 254.62 608.24 254.81L605 255.13L605 227.56ZM1383.23 234.76C1383.53 212.27 1383.24 213.07 1390.47 214.43L1393.74 215.04L1394.23 233.77C1394.54 245.39 1394.36 252.97 1393.74 253.75C1393.19 254.45 1390.58 255 1387.86 255L1382.96 255L1383.23 234.76ZM1404.23 234.76C1404.53 212.27 1404.24 213.07 1411.48 214.43L1414.76 215.04L1415.22 233.77C1415.5 245.04 1415.3 253 1414.72 253.75C1414.18 254.45 1411.59 255 1408.86 255L1403.96 255L1404.23 234.76ZM1425 249.52C1425 244.59 1425.24 243.98 1427.36 243.45C1428.66 243.12 1431.25 243 1433.11 243.18C1436.33 243.48 1436.52 243.71 1436.81 247.82C1437.23 253.58 1435.85 255 1429.88 255L1425 255L1425 249.52ZM1469 227.56L1469 200L1472.38 200L1475.76 200L1476.48 211.5L1477.2 223L1490.04 223C1499.23 223 1503.11 222.64 1503.67 221.75C1504.1 221.06 1504.63 215.89 1504.84 210.25L1505.23 200L1508.63 200L1512.03 200L1511.77 227.25L1511.5 254.5L1508.25 254.81L1505 255.13L1505 242.56L1505 230L1491.11 230L1477.22 230L1476.36 242.25L1475.5 254.5L1472.25 254.81L1469 255.13L1469 227.56ZM1710 227.45L1710 199.89L1714.75 200.2L1719.49 200.5L1731.95 220.68C1738.8 231.78 1744.76 240.65 1745.2 240.37C1745.64 240.1 1746 230.88 1746 219.88L1746 199.88L1749.75 200.19L1753.5 200.5L1753.5 227.5L1753.5 254.5L1750.21 254.82C1745.73 255.25 1743.65 252.83 1730.57 232.06C1724.66 222.68 1719.41 215 1718.91 215C1718.39 215 1718 223.13 1718 233.8C1718 254.06 1717.77 255 1712.8 255L1710 255L1710 227.45ZM1866.71 254.38C1866.32 253.99 1866 241.56 1866 226.77L1866 199.88L1869.75 200.19L1873.5 200.5L1874 211.5L1874.5 222.5L1886.86 222.78C1895.12 222.97 1899.68 222.68 1900.61 221.91C1901.54 221.14 1902 218.56 1902.01 214.13C1902.02 210.48 1902.3 205.79 1902.65 203.7C1903.24 200.15 1903.49 199.91 1906.39 200.2L1909.5 200.5L1909.5 227.5L1909.5 254.5L1906.25 254.81L1903 255.13L1903 244.15C1903 238.11 1902.73 232.45 1902.39 231.58C1901.88 230.24 1899.64 230 1887.92 230L1874.06 230L1873.78 242.25L1873.5 254.5L1870.46 254.8C1868.79 254.96 1867.11 254.77 1866.71 254.38ZM1963 227.44L1963 199.88L1966.75 200.19L1970.5 200.5L1971 211.5L1971.5 222.5L1983.86 222.78C1992.12 222.97 1996.68 222.68 1997.61 221.91C1998.63 221.06 1999 218.01 1999 210.32L1999 199.88L2002.75 200.19L2006.5 200.5L2006.5 227.5L2006.5 254.5L2003 254.5L1999.5 254.5L1999.22 242.25L1998.94 230L1984.97 230L1971 230L1971 241.3C1971 253.57 1970.46 255 1965.8 255L1963 255L1963 227.44ZM1598.24 246.38C1603.81 242.82 1607.08 237.23 1607.72 230.21C1608.63 220.08 1604.07 210.53 1597 207.8C1595.62 207.26 1591.92 206.82 1588.76 206.81C1580.99 206.8 1577.25 209.08 1573.67 216.02C1571.16 220.89 1570.89 222.3 1571.26 228.64C1572.28 245.82 1585.51 254.52 1598.24 246.38ZM1782.27 248.16C1786.28 245.52 1787.93 242.93 1787.97 239.25C1788.01 235.33 1787.22 235.23 1777.6 237.9C1768.62 240.39 1767.2 242.45 1771.07 247.37C1773.57 250.55 1778.16 250.87 1782.27 248.16ZM1839.25 246.86C1841.31 245.81 1844.24 243.09 1845.75 240.8C1848.24 237.03 1848.5 235.79 1848.5 227.57C1848.5 219.84 1848.16 217.95 1846.2 214.8C1842.83 209.37 1837.89 206.69 1831.12 206.61C1819.11 206.45 1812.53 213.85 1812.59 227.42C1812.64 238.14 1817.2 245.51 1825.66 248.55C1829.98 250.11 1833.76 249.64 1839.25 246.86ZM2078.08 247.42C2082.25 245.33 2087.8 238.44 2089.05 233.82C2091.21 225.79 2087.65 213.89 2081.81 209.65C2076.11 205.52 2063.95 205.87 2059.12 210.31C2050.79 217.96 2050.88 237.11 2059.27 244.84C2064.45 249.6 2071.73 250.6 2078.08 247.42ZM105.02 215.75C99.77 213.07 97.16 209.77 96.35 204.78C95.44 199.16 96.76 194.4 100.17 190.98L103.27 187.89L100.63 185.14C95.53 179.82 98.01 168.24 105 164.75C108.93 162.79 116.44 162.46 120.68 164.06C124.85 165.64 128.88 169.91 130.01 173.94C130.85 176.97 130.63 178.22 128.5 182.34C125.4 188.36 125.4 189.08 128.51 192.01C134.2 197.36 133.67 206 127.26 212.23C120.75 218.55 112.93 219.79 105.02 215.75ZM223 216.21C221.07 215.15 218.15 212.13 216.51 209.49C213.77 205.09 213.49 203.81 213.15 193.97C212.69 180.47 214.42 173.73 219.77 168.16C224.24 163.5 228.77 162.39 236.62 164.02C241.32 165 242.53 165.75 245.09 169.28C248.51 174.01 248.51 176.35 245.08 176.84C243.35 177.09 241.76 176.18 239.39 173.59C232.77 166.36 223.43 170.04 221.15 180.76C220.59 183.35 220.29 185.63 220.48 185.81C220.66 186 222.28 185.39 224.07 184.47C226.4 183.26 228.97 182.9 233.17 183.21C239.66 183.68 243.12 185.66 246.75 190.99C251.2 197.52 248.58 209.17 241.43 214.62C236.79 218.16 227.94 218.93 223 216.21ZM1067.02 215.75C1061.77 213.07 1059.16 209.77 1058.35 204.78C1057.44 199.16 1058.76 194.4 1062.17 190.98L1065.27 187.89L1062.63 185.14C1057.54 179.83 1060 168.3 1067 164.7C1071.73 162.26 1081.85 162.75 1085.68 165.61C1092.44 170.66 1094.23 177.5 1090.2 182.95C1087.34 186.81 1087.42 189.11 1090.51 192.01C1096.2 197.36 1095.67 206 1089.26 212.23C1082.75 218.55 1074.93 219.79 1067.02 215.75ZM1185.91 217.04C1178.52 214.8 1175 209.72 1175 201.28C1175.01 196.81 1175.83 194.83 1180.16 188.86C1181.14 187.51 1180.86 186.62 1178.58 183.91C1176.2 181.08 1175.9 180.05 1176.45 176.6C1177.85 167.82 1181.89 163.92 1190.31 163.22C1204.28 162.07 1213.33 173.34 1206.5 183.4C1203.42 187.94 1203.42 188.11 1206.47 190.97C1207.83 192.25 1209.46 194.85 1210.08 196.76C1214.26 209.4 1200.04 221.33 1185.91 217.04ZM122.26 207.89C126.66 202.55 124.51 194.83 118.1 192.91C113.52 191.54 106.51 193.18 105.02 195.97C103.4 198.99 103.81 205.55 105.77 207.97C109.29 212.31 118.66 212.26 122.26 207.89ZM235.63 210.08C239.68 207.61 242.64 200.42 241.28 196.32C240.07 192.68 234.61 189 230.41 189C219.93 189 217.45 206.25 227.31 210.54C231.49 212.35 231.95 212.33 235.63 210.08ZM1084.26 207.89C1086.97 204.6 1087.34 201.51 1085.48 197.59C1084.17 194.83 1082.89 193.78 1079.89 192.97C1075.08 191.67 1068.49 193.21 1067.02 195.97C1065.4 198.99 1065.81 205.55 1067.77 207.97C1071.29 212.31 1080.66 212.26 1084.26 207.89ZM1200.2 208.31C1203.87 204.8 1204.04 199.32 1200.61 195.34C1198.51 192.89 1197.56 192.57 1192.59 192.64C1184.95 192.75 1183 194.57 1183 201.58C1183 206.09 1183.38 207.16 1185.63 208.93C1189.63 212.07 1196.58 211.78 1200.2 208.31ZM1383.4 208.6C1383.1 207.82 1383 205.69 1383.18 203.85L1383.5 200.5L1389 200.5C1394.5 200.5 1394.5 200.5 1394.82 203.82C1394.99 205.64 1394.6 207.78 1393.95 208.57C1392.36 210.48 1384.13 210.5 1383.4 208.6ZM1404.4 208.6C1404.1 207.82 1404 205.69 1404.18 203.85L1404.5 200.5L1410 200.5C1415.5 200.5 1415.5 200.5 1415.82 203.82C1415.99 205.64 1415.6 207.78 1414.95 208.57C1413.36 210.48 1405.13 210.5 1404.4 208.6ZM48.81 191.59C35.79 187.84 28.35 178.17 25.93 161.86C23.86 147.98 28.05 132.26 35.83 124.67C48.62 112.21 74.17 113.99 84.56 128.08C87.36 131.88 89.41 137.53 88.51 138.98C87.79 140.15 82.04 140.33 80.4 139.23C79.79 138.83 78.08 136.55 76.59 134.17C73.04 128.51 67.7 126.04 59 126.04C52.07 126.04 45.85 128.19 42.79 131.65C35.51 139.84 34.1 161.43 40.07 173.14C43.65 180.15 53.23 184.93 60.86 183.5C69.28 181.92 75.08 176.91 78.53 168.25C80.2 164.05 80.27 164 85.19 164L90.16 164L89.49 167.25C86.64 181.17 74.23 191.76 59.8 192.58C56.33 192.78 51.39 192.33 48.81 191.59ZM891 192.28C891 191.88 893.74 186.67 897.08 180.69C900.43 174.72 902.87 169.53 902.5 169.17C902.13 168.8 770.25 168.38 609.42 168.24L317 167.97L317 163.49L317 159L609.53 159C861.36 159 902.14 158.8 902.61 157.58C902.91 156.8 900.73 151.96 897.77 146.83C890.45 134.14 890.28 133.6 893.74 134.47C896.58 135.17 947.87 155.76 958.43 160.43C962.17 162.08 964 163.4 963.4 164C962.42 164.98 893.24 193 891.8 193C891.36 193 891 192.67 891 192.28ZM1009.27 191.04C996.75 186.54 990.22 177.62 987.99 161.97C985.37 143.54 992.47 125.27 1004.49 119.57C1013.21 115.43 1027.85 115.47 1036.65 119.64C1043.46 122.87 1052.13 134.62 1050.61 138.57C1050.03 140.07 1044.32 140.54 1042.43 139.23C1041.85 138.83 1039.95 136.42 1038.22 133.87C1034.36 128.2 1029.44 125.99 1020.73 126.02C1014.09 126.05 1007.79 128.27 1004.79 131.65C999.46 137.64 996.93 151.01 998.93 162.52C1001.02 174.54 1005.7 180.54 1014.91 182.99C1025.59 185.83 1035.89 179.89 1040.54 168.2C1042.25 163.92 1042.28 163.9 1046.88 164.2C1051.37 164.49 1051.49 164.59 1051.16 167.5C1050.61 172.33 1045.98 179.81 1040.38 184.93C1032 192.6 1020.08 194.94 1009.27 191.04ZM2238 190.75C2238 190.05 2240.64 184.95 2243.86 179.4L2249.72 169.32L2219.7 168.66C2203.19 168.3 1983.2 168 1730.84 168L1272 168L1272 163.5L1272 159L1760.44 159C2029.08 159 2249.11 158.63 2249.4 158.17C2249.68 157.71 2247.01 152.34 2243.45 146.22C2237.74 136.38 2236.18 133 2237.35 133C2237.74 133 2289.37 154.02 2301.25 159.02C2305.51 160.81 2309 162.65 2309 163.11C2309 163.57 2307.67 164.63 2306.05 165.47C2299.75 168.73 2241.75 192 2239.93 192C2238.87 192 2238 191.44 2238 190.75ZM144 154L144 116.89L148.75 117.2L153.5 117.5L154 132.5L154.5 147.5L171.87 147.77C183.83 147.96 189.67 147.69 190.62 146.9C191.68 146.02 192 142.38 192 131.32L192 116.89L196.75 117.2L201.5 117.5L201.5 154L201.5 190.5L196.75 190.8L192 191.11L192 174.57C192 158.26 191.97 158.03 189.75 157.48C188.51 157.18 180.07 157.06 171 157.21L154.5 157.5L154 174L153.5 190.5L148.75 190.8L144 191.11L144 154ZM1106 154L1106 116.89L1110.75 117.2L1115.5 117.5L1116 132.5L1116.5 147.5L1133.87 147.77C1145.83 147.96 1151.67 147.69 1152.62 146.9C1153.68 146.02 1154 142.38 1154 131.32L1154 116.89L1158.75 117.2L1163.5 117.5L1163.5 154L1163.5 190.5L1158.75 190.8L1154 191.11L1154 174.57C1154 158.26 1153.97 158.03 1151.75 157.48C1150.51 157.18 1142.08 157.06 1133 157.21L1116.5 157.5L1116 174L1115.5 190.5L1110.75 190.8L1106 191.11L1106 154ZM2335 188.99C2335 187.88 2338.74 181.02 2343.32 173.74C2347.89 166.46 2352.6 158.89 2353.79 156.92L2355.95 153.35L2345.98 136.92C2340.49 127.89 2336.01 119.99 2336 119.37C2336 117.82 2339.41 117.03 2346.1 117.01C2352.78 117 2352.92 117.12 2359.59 129.75C2362.27 134.84 2364.79 139 2365.17 139C2366.13 139 2368.92 134.84 2374.04 125.75L2378.4 118L2387.28 118L2396.16 118L2393.89 121.75C2392.65 123.81 2388.99 129.71 2385.78 134.86C2377.77 147.68 2375.75 151.87 2376.38 154.37C2376.68 155.54 2381.62 164.01 2387.37 173.18C2393.11 182.35 2397.55 190.11 2397.24 190.43C2396.92 190.74 2392.73 191 2387.92 191L2379.17 191L2373.01 179.94C2368.61 172.04 2366.38 168.97 2365.22 169.2C2364.32 169.37 2360.74 174.35 2357.26 180.26L2350.93 191L2342.96 191C2335.65 191 2335 190.84 2335 188.99ZM118.02 183.49C123.39 180.71 124.4 176.31 120.55 172.45C118.66 170.57 117.04 170 113.55 170C106.41 170 103.12 174.6 106.16 180.32C108.7 185.08 112.81 186.18 118.02 183.49ZM1080.02 183.49C1085.39 180.71 1086.4 176.31 1082.55 172.45C1080.66 170.57 1079.04 170 1075.55 170C1068.41 170 1065.12 174.6 1068.16 180.32C1070.7 185.08 1074.81 186.18 1080.02 183.49ZM1197.37 182.92C1201.27 179.86 1202.3 177.44 1200.87 174.75C1198.99 171.22 1196.85 170.07 1192.08 170.03C1186.55 169.99 1184 172.1 1184 176.7C1184 183.74 1191.75 187.34 1197.37 182.92ZM1837.45 128.04C1834.27 126.75 1829.22 120.45 1827.94 116.18C1827.24 113.85 1826.92 107.61 1827.14 100.41C1827.47 89.48 1827.73 88.11 1830.33 83.69C1834.5 76.58 1837.9 74.82 1846.69 75.21C1854.52 75.56 1857.54 77.33 1860.71 83.43C1862.1 86.1 1862.08 86.46 1860.52 87.61C1858.31 89.23 1856.24 88.39 1852.38 84.3C1845.59 77.12 1836.74 82.01 1834.48 94.19L1833.8 97.89L1837.61 95.94C1845.61 91.87 1856.33 94.93 1860.79 102.58C1865.44 110.54 1861.51 122.95 1852.97 127.25C1849.34 129.08 1841.05 129.5 1837.45 128.04ZM812.63 126.47C812.28 125.57 812 123.77 812 122.46C812 120.21 811.63 120.07 804.75 119.79L797.5 119.5L797.7 116.69C797.92 113.54 807.22 99.03 811.83 94.64C813.48 93.07 815.32 92.08 815.92 92.45C816.57 92.85 817 96.85 817 102.48C817 113.11 817.46 115 820.05 115C823.05 115 823.2 116.7 820.38 118.91C818.94 120.05 817.45 122.45 817.09 124.24C816.37 127.75 813.64 129.11 812.63 126.47ZM1729 124.47C1729 117.15 1733.63 111.28 1745.5 103.55C1754.45 97.73 1755.72 96.47 1756.93 92.23C1758.92 85.32 1751.58 79.4 1743.79 81.63C1740.66 82.53 1739.68 83.77 1736.78 90.5C1735.86 92.62 1734.68 93.59 1732.74 93.82C1730.23 94.11 1730 93.85 1730 90.78C1730 85.9 1733.91 78.88 1737.91 76.59C1742.58 73.91 1752.43 73.89 1756.98 76.56C1761.98 79.49 1764.27 83.22 1764.75 89.21C1765.41 97.43 1762.73 100.6 1746.06 111.35C1739.05 115.87 1737.35 117.85 1738.31 120.36C1738.85 121.76 1740.83 122 1752.04 122L1765.13 122L1764.82 124.75L1764.5 127.5L1746.75 127.77L1729 128.05L1729 124.47ZM1848.9 121.55C1857.36 117.18 1857.34 105.81 1848.87 101.43C1841.84 97.8 1834.97 102.49 1835.04 110.88C1835.08 116.24 1836.73 119.73 1840.11 121.6C1843.23 123.34 1845.48 123.32 1848.9 121.55ZM811.8 108.75C811.97 105.55 811.68 103 811.14 103C810.01 103 803 112.53 803 114.06C803 114.68 804.74 114.99 807.25 114.81L811.5 114.5L811.8 108.75ZM521.22 102.94C518.35 101.48 516.05 99.24 514.22 96.13C511.8 92.01 511.5 90.5 511.5 82.5C511.51 72.19 513.08 68.14 518.3 64.96C522.54 62.37 530.43 62.35 534.63 64.92C539.04 67.61 540 66.16 540 56.8L540 49L543.52 49L547.03 49L546.77 75.64C546.53 99.75 546.33 102.39 544.75 103.39C543.45 104.21 542.55 104.17 541.25 103.24C537.96 100.89 536.92 100.76 535.04 102.46C531.99 105.22 526.13 105.42 521.22 102.94ZM677.09 103.88C675.77 103.37 674.12 102.18 673.43 101.24C672.27 99.64 671.92 99.68 668.21 101.76C662.4 105.03 654.2 104.88 650.11 101.44C646.47 98.38 645.32 93.58 647 88.49C648.56 83.78 652.27 81.58 661.15 80.11C669.87 78.67 672 77.59 672 74.62C672 70.59 668.76 68.67 662.91 69.23C658.63 69.65 657.35 70.26 655.31 72.86C652.65 76.26 649.31 76.98 648.31 74.37C647.32 71.79 651.12 65.85 654.71 64.35C658.87 62.61 668.16 62.62 672.28 64.36C678.67 67.07 679.22 68.51 679.78 84.11C680.24 96.95 680.47 98.31 682.19 98.76C684.54 99.37 684.18 101.83 681.5 103.54C680.12 104.42 678.76 104.52 677.09 103.88ZM702.82 103.48C697.1 101.65 692.42 97.17 691.04 92.21C689.49 86.63 689.7 86 693.02 86C695.54 86 696.51 86.76 698.77 90.5C701.99 95.83 706.01 98 712.65 98C723.43 97.99 729.91 88.98 722.89 83.76C721.45 82.69 715.61 80.52 709.9 78.92C704.19 77.33 698.39 75.19 697.01 74.17C689.47 68.58 691.66 53.76 700.66 49.49C705.86 47.02 720.83 47.74 724.75 50.65C731.76 55.84 734.16 64.19 728.83 64.81C726.62 65.06 725.86 64.51 724.5 61.64C722.4 57.22 717.8 55 710.73 55C703.67 55 700 57.58 700 62.55C700 67 702.16 68.37 715.11 72.13C730.07 76.46 733 79.02 733 87.7C733 97.91 726.22 104 714.13 104.63C710.05 104.85 705.7 104.4 702.82 103.48ZM756.92 103.51C751.33 101.71 745.44 96.18 742.61 90.07C740.93 86.43 740.5 83.56 740.5 76C740.5 67.44 740.8 65.9 743.5 60.5C745.58 56.34 747.83 53.58 750.83 51.5C754.75 48.79 756.06 48.47 764.33 48.17C772.81 47.86 773.91 48.05 779 50.71C797.99 60.61 797.06 93.15 777.52 102.42C772.57 104.77 762.49 105.3 756.92 103.51ZM464 76.56L464 49L477.75 49.02C489.14 49.04 492.23 49.37 495.73 50.96C503.56 54.52 506.27 63.64 501.99 72.03C498.75 78.37 496.23 79.43 483.05 80L471.5 80.5L471 92L470.5 103.5L467.25 103.81L464 104.13L464 76.56ZM599.75 103.43C599.34 103.01 599 90.59 599 75.83L599 49L612.75 49.02C624.21 49.04 627.21 49.37 630.79 50.99C638.59 54.53 640.88 65.18 634.99 70.51C633.9 71.5 633 72.6 633 72.96C633 73.32 634.56 75.32 636.47 77.4C642.13 83.58 642.38 90.95 637.11 96.72C631.9 102.42 628.82 103.36 614 103.8C606.58 104.02 600.16 103.85 599.75 103.43ZM1617.23 83.75L1617.5 63.5L1622.61 63.2L1627.71 62.91L1628.35 68.2C1629.49 77.7 1629.11 101.49 1627.8 102.8C1627.14 103.46 1624.43 104 1621.78 104L1616.96 104L1617.23 83.75ZM1638 98L1638 92L1644 92L1650 92L1650 96.8C1650 99.44 1649.46 102.14 1648.8 102.8C1648.14 103.46 1645.44 104 1642.8 104L1638 104L1638 98ZM1681.67 103.33C1681.3 102.97 1681 90.59 1681 75.83L1681 49L1694.75 49.02C1712 49.05 1715.98 50.44 1719.12 57.53C1721.41 62.72 1720.75 66.51 1716.8 70.71L1714.64 73.01L1717.17 75.76C1721.48 80.44 1723 83.32 1723 86.82C1723 94.32 1717.1 101.05 1708.85 102.95C1703.99 104.07 1682.7 104.37 1681.67 103.33ZM1774.67 103.33C1774.3 102.97 1774 90.59 1774 75.83L1774 49L1777.97 49L1781.93 49L1782.22 59.75L1782.5 70.5L1796 70.5L1809.5 70.5L1809.78 59.75L1810.07 49L1814.03 49L1818 49L1818 75.38C1818 103.77 1817.86 104.54 1812.81 103.83C1810.55 103.51 1810.49 103.21 1810.22 90.75L1809.94 78L1803.62 78C1800.15 78 1793.86 78.29 1789.65 78.65L1782 79.29L1782 90.45C1782 97.79 1781.59 102.01 1780.8 102.8C1779.51 104.09 1775.75 104.42 1774.67 103.33ZM663.68 97.94C668.41 96.15 672 92.02 672 88.37C672 86.58 671.63 84.89 671.18 84.61C669.81 83.77 655.97 87.6 654.28 89.29C651.49 92.08 655.42 98.5 660.18 98.94C660.56 98.97 662.14 98.52 663.68 97.94ZM534.89 94.96C543.98 85.86 537.27 67.23 525.68 69.4C521.15 70.25 519.13 73.07 518.36 79.62C516.69 93.78 526.74 103.11 534.89 94.96ZM773.82 95.4C781.42 91.62 784.47 86.05 784.47 76C784.47 69.68 784.05 67.77 781.83 63.98C778.35 58.03 772.94 54.99 765.86 55.02C755.22 55.05 748.94 61.61 748.18 73.5C747.68 81.33 749.31 87.15 753.27 91.66C759.22 98.43 765.46 99.57 773.82 95.4ZM628.73 94.35C634.19 90.28 634.03 82.1 628.45 79.98C627.03 79.44 621.33 78.7 615.78 78.34L605.68 77.68L606.34 82.48C606.7 85.12 607 89.52 607 92.26L607 97.24L616.49 96.82C624.07 96.49 626.53 96 628.73 94.35ZM1710.74 94.35C1716.16 90.32 1716.23 82.84 1710.87 80.27C1709.45 79.59 1703.65 78.73 1697.99 78.35L1687.69 77.68L1688.34 80.96C1688.7 82.77 1689 87.17 1689 90.74L1689 97.24L1698.49 96.82C1706.07 96.49 1708.53 96 1710.74 94.35ZM551.25 84.34C549.49 83.63 549.69 81.33 551.58 80.61C554.11 79.64 589.35 79.94 590.94 80.94C592.13 81.69 592.15 82.12 591.06 83.42C589.95 84.76 586.93 84.99 571.13 84.92C560.88 84.88 551.94 84.62 551.25 84.34ZM488.68 72.93C495.66 70.29 498.13 63.86 494.09 58.86C492.34 56.7 491.3 56.47 481.59 56.16L471 55.82L471 64.91L471 74L478.43 74C482.52 74 487.14 73.52 488.68 72.93ZM626.49 69.6C629.27 67.78 630.52 64.19 629.61 60.6C628.79 57.31 624.45 56 614.35 56L606 56L606 63.33C606 67.37 606.34 71.02 606.75 71.44C608.08 72.82 623.82 71.35 626.49 69.6ZM1708.49 69.6C1711.29 67.77 1712.51 64.19 1711.6 60.54C1710.77 57.22 1705.59 55.78 1696 56.18L1688.5 56.5L1688.19 61.95C1688.02 64.94 1688.16 68.49 1688.49 69.83C1689.1 72.24 1689.24 72.27 1697.56 71.75C1702.89 71.42 1706.93 70.62 1708.49 69.6ZM1617 53.55L1617 49L1623.06 49L1629.11 49L1628.81 53.25L1628.5 57.5L1622.75 57.8L1617 58.1L1617 53.55Z" fill="#1e2749" fill-rule="evenodd"/>
</svg>
