<?xml version="1.0" encoding="UTF-8"?>
<svg xmlns="http://www.w3.org/2000/svg" viewBox="0 0 524 351" width="524" height="351" shape-rendering="geometricPrecision">
<path d="M239.51 331.02C239.4 330.83 239.27 309.26 239.23 283.09L239.17 235.5L162.43 235.42C86.1 235.33 85.69 235.33 85.33 234.67C84.98 234.01 84.62 234 55.05 234C32.23 234 25.04 233.91 24.73 233.6C24.51 233.38 24.33 232.81 24.33 232.33C24.33 231.86 24.51 231.29 24.73 231.07C25.04 230.76 32.18 230.67 54.85 230.67C84.14 230.67 84.57 230.66 85.17 230C85.77 229.34 86.19 229.33 162.15 229.33C221.12 229.33 238.62 229.24 238.93 228.93C239.24 228.62 239.33 206.74 239.33 132.47C239.33 45.18 239.38 36.39 239.86 36.2C240.78 35.85 241.9 35.98 242.34 36.5C242.67 36.9 242.73 53.6 242.66 118.09C242.61 162.68 242.59 205.84 242.62 214L242.68 228.83L244.59 226.83C245.64 225.73 249.57 221.46 253.33 217.35C263.49 206.22 265.08 204.51 265.4 204.38C265.57 204.32 266.07 203.67 266.53 202.95C266.99 202.23 267.62 201.54 267.93 201.44C268.82 201.12 270.33 199.6 270.33 199.01C270.33 198.71 271.63 197.13 273.22 195.49C274.8 193.84 277.61 190.85 279.45 188.83C281.29 186.82 285.13 182.62 287.98 179.52C290.83 176.41 294.25 172.66 295.58 171.18C296.9 169.71 298.18 168.32 298.41 168.09C298.64 167.86 299.17 167.34 299.59 166.92C300.52 165.99 311.04 154.43 315.33 149.62C318.67 145.88 319.56 144.92 320.67 143.83C321.05 143.47 322.17 142.17 323.16 140.95C324.15 139.73 326.06 137.63 327.4 136.28C330.45 133.2 332.76 130.72 341.33 121.34C345.09 117.23 350.04 111.82 352.33 109.33C354.62 106.84 359.57 101.44 363.33 97.33C367.09 93.22 371.15 88.8 372.35 87.51C373.54 86.22 374.74 84.86 375.01 84.49C375.28 84.12 375.91 83.56 376.42 83.24C376.92 82.91 377.33 82.42 377.33 82.13C377.33 81.42 381.3 77.33 381.99 77.33C382.72 77.33 383.33 76.68 383.33 75.89C383.33 75.14 388.27 70.02 389 70.01C389.27 70 390.38 70.79 391.46 71.75L393.42 73.51L391.12 76C389.85 77.38 388.15 79.31 387.34 80.3C386.52 81.29 384.58 83.42 383.01 85.03C381.45 86.64 379.66 88.65 379.04 89.49C378.42 90.32 377.57 91.1 377.14 91.2C376.72 91.31 376.32 91.6 376.27 91.86C376.21 92.11 366.85 102.49 355.46 114.91C344.08 127.33 334 138.4 333.08 139.5C332.15 140.6 330.75 142.17 329.97 143C329.18 143.82 327.59 145.61 326.43 146.96C325.26 148.31 323.93 149.72 323.47 150.08C322.72 150.67 314.07 160.04 293.53 182.49C289.85 186.51 285.67 191.05 284.26 192.57C282.84 194.09 281.44 195.71 281.14 196.16C280.85 196.61 280.34 197.06 280 197.17C279.67 197.27 279.32 197.69 279.21 198.1C279.11 198.5 277.48 200.42 275.6 202.37C272.51 205.55 269.99 208.23 262.5 216.31C254.73 224.69 250.33 229.68 250.33 230.14C250.33 230.59 251.53 230.67 260.25 230.75L270.17 230.83L270.27 231.94C270.47 234.04 270.72 234 258.5 234C249.02 234 247.35 234.07 247 234.5C246.44 235.18 243.75 236.35 243.23 236.14C242.89 236.02 242.79 243.53 242.72 273.57C242.67 294.25 242.53 315.67 242.4 321.17L242.17 331.17L240.95 331.27C240.28 331.32 239.63 331.21 239.51 331.02ZM383.56 270.11C383.43 269.99 383.33 267.28 383.33 264.09L383.33 258.29L384.42 258.4L385.5 258.5L385.59 263.96C385.65 267.7 385.56 269.56 385.3 269.87C384.9 270.36 383.93 270.49 383.56 270.11ZM371.39 266.75C371.22 266.43 370.01 263.24 368.69 259.67C367.36 256.09 365.99 252.46 365.64 251.6C364.61 249.08 364.73 248.67 366.51 248.67C367.98 248.67 368.04 248.71 368.64 250.12C368.99 250.91 370.06 253.91 371.02 256.78C372.89 262.32 373.2 262.66 374.01 260.06C374.41 258.79 375.8 254.84 377.24 250.92L378.06 248.67L379.51 248.67C380.31 248.67 381.05 248.82 381.17 249C381.28 249.19 380.9 250.57 380.32 252.09C379.74 253.6 379.07 255.36 378.82 256C378.58 256.64 377.6 259.27 376.66 261.83C375.71 264.4 374.79 266.69 374.6 266.92C374.06 267.57 371.75 267.45 371.39 266.75ZM383.57 256.13C383.44 256 383.33 255.46 383.33 254.94C383.33 254.12 383.46 254 384.34 254C385.47 254 385.98 254.76 385.44 255.63C385.07 256.21 383.95 256.51 383.57 256.13ZM301.74 234.04C301.64 233.79 301.74 233.3 301.95 232.96C302.16 232.62 302.33 232.13 302.33 231.87C302.33 231.58 302.87 231.31 303.75 231.15C306.2 230.72 501.69 230.61 502.21 231.04C502.86 231.57 502.77 232.8 502.06 233.45C501.49 233.96 494.45 234 407.97 234.04C356.56 234.06 311.67 234.17 308.21 234.29C303.02 234.46 301.88 234.42 301.74 234.04ZM209 163.43C207.93 163.04 206.66 161.48 206.09 159.86C205.29 157.56 205.29 152.77 206.1 150.46C206.95 148.02 207.91 147.24 210.25 147.09C212.86 146.92 214.21 147.65 215.32 149.82C216.08 151.3 216.17 151.88 216.17 155.17C216.17 158.47 216.08 159.02 215.31 160.51C214.24 162.59 212.7 163.68 210.87 163.64C210.12 163.63 209.28 163.53 209 163.43ZM212.18 161.13C214.44 159.64 214.63 151.4 212.43 149.67C211.46 148.91 210.07 148.8 209.21 149.43C208.42 150.01 208.02 151.97 208.01 155.33C208 158.7 208.43 160.46 209.42 161.16C210.35 161.81 211.15 161.8 212.18 161.13ZM193.87 160.27C193.61 159.66 193.18 158.57 192.9 157.83C192.63 157.1 192.18 155.9 191.89 155.17C190.04 150.38 187.67 143.65 187.67 143.2C187.67 142.79 188.01 142.67 189.15 142.67C189.97 142.67 190.75 142.85 190.89 143.08C191.16 143.51 192.08 146.03 194.26 152.42C194.94 154.39 195.63 155.96 195.79 155.9C196.04 155.82 197.64 151.51 200.14 144.17C200.57 142.92 200.69 142.83 202.01 142.73C202.79 142.67 203.56 142.76 203.73 142.93C203.91 143.11 202.9 146.32 201.16 151.03C197.33 161.46 197.5 161.14 195.75 161.27C194.43 161.36 194.31 161.3 193.87 160.27ZM393.17 157.12C392.8 157.05 391.68 156.83 390.67 156.64C387.94 156.11 386.14 155.38 383.08 153.56C380.14 151.81 375.29 147.77 373.82 145.84C373 144.77 372 144.27 372 144.94C372 145.09 372.24 146.01 372.53 146.98C373.08 148.84 373.03 148.98 371.62 149.58C370.61 150.01 369.93 149.5 369.51 148C369.11 146.55 367.29 140.59 366.58 138.41C366.21 137.25 365.77 136.23 365.62 136.14C365.46 136.04 365.33 135.72 365.33 135.42C365.33 135.13 364.66 133.81 363.83 132.48C362.16 129.8 362.11 129.6 362.87 128.97C363.26 128.65 363.34 128.2 363.19 127.27C362.9 125.45 363.65 125.6 366.54 127.93C367.84 128.97 371.17 131.62 373.94 133.8L378.97 137.76L378.49 138.69C377.59 140.43 376.96 140.27 373.34 137.35C371.5 135.88 369.92 134.67 369.83 134.67C368.6 134.67 373.2 140.81 377.71 145.2C382.88 150.22 386.69 152.55 391.33 153.54C395.3 154.38 398.59 153.94 402.92 151.98C409.01 149.23 416.86 141.51 423.33 131.91C424.52 130.14 425.7 128.62 425.95 128.52C426.51 128.28 428.33 129.34 428.33 129.89C428.33 131.02 421.03 140.69 416.65 145.35C413.97 148.21 407.89 153.33 407.18 153.33C407.09 153.33 406.28 153.78 405.38 154.33C404.49 154.88 403.57 155.33 403.35 155.33C403.12 155.33 402.46 155.54 401.88 155.8C399.35 156.92 395.29 157.54 393.17 157.12ZM423.5 121.92C423.43 121.69 423.32 117.65 423.26 112.94C423.21 108.24 423.06 104.28 422.92 104.14C422.79 104.01 422.11 104.29 421.42 104.77C419.88 105.82 418.37 106.42 417.78 106.19C417.53 106.1 417.33 105.52 417.33 104.88C417.33 103.86 417.57 103.58 419.65 102.06C420.92 101.13 422.53 99.62 423.23 98.71C424.27 97.33 424.69 97.03 425.56 97.02C426.15 97.01 426.73 97.16 426.85 97.36C427.24 97.99 427.02 121.41 426.62 121.89C426.15 122.45 423.69 122.47 423.5 121.92Z" fill="#1e2749" fill-rule="evenodd"/>
</svg>
