<?xml version="1.0" encoding="UTF-8"?>
<svg xmlns="http://www.w3.org/2000/svg" viewBox="0 0 2430 2694" width="2430" height="2694" shape-rendering="geometricPrecision">
<path d="M220 2647.06C194.8 2641.71 163.84 2626.4 137 2606.01C128.75 2599.74 115.78 2591.26 106.52 2586.07C79.7 2571.05 60.91 2544.21 55.47 2513.12C53.4 2501.32 53.59 2482.59 55.89 2471.5C63.09 2436.84 88 2407.69 120.1 2396.38C126.31 2394.19 129.79 2393.69 141.81 2393.26C164.49 2392.45 178.78 2395.76 195.06 2405.6C218.24 2419.61 234.84 2443.36 240.52 2470.64C247.03 2501.95 240.18 2532.53 220.97 2557.83C212.37 2569.16 200.96 2578.87 186.1 2587.51C177.68 2592.4 174.23 2594.94 174.58 2595.95C175.94 2599.83 187.37 2614.42 195.03 2622.04C204.81 2631.77 213.27 2636.7 229.27 2642.01C234.64 2643.79 239.28 2645.64 239.58 2646.12C240.32 2647.33 235.57 2649.02 231.68 2648.93C229.93 2648.89 224.68 2648.05 220 2647.06ZM162.47 2583.47C171.55 2581.1 177.81 2577.25 186.18 2568.89C195.48 2559.58 201.51 2548.13 205.58 2532C207.86 2522.96 208.3 2518.79 208.7 2502C209.22 2480.3 208.02 2469.09 203.52 2453.62C198.34 2435.85 189.08 2421.43 177.87 2413.71C170.74 2408.8 159.41 2404.97 150 2404.29C143.39 2403.82 141.37 2404.13 133 2406.94C127.78 2408.69 121.5 2411.28 119.06 2412.71C104.45 2421.25 94.97 2437.21 90.33 2461.07C88.87 2468.61 88.51 2475.2 88.54 2494C88.57 2514.61 88.85 2518.78 90.84 2527.92C97.54 2558.71 112.03 2577.7 133 2583.19C141.2 2585.33 154.81 2585.46 162.47 2583.47ZM2219.25 2553.27C2216.82 2553.05 2215.01 2552.37 2215.03 2551.69C2215.04 2551.04 2217.92 2549.22 2221.43 2547.65C2231.77 2543.03 2234 2540.65 2235.09 2533C2236.62 2522.25 2237.38 2424.14 2236.12 2400.56C2235.16 2382.67 2234.68 2378.98 2232.85 2375.2C2230.42 2370.17 2226.64 2368.06 2219.78 2367.9C2213.83 2367.76 2210.57 2366.7 2210.2 2364.78C2209.66 2361.97 2217.31 2361.5 2262.5 2361.55C2312.38 2361.6 2317.66 2362.11 2329.55 2367.95C2358.62 2382.22 2368.57 2412.71 2351.65 2435.69C2345.64 2443.86 2339.71 2448.63 2326.99 2455.55C2320.97 2458.82 2316.03 2461.88 2316.02 2462.35C2315.99 2463.55 2330.96 2485.31 2342.68 2501.11C2361.56 2526.55 2373.33 2539.07 2383.02 2544.01C2384.97 2545 2389.24 2546.31 2392.5 2546.92C2399.63 2548.23 2401.95 2549.97 2399.4 2552.09C2398.06 2553.2 2392.45 2553.57 2373.01 2553.83L2348.32 2554.15L2338.45 2540.33C2301.38 2488.39 2289.13 2472.48 2283.55 2469.03C2281.28 2467.63 2277.66 2466.69 2273.04 2466.3L2266 2465.71L2266 2495.52C2266 2538.7 2266.91 2542.14 2279.76 2547.5C2283.71 2549.15 2286.81 2550.95 2286.64 2551.5C2286.48 2552.05 2283.9 2552.79 2280.92 2553.15C2275.23 2553.83 2226.57 2553.93 2219.25 2553.27ZM317.38 2479.54C317 2478.56 316.99 1992.83 317.35 1400.13C317.95 414.03 318.36 166.51 319.39 141.63C319.79 132.07 320.37 131.04 325.35 131.02C331.68 130.98 334.53 133.64 349.87 153.86C358.07 164.66 371.48 182.28 379.68 193C387.87 203.72 399.71 219.25 405.98 227.5C417 242 438.63 270.33 478.5 322.5C498.56 348.74 545.46 410.17 562.5 432.52C571.65 444.52 628.16 518.5 662.79 563.8C670.65 574.09 683.09 590.38 690.44 600C697.78 609.62 715.32 632.58 729.41 651C743.51 669.42 758.99 689.67 763.81 696C768.64 702.33 781.54 719.2 792.48 733.5C803.42 747.8 817.32 766.02 823.38 774C829.44 781.98 844.73 802 857.38 818.5C887.41 857.71 890.77 862.1 902.51 877.5C916.92 896.4 1025.21 1038.11 1048.04 1067.92C1058.74 1081.9 1072.9 1100.42 1079.5 1109.08C1102.08 1138.69 1121.81 1164.51 1147.44 1198C1161.54 1216.42 1176.83 1236.45 1181.41 1242.5C1186 1248.55 1192.86 1257.55 1196.66 1262.5C1204.74 1273 1226.23 1301.11 1239.88 1319C1248.67 1330.52 1290.2 1384.82 1304.52 1403.5C1313.35 1415.02 1332.81 1440.48 1343.89 1455C1349.13 1461.88 1366.69 1484.83 1382.9 1506C1399.11 1527.17 1416.66 1550.12 1421.9 1557C1427.13 1563.88 1447.6 1590.65 1467.38 1616.5C1487.16 1642.35 1507.63 1669.12 1512.87 1676C1518.1 1682.88 1526.71 1694.12 1531.99 1701C1537.27 1707.88 1546.06 1719.35 1551.51 1726.5C1556.96 1733.65 1580.53 1764.47 1603.89 1795C1627.25 1825.53 1650.65 1856.12 1655.89 1863C1661.13 1869.88 1684.53 1900.47 1707.89 1931C1731.25 1961.53 1754.65 1992.12 1759.89 1999C1767.84 2009.42 1832.89 2094.46 1861.63 2132C1866.05 2137.78 1883.61 2160.72 1900.65 2183C1917.7 2205.28 1936.99 2230.47 1943.53 2239C1950.07 2247.53 1965.79 2268.06 1978.46 2284.63C1991.13 2301.21 2009.57 2325.28 2019.44 2338.13C2108.43 2454.05 2111.92 2458.76 2116.42 2468.8C2119 2474.54 2117.74 2475.7 2107.47 2477.02C2087.56 2479.57 1965.52 2480.04 1160.28 2480.66C355.24 2481.28 318.02 2481.23 317.38 2479.54ZM2086.37 2459.98C2087.48 2458.93 2087.9 2459.52 2054.58 2416C2008.24 2355.46 1988.1 2329.14 1978.1 2316C1972.86 2309.12 1948.79 2277.62 1924.6 2246C1900.42 2214.38 1877.19 2184 1872.98 2178.5C1853.88 2153.51 1815.04 2102.74 1809.49 2095.5C1795.02 2076.64 1778.95 2055.63 1770.1 2044C1759.35 2029.87 1714.84 1971.67 1705.47 1959.5C1699.02 1951.12 1685.27 1933.12 1667.26 1909.5C1661.4 1901.8 1643.32 1878.17 1627.1 1857C1599.89 1821.48 1586.06 1803.39 1564.01 1774.5C1553.55 1760.79 1507.13 1700.13 1493.22 1682C1487.53 1674.58 1479.45 1664 1475.28 1658.5C1471.11 1653 1456.17 1633.46 1442.1 1615.07C1428.02 1596.68 1412.34 1576.21 1407.26 1569.57C1402.18 1562.93 1392.73 1550.53 1386.26 1542.02C1379.79 1533.5 1370.45 1521.29 1365.5 1514.89C1360.55 1508.48 1351.82 1497.11 1346.11 1489.62C1340.4 1482.13 1335.2 1476 1334.55 1476C1333.18 1476 604.56 2204.96 473.45 2337.5C364.07 2448.08 355 2457.42 355 2459.41C355 2460.83 362.25 2461.02 426.25 2461.31C573 2461.98 2085.54 2460.77 2086.37 2459.98ZM2281.41 2454.51C2305.19 2451.34 2316.25 2444.52 2323.69 2428.42C2326.09 2423.24 2326.44 2421.25 2326.47 2412.5C2326.49 2404.31 2326.07 2401.35 2324.09 2396.16C2318.09 2380.35 2303.14 2371.89 2281.5 2372.06C2273.06 2372.13 2268.86 2373.79 2267.68 2377.5C2267.16 2379.15 2266.52 2397.49 2266.27 2418.25L2265.8 2456L2268.15 2455.98C2269.44 2455.97 2275.41 2455.31 2281.41 2454.51ZM850.52 1931.5C964.87 1816.55 1097.64 1683.12 1145.56 1635C1274.56 1505.44 1320.79 1458.62 1320.8 1457.5C1320.81 1456.95 1306.57 1437.87 1289.16 1415.09C1271.75 1392.32 1253.72 1368.69 1249.1 1362.59C1244.49 1356.49 1232.76 1341.15 1223.05 1328.5C1213.34 1315.85 1196.98 1294.47 1186.69 1281C1161.39 1247.86 1109.25 1179.7 1096.15 1162.62C1084.57 1147.53 1060.9 1116.59 1043.55 1093.85C965.95 992.17 930.06 946.15 927.8 945.44C926.73 945.1 925.61 945.05 925.33 945.34C924.87 945.8 906.69 992.38 893.08 1028C884.62 1050.12 847.95 1145.28 845.29 1152C843.88 1155.58 841.27 1162.33 839.5 1167C837.72 1171.67 826.81 1200.03 815.24 1230C803.68 1259.97 786.24 1305.2 776.48 1330.5C766.73 1355.8 756.75 1381.67 754.31 1388C751.86 1394.33 747.88 1404.67 745.46 1411C737.78 1431.07 730.47 1450.01 724.04 1466.5C720.61 1475.3 715.41 1488.8 712.49 1496.5C706.89 1511.21 705.32 1515.28 673.21 1598.5C629.72 1711.19 618.52 1740.25 611.34 1759C607.23 1769.72 602.8 1781.2 601.5 1784.5C598.88 1791.16 584.45 1828.6 577.03 1848C567.27 1873.5 476.5 2108.89 467.51 2132C462.78 2144.15 441.9 2198.53 434.48 2218C431.03 2227.07 422.71 2248.68 416 2266C409.3 2283.32 401.42 2303.8 398.49 2311.5C395.57 2319.2 388.83 2336.75 383.52 2350.5C369.19 2387.59 354 2427.86 354 2428.73C354.01 2429.72 586.09 2197.31 850.52 1931.5ZM344.75 2395.5C356 2366.66 371.53 2326.69 383.98 2294.5C391.22 2275.8 398.2 2257.8 399.49 2254.5C400.79 2251.2 405.75 2238.38 410.53 2226C415.31 2213.62 421.13 2198.55 423.47 2192.5C448.41 2128.01 454.24 2112.92 460.53 2096.5C464.53 2086.05 470.96 2069.4 474.8 2059.5C478.64 2049.6 498.28 1998.75 518.43 1946.5C538.59 1894.25 556.92 1846.78 559.16 1841C565.29 1825.22 596.4 1744.63 602.98 1727.5C608.43 1713.29 616.85 1691.42 632.04 1652C635.75 1642.38 643.37 1622.58 648.97 1608C654.57 1593.42 660.74 1577.45 662.68 1572.5C664.63 1567.55 667.47 1560.12 668.99 1556C670.52 1551.88 674.05 1542.65 676.84 1535.5C686.73 1510.17 703.28 1467.31 708.52 1453.5C711.44 1445.8 716.6 1432.3 720 1423.5C723.4 1414.7 730.14 1397.15 734.98 1384.5C747.35 1352.16 763.7 1309.61 766.5 1302.5C767.79 1299.2 774.09 1282.78 780.49 1266C786.9 1249.22 794.99 1228.08 798.49 1219C805.03 1202.01 818.34 1167.16 825.03 1149.5C882.48 997.87 899.52 951.66 905.93 930.09C909.57 917.82 911.3 921.99 892.1 896.68C884.62 886.83 871.29 869.26 862.48 857.63C830.58 815.56 820.39 802.15 805.35 782.5C796.93 771.5 780.1 749.45 767.95 733.5C755.8 717.55 742.74 700.45 738.93 695.5C731.89 686.36 700.87 645.72 687.03 627.5C682.85 622 675.63 612.55 670.99 606.5C662.24 595.08 643.63 570.66 625.29 546.5C619.44 538.8 607.4 523.05 598.54 511.5C581.56 489.39 569.97 474.24 520.85 410C504.24 388.27 484.97 363.07 478.03 354C465.66 337.84 434.69 297.32 418.02 275.5C413.4 269.45 402.87 255.72 394.63 245C386.39 234.28 377.57 222.8 375.04 219.5C348.91 185.49 340.66 175 340.03 175C336.41 175 335.77 324.04 335.75 1182C335.73 2078.88 336.6 2412.06 338.97 2409.32C339.36 2408.87 341.96 2402.65 344.75 2395.5ZM1482 1493.5C1477.88 1492.79 1469.16 1490.81 1462.64 1489.11C1447.15 1485.05 1445.73 1485.09 1441.5 1489.71C1439.62 1491.76 1437.74 1493.07 1437.3 1492.63C1436.27 1491.61 1436.25 1437.4 1437.27 1433.75C1438.55 1429.15 1440.79 1430.44 1442.49 1436.75C1447.62 1455.78 1449.66 1459.69 1458.93 1468.28C1466.24 1475.04 1477.11 1480.4 1487.92 1482.56C1502.47 1485.48 1514.69 1482.68 1524.01 1474.3C1531.15 1467.88 1534.36 1461.27 1534.35 1453C1534.34 1443.37 1531.33 1437.22 1523.62 1431.12C1516.36 1425.39 1497.11 1412.51 1484.5 1404.96C1459.89 1390.22 1442.76 1375.57 1437.58 1364.84C1431.54 1352.32 1431.77 1339.3 1438.27 1325.68C1444.3 1313.03 1453.56 1304.71 1467.35 1299.52C1482.38 1293.86 1496.8 1294.17 1517.22 1300.57C1530.7 1304.8 1534.16 1305.06 1537.79 1302.16C1544.54 1296.75 1544.99 1296.56 1546.68 1298.25C1548.02 1299.59 1548.22 1303.25 1548.1 1323.74C1547.95 1347.35 1547.03 1358.37 1545.02 1360.38C1543.28 1362.12 1542.21 1359.93 1540.11 1350.3C1537.46 1338.12 1533.8 1330.95 1526.38 1323.41C1516.16 1313.04 1500.29 1306.95 1487.07 1308.34C1472.89 1309.82 1461.69 1317.57 1458.58 1328.06C1452.95 1347.01 1459.68 1353.95 1515.52 1386.73C1535.79 1398.63 1549.73 1410.17 1555.7 1420C1561.57 1429.65 1563.3 1441.48 1560.48 1452.54C1556.64 1467.59 1545.2 1482.33 1532.71 1488.32C1519.29 1494.76 1500.48 1496.68 1482 1493.5ZM1025.19 942.29C1021.63 941.61 1022.98 940.11 1029.52 937.47C1036.74 934.55 1040.32 930.83 1042.65 923.79C1044.25 918.97 1044.44 911.63 1044.76 841.75L1045.12 765L1025.31 765.01C1014.42 765.01 1003.86 765.47 1001.85 766.03C995.45 767.8 986.04 780.93 986.01 788.12C986 789.55 985.02 791.97 983.83 793.49C981.78 796.1 981.58 796.15 980.33 794.43C977.87 791.07 979.12 767 982.52 752.24L983.04 749.99L1061.77 750.24L1140.5 750.5L1140.79 758.93C1141.25 771.98 1139.39 792.04 1137.55 793.88C1135.42 796.01 1133.98 794.32 1133.28 788.87C1132.2 780.43 1125.98 771.24 1118.64 767.22C1116.02 765.78 1112.07 765.45 1094.69 765.18L1073.89 764.85L1074.28 841.68C1074.57 898.27 1075 919.74 1075.91 923.21C1077.91 930.85 1080.76 934.13 1088 937.15C1100.74 942.46 1097.72 943.04 1058.12 942.86C1041.28 942.79 1026.46 942.53 1025.19 942.29ZM105.46 255.93C104.63 254.6 104.28 254.85 112 251.2C120.43 247.22 124.06 243.4 125.21 237.29C125.7 234.65 126.36 207.98 126.67 178C127.28 118.38 126.16 84.24 123.39 78.41C121.58 74.59 116.79 72.02 111.35 71.94C106.08 71.87 100.59 69.85 100.21 67.85C99.67 65.05 106.61 64.51 139.5 64.77C191.42 65.18 207.81 66.92 218.92 73.21C231.24 80.19 243 95.34 245.91 108C249.71 124.46 244.21 141.68 231.13 154.3C217.87 167.11 209.79 169.33 178.25 168.84L156 168.5L156 198.92C156 216.88 156.46 231.97 157.12 235.77C158.55 244.01 161.81 247.85 170.51 251.54C182.58 256.67 180.76 257 139.98 257C117.08 257 105.9 256.65 105.46 255.93ZM191.52 155.99C197.57 153.06 207.39 142.94 210.66 136.27C214.55 128.32 215.18 115.05 212.11 105.83C209.28 97.33 204.14 89.92 197.68 85.05C190.1 79.33 185.24 77.83 172.37 77.25C158.38 76.63 157.61 77.16 156.67 88.1C155.87 97.43 157.57 155.97 158.68 157.08C159.7 158.1 172.3 158.84 180.88 158.39C184.66 158.19 189 157.21 191.52 155.99Z" fill="#1e2749" fill-rule="evenodd"/>
</svg>
