<?xml version="1.0" encoding="UTF-8"?>
<svg xmlns="http://www.w3.org/2000/svg" viewBox="0 0 2430 913" width="2430" height="913" shape-rendering="geometricPrecision">
<path d="M13.71 898.38C13.32 897.99 13 870.29 13 836.83L13 776L34.75 776.02C70.64 776.05 76.56 777.82 82.97 790.38C86.08 796.47 86.48 798.18 86.83 806.95C87.51 823.9 82.88 833.59 71.1 839.86C67.75 841.65 65 843.32 65 843.57C65 843.82 67.01 846.5 69.47 849.52C74.81 856.07 94.54 895.16 93.66 897.45C93.2 898.64 91.48 899 86.2 899L79.34 899L68.94 878.34C57.93 856.44 54.64 851.12 50.42 848.36C47.12 846.19 37.96 844.87 31.77 845.65L27.03 846.25L26.77 872.38L26.5 898.5L20.46 898.79C17.14 898.95 14.1 898.77 13.71 898.38ZM101.22 840.44C98.46 838.51 98.26 833.7 100.85 831.25C102.65 829.55 113.76 822.31 129 812.92C133.12 810.38 148.88 800.51 164 791C179.12 781.49 205.9 764.71 223.5 753.71C241.1 742.71 257.75 732.27 260.5 730.51C263.25 728.75 270.45 724.25 276.5 720.51C282.55 716.78 289.75 712.27 292.5 710.5C295.25 708.74 305.6 702.24 315.5 696.07C325.4 689.9 338.45 681.75 344.5 677.97C364.15 665.67 367.28 663.72 383.5 653.68C392.3 648.23 401.75 642.31 404.5 640.53C409.74 637.14 431.93 623.29 446.79 614.14C451.58 611.19 461.35 605.07 468.5 600.54C475.65 596.01 487.46 588.59 494.75 584.06C502.03 579.53 508.21 575.47 508.48 575.03C509.08 574.07 509.9 426.98 510.13 279C510.22 218.78 510.5 167.14 510.75 164.25L511.19 159L514.94 159C517.34 159 519.3 159.68 520.39 160.88C521.97 162.63 522.12 176.51 522.61 364.11C522.9 474.86 523.23 565.56 523.34 565.67C523.45 565.78 527.35 563.65 532.01 560.94C536.67 558.22 541.61 556.01 542.99 556.02C545.31 556.03 549.87 558.25 559.16 563.88C561.27 565.15 563.08 565.68 563.42 565.13C563.75 564.6 564.24 474.24 564.52 364.33C564.79 254.43 565.27 163.26 565.59 161.75C566.09 159.33 566.62 159 569.96 159C572.05 159 574.25 159.6 574.86 160.33C576.7 162.55 576.99 187.26 577.46 385.36C577.89 566.61 577.99 575.27 579.7 576.55C581.34 577.76 707.03 656.47 725.29 667.7C735 673.68 852.13 746.89 861 752.53C864.58 754.8 881.9 765.58 899.5 776.49C948.06 806.58 958.52 813.04 970.62 820.39L981.74 827.15L995.12 818.94C1002.48 814.42 1013.67 807.48 1020 803.52C1026.33 799.56 1047.03 786.64 1066 774.81C1084.97 762.98 1132.22 733.5 1171 709.29C1209.78 685.09 1257.25 655.5 1276.5 643.55C1295.75 631.59 1313.08 620.79 1315 619.54C1316.92 618.29 1331.78 609.05 1348 599.01C1364.22 588.97 1379.3 579.6 1381.5 578.19C1399.06 566.96 1418.5 556 1420.87 556C1422.55 556 1427.14 558.29 1432.57 561.82C1437.48 565.03 1451.85 574.08 1464.5 581.95C1477.15 589.81 1489.75 597.7 1492.5 599.48C1498.02 603.05 1583.38 656.33 1611 673.45C1620.62 679.42 1634.35 687.99 1641.5 692.5C1648.65 697.01 1664.17 706.68 1676 713.99C1687.83 721.3 1699.75 728.73 1702.5 730.5C1705.25 732.27 1713.58 737.44 1721 742C1728.42 746.56 1738.33 752.7 1743 755.65C1747.67 758.6 1756.78 764.28 1763.23 768.26C1769.68 772.24 1789.93 784.8 1808.23 796.16C1826.53 807.52 1845.28 819.11 1849.9 821.9L1858.3 826.98L1861.9 824.81C1863.88 823.62 1867.75 821.23 1870.5 819.5C1873.25 817.76 1882.7 811.92 1891.5 806.51C1900.3 801.1 1921 788.27 1937.5 778C1954 767.73 1990.9 744.77 2019.5 726.98C2048.1 709.19 2074.43 692.75 2078 690.46C2084.13 686.51 2100.72 676.18 2173 631.28C2203.4 612.4 2232.27 594.75 2241.21 589.58C2246.91 586.28 2250.92 586.43 2252.69 589.99C2255.05 594.75 2253.97 595.57 2206.5 625.3C2191.1 634.94 2169.95 648.21 2159.5 654.79C2149.05 661.37 2108.55 686.66 2069.5 711C2030.45 735.34 1994.85 757.56 1990.38 760.38C1985.91 763.2 1980.29 766.68 1977.88 768.13C1975.47 769.58 1964.5 776.35 1953.5 783.17C1942.5 789.99 1916.44 806.1 1895.58 818.97L1857.67 842.37L1853.08 839.86C1850.56 838.48 1842.65 833.62 1835.5 829.05C1828.35 824.48 1814.17 815.56 1804 809.22C1793.83 802.88 1782.58 795.81 1779 793.51C1775.42 791.21 1763.95 784.04 1753.5 777.59C1735.29 766.34 1729.6 762.79 1700.5 744.5C1687.77 736.5 1622.67 695.97 1586 673.22C1575.83 666.9 1565.25 660.3 1562.5 658.55C1559.75 656.79 1551.42 651.6 1544 647.01C1536.58 642.42 1527.35 636.68 1523.5 634.25C1519.65 631.82 1504.8 622.6 1490.5 613.76C1476.2 604.93 1458.2 593.77 1450.5 588.97C1427.3 574.52 1421.22 571 1419.45 571C1418.52 571 1410.28 575.66 1401.13 581.36C1391.98 587.05 1377.53 595.98 1369 601.2C1352.32 611.4 1274.88 659.56 1256 671.46C1249.67 675.44 1235.95 684.01 1225.5 690.49C1215.05 696.97 1204.25 703.72 1201.5 705.48C1198.75 707.25 1191.55 711.75 1185.5 715.49C1179.45 719.22 1172.25 723.72 1169.5 725.48C1166.75 727.25 1150.55 737.36 1133.5 747.96C1116.45 758.56 1099.8 768.93 1096.5 771.01C1093.2 773.08 1083.75 778.95 1075.5 784.06C1067.25 789.16 1044.53 803.23 1025 815.32C1005.48 827.41 987.51 838.44 985.08 839.83L980.66 842.36L977.08 840.35C975.11 839.24 956.85 827.85 936.5 815.03C916.15 802.22 890.05 785.86 878.5 778.68C866.95 771.5 851.33 761.77 843.78 757.06C836.24 752.35 808.11 734.83 781.28 718.12C754.45 701.41 729.12 685.6 725 682.98C711.01 674.09 594.27 601.55 586 596.6C583.52 595.13 576.1 590.55 569.5 586.44C550.49 574.61 544.25 571 542.78 571C542.03 571 534.91 575.02 526.96 579.92C519.01 584.83 508.23 591.44 503 594.6C491 601.87 432.03 638.51 400.5 658.3C371.31 676.61 364.08 681.11 348 691C341.12 695.23 312.1 713.31 283.5 731.19C226.04 767.1 158.59 809.02 138.5 821.31C131.35 825.68 120.93 832.12 115.34 835.63C109.75 839.13 104.79 842 104.31 842C103.84 842 102.44 841.3 101.22 840.44ZM63.5 827.79C74.87 821.72 77.51 804.73 68.44 795.94C64.21 791.84 60.16 791.1 41.75 791.04L27 791L27 810.62L27 830.23L43.75 829.81C56.58 829.49 61.2 829.02 63.5 827.79ZM2251.33 559.12C2235.52 553.27 2222.58 536.72 2218.41 517C2215.91 505.22 2216.89 482.04 2220.32 471.5C2228.31 446.98 2243.77 434.97 2267.3 435.01C2286.21 435.04 2300.85 444.75 2310 463.31C2315.84 475.16 2317.28 483.3 2316.73 501.5C2316.33 514.99 2315.99 517.32 2313.31 524.67C2307.43 540.87 2299.1 550.87 2286.25 557.2C2280 560.28 2278.77 560.52 2268.02 560.77C2258.67 560.98 2255.52 560.67 2251.33 559.12ZM2334.99 554.75C2334.99 551.86 2334.89 534.65 2334.77 516.5C2334.64 498.35 2334.65 473.04 2334.77 460.25L2335 437L2342.5 437L2350 437L2350 461.5L2350 486L2355.75 486.12C2391.37 486.89 2399.54 486.73 2401.25 485.23C2402.82 483.85 2403 481.33 2403 460.35L2403 437L2410.5 437L2418 437L2418 497.3C2418 542.87 2417.71 557.89 2416.8 558.8C2416.12 559.48 2412.87 560 2409.3 560L2403 560L2402.92 554.25C2402.88 551.09 2402.76 538.38 2402.67 526L2402.5 503.5L2376.25 503.23L2350 502.97L2350 530.28C2350 550.2 2349.67 557.93 2348.8 558.8C2348.12 559.48 2344.87 560 2341.3 560L2335 560L2334.99 554.75ZM2278.52 544.09C2287.45 540.14 2294.8 531.35 2299.15 519.42C2302.09 511.34 2302.36 487.67 2299.61 478.54C2295.75 465.7 2289.11 457.2 2279.5 452.81C2271.89 449.34 2260.44 449.55 2252.8 453.3C2245.62 456.83 2239.21 463.91 2236.17 471.68C2231.75 483.01 2231.21 509.32 2235.18 521C2239 532.26 2248.55 542.43 2258.3 545.61C2263.6 547.34 2272.72 546.66 2278.52 544.09ZM531.02 135.4C513.47 130.68 499.66 113.89 495.39 92.06C493.17 80.72 493.92 56.35 496.76 47.5C502.05 31.05 510.59 20.47 523.6 14.29C536.19 8.31 550.19 8.55 563.77 14.97C587.69 26.28 599.48 60.93 590.95 94.81C583.22 125.52 557.95 142.63 531.02 135.4ZM556.51 118.54C563.77 114.98 570.07 107.74 574.14 98.24C577.43 90.56 577.45 90.37 577.48 74.5C577.5 60.17 577.25 57.77 575.09 51.5C572.1 42.8 569.48 38.57 564.01 33.63C557.58 27.82 551.88 25.66 543 25.66C534.06 25.66 527.51 28.16 521.67 33.8C516.04 39.23 513.33 44.47 510.92 54.53C509.11 62.13 508.85 65.56 509.25 77C509.78 92.3 512.07 100.24 518.47 108.96C527.49 121.25 542.99 125.15 556.51 118.54Z" fill="#1e2749" fill-rule="evenodd"/>
</svg>
