<?xml version="1.0" encoding="UTF-8"?>
<svg xmlns="http://www.w3.org/2000/svg" viewBox="0 0 345 268" width="345" height="268" shape-rendering="geometricPrecision">
<path d="M160.67 241.74C157.23 240.53 152.22 237.98 149.26 235.95C147.95 235.05 147.55 235.17 146.18 236.83C145.51 237.66 144.76 238.33 144.52 238.33C144.27 238.33 142.9 236.38 141.45 233.99C140.01 231.61 138 228.28 136.99 226.61C135.56 224.26 134.88 223.45 133.99 223.06C131.42 221.94 128.21 220.28 127.38 219.65C126.9 219.28 125.17 217.67 123.55 216.07C119.53 212.1 117.6 208.76 116.2 203.28C115.09 198.94 114.86 196.46 115.34 193.59C115.92 190.03 117.13 185.65 117.82 184.52C120.61 180.02 122.21 177.92 124.03 176.33C125.19 175.32 126.6 174.09 127.15 173.59L128.17 172.68L121.75 166.3C118.22 162.8 115.33 159.81 115.33 159.67C115.33 159.3 116.88 158.33 117.49 158.33C117.77 158.33 118.3 158.03 118.67 157.66L119.34 156.99L115.64 149.75C113.6 145.76 111.82 142.35 111.67 142.17C111.52 141.98 108.86 136.81 105.75 130.67C100.11 119.53 98.16 115.8 97.67 115.17C97.41 114.84 94.04 108.39 92.19 104.67C89.46 99.18 89.3 99.01 86.53 99C84.33 99 80.77 98.39 79.33 97.78C77.76 97.11 73.88 95.13 72.75 94.41C69.13 92.13 65.48 88.25 63.67 84.75C63.26 83.97 62.81 83.26 62.66 83.16C62.52 83.07 62.14 82.14 61.83 81.08C61.52 80.03 61.05 78.6 60.8 77.91C60.48 77.04 60.33 75.09 60.33 71.54C60.33 66.81 60.41 66.16 61.35 63C62.35 59.63 62.84 58.72 66.34 53.73C67.72 51.76 67.97 51.2 67.65 50.81C67.43 50.55 67.12 50.33 66.97 50.33C66.81 50.33 65.29 49.67 63.59 48.86C57.4 45.91 55.14 44.9 53.83 44.5C52 43.95 51.88 42.9 53.49 41.35C54.14 40.72 54.67 40.06 54.67 39.89C54.67 39.52 52.33 37.21 49.4 34.68C47.47 33.02 47.31 32.77 47.4 31.69C47.49 30.62 47.61 30.49 48.58 30.4C49.53 30.3 50 30.62 52.65 33.13C54.29 34.69 56.05 36.23 56.54 36.56L57.43 37.14L58.7 35.71C60.49 33.7 61.08 33.88 62.93 37C63.74 38.38 65.12 40.85 65.99 42.5C68.85 47.95 69.61 49.17 70.19 49.28C70.5 49.35 71.6 48.81 72.63 48.08C76.24 45.54 77.49 45.07 83.5 44.03C86.56 43.5 87.67 43.45 90.17 43.72C91.82 43.9 93.69 44.17 94.33 44.33C98.43 45.35 99.34 45.64 100.89 46.43C103.44 47.74 106.69 50.1 108.43 51.91C111.66 55.27 114.76 60.76 115.82 65C116.12 66.19 116.47 67.27 116.61 67.41C116.99 67.79 136.55 68.17 156.5 68.17L174.83 68.17L175 66.17C175.19 63.89 175.62 63.59 177.42 64.5C178.57 65.08 180.92 65.89 184.17 66.81C185.27 67.13 187.27 67.83 188.61 68.38C191.17 69.42 192.26 69.5 192.69 68.67C192.83 68.39 193.27 66.77 193.68 65.06C194.67 60.86 197.68 55.35 200.39 52.78C201.96 51.29 206.53 48.14 208.5 47.19C210.95 46.01 216.11 45 219.67 45L222.72 45L223.1 44.01C223.31 43.45 223.84 42.89 224.32 42.73C224.79 42.56 226.38 41.96 227.86 41.38C229.34 40.8 230.76 40.33 231.02 40.33C231.29 40.33 231.88 40.13 232.33 39.89C233.52 39.28 235.96 38.51 240 37.47C245 36.19 246.19 36.05 252.21 36.02L257.59 36L260.38 37.42C262.82 38.66 263.3 39.05 264.21 40.58C265.48 42.71 265.8 44.85 265.31 47.98C264.73 51.75 263.47 54.97 260.39 60.56C259.85 61.54 260.1 61.91 262.28 63.41L263.77 64.44L262.6 65.47C261.95 66.04 259.64 67.7 257.48 69.17C255.31 70.63 252.45 72.62 251.13 73.58C248.78 75.29 248.72 75.37 248.51 77.08C248.39 78.05 247.84 80.01 247.28 81.46C243.69 90.69 237.1 96.58 226.77 99.79C224.41 100.53 216.28 100.55 214.55 99.83C213.89 99.56 212.79 99.34 212.09 99.34C210.86 99.35 210.8 99.4 208.9 102.59C207.84 104.37 206.83 106.06 206.66 106.33C206.49 106.61 204.99 109.16 203.33 112C201.68 114.84 200.18 117.39 200 117.67C199.83 117.94 198.91 119.59 197.95 121.33C196.99 123.08 195.02 126.45 193.57 128.83C192.11 131.22 190.63 133.69 190.26 134.33C189.89 134.97 189.48 135.65 189.33 135.83C189.19 136.02 188.63 136.92 188.11 137.83C186.99 139.78 187.07 139.65 181.65 148.78C173.18 163.06 173.45 162.37 175.83 163.67C176.67 164.13 177.33 164.73 177.33 165.04C177.33 165.61 175.32 167.45 170 171.72C166.3 174.7 164.33 176.6 164.33 177.21C164.33 177.45 164.78 178.16 165.33 178.78C165.88 179.41 166.33 180.03 166.33 180.17C166.33 180.3 167.01 181.43 167.83 182.67C168.66 183.91 169.33 185.09 169.33 185.28C169.33 185.48 169.54 186.14 169.79 186.74C171.14 189.94 171.39 191.32 171.41 195.9C171.42 198.62 171.6 200.98 171.85 201.67C172.07 202.31 172.51 203.81 172.83 205C173.15 206.19 173.83 208.59 174.36 210.33C175.99 215.75 176.94 223.92 176.61 229.71C176.41 233.36 176.24 234.21 175.4 236.04C174.19 238.7 172.24 240.9 170.5 241.59C168.59 242.35 162.64 242.44 160.67 241.74ZM167.79 238.83C168.31 238.56 168.92 238.33 169.14 238.33C170.19 238.33 172.16 235.37 172.84 232.77C173.41 230.57 173.51 224.1 173 222.33C172.81 221.69 172.5 219.74 172.31 218C172.13 216.26 171.67 213.92 171.31 212.81C170.95 211.7 170.54 210.13 170.4 209.34C170.27 208.54 169.98 207.83 169.77 207.76C169.56 207.69 168.83 208.7 168.14 210.01C166.33 213.44 162.48 217.51 158.65 220.03C154.82 222.55 149.76 224.33 146.42 224.33C143.85 224.33 143.66 224.9 145.92 225.78C146.79 226.12 147.95 226.59 148.5 226.83C149.05 227.08 150.14 227.54 150.93 227.86C151.72 228.18 152.44 228.57 152.54 228.73C152.63 228.88 152.25 229.56 151.69 230.25C150.02 232.27 150.22 232.68 153.92 234.89C157.13 236.81 160.37 238.32 161.33 238.34C161.61 238.35 162.21 238.57 162.67 238.83C163.76 239.46 166.59 239.46 167.79 238.83ZM151.03 220.03C154.66 218.69 157.55 216.83 160.9 213.67C163.79 210.94 165.35 208.5 166.85 204.33C167.59 202.27 167.78 201.1 167.91 197.67C168.07 193.39 168.1 193.6 166.37 187.12C166.21 186.54 165.69 185.55 165.21 184.92C164.73 184.29 164.33 183.66 164.33 183.52C164.33 183 160.92 179 159.4 177.74C157.2 175.91 155.13 174.78 151.93 173.63C141.21 169.8 129.19 173.56 123.01 182.67C120.91 185.76 119.72 188.92 118.85 193.7C118.34 196.5 118.35 196.67 119.14 200.41C120.49 206.76 122.18 210.08 125.9 213.69C128.93 216.62 130.86 218.08 132.67 218.82C133.49 219.15 134.64 219.63 135.22 219.88C135.79 220.13 136.54 220.34 136.88 220.36C137.22 220.37 138.02 220.6 138.67 220.86C139.52 221.2 140.95 221.29 144 221.2C147.68 221.1 148.5 220.96 151.03 220.03ZM140.17 214.35C137.11 213.96 132.54 211.52 130.34 209.09C128.16 206.7 126.33 203.92 126.33 203.01C126.33 202.62 126.09 201.75 125.79 201.07C125.39 200.16 125.25 198.92 125.28 196.43C125.32 192.68 126.09 189.61 127.53 187.49C127.97 186.84 128.33 186.18 128.33 186.04C128.33 185.08 134.7 180.39 136.83 179.77C142.69 178.08 143.59 178.03 147.74 179.14C150.77 179.96 151.68 180.38 154.34 182.21C157.05 184.08 158.13 185.41 160.35 189.67C161.46 191.8 161.48 191.9 161.49 196.17C161.5 200.37 161.47 200.58 160.36 203.17C159.73 204.63 158.9 206.21 158.5 206.67C158.11 207.12 157.54 207.91 157.23 208.41C156.45 209.67 153.64 211.65 150.63 213.06C148.5 214.06 147.62 214.28 145.13 214.43C143.5 214.53 141.27 214.49 140.17 214.35ZM205.46 212.18C205.35 211.91 205.58 211.29 205.97 210.8C206.83 209.7 206.84 209.49 205.98 208.4C205.26 207.49 205.33 206.09 206.11 205.59C206.83 205.13 207.97 205.33 208.32 205.98C208.78 206.83 208.76 209.53 208.29 210.44C207.33 212.31 205.86 213.21 205.46 212.18ZM149.52 209.82C151.94 208.63 152.93 207.92 154.08 206.57C157 203.09 158.33 199.82 158.33 196.07C158.33 194.37 158.1 193.39 157.19 191.29C155.77 188.01 154.46 186.34 152.04 184.69C150.29 183.51 149.08 183.01 145.4 181.96C143.01 181.28 137.99 182.46 135.19 184.36C131.32 186.99 128.97 191.03 128.46 195.92C128.29 197.5 128.42 198.36 129.18 200.65C129.98 203.05 130.45 203.84 132.39 206.04C134.31 208.21 135.12 208.85 137.42 209.98C140.04 211.27 140.31 211.33 143.29 211.33C146.33 211.33 146.51 211.29 149.52 209.82ZM223.38 208.6C221.9 208.04 221.46 208 220.84 208.33C220.42 208.55 219.75 208.63 219.35 208.51C218.63 208.28 218.63 208.23 218.8 201.72C218.89 198.12 218.97 193.63 218.98 191.75L219 188.33L219.93 188.33C221.41 188.33 221.67 188.87 221.67 191.92C221.67 195.01 221.67 195.01 224.07 193.79C225.23 193.2 225.82 193.21 227.66 193.89C230.31 194.87 231.32 196.15 231.95 199.33C232.42 201.72 231.61 204.84 230.04 206.72C228.09 209.04 226.07 209.61 223.38 208.6ZM191.58 208.44C187.11 207.14 187.33 201.2 191.89 200.07C192.77 199.85 194.17 199.58 195 199.46C197.72 199.08 198.77 197.8 197.39 196.55C196.99 196.19 196.19 196 195.08 196C193.59 196 193.23 196.15 192.13 197.18C190.7 198.53 189.56 198.62 189.39 197.4C189.24 196.35 190.76 194.44 192.23 193.83C194.02 193.08 197.15 193.19 198.69 194.05C200.53 195.09 200.81 196.05 200.74 201.23C200.69 205.61 200.7 205.67 201.51 206.2C202.92 207.13 202.38 208.67 200.64 208.67C200.16 208.67 199.38 208.37 198.91 208C197.88 207.19 197.55 207.18 196.47 207.88C195.18 208.73 193.31 208.94 191.58 208.44ZM226.45 206.5C228.1 205.81 228.7 204.74 229.01 201.92C229.51 197.4 227.67 195.1 224.3 196.01C222.77 196.42 222.19 197.41 221.59 200.65C221.29 202.29 221.33 202.71 221.98 204.2C222.49 205.39 223.02 206.05 223.77 206.43C225.11 207.1 225.03 207.09 226.45 206.5ZM141.34 206.33C139.69 205.94 138 204.01 138 202.5C138 201.43 138.08 201.33 139 201.33C139.79 201.33 140.16 201.6 140.8 202.62C142.01 204.54 144.5 204.82 146.25 203.23C147.88 201.75 146.92 200.69 143.12 199.79C141.52 199.41 140.27 198.88 139.5 198.25C138.41 197.35 138.33 197.16 138.33 195.34C138.33 193.54 138.42 193.33 139.51 192.37C140.61 191.41 140.87 191.33 143.19 191.33C145.96 191.33 147.35 191.84 148.57 193.29C149.39 194.27 149.54 195.33 148.93 195.93C148.28 196.59 147.76 196.4 146.37 195C145.22 193.83 144.86 193.67 143.53 193.67C142.28 193.67 141.92 193.81 141.47 194.5C140.96 195.27 140.96 195.4 141.47 196.16C141.76 196.62 142.42 197.07 142.92 197.17C143.42 197.28 144.85 197.67 146.09 198.05C148.83 198.89 149.67 199.79 149.67 201.89C149.67 203.13 149.47 203.57 148.42 204.7C146.73 206.5 144.38 207.04 141.34 206.33ZM195.54 206.13C197.34 205.27 198.71 202.81 198.01 201.69C197.76 201.28 197.33 201.29 194.94 201.8C193.42 202.13 191.98 202.55 191.75 202.74C191.29 203.12 191.19 204.93 191.6 205.57C191.87 206 193.21 206.61 193.95 206.65C194.2 206.66 194.91 206.42 195.54 206.13ZM163.79 170.17C164.25 167.97 164.8 165.27 165.02 164.17C165.62 161.1 166.43 158.33 166.72 158.33C166.87 158.33 167.76 158.81 168.71 159.39L170.43 160.45L171.13 159.59C171.52 159.12 173.18 156.39 174.83 153.52C176.48 150.64 181.71 141.82 186.46 133.9C194.39 120.66 195.72 118.37 197.77 114.5C198.16 113.77 198.65 112.94 198.86 112.67C199.07 112.39 199.64 111.45 200.12 110.57C200.6 109.7 202.42 106.6 204.16 103.69C205.91 100.77 207.33 98.08 207.33 97.7C207.33 97.22 206.86 96.76 205.75 96.17C203.5 94.97 199.9 91.82 198.31 89.67C195.01 85.19 192.67 78.57 192.67 73.72C192.67 71.61 192.56 71.6 187 73.29C185.81 73.65 183.48 74.36 181.83 74.85C180.18 75.35 178.68 75.87 178.5 76C178.32 76.14 177.54 76.36 176.76 76.49C175.18 76.75 175.09 76.62 174.92 73.67L174.83 72.17L172.83 71.95C170.58 71.71 137.59 71.17 124.83 71.17L116.5 71.17L116.29 74C116.01 77.63 115.44 79.58 113.45 83.57C111.72 87.04 108.44 90.88 104.84 93.66C102.94 95.13 96.64 98.08 94.58 98.46C93.66 98.64 93.33 98.86 93.33 99.33C93.33 99.68 93.48 100.05 93.66 100.16C93.84 100.27 94.66 101.74 95.49 103.43C96.32 105.12 97.54 107.47 98.2 108.67C100.3 112.46 102.61 116.91 107.73 127C110.48 132.41 112.84 136.98 112.98 137.16C113.18 137.42 117.68 146.09 121.03 152.67C121.17 152.94 121.61 153.73 122.01 154.43L122.74 155.69L124.21 154.82C126.86 153.27 127.32 153.68 127.96 158.17C128.15 159.45 128.46 161.4 128.65 162.5C128.85 163.6 129.17 165.77 129.36 167.32C129.92 171.78 130.08 171.89 133.87 170.47C136.71 169.4 138.09 169.11 141.7 168.82C147.66 168.33 155.18 170.56 160.43 174.36C161.74 175.31 161.82 175.33 162.37 174.76C162.72 174.41 163.29 172.55 163.79 170.17ZM90.13 142.7C88.21 141.82 87.33 140.47 87.33 138.38C87.33 136.9 87.48 136.55 88.48 135.54C89.29 134.74 90.05 134.34 91.06 134.18C96.22 133.4 97.72 132.67 96.99 131.31C96.79 130.94 96.22 130.48 95.73 130.29C94.6 129.85 91.57 130.11 91.39 130.67C91.12 131.49 89.99 132.33 89.17 132.33C88.49 132.33 88.33 132.17 88.33 131.47C88.33 130.37 89.44 128.8 90.68 128.16C91.29 127.85 92.59 127.67 94.27 127.67C96.46 127.67 97.09 127.79 98.03 128.43C99.78 129.61 99.99 130.33 100 135.29C100 139.56 100.03 139.78 100.85 140.74C101.65 141.7 101.66 141.78 101.13 142.38C100.4 143.18 99.3 143.17 98.24 142.33C97.19 141.5 96.57 141.5 94.86 142.3C92.72 143.31 91.65 143.4 90.13 142.7ZM94.79 140.2C95.97 139.71 97.33 137.86 97.33 136.75C97.33 135.49 96.68 135.36 93.68 136.01C90.93 136.61 90 137.18 90 138.25C90 138.84 90.66 140.09 91.13 140.41C91.73 140.81 93.6 140.7 94.79 140.2ZM204.73 139.66C203.13 138.68 202.47 136.92 202.98 135C203.67 132.39 204.94 131.57 208.95 131.17C210.94 130.97 211.45 130.79 212 130.1C212.8 129.08 212.48 128.28 211.02 127.67C209.52 127.05 207.71 127.51 206.31 128.87C204.57 130.55 203.1 129.73 204.16 127.67C205.73 124.64 211.82 123.87 214.33 126.38C215.52 127.57 215.67 128.49 215.47 133.29C215.31 137.27 215.31 137.28 216.19 138.1C217.46 139.28 217.18 140.14 215.48 140.27C214.46 140.34 213.98 140.2 213.51 139.68C212.74 138.83 212.31 138.83 210.67 139.67C208.92 140.56 206.2 140.56 204.73 139.66ZM209.83 137.71C211.41 136.98 212.16 136.18 212.47 134.88C212.92 133 211.75 132.72 207.74 133.73C205.52 134.29 204.89 136.34 206.54 137.64C207.62 138.48 208.12 138.49 209.83 137.71ZM226.17 96.43C228.43 95.9 233.8 93.17 235.87 91.5C239.89 88.24 242.62 84.34 244.17 79.64C244.98 77.19 245.1 76.28 245.13 72.5C245.17 67.93 244.92 66.62 243.43 63.33C241.61 59.35 238.41 55.37 235 52.84C232.96 51.33 228.91 49.33 227.88 49.33C227.42 49.33 226.62 49.17 226.11 48.98C222.62 47.65 213.46 48.27 210.29 50.05C207.94 51.38 203.07 54.69 202.48 55.38C199.7 58.56 197.56 62.61 196.84 66.08C195.89 70.6 195.85 73.46 196.66 77.67C197.53 82.1 198.8 84.92 201.29 87.91C204.47 91.73 210.64 95.66 214.83 96.53C217.05 96.99 224.04 96.93 226.17 96.43ZM90.67 95.69C93.95 95.34 95.64 94.81 99.55 92.92C101.87 91.79 102.94 90.99 105.54 88.41C108.35 85.61 108.88 84.87 110.39 81.76C112.88 76.59 113.8 71.77 112.55 70.39C111.93 69.7 111.82 68.48 112.35 68.16C112.86 67.84 112.39 65.14 111.46 63.07C111.02 62.11 110.67 61.19 110.67 61.04C110.67 60.59 107.94 56.6 106.36 54.73C105 53.12 101.75 50.64 99.21 49.27C97.4 48.3 94.95 47.62 92.31 47.35C90.9 47.21 89.6 47 89.42 46.88C88.92 46.58 81.37 47.54 79.83 48.11C77.43 49 74.87 50.48 71.77 52.76C70.72 53.54 67.29 57.93 66.25 59.83C65.76 60.73 64.74 63.77 64.19 66C63.71 67.93 63.42 72.27 63.69 73.67C64.87 79.9 66 82.82 68.28 85.44C69.04 86.32 69.67 87.17 69.67 87.32C69.67 87.74 74.31 91.58 75.91 92.48C77.54 93.41 81.98 95.16 83.83 95.6C85.62 96.02 87.28 96.05 90.67 95.69ZM224.49 86.99C224.38 86.8 224.28 85.29 224.27 83.63C224.26 80.18 224.06 79.94 222.14 80.97C221.45 81.34 220.53 81.58 220.11 81.49C219.68 81.4 218.97 81.26 218.53 81.17C217.35 80.92 215.74 79.45 214.94 77.89C214.48 76.98 214.2 75.63 214.08 73.83C213.88 70.54 214.58 68.61 216.5 67.14C218.14 65.89 221.23 65.63 222.98 66.59C223.99 67.15 224.23 67.17 225.05 66.76C225.74 66.41 226.14 66.39 226.65 66.66C227.31 67.01 227.33 67.31 227.33 76.44C227.33 84.42 227.25 85.96 226.81 86.59C226.28 87.36 224.87 87.6 224.49 86.99ZM81.73 85.6C81.44 85.31 81.33 82.55 81.33 75.27L81.33 65.33L82.6 65.33C83.3 65.33 84.03 65.49 84.22 65.69C84.47 65.93 84.99 65.82 85.97 65.31C88.59 63.94 92.17 65.05 93.67 67.69C94.39 68.97 94.49 69.55 94.47 72.08C94.44 74.81 94.36 75.12 93.25 76.91C92.6 77.97 91.64 79.05 91.12 79.32C90.1 79.83 86.76 79.94 85.25 79.52L84.33 79.26L84.33 81.96C84.33 84.22 84.22 84.78 83.67 85.33C82.91 86.09 82.31 86.18 81.73 85.6ZM222.6 78.24C223.87 77.06 224.33 75.84 224.33 73.69C224.33 69.6 222.36 67.52 219.27 68.35C217.84 68.73 217.62 69.07 217 71.75C216.38 74.45 216.99 76.96 218.61 78.38C219.54 79.21 219.96 79.36 220.78 79.19C221.34 79.08 222.16 78.65 222.6 78.24ZM89.15 77.53C90.58 76.93 91.15 76.01 91.64 73.5C91.98 71.77 91.95 71.26 91.43 69.7C90.94 68.22 90.61 67.78 89.61 67.26C88.57 66.72 88.18 66.68 87.02 66.99C85.18 67.49 84.64 68.44 84.43 71.6C84.2 74.87 84.67 76.48 86.12 77.36C87.37 78.12 87.68 78.14 89.15 77.53ZM249.86 66.14C251.68 60.94 252.29 59.09 252.48 58.25C252.74 57.08 253.67 57.05 255.14 58.17C255.74 58.62 256.36 59 256.51 59C256.91 59 258.33 57.61 258.33 57.23C258.33 57.05 258.92 55.69 259.64 54.2C261.16 51.05 262.5 46.09 262.22 44.67C261.89 43.04 260.47 41.15 258.88 40.21C257.42 39.36 257.24 39.33 251.68 39.33C247.37 39.33 245.69 39.46 244.78 39.83C244.12 40.11 243.23 40.33 242.8 40.33C241.83 40.33 237.81 41.42 235.33 42.35C234.32 42.73 232.82 43.24 232 43.49C228.62 44.49 228 44.78 228 45.35C228 45.97 228.64 46.33 229.7 46.33C230.71 46.33 233.78 48.04 238.21 51.05C239.74 52.1 241.94 54.36 243.04 56.03C245.71 60.07 246.26 60.98 246.8 62.33C247.13 63.16 247.61 64.33 247.87 64.93C248.12 65.53 248.33 66.56 248.33 67.21C248.33 68.96 249.04 68.47 249.86 66.14ZM146.67 59.77C146.39 59.67 145.66 59.36 145.05 59.07C144.04 58.61 143.85 58.61 143.04 59.09C142.03 59.69 141.38 59.46 141.29 58.49C141.26 58.13 141.25 53.67 141.28 48.58L141.33 39.33L142.63 39.33C144.21 39.33 144.33 39.58 144.33 42.86C144.33 44.22 144.47 45.33 144.63 45.33C144.79 45.33 145.46 45.11 146.12 44.83C147.72 44.16 148.96 44.2 150.73 44.99C152.47 45.76 153.12 46.41 153.82 48.08C154.39 49.45 154.51 53.24 154.02 54.92C153.58 56.47 151.46 58.91 150.22 59.29C148.62 59.79 147.22 59.98 146.67 59.77ZM150.6 55.91C151.32 54.81 151.45 54.24 151.46 52.06C151.48 48.58 151.25 47.91 149.83 47.23C148.11 46.41 146.28 46.49 145.39 47.44C143.95 48.97 143.62 54.36 144.85 56.24C146.22 58.34 149.1 58.17 150.6 55.91ZM281.33 41.67C279.95 40.91 279.23 40.85 278.33 41.41C277.84 41.72 277.51 41.73 277.08 41.46C276.55 41.12 276.5 40.31 276.56 31.68C276.59 26.5 276.69 22.19 276.79 22.1C276.88 22.01 277.45 21.91 278.06 21.89L279.17 21.83L279.26 24.92C279.32 26.61 279.48 28 279.63 28C279.78 28 280.4 27.75 281.03 27.44C283.43 26.24 286.9 27.03 288.51 29.16C289.59 30.56 289.89 32.66 289.52 36.13C289.32 38 289.11 38.49 288.02 39.73C287.17 40.69 286.19 41.36 285.08 41.75C283.02 42.47 282.79 42.46 281.33 41.67ZM284.91 39.34C285.5 38.98 286.21 38.14 286.49 37.47C287.15 35.88 287.14 32.7 286.46 31.01C286.03 29.92 285.69 29.6 284.62 29.28C282.53 28.65 280.98 29.2 280.19 30.83C279.32 32.64 279.12 35.84 279.78 37.42C280.32 38.71 282.01 40 283.17 40C283.53 40 284.32 39.7 284.91 39.34Z" fill="#1e2749" fill-rule="evenodd"/>
</svg>
