<?xml version="1.0" encoding="UTF-8"?>
<svg xmlns="http://www.w3.org/2000/svg" viewBox="0 0 680 157" width="680" height="157" shape-rendering="geometricPrecision">
<path d="M437.08 152.43C436.1 152.24 436.13 151.56 437.17 150.53C437.98 149.72 438 149.59 438 144.71L438 139.72L437.11 139.08C436.52 138.65 436.3 138.25 436.44 137.88C436.6 137.44 437.13 137.33 439.12 137.33C442.06 137.33 442.96 137.91 441.51 138.86C440.7 139.39 440.65 139.58 440.74 141.58L440.83 143.72L444.07 143.72C445.85 143.72 447.46 143.63 447.65 143.51C447.84 143.39 448 142.43 448 141.37C448 139.62 447.92 139.4 447.14 139.05C446.61 138.8 446.33 138.44 446.4 138.08C446.49 137.6 446.95 137.48 449.14 137.4C452.19 137.29 452.81 137.62 451.73 138.77C451.04 139.5 451 139.84 451 145.06C451 150.41 451.02 150.6 451.75 151.12C452.49 151.64 452.49 151.66 451.85 152.16C451.2 152.67 447.93 152.87 446.86 152.46C446.06 152.16 446.23 151.36 447.17 151C447.95 150.7 448 150.54 448 148.17L448 145.67L444.33 145.67L440.67 145.67L440.67 148.17C440.67 150.53 440.72 150.7 441.5 151.06C442.29 151.42 442.31 151.48 441.78 152.05C441.24 152.66 439.13 152.82 437.08 152.43ZM457.25 152.19C454.76 150.89 453.61 149.39 453.02 146.66C452.36 143.68 453.47 140.45 455.73 138.7C457.85 137.06 462.17 136.82 464.91 138.19C472.05 141.74 468.53 152.67 460.26 152.66C459.1 152.66 457.76 152.45 457.25 152.19ZM462.44 150.63C463.93 149.86 465.03 148.49 465.53 146.78C465.98 145.23 465.98 144.87 465.51 143.25C465.21 142.21 464.6 141.09 464.08 140.6C462.85 139.46 460.43 138.89 458.95 139.39C457.44 139.9 457.07 140.23 456.27 141.79C454.95 144.38 456.3 148.83 458.83 150.24C460.32 151.07 461.35 151.18 462.44 150.63ZM53.05 150C52.32 149.69 52.28 149.54 52.48 147.75C52.6 146.7 52.71 143.9 52.74 141.53C52.78 137.43 52.75 137.21 52.02 136.62C51.58 136.26 51.34 135.79 51.45 135.5C51.61 135.1 52.38 135 55.52 135C59.98 135 61.54 135.48 61.86 136.96C61.97 137.44 62.12 138.04 62.2 138.3C62.29 138.56 61.94 139.36 61.44 140.09L60.53 141.41L61.41 142.05C62.63 142.94 63.16 144.67 62.67 146.15C62.2 147.58 60.42 149.18 58.76 149.67C56.91 150.21 53.95 150.38 53.05 150ZM63.52 150.08C63.08 149.63 63.39 148.7 64.17 148.2C64.94 147.69 65 147.45 65 145.09C65 142.71 64.94 142.47 64.11 141.82C63.57 141.38 63.3 140.91 63.41 140.6C63.66 139.97 66.59 139.52 67.19 140.02C67.5 140.28 67.82 140.28 68.29 140.02C69.26 139.51 70.52 139.59 71.03 140.2C71.73 141.05 70.76 142.5 69.48 142.5C67.87 142.5 67.67 142.83 67.67 145.41C67.67 147.34 67.79 147.93 68.34 148.51C68.97 149.17 68.98 149.27 68.48 149.68C67.94 150.13 63.9 150.45 63.52 150.08ZM57.44 147.99C58.2 147.98 59.34 146.82 59.64 145.75C59.91 144.82 59.84 144.52 59.11 143.67C58.44 142.87 58.01 142.67 56.97 142.67L55.67 142.67L55.67 145.28C55.67 148 55.82 148.47 56.59 148.18C56.85 148.08 57.23 148 57.44 147.99ZM57.94 140.32C58.86 139.76 59.02 139.48 58.94 138.61C58.85 137.73 58.63 137.49 57.54 137.12C56.84 136.87 56.12 136.76 55.96 136.86C55.8 136.96 55.67 137.93 55.67 139.02C55.67 141.29 56.02 141.49 57.94 140.32ZM70 136.17C69.39 135.43 69.85 134.27 71.13 133.33C72.06 132.66 83.12 123.39 87.04 120C87.57 119.54 88 118.92 88 118.63C88 118.33 85.81 113.75 83.13 108.46C80.45 103.16 77.51 97.33 76.6 95.5C74.75 91.77 71.68 85.66 69.47 81.25C68.66 79.65 68 78.04 68 77.68C68 77.31 72.57 67.89 78.17 56.74C83.76 45.59 88.33 36.32 88.32 36.15C88.32 35.97 87.23 34.91 85.91 33.79C79.47 28.32 77.82 26.93 74.07 23.83C71.86 22 69.95 20.24 69.83 19.93C69.61 19.3 70.17 18 70.68 18C70.86 18 72.09 18.94 73.42 20.09C74.75 21.25 77.56 23.63 79.67 25.38C81.77 27.14 85.13 29.95 87.12 31.62C90.74 34.67 90.74 34.67 92.62 34.67C93.65 34.68 102.84 34.68 113.04 34.67C123.64 34.66 131.92 34.78 132.37 34.96C133 35.2 134.69 38.31 140.21 49.38C150.71 70.42 152.67 74.42 152.67 74.84C152.67 75.05 153.01 75.54 153.44 75.94C154.2 76.66 154.33 76.67 166.73 76.67C177.63 76.67 179.31 76.73 179.68 77.18C180.04 77.61 180.01 77.8 179.54 78.27C179.03 78.78 177.73 78.84 166.41 78.91L153.85 78.98L153.27 79.74C152.94 80.16 152.68 80.63 152.67 80.79C152.67 80.94 151.34 83.72 149.72 86.95C148.1 90.19 145.39 95.61 143.69 99C142 102.39 139.93 106.52 139.09 108.17C138.26 109.82 136.56 113.22 135.31 115.72C134.06 118.22 132.84 120.4 132.6 120.55C132.36 120.71 122.56 120.91 110.83 121L89.49 121.17L88.04 122.33C86.68 123.43 82.54 126.93 77.18 131.51C73.53 134.63 70.96 136.67 70.68 136.67C70.53 136.67 70.23 136.44 70 136.17ZM470.08 136.45C469.41 136.17 469.6 134.79 470.42 134.07C470.83 133.71 471.92 132.74 472.83 131.93C474.69 130.29 485.96 120.84 487.2 119.89C487.64 119.55 488 119.09 488 118.86C488 118.63 483.5 109.45 478 98.47C472.5 87.49 468 78.11 468 77.63C468 77.15 472.55 67.68 478.17 56.48C483.76 45.33 488.33 36.12 488.33 36.02C488.32 35.92 487.03 34.78 485.45 33.5C483.88 32.22 481.81 30.49 480.87 29.67C479.93 28.84 477.01 26.38 474.4 24.2C470.27 20.76 469.65 20.11 469.73 19.36C469.9 17.9 471.37 18.33 473.91 20.57C477.05 23.34 480.27 26.06 481.34 26.83C481.84 27.2 484.16 29.11 486.5 31.08L490.75 34.67L492.79 34.68C493.91 34.68 503.17 34.68 513.37 34.67C530.67 34.65 531.95 34.69 532.6 35.24C532.99 35.57 537.7 44.61 543.08 55.33C548.45 66.06 553.12 75.25 553.46 75.75L554.08 76.67L566.47 76.67C576.26 76.67 579 76.76 579.48 77.11C580.05 77.53 580.03 77.59 579.14 78.3C578.2 79.04 578.16 79.04 566.08 78.97C559.01 78.93 553.84 79.03 553.66 79.21C553.49 79.38 548.85 88.51 543.35 99.51C537.31 111.56 533 119.8 532.49 120.25L531.63 121L510.8 121C492.78 121 489.83 121.07 488.98 121.51C488.44 121.79 488 122.15 488 122.31C488 122.47 487.51 122.9 486.92 123.26C486.32 123.62 484.78 124.85 483.5 125.98C480.22 128.87 479.84 129.19 476.67 131.8C475.11 133.08 473.2 134.7 472.42 135.4C471 136.68 470.84 136.75 470.08 136.45ZM131.29 117.81C131.67 117.33 134.54 111.82 137.68 105.56C140.82 99.29 143.53 93.94 143.7 93.67C143.86 93.39 144.76 91.59 145.68 89.67C146.61 87.74 147.51 85.94 147.67 85.67C147.83 85.39 148.8 83.48 149.82 81.42L151.66 77.67L147.22 68.75C144.77 63.85 142.52 59.38 142.23 58.83C141.74 57.95 135.55 45.56 133.43 41.22C132.99 40.33 132.26 39.01 131.81 38.3L130.99 37L111.04 37C94.05 37 91.02 37.07 90.68 37.48C90.37 37.86 79.91 58.51 71.96 74.43C71.25 75.85 70.67 77.3 70.67 77.64C70.67 78.4 89.47 116.08 90.6 117.58L91.41 118.67L111.02 118.67L130.62 118.67L131.29 117.81ZM531.06 117.75C531.87 116.88 533.15 114.45 539.7 101.33C541.21 98.31 544.44 91.84 546.89 86.96C549.33 82.08 551.33 77.89 551.33 77.65C551.33 77.2 532.79 39.99 531.61 38.08L530.95 37L511.06 37.01C500.12 37.01 490.99 37.12 490.77 37.26C490.55 37.4 486.62 45.01 482.02 54.17C477.43 63.34 473.46 71.21 473.19 71.67C472.23 73.3 470.67 77.06 470.67 77.74C470.67 78.62 489.8 116.9 490.75 117.92L491.45 118.67L510.83 118.67L530.21 118.67L531.06 117.75ZM107.32 99.69C98.65 98.09 91.78 91.66 89.66 83.17C88.07 76.76 89.46 69.45 93.25 64.36C94.77 62.32 98.14 59.45 100.35 58.33C105.46 55.73 111.69 55.11 117.17 56.64C124.49 58.7 130.58 64.93 132.5 72.32C133.26 75.27 133.16 80.73 132.3 83.55C129.4 92.93 121.28 99.4 111.86 99.83C110.19 99.9 108.15 99.84 107.32 99.69ZM505.67 99.33C501.01 98.06 496.44 95.14 493.6 91.62C487.8 84.43 487.41 73.17 492.68 65.06C495.18 61.21 499.74 58.03 504.82 56.58C508.16 55.64 514 55.64 517.06 56.6C521.71 58.06 525.53 60.62 528.33 64.19C530.4 66.82 531.48 68.97 532.37 72.21C533.28 75.54 533.14 81.44 532.08 84.33C530.26 89.29 526.38 94.13 522.14 96.73C517.36 99.66 510.73 100.7 505.67 99.33ZM116.4 96.63C119.53 95.57 120.68 95.01 122.33 93.72C127.32 89.85 129.85 85.53 130.7 79.44C131.42 74.22 129.32 68.48 125.08 64.1C121.83 60.74 117.19 58.61 112.17 58.15C106.38 57.63 99.09 60.77 95.73 65.23C91.19 71.24 90.12 78.41 92.77 84.97C93.47 86.7 96.51 91.7 97 91.92C97.11 91.97 98.02 92.63 99.02 93.39C104.16 97.29 110.81 98.53 116.4 96.63ZM515.49 96.83C520.41 95.4 523.22 93.61 526.1 90.07C532.27 82.48 532.22 72.99 525.96 65.11C522.89 61.25 517.82 58.71 512.13 58.16C507.79 57.75 501.85 59.62 498.17 62.56C496.3 64.04 493.56 67.9 492.62 70.37C488.29 81.77 494.87 94.27 506.67 97.02C510.17 97.84 512.15 97.8 515.49 96.83ZM269.5 92.76C268.41 92.49 267.67 91.63 267.67 90.62C267.67 89.48 268.45 89.35 269.48 90.31C269.86 90.66 270.56 91.05 271.04 91.17C271.74 91.34 272.06 91.2 272.62 90.48C273.83 88.95 273.4 87.33 271.79 87.33C270.62 87.33 270 86.98 270 86.3C270 85.92 270.31 85.6 270.82 85.47C271.26 85.36 271.86 84.92 272.15 84.49C273.18 82.91 271.65 81.77 270.12 82.98C269.02 83.84 268.44 83.85 268.17 83.01C267.68 81.46 269.94 79.81 271.99 80.21C274.02 80.62 275.9 83.4 274.67 84.17C274.07 84.53 274.31 85.71 275.2 86.76C276.2 87.96 276.13 89.07 274.92 90.7C273.63 92.46 271.53 93.26 269.5 92.76ZM669.33 92.78C668.31 92.37 667.67 91.54 667.67 90.62C667.67 89.48 668.44 89.35 669.48 90.3C670.74 91.45 671.5 91.46 672.46 90.32C673.46 89.13 673.52 88.72 672.86 87.81C672.53 87.37 671.99 87.17 671.11 87.17C669.33 87.17 669.32 86.08 671.08 85.25C671.99 84.82 672.33 84.45 672.33 83.9C672.33 82.29 671 81.88 669.52 83.04C668.69 83.69 668.57 83.71 668.09 83.23C667.61 82.75 667.64 82.6 668.43 81.56C670.01 79.49 673.34 79.75 674.52 82.04C675.05 83.07 675.05 83.19 674.5 84.22L673.91 85.31L674.97 86.52C675.87 87.54 676 87.9 675.81 88.78C675.49 90.28 674.53 91.5 673.16 92.15C671.81 92.79 670.08 93.07 669.33 92.78ZM349.56 86.11C349.13 85.69 349.34 84.72 350.31 82.56C351.28 80.4 352.02 79.77 353.12 80.19C353.98 80.53 353.77 81.7 352.48 83.67C350.97 85.98 350.13 86.69 349.56 86.11ZM6.58 85.31C5.78 84.84 5.85 84.51 6.99 83.43C7.61 82.84 8.42 81.33 9.19 79.33C9.85 77.59 10.52 76.02 10.66 75.83C10.8 75.65 11.18 74.67 11.5 73.67C12.28 71.24 12.55 70.95 13.93 71.07C15.05 71.16 15.13 71.26 16.42 74.33C17.15 76.07 18.19 78.42 18.71 79.55C19.24 80.67 19.67 81.77 19.67 81.98C19.67 82.2 20.15 82.81 20.75 83.36C21.63 84.16 21.76 84.45 21.46 84.92C21.16 85.39 20.56 85.51 18.21 85.53C14.8 85.57 14.09 85.16 15.33 83.84C16.29 82.82 16.04 82.17 14.5 81.67C13.09 81.2 11.25 81.46 10.63 82.21C10.27 82.65 10.29 82.91 10.79 83.77C11.36 84.76 11.36 84.83 10.79 85.24C10.1 85.75 7.41 85.79 6.58 85.31ZM242.23 85.21C238.51 83.82 236.87 81.47 236.93 77.6C236.99 73.92 238.5 71.86 241.93 70.82C243.86 70.23 247.15 70.2 249.17 70.74C250.37 71.06 250.83 71.06 251.34 70.74C251.7 70.52 253.1 70.33 254.46 70.33C257.27 70.33 257.9 70.84 256.47 71.97C255.72 72.55 255.64 72.83 255.73 74.56L255.83 76.5L259.33 76.5L262.83 76.5L262.94 74.72C263.02 73.16 262.93 72.84 262.16 72.13C261.68 71.68 261.34 71.15 261.41 70.94C261.61 70.35 265.74 70.24 266.52 70.8C267.16 71.27 267.15 71.29 266.39 72.1C265.64 72.9 265.62 73.08 265.73 77.94C265.83 82.62 265.88 83 266.59 83.76C267.78 85.02 266.77 85.48 263.07 85.37C261.82 85.33 261.29 84.51 262.13 83.9C262.87 83.35 263.22 81.8 263.01 80L262.83 78.5L261 78.39C259.99 78.33 258.38 78.38 257.42 78.5L255.67 78.71L255.67 80.92C255.67 82.7 255.8 83.27 256.37 83.87C257.42 84.99 256.91 85.33 254.14 85.33C251.37 85.33 250.67 84.82 251.98 83.75C252.64 83.21 252.69 82.83 252.76 78.21C252.82 74.55 252.72 73.08 252.4 72.62C251.74 71.68 251.02 71.87 250.49 73.14C249.82 74.74 249.42 74.87 248.75 73.71C247.64 71.77 243.05 71.67 241.29 73.54C240.19 74.71 239.59 77.47 240.06 79.14C240.86 81.97 244.08 84.08 246.74 83.51C248.6 83.12 250.43 83.14 250.57 83.57C250.8 84.22 248.01 85.33 245.68 85.51C244.23 85.62 243.07 85.52 242.23 85.21ZM389.02 85.36C388.62 85.1 388.61 84.78 388.97 83.28C389.24 82.16 389.35 79.97 389.28 77.4C389.17 73.52 389.12 73.26 388.36 72.69C387.83 72.29 387.63 71.9 387.78 71.52C387.97 71.01 388.54 70.96 392.96 71.06C398.53 71.18 399.13 71.41 399.53 73.55C399.7 74.45 399.57 74.9 398.85 75.84L397.95 77.02L398.79 78.01C399.85 79.27 400.11 80.12 399.86 81.5C399.58 82.96 398.56 84.2 396.98 85.01C395.97 85.53 395.03 85.67 392.6 85.66C390.89 85.66 389.29 85.52 389.02 85.36ZM642.67 85.35C641.3 84.94 639.2 83.78 638.62 83.12C635.99 80.13 636.02 75.16 638.67 72.62C639.37 71.96 640.66 71.17 641.53 70.87C643.44 70.22 646.88 70.2 649.17 70.81C650.54 71.18 650.92 71.18 651.33 70.82C652.04 70.21 656.48 70.2 656.98 70.81C657.28 71.17 657.16 71.42 656.43 72C655.61 72.64 655.51 72.93 655.57 74.38C655.61 75.28 655.73 76.17 655.84 76.34C655.95 76.52 657.36 76.67 658.97 76.67C661.38 76.67 661.99 76.56 662.45 76.06C663.48 74.92 662.9 72 661.64 72C661.47 72 661.33 71.71 661.33 71.36C661.33 70.83 661.66 70.67 663.13 70.49C666.28 70.1 668.08 70.99 666.33 72.08C665.71 72.47 665.67 72.85 665.67 77.89C665.67 83.24 665.67 83.29 666.5 83.94C667.64 84.84 667.05 85.24 664.37 85.38C661.72 85.53 661.16 85 662.3 83.44C662.89 82.65 663.02 82.09 662.94 80.64L662.83 78.83L661.11 78.54C660.17 78.38 658.55 78.35 657.53 78.48L655.67 78.71L655.67 81.01C655.67 82.92 655.79 83.42 656.37 83.96C657.45 84.97 656.87 85.33 654.18 85.33C651.4 85.33 650.77 84.81 652 83.5C652.62 82.84 652.68 82.34 652.7 77.87C652.71 72.75 652.53 72 651.28 72C650.85 72 650.59 72.31 650.45 72.99C650.22 74.14 649.31 75.09 649.09 74.42C649.01 74.19 648.67 73.67 648.34 73.25C647.79 72.58 647.43 72.5 645.06 72.5C642.07 72.5 641.43 72.84 640.3 75.07C639.09 77.43 639.89 80.56 642.13 82.32C643.28 83.22 643.67 83.33 645.7 83.33C646.95 83.33 648.35 83.16 648.81 82.95C649.89 82.46 650.92 83.12 650.28 83.89C649.1 85.32 645.07 86.09 642.67 85.35ZM190.33 84.37C188.67 83.83 186.71 82.67 186.05 81.82C184.18 79.45 183.89 75.33 185.39 72.58C186.35 70.83 188.87 69.51 191.88 69.2C194.07 68.97 196.87 69.42 197.88 70.16C198.46 70.58 198.47 70.71 198 72.06C197.42 73.74 196.77 73.89 196.01 72.52C195.35 71.33 194.06 70.91 191.86 71.17C189.74 71.43 189.23 71.73 188.37 73.18C187.34 74.92 187.14 76.74 187.8 78.45C188.89 81.32 191.33 82.74 194.42 82.3C197.36 81.88 198.06 81.93 197.94 82.55C197.67 83.95 192.7 85.14 190.33 84.37ZM589.17 83.96C587.02 83.09 586.1 82.22 585.13 80.17C583.83 77.42 584.2 73.51 585.95 71.55C588.1 69.13 595.42 68.23 597.51 70.13C598.22 70.77 598.26 70.94 597.9 72C597.41 73.41 596.59 73.66 596.07 72.53C595.26 70.73 590.68 70.61 588.95 72.33C586.6 74.69 587.09 79.64 589.86 81.35C591.81 82.55 592.93 82.72 595.27 82.13C597.83 81.49 598.58 81.84 597.37 83.13C595.89 84.71 592 85.1 589.17 83.96ZM395.12 82.85C396.67 81.41 395.97 78.67 394.06 78.67C393.16 78.67 393.15 78.7 393.16 80.75C393.17 83.79 393.6 84.25 395.12 82.85ZM26.14 81.9C25.88 81.75 25.67 81.27 25.67 80.82L25.67 80L31.8 80C36.76 80 37.96 80.09 38.11 80.47C38.21 80.73 38 81.2 37.64 81.52C37.09 82.02 36.25 82.11 31.81 82.13C28.96 82.15 26.4 82.05 26.14 81.9ZM405.52 81.82C405.14 81.64 404.79 81.15 404.73 80.74L404.62 80L410.98 80C416.97 80 417.33 80.04 417.33 80.63C417.33 80.97 417.14 81.41 416.91 81.6C416.34 82.07 406.41 82.27 405.52 81.82ZM13.65 78.85C14.13 78.27 13.57 77 12.83 77C12.15 77 11.78 78.66 12.37 79.03C13.01 79.43 13.19 79.41 13.65 78.85ZM205.39 78.65C204.85 78.43 204.65 78.12 204.73 77.59L204.83 76.83L217.87 76.75C229.24 76.67 230.97 76.72 231.34 77.17C231.68 77.59 231.65 77.8 231.16 78.34C230.59 78.98 230.12 79 218.37 78.98C211.66 78.97 205.82 78.82 205.39 78.65ZM605.39 78.65C604.85 78.43 604.65 78.12 604.73 77.59L604.83 76.83L617.87 76.75C629.24 76.67 630.97 76.72 631.34 77.17C631.68 77.59 631.65 77.8 631.16 78.34C630.59 78.98 630.12 79 618.37 78.98C611.66 78.97 605.82 78.82 605.39 78.65ZM26.42 78.31C25.91 78.12 25.67 77.74 25.67 77.18L25.67 76.33L31.68 76.33C36.84 76.33 37.72 76.41 37.89 76.86C38 77.15 37.86 77.62 37.58 77.9C37.17 78.3 36.03 78.43 32.12 78.51C29.39 78.56 26.83 78.47 26.42 78.31ZM405.61 78.32C405.06 78.19 404.83 77.9 404.83 77.32L404.83 76.5L411.04 76.41C416.72 76.33 417.28 76.37 417.48 76.91C417.63 77.3 417.46 77.69 416.95 78.11C416.28 78.65 415.65 78.71 411.29 78.61C408.6 78.55 406.04 78.42 405.61 78.32ZM394.73 75.75C395.54 74.81 395.67 74.06 395.13 73.51C394.18 72.56 393.44 72.88 393.2 74.35C392.88 76.34 393.64 77.02 394.73 75.75ZM187.89 66.78C187.77 66.66 187.67 61.95 187.67 56.32C187.67 47.3 187.73 46.03 188.2 45.63C188.67 45.25 188.83 45.3 189.37 45.96C189.95 46.68 190 47.43 190 56.23C190 62.13 189.87 65.95 189.65 66.36C189.32 66.99 188.33 67.22 187.89 66.78ZM195.56 66.78C195.43 66.66 195.33 61.86 195.33 56.11L195.33 45.67L196.1 45.67C196.52 45.67 197.05 45.85 197.27 46.07C197.79 46.59 197.84 65.39 197.32 66.36C196.98 66.99 196 67.22 195.56 66.78ZM587.89 66.78C587.77 66.66 587.67 61.95 587.67 56.32C587.67 48.05 587.75 46.01 588.12 45.7C588.74 45.19 589.56 45.55 589.8 46.44C589.9 46.84 589.99 51.38 590 56.53C590 65.18 589.95 65.94 589.39 66.45C588.74 67.03 588.25 67.14 587.89 66.78ZM595.15 66.58C595.06 66.35 595.03 61.59 595.08 56L595.17 45.83L596.17 45.83L597.17 45.83L597.25 55.76C597.31 62.23 597.22 65.92 596.99 66.35C596.6 67.08 595.4 67.23 595.15 66.58ZM188.79 41.92C186.02 40.07 185.01 36.73 185.97 32.6C186.54 30.14 188.82 28.23 191.63 27.84C195.77 27.27 198.95 28.58 200.56 31.51C201.99 34.13 201.27 38.07 198.92 40.41C197.08 42.25 195.3 42.98 192.62 42.99C190.67 43 190.21 42.87 188.79 41.92ZM589.3 42.34C585.59 40.38 584.32 35.48 586.43 31.29C587.53 29.13 589.37 28.04 592.39 27.79C593.87 27.67 595.4 27.74 596.27 27.98C598.27 28.52 600.13 30.48 600.86 32.79C601.38 34.44 601.4 34.85 600.99 36.53C600.62 38.07 600.2 38.78 598.69 40.35C597.4 41.69 596.43 42.39 595.5 42.64C593.44 43.19 590.67 43.06 589.3 42.34ZM196.15 40.2C197.79 38.95 198.45 37.29 198.24 34.95C197.92 31.38 196.09 29.67 192.59 29.67C191.15 29.67 190.79 29.81 189.8 30.8C188.71 31.89 188.67 32.03 188.67 34.48C188.67 36.32 188.84 37.37 189.3 38.26C190.85 41.31 193.66 42.1 196.15 40.2ZM596.02 40.32C597.45 39.3 598.42 36.65 598.15 34.49C597.91 32.59 596.88 30.83 595.57 30.1C595.17 29.88 593.97 29.68 592.91 29.68C591.18 29.67 590.87 29.78 589.75 30.8C588.54 31.92 588.52 31.97 588.52 34.47C588.52 36.51 588.67 37.29 589.31 38.45C590.81 41.2 593.67 41.99 596.02 40.32ZM456.5 21.36C452.58 20.4 450.37 17.1 450.78 12.79C451.02 10.15 451.65 8.92 453.4 7.66C456.03 5.75 459.65 5.52 462.85 7.05C465.31 8.22 466.34 9.96 466.37 12.98C466.4 15.57 465.66 17.29 463.67 19.28C462.19 20.76 458.46 21.84 456.5 21.36ZM50.18 20.71C50.07 20.37 50.14 19.68 50.32 19.19C50.51 18.69 50.67 16.09 50.67 13.39L50.67 8.5L49.59 7.61C48.99 7.12 48.62 6.6 48.76 6.46C49.07 6.15 55.43 5.93 56.91 6.18C59.53 6.62 60.78 9.07 59.33 10.91C58.53 11.93 58.5 12.44 59.19 13.02C60.08 13.76 60.95 15.79 60.77 16.72C60.52 18.01 58.73 20 57.19 20.7C56.23 21.14 55.03 21.32 53.11 21.33C50.73 21.33 50.35 21.25 50.18 20.71ZM61.74 20.94C61.18 20.38 61.22 20.08 62 19.09C62.5 18.46 62.67 17.74 62.67 16.26C62.67 14.78 62.5 14.06 62 13.42C60.97 12.12 61.13 11.4 62.5 11.14C63.15 11.02 64.16 11 64.75 11.09C65.35 11.17 66.17 11.12 66.58 10.97C67.72 10.54 69 11.15 69 12.12C69 13.19 68.21 13.78 66.85 13.73C65.56 13.68 65.35 14.13 65.34 16.93C65.33 18.39 65.48 18.85 66.19 19.55C66.66 20.02 66.97 20.58 66.89 20.8C66.68 21.36 62.28 21.48 61.74 20.94ZM434.56 21.11C434.13 20.68 434.34 19.77 435 19.17C435.61 18.61 435.67 18.14 435.67 13.47C435.67 8.44 435.66 8.37 434.83 7.73C433.75 6.88 433.78 6.43 434.92 6.22C436.15 5.99 439.94 6.16 440.24 6.46C440.37 6.59 440.08 7.03 439.6 7.43C438.99 7.95 438.68 8.6 438.56 9.65C438.27 12.06 438.59 12.33 441.7 12.33C445.24 12.33 445.67 12.08 445.67 10.01C445.67 8.67 445.52 8.27 444.83 7.73C444.38 7.37 444 6.92 444 6.73C444 6.24 445.52 6 447.93 6.12C450.5 6.25 451.3 6.82 449.74 7.41L448.67 7.81L448.67 13.6C448.67 19.12 448.7 19.4 449.33 19.57C450.08 19.77 450.2 20.34 449.6 20.93C448.99 21.54 445.18 21.45 444.66 20.82C444.3 20.39 444.35 20.14 444.96 19.31C445.56 18.51 445.68 17.95 445.6 16.41L445.5 14.5L442.08 14.41L438.67 14.31L438.62 15.41C438.52 17.66 438.75 18.85 439.41 19.57C440.52 20.77 439.74 21.33 437.01 21.33C435.78 21.33 434.68 21.23 434.56 21.11ZM461.55 18.29C462.85 17.07 463.4 15.75 463.43 13.7C463.48 11.03 462.48 9.25 460.46 8.35C459.61 7.97 458.49 7.67 457.98 7.67C456.59 7.67 454.81 8.86 454.16 10.24C453.13 12.39 453.99 17.12 455.6 18.17C457.52 19.41 458.03 19.57 459.35 19.33C460.09 19.19 461.08 18.73 461.55 18.29ZM56.32 18.42C57.83 17.02 57.95 15.9 56.73 14.68C55.6 13.55 53.88 13.29 53.54 14.19C53.18 15.13 53.32 18.52 53.73 18.93C54.38 19.58 55.25 19.4 56.32 18.42ZM56.1 11.07C57.24 9.88 57.26 8.89 56.15 8.39C54.21 7.5 53.33 8.01 53.33 10C53.33 12.21 54.56 12.68 56.1 11.07Z" fill="#1e2749" fill-rule="evenodd"/>
</svg>
