<?xml version="1.0" encoding="UTF-8"?>
<svg xmlns="http://www.w3.org/2000/svg" viewBox="0 0 680 194" width="680" height="194" shape-rendering="geometricPrecision">
<path d="M168.5 173.43C167.15 172.36 167.17 172.75 167 151.7C166.91 140.59 166.71 131.31 166.56 131.08C166.35 130.75 154.03 130.67 106.8 130.67C43.03 130.67 46.42 130.75 44.9 129.07C43.99 128.06 44.24 125.76 45.35 124.93C46.18 124.32 47.81 124.3 105.96 124.29C165.31 124.28 165.73 124.27 166.39 123.61C167.03 122.97 167.06 122.55 167 114.55C166.96 109.94 166.95 100.87 166.97 94.4L167 82.64L167.82 81.82C169.17 80.47 170.25 80.72 176.48 83.88C179.61 85.46 182.39 86.95 182.67 87.19C182.94 87.43 184.29 88.17 185.65 88.85C187.01 89.52 188.66 90.41 189.31 90.82C189.97 91.22 191.85 92.28 193.5 93.16C195.15 94.04 199.95 96.64 204.17 98.92C219.91 107.47 224.33 109.84 230.73 113.2C234.35 115.09 239.13 117.7 241.35 119C244.56 120.86 245.5 121.28 245.87 120.97C246.26 120.65 246.33 117.54 246.33 102.37C246.33 91.7 246.47 83.7 246.65 83.04C246.83 82.43 247.24 81.72 247.57 81.47C248.55 80.73 250.51 80.89 251.56 81.8L252.5 82.61L252.59 103.21C252.66 118.05 252.79 123.87 253.06 124.04C253.26 124.16 280 124.27 312.47 124.28C362.73 124.29 371.61 124.23 372.22 123.82C372.62 123.57 373.25 122.56 373.62 121.59C374.99 118.04 377.66 111.65 378.33 110.33C379.05 108.92 380.03 108.33 381.64 108.33C382.76 108.33 384.21 109.39 384.51 110.43C384.64 110.83 385.09 111.99 385.52 113C385.95 114.01 387.74 118.28 389.5 122.5C393.97 133.23 394.25 133.83 394.74 133.83C395.28 133.83 395.6 133.15 399.34 124.17C405.03 110.49 405.41 109.65 406.3 108.95C406.98 108.42 407.45 108.32 408.5 108.48C410.21 108.74 410.98 109.68 412.34 113.14C412.92 114.62 415.02 119.66 416.99 124.33C418.97 129.01 420.69 133.18 420.82 133.6C421.07 134.42 421.62 134.44 422.04 133.65C422.19 133.38 423.01 131.44 423.86 129.33C425.71 124.8 427.19 121.26 427.88 119.73C428.16 119.13 428.88 117.4 429.49 115.9C432.29 109.04 432.8 108.33 434.94 108.33C436.52 108.33 437.56 109.59 439.13 113.37C439.84 115.09 440.62 116.95 440.86 117.5C441.1 118.05 442.29 120.9 443.51 123.83C444.73 126.77 445.85 129.32 445.99 129.5C446.12 129.68 446.6 130.85 447.03 132.08C447.47 133.32 447.94 134.33 448.07 134.33C448.47 134.33 449.17 133 450.34 130C452.37 124.77 452.4 124.72 453.27 124.5C453.73 124.39 482.42 124.29 517.02 124.29C573.78 124.28 580.04 124.34 580.96 124.81C583.57 126.16 583 129.14 579.89 130.31C579.24 130.56 560.31 130.67 518.17 130.67C467.5 130.67 457.31 130.74 456.93 131.12C456.68 131.37 456.24 132.15 455.94 132.87C455.64 133.58 454.46 136.42 453.32 139.17C451.05 144.65 449.81 146.33 448.05 146.33C446.51 146.33 445.65 145.09 443.37 139.62C442.2 136.8 440.74 133.41 440.12 132.08C439.5 130.74 438.99 129.47 438.98 129.24C438.95 128.52 435.18 120.22 434.83 120.11C434.65 120.05 434.22 120.71 433.88 121.58C431.92 126.59 429.66 132.02 427.67 136.5C427.35 137.23 426.75 138.66 426.34 139.67C424.22 144.93 423.2 146.33 421.5 146.33C419.45 146.33 418.79 145.19 414.15 133.67C413.16 131.19 412.19 128.9 412 128.58C411.81 128.26 411.05 126.46 410.31 124.58C408.9 121.02 408.22 119.96 407.71 120.51C407.55 120.69 406.63 122.86 405.66 125.33C403.51 130.86 402.53 133.23 401.31 135.89C400.8 137.02 399.74 139.47 398.97 141.33C397.09 145.85 395.64 147.03 393.39 145.86C392.47 145.39 391.55 143.83 390.18 140.4C388.57 136.41 384.27 126.05 383.12 123.42C382.26 121.45 381.74 120.67 381.32 120.67C380.73 120.67 380.61 120.93 378.62 126.66C378.27 127.66 377.51 128.98 376.93 129.58L375.87 130.67L314.27 130.67L252.67 130.67L252.67 150.62C252.67 164.36 252.55 170.9 252.3 171.63C251.73 173.26 249.52 174.15 248.02 173.34C247.69 173.17 247.17 172.41 246.87 171.67C246.4 170.48 246.33 168.11 246.33 151.98C246.33 131.85 246.41 132.52 244.38 133.97C243.84 134.35 243.31 134.67 243.2 134.67C243.09 134.67 241.54 135.47 239.75 136.46C237.96 137.45 234.25 139.45 231.5 140.91C223.39 145.22 221.27 146.36 219.23 147.55C218.17 148.16 217.24 148.67 217.16 148.67C217.09 148.67 215.48 149.51 213.6 150.54C208.52 153.31 201.78 156.97 199.5 158.18C196.84 159.59 178.68 169.46 174.67 171.66C171.64 173.33 169.24 174.02 168.5 173.43ZM176.62 163.45C190.54 155.98 196.94 152.53 197.5 152.18C197.87 151.96 199.44 151.09 201 150.26C213.49 143.58 227.54 135.96 232.5 133.15C234.52 132.01 237.54 130.39 239.22 129.55C240.91 128.71 242.39 127.85 242.51 127.64C242.87 127.07 242.17 126.58 237.52 124.19C235.15 122.97 233.05 121.85 232.85 121.7C232.48 121.4 219.41 114.24 214.67 111.74C213.11 110.92 208.46 108.41 204.33 106.17C197.18 102.28 195.19 101.2 190.08 98.46C188.85 97.79 187.68 97.14 187.5 97C186.77 96.45 174.06 90 173.71 90C173.43 90 173.33 94.53 173.33 106.82L173.33 123.63L174.17 125.2C174.62 126.06 175 126.97 175 127.23C175 127.48 174.62 128.43 174.17 129.33L173.33 130.98L173.33 147.99C173.33 157.35 173.43 165 173.54 165C173.65 165 175.04 164.3 176.62 163.45ZM87.33 106.07C85.57 105.91 85.33 105.34 85.33 101.29C85.33 99.32 85.22 97.64 85.08 97.55C84.94 97.46 81.39 97.3 77.19 97.19C72.38 97.07 69.39 96.86 69.11 96.62C68.84 96.39 68.67 95.54 68.67 94.4C68.67 92.76 68.9 92.14 70.72 88.86C71.85 86.83 73.1 84.72 73.5 84.17C73.91 83.62 74.5 82.64 74.82 82C75.14 81.36 75.89 80.08 76.49 79.17C77.09 78.25 78.56 75.77 79.75 73.67C80.94 71.56 82.3 69.42 82.77 68.92C83.57 68.06 83.81 68 86.31 68C90.61 68 90.33 67.1 90.33 80.93C90.33 89.51 90.44 92.64 90.73 92.93C90.95 93.15 91.9 93.33 92.83 93.33C94.74 93.33 95.33 93.73 95.33 95.02C95.33 96.32 94.42 96.95 92.33 97.06L90.5 97.17L90.33 101C90.24 103.11 90.05 105.02 89.9 105.25C89.47 105.91 88.59 106.19 87.33 106.07ZM111.22 105.25C110.76 104.83 109.93 103.19 109.32 101.5C107.81 97.35 105.32 90.27 103.69 85.5C102.94 83.3 102.09 80.82 101.8 80C101.51 79.17 100.83 77.22 100.29 75.67C99.75 74.11 99.17 72.53 99 72.17C98.47 71.02 97.96 68.67 98.17 68.33C98.42 67.93 101.99 67.9 102.62 68.29C102.86 68.45 104.11 71.56 105.38 75.21C109.03 85.65 111.65 93.31 112.39 95.67C113.57 99.45 113.61 99.53 114.25 98.89C114.56 98.59 117.07 91.55 119.84 83.25L124.87 68.17L126.84 68.06C129.88 67.91 129.91 68.11 127.93 73.76C127.02 76.37 125.82 79.85 125.27 81.5C120.94 94.45 117.31 104.1 116.39 105.08C115.67 105.86 115.27 106 113.79 106C112.44 106 111.85 105.83 111.22 105.25ZM541.46 101.84C539.2 101.34 537.63 100.63 536.65 99.65C535.86 98.86 535.71 95.76 536.45 95.47C536.7 95.38 537.89 95.75 539.09 96.3C542.39 97.81 544.88 98.44 546.64 98.22C550.48 97.73 552.53 96.41 553.53 93.79C554.02 92.51 554.05 91.99 553.73 90.27C553.18 87.29 551.82 86.04 548.01 84.98C546.7 84.62 544.61 84.33 543.25 84.33C541.92 84.33 540.64 84.2 540.4 84.05C539.88 83.72 539.54 81.65 539.91 81.11C540.07 80.87 541.46 80.65 543.4 80.55C547.17 80.36 548.9 79.71 550.73 77.79C553.65 74.73 552.88 69.97 549.19 68.3C546.66 67.15 543.82 67.57 539.44 69.74C537.74 70.58 537 70.36 537 69.03C537 67.23 537.67 66.37 539.84 65.33C542.7 63.96 544.98 63.54 548.33 63.76C553.66 64.11 556.32 66.05 557.68 70.57C558.74 74.11 556.41 79.24 552.85 81.24C552.01 81.71 552.4 82.55 553.57 82.81C555.17 83.16 557.76 85.36 558.62 87.09C559.69 89.25 559.72 92.79 558.69 95.17C557.8 97.21 555.35 99.79 553.33 100.82C550.36 102.34 545.62 102.74 541.46 101.84ZM577.39 101.77C576.67 101.49 576.07 99.94 571.34 86.33C569.91 82.21 567.75 76.07 566.55 72.7C563.96 65.42 563.77 64.69 564.38 64.3C565.2 63.78 567.88 63.96 568.62 64.58C569.06 64.95 569.93 67.01 570.98 70.17C571.89 72.92 573.77 78.47 575.16 82.5C576.55 86.53 578.07 90.99 578.52 92.4C579.43 95.21 579.71 95.58 580.35 94.82C580.58 94.54 582.99 87.61 585.72 79.42C588.44 71.24 590.86 64.42 591.08 64.27C591.76 63.85 594.88 63.96 595.27 64.42C595.52 64.73 595.29 65.77 594.45 68.17C593.8 70 591.95 75.32 590.34 80C587.78 87.4 585.71 93.26 583.76 98.67C583.46 99.49 582.8 100.58 582.3 101.08C581.52 101.86 581.12 102 579.61 101.97C578.63 101.96 577.63 101.87 577.39 101.77ZM426.5 100.09C424.76 99.91 424.54 99.69 423.65 97.24C420.21 87.78 419.06 85.56 416.83 84.04C415.89 83.4 415.1 83.22 412.67 83.08L409.67 82.91L409.67 90.79C409.67 98.22 409.63 98.7 409 99.33C408.54 99.79 407.89 100 406.9 100C404.11 100 404.3 101.43 404.41 81.22L404.5 63.27L405.29 62.64C405.98 62.08 406.64 62 410.83 62C421.35 62 425.37 63.81 427.01 69.28C427.74 71.69 427.74 71.76 427.16 73.95C426.49 76.48 425.07 78.46 422.81 80.01C422 80.57 421.33 81.26 421.33 81.55C421.33 81.83 422.06 82.88 422.95 83.88C424.34 85.43 424.95 86.64 427.13 92.1C428.53 95.62 429.68 98.68 429.67 98.9C429.67 99.29 428.35 100.39 428.01 100.28C427.91 100.25 427.24 100.16 426.5 100.09ZM85.08 92.43C85.61 91.95 85.67 91.08 85.67 82.94C85.67 74.89 85.61 73.96 85.11 73.77C84.75 73.63 84.34 73.83 83.92 74.36C83.14 75.36 80.32 80.09 78.77 83C77.32 85.73 74.96 89.75 74.44 90.37C73.74 91.21 73.56 92.58 74.11 92.88C74.39 93.04 76.84 93.12 79.55 93.07C83.51 92.98 84.6 92.86 85.08 92.43ZM32.09 90.34C31.18 89.96 30.79 88.56 31.28 87.48L31.65 86.67L45.83 86.67C59.56 86.67 60.02 86.69 60.67 87.33C61.5 88.17 61.51 88.71 60.7 89.71L60.06 90.5L46.45 90.58C38.43 90.63 32.53 90.53 32.09 90.34ZM502.35 82.02C501.88 81.15 501.91 79.56 502.4 79.07C502.7 78.77 506.37 78.67 516.85 78.67C530.26 78.67 530.92 78.7 531.47 79.3C532.29 80.2 532.04 81.71 531 82.24C530.37 82.55 526.8 82.66 516.43 82.66C503.18 82.67 502.68 82.64 502.35 82.02ZM418.39 78.19C422.44 76.5 423.52 70.64 420.3 67.88C418.68 66.5 417.93 66.33 413.28 66.33L409.65 66.33L409.74 72.4L409.83 78.47L410.67 78.67C412.14 79.03 417.14 78.71 418.39 78.19Z" fill="#1e2749" fill-rule="evenodd"/>
</svg>
