<?xml version="1.0" encoding="UTF-8"?>
<svg xmlns="http://www.w3.org/2000/svg" viewBox="0 0 2430 511" width="2430" height="511" shape-rendering="geometricPrecision">
<path d="M350.23 480.96C347.54 479.88 346.31 477.29 347.78 475.82C348.51 475.09 350.41 475.18 354.03 476.1C359.18 477.43 359.25 477.41 361.61 474.66C365.74 469.87 364.42 465.27 357.97 461.98C353.57 459.74 353 458.45 355.97 457.51C358.48 456.71 362 452.29 362 449.94C362 445.38 355.29 443.45 350.46 446.62C348.26 448.06 348 448.07 348 446.67C348 445.81 349.09 443.85 350.41 442.31C352.46 439.93 353.59 439.5 357.83 439.5C366.56 439.5 370.42 445.61 366.27 452.86C364.58 455.8 364.59 455.94 366.91 458.41C370.46 462.19 370.9 469.45 367.84 473.95C363.94 479.68 355.46 483.06 350.23 480.96ZM835.25 480.35C834.01 480.08 833 479.41 833 478.85C833 478.3 835.92 474.49 839.5 470.39C843.07 466.29 847.16 460.65 848.57 457.86C850.83 453.4 851 452.41 849.94 449.85C847.72 444.49 842.9 443.53 838.18 447.5C834.73 450.41 834 450.57 834 448.45C834 442 841.57 437.66 848.95 439.87C859.81 443.12 859.47 453.83 848.11 466.38C845.3 469.48 843 472.69 843 473.51C843 475.52 850.5 475.51 854.36 473.49C858.25 471.47 859 471.6 859 474.35C859 478.79 855.78 480.37 846.21 480.61C841.42 480.74 836.49 480.62 835.25 480.35ZM233.5 465.61C227.24 462.64 221.76 456.99 218.87 450.5C215.85 443.73 215.14 430.47 217.39 422.73C219.29 416.18 226.96 407.08 233.28 403.86C239.03 400.93 250.32 400.26 257.97 402.41C263.69 404.02 264.17 404.01 266.97 402.36C268.6 401.39 270.25 400.91 270.62 401.29C271.77 402.44 272.35 421.66 271.26 422.34C270.71 422.68 268.74 420.39 266.88 417.26C263.05 410.79 258.76 407.47 252.98 406.5C243.41 404.88 236.09 408.53 231.71 417.07C229.14 422.11 228.89 423.54 228.88 433.33C228.85 451.12 232.6 457.87 244.66 461.68C251.64 463.88 256.9 462.37 265.02 455.83C268.39 453.11 271.91 451.03 272.83 451.22C275.49 451.75 264.47 462.83 258.5 465.63C251.45 468.94 240.5 468.93 233.5 465.61ZM723.99 467.12C716.19 464.57 709.43 458.4 705.8 450.5C703.84 446.24 703.5 443.86 703.5 434.5C703.5 424.51 703.74 423.04 706.16 418.5C714.07 403.64 728.88 397.78 746.2 402.64C751.61 404.15 752.17 404.15 753.85 402.64C756.5 400.23 757.67 400.62 758.38 404.12C759.31 408.78 759.13 421.8 758.13 422.42C757.65 422.72 755.74 420.39 753.88 417.26C748.59 408.33 742.06 405.01 732.57 406.44C726.28 407.38 721.98 410.68 718.71 417.09C716.11 422.16 715.88 423.51 715.89 433.56C715.9 449.38 718.06 454.66 726.5 459.51C735.41 464.63 742.34 463.63 752.02 455.83C760.71 448.83 763.17 449.78 756.01 457.38C748.53 465.32 744.43 467.27 734.5 467.64C730.1 467.81 725.37 467.57 723.99 467.12ZM280.25 466.34C278.18 465.5 278.84 464.26 281.74 463.53C287.08 462.19 287 462.59 286.98 435.13C286.98 421.03 286.64 409.05 286.23 408.5C285.83 407.95 284.19 406.82 282.58 406C276.31 402.78 278.12 402 291.86 402C305.66 402 308.67 402.99 302.59 405.53C298.21 407.36 297.83 408.73 298.21 421.5L298.5 431.5L310.86 431.78C319.12 431.97 323.68 431.68 324.61 430.91C326.14 429.64 326.39 423.99 325.35 414.06C324.74 408.22 324.48 407.72 321.35 406.23C319.51 405.35 318 404.04 318 403.31C318 402.3 320.93 402 331 402C338.15 402 344 402.41 344 402.9C344 403.4 342.47 404.7 340.6 405.81L337.21 407.81L336.47 419.65C335.55 434.23 336.55 457.29 338.26 460.86C338.95 462.32 340.52 463.64 341.76 463.82C345.06 464.29 344.48 465.82 340.75 466.51C335.65 467.44 318.71 466.64 318.31 465.44C318.12 464.86 319.43 463.73 321.23 462.94C324.15 461.66 324.56 460.96 325.08 456.5C325.39 453.75 325.62 448.35 325.58 444.5L325.5 437.5L311.75 437.22L298 436.94L298 448.02C298 458.44 298.14 459.23 300.45 461.55C301.8 462.9 303.6 464 304.45 464C306.47 464 306.45 465.61 304.42 466.39C302.54 467.11 282.05 467.07 280.25 466.34ZM768.38 465.81C767.98 465.15 768.06 464.47 768.57 464.29C769.08 464.11 770.62 463.4 772 462.71L774.5 461.44L774.77 434.78L775.03 408.11L771.52 406.44C769.58 405.52 768 404.15 768 403.39C768 402.28 770.5 402 780.44 402C793.66 402 796.6 403.02 790.62 405.51C786.35 407.3 785.76 409.56 786.2 422.5L786.5 431.5L798.86 431.78C807.12 431.97 811.68 431.68 812.61 430.91C813.63 430.06 814 427.02 814 419.39L814 409.03L810 406.5C807.8 405.11 806 403.53 806 402.99C806 402.39 811.11 402 819 402C832.44 402 834.43 402.69 829.01 405.49C825.39 407.36 825.25 408.01 824.65 425C824.08 441.12 825.26 460.4 826.94 462.43C827.6 463.23 829.35 464.05 830.82 464.25L833.5 464.61L830.6 465.84C826.84 467.43 806.83 467.01 806.28 465.33C806.06 464.69 806.93 463.85 808.19 463.47C813.49 461.85 814 460.52 814 448.35L814 437L800 437L786 437L786.01 447.25C786.03 459.13 787.09 462.02 791.97 463.61C795.23 464.68 795.29 464.77 793.26 465.86C790.32 467.43 769.36 467.39 768.38 465.81ZM866 465.91C865.16 465.32 864.94 464.65 865.5 464.41C866.05 464.17 867.62 463.4 869 462.71L871.5 461.44L871.77 434.71L872.03 407.98L868.52 406.31C866.58 405.38 865 404.04 865 403.31C865 402.28 868.52 402 881.45 402C899.43 402 906.21 402.99 911.19 406.35C919.72 412.1 921.32 421.28 915.14 428.97C913.41 431.12 912 433.26 912 433.73C912 434.19 913.38 435.39 915.08 436.39C927.26 443.58 922.37 460.84 906.83 465.46C900.61 467.3 868.48 467.66 866 465.91ZM930.03 466.04C929.22 465.53 928.77 464.97 929.03 464.8C929.29 464.64 930.4 464.01 931.5 463.4C935.13 461.41 935.97 458.05 935.99 445.44C936 432.81 935.33 430.49 931.5 429.82C925.81 428.83 933.65 422.81 940.89 422.6C943.95 422.52 944.55 422.86 944.83 424.85L945.16 427.19L947.52 424.98C950.68 422.01 958 421.15 960.32 423.46C962.74 425.89 962.39 428.7 959.42 430.65C957.25 432.06 956.3 432.15 953.59 431.17C951.81 430.53 949.88 430 949.3 430C945.39 430 943.71 455.86 947.27 461.29C948.25 462.78 949.82 464.01 950.77 464.03C952.32 464.06 952.29 464.22 950.56 465.53C948.34 467.21 932.5 467.6 930.03 466.04ZM902.6 459.72C912 454.82 911.38 443.49 901.44 438.54C896.46 436.06 885.15 435.15 883.9 437.13C882.84 438.81 882.7 460.36 883.75 461.44C885.02 462.74 899.31 461.44 902.6 459.72ZM898.19 429.97C906.41 427.68 910.13 416.81 904.48 411.56C901.48 408.79 895.05 407 888.06 407L883 407L883 418.42C883 426.61 883.35 429.98 884.25 430.34C886.46 431.23 894.39 431.02 898.19 429.97ZM355.05 412.56C354.39 411.76 353.99 410.13 354.17 408.93C354.53 406.56 357.95 404.29 453.5 342.81C482.65 324.06 507.29 308.03 508.25 307.2C509.88 305.79 510.01 300.9 510.12 233.1C510.19 193.17 510.53 154.2 510.87 146.5L511.5 132.5L514.12 132.2C515.87 131.99 517.04 132.49 517.62 133.7C518.11 134.69 518.62 171.95 518.76 216.5C518.9 261.05 519.22 298.04 519.46 298.7C519.78 299.58 520.75 299.47 523.14 298.28C526.22 296.74 526.59 296.77 530.37 298.85C532.57 300.05 534.7 300.69 535.1 300.27C535.89 299.44 536.91 227.23 536.97 168.75L537 133L539.3 133C540.57 133 542.14 133.54 542.8 134.2C543.71 135.11 544 155.76 544.02 220.95C544.02 268 544.36 306.98 544.77 307.56C545.17 308.14 564.62 320.9 588 335.9C680.38 395.22 697.98 406.77 698.65 408.53C699.29 410.2 697.29 414 695.77 414C693.87 414 683.43 407.51 616.81 364.86C581.79 342.44 550.17 322.28 546.56 320.05C542.95 317.82 537.08 314.2 533.52 312C529.95 309.8 526.57 308 526 308C524.74 308 497.23 325.26 437.5 363.52C359.37 413.57 358.69 414 357.08 414C356.62 414 355.71 413.35 355.05 412.56ZM24.75 342.24C19.61 341.86 18.2 339.71 22.25 338.42C25.42 337.42 36.86 326.13 43.5 317.45L49.11 310.13L46.42 305.82C38.97 293.85 31.57 285.05 27.08 282.8C21.19 279.84 20.37 278.64 23.78 277.93C26.76 277.3 46.6 277.86 48.99 278.64C50.15 279.02 49.93 279.54 48.01 280.99L45.53 282.86L47.74 287.4C50.14 292.35 55.85 300.62 56.63 300.3C57.55 299.91 66.17 288.5 67.58 285.8C68.92 283.25 68.85 283.04 66.32 281.8C62.68 280.03 62.37 278.35 65.57 277.74C69.26 277.04 84.95 278.11 85.56 279.1C85.84 279.55 84.32 280.82 82.17 281.91C78.14 283.97 72.66 289.57 65.14 299.32C61.9 303.51 60.92 305.56 61.35 307.26C61.98 309.78 73.3 327.06 78.7 333.75C80.59 336.08 83.24 338.27 84.61 338.62C85.97 338.96 86.92 339.75 86.71 340.37C85.86 342.97 60 342.99 60 340.39C60 339.63 60.62 339 61.38 339C64.11 339 65.41 336.19 64.06 333.22C61.62 327.87 53.82 317 52.41 317C50.87 317 38.02 333.7 38.01 335.73C38 336.4 39.15 337.71 40.55 338.63C41.95 339.55 42.74 340.62 42.3 341.02C41.25 341.96 30.8 342.69 24.75 342.24ZM94.25 319.34C93.56 319.06 93 317.97 93 316.92C93 315.18 93.86 314.98 102.25 314.82C120.37 314.48 142.51 315.12 143.41 316.01C143.95 316.55 143.8 317.53 143.04 318.46C141.95 319.77 138.31 319.99 118.63 319.92C105.91 319.88 94.94 319.62 94.25 319.34ZM1525.18 308.99C1523.54 308.3 1522.95 307.35 1523.18 305.76C1523.52 303.37 1524.45 303.24 1532.1 304.56C1535.22 305.1 1536 304.81 1537.85 302.46C1539.03 300.96 1540 298.71 1540 297.45C1540 295.07 1535.52 290.62 1532.01 289.5C1529.16 288.6 1529.49 287.38 1533.55 283.82C1536.41 281.31 1537.05 280.1 1536.8 277.62C1536.41 273.61 1532.46 271.95 1528.29 274.04C1526.76 274.81 1525.16 275.6 1524.75 275.8C1522.94 276.69 1524.23 272.14 1526.36 270.13C1533.92 263.03 1547.64 270.6 1542.72 279.16C1540.47 283.09 1540.55 284.47 1543.25 288.12C1547.77 294.24 1545.54 303.01 1538.39 307.2C1534.69 309.37 1528.18 310.25 1525.18 308.99ZM94.25 304.34C93.56 304.06 93 302.97 93 301.92C93 300.08 94.03 300 117.94 300C143.34 300 146.76 300.51 142.46 303.65C141.04 304.69 135.5 304.98 118.06 304.92C105.65 304.88 94.94 304.62 94.25 304.34ZM2105.64 299.5C2102.65 296.51 2104.21 295.48 2111.32 295.77C2117.38 296.02 2118.06 295.83 2119.53 293.59C2120.43 292.22 2121 289.69 2120.82 287.85C2120.56 285.19 2119.72 284.11 2116.5 282.29C2114.3 281.05 2112.06 279.88 2111.52 279.69C2110.99 279.5 2112.49 277.51 2114.85 275.25C2119.77 270.57 2120.1 267.46 2115.92 265.12C2113.64 263.85 2112.96 263.88 2110.02 265.34C2104.11 268.29 2103.14 266.7 2107.92 261.92C2110.32 259.53 2111.69 259 2115.5 259C2119.31 259 2120.68 259.53 2123.08 261.92C2126.54 265.38 2126.63 266.35 2124.01 271.24L2122.02 274.95L2124.51 278.61C2129.11 285.39 2126.95 294.91 2119.99 298.5C2115.03 301.07 2107.72 301.58 2105.64 299.5ZM2268.5 299C2267.68 297.68 2268.37 296.63 2274.9 289.3C2286.78 275.95 2288.24 266.84 2278.87 264.5C2276.8 263.98 2275.48 264.52 2272.62 267.03L2269 270.21L2269 267.53C2269 265.9 2270.15 263.7 2271.92 261.92C2278 255.85 2290.02 259.23 2291.56 267.46C2292.44 272.16 2289.22 278.89 2282.33 286.74C2277.84 291.85 2276.97 293.37 2278.09 294.1C2279.6 295.09 2286.41 294.34 2289.18 292.88C2293.88 290.42 2295.42 292.93 2291.93 297.37C2289.93 299.91 2289.5 300 2279.49 300C2273.65 300 2268.85 299.56 2268.5 299ZM1316.19 293.41C1310.24 290.44 1305.1 284.68 1301.95 277.47C1300.26 273.61 1299.75 270.39 1299.67 263C1299.58 254.71 1299.9 252.78 1302.2 247.8C1305.23 241.26 1311.77 234.28 1317.33 231.65C1323.21 228.86 1334.82 228.33 1342.03 230.51C1347.75 232.24 1348.08 232.24 1349.96 230.54C1353.53 227.3 1354.72 229.11 1355.5 239.01C1356.03 245.72 1355.9 248.49 1355.01 249.34C1354.08 250.23 1353.52 250.06 1352.65 248.64C1345.82 237.57 1342.81 235.18 1334.41 234.24C1321.66 232.8 1313.38 242.02 1312.3 258.86C1311.97 264.07 1312.23 269.88 1312.98 273.5C1314.02 278.56 1314.94 280.21 1318.86 284.02C1323.4 288.43 1329.09 291.02 1334.12 290.98C1337.75 290.94 1344.52 287.53 1349.84 283.04C1352.47 280.82 1355.16 279 1355.81 279C1358.39 279 1356.71 281.74 1350.5 287.69C1343.06 294.8 1339.99 295.99 1328.95 295.99C1322.81 296 1320.41 295.51 1316.19 293.41ZM1144.4 293.84C1143.96 293.13 1144.24 292.42 1145.06 292.15C1145.84 291.89 1147.66 290.5 1149.1 289.06C1152.28 285.87 1153.7 277.3 1152.05 271.18C1150.39 265.03 1131.57 237.27 1127.38 234.8C1121.53 231.35 1123.49 230.5 1137.33 230.5C1150.27 230.5 1152.89 231.33 1147.75 233.79C1146.24 234.52 1145 235.69 1145 236.4C1145 237.46 1149.01 244.23 1157.36 257.25C1157.98 258.21 1159.06 259 1159.76 259C1161.1 259 1168.12 248.7 1171.98 241.07C1174.38 236.32 1174.43 236.46 1169.41 233.44C1165.69 231.19 1168.96 230 1178.81 230.02C1190.98 230.03 1192.7 230.9 1187.29 234.32C1182.48 237.35 1179.53 241.02 1170.07 255.72L1162.84 266.94L1163.36 273.22C1163.65 276.67 1163.91 281.89 1163.94 284.8C1164 289.79 1164.18 290.17 1167.05 291.17C1168.72 291.75 1169.92 292.74 1169.71 293.36C1169.16 295.03 1145.41 295.47 1144.4 293.84ZM1358.38 293.81C1357.98 293.15 1358.06 292.47 1358.57 292.29C1359.08 292.11 1360.62 291.4 1362 290.71L1364.5 289.44L1364.77 262.71L1365.03 235.98L1361.52 234.31C1359.58 233.38 1358 232.04 1358 231.31C1358 230.3 1360.91 230 1370.94 230C1378.24 230 1384.14 230.42 1384.48 230.97C1384.81 231.51 1383.39 232.74 1381.31 233.72C1377.96 235.3 1377.45 236.03 1376.73 240.36C1376.28 243.03 1376.05 248.43 1376.21 252.36L1376.5 259.5L1390 259.5L1403.5 259.5L1403.78 247.85L1404.06 236.19L1400.37 234.35C1398.34 233.33 1396.64 232.05 1396.59 231.5C1396.47 230.18 1417.88 229.64 1421.08 230.87C1423.47 231.8 1423.45 231.83 1419.82 233.39C1416.41 234.85 1416.1 235.35 1415.48 240.28C1415.12 243.21 1414.97 255.03 1415.16 266.55C1415.53 289.22 1416.12 292 1420.54 292C1423.3 292 1423.84 293.46 1421.42 294.39C1420.55 294.73 1414.7 295 1408.42 295C1399.63 295 1397 294.7 1397 293.68C1397 292.95 1398.46 291.72 1400.25 290.93L1403.5 289.5L1403.78 277.25L1404.06 265L1389.9 265L1375.74 265L1376.2 276C1376.6 285.83 1376.9 287.26 1379 289.5C1380.29 290.87 1382.17 292 1383.17 292C1385.42 292 1385.58 293.56 1383.42 294.39C1380.37 295.56 1359.16 295.07 1358.38 293.81ZM1429.5 294.01C1429.12 293.38 1428.96 292.78 1429.15 292.68C1429.34 292.58 1430.85 291.81 1432.5 290.96L1435.5 289.42L1435.77 262.7L1436.03 235.98L1432.52 234.31C1430.58 233.38 1429 231.98 1429 231.19C1429 229.96 1432.01 229.81 1448.75 230.19C1470.54 230.68 1473.05 231.28 1478.71 237.29C1484.79 243.75 1484.82 250.72 1478.79 257.59L1475.69 261.12L1480.59 265.43L1485.5 269.75L1485.5 276.13C1485.5 284.01 1483.41 287.35 1475.82 291.55L1470.5 294.5L1450.35 294.82C1436.05 295.05 1430 294.81 1429.5 294.01ZM1487.46 293.93C1487.1 293.35 1486.96 292.78 1487.15 292.68C1493.38 289.42 1493.97 287.76 1493.99 273.44C1494 260.82 1493.33 258.49 1489.51 257.82C1485.51 257.13 1486.72 254.37 1492.03 252.08C1498.29 249.39 1501.38 249.63 1501.83 252.85L1502.16 255.19L1504.48 253.02C1507.87 249.84 1513.89 249.27 1517.02 251.84C1519.38 253.78 1519.43 254.01 1517.95 256.69C1516.35 259.58 1516.2 259.61 1507.56 258.78C1504.86 258.52 1504.5 258.88 1503.25 263C1502.35 265.96 1502 271.05 1502.22 277.86C1502.54 287.76 1502.68 288.33 1505.34 290.61C1506.87 291.93 1507.84 293.45 1507.5 294C1506.66 295.36 1488.3 295.3 1487.46 293.93ZM1465.73 288.04C1474.01 284.28 1476.13 275.88 1470.33 269.82C1467.15 266.5 1459.68 264 1452.94 264C1448.49 264 1448.22 264.16 1447.62 267.12C1446.79 271.29 1446.82 288.49 1447.67 289.33C1449.15 290.82 1461.56 289.93 1465.73 288.04ZM1998.34 286.98C1988.43 284.97 1980.73 278.18 1976.91 268.08C1974.27 261.1 1974 247.65 1976.37 241.2C1982.33 224.97 1997.55 217.31 2015.45 221.52C2021.55 222.96 2023.61 223.1 2025.09 222.17C2028.79 219.87 2029.69 220.72 2030.36 227.15C2031.26 235.74 2031.16 240.78 2030.08 241.45C2029.58 241.76 2027.44 239.46 2025.33 236.33C2023.22 233.2 2020.34 229.79 2018.92 228.75C2013.01 224.43 2002.21 224.58 1995.91 229.06C1991.41 232.27 1987.9 240.67 1987.3 249.7C1986.25 265.47 1990.03 274.84 1999.31 279.47C2008.19 283.89 2015.56 282.37 2025.36 274.1C2030.49 269.77 2032 269.14 2032 271.35C2032 273.32 2020.62 283.85 2016.79 285.41C2012.31 287.24 2003.39 288 1998.34 286.98ZM2160.34 286.98C2147.74 284.42 2139.48 275.14 2136.96 260.68C2132.66 235.99 2151.95 215.69 2174.76 220.9C2185.22 223.29 2185.98 223.32 2187.98 221.52C2189.02 220.58 2190.31 220.07 2190.84 220.4C2192.23 221.26 2193.5 239.9 2192.25 241.15C2191.58 241.82 2189.96 240.22 2187.37 236.35C2181.79 227.99 2178.37 226 2169.58 226C2160.73 226 2156.79 228.34 2152.47 236.14C2149.64 241.25 2149.5 242.06 2149.5 253.53C2149.5 264.46 2149.73 266 2152.05 270.52C2156.47 279.1 2167.58 283.94 2176.27 281.08C2178.19 280.44 2182.55 277.69 2185.95 274.96C2192.38 269.8 2194 269.07 2194 271.35C2194 273.32 2182.62 283.85 2178.79 285.41C2174.31 287.24 2165.39 288 2160.34 286.98ZM2225.09 286.41C2213.61 283.33 2205.36 273.99 2202.98 261.4C2198.92 239.86 2211.04 222.08 2231.02 220.26C2243.54 219.13 2255.36 225.94 2261.76 238C2265.15 244.38 2265.2 244.67 2264.73 254C2264.17 264.99 2262.11 270.65 2256.4 276.98C2251.68 282.2 2245.97 285.5 2239.2 286.9C2232.67 288.26 2231.83 288.23 2225.09 286.41ZM1821.2 286.21C1814.99 285.99 1812.76 285.55 1812.34 284.43C1811.68 282.72 1812.05 282.13 1833.14 251.36C1841.86 238.63 1849 227.94 1849 227.61C1849 226.61 1830.79 226.93 1826.95 228C1824.15 228.78 1822.95 229.92 1821.22 233.49C1817.42 241.31 1816.36 239.41 1817.65 227.07L1818.3 220.84L1841.07 221.17C1853.59 221.35 1864.14 221.81 1864.52 222.18C1865.46 223.12 1862.94 227.07 1843.65 254.85C1834.38 268.2 1827.1 279.43 1827.48 279.81C1827.86 280.19 1833.64 280.5 1840.33 280.5C1854.99 280.5 1857.92 279.52 1861.51 273.39C1865.65 266.33 1867.69 267.82 1866.05 276.71C1864.44 285.41 1864.42 285.42 1845.72 286C1836.8 286.27 1825.77 286.37 1821.2 286.21ZM2344.5 275.2C2339 268.73 2330.45 258.41 2325.5 252.26C2320.55 246.12 2316.23 241.07 2315.9 241.05C2315.16 240.99 2313.96 259.81 2314.1 269.41C2314.23 279.04 2314.99 281.22 2318.83 283.04C2320.62 283.89 2321.76 284.91 2321.37 285.29C2320.98 285.68 2316.02 286 2310.33 286C2302.71 286 2300 285.67 2300 284.74C2300 284.05 2301.36 282.89 2303.01 282.15C2304.67 281.42 2306.49 279.96 2307.05 278.9C2308.57 276.06 2308.72 234.22 2307.22 230.72C2306.43 228.89 2304.46 227.27 2301.43 225.97C2294.69 223.08 2296.08 221.56 2305.75 221.21L2313.84 220.92L2326.67 236.61C2333.73 245.24 2341.94 255.36 2344.93 259.1C2347.91 262.84 2350.73 265.67 2351.18 265.39C2352.4 264.64 2352.18 232.81 2350.93 229.22C2350.23 227.22 2348.83 225.79 2346.93 225.12C2340.53 222.89 2344.48 221.03 2355.67 221.01C2366.58 220.99 2368.53 222.5 2361.43 225.46L2358 226.9L2357.93 252.2C2357.85 277.99 2357.28 286.1 2355.5 286.65C2354.95 286.82 2350 281.67 2344.5 275.2ZM2375.4 284.67C2373.21 282.78 2372.6 281.27 2372.22 276.68C2371.6 269.18 2373.18 266.93 2382.27 262.39C2393.41 256.83 2395.93 253.47 2393.03 248.05C2390.62 243.56 2383 244.94 2383 249.86C2383 252.94 2379.4 257 2376.66 257C2375.73 257 2374.48 255.95 2373.89 254.67C2372.54 251.69 2374.82 245.82 2378.19 243.61C2381.64 241.35 2390.68 240.63 2395.9 242.21C2403.15 244.39 2404.02 246.42 2405.02 263.59C2405.5 271.79 2405.92 278.7 2405.95 278.95C2405.98 279.2 2406.54 278.86 2407.2 278.2C2408.59 276.81 2412 276.58 2412 277.87C2412 279.4 2403.11 287 2401.33 287C2400.38 287 2398.39 285.83 2396.9 284.4L2394.19 281.81L2389.76 284.4C2384.13 287.7 2379.04 287.8 2375.4 284.67ZM2033.49 284.98C2033.14 284.42 2034.46 283.29 2036.43 282.47L2040 280.97L2040 254.17L2040 227.37L2036.42 225.66C2030.56 222.87 2032.56 221.53 2043.1 221.22C2048.28 221.06 2054.32 221.34 2056.51 221.83L2060.5 222.73L2056.77 224.37C2052.19 226.38 2051.59 228.3 2051.54 241L2051.5 250.5L2064.7 250.78C2076.54 251.03 2077.98 250.87 2078.71 249.28C2079.16 248.3 2079.38 242.96 2079.2 237.41L2078.87 227.31L2075.44 225.67C2068.83 222.52 2071.94 220.97 2084.5 221.13C2088.9 221.19 2093.85 221.53 2095.5 221.89C2098.63 222.57 2098.4 223.01 2093.52 225.52C2090.52 227.07 2089.88 233.15 2090.23 257C2090.55 279.78 2091.09 282.59 2095.25 283.18C2096.49 283.36 2097.39 283.95 2097.25 284.5C2096.86 286.1 2071.99 286.37 2072.02 284.78C2072.03 284.08 2073.5 282.82 2075.27 282L2078.5 280.5L2079.06 269.5C2079.37 263.45 2079.46 258.16 2079.25 257.75C2079.05 257.34 2072.54 257 2064.8 257L2050.71 257L2051.24 267.35C2051.84 279.01 2052.63 281.19 2056.95 282.98C2058.61 283.67 2059.73 284.63 2059.43 285.12C2058.65 286.37 2034.27 286.24 2033.49 284.98ZM2238.35 281.63C2243.41 279.51 2248.61 274.43 2250.51 269.74C2252.76 264.17 2253.56 250.98 2252.07 243.84C2250.67 237.09 2245.93 229.53 2241.73 227.36C2236.93 224.88 2225.87 225.84 2222.45 229.03C2217.91 233.27 2215.8 238.69 2215.24 247.56C2214.43 260.57 2215.63 268.22 2219.33 273.73C2224.98 282.14 2231.07 284.67 2238.35 281.63ZM2390.77 278C2394.52 275.71 2396 272.57 2396 266.9C2396 261.74 2394.44 261.24 2388.23 264.39C2382.89 267.09 2381.99 268.38 2382.02 273.33C2382.03 276.9 2382.81 278.44 2385 279.27C2387.27 280.13 2387.27 280.13 2390.77 278ZM1199.25 272.33C1197.9 272.05 1197 271.12 1197 270.01C1197 267.42 1205.46 266.64 1228.06 267.18C1246.27 267.61 1249.7 268.34 1246.39 271.09C1245.06 272.2 1240.03 272.53 1223.1 272.65C1211.22 272.73 1200.49 272.59 1199.25 272.33ZM1872.25 263.34C1871.56 263.06 1871 261.97 1871 260.92C1871 259.08 1872.03 259 1895.94 259C1910.27 259 1921.13 259.4 1921.46 259.93C1921.77 260.44 1921.03 261.57 1919.79 262.43C1917.92 263.75 1914.01 263.99 1895.53 263.92C1883.41 263.88 1872.94 263.62 1872.25 263.34ZM1465.11 256.91C1467.38 255.77 1469.39 253.7 1470.51 251.34C1472.11 247.97 1472.15 247.16 1470.9 243.54C1469.09 238.33 1464.91 236.22 1454.64 235.35L1446.93 234.7L1447.22 246.59L1447.5 258.48L1450.5 259.11C1454.68 259.98 1460.84 259.05 1465.11 256.91ZM1199.25 257.33C1197.9 257.05 1197 256.12 1197 255.02C1197 253.43 1198.18 253.08 1205.7 252.45C1216.71 251.54 1245.82 252.42 1247.11 253.71C1247.74 254.34 1247.49 255.18 1246.39 256.09C1245.06 257.2 1240.03 257.53 1223.1 257.65C1211.22 257.73 1200.49 257.59 1199.25 257.33ZM1871.54 247.65C1867.26 244.52 1870.67 244 1895.31 244.02C1908.61 244.02 1920.11 244.42 1920.85 244.89C1921.91 245.56 1921.7 246.1 1919.88 247.37C1917.9 248.76 1914.25 249 1895.47 249C1878.52 249 1872.95 248.69 1871.54 247.65ZM522.27 123.98C512.33 121.94 504.65 115.76 500.15 106.15C497.82 101.18 497.51 99.3 497.56 90.5C497.63 78.55 499.77 72.6 506.31 66.2C512.72 59.92 518.82 57.59 529 57.54C538.48 57.5 541.18 58.51 549.05 65.07C555.74 70.63 558.92 77.14 559.66 86.78C560.45 97 558.89 103.43 553.93 110.35C546.45 120.8 533.66 126.31 522.27 123.98ZM534.64 117.94C539.08 116.27 543.86 110.94 545.61 105.7C548.02 98.5 548.02 83.3 545.61 76.21C539.4 57.96 516.64 57.68 511.37 75.79C509.09 83.64 509.83 101.71 512.69 108C517.29 118.11 524.96 121.58 534.64 117.94Z" fill="#1e2749" fill-rule="evenodd"/>
</svg>
