<?xml version="1.0" encoding="UTF-8"?>
<svg xmlns="http://www.w3.org/2000/svg" viewBox="0 0 860 256.827" width="860" height="256.827" shape-rendering="geometricPrecision">
<path d="M378.79 248.54C377.61 247.86 376.11 247 375.47 246.62C374.82 246.24 372.8 245.1 370.97 244.09C369.15 243.08 365.63 241.07 363.15 239.62C360.68 238.17 358.28 236.87 357.81 236.73C356.05 236.19 356.04 236.11 356.07 220.58C356.09 212.46 356.11 205.68 356.11 205.52C356.11 205.35 356.9 204.83 357.85 204.34C358.8 203.86 361.57 202.33 364.01 200.94C366.44 199.55 368.96 198.13 369.6 197.79C370.25 197.44 371.48 196.75 372.34 196.24C373.2 195.74 374.61 194.93 375.47 194.46C376.33 193.98 377.82 193.14 378.79 192.58C381.12 191.23 382.13 191.28 384.67 192.9C385.85 193.65 386.91 194.27 387.04 194.27C387.18 194.28 390.76 196.31 395.01 198.78C407.06 205.8 406.34 205.45 407.52 204.68C408.43 204.08 409.73 203.35 413.39 201.35C414.99 200.47 420.03 197.52 422.18 196.21C423.8 195.21 425.75 194.12 429.2 192.27C429.95 191.87 430.85 191.55 431.22 191.55C431.92 191.55 435.11 193.19 440.55 196.36C451.94 202.99 456.02 205.22 456.47 205.05C456.74 204.95 457.94 204.24 459.13 203.48C460.32 202.72 461.36 202.1 461.44 202.1C461.52 202.1 463.73 200.77 466.34 199.14C470.76 196.4 472.18 195.84 472.31 196.82C472.37 197.27 468.12 200.22 465.77 201.37C464.91 201.79 462.47 203.18 460.36 204.46C458.24 205.74 456.32 206.79 456.1 206.79C455.87 206.79 454.83 206.26 453.79 205.62C452.74 204.97 451.78 204.45 451.65 204.45C451.53 204.45 449.93 203.57 448.1 202.49C446.28 201.42 444.69 200.54 444.58 200.54C444.48 200.54 443.84 200.14 443.16 199.66C441.73 198.63 440.87 198.11 438.99 197.17C438.24 196.79 436.55 195.81 435.24 194.99C433.93 194.17 432.34 193.41 431.72 193.29C430.56 193.06 429.9 193.4 421.4 198.51C419.79 199.48 417.64 200.73 416.64 201.28C413.86 202.82 408.78 205.87 408.03 206.46C407.42 206.94 407.35 208.28 407.29 220.86L407.22 234.74L405.98 235.91C405.3 236.56 403.78 237.58 402.61 238.18C401.44 238.79 399.34 239.96 397.95 240.8C396.55 241.63 394.7 242.68 393.84 243.12C392.98 243.56 391.75 244.24 391.1 244.64C390.46 245.04 389.14 245.8 388.17 246.34C387.21 246.88 385.41 247.87 384.19 248.55C382.96 249.23 381.73 249.78 381.45 249.77C381.17 249.76 379.97 249.21 378.79 248.54ZM383.11 247.45C383.74 247.02 384.78 246.31 385.42 245.88C386.06 245.45 386.65 245.1 386.73 245.1C386.82 245.1 390.54 242.9 395.01 240.21C399.47 237.53 403.25 235.33 403.41 235.33C403.56 235.33 403.98 235 404.34 234.61C404.93 233.96 404.98 232.52 404.89 220.27L404.79 206.65L402.05 205.02C395.98 201.41 388.78 197.1 385.54 195.15C381.56 192.76 381.09 192.74 377.71 194.94C376.48 195.73 374.94 196.67 374.3 197.02C372.52 197.96 371.23 198.73 370.58 199.22C370.26 199.46 368.81 200.29 367.37 201.06C365.93 201.83 363.32 203.35 361.57 204.43C359.83 205.51 358.24 206.4 358.04 206.4C357.83 206.4 357.68 212.14 357.68 220.43L357.68 234.46L359.15 235.22C359.95 235.64 364.8 238.47 369.93 241.52C375.05 244.56 379.38 247.05 379.55 247.05C379.73 247.05 380.09 247.32 380.35 247.64C381.01 248.43 381.73 248.38 383.11 247.45ZM504.01 203.68C502.54 203.06 501.67 200.54 502.92 200.54C503.25 200.54 504.05 200.92 504.69 201.4L505.85 202.26L506.84 201.28C508.02 200.09 507.8 199.19 506.2 198.63C504.77 198.13 504.75 197.49 506.13 196.38C507.01 195.67 507.11 195.42 506.7 195C506.29 194.58 505.91 194.65 504.55 195.37C502.49 196.46 502.32 196.45 502.32 195.32C502.32 193.83 503.66 192.93 505.73 193.02C508.33 193.13 509.46 194.28 509.13 196.47C508.98 197.48 509.05 198.2 509.32 198.36C510.12 198.86 509.76 201.08 508.66 202.4C507.51 203.79 505.54 204.33 504.01 203.68ZM477.45 199.01C474.05 196.93 472.84 191.12 475.04 187.39C477.03 184.01 483.5 184.03 485.73 187.42C486.26 188.23 486.29 188.54 485.9 189.01C485.17 189.89 484.4 189.72 483.06 188.38C481.97 187.28 481.66 187.18 480.07 187.36C477.55 187.64 476.52 188.93 476.52 191.79C476.52 195.3 477.88 196.99 480.7 197.01C482.12 197.02 482.5 196.83 483.44 195.65C484.57 194.23 486.13 193.81 486.52 194.82C486.82 195.6 484.87 198.28 483.43 199.05C481.75 199.96 478.97 199.94 477.45 199.01ZM489.11 199.29C488.78 198.96 488.64 196.8 488.64 192.1C488.64 186.57 488.74 185.3 489.23 184.89C489.72 184.49 489.96 184.53 490.6 185.1C491.2 185.65 491.37 186.31 491.37 188.09L491.37 190.37L494.49 190.37C498.12 190.37 498.52 190.01 498.33 186.94C498.22 185.12 498.23 185.1 499.39 185.1L500.56 185.1L500.67 191.77C500.77 198.07 500.73 198.48 499.97 199.17C498.76 200.27 498.23 199.43 498.33 196.53C498.37 195.18 498.28 193.89 498.12 193.64C497.82 193.2 495.65 192.96 492.84 193.06L491.37 193.11L491.37 195.78C491.37 197.88 491.22 198.6 490.66 199.11C489.8 199.88 489.71 199.89 489.11 199.29ZM381.22 176.6C380.48 175.71 377.91 167.36 378.16 166.69C378.32 166.28 378.69 166.12 379.17 166.25C379.59 166.36 380.12 166.23 380.34 165.96C380.61 165.64 380.77 153.27 380.84 128.77C380.93 96.44 381.01 92.06 381.53 92.06C382.04 92.06 382.14 96.53 382.31 129.16L382.5 166.27L383.38 166.33C383.87 166.37 384.37 166.5 384.49 166.62C384.77 166.9 382.45 176.32 381.99 176.78C381.8 176.97 381.46 176.89 381.22 176.6ZM440.82 148.68C440.17 148.03 440.74 146.99 443.1 144.49C444.5 143.02 445.64 141.6 445.64 141.35C445.64 139.99 443.64 139.51 442.46 140.58C441.67 141.29 440.55 141.05 440.55 140.17C440.55 138.05 444.86 137.18 446.63 138.95C448.22 140.54 447.94 142.05 445.64 144.36C444.56 145.43 443.68 146.46 443.68 146.65C443.68 146.83 444.46 146.98 445.42 146.98C447.3 146.98 447.93 147.47 447.19 148.37C446.85 148.77 445.89 148.94 443.89 148.94C442.34 148.94 440.96 148.82 440.82 148.68ZM391.95 144.38C391.81 144.23 391.69 141 391.69 137.19C391.69 129.22 391.39 129.78 395.73 129.78C400.47 129.79 402.64 130.85 402.64 133.19C402.64 133.68 402.79 134.08 402.97 134.08C403.55 134.08 404.52 132.74 404.65 131.74C404.75 131 405.05 130.73 405.86 130.64C406.79 130.53 406.94 130.65 406.94 131.53C406.94 132.15 407.37 132.95 408.01 133.55L409.09 134.55L407.98 135.43C406.92 136.28 406.89 136.39 407.08 139.18C407.24 141.58 407.42 142.16 408.16 142.72C408.92 143.29 408.97 143.48 408.53 144.01C408.25 144.36 407.52 144.64 406.91 144.64C405.14 144.64 404.59 143.43 404.59 139.53C404.59 136.65 404.48 136.05 403.81 135.45C402.92 134.64 402.96 134.62 402.09 136.33C401.22 138.04 399.82 138.88 397.84 138.86C394.56 138.84 394.43 138.94 394.43 141.26C394.43 142.78 394.23 143.52 393.71 143.99C392.95 144.68 392.38 144.8 391.95 144.38ZM414.91 144.08C414.79 143.78 415.32 141.54 416.08 139.1C416.84 136.66 417.74 133.67 418.08 132.46C418.66 130.38 419.45 129.49 420.26 130C420.82 130.34 420.69 131.33 419.64 134.68C419.1 136.39 418.28 139.03 417.82 140.53C416.74 144.06 415.49 145.59 414.91 144.08ZM427.51 144.33C427.34 144.06 427.1 132.35 427.22 130.47C427.25 130.01 427.59 129.78 428.23 129.78C429.32 129.78 429.54 130.33 429.7 133.5L429.8 135.45L432.49 135.57C435.99 135.72 436.65 135.2 436.65 132.25C436.65 129.99 437.15 129.4 438.49 130.11C439.16 130.47 439.23 131.08 439.28 136.95C439.33 142.82 439.27 143.45 438.59 144.06C437.22 145.3 436.69 144.56 436.56 141.23L436.45 138.19L433.03 138.07L429.61 137.96L429.61 140.83C429.61 143.64 429.24 144.64 428.19 144.64C427.92 144.64 427.61 144.5 427.51 144.33ZM227.54 140.5C226.06 139.26 225.93 137.99 227.27 137.99C227.78 137.99 228.41 138.25 228.68 138.58C229.4 139.44 230.89 139.29 231.6 138.28C232.18 137.46 232.17 137.36 231.39 136.72C230.93 136.34 230.31 136.04 230.01 136.04C229.5 136.04 229.41 135.88 229.31 134.85C229.29 134.63 229.69 134.23 230.2 133.97C230.71 133.71 231.12 133.32 231.09 133.1C231.02 132.42 229.03 132.43 228.27 133.12C227.47 133.85 226.34 133.65 226.34 132.78C226.34 132.49 226.77 131.78 227.29 131.21C228.67 129.72 230.9 129.77 232.56 131.31C233.65 132.33 233.73 132.56 233.33 133.44C232.96 134.24 233 134.7 233.53 135.81C234.38 137.61 234.02 138.89 232.26 140.34C230.52 141.78 229.12 141.83 227.54 140.5ZM184.11 139.85C183.66 139.36 182.75 137.84 182.09 136.47C180.99 134.17 180.91 133.72 181.07 130.8C181.21 128.36 181.48 127.19 182.28 125.68C183.76 122.89 184.27 122.35 185.42 122.35L186.45 122.35L185.47 124.1C184.08 126.59 183.2 130.35 183.47 132.64C183.6 133.69 184.25 135.75 184.93 137.21C186.45 140.5 186.01 141.89 184.11 139.85ZM199.57 140.35C199.44 140.15 199.99 138.7 200.79 137.13C202.09 134.6 202.25 133.94 202.27 131.35C202.28 128.71 202.13 128.12 200.81 125.53C200 123.94 199.43 122.55 199.53 122.45C200.06 121.92 201.68 122.91 202.61 124.34C205.75 129.12 205.61 134.13 202.21 138.94C201 140.65 200.06 141.15 199.57 140.35ZM187.71 136.73C187.4 136.43 187.25 134.6 187.25 131.26C187.25 127.14 187.35 126.2 187.84 126.01C189.23 125.48 189.59 126.57 189.59 131.33C189.59 135.26 189.49 136.01 188.88 136.56C188.34 137.05 188.07 137.09 187.71 136.73ZM191.96 136.65C191.63 136.25 191.47 134.49 191.46 131.26L191.46 126.46L192.58 126.46L193.7 126.46L193.8 131.18C193.9 135.39 193.83 135.97 193.18 136.56C192.53 137.15 192.38 137.16 191.96 136.65ZM213.53 136.93C213.17 136.8 213.05 134.96 213.05 129.55L213.05 122.35L214.2 122.35C215.35 122.35 215.36 122.36 215.47 124.99L215.59 127.63L218.46 127.75C222.08 127.89 222.43 127.62 222.43 124.65C222.43 122.38 222.44 122.35 223.56 122.35C224.5 122.35 224.71 122.54 224.85 123.5C225.16 125.61 224.84 136.12 224.46 136.51C224.25 136.72 223.75 136.83 223.35 136.75C222.74 136.64 222.59 136.14 222.43 133.69L222.23 130.76L218.81 130.65L215.39 130.53L215.39 133.22C215.39 135.3 215.23 136.05 214.71 136.51C214.33 136.84 213.8 137.03 213.53 136.93ZM239.86 136.82C235.99 135.6 233.73 129.75 235.68 125.95C236.87 123.63 238.2 122.64 240.51 122.34C243.24 121.99 244.98 122.53 246.71 124.27C249.15 126.7 249.54 129.97 247.8 133.38C246.42 136.07 242.66 137.7 239.86 136.82ZM195.85 131.54L195.85 126.26L197.02 126.26L198.19 126.26L198.19 131.07C198.19 136.03 197.97 136.82 196.55 136.82C195.91 136.82 195.85 136.36 195.85 131.54ZM264.4 136.25C264.28 135.93 264.8 133.69 265.57 131.26C266.33 128.84 267.26 125.83 267.63 124.58C268.25 122.53 268.41 122.33 269.32 122.43C269.97 122.51 270.27 122.75 270.17 123.14C270.09 123.46 269.33 126.01 268.48 128.8C267.63 131.6 266.83 134.33 266.71 134.86C266.31 136.68 264.89 137.53 264.4 136.25ZM398.89 136.05C399.47 135.83 399.99 135.24 400.14 134.62C400.51 133.14 399.5 132.52 396.7 132.52L394.43 132.52L394.43 134.21C394.43 135.14 394.54 136.02 394.69 136.17C395.08 136.56 397.75 136.48 398.89 136.05ZM243.85 133.94C246.08 132.71 247.02 128.94 245.63 126.82C243.98 124.3 239.9 123.98 238.17 126.23C237.54 127.06 237.57 131.3 238.22 132.48C239.23 134.3 241.93 135.01 243.85 133.94ZM277.01 133.1C276.74 132.39 277.18 131.34 278.72 129C279.36 128.03 280 126.98 280.15 126.65C280.3 126.33 281.55 124.17 282.94 121.85C284.7 118.89 285.65 117.66 286.1 117.75C286.69 117.86 289.29 122.13 292.5 128.22C293.23 129.62 294.07 131.14 294.36 131.61C294.8 132.31 294.8 132.56 294.38 133.07C293.63 133.98 277.36 134.01 277.01 133.1ZM291.84 131.21C292.04 130.7 287.83 122.84 286.63 121.47C285.82 120.55 285.59 120.61 284.94 121.87C284.64 122.46 283.6 124.17 282.63 125.68C280.17 129.51 279.44 130.94 279.71 131.36C279.84 131.57 282.51 131.74 285.79 131.74C290.33 131.74 291.69 131.62 291.84 131.21ZM253.25 127.34C253.22 127.07 253.15 126.67 253.1 126.46C253.05 126.24 252.99 125.86 252.96 125.6C252.94 125.35 252.35 125.09 251.65 125.02C250.69 124.93 250.35 124.69 250.26 124.04C250.16 123.34 250.35 123.17 251.41 123.07C252.48 122.96 252.73 122.74 253.01 121.65C253.28 120.61 253.52 120.37 254.2 120.47C254.81 120.56 255.12 120.94 255.26 121.76C255.4 122.54 255.73 122.97 256.24 123.06C258 123.34 258.15 123.5 257.41 124.32C257.02 124.74 256.38 125.09 255.98 125.09C255.54 125.09 255.26 125.37 255.26 125.81C255.26 126.49 254.14 127.83 253.57 127.83C253.43 127.83 253.28 127.61 253.25 127.34ZM187.51 124.44C187.02 123.95 187.24 122.44 187.83 122.21C188.61 121.92 189.59 122.31 189.59 122.92C189.59 123.38 188.38 124.7 187.96 124.7C187.86 124.7 187.65 124.58 187.51 124.44ZM191.81 124.44C191.66 124.3 191.55 123.77 191.55 123.27C191.55 122.56 191.76 122.35 192.5 122.35C193.79 122.35 194.12 123.02 193.28 123.94C192.55 124.75 192.23 124.86 191.81 124.44ZM196.11 124.44C195.96 124.3 195.85 123.77 195.85 123.27C195.85 122.51 196.05 122.35 197.02 122.35C197.92 122.35 198.19 122.53 198.19 123.12C198.19 124.09 196.7 125.03 196.11 124.44ZM690.38 111.26C690.08 110.89 689.97 108.61 690.04 103.93L690.15 97.14L693.32 97.04C696.07 96.96 696.63 97.05 697.57 97.79C698.16 98.26 698.89 99.22 699.19 99.93C700.29 102.57 699.65 104.94 697.32 106.91C696.25 107.81 695.79 107.94 694.37 107.79L692.69 107.6L692.69 109.05C692.69 109.96 692.42 110.75 691.98 111.15C691.11 111.94 690.96 111.95 690.38 111.26ZM741.42 111.54C740.9 111.02 741.18 109.86 741.94 109.46C743.87 108.42 743.72 107.4 740.49 99.61C739.8 97.94 740.03 96.95 741.1 96.95C742.1 96.95 742.51 97.5 743.52 100.21C744.52 102.87 744.84 102.76 746.04 99.38C746.72 97.46 746.99 97.12 747.91 97.02C749.22 96.87 749.24 97.14 748.15 100.69C746.05 107.56 745.42 109.24 744.48 110.47C743.53 111.72 742.1 112.22 741.42 111.54ZM670.66 110.08C668.02 106.62 667.33 101.67 668.91 97.54C669.83 95.15 671.52 93.04 672.52 93.04C673.3 93.04 673.34 94.34 672.58 94.97C672.27 95.23 671.64 96.68 671.17 98.2C670.03 101.87 670.27 104.56 672.06 108.27C672.79 109.79 673.31 111.12 673.2 111.22C672.67 111.76 671.56 111.26 670.66 110.08ZM849.45 110.98C849.45 110.75 850.04 109.47 850.77 108.15C852.91 104.24 852.93 100.14 850.81 96.03C849.32 93.14 849.57 92.29 851.46 93.78C853 95 854.65 98.77 854.84 101.51C855.04 104.37 854.27 106.78 852.28 109.55C851.05 111.26 849.45 112.07 849.45 110.98ZM678.62 107.62C677.56 107.23 675.44 104.98 674.87 103.64C673.59 100.59 674.46 96.44 676.85 94.21C677.79 93.34 678.23 93.23 680.98 93.23C684.03 93.23 684.06 93.24 685.63 94.77C687.79 96.88 688.65 99.49 687.99 101.88C687.33 104.21 685.67 106.44 683.98 107.24C682.66 107.86 679.85 108.06 678.62 107.62ZM701.68 107.11C701.01 106.44 700.9 105.81 700.9 102.66C700.9 99.3 700.83 98.95 700.02 98.4L699.14 97.81L699.97 96.89C700.42 96.38 700.91 95.48 701.05 94.89C701.24 94.09 701.54 93.82 702.23 93.82C703.17 93.82 703.64 94.46 703.64 95.76C703.64 96.14 704.03 96.74 704.52 97.09L705.4 97.73L704.52 98.36C703.73 98.93 703.64 99.32 703.64 102.22C703.64 105.13 703.72 105.51 704.51 106.03C705.27 106.53 705.31 106.7 704.85 107.25C704.13 108.12 702.63 108.06 701.68 107.11ZM706.21 107.15C705.77 106.66 705.68 106.32 705.96 106.15C706.21 105.99 706.37 104.15 706.37 101.39L706.37 96.89L707.45 97.02L708.52 97.14L708.63 101.97C708.74 106.77 708.5 107.89 707.36 107.89C707.1 107.89 706.58 107.56 706.21 107.15ZM713.02 107.39C711.91 106.84 710.32 103.91 710.3 102.35C710.28 100.87 711.65 97.86 712.58 97.36C713.01 97.13 714.26 96.95 715.37 96.95C717.09 96.95 717.55 97.12 718.58 98.15L719.78 99.35L718.95 100.18L718.11 101.01L717.01 99.96C716.4 99.38 715.53 98.9 715.07 98.9C712.58 98.9 712.27 105.01 714.72 105.79C715.32 105.98 715.78 105.73 716.55 104.82C717.12 104.13 717.95 103.59 718.42 103.59C719.77 103.59 719.47 105.06 717.83 106.57C716.26 108 714.76 108.26 713.02 107.39ZM721.59 106.75C720.03 105.19 720.05 103.6 721.65 102.26C722.44 101.59 723.32 101.25 724.21 101.25C725.82 101.25 727.09 100.65 727.09 99.91C727.09 98.59 724.27 98.57 722.72 99.88C722.08 100.42 721.39 100.76 721.19 100.64C720.53 100.23 720.83 98.87 721.8 97.9C722.58 97.12 723.14 96.95 724.9 96.95C729.09 96.95 729.83 97.91 729.83 103.37C729.83 107.58 729.38 108.41 727.64 107.48C726.86 107.06 726.49 107.05 725.9 107.42C724.56 108.26 722.83 107.99 721.59 106.75ZM732.28 107.21C732.11 106.83 732.03 103.48 732.1 99.76L732.22 92.99L733.27 93.11L734.32 93.23L734.43 100.02C734.54 106.85 734.36 107.89 733.12 107.89C732.83 107.89 732.45 107.58 732.28 107.21ZM736.57 107.21C736.42 106.83 736.32 104.24 736.34 101.44C736.41 92.88 736.39 93.04 737.18 93.04C738.65 93.04 738.82 93.77 738.82 100.18C738.82 103.7 738.64 106.7 738.41 107.13C737.91 108.08 736.93 108.12 736.57 107.21ZM757.71 107.5C756.6 107.05 756.02 105.93 756.02 104.26C756.02 102.53 757.07 101.6 759.31 101.35C761.1 101.14 762.56 100.08 762.09 99.32C761.63 98.56 759.49 98.87 758.31 99.86C756.41 101.46 755.14 100.07 756.72 98.11C757.3 97.41 757.95 97.21 760.21 97.04C762.81 96.86 763.06 96.91 764 97.85C764.76 98.62 765.01 99.27 765.03 100.54C765.03 101.47 765.08 103.34 765.12 104.7C765.22 107.55 764.74 108.3 763.32 107.54C762.68 107.19 762.15 107.18 761.35 107.48C760.07 107.97 758.88 107.97 757.71 107.5ZM768.85 107.02C768.27 106.53 767.61 105.64 767.38 105.03C766.79 103.48 766.86 100.68 767.53 99.08C768.18 97.52 769.35 96.95 771.91 96.95C773.33 96.95 773.89 97.16 774.81 98.09C776.16 99.44 776.23 99.9 775.17 100.47C774.52 100.81 774.22 100.71 773.44 99.86C771.37 97.63 768.96 99.53 769.48 103C769.93 105.98 771.76 106.62 773.36 104.34C773.96 103.47 775.58 103.42 775.85 104.25C775.94 104.51 775.42 105.36 774.7 106.15C772.98 108.03 770.47 108.4 768.85 107.02ZM778.17 107.18C777.67 106.63 777.52 105.69 777.52 103.23C777.52 100.92 777.33 99.68 776.87 98.9C776.27 97.88 776.27 97.71 776.87 96.44C777.23 95.68 777.52 94.78 777.52 94.42C777.52 93.94 777.8 93.8 778.59 93.89C779.48 93.99 779.69 94.23 779.79 95.23C779.87 96.11 780.2 96.58 780.96 96.93L782.01 97.41L780.94 98.33C779.95 99.18 779.86 99.48 779.86 102.08C779.86 104.44 780 105.06 780.7 105.8C781.4 106.54 781.46 106.8 781.05 107.29C780.37 108.1 778.95 108.05 778.17 107.18ZM782.79 107.01C782.67 106.53 782.62 104.11 782.68 101.64C782.79 97.23 782.81 97.14 783.73 97.01C784.24 96.94 784.81 97.11 784.99 97.4C785.18 97.69 785.33 99.87 785.33 102.26C785.34 105.97 785.23 106.69 784.62 107.24C783.64 108.13 783.05 108.06 782.79 107.01ZM789.44 107.49C788.67 106.26 786.14 97.55 786.46 97.23C787.57 96.11 789.07 97.94 790.03 101.59C790.41 103.03 790.56 103.22 791 102.76C791.29 102.47 791.86 101.08 792.26 99.68C792.87 97.59 793.16 97.12 793.9 97.01C795.37 96.8 795.63 97.43 794.94 99.54C794.59 100.58 794.16 101.79 793.98 102.22C793.8 102.65 793.43 103.71 793.17 104.57C792.43 106.92 791.69 107.89 790.63 107.89C790.11 107.89 789.57 107.71 789.44 107.49ZM799.17 107.14C796.36 105.43 796.32 99.51 799.1 97.56C799.59 97.21 800.78 96.95 801.81 96.95C803.92 96.95 805.63 98.09 806.44 100.06C806.85 101.06 806.83 101.39 806.29 102.22C805.7 103.12 805.41 103.2 802.7 103.2C799.87 103.2 799.75 103.24 799.87 104.07C799.94 104.54 800.46 105.19 801.02 105.51C801.99 106.05 802.13 106.02 803.3 105.03C804.65 103.9 805.15 103.78 806.05 104.38C806.54 104.7 806.36 105.04 804.99 106.33C803.09 108.14 801.22 108.4 799.17 107.14ZM814.54 107.1C813.37 106.18 812.86 104.36 813.47 103.23C814.02 102.2 815.86 101.25 817.3 101.25C818.76 101.25 819.94 100.38 819.62 99.54C819.21 98.48 816.66 98.7 815.39 99.92C814.22 101.05 813.48 100.89 813.48 99.52C813.48 97.96 814.82 97.18 817.79 97.01C820.31 96.87 820.54 96.93 821.47 97.94C822.41 98.95 822.47 99.27 822.47 103.01C822.47 107.57 822.14 108.26 820.34 107.44C819.52 107.06 819.12 107.06 818.54 107.42C817.41 108.13 815.66 107.99 814.54 107.1ZM826.9 107.11C824.88 105.78 824.16 102.01 825.37 99.11C826.07 97.43 827 96.95 829.51 96.95C831.22 96.95 831.7 97.12 832.68 98.11C833.39 98.81 833.9 99.08 833.98 98.79C834.47 97.15 834.64 96.95 835.53 96.95C836.77 96.95 836.87 97.39 836.77 102.48C836.7 106.63 836.32 107.89 835.17 107.89C834.56 107.89 834.2 107.01 834.2 105.51C834.2 104.89 834.02 104.37 833.81 104.37C833.59 104.37 833.42 104.6 833.42 104.89C833.42 105.17 832.91 105.89 832.29 106.48C830.76 107.94 828.56 108.2 826.9 107.11ZM841.63 107.61C839.08 106.7 837.76 102.6 839.03 99.57C839.8 97.71 840.7 97.16 843.35 96.95L845.73 96.75L845.85 94.89C845.97 93.02 846.28 92.74 847.65 93.27C848.19 93.48 848.27 94.47 848.27 100.29C848.27 104.67 848.13 107.15 847.85 107.32C847.31 107.66 842.39 107.88 841.63 107.61ZM695.89 104.89C696.75 104.07 696.99 103.48 696.99 102.24C696.99 99.5 695.46 98.23 693.45 99.3C691.93 100.12 692.72 105.94 694.35 105.94C694.6 105.94 695.29 105.46 695.89 104.89ZM726.19 105.09C727.36 103.98 727.34 103.2 726.14 103.2C723.82 103.2 722.55 104.36 723.65 105.47C724.35 106.16 725.17 106.04 726.19 105.09ZM761.72 104.89C763 103.51 762.46 102.97 760.27 103.43C758.42 103.83 758.03 104.38 758.96 105.3C759.86 106.2 760.6 106.09 761.72 104.89ZM818.93 104.92C820.32 103.75 820.18 103.2 818.51 103.2C816.32 103.2 815.19 104.36 816.3 105.47C817 106.17 817.59 106.04 818.93 104.92ZM830.71 104.73C831.54 103.84 832.11 103.56 832.92 103.66C833.97 103.78 834.01 103.72 834.12 101.73C834.25 99.55 834.07 99.32 833.01 100.28C832.4 100.83 832.24 100.8 831.16 99.89C828.82 97.92 827.3 98.92 827.45 102.35C827.55 104.4 828.3 105.94 829.22 105.94C829.42 105.94 830.09 105.4 830.71 104.73ZM845.03 104.41C845.53 103.68 845.93 102.61 845.93 102.02C845.93 100.47 844.55 98.9 843.18 98.9C841.75 98.9 841.24 99.81 841.24 102.31C841.24 105.9 843.28 107.03 845.03 104.41ZM683.99 103.88C687.73 100 684.55 94.39 679.4 95.77C678.11 96.12 677.66 96.48 677.22 97.54C676.48 99.31 676.52 101.39 677.31 102.93C678.22 104.69 678.95 105.13 680.98 105.14C682.49 105.15 682.95 104.96 683.99 103.88ZM803.92 100.83C804.33 100.17 802.91 98.9 801.77 98.9C800.57 98.9 799.8 99.54 799.8 100.54C799.8 101.12 800.13 101.25 801.73 101.25C802.79 101.25 803.78 101.06 803.92 100.83ZM30.62 100.54C30.19 100.27 29.93 95.17 30.05 89.08L30.1 86.1L33.28 86.06C35.85 86.03 36.66 86.17 37.53 86.78C39.01 87.84 39.62 89.52 39.39 91.94C39.22 93.7 38.98 94.16 37.55 95.49C36.01 96.93 35.8 97.01 34.18 96.77L32.45 96.51L32.45 98.03C32.45 99.64 31.43 101.04 30.62 100.54ZM81.02 100.6C80.18 100.26 80.47 99.33 81.78 98.16L83.02 97.05L82.37 95.14C82.02 94.09 81.19 91.75 80.53 89.94C79.25 86.43 79.35 85.72 81.08 86.15C81.87 86.35 82.19 86.82 82.67 88.45C83.77 92.19 84.18 92.18 85.5 88.35C86.13 86.53 86.41 86.18 87.29 86.07C88.81 85.89 88.84 85.68 85.94 95.09C84.63 99.35 82.85 101.34 81.02 100.6ZM147.27 100.63C146.85 100.2 146.92 98.6 147.37 98.31C147.89 97.99 149.09 95.25 149.69 93.03C150.1 91.5 150.05 90.88 149.38 88.43C148.95 86.87 148.23 85.09 147.79 84.47C146.18 82.21 147.32 81.15 149.19 83.17C150.93 85.04 152.44 88.81 152.45 91.3C152.46 93.5 150.9 97.25 149.19 99.13C148.3 100.12 147.44 100.79 147.27 100.63ZM10.75 99.93C9.28 97.93 8.87 97.18 8.19 95.33C6.78 91.46 7.48 86.75 9.97 83.49C10.98 82.16 12.21 81.68 12.68 82.44C12.79 82.63 12.57 83.2 12.18 83.71C11.08 85.15 9.77 89.33 9.78 91.39C9.78 92.88 10.77 95.98 11.88 97.95C12.55 99.15 12.69 99.74 12.39 100.04C11.81 100.61 11.22 100.57 10.75 99.93ZM17.79 96.42C12.85 94.13 12.26 85.98 16.81 82.94C17.98 82.15 18.55 82.04 20.81 82.17C23.26 82.3 23.55 82.42 25.01 83.84C27.86 86.62 28.35 89.57 26.55 93.09C24.97 96.19 20.74 97.79 17.79 96.42ZM41.66 96.33C41.19 95.86 41.05 94.86 41.05 92.03C41.05 88.78 40.96 88.3 40.26 87.86C39.35 87.29 39.23 86.18 40.05 85.87C40.36 85.75 40.73 85.03 40.87 84.26C41.1 83.05 41.28 82.87 42.26 82.87C43.29 82.87 43.39 82.99 43.39 84.25C43.39 85.39 43.57 85.7 44.47 86.04L45.54 86.45L44.47 87.38C43.48 88.23 43.39 88.55 43.39 91.03C43.39 94.08 43.62 94.99 44.39 94.99C45.28 94.99 45.5 95.87 44.74 96.42C43.78 97.12 42.41 97.08 41.66 96.33ZM46.55 96.4C46.25 96.04 46.14 94.26 46.21 91.03L46.32 86.2L47.3 86.2L48.28 86.2L48.39 91.03C48.49 95.6 48.24 96.95 47.3 96.95C47.14 96.95 46.8 96.7 46.55 96.4ZM53.18 96.46C50.71 95.17 49.68 91.28 50.98 88.17C51.69 86.46 52.61 86 55.31 86C57.18 86 57.64 86.15 58.46 87.03C59.62 88.29 59.67 88.96 58.64 89.51C58.01 89.86 57.71 89.75 57.01 88.94C55.91 87.68 54.22 87.63 53.38 88.82C52.42 90.2 52.6 92.73 53.75 93.97C54.84 95.15 55.46 95.02 56.97 93.27C57.97 92.11 58.35 92.03 59.01 92.82C59.56 93.48 59.17 94.36 57.75 95.69C56.58 96.79 54.47 97.15 53.18 96.46ZM62.23 96.54C61.05 96.06 60.09 93.77 60.56 92.54C61.04 91.28 62.63 90.3 64.22 90.3C65.84 90.3 67.06 89.47 66.73 88.6C66.36 87.64 63.65 87.73 62.74 88.74C61.11 90.54 59.79 89.03 61.33 87.13C61.94 86.37 62.51 86.2 64.82 86.07C67.36 85.93 67.66 85.99 68.58 86.92C69.53 87.86 69.58 88.14 69.58 91.99C69.58 96.57 69.25 97.31 67.53 96.53C66.81 96.2 66.34 96.2 65.75 96.51C64.79 97.03 63.47 97.03 62.23 96.54ZM72.4 96.48C72.07 96.15 71.93 93.94 71.93 89.05L71.93 82.09L72.83 82.09C74.51 82.09 74.66 82.67 74.66 89.12C74.66 94 74.54 95.38 74.06 96.08C73.36 97.07 73.06 97.14 72.4 96.48ZM76.72 96.69C76.35 96.54 76.23 94.68 76.23 89.29L76.23 82.09L77.18 82.09C77.71 82.09 78.24 82.27 78.38 82.48C78.51 82.7 78.61 85.8 78.59 89.38C78.57 96.49 78.35 97.34 76.72 96.69ZM97.16 96.07C96.61 95.58 96.05 94.62 95.92 93.93C95.59 92.22 97.42 90.3 99.37 90.3C101.12 90.3 102.63 89.27 102 88.51C101.32 87.68 99.14 87.82 98.31 88.74C97.29 89.86 96.16 89.76 96.16 88.54C96.16 86.77 97.41 86 100.29 86C101.71 86 103.19 86.18 103.6 86.4C104.58 86.92 105.06 88.99 105.1 92.92C105.14 96.49 104.68 97.25 102.93 96.45C102.28 96.15 101.75 96.17 101.03 96.49C99.52 97.18 98.27 97.04 97.16 96.07ZM109.61 96.58C107.43 95.65 106.27 92.24 107.1 89.18C107.78 86.64 108.64 86 111.39 86C113.38 86 113.87 86.15 114.74 87.02C115.29 87.58 115.7 88.32 115.63 88.68C115.44 89.67 113.78 89.73 113.11 88.77C112.36 87.71 110.42 87.67 109.86 88.71C109.14 90.06 109.36 93.33 110.24 94.21C111.27 95.25 111.55 95.2 112.72 93.82C113.79 92.55 115.2 92.27 115.58 93.27C115.73 93.67 115.34 94.37 114.48 95.23C113.05 96.66 111.08 97.21 109.61 96.58ZM118.14 96.34C117.34 95.78 117.27 95.42 117.27 91.83C117.27 88.72 117.15 87.88 116.69 87.7C115.94 87.42 115.93 86.24 116.66 85.63C116.97 85.37 117.28 84.69 117.35 84.11C117.44 83.3 117.71 83.04 118.54 82.94C119.44 82.84 119.62 82.97 119.62 83.73C119.64 85.42 121.05 86.46 122.89 86.11C123.61 85.97 124.12 86.09 124.34 86.44C124.53 86.73 124.69 88.93 124.69 91.31C124.7 95.09 124.6 95.74 123.96 96.33C123.33 96.9 123.09 96.92 122.4 96.49C121.76 96.09 121.49 96.09 121.11 96.47C120.46 97.12 119.18 97.07 118.14 96.34ZM129.04 96.4C128.25 95.46 125.46 86.65 125.83 86.28C126.33 85.77 127.89 86.1 128.24 86.78C128.4 87.1 128.85 88.48 129.23 89.83C130.06 92.79 130.51 92.58 131.63 88.74C132.32 86.35 132.43 86.19 133.61 86.07C134.47 85.99 134.86 86.12 134.86 86.48C134.86 87.36 132.19 95.03 131.54 96.03C130.87 97.05 129.72 97.23 129.04 96.4ZM138.67 96.17C137.16 94.97 136.43 93.38 136.43 91.27C136.43 89.34 136.83 88.28 138.11 86.88C138.75 86.17 139.33 86 141.03 86C143.67 86 145.08 86.92 145.8 89.1C146.27 90.53 146.25 90.77 145.62 91.47C145.03 92.12 144.41 92.25 142.03 92.25C138.87 92.25 138.41 92.7 140.02 94.19C141.11 95.21 141.35 95.2 142.75 94.01C145.1 92.04 146.66 93.15 144.54 95.27C142.74 97.07 140.29 97.45 138.67 96.17ZM568.65 95.45C568.23 95.37 567.99 94.95 567.99 94.27C567.99 93.49 568.62 92.59 570.34 90.89C572.88 88.37 573.21 87.39 571.72 86.72C570.95 86.37 570.56 86.41 569.78 86.92C568.44 87.8 567.99 87.73 567.99 86.65C567.99 83.47 574 83.8 574.81 87.02C575.1 88.18 573.6 90.72 572.01 91.76C570.58 92.7 570.88 93.43 572.69 93.43C574.31 93.43 575.15 94.24 574.35 95.04C573.97 95.42 569.98 95.71 568.65 95.45ZM122.04 91.04C122.01 89.07 121.91 87.38 121.82 87.28C121.72 87.19 121.18 87.41 120.62 87.78C119.66 88.41 119.6 88.63 119.66 91.17C119.72 93.35 119.89 94.04 120.53 94.64C121.77 95.79 122.1 95 122.04 91.04ZM533.38 94.8C533.28 94.47 533.12 93.95 533.02 93.64C532.91 93.27 532.16 93.04 530.78 92.96C528.84 92.85 528.7 92.77 528.58 91.77C528.49 90.98 528.92 90.12 530.26 88.45C532.88 85.17 533.61 84.44 534.23 84.44C535 84.44 535.2 85.13 535.38 88.43C535.47 89.99 535.57 91.75 535.6 92.33C535.66 93.45 534.62 95.38 533.96 95.38C533.74 95.38 533.48 95.12 533.38 94.8ZM609.74 94.4C609.29 93.41 608.71 93.15 606.5 92.95C605.54 92.86 605.3 92.64 605.2 91.77C605.11 90.97 605.62 89.98 607.26 87.8C608.46 86.21 609.74 84.79 610.11 84.65C611.19 84.23 611.77 85.52 611.77 88.34C611.77 89.76 611.96 91.12 612.2 91.35C612.48 91.63 612.49 92.01 612.24 92.5C612.03 92.9 611.67 93.72 611.43 94.31C610.9 95.65 610.33 95.68 609.74 94.4ZM706.37 94.21C706.37 93.23 706.53 93.04 707.31 93.04C708.39 93.04 708.94 94.06 708.29 94.85C708.04 95.14 707.51 95.38 707.11 95.38C706.55 95.38 706.37 95.1 706.37 94.21ZM782.74 94.8C782.4 93.9 782.88 93.04 783.71 93.04C784.84 93.04 785.56 94.06 784.95 94.8C784.68 95.12 784.12 95.38 783.71 95.38C783.3 95.38 782.87 95.12 782.74 94.8ZM834.35 94.82C833.96 93.81 834.51 92.97 835.47 93.11C836.11 93.2 836.35 93.49 836.35 94.21C836.35 94.93 836.11 95.22 835.47 95.31C834.94 95.39 834.49 95.19 834.35 94.82ZM36.12 93.79C37.37 92.31 37.45 90.41 36.33 88.98C35.4 87.81 34.2 87.66 33.16 88.6C32.09 89.57 32.17 92.89 33.3 94.09C34.42 95.28 34.91 95.23 36.12 93.79ZM65.94 94.14C67.18 92.97 67.09 92.25 65.7 92.25C63.49 92.25 62.6 93.32 63.8 94.52C64.46 95.19 64.91 95.11 65.94 94.14ZM101.51 94.14C102.74 92.99 102.67 92.25 101.34 92.26C98.81 92.27 97.74 93.29 98.98 94.52C99.67 95.22 100.5 95.09 101.51 94.14ZM224.11 94.6C222.64 94 221.94 92.07 222.11 89.08C222.31 85.47 223.17 84.29 225.73 84.12C227.98 83.97 229.57 84.84 229.39 86.12C229.24 87.16 227.85 87.46 227.13 86.61C226.53 85.88 225.5 85.82 224.85 86.47C224.04 87.28 224.29 87.99 225.3 87.74C226.66 87.4 229.01 88.52 229.47 89.72C230.09 91.36 229.93 91.97 228.5 93.52C227.11 95.04 225.93 95.33 224.11 94.6ZM245.74 94.18C243.78 92.64 244.73 90.76 246.72 92.23C248.13 93.28 249 93.16 249.76 91.8C250.67 90.18 249.86 89.52 246.97 89.52L244.63 89.52L244.91 87.07C245.06 85.73 245.27 84.5 245.36 84.34C245.46 84.18 246.86 84.05 248.47 84.05C251.29 84.05 251.4 84.08 251.28 84.92C251.18 85.69 250.89 85.82 249.11 85.92C247.63 86.01 247.05 86.2 247.05 86.61C247.05 86.97 247.46 87.17 248.2 87.17C249.85 87.17 250.41 87.47 251.56 88.98C252.48 90.19 252.54 90.45 252.14 91.66C251.17 94.6 247.9 95.88 245.74 94.18ZM312.51 94.03C311.65 93.17 311.18 91.47 311.8 91.47C311.94 91.47 312.82 91.85 313.75 92.32C315.4 93.14 315.47 93.15 316.24 92.46C317.37 91.44 317.22 90.78 315.66 89.86C314.05 88.91 313.91 88.08 315.27 87.56C315.81 87.36 316.25 86.92 316.25 86.6C316.25 85.81 314.16 85.8 313.51 86.59C312.82 87.41 311.55 87.34 311.55 86.46C311.55 84.12 315.97 83.07 317.77 84.98C318.47 85.73 318.59 86.18 318.39 87.28C318.2 88.26 318.32 88.95 318.8 89.68C319.37 90.54 319.39 90.87 318.98 91.87C317.76 94.8 314.41 95.92 312.51 94.03ZM447.81 93.19C447.06 92.2 446.33 90.79 446.19 90.06C446.05 89.33 445.78 88.63 445.59 88.51C445.01 88.15 445.21 83.52 445.89 81.48C446.53 79.58 447.75 77.48 448.55 76.92C448.77 76.76 449.37 76.63 449.87 76.62L450.78 76.62L449.63 78.67C447.12 83.19 447.09 87.2 449.52 91.87C450.39 93.54 450.56 94.21 450.23 94.54C449.52 95.25 449.28 95.11 447.81 93.19ZM459.71 94.2C459.71 93.76 460.25 92.33 460.92 91.01C461.58 89.7 462.22 87.72 462.33 86.6C462.56 84.36 461.71 80.76 460.46 78.72C458.94 76.25 460 75.27 461.84 77.45C465.71 82.04 465.76 88.93 461.96 93.24C460.27 95.16 459.71 95.4 459.71 94.2ZM23.27 93.43C23.34 93.43 23.76 92.83 24.2 92.11C25.78 89.56 24.99 86.24 22.53 85.08C20.86 84.28 20.35 84.28 18.38 85.07C16.63 85.77 16.25 86.56 16.23 89.59C16.21 92.95 19.02 95.14 21.84 93.97C22.57 93.67 23.21 93.43 23.27 93.43ZM183.95 93.24C180.75 89.74 180.08 83.77 182.38 79.17C183.5 76.92 185.29 75.31 185.95 75.97C186.12 76.14 185.89 76.93 185.43 77.72C182.94 82.09 182.81 86.69 185.07 91.14C186.21 93.38 186.32 93.84 185.85 94.23C185.4 94.61 185.03 94.42 183.95 93.24ZM195.3 93.99C195.17 93.65 195.57 92.46 196.18 91.35C196.79 90.23 197.51 88.5 197.78 87.49C198.51 84.8 197.84 80.82 196.28 78.64C195.26 77.2 195.17 75.72 196.12 75.91C197.16 76.11 199.2 79.07 199.95 81.46C201.21 85.46 200.19 90 197.31 93.29C196.02 94.75 195.65 94.88 195.3 93.99ZM227.02 92.16C227.72 91.41 227.77 91.17 227.34 90.59C226.71 89.74 224.55 89.68 224.24 90.5C223.91 91.35 224.78 93.04 225.55 93.04C225.91 93.04 226.57 92.64 227.02 92.16ZM456.27 91C455.95 90.69 455.8 88.84 455.8 85.31L455.8 80.08L456.87 80.21C457.82 80.32 457.98 80.54 458.21 82.09C458.36 83.06 458.49 85.18 458.51 86.81C458.53 89.42 458.43 89.87 457.63 90.62C456.94 91.28 456.63 91.36 456.27 91ZM473.42 90.92C473.12 90.56 473.02 88.17 473.09 83.41L473.2 76.42L474.17 76.42C475.11 76.42 475.15 76.53 475.26 79.26C475.33 80.82 475.5 82.09 475.66 82.09C475.81 82.09 477.24 80.77 478.84 79.16C481.08 76.89 481.99 76.23 482.84 76.23C484.49 76.23 484.21 76.97 481.6 79.55C480.31 80.83 479.25 82.09 479.25 82.36C479.25 82.64 480.4 84.42 481.8 86.33C483.19 88.24 484.34 89.99 484.34 90.2C484.34 90.42 484.07 90.81 483.75 91.08C482.97 91.73 482.46 91.28 479.82 87.71C477.27 84.26 476.98 84.07 476.06 85.2C475.55 85.83 475.35 86.74 475.35 88.38C475.35 90.22 475.2 90.74 474.6 91.06C474.06 91.35 473.74 91.31 473.42 90.92ZM486.35 90.95C486.02 90.56 485.91 88.38 485.99 83.41L486.1 76.42L487.34 76.3C488.89 76.15 489.39 76.84 490.81 81.06C492.44 85.94 492.74 86.52 493.24 85.91C493.48 85.62 494.32 83.55 495.12 81.3C496.8 76.51 496.99 76.23 498.41 76.23C500.26 76.23 500.39 76.77 500.28 83.86C500.18 89.56 500.08 90.47 499.49 90.84C498.24 91.62 497.86 90.59 497.84 86.33C497.83 83.93 497.66 82.3 497.41 82.22C497.19 82.14 496.43 83.88 495.72 86.09C494.32 90.46 493.97 91.08 492.93 91.08C492.12 91.08 492.01 90.86 490.42 86.22C488.78 81.43 488.25 81.42 488.32 86.18C488.38 89.48 488.29 90.04 487.6 90.73C486.93 91.4 486.75 91.43 486.35 90.95ZM518.5 91.05C516.18 90.38 514.24 87.9 513.67 84.89C513.34 83.17 513.4 82.52 514.03 80.86C514.94 78.47 515.75 77.51 517.51 76.78C521.39 75.16 525.68 77.16 527.13 81.27C527.93 83.54 527.88 84.28 526.8 86.59C525.7 88.92 524.33 90.26 522.35 90.95C520.69 91.53 520.2 91.54 518.5 91.05ZM580.89 90.95C579.08 90.35 578.44 89.91 577.64 88.75C576.8 87.51 576.75 85.22 577.57 85.22C578.22 85.22 579.72 86.57 579.72 87.16C579.72 87.37 580.26 87.82 580.92 88.16C582.35 88.9 584.02 88.64 585.04 87.52C586.1 86.34 585.33 85.53 582.42 84.73C581.04 84.36 579.48 83.73 578.94 83.33C574.29 79.89 579.26 74.44 584.89 76.79C587.15 77.74 588.26 80.11 586.81 80.89C586.23 81.2 585.87 81.05 585.02 80.16C583.77 78.86 582.06 78.41 580.69 79.04C578.67 79.96 579.84 81.68 583 82.45C586.39 83.27 588.32 84.81 588.32 86.67C588.31 88 586.75 89.95 585.09 90.71C583.2 91.56 582.78 91.59 580.89 90.95ZM594.43 90.9C591.13 89.72 589.17 86.24 589.69 82.47C590.39 77.39 595.22 74.75 599.67 77.02C602.97 78.7 604.52 83.38 602.86 86.62C601.85 88.58 599.83 90.46 598.13 91.03C596.49 91.58 596.31 91.57 594.43 90.9ZM739.99 91.2C739.67 91.08 738.92 90.53 738.33 89.98C737.12 88.85 736.89 87.03 737.82 85.78C738.2 85.26 738.31 84.49 738.15 83.35C737.86 81.17 738.71 80.14 740.83 80.14C741.93 80.14 742.66 80.44 743.59 81.27C744.78 82.33 744.82 82.46 744.32 83.41C743.84 84.3 743.86 84.62 744.46 85.95C745.06 87.28 745.09 87.63 744.63 88.58C744.09 89.69 741.81 91.5 741.01 91.44C740.77 91.42 740.31 91.31 739.99 91.2ZM768.62 91.23C768.36 91.11 768.14 90.55 768.14 89.98C768.14 89.23 768.86 88.22 770.77 86.28L773.41 83.61L772.49 82.85C771.33 81.9 770.83 81.9 769.61 82.86C768.52 83.72 768.14 83.56 768.14 82.24C768.14 81.03 769.55 80.13 771.45 80.15C773.16 80.16 774.01 80.64 774.72 81.97C775.53 83.5 775.22 84.42 773.22 86.43C772.14 87.5 771.26 88.55 771.26 88.75C771.26 88.96 771.92 89.13 772.73 89.13C776.59 89.15 775.59 91.08 771.6 91.3C770.23 91.38 768.89 91.34 768.62 91.23ZM794.48 91.09C791.43 89.87 790.69 83.79 793.26 81.02C794.15 80.06 796.5 79.81 797.86 80.54C798.99 81.14 799.56 82.41 799.01 83.08C798.62 83.55 798.32 83.5 797.06 82.77C795.59 81.93 795.55 81.93 794.75 82.65C793.54 83.74 793.75 84.05 795.71 84.05C799.28 84.05 800.68 87.37 798.14 89.79C796.67 91.19 795.64 91.55 794.48 91.09ZM451.76 90.82C451.62 90.68 451.5 88.2 451.5 85.32L451.5 80.08L452.57 80.21L453.65 80.33L453.76 85.16C453.83 88.39 453.72 90.17 453.42 90.54C452.94 91.12 452.19 91.25 451.76 90.82ZM502.89 90.59C502.63 89.92 502.51 86.76 502.62 83.22L502.71 80.25L505.69 80.22C507.33 80.21 509.06 80.34 509.54 80.52C510.9 81.04 511.35 82.72 511.23 86.76C511.14 89.71 510.98 90.49 510.44 90.84C509.25 91.59 508.83 90.58 508.75 86.79C508.66 82.81 508.24 81.89 506.65 82.29C505.22 82.65 505.07 83.07 505.06 86.8C505.05 90.11 504.72 91.08 503.6 91.08C503.31 91.08 502.99 90.86 502.89 90.59ZM533.13 89.81C533.27 88.58 532.58 88.38 531.79 89.42C530.99 90.48 531.13 91.15 532.12 91.01C532.75 90.92 533.04 90.58 533.13 89.81ZM542.19 89.74C542.19 88.97 542.35 88.03 542.54 87.66C542.74 87.28 543.45 85.04 544.12 82.68C545.69 77.22 546.08 76.23 546.69 76.23C547.92 76.23 547.95 77.24 546.83 80.92C546.2 82.96 545.42 85.6 545.08 86.78C544.21 89.77 543.64 90.86 542.86 91.01C542.33 91.11 542.19 90.85 542.19 89.74ZM554.57 90.82C554.43 90.68 554.31 87.32 554.31 83.37L554.31 76.18L555.38 76.3C556.42 76.42 556.47 76.52 556.65 79.16L556.85 81.9L559.72 82.01C563.23 82.15 563.69 81.84 563.69 79.34C563.69 77.01 563.98 76.23 564.83 76.23C566.25 76.23 566.43 77 566.43 83.37C566.43 89.77 566.17 91.08 564.89 91.08C563.93 91.08 563.69 90.34 563.69 87.34C563.69 84.42 563.54 84.32 559.38 84.51L556.85 84.63L556.73 87.35C556.67 88.85 556.43 90.3 556.2 90.58C555.74 91.12 554.99 91.24 554.57 90.82ZM609.57 90.21C609.89 89.72 609.86 89.41 609.5 89.04C609.09 88.63 608.85 88.72 608.24 89.52C607.83 90.06 607.49 90.64 607.48 90.82C607.47 91.39 609.14 90.91 609.57 90.21ZM618.57 90.53C618.37 90 619.5 85.9 621.84 78.62C622.54 76.46 623.23 75.8 623.98 76.56C624.4 76.97 622.6 83.99 620.77 89.13C620.13 90.92 619 91.65 618.57 90.53ZM763.32 90.82C763.17 90.68 763.05 89.09 763.05 87.3L763.05 84.05L761.88 84.05C760.35 84.05 760.32 83.01 761.81 81.58C763.08 80.35 764.99 80.14 765.03 81.21C765.2 85.66 765 90.04 764.6 90.51C764.09 91.13 763.72 91.22 763.32 90.82ZM187.51 90.43C187.36 90.29 187.25 87.81 187.25 84.93L187.25 79.69L188.32 79.82L189.4 79.94L189.51 84.77C189.58 88 189.47 89.78 189.16 90.15C188.68 90.73 187.93 90.86 187.51 90.43ZM191.81 90.43C191.66 90.29 191.55 87.82 191.55 84.96L191.55 79.75L192.48 79.75C193 79.75 193.52 80.02 193.65 80.36C194.11 81.55 193.91 89.73 193.42 90.22C192.9 90.74 192.21 90.83 191.81 90.43ZM211.4 89.83C209.43 88.69 208.35 86.15 208.35 82.6C208.35 80.37 208.52 79.68 209.37 78.43C211.64 75.09 217.36 74.91 219.63 78.1C220.67 79.56 220.68 80 219.71 80.52C219.09 80.85 218.7 80.71 217.64 79.78C216.92 79.14 215.87 78.51 215.31 78.37C213.96 78.03 211.72 79.11 211.15 80.37C210.52 81.75 210.59 84.66 211.29 86.01C211.9 87.19 213.66 88.35 214.84 88.35C215.83 88.35 218.06 86.84 218.33 85.98C218.62 85.07 220.39 84.93 220.72 85.79C221.03 86.61 219.41 89.07 217.97 89.95C216.3 90.97 213.27 90.92 211.4 89.83ZM231.26 90.07C231.13 89.73 231.03 86.47 231.03 82.83C231.03 77.05 231.11 76.17 231.67 75.96C232.94 75.47 233.56 76.38 233.68 78.91L233.8 81.31L236.89 81.31C238.78 81.31 240.08 81.14 240.25 80.86C240.4 80.61 240.56 79.51 240.61 78.42C240.72 75.68 240.67 75.77 241.87 75.91L242.95 76.03L243.06 82.92C243.15 88.85 243.08 89.87 242.54 90.32C242.08 90.7 241.73 90.73 241.26 90.43C240.76 90.11 240.6 89.42 240.6 87.52C240.6 86.15 240.46 84.8 240.28 84.53C240.08 84.21 238.92 84.05 236.87 84.05L233.76 84.05L233.76 86.61C233.76 88.02 233.58 89.52 233.36 89.93C232.87 90.85 231.59 90.93 231.26 90.07ZM257.02 90.23C254.37 88.77 253.2 86.51 253.2 82.81C253.19 78.63 255.07 76.28 258.71 75.93C261.26 75.69 263.26 76.39 264.45 77.96C265.64 79.51 265.67 79.98 264.6 80.55C263.9 80.93 263.6 80.81 262.53 79.78C261.46 78.74 261 78.57 259.25 78.57C257.36 78.57 257.15 78.67 256.43 79.84C254.82 82.49 255.82 87.05 258.22 87.96C259.96 88.62 260.78 88.39 262.39 86.78C264 85.17 265.29 84.78 265.67 85.79C265.99 86.63 264.43 88.96 262.92 89.89C261.48 90.78 258.34 90.96 257.02 90.23ZM271.49 90.23C268.08 88.35 266.43 83.65 267.94 80.09C268.86 77.89 270.96 76.17 272.99 75.94C275.48 75.66 277.32 76.09 278.75 77.29C280.18 78.5 281.45 81.21 281.45 83.05C281.45 85.67 279.47 88.89 277.08 90.14C275.83 90.79 272.59 90.85 271.49 90.23ZM286.26 89.79C284.5 88.58 283.35 85.91 283.28 82.82C283.22 80.63 283.37 80.05 284.31 78.61C285.59 76.69 287.29 75.84 289.87 75.84C292.03 75.84 293.47 76.53 294.65 78.13C295.73 79.59 295.74 79.99 294.76 80.52C294.14 80.85 293.75 80.71 292.66 79.75C291.32 78.57 289.18 78.18 287.53 78.82C285.75 79.5 285.15 84.03 286.54 86.3C288.05 88.78 290.37 88.97 292.44 86.78C293.95 85.2 295.38 84.76 295.76 85.77C296.1 86.66 294.86 88.63 293.28 89.7C291.35 91.01 288.11 91.05 286.26 89.79ZM298.3 89.97C297.92 89.26 297.77 77.84 298.13 76.52C298.34 75.73 299.45 75.62 300.14 76.31C300.4 76.56 300.61 77.77 300.61 79L300.61 81.22L303.44 81.4C307.1 81.63 307.82 81.13 307.54 78.57C307.43 77.61 307.43 76.59 307.53 76.32C307.75 75.74 309.45 75.67 309.8 76.24C309.94 76.46 310.05 79.56 310.05 83.13C310.06 88.4 309.95 89.73 309.47 90.21C308.3 91.38 307.65 90.52 307.65 87.8C307.65 84 307.69 84.05 303.89 84.05L300.61 84.05L300.61 86.9C300.61 89.7 300.24 90.69 299.18 90.69C298.9 90.69 298.51 90.37 298.3 89.97ZM143.04 89.75C143.4 89.32 143.28 89.04 142.45 88.39C141.2 87.4 141.14 87.4 140.03 88.17C139.07 88.84 138.89 89.73 139.65 90.04C140.66 90.45 142.6 90.28 143.04 89.75ZM627.92 89.65C627.65 88.95 628.34 87.51 631.38 82.45C632.47 80.64 633.81 78.37 634.36 77.4C636.02 74.47 636.17 74.27 636.85 74.27C637.44 74.27 638.08 75.2 640.9 80.13C641.33 80.89 642.71 83.22 643.97 85.32C645.85 88.46 646.17 89.24 645.78 89.72C645.38 90.2 643.82 90.3 636.73 90.3C629.12 90.3 628.14 90.23 627.92 89.65ZM721.35 90.03C720.53 89.73 718.81 87.15 718.05 85.09C716.61 81.14 717.52 75.55 720.07 72.76C721.97 70.67 723.27 71.53 721.68 73.82C720.65 75.31 719.66 78.63 719.67 80.6C719.67 82.6 720.53 85.62 721.62 87.46C722.72 89.32 722.6 90.48 721.35 90.03ZM800.58 89.47C800.58 89.01 801.11 87.56 801.76 86.24C803.3 83.12 803.6 80.53 802.76 77.64C802.41 76.42 801.77 74.85 801.35 74.16C800.62 72.97 800.33 71.54 800.8 71.54C802.86 71.54 805.66 76.87 805.66 80.78C805.66 83.34 804.4 86.69 802.65 88.72C801.14 90.49 800.58 90.69 800.58 89.47ZM742.36 88.32C742.8 87.88 743.1 87.31 743.01 87.05C742.8 86.42 741.01 85.82 740.23 86.12C739.6 86.37 739.34 88.34 739.86 88.87C740.37 89.38 741.57 89.12 742.36 88.32ZM796.89 88.32C797.9 87.2 797.23 86.2 795.46 86.2C794.37 86.2 794.11 86.36 794 87.1C793.74 88.99 795.58 89.77 796.89 88.32ZM522.29 88.13C525.5 86.47 525.91 81.13 522.96 79.49C521.41 78.63 518.54 78.83 517.32 79.89C516.35 80.72 516.24 81.06 516.24 83.37C516.24 86.15 516.58 86.81 518.54 88.02C519.97 88.89 520.77 88.92 522.29 88.13ZM598.39 87.96C599.86 87.06 601.21 85.04 601.22 83.74C601.22 81.94 599.78 79.88 598.04 79.18C596.49 78.56 596.27 78.56 594.67 79.18C592.74 79.91 592.23 80.81 592.23 83.46C592.23 85.83 592.78 87.04 594.27 87.95C595.88 88.94 596.78 88.94 598.39 87.96ZM642.59 88.23C642.9 87.85 642.8 87.37 642.19 86.37C641.73 85.63 640.93 84.23 640.4 83.26C639.88 82.3 638.98 80.64 638.4 79.58C637.83 78.52 637.16 77.59 636.91 77.51C636.42 77.34 630.93 87.04 630.93 88.08C630.93 88.66 631.54 88.74 636.55 88.74C640.69 88.74 642.28 88.6 642.59 88.23ZM276.62 87.23C278.66 85.75 279.43 83.62 278.67 81.52C277.92 79.44 276.52 78.57 273.93 78.57C271.43 78.57 270.78 79.1 270.08 81.71C269.67 83.28 269.7 83.69 270.43 85.34C271.03 86.68 271.61 87.35 272.54 87.76C274.38 88.55 274.89 88.49 276.62 87.23ZM726.68 85.51C724.99 84.37 723.48 81.4 723.28 78.84C723.15 77.08 723.3 76.53 724.42 74.69C725.37 73.15 726.1 72.44 727.09 72.08C730.09 71.01 733.26 71.68 734.86 73.71C735.82 74.93 735.82 75.75 734.84 76.36C734.32 76.69 733.87 76.48 732.6 75.33C730.88 73.78 730.26 73.63 728.28 74.33C724.36 75.69 725.69 84.05 729.83 84.05C731.16 84.05 732.9 82.94 733.54 81.69C734.23 80.37 734.74 80.25 735.74 81.16C736.41 81.77 736.39 81.87 735.27 83.51C734.62 84.45 733.58 85.48 732.96 85.8C731.23 86.7 728.24 86.56 726.68 85.51ZM746.42 85.89C746.31 85.61 746.27 82.32 746.33 78.56C746.43 72.18 746.49 71.73 747.2 71.6C748.33 71.38 748.98 72.61 748.98 74.93C748.98 76.08 749.11 77.02 749.27 77.04C751.23 77.27 754.45 77.23 755.14 76.97C755.93 76.67 756.02 76.37 756.02 74.06L756.02 71.48L757.09 71.61L758.17 71.73L758.27 78.62C758.36 84.37 758.28 85.58 757.79 85.99C756.56 87.01 756.06 86.19 755.94 82.99L755.82 79.94L752.4 79.83L748.98 79.72L748.98 82.3C748.98 83.72 748.8 85.22 748.58 85.63C748.12 86.49 746.71 86.65 746.42 85.89ZM781.22 86.02C779.86 85.47 777.58 82.61 777.3 81.12C776.32 75.91 778.62 72.04 782.94 71.63C785.54 71.38 786.6 71.69 788.32 73.2C790.92 75.48 791.57 79.1 789.97 82.4C788.46 85.53 784.28 87.26 781.22 86.02ZM46.4 84.19C46.25 84.04 46.13 83.49 46.13 82.98C46.13 82.18 46.29 82.06 47.2 82.16C48.06 82.26 48.28 82.49 48.28 83.26C48.28 83.95 48.04 84.27 47.48 84.36C47.04 84.42 46.56 84.34 46.4 84.19ZM122.35 83.26C122.35 82.28 122.51 82.09 123.3 82.09C123.82 82.09 124.32 82.31 124.42 82.58C124.7 83.37 123.95 84.44 123.12 84.44C122.53 84.44 122.35 84.17 122.35 83.26ZM741.97 83.43C742.39 82.92 742.39 82.75 741.92 82.46C740.75 81.72 739.69 82.32 740.14 83.48C740.43 84.22 741.33 84.2 741.97 83.43ZM785.56 83.37C787.13 82.62 788.46 80.46 788.46 78.69C788.46 77.06 787.07 75.09 785.46 74.41C784.26 73.91 783.76 73.89 782.29 74.3C780.9 74.69 780.44 75.05 780.01 76.08C778.83 78.92 779.77 82.48 781.97 83.45C783.6 84.16 783.9 84.16 785.56 83.37ZM187.73 78.3C187.47 78.2 187.25 77.6 187.25 76.98C187.25 76.02 187.4 75.84 188.23 75.84C188.78 75.84 189.33 76.11 189.46 76.46C189.74 77.19 188.45 78.57 187.73 78.3ZM451.58 78.1C450.87 77.39 451.01 76.7 451.93 76.41C452.94 76.09 454.06 77.06 453.72 77.96C453.44 78.69 452.24 78.77 451.58 78.1ZM455.94 77.99C455.59 77.07 456.09 76.23 456.97 76.23C457.97 76.23 458.4 77.21 457.75 77.99C457.13 78.74 456.23 78.74 455.94 77.99ZM191.55 77.01C191.55 76.03 191.7 75.84 192.49 75.84C193.01 75.84 193.51 76.06 193.61 76.32C193.89 77.11 193.15 78.18 192.31 78.18C191.72 78.18 191.55 77.91 191.55 77.01ZM372.32 76.83C371.29 75.79 371.03 74.27 371.9 74.27C372.19 74.27 372.9 74.64 373.47 75.09C374.45 75.86 374.57 75.87 375.48 75.28C376.54 74.59 376.85 73.24 375.86 73.64C375.54 73.78 375.04 73.98 374.76 74.09C373.92 74.43 371.61 72.6 371.24 71.28C370.82 69.82 371.47 68.24 372.93 67.18C374.21 66.26 376.66 66.76 377.91 68.21C378.64 69.06 378.79 69.69 378.79 72C378.79 74.68 378.75 74.8 377.27 76.27C375.43 78.12 373.8 78.3 372.32 76.83ZM397.43 77.53C397.28 77.39 397.16 75.99 397.16 74.44C397.16 70.84 396.96 70.3 395.76 70.6C394.22 70.99 394.14 69.78 395.62 68.51C397.5 66.91 397.92 66.73 398.55 67.25C398.98 67.61 399.12 68.76 399.12 72.11C399.12 75.87 399.02 76.59 398.4 77.14C398.01 77.5 397.57 77.67 397.43 77.53ZM402.52 77.54C401.83 76.85 402.43 75.75 404.79 73.37C406.18 71.96 407.33 70.56 407.33 70.27C407.33 68.87 405.4 68.36 404.03 69.4C403.01 70.17 402.24 70.12 402.26 69.29C402.29 67.46 404.69 66.17 406.79 66.86C408.14 67.31 409.67 68.89 409.67 69.83C409.67 70.52 407.55 73.45 406.54 74.16C405.23 75.08 405.59 75.78 407.42 75.91C408.79 76.01 409.09 76.17 409.09 76.81C409.09 77.52 408.79 77.61 405.94 77.71C404.21 77.77 402.67 77.7 402.52 77.54ZM353.84 75.21C352.26 73.29 351.04 69.93 351.03 67.49C351.03 63.63 353.47 58.55 355.45 58.32C356.76 58.16 356.79 58.69 355.59 60.32C353.23 63.53 353.05 69.12 355.18 73.42C355.99 75.05 356.24 75.95 355.97 76.22C355.35 76.84 355.08 76.72 353.84 75.21ZM410.45 76.03C410.45 75.71 411.02 74.26 411.7 72.81C412.41 71.32 413.02 69.3 413.11 68.17C413.3 65.88 412.34 62.1 411.2 60.65C409.97 59.08 410.43 57.56 411.84 58.54C412.67 59.12 414.25 61.61 414.89 63.34C415.79 65.79 415.73 69.47 414.75 71.75C413.32 75.08 410.45 77.94 410.45 76.03ZM74.06 75.33C73.95 75.06 73.91 71.76 73.97 68L74.08 61.18L78.86 61.18C83.47 61.18 83.67 61.21 84.64 62.18C85.36 62.9 85.66 63.64 85.71 64.81C85.76 66.18 85.56 66.66 84.45 67.81C82.98 69.33 82.95 69.17 85.24 72.86C86.66 75.13 86.52 75.84 84.66 75.84C83.58 75.84 83.1 75.57 82.31 74.53C81.76 73.81 81.31 73.03 81.31 72.8C81.31 72.11 78.73 69.58 78.04 69.58C77.51 69.58 77.4 70.04 77.4 72.24C77.4 73.79 77.2 75.09 76.93 75.37C76.31 75.99 74.3 75.97 74.06 75.33ZM360.89 72.32C359.49 71.69 359.05 71.2 358.25 69.39C356.36 65.1 357.33 60.6 360.5 58.99C361.41 58.52 362.76 58.25 364.14 58.25C366.18 58.25 366.44 58.36 368.12 59.94L369.92 61.64L369.04 62.52L368.16 63.41L366.71 62C365.6 60.91 364.95 60.59 363.87 60.59C360.05 60.59 358.3 65.91 361.05 69.18C362.39 70.77 365.03 70.87 366.5 69.4C367.02 68.88 367.45 68.28 367.45 68.08C367.45 67.58 368.5 67.21 369.18 67.47C370.21 67.87 370.15 68.74 368.97 70.37C367.02 73.07 364.09 73.77 360.89 72.32ZM380.62 72.84C380.47 72.7 380.35 69.34 380.35 65.39L380.35 58.19L381.43 58.32C382.47 58.44 382.51 58.52 382.62 61.08C382.75 64.01 382.48 63.8 386.22 63.89C389.44 63.97 389.74 63.71 389.74 60.77L389.74 58.2L391.01 58.32L392.28 58.44L392.38 65.04C392.48 70.73 392.4 71.75 391.85 72.36C391.36 72.9 391.02 72.98 390.49 72.69C389.91 72.38 389.75 71.75 389.66 69.48L389.54 66.65L386.12 66.54L382.7 66.42L382.7 69.01C382.7 70.43 382.52 71.93 382.3 72.34C381.89 73.1 381.11 73.33 380.62 72.84ZM376.27 71.12C377.28 70 376.61 69 374.84 69C373.75 69 373.49 69.16 373.39 69.9C373.12 71.79 374.96 72.57 376.27 71.12ZM81.96 65.84C82.78 64.73 81.91 64.11 79.5 64.11C77.45 64.11 77.4 64.14 77.4 65.22C77.4 65.83 77.53 66.46 77.69 66.62C78.22 67.16 81.43 66.57 81.96 65.84ZM174.35 65.84C168.92 64.34 168.73 64.28 168.59 63.86C168.52 63.64 169.56 63.14 170.91 62.76C172.26 62.37 174.07 61.81 174.93 61.51C175.79 61.21 177.2 60.93 178.06 60.88C179.5 60.79 179.63 60.87 179.75 61.86L179.87 62.93L257.54 63.03C326.27 63.12 335.2 63.2 335.2 63.72C335.2 64.24 326.25 64.32 257.32 64.4C182.65 64.5 179.43 64.53 179.43 65.2C179.43 66 178.7 66.87 178.08 66.8C177.85 66.78 176.17 66.35 174.35 65.84ZM642.52 66.58C642.38 66.44 642.26 65.91 642.26 65.41L642.26 64.5L537.99 64.4C439.09 64.31 433.72 64.27 433.59 63.62C433.47 62.97 438.71 62.93 537.76 62.84L642.07 62.74L642.2 61.62C642.34 60.37 642.63 60.37 646.86 61.57C655.19 63.94 655.17 63.83 647.9 65.68C642.86 66.96 642.9 66.96 642.52 66.58ZM764.77 65.44C764.08 64.96 763.65 64.94 762.16 65.34C760.6 65.76 760.16 65.73 758.69 65.09C756.49 64.13 755.71 63.45 754.8 61.68C753.78 59.68 753.8 55.61 754.83 53.59C755.68 51.92 758.28 50.43 760.34 50.43C762.11 50.43 764.7 51.17 765.64 51.94C767.84 53.74 768.6 57.92 767.3 60.95C766.56 62.68 766.56 62.68 767.41 63.58C768.24 64.46 768.24 64.52 767.55 65.28C766.72 66.2 765.91 66.25 764.77 65.44ZM760.51 61.05C760.93 60.12 761.54 59.99 762.65 60.58C763.77 61.18 764.4 60.06 764.36 57.54C764.34 55.68 764.18 55.23 763.28 54.46C761.92 53.29 759.47 53.23 758.36 54.34C757.27 55.43 757.27 59.11 758.38 60.91C759.24 62.33 759.91 62.38 760.51 61.05ZM524.73 52.9C523.53 52.65 521.86 51 521.86 50.06C521.86 49.01 523.44 48.97 524.37 50C525.52 51.27 526.49 51.26 527.85 49.98L529.1 48.8L527.43 49.03C523.89 49.52 521.86 47.44 521.87 43.33C521.87 39.63 523.95 37.52 526.94 38.16C527.7 38.33 528.91 38.41 529.64 38.35C530.43 38.28 531.09 38.45 531.28 38.76C531.46 39.05 531.52 41.66 531.41 44.56L531.22 49.84L529.77 51.28C528.31 52.73 526.57 53.29 524.73 52.9ZM448.35 51.89C445.53 48.9 444.48 43.32 445.98 39.22C447.23 35.81 449.39 33.59 450.44 34.64C450.57 34.77 450.25 35.55 449.72 36.38C448.75 37.93 448.05 40.11 447.7 42.73C447.46 44.52 448.15 47.22 449.47 49.71C450.86 52.32 450.13 53.77 448.35 51.89ZM455.41 52.1C455.41 51.72 455.97 50.29 456.65 48.92C457.4 47.42 457.96 45.6 458.06 44.37C458.25 42.07 457.33 38.34 456.15 36.69C454.87 34.88 455.48 33.62 457.03 34.89C460.1 37.39 461.43 43.87 459.7 47.91C458.24 51.32 455.41 54.08 455.41 52.1ZM489.77 50.95C488.43 49.01 487.07 45.2 487.07 43.4C487.07 41.09 489.39 35.61 490.75 34.7C491.4 34.26 492.55 34.34 492.55 34.83C492.55 35.06 492.21 35.72 491.81 36.29C490.79 37.72 489.81 41.21 489.81 43.36C489.82 45.46 490.66 48.45 491.79 50.36C493.44 53.15 491.65 53.68 489.77 50.95ZM560.56 52C560.56 51.58 561.14 50.13 561.83 48.78C562.97 46.58 563.1 45.99 563.09 43.1C563.08 41.12 562.9 39.7 562.6 39.41C562.34 39.15 562.12 38.66 562.12 38.33C562.11 38 561.77 37.28 561.35 36.75C560.35 35.47 560.34 34.4 561.33 34.4C563.03 34.4 565.65 39.86 565.65 43.4C565.64 46.43 563.79 50.94 562.04 52.16C560.89 52.97 560.56 52.93 560.56 52ZM378.27 51.73C378.13 51.59 378.01 48.24 378.01 44.3L378.01 37.14L381.74 37.14C386.01 37.14 387.42 37.65 388.4 39.55C390.15 42.94 387.19 46.91 382.91 46.91L381.53 46.91L381.53 48.8C381.53 50.14 381.32 50.89 380.81 51.34C380.09 52 378.74 52.2 378.27 51.73ZM451.97 48.79C451.65 48.47 451.5 46.68 451.5 43.29L451.5 38.26L452.57 38.38L453.65 38.5L453.76 43.34C453.83 46.56 453.72 48.35 453.42 48.71C452.87 49.38 452.58 49.39 451.97 48.79ZM468.18 48.99C467.63 48.44 467.98 47.49 469.89 44.38L471.86 41.16L470.08 38.16C469.11 36.51 468.31 34.98 468.31 34.76C468.31 34.52 469.08 34.41 470.16 34.48C471.84 34.59 472.08 34.73 472.84 36.09L473.68 37.59L474.41 36.62C474.82 36.09 475.33 35.37 475.54 35.03C476.08 34.17 478.11 33.84 478.96 34.47C479.59 34.95 479.51 35.19 477.89 37.72C476.93 39.23 476.14 40.7 476.14 40.99C476.13 41.28 477.02 43.01 478.12 44.82C480.28 48.39 480.27 49.25 478.09 49.25C476.93 49.25 476.18 48.57 475.19 46.62C474.4 45.06 473.62 45 472.74 46.42C471.51 48.41 470.53 49.25 469.48 49.25C468.91 49.25 468.32 49.14 468.18 48.99ZM494.37 48.99C494.23 48.85 494.11 46.41 494.11 43.58L494.11 38.42L496.29 38.19C497.49 38.07 498.72 38.06 499.03 38.18C500.16 38.61 499.3 40.26 497.95 40.26C496.85 40.26 496.45 41.54 496.45 45.05C496.45 48.22 496.12 49.25 495.07 49.25C494.83 49.25 494.51 49.14 494.37 48.99ZM502.43 48.37C500.81 47.23 500.36 46.18 500.36 43.55C500.36 39.71 502.38 37.58 505.53 38.08C508.26 38.52 509.75 40.09 509.75 42.55C509.75 44.24 509.1 44.56 505.76 44.56C502.54 44.56 501.96 44.97 503.39 46.2C504.68 47.31 505.44 47.34 506.46 46.32C507.48 45.3 509.35 44.99 509.35 45.84C509.35 46.67 508.21 48.05 507 48.67C505.41 49.5 503.88 49.4 502.43 48.37ZM513.07 48.8C511.8 48.11 511.31 47.24 511.31 45.72C511.31 43.82 513.35 42.22 515.78 42.22C516.8 42.22 517.76 41.29 517.38 40.67C516.95 39.97 514.6 40.22 513.5 41.08C512.27 42.05 511.2 41.8 511.38 40.6C511.61 39.04 513.44 38.11 516.09 38.18C519.71 38.29 520.17 38.95 520.39 44.28C520.58 48.99 520.34 49.61 518.57 48.8C517.76 48.44 517.24 48.43 516.25 48.79C514.69 49.36 514.08 49.36 513.07 48.8ZM535.51 48.36C533.78 47.19 533.21 45.99 533.21 43.45C533.2 40.95 534.04 39.34 535.78 38.51C537.33 37.78 538.33 37.76 539.97 38.45C541.57 39.12 542.58 40.62 542.58 42.32C542.58 44.23 542.02 44.56 538.79 44.56C535.62 44.56 535.24 44.95 536.88 46.48C537.87 47.42 538.74 47.27 539.83 45.95C540.37 45.3 542.01 45.13 542.36 45.69C542.67 46.19 541.13 48 539.83 48.68C538.26 49.49 537.05 49.4 535.51 48.36ZM545.57 48.95C545.46 48.78 545.33 46.36 545.28 43.57L545.18 38.5L547.89 38.26C550.91 37.99 552.8 38.51 553.5 39.81C553.73 40.25 553.92 42.26 553.92 44.28C553.92 47.48 553.81 48.05 553.13 48.68C551.83 49.85 551.4 48.91 551.18 44.45C550.97 40.14 550.8 39.88 548.61 40.43C547.69 40.66 547.66 40.78 547.66 44.32C547.66 47.35 547.54 48.07 546.95 48.61C546.15 49.33 545.85 49.4 545.57 48.95ZM557.13 48.65C556.34 48.09 556.26 47.72 556.26 44.41C556.26 41.27 556.16 40.68 555.48 40.07C555.05 39.68 554.7 39.21 554.7 39.03C554.7 38.85 555.05 38.35 555.48 37.92C555.91 37.49 556.26 36.7 556.26 36.16C556.26 35.33 556.45 35.18 557.44 35.18C558.51 35.18 558.61 35.3 558.61 36.49C558.61 37.53 558.82 37.89 559.68 38.28L560.76 38.77L559.68 39.69C558.69 40.55 558.61 40.84 558.61 43.56C558.61 46.26 558.69 46.55 559.58 47.14C560.36 47.65 560.47 47.91 560.15 48.51C559.67 49.41 558.31 49.47 557.13 48.65ZM259.07 48.57C256.64 48.33 256.98 47.42 261.26 42.89C262.73 41.34 262.78 40.55 261.45 39.83C260.87 39.53 260.44 39.58 259.7 40.07C257.84 41.29 256.82 39.85 258.46 38.32C260.05 36.85 263.88 37.65 264.39 39.56C264.85 41.25 264.64 41.77 262.69 43.9C261.62 45.08 260.74 46.15 260.74 46.28C260.74 46.41 261.42 46.52 262.25 46.52C263.94 46.52 264.99 47.32 264.16 47.98C263.54 48.47 260.99 48.77 259.07 48.57ZM183.64 46.54C180.25 42.58 180.14 35.08 183.42 31.11C185.24 28.89 187.07 29.46 185.37 31.71C184.23 33.21 183.53 35.96 183.54 38.9C183.55 41.17 183.77 42.11 184.85 44.43C186.05 47 186.18 48.08 185.3 48.08C185.11 48.08 184.37 47.39 183.64 46.54ZM191.15 47.26C191.15 46.8 191.58 45.61 192.1 44.62C193.36 42.19 193.89 40.44 193.89 38.74C193.88 36.99 192.97 33.91 191.93 32.16C191.03 30.63 190.93 29.71 191.67 29.71C193.16 29.71 195.64 34 196.21 37.56C196.69 40.58 195.41 44.26 192.99 46.81C191.58 48.29 191.15 48.4 191.15 47.26ZM516.75 46.29C518.34 44.95 518.27 44.56 516.42 44.56C513.7 44.56 513.04 45.19 514.3 46.59C515.14 47.51 515.32 47.49 516.75 46.29ZM528.29 45.65C529.79 43.51 528.49 40.26 526.14 40.26C524.68 40.26 524.05 41.62 524.33 44.16C524.67 47.22 526.67 47.97 528.29 45.65ZM187.7 44.21C187.35 44 187.25 42.49 187.33 38.67L187.44 33.42L188.42 33.42L189.4 33.42L189.5 38.58C189.6 43.25 189.54 43.78 188.9 44.13C188.5 44.34 187.96 44.38 187.7 44.21ZM204.93 44.28C204.57 44.15 204.45 42.31 204.45 36.9C204.45 30.73 204.53 29.65 205.05 29.45C206.24 29 207.22 29.95 210.25 34.5C211.93 37.03 213.42 38.97 213.57 38.83C213.71 38.69 213.83 36.77 213.83 34.56C213.83 32.36 213.93 30.28 214.06 29.94C214.37 29.15 215.16 29.15 215.95 29.93C216.46 30.44 216.56 31.63 216.56 36.73C216.56 42.12 216.47 43.03 215.86 43.79C215.37 44.39 214.91 44.58 214.39 44.41C213.97 44.28 212.24 42.05 210.55 39.48C208.85 36.9 207.31 34.79 207.13 34.79C206.94 34.79 206.79 36.7 206.79 39.03C206.79 42.58 206.68 43.37 206.11 43.87C205.73 44.19 205.2 44.38 204.93 44.28ZM219.34 43.43C217.93 42.11 217.67 40 218.81 39C219.44 38.45 220.07 38.21 223.4 37.26C225.25 36.73 224.9 35.79 222.8 35.65C221.41 35.56 220.86 35.71 220.29 36.34C219.24 37.5 218.52 37.35 218.52 35.96C218.52 33.4 223.67 32.19 226.14 34.17C227.29 35.09 227.32 35.17 227.45 39.32C227.57 42.96 227.49 43.61 226.91 44.03C226.37 44.43 226.08 44.41 225.34 43.93C224.54 43.4 224.32 43.4 223.26 43.95C221.56 44.83 220.72 44.72 219.34 43.43ZM229.9 43.68C229.44 42.44 229.69 30.11 230.18 29.62C231.18 28.62 232.44 29.75 235.49 34.4C237.19 37 238.72 38.98 238.89 38.81C239.07 38.63 239.26 36.47 239.32 34L239.43 29.51L240.41 29.51L241.39 29.51L241.49 36.59C241.58 42.45 241.5 43.75 241.02 44.15C239.95 45.04 239.01 44.18 235.93 39.48C234.24 36.9 232.71 34.79 232.53 34.79C232.35 34.79 232.2 36.7 232.2 39.03C232.2 42.64 232.09 43.37 231.49 43.92C230.54 44.77 230.29 44.73 229.9 43.68ZM244.31 43.56C243.9 42.48 243.77 30.95 244.16 29.94C244.45 29.2 245.53 29.13 246.19 29.79C246.46 30.05 246.66 31.32 246.66 32.72L246.66 35.18L249.74 35.18C253.43 35.18 253.91 34.82 253.54 32.34C253.22 30.25 254.02 28.87 255.14 29.56C255.77 29.94 255.86 30.71 255.96 36.62C256.06 42.88 256.02 43.29 255.26 43.98C254.06 45.07 253.53 44.22 253.44 41.04C253.4 39.54 253.25 38.14 253.12 37.92C252.98 37.71 251.48 37.53 249.77 37.53L246.66 37.53L246.66 40.4C246.66 42.68 246.52 43.4 245.95 43.92C244.99 44.79 244.76 44.74 244.31 43.56ZM384.72 43.13C386.23 41.77 385.33 40.26 383.01 40.26C381.55 40.26 381.53 40.29 381.53 41.76C381.53 42.59 381.64 43.38 381.79 43.52C382.28 44.01 384.01 43.78 384.72 43.13ZM223.96 41.27C225.42 39.73 224.12 38.9 221.86 39.94C220.92 40.36 220.55 41.38 221.12 41.96C221.69 42.52 223.12 42.17 223.96 41.27ZM506.82 41.81C507.31 41.02 506.15 40.22 504.7 40.34C503.58 40.43 503.27 40.64 503.17 41.34C503.06 42.14 503.2 42.22 504.81 42.22C505.78 42.22 506.69 42.03 506.82 41.81ZM539.98 41.96C540.12 41.81 539.95 41.37 539.59 40.98C538.47 39.74 535.94 40.25 535.94 41.71C535.94 42.25 539.47 42.46 539.98 41.96ZM451.76 36.48C451.62 36.34 451.5 35.81 451.5 35.31C451.5 34.6 451.71 34.4 452.49 34.4C453.03 34.4 453.58 34.67 453.71 34.99C454.11 36.05 452.53 37.26 451.76 36.48ZM187.73 31.78C187.03 31.52 187.13 29.73 187.86 29.45C188.2 29.32 188.77 29.5 189.12 29.85C189.71 30.45 189.71 30.55 188.99 31.23C188.57 31.63 188 31.88 187.73 31.78Z" fill="#1e2749" fill-rule="evenodd"/>
</svg>
