<?xml version="1.0" encoding="UTF-8"?>
<svg xmlns="http://www.w3.org/2000/svg" viewBox="0 0 1628 714.84" width="1628" height="714.84" shape-rendering="geometricPrecision">
<path d="M855.25 696.28C853.43 695.22 853.65 693.47 855.82 691.76L857.69 690.29L857.49 674.66L857.29 659.04L855.44 658.6C854.31 658.34 853.5 657.57 853.36 656.62C852.9 653.42 860.59 650.69 864.37 652.71C865.73 653.43 865.8 654.44 865.8 672.25L865.8 691.04L867.84 692.58L869.87 694.12L868.12 695.6C866.75 696.76 865.32 697.08 861.46 697.06C858.76 697.05 855.97 696.7 855.25 696.28ZM888.67 696.47C881.34 693.34 877.01 681.99 878.4 669.58C879.23 662.16 880.91 658.03 884.45 654.73C889.63 649.91 895.47 650.31 900.19 655.82C905.59 662.13 907.26 672.67 904.56 683.42C902.32 692.35 894.35 698.9 888.67 696.47ZM936.1 696.58C933.87 695.65 930.51 692.35 928.88 689.5C927.51 687.08 927.22 685.45 927.22 680.1C927.22 674.12 927.39 673.39 929.37 670.65C935.34 662.41 944.37 661.55 949.82 668.7C952.04 671.6 951.87 674.31 949.4 675.63C947.41 676.7 945.83 675.71 943.86 672.19C942.19 669.21 940.85 668.54 937.97 669.26C936.16 669.71 933.88 674.22 933.88 677.35C933.88 680.03 936.15 686.18 937.81 688.01C940.04 690.48 943.99 690.26 947.23 687.49C950.24 684.92 950.69 684.81 951.09 686.53C951.5 688.36 949.98 691.12 946.93 694.04C944.84 696.05 943.62 696.6 940.77 696.8C938.81 696.93 936.71 696.83 936.1 696.58ZM956.63 696.28C954.94 695.29 955 693.68 956.82 691.36C958.09 689.74 958.3 688.36 958.3 681.49C958.3 673.86 958.22 673.44 956.45 672.05C953.87 670.03 954.08 667.77 957 665.99C960.09 664.11 962.05 664.14 964.55 666.1C966.54 667.67 966.56 667.67 968.53 666.23C969.62 665.44 971.14 664.56 971.9 664.27C974.12 663.44 978.14 664.53 979.95 666.44C980.86 667.4 981.89 668.2 982.23 668.21C982.57 668.21 984.3 667.18 986.08 665.9C988.86 663.91 989.75 663.64 992.42 663.99C994.53 664.28 996.25 665.13 997.78 666.66C1000.37 669.25 1001.05 672.89 1001.16 684.59C1001.21 691.1 1001.36 691.82 1002.88 692.9L1004.55 694.08L1002.8 695.58C1000.85 697.25 994.13 697.69 991.55 696.31C989.69 695.32 989.72 692.91 991.6 691.9C992.97 691.17 993.08 690.35 993.08 680.8C993.08 671.37 992.96 670.43 991.65 669.73C989.34 668.49 987.92 668.82 985.62 671.12C983.48 673.27 983.46 673.36 983.46 681.99C983.46 690 983.59 690.84 985.12 692.47L986.79 694.25L985.04 695.66C983.81 696.66 982.14 697.08 979.39 697.08C976.64 697.08 974.97 696.66 973.74 695.66L971.99 694.25L973.84 692.27C975.51 690.5 975.72 689.58 975.94 683.1C976.27 673.58 975.32 669.98 972.3 669.32C970.64 668.95 969.64 669.18 968.53 670.18C965.66 672.79 965.03 675.1 965.06 683.01C965.08 689.94 965.23 690.76 966.79 692.32C968.33 693.86 968.39 694.17 967.43 695.55C966.55 696.8 965.58 697.08 962.14 697.06C959.83 697.05 957.35 696.7 956.63 696.28ZM893.7 690.24C896.4 687.26 897.1 685.04 897.46 678.14C897.95 668.77 897.14 662.16 895.13 659.19C890.36 652.1 886.26 659.25 886.36 674.51C886.42 684.38 888.52 691.9 891.22 691.9C891.75 691.9 892.86 691.15 893.7 690.24ZM22.66 683.12C21.49 681.82 21.41 660.44 21.4 349.72C21.4 167.12 21.6 17.39 21.84 17C22.54 15.87 25.62 16.16 26.7 17.46C27.49 18.42 27.69 28.24 27.72 68.71C27.73 96.24 28.02 119.19 28.35 119.69C28.82 120.43 56.23 120.62 161.32 120.62C238.92 120.62 293.86 120.34 294.1 119.95C294.33 119.59 291.97 116.84 288.85 113.85C269.91 95.68 257.52 83.05 257.52 81.93C257.52 80.73 260.06 80.66 299.08 80.84C331.99 80.99 340.71 81.23 340.96 81.97C341.13 82.49 339.99 84.16 338.42 85.67C317.6 105.78 304.18 119.34 304.53 119.91C304.81 120.36 359.89 120.62 454.01 120.62C595.2 120.62 603.08 120.55 603.72 119.33C604.12 118.57 604.36 97.64 604.29 69.56C604.24 42.9 604.37 20.09 604.6 18.87C604.93 17.05 605.41 16.61 607.26 16.43C608.54 16.3 609.89 16.65 610.37 17.24C611 17.99 611.28 32.22 611.42 70.33L611.61 122.4L615.05 123.63C616.95 124.31 618.91 124.61 619.41 124.3C620.71 123.5 637.05 123.57 637.55 124.38C637.8 124.79 638.53 124.77 639.36 124.32C641.06 123.41 646.02 123.37 647.42 124.26C648.88 125.18 647.91 127.16 645.57 128.05C643.35 128.89 641.39 128.47 639.7 126.78C638.68 125.76 638.41 125.75 637.29 126.74C635.14 128.63 632.92 128.91 630.42 127.62C628.23 126.48 627.92 126.49 625.6 127.74C623.17 129.05 623.08 129.04 620.91 127.43L618.69 125.79L616.26 127.27C614.92 128.09 613.25 128.76 612.54 128.76C611.32 128.76 611.25 137.59 611.27 298.86C611.29 442.34 611.46 469.17 612.32 470.35C613.31 471.7 615.46 471.75 675.97 471.81C732.55 471.86 738.66 471.76 739.23 470.69C739.68 469.86 738.35 466.46 734.75 459.19C731.94 453.52 729.64 448.28 729.64 447.55C729.64 445.47 732.47 445.94 737.01 448.77C739.24 450.16 741.32 451.13 741.64 450.93C741.96 450.73 742.22 444.81 742.22 437.76C742.22 422.47 742.55 420.15 744.68 420.47C746.98 420.81 747.47 423.88 747.34 436.97C747.27 443.48 747.26 449.23 747.31 449.74C747.45 451.2 749 450.82 752.58 448.44C756.22 446.02 757.89 445.7 759.13 447.2C759.74 447.94 759.06 449.9 756.33 455.23C750.53 466.55 749.26 469.84 750.29 470.86C750.97 471.54 782.23 471.76 885.12 471.81L1019.07 471.87L1020.14 470.35C1021.05 469.04 1021.2 453.28 1021.2 358.33L1021.2 247.82L1018.79 246.83C1017.07 246.12 1013.56 245.91 1006.43 246.09C1000.4 246.24 996.1 246.04 995.56 245.59C994.97 245.1 994.19 245.09 993.31 245.55C992.57 245.94 988.14 246.14 983.46 245.99C978.78 245.84 974.45 245.71 973.84 245.7C973.23 245.69 971.14 245.88 969.2 246.13C967.09 246.39 965.28 246.25 964.7 245.77C964.01 245.2 963.08 245.22 961.4 245.85C959.64 246.52 958.31 246.53 955.93 245.9C954.21 245.44 952.29 245.32 951.66 245.64C951.04 245.96 944.54 246.12 937.21 245.98C929.88 245.85 923.22 245.74 922.41 245.74C915.68 245.76 862.22 245.71 861.36 245.68C860.75 245.66 858.97 245.86 857.41 246.12C855.65 246.42 853.9 246.24 852.82 245.66C851.42 244.91 850.63 244.91 848.83 245.66C847.53 246.2 845.56 246.39 844.17 246.11C842.84 245.84 841.25 245.64 840.64 245.67C840.03 245.7 810.39 245.83 774.78 245.96C733.78 246.11 709.69 245.93 709.11 245.48C708.6 245.08 708.18 244.01 708.18 243.09L708.18 241.43L745.59 241.45C779.55 241.47 783.12 241.36 784.24 240.24C785.39 239.09 785.07 238.21 779.39 226.96C776.04 220.34 773.3 214.35 773.3 213.65C773.3 211.62 776.7 212.1 780.42 214.66C786.06 218.54 785.88 219.55 785.88 184.6C785.88 167.79 785.68 153.51 785.43 152.87C784.79 151.2 784.08 151.38 779.76 154.29C777.64 155.71 775.36 156.88 774.68 156.88C771.86 156.88 772.6 154.22 778.87 141.87C784.85 130.1 785.16 129.26 784.01 128C783.34 127.26 782.91 126.04 783.05 125.3C783.39 123.48 789.61 122.97 791.27 124.63C792.28 125.64 792.49 125.64 793.35 124.61C794.08 123.73 795.2 123.55 798.05 123.86C800.11 124.08 802.21 124.25 802.72 124.23C803.92 124.2 831.48 124.2 832.68 124.23C833.19 124.25 835.27 124.1 837.31 123.9C841.41 123.5 843.31 124.29 842.62 126.11C841.59 128.77 835.49 128.98 833.9 126.41C833.59 125.91 832.58 126.24 831.13 127.32C828.86 128.99 828.82 128.99 825.86 127.66C822.98 126.36 822.78 126.36 820.4 127.64C818.09 128.89 817.76 128.9 815.52 127.78C813.37 126.71 812.83 126.7 810.52 127.67C807.7 128.84 804.7 128.46 803.78 126.81C803.29 125.94 802.69 126.04 800.23 127.39C797.39 128.94 797.16 128.96 794.79 127.78C791.65 126.21 791.8 126.16 791.8 128.73C791.8 129.98 794.18 135.64 797.35 141.94C800.4 148 802.9 153.47 802.9 154.09C802.9 154.71 802.41 155.63 801.8 156.13C800.92 156.87 800.08 156.67 797.4 155.1C795.58 154.03 793.89 152.83 793.64 152.43C793.4 152.03 792.71 151.7 792.13 151.7C791.21 151.7 791.06 156.35 791.06 183.85C791.06 203.6 791.33 216.16 791.77 216.43C792.16 216.67 793.88 215.86 795.58 214.63C799.26 211.96 802.9 211.58 802.9 213.87C802.9 214.69 800.4 220.35 797.35 226.44C794.3 232.53 791.8 238.36 791.8 239.38C791.8 241.12 792.04 241.24 795.68 241.3C797.82 241.33 841.86 241.31 893.55 241.24C1004.55 241.11 988.47 241.1 1004.31 241.31C1015.53 241.46 1017.66 241.31 1019.29 240.24L1021.2 238.99L1021.2 188.74C1021.2 144.04 1021.33 138.36 1022.36 137.32C1023.83 135.86 1024.88 135.86 1026.96 137.31L1028.6 138.46L1028.6 188.42C1028.6 221.44 1028.86 238.86 1029.37 239.81C1030.12 241.22 1032.38 241.24 1161.74 241.24C1277.24 241.24 1293.45 241.11 1294.25 240.14C1295.02 239.22 1292.23 236.01 1276.9 220.17C1264.6 207.46 1258.71 200.87 1258.88 199.99C1259.12 198.77 1261.57 198.69 1300.18 198.69C1339.47 198.69 1341.24 198.75 1341.49 200.05C1341.67 201 1338.47 204.74 1331.03 212.26C1313.67 229.82 1305.4 238.59 1305.38 239.5C1305.37 239.96 1305.89 240.54 1306.53 240.79C1307.17 241.04 1374.06 241.24 1455.16 241.24C1597.39 241.24 1602.65 241.19 1603.84 239.88C1604.96 238.64 1605.07 234.66 1605.01 195.66C1604.91 132.51 1604.76 137.75 1606.75 136.84C1607.91 136.31 1609.06 136.31 1610.45 136.84L1612.46 137.6L1612.46 408.87L1612.46 680.14L1610.06 681.06C1608.15 681.79 1547.55 681.96 1315.91 681.88C1035.1 681.78 1024.12 681.73 1022.69 680.44C1021.26 679.14 1021.2 678.18 1021.2 655.67C1021.2 638.45 1020.97 632.02 1020.31 631.37C1019.63 630.69 997.67 630.48 925.96 630.48C842.46 630.48 832.5 630.6 832.5 631.61C832.5 632.24 835.21 638.12 838.53 644.67C843.2 653.89 844.39 656.87 843.81 657.78C842.72 659.49 840.15 658.86 836.33 655.94C834.51 654.55 832.74 653.42 832.39 653.42C832.05 653.42 831.76 658.36 831.76 664.41C831.76 674.42 831.63 675.51 830.29 676.72C829.09 677.8 828.62 677.87 827.7 677.11C826.79 676.36 826.58 674.15 826.58 665.52C826.58 653.66 826.08 652.5 822.27 655.53C817.25 659.53 814 660.18 814 657.18C814 656.38 816.69 650.34 819.99 643.76C823.5 636.74 825.7 631.52 825.31 631.14C824.93 630.75 779.91 630.55 718.13 630.66L611.61 630.85L611.24 656.45C610.95 676.64 610.66 682.31 609.85 683.28C608.91 684.41 587.41 684.5 316.37 684.5C31.73 684.5 23.88 684.46 22.66 683.12ZM603.49 675.35C604.29 674.25 604.49 668.95 604.49 649.16C604.48 629.41 604.68 624.21 605.45 623.72C605.99 623.38 700.87 623.1 816.29 623.09C1018.01 623.08 1026.2 623.13 1027.36 624.42C1028.43 625.6 1028.6 628.73 1028.77 649.77L1028.97 673.77L1316.25 673.96C1589.28 674.13 1603.56 674.08 1604.22 672.85C1604.65 672.05 1604.93 590.5 1604.96 461.23C1604.99 278.73 1604.86 250.76 1603.93 249.84C1603 248.91 1565.32 248.78 1315.92 248.89L1028.97 249.01L1028.83 362.6L1028.68 476.19L1026.74 477.86L1024.81 479.53L815.37 479.34C621.83 479.16 605.87 479.06 605.05 477.93C604.36 476.99 604.18 437.62 604.27 303.55C604.34 208.31 604.11 129.94 603.77 129.39C603.25 128.55 556.52 128.37 316.56 128.28C158.94 128.21 29.47 128.44 28.86 128.78C27.88 129.33 27.74 160.45 27.62 401.21C27.55 550.71 27.67 673.63 27.87 674.37C28.08 675.11 28.97 676 29.85 676.34C30.73 676.69 159.93 676.92 316.96 676.85C594.62 676.73 602.51 676.69 603.49 675.35ZM634.41 599.58C606.86 599.39 605.39 599.31 604.98 598C604.74 597.24 604.47 581.58 604.4 563.19C604.27 534.46 604.41 529.66 605.34 529.07C606.01 528.65 687.97 528.38 815.87 528.37C1004.24 528.36 1025.48 528.48 1026.96 529.51L1028.6 530.66L1028.6 563.81C1028.6 595.01 1028.52 597.02 1027.24 598.18C1025.99 599.31 1012.28 599.42 844.65 599.59C744.97 599.69 650.36 599.68 634.41 599.58ZM824.37 591.62C825.15 590.68 824.36 588.57 819.65 579C816.54 572.67 814 567.02 814 566.43C814 564.55 817.3 565.26 821.08 567.96C824.42 570.33 824.81 570.45 825.65 569.29C826.25 568.49 826.58 565.43 826.58 560.84C826.58 552.44 826.89 551.3 829.17 551.3C831.5 551.3 831.76 552.4 831.76 562.09C831.76 566.74 831.95 570.54 832.18 570.54C832.98 570.54 835.85 568.82 837.92 567.1C840.33 565.1 844.34 564.72 844.34 566.49C844.34 567.12 841.8 572.78 838.7 579.07C834.03 588.54 833.21 590.71 833.98 591.63C834.79 592.61 845.91 592.74 926.83 592.74C1015.2 592.74 1018.8 592.69 1019.98 591.38C1021.1 590.15 1021.2 587.35 1021.02 563.07L1020.83 536.13L885.23 535.94C757.69 535.77 749.62 535.83 749.62 537.02C749.62 537.72 751.98 543.06 754.87 548.89C759.13 557.51 759.94 559.7 759.22 560.58C757.92 562.14 756.88 561.93 753.42 559.43C751.73 558.2 749.62 557.12 748.73 557.02C747.16 556.85 747.12 557.06 746.9 567.54C746.73 575.86 746.43 578.49 745.56 579.35C743.29 581.63 742.6 579.21 742.44 568.47C742.35 562.89 742.27 558.08 742.25 557.77C742.18 556.5 738.66 557.38 735.56 559.44C728 564.47 727.84 561.58 734.91 547.57C738.16 541.13 739.92 536.86 739.5 536.44C739.08 536.02 713.72 535.83 675.21 535.94L611.61 536.13L611.41 563.51C611.24 588.59 611.33 590.97 612.48 591.81C613.48 592.54 635.88 592.74 718.59 592.74C811.48 592.74 823.55 592.61 824.37 591.62ZM1195.91 471.26C1194.41 470.71 1193.66 467.68 1195.02 467.68C1195.39 467.68 1196.72 466.71 1197.98 465.53L1200.28 463.39L1200.27 449.07C1200.26 441.19 1200.06 434.02 1199.83 433.13C1199.58 432.23 1198.44 431.18 1197.25 430.77C1195.67 430.21 1195.1 429.54 1195.1 428.21C1195.1 427.21 1195.63 426.2 1196.27 425.95C1196.91 425.7 1202.33 425.5 1208.3 425.51C1218.96 425.51 1219.22 425.55 1222.96 427.7C1227.98 430.58 1230.19 434.11 1229.69 438.49C1229.25 442.38 1226.48 446.35 1223.27 447.68C1220.17 448.96 1220.36 450.77 1224.1 455.77C1228.88 462.14 1231.44 464.66 1234.93 466.4C1238.73 468.3 1239.18 468.87 1237.99 470.3C1237.36 471.07 1235.52 471.38 1231.7 471.38C1225.54 471.38 1226.97 472.53 1217.92 460.28C1212.25 452.61 1211.04 451.4 1209.02 451.4C1207.83 451.4 1207.68 452.13 1207.68 458.03C1207.68 462.43 1207.99 464.92 1208.61 465.43C1209.11 465.85 1210.36 466.84 1211.38 467.63C1213.16 469.01 1213.18 469.12 1211.91 470.41C1210.84 471.5 1209.35 471.76 1204.02 471.79C1200.41 471.81 1196.76 471.57 1195.91 471.26ZM1273.08 471.16C1268.47 469.82 1267.42 468.64 1267.99 465.51C1268.26 464.06 1268.75 462.59 1269.08 462.25C1269.41 461.9 1271.42 462.82 1273.54 464.28C1275.67 465.74 1277.85 466.94 1278.39 466.94C1278.93 466.94 1280.3 466.15 1281.42 465.18L1283.46 463.43L1281.22 461.3C1279.99 460.13 1277.07 458.03 1274.74 456.64C1269.4 453.46 1268.36 451.97 1268.36 447.44C1268.36 444.23 1268.67 443.51 1271 441.31C1273.38 439.07 1274.07 438.82 1277.85 438.86C1283.6 438.9 1287.16 440.7 1287.45 443.7C1287.83 447.61 1284.21 448.82 1282.37 445.39C1281.8 444.32 1280.79 444 1277.95 444C1274.53 444 1274.28 444.13 1274.28 445.85C1274.28 447.25 1275.13 448.23 1277.8 449.9C1279.73 451.12 1281.7 452.12 1282.17 452.13C1282.64 452.13 1284.55 453.63 1286.42 455.44C1289.21 458.16 1289.82 459.22 1289.82 461.4C1289.82 469.15 1281.94 473.75 1273.08 471.16ZM1303.02 471.61C1300.35 471.18 1295.9 466.7 1294.19 462.7C1292.1 457.82 1292.28 450.85 1294.63 446.22C1297.27 441.01 1300.78 438.82 1306.51 438.82C1310.57 438.82 1311.31 439.07 1313.97 441.35C1315.91 443.01 1317.26 444.98 1317.88 447.06C1318.8 450.12 1318.76 450.3 1316.87 451.93C1315.14 453.42 1314.11 453.62 1308.34 453.62C1300.97 453.62 1299.44 453.98 1299.44 455.73C1299.45 458.82 1305.14 464.71 1308.13 464.72C1308.64 464.72 1310.35 463.55 1311.92 462.13C1315.65 458.77 1317.2 458.74 1317.2 462.03C1317.2 464.06 1316.52 465.15 1313.53 467.95C1311.51 469.84 1309.43 471.38 1308.91 471.39C1308.38 471.4 1307.28 471.52 1306.47 471.66C1305.66 471.81 1304.11 471.79 1303.02 471.61ZM1321.4 471.26C1319.69 470.3 1319.85 468.48 1321.83 466.38C1323.31 464.8 1323.52 463.71 1323.73 456.34C1323.97 448.26 1323.93 448.03 1322.07 446.28C1319.47 443.84 1319.67 442.22 1322.79 440.37C1325.94 438.51 1327.42 438.43 1329.65 439.99C1331.18 441.07 1331.48 441.07 1333.12 439.99C1334.49 439.1 1336.86 438.82 1343.26 438.83C1353.2 438.84 1354.08 439.18 1352.42 442.39C1350.89 445.35 1350.9 445.57 1353.14 450.52C1355.84 456.53 1356.1 456.95 1357.16 456.95C1358.27 456.95 1358.6 456.37 1361.25 449.82C1362.83 445.91 1363.06 444.61 1362.41 443.4C1361.97 442.56 1361.6 441.17 1361.6 440.31C1361.6 438.87 1361.95 438.76 1365.85 438.97C1370.69 439.22 1371.75 440.69 1369.12 443.51C1367.5 445.24 1360.71 460.95 1359.42 465.93C1358.53 469.36 1357.12 470.88 1355.19 470.51C1353.82 470.25 1353.31 469.38 1350.27 462.13C1349.24 459.69 1347.31 455.09 1345.97 451.92C1344.64 448.75 1343.16 445.84 1342.69 445.45C1341.37 444.35 1333.34 446.13 1331.82 447.87C1330.77 449.06 1330.52 450.75 1330.52 456.64C1330.52 463.76 1330.57 463.99 1332.85 466.59C1334.88 468.9 1335.05 469.39 1334.13 470.31C1332.86 471.58 1323.25 472.3 1321.4 471.26ZM1382.94 471.63C1380.48 471.21 1376.32 467.22 1373.73 462.8C1371.96 459.79 1371.8 458.93 1372.2 454.71C1372.6 450.35 1374.25 446.04 1376.57 443.23C1380.66 438.29 1388.59 437.23 1394.68 440.8C1399.73 443.76 1402.3 448.27 1402.3 454.16C1402.3 460.14 1400.02 464.86 1395.24 468.77C1391.7 471.67 1388.07 472.52 1382.94 471.63ZM1406.76 471.08C1404.79 470.21 1404.87 469.06 1407.11 465.76C1408.78 463.3 1408.96 462.3 1408.96 455.66C1408.96 448.87 1408.81 448.11 1407.11 446.09C1404.64 443.15 1404.77 442.21 1407.89 440.37C1411.43 438.29 1413.82 438.38 1415.31 440.66C1416.32 442.2 1416.48 444.27 1416.28 453.06C1416.15 458.86 1416.3 464.34 1416.61 465.24C1417.41 467.54 1419.91 468.16 1421.6 466.46C1422.75 465.3 1422.97 463.75 1423.07 456.35C1423.18 448.38 1423.05 447.46 1421.62 445.94C1419.43 443.6 1419.67 442.14 1422.55 440.36C1425.57 438.49 1426.95 438.44 1429.72 440.07C1431.71 441.25 1431.92 441.25 1433.22 440.07C1435.81 437.73 1441.52 439.25 1441.52 442.28C1441.52 443.75 1438.72 445.53 1435.53 446.07C1431.2 446.81 1430.44 448.47 1430.43 457.28C1430.42 464.16 1430.46 464.32 1432.79 466.73C1436.63 470.69 1435.31 471.21 1420.63 471.5C1413.82 471.64 1407.58 471.45 1406.76 471.08ZM1244.54 468.61C1240.25 464.13 1239.16 461.38 1239.16 455.1C1239.16 448.48 1240.84 444.66 1245.31 441.12C1251.19 436.47 1260.77 438.75 1263.45 445.44C1265.08 449.51 1264.99 450.29 1262.71 452.09C1261.08 453.37 1259.71 453.62 1254.34 453.62C1250.09 453.62 1247.46 453.96 1246.54 454.63C1245.21 455.6 1245.23 455.76 1247.17 459.07C1249.07 462.31 1252.21 464.72 1254.55 464.72C1255.13 464.72 1256.97 463.35 1258.65 461.68C1260.54 459.79 1262.11 458.8 1262.8 459.07C1265.2 459.99 1263.64 464.3 1259.42 468.39C1256.5 471.23 1256.11 471.38 1251.77 471.38C1247.46 471.38 1247.05 471.23 1244.54 468.61ZM1391.53 464.53C1394.56 461.49 1395.44 456.39 1393.84 451.08C1392.25 445.78 1390.24 444 1385.85 444C1382.43 444 1382.19 444.14 1381.17 446.57C1379.88 449.67 1379.78 455.72 1380.97 459.67C1381.87 462.69 1385.97 466.94 1387.97 466.94C1388.61 466.94 1390.21 465.86 1391.53 464.53ZM773.45 454.95C771.96 453.47 772.38 452.65 777.18 447.64C789.15 435.17 793.22 426.85 789.84 421.78C787.93 418.91 786.55 418.1 783.54 418.1C781.48 418.1 780.07 418.7 778.13 420.4C775.58 422.64 773.28 422.88 773.32 420.9C773.35 418.87 776.23 413.72 777.96 412.58C783.5 408.95 789.75 409.47 794.41 413.94C801.4 420.65 798.92 430.54 787.13 443.05C782.5 447.96 782.79 449.18 788.55 449.18C790.85 449.18 794.05 448.79 795.66 448.31C799.17 447.25 800.2 448.22 799.05 451.52C797.7 455.38 796.19 455.84 784.75 455.84C777.64 455.84 774.05 455.56 773.45 454.95ZM810.93 453.03C805.93 448.41 804.11 442.97 804.09 432.65C804.08 425.15 804.27 423.97 806.17 419.78C809.29 412.92 814.91 409.31 820.21 410.77C823.96 411.81 828.37 417.17 830.34 423.09C831.7 427.16 831.9 429.01 831.55 434.32C831.01 442.65 828.99 447.96 824.79 452.08C822.01 454.81 820.94 455.36 817.83 455.66C814.36 455.99 813.98 455.85 810.93 453.03ZM858.68 453.44C855.06 450.27 852.5 444.66 852.49 439.93C852.49 433.74 853.73 430.66 857.81 426.8C861.31 423.49 861.77 423.28 865.55 423.28C869.91 423.28 872.68 424.38 875.15 427.09C877.53 429.71 877.88 431.7 876.3 433.65C874.36 436.05 871.79 435.19 869.66 431.44C868.2 428.86 867.63 428.46 865.42 428.46C863.51 428.46 862.57 428.93 861.63 430.35C859.75 433.22 859.48 438.82 861.02 442.86C863.48 449.31 868.17 450.95 872.72 446.96C875.68 444.36 876.9 444.15 876.9 446.26C876.9 448.63 874.91 451.89 872.21 453.95C870.23 455.46 868.89 455.84 865.57 455.84C861.94 455.84 861.07 455.54 858.68 453.44ZM881.49 454.95C880.22 453.68 880.39 452.56 882.08 451.03C883.4 449.83 883.56 448.75 883.56 440.73C883.56 432.58 883.43 431.69 882.08 430.85C881.17 430.29 880.61 429.14 880.62 427.9C880.63 426.33 881.22 425.58 883.24 424.57C886.69 422.86 887.73 422.94 889.86 425.07L891.66 426.87L894.3 425.07C897.95 422.6 902.61 422.62 905.32 425.13C906.42 426.15 907.72 426.98 908.22 426.98C908.71 426.98 910.34 426.15 911.84 425.13C916.84 421.73 922.63 423.15 925.37 428.45C926.11 429.9 926.5 433.57 926.65 440.51C926.84 449.95 926.94 450.57 928.57 451.89C930.28 453.27 930.28 453.3 928.85 454.6C927.68 455.65 926.34 455.87 921.94 455.69C917.09 455.49 916.47 455.3 916.27 453.95C916.15 453.11 916.74 451.81 917.57 451.06C918.94 449.81 919.08 448.82 919.08 439.96C919.08 433.38 918.79 429.95 918.19 429.35C916.62 427.77 912.83 428.3 910.88 430.37C909.23 432.13 909.07 432.95 908.84 441.08C908.6 449.72 908.63 449.91 910.5 451.64C912.35 453.36 912.37 453.44 911.02 454.66C909.09 456.4 900 456.07 898.83 454.21C898.21 453.22 898.41 452.55 899.76 451.12C901.37 449.4 901.47 448.74 901.37 440.71C901.23 429.56 900.82 428.49 896.73 428.47C895.33 428.46 894.17 429.2 892.85 430.93C891.07 433.26 890.96 433.93 890.96 442.02C890.96 450.41 891.01 450.66 892.83 451.85C894.61 453.01 894.64 453.16 893.46 454.46C892.48 455.54 891.15 455.84 887.29 455.84C884.46 455.84 882 455.46 881.49 454.95ZM818.92 450.32C821.51 448.5 822.81 444.62 823.33 437.11C824.19 424.93 821.55 415.14 817.42 415.14C811.87 415.14 809.83 440.87 814.75 448.83C816.55 451.74 816.77 451.82 818.92 450.32ZM1255 448.12C1256.63 446.15 1254.69 444 1251.3 444C1248.85 444 1248.2 444.32 1247.48 445.9C1246.78 447.44 1246.82 447.93 1247.68 448.48C1249.34 449.53 1254.02 449.3 1255 448.12ZM1308.56 448.25C1309.73 447.4 1309.74 447.2 1308.63 445.63C1307.66 444.23 1306.88 443.96 1304.37 444.15C1301.24 444.37 1300.25 445.62 1301.2 448.11C1301.72 449.45 1306.79 449.55 1308.56 448.25ZM1217.76 442.92C1220.87 439.94 1221.15 439.39 1220.71 437.19C1219.89 433.06 1217.39 431.25 1212.38 431.14L1208.05 431.05L1207.83 437.65C1207.72 441.28 1207.79 444.7 1208 445.24C1208.22 445.83 1209.56 446.22 1211.34 446.22C1213.85 446.22 1214.85 445.71 1217.76 442.92ZM1409.65 431.37C1408.05 429.77 1407.76 426.26 1409.11 424.91C1410.43 423.58 1413.74 423.84 1415.14 425.37C1416.65 427.04 1416.68 428.41 1415.27 430.42C1413.7 432.67 1411.34 433.06 1409.65 431.37ZM185.04 383.56C182.97 382.11 183.13 380.49 185.4 379.92C188.92 379.03 189.27 376.99 188.78 360.02L188.33 344.49L186.25 343.49C183.78 342.31 182.9 340.51 184.34 339.6C184.91 339.24 190.72 338.94 197.27 338.93L209.17 338.92L212.59 341.19C218.16 344.88 220.33 349.81 218.21 353.95C216.96 356.39 212.97 360.44 211.09 361.17C210.17 361.53 209.42 362.26 209.42 362.8C209.42 364.31 217.96 375.58 220.45 377.35C221.67 378.22 223.69 379.29 224.93 379.72C229.66 381.37 225.87 385.3 220.36 384.45C214.1 383.5 213.95 383.37 206.95 373.06C203.83 368.46 199.5 364.08 198.06 364.08C197.01 364.08 196.84 365.06 196.84 371.14L196.84 378.21L199.06 379.47C203.79 382.16 200.55 384.63 192.26 384.63C188.5 384.63 186.05 384.27 185.04 383.56ZM236.43 383.44C233.23 381.49 229.7 377.22 228.65 374.03C227.2 369.64 228.07 361.72 230.38 358.22C233.55 353.43 237.07 351.21 241.56 351.17C244.69 351.14 245.94 351.53 248.16 353.21C251.39 355.68 252.76 357.67 253.43 360.91C253.84 362.87 253.59 363.64 252.06 365.17C250.29 366.94 249.75 367.04 242.32 367.04L234.46 367.04L234.94 369.44C235.23 370.85 236.65 373.03 238.38 374.69C241.92 378.1 243.86 377.96 247.96 373.99C253.03 369.08 255.11 373.33 250.41 378.99C245.77 384.59 240.86 386.14 236.43 383.44ZM261.59 383.89C257.45 382.5 257.16 382.17 256.92 378.61C256.62 374.03 258.07 373.45 261.97 376.58C265.86 379.7 268.6 380.21 270.46 378.16C272.41 376 271.51 374.77 265.28 371.09C259.59 367.72 257.66 365.56 257.07 361.84C256.49 358.19 257.73 355.59 261.3 353C264.97 350.35 266.46 350.25 271.92 352.29C275.1 353.48 276.13 354.25 276.5 355.74C277.51 359.78 273.4 361.97 271.17 358.58C270.19 357.08 269.32 356.68 267.03 356.68C265.03 356.68 263.99 357.05 263.67 357.89C262.91 359.86 264.35 361.32 270.14 364.45C276.55 367.92 279.29 371.58 278.66 375.85C278.27 378.57 275.39 382.08 272.17 383.76C269.91 384.94 264.89 385.01 261.59 383.89ZM292.11 384.06C289.13 383.16 285.5 379.88 283.64 376.39C281.36 372.12 281.28 363.18 283.48 358.95C285.61 354.87 290.84 351.5 295.05 351.5C300.8 351.5 306.18 355.76 306.86 360.86C307.49 365.54 305.69 366.58 296.31 366.92C287.85 367.24 287.76 367.3 289.63 371.76C290.87 374.73 295.36 377.72 297.69 377.13C298.59 376.9 300.45 375.68 301.83 374.42C304.52 371.96 306.36 371.97 306.36 374.46C306.36 376.88 300.49 383.22 297.48 384.07C294.56 384.88 294.85 384.88 292.11 384.06ZM310.62 384C308.89 383 308.97 380.9 310.8 379.25C312.12 378.05 312.28 376.97 312.28 368.99C312.28 360.24 312.24 360.04 310.33 358.51C308.64 357.16 308.5 356.74 309.25 355.34C309.72 354.45 311.3 353.22 312.76 352.61C315.12 351.63 315.66 351.63 317.85 352.67C320.06 353.72 320.49 353.72 322.54 352.66C325.85 350.95 340.99 350.98 341.65 352.71C341.9 353.37 341.73 354.53 341.26 355.29C340.79 356.04 340.4 357.39 340.4 358.28C340.4 360.64 344.79 369.26 345.99 369.26C346.93 369.26 349.49 364.64 351.48 359.35C352.14 357.6 352.05 356.96 351 355.79C350.02 354.72 349.9 354.07 350.5 353.12C351.98 350.75 359.64 351.39 359.64 353.89C359.64 354.36 358.82 355.6 357.83 356.64C356.83 357.68 355.2 360.86 354.2 363.71C351.11 372.49 347.79 379.91 346.17 381.63C344.95 382.93 344.34 383.11 343.21 382.5C341.74 381.71 340.88 379.96 335.78 367.41C334.13 363.34 332.45 359.58 332.04 359.06C331.5 358.38 330.04 358.24 326.78 358.58C320.24 359.25 319.68 360.14 319.68 369.78C319.68 377.46 319.7 377.55 321.89 379.47L324.09 381.4L322.5 383.1C321.17 384.52 320.15 384.8 316.41 384.78C313.93 384.77 311.33 384.42 310.62 384ZM369.17 382.68C367.34 381.52 364.78 378.97 363.48 377.01C361.42 373.9 361.12 372.83 361.14 368.58C361.16 362.57 362.78 358.76 366.88 355.06C373 349.54 379.85 349.69 386.14 355.49C390.47 359.48 391.46 361.67 391.46 367.22C391.46 371.21 391.1 372.52 389.06 375.9C383.95 384.35 376.05 387.05 369.17 382.68ZM395.53 383.87C393.92 382.96 394.17 380.43 396.03 378.92C397.47 377.75 397.66 376.82 397.82 369.71C398.01 361.89 397.99 361.76 395.84 359.31C394.46 357.75 393.84 356.39 394.13 355.62C395.19 352.86 402.19 351.13 403.91 353.2C404.38 353.76 404.75 358.5 404.82 364.85C404.89 370.74 405.09 376.43 405.27 377.51C405.68 379.93 408.17 380.74 410.5 379.21C412.1 378.16 412.18 377.65 412.18 368.96C412.18 360.02 412.14 359.78 410.33 358.6C407.91 357.01 407.99 355.65 410.63 353.77C412.9 352.15 417.29 351.72 418.56 352.99C419.07 353.51 420.43 353.33 422.81 352.45C425.94 351.29 426.51 351.27 428.25 352.25C430.84 353.72 431.01 354.58 429.17 356.92C427.96 358.46 426.97 358.9 424.75 358.9C420.34 358.9 419.58 360.55 419.58 370.15C419.58 377.82 419.65 378.15 421.43 379.32C423.41 380.61 423.87 382.87 422.36 383.8C421.09 384.58 396.91 384.64 395.53 383.87ZM381.16 376.48C383.3 373.54 383.43 372.98 383.19 368.02C382.96 363.4 382.63 362.34 380.64 359.88C378.32 357 375.94 356.14 372.59 356.98C366.62 358.48 368.75 376.7 375.18 379.09C377.7 380.03 378.99 379.46 381.16 376.48ZM243.94 360C245.11 356.93 238.95 355.37 236.47 358.11C234.6 360.19 235.64 361.12 239.83 361.12C242.43 361.12 243.63 360.79 243.94 360ZM297.84 360.4C298.09 360 297.93 359 297.49 358.18C296.89 357.06 295.94 356.68 293.78 356.68C291.62 356.68 290.67 357.06 290.07 358.18C288.88 360.41 289.77 361.12 293.78 361.12C295.77 361.12 297.59 360.79 297.84 360.4ZM206.93 355.67C211 351.59 211.04 349.89 207.17 346.21C204.52 343.69 203.75 343.36 200.51 343.36L196.84 343.36L196.84 350.64C196.84 354.64 197.06 358.14 197.33 358.41C197.6 358.68 199.15 358.9 200.76 358.9C203.24 358.9 204.2 358.4 206.93 355.67ZM398.54 344.42C397.17 343.04 397 338.85 398.27 337.59C399.51 336.35 402.94 336.48 404.04 337.81C407.24 341.67 402.04 347.91 398.54 344.42ZM1265.4 282.32C1265.4 281.34 1269.79 281.2 1301.35 281.2C1329.78 281.2 1337.24 281.39 1337 282.12C1336.76 282.84 1328.76 283.09 1301.04 283.24C1269.67 283.41 1265.4 283.3 1265.4 282.32ZM1242.52 262.7C1239.66 262.48 1237.64 261.96 1237.46 261.4C1237.08 260.24 1235.13 260.29 1295.37 260.03C1351.36 259.78 1365.05 260.11 1363.76 261.67C1363.06 262.51 1353.06 262.72 1305.09 262.88C1273.29 262.98 1245.13 262.9 1242.52 262.7ZM826.74 207.1C824.16 206.36 822.37 203.68 823.13 201.7C823.7 200.21 828.02 200.16 829.95 201.63C831.98 203.16 835.68 203.01 837.85 201.31C838.88 200.5 840.11 198.37 840.63 196.49C841.45 193.56 841.41 192.67 840.27 189.62C839.55 187.69 838.45 185.53 837.84 184.82C836.13 182.85 830.59 179.82 828.67 179.81C826.44 179.79 825.42 179.08 824.8 177.12C824.09 174.82 829.9 163.65 832.29 162.74C835.55 161.5 843.99 161.91 845.83 163.4L847.48 164.73L845.62 166.89C843.92 168.87 843.27 169.08 838.08 169.34C833.47 169.57 832.48 169.83 832.82 170.71C833.05 171.31 833.24 171.93 833.24 172.1C833.24 172.26 834.56 173.06 836.18 173.89C845.64 178.72 849.65 187.82 845.72 195.57C843.59 199.78 838.7 205.54 836.14 206.86C833.81 208.07 830.38 208.16 826.74 207.1ZM893.55 207.44C889.19 206.9 888 206.41 888 205.2C888 204.52 888.75 203.17 889.66 202.19C891.13 200.64 891.36 199.52 891.55 192.9C891.81 183.75 890.57 180.31 886.89 180.01C885.09 179.86 884.28 180.34 882.63 182.53C880.7 185.11 880.6 185.63 880.6 193.57C880.6 201.79 880.63 201.92 882.63 203.44C884.62 204.94 884.63 205.01 883.23 206.09C881.23 207.64 872.25 207.62 870.96 206.07C870.18 205.13 870.3 204.64 871.61 203.25C873.05 201.71 873.2 200.74 873.2 192.67C873.2 184.04 873.15 183.74 871.29 182.13C870.15 181.13 869.55 180.01 869.81 179.34C870.05 178.72 870.24 177.97 870.24 177.66C870.24 176.73 873.85 175.38 876.33 175.38C877.65 175.38 879.35 176.03 880.27 176.9L881.88 178.41L884.12 176.53C887.26 173.89 892.48 173.87 895.1 176.49C896.11 177.51 897.45 178.34 898.07 178.34C898.69 178.34 900.29 177.51 901.62 176.49C906 173.15 912.59 174.51 915.17 179.28C916.17 181.14 916.52 183.97 916.73 191.97C916.99 201.44 917.14 202.38 918.6 203.57C919.86 204.61 920 205.07 919.28 205.8C918.08 207.02 909.68 207.99 907.48 207.15C905.37 206.35 905.26 204.19 907.24 202.39C908.57 201.19 908.72 200.11 908.72 191.87C908.72 186.82 908.38 182.04 907.95 181.25C906.43 178.4 901.22 180.05 899.19 184.03C898.73 184.92 898.36 189.16 898.36 193.47C898.36 200.89 898.45 201.37 900.21 202.9C901.23 203.78 902.06 204.8 902.06 205.15C902.06 205.82 897.36 208.02 896.35 207.83C896.03 207.77 894.77 207.59 893.55 207.44ZM266.74 164.97C266.47 164.54 266.37 164.06 266.52 163.91C267 163.43 338.87 163.24 339.35 163.72C341.16 165.54 337.17 165.76 303.03 165.76C278.47 165.76 267.07 165.51 266.74 164.97ZM245.5 142.22C243.03 142.07 241.98 141.68 241.98 140.93C241.98 140.01 250.52 139.86 304.84 139.86C363.39 139.86 371.85 140.11 367.64 141.72C366.59 142.12 251.32 142.6 245.5 142.22ZM651.71 127.88C648.63 126.76 649.2 124.03 652.6 123.71C655.94 123.39 658.6 124.12 658.6 125.35C658.6 127.62 654.83 129 651.71 127.88ZM661.69 127.99C658.93 126.86 659.78 124.01 662.96 123.71C666.3 123.39 668.96 124.12 668.96 125.35C668.96 127.61 664.62 129.19 661.69 127.99ZM671.88 127.4C670.75 126.48 670.36 125.6 670.69 124.73C671.11 123.65 671.82 123.5 675.07 123.85C677.2 124.08 679.45 124.25 680.06 124.23C680.67 124.21 685.17 124.2 690.05 124.2C694.93 124.21 699.35 124.2 699.86 124.19C701.86 124.16 708.97 124.18 709.85 124.22C710.35 124.25 712.53 124.08 714.68 123.85C716.94 123.61 718.97 123.76 719.51 124.2C720.1 124.69 720.84 124.72 721.52 124.29C722.9 123.42 728.2 123.4 729.56 124.26C730.97 125.15 730.07 127.15 727.89 127.98C725.71 128.81 722.93 128.23 721.7 126.69C720.87 125.66 720.65 125.66 719.48 126.7C716.74 129.1 712.7 128.9 711 126.27C710.66 125.75 710.04 125.87 709.15 126.64C706.92 128.56 705.27 128.8 702.43 127.61C699.96 126.58 699.51 126.59 697.4 127.73C695.22 128.9 694.93 128.9 692.57 127.73C690.21 126.55 689.9 126.55 687.23 127.76C684.53 128.97 684.27 128.97 681.95 127.72C679.69 126.51 679.33 126.49 677.23 127.58C674.35 129.07 673.93 129.06 671.88 127.4ZM734.08 128.1C732.75 127.73 732.23 127.07 732.23 125.77L732.23 123.95L741.48 124.08C746.57 124.15 751.15 124.21 751.65 124.2C753.88 124.17 770.43 124.19 771.26 124.23C771.77 124.25 773.86 124.1 775.89 123.9C780.4 123.45 782.23 124.33 780.68 126.2C778.98 128.24 776.84 128.68 774.09 127.55C771.86 126.63 771.24 126.64 769.08 127.67C767.01 128.65 766.2 128.7 764.07 127.93C762.1 127.21 760.91 127.2 758.72 127.88C756.25 128.64 755.67 128.57 753.9 127.27C751.44 125.46 751.4 125.46 749.08 127.28C746.59 129.24 745.5 129.15 743.15 126.8C741.96 125.6 741.07 125.17 740.9 125.7C740.65 126.45 736.77 128.89 736.15 128.69C736.03 128.65 735.1 128.38 734.08 128.1ZM846.56 128.04C845.21 127.71 844.71 127.09 844.71 125.77C844.71 124.14 845.05 123.93 848.04 123.76C849.87 123.65 851.83 123.87 852.4 124.24C854.98 125.91 850.28 128.97 846.56 128.04ZM856.31 127.97C855.1 127.49 854.66 126.8 854.83 125.62C855.03 124.2 855.58 123.92 858.4 123.76C860.23 123.65 862.23 123.89 862.84 124.29C863.8 124.91 863.75 125.2 862.47 126.44C860.54 128.3 858.45 128.82 856.31 127.97ZM867.51 128.01C865.23 127.1 863.98 124.61 865.5 124.02C867.31 123.33 871.97 123.52 873.2 124.34C874.14 124.97 873.99 125.37 872.23 126.92C869.96 128.94 869.86 128.96 867.51 128.01ZM877.87 127.97C876.98 127.64 875.89 126.69 875.45 125.86C874.76 124.56 874.9 124.29 876.52 123.89C877.55 123.63 879.48 123.63 880.79 123.9C882.11 124.16 883.77 124.34 884.49 124.3C885.96 124.21 892.71 124.16 894.11 124.23C894.61 124.26 896.58 124.09 898.47 123.86C900.4 123.63 902.57 123.8 903.42 124.25C904.42 124.79 905.09 124.81 905.39 124.32C905.95 123.41 912.4 123.36 913.82 124.26C915.28 125.18 914.31 127.16 911.97 128.05C909.75 128.89 907.79 128.47 906.1 126.78C905.08 125.76 904.81 125.75 903.69 126.74C901 129.1 896.95 128.88 895.26 126.27C894.92 125.75 894.3 125.87 893.41 126.64C891.15 128.59 889.46 128.82 886.78 127.55C884.58 126.5 883.94 126.47 882.22 127.33C879.5 128.69 879.68 128.66 877.87 127.97ZM917.78 127.99C916.67 127.55 916.12 126.71 916.12 125.45C916.12 123.71 916.36 123.58 919.63 123.59C921.57 123.6 923.64 123.91 924.24 124.29C924.91 124.72 925.65 124.7 926.21 124.23C926.7 123.83 928.71 123.6 930.68 123.72C933.74 123.92 934.28 124.19 934.49 125.61C934.92 128.66 928.19 129.62 926.58 126.74C926.02 125.75 925.76 125.75 924.18 126.75C921.62 128.37 919.68 128.74 917.78 127.99Z" fill="#1e2749" fill-rule="evenodd"/>
</svg>
