<?xml version="1.0" encoding="UTF-8"?>
<svg xmlns="http://www.w3.org/2000/svg" viewBox="0 0 446 414" width="446" height="414" shape-rendering="geometricPrecision">
<path d="M306.89 368.78C306.77 368.66 306.67 366.11 306.67 363.11L306.67 357.67L309.52 357.67C311.34 357.67 312.3 357.79 312.17 358C312.05 358.18 311.41 358.34 310.73 358.34C308.31 358.35 308 358.57 308 360.31C308 361.16 308.18 362.05 308.4 362.27C308.62 362.49 309.54 362.67 310.44 362.67C311.79 362.67 312.01 362.75 311.71 363.12C311.49 363.38 310.97 363.5 310.5 363.42C310.05 363.33 309.29 363.35 308.82 363.47C308.01 363.68 307.97 363.79 308.07 365.59L308.17 367.5L310.17 367.59C312.8 367.71 313.2 367.86 312.66 368.5C312.36 368.86 311.55 369 309.68 369C308.27 369 307.01 368.9 306.89 368.78ZM315 368.68C315 368.48 315.52 367.55 316.17 366.62C316.81 365.69 317.33 364.82 317.33 364.69C317.33 364.57 316.88 363.75 316.33 362.89C315.14 361 315.09 360.59 316.08 360.73C316.59 360.8 317.05 361.29 317.5 362.25C318.35 364.06 319.16 364.01 320.13 362.09C320.69 360.97 321.01 360.68 321.73 360.68L322.63 360.67L321.26 362.66C319.96 364.54 319.91 364.69 320.44 365.27C320.75 365.61 321 366 321 366.13C321 366.27 321.37 366.87 321.83 367.47C322.29 368.07 322.56 368.66 322.44 368.78C322.01 369.21 320.98 368.99 320.76 368.42C320.06 366.54 318.38 365.38 317.87 366.42C317.1 367.96 316.35 368.85 315.72 368.94C315.33 369 315 368.88 315 368.68ZM325.36 368.12C323.95 366.33 324.88 364.76 327.5 364.5L329.17 364.35L327.89 364.71C327.07 364.95 326.48 365.37 326.24 365.91C325.91 366.63 325.96 366.83 326.63 367.37C327.06 367.72 327.73 368 328.12 368.01C328.82 368.02 328.82 368.03 328.19 368.51C327.21 369.25 326.13 369.1 325.36 368.12ZM330.33 368.5C330.11 368.22 329.68 368 329.4 368C329.01 368 329.11 367.75 329.77 367.07C330.83 365.96 330.91 365.16 330.01 364.67C329.35 364.32 329.35 364.31 330.03 363.64C330.59 363.07 330.64 362.87 330.29 362.44C329.59 361.61 328.37 361.29 327.13 361.63C326.39 361.84 325.93 361.83 325.79 361.6C325.44 361.03 326.4 360.68 328.28 360.67C329.8 360.67 330.19 360.81 331.03 361.64C331.95 362.56 332 362.77 332 365.41C332 368.66 331.4 369.78 330.33 368.5ZM335.67 364.83C335.67 361.57 335.76 360.67 336.12 360.67C336.87 360.67 337.67 361.78 337.32 362.34C337.15 362.61 337.01 364.04 337.01 365.52C337 368.01 336.7 369 335.93 369C335.79 369 335.67 367.12 335.67 364.83ZM341.46 368.79C341.21 368.69 341.14 367.94 341.25 366.57C341.46 363.86 340.76 362 339.52 362C338.57 362 338.34 361.2 339.19 360.87C340.24 360.47 341.25 360.68 342.12 361.48C342.94 362.25 343 362.49 343 365.25C343 368.52 342.67 369.29 341.46 368.79ZM346.83 368.58C346.75 368.35 346.64 366.82 346.59 365.17L346.5 362.17L344.83 362L343.17 361.83L343.99 361.25C344.97 360.56 346.63 360.49 347.49 361.12C347.99 361.48 348.14 362.2 348.3 364.98C348.48 367.98 348.43 368.43 347.94 368.7C347.19 369.1 347.01 369.08 346.83 368.58ZM352.08 368.78C351.85 368.69 351.67 368.35 351.67 368.03C351.67 367.54 351.94 367.48 353.68 367.6C355.92 367.76 357 367.19 357 365.83C357 365 356.39 364.43 354.5 363.51C352.19 362.39 351.67 361.74 351.67 359.98C351.67 359.12 351.85 358.27 352.08 358.1C352.91 357.48 355.19 357.07 356.67 357.28C358.61 357.56 358.31 358.2 356.3 358.06C355.05 357.97 354.59 358.1 353.81 358.77C352.91 359.54 352.88 359.65 353.31 360.46C353.78 361.34 355.68 362.67 356.45 362.67C356.68 362.67 357.35 363.16 357.93 363.77C359.4 365.28 359.33 366.29 357.67 367.79C356.45 368.9 356.17 369 354.42 368.97C353.36 368.96 352.31 368.87 352.08 368.78ZM361.89 368.78C361.77 368.66 361.67 366.78 361.67 364.61C361.67 360.54 361.74 360.33 363.06 360.84C363.68 361.08 363.58 368.31 362.94 368.71C362.4 369.05 362.18 369.07 361.89 368.78ZM367.64 368.03C366.76 367.15 366.67 366.83 366.67 364.88C366.67 363.02 366.79 362.57 367.55 361.66C368.38 360.69 368.55 360.62 369.97 360.81C373.48 361.26 373.16 361.43 373.2 359C373.24 356.95 373.28 356.83 374.04 356.83L374.83 356.83L374.92 362.54C375 367.09 374.92 368.32 374.55 368.63C374.06 369.03 373 368.81 373 368.3C373 367.81 371.45 367.96 371 368.5C370.31 369.33 368.72 369.11 367.64 368.03ZM378.84 367.97C377.73 366.99 377.67 366.82 377.67 364.82C377.67 362.92 377.76 362.62 378.69 361.69C379.55 360.84 379.98 360.67 381.29 360.67C382.65 360.67 383.02 360.83 383.96 361.79C384.78 362.64 385.02 363.16 384.94 363.88C384.83 364.83 384.83 364.83 382.17 364.93C380.7 364.99 379.38 365.16 379.22 365.31C378.79 365.74 379.9 367.59 380.75 367.86C381.16 367.99 382.08 368.08 382.79 368.05C383.9 368.01 384.02 368.07 383.67 368.5C383.4 368.82 382.66 369 381.64 369C380.31 369 379.82 368.82 378.84 367.97ZM387.67 368.17C387.67 367.56 387.85 367.33 388.31 367.33C389.16 367.33 389.49 367.91 388.99 368.51C388.36 369.28 387.67 369.1 387.67 368.17ZM394.73 368.01C392.89 366.67 392.67 366.14 392.67 363.07C392.67 360.68 392.76 360.31 393.65 359.08C394.53 357.86 394.82 357.7 396.4 357.5C398.97 357.18 400.83 357.39 400.83 358C400.83 358.39 400.49 358.48 399.3 358.39C396.14 358.17 394 360.03 394 363C394 364.64 394.64 365.86 396.11 367.02C396.88 367.62 397.35 367.72 398.87 367.59C400.79 367.43 401.32 367.71 400.65 368.51C400.38 368.84 399.59 369 398.18 369C396.4 369 395.9 368.86 394.73 368.01ZM404.8 367.87C403.77 366.83 403.67 366.56 403.68 364.78C403.69 361.93 404.97 360.67 407.83 360.67C409.22 360.67 409.73 360.85 410.76 361.69C411.89 362.62 412 362.87 412 364.37C412 365.33 411.77 366.37 411.47 366.84C410.64 368.1 408.93 369 407.34 369C406.18 369 405.73 368.8 404.8 367.87ZM415.5 368.81C415.3 368.72 415.19 367.09 415.22 364.75C415.26 361.35 415.34 360.82 415.83 360.72C416.91 360.5 417.13 361.22 417.03 364.75C416.93 368.51 416.64 369.29 415.5 368.81ZM420.83 368.58C420.75 368.35 420.64 366.82 420.59 365.17L420.5 362.17L419.5 362C418.1 361.76 418.18 360.86 419.61 360.73C421.01 360.59 423.13 361.9 422.75 362.67C422.62 362.94 422.48 364.35 422.45 365.8C422.41 367.58 422.25 368.52 421.95 368.71C421.32 369.1 421 369.07 420.83 368.58ZM426.9 368.78C426.77 368.66 426.67 367.37 426.67 365.92C426.67 362.66 426.36 362 424.82 362C424.06 362 423.67 361.84 423.67 361.54C423.67 360.51 426.58 360.32 427.46 361.29C427.93 361.81 428.01 362.5 427.93 365.35C427.84 368.52 427.56 369.45 426.9 368.78ZM372.25 367.25C372.43 367.02 372.76 366.28 372.97 365.61C373.29 364.62 373.27 364.17 372.87 363.2C372.39 362.05 372.29 362 370.72 362C369.34 362 368.99 362.13 368.54 362.82C367.84 363.89 367.85 365.36 368.58 366.64C369.09 367.52 369.36 367.66 370.54 367.66C371.3 367.67 372.07 367.48 372.25 367.25ZM409.82 366.55C410.82 365.24 410.88 364.43 410.08 363.03C409.55 362.09 409.35 362 407.79 362C406.34 362 406 362.12 405.54 362.82C404.8 363.95 404.86 365.54 405.69 366.7C406.25 367.48 406.62 367.67 407.67 367.67C408.75 367.67 409.11 367.48 409.82 366.55ZM382.93 364.15C383.81 363.53 383.85 363.09 383.12 362.28C382.48 361.58 380.36 361.44 379.73 362.07C379.11 362.69 379.24 364.26 379.92 364.44C381.13 364.75 382.21 364.65 382.93 364.15ZM77.18 360.36C77.08 360.19 77 283.54 77 190.03C77 46.73 76.93 20 76.54 20C76.29 20 75.71 20.3 75.25 20.66L74.41 21.32L74.21 20.58C74.07 20.06 74.31 19.39 75 18.41C75.55 17.62 76 16.86 76 16.71C76 16.32 77.15 15.33 77.59 15.33C78.19 15.33 82.33 19.75 82.33 20.38C82.33 21.47 81.6 21.41 80.37 20.2C79.69 19.54 79.03 19 78.9 19C78.77 19 78.67 43.07 78.67 72.5L78.67 126L112.78 126C146.01 126 146.91 125.98 147.48 125.36C147.8 125.01 148.13 124.07 148.23 123.28C148.33 122.48 148.76 120.63 149.2 119.17C150.46 114.98 153.31 112.35 155.06 113.75C156.85 115.18 159.43 120.53 160.25 124.5L160.53 125.83L182.35 125.83L204.16 125.83L204.72 124.65C205.59 122.79 207.77 121 209.16 121C210.63 121 212.42 122.52 213.31 124.53L213.96 126L299.16 126.08C346.03 126.13 384.49 126.05 384.63 125.9C384.78 125.75 384.4 125.13 383.78 124.52C382.47 123.2 382.33 122.33 383.43 122.33C384.27 122.33 388.33 126.19 388.33 127C388.33 127.64 383.72 132.08 383.32 131.82C382.68 131.43 383.02 130.17 384.07 129.1L385.13 128L326.23 128C293.84 128 267.33 128.1 267.33 128.23C267.33 128.36 267.69 128.85 268.12 129.32C269.35 130.66 272.05 137.2 272.52 140C272.75 141.38 273.18 143.25 273.46 144.17C274.91 148.83 275.39 150.72 275.7 153C275.89 154.37 276.24 156.17 276.48 157C277.64 160.99 278.75 165.97 279.53 170.67C280 173.51 280.68 176.81 281.03 178C281.39 179.19 281.67 180.43 281.67 180.76C281.67 181.08 281.88 182.2 282.15 183.26C282.41 184.31 282.88 186.59 283.18 188.33C283.67 191.22 284.12 192.94 285.51 197.33C285.77 198.16 286.22 199.88 286.51 201.17C286.8 202.45 287.35 204.17 287.73 205C288.11 205.82 288.79 207.32 289.24 208.33C290.46 211.08 290.5 211.13 291.43 211.66C292.24 212.12 292.36 212.09 293.18 211.32C294.16 210.41 294.84 209.03 296.15 205.33C298.23 199.43 298.99 197.02 299.51 194.67C300.05 192.19 300.6 190.05 301.53 186.83C301.79 185.92 302.3 183.44 302.67 181.33C303.04 179.22 303.73 176 304.21 174.17C305.53 169.08 306.01 167.02 306.37 164.83C306.55 163.73 306.85 162.23 307.04 161.5C307.22 160.77 307.5 159.64 307.65 159C307.81 158.36 308.09 157.38 308.28 156.83C309.28 153.98 309.96 151.28 310.16 149.39C310.28 148.22 310.58 146.8 310.83 146.22C311.09 145.64 311.77 143.82 312.35 142.17C314.01 137.41 314.72 135.98 316.44 134.01C318.3 131.88 319.39 131.2 320.43 131.53C321.6 131.9 324.93 135.53 325.29 136.82C325.46 137.46 325.9 138.4 326.26 138.91C326.62 139.42 327.31 141.18 327.8 142.83C328.29 144.48 328.84 146.28 329.03 146.83C329.22 147.38 329.75 149.03 330.21 150.5C330.67 151.97 331.25 153.69 331.5 154.33C331.75 154.97 332.2 156.85 332.51 158.5C332.82 160.15 333.35 162.4 333.68 163.5C334.9 167.52 335.35 169.22 335.83 171.67C336.1 173.04 336.54 174.92 336.8 175.83C337.8 179.34 338.67 182.61 339.34 185.47C339.73 187.11 340.39 189.13 340.81 189.97C341.23 190.81 341.97 192.7 342.45 194.17C343.44 197.16 345.21 200.02 347.08 201.65C348.43 202.82 348.61 203.36 347.85 203.98C347.2 204.53 346.28 204.01 344.11 201.87C342.44 200.22 341.24 198.25 340.23 195.5C339.96 194.77 339.34 193.13 338.87 191.87C338.39 190.6 338 189.13 338 188.59C338 188.05 337.8 187.2 337.55 186.72C336.69 185.03 335.47 181.16 334.95 178.5C334.49 176.14 334.19 174.97 332.98 171C332.4 169.07 331.77 166.67 331.6 165.67C331.23 163.59 329.96 158.41 329.15 155.67C328.85 154.66 328.18 152.26 327.67 150.33C327.16 148.41 326.35 145.96 325.88 144.89C325.4 143.82 324.71 141.94 324.35 140.72C323.64 138.32 322.29 135.99 320.88 134.69C320.12 133.99 319.9 133.94 319.25 134.3C318.09 134.93 315.49 139.87 314.66 143.03C314.25 144.57 313.71 146.17 313.46 146.57C313.21 146.98 313 147.58 313 147.9C313 148.23 312.71 149.4 312.35 150.5C311.99 151.6 311.52 153.4 311.31 154.5C311.1 155.6 310.36 158.82 309.66 161.67C308.97 164.51 308.15 168.33 307.85 170.17C307.55 172 307.14 173.95 306.94 174.5C306.74 175.05 306.46 176.17 306.32 177C306.03 178.62 305.17 181.89 304.61 183.5C304.42 184.05 304.06 185.78 303.81 187.33C303.56 188.89 303.13 190.92 302.85 191.83C302.58 192.75 302.18 194.17 301.97 195C301.76 195.82 301.39 196.95 301.15 197.5C300.9 198.05 300.59 199.25 300.47 200.17C300.22 201.98 298.97 205.57 298.03 207.17C297.71 207.72 297.34 208.69 297.22 209.32C297.06 210.13 296.35 211.09 294.83 212.57C293.64 213.72 292.51 214.67 292.32 214.67C291.42 214.67 289.37 213.26 288.6 212.11C287.07 209.82 285.33 206.45 285.33 205.75C285.33 205.37 285.05 204.26 284.7 203.28C282.98 198.41 282.28 195.93 282.12 194.14C282.03 193.05 281.74 191.64 281.47 191C281.21 190.36 280.86 189.16 280.69 188.33C280.52 187.51 280.05 185.63 279.65 184.17C279.25 182.7 278.73 180.15 278.5 178.5C278.26 176.85 277.68 173.85 277.19 171.83C276.7 169.82 276.23 167.72 276.14 167.17C276.04 166.62 275.76 165.42 275.5 164.5C275.25 163.58 274.8 161.11 274.5 159C274.2 156.89 273.74 154.49 273.49 153.67C272.73 151.15 271.73 147.27 271.36 145.33C270.96 143.28 269.49 138.36 268.82 136.83C268.58 136.28 268.06 134.83 267.67 133.59C266.85 131.02 265.4 129.23 264.29 129.39C263.17 129.56 262.47 130.8 260.83 135.55C259.5 139.39 258.9 141.68 256.82 150.79C256.58 151.87 256.23 153.15 256.05 153.63C255.87 154.11 255.47 156.22 255.17 158.33C254.86 160.44 254.47 162.92 254.3 163.83C254.13 164.75 253.78 166.7 253.51 168.17C253.25 169.63 252.87 171.36 252.68 172C252.49 172.64 252.03 175.42 251.67 178.17C251.31 180.92 250.87 183.62 250.69 184.17C250.51 184.72 250.12 186.37 249.81 187.83C249.25 190.53 248.66 193.06 248.03 195.5C247.84 196.23 247.68 197.78 247.67 198.94C247.67 200.1 247.52 201.31 247.34 201.65C247.17 201.98 246.8 203.2 246.54 204.37C245.79 207.63 245.1 210.38 244.7 211.66C244.5 212.3 244.33 213.35 244.33 214C244.32 214.64 243.94 216.07 243.47 217.17C243 218.27 242.47 219.62 242.28 220.17C241.09 223.63 239.2 226.23 237.31 227.01C236.38 227.39 236.19 227.35 234.9 226.42C233.47 225.39 233.2 225 232.01 222.25C231.64 221.38 231.04 220.03 230.69 219.25C230.04 217.83 229.61 216.26 229.04 213.17C228.87 212.25 228.34 210 227.87 208.17C227.4 206.33 227.01 204.51 227 204.12C227 203.73 226.78 202.88 226.5 202.22C226.22 201.56 226 200.15 225.99 199.09C225.99 198.03 225.83 196.57 225.63 195.83C225.12 193.91 224.42 190.65 223.67 186.83C223.32 185 222.87 182.78 222.68 181.89C222.5 181.01 222.11 178.31 221.82 175.89C221.53 173.48 221.13 170.9 220.94 170.17C220.37 167.97 219.42 162.31 218.48 155.5C218.18 153.3 217.74 150.82 217.49 150C217.25 149.17 216.95 147.82 216.83 147C216.71 146.17 216.4 144.82 216.15 144C215.9 143.17 215.45 141 215.15 139.17C214.62 135.93 212.62 129.26 211.93 128.42C211.46 127.85 206.87 127.85 206.41 128.42C206.22 128.65 205.82 129.88 205.52 131.17C204.67 134.77 203.62 138.75 203.3 139.58C203.14 139.99 202.71 142.47 202.34 145.08C201.97 147.7 201.46 150.66 201.19 151.67C200.42 154.6 200.02 157.08 199.19 164C198.44 170.21 198.22 171.64 197.1 177.33C196.35 181.11 195.66 186.08 195.3 190.17C195.12 192.18 194.81 194.58 194.6 195.5C194.39 196.42 194.03 198.29 193.8 199.67C192.94 204.77 192.39 207.53 192.03 208.44C191.83 208.95 191.67 210.53 191.67 211.94C191.67 213.35 191.51 215.03 191.31 215.67C191.12 216.31 190.75 217.88 190.49 219.17C190.24 220.45 189.79 222.55 189.5 223.83C189.21 225.12 188.76 227.44 188.5 229C187.95 232.33 186.07 237.85 184.87 239.67C183.55 241.67 181.98 243.33 181.42 243.33C181.14 243.33 180.04 242.44 178.98 241.34C177.33 239.63 176.99 239.07 176.65 237.42C176.43 236.36 175.87 234.53 175.42 233.34C174.59 231.19 174.08 228.91 173.16 223.17C172.5 219.04 171.8 215.13 170.98 211C170.59 209.07 170.08 205.62 169.82 203.33C169.57 201.04 169.2 198.27 169 197.17C168.54 194.64 168.17 192.37 167.53 188.17C167.26 186.33 166.8 183.33 166.51 181.5C166.23 179.67 165.93 177.27 165.85 176.17C165.7 174.19 165.11 169.84 164.16 163.67C163.33 158.29 162.31 150.31 162.06 147.33C161.93 145.77 161.72 144.32 161.58 144.1C161.29 143.67 160.75 141.01 159.45 133.67C158.97 131.01 158.43 128.64 158.24 128.41C157.99 128.09 156.84 128 153.88 128.07C149.24 128.18 149.83 127.65 148.84 132.67C148.53 134.22 148.06 136.47 147.78 137.67C147.31 139.71 146.54 145.3 145.69 152.83C145.48 154.67 145.21 156.39 145.1 156.67C144.99 156.94 144.69 158.74 144.44 160.67C144.19 162.59 143.77 165.74 143.52 167.67C143.26 169.59 142.88 172.67 142.68 174.5C141.86 181.91 140.92 189.76 140.2 195.17C139.6 199.78 139.1 203.94 138.69 208C138.22 212.66 137.46 217.86 137.2 218.28C137.07 218.49 136.89 219.89 136.79 221.41C136.69 222.93 136.39 224.67 136.14 225.29C135.87 225.92 135.67 227.53 135.66 228.96C135.66 231.39 135.54 232.31 134.47 238C134.21 239.38 133.85 241.61 133.65 242.96C133.46 244.32 133.08 245.95 132.82 246.59C132.55 247.23 132.33 248.37 132.33 249.12C132.32 250.66 131.02 255.68 130.23 257.22C129.94 257.77 129.48 258.41 129.19 258.65C128.9 258.89 128.67 259.28 128.67 259.52C128.67 259.76 128.33 260.35 127.92 260.83L127.17 261.7L102.92 261.68L78.67 261.65L78.67 310.51C78.67 343.56 78.55 359.59 78.32 360.02C77.95 360.71 77.49 360.85 77.18 360.36ZM361.67 357.33C361.67 356.75 361.84 356.64 362.58 356.73C363.13 356.79 363.5 357.04 363.5 357.33C363.5 357.63 363.13 357.88 362.58 357.94C361.84 358.02 361.67 357.91 361.67 357.33ZM125.01 258.83C125.16 257.99 125.33 257.84 126.1 257.9C127.13 257.97 127.75 257.06 128.33 254.62C128.51 253.82 128.97 252.12 129.34 250.83C130.15 248.03 130.81 244.56 131.3 240.5C131.5 238.85 131.87 236.67 132.13 235.67C132.39 234.66 132.7 232.93 132.83 231.83C132.95 230.73 133.18 229.53 133.35 229.17C133.51 228.8 133.79 227.15 133.96 225.5C134.13 223.85 134.52 220.1 134.82 217.17C135.13 214.23 135.47 211.61 135.59 211.33C135.7 211.06 135.99 209.18 136.22 207.17C136.46 205.15 136.87 201.62 137.14 199.33C137.41 197.04 137.72 193.82 137.82 192.17C137.99 189.49 138.13 188.35 138.82 184C138.93 183.36 139.23 181.18 139.49 179.17C139.76 177.15 140.13 174.45 140.31 173.17C140.64 170.9 141 167.69 141.68 160.83C141.87 159 142.15 157.2 142.32 156.83C142.49 156.47 142.71 155.27 142.82 154.17C142.93 153.07 143.23 151.19 143.5 150C143.99 147.78 144.33 145.42 145.15 138.67C145.4 136.56 145.84 133.71 146.12 132.33C146.4 130.96 146.67 129.46 146.73 129L146.83 128.17L136.83 128.17L126.83 128.17L126.73 129.06C126.61 130.06 125.88 130.84 125.35 130.51C125.16 130.39 125 129.78 125 129.15L125 128L101.83 128L78.67 128L78.67 194L78.67 260L101.75 259.92L124.83 259.83L125.01 258.83ZM125.22 256.11C124.89 255.78 124.96 252.4 125.3 252.19C126.1 251.69 126.67 252.44 126.67 253.97C126.67 255.76 125.94 256.83 125.22 256.11ZM125.15 250.22C125.04 249.79 125 248.85 125.06 248.13C125.15 247.09 125.3 246.83 125.83 246.83C126.39 246.83 126.52 247.09 126.6 248.44C126.74 250.62 125.6 252.01 125.15 250.22ZM125.23 245.12C125.11 244.99 125 244.09 125 243.11C125 241.43 125.05 241.33 125.85 241.33C126.67 241.33 126.7 241.39 126.6 243.25C126.53 244.66 126.36 245.19 125.98 245.26C125.7 245.31 125.36 245.25 125.23 245.12ZM182.26 239.57C183.08 238.71 183.8 236.83 184.16 234.66C184.3 233.84 184.52 233.02 184.65 232.83C185.41 231.79 186.63 226.56 187.68 219.83C187.85 218.73 188.22 217.1 188.5 216.2C188.77 215.3 189 213.98 189 213.26C189 212.55 189.2 211.56 189.46 211.07C189.71 210.57 190 209.19 190.11 208C190.3 205.77 191.37 198.02 192.17 193C192.41 191.44 192.78 188.97 192.99 187.5C193.19 186.03 193.5 183.86 193.68 182.67C193.86 181.47 194.22 178.85 194.49 176.83C195.13 172.08 195.82 167.88 196.28 166C196.93 163.29 197.37 160.55 197.7 157.17C197.87 155.33 198.18 153.16 198.38 152.33C198.79 150.66 199.52 146.88 200.01 143.83C200.19 142.73 200.48 141.46 200.66 141C200.84 140.54 201.13 139.12 201.31 137.83C201.83 134.07 202.25 132.13 202.77 131.12C203.03 130.59 203.36 129.68 203.49 129.08L203.72 128L182.53 128L161.33 128L161.33 129.06C161.33 130.33 162.56 137.07 163.05 138.5C163.24 139.05 163.46 140.92 163.55 142.67C163.64 144.41 163.91 146.36 164.15 147C164.4 147.64 164.76 149.44 164.96 151C165.16 152.56 165.54 155.18 165.8 156.83C166.45 160.88 166.92 164.27 167.32 167.67C167.69 170.82 168.41 175.95 168.99 179.5C169.19 180.78 169.42 182.28 169.48 182.83C169.55 183.38 169.78 184.73 169.99 185.83C170.21 186.93 170.74 190.98 171.18 194.83C171.94 201.63 172.54 205.57 173.27 208.67C173.47 209.49 173.94 212.7 174.33 215.8C174.72 218.9 175.16 221.68 175.31 221.97C175.66 222.63 176.85 227.5 177.32 230.17C177.72 232.44 178.35 234.74 179.25 237.17C180.49 240.54 180.99 240.93 182.26 239.57ZM125.15 239.22C125.04 238.79 125 237.85 125.06 237.13C125.15 236.09 125.3 235.83 125.83 235.83C126.39 235.83 126.52 236.09 126.6 237.44C126.74 239.62 125.6 241.01 125.15 239.22ZM125.23 234.12C125.11 233.99 125 233.08 125 232.09C125 230.41 125.05 230.29 125.75 230.39C126.42 230.49 126.5 230.69 126.5 232.33C126.5 233.71 126.38 234.18 125.98 234.26C125.7 234.31 125.36 234.25 125.23 234.12ZM125.2 228.47C124.87 227.61 124.97 225.06 125.35 224.82C126.01 224.41 126.67 225.4 126.67 226.81C126.67 228.61 125.68 229.73 125.2 228.47ZM237.92 223.55C238.67 222.73 239.36 221.6 239.48 220.96C239.6 220.34 240.13 218.56 240.66 217C242.06 212.87 242.9 209.81 243.34 207.17C243.56 205.88 244 203.86 244.34 202.67C244.67 201.47 245.11 199.6 245.32 198.5C245.52 197.4 245.84 195.67 246.03 194.67C246.22 193.66 246.66 191.03 247.01 188.83C247.35 186.63 248.18 182.28 248.84 179.17C249.49 176.05 250.24 171.85 250.48 169.83C250.91 166.37 251.61 162.79 252.3 160.51C252.47 159.96 252.71 158.75 252.84 157.83C252.96 156.92 253.21 155.99 253.39 155.77C253.57 155.55 253.85 154.12 254.01 152.6C254.17 151.08 254.47 149.16 254.68 148.33C255.3 145.86 256.04 143.25 256.53 141.83C256.78 141.1 257.08 139.75 257.2 138.83C257.45 136.73 258.28 134.42 259.99 131.01C260.73 129.55 261.33 128.27 261.33 128.17C261.33 128.08 250.98 128 238.33 128L215.33 128L215.33 128.74C215.33 129.15 215.54 130.08 215.8 130.82C216.06 131.56 216.42 133.07 216.6 134.17C216.78 135.27 217.18 137.14 217.48 138.33C218.68 143.13 219.06 144.94 219.37 147.17C219.71 149.62 220.03 151.33 220.85 155.17C221.13 156.45 221.49 158.35 221.67 159.38C221.84 160.42 222.15 161.92 222.35 162.72C222.55 163.51 222.92 165.89 223.18 168C223.79 173.04 224.49 177.33 225.14 180C226.03 183.68 226.31 185.1 226.51 187C226.96 191.19 227.77 196.26 228.2 197.59C228.46 198.38 228.67 199.51 228.68 200.09C228.68 200.68 228.98 201.99 229.33 203C229.69 204.01 229.98 205.32 229.99 205.91C230 207.37 230.83 211 231.98 214.67C234.17 221.69 235.57 225 236.32 225C236.46 225 237.18 224.35 237.92 223.55ZM125.15 222.88C125.04 222.45 125 221.52 125.06 220.8C125.15 219.76 125.3 219.5 125.83 219.5C126.39 219.5 126.52 219.76 126.6 221.11C126.74 223.28 125.6 224.68 125.15 222.88ZM125.36 217.86C125.13 217.59 125.01 216.68 125.06 215.78C125.15 214.42 125.27 214.17 125.83 214.17C126.4 214.17 126.51 214.42 126.6 215.86C126.71 217.76 126.09 218.75 125.36 217.86ZM125.15 211.88C125.04 211.45 125 210.52 125.06 209.8C125.15 208.76 125.3 208.5 125.83 208.5C126.39 208.5 126.52 208.76 126.6 210.11C126.74 212.28 125.6 213.68 125.15 211.88ZM125.15 206.55C125.04 206.12 125 205.18 125.06 204.47C125.15 203.42 125.3 203.17 125.83 203.17C126.39 203.17 126.52 203.42 126.6 204.78C126.74 206.95 125.6 208.35 125.15 206.55ZM125.22 201.44C124.89 201.11 124.96 197.73 125.3 197.52C126.1 197.03 126.67 197.77 126.67 199.3C126.67 201.1 125.94 202.17 125.22 201.44ZM125.22 196.11C124.89 195.78 124.96 192.4 125.3 192.19C126.1 191.69 126.67 192.44 126.67 193.97C126.67 195.76 125.94 196.83 125.22 196.11ZM125.14 190.23C125.04 189.96 125 189.09 125.06 188.29C125.15 187.09 125.28 186.83 125.83 186.83C126.42 186.83 126.5 187.06 126.5 188.66C126.5 190.14 126.39 190.51 125.92 190.6C125.59 190.67 125.25 190.5 125.14 190.23ZM125.22 185.11C125.1 184.99 125 184.09 125 183.11C125 181.44 125.05 181.33 125.83 181.33C126.61 181.33 126.67 181.45 126.67 182.93C126.67 184.76 125.95 185.84 125.22 185.11ZM125.15 179.22C125.04 178.79 125 177.85 125.06 177.13C125.15 176.09 125.3 175.83 125.83 175.83C126.39 175.83 126.52 176.09 126.6 177.44C126.74 179.62 125.6 181.01 125.15 179.22ZM125.23 174.12C125.11 173.99 125 173.08 125 172.09C125 170.41 125.05 170.29 125.75 170.39C126.42 170.49 126.5 170.69 126.5 172.33C126.5 173.71 126.38 174.18 125.98 174.26C125.7 174.31 125.36 174.25 125.23 174.12ZM125.2 168.47C124.89 167.66 124.96 165.06 125.3 164.85C126.1 164.36 126.67 165.1 126.67 166.64C126.67 168.58 125.71 169.79 125.2 168.47ZM125.36 163.2C125.13 162.93 125.01 162.02 125.06 161.11C125.15 159.76 125.27 159.5 125.83 159.5C126.4 159.5 126.51 159.76 126.6 161.2C126.71 163.09 126.09 164.08 125.36 163.2ZM125.23 157.79C125.11 157.66 125 156.75 125 155.75C125 154.08 125.05 153.96 125.75 154.06C126.42 154.16 126.5 154.35 126.5 156C126.5 157.38 126.38 157.85 125.98 157.92C125.7 157.98 125.36 157.92 125.23 157.79ZM125.15 151.88C125.04 151.45 125 150.52 125.06 149.8C125.15 148.76 125.3 148.5 125.83 148.5C126.39 148.5 126.52 148.76 126.6 150.11C126.74 152.28 125.6 153.68 125.15 151.88ZM125.15 146.55C125.04 146.12 125 145.18 125.06 144.47C125.15 143.42 125.3 143.17 125.83 143.17C126.39 143.17 126.52 143.42 126.6 144.78C126.74 146.95 125.6 148.35 125.15 146.55ZM375.09 144.59C374.14 144.14 373.67 142.49 373.67 139.63C373.67 137.86 373.54 137.32 373 136.83C372.63 136.5 372.33 136.03 372.33 135.79C372.33 135.55 372.63 135.2 373 135C373.37 134.8 373.67 134.37 373.67 134.03C373.67 132.43 375.83 132.48 376.06 134.08C376.14 134.62 376.43 134.86 377.1 134.94C377.62 135 378.12 135.26 378.22 135.53C378.46 136.15 377.75 137 376.99 137C376.17 137 376.07 137.48 376.3 140.32C376.49 142.62 376.56 142.82 377.33 143C378.5 143.27 378.6 144.25 377.5 144.67C376.43 145.07 376.05 145.06 375.09 144.59ZM401.46 144.79C401.08 144.7 400.34 144.19 399.82 143.66C399.1 142.9 398.86 142.28 398.74 140.86C398.39 136.68 399.51 135 402.64 135C404.83 135 405.86 135.58 406.54 137.2C407.16 138.69 407.12 139.21 406.33 140C405.79 140.54 405.22 140.67 403.33 140.67C400.83 140.67 400.65 140.83 401.56 142.22C402.1 143.04 402.23 143.07 404.23 142.86C406.15 142.67 406.33 142.7 406.33 143.28C406.33 143.63 406.14 144.08 405.91 144.27C405.42 144.68 402.51 145.01 401.46 144.79ZM380.03 144.2C379.77 143.89 379.68 142.37 379.74 139.62L379.83 135.5L380.83 135.5L381.83 135.5L381.93 139.66C382.01 143.29 381.95 143.88 381.45 144.25C380.72 144.78 380.5 144.77 380.03 144.2ZM384.4 144.27C384.13 144 384 142.48 384 139.63L384 135.39L386.83 135.16C389.09 134.97 389.82 135.02 390.43 135.42C391.1 135.86 391.28 135.86 391.85 135.45C392.26 135.15 393.1 135.01 394.13 135.07C396.59 135.22 397.13 136.12 397.28 140.28C397.38 143.14 397.32 143.58 396.74 144.1C396.37 144.43 395.86 144.59 395.55 144.47C395.09 144.3 395 143.73 395 141.21C395 137.06 394.02 135.64 392.33 137.33C391.77 137.9 391.67 138.44 391.67 140.96C391.67 144.25 391.29 145.02 390.02 144.34C389.4 144.01 389.33 143.67 389.33 140.89C389.33 137.57 388.94 136.5 387.82 136.72C386.8 136.91 386.34 138.3 386.34 141.24C386.33 143.6 386.25 144.02 385.69 144.32C384.89 144.75 384.88 144.75 384.4 144.27ZM125.22 141.44C124.89 141.11 124.96 137.73 125.3 137.52C126.1 137.03 126.67 137.77 126.67 139.3C126.67 141.1 125.94 142.17 125.22 141.44ZM404 138.17C404.33 137.77 404.33 137.57 404 137.17C403.13 136.11 400.99 136.95 401.45 138.16C401.7 138.82 403.46 138.82 404 138.17ZM125.15 135.55C125.04 135.12 125 134.18 125.06 133.47C125.15 132.42 125.3 132.17 125.83 132.17C126.39 132.17 126.52 132.42 126.6 133.78C126.74 135.95 125.6 137.35 125.15 135.55ZM380.07 133.93C379.85 133.71 379.67 133.19 379.67 132.77C379.67 132.14 379.85 132 380.63 132C382.05 132 382.55 132.78 381.69 133.64C380.89 134.44 380.62 134.49 380.07 133.93ZM16.8 132.77C16.41 132.7 15.59 132.11 14.98 131.48C13.97 130.43 13.86 130.13 13.84 128.35C13.83 126.23 14.52 124.86 15.98 124.12C17.35 123.43 17.37 123.17 16.17 122C14.26 120.15 14.72 118.27 17.19 117.81C19.93 117.29 23.05 118.66 22.31 120.05C21.88 120.85 20.82 120.84 19.76 120C19.29 119.63 18.41 119.33 17.79 119.33C15.89 119.33 16.38 120.31 19.21 122.15C22.05 123.99 23.33 125.67 23.33 127.51C23.33 129.67 21.47 132.05 19.31 132.67C18.15 133.01 18.02 133.01 16.8 132.77ZM48.47 132.54C47.9 132.28 47.08 131.5 46.64 130.79C45.93 129.64 45.85 129.13 45.86 125.84C45.87 120.53 46.84 118.97 50.26 118.75C53.82 118.52 55.35 120.29 55.6 124.92C55.78 128.21 55.23 129.99 53.52 131.64C52.2 132.93 50.13 133.3 48.47 132.54ZM71.34 131.08C71.34 130.58 71.64 129.79 72 129.33C72.36 128.88 72.66 128.39 72.66 128.26C72.66 128.12 69.65 127.97 65.95 127.92C59.94 127.84 59.2 127.77 58.87 127.24C58.22 126.19 59.25 126.01 65.9 126.01C69.42 126 72.37 125.88 72.46 125.73C72.56 125.58 72.34 124.97 71.98 124.39C71.16 123.03 71.16 122.33 71.98 122.33C72.41 122.33 73.15 123.12 74.2 124.67L75.77 127.02L74.49 128.92C73.25 130.77 72.1 131.98 71.58 131.99C71.45 132 71.34 131.59 71.34 131.08ZM19.98 130.46C20.84 129.35 20.87 127.54 20.05 125.99C18.5 123.09 15.79 125.49 16.48 129.16C16.9 131.39 18.71 132.07 19.98 130.46ZM51.68 130.32C52.7 129.3 53 128.21 53 125.56C53 122.53 52.24 120.88 50.78 120.73C49.38 120.59 48.71 121.5 48.46 123.9C48.17 126.68 48.56 129.42 49.36 130.29C50.19 131.18 50.81 131.19 51.68 130.32ZM29.01 129.18C28.18 128.18 29 128 34.33 128C39.67 128 40.48 128.18 39.65 129.18C39.34 129.57 38.23 129.67 34.33 129.67C30.43 129.67 29.33 129.57 29.01 129.18ZM157.76 125.8C157.87 125.69 157.84 125.35 157.69 125.05C157.54 124.75 157.08 123.38 156.66 122C155.07 116.76 154.68 116 153.62 116C153.27 116 152.92 116.19 152.86 116.42C152.79 116.65 152.13 118.77 151.38 121.14C150.64 123.51 150.11 125.57 150.2 125.72C150.4 126.04 157.45 126.11 157.76 125.8ZM211.19 125.63C211.44 125.22 210.45 123.74 209.55 123.19C209.07 122.9 208.81 123.01 208.15 123.77C207.7 124.28 207.33 125 207.33 125.35C207.33 125.91 207.57 126 209.15 126C210.14 126 211.06 125.84 211.19 125.63ZM29 124.83L29 124L34.08 124.01C39.43 124.01 40.45 124.22 39.69 125.14C39.33 125.58 38.39 125.67 34.13 125.67L29 125.67L29 124.83ZM127.06 119.9C126.42 119.21 126.33 118.75 126.33 115.96C126.33 113.69 126.19 112.61 125.84 112.15C125.16 111.24 125.22 110.69 126.08 109.85C126.5 109.45 126.98 108.86 127.17 108.54C127.63 107.72 128.67 108.19 128.67 109.21C128.67 109.66 128.85 110.08 129.08 110.15C130.51 110.57 130.64 110.67 130.45 111.18C130.34 111.48 129.89 111.85 129.45 112.02C128.72 112.3 128.67 112.5 128.67 114.8C128.67 117.82 128.84 118.33 129.87 118.33C130.93 118.33 130.89 119.11 129.79 119.98C128.65 120.87 127.95 120.85 127.06 119.9ZM133.42 120.45C132.95 120.26 132.85 118.98 133.26 118.48C133.5 118.2 133.27 112.47 132.96 110.87C132.87 110.4 133.09 110.16 133.83 109.96C135.44 109.51 135.61 109.98 135.71 115.27C135.78 119.15 135.71 120.1 135.32 120.35C134.8 120.68 134.08 120.72 133.42 120.45ZM62.8 59.77C62.41 59.7 61.59 59.11 60.97 58.47C59.95 57.42 59.84 57.12 59.84 55.34C59.84 53.21 60.53 51.85 61.98 51.12C63.35 50.43 63.37 50.17 62.17 49C60.26 47.15 60.72 45.27 63.19 44.81C65.93 44.29 69.05 45.66 68.31 47.05C67.88 47.85 66.82 47.84 65.76 47C65.29 46.63 64.41 46.33 63.79 46.33C61.89 46.33 62.38 47.31 65.21 49.15C68.05 50.99 69.33 52.67 69.33 54.51C69.33 56.67 67.47 59.05 65.31 59.67C64.15 60.01 64.02 60.01 62.8 59.77ZM65.98 57.46C66.84 56.35 66.87 54.54 66.05 52.99C64.5 50.09 61.79 52.49 62.48 56.16C62.9 58.39 64.71 59.07 65.98 57.46Z" fill="#1e2749" fill-rule="evenodd"/>
</svg>
