<?xml version="1.0" encoding="UTF-8"?>
<svg xmlns="http://www.w3.org/2000/svg" viewBox="0 0 2430 1017" width="2430" height="1017" shape-rendering="geometricPrecision">
<path d="M391.5 947.31C385.06 945.56 379.98 937.91 378 926.99C376.59 919.23 376.56 898.3 377.94 894.64C379.18 891.4 383.39 890.99 384.98 893.96C385.55 895.04 386.43 903.1 386.93 911.88C387.89 928.74 389.36 934.42 393.81 938.36C395.59 939.95 396.39 940.06 399.12 939.11C403.51 937.58 408.72 933.45 410.36 930.2C411.24 928.47 411.95 921.93 412.35 912C413.08 893.7 413.43 892 416.49 892C421.02 892 421.48 893.98 421.82 915.13C422.15 934.71 421.13 945.18 418.78 946.64C417.76 947.26 415.52 945.06 414.71 942.63C414.48 941.95 411.95 942.56 407.93 944.25C401.23 947.06 394.92 948.24 391.5 947.31ZM320.53 945.29C319.28 942.2 317.89 904.22 318.41 887.44C318.94 870.27 319.82 866 322.82 866C326.62 866 327.71 868.96 328.31 880.89C328.62 887.15 329.27 892.67 329.76 893.16C330.27 893.67 332.51 893.37 335.07 892.46C337.51 891.59 342.29 890.83 345.69 890.77C350.8 890.67 352.57 891.11 355.82 893.26C363.14 898.11 366.99 910.59 365.04 923.16C363.69 931.91 362.16 935.61 357.89 940.47C351.64 947.6 343.47 948.85 332.35 944.4C328.78 942.98 325.78 941.96 325.68 942.15C323.12 947.09 321.62 948 320.53 945.29ZM452.33 945.96C446.09 944.72 442 942.3 442 939.85C442 937.83 442.3 937.77 449.25 938.51C458.72 939.51 461.62 939.3 464.58 937.36C467.05 935.74 468.67 931.9 467.61 930.18C467.29 929.66 462.86 926.42 457.76 922.97C444.63 914.09 442 911.42 442 907.02C442 905.04 443.01 901.42 444.25 898.96C447.09 893.34 455.37 888.59 461.08 889.31C465.32 889.85 476.27 894.99 476.77 896.68C477.38 898.73 473.23 900.08 464.46 900.7C459.79 901.03 455.19 901.88 454.24 902.59C451.13 904.91 454.56 908.9 465.03 915.13C479.88 923.97 482.11 929.2 475.22 939.08C470.02 946.53 464.16 948.29 452.33 945.96ZM348.97 936.03C355.65 928.88 355.64 908.48 348.95 901.8C344.79 897.63 336.39 898.6 331.7 903.78C327.88 908 327.18 927.34 330.65 932.8C332.84 936.25 338.02 938.99 342.35 939C345.33 939 346.82 938.33 348.97 936.03ZM2128.6 929.41C2126.25 923.3 2125.49 860.51 2127.69 853.5C2128.37 851.35 2129.35 850.41 2131.17 850.2C2134.66 849.78 2135.79 853.05 2136.41 865.4C2136.69 870.85 2137.35 875.75 2137.89 876.29C2138.53 876.93 2140.29 876.7 2142.95 875.63C2153.57 871.39 2165.24 875.54 2170.68 885.5C2172.95 889.65 2173.48 892.03 2173.8 899.5C2174.29 910.88 2171.86 918.19 2165.46 924.59C2158.47 931.58 2150.5 932.6 2139.3 927.94L2134.1 925.77L2131.72 928.54C2129.5 931.12 2129.28 931.18 2128.6 929.41ZM2196.72 929.85C2191.25 928.31 2187.38 923.98 2186.08 917.96C2184.74 911.67 2184.65 882.04 2185.98 878.57C2186.67 876.74 2187.68 876 2189.5 876C2193.23 876 2194.12 879.28 2195.04 896.5C2196.4 921.86 2200.54 927.91 2211.34 920.33C2217.66 915.9 2219.91 909.45 2220.03 895.5C2220.15 879.97 2220.87 876.58 2224.1 876.2C2229.18 875.61 2229.5 877.19 2229.5 903.13C2229.5 926.11 2229.42 927.02 2227.37 929.08C2224.88 931.56 2221.45 931 2220.48 927.95C2219.69 925.44 2217.63 925.48 2214.14 928.05C2210.83 930.5 2202.22 931.39 2196.72 929.85ZM2255.62 928.53C2250.87 926.83 2249.55 925.6 2250.34 923.57C2250.81 922.32 2252.6 922 2259 922C2277.74 922 2279.96 914.59 2263.81 905.98C2255.37 901.48 2251.19 897.54 2250.4 893.33C2249.61 889.12 2251.19 883.29 2254.15 879.53C2256.51 876.54 2263.77 873 2267.57 873C2270.41 873 2279.08 876.16 2282.65 878.51C2284.99 880.04 2285.05 880.29 2283.56 881.93C2282.34 883.28 2279.77 883.85 2272.82 884.3C2262.24 884.98 2259.9 886.29 2261.81 890.47C2262.45 891.88 2265.11 894.33 2267.73 895.93C2279.57 903.16 2281.28 904.47 2283.7 908.13C2288.69 915.67 2286.07 924.25 2277.6 928.09C2272.64 930.35 2261.35 930.57 2255.62 928.53ZM2156.97 919.25C2160.04 916.18 2160.91 914.37 2161.8 909.26C2163.6 899 2160.96 888.19 2155.78 884.56C2152.93 882.56 2149.09 882.58 2143.98 884.62C2137.94 887.04 2136.64 890.3 2136.56 903.18C2136.49 915.22 2137.63 917.97 2144.07 921.25C2149.5 924.02 2152.72 923.52 2156.97 919.25ZM179.99 800.97C157.73 798.31 146.89 783.47 149.12 758.74C150.17 747.13 153.92 739.1 161.56 732.12C168.34 725.92 172.54 724.57 185 724.54C196.29 724.52 204.36 726.67 208.89 730.9C212.37 734.15 212.56 734.85 210.69 737.41C209.44 739.12 209.08 739.1 202.44 737.04C192.48 733.93 179.47 733.21 174.66 735.49C169.67 737.86 163.89 744.63 161.74 750.61C159.6 756.59 159.46 767.23 161.46 772.89C165.02 782.99 173.55 790.88 183.11 792.93C193 795.05 198 790.27 198 778.7C198 771.28 196.75 769.57 190.5 768.45C185.07 767.48 183 766.28 183 764.08C183 761.54 185.62 761.03 198.63 761.01C211.89 761 210.97 759.77 210.98 777.5C210.99 787.73 210.7 789.98 209.01 792.76C205.56 798.41 201.49 800.11 188.5 801.35C186.85 801.5 183.02 801.34 179.99 800.97ZM239.56 799.88C227.62 797.08 222.01 783.97 224.99 765.89C226.64 755.92 230.13 749.59 235.4 747.06C251.58 739.27 271.43 749.03 272.79 765.45C273.34 772.07 271.08 774.95 265.25 775.08C263.19 775.13 255.99 775.48 249.25 775.87C234.92 776.69 232.82 777.73 234.97 782.92C236.51 786.64 243.04 792.72 246.41 793.57C247.77 793.91 253 793.65 258.04 792.99C264.83 792.11 267.5 792.1 268.33 792.93C273.14 797.74 252.12 802.82 239.56 799.88ZM290.78 798.25C289.41 795.03 289.04 758.17 290.31 750.75C291.2 745.57 292.27 744.98 295.44 747.92C297.48 749.82 297.57 749.81 303.5 747.34C311.8 743.88 319.48 743.3 324 745.79C331.43 749.87 334.5 760.31 334.5 781.55C334.5 793.31 334.21 796.03 332.73 798.3C331.75 799.78 330.34 801 329.6 801C326.46 801 325.67 797.81 324.84 781.86C323.98 765.15 322.31 758.48 318.24 755.39C314.24 752.35 304.54 754.72 301.4 759.51C299.97 761.7 299.54 765.35 299.07 779.49C298.57 794.61 298.26 797.06 296.6 798.9C294.02 801.74 292.18 801.54 290.78 798.25ZM358.5 800.28C349.01 797.98 342.86 783.2 345.17 768.29C347.65 752.36 355.35 745.02 369.62 745.01C383.43 744.99 392.92 753.82 392.98 766.73C393.01 774.45 391.51 775.15 373.74 775.64C357.31 776.1 355 776.46 355 778.59C355 781.05 359.88 788.72 363.24 791.55C366.3 794.12 366.38 794.13 378.66 793.43C387.15 792.95 391 793.06 391 793.79C391 795.77 385.94 798.85 380.91 799.93C375.93 800.99 362.32 801.21 358.5 800.28ZM410.79 798.75C409.35 796.23 408.92 753.71 410.28 748.75C411.19 745.45 413.33 745.2 415.4 748.16L416.92 750.32L422.85 747.16C431.58 742.51 436.02 743.25 437.63 749.64C438.5 753.13 436.74 754.45 431.6 754.13C423.3 753.62 420.53 759.97 419.15 782.77C418.45 794.26 417.93 797.42 416.48 799.02C414.14 801.61 412.37 801.52 410.79 798.75ZM460.28 800.03C452.64 798.22 449.13 792.32 450.44 783.54C451.88 773.92 457.01 770.31 471.14 768.99C476.08 768.52 480.77 767.61 481.56 766.95C483.69 765.19 483.36 759.36 481 757C479.24 755.24 477.67 755 468.07 755C456 755 452 754.04 452 751.16C452 745.83 476.75 743.13 485.5 747.5C487.7 748.6 490.03 750.63 490.69 752.01C493.71 758.39 495.43 797.17 492.8 799.8C491.44 801.16 465.78 801.34 460.28 800.03ZM523.21 799.49C518.08 797.26 516.91 793.12 516.06 774.02C515.65 764.91 514.81 756.51 514.19 755.36C513.58 754.21 511.76 753 510.16 752.68C508.56 752.36 506.96 751.35 506.61 750.42C505.81 748.35 507.64 746 510.05 746C512.74 746 516 741.24 516 737.3C516 732.6 517.59 730 520.48 730C523.65 730 526 733.5 526 738.22C526 743.08 528.79 746 533.43 746C537.6 746 542 747.56 542 749.03C542 750.59 535.64 753 531.51 753C528.56 753 527.77 753.46 526.92 755.71C525.65 759.05 527.26 786.75 528.9 789.82C529.77 791.43 531.16 791.96 535.15 792.2C542.03 792.6 543.76 795.02 539.69 798.56C537.48 800.49 535.8 800.99 531.69 800.96C528.84 800.94 525.02 800.28 523.21 799.49ZM560.5 799.55C555.32 797.67 550.35 791.92 548.48 785.63C544.11 770.89 550.44 751.29 561.21 746.25C568.54 742.83 571.35 742.64 579.49 745.06C591.52 748.63 597.8 755.41 600.04 767.21C602.06 777.86 596.7 791.45 588.11 797.49C584.16 800.27 583.1 800.52 574.17 800.75C567.66 800.92 563.19 800.53 560.5 799.55ZM611.79 798.75C610.34 796.22 609.9 753.65 611.27 748.75C612.23 745.33 616.01 745.01 619.09 748.09L621.18 750.18L626.98 747.09C630.17 745.39 633.95 744 635.39 744C638.96 744 642.2 747.43 641.81 750.81C641.52 753.34 641.13 753.53 635.35 754C631.28 754.33 628.5 755.14 627.12 756.39C623.17 759.97 620.94 768.39 620.11 782.95C619.68 790.42 618.79 797.53 618.13 798.76C616.59 801.64 613.43 801.63 611.79 798.75ZM479.31 789.04C482.53 785.58 483.07 784.38 482.81 781.23C482.53 777.89 482.1 777.37 478.69 776.26C474.4 774.86 468.56 775.75 464.48 778.42C461.55 780.34 461.12 785.39 463.48 789.96C465.32 793.53 466.49 794.05 471.5 793.53C474.61 793.21 476.34 792.22 479.31 789.04ZM579.12 792.24C582.72 789.84 586.74 784.88 588.51 780.62C593.49 768.7 585 754.38 572.32 753.32C562.1 752.47 558.72 757.41 559.21 772.51C559.46 780.36 559.97 783.27 561.57 786C565.73 793.12 573.6 795.92 579.12 792.24ZM2040.79 782.75C2039.81 781.04 2039.5 772.46 2039.5 747C2039.5 728.58 2039.85 712.26 2040.27 710.75C2040.69 709.24 2041.66 708 2042.42 708C2046.02 708 2047.86 724.03 2048.13 757.69C2048.28 776.97 2048.09 780.22 2046.63 782.44C2044.56 785.6 2042.48 785.71 2040.79 782.75ZM2069.8 782.75C2068.25 779.99 2067.35 739.29 2068.72 734L2069.63 730.5L2076.68 730.85C2081.73 731.09 2084.6 730.74 2086.82 729.6C2088.51 728.72 2091.63 728 2093.75 728C2098.36 728 2107.24 732.19 2109.3 735.34C2111.96 739.4 2113.33 749.26 2113.37 764.61C2113.41 777.43 2113.15 780.13 2111.64 782.42C2107.67 788.48 2104.04 783.29 2104.01 771.5C2103.97 760.29 2102.23 746.29 2100.38 742.39C2098.51 738.44 2093.98 736.57 2089.43 737.88C2084.58 739.27 2080.31 741.78 2079.49 743.71C2079.07 744.7 2078.43 753.47 2078.05 763.21C2077.47 778.42 2077.12 781.21 2075.53 782.96C2073.14 785.61 2071.38 785.54 2069.8 782.75ZM2132.28 783.75C2130.31 781.21 2129.97 778.4 2129.48 760.64C2129.21 750.66 2128.5 741.32 2127.92 739.87C2127.25 738.22 2125.69 736.91 2123.68 736.34C2121.22 735.63 2120.5 734.87 2120.5 732.98C2120.5 731.32 2121.14 730.41 2122.5 730.16C2126.47 729.44 2128.79 726.05 2129.97 719.25C2132.04 707.36 2134.46 705.13 2146.24 704.24C2154.31 703.63 2157.19 705.02 2154.36 708.16C2153.42 709.19 2150.97 710.3 2148.9 710.63C2143.46 711.5 2140.76 714.84 2140.22 721.36C2139.83 726.12 2140.04 726.91 2142.11 728.36C2143.39 729.26 2145.64 730 2147.1 730C2148.56 730 2150.32 730.67 2151 731.5C2152.87 733.76 2150.67 735.78 2145.47 736.56C2140.12 737.36 2140.31 736.58 2139.44 760.5C2138.77 778.73 2137.55 785 2134.67 785C2133.89 785 2132.81 784.44 2132.28 783.75ZM2166.76 782.25C2165.38 779.06 2165.01 739.81 2166.31 733.69C2167.02 730.3 2167.41 729.91 2169.81 730.19C2174.4 730.72 2175.19 735.36 2174.82 759.65C2174.53 778.78 2174.32 780.99 2172.6 782.9C2170.02 785.74 2168.18 785.54 2166.76 782.25ZM2196.49 783.98C2194.02 779.99 2193.67 738.62 2196.05 732.37C2197.18 729.41 2201.16 729.19 2203.74 731.95C2205.53 733.87 2205.64 733.85 2213.03 730.47C2217.14 728.58 2221.69 727.03 2223.14 727.02C2226.16 727 2234.43 732.35 2237.28 736.18C2240.32 740.24 2242.01 749.32 2242.68 765.2C2243.22 777.94 2243.08 780.23 2241.63 782.45C2240.47 784.21 2239.06 785 2237.05 785C2231.14 785 2230.57 783.16 2229.04 758.98C2228.54 751 2227.67 743.26 2227.11 741.79C2225.89 738.57 2223.22 737 2218.97 737C2209.09 737 2204.28 748.15 2204.09 771.49C2204.04 777.67 2203.6 780.06 2202.16 781.99C2200.06 784.8 2197.54 785.69 2196.49 783.98ZM2257.79 782.75C2256.34 780.22 2255.9 737.65 2257.27 732.75C2257.85 730.69 2258.66 730 2260.54 730C2264.88 730 2265.48 733.31 2265.49 757.54C2265.5 776.98 2265.29 779.91 2263.73 782.29C2261.57 785.59 2259.5 785.75 2257.79 782.75ZM2295 783.25C2290.37 780.94 2289.13 776.04 2288.33 757C2287.99 749.02 2287.33 741.47 2286.86 740.2C2286.4 738.94 2284.41 737.23 2282.44 736.41C2279.66 735.25 2278.94 734.43 2279.19 732.71C2279.38 731.31 2280.32 730.38 2281.73 730.18C2284.7 729.76 2288 725.41 2288 721.93C2288 720.39 2288.45 717.95 2289 716.5C2289.84 714.3 2290.52 713.92 2293.23 714.19C2296.65 714.52 2297.34 715.67 2298.48 723C2299.31 728.28 2300.2 729.06 2306.39 729.9C2313.21 730.83 2315.41 732.46 2312.61 734.53C2311.58 735.29 2308.65 736.2 2306.11 736.53C2298.16 737.59 2298.69 736.24 2299.24 754.27C2299.79 772.09 2300.68 776 2304.23 776.01C2305.48 776.01 2308.22 776.49 2310.31 777.07C2313.4 777.93 2314.06 778.54 2313.81 780.29C2313.64 781.48 2312.38 783.02 2311 783.71C2307.39 785.53 2299.08 785.29 2295 783.25ZM2334.32 783.9C2323.88 780.88 2318.07 761.61 2322.9 746.06C2326.65 734.03 2333.61 728.75 2345.74 728.75C2359.21 728.75 2369.43 737.8 2369.43 749.73C2369.43 758.1 2368.47 758.57 2349.83 759.27C2333.94 759.86 2331 760.36 2331 762.45C2331 763.13 2332.74 766.38 2334.86 769.67C2340.15 777.84 2342.07 778.53 2355.4 777.01C2361.17 776.36 2366.4 776.13 2367.02 776.51C2368.99 777.73 2363.96 781.94 2358.63 783.52C2353.15 785.14 2339.37 785.36 2334.32 783.9ZM261.67 766.76C262.83 765.6 262.68 764.71 260.72 760.94C255.71 751.38 242.75 750.15 236.09 758.61C230.62 765.57 236.97 769.3 252.9 768.5C257.38 768.28 260.84 767.59 261.67 766.76ZM380.61 766.52C384.94 763.68 382.85 758.49 375.97 754.99C368.22 751.03 359.96 753.35 356.6 760.42C353.18 767.63 355.72 769.18 369.86 768.49C375.16 768.23 379.1 767.51 380.61 766.52ZM2355.99 750.63C2363.45 747.2 2355.27 737 2345.06 737C2338.97 737 2335.16 739.38 2332.84 744.63C2330.4 750.13 2331.34 751.72 2337.33 752.28C2343.27 752.83 2353.07 751.97 2355.99 750.63ZM2167.13 717.65C2166.51 716.91 2165.74 714.96 2165.41 713.32C2164.3 707.76 2170.27 704.97 2175.02 708.82C2176.9 710.34 2177.08 710.98 2176.14 712.74C2174.98 714.91 2170.3 719 2168.99 719C2168.58 719 2167.74 718.39 2167.13 717.65ZM2257.56 716.78C2254.39 712.25 2256.11 707 2260.77 707C2267.23 707 2268.81 711.34 2264.08 716.08C2260.57 719.58 2259.6 719.69 2257.56 716.78ZM1559.35 715.46C1558.56 713.41 1559.74 647.71 1560.64 643.67C1561.39 640.29 1563.6 639.17 1565.6 641.17C1568.04 643.61 1568.94 653.39 1569.23 680.5L1569.5 706.5L1582.17 707.06C1594.64 707.62 1598 708.55 1598 711.47C1598 712.14 1597.05 713.55 1595.9 714.6C1594.04 716.28 1591.83 716.54 1576.9 716.83C1561.71 717.13 1559.94 717 1559.35 715.46ZM1612.76 714.25C1611.38 711.07 1611.01 671.82 1612.3 665.75C1612.95 662.67 1613.52 662 1615.51 662C1620.01 662 1620.5 664.65 1620.5 689.04C1620.5 708.94 1620.29 711.91 1618.73 714.29C1616.46 717.75 1614.27 717.74 1612.76 714.25ZM1635.79 714.75C1634.25 712.07 1633.4 672.84 1634.74 666.5C1635.45 663.1 1636 662.45 1638.39 662.17C1640.18 661.97 1641.99 662.58 1643.35 663.85L1645.5 665.84L1651.46 663.32C1659.24 660.02 1666.93 660.37 1672.83 664.27C1676.32 666.58 1677.01 667.68 1678.14 672.71C1679.81 680.19 1679.8 702.96 1678.12 709.7C1675.78 719.1 1671.89 719.09 1670.15 709.67C1669.63 706.83 1668.72 699.1 1668.13 692.5C1666.92 678.8 1665.69 673.69 1662.94 670.94C1658.81 666.81 1650.62 670.13 1646.78 677.5C1645.05 680.81 1644.57 684.13 1644 696.69C1643.47 708.35 1642.91 712.48 1641.63 714.44C1639.56 717.6 1637.47 717.71 1635.79 714.75ZM1712.32 715.9C1702.24 712.98 1696.34 694.59 1700.48 679.02C1703.74 666.77 1711.14 661 1723.6 661C1737.72 661 1747.29 669.38 1747.14 681.61C1747.04 690.21 1746.84 690.3 1727.47 691.18C1718.38 691.59 1710.5 692.19 1709.97 692.52C1708.29 693.56 1708.89 695.34 1713.04 701.69C1718.05 709.36 1720.69 710.47 1730.58 709.04C1739.06 707.81 1746 707.72 1746 708.83C1746 710.93 1740.58 714.36 1735.31 715.6C1728.78 717.14 1717.12 717.29 1712.32 715.9ZM1790.5 716.33C1784.78 715.07 1783 713.77 1783 710.83C1783 708.48 1785.05 705.75 1793.45 696.96C1799.2 690.94 1805.7 682.97 1807.91 679.26C1812.38 671.71 1815.22 662.35 1814.35 658.01C1812.88 650.64 1803.99 648.12 1792.95 651.94C1787.49 653.83 1786.49 653.92 1785.24 652.67C1784.32 651.75 1784.05 650.42 1784.49 649.03C1785.45 646.02 1793.33 641.22 1798.63 640.43C1804.18 639.6 1814.49 641.52 1819.58 644.33C1824.31 646.96 1828 653.6 1828 659.49C1828 666.78 1817.31 686.05 1807.06 697.26C1803.98 700.61 1802.02 703.6 1802.33 704.43C1802.67 705.31 1805.07 706.08 1808.69 706.47C1811.88 706.82 1817.51 707.8 1821.18 708.64C1831.91 711.11 1833.8 713.85 1826.21 715.96C1822.65 716.95 1794.64 717.24 1790.5 716.33ZM1733.99 682.71C1738.93 680.21 1737.44 674.74 1730.81 671.01C1727.64 669.23 1725.71 668.86 1721.47 669.21C1715.15 669.73 1713.33 671.03 1710.76 676.81C1707.9 683.26 1709 684 1721.37 683.99C1727.51 683.98 1732.48 683.47 1733.99 682.71ZM380.04 663.55C377.61 660.62 377.05 642.2 376 531.54C375.33 460.64 374.57 418.35 373.96 417.98C372.92 417.33 331.12 416.58 293.51 416.53L270.51 416.5L269.76 422.48C266.6 447.73 254.41 470.85 233.24 491.73C222.74 502.09 207.27 512.48 196.9 516.15C176.47 523.38 143.55 524.64 121.62 519.03C89.07 510.71 51.75 473.07 43.99 440.74C39.6 422.47 40.48 387.13 45.7 372.61C56.23 343.29 79.18 317.69 106.37 304.95C118.11 299.45 124.95 298.11 145 297.39C165.25 296.66 185.01 298.08 193.03 300.84C208.49 306.16 222.29 315.44 236.27 329.9C257.28 351.65 270 376.42 270 395.6C270 399.06 270.35 402.1 270.77 402.36C271.98 403.11 373.42 400.98 374.21 400.19C374.6 399.8 375.41 349.76 375.99 288.99C376.97 188.52 377.64 164.01 379.49 161.02C380.29 159.72 385.57 159.7 387.96 160.98C392.34 163.32 392.31 162.64 392.71 284.5C392.92 348.3 393.29 401.08 393.53 401.78C393.87 402.81 403.17 402.96 440.23 402.55C465.68 402.26 524.08 401.78 570 401.47C652.33 400.92 681.13 400.04 688 397.84C693.32 396.13 699.93 390.98 702.53 386.51C705.48 381.43 707.34 371.14 706.47 364.79C705.34 356.57 701.34 352.47 687.61 345.48C675.34 339.23 672 336.43 672 332.41C672 329.48 674.7 327.65 683.06 324.9C694.32 321.22 699.84 317.15 703.78 309.63C706.09 305.23 706.47 303.29 706.47 296C706.48 289.21 706.04 286.69 704.33 283.5C700.8 276.92 694.06 271.54 687.27 269.88C685.2 269.37 666.85 268.3 646.5 267.5C600.08 265.67 595 264.73 595 258C595 254.69 597.4 252.49 602 251.59C606.4 250.73 655.4 250.76 680.16 251.64L698.83 252.3L707.79 262.2C722.64 278.61 726.91 290.32 723.55 305.43C722.18 311.58 720.67 314.86 715.96 321.9C712.73 326.73 709.39 331.26 708.54 331.97C706.2 333.91 706.58 334.87 712.05 340.64C719.67 348.71 723.18 357.05 723.78 368.59C724.53 382.9 721.32 392.11 712.05 402.25C709.27 405.29 707 408.1 707 408.49C707 408.89 709.05 411.49 711.56 414.28C721.1 424.89 724.54 434.66 723.76 448.96C723.14 460.19 720.33 467.34 713.42 475.28C710.44 478.69 708 482.07 708 482.79C708 483.5 710.34 487.56 713.21 491.8C722.7 505.83 725.65 518.49 722.61 532.11C720.59 541.19 716.65 548.27 709.94 554.87C700.34 564.32 692.16 566.36 658 567.87C637.48 568.77 606.25 567.88 600.5 566.22C593.95 564.34 593.26 555.65 599.5 553.71C601.15 553.2 620.5 552.4 642.5 551.93C664.5 551.47 684.22 550.66 686.32 550.13C688.41 549.61 691.93 547.93 694.13 546.41C702.68 540.49 706.94 532.85 706.98 523.41C707.03 507.96 700.09 498.72 684.71 493.77C680.84 492.52 676.4 490.31 674.84 488.85C669.5 483.87 671.88 479.64 681.74 476.59C698.29 471.48 706.28 461.46 706.21 445.92C706.17 435.78 703.88 430.53 697.2 425.25C687.51 417.59 684.41 417.45 507.75 416.39L393 415.7L392.98 513.6C392.96 619.61 392.44 654.99 390.83 659.2C388.96 664.1 382.62 666.65 380.04 663.55ZM1141.23 658.2C1140.53 657.74 1139.56 654.91 1139.07 651.93C1138.59 648.94 1137.9 603.52 1137.55 551C1136.85 446.98 1136.41 419.08 1135.46 418.12C1134.36 417.02 865.84 417.79 845.61 418.95C824.94 420.14 814.54 422 810.41 425.25C806.36 428.43 802.81 437.31 802.24 445.67C801.83 451.62 802.11 453.6 803.88 457.25C808.51 466.81 816.47 473.17 828.14 476.63C835.44 478.8 838 480.69 838 483.93C838 488.25 830.88 494 825.53 494C820.1 494 812.79 499.43 807.18 507.63C804.75 511.18 802 520.79 802 525.74C802 530.3 805.91 537.39 812.21 544.27L817.5 550.04L847.5 551.03C887.58 552.37 906.47 553.64 909.77 555.22C913.54 557.03 913.54 561.51 909.76 564.33C907.19 566.25 905.19 566.41 878.26 566.94C842.31 567.64 823.62 566.84 815.4 564.23C795.51 557.94 782.78 536.6 785.89 514.76C787.17 505.75 790.82 498.13 796.95 491.65C799.73 488.71 802 485.78 802 485.14C802 484.5 799.9 481.39 797.33 478.24C788.78 467.75 784.12 453.69 785.34 442.07C786.54 430.49 792.98 417.93 799.95 413.53C802.18 412.13 804 410.55 804 410.03C804 409.5 801.61 406.39 798.68 403.11C795.75 399.83 791.84 394.3 789.98 390.82C787.06 385.35 786.55 383.32 786.18 375.72C785.41 359.84 789.24 347.85 798.08 338.51L803.26 333.03L796.49 325.3C792.76 321.05 789.07 316.01 788.27 314.1C786.26 309.3 786.93 284.36 789.23 278.13C791.9 270.92 796.96 264.51 803.42 260.16C816.7 251.21 821.9 250.5 867.36 251.35C902.87 252.02 910.52 252.66 912.13 255.14C913.99 257.99 912.61 261.44 908.89 263.26C905.93 264.71 899.79 265.29 874.39 266.49C857.4 267.3 841.02 268.22 838 268.54C817.36 270.71 812.34 272.34 807.24 278.53C798.71 288.88 800.8 305.45 812.08 316.82C817.41 322.19 820.63 323.88 827.73 325.04C837.41 326.61 840.52 331.86 835.38 337.96C832.19 341.75 829.19 343.34 822 345.02C817.39 346.1 815.58 347.25 810.81 352.12C803.14 359.95 801.13 365.94 802.89 375.77C804.68 385.81 808.65 392.17 814.76 394.8C827.38 400.23 850.04 400.96 1006.21 400.98C1128.22 401 1134.98 400.91 1135.87 399.23C1136.44 398.17 1136.87 365.17 1136.94 316.48C1137.05 241.67 1138.16 177.86 1139.54 167C1140.77 157.38 1142.14 153 1143.93 153C1146.22 153 1149.54 156.65 1151.5 161.33C1153.39 165.86 1154.93 184.91 1154.97 204.25L1155 218L1704.38 218C2142.67 218 2253.96 217.75 2254.77 216.75C2255.39 215.99 2255.98 202.98 2256.28 183.5C2256.55 165.9 2257.1 150.49 2257.5 149.25C2258.42 146.43 2263.89 146.12 2266.28 148.75C2269.6 152.43 2270.07 156.67 2271.03 191.89C2272.03 228.49 2272.46 584.76 2271.53 604.49C2271.25 610.55 2270.77 621.58 2270.48 629C2269.86 644.43 2268.84 649.25 2265.48 652.61C2262.64 655.45 2260.42 655.66 2259.12 653.22C2257.1 649.45 2256 634.9 2256 611.93L2256 588L1705.5 588L1155 588L1154.94 603.25C1154.82 637.89 1153.55 651.91 1150.19 655.97C1148.3 658.23 1143.18 659.51 1141.23 658.2ZM1616 650.25C1613.52 649.46 1612 646.81 1612 643.31C1612 640.21 1612.21 640 1615.43 640C1619.76 640 1623.55 644.11 1621.96 647.08C1620.7 649.42 1617.97 650.88 1616 650.25ZM2255.75 403.06C2255.91 296.35 2255.66 235.41 2255.04 235.03C2254.26 234.54 1171.59 234.38 1158.75 234.86L1155 235L1155 403L1155 571L1705.25 570.75L2255.5 570.5L2255.75 403.06ZM163.4 511.97C189.25 509.87 210.01 500.21 228.62 481.61C242.52 467.73 253.39 449.14 256.64 433.73C258.71 423.88 258.06 385.85 255.69 378.79C251.18 365.3 242.22 351.27 230.06 338.65C206.8 314.53 187.18 306.89 148 306.72C130.73 306.64 126.43 307.67 110.86 315.62C87.75 327.43 69.37 345.92 59.51 367.27C53.24 380.87 52.54 385.09 52.52 409.5C52.5 434.93 52.61 435.46 62.01 454.5C72.81 476.37 88.16 492.04 108.5 501.94C121.19 508.11 131.59 510.93 147 512.36C148.93 512.53 150.55 512.75 150.6 512.84C150.66 512.93 156.42 512.54 163.4 511.97ZM180 455.25C168.39 452.1 161.95 447.05 154.69 435.37C150.52 428.65 147.34 420.13 145.16 409.83C144.04 404.51 142.21 398.36 141.09 396.17C138.44 390.99 132.93 386.52 127.2 384.92C121.4 383.29 108.64 383.27 103.82 384.88C98.99 386.49 93.44 392.75 89.88 400.61C88.3 404.08 86.06 407.43 84.9 408.05C81.62 409.81 74.47 409.54 71.44 407.55C68.94 405.92 68.79 405.42 69.34 400.75C70.48 391.18 82.37 373.79 91.37 368.53C96.46 365.56 111.94 361 116.86 361.01C121.81 361.03 135.81 366.03 141.95 369.97C148.84 374.39 156.3 382.82 159.92 390.28C161.59 393.7 164.07 401.34 165.45 407.25C166.83 413.16 168.87 419.78 169.98 421.97C174.76 431.33 182.14 436.75 191.43 437.71C198.14 438.4 203.2 435.9 211.83 427.61C218.44 421.27 221 417.5 221 414.12C221 410.1 223.79 408.76 231.28 409.19C236.65 409.49 238.53 410.01 239.61 411.48C246.08 420.33 227.35 447.54 210.31 454.02C202.28 457.08 188.77 457.63 180 455.25ZM1559.37 158.51C1558.6 156.51 1559.72 90.94 1560.61 86.28C1561.25 82.9 1564.37 80.97 1566.21 82.81C1568.22 84.82 1568.97 93.55 1569.03 115.82C1569.07 128.29 1569.36 141.09 1569.68 144.25L1570.26 150L1580.98 150C1596.62 150 1601.53 152.5 1595.9 157.6C1594.04 159.28 1591.81 159.54 1576.9 159.85C1561.78 160.16 1559.95 160.02 1559.37 158.51ZM1613.27 157.29C1611.72 154.92 1611.5 152.01 1611.5 133.54C1611.5 108.94 1612.04 105 1615.42 105C1620.19 105 1620.5 106.61 1620.5 131.45C1620.5 151.92 1620.3 154.9 1618.73 157.29C1616.5 160.69 1615.5 160.69 1613.27 157.29ZM1635.79 157.75C1634.25 155.07 1633.4 115.84 1634.74 109.5C1635.47 106 1635.96 105.46 1638.62 105.2C1640.47 105.02 1642.18 105.51 1642.96 106.45C1644.77 108.63 1646.23 108.42 1653 105C1661.24 100.84 1665.38 101 1671.42 105.7C1674.02 107.73 1676.98 110.99 1677.97 112.95C1680.39 117.69 1681.95 128.84 1682.25 143.64C1682.47 154.38 1682.28 156.02 1680.6 157.89C1678.45 160.26 1675.22 160.62 1672.68 158.75C1670.55 157.19 1669.34 149.94 1668.11 131.2C1666.95 113.61 1666.19 112 1659.05 112C1648.79 112 1645.3 118.65 1644.01 140.65C1643.17 154.95 1642.37 158.26 1639.45 159.38C1637.2 160.25 1637.22 160.25 1635.79 157.75ZM1714.12 159C1709 157.79 1705.8 154.9 1702.5 148.47C1699.75 143.11 1699.5 141.8 1699.5 132.47C1699.5 122.81 1699.68 121.95 1703 115.45C1705.97 109.65 1707.23 108.23 1711.28 106.15C1727.47 97.84 1747.06 107.67 1747.31 124.22C1747.37 127.95 1746.87 129.57 1745.17 131.28C1743.12 133.33 1741.73 133.54 1726.94 134.08C1717.58 134.42 1710.49 135.11 1709.86 135.74C1708.39 137.21 1712.25 144.89 1716.55 149.05C1720.25 152.64 1722.46 152.92 1736.25 151.6C1743.94 150.86 1745 150.96 1745 152.36C1745 157.5 1725.52 161.69 1714.12 159ZM1793.5 159.4C1792.4 159.14 1790.49 158.71 1789.25 158.44C1786.74 157.91 1786.21 154.9 1788.31 153.16C1789.03 152.56 1792.29 151.39 1795.56 150.55C1798.83 149.7 1802.22 148.15 1803.1 147.08C1806.42 143.08 1806.63 100.6 1803.34 97.87C1802.3 97 1800.6 97.36 1796.11 99.37C1788.72 102.69 1787 102.72 1787 99.56C1787 96.25 1790.16 92.95 1798.5 87.54C1805.9 82.75 1810.71 81.75 1813.02 84.53C1814.62 86.45 1815.85 104.12 1815.94 126.28C1816.01 146.83 1816.71 149.19 1823.2 150.82C1825.64 151.43 1828.39 152.78 1829.32 153.81C1830.92 155.57 1830.9 155.78 1828.94 157.55C1827.13 159.2 1824.93 159.46 1811.18 159.66C1802.56 159.78 1794.6 159.67 1793.5 159.4ZM1734.05 125.47C1737.4 123.74 1737.91 120.74 1735.44 117.22C1733.05 113.8 1728.65 112 1722.68 112C1716.19 112 1713.23 113.96 1710.48 120.04C1708.63 124.15 1708.63 124.26 1710.49 125.61C1713.21 127.61 1730.12 127.51 1734.05 125.47ZM1613.73 92.87C1611.53 91.64 1610.39 85.43 1612.01 83.49C1614.63 80.33 1623 82.92 1623 86.88C1623 88.74 1619.59 92.32 1616.94 93.25C1616.08 93.55 1614.64 93.38 1613.73 92.87Z" fill="#1e2749" fill-rule="evenodd"/>
</svg>
