<?xml version="1.0" encoding="UTF-8"?>
<svg xmlns="http://www.w3.org/2000/svg" viewBox="0 0 305 233" width="305" height="233" shape-rendering="geometricPrecision">
<path d="M57.13 219.63C56.52 218.95 56.5 217.58 56.42 169.38C56.37 142.13 56.34 103.99 56.33 84.63L56.33 49.43L52.08 49.5C49.75 49.55 47.57 49.6 47.25 49.62C46.71 49.66 46.67 50.27 46.67 57.26C46.67 63.7 46.59 64.97 46.13 65.62C45.71 66.22 45.4 66.34 44.72 66.17C44.23 66.05 43.73 65.77 43.59 65.56C43.46 65.34 43.34 61.68 43.34 57.42L43.33 49.67L39.81 49.67C36.39 49.67 35 49.36 35 48.61C35 48.41 36.08 46.35 37.39 44.04C39.63 40.09 40.98 37.64 43.53 32.83C44.32 31.35 44.8 30.81 45.39 30.73C46.08 30.65 46.39 31.01 47.68 33.36C48.5 34.86 49.47 36.63 49.85 37.29C50.22 37.96 51.71 40.65 53.14 43.27C54.68 46.09 55.87 47.93 56.05 47.75C56.21 47.59 56.38 41.22 56.42 33.61C56.51 18.76 56.52 18.67 58.2 18.67C58.63 18.67 59.13 18.96 59.32 19.31C59.56 19.75 59.67 36.12 59.67 69.94C59.67 110.85 59.75 119.98 60.11 120.28C60.49 120.6 86.4 120.63 154.33 120.4C173.33 120.33 256.34 120.92 256.75 121.12C257.49 121.48 257.51 122.78 256.78 123.38C256.32 123.76 247.96 123.86 206.37 124L156.5 124.17L156.42 165.44C156.36 192.81 156.45 206.64 156.67 206.5C156.85 206.39 158.06 204.17 159.35 201.56C160.63 198.96 162.49 195.63 163.46 194.17C164.44 192.7 165.67 190.8 166.2 189.95C168.23 186.7 171.17 182.42 172.72 180.45C173.61 179.33 174.33 178.31 174.33 178.19C174.33 177.58 181.23 168.88 183.21 167C184.46 165.81 188.41 161.97 191.99 158.46C198.86 151.74 201.69 149.57 209.01 145.43C210.93 144.34 213.56 142.77 214.84 141.94C217.99 139.91 220.63 138.33 220.9 138.33C221.02 138.33 222.31 137.72 223.76 136.97C226.3 135.67 228.17 134.93 231.83 133.8C232.75 133.51 234.25 133 235.17 132.67C240.32 130.77 246.09 129.14 251.75 127.96C253.94 127.5 255.33 127.89 255.33 128.94C255.33 130.26 254.08 130.88 249.5 131.83C248.03 132.14 242.52 133.8 237.24 135.53C228.07 138.53 221.73 141.22 218.5 143.47C217.95 143.85 217.2 144.35 216.83 144.57C216.47 144.79 213.62 146.49 210.5 148.35C207.38 150.22 203.87 152.44 202.69 153.29C199.38 155.67 181.97 173.04 179.93 176C178.98 177.38 177.4 179.69 176.42 181.14C175.44 182.59 173.96 184.65 173.15 185.72C172.33 186.8 171.67 187.79 171.67 187.94C171.67 188.08 170.96 189.17 170.09 190.35C169.23 191.53 168.14 193.18 167.68 194.02C167.21 194.85 166.31 196.25 165.67 197.12C165.02 198 162.62 202.43 160.33 206.97C158.04 211.52 155.95 215.49 155.7 215.8C155.42 216.13 154.87 216.33 154.36 216.27C153.63 216.18 153.25 215.65 151.83 212.76C150.92 210.89 149.95 208.87 149.69 208.26C147.95 204.29 145.73 199.89 143.5 196C142.08 193.53 140.54 190.82 140.07 190C139.6 189.17 138.72 187.79 138.11 186.92C137.5 186.05 137 185.27 137 185.19C137 184.97 134.05 180.21 131.82 176.83C130.73 175.18 128.86 172.66 127.67 171.23C126.47 169.8 124.55 167.47 123.39 166.06C119.64 161.51 108.89 150.99 105.62 148.67C103.94 147.47 100.99 145.17 99.07 143.54C92.3 137.79 85.33 133.85 71.83 128.13C69.45 127.12 67.2 126.16 66.83 125.99C64.74 125.03 62.5 124.34 61.25 124.26L59.83 124.17L59.67 171.7C59.49 221.36 59.52 220.33 58.18 220.33C57.95 220.33 57.48 220.02 57.13 219.63ZM152.9 164.91L152.83 124.17L112.56 124.08C84.21 124.02 72.31 124.1 72.4 124.35C72.46 124.55 75.06 125.87 78.17 127.3C89.82 132.63 94.85 135.61 100.89 140.73C103.12 142.62 106.29 145.12 107.93 146.28C113.81 150.44 128.84 166.57 133.93 174.18C134.79 175.48 135.98 177.14 136.56 177.87C137.15 178.61 137.82 179.65 138.06 180.19C138.52 181.23 141.79 186.62 143.31 188.83C143.81 189.57 144.45 190.62 144.74 191.17C145.02 191.72 145.95 193.44 146.8 195C147.66 196.56 149.25 199.68 150.35 201.94C151.44 204.19 152.48 205.95 152.65 205.84C152.85 205.72 152.94 190.45 152.9 164.91ZM269.33 152.71C269.33 149.58 269.22 148.32 268.9 148.05C268.6 147.81 265.36 147.72 258.7 147.78C251.97 147.84 248.79 147.75 248.44 147.5C248.16 147.29 247.99 146.77 248.05 146.31L248.17 145.5L258.31 145.41C265.11 145.35 268.59 145.2 268.89 144.95C269.22 144.68 269.33 143.49 269.33 140.46C269.33 136.55 269.37 136.33 270 136.33C270.37 136.33 272.51 137.36 274.75 138.61C277 139.86 279.81 141.42 281 142.06C287.43 145.55 288.33 146.1 288.33 146.51C288.33 146.76 288 147.21 287.58 147.51C285.98 148.66 270.47 156.99 269.92 157C269.39 157 269.33 156.57 269.33 152.71ZM231.19 154.23C230.56 153.76 230.73 152.94 232.81 146.33C233.8 143.18 233.79 142.99 232.68 142.57C230.68 141.81 231.94 140.74 235 140.59C237.03 140.49 236.91 140.28 236.48 143.17L236.28 144.5L238.34 142.4C240.21 140.49 240.51 140.31 241.62 140.4C242.7 140.49 242.84 140.61 242.93 141.52C243.04 142.61 241.97 144.33 241.18 144.33C240.94 144.33 240.5 143.96 240.2 143.5C239.9 143.04 239.47 142.67 239.24 142.68C238.43 142.7 234.97 148.8 234.14 151.67C233.34 154.42 232.48 155.17 231.19 154.23ZM36.97 133.01C34.98 132.66 33.62 131.94 32.55 130.66C31.77 129.74 31.5 129.03 30.89 126.39C30.69 125.51 31.36 122.01 32.03 120.5C32.61 119.17 34.63 116.35 35.67 115.42C39.28 112.17 43.6 110.99 47.54 112.16C51.27 113.27 53.31 117.84 51.87 121.87C49.84 127.6 46.28 131.28 41.53 132.6C39.1 133.27 38.68 133.31 36.97 133.01ZM40.42 131.27C41.86 130.84 45.02 128.17 45.81 126.72C48.03 122.66 48.84 119.9 48.58 117.22C48.45 115.82 48.22 115.36 47.21 114.44C46.14 113.45 45.8 113.33 44.07 113.33C42.51 113.33 41.84 113.52 40.62 114.29C37.09 116.53 34.67 121.32 34.67 126.07C34.67 129.15 35.48 130.8 37.24 131.26C38.96 131.72 38.92 131.72 40.42 131.27ZM145.42 118.75C144.26 118.55 144.45 117.46 145.68 117.21C146.5 117.05 146.85 116.68 147.51 115.26C147.96 114.29 148.33 113.24 148.33 112.93C148.33 112.62 148.47 112.02 148.64 111.6C149 110.71 149.98 107.46 151.19 103.17L152.04 100.17L151.02 99.31C149.01 97.62 149.63 97.33 155.29 97.33C159.03 97.33 159.7 97.42 160.99 98.08C162.79 99 163.66 100.14 163.89 101.89C164.21 104.22 162.2 107.05 159.42 108.22C158.82 108.47 158.33 108.77 158.33 108.89C158.33 109.3 159.76 113.19 160.54 114.94C161.16 116.3 161.61 116.82 162.5 117.19C164.57 118.05 163.76 118.92 160.89 118.91C158.55 118.9 158.42 118.76 156.96 114.3C155.5 109.86 154.92 108.86 153.74 108.73C152.7 108.62 152.69 108.64 151.01 114.18C150.45 116.05 150.65 117.14 151.58 117.27C152.38 117.39 152.59 118.13 151.94 118.54C151.51 118.8 146.64 118.96 145.42 118.75ZM157.1 106.88C157.69 106.64 158.66 105.88 159.26 105.2C160.15 104.19 160.33 103.7 160.33 102.39C160.33 100.42 159.91 99.83 158.04 99.18C155.96 98.45 155.78 98.51 155.23 100.08C154.05 103.53 153.29 106.42 153.46 106.86C153.7 107.47 155.67 107.48 157.1 106.88ZM14.75 76.66C13.9 76.32 13.73 75.33 14.52 75.33C15.97 75.33 17.14 72.65 19.82 63.17C20.13 62.07 20.59 60.52 20.85 59.74C21.37 58.08 21.25 57.57 20.14 56.85C19.7 56.56 19.33 56.1 19.33 55.83C19.33 55.41 20.41 55.33 26.58 55.34C30.57 55.34 34.03 55.47 34.26 55.62C34.82 55.97 34.31 58.44 33.49 59.35C32.78 60.13 32.48 59.97 32.23 58.72C31.94 57.29 29.95 56.72 25.94 56.93C24.8 57 24.7 57.09 24.39 58.42C24.2 59.2 23.8 60.66 23.49 61.67C23.18 62.67 22.91 63.88 22.88 64.33C22.84 65.1 22.96 65.17 24.43 65.27C25.87 65.36 26.14 65.26 27.18 64.22C27.81 63.59 28.33 62.83 28.33 62.53C28.33 61.83 28.96 61.85 29.23 62.55C29.43 63.07 28.59 67.34 27.97 68.92C27.56 69.97 27.09 69.85 26.83 68.64C26.54 67.33 25.04 66.63 23.09 66.9C21.78 67.07 21.7 67.15 21.48 68.42C21.36 69.16 21.06 70.23 20.83 70.8C20.59 71.37 20.29 72.54 20.16 73.4C19.94 74.91 19.96 74.98 20.83 75.2C21.33 75.32 22.92 75.34 24.36 75.24C27.16 75.05 28.74 74.37 29.96 72.81C30.31 72.36 30.86 72 31.17 72C31.98 72 31.62 73.64 30.41 75.45L29.48 76.83L22.49 76.9C18.64 76.93 15.16 76.82 14.75 76.66Z" fill="#1e2749" fill-rule="evenodd"/>
</svg>
