<?xml version="1.0" encoding="UTF-8"?>
<svg xmlns="http://www.w3.org/2000/svg" viewBox="0 0 2430 451" width="2430" height="451" shape-rendering="geometricPrecision">
<path d="M496.62 435.94C481.31 432.13 467.16 416.67 463.96 400.26C463.24 396.56 462.93 389.54 463.19 383.06C463.61 372.85 463.9 371.58 467.41 364.49C472.12 354.96 479.29 347.65 488.48 343C495.34 339.53 495.52 339.5 508.47 339.5C521.21 339.5 521.72 339.58 528.16 342.76C535.8 346.52 547.1 357.7 550.09 364.46C559.31 385.32 555.54 407.31 540.04 423.1C530.38 432.93 522.8 436.36 510 436.67C504.77 436.8 498.75 436.47 496.62 435.94ZM1734.91 433.99C1722.89 431.95 1709.04 421.19 1703.61 409.66C1692.78 386.67 1698.51 358.8 1716.9 344.98C1730.22 334.97 1750.51 333.36 1765.13 341.15C1773.11 345.4 1782.33 355.27 1786.21 363.71C1788.96 369.71 1789.38 371.82 1789.79 381.82C1790.55 400.36 1786.23 411.21 1773.43 422.91C1762.53 432.87 1749.85 436.52 1734.91 433.99ZM517.31 429.74C522.03 428.39 529.23 422.16 532.47 416.64C536.12 410.41 537.97 400.95 537.99 388.39C538 375.18 536.93 368.83 533.34 360.83C525.79 344 504.68 338.61 491.56 350.15C482.59 358.06 478.02 374.3 479.53 392.95C481.95 422.78 495.5 435.98 517.31 429.74ZM1756.26 425.69C1761.88 422.4 1767.64 416.03 1770.34 410.12C1772.16 406.13 1772.5 403.17 1772.82 388.25C1773.16 372.91 1772.97 370.25 1771.09 364.07C1767.05 350.76 1758.63 343.35 1746.41 342.34C1737.3 341.59 1731.87 343.15 1726.54 348.07C1718.65 355.34 1714.99 366.88 1715.02 384.39C1715.06 406.93 1722.36 423.03 1734.62 427.59C1740.54 429.79 1750.8 428.9 1756.26 425.69ZM1725.79 311.75C1724.79 310 1724.43 296.1 1724.21 249.5C1724.04 216.5 1724.27 185.68 1724.71 181C1725.47 172.84 1725.6 172.49 1728.09 172.2C1733.66 171.55 1733.5 169.51 1733.46 242.6C1733.42 306.8 1733.33 309.98 1731.55 311.94C1729.14 314.61 1727.38 314.55 1725.79 311.75ZM1759.87 312.35C1758.75 310.99 1758.45 299.12 1758.2 246.6C1758.03 211.34 1758.18 180.14 1758.52 177.25C1759.12 172.24 1759.28 172 1762.1 172C1764.35 172 1765.28 172.61 1766.02 174.57C1766.62 176.14 1767 202.74 1767 243.34C1767 301.65 1766.81 309.82 1765.44 311.78C1763.59 314.42 1761.75 314.61 1759.87 312.35ZM479.99 303.48C478.73 300.15 478.58 166.02 479.83 164.77C480.34 164.26 482.05 163.99 483.63 164.17C486.33 164.48 486.54 164.85 487.27 170.5C487.69 173.8 487.91 204.69 487.77 239.15C487.51 299.14 487.42 301.88 485.6 303.9C483.06 306.69 481.16 306.55 479.99 303.48ZM513.87 304.35C511.98 302.07 511.19 167.69 513.05 165.44C513.71 164.65 515.26 164 516.5 164C521.62 164 521.5 162.36 521.5 234.55C521.5 299.27 521.43 301.87 519.6 303.89C517.3 306.43 515.71 306.56 513.87 304.35ZM1367.37 160.96C1362.74 158 1359.24 152.29 1357.35 144.65C1355.92 138.86 1355.86 136.9 1356.89 131.3C1359.91 114.91 1372.5 101.93 1387.75 99.5C1393.91 98.52 1393.11 100.39 1386 103.58C1379.13 106.66 1372.8 112.94 1369.86 119.59C1367.66 124.56 1368.08 126.56 1370.99 125C1374.29 123.24 1384.17 123.81 1387.71 125.96C1394.5 130.1 1397.09 141.9 1393.1 150.5C1390.93 155.18 1385.69 160.43 1381.68 161.94C1377.23 163.62 1370.84 163.18 1367.37 160.96ZM1509.23 161.77C1506.87 160.63 1505.33 156.89 1506.46 155.06C1507.44 153.48 1509.89 153.77 1515.62 156.14C1522.05 158.8 1525.07 158.17 1530.18 153.05C1533.44 149.79 1534 148.6 1534 144.85C1534 135.82 1527.34 128.72 1516.24 125.94C1511.12 124.66 1509.44 123.8 1509.27 122.37C1509.14 121.34 1511.39 116 1514.27 110.5L1519.5 100.5L1526 100.18C1529.58 100.01 1534.43 100.15 1536.8 100.5C1540.63 101.07 1541.02 101.37 1540.46 103.32C1539.18 107.72 1536.35 109 1527.91 109C1520.65 109 1519.92 109.19 1518.43 111.47C1516.16 114.93 1516.82 115.91 1522.88 118.05C1529.5 120.38 1536.14 125.72 1538.61 130.71C1540.98 135.48 1541.02 144.3 1538.69 148.7C1536.31 153.21 1530.22 158.94 1525.5 161.11C1521.07 163.15 1512.79 163.49 1509.23 161.77ZM1382.79 156.58C1387.71 150.98 1388.1 143.13 1383.87 134.76C1381.29 129.67 1377.89 127.59 1373.36 128.33C1367.33 129.31 1366 131.29 1366 139.29C1366 147.9 1367.54 153.3 1371.09 157.09C1374.92 161.19 1378.9 161.02 1382.79 156.58ZM129 153.88C125.46 152.47 121.18 148.17 118.66 143.5C116.85 140.13 116.51 137.84 116.5 129C116.5 119.69 116.81 117.85 119.18 112.78C124.64 101.12 135.64 92.65 147.06 91.31C152.05 90.72 152.39 90.81 151.13 92.34C150.37 93.25 149.01 94 148.1 94C145.19 94 135.39 100.83 132.69 104.74C129.8 108.93 126.64 115.97 127.34 116.67C127.58 116.92 130.42 116.6 133.64 115.96C141.22 114.45 146.1 116.01 150.36 121.29C152.87 124.4 153.48 126.19 153.81 131.32C154.07 135.36 153.69 138.8 152.75 141.04C148.41 151.4 137.54 157.28 129 153.88ZM269.32 154.05C266.96 153.04 265 150.09 265 147.57C265 145.55 270.51 145.5 274 147.5C275.38 148.29 278.46 148.95 280.87 148.96C284.75 149 285.66 148.53 289.12 144.75C294.18 139.21 294.48 133.73 290.12 126.84C287.07 122.04 278.94 117 274.24 117C271.46 117 268 115.33 268 114C268 113.48 270.33 108.32 273.17 102.53L278.34 92L289.17 92C298.33 92 300 92.24 300 93.57C300 98.65 295.25 101 284.96 101C279.73 101 278.08 101.36 277.61 102.58C276.12 106.45 276.98 107.79 282.14 109.65C292.08 113.22 300 122.69 300 130.99C300 139 293.99 147.85 285.62 152.17C281.2 154.45 272.56 155.45 269.32 154.05ZM139.78 150.44C147.41 145.1 147.32 127.97 139.64 121.77C136.11 118.92 128.13 119.86 125.77 123.4C124.49 125.32 124.94 136.44 126.52 141.74C128.09 147.04 132.61 152 135.85 152C136.79 152 138.56 151.3 139.78 150.44ZM1186.63 149.14C1185.73 148.15 1185 146.6 1185 145.68C1185 144.17 1205.65 121.82 1212.32 116.12C1214.47 114.28 1214.83 113.51 1213.82 112.87C1213.09 112.41 1137.76 112.02 1046.41 112.02C955.05 112.01 875.51 111.71 869.64 111.35C859.42 110.72 858.94 110.59 858.35 108.27C858.02 106.94 858.27 105.33 858.92 104.68C859.79 103.81 903.94 103.34 1036.18 102.82C1133.04 102.43 1212.66 101.74 1213.13 101.27C1213.59 100.81 1208.24 94.43 1201.24 87.1C1186.52 71.7 1183.9 68.03 1185.91 65.61C1188.28 62.76 1190.76 63.85 1198.71 71.25C1210.3 82.04 1233 105.68 1233 106.97C1233 109.24 1195.05 147.3 1190.18 149.9C1188.69 150.7 1187.88 150.53 1186.63 149.14ZM1297 142.68C1282.2 139.21 1269.73 127.23 1264.8 111.75C1262.44 104.34 1262.06 90.13 1264 81.9C1267.71 66.14 1278.1 54.04 1293.27 47.81C1301.17 44.56 1315.62 44.81 1327 48.4L1335.5 51.08L1338.25 47.83C1340.73 44.89 1341.15 44.72 1342.55 46.12C1344.48 48.06 1345.99 75.27 1344.22 76.36C1343.58 76.76 1341.71 74.03 1339.58 69.6C1333.46 56.87 1324.39 51 1310.83 51C1304.48 51 1296.73 53.49 1292.34 56.95C1276.71 69.24 1274.4 110.17 1288.4 126.72C1289.9 128.49 1294.13 131.41 1297.79 133.22C1303.87 136.21 1305.27 136.5 1313.48 136.46C1324.54 136.41 1328.46 134.64 1338.08 125.35C1347.27 116.48 1350.29 116.66 1343.17 125.66C1333.88 137.4 1324.07 142.83 1310.86 143.52C1305.92 143.78 1300.25 143.44 1297 142.68ZM1731.31 143.06C1716.06 140.64 1702.01 126.66 1697.53 109.46C1694.23 96.79 1696.14 80.21 1702.21 68.78C1708.33 57.25 1723.1 47.1 1736.08 45.5C1742.73 44.68 1755.5 46.44 1762.28 49.11C1767.55 51.19 1770.05 50.64 1772.01 46.98C1773.3 44.57 1775.56 44.4 1776.42 46.65C1777.67 49.91 1778.37 76 1777.21 76C1776.6 76 1774.44 72.83 1772.41 68.96C1766.16 57.06 1756.68 51 1744.34 51C1725.08 51 1714.37 63.81 1712.57 89C1711.32 106.57 1714.36 118.2 1722.5 126.9C1729.05 133.9 1735.32 136.45 1746 136.48C1756.81 136.51 1762.98 133.72 1771.38 125.04C1776.66 119.58 1780 117.57 1780 119.85C1780 123.58 1766.44 136.66 1758.61 140.49C1752.68 143.39 1740.58 144.53 1731.31 143.06ZM2324.75 142.91C2318.6 141.47 2311 137.12 2305.46 131.87C2296.14 123.06 2291 110.24 2291 95.84C2291 86.07 2292.44 79.14 2296.07 71.43C2301.24 60.45 2309.61 52.72 2321.5 47.94C2329.69 44.65 2344.5 44.6 2353.72 47.82C2361.79 50.65 2364.39 50.59 2366.82 47.5C2371.04 42.13 2372.09 44.54 2372.75 61.19C2373.44 78.3 2372.87 79.37 2367.99 70.1C2363.5 61.57 2360.25 57.85 2354.12 54.24C2348.08 50.68 2336.45 49.94 2328.82 52.63C2321.52 55.2 2314.05 62.68 2310.94 70.53C2308.78 76.01 2308.58 77.98 2308.54 94.5C2308.5 112.31 2308.53 112.56 2311.32 118C2317.32 129.73 2326.64 135.93 2339.5 136.75C2349.75 137.4 2356.19 134.71 2365.49 125.88C2371.91 119.78 2375 117.74 2375 119.59C2375 119.92 2373.2 122.75 2371 125.89C2367.07 131.49 2360.45 137.26 2354.48 140.28C2347.99 143.57 2333.12 144.89 2324.75 142.91ZM1403.75 141.31C1400.79 140.54 1401.79 139.42 1406.75 137.93C1413.85 135.79 1413.88 135.64 1413.94 92.7L1414 55.91L1411.55 53.45C1410.2 52.1 1408.42 51 1407.61 51C1406.8 51 1404.88 50.52 1403.35 49.94C1397.96 47.89 1403.2 47.03 1421 47.03C1438.72 47.03 1443.22 47.74 1439.2 49.89C1438.06 50.5 1436.2 51 1435.07 51C1433.93 51 1432.1 51.9 1431 53C1429.15 54.85 1429 56.33 1429 73.02L1429 91.04L1449.75 90.77L1470.5 90.5L1470.75 74C1471.04 54.46 1470.64 53.15 1463.72 51.07C1454.84 48.4 1458.64 47.5 1478.83 47.5C1490.46 47.5 1498.1 47.88 1498.25 48.48C1498.48 49.37 1497.21 49.89 1490.04 51.85C1488.18 52.36 1487.39 53.48 1486.75 56.51C1486.29 58.7 1486.05 77.08 1486.21 97.34L1486.5 134.18L1488.86 136.09C1490.16 137.14 1492.18 138.01 1493.36 138.02C1494.54 138.02 1496.17 138.47 1497 139.02C1498.33 139.89 1498.33 140.11 1497 140.98C1495.09 142.24 1462 142.29 1460.03 141.04C1458.19 139.88 1458.48 139.65 1463.83 138.12C1470.25 136.27 1471 133.71 1471 113.55C1471 97.26 1470.97 97.03 1468.75 96.48C1467.51 96.18 1458.17 96.06 1448 96.22L1429.5 96.5L1429.23 114.39C1428.91 135.13 1429.21 136.11 1436.75 138.36L1441.5 139.78L1438.68 140.89C1435.97 141.96 1407.54 142.3 1403.75 141.31ZM1932.75 141.31C1929.93 140.57 1930.73 139.27 1934.44 138.58C1936.46 138.2 1938.89 136.73 1940.34 135.01C1942.55 132.38 1942.87 130.85 1943.53 119.32C1943.94 112.3 1944.05 95.43 1943.79 81.84C1943.25 53.84 1943.08 53.16 1935.8 50.86C1928 48.39 1931.33 47.51 1949.55 47.23C1967.09 46.95 1973.14 47.8 1967.98 49.79C1966.62 50.32 1964.18 51.15 1962.56 51.63C1958.48 52.84 1957.9 55.96 1958.22 74.74L1958.5 90.5L1978.37 90.77C1992.44 90.96 1998.66 90.7 1999.65 89.87C2000.79 88.93 2000.97 85.93 2000.61 74.6C2000.35 66.85 2000.11 59.28 2000.07 57.79C1999.98 54.22 1996.7 51.29 1991.88 50.48C1989.48 50.07 1988 49.28 1988 48.39C1988 47.19 1991.04 47 2007 47.23C2026.41 47.51 2029.78 48.29 2022.35 50.8C2015.11 53.24 2015.5 50.75 2015.53 94.53C2015.57 139.03 2015.04 136.16 2023.6 138.44L2028.5 139.74L2025.68 140.87C2022.74 142.05 1994.3 142.45 1990.25 141.37C1987.44 140.62 1987.3 139 1990.05 139C1992.85 139 1997.74 136.36 1998.88 134.22C1999.4 133.26 2000.14 124.76 2000.54 115.34C2001.26 98.42 2001.24 98.2 1999.09 97.05C1997.51 96.2 1991.55 96.08 1977.38 96.59L1957.85 97.3L1958.17 115.5C1958.54 135.98 1958.68 136.39 1965.64 138.14C1970.19 139.28 1971.11 140.36 1968.42 141.39C1966.62 142.08 1935.43 142.01 1932.75 141.31ZM2186.75 141.31C2183.73 140.52 2184.84 139.05 2188.94 138.39C2191.21 138.03 2193.85 136.72 2195.19 135.3L2197.5 132.84L2197.5 93.83C2197.5 54.9 2197.5 54.82 2195.31 53.05C2194.1 52.07 2191.26 50.98 2188.98 50.61C2186.37 50.2 2185 49.5 2185.26 48.73C2185.55 47.84 2190.43 47.42 2203.08 47.22C2220.54 46.93 2225.54 47.32 2224.56 48.91C2224.27 49.37 2222.02 50.26 2219.55 50.88C2217.08 51.5 2214.62 52.83 2214.09 53.84C2213.55 54.84 2212.98 63.5 2212.81 73.08L2212.5 90.5L2233.5 90.5L2254.5 90.5L2254.77 73.23C2255.05 56.01 2255.04 55.95 2252.57 53.48C2251.21 52.12 2249.21 51 2248.13 51C2245.1 51 2243 49.93 2243 48.39C2243 47.25 2246.38 47 2261.75 47.02C2280.64 47.03 2285.27 47.72 2281.2 49.89C2280.06 50.5 2278.06 51 2276.76 51C2275.45 51 2273.51 51.64 2272.44 52.42C2270.59 53.77 2270.49 55.56 2270.22 92.27C2270.04 116.52 2270.31 131.68 2270.95 133.36C2271.97 136.06 2274.09 137.34 2279.5 138.51C2282.36 139.13 2282.41 139.23 2280.56 140.58C2279.07 141.67 2274.8 142 2262.06 141.98C2245.76 141.97 2240.75 141.15 2244 139.02C2244.82 138.47 2246.32 138.02 2247.32 138.02C2253.69 137.96 2255 133.77 2255 113.46C2255 99.57 2254.77 97.13 2253.42 96.61C2252.55 96.27 2243.16 96 2232.56 96L2213.29 96L2212.75 102.75C2211.98 112.54 2213.26 134.67 2214.69 136.09C2215.34 136.74 2218.04 137.84 2220.69 138.53L2225.5 139.79L2222.68 140.89C2219.97 141.96 2190.54 142.3 2186.75 141.31ZM2387 140.91C2386.17 140.32 2385.95 139.66 2386.5 139.42C2387.05 139.18 2388.89 138.14 2390.59 137.11C2393.51 135.33 2393.73 134.76 2394.34 127.46C2395.13 118.1 2395 78.6 2394.13 64L2393.5 53.5L2389.75 53.19C2386.92 52.96 2386 52.44 2386 51.08C2386 48.85 2399.86 42.73 2403.86 43.19L2406.5 43.5L2407.07 88.15C2407.7 137.59 2407.63 137.1 2414.16 138.54C2417.19 139.2 2417.27 139.33 2415.5 140.62C2413.18 142.32 2389.33 142.56 2387 140.91ZM54 134.12C39.88 129.52 28.49 117.79 23.99 103.22C21.46 95.05 21.28 79.79 23.61 71.93C27.98 57.21 36.16 47.2 48.66 41.26C55.25 38.13 57.64 37.54 64.98 37.19C71.09 36.89 75.44 37.28 80.04 38.51C95.86 42.75 95.04 42.69 97.42 39.7C101.96 34 102.91 36.1 103.7 53.57C104.42 69.57 103.52 70.94 98.61 61.29C94.94 54.06 89.6 47.94 84.57 45.18C82.22 43.89 78.93 43.5 70.5 43.5C60.24 43.5 59.18 43.69 54.71 46.32C45.61 51.66 40.65 61.68 38.77 78.47C36.59 98.01 40.99 112.99 51.32 121.16C57.3 125.88 59.47 126.84 67.11 128.08C73.32 129.1 81 128.04 86.53 125.42C88.4 124.53 92.87 120.93 96.48 117.4C104.31 109.77 107.35 108.83 103.81 115.12C100.66 120.75 92.19 128.28 85.25 131.64C80.13 134.11 78.23 134.45 68 134.67C61.67 134.81 55.38 134.56 54 134.12ZM487 134.11C480.78 132.08 473.18 127.33 468.55 122.58C453.84 107.5 450.64 81.52 460.97 61.05C466.16 50.77 475.64 42.95 487.81 38.9C493.36 37.05 495.76 36.81 503.91 37.29C509.69 37.63 515.85 38.68 519.41 39.93C527.06 42.61 528.44 42.54 530.77 39.34C533.86 35.1 535.59 36.76 536.34 44.66C537.25 54.31 537.15 66.79 536.16 67.4C535.7 67.68 534.04 65.22 532.47 61.93C525.6 47.57 512.36 40.28 498.06 42.99C486.47 45.19 479.49 51.14 474.81 62.85C472.76 67.96 472.54 70.18 472.52 86C472.5 103.04 472.57 103.64 475.21 109C476.71 112.03 479.3 116.16 480.98 118.19C486.95 125.38 500.79 129.94 510.87 128.02C518.48 126.58 521.76 124.74 529.73 117.47C539.5 108.56 542.29 108.66 535.17 117.66C529.83 124.41 525.18 128.27 518.36 131.62C513.06 134.23 511.41 134.52 501 134.71C494.68 134.83 488.38 134.56 487 134.11ZM724 133.62C717.38 131.71 713.26 129.33 707.88 124.29C691.68 109.14 687.66 83.41 698.15 62.06C708.16 41.69 730.34 32.49 753.5 39.12C765.4 42.52 766.59 42.56 768.53 39.6C772.44 33.63 773.68 36.78 774.67 55.08C775.43 69.22 774.41 70.73 770 62.01C765.97 54.01 761.03 48.69 754.74 45.56C747.57 41.99 734.9 41.9 727.44 45.37C714.43 51.43 707.89 68.42 709.39 92.22C710.15 104.23 712.65 111.29 718.43 117.71C724.86 124.87 730.59 127.4 741.34 127.84C753.11 128.33 757.2 126.71 766.51 117.86C770.48 114.09 774.24 111 774.87 111C779.72 111 765.26 127.02 756.3 131.56C751.05 134.22 749.46 134.52 739.5 134.71C732.8 134.84 726.74 134.42 724 133.62ZM166.18 133.33C160.07 132.82 159.61 131.02 165.24 129.69C172.71 127.92 172.47 129.33 172.78 86.57C173.06 49.25 173.02 48.29 171 45.73C169.7 44.07 167.42 42.8 164.8 42.29C162.52 41.84 160.49 40.97 160.29 40.37C159.55 38.15 176.03 37.27 192.38 38.65C200.68 39.35 202.18 41.03 195.48 42.12C188.51 43.25 188 44.8 188 64.63L188 82.04L208.75 81.77L229.5 81.5L229.79 65.5C229.94 56.7 229.82 48.5 229.52 47.27C228.89 44.7 224.28 42 220.55 42C219.07 42 218 41.43 218 40.64C218 38.96 225.01 38.02 237.5 38.02C254.77 38.02 262.5 40.25 252.26 42.28C250.01 42.72 247.57 43.81 246.84 44.69C245.77 45.98 245.5 54.06 245.5 84.4C245.5 105.36 245.83 123.68 246.24 125.12C246.93 127.6 249.87 129.44 254.3 130.19C258.78 130.95 255.8 132.57 248.5 133.35C238.47 134.42 217.74 133.27 218.28 131.67C218.48 131.06 220.18 130.24 222.06 129.85C223.93 129.47 226.49 127.97 227.73 126.52C229.91 124 230 123.15 230 105.94L230 88L209 88L188 88L188.01 105.75C188.03 126.69 188.38 127.83 195.38 129.81C198.14 130.59 199.85 131.55 199.35 132.05C198.35 133.05 174.14 133.99 166.18 133.33ZM792.75 133.26C787.54 132.85 786.19 130.67 790.49 129.59C791.86 129.25 793.77 127.76 794.74 126.28C796.34 123.83 796.5 120.18 796.5 85.21C796.5 48.38 796.42 46.78 794.56 45.42C793.49 44.64 791.35 44 789.81 44C784.66 44 786.73 41.3 794.25 38.22C804.56 34 806.72 33.61 807.87 35.75C808.41 36.76 808.96 56.26 809.16 81.06C809.47 120.24 809.67 124.85 811.23 127.22C812.17 128.67 813.97 130 815.23 130.18C816.48 130.35 817.4 130.95 817.29 131.5C816.87 133.47 805.6 134.28 792.75 133.26ZM2103.77 115.31L2103.5 98.5L2086.5 98L2069.5 97.5L2069.19 94.25L2068.87 91L2085.24 91C2096.63 91 2101.96 90.64 2102.8 89.8C2103.64 88.96 2104 83.64 2104 72.3C2104 57.44 2104.15 56 2105.75 56.02C2109.67 56.05 2109.94 57.14 2110.22 74.04L2110.5 90.5L2127.75 90.77C2144.95 91.05 2145 91.05 2145 93.32C2145 97.63 2143.54 98 2126.32 98L2110.05 98L2109.77 114.75L2109.5 131.5L2106.77 131.81L2104.05 132.13L2103.77 115.31ZM1584.75 110.31C1582.66 109.97 1582 109.31 1582 107.54C1582 105.24 1582.23 105.19 1595.75 104.46C1615.59 103.39 1655.09 104.52 1656.12 106.2C1656.6 106.97 1656.32 108.11 1655.43 109C1654.16 110.27 1648.79 110.52 1620.72 110.62C1602.45 110.69 1586.26 110.55 1584.75 110.31ZM1822.75 110.31C1820.63 109.97 1820 109.31 1820 107.43L1820 105L1856.53 105C1888.78 105 1893.13 105.18 1893.66 106.57C1895.07 110.23 1892.81 110.5 1858.7 110.63C1840.44 110.7 1824.26 110.56 1822.75 110.31ZM341.67 101.33C341.3 100.97 341 99.62 341 98.33L341 96L378.03 96C410.16 96 415.14 96.2 415.64 97.51C415.96 98.34 415.67 99.69 414.99 100.51C413.94 101.78 408.43 102 378.04 102C358.4 102 342.03 101.7 341.67 101.33ZM579.68 101.35C578.43 100.1 578.98 97.22 580.58 96.61C583.24 95.59 650.37 95.94 652 96.99C653.16 97.73 653.25 98.34 652.39 99.72C651.37 101.36 648.56 101.52 615.82 101.76C596.32 101.91 580.05 101.72 579.68 101.35ZM1014.25 87.34C1012.59 86.67 1012.65 85 1014.33 85C1015.05 85 1016.74 83.84 1018.08 82.42L1020.5 79.84L1020.5 52.13C1020.5 27.28 1020.32 24.13 1018.73 21.71C1017.75 20.22 1016.06 19 1014.98 19C1013.89 19 1013 18.61 1013 18.12C1013 16.72 1022.5 16.32 1038.87 17.03C1053.58 17.66 1054.23 17.79 1058.19 20.59C1063.28 24.2 1066 29.15 1066 34.78C1066 41.65 1061.79 47.61 1054.25 51.41C1052.46 52.31 1051 53.68 1051 54.45C1051 56.23 1064.32 74.12 1069.87 79.78C1072.2 82.16 1075.39 84.33 1077.07 84.66C1082.84 85.82 1079.5 87.49 1070.86 87.79L1062.37 88.07L1052.7 74.66C1042.56 60.57 1037.24 55 1033.97 55C1032.11 55 1032 55.74 1032 67.78C1032 80.97 1033.07 85 1036.56 85C1038.82 85 1038.24 86.7 1035.75 87.37C1033.08 88.09 1016.04 88.06 1014.25 87.34ZM1041.48 49.88C1046.08 48.61 1052.56 42.59 1053.55 38.68C1056.01 28.85 1047.64 20.25 1036.5 21.17L1032.5 21.5L1032.22 36.25L1031.95 51L1034.72 50.99C1036.25 50.99 1039.29 50.49 1041.48 49.88Z" fill="#1e2749" fill-rule="evenodd"/>
</svg>
