<?xml version="1.0" encoding="UTF-8"?>
<svg xmlns="http://www.w3.org/2000/svg" viewBox="0 0 467 174" width="467" height="174" shape-rendering="geometricPrecision">
<path d="M40.33 94.33L40.33 37.33L124.83 37.33L209.32 37.33L209.41 44.25L209.5 51.17L291.91 51.25L374.32 51.33L374.41 57.75L374.5 64.17L394.92 64.25L415.33 64.34L415.37 90.92C415.41 122.06 415.41 122.37 414.88 122.92C414.56 123.24 410.01 123.36 394.49 123.42L374.5 123.5L374.33 130.33L374.17 137.17L291.76 137.25L209.35 137.33L209.26 144.25L209.17 151.17L124.75 151.25L40.33 151.33L40.33 94.33ZM204.96 146.88C205.24 146.55 205.31 132.46 205.25 93.96L205.17 41.5L124.75 41.42L44.33 41.33L44.33 94.11C44.33 123.14 44.43 146.99 44.56 147.11C44.68 147.23 80.73 147.33 124.68 147.33C191.54 147.33 204.65 147.26 204.96 146.88ZM183 132.84C183 132.41 183.85 132.33 189.03 132.33C193.7 132.33 195.02 132.43 194.92 132.75C194.81 133.06 193.24 133.19 188.89 133.26C183.8 133.34 183 133.28 183 132.84ZM369.96 132.88C370.22 132.57 370.27 131.05 370.12 127.89L369.9 123.35L349.88 123.37C326.59 123.39 328.82 123.8 329.13 119.5C329.24 118.03 329.33 105.02 329.33 90.58L329.33 64.33L349.46 64.33C366.25 64.33 369.65 64.26 369.97 63.87C370.23 63.56 370.32 62.08 370.26 59.45L370.17 55.5L289.75 55.42L209.33 55.33L209.33 94.11C209.33 115.44 209.43 132.99 209.56 133.11C209.68 133.23 245.73 133.33 289.68 133.33C356.41 133.33 369.65 133.26 369.96 132.88ZM410.98 118.85C411.23 118.56 411.31 110.7 411.25 93.46L411.17 68.5L372.25 68.42L333.33 68.33L333.33 93.64C333.33 113.57 333.42 118.98 333.75 119.11C333.98 119.2 351.37 119.27 372.4 119.27C403.04 119.28 410.7 119.19 410.98 118.85ZM178.87 102.61C178.57 102.19 178.33 101.73 178.33 101.57C178.33 101.42 178.06 100.67 177.73 99.9C177.39 99.13 176.85 97.83 176.52 97C175.69 94.92 175.47 94.39 174.68 92.6C173.76 90.5 173.8 90.27 175.08 90.4C176.24 90.51 176.1 90.26 179.1 97.92C179.48 98.88 179.89 99.67 180.02 99.67C180.41 99.67 180.86 98.9 181.48 97.17C181.81 96.25 182.28 95.05 182.51 94.5C182.75 93.95 183.25 92.78 183.63 91.89C184.24 90.46 184.42 90.3 185.24 90.39C185.75 90.45 186.14 90.65 186.1 90.83C186.07 91.02 184.93 93.87 183.58 97.17C181.35 102.61 181.04 103.18 180.26 103.27C179.66 103.34 179.23 103.14 178.87 102.61ZM357.56 103.11C357.43 102.99 357.33 102.54 357.33 102.11C357.33 101.44 357.5 101.33 358.52 101.33C360.99 101.33 361 101.3 361 95.16C361 89.04 361.2 89.5 358.5 89.26C357.68 89.18 357.48 89 357.39 88.25C357.3 87.43 357.39 87.33 358.3 87.33C358.95 87.33 359.72 86.97 360.48 86.31C361.22 85.66 361.92 85.32 362.41 85.39L363.17 85.5L363.33 93.33L363.5 101.17L364.93 101.27C366.48 101.38 367.03 102 366.33 102.84C366.01 103.23 365.04 103.33 361.85 103.33C359.61 103.33 357.68 103.23 357.56 103.11ZM368.9 103.12C368.77 102.99 368.67 102.48 368.67 101.98L368.67 101.08L370.83 101.25C372.33 101.37 373.15 101.29 373.51 100.99C373.97 100.61 373.83 100.45 372.43 99.7C370.24 98.51 368.87 95.96 369.11 93.47C369.2 92.54 369.57 91.3 369.93 90.71C370.69 89.46 372.54 88 373.38 88C373.7 88 374.05 87.85 374.17 87.67C374.42 87.26 379.56 87.22 379.81 87.62C379.91 87.78 380.42 88 380.95 88.11C382.24 88.36 383.88 89.8 384.68 91.36C385.45 92.87 385.53 95.32 384.85 96.62C384.27 97.76 382 99.85 381.02 100.16C379.51 100.64 380.56 101.17 383.03 101.17C385.13 101.17 385.51 101.25 385.61 101.77C385.84 102.98 385.07 103.33 382.15 103.33C379.79 103.33 379.35 103.25 379.19 102.74C378.85 101.68 379.62 99.94 380.96 98.71C382.48 97.3 382.86 95.94 382.51 93.14C382.1 89.82 379.36 87.95 375.75 88.53C373.64 88.86 372.24 90.43 371.84 92.9C371.54 94.73 372.18 97.75 373.03 98.54C375.25 100.61 375.37 100.79 375.27 101.98L375.17 103.17L372.15 103.26C370.49 103.31 369.03 103.25 368.9 103.12ZM64.17 101C64.05 100.82 63.58 100.67 63.13 100.67C61.73 100.67 61 100.08 61 98.95C61 98.01 61.08 97.94 61.92 98.1C62.42 98.19 63.43 98.5 64.17 98.79C67.02 99.89 70.59 99.19 71.63 97.31C72.71 95.36 71.2 93.95 67.43 93.36C64.73 92.94 62.54 91.96 61.79 90.82C61.42 90.25 61.19 89.26 61.18 88.15C61.17 86.72 61.32 86.22 62 85.5C64.3 83.04 68.3 82.63 72.92 84.37C73.77 84.69 73.91 85.72 73.19 86.32C72.81 86.63 72.44 86.59 71.44 86.11C69.62 85.24 65.34 85.25 64.37 86.13C63.66 86.78 63.4 88.75 63.92 89.54C64.4 90.25 66.19 90.92 68.25 91.16C69.4 91.29 70.42 91.53 70.52 91.7C70.62 91.86 71.02 92 71.4 92C72.53 92 74.33 94.18 74.33 95.54C74.33 97.66 72.66 99.79 70.21 100.8C68.77 101.39 64.5 101.53 64.17 101ZM80.17 100.39C78.22 99.05 77.35 97.29 77.34 94.74C77.33 90.71 79.54 88.32 83.24 88.34C85.66 88.36 87.49 89.49 88.58 91.66C91.47 97.36 85.19 103.87 80.17 100.39ZM95.52 100.66C93.78 99.55 93.52 98.64 93.39 93.23L93.27 88.29L94.39 88.39L95.5 88.5L95.67 93.22C95.81 97.32 95.92 98.03 96.5 98.67C97.39 99.65 99.54 99.43 101.16 98.19L102.33 97.3L102.33 92.79L102.33 88.29L103.25 88.39L104.17 88.5L104.26 94.46C104.32 98.57 104.23 100.56 103.97 100.87C103.57 101.36 102.34 101.51 102.33 101.08C102.33 100.95 102.2 100.64 102.05 100.4C101.84 100.06 101.45 100.12 100.2 100.65C98.26 101.48 96.81 101.49 95.52 100.66ZM109.33 94.83L109.33 88.33L110.15 88.33C110.64 88.33 111.12 88.61 111.33 89L111.69 89.67L113 89C114.58 88.2 116.93 88.1 117.21 88.84C117.54 89.69 116.73 90.25 114.91 90.4C113.95 90.48 112.75 90.81 112.25 91.14L111.33 91.74L111.33 96.14C111.33 100.67 111.16 101.33 109.93 101.33C109.38 101.33 109.33 100.87 109.33 94.83ZM122 100.68C119.67 99.44 118.67 97.59 118.67 94.52C118.67 90.87 121.11 88.38 124.72 88.35C126.71 88.33 129.33 89.42 129.33 90.25C129.33 91.44 128.67 91.68 127.3 90.98C125.91 90.27 124.19 90.15 122.84 90.66C121.13 91.32 120.43 95.03 121.58 97.33C122.61 99.37 124.65 99.86 127.05 98.64C128.61 97.84 129.43 98 129.27 99.08C129.13 100.1 126.63 101.31 124.67 101.3C123.84 101.3 122.64 101.02 122 100.68ZM134.51 100.41C132.28 99.19 131.34 97.52 131.35 94.83C131.36 91.99 132.37 90.06 134.33 89.1C136.24 88.16 138.6 88.12 140.3 88.98C141.8 89.75 142.51 90.73 143.03 92.8C143.63 95.22 143.41 95.33 138.13 95.33C133.71 95.33 133.67 95.34 133.67 96.09C133.67 97.16 134.45 98.15 135.79 98.79C137.32 99.52 138.73 99.47 140.56 98.64C141.9 98.03 142.15 98 142.58 98.43C143.27 99.13 142.62 100.22 141.34 100.5C140.79 100.62 140.26 100.86 140.15 101.03C140.05 101.19 139.11 101.33 138.06 101.33C136.64 101.32 135.76 101.09 134.51 100.41ZM85.92 97.86C86.87 96.82 87 96.45 87 94.81C87 91.8 85.74 90.33 83.17 90.33C80.53 90.33 79.67 91.46 79.67 94.88C79.67 96.94 79.74 97.14 80.84 98.24C81.91 99.31 82.14 99.4 83.43 99.23C84.47 99.09 85.11 98.74 85.92 97.86ZM140.7 92.8C141.08 92.33 141 92.13 140.07 91.3C138.83 90.19 137.07 90.02 135.15 90.82C133.93 91.33 133.47 92.01 133.79 92.83C134.08 93.59 140.07 93.55 140.7 92.8ZM188.55 67.11C188.43 66.99 188.33 65.73 188.33 64.31C188.33 61.32 188.34 61.33 185.14 61.33C183.46 61.33 183 61.23 183 60.83C183 60.44 183.45 60.33 185.02 60.33C188.14 60.33 188.33 60.14 188.33 56.96C188.33 54.59 188.4 54.3 188.92 54.4C189.41 54.49 189.52 54.95 189.6 57.22C189.71 60.33 189.7 60.32 193.11 60.33C195.69 60.33 195.57 61.13 192.97 61.25C189.59 61.41 189.67 61.35 189.67 64.13C189.67 65.78 189.52 66.71 189.22 66.96C188.97 67.16 188.67 67.23 188.55 67.11ZM260.89 43.44C260.77 43.32 260.67 41.75 260.67 39.94C260.67 38.14 260.63 36.63 260.58 36.59C260.54 36.55 252.32 36.44 242.33 36.34L224.17 36.17L224.17 34.67L224.17 33.17L242.33 33L260.5 32.83L260.57 32C260.99 26.68 261.09 26 261.45 26C262.21 26.01 278.5 34.37 278.5 34.75C278.5 34.97 276.55 36.11 274.17 37.28C271.78 38.46 267.9 40.37 265.54 41.54C260.74 43.92 261.18 43.74 260.89 43.44ZM293.22 38.11C293.1 37.99 293 35.05 293 31.59L293 25.29L293.92 25.39L294.83 25.5L294.92 31.46C295.02 37.39 294.87 38.33 293.85 38.33C293.63 38.33 293.34 38.23 293.22 38.11ZM292.87 21.81C292.43 20.66 292.65 20.33 293.84 20.33C295.15 20.33 295.67 21.02 295 21.84C294.45 22.49 293.12 22.47 292.87 21.81Z" fill="#1e2749" fill-rule="evenodd"/>
</svg>
