<?xml version="1.0" encoding="UTF-8"?>
<!-- Generator: visioncortex VTracer 0.6.12 -->
<svg version="1.1" xmlns="http://www.w3.org/2000/svg" width="2430" height="914">
<path d="M0 0 C801.9 0 1603.8 0 2430 0 C2430 301.62 2430 603.24 2430 914 C1628.1 914 826.2 914 0 914 C0 612.38 0 310.76 0 0 Z " fill="#FEFEFE" transform="translate(0,0)"/>
<path d="M0 0 C1.28 -0.01 2.56 -0.02 3.88 -0.03 C7.45 -0.05 11.02 -0.03 14.58 -0.01 C18.46 0 22.33 -0.01 26.21 -0.03 C33.01 -0.05 39.81 -0.05 46.6 -0.03 C56.71 -0.01 66.82 -0.01 76.92 -0.03 C94.97 -0.06 113.02 -0.05 131.07 -0.03 C146.87 -0.01 162.66 -0.01 178.46 -0.01 C179.5 -0.01 180.55 -0.01 181.63 -0.01 C185.88 -0.01 190.13 -0.02 194.38 -0.02 C234.25 -0.03 274.13 -0.01 314.01 0.03 C349.46 0.06 384.9 0.07 420.35 0.05 C429.43 0.04 438.5 0.04 447.58 0.03 C448.7 0.03 449.81 0.03 450.97 0.03 C480.56 0.01 510.16 0.02 539.76 0.04 C542.95 0.04 546.13 0.04 549.31 0.04 C551.43 0.04 553.54 0.04 555.65 0.05 C571.44 0.05 587.23 0.05 603.01 0.04 C620.96 0.03 638.91 0.04 656.85 0.07 C666.9 0.08 676.95 0.09 687 0.07 C693.71 0.06 700.42 0.07 707.12 0.09 C710.95 0.11 714.77 0.11 718.6 0.09 C722.71 0.08 726.83 0.1 730.94 0.12 C732.14 0.11 733.33 0.1 734.57 0.09 C743.51 0.19 743.51 0.19 747.21 2.52 C750.72 7.53 750.3 12.18 750.22 18.16 C750.23 19.44 750.24 20.73 750.25 22.04 C750.27 25.61 750.26 29.18 750.24 32.75 C750.22 36.63 750.24 40.51 750.25 44.39 C750.27 51.19 750.27 57.99 750.25 64.79 C750.23 74.9 750.24 85.02 750.25 95.13 C750.28 113.19 750.28 131.25 750.26 149.31 C750.24 165.11 750.23 180.92 750.24 196.72 C750.24 197.24 750.24 197.24 750.24 199.89 C750.24 204.14 750.24 208.39 750.24 212.64 C750.25 252.54 750.23 292.43 750.2 332.33 C750.16 367.79 750.16 403.26 750.18 438.73 C750.18 447.81 750.19 456.89 750.19 465.97 C750.19 466.53 750.19 466.53 750.2 469.36 C750.21 498.97 750.2 528.58 750.19 558.19 C750.18 561.38 750.18 564.56 750.18 567.74 C750.18 569.86 750.18 571.97 750.18 574.08 C750.17 589.88 750.17 605.68 750.18 621.47 C750.19 639.43 750.19 657.38 750.16 675.34 C750.14 685.4 750.14 695.45 750.15 705.51 C750.16 712.22 750.15 718.93 750.13 725.64 C750.12 729.47 750.11 733.29 750.13 737.12 C750.15 741.24 750.13 745.35 750.1 749.47 C750.11 750.07 750.11 750.07 750.14 753.11 C750.04 761.1 750.04 761.1 747.06 764.52 C744.47 765.75 744.47 765.75 742.47 765.75 C742.47 766.41 742.47 767.07 742.47 767.75 C670.47 767.86 598.46 767.95 526.46 768.01 C525.39 768.01 524.33 768.01 523.23 768.01 C500.09 768.03 476.94 768.04 453.8 768.06 C442.45 768.07 431.1 768.07 419.75 768.08 C419.18 768.08 419.18 768.08 416.33 768.08 C379.69 768.11 343.06 768.15 306.43 768.21 C268.8 768.27 231.16 768.3 193.53 768.32 C188.22 768.32 182.91 768.32 177.6 768.32 C176.55 768.32 175.51 768.32 174.43 768.32 C157.58 768.33 140.73 768.36 123.87 768.39 C106.95 768.43 90.02 768.44 73.09 768.43 C63.03 768.43 52.96 768.44 42.9 768.48 C36.18 768.5 29.47 768.5 22.75 768.48 C18.92 768.47 15.09 768.47 11.25 768.5 C7.13 768.53 3.01 768.51 -1.11 768.49 C-1.71 768.5 -1.71 768.5 -4.74 768.54 C-9.74 768.48 -12.61 768.4 -16.77 765.49 C-19.81 760.65 -19.21 754.74 -19.16 749.24 C-19.16 748.6 -19.16 748.6 -19.18 745.36 C-19.2 741.8 -19.19 738.24 -19.18 734.68 C-19.17 730.81 -19.18 726.93 -19.2 723.06 C-19.22 716.28 -19.22 709.49 -19.21 702.7 C-19.19 692.61 -19.2 682.51 -19.22 672.42 C-19.25 654.39 -19.25 636.37 -19.24 618.34 C-19.23 602.57 -19.23 586.79 -19.24 571.02 C-19.24 568.91 -19.24 566.79 -19.24 564.68 C-19.24 561.49 -19.24 558.31 -19.24 555.12 C-19.26 525.5 -19.27 495.87 -19.25 466.25 C-19.25 465.13 -19.25 464.02 -19.25 462.87 C-19.24 453.79 -19.24 444.72 -19.23 435.65 C-19.21 400.25 -19.22 364.85 -19.26 329.45 C-19.29 289.69 -19.31 249.94 -19.3 210.19 C-19.29 205.96 -19.29 201.72 -19.29 197.49 C-19.29 196.96 -19.29 196.96 -19.29 194.32 C-19.29 178.56 -19.3 162.79 -19.32 147.03 C-19.34 129.1 -19.34 111.18 -19.31 93.26 C-19.29 83.22 -19.29 73.18 -19.32 63.15 C-19.33 56.45 -19.33 49.75 -19.3 43.05 C-19.29 39.23 -19.28 35.41 -19.31 31.59 C-19.33 27.48 -19.31 23.37 -19.28 19.26 C-19.29 18.07 -19.31 16.88 -19.32 15.65 C-19.2 6.72 -19.2 6.72 -16.26 3.02 C-11.58 -0.71 -5.7 -0.07 0 0 Z " fill="#FEFEFE" transform="translate(1614.5282592773438,67.24774646759033)"/>
<path d="M0 0 C1.09 -0.01 2.17 -0.01 3.29 -0.02 C4.5 -0.01 5.7 -0.01 6.95 -0.01 C8.22 -0.01 9.5 -0.02 10.82 -0.02 C14.39 -0.03 17.96 -0.03 21.53 -0.03 C25.41 -0.02 29.28 -0.04 33.16 -0.04 C40.86 -0.06 48.56 -0.06 56.26 -0.06 C65.47 -0.07 74.69 -0.08 83.91 -0.09 C106.19 -0.13 128.47 -0.14 150.75 -0.15 C161.28 -0.15 171.82 -0.16 182.35 -0.17 C218.39 -0.19 254.43 -0.21 290.47 -0.22 C292.74 -0.22 295 -0.22 297.27 -0.22 C299.53 -0.22 301.8 -0.22 304.07 -0.22 C308.63 -0.22 313.18 -0.22 317.73 -0.23 C318.29 -0.23 318.29 -0.23 321.15 -0.23 C357.76 -0.23 394.37 -0.26 430.99 -0.31 C469.67 -0.36 508.35 -0.39 547.04 -0.39 C551.28 -0.39 555.53 -0.39 559.77 -0.39 C560.29 -0.39 560.29 -0.39 562.94 -0.39 C579.78 -0.39 596.62 -0.42 613.46 -0.45 C630.38 -0.47 647.3 -0.48 664.21 -0.46 C674.27 -0.46 684.33 -0.46 694.39 -0.5 C701.1 -0.51 707.82 -0.51 714.53 -0.49 C718.36 -0.48 722.19 -0.48 726.02 -0.51 C730.13 -0.53 734.25 -0.51 738.37 -0.49 C739.57 -0.5 740.76 -0.52 742 -0.53 C750.95 -0.42 750.95 -0.42 754.65 2.52 C758.37 7.21 757.73 13.07 757.67 18.77 C757.67 19.41 757.67 19.41 757.7 22.65 C757.72 26.21 757.71 29.77 757.69 33.33 C757.67 37.2 757.69 41.07 757.71 44.94 C757.73 51.73 757.73 58.52 757.72 65.31 C757.7 75.4 757.71 85.5 757.73 95.59 C757.77 113.61 757.77 131.64 757.76 149.67 C757.74 165.44 757.74 181.21 757.75 196.99 C757.75 198.03 757.75 199.08 757.75 200.16 C757.76 204.4 757.76 208.64 757.76 212.89 C757.79 252.71 757.77 292.54 757.75 332.36 C757.72 367.76 757.73 403.16 757.77 438.56 C757.81 478.31 757.83 518.06 757.81 557.81 C757.81 562.05 757.81 566.29 757.81 570.52 C757.81 571.57 757.81 572.61 757.81 573.68 C757.8 589.45 757.81 605.22 757.83 620.98 C757.86 638.9 757.86 656.83 757.82 674.75 C757.8 684.79 757.81 694.82 757.83 704.86 C757.85 711.56 757.84 718.26 757.81 724.95 C757.8 728.77 757.79 732.59 757.82 736.41 C757.85 740.52 757.82 744.63 757.79 748.74 C757.81 749.94 757.82 751.13 757.84 752.36 C757.7 761.29 757.7 761.29 754.15 764.99 C749.01 768.5 743.25 768.07 737.25 768 C735.96 768 734.68 768.01 733.36 768.02 C729.79 768.04 726.22 768.02 722.65 768 C718.77 767.98 714.89 767.99 711.01 768 C704.21 768.02 697.41 768.01 690.61 767.98 C680.49 767.95 670.38 767.95 660.27 767.96 C643.25 767.97 626.24 767.95 609.22 767.92 C592.37 767.89 575.52 767.87 558.68 767.86 C557.63 767.86 556.58 767.86 555.5 767.86 C550.18 767.86 544.86 767.86 539.55 767.86 C501.86 767.85 464.18 767.82 426.49 767.76 C389.89 767.71 353.28 767.68 316.68 767.66 C315.55 767.66 314.42 767.66 313.26 767.66 C304.18 767.65 295.11 767.65 286.03 767.65 C246.92 767.63 207.81 767.6 168.69 767.57 C162.37 767.57 156.04 767.56 149.71 767.56 C126.5 767.54 103.28 767.52 80.06 767.49 C70.89 767.47 61.72 767.46 52.55 767.46 C44.96 767.45 37.36 767.44 29.76 767.43 C25.94 767.42 22.11 767.42 18.28 767.41 C14.17 767.41 10.06 767.4 5.94 767.4 C4.74 767.4 3.53 767.4 2.29 767.4 C1.2 767.39 0.12 767.39 -1 767.39 C-1.94 767.39 -2.88 767.38 -3.85 767.38 C-6.09 767.26 -6.09 767.26 -8.09 766.26 C-8.42 764.92 -8.76 763.59 -9.09 762.26 C-9.75 761.93 -10.41 761.6 -11.09 761.26 C-11.09 512.11 -11.09 262.96 -11.09 6.26 C-10.43 6.26 -9.77 6.26 -9.09 6.26 C-8.8 5.64 -8.51 5.02 -8.21 4.38 C-6.03 0.25 -4.46 0 0 0 Z " fill="#FEFEFE" transform="translate(74.08898711204529,67.74469900131226)"/>
<path d="M0 0 C0.44 -0 0.44 -0 2.65 -0.01 C3.14 -0.01 3.14 -0.01 5.61 -0.01 C6.64 -0.01 7.67 -0.01 8.73 -0.02 C12.22 -0.02 15.72 -0.02 19.21 -0.02 C21.73 -0.03 24.24 -0.03 26.76 -0.04 C32.97 -0.05 39.18 -0.05 45.39 -0.06 C52.83 -0.06 60.27 -0.07 67.71 -0.08 C85.69 -0.11 103.67 -0.13 121.64 -0.14 C127.6 -0.14 133.55 -0.15 139.5 -0.15 C171.13 -0.18 202.77 -0.2 234.4 -0.21 C241.73 -0.21 249.06 -0.22 256.39 -0.22 C257.3 -0.22 258.21 -0.22 259.15 -0.22 C288.7 -0.23 318.24 -0.26 347.78 -0.31 C378.14 -0.35 408.5 -0.38 438.85 -0.38 C443.14 -0.38 447.42 -0.38 451.7 -0.38 C452.55 -0.38 453.39 -0.38 454.26 -0.38 C467.85 -0.39 481.44 -0.41 495.03 -0.43 C508.68 -0.46 522.33 -0.47 535.99 -0.46 C544.1 -0.45 552.22 -0.46 560.34 -0.49 C566.39 -0.51 572.44 -0.5 578.49 -0.48 C580.95 -0.48 583.4 -0.49 585.86 -0.5 C589.18 -0.52 592.51 -0.51 595.83 -0.49 C596.8 -0.5 597.76 -0.51 598.76 -0.53 C603.4 -0.47 605.31 -0.4 609.04 2.61 C609.68 3.44 610.31 4.27 610.97 5.13 C611.3 5.46 611.63 5.79 611.97 6.13 C612.08 7.52 612.11 8.92 612.12 10.32 C612.13 11.22 612.14 12.12 612.15 13.05 C612.15 13.55 612.15 13.55 612.16 16.08 C612.17 17.12 612.18 18.17 612.19 19.25 C612.21 22.72 612.23 26.2 612.24 29.68 C612.25 30.27 612.25 30.27 612.26 33.27 C612.29 39.53 612.31 45.8 612.32 52.07 C612.34 58.56 612.38 65.04 612.43 71.53 C612.47 76.5 612.48 81.48 612.48 86.46 C612.49 88.85 612.51 91.24 612.53 93.63 C612.56 96.98 612.56 100.32 612.55 103.66 C612.57 104.65 612.59 105.64 612.6 106.67 C612.56 111.39 612.54 113.42 609.5 117.22 C608.66 117.85 607.83 118.48 606.97 119.13 C606.64 119.46 606.31 119.79 605.97 120.13 C604.63 120.23 603.28 120.26 601.94 120.26 C601.5 120.26 601.5 120.26 599.29 120.27 C598.8 120.27 598.8 120.27 596.33 120.27 C595.3 120.27 594.28 120.27 593.21 120.28 C589.72 120.28 586.22 120.28 582.73 120.28 C580.21 120.29 577.7 120.29 575.19 120.3 C568.97 120.31 562.76 120.31 556.55 120.32 C549.11 120.32 541.67 120.33 534.23 120.34 C516.25 120.37 498.28 120.38 480.3 120.4 C474.34 120.4 468.39 120.41 462.44 120.41 C430.81 120.44 399.18 120.46 367.54 120.47 C360.21 120.47 352.88 120.48 345.55 120.48 C344.64 120.48 343.73 120.48 342.79 120.48 C313.24 120.49 283.7 120.52 254.16 120.57 C223.8 120.61 193.44 120.64 163.09 120.64 C158.81 120.64 154.52 120.64 150.24 120.64 C149.82 120.64 149.82 120.64 147.68 120.64 C134.09 120.65 120.5 120.67 106.91 120.69 C93.26 120.72 79.61 120.73 65.95 120.72 C57.84 120.71 49.72 120.72 41.6 120.75 C35.55 120.77 29.5 120.76 23.45 120.74 C20.99 120.74 18.54 120.75 16.08 120.76 C12.76 120.78 9.43 120.77 6.11 120.75 C5.14 120.76 4.18 120.77 3.18 120.79 C-1.46 120.73 -3.37 120.66 -7.1 117.65 C-7.42 117.24 -7.42 117.24 -9.03 115.13 C-9.36 114.8 -9.69 114.47 -10.03 114.13 C-10.14 112.74 -10.17 111.34 -10.18 109.94 C-10.19 109.04 -10.2 108.14 -10.21 107.21 C-10.21 106.21 -10.22 105.21 -10.22 104.18 C-10.23 103.14 -10.24 102.09 -10.25 101.01 C-10.27 97.54 -10.29 94.06 -10.3 90.58 C-10.31 89.4 -10.31 88.21 -10.32 86.99 C-10.35 80.72 -10.37 74.46 -10.38 68.19 C-10.4 61.7 -10.44 55.22 -10.49 48.73 C-10.53 43.76 -10.54 38.78 -10.54 33.8 C-10.55 31.41 -10.57 29.02 -10.59 26.63 C-10.62 23.28 -10.62 19.94 -10.61 16.6 C-10.63 15.61 -10.65 14.62 -10.66 13.59 C-10.62 8.87 -10.6 6.84 -7.56 3.04 C-6.72 2.41 -5.89 1.78 -5.03 1.13 C-3.5 -0.4 -2.13 0 0 0 Z " fill="#FEFEFE" transform="translate(914.0297830104828,396.87004816532135)"/>
<path d="M0 0 C1.28 -0.01 2.56 -0.02 3.88 -0.03 C7.45 -0.05 11.02 -0.03 14.58 -0.01 C18.46 0 22.33 -0.01 26.21 -0.03 C33.01 -0.05 39.81 -0.05 46.6 -0.03 C56.71 -0.01 66.82 -0.01 76.92 -0.03 C94.97 -0.06 113.02 -0.05 131.07 -0.03 C146.87 -0.01 162.66 -0.01 178.46 -0.01 C179.5 -0.01 180.55 -0.01 181.63 -0.01 C185.88 -0.01 190.13 -0.02 194.38 -0.02 C234.25 -0.03 274.13 -0.01 314.01 0.03 C349.46 0.06 384.9 0.07 420.35 0.05 C429.43 0.04 438.5 0.04 447.58 0.03 C448.7 0.03 449.81 0.03 450.97 0.03 C480.56 0.01 510.16 0.02 539.76 0.04 C542.95 0.04 546.13 0.04 549.31 0.04 C551.43 0.04 553.54 0.04 555.65 0.05 C571.44 0.05 587.23 0.05 603.01 0.04 C620.96 0.03 638.91 0.04 656.85 0.07 C666.9 0.08 676.95 0.09 687 0.07 C693.71 0.06 700.42 0.07 707.12 0.09 C710.95 0.11 714.77 0.11 718.6 0.09 C722.71 0.08 726.83 0.1 730.94 0.12 C732.14 0.11 733.33 0.1 734.57 0.09 C743.51 0.19 743.51 0.19 747.21 2.52 C750.72 7.53 750.3 12.18 750.22 18.16 C750.23 19.44 750.24 20.73 750.25 22.04 C750.27 25.61 750.26 29.18 750.24 32.75 C750.22 36.63 750.24 40.51 750.25 44.39 C750.27 51.19 750.27 57.99 750.25 64.79 C750.23 74.9 750.24 85.02 750.25 95.13 C750.28 113.19 750.28 131.25 750.26 149.31 C750.24 165.11 750.23 180.92 750.24 196.72 C750.24 197.24 750.24 197.24 750.24 199.89 C750.24 204.14 750.24 208.39 750.24 212.64 C750.25 252.54 750.23 292.43 750.2 332.33 C750.16 367.79 750.16 403.26 750.18 438.73 C750.18 447.81 750.19 456.89 750.19 465.97 C750.19 466.53 750.19 466.53 750.2 469.36 C750.21 498.97 750.2 528.58 750.19 558.19 C750.18 561.38 750.18 564.56 750.18 567.74 C750.18 569.86 750.18 571.97 750.18 574.08 C750.17 589.88 750.17 605.68 750.18 621.47 C750.19 639.43 750.19 657.38 750.16 675.34 C750.14 685.4 750.14 695.45 750.15 705.51 C750.16 712.22 750.15 718.93 750.13 725.64 C750.12 729.47 750.11 733.29 750.13 737.12 C750.15 741.24 750.13 745.35 750.1 749.47 C750.11 750.07 750.11 750.07 750.14 753.11 C750.04 761.1 750.04 761.1 747.06 764.52 C744.47 765.75 744.47 765.75 742.47 765.75 C742.47 766.41 742.47 767.07 742.47 767.75 C670.47 767.86 598.46 767.95 526.46 768.01 C525.39 768.01 524.33 768.01 523.23 768.01 C500.09 768.03 476.94 768.04 453.8 768.06 C442.45 768.07 431.1 768.07 419.75 768.08 C419.18 768.08 419.18 768.08 416.33 768.08 C379.69 768.11 343.06 768.15 306.43 768.21 C268.8 768.27 231.16 768.3 193.53 768.32 C188.22 768.32 182.91 768.32 177.6 768.32 C176.55 768.32 175.51 768.32 174.43 768.32 C157.58 768.33 140.73 768.36 123.87 768.39 C106.95 768.43 90.02 768.44 73.09 768.43 C63.03 768.43 52.96 768.44 42.9 768.48 C36.18 768.5 29.47 768.5 22.75 768.48 C18.92 768.47 15.09 768.47 11.25 768.5 C7.13 768.53 3.01 768.51 -1.11 768.49 C-1.71 768.5 -1.71 768.5 -4.74 768.54 C-9.74 768.48 -12.61 768.4 -16.77 765.49 C-19.81 760.65 -19.21 754.74 -19.16 749.24 C-19.16 748.6 -19.16 748.6 -19.18 745.36 C-19.2 741.8 -19.19 738.24 -19.18 734.68 C-19.17 730.81 -19.18 726.93 -19.2 723.06 C-19.22 716.28 -19.22 709.49 -19.21 702.7 C-19.19 692.61 -19.2 682.51 -19.22 672.42 C-19.25 654.39 -19.25 636.37 -19.24 618.34 C-19.23 602.57 -19.23 586.79 -19.24 571.02 C-19.24 568.91 -19.24 566.79 -19.24 564.68 C-19.24 561.49 -19.24 558.31 -19.24 555.12 C-19.26 525.5 -19.27 495.87 -19.25 466.25 C-19.25 465.13 -19.25 464.02 -19.25 462.87 C-19.24 453.79 -19.24 444.72 -19.23 435.65 C-19.21 400.25 -19.22 364.85 -19.26 329.45 C-19.29 289.69 -19.31 249.94 -19.3 210.19 C-19.29 205.96 -19.29 201.72 -19.29 197.49 C-19.29 196.96 -19.29 196.96 -19.29 194.32 C-19.29 178.56 -19.3 162.79 -19.32 147.03 C-19.34 129.1 -19.34 111.18 -19.31 93.26 C-19.29 83.22 -19.29 73.18 -19.32 63.15 C-19.33 56.45 -19.33 49.75 -19.3 43.05 C-19.29 39.23 -19.28 35.41 -19.31 31.59 C-19.33 27.48 -19.31 23.37 -19.28 19.26 C-19.29 18.07 -19.31 16.88 -19.32 15.65 C-19.2 6.72 -19.2 6.72 -16.26 3.02 C-11.58 -0.71 -5.7 -0.07 0 0 Z M2.47 21.75 C2.47 260.67 2.47 499.59 2.47 745.75 C241.72 745.75 480.97 745.75 727.47 745.75 C727.47 506.83 727.47 267.91 727.47 21.75 C488.22 21.75 248.97 21.75 2.47 21.75 Z " fill="#3C79F0" transform="translate(1614.5282592773438,67.24774646759033)"/>
<path d="M0 0 C1.09 -0.01 2.17 -0.01 3.29 -0.02 C4.5 -0.01 5.7 -0.01 6.95 -0.01 C8.22 -0.01 9.5 -0.02 10.82 -0.02 C14.39 -0.03 17.96 -0.03 21.53 -0.03 C25.41 -0.02 29.28 -0.04 33.16 -0.04 C40.86 -0.06 48.56 -0.06 56.26 -0.06 C65.47 -0.07 74.69 -0.08 83.91 -0.09 C106.19 -0.13 128.47 -0.14 150.75 -0.15 C161.28 -0.15 171.82 -0.16 182.35 -0.17 C218.39 -0.19 254.43 -0.21 290.47 -0.22 C292.74 -0.22 295 -0.22 297.27 -0.22 C299.53 -0.22 301.8 -0.22 304.07 -0.22 C308.63 -0.22 313.18 -0.22 317.73 -0.23 C318.29 -0.23 318.29 -0.23 321.15 -0.23 C357.76 -0.23 394.37 -0.26 430.99 -0.31 C469.67 -0.36 508.35 -0.39 547.04 -0.39 C551.28 -0.39 555.53 -0.39 559.77 -0.39 C560.29 -0.39 560.29 -0.39 562.94 -0.39 C579.78 -0.39 596.62 -0.42 613.46 -0.45 C630.38 -0.47 647.3 -0.48 664.21 -0.46 C674.27 -0.46 684.33 -0.46 694.39 -0.5 C701.1 -0.51 707.82 -0.51 714.53 -0.49 C718.36 -0.48 722.19 -0.48 726.02 -0.51 C730.13 -0.53 734.25 -0.51 738.37 -0.49 C739.57 -0.5 740.76 -0.52 742 -0.53 C750.95 -0.42 750.95 -0.42 754.65 2.52 C758.37 7.21 757.73 13.07 757.67 18.77 C757.67 19.41 757.67 19.41 757.7 22.65 C757.72 26.21 757.71 29.77 757.69 33.33 C757.67 37.2 757.69 41.07 757.71 44.94 C757.73 51.73 757.73 58.52 757.72 65.31 C757.7 75.4 757.71 85.5 757.73 95.59 C757.77 113.61 757.77 131.64 757.76 149.67 C757.74 165.44 757.74 181.21 757.75 196.99 C757.75 198.03 757.75 199.08 757.75 200.16 C757.76 204.4 757.76 208.64 757.76 212.89 C757.79 252.71 757.77 292.54 757.75 332.36 C757.72 367.76 757.73 403.16 757.77 438.56 C757.81 478.31 757.83 518.06 757.81 557.81 C757.81 562.05 757.81 566.29 757.81 570.52 C757.81 571.57 757.81 572.61 757.81 573.68 C757.8 589.45 757.81 605.22 757.83 620.98 C757.86 638.9 757.86 656.83 757.82 674.75 C757.8 684.79 757.81 694.82 757.83 704.86 C757.85 711.56 757.84 718.26 757.81 724.95 C757.8 728.77 757.79 732.59 757.82 736.41 C757.85 740.52 757.82 744.63 757.79 748.74 C757.81 749.94 757.82 751.13 757.84 752.36 C757.7 761.29 757.7 761.29 754.15 764.99 C749.01 768.5 743.25 768.07 737.25 768 C735.96 768 734.68 768.01 733.36 768.02 C729.79 768.04 726.22 768.02 722.65 768 C718.77 767.98 714.89 767.99 711.01 768 C704.21 768.02 697.41 768.01 690.61 767.98 C680.49 767.95 670.38 767.95 660.27 767.96 C643.25 767.97 626.24 767.95 609.22 767.92 C592.37 767.89 575.52 767.87 558.68 767.86 C557.63 767.86 556.58 767.86 555.5 767.86 C550.18 767.86 544.86 767.86 539.55 767.86 C501.86 767.85 464.18 767.82 426.49 767.76 C389.89 767.71 353.28 767.68 316.68 767.66 C315.55 767.66 314.42 767.66 313.26 767.66 C304.18 767.65 295.11 767.65 286.03 767.65 C246.92 767.63 207.81 767.6 168.69 767.57 C162.37 767.57 156.04 767.56 149.71 767.56 C126.5 767.54 103.28 767.52 80.06 767.49 C70.89 767.47 61.72 767.46 52.55 767.46 C44.96 767.45 37.36 767.44 29.76 767.43 C25.94 767.42 22.11 767.42 18.28 767.41 C14.17 767.41 10.06 767.4 5.94 767.4 C4.74 767.4 3.53 767.4 2.29 767.4 C1.2 767.39 0.12 767.39 -1 767.39 C-1.94 767.39 -2.88 767.38 -3.85 767.38 C-6.09 767.26 -6.09 767.26 -8.09 766.26 C-8.42 764.92 -8.76 763.59 -9.09 762.26 C-9.75 761.93 -10.41 761.6 -11.09 761.26 C-11.09 512.11 -11.09 262.96 -11.09 6.26 C-10.43 6.26 -9.77 6.26 -9.09 6.26 C-8.8 5.64 -8.51 5.02 -8.21 4.38 C-6.03 0.25 -4.46 0 0 0 Z M9.91 20.26 C9.91 259.84 9.91 499.42 9.91 746.26 C249.49 746.26 489.07 746.26 735.91 746.26 C735.91 506.68 735.91 267.1 735.91 20.26 C496.33 20.26 256.75 20.26 9.91 20.26 Z " fill="#3876F0" transform="translate(74.08898711204529,67.74469900131226)"/>
<path d="M0 0 C0.89 -0 1.77 -0.01 2.68 -0.01 C3.17 -0.01 3.17 -0.01 5.63 -0 C6.13 -0 6.13 -0 8.68 -0.01 C11.97 -0.01 15.26 -0 18.55 0 C19.11 0.01 19.11 0.01 21.92 0.01 C35.47 0.03 49.01 0.1 62.55 0.5 C63.74 0.54 64.93 0.57 66.15 0.6 C71.44 0.79 75.91 1.12 80.86 3.13 C82.04 3.46 83.21 3.79 84.42 4.14 C105.88 10.22 123.26 21.61 135.86 40.13 C136.43 40.9 136.99 41.68 137.56 42.47 C154.81 68.18 154.51 105.08 148.9 134.42 C145.48 150.81 139.49 165.07 128.86 178.13 C128.36 178.78 127.86 179.43 127.34 180.11 C123.54 184.87 118.96 188.78 113.86 192.13 C113.2 192.13 112.54 192.13 111.86 192.13 C111.64 192.74 111.41 193.34 111.17 193.97 C109.5 196.74 107.91 197.41 104.99 198.75 C104.13 199.16 103.26 199.56 102.37 199.98 C101.54 200.36 100.72 200.74 99.86 201.13 C99.53 201.31 99.53 201.31 97.82 202.22 C95.67 203.22 93.76 203.65 91.43 204.07 C88.66 204.57 85.95 205.11 83.24 205.85 C63.98 211.06 43.29 210.38 23.5 210.54 C21.16 210.56 18.82 210.59 16.48 210.62 C13.15 210.67 9.83 210.68 6.5 210.69 C5.48 210.71 4.47 210.73 3.43 210.75 C-3.55 210.7 -3.55 210.7 -6.68 207.66 C-7.16 206.82 -7.64 205.99 -8.14 205.13 C-8.8 204.8 -9.46 204.47 -10.14 204.13 C-10.25 178.1 -10.34 152.08 -10.39 126.05 C-10.42 113.97 -10.46 101.89 -10.51 89.8 C-10.56 79.28 -10.59 68.75 -10.61 58.22 C-10.61 52.64 -10.63 47.06 -10.66 41.49 C-10.7 36.24 -10.71 30.99 -10.7 25.75 C-10.7 23.82 -10.71 21.89 -10.73 19.96 C-10.76 17.34 -10.75 14.71 -10.74 12.08 C-10.75 11.31 -10.77 10.54 -10.78 9.75 C-10.75 7.62 -10.75 7.62 -10.14 4.13 C-7.66 2.19 -7.66 2.19 -5.14 1.13 C-3.59 -0.42 -2.15 0 0 0 Z " fill="#3776F0" transform="translate(1915.135498046875,335.87060546875)"/>
<path d="M0 0 C1.23 -0.02 2.46 -0.03 3.73 -0.05 C4.92 -0.05 6.11 -0.05 7.34 -0.05 C8.42 -0.05 9.51 -0.06 10.63 -0.06 C14.2 0.38 15.87 0.98 18.62 3.31 C19.95 5.95 20.97 8.36 21.94 11.12 C22.23 11.91 22.52 12.7 22.82 13.52 C23.77 16.11 24.7 18.71 25.62 21.31 C26.28 23.12 26.94 24.92 27.6 26.73 C28.96 30.43 30.3 34.14 31.64 37.85 C34.33 45.29 37.1 52.7 39.87 60.11 C41.4 64.24 42.93 68.36 44.46 72.48 C45.87 76.29 47.29 80.08 48.72 83.87 C53.1 95.47 57.26 107.14 61.44 118.81 C61.85 119.95 62.25 121.09 62.68 122.27 C68.85 139.52 75 156.79 81.12 174.06 C81.49 175.08 81.85 176.1 82.22 177.14 C83.24 180.03 84.26 182.91 85.28 185.8 C85.43 186.21 85.43 186.21 86.18 188.33 C87 190.65 87.81 192.98 88.62 195.31 C88.77 195.72 88.77 195.72 89.51 197.8 C89.78 198.6 90.06 199.4 90.35 200.22 C90.6 200.94 90.85 201.65 91.1 202.39 C91.81 205 91.61 206.81 90.62 209.31 C87.2 212.74 82.4 211.68 77.75 211.69 C76.74 211.71 75.74 211.74 74.7 211.76 C74.21 211.76 74.21 211.76 71.76 211.77 C70.87 211.78 69.98 211.79 69.07 211.8 C65.79 211.15 64.7 209.9 62.62 207.31 C58.74 200.37 56.22 192.7 53.69 185.19 C50.4 175.54 47.02 165.93 43.62 156.31 C29.11 156.15 29.11 156.15 -44.38 155.31 C-45.03 158.28 -45.69 161.25 -46.38 164.31 C-47.06 166.56 -47.78 168.79 -48.55 171.01 C-48.96 172.21 -49.38 173.42 -49.8 174.66 C-50.24 175.92 -50.68 177.18 -51.12 178.44 C-51.35 179.08 -51.57 179.72 -51.8 180.38 C-61.06 207 -61.06 207 -64.38 210.31 C-68.21 211.76 -72.33 211.5 -76.38 211.5 C-77.09 211.51 -77.8 211.52 -78.53 211.54 C-82.31 211.55 -85.17 211.42 -88.38 209.31 C-88.74 203.4 -87.52 199.06 -85.44 193.56 C-84.79 191.79 -84.15 190.02 -83.51 188.25 C-83.34 187.77 -83.34 187.77 -82.46 185.37 C-80.48 179.8 -78.66 174.18 -76.81 168.56 C-74.2 160.66 -71.51 152.82 -68.52 145.05 C-66.67 140.2 -65.04 135.31 -63.44 130.38 C-59.82 119.3 -55.81 108.37 -51.81 97.44 C-51.49 96.56 -51.17 95.68 -50.84 94.77 C-47.7 86.18 -44.54 77.6 -41.1 69.12 C-38.97 63.86 -37.03 58.6 -35.31 53.19 C-33.29 46.98 -31.12 40.87 -28.73 34.8 C-27.03 30.43 -25.42 26.03 -23.81 21.62 C-22.93 19.23 -22.04 16.83 -21.16 14.43 C-20.48 12.6 -19.81 10.78 -19.14 8.95 C-18.81 8.06 -18.47 7.17 -18.12 6.25 C-17.85 5.52 -17.58 4.78 -17.3 4.03 C-14.12 -1.89 -5.68 -0.01 0 0 Z " fill="#3776F0" transform="translate(445.375,335.6875)"/>
<path d="M0 0 C49.78 0 49.78 0 63 6 C63.64 6.28 64.28 6.57 64.94 6.86 C68.82 8.63 72.42 10.68 76 13 C76.81 13.51 77.63 14.02 78.47 14.54 C91.92 23.87 99.51 41.24 102.56 56.86 C103.88 64.91 104.32 72.72 104.25 80.88 C104.25 81.49 104.25 81.49 104.23 84.6 C103.95 107.85 99.05 129.68 82.25 146.79 C78.13 150.52 71.75 156 66 156 C66 156.66 66 157.32 66 158 C63.98 158.65 61.96 159.3 59.94 159.94 C59.37 160.12 59.37 160.12 56.53 161.03 C38.7 165.94 17.76 164 0 164 C0 109.88 0 55.76 0 0 Z " fill="#FCFDFE" transform="translate(1933,359)"/>
<path d="M0 0 C0.44 -0 0.44 -0 2.65 -0.01 C3.14 -0.01 3.14 -0.01 5.61 -0.01 C6.64 -0.01 7.67 -0.01 8.73 -0.02 C12.22 -0.02 15.72 -0.02 19.21 -0.02 C21.73 -0.03 24.24 -0.03 26.76 -0.04 C32.97 -0.05 39.18 -0.05 45.39 -0.06 C52.83 -0.06 60.27 -0.07 67.71 -0.08 C85.69 -0.11 103.67 -0.13 121.64 -0.14 C127.6 -0.14 133.55 -0.15 139.5 -0.15 C171.13 -0.18 202.77 -0.2 234.4 -0.21 C241.73 -0.21 249.06 -0.22 256.39 -0.22 C257.3 -0.22 258.21 -0.22 259.15 -0.22 C288.7 -0.23 318.24 -0.26 347.78 -0.31 C378.14 -0.35 408.5 -0.38 438.85 -0.38 C443.14 -0.38 447.42 -0.38 451.7 -0.38 C452.55 -0.38 453.39 -0.38 454.26 -0.38 C467.85 -0.39 481.44 -0.41 495.03 -0.43 C508.68 -0.46 522.33 -0.47 535.99 -0.46 C544.1 -0.45 552.22 -0.46 560.34 -0.49 C566.39 -0.51 572.44 -0.5 578.49 -0.48 C580.95 -0.48 583.4 -0.49 585.86 -0.5 C589.18 -0.52 592.51 -0.51 595.83 -0.49 C596.8 -0.5 597.76 -0.51 598.76 -0.53 C603.4 -0.47 605.31 -0.4 609.04 2.61 C609.68 3.44 610.31 4.27 610.97 5.13 C611.3 5.46 611.63 5.79 611.97 6.13 C612.08 7.52 612.11 8.92 612.12 10.32 C612.13 11.22 612.14 12.12 612.15 13.05 C612.15 13.55 612.15 13.55 612.16 16.08 C612.17 17.12 612.18 18.17 612.19 19.25 C612.21 22.72 612.23 26.2 612.24 29.68 C612.25 30.27 612.25 30.27 612.26 33.27 C612.29 39.53 612.31 45.8 612.32 52.07 C612.34 58.56 612.38 65.04 612.43 71.53 C612.47 76.5 612.48 81.48 612.48 86.46 C612.49 88.85 612.51 91.24 612.53 93.63 C612.56 96.98 612.56 100.32 612.55 103.66 C612.57 104.65 612.59 105.64 612.6 106.67 C612.56 111.39 612.54 113.42 609.5 117.22 C608.66 117.85 607.83 118.48 606.97 119.13 C606.64 119.46 606.31 119.79 605.97 120.13 C604.63 120.23 603.28 120.26 601.94 120.26 C601.5 120.26 601.5 120.26 599.29 120.27 C598.8 120.27 598.8 120.27 596.33 120.27 C595.3 120.27 594.28 120.27 593.21 120.28 C589.72 120.28 586.22 120.28 582.73 120.28 C580.21 120.29 577.7 120.29 575.19 120.3 C568.97 120.31 562.76 120.31 556.55 120.32 C549.11 120.32 541.67 120.33 534.23 120.34 C516.25 120.37 498.28 120.38 480.3 120.4 C474.34 120.4 468.39 120.41 462.44 120.41 C430.81 120.44 399.18 120.46 367.54 120.47 C360.21 120.47 352.88 120.48 345.55 120.48 C344.64 120.48 343.73 120.48 342.79 120.48 C313.24 120.49 283.7 120.52 254.16 120.57 C223.8 120.61 193.44 120.64 163.09 120.64 C158.81 120.64 154.52 120.64 150.24 120.64 C149.82 120.64 149.82 120.64 147.68 120.64 C134.09 120.65 120.5 120.67 106.91 120.69 C93.26 120.72 79.61 120.73 65.95 120.72 C57.84 120.71 49.72 120.72 41.6 120.75 C35.55 120.77 29.5 120.76 23.45 120.74 C20.99 120.74 18.54 120.75 16.08 120.76 C12.76 120.78 9.43 120.77 6.11 120.75 C5.14 120.76 4.18 120.77 3.18 120.79 C-1.46 120.73 -3.37 120.66 -7.1 117.65 C-7.42 117.24 -7.42 117.24 -9.03 115.13 C-9.36 114.8 -9.69 114.47 -10.03 114.13 C-10.14 112.74 -10.17 111.34 -10.18 109.94 C-10.19 109.04 -10.2 108.14 -10.21 107.21 C-10.21 106.21 -10.22 105.21 -10.22 104.18 C-10.23 103.14 -10.24 102.09 -10.25 101.01 C-10.27 97.54 -10.29 94.06 -10.3 90.58 C-10.31 89.4 -10.31 88.21 -10.32 86.99 C-10.35 80.72 -10.37 74.46 -10.38 68.19 C-10.4 61.7 -10.44 55.22 -10.49 48.73 C-10.53 43.76 -10.54 38.78 -10.54 33.8 C-10.55 31.41 -10.57 29.02 -10.59 26.63 C-10.62 23.28 -10.62 19.94 -10.61 16.6 C-10.63 15.61 -10.65 14.62 -10.66 13.59 C-10.62 8.87 -10.6 6.84 -7.56 3.04 C-6.72 2.41 -5.89 1.78 -5.03 1.13 C-3.5 -0.4 -2.13 0 0 0 Z M-1.03 9.13 C-1.03 42.79 -1.03 76.45 -1.03 111.13 C198.29 111.13 397.61 111.13 602.97 111.13 C602.97 77.47 602.97 43.81 602.97 9.13 C403.65 9.13 204.33 9.13 -1.03 9.13 Z " fill="#CDDCFA" transform="translate(914.0297830104828,396.87004816532135)"/>
<path d="M0 0 C3.12 2.81 4.68 5.05 6.01 9.03 C6.18 9.52 6.18 9.52 7.01 11.98 C7.34 12.97 7.66 13.97 8 15 C8.16 15.47 8.16 15.47 8.95 17.84 C10.23 21.66 11.49 25.5 12.74 29.34 C14.8 35.59 17 41.77 19.3 47.93 C22.86 57.52 26.21 67.16 29.51 76.84 C30.46 79.62 31.41 82.4 32.37 85.18 C32.97 86.95 33.58 88.73 34.18 90.5 C34.47 91.33 34.75 92.16 35.05 93.01 C37 98.77 37 98.77 37 101 C13.24 101 -10.52 101 -35 101 C-28.61 81.17 -22.22 61.36 -15.3 41.7 C-14.02 38.07 -12.76 34.43 -11.49 30.79 C-10.29 27.36 -9.09 23.93 -7.89 20.49 C-7.3 18.8 -6.71 17.1 -6.12 15.4 C-5.29 13.02 -4.46 10.65 -3.62 8.28 C-3.37 7.56 -3.12 6.83 -2.87 6.09 C-1.11 1.11 -1.11 1.11 0 0 Z " fill="#FBFCFE" transform="translate(444,367)"/>
<path d="M0 0 C3.75 2.92 5.92 6.4 7 11 C7.78 18.89 8.11 26.53 3 33 C-1.65 37.83 -5.59 39.14 -12.26 39.34 C-25.95 39.53 -25.95 39.53 -32 34 C-32 33.34 -32 32.68 -32 32 C-32.66 32 -33.32 32 -34 32 C-37.16 24.22 -38.53 16.82 -35.75 8.69 C-33.6 3.78 -31.48 0.81 -26.69 -1.81 C-18.38 -4.54 -7.54 -4.69 0 0 Z " fill="#CFDDFA" transform="translate(1405,439)"/>
<path d="M0 0 C4.76 3.24 8.11 7.52 9.94 13 C10.55 20.91 11.06 28.51 5.94 35 C1.29 39.83 -2.65 41.14 -9.32 41.34 C-22.72 41.52 -22.72 41.52 -27.65 37.56 C-33.03 31.6 -34.37 25.41 -34.28 17.6 C-33.78 11.6 -31.46 6.16 -27.06 2 C-19.34 -2.23 -8.37 -2.88 0 0 Z " fill="#CFDDFA" transform="translate(1201.0625,437)"/>
<path d="M0 0 C5.61 0 11.22 0 17 0 C17.7 1.55 18.4 3.11 19.12 4.71 C20.04 6.74 20.96 8.78 21.88 10.81 C22.34 11.84 22.8 12.86 23.27 13.92 C23.71 14.9 24.16 15.88 24.62 16.89 C25.03 17.8 25.43 18.71 25.85 19.64 C27 22 27 22 29 25 C29.38 24.11 29.75 23.21 30.14 22.29 C38.52 2.48 38.52 2.48 41 0 C43.7 -0.07 46.37 -0.09 49.06 -0.06 C49.82 -0.06 50.58 -0.05 51.36 -0.05 C53.24 -0.04 55.12 -0.02 57 0 C57 0.99 57 1.98 57 3 C55.35 3 53.7 3 52 3 C52 14.88 52 26.76 52 39 C53.65 39 55.3 39 57 39 C57 39.99 57 40.98 57 42 C50.4 42 43.8 42 37 42 C37 41.01 37 40.02 37 39 C38.65 39 40.3 39 42 39 C41.67 29.76 41.34 20.52 41 11 C40.57 12.02 40.57 12.02 38.38 17.19 C34.8 25.56 31.12 33.88 27 42 C26.01 42 25.02 42 24 42 C23.62 41.03 23.25 40.07 22.86 39.07 C20.25 32.39 17.61 25.85 14.18 19.54 C12.46 15.83 11.29 11.88 10 8 C9.67 18.23 9.34 28.46 9 39 C10.98 39 12.96 39 15 39 C15 39.99 15 40.98 15 42 C10.05 42 5.1 42 0 42 C0 41.01 0 40.02 0 39 C1.65 39 3.3 39 5 39 C5 27.12 5 15.24 5 3 C3.35 3 1.7 3 0 3 C0 2.01 0 1.02 0 0 Z " fill="#CFDDFA" transform="translate(1416,436)"/>
<path d="M0 0 C0.35 -0.01 0.35 -0.01 2.12 -0.04 C4 0.19 4 0.19 6 2.19 C8.17 1.95 8.17 1.95 10.75 1.31 C18.33 -0.35 18.33 -0.35 22 0.19 C24.12 2.36 24.94 3.72 25.34 6.75 C25.33 7.22 25.33 7.22 25.29 9.61 C25.29 10.12 25.29 10.12 25.26 12.71 C25.24 13.78 25.21 14.84 25.19 15.94 C25.18 16.48 25.18 16.48 25.15 19.21 C25.11 21.87 25.06 24.53 25 27.19 C25.99 27.19 26.98 27.19 28 27.19 C28 28.18 28 29.17 28 30.19 C23.38 30.19 18.76 30.19 14 30.19 C14 29.2 14 28.21 14 27.19 C14.66 27.19 15.32 27.19 16 27.19 C15.84 23.72 15.84 23.72 15 6.19 C14.17 6.02 14.17 6.02 10 5.19 C8.38 6.81 8.78 8.64 8.68 10.88 C8.64 11.82 8.6 12.77 8.56 13.74 C8.52 14.73 8.48 15.73 8.44 16.75 C8.39 17.75 8.35 18.74 8.31 19.77 C8.2 22.24 8.1 24.72 8 27.19 C8.99 27.52 9.98 27.85 11 28.19 C11 28.85 11 29.51 11 30.19 C6.05 30.19 1.1 30.19 -4 30.19 C-4 29.53 -4 28.87 -4 28.19 C-3.01 28.19 -2.02 28.19 -1 28.19 C-1.14 24.75 -1.29 21.31 -1.44 17.88 C-1.48 16.9 -1.52 15.92 -1.56 14.92 C-1.6 13.98 -1.64 13.04 -1.68 12.07 C-1.72 11.21 -1.76 10.35 -1.79 9.46 C-2 7.19 -2 7.19 -3 4.19 C-5.31 4.52 -7.62 4.85 -10 5.19 C-10 12.45 -10 19.71 -10 27.19 C-9.01 27.52 -8.02 27.85 -7 28.19 C-7 28.85 -7 29.51 -7 30.19 C-11.95 30.19 -16.9 30.19 -22 30.19 C-21.67 29.2 -21.34 28.21 -21 27.19 C-20.34 27.19 -19.68 27.19 -19 27.19 C-19 19.6 -19 12.01 -19 4.19 C-19.99 3.86 -20.98 3.53 -22 3.19 C-22 2.53 -22 1.87 -22 1.19 C-16.67 1.19 -11.33 1.19 -6 1.19 C-3.77 0.07 -2.47 0.02 0 0 Z " fill="#CEDDFA" transform="translate(1085,447.8125)"/>
<path d="M0 0 C3.3 0 6.6 0 10 0 C13.95 9.29 17.64 18.68 21.26 28.11 C21.88 29.68 22.54 31.24 23.21 32.79 C24 35 24 35 24 39 C25.32 39 26.64 39 28 39 C28 39.99 28 40.98 28 42 C21.73 42 15.46 42 9 42 C9 41.34 9 40.68 9 40 C9.49 39.83 9.49 39.83 12 39 C11.34 35.7 10.68 32.4 10 29 C4.72 28.67 -0.56 28.34 -6 28 C-6.47 29.44 -6.95 30.89 -7.44 32.38 C-8.19 34.68 -8.92 36.83 -10 39 C-8.35 39 -6.7 39 -5 39 C-5 39.99 -5 40.98 -5 42 C-8.96 42 -12.92 42 -17 42 C-17 41.01 -17 40.02 -17 39 C-16.01 39 -15.02 39 -14 39 C-13.88 38.12 -13.76 37.25 -13.64 36.34 C-13.02 33.09 -12.09 30.52 -10.75 27.5 C-8.29 21.8 -6.19 16.02 -4.14 10.16 C-2.89 6.7 -1.52 3.35 0 0 Z " fill="#CFDDFA" transform="translate(1232,436)"/>
<path d="M0 0 C72.05 -0.05 144.09 -0.1 216.14 -0.13 C217.2 -0.13 218.27 -0.13 219.37 -0.13 C242.52 -0.14 265.67 -0.15 288.83 -0.15 C300.18 -0.16 311.53 -0.16 322.89 -0.16 C324.02 -0.17 325.15 -0.17 326.31 -0.17 C362.97 -0.18 399.62 -0.2 436.27 -0.23 C473.92 -0.26 511.57 -0.28 549.22 -0.28 C554.54 -0.28 559.85 -0.28 565.16 -0.28 C566.21 -0.28 567.25 -0.29 568.33 -0.29 C585.19 -0.29 602.06 -0.3 618.92 -0.32 C635.85 -0.34 652.78 -0.34 669.72 -0.34 C679.79 -0.34 689.86 -0.34 699.94 -0.36 C706.65 -0.37 713.37 -0.37 720.09 -0.37 C723.92 -0.36 727.76 -0.36 731.59 -0.37 C735.71 -0.39 739.83 -0.38 743.95 -0.37 C745.15 -0.38 746.36 -0.38 747.61 -0.39 C748.69 -0.39 749.78 -0.38 750.9 -0.37 C751.85 -0.37 752.79 -0.37 753.76 -0.37 C754.13 -0.31 754.13 -0.31 756 0 C756.66 0.99 757.32 1.98 758 3 C757.49 2.96 757.49 2.96 754.91 2.79 C740.22 1.85 725.54 1.86 710.82 1.88 C707.02 1.88 703.22 1.88 699.42 1.88 C692.77 1.88 686.12 1.88 679.48 1.88 C669.59 1.89 659.71 1.89 649.83 1.89 C633.2 1.88 616.57 1.89 599.95 1.89 C583.49 1.9 567.04 1.9 550.58 1.91 C549.56 1.91 548.53 1.91 547.48 1.91 C542.27 1.91 537.07 1.91 531.87 1.91 C495.05 1.91 458.23 1.92 421.4 1.92 C385.64 1.93 349.88 1.94 314.12 1.95 C313.02 1.95 311.91 1.95 310.78 1.95 C299.7 1.95 288.62 1.95 277.54 1.95 C254.98 1.95 232.41 1.95 209.84 1.96 C208.81 1.96 207.77 1.96 206.7 1.96 C137.47 1.97 68.23 1.98 -1 2 C-0.67 1.34 -0.34 0.68 0 0 Z " fill="#6091F3" transform="translate(1602,68)"/>
<path d="M0 0 C4.82 -0.02 9.65 -0.04 14.47 -0.05 C16.11 -0.06 17.76 -0.07 19.4 -0.08 C21.75 -0.09 24.11 -0.09 26.46 -0.1 C27.2 -0.1 27.94 -0.11 28.7 -0.11 C30.47 -0.11 32.23 -0.06 34 0 C35 1 35 1 35.1 3.07 C35.09 3.89 35.07 4.71 35.06 5.56 C35.05 6.39 35.04 7.22 35.04 8.07 C35.02 8.7 35.01 9.34 35 10 C34.34 10 33.68 10 33 10 C32.34 8.35 31.68 6.7 31 5 C25.72 4.67 20.44 4.34 15 4 C15 8.95 15 13.9 15 19 C18.63 18.67 22.26 18.34 26 18 C26.33 16.68 26.66 15.36 27 14 C27.99 14 28.98 14 30 14 C30 18.29 30 22.58 30 27 C28.68 26.67 27.36 26.34 26 26 C26 24.68 26 23.36 26 22 C22.37 22 18.74 22 15 22 C15 27.28 15 32.56 15 38 C21.27 38 27.54 38 34 38 C34.33 35.36 34.66 32.72 35 30 C35.99 30 36.98 30 38 30 C38 33.96 38 37.92 38 42 C25.46 42 12.92 42 0 42 C0 41.01 0 40.02 0 39 C1.65 39 3.3 39 5 39 C5 27.12 5 15.24 5 3 C3.35 3 1.7 3 0 3 C0 2.01 0 1.02 0 0 Z " fill="#CFDDFA" transform="translate(956,436)"/>
<path d="M0 0 C0.73 -0.01 1.46 -0.02 2.21 -0.02 C7.04 -0.01 11.04 0.73 15.62 2.25 C15.62 5.55 15.62 8.85 15.62 12.25 C14.63 12.25 13.64 12.25 12.62 12.25 C12.6 11.49 12.58 10.72 12.56 9.94 C11.62 7.25 11.62 7.25 8.56 5.44 C2.39 3.21 -3.29 3.82 -9.38 6.25 C-9.38 6.91 -9.38 7.57 -9.38 8.25 C-10.04 8.25 -10.69 8.25 -11.38 8.25 C-13.29 17.1 -13.53 27 -9.38 35.25 C-4.59 39.22 0.7 38.49 6.62 38.25 C6.95 34.29 7.29 30.33 7.62 26.25 C5.64 26.25 3.66 26.25 1.62 26.25 C1.62 25.26 1.62 24.27 1.62 23.25 C8.22 23.25 14.83 23.25 21.62 23.25 C21.62 24.24 21.62 25.23 21.62 26.25 C19.97 26.25 18.33 26.25 16.62 26.25 C16.62 30.87 16.62 35.49 16.62 40.25 C7.4 43.32 -4.22 44.34 -13.61 41.15 C-18.1 38.33 -22.03 34.49 -23.38 29.25 C-24.27 21.51 -24.73 14.17 -19.8 7.76 C-13.84 1.44 -8.55 -0.09 0 0 Z " fill="#CFDDFA" transform="translate(1141.375,435.75)"/>
<path d="M0 0 C0.37 -0.03 0.37 -0.03 2.24 -0.19 C6.36 1.08 8.61 3.85 10.69 7.56 C11.45 10.94 11.4 14.12 11.25 17.56 C11.25 18.43 11.25 19.29 11.24 20.18 C11.13 25.65 10.42 29.78 7.69 34.56 C4.36 37.01 0.91 37.09 -3.12 37.02 C-5.74 36.47 -6.61 35.72 -8.31 33.69 C-11.65 28.47 -11.56 24.9 -11.62 18.81 C-11.65 17.92 -11.68 17.02 -11.71 16.1 C-11.77 10.4 -11.21 7.03 -7.31 2.56 C-4.36 0.59 -3.39 0.18 0 0 Z " fill="#FEFEFE" transform="translate(1189.3125,438.4375)"/>
<path d="M0 0 C4.08 2.4 5.64 4.54 7 9 C7.31 11.96 7.32 14.9 7.31 17.88 C7.33 18.65 7.34 19.43 7.36 20.23 C7.37 25.55 6.64 29.34 4 34 C0.18 36.84 -4.43 36.66 -9 36 C-13.26 33.27 -13.87 29.76 -15 25 C-15.31 22.14 -15.37 19.31 -15.38 16.44 C-15.4 15.71 -15.42 14.98 -15.45 14.23 C-15.48 9.04 -14.42 6.11 -11 2 C-7.3 -0.46 -4.29 -0.68 0 0 Z " fill="#FEFEFE" transform="translate(1394,439)"/>
<path d="M0 0 C0.73 -0.01 1.47 -0.02 2.22 -0.02 C6.7 -0.01 10.29 0.57 14.5 2.25 C14.5 5.55 14.5 8.85 14.5 12.25 C13.18 11.92 11.86 11.59 10.5 11.25 C10.42 10.47 10.34 9.68 10.25 8.88 C9.5 6.25 9.5 6.25 7.73 5.11 C3.98 3.66 0.45 3.7 -3.5 4.25 C-7.21 6 -8.99 7.08 -10.63 10.87 C-11.67 14.91 -11.9 18.6 -11.94 22.75 C-11.97 23.48 -12 24.22 -12.04 24.97 C-12.08 29 -11.7 31.52 -9.16 34.72 C-5.17 38.52 -1.96 38.46 3.27 38.42 C5.97 38.21 8.1 37.49 10.5 36.25 C10.83 33.94 11.16 31.63 11.5 29.25 C12.49 29.25 13.48 29.25 14.5 29.25 C14.5 32.88 14.5 36.51 14.5 40.25 C6.76 43.35 -3.96 43.75 -12.12 41.25 C-17.31 38.18 -21.57 34.05 -23.5 28.25 C-24.07 20.13 -24.39 13.18 -19.18 6.57 C-13.73 0.59 -7.75 -0.08 0 0 Z " fill="#D0DEFA" transform="translate(1345.5,435.75)"/>
<path d="M0 0 C7.26 0 14.52 0 22 0 C22 0.99 22 1.98 22 3 C20.02 3 18.04 3 16 3 C16 14.55 16 26.1 16 38 C21.94 38 27.88 38 34 38 C34.66 35.03 35.32 32.06 36 29 C36.99 29 37.98 29 39 29 C39.03 30.79 39.05 32.58 39.06 34.38 C39.07 35.37 39.09 36.37 39.1 37.4 C39 40 39 40 38 42 C25.46 42 12.92 42 0 42 C0 41.01 0 40.02 0 39 C1.98 39 3.96 39 6 39 C6 27.12 6 15.24 6 3 C4.02 3 2.04 3 0 3 C0 2.01 0 1.02 0 0 Z " fill="#CFDEFA" transform="translate(1261,436)"/>
<path d="M0 0 C0.72 -0.03 1.43 -0.06 2.17 -0.09 C5.56 -0.13 8.13 0.26 11.25 1.6 C14.52 6.04 13.77 10.71 13.56 16.06 C13.54 17.14 13.52 18.22 13.49 19.33 C13.44 21.99 13.35 24.65 13.25 27.31 C14.24 27.31 15.23 27.31 16.25 27.31 C16.25 28.3 16.25 29.29 16.25 30.31 C12.62 30.31 8.99 30.31 5.25 30.31 C5.25 29.65 5.25 28.99 5.25 28.31 C4.68 28.63 4.11 28.95 3.53 29.29 C-0.2 30.97 -3.75 31 -7.75 30.31 C-10.81 28.25 -10.81 28.25 -12.75 25.31 C-13.44 21.05 -13.25 19.11 -10.94 15.44 C-7.63 12.23 -4.97 12.19 -0.56 12.25 C0.34 12.26 1.24 12.27 2.17 12.28 C2.86 12.29 3.54 12.3 4.25 12.31 C3.92 9.34 3.59 6.37 3.25 3.31 C-2.21 3.66 -2.21 3.66 -4.75 4.31 C-6.25 6.38 -6.25 6.38 -6.75 8.31 C-7.41 8.31 -8.07 8.31 -8.75 8.31 C-8.79 5.98 -8.79 3.65 -8.75 1.31 C-6.72 -0.72 -2.78 0.04 0 0 Z " fill="#CFDDFA" transform="translate(1043.75,447.6875)"/>
<path d="M0 0 C5.28 0 10.56 0 16 0 C16 0.66 16 1.32 16 2 C15.01 2 14.02 2 13 2 C13.99 3.65 14.98 5.3 16 7 C19.16 5.63 19.99 5.01 22 2 C21.34 2 20.68 2 20 2 C20 1.34 20 0.68 20 0 C23.3 0 26.6 0 30 0 C30 0.66 30 1.32 30 2 C29.28 2.41 28.56 2.82 27.81 3.25 C24.34 5.41 22.5 7.78 20 11 C21.31 14.53 22.85 17.56 24.94 20.69 C25.44 21.45 25.95 22.22 26.46 23.01 C28 25 28 25 31 27 C31 27.66 31 28.32 31 29 C25.72 29 20.44 29 15 29 C15.66 27.68 16.32 26.36 17 25 C15.67 22.14 14.85 20.43 12 19 C11.73 19.58 11.46 20.15 11.19 20.75 C9.98 23.03 8.59 24.97 7 27 C7.66 27 8.32 27 9 27 C9 27.66 9 28.32 9 29 C5.7 29 2.4 29 -1 29 C-1 28.34 -1 27.68 -1 27 C-0.3 26.61 0.4 26.22 1.12 25.81 C4.75 23.53 7.86 20.75 10 17 C9.71 13.52 7.88 10.77 6.12 7.81 C5.87 7.37 5.87 7.37 4.57 5.14 C3 3 3 3 0 2 C0 1.34 0 0.68 0 0 Z " fill="#CEDDFA" transform="translate(998,449)"/>
<path d="M0 0 C14.05 -0.07 28.09 -0.12 42.14 -0.16 C48.66 -0.17 55.18 -0.19 61.71 -0.23 C68 -0.26 74.29 -0.28 80.57 -0.28 C82.98 -0.29 85.38 -0.3 87.79 -0.32 C91.14 -0.34 94.5 -0.34 97.86 -0.34 C98.36 -0.35 98.36 -0.35 100.9 -0.37 C101.81 -0.37 102.72 -0.37 103.66 -0.36 C104.45 -0.36 105.25 -0.37 106.07 -0.37 C106.39 -0.31 106.39 -0.31 108 0 C108.33 0.5 108.33 0.5 110 3 C109.44 2.97 109.44 2.97 106.61 2.79 C94.15 2.06 81.72 1.79 69.24 1.68 C67.23 1.66 65.21 1.64 63.2 1.62 C57.97 1.57 52.74 1.52 47.51 1.47 C42.15 1.42 36.78 1.36 31.42 1.31 C20.95 1.2 10.47 1.1 0 1 C0 0.67 0 0.34 0 0 Z " fill="#709DF3" transform="translate(2250,68)"/>
<path d="M0 0 C0.66 0 1.32 0 2 0 C2.18 0.65 2.36 1.3 2.55 1.98 C3.98 6.94 5.59 11.41 8 16 C8 16.66 8 17.32 8 18 C3.38 18 -1.24 18 -6 18 C-4 12 -2 6 0 0 Z " fill="#FBFCFE" transform="translate(1233,443)"/>
<path d="M0 0 C2.44 0.69 2.44 0.69 4.44 1.69 C4.56 4.56 4.56 4.56 4.44 7.69 C2.44 9.69 2.44 9.69 -1.19 9.81 C-2.3 9.77 -3.41 9.73 -4.56 9.69 C-5.96 6.9 -5.82 4.77 -5.56 1.69 C-2.56 -0.31 -2.56 -0.31 0 0 Z " fill="#D0DEFA" transform="translate(1311.5625,468.3125)"/>
<path d="M0 0 C0.03 1.81 0.05 3.62 0.06 5.44 C0.07 6.45 0.09 7.46 0.1 8.5 C0 11 0 11 -1 12 C-3.44 12.19 -3.44 12.19 -6 12 C-8 10 -8 10 -8.38 6.56 C-8 3 -8 3 -6.25 1.06 C-4 0 -4 0 0 0 Z " fill="#FBFCFE" transform="translate(1048,463)"/>
<path d="M0 0 C0.66 0 1.32 0 2 0 C0.25 3.88 0.25 3.88 -2 5 C-1.34 3.35 -0.68 1.7 0 0 Z " fill="#6293F3" transform="translate(430,337)"/>
</svg>
