<?xml version="1.0" encoding="UTF-8"?>
<svg xmlns="http://www.w3.org/2000/svg" viewBox="0 0 2430 1653" width="2430" height="1653" shape-rendering="geometricPrecision">
<path d="M2130.5 1563.53C2115.76 1560.32 2103.05 1552.97 2091.69 1541.07C2075.37 1523.99 2065.73 1499.67 2063.02 1468.77C2060.4 1438.78 2068.43 1405.57 2083.37 1384.62C2098.7 1363.15 2121.43 1352.05 2150.14 1352.01C2182.57 1351.97 2210.83 1366.84 2222.54 1390.09C2230.92 1406.73 2228.39 1419 2216.59 1419C2210.9 1419 2208.41 1416.93 2206.6 1410.69C2203.79 1401.03 2190.78 1385.31 2179.94 1378.46C2173.8 1374.59 2166.55 1373 2155.07 1373.02C2141.54 1373.04 2132.55 1374.95 2122.33 1379.99C2105.3 1388.38 2094.9 1403.3 2089.23 1427.45C2086.58 1438.75 2086.96 1473.18 2089.89 1486.92C2095.18 1511.79 2105.96 1528.67 2122.16 1537.49C2133.19 1543.49 2152.8 1545.74 2165.54 1542.47C2184.71 1537.54 2202.75 1522.82 2206.57 1509C2209.28 1499.21 2210.65 1497.04 2215.52 1494.89C2218.71 1493.48 2221.68 1492.99 2225.76 1493.2C2231.43 1493.5 2231.5 1493.54 2231.81 1496.74C2231.98 1498.53 2231.17 1503.45 2230.01 1507.69C2222.31 1535.77 2198.51 1557.08 2167.79 1563.41C2158.48 1565.33 2139.03 1565.39 2130.5 1563.53ZM2268.58 1557.75C2265.01 1552.24 2264.5 1539.88 2264.5 1458C2264.5 1363.85 2265.04 1356.41 2271.81 1357.19C2278.27 1357.94 2279 1365.52 2279.67 1439C2280.23 1501.07 2279.18 1544.47 2276.92 1552.5C2274.91 1559.67 2271.3 1561.94 2268.58 1557.75ZM1934 1366.74C1910.14 1350.52 1835.76 1293.02 1688.1 1176.66L1599.69 1107L1236.4 1107C1011.85 1107 872.9 1106.64 872.54 1106.06C872.22 1105.55 871.94 1003.96 871.92 880.31C871.88 639.88 870.68 450.09 869.02 420C867.85 398.75 866.66 391.48 864.2 390.5C863.26 390.13 829.88 377.98 790 363.51C567.19 282.63 480.81 250.84 462.12 242.84L457.74 240.96L458.25 236.48C459.14 228.57 475.33 197.45 510.27 136.5C516.58 125.5 522.36 116.39 523.12 116.25C523.88 116.11 601.9 176.97 696.5 251.49L868.5 386.99L1235.25 386.99L1602 387L1602.02 553.75C1602.02 645.46 1602.23 788 1602.46 870.5C1602.97 1047.63 1604.23 1097.62 1608.3 1101.7C1608.96 1102.37 1679.92 1128.53 1766 1159.85C1972.75 1235.09 2001.04 1245.55 2002.12 1247.24C2003.81 1249.86 1997.53 1265.62 1986.27 1287C1972.22 1313.66 1941.84 1367.07 1939.74 1368.79C1938.86 1369.51 1937.21 1368.93 1934 1366.74ZM1579.84 1089.7C1580.61 1088.76 1580.93 990.11 1580.95 745.7L1580.99 403L1236.99 403L893 403L893 746.33C893 935.17 893.3 1089.97 893.67 1090.33C894.03 1090.7 1048.33 1091 1236.54 1091C1516.74 1091 1578.95 1090.76 1579.84 1089.7ZM105 170.09L105 68L111.49 68C124.1 68 178.67 70.04 191.9 71C211.24 72.41 215.84 73.94 224.03 81.66C237.78 94.63 243.87 115.19 239.49 133.78C237.72 141.28 235.09 146.75 230 153.5C223.06 162.71 223.45 164.34 235.6 177.17C241.58 183.47 245.19 188.3 247.36 192.89C250.26 199.02 250.52 200.42 250.85 212.26C251.04 219.31 250.68 228.04 250.03 231.76C246.98 249.29 236.21 260.96 218 266.43C204.24 270.57 194.95 271.28 149.25 271.74L105 272.18L105 170.09ZM281.38 269.46C280.47 268.06 279.31 265.02 278.82 262.71C277.41 256.07 276.64 167.75 277.84 149.5C279.02 131.37 280.05 127.28 283.65 126.37C289.84 124.82 297.98 128.82 298.01 133.42C298.02 134.57 298.3 136.51 298.63 137.74C299.2 139.88 299.5 139.74 304.62 135.07C322.74 118.51 345 116.35 345 131.16C345 136.59 339.9 142 334.78 142C328.46 142 321.03 144.93 316.31 149.28C303.34 161.24 298.13 187.08 298 240C297.93 266.75 296.18 272 287.35 272C283.84 272 282.74 271.53 281.38 269.46ZM177.68 249.92C204.67 248.43 212.21 246.94 218.32 241.89C225.88 235.65 230.75 223.99 229.66 214.76C228.39 204.03 220.51 192.18 209.97 185.14C201.47 179.46 195.73 178.74 158 178.61L126.5 178.5L126.24 213.99C126.09 233.52 126.21 250.11 126.5 250.87C127.07 252.35 137.03 252.16 177.68 249.92ZM172 155.91C185.18 154.92 199.9 152.17 204.31 149.86C213.64 144.97 218.62 136.87 219.62 124.95C221.03 108.27 213.95 98.37 197.09 93.46C188.22 90.88 176.62 90 151.43 90L126 90L126 124.14L126 158.28L142.25 157.6C151.19 157.22 164.57 156.46 172 155.91Z" fill="#1e2749" fill-rule="evenodd"/>
</svg>
