<?xml version="1.0" encoding="UTF-8"?>
<svg xmlns="http://www.w3.org/2000/svg" viewBox="0 0 2430 2300" width="2430" height="2300" shape-rendering="geometricPrecision">
<path d="M287.5 2265.96C266.44 2262.82 245.87 2246.78 236.91 2226.52C230.62 2212.31 228.62 2188.08 232.36 2171.5C235.75 2156.46 245.52 2141.33 258.5 2131C272.15 2120.14 283.93 2116.41 301.86 2117.26C319.36 2118.09 331.58 2123.32 344.99 2135.71C361.17 2150.66 368.24 2170.5 366.66 2196.5C364.83 2226.47 352.06 2247.4 328.56 2258.93C315.45 2265.36 300.58 2267.9 287.5 2265.96ZM306.54 2257.45C314.71 2255.32 320.42 2251.79 327.57 2244.43C338.75 2232.92 342.95 2220.54 342.98 2198.97C343.01 2177.44 339.11 2156.2 333.29 2146.19C322.27 2127.25 299.83 2120.41 280.26 2130.05C270.21 2134.99 260.94 2148.01 257.87 2161.5C255.81 2170.51 256.11 2211.07 258.31 2220.91C262.48 2239.61 273.32 2252.78 288.5 2257.6C293.97 2259.33 299.48 2259.29 306.54 2257.45ZM2058 2232.16C2058 2231.2 2059.76 2224.58 2061.9 2217.44C2066.47 2202.26 2068.31 2193.6 2067.84 2189.47L2067.5 2186.5L1876 2185.89C1703.76 2185.33 1669.79 2184.94 1662.25 2183.42C1659.46 2182.85 1659.22 2179.19 1661.76 2176.05C1663.3 2174.14 1665.09 2173.76 1676.51 2172.84C1684.47 2172.2 1762.63 2171.55 1878.5 2171.15L2067.5 2170.5L2067.81 2166.12C2068.24 2160.19 2065.68 2148.14 2060.94 2133.68C2056.58 2120.42 2056.5 2120 2058.17 2120C2058.82 2120 2072.2 2126.7 2087.92 2134.89C2115.38 2149.18 2121.28 2152.31 2134.5 2159.52C2137.8 2161.32 2143.65 2164.47 2147.5 2166.52C2164.56 2175.63 2168.18 2178.08 2166.91 2179.61C2165.64 2181.14 2066.89 2230.82 2061.25 2232.77C2058.4 2233.76 2058 2233.68 2058 2232.16ZM2239.38 2215.81C2238.98 2215.15 2239.15 2214.45 2239.78 2214.24C2242.24 2213.42 2247.43 2209.35 2249.41 2206.68C2251.41 2203.97 2251.5 2202.69 2251.5 2176.68C2251.49 2144.11 2250.91 2138.76 2246.97 2134.82C2245.41 2133.25 2242.75 2131.7 2241.06 2131.36C2239.38 2131.03 2238 2130.19 2238 2129.5C2238 2128 2249.06 2122.1 2257.71 2118.99C2267.73 2115.39 2269.96 2116.92 2269.99 2127.41L2270 2132.33L2276.88 2125.68C2284.33 2118.49 2287.09 2117 2292.92 2117C2300.04 2117 2307.98 2124.96 2306.55 2130.67C2305.66 2134.2 2300.37 2139 2297.38 2139C2296.05 2139 2292.43 2137.65 2289.34 2136C2282.3 2132.24 2280.9 2132.25 2277.05 2136.11C2270.56 2142.59 2270.53 2142.76 2270.18 2173.5C2269.81 2206.05 2270.11 2207.83 2276.76 2212.29C2279.11 2213.86 2280.77 2215.57 2280.45 2216.07C2279.56 2217.52 2240.28 2217.27 2239.38 2215.81ZM350.77 1950.34C350.17 1662.16 350.96 81.81 351.71 70.53C352.48 58.91 352.58 58.52 355.21 57.05C357.22 55.92 358.22 55.82 359.05 56.65C361.94 59.54 362.79 290.17 363.63 1306.5C363.98 1726.15 364.32 2069.58 364.38 2069.67C364.45 2069.76 770.85 2070.09 1267.5 2070.39C2241.54 2070.98 2370.72 2071.37 2375.31 2073.69C2379.08 2075.6 2378.65 2079.04 2374.5 2080.2C2364.93 2082.86 2263.77 2083.2 1323.27 2083.68L351.05 2084.17L350.77 1950.34ZM2116.5 2047.92C2053.35 2044.62 1960.58 2028.73 1876.5 2006.81C1794.71 1985.5 1698.06 1951.22 1618.75 1915.4C1613.39 1912.98 1604.61 1909.02 1599.25 1906.59C1581.34 1898.49 1532.75 1874.51 1511 1863.03C1388.98 1798.63 1279.41 1725.98 1174.33 1639.81C1012.32 1506.95 866.51 1345.41 754.78 1175C621.84 972.24 530.63 753.35 486.41 531C473.31 465.1 465.11 401.72 458.86 318C457.16 295.34 457.1 252.2 458.75 249.32C460.65 245.99 464.03 245.32 466.08 247.85C468.63 251 469.73 259.41 471.99 293C474.33 328 476.58 357.07 478.05 371.5C478.6 377 479.48 385.77 480 391C483.04 421.93 488.79 464.4 493.61 491.5C494.98 499.2 496.52 507.98 497.03 511C500.58 531.86 513.81 590.84 522.16 623C548.79 725.55 585.32 826.28 632.24 926.51C651.59 967.86 686.73 1035.07 707.79 1071C725.57 1101.34 737.22 1120.4 756.06 1150C800.8 1220.29 863.29 1304.25 920.93 1371.5C959.61 1416.64 985.44 1444.47 1030.48 1489.57C1091.98 1551.16 1142.14 1596.04 1206.62 1647.21C1343.98 1756.19 1495.74 1847.26 1650 1913.29C1784.92 1971.04 1924.37 2010.34 2053.36 2026.97C2094.74 2032.3 2161.59 2036.4 2225.98 2037.54C2247.06 2037.92 2259.93 2038.53 2260.73 2039.19C2262.93 2041.01 2262.2 2044.82 2259.3 2046.73C2256.78 2048.37 2252.13 2048.51 2194.55 2048.63C2160.42 2048.69 2125.3 2048.38 2116.5 2047.92ZM209.37 923.81C207.58 920.95 206.09 813.62 205.82 667.5C205.73 616.9 205.46 562.34 205.23 546.25L204.8 517L201.89 517C197.61 517 183.05 520.41 170.5 524.35C162.16 526.97 159.43 527.49 159.19 526.49C158.54 523.69 169.18 501.14 200.83 438.28C212.41 415.28 212.54 415.08 214.38 417.05C216.05 418.82 233.39 452.89 249.23 485.5C265.52 519.04 268.21 525.19 267.1 526.3C266.51 526.89 261.75 525.91 254.33 523.68C243.78 520.5 235.63 518.6 223.75 516.56L220 515.91L219.96 696.2C219.95 795.37 219.53 886.14 219.04 897.91C218.26 916.62 217.91 919.65 216.22 921.91C214.06 924.82 210.61 925.78 209.37 923.81ZM48.75 351.27C46.69 351.06 45 350.61 45 350.29C45 349.96 46.86 348.1 49.13 346.16C54.35 341.69 55.51 338.83 57.03 326.74C58.56 314.5 57.81 229.38 56.13 224.08C54.78 219.84 50.69 215.43 45.75 212.89C43.69 211.83 42 210.56 42 210.07C42 208.56 60.27 207.72 76.52 208.48C85.03 208.88 92 209.55 92 209.96C92 210.38 89.09 212.02 85.53 213.61L79.05 216.5L79.03 244.75C79.01 260.29 79.31 273 79.68 273C80.06 273 83.67 270.47 87.71 267.38C102.24 256.24 130 224.68 130 219.29C130 217.66 128.69 215.57 126.32 213.4C124.3 211.54 122.98 209.68 123.4 209.26C124.41 208.25 157.74 207.61 164.63 208.47C167.64 208.85 169.77 209.57 169.44 210.1C169.12 210.62 165.62 212.67 161.68 214.66C152.07 219.49 147.13 222.97 136.81 232.23C127.69 240.4 100 271.17 100 273.13C100 274.4 123.98 300.07 139.78 315.72C150.67 326.51 167.84 340.83 173.2 343.6C174.95 344.51 178.43 345.76 180.94 346.37C186.78 347.82 187.05 350.19 181.5 351.18C176.51 352.06 133.37 352.22 129.12 351.38C125.13 350.58 125.19 349.65 129.5 345.87C131.43 344.18 133 342 133 341.04C133 340.08 129.57 335.28 125.39 330.39C115.94 319.36 81.34 284 79.99 284C79.36 284 79 294.77 79 313.85L79 343.7L85.5 346.46C96.76 351.25 94.53 352.05 70.67 351.83C60.68 351.74 50.81 351.49 48.75 351.27ZM202.25 351.31C199.68 351.05 198 350.38 198 349.6C198 348.89 199.91 347.75 202.25 347.06C210.69 344.56 210 350.5 210 279.9C210 230.88 209.73 216.94 208.75 216.31C208.07 215.86 205.29 214.59 202.58 213.47C199.86 212.35 197.49 210.96 197.29 210.37C196.73 208.68 214.52 208 259.66 208L301 208L301 214.2C301 217.61 301.53 224.1 302.19 228.62C303.16 235.35 303.13 237.13 302.04 238.45C300.05 240.85 299.12 240.05 296.58 233.8C293.83 227.02 288.68 220.26 285.1 218.71C282.22 217.46 235.05 217.58 233.77 218.84C233.37 219.24 232.73 231.13 232.36 245.28L231.68 271L248.79 271C270.24 271 274.79 270.12 279.2 265.09C281.01 263.02 283.27 259.91 284.2 258.17C285.14 256.42 286.37 255 286.93 255C288.8 255 289.16 259.56 288.83 279.33C288.58 293.84 288.16 299.24 287.18 300.2C285.33 302.02 283 298.71 283 294.26C283 288.79 280.6 285.4 275.27 283.34C271.26 281.79 267.61 281.5 252.32 281.52C242.32 281.52 233.88 281.79 233.57 282.1C232.36 283.31 231.72 330.45 232.87 334.59C234.96 342.2 235.72 342.46 257.09 342.81C286.01 343.29 290.15 341.71 301.59 325.91C304.94 321.29 308.49 317.34 309.48 317.15C311.08 316.84 311.21 317.3 310.59 321.15C309.58 327.47 302.99 346.82 301.11 348.98C299.6 350.71 296.61 350.85 253 351.28C227.43 351.53 204.59 351.55 202.25 351.31Z" fill="#1e2749" fill-rule="evenodd"/>
</svg>
