<?xml version="1.0" encoding="UTF-8"?>
<svg xmlns="http://www.w3.org/2000/svg" viewBox="0 0 253 201" width="253" height="201" shape-rendering="geometricPrecision">
<path d="M75.82 179.24C75.73 179.01 75.7 175 75.74 170.33L75.83 161.83L83.71 161.74C89.96 161.67 91.67 161.56 91.98 161.19C92.26 160.86 92.46 152.87 92.7 132.28C92.88 116.63 93.16 94.16 93.33 82.33C93.49 70.51 93.61 60.53 93.58 60.17C93.4 57.33 93.6 52.49 93.95 50.83C94.73 47.26 97.13 42.9 100.01 39.84L102.59 37.1L102.15 34.47C101.14 28.49 100.96 27.54 100.8 27.27C100.7 27.12 99.01 27 97.04 27C94.55 27 93.27 26.86 92.84 26.55C92.07 25.98 92.38 25 93.33 25C94.68 25 96.4 23.99 98.19 22.16C99.18 21.14 100 20.09 100 19.83C100 18.93 101.91 17.33 102.99 17.33C103.54 17.33 104 17.51 104 17.72C104 18.16 101.08 21 100.63 21C100.47 21 100.33 21.19 100.33 21.43C100.33 21.67 100.03 22.45 99.67 23.17C99.3 23.89 99 24.59 99 24.74C99 25.16 100.09 25.03 101 24.51C101.46 24.24 102.16 23.88 102.55 23.7C102.95 23.52 103.37 23.06 103.49 22.69C103.61 22.31 103.85 22 104.03 22C104.2 22 105.46 20.87 106.82 19.5C108.19 18.12 109.4 17 109.51 17C109.62 17 110 17.16 110.36 17.35C110.88 17.63 110.94 17.82 110.66 18.35C110.47 18.71 110.18 19 110.02 19C109.54 19 104.65 24.11 104.77 24.49C104.96 25.06 106.89 25.07 108 24.5C108.57 24.21 110.56 22.47 112.42 20.65C115.07 18.04 116 17.33 116.73 17.33C117.25 17.33 117.67 17.5 117.67 17.7C117.67 17.91 116.31 19.42 114.65 21.06C112.98 22.7 111.68 24.22 111.75 24.44C111.99 25.17 113.95 25.08 115.26 24.29C115.94 23.87 117.89 22.14 119.59 20.43C122.11 17.91 122.86 17.33 123.67 17.33C124.22 17.33 124.67 17.5 124.67 17.71C124.67 17.91 123.29 19.39 121.61 20.98C118.29 24.14 117.97 25 120.11 25C121.47 25 123.01 23.85 126.83 20.02C128.84 18 129.72 17.34 130.4 17.34C130.89 17.33 131.37 17.45 131.46 17.6C131.55 17.75 130.47 19 129.06 20.39C125.23 24.15 125.1 24.32 125.68 24.68C127.23 25.66 129.06 24.64 133.27 20.43C135.78 17.94 136.57 17.33 137.36 17.33C137.89 17.33 138.33 17.5 138.33 17.7C138.33 17.91 136.98 19.41 135.33 21.04C133.68 22.67 132.33 24.14 132.33 24.31C132.33 24.79 133.51 25.05 134.55 24.79C135.98 24.44 136.94 23.73 139.44 21.21C140.94 19.68 141.82 19.02 142.04 19.24C142.62 19.82 142 21.18 140.48 22.65C139.67 23.44 139 24.2 139 24.33C139 24.47 139.61 24.68 140.35 24.8C141.76 25.02 142.37 25.76 141.7 26.44C141.46 26.68 139.71 26.9 137.25 27L133.19 27.17L132.94 28.33C132.14 32.12 131.33 36.89 131.33 37.88C131.33 38.77 131.66 39.38 132.78 40.6C135.81 43.89 137.95 48.3 138.63 52.67C138.83 53.99 138.98 66.29 138.99 84.32C139.02 104.68 139.14 113.93 139.38 114.23C139.65 114.55 141.66 114.68 147.45 114.74L155.17 114.83L155.25 127.83C155.34 139.76 155.3 140.87 154.77 141.25C153.9 141.89 117.9 141.85 117.37 141.21C117.1 140.88 117.02 137.08 117.08 127.79L117.17 114.83L126.33 114.67C131.38 114.58 135.69 114.38 135.92 114.23C136.24 114.02 136.33 109.03 136.33 91.15C136.33 67.08 136.32 66.9 134.9 69.32C133.2 72.19 128.49 76.23 125.14 77.69C121.6 79.23 120.3 79.48 116 79.48C111.81 79.48 110.48 79.23 107.17 77.83C103.65 76.34 99.56 72.85 97.25 69.38C96.75 68.62 96.19 68 96 68C95.78 68 95.66 72.68 95.64 81.58C95.63 89.05 95.5 109.94 95.36 128C95.23 146.06 95.18 161.02 95.26 161.25C95.37 161.57 97.17 161.67 102.72 161.67C107.13 161.67 110.3 161.8 110.69 162.01C111.3 162.34 111.33 162.79 111.33 170.61C111.33 176.59 111.22 178.98 110.93 179.27C110.34 179.86 76.05 179.84 75.82 179.24ZM108.02 176.99C108.62 176.67 108.67 176.23 108.67 170.69C108.67 165.57 108.59 164.71 108.14 164.54C107.85 164.42 101.02 164.33 92.97 164.33L78.33 164.33L78.33 170.61C78.33 174.06 78.43 176.99 78.56 177.11C78.93 177.49 107.3 177.37 108.02 176.99ZM31.5 176.01C31.39 175.83 31.46 175.39 31.65 175.03C32.15 174.1 32.1 168.15 31.58 167.32C31.24 166.76 31.25 166.59 31.67 166.32C31.94 166.14 32.47 166.03 32.83 166.08C33.46 166.16 33.51 166.45 33.59 170.48C33.65 172.85 33.83 174.96 34 175.17C34.46 175.72 33.72 176.33 32.62 176.33C32.12 176.33 31.62 176.19 31.5 176.01ZM38.48 175.76C36.14 173.43 36.72 166.74 39.31 166.17C41.49 165.69 43.05 166.78 43.7 169.25C44.12 170.84 44.51 170.84 44.85 169.25C45.25 167.33 46.02 166.39 47.33 166.17C49.15 165.86 50.15 166.41 51 168.17C52.06 170.35 51.81 173.22 50.41 174.95C49.61 175.95 49.18 176.19 48.04 176.27C46.37 176.39 45.55 175.63 44.96 173.42C44.5 171.68 44.14 171.62 43.69 173.22C43.18 175.07 41.8 176.33 40.29 176.33C39.56 176.33 38.81 176.1 38.48 175.76ZM56.33 175.71C56.33 175.34 56.48 174.95 56.67 174.83C56.85 174.72 57 173.18 57 171.35C57 168.85 56.88 167.98 56.5 167.67C56.23 167.44 56 166.97 56 166.63C56 166.16 56.24 166 56.98 166C57.8 166 58.33 166.46 60.34 168.92C61.66 170.52 62.91 171.83 63.12 171.83C63.65 171.83 63.81 168.08 63.31 167.48C62.46 166.45 63.76 165.54 64.98 166.32C65.4 166.58 65.4 166.75 65.02 167.46C64.69 168.09 64.62 169.22 64.75 171.81C64.89 174.56 64.83 175.39 64.46 175.7C63.87 176.19 63.67 176.03 61 172.69C59.81 171.21 58.66 170 58.44 170C58.14 170 58.06 170.68 58.14 172.42C58.21 173.75 58.31 175.13 58.38 175.5C58.48 176.04 58.29 176.19 57.42 176.27C56.52 176.36 56.33 176.26 56.33 175.71ZM49.24 174.07C49.63 172.66 49.51 168.58 49.05 167.75C48.45 166.65 47.47 166.8 47.03 168.05C46.51 169.55 46.58 173.15 47.16 174.53C47.59 175.56 47.73 175.66 48.32 175.34C48.69 175.14 49.1 174.57 49.24 174.07ZM41.19 174.64C42.08 173.66 42.29 169.52 41.53 168.05C40.83 166.71 39.78 166.64 39.42 167.92C39.28 168.42 39.17 169.88 39.17 171.17C39.17 175.1 39.8 176.18 41.19 174.64ZM152.63 138.54C152.9 138.22 152.98 135.11 152.92 127.79L152.83 117.5L136.17 117.5L119.5 117.5L119.41 127.83C119.36 133.51 119.4 138.35 119.48 138.58C119.73 139.23 152.09 139.19 152.63 138.54ZM161.15 130.17C160.52 129.69 160.53 129.64 161.57 128.75C163.07 127.45 165 124.43 165 123.37C165 122.87 164.82 122.29 164.6 122.07C164.08 121.54 162.25 121.55 161.71 122.08C161.36 122.42 161.3 122.31 161.39 121.5C161.65 119.17 165.56 119.19 166.53 121.52C167.14 122.99 166.64 124.32 164.69 126.43C163.94 127.24 163.33 128.17 163.33 128.5C163.33 129.02 163.55 129.07 165.15 128.88C167.26 128.63 167.7 129 166.46 129.97C165.37 130.83 162.16 130.95 161.15 130.17ZM169.79 129.58C168.76 128.41 168.33 127.12 168.33 125.14C168.33 122.08 169.66 120 171.61 120C175.25 120 176.66 126.26 173.73 129.42C172.62 130.61 170.76 130.69 169.79 129.58ZM177.34 129.6C176.38 128.57 175.9 126.5 176.1 124.28C176.39 120.99 177.79 119.6 180.2 120.2C182.13 120.69 183.22 123.18 182.84 126.25C182.53 128.72 181.13 130.33 179.31 130.33C178.42 130.33 177.82 130.11 177.34 129.6ZM187.67 129.69C187.67 129.33 187.82 128.95 188 128.83C188.19 128.72 188.33 127.17 188.33 125.33C188.33 122.4 188.25 121.95 187.63 121.37C186.84 120.64 187.03 120 188.04 120C189.17 120 189.77 120.51 192.16 123.48C193.43 125.06 194.62 126.29 194.82 126.23C195.43 126.03 195.43 122.37 194.82 121.43C194.17 120.45 194.54 119.89 195.71 120.06C196.21 120.13 196.49 120.38 196.47 120.75C196.46 121.07 196.42 123.21 196.39 125.51C196.34 129.08 196.25 129.72 195.78 129.9C195.19 130.13 194.73 129.67 191.6 125.75C190.69 124.6 189.8 123.67 189.64 123.67C189.2 123.67 189.26 128.79 189.7 129.24C190.26 129.8 189.75 130.33 188.65 130.33C187.9 130.33 187.67 130.18 187.67 129.69ZM172.7 128.8C173 128.43 173.15 127.24 173.16 125.14C173.17 122.34 173.09 121.94 172.42 121.27C171.7 120.56 171.64 120.55 171.08 121.11C170.61 121.58 170.5 122.29 170.5 124.93C170.5 126.71 170.61 128.43 170.74 128.75C171.04 129.48 172.11 129.51 172.7 128.8ZM180.19 128.64C181.08 127.66 181.29 123.52 180.53 122.05C179.93 120.89 178.87 120.65 178.51 121.58C178.05 122.76 177.93 126.53 178.31 127.92C178.73 129.49 179.25 129.68 180.19 128.64ZM120.76 76.54C124.42 75.57 126.96 74.05 130.01 71.01C133.21 67.81 134.83 64.97 135.84 60.75C136.7 57.19 136.4 52.7 135.07 49.1C134.02 46.25 131.19 41.88 130.54 42.09C130.34 42.16 129.96 43.1 129.71 44.19C128.18 50.83 125.98 55.99 123.82 57.98C121.44 60.17 119.89 60.8 116.83 60.82C114.54 60.83 113.91 60.7 112.33 59.88C107.77 57.52 105.77 53.75 103.81 43.83C103.52 42.37 103.13 41.02 102.94 40.83C102.38 40.28 99.79 43.55 98.18 46.83C96.4 50.48 95.83 53.54 96.11 57.87C96.72 67.1 102.75 74.34 111.79 76.7C114.5 77.41 117.69 77.35 120.76 76.54ZM118.82 58.49C123.1 57.25 125.41 53.26 127.69 43.2L128.43 39.91L127.63 39.28C126.28 38.23 122.95 36.76 120.57 36.17C118.92 35.76 117.46 35.65 115.23 35.77C111.44 35.97 110.05 36.29 107.5 37.53C105.93 38.29 105.48 38.68 105.4 39.35C105.31 40.09 106.27 45.13 107.31 49.33C108.52 54.28 110.96 57.41 114.4 58.43C116.67 59.09 116.74 59.09 118.82 58.49ZM114.15 56.52C113.53 55.89 113.33 55.34 113.33 54.22C113.33 52.08 114.13 51.22 116.12 51.22C118.2 51.22 119.33 52.23 119.33 54.08C119.33 56.85 116.04 58.4 114.15 56.52ZM116.96 53.78C116.75 53.54 116.37 53.33 116.12 53.33C115.45 53.33 115.18 54.25 115.68 54.85C116.05 55.29 116.16 55.29 116.71 54.79C117.18 54.37 117.24 54.12 116.96 53.78ZM129.82 33.09C130.15 31.3 130.55 29.4 130.71 28.87C131.31 26.88 132.19 27 117.17 27L103.33 27L103.34 28.08C103.34 28.68 103.57 30.22 103.84 31.5C104.11 32.78 104.33 34.24 104.33 34.73C104.33 36.01 104.7 36.09 106.54 35.2C109.73 33.67 111.94 33.2 116 33.2C118.75 33.2 120.4 33.38 121.83 33.81C124.37 34.58 127.84 36.13 128.15 36.64C128.67 37.47 129.23 36.26 129.82 33.09ZM92.43 22.19C92.79 19.96 97.04 16.49 98.11 17.55C98.36 17.8 93.03 23.33 92.55 23.33C92.38 23.33 92.33 22.82 92.43 22.19Z" fill="#1e2749" fill-rule="evenodd"/>
</svg>
