<?xml version="1.0" encoding="UTF-8"?>
<svg xmlns="http://www.w3.org/2000/svg" viewBox="0 0 198 133" width="198" height="133" shape-rendering="geometricPrecision">
<path d="M52.82 128.34C52.29 128.13 51.8 127.01 50.69 123.45C49.9 120.91 48.83 117.56 48.33 116C47.83 114.44 47.09 112.04 46.68 110.67C46.28 109.29 45.82 107.79 45.67 107.33C45.51 106.88 45.06 105.38 44.67 104C44.27 102.62 43.84 101.2 43.7 100.83C43.45 100.19 43.15 99.25 41.83 94.83C41.5 93.73 40.83 91.56 40.33 90C39.12 86.24 38.46 84.03 38.2 82.92C38.08 82.4 37.76 82 37.46 82C37 82 33.62 85.03 24.64 93.47C21.52 96.42 20.89 96.99 14.5 102.83C12.12 105.01 9.68 107.24 9.08 107.8C8.06 108.74 7.96 108.77 7.43 108.24C7 107.81 6.94 107.49 7.18 106.89C7.36 106.46 10.95 102.94 15.17 99.07C19.38 95.2 24.56 90.43 26.67 88.46C28.77 86.49 31.62 83.84 32.99 82.57L35.48 80.26L34.66 79.59C33.87 78.95 29.77 75.17 23.7 69.48C22.12 68 18.53 64.62 15.71 61.98C12.89 59.33 9.77 56.44 8.77 55.54C6.75 53.72 6.45 52.5 8.03 52.5C8.67 52.5 10.05 53.59 13.51 56.83C16.05 59.22 19.34 62.28 20.82 63.64C22.29 65 24.62 67.18 26 68.5C27.38 69.81 30.49 72.71 32.93 74.95L37.36 79.02L38.27 78.38C38.76 78.02 41.04 76.28 43.33 74.52C45.62 72.76 50.12 69.32 53.33 66.88C56.54 64.45 60.37 61.52 61.83 60.37C63.3 59.23 65.85 57.27 67.5 56.02C69.16 54.78 70.73 53.49 71 53.16C71.49 52.58 71.54 50.56 71.66 30.56C71.67 30.1 71.88 29.98 72.58 30.06L73.5 30.17L73.59 40.58C73.64 46.31 73.77 51 73.89 51C74.01 51 74.6 50.63 75.2 50.17C76.52 49.16 76.82 49.14 77.94 50.02C79.59 51.32 79.71 50.65 79.66 40C79.64 34.77 79.63 30.3 79.64 30.06C79.66 29.78 80 29.66 80.58 29.73L81.5 29.83L81.67 41.22C81.82 52 81.87 52.64 82.5 53.33C83.1 54 92.53 61.32 103.77 69.84C106.19 71.67 109.69 74.34 111.55 75.76C113.41 77.17 115.03 78.33 115.16 78.33C115.29 78.33 117.86 76.42 120.88 74.08C123.91 71.75 126.81 69.53 127.33 69.17C127.85 68.8 131.68 65.88 135.84 62.67C140 59.46 144.2 56.28 145.16 55.6C146.13 54.92 147.31 53.9 147.79 53.32L148.67 52.28L148.67 41.13C148.67 31.48 148.73 29.95 149.17 29.79C149.45 29.68 149.9 29.78 150.17 30C150.59 30.35 150.67 32 150.67 40.71C150.67 46.37 150.77 51 150.89 51C151.01 51 151.6 50.63 152.2 50.17C153.53 49.15 153.91 49.13 154.89 50.05C155.51 50.64 155.74 50.69 156.15 50.34C156.43 50.11 156.63 49.53 156.6 49.05C156.57 48.56 156.57 44.02 156.61 38.95C156.66 30.79 156.73 29.71 157.21 29.53C158.6 29 158.67 29.53 158.67 41.31L158.67 52.54L159.75 53.56C160.35 54.12 162.26 55.67 164 56.99C165.74 58.32 168.56 60.48 170.26 61.79C171.96 63.1 174.46 64.99 175.82 66C179.14 68.47 190.22 77.04 191.63 78.24C192.63 79.09 192.72 79.28 192.37 79.93C192.15 80.34 191.77 80.67 191.52 80.67C191.27 80.67 190.11 79.92 188.95 79.01C184.34 75.4 181.61 73.3 176.5 69.42C173.57 67.19 169.07 63.76 166.5 61.8C155.52 53.41 154.06 52.33 153.6 52.33C153.33 52.33 152.29 52.97 151.27 53.75C148.02 56.25 129.03 70.73 125.04 73.76C122.91 75.37 120.8 77.04 120.34 77.46C119.88 77.89 118.78 78.72 117.9 79.31C116.21 80.45 115.74 81.24 114.83 84.5C114.52 85.6 114.07 87.1 113.82 87.83C113.57 88.57 112.89 90.74 112.32 92.67C111.74 94.59 111.07 96.77 110.82 97.5C110.57 98.23 109.89 100.41 109.32 102.33C108.74 104.26 108.08 106.43 107.84 107.17C107.06 109.61 106.38 111.8 105.31 115.33C104.3 118.69 102.74 123.68 101.84 126.5C101.59 127.28 101.08 128 100.62 128.24C100.03 128.54 94.21 128.64 76.67 128.62C63.93 128.61 53.19 128.49 52.82 128.34ZM99.4 125.75C99.89 125.18 100.17 124.39 101.67 119.33C102.07 117.96 102.82 115.56 103.33 114C103.84 112.44 104.52 110.27 104.83 109.17C105.14 108.07 105.59 106.57 105.83 105.83C106.38 104.13 107.71 99.87 108.68 96.67C109.1 95.29 109.85 92.89 110.35 91.33C110.85 89.77 111.52 87.6 111.84 86.5C112.16 85.4 112.7 83.63 113.05 82.57C113.4 81.5 113.6 80.49 113.49 80.31C113.27 79.96 113.15 79.86 103.48 72.5C99.87 69.75 96.04 66.82 94.96 66C84.27 57.77 76.95 52.33 76.56 52.33C76.31 52.33 75.08 53.12 73.84 54.08C72.6 55.05 70.87 56.36 70 57C68.44 58.15 65.51 60.4 58.67 65.69C56.74 67.17 52.09 70.72 48.33 73.57C44.57 76.42 41.16 79.06 40.75 79.43C39.83 80.27 39.81 81.11 40.64 83.4C40.99 84.37 41.75 86.74 42.34 88.67C43.77 93.4 44.34 95.25 44.84 96.83C45.07 97.57 45.74 99.74 46.32 101.67C46.91 103.59 47.58 105.77 47.81 106.5C48.04 107.23 48.5 108.73 48.82 109.83C49.15 110.93 49.83 113.11 50.33 114.67C50.84 116.22 51.59 118.62 52 120C52.41 121.38 52.96 123.17 53.23 124C53.5 124.83 53.78 125.69 53.85 125.92C53.95 126.24 58.76 126.33 76.44 126.33C97.41 126.33 98.93 126.29 99.4 125.75ZM72.94 24.57C71.43 24.07 69.84 22.61 68.89 20.83C68.29 19.73 68.17 18.94 68.17 16.33C68.17 13.36 68.23 13.08 69.17 11.68C70.5 9.71 71.84 8.85 74.36 8.36C78.13 7.61 81.81 8.65 83.66 10.99C84.95 12.61 85.33 13.69 85.33 15.63C85.33 18.94 83.5 22.06 80.52 23.8C78.76 24.84 74.93 25.22 72.94 24.57ZM150.52 23.45C149.62 23.19 147.61 21.88 146.96 21.13C145.69 19.66 145.17 17.88 145.2 15.17C145.24 11.26 146.38 9.32 149.59 7.66C150.85 7.01 151.41 6.94 154.26 7.06C158.49 7.24 160.21 8.13 161.49 10.84C163.54 15.18 162 20.04 157.79 22.51C156.58 23.22 155.75 23.42 153.72 23.52C152.31 23.58 150.87 23.55 150.52 23.45ZM78.78 22.88C81.19 21.87 82.53 19.16 82.24 15.87C81.96 12.59 80.93 11.08 78.36 10.18C76.38 9.48 75.07 9.54 73.5 10.43C71.76 11.4 70.85 13.22 70.87 15.67C70.91 19.15 72.2 21.67 74.47 22.7C76.1 23.44 77.31 23.49 78.78 22.88ZM156.41 21.34C158.73 19.98 159.85 17.13 159.33 13.93C158.76 10.37 156.79 8.67 153.26 8.67C151.4 8.67 151.01 8.79 149.92 9.68C148.37 10.96 147.85 12.71 148.14 15.63C148.54 19.53 150.73 21.95 153.9 21.99C154.71 21.99 155.76 21.73 156.41 21.34Z" fill="#1e2749" fill-rule="evenodd"/>
</svg>
