<?xml version="1.0" encoding="UTF-8"?>
<svg xmlns="http://www.w3.org/2000/svg" viewBox="0 0 2430 2257" width="2430" height="2257" shape-rendering="geometricPrecision">
<path d="M615.25 2210.36C614.01 2210.09 613 2209.71 613 2209.53C613 2209.35 614.58 2207.62 616.5 2205.7L620 2202.2L620 2187.11L620 2172.01L610.85 2157.76C599.25 2139.67 588.97 2125.78 585.05 2122.88C583.37 2121.64 582 2120.26 582 2119.81C582 2118.66 612.75 2118.79 613.47 2119.95C613.79 2120.47 613.14 2121.39 612.03 2121.99C607.52 2124.4 610.99 2133.08 625.21 2155.04C631.2 2164.3 630.96 2164.32 637.76 2153.72C644.08 2143.86 652 2129.12 652 2127.22C652 2126.59 650.43 2124.83 648.5 2123.29C646.58 2121.76 645 2120.16 645 2119.75C645 2119.34 651.3 2119 659 2119C666.7 2119 673 2119.34 672.99 2119.75C672.99 2120.16 671.17 2121.54 668.95 2122.81C663.14 2126.12 647.2 2148.68 638.11 2166.44C634.51 2173.48 634.5 2173.54 634.5 2186.5C634.5 2200.44 635.51 2204.14 640.18 2207.42C641.39 2208.26 642.1 2209.23 641.77 2209.57C640.98 2210.35 618.25 2211.03 615.25 2210.36ZM687.06 2154.11C685.65 2151.47 683.01 2134.6 683 2128.18C683 2125.26 683.47 2122 684.04 2120.93C685.38 2118.41 690.04 2118.4 693.14 2120.91C695.15 2122.54 695.47 2123.64 695.32 2128.24C695.12 2134.01 692.39 2149.85 690.93 2153.69C689.86 2156.49 688.42 2156.65 687.06 2154.11ZM628.08 2073.16C616.63 2050.29 602.19 2019.6 601.4 2016.45C600.82 2014.16 601 2013.86 602.61 2014.32C603.65 2014.62 607.87 2015.85 611.98 2017.05C616.09 2018.24 622.35 2019.28 625.89 2019.36C632.22 2019.5 632.33 2019.45 633.19 2016.5C633.68 2014.83 633.85 1981.46 633.58 1941.5C633.3 1901.9 633.06 1864.42 633.04 1858.22C633.01 1849.58 632.68 1846.81 631.62 1846.41C630.26 1845.88 485.51 1917.36 484.45 1919.08C483.49 1920.63 488.96 1928.75 496.14 1936.44C502.58 1943.34 502.94 1943.96 501.11 1944.94C498.96 1946.09 429.67 1946.48 424.12 1945.38C422.41 1945.03 421 1944.17 421 1943.47C421 1941.84 434.74 1922.98 453.51 1898.81C463.53 1885.93 468.74 1880 470.07 1880C471.13 1880 472.01 1880.56 472.03 1881.25C472.29 1891.66 476.94 1908 479.65 1908C480.48 1908 487.76 1904.98 495.83 1901.28C518.26 1891.01 631.35 1834.5 632.66 1832.91C633.51 1831.86 633.77 1809.27 633.66 1745.5L633.5 1659.5L440.75 1659.25L248 1658.99L248 1662.93C248 1665.09 249.36 1672.15 251.03 1678.61C252.69 1685.06 253.7 1690.7 253.27 1691.13C252.24 1692.16 241.34 1687.29 207.09 1670.46C190.2 1662.16 179 1656.09 179 1655.25C179 1653.98 214.66 1635.98 240.59 1624.15C250.56 1619.6 254.47 1618.88 253.61 1621.75C250.72 1631.4 248.87 1639.64 248.35 1645.25L247.71 1652L439.89 1652C621.97 1652 632.1 1651.91 632.78 1650.25C633.18 1649.29 633.5 1616.1 633.5 1576.5L633.5 1504.5L617.8 1504C602.02 1503.5 599.1 1502.78 600.28 1499.71C601.03 1497.76 606.44 1497.02 620.13 1497.01C628.21 1497 632.07 1496.62 632.78 1495.75C633.91 1494.37 634.45 1335.9 633.38 1320.89L632.76 1312.28L617.13 1311.74C608.53 1311.45 600.71 1310.89 599.75 1310.5C598.67 1310.06 598 1308.72 598 1307C598 1305.3 598.68 1303.92 599.75 1303.45C600.71 1303.03 608.48 1302.42 617 1302.09L632.5 1301.5L633.03 1294C633.55 1286.75 633.58 1261.22 633.19 1172.25L633 1130L597.5 1130L562 1130L562 1135.68C562 1143.01 559.38 1148.43 552.93 1154.47C547.04 1159.98 539.4 1163.71 531.32 1165.03C524.64 1166.13 520.08 1165.53 514.75 1162.84C511.69 1161.3 511 1160.42 511 1158C511 1153.74 514.48 1153.15 523.65 1155.85C527.67 1157.03 533.28 1158 536.11 1158C540.84 1158 541.61 1157.65 545.53 1153.73C552.61 1146.65 553.96 1135.99 548.25 1132.24C545.78 1130.63 539.34 1130.48 458.79 1130.21L372 1129.93L372.02 1134.21C372.03 1136.57 373.15 1142.78 374.5 1148C377.18 1158.34 377.52 1161.56 376.03 1162.48C375.17 1163.01 316.23 1133.93 308.25 1129.03C306.46 1127.93 305 1126.4 305 1125.64C305 1123.42 371.13 1090 375.52 1090C377.45 1090 377.43 1090.26 374.51 1101.72C373.14 1107.1 372.01 1113.88 372.01 1116.78L372 1122.06L451.95 1121.78C508.97 1121.58 532.22 1121.18 533.01 1120.39C533.83 1119.57 533.31 1119.11 531.06 1118.66C526.91 1117.83 527.21 1116.51 532.25 1113.39C544.41 1105.86 548.89 1096.26 544.01 1088.24C539.97 1081.62 531.51 1079.14 524.8 1082.61C523.09 1083.49 519.85 1085.55 517.6 1087.19C513.61 1090.08 513.49 1090.1 513.17 1088.03C512.76 1085.34 518.29 1078.46 524.07 1074.46C527.94 1071.78 529.09 1071.5 536.42 1071.5C545.7 1071.5 549.32 1073.07 554.34 1079.27C559.49 1085.65 558.33 1093.65 550.86 1103.14C549.29 1105.15 548 1107.42 548 1108.2C548 1110.15 558.14 1118.74 562.74 1120.68C565.99 1122.06 569.68 1122.18 590 1121.57C617.43 1120.75 630.68 1119.72 632.1 1118.3C632.76 1117.64 633.18 1092.81 633.31 1046.39L633.5 975.5L618.5 974.93C602.45 974.32 600 973.8 600 971C600 968.33 601.88 968 616.96 968C628.09 968 631 967.71 632.02 966.48C633.01 965.29 633.38 946.9 633.71 882.23C633.94 836.73 633.85 797.19 633.51 794.36L632.88 789.22L618.19 788.77C602.34 788.29 600 787.79 600 784.91C600 782.46 601.79 782.13 617.75 781.64C626.15 781.39 631.54 780.8 632.47 780.02C633.75 778.96 633.92 768.27 633.72 699.65L633.5 620.5L615 619.94C604.83 619.64 596.39 619.3 596.25 619.19C596.11 619.09 596 617.94 596 616.64C596 614.58 596.61 614.19 600.64 613.64C603.19 613.29 609.21 613 614.02 613C627.93 613 627.79 612.49 609.29 596.76C581.94 573.5 546.19 543.65 464.04 475.5C448.79 462.85 422.48 441.02 405.58 427C388.67 412.98 374.04 401.36 373.06 401.2C370.75 400.81 365.96 408.19 362.47 417.53C359.55 425.35 357.46 429 355.91 429C353.57 429 323.75 357.92 325.4 356.26C326.54 355.12 401.05 369.72 402.75 371.42C403.71 372.38 401.24 374.5 391.54 381.03C381.75 387.62 380.16 389.55 381.88 392.77C384.89 398.41 428.14 435.05 582 562.38C589.98 568.98 600.1 577.36 604.5 581.01C630.1 602.22 630.15 602.25 631.33 601.07C632.75 599.65 633.96 535.15 633.68 475L633.5 434.5L616 434C606.38 433.73 597.94 433.14 597.25 432.69C596.56 432.25 596 431.06 596 430.07C596 427.52 599.59 427 617 427C627.6 427 632.04 426.65 632.76 425.75C633.42 424.93 633.72 391.25 633.63 327.5L633.5 230.5L628.92 230.2C624.24 229.9 614.37 231.7 605.63 234.45L600.75 235.98L601.38 232.74C601.73 230.96 609.47 214.51 618.58 196.19C630.73 171.75 635.56 162.96 636.69 163.19C638.57 163.57 642 169.49 660.7 204.73C668.65 219.7 674.99 232.75 674.79 233.73C674.34 235.89 673.93 235.86 661.64 232.61C656.22 231.17 649.36 230 646.39 230L641 230L641 328.44L641 426.87L658.47 427.19C672.79 427.44 676.22 427.79 677.52 429.09C678.96 430.53 678.95 430.8 677.4 432.09C676.11 433.16 671.44 433.58 658.19 433.82L640.67 434.13L641.34 522.73C641.7 571.46 642.14 611.48 642.32 611.65C642.49 611.82 649.84 612.37 658.65 612.86C675.72 613.81 680.42 615.01 677.71 617.71C675.76 619.66 669.29 620.9 660.75 620.96C657.04 620.98 654 621.34 654 621.77C654 622.5 665.38 632.13 704 664.12C745.98 698.89 806.26 748.96 814.86 756.2C820.02 760.54 824.74 763.92 825.36 763.71C826.21 763.43 826.57 708.45 826.76 551.42C826.9 434.86 826.75 336.69 826.43 333.25L825.84 327L820.81 327C818.04 327 811.11 328.21 805.41 329.69C799.71 331.16 794.72 332.05 794.33 331.66C793.13 330.47 795.7 324.62 809.98 295.94C825.44 264.87 828.81 258.77 830.24 259.25C831.51 259.67 846.28 287.98 857.61 311.71C867.96 333.38 867.95 333.58 856.25 330.08C851.99 328.8 845.24 327.52 841.25 327.24L834 326.74L834.01 549.62L834.02 772.5L843.22 780C854.39 789.11 870.78 802.71 988.5 900.59C1008.3 917.06 1030.12 935.12 1037 940.72C1043.88 946.33 1054.49 955.1 1060.59 960.21C1066.68 965.32 1078.16 974.94 1086.09 981.58C1094.01 988.22 1112.88 1003.9 1128 1016.41C1168.8 1050.16 1196.26 1072.98 1227.28 1098.91L1255.06 1122.14L1655.28 1122.12L2055.5 1122.11L2170.84 1064.52L2286.18 1006.93L2284.44 1004.21C2280.94 998.77 2276.54 993.37 2270.64 987.28C2267.32 983.85 2264.95 980.72 2265.36 980.31C2266.37 979.29 2327.88 978.59 2338.48 979.47C2343.2 979.86 2347 980.64 2347 981.21C2347 981.77 2344.44 985.9 2341.32 990.37C2332.48 1003.03 2297.8 1049.13 2297.41 1048.74C2297.22 1048.55 2296.42 1042.9 2295.64 1036.18C2294.86 1029.47 2293.67 1023.3 2292.99 1022.49C2291.26 1020.4 2285.13 1020.63 2278.29 1023.04C2271.37 1025.47 2081 1120.18 2081 1121.19C2081 1121.98 2316.33 1122.77 2322.5 1122C2326.31 1121.52 2326.51 1121.32 2326.82 1117.67C2326.99 1115.56 2325.98 1109.35 2324.57 1103.88C2321.19 1090.77 2321.2 1089.59 2324.75 1090.46C2327.54 1091.14 2384.71 1119.5 2390.84 1123.23C2394.07 1125.2 2394.11 1125.33 2392.34 1127.05C2390.24 1129.09 2357.4 1146.19 2336.5 1156.13C2322.55 1162.76 2322.5 1162.77 2322.18 1160.32C2322 1158.96 2323.01 1153.46 2324.43 1148.09C2325.84 1142.73 2327 1136.46 2327 1134.17L2327 1130L2194.25 1130L2061.5 1130L1879.5 1221.1C1779.4 1271.2 1681.3 1320.29 1661.5 1330.2C1605.52 1358.22 1571.7 1376.25 1568.96 1379.55C1568.01 1380.69 1568.04 1381.34 1569.09 1382.61C1570.85 1384.73 1589.03 1399.98 1685 1479.8C1872.38 1635.65 1880.26 1642.14 1881.18 1641.22C1881.66 1640.74 1882.44 1636.94 1882.91 1632.77C1883.83 1624.52 1884.4 1623 1886.52 1623C1889.09 1623 1890.23 1627.18 1890.87 1638.9L1891.5 1650.5L1966.5 1651C2007.75 1651.28 2073.45 1651.5 2112.5 1651.5L2183.5 1651.5L2183.36 1646.16C2183.28 1643.22 2181.97 1636.13 2180.45 1630.4C2178.93 1624.67 2177.96 1619.7 2178.3 1619.37C2179.63 1618.04 2250 1653.06 2250 1655.05C2250 1655.56 2248.09 1657.18 2245.75 1658.66C2238.47 1663.26 2178.99 1692.32 2178.29 1691.62C2177.92 1691.26 2179.09 1685.13 2180.88 1678.01C2182.67 1670.9 2184 1663.82 2183.82 1662.29L2183.5 1659.5L2081 1659.41C1972.28 1659.3 1906.66 1660 1905.39 1661.27C1904.58 1662.09 1905.95 1663.37 1920.84 1675.74C1925.98 1680.01 1947.13 1697.62 1967.84 1714.89C2047.36 1781.16 2088.74 1814.87 2100.24 1822.73C2106.61 1827.09 2107.07 1827.25 2108.83 1825.65C2110.75 1823.92 2114.06 1817.72 2118.39 1807.75C2119.77 1804.59 2121.35 1802 2121.92 1802C2122.49 1802 2123.66 1803.08 2124.52 1804.39C2128.28 1810.13 2152.78 1868.81 2153.25 1873.21C2153.48 1875.28 2153.13 1875.48 2149.57 1875.26C2145.29 1875 2102.84 1865.63 2086.01 1861.24C2078.99 1859.41 2075.44 1858 2075.27 1857C2075.11 1856.07 2077.95 1853.73 2082.76 1850.82C2091.17 1845.73 2098 1839.97 2098 1837.97C2098 1835.49 2070.85 1811.44 2031.62 1779.16C2027.83 1776.05 2021.16 1770.46 2016.8 1766.75C2012.43 1763.03 2000.46 1753.07 1990.18 1744.6C1979.91 1736.14 1960.25 1719.91 1946.5 1708.54C1932.75 1697.17 1918.63 1685.54 1915.13 1682.68C1911.63 1679.83 1905.36 1674.69 1901.2 1671.25C1897.05 1667.81 1893.12 1665 1892.47 1665C1891.22 1665 1890 1679.57 1890 1694.59C1890 1699.14 1889.56 1704.02 1889.02 1705.43C1887.9 1708.39 1885.57 1708.8 1884.44 1706.25C1884.01 1705.29 1883.47 1694.26 1883.23 1681.75L1882.79 1659L1793.39 1659L1704 1659L1703.93 1671.75C1703.82 1692.14 1702.71 1701.74 1700.17 1704.28C1696.11 1708.34 1695.54 1705.87 1695 1681.7L1694.5 1659.5L1612.78 1659.24L1531.06 1658.99L1531.1 1680.74C1531.13 1693.59 1530.71 1703.63 1530.1 1705.25C1528.91 1708.36 1526.59 1708.86 1525.46 1706.25C1525.04 1705.29 1524.49 1694.26 1524.23 1681.75L1523.76 1659L1431.49 1659L1339.22 1659L1338.66 1662.25C1338.35 1664.04 1338.11 1673.83 1338.12 1684C1338.14 1694.6 1337.7 1703.68 1337.1 1705.25C1335.91 1708.36 1333.58 1708.87 1332.47 1706.25C1332.06 1705.29 1331.51 1694.26 1331.24 1681.75L1330.75 1659L1251.98 1659L1173.22 1659L1172.64 1662.25C1172.33 1664.04 1172.08 1673.78 1172.1 1683.91C1172.13 1700.89 1171.98 1702.47 1170.16 1704.28C1165.75 1708.7 1164.28 1703.28 1163.47 1679.5C1163.13 1669.6 1162.68 1660.97 1162.48 1660.32C1162.2 1659.41 1143.22 1659.27 1081.81 1659.7C1037.64 1660.01 1001.39 1660.36 1001.25 1660.47C1001.11 1660.58 1000.6 1670.36 1000.1 1682.21C999.22 1703.34 998.4 1708 995.58 1708C993.71 1708 993.03 1704.78 993.01 1695.91C993.01 1691.73 992.71 1683.52 992.35 1677.66C991.77 1668.17 991.49 1667 989.84 1667C988.82 1667 953.79 1683.98 911.99 1704.73L836 1742.47L836.13 1759.98C836.2 1769.62 836.53 1787.36 836.88 1799.41L837.5 1821.33L840.81 1822.44C845.02 1823.85 843.91 1825 838.33 1825L834 1825L834 1899.14L834 1973.29L840.28 1972.7C843.73 1972.38 850.14 1970.97 854.53 1969.57C863.54 1966.69 866 1966.42 866 1968.31C866 1969.78 835.36 2031.56 831.96 2036.95L829.79 2040.4L827.37 2036.45C823.99 2030.93 798.87 1980.73 796 1973.76C794.7 1970.61 793.9 1967.77 794.21 1967.45C794.53 1967.14 800.32 1968.26 807.09 1969.94C820.59 1973.3 824.22 1973.64 825.81 1971.73C826.52 1970.87 826.8 1947.43 826.68 1897.98L826.5 1825.5L821.5 1825.22C813.95 1824.8 813.1 1824.22 816.75 1822C823.49 1817.91 823.47 1818.03 823.81 1782.3C824.07 1755.63 823.89 1750 822.77 1750C822.02 1750 780.82 1770.26 731.21 1795.02L641 1840.05L641 1889.27C641 1916.35 641.3 1957.08 641.66 1979.79L642.33 2021.07L646.91 2020.46C649.44 2020.12 656.54 2018.49 662.7 2016.82C668.86 2015.16 674.4 2013.97 675.02 2014.17C676.77 2014.76 641.77 2083.54 637.51 2087.89C636.36 2089.07 634.92 2086.82 628.08 2073.16ZM698.3 1800.82C770.3 1764.72 807.76 1745.36 811.88 1742.14C813.74 1740.69 817.77 1737.69 820.84 1735.49L826.41 1731.48L826.16 1699.49C825.9 1666.5 825.55 1661.08 823.62 1660.5C823.01 1660.31 781.66 1659.92 731.75 1659.63L641 1659.1L641.01 1741.3C641.02 1786.51 641.3 1824.51 641.63 1825.75C641.96 1826.99 642.65 1828 643.17 1828C643.68 1828 668.49 1815.77 698.3 1800.82ZM969.25 1824.28C967.22 1824.03 966 1823.31 966 1822.39C966 1821.57 971.4 1815.27 978 1808.38C1001.14 1784.22 1008.01 1772.13 1006.72 1757.85C1005.84 1748.15 1002.01 1743.82 993.01 1742.39C985.69 1741.22 982.19 1742.63 974.82 1749.74C968.63 1755.72 968 1756.1 968 1753.82C968 1750.02 973.66 1739.51 977.53 1736.1C981.94 1732.23 987.9 1730.65 995.71 1731.27C1007.52 1732.21 1017.99 1741.06 1019.54 1751.43C1021.28 1763.01 1011.84 1779.65 990.14 1803.27C986.21 1807.54 983 1811.71 983 1812.52C983 1813.7 984.55 1813.99 990.75 1813.94C1005.15 1813.82 1014.88 1812.47 1018.02 1810.14C1021.31 1807.71 1024 1807.35 1024 1809.34C1024 1811.38 1020.16 1822.1 1018.88 1823.64C1017.99 1824.72 1013.13 1824.97 995.13 1824.84C982.68 1824.75 971.04 1824.5 969.25 1824.28ZM1146 1824.35C1141.91 1823 1140 1821.44 1139.03 1818.67C1137.35 1813.85 1138.71 1813.43 1149.73 1815.34C1163.58 1817.74 1168.17 1817.57 1171.8 1814.51C1178.34 1809.01 1180.02 1799.29 1175.94 1790.6C1173.23 1784.84 1169.73 1782.3 1160.7 1779.54C1156.81 1778.35 1153.48 1776.93 1153.29 1776.38C1153.11 1775.82 1155.59 1774.16 1158.81 1772.67C1166.19 1769.26 1169.8 1765.5 1172.04 1758.87C1174.12 1752.73 1173.5 1750.18 1168.72 1745.23C1162.7 1738.99 1154.17 1738.9 1146.5 1745C1144.42 1746.65 1142.34 1748 1141.86 1748C1140.15 1748 1141.06 1744.3 1143.87 1739.87C1147.65 1733.91 1152.38 1731.66 1162 1731.26C1171.19 1730.88 1176.73 1733.33 1181.86 1740.04C1186.56 1746.19 1186.04 1751 1179.59 1760.97L1174.85 1768.29L1180.81 1774.4C1184.09 1777.75 1187.27 1781.48 1187.89 1782.68C1189.75 1786.34 1189.24 1798.29 1186.95 1804.4C1183.98 1812.35 1175.24 1820.23 1166.37 1822.97C1160.27 1824.85 1149.71 1825.57 1146 1824.35ZM1344.17 1823.71C1343.58 1823 1342.9 1817.71 1342.66 1811.96L1342.22 1801.5L1325.86 1800.74C1316.86 1800.32 1308.49 1799.75 1307.25 1799.47C1301.46 1798.16 1306.35 1787.96 1328.15 1755.9C1339.73 1738.87 1346.32 1731 1348.97 1731C1353.19 1731 1353.49 1732.93 1353.81 1762.65L1354.11 1791L1359.06 1791C1362.72 1791 1364.53 1791.53 1366.07 1793.07C1367.94 1794.94 1368 1795.37 1366.7 1797.32C1365.75 1798.77 1363.62 1799.8 1360.38 1800.39C1357.7 1800.88 1355.17 1801.78 1354.77 1802.39C1354.36 1803 1354.02 1807.59 1354.02 1812.6C1354 1820.12 1353.69 1821.98 1352.17 1823.35C1349.99 1825.32 1345.67 1825.51 1344.17 1823.71ZM1506.5 1823.86C1501.82 1822.11 1500 1820.02 1500 1816.36C1500 1813.64 1500.46 1812.92 1502.52 1812.41C1504.88 1811.81 1506.84 1812.33 1518 1816.49C1523.56 1818.56 1528.29 1817.44 1533.58 1812.8C1540.99 1806.29 1543.27 1795.36 1538.96 1786.92C1534.49 1778.16 1523.32 1770.54 1513.19 1769.34C1505.58 1768.43 1504.32 1767.22 1505.82 1762.21C1506.48 1759.99 1509.76 1752.52 1513.11 1745.59L1519.2 1733L1533.85 1733.02C1541.91 1733.02 1549.12 1733.42 1549.87 1733.9C1551.87 1735.17 1549.48 1741.87 1546.65 1742.92C1545.47 1743.36 1539.35 1744.04 1533.06 1744.43C1526.77 1744.81 1520.87 1745.53 1519.95 1746.03C1519.03 1746.52 1517.7 1748.32 1516.99 1750.03C1515.38 1753.92 1516.1 1754.66 1525.01 1758.34C1533.8 1761.96 1541.81 1768.47 1546.94 1776.14C1551.13 1782.42 1551.18 1782.59 1550.82 1790C1550.15 1803.51 1541.7 1816.04 1529.48 1821.64C1523.18 1824.52 1511.35 1825.66 1506.5 1823.86ZM1689.16 1823.31C1686.57 1822.39 1682.67 1819.62 1679.51 1816.47C1673.61 1810.57 1670.49 1803.76 1668.82 1793.22C1666.01 1775.36 1678.7 1749.34 1695.71 1738.07C1701.57 1734.18 1711.67 1731 1718.11 1731C1725.88 1731 1724.06 1734.15 1715.18 1736.06C1702.79 1738.71 1687 1756.35 1687 1767.54C1687 1769.8 1687.04 1769.81 1692.25 1768.42C1699.25 1766.56 1707.43 1766.63 1711.58 1768.6C1715.86 1770.63 1721.65 1777.01 1724.08 1782.36C1729.87 1795.13 1721.91 1815 1708.11 1822.21C1701.99 1825.41 1696.07 1825.75 1689.16 1823.31ZM1881.49 1823.99C1880.7 1822.7 1880.14 1824.59 1893.71 1782.71C1902.18 1756.61 1905.02 1746.62 1904.21 1745.81C1902.77 1744.37 1876.46 1744.4 1872.8 1745.85C1871.32 1746.43 1868.28 1748.56 1866.05 1750.57C1862.33 1753.94 1862 1754.06 1862 1752.04C1862 1750.83 1863.63 1746.06 1865.62 1741.42L1869.24 1733L1892.18 1733C1905.61 1733 1915.91 1733.42 1917 1734C1918.81 1734.97 1918.79 1735.23 1916.45 1741.75C1915.12 1745.46 1909.48 1761.78 1903.91 1778C1898.35 1794.22 1892.26 1810.88 1890.37 1815C1886.39 1823.69 1883.27 1826.86 1881.49 1823.99ZM1705.17 1817.53C1710.29 1814.05 1712.5 1807.85 1712.5 1797C1712.5 1789.93 1712.08 1787.66 1710 1783.5C1708.6 1780.69 1706.01 1777.52 1704.1 1776.25C1697.35 1771.78 1685.39 1774.22 1682.98 1780.57C1679.24 1790.39 1685.16 1812.49 1692.92 1817.73C1697.27 1820.66 1700.65 1820.6 1705.17 1817.53ZM1341.78 1789.75C1342.86 1788.44 1342.63 1749.3 1341.54 1748.21C1340.85 1747.52 1341.04 1747.26 1325.25 1770.31C1318.51 1780.14 1313 1788.82 1313 1789.59C1313 1791.52 1340.21 1791.67 1341.78 1789.75ZM543.1 1776.42C530.54 1773.04 521.25 1765.38 515.54 1753.7C506.58 1735.38 509.06 1713.61 521.65 1700.01C531.02 1689.89 543.06 1685.39 558.57 1686.2C568.62 1686.73 574.98 1689.58 583.69 1697.45C591.19 1704.25 595.43 1710.72 597.45 1718.47C601.74 1734.94 596.93 1752.51 584.98 1764.02C572.61 1775.94 557.71 1780.35 543.1 1776.42ZM562.21 1771.02C577.2 1765.41 582.96 1752.56 581.7 1727.5C580.75 1708.52 576.55 1699.38 566.56 1694.49C555.56 1689.1 541.13 1691.72 534.59 1700.29C527.89 1709.08 525.03 1723.67 526.9 1739.55C528.48 1752.93 531.11 1759.38 537.56 1765.7C545.18 1773.18 552.32 1774.72 562.21 1771.02ZM854.85 1722.07C878.54 1711.01 978.28 1660.95 977.73 1660.4C977.46 1660.13 945.57 1659.92 906.87 1659.93C841.6 1659.95 836.42 1660.08 835.25 1661.67C834.32 1662.95 834 1670.76 834 1692.55C834 1708.59 834.28 1723.78 834.63 1726.29C835.37 1731.69 833.33 1732.12 854.85 1722.07ZM2335.75 1710.32C2332.04 1710.09 2329 1709.46 2329 1708.91C2329 1708.36 2330.18 1706.89 2331.62 1705.65L2334.24 1703.4L2331.48 1697.95C2328.41 1691.89 2319.83 1678.73 2316.69 1675.25C2315.57 1674.01 2314.14 1673 2313.51 1673C2311.31 1673 2292 1700.12 2292 1703.21C2292 1704.17 2293.12 1705.69 2294.49 1706.59C2295.86 1707.48 2296.74 1708.62 2296.43 1709.11C2295.7 1710.29 2270 1710.27 2270 1709.08C2270 1708.58 2271.69 1707.16 2273.75 1705.93C2279.73 1702.37 2286.33 1695.55 2299.2 1679.65L2311.22 1664.81L2302.94 1652.65C2288.18 1631.01 2284.68 1626.94 2277.82 1623.43C2275.25 1622.11 2272.86 1620.58 2272.51 1620.02C2272.09 1619.34 2277.99 1619 2290.12 1619L2308.35 1619L2306.17 1621.31C2304.98 1622.59 2304 1624.77 2304 1626.16C2304 1629.12 2315.65 1648.86 2318.32 1650.43C2319.84 1651.32 2320.71 1650.84 2323.59 1647.5C2328.99 1641.25 2338.01 1627.68 2338 1625.82C2338 1624.9 2336.81 1623.21 2335.35 1622.06C2333.89 1620.91 2332.88 1619.8 2333.1 1619.6C2334.06 1618.71 2362 1617.84 2362 1618.7C2362 1619.21 2360.48 1620.36 2358.61 1621.25C2354.25 1623.32 2346.68 1630.07 2338.42 1639.23C2329.72 1648.88 2326 1654.64 2326 1658.46C2326 1664.73 2342.33 1690.31 2353.62 1701.76C2357.56 1705.75 2360.44 1709.23 2360.01 1709.49C2358.8 1710.24 2343.2 1710.78 2335.75 1710.32ZM50.25 1694.34C48.09 1693.47 48.86 1692.27 53.25 1689.66C59.55 1685.92 65.61 1679.65 78.5 1663.52L90.09 1649.03L80.33 1634.76C68.96 1618.13 61.19 1609.47 55.25 1606.81C52.91 1605.76 51 1604.48 51 1603.95C51 1602.73 85.68 1602.67 86.43 1603.89C86.74 1604.38 85.82 1605.54 84.4 1606.47C82.31 1607.84 81.95 1608.66 82.49 1610.83C83.2 1613.68 92.64 1629.83 96.03 1634L98.06 1636.5L102.59 1631.5C108.54 1624.94 117 1612.32 117 1610C117 1608.99 115.76 1607.27 114.25 1606.16C112.74 1605.06 111.78 1603.89 112.11 1603.55C112.45 1603.22 119.2 1603.07 127.11 1603.22L141.5 1603.5L135.99 1606.62C125.17 1612.76 103.14 1638.55 104.59 1643.4C107.96 1654.7 129.26 1685.6 137.32 1690.88C139.71 1692.45 139.88 1692.86 138.57 1693.94C136.91 1695.32 109.8 1695.14 108.4 1693.74C107.99 1693.32 108.91 1691.66 110.45 1690.05L113.26 1687.12L109.98 1681.31C105.72 1673.75 95.36 1658.34 93.95 1657.47C93.35 1657.1 91.71 1657.85 90.32 1659.15C87.02 1662.21 74.6 1679.68 72.31 1684.48L70.53 1688.2L73.33 1690.6L76.12 1693L73.49 1694C70.85 1695.01 52.57 1695.27 50.25 1694.34ZM824.5 1649.84C825.16 1649.22 825.62 1560.68 825.84 1389.45L826.19 1130L733.59 1130L641 1130L641 1216L641 1302L656.25 1302.04C672.98 1302.09 679.35 1302.92 681.81 1305.38C683.27 1306.84 683.28 1307.15 681.88 1308.54C679.98 1310.44 666.72 1311.96 651.75 1311.98L641 1312L641 1404.5L641 1497L657.25 1497.04C672.71 1497.08 681.23 1497.89 682.79 1499.46C683.18 1499.85 682.44 1501.03 681.14 1502.09C679 1503.82 677.01 1504 659.89 1504L641 1504L641 1578.08L641 1652.17L732.25 1651.47C786.5 1651.05 823.91 1650.39 824.5 1649.84ZM863.42 1643.7C867.22 1639.74 875.77 1630.61 882.42 1623.42C889.06 1616.23 927.76 1574.6 968.42 1530.92C1009.08 1487.24 1050.48 1442.74 1060.42 1432.03C1070.36 1421.32 1084.68 1405.95 1092.23 1397.88C1106.97 1382.15 1111.58 1377.17 1145.5 1340.45C1157.6 1327.35 1175.15 1308.5 1184.5 1298.57C1193.85 1288.63 1204.4 1277.35 1207.94 1273.5C1211.48 1269.65 1223.63 1256.58 1234.94 1244.45C1272.44 1204.25 1300.5 1173.8 1300.81 1172.98C1301.25 1171.79 1289.18 1162 1287.26 1162C1286.36 1162 1282.75 1165.04 1279.23 1168.75C1275.72 1172.46 1266.44 1182.25 1258.61 1190.5C1242.03 1207.98 1192.23 1261.4 1177.01 1278.03C1171.24 1284.34 1159.31 1297.15 1150.5 1306.5C1141.69 1315.85 1126.61 1332.05 1116.99 1342.5C1107.37 1352.95 1095.86 1365.33 1091.41 1370C1082.72 1379.14 986.67 1483.06 950.5 1522.47C938.4 1535.65 923.77 1551.57 918 1557.85C884.83 1593.9 838.6 1644.82 837.29 1646.76C836.02 1648.63 835.98 1649.28 837.08 1650.6C838.18 1651.92 839.87 1652.08 847.45 1651.54L856.5 1650.9L863.42 1643.7ZM898 1645.19C901.02 1642.04 909.35 1633.15 916.5 1625.43C931.78 1608.95 1075.06 1455.16 1091.93 1437.14C1098.29 1430.33 1107.06 1420.88 1111.42 1416.14C1115.77 1411.39 1125.47 1400.97 1132.98 1393C1140.49 1385.03 1149.5 1375.35 1153.01 1371.5C1156.53 1367.65 1165.76 1357.75 1173.53 1349.5C1181.3 1341.25 1196.85 1324.55 1208.08 1312.39C1219.31 1300.24 1241.29 1276.61 1256.92 1259.89C1272.55 1243.18 1293.48 1220.8 1303.42 1210.16C1313.36 1199.52 1321.5 1190.32 1321.5 1189.72C1321.5 1188.12 1311.23 1180 1309.21 1180.01C1307.12 1180.01 1288.31 1199.82 1190.9 1304.62C1185.73 1310.18 1168.91 1328.18 1153.52 1344.62C1118.33 1382.2 1106.55 1394.84 1065.09 1439.51C1046.71 1459.3 1023.5 1484.28 1013.51 1495C1003.52 1505.72 989.08 1521.28 981.42 1529.56C973.77 1537.85 955.8 1557.22 941.5 1572.61C879.62 1639.23 870 1649.82 870 1651.34C870 1651.88 874.61 1651.98 881.25 1651.59L892.5 1650.92L898 1645.19ZM924.93 1649.65C925.71 1649.02 944.57 1628.92 966.82 1605C989.08 1581.08 1012.77 1555.65 1019.45 1548.5C1026.14 1541.35 1050 1515.7 1072.46 1491.5C1094.93 1467.3 1121.7 1438.5 1131.95 1427.5C1164.91 1392.14 1175.32 1380.92 1184 1371.45C1198.12 1356.05 1234.41 1316.91 1252.82 1297.23C1293.88 1253.35 1329.15 1213.8 1334.18 1206L1337.09 1201.5L1334.49 1199.25C1333.06 1198.01 1331.3 1197 1330.59 1197C1329.22 1197 1295.66 1231.97 1249.98 1281C1234.87 1297.22 1216.65 1316.58 1209.5 1324C1202.35 1331.43 1191.12 1343.36 1184.54 1350.51C1177.96 1357.65 1168.73 1367.55 1164.04 1372.5C1151.43 1385.79 1115.47 1424.27 1106.92 1433.62C1102.84 1438.08 1084.63 1457.66 1066.45 1477.12C1048.27 1496.58 1030.05 1516.13 1025.95 1520.57C1021.85 1525.02 1003.24 1545.04 984.59 1565.07C913.19 1641.76 906 1649.65 906 1651.36C906 1652.6 923.19 1651.04 924.93 1649.65ZM974.05 1640.6C979.32 1635.04 1002.48 1610.25 1025.51 1585.5C1080.2 1526.72 1074.35 1533 1114.93 1489.49C1134.42 1468.6 1165.66 1435.08 1184.35 1415C1203.04 1394.92 1229.88 1366.12 1243.99 1351C1258.1 1335.88 1271.4 1321.47 1273.56 1319C1275.71 1316.53 1285.15 1306.4 1294.53 1296.5C1303.9 1286.6 1320.97 1268.38 1332.46 1256C1343.95 1243.62 1355.55 1231.2 1358.25 1228.39L1363.15 1223.28L1355.83 1217.16C1351.8 1213.79 1347.99 1211.03 1347.37 1211.02C1346 1211 1331.78 1225.69 1299 1260.98C1285.53 1275.48 1266.62 1295.71 1257 1305.93C1247.38 1316.14 1231.17 1333.48 1221 1344.46C1210.83 1355.44 1198.22 1368.94 1193 1374.46C1187.78 1379.98 1177.65 1390.82 1170.5 1398.55C1158.45 1411.58 1087.54 1487.88 1045.6 1532.96C954.94 1630.4 938 1648.97 938 1650.95C938 1651.83 941.32 1651.95 951.23 1651.41L964.45 1650.69L974.05 1640.6ZM989.93 1651.04C993.52 1649.11 993.56 1638 989.97 1638C988.14 1638 978 1648.91 978 1650.89C978 1652.27 987.4 1652.39 989.93 1651.04ZM1163.11 1638.95C1163.78 1625.21 1164.79 1622 1168.46 1622C1171.34 1622 1172.11 1624.64 1172.15 1634.67C1172.16 1638.42 1172.39 1643.87 1172.66 1646.76L1173.15 1652.01L1251.82 1651.76L1330.5 1651.5L1331.1 1638.4C1331.72 1624.97 1332.14 1623 1334.44 1623C1337.53 1623 1338.3 1626 1338.22 1637.84C1338.18 1644.32 1338.48 1650.16 1338.89 1650.82C1339.45 1651.73 1361.12 1651.95 1431.56 1651.76L1523.5 1651.5L1524.06 1638.24C1524.65 1624.29 1525.52 1621.58 1528.78 1623.63C1530.22 1624.54 1530.58 1626.87 1531 1638.11L1531.5 1651.5L1611.89 1651.76C1670.45 1651.94 1692.65 1651.71 1693.64 1650.88C1694.64 1650.05 1695 1646.7 1695.01 1638.13C1695.03 1624.6 1695.53 1622 1698.09 1622C1701.89 1622 1703.44 1626.57 1703.98 1639.43L1704.5 1651.5L1787.7 1651.5C1855.74 1651.5 1871.14 1651.26 1872.2 1650.17C1873.27 1649.06 1872.71 1648.13 1869 1644.8C1861.6 1638.18 1735.09 1532.5 1657.4 1468.04C1639.85 1453.48 1618.97 1436.14 1611 1429.5C1603.03 1422.86 1595.1 1416.32 1593.38 1414.96C1591.67 1413.61 1582.74 1406.3 1573.54 1398.71C1560.01 1387.57 1556.39 1385.05 1554.65 1385.58C1545.37 1388.41 1022 1649.2 1022 1651C1022 1651.68 1045.41 1651.93 1092.25 1651.76L1162.5 1651.5L1163.11 1638.95ZM1003.27 1646.02C1004.04 1644.93 1014.09 1634.02 1025.62 1621.77C1037.15 1609.52 1062.97 1581.95 1082.99 1560.5C1103.02 1539.05 1141.7 1497.65 1168.95 1468.49C1196.2 1439.33 1221.65 1412.08 1225.5 1407.93C1231.57 1401.38 1277.03 1352.65 1318.25 1308.5C1325.44 1300.8 1340.61 1284.6 1351.96 1272.5C1363.31 1260.4 1374.82 1248.09 1377.54 1245.13L1382.49 1239.77L1377.65 1235.38C1374.99 1232.97 1372.06 1231 1371.15 1231C1369.55 1231 1343.21 1258.1 1305 1299.05C1294.83 1309.96 1279.3 1326.46 1270.5 1335.73C1261.7 1344.99 1245.72 1361.99 1235 1373.5C1224.28 1385.01 1208.94 1401.42 1200.93 1409.96C1186.28 1425.58 1175.37 1437.28 1103.41 1514.53C1081.91 1537.62 1050.13 1571.72 1032.79 1590.33C1001.27 1624.14 1001.26 1624.15 1000.64 1629.33C999.7 1637.14 999.88 1648 1000.94 1648C1001.46 1648 1002.51 1647.11 1003.27 1646.02ZM154.51 1639.01C153.2 1636.89 150 1616.57 150 1610.35C150 1604.36 150.14 1604 152.64 1603.38C156.7 1602.36 160.24 1604.06 161.19 1607.5C162.18 1611.05 160.49 1630.39 158.72 1635.68C157.45 1639.49 155.67 1640.9 154.51 1639.01ZM1048.65 1625.68L1065.62 1617.18L1106.06 1573.37C1128.3 1549.27 1153.03 1522.54 1161 1513.96C1168.97 1505.38 1180.7 1492.76 1187.05 1485.93C1202.76 1469.04 1246.42 1421.82 1273.91 1392C1286.33 1378.53 1299.9 1363.9 1304.05 1359.5C1311.28 1351.85 1317.94 1344.61 1351.5 1307.97C1359.75 1298.97 1367.89 1290.23 1369.59 1288.55C1372.68 1285.5 1395.9 1260.33 1399.3 1256.35C1401.06 1254.27 1401.01 1254.18 1396.16 1250.62C1393.45 1248.63 1390.55 1247 1389.71 1247C1388.87 1247 1379.71 1256.09 1369.34 1267.21C1358.98 1278.32 1341.93 1296.44 1331.46 1307.46C1313.69 1326.17 1277.87 1364.36 1230.58 1415C1219.54 1426.83 1206.64 1440.55 1201.92 1445.5C1190.18 1457.8 1089.99 1565.35 1055.26 1602.94C1039.72 1619.75 1027.01 1634.05 1027.01 1634.73C1027 1636.39 1028.52 1635.75 1048.65 1625.68ZM867 1598.83C883.77 1580.94 905.35 1557.79 914.94 1547.4C924.52 1537 941.21 1519.05 952.02 1507.5C962.83 1495.95 994.98 1461.3 1023.47 1430.5C1051.96 1399.7 1083.24 1365.95 1092.97 1355.5C1102.7 1345.05 1114.9 1331.82 1120.08 1326.11C1125.26 1320.39 1136.92 1307.76 1146 1298.05C1162.24 1280.67 1176.93 1264.85 1244.75 1191.68C1263.59 1171.36 1279 1154.36 1279 1153.92C1279 1152.51 1267.89 1144 1266.16 1144.09C1264.64 1144.17 1255.06 1154.05 1230 1181.39C1224.78 1187.09 1211.55 1201.37 1200.6 1213.13C1164.12 1252.32 1158.51 1258.38 1140.53 1278C1130.71 1288.72 1114.04 1306.72 1103.5 1318C1092.95 1329.28 1078.51 1344.82 1071.41 1352.54C1053.75 1371.75 916.57 1520.38 901.59 1536.54C883.49 1556.07 844 1598.84 839.12 1604.2L834.84 1608.9L834.27 1620.58C833.78 1630.35 833.92 1632.2 835.09 1631.82C835.87 1631.57 850.23 1616.73 867 1598.83ZM1163.7 1547.92C1182.84 1527.26 1216.46 1491.03 1238.4 1467.42C1260.35 1443.82 1283.48 1418.88 1289.8 1412C1296.13 1405.12 1304.3 1396.35 1307.97 1392.5C1315.08 1385.04 1360.55 1336.04 1380.5 1314.34C1387.1 1307.16 1398.76 1294.67 1406.42 1286.6L1420.33 1271.91L1415.96 1267.46C1412.56 1264 1410.86 1263 1408.34 1263C1405.42 1263 1403.59 1264.66 1389.87 1279.75C1381.49 1288.96 1366.24 1305.5 1355.99 1316.5C1345.73 1327.5 1331.52 1342.82 1324.42 1350.55C1317.31 1358.28 1283.57 1394.73 1249.44 1431.55C1215.31 1468.37 1182.18 1504.12 1175.82 1511C1169.46 1517.88 1147.55 1541.49 1127.13 1563.47C1106.71 1585.45 1090 1603.79 1090 1604.22C1090 1604.66 1098.75 1600.62 1109.45 1595.25L1128.91 1585.5L1163.7 1547.92ZM844.08 1585.25C848.73 1580.44 861.07 1567.28 871.51 1556.02C881.96 1544.75 894.33 1531.47 899 1526.52C903.68 1521.56 912.71 1511.88 919.07 1505C925.44 1498.12 942.76 1479.44 957.57 1463.47C972.38 1447.51 992.34 1425.91 1001.93 1415.47C1011.52 1405.04 1025.24 1390.19 1032.43 1382.47C1043.85 1370.22 1082.79 1327.82 1094.4 1315C1096.64 1312.53 1104.14 1304.42 1111.07 1297C1131.23 1275.39 1180.95 1221.4 1187.03 1214.5C1189.46 1211.75 1193.93 1206.79 1196.97 1203.49C1211.8 1187.35 1234.11 1162.37 1246.9 1147.59C1249.32 1144.79 1252.44 1140.77 1253.84 1138.65L1256.39 1134.81L1253.95 1132.92C1249.83 1129.74 1247.97 1129.57 1245.47 1132.14C1244.21 1133.44 1236.28 1141.97 1227.84 1151.09C1219.4 1160.22 1199 1182.01 1182.5 1199.53C1143.38 1241.07 1125.16 1260.56 1105 1282.44C1088.11 1300.76 1085.04 1304.07 1041 1351.29C1026.97 1366.33 1004.25 1390.73 990.5 1405.51C976.75 1420.29 955.83 1442.79 944 1455.49C932.17 1468.2 914.4 1487.34 904.5 1498.03C894.6 1508.71 879.98 1524.44 872 1532.99C864.02 1541.53 852.39 1554.03 846.14 1560.77L834.78 1573.03L834.25 1583.51C833.92 1589.94 834.09 1594 834.68 1594C835.2 1594 839.44 1590.06 844.08 1585.25ZM1169 1565.62C1172.03 1564.02 1177.23 1560.79 1180.56 1558.44C1191.09 1551.02 1230.27 1510.34 1325.52 1407.94C1337.06 1395.53 1359.27 1371.68 1374.88 1354.94C1390.49 1338.2 1408.26 1319.11 1414.38 1312.53C1420.5 1305.94 1428.56 1297.31 1432.31 1293.35L1439.12 1286.14L1433.97 1282.07C1431.14 1279.83 1428.49 1278 1428.08 1278C1425.36 1278 1156 1568.14 1156 1571.07C1156 1572.03 1160.14 1570.29 1169 1565.62ZM872.69 1518.73C892.94 1497.14 917.82 1470.47 927.99 1459.48C938.16 1448.49 950.35 1435.45 955.07 1430.5C965.53 1419.54 1023.16 1357.65 1058.19 1319.76C1072.29 1304.51 1090.73 1284.7 1099.17 1275.75C1111.87 1262.27 1153.27 1217.55 1221.75 1143.37C1227.94 1136.66 1233 1130.91 1233 1130.59C1233 1130.27 1227.44 1130 1220.65 1130L1208.31 1130L1177.4 1163.21C1160.41 1181.48 1139.75 1203.59 1131.5 1212.35C1123.25 1221.11 1112.45 1232.66 1107.5 1238.03C1066.22 1282.75 1037.79 1313.31 1028.44 1323C1018.28 1333.53 988.18 1365.75 941.58 1415.99C931.64 1426.71 919.64 1439.54 914.92 1444.49C910.21 1449.45 890.42 1470.57 870.96 1491.43L835.57 1529.36L834.87 1534.93C833.82 1543.3 833.87 1558 834.94 1558C835.46 1558 852.45 1540.33 872.69 1518.73ZM526.68 1550.35C526.32 1549.99 527.63 1548.3 529.59 1546.6C532.86 1543.75 533.23 1542.86 534.18 1535.5C535.6 1524.48 534.52 1475.87 532.78 1472.21C531.71 1469.98 530.72 1469.45 527.18 1469.19C524.46 1468.99 523.02 1468.45 523.26 1467.72C523.47 1467.08 528.04 1464.35 533.4 1461.65C540.75 1457.95 543.43 1457.03 544.3 1457.9C545.82 1459.42 546.81 1478.58 546.91 1508.6C547.03 1540.31 547.64 1547.67 550.24 1548.35C551.32 1548.63 551.9 1549.35 551.54 1549.93C550.82 1551.09 527.81 1551.48 526.68 1550.35ZM1230 1534.86C1244.85 1526.85 1253.54 1518.36 1321.9 1445C1345.22 1419.97 1366.62 1397.03 1369.45 1394C1380.54 1382.15 1415.02 1344.91 1424.56 1334.49C1438.06 1319.75 1450.85 1304.42 1452.27 1301.3C1453.31 1299.02 1453.13 1298.51 1450.47 1296.38C1448.83 1295.08 1447 1294.01 1446.38 1294C1444.42 1294 1387 1354.39 1299.96 1448.03C1285.91 1463.14 1268.81 1481.51 1261.96 1488.85C1255.11 1496.19 1245.67 1506.4 1241 1511.54C1236.33 1516.67 1228.56 1525.12 1223.75 1530.3C1218.94 1535.49 1215 1540.25 1215 1540.88C1215 1542.31 1219.62 1540.45 1230 1534.86ZM855.11 1494.98C881.05 1467.51 980.17 1361.67 1031.5 1306.62C1045.25 1291.87 1064.77 1270.96 1074.88 1260.15C1084.99 1249.34 1103.72 1229.25 1116.51 1215.5C1129.29 1201.75 1152.34 1177 1167.73 1160.5L1195.71 1130.5L1191.24 1130.19C1187.73 1129.95 1185.97 1130.44 1183 1132.5C1179.25 1135.1 1143.31 1170.96 1132.9 1182.49C1129.93 1185.78 1118.72 1197.73 1108 1209.04C1082.25 1236.2 1065.69 1253.86 1041 1280.5C1029.79 1292.6 1010.65 1313.08 998.47 1326C986.29 1338.92 972.54 1353.61 967.91 1358.64C963.29 1363.67 948.7 1379.36 935.5 1393.51C922.3 1407.66 907.67 1423.41 903 1428.51C898.33 1433.61 887.73 1445.14 879.46 1454.14C860.02 1475.27 844.49 1493 839.04 1500.29C835.61 1504.86 834.6 1507.15 834.21 1511.17C833.9 1514.36 834.1 1516.12 834.72 1515.88C835.28 1515.67 844.45 1506.26 855.11 1494.98ZM1285.64 1507.18C1289.96 1505 1296.3 1501.15 1299.73 1498.63C1306.75 1493.45 1325.57 1474.82 1348.24 1450.63C1356.63 1441.67 1372.95 1424.28 1384.5 1411.99C1448.29 1344.13 1472.27 1318.36 1472.74 1317.18C1473.39 1315.55 1466.19 1308 1463.99 1308C1461.64 1308 1438.69 1331.97 1363.41 1413.02C1284.32 1498.2 1273.56 1509.95 1273.18 1511.61C1272.77 1513.36 1274.78 1512.64 1285.64 1507.18ZM871.3 1448.5C888.91 1429.8 906.31 1411.35 909.97 1407.5C918.28 1398.76 969.04 1344.58 1003.51 1307.66C1017.8 1292.35 1037.6 1271.16 1047.5 1260.57C1065.66 1241.14 1075.36 1230.75 1135.69 1166.08L1168.88 1130.5L1164.33 1130.19C1160.76 1129.95 1158.99 1130.43 1156.12 1132.41C1151.94 1135.32 1119.68 1167.6 1102.85 1185.73C1096.61 1192.45 1084.75 1205.07 1076.5 1213.75C1060.81 1230.28 1038.1 1254.52 999.1 1296.39C986.34 1310.08 969.29 1328.32 961.2 1336.92C953.12 1345.52 938.17 1361.52 928 1372.48C917.83 1383.44 906.54 1395.58 902.93 1399.45C866 1439.03 844.47 1463.27 838.11 1472.42C834.78 1477.21 834 1479.18 834 1482.84L834 1487.35L836.64 1484.92C838.09 1483.59 853.69 1467.2 871.3 1448.5ZM1399.11 1436.37C1412.09 1422.14 1438.79 1392.95 1458.45 1371.5L1494.19 1332.5L1489.37 1328.24C1486.71 1325.9 1483.64 1323.7 1482.53 1323.35C1480.3 1322.64 1484.15 1318.78 1430.12 1375.98C1342.27 1468.99 1334 1478.08 1334 1481.65C1334 1482.5 1341.74 1479.13 1354.75 1472.62L1375.51 1462.24L1399.11 1436.37ZM877.96 1412.49C890.86 1398.74 914.95 1373.1 931.49 1355.5C948.04 1337.9 967.18 1317.43 974.04 1310.01C980.89 1302.59 991.23 1291.55 997 1285.49C1013.83 1267.81 1077.29 1199.93 1081.58 1195.01C1085.08 1191 1126.33 1146.86 1137.89 1134.75L1142.42 1130L1139.29 1130C1136.94 1130 1134.54 1131.38 1129.65 1135.56C1124.14 1140.26 1079.68 1185.92 1043.5 1224.02C1011.77 1257.45 982.72 1288.3 971.03 1301C963.69 1308.97 952.88 1320.45 947 1326.5C929.34 1344.66 885.8 1391.33 863.96 1415.5C837.35 1444.95 833.98 1449.38 834.03 1454.89L834.07 1458.5L844.28 1447.99C849.9 1442.21 865.06 1426.23 877.96 1412.49ZM1429.37 1433.03C1439.1 1425.28 1492.9 1369.23 1503.89 1355.39C1509.68 1348.09 1510.49 1345.53 1507.78 1343.01C1506.54 1341.85 1504.25 1341 1502.38 1341C1497.74 1341 1496.7 1342.07 1417.66 1428.7C1409.02 1438.17 1401.52 1446.18 1400.98 1446.51C1400.44 1446.85 1400 1447.78 1400 1448.6C1400 1450.87 1420.85 1439.81 1429.37 1433.03ZM880.41 1383.45C890.36 1372.97 908.62 1353.65 921 1340.53C933.38 1327.4 953.2 1306.5 965.06 1294.08C996.96 1260.67 1055.94 1198.16 1076.5 1175.99C1086.4 1165.31 1100.12 1150.71 1107 1143.54L1119.5 1130.5L1113.63 1130.2C1108.67 1129.94 1107.19 1130.29 1104.07 1132.45C1100.67 1134.81 1069.48 1165.99 1050.47 1186.04C1030.79 1206.79 977.35 1263.87 955 1288C941.52 1302.55 925.75 1319.41 919.94 1325.48C895.2 1351.29 853.01 1397.53 842.36 1410.5C835.76 1418.54 834 1422.03 834.05 1427L834.09 1431.5L848.21 1417C855.97 1409.03 870.46 1393.93 880.41 1383.45ZM1466.33 1416.77C1470.81 1414.44 1478.75 1409.19 1483.99 1405.11C1493.03 1398.05 1519.81 1374.07 1526.75 1366.81L1529.99 1363.41L1525.51 1359.01C1521.6 1355.17 1520.71 1354.73 1518.58 1355.55C1515.25 1356.84 1457 1418.18 1457 1420.4C1457 1421.48 1458.08 1421.06 1466.33 1416.77ZM854.83 1381C890.16 1343.66 907.57 1325.21 936 1294.96C952.23 1277.7 970.45 1258.38 976.5 1252.01C988.67 1239.22 1044.8 1179.14 1072.28 1149.5L1089.9 1130.5L1086.01 1130.2C1083.74 1130.02 1080.73 1130.6 1078.81 1131.59C1074.81 1133.65 1049.81 1158.04 1031.12 1178.13C1023.63 1186.18 1009.4 1201.27 999.5 1211.66C979.76 1232.37 942.1 1272.46 932.01 1283.5C928.49 1287.35 915.63 1301.08 903.44 1314C864.72 1355.05 842.39 1380.12 837.13 1388.45C834.83 1392.08 834 1394.58 834 1397.85L834 1402.31L836.14 1400.4C837.31 1399.36 845.72 1390.62 854.83 1381ZM1544.86 1376.67C1545.92 1375.39 1545.52 1374.75 1542.33 1372.58C1540.24 1371.16 1537.95 1370 1537.24 1370C1535.65 1370 1516 1389.32 1516 1390.89C1516 1392.21 1543.01 1378.9 1544.86 1376.67ZM877.88 1327.55C889.22 1315.48 908.17 1295.44 920 1283.01C931.83 1270.59 950.73 1250.56 962 1238.5C989.87 1208.7 1010.45 1186.76 1036.12 1159.48C1048.02 1146.84 1058.97 1135.04 1060.46 1133.25C1063.13 1130.06 1063.14 1130 1060.98 1130C1058.15 1130 1042.11 1145.73 991.12 1198.53C948.7 1242.47 931.34 1260.72 887.87 1307.05C842.57 1355.34 833.96 1365.5 834.05 1370.59C834.09 1373.3 834.9 1372.66 845.67 1361.5C852.04 1354.9 866.53 1339.62 877.88 1327.55ZM1663.5 1317.73C1778.01 1261.08 2033.07 1133.42 2035.65 1131.46C2037.24 1130.26 1989.78 1130.06 1703 1130.03C1381.64 1130 1267.62 1130.53 1268.22 1132.03C1268.54 1132.82 1281.26 1143.73 1291.51 1152C1298.55 1157.68 1303.24 1161.62 1313.94 1170.88C1326.58 1181.81 1433.55 1270.94 1453 1286.75C1466.68 1297.86 1486.37 1314.17 1504.11 1329.06C1510.37 1334.32 1524.42 1345.87 1535.32 1354.73L1555.14 1370.83L1561.82 1367.78C1565.49 1366.1 1611.25 1343.58 1663.5 1317.73ZM866.01 1316.9C875.63 1306.67 892.5 1288.89 903.5 1277.39C914.5 1265.89 930.73 1248.84 939.57 1239.49C948.4 1230.15 972.03 1205.26 992.07 1184.19C1012.1 1163.12 1031.81 1142.31 1035.85 1137.94L1043.2 1130L1038.3 1130C1034.7 1130 1032.53 1130.63 1030.17 1132.37C1023.78 1137.09 1001.79 1158.42 983.88 1177.26C973.83 1187.84 959.29 1203.04 951.56 1211.04C943.83 1219.03 929.4 1234.1 919.5 1244.52C909.6 1254.95 896.32 1268.88 890 1275.49C870.76 1295.57 845.76 1322.86 841.11 1328.85C835.56 1335.99 834 1339.71 834.02 1345.72L834.03 1350.5L841.28 1343C845.26 1338.88 856.39 1327.13 866.01 1316.9ZM509.33 1341.41C508.99 1340.54 511.5 1336.99 515.64 1332.44C540.61 1304.99 549.02 1291.95 549.77 1279.5C550.72 1263.62 537.29 1255.21 523.03 1262.75C518.36 1265.22 516.8 1266.98 514.03 1272.94C512.78 1275.63 511 1275.27 511.02 1272.33C511.07 1265.61 518.57 1254.33 525.36 1250.74C531.82 1247.34 541.9 1247.63 548.75 1251.42C560.77 1258.06 564.8 1270.18 559.7 1284.26C556.48 1293.1 548.57 1304.11 535.85 1317.43C529.88 1323.68 525 1329.29 525 1329.9C525 1331.26 550.62 1331.39 556.35 1330.06C558.46 1329.57 561.19 1328.23 562.41 1327.08C567.05 1322.72 568.16 1325.14 565.38 1333.57C562.58 1342.04 563.76 1341.7 535.19 1342.3C513.8 1342.76 509.79 1342.62 509.33 1341.41ZM897.46 1255C913.51 1238.22 931.52 1219.33 937.48 1213C943.45 1206.67 953.57 1196.1 959.97 1189.5C987.19 1161.44 1014 1132.35 1014 1130.87C1014 1128.97 1008.62 1130.16 1004.55 1132.96C996.85 1138.26 971.75 1162.52 902.25 1231.84L834 1299.91L834 1304.82C834 1307.51 834.3 1311.91 834.67 1314.59L835.33 1319.45L851.8 1302.47C860.86 1293.14 881.41 1271.78 897.46 1255ZM845.13 1275.68C855.6 1266.52 965.96 1156.17 978.64 1142.18C983.79 1136.5 988 1131.43 988 1130.93C988 1130.42 986.49 1130 984.65 1130C980.34 1130 975.66 1133.38 960.91 1147.15C949.52 1157.79 865.8 1243.37 850.51 1260C841.46 1269.86 834 1279.61 834 1281.61C834 1284.41 836.94 1282.84 845.13 1275.68ZM875.4 1220.78C920.69 1175.03 956.83 1137.25 959.31 1133.05L961.11 1130L957.75 1130C955.76 1130 952.52 1131.18 949.81 1132.91C944.47 1136.29 921.95 1158.51 881.79 1200C851.2 1231.61 838.04 1246.09 835.55 1250.9C833.42 1255.03 833.51 1258.99 835.75 1259.03C836.75 1259.05 853.7 1242.7 875.4 1220.78ZM875.16 1193.77C919.45 1148.38 934 1132.81 934 1130.8C934 1128.72 930.47 1130.53 923.43 1136.18C913.1 1144.5 844.72 1212.86 838.75 1220.85C834.41 1226.65 832.98 1230.64 834.64 1232.3C835.92 1233.59 841.41 1228.36 875.16 1193.77ZM840.66 1204.12C847.17 1198.89 910.41 1135.09 911.9 1132.25C913 1130.13 912.88 1130 909.63 1130C907.12 1130 904.63 1131.19 900.35 1134.42C893.33 1139.72 841.63 1191.65 837.15 1197.9C834.19 1202.04 832.86 1208 834.91 1208C835.41 1208 838 1206.25 840.66 1204.12ZM842.1 1178.49C850.77 1170.75 888 1132.25 888 1131.02C888 1129.02 882.32 1130.05 877.95 1132.83C872.49 1136.3 841.37 1166.83 837.1 1172.9C834.22 1176.99 833.1 1181.77 834.67 1183.33C835.64 1184.31 835.41 1184.46 842.1 1178.49ZM842.72 1153.34C850.12 1146.84 863.42 1132.08 862.6 1131.27C860.76 1129.43 835 1154.42 835 1158.05C835 1159.79 836.23 1159.04 842.72 1153.34ZM841.5 1137L848.45 1130L841.22 1130L834 1130L834 1137C834 1140.85 834.12 1144 834.28 1144C834.43 1144 837.68 1140.85 841.5 1137ZM825.73 1120.27C826.56 1118.11 826.52 1129.05 826.22 960C826.07 881.62 825.67 808.11 825.32 796.63L824.68 775.76L759.01 721.13C664.33 642.36 644.37 626 642.98 626C642.61 626 642.01 630.12 641.65 635.15C640.74 647.95 640.83 780.99 641.75 781.03C642.16 781.05 650.77 781.26 660.87 781.5C680.4 781.97 683 782.32 683 784.53C683 787.67 678.69 788.47 659.74 788.83L640.99 789.19L641.24 878.34L641.5 967.5L661.2 968C682.18 968.53 685.19 969.23 681.67 972.76C680.16 974.27 677.35 974.55 660.47 974.84L641 975.18L641 1047.09C641 1086.64 641.11 1119.05 641.25 1119.1C641.39 1119.16 652.3 1119.77 665.5 1120.45C679.06 1121.16 718.98 1121.77 757.28 1121.85C820.72 1121.99 825.11 1121.89 825.73 1120.27ZM1236.01 1120.39C1236.81 1119.59 1229.48 1112.89 1208.81 1095.53C1193.24 1082.46 1175.38 1067.44 1169.11 1062.14C1162.85 1056.84 1154.93 1050.25 1151.52 1047.5C1148.1 1044.75 1138.38 1036.62 1129.9 1029.43C1114.3 1016.18 1065.82 975.71 1047.5 960.63C1038.58 953.3 1021.16 938.74 1009.64 929C1003.78 924.04 896.1 834.64 873.4 815.88C841.41 789.44 838.31 787 836.78 787C835.61 787 835.17 789.21 834.65 797.66C834.29 803.52 834 878.93 834 965.24L834 1122.17L1034.45 1121.83C1179.15 1121.59 1235.21 1121.19 1236.01 1120.39ZM547.1 1012.75C546.63 1011.51 545.92 1006.34 545.52 1001.25C545.12 996.16 544.72 991.98 544.64 991.95C544.56 991.93 536.95 991.52 527.73 991.06C510.36 990.18 508 989.54 508 985.71C508 980.09 535.92 936.49 547.35 924.25C551.19 920.15 554.62 919.95 556.17 923.75C556.86 925.43 557.48 937.07 557.77 953.75L558.25 981L562.05 981C571.1 981 571.06 988.41 562 990.72L558.5 991.62L557.94 1001.72C557.32 1013.12 556.38 1015 551.35 1015C548.74 1015 547.75 1014.48 547.1 1012.75ZM545.05 978.91C546.31 976.54 545.29 939 543.95 939C542.8 939 517 976.73 517 978.42C517 980.13 520.27 980.59 534.21 980.83C543.13 980.99 544.02 980.83 545.05 978.91ZM519.02 840.94C513.23 838.49 511 832.9 514.62 829.9C516.01 828.75 517.6 829.03 525.45 831.78C530.52 833.55 535.55 835 536.63 835C540.12 835 547.71 829.35 550.41 824.75C554.39 817.95 554.77 812.36 551.69 805.63C548.86 799.46 542 792.17 536.58 789.61C534.65 788.69 529.5 787.22 525.15 786.35C520.8 785.48 516.62 784.38 515.87 783.92C514.79 783.25 516.26 779.54 522.75 766.53L530.99 750L543.75 750.01C550.76 750.02 558.2 750.3 560.27 750.65C563.54 751.19 563.96 751.56 563.42 753.38C563.08 754.55 561.55 756.79 560.02 758.36C557.36 761.1 556.71 761.26 545.37 761.9C538.84 762.27 532.93 762.93 532.24 763.35C531.55 763.78 530.27 765.5 529.4 767.19C527.38 771.11 528.07 771.81 538.13 775.94C547.35 779.74 556.23 787.36 560.5 795.13C566.63 806.27 563.31 819.58 551.61 830.81C543.17 838.93 538.32 841.25 529 841.66C524.88 841.84 520.38 841.52 519.02 840.94ZM529.24 664.43C518.78 659.22 512.06 647.56 511.25 633.17C509.6 604.28 532.22 575.77 558.75 573.29C562.94 572.9 565 573.07 565 573.8C565 575.34 560.93 578 558.53 578.02C552.51 578.09 539.92 587.77 534.16 596.76C531.14 601.48 528.1 610.43 529.16 611.49C529.46 611.8 532.35 611.36 535.57 610.52C546.99 607.55 554.59 609.36 560.9 616.54C571.77 628.92 570.79 644.71 558.32 658.11C555.67 660.96 551.7 664.12 549.5 665.12C543.56 667.84 535.54 667.57 529.24 664.43ZM549.01 658.23C553.42 653.81 554.99 649.04 554.99 639.93C555 627.87 551.04 619.84 543.68 617.06C537.08 614.57 528.5 616.81 525.89 621.71C523.9 625.46 524.52 639.24 527.05 647.42C528.44 651.93 530.28 655.26 532.89 658C536.17 661.45 537.28 662 540.96 662C544.57 662 545.82 661.41 549.01 658.23ZM531 471.49C531 470.12 536.21 452.9 542.57 433.24C548.93 413.58 554.3 396.99 554.5 396.36C555.02 394.68 550.12 394 537.34 394C524.26 394 520.54 395.11 514.75 400.75C511.88 403.55 511 403.99 511 402.64C511 401.67 512.69 396.6 514.75 391.37L518.5 381.87L542.2 382.18C556.99 382.38 566.3 382.89 566.95 383.55C567.68 384.28 564.26 395.48 555.65 420.55C548.86 440.32 542.26 458.98 540.99 462C536.72 472.15 531 477.58 531 471.49ZM614.25 137.36C611.47 136.74 611.34 135.35 613.97 134.51C615.06 134.16 616.86 132.72 617.97 131.31C619.8 128.98 620 127.28 620 113.86L620 98.98L610.12 83.59C598.55 65.56 589.09 52.86 584.95 49.8C583.33 48.61 582 47.26 582 46.81C582 46.37 589.2 46 598 46C606.8 46 614 46.37 614 46.82C614 47.27 612.85 48.64 611.45 49.86C609.55 51.51 609.06 52.65 609.56 54.29C611.42 60.43 629.09 89 631.02 89C632.95 89 642.67 73.91 649.12 60.92C652.37 54.37 652.09 52.41 647.46 49.38C646.11 48.5 645 47.37 645 46.88C645 46.4 651.55 46 659.56 46C674.61 46 675.98 46.49 669.45 49.59C664.81 51.79 657.77 60.86 646.4 79.26C634.88 97.9 633.6 101.73 634.21 115.92C634.68 127.15 636.11 131.56 640.18 134.42C641.39 135.26 642.08 136.26 641.7 136.63C640.89 137.44 617.45 138.06 614.25 137.36Z" fill="#1e2749" fill-rule="evenodd"/>
</svg>
