<?xml version="1.0" encoding="UTF-8"?>
<svg xmlns="http://www.w3.org/2000/svg" viewBox="0 0 382 136" width="382" height="136" shape-rendering="geometricPrecision">
<path d="M25.67 121.64C8.96 113.24 6.48 111.9 6.27 111.14C6.15 110.67 6.03 101.76 6.03 91.36C6.01 76.82 6.1 72.33 6.42 71.92C6.65 71.63 15.09 67.26 25.19 62.22C35.28 57.18 43.72 52.84 43.93 52.58C44.21 52.25 44.35 48.91 44.41 41.01C44.49 30.92 44.55 29.87 45.07 29.54C46.4 28.71 46.5 29.45 46.6 41.43L46.7 52.83L65.66 62.3C76.1 67.5 84.73 72 84.85 72.3C84.96 72.59 85.05 81.45 85.04 91.99C85.01 109.82 84.97 111.18 84.42 111.71C83.69 112.43 45.87 131.35 45.27 131.3C45.03 131.28 36.21 126.93 25.67 121.64ZM63.92 119.64C74.51 114.35 82.22 110.31 82.51 109.88C82.95 109.26 83.01 106.78 82.99 91.59C82.96 76.2 82.89 73.94 82.44 73.49C81.73 72.78 46.1 55 45.4 55C45.09 55.01 36.66 59.09 26.67 64.09L8.5 73.17L8.41 91.53C8.33 108.7 8.37 109.92 8.91 110.4C9.66 111.04 10.47 111.47 20.33 116.36C24.82 118.59 32.17 122.27 36.67 124.52C41.16 126.78 45.06 128.64 45.33 128.65C45.61 128.66 53.97 124.61 63.92 119.64ZM29.83 117.13C22.87 113.58 16.37 110.28 15.4 109.8C13.85 109.04 13.64 108.82 13.73 108.05C13.88 106.77 14.88 106.78 17.19 108.08C18.28 108.69 24.16 111.7 30.27 114.77C36.37 117.84 41.62 120.5 41.93 120.67C42.25 120.85 42.91 121.15 43.42 121.32C44.79 121.81 44.46 123.73 43.02 123.63C42.73 123.61 36.8 120.69 29.83 117.13ZM76.82 108.32C76.7 108.13 76.62 101.49 76.64 93.57C76.65 85.65 76.66 78.52 76.66 77.73C76.67 76.36 76.71 76.29 77.58 76.39L78.5 76.5L78.59 92.13C78.65 103.39 78.57 107.88 78.3 108.21C77.85 108.75 77.12 108.8 76.82 108.32ZM186.33 107.06C185.65 106.83 186.03 105.43 187.03 104.48C188.93 102.67 191.33 99.41 191.55 98.35C191.67 97.72 191.58 96.96 191.32 96.48C190.96 95.81 190.63 95.67 189.45 95.67C188.19 95.67 187.95 95.79 187.5 96.67C187.22 97.22 186.85 97.67 186.68 97.67C185.72 97.67 186.16 94.62 187.24 93.81C187.58 93.55 188.68 93.35 189.83 93.35C191.61 93.34 191.96 93.45 192.91 94.35C195.04 96.34 194.68 98.47 191.63 101.79C189.06 104.59 189.15 105 192.33 105C194.17 105 194.73 105.12 194.89 105.53C195.32 106.66 194.27 107.03 190.39 107.1C188.34 107.14 186.51 107.12 186.33 107.06ZM119.54 98.5C119.07 98.03 118.97 97.42 119.03 95.37L119.11 92.83L116.97 92.75C113.81 92.62 113.33 92.46 113.33 91.49C113.33 90.77 113.49 90.66 114.58 90.61C115.27 90.57 116.33 90.58 116.94 90.62C118.61 90.74 119 90.22 119 87.88C119.01 85.28 119.27 84.33 119.97 84.33C121.02 84.33 121.33 85.08 121.33 87.53C121.33 89.04 121.49 90.04 121.75 90.24C121.98 90.42 123.18 90.58 124.41 90.59C126.84 90.62 127.33 90.78 127.33 91.53C127.33 92.25 125.91 92.67 123.48 92.67L121.33 92.67L121.33 95.13C121.33 97.01 121.19 97.77 120.73 98.34C120.16 99.05 120.1 99.05 119.54 98.5ZM139.33 98.63C137.74 98.15 137.62 97.99 137.45 96.01C137.3 94.36 137.33 94.29 138.07 94.39C138.55 94.46 139 94.89 139.3 95.56C139.89 96.91 141.22 97.48 143.08 97.2C145 96.91 146.3 95.81 146.55 94.28C146.72 93.23 146.63 92.99 145.89 92.51C145.42 92.2 144.01 91.79 142.77 91.6C139.62 91.12 138.69 90.71 137.96 89.53C137.21 88.29 137.14 86 137.82 84.69C138.09 84.17 138.88 83.39 139.57 82.96C140.63 82.31 141.28 82.18 143.68 82.17C147.17 82.16 148.33 82.73 148.33 84.44C148.33 85.58 147.84 86.33 147.1 86.33C146.86 86.33 146.67 86.06 146.67 85.72C146.67 83.37 141.16 82.99 140.29 85.28C139.42 87.57 140.78 88.74 144.82 89.18C146.69 89.38 147.22 89.58 148.19 90.5C149.16 91.41 149.33 91.81 149.33 93.05C149.33 96.09 146.46 98.56 142.62 98.83C141.45 98.91 139.97 98.82 139.33 98.63ZM169.71 98.6C168.14 98.25 166.04 96.9 164.98 95.55C162.34 92.2 163.08 85.95 166.35 83.78C168.87 82.11 172.22 81.62 176.03 82.34C178.22 82.75 178.49 83.01 178.39 84.57C178.24 86.77 177.44 87.09 176.54 85.31C176.03 84.29 173.87 83.58 171.94 83.79C168.22 84.2 166.47 86.26 166.53 90.16C166.57 92.9 167.8 95 170.12 96.31C171.64 97.16 174.88 97.25 176.37 96.48C177.41 95.95 178.79 96.12 178.58 96.76C178.33 97.5 176.78 98.34 175.04 98.66C172.92 99.06 171.69 99.05 169.71 98.6ZM241.5 98.72C240.62 98.62 240.02 98.19 240.01 97.66C240 97.56 240.43 97.32 240.95 97.12C241.61 96.87 241.95 96.47 242.07 95.8C242.27 94.63 242.13 91.48 241.85 91.02C241.73 90.84 239.91 90.7 237.67 90.7L233.69 90.71L233.51 91.77C233.42 92.36 233.39 93.36 233.46 94C233.52 94.64 233.59 95.5 233.62 95.91C233.65 96.37 234.05 96.85 234.69 97.18C235.52 97.61 235.64 97.8 235.32 98.19C235.03 98.53 234.15 98.67 232.12 98.67C229.79 98.67 229.28 98.57 229.1 98.1C228.97 97.77 229.06 97.48 229.32 97.39C229.55 97.32 230.04 96.96 230.4 96.6C231 96 231.04 95.51 230.98 90.39C230.94 87.33 230.78 84.59 230.63 84.29C230.48 83.99 229.97 83.65 229.51 83.53C229.05 83.42 228.67 83.1 228.67 82.83C228.67 82.23 228.49 82.27 232.08 82.18C235.33 82.11 236.21 82.39 235.19 83.17C234.83 83.44 234.36 83.67 234.14 83.67C233.68 83.67 233.46 84.85 233.48 87.17L233.5 88.83L237.47 88.93C239.66 88.98 241.57 88.89 241.73 88.74C241.97 88.5 242.15 85.89 242.03 84.43C242.01 84.22 241.59 83.84 241.08 83.6C240.58 83.36 240.17 82.93 240.17 82.66C240.17 82.26 240.76 82.16 243.22 82.13C246.62 82.09 247.56 82.38 246.54 83.16C246.19 83.43 245.74 83.7 245.54 83.77C245.02 83.94 244.83 95.72 245.32 96.65C245.53 97.03 245.98 97.33 246.35 97.33C247.09 97.33 247.2 97.76 246.58 98.25C246.12 98.62 243.07 98.9 241.5 98.72ZM254.74 98.66C249.27 97.52 246.43 91.47 248.95 86.27C250.65 82.77 255.82 81.17 261.33 82.45C263.11 82.87 263.17 82.92 263.27 84.09C263.34 84.97 263.18 85.49 262.65 86.01C261.9 86.77 261.48 86.61 261.28 85.5C261 83.98 257.46 83.23 254.89 84.15C252.32 85.07 251.29 86.72 251.24 89.98C251.2 92.26 251.85 93.92 253.36 95.4C254.95 96.96 259.33 97.54 261.25 96.44C262.3 95.84 263.33 96.02 263.33 96.81C263.33 98.09 257.76 99.29 254.74 98.66ZM149.75 98.28C149.15 97.68 149.24 97.33 149.99 97.33C150.99 97.33 151.25 96.44 151.21 93.17C151.16 89.9 150.98 89.33 149.96 89.33C148.68 89.33 149.44 88.26 151.09 87.74C152.43 87.31 152.82 87.3 153.51 87.67C154.15 88.01 154.51 88.02 155.18 87.72C156.36 87.18 158.18 87.24 159.34 87.84C160.91 88.65 161.33 89.87 161.33 93.61C161.33 96.64 161.4 96.96 162.06 97.4C162.48 97.68 162.68 98.04 162.54 98.27C162.21 98.8 159.17 98.78 158.76 98.25C158.58 98.02 158.47 96.27 158.52 94.37C158.6 91.07 158.56 90.86 157.78 90.08C157.12 89.42 156.75 89.3 155.9 89.47C154.08 89.83 153.83 90.35 153.83 93.76C153.83 96.64 153.88 96.85 154.59 97.17C155.01 97.35 155.31 97.72 155.25 98C155.13 98.66 150.37 98.9 149.75 98.28ZM179.43 98.1C179.31 97.79 179.37 97.49 179.56 97.42C179.75 97.36 180.19 97.1 180.54 96.85C181.11 96.43 181.17 95.89 181.19 91.28C181.22 84.71 181.12 84.03 180.09 83.64C178.34 82.97 179.85 81.75 182.67 81.56L183.5 81.5L183.4 88.91L183.29 96.33L184.13 97.11C185.34 98.22 184.71 98.67 181.92 98.67C180.09 98.67 179.6 98.56 179.43 98.1ZM210.2 98.14C210.09 97.85 210 96.5 210 95.14L210 92.67L207.58 92.66C204.81 92.66 204.23 92.41 204.39 91.3C204.49 90.54 204.61 90.5 206.82 90.56C208.1 90.6 209.34 90.47 209.57 90.27C209.85 90.05 210 89.06 210.01 87.54C210.01 84.91 210.28 84.21 211.21 84.39C211.74 84.49 211.86 84.9 212 87.27C212.2 90.54 212.41 90.77 215.03 90.5C216.55 90.35 217.04 90.43 217.67 90.93L218.44 91.56L217.64 92.11C217.08 92.51 216.15 92.67 214.43 92.67L212 92.67L212 95.27C212 97.8 211.7 98.67 210.8 98.67C210.58 98.67 210.31 98.43 210.2 98.14ZM264.33 98.15C264.33 97.87 264.65 97.21 265.04 96.68C265.71 95.78 265.74 95.44 265.6 89.86C265.46 84.24 265.42 83.96 264.71 83.46C264.3 83.17 264.02 82.78 264.08 82.58C264.27 82.03 267.42 81.33 267.92 81.74C268.23 81.99 268.33 83.98 268.33 89.54C268.33 93.64 268.45 97 268.58 97.01C268.72 97.01 269.05 97.15 269.31 97.31C269.71 97.56 269.72 97.71 269.35 98.14C268.73 98.89 264.33 98.9 264.33 98.15ZM363.33 97.73C363.33 97.21 363.7 95.86 364.14 94.73C364.67 93.38 364.81 92.66 364.56 92.66C364.34 92.66 345.15 92.66 321.92 92.67C298.68 92.67 279.3 92.59 278.86 92.48C277.97 92.25 277.58 91.61 277.88 90.83C278.05 90.39 283.16 90.33 321.14 90.33C351.83 90.33 364.3 90.23 364.56 89.97C364.83 89.71 364.71 89.06 364.13 87.64C363.69 86.56 363.33 85.3 363.33 84.84C363.33 83.9 364.02 83.72 364.67 84.5C365.54 85.56 374.18 90.33 375.21 90.33C375.87 90.33 376.38 91.49 375.92 91.95C375.71 92.16 375.36 92.33 375.14 92.33C374.04 92.33 367.04 96.05 365.01 97.72C363.56 98.9 363.33 98.9 363.33 97.73ZM12.75 76.45C12.52 76.35 12.33 75.91 12.33 75.47C12.33 74.62 12.14 74.73 24.5 68.86C26.15 68.08 29.45 66.49 31.83 65.34C41.06 60.87 42.95 60 43.46 60C43.74 60 44.14 60.3 44.33 60.66C44.61 61.18 44.54 61.46 44.01 61.99C43.64 62.36 43.18 62.67 42.98 62.67C42.79 62.67 40.28 63.81 37.4 65.21C34.52 66.61 30.59 68.5 28.67 69.41C21.34 72.89 17.43 74.76 15.53 75.7C13.48 76.71 13.43 76.72 12.75 76.45ZM44.17 23.36C38.58 22.34 35.37 17.57 36.86 12.47C37.68 9.64 39.47 7.85 42.36 6.97C44.39 6.35 44.94 6.32 47.48 6.63C49.05 6.82 50.63 7.14 51 7.33C52.16 7.95 51.73 11.33 50.49 11.33C50.22 11.33 50 11.05 50 10.7C50 9.28 48.93 8.6 46.45 8.42C42.22 8.12 40.03 9.92 39.76 13.92C39.62 15.92 39.71 16.37 40.57 18C41.83 20.41 43.6 21.44 46.49 21.48C47.82 21.49 49.01 21.28 49.94 20.86C51.68 20.08 52.34 20.47 51.37 21.72C50.35 23.01 46.75 23.82 44.17 23.36ZM52.67 22.82C52.67 22.53 53.05 21.97 53.51 21.57C54.34 20.85 54.36 20.71 54.46 15.83C54.59 9.31 54.49 8.69 53.28 8.27C52.74 8.08 52.33 7.69 52.33 7.37C52.33 6.89 52.69 6.81 54.61 6.82L56.9 6.83L61.76 12.91C64.44 16.26 66.72 18.85 66.84 18.66C66.95 18.48 67.04 16.19 67.05 13.58L67.06 8.83L66.2 8.4C65.72 8.16 65.33 7.69 65.33 7.35C65.33 6.81 65.61 6.75 67.84 6.82C69.22 6.87 70.45 7.01 70.59 7.14C70.72 7.28 70.41 7.7 69.89 8.07L68.95 8.76L69.06 15.5C69.17 22.71 69.05 23.33 67.53 23.33C66.62 23.33 65.42 22.07 60.69 16.08C58.62 13.47 56.79 11.33 56.63 11.33C56.47 11.33 56.33 13.51 56.33 16.17C56.33 20.56 56.39 21.06 57 21.67C57.37 22.03 57.84 22.33 58.04 22.33C58.3 22.33 58.29 22.49 58 22.83C57.39 23.57 52.67 23.55 52.67 22.82Z" fill="#1e2749" fill-rule="evenodd"/>
</svg>
