<?xml version="1.0" encoding="UTF-8"?>
<svg xmlns="http://www.w3.org/2000/svg" viewBox="0 0 415 326" width="415" height="326" shape-rendering="geometricPrecision">
<path d="M82.6 318.82C81.34 318.13 79.39 315.49 79.14 314.13C78.72 311.91 81.36 308 83.27 308C85.14 308 85.91 306.89 85.27 305.12C84.89 304.05 84.91 303.89 85.49 303.47C85.84 303.21 86.51 303 86.98 303.01C88.79 303.02 88.82 303.12 89.04 310.4C89.27 318.25 89.21 318.44 86.4 318.77C85.54 318.87 84.53 319.03 84.17 319.14C83.8 319.24 83.09 319.1 82.6 318.82ZM115.46 318.84C114.09 318.26 112.41 316.23 112.15 314.84C112.02 314.19 112.02 312.85 112.15 311.87C112.34 310.3 112.54 309.95 113.72 309C114.83 308.1 115.37 307.91 116.85 307.88C118.46 307.84 118.74 307.95 119.83 309C120.79 309.93 120.99 310.33 120.82 311C120.41 312.65 119.7 313.06 117.51 312.94C115.63 312.84 115.49 312.88 115.39 313.6C115.21 314.88 115.89 315.33 118.01 315.33C120.59 315.33 120.83 315.95 118.95 317.68C117.29 319.2 116.74 319.38 115.46 318.84ZM133.67 318.96C133.21 318.78 132.5 318.32 132.1 317.94C131.41 317.29 131.4 317.18 131.86 316.29C132.44 315.15 133.25 315.08 134.48 316.04C135.3 316.69 135.43 316.71 135.91 316.24C136.38 315.76 136.34 315.66 135.44 315.11C132.66 313.4 131.58 311.91 131.91 310.21C132.14 308.98 133.24 308.33 135.43 308.1C136.99 307.94 137.35 308.02 137.96 308.62C138.78 309.45 138.86 310.09 138.2 310.64C137.84 310.93 137.47 310.86 136.52 310.3C135.85 309.91 135.22 309.67 135.11 309.78C134.66 310.23 135.39 311.62 136.25 311.93C137.92 312.55 139.33 314.16 139.33 315.47C139.33 316.49 139.1 316.83 137.64 317.99C135.91 319.36 135.14 319.55 133.67 318.96ZM148.22 318.15C146.25 316.65 145.67 315.51 145.67 313.17C145.67 309.78 147.35 308 150.57 308C152.8 308 153.61 308.4 154.79 310.05C156.22 312.04 156.34 313.97 155.16 315.68C154.07 317.25 151.37 319.33 150.42 319.33C150.06 319.33 149.07 318.8 148.22 318.15ZM167.86 318.63C166.33 318.01 166.15 318 164.91 318.5C163.75 318.96 163.5 318.97 162.85 318.54C162.14 318.08 162.11 317.89 162.26 314.6C162.39 311.71 162.33 311.08 161.88 310.7C160.7 309.72 160.36 310.45 160.26 314.2C160.17 317.64 160.14 317.79 159.26 318.44C158.55 318.97 158.2 319.04 157.6 318.77C156.87 318.45 156.83 318.26 156.77 314.3C156.74 312.03 156.67 309.72 156.61 309.17C156.5 308.18 156.52 308.17 158.17 308.14C159.08 308.13 160.46 308.01 161.22 307.87C164.02 307.36 165.49 309.15 165.9 313.56L166.1 315.68L167.14 315.48C167.91 315.34 168.42 315.47 169.1 316.01C169.61 316.41 170.24 316.65 170.51 316.54C171.31 316.24 171.07 315.34 170.08 314.97C169.58 314.78 168.6 314.08 167.92 313.41C166.9 312.43 166.67 311.96 166.67 310.93C166.67 309.19 167.51 308.44 169.81 308.16C171.75 307.91 173.33 308.49 173.33 309.44C173.33 310.56 171.74 311.06 171 310.17C170.43 309.47 169.67 309.54 169.67 310.28C169.67 310.93 170.64 312 171.23 312C171.91 312 173.42 313.46 173.88 314.56C174.47 315.97 174.17 316.59 172.11 318.16C170.34 319.51 170.09 319.54 167.86 318.63ZM181.59 318.81C179.74 317.81 179.11 315.13 180.36 313.55C180.96 312.77 181 312.54 180.64 311.55C179.74 309.06 181.29 307.75 184.77 308.09C187.35 308.33 188 309.26 188.02 312.77C188.02 314.29 188.23 315.94 188.47 316.5L188.92 317.5L189.32 316.5C189.58 315.86 189.69 314.19 189.61 311.83L189.5 308.17L192.44 308.09C195.25 308.02 195.42 308.06 196.21 308.91L197.04 309.81L198.65 308.91C200.82 307.69 202.42 307.7 203.68 308.96C204.77 310.05 205.25 311.53 204.76 312.3C204.52 312.7 203.78 312.86 201.88 312.93C199.68 313.01 199.33 313.11 199.33 313.63C199.33 314.78 200.48 315.41 202.36 315.28C203.57 315.2 204.15 315.3 204.25 315.6C204.43 316.13 201.29 319.33 200.6 319.33C199.84 319.33 198.02 317.98 196.91 316.6C196.16 315.68 195.86 314.89 195.71 313.44C195.51 311.56 195.47 311.5 194.46 311.4C193.11 311.27 193 311.61 193.29 314.98C193.52 317.62 193.5 317.75 192.72 318.36C192.27 318.71 191.8 319 191.67 319C191.06 319 189.33 318.24 189.33 317.97C189.33 317.47 188.69 317.63 187.67 318.38C186.75 319.06 186.66 319.07 185.86 318.55C184.78 317.84 184.48 317.86 183.67 318.67C182.88 319.45 182.78 319.46 181.59 318.81ZM47.31 318.47C47.02 318.13 46.98 317.8 47.19 317.52C47.49 317.11 47.86 316.56 49.55 313.98C49.98 313.33 50.33 312.55 50.33 312.26C50.33 311.96 50.85 310.72 51.49 309.5C52.12 308.28 52.84 306.59 53.08 305.73C53.42 304.51 53.69 304.14 54.3 304.06C55.37 303.9 56.94 305.48 57.2 306.98C57.32 307.63 57.68 308.62 58 309.17C58.32 309.72 58.77 310.77 59 311.5C59.23 312.23 59.53 312.98 59.67 313.17C59.81 313.35 60.31 314.47 60.8 315.67L61.67 317.83L60.96 318.42C60.17 319.08 59.43 319.15 58.19 318.67C57.47 318.4 57.33 318.14 57.33 317.03C57.33 315.03 56.72 314.62 53.88 314.74L51.5 314.83L51.5 316.28C51.5 317.39 51.32 317.87 50.71 318.36C49.76 319.14 47.91 319.2 47.31 318.47ZM64.67 318.57L63.83 318.14L63.96 312.76C64.07 308.15 64 307.14 63.47 305.66C62.86 303.97 62.86 303.93 63.49 303.47C64.36 302.83 65.78 302.88 66.63 303.58C67.29 304.14 67.33 304.49 67.36 310.99C67.38 317.63 67.36 317.84 66.66 318.41C65.79 319.11 65.74 319.11 64.67 318.57ZM70.39 318.42C69.75 317.87 69.71 317.4 69.6 310.57L69.49 303.31L70.27 303.11C70.7 303 71.4 303.07 71.82 303.27C72.58 303.62 72.59 303.68 72.74 310.89C72.87 317.12 72.81 318.23 72.38 318.58C71.69 319.15 71.2 319.11 70.39 318.42ZM91.75 318.66C91.02 318.36 91 318.24 91 313.18L91 308L92.02 308C92.63 308 93.33 308.3 93.8 308.77C94.54 309.51 94.57 309.76 94.51 313.66C94.46 317.5 94.4 317.81 93.69 318.38C92.84 319.07 92.8 319.08 91.75 318.66ZM96.67 318.7C96.26 318.45 96.17 317.48 96.19 313.28L96.2 308.17L98.19 308.1C99.27 308.07 100.67 307.93 101.28 307.81C102.13 307.64 102.61 307.75 103.35 308.29C104.54 309.17 104.71 309.17 105.46 308.29C106.28 307.34 108.42 307.6 109.63 308.81C110.43 309.61 110.5 309.94 110.7 313.92C110.89 317.61 110.85 318.22 110.38 318.6C109.77 319.09 108.01 318.88 107.64 318.29C107.51 318.08 107.49 316.4 107.58 314.54C107.73 311.71 107.67 311.08 107.23 310.72C106.94 310.48 106.43 310.33 106.1 310.39C105.57 310.5 105.5 310.93 105.47 314.09C105.44 317.04 105.33 317.79 104.83 318.33C104.11 319.13 103.4 319.18 102.42 318.49C101.73 318.01 101.69 317.75 101.76 314.31C101.83 310.59 101.66 310.02 100.45 310.01C99.89 310 99.56 312.98 99.83 315.61C100 317.37 99.95 317.96 99.58 318.27C98.91 318.82 97.26 319.07 96.67 318.7ZM122.67 318.75C122.39 318.65 122.09 318.45 122 318.31C121.9 318.17 121.83 315.83 121.84 313.11L121.86 308.17L123.68 308.16C124.68 308.16 126.03 308.04 126.67 307.89C129.55 307.23 130.64 308.9 130.86 314.33C131 317.79 130.97 317.98 130.26 318.48C129.25 319.18 128.22 319.13 127.51 318.34C126.99 317.77 126.96 317.49 127.29 316.2C127.98 313.45 127.62 310.88 126.47 310.44C125.59 310.1 125.34 310.98 125.34 314.54C125.33 316.84 125.2 318.03 124.92 318.25C124.32 318.73 123.25 318.97 122.67 318.75ZM141.59 318.58C141.14 318.24 141.03 317.3 140.94 313.17L140.84 308.17L141.83 308.08C143.69 307.92 143.81 308.22 144.04 313.24C144.21 317.08 144.16 317.93 143.74 318.42C143.14 319.1 142.34 319.16 141.59 318.58ZM212.02 318.52C211.76 318.21 211.6 316.35 211.56 313.11L211.5 308.17L212.63 308.17C214.55 308.17 214.95 309.12 215.06 313.99C215.15 318.13 215.14 318.16 214.32 318.57C213.24 319.12 212.5 319.11 212.02 318.52ZM217.69 318.58C216.89 318.17 216.88 318.13 216.88 313.17L216.89 308.17L218.53 308.13C219.43 308.11 220.73 307.98 221.41 307.84C222.88 307.53 224.42 308.07 225.1 309.12C225.4 309.58 225.64 311.3 225.77 313.92C225.96 317.93 225.95 318.02 225.2 318.51C224.61 318.89 224.21 318.94 223.54 318.68C222.67 318.35 222.67 318.32 222.67 314.87C222.67 310.83 222.54 310.33 221.48 310.33C220.82 310.33 220.68 310.55 220.48 311.87C220.35 312.71 220.34 314.35 220.46 315.5C220.67 317.5 220.64 317.64 219.79 318.3C218.76 319.12 218.75 319.12 217.69 318.58ZM232.95 318.47C232.52 318.04 232.45 317.4 232.59 315.02C232.69 313.22 232.59 311.41 232.33 310.34C231.82 308.18 232.03 307.98 234.83 308.03C235.93 308.05 237.32 307.96 237.91 307.83C238.79 307.64 239.17 307.75 240.06 308.5L241.14 309.41L241.83 308.54C242.79 307.33 244.32 307.37 245.73 308.63C246.79 309.58 246.81 309.64 247 313.28C247.1 315.3 247.3 317.08 247.43 317.21C247.57 317.35 247.9 317.24 248.16 316.98C248.7 316.44 248.92 311.67 248.51 309.58C248.23 308.21 248.05 308.32 250.83 308.16C251.57 308.12 252.81 307.97 253.6 307.83C254.82 307.61 255.2 307.69 256.05 308.32L257.06 309.06L257.8 308.36C258.21 307.98 258.99 307.67 259.54 307.67C260.54 307.67 262.57 308.91 263.1 309.85C263.54 310.64 263.76 317.21 263.36 317.95C262.93 318.75 261.53 319.13 260.68 318.67C260.09 318.36 260.05 318.05 260.24 314.84C260.45 311.06 260.22 310.33 258.83 310.33C257.83 310.33 257.6 311.31 257.71 315.06C257.76 316.81 257.65 318.15 257.44 318.36C257.25 318.55 256.51 318.66 255.79 318.61L254.5 318.5L254.5 314.5L254.5 310.5L253.59 310.4C252.49 310.27 252.37 310.66 252.25 314.8C252.17 317.53 252.1 317.81 251.33 318.38C250.63 318.9 250.31 318.94 249.22 318.64C248.28 318.38 247.49 318.39 246.29 318.68C243.79 319.28 243.59 318.98 243.87 315.01C244.02 312.81 243.96 311.56 243.7 311.07C243.27 310.25 242.06 309.5 241.72 309.83C241.6 309.96 241.5 311.88 241.5 314.1C241.5 318.13 241.5 318.14 240.61 318.64C239.9 319.04 239.56 319.06 238.86 318.74L238 318.35L238.2 315.09C238.42 311.49 238.09 310 237.05 310C236.27 310 235.94 311.71 236.04 315.34C236.09 317.51 236.01 317.85 235.34 318.39C234.42 319.14 233.64 319.17 232.95 318.47ZM265.73 318.6C265.51 318.38 265.33 317.74 265.33 317.17C265.33 315.91 265.85 315.33 267 315.33C267.92 315.33 268.67 315.87 268.67 316.54C268.67 317.11 267.03 319 266.54 319C266.31 319 265.95 318.82 265.73 318.6ZM151.82 315.68C152.1 315.14 152.33 314.08 152.33 313.33C152.33 311.32 151.55 310 150.34 310C149.5 310 149.32 310.17 149.02 311.25C148.55 312.95 148.56 313.14 149.37 315.02C150.2 316.95 151.05 317.18 151.82 315.68ZM85.53 313.24C85.64 311.46 85.54 310.92 85.02 310.28C84.5 309.65 84.26 309.57 83.77 309.87C83.31 310.15 83.14 310.74 83.07 312.39C82.99 314.19 83.09 314.69 83.7 315.46C84.34 316.27 84.48 316.33 84.91 315.9C85.21 315.6 85.45 314.55 85.53 313.24ZM184.27 315.93C184.49 315.71 184.67 315.25 184.67 314.91C184.67 313.89 183.52 314.35 183.39 315.42C183.28 316.39 183.61 316.59 184.27 315.93ZM54.97 311.87C55.4 311.35 55.14 309.79 54.58 309.44C54.13 309.17 53 310.54 53 311.34C53 312.3 54.32 312.65 54.97 311.87ZM184.33 311.5C184.83 310.9 184.54 310 183.86 310C183.36 310 182.67 310.96 182.67 311.64C182.67 312.17 183.86 312.07 184.33 311.5ZM116.5 310.33C116.5 310.06 116.24 309.79 115.92 309.73C115.51 309.65 115.33 309.83 115.33 310.33C115.33 310.84 115.51 311.02 115.92 310.94C116.24 310.87 116.5 310.6 116.5 310.33ZM200.63 309.79C200.26 309.34 199.33 309.15 199.33 309.52C199.33 309.63 199.49 310.01 199.69 310.38C199.98 310.91 200.14 310.96 200.53 310.64C200.89 310.34 200.92 310.13 200.63 309.79ZM91.35 305.2C90.83 303.85 91.26 303 92.47 303C94.26 303 94.94 304.34 93.72 305.45C92.82 306.26 91.71 306.15 91.35 305.2ZM141.35 305.52C141.13 305.26 141 304.62 141.06 304.1C141.26 302.39 144 302.74 144 304.47C144 305.87 142.23 306.57 141.35 305.52ZM212.41 305.78C211.66 305.47 211.28 304.39 211.67 303.67C212.07 302.91 213.94 302.74 214.6 303.4C215.8 304.6 214.09 306.45 212.41 305.78ZM128.67 296.34C124.94 296.21 123.17 296 122.33 295.61C121.43 295.2 119.58 295.03 114.17 294.87C107.65 294.68 101.93 294.2 101.26 293.79C101.1 293.69 96.31 293.47 90.61 293.3C84.91 293.13 77.83 292.77 74.87 292.5C63.66 291.47 47 292.3 43.53 294.07L42.2 294.75L41.6 294C41.02 293.29 41 288.25 41 167.32L41 41.38L42.17 40.42C44.03 38.88 47.03 38.37 56.21 38.01C64.3 37.69 76.29 37.98 83.17 38.66C85 38.84 90.62 39.14 95.67 39.33C100.71 39.52 105.81 39.82 107 40C108.19 40.18 111.83 40.46 115.07 40.63C120.29 40.9 121.09 41.02 121.87 41.64C122.36 42.02 123.09 42.33 123.49 42.33C123.9 42.33 124.96 42.55 125.86 42.82C127.87 43.43 144.05 43.57 148.17 43.02C149.63 42.82 153.68 42.52 157.17 42.34C160.65 42.17 164.77 41.81 166.33 41.54C167.89 41.28 171.13 40.97 173.54 40.86C176.04 40.75 178.51 40.46 179.31 40.17C180.08 39.9 181.71 39.6 182.94 39.5C186.76 39.18 196.44 37.96 197.73 37.63C198.78 37.36 199.19 36.95 200.52 34.83C202.1 32.28 202.64 31.94 204 32.67C204.49 32.93 205.02 32.73 206.56 31.71C209.85 29.52 212.11 28.12 213.5 27.41C214.23 27.03 216.33 25.72 218.17 24.49C221.71 22.12 224.1 21.35 224.52 22.43C224.92 23.48 223.81 24.54 219.83 26.9C218.57 27.65 211.83 31.76 209 33.5C206.33 35.15 206.17 35.32 206.17 36.4C206.17 38.13 205.54 38.67 203.54 38.67C202.6 38.67 201.63 38.8 201.39 38.96C201.03 39.19 200.95 45.52 200.98 74.49C201.01 96.93 201.14 109.97 201.35 110.36C201.7 111.02 204.52 112 206.05 112C207.02 112 213.21 113.32 216.17 114.15C217.08 114.41 219.03 114.79 220.5 115C221.97 115.2 223.84 115.57 224.67 115.82C225.49 116.07 226.89 116.36 227.78 116.47C228.67 116.58 230.13 116.92 231.03 117.24C232.58 117.79 232.69 117.79 233.24 117.24C233.57 116.92 234.21 115.95 234.67 115.08C235.6 113.34 236.63 112.9 237.65 113.82C238.29 114.4 237.62 114.86 248.17 106.51C252.46 103.1 255.6 100.66 256.68 99.86C257.77 99.06 263.37 94.7 265.5 93C266.31 92.36 268.08 90.98 269.44 89.93C270.8 88.88 272.8 87.27 273.87 86.34C275.53 84.92 276.02 84.67 277 84.74C277.99 84.82 278.18 84.97 278.27 85.72C278.36 86.48 278.01 86.87 275.77 88.54C273.13 90.52 266.14 96.01 262.5 98.99C260.55 100.57 259.41 101.48 250 108.83C239.57 116.97 240.3 116.29 240.53 117.64C240.8 119.17 241.32 119.56 243.44 119.82C244.39 119.93 245.92 120.23 246.83 120.49C249.83 121.35 254.45 122.34 256.83 122.64C258.12 122.8 259.69 123.16 260.33 123.43C260.97 123.69 262.39 124.01 263.47 124.13C264.55 124.25 266.57 124.65 267.95 125.01C269.33 125.37 270.92 125.67 271.48 125.67C272.04 125.67 273.25 125.95 274.17 126.3C275.08 126.65 276.88 127.04 278.17 127.17C279.45 127.3 281.32 127.69 282.32 128.04C283.32 128.38 284.62 128.67 285.2 128.67C285.78 128.67 286.87 128.89 287.64 129.16C288.4 129.42 290.33 129.81 291.93 130.02C293.53 130.23 295.54 130.68 296.4 131.03C297.25 131.38 298.41 131.67 298.97 131.67C299.52 131.67 301.22 131.95 302.74 132.3C304.26 132.64 306.23 133.03 307.11 133.15C308 133.28 309.35 133.6 310.11 133.87C310.88 134.14 312.62 134.52 313.99 134.71C315.36 134.9 316.78 135.21 317.13 135.4C317.49 135.6 318.62 135.86 319.64 136C320.66 136.13 322.92 136.55 324.67 136.93C326.41 137.31 328.57 137.71 329.46 137.84C330.36 137.96 331.56 138.25 332.13 138.5C332.7 138.74 334.29 139.12 335.67 139.34C337.04 139.56 338.83 139.95 339.64 140.2C340.45 140.46 341.61 140.67 342.21 140.67C342.82 140.67 343.95 140.89 344.74 141.15C345.53 141.42 347.6 141.88 349.33 142.18C351.07 142.48 352.89 142.94 353.39 143.2C353.89 143.46 354.89 143.67 355.61 143.67C356.33 143.67 357.65 143.88 358.55 144.14C360.95 144.84 363.57 145.33 364.88 145.33C365.52 145.33 366.75 145.62 367.6 145.97C368.46 146.32 370.37 146.79 371.83 147C375.27 147.51 376.62 148.15 377.21 149.55C377.58 150.44 377.67 154.6 377.67 171.84L377.67 193.03L376.39 194.39L375.12 195.75L370.81 196.26C368.44 196.53 365.52 197 364.33 197.3L362.17 197.84L362.17 206.29L362.17 214.75L363.3 215.12C364.89 215.65 365.31 216.43 364.62 217.59C364.32 218.09 363.45 219.72 362.69 221.22C361.93 222.72 361.09 224.12 360.83 224.33C360.02 225 359.02 224.35 358.11 222.56C357.63 221.61 356.74 220.04 356.12 219.08C354.92 217.19 354.66 215.53 355.53 215.2C355.82 215.09 356.47 215 356.99 215C358.65 215 358.71 214.67 358.6 206.51C358.49 198.47 358.41 198.08 356.83 198.5C354.86 199.03 350.99 199.67 349.79 199.67C349.04 199.67 347.84 199.87 347.13 200.12C346.41 200.37 344.26 200.76 342.33 200.98C340.41 201.21 337.61 201.68 336.12 202.03C334.63 202.38 332.85 202.67 332.17 202.67C331.49 202.67 330.08 202.88 329.05 203.13C328.01 203.39 325.52 203.77 323.5 203.98C321.48 204.2 319.08 204.57 318.17 204.82C316 205.4 307.91 206.7 304.5 207.02C303.03 207.15 301.39 207.44 300.85 207.65C300.31 207.86 297.99 208.25 295.7 208.52C293.4 208.79 290.77 209.22 289.85 209.49C288.92 209.75 286.89 210.13 285.33 210.33C283.77 210.54 281.6 210.85 280.5 211.03C279.4 211.2 277.3 211.47 275.83 211.64C274.37 211.8 272.51 212.17 271.71 212.46C270.91 212.76 269.68 213 268.98 213C268.28 213 265.68 213.38 263.2 213.83C260.72 214.29 258.1 214.67 257.39 214.67C256.67 214.67 255.46 214.89 254.71 215.15C253.95 215.42 251.72 215.81 249.76 216.02C247.8 216.23 245.44 216.62 244.51 216.88C243.59 217.14 241.57 217.5 240.03 217.68C238.5 217.86 236.7 218.14 236.03 218.31C235.37 218.48 233.33 218.79 231.5 219C229.67 219.2 227.34 219.61 226.33 219.9C225.32 220.19 222.85 220.62 220.83 220.85C218.82 221.09 216.04 221.5 214.67 221.78C211.84 222.33 209.32 222.76 204.51 223.5C202.69 223.79 201.11 224.16 201 224.33C200.89 224.51 200.83 225.59 200.86 226.74C200.89 227.89 200.93 232.25 200.95 236.42L201 244L201.79 244C202.22 244 202.96 243.7 203.42 243.33C203.9 242.96 204.78 242.67 205.42 242.67C206.14 242.67 206.79 242.91 207.17 243.33C207.77 244 208.19 244 279.3 244C350.12 244 350.84 243.99 351.83 243.33C352.38 242.97 353.36 242.67 354 242.67C354.64 242.67 355.62 242.97 356.17 243.33C357.29 244.08 358.5 244.2 358.87 243.6C359.01 243.38 359.08 241.09 359.04 238.52C358.99 235.94 359.06 233.57 359.18 233.25C359.52 232.37 360.95 232.5 361.31 233.44C361.47 233.86 361.61 240.09 361.62 247.27L361.64 260.33L360.88 261.21C360.17 262.04 360.1 262.05 359.55 261.5C359.03 260.98 358.97 260.22 359.02 254.66C359.05 251.22 358.98 248.23 358.85 248.03C358.47 247.42 357.16 247.62 355.87 248.5C354.03 249.75 352.33 249.49 352.33 247.96C352.33 247.64 352.1 247.15 351.81 246.86C351.34 246.38 344.3 246.33 279.35 246.33L207.41 246.33L207.19 247.5C207.06 248.21 206.65 248.88 206.16 249.2C205.39 249.71 205.26 249.69 203.86 248.87C203.05 248.39 202.07 248 201.69 248L201 248L201 268.25C200.99 283.71 200.89 288.7 200.58 289.33C199.9 290.7 198.03 291.36 193.91 291.71C191.85 291.88 188.91 292.26 187.37 292.54C185.82 292.83 182.6 293.19 180.2 293.34C177.71 293.5 175.21 293.85 174.38 294.15C173.37 294.53 170.9 294.79 166.38 295C162.78 295.17 159.01 295.46 158 295.66C153.92 296.45 140.26 296.77 128.67 296.34ZM156 293.46C157.56 293.19 161.99 292.84 165.86 292.66C170.9 292.44 173.24 292.2 174.14 291.82C174.87 291.52 177.22 291.17 179.78 290.99C184.2 290.68 191.22 289.65 191.94 289.2C192.22 289.03 192.33 287.11 192.33 282.63C192.33 278.9 192.48 276.02 192.68 275.64C193.09 274.88 193.95 274.81 194.85 275.47C195.45 275.91 195.5 276.41 195.52 282.31C195.53 289.14 195.76 290.18 196.89 288.47C197.57 287.42 197.58 287.22 197.42 261.42L197.33 248L196.51 248C196.06 248 195 248.33 194.16 248.74C192.4 249.59 191.57 249.33 191.39 247.88C191.34 247.4 191 246.85 190.65 246.66C190.26 246.45 187.23 246.35 182.76 246.41L175.5 246.5L175.39 247.33C175.24 248.43 174.4 249.33 173.53 249.33C173.15 249.33 172.33 249.02 171.71 248.65C171.09 248.27 170.19 248.01 169.71 248.06L168.83 248.17L168.95 253.83C169.06 259.66 168.84 261.16 167.79 261.56C166.57 262.03 166.33 260.86 166.33 254.27L166.33 248L165.29 248C164.72 248 163.78 248.28 163.21 248.63C161.57 249.62 160.8 249.75 160.2 249.15C159.91 248.86 159.67 248.26 159.67 247.82C159.67 247.37 159.38 246.87 159.02 246.68C158.33 246.31 129.81 246.17 128.86 246.54C128.57 246.65 128.33 247.05 128.33 247.43C128.33 248.34 127.4 249.33 126.53 249.33C126.15 249.33 125.38 249.03 124.83 248.67C123.72 247.93 122.01 247.78 121.98 248.42C121.97 248.65 121.98 251.39 122 254.51C122.04 259.92 122 260.24 121.29 261.14L120.55 262.09L119.92 261.31C119.35 260.61 119.29 259.97 119.34 254.68C119.36 251.47 119.38 248.66 119.36 248.44C119.3 247.59 117.98 247.62 116.48 248.5C114.51 249.65 113.62 249.51 113.2 248C113.02 247.36 112.72 246.72 112.52 246.59C112.1 246.3 82.62 246.24 81.86 246.54C81.57 246.65 81.33 247.05 81.33 247.43C81.33 248.34 80.4 249.33 79.53 249.33C79.15 249.33 78.38 249.03 77.83 248.67C77.28 248.3 76.42 248 75.92 248L75 248L75 254.28C75 260.1 74.95 260.61 74.35 261.16C73.59 261.84 72.69 261.63 72.62 260.76C72.6 260.43 72.56 257.47 72.54 254.17L72.5 248.17L71.41 248.06C70.72 247.99 69.98 248.2 69.36 248.65C67.5 249.97 65.67 249.33 65.67 247.36C65.67 246.93 65.39 246.61 64.92 246.5C64.5 246.39 60.94 246.35 57 246.41L49.83 246.5L49.73 247.6C49.57 249.21 48.43 249.65 46.9 248.71C46.27 248.32 45.36 248 44.89 248L44.02 248L44.02 268.88C44.03 282.45 44.15 289.99 44.37 290.4C44.56 290.75 44.95 290.99 45.25 290.94C45.73 290.84 45.78 290.02 45.7 283.5C45.66 279.47 45.72 275.9 45.85 275.58C46.16 274.76 47.53 274.86 48.15 275.74C48.58 276.35 48.67 277.66 48.67 283.22C48.67 289.7 48.69 289.96 49.34 290.17C49.72 290.29 52.31 290.2 55.09 289.98C60.6 289.54 73.55 289.73 78.17 290.32C79.63 290.5 85.33 290.81 90.83 290.99C96.97 291.19 101.99 291.52 103.83 291.84C105.77 292.18 109.47 292.41 114.25 292.48C120.82 292.58 121.78 292.67 122.59 293.21C123.39 293.76 124.45 293.86 131.5 294.02C142.3 294.27 152.56 294.04 156 293.46ZM275.65 280.76C275.64 280.62 275.6 278.08 275.56 275.12L275.5 269.73L278 269.59C280.95 269.43 281.52 269.54 280.97 270.21C280.73 270.49 279.91 270.67 278.79 270.67L277 270.67L277 272.34C277 273.83 277.09 274.05 277.85 274.34C278.32 274.52 279.18 274.63 279.77 274.58C280.53 274.52 280.83 274.64 280.83 275C280.83 275.37 280.35 275.53 278.92 275.6L277 275.7L277 277.28C277 278.15 277.18 279.05 277.4 279.27C277.63 279.49 278.72 279.67 279.92 279.67C281.77 279.67 282.03 279.74 281.94 280.25C281.84 280.75 281.37 280.85 278.75 280.93C277.05 280.98 275.66 280.91 275.65 280.76ZM284 280.66C284 280.47 284.52 279.55 285.17 278.62C285.81 277.69 286.33 276.81 286.33 276.67C286.33 276.52 285.81 275.64 285.17 274.71C284.52 273.78 284 272.94 284 272.84C284 272.75 284.42 272.67 284.94 272.67C285.72 272.67 286.01 272.92 286.63 274.17C287.04 274.99 287.5 275.67 287.65 275.67C288 275.67 289.67 273.48 289.67 273.02C289.67 272.83 290.12 272.67 290.67 272.67L291.68 272.67L290.51 274.37C289.86 275.31 289.33 276.29 289.33 276.55C289.33 276.82 289.85 277.84 290.48 278.82C291.67 280.68 291.68 281.01 290.53 280.98C290.05 280.97 289.62 280.53 289.15 279.57C288.19 277.62 287.4 277.59 286.26 279.49C285.66 280.48 285.12 281 284.67 281C284.3 281 284 280.85 284 280.66ZM294.42 280.25C293.51 279.29 293.45 277.97 294.27 277.22C294.61 276.92 295.68 276.52 296.66 276.34C298.55 275.98 299.33 275.53 299.33 274.8C299.33 274.08 298.07 273.61 296.39 273.72C295.2 273.79 294.83 273.7 294.83 273.32C294.83 272.95 295.36 272.81 296.96 272.73C298.9 272.64 299.18 272.72 300.05 273.55C300.96 274.42 301 274.58 301 277.57C301 280.05 300.9 280.73 300.5 280.88C300.22 280.99 299.77 280.89 299.5 280.67C299.21 280.42 298.6 280.34 298 280.46C297.45 280.57 296.59 280.75 296.08 280.86C295.39 281 294.98 280.86 294.42 280.25ZM304.65 280.94C304.63 280.88 304.6 279 304.56 276.75C304.5 272.95 304.54 272.67 305.13 272.67C305.48 272.67 305.94 272.92 306.16 273.22C306.54 273.74 306.62 273.74 307.36 273.22C308.48 272.44 310.38 272.5 311.11 273.35L311.69 274.04L312.8 273.35C314.32 272.41 316.17 272.44 316.8 273.42C317.33 274.23 317.65 279.88 317.21 280.59C317.07 280.82 316.67 281 316.31 281C315.72 281 315.67 280.75 315.67 277.87C315.67 274.3 315.43 273.9 313.44 274.06L312.17 274.17L312.07 277.15C311.97 280.17 311.64 281.11 310.72 280.93C310.32 280.85 310.2 280.28 310.16 278.33C310.14 276.96 309.94 275.42 309.73 274.92C309.41 274.14 309.15 274 308.05 274C307.33 274 306.59 274.2 306.39 274.43C306.19 274.67 305.98 276.21 305.93 277.85C305.85 280.37 305.74 280.84 305.25 280.94C304.93 281 304.66 281 304.65 280.94ZM320.89 280.78C320.77 280.66 320.67 280.31 320.67 280.01C320.67 279.55 320.99 279.49 322.8 279.6C324.8 279.73 324.97 279.68 325.5 278.89C326.36 277.57 325.88 276.8 323.45 275.59C322.25 275 321.13 274.24 320.95 273.91C320.78 273.58 320.68 272.6 320.73 271.74C320.82 270.37 320.96 270.11 321.83 269.69C323.22 269.03 326.2 268.81 326.83 269.33C327.73 270.08 327.36 270.36 325.75 270.17C323.77 269.93 322.54 270.5 322.4 271.74C322.31 272.46 322.56 272.83 323.7 273.65C324.47 274.21 325.27 274.67 325.48 274.67C325.7 274.67 326.35 275.16 326.93 275.77C328.4 277.28 328.33 278.29 326.67 279.79C325.43 280.91 325.18 281 323.22 281C322.06 281 321.01 280.9 320.89 280.78ZM330.89 280.78C330.77 280.66 330.67 278.77 330.67 276.59L330.67 272.62L331.52 272.73L332.37 272.83L332.4 276.55C332.41 278.59 332.32 280.43 332.19 280.63C331.94 281.04 331.23 281.12 330.89 280.78ZM336.56 280.07C335.76 279.23 335.67 278.88 335.67 276.79C335.67 274.64 335.74 274.38 336.65 273.52C337.54 272.66 337.77 272.6 339.23 272.81C342.43 273.26 342.17 273.43 342.12 270.92L342.06 268.67L343.03 268.67L344 268.67L344 274.46C344 281.03 343.84 281.53 342.04 280.47C341.12 279.92 341 279.92 340.21 280.44C338.92 281.28 337.6 281.15 336.56 280.07ZM347.84 279.97C346.72 278.98 346.67 278.83 346.67 276.77C346.67 274.83 346.76 274.52 347.64 273.64C348.46 272.82 348.88 272.67 350.28 272.67C351.7 272.67 352.1 272.82 352.99 273.71C353.79 274.51 354.01 274.99 353.93 275.79L353.83 276.83L351.08 276.93C348.48 277.02 348.33 277.07 348.33 277.78C348.33 279.27 349.12 279.83 351.14 279.82C352.16 279.81 353 279.89 353 280C353 280.59 352.02 281 350.61 281C349.31 281 348.81 280.81 347.84 279.97ZM356.67 280.17C356.67 279.56 356.85 279.33 357.31 279.33C358.16 279.33 358.49 279.91 357.99 280.51C357.36 281.28 356.67 281.1 356.67 280.17ZM364.08 280.35C362.04 279.21 361.67 278.4 361.67 275.1C361.67 272.34 361.73 272.06 362.6 271.02C363.61 269.81 365.63 269.01 367.69 269.01C369.11 269 370.19 269.69 369.91 270.43C369.74 270.87 369.54 270.89 368.71 270.58C367.92 270.28 367.36 270.31 366.11 270.7C362.52 271.81 361.95 276.55 365.11 279.02C365.93 279.66 366.31 279.73 368.03 279.55C370.05 279.34 370.54 279.66 369.6 280.6C368.97 281.23 365.35 281.06 364.08 280.35ZM373.8 279.87C372.75 278.82 372.67 278.57 372.67 276.67C372.67 274.79 372.76 274.51 373.7 273.63C374.6 272.79 375 272.67 376.69 272.67C378.4 272.67 378.79 272.8 379.82 273.7C380.9 274.65 381 274.89 381 276.59C381 278.31 380.91 278.52 379.65 279.72C378.45 280.86 378.12 281 376.62 281C375.15 281 374.79 280.86 373.8 279.87ZM384.3 280.75C384.29 280.61 384.25 278.74 384.22 276.58L384.17 272.67L384.96 272.67C385.4 272.67 385.95 272.93 386.18 273.25C386.59 273.8 386.64 273.8 387.25 273.25C388.16 272.42 389.97 272.53 391.14 273.48C392.05 274.23 392.08 274.34 391.68 275.3C391.42 275.92 391.31 277.14 391.4 278.34C391.55 280.46 391.16 281.26 390.17 280.88C389.77 280.73 389.67 280.06 389.67 277.72C389.67 274.31 389.41 273.9 387.44 274.06L386.17 274.17L386.07 277.15C386.02 278.79 385.81 280.33 385.61 280.57C385.22 281.03 384.35 281.16 384.3 280.75ZM395.67 278.05C395.67 274.62 395.28 274.01 393.14 273.99L391.83 273.98L392.62 273.32C393.62 272.49 395.7 272.45 396.43 273.25C396.82 273.69 396.97 274.65 397.02 277.05C397.09 280.38 396.95 281 396.15 281C395.76 281 395.67 280.4 395.67 278.05ZM298.8 278.98C299.51 278.13 299.6 277.83 299.3 277.27C298.98 276.68 298.72 276.61 297.44 276.79C295.51 277.05 295.33 277.18 295.33 278.34C295.33 280.18 297.46 280.57 298.8 278.98ZM341.4 278.64C342.21 277.56 342.27 275.96 341.54 274.85C341.09 274.16 340.72 274 339.56 274C338.35 274 338.06 274.14 337.57 274.97C336.82 276.24 336.85 277.25 337.67 278.6C338.26 279.57 338.5 279.69 339.56 279.6C340.39 279.53 340.96 279.24 341.4 278.64ZM378.91 278.37C379.84 276.98 379.85 276.47 379 275.08C378.41 274.1 378.19 274 376.74 274C375.33 274 375.08 274.11 374.57 274.97C373.82 276.25 373.85 277.18 374.7 278.56C375.35 279.6 375.53 279.69 376.78 279.6C377.91 279.52 378.28 279.3 378.91 278.37ZM352.14 275.69C352.69 275.08 352.69 275.02 352.03 274.36C351.25 273.59 349.38 273.42 348.73 274.07C348.3 274.5 348.19 275.75 348.56 276.11C349.06 276.62 351.57 276.33 352.14 275.69ZM330.67 269.33C330.67 268.75 330.84 268.64 331.58 268.73C332.13 268.79 332.5 269.04 332.5 269.33C332.5 269.63 332.13 269.88 331.58 269.94C330.84 270.02 330.67 269.91 330.67 269.33ZM46.2 266.7C45.75 266.21 45.67 265.08 45.67 259.42C45.67 255.73 45.76 252.48 45.87 252.19C46.17 251.42 47.55 251.55 48.15 252.41C48.88 253.46 48.91 264.57 48.18 265.98C47.55 267.19 46.87 267.44 46.2 266.7ZM193.13 266.85C192.56 266.43 192.49 265.81 192.4 259.93C192.29 252.85 192.48 251.67 193.78 251.67C195.27 251.67 195.43 252.3 195.51 258.43C195.55 261.58 195.45 264.73 195.28 265.41C194.91 266.92 194.03 267.51 193.13 266.85ZM45.27 243.6C45.55 243.31 45.67 241.15 45.67 235.97C45.67 228.35 45.78 227.78 47.23 228.06C48.45 228.3 48.68 229.56 48.63 235.94L48.59 242.05L49.52 243.02L50.46 244L57.48 244C63.91 244 64.59 243.94 65.59 243.33C67 242.48 68.31 242.49 70.01 243.38C71.29 244.05 71.42 244.06 71.94 243.54C72.43 243.05 72.5 241.88 72.56 233.84C72.61 226.71 72.52 224.63 72.19 224.35C71.89 224.1 67.43 224.02 57.96 224.08L44.17 224.17L44.08 233.66C44.03 238.89 44.06 243.35 44.15 243.58C44.35 244.11 44.75 244.12 45.27 243.6ZM77.5 243.33C78.78 242.49 80.35 242.49 81.42 243.33C82.24 243.98 82.78 244 97.25 244C111.81 244 112.25 243.98 112.83 243.33C113.64 242.44 115.36 242.47 117.01 243.42C119.42 244.8 119.42 244.82 119.39 234.07C119.37 228.89 119.27 224.51 119.16 224.33C118.95 223.99 76.14 223.84 75.28 224.17C74.92 224.31 74.85 226.19 74.9 233.84C74.94 239.07 75.06 243.49 75.17 243.67C75.49 244.19 76.41 244.05 77.5 243.33ZM124.17 243.33C125.46 242.48 127.34 242.48 128.42 243.33C129.24 243.98 129.78 244 143.92 244C158.07 244 158.61 243.98 159.42 243.33C160.51 242.48 162.31 242.48 163.9 243.33C164.92 243.88 165.25 243.92 165.76 243.58C166.35 243.19 166.38 242.59 166.37 233.85C166.36 226.04 166.28 224.5 165.87 224.27C165.6 224.12 155.6 224.03 143.64 224.08L121.9 224.17L121.97 233.82C122.01 239.13 122.12 243.59 122.21 243.73C122.48 244.17 123.1 244.04 124.17 243.33ZM171.25 243.34C172.47 242.59 172.66 242 171.67 242C170.89 242 169.67 240.89 169.67 240.18C169.67 239.31 170.9 238.92 172.57 239.28C174.45 239.68 175.58 239.31 175.85 238.21C176.13 237.11 175.57 236.18 174.35 235.67C172.99 235.11 172.99 233.84 174.33 232.33C175.55 230.97 175.56 230.83 174.5 230.14C173.92 229.75 173.32 229.66 172.5 229.81C171.6 229.98 171.28 229.91 171.13 229.52C170.56 228.05 172.17 226.33 174.11 226.33C175.38 226.33 177.18 227.22 177.78 228.14C178.52 229.26 178.48 230.39 177.67 231.42C176.84 232.48 176.83 232.39 177.83 233.87C178.47 234.8 178.67 235.52 178.67 236.92C178.67 238.66 178.6 238.8 177.08 240.2C176.02 241.18 175.2 241.66 174.58 241.66C173.36 241.67 173.43 242.07 174.81 243.13L175.96 244L183.07 244C190.77 244 191.35 243.88 192.02 242.12C192.18 241.68 192.34 238.62 192.36 235.33C192.39 230.19 192.47 229.23 192.97 228.62C193.38 228.12 193.75 227.98 194.25 228.14C195.51 228.54 195.74 230.16 195.52 236.82C195.34 242.25 195.38 243 195.88 243.49C196.36 243.98 196.49 243.99 196.91 243.57C197.31 243.17 197.39 241.48 197.37 233.81C197.35 228.71 197.22 224.42 197.07 224.27C196.92 224.12 190.5 224.03 182.81 224.08L168.83 224.17L168.81 233.83C168.8 239.15 168.85 243.61 168.92 243.75C169.13 244.19 170.14 244.01 171.25 243.34ZM88.5 242.09C87.42 241.83 87 241.32 87 240.27L87 239.29L89.33 239.38C91.96 239.49 92.51 239.18 92.86 237.43C93.04 236.53 92.92 236.2 92.08 235.36C91.53 234.82 90.65 234.28 90.13 234.17C87.7 233.68 87.5 233.54 87.4 232.27C87.31 231.27 87.5 230.81 88.43 229.77C89.06 229.07 89.74 228.18 89.94 227.8C90.19 227.31 90.75 227.03 91.76 226.89C93.9 226.6 95.14 227.02 95.27 228.07C95.4 229.19 94.28 230 92.59 230C90.83 230 90.95 230.8 92.85 231.64C94.12 232.2 94.49 232.59 95.2 234.14C96.32 236.59 96.07 237.93 94.11 240.03C93.06 241.15 92.23 241.7 91.17 241.96C89.63 242.35 89.57 242.35 88.5 242.09ZM50.9 241.52C50.2 240.82 50.17 239.88 50.84 239.33C51.2 239.03 52 238.97 53.51 239.11C55.53 239.3 55.7 239.26 56.19 238.5C56.87 237.47 56.56 236.43 55.24 235.31C54.29 234.51 54.25 234.39 54.61 233.34C54.83 232.73 55.3 232.02 55.67 231.76C56.03 231.51 56.33 231.02 56.33 230.69C56.33 229.62 55.47 229.23 53.66 229.47C52.01 229.69 52 229.69 52 228.74C52 227.43 53.85 225.67 55.23 225.67C56 225.67 56.6 226.02 57.63 227.08C59.12 228.61 59.32 229.56 58.6 231.56C58.26 232.5 58.28 232.83 58.75 233.62C59.06 234.13 59.45 235.18 59.62 235.96C59.92 237.29 59.87 237.44 58.63 239.01C56.87 241.23 56.03 241.71 53.56 241.91C51.88 242.05 51.35 241.97 50.9 241.52ZM100.67 241.76C99.74 241.42 98.93 240.51 98.08 238.83C97.4 237.49 97.23 236.65 97.2 234.5C97.17 232.23 97.3 231.56 98.08 229.98C99 228.1 101.05 226.33 102.31 226.33C103.04 226.33 105.33 227.96 106.26 229.15C107.16 230.29 107.8 233.36 107.56 235.38C107.35 237.1 106.09 239.86 105.12 240.7C103.98 241.69 101.85 242.2 100.67 241.76ZM134.55 241.59C134.14 241.28 133.98 240.81 134.05 240.15C134.17 239.17 134.18 239.17 136.36 239.17C139 239.17 139.67 238.74 139.67 237.02C139.67 235.35 139.21 234.86 136.58 233.67C134.53 232.75 134.33 232.57 134.33 231.65C134.33 230.94 134.68 230.3 135.5 229.48C136.14 228.84 136.67 228.1 136.67 227.83C136.67 227.09 137.79 226.67 139.77 226.67C141.96 226.67 142.64 227.22 142.05 228.52C141.65 229.4 140.48 230 139.14 230C137.9 230 138.17 230.53 140 231.73C141.58 232.77 142.44 234.12 142.72 236C142.9 237.22 142.19 238.67 140.66 240.17C139.14 241.67 138.88 241.8 137.09 241.92C135.8 242.01 134.97 241.9 134.55 241.59ZM63.66 240.78C61.02 238.56 60.2 233.5 61.88 229.83C63.35 226.62 65.61 225.12 67.56 226.06C68.07 226.3 69.04 227.35 69.72 228.38C70.95 230.23 70.97 230.3 71.06 233.99C71.15 237.44 71.1 237.78 70.47 238.29C70.09 238.6 69.67 239.26 69.55 239.75C69.06 241.72 65.51 242.34 63.66 240.78ZM146.74 241.44C146.5 241.35 145.83 240.35 145.25 239.22C144.28 237.34 144.19 236.91 144.21 234.17C144.23 231.62 144.36 230.92 145.09 229.5C146.06 227.62 147.73 226.33 149.19 226.33C150.6 226.33 153.42 228.86 153.94 230.59C154.51 232.51 154.43 235.92 153.76 237.78C153.42 238.73 152.66 239.86 151.92 240.53C150.81 241.53 150.46 241.66 148.92 241.64C147.95 241.63 146.97 241.54 146.74 241.44ZM181.78 239.92L180.5 238.17L180.5 234C180.5 230.07 180.55 229.77 181.33 228.72C182.2 227.57 184.31 226.33 185.43 226.33C186.47 226.33 188.53 228.21 189.64 230.17C190.54 231.76 190.67 232.31 190.67 234.54C190.67 236.91 190.58 237.23 189.49 238.87C187.91 241.25 187.24 241.67 184.96 241.67L183.06 241.67L181.78 239.92ZM291.13 240.72C288.35 238.7 287.18 235.24 287.95 231.25C288.48 228.45 291.12 225.67 293.24 225.67C295.52 225.67 298.33 229.95 298.33 233.43C298.33 236.26 297.01 239.02 294.96 240.5C294.06 241.14 293.13 241.67 292.88 241.67C292.64 241.67 291.85 241.24 291.13 240.72ZM270.73 240.8C270.19 240.43 270.03 240.08 270.19 239.59C270.31 239.22 270.4 236.28 270.39 233.06C270.38 229.84 270.52 226.94 270.7 226.61C271.09 225.88 273.06 225.77 273.61 226.44C273.85 226.72 273.99 229.31 274.01 233.67C274.05 239.81 273.99 240.51 273.46 240.9C272.67 241.48 271.64 241.45 270.73 240.8ZM281.09 240.93C280.28 239.92 280.34 239.06 281.33 236.96C281.88 235.79 282.33 234.58 282.33 234.26C282.33 233.95 282.63 232.93 283 232C283.8 229.97 283.79 230.17 283.14 229.52C282.71 229.09 282.19 229.03 280.49 229.2C278.39 229.42 278.37 229.41 278.14 228.53C277.97 227.85 278.1 227.43 278.68 226.81C279.4 226.06 279.68 226 282.72 226C285.6 226 286.08 226.08 286.7 226.7C287.09 227.09 287.32 227.64 287.22 227.95C286.32 230.71 285.84 232.06 285.3 233.4C284.95 234.25 284.67 235.4 284.67 235.93C284.67 236.47 284.39 237.27 284.05 237.71C283.71 238.14 283.29 238.94 283.11 239.47C282.7 240.72 281.58 241.53 281.09 240.93ZM103.24 238.42C104.2 236.21 104.36 233.09 103.62 231.12C103.01 229.48 102.16 228.67 101.66 229.24C101.14 229.84 100.58 234.38 100.8 236.22C101.02 238.15 101.71 239.67 102.36 239.67C102.55 239.67 102.94 239.1 103.24 238.42ZM150.8 236.62C151.5 234.15 151.47 233.44 150.61 230.82C150.01 229 149.78 228.65 149.22 228.73C148.46 228.85 148.14 229.71 147.65 232.92C147.3 235.21 147.66 237.59 148.55 238.96C149.06 239.73 149.08 239.73 149.67 239.12C150 238.78 150.51 237.65 150.8 236.62ZM186.7 237.06C186.89 231.48 186.44 228.67 185.36 228.67C184.23 228.67 183.67 230.59 183.67 234.42C183.67 237.5 183.75 238.02 184.39 238.83L185.12 239.76L185.89 238.86C186.32 238.37 186.68 237.56 186.7 237.06ZM67.13 238.57C67.78 237.92 67.92 237.34 68.11 234.5C68.29 231.67 68.24 231.02 67.72 230.01C67.3 229.2 66.84 228.8 66.25 228.73C65.45 228.63 65.36 228.76 64.99 230.56C64.52 232.81 64.75 238.14 65.35 238.86C65.9 239.51 66.24 239.46 67.13 238.57ZM294.43 236.16C294.98 233.37 294.98 233 294.48 230.73C293.97 228.4 293.91 228.3 293.06 228.4C292.27 228.49 292.12 228.71 291.78 230.33C291.1 233.58 291.41 237.62 292.43 238.93C293.25 239.98 293.83 239.18 294.43 236.16ZM71.75 220.34L72.62 219.66L72.65 197.02L72.69 174.38L70.87 173.11C68.87 171.7 67 169.02 67 167.56C67 167.06 67.46 165.74 68.02 164.63C68.93 162.83 69.23 162.53 70.86 161.81C71.86 161.36 72.94 161 73.25 161C73.93 161 76.61 161.97 77.43 162.52C78.05 162.93 81 167.15 81 167.62C81 167.77 80.68 168.18 80.29 168.53C79.9 168.88 79.23 169.72 78.8 170.39C78.37 171.07 77.34 172.09 76.51 172.66L75 173.7L75 196.95C75 214.59 75.1 220.3 75.4 220.6C75.7 220.9 80.96 221 97.02 221C117.3 221 118.25 220.97 118.79 220.38C119.31 219.81 119.36 217.9 119.35 197.02L119.34 174.28L118.59 173.64C118.17 173.29 117.36 172.7 116.79 172.33C115.59 171.56 114.33 168.96 114.33 167.25C114.33 166.63 114.75 165.31 115.25 164.31C116.11 162.61 116.3 162.45 118.29 161.75C120.37 161.01 120.45 161 122.24 161.57C123.56 161.98 124.39 162.51 125.21 163.47C127.95 166.67 127.24 169.77 123.04 173L121.95 173.83L121.98 197.15C122.01 215.16 122.11 220.53 122.43 220.73C122.65 220.87 132.3 220.99 143.88 220.99C163.44 221 164.98 220.96 165.64 220.42L166.35 219.83L166.26 197.02L166.17 174.2L164.38 172.84C163.4 172.09 162.38 171.07 162.12 170.57C161.86 170.08 161.2 169.44 160.66 169.16C159.3 168.46 159.29 167.02 160.63 165.94C161.16 165.52 161.84 164.68 162.14 164.08C162.44 163.48 163.28 162.62 164.01 162.16C164.74 161.7 165.33 161.19 165.33 161.02C165.33 160.85 164.84 160.55 164.23 160.35C163 159.95 161.49 158.48 160.39 156.63C159.31 154.83 159.37 151.26 160.51 149.1C162.21 145.87 166.56 143.73 168.47 145.17C168.82 145.44 169.43 145.57 169.82 145.47C171.66 145.01 173.04 146.65 172.34 148.48C171.89 149.66 171.22 149.55 169.54 148C168.74 147.27 167.92 146.67 167.7 146.67C166.82 146.67 164.8 148 164.25 148.94C163.82 149.68 163.67 150.68 163.67 152.82L163.67 155.7L165.18 157.32C167.19 159.46 168.14 159.69 169.37 158.35C170.34 157.28 170.84 157.13 171.67 157.66C172.43 158.15 171.67 159.11 170.22 159.48C169.24 159.72 169 159.94 169 160.58C169 161.15 169.29 161.49 170.08 161.82C171.82 162.55 173.24 164.44 173.8 166.78C174.07 167.92 172.58 171.13 171.39 171.96C170.97 172.26 170.25 172.8 169.79 173.17L168.96 173.83L168.97 197.14C168.97 215.77 169.06 220.5 169.4 220.72C170.06 221.13 192.25 221.07 193.03 220.65C193.68 220.3 193.68 220.29 193.01 219.44C192.38 218.64 192.33 218.11 192.34 212.37C192.34 204.84 192.79 203.42 194.68 204.94C195.45 205.57 195.46 205.63 195.4 212.18C195.35 218.29 195.29 218.83 194.67 219.5C194.3 219.89 194 220.3 194 220.41C194 220.83 195.99 221.03 196.65 220.68C197.29 220.33 197.33 220.01 197.34 215.4C197.34 212.71 197.49 209.95 197.68 209.27C198.09 207.8 199.01 207.38 200.18 208.15C200.99 208.68 201 208.72 201 213.99C201 218.36 201.09 219.35 201.5 219.58C202.02 219.87 204.59 219.66 207.67 219.06C211.51 218.31 213.58 218 214.78 218C215.46 218 217.1 217.71 218.42 217.35C219.75 217 222.11 216.56 223.67 216.38C227.18 215.97 232.47 215.12 235.33 214.49C236.53 214.23 239.07 213.86 241 213.66C242.92 213.46 245.32 213.09 246.33 212.83C248.63 212.24 256.36 210.98 259.67 210.65C261.04 210.52 262.99 210.18 264 209.9C265.01 209.62 267.33 209.21 269.17 209C271 208.79 273.32 208.42 274.33 208.17C275.34 207.92 277.14 207.62 278.33 207.5C279.52 207.38 281.32 207.07 282.33 206.82C283.34 206.57 285.81 206.19 287.81 205.98C289.81 205.77 292.04 205.39 292.77 205.13C293.49 204.88 294.48 204.67 294.96 204.66C295.44 204.66 297.56 204.36 299.67 203.99C301.77 203.62 304.85 203.11 306.5 202.86C308.15 202.61 309.72 202.32 310 202.21C310.27 202.11 312.45 201.79 314.83 201.49C317.22 201.2 320.07 200.75 321.17 200.49C323.25 200 324.72 199.77 331.67 198.84C333.96 198.54 336.96 198.01 338.33 197.67C339.71 197.33 342.33 196.88 344.17 196.66C346 196.44 348.35 196.06 349.38 195.8C350.42 195.54 351.85 195.33 352.57 195.33C354.45 195.33 357.4 194.41 358.09 193.59C358.63 192.97 358.68 192.16 358.63 185.2C358.59 180.8 358.42 177.32 358.24 177.08C358.06 176.85 357.26 176.37 356.47 176.02C354.3 175.06 351.92 172.37 351.05 169.9C350.08 167.13 350.14 166.18 351.46 163.29C352.76 160.45 353.09 160.11 355.95 158.71C358.84 157.29 360.93 157.29 363.76 158.7C366.44 160.04 367.52 161.08 368.59 163.33C369.6 165.47 369.75 168.45 368.93 170.33C368.16 172.1 365.77 174.6 363.78 175.73L361.99 176.74L362.08 185.12L362.17 193.5L363.21 193.6C363.79 193.66 365.49 193.39 367.01 193.02C368.52 192.64 370.32 192.33 371 192.33C371.75 192.33 372.59 192.06 373.12 191.64L374 190.95L374 171.33C374 156 373.91 151.65 373.58 151.44C373.35 151.29 372.34 150.99 371.33 150.77C370.32 150.55 368.6 150.15 367.5 149.88C366.4 149.61 364.6 149.23 363.5 149.05C361.17 148.65 358.39 148.09 356.5 147.65C355.77 147.47 353.67 147.04 351.83 146.69C350 146.33 347.9 145.83 347.16 145.56C346.42 145.3 344.55 144.91 342.99 144.7C341.44 144.49 339.34 144.1 338.33 143.83C337.32 143.56 336.11 143.34 335.62 143.34C335.14 143.34 334.24 143.12 333.62 142.87C333.01 142.61 331.3 142.22 329.83 141.99C328.37 141.77 326.43 141.36 325.54 141.08C324.64 140.81 323.07 140.47 322.04 140.33C319.83 140.04 312.01 138.38 311.59 138.12C311.43 138.02 309.25 137.57 306.73 137.11C299.22 135.74 297.78 135.44 297.38 135.2C297.17 135.07 295.36 134.68 293.35 134.34C291.35 133.99 289.43 133.57 289.1 133.4C288.77 133.23 287.65 133 286.61 132.88C284.81 132.68 279.61 131.55 275.67 130.5C274.66 130.24 272.71 129.86 271.33 129.67C269.96 129.47 268.01 129.11 267 128.85C262.03 127.6 257.6 126.67 256.67 126.67C256.09 126.67 254.92 126.38 254.06 126.04C253.2 125.7 251.2 125.24 249.61 125.03C248.02 124.83 246.09 124.43 245.32 124.16C244.55 123.89 243.56 123.67 243.13 123.67C242.69 123.67 241.47 123.39 240.42 123.04C238.13 122.3 234.88 121.67 233.38 121.67C232.79 121.67 231.9 121.46 231.4 121.2C230.91 120.95 229.3 120.55 227.83 120.33C226.37 120.1 224.5 119.71 223.69 119.46C222.88 119.21 221.63 119 220.92 119C220.21 119 219.2 118.77 218.66 118.5C218.13 118.22 216.53 117.84 215.1 117.65C213.67 117.45 211.44 117.01 210.15 116.65C208.85 116.29 207.33 116 206.77 116C206.21 116 205.21 115.77 204.55 115.5C203.89 115.22 202.82 115 202.18 115L201 115L201 120.98C201 124.27 200.85 127.34 200.67 127.82C200.49 128.29 199.95 128.86 199.47 129.08C198.68 129.43 198.52 129.39 197.92 128.65C197.3 127.88 197.26 127.43 197.38 121.17L197.5 114.5L196.61 114.4C195.43 114.26 195.33 114.7 195.47 119.27C195.54 121.34 195.46 123.59 195.31 124.26C194.88 126.18 193.47 126.81 192.78 125.39C192.63 125.08 192.43 122.51 192.34 119.67L192.17 114.5L120.42 114.42L48.67 114.33L48.67 119.43C48.67 123.5 48.56 124.67 48.15 125.26C47.58 126.07 46.53 126.24 46.1 125.58C45.95 125.35 45.76 122.77 45.67 119.83C45.5 114.61 45.48 114.5 44.75 114.39L44 114.29L44 167.2C44.01 203.43 44.12 220.24 44.36 220.53C44.62 220.85 47.73 220.96 57.79 220.98C70.51 221.02 70.91 221 71.75 220.34ZM46.17 219.21C45.74 218.56 45.67 217.31 45.74 211.63L45.83 204.83L46.73 204.73C47.38 204.65 47.77 204.85 48.17 205.45C48.63 206.16 48.69 207.2 48.6 212.44C48.51 217.94 48.43 218.67 47.87 219.3C47.06 220.19 46.8 220.18 46.17 219.21ZM369.72 211.96C366.82 209.83 366.17 206.24 367.96 202.28C369.04 199.89 369.69 199.22 372.45 197.7C374.51 196.56 375.54 196.48 376.12 197.4C376.58 198.13 375.65 199.21 374.31 199.51C373.21 199.75 371.67 201.41 371.67 202.36C371.67 202.9 371.91 203 373.3 203C374.75 203 375.05 203.13 375.97 204.18C376.87 205.21 377 205.6 377 207.33C377 209.3 376.99 209.31 375.08 211.15C372.77 213.37 371.83 213.52 369.72 211.96ZM383.08 212.59C382.19 212.16 382.17 211.95 382.85 210.64C383.27 209.82 383.34 208.69 383.23 204.57C383.15 201.78 382.97 199 382.83 198.38C382.55 197.11 382.94 196.68 384.39 196.67C386.03 196.66 386.33 197.36 386.33 201.17C386.33 204.6 386.62 205.51 387.45 204.69C387.66 204.48 387.99 203.83 388.19 203.26C388.64 201.92 389.46 201.37 390.25 201.87C391.26 202.5 391.11 203.46 389.83 204.62C388.36 205.96 388.46 206.43 390.74 209.06C393.7 212.46 394.07 212.07 394.24 205.36C394.37 200.44 394.37 200.43 393.49 199.39C392.3 197.97 392.5 197.19 394.09 197.06C395.82 196.92 396.75 197.67 400.22 202.01C403.81 206.5 404.06 206.45 403.65 201.35C403.46 198.96 403.48 197.73 403.72 197.43C404.2 196.86 405.71 196.88 406.52 197.48C407.14 197.93 407.14 198 406.61 199.06C405.93 200.41 405.51 206.96 405.99 208.64C406.39 210.02 405.82 211.46 404.83 211.59C404.16 211.68 401.1 208.57 399.32 206C398.19 204.37 397.27 203.33 396.94 203.33C396.43 203.33 396.62 209.81 397.16 210.52C397.86 211.45 397.78 211.91 396.82 212.54C396.07 213.03 395.81 213.04 394.62 212.65C393.57 212.31 393.14 212.3 392.64 212.6C391.13 213.55 388.33 212.65 388.33 211.21C388.33 210.63 387.06 209 386.6 209C386.38 209 386.34 209.53 386.48 210.47C386.67 211.76 386.6 212.01 385.94 212.47C385.08 213.08 384.16 213.11 383.08 212.59ZM373.63 208.82C374.05 207.97 374.03 207.74 373.47 206.68C372.96 205.73 372.64 205.5 371.83 205.5L370.83 205.5L370.86 207.57C370.9 210.07 371.41 210.91 372.46 210.22C372.85 209.97 373.38 209.34 373.63 208.82ZM197.82 199.11C197.33 198.61 197.28 197.82 197.41 192.19C197.49 188.69 197.67 185.58 197.81 185.26C198.19 184.41 199.26 184.21 200.18 184.81L201 185.35L201 191.63C201 197.48 200.95 197.97 200.31 198.79C199.52 199.8 198.63 199.91 197.82 199.11ZM46.21 196.05C45.75 195.53 45.67 194.46 45.67 188.62C45.67 181.75 45.79 181 46.9 181C47.14 181 47.63 181.3 48 181.67C48.62 182.29 48.67 182.78 48.67 188.52C48.67 192.1 48.52 194.98 48.33 195.35C47.75 196.43 46.83 196.73 46.21 196.05ZM193.15 196.19C192.54 195.75 192.5 195.26 192.5 188.68C192.5 182.79 192.58 181.59 193 181.33C193.69 180.89 193.82 180.91 194.67 181.6C195.37 182.17 195.41 182.47 195.51 188.1C195.62 194.51 195.48 195.54 194.46 196.22C193.9 196.59 193.69 196.59 193.15 196.19ZM197.96 175.78C197.35 175.05 196.98 168.27 197.38 165C197.87 160.98 197.86 161 199.16 161C200.93 161 201.05 161.52 200.94 168.71C200.84 174.92 200.82 175.07 200.05 175.7C199.08 176.48 198.55 176.5 197.96 175.78ZM193.19 172.81C192.65 172.26 192.41 171.52 192.26 169.83L192.17 168.83L187.47 168.95C183.43 169.05 182.7 168.99 182.22 168.51C181.6 167.89 181.53 167.39 181.98 166.69C182.21 166.32 183.17 166.23 186.39 166.26C188.65 166.28 190.88 166.34 191.33 166.4L192.17 166.5L192.37 162.17C192.48 159.78 192.59 157.8 192.62 157.75C192.65 157.7 193.11 157.67 193.66 157.67C195.53 157.67 195.73 158.48 195.5 165.22C195.39 168.49 195.23 171.5 195.15 171.91C194.92 172.98 193.85 173.47 193.19 172.81ZM46.01 172.36C45.64 171.67 45.52 159.11 45.87 158.19C46.13 157.5 47.46 157.52 48.04 158.22C48.34 158.58 48.56 160.03 48.67 162.47L48.83 166.17L53.39 166.18C56.64 166.2 58.09 166.33 58.47 166.64C59.2 167.25 59.13 167.87 58.26 168.48C57.68 168.89 56.56 169 53.09 169L48.67 169L48.67 170.33C48.67 172.45 46.81 173.86 46.01 172.36ZM358.17 171.21C358.45 170.78 358.59 170.18 358.47 169.88C358.17 169.08 358.61 167.11 359.23 166.49C359.67 166.05 360.2 165.99 362.21 166.18C364.37 166.38 364.68 166.34 364.88 165.82C365.25 164.88 364.28 163.57 362.49 162.59C360.41 161.45 359.02 161.43 357.14 162.53C356.08 163.16 355.49 163.81 355 164.91C354.15 166.82 354.16 167.68 355.04 169.43C356.38 172.1 357.26 172.6 358.17 171.21ZM363.92 170.89C364.33 170.52 364.67 169.93 364.67 169.59C364.67 169.07 364.46 168.98 363.42 169.06C362.32 169.15 362.15 169.28 362.06 170.11C361.83 172.1 362.34 172.31 363.92 170.89ZM27.07 168.6C26.54 168.08 26.55 166.83 27.08 166.44C27.31 166.28 29.42 166.22 31.8 166.32C35.47 166.47 36.15 166.59 36.47 167.1C36.76 167.6 36.69 167.83 36.05 168.35C35.37 168.91 34.72 169 31.36 169C28.78 169 27.33 168.87 27.07 168.6ZM93.19 168.48C92.61 167.89 92.54 167.38 92.96 166.72C93.38 166.06 101.78 165.95 102.68 166.58C103.54 167.18 103.51 167.84 102.59 168.48C101.51 169.24 93.95 169.23 93.19 168.48ZM137.86 168.48C137.57 168.19 137.33 167.67 137.33 167.33C137.33 166.38 138.99 166.08 143.17 166.26C147.65 166.45 148.45 166.88 147 168.33C146.41 168.93 145.89 169 142.36 169C139.19 169 138.27 168.89 137.86 168.48ZM204.4 168.6C203.92 168.12 203.87 166.79 204.32 166.51C204.79 166.22 212.01 166.06 212.97 166.32C213.42 166.44 213.94 166.8 214.14 167.12C214.43 167.59 214.34 167.84 213.71 168.35C213.03 168.91 212.39 169 208.86 169C206.15 169 204.67 168.87 204.4 168.6ZM226.52 168.48C225.96 167.91 225.87 167.38 226.26 166.8C226.4 166.58 228.17 166.36 230.56 166.25C233.79 166.1 234.75 166.16 235.31 166.55C236.16 167.15 236.19 167.73 235.39 168.45C234.52 169.24 227.31 169.26 226.52 168.48ZM249.07 168.6C248.39 167.92 248.59 166.68 249.42 166.4C250.01 166.21 255.58 166.14 257.56 166.3C258.27 166.36 258.43 167.67 257.81 168.36C257.3 168.92 256.76 169 253.35 169C250.77 169 249.33 168.87 249.07 168.6ZM270.73 168.6C270.23 168.09 270.21 166.78 270.71 166.47C270.92 166.34 273.13 166.27 275.62 166.31C280.95 166.38 281.88 166.78 280.33 168.33C279.74 168.93 279.22 169 275.4 169C272.53 169 271 168.87 270.73 168.6ZM293.02 168.52C292.37 167.75 292.73 166.57 293.67 166.34C294.12 166.23 296.21 166.22 298.3 166.32C301.37 166.47 302.16 166.61 302.45 167.06C302.72 167.5 302.66 167.79 302.18 168.31C301.62 168.94 301.18 169 297.49 169C294.34 169 293.32 168.89 293.02 168.52ZM315.25 168.64C314.38 168.14 314.49 166.72 315.42 166.49C315.83 166.39 318.03 166.35 320.3 166.4C323.75 166.48 324.49 166.59 324.78 167.06C325.06 167.5 324.99 167.79 324.52 168.31C323.95 168.94 323.52 169 319.87 168.99C317.65 168.98 315.57 168.83 315.25 168.64ZM337.42 168.78C337.19 168.69 337 168.11 337 167.51C337 166.9 337.19 166.34 337.42 166.25C337.65 166.17 339.77 166.19 342.13 166.3C345.66 166.46 346.49 166.6 346.78 167.06C347.06 167.5 346.99 167.79 346.52 168.31C345.95 168.94 345.53 169 341.87 168.97C339.65 168.96 337.65 168.87 337.42 168.78ZM381.35 168.52C381.13 168.25 381 167.69 381.06 167.27C381.17 166.51 381.2 166.5 386.13 166.5C390.43 166.5 391.14 166.58 391.45 167.06C391.72 167.5 391.66 167.79 391.18 168.31C390.62 168.94 390.18 169 386.16 169C382.72 169 381.66 168.89 381.35 168.52ZM108.49 167.99C108.16 167.44 108.9 166.77 109.35 167.21C109.59 167.46 109.55 167.68 109.21 167.96C108.85 168.26 108.66 168.27 108.49 167.99ZM152.67 167.85C152.67 167.57 152.82 167.33 153 167.33C153.18 167.33 153.33 167.47 153.33 167.65C153.33 167.82 153.18 168.05 153 168.17C152.82 168.28 152.67 168.14 152.67 167.85ZM219.33 167.67C219.33 167.48 219.57 167.33 219.85 167.33C220.14 167.33 220.28 167.48 220.17 167.67C220.05 167.85 219.82 168 219.65 168C219.47 168 219.33 167.85 219.33 167.67ZM286 167.67C286 167.48 286.15 167.33 286.33 167.33C286.52 167.33 286.67 167.48 286.67 167.67C286.67 167.85 286.52 168 286.33 168C286.15 168 286 167.85 286 167.67ZM74.83 165.7C74.83 164.33 71.94 164.47 71.74 165.86C71.65 166.48 71.77 166.52 73.24 166.35C74.29 166.23 74.83 166.01 74.83 165.7ZM169.25 166.08C169.32 165.88 168.99 165.46 168.52 165.15C167.45 164.45 166 164.74 166 165.65C166 166.15 166.28 166.32 167.25 166.42C168.85 166.58 169.1 166.54 169.25 166.08ZM121.88 165.82C122.13 165.17 122.01 165.05 120.81 164.82C119.71 164.6 118.42 165.33 118.8 165.95C119.17 166.54 121.65 166.43 121.88 165.82ZM66.19 159.48C65.59 158.88 65.51 158.14 66.01 157.83C66.46 157.55 68.33 153.82 68.33 153.2C68.33 152.94 68.68 152.29 69.11 151.78C69.54 151.26 69.98 150.53 70.1 150.17C71.15 146.68 71.9 145.16 72.63 145.06C73.74 144.9 74.93 146.17 75.51 148.15C75.78 149.07 76.29 150.43 76.65 151.17C77 151.9 77.69 153.47 78.19 154.67C78.68 155.86 79.29 157.07 79.54 157.36C80.63 158.61 79.45 160 77.31 160C75.77 160 74.88 159.1 75.19 157.87C75.33 157.3 75.22 156.7 74.86 156.16C74.39 155.44 74.08 155.33 72.41 155.34C69.88 155.35 69.61 155.56 69.71 157.49C69.78 158.73 69.66 159.18 69.17 159.54C68.33 160.15 66.84 160.12 66.19 159.48ZM114.75 159.57C113.64 159.23 113.17 158 114.15 158C115.07 158 115.33 156.72 115.33 152.37C115.33 148.29 114.99 146.33 114.28 146.33C113.93 146.33 113.9 145.01 114.25 144.98C119.55 144.47 120.6 144.47 122.32 144.91C124.38 145.44 125.37 146.21 126.16 147.87C126.66 148.92 126.65 149.08 125.96 150.67L125.24 152.36L126.12 153.28C126.77 153.96 127 154.55 127 155.53C127 157.1 126.49 157.91 124.77 159.07C123.58 159.88 123.25 159.93 119.67 159.92C117.56 159.91 115.35 159.75 114.75 159.57ZM122.71 156.8C123.42 156.15 123.53 154.91 122.92 154.42C122.34 153.96 120.21 153.61 119.54 153.86C118.88 154.12 118.78 156.65 119.42 157.29C119.95 157.84 121.87 157.55 122.71 156.8ZM73.15 152.89C73.65 152.52 73.69 152.33 73.35 151.7C72.69 150.46 70.93 151.46 71.44 152.79C71.69 153.45 72.33 153.49 73.15 152.89ZM198.07 152.15C197.36 151.65 197.33 151.44 197.34 146.06C197.35 143 197.48 139.92 197.65 139.2C198.1 137.27 199.14 136.8 200.33 138C200.95 138.62 201 139.11 201 144.98L201 151.28L200.12 151.98C199.07 152.8 199.02 152.81 198.07 152.15ZM121.64 150.8C123.03 149.63 122.98 148.61 121.47 147.45C119.85 146.22 119.2 146.62 119.06 148.98C118.91 151.7 119.81 152.34 121.64 150.8ZM193.18 149.13C192.36 148.32 192.28 147.48 192.4 140.91C192.47 136.72 192.63 134.57 192.89 134.31C193.51 133.69 194.87 134.22 195.29 135.25C195.75 136.4 195.54 147.66 195.03 148.61C194.55 149.51 193.78 149.73 193.18 149.13ZM46.07 148.93C45.5 148.37 45.5 134.97 46.07 134.4C46.64 133.82 47.24 133.91 48 134.67C48.62 135.29 48.67 135.78 48.67 141.59C48.67 146.72 48.57 147.99 48.15 148.59C47.58 149.41 46.69 149.55 46.07 148.93ZM196.96 110.04C197.54 109.46 197.56 107.94 197.41 75.13C197.3 52.18 197.14 40.69 196.91 40.4C196.72 40.17 196.34 40.02 196.07 40.07C195.65 40.15 195.56 41.29 195.51 47.24C195.46 53.59 195.39 54.38 194.84 54.99C194.1 55.81 193.56 55.85 192.96 55.12C192.62 54.71 192.46 52.86 192.33 47.87L192.17 41.17L190.83 41.21C187.69 41.31 181.66 41.98 179.82 42.44C178.73 42.71 175.87 43.03 173.46 43.15C171.06 43.27 168.06 43.59 166.8 43.85C165.53 44.12 161.42 44.48 157.67 44.67C153.91 44.85 149.78 45.16 148.5 45.35C147.06 45.58 142.28 45.66 136 45.58C125.4 45.44 123.17 45.18 121.25 43.88C120.48 43.36 119.33 43.21 114.25 42.97C110.9 42.81 106.29 42.46 104 42.18C101.71 41.9 98.03 41.67 95.83 41.66C93.63 41.66 88.83 41.42 85.17 41.12C81.5 40.83 75.57 40.49 72 40.38C64.51 40.13 49.7 40.4 49.08 40.78C48.77 40.97 48.67 42.71 48.67 47.58C48.67 53.19 48.59 54.2 48.12 54.72C47.4 55.52 46.45 55.5 46.01 54.69C45.81 54.31 45.67 51.6 45.67 48.23C45.67 43.55 45.57 42.34 45.18 42.01C44.91 41.79 44.54 41.71 44.35 41.82C44.11 41.97 44 52.82 44 76C44 107.95 44.04 109.99 44.59 110.31C44.98 110.54 69.75 110.65 120.76 110.65C193.34 110.64 196.38 110.62 196.96 110.04ZM46.01 102.02C45.81 101.64 45.67 98.71 45.67 94.83C45.67 90.96 45.81 88.03 46.01 87.64C46.45 86.82 47.16 86.83 48 87.67C48.62 88.29 48.67 88.78 48.67 94.62C48.67 100.48 48.62 100.97 47.98 101.79C47.16 102.83 46.49 102.91 46.01 102.02ZM192.82 101.86C192.07 100.71 192.23 87.81 193 87.33C193.73 86.87 193.95 86.92 194.78 87.75C195.48 88.46 195.53 88.82 195.61 93.9C195.71 99.66 195.39 101.77 194.34 102.33C193.48 102.79 193.42 102.78 192.82 101.86ZM305.03 84.69C304.38 84.28 304.27 70.46 304.91 69.93C305.15 69.74 305.84 69.69 306.51 69.81C307.2 69.94 308.17 69.86 308.84 69.62C310.39 69.06 311.98 69.82 313.24 71.71C314.42 73.5 314.45 75.26 313.33 77.49C312.69 78.75 312.15 79.32 311 79.89C310.17 80.31 309.09 80.65 308.58 80.66C307.7 80.67 307.67 80.73 307.67 82.49C307.67 83.95 307.54 84.38 307.02 84.65C306.24 85.08 305.65 85.09 305.03 84.69ZM261.91 80.8C261.78 80.67 260.74 80.48 259.59 80.37C257.55 80.17 257.5 80.14 257.4 79.15C257.35 78.59 257.46 77.72 257.65 77.21C257.93 76.47 258.18 76.31 258.92 76.39C259.6 76.47 259.98 76.82 260.42 77.75C261.1 79.21 262.24 79.43 263.35 78.31C264.63 77.03 264.13 76.03 261.27 74.17C258.23 72.19 257.67 71.36 257.67 68.89C257.67 66.89 257.99 66.37 259.76 65.45C260.91 64.86 264.72 64.98 265.98 65.66C266.78 66.08 267.16 67.32 266.86 68.51C266.53 69.82 265.76 69.89 264.55 68.71C263.69 67.88 263.19 67.67 262.07 67.67C260.82 67.67 260.67 67.75 260.67 68.44C260.67 69.35 261.52 70.2 263.91 71.65C266.05 72.95 267.67 74.92 267.67 76.22C267.67 77.51 266.3 79.45 264.94 80.09C263.46 80.79 262.2 81.09 261.91 80.8ZM276.79 79.92C274.81 78.58 274.34 77.71 274.34 75.27C274.33 72.66 274.74 71.82 276.56 70.66C278.89 69.18 280.41 69.28 282.18 71.02L283.56 72.36L285.19 71.02C287.12 69.42 288.51 69.06 289.93 69.8C291.13 70.42 292.33 71.86 292.33 72.67C292.33 73 292.05 73.61 291.71 74.03C291.15 74.72 290.83 74.8 288.87 74.73C286.91 74.65 286.67 74.71 286.67 75.27C286.67 76.4 287.88 77.13 289.77 77.15C291.28 77.16 291.51 77.26 291.6 77.88C291.71 78.67 289.72 80.55 288.41 80.88C286.59 81.35 283.33 77.83 283.33 75.4C283.33 74.4 283.19 74 282.85 74C282.59 74 282.28 74.15 282.17 74.33C282.05 74.52 280.99 74.67 279.81 74.67C277.78 74.67 277.67 74.71 277.67 75.46C277.67 76.64 278.52 77.15 280.33 77.07C283.11 76.95 283.31 78.42 280.75 80.16C279.15 81.25 278.74 81.22 276.79 79.92ZM331.31 80.03C330.37 79.09 330.33 78.93 330.33 76.01C330.33 74.07 330.15 72.55 329.83 71.78C329.18 70.23 329.18 70.23 330.21 69.01C331.32 67.69 332.13 67.79 333.44 69.41C334.43 70.65 334.44 70.67 333.81 71.36C332.82 72.46 332.9 76.45 333.93 77.91C334.78 79.09 334.58 80 333.35 80.66C332.46 81.14 332.4 81.12 331.31 80.03ZM338.6 80.57C338.11 80.35 337.08 79.58 336.32 78.87L334.93 77.58L335.06 75.13C335.17 72.87 335.27 72.6 336.34 71.48C338.64 69.09 340.16 68.8 342.28 70.33C343.9 71.5 344.31 72.65 343.53 73.84C343.03 74.59 342.77 74.67 340.66 74.67C338.41 74.67 338.33 74.69 338.33 75.49C338.33 76.57 339.92 77.43 341.43 77.17C343.64 76.79 343.95 78.14 342 79.68C340.51 80.86 339.72 81.06 338.6 80.57ZM270.3 80.13C269.99 79.75 269.8 78.47 269.72 76.21C269.64 74.04 269.43 72.61 269.13 72.18C268.44 71.19 268.57 70.17 269.53 69.03C270.74 67.59 271.68 67.69 272.78 69.38C273.64 70.69 273.66 70.79 273.11 71.39C272.24 72.35 272.12 75.58 272.87 77.67C273.32 78.93 273.39 79.51 273.12 79.93C272.63 80.72 270.9 80.84 270.3 80.13ZM294.35 80.02C294.14 79.64 294 76.62 294 72.55C294 65.13 294.11 64.67 295.87 64.67C297.15 64.67 297.35 65.82 297.32 72.79C297.29 77.74 297.18 79.33 296.8 79.92C296.2 80.85 294.82 80.91 294.35 80.02ZM315.74 80.25C315.53 80 315.35 76.93 315.29 72.67L315.18 65.5L316.47 64.87C318.79 63.73 318.83 63.85 318.83 72.31C318.83 79.26 318.79 79.75 318.19 80.19C317.39 80.78 316.2 80.81 315.74 80.25ZM321.1 79.92C319.49 78.14 319.4 76.91 320.77 75.41C321.44 74.68 321.44 74.61 320.9 73.69C320.12 72.37 320.18 71.84 321.25 70.65C322.05 69.76 322.4 69.62 324.11 69.57C325.96 69.5 326.1 69.56 327.19 70.75C328.21 71.86 328.33 72.19 328.34 73.91C328.34 74.97 328.43 76.6 328.54 77.54C328.72 78.98 328.64 79.36 328.08 79.92C327.48 80.52 327.25 80.55 326.02 80.22C324.97 79.94 324.48 79.95 323.99 80.26C323 80.88 321.86 80.75 321.1 79.92ZM193.13 78.85C192.56 78.43 192.49 77.8 192.4 71.71C192.29 64.56 192.44 63.67 193.8 63.67C195.35 63.67 195.48 64.27 195.43 71.04C195.4 74.51 195.28 77.64 195.16 78.01C194.85 79 193.88 79.4 193.13 78.85ZM46.07 78.6C45.5 78.03 45.5 64.63 46.07 64.07C46.69 63.45 47.58 63.59 48.15 64.41C48.57 65.01 48.67 66.27 48.67 71.33C48.67 76.39 48.57 77.65 48.15 78.26C47.58 79.07 46.69 79.22 46.07 78.6ZM310.13 77.57C311.48 75.76 310.65 72.67 308.82 72.67C307.79 72.67 307.2 74.2 307.51 76.05C307.97 78.78 308.84 79.28 310.13 77.57ZM324.61 76.72C324.68 76.24 324.54 76 324.19 76C323.85 76 323.67 76.3 323.67 76.86C323.67 77.91 324.45 77.79 324.61 76.72ZM324.5 73C324.61 72.82 324.47 72.67 324.19 72.67C323.9 72.67 323.67 72.82 323.67 73C323.67 73.18 323.81 73.33 323.98 73.33C324.15 73.33 324.39 73.18 324.5 73ZM229.5 29.95C226.7 28.5 225.86 27.23 225.53 24C225.12 19.95 226.16 17.19 228.71 15.55C229.44 15.08 230.02 14.98 231.09 15.13C233 15.41 233.35 15.41 234.41 15.15C235.71 14.83 236.91 15.22 237.53 16.17C238.18 17.15 237.94 18.5 237.04 18.98C236.53 19.25 236.17 19.07 235.07 17.99C233.54 16.49 232.69 16.35 231.08 17.33C229.3 18.41 228.67 19.8 228.67 22.6L228.67 25.04L230.38 26.85C232.37 28.96 233.05 29.09 235.25 27.8C236.17 27.26 236.85 27.05 237.04 27.24C237.55 27.75 237.06 28.51 235.51 29.62C233.73 30.9 231.57 31.02 229.5 29.95ZM240.26 30.25C239.79 29.89 239.7 28.81 239.62 22.67C239.56 18.72 239.63 15.31 239.78 15.08C240.09 14.59 241.62 14.54 242.33 14.99C242.66 15.2 242.89 16.05 243 17.4L243.17 19.5L244.7 19.39C245.94 19.3 246.42 19.44 247.18 20.09C248.08 20.87 248.12 21.05 248.38 25.17C248.57 28.17 248.54 29.58 248.29 29.89C247.82 30.45 245.85 30.47 245.43 29.92C245.24 29.67 245.19 28.13 245.3 26.19C245.5 22.82 245.29 22 244.18 22C243.23 22 242.96 22.95 243.02 26.17C243.09 29.55 242.92 30.04 241.48 30.47C241.11 30.58 240.55 30.48 240.26 30.25ZM250.93 29.75C248.67 27.34 249.76 24 252.81 24C253.62 24 254.33 23.06 254.33 21.98C254.33 21.31 253.09 21.71 252.73 22.5C251.99 24.12 250 23.3 250 21.37C250 20.24 251.26 19.67 253.76 19.67C255.73 19.67 256.14 19.78 256.85 20.48C257.59 21.22 257.67 21.58 257.67 24.09C257.67 25.92 257.82 27.09 258.12 27.5C258.56 28.1 258.6 28.09 259 27.33C259.31 26.75 259.37 25.59 259.22 23.08L259 19.63L260.92 19.63C261.97 19.63 263.62 19.61 264.58 19.57C265.99 19.52 266.46 19.65 267.06 20.25C267.71 20.9 267.83 21.46 268.01 24.84C268.23 28.76 268.6 29.87 269.42 29.05C269.71 28.76 269.83 27.3 269.83 24.23L269.83 19.83L271.67 19.82C272.67 19.81 273.77 19.68 274.1 19.53C274.99 19.11 277.03 19.55 277.81 20.33C278.41 20.93 278.53 21.59 278.71 25.26C278.84 27.91 278.79 29.66 278.59 29.92C278.17 30.43 276.27 30.47 275.77 29.97C275.52 29.72 275.46 28.49 275.58 26.31C275.77 22.83 275.53 22 274.3 22C273.21 22 272.89 23.22 273.11 26.56C273.31 29.58 273.29 29.68 272.51 30.19C271.95 30.56 271.46 30.64 270.93 30.44C270.51 30.29 269.04 30.17 267.67 30.17L265.17 30.17L265.14 27.17C265.1 21.86 265.13 22 264.01 22C262.73 22 262.52 22.76 262.75 26.69C262.86 28.68 262.79 29.75 262.54 29.94C261.76 30.54 261.05 30.6 260.17 30.14C259.08 29.58 258.19 29.54 257.3 30.02C256.83 30.27 256.32 30.25 255.48 29.95C254.49 29.59 254.19 29.61 253.36 30.1C252.09 30.85 251.94 30.83 250.93 29.75ZM282.09 29.69C279.81 28.04 279.14 24.97 280.36 21.76C280.75 20.73 283.26 19.61 285.26 19.58C286.6 19.56 286.9 19.7 287.73 20.68C289.55 22.87 288.59 24.39 285.22 24.67C283.59 24.8 283.15 24.96 283.06 25.43C282.82 26.68 283.65 27.09 285.91 26.86C287.8 26.67 288 26.71 288 27.26C288 28.22 285.11 30.67 283.98 30.67C283.68 30.67 282.83 30.23 282.09 29.69ZM289.85 30.03C289.75 29.86 289.83 28.56 290.03 27.14C290.37 24.66 290.27 19.91 289.81 16.65L289.59 15.13L291.03 14.7C292.38 14.29 292.51 14.31 293.07 15C293.6 15.66 293.67 16.5 293.67 22.49C293.67 28.6 293.61 29.28 293.06 29.78C292.41 30.37 290.17 30.54 289.85 30.03ZM254.27 26.93C254.84 26.36 254.76 25.35 254.13 25.11C253.51 24.87 253.01 25.52 253.01 26.58C253 27.4 253.63 27.57 254.27 26.93ZM284.33 21.98C284.33 21.81 284.11 21.67 283.83 21.67C283.32 21.67 283.17 22.06 283.55 22.44C283.81 22.7 284.33 22.4 284.33 21.98Z" fill="#1e2749" fill-rule="evenodd"/>
</svg>
