<?xml version="1.0" encoding="UTF-8"?>
<svg xmlns="http://www.w3.org/2000/svg" viewBox="0 0 2430 1081" width="2430" height="1081" shape-rendering="geometricPrecision">
<path d="M552.3 1052.04C396.17 1051.69 314.78 1051.16 314.16 1050.5C313.05 1049.32 312.05 926.65 312.02 788.84L312 694.18L304.75 692.97C291.93 690.82 277.8 684.93 264.66 676.25C242.03 661.29 225.22 635.6 220.98 609.5C219.36 599.5 219.59 576.93 221.4 568.5C226.02 547.02 234.91 530.83 250.38 515.7C264.33 502.07 278.74 494.4 300.5 489.02L311.5 486.3L312.1 441.9C312.43 417.48 312.77 342.6 312.84 275.5C312.99 145.13 313.33 127.8 315.8 125.75C316.99 124.76 356.19 124.44 503.38 124.21L689.46 123.92L694.48 118.68C703.73 109.03 714.63 108.52 723.86 117.3C725.71 119.06 728.06 122.41 729.08 124.75L730.93 129L753.84 129C770.98 129 777 128.69 777.74 127.75C779.93 124.95 774.66 95.84 769.42 81.79C766.44 73.8 761.73 63 761.24 63C760.97 63 758.29 64.4 755.29 66.12C752.22 67.87 749.47 68.86 748.99 68.37C747.77 67.13 736.5 13.17 737.29 12.38C738.14 11.53 781.81 46.59 781.94 48.22C781.97 48.61 779.52 50.77 776.5 53C773.48 55.23 771 57.79 771 58.67C771 59.56 772.63 64.38 774.63 69.39C781.35 86.25 785.07 101.32 787.75 122.5L788.51 128.5L799.71 128.78L810.9 129.06L814.7 123.38C819.47 116.24 823.5 114 831.54 114C836.48 114 838.44 114.52 842.05 116.82C844.5 118.37 847.62 121.29 849 123.3C850.38 125.32 852.09 127.2 852.81 127.48C855.67 128.58 1369.69 129.65 2062.86 129.99L2090.23 130L2089.56 133.25C2087.35 143.95 2087.01 171.01 2087.25 317.4L2087.5 476.3L2096 479.51C2129.62 492.17 2141 497.17 2141 499.28C2141 502.81 2134.97 505.77 2064.5 536.82C2054.6 541.19 2046.5 545.33 2046.5 546.03C2046.5 547.43 2045.5 547 2096 567.44C2142.97 586.45 2141 585.55 2141 587.92C2141 591.49 2135.45 594.04 2075 618.2C2070.88 619.85 2065.93 621.8 2064 622.53C2053.79 626.43 2046.59 629.72 2046.29 630.63C2046.1 631.19 2047.2 632.24 2048.72 632.96C2055.19 635.99 2085.75 649.73 2101.24 656.56C2131.93 670.09 2141 674.77 2141 677.07C2141 679.63 2136.68 681.67 2098 697.44C2082.32 703.82 2068.02 709.71 2066.21 710.53C2064.4 711.34 2059.34 713.39 2054.96 715.08C2050.5 716.79 2047 718.73 2047 719.48C2047 720.27 2054.99 724.22 2066.5 729.1L2086 737.38L2086.1 773.44C2086.15 793.27 2086.23 863.18 2086.27 928.79C2086.34 1039.62 2086.23 1048.2 2084.66 1049.77C2083.08 1051.35 2064.39 1051.51 1805.73 1052.14C1494.17 1052.91 909.3 1052.86 552.3 1052.04ZM1098.8 1042.74C1099.51 1041.89 1099.89 975.84 1100.01 832.99C1100.1 718.32 1100.14 623.28 1100.09 621.79L1100 619.09L1061.65 618.79C1020.6 618.48 1020 618.4 1020 613.46C1020 611.34 1020.54 611.12 1027.25 610.54C1037.4 609.66 1124.79 609.26 1158.72 609.94C1182.4 610.41 1187.18 610.75 1188.49 612.06C1189.89 613.46 1189.79 613.85 1187.44 616.06L1184.84 618.5L1146.92 618.78L1109 619.07L1109 831.54L1109 1044L1328.25 1043.75L1547.5 1043.5L1547.76 1001.71C1548.02 960.83 1547.98 959.81 1545.86 954.91C1544.4 951.51 1544.03 949.57 1544.73 948.87C1545.28 948.32 1550.46 947.52 1556.23 947.11C1565.17 946.47 1567.43 945.94 1571.59 943.5C1589.25 933.15 1595.52 917.37 1587.97 902.26C1583.01 892.32 1572.74 885.52 1558.9 882.99C1548.88 881.17 1547 880.21 1547 876.95C1547 873.77 1547.19 873.68 1557.82 871.97C1571.58 869.76 1582.42 862.49 1588.33 851.5C1590.04 848.31 1590.48 845.78 1590.49 839C1590.5 831.57 1590.16 829.93 1587.82 825.94C1582.3 816.55 1572.53 809.88 1561.38 807.91C1558.15 807.33 1553.7 806.33 1551.5 805.68C1547.98 804.64 1547.5 804.14 1547.5 801.5C1547.5 798.64 1547.79 798.44 1553.5 797.2C1570.36 793.56 1578.87 789.14 1585.3 780.68C1594.58 768.48 1592.86 752.22 1581.19 741.93C1574.73 736.23 1568.97 733.53 1559 731.5C1548.97 729.47 1547 728.58 1547 726.04C1547 723.07 1549.8 721 1553.82 720.99C1563.11 720.96 1575.4 715.54 1581.71 708.7C1594.39 694.94 1594.38 679.8 1581.67 666.73C1575.26 660.13 1570.41 658 1559.12 656.83C1543.13 655.17 1543.31 655.33 1546.63 646C1548.35 641.15 1548.37 643.37 1545.97 563.5C1545.41 544.8 1544.69 525.77 1544.38 521.2L1543.81 512.91L1539.66 510.28C1537.37 508.83 1527.46 503.45 1517.64 498.31C1496.36 487.19 1494 485.62 1494 482.57C1494 480.74 1495.08 479.81 1499.25 478.05C1508.78 474.02 1543.23 459.88 1559 453.52C1582.73 443.95 1588.77 441.03 1586.98 440.02C1586.14 439.54 1574.89 434.88 1561.98 429.67C1497.75 403.7 1494 401.99 1494 398.66C1494 396.72 1495.81 395.5 1505.75 390.72C1516.08 385.75 1549.02 371.02 1584.68 355.42C1586.43 354.66 1588.11 353.63 1588.41 353.15C1589.04 352.12 1578.8 347.7 1537.5 331.2C1521 324.6 1504.43 317.81 1500.68 316.11C1494.46 313.29 1493.89 312.78 1494.18 310.31C1494.47 307.85 1496.13 306.83 1511.61 299.55C1521.02 295.12 1537.67 287.56 1548.61 282.74C1573.35 271.85 1587.54 264.8 1587.36 263.5C1587.28 262.95 1578.06 258.98 1566.86 254.69C1555.66 250.39 1546.21 246.56 1545.85 246.19C1545.49 245.81 1545.02 221.56 1544.8 192.29C1544.59 163.02 1544.08 138.74 1543.67 138.33C1542.85 137.52 1110.82 137.86 1110 138.67C1109.72 138.94 1109.5 236.44 1109.5 355.33L1109.5 571.5L1148.79 572C1182.26 572.43 1188.21 572.72 1189.01 574C1189.68 575.08 1189.25 576.19 1187.45 578L1184.95 580.5L1104.13 580.5C1017.29 580.5 1020 580.66 1020 575.49C1020 573.99 1020.76 573.03 1022.25 572.63C1023.49 572.3 1041.24 572.02 1061.69 572.01C1088.96 572 1099.07 571.69 1099.6 570.83C1100.19 569.88 1100.26 138.86 1099.68 138.37C1098.93 137.76 853.77 137.54 852.13 138.15C850.96 138.58 850 139.56 850 140.33C850 142.83 840.47 150.8 836.06 151.98C832.7 152.89 830.83 152.8 826.49 151.54C821.19 150 820.05 149.02 813.26 140.21C811.75 138.25 810.3 137.85 803 137.35C798.33 137.03 792.92 137.19 791 137.7C787.65 138.58 787.47 138.86 786.9 144.06C785.26 158.95 778.03 176.58 768.44 189.07C757.47 203.35 737.41 218.25 733.51 215.01C732.68 214.32 732 212.57 732.01 211.13C732.02 209.02 733.19 207.74 738 204.65C751.12 196.19 763.03 182.95 769.98 169.08C773.38 162.31 778 145.9 778 140.62L778 137.5L753.66 137.29L729.32 137.09L726.35 141.29C722.93 146.12 715.99 150 710.79 150C702.85 150 695.22 144.94 692.3 137.75C690.96 134.44 690.36 133.98 687.14 133.84C676.46 133.38 335.37 133.29 329.25 133.75L321.99 134.29L322.25 310.4L322.5 486.5L332.5 487.17C351.46 488.45 369.86 495.51 387 508.09C399.32 517.13 409.19 529.64 417.87 547.2C425.7 563.04 426.5 567.05 426.5 590.5C426.5 609.94 426.42 610.74 423.6 619C419.34 631.51 416.69 637.14 410.72 646.29C393.17 673.21 365.87 689.81 332.25 694.04L322 695.32L322 869.66L322 1044L709.88 1044C1019.8 1044 1097.96 1043.75 1098.8 1042.74ZM2076.75 893.88C2076.95 774.91 2076.75 744.05 2075.75 743.29C2075.06 742.77 2072.93 741.74 2071 741.01C2063.12 738.02 2037.18 726.66 2032.77 724.27C2028.11 721.74 2025.96 718.64 2027.68 716.92C2028.99 715.61 2044.02 709.21 2078 695.49C2115.66 680.29 2122.6 677.18 2121.42 676.06C2120.59 675.27 2062.06 649.13 2056 646.84C2054.62 646.32 2047.77 643.15 2040.77 639.79C2027.88 633.61 2025.26 631.26 2028.15 628.47C2030.32 626.38 2049.89 618.03 2094.96 599.98C2117.36 591.01 2121.48 589.08 2120.43 588.06C2119.92 587.57 2112.97 584.49 2105 581.23C2027.77 549.63 2027.5 549.51 2027.5 546.03C2027.5 543.79 2029.31 542.72 2046.5 534.8C2056.95 529.99 2078.04 520.52 2093.36 513.76C2108.68 507.01 2121.28 501.03 2121.36 500.49C2121.44 499.94 2111.97 495.71 2100.32 491.09C2084.04 484.62 2078.98 482.19 2078.44 480.59C2078.05 479.44 2077.55 402.23 2077.32 309C2077.09 215.77 2076.74 138.99 2076.53 138.37C2076.25 137.53 2041.58 137.24 1944.08 137.26L1812 137.29L1812 228.17L1812 319.05L1814.51 320.01C1818.82 321.64 1822.85 325.17 1824.58 328.81C1825.51 330.76 1826.58 336.61 1827.01 342.07C1827.71 350.99 1828.15 352.53 1832.06 359.67C1834.42 363.98 1837.36 369.12 1838.59 371.09L1840.82 374.68L1854.66 375.33C1872.3 376.15 1883.59 378.14 1898 382.96C1916.92 389.29 1931.09 398.11 1944.1 411.64C1953.72 421.65 1956.18 427.62 1951.81 430.36C1950.39 431.25 1948.27 429.54 1938.81 419.87C1916.27 396.84 1898.59 389.03 1859.74 384.93C1853.27 384.24 1847.74 383.93 1847.45 384.22C1846.98 384.68 1853.96 398.74 1856.02 401.5C1856.43 402.05 1859.01 406.55 1861.75 411.5C1864.49 416.45 1867.75 422.3 1869 424.5C1884.86 452.53 1891 464.16 1891 466.17C1891 467.54 1888.06 471 1886.89 471C1885.24 471 1871.91 448.81 1845.58 402.25L1835.83 385L1829.01 385C1813.87 385 1780.46 392.49 1756.75 401.2C1747.51 404.6 1746.86 405.38 1749.5 410C1751.47 413.45 1751.34 414.75 1748.91 416.05C1746.49 417.34 1708.03 425.72 1700.25 426.65C1696.5 427.1 1695 426.93 1695 426.08C1695 424.43 1733 386 1734.64 386C1735.37 386 1737.13 388.3 1738.55 391.1C1741.63 397.17 1741.07 397.17 1757.86 391.08C1772.62 385.73 1792.98 380.6 1812.11 377.42C1820.52 376.02 1827.77 374.64 1828.23 374.36C1828.68 374.08 1826.92 369.79 1824.3 364.83L1819.55 355.81L1816.02 356.59C1814.09 357.02 1809.99 357.4 1806.91 357.43C1802.33 357.49 1800.58 356.99 1797.2 354.64C1792.41 351.32 1788 343.4 1788 338.12C1788 333 1791.54 326.55 1796.84 322.02L1801.5 318.04L1801.78 228.34C1801.99 158.74 1801.78 138.48 1800.84 137.9C1799.52 137.08 1558.63 136.83 1555.75 137.64C1554.11 138.1 1554 141.41 1554 188.95L1554 239.77L1559.25 241.82C1562.14 242.96 1572.06 246.84 1581.3 250.45C1601.25 258.25 1608 261.53 1608 263.44C1608 266.47 1605.35 267.83 1558 288.96C1552.22 291.54 1539.75 296.99 1530.28 301.08C1520.81 305.16 1513.04 308.83 1513.03 309.23C1512.98 310.48 1521.62 314.43 1546.52 324.53C1559.71 329.87 1574.1 335.71 1578.5 337.5C1592.83 343.31 1605.47 349.11 1606.93 350.54C1608.18 351.75 1608.11 352.22 1606.43 354.08C1603.82 356.96 1601.07 358.29 1559 377.01C1518.32 395.1 1513 397.64 1513 398.93C1513 399.42 1525.49 404.81 1540.75 410.89C1597.76 433.62 1608 438.09 1608 440.28C1608 443.75 1604.7 445.27 1548.07 467.97C1528.03 476.01 1511.51 483.01 1511.34 483.54C1511.18 484.07 1519.73 488.95 1530.34 494.38C1540.95 499.81 1550.47 504.87 1551.5 505.62C1553.21 506.88 1553.43 509.41 1554.22 536.74C1554.69 553.11 1555.32 569.31 1555.62 572.75L1556.16 579.01L1680.83 578.75L1805.5 578.5L1805.84 573C1806.15 567.86 1803.66 506.44 1802.4 488.35L1801.84 480.2L1797.08 477.24C1789.93 472.8 1786.7 467.99 1786.2 461.08C1785.86 456.35 1786.25 454.45 1788.45 450.11C1791.84 443.41 1796.46 441.05 1806.25 441.02C1812.65 441 1813.21 441.19 1817.15 444.75C1827.67 454.23 1827.38 465.21 1816.37 474.9L1811.67 479.05L1813.36 519.77C1815.4 569.05 1815.57 584.83 1814.04 586.36C1811.87 588.53 1795.25 588.84 1676.75 588.92L1557 589L1557.1 611.75C1557.15 624.26 1557.49 636.94 1557.85 639.92L1558.5 645.33L1566.54 647.92C1581.19 652.62 1591.86 660.94 1597.06 671.72C1598.87 675.46 1599.46 678.7 1599.79 686.67C1600.18 695.87 1599.99 697.35 1597.76 702.17C1594.89 708.41 1587.95 716.4 1580.95 721.53C1578.23 723.53 1576 725.47 1576 725.84C1576 726.2 1578.04 727.79 1580.54 729.36C1603.53 743.89 1607.1 771.41 1588.54 790.88C1585.49 794.07 1581.42 797.54 1579.5 798.57C1577.57 799.61 1576.01 800.91 1576.03 801.48C1576.04 802.04 1578.85 804.3 1582.27 806.5C1606.56 822.13 1606.42 854.91 1581.99 872.28C1578.72 874.6 1576.04 876.8 1576.03 877.17C1576.01 877.54 1577.69 878.87 1579.75 880.14C1589.63 886.22 1596.56 895.49 1599.5 906.56C1604.97 927.13 1587.48 951.46 1563.9 956.1L1558 957.26L1558 1000.63L1558 1044L1817.25 1043.75L2076.5 1043.5L2076.75 893.88ZM1682.25 842.35C1680.12 841.47 1680.87 840.28 1683.95 839.66C1688.94 838.66 1689.34 836.63 1689.42 811.5C1689.46 798.85 1689.15 787.26 1688.73 785.75C1688.11 783.52 1687.39 783 1684.9 783C1682.91 783 1681.97 782.56 1682.22 781.75C1682.72 780.11 1695.67 773.34 1696.57 774.24C1696.96 774.62 1697.65 788.69 1698.11 805.49C1698.6 823.37 1699.39 836.87 1700.01 838.02C1700.59 839.11 1701.99 840 1703.12 840C1704.31 840 1704.99 840.52 1704.75 841.25C1704.46 842.13 1701.23 842.56 1693.92 842.69C1688.19 842.79 1682.94 842.64 1682.25 842.35ZM1748.25 842.34C1746.35 841.57 1746.76 840 1748.85 840C1749.86 840 1751.55 839.05 1752.6 837.9C1754.33 835.98 1754.53 833.75 1754.83 813.15C1755.23 785.23 1754.74 780.3 1751.42 778.78C1746.79 776.67 1749.07 776 1760.75 776.03C1771.16 776.06 1772.29 776.23 1770.61 777.5C1769.57 778.28 1768.27 779.08 1767.72 779.26C1767.14 779.45 1766.68 784.95 1766.61 792.55L1766.5 805.5L1780.1 805.78C1790.21 805.98 1793.98 805.73 1794.75 804.78C1795.4 803.97 1795.59 799.16 1795.25 791.66C1794.74 780.45 1794.59 779.77 1792.36 778.75C1787.83 776.69 1790.08 776 1801.25 776.03C1811.36 776.06 1812.3 776.21 1810.56 777.53C1809.49 778.34 1808.23 779 1807.75 779C1807.28 779 1807.03 791.98 1807.19 807.85C1807.52 838.22 1807.79 840 1812.12 840C1814.41 840 1814.6 841.56 1812.42 842.39C1811.55 842.73 1806.19 843 1800.5 843C1790.29 843 1787 842.52 1787 841.02C1787 840.6 1788.33 839.98 1789.95 839.66C1794.51 838.75 1795.41 835.93 1795.46 822.5L1795.5 810.5L1780.66 810.29L1765.81 810.09L1766.16 824.08C1766.53 839.11 1766.82 839.92 1772 840.02C1774.41 840.06 1774.43 840.11 1772.56 841.53C1771.12 842.62 1767.89 842.98 1760.06 842.92C1754.25 842.88 1748.94 842.62 1748.25 842.34ZM347.13 682.11C361.8 678.33 378.83 668.32 390.57 656.57C410 637.15 419.16 612.5 417.71 583.62C416.52 560.19 408.72 543.13 390.83 524.9C377.96 511.78 363.87 503.34 347.2 498.79C335.91 495.71 309.97 495.74 298.5 498.86C282.94 503.09 268.81 511.12 257.14 522.39C238.16 540.72 228.6 562.86 228.6 588.5C228.6 614.27 235.19 632.33 251.51 651.28C267.48 669.82 285.86 680.54 307.54 683.96C316.73 685.41 338.24 684.4 347.13 682.11ZM314.61 658.75C312.8 655.93 312.1 642.55 312.04 609.75L312 585L306.97 585C303.48 585 301.77 584.55 301.38 583.54C301.07 582.73 303.8 572.33 307.45 560.41C314.75 536.56 316.42 532 317.87 532C318.81 532 323.06 542.39 337.18 579.23C339.05 584.1 337.87 585 329.62 585L322.17 585L321.84 620.9C321.52 654.53 321.38 656.92 319.6 658.9C317.18 661.56 316.39 661.54 314.61 658.75ZM2261 651.31C2258.25 649.89 2257.43 648.8 2257.19 646.25C2256.9 643.23 2257.09 643 2259.9 643C2261.56 643 2265.28 643.93 2268.15 645.06C2271.12 646.23 2274.39 646.87 2275.72 646.54C2279.28 645.64 2285.9 639.14 2286.83 635.63C2289.55 625.31 2278.41 613.11 2264.75 611.45C2260.53 610.94 2260 610.6 2260 608.42C2260 605.55 2269.07 587.02 2271.44 585.05C2272.53 584.15 2276.28 583.68 2282.98 583.61C2294.38 583.49 2296.23 584.33 2293.95 588.59C2292.04 592.16 2289.31 593 2279.6 593C2271.7 593 2271.27 593.12 2270.16 595.55C2268.08 600.11 2268.67 601.5 2273.25 602.75C2282.66 605.33 2293.18 615.13 2294.59 622.64C2294.96 624.62 2294.73 628.64 2294.07 631.58C2291.02 645.23 2271.62 656.8 2261 651.31ZM2205.75 651.38C2204.79 651.09 2204 650.25 2204 649.51C2204 648.77 2207.88 643.97 2212.62 638.83C2217.36 633.7 2223.27 626.87 2225.75 623.65C2236.42 609.83 2236.62 597.86 2226.26 592.99C2219.58 589.85 2215.74 590.85 2209.62 597.33L2204.75 602.5L2205.33 598.61C2205.66 596.47 2207.08 592.97 2208.5 590.82C2212.19 585.25 2216.36 583 2223 583.03C2236.78 583.07 2246.1 593.71 2242.59 605.37C2240.33 612.87 2231.5 625.43 2220.23 637.15C2217.77 639.72 2216.07 642.31 2216.45 642.92C2216.9 643.65 2220.58 643.89 2227.4 643.64C2235.92 643.32 2238.36 642.85 2241.76 640.89C2244.02 639.59 2246.12 638.79 2246.43 639.1C2247.21 639.88 2244.13 648.65 2242.63 649.89C2241.33 650.97 2208.73 652.29 2205.75 651.38ZM2331.67 651.33C2330.83 650.49 2330.78 635 2331.62 635C2331.96 635 2333.77 636.35 2335.65 638C2338.69 640.67 2339.78 641 2345.48 641C2349 641 2352.12 640.61 2352.41 640.14C2352.71 639.67 2351.21 638.5 2349.08 637.54C2331.85 629.76 2327.67 605.85 2341.14 591.98C2347.76 585.15 2352.52 583.53 2366 583.51C2379.15 583.5 2383.6 584.93 2390.94 591.57C2405.15 604.4 2403.1 624.7 2386.47 635.83C2379.36 640.59 2379.55 641.31 2387.84 640.84C2393.9 640.5 2395.35 640.04 2397.77 637.72C2399.33 636.22 2400.94 635 2401.35 635C2401.75 635 2401.95 638.71 2401.79 643.25L2401.5 651.5L2386.75 651.78L2372 652.05L2372 648.18C2372 642.02 2373.91 637.91 2379.55 631.92C2385.51 625.6 2386.99 621.65 2386.99 612C2386.99 604.28 2385.79 599.46 2382.74 594.94C2379.05 589.47 2374.65 587.52 2366 587.54C2353.75 587.56 2349.19 591.9 2346.91 605.7C2344.82 618.34 2347.89 628.04 2356.09 634.77C2358.92 637.08 2360.68 641.16 2361.16 646.5C2361.63 651.79 2361.05 652 2346.11 652C2338.53 652 2332.03 651.7 2331.67 651.33ZM26.08 620.11C22.3 619.75 19.49 618.99 19.24 618.25C19.01 617.54 19.67 617 20.76 617C21.82 617 23.55 616.05 24.6 614.9C26.33 612.99 26.53 610.77 26.81 590.65C26.98 578.47 26.74 566.7 26.27 564.5C25.51 560.92 25.08 560.47 22.15 560.18C17.45 559.73 18.58 558.03 26.26 554.01C31.4 551.32 33.19 550.79 34.11 551.71C34.93 552.53 35.57 562.34 36.18 583.7C36.66 600.64 37.23 615 37.45 615.61C37.66 616.22 39.3 617.01 41.1 617.37C49.31 619.01 37.42 621.17 26.08 620.11ZM87 620.31C82.73 619.49 82.67 618.33 86.65 614.35C90.48 610.52 90.82 609.81 111.95 562C114.69 555.79 117.17 551.5 118.01 551.5C119.4 551.5 124.37 561.95 133.46 584C142.29 605.4 146.71 613.93 149.94 615.77C151.62 616.72 152.84 617.95 152.66 618.5C151.9 620.88 128 621.02 128 618.64C128 618.06 129.19 616.63 130.64 615.47C132.91 613.66 133.19 612.87 132.6 609.93C132.23 608.04 130.92 604.48 129.71 602L127.5 597.5L115 597.24L102.5 596.97L99.75 603.44C96.08 612.06 96.13 614.85 100 616.31C102.95 617.42 103.72 618.45 102.25 619.33C100.97 620.09 89.63 620.82 87 620.31ZM768.44 619.59C764.09 617.7 758.37 610.61 755.94 604.11C752.96 596.14 752.21 580.55 754.41 572.02C757.74 559.06 765.14 551 773.7 551C779.46 551 782.74 552.8 788.36 559.06C794.56 565.95 796 571.14 796 586.52C796 598.05 795.84 598.99 792.97 604.74C789.37 611.94 782.69 618.44 777.35 619.92C772.58 621.25 772.21 621.23 768.44 619.59ZM808.56 618.78C805.42 614.3 807.17 610 812.13 610C817.52 610 819.77 615.23 816 619C813.38 621.62 810.49 621.54 808.56 618.78ZM846.57 619.94C841.3 619.02 835.06 612.4 832.01 604.47C830.08 599.48 829.69 596.53 829.64 586.5C829.55 569.35 833.38 559.09 841.99 553.39C845.39 551.14 846.77 550.82 851.42 551.2C857.79 551.73 862.67 554.94 866.62 561.19C871.05 568.21 872 572.43 872 585.09C872 599.16 870.19 605.23 863.86 612.42C857.89 619.2 853.44 621.13 846.57 619.94ZM894.25 620.27C891.39 620.01 890 619.41 890 618.44C890 617.65 890.89 617 891.98 617C893.06 617 894.73 615.81 895.68 614.37C897.19 612.05 897.4 608.82 897.38 588.12C897.37 575.13 897.03 563.49 896.61 562.25C896.03 560.49 895.11 560 892.35 560C890.2 560 888.98 559.56 889.21 558.88C890.02 556.43 904.97 549.72 906.2 551.25C906.31 551.39 906.65 566.12 906.95 583.99L907.5 616.48L910.44 616.99C914.66 617.72 914.17 619.35 909.5 620.18C905.37 620.91 901.6 620.93 894.25 620.27ZM961.25 620.28C954.37 619.87 952.55 617.7 958.06 616.49C959.92 616.08 961.42 614.97 961.87 613.66C962.29 612.47 962.6 599.53 962.56 584.91C962.5 556.33 962.26 555 957.38 555C954.69 555 954.19 553.52 956.58 552.61C957.45 552.27 968.42 552 980.97 552C1006.89 552 1004.96 551.27 1004.99 561.08C1005 567.15 1004.16 567.7 1001.31 563.51C997.86 558.42 994.1 556.91 983.38 556.27L974 555.71L974 568.85L974 582L980.25 582C987.52 581.99 993 579.38 993 575.93C993 574.7 993.52 574 994.25 574.25C995.1 574.53 995.59 577.63 995.79 583.99C996.1 594.06 995.07 597 992.84 592.36C991.11 588.75 988.08 587.32 980.25 586.44L974 585.74L974.01 593.62C974.01 597.95 974.31 604.59 974.66 608.37C975.29 615.04 975.41 615.27 978.79 616.68C980.7 617.48 981.87 618.51 981.38 618.96C980.22 620.03 969.13 620.76 961.25 620.28ZM777.03 615.48C780.82 613.52 782.66 609.84 784.65 600.26C786.44 591.65 786.06 571.73 783.97 564.62C781.74 557.02 775.01 553.11 770.25 556.66C765.58 560.15 764.66 564.72 764.58 585C764.49 605.16 765.85 612.38 770.3 615.5C772.96 617.36 773.4 617.36 777.03 615.48ZM855.51 613.69C860.45 608.75 861.44 603.92 861.47 584.5C861.5 568.64 861.34 567.18 859.15 562.72C855.31 554.93 848.12 552.84 844.44 558.45C838.45 567.6 837.67 596.69 843.1 608.95C847.04 617.86 850.15 619.05 855.51 613.69ZM124.35 590C124.18 587.28 116.11 569 115.08 569C114.2 569 105.98 588.13 105.99 590.18C106 592.39 108 592.84 117 592.65C124.34 592.5 124.5 592.45 124.35 590ZM1811.47 466.9C1816.02 462.9 1816.36 457.77 1812.37 453.03C1809.97 450.18 1809.29 449.93 1804.65 450.2C1800.13 450.47 1799.31 450.88 1797.28 453.9C1794.05 458.71 1794.35 462.16 1798.37 466.43C1802.75 471.07 1806.56 471.21 1811.47 466.9ZM1069.55 416.92C1067.59 411.52 1054.01 367.25 1054 366.25C1054 365.4 1055.75 365 1059.44 365C1062.7 365 1065.21 364.5 1065.69 363.75C1066.42 362.62 1066.86 329.95 1066.96 268.75L1067 247L1069.35 247C1070.63 247 1072.55 247.95 1073.6 249.1C1075.41 251.11 1075.52 253.94 1076 307.85L1076.5 364.5L1081.75 364.8C1085.47 365.02 1087 365.52 1087 366.52C1087 368.7 1071.97 416.37 1070.96 417.42C1070.42 417.97 1069.86 417.77 1069.55 416.92ZM1300.13 364.29C1284.96 356.82 1280.65 322.09 1292.65 303.96C1294.11 301.74 1297.02 299.2 1299.42 298.04C1310.84 292.51 1321.98 299.27 1326.65 314.56C1329.16 322.78 1329.11 339.36 1326.55 347.32C1324.07 355.03 1317.63 362.26 1311.31 364.41C1305.52 366.38 1304.34 366.37 1300.13 364.29ZM1352.5 364.83C1347.91 363.18 1344.21 359.17 1340.69 352.04C1337.64 345.84 1337.49 344.95 1337.17 331.63C1336.81 316.31 1337.67 312.38 1343.14 304.34C1352.55 290.52 1368.65 294.07 1376.74 311.75C1379.04 316.77 1379.16 317.93 1378.82 331.29C1378.48 344.36 1378.24 345.91 1375.78 350.61C1372.45 356.99 1368.56 361.66 1365.1 363.45C1361.18 365.48 1355.91 366.05 1352.5 364.83ZM1245.25 364.34C1243.1 363.47 1243.88 362.27 1247.02 361.65C1249.03 361.24 1250.36 360.19 1251.02 358.46C1252.5 354.56 1252.3 307.7 1250.8 306.2C1250.14 305.54 1248.3 305 1246.72 305C1244.88 305 1243.97 304.55 1244.21 303.75C1244.67 302.2 1254.63 297.13 1257.93 296.77C1261.42 296.38 1261.74 298.89 1262.48 331.92C1262.82 347.57 1263.34 360.73 1263.61 361.18C1263.89 361.63 1265.27 362 1266.68 362C1268.85 362 1269.05 362.23 1268 363.5C1267.03 364.66 1264.48 364.98 1256.63 364.92C1251.06 364.88 1245.94 364.62 1245.25 364.34ZM1412.02 357.78C1412.03 350.81 1413.49 345.86 1414.67 348.77C1415.98 352.02 1418.27 353 1424.51 353C1428.02 353 1431.11 352.63 1431.39 352.18C1431.66 351.73 1430.45 350.55 1428.7 349.54C1419.97 344.57 1415.01 337 1414.26 327.53C1413.67 320.19 1415.03 314.81 1418.93 308.94C1427.54 296.01 1448.42 292.08 1465.6 300.15C1477.76 305.87 1483.94 320.13 1480.14 333.66C1478.77 338.52 1471.76 346.74 1466.59 349.52C1464.62 350.58 1463 351.8 1463 352.23C1463 352.65 1465.86 353 1469.37 353C1474.22 353 1476.34 352.52 1478.27 351C1482.57 347.62 1483.11 348.3 1482.79 356.75L1482.5 364.5L1467.75 364.78L1453 365.05L1453.02 361.78C1453.07 355.02 1454.79 350.78 1459.37 346.11C1465.77 339.59 1467.95 334.21 1467.98 324.93C1468.02 310.79 1463.28 303.3 1452.88 301.07C1442.48 298.84 1435.03 301.68 1430.33 309.69C1427.73 314.11 1427.51 315.28 1427.59 324.16C1427.66 332.57 1428.03 334.54 1430.44 339.46C1432.31 343.29 1434.42 345.87 1437.03 347.52C1440.96 350 1441.67 351.87 1442.3 361.5L1442.5 364.5L1427.25 364.78L1412 365.05L1412.02 357.78ZM1008.19 361.97C999.62 356.75 999.48 338.91 1007.97 334.52C1013.92 331.44 1023.15 333.05 1025.19 337.52C1026.16 339.64 1026.06 340.36 1024.62 341.79C1022.97 343.41 1022.68 343.26 1019.13 339.12C1016.08 335.57 1014.96 334.88 1013.16 335.45C1009.36 336.66 1007.7 340.37 1008.21 346.55C1009.04 356.56 1014.72 360.63 1020.75 355.55C1026.7 350.55 1028.26 353.81 1022.39 358.96C1018.88 362.04 1015.1 364 1012.68 364C1012.03 363.99 1010.01 363.08 1008.19 361.97ZM1934.08 363.07C1932.25 361.92 1933.47 359.98 1941.84 350.76C1953.8 337.56 1955.59 328 1946.65 325.05C1942.44 323.66 1938.98 324.85 1936.58 328.52C1935.38 330.35 1934.49 330.89 1933.79 330.19C1932.33 328.73 1936.82 321.14 1940.19 319.4C1947.62 315.56 1959 321.47 1959 329.17C1959 333.51 1954.97 340.59 1947.6 349.22C1943.97 353.46 1941 357.22 1941 357.58C1941 358.28 1952.54 357.5 1957.74 356.44L1960.97 355.78L1959.88 358.91C1959.28 360.63 1957.97 362.48 1956.96 363.02C1954.67 364.25 1936 364.29 1934.08 363.07ZM1310.39 359.91C1315.08 356.22 1317.16 350.6 1318.09 339.06C1319.02 327.7 1317.8 312.9 1315.49 307.34C1313.61 302.81 1310.43 300 1307.25 300.03C1301.44 300.1 1298.39 305.3 1296.84 317.78C1294.72 334.9 1297.38 354.47 1302.53 359.62C1305.45 362.54 1306.97 362.6 1310.39 359.91ZM1359.95 360.52C1366.3 357.24 1369.02 348.24 1368.96 330.7C1368.92 318.24 1367.22 307.51 1364.66 303.61C1361.42 298.66 1354.22 298.95 1351.05 304.15C1348.18 308.88 1346.64 321.94 1347.28 336.11C1347.93 350.5 1348.97 354.69 1352.93 358.92C1356.25 362.48 1356.19 362.47 1359.95 360.52ZM1892.5 348.36C1888.06 347.27 1886.03 347.17 1884.71 347.98C1883.72 348.58 1882.49 348.8 1881.96 348.47C1881.43 348.15 1881 343.41 1881 337.94C1881 330.08 1881.29 328 1882.4 328C1883.17 328 1884.3 329.42 1884.91 331.16C1887.88 339.7 1894.75 344.99 1902.87 345C1907.77 345 1908.57 344.66 1912.12 341.12C1916.59 336.64 1917.28 332.28 1914.01 329.01C1912.92 327.92 1906.24 323.26 1899.18 318.66C1883.89 308.69 1882 306.29 1882 296.88C1882.01 288.92 1884.15 285.07 1890.22 282.14C1895.56 279.55 1902.18 279.39 1910.2 281.64C1915.76 283.2 1916.14 283.19 1918.08 281.43C1921.03 278.76 1921.97 280.84 1921.97 290C1921.97 301.63 1920.13 305.74 1918.14 298.53C1915.88 290.37 1908.87 285 1900.47 285C1894.59 285 1892.18 286.33 1890.42 290.53C1887.83 296.73 1890.55 300.01 1905.74 309.08C1922.62 319.17 1926.71 324 1925.73 332.74C1924.62 342.54 1915.11 350.08 1904.05 349.92C1901 349.87 1895.8 349.17 1892.5 348.36ZM976 347.66C976 346.88 977.01 345.57 978.25 344.75C980.44 343.3 980.5 342.77 980.5 326.43L980.5 309.6L978.07 309.02C974 308.05 974.68 306.4 980.1 304.15C986.87 301.33 988.83 301.42 990.02 304.57C990.56 305.98 991 315.64 991 326.05L991 344.96L993.54 345.6C994.94 345.95 995.92 346.75 995.71 347.37C995.48 348.08 991.74 348.61 985.67 348.79C977.87 349.02 976 348.8 976 347.66ZM1811.09 347.95C1812.79 347.04 1812.97 346.23 1812.4 341.97C1811.78 337.31 1811.89 336.99 1814.37 336.05C1817.68 334.79 1817.68 333.68 1814.37 331.07C1812.6 329.69 1810.27 329 1807.32 329C1801.58 329 1798 332.27 1798 337.5C1798 346.1 1804.64 351.4 1811.09 347.95ZM775.75 346.33C773.64 345.75 773.65 345.91 775.49 342.36C776.61 340.23 776.99 335.99 776.99 325.7C777 312.27 776.93 311.84 774.5 309.59C773.12 308.31 772 306.99 772 306.66C772 306.32 773.85 305.1 776.12 303.94C779.18 302.38 780.53 302.13 781.37 302.97C782.09 303.68 782.73 311.14 783.11 323.3C783.45 333.86 783.9 343.4 784.11 344.5C784.44 346.17 783.92 346.53 781 346.66C779.08 346.74 776.71 346.6 775.75 346.33ZM729 333.32C720.27 331.77 717.08 331.49 715 332.08C713.75 332.43 713.45 330.79 713.21 322.15C712.88 310.05 713.72 309.48 718.46 318.56C720.91 323.26 722.48 324.97 725.99 326.75C736.23 331.95 748 327.29 748 318.05C748 315.09 741.57 309.1 732.44 303.57C717.43 294.47 713 289.38 713 281.25C713 276.05 716.77 268.96 720.76 266.68C725.62 263.88 734.63 263.38 741.43 265.52C745.71 266.87 747.38 267.02 748.25 266.15C748.88 265.52 750.44 265 751.7 265C753.92 265 754 265.3 753.99 273.25C753.97 281.52 753.32 286.02 752.13 285.97C751.79 285.96 750.15 283.16 748.5 279.75C744.81 272.11 740.2 269.04 732.38 269.02C725.44 268.99 722 271.64 722 277C722 282.45 725.18 285.74 737.62 293.19C743.42 296.66 749.88 301.07 751.97 303C759.11 309.56 759.47 318.36 752.93 326.27C747.14 333.29 740.25 335.32 729 333.32ZM982.49 286.58C979.75 283.84 979.38 282.02 981.2 280.2C982.9 278.5 988.51 278.71 990.02 280.53C991.62 282.45 990.05 286.37 987.04 287.98C985.34 288.89 984.56 288.65 982.49 286.58ZM838.01 140.34C842.35 136.68 843.33 133.72 841.57 129.52C838.96 123.27 829.83 121.13 824.88 125.61C822.29 127.95 822.51 128.65 826.07 129.36C828.71 129.89 829.09 130.36 828.82 132.74C828.62 134.45 827.64 135.88 826.25 136.49C823.23 137.81 823.41 139.62 826.75 141.43C830.87 143.66 834.48 143.31 838.01 140.34ZM714.78 138.7C715.76 137.94 715.53 137.45 713.78 136.58C712.44 135.92 711.37 134.36 711.19 132.8C710.91 130.4 711.29 130.06 715.11 129.3C720.3 128.28 720.95 126.78 717.55 123.63C712.54 118.99 705.9 119.57 702.25 124.97C699.49 129.05 699.42 131.54 701.97 135.71C704.77 140.31 710.86 141.73 714.78 138.7Z" fill="#1e2749" fill-rule="evenodd"/>
</svg>
