<?xml version="1.0" encoding="UTF-8"?>
<svg xmlns="http://www.w3.org/2000/svg" viewBox="0 0 2430 1441" width="2430" height="1441" shape-rendering="geometricPrecision">
<path d="M1117.11 1421.93C1109.53 1420.59 1102.36 1416.48 1101.05 1412.72C1099.52 1408.34 1099.68 1400 1101.3 1400C1102.01 1400 1107.84 1401.8 1114.26 1404C1129.04 1409.07 1135.98 1409.36 1144.02 1405.25C1151.45 1401.45 1155.21 1396.47 1155.78 1389.68C1156.11 1385.6 1155.72 1383.38 1154.12 1380.23C1149.98 1372.12 1141.83 1368.18 1127.5 1367.36C1122.55 1367.07 1117.28 1366.38 1115.79 1365.82C1111.05 1364.02 1109.61 1355.16 1113.79 1353.51C1114.73 1353.14 1119.69 1352.43 1124.81 1351.94C1129.93 1351.44 1136.01 1350.21 1138.31 1349.19C1153.24 1342.58 1155.1 1321.91 1141.3 1315.81C1134.83 1312.95 1127.54 1313.74 1116.83 1318.48C1105.04 1323.7 1105.21 1323.67 1103.96 1320.41C1102.33 1316.12 1103.78 1310.01 1107.17 1306.84C1112.71 1301.66 1119.99 1299.74 1134.5 1299.61C1150.17 1299.48 1154.13 1300.51 1160.77 1306.48C1166.11 1311.28 1169.63 1317.99 1170.62 1325.27C1171.84 1334.14 1167.01 1345.95 1159.1 1353.44C1157.39 1355.05 1156 1356.92 1156 1357.58C1156 1358.25 1158.23 1360.22 1160.95 1361.97C1167.49 1366.17 1172.32 1371.64 1174.49 1377.34C1176.94 1383.75 1176.22 1394.85 1172.92 1401.45C1169.67 1407.95 1161.5 1415.91 1154.4 1419.51C1148.93 1422.27 1147.77 1422.47 1135.54 1422.67C1128.37 1422.78 1120.08 1422.45 1117.11 1421.93ZM819.66 1378.95C812.32 1377.72 801.22 1374.14 794.98 1370.99C777.15 1361.99 763.76 1343.04 756.82 1317C754.2 1307.16 753.24 1279.55 754.97 1263.89C758.79 1229.28 774.2 1204.93 800.5 1191.96C813.25 1185.67 819.11 1184.48 837 1184.6C850.33 1184.69 853.88 1185.07 862.32 1187.31C874.49 1190.55 887.61 1197.3 890.74 1201.94C893.86 1206.58 894.04 1218.75 891.02 1221.48C888.74 1223.54 882.98 1223.2 878.31 1220.71C876.76 1219.89 872.58 1217.63 869 1215.69C840.68 1200.31 805.77 1209.34 792.99 1235.35C785.72 1250.14 784.64 1256.22 784.56 1282.5C784.5 1303.74 784.67 1306.05 786.77 1312.67C792.46 1330.65 801.76 1343.4 813.93 1349.88C821.24 1353.78 833.26 1355.53 846.5 1354.62C855.13 1354.04 856.14 1353.7 871 1346.5C879.52 1342.36 887.73 1338.99 889.23 1338.99C892.82 1339 895.17 1342.65 895.16 1348.2C895.15 1353.9 893.83 1357.07 889.44 1361.93C877.67 1374.96 844.33 1383.09 819.66 1378.95ZM938 1378.15L935.5 1377.41L935.19 1309.95C935.02 1272.85 935.18 1229.77 935.55 1214.22L936.23 1185.94L947.86 1186.22L959.5 1186.5L960.12 1197.5C960.47 1203.55 960.8 1220.99 960.87 1236.26L961 1264.02L1003.75 1263.76L1046.5 1263.5L1047 1226.17C1047.48 1190.68 1047.6 1188.77 1049.44 1187.42C1052.17 1185.43 1071.27 1185.41 1072.92 1187.4C1073.79 1188.45 1074.01 1212.16 1073.79 1281.37L1073.5 1373.95L1071.37 1376.08C1068.62 1378.83 1058.33 1379.79 1052.5 1377.84C1048.55 1376.52 1048.49 1376.43 1047.86 1370.5C1047.51 1367.2 1047.17 1347.55 1047.11 1326.84L1047 1289.18L1040.75 1288.84C1037.31 1288.65 1018.26 1288.62 998.4 1288.77L962.31 1289.05L961.6 1332.27C961 1368.4 960.65 1375.75 959.41 1377C957.77 1378.66 942.49 1379.48 938 1378.15ZM813.4 1124.66C810.72 1122.36 810.67 1122.11 809.75 1104.91C808.68 1084.77 809.69 852.49 810.92 838.09C811.81 827.58 812.84 826 818.77 826C824.06 826 827.54 830.13 828.46 837.52C829.41 845.1 829.42 1093.71 828.48 1110.19C827.88 1120.62 827.46 1122.84 825.71 1124.75C822.88 1127.84 817.04 1127.8 813.4 1124.66ZM392 828.01C382.94 827.27 374.01 823.76 372.11 820.2C371.58 819.21 370.83 815.61 370.44 812.2C369.58 804.56 369.53 804.56 384.07 809.64C397.72 814.4 405.68 815.05 412.78 812C418.96 809.34 424.46 803.62 425.93 798.32C427.43 792.92 427.31 792.02 424.41 786.2C420.01 777.36 413.59 774.33 396.54 773.03C387 772.31 385.35 771.91 383.79 769.99C381.62 767.3 381.45 761.7 383.49 760.01C384.31 759.33 388.92 758.35 393.74 757.83C406.14 756.5 409.56 755.39 414.21 751.2C419.15 746.74 421 742.67 421 736.27C421 729.67 418.33 725.02 412.93 722.18C406.44 718.77 398.44 719.52 385.5 724.75C374.43 729.22 374.04 729.13 374.02 722.2C373.99 715.89 376.16 712.56 382.23 709.59C389.58 706 397.75 704.71 410.06 705.21C425.41 705.83 432.01 709.59 438.24 721.28C440.09 724.76 440.49 727.09 440.49 734.5C440.49 745.23 438.69 749.49 430.65 757.85L425.5 763.19L428.41 765.35C430.01 766.53 433.16 768.87 435.41 770.54C450.05 781.43 450.39 802.75 436.16 816.91C428.86 824.18 423.3 826.94 413.75 828.04C404.88 829.06 404.78 829.06 392 828.01ZM2355.5 828.05C2347.31 827.26 2339.6 824.42 2336.57 821.08C2335.61 820.01 2334.7 816.61 2334.33 812.64C2333.75 806.37 2333.83 806 2335.81 806C2336.96 806 2342.31 807.64 2347.7 809.65C2355.98 812.74 2358.81 813.32 2366 813.4C2373.33 813.49 2375.11 813.16 2378.91 811C2385.69 807.16 2389.24 802.1 2389.79 795.51C2390.37 788.53 2388.89 784.95 2383.42 780.14C2378.02 775.39 2373.17 773.9 2360.29 773.05C2349.23 772.32 2346.64 771.13 2345.72 766.34C2344.55 760.22 2347.03 758.63 2359.26 757.63C2369.12 756.82 2373.9 755.06 2378.61 750.53C2383.62 745.7 2385.55 740.19 2384.56 733.56C2382.54 720.09 2368.22 716.22 2350.58 724.37C2346.26 726.37 2341.66 728 2340.36 728C2338.15 728 2338 727.63 2338 722.22C2338 715.2 2339.49 712.8 2345.85 709.57C2352.67 706.12 2361.37 704.71 2373.19 705.15C2382.03 705.48 2384.36 705.94 2389.28 708.35C2399.62 713.41 2405.83 724.94 2404.73 737.04C2404.03 744.72 2401.33 750.4 2395.16 757.14C2392.32 760.24 2390 763.17 2390.01 763.64C2390.01 764.11 2392.68 766.22 2395.94 768.32C2404.6 773.9 2408.54 779.51 2409.97 788.33C2412.3 802.61 2403.41 817.83 2388.59 824.96C2383.55 827.38 2380.86 827.97 2373 828.35C2367.78 828.6 2359.9 828.47 2355.5 828.05ZM94.25 786.9C83.35 785.63 75.42 783.34 66 778.72C50.41 771.09 37.44 754.89 30.42 734.26C26.29 722.13 25.12 715.16 24.33 698C22.43 656.29 34.41 623.86 58.5 605.53C66.87 599.17 73 596 83.03 592.85C89.69 590.76 92.35 590.51 107.5 590.56C126.77 590.62 135.76 592.37 148.5 598.52C156.57 602.41 160.64 605.9 162.61 610.61C165.17 616.73 163.75 628.92 160.26 630.87C158.09 632.09 155.71 631.12 145.64 624.97C119.85 609.21 91.31 610.5 73.57 628.24C60.04 641.77 54.04 662.35 54.01 695.29C53.99 720.47 64.42 744.32 80 754.74C89.65 761.19 94.37 762.24 111.9 761.84L126.67 761.5L140.58 754.63C160.29 744.91 161.73 744.63 164.54 750.07C167.7 756.19 165.24 764.63 158.37 771.2C153.74 775.63 140.15 782.13 130.65 784.46C123.8 786.14 108.71 788.06 104 787.85C102.62 787.79 98.24 787.36 94.25 786.9ZM832.87 786.96C810.3 784.33 793.08 774.78 781.42 758.45C775.84 750.62 768.72 735.53 766.59 727C762.24 709.55 761.88 673.34 765.9 657.27C770.4 639.28 778.2 624.12 788.73 612.86C794.25 606.95 807.25 598.19 815 595.15C840.66 585.07 881.29 590.27 898.21 605.81C903.28 610.46 904.1 627.26 899.42 630.68C897.14 632.35 895.05 631.69 887.4 626.86C864.37 612.32 841.9 610.01 822.78 620.2C802.86 630.82 793.03 654.38 793.01 691.57C793 707.18 793.91 713.85 797.59 725.13C805.23 748.53 821.02 761.19 844.36 762.63C857.15 763.43 864.81 761.56 881.52 753.58C889.72 749.66 896.61 747 898.54 747C901.39 747 901.98 747.48 903.39 751.02C904.28 753.23 905 755.82 904.99 756.77C904.97 760.14 900.27 768.56 896.62 771.76C888.37 779 871.69 785.03 854.67 786.93C844.17 788.1 842.64 788.1 832.87 786.96ZM2058.47 787.04C2029.56 783.77 2010.67 770.29 1998.04 743.93C1991.55 730.39 1989.01 718.49 1988.32 698.5C1986.98 659.47 1994.4 634.29 2013.43 613.25C2018.89 607.22 2031.98 598.3 2040 595.15C2065.53 585.12 2108.82 590.68 2123.36 605.86C2130.44 613.24 2128.34 633.83 2120.75 631.42C2119.57 631.05 2114.76 628.35 2110.05 625.44C2094.76 615.95 2077.5 612.12 2062.5 614.88C2053.95 616.46 2043.26 622.02 2037.25 628.03C2031.67 633.62 2025.46 644.71 2022.17 655C2017.64 669.16 2016.52 701.23 2020.04 716C2024.81 735.97 2035.44 751.17 2049.48 758.07L2056.46 761.5L2073.48 761.5L2090.5 761.5L2105.39 754.25C2124.79 744.8 2127.75 744.8 2129.52 754.24C2130.41 759 2126.89 766.96 2121.91 771.46C2109.59 782.59 2081.06 789.6 2058.47 787.04ZM210.41 786.12C208.71 785.68 206.87 785.03 206.3 784.69C205.23 784.02 205.48 604.56 206.57 596.25L207.12 592L217.86 592C224.88 592 229.02 592.42 229.8 593.2C230.68 594.08 231 601.86 231 621.95C231.01 637.1 231.3 654.57 231.66 660.76L232.31 672.02L274.4 671.76L316.5 671.5L317.11 634C317.45 613.38 317.78 596.19 317.86 595.82C317.94 595.45 318.71 594.44 319.57 593.57C320.81 592.34 323.46 592 332.01 592C337.99 592 343.12 592.39 343.41 592.86C344.18 594.1 344.8 754.08 344.1 769.83C343.35 786.43 343.49 786.28 330.3 785.82C324.64 785.62 320.61 785.02 319.84 784.24C318.03 782.43 317.16 764.64 317.08 727.6L317 695.7L275.26 696.43C252.3 696.83 233.28 697.38 233.01 697.66C232.73 697.94 232.36 717.26 232.19 740.6L231.88 783.03L229.54 784.57C226.84 786.34 214.97 787.3 210.41 786.12ZM1413.24 785.89C1398.12 783.37 1385.57 776.79 1374.33 765.47C1367.45 758.55 1365.35 755.59 1361.08 746.85C1353.3 730.92 1350.97 720.37 1350.29 698C1349.93 686.18 1350.17 675.72 1350.94 669.05C1354.96 634.57 1373.77 606.89 1400.9 595.53C1423.21 586.18 1460.02 589.02 1479.7 601.59C1488.04 606.92 1490.25 612.11 1489.01 623.41C1487.97 632.88 1485.04 633.76 1475.4 627.5C1466.91 621.98 1458.19 617.97 1450.23 615.93C1424.8 609.43 1400.25 619.68 1389.7 641.23C1381.73 657.49 1379.47 671.06 1380.22 698C1380.62 712.1 1380.94 714.31 1383.76 722.5C1390.1 740.93 1398.92 752.23 1411.7 758.28L1418.5 761.5L1435 761.5L1451.5 761.5L1468.09 753.75C1477.21 749.49 1485.4 746 1486.3 746C1489.45 746 1491.84 754.73 1490.55 761.57C1489.15 769.06 1478.16 777.59 1463.71 782.41C1451.3 786.54 1427.15 788.21 1413.24 785.89ZM1537.5 786.41C1536.4 786.14 1534.49 785.71 1533.25 785.44L1531 784.96L1531.13 707.73C1531.2 665.25 1531.54 621.95 1531.88 611.5L1532.5 592.5L1543.41 592.21C1549.95 592.04 1554.74 592.34 1555.36 592.96C1556 593.6 1556.59 608.3 1556.94 632.74L1557.5 671.5L1598.88 671.76C1627.78 671.94 1640.67 671.69 1641.59 670.93C1642.63 670.06 1642.97 661.9 1643.2 632.33C1643.49 596.55 1643.59 594.77 1645.44 593.42C1648.16 591.43 1667.27 591.41 1668.91 593.39C1669.77 594.43 1670 618.66 1669.78 688.48L1669.5 782.18L1667.14 784.09C1665.3 785.58 1663.18 786 1657.54 786C1650.75 786 1644.18 784.63 1643.86 783.15C1643.78 782.79 1643.44 763.15 1643.11 739.5L1642.5 696.5L1637.5 696.16C1634.75 695.97 1615.74 696.14 1595.25 696.53L1558 697.23L1558 717.96C1558 729.35 1557.7 748.9 1557.34 761.39C1556.73 782.26 1556.52 784.18 1554.79 785.11C1552.67 786.25 1540.58 787.15 1537.5 786.41ZM2177.5 786.41C2176.4 786.14 2174.49 785.71 2173.25 785.44L2171 784.96L2171 710.23C2171 669.13 2171.3 625.71 2171.66 613.75L2172.32 592L2183.6 592C2190.92 592 2195.13 592.4 2195.58 593.13C2195.97 593.75 2196.56 611.64 2196.89 632.88L2197.5 671.5L2238.88 671.76C2267.78 671.94 2280.67 671.69 2281.59 670.93C2282.63 670.06 2282.97 661.9 2283.2 632.33C2283.49 596.55 2283.59 594.77 2285.44 593.42C2288.17 591.43 2307.27 591.41 2308.92 593.4C2309.78 594.45 2310 618.45 2309.79 688.49L2309.5 782.18L2307.03 784.18C2304.89 785.91 2303.38 786.14 2295.81 785.84C2289.07 785.58 2286.66 785.09 2285.28 783.72C2283.64 782.07 2283.46 778.48 2283 739.22L2282.5 696.5L2258.5 696.56C2245.3 696.59 2226.29 696.7 2216.25 696.81L2198 697L2198 714.84C2198 724.65 2197.7 744.25 2197.34 758.39C2196.73 782.2 2196.54 784.18 2194.79 785.11C2192.67 786.25 2180.58 787.15 2177.5 786.41ZM530.27 708.28C528.07 704.91 528 692.57 530.17 690.4C531.29 689.28 541.07 688.91 582.53 688.43C610.56 688.11 643.8 688.24 656.38 688.72C678.56 689.57 679.32 689.67 681.13 691.91C683.94 695.38 683.68 703.1 680.63 706.65L678.25 709.41L655.88 710.13C643.57 710.52 610.67 710.88 582.77 710.92L532.05 711L530.27 708.28ZM1048.2 708.8C1046.5 707.1 1046.63 693.88 1048.37 691.51C1049.59 689.84 1051.95 689.54 1070.12 688.75C1095.66 687.64 1188.09 688.46 1193.39 689.84C1199.51 691.43 1200.54 693.06 1200.25 700.69C1200.11 704.33 1199.49 707.91 1198.87 708.65C1197.32 710.52 1050.07 710.67 1048.2 708.8ZM1755.48 708.97C1754.61 707.57 1754.3 691.36 1755.13 690.54C1756.67 689 1808.73 687.82 1851.5 688.36C1893.47 688.89 1904.85 689.52 1906.74 691.41C1907.11 691.78 1907.59 694.88 1907.81 698.3C1908.13 703.43 1907.85 704.97 1906.19 707.01L1904.18 709.5L1830.17 709.78C1777.62 709.98 1755.96 709.75 1755.48 708.97ZM819.78 552.89C817.74 551.84 815.6 550.12 815.03 549.06C814.34 547.76 814 499.78 814 402.12L814 257.1L817.34 254.55C821.59 251.31 825.41 251.31 829.66 254.55L833 257.1L833 402.98L833 548.86L830.25 550.79C824.59 554.75 823.74 554.92 819.78 552.89ZM1412.25 551.88L1409 549.8L1409 402.97L1409 256.14L1411.9 254.07C1415.66 251.39 1419.18 251.45 1423.5 254.25L1426.98 256.5L1426.99 402.71L1427 548.93L1423.27 551.46C1418.75 554.53 1416.51 554.62 1412.25 551.88ZM817.25 220.97C791.47 217.72 771.87 205.94 760.18 186.66C754.8 177.77 750.2 163.36 748.4 149.73C746.21 133.18 746.99 99.13 749.82 88C758.33 54.49 777.9 33.02 806.73 25.57C819.96 22.14 849.65 22.68 864.77 26.61C887.95 32.64 905.86 50.85 913.34 76C919.64 97.19 920.56 129.94 915.53 153.85C908.5 187.28 885.8 211.54 854.5 219.07C845.03 221.35 827.41 222.25 817.25 220.97ZM571.68 218.61C569.57 217.83 567.55 216.88 567.18 216.51C566.09 215.42 566.58 31.91 567.68 28.5L568.64 25.5L579.43 25.22C586.52 25.03 590.69 25.33 591.61 26.09C592.73 27.02 593 32.11 593 52.46C593 66.34 593.29 83.83 593.66 91.35L594.31 105.02L636.41 104.76L678.5 104.5L679.12 67.5C679.46 47.15 680.06 29.53 680.46 28.34C680.86 27.16 682.16 25.92 683.34 25.61C686.79 24.68 702.36 24.94 703.95 25.95C706.44 27.52 707.19 54.23 706.58 119.5C706.27 153.05 706.01 188.72 706 198.77L706 217.05L703.25 218.13C698.95 219.82 688.92 220.34 684.37 219.11L680.25 217.99L679.61 191.24C679.27 176.54 678.71 156.96 678.38 147.75L677.77 131L635.9 131L594.02 131L593.76 173.14L593.5 215.28L590.87 217.25C587.41 219.83 576.95 220.58 571.68 218.61ZM1530.25 218.93L1527 217.94L1527 147.47L1527 77L1537.88 77L1548.76 77L1549.49 85.69L1550.21 94.39L1556.36 87.83C1565.3 78.29 1569 76.19 1579.12 74.88C1588.77 73.63 1600.31 74.88 1602.88 77.45C1605.08 79.65 1605.73 96.74 1603.71 99.43C1602.33 101.27 1601.81 101.3 1592.24 100.03C1581.17 98.57 1577.41 98.96 1572.28 102.14C1567.45 105.12 1556.62 118.1 1555.15 122.68C1553.36 128.22 1552.11 149.08 1551.39 185.32L1550.77 217.14L1548.13 218.22C1544.49 219.71 1534.17 220.13 1530.25 218.93ZM1366.35 218.36C1360.57 217.5 1359.99 215.88 1358.99 197.87C1357.8 176.64 1357.77 37.69 1358.95 32.61C1360.54 25.75 1360.74 25.69 1382.22 25.2C1401.27 24.77 1428.19 26.14 1438.29 28.05C1455.34 31.29 1469.2 44.68 1473.04 61.62C1473.65 64.3 1474.14 70.1 1474.13 74.5C1474.09 89.03 1468.89 100.66 1458.37 109.75C1455.42 112.3 1453 114.74 1453 115.17C1453 115.61 1454.24 116.25 1455.75 116.6C1463.2 118.34 1475.88 129.86 1481.3 139.8C1485.09 146.78 1487.12 159.55 1485.93 169.01C1484.77 178.29 1483.6 182.01 1479.67 188.98C1472.27 202.14 1453.74 214.93 1439.12 216.99C1432.13 217.97 1371.42 219.11 1366.35 218.36ZM855.52 192.16C878.97 180.91 889.98 157.67 889.99 119.38C890.01 87.59 879.27 62.25 862.08 53.54C852.78 48.83 846.39 47.54 832.5 47.57C816.92 47.6 810.89 49.12 801.79 55.31C790.79 62.8 781.19 78.31 777.93 93.84C776.24 101.9 775.63 131.62 776.92 142.74C779.42 164.25 787.87 180.57 800.78 188.86C810.32 194.98 819.37 197 835.61 196.63C846.39 196.39 846.99 196.25 855.52 192.16ZM1430.16 194.55C1438.15 192.86 1441.8 191.08 1447.12 186.28C1460.01 174.62 1460.86 155.17 1449.06 141.72C1441.65 133.29 1431.66 131.02 1401.75 131.01L1385 131L1385 163.5L1385 196L1404.25 195.98C1416.95 195.97 1425.77 195.49 1430.16 194.55ZM1418.41 106.85C1427.42 105.44 1431.2 103.78 1436.45 98.94C1442.58 93.29 1445.3 86.48 1445.41 76.5C1445.49 69.65 1445.1 67.68 1442.69 62.77C1437.25 51.69 1432.07 49.82 1405.25 49.23L1385 48.79L1385 78.23C1385 94.42 1385.34 108.01 1385.75 108.43C1386.69 109.39 1409.14 108.3 1418.41 106.85Z" fill="#1e2749" fill-rule="evenodd"/>
</svg>
