<?xml version="1.0" encoding="UTF-8"?>
<svg xmlns="http://www.w3.org/2000/svg" viewBox="0 0 2430 1871" width="2430" height="1871" shape-rendering="geometricPrecision">
<path d="M958.25 1837.34C955.95 1836.41 956.97 1835.05 961.81 1832.59C964.46 1831.25 967.26 1829.39 968.03 1828.46C969.2 1827.06 969.45 1819.3 969.47 1784.13C969.5 1736.62 969.62 1737.54 962.7 1733.06C960.13 1731.4 959.34 1730.4 960.21 1729.93C962.57 1728.67 1036.88 1728.14 1037.89 1729.38C1038.4 1730 1039.38 1734.9 1040.08 1740.29C1041.2 1748.91 1041.17 1750.26 1039.81 1751.62C1038.42 1753.01 1037.9 1752.52 1034.59 1746.6C1032.57 1742.98 1029.95 1739.51 1028.78 1738.88C1026.71 1737.77 1005.63 1736.17 991.73 1736.05L984.96 1736L985.23 1756.25L985.5 1776.5L996.42 1776.79C1014.22 1777.25 1023.27 1774.21 1025.63 1766.97C1027.11 1762.42 1029.6 1761.91 1030.49 1765.96C1031.65 1771.25 1031.36 1793.46 1030.09 1795.82C1028.37 1799.04 1027.48 1798.54 1025.12 1793.05C1021.76 1785.24 1021.07 1785 1001.86 1785L985.17 1785L985.65 1804.75C985.91 1815.61 986.31 1825.45 986.54 1826.61C987.1 1829.36 991.66 1830 1010.74 1830C1022 1830 1025.95 1829.64 1028.62 1828.38C1032.31 1826.62 1040.25 1818.36 1042.6 1813.81C1044.38 1810.37 1047 1810.08 1047 1813.33C1047 1815.92 1044.06 1825.35 1041.12 1832.22L1039.21 1836.67L1011.36 1837.33C979.89 1838.08 960.1 1838.08 958.25 1837.34ZM1697.75 1830.35C1693.64 1829.63 1694.38 1828.38 1700.75 1825.29L1706.5 1822.5L1706.76 1775.7L1707.02 1728.9L1701.53 1726.38C1698.51 1725 1695.81 1723.51 1695.54 1723.06C1695.27 1722.62 1696.94 1722 1699.27 1721.69C1704.39 1721 1734 1722.06 1734 1722.93C1734 1723.27 1732.48 1724.36 1730.62 1725.37C1728.76 1726.37 1726.71 1728.33 1726.08 1729.73C1724.38 1733.46 1723.81 1745.84 1724.71 1759.29L1725.5 1771.08L1742.61 1754.29C1752.02 1745.06 1760.97 1735.79 1762.51 1733.71L1765.31 1729.91L1761.97 1726.47C1760.14 1724.58 1758.89 1722.78 1759.2 1722.46C1759.51 1722.15 1767.69 1721.63 1777.38 1721.29C1797.22 1720.61 1798.61 1721.15 1789.22 1725.89C1786.04 1727.49 1779.85 1731.71 1775.47 1735.25C1764.2 1744.36 1741.5 1767.54 1741.5 1769.93C1741.5 1772.3 1783.44 1813.09 1792.43 1819.46C1795.77 1821.82 1801.15 1824.52 1804.38 1825.45C1808.26 1826.56 1809.93 1827.47 1809.28 1828.12C1807.49 1829.91 1795.77 1830.96 1777.25 1830.98C1756.48 1831 1755.86 1830.71 1763.57 1824.39L1768.13 1820.65L1746.83 1799.33C1735.11 1787.6 1725.13 1778 1724.66 1778C1724.18 1778 1723.95 1787.13 1724.15 1798.29C1724.54 1820.91 1724.9 1822.24 1731.64 1826.21C1733.88 1827.53 1734.78 1828.62 1734.16 1829.24C1733.15 1830.25 1702.48 1831.19 1697.75 1830.35ZM926.27 1655.32C924.83 1652.05 924.53 1646.61 924.2 1617.25L923.8 1583L753.65 1582.85C660.07 1582.77 462 1582.44 313.5 1582.1L43.5 1581.5L43.25 1110.41L43 639.33L88.75 638.66C113.91 638.3 220.68 638 326 638C431.32 638 531.37 637.7 548.33 637.34L579.16 636.67L600.33 619.67C642.03 586.17 696.8 542.09 713.5 528.58C722.85 521.02 736.96 509.61 744.85 503.23L759.21 491.62L758.55 486.64C758.18 483.9 755.02 472.17 751.52 460.58C740.63 424.56 739.57 419.43 742.51 416.99C743.74 415.97 744.69 416.19 747.76 418.22C752.18 421.15 770.58 437.21 799.01 462.94C833.27 493.95 835.81 496.12 836.49 495.01C836.85 494.43 835.04 487.33 832.46 479.23C818.19 434.37 802.02 377.03 802.01 371.25C802 368.49 802.36 368 804.38 368C807.58 368 817.49 376.68 858.8 415.68C886.66 441.97 892.91 447.4 893.52 445.8C893.82 445.03 889.35 428.65 883.59 409.39C864 343.91 859.25 326.39 860.33 323.58C861.6 320.27 865.54 322.02 875.01 330.09C885.87 339.35 926.29 376.5 942.15 391.8C948.02 397.46 953.08 401.68 953.39 401.17C953.71 400.66 953.33 398.28 952.55 395.87C951.21 391.72 944.6 370.1 935.92 341.5C933.75 334.36 931.74 327.76 931.45 326.85C930.92 325.18 932.17 324.11 968.5 295.35C975.65 289.69 995.28 274.13 1012.11 260.78C1108.92 184 1134.7 163.57 1157.38 145.69C1171.2 134.8 1184.97 123.98 1188 121.64C1191.03 119.3 1202.81 110.13 1214.18 101.25C1261.98 63.96 1274.04 55 1276.48 55C1279.81 55.01 1310.23 82.43 1368.51 137.96C1418.52 185.61 1447.33 212.78 1451.6 216.34L1454.7 218.93L1461.1 214.28C1464.62 211.72 1474.19 204.24 1482.37 197.66C1490.55 191.08 1499.48 184.19 1502.22 182.35C1507.24 178.98 1512.49 177.96 1513.24 180.22C1514.06 182.68 1506.3 204.03 1484.96 258C1474.72 283.89 1469.88 297.13 1470.24 298.21C1470.69 299.56 1474.63 296.65 1532.88 251.99C1557.07 233.45 1560.82 230.87 1563.86 230.67C1570.39 230.24 1567.32 240.92 1543.76 300.5C1528.35 339.47 1523.7 352.03 1524.41 352.75C1524.64 352.97 1537.12 343.58 1552.16 331.88C1589.1 303.13 1614.86 284.07 1617.77 283.34C1619.31 282.96 1620.75 283.32 1621.79 284.36C1623.29 285.86 1623.2 286.66 1620.6 294.74C1617.88 303.17 1603.53 341.41 1596.49 359C1590.52 373.91 1580 401.98 1580 403.01C1580 404.84 1581.45 404.03 1590.5 397.18C1624.63 371.32 1630.74 366.86 1632.73 366.36C1638.43 364.92 1648.13 373.08 1741.53 457.88C1762.96 477.34 1787.46 499.61 1795.96 507.38C1854.08 560.45 1895.22 597.84 1899.5 601.48L1904.5 605.73L2113.5 606.36C2228.45 606.71 2334.09 606.99 2348.25 607L2374 607L2374 1098.46C2374 1583.34 2373.97 1589.94 2372.07 1590.96C2370.75 1591.67 2315.93 1592 2201.82 1592C2109.24 1592 1993.4 1592.3 1944.39 1592.66L1855.29 1593.33L1854.08 1599.88C1851.7 1612.81 1843.42 1627.98 1832.11 1640.16C1823.38 1649.55 1812 1656.81 1812 1652.98C1812 1652.42 1815.35 1648.62 1819.44 1644.53C1829.99 1633.98 1835.45 1622.09 1838.04 1604C1839.63 1592.91 1839.33 1569.82 1837.44 1557.91C1834.39 1538.76 1830.23 1529.94 1818.12 1517C1814.77 1513.42 1812.03 1510.16 1812.02 1509.75C1811.97 1507.88 1816.29 1509.35 1821.93 1513.12C1830.75 1519 1839.93 1530.35 1846.51 1543.5C1852.87 1556.19 1855 1563.66 1855 1573.21L1855 1580L2107.88 1580C2319.29 1580 2360.94 1579.78 2361.88 1578.65C2362.71 1577.65 2362.94 1451.48 2362.75 1097.9L2362.5 618.5L2218 618.49C2041.52 618.48 1908.43 619.24 1907.4 620.27C1906.98 620.69 1907.61 622.26 1908.81 623.77C1916.83 633.84 1922.31 643.69 1927.31 657.08C1932.46 670.86 1934.27 680.57 1934.3 694.5C1934.36 724.84 1922.98 752.6 1901.26 775.14C1890.41 786.39 1882.22 792.62 1870 798.9C1826.26 821.39 1777.2 814.38 1738.6 780.12C1734.81 776.76 1731.28 774 1730.76 774C1729.56 774 1697.63 802.51 1684.78 815.06C1673.73 825.85 1673.52 826.43 1677.05 836.59C1679.6 843.96 1689.37 876.86 1690.88 883.19C1692.65 890.59 1692.32 896.4 1690.03 898.48C1687.16 901.07 1692.25 905.34 1634.9 852.34C1603.92 823.71 1600.2 820.46 1599.39 821.28C1598.69 821.97 1598.67 821.89 1620.47 894.02C1625.05 909.15 1629.75 925.97 1630.93 931.39C1632.88 940.41 1632.93 941.46 1631.51 943.63C1630.65 944.93 1629.53 946 1629.01 946C1627.81 946 1608.81 929.25 1583.27 905.69C1556.41 880.9 1542.99 869 1541.91 869C1541.41 869 1541 869.5 1541 870.1C1541 871.59 1545.52 887.17 1555.49 920C1564.4 949.36 1567.49 960.06 1572.07 977.45C1574.74 987.61 1574.83 988.53 1573.32 990.2C1572.42 991.19 1570.96 992 1570.07 992C1568.12 992 1546.59 973.32 1520.5 949C1497.83 927.87 1484.22 915.64 1482.81 915.13C1481.29 914.58 1482.4 918.76 1490.21 942.9C1494.06 954.78 1498.77 970.3 1500.69 977.39L1504.18 990.29L1500.84 993.52C1497.72 996.53 1468.58 1019.91 1412.91 1064.06C1400.03 1074.27 1380.95 1089.4 1370.5 1097.69C1360.05 1105.97 1343.17 1119.37 1333 1127.46C1291.91 1160.13 1275.6 1172 1271.81 1172C1270.75 1172 1269.09 1170.58 1268.01 1168.74C1266.95 1166.94 1260.78 1161.12 1254.29 1155.79C1234.08 1139.19 1220.03 1127.86 1205 1116.01C1197.03 1109.72 1184.2 1099.59 1176.5 1093.5C1147.71 1070.71 1094.91 1029.49 1094.16 1029.23C1093.21 1028.9 1071.24 1048.98 1048.59 1070.87C1031.07 1087.81 1026.62 1090.94 1022.86 1088.92C1021.07 1087.97 1020.84 1087.17 1021.33 1083.61C1022.06 1078.25 1028.31 1056.66 1042.18 1011.5C1056.02 966.44 1057.02 962.99 1056.18 963.02C1055.41 963.05 1046.42 971.12 1008.3 1006.04C974.62 1036.89 967.45 1043 964.94 1043C960.49 1043 960.83 1041.12 972.6 999.81C976.73 985.34 984.16 960.74 989.1 945.13C994.05 929.53 997.84 916.51 997.53 916.2C997.22 915.89 995.28 917.21 993.23 919.13C925.83 982.38 909.04 997.34 906.1 996.79C903.41 996.28 903.68 990.62 907 977.7C910.76 963.08 915.87 945.76 930.46 898.16C934.06 886.43 937 876.41 937 875.91C937 873.33 933.04 876.22 919.4 888.75C911.16 896.31 903.7 903.08 902.81 903.79C901 905.24 899.72 904.27 829.5 848.49C798.36 823.76 676.5 726.14 608.16 671.18L581.83 650L318.41 650L55 650L55 1110L55 1570L489.25 1569.75L923.5 1569.5L924.11 1527C924.83 1477.64 925.13 1475 930.03 1475C931.96 1475 933.31 1475.71 934.07 1477.12C936.07 1480.86 937.01 1511.07 936.81 1565.5C936.53 1645 935.61 1658.06 930.23 1658.82C928.43 1659.08 927.61 1658.36 926.27 1655.32ZM1673.22 1652.14C1666.55 1647.73 1656.27 1638.27 1652.02 1632.64C1643.8 1621.75 1637.27 1604.15 1636.29 1590.25L1635.7 1582L1315.48 1582L995.25 1582L994.83 1596.75C994.36 1613.19 992.65 1619.2 988.25 1619.82C983.86 1620.44 983.56 1617.58 983.21 1571.63C982.89 1530.25 983.58 1516.02 986.02 1513.58C987.49 1512.11 991.91 1514.66 993.21 1517.74C993.94 1519.47 994.59 1530.04 994.94 1546L995.5 1571.5L1287.5 1571.23C1556.14 1570.98 1628.56 1571.45 1633.24 1573.46C1635.28 1574.33 1635.34 1574.18 1636.89 1564.14C1639.78 1545.48 1656.71 1519.38 1670.95 1511.63C1679.86 1506.77 1680.04 1508.62 1671.56 1518C1662.76 1527.72 1657.82 1536.8 1655.24 1548C1653.84 1554.08 1653.52 1560.34 1653.54 1581C1653.56 1604.02 1653.78 1607.36 1655.79 1615.38C1658.71 1626.97 1662.65 1634.18 1671.8 1644.61C1679.85 1653.8 1680.44 1656.93 1673.22 1652.14ZM1739.45 1621.55C1737.6 1619.69 1737 1618.04 1737.02 1614.8C1737.04 1608.74 1738 1607.75 1744.34 1607.22C1749.25 1606.81 1750.14 1607.05 1752.43 1609.34C1756.01 1612.92 1755.75 1616.45 1751.6 1620.6C1747.38 1624.82 1743.07 1625.16 1739.45 1621.55ZM917.23 1224.73C908.86 1216.34 902.01 1208.81 902.02 1207.99C902.04 1206.16 914.65 1195.46 918.51 1193.99C920.53 1193.23 922.77 1193.25 926.49 1194.08C930.82 1195.06 932.61 1194.97 937.54 1193.53C945.32 1191.27 955.09 1184.78 962.57 1176.9C979.39 1159.19 981.03 1142.26 967.41 1127.11C961.13 1120.13 954.96 1117.71 944.59 1118.16C933.27 1118.64 923.43 1123.35 914.07 1132.75C904.76 1142.11 902.14 1147.85 901.06 1161.28C900.57 1167.42 899.53 1173.23 898.59 1175.12C896.28 1179.75 886.81 1192 885.54 1192C884.15 1192 853 1160.8 853 1159.41C853 1158.83 856.59 1154.86 860.97 1150.59C870.76 1141.06 872.66 1140.84 872.15 1149.32C871.72 1156.36 873.94 1160.1 883.16 1167.9C892.08 1175.43 893.01 1174.79 890.03 1163.13C887.49 1153.19 887.45 1144.94 889.89 1137.09C893.89 1124.24 902.02 1115.38 916 1108.61C924.25 1104.62 924.79 1104.5 934.5 1104.54C946.2 1104.59 952.84 1106.85 963.4 1114.39C1000 1140.51 998.34 1183.59 960.03 1201.87C953.16 1205.14 951.86 1205.42 944.03 1205.32C939.34 1205.25 931.93 1204.48 927.57 1203.61C923.21 1202.74 919.41 1202.25 919.14 1202.53C918.46 1203.21 924.03 1208.96 932.41 1216.24C939.23 1222.16 939.4 1222.23 944.16 1221.67C947.63 1221.26 949 1221.44 949 1222.32C949 1222.99 945.28 1227.24 940.73 1231.77L932.47 1239.99L917.23 1224.73ZM1645 1158.75C1641.9 1157.14 1641.15 1152.6 1643.54 1149.95C1644.47 1148.93 1648.3 1146.88 1652.05 1145.41C1655.8 1143.94 1660.53 1141.37 1662.56 1139.69C1671.92 1131.97 1672.59 1116.94 1663.99 1107.61C1658.54 1101.69 1652.17 1098.77 1643.49 1098.22C1634.31 1097.63 1628.12 1099.43 1616.7 1105.98C1611.86 1108.77 1606.91 1111.14 1605.7 1111.27C1603.69 1111.48 1602.91 1109.77 1596.82 1092C1593.15 1081.28 1590.11 1071.3 1590.07 1069.84C1590.01 1067.7 1592.38 1064.91 1602.16 1055.59C1617.17 1041.29 1619.55 1040.76 1621.53 1051.29C1622.4 1055.92 1619.93 1060 1609.88 1070.62C1601.4 1079.59 1600.72 1081.87 1603.98 1090.44L1604.94 1092.96L1613.86 1088.62C1632.54 1079.53 1653.18 1080.45 1664.32 1090.86C1668.67 1094.92 1673.58 1103.73 1676.04 1111.86C1678 1118.37 1678.14 1119.96 1677.19 1125.69C1674.56 1141.54 1662.17 1157.51 1651 1159.44C1648.92 1159.8 1646.49 1159.52 1645 1158.75ZM1296.5 1141.11C1302.55 1136.45 1315.77 1126.08 1325.87 1118.07C1335.97 1110.06 1345.42 1102.61 1346.87 1101.53C1350.11 1099.1 1370.21 1083.19 1440.31 1027.58C1481.83 994.64 1488.02 989.56 1489.36 987.26C1490.73 984.91 1488.59 976.36 1479.41 947.48C1474.7 932.64 1468.84 914.2 1466.39 906.5C1459.42 884.53 1461.08 881.58 1474.62 891.9C1484.58 899.48 1500.15 913.42 1530.91 942.26C1544.25 954.77 1555.52 964.79 1555.95 964.53C1556.38 964.27 1554.36 956.5 1551.47 947.27C1537.96 904.15 1521 845.51 1521 841.91C1521 839.63 1524.33 838.57 1527 840C1531.08 842.19 1544.27 853.86 1584 890.45C1594.72 900.33 1605.67 910.39 1608.33 912.82C1611.43 915.65 1613.51 916.89 1614.13 916.27C1614.74 915.66 1610.55 900.61 1602.45 874.4C1595.5 851.91 1588.01 827.65 1585.81 820.5C1578.25 796.02 1577.95 793 1583.01 793C1587.07 793 1594.75 799.07 1618.47 821.07C1630 831.76 1647.28 847.79 1656.88 856.7C1666.49 865.62 1674.67 872.7 1675.08 872.45C1675.49 872.2 1674.27 867.16 1672.39 861.25C1666.03 841.35 1662.75 828.71 1662.63 823.65L1662.5 818.62L1681 802.26C1715.79 771.49 1719.56 768.01 1721.22 765.2C1722.86 762.44 1722.81 762.27 1718.44 754.95C1713.38 746.47 1708.79 735.2 1705.86 724.11C1702.94 713.06 1702.22 688.72 1704.43 676C1708.69 651.52 1718.92 631.86 1736.54 614.31C1749.75 601.13 1764.48 592.13 1782.79 586.03C1798.33 580.86 1806.46 579.71 1823.88 580.25C1840.68 580.77 1851.27 583.06 1862 588.5C1872.95 594.05 1867.89 588.42 1834 557.37C1813.39 538.48 1777.73 506.19 1769.01 498.5C1765.89 495.75 1752.12 483.37 1738.42 470.98C1685.14 422.83 1635.42 379 1634.06 379C1633.56 379 1627.6 383.36 1620.83 388.68C1581.1 419.88 1562.99 432.35 1560.05 430.53C1556.84 428.55 1559.16 421.71 1587.92 348.5C1594.62 331.45 1600.75 315.81 1601.54 313.75C1602.78 310.53 1602.78 310 1601.57 310C1600.13 310 1584.31 321.7 1555.45 344.12C1524.54 368.12 1506.61 380.11 1504.03 378.52C1501.45 376.92 1502.69 373.14 1521.5 325.5C1526.28 313.4 1532.68 296.98 1535.74 289C1548.4 255.92 1547.7 258 1546.16 258C1545.1 258 1527.11 271.3 1497.5 293.98C1455.24 326.35 1450.06 329.48 1449.18 323.22C1448.66 319.59 1454.18 304.38 1481.9 233.08C1486.9 220.19 1491 209.28 1491 208.83C1491 206.82 1487.89 208.51 1479.5 215.09C1462.41 228.48 1460.39 229.94 1456.75 231.46L1453.1 232.98L1448.3 228.85C1435.64 217.96 1361.16 147.54 1311.81 99.79C1296.59 85.05 1283.63 73 1283.02 73C1281.44 73 1282.16 491.82 1283.75 497.4C1284.36 499.54 1285.39 501.62 1286.05 502.03C1286.7 502.43 1290.67 503.31 1294.87 503.98C1312.77 506.84 1329.17 514.37 1344.15 526.62C1363.86 542.75 1379.51 565.9 1386.66 589.5C1389.15 597.73 1389.39 599.96 1389.44 615.5C1389.5 633.85 1388.41 640.83 1383.31 654.5C1375.98 674.17 1366.82 688.04 1351.14 703.19C1332.92 720.81 1321.34 726.55 1290.53 733.21C1284.94 734.42 1284.51 734.72 1283.63 738C1282.51 742.16 1281.49 1107.96 1282.52 1133.74C1283.03 1146.27 1283.53 1150.79 1284.36 1150.28C1284.99 1149.9 1290.45 1145.77 1296.5 1141.11ZM1268.1 1127.78C1268.52 1117.73 1268.89 1025.29 1268.93 922.37L1269 735.24L1259.25 733.5C1241.03 730.26 1222.13 722.92 1208.93 713.95C1201.21 708.71 1187.08 695.33 1182.04 688.5C1171.96 674.84 1164.36 657.9 1161 641.64C1155.5 615 1158.4 591.2 1170.01 567.5C1173.25 560.9 1178.17 552.51 1180.94 548.87C1198.82 525.35 1224.3 509.81 1255.3 503.52C1261.91 502.18 1267.71 500.69 1268.18 500.22C1269.21 499.19 1268.82 76.48 1267.78 75.45C1266.86 74.53 1253.65 84.63 1192.61 132.93C1183.88 139.84 1173.01 148.43 1168.46 152C1137.85 176.06 1086.16 216.84 1071.5 228.49C1063.8 234.61 1046.47 248.33 1033 258.99C1019.52 269.64 998.83 286.07 987 295.49C975.17 304.91 961.07 316.12 955.66 320.4C945.83 328.17 945.81 328.19 946.46 331.84C947.42 337.28 952.42 355.04 959.16 377C970.75 414.76 972.94 425.89 969.18 427.91C967.72 428.68 966.25 428.01 961.93 424.57C951.16 416.01 926.47 393.52 894.6 363.25C886.35 355.41 879.24 349 878.8 349C877.49 349 877.82 350.53 881.93 363.29C891.79 393.9 911.27 461.6 912.58 469.79C913.28 474.18 912.03 477 909.37 477C907.65 477 894.54 465.31 862.94 435.6C832.52 407 823.6 399 822.12 399C820.58 399 820.35 398.12 834.05 444C845.88 483.61 853.34 509.97 854.57 516.51C855.28 520.28 853.88 523 851.24 523C848.73 523 829.64 506.78 797 476.93C771.72 453.81 760.66 444 759.87 444C758.51 444 758.77 445.33 762.42 456.77C771.73 485.93 773.37 492.44 772.04 494.92C771.49 495.95 751.12 512.79 726.77 532.33C673.08 575.44 646.69 596.83 628.49 612C626.18 613.92 617.24 621.32 608.62 628.42C600 635.53 593.11 641.83 593.31 642.42C594.1 644.79 641.94 683.63 788.53 800.88C884.22 877.43 896.8 887 901.76 887C904.03 887 906.26 885.04 932.21 860.29C938.11 854.67 944.71 848.9 946.88 847.46C951.18 844.61 955.64 844.44 957.28 847.06C957.99 848.2 954.99 859.17 946.18 887.56C931.27 935.66 923 963.25 923 964.9C923 965.6 923.42 966.02 923.93 965.83C925.33 965.33 944.7 948.19 960 933.91C979.01 916.17 1003.95 894.11 1007.5 891.88C1011.12 889.62 1012.4 889.54 1014.33 891.47C1015.49 892.63 1015.6 893.84 1014.85 897.22C1013.24 904.42 1005.35 931.93 995.53 964.5C983.98 1002.82 981.51 1011.84 982.32 1012.65C983.05 1013.38 990.26 1007.05 1018.4 981C1047.02 954.5 1051.57 950.48 1060.38 943.83C1066.71 939.06 1068.88 937.95 1071.38 938.2C1074.34 938.48 1074.49 938.71 1074.32 942.5C1074.23 944.7 1068.91 963.6 1062.5 984.5C1048.25 1031.02 1042.23 1051.72 1041.35 1057.19L1040.69 1061.36L1043.59 1059.27C1045.19 1058.12 1054.15 1049.89 1063.5 1040.97C1091.29 1014.49 1094.58 1011.89 1096.5 1014.99C1097.14 1016.04 1129.05 1041.6 1157 1063.47C1166.08 1070.57 1177.55 1079.61 1182.5 1083.54C1187.45 1087.48 1195.82 1094.03 1201.11 1098.1C1206.39 1102.17 1221.46 1113.83 1234.61 1124.01C1266.93 1149.06 1265.37 1147.94 1266.42 1146.94C1266.93 1146.45 1267.69 1137.83 1268.1 1127.78ZM803.5 1102.65C797.32 1101.04 787.4 1096.05 782.98 1092.33C774.92 1085.55 771.62 1075.16 775.86 1069.93C777.57 1067.81 777.96 1067.74 780.91 1068.96C784.16 1070.31 786.62 1074.06 788.91 1081.17C790.65 1086.54 797.27 1093.56 802.48 1095.54C810.06 1098.44 818.87 1095.31 826.29 1087.1C837.63 1074.55 837.51 1060.91 825.9 1041.16C823.21 1036.57 821 1032.01 821 1031.03C821 1029.69 823.2 1028.45 829.75 1026.09C843.53 1021.13 857.26 1017.02 860.1 1017.01C861.53 1017.01 864.68 1018.42 867.1 1020.15C872.75 1024.2 890 1041.35 890 1042.91C890 1044.4 883.94 1047 880.47 1047C876.5 1047 874.27 1045.46 864.29 1035.86C858 1029.8 854.34 1027 852.72 1027C849.83 1027 841.21 1029.86 840.46 1031.07C840.16 1031.55 841.72 1035.22 843.92 1039.23C849.05 1048.58 851.36 1058.26 850.68 1067.5C849.88 1078.33 848.55 1081.37 841.31 1089.05C829.94 1101.1 816.35 1105.99 803.5 1102.65ZM1725.41 1070.59C1717.79 1062.98 1717.27 1060.95 1722.96 1061.17C1727.83 1061.36 1732.46 1058.47 1741.52 1049.59C1750.84 1040.45 1750.26 1038.42 1739.25 1041.62C1731.1 1043.98 1711.08 1043.19 1705.5 1040.28C1695.4 1035.02 1684.14 1022.57 1681.53 1013.79C1679.57 1007.18 1679.57 992.44 1681.54 984.09C1683.57 975.49 1687.37 968.73 1694 961.96C1719.03 936.37 1745.13 935.02 1768.2 958.12C1774.71 964.64 1776.16 966.73 1777.64 971.66C1780.1 979.9 1780.07 995.36 1777.56 1004.73C1776.5 1008.71 1775.9 1012.24 1776.25 1012.58C1777.3 1013.63 1783.89 1007.97 1790.71 1000.15C1797.45 992.42 1797.91 990.91 1795.48 984.75C1793.91 980.78 1798.43 983.35 1806.25 990.89L1814.44 998.78L1799.11 1014.89C1790.67 1023.75 1783.46 1031 1783.07 1031C1782.12 1031 1771.84 1018.5 1770.07 1015.18C1769.07 1013.31 1768.7 1009.74 1768.85 1003.38C1769.11 992.44 1767.59 987.82 1760.64 978.43C1748.68 962.28 1727.7 952.9 1712.79 957.04C1709.02 958.09 1699.63 965.91 1695.98 971.03C1689.01 980.82 1693.34 1001.72 1705.18 1015.41C1715.06 1026.83 1729.08 1033.76 1739.64 1032.44C1742.47 1032.09 1746.19 1032.1 1747.9 1032.48C1750.37 1033.02 1761.68 1040.72 1766.43 1045.1C1768.2 1046.74 1737.33 1077 1733.89 1077C1732.67 1077 1729.18 1074.36 1725.41 1070.59ZM736.1 1043.32C730.1 1037.23 724.65 1031.22 723.98 1029.97C722.83 1027.82 722.92 1027.73 725.64 1028.28C727.21 1028.6 729.23 1029.14 730.12 1029.49C732.71 1030.49 745.6 1019.53 767.06 998.07C786.38 978.74 795 968.78 795 965.78C795 964.93 793.42 963.04 791.5 961.57C786.66 957.88 786.78 955.55 791.75 956.47C796.64 957.37 816 964.92 816 965.93C816 968.58 806.42 979.06 767.49 1019.01C757.57 1029.19 748.67 1039.19 747.7 1041.22C746.08 1044.63 746.07 1045.22 747.49 1048.64C748.55 1051.18 748.72 1052.68 748.02 1053.38C747.32 1054.08 743.54 1050.9 736.1 1043.32ZM2016.75 826.39C2014.11 825.58 2014.6 824.53 2018.95 821.65C2021.93 819.68 2023.1 818.11 2023.69 815.27C2024.13 813.2 2024.48 793.27 2024.47 771C2024.46 726.38 2024.47 726.41 2018.29 722.52C2016.52 721.41 2015.21 720.05 2015.37 719.5C2015.8 718.05 2046.54 717.7 2065.5 718.94C2089.71 720.52 2095.91 722.78 2106.17 733.75C2120.83 749.43 2123.94 775.32 2113.87 797.85C2108.42 810.05 2092.32 822.39 2078.59 824.91C2072.36 826.05 2019.76 827.31 2016.75 826.39ZM2069.07 819.41C2089.14 813.54 2101.02 793.58 2099.66 768C2098.98 755.09 2096.52 747.44 2090.67 739.99C2083.2 730.48 2073.39 726.67 2053.25 725.46L2042 724.78L2042 771.33C2042 806.8 2042.29 818.06 2043.22 818.63C2047.29 821.15 2061.63 821.59 2069.07 819.41ZM1833.25 798.52C1866.99 793.43 1897.18 771.13 1912.62 739.89C1923.6 717.69 1925.55 689.47 1917.82 665C1912.79 649.1 1898.86 626 1894.3 626C1893.48 626 1891.39 626.99 1889.65 628.2C1885.65 631 1842.81 662.99 1841.6 664.09C1841.09 664.55 1846.3 670.72 1853.5 678.19C1860.54 685.5 1868.12 693.9 1870.36 696.86L1874.42 702.24L1872.1 704.12C1870.83 705.15 1864.32 707.74 1857.64 709.87C1846.61 713.39 1838.61 715.6 1803.12 724.94C1796.86 726.58 1791.53 728.13 1791.29 728.38C1791.04 728.63 1796.33 735.28 1803.05 743.16C1819.94 762.99 1820.98 764.9 1816.99 768.51C1815.2 770.13 1814.7 770.18 1812.34 768.91C1810.89 768.14 1806.29 763.67 1802.13 759C1788.64 743.85 1779.33 735 1776.9 735C1774.47 735 1770.94 737.74 1753.25 753.37C1747.06 758.83 1742 763.86 1742 764.55C1742 766.45 1755.33 779.36 1761.58 783.51C1781.74 796.89 1807.82 802.35 1833.25 798.52ZM1755.21 736.25L1769.92 722.77L1757.71 708.81C1741 689.71 1737.83 685.29 1738.2 681.53C1738.45 679.06 1739.01 678.44 1741.26 678.18C1744.83 677.77 1746.68 679.3 1758.97 692.82C1764.56 698.97 1769.79 704 1770.59 704C1772.86 704 1773.5 701.24 1777.4 674.5C1781.67 645.24 1784.54 627.99 1786.03 622.75C1788.13 615.35 1792.42 617.92 1815.99 640.74L1832.49 656.7L1854.04 640.45C1874.22 625.23 1883 617.48 1883 614.9C1883 610.71 1861.27 599.75 1844.33 595.39C1830.03 591.71 1809.19 591.03 1795.76 593.82C1784.98 596.05 1769.67 602.78 1758.87 610.04C1751.69 614.87 1739.65 626.74 1734.83 633.75C1714.99 662.59 1709.5 693.34 1718.59 724.72C1721.27 733.97 1727.42 747.98 1731.03 753.04L1733.17 756.05L1736.84 752.89C1738.85 751.15 1747.12 743.66 1755.21 736.25ZM1299.28 719.43C1307.08 717.41 1325.26 708.42 1333.63 702.44C1353.29 688.42 1365.67 671.74 1373.7 648.5L1377.49 637.5L1377.45 618.5C1377.41 600.87 1377.22 598.89 1374.78 591C1369.29 573.27 1361.91 560.26 1350.35 547.96C1328.06 524.23 1298.38 512.44 1265.87 514.38C1251.57 515.24 1241.65 517.9 1228.5 524.41C1207.37 534.87 1191.78 550.49 1181.52 571.5C1172.41 590.14 1169.34 604.29 1170.34 623.01C1171.34 641.64 1177.08 659.92 1186.29 673.81C1193.02 683.94 1207.37 698.12 1218.18 705.32C1227.4 711.45 1239.26 717.04 1248.12 719.42C1256.03 721.55 1291.08 721.55 1299.28 719.43ZM1804.36 712.53C1829.89 705.86 1852.13 699.27 1853.39 697.99C1854.21 697.15 1847.38 689.83 1827.18 669.91C1801.74 644.81 1795.53 639.14 1794.55 640.12C1793.79 640.88 1785.88 698.7 1785.3 707.75C1784.85 714.81 1785 717 1785.96 717C1786.65 717 1794.93 714.99 1804.36 712.53ZM1268 667.95C1258.7 666.34 1248.9 660.79 1240.13 652.19C1227.46 639.75 1223.78 631.2 1223.71 614C1223.65 596.67 1228.92 583.09 1240.1 571.78C1255.56 556.13 1278.29 551.19 1301.78 558.38C1310.48 561.04 1312.41 560.96 1314.06 557.88C1315.08 555.99 1318.45 555.3 1319.38 556.8C1320.65 558.86 1322.08 582.66 1321.09 585.27C1319.69 588.94 1318.71 588.71 1316.6 584.25C1312.94 576.47 1308.74 571.07 1303.7 567.66C1286.41 555.95 1262.84 560.35 1251.87 577.32C1245.5 587.18 1243.5 595.16 1243.57 610.5C1243.62 621.92 1243.95 624.44 1246.31 631.27C1249.69 641.05 1252.3 645.14 1259.37 651.8C1269.78 661.62 1279.99 664.51 1293.64 661.53C1306.97 658.62 1306.08 660.55 1305.77 635.24L1305.5 613.55L1299.75 610.79C1296.59 609.27 1294 607.58 1294 607.02C1294 606.36 1300.79 606 1313 606C1325.41 606 1332 606.36 1332 607.03C1332 607.6 1330.47 608.97 1328.59 610.08C1326.71 611.19 1324.83 612.86 1324.41 613.8C1323.99 614.73 1323.45 625.3 1323.22 637.29L1322.8 659.07L1316.91 662.05C1313.67 663.68 1308.42 665.72 1305.26 666.56C1298.28 668.43 1275.63 669.28 1268 667.95ZM672 429.91C672 429.31 672.9 427.67 674 426.27C675.1 424.87 676 422.98 676 422.06C676 419.31 665.72 407.59 646.07 387.94C616.3 358.2 612.37 355.59 606.43 361.75L603.77 364.5L604.31 359.5C605.09 352.25 610.81 337 612.75 337C614.89 337 615.38 337.46 677.04 397.7L688.51 408.9L693.25 405.95C698.39 402.76 700 402.34 700 404.19C700 405.69 674.61 431 673.11 431C672.5 431 672 430.51 672 429.91ZM719.3 369.01C706.21 366.24 694.02 359.04 682 346.95C672.14 337.05 667.54 330.39 663.3 319.89C657.1 304.55 658.83 286.98 667.14 280.75C679.13 271.77 692.38 271.94 710.5 281.31C716.95 284.64 720.74 287.68 730.05 296.97C742.52 309.42 748.31 317.85 752.04 329C757.06 344.01 751.27 360.74 738.86 367.07C734.36 369.37 725.25 370.27 719.3 369.01ZM739.03 359.48C742.69 357.59 745 353.26 745 348.3C745 339.67 734.35 323.22 718.56 307.45C697.63 286.55 677.67 277.87 670.28 286.46C667.15 290.1 667.19 297.71 670.36 304.5C677.66 320.12 706.22 348.88 722.99 357.51C730.23 361.23 734.62 361.77 739.03 359.48ZM1709.14 305.78C1700.81 297.41 1694 289.99 1694 289.29C1694 287.93 1708.34 276.11 1710.32 275.84C1710.97 275.75 1715.8 275.64 1721.05 275.59C1729.8 275.51 1731.14 275.22 1737.19 272.15C1745.09 268.15 1756.43 258.07 1761.31 250.72C1766.54 242.84 1769.35 233.74 1768.58 227.18C1767.44 217.3 1760.7 207.35 1751.86 202.49C1747.11 199.87 1745.53 199.53 1738 199.52C1730.23 199.51 1728.83 199.83 1721.66 203.25C1716.17 205.87 1711.74 208.99 1706.87 213.69C1697.85 222.4 1694.34 229.45 1693.5 240.5C1692.46 254.23 1691.48 256.94 1684.32 266L1677.78 274.27L1661.14 257.61L1644.5 240.95L1652.7 232.89C1662.56 223.21 1664.68 222.81 1664.16 230.76C1663.75 237.06 1665.53 240.38 1673.26 247.68C1683.66 257.52 1685.29 256.88 1682.06 244.22C1679.6 234.61 1679.47 228.46 1681.53 220.53C1684.98 207.31 1694.16 196.68 1707.67 190.26C1714.48 187.03 1716.56 186.52 1724.61 186.17C1735.53 185.69 1743.37 187.85 1752.74 193.91C1770.52 205.4 1782 223.85 1782 240.92C1782 253.93 1777.47 263.59 1766.64 273.71C1753.68 285.81 1742.59 288.82 1723.01 285.55C1717.41 284.61 1712.55 284.12 1712.21 284.45C1711.31 285.36 1726.95 300.75 1730.48 302.42C1732.48 303.37 1735.07 303.67 1738.02 303.29L1742.5 302.71L1740.54 305.1C1737.2 309.18 1725.59 321 1724.92 321C1724.57 321 1717.47 314.15 1709.14 305.78ZM796.53 289.98C791.68 285.02 787.94 280.73 788.22 280.44C788.5 280.16 790.68 280.37 793.05 280.9C796.3 281.63 798.2 281.52 800.72 280.47C803.87 279.16 820 263.54 820 261.81C820 260.4 815.03 260.93 807.83 263.12C797.55 266.24 786.52 265.52 777.63 261.14C768.99 256.88 760.09 247.96 755.8 239.24C752.66 232.88 752.48 231.91 752.16 219.52C751.77 204.27 753.1 199.38 760.33 189.46C770.71 175.24 784.57 165.58 796.69 164.12C820.16 161.29 839.15 170.78 847.63 189.58C851.14 197.37 852.16 214.5 849.62 223.24C847.95 228.98 847.54 233 848.62 233C849.83 233 856.6 226.63 862.83 219.63C869.37 212.27 869.53 211.76 867.48 205.25C866.12 200.95 869.72 202.85 878.19 210.89L886.5 218.78L877 228.62C871.77 234.04 864.51 241.29 860.86 244.75L854.23 251.03L848.25 244.26C844.96 240.54 841.93 236.42 841.52 235.1C841.11 233.78 840.7 228.38 840.62 223.1C840.49 214.42 840.16 212.87 837.22 207C831.16 194.88 818 182.84 805.99 178.43C798.72 175.76 788.6 176.16 781.81 179.39C774.39 182.91 766.78 191.13 764.98 197.57C763.09 204.31 764.73 214.67 769.1 223.59C773.5 232.57 784.95 244.25 794 248.99C799.93 252.09 801.48 252.44 811.53 252.95C822.29 253.49 822.68 253.59 827.53 257.17C830.26 259.18 833.81 262.2 835.4 263.88L838.3 266.92L834.84 270.75C830.39 275.68 806.44 299 805.83 299C805.57 299 801.39 294.94 796.53 289.98ZM1596.34 188.97C1582.68 186.23 1575.66 176.89 1575.62 161.43C1575.59 151.05 1579.08 141.14 1586.97 129.15C1602.22 105.97 1627.31 92.58 1648.98 96.07C1656.46 97.28 1659.42 98.7 1663.71 103.17C1679.43 119.54 1664.48 157.37 1634.17 177.89C1620.94 186.86 1606.66 191.04 1596.34 188.97ZM1608.21 176.4C1624.95 167.93 1651.08 140.48 1659.77 122.24C1662.94 115.6 1663.12 114.71 1661.96 111.9C1660.13 107.47 1653.65 103.48 1648.51 103.59C1639.45 103.79 1625.91 112.35 1611.23 127.15C1599.99 138.48 1591.16 150.03 1586.33 159.72C1583.34 165.7 1582.82 167.65 1583.29 171.11C1584.61 180.93 1594.92 183.12 1608.21 176.4ZM1533.16 129.64C1526.08 123.51 1513 109.45 1513 107.98C1513 106.34 1514.79 106.86 1519.75 109.97L1524.5 112.94L1540.85 96.72C1559.08 78.64 1585.96 50.22 1586.75 48.18C1587.04 47.45 1585.32 44.86 1582.93 42.43C1578.59 38.01 1578.59 38 1581.3 38C1584.13 38 1609 46.77 1609 47.77C1609 48.09 1596.04 61.43 1580.2 77.42C1550.85 107.05 1541.39 117.54 1538.45 123.75C1536.86 127.1 1536.88 127.34 1539 130.21C1543.02 135.65 1539.72 135.32 1533.16 129.64Z" fill="#1e2749" fill-rule="evenodd"/>
</svg>
