<?xml version="1.0" encoding="UTF-8"?>
<svg xmlns="http://www.w3.org/2000/svg" viewBox="0 0 680 140" width="680" height="140" shape-rendering="geometricPrecision">
<path d="M308.46 135.73C306.12 134.91 305.16 134.22 304.08 132.6C303.33 131.46 303.15 130.77 303.05 128.66C302.91 125.64 303.56 124.02 305.55 122.38C307.58 120.7 311.84 120.17 315.16 121.18C316.61 121.62 316.88 121.62 317.18 121.21C317.67 120.54 320.51 120.14 320.85 120.69C320.99 120.93 321.09 123.81 321.06 127.09C321.01 132.2 321.08 133.2 321.57 134.03C322.07 134.88 322.08 135.06 321.66 135.48C321.38 135.74 320.36 135.99 319.33 136.04C317.26 136.15 316.93 135.74 317.78 134.11C318.49 132.73 318.52 123.84 317.82 122.77C317.17 121.78 316.67 121.79 316.67 122.8C316.67 123.23 316.37 123.95 316 124.38L315.34 125.17L314.42 124.08C312.75 122.12 309.16 122.25 307.14 124.36C306.23 125.31 306.17 125.56 306.18 127.95C306.18 130.27 306.28 130.64 307.17 131.81C307.71 132.52 308.64 133.3 309.23 133.55C310.55 134.1 313.08 134.13 314.52 133.61C315.1 133.4 315.85 133.33 316.17 133.46C316.73 133.67 316.72 133.72 316.13 134.39C314.67 136.03 311.09 136.66 308.46 135.73ZM568.67 135.15C568.39 135.09 567.6 134.95 566.9 134.84C565.36 134.59 563.24 132.77 562.28 130.89C561.74 129.83 561.62 129.08 561.72 127.2C561.94 122.89 563.89 120.57 567.77 119.96C571.98 119.31 575.34 120.74 576.8 123.81C577.44 125.15 577.5 128.21 576.91 129.55C576.16 131.24 574.67 133.33 574.2 133.33C573.95 133.33 573.58 133.54 573.36 133.8C573.15 134.05 572.33 134.42 571.53 134.62C570.74 134.82 569.88 135.05 569.63 135.12C569.37 135.19 568.94 135.21 568.67 135.15ZM578.25 134.81C577.79 134.34 577.99 133.5 578.67 133.08C579.29 132.69 579.33 132.3 579.33 127.37C579.33 123.08 579.24 122 578.83 121.67C578.56 121.44 578.33 120.97 578.33 120.63C578.33 120.08 578.6 120 580.47 120C581.65 120 582.86 120.09 583.15 120.21C583.65 120.4 583.65 120.47 583.12 121.05C582.46 121.78 582.13 124.91 582.64 125.67C583.09 126.32 588.37 126.32 589.17 125.67C589.79 125.15 589.57 122.65 588.78 121.41C588.52 120.99 588.4 120.5 588.51 120.32C588.76 119.92 592.9 119.89 593.15 120.3C593.25 120.46 593.11 121.03 592.83 121.55C592.46 122.27 592.34 123.72 592.34 127.48C592.33 132.1 592.38 132.51 593.04 133.21C594.27 134.52 593.69 135 590.88 135C587.85 135 587.1 134.46 588.47 133.26C589.19 132.62 589.34 132.17 589.42 130.51C589.49 128.68 589.43 128.5 588.67 128.13C588.13 127.88 586.85 127.8 585.08 127.91L582.33 128.09L582.33 130.35C582.33 132.59 582.66 133.36 583.74 133.76C584.08 133.89 584.08 134 583.74 134.37C583.27 134.87 578.67 135.23 578.25 134.81ZM571.27 132.86C571.76 132.6 572.6 131.94 573.12 131.39C573.91 130.56 574.1 130.01 574.24 128.24C574.47 125.47 573.96 123.97 572.4 122.78C571.34 121.97 570.87 121.83 569.05 121.84C567.04 121.85 566.88 121.91 565.8 123.09C564.78 124.2 564.67 124.52 564.67 126.29C564.67 129.62 565.8 131.97 567.83 132.87C569.14 133.44 570.16 133.44 571.27 132.86ZM310.36 116.2C310.07 115.84 309.93 113.12 309.87 106.48C309.79 97.8 309.75 97.21 309.14 96.76C308.79 96.49 304.52 94.29 299.66 91.85C294.8 89.42 290.52 87.27 290.16 87.06C289.53 86.71 278.78 81.33 271.98 77.96C270.23 77.09 268.62 76.17 268.4 75.92C268.12 75.57 268.01 69.86 267.99 54.14L267.97 32.83L268.9 32.08C269.41 31.66 270.21 31.23 270.67 31.11C271.12 31 271.72 30.72 272 30.48C272.27 30.25 276.1 28.27 280.5 26.09C293.89 19.45 300.81 16 301.33 15.69C303.58 14.36 310.09 11.33 310.69 11.33C311.1 11.33 320.59 15.92 331.78 21.52C345.61 28.45 352.34 31.65 352.81 31.54C353.19 31.44 354.47 30.71 355.67 29.92C356.86 29.12 359.63 27.38 361.83 26.05C367.07 22.88 366.72 23.1 369.97 21.08C372.89 19.28 374.2 18.93 374.56 19.88C374.95 20.89 374.51 21.26 368.94 24.63C368.44 24.92 367.02 25.78 365.77 26.54C364.52 27.29 361.85 28.9 359.83 30.11C357.82 31.32 355.6 32.7 354.92 33.18L353.67 34.04L353.67 54.62C353.67 70.57 353.57 75.33 353.25 75.76C353.02 76.07 343.65 80.9 332.42 86.51L312 96.7L312 106.13C312 114.9 311.96 115.6 311.38 116.12C310.84 116.61 310.71 116.62 310.36 116.2ZM589.48 116.23C589.39 115.99 589.28 111.57 589.24 106.41C589.17 97.87 589.11 96.99 588.58 96.6C588.02 96.19 582.48 93.36 576.5 90.41C569.9 87.16 558.64 81.52 556.67 80.47C555.47 79.83 553.12 78.65 551.44 77.84C549.76 77.03 548.22 76.07 548.02 75.71C547.78 75.26 547.67 68.23 547.67 53.86L547.67 32.68L548.92 31.9C549.6 31.47 558.79 26.81 569.33 21.53C579.88 16.26 588.64 11.81 588.82 11.64C589.69 10.79 591.57 11.53 602.17 16.86C608.22 19.9 615.27 23.43 617.83 24.7C620.4 25.97 623.4 27.48 624.5 28.05C629.88 30.82 631.64 31.67 632.09 31.67C632.36 31.67 633.12 31.29 633.79 30.84C634.47 30.38 637.68 28.41 640.92 26.47C644.17 24.52 647.36 22.59 648 22.18C648.64 21.77 649.9 20.96 650.81 20.38C652.59 19.24 653.91 19.04 654.22 19.85C654.52 20.63 653.18 21.85 649.83 23.85C648.18 24.83 645.63 26.39 644.17 27.3C642.7 28.21 640.07 29.8 638.33 30.82C636.59 31.84 634.83 32.96 634.42 33.31L633.67 33.94L633.66 54.22C633.66 72.94 633.62 74.57 633.08 75.41C632.63 76.11 627.77 78.68 612.08 86.51C597.67 93.71 591.65 96.87 591.62 97.27C591.6 97.58 591.54 101.85 591.48 106.77C591.38 115.81 591.26 116.67 590.12 116.67C589.86 116.67 589.57 116.47 589.48 116.23ZM86.18 95.5C84.36 94.49 82.81 93.67 82.74 93.67C82.62 93.67 65.24 85 54.1 79.39C51.13 77.89 48.54 76.67 48.34 76.67C48.13 76.67 47.75 76.16 47.49 75.53C47.1 74.6 47.02 70.94 47.01 54.7C47 43.87 47.09 34.4 47.21 33.66C47.41 32.36 47.5 32.28 50.63 30.71C52.39 29.83 61.77 25.1 71.47 20.22C88.66 11.55 90.58 10.73 91.52 11.64C92.03 12.13 131.12 31.66 131.6 31.67C131.84 31.67 133.49 30.75 135.27 29.62C137.05 28.5 139.17 27.2 140 26.74C140.82 26.27 143.07 24.92 145 23.73C146.92 22.54 149.32 21.06 150.31 20.45C152.39 19.17 153.52 19.02 153.83 20C153.95 20.36 153.95 20.81 153.84 20.98C153.73 21.16 152.19 22.19 150.41 23.26C148.62 24.34 145.82 26.04 144.17 27.05C142.52 28.06 140.04 29.53 138.67 30.34C137.29 31.14 135.45 32.3 134.58 32.92L133 34.06L133 54.45C133 72.51 132.94 74.94 132.47 75.6C132.18 76.02 130.65 77 129.06 77.78C124.3 80.11 109.22 87.66 108.53 88.05C106.01 89.46 90.23 97.33 89.9 97.33C89.68 97.33 88.01 96.51 86.18 95.5ZM101.56 88.96C107.76 85.82 116.64 81.34 121.28 79C125.93 76.66 129.94 74.53 130.2 74.28C130.86 73.61 130.91 34.77 130.25 34.11C129.54 33.4 90.67 14 89.97 14C89.61 14 80.74 18.3 70.24 23.56C59.75 28.81 50.83 33.27 50.42 33.47L49.67 33.83L49.67 52.71C49.67 63.09 49.57 72.05 49.46 72.61C49.29 73.45 49.42 73.79 50.11 74.41C50.87 75.09 89.47 94.67 90.05 94.67C90.18 94.67 95.36 92.1 101.56 88.96ZM601.67 89.04C607.81 85.95 613.58 83.04 614.5 82.57C615.42 82.1 619.24 80.2 623 78.34C626.76 76.48 630.1 74.65 630.42 74.28C630.96 73.64 631 72.17 631 53.88L631 34.17L629.91 33.52C629.32 33.17 628.23 32.59 627.5 32.22C619.21 28.12 613.54 25.28 612.17 24.55C611.25 24.06 608.4 22.64 605.83 21.39C603.27 20.14 598.88 17.96 596.09 16.56C593.3 15.15 590.68 14.01 590.26 14.02C589.84 14.03 580.65 18.51 569.83 23.96L550.17 33.89L550.17 54.2L550.17 74.5L557.33 78.12C561.27 80.12 570.2 84.64 577.17 88.18C584.13 91.72 589.99 94.63 590.17 94.64C590.36 94.65 595.53 92.14 601.67 89.04ZM316.09 92.04C318.52 90.78 326.95 86.52 334.83 82.56C342.72 78.6 349.65 75.06 350.25 74.68L351.33 74.01L351.33 54.25C351.33 43.39 351.21 34.34 351.08 34.14C350.94 33.94 350.38 33.55 349.83 33.27C349.28 33 348.38 32.52 347.83 32.22C347.28 31.92 340.31 28.42 332.33 24.44C324.36 20.47 316.41 16.5 314.67 15.62C312.92 14.74 311.16 14.02 310.74 14.01C310.32 14.01 307.39 15.3 304.24 16.89C301.08 18.48 292.2 22.94 284.5 26.81L270.5 33.83L270.41 53.86L270.33 73.88L271.08 74.58C271.49 74.96 274.46 76.58 277.67 78.16C280.88 79.74 285.3 81.95 287.5 83.06C289.7 84.17 293.3 85.97 295.5 87.06C299.25 88.92 306.59 92.63 308.83 93.81C310.49 94.67 311.49 94.43 316.09 92.04ZM302.5 87.49C293.97 83.27 280.98 77.03 277.75 75.61C274.88 74.36 274.67 74.19 274.67 73.3C274.67 72.45 274.79 72.33 275.65 72.33C276.22 72.33 279.5 73.73 283.4 75.63C287.12 77.45 292.12 79.83 294.5 80.94C304.36 85.51 308.7 87.7 308.9 88.22C309.14 88.86 308.62 89.81 307.96 89.9C307.71 89.94 305.25 88.85 302.5 87.49ZM582.4 87.5C579.61 86.13 577.25 85 577.15 85C577.06 85 575 84.05 572.57 82.88C570.15 81.72 566.29 79.87 564 78.77C561.71 77.67 558.73 76.26 557.38 75.63C555.02 74.55 554 73.68 554 72.76C554 71.79 556.29 72.39 560.67 74.51C566.12 77.15 568.58 78.33 571 79.44C572.01 79.9 575.53 81.59 578.83 83.18C582.13 84.78 585.63 86.44 586.59 86.87C587.56 87.31 588.45 87.91 588.56 88.21C588.78 88.78 588.36 89.71 587.8 89.9C587.63 89.96 585.2 88.88 582.4 87.5ZM84.25 88.67C83.38 88.12 82.6 87.67 82.51 87.67C82.36 87.67 80.24 86.68 72.17 82.84C70.88 82.23 67.32 80.52 64.26 79.03C61.19 77.55 58.61 76.33 58.52 76.33C58.43 76.33 57.38 75.86 56.18 75.29C54.23 74.36 54 74.14 54 73.28C54 71.45 54.2 71.51 64.33 76.41C67.17 77.79 70.62 79.44 72 80.08C76.47 82.17 86.48 87.01 87.33 87.49C87.85 87.78 88.17 88.25 88.17 88.73C88.17 89.96 86.24 89.93 84.25 88.67ZM346.07 72.93C345.77 72.63 345.67 68 345.67 54.14C345.67 37.67 345.72 35.72 346.19 35.54C346.9 35.26 346.88 35.26 347.48 35.86C347.94 36.32 348 38.44 348 54.12C348 69.63 347.93 71.94 347.48 72.59C346.89 73.44 346.63 73.5 346.07 72.93ZM625.49 72.92C625.15 72.03 625.5 35.56 625.85 35.44C626.04 35.38 626.46 35.52 626.79 35.76C627.34 36.16 627.38 37.32 627.34 54.32C627.32 66.89 627.2 72.59 626.95 72.9C626.49 73.45 625.69 73.46 625.49 72.92ZM124.88 72.25C124.61 71.24 124.61 43.68 124.88 39.22C125.09 35.79 125.13 35.67 125.87 35.67C126.3 35.67 126.8 35.96 126.99 36.31C127.21 36.73 127.33 42.99 127.33 54.33C127.33 65.67 127.21 71.93 126.99 72.36C126.5 73.27 125.13 73.2 124.88 72.25ZM205.22 57.78C204.86 57.41 204.97 56.47 205.5 55.45C205.77 54.93 206 54.19 206 53.8C206 52.79 207.1 51.93 208.22 52.06C209.66 52.22 209.57 53.13 207.86 55.7C206.44 57.83 205.79 58.34 205.22 57.78ZM481.11 57.48C480.99 57.16 481.08 56.44 481.32 55.87C481.55 55.3 481.9 54.28 482.1 53.61C482.49 52.28 483.64 51.51 484.7 51.85C485.64 52.14 485.46 52.91 483.85 55.5C482.38 57.88 481.51 58.5 481.11 57.48ZM6.58 55.45C5.68 55.19 5.89 54.12 7 53.33C7.55 52.94 8 52.43 8 52.19C8 51.95 8.45 50.77 9 49.55C9.55 48.34 10 47.06 10 46.71C10 46.37 10.22 45.89 10.5 45.67C10.78 45.44 11 45.06 11 44.83C11 44.6 11.37 43.57 11.83 42.54C12.61 40.77 12.73 40.67 13.84 40.67C14.67 40.67 15.08 40.84 15.22 41.25C15.34 41.57 16.47 44.31 17.75 47.33C19.28 50.97 20.37 53.09 20.95 53.58C21.67 54.19 21.77 54.43 21.46 54.91C21.17 55.38 20.54 55.52 18.38 55.6C15.6 55.7 14.33 55.35 14.33 54.49C14.33 54.22 14.45 54 14.6 54C14.75 54 15.15 53.8 15.48 53.56C16.06 53.13 16.06 53.07 15.51 52.23C14.98 51.42 14.77 51.35 12.92 51.42C10.23 51.53 9.75 52.22 11.07 54.07C11.39 54.52 11.4 54.74 11.09 55.05C10.67 55.46 7.58 55.74 6.58 55.45ZM228 55.17C227.67 54.77 227.69 54.45 228.13 53.54C228.54 52.67 228.67 51.36 228.67 48.02C228.67 43.77 228.64 43.61 227.83 42.86C227.04 42.13 226.71 41.05 227.25 40.96C228.39 40.77 232.63 40.72 234.64 40.88C236.78 41.04 237.25 41.2 238.06 42.01C239.22 43.17 239.26 44.31 238.17 45.61C237.71 46.15 237.33 46.7 237.33 46.84C237.33 46.97 237.78 47.59 238.33 48.22C240.62 50.82 238.65 54.58 234.58 55.36C232.13 55.84 228.47 55.73 228 55.17ZM508.68 54.61C506.91 53.7 506.39 53.24 505.8 52.03C503.95 48.28 504.75 44.08 507.71 41.97C509.35 40.8 512.68 40.32 515.62 40.82C516.97 41.06 518.2 41.45 518.36 41.71C518.83 42.45 518.71 44.55 518.17 45C517.59 45.48 516.67 45.22 516.67 44.56C516.67 43.05 513.26 42.2 511.17 43.19C509.29 44.08 508.46 46.12 508.96 48.61C509.41 50.81 510.01 51.8 511.43 52.7C512.38 53.29 512.85 53.34 515.58 53.15C518.19 52.97 518.67 53.01 518.67 53.44C518.67 54.46 516.32 55.43 513.5 55.58C510.99 55.71 510.7 55.65 508.68 54.61ZM234.56 52.61C236.08 51.18 235.32 48.67 233.37 48.67C232.39 48.67 232.43 48.47 232.62 52.42C232.68 53.55 233.47 53.63 234.56 52.61ZM25.86 51.48C24.46 50.08 25.64 49.72 31.73 49.72C35.56 49.71 37.09 49.83 37.55 50.16C38.14 50.59 38.14 50.63 37.53 51.3C36.94 51.95 36.55 52 31.64 52C27.3 52 26.29 51.91 25.86 51.48ZM244.74 51.59C243.72 51.1 243.93 50.28 245.17 49.94C245.72 49.8 248.3 49.71 250.9 49.75C256.17 49.84 257.16 50.17 255.71 51.36C255.01 51.93 254.39 52 250.21 51.98C247.51 51.96 245.17 51.8 244.74 51.59ZM523.35 51.55C522.83 51.03 522.92 50.1 523.53 49.87C524.5 49.49 533.93 49.65 534.82 50.05C535.88 50.54 535.88 50.78 534.83 51.47C534.14 51.92 533.12 52.01 528.85 51.96C525.74 51.93 523.57 51.77 523.35 51.55ZM13.54 47.52C12.83 46.43 12.46 46.44 12.18 47.57C11.88 48.75 12.85 49.62 13.62 48.86C14.04 48.43 14.03 48.27 13.54 47.52ZM25.73 47.93C25.17 47.37 25.24 46.44 25.86 46.2C26.55 45.94 36.79 45.94 37.47 46.2C37.76 46.31 38 46.66 38 46.97C38 48.19 37.35 48.33 31.67 48.33C27.81 48.33 26.01 48.21 25.73 47.93ZM244.35 47.85C244.13 47.58 244 47.1 244.06 46.77C244.16 46.22 244.68 46.16 249.5 46.07C255.55 45.96 256.33 46.07 256.33 46.99C256.33 48.11 255.24 48.33 249.9 48.33C245.8 48.33 244.67 48.23 244.35 47.85ZM522.93 47.48C522.61 46.78 522.63 46.56 523.02 46.31C523.28 46.15 525.98 46.01 529.02 46.01C533.25 46 534.69 46.11 535.18 46.47C535.81 46.93 535.81 46.95 535.19 47.64C534.6 48.29 534.22 48.33 528.94 48.33L523.32 48.33L522.93 47.48ZM234.12 45.64C235.5 44.56 235.11 43 233.47 43C232.66 43 232.33 43.57 232.33 44.97C232.33 46.51 232.8 46.68 234.12 45.64ZM53.33 36.99C52.7 35.81 53.25 35.2 56.22 33.83C57.81 33.1 60.17 31.93 61.47 31.24C62.77 30.54 67.13 28.31 71.17 26.28C75.2 24.25 79.17 22.21 80 21.76C85.96 18.47 88.12 17.72 88.54 18.81C88.9 19.75 88.08 20.35 82.66 23.1C79.64 24.63 73.42 27.81 68.83 30.16C59.85 34.76 54.04 37.67 53.82 37.67C53.75 37.67 53.53 37.36 53.33 36.99ZM274.4 37.27C274.18 37.05 274 36.52 274 36.1C274 35.44 274.61 35.02 277.92 33.38C286.86 28.94 305.58 19.28 306.9 18.42C307.3 18.16 307.97 18 308.4 18.06C309.01 18.14 309.17 18.38 309.17 19.17C309.17 20.12 308.94 20.28 304.17 22.71C291.8 28.99 283.17 33.4 279.23 35.45C276.88 36.67 274.92 37.67 274.88 37.67C274.84 37.67 274.62 37.49 274.4 37.27ZM553.49 36.63C553.35 36.21 553.44 35.76 553.72 35.5C553.96 35.26 559.87 32.18 566.83 28.64C573.8 25.11 581.16 21.34 583.2 20.27C587.09 18.23 589 17.79 589 18.94C589 19.96 587.75 20.79 581.33 23.99C571.22 29.03 556.19 36.73 555.85 37.04C555.21 37.63 553.72 37.36 553.49 36.63ZM410.32 31.18C409.71 30.58 410.01 29.54 411.08 28.49C414.49 25.18 415.71 22.84 414.6 21.73C413.98 21.11 412.39 21.26 411.76 22C410.93 22.97 410.33 22.83 410.33 21.68C410.33 19.8 410.93 19.07 412.67 18.83C413.81 18.68 414.55 18.76 415.27 19.13C416.93 19.99 417.33 20.6 417.33 22.22C417.33 23.81 416.76 24.9 414.9 26.89C413.57 28.32 413.86 29 415.8 29C416.73 29 417.49 29.2 417.83 29.55C418.34 30.06 418.34 30.14 417.78 30.69C417.3 31.16 416.47 31.3 413.9 31.39C412.1 31.45 410.49 31.36 410.32 31.18ZM189.56 27.78C188.93 27.16 189.39 25.67 190.47 24.77C191.64 23.81 193.88 20.79 194.04 19.96C194.21 19.07 193.61 18 192.83 17.8C192.27 17.66 191.7 17.87 190.88 18.49C189.55 19.5 189.2 19.24 189.52 17.49C189.81 15.96 191.18 15.19 193.22 15.42C195.19 15.64 196.26 16.42 196.52 17.8C196.85 19.59 196.44 20.72 194.66 22.86C193.76 23.94 193.01 25.02 193.01 25.25C193 25.53 193.58 25.67 194.79 25.67C196.99 25.67 197.77 26.3 196.83 27.34C196.31 27.91 195.8 28 193 28C191.23 28 189.68 27.9 189.56 27.78ZM398.74 23.72C397.77 23.37 396.62 22.76 396.18 22.35C393.95 20.25 393.3 15.15 394.91 12.4C395.38 11.6 396.36 10.55 397.09 10.07C398.25 9.3 398.82 9.17 401.63 9.08C404.48 8.98 404.98 9.05 406.15 9.74C406.88 10.16 407.91 11.13 408.45 11.9C411.32 15.98 408.61 22.65 403.67 23.69C403.02 23.82 402.05 24.02 401.5 24.13C400.89 24.26 399.81 24.1 398.74 23.72ZM378.42 23.77C377.48 23.58 377.44 22.64 378.33 21.83C378.94 21.28 379 20.81 379 16.32C379 11.45 378.99 11.41 378.17 10.86C377.71 10.56 377.33 10.02 377.33 9.66C377.33 9.09 377.56 9 379.02 9C381.23 9 381.74 9.31 383.54 11.77C384.37 12.9 386.05 15.06 387.27 16.56C390.16 20.08 390.42 19.93 390.13 14.87C389.95 11.7 389.82 11.09 389.24 10.63C388.82 10.29 388.64 9.88 388.77 9.54C389.07 8.75 392.93 8.76 393.23 9.55C393.36 9.88 393.2 10.27 392.83 10.54C392.29 10.94 392.21 11.63 392.13 17.04C392.06 21.85 391.94 23.2 391.55 23.59C390.54 24.61 389.51 23.79 385.53 18.84C383.4 16.18 381.51 14 381.33 14C381.13 14 381 15.55 381 17.81C381 21.38 381.05 21.66 381.74 22.15C382.39 22.6 382.42 22.72 381.99 23.14C381.44 23.68 379.56 24.01 378.42 23.77ZM661.21 22.53C658.92 21.57 657.61 20.16 656.86 17.88C655.88 14.87 656.46 12.21 658.55 10.1C660.39 8.26 661.92 7.86 666 8.15C670.25 8.45 670.28 8.45 672.05 7.98C674.73 7.27 674.67 7.13 674.67 14.3C674.67 19.77 674.74 20.69 675.23 21.18C676.22 22.18 675.4 22.83 673.13 22.83C671.5 22.83 671.16 22.73 671.06 22.22C670.99 21.89 671.18 21.44 671.48 21.22C671.94 20.88 672 20.06 671.93 15.16C671.83 9.57 671.82 9.5 671.08 9.39C670.47 9.31 670.29 9.48 670.12 10.29C670.01 10.85 669.65 11.54 669.33 11.84C668.77 12.35 668.7 12.32 668.28 11.47C667.16 9.18 662.91 9.2 660.75 11.5C659.76 12.56 659.67 12.84 659.67 14.84C659.67 17.31 660.15 18.51 661.67 19.78C663.45 21.28 665.82 21.6 667.87 20.61C668.25 20.43 668.93 20.32 669.37 20.39C671.73 20.72 668.37 22.96 665.11 23.21C663.56 23.33 662.77 23.19 661.21 22.53ZM403.23 21.98C405.7 21.04 406.88 18.66 406.47 15.41C406.28 13.89 406.01 13.3 405.02 12.23C403.98 11.11 403.53 10.89 402.12 10.75C400.31 10.58 398.98 11.06 397.87 12.3C397.4 12.81 397.2 13.64 397.1 15.41C396.99 17.58 397.07 18.01 397.9 19.5C398.5 20.57 399.25 21.37 400 21.75C401.35 22.43 401.94 22.47 403.23 21.98ZM156.8 20.19C156.7 19.93 156.93 19.28 157.32 18.75C158.17 17.61 158.58 13.2 158.18 9.52C157.99 7.69 157.82 7.22 157.3 7.09C156.36 6.84 156.5 5.72 157.5 5.47C158.91 5.12 160.57 5.62 161.4 6.65C161.82 7.17 163.59 9.41 165.33 11.62C167.07 13.83 168.65 15.6 168.83 15.54C169.02 15.49 169.21 13.84 169.26 11.75C169.35 8.11 169.34 8.03 168.46 7.22C167.07 5.93 167.56 5.33 170 5.33C172.26 5.33 172.72 5.76 171.88 7.06C171.48 7.67 171.38 9.02 171.37 13.62C171.37 18.61 171.29 19.49 170.8 20.04C169.6 21.36 168.99 20.87 163.85 14.42C162.2 12.35 160.67 10.67 160.44 10.67C160.13 10.67 160.05 11.62 160.1 14.47C160.16 17.66 160.27 18.37 160.8 18.96C161.31 19.53 161.35 19.75 161.01 20.16C160.44 20.85 157.06 20.87 156.8 20.19ZM176.59 19.83C173.8 17.96 172.58 14.48 173.48 10.98C173.77 9.85 174.32 8.49 174.7 7.96C176.19 5.86 180.19 4.83 183.63 5.66C186.05 6.24 188.13 8.29 188.62 10.57C189.37 14.11 187.93 17.59 184.93 19.44C183.62 20.25 182.94 20.43 180.6 20.54C178.07 20.66 177.73 20.6 176.59 19.83ZM182.38 18.61C184.71 17.91 186.19 14.97 185.7 12C185.14 8.65 183.69 7.33 180.52 7.33C178.96 7.33 178.51 7.48 177.59 8.3C176.57 9.22 176.5 9.42 176.39 11.93C176.23 15.29 176.83 16.69 178.96 18.04C180.68 19.14 180.65 19.13 182.38 18.61Z" fill="#1e2749" fill-rule="evenodd"/>
</svg>
