<?xml version="1.0" encoding="UTF-8"?>
<svg xmlns="http://www.w3.org/2000/svg" viewBox="0 0 2430 1446" width="2430" height="1446" shape-rendering="geometricPrecision">
<path d="M1100.5 1410.08C1089.94 1409.2 1087 1408.4 1087 1406.41C1087 1404.51 1090.88 1403.09 1098.12 1402.33C1101.69 1401.96 1104.54 1401.06 1105.48 1400.02C1106.83 1398.53 1106.98 1390.58 1106.76 1332.94L1106.5 1267.55L1104 1266.86C1102.62 1266.48 1098.82 1265.68 1095.55 1265.09C1089.89 1264.07 1085.87 1261.8 1087.26 1260.4C1088.91 1258.76 1099.14 1257.92 1117.5 1257.93C1136.11 1257.93 1146.1 1258.77 1147.8 1260.47C1149.01 1261.68 1144.17 1264.79 1139.96 1265.51C1137.41 1265.94 1135.39 1267.01 1134.46 1268.41C1132.82 1270.92 1131.3 1287.77 1130.81 1309L1130.5 1322.5L1172.88 1322.76C1205.68 1322.96 1215.61 1322.74 1216.78 1321.77C1218.07 1320.7 1218.2 1317.6 1217.72 1300.51C1216.89 1271.14 1215.29 1266.42 1205.85 1265.34C1197.14 1264.34 1192.6 1260.74 1198.5 1259.52C1199.88 1259.23 1202.17 1258.75 1203.61 1258.45C1205.04 1258.15 1215.28 1257.92 1226.36 1257.92C1244.69 1257.94 1255.1 1258.77 1256.69 1260.36C1257.95 1261.61 1254.61 1263.97 1249.46 1265.47C1244.47 1266.92 1244.03 1267.3 1243.29 1270.77C1242.86 1272.82 1242.5 1301.97 1242.5 1335.54C1242.5 1405.04 1241.95 1400.58 1250.82 1402.86C1257.04 1404.45 1259.03 1406.38 1256.09 1407.95C1252.22 1410.02 1227.68 1411.27 1213.05 1410.14C1198.28 1409 1196 1408.51 1196 1406.43C1196 1404.52 1199.25 1403 1203.36 1403C1207.85 1403 1212.24 1399.36 1214.46 1393.8C1216.7 1388.22 1218.13 1369.24 1217.78 1350L1217.5 1334.5L1174.2 1334.24L1130.89 1333.98L1131.2 1364.91L1131.5 1395.84L1133.92 1398.42C1135.26 1399.84 1136.7 1401 1137.14 1401C1137.57 1401 1140.44 1401.94 1143.51 1403.09C1150.15 1405.58 1149.71 1407.25 1141.96 1408.92C1135.3 1410.34 1111.55 1411.01 1100.5 1410.08ZM1162.73 1207.75C1161.82 1207.06 1160.61 1204.47 1160.03 1202C1157.99 1193.3 1157 1128.12 1156.77 987C1156.59 874.05 1156.8 844.04 1157.8 842.26C1159.21 839.76 1162.83 838.49 1165.84 839.45C1171.83 841.35 1172.17 852.49 1171.76 1036.5C1171.37 1208.29 1171.49 1204.31 1166.44 1207.64C1164.78 1208.73 1164.05 1208.75 1162.73 1207.75ZM368.48 1185.13C361.98 1182.18 360.38 1176.18 363.97 1168.25C366.29 1163.15 369 1162.53 369 1167.1C369 1174.46 373.68 1179.24 382.12 1180.5C390.36 1181.73 397.61 1175.42 400.44 1164.57C403.95 1151.11 397.3 1142.67 383.08 1142.55C378.97 1142.52 376.52 1142.06 376.26 1141.28C375.78 1139.84 381.2 1136.33 385.31 1135.43C389.38 1134.54 395.68 1127.89 396.96 1123.15C398.71 1116.65 395.41 1110.81 387.79 1106.9C380.96 1103.4 376.57 1104.69 369.04 1112.42C366.59 1114.94 364 1117 363.29 1117C361.35 1117 361.71 1111.49 363.94 1107.11C366.38 1102.34 369.34 1100.38 377.21 1098.37C395.54 1093.67 412.51 1104.83 407.97 1118.59C407.28 1120.67 405.44 1124.4 403.86 1126.88C399.96 1133.03 400.17 1135.21 405.05 1139.19C416.42 1148.48 415.58 1163.42 403.01 1175.41C396.91 1181.23 393.19 1183.28 384.5 1185.63C377.75 1187.45 373.28 1187.31 368.48 1185.13ZM722 1172.9C722 1172.3 725.89 1167.68 730.65 1162.65C752.46 1139.58 767.12 1117.38 765.48 1109.92C763.97 1103.04 754.54 1095.98 746.45 1095.67C741.05 1095.46 737.44 1097.96 733.96 1104.28C730.12 1111.28 729.71 1111.14 730.24 1103C730.87 1093.49 732.27 1090.51 737.04 1088.6C750.23 1083.32 768.02 1087.29 774.19 1096.89C776.75 1100.89 777.09 1102.23 776.75 1107C776.05 1116.75 769.9 1126.88 750.65 1150C745.89 1155.71 742 1160.97 742 1161.69C742 1162.69 744.46 1163 752.25 1162.99C757.89 1162.98 764.22 1162.69 766.31 1162.35C770.87 1161.6 775.27 1157.53 776.61 1152.85C777.81 1148.67 780.67 1147.85 781.58 1151.44C782.24 1154.08 780.57 1171.26 779.49 1173.02C778.6 1174.46 722 1174.34 722 1172.9ZM1958.75 1150.93C1956.73 1149.74 1956.49 1146.83 1958.16 1143.68C1958.79 1142.48 1964.05 1136.2 1969.84 1129.73C1994.14 1102.55 1999.31 1091.25 1992.03 1081.2C1988.75 1076.67 1987.12 1075.59 1982.11 1074.64C1976.29 1073.53 1971.73 1075.55 1964.11 1082.6C1956.29 1089.85 1955.75 1089.58 1958.61 1079.93C1962.45 1066.99 1965.43 1064.63 1978 1064.63C1987.07 1064.63 1994.2 1066.61 1999.37 1070.56C2004.01 1074.1 2008 1080.87 2008 1085.19C2008 1093.54 2000.44 1104.9 1982.03 1124.23C1974.31 1132.33 1968 1139.48 1968 1140.11C1968 1140.96 1970.89 1141.1 1978.75 1140.61C2001.68 1139.21 2005.28 1137.93 2007.97 1130.22C2008.78 1127.9 2009.75 1126 2010.13 1126C2011.03 1126 2012.26 1141.2 2011.83 1147L2011.5 1151.5L1986 1151.73C1969.91 1151.87 1959.85 1151.58 1958.75 1150.93ZM2336 1134.42C2328.97 1131.4 2327.06 1124.72 2331.02 1116.96C2333.61 1111.89 2336 1111.7 2336 1116.55C2336 1121.81 2338.39 1125.53 2343.29 1127.9C2348.33 1130.34 2352.98 1130.58 2356.8 1128.6C2366.28 1123.66 2371.05 1108.2 2365.91 1099.05C2362.78 1093.48 2358.82 1091.54 2350.5 1091.52C2343.63 1091.5 2343.32 1091.34 2343.85 1088.08C2343.93 1087.57 2346.29 1086.4 2349.09 1085.47C2361.85 1081.23 2368.03 1068.94 2361.37 1061.03C2358.18 1057.24 2352.11 1054 2348.18 1054C2344.83 1054 2339.32 1057.43 2333.25 1063.3L2329 1067.42L2329 1063.44C2329 1058.45 2331.77 1053.13 2335.82 1050.37C2339.88 1047.6 2350.67 1045.58 2356.75 1046.46C2374.02 1048.93 2380.54 1062.27 2371.06 1075.71C2366.85 1081.69 2367.12 1083.64 2372.96 1089.37C2378.64 1094.93 2380.42 1099.26 2379.78 1105.87C2378.58 1118.3 2368.01 1129.41 2352.88 1134.12C2345.65 1136.36 2340.74 1136.45 2336 1134.42ZM100.55 1113.48C88.58 1111.53 81.89 1109.51 73.5 1105.31C54.11 1095.6 41.41 1079.94 36.35 1059.5C34.19 1050.78 33.86 1022.62 35.81 1013.5C40.74 990.4 51.8 975.68 71.43 966.09C92.24 955.93 122.69 953.26 147.62 959.4C160.61 962.61 163.84 963.84 165.02 966.04C168.22 972.02 162.87 997.89 158.93 995.46C158.49 995.19 157.41 992.48 156.53 989.44C153.62 979.44 145.09 972.71 130 968.51C120.42 965.84 101.72 966.01 92.93 968.85C80.49 972.86 68.87 982.44 63.42 993.16C54.85 1010.04 53.75 1037.97 60.86 1058.57C64.82 1070.08 69.21 1077.16 77.53 1085.48C89.6 1097.54 103.33 1103 121.58 1103C131.58 1103 134.92 1102.37 155.97 1096.52C162.82 1094.61 167 1094.56 167 1096.36C167 1098.39 157.52 1106.88 153.23 1108.7C140.26 1114.21 117.58 1116.27 100.55 1113.48ZM191 1111.41C189.62 1111.16 187.04 1110.72 185.25 1110.43C183.45 1110.14 182 1109.31 182 1108.56C182 1107.27 188.68 1104 191.33 1104C192.04 1104 193.84 1102.73 195.32 1101.19C197.74 1098.67 198.12 1097.23 199.04 1087.44C200.64 1070.23 201.97 971.74 200.62 970.39C200 969.77 196.83 968.76 193.57 968.13C187.14 966.9 180.81 964.16 180.26 962.38C179.66 960.42 184 959.87 204.5 959.3C238.34 958.37 250.27 961.84 232.74 967.5C228.29 968.94 226.19 970.2 225.29 972C224.38 973.81 224.03 981.36 224.01 999.25L224 1024L266.3 1024C297.87 1024 308.9 1023.7 309.8 1022.8C311.27 1021.33 311.43 997.37 310.04 985.31C308.48 971.7 305.59 968.01 295.1 966.23C291.03 965.53 287.76 962.91 289.19 961.48C291.91 958.76 342.06 958.27 348.49 960.91L351.48 962.13L348.99 964.04C347.62 965.09 344.7 966.31 342.5 966.75C335.24 968.22 335.5 965.63 335.5 1035.54C335.5 1093.12 335.63 1097.78 337.26 1100.28C338.23 1101.76 340.26 1103.23 341.76 1103.55C343.27 1103.86 346.03 1104.8 347.91 1105.62C350.98 1106.97 351.16 1107.27 349.77 1108.66C347.36 1111.07 332.55 1112.28 312.5 1111.7C294.39 1111.18 289 1110.25 289 1107.63C289 1105.85 290.3 1105.36 297.35 1104.48C301.91 1103.91 303.5 1103.2 305.48 1100.84C309.62 1095.92 310.22 1091.25 310.37 1063L310.5 1036.5L267 1036.24L223.5 1035.98L223.78 1049.24C223.93 1056.53 224.47 1070.25 224.98 1079.72C226.11 1100.6 226.71 1102.19 234.24 1104.38C237.13 1105.22 240.37 1106.55 241.43 1107.32C243.31 1108.7 243.29 1108.77 240.93 1110.05C239.17 1111.01 232.31 1111.43 216 1111.61C203.62 1111.74 192.38 1111.65 191 1111.41ZM462.92 1101.52C453.56 1099.94 444.68 1097.4 440.03 1094.97C426.23 1087.76 414.34 1075.59 407.51 1061.68C400.61 1047.62 399.49 1042.24 399.57 1023.5C399.64 1008.4 399.81 1007.02 402.63 998.94C406.93 986.61 412.35 977.52 420.3 969.29C430.55 958.67 441.04 953 460 947.84C471.94 944.58 498.66 944.56 513.21 947.78C532.05 951.96 533.78 953.64 532.11 966.09C530.72 976.43 529.18 981.52 526.82 983.66C524.27 985.97 523.15 984.58 522.03 977.67C521.52 974.54 520.41 971 519.56 969.79C513.05 960.48 487.48 953.84 466.92 956.11C446.17 958.41 432.21 971.31 424.85 995C421.73 1005.04 421.47 1028.59 424.35 1039.5C431.21 1065.5 448.96 1083.61 473.78 1089.94C488.52 1093.71 503.33 1092.37 523.29 1085.48C534.12 1081.74 535.68 1083.14 528.89 1090.5C520.56 1099.54 507.98 1103.07 484.66 1102.9C476.87 1102.84 467.09 1102.22 462.92 1101.52ZM556.26 1099.99C549.49 1099 548 1098.39 548 1096.6C548 1094.97 549.36 1094.46 556.11 1093.54C559.13 1093.13 561.52 1092.08 563 1090.5C567.79 1085.4 568.27 1080.69 568.75 1034.05C569.44 967.02 567.95 958.5 555.04 955.6C550.04 954.47 546.7 951.96 548.21 950.46C551.25 947.42 605.68 947.35 608.72 950.38C609.86 951.52 605.72 954.96 602.48 955.57C596.66 956.66 593.34 959.45 591.63 964.67C589.42 971.39 588.02 985.2 588.01 1000.26L588 1013.02L631.25 1012.76L674.5 1012.5L674.2 992.5C673.87 969.98 672.87 961.41 670.27 958.86C669.3 957.9 666.03 956.3 663 955.31C656.73 953.25 655.24 950.65 659.7 949.57C661.24 949.2 671.07 948.64 681.55 948.32C700.1 947.77 716.3 948.9 718.29 950.89C719.49 952.09 715.15 955 712.18 955C708.45 955 703.05 958.01 701.53 960.94C700.77 962.41 699.66 968.76 699.05 975.05C697.39 992.34 696.58 1059.19 697.84 1074.5C698.87 1087.07 699.01 1087.59 701.89 1090.18C703.86 1091.95 706.5 1093.07 709.69 1093.49C722.39 1095.16 721.3 1098.42 707.45 1100.13C697.73 1101.34 665.56 1100.72 660.5 1099.24C655.38 1097.73 656.14 1095.31 662.29 1093.52C670.09 1091.25 671.82 1088.96 672.94 1079.43C674.28 1068.06 675.39 1025.34 674.36 1024.81C673.89 1024.57 654.6 1024.85 631.5 1025.43L589.5 1026.5L588.67 1042.5C586.98 1075.27 591.12 1090.24 602.7 1093.15C607.55 1094.37 609.9 1096.5 608.25 1098.15C605.78 1100.62 569.41 1101.91 556.26 1099.99ZM1699 1079.34C1683.83 1077.28 1667.72 1071.35 1658 1064.26C1644.44 1054.36 1634.69 1037.7 1631.38 1018.73C1629.14 1005.89 1629.98 982.43 1633.04 972.5C1636.64 960.85 1641.74 952.24 1649.99 943.93C1659.55 934.28 1670.79 928.12 1684.55 924.96C1692.87 923.06 1710.8 922.22 1724.55 923.1C1749.32 924.7 1764.87 929.87 1762.52 935.74C1762.13 936.71 1761.43 942.09 1760.97 947.7C1760.5 953.31 1759.63 958.82 1759.03 959.95C1756.56 964.57 1753 960.72 1753 953.44C1753 949.37 1747.73 942.92 1742.07 940.04C1734.28 936.09 1721.58 932.87 1711.46 932.29C1694.11 931.31 1682.78 934.47 1672.39 943.21C1656.86 956.26 1651.17 972.47 1652.28 1000.44C1653.18 1023.11 1657.9 1034.93 1671.49 1048.52C1683.58 1060.62 1696.22 1066.24 1714.5 1067.63C1724.73 1068.41 1734.85 1066.83 1747.53 1062.46C1763.46 1056.97 1767.58 1058.03 1760.55 1065.81C1752.73 1074.47 1738.31 1078.94 1716.5 1079.47C1708.8 1079.66 1700.92 1079.6 1699 1079.34ZM1788 1076.41C1786.62 1076.16 1784.04 1075.72 1782.25 1075.43C1775.61 1074.36 1778.92 1071.38 1789.5 1068.89C1792.25 1068.24 1795.07 1067.26 1795.77 1066.71C1796.79 1065.92 1796.93 1057.67 1796.45 1026.61C1795.55 967.36 1794.45 941.74 1792.67 938.34C1791.56 936.21 1789.86 935.12 1785.94 933.98C1781.07 932.57 1777.77 929.9 1779.17 928.5C1781.22 926.45 1818.49 925.29 1831.22 926.88C1840.54 928.05 1840.07 929.47 1829.01 933.5C1825.1 934.93 1823.15 936.28 1822.21 938.25C1820.76 941.28 1818.69 973.01 1819.19 984.5L1819.5 991.5L1861.38 991.76C1893.34 991.96 1903.62 991.73 1904.75 990.79C1906.01 989.75 1906.13 986.64 1905.54 970.03C1904.76 947.51 1903.75 939.49 1901.38 936.87C1900.45 935.84 1897.38 934.28 1894.54 933.38C1888.8 931.57 1885.28 929.39 1886.36 928.31C1889.34 925.32 1940.18 925.52 1945.06 928.54C1946.99 929.73 1943.05 932.79 1938.05 933.99C1934.41 934.86 1932.96 935.78 1932.04 937.82C1930.46 941.29 1929.25 974.68 1928.83 1026.87L1928.5 1067.24L1935 1068.94C1943.21 1071.09 1946.57 1072.83 1945.19 1074.21C1943.24 1076.16 1935.44 1076.91 1918 1076.83C1897.37 1076.74 1886.8 1075.92 1886.29 1074.39C1886.09 1073.79 1889.88 1071.56 1894.71 1069.45C1899.55 1067.34 1904.06 1065.2 1904.75 1064.68C1905.7 1063.98 1906 1056.52 1906 1033.38L1906 1003L1862.49 1003L1818.97 1003L1819.24 1034.08L1819.5 1065.16L1828.27 1068.9C1837.95 1073.03 1839.87 1074.35 1837.95 1075.53C1836.61 1076.36 1792.04 1077.14 1788 1076.41ZM2060.5 1061.99C2045.35 1058.49 2032.05 1051.49 2021.86 1041.63C2015.99 1035.95 2006.68 1022.01 2003.45 1014.08C1997.68 999.87 1998.03 970.36 2004.18 952.5C2010.97 932.81 2025.27 919.24 2047.97 910.95C2060.71 906.3 2072.13 904.71 2089 905.24C2105.36 905.75 2123.36 909.4 2129.22 913.4C2132.36 915.54 2132.49 915.89 2132.33 921.72C2132.07 931.15 2127.9 945.68 2125.56 945.28C2125.04 945.2 2123.65 942.16 2122.48 938.54C2119.96 930.77 2116.14 926.41 2108.12 922.17C2091.21 913.22 2068.1 912.78 2051.17 921.09C2043.87 924.68 2034.63 933.3 2030.5 940.38C2019.68 958.94 2020.83 999.09 2032.82 1021.49C2034.29 1024.25 2038.65 1029.66 2042.5 1033.52C2054.6 1045.66 2069.3 1051.04 2090.21 1050.97C2102.24 1050.92 2113.79 1049.07 2120.49 1046.11C2125.51 1043.89 2130.49 1043.36 2131.46 1044.94C2132.25 1046.21 2126.43 1052.71 2122.04 1055.46C2118.1 1057.94 2108.28 1061.3 2100.2 1062.93C2091.73 1064.64 2069.75 1064.12 2060.5 1061.99ZM2155.2 1060.01C2151.73 1059.62 2148.41 1058.81 2147.81 1058.21C2145.57 1055.97 2147.8 1054.28 2153.96 1053.58C2158.64 1053.05 2160.83 1052.23 2163.2 1050.11C2166.25 1047.39 2166.33 1047.07 2167.22 1034.92C2167.72 1028.09 2167.95 1002.02 2167.74 977C2167.42 939.65 2167.07 930.54 2165.79 926.14C2163.69 918.91 2160.82 916.24 2154.11 915.28C2149.1 914.56 2145.56 912.11 2147.18 910.49C2150.4 907.27 2204.66 907.32 2207.88 910.55C2208.94 911.61 2205.19 914.07 2199.97 915.75C2195.15 917.29 2194.37 917.93 2193.32 921.13C2192.12 924.8 2189.69 970.69 2190.62 972.19C2191.48 973.58 2275.4 973.2 2276.8 971.8C2278.23 970.37 2278.32 958.81 2277.04 941.16C2276.31 931.08 2275.67 927.84 2273.55 923.51C2270.89 918.07 2266.73 915 2262.03 915C2256.79 915 2253.94 910.88 2258.25 909.53C2259.49 909.14 2269.3 908.59 2280.06 908.29C2299.06 907.77 2315.3 908.9 2317.29 910.89C2318.63 912.23 2313.99 915 2310.41 915C2303.75 915 2300.19 920.54 2297.9 934.51C2296.14 945.23 2296.04 1021.21 2297.76 1032C2300.29 1047.76 2303.05 1052.44 2310.5 1053.55C2312.92 1053.92 2315.72 1054.81 2316.7 1055.54C2318.35 1056.76 2318.17 1057.02 2314.5 1058.65C2311.07 1060.18 2307.39 1060.44 2288.5 1060.47C2264.82 1060.5 2257.23 1059.76 2256.3 1057.33C2255.5 1055.26 2257.31 1054.32 2263.61 1053.53C2267.92 1052.99 2269.45 1052.25 2271.82 1049.55C2276.02 1044.77 2277.02 1037.39 2277.28 1009.5L2277.5 985.5L2233.68 985.24L2189.85 984.98L2190.41 996.24C2190.72 1002.43 2191.24 1015.2 2191.56 1024.62C2192.42 1049.43 2193.33 1052 2201.81 1053.35C2206.63 1054.12 2208.71 1056.17 2206.52 1057.98C2203.34 1060.62 2171.6 1061.87 2155.2 1060.01ZM1582 971.74C1570.92 965.69 1521.33 937.5 1491 920C1453.77 898.53 1446.85 894.5 1435.5 887.69C1430 884.38 1416.95 876.66 1406.5 870.53C1376.61 852.98 1349.47 836.83 1324 821.44C1311.08 813.63 1297.8 805.76 1294.5 803.94C1291.2 802.12 1286.7 799.42 1284.5 797.94C1282.3 796.45 1276.9 792.89 1272.5 790.02C1268.1 787.15 1263.94 784.09 1263.25 783.21C1261.27 780.69 1261.7 774.3 1264 772C1268.95 767.05 1269.33 767.24 1351 815.78C1367.22 825.42 1385.45 836.33 1391.5 840.03C1421.61 858.42 1483.33 895.83 1489.5 899.43C1493.35 901.68 1499.2 905.35 1502.5 907.59C1505.8 909.82 1518 917.56 1529.62 924.78C1577.05 954.26 1596.79 967.29 1597.74 969.76C1598.46 971.64 1594.08 976.02 1591.58 975.92C1590.43 975.88 1586.12 974 1582 971.74ZM740.47 963.8C736.71 960.84 737.06 955.81 741.25 952.65C746.17 948.93 760.9 939.92 788 924.06C801.48 916.17 814.75 908.28 817.5 906.52C820.25 904.76 832.17 897.78 844 891.01C855.83 884.24 869.55 876.36 874.5 873.49C879.45 870.62 887.77 865.8 893 862.77C944.76 832.79 1017.28 792.08 1041.09 779.66C1059.41 770.1 1062.55 769.34 1065.95 773.66C1067.78 775.99 1067.87 776.57 1066.67 778.41C1062.93 784.14 1016.98 812.4 927.5 864.01C890.72 885.22 878 892.59 869 897.9C863.77 900.98 858.73 903.82 857.79 904.2C856.84 904.59 843.57 912.06 828.29 920.8C773.55 952.12 751.13 964.17 745.7 965.21C743.85 965.56 742.12 965.09 740.47 963.8ZM1158.5 800.57C1131.68 795.26 1105.29 774.68 1097.96 753.38C1094.8 744.21 1093.7 732.99 1094.29 716.15C1094.93 698.13 1096.19 692.56 1102.48 680.05C1107.9 669.26 1114.05 662.36 1123.53 656.45C1138.87 646.89 1150.57 643.51 1172.26 642.4C1186.6 641.67 1199.61 642.95 1213.45 646.46C1226.86 649.86 1227.39 650.44 1226.58 660.5C1225.76 670.67 1223.65 679.77 1221.66 681.77C1219.93 683.5 1220 683.62 1216.47 673.64C1215.53 670.97 1213.43 667.28 1211.81 665.43C1201.43 653.61 1167.79 650.22 1144.86 658.67C1131.77 663.5 1122.12 676.05 1118.28 693.22C1116.19 702.54 1115.93 729.69 1117.84 739.11C1120.33 751.44 1131.31 766.62 1145.33 777.13C1156.62 785.58 1160.31 786.49 1183 786.43C1200.39 786.38 1202.01 786.21 1210 783.63C1223.62 779.22 1226.91 778.51 1228.12 779.72C1228.88 780.48 1228.09 782 1225.43 784.94C1220.87 789.99 1208.69 796.13 1197.45 799.04C1187.07 801.73 1168.09 802.48 1158.5 800.57ZM1162.17 595.71C1159.78 592.82 1158.94 583.9 1157.99 551C1156.43 497.21 1156.3 233.05 1157.83 230.26C1159.2 227.76 1162.82 226.49 1165.84 227.45C1169.01 228.45 1170.11 233.37 1171.13 251.03C1172.61 276.79 1171.71 583.3 1170.13 588.99C1168.22 595.88 1164.75 598.81 1162.17 595.71ZM1430.33 260.9C1426.05 259.66 1421.99 254.67 1422.02 250.67C1422.05 246.44 1425.51 239 1427.45 239C1428.56 239 1429 240.02 1429 242.6C1429 249.49 1433.57 254.13 1441.69 255.46C1451.72 257.12 1461.14 246.39 1461.14 233.33C1461.14 222.75 1455.31 217.51 1443.51 217.51C1437.98 217.5 1436.46 217.18 1436.23 215.94C1436.06 215.08 1436.96 213.89 1438.21 213.29C1439.47 212.7 1443.09 211 1446.25 209.53C1458.75 203.71 1460.82 190.04 1450.26 183.12C1445.58 180.05 1440.16 179.35 1436.35 181.32C1434.71 182.17 1431.09 184.91 1428.29 187.43C1425.49 189.94 1422.88 192 1422.47 192C1420.94 192 1422.84 183.04 1425.02 179.97C1429.75 173.33 1443.48 170.25 1454.32 173.4C1468.66 177.57 1472.56 189.06 1463.91 201.64C1459.85 207.53 1460.1 210.19 1465.11 214.2C1470.99 218.93 1473.32 223.99 1472.79 230.92C1472.27 237.87 1470.01 242.66 1464.22 249.09C1455.75 258.52 1440.48 263.84 1430.33 260.9ZM1162.81 188.92C1140.62 185.67 1119.54 173.53 1106.65 156.59C1096.99 143.9 1094.49 134.18 1094.53 109.5C1094.57 88.59 1095.76 82.31 1102.19 69C1111.27 50.2 1129.92 37.16 1154.5 32.42C1165.39 30.31 1190.62 30.06 1202.48 31.94C1212.43 33.52 1222.91 36.68 1225.37 38.85C1227 40.29 1227.17 41.48 1226.65 48.23C1225.71 60.59 1222.07 72.58 1219.95 70.29C1219.55 69.86 1218.51 67.01 1217.65 63.97C1213.52 49.49 1198.53 42 1173.68 42C1162.26 42 1152.39 43.65 1143.53 47.03C1132.1 51.39 1122.23 64.75 1118.31 81.16C1117.01 86.59 1116.55 92.79 1116.54 105C1116.52 123.65 1117.68 130.61 1122.22 139.22C1127.93 150.03 1142.91 165.33 1152.71 170.36C1165.38 176.87 1197.91 176.77 1216 170.17C1228.34 165.66 1231.27 166.48 1225.53 172.84C1218.65 180.45 1202.75 186.78 1185.03 188.96C1175.47 190.13 1171.01 190.13 1162.81 188.92ZM1250.26 186.01C1241.37 185.06 1240 184.6 1240 182.54C1240 180.83 1244.82 179.14 1251.94 178.37C1255.18 178.01 1258.02 177.11 1258.75 176.19C1261.23 173.07 1259.82 50.12 1257.25 45.46C1256.65 44.37 1253.15 42.39 1249.34 40.98C1240.85 37.84 1239.86 35.57 1246.59 34.64C1258.7 32.98 1298.71 34.37 1300.86 36.53C1302.02 37.7 1296.83 41 1292.81 41.65C1290.24 42.06 1288.33 43.09 1287.33 44.62C1285.67 47.15 1284.56 59.04 1283.61 84.25L1283.06 99L1325.91 99C1362.99 99 1368.92 98.8 1370.01 97.48C1370.97 96.33 1371.15 91.27 1370.74 76.23C1369.93 46.16 1368.57 42.64 1357.16 41.02C1350.35 40.06 1349 39.48 1349 37.55C1349 35.2 1352.1 34.75 1371.65 34.24C1391.18 33.74 1406.51 34.46 1409.02 36.01C1411.26 37.4 1407.54 40.73 1402.87 41.52C1395.13 42.83 1395.5 39.42 1395.5 110C1395.5 180.72 1395.06 176.77 1403.18 178.82C1405.56 179.42 1408.37 180.54 1409.43 181.32C1411.32 182.71 1411.31 182.76 1409.11 183.94C1405.26 186 1388.17 187.23 1372 186.62C1355.41 185.99 1349 184.82 1349 182.43C1349 180.69 1352.94 179 1356.99 179C1360.54 179 1365.8 174.72 1367.63 170.35C1370.64 163.14 1372.45 113.85 1369.8 111.2C1368.9 110.3 1357.87 110 1326.3 110L1284 110L1284 127.34C1284 136.88 1283.71 151.48 1283.35 159.79L1282.69 174.9L1285.1 175.89C1286.42 176.43 1290.88 177.59 1295 178.46C1306.65 180.92 1308.03 183.01 1299.37 185.08C1293.86 186.41 1260.05 187.04 1250.26 186.01Z" fill="#1e2749" fill-rule="evenodd"/>
</svg>
