<?xml version="1.0" encoding="UTF-8"?>
<svg xmlns="http://www.w3.org/2000/svg" viewBox="0 0 496 212" width="496" height="212" shape-rendering="geometricPrecision">
<path d="M301.73 192.6C301.43 192.29 301.33 182.64 301.33 151.16L301.33 110.12L300.52 109.35C299.19 108.1 298.33 105.9 298.33 103.72C298.33 101.59 298.89 100.14 300.39 98.41L301.33 97.31L301.33 67.52C301.33 34.7 301.51 37.33 299.31 37.33C297.94 37.33 298.03 36.73 300.02 32.73C301.98 28.77 302.63 28.41 303.63 30.75C303.97 31.53 304.7 33.14 305.26 34.33C306.39 36.74 306.28 37.23 304.56 37.4C303.8 37.47 303.51 37.66 303.53 38.08C303.54 38.4 303.59 40.2 303.62 42.08L303.69 45.5L304.38 44.67C304.77 44.21 305.42 43.4 305.83 42.88C306.4 42.15 306.75 41.98 307.29 42.15C308.23 42.45 308.19 42.93 307.17 43.39C306.66 43.63 306.33 44.05 306.33 44.49C306.33 44.88 305.73 45.78 305 46.5C303.67 47.8 303.05 49.44 303.47 50.55C303.66 51.03 303.86 50.94 304.84 49.99C305.48 49.37 306 48.63 306 48.34C306 47.76 310.74 42.96 311.89 42.37C312.56 42.03 313.67 42.16 313.67 42.58C313.67 42.94 307.09 49.33 306.72 49.33C306.51 49.33 306.33 49.71 306.33 50.17C306.33 50.68 305.83 51.53 305.04 52.37C303.81 53.68 303.04 55.93 303.55 56.75C303.76 57.09 305.97 54.68 305.99 54.1C305.99 53.88 308.56 51.14 311.69 48.02C316.89 42.82 317.48 42.33 318.55 42.33C319.2 42.33 319.67 42.45 319.61 42.58C319.55 42.72 316.56 45.68 312.96 49.17C309.21 52.8 306.41 55.78 306.38 56.15C306.35 56.51 305.75 57.41 305.04 58.15C304.04 59.2 303.71 59.85 303.55 61.08C303.44 61.95 303.46 62.67 303.61 62.67C304.04 62.67 305.93 60.54 306.05 59.92C306.22 59.05 321.03 44.33 321.73 44.33C323.38 44.33 322.15 45.92 314.7 53.37C310.5 57.57 306.9 61 306.7 61C306.5 61 306.33 61.38 306.33 61.83C306.33 62.37 305.79 63.24 304.82 64.25C303.75 65.37 303.37 66.03 303.49 66.5C303.58 66.87 303.66 67.53 303.66 67.97C303.67 68.73 303.74 68.7 304.82 67.47C305.45 66.75 305.98 65.98 305.99 65.75C305.99 65.51 309.45 61.86 313.66 57.63C321.15 50.1 322.33 49.19 322.33 50.92C322.33 51.27 318.96 54.89 314.33 59.49C309.92 63.88 306.33 67.7 306.33 68.03C306.33 68.35 305.99 68.89 305.57 69.23C304.18 70.32 303.25 71.87 303.49 72.64C303.69 73.27 304.8 72.28 312.43 64.68C317.32 59.81 321.4 56 321.74 56C323.27 56 322.06 57.57 315.35 64.32C309.3 70.39 308.23 71.33 307.35 71.33C306.45 71.33 306.33 71.44 306.33 72.32C306.33 72.97 305.99 73.66 305.33 74.33C303.61 76.1 303.24 76.88 303.48 78.2L303.71 79.4L304.84 78.11C305.46 77.41 305.98 76.63 305.99 76.39C306.01 75.79 310.83 71 311.42 71C311.68 71 314 68.88 316.59 66.29C321.21 61.67 322.33 60.94 322.33 62.58C322.33 63.29 314.3 71.33 313.59 71.33C312.91 71.33 306.33 77.97 306.33 78.65C306.33 78.95 305.74 79.78 305.01 80.49C303.64 81.83 303.13 83.15 303.51 84.36C303.72 85.04 303.77 85.03 304.85 83.98C305.46 83.39 306.01 82.63 306.07 82.3C306.19 81.53 316.57 71 317.2 71C317.46 71 318.51 70.17 319.54 69.14C321.39 67.31 322.33 67.01 322.33 68.26C322.33 69.1 319.97 71.33 319.07 71.33C318.66 71.33 318.33 71.48 318.33 71.67C318.33 72.13 307.18 83.33 306.71 83.33C306.5 83.33 306.33 83.71 306.33 84.17C306.33 84.68 305.83 85.53 305.04 86.37C303.75 87.74 303 90.12 303.64 90.77C303.93 91.07 306 88.76 306 88.15C306 87.52 321.17 72.33 321.79 72.33C323.39 72.33 321.98 74.15 314.55 81.65C310.36 85.87 306.8 89.33 306.64 89.33C306.47 89.33 306.33 89.7 306.33 90.14C306.33 90.62 305.8 91.52 305.03 92.35C303.62 93.85 303.14 95.05 303.6 95.87C303.85 96.31 304.04 96.25 304.94 95.5C305.52 95.01 306 94.36 306 94.05C306 93.41 321.1 78.17 321.74 78.17C321.97 78.17 322.21 78.49 322.27 78.89C322.35 79.45 320.65 81.37 314.79 87.31C310.62 91.54 307.01 95 306.77 95C306.15 95 306.22 95.89 306.86 96.13C308.54 96.78 309.01 96.44 315.25 90.14C321.16 84.17 322.34 83.3 322.33 84.91C322.33 85.23 319.78 88.09 316.66 91.26C313.55 94.42 311 97.16 311 97.34C311 97.52 311.3 97.97 311.67 98.34L312.34 99.01L316.75 94.5C321.1 90.07 322.34 89.23 322.33 90.75C322.33 91.26 320.97 92.86 318 95.83C314.18 99.65 313.67 100.29 313.67 101.27C313.67 102.26 313.74 102.36 314.42 102.16C314.83 102.03 316.54 100.56 318.22 98.88C319.9 97.21 321.47 95.83 321.72 95.83C321.96 95.83 322.21 96.13 322.26 96.5C322.33 96.94 321.67 97.9 320.35 99.29C319.24 100.46 318.33 101.54 318.33 101.7C318.33 101.86 347.71 101.95 384.08 101.91L449.83 101.83L449.94 100.67C450 100.02 450.18 99.36 450.35 99.19C450.74 98.79 461.66 102.35 461.66 102.88C461.67 103.53 460.31 104.17 455.37 105.8C450.15 107.52 450.01 107.51 450.01 105.41L450 104.33L385.73 104.34C327.91 104.34 321.39 104.4 320.72 104.87C320.31 105.15 319.32 106.09 318.52 106.94C314.5 111.22 306.99 118.67 306.68 118.67C306.49 118.67 306.33 119.04 306.33 119.49C306.33 119.95 305.9 120.76 305.33 121.33C303.66 123.04 303.33 123.74 303.55 125.1L303.76 126.34L304.86 125.09C305.47 124.4 305.98 123.64 305.99 123.4C305.99 123.16 309.26 119.66 313.25 115.63C317.24 111.6 320.55 108.16 320.61 107.98C320.67 107.81 321.08 107.67 321.53 107.67C323.49 107.67 322.46 109.03 314.33 117.14C309.93 121.53 306.33 125.36 306.33 125.66C306.33 125.95 305.74 126.78 305.01 127.49C303.64 128.83 303.13 130.15 303.51 131.36C303.72 132.04 303.77 132.03 304.85 130.98C305.46 130.39 306.01 129.63 306.07 129.3C306.12 128.97 309.59 125.23 313.78 120.99C321.14 113.54 322.33 112.6 322.33 114.27C322.33 114.94 307.39 130.33 306.73 130.33C306.51 130.33 306.33 130.71 306.33 131.17C306.33 131.68 305.83 132.53 305.04 133.37C303.75 134.74 303 137.12 303.64 137.77C303.93 138.07 306 135.76 306 135.15C306 134.52 321.17 119.33 321.79 119.33C323.39 119.33 321.98 121.15 314.55 128.65C310.36 132.87 306.8 136.33 306.64 136.33C306.47 136.33 306.33 136.7 306.33 137.14C306.33 137.61 305.8 138.51 305.04 139.33C303.8 140.66 303.05 142.93 303.56 143.76C303.77 144.11 305.76 141.82 306 140.95C306.22 140.14 321.38 124.96 321.82 125.11C322.01 125.17 322.21 125.54 322.27 125.93C322.35 126.48 320.51 128.53 314.35 134.73C309.94 139.18 306.33 143.04 306.33 143.31C306.33 143.58 305.75 144.41 305.04 145.15C304.04 146.2 303.71 146.85 303.55 148.08C303.44 148.95 303.46 149.67 303.61 149.67C304.06 149.67 306 147.49 306 146.98C306 146.72 309.46 143 313.69 138.72C321.11 131.22 322.34 130.25 322.33 131.91C322.33 132.55 307.33 148 306.71 148C306.5 148 306.33 148.38 306.33 148.83C306.33 149.37 305.79 150.24 304.82 151.25C303.75 152.37 303.37 153.03 303.49 153.5C303.58 153.87 303.66 154.53 303.66 154.97C303.67 155.73 303.74 155.7 304.82 154.47C305.45 153.75 305.98 152.99 305.99 152.77C306.01 152.12 321.15 137 321.77 137C322.84 137 322.41 138.49 320.92 139.91C320.14 140.65 316.67 144.12 313.2 147.63C309.74 151.13 306.78 154 306.62 154C306.46 154 306.33 154.37 306.33 154.82C306.33 155.35 305.79 156.17 304.79 157.15C303.59 158.34 303.3 158.83 303.46 159.42C303.57 159.83 303.66 160.54 303.66 160.99C303.67 161.77 303.72 161.75 304.75 160.51C305.35 159.8 305.91 158.94 306 158.61C306.23 157.8 321.37 142.62 321.81 142.77C322.01 142.83 322.21 143.2 322.27 143.59C322.35 144.12 320.45 146.23 314.35 152.36C309.91 156.83 306.33 160.7 306.33 161.03C306.33 161.35 305.99 161.89 305.57 162.23C304.18 163.33 303.25 164.86 303.49 165.65C303.7 166.28 304.79 165.3 312.54 157.49C321.07 148.89 322.33 147.87 322.33 149.55C322.33 149.87 321.1 151.38 319.58 152.92C308.28 164.38 308.33 164.33 307.32 164.33C306.45 164.33 306.33 164.45 306.33 165.33C306.33 166.05 305.97 166.7 305.03 167.63C303.53 169.14 303.2 169.95 303.51 171.37L303.73 172.4L304.7 171.28C305.24 170.67 305.88 169.72 306.13 169.17C306.66 167.99 310.73 164 311.4 164C311.66 164 313.94 161.9 316.49 159.33C321.02 154.76 322.33 153.87 322.33 155.39C322.33 156.24 314.39 164.33 313.55 164.33C313.26 164.33 311.72 165.68 310.13 167.33C308.54 168.98 307.03 170.33 306.79 170.33C306.52 170.33 306.33 170.69 306.33 171.18C306.33 171.65 306 172.37 305.58 172.8C305.17 173.22 304.56 173.87 304.24 174.24C303.57 175 303.14 177.51 303.63 177.81C303.98 178.03 306 175.74 306 175.13C306 174.59 316.65 164 317.19 164C317.44 164 318.48 163.16 319.51 162.14C321.37 160.3 322.33 159.99 322.33 161.26C322.33 162.1 319.97 164.33 319.07 164.33C318.66 164.33 318.33 164.47 318.33 164.64C318.33 165.05 307.05 176.33 306.64 176.33C306.47 176.33 306.33 176.67 306.33 177.07C306.33 177.48 305.75 178.41 305.04 179.15C304.05 180.19 303.7 180.85 303.55 182.04C303.45 182.89 303.45 183.67 303.56 183.79C303.84 184.07 305.97 181.63 305.99 181C306.01 180.3 321.08 165.33 321.77 165.33C322.13 165.33 322.33 165.6 322.33 166.08C322.33 166.62 320.04 169.11 314.33 174.78C309.93 179.16 306.33 182.94 306.33 183.2C306.33 183.46 305.65 184.38 304.82 185.25C303.75 186.37 303.37 187.03 303.49 187.5C303.58 187.87 303.66 188.53 303.66 188.97C303.67 189.73 303.74 189.7 304.82 188.47C305.45 187.75 305.98 186.99 305.99 186.78C305.99 186.56 309.46 182.91 313.69 178.67C321.15 171.18 322.58 170.07 322.27 172C322.17 172.66 307.16 188 306.62 188C306.46 188 306.33 188.35 306.33 188.78C306.33 189.3 305.72 190.15 304.52 191.28C302.58 193.12 302.36 193.22 301.73 192.6ZM306.73 191.84C306.9 191.02 321.08 177 321.73 177C322.13 177 322.33 177.25 322.33 177.72C322.33 178.22 320.16 180.61 315.36 185.39C309.79 190.94 308.21 192.33 307.51 192.33C306.89 192.33 306.65 192.18 306.73 191.84ZM312.5 191.99C312.19 191.5 321.27 182.57 321.86 182.8C322.91 183.2 322.15 184.36 318.25 188.26C314.32 192.18 313.1 192.97 312.5 191.99ZM318.49 191.98C318.16 191.45 320.72 188.73 321.58 188.7C322.75 188.65 322.53 189.9 321.14 191.21C319.95 192.33 318.9 192.64 318.49 191.98ZM355.74 174.65C353.48 174.16 352.49 172.28 352.74 168.92C352.86 167.18 353.03 166.77 353.91 165.99C355.36 164.69 357.24 164.44 358.94 165.3C360.75 166.23 363.14 166.25 364.82 165.36C366.38 164.54 367.27 164.49 368.87 165.16C369.8 165.55 370.03 165.81 369.94 166.41C369.84 167.11 369.69 167.16 367.9 167.08C365.03 166.95 364.67 167.25 364.67 169.83C364.67 171.66 364.77 172.04 365.41 172.48C366.25 173.07 367.52 173.17 367.83 172.67C368.1 172.24 369.57 172.23 369.83 172.66C370.13 173.15 369.43 174.26 368.65 174.51C367.23 174.95 365.02 174.73 364.05 174.04C362.61 173.01 362.21 171.71 362.43 168.82C362.62 166.29 362.46 165.95 361.38 166.63C361.04 166.85 360.99 167.35 361.16 168.61C361.44 170.69 360.98 172.24 359.72 173.45C358.58 174.54 357.19 174.96 355.74 174.65ZM389.09 174.65C387 174.2 386 172.66 386 169.89C386 166.68 386.24 166.09 387.79 165.53C388.55 165.27 389.93 164.96 390.85 164.85C392.49 164.67 392.56 164.69 393.12 165.75C393.43 166.34 393.91 167.21 394.18 167.67C396.05 170.91 392.75 175.44 389.09 174.65ZM414.69 174.73C413.53 174.55 412.37 173.71 411.82 172.63C411.26 171.56 411.19 168.71 411.67 166.97C412.08 165.51 412.83 165.11 415.7 164.85C417.58 164.69 418.02 164.75 418.75 165.33C419.82 166.17 419.98 166.16 421.78 165.29C424.38 164.02 427.08 165.21 428.01 168.02C428.45 169.35 428.43 169.45 427.7 170.04C427.09 170.53 426.37 170.67 424.3 170.67C422.85 170.67 421.67 170.79 421.67 170.94C421.67 171.09 422.11 171.63 422.64 172.15C423.47 172.93 423.8 173.05 424.73 172.85C427.56 172.27 428.47 172.57 427.57 173.8C427.02 174.55 424.66 175 423.11 174.65C420.55 174.08 419.04 171.3 419.69 168.37C420.07 166.69 419.91 166.36 418.97 166.94C418.54 167.21 417.75 167.28 416.7 167.14C414.16 166.8 413.67 167.24 413.67 169.83C413.67 171.66 413.77 172.04 414.41 172.48C415.27 173.08 416.38 173.16 416.89 172.64C417.33 172.21 418.73 172.35 418.9 172.85C419.25 173.94 416.79 175.04 414.69 174.73ZM338.42 174.46C338.11 174.32 338 172.76 338 168.31L338 162.35L338.87 162.13C340.26 161.78 344.21 162.24 345.15 162.85C346.23 163.56 346.55 164.78 346.02 166.22C345.65 167.25 345.69 167.43 346.48 168.37C347.91 170.06 347.53 172.13 345.51 173.72C344.67 174.38 344.08 174.51 341.68 174.57C340.11 174.61 338.65 174.56 338.42 174.46ZM349.42 174.43C349.1 174.32 349 172.75 349 168.13C349 162.95 349.08 161.95 349.5 161.79C349.78 161.68 350.23 161.78 350.5 162C350.91 162.34 351 163.46 351 167.99C351 172.88 350.93 173.63 350.42 174.07C350.1 174.35 349.65 174.51 349.42 174.43ZM371.89 174.18C371.54 173.83 371.4 172.79 371.36 170.45C371.33 168.67 371.18 167.05 371.03 166.85C370.6 166.33 371.21 162.65 371.82 162.04C372.22 161.64 372.48 161.6 372.92 161.87C373.39 162.16 373.53 162.89 373.67 165.52L373.83 168.8L374.77 167.65C375.29 167.02 375.93 166.24 376.19 165.92C376.51 165.52 377.13 165.33 378.16 165.33C378.99 165.33 379.67 165.45 379.67 165.58C379.67 165.72 378.92 166.48 378 167.27C376.96 168.17 376.33 168.97 376.33 169.42C376.33 169.85 377.06 170.89 378.08 171.93C379.76 173.63 379.81 173.73 379.19 174.19C378.83 174.45 378.41 174.67 378.25 174.67C378.09 174.67 377.17 173.92 376.2 173C375.23 172.08 374.26 171.33 374.05 171.33C373.83 171.33 373.67 171.88 373.67 172.65C373.67 174.22 372.73 175.02 371.89 174.18ZM396.58 174.2C396.22 173.84 396.14 173.07 396.26 171.06C396.38 169.03 396.29 168.14 395.87 167.32C395.22 166 395.21 165.7 395.78 165.03C396.02 164.74 396.4 163.86 396.62 163.08L397.03 161.67L398.76 161.67C399.72 161.67 400.72 161.82 401 162C401.77 162.49 400.98 163.48 399.72 163.6C398.94 163.68 398.67 163.87 398.67 164.35C398.67 164.71 398.88 165 399.14 165C399.41 165 400.02 165.15 400.51 165.34C401.29 165.64 401.35 165.75 400.95 166.22C400.7 166.52 400.01 166.97 399.42 167.22L398.33 167.68L398.33 170.83C398.33 173.6 398.26 174.02 397.69 174.32C397.21 174.58 396.92 174.54 396.58 174.2ZM407.92 174.25C407.48 173.91 407.36 172.79 407.21 167.92L407.03 162L407.97 162C409.33 162 409.9 162.78 409.32 163.87C408.96 164.53 408.95 164.84 409.27 165.35C409.52 165.75 409.67 167.41 409.67 169.78C409.67 173.02 409.58 173.64 409.06 174.11C408.57 174.56 408.35 174.58 407.92 174.25ZM358.1 172.07C359.88 170.21 359 167 356.71 167C355.48 167 354.95 167.65 354.77 169.42C354.67 170.45 354.81 171.13 355.31 171.92C356.14 173.25 356.93 173.29 358.1 172.07ZM391.52 172.12C393.18 170.32 392.34 167 390.21 167C388.7 167 388.33 167.52 388.33 169.66C388.33 172.78 389.83 173.94 391.52 172.12ZM344.02 172.16C344.77 171.77 345 171.42 345 170.67C345 169.43 344.23 169 342.02 169L340.33 169L340.33 170.61C340.33 171.5 340.43 172.32 340.56 172.44C340.96 172.85 343.01 172.68 344.02 172.16ZM425.51 168.32C425.88 167.72 424.97 167 423.83 167C422.7 167 421.79 167.72 422.16 168.32C422.28 168.51 423.03 168.67 423.83 168.67C424.64 168.67 425.39 168.51 425.51 168.32ZM343.28 166.47C343.75 166.13 344 165.67 343.94 165.22C343.85 164.6 343.58 164.49 342.08 164.4L340.33 164.3L340.33 165.65C340.33 166.95 340.37 167 341.43 167C342.03 167 342.86 166.76 343.28 166.47ZM380.84 166.34C380.72 166.15 380.74 165.82 380.88 165.59C381.02 165.37 381.09 164.62 381.04 163.93C380.99 163.19 381.1 162.67 381.31 162.67C381.75 162.67 381.8 166.21 381.36 166.49C381.19 166.59 380.95 166.53 380.84 166.34ZM402.67 166.33C402.67 166.15 403.43 166 404.35 166C405.39 166 405.96 166.13 405.83 166.33C405.72 166.52 404.96 166.67 404.15 166.67C403.33 166.67 402.67 166.52 402.67 166.33ZM430 166.33C430 166.15 430.15 166 430.33 166C430.52 166 430.67 166.15 430.67 166.33C430.67 166.52 430.52 166.67 430.33 166.67C430.15 166.67 430 166.52 430 166.33ZM433 166.33C433 166.15 433.16 166 433.35 166C433.55 166 433.61 166.15 433.5 166.33C433.39 166.52 433.23 166.67 433.15 166.67C433.07 166.67 433 166.52 433 166.33ZM438 166.33C438 166.15 438.23 166 438.52 166C438.81 166 438.95 166.15 438.83 166.33C438.72 166.52 438.49 166.67 438.31 166.67C438.14 166.67 438 166.52 438 166.33ZM446 166.33C446 166.14 447.01 166 448.35 166C449.84 166 450.63 166.12 450.5 166.33C450.39 166.52 449.33 166.67 448.15 166.67C446.94 166.67 446 166.52 446 166.33ZM456 166.33C456 166.15 456.76 166 457.69 166C458.73 166 459.29 166.13 459.17 166.33C459.05 166.52 458.29 166.67 457.48 166.67C456.67 166.67 456 166.52 456 166.33ZM465.78 165.96C465.9 165.52 465.99 164.23 466 163.08C466 161.87 466.14 161 466.35 161C466.91 161 466.61 166.41 466.03 166.6C465.68 166.72 465.62 166.55 465.78 165.96ZM471 164.03C471 162.45 471.14 161.33 471.33 161.33C471.52 161.33 471.67 162.33 471.67 163.67C471.67 164.95 471.68 166.11 471.69 166.24C471.71 166.37 471.56 166.54 471.36 166.6C471.12 166.68 471 165.8 471 164.03ZM477 163.35C477 161.34 477.13 160 477.33 160C477.53 160 477.67 161.27 477.67 163.15C477.67 164.89 477.52 166.39 477.33 166.5C477.12 166.63 477 165.5 477 163.35ZM445 165.33C445 165.15 445.16 165 445.35 165C445.55 165 445.61 165.15 445.5 165.33C445.39 165.52 445.23 165.67 445.15 165.67C445.07 165.67 445 165.52 445 165.33ZM460 165.33C460 165.15 460.16 165 460.35 165C460.55 165 460.61 165.15 460.5 165.33C460.39 165.52 460.23 165.67 460.15 165.67C460.07 165.67 460 165.52 460 165.33ZM386 163.02C386 161.9 386.15 161 386.33 161C386.52 161 386.67 161.82 386.67 162.81C386.67 163.81 386.52 164.72 386.33 164.83C386.13 164.96 386 164.28 386 163.02ZM412 162.07C412 159.84 412.11 159 412.42 159C412.73 159 412.81 159.71 412.73 161.75C412.57 165.63 412 165.89 412 162.07ZM428 164C428 163.63 428.15 163.33 428.33 163.33C428.52 163.33 428.67 163.63 428.67 164C428.67 164.37 428.52 164.67 428.33 164.67C428.15 164.67 428 164.37 428 164ZM461 162.85C461 161.83 461.15 161 461.33 161C461.52 161 461.67 161.74 461.67 162.65C461.67 163.55 461.52 164.39 461.33 164.5C461.13 164.63 461 164 461 162.85ZM454 162.69C454 161.76 454.15 161 454.33 161C454.52 161 454.67 161.67 454.67 162.48C454.67 163.29 454.52 164.05 454.33 164.17C454.13 164.29 454 163.73 454 162.69ZM392 162.52C392 161.68 392.15 161 392.33 161C392.52 161 392.67 161.59 392.67 162.31C392.67 163.04 392.52 163.72 392.33 163.83C392.13 163.96 392 163.45 392 162.52ZM357 163.02C357 162.64 357.15 162.33 357.33 162.33C357.52 162.33 357.67 162.55 357.67 162.81C357.67 163.08 357.52 163.39 357.33 163.5C357.15 163.61 357 163.4 357 163.02ZM417 162.52C417 161.87 417.15 161.33 417.33 161.33C417.52 161.33 417.67 161.77 417.67 162.31C417.67 162.85 417.52 163.39 417.33 163.5C417.13 163.62 417 163.23 417 162.52ZM424.03 159.9C424.02 157.81 423.92 155.86 423.81 155.55C423.66 155.18 423.77 155 424.13 155C424.59 155 424.67 155.56 424.67 159.15C424.67 161.43 424.52 163.38 424.35 163.49C424.16 163.61 424.03 162.21 424.03 159.9ZM434 161.69C434 161.13 434.15 160.67 434.33 160.67C434.52 160.67 434.67 161.03 434.67 161.48C434.67 161.93 434.52 162.39 434.33 162.5C434.14 162.62 434 162.28 434 161.69ZM428 161.52C428 161.23 428.15 161 428.33 161C428.52 161 428.67 161.14 428.67 161.31C428.67 161.49 428.52 161.72 428.33 161.83C428.15 161.95 428 161.81 428 161.52ZM443 161.35C443 160.98 443.15 160.67 443.33 160.67C443.52 160.67 443.67 160.88 443.67 161.15C443.67 161.41 443.52 161.72 443.33 161.83C443.15 161.95 443 161.73 443 161.35ZM381 160.98C381 160.6 381.15 160.39 381.33 160.5C381.52 160.61 381.67 160.92 381.67 161.19C381.67 161.45 381.52 161.67 381.33 161.67C381.15 161.67 381 161.36 381 160.98ZM405.83 161.33C405.72 161.15 405.87 161 406.17 161C406.46 161 406.61 161.15 406.5 161.33C406.39 161.52 406.24 161.67 406.17 161.67C406.1 161.67 405.95 161.52 405.83 161.33ZM455 160.33C455 160.15 455.16 160 455.35 160C455.55 160 455.61 160.15 455.5 160.33C455.39 160.52 455.23 160.67 455.15 160.67C455.07 160.67 455 160.52 455 160.33ZM365.88 159.77C365.5 159.39 365.65 159 366.17 159C366.44 159 366.67 159.14 366.67 159.31C366.67 159.73 366.15 160.04 365.88 159.77ZM371 159.5C371 159.22 371.24 159 371.54 159C371.98 159 372.01 159.09 371.67 159.5C371.44 159.77 371.2 160 371.13 160C371.06 160 371 159.77 371 159.5ZM443 159.52C443 159.23 443.15 159 443.33 159C443.52 159 443.67 159.14 443.67 159.31C443.67 159.49 443.52 159.72 443.33 159.83C443.15 159.95 443 159.81 443 159.52ZM357 158.52C357 157.87 357.15 157.33 357.33 157.33C357.52 157.33 357.67 157.77 357.67 158.31C357.67 158.85 357.52 159.39 357.33 159.5C357.13 159.62 357 159.23 357 158.52ZM376.24 159.29C376.47 159.06 376.74 158.96 376.84 159.06C376.94 159.17 376.76 159.35 376.43 159.48C375.96 159.66 375.92 159.62 376.24 159.29ZM379.5 159.33C379.39 159.15 379.45 159 379.65 159C379.84 159 380 159.15 380 159.33C380 159.52 379.93 159.67 379.85 159.67C379.77 159.67 379.61 159.52 379.5 159.33ZM386 159.33C386 159.15 386.16 159 386.35 159C386.55 159 386.61 159.15 386.5 159.33C386.39 159.52 386.23 159.67 386.15 159.67C386.07 159.67 386 159.52 386 159.33ZM389.17 159.33C389.28 159.15 389.82 159 390.37 159C390.95 159 391.29 159.14 391.17 159.33C391.05 159.52 390.51 159.67 389.96 159.67C389.38 159.67 389.05 159.53 389.17 159.33ZM394.67 159.33C394.67 159.15 395.13 159 395.69 159C396.28 159 396.62 159.14 396.5 159.33C396.39 159.52 395.93 159.67 395.48 159.67C395.03 159.67 394.67 159.52 394.67 159.33ZM418.67 159.33C418.67 159.15 419.19 159 419.83 159C420.47 159 421 159.15 421 159.33C421 159.52 420.47 159.67 419.83 159.67C419.19 159.67 418.67 159.52 418.67 159.33ZM456 159.33C456 159.15 456.83 159 457.85 159C459 159 459.63 159.13 459.5 159.33C459.39 159.52 458.55 159.67 457.65 159.67C456.74 159.67 456 159.52 456 159.33ZM465.67 159.33C465.67 159.15 465.9 159 466.19 159C466.47 159 466.61 159.15 466.5 159.33C466.39 159.52 466.15 159.67 465.98 159.67C465.81 159.67 465.67 159.52 465.67 159.33ZM469 159.33C469 159.15 469.38 159 469.83 159C470.29 159 470.67 159.15 470.67 159.33C470.67 159.52 470.29 159.67 469.83 159.67C469.38 159.67 469 159.52 469 159.33ZM474.33 159.33C474.33 159.15 474.87 159 475.52 159C476.23 159 476.62 159.13 476.5 159.33C476.39 159.52 475.85 159.67 475.31 159.67C474.77 159.67 474.33 159.52 474.33 159.33ZM402.06 158.15C402.04 157.52 402.17 157 402.34 157C402.74 157 402.78 158.89 402.39 159.13C402.23 159.23 402.09 158.79 402.06 158.15ZM357 156.33C357 156.15 357.16 156 357.35 156C357.55 156 357.61 156.15 357.5 156.33C357.39 156.52 357.23 156.67 357.15 156.67C357.07 156.67 357 156.52 357 156.33ZM403 156.33C403 156.15 403.16 156 403.35 156C403.55 156 403.61 156.15 403.5 156.33C403.39 156.52 403.23 156.67 403.15 156.67C403.07 156.67 403 156.52 403 156.33ZM445.33 156.33C445.33 156.15 445.57 156 445.85 156C446.14 156 446.28 156.15 446.17 156.33C446.05 156.52 445.82 156.67 445.65 156.67C445.47 156.67 445.33 156.52 445.33 156.33ZM412 155.33C412 155.15 412.22 155 412.5 155C412.77 155 413 155.15 413 155.33C413 155.52 412.77 155.67 412.5 155.67C412.22 155.67 412 155.52 412 155.33ZM127.87 150.48C127.39 150.01 127.33 149.16 127.41 144.22L127.5 138.5L128.5 138.5L129.5 138.5L129.6 141.66C129.7 145.08 130.11 146 131.53 146C132.88 146 133.33 144.84 133.33 141.43L133.33 138.33L134.3 138.33C134.87 138.33 135.34 138.55 135.46 138.86C135.58 139.15 135.67 141.01 135.67 142.99C135.67 145.6 135.54 146.69 135.22 146.96C134.97 147.17 133.62 147.43 132.22 147.55L129.67 147.76L129.67 148.83C129.67 149.45 129.4 150.13 129.04 150.46C128.46 150.99 128.37 150.99 127.87 150.48ZM143.82 149.98C143.54 149.53 144.27 146.39 144.88 145.42C145.4 144.58 146.39 144.43 146.96 145.12C147.24 145.46 147.05 146.13 146.17 147.95C145.08 150.18 144.34 150.82 143.82 149.98ZM137.82 148.85C136.68 147.71 136.65 145.11 137.77 144.06C138.96 142.94 140.72 143.08 141.8 144.36C142.99 145.77 142.95 147.29 141.7 148.63C140.48 149.94 138.99 150.03 137.82 148.85ZM157.19 148.5C156.14 147.36 156.08 147.34 154.5 147.63C151.15 148.26 149 147.12 149 144.72C149 144 149.21 143.24 149.47 143.03C149.87 142.7 149.86 142.49 149.41 141.6C148.96 140.68 148.95 140.45 149.37 139.7C150.02 138.55 151.19 138.01 153 138.01C154.96 138.01 155.91 138.28 156.15 138.91C156.54 139.94 155.72 140.33 153.6 140.11C151.64 139.9 151.61 139.91 151.72 140.7C151.81 141.31 152.07 141.53 152.83 141.61C153.38 141.67 154.02 141.88 154.26 142.08C154.94 142.64 153.78 143.67 152.45 143.67C151.5 143.67 151.33 143.78 151.33 144.46C151.33 144.9 151.56 145.44 151.83 145.66C152.3 146.06 152.65 146.03 155.39 145.45C155.87 145.35 156.69 144.83 157.2 144.3C158.52 142.92 160.28 142.95 161.47 144.36C162.66 145.77 162.62 147.29 161.37 148.63C160 150.09 158.61 150.05 157.19 148.5ZM140.6 147.6C141.2 147 141.08 145.84 140.34 145.17C139.8 144.68 139.59 144.65 139.17 144.99C138.67 145.41 138.47 147.36 138.89 147.78C139.24 148.13 140.16 148.04 140.6 147.6ZM160.34 147.32C161.02 146.04 159.82 144.18 158.83 145C158.33 145.42 158.14 147.36 158.56 147.78C159.01 148.23 159.99 147.98 160.34 147.32ZM100.17 127.67C92.87 126.57 86.57 122.04 82.68 115.11C81.25 112.58 81.21 112.4 81.12 109.22C81.03 106.15 80.93 105.75 79.67 103.14C76.5 96.58 70.36 92.33 62.63 91.32C55.5 90.38 48.67 92.45 44.16 96.91C41.71 99.33 40.33 101.59 39.33 104.83C38.28 108.2 38.07 108.67 37.55 108.67C36.44 108.67 36.22 107.75 36.82 105.58C38.88 98.1 43.77 92.9 51.33 90.17C53.43 89.42 54.56 89.24 58.35 89.09C63.18 88.91 66.07 89.39 69.86 91.01C73.7 92.66 77.74 96.03 80.22 99.67C82.2 102.56 83.67 107.06 83.67 110.23C83.67 114.32 87.68 119.91 92.67 122.76C95.62 124.46 101.12 126 104.18 126C105.61 126 110.49 125 112.17 124.36C117.66 122.28 122.35 117.84 124.49 112.71C125.18 111.06 125.4 109.92 125.47 107.71C125.54 105.44 125.75 104.38 126.48 102.68C128.47 98.03 131.57 94.41 135.61 92.01C138.52 90.28 140.79 89.44 144.17 88.83C147.69 88.19 149.56 88.22 153.17 88.95C156.75 89.69 159.71 90.9 162.28 92.67C168.71 97.13 172.04 102.74 172.56 110C172.71 112.03 172.97 112.91 173.93 114.67C176.28 118.97 181.05 122.74 186.23 124.4C189.28 125.38 195.52 125.45 198.5 124.53C207.83 121.67 213.67 114.65 214.27 105.6L214.5 102.17L240.3 102.08C258.69 102.02 266.23 101.89 266.55 101.62C266.8 101.42 267 100.82 267 100.29C267 98.96 267.55 99.04 271.4 100.92C274.64 102.5 275.07 102.92 274.2 103.64C273.3 104.39 267.41 107.3 267.21 107.1C267.09 106.98 267 106.49 267 106.01C267 105.53 266.82 104.95 266.6 104.73C266.3 104.43 260.25 104.33 241.43 104.33L216.67 104.33L216.67 105.37C216.67 106.57 215.4 112 215.01 112.5C214.87 112.68 214.63 113.21 214.49 113.67C214.08 115.02 211.21 119.06 209.62 120.52C207.83 122.17 204.62 124.34 202.83 125.12C202.1 125.44 201.23 125.85 200.9 126.03C200.57 126.21 199.6 126.5 198.73 126.68C197.87 126.86 196.34 127.17 195.33 127.37C191.76 128.09 186.66 127.17 182.1 124.98C177.26 122.65 173.65 119.06 171.16 114.1C170 111.78 169.89 111.32 169.83 108.49C169.76 105.61 169.66 105.2 168.34 102.47C163.33 92.13 149.38 87.63 138.5 92.85C132.79 95.59 128.95 100.27 128.32 105.29C127.39 112.63 126.05 115.81 122.13 119.97C116.25 126.23 108.54 128.93 100.17 127.67ZM306 117.5C306 117.29 308.7 114.4 312 111.08C315.3 107.76 318 104.89 318 104.69C318 104.49 317.41 104.33 316.7 104.33C315.3 104.33 315.21 104.42 312.32 108.24C311.6 109.19 310.67 110.15 310.25 110.36C308.37 111.34 306.33 113.16 306.33 113.88C306.33 114.28 305.99 114.89 305.57 115.23C303.96 116.5 303.33 117.74 303.56 119.15L303.77 120.46L304.89 119.18C305.5 118.47 306 117.72 306 117.5ZM305.99 111.95C306.01 111.66 303.88 111.36 303.6 111.62C303.48 111.74 303.46 112.47 303.56 113.25L303.76 114.67L304.86 113.42C305.47 112.73 305.98 112.07 305.99 111.95ZM289.32 109.48C288.95 109.04 288.95 108.76 289.3 107.89C290.15 105.82 290.09 105.4 288.54 101.69C287.69 99.67 287 97.87 287 97.68C287 97.49 287.45 97.33 288 97.33C288.89 97.33 289.1 97.53 289.8 99.08C290.23 100.05 290.69 101.18 290.82 101.6C291.19 102.8 291.65 102.34 292.75 99.74C293.67 97.55 293.85 97.33 294.71 97.33C295.4 97.33 295.67 97.5 295.66 97.92C295.66 98.24 294.64 100.89 293.39 103.81C291.04 109.3 290.17 110.51 289.32 109.48ZM309.5 108.19C310.71 107.27 312 104.91 312 103.63C312 102.6 310.8 100.5 309.67 99.56C307.93 98.09 304.47 97.93 302.72 99.25C301.07 100.47 300.52 101.56 300.51 103.62C300.5 105.91 301.59 107.87 303.38 108.79C305.09 109.66 307.94 109.38 309.5 108.19ZM467.33 108.17C466.76 107.48 467.11 106.79 469.49 103.83L471.38 101.5L469.77 101.33C467.86 101.12 467.33 100.84 467.33 100.02C467.33 99.18 467.97 99 470.88 99C473.35 99 474.67 99.36 474.67 100.04C474.67 100.23 473.77 101.55 472.67 102.97C470.17 106.19 470.12 106.66 472.25 106.67C474.25 106.68 474.98 107.08 474.46 107.91C473.94 108.75 468 108.96 467.33 108.17ZM117.82 79.8C117.65 79.76 117.09 79.64 116.59 79.53C115.11 79.2 114 77.22 114 74.91C114 71.34 115.58 69.8 118.94 70.08C121.14 70.26 122.02 71.06 121.12 72.05C120.72 72.49 120.43 72.56 119.98 72.32C119.19 71.9 117.79 71.91 116.98 72.35C116.03 72.85 116.05 76.38 117 77.33C117.73 78.06 118.99 78.21 119.56 77.64C119.99 77.21 121.4 77.35 121.56 77.85C121.79 78.53 120.77 79.4 119.47 79.64C118.74 79.77 118 79.85 117.82 79.8ZM129.46 79.74C129.08 79.68 128.33 79.19 127.81 78.64C126.99 77.78 126.84 77.33 126.74 75.41C126.56 71.74 127.87 70.02 130.85 70C132.31 70 133.05 69.53 132.77 68.79C132.46 67.98 132.98 66.67 133.61 66.67C134.87 66.67 135 67.28 135 73.05C135 78.31 134.96 78.66 134.31 79.11C133.93 79.38 133.35 79.52 133.02 79.44C132.69 79.35 131.91 79.41 131.29 79.57C130.67 79.73 129.85 79.81 129.46 79.74ZM140.13 79.68C137.79 79.14 136.67 77.55 136.67 74.77C136.67 71.64 138.19 70 141.12 70C143.02 70 144.39 71.08 144.98 73.05C145.37 74.38 145.35 74.51 144.66 75.07C144.09 75.53 143.33 75.67 141.3 75.67C139.85 75.67 138.67 75.79 138.67 75.94C138.67 76.09 139.11 76.63 139.64 77.15C140.66 78.12 140.53 78.11 143.63 77.47C144.76 77.23 145.18 77.71 144.67 78.66C144.19 79.56 141.87 80.08 140.13 79.68ZM158.83 79.64C157.31 79.19 157 78.5 157 75.57C157 73.7 156.84 72.66 156.44 71.99C155.92 71.1 155.92 70.95 156.42 69.93C156.71 69.33 157.04 68.56 157.14 68.23C157.49 67.09 158.62 67.77 159.13 69.42C159.24 69.75 159.64 70 160.09 70C160.52 70 161.16 70.23 161.52 70.5C162.15 70.99 162.15 71.01 161.38 71.67C160.95 72.03 160.23 72.33 159.8 72.33C159.04 72.33 159 72.44 159 74.52C159 77.22 159.37 78 160.66 78C161.8 78 162.26 78.56 161.62 79.16C160.95 79.8 159.96 79.97 158.83 79.64ZM183.1 79.51C181.24 78.7 180.53 76.21 181.75 74.73C182.27 74.11 184.25 73.33 185.33 73.33C186.37 73.33 187.27 72.54 186.67 72.17C186.46 72.04 185.37 71.99 184.23 72.05C182.2 72.16 182.16 72.15 182.06 71.26C181.93 70.13 182.79 69.86 185.73 70.07C187.49 70.2 187.88 70.35 188.56 71.19C189.29 72.1 189.34 72.42 189.25 75.67L189.17 79.17L187.33 79.37C186.32 79.48 185.2 79.66 184.83 79.77C184.47 79.88 183.69 79.76 183.1 79.51ZM203.83 79.69C201.36 79.09 200.33 77.63 200.35 74.78C200.35 73.71 200.55 72.49 200.78 72.06C201.49 70.78 203.01 70 204.78 70C206.18 70 206.55 70.15 207.53 71.13C208.45 72.05 208.67 72.53 208.67 73.62C208.67 75.35 208.11 75.67 205.02 75.67C202.94 75.67 202.67 75.74 202.67 76.29C202.67 77.21 204.2 78.11 205.37 77.87C205.9 77.76 206.77 77.58 207.29 77.47C207.84 77.36 208.35 77.43 208.48 77.63C208.78 78.12 208.13 79.25 207.42 79.45C206.05 79.84 204.77 79.92 203.83 79.69ZM97.22 79.44C96.82 79.04 96.99 78.29 97.67 77.42C98.23 76.7 98.33 76.07 98.33 73.17C98.33 70.17 98.25 69.7 97.65 69.15C97.28 68.81 97.01 68.23 97.07 67.85C97.15 67.27 97.44 67.15 99 67.07C100.27 67 101.04 67.13 101.5 67.49C102.16 68 102.16 68 101.42 68.64C100.71 69.23 100.67 69.53 100.67 73.43C100.67 77.36 100.71 77.61 101.42 78.12C102.15 78.64 102.16 78.66 101.52 79.16C100.87 79.67 97.66 79.88 97.22 79.44ZM110.4 79.26C110.15 79.01 110 77.74 110 75.83C110 72.55 109.76 72 108.33 72C106.65 72 106.36 72.55 106.26 76L106.17 79.17L105.17 79.17L104.17 79.17L104.17 74.83L104.17 70.5L106.78 70.22C111.32 69.74 112.44 70.91 112.26 75.96C112.18 78.35 112.07 78.82 111.48 79.21C110.95 79.56 110.71 79.57 110.4 79.26ZM123.42 79.43C123.11 79.32 123 78.08 123 74.78L123 70.29L123.92 70.39L124.83 70.5L124.93 74.52C125.01 78.04 124.94 78.61 124.43 79.06C124.1 79.35 123.65 79.51 123.42 79.43ZM147.19 79.14C146.88 78.83 146.71 78.36 146.81 78.1C146.92 77.83 147 75.97 147 73.96L147 70.31L148.08 70.33C148.68 70.35 149.93 70.26 150.87 70.14C152.42 69.94 152.66 70.01 153.63 70.88C154.64 71.79 154.69 71.98 154.89 75.04C155.08 78.04 155.05 78.29 154.36 78.98C153.13 80.2 152.67 79.42 152.67 76.1C152.67 72.88 152.34 72 151.13 72C149.25 72 149 72.43 149 75.63C149 78.08 148.9 78.66 148.37 79.13C147.79 79.66 147.71 79.66 147.19 79.14ZM170.71 79.36C170.25 79.08 168.69 73.78 168.42 71.58C168.27 70.42 168.32 70.33 169.14 70.33C170.09 70.33 170.33 70.72 171.02 73.43C171.25 74.32 171.55 74.91 171.71 74.76C171.86 74.61 172.27 73.59 172.61 72.49C173.14 70.83 173.38 70.48 174.07 70.4C175.08 70.28 175.38 70.65 176.17 73.06C176.51 74.11 176.91 74.89 177.05 74.8C177.29 74.65 177.6 73.66 178.14 71.25C178.31 70.5 178.53 70.33 179.34 70.33C180.53 70.33 180.54 70.45 179.64 73.87C179.27 75.32 178.82 77.02 178.66 77.66C178.4 78.7 177.59 79.67 176.98 79.67C176.53 79.67 176.05 78.81 175.39 76.83C175.02 75.73 174.52 74.8 174.27 74.75C174 74.7 173.58 75.44 173.17 76.71C172.48 78.81 171.52 79.86 170.71 79.36ZM194.23 79.19C193.81 78.76 191.43 73.07 190.83 71.06C190.62 70.35 190.69 70.3 191.72 70.39C192.77 70.49 192.89 70.64 193.83 73.08C194.38 74.49 194.98 75.6 195.16 75.55C195.35 75.49 195.93 74.3 196.46 72.89C197.34 70.54 197.5 70.33 198.36 70.33C198.87 70.33 199.37 70.45 199.45 70.59C199.59 70.82 198.27 74.3 196.78 77.67C196.28 78.79 195.48 79.67 194.96 79.67C194.82 79.67 194.5 79.45 194.23 79.19ZM131.99 77.18C132.61 76.52 132.76 75.99 132.75 74.54C132.74 73.54 132.64 72.56 132.52 72.36C132.39 72.16 131.71 72 130.99 72C129.86 72 129.61 72.14 129.14 73.05C128.17 74.93 129.11 78 130.66 78C130.97 78 131.56 77.63 131.99 77.18ZM186.37 77.13C187.44 76.11 187.3 75.33 186.05 75.34C184.29 75.35 183.67 75.69 183.67 76.65C183.67 77.15 183.77 77.66 183.89 77.78C184.37 78.26 185.51 77.96 186.37 77.13ZM142.51 73.32C142.88 72.72 141.97 72 140.83 72C139.7 72 138.79 72.72 139.16 73.32C139.28 73.51 140.03 73.67 140.83 73.67C141.64 73.67 142.39 73.51 142.51 73.32ZM206.18 73.32C206.54 72.72 205.64 72 204.53 72C203.42 72 202.67 72.5 202.67 73.23C202.67 73.77 205.85 73.84 206.18 73.32ZM123.22 69.11C123.1 68.99 123 68.54 123 68.11C123 67.5 123.18 67.33 123.84 67.33C124.31 67.33 124.77 67.56 124.88 67.84C125.23 68.74 123.88 69.77 123.22 69.11ZM330.42 55.43C330.1 55.32 330 53.78 330 49.28L330 43.29L330.92 43.39L331.83 43.5L331.93 46.66C332 48.99 332.17 49.97 332.57 50.41C333.21 51.12 333.98 51.16 334.85 50.53C335.39 50.13 335.53 49.52 335.67 46.78C335.83 43.63 335.87 43.5 336.63 43.39C337.07 43.33 337.55 43.48 337.71 43.72C337.86 43.97 337.99 45.84 337.99 47.88C338 52.6 338.16 52.43 333.5 52.61C332.02 52.67 332 52.68 332 53.82C332 55 331.27 55.73 330.42 55.43ZM340.11 54.8C339.89 54.23 340.84 50.79 341.41 50.08C341.86 49.53 342.82 49.55 343.3 50.12C343.59 50.47 343.49 50.98 342.88 52.3C341.64 54.98 340.55 55.96 340.11 54.8ZM354.11 54.8C353.89 54.23 354.84 50.79 355.41 50.08C355.86 49.53 356.82 49.55 357.3 50.12C357.59 50.47 357.49 50.98 356.88 52.3C355.64 54.98 354.55 55.96 354.11 54.8ZM347.69 52.66C347.06 52.51 346.28 52.04 345.95 51.61C345.22 50.67 345.15 48.57 345.82 48.01C346.26 47.65 346.25 47.48 345.79 46.59C345.17 45.38 345.51 44.34 346.82 43.48C347.46 43.06 348.2 42.96 349.86 43.06C352.19 43.21 352.87 43.67 352.3 44.73C352.03 45.23 351.69 45.29 350.04 45.12C348.71 44.98 348.02 45.04 347.85 45.31C347.52 45.83 348.26 46.67 349.06 46.67C349.42 46.67 350.01 46.83 350.38 47.03C351.02 47.37 351.03 47.42 350.48 48.03C350.12 48.41 349.46 48.67 348.78 48.67C347.83 48.67 347.67 48.78 347.67 49.46C347.67 50.56 348.45 51.12 349.66 50.87C350.22 50.76 351.1 50.58 351.63 50.47C352.17 50.36 352.68 50.43 352.81 50.63C353.12 51.12 352.46 52.25 351.75 52.45C350.37 52.83 348.75 52.91 347.69 52.66ZM362.01 52.55C358.93 51.52 358.14 46.47 360.67 43.94C361.59 43.02 361.73 42.99 364.73 43.04C368.57 43.1 369.51 43.39 369 44.33C368.8 44.7 368.45 45 368.2 45C367.88 45 367.77 45.64 367.8 47.49C367.83 49.98 367.83 49.99 366.5 51.29C365 52.75 363.7 53.11 362.01 52.55ZM364.15 50.79C364.91 50.5 365.67 48.9 365.67 47.59C365.67 45.99 364.86 45 363.55 45C362.02 45 361.67 45.52 361.67 47.79C361.67 50.42 362.5 51.43 364.15 50.79ZM297.42 25.43C296.96 25.26 296.84 24.14 297.26 23.88C297.4 23.79 297.99 23.05 298.58 22.24L299.64 20.76L298.32 18.98C296.73 16.85 296.66 16.33 297.98 16.33C298.71 16.33 299.19 16.63 299.86 17.5C300.35 18.14 300.93 18.67 301.16 18.67C301.39 18.67 301.94 18.14 302.37 17.5C303.01 16.57 303.39 16.34 304.25 16.34C304.85 16.33 305.33 16.43 305.33 16.55C305.33 16.67 304.73 17.57 304 18.54C303.27 19.51 302.67 20.49 302.67 20.71C302.67 20.93 303.29 21.93 304.05 22.94C305.36 24.67 305.4 24.79 304.82 25.22C304.48 25.46 304.08 25.67 303.92 25.67C303.57 25.67 301.67 23.63 301.67 23.26C301.67 22.61 300.39 23.1 299.73 23.99C298.9 25.11 298.03 25.65 297.42 25.43Z" fill="#1e2749" fill-rule="evenodd"/>
</svg>
