<?xml version="1.0" encoding="UTF-8"?>
<svg xmlns="http://www.w3.org/2000/svg" viewBox="0 0 2430 1045" width="2430" height="1045" shape-rendering="geometricPrecision">
<path d="M379.5 993.62C360.25 983.02 350.97 977.76 313.78 956.41C272.91 932.93 154.85 864.44 120 843.98C113.67 840.26 102.65 833.85 95.5 829.72C72.08 816.21 36.59 795.41 32.25 792.66L27.99 789.97L28.09 587.23C28.14 475.73 28.43 380.34 28.72 375.26L29.24 366.02L46.37 355.87C55.79 350.29 68.22 342.92 74 339.5C105.13 321.02 117.56 313.71 127.5 308.04C133.55 304.59 143.68 298.71 150 294.98C165.14 286.05 245.62 239.23 266.5 227.19C270.35 224.98 283.4 217.44 295.5 210.44C307.6 203.45 322.45 194.93 328.5 191.5C374.31 165.58 387.14 158.42 392.55 155.75L398.74 152.7L415.12 161.99C424.13 167.09 435.55 173.64 440.5 176.53C445.45 179.42 455.8 185.37 463.5 189.76C476.35 197.09 499.79 210.6 538.5 233.01C546.75 237.78 571.5 252.16 593.5 264.96C647.59 296.43 681.58 316.14 687 319.18C689.48 320.57 694.2 323.28 697.5 325.2C736.76 348.12 756.92 359 760.12 359C762.45 359 765.94 357.11 788.5 343.67C796.75 338.75 806.88 332.82 811 330.49C824.11 323.08 857 304.08 871.5 295.55C885.34 287.4 899.49 279.16 936.5 257.73C946.95 251.68 957.98 245.26 961 243.47C964.02 241.69 973.48 236.2 982 231.28C990.52 226.35 1006.27 217.25 1017 211.04C1092.97 167.07 1116.85 154 1121.19 154C1123.89 154 1136.86 161.17 1197 195.94C1218.17 208.18 1240.22 220.93 1246 224.27C1259.34 231.98 1269.42 237.86 1284.5 246.72C1296.66 253.87 1308.17 260.53 1342.5 280.29C1352.95 286.31 1361.95 291.57 1362.5 291.98C1363.4 292.67 1387.56 306.67 1404 316.04C1407.58 318.08 1416.12 323.02 1423 327.03C1429.88 331.04 1437.97 335.75 1441 337.5C1444.03 339.26 1453.64 344.85 1462.36 349.94C1475.9 357.83 1478.67 359.1 1481.36 358.59C1484.28 358.04 1498.33 350.53 1525.5 334.99C1531.55 331.53 1539.42 327.04 1543 325.01C1559.59 315.58 1572.65 308.06 1586 300.23C1593.97 295.55 1607.92 287.46 1617 282.24C1626.08 277.02 1635.97 271.29 1639 269.49C1643.98 266.54 1668.76 252.13 1700.5 233.74C1707.1 229.91 1716.55 224.41 1721.5 221.52C1731.13 215.89 1750.3 204.78 1782.5 186.2C1793.5 179.85 1810.6 169.97 1820.5 164.24C1830.4 158.52 1839.95 153.59 1841.72 153.29C1844.45 152.83 1845.49 153.29 1848.47 156.27C1850.56 158.36 1852 160.79 1852 162.21C1852 166.85 1848.77 169.03 1797.39 199.06C1749.76 226.89 1742.57 231.08 1721.5 243.23C1711.05 249.26 1696.88 257.48 1690 261.5C1683.12 265.53 1662.42 277.57 1644 288.27C1625.58 298.97 1607.8 309.3 1604.5 311.23C1551.17 342.3 1499.05 371.9 1486.16 378.42L1480.83 381.12L1469.16 374.64C1451.01 364.56 1431.62 353.56 1405.5 338.53C1367.72 316.79 1369.14 317.61 1305.5 280.56C1287.37 270 1249.4 247.98 1226.5 234.74C1211.59 226.12 1200.95 219.92 1187 211.73C1179.03 207.05 1168.9 201.21 1164.5 198.75C1160.1 196.29 1148.53 189.68 1138.79 184.06C1126.98 177.25 1120.46 174.04 1119.23 174.43C1117.3 175.04 1099.63 185.02 1067 203.94C1048.84 214.47 1034.58 222.71 983.5 252.2C972.5 258.55 954.05 269.25 942.5 275.98C930.95 282.71 912.73 293.29 902 299.48C891.27 305.68 876.2 314.47 868.5 319.02C844.82 332.99 842.69 334.23 836.5 337.65C833.2 339.48 816.77 348.97 800 358.75L769.5 376.53L769.27 578.02L769.03 779.5L775.77 783.42C779.47 785.58 786.91 789.96 792.3 793.17C797.68 796.38 802.31 799 802.57 799C802.83 799 805.85 800.75 809.27 802.89C812.7 805.03 823.15 811.16 832.5 816.5C841.85 821.85 849.95 826.57 850.5 826.99C851.05 827.41 860.5 832.92 871.5 839.24C882.5 845.56 898.25 854.67 906.5 859.48C914.75 864.29 927.8 871.87 935.5 876.31C950.41 884.92 987.98 906.82 1007 918C1013.33 921.71 1025.92 929.03 1035 934.26C1044.08 939.49 1058.03 947.58 1066 952.24C1098.46 971.22 1119.31 983 1120.43 983C1121.08 983 1123.69 981.68 1126.24 980.06C1128.79 978.45 1138.89 972.55 1148.69 966.96C1158.48 961.37 1172.8 953.09 1180.5 948.55C1188.2 944.01 1210.25 931.14 1229.5 919.96C1248.75 908.78 1271.03 895.83 1279 891.18C1293.68 882.64 1296.28 881.13 1330.76 861.18C1341.35 855.05 1358.45 845.15 1368.76 839.18C1379.07 833.21 1395.15 823.92 1404.5 818.53C1413.85 813.14 1427.8 805.03 1435.5 800.49C1462.99 784.32 1478.78 776 1482.02 776C1484.15 776 1486.09 776.94 1488.08 778.92C1494.27 785.12 1491.24 788.77 1469.22 801.6C1460.03 806.96 1447.84 814.19 1442.14 817.67C1436.43 821.15 1431.64 824 1431.48 824C1431.32 824 1422.7 829.01 1412.34 835.13C1401.98 841.25 1387.73 849.6 1380.67 853.69C1373.62 857.78 1364.39 863.19 1360.17 865.71C1355.95 868.23 1348.22 872.76 1343 875.78C1337.78 878.8 1331.03 882.72 1328 884.49C1322.88 887.5 1300.45 900.49 1253 927.94C1242.28 934.15 1221.35 946.21 1206.5 954.75C1191.65 963.3 1175.22 972.77 1170 975.81C1148.02 988.6 1121.04 1003 1119.06 1003C1117.71 1003 1097.23 991.59 1059.5 969.82C1052.35 965.69 1030.3 952.97 1010.5 941.54C990.7 930.12 970.9 918.64 966.5 916.02C962.1 913.41 953.55 908.44 947.5 904.99C934.72 897.69 903.59 879.65 887 869.93C880.67 866.23 868.3 859.05 859.5 853.99C850.7 848.93 834.5 839.57 823.5 833.21C770 802.24 759.98 796.79 757.69 797.36C756.44 797.68 745.09 803.86 732.46 811.1C719.83 818.34 707.7 825.28 705.5 826.53C703.3 827.78 694.75 832.73 686.5 837.53C678.25 842.33 664.3 850.43 655.5 855.53C646.7 860.63 631.17 869.62 621 875.51C610.83 881.41 593.73 891.3 583 897.5C572.27 903.7 551.35 915.86 536.5 924.52C521.65 933.18 506.12 942.17 502 944.49C497.88 946.82 484.15 954.7 471.5 962.02C422.16 990.56 399.85 1003 398.04 1002.99C397.19 1002.98 388.85 998.77 379.5 993.62ZM405.86 978.65C422.08 969.42 448 954.46 459 947.98C469.85 941.59 495.87 926.44 517 914.22C522.23 911.19 535.73 903.31 547 896.7C558.27 890.08 573.35 881.32 580.5 877.23C587.65 873.13 602.95 864.26 614.5 857.51C626.05 850.76 646.98 838.6 661 830.47C675.02 822.35 693.02 811.87 701 807.19C721.49 795.16 725.46 792.85 734.5 787.7C738.9 785.2 744.19 782 746.25 780.58L750 778.02L750 578.08L750 378.14L747.25 376.24C745.74 375.19 739.1 371.26 732.5 367.49C725.9 363.73 717.24 358.7 713.26 356.32C709.28 353.94 696.91 346.74 685.76 340.32C661.18 326.15 640.99 314.45 597 288.86C578.58 278.14 561.48 268.23 559 266.83C556.52 265.42 546.62 259.65 537 254C527.38 248.35 516.12 241.82 512 239.49C507.88 237.16 499.1 232.11 492.5 228.27C485.9 224.43 471.73 216.22 461 210.02C450.27 203.83 437.9 196.62 433.5 194.01C411.65 181.05 399 174 397.59 174C396.74 174 388.72 178.21 379.77 183.35C343.2 204.36 322.89 216.1 311.86 222.62C296.99 231.41 294.68 232.76 288 236.52C279.44 241.36 256.69 254.52 244 261.99C237.68 265.72 214.5 279.23 192.5 292.01C170.5 304.8 144.4 319.99 134.5 325.77C124.6 331.55 113.12 338.18 109 340.51C104.88 342.84 96.33 347.79 90 351.51C83.67 355.23 71.43 362.34 62.79 367.31C54.15 372.28 46.95 376.83 46.79 377.42C46.63 378.02 46.73 468.89 47 579.36L47.5 780.22L61.5 788.27C69.2 792.7 82.92 800.68 92 806.01C101.08 811.34 120.42 822.6 135 831.01C149.57 839.43 166.22 849.12 172 852.54C181.47 858.14 189.63 862.88 218.5 879.53C223.45 882.39 232.9 887.87 239.5 891.71C246.1 895.56 260.05 903.67 270.5 909.74C280.95 915.8 295.62 924.37 303.11 928.77C310.6 933.18 318.7 937.89 321.11 939.24C329.79 944.12 376.7 971.5 386 977.11C391.23 980.27 396.11 982.89 396.86 982.93C397.6 982.97 401.65 981.04 405.86 978.65ZM1805.75 860.2C1801.12 859.96 1800 859.57 1800.01 858.2C1800.02 857.27 1805.88 850.2 1813.04 842.5C1834.51 819.41 1839.58 811.43 1840.66 799C1841.6 788.35 1834.56 780 1824.67 780C1817.61 780 1811.88 783.04 1807.55 789.07C1803.13 795.22 1801.54 795.45 1802.3 789.83C1803.17 783.32 1807.93 774.99 1812.7 771.64C1816.18 769.2 1818.15 768.63 1824.43 768.22C1834.5 767.58 1839.88 769.19 1845.98 774.67C1852.34 780.39 1854.45 785.77 1853.76 794.45C1852.91 804.95 1846.38 815.49 1828.15 835.8C1822.57 842.01 1818 847.59 1818 848.18C1818 848.94 1822.56 849.13 1832.97 848.79C1847.09 848.34 1848.16 848.16 1851.94 845.66C1855.45 843.34 1859 842.2 1859 843.39C1859 845.11 1854.58 857.74 1853.66 858.64C1852.52 859.76 1818.56 860.87 1805.75 860.2ZM1551.36 830.02C1527.28 823.71 1508.98 802.9 1504.06 776.26C1502.27 766.59 1502.51 745.79 1504.52 737C1505.48 732.76 1508.41 725.22 1511.26 719.65C1518.89 704.7 1528.98 694.73 1543.73 687.57C1561.95 678.72 1580.17 678.67 1607 687.39C1615.35 690.11 1616.52 689.77 1619.63 683.75C1621.44 680.25 1625.47 679.95 1626.39 683.25C1626.73 684.49 1627.49 691.35 1628.06 698.5C1629.35 714.46 1628.99 729.18 1627.3 729.74C1626.6 729.97 1624.32 726.62 1621.94 721.89C1611.44 700.99 1599.77 691.69 1582.41 690.35C1572.73 689.61 1560.87 691.82 1554.5 695.55C1536.21 706.27 1526.74 730.5 1528.33 762.5C1529.36 783.09 1534.47 797.25 1544.39 806.98C1554.98 817.37 1565.08 821.47 1580 821.45C1596.39 821.42 1607.91 815.78 1619.91 801.91C1626.65 794.11 1630.17 791.77 1632.16 793.76C1633.96 795.56 1625.98 806.87 1616.78 815.52C1608.16 823.64 1598.62 828.95 1589.2 830.9C1580.61 832.68 1559.65 832.19 1551.36 830.02ZM1703.22 830.07C1681.94 824.84 1665.1 809.68 1656.25 787.78C1650.91 774.55 1649.62 749.25 1653.47 733.24C1659.18 709.53 1679.53 689.13 1703.61 682.97C1713.24 680.51 1729.15 680.34 1739.3 682.6C1764.44 688.19 1786.97 712.4 1791.68 738.89C1793.53 749.31 1792.93 769.5 1790.49 778.35C1784.97 798.43 1768.06 818.63 1750.03 826.69C1737.8 832.16 1717.65 833.61 1703.22 830.07ZM1878.5 829.15C1872.44 828.59 1871.5 828.24 1871.5 826.54C1871.5 824.97 1872.58 824.36 1877 823.47C1883.81 822.1 1886.51 820.67 1888.72 817.31C1890.19 815.06 1890.54 810.64 1891.15 786.09C1891.97 753.64 1891.59 704.11 1890.49 699.26C1889.55 695.11 1885.73 691.3 1881.68 690.48C1873.03 688.72 1871 687.89 1871 686.1C1871 684.49 1872.24 684.22 1881.75 683.69C1893.98 683.01 1932.47 684.14 1933.54 685.21C1935.21 686.88 1932.94 689 1929.47 689C1927.49 689 1923.67 689.95 1920.98 691.1C1917.06 692.79 1915.86 693.9 1914.95 696.66C1914.23 698.82 1913.75 709.55 1913.65 725.31L1913.5 750.5L1944.88 750.76C1968.91 750.97 1976.61 750.73 1977.77 749.77C1979.08 748.69 1979.21 745.04 1978.76 723.41C1978.44 708.06 1977.8 697.5 1977.13 696.24C1975.48 693.15 1969.59 689.92 1964.25 689.16C1960.4 688.61 1959.44 688.07 1959.19 686.31C1958.92 684.45 1959.49 684.05 1963.19 683.51C1971.19 682.33 2018.78 683.37 2020.15 684.75C2022.01 686.61 2020.31 687.76 2012.45 689.94C2007.5 691.32 2004.86 692.67 2003.2 694.68L2000.89 697.5L2001.31 755C2001.6 795.53 2002.08 813.61 2002.91 816.26C2004.39 820.93 2006.97 822.6 2013.92 823.35C2020.31 824.05 2022.11 825.32 2019.88 827.55C2018.64 828.79 2014.43 829.18 1997.92 829.62C1986.69 829.91 1973.45 829.78 1968.5 829.32C1960.51 828.59 1959.5 828.28 1959.5 826.54C1959.5 824.97 1960.58 824.36 1965 823.47C1972.45 821.97 1974.91 820.46 1976.62 816.36C1978.19 812.6 1979.58 791.48 1979.53 772L1979.5 760.5L1946.5 760.5L1913.5 760.5L1913.42 777.5C1913.38 786.85 1913.66 799.6 1914.04 805.84C1914.88 819.77 1915.92 821.25 1926.38 823.44C1934.3 825.1 1934.93 825.5 1932.83 827.6C1931.53 828.9 1927.45 829.21 1908.39 829.47C1895.8 829.65 1882.35 829.5 1878.5 829.15ZM1734.25 821.33C1740 819.53 1749.47 812.73 1753.66 807.4C1758.09 801.79 1761.82 793.94 1764.24 785.15C1766.06 778.57 1766.35 774.7 1766.38 757.5C1766.41 740.01 1766.13 736.43 1764.2 729C1759.53 711.08 1751.99 700.58 1739.3 694.3C1732.2 690.79 1731.19 690.57 1722.13 690.54C1698.26 690.45 1686.3 702.18 1678.83 733C1677.95 736.66 1677.53 744.68 1677.6 757C1677.68 772.57 1678.04 776.77 1679.85 783.5C1688.26 814.79 1709.06 829.26 1734.25 821.33ZM382.5 700.38C339.31 693.85 305.27 666.75 290.35 627.03C285.01 612.82 283.57 604.39 283.57 587.5C283.58 566.32 286.84 553.05 296.78 533.74C310.58 506.92 334.02 487.91 365.5 477.99C371.2 476.19 375.75 475.68 390.02 475.26C417.16 474.46 429.25 476.87 448.54 486.92C471.09 498.67 486.79 514.8 498.36 538.13C506.95 555.42 509.08 565.14 509.08 587C509.08 605.81 508.47 610.5 504.6 621.77C498.73 638.87 490.36 652.53 477.69 665.68C461.91 682.06 444.03 692.49 422 698.17C414.64 700.07 389.66 701.47 382.5 700.38ZM414.43 680.38C439.6 675.58 462.63 659.3 477.19 636C485.55 622.63 489.93 607.94 490.7 590.73C491.3 577.29 490.51 570.93 486.76 559C477.93 530.87 454.67 507.37 426.27 497.86C414.43 493.9 404.75 492.66 391 493.35C378.16 493.99 372.02 495.37 359.6 500.37C334.73 510.4 316.74 529.69 306.78 556.99C303.83 565.09 303.66 566.39 303.23 583.85C302.86 598.89 303.09 603.46 304.49 609.24C308.7 626.55 317.07 641.16 330.45 654.56C341.86 665.99 352.36 672.55 367.05 677.43C383.18 682.79 397.19 683.66 414.43 680.38ZM2175.08 231.08C2173.07 229.8 2174.45 227.94 2188.46 213C2207.5 192.69 2212.76 184.83 2214.93 173.37C2216.73 163.86 2213.65 157.13 2205.65 153.12C2201.31 150.94 2200.44 150.84 2195.39 151.85C2189.13 153.11 2186.13 155.13 2181.92 160.95C2180.31 163.18 2178.54 165 2177.99 165C2175.93 165 2177.12 158.07 2180.25 151.91C2184.54 143.45 2189.94 139.94 2199.73 139.27C2222.01 137.73 2234.55 156.99 2224.63 177.53C2220.43 186.23 2214.73 193.97 2202.53 207.49C2197.29 213.3 2193 218.73 2193 219.55C2193 220.81 2194.71 220.95 2204.25 220.48C2221.39 219.65 2223.66 219.25 2228.01 216.37C2230.23 214.91 2232.35 214.01 2232.72 214.39C2233.56 215.23 2231.47 223.32 2229.2 228L2227.5 231.5L2202 231.74C2187.94 231.88 2175.86 231.58 2175.08 231.08ZM1934.5 203.45C1933.4 203.19 1930.03 202.48 1927 201.86C1904.08 197.22 1884.48 175.6 1878.97 148.92C1871.41 112.3 1884.56 78.83 1913.18 61.83C1931.87 50.72 1951.68 49.36 1976.73 57.46C1982.76 59.41 1988.42 61 1989.3 61C1990.19 61 1992.1 58.98 1993.55 56.5C1996.9 50.79 1999.5 50.52 2000.94 55.75C2001.51 57.81 2002.52 68.39 2003.19 79.26C2004.29 97.17 2004.25 99.18 2002.78 100.65C2001.29 102.14 2000.87 101.69 1997.46 94.88C1989.8 79.58 1981.19 69.86 1971.12 65.14C1965.92 62.7 1964.5 62.5 1951.98 62.5C1938.75 62.5 1938.32 62.57 1931.86 65.75C1923.49 69.87 1914.82 78.49 1911.01 86.49C1900.58 108.36 1899.69 142.78 1908.99 164.48C1916.28 181.47 1934.76 193.1 1954.46 193.1C1970.2 193.09 1983.04 186.72 1994.93 173C1999.67 167.53 2002.18 165.42 2004.21 165.19C2008.02 164.76 2007.81 166.44 2003.17 173.59C1995.01 186.18 1979.3 198.3 1966.48 201.89C1962.3 203.07 1937.94 204.25 1934.5 203.45ZM2080.56 202.35C2059.07 197.74 2042.61 184.7 2033.1 164.73C2027.26 152.47 2025.86 145.2 2025.88 127.22C2025.89 112.02 2027.9 101.96 2032.92 91.93C2043.48 70.82 2060.43 57.76 2082.79 53.48C2101.45 49.9 2119.74 53.31 2134.04 63.03C2149.2 73.33 2159.68 87.11 2164.42 103C2168.66 117.21 2168.46 140.55 2163.99 153.54C2157.68 171.88 2142.16 189.63 2125.5 197.56C2112.62 203.69 2095.39 205.53 2080.56 202.35ZM2245.96 199.46C2244.16 197.29 2245.62 196.21 2251.98 195C2258.2 193.82 2261.24 192.08 2263.74 188.28C2265.37 185.79 2265.5 181.36 2265.5 128.54C2265.5 66.37 2265.5 66.34 2259.88 63.44C2258.31 62.63 2255 61.69 2252.52 61.35C2247.06 60.6 2244.44 58.89 2245.31 56.64C2245.87 55.18 2248.58 55.01 2270.22 55.05C2294.35 55.1 2307.21 55.88 2308.71 57.38C2310 58.67 2305.86 61 2302.28 61C2298.02 61 2293.06 63.09 2290.5 65.97C2288.62 68.07 2288.48 69.89 2288.15 95.75L2287.81 123.29L2319.65 122.55C2338.87 122.11 2351.99 121.41 2352.74 120.79C2354.37 119.45 2353.38 71.77 2351.65 68.03C2350.14 64.79 2343.4 61.04 2339 61C2334.59 60.96 2332.7 59.79 2333.16 57.38C2333.51 55.6 2335.07 55.49 2363.39 55.23C2384.75 55.05 2393.65 55.3 2394.64 56.12C2396.51 57.67 2394.77 59.7 2390.93 60.44C2389.32 60.75 2386.65 61.26 2385 61.58C2383.34 61.9 2380.64 63.51 2379 65.16L2376 68.15L2376.01 123.33C2376.01 154.39 2376.44 181.1 2376.99 184.45C2378.22 191.96 2380.1 193.88 2387.05 194.66C2390.05 195 2393.37 195.73 2394.44 196.27C2396.32 197.24 2396.31 197.33 2394.08 199.14C2391.96 200.85 2389.61 201 2364.08 201C2341.61 201 2336.02 200.73 2334.44 199.57C2331.74 197.58 2333.37 196.26 2340.04 195.01C2352.03 192.76 2352.95 190.18 2353.72 156.75L2354.29 132L2321.04 132L2287.79 132L2288.14 159.29C2288.46 183.52 2288.7 186.9 2290.3 189.33C2292.44 192.6 2296.77 194.67 2303.16 195.5C2308.63 196.2 2310.31 198.55 2306.42 200.03C2304.99 200.57 2291.39 201 2275.56 201C2251.26 201 2247.06 200.78 2245.96 199.46ZM2112.38 191.55C2125.77 185.13 2135.79 171.09 2139.52 153.5C2141.76 142.97 2141.86 117.8 2139.72 106C2134.5 77.2 2119.17 62 2095.34 62C2081.1 62 2071.07 67.24 2063.35 78.71C2053.49 93.37 2049.56 117.35 2052.69 143.72C2055.69 169 2066.83 187.01 2083.23 193.09C2091.2 196.04 2104.46 195.35 2112.38 191.55Z" fill="#1e2749" fill-rule="evenodd"/>
</svg>
