<?xml version="1.0" encoding="UTF-8"?>
<svg xmlns="http://www.w3.org/2000/svg" viewBox="0 0 2430 1837" width="2430" height="1837" shape-rendering="geometricPrecision">
<path d="M1965.39 1793.51C1951.18 1790.42 1945.14 1784.16 1941.51 1768.78C1936.72 1748.46 1944.14 1728.31 1959.25 1720.67C1975.63 1712.38 1996.99 1717.05 2003.44 1730.33C2013.04 1750.09 2009.5 1783.62 1997.16 1789.92C1992.89 1792.1 1979.73 1795.04 1974.79 1794.92C1972.98 1794.88 1968.75 1794.24 1965.39 1793.51ZM2041.02 1793C2029.02 1789.75 2022.72 1783.05 2019.41 1770C2017.33 1761.8 2017.9 1746.61 2020.54 1740C2026.68 1724.6 2038.22 1716.68 2054.5 1716.67C2067.37 1716.67 2076.77 1721.67 2081.52 1731.04C2084.17 1736.27 2087 1750.28 2087 1758.17C2087 1764.26 2084.35 1777.39 2082.3 1781.46C2079.5 1787.03 2075.82 1789.97 2069.09 1792.05C2059.24 1795.1 2049.94 1795.41 2041.02 1793ZM1843 1743L1843 1692L1865.75 1692.03C1890.99 1692.07 1900.94 1692.99 1907.59 1695.94C1913.08 1698.37 1923.29 1707.94 1926.85 1714C1929.45 1718.42 1929.5 1718.8 1929.41 1736C1929.27 1763.14 1925.81 1775.49 1915.85 1784.44C1907.34 1792.1 1897.44 1793.99 1865.75 1793.99L1843 1794L1843 1743ZM2108.39 1792.12C2106.07 1790.68 2104.99 1789 2104.08 1785.4C2102.07 1777.42 2100.79 1757.48 2101.16 1739.85C2101.45 1725.42 2101.74 1722.94 2103.33 1721.18C2106.05 1718.18 2114.14 1716.57 2126.5 1716.57C2137.75 1716.57 2143.78 1717.82 2146.14 1720.67C2148.19 1723.13 2144.22 1725.6 2136.87 1726.44C2122.55 1728.06 2121.43 1730.8 2120.14 1767.24C2119.48 1785.93 2119.2 1788.25 2117.35 1790.74C2114.78 1794.19 2112.36 1794.57 2108.39 1792.12ZM1890.24 1782.43C1896.56 1780.28 1904 1772.27 1906.93 1764.47C1912.29 1750.18 1911.9 1728.68 1906.06 1717.12C1900.62 1706.35 1893.81 1703.06 1875.25 1702.26L1863 1701.73L1863 1742.86L1863 1784L1874.32 1784C1881.97 1784 1887.13 1783.49 1890.24 1782.43ZM1984.24 1779.27C1991.38 1772.29 1994.41 1758.75 1991.55 1746.5C1988.77 1734.58 1982.59 1728.01 1974.15 1728C1970.56 1728 1969.22 1728.58 1966.5 1731.3C1962.4 1735.4 1961.06 1739.89 1960.32 1752.03C1959.41 1766.79 1963.17 1777.01 1971.37 1782.12C1975.59 1784.76 1979.51 1783.89 1984.24 1779.27ZM2055.28 1782.65C2059.1 1781.05 2065.67 1774.05 2067.49 1769.64C2071.85 1759.08 2071.42 1748.24 2066.24 1738.03C2062.85 1731.34 2058.3 1728 2052.6 1728C2041.87 1728.01 2038.5 1735.06 2038.5 1757.5C2038.5 1770.43 2038.69 1771.88 2041 1776.5C2044.53 1783.56 2048.76 1785.38 2055.28 1782.65ZM1740.95 1655.75C1740.92 1654.51 1740.81 1625.15 1740.7 1590.5L1740.5 1527.5L926.75 1527.25L113 1527L112.97 1510.25C112.93 1488.37 112.93 430.12 112.97 393.25L113 365L357.38 365C551.67 365 601.96 364.74 602.78 363.75C603.45 362.93 603.82 340.39 603.85 298C603.88 262.52 603.93 232.49 603.95 231.25L604 229L832.25 229.25L1060.5 229.5L1060.76 297.25L1061.01 365L1706.45 365C2121.57 365 2352.1 365.35 2352.48 365.97C2353.27 367.24 2353.27 1524.75 2352.48 1526.02C2352.1 1526.64 2324.8 1527 2277.57 1527L2203.26 1527L2202.64 1547.25C2202.29 1558.39 2201.73 1583.47 2201.4 1603C2200.56 1651.75 2200.48 1653.92 2199.43 1654.97C2198.53 1655.86 1915.37 1657.99 1796.25 1658L1741 1658L1740.95 1655.75ZM2187.5 1587.5L2187.5 1527.5L2033 1527.29C1845.54 1527.03 1767.04 1528.25 1755.75 1531.61C1751.83 1532.78 1751.62 1535.08 1751.87 1575C1752 1596.17 1752.42 1620.7 1752.8 1629.5L1753.5 1645.5L1807 1646.11C1836.42 1646.45 1897.6 1646.79 1942.93 1646.88C1988.27 1646.96 2025.53 1647.2 2025.73 1647.4C2025.93 1647.6 2062.41 1647.7 2106.8 1647.63L2187.5 1647.5L2187.5 1587.5ZM714.75 1342.25L715.01 1168L419 1168L123 1168L123 1342.5L123 1517L418.75 1516.75L714.5 1516.5L714.75 1342.25ZM2342.75 1128.25L2343 740L2042 740L1741 740L1740.95 728.75C1740.93 722.56 1740.82 641.67 1740.7 549L1740.5 380.5L1466.25 380.25L1192 380L1192 529.88C1192 648.6 1191.74 679.96 1190.75 680.72C1189.48 681.71 962.85 680.7 854 679.22L800.5 678.5L799.75 601.5C799.33 559.15 798.66 492.1 798.25 452.5L797.5 380.5L601.25 380.25L405 380L405 689.8C405 929.42 404.73 999.87 403.8 1000.8C402.88 1001.72 370.2 1002 262.79 1002L122.99 1002L123.24 1077.25L123.5 1152.5L269 1153.12C645.47 1154.73 721.54 1155.18 722.13 1155.82C722.82 1156.56 723.65 1242.7 724.57 1409C724.89 1467.03 725.33 1515.06 725.55 1515.75C725.86 1516.75 888.08 1516.95 1534.22 1516.75L2342.5 1516.5L2342.75 1128.25ZM249 1379.25C249 1378.29 248.93 1359.05 248.84 1336.5C248.75 1313.95 248.75 1290.66 248.84 1284.75L249 1274L266.93 1274C295.09 1274 307.4 1276.66 314.84 1284.34C319.87 1289.53 321.12 1294.63 322.09 1314C322.57 1323.62 323.41 1334.42 323.96 1338C324.51 1341.58 324.96 1347.88 324.96 1352C324.96 1360.92 323.03 1365.78 317.37 1371.2C309.3 1378.92 299.35 1381 270.43 1381C250.69 1381 249 1380.86 249 1379.25ZM361.87 1379.49C351.42 1376.14 343.12 1368.11 338.93 1357.28C335.74 1349.04 335.7 1335.98 338.84 1326.81C341.85 1317.99 347.93 1308.73 352.85 1305.48C364.48 1297.78 380.18 1298.36 391.5 1306.91C395.75 1310.12 397.66 1312.55 400.61 1318.52C403.91 1325.21 404.33 1326.91 404.33 1333.59C404.33 1340.42 404.08 1341.37 401.67 1343.79C399.03 1346.42 398.76 1346.46 380.71 1347.17C359.45 1348.01 357 1348.61 357 1353.02C357 1357.07 358.98 1360.67 363.67 1365.19C367.98 1369.34 372.34 1371.34 375.15 1370.45C376.18 1370.12 379.52 1366.74 382.56 1362.93C388.32 1355.7 393.81 1352 398.76 1352C400.32 1352 402.14 1352.54 402.8 1353.2C404.43 1354.83 404.31 1360.49 402.59 1363.83C400.42 1368.03 391.47 1375.9 386.22 1378.24C380.14 1380.94 368.29 1381.55 361.87 1379.49ZM440.41 1379.65C428.48 1376.62 418.96 1366.61 415.54 1353.48C410.31 1333.41 418.68 1309.51 433.54 1302.09C437.89 1299.92 438.99 1299.79 448.41 1300.42C460.91 1301.26 461.43 1300.88 462.46 1290.02C462.85 1285.9 463.77 1281.1 464.5 1279.35C467.02 1273.31 472.71 1272.6 475.49 1277.97C478.64 1284.06 479.37 1295.01 479.43 1336.98L479.5 1378.47L474.96 1379.12C464.39 1380.64 445.46 1380.93 440.41 1379.65ZM549.21 1379.95C543.4 1377.62 541.74 1364.22 541.6 1318.5C541.55 1299.25 541.83 1282.34 542.23 1280.92C542.63 1279.5 544.1 1277.82 545.51 1277.18C551.86 1274.28 584.87 1272.94 597.87 1275.05C609.51 1276.94 613.9 1280.32 619.19 1291.5C623.82 1301.29 623.86 1309.63 619.33 1319.2C615.29 1327.72 608.88 1334.24 602.95 1335.89C600.5 1336.56 589.84 1337.38 579.25 1337.7L560 1338.28L559.99 1354.39C559.99 1371.89 559.1 1377.12 555.74 1379.47C553.27 1381.2 552.46 1381.26 549.21 1379.95ZM296.07 1367.8C310.98 1359.04 310.66 1338.63 295.5 1330.72C290.4 1328.06 274.54 1327.05 271.68 1329.2C269.13 1331.13 267.73 1343.01 268.55 1355.9C269.14 1365.16 269.49 1366.58 271.68 1368.77C274 1371.1 274.65 1371.21 282.89 1370.82C290.04 1370.48 292.45 1369.92 296.07 1367.8ZM453.39 1367.91C459.96 1362.74 462.84 1350.02 461.09 1333.91C459.71 1321.23 458.14 1317.37 453.57 1315.46C449.43 1313.74 443.52 1313.57 439.22 1315.07C434.97 1316.56 434 1320.06 434 1333.97C434 1353.02 437.03 1364.22 443.21 1367.99C447.41 1370.55 450.06 1370.53 453.39 1367.91ZM383.41 1334.65C384.89 1333.68 386.37 1332.2 386.69 1331.37C387.72 1328.67 384.83 1322.24 380.81 1318.32C377.03 1314.63 376.67 1314.5 369.86 1314.5C361.55 1314.5 359.99 1315.78 357.39 1324.74C355.56 1331.01 356.42 1334.39 360.24 1336.02C364.05 1337.65 380.3 1336.69 383.41 1334.65ZM590 1324.85C598.64 1321.09 603 1314.97 603 1306.6C603 1300.63 601.84 1297.9 597.4 1293.47C591.9 1287.97 582.54 1283.91 575.13 1283.8C562.15 1283.62 560.61 1286.2 560.54 1308.21C560.49 1324.78 560.83 1325.68 567.68 1327.07C573.35 1328.22 584.88 1327.07 590 1324.85ZM299.04 1315.47C301.03 1313.66 301.18 1312.76 300.8 1304.5C300.26 1292.76 298.38 1288.69 292.47 1286.44C286.51 1284.16 273.4 1284.73 271.48 1287.35C268.83 1290.98 267.74 1309.78 269.95 1313.9C271.56 1316.92 276.31 1317.96 287.18 1317.68C295.18 1317.48 297.24 1317.09 299.04 1315.47ZM941.68 1090.91C931.58 1089.84 920.61 1086.8 911.27 1082.49C900.5 1077.51 880.41 1065.85 872.41 1059.91C868.61 1057.1 862.03 1052.79 857.78 1050.33C848.12 1044.73 842.11 1038.7 837.06 1029.49C834.89 1025.54 831.43 1020.1 829.37 1017.4C818.66 1003.39 802.65 973.42 799.58 961.65C796.56 950.05 795.76 939.29 795.8 910.69C795.87 860.72 801.35 831.68 811.52 827.43C815.39 825.81 817 823.41 817 819.26C817 815.08 821.5 806.73 824.81 804.77C829.13 802.22 835.86 794.48 836.51 791.31C838.91 779.56 850.77 769.03 877.89 754.56C884.67 750.94 892.24 746.2 894.73 744.01C901.69 737.88 919.58 730 926.53 730C930.53 730 937.03 727.76 940.71 725.11C944.71 722.25 953.16 720.95 972.06 720.29C995.97 719.46 1017 721.93 1017 725.56C1017 727.51 1019.67 728.7 1027.93 730.42C1041.28 733.2 1084.29 754.23 1098.5 764.93C1112.25 775.27 1122.36 786.59 1124.13 793.6C1124.75 796.08 1126.86 799.83 1128.98 802.24C1139.57 814.29 1158 852.46 1158 862.35C1158 865.94 1159.97 869.86 1162.13 870.54C1163.22 870.89 1164.41 872.81 1165.09 875.31C1167.81 885.37 1167.77 927.36 1165.04 939.4C1164.43 942.1 1162.84 945.59 1161.52 947.16C1160.08 948.87 1158.88 951.9 1158.51 954.75C1156.84 967.78 1150.96 981.67 1142.54 992.44C1139.98 995.7 1135.64 1002.76 1132.89 1008.13C1120.05 1033.11 1105.93 1048.94 1094.22 1051.46C1092.16 1051.91 1088.22 1054.68 1083.72 1058.86C1074.99 1066.94 1070.82 1069.57 1065.34 1070.47C1062.12 1070.99 1061.05 1071.67 1060.6 1073.46C1059.75 1076.85 1053.96 1081.5 1047.67 1083.85C1040.57 1086.51 1023.43 1089.71 1009.5 1090.99C996.7 1092.16 953.07 1092.11 941.68 1090.91ZM1002.5 1083.41C1010.25 1082.71 1015.73 1080.86 1016.59 1078.64C1017.37 1076.6 1021.49 1075.23 1028.5 1074.7C1034.93 1074.2 1039.45 1072.49 1044.93 1068.47C1046.82 1067.08 1052.22 1064.78 1056.93 1063.35C1068.77 1059.76 1073.9 1056.96 1081.75 1049.83C1085.46 1046.46 1090.75 1042.68 1093.5 1041.44C1101.16 1037.99 1107.95 1029.99 1120.39 1009.77C1132.89 989.45 1141.27 971.16 1143.02 960.35C1143.55 957.14 1144.88 953.38 1146 952.01C1150.86 945.97 1152.1 937.09 1152.12 908C1152.13 883.77 1150.97 872.87 1147.92 868.71C1145.36 865.21 1143.3 859.46 1141.41 850.5C1138.31 835.83 1136.15 830.21 1132.55 827.47C1130.07 825.57 1128.87 823.62 1128.01 820.06C1127.13 816.36 1125.11 813.19 1119.45 806.6C1111.62 797.5 1109 793.36 1109 790.13C1109 786.68 1104.37 782.48 1095.81 778.15C1091.01 775.73 1084.43 771.24 1080.23 767.5C1074.76 762.65 1071.59 760.65 1067.46 759.45C1063.21 758.21 1061.63 757.18 1060.44 754.88C1058.68 751.49 1056.48 750.38 1049.71 749.49C1046.43 749.06 1043.85 747.93 1041.56 745.91C1039.71 744.29 1036.91 742.53 1035.35 742C1025.08 738.52 968.23 735.19 946.41 736.79C930.23 737.97 926.36 739.29 905.54 750.68C864.55 773.12 848.23 784.31 846.65 791.06C846.03 793.72 843.39 797.44 835.05 807.38C830.04 813.35 826.35 820.97 823.56 831.12C822.71 834.21 820.2 839.47 817.97 842.8C814.47 848.05 813.8 849.95 812.99 857.06C812.48 861.57 811.37 866.22 810.53 867.38C809.7 868.55 808.14 870.62 807.07 872C801.9 878.68 801.76 933.06 806.89 943C807.89 944.92 809.48 947.98 810.44 949.78C811.4 951.6 812.52 956.86 812.96 961.61C813.54 968.03 814.27 970.84 815.87 972.83C818.94 976.68 822.46 983.67 824.5 990C827.42 999.03 830.64 1004.54 837.43 1012.08C840.97 1016.01 845.48 1022.29 847.45 1026.03C851.47 1033.68 854.36 1036.47 863.04 1041.1C866.34 1042.86 871.87 1046.9 875.34 1050.07C882.32 1056.47 890.29 1060.92 900.3 1064.01C903.94 1065.14 909.04 1067.67 911.62 1069.65C916.3 1073.22 917.14 1073.45 932.76 1075.64C934.56 1075.89 937.37 1077.4 939 1079C940.63 1080.6 943.61 1082.21 945.61 1082.59C956.16 1084.57 984.88 1084.98 1002.5 1083.41ZM393.81 985.73C394.9 984.42 395.47 385.4 394.38 381.75C393.89 380.09 386.55 380 258.43 380L123 380L123 683.5L123 987L257.88 987C365.96 987 392.97 986.75 393.81 985.73ZM307 960.61C300.99 958.93 285.02 952.02 271.5 945.24C254.1 936.52 235.17 928.04 227.01 925.31C217.99 922.3 217.51 921.93 214.42 915.85C211.31 909.7 211.24 903.97 214.25 900.57C217.94 896.42 236.09 887.22 279.5 867.51C289.95 862.77 298.87 858.52 299.31 858.08C299.76 857.64 285.14 857.01 266.81 856.7C222.69 855.94 212.97 854.36 212.2 847.82C211.83 844.7 212.38 844.52 227.5 842.99C239.86 841.73 288.57 840.97 305.75 841.77L317 842.3L317 850.91C317 855.64 316.56 861.06 316.02 862.94C314.58 867.93 309.52 872.67 301 876.98C292.03 881.52 290.44 883.13 289.08 889.01C287.75 894.81 287.7 919.16 289.02 926.08C290.24 932.53 293.7 936.5 301.96 940.9C308.97 944.64 317 952.91 317 956.4C317 957.84 316.06 959.54 314.78 960.44C312.21 962.24 312.8 962.23 307 960.61ZM874.79 922.79C871.68 920.44 871.02 909.87 871.01 862.75L871 817L891.25 817.04C913.04 817.07 927.88 818.07 934.89 819.97C939.21 821.13 939.26 821.19 937.39 823.06C934.52 825.93 926.49 827 907.86 827L891 827L891 841.39C891 860.85 890.44 860.2 908.13 861.15C926.24 862.11 930.69 863.48 927.43 867.08C925.01 869.75 917.39 871 903.55 871L891.19 871L890.54 881.75C889.59 897.53 888.09 910.96 886.82 915.2C884.92 921.56 878.51 925.61 874.79 922.79ZM974 922.77C964.3 921.6 955.23 916.74 952.03 911C948.4 904.48 948.7 896.09 952.85 887.66C956.64 879.96 959.48 878.22 974.26 874.56C987.17 871.36 990.65 869.98 994.26 866.63C997.69 863.46 997.71 861.71 994.37 859.07C988.83 854.72 975.5 857.23 966.82 864.25C964.44 866.17 961.52 868.25 960.32 868.87C954.61 871.83 950.94 868.49 952.85 862.09C956.11 851.21 968.88 842.8 983.09 842.15C997.38 841.5 1008.14 846.68 1012.53 856.32C1015.82 863.53 1017 874.97 1017 899.6C1017 915.31 1016.68 921.02 1015.75 921.78C1014.17 923.08 982.74 923.82 974 922.77ZM1037.09 920.61C1034.3 917.24 1032.86 905.19 1032.31 880.5C1031.75 855.85 1032.58 845 1035.12 843.42C1036.75 842.42 1040.64 843.83 1043.94 846.6C1047.43 849.54 1049.58 849.22 1050.98 845.55C1052.2 842.35 1055.19 841.64 1065.08 842.21C1071.61 842.59 1074.23 843.28 1079.72 846.09C1087.78 850.21 1090.19 854.11 1092.62 867C1094.67 877.88 1094.09 903.83 1091.63 911.61C1088.64 921.02 1083.76 924.62 1080.58 919.75C1078.16 916.05 1077.13 909.34 1075.99 889.94C1074.14 858.38 1073.57 857 1062.39 857C1051.83 857 1051.91 856.82 1049.96 888C1048.56 910.32 1047.45 916.55 1044.22 920.25C1042.39 922.35 1038.69 922.54 1037.09 920.61ZM265 917C268.92 913.08 266.94 902.46 261.49 898.17C257.79 895.26 255.71 895.43 251.65 899C247.08 903.01 242.05 905 236.45 905C228.38 905 232.46 908.48 249 915.7C257.69 919.49 262.14 919.86 265 917ZM984.8 908.59C988.73 906.53 993.56 901.01 994.87 897.1C995.49 895.23 996 891.28 996 888.32C996 881.51 994.19 880.49 989.68 884.75C985.62 888.6 983.55 889.61 978 890.46C970.7 891.57 970.1 891.94 968.9 895.93C967.51 900.58 969.03 906.21 972.3 908.5C975 910.39 981.27 910.44 984.8 908.59ZM254.43 817.06C245.89 816.07 241.68 814.06 240.09 810.23C239.23 808.14 238.99 797.39 239.2 770.93C239.5 734.65 239.51 734.48 241.92 729.77C245.75 722.28 248.82 721.5 274.5 721.51C295.79 721.53 305.11 722.6 311.45 725.78L314.4 727.26L312.19 729.05C309.18 731.48 301.87 732.95 287 734.09C266.1 735.69 259.52 737.26 256.05 741.44C254.36 743.47 255.08 751.28 257.41 756.17C260.34 762.33 263.1 763.03 288.3 763.99C315.58 765.02 319.4 766.1 314.76 771.49C311.23 775.59 301.18 777.91 284 778.58C258.42 779.59 254.38 781.4 255.22 791.5C255.73 797.6 257.63 801.67 261.19 804.31C263.55 806.06 266.26 806.4 283.59 807.13C303.57 807.97 313.59 809.19 315.41 811.01C317.22 812.82 313.76 814.85 307.07 815.92C298.35 817.31 263.18 818.07 254.43 817.06ZM2341.8 728.8C2342.72 727.88 2343 687.64 2343 553.8L2343 380L2047 380L1751 380L1751 555L1751 730L2045.8 730C2273.76 730 2340.87 729.73 2341.8 728.8ZM256 699.87C244.04 698.91 226.88 696.63 219.5 695.02C209.07 692.75 209.63 690.55 221.05 688.95C232.26 687.38 294.69 686.57 305.92 687.86C316.66 689.09 318.24 689.96 315.43 693.12C309.22 700.1 288.28 702.48 256 699.87ZM240.57 671.12C238.51 667.77 236.48 638.64 237.94 633.23C238.98 629.35 239.35 629 242.36 629C247.07 629 252.31 635.67 254.39 644.29C254.76 645.83 255.98 649.54 257.11 652.55C260.19 660.79 261.28 661.14 286.98 662.08C307.45 662.82 315.18 663.86 316.54 666.06C317.67 667.89 310.16 669.98 298.8 670.98C284.81 672.22 241.32 672.32 240.57 671.12ZM1037.45 669.97C1130.26 669.33 1177.75 668.65 1178.42 667.98C1179.81 666.59 1181.2 632.63 1180.78 610.5C1180.32 586.54 1178.45 582.65 1170.18 588.37C1164.94 592 1154.18 594.29 1144.81 593.77C1130.33 592.96 1121.09 586.37 1115.78 573.05C1113.88 568.3 1113.56 565.55 1113.53 554C1113.5 541.26 1113.66 540.16 1116.31 534.5C1122.16 521.98 1132.15 516.04 1147.42 516.01C1158.25 515.99 1165.86 517.88 1169.99 521.61C1173.58 524.86 1173.77 524.91 1175.39 523.12C1180.18 517.82 1181.33 501.27 1181.42 436L1181.5 380.5L997.25 380.25L813 379.99L813 525.33C813 605.27 813.25 670.92 813.56 671.22C813.86 671.53 832.88 671.59 855.81 671.36C878.74 671.13 960.48 670.51 1037.45 669.97ZM285.42 620.03C277.92 617 268 594.52 268 580.56C268 574.15 265.89 570.76 262.15 571.19C258.21 571.65 255.72 577.52 255.19 587.6C254.72 596.5 255.83 601.33 259.65 606.98C260.94 608.9 262 611.62 262 613.03C262 622.78 247.46 617.33 241.35 605.29C235.15 593.08 234.83 579.18 240.51 567.98C244.29 560.52 244.14 560.55 281.64 560.2L314.79 559.88L315.53 573.67C316.43 590.46 315.7 604.39 313.67 609.25C310.35 617.18 293.9 623.46 285.42 620.03ZM296.98 607.01C302.21 604.21 303.48 588.78 299.18 580.35C295.64 573.42 287.51 568.09 284.72 570.88C283.04 572.56 282.61 583.96 283.94 591.6C285.24 599.05 286.93 602.92 290.2 605.97C292.62 608.23 294.24 608.48 296.98 607.01ZM960.42 592.96C930.89 590.97 922.08 584.63 925.11 567.54C927.32 555.07 930.49 552.22 949.1 545.95C970.24 538.82 978.24 530.55 967.43 526.98C960.39 524.66 949.23 528.14 940.17 535.49C933.03 541.28 928 541.49 928 535.99C928 529.5 933.56 522.02 940.91 518.63C944.85 516.8 947.34 516.5 958.5 516.51C966.74 516.51 972.88 517 975.28 517.84C982.52 520.39 987.09 525.88 989.97 535.5C991.64 541.04 993.25 590.99 991.83 592.71C990.63 594.15 979.37 594.24 960.42 592.96ZM1083.57 591.75C1080.44 586.96 1079.77 575.61 1080.27 535.54C1080.79 493.54 1081.22 489.77 1085.68 487.74C1087.9 486.72 1088.47 486.86 1090.03 488.78C1093.56 493.15 1094.42 503.61 1094.37 542C1094.34 567.3 1093.94 580.29 1093.07 584.34C1091.2 593.07 1086.73 596.56 1083.57 591.75ZM858.59 591.09C855.22 587.37 854 580.01 852.98 557.07C851.57 525.49 850.21 509.21 848.75 506.23C847.21 503.09 846.04 502.51 838.6 501.13C831.13 499.75 828.8 497.76 829.2 493.09C829.47 489.98 829.91 489.48 833 488.75C839.43 487.23 886.84 486.62 894.69 487.95C904 489.52 905.57 491.21 901.27 495.05C897.36 498.54 893.23 499.78 880.75 501.21L871 502.33L871 539.98C871 578.21 870.3 587.86 867.26 591.25C865.19 593.56 860.74 593.48 858.59 591.09ZM1011.5 592.07L1004.5 591.5L1003.73 570C1003.31 558.17 1003.09 535.9 1003.23 520.5C1003.53 489.33 1003.78 488 1009.31 488C1015.52 488 1019.1 492.76 1021.12 503.7C1021.71 506.88 1022.64 510.32 1023.18 511.33C1024.75 514.27 1030.35 516 1038.29 516C1042.33 516 1047.7 516.7 1050.21 517.55C1063.45 522.07 1070.94 537.61 1069.71 558C1068.96 570.24 1066.03 578.64 1060.27 585.05C1053.55 592.51 1051.79 593.03 1033.78 592.82C1025.38 592.73 1015.35 592.39 1011.5 592.07ZM1040.95 580.42C1047.06 574.91 1049.3 567.99 1049.36 554.5C1049.44 534.16 1046.61 528.04 1036.76 527.23C1030.02 526.68 1026.86 528.99 1022.91 537.36C1018.62 546.42 1017.39 553.08 1018.78 559.69C1021.01 570.3 1027.2 580.83 1032.5 583.04C1035.86 584.44 1036.85 584.13 1040.95 580.42ZM960.8 581.59C964.65 579.58 968.64 575.1 970.45 570.78C973.17 564.27 972.03 552 968.7 552C967.96 552 966.26 553.18 964.92 554.63C961.98 557.82 957.14 560 952.98 560C948.74 560 944.1 562.59 942.96 565.61C940.62 571.77 942.58 576.98 948.61 580.64C953.05 583.32 956.9 583.62 960.8 581.59ZM1152.5 580.57C1157.96 577.93 1161.9 574.59 1170.12 565.63L1175.5 559.75L1157.5 560.23C1147.6 560.5 1138.26 561.22 1136.75 561.83C1134.31 562.82 1134 563.47 1134 567.52C1134 575.59 1139.42 582.86 1145.5 582.95C1146.6 582.97 1149.75 581.89 1152.5 580.57ZM2199.31 558.75C2198.86 558.06 2198.04 556.6 2197.47 555.5C2195.97 552.56 2188.54 551.06 2172.5 550.46C2136.68 549.1 2129.81 545.46 2117.72 521.44C2112.12 510.31 2110.72 504.23 2111.17 492.98C2111.53 483.92 2111.86 482.62 2115.75 474.78C2121.08 464.03 2132.56 452.52 2142.84 447.66C2149.12 444.68 2150.16 444.5 2161.05 444.5C2172.39 444.5 2172.75 444.57 2180.2 448.25C2185.66 450.95 2189.37 453.71 2193.42 458.09C2204.86 470.44 2208.79 483.93 2206.88 504.24C2205.87 515.07 2204.52 520.62 2201.12 528C2198.35 534.01 2198.45 536.59 2201.55 538.63C2205.15 540.98 2207 545.11 2207 550.78C2207 554.58 2206.49 556.13 2204.69 557.83C2202.06 560.29 2200.48 560.56 2199.31 558.75ZM1156.87 548.89C1160.92 547.48 1162.26 544.94 1161.42 540.24C1159.58 529.87 1149.55 524.06 1140.56 528.15C1136.38 530.06 1132.43 542.97 1134.85 546.79C1136.72 549.74 1150.63 551.07 1156.87 548.89ZM1828.02 517.25C1828.04 482.39 1829.31 451.95 1830.91 447.73C1831.75 445.54 1832.75 445.04 1837.7 444.33C1840.89 443.87 1850.7 443.51 1859.5 443.51C1878.62 443.53 1884.8 444.96 1890.84 450.77C1896.47 456.19 1898.62 462.97 1899.98 479.57C1900.6 487.23 1902.03 499.57 1903.15 507C1904.28 514.47 1904.93 522.4 1904.61 524.75C1902.94 537.09 1893.19 545.18 1876.06 548.43C1870.27 549.53 1861.79 550 1847.89 550L1828 550L1828.02 517.25ZM1938.5 549.12C1923.09 545.03 1916 532.93 1916 510.7C1916 500.18 1919 488.62 1923.49 481.84C1930.27 471.59 1952.93 468.9 1968.06 476.54C1978.09 481.6 1984.51 493.14 1983.79 504.77C1983.16 514.97 1982.82 515.13 1960.55 516.1C1939.98 517 1936.69 517.84 1936.18 522.29C1935.67 526.72 1938.81 534.73 1941.93 536.95C1948.56 541.67 1957.18 539.95 1961.77 533C1964.69 528.58 1970.05 526.06 1976.63 526.03C1983.57 525.99 1984.92 527.63 1982.46 533.08C1980.25 538 1975.35 542 1966.49 546.15C1960.79 548.82 1958.4 549.34 1950.64 549.61C1945.61 549.78 1940.15 549.56 1938.5 549.12ZM2011.7 546.59C2006.63 545.21 2002.19 541.67 1999.91 537.2C1999.15 535.71 1995.69 529.22 1992.22 522.76L1985.9 511.02L1991.01 501.07C1998.27 486.94 2003.22 479.65 2007.23 477.17C2009.28 475.9 2013.95 474.56 2018.6 473.91C2039.73 470.94 2040.74 470.28 2042.03 458.79C2043.56 445.17 2044.76 443.78 2053.11 446.03C2060.51 448.02 2060.53 448.18 2060.29 497C2060.18 520.38 2059.71 541.3 2059.25 543.5L2058.41 547.5L2037.46 547.69C2022.84 547.83 2015.05 547.49 2011.7 546.59ZM225.73 543.95C218.03 543.05 212.65 540.39 212.19 537.26C211.66 533.63 215.81 531.92 227.62 530.9C242.45 529.61 243.02 528.94 237.88 518.76C232.33 507.77 233.83 501.15 244.85 488.1C251.65 480.04 257.05 477.91 272.33 477.26C284.47 476.75 301.15 478.03 308.25 480.04C310.31 480.62 313.22 482.15 314.72 483.43C317.04 485.43 317.24 486 316.11 487.37C313.79 490.16 308 491.1 287.5 492C276.5 492.48 265.86 493.36 263.87 493.95C255.09 496.55 252.87 501.38 254.97 513.38C257.72 529.14 258.69 529.66 287.5 530.88C310.1 531.84 316.5 533.07 316.5 536.45C316.5 539.54 308.75 542.89 298.98 544.01C289.09 545.15 235.64 545.1 225.73 543.95ZM1873.75 537.44C1882.7 532.98 1887.59 522.61 1885.1 513.36C1883.11 505.97 1878.56 503.69 1863.5 502.52C1859.1 502.18 1853.81 501.66 1851.75 501.36L1848 500.82L1848 516.35C1848 538.53 1848.81 540 1860.99 540C1867.16 540 1869.58 539.51 1873.75 537.44ZM2163.94 538.06C2165.01 536.99 2166.18 534.4 2166.53 532.31C2166.89 530.21 2167.38 527.75 2167.63 526.83C2168.11 525.05 2172.87 523 2176.51 523C2183.48 523 2186.43 514.99 2186.47 496C2186.51 479.58 2184.25 472.4 2176.61 464.57C2172.43 460.28 2170.46 459.05 2166.43 458.19C2157.71 456.32 2150.08 459.08 2142.91 466.69C2134 476.13 2130.73 484.41 2130.71 497.5C2130.7 505.19 2131.15 507.63 2133.76 514.29C2140.74 532.08 2157.06 544.94 2163.94 538.06ZM2028.8 537.6C2035.92 533.89 2040.06 525.4 2040.76 513.05C2041.37 502.27 2039.77 494.36 2035.88 489C2030.39 481.41 2022.33 480.48 2015.06 486.6C2006.23 494.03 2006.99 524.94 2016.22 533.64C2022.08 539.17 2024.38 539.89 2028.8 537.6ZM1961.6 502.85C1964.15 500.3 1964.2 500.02 1963.05 495.22C1961.24 487.65 1955.35 483 1947.57 483C1943.05 483 1939.5 486.1 1937.59 491.68C1933.67 503.2 1936.36 506.2 1950.23 505.77C1958.15 505.52 1959.2 505.26 1961.6 502.85ZM1868.93 484.92C1876.14 483.38 1879 479.72 1879 472.06C1879 462.07 1874.51 459.19 1858.17 458.72C1848.54 458.43 1848 459.13 1848 471.97C1848 484.76 1848.84 486 1857.51 486C1861.02 486 1866.16 485.51 1868.93 484.92ZM1049.78 363.75C1050.46 362.92 1050.78 341.86 1050.74 301.7C1050.68 245.33 1050.55 240.83 1048.96 239.98C1047.94 239.43 960.1 239.04 830.7 239.02C624.65 238.98 614.12 239.06 613.67 240.74C613.05 243.01 613.04 363.26 613.65 364.25C613.91 364.66 711.91 365 831.44 365C1004.08 365 1048.97 364.74 1049.78 363.75ZM693.76 185.25C686.57 177.92 683.83 170.61 673.89 132.18C667.12 106.01 664.1 109.26 648.97 159C645.02 171.96 640.13 181.88 635.92 185.41C633.38 187.55 631.88 188.04 628.61 187.8C624.81 187.52 624.3 187.13 621.82 182.5C612.24 164.6 592.73 96.74 594.47 87.36C594.96 84.73 595.62 84.11 598.51 83.56C603.95 82.54 609.54 84.52 611.83 88.27C612.92 90.05 615 97.12 616.45 104C620.9 124.94 625.89 140.68 628.97 143.47C630.69 145.03 630.94 144.94 633.33 141.81C636.46 137.71 640.79 126.61 646.09 109.07C650.59 94.18 654.01 86.6 656.93 85.04C659.48 83.68 664.86 83.72 669.1 85.14C673.64 86.65 677.69 90.52 680.47 96C683.45 101.86 688.51 117.76 690.01 126C692.25 138.26 693.2 140.9 696.67 144.47C698.55 146.41 700.77 148 701.6 148C703.73 148 705.74 142.55 707.4 132.32C709.89 116.9 715.04 97.66 718.34 91.44C721.04 86.37 722.04 85.37 725.18 84.59C728.06 83.88 729.42 84.04 731.39 85.33C737.13 89.1 735.64 100.11 724.99 132.5C721.19 144.05 717.56 156.43 716.91 160C715.04 170.35 713.11 175.6 708.82 182.03C702.45 191.58 700.4 192.01 693.76 185.25ZM951 189.12C945.06 187.16 938.1 182.85 934.57 178.95C924.79 168.12 921.49 150.15 926.02 132.41C929.57 118.51 937.38 110.26 949.27 107.87C956.69 106.38 962.51 107.39 970.95 111.61C979.04 115.66 983.99 120.82 988.08 129.5C997.79 150.06 989.88 177.43 971.54 186.74C966.16 189.47 955.72 190.68 951 189.12ZM821.97 187.17C818.74 184.56 817.95 179.23 817.08 154C816.09 125.46 815.12 122.19 806.99 120C801.21 118.44 797.72 120.15 795.18 125.8C792.18 132.47 791.31 136.59 789.46 153C787.02 174.74 784 187 781.1 187C780.01 187 778.33 182.8 777.06 176.91C775.92 171.66 774.31 147.49 773.63 125.38L773.16 110.27L779.23 109.63C788.83 108.63 814.12 108.91 818.28 110.06C823.48 111.5 828.45 116.15 831.39 122.32C838.44 137.09 838.94 175.81 832.19 184.75C829.68 188.07 824.57 189.28 821.97 187.17ZM870.04 187.83C859.87 184.91 849.27 172.72 845.47 159.56C842.94 150.83 843.78 136.34 847.25 128.77C853.18 115.81 862.86 109.34 878.31 108.02C892.17 106.83 894.99 104.63 895.01 95.03C895.03 87.67 896.66 84.59 900.73 84.19C911.02 83.19 912.4 89.55 914.09 145.83C915 176.07 914.96 182.46 913.84 183.52C912.48 184.82 883.39 189.08 877 188.91C875.08 188.86 871.94 188.37 870.04 187.83ZM1021.85 187.97C1017.38 185.36 1010.06 166.32 1002.65 138C996.08 112.9 995.65 107 1000.37 107C1006.24 107 1014.53 116.07 1017.9 126.2C1019.06 129.66 1020.91 133.98 1022.01 135.78C1023.72 138.59 1024.3 138.91 1025.99 138C1028.64 136.59 1030.33 133.09 1032.99 123.5C1034.22 119.1 1035.93 114.28 1036.81 112.78C1039 109.03 1043.26 107.66 1047.38 109.39C1054.82 112.49 1059.46 122.32 1060.56 137.25C1061.43 149.09 1062.16 150.49 1065.5 146.72C1067.89 144.01 1070.49 136.46 1073.04 124.85C1073.72 121.74 1075.45 117.01 1076.89 114.35C1079.23 110 1079.9 109.47 1083.32 109.19C1089.25 108.7 1090.35 110.24 1089.57 117.97C1088.09 132.74 1077.32 171.21 1071.89 181.13C1066.77 190.49 1057.45 190.85 1053.25 181.86C1052.11 179.43 1050.93 174.19 1050.58 170.03C1049.9 161.97 1048.07 158 1045.05 158C1042.63 158 1039.29 162.22 1038.01 166.89C1037.46 168.87 1036.3 173.12 1035.42 176.32C1032.78 185.91 1026.93 190.94 1021.85 187.97ZM743.62 185.75C740.65 181.05 739.88 172.59 739.94 145C739.99 120.17 740.63 111.03 742.44 109.22C742.78 108.88 744.72 108.65 746.75 108.71C751.54 108.85 754.44 112.15 755.95 119.2C757.76 127.65 759.09 159.53 758.07 170.27C757.08 180.72 756.32 182.82 752.37 185.92C748.91 188.65 745.41 188.58 743.62 185.75ZM887.13 173.43C892.26 170.78 894.98 163.37 894.99 151.96C895.01 133.54 888.24 118 880.2 118C876.36 118 866.43 128.22 864.02 134.67C856.16 155.69 871.54 181.49 887.13 173.43ZM966.17 171.14C970.05 166.8 972 159.22 971.99 148.57C971.97 130.96 965.97 118 957.86 118C955.85 118 953.97 119.35 950.55 123.25C942.74 132.16 941.5 135.69 941.5 149C941.5 159.78 941.67 160.8 944.28 165.24C948.29 172.05 953.29 175.26 958.97 174.66C962.35 174.31 964.1 173.45 966.17 171.14ZM741.61 91.7C740.42 90.84 739.94 89.41 740.16 87.45C740.44 85 741.11 84.35 744.08 83.61C751.2 81.86 757.06 87.74 751.83 91.4C749.08 93.33 744.04 93.48 741.61 91.7Z" fill="#1e2749" fill-rule="evenodd"/>
</svg>
