<?xml version="1.0" encoding="UTF-8"?>
<svg xmlns="http://www.w3.org/2000/svg" viewBox="0 0 697 374" width="697" height="374" shape-rendering="geometricPrecision">
<path d="M268.82 322.98C268.48 322.43 268.96 321 269.48 321C269.74 321 270.26 320.59 270.64 320.08C271.01 319.58 271.49 319.02 271.69 318.83C272.16 318.4 278.52 312.04 278.89 311.63C279.04 311.46 279.58 311.01 280.08 310.64C280.59 310.26 281 309.74 281 309.48C281 309.21 281.16 309 281.35 309C281.79 309 286 304.82 286 304.39C286 304.22 286.3 304 286.66 303.9C287.03 303.81 287.59 303.27 287.91 302.71C288.23 302.16 288.83 301.61 289.24 301.51C289.65 301.41 290.2 300.91 290.46 300.41C290.72 299.91 291.4 299.16 291.97 298.74C292.54 298.32 293 297.76 293 297.49C293 297.22 293.15 297 293.34 297C293.73 297 297.67 293.22 297.67 292.84C297.67 292.69 297.93 292.37 298.25 292.13C298.74 291.75 298.19 291.69 294.58 291.68C291.97 291.67 290.33 291.79 290.33 292C290.33 292.18 290.48 292.33 290.67 292.33C290.85 292.33 291 292.58 291 292.88C291 293.33 289.4 295.04 286.58 297.6C286.44 297.73 286.01 298.25 285.64 298.75C285.26 299.25 284.78 299.67 284.56 299.67C284.34 299.67 283.9 300.13 283.58 300.7C283.26 301.27 282.73 301.8 282.41 301.88C282.09 301.97 281.57 302.48 281.26 303.02C280.95 303.56 280.33 304.17 279.88 304.37C279.43 304.58 278.98 305.03 278.89 305.37C278.8 305.71 278.27 306.26 277.7 306.58C277.13 306.9 276.67 307.34 276.67 307.56C276.67 307.78 276.25 308.26 275.75 308.64C275.25 309.01 274.71 309.46 274.55 309.63C272.75 311.64 269.96 314.33 269.69 314.33C269.49 314.33 269.33 314.53 269.33 314.78C269.33 315.35 267.85 316.74 267.56 316.45C267.06 315.94 267.34 313.76 267.99 313.17C268.35 312.85 268.73 312.32 268.83 312.01C268.93 311.69 269.39 311.26 269.84 311.06C270.3 310.85 270.83 310.34 271.02 309.92C271.21 309.5 271.82 308.9 272.38 308.58C272.94 308.26 273.47 307.73 273.55 307.41C273.63 307.09 274.14 306.57 274.69 306.26C275.23 305.95 275.84 305.33 276.04 304.88C276.25 304.43 276.7 303.98 277.04 303.89C277.38 303.8 277.92 303.27 278.25 302.7C278.57 302.13 278.99 301.67 279.19 301.67C279.66 301.67 281 300.23 281 299.73C281 299.51 281.15 299.33 281.34 299.33C281.73 299.33 288 293.2 288 292.82C288 292.69 288.26 292.37 288.58 292.13C289.08 291.75 288.52 291.69 284.92 291.68C282.3 291.67 280.67 291.79 280.67 292C280.67 292.18 280.83 292.33 281.02 292.33C281.76 292.33 281.12 293.85 280.11 294.49C279.53 294.86 278.98 295.43 278.89 295.75C278.8 296.07 278.27 296.59 277.7 296.91C277.13 297.24 276.67 297.66 276.67 297.86C276.67 298.29 275.25 299.67 274.81 299.67C274.64 299.67 274.24 300.13 273.91 300.7C273.59 301.27 273.05 301.8 272.7 301.89C272.36 301.98 271.91 302.43 271.71 302.88C271.5 303.33 270.92 303.94 270.42 304.23C269.91 304.52 269.2 305.21 268.83 305.77C267.93 307.14 267.52 307.08 267.4 305.57C267.32 304.61 267.49 304.07 268.15 303.3C268.62 302.74 269 302.14 269 301.97C269 301.81 269.16 301.67 269.36 301.67C269.84 301.67 273.67 297.83 273.67 297.35C273.67 297.15 273.93 296.88 274.25 296.77C275 296.49 278.04 293.44 278.56 292.44L278.96 291.67L274.98 291.67C272.55 291.67 271 291.8 271 292C271 292.18 271.16 292.33 271.36 292.33C272.09 292.33 271.46 293.85 270.46 294.49C269.89 294.86 269.19 295.58 268.89 296.08C268.6 296.59 268.13 297 267.85 297C267.16 297 267.14 294.58 267.83 294.01C268.1 293.78 268.54 293.16 268.8 292.63L269.28 291.67L266.97 291.67C264.83 291.67 264.62 291.6 264.28 290.84C263.99 290.21 264 289.9 264.33 289.51C264.7 289.06 267.11 289 283.82 289C301.8 289 302.93 288.97 303.44 288.4C303.94 287.85 303.99 284.79 304.01 253.58C304.02 223.27 304.08 219.3 304.54 218.85C304.99 218.39 308.85 218.33 338.37 218.33C366.94 218.33 371.83 218.4 372.64 218.82C373.16 219.09 373.68 219.21 373.79 219.1C373.91 218.98 374 202.59 374 182.68C374 154.96 373.91 146.37 373.6 146.07C373.3 145.76 368.36 145.67 353.43 145.67L333.67 145.67L333.61 169.75C333.57 183 333.57 194.19 333.59 194.63C333.62 195.07 333.97 195.78 334.38 196.22L335.13 197.02L334.39 197.76L333.65 198.5L300.49 198.59C271.5 198.67 267.18 198.61 266.13 198.17C265.15 197.76 263.24 197.67 256.29 197.67C248.25 197.67 247.67 197.71 247.67 198.26C247.67 199.89 251.6 206.3 253.39 207.6C254.5 208.4 254.79 209.32 254.14 210.03C253.32 210.93 252.63 210.83 251.3 209.58C248.71 207.18 245.98 202.74 244.86 199.09C243.64 195.14 243.64 189.22 244.86 185C245.47 182.89 247.36 179 248.57 177.4C249.25 176.5 249.59 176.31 250.45 176.4C251.26 176.48 251.53 176.68 251.61 177.28C251.67 177.71 251.51 178.31 251.25 178.61C250.24 179.81 248.63 182.78 248.01 184.6C246.83 188.1 246.25 193.49 246.94 194.58C247.14 194.9 254.91 195.03 282.18 195.15C301.42 195.24 319.92 195.4 323.29 195.5C328.76 195.68 329.48 195.64 330.04 195.13C330.64 194.59 330.67 193.62 330.67 170.52C330.67 152.26 330.57 146.37 330.27 146.07C329.97 145.77 327 145.67 318.96 145.67C309.65 145.67 307.97 145.59 307.54 145.16C307.1 144.72 303.37 144.65 277.35 144.58C249.01 144.5 247.67 144.53 247.67 145.1C247.67 146.84 251.07 152.39 253.63 154.81C254.85 155.96 254.88 156.12 254.02 156.98C253.04 157.96 252.16 157.5 249.87 154.81C243.14 146.93 241.99 136.29 246.86 127C248.69 123.5 250.17 122.3 251.27 123.4C251.88 124.02 251.75 124.76 250.79 126.02C247.99 129.71 245.92 137.67 246.85 141.17C247.03 141.83 247.28 141.83 281.6 141.75C315.78 141.66 316.17 141.66 317.07 142.33C317.89 142.94 318.48 143 323.77 143C328.95 143 329.62 142.94 330.11 142.39C330.61 141.84 330.67 138.3 330.78 100.98C330.85 78.53 330.97 59.57 331.04 58.83L331.17 57.5L363.71 57.42C391.64 57.34 396.31 57.26 396.65 56.85C396.94 56.51 397.04 54.56 397.01 50.21C396.97 42.85 397.06 42.33 398.36 42.33C398.97 42.33 399.44 42.57 399.67 43C399.91 43.45 400.02 48.56 400.03 58.37C400.03 71.15 399.96 73.18 399.51 73.87C398.8 74.95 397.74 74.9 397.31 73.78C397.12 73.28 396.99 70.27 397.02 66.96C397.04 63.7 396.96 60.87 396.84 60.68C396.7 60.44 386.54 60.33 364.94 60.33L333.25 60.33L333.46 61.37C333.57 61.95 333.67 80.55 333.67 102.71L333.67 143L353.28 143C371.78 143 372.93 142.97 373.44 142.4C373.91 141.88 374 140.66 374.08 133.98L374.17 126.17L375.07 126.06C376.05 125.95 377.26 126.62 385.17 131.68C387.73 133.32 391.18 135.52 392.83 136.56C394.48 137.61 397.03 139.23 398.5 140.16C402.26 142.57 405.89 144.87 410.33 147.67C412.44 149 414.92 150.57 415.83 151.17C416.75 151.77 419.22 153.35 421.33 154.67C423.44 156 425.92 157.57 426.83 158.17C427.75 158.77 430.22 160.35 432.33 161.67C434.44 163 436.92 164.57 437.83 165.17C438.75 165.77 441.22 167.35 443.33 168.68C445.44 170 447.92 171.57 448.83 172.16C449.75 172.75 452.22 174.32 454.33 175.65C456.44 176.99 458.69 178.42 459.33 178.85C459.97 179.27 461.84 180.45 463.48 181.47L466.46 183.33L506.55 183.33C530.37 183.33 546.7 183.21 546.82 183.03C546.95 182.81 547.08 96.82 547 60.75C547 60.42 540.17 60.33 513.97 60.33C481.44 60.33 480.93 60.34 480.09 61C479.26 61.66 478.74 61.67 444.93 61.67L410.62 61.67L410.84 62.42C411.67 65.22 413.56 68.36 416.15 71.25C417.01 72.21 417.67 73.24 417.61 73.54C417.43 74.46 416.5 74.85 415.55 74.42C414.21 73.8 411.05 69.73 409.67 66.83C407.7 62.7 407.26 60.77 407.25 56.17C407.24 52.67 407.36 51.76 408.15 49.33C409.16 46.19 410.65 43.24 412.11 41.48C412.9 40.51 413.27 40.32 414.12 40.4C415.47 40.53 415.66 41.55 414.58 42.87C413.31 44.41 411.72 47.42 411.03 49.58C410.33 51.76 409.79 57.14 410.15 58.28C410.49 59.36 412.46 59.29 413.2 58.17L413.74 57.33L481.33 57.33C543.79 57.33 548.95 57.38 549.38 57.88C549.76 58.35 549.86 68.61 550 120.8L550.17 183.17L577.8 183.25C597.93 183.31 605.55 183.24 605.88 182.96C606.13 182.75 606.33 182.37 606.33 182.1C606.33 181.38 607.94 179.42 609.12 178.71C612.4 176.75 616.99 178.17 618.86 181.73C619.63 183.2 619.47 186.13 618.54 187.59C616.39 190.95 613.44 192.04 610.01 190.73C608.66 190.21 607.41 188.96 606.17 186.87C605.86 186.36 603.71 186.31 578.33 186.32C563.21 186.32 550.65 186.33 550.42 186.33C550.11 186.33 550 187.38 550 190.44C550 194.4 549.97 194.58 549.16 195.34C548.36 196.09 548.29 196.1 547.74 195.55C547.27 195.08 547.15 194.25 547.1 190.77C547.02 186.51 546.8 185.77 545.72 186.17C545.48 186.26 527.1 186.33 504.88 186.33L464.49 186.33L456.16 191.67C451.58 194.6 446.93 197.58 445.83 198.28C444.73 198.99 438.96 202.68 433 206.48C427.04 210.29 421.42 213.89 420.5 214.49C419.58 215.09 413.96 218.69 408 222.49C402.04 226.29 396.42 229.89 395.5 230.49C389.95 234.12 375.84 243.08 375.41 243.25C374.12 243.74 374 242.67 374 231.1C374 225 373.87 220 373.72 220C373.56 220 373.17 220.3 372.83 220.67C372.24 221.32 371.81 221.33 339.45 221.33L306.67 221.33L306.67 254.79C306.67 282.39 306.75 288.32 307.11 288.62C307.43 288.89 313.66 289.02 328.33 289.08C347.41 289.16 349.12 289.21 349.45 289.73C349.72 290.16 349.66 290.45 349.18 290.98C348.61 291.61 348.19 291.67 343.62 291.67C340.89 291.67 338.67 291.76 338.67 291.88C338.67 292 338.93 292.3 339.25 292.55C339.79 292.97 339.73 293.1 338.47 294.25C337.71 294.94 337 295.77 336.89 296.09C336.78 296.42 336.42 296.78 336.09 296.9C335.77 297.03 334.72 297.96 333.77 298.98C332.82 300 331.83 301.04 331.56 301.29C331.3 301.54 330.78 302.05 330.42 302.42C330.05 302.78 329.52 303.31 329.25 303.58C328.6 304.22 327.22 305.6 326.58 306.25C326.31 306.52 325.78 307.05 325.42 307.42C325.05 307.78 324.54 308.3 324.29 308.56C324.04 308.83 323 309.82 321.98 310.77C320.96 311.72 320.03 312.77 319.9 313.09C319.78 313.42 319.42 313.78 319.09 313.91C318.4 314.17 315.49 317.09 314.99 318.02C314.8 318.37 314.29 318.75 313.85 318.86C313.39 318.98 312.98 319.39 312.86 319.85C312.75 320.29 312.32 320.82 311.91 321.03C311.5 321.24 310.82 321.85 310.39 322.37C309.56 323.41 308.33 323.63 307.7 322.88C307.17 322.24 307.58 321.4 308.68 320.82C309.2 320.56 309.71 320.05 309.82 319.69C309.94 319.34 310.55 318.74 311.18 318.37C311.81 317.99 312.33 317.45 312.33 317.17C312.33 316.88 312.86 316.33 313.5 315.96C314.14 315.58 314.67 315.05 314.67 314.79C314.67 314.53 315.19 314.01 315.82 313.63C316.45 313.26 317.07 312.65 317.18 312.29C317.3 311.92 317.75 311.46 318.19 311.26C318.64 311.06 319.29 310.39 319.65 309.78C320.02 309.17 320.54 308.67 320.81 308.67C321.09 308.67 321.55 308.21 321.84 307.65C322.13 307.09 322.74 306.47 323.21 306.25C323.67 306.04 324.26 305.46 324.52 304.96C324.78 304.46 325.3 303.95 325.67 303.83C326.04 303.72 326.56 303.19 326.83 302.67C327.1 302.14 327.63 301.62 328 301.5C328.37 301.38 328.9 300.85 329.18 300.32C329.45 299.78 330.11 299.12 330.63 298.85C331.15 298.58 331.66 298.06 331.76 297.68C331.86 297.31 332.33 296.86 332.81 296.68C333.29 296.49 333.82 295.97 334 295.5C334.18 295.04 334.7 294.49 335.16 294.28C335.62 294.07 336.29 293.39 336.65 292.78L337.31 291.67L333.32 291.67C329.46 291.67 328.93 291.8 329.7 292.56C330.18 293.04 329.57 294.21 328.7 294.49C328.35 294.6 327.67 295.2 327.2 295.82C326.72 296.45 326.05 297.05 325.7 297.16C325.35 297.27 324.97 297.73 324.86 298.19C324.74 298.65 324.27 299.2 323.8 299.41C323.33 299.62 322.73 300.22 322.47 300.73C322.2 301.25 321.84 301.67 321.66 301.67C321.48 301.67 320.43 302.6 319.33 303.75C318.23 304.9 317.1 306.06 316.82 306.33C316.54 306.61 315.76 307.4 315.1 308.08C314.43 308.77 313.71 309.33 313.48 309.33C313.26 309.33 312.98 309.7 312.87 310.16C312.75 310.61 312.32 311.16 311.91 311.38C310.99 311.87 307.67 315.24 307.67 315.69C307.67 315.87 307.28 316.19 306.81 316.41C306.34 316.62 305.73 317.22 305.47 317.73C305.2 318.24 304.62 318.75 304.16 318.86C303.71 318.98 303.33 319.21 303.33 319.38C303.33 319.54 302.53 320.51 301.54 321.53C300.06 323.06 299.58 323.37 298.79 323.28C297.3 323.11 297.3 321.86 298.8 320.98C299.44 320.6 300.06 320.01 300.17 319.67C300.27 319.33 300.88 318.74 301.51 318.37C302.15 317.99 302.67 317.52 302.67 317.32C302.67 316.87 306.23 313.33 306.67 313.33C306.84 313.33 307.21 312.89 307.49 312.36C307.77 311.82 308.3 311.28 308.67 311.17C309.04 311.05 309.57 310.51 309.85 309.96C310.13 309.42 310.74 308.83 311.19 308.66C311.64 308.49 312.15 307.97 312.32 307.52C312.5 307.07 313.09 306.46 313.65 306.17C314.21 305.89 314.67 305.42 314.67 305.15C314.67 304.87 315.19 304.34 315.82 303.96C316.45 303.59 317.06 302.99 317.18 302.64C317.29 302.28 317.82 301.77 318.36 301.49C318.89 301.21 319.33 300.84 319.33 300.66C319.33 300.48 320.23 299.43 321.33 298.33C322.43 297.23 323.48 296.33 323.66 296.33C323.84 296.33 324.2 295.91 324.47 295.4C324.73 294.88 325.34 294.29 325.81 294.07C326.28 293.86 326.67 293.5 326.67 293.28C326.67 293.06 326.91 292.61 327.22 292.28C327.75 291.69 327.62 291.67 323.71 291.67L319.65 291.67L319.86 292.5C320.07 293.31 318.79 294.78 312.25 301.26C311.93 301.57 310.77 302.73 309.67 303.83C308.57 304.93 307.44 306.06 307.15 306.33C306.87 306.61 306.1 307.4 305.43 308.08C304.77 308.77 304.03 309.33 303.8 309.33C303.57 309.33 303.28 309.63 303.17 310C303.05 310.37 302.44 311.06 301.81 311.54C301.18 312.02 300.67 312.62 300.67 312.86C300.67 313.11 300.25 313.53 299.75 313.8C299.25 314.07 298.41 314.82 297.9 315.48C297.39 316.13 296.77 316.67 296.52 316.67C296.27 316.67 295.97 317.06 295.85 317.53C295.72 318.08 295.27 318.54 294.65 318.77C294.11 318.98 293.66 319.3 293.66 319.49C293.66 319.68 292.84 320.63 291.84 321.61C290.39 323.03 289.84 323.36 289.1 323.27C287.63 323.11 287.65 321.85 289.13 320.98C289.78 320.6 290.4 319.99 290.51 319.64C290.62 319.28 291.12 318.78 291.63 318.52C292.13 318.26 292.71 317.67 292.92 317.21C293.13 316.74 293.76 316.13 294.32 315.84C294.88 315.55 295.33 315.09 295.33 314.81C295.33 314.54 295.86 314 296.5 313.62C297.14 313.24 297.67 312.8 297.67 312.63C297.67 312.2 301.06 308.84 301.77 308.57C302.09 308.45 302.45 308.08 302.58 307.76C302.86 307.02 305.64 304.22 306.6 303.7C307 303.49 307.42 302.96 307.52 302.52C307.64 302.05 308.05 301.64 308.52 301.52C308.96 301.42 309.49 301 309.7 300.6C310.22 299.64 313.02 296.86 313.76 296.58C314.08 296.45 314.47 296.01 314.64 295.59C314.8 295.17 315.39 294.49 315.96 294.07C316.53 293.66 317 293.15 317 292.94C317 292.74 317.26 292.37 317.58 292.13C318.08 291.75 317.52 291.69 313.92 291.68C311.3 291.67 309.67 291.79 309.67 292C309.67 292.18 309.82 292.33 310 292.33C310.93 292.33 310.03 293.68 307.2 296.52C305.48 298.25 303.95 299.67 303.79 299.67C303.63 299.67 303.24 300.13 302.91 300.7C302.59 301.27 302.03 301.81 301.66 301.9C301.3 302 301 302.21 301 302.37C301 302.82 296.84 307 296.4 307C296.18 307 296 307.2 296 307.44C296 307.98 294.61 309.33 294.06 309.33C293.84 309.33 293.67 309.48 293.67 309.67C293.67 310.08 287.21 316.67 286.8 316.67C286.63 316.67 286.24 317.13 285.91 317.7C285.59 318.27 285.03 318.81 284.66 318.9C284.3 319 284 319.21 284 319.38C284 319.55 283.2 320.5 282.23 321.51C280.49 323.31 279.04 323.88 278.49 322.98C278.06 322.29 278.65 321.08 279.52 320.86C280.07 320.72 280.5 320.29 280.72 319.65C280.91 319.11 281.22 318.67 281.41 318.67C281.6 318.67 283.95 316.45 286.64 313.73C289.32 311.02 291.77 308.7 292.08 308.58C292.39 308.46 292.73 308.02 292.84 307.59C292.95 307.17 293.47 306.57 294.02 306.26C294.56 305.95 295.17 305.33 295.38 304.87C295.58 304.42 296.11 303.96 296.56 303.85C297 303.74 297.46 303.39 297.58 303.08C297.7 302.77 299.92 300.42 302.51 297.84C305.11 295.27 307.41 292.83 307.63 292.42L308.02 291.67L304.01 291.67C301.56 291.67 300 291.8 300 292C300 292.18 300.15 292.33 300.33 292.33C300.52 292.33 300.67 292.58 300.67 292.88C300.67 293.47 296.9 297.33 296.34 297.33C296.15 297.33 296 297.53 296 297.78C296 298.27 294.63 299.67 294.15 299.67C293.97 299.67 293.57 300.13 293.25 300.7C292.92 301.27 292.36 301.81 292 301.9C291.63 302 291.33 302.22 291.33 302.39C291.33 302.63 288.18 305.87 286.58 307.28C286.44 307.4 286.01 307.91 285.64 308.42C285.26 308.92 284.74 309.33 284.48 309.33C284.21 309.33 284 309.49 284 309.69C284 310.14 279.81 314.33 279.35 314.33C279.16 314.33 279 314.53 279 314.78C279 315.31 277.61 316.67 277.06 316.67C276.84 316.67 276.67 316.87 276.67 317.11C276.67 317.64 275.28 319 274.73 319C274.51 319 274.33 319.15 274.33 319.34C274.33 319.53 273.54 320.5 272.56 321.51C270.82 323.31 269.38 323.88 268.82 322.98ZM317.37 322.88C316.82 322.22 317.22 321.46 318.53 320.69C319.16 320.32 319.67 319.8 319.67 319.52C319.67 319.24 320.09 318.8 320.6 318.53C321.12 318.27 321.71 317.67 321.92 317.21C322.13 316.74 322.73 316.14 323.25 315.87C323.78 315.6 324.38 315 324.59 314.52C324.81 314.05 325.22 313.67 325.5 313.67C325.79 313.67 326.33 313.15 326.7 312.51C327.08 311.88 327.67 311.27 328.03 311.16C328.38 311.05 328.9 310.51 329.19 309.96C329.47 309.42 330.07 308.83 330.52 308.66C330.97 308.49 331.49 307.96 331.67 307.5C331.84 307.04 332.36 306.51 332.81 306.34C333.26 306.17 333.87 305.58 334.15 305.04C334.43 304.49 334.96 303.95 335.33 303.83C335.7 303.72 336.23 303.19 336.5 302.67C336.77 302.14 337.3 301.62 337.67 301.5C338.04 301.38 338.57 300.84 338.85 300.3C339.13 299.75 339.75 299.16 340.21 298.98C340.68 298.8 341.23 298.21 341.44 297.65C341.94 296.33 343.12 296.4 343.27 297.76C343.41 298.98 342.56 300.1 338.92 303.49C337.86 304.47 337 305.44 337 305.65C337 305.85 336.47 306.33 335.83 306.71C335.19 307.09 334.67 307.61 334.67 307.87C334.67 308.13 334.2 308.63 333.63 308.97C333.06 309.32 332.32 310.06 331.97 310.63C331.63 311.2 331.13 311.67 330.87 311.67C330.61 311.67 330.09 312.19 329.71 312.83C329.33 313.47 328.85 314 328.65 314C328.44 314 327.47 314.86 326.49 315.92C325.51 316.97 324.48 318.06 324.19 318.33C323.91 318.61 322.65 319.85 321.4 321.08C319.12 323.33 318.12 323.78 317.37 322.88ZM327.05 322.89C326.51 322.24 326.9 321.4 328.02 320.82C328.53 320.56 329.05 320.04 329.17 319.67C329.28 319.3 329.83 318.76 330.37 318.48C330.92 318.2 331.5 317.6 331.68 317.14C331.85 316.69 332.36 316.18 332.81 316.01C333.26 315.84 333.87 315.24 334.16 314.68C334.45 314.12 334.91 313.67 335.19 313.67C335.46 313.67 335.99 313.15 336.37 312.51C336.74 311.88 337.33 311.27 337.67 311.17C338.01 311.06 338.59 310.45 338.96 309.82C339.34 309.19 339.88 308.67 340.17 308.67C340.45 308.67 341 308.13 341.39 307.48C341.81 306.76 342.3 306.34 342.63 306.4C343.43 306.56 343.51 308.26 342.75 309.12C342.41 309.51 341.87 310.25 341.55 310.75C341.24 311.25 340.78 311.67 340.53 311.67C340.27 311.67 339.76 312.19 339.38 312.83C339 313.47 338.45 314 338.17 314C337.88 314 337.35 314.5 336.99 315.11C336.63 315.73 335.96 316.4 335.5 316.61C335.04 316.82 334.67 317.22 334.67 317.5C334.67 317.79 334.15 318.33 333.51 318.7C332.88 319.08 332.27 319.67 332.16 320.03C332.05 320.38 331.58 320.87 331.12 321.11C330.67 321.34 330.11 321.91 329.89 322.35C329.41 323.31 327.67 323.64 327.05 322.89ZM336.9 323.13C336.31 322.53 336.7 321.33 337.64 320.85C338.18 320.57 338.72 320.04 338.83 319.67C338.95 319.3 339.48 318.77 340.02 318.49C340.55 318.21 341.22 317.53 341.51 316.97C342.16 315.72 343.12 315.78 343.27 317.09C343.34 317.71 343.09 318.35 342.52 319.03C342.05 319.59 341.67 320.18 341.67 320.35C341.67 320.51 341.28 320.85 340.81 321.09C340.34 321.34 339.78 321.91 339.55 322.35C339.16 323.16 337.44 323.66 336.9 323.13ZM241.91 240.5C237.82 239.38 235.33 235.62 235.33 230.58C235.33 226 236.99 222.7 240.08 221.12C241.63 220.32 242.2 220.22 245 220.23C248.9 220.24 251.31 221.02 251.81 222.42C252.05 223.12 251.99 223.45 251.54 223.96C250.97 224.59 250.93 224.58 249.06 223.64C247.55 222.87 246.73 222.68 245 222.68C240.56 222.68 238.55 225.06 238.55 230.33C238.54 232.75 238.68 233.42 239.43 234.89C240.65 237.26 241.95 238.11 244.58 238.28C246.43 238.4 246.96 238.28 248.86 237.34C251.14 236.22 252 236.21 252 237.3C252 238.96 250.65 239.94 247.4 240.63C245.2 241.09 243.94 241.06 241.91 240.5ZM380.96 236.43C382.54 235.42 384.36 234.26 385 233.85C388.65 231.49 391.69 229.55 399.33 224.68C404.01 221.7 408.58 218.78 409.5 218.18C412.68 216.12 426.69 207.14 435.17 201.74C436.45 200.92 438.4 199.67 439.5 198.96C440.6 198.25 445.47 195.15 450.33 192.05C455.19 188.96 459.77 185.88 460.5 185.2L461.83 183.97L461.05 183.4C460.25 182.82 457.34 180.95 449.59 176.03C447.16 174.48 444.19 172.59 443 171.83C440.06 169.94 433.7 165.9 430.73 164.03C429.4 163.19 427.22 161.81 425.9 160.96C424.58 160.11 421.77 158.33 419.67 157C417.56 155.67 415.08 154.1 414.17 153.51C413.25 152.92 411.07 151.54 409.33 150.43C407.59 149.32 403.39 146.66 400 144.5C396.61 142.34 392.41 139.68 390.67 138.57C386.98 136.23 384.22 134.47 380.48 132.06C379 131.11 377.54 130.33 377.23 130.33C376.7 130.33 376.67 133.85 376.67 184.68L376.67 239.02L377.37 238.65C377.76 238.44 379.37 237.44 380.96 236.43ZM76.83 236.37C75.76 236.21 75.48 236.01 75.39 235.38C75.3 234.78 75.78 234.13 77.47 232.55C80.34 229.87 81.33 228.47 81.33 227.11C81.33 225.44 79.73 224.96 76.67 225.71C76.33 225.79 76.13 225.54 76.06 224.94C75.97 224.11 76.08 224.03 77.82 223.67C80.11 223.19 81.61 223.61 82.82 225.05C84.37 226.89 83.74 228.94 80.69 232.03C79.58 233.16 78.67 234.21 78.67 234.37C78.67 234.53 79.53 234.67 80.58 234.67C82.97 234.68 84 234.94 84 235.55C84 236.55 80.6 236.94 76.83 236.37ZM98.33 233.6C96.38 233.17 95.67 232.5 95.67 231.12C95.67 229.77 96.35 229.65 98.25 230.67C99.92 231.56 102.3 231.55 103.46 230.64C105.19 229.27 104.29 227.93 101.26 227.38C97.47 226.68 95.66 225.08 95.67 222.43C95.67 221.19 96.75 219.48 97.9 218.89C100.14 217.75 105.15 218 106.46 219.31C107.02 219.87 107.06 220.1 106.73 220.82C106.3 221.77 105.57 221.87 104.33 221.17C103.28 220.57 100.02 220.54 99.25 221.13C98.57 221.65 98.5 222.64 99.08 223.44C99.33 223.77 100.68 224.29 102.33 224.69C105.91 225.54 107.33 226.72 107.33 228.82C107.33 231.03 105.68 232.93 103.16 233.63C101.61 234.06 100.4 234.05 98.33 233.6ZM155.74 233.6C155.13 233.39 154.31 232.76 153.9 232.2C153.24 231.27 153.16 230.68 153.05 226.27C152.94 221.52 152.92 221.35 152.14 220.84C151.07 220.15 151.09 218.9 152.17 218.2C152.87 217.74 153 217.39 153 215.99L153 214.33L154.13 214.33C155.58 214.33 156.14 215.01 155.86 216.45C155.59 217.93 156.05 218.27 158.48 218.4C160.81 218.52 161.53 219.19 160.52 220.31C160.03 220.86 159.49 221 157.95 221L156 221L156 225.43C156 230.94 156.19 231.33 158.86 231.33C160.97 231.33 161.53 231.95 160.42 233.06C159.61 233.87 157.32 234.13 155.74 233.6ZM135.65 232.77C132.7 230.28 132.5 224.19 135.28 221.22C136.26 220.17 138 219.33 139.19 219.33C140.46 219.33 140.38 219.82 138.88 221.07C137.19 222.48 136.67 223.94 136.67 227.21C136.67 231.36 138.32 233.14 140.15 230.96C140.92 230.04 141.03 229.67 140.86 228.52C140.76 227.78 140.59 226.42 140.49 225.5C140.18 222.71 141.52 221.18 142.98 222.65C143.75 223.42 143.91 225.66 143.34 227.65C142.87 229.27 143.45 231.25 144.53 231.74C146.46 232.62 147.97 229.08 147.34 225.18C147 223.11 146.43 222.11 145.01 221.06C142.95 219.54 144.24 218.77 146.83 219.96C149.42 221.16 150.76 223.51 150.78 226.88C150.81 231.91 146.46 235.41 143.39 232.83C142.85 232.38 142.22 232 142 232C141.78 232 141.15 232.38 140.61 232.83C139.2 234.01 137.1 233.99 135.65 232.77ZM62.96 232.43C62.76 231.92 61.7 229.03 60.61 226C59.52 222.97 58.41 219.9 58.14 219.17C56.77 215.41 56.33 213.94 56.51 213.65C56.62 213.48 57.22 213.33 57.84 213.33C58.78 213.33 59.08 213.52 59.52 214.38C60.07 215.44 62.34 221.69 63.89 226.42C64.35 227.84 64.85 229 64.99 229C65.47 229 65.92 228.18 66.78 225.67C69.02 219.17 70.65 214.66 70.99 214.03C71.25 213.53 71.68 213.33 72.49 213.33C73.12 213.33 73.71 213.47 73.81 213.63C73.92 213.8 73.31 215.86 72.47 218.22C71.63 220.57 70.27 224.38 69.46 226.67C67.14 233.17 67.16 233.15 65.08 233.27C63.43 233.36 63.31 233.31 62.96 232.43ZM110.82 232.91C110.73 232.67 110.69 229.34 110.74 225.49L110.83 218.5L111.98 218.5C112.93 218.5 113.18 218.65 113.37 219.33C113.75 220.69 113.71 231.97 113.32 232.69C112.93 233.43 111.08 233.59 110.82 232.91ZM118.15 232.91C118.06 232.67 118.03 229.34 118.08 225.49L118.17 218.5L119.04 218.4C119.54 218.34 120.16 218.54 120.49 218.87C121.04 219.42 121.13 219.42 122.22 218.83C123.79 217.98 127.27 218 128.42 218.87C130.21 220.22 130.44 221.08 130.59 227.01C130.76 233.09 130.64 233.49 128.77 233.27L127.83 233.17L127.67 227.62C127.52 222.78 127.42 221.98 126.86 221.37C125.67 220.04 121.89 220.67 121 222.34C120.78 222.74 120.66 224.94 120.68 227.82C120.71 230.46 120.63 232.79 120.51 232.98C120.2 233.48 118.35 233.42 118.15 232.91ZM392.39 224.56C392.18 224.32 391.98 222.42 391.93 220.31L391.83 216.5L388.33 216.42C383.43 216.3 383.33 216.27 383.33 214.66L383.33 213.33L387.29 213.33C390.15 213.33 391.35 213.21 391.61 212.9C391.82 212.65 392.02 210.71 392.07 208.48L392.17 204.5L393.36 204.4C394.07 204.34 394.71 204.48 394.93 204.75C395.15 205.02 395.35 206.86 395.41 209.19L395.5 213.17L399.67 213.33C403.72 213.5 403.84 213.52 403.94 214.28C404 214.71 403.79 215.34 403.48 215.69C402.97 216.25 402.42 216.33 399.12 216.33L395.33 216.33L395.33 220.12C395.33 223.36 395.25 223.98 394.72 224.45C393.99 225.11 392.89 225.16 392.39 224.56ZM110.48 215.53C110.09 213.98 110.4 213.5 111.8 213.5C113.4 213.5 113.98 214.21 113.41 215.47C113.09 216.16 112.78 216.33 111.85 216.33C110.89 216.33 110.64 216.19 110.48 215.53ZM234.44 210.92C234.29 210.69 234.09 207.35 234 203.5L233.83 196.5L183.33 196.33C155.56 196.24 132.58 196.22 132.26 196.29C131.95 196.35 131.59 196.73 131.46 197.12C131.09 198.29 129.7 199.92 128.39 200.7C127.5 201.23 126.62 201.44 125.17 201.45C121.96 201.47 120.1 200 118.83 196.42C118.28 194.88 118.25 194.51 118.64 193.42C119.91 189.82 121.81 188.33 125.17 188.33C128.22 188.33 129.79 189.36 131.54 192.5C131.9 193.16 132.33 193.17 182.31 193.25C216.33 193.31 232.91 193.22 233.35 192.99C233.94 192.67 233.99 192.16 234.08 185.74L234.17 178.83L234.96 178.72C235.39 178.66 235.91 178.78 236.12 178.99C236.43 179.29 236.8 186.47 236.93 194.5C236.94 194.68 236.84 198.3 236.72 202.53C236.55 208.31 236.39 210.37 236.04 210.78C235.5 211.44 234.81 211.49 234.44 210.92ZM647 199.5C646.3 197.66 646.84 194.91 648.15 193.69C649.22 192.68 651.53 192.41 652.92 193.12C654.71 194.05 655.33 195.17 655.33 197.48C655.33 199.61 654.98 200.33 653.93 200.33C653.41 200.33 653.33 200.03 653.33 198.02C653.33 195.93 653.25 195.65 652.46 195.02C651.36 194.17 650.63 194.15 649.62 194.97C648.93 195.53 648.83 195.89 648.83 197.89C648.83 200 648.78 200.17 648.08 200.27C647.53 200.35 647.25 200.15 647 199.5ZM634.84 198.01C634.73 197.84 633.97 195.81 633.16 193.51C632.34 191.21 630.98 187.42 630.12 185.08C629.27 182.75 628.5 180.27 628.42 179.58C628.27 178.35 628.28 178.33 629.42 178.33C630.06 178.33 630.73 178.52 630.9 178.75C631.08 178.98 631.71 180.52 632.3 182.17C634.65 188.69 635.3 190.58 635.89 192.41C636.23 193.47 636.65 194.28 636.83 194.22C637.2 194.1 637.74 192.78 639.35 188.17C639.92 186.52 640.84 183.89 641.38 182.33C642.67 178.61 642.73 178.52 643.9 178.4C645.52 178.24 645.72 178.87 644.83 181.33C644.41 182.53 643.35 185.45 642.5 187.83C641.64 190.22 640.52 193.33 640.01 194.75C639.5 196.16 638.9 197.55 638.67 197.83C638.2 198.4 635.17 198.54 634.84 198.01ZM234.35 157.36C234.14 156.98 234 154.06 233.99 150.27C233.99 146.73 233.88 143.66 233.74 143.45C233.56 143.17 220.57 143.12 182.55 143.25C136.28 143.42 131.59 143.48 131.42 143.97C131.32 144.26 130.87 144.99 130.42 145.6C127.64 149.35 122.35 149.26 119.87 145.41C118.34 143.04 118.12 141.89 118.82 139.92C120.07 136.4 121.7 135.19 125.17 135.19C128.47 135.2 130.23 136.36 131.57 139.44L131.98 140.37L182.58 140.16C210.4 140.04 233.35 139.89 233.58 139.82C233.9 139.72 234 138.07 234 133.04C234 129.38 234.09 126.15 234.2 125.86C234.44 125.23 235.85 125.16 236.23 125.75C236.43 126.06 237.01 139.14 236.93 141.5C236.92 141.68 236.85 145.2 236.78 149.32C236.66 155.62 236.56 156.9 236.1 157.4C235.4 158.18 234.78 158.16 234.35 157.36ZM379.41 152.94C379.18 152.72 379 152.04 379 151.43L379 150.33L384.13 150.33C389.77 150.33 390.12 150.47 389.25 152.28L388.83 153.17L384.32 153.26C381.1 153.32 379.7 153.23 379.41 152.94ZM74.56 128.4C73.74 128.23 73.96 126.88 74.83 126.72C76.17 126.47 76.33 126.03 76.33 122.67C76.33 119.3 76.17 118.86 74.84 118.62C74.07 118.47 73.71 117.33 74.43 117.33C74.69 117.33 75.3 117.02 75.79 116.64C76.27 116.26 77 116 77.42 116.06C78.15 116.16 78.17 116.26 78.26 121.25L78.35 126.33L79.51 126.82C80.69 127.31 80.96 127.78 80.3 128.19C79.9 128.44 75.54 128.6 74.56 128.4ZM95.67 124.6C94.84 124.42 93.9 124.04 93.58 123.75C92.96 123.19 92.78 121.18 93.32 120.84C93.5 120.73 94.36 121.02 95.24 121.49C97.38 122.63 99.91 122.66 100.94 121.56C101.34 121.14 101.67 120.56 101.67 120.28C101.67 119.51 100.6 118.7 99.31 118.49C97.09 118.12 94.64 117.18 93.92 116.41C93.34 115.8 93.19 115.22 93.18 113.69C93.17 111.54 93.66 110.71 95.5 109.74C97.01 108.95 101.59 109.04 103.05 109.88C104.29 110.61 104.64 111.67 103.85 112.32C103.42 112.68 103.08 112.66 101.9 112.21C99.03 111.11 96 111.67 96 113.29C96 114.47 96.85 115.02 99.74 115.7C102.21 116.28 102.79 116.56 103.65 117.54C105.18 119.27 105.08 120.91 103.33 122.8C101.44 124.85 99.2 125.38 95.67 124.6ZM152.9 124.46C150.81 123.56 150.33 122.19 150.33 117.01C150.33 112.79 150.31 112.64 149.5 111.94C149.04 111.54 148.67 110.88 148.67 110.48C148.67 110.06 149.03 109.51 149.5 109.2C150.2 108.74 150.33 108.39 150.33 106.99L150.33 105.33L151.66 105.33C153.1 105.33 153.22 105.52 153.41 108L153.5 109.17L155.63 109.33C158.15 109.53 158.88 110.18 157.85 111.31C157.36 111.86 156.83 112 155.28 112L153.33 112L153.33 116.62C153.33 122.07 153.47 122.33 156.29 122.33C158.31 122.33 158.84 122.97 157.75 124.06C156.85 124.97 154.53 125.16 152.9 124.46ZM132.69 123.39C130.71 121.31 130.15 118.18 131.17 114.77C131.91 112.28 134.24 110.33 136.49 110.33C137.78 110.33 137.69 110.72 136.02 112.3C134.54 113.69 134.37 114.01 134.15 115.79C133.68 119.68 134.52 123 135.98 123C136.32 123 137.01 122.52 137.51 121.93C138.35 120.93 138.39 120.73 138.14 119.01C137.71 116.11 137.87 113.92 138.55 113.43C139.33 112.85 139.55 112.89 140.33 113.67C141.09 114.42 141.25 116.96 140.64 118.56C140.2 119.73 140.49 121.26 141.36 122.31C142.37 123.51 143.64 122.96 144.39 120.99C145.6 117.84 144.84 114.06 142.66 112.33C140.38 110.52 141.33 109.66 144.18 110.96C145.91 111.75 147.13 113.21 147.84 115.36C149.69 120.91 144.54 127.04 140.73 123.83C140.18 123.38 139.56 123 139.33 123C139.11 123 138.48 123.38 137.94 123.83C137.2 124.46 136.56 124.67 135.42 124.67C134.09 124.67 133.74 124.51 132.69 123.39ZM59.96 123.43C59.3 121.72 57.63 117.18 57.18 115.83C56.94 115.1 56.03 112.55 55.16 110.17C53.16 104.68 53.15 104.53 54.73 104.4C55.83 104.31 56.02 104.41 56.53 105.39C57.06 106.42 60.68 116.51 61.38 118.92C61.94 120.84 62.53 120.29 63.78 116.67C66.02 110.17 67.65 105.66 67.99 105.03C68.25 104.53 68.68 104.33 69.49 104.33C70.12 104.33 70.71 104.47 70.81 104.63C70.92 104.8 70.33 106.82 69.5 109.13C68.68 111.45 67.33 115.24 66.5 117.57C64.14 124.17 64.16 124.15 62.08 124.27C60.43 124.36 60.31 124.31 59.96 123.43ZM108.15 123.91C108.06 123.67 108.03 120.34 108.08 116.49L108.17 109.5L109 109.41C110.64 109.24 110.68 109.41 110.7 116.76C110.71 120.54 110.63 123.8 110.51 123.99C110.2 124.48 108.34 124.42 108.15 123.91ZM115.15 123.91C115.06 123.67 115.03 120.34 115.08 116.49L115.17 109.5L116.04 109.4C116.54 109.34 117.16 109.54 117.49 109.87C118.04 110.42 118.13 110.42 119.22 109.83C120.83 108.96 124.23 108.97 125.39 109.85C127.21 111.22 127.44 112.06 127.59 118.01C127.76 124.09 127.64 124.49 125.77 124.27L124.83 124.17L124.67 118.62C124.52 113.77 124.42 112.98 123.87 112.37C122.67 111.04 118.89 111.67 118 113.34C117.78 113.74 117.66 115.94 117.68 118.82C117.71 121.46 117.63 123.79 117.51 123.98C117.2 124.48 115.35 124.42 115.15 123.91ZM237.91 120.5C233.82 119.38 231.33 115.62 231.33 110.58C231.33 106 232.99 102.7 236.08 101.12C237.63 100.32 238.2 100.22 241 100.23C244.9 100.24 247.31 101.02 247.81 102.42C248.05 103.12 247.99 103.45 247.54 103.96C246.97 104.59 246.93 104.58 245.06 103.64C243.55 102.87 242.73 102.68 241 102.68C236.56 102.68 234.55 105.06 234.55 110.33C234.54 112.75 234.68 113.42 235.43 114.89C236.65 117.26 237.95 118.11 240.58 118.28C242.43 118.4 242.96 118.28 244.86 117.34C247.14 116.22 248 116.21 248 117.3C248 118.96 246.65 119.94 243.4 120.63C241.2 121.09 239.94 121.06 237.91 120.5ZM108.07 106.93C107.63 106.5 107.55 105.69 107.87 104.86C108.11 104.23 110.01 104.14 110.6 104.73C110.82 104.95 111 105.45 111 105.83C111 106.78 110.38 107.33 109.33 107.33C108.86 107.33 108.29 107.15 108.07 106.93ZM400.83 37.82C400.65 37.76 399.89 37.55 399.15 37.36C395.88 36.52 393.44 33.04 393.11 28.74C392.72 23.61 394.27 20 397.67 18.18C399.36 17.27 399.75 17.2 402.83 17.23C406.77 17.26 409.11 18.06 409.47 19.51C409.65 20.21 409.24 21.67 408.87 21.67C408.81 21.67 407.88 21.22 406.8 20.67C404.25 19.38 401.19 19.28 399.21 20.42C397.12 21.63 396.33 23.5 396.33 27.29C396.33 29.87 396.47 30.69 397.08 31.93C398.21 34.18 399.64 35.11 402.22 35.28C404.1 35.4 404.62 35.28 406.47 34.37C408.95 33.15 409.22 33.12 409.5 34C409.85 35.09 409.36 35.97 408.06 36.63C406.07 37.64 402.1 38.29 400.83 37.82Z" fill="#1e2749" fill-rule="evenodd"/>
</svg>
