<?xml version="1.0" encoding="UTF-8"?>
<svg xmlns="http://www.w3.org/2000/svg" viewBox="0 0 2430 902" width="2430" height="902" shape-rendering="geometricPrecision">
<path d="M2052.5 854.07C2039.87 849.56 2006.34 830.82 1908.5 773.56C1884.3 759.39 1862.47 746.56 1860 745.04C1857.53 743.52 1847.62 737.65 1838 732C1819.84 721.33 1791.94 704.87 1755 683.03C1743.17 676.03 1727.88 667.02 1721 662.99C1714.12 658.97 1700.4 650.86 1690.5 644.97C1680.6 639.09 1668 631.66 1662.5 628.47C1657 625.29 1639.22 614.82 1623 605.21C1606.78 595.6 1586.97 583.91 1579 579.22C1571.03 574.54 1561.35 568.79 1557.5 566.46C1546.36 559.7 1511.02 539 1510.63 539C1510.44 539 1504.48 535.48 1497.39 531.18C1490.3 526.87 1482.03 521.96 1479 520.26C1475.97 518.57 1460.79 509.6 1445.26 500.34C1429.73 491.08 1412.4 480.83 1406.76 477.57C1401.12 474.3 1385.47 465.03 1372 456.97C1358.53 448.9 1343 439.69 1337.5 436.5C1332 433.31 1313.1 422.16 1295.5 411.73C1277.9 401.29 1259.22 390.25 1254 387.19C1248.78 384.13 1241.35 379.73 1237.5 377.41C1230.29 373.07 1196.69 353.26 1182.5 344.99C1178.1 342.42 1165.5 335.02 1154.5 328.55C1143.5 322.08 1130.45 314.4 1125.5 311.48C1120.55 308.57 1106.6 300.38 1094.5 293.28C1082.4 286.18 1060.48 273.32 1045.8 264.69L1019.1 249L664.3 248.97C263.62 248.93 225.98 248.46 218.25 243.42C215.14 241.39 215.24 237.24 218.44 236.02C226.13 233.1 271.17 231.5 363.5 230.88C468.94 230.17 1842.39 230.5 1921 231.25C2003.28 232.04 2048.81 233.4 2058.6 235.34C2064.13 236.44 2064.46 236.68 2065.18 240C2066.64 246.81 2068.01 416.6 2067.86 573.5C2067.67 779.53 2066.58 840.3 2062.88 850.92C2061.99 853.48 2059.19 856.24 2057.82 855.93C2057.64 855.89 2055.25 855.05 2052.5 854.07ZM2043.75 538.95L2043.5 249.5L1723 249.35C1312.79 249.15 1074.01 250.65 1071.24 253.43C1070.03 254.64 1073.26 256.75 1109.68 278.51C1128.83 289.96 1149.9 302.56 1156.5 306.51C1168.06 313.44 1194.8 329.25 1230.5 350.26C1239.85 355.77 1253.8 363.98 1261.5 368.52C1292.28 386.64 1305.93 394.61 1315 399.74C1320.22 402.7 1330.8 408.92 1338.5 413.58C1346.2 418.23 1356.55 424.31 1361.5 427.08C1366.45 429.85 1378.2 436.7 1387.61 442.31C1410.21 455.77 1463.31 487.04 1469 490.23C1471.47 491.62 1480.92 497.23 1490 502.7C1499.08 508.17 1508.97 514.02 1512 515.7C1517.36 518.68 1543.46 534.13 1553.5 540.26C1556.25 541.94 1565.7 547.57 1574.5 552.78C1583.3 557.98 1595.67 565.29 1602 569.03C1608.33 572.76 1622.95 581.42 1634.5 588.25C1646.05 595.09 1661.12 603.98 1668 608.01C1674.88 612.04 1692.65 622.53 1707.5 631.34C1722.35 640.14 1742.15 651.84 1751.5 657.34C1760.85 662.85 1773.9 670.59 1780.5 674.55C1792 681.44 1867.92 726.33 1903.5 747.27C1912.85 752.77 1925.9 760.53 1932.5 764.51C1939.1 768.49 1955.75 778.39 1969.5 786.52C1983.25 794.65 2005.27 807.76 2018.43 815.67C2031.59 823.58 2042.72 829.68 2043.18 829.22C2043.63 828.77 2043.89 698.14 2043.75 538.95ZM2181.31 628.01C2172.96 627.56 2165.65 626.9 2165.06 626.54C2163.3 625.45 2163.86 622.47 2166.25 620.28C2167.49 619.14 2172.44 615.69 2177.25 612.6C2182.06 609.51 2186 606.53 2186 605.97C2186 605.42 2182.23 600.31 2177.63 594.63C2165.79 580.02 2162.36 570.36 2163.25 554.16C2165.54 512.57 2205.71 477.54 2243.74 483.96C2251.44 485.26 2259.85 489.58 2265.81 495.31C2267.64 497.07 2270.79 501.85 2272.81 505.95C2276.28 512.94 2276.49 513.95 2276.42 522.45C2276.33 532.27 2273.78 541.57 2268.1 552.79C2261.26 566.31 2249.28 581.17 2238.77 589.18C2229.67 596.1 2225.57 598.07 2214.23 600.95C2194.16 606.05 2193.92 610.53 2213.57 613.49C2230.85 616.1 2243.7 615.1 2257.23 610.11C2264.02 607.6 2266 607.47 2266 609.52C2266 611.74 2258.3 619.74 2253.42 622.6C2251.11 623.95 2246.21 625.69 2242.52 626.46C2233.98 628.25 2201.14 629.08 2181.31 628.01ZM2314.16 599.8C2307.91 596.77 2304.69 591.42 2304.16 583.24C2303.42 571.63 2307.42 559.64 2316.56 546.01C2327.11 530.29 2338.19 523.91 2357.59 522.37C2369.62 521.42 2376.72 522.56 2380.17 526.02C2384.03 529.87 2383.88 534.09 2379.38 548.17C2373.47 566.65 2371.13 575.18 2370.41 580.89C2369.67 586.82 2369.61 586.81 2375.7 582.24C2379.28 579.55 2382.3 579.6 2382.83 582.34C2384.38 590.39 2372.76 600.17 2361.42 600.35C2357.33 600.41 2355.38 599.81 2351.34 597.22C2345.37 593.39 2342.73 593.21 2338.59 596.35C2330.46 602.53 2322.21 603.7 2314.16 599.8ZM2215.85 588.93C2226.64 583.97 2237.61 571.17 2244.08 555.98C2248.23 546.21 2253 525.9 2253 517.96C2253 507.13 2251 502.28 2243.6 495.17C2238.53 490.31 2236.51 489 2234.06 489C2230.73 489 2221.2 493.41 2214.3 498.15C2202.95 505.93 2190.55 529.58 2186.96 550.31C2185.62 558 2186.17 574.52 2187.94 580.28C2189.47 585.23 2194.41 590.76 2198.35 591.93C2202.84 593.26 2208.53 592.28 2215.85 588.93ZM2338.32 584.22C2348.91 577.05 2358.82 560.97 2361.69 546.29C2363.11 539.06 2363.13 537.62 2361.86 534.3C2356.31 519.7 2334.43 539.05 2325.48 566.47C2321.65 578.21 2322.55 584.68 2328.36 587C2331.12 588.1 2333.6 587.41 2338.32 584.22ZM133.01 339.18C131.63 338.76 130.39 337.76 130.23 336.96C130.08 336.16 134.04 330.38 139.02 324.13C150.58 309.64 153.35 304.35 153.44 296.67C153.52 288.59 152.24 287.76 141.01 288.61C134.22 289.12 132.21 288.96 131.27 287.82C129.12 285.23 131.06 282.11 137.11 278.43C148.53 271.49 152.72 271.82 160.69 280.29C167.33 287.36 168.71 290.9 167.12 296.88C165.57 302.75 162.62 307.24 152.84 318.65C148.53 323.68 145 328.24 145 328.77C145 329.32 149.97 329.94 156.42 330.19C169.17 330.67 172.34 331.87 169.43 335.08C168.53 336.07 165.48 337.39 162.65 338.01C156.22 339.42 136.36 340.2 133.01 339.18ZM44.71 336.98C42.74 335.43 42 333.95 42 331.54C42 326.33 44.56 324.1 51.89 322.93C60.19 321.61 63.89 320 68.77 315.59C78.05 307.2 79.76 293.56 74.22 271.99C69.04 251.85 61.59 236.64 56.29 235.41C49.41 233.81 46.75 229.29 51.25 226.85C52.49 226.18 57.39 225.61 62.17 225.57C69.38 225.51 71.32 225.85 73.67 227.54C77.67 230.42 81.6 238.97 88.5 259.85C91.8 269.83 94.85 277.99 95.28 278C95.7 278 98.96 272.09 102.53 264.87C110.44 248.83 110.75 245.82 105.5 236.43C100.04 226.66 100.82 225.04 111.03 225.01C117.88 224.99 120 226.97 120 233.4C120 254.9 95.58 298.43 68.41 325.34C56.22 337.42 49.47 340.73 44.71 336.98ZM653.24 129.27C652.54 129.03 650.63 126.87 648.99 124.48C647.34 122.09 645.07 119.84 643.93 119.48C642.5 119.02 638.65 120.44 631.5 124.05C621.26 129.21 621.09 129.26 616.42 128.08C606.27 125.53 600.91 120.44 598.9 111.45C595.35 95.6 607.97 69.63 624.99 57.74C633.93 51.49 641.14 49.73 657.5 49.78C679.62 49.86 680.66 50.81 675.57 66.36C668.98 86.48 664.06 113 666.93 113C667.59 113 669.61 111.88 671.41 110.5C675.27 107.56 679 107.18 679 109.73C679 114.17 657.23 130.68 653.24 129.27ZM1589.42 125.25C1587.87 123.19 1586.13 121.17 1585.55 120.77C1583.37 119.24 1578.9 120.12 1569.24 124C1558.14 128.45 1554.42 128.83 1548.37 126.08C1545.07 124.58 1543.71 123.1 1541.51 118.6C1538.97 113.42 1538.8 112.29 1539.22 103.75C1539.82 91.49 1543.72 81.39 1551.88 70.96C1559.41 61.33 1566.96 55.52 1576.2 52.25C1582.79 49.91 1584.86 49.67 1597.5 49.74C1605.2 49.79 1612.8 50.33 1614.39 50.94C1617.17 52.02 1617.25 52.24 1616.72 57.28C1616.41 60.15 1614.48 67.9 1612.43 74.5C1606.49 93.64 1605.91 96.07 1605.3 104.23C1604.61 113.44 1605.84 114.75 1611.3 110.59C1614.92 107.82 1619 107.15 1619 109.32C1619 114.01 1600.48 129 1594.67 129C1593.03 129 1591.33 127.79 1589.42 125.25ZM632.6 112.94C638.1 109.54 643.93 102.04 648.51 92.5C653.41 82.28 655 75.85 655 66.17C655 58.08 653.32 55 648.91 55C640.62 55 634.78 60.86 626.64 77.34C616.95 96.97 614.75 108.95 620.05 113.24C622.96 115.6 628.51 115.46 632.6 112.94ZM1573.6 112.17C1580.45 107.21 1586.56 97.55 1589.99 86.25C1591.76 80.43 1592.13 77.14 1591.85 69.52C1591.53 60.83 1591.28 59.82 1588.85 57.39C1585.59 54.13 1582.67 54.59 1577.44 59.19C1566.03 69.2 1555.6 93.55 1557.3 106.19C1558.47 114.9 1566.02 117.67 1573.6 112.17Z" fill="#1e2749" fill-rule="evenodd"/>
</svg>
