<?xml version="1.0" encoding="UTF-8"?>
<svg xmlns="http://www.w3.org/2000/svg" viewBox="0 0 2430 1352" width="2430" height="1352" shape-rendering="geometricPrecision">
<path d="M423.5 1314.25C411.08 1307.02 329.92 1258.36 296 1237.8C214.89 1188.65 157.35 1153.62 133 1138.55C123.92 1132.94 113.35 1126.45 109.5 1124.14C87.76 1111.08 58.69 1092.2 57.76 1090.54C56.22 1087.78 55.38 974 55.66 805C55.8 717.34 56.27 661.87 56.9 657.5C57.73 651.72 58.39 650.09 60.7 648.17C62.24 646.89 78.8 636.73 97.5 625.58C128.71 606.98 150.76 593.65 201 563C361.34 465.19 425.04 427 427.89 427C429.32 427 433.59 429.43 468 449.81C493.33 464.82 607.77 533.88 639.5 553.31C649.4 559.38 668.75 571.17 682.5 579.52C696.25 587.87 716.95 600.45 728.5 607.49C740.05 614.52 760.16 626.74 773.2 634.65L796.89 649.03L804.2 644.69C808.21 642.31 829.05 629.62 850.5 616.51C871.95 603.39 897.38 587.85 907 581.97C916.62 576.1 930.58 567.56 938 562.99C945.42 558.42 963.88 547.18 979 538C994.12 528.82 1017.08 514.87 1030 506.99C1096.54 466.46 1144.23 438.24 1155.13 432.96L1159.76 430.72L1165.63 434.05C1176.8 440.39 1224.19 468.95 1289.5 508.69C1342.17 540.74 1333.31 535.32 1416 585.96C1486.44 629.1 1512.62 645.11 1519.62 649.31L1525.75 652.99L1550.62 637.87C1564.31 629.55 1584.95 617.01 1596.5 610.01C1608.05 603.01 1629.2 590.16 1643.5 581.47C1657.8 572.78 1679.62 559.53 1692 552.03C1817.26 476.06 1847.68 457.46 1848.75 456.14C1849.73 454.95 1850.01 434.37 1850.05 361.06C1850.09 267.45 1851.34 170.43 1852.56 166.31C1853.41 163.42 1857.84 162.49 1862.15 164.29C1867.12 166.37 1868.13 168.18 1869.08 176.73C1870.02 185.32 1870.84 272.31 1870.94 375.78L1871 443.05L1873.75 441.47C1875.26 440.6 1878.3 438.8 1880.5 437.46C1886.03 434.1 1891.04 434.27 1897.71 438.03C1900.67 439.7 1903.45 440.84 1903.89 440.57C1904.34 440.29 1905.01 380.31 1905.4 307.28C1905.78 234.25 1906.41 171.8 1906.8 168.5C1907.48 162.63 1907.58 162.48 1911.11 161.61C1916.14 160.36 1919.53 161.45 1920.89 164.75C1923.84 171.86 1924.15 186.9 1926.28 430.43L1926.5 455.35L1935 460.49C1946.28 467.31 2087.64 553.71 2115 570.51C2165.26 601.37 2181.9 611.56 2188.5 615.52C2194.66 619.22 2231.15 641.73 2253.33 655.52C2263.24 661.68 2265.36 664.25 2264.69 669.29C2263.48 678.31 2260.05 678.14 2240.6 668.11C2232.19 663.78 2223.55 659.11 2221.4 657.75C2219.26 656.39 2213.45 652.89 2208.5 649.98C2195.44 642.3 2161.7 621.87 2120.5 596.69C2100.7 584.58 2075.95 569.49 2065.5 563.14C2055.05 556.8 2040.65 548.02 2033.5 543.65C1978.45 509.98 1892.99 459.09 1888.79 457.47C1887.73 457.07 1884.91 458.13 1881.3 460.31C1878.11 462.22 1864.25 470.52 1850.5 478.74C1836.75 486.96 1792.2 513.86 1751.5 538.51C1618.65 618.99 1570.93 647.6 1541 664.71C1523.38 674.77 1525.09 674.23 1519.42 671.59C1516.71 670.32 1507.75 665.12 1499.5 660.01C1463.82 637.94 1401.88 599.99 1351 569.02C1338.62 561.49 1321.3 550.91 1312.5 545.52C1303.7 540.12 1288.17 530.66 1278 524.49C1267.83 518.32 1249.38 507.07 1237 499.49C1187.47 469.15 1161.83 454 1160.02 454C1154.84 454 1122.46 473.03 981 559.2C942.98 582.36 871.38 626.02 843.5 643.05C837.45 646.74 826.65 653.33 819.5 657.69L806.5 665.61L805.89 874.06C805.56 988.7 804.93 1085.07 804.51 1088.2C803.99 1092.03 803.03 1094.54 801.61 1095.82C798.61 1098.55 724.8 1144.37 670.5 1177.22C660.05 1183.54 640.02 1195.68 626 1204.2C560.09 1244.24 541.4 1255.55 513.5 1272.28C458.57 1305.22 434.86 1319 433.17 1318.95C432.25 1318.92 427.9 1316.81 423.5 1314.25ZM454 1285.78C463.62 1280.02 480.95 1269.55 492.5 1262.53C504.05 1255.5 518.9 1246.5 525.5 1242.53C541.15 1233.1 592.85 1201.72 619.5 1185.48C631.05 1178.43 657.15 1162.55 677.5 1150.17C740.81 1111.68 759.06 1100.57 772.5 1092.36L785.5 1084.42L785.18 874.96C784.94 715.6 784.58 665.22 783.68 664.34C782.46 663.15 778.41 660.64 735 634.22C720.98 625.68 698.02 611.71 684 603.18C669.98 594.64 651.75 583.53 643.5 578.49C635.25 573.44 617.48 562.64 604 554.49C590.52 546.33 572.75 535.53 564.5 530.47C539.71 515.3 441.99 456.64 434.9 452.68C431.28 450.66 427.89 449 427.38 449C425.62 449 353.66 492.26 263.5 547.53C248.23 556.89 229.15 568.54 189.5 592.69C168.14 605.7 109.19 641.77 89.75 653.73L76 662.19L75.89 845.34C75.83 946.08 75.62 1039.98 75.43 1054.01C75.24 1068.03 75.4 1079.98 75.79 1080.55C76.18 1081.12 86.17 1087.46 98 1094.65C109.83 1101.84 141.55 1121.1 168.5 1137.46C195.45 1153.82 222.45 1170.27 228.5 1174C234.55 1177.73 244.68 1183.92 251 1187.74C257.32 1191.57 276.45 1203.16 293.5 1213.5C384.34 1268.6 433.37 1297.28 435.5 1296.58C436.05 1296.4 444.38 1291.54 454 1285.78ZM423.03 1254.89C421.67 1254.34 420.21 1253.36 419.79 1252.7C418.19 1250.18 419.02 1245.13 421.52 1242.16C425.84 1237.03 449.81 1221.58 512.5 1183.5C523.5 1176.82 539.48 1167.07 548 1161.83C579.43 1142.51 683.24 1079.86 710.5 1063.75C740.7 1045.91 747.74 1042 749.71 1042C753.88 1042 759.19 1050.86 756.77 1053.77C752.8 1058.57 701.43 1091.01 602 1151.53C468.77 1232.63 429.71 1256 427.54 1255.94C426.42 1255.9 424.39 1255.43 423.03 1254.89ZM116.51 1073.63C115.15 1072.64 114.42 1070.35 113.88 1065.38C113.46 1061.6 112.83 990.77 112.47 908C111.82 758.72 112.55 693.07 114.98 684.81C116.2 680.65 118.45 679.49 123.49 680.43C128.71 681.41 129.34 682.97 130.1 696.85C131.16 716.37 132.15 1005.56 131.27 1040.34C130.5 1071.1 130.49 1071.19 128.14 1073.09C125.36 1075.34 119.23 1075.62 116.51 1073.63ZM2282.33 743C2278.94 742.73 2275.8 742.14 2275.36 741.7C2274.21 740.55 2277.01 739.03 2280.32 739.02C2284.24 738.99 2286.71 737.45 2288.56 733.89C2290.97 729.23 2292.27 702.76 2291.7 670C2291.06 632.4 2289.94 628.2 2280.08 626.31C2277.65 625.85 2275.49 624.98 2275.29 624.38C2274.8 622.91 2285.34 621.99 2301.5 622.09C2316.22 622.19 2324.12 623.03 2323.95 624.5C2323.88 625.05 2321.58 626.01 2318.82 626.63C2310.27 628.55 2310.5 627.78 2310.5 654.78L2310.5 678.5L2336.61 678.77C2356.75 678.97 2362.96 678.74 2363.74 677.77C2365.01 676.18 2363.66 636.63 2362.21 632.96C2360.8 629.4 2359.26 628.36 2353.06 626.78C2345.42 624.85 2345.64 623.42 2353.72 622.65C2369.23 621.19 2397.4 622.29 2396.72 624.34C2396.53 624.91 2394.19 626.08 2391.53 626.94C2388.58 627.89 2385.86 629.6 2384.59 631.32C2382.54 634.09 2382.5 635.04 2382.5 681.32C2382.5 707.27 2382.86 730.21 2383.3 732.29C2384.18 736.44 2387.08 738.34 2394.32 739.5C2397.35 739.99 2397.92 740.4 2397.05 741.44C2395.65 743.13 2371.38 744.24 2358 743.22C2350.59 742.66 2348.5 742.17 2348.5 741.02C2348.5 740.1 2349.83 739.31 2352 738.95C2357.04 738.12 2359.73 736.39 2361.74 732.72C2363.26 729.93 2363.5 726.65 2363.5 708.34C2363.5 696.69 2363.28 686.96 2363 686.71C2362.72 686.45 2350.64 685.92 2336.14 685.52L2309.79 684.8L2310.21 708.65C2310.65 733.91 2311.3 737.64 2315.42 738.47C2316.56 738.7 2319.29 739.18 2321.49 739.53C2325.05 740.11 2325.28 740.32 2323.71 741.47C2322.13 742.63 2298.74 744.2 2291 743.67C2289.62 743.58 2285.72 743.27 2282.33 743ZM736 714.06C734.62 713.06 721.35 705.05 706.5 696.27C676.76 678.7 628.89 649.94 619.5 644.01C616.2 641.93 593.02 627.73 568 612.46C444.79 537.27 410.35 515.54 409.59 512.49C409.25 511.17 409.71 508.26 410.6 506.03C413 500.04 415.78 499.73 424.48 504.48C447.14 516.84 538.89 571.85 641 634.29C721.39 683.46 748.17 700.54 749.85 703.75C751.14 706.22 749.78 709.1 745.57 712.8C741.44 716.43 739.57 716.67 736 714.06ZM1882 150.36C1868.67 148.42 1860.09 143.38 1849.92 131.52C1839.14 118.96 1835.65 108.48 1835.56 88.5C1835.52 77.78 1835.9 74.27 1837.71 68.5C1841.84 55.39 1849.62 44.83 1861.12 36.71C1870.43 30.15 1877.19 27.94 1890 27.31C1902.32 26.7 1910.76 28.31 1920.94 33.23C1929.74 37.48 1941.12 48.95 1946.35 58.84C1949.76 65.28 1950.33 67.39 1951.26 76.97C1951.99 84.54 1952 91.3 1951.27 99.3C1950.33 109.62 1949.84 111.52 1946.38 118.14C1943.63 123.42 1940 128.05 1933.52 134.54C1923.28 144.8 1917.26 148.43 1907.97 149.94C1901.86 150.93 1887.48 151.16 1882 150.36ZM1902.04 143.4C1908.53 141.47 1914.1 137.78 1919.7 131.71C1928.56 122.09 1931.27 112.41 1931.22 90.5C1931.16 62.93 1925.57 48.56 1911.2 39.02C1902.86 33.48 1886.95 32.92 1877.31 37.84C1868.24 42.47 1859.85 55.73 1857.82 68.66C1856.42 77.57 1857.43 105.52 1859.45 113.78C1861.49 122.11 1864.23 127.26 1869.74 133.15C1875.2 138.99 1879.84 141.99 1885.95 143.64C1892.2 145.32 1895.73 145.27 1902.04 143.4Z" fill="#1e2749" fill-rule="evenodd"/>
</svg>
