<?xml version="1.0" encoding="UTF-8"?>
<svg xmlns="http://www.w3.org/2000/svg" viewBox="0 0 620 368" width="620" height="368" shape-rendering="geometricPrecision">
<path d="M500.73 328.93C500.17 328.37 500.24 327.44 500.86 327.2C501.15 327.09 504.87 327 509.13 327C517.65 327 518.49 327.16 517.49 328.58C516.97 329.33 516.88 329.33 509.05 329.33C503.34 329.33 501.02 329.22 500.73 328.93ZM94.45 328.17C94.35 327.89 94.35 327.44 94.45 327.17C94.62 326.74 95.88 326.67 102.95 326.67C110.17 326.67 111.31 326.74 111.7 327.2C112.07 327.66 112.05 327.81 111.51 328.2C110.53 328.92 94.73 328.88 94.45 328.17ZM221.12 328.17C221.02 327.89 221.02 327.44 221.12 327.17C221.28 326.74 222.54 326.67 229.59 326.67C238.35 326.67 239.24 326.81 238.11 328.06C237.61 328.61 236.86 328.67 229.44 328.67C222.52 328.67 221.28 328.59 221.12 328.17ZM331.25 327.64C330.93 327.45 330.67 327.01 330.67 326.67C330.67 325.73 331.86 325.61 340.23 325.73C348.2 325.84 349.03 326.02 347.84 327.33C347.26 327.97 346.84 328 339.53 327.99C334.93 327.98 331.6 327.84 331.25 327.64ZM492.87 318.14C492.56 317.33 493.21 316.44 494.24 316.28C494.75 316.2 501.34 316.14 508.88 316.15C522.06 316.17 522.62 316.19 523.32 316.83L524.05 317.48L523.32 318.08C522.65 318.62 521.47 318.67 507.83 318.67C494.72 318.67 493.05 318.61 492.87 318.14ZM87.35 317.85C87.13 317.58 87 317.1 87.06 316.77C87.17 316.2 88.04 316.16 102.02 316.08C114.1 316.01 116.98 316.08 117.48 316.45C118.08 316.88 118.08 316.92 117.38 317.62C116.67 318.33 116.56 318.33 102.21 318.33C89.97 318.33 87.69 318.26 87.35 317.85ZM213.88 317.72C213.13 316.89 213.19 316.38 214.08 316.16C214.5 316.06 221.43 316.02 229.5 316.07C243.69 316.16 244.16 316.19 244.28 316.81C244.56 318.28 244.03 318.33 228.82 318.33C215.31 318.33 214.4 318.3 213.88 317.72ZM323.56 317.11C323.43 316.99 323.33 316.54 323.33 316.11L323.33 315.33L338.65 315.33C348.28 315.33 354.04 315.45 354.16 315.66C354.27 315.84 354.2 316.29 354 316.66C353.65 317.32 353.35 317.33 338.71 317.33C330.5 317.33 323.68 317.23 323.56 317.11ZM495.67 307.67L483.17 307.5L483.17 306.67L483.17 305.83L494.98 305.75C505.38 305.67 506.86 305.59 507.4 305.11C507.97 304.59 508 303.38 508 282.26C508 268 507.88 259.73 507.67 259.33C507.48 258.99 505.04 257.32 502.25 255.62L497.17 252.54L491.17 252.42C485.62 252.3 485.12 252.24 484.58 251.61C484.07 251 484 250.1 484 243.8L484 236.67L474.58 236.66C469.23 236.66 464.95 236.52 464.67 236.34C464.23 236.06 464.18 233.37 464.29 214.6C464.36 200.8 464.53 193.02 464.74 192.75C465.01 192.42 469.6 192.33 485.67 192.33C502.79 192.33 506.32 192.26 506.63 191.87C506.9 191.56 506.99 189.74 506.93 186.12L506.83 180.83L423.25 180.75L339.67 180.67L339.71 190.58C339.73 196.04 339.84 203.28 339.96 206.67C340.2 213.46 340.16 213.66 338.17 214.53C337.62 214.77 332.59 217.72 327 221.08L316.83 227.2L316.74 234.72L316.65 242.25L317.46 242.77C318.42 243.41 318.7 243.17 320.17 240.42C320.69 239.45 321.29 238.67 321.53 238.67C321.76 238.67 323.93 241.36 326.35 244.66C331.08 251.1 331.04 251.06 337.24 254.7L340.31 256.5L340.41 280.33L340.5 304.17L351.67 304.33L362.83 304.5L362.94 305.25C363.02 305.8 362.82 306.09 362.18 306.33C361.25 306.68 315.52 306.81 314.13 306.46C313.52 306.31 313.33 306.03 313.33 305.3L313.33 304.33L325.49 304.33C337.16 304.33 337.66 304.31 337.99 303.69C338.22 303.26 338.33 295.42 338.33 280.54L338.33 258.05L337.42 257.41C336.91 257.06 334.46 255.55 331.97 254.05L327.44 251.33L321.6 251.33C316.1 251.33 315.73 251.29 315.13 250.63C314.56 250 314.48 249.21 314.33 242.72L314.17 235.5L304.62 235.41C297.08 235.34 294.99 235.23 294.7 234.87C294.42 234.54 294.39 228.7 294.58 213.03C294.8 194.57 294.9 191.6 295.33 191.33C295.63 191.14 304.02 191.01 316.38 191.01C332.4 191 336.99 190.91 337.26 190.58C337.47 190.32 337.53 188.39 337.42 185.42L337.24 180.66L284.04 180.75L230.83 180.83L230.67 197.08L230.5 213.32L229.5 214.28C228.95 214.81 223.78 218.06 218 221.5C212.22 224.94 207.32 227.98 207.11 228.24C206.83 228.58 206.71 230.83 206.7 235.61C206.7 242.18 206.73 242.52 207.41 243.24C207.8 243.66 208.31 244 208.55 244C208.79 244 209.53 242.94 210.18 241.64C210.85 240.32 211.54 239.35 211.77 239.42C212.23 239.57 214.31 242.26 218.24 247.74L220.97 251.57L225.28 254.14C227.65 255.55 229.83 256.97 230.13 257.29C230.61 257.82 230.67 260.37 230.75 281.52L230.83 305.17L241.93 305.25C251.43 305.33 253.05 305.41 253.22 305.84C253.32 306.12 253.22 306.56 253 306.84C252.64 307.27 249.39 307.33 228.3 307.33L204.02 307.33L203.65 306.63C203.4 306.17 203.38 305.82 203.6 305.6C203.81 305.39 208.25 305.29 215.46 305.32C223.15 305.35 227.21 305.24 227.66 305C228.32 304.65 228.33 304.35 228.33 281.71C228.33 260.28 228.3 258.74 227.75 258.27C227.43 257.99 225.07 256.51 222.5 254.98L217.83 252.19L211.77 252.01C207.44 251.88 205.57 251.71 205.27 251.4C204.95 251.08 204.79 249.03 204.67 243.73L204.5 236.5L195 236.41C186.44 236.34 185.46 236.27 185.07 235.75C184.73 235.29 184.68 231.03 184.84 214.34C184.95 202.88 185.11 193.16 185.19 192.75L185.35 192L199.47 192C211.62 192 213.64 191.93 214 191.5C214.29 191.15 214.37 190.14 214.27 188.2L214.12 185.4L216.15 185.18C218.7 184.91 219.11 185.07 219.82 186.64C220.36 187.84 220.36 187.98 219.82 189.04C219.03 190.61 218.33 191.33 217.62 191.33C217.28 191.33 217 191.48 217 191.67C217 192.17 227.42 192.11 227.93 191.6C228.21 191.32 228.33 189.65 228.33 186.24C228.33 181.78 228.27 181.19 227.67 180.42C226.88 179.42 226.79 177.41 227.49 176.48C227.76 176.12 227.98 175.75 227.99 175.64C228 175.43 223.32 173.05 221.25 172.21C219.58 171.53 219.5 170.31 221.08 169.57C221.68 169.29 223.67 168.37 225.5 167.52C230.44 165.25 231.78 164.54 231.91 164.13C231.97 163.93 231.3 163.5 230.43 163.17C228.96 162.62 226.79 161.73 225.17 161C224.8 160.83 223.6 160.33 222.5 159.88C221.41 159.43 220.37 158.84 220.2 158.58C219.8 157.94 220.17 157 220.82 157C221.1 157 222.95 156.23 224.92 155.29C226.89 154.35 229.42 153.16 230.55 152.64C231.68 152.13 232.7 151.55 232.82 151.36C232.94 151.16 232 150.53 230.6 149.88C227.09 148.24 224.36 147 222.83 146.34C222.09 146.02 221.29 145.52 221.05 145.23C220.57 144.65 220.82 143.33 221.41 143.33C221.6 143.33 223.36 142.56 225.3 141.63C227.24 140.69 229.78 139.48 230.94 138.94C232.09 138.4 232.98 137.78 232.91 137.58C232.84 137.37 232.13 136.85 231.32 136.42C228.21 134.77 228.36 135.26 228.26 126.36L228.17 118.5L226.72 118.59C224.37 118.74 221.23 120.39 218.97 122.64C216.54 125.07 214.77 128.63 214.25 132.11C213.92 134.36 213.93 134.47 214.68 135.07C215.45 135.7 215.45 135.7 214.79 136.36C214.14 137.01 213.41 137.02 159.15 137.09L104.17 137.17L104.08 175.3C104.02 203.42 103.9 213.56 103.61 213.9C103.4 214.15 98.19 217.38 92.03 221.07C85.87 224.76 80.72 227.94 80.59 228.14C80.45 228.34 80.34 231.74 80.34 235.7C80.33 242.43 80.38 242.93 80.99 243.49C81.94 244.35 82.55 243.93 83.58 241.69C84.55 239.57 85.26 239.17 86.15 240.25C86.42 240.57 88.42 243.28 90.61 246.27L94.59 251.71L99.33 254.61L104.07 257.5L104.02 281.07C103.98 304.15 104 304.64 104.64 304.98C105.05 305.21 109.11 305.33 115.82 305.33C124.92 305.33 126.38 305.4 126.55 305.84C126.65 306.11 126.56 306.57 126.33 306.84C125.97 307.27 122.83 307.33 101.54 307.25L77.17 307.17L77.06 306.25L76.96 305.33L88.74 305.33C98.86 305.33 100.62 305.26 101.26 304.81L102 304.3L102 281.71L102 259.12L101.25 258.44C100.84 258.07 98.4 256.51 95.83 254.98L91.17 252.19L85.1 252.01C80.77 251.88 78.91 251.71 78.6 251.4C78.28 251.08 78.14 249.09 78.07 243.65L77.96 236.33L68.15 236.33C59.04 236.33 58.33 236.29 58.3 235.75C58.28 235.43 58.3 225.57 58.33 213.83C58.38 198.09 58.5 192.44 58.78 192.26C58.99 192.12 68.56 192.01 80.03 192.01C99.79 192 100.93 191.97 101.45 191.39C101.95 190.83 102 187.11 101.99 145.4C101.99 120.44 101.9 99.78 101.79 99.5C101.61 99.03 95.8 96.01 94.11 95.52C93.32 95.29 92.93 94.58 93.19 93.89C93.35 93.47 96.28 91.98 102.37 89.23C105.26 87.92 105.71 87.48 104.6 87.02C97.24 83.97 93.35 82.19 93.2 81.81C92.91 81.05 93.35 80.33 94.08 80.33C94.45 80.33 96.05 79.71 97.63 78.95C99.21 78.2 101.73 77 103.23 76.29C104.73 75.58 106.04 74.87 106.14 74.72C106.3 74.45 103.77 73.19 98.83 71.06C94.94 69.38 94.17 68.88 94.07 67.97C93.98 67.22 94.18 67.01 95.57 66.42C98.67 65.08 105.49 61.66 105.94 61.2C106.33 60.81 106.15 60.63 104.78 59.97C101.72 58.5 102 60.46 102 40.78L102 23.33L271.58 23.42L441.17 23.5L441.25 67.15C441.32 101.56 441.42 110.85 441.75 111.06C441.98 111.2 447.58 111.33 454.21 111.33C465.88 111.33 466.27 111.31 467.12 110.64C467.6 110.26 468 109.76 468 109.52C468 108.68 469.32 107.43 470.79 106.87C472.02 106.4 472.53 106.36 473.65 106.66C475.58 107.18 477.16 108.69 477.66 110.48C478.05 111.86 478.02 112.11 477.29 113.57C476.5 115.16 474.93 116.5 473.41 116.89C471.67 117.32 469.63 116.24 467.74 113.87C467.35 113.38 464.37 113.33 435.68 113.33L404.06 113.33L400.85 114.83C399.09 115.66 397.59 116.33 397.52 116.33C397.45 116.33 396.11 116.93 394.53 117.67C392.96 118.4 390.38 119.6 388.8 120.33C387.22 121.07 385.88 121.67 385.82 121.67C385.76 121.67 384.54 122.21 383.11 122.87C381.67 123.54 379.6 124.49 378.5 125C377.4 125.51 375.33 126.46 373.89 127.13C372.46 127.79 371.23 128.33 371.17 128.33C371.11 128.33 369.66 128.99 367.95 129.79C366.23 130.59 364.16 131.55 363.33 131.92C359.45 133.67 357.39 134.6 356.11 135.16C355.3 135.52 354.64 136.06 354.53 136.47C354.43 136.85 354.34 142.2 354.34 148.35C354.33 159.97 354.29 160.33 352.93 160.33C352.37 160.33 352.33 159.69 352.33 148.99C352.33 139.89 352.25 137.61 351.89 137.48C351.65 137.38 349.99 137.99 348.21 138.82C346.43 139.65 344.92 140.33 344.85 140.33C344.78 140.33 343.33 140.99 341.61 141.79C339.9 142.59 337.75 143.58 336.83 143.99C335.92 144.41 333.92 145.33 332.4 146.04C330.87 146.75 329.58 147.33 329.51 147.33C329.45 147.33 328.15 147.92 326.62 148.63C321.22 151.15 318.62 152.33 318.51 152.33C318.45 152.33 317.15 152.92 315.62 153.63C310.13 156.18 307.62 157.33 307.5 157.33C307.44 157.33 305.8 158.08 303.86 158.99C301.92 159.9 300.12 160.56 299.87 160.47C299.09 160.17 298.98 158.55 299.01 147.91C299.02 142.28 298.94 137.51 298.83 137.32C298.69 137.1 289.56 136.99 271.75 137.01C242.28 137.03 243.62 137.12 244.17 135.11C244.32 134.59 244.4 133.72 244.37 133.17C244.26 131.56 243.07 127.97 242.08 126.26C240.98 124.37 238.32 121.54 236.62 120.47C235.46 119.74 231.77 118.33 231 118.33C230.77 118.33 230.68 120.82 230.74 126.04L230.83 133.74L233.77 135.24C235.39 136.06 236.8 136.95 236.9 137.21C237.19 137.97 236.13 138.86 233.48 140.12C232.12 140.77 229.66 141.93 228.01 142.72C224.95 144.17 224.41 144.79 225.75 145.3C226.16 145.46 227.7 146.14 229.17 146.82C230.63 147.5 233 148.59 234.42 149.25C237.44 150.65 237.67 151.23 235.67 152.5C234.94 152.96 234.29 153.33 234.22 153.33C234.15 153.33 232.04 154.31 229.54 155.5C225.09 157.62 224.18 158.4 225.58 158.89C226.47 159.21 234.02 162.32 235.27 162.88C237.08 163.7 236.63 164.61 233.67 166.06C229.29 168.22 224.64 170.33 224.29 170.33C223.36 170.33 224.48 171.22 227.16 172.62C228.88 173.51 230.36 174.53 230.65 175.02C230.94 175.48 231.52 176.42 231.95 177.1L232.73 178.33L370.53 178.33L508.32 178.33L508.82 179.1C509.24 179.75 509.32 182.38 509.34 197.14C509.36 206.86 509.24 214.56 509.07 214.73C508.91 214.89 503.76 218.06 497.64 221.77L486.5 228.52L486.41 235.9C486.33 242.37 486.39 243.34 486.87 243.82C487.74 244.7 488.43 244.29 489.51 242.27C490.06 241.23 490.61 240.28 490.73 240.16C491.22 239.67 492.28 240.84 496.29 246.33L500.5 252.09L504.77 254.66C507.11 256.07 509.25 257.45 509.53 257.72C509.95 258.14 510.02 261.39 510 281.48C509.99 298.37 510.1 304.88 510.37 305.21C510.68 305.58 512.76 305.67 521.18 305.67C526.92 305.67 531.85 305.76 532.14 305.87C532.78 306.11 532.82 306.79 532.24 307.28C531.71 307.71 513.64 307.91 495.67 307.67ZM77.32 287.25C77.31 287.2 77.27 285.11 77.24 282.6C77.17 278.29 77.2 278.02 77.83 277.86C79.05 277.54 79.3 278.29 79.35 282.55C79.38 284.78 79.31 286.77 79.18 286.97C79 287.27 77.37 287.52 77.32 287.25ZM72.67 285.52C70.82 285.01 68.55 283.87 67 282.68C66.36 282.19 65.13 281.39 64.28 280.9C61.31 279.19 59.67 276.44 59.67 273.17C59.67 269.89 61.37 267.02 64.11 265.7C66.14 264.71 69.56 264.74 71.59 265.75C74.73 267.32 76.68 271.22 75.99 274.55C75.52 276.8 73.98 279.08 72.15 280.24C71.35 280.75 70.69 281.4 70.68 281.68C70.67 282.19 72.63 284.33 73.1 284.33C73.37 284.33 74.67 285.58 74.67 285.83C74.67 286.05 74.45 286.02 72.67 285.52ZM483.56 282.44C482.88 281.76 483.42 281.33 484.96 281.33C485.95 281.33 486.74 281.15 486.97 280.87C487.54 280.18 487.08 278.81 486.14 278.38C485.15 277.93 485.13 277.55 486.05 276.26C486.97 274.97 486.55 274.14 485.04 274.22C483.86 274.27 483.68 273.73 484.61 272.88C485.43 272.14 486.39 272.19 487.46 273.02C488.34 273.72 488.64 275.1 488 275.5C487.5 275.81 487.6 276.98 488.17 277.55C489.04 278.42 488.8 280.28 487.68 281.32C486.53 282.4 484.16 283.04 483.56 282.44ZM490.16 282.2C489.64 281.82 489.6 281.65 489.94 281.24C490.46 280.62 491.6 280.29 491.85 280.7C491.96 280.86 492.86 281 493.85 281C495.78 281 496.03 281.23 495.06 282.12C494.29 282.81 491.07 282.87 490.16 282.2ZM318.22 281.44C317.57 280.79 318.08 280.33 319.46 280.33C320.34 280.33 321.08 280.14 321.33 279.84C321.93 279.11 321.46 277.7 320.49 277.33C319.44 276.93 319.45 276.32 320.5 275.33C320.96 274.9 321.33 274.44 321.33 274.3C321.33 273.7 320.18 272.97 319.37 273.07C318.19 273.2 318.22 272.35 319.42 271.68C320.23 271.22 320.43 271.22 321.22 271.67C322.6 272.45 322.88 273.12 322.38 274.49C322 275.55 322.02 275.76 322.64 276.55C323.61 277.78 323.52 279.03 322.39 280.11C321.2 281.25 318.8 282.02 318.22 281.44ZM479.33 280.65C477.4 280.2 475.26 279.17 473.6 277.9C472.74 277.24 471.47 276.4 470.77 276.05C469.43 275.36 467.88 273.84 466.81 272.17C466.31 271.37 466.18 270.56 466.18 268.17C466.18 265.5 466.28 265.02 467.05 263.83C468.89 261.01 470.77 260 474.19 260C476.74 260 478.08 260.53 479.84 262.24C482.26 264.59 483.02 268.37 481.67 271.4C481.04 272.84 478.06 276 477.35 276C477.16 276 477 276.29 477 276.64C477 277.23 480.15 280.33 480.74 280.33C480.88 280.33 481 280.48 481 280.67C481 281.04 480.96 281.04 479.33 280.65ZM210.82 280.2C210.21 279.75 210.25 279.67 211.58 278.38C212.9 277.1 214.33 274.59 214.33 273.56C214.33 272.69 213.39 272.24 212 272.42C210.46 272.63 210.33 272.31 211.48 271.15C212.44 270.2 212.99 270.14 214.36 270.85C216.51 271.96 216.31 274.19 213.83 276.86C213.02 277.73 212.44 278.56 212.53 278.72C212.63 278.87 213.45 279 214.35 279C215.61 279 216 279.12 216 279.51C216 280.59 212.08 281.12 210.82 280.2ZM70.82 278.92C71.97 277.76 72.3 277.12 72.66 275.42C73.43 271.72 72.13 267.77 69.84 266.81C67.38 265.79 64.8 266.55 63.78 268.61C62.94 270.29 62.92 276.01 63.75 277.54C64.72 279.35 66.19 280.33 67.9 280.33C69.25 280.33 69.58 280.17 70.82 278.92ZM312.67 279.52C310.77 279 309.48 278.33 307.61 276.9C306.8 276.28 305.42 275.36 304.55 274.85C301.73 273.19 300.33 270.6 300.34 267.04C300.35 264.09 301.56 261.6 303.68 260.18C304.95 259.31 305.53 259.16 307.67 259.07C309.88 258.99 310.36 259.09 311.83 259.91C317.23 262.91 317.33 270.49 312.03 274.39C311.28 274.94 310.67 275.59 310.67 275.83C310.67 276.23 311.6 277.13 313.78 278.83C314.61 279.48 314.92 280.03 314.42 279.97C314.28 279.95 313.49 279.75 312.67 279.52ZM492.42 278.75C493.57 276.89 494 275.73 493.79 275.17C493.54 274.53 492.27 274.19 491.17 274.47C490.49 274.64 490.33 274.56 490.33 274.03C490.33 273.28 491.51 272.33 492.44 272.33C493.43 272.33 494.94 273.38 495.33 274.34C495.81 275.49 495.43 276.43 493.68 278.42C492 280.31 491.36 280.48 492.42 278.75ZM204.67 278.52C202.77 278 201.48 277.33 199.61 275.9C198.8 275.28 197.42 274.36 196.55 273.85C193.73 272.19 192.33 269.6 192.34 266.04C192.35 263.21 193.56 260.62 195.51 259.27C196.75 258.41 198.67 258.01 198.67 258.6C198.67 258.75 198.14 259.38 197.51 259.99C195.96 261.49 195.52 262.93 195.54 266.33C195.58 270.76 197.25 273.33 200.09 273.33C201.21 273.33 201.64 273.11 202.84 271.92C204.65 270.11 205.31 267.55 204.71 264.65C204.13 261.79 204.17 261.56 205.25 261.82C207 262.25 207.61 262.9 207.86 264.58C208.37 267.95 206.93 271.25 204.03 273.39C203.28 273.94 202.67 274.59 202.67 274.83C202.67 275.23 203.6 276.13 205.78 277.83C206.61 278.48 206.92 279.03 206.42 278.97C206.28 278.95 205.49 278.75 204.67 278.52ZM477.01 274.16C478.52 272.71 479.09 270.82 478.94 267.77C478.73 263.66 477.4 261.74 474.51 261.42C472.69 261.21 470.83 262.07 470.07 263.46C469.64 264.24 469.5 265.33 469.5 267.84C469.5 271.71 470.06 273.37 471.77 274.61C473.26 275.68 475.63 275.48 477.01 274.16ZM310.84 272.92C312.68 271.07 313.31 268.56 312.68 265.51C311.89 261.63 310.83 260.5 307.99 260.5C306.41 260.5 305.9 260.65 305.2 261.3C303.98 262.45 303.52 264.11 303.54 267.33C303.58 271.76 305.25 274.33 308.09 274.33C309.21 274.33 309.64 274.11 310.84 272.92ZM354.33 252.68C353.6 252.5 353.49 252.27 353.4 250.74L353.3 249L354.92 249C356.75 249 357.33 249.41 357.33 250.68C357.33 252.09 355.88 253.07 354.33 252.68ZM361.33 252.68C360.6 252.5 360.49 252.27 360.4 250.74L360.3 249L361.92 249C363.75 249 364.33 249.41 364.33 250.68C364.33 252.09 362.88 253.07 361.33 252.68ZM368.33 252.68C367.6 252.5 367.49 252.27 367.4 250.74L367.3 249L368.92 249C370.75 249 371.33 249.41 371.33 250.68C371.33 252.09 369.88 253.07 368.33 252.68ZM375.33 252.68C374.6 252.5 374.49 252.27 374.4 250.74L374.3 249L375.92 249C377.75 249 378.33 249.41 378.33 250.68C378.33 252.09 376.88 253.07 375.33 252.68ZM382.33 252.68C381.6 252.5 381.49 252.27 381.4 250.74L381.3 249L382.92 249C384.75 249 385.33 249.41 385.33 250.68C385.33 252.09 383.88 253.07 382.33 252.68ZM389.33 252.68C388.6 252.5 388.49 252.27 388.4 250.74L388.3 249L389.92 249C391.75 249 392.33 249.41 392.33 250.68C392.33 252.09 390.88 253.07 389.33 252.68ZM396.33 252.68C395.6 252.5 395.49 252.27 395.4 250.74L395.3 249L396.92 249C398.75 249 399.33 249.41 399.33 250.68C399.33 252.09 397.88 253.07 396.33 252.68ZM403.33 252.68C402.6 252.5 402.49 252.27 402.4 250.74L402.3 249L403.92 249C405.75 249 406.33 249.41 406.33 250.68C406.33 252.09 404.88 253.07 403.33 252.68ZM410.25 252.74C409.38 252.63 409.33 252.54 409.33 250.81L409.33 249L410.93 249C412.75 249 413.33 249.41 413.33 250.68C413.33 252.08 412.02 252.96 410.25 252.74ZM417.25 252.74C416.38 252.63 416.33 252.54 416.33 250.81L416.33 249L417.93 249C419.75 249 420.33 249.41 420.33 250.68C420.33 252.08 419.02 252.96 417.25 252.74ZM424.25 252.74C423.38 252.63 423.33 252.54 423.33 250.81L423.33 249L424.93 249C426.75 249 427.33 249.41 427.33 250.68C427.33 252.08 426.02 252.96 424.25 252.74ZM431.25 252.74C430.38 252.63 430.33 252.54 430.33 250.81L430.33 249L431.93 249C433.75 249 434.33 249.41 434.33 250.68C434.33 252.08 433.02 252.96 431.25 252.74ZM438.25 252.74C437.38 252.63 437.33 252.54 437.33 250.81L437.33 249L438.93 249C440.75 249 441.33 249.41 441.33 250.68C441.33 252.08 440.02 252.96 438.25 252.74ZM444.92 252.78C444.45 252.65 444.33 252.25 444.33 250.81L444.33 249L445.93 249C447.75 249 448.33 249.41 448.33 250.68C448.33 252.11 446.53 253.22 444.92 252.78ZM452.25 252.74C451.38 252.63 451.33 252.54 451.33 250.81L451.33 249L452.93 249C454.75 249 455.33 249.41 455.33 250.68C455.33 252.08 454.02 252.96 452.25 252.74ZM487.14 246.63C486.81 246.08 486.33 246.33 486.33 247.04C486.33 247.63 486.42 247.68 486.83 247.34C487.1 247.11 487.24 246.79 487.14 246.63ZM81 246.48C81 246.22 80.85 246 80.67 246C80.48 246 80.33 246.31 80.33 246.69C80.33 247.06 80.48 247.28 80.67 247.17C80.85 247.05 81 246.74 81 246.48ZM207.48 246.3C207.14 245.75 206.67 245.99 206.67 246.71C206.67 247.3 206.75 247.35 207.16 247C207.44 246.78 207.58 246.46 207.48 246.3ZM317.33 245.65C317.33 245.29 317.18 245 317 245C316.82 245 316.67 245.38 316.67 245.85C316.67 246.34 316.81 246.62 317 246.5C317.18 246.39 317.33 246 317.33 245.65ZM484 227.33L484.17 220.5L484.96 220.39C486.07 220.23 486.32 220.81 486.33 223.58C486.33 225.91 486.51 226.34 487.18 225.7C487.46 225.43 491.83 222.76 503.42 215.75L507 213.58L507 204.16C507 195.88 506.94 194.71 506.47 194.54C505.55 194.18 467.06 194.3 466.84 194.66C466.56 195.11 466.17 233.1 466.44 233.79C466.63 234.29 467.51 234.34 475.24 234.26L483.83 234.17L484 227.33ZM78 226.94C78.09 223.15 78.28 219.94 78.42 219.81C78.55 219.67 79.04 219.73 79.5 219.94C80.28 220.3 80.33 220.47 80.33 222.83C80.33 225.42 80.57 225.8 81.64 224.88C81.93 224.63 86.48 221.85 91.75 218.7C97.02 215.55 101.48 212.68 101.66 212.34C101.86 211.96 102 208.28 102 203.2C102 195.13 101.97 194.67 101.36 194.35C100.93 194.12 93.87 194 80.74 194L60.77 194L60.55 204.75C60.43 210.66 60.33 219.66 60.33 224.76L60.33 234.01L69.08 233.92L77.83 233.83L78 226.94ZM204.26 233.58C204.46 233.34 204.6 230.55 204.61 226.74C204.63 223.21 204.73 220.17 204.84 219.99C205.16 219.48 206.24 219.61 206.46 220.19C206.58 220.48 206.67 221.68 206.67 222.84C206.67 224.01 206.82 225.05 207 225.17C207.3 225.35 225.13 214.92 227.5 213.17L228.5 212.43L228.33 203.3L228.17 194.17L207.94 194.08C196.57 194.03 187.63 194.12 187.53 194.29C187.43 194.45 187.24 203.45 187.12 214.29L186.89 234L195.4 234C201.81 234 204 233.9 204.26 233.58ZM313.95 232.89C314.18 232.61 314.35 230.02 314.41 225.81L314.5 219.17L315.3 219.05C316.41 218.9 316.66 219.48 316.66 222.28C316.66 223.62 316.78 224.67 316.92 224.61C318.25 224.03 336.64 212.76 337.09 212.25C337.63 211.64 337.67 210.78 337.59 202.54L337.5 193.5L317.3 193.41L297.11 193.33L296.89 205.89C296.61 221.94 296.61 232.83 296.89 233.11C297.01 233.23 300.82 233.33 305.35 233.33C311.78 233.33 313.67 233.24 313.95 232.89ZM217.93 189.93C218.5 189.36 218.43 187.48 217.81 186.86C216.74 185.79 216 186.4 216 188.33C216 190.19 216.92 190.95 217.93 189.93ZM206.08 184.92C205.89 184.69 204.89 182.47 203.85 180C202.81 177.53 201.83 175.2 201.67 174.83C201.5 174.47 201.04 173.38 200.65 172.43C200.23 171.42 199.66 170.6 199.28 170.48C198.9 170.36 198.67 170.04 198.73 169.72C198.82 169.28 199.29 169.15 201 169.08C203.67 168.97 204.41 169.33 203.54 170.29C202.96 170.93 202.98 171.04 204.16 173.89C204.83 175.51 205.69 177.62 206.07 178.59C206.79 180.42 207.37 180.52 207.86 178.89C207.98 178.49 208.28 177.72 208.52 177.17C208.77 176.62 209.43 174.97 209.99 173.5C210.92 171.07 210.96 170.8 210.46 170.43C209.45 169.69 210.17 169 211.97 169C213.85 169 214.42 169.52 213.43 170.32C212.67 170.94 212.22 171.87 210.51 176.33C209.84 178.07 209.1 179.95 208.86 180.5C208.62 181.05 208.15 182.21 207.83 183.08C207.14 184.94 206.58 185.53 206.08 184.92ZM163.34 167.63C162.4 167.25 162.01 166.75 162.01 165.92C162 165.18 163.14 165.15 164.8 165.84C166.21 166.43 166.81 166.22 168.13 164.65C169.17 163.41 169.23 162.22 168.34 160.75C167.53 159.42 166.04 158.48 164.35 158.21C163.6 158.09 162.98 157.77 162.86 157.44C162.73 157.1 163.18 155.76 163.98 154.09L165.32 151.3L167.91 151.4C170.23 151.49 170.51 151.57 170.6 152.19C170.76 153.31 169.69 153.95 167.49 154.06C165.79 154.15 165.5 154.26 165.5 154.81C165.5 155.22 166.02 155.72 167 156.24C169.11 157.35 170.29 158.59 170.7 160.12C171.17 161.86 170.87 163.29 169.69 164.91C168.06 167.16 165.22 168.38 163.34 167.63ZM174.58 167.43C173.55 167.27 173.34 166.35 174.17 165.67C174.93 165.04 174.89 154.41 174.13 152.92C173.62 151.94 173.63 151.85 174.21 151.43C174.55 151.18 175.28 151.01 175.83 151.07L176.83 151.17L176.93 155.58C177 158.89 177.13 160 177.44 160C178.14 160 180 157.86 180 157.07C180 156.4 180.17 156.33 181.83 156.33C182.84 156.33 183.67 156.45 183.67 156.58C183.67 156.72 182.69 157.55 181.5 158.44C180.08 159.49 179.33 160.27 179.33 160.71C179.33 161.54 182.6 165.9 183.44 166.19C184.33 166.49 183.93 167.13 182.64 167.45C181.08 167.83 179.67 167.26 179.67 166.25C179.67 165.47 177.87 163 177.31 163C176.78 163 176.97 165.42 177.56 166.06C177.9 166.44 178 166.8 177.81 166.97C177.39 167.37 175.71 167.6 174.58 167.43ZM185.75 167.32C184.96 167.01 184.72 165.62 185.3 164.71C185.53 164.34 185.73 164.36 186.43 164.82C187.33 165.41 189.37 165.41 189.56 164.83C189.62 164.65 189.21 164.29 188.65 164.05C187.4 163.49 186.17 161.69 185.62 159.61C184.23 154.36 190.17 149.93 196.05 151.84C199.6 152.99 201.33 155.15 201.33 158.42C201.33 160.52 200.05 162.87 198.36 163.87C196.81 164.79 197 165.45 198.75 165.2C201.84 164.75 201.83 164.74 201.83 165.82C201.83 167.12 200.78 167.66 198.23 167.66C195.44 167.67 194.89 167.3 195.17 165.56C195.34 164.56 195.79 163.77 196.78 162.74L198.17 161.3L198.17 158.68C198.17 156.53 198.04 155.88 197.47 155.11C195.74 152.77 193.4 152.11 191.06 153.3C189.4 154.15 188.67 155.75 188.67 158.53C188.67 160.93 189.11 162.06 190.66 163.61C192.01 164.96 192.09 166.85 190.81 167.34C189.76 167.74 186.76 167.73 185.75 167.32ZM393.68 157.64C392.73 157.25 392.35 156.75 392.34 155.92C392.33 155.48 392.61 155.33 393.43 155.33C394.04 155.33 394.69 155.49 394.89 155.69C395.08 155.88 395.72 156.06 396.31 156.07C397.92 156.12 399.42 154.49 399.42 152.71C399.42 150.39 398.03 148.95 395.09 148.2C393.01 147.67 392.92 147.01 394.49 143.79L395.7 141.31L398.6 141.4C401.29 141.49 401.49 141.55 401.39 142.17C401.22 143.23 400.34 143.67 398.34 143.67C395.2 143.67 394.73 144.92 397.42 146.13C401.38 147.91 402.71 151.22 400.73 154.35C399.06 156.97 395.79 158.5 393.68 157.64ZM308.33 154.59C309.16 154.22 311.23 153.25 312.95 152.45C314.66 151.65 316.11 151 316.17 151C316.23 151 317.46 150.46 318.89 149.79C320.33 149.13 322.4 148.17 323.5 147.67C324.6 147.16 326.67 146.2 328.11 145.54C329.54 144.88 330.77 144.33 330.83 144.33C330.89 144.33 332.34 143.68 334.05 142.88C335.77 142.08 337.92 141.09 338.83 140.67C339.75 140.26 341.25 139.58 342.17 139.16C343.08 138.74 344.7 138.01 345.75 137.53C349.41 135.88 351.51 134.92 354.27 133.63C355.79 132.92 357.09 132.33 357.16 132.33C357.22 132.33 358.67 131.68 360.39 130.88C362.1 130.08 364.25 129.09 365.17 128.67C366.08 128.26 367.58 127.58 368.5 127.16C369.42 126.74 370.99 126.02 372 125.57C375.52 123.98 377.85 122.91 380.6 121.63C382.13 120.92 383.43 120.33 383.49 120.33C383.55 120.33 385.01 119.68 386.72 118.88C390.67 117.04 392.94 116.01 395.67 114.83C398.12 113.77 399.54 112.61 399.16 111.99C399.02 111.77 397.92 111.14 396.7 110.59C393.03 108.93 390.37 107.71 384.23 104.87C382.79 104.21 381.57 103.67 381.51 103.67C381.45 103.67 380.11 103.07 378.53 102.33C376.96 101.6 374.38 100.4 372.8 99.67C371.22 98.93 369.88 98.33 369.82 98.33C369.72 98.33 367.12 97.15 361.72 94.63C360.19 93.92 358.88 93.33 358.82 93.33C358.76 93.33 357.46 92.75 355.94 92.04C354.41 91.33 352.27 90.34 351.17 89.84C350.07 89.34 347.59 88.22 345.67 87.34C343.74 86.46 341.42 85.41 340.5 84.99C339.58 84.58 337.43 83.59 335.72 82.79C334.01 81.99 332.55 81.33 332.49 81.33C332.43 81.33 331.05 80.72 329.44 79.97C327.82 79.22 325.82 78.3 325 77.92C324.17 77.55 322.1 76.59 320.39 75.79C318.67 74.99 317.22 74.33 317.16 74.33C317.1 74.33 315.88 73.79 314.44 73.13C313.01 72.47 310.72 71.41 309.35 70.78C307.99 70.15 306.12 69.31 305.19 68.92C304.26 68.53 303.2 68.01 302.84 67.77C301.26 66.71 301.33 64.55 301.33 112.28C301.33 137 301.42 157.31 301.53 157.41C301.63 157.52 302.87 157.08 304.28 156.44C305.68 155.8 307.51 154.97 308.33 154.59ZM384 157.43C382.64 157.18 382.48 156.75 383.44 155.99L384.33 155.28L384.33 149.95C384.33 144.63 384.1 143.33 383.15 143.33C382.89 143.33 382.67 143.14 382.67 142.91C382.67 142.3 384.76 141.25 385.71 141.39L386.5 141.5L386.59 148.78C386.68 155.72 386.71 156.07 387.34 156.24C388.08 156.43 388.22 156.95 387.58 157.15C386.72 157.42 384.8 157.57 384 157.43ZM410.63 155.75C410.23 154.88 409.42 153.04 408.83 151.67C405.63 144.25 405.01 143.04 404.08 142.42C403.67 142.15 403.33 141.79 403.33 141.63C403.33 141.47 404.68 141.33 406.33 141.33C408.17 141.33 409.33 141.47 409.33 141.68C409.33 141.87 409.11 142.11 408.83 142.21C408.56 142.32 408.33 142.74 408.33 143.15C408.33 144.08 411.84 152.11 412.32 152.27C412.51 152.34 412.82 151.96 413 151.44C413.19 150.92 413.49 150.2 413.66 149.83C414.29 148.46 415.26 146.11 415.85 144.54C416.42 143.02 416.42 142.89 415.89 142.5C414.78 141.69 415.28 141.33 417.5 141.33C419.67 141.33 420.22 141.68 419.04 142.31C418.32 142.7 418.04 143.29 414.98 150.67C412.91 155.69 412.09 157.33 411.67 157.33C411.49 157.33 411.02 156.62 410.63 155.75ZM367.75 152.11C367.52 152.02 367.33 151.58 367.33 151.14L367.33 150.33L373.15 150.33C379.22 150.33 379.89 150.49 378.81 151.69C378.28 152.27 377.77 152.33 373.2 152.31C370.43 152.29 367.98 152.21 367.75 152.11ZM211.12 134.39C211.42 134.05 211.83 132.89 212.02 131.81C213.41 124.11 218.54 118.21 225.21 116.64C226.1 116.42 227.17 116.12 227.58 115.97L228.33 115.68L228.33 95.53C228.33 79.77 228.24 75.32 227.92 75.11C227.69 74.96 225.85 74.06 223.83 73.11C220.77 71.66 220.17 71.25 220.17 70.62C220.17 69.78 220.66 69.49 227.33 66.48C229.62 65.45 231.71 64.4 231.97 64.15C232.38 63.76 232.33 63.65 231.64 63.39C230.54 62.97 226.65 61.37 225.83 61C225.47 60.84 224.42 60.39 223.5 60.01C220.54 58.79 220.17 58.52 220.17 57.67C220.17 57.04 220.39 56.81 221.17 56.65C221.72 56.53 224.25 55.43 226.79 54.22C229.34 53 231.51 52 231.63 51.99C231.74 51.99 232.18 51.72 232.6 51.4L233.36 50.81L231.93 50.18C229.55 49.14 223.58 46.38 222.33 45.76C221.53 45.35 221.14 44.9 221.08 44.33C220.99 43.56 221.43 43.29 227.02 40.59C230.45 38.94 233 37.51 232.93 37.3C232.86 37.09 232.16 36.57 231.36 36.15C228.44 34.58 228.36 34.43 228.26 29.7L228.17 25.5L166.17 25.5L104.17 25.5L104.07 40.67C104.02 49.01 104.06 56.15 104.15 56.53C104.26 56.98 105.26 57.73 107 58.66C110.26 60.42 110.62 60.79 109.88 61.61C109.58 61.95 106.86 63.41 103.83 64.86C98.45 67.45 97.74 68.01 99 68.7C99.27 68.85 100.47 69.42 101.67 69.95C102.86 70.48 104.58 71.26 105.5 71.67C106.42 72.09 107.81 72.7 108.59 73.04C109.37 73.37 110.1 73.88 110.21 74.16C110.59 75.15 110.28 75.34 100.75 79.85C98.06 81.12 97.41 81.83 98.58 82.21C99.14 82.4 100.77 83.06 102.17 83.67C102.53 83.83 104.18 84.52 105.83 85.2C107.48 85.88 109.03 86.61 109.26 86.83C110.1 87.59 109.2 88.42 105.87 89.97C104.02 90.83 101.41 92.05 100.08 92.66C98.75 93.28 97.67 93.98 97.67 94.22C97.67 94.46 99.01 95.33 100.64 96.15C102.28 96.98 103.71 97.8 103.83 97.99C103.95 98.19 104.03 106.38 104.01 116.21C103.99 129.27 104.08 134.2 104.36 134.54C104.69 134.93 112.87 135 157.66 135C208.52 135 210.58 134.98 211.12 134.39ZM299 112.92C299.09 100.86 299.12 90.85 299.06 90.67C298.98 90.45 287.22 90.33 264.8 90.33L230.66 90.33L230.75 103.21L230.83 116.08L233.02 116.65C236.18 117.47 238.54 118.87 241 121.37C243.89 124.31 245.98 128.52 246.52 132.5C246.65 133.42 246.9 134.36 247.08 134.59C247.35 134.92 252.81 134.99 273.13 134.92L298.83 134.83L299 112.92ZM305.2 133.8C305.09 133.51 305.08 133.14 305.19 132.97C305.45 132.54 315.91 132.58 316.18 133.01C316.29 133.21 316.21 133.58 315.99 133.85C315.67 134.23 314.54 134.33 310.49 134.33C306.15 134.33 305.37 134.26 305.2 133.8ZM494.86 126.31C494.26 125.6 494 124.89 494 124.01C494 122.22 494.81 121.4 496.83 121.15C498.23 120.97 498.65 121.05 499.42 121.66C499.92 122.06 500.33 122.61 500.33 122.89C500.33 123.16 500.52 123.32 500.75 123.25C501.01 123.16 501.13 122.65 501.06 121.89C500.98 120.97 501.07 120.67 501.45 120.67C502.49 120.67 503 121.66 503 123.7C503 125.17 503.13 125.74 503.5 125.88C504.53 126.27 505 125.35 505 122.96C505 121.23 505.11 120.67 505.46 120.67C506.31 120.67 506.6 121.49 506.72 124.33L506.83 127.17L504.33 127.17L501.83 127.17L501.46 126.01C501.02 124.66 500.48 124.36 500.18 125.31C499.83 126.41 498.37 127.33 496.98 127.33C495.99 127.33 495.55 127.12 494.86 126.31ZM508.42 126.92C508.24 126.69 508 125.03 507.89 123.24C507.71 120.42 507.76 119.94 508.22 119.77C508.52 119.65 509 119.71 509.3 119.9C509.74 120.18 509.81 120.75 509.72 123.12C509.62 125.54 509.69 126.03 510.14 126.2C510.56 126.36 510.6 126.52 510.3 126.87C509.82 127.45 508.86 127.47 508.42 126.92ZM498.27 125.93C498.96 125.24 498.74 123.25 497.83 122.17L497 121.17L496.33 121.95C495.54 122.89 495.5 123.62 496.15 125.18C496.65 126.38 497.51 126.69 498.27 125.93ZM487.04 119.93C486.7 119.14 486.09 117.75 485.67 116.83C485.25 115.92 484.19 113.52 483.31 111.5C482.44 109.48 481.26 107.31 480.69 106.68C480.13 106.04 479.67 105.41 479.67 105.26C479.67 104.96 484.79 104.9 485.09 105.2C485.21 105.32 485.07 105.76 484.79 106.18C484.32 106.9 484.36 107.12 485.25 109.06C485.78 110.22 486.71 112.33 487.33 113.75C487.95 115.17 488.57 116.33 488.71 116.33C489 116.33 489.32 115.66 491.46 110.52C492.82 107.27 492.93 106.81 492.49 106.33C491.57 105.3 491.91 105 494 105C496.13 105 496.64 105.51 495.38 106.4C494.71 106.87 494.59 107.12 491.14 115.28C489.85 118.32 488.57 120.87 488.24 121.05C487.75 121.31 487.56 121.13 487.04 119.93ZM473.97 114.18C476.07 113.1 476.06 110.35 473.96 109.2C470.86 107.51 468.14 111.19 470.64 113.69C471.73 114.78 472.58 114.9 473.97 114.18ZM438.77 110.92C439.3 110.53 439.33 107.66 439.25 68L439.17 25.5L334.91 25.42L230.65 25.33L230.74 29.36L230.83 33.39L233.78 34.97C237.04 36.72 237.54 37.22 236.82 38.01C236.56 38.3 233.87 39.73 230.84 41.18C225.26 43.87 224.34 44.64 226.08 45.19C226.5 45.32 228.11 46.02 229.67 46.74C234.47 48.98 235.29 49.33 235.57 49.34C235.71 49.34 236.19 49.62 236.62 49.96C237.3 50.48 237.36 50.66 237.02 51.29C236.81 51.7 235.78 52.41 234.73 52.89C233.69 53.36 231.14 54.56 229.07 55.54C227 56.53 225.16 57.33 224.99 57.33C224.81 57.33 224.67 57.49 224.67 57.69C224.67 58.08 226.64 59.03 231.91 61.18C233.86 61.97 235.74 62.86 236.09 63.17C236.71 63.7 236.71 63.73 236.11 64.4C235.78 64.77 234.67 65.46 233.67 65.92C224.07 70.32 224.5 70.1 224.5 70.59C224.5 70.79 225.89 71.65 227.58 72.49C229.28 73.34 230.67 74.22 230.68 74.44C230.69 74.65 230.68 77.79 230.67 81.41L230.64 87.99L264.52 88.08C289.24 88.14 298.47 88.07 298.7 87.79C298.87 87.58 299.04 82.51 299.09 76.23C299.15 67.87 299.27 64.93 299.58 64.62C300.01 64.19 301.34 64.69 307.83 67.69C309.3 68.37 311.25 69.26 312.17 69.67C313.08 70.09 315.23 71.08 316.95 71.88C318.66 72.68 320.11 73.33 320.18 73.33C320.24 73.33 321.62 73.95 323.23 74.7C324.85 75.45 326.84 76.37 327.67 76.74C328.49 77.12 330.57 78.08 332.28 78.88C333.99 79.68 335.45 80.33 335.51 80.33C335.57 80.33 336.72 80.84 338.06 81.46C339.4 82.08 341.69 83.14 343.15 83.81C344.6 84.48 346.55 85.36 347.48 85.76C348.41 86.15 349.69 86.74 350.33 87.05C352.32 88.03 352.33 87.95 352.33 75.58L352.33 64.62L353.25 64.73L354.17 64.83L354.33 76.83L354.5 88.83L356.5 89.85C357.6 90.41 359.26 91.19 360.19 91.58C361.85 92.29 364.43 93.46 369.95 96.04C371.48 96.75 372.78 97.33 372.84 97.33C372.95 97.33 375.55 98.52 380.95 101.04C382.48 101.75 383.78 102.33 383.85 102.33C383.91 102.33 385.21 102.92 386.73 103.63C388.25 104.34 390.25 105.26 391.17 105.67C392.08 106.09 394.23 107.08 395.95 107.88C397.66 108.68 399.12 109.33 399.19 109.33C399.26 109.33 400.11 109.7 401.07 110.14C402.04 110.58 403.06 111.02 403.33 111.11C403.61 111.2 411.57 111.29 421.02 111.31C434.28 111.33 438.34 111.24 438.77 110.92ZM317.5 100.92C317.42 100.69 317.31 99.52 317.26 98.33L317.17 96.17L315.01 96.07C312.82 95.96 312 95.62 312 94.79C312 94.45 312.53 94.33 314.02 94.33C317.07 94.33 317.33 94.09 317.33 91.32C317.33 89.1 317.37 89 318.13 89C319.12 89 319.33 89.53 319.33 91.99C319.33 94.25 319.45 94.33 322.36 94.33C323.76 94.33 324.33 94.46 324.33 94.77C324.33 95.64 323.5 96 321.43 96L319.33 96L319.33 98.27C319.33 100.51 319 101.33 318.09 101.33C317.85 101.33 317.58 101.15 317.5 100.92ZM36.08 81.34C35.67 81.16 35.33 80.93 35.33 80.81C35.33 80.7 36.58 79.27 38.11 77.63C41.24 74.27 42.33 72.4 42.33 70.37C42.33 68.33 41.13 67.18 39.24 67.44C38.35 67.56 37.67 67.89 37.29 68.39C36.52 69.41 35.82 68.85 36.3 67.59C36.94 65.91 37.94 65.33 40.21 65.33C42.1 65.33 42.39 65.43 43.45 66.43C45.87 68.71 45.21 71.52 41.17 76.15C39.67 77.87 39.04 78.84 39.26 79.06C39.62 79.42 43.33 79.27 44.58 78.84C45.23 78.63 45.33 78.71 45.33 79.41C45.33 81.04 44.29 81.49 40.38 81.58C38.43 81.62 36.5 81.51 36.08 81.34ZM49.66 80.36C48.04 78.67 47.33 76.52 47.33 73.33C47.33 70.18 48.05 67.97 49.55 66.47C50.56 65.46 50.89 65.33 52.45 65.33C53.99 65.33 54.32 65.46 55.23 66.42C57.15 68.44 57.49 69.48 57.49 73.33C57.49 76.28 57.37 77.05 56.76 78.2C55.62 80.34 53.91 81.67 52.27 81.67C51.11 81.67 50.71 81.47 49.66 80.36ZM60.42 81.44C59.56 81.27 59.39 80.18 60.17 79.88C60.96 79.58 60.9 68 60.1 66.78C59.57 65.96 59.57 65.9 60.17 65.46C61.13 64.76 62.58 64.88 63.02 65.71C63.25 66.14 63.37 67.79 63.32 69.96C63.28 71.91 63.26 73.72 63.29 73.98C63.35 74.67 65.94 72.08 66.07 71.2C66.15 70.61 66.43 70.48 67.92 70.4C69.84 70.29 70.12 70.63 68.81 71.49C67.26 72.5 65.33 74.4 65.33 74.91C65.33 75.56 68.42 79.43 69.51 80.14C70.57 80.84 70.35 81.22 68.73 81.49C67.1 81.76 65.59 81.21 65.73 80.39C65.85 79.65 64.15 77.33 63.48 77.33C62.82 77.33 62.86 78.98 63.54 79.95C63.84 80.38 63.95 80.85 63.79 81C63.41 81.37 61.36 81.64 60.42 81.44ZM71.75 81.32C70.96 81.01 70.72 79.62 71.3 78.71C71.53 78.34 71.73 78.36 72.43 78.82C73.33 79.41 75.37 79.41 75.55 78.83C75.61 78.65 75.08 78.17 74.37 77.76C71.74 76.26 70.72 72.09 72.27 69.11C74.61 64.58 82.12 64.05 85.89 68.16C87.41 69.82 87.88 71.41 87.5 73.65C87.26 75.07 85.14 77.81 83.99 78.17C83.63 78.28 83.33 78.61 83.33 78.9C83.33 79.33 83.6 79.38 84.92 79.19C87.86 78.75 88.16 78.78 88.26 79.5C88.44 80.71 87.61 81.35 85.61 81.56C84.58 81.67 83.19 81.65 82.53 81.53C81.35 81.31 81.33 81.28 81.33 79.66C81.33 78.21 81.45 77.93 82.37 77.26C83.86 76.16 84.33 75.01 84.33 72.47C84.33 69.78 83.56 68.3 81.65 67.32C79.95 66.46 78.36 66.49 76.97 67.42C75.37 68.49 74.67 70.07 74.67 72.61C74.67 74.97 74.94 75.66 76.51 77.33C77.98 78.89 78.19 80.62 77 81.23C76.05 81.72 72.87 81.77 71.75 81.32ZM53.41 79.92C54.87 78.79 55.49 72.29 54.47 68.78C53.66 66 51.8 65.47 50.85 67.75C49.72 70.47 49.97 78.35 51.24 79.74C51.86 80.44 52.66 80.5 53.41 79.92ZM384.68 74.64C383.73 74.25 383.35 73.75 383.34 72.92C383.33 72.47 383.61 72.33 384.48 72.33C385.11 72.33 385.72 72.48 385.83 72.67C385.95 72.85 386.6 73 387.29 73C389.01 73 390.4 71.56 390.45 69.75C390.51 67.49 389.03 65.94 386.09 65.2C384.01 64.67 383.92 64.01 385.49 60.79L386.7 58.31L389.6 58.4C392.29 58.49 392.49 58.55 392.39 59.17C392.22 60.23 391.34 60.67 389.34 60.67C386.2 60.67 385.73 61.92 388.42 63.13C392.38 64.91 393.71 68.22 391.73 71.35C390.06 73.97 386.79 75.5 384.68 74.64ZM375.33 74.44C374.03 74.19 373.77 73.73 374.6 73.14C375.31 72.64 375.33 72.44 375.33 66.62C375.33 60.88 375.3 60.6 374.67 60.43C374.3 60.33 374 60.08 374 59.87C374 59.3 376.13 58.26 377.04 58.39L377.83 58.5L377.92 65.63C378 71.95 378.08 72.82 378.59 73.2C378.97 73.48 379.05 73.73 378.83 73.95C378.41 74.37 376.42 74.64 375.33 74.44ZM363.56 74.11C363.43 73.99 363.33 72.96 363.33 71.82C363.33 69.39 362.97 68.94 361.25 69.22C359.38 69.52 358.33 69.14 358.33 68.16C358.33 67.37 358.42 67.33 360.43 67.33C361.62 67.33 362.71 67.16 362.93 66.93C363.16 66.71 363.33 65.62 363.33 64.43C363.33 62.42 363.37 62.33 364.17 62.33C365.07 62.33 365.09 62.39 365 64.77C364.93 66.98 365.32 67.33 367.85 67.33C370.16 67.33 370.7 67.7 369.83 68.67C369.41 69.13 368.71 69.33 367.21 69.4L365.17 69.5L365.13 71.41C365.09 73.61 364.34 74.89 363.56 74.11ZM401.75 72.92C401.36 72.14 400.53 70.3 399.9 68.83C396.67 61.32 396.01 60.04 395.08 59.42C394.67 59.15 394.33 58.79 394.33 58.63C394.33 58.47 395.68 58.33 397.33 58.33C399.17 58.33 400.33 58.47 400.33 58.68C400.33 58.87 400.11 59.11 399.83 59.21C399.56 59.32 399.33 59.74 399.33 60.15C399.33 61.08 402.84 69.11 403.32 69.27C403.51 69.34 403.82 68.96 404 68.44C404.19 67.92 404.49 67.2 404.66 66.83C405.29 65.46 406.26 63.11 406.85 61.54C407.42 60.02 407.42 59.89 406.89 59.5C405.78 58.69 406.28 58.33 408.5 58.33C410.67 58.33 411.22 58.68 410.04 59.31C409.33 59.69 409.12 60.11 405.82 68C403.63 73.21 403.08 74.33 402.72 74.33C402.57 74.33 402.13 73.7 401.75 72.92ZM165.42 62.46C164.6 62.1 165.02 61.12 166.69 59.49C168.99 57.24 170.61 54.98 171.38 52.97C171.98 51.39 171.98 51.23 171.46 50.14C171.16 49.5 170.61 48.82 170.24 48.62C169.24 48.08 167.35 48.53 166.28 49.55L165.33 50.46L165.33 49.64C165.33 48.78 166.09 47.46 166.98 46.76C167.87 46.06 171.25 46.23 172.37 47.03C173.52 47.84 174.33 49.29 174.33 50.49C174.33 51.87 172.81 54.51 170.45 57.22C168.94 58.94 168.37 59.83 168.6 60.07C168.95 60.41 172.29 60.26 174.04 59.82C174.84 59.62 174.91 59.68 174.76 60.45C174.43 62.16 173.6 62.49 169.55 62.57C167.51 62.61 165.65 62.56 165.42 62.46ZM179.68 61.79C177.99 60.37 177.26 58.56 177.08 55.3C176.87 51.7 177.59 49.1 179.24 47.45C180.2 46.49 180.58 46.33 182 46.33C183.36 46.33 183.85 46.51 184.81 47.35C186.38 48.74 187.33 51.37 187.33 54.33C187.33 60.45 183.05 64.63 179.68 61.79ZM189.92 62.41C188.91 62.28 188.72 61.65 189.5 61C189.91 60.66 190 59.53 190 54.73C190 51.04 189.85 48.48 189.6 47.78C189.12 46.45 189.28 46.26 190.91 46.21L192.17 46.17L192.25 50.33C192.3 52.62 192.42 54.71 192.52 54.97C192.78 55.68 195.33 53.07 195.33 52.1C195.33 51.39 195.48 51.33 197.17 51.33C199.19 51.33 199.44 51.63 198.14 52.49C196.54 53.54 194.67 55.41 194.67 55.96C194.68 56.72 198.57 61.33 199.2 61.33C200.06 61.33 199.53 62.11 198.48 62.4C197.29 62.72 195.35 62.4 195.28 61.88C195.25 61.67 195.21 61.35 195.19 61.16C195.12 60.53 193.17 58.01 192.75 58.01C192.12 58 192.22 60.51 192.88 61.16C193.19 61.47 193.3 61.83 193.13 61.98C192.73 62.34 191.04 62.57 189.92 62.41ZM201.42 62.32C200.83 62.09 200.67 61.75 200.67 60.81C200.67 59.64 200.71 59.6 201.58 59.83C203.01 60.2 205.09 60.2 205.22 59.83C205.29 59.64 204.8 59.2 204.14 58.84C200.62 56.95 200.3 50.4 203.6 48.05C206.05 46.3 209.34 45.91 212.31 46.99C216.47 48.51 218.43 52.54 216.69 55.96C216.04 57.22 213.94 59.33 213.32 59.33C213.14 59.33 213 59.56 213 59.83C213 60.41 215.49 60.56 215.83 60C215.95 59.82 216.41 59.67 216.85 59.67C217.53 59.67 217.67 59.83 217.67 60.65C217.67 62.05 216.62 62.67 214.24 62.67C211.58 62.67 211 62.3 211 60.64C211 59.53 211.22 59.09 212.31 58.02C215.15 55.24 214.83 50.5 211.66 48.5C208.1 46.25 204.34 48.77 204.33 53.39C204.33 55.77 204.74 56.86 206.18 58.34C207.7 59.91 208.01 61.39 206.96 62.12C206.1 62.72 202.71 62.84 201.42 62.32ZM183.29 60.54C184.74 59 185.06 51.46 183.79 48.79C182.84 46.78 180.99 47.03 180.32 49.25C179.63 51.58 179.53 56.3 180.14 58.65C180.87 61.52 181.83 62.1 183.29 60.54Z" fill="#1e2749" fill-rule="evenodd"/>
</svg>
