<?xml version="1.0" encoding="UTF-8"?>
<svg xmlns="http://www.w3.org/2000/svg" viewBox="0 0 755 329.111" width="755" height="329.111" shape-rendering="geometricPrecision">
<path d="M296.83 309.57C295.78 309.04 294.25 308.13 293.43 307.54C291.75 306.32 291.26 306.25 289.53 306.98C287.87 307.67 284.36 307.63 282.29 306.89C280.01 306.08 277.58 303.68 276.84 301.5C276.07 299.26 276.04 292.8 276.79 290.65C277.87 287.54 279.18 286.25 282.83 284.69C284.49 283.98 289.12 283.97 290.46 284.67C291 284.95 291.63 285.18 291.85 285.18C292.51 285.18 295.1 287.55 295.69 288.69C297.78 292.73 297.69 298.85 295.48 302.59C294.35 304.5 294.53 304.86 297.37 306.28C299.8 307.5 299.94 307.63 299.94 308.72C299.94 310.48 299.12 310.71 296.83 309.57ZM290.23 303.51C291.9 302.27 293.05 300.19 293.38 297.83C293.81 294.69 293.3 291.2 292.2 289.76C290.65 287.73 289.86 287.41 286.33 287.41C283.2 287.41 283.15 287.43 281.97 288.57C280.41 290.08 279.69 292.35 279.69 295.74C279.69 300.26 280.93 302.97 283.47 304.04C284.94 304.65 289.12 304.33 290.23 303.51ZM264.33 292.99C263.88 292.45 258.76 281.15 258.76 280.71C258.76 280.14 260.4 279.96 261.36 280.43C262 280.75 262.51 281.46 262.97 282.69C263.35 283.68 263.79 284.4 263.95 284.3C264.12 284.2 264.25 273.51 264.25 260.31L264.25 236.51L230.02 236.37C211.19 236.3 166.02 236.2 129.64 236.17C76.55 236.11 63.49 236.19 63.49 236.53C63.49 236.98 80.3 258.51 82 260.25L82.96 261.23L103.17 261.39C114.28 261.47 123.56 261.53 123.8 261.52C124.54 261.49 124.72 263.18 124.05 263.92C123.5 264.52 122.97 264.59 119.02 264.59L114.6 264.59L108.7 269.76C102.7 275.02 101.55 275.67 101.3 273.97C101.22 273.39 102.06 272.47 105.05 269.85C107.17 268 109.38 266.06 109.96 265.55L111.02 264.61L106.47 264.6L101.93 264.59L95.86 269.93C92.43 272.95 89.57 275.22 89.26 275.16C88.96 275.1 88.67 274.65 88.61 274.16C88.52 273.38 89.17 272.68 93.33 269.04C95.98 266.73 98.08 264.75 97.98 264.65C97.85 264.52 91.96 264.46 90.56 264.58C90.44 264.59 87.6 266.99 84.25 269.93C80.9 272.86 77.99 275.2 77.77 275.13C77.56 275.06 77.34 274.56 77.29 274C77.21 273.11 77.65 272.61 81.44 269.31C83.77 267.27 85.98 265.39 86.34 265.11C87.17 264.49 87.05 264.47 82.36 264.59L78.76 264.67L74.99 267.99C66.54 275.41 66.62 275.35 66.05 274.87C64.99 274 65.73 273 70.44 268.89L75.17 264.76L70.5 264.67L65.83 264.57L62 267.95C55.29 273.85 54.01 274.89 53.45 274.89C52.85 274.89 52.33 273.74 52.67 273.18C52.79 272.99 54.69 271.27 56.9 269.35C59.11 267.43 61.22 265.57 61.59 265.22C62.25 264.61 62.12 264.59 56.62 264.61L50.96 264.62L45.51 269.42C42.51 272.06 39.88 274.17 39.67 274.1C39.46 274.03 39.25 273.52 39.19 272.95C39.1 272.02 39.48 271.58 43.22 268.34L47.35 264.76L43.42 264.67L39.49 264.57L34.13 269.24C30.93 272.02 28.54 273.86 28.2 273.79C27.88 273.73 27.58 273.3 27.53 272.83C27.45 272.11 28.12 271.38 31.6 268.37L35.77 264.76L33.02 264.46C31.5 264.3 29.75 264.26 29.12 264.38C28.3 264.53 26.44 265.93 22.66 269.24C19.74 271.79 17.11 273.83 16.82 273.78C16.54 273.73 16.25 273.28 16.2 272.79C16.11 272.05 16.64 271.43 19.53 268.89C21.42 267.23 23.29 265.65 23.67 265.38C24.06 265.11 24.29 264.75 24.18 264.57C23.96 264.21 17.63 264.17 16.77 264.53C16.46 264.66 13.99 266.7 11.28 269.07C5.53 274.1 5.61 274.04 4.96 273.5C3.83 272.57 4.59 271.61 10.2 266.93C11.57 265.79 12.6 264.72 12.5 264.55C12.4 264.39 10.79 264.25 8.93 264.25L5.55 264.25L5.32 263.21C4.86 261.13 4.49 261.18 20.37 261.08L34.83 260.99L39.64 254.95C51.08 240.56 56.25 233.98 56.36 233.66C56.42 233.46 57.15 233.27 57.97 233.23C59.11 233.17 59.64 232.94 60.19 232.27C60.6 231.77 64.19 229.71 68.46 227.53C72.62 225.41 77.4 222.94 79.1 222.04C80.8 221.15 85.9 218.52 90.43 216.21C94.96 213.89 100.36 211.11 102.44 210.03C104.52 208.94 109.46 206.39 113.42 204.36C117.39 202.33 122.48 199.71 124.75 198.53C127.01 197.35 131.64 194.96 135.04 193.22C138.44 191.47 143.69 188.77 146.71 187.21C149.73 185.65 154.98 182.94 158.38 181.2C161.78 179.45 166.95 176.79 169.88 175.28C178 171.09 185.51 167.22 192.7 163.52C196.28 161.68 200.5 159.49 202.06 158.67C203.63 157.85 205.26 157.18 205.7 157.18C206.13 157.18 206.78 156.85 207.14 156.45C207.5 156.06 208.72 155.26 209.86 154.69C210.99 154.12 212.47 153.16 213.15 152.55C213.85 151.92 214.96 151.33 215.72 151.19C216.9 150.97 223.57 147.68 237.31 140.53C239.58 139.35 244.21 136.96 247.61 135.21C251 133.47 256.1 130.84 258.93 129.38C261.76 127.92 267.17 125.14 270.94 123.2C274.72 121.26 279.5 118.79 281.58 117.71C283.66 116.63 288.75 114 292.91 111.88C297.06 109.75 302 107.21 303.89 106.22C305.78 105.23 310.87 102.6 315.21 100.37C319.55 98.15 324.8 95.45 326.88 94.37C328.96 93.29 333.74 90.83 337.52 88.89C341.29 86.95 346.24 84.4 348.5 83.22C350.77 82.04 356.17 79.27 360.51 77.05C364.85 74.84 368.73 72.65 369.12 72.19C369.75 71.44 370.06 71.36 371.86 71.45C373.61 71.54 373.94 71.67 374.3 72.39C374.58 72.96 376.19 74 379.28 75.6C384.64 78.38 394.11 83.26 402.55 87.6C405.86 89.3 410.41 91.65 412.68 92.83C414.94 94.01 420.5 96.87 425.03 99.18C429.56 101.5 434.08 103.84 435.08 104.39C436.75 105.31 437.56 105.41 437.56 104.68C437.56 104.51 436.8 102.78 435.87 100.84C433.86 96.6 432.75 94.05 432.75 93.65C432.75 93.18 435.72 93.29 436.09 93.77C436.28 94.01 436.71 94.94 437.05 95.85C437.4 96.79 437.79 97.37 437.96 97.2C438.13 97.03 438.26 86.49 438.25 73.71C438.24 52.8 438.29 50.5 438.78 50.31C439.71 49.96 440.57 50.08 441.15 50.65C441.64 51.15 441.69 53.58 441.66 74.76C441.64 87.72 441.76 98.36 441.91 98.4C442.15 98.47 443.23 96.12 443.96 93.95C444.11 93.5 444.53 93.35 445.64 93.35C446.46 93.35 447.19 93.46 447.28 93.6C447.36 93.74 446.19 96.56 444.67 99.87C443.16 103.17 441.91 106.31 441.88 106.84C441.85 107.7 442.11 107.96 444.05 109C445.55 109.8 446.37 110.06 446.61 109.82C446.85 109.59 446.83 109.34 446.55 109.06C445.88 108.4 446.05 107.42 446.82 107.42C447.29 107.42 447.51 107.64 447.51 108.12C447.51 108.51 447.96 109.24 448.5 109.75C449.05 110.26 449.55 110.96 449.62 111.31C449.7 111.73 451.65 112.92 455.57 114.94C458.78 116.59 464.96 119.76 469.3 121.99C473.64 124.22 478.74 126.85 480.63 127.84C482.51 128.82 487.46 131.37 491.61 133.5C495.76 135.63 501.17 138.41 503.62 139.68C508.63 142.28 516.26 146.2 525.93 151.17C529.51 153.01 534.3 155.48 536.56 156.66C538.83 157.84 543.62 160.31 547.2 162.15C553.38 165.33 557.52 167.46 570.71 174.25C582.9 180.53 587.89 183.1 592.5 185.49C595.15 186.86 600.32 189.53 604 191.41C607.68 193.3 612.78 195.92 615.33 197.24C617.87 198.56 622.89 201.14 626.48 202.99C630.06 204.83 635.01 207.38 637.46 208.65C639.91 209.93 644.93 212.52 648.61 214.41C652.29 216.29 657.24 218.84 659.6 220.06C661.95 221.28 667.28 224.02 671.44 226.16C675.59 228.29 680.22 230.68 681.73 231.47C683.24 232.26 684.9 233.01 685.42 233.14C685.94 233.27 686.36 233.53 686.36 233.71C686.36 233.9 687.52 236 688.94 238.37C690.35 240.75 691.51 242.75 691.51 242.82C691.51 242.88 692.67 244.86 694.08 247.2C695.96 250.31 696.87 251.51 697.43 251.62C697.86 251.7 700.6 251.74 703.52 251.71C708 251.66 709.03 251.75 710.04 252.26C713.4 253.95 714.67 257.28 713.13 260.3C712.75 261.04 712.45 261.77 712.45 261.92C712.45 262.07 719.44 262.19 727.99 262.19C744.35 262.19 744.36 262.19 744.36 263.74C744.36 265.1 743.76 265.28 739.06 265.29L734.58 265.31L730.46 268.93C728.2 270.93 725.51 273.32 724.49 274.25C722.43 276.15 721.58 276.28 721.47 274.71C721.4 273.8 721.82 273.32 725.3 270.31C727.45 268.45 729.53 266.7 729.93 266.42C730.32 266.15 730.56 265.78 730.45 265.6C730.34 265.42 728.4 265.28 726.15 265.28L722.05 265.28L715.79 270.77C712.34 273.8 709.3 276.23 709.01 276.18C708.73 276.13 708.45 275.66 708.39 275.15C708.27 274.12 708.41 273.98 714.42 268.87C716.35 267.22 717.94 265.74 717.94 265.58C717.94 265.41 716.25 265.28 714.18 265.28L710.43 265.28L704.19 270.75C700.43 274.05 697.77 276.14 697.48 276.03C697.22 275.93 697 275.42 697 274.89C697 274.1 697.77 273.27 701.64 269.91C704.18 267.69 706.27 265.74 706.27 265.58C706.27 265.41 704.64 265.28 702.64 265.28L699.01 265.28L692.68 270.8C687.43 275.38 686.25 276.25 685.84 275.91C684.63 274.91 685.36 274 691.94 268.37C693.59 266.95 694.94 265.68 694.94 265.54C694.94 265.4 692.93 265.28 690.46 265.28L685.98 265.28L681.14 269.48C678.47 271.8 675.7 274.2 674.98 274.83C673.53 276.09 672.52 276.15 672.36 274.98C672.24 274.15 673.06 273.31 678.64 268.55C680.34 267.1 681.78 265.77 681.85 265.6C681.91 265.41 679.75 265.28 676.66 265.28C670.55 265.28 671.47 264.89 666.12 269.72C664.32 271.34 662.18 273.26 661.36 273.98L659.86 275.3L659.13 274.58C658.16 273.6 658.33 273.37 663.06 269.25C665.21 267.38 667.03 265.72 667.09 265.57C667.15 265.41 665.5 265.28 663.42 265.28L659.64 265.28L656.93 267.6C655.43 268.87 652.94 271.04 651.39 272.42C648.44 275.03 647.49 275.36 647.31 273.83C647.22 273.08 647.83 272.41 651.34 269.37C653.61 267.4 655.47 265.68 655.47 265.54C655.48 265.16 648.68 265.22 647.97 265.6C647.64 265.78 645.06 267.94 642.24 270.41C639.42 272.88 636.89 274.85 636.6 274.8C635.92 274.68 635.74 273.28 636.32 272.58C636.57 272.27 638.4 270.64 640.38 268.94C642.36 267.24 644.03 265.72 644.1 265.56C644.16 265.41 642.51 265.28 640.43 265.28C636.09 265.28 637.28 264.64 630.11 270.87C625.75 274.66 624.54 275.25 624.32 273.66C624.24 273.11 625.19 272.08 628.26 269.39C630.49 267.44 632.36 265.72 632.42 265.58C632.48 265.43 630.94 265.26 628.99 265.21L625.45 265.11L625.34 263.65L625.24 262.2L642.16 262.11L659.08 262.02L658.98 260.99C658.93 260.42 658.8 259.27 658.7 258.42C658.58 257.27 658.71 256.52 659.23 255.52C659.93 254.17 659.93 254.17 659.25 253.53C658.46 252.8 658.41 252.53 658.98 251.96C659.27 251.67 661.4 251.55 666.38 251.55C670.29 251.55 673.64 251.4 674 251.22C674.34 251.03 675.75 248.91 677.12 246.5C678.49 244.09 680.36 240.91 681.27 239.43C682.19 237.95 682.93 236.68 682.93 236.6C682.93 236.52 613.3 236.45 528.2 236.45C391.08 236.45 373.42 236.51 373.04 236.97C372.8 237.25 372.26 237.48 371.82 237.48C371.38 237.48 370.8 237.25 370.51 236.97C370.06 236.51 363.85 236.45 318.75 236.45L267.51 236.45L267.51 260.99C267.51 274.49 267.62 285.53 267.76 285.53C267.99 285.53 268.46 284.58 269.78 281.49C270.14 280.65 270.53 280.33 271.4 280.16C272.17 280.02 272.69 280.1 272.99 280.42C273.36 280.81 273.01 281.86 270.91 286.52C269.52 289.62 268.12 292.43 267.81 292.78C267.14 293.52 264.87 293.66 264.33 292.99ZM665.7 261.54C666.99 260.87 668.18 259.3 668.18 258.24C668.18 257.12 667 255.69 665.64 255.14C664.38 254.64 664.17 254.64 663 255.17C660.25 256.41 660.31 260.24 663.1 261.62C664.49 262.3 664.19 262.31 665.7 261.54ZM673.85 261.83C673.97 261.64 673.89 261.26 673.67 261C672.98 260.16 672.83 256.9 673.43 255.69C673.96 254.64 673.95 254.6 673.11 254.28C672.1 253.9 669.2 253.84 669.2 254.21C669.2 254.34 669.55 255.28 669.96 256.29C670.7 258.07 670.71 258.16 670.14 259.77C669.81 260.68 669.55 261.6 669.55 261.81C669.55 262.3 673.54 262.33 673.85 261.83ZM688.57 261.88C688.68 261.71 688.53 261.14 688.25 260.6C687.41 258.99 687.29 257.6 687.88 256.2C688.18 255.49 688.33 254.77 688.23 254.6C688.12 254.44 687.1 254.3 685.96 254.3C683.96 254.3 683.89 254.33 684.12 255.07C684.89 257.61 684.93 258.23 684.43 259.59C683.4 262.4 683.27 262.19 685.96 262.19C687.29 262.19 688.47 262.05 688.57 261.88ZM703.29 261.96C703.42 261.84 703.25 261.43 702.92 261.07C702.47 260.57 702.32 259.81 702.32 257.95C702.32 256.6 702.45 255.23 702.62 254.9C702.88 254.36 702.68 254.3 700.64 254.3C699.4 254.3 698.38 254.41 698.39 254.56C698.39 254.7 698.62 255.2 698.89 255.67C699.53 256.8 699.54 259.48 698.9 260.32C698.62 260.69 698.39 261.26 698.39 261.59C698.38 262.1 698.71 262.19 700.72 262.19C702.01 262.19 703.17 262.09 703.29 261.96ZM679.96 261.38C681.41 260.77 682.25 259.46 682.25 257.77C682.25 255.93 680.78 254.64 678.68 254.64C674.9 254.64 674.05 259.82 677.57 261.35C678.9 261.93 678.64 261.93 679.96 261.38ZM695.29 260.85C696.38 260.09 697.33 258.25 697.09 257.35C696.99 256.97 696.46 256.21 695.9 255.65C695.1 254.85 694.59 254.64 693.42 254.64C691.37 254.64 690.14 255.8 690.14 257.74C690.14 259.51 690.58 260.33 691.96 261.18C693.13 261.89 693.9 261.81 695.29 260.85ZM710.3 259.95C711.83 258.33 711.8 257.02 710.21 255.42C709.08 254.3 708.88 254.22 707.39 254.39C705.32 254.63 704.55 255.52 704.56 257.68C704.57 259.45 705.25 260.58 706.61 261.13C707.89 261.65 709.06 261.27 710.3 259.95ZM78.08 260.82C78.19 260.62 76.53 258.27 74.38 255.58C69.8 249.85 63.3 241.64 60.94 238.6C60.02 237.42 59.01 236.45 58.69 236.45C58.01 236.45 39.01 260.35 39.31 260.84C39.59 261.29 77.79 261.27 78.08 260.82ZM692.37 250.87C692.48 250.69 691.35 248.49 689.86 245.98C688.37 243.48 686.9 240.93 686.58 240.31C686.26 239.7 685.74 239.2 685.41 239.2C684.85 239.2 684.44 239.8 681.78 244.5C681.25 245.45 680.28 247.1 679.64 248.17C677.71 251.35 677.46 251.21 685.31 251.21C689.42 251.21 692.24 251.07 692.37 250.87ZM263.89 233.55C264.23 233.14 263.78 232.23 261.45 228.59C259.87 226.14 257.74 222.81 256.7 221.18C254.8 218.21 250.35 211.27 244.03 201.45C242.15 198.52 239.68 194.66 238.54 192.87C237.41 191.08 234.93 187.21 233.05 184.29C231.16 181.36 228.99 177.97 228.22 176.74C227.45 175.51 225.27 172.11 223.39 169.19C221.5 166.26 219.01 162.36 217.85 160.52C216.52 158.41 215.53 157.18 215.16 157.18C214.66 157.18 209.94 163.64 201.25 176.22C200.86 176.79 198.54 180.11 196.09 183.6C193.64 187.09 190.94 190.95 190.08 192.18C188.5 194.43 182.2 203.41 176.54 211.48C174.86 213.88 172.21 217.66 170.66 219.88C169.11 222.11 166.45 225.91 164.74 228.33C163.04 230.75 161.64 232.95 161.64 233.22C161.64 233.63 168.43 233.72 208.91 233.79C234.91 233.84 257.83 233.92 259.83 233.97C262.68 234.03 263.57 233.94 263.89 233.55ZM369.39 233.34L370.29 232.63L370.29 156.12C370.29 114.05 370.16 79.62 370 79.62C369.72 79.62 367.42 83.05 346.08 115.31C324.6 147.79 322.3 151.34 321.9 152.59C321.08 155.14 320.89 155.46 320.21 155.46C319.7 155.46 318.32 157.28 314.82 162.58C312.23 166.5 306.49 175.19 302.05 181.89C284.44 208.51 268.95 231.97 268.57 232.61C268.43 232.85 268.39 233.28 268.5 233.55C268.66 233.98 275.28 234.05 318.59 234.05L368.48 234.05L369.39 233.34ZM475.19 233.53C475.3 233.22 474.74 232.04 473.84 230.7C473 229.43 468.37 222.44 463.57 215.18C458.76 207.91 450.74 195.79 445.75 188.24C440.75 180.69 433.84 170.23 430.39 165C425.08 156.97 423.97 155.48 423.21 155.4C422.5 155.31 422.25 155.04 422.02 154.09C421.86 153.43 421.64 152.52 421.53 152.08C421.42 151.63 419.21 148.08 416.63 144.18C414.04 140.29 408.91 132.55 405.23 126.98C401.55 121.41 394.3 110.44 389.12 102.61C383.94 94.78 378.4 86.4 376.82 83.99C375.23 81.59 373.83 79.62 373.71 79.62C373.59 79.62 373.5 114.04 373.52 156.11C373.55 230.83 373.57 232.62 374.21 233.33L374.86 234.05L424.92 234.05C469.47 234.05 475.01 233.99 475.19 233.53ZM581.14 233.36C581.12 233.08 576.72 226.59 571.36 218.95C566 211.3 561.36 204.66 561.04 204.19C560.35 203.16 549.93 188.31 547.2 184.46C545.03 181.4 540.19 174.49 536.74 169.53C529.51 159.14 528.79 158.17 528.37 158.3C527.93 158.45 526.54 160.52 498.83 202.26C487.25 219.7 478.43 233.31 478.54 233.58C478.69 233.98 486.52 234.04 529.95 233.97C575.24 233.89 581.17 233.82 581.14 233.36ZM680.33 233.75C680.43 233.59 678.78 232.56 676.66 231.48C666.56 226.31 658.4 222.12 654.96 220.32C652.89 219.24 647.64 216.53 643.29 214.31C638.95 212.09 634.01 209.55 632.31 208.65C630.61 207.76 625.36 205.05 620.64 202.64C615.93 200.23 611.76 198.05 611.39 197.8C609.91 196.78 609.31 197.17 607.21 200.5C606.11 202.25 604.59 204.64 603.83 205.81C602.15 208.43 600.99 210.24 592.89 223.01C589.37 228.55 586.5 233.3 586.5 233.56C586.5 233.98 593.16 234.05 633.32 234.05C659.63 234.05 680.23 233.92 680.33 233.75ZM155.98 233.36C156.1 233.16 155.72 232.23 155.14 231.29C154.56 230.35 154.09 229.51 154.09 229.42C154.09 229.33 153.47 228.25 152.72 227.01C151.96 225.78 151.34 224.7 151.34 224.61C151.34 224.52 150.42 222.89 149.28 220.98C148.15 219.07 147.22 217.46 147.22 217.4C147.22 217.34 146.53 216.12 145.68 214.68C144.83 213.24 144.14 212 144.14 211.92C144.14 211.83 143.47 210.64 142.65 209.27C140.78 206.1 138.17 201.54 136.72 198.87C136.11 197.74 135.37 196.66 135.08 196.48C134.69 196.23 133.59 196.64 130.85 198.04C124.22 201.43 111.45 208.01 107.59 210.03C105.51 211.11 100.72 213.58 96.95 215.52C93.17 217.46 88 220.12 85.45 221.44C82.9 222.75 77.04 225.77 72.41 228.13C63.7 232.59 63.15 232.9 63.15 233.41C63.15 233.85 155.71 233.8 155.98 233.36ZM164.42 224.7C170.48 216.03 170.35 216.22 176.87 206.94C179.32 203.45 182.08 199.51 183 198.19C183.91 196.87 185.32 194.86 186.11 193.73C186.91 192.59 188.75 189.97 190.2 187.89C191.65 185.82 194.27 182.07 196.03 179.58C197.78 177.08 200.48 173.22 202.03 171C203.58 168.78 206.21 165.03 207.87 162.67C211.84 157.02 212.17 156.49 211.74 156.49C211.54 156.49 209.64 157.4 207.53 158.51C203.69 160.51 197.9 163.51 186.18 169.53C182.78 171.28 177.61 173.95 174.68 175.46C171.75 176.97 166.81 179.51 163.7 181.11C160.58 182.71 155.1 185.54 151.51 187.39C147.93 189.24 143.37 191.59 141.39 192.62C138.94 193.88 137.76 194.68 137.69 195.13C137.64 195.49 138.45 197.23 139.49 199C140.54 200.76 141.39 202.26 141.39 202.33C141.39 202.39 141.83 203.2 142.37 204.11C142.91 205.03 143.74 206.46 144.21 207.3C144.68 208.14 147.04 212.3 149.46 216.55C151.87 220.79 154.11 224.73 154.43 225.3C157.24 230.26 158.64 232.68 158.74 232.68C158.8 232.68 161.36 229.09 164.42 224.7ZM584.67 231.51C585.02 231.05 586.38 228.96 587.7 226.85C589.02 224.75 592.11 219.88 594.56 216.03C597.02 212.18 599.43 208.37 599.93 207.56C600.42 206.75 602.25 203.87 603.98 201.16C605.71 198.46 607.08 196.09 607.01 195.9C606.95 195.7 604.35 194.24 601.24 192.64C596 189.94 588.61 186.14 575.52 179.39C572.59 177.88 568.03 175.53 565.39 174.16C562.75 172.79 557.88 170.29 554.58 168.59C539.78 160.99 535.4 158.73 533.4 157.65C532.23 157.01 531.19 156.49 531.08 156.49C530.53 156.49 531.29 157.76 534.96 162.94C539.19 168.92 555.97 192.84 561.96 201.45C563.86 204.18 567.59 209.51 570.25 213.29C572.9 217.06 575.67 221.01 576.41 222.07C577.14 223.12 579.06 225.86 580.66 228.16C582.27 230.45 583.69 232.33 583.81 232.33C583.94 232.33 584.33 231.96 584.67 231.51ZM267.46 230.02C267.9 229.31 272.36 222.55 277.35 215C282.35 207.45 288.73 197.8 291.53 193.55C294.34 189.31 301.18 178.97 306.73 170.58C312.29 162.19 316.91 155.13 317 154.88C317.14 154.51 308.1 154.43 267.03 154.43C239.45 154.43 216.89 154.51 216.89 154.6C216.89 154.75 227.11 170.8 230.44 175.88C231.75 177.87 233.73 180.96 239.37 189.78C243.32 195.97 244.66 198.05 247.84 202.99C248.69 204.31 251.21 208.25 253.44 211.74C257.3 217.78 258.54 219.71 261.96 225.04C262.78 226.32 264.02 228.25 264.71 229.33C265.39 230.42 266.11 231.3 266.3 231.3C266.49 231.3 267.01 230.73 267.46 230.02ZM478.07 229.16C479.49 227.24 527.04 155.66 526.97 155.56C526.89 155.44 454.85 154.43 439.87 154.34C430.26 154.28 426.57 154.37 426.57 154.64C426.57 154.85 429.02 158.72 432.01 163.22C437.43 171.41 441.85 178.09 459.57 204.88C464.75 212.71 470.68 221.7 472.75 224.86C474.82 228.01 476.62 230.6 476.75 230.6C476.89 230.61 477.48 229.96 478.07 229.16ZM679.68 206.56C678.96 205.83 679.16 205.11 680.29 204.39C680.73 204.11 681.03 204.2 681.59 204.76C682.29 205.45 682.29 205.52 681.73 206.38C681.03 207.44 680.6 207.48 679.68 206.56ZM112.45 190.24C112.32 190.11 112.22 189.8 112.22 189.55C112.22 189.01 114.52 188.92 115.31 189.44C115.77 189.74 115.77 189.82 115.31 190.12C114.72 190.5 112.79 190.58 112.45 190.24ZM522.81 152.54C522.79 152.36 521.71 151.65 520.4 150.98C519.1 150.3 514.33 147.85 509.8 145.52C505.27 143.2 499.71 140.33 497.44 139.16C495.18 137.98 490.24 135.44 486.46 133.5C482.69 131.56 477.9 129.09 475.82 128.01C473.75 126.92 468.57 124.25 464.33 122.07C460.08 119.88 455.03 117.28 453.11 116.28C451.18 115.29 449.54 114.54 449.46 114.63C449.31 114.79 441.92 126.37 436.72 134.61C435.2 137.01 432.28 141.6 430.24 144.81C428.19 148.03 426.57 150.91 426.64 151.25C426.75 151.82 428.27 151.87 452.83 152.12C467.18 152.26 487.56 152.51 498.13 152.67C520.85 153.01 522.85 153 522.81 152.54ZM317.6 151.71C317.8 151.39 316.06 148.5 309.86 138.82C308.17 136.17 305.98 132.74 304.99 131.18C302.75 127.65 299.02 121.79 296.39 117.7C295.29 115.98 294.18 114.5 293.92 114.4C293.66 114.3 290.78 115.6 287.52 117.29C284.25 118.98 278.8 121.8 275.4 123.55C267.91 127.41 260.71 131.12 253.61 134.78C246.07 138.68 238.11 142.78 229.76 147.06C222.26 150.9 221.7 151.23 221.7 151.73C221.7 152.15 317.34 152.12 317.6 151.71ZM429.5 141.59C432.33 137.15 435.57 132.04 436.7 130.25C438.93 126.71 446.44 114.93 446.99 114.11C447.46 113.41 447.33 113.33 441.5 110.33C438.67 108.87 433.88 106.4 430.86 104.84C427.84 103.28 422.44 100.5 418.85 98.66C415.27 96.82 410.48 94.35 408.21 93.17C405.95 92 401.01 89.45 397.23 87.51C393.46 85.57 388.83 83.18 386.94 82.19C380.89 79.03 375.2 76.19 374.94 76.19C374.8 76.19 374.76 76.38 374.85 76.62C374.94 76.86 379.77 84.23 385.58 93.01C401.01 116.32 408.43 127.54 416.41 139.62C421.75 147.71 423.62 150.29 423.94 150.02C424.17 149.83 426.67 146.03 429.5 141.59ZM321.12 148.68C321.66 147.98 322.81 146.32 323.68 144.99C324.54 143.67 329.64 135.95 335 127.84C340.37 119.72 347.45 108.99 350.75 104C354.04 99.01 359.62 90.6 363.14 85.3C366.75 79.87 369.36 75.63 369.12 75.57C368.72 75.48 367.02 76.32 354.34 82.87C346.59 86.87 338.68 90.95 320.27 100.42C317.11 102.05 312.36 104.5 309.72 105.87C307.08 107.23 303.03 109.33 300.71 110.53C296.65 112.63 295.97 113.26 296.83 114.13C297.01 114.3 298.62 116.77 300.41 119.6C305.31 127.35 307.63 130.99 311.78 137.49C313.86 140.75 316.48 144.88 317.61 146.68C318.75 148.49 319.78 149.96 319.9 149.97C320.03 149.97 320.57 149.39 321.12 148.68ZM291.36 109.82C291.36 109.09 292.19 108.91 293.04 109.44C293.42 109.68 293.37 109.82 292.8 110.12C291.77 110.68 291.36 110.59 291.36 109.82ZM454.8 53.25C454.46 53.04 454.38 50.49 454.45 41.67L454.54 30.37L458.83 30.27C462.1 30.2 463.46 30.3 464.54 30.72C469.35 32.55 470.51 38.35 466.79 41.98C465.18 43.55 462.28 44.61 459.61 44.61L457.62 44.61L457.75 48.4C457.86 51.66 457.8 52.29 457.28 52.87C456.65 53.56 455.55 53.73 454.8 53.25ZM462.33 41.17C463.03 40.98 464.01 40.33 464.51 39.73C465.32 38.77 465.41 38.41 465.28 36.8C465.05 34.03 464.34 33.49 460.71 33.34L457.8 33.22L457.8 37.14C457.8 39.3 457.91 41.17 458.03 41.3C458.38 41.64 460.9 41.57 462.33 41.17Z" fill="#1e2749" fill-rule="evenodd"/>
</svg>
