<?xml version="1.0" encoding="UTF-8"?>
<svg xmlns="http://www.w3.org/2000/svg" viewBox="0 0 1330 354.264" width="1330" height="354.264" shape-rendering="geometricPrecision">
<path d="M148.08 331.42C146.6 330.49 138.73 325.89 130.58 321.2C115.71 312.64 90.93 298.34 53.11 276.5C38.03 267.79 32.68 264.4 32.42 263.41C31.94 261.65 31.95 128.27 32.42 126.51C32.78 125.16 38.11 121.94 75.87 100.21C82.52 96.38 94.22 89.64 101.87 85.22C109.51 80.81 123.76 72.59 133.52 66.95C145.57 60 151.69 56.79 152.58 56.96C153.3 57.1 168.44 65.6 186.22 75.86C204 86.11 230.5 101.39 245.1 109.82C259.71 118.24 271.88 125.47 272.15 125.89C272.41 126.31 272.64 157.45 272.64 195.09L272.65 263.52L270.69 264.99C268.88 266.34 254.48 274.74 221.26 293.81C214.11 297.91 199.97 306.08 189.83 311.97C158.97 329.86 153.17 333.1 151.94 333.1C151.3 333.1 149.56 332.34 148.08 331.42ZM183.59 310.2C200.82 300.26 226.34 285.56 240.31 277.52C254.27 269.48 266.31 262.22 267.06 261.39L268.42 259.89L268.42 194.98C268.42 159.28 268.25 129.65 268.05 129.13C267.86 128.61 266.15 127.31 264.28 126.25C262.4 125.19 253.52 120.06 244.54 114.85C235.56 109.64 218.83 99.98 207.36 93.39C195.89 86.8 179.1 77.1 170.05 71.84C161 66.57 153.01 62.27 152.29 62.27C151.57 62.27 147 64.55 142.14 67.35C121.96 78.95 93.39 95.43 74.96 106.09C64.16 112.34 51.24 119.81 46.25 122.69L37.18 127.92L37.18 194.9L37.18 261.88L44.43 266.12C48.42 268.45 66.92 279.14 85.54 289.89C104.16 300.63 126.73 313.66 135.7 318.85C144.67 324.03 152.06 328.27 152.13 328.27C152.2 328.27 166.36 320.14 183.59 310.2ZM150.93 306.1C150.71 305.88 150.53 304.97 150.53 304.08C150.53 302.28 146.38 304.83 195.87 276.27C208.34 269.08 224.12 259.97 230.94 256.03C247.04 246.72 246.35 247.05 247.84 247.85C249.44 248.71 249.4 249.78 247.71 251.3C246.96 251.97 238.87 256.83 229.73 262.1C220.58 267.36 199.51 279.51 182.89 289.09C166.28 298.67 152.38 306.5 152.01 306.5C151.64 306.5 151.16 306.32 150.93 306.1ZM56.65 251.35C55.68 250.63 55.62 246.93 55.76 194.66L55.92 138.74L57.35 138.54C58.14 138.43 59.02 138.58 59.32 138.88C59.63 139.19 59.86 162.97 59.86 194.68C59.86 247.1 59.81 249.99 58.77 251.02C57.87 251.93 57.51 251.98 56.65 251.35ZM501.55 236.05C500.98 234.57 502.37 229.01 503.9 226.63C505.71 223.83 509.26 220.95 515.38 217.31C524.33 211.98 527.38 207.79 525.99 202.67C525.16 199.58 523.95 198.02 521.5 196.86C518.87 195.61 515.17 195.6 512.09 196.83C510.29 197.56 509.38 198.43 508.45 200.35C507.77 201.75 507.21 203.46 507.21 204.13C507.21 205.99 504.98 207.78 503.7 206.95C501.28 205.37 504.2 196.47 507.89 194.21C509.01 193.52 511.59 192.63 513.62 192.24C516.72 191.63 517.91 191.68 521.17 192.51C527.42 194.11 530.79 198.36 530.79 204.64C530.79 210.8 527.74 214.58 518.1 220.36C514.94 222.26 511.44 224.5 510.32 225.34C508.23 226.91 505.65 231.69 506.31 232.76C506.53 233.12 511.44 233.35 518.74 233.35C529.94 233.35 530.79 233.43 530.79 234.44C530.79 236.82 529.83 236.98 515.62 236.98C503.85 236.98 501.85 236.85 501.55 236.05ZM575.8 231.69C572.57 227.49 567.96 217.53 566.35 211.29C565.13 206.55 564.95 204.4 564.95 194.66C564.95 182.82 565.43 179.69 568.58 171.33C570.2 167.01 570.59 166.27 574.53 160.05C577.27 155.72 577.65 155.37 579.53 155.37C581.72 155.37 582.12 156.18 580.7 157.74C579.51 159.07 575.27 167.65 573.81 171.69C571.19 178.99 570.41 184.25 570.42 194.66C570.43 208.89 572.59 217.71 578.65 228.28C580.28 231.11 581.44 233.68 581.25 233.99C580.32 235.49 577.94 234.48 575.8 231.69ZM842.13 233.92C842.13 233.56 843.36 231.25 844.86 228.78C848 223.6 850.59 217.34 852.1 211.29C854.37 202.12 854.23 186.06 851.79 176.83C850.36 171.46 846.8 163.43 843.98 159.25C841.65 155.8 841.66 155.25 844.08 155.48C848.9 155.95 856.79 171.47 858.77 184.39C861.35 201.16 857.82 217.34 848.77 230.23C846.16 233.95 845.47 234.56 843.93 234.56C842.94 234.56 842.13 234.27 842.13 233.92ZM444.6 217.73C432.39 213.75 426.18 203.04 426.23 186.06C426.26 175.34 428.36 168.13 433.18 162.25C439.94 154.01 454.85 151.49 465.98 156.72C471.47 159.3 476.22 165.64 476.54 170.81C476.67 172.87 476.49 173.21 474.99 173.75C472.63 174.6 471.73 173.85 470.02 169.58C468.17 164.95 464.73 161.75 460.19 160.43C455.75 159.14 446.82 159.5 443.49 161.11C436.35 164.54 432.25 173.71 432.25 186.21C432.25 198.41 436.65 207.82 444.11 211.58C447.65 213.35 453.88 213.9 458.6 212.84C464.52 211.52 469.65 206.27 471.13 200.02L471.84 197.03L474.57 197.21C477.28 197.38 477.29 197.39 477.08 199.47C476.53 205.1 472.02 212.12 466.97 215.25C461.39 218.69 451.07 219.84 444.6 217.73ZM599.58 217.48C593.05 215.3 588.97 209.88 587.24 201.07C586.34 196.47 586.29 195.02 586.91 190.75C587.9 183.89 589.12 180.68 591.97 177.44C596 172.87 598.26 171.99 606.06 171.99C611.72 171.99 613.06 172.19 615.13 173.3C621.12 176.54 624.65 182.92 624.74 190.69L624.8 195.57L608.54 195.73L592.28 195.89L592.66 199.51C593.31 205.72 595.89 209.94 600.48 212.28C603.77 213.96 608.96 213.95 612.25 212.27C615.13 210.81 618.24 207.25 618.78 204.83C619.11 203.31 619.41 203.13 621.54 203.13C624.65 203.13 625.04 204.22 623.28 207.97C621.66 211.44 618.55 214.59 614.94 216.45C611.78 218.08 603.12 218.66 599.58 217.48ZM683.59 217.62C678.42 216.32 674.08 212.06 671.42 205.69C670.44 203.35 670.22 201.39 670.2 194.97C670.18 188.19 670.37 186.65 671.53 183.78C673.58 178.75 675.84 175.94 679.51 173.87C682.67 172.09 683.16 171.99 689.48 171.99C695.15 171.99 696.49 172.19 698.55 173.3C703.02 175.72 706.54 180.45 706.86 184.49C707.01 186.41 706.91 186.51 704.76 186.69C702.55 186.87 702.47 186.8 701.03 183.56C698.99 178.93 695.91 176.94 690.33 176.63C680.63 176.08 675.56 182.41 675.67 194.97C675.77 206.63 680.88 213.35 689.66 213.39C695.2 213.41 699.28 210.45 701.65 204.68C702.85 201.75 704.06 200.97 706.45 201.57C708.36 202.05 708.31 203.21 706.2 207.66C704.32 211.63 700.59 215.41 697.14 216.86C694.47 217.97 686.7 218.41 683.59 217.62ZM727.31 217.58C722.44 216.08 718.3 211.92 715.97 206.15C715.08 203.94 714.88 201.74 714.88 194.36C714.89 185.62 714.96 185.17 716.62 181.82C718.58 177.85 721.07 175.18 724.55 173.3C726.61 172.19 727.95 171.99 733.62 171.99C739.28 171.99 740.62 172.19 742.68 173.3C745.18 174.65 748.11 177.49 749.76 180.18C751.84 183.55 753.71 193.98 752.46 195.23C752.03 195.65 746.37 195.87 735.83 195.87L719.84 195.87L720.2 199.73C720.74 205.52 723.54 209.97 728.12 212.31C731.32 213.96 736.55 213.94 739.81 212.27C742.69 210.81 745.8 207.25 746.34 204.83C746.67 203.31 746.97 203.13 749.1 203.13C752.11 203.13 752.5 204.05 750.96 207.54C749.35 211.19 746.08 214.67 742.66 216.38C739.4 218 730.89 218.67 727.31 217.58ZM771.1 217.68C765.17 216.23 759.91 210.24 759.91 204.93C759.91 203.11 759.98 203.06 762.45 203.24C764.78 203.42 765.02 203.59 765.52 205.55C767.52 213.5 779.66 216.07 786.06 209.9C788.83 207.24 789.19 204.13 786.97 202.09C785.43 200.68 781.13 198.29 780.13 198.29C777.82 198.29 767.19 194.45 764.59 192.68C758.56 188.58 759.58 177.7 766.36 173.71C769.09 172.1 769.71 171.99 775.93 171.99C781.62 171.99 782.94 172.18 785.06 173.32C788.3 175.05 791.11 178.31 792.04 181.41C792.96 184.48 792.24 185.9 789.78 185.9C788.43 185.9 787.87 185.5 787.26 184.08C785.46 179.92 784.87 179.18 782.3 177.89C776.93 175.18 768.77 176.53 766.91 180.44C765.73 182.94 765.72 183.98 766.85 186.17C768.08 188.54 770.75 190.03 777.14 191.94C788.53 195.32 791.08 196.66 792.95 200.27C794.22 202.73 794.22 207.75 792.96 210.18C791.51 213 787.27 216.34 783.86 217.35C780.74 218.28 774.25 218.44 771.1 217.68ZM813.42 217.71C807.15 216.06 802.25 210.24 802.24 204.45C802.23 203.19 802.47 203.08 804.75 203.24C807.09 203.42 807.31 203.59 807.92 205.72C810.22 213.77 822.68 216.17 828.52 209.71C833.38 204.32 830.26 200.59 817.95 197.06C810.29 194.87 808.1 193.88 805.77 191.55C800.77 186.55 802.28 177.47 808.74 173.68C811.02 172.34 812.44 172.01 816.7 171.81C822.45 171.53 825.82 172.22 828.87 174.27C835.04 178.43 836.7 187.4 831.04 185.98C829.94 185.7 829.44 185.17 829.44 184.3C829.44 180.15 824.19 176.52 818.21 176.54C812.95 176.56 809.77 178.17 808.83 181.29C807.25 186.58 810.31 189.38 821.13 192.49C829.33 194.86 832.81 196.63 834.69 199.42C838.59 205.2 835.75 212.93 828.44 216.47C825.47 217.91 816.85 218.62 813.42 217.71ZM362.89 217.15C362.36 216.81 362.1 213.46 361.99 205.22L361.82 193.76L350.18 193.59L338.55 193.43L338.55 191.63L338.55 189.83L349.61 189.83C357.41 189.83 360.89 189.61 361.4 189.1C361.91 188.59 362.12 185.11 362.12 177.31L362.12 166.25L363.92 166.25L365.72 166.25L365.89 177.89L366.05 189.53L377.43 189.69L388.8 189.85L388.61 191.5L388.42 193.15L377.09 193.32L365.75 193.48L365.75 204.83C365.75 217.05 365.36 218.72 362.89 217.15ZM488.59 216.91C488.05 216.37 487.87 208.61 487.87 185.74L487.87 155.3L490.44 155.48L493.01 155.67L493.17 185.9C493.31 213.78 493.24 216.18 492.29 216.88C490.99 217.83 489.53 217.85 488.59 216.91ZM629.48 217.24C629.07 217.07 628.73 216.66 628.73 216.32C628.73 215.79 633.42 208.75 641.24 197.54C642.34 195.97 643.24 194.42 643.24 194.11C643.24 193.81 640.11 189.03 636.28 183.49C632.46 177.96 629.33 173.18 629.33 172.86C629.33 172.55 630.69 172.3 632.35 172.3L635.37 172.3L640.97 180.74C644.04 185.39 646.73 189.2 646.95 189.21C647.16 189.22 649.81 185.41 652.85 180.76L658.36 172.3L661.44 172.3C663.95 172.3 664.46 172.47 664.17 173.22C663.98 173.72 660.96 178.32 657.46 183.45C653.96 188.57 651.1 193.31 651.1 193.99C651.1 194.66 654.17 199.51 657.93 204.76C661.69 210.01 664.97 214.66 665.23 215.09C666.56 217.29 661.72 218.58 659.71 216.57C659.12 215.99 656.12 211.77 653.03 207.2C649.94 202.63 647.22 198.9 646.99 198.91C646.75 198.91 644.39 202.24 641.73 206.29C635.47 215.82 633.88 217.65 631.84 217.59C630.96 217.56 629.9 217.4 629.48 217.24ZM1232.89 215.52C1232.4 214.26 1235.81 207.87 1239.69 202.76C1241.48 200.39 1242.95 198.28 1242.95 198.07C1242.95 197.86 1165.96 197.69 1071.86 197.69L900.77 197.69L900.77 195.57L900.77 193.45L1071.52 193.45C1188.43 193.45 1242.39 193.26 1242.66 192.83C1242.87 192.49 1241.56 190.24 1239.74 187.84C1236.43 183.48 1232.67 176.89 1232.67 175.47C1232.67 175.05 1233.28 174.72 1234.03 174.72C1234.94 174.72 1237.28 176.63 1241.13 180.51C1244.29 183.7 1249.26 188.09 1252.16 190.27C1255.38 192.69 1257.45 194.67 1257.45 195.33C1257.45 195.93 1256.43 197.16 1255.19 198.07C1248.01 203.32 1245.8 205.19 1240.47 210.53C1237.24 213.77 1234.29 216.43 1233.91 216.43C1233.54 216.43 1233.08 216.02 1232.89 215.52ZM619.03 190.76C620.75 188.69 617.29 181.01 613.53 178.52C610.64 176.6 604.84 175.94 601.26 177.12C598.59 178 595.73 180.33 594.57 182.58C593.45 184.75 592.31 189.8 592.71 190.84C593.19 192.08 618 192 619.03 190.76ZM746.99 190.77C747.51 189.41 745.48 183.2 743.8 180.99C739.69 175.6 729.48 174.94 724.35 179.73C721.68 182.22 719.35 188.44 720.23 190.73C720.74 192.06 746.48 192.1 746.99 190.77ZM1013.24 175.19C1013.25 174.43 1013.66 173.28 1014.14 172.63C1015.3 171.11 1015.29 168.29 1014.13 167.85C1013.5 167.61 1013.22 166.63 1013.22 164.76C1013.22 162.03 1013.23 162.02 1015.32 162.02C1017.08 162.02 1017.49 162.28 1017.82 163.58C1018.36 165.73 1017.62 171.43 1016.53 173.54C1016.03 174.5 1015.08 175.57 1014.42 175.93C1013.38 176.48 1013.22 176.38 1013.24 175.19ZM949.25 168.16C945.38 166.78 942.19 163.89 940.45 160.2C939.24 157.66 939.15 156.35 938.96 139.46L938.76 121.43L941.08 121.63L943.39 121.82L943.7 139.65C944.02 158.64 944.14 159.44 947.22 162.23C951.26 165.88 961.48 165.88 965.58 162.23C966.27 161.61 967.48 159.75 968.26 158.09C969.64 155.14 969.68 154.63 969.69 138.25L969.69 121.44L971.96 121.63L974.23 121.82L974.39 136.02C974.63 155.69 973.76 160.32 968.99 164.83C966.11 167.56 962.83 168.74 957.3 169.05C953.56 169.25 951.73 169.05 949.25 168.16ZM1052.22 168.31C1047.68 166.64 1044.05 161.97 1044.05 157.77C1044.05 156.03 1044.19 155.91 1045.96 156.09C1047.57 156.25 1047.99 156.64 1048.69 158.67C1050.32 163.38 1053.81 165.42 1059.37 164.88C1062.11 164.62 1062.74 164.27 1064.99 161.8C1066.96 159.62 1067.6 158.36 1067.92 156.06C1068.46 152.12 1067.4 148.51 1064.92 145.8L1062.88 143.58L1057.74 143.58C1053.31 143.58 1052.37 143.77 1050.9 144.95C1045.73 149.09 1044.77 148.34 1045.83 141.03C1047.36 130.45 1048.37 124.83 1048.82 124.37C1049.07 124.11 1054.02 123.98 1059.81 124.07C1069.51 124.22 1070.35 124.32 1070.55 125.36C1070.96 127.48 1069.62 127.85 1060.54 128.16L1051.69 128.47L1050.68 134.51C1050.12 137.84 1049.76 140.67 1049.88 140.81C1049.99 140.94 1050.78 140.74 1051.63 140.36C1052.47 139.97 1054.58 139.49 1056.31 139.29C1065.6 138.2 1072.56 144.37 1072.65 153.78C1072.75 164.74 1062.46 172.05 1052.22 168.31ZM1086.56 167.8C1081.17 165.29 1078.1 158.86 1077.5 148.8C1076.81 137.39 1079.72 127.78 1084.73 124.92C1091.94 120.8 1100.49 123.26 1104.17 130.51C1106.37 134.87 1107.12 139.93 1106.79 148.28C1106.46 156.78 1105.19 160.72 1101.54 164.66C1097.23 169.3 1092.09 170.38 1086.56 167.8ZM1120.78 167.61C1114.75 164.55 1112.06 157.66 1112.11 145.39C1112.14 135.96 1113.6 130.54 1117.12 126.75C1120.43 123.18 1125.34 122.02 1130.6 123.55C1136.21 125.17 1139.39 129.7 1141.04 138.4C1142.22 144.62 1142.23 147.16 1141.09 153.09C1139.93 159.15 1138.99 161.31 1136.15 164.46C1131.68 169.43 1126.47 170.49 1120.78 167.61ZM994.61 167.31C994.1 166.7 988.67 151.61 986.6 145.09C986.34 144.26 984.47 138.85 982.44 133.07C980.42 127.28 978.76 122.3 978.76 122C978.76 121.69 979.76 121.53 980.99 121.63L983.23 121.82L986.12 130.28C987.72 134.93 990.55 143.23 992.42 148.72C994.3 154.2 996.02 159.05 996.26 159.49C996.88 160.65 997.78 159.36 998.91 155.67C1000.5 150.48 1009.99 122.94 1010.44 122.21C1010.88 121.49 1013.95 121.24 1014.58 121.87C1014.91 122.2 1013.42 126.87 1008.7 140.25C1007.59 143.41 1005.13 150.49 1003.24 155.97C1001.35 161.46 999.38 166.42 998.86 167.01C997.76 168.24 995.51 168.4 994.61 167.31ZM1165.97 167.66C1165.75 167.44 1165.56 156.95 1165.56 144.35L1165.56 121.44L1167.53 121.63L1169.49 121.82L1169.66 133.15C1169.75 139.39 1170.02 144.49 1170.26 144.49C1170.5 144.49 1175.73 139.29 1181.88 132.94L1193.07 121.4L1195.79 121.61L1198.51 121.82L1189.59 130.95C1184.69 135.97 1180.68 140.26 1180.68 140.49C1180.68 140.86 1183.3 144.32 1196.55 161.47C1200.74 166.88 1200.95 168.06 1197.76 168.06C1195.95 168.06 1195.26 167.29 1185.8 154.81C1181.18 148.71 1177.56 144.49 1176.97 144.49C1176.41 144.49 1174.57 146.09 1172.88 148.04L1169.8 151.6L1169.8 159.11C1169.8 164.14 1169.56 166.85 1169.07 167.34C1168.28 168.13 1166.61 168.3 1165.97 167.66ZM1096.44 163.77C1100.97 160.97 1103.14 151.72 1101.98 140.18C1101.07 131.1 1098.01 126.95 1092.22 126.96C1087.72 126.96 1085.59 128.45 1084 132.7C1081.44 139.53 1081.76 154.73 1084.58 160.24C1086.9 164.8 1092.22 166.38 1096.44 163.77ZM1130.48 164.14C1134.73 161.95 1136.78 156.07 1136.82 146C1136.87 132.83 1133.74 126.95 1126.68 126.95C1123.34 126.95 1120.82 128.19 1119.45 130.51C1115.52 137.17 1115.67 154.68 1119.72 161.27C1121.91 164.83 1126.69 166.11 1130.48 164.14ZM243.03 140.92C241.53 139.98 234.46 135.87 227.31 131.77C220.16 127.68 208.87 121.15 202.22 117.28C195.57 113.4 184.55 107.03 177.74 103.11C148.74 86.47 150.46 87.58 150.66 85.56C150.77 84.42 151.22 83.67 151.87 83.54C152.43 83.44 159.78 87.35 168.19 92.24C176.6 97.14 194.09 107.25 207.06 114.71C220.02 122.18 234.67 130.61 239.6 133.45C244.54 136.3 248.73 139.03 248.92 139.52C249.39 140.74 248.3 142.34 246.9 142.49C246.26 142.56 244.52 141.85 243.03 140.92Z" fill="#1e2749" fill-rule="evenodd"/>
</svg>
