<?xml version="1.0" encoding="UTF-8"?>
<svg xmlns="http://www.w3.org/2000/svg" viewBox="0 0 2430 2527" width="2430" height="2527" shape-rendering="geometricPrecision">
<path d="M2257.56 2441.89C2254.3 2441.41 2251.16 2440.56 2250.59 2439.99C2248.75 2438.15 2251.42 2435.57 2256.47 2434.3C2262.79 2432.7 2264.66 2430.81 2265.98 2424.65C2267.21 2418.94 2268.68 2371.73 2269.18 2322.5L2269.5 2290.5L2261.5 2290.2C2247.17 2289.66 2233.88 2293.28 2227.88 2299.36C2226.44 2300.81 2224.31 2304.62 2223.15 2307.82C2220.72 2314.46 2216.66 2319.06 2214.82 2317.22C2213.96 2316.36 2214.09 2314.21 2215.34 2308.51C2216.25 2304.35 2217 2296.68 2217 2291.46L2217 2281.99L2283.75 2282.24L2350.5 2282.5L2350.36 2297.6C2350.23 2312.34 2349.26 2317.59 2346.81 2316.77C2346.23 2316.58 2344.13 2313.06 2342.13 2308.96C2335.87 2296.1 2326.38 2291.23 2305.69 2290.27L2293.89 2289.72L2294.51 2326.61C2294.85 2346.9 2295.53 2377.38 2296.03 2394.35C2297.11 2431.06 2297.2 2431.44 2305.96 2434.25C2322.27 2439.47 2311.7 2443.05 2280.5 2442.86C2271.15 2442.8 2260.83 2442.37 2257.56 2441.89ZM2144.2 2195.8C2141.17 2192.77 2143.9 2185.89 2152.14 2175.82C2154.99 2172.34 2165.44 2161.29 2175.37 2151.25L2193.43 2133L2137.46 2133C1813.39 2133.01 342.34 2130.7 341.83 2130.18C341.46 2129.81 340.86 1764.78 340.5 1319C340.13 873.22 339.69 482.4 339.52 450.5C339.34 418.6 339.15 339.7 339.1 275.17C339.04 204.8 338.63 157.97 338.09 158.17C337.58 158.35 330.5 165.03 322.34 173.02C292.77 201.95 285.59 208 280.87 208C275.13 208 276.21 201.9 283.71 192C289.66 184.14 318.54 153.55 328.71 144.33C340.75 133.42 344.12 131 347.26 131C352.24 131 362.3 139.36 389.34 165.96C409.8 186.09 420 197.86 420 201.34C420 204.16 417.34 208 415.39 208C410.42 208 400.35 200.04 376.76 177.47C366.17 167.33 357.16 159.03 356.75 159.02C356.34 159.01 356 599.36 356 1137.58L356 2116.17L493.25 2115.7C572.55 2115.43 638.52 2114.77 649.5 2114.15C703.89 2111.06 736.69 2108.15 770.19 2103.47C1174.44 2046.89 1547.89 1821.2 1776.24 1495.47C1842.58 1400.84 1901.48 1290.26 1948.28 1172.5C2003.45 1033.66 2045.51 873.65 2069.05 713C2077.75 653.62 2082.6 610.35 2089 535C2094.88 465.85 2095.06 465 2103.65 465C2109.76 465 2109.94 468.57 2106.46 521C2102.15 586.03 2094.45 656.33 2084.48 721.5C2083.64 727 2082.53 734.42 2082.01 738C2081.5 741.58 2078.6 758.67 2075.58 776C2019 1100.67 1900.08 1375.98 1723.14 1591.95C1683.62 1640.2 1594.85 1729.4 1536.44 1779.56C1502.56 1808.67 1444.39 1851.82 1395.5 1884.15C1299.01 1947.94 1192.25 2001.95 1086 2040.71C1004.76 2070.35 928.25 2091.43 834.25 2110.08C822.56 2112.39 813 2114.68 813 2115.15C813 2116.23 2190.71 2116.28 2191.38 2115.2C2191.65 2114.76 2183.54 2105.64 2173.35 2094.95C2147.55 2067.85 2141.52 2059.55 2143.89 2054.33C2145.08 2051.74 2148.64 2051.23 2152.32 2053.13C2155.48 2054.76 2165.03 2062.99 2176.47 2073.95C2193.7 2090.45 2226 2122.94 2226 2123.77C2226 2125.14 2169.99 2181.36 2160.63 2189.39C2153.61 2195.41 2151.1 2197 2148.58 2197C2146.83 2197 2144.86 2196.46 2144.2 2195.8ZM62.01 281.51C59.62 278.64 59.12 265.2 60.05 229.5C61.16 187.27 62.6 159.56 64.07 152.32C65.35 145.96 71.18 136.72 77.09 131.65C83.63 126.05 95.62 120.41 104.01 119C119.94 116.31 138.21 124.13 148.43 138.02C155.43 147.52 157.5 154.94 157.5 170.5C157.5 182.15 157.2 184.42 154.6 192.35C147.05 215.38 127.54 232.86 108.28 233.84C102.96 234.12 99.25 233.66 94.13 232.11C81.91 228.4 82.41 227.99 81.61 242.25C80.75 257.56 78.44 273.25 76.49 277.01C75.68 278.59 74.01 280.58 72.78 281.44C69.95 283.42 63.63 283.46 62.01 281.51ZM113.81 225.46C120.47 223.49 129.04 215.34 132.56 207.64C138.08 195.59 139.31 181.47 135.99 168.41C131.7 151.6 123.9 141.3 110.56 134.85C101.33 130.38 96.41 129.96 90.5 133.13C85.18 135.98 84.32 137.36 82.98 145.22C81.46 154.13 82.22 202.81 83.97 208.7C86.2 216.21 93.99 223.31 103 226.06C106.77 227.22 108.17 227.14 113.81 225.46Z" fill="#1e2749" fill-rule="evenodd"/>
</svg>
