<?xml version="1.0" encoding="UTF-8"?>
<svg xmlns="http://www.w3.org/2000/svg" viewBox="0 0 643 301" width="643" height="301" shape-rendering="geometricPrecision">
<path d="M169.08 267.43C168.33 267.29 168.33 267.28 168.33 260.31L168.33 253.33L171.78 253.33C174.81 253.33 175.37 253.43 176.34 254.08C177.81 255.08 178.22 256.33 177.53 257.71C176.82 259.12 176.84 259.23 178 260.55C178.77 261.42 179 262.01 179 263.07C179 264.26 178.8 264.64 177.55 265.84C176.55 266.79 175.69 267.3 174.8 267.44C173.41 267.67 170.31 267.67 169.08 267.43ZM175.92 264.47C176.84 263.43 176.87 262.54 176 261.67C175.46 261.13 174.89 261 173 261L170.67 261L170.67 263.11C170.67 264.27 170.78 265.34 170.92 265.48C171.05 265.62 172.07 265.64 173.17 265.52C174.72 265.36 175.33 265.12 175.92 264.47ZM174.68 258.15C175.41 257.49 175.54 256.34 174.93 255.73C174.71 255.51 173.66 255.33 172.6 255.33L170.67 255.33L170.67 256.94C170.67 257.83 170.78 258.67 170.92 258.81C171.34 259.24 173.99 258.78 174.68 258.15ZM176.22 242.11C176.1 241.99 176 231.58 176 218.97C176 206.37 175.91 195.82 175.8 195.53C175.62 195.05 173.15 195 151.32 195C136.35 195 126.72 194.88 126.19 194.67L125.33 194.35L125.33 178.01C125.33 165.16 125.24 161.67 124.92 161.66C124.69 161.66 109.27 161.66 90.65 161.67C54.68 161.68 55.42 161.71 55.72 160.14C55.84 159.51 56.53 159.5 90.22 159.42C118.61 159.35 124.65 159.25 124.96 158.88C125.24 158.55 125.31 143.96 125.25 104.46L125.17 50.5L90.5 50.33L55.83 50.17L55.73 49.25L55.62 48.33L89.83 48.33C112.78 48.33 124.26 48.22 124.69 47.99C125.3 47.66 125.33 47.22 125.33 40.19C125.33 33.7 125.4 32.71 125.86 32.54C126.15 32.42 151.57 32.33 182.34 32.33L238.3 32.33L238.81 33.07C239.28 33.73 239.33 37.97 239.33 71.89L239.33 109.97L263.78 110.07C283.89 110.15 288.33 110.25 288.78 110.62C289.29 111.04 289.34 116.05 289.42 174.79L289.5 238.5L376.33 238.59L463.17 238.68L463.75 237.97C464.29 237.31 464.33 235.75 464.33 215.82C464.33 204.03 464.24 194.15 464.13 193.86C463.95 193.39 461.09 193.33 435.17 193.33C411.54 193.33 406.35 193.25 406.04 192.89C405.79 192.58 405.65 187.76 405.59 177.14L405.5 161.83L370.83 161.66C351.77 161.57 336.13 161.45 336.08 161.41C336.04 161.37 336 160.88 336 160.33L336 159.33L370.28 159.33C403.07 159.33 404.59 159.31 405.12 158.72C405.62 158.16 405.67 153.93 405.67 104.6C405.67 60.14 405.59 51.02 405.22 50.71C404.89 50.44 395.14 50.31 370.47 50.25L336.17 50.17L336.06 49.25L335.96 48.33L370.07 48.33C400.41 48.33 404.27 48.28 404.93 47.81C405.66 47.3 405.67 47.19 405.67 39.15L405.67 31L462.42 31.08L519.17 31.17L519.33 70.59L519.5 110.02L554.5 110.01C573.75 110.01 589.84 110.1 590.25 110.21C591.16 110.45 591.21 111.04 590.39 111.79C589.82 112.3 586.99 112.34 554.64 112.33L519.5 112.32L519.42 152.22C519.34 188.76 519.28 192.17 518.78 192.73C518.26 193.3 516.97 193.33 492.28 193.33L466.33 193.33L466.33 216.63C466.33 235.92 466.26 239.98 465.88 240.3C465.54 240.58 442.47 240.65 376.53 240.59C297.95 240.51 287.61 240.44 287.33 240C287.13 239.69 287.01 215.41 287.01 175.92L287 112.33L263.17 112.33L239.33 112.33L239.33 152.95L239.33 193.56L238.63 194.2C237.95 194.81 236.91 194.84 208.28 194.91C191.97 194.95 178.49 195.07 178.32 195.18C178.12 195.3 178 204.28 178 218.45C178 235.96 177.9 241.63 177.6 241.93C177.16 242.38 176.56 242.45 176.22 242.11ZM474.42 235.32C473.67 235.02 473.67 234.96 473.67 228.18L473.67 221.33L478.18 221.33C481.9 221.33 482.72 221.42 482.88 221.84C483.31 222.96 482.38 223.33 479.13 223.33L476 223.33L476 224.65C476 226.39 476.76 226.81 479.44 226.57C481.66 226.37 483 226.72 483 227.5C483 228.28 481.57 228.67 478.64 228.67L476 228.67L476 230.79C476 232.13 476.16 233.05 476.43 233.28C476.67 233.48 478.21 233.68 479.85 233.74C482.37 233.82 482.84 233.92 482.94 234.42C483.01 234.8 482.74 235.11 482.17 235.33C481.09 235.74 475.45 235.74 474.42 235.32ZM236.45 192.06C236.96 191.49 237 185.65 236.92 113.14L236.83 34.83L182.25 34.75L127.67 34.66L127.67 113.44C127.67 156.77 127.77 192.32 127.89 192.44C128.01 192.57 152.36 192.67 182 192.67C233.82 192.67 235.92 192.64 236.45 192.06ZM516.83 112L516.83 33.17L463 33.08C433.39 33.03 408.83 33.07 408.42 33.16L407.67 33.34L407.67 111.95C407.67 155.18 407.77 190.66 407.89 190.78C408.01 190.9 432.58 190.96 462.47 190.92L516.83 190.83L516.83 112ZM41 169.63C36.97 168.42 35.36 164.29 36.88 159.05C38.37 153.92 42.3 151.27 47.7 151.76C51.28 152.08 53.07 153.54 51.88 155.16C51.4 155.82 51.38 155.81 49.95 155C47.96 153.86 44.4 153.82 42.64 154.91C40.73 156.1 39.56 158.61 39.42 161.83C39.29 164.78 39.59 165.67 41.09 166.79C42.41 167.77 45.18 167.66 47.35 166.53C49.34 165.48 50 165.44 50 166.36C50 167.34 48.34 168.87 46.81 169.3C44.78 169.87 42.28 170.01 41 169.63ZM135.51 166.21C134.77 165.67 135.03 164.67 135.92 164.67C136.25 164.67 136.85 164.43 137.26 164.15C137.95 163.67 138 163.37 138 160.02C138 156.11 137.87 155.81 136.17 155.61C134.76 155.45 134.78 154.31 136.19 153.94C136.76 153.8 137.49 153.37 137.83 153.01C138.6 152.16 139.54 152.14 139.99 152.98C140.19 153.35 140.33 155.93 140.33 158.99L140.33 164.35L141.33 164.55C142.81 164.85 143.2 165.49 142.28 166.14C141.29 166.83 136.42 166.88 135.51 166.21ZM416.51 166.21C415.77 165.67 416.03 164.67 416.92 164.67C417.25 164.67 417.85 164.43 418.26 164.15C418.95 163.67 419 163.37 419 160.02C419 156.11 418.87 155.81 417.17 155.61C415.76 155.45 415.78 154.31 417.19 153.94C417.76 153.8 418.49 153.37 418.83 153.01C419.16 152.64 419.68 152.33 419.98 152.33C421.19 152.33 421.33 152.99 421.33 158.74L421.33 164.35L422.33 164.55C423.81 164.85 424.2 165.49 423.28 166.14C422.29 166.83 417.42 166.88 416.51 166.21ZM353.67 155.7C353.67 155.09 354.29 153.26 357.33 145L358.24 142.5L359.69 142.5L361.14 142.5L362.2 145.23C362.79 146.73 363.58 148.83 363.95 149.9C364.33 150.96 364.94 152.66 365.32 153.67C366.11 155.77 366.01 156.33 364.88 156.33C363.93 156.33 363.55 155.92 363.03 154.28C362.55 152.8 362.25 152.67 359.3 152.67C357.08 152.67 356.97 152.71 356.63 153.58C355.8 155.74 355.46 156.17 354.57 156.27C353.85 156.36 353.67 156.24 353.67 155.7ZM361.21 150.18C361.44 149.57 360.25 145.92 359.77 145.76C359.43 145.64 358 149.27 358 150.23C358 150.87 360.96 150.82 361.21 150.18ZM36.08 146.45C35.5 146.21 35.56 145.44 36.19 145.2C37.04 144.88 52.12 144.98 52.65 145.31C53.04 145.56 53.05 145.71 52.69 146.14C52.31 146.59 51.16 146.66 44.38 146.64C40.04 146.63 36.31 146.54 36.08 146.45ZM158.52 133.14C158.21 132.83 158.05 132.36 158.15 132.1C158.25 131.83 158.33 128.64 158.33 125L158.33 118.39L159.32 118.17C161.26 117.74 161.97 118.48 163.67 122.67C166.09 128.64 166.3 129.06 166.66 128.84C166.85 128.72 167.31 127.92 167.69 127.06C168.06 126.2 168.5 125.2 168.67 124.83C168.83 124.47 169.25 123.49 169.59 122.67C171.31 118.54 171.39 118.4 172.28 118.23C172.77 118.13 173.58 118.14 174.09 118.23L175.01 118.41L174.92 125.79L174.83 133.17L173.83 133.17L172.83 133.17L172.74 127.92C172.64 122.16 172.33 121.42 171.2 124.25C168.08 132.08 167.02 133.91 165.88 133.47C165.64 133.38 164.48 130.84 163.3 127.82C162.13 124.8 161.06 122.34 160.93 122.33C160.79 122.33 160.64 124.68 160.59 127.54C160.51 132.44 160.46 132.78 159.79 133.22C159.16 133.64 159.01 133.63 158.52 133.14ZM183.07 133.45C181.85 133.18 179.78 130.98 179.37 129.5C179.17 128.77 179 126.05 179 123.46C179 118.21 179.23 117.54 180.84 118.28L181.67 118.65L181.67 123.97C181.67 129.01 181.71 129.34 182.42 130.17C183.31 131.21 185.41 131.58 186.67 130.93C188.29 130.08 188.67 128.65 188.67 123.25L188.67 118.33L189.86 118.33L191.04 118.33L190.94 123.94C190.84 129.29 190.79 129.61 190 130.78C189.54 131.46 188.65 132.32 188.03 132.7C186.87 133.39 184.47 133.75 183.07 133.45ZM193.42 133.42C192.63 133.15 193.01 132.06 195 128.89L197 125.71L195.95 123.77C195.37 122.7 194.47 121.24 193.95 120.52C192.83 118.97 192.77 118.45 193.65 118.17C194.73 117.83 195.57 118.55 197.01 121.02C198.6 123.75 198.68 123.74 200.48 120.51C201.7 118.34 202.58 117.75 203.73 118.37C204.31 118.68 204.29 118.77 203.4 120.1C202.08 122.05 200.33 125.18 200.33 125.6C200.33 125.79 201.24 127.49 202.36 129.38C204.16 132.42 204.32 132.85 203.84 133.2C203.55 133.42 203 133.52 202.63 133.42C201.9 133.23 201.59 132.81 200.05 130C199.5 128.99 198.83 128.12 198.56 128.07C198.26 128 197.51 128.94 196.55 130.61C195.12 133.09 194.39 133.75 193.42 133.42ZM437.52 130.13C437.03 129.64 436.96 128.8 437.01 123.54C437.08 115.78 437.14 115.43 438.35 115.16C440.26 114.74 440.98 115.5 442.67 119.67C445.09 125.64 445.3 126.06 445.66 125.84C445.85 125.72 446.31 124.92 446.69 124.06C447.06 123.2 447.5 122.2 447.67 121.83C447.83 121.47 448.25 120.49 448.59 119.67C450.28 115.61 450.42 115.38 451.25 115.18C451.71 115.06 452.52 115.06 453.05 115.18L454.01 115.39L453.92 122.78L453.83 130.17L452.83 130.17L451.83 130.17L451.74 124.92C451.64 119.16 451.33 118.42 450.2 121.25C447.08 129.08 446.02 130.91 444.88 130.47C444.64 130.38 443.48 127.84 442.3 124.82C441.13 121.8 440.06 119.34 439.93 119.33C439.79 119.33 439.64 121.68 439.59 124.54C439.51 129.44 439.46 129.78 438.79 130.22C438.16 130.64 438.01 130.63 437.52 130.13ZM462.17 130.43C461.14 130.18 459.39 128.74 458.85 127.71C458.5 127.03 458.36 125.29 458.31 121.2C458.24 115.12 458.37 114.61 459.82 115.27L460.67 115.65L460.67 120.97C460.67 126.01 460.71 126.34 461.42 127.17C462.31 128.21 464.41 128.58 465.67 127.93C467.29 127.08 467.67 125.65 467.67 120.25L467.67 115.33L468.86 115.33L470.04 115.33L469.94 120.95C469.83 126.48 469.82 126.58 468.89 127.92C467.48 129.96 464.62 131.02 462.17 130.43ZM472.42 130.42C471.63 130.15 472.01 129.06 474 125.89L476 122.71L474.94 120.77C474.36 119.7 473.46 118.25 472.94 117.53C471.83 116 471.77 115.45 472.65 115.17C473.73 114.83 474.57 115.55 476.01 118.02C477.6 120.75 477.68 120.74 479.48 117.51C480.7 115.34 481.58 114.75 482.73 115.37C483.31 115.68 483.29 115.77 482.4 117.1C481.08 119.05 479.33 122.18 479.33 122.6C479.33 122.79 480.24 124.49 481.36 126.38C483.19 129.47 483.33 129.85 482.83 130.21C482.48 130.46 481.99 130.52 481.56 130.36C480.86 130.1 480.49 129.59 478.9 126.67C478.45 125.84 477.86 125.12 477.58 125.07C477.26 125 476.54 125.9 475.55 127.61C474.12 130.09 473.39 130.75 472.42 130.42ZM445.25 105.44C444.11 105.14 444.67 103.84 447.17 101C450.02 97.76 450.75 96.12 449.97 94.71C449.59 94.04 449.18 93.81 448.18 93.73C447.46 93.67 446.53 93.81 446.1 94.04C445.48 94.37 445.24 94.37 444.91 94.04C444.58 93.71 444.69 93.45 445.44 92.81C446.16 92.18 446.75 92 448.08 92C450.27 92 451.86 93 452.38 94.71C452.7 95.77 452.64 96.15 451.91 97.71C451.46 98.7 450.31 100.35 449.37 101.39C448.43 102.42 447.67 103.44 447.67 103.64C447.67 103.86 448.52 104 449.92 104.01C452.6 104.01 453.51 104.42 452.52 105.17C452.05 105.53 451.05 105.66 448.85 105.63C447.19 105.61 445.57 105.52 445.25 105.44ZM466.45 105.14C466.17 104.42 466.63 104.07 468 103.94L469.17 103.83L469.26 99.58C469.35 95.59 469.31 95.33 468.72 95.33C468.37 95.33 467.89 95.56 467.67 95.83C467.01 96.63 466.33 96.43 466.33 95.45C466.33 94.57 466.48 94.4 468.76 92.79C469.83 92.03 470.13 91.95 470.84 92.28L471.67 92.65L471.67 98.33C471.67 103.99 471.67 104 472.42 104.01C472.83 104.01 473.38 104.15 473.65 104.31C474.04 104.56 474.05 104.71 473.69 105.14C473.05 105.91 466.74 105.91 466.45 105.14ZM574 100.38C574 96.86 573.92 96.32 573.3 95.53C572.65 94.71 572.64 94.58 573.11 94.06C573.4 93.74 573.83 92.89 574.07 92.16C574.55 90.67 576.08 89.67 577.88 89.67C580.19 89.67 580.05 91.54 577.72 91.73C576.72 91.81 576.48 91.98 576.39 92.63C576.26 93.54 576.79 93.99 578.03 93.99C578.5 94 578.99 94.1 579.11 94.22C579.53 94.64 578.23 95.67 577.28 95.67L576.33 95.67L576.33 99.6C576.33 103.77 576.15 104.33 574.77 104.33C574.01 104.33 574 104.28 574 100.38ZM455.33 102.56C455.33 102.06 455.82 101.38 456.67 100.67C457.4 100.05 458 99.41 458 99.25C458 99.09 457.4 98.41 456.67 97.75C455.93 97.1 455.33 96.28 455.33 95.95C455.33 94.92 456.57 95.23 458.12 96.66L459.55 97.98L460.84 96.66C461.61 95.87 462.45 95.33 462.9 95.33C464.04 95.33 463.87 96.34 462.5 97.67C461.86 98.29 461.33 99 461.33 99.24C461.33 99.49 461.86 100.17 462.5 100.76C463.74 101.9 464 102.89 463.14 103.22C462.8 103.35 462.12 102.94 461.21 102.05C460.44 101.29 459.68 100.67 459.52 100.67C459.37 100.67 458.59 101.27 457.79 102C456.14 103.52 455.33 103.71 455.33 102.56ZM166.25 102.44C165.11 102.14 165.67 100.84 168.17 98C170.98 94.81 171.73 93.09 170.94 91.67C170.4 90.69 168.37 90.36 167.1 91.04C166.48 91.37 166.24 91.37 165.91 91.04C165.58 90.71 165.69 90.45 166.44 89.81C167.18 89.17 167.74 89 169.17 89C170.71 89 171.15 89.15 172.13 90.01C172.77 90.57 173.38 91.47 173.5 92.01C173.8 93.38 172.5 96.03 170.37 98.39C169.43 99.42 168.67 100.44 168.67 100.64C168.67 100.86 169.52 101 170.92 101.01C173.6 101.01 174.51 101.42 173.52 102.17C173.05 102.53 172.05 102.66 169.85 102.63C168.19 102.61 166.57 102.52 166.25 102.44ZM187.75 102.45C187.52 102.35 187.33 102 187.33 101.66C187.33 101.17 187.63 101.02 188.75 100.94L190.17 100.83L190.26 96.58C190.35 92.59 190.31 92.33 189.72 92.33C189.37 92.33 188.89 92.56 188.67 92.83C188.01 93.63 187.33 93.43 187.33 92.45C187.33 91.57 187.48 91.4 189.76 89.79C190.83 89.03 191.13 88.95 191.84 89.28L192.67 89.65L192.67 95.33C192.67 100.99 192.67 101 193.42 101.01C193.83 101.01 194.39 101.16 194.67 101.34C195.1 101.63 195.08 101.75 194.52 102.17C194.06 102.53 193.06 102.66 191.02 102.64C189.45 102.63 187.98 102.54 187.75 102.45ZM176.33 99.56C176.33 99.05 176.8 98.4 177.67 97.71C178.4 97.12 179 96.45 179 96.22C179 96 178.4 95.31 177.67 94.71C176.21 93.51 175.89 92.33 177.01 92.33C177.38 92.33 178.33 92.93 179.12 93.66L180.55 94.98L181.84 93.66C182.61 92.87 183.45 92.33 183.9 92.33C185.06 92.33 184.87 93.42 183.5 94.62C182.86 95.19 182.33 95.92 182.33 96.26C182.33 96.6 182.86 97.3 183.5 97.81C184.73 98.79 185.02 99.88 184.14 100.22C183.8 100.35 183.12 99.94 182.21 99.05C181.44 98.29 180.68 97.67 180.52 97.67C180.37 97.67 179.59 98.27 178.79 99C177.14 100.52 176.33 100.71 176.33 99.56ZM136.4 59.64C133.84 59.1 132.86 57.08 132.85 52.33C132.84 48.18 133.44 46.54 135.33 45.56C136.89 44.76 139.44 45.01 140.58 46.07C142.18 47.56 142.49 48.59 142.49 52.33C142.49 54.95 142.35 56.09 141.94 56.83C140.71 59.09 138.67 60.12 136.4 59.64ZM138.83 57.25C140.8 55.55 140.86 48.87 138.91 47.51C137.9 46.8 136.79 46.87 135.97 47.69C135.33 48.33 135.29 48.7 135.39 52.56C135.49 56.47 135.55 56.77 136.29 57.36C137.3 58.19 137.77 58.17 138.83 57.25ZM419.4 57.64C416.84 57.1 415.86 55.08 415.85 50.33C415.84 46.18 416.44 44.54 418.33 43.56C419.89 42.76 422.44 43.01 423.58 44.07C425.18 45.56 425.49 46.59 425.49 50.33C425.49 52.95 425.35 54.09 424.94 54.83C423.71 57.09 421.67 58.12 419.4 57.64ZM42.38 56.64C40.54 56.28 38.85 55 38 53.33C37.07 51.5 37.06 47.17 37.99 45.35C39.28 42.82 41.65 41.78 45.22 42.16C48.2 42.48 49.83 43.89 48.5 45C48.1 45.33 47.85 45.31 47.22 44.9C46.07 44.15 43.59 43.86 42.18 44.33C40.52 44.88 39.67 46.61 39.67 49.44C39.67 52.01 40.5 53.5 42.49 54.48C43.79 55.12 43.81 55.12 45.88 54.39C48.44 53.5 49 53.48 49 54.31C49 55.18 47.54 56.27 46.05 56.52C45.38 56.63 44.61 56.77 44.33 56.82C44.06 56.88 43.18 56.79 42.38 56.64ZM421.99 55.06C423.11 53.95 423.55 51.46 423.18 48.46C422.8 45.44 420.66 44.01 419 45.67C418.41 46.26 418.33 46.78 418.33 50.35C418.33 54.17 418.37 54.4 419.15 55.18C420.21 56.24 420.84 56.21 421.99 55.06Z" fill="#1e2749" fill-rule="evenodd"/>
</svg>
