<?xml version="1.0" encoding="UTF-8"?>
<svg xmlns="http://www.w3.org/2000/svg" viewBox="0 0 2430 901" width="2430" height="901" shape-rendering="geometricPrecision">
<path d="M431 875L262.5 874.5L261.88 859.5C261.54 851.25 261.2 804.67 261.13 756C261.06 707.33 260.7 646.91 260.34 621.75L259.67 576L251.06 576C244.88 576 241.82 575.56 240.22 574.44C237.65 572.64 237.26 568.5 239.58 567.61C242.26 566.58 285.69 566.93 288.5 568C290.44 568.74 291.05 569.59 290.82 571.23C290.33 574.66 286.42 575.97 276.65 575.99L267.81 576L268.15 720.75C268.34 800.36 268.86 866.06 269.31 866.75C270.52 868.61 1487.27 868.59 1488.81 866.72C1489.54 865.85 1489.76 850.86 1489.53 819.47C1489.34 794.19 1489.13 651.44 1489.06 502.25L1488.95 231L1447.22 230.88C1424.28 230.82 1373.56 230.62 1334.51 230.45L1263.52 230.14L1211.01 282.37C1182.13 311.1 1156.83 335.86 1154.78 337.4L1151.07 340.19L1147.78 337.92C1145.98 336.67 1120.74 311.99 1091.71 283.08L1038.92 230.5L928.71 230.84C868.09 231.03 818.24 231.48 817.91 231.84C817.59 232.2 815.4 237.22 813.04 243C798.23 279.33 793.96 288.33 790.44 290.63C787.45 292.59 782.53 292.68 780.25 290.81C778.12 289.07 771.23 274.33 760.02 247.5C745.98 213.9 739.82 200 738.96 200C738.54 200 736.06 205.06 733.46 211.25C730.86 217.44 726.28 228.35 723.28 235.5C700.58 289.58 700.67 289.41 695.53 291.55C691.71 293.15 688.59 292.44 685.82 289.36C684.31 287.67 672.73 261.08 654.36 217.07C650.59 208.04 646.98 200.48 646.33 200.27C645.69 200.06 644.84 200.93 644.45 202.19C644.05 203.46 642.72 206.75 641.5 209.5C640.28 212.25 632.36 230.69 623.91 250.49C615.15 271 607.41 287.75 605.9 289.44C602.94 292.75 597.51 293.5 594.51 291.01C591.6 288.59 586.47 277.09 559.07 211.58C556.55 205.58 554 200.5 553.39 200.3C552.78 200.09 550.37 204.55 548.03 210.21C537.1 236.73 532.29 241.26 523.18 233.65L519.18 230.31L396.34 230.52C328.78 230.63 272.26 230.79 270.75 230.86L268 231L268 383.39L268 535.78L286.53 536.51C303.12 537.17 305.17 537.44 306.05 539.1C306.81 540.51 306.59 541.41 305.13 542.87C303.49 544.51 301.03 544.88 287.36 545.53C266.22 546.54 225.28 545.47 223.35 543.87C222.55 543.21 222.03 541.51 222.2 540.09L222.5 537.5L240.99 536.5C256.15 535.68 259.52 535.23 259.69 534C259.8 533.17 260.06 463.32 260.26 378.77C260.46 294.22 260.98 224.69 261.4 224.27C261.82 223.85 319.94 223.28 390.55 223C502.96 222.56 519.1 222.31 520.3 221C521.06 220.18 525.87 209.38 530.99 197C545.4 162.19 546.13 161 553 161C559.12 161 560.06 162.11 567.31 178C571.28 186.69 572.08 188.56 587.91 226.38C599.22 253.41 598.82 252.62 600.53 250.87C601.75 249.62 606.98 237.64 621 204C632.51 176.4 638.35 163.87 640.35 162.47C643.33 160.38 649.26 160.63 652.23 162.97C654.61 164.84 661.61 180.5 684.81 235.82C688.58 244.8 692.07 252.17 692.58 252.2C693.55 252.25 694.14 250.94 709.5 214.5C726.39 174.46 731.19 163.98 733.35 162.47C736.33 160.38 742.26 160.63 745.22 162.96C747.67 164.88 754.65 180.48 776.25 232.29C780.79 243.18 784.92 252.18 785.44 252.29C785.96 252.41 788.92 246.65 792.01 239.5C800.6 219.62 801.43 218.25 805.58 217.11C809.72 215.96 813.26 216.97 816.83 220.32L819.16 222.5L928.33 222.76L1037.5 223.02L1083.82 176.76C1139.25 121.4 1147.21 114 1151.32 114C1153.88 114 1161.45 121.16 1208.95 168.5L1263.64 223L1488.31 223L1712.97 223L1715.6 218.75C1719.51 212.4 1821.91 110.31 1825.18 109.49C1826.65 109.12 1828.9 109.15 1830.18 109.55C1831.46 109.95 1856.72 134.4 1886.31 163.89L1940.12 217.5L2085.1 218C2212.51 218.44 2230.19 218.68 2231.02 220C2231.58 220.88 2232.03 241.26 2232.12 269.5C2232.21 295.9 2232.55 332.06 2232.89 349.85L2233.5 382.21L2246 387.42C2293.49 407.23 2292.79 406.85 2294.35 413.21C2294.88 415.35 2294.38 416.63 2291.94 419.41C2288.35 423.51 2287.24 424.04 2246 441.5C2205.25 458.76 2203 459.78 2203 461.02C2203 462.2 2201.43 461.5 2244 479.49C2295.53 501.27 2294 500.44 2294 506.76C2294 514.18 2294.56 513.86 2244.36 535.08C2205.46 551.52 2203 552.64 2203 553.89C2203 554.88 2212.79 559.4 2234.5 568.43C2268.02 582.37 2288.46 591.52 2291.18 593.8C2293.28 595.57 2294 597.07 2294 599.65C2294 607.26 2295.39 606.47 2242.07 628.96C2220.38 638.11 2202.48 646.06 2202.29 646.63C2202.1 647.21 2204.99 648.95 2208.72 650.52C2228.06 658.62 2235.84 662.78 2237.44 665.89C2239.43 669.73 2238.73 672.83 2234.91 677.1L2232 680.36L2232 776.03C2232 867.42 2231.92 871.76 2230.17 873.34C2228.47 874.88 2170.04 875.02 1413.92 875.25C965.99 875.39 523.67 875.27 431 875ZM2223.91 866.61C2224.76 865.58 2225 843.38 2224.84 780.86C2224.71 734.46 2224.44 692.67 2224.23 688L2223.84 679.5L2213.17 675.11C2176.3 659.95 2165.56 654.91 2164.04 652.07C2162.59 649.37 2162.74 642.74 2164.29 640.61C2165.01 639.64 2185.35 630.39 2209.49 620.07C2233.64 609.75 2253.55 600.86 2253.73 600.32C2253.91 599.77 2238.18 592.66 2218.78 584.51C2162.07 560.68 2163 561.2 2163 553.69C2163 551.32 2163.56 548.66 2164.25 547.78C2165.41 546.29 2186.51 536.65 2208.88 527.38C2235.7 516.27 2253.41 508.38 2253.72 507.41C2253.9 506.82 2252.36 505.64 2250.28 504.79C2202.38 485.34 2166.34 469.32 2164.47 466.65C2162.4 463.7 2162.57 456.43 2164.76 454.25C2166.51 452.5 2183.09 445.2 2224.5 427.94C2249.74 417.42 2254.28 415.26 2253.55 414.08C2253.26 413.61 2248.63 411.31 2243.26 408.97C2220.9 399.23 2219 397.82 2219 390.96C2219 387.26 2219.63 385.48 2222 382.5L2225 378.72L2225 302.36L2225 226L2082.03 226L1939.05 226L1888.28 276.79C1860.35 304.72 1835.39 329.28 1832.81 331.36C1828.63 334.73 1827.88 335.01 1825.81 333.92C1824.54 333.25 1800.32 309.64 1771.98 281.46L1720.46 230.22L1609.48 230.48C1548.44 230.63 1497.88 230.8 1497.12 230.87C1495.94 230.98 1495.83 242.78 1496.36 307.75C1496.71 349.96 1497.02 493.02 1497.06 625.65C1497.1 758.28 1497.4 867.07 1497.73 867.4C1498.06 867.73 1661.33 868 1860.54 868C2168.46 868 2222.93 867.79 2223.91 866.61ZM2268 716.12C2265.06 715.6 2264.45 715.04 2264.17 712.61C2263.98 710.97 2264.41 709.35 2265.17 708.87C2266.74 707.88 2299.34 707.72 2310.4 708.65L2318.1 709.3L2317.8 712.4L2317.5 715.5L2308 716.14C2296.01 716.94 2272.61 716.93 2268 716.12ZM186.67 675.33C186.3 674.97 186 673.17 186 671.33L186 668L211.42 668C225.4 668 237.55 668.27 238.42 668.61C240.28 669.32 240.51 673.09 238.8 674.8C237.5 676.1 187.94 676.61 186.67 675.33ZM72 587.84C65.43 586.8 61.62 584.27 61.18 580.65C60.77 577.16 62.56 576.58 67.92 578.47C83.85 584.09 97.58 574.56 92.89 561.12C91.27 556.47 87.19 554.82 75.53 554.11L65.5 553.5L64.9 543C64.58 537.23 64.53 529.69 64.8 526.25L65.29 520L73.89 519.86C86.58 519.66 98.18 520 99.15 520.59C100.77 521.59 99.99 524.89 97.78 526.44C96.08 527.63 92.86 528 84.24 528L72.92 528L73.21 536.75L73.5 545.5L81.5 546.11C90.68 546.82 95.37 548.54 99.19 552.63C106.65 560.61 105.41 574.04 96.48 581.88C89.92 587.64 82.37 589.48 72 587.84ZM16.35 586.48C15.65 584.64 15.69 584.52 29.18 554.15C35.12 540.75 39.74 529.39 39.44 528.9C39.13 528.4 32.25 528 24.14 528C8.21 528 7 527.63 7 522.8L7 520L29.13 520L51.26 520L50.75 524.25C49.97 530.67 28.35 581.66 24.67 585.75C22.34 588.35 17.24 588.8 16.35 586.48ZM160.4 587.23C159.79 586.83 158.84 585.6 158.27 584.5C156.43 580.93 137.04 524.57 136.77 522C136.56 520.05 137.01 519.43 138.85 519.17C142.45 518.66 145.7 519.78 146.28 521.74C147.65 526.44 164.09 573.42 164.5 573.83C165.23 574.56 167.58 568.45 176.17 543.53C180.53 530.9 184.63 520.22 185.29 519.8C186.92 518.76 190.18 518.83 191.93 519.93C193.1 520.68 191.47 526.34 182.6 552.17C176.68 569.4 171.19 584.51 170.4 585.75C169.32 587.43 168.01 588 165.23 587.98C163.18 587.98 161 587.64 160.4 587.23ZM2394.18 578.75C2394.43 576.99 2395.26 576.43 2398 576.17C2403.79 575.62 2404 575.07 2403.98 560.63C2403.97 544.9 2403.57 543.88 2398.41 546.34C2394.51 548.2 2392.48 547.52 2393.56 544.7C2395.15 540.55 2407.68 535.03 2409.34 537.75C2409.59 538.16 2409.94 546.38 2410.11 556C2410.28 565.62 2410.6 574.06 2410.82 574.75C2411.03 575.44 2412.4 576.01 2413.86 576.02C2417.92 576.04 2419.68 577.47 2418.06 579.42C2417.01 580.69 2414.51 581 2405.31 581C2394.01 581 2393.87 580.97 2394.18 578.75ZM2352.15 559.68C2350.85 558.11 2329 496.62 2329 494.53C2329 492.66 2331.14 492.08 2335.06 492.88L2338.45 493.57L2347.56 519.79C2352.57 534.2 2356.96 546.29 2357.31 546.64C2358.25 547.58 2360.77 541.17 2369.48 515.75L2377.28 493L2381.08 493C2383.17 493 2385.11 493.37 2385.39 493.83C2386.08 494.94 2384.74 499.2 2374.49 528.5C2362.8 561.91 2363.56 560.43 2357.91 560.8C2354.87 561 2352.93 560.62 2352.15 559.68ZM1941.4 557.16C1936.08 554.66 1932.8 549.97 1932.23 544.04C1931.7 538.48 1933.34 534.76 1939.08 528.53L1942.98 524.29L1940.84 522.4C1936.18 518.27 1933 511.84 1933 506.55C1933.01 496.91 1938.82 491.8 1950 491.63C1956.73 491.53 1963.46 494.89 1966.31 499.77C1969.12 504.6 1967.94 508.81 1961.96 515.35C1959.23 518.34 1957 521.31 1957 521.97C1957 522.62 1958.43 524.58 1960.17 526.33C1969.51 535.66 1971.45 542.93 1966.53 550.17C1961.24 557.96 1949.85 561.13 1941.4 557.16ZM2018.14 557.67C2017.53 556.94 2015.81 551.99 2014.32 546.67C2012.19 539.09 2011.21 537 2009.82 537C2007.44 537 2005.57 540.1 2002.9 548.5C2000.15 557.12 1999.5 558 1995.88 558C1992.17 558 1992.18 557 1996.1 543.88C2000.61 528.75 2009 497.91 2009 496.46C2009 495.78 2007.88 494.93 2006.5 494.59C2002.58 493.6 2003.55 492.26 2009.05 491.08C2014.93 489.82 2019 489.69 2019 490.75C2019.01 491.16 2016.47 500.62 2013.36 511.77C2010.25 522.92 2008.02 532.35 2008.39 532.73C2008.77 533.1 2012.32 530.16 2016.29 526.18C2022.91 519.55 2023.32 518.91 2021.25 518.36C2018.62 517.67 2018.33 516.47 2020.58 515.61C2023.12 514.63 2036.82 514.91 2037.46 515.94C2037.79 516.46 2035.9 517.83 2033.27 518.98C2026.8 521.82 2019.11 527.12 2018.44 529.21C2017.65 531.67 2023.07 551.09 2024.72 551.72C2025.48 552.01 2027.17 551.25 2028.48 550.02C2031.56 547.13 2033.61 547.69 2031.41 550.83C2029.49 553.57 2022.22 559 2020.47 559C2019.8 559 2018.75 558.4 2018.14 557.67ZM2048 551.53C2048 547.94 2048.31 545 2048.69 545C2049.06 545 2050.38 545.95 2051.62 547.11C2054.48 549.8 2065.51 550.92 2068.31 548.81C2069.99 547.54 2069.8 547.26 2065.81 545.08C2055.47 539.42 2050.03 530.91 2050.01 520.38C2049.99 504.89 2059.02 494.69 2075.2 491.97C2091.53 489.21 2107.81 495.78 2113.5 507.42C2120.05 520.81 2114.85 536.55 2101.36 544.17C2095.38 547.54 2094.8 548.66 2098.55 549.6C2103.23 550.78 2110.9 549.45 2113.48 547.02C2117.08 543.63 2119 544.94 2119 550.77C2119 553.43 2118.46 556.14 2117.8 556.8C2116.99 557.61 2112.39 558 2103.66 558L2090.71 558L2091.34 551.28C2091.94 544.88 2092.17 544.39 2096.35 540.82C2102.4 535.65 2104.24 531.33 2104.33 522.08C2104.49 505.18 2096.99 496 2083.01 496C2075.49 496 2071.39 497.65 2067.29 502.32C2063.25 506.92 2062.01 511.47 2062.03 521.5C2062.05 531.33 2064 536.13 2070.11 541.36C2074.4 545.04 2074.48 545.23 2074.49 551.3L2074.5 557.5L2061.25 557.78L2048 558.06L2048 551.53ZM1958.75 551.52C1960.54 549.6 1962 546.97 1962 545.66C1962 541.1 1949.72 527.54 1946.18 528.19C1945.26 528.36 1943.49 530.51 1942.25 532.96C1938.07 541.25 1940 551.76 1946.21 554.53C1950.83 556.59 1954.94 555.6 1958.75 551.52ZM1958.59 510.8C1962.54 503.25 1958.92 496.2 1950.61 495.26C1946.58 494.8 1945.77 495.08 1943.05 497.8C1938.2 502.65 1939.2 507.36 1946.63 514.57L1951.29 519.1L1954.23 516.3C1955.85 514.76 1957.81 512.28 1958.59 510.8ZM209.49 445.75C209.24 445.06 208.92 440.68 208.77 436L208.5 427.5L200.55 427.2C191.65 426.87 190 426.04 190 421.88L190 419L198.3 419C203.42 419 207.06 418.54 207.8 417.8C208.56 417.04 209 413.2 209 407.3L209 398L211.75 398.02C216.45 398.04 216.9 398.95 217.21 409.03L217.5 418.5L226.5 419C235.12 419.48 235.51 419.6 235.84 421.94C236.38 425.75 233.64 427 224.81 427L217 427L217 435.8C217 441.31 216.55 445.05 215.8 445.8C214.22 447.38 210.06 447.34 209.49 445.75ZM664.5 430.81C664.19 429.54 664.07 414.32 664.22 397L664.5 365.5L668.6 365.2L672.7 364.9L673.13 386.7C673.37 398.69 673.32 413.9 673.03 420.5L672.5 432.5L668.78 432.81C665.61 433.07 664.99 432.78 664.5 430.81ZM754.01 354.25C754.02 353.29 754.87 349.8 755.89 346.5C756.92 343.2 758.07 338.63 758.45 336.34L759.15 332.18L652.54 331.84C538.79 331.48 543.45 331.69 544.26 327C544.5 325.68 557.21 325.47 650.42 325.25C724.58 325.07 756.7 324.67 757.61 323.91C759.12 322.65 758.79 319.85 755.8 308.73C754.65 304.45 753.99 300.67 754.34 300.33C755.07 299.6 769.38 306.42 792.8 318.65C805.51 325.29 808.87 327.45 808.03 328.46C807.03 329.67 755.95 356 754.61 356C754.28 356 754.01 355.21 754.01 354.25ZM2287.64 350.25C2287.3 348.19 2287.02 343.69 2287.01 340.25L2287 334L2280.25 333.99C2270.31 333.97 2269 333.43 2269 329.38L2269 326L2276.8 326C2281.53 326 2285.07 325.53 2285.8 324.8C2286.5 324.1 2287.01 320.68 2287.01 316.55C2287.03 306.34 2287.56 305 2291.54 305C2294.8 305 2294.87 305.09 2295.44 310.25C2295.76 313.14 2296.13 317.75 2296.26 320.5L2296.5 325.5L2304.45 325.8C2313.1 326.12 2315.08 326.99 2314.26 330.11C2313.54 332.86 2310.12 334 2302.56 334L2296.25 334L2295.81 342.43C2295.34 351.44 2294.16 354 2290.51 354C2288.69 354 2288.14 353.29 2287.64 350.25ZM1244.22 228.65L1246.28 225.79L1199.4 178.9C1173.61 153.1 1151.78 132 1150.89 132C1148.83 132 1056 224.01 1056 226.05C1056 226.89 1077.36 248.88 1103.47 274.93L1150.94 322.28L1196.55 276.89C1221.64 251.93 1243.09 230.22 1244.22 228.65ZM1876 173.5C1849.88 147.38 1828.13 126 1827.66 126C1826.12 126 1733 219.41 1733 220.96C1733 221.8 1754.26 243.76 1780.25 269.75L1827.49 317L1875.49 269L1923.49 221L1876 173.5ZM1108.54 252.75C1108.32 252.06 1107.96 247.79 1107.74 243.25C1107.51 238.71 1107.11 234.78 1106.85 234.51C1106.58 234.25 1102.57 233.68 1097.93 233.26L1089.5 232.5L1089.5 229L1089.5 225.5L1096.96 225.2C1101.06 225.04 1104.95 224.46 1105.6 223.92C1106.26 223.37 1107.12 218.86 1107.51 213.89C1108.27 204.26 1108.9 203.26 1113.5 204.41C1115.78 204.98 1116 205.52 1116 210.38C1116 213.32 1116.28 217.79 1116.63 220.32L1117.26 224.93L1125.88 225.21L1134.5 225.5L1134.5 229L1134.5 232.5L1126.3 233.03C1121.79 233.33 1117.74 233.93 1117.3 234.36C1116.87 234.8 1116.35 238.84 1116.15 243.33C1115.76 252.27 1114.98 254 1111.35 254C1110.02 254 1108.76 253.44 1108.54 252.75ZM1861.35 241.61C1861.71 239.63 1862.28 236.43 1862.63 234.5L1863.26 231L1821.88 230.9C1799.12 230.85 1778.03 230.51 1775 230.15C1769.68 229.52 1769.49 229.39 1769.19 226.25L1768.87 223L1814.81 223C1866.77 223 1864.32 223.38 1862.25 215.67C1861.64 213.38 1860.83 210.71 1860.46 209.75C1859.96 208.46 1860.28 208.01 1861.64 208.04C1864.18 208.11 1897.37 225.25 1897.37 226.5C1897.37 227.49 1867.69 243.07 1863.1 244.49C1860.8 245.2 1860.73 245.07 1861.35 241.61ZM1157.04 232.07C1155.52 229.24 1155.77 226.3 1157.58 225.61C1159.61 224.83 1190.89 225 1202 225.85C1209.89 226.45 1210.52 226.67 1210.83 228.81C1211.54 233.84 1210.69 234 1183.41 234C1159.38 234 1158.02 233.9 1157.04 232.07ZM638.67 125.25C637.9 123.74 636.96 121.15 636.58 119.5C634.54 110.81 632.73 106 631.5 106C629.29 106 626.08 110.92 624.38 116.91C622.26 124.38 620.48 127 617.54 127C616.21 127 614.85 126.57 614.53 126.04C614.2 125.52 616.4 116.63 619.41 106.29C622.42 95.96 626.23 82.41 627.87 76.2L630.84 64.89L628.42 63.97C624.67 62.54 625.53 61.27 631.05 60.08C638.96 58.39 641.26 58.61 640.5 61C639.49 64.2 629 101.26 629 101.65C629 101.84 629.38 102 629.86 102C631.3 102 644 89.91 644 88.53C644 87.82 642.99 86.93 641.75 86.56C639.56 85.9 639.56 85.86 641.5 85.01C643.94 83.95 654.57 83.92 658 84.96C660.34 85.68 660.37 85.77 658.5 86.44C653.28 88.29 649.1 90.49 644.75 93.69C639.26 97.71 639.07 98.77 641.86 109.52C643.75 116.82 645.56 121.02 646.79 120.98C647.18 120.97 648.62 120.08 650 119C653.56 116.22 655.57 116.35 653.56 119.22C651.23 122.55 643.98 128 641.88 128C640.88 128 639.43 126.76 638.67 125.25ZM549 125.37C549 124.48 553.24 119.32 558.43 113.92C574.6 97.07 580.34 86.44 577.94 77.75C576.36 72.02 571.98 69 565.24 69C559.89 69 559.45 69.2 555.45 73.5C553.14 75.97 550.97 78 550.61 78C549.49 78 551.14 72.67 553.58 68.38C556.84 62.67 561.35 60.68 569.98 61.17C575.45 61.48 577.41 62.07 580.35 64.32C592.4 73.51 588.93 86.64 568.6 108.78C564.42 113.33 561 117.53 561 118.11C561 118.82 564.82 119.06 572.4 118.84C581.75 118.56 584.16 118.17 585.82 116.66C586.94 115.65 588.52 114.98 589.34 115.16C590.64 115.46 590.64 116.03 589.3 120C588.47 122.47 587.33 125.06 586.77 125.75C586.02 126.67 580.87 127 567.38 127C551.07 127 549 126.82 549 125.37ZM669.69 126.36C668.83 125.49 668.8 121.25 669.63 117.08L670.27 113.9L672.68 116.17C675.81 119.11 687.8 120.15 689.86 117.66C690.95 116.36 690.64 115.87 687.82 114.43C681.81 111.35 677.44 107.22 674.48 101.82C671.99 97.28 671.56 95.4 671.55 89C671.55 79.75 674.13 73.82 680.64 68.09C686.7 62.75 692.35 61 703.5 61C718.96 61 728.21 65.31 734.48 75.46C737.19 79.85 737.5 81.16 737.48 88.42C737.47 94.83 737 97.37 735.24 100.69C732.5 105.86 726.76 111.56 721.68 114.16C716.06 117.03 717.44 118.5 725.76 118.5C731.73 118.5 733.22 118.15 735.24 116.25C739.23 112.49 740.13 113.28 739.8 120.25L739.5 126.5L726.58 126.78C719.48 126.94 713.35 126.71 712.96 126.28C712.57 125.85 712.56 122.91 712.93 119.75C713.55 114.51 714.06 113.55 718.78 108.93C725 102.85 726.4 98.64 725.79 87.93C725.28 79.03 722.6 73.37 716.66 68.59C713.25 65.85 711.98 65.47 705.16 65.18C698.1 64.89 697.14 65.09 692.89 67.82C684.84 72.99 681.28 85.23 683.97 98.51C685.04 103.77 685.84 105.12 690.58 109.65C695.78 114.61 695.97 115 696.23 120.65L696.5 126.5L683.44 126.78C676.26 126.93 670.08 126.74 669.69 126.36ZM1252.25 97.97C1251.01 97.47 1250 96.38 1250 95.55C1250 94.08 1251.83 93.36 1257 92.78L1259.5 92.5L1259.78 77.25C1260.03 63.19 1259.91 62 1258.28 62.03C1257.3 62.05 1255.63 62.72 1254.56 63.53C1251.68 65.71 1249.81 65.38 1250.18 62.75C1250.56 60.05 1259.13 54 1262.58 54C1263.88 54 1265.39 54.86 1265.96 55.93C1266.57 57.06 1267 65.21 1267 75.35L1267 92.82L1271 93.5C1275.34 94.23 1276.28 96.25 1273.07 97.96C1270.71 99.22 1255.38 99.23 1252.25 97.97ZM1823 56.94L1823 22.89L1827.25 23.19L1831.5 23.5L1831.76 55.88C1831.95 78.94 1831.7 88.66 1830.89 89.63C1830.27 90.38 1828.24 91 1826.38 91L1823 91L1823 56.94ZM1042.7 84.58C1036.92 83.02 1032.46 79.06 1029.67 73C1027.96 69.31 1027.52 65.98 1027.19 54.44C1026.41 27.17 1032.71 16.08 1049 16.03C1064.42 15.98 1070.82 22.77 1072.94 41.45C1074.13 51.89 1072.84 64.17 1069.83 71.17C1066.9 77.98 1060.57 83.5 1054.1 84.89C1048.02 86.19 1048.79 86.21 1042.7 84.58ZM1120.5 85.37C1111.67 83.16 1109 81.32 1109 77.43C1109 74.5 1110.93 74.32 1119 76.52C1131.45 79.92 1142 73.94 1142 63.5C1142 58.52 1139.69 54.53 1135.89 52.95C1134.13 52.23 1128.37 51.37 1123.09 51.06L1113.5 50.5L1113.5 34L1113.5 17.5L1130.5 17.5C1147.49 17.5 1147.5 17.5 1147.83 19.81C1148.47 24.37 1146.72 25 1133.34 25L1120.92 25L1121.21 33.75L1121.5 42.5L1129.32 43.21C1134.27 43.66 1139.15 44.84 1142.61 46.42C1149.76 49.69 1152.43 54.97 1151.81 64.6C1151.29 72.81 1147.55 78.33 1139.87 82.22C1134.59 84.89 1124.91 86.47 1120.5 85.37ZM1086.24 83.75C1084.44 81.49 1083.93 78.31 1084.95 75.63C1085.79 73.42 1086.56 73 1089.78 73C1094.32 73 1096 74.4 1096 78.2C1096 83.31 1089.06 87.26 1086.24 83.75ZM1208.32 84.22C1206.44 83.03 1185 22.96 1185 18.89C1185 16.75 1187.24 15.9 1190.94 16.64C1193.67 17.18 1194.14 18.06 1198.61 30.86C1201.22 38.36 1205.45 50.49 1208.01 57.81C1211.52 67.9 1212.91 70.81 1213.73 69.81C1214.33 69.09 1218.75 57.02 1223.56 43C1228.38 28.98 1232.81 17.17 1233.41 16.77C1235.28 15.51 1240.04 15.93 1240.6 17.4C1241.41 19.52 1221.63 77.81 1218.42 82.75C1217.33 84.43 1216 85 1213.23 84.98C1211.18 84.98 1208.97 84.63 1208.32 84.22ZM1053.38 76.61C1060.5 73.64 1063.11 66.54 1063.11 50.12C1063.11 36.41 1061.86 31.01 1057.73 26.88C1055.35 24.5 1054.01 24 1050 24C1047.34 24 1044.43 24.28 1043.54 24.62C1038.82 26.43 1035.3 42.96 1036.54 57.5C1037.49 68.67 1040.37 74.96 1045.5 77.05C1048.39 78.24 1049.67 78.17 1053.38 76.61Z" fill="#1e2749" fill-rule="evenodd"/>
</svg>
