<?xml version="1.0" encoding="UTF-8"?>
<!-- Generator: visioncortex VTracer 0.6.12 -->
<svg version="1.1" xmlns="http://www.w3.org/2000/svg" width="179" height="128">
<path d="M0 0 C59.07 0 118.14 0 179 0 C179 42.24 179 84.48 179 128 C119.93 128 60.86 128 0 128 C0 85.76 0 43.52 0 0 Z " fill="#FEFEFE" transform="translate(0,0)"/>
<path d="M0 0 C15.57 10.03 22.92 27.57 28.06 44.62 C28.06 45.28 28.06 45.95 28.06 46.62 C28.94 46.62 29.81 46.62 30.71 46.61 C38.92 46.57 47.13 46.54 55.34 46.52 C59.56 46.51 63.78 46.5 68 46.47 C72.08 46.45 76.15 46.44 80.22 46.44 C81.78 46.43 83.33 46.42 84.89 46.41 C87.06 46.4 89.24 46.4 91.41 46.4 C92.65 46.39 93.89 46.39 95.16 46.38 C98.06 46.62 98.06 46.62 100.06 48.62 C100.26 51.69 100.34 54.66 100.33 57.72 C100.33 58.62 100.33 59.52 100.33 60.45 C100.34 62.36 100.33 64.27 100.32 66.18 C100.31 69.11 100.32 72.04 100.34 74.97 C100.33 76.83 100.33 78.68 100.33 80.53 C100.33 81.41 100.34 82.29 100.34 83.2 C100.29 89.4 100.29 89.4 98.06 91.62 C96.15 91.89 96.15 91.89 93.76 91.9 C92.86 91.91 91.95 91.93 91.02 91.94 C90.53 91.94 90.53 91.94 88.01 91.94 C86.97 91.95 85.93 91.96 84.85 91.97 C81.39 92.01 77.92 92.02 74.46 92.04 C72.06 92.06 69.67 92.08 67.27 92.1 C60.96 92.15 54.64 92.19 48.32 92.23 C41.88 92.27 35.44 92.32 29 92.37 C16.35 92.46 3.71 92.55 -8.94 92.62 C-8.94 95.27 -8.94 97.91 -8.94 100.62 C-11.58 100.62 -14.22 100.62 -16.94 100.62 C-17.6 97.98 -18.26 95.34 -18.94 92.62 C-27.02 92.46 -27.02 92.46 -67.94 91.62 C-67.96 84.39 -67.98 77.15 -68 69.69 C-68.01 67.4 -68.02 65.11 -68.03 62.75 C-68.03 60.95 -68.03 59.15 -68.04 57.35 C-68.04 56.4 -68.05 55.46 -68.05 54.48 C-68.05 53.59 -68.05 52.7 -68.05 51.78 C-68.05 51 -68.06 50.22 -68.06 49.42 C-67.94 47.62 -67.94 47.62 -66.94 46.62 C-65.25 46.55 -63.56 46.54 -61.88 46.56 C-60.96 46.57 -60.04 46.58 -59.09 46.59 C-58.38 46.6 -57.67 46.61 -56.94 46.62 C-56.84 46.07 -56.73 45.52 -56.63 44.95 C-55.5 39.33 -53.8 34.4 -51.31 29.25 C-50.96 28.52 -50.61 27.78 -50.25 27.02 C-47.13 20.7 -43.48 15.04 -38.94 9.62 C-38.37 8.95 -37.81 8.27 -37.23 7.58 C-27.68 -2.89 -12.97 -6.39 0 0 Z " fill="#FDFEFD" transform="translate(77.9375,14.375)"/>
<path d="M0 0 C17.42 9.86 25.55 26.67 31.32 45.21 C32.31 48.87 32.31 48.87 32.31 51.88 C32.97 51.88 33.63 51.88 34.31 51.88 C34.31 50.56 34.31 49.23 34.31 47.88 C57.08 47.88 79.85 47.88 103.31 47.88 C103.31 56.12 103.31 64.38 103.31 72.88 C102.65 72.55 101.99 72.22 101.31 71.88 C100.98 72.53 100.65 73.19 100.31 73.88 C99.65 73.88 98.99 73.88 98.31 73.88 C98.31 70.91 98.31 67.94 98.31 64.88 C96.66 64.88 95.01 64.88 93.31 64.88 C93.31 65.53 93.31 66.19 93.31 66.88 C89.02 66.88 84.73 66.88 80.31 66.88 C80.31 66.22 80.31 65.56 80.31 64.88 C79.98 65.04 79.98 65.04 78.31 65.88 C70.11 66.14 70.11 66.14 66.31 64.88 C66.31 63.56 66.31 62.23 66.31 60.88 C65.67 60.93 65.67 60.93 62.44 61.19 C61.72 61.25 61 61.3 60.26 61.36 C58.31 61.88 58.31 61.88 56.31 64.88 C53.69 65.06 53.69 65.06 51.31 64.88 C51.21 66.11 51.11 67.35 51 68.62 C50.57 72.15 49.83 74.25 47.31 76.88 C47.31 75.89 47.31 74.89 47.31 73.88 C44.67 73.88 42.03 73.88 39.31 73.88 C39.48 73.38 39.48 73.38 40.31 70.88 C42.29 70.88 44.27 70.88 46.31 70.88 C46.31 69.89 46.31 68.89 46.31 67.88 C44.33 67.88 42.35 67.88 40.31 67.88 C39.98 66.56 39.65 65.23 39.31 63.88 C41.95 63.88 44.59 63.88 47.31 63.88 C47.31 62.89 47.31 61.9 47.31 60.88 C44.67 60.88 42.03 60.88 39.31 60.88 C38.98 60.05 38.98 60.05 37.31 55.88 C37.31 56.53 37.31 57.19 37.31 57.88 C35.66 58.53 34.01 59.19 32.31 59.88 C31.98 59.22 31.65 58.56 31.31 57.88 C30.98 58.87 30.65 59.85 30.31 60.88 C28.99 60.88 27.67 60.88 26.31 60.88 C26.29 59.76 26.26 58.65 26.23 57.51 C25.94 48.85 25.23 41.75 21.31 33.88 C20.98 32.88 20.65 31.9 20.31 30.88 C19.65 30.88 18.99 30.88 18.31 30.88 C18.59 31.37 18.87 31.87 19.15 32.38 C19.33 32.72 19.33 32.72 20.25 34.44 C20.61 35.1 20.97 35.76 21.34 36.44 C22.58 39.54 22.88 42.58 23.31 45.88 C15.12 45.9 6.92 45.92 -1.28 45.93 C-5.08 45.93 -8.89 45.94 -12.7 45.95 C-16.37 45.96 -20.04 45.97 -23.71 45.97 C-25.11 45.97 -26.51 45.98 -27.91 45.98 C-29.87 45.99 -31.83 45.99 -33.79 45.99 C-34.91 45.99 -36.02 45.99 -37.18 46 C-39.69 45.88 -39.69 45.88 -40.69 44.88 C-40.1 38.6 -40.1 38.6 -38.56 35.88 C-37.23 32.82 -38.22 30.11 -38.69 26.88 C-38.03 25.89 -37.37 24.89 -36.69 23.88 C-36.03 23.88 -35.37 23.88 -34.69 23.88 C-34.69 23.22 -34.69 22.55 -34.69 21.88 C-35.35 21.55 -36.01 21.22 -36.69 20.88 C-34.68 11.75 -29.32 6.86 -21.69 1.88 C-14.73 -2.07 -7.57 -2.31 0 0 Z " fill="#FDFDFD" transform="translate(72.6875,15.125)"/>
<path d="M0 0 C15.57 10.03 22.92 27.57 28.06 44.62 C28.06 45.28 28.06 45.95 28.06 46.62 C28.94 46.62 29.81 46.62 30.71 46.61 C38.92 46.57 47.13 46.54 55.34 46.52 C59.56 46.51 63.78 46.5 68 46.47 C72.08 46.45 76.15 46.44 80.22 46.44 C81.78 46.43 83.33 46.42 84.89 46.41 C87.06 46.4 89.24 46.4 91.41 46.4 C92.65 46.39 93.89 46.39 95.16 46.38 C98.06 46.62 98.06 46.62 100.06 48.62 C100.26 51.69 100.34 54.66 100.33 57.72 C100.33 58.62 100.33 59.52 100.33 60.45 C100.34 62.36 100.33 64.27 100.32 66.18 C100.31 69.11 100.32 72.04 100.34 74.97 C100.33 76.83 100.33 78.68 100.33 80.53 C100.33 81.41 100.34 82.29 100.34 83.2 C100.29 89.4 100.29 89.4 98.06 91.62 C96.15 91.89 96.15 91.89 93.76 91.9 C92.86 91.91 91.95 91.93 91.02 91.94 C90.53 91.94 90.53 91.94 88.01 91.94 C86.97 91.95 85.93 91.96 84.85 91.97 C81.39 92.01 77.92 92.02 74.46 92.04 C72.06 92.06 69.67 92.08 67.27 92.1 C60.96 92.15 54.64 92.19 48.32 92.23 C41.88 92.27 35.44 92.32 29 92.37 C16.35 92.46 3.71 92.55 -8.94 92.62 C-8.94 95.27 -8.94 97.91 -8.94 100.62 C-11.58 100.62 -14.22 100.62 -16.94 100.62 C-17.6 97.98 -18.26 95.34 -18.94 92.62 C-27.02 92.46 -27.02 92.46 -67.94 91.62 C-67.96 84.39 -67.98 77.15 -68 69.69 C-68.01 67.4 -68.02 65.11 -68.03 62.75 C-68.03 60.95 -68.03 59.15 -68.04 57.35 C-68.04 56.4 -68.05 55.46 -68.05 54.48 C-68.05 53.59 -68.05 52.7 -68.05 51.78 C-68.05 51 -68.06 50.22 -68.06 49.42 C-67.94 47.62 -67.94 47.62 -66.94 46.62 C-65.25 46.55 -63.56 46.54 -61.88 46.56 C-60.96 46.57 -60.04 46.58 -59.09 46.59 C-58.38 46.6 -57.67 46.61 -56.94 46.62 C-56.84 46.07 -56.73 45.52 -56.63 44.95 C-55.5 39.33 -53.8 34.4 -51.31 29.25 C-50.96 28.52 -50.61 27.78 -50.25 27.02 C-47.13 20.7 -43.48 15.04 -38.94 9.62 C-38.37 8.95 -37.81 8.27 -37.23 7.58 C-27.68 -2.89 -12.97 -6.39 0 0 Z M-38.19 12.5 C-40.61 15.82 -41.73 18.43 -41.94 22.62 C-41.28 22.62 -40.62 22.62 -39.94 22.62 C-39.94 23.28 -39.94 23.95 -39.94 24.62 C-40.6 24.62 -41.26 24.62 -41.94 24.62 C-43.68 27.29 -44 28.31 -43.38 31.5 C-42.82 35.48 -44.08 37.14 -45.94 40.62 C-46.19 43.44 -46.19 43.44 -45.94 45.62 C-44.94 46.62 -44.94 46.62 -42.43 46.75 C-41.31 46.74 -40.19 46.74 -39.04 46.74 C-38.41 46.74 -38.41 46.74 -35.22 46.74 C-33.83 46.73 -32.45 46.73 -31.06 46.72 C-29.65 46.72 -28.24 46.72 -26.83 46.72 C-23.11 46.71 -19.38 46.7 -15.66 46.69 C-11.87 46.68 -8.08 46.68 -4.28 46.67 C3.17 46.66 10.61 46.65 18.06 46.62 C17.77 45.2 17.47 43.77 17.16 42.35 C17 41.55 16.83 40.76 16.66 39.94 C15.88 36.92 14.59 34.33 13.06 31.62 C13.72 31.62 14.38 31.62 15.06 31.62 C15.74 33.29 16.4 34.96 17.06 36.62 C17.6 37.74 18.14 38.85 18.69 40 C21.81 48.42 21.07 59.01 18.12 67.39 C16.33 71.18 14.14 74.76 11.06 77.62 C10.07 77.62 9.08 77.62 8.06 77.62 C8.81 76.94 9.55 76.26 10.31 75.56 C18.29 67.58 18.06 59.98 18.06 48.62 C-3.39 48.62 -24.84 48.62 -46.94 48.62 C-46.94 52.91 -46.94 57.2 -46.94 61.62 C-42.98 61.62 -39.02 61.62 -34.94 61.62 C-34.94 60.97 -34.94 60.31 -34.94 59.62 C-34.28 59.62 -33.62 59.62 -32.94 59.62 C-32.98 60.38 -33.03 61.13 -33.08 61.9 C-33.39 70.72 -32.05 77.9 -26.56 85 C-23.94 87.63 -23.94 87.63 -20.81 89.62 C-17.5 91.93 -16.45 93.93 -14.94 97.62 C-13.95 97.62 -12.96 97.62 -11.94 97.62 C-11.94 96.76 -11.94 95.89 -11.94 95 C-10.82 91.22 -10.28 90.87 -7.19 88.75 C-0.68 84.28 2.52 78.33 4.06 70.62 C4.49 66.63 4.81 62.64 5.06 58.62 C5.72 58.62 6.38 58.62 7.06 58.62 C6.24 66.73 5.43 74.03 1.96 81.48 C0.88 84.07 0.06 86.79 0.06 89.62 C32.4 89.62 64.74 89.62 98.06 89.62 C98.06 76.09 98.06 62.56 98.06 48.62 C75.29 48.62 52.52 48.62 29.06 48.62 C29.06 49.94 29.06 51.27 29.06 52.62 C28.4 52.62 27.74 52.62 27.06 52.62 C26.96 52.05 26.96 52.05 26.44 49.12 C22.46 31.65 14.26 12.86 -1.12 2.75 C-14.31 -5.36 -29.27 1.41 -38.19 12.5 Z " fill="#FBFCFB" transform="translate(77.9375,14.375)"/>
<path d="M0 0 C15.57 10.03 22.92 27.57 28.06 44.62 C28.06 45.28 28.06 45.95 28.06 46.62 C28.94 46.62 29.81 46.62 30.71 46.61 C38.92 46.57 47.13 46.54 55.34 46.52 C59.56 46.51 63.78 46.5 68 46.47 C72.08 46.45 76.15 46.44 80.22 46.44 C81.78 46.43 83.33 46.42 84.89 46.41 C87.06 46.4 89.24 46.4 91.41 46.4 C92.65 46.39 93.89 46.39 95.16 46.38 C98.06 46.62 98.06 46.62 100.06 48.62 C100.26 51.69 100.34 54.66 100.33 57.72 C100.33 58.62 100.33 59.52 100.33 60.45 C100.34 62.36 100.33 64.27 100.32 66.18 C100.31 69.11 100.32 72.04 100.34 74.97 C100.33 76.83 100.33 78.68 100.33 80.53 C100.33 81.41 100.34 82.29 100.34 83.2 C100.29 89.4 100.29 89.4 98.06 91.62 C96.15 91.89 96.15 91.89 93.76 91.9 C92.86 91.91 91.95 91.93 91.02 91.94 C90.53 91.94 90.53 91.94 88.01 91.94 C86.97 91.95 85.93 91.96 84.85 91.97 C81.39 92.01 77.92 92.02 74.46 92.04 C72.06 92.06 69.67 92.08 67.27 92.1 C60.96 92.15 54.64 92.19 48.32 92.23 C41.88 92.27 35.44 92.32 29 92.37 C16.35 92.46 3.71 92.55 -8.94 92.62 C-8.94 95.27 -8.94 97.91 -8.94 100.62 C-11.58 100.62 -14.22 100.62 -16.94 100.62 C-17.3 98.61 -17.65 96.59 -18.01 94.57 C-19.34 91.79 -21.11 91.68 -23.94 90.62 C-29.14 86.03 -33.81 80.62 -34.94 73.62 C-35.16 68.95 -35.11 64.3 -34.94 59.62 C-34.28 59.62 -33.62 59.62 -32.94 59.62 C-32.91 60.38 -32.89 61.13 -32.86 61.9 C-32.35 71.09 -30.68 79.88 -23.94 86.62 C-22.17 87.95 -20.38 89.21 -18.52 90.41 C-16.94 91.62 -16.94 91.62 -14.94 94.62 C-14.94 95.61 -14.94 96.61 -14.94 97.62 C-13.95 97.62 -12.96 97.62 -11.94 97.62 C-12.12 96.78 -12.31 95.93 -12.5 95.06 C-11.94 91.62 -11.94 91.62 -10.11 90.02 C-9.33 89.48 -8.55 88.93 -7.75 88.38 C-1.34 83.75 1.29 78.66 2.77 70.94 C3.12 68.48 3.43 66.01 3.7 63.53 C4.06 60.62 4.06 60.62 5.06 58.62 C5.72 58.62 6.38 58.62 7.06 58.62 C6.82 67.79 6.25 75.33 2.06 83.62 C1.69 84.37 1.32 85.12 0.93 85.89 C0.65 86.47 0.36 87.04 0.06 87.62 C3.47 89.33 7.36 88.81 11.1 88.83 C12.04 88.84 12.98 88.85 13.94 88.86 C17.05 88.89 20.15 88.92 23.26 88.94 C25.41 88.96 27.56 88.98 29.71 89 C35.37 89.06 41.04 89.11 46.7 89.16 C52.48 89.21 58.26 89.26 64.04 89.32 C75.38 89.43 86.72 89.53 98.06 89.62 C98.06 76.09 98.06 62.56 98.06 48.62 C75.29 48.62 52.52 48.62 29.06 48.62 C29.06 49.94 29.06 51.27 29.06 52.62 C28.4 52.62 27.74 52.62 27.06 52.62 C26.86 52 26.66 51.38 26.46 50.74 C14.1 12.72 14.1 12.72 -3.08 2.5 C-9.11 -0.34 -16.53 -0.59 -22.77 1.64 C-26.05 3.24 -29.01 4.69 -31.59 7.29 C-32.94 8.62 -32.94 8.62 -34.94 8.62 C-35.2 9.19 -35.46 9.76 -35.73 10.34 C-37.03 12.8 -38.54 14.9 -40.19 17.12 C-46.95 26.74 -51 37.08 -54.74 48.13 C-55.94 51.62 -55.94 51.62 -56.94 53.62 C-57.6 53.62 -58.26 53.62 -58.94 53.62 C-56.22 35.66 -46.34 14.21 -31.94 2.62 C-22.79 -4.08 -10.19 -5.02 0 0 Z " fill="#BBEBD4" transform="translate(77.9375,14.375)"/>
<path d="M0 0 C0.66 0 1.32 0 2 0 C2.33 0.99 2.66 1.98 3 3 C9.27 3 15.54 3 22 3 C22.33 4.32 22.66 5.64 23 7 C22.01 7.33 21.02 7.66 20 8 C19.67 13.28 19.34 18.56 19 24 C20.65 23.67 22.3 23.34 24 23 C23.67 24.65 23.34 26.3 23 28 C23.66 28 24.32 28 25 28 C25 27.01 25 26.02 25 25 C25.66 25 26.32 25 27 25 C27 25.99 27 26.98 27 28 C28.62 25.43 29.04 24.32 28.62 21.25 C28.42 20.51 28.21 19.77 28 19 C27.01 18.67 26.02 18.34 25 18 C23.39 14.79 23.94 11.56 24 8 C25.32 7.34 26.64 6.68 28 6 C28 5.34 28 4.68 28 4 C30.64 4 33.28 4 36 4 C36 4.99 36 5.98 36 7 C33.36 7.33 30.72 7.66 28 8 C28.33 10.64 28.66 13.28 29 16 C31.64 16 34.28 16 37 16 C34.77 23.06 31.86 28.86 25.19 32.56 C23 34 23 34 22.19 37.19 C22.16 37.65 22.16 37.65 22 40 C21.01 40 20.02 40 19 40 C18.48 38.95 17.97 37.9 17.44 36.81 C15.81 33.94 14.34 32.33 11.56 30.56 C5.88 26.86 2.39 20.56 1 14 C0.85 9.99 0.88 6.01 1 2 C0.34 1.67 -0.32 1.34 -1 1 C-0.67 0.67 -0.34 0.34 0 0 Z " fill="#F9FCFB" transform="translate(44,72)"/>
<path d="M0 0 C0.66 0 1.32 0 2 0 C2.81 1.6 3.63 3.21 4.44 4.81 C4.89 5.71 5.34 6.6 5.81 7.52 C9.47 15.15 9.02 25.34 6.88 33.44 C4.97 38.84 1.93 44.37 -3.19 47.22 C-3.79 47.48 -4.39 47.73 -5 48 C-5 47.01 -5 46.02 -5 45 C-4.01 44.67 -3.02 44.34 -2 44 C-1.27 42.36 -0.61 40.69 0 39 C0.26 38.58 0.26 38.58 1.56 36.44 C5.15 30.36 4.45 24.21 5 17 C-16.45 17 -37.9 17 -60 17 C-58.47 38.47 -58.47 38.47 -50 46 C-50 46.66 -50 47.32 -50 48 C-53.5 47.44 -54.92 46.42 -57.06 43.62 C-63.42 34.54 -64.06 23.8 -63 13 C-62.12 9.39 -61.1 6.08 -59 3 C-56.86 1.74 -56.86 1.74 -55 1 C-55.31 1.85 -55.62 2.69 -55.94 3.56 C-57 7 -57 7 -58 14 C-37.21 14.33 -16.42 14.66 5 15 C3.68 11.37 2.36 7.74 1 4 C0.84 3.34 0.84 3.34 0 0 Z " fill="#BDE7D4" transform="translate(91,46)"/>
<path d="M0 0 C0.33 0 0.66 0 1 0 C1 5.28 1 10.56 1 16 C1.99 16 2.98 16 4 16 C4 12.04 4 8.08 4 4 C7.48 7.48 8.16 12.26 9 17 C11.97 16.67 14.94 16.34 18 16 C18.66 16.99 19.32 17.98 20 19 C22.94 19.88 22.94 19.88 26 20 C27.69 18.51 27.69 18.51 29 17 C30.17 18.45 31.34 19.91 32.5 21.38 C33.15 22.19 33.8 23 34.47 23.84 C36 26 36 26 36 28 C24.12 28 12.24 28 0 28 C0 18.76 0 9.52 0 0 Z " fill="#FDFEFE" transform="translate(16,76)"/>
<path d="M0 0 C16.04 10.33 24.48 29.72 29.06 47.62 C29.25 50.71 29.25 50.71 29.06 52.62 C28.4 52.62 27.74 52.62 27.06 52.62 C26.86 52 26.66 51.38 26.46 50.74 C14.1 12.72 14.1 12.72 -3.08 2.5 C-9.11 -0.34 -16.53 -0.59 -22.77 1.64 C-26.05 3.24 -29.01 4.69 -31.59 7.29 C-32.94 8.62 -32.94 8.62 -34.94 8.62 C-35.2 9.19 -35.46 9.76 -35.73 10.34 C-37.03 12.8 -38.54 14.9 -40.19 17.12 C-46.95 26.74 -51 37.08 -54.74 48.13 C-55.94 51.62 -55.94 51.62 -56.94 53.62 C-57.6 53.62 -58.26 53.62 -58.94 53.62 C-56.22 35.66 -46.34 14.21 -31.94 2.62 C-22.79 -4.08 -10.19 -5.02 0 0 Z " fill="#393939" transform="translate(77.9375,14.375)"/>
<path d="M0 0 C0.33 0 0.66 0 1 0 C1.11 0.91 1.22 1.81 1.33 2.75 C3.81 21.81 3.81 21.81 11 29 C11.99 29.33 12.98 29.66 14 30 C13.76 29.73 13.76 29.73 12.57 28.35 C8.2 23.05 5.79 18.63 4 12 C7.96 12 11.92 12 16 12 C16.23 14.96 16.46 17.92 16.68 20.89 C17 24 17 24 17.62 26.75 C18 29 18 29 16.69 31.25 C15 33 15 33 13 34 C13 33.34 13 32.68 13 32 C11.35 32 9.7 32 8 32 C7.67 30.68 7.34 29.36 7 28 C4.03 28.33 1.06 28.66 -2 29 C-3.49 25.38 -4.79 21.72 -6 18 C-6.33 21.3 -6.66 24.6 -7 28 C-7.99 28 -8.98 28 -10 28 C-10 22.72 -10 17.44 -10 12 C-8.35 12 -6.7 12 -5 12 C-5 13.32 -5 14.64 -5 16 C-4.34 16 -3.68 16 -3 16 C-2.67 16.99 -2.34 17.98 -2 19 C-2 15.37 -2 11.74 -2 8 C-1.34 8 -0.68 8 0 8 C0 5.36 0 2.72 0 0 Z " fill="#FBFBFA" transform="translate(27,64)"/>
<path d="M0 0 C1.11 0 2.23 0 3.38 0 C6.46 0 9.02 0.28 12 1 C12 0.34 12 -0.32 12 -1 C13.65 -1 15.3 -1 17 -1 C17 3.29 17 7.58 17 12 C15.35 12 13.7 12 12 12 C12 12.66 12 13.32 12 14 C11.34 13.67 10.68 13.34 10 13 C8.26 12.92 6.52 12.89 4.77 12.9 C4.26 12.9 4.26 12.9 1.65 12.91 C0.57 12.92 -0.51 12.93 -1.62 12.94 C-2.71 12.94 -3.8 12.95 -4.92 12.95 C-7.61 12.96 -10.31 12.98 -13 13 C-13.33 12.34 -13.66 11.68 -14 11 C-13.34 10.67 -12.68 10.34 -12 10 C-12.33 9.34 -12.66 8.68 -13 8 C-13.25 5 -13.25 5 -13 2 C-8.78 -0.81 -4.86 -1.62 0 0 Z " fill="#F7FCF8" transform="translate(154,81)"/>
<path d="M0 0 C3.3 0 6.6 0 10 0 C10 0.99 10 1.98 10 3 C7.69 3.33 5.38 3.66 3 4 C3 4.99 3 5.98 3 7 C4.98 7 6.96 7 9 7 C9 7.99 9 8.98 9 10 C7.02 10 5.04 10 3 10 C3 10.66 3 11.32 3 12 C5.64 12.33 8.28 12.66 11 13 C11.99 10.03 12.98 7.06 14 4 C15.65 4 17.3 4 19 4 C19.66 2.68 20.32 1.36 21 0 C23.64 0 26.28 0 29 0 C29 0.99 29 1.98 29 3 C27.02 3.33 25.04 3.66 23 4 C21.88 9.75 21.88 9.75 23 12 C26.06 12.62 26.06 12.62 29 13 C28.43 15.87 28.14 16.86 26 19 C26 18.34 26 17.68 26 17 C24.93 17.5 23.85 17.99 22.75 18.5 C17.26 20.6 11.8 20.26 6 20 C7.32 19.67 8.64 19.34 10 19 C10 18.34 10 17.68 10 17 C9.36 17.01 8.72 17.02 8.07 17.04 C7.65 17.04 7.65 17.04 5.56 17.06 C5.15 17.07 5.15 17.07 3.07 17.1 C1 17 1 17 0 16 C-0.07 13.3 -0.09 10.63 -0.06 7.94 C-0.06 7.18 -0.05 6.42 -0.05 5.64 C-0.04 3.76 -0.02 1.88 0 0 Z " fill="#F9FDFA" transform="translate(110,76)"/>
<path d="M0 0 C0.66 0 1.32 0 2 0 C1.64 13.67 0.19 22.62 -9.98 32.38 C-12 34 -12 34 -14 34 C-14 36.64 -14 39.28 -14 42 C-16.64 42 -19.28 42 -22 42 C-22.36 39.98 -22.72 37.96 -23.07 35.95 C-24.4 33.16 -26.17 33.06 -29 32 C-34.21 27.4 -38.87 22 -40 15 C-40.22 10.32 -40.18 5.68 -40 1 C-39.34 1 -38.68 1 -38 1 C-37.97 1.75 -37.95 2.5 -37.92 3.27 C-37.41 12.47 -35.75 21.25 -29 28 C-27.23 29.32 -25.44 30.58 -23.59 31.79 C-22 33 -22 33 -20 36 C-20 36.99 -20 37.98 -20 39 C-19.01 39 -18.02 39 -17 39 C-17.19 38.15 -17.37 37.31 -17.56 36.44 C-17 33 -17 33 -15.17 31.39 C-14.39 30.85 -13.61 30.31 -12.81 29.75 C-6.4 25.13 -3.78 20.04 -2.29 12.32 C-1.94 9.85 -1.63 7.38 -1.36 4.91 C-1 2 -1 2 0 0 Z " fill="#232823" transform="translate(83,73)"/>
<path d="M0 0 C0.46 0.01 0.46 0.01 2.78 0.04 C3.7 0.04 4.62 0.05 5.56 0.06 C6.27 0.07 6.98 0.09 7.71 0.1 C7.38 0.59 7.38 0.59 5.71 3.1 C3.4 2.77 1.09 2.44 -1.29 2.1 C-1.29 15.63 -1.29 29.16 -1.29 43.1 C19.03 42.41 19.03 42.41 25.43 42.17 C27.1 42.12 28.78 42.07 30.45 42.02 C31.32 41.99 32.19 41.95 33.09 41.91 C33.51 41.9 33.51 41.9 35.61 41.85 C36.33 41.82 37.05 41.8 37.8 41.77 C39.71 42.1 39.71 42.1 42.71 45.1 C27.53 45.1 12.35 45.1 -3.29 45.1 C-3.31 37.86 -3.33 30.62 -3.35 23.16 C-3.36 20.87 -3.37 18.58 -3.38 16.23 C-3.38 14.42 -3.38 12.62 -3.38 10.82 C-3.39 9.88 -3.39 8.93 -3.4 7.96 C-3.4 7.06 -3.4 6.17 -3.4 5.25 C-3.4 4.47 -3.4 3.69 -3.41 2.89 C-3.22 0.14 -2.75 0.12 0 0 Z " fill="#BCEAD4" transform="translate(13.28515625,60.90234375)"/>
<path d="M0 0 C0.33 0 0.66 0 1 0 C2.47 9.55 3.35 18.34 2 28 C0.68 28 -0.64 28 -2 28 C-4.44 24.83 -5.44 21.93 -6 18 C-6.33 21.3 -6.66 24.6 -7 28 C-7.99 28 -8.98 28 -10 28 C-10 22.72 -10 17.44 -10 12 C-8.35 12 -6.7 12 -5 12 C-5 13.32 -5 14.64 -5 16 C-4.34 16 -3.68 16 -3 16 C-2.67 16.99 -2.34 17.98 -2 19 C-2 15.37 -2 11.74 -2 8 C-1.34 8 -0.68 8 0 8 C0 5.36 0 2.72 0 0 Z " fill="#C1E9D5" transform="translate(27,64)"/>
<path d="M0 0 C0.33 0.66 0.66 1.32 1 2 C1.93 1.94 2.86 1.88 3.81 1.81 C7 2 7 2 8.88 3.25 C10 5 10 5 10 9 C9.34 9 8.68 9 8 9 C8.33 9.74 8.66 10.48 9 11.25 C10 14 10 14 10 18 C8.68 18 7.36 18 6 18 C6 16.02 6 14.04 6 12 C4.68 12 3.36 12 2 12 C2 13.98 2 15.96 2 18 C1.01 18 0.02 18 -1 18 C-2 11.41 -2.01 6.38 0 0 Z " fill="#C6EDDA" transform="translate(98,74)"/>
<path d="M0 0 C0.14 0.6 0.29 1.2 0.44 1.81 C0.89 3.56 1.43 5.29 2 7 C1.34 7 0.68 7 0 7 C-0.76 9.37 -1.14 10.6 -0.31 13 C-0.21 13.66 -0.11 14.32 0 15 C-0.61 15.57 -1.21 16.14 -1.84 16.73 C-4.42 19.45 -5.17 21.69 -6.25 25.25 C-6.59 26.33 -6.92 27.41 -7.27 28.52 C-7.51 29.34 -7.75 30.16 -8 31 C-9.65 31 -11.3 31 -13 31 C-10.58 19.78 -6.3 9.59 0 0 Z " fill="#EAEAEA" transform="translate(36,32)"/>
<path d="M0 0 C0.66 0 1.32 0 2 0 C2.81 1.6 3.63 3.21 4.44 4.81 C4.66 5.26 4.66 5.26 5.81 7.52 C9.47 15.15 9.02 25.34 6.88 33.44 C4.97 38.84 1.93 44.37 -3.19 47.22 C-3.79 47.48 -4.39 47.73 -5 48 C-5 47.01 -5 46.02 -5 45 C-4.5 44.84 -4.5 44.84 -2 44 C-1.27 42.36 -0.61 40.69 0 39 C0.5 38.24 0.99 37.47 1.5 36.69 C5.48 29.55 6.13 21.16 4.39 13.25 C3.29 9.38 2.25 6.37 0 3 C0 2.01 0 1.02 0 0 Z " fill="#292827" transform="translate(91,46)"/>
<path d="M0 0 C0.66 0 1.32 0 2 0 C0 6 0 6 -0.8 7.98 C-4.74 18.24 -3.64 27.18 0.55 37.2 C2.31 40.6 4.08 42.58 7 45 C7 45.66 7 46.32 7 47 C3.5 46.44 2.08 45.42 -0.06 42.62 C-6.41 33.55 -7.09 22.78 -6 12 C-4.77 7.41 -3.39 3.39 0 0 Z " fill="#1B1B18" transform="translate(34,47)"/>
<path d="M0 0 C0.33 0.66 0.66 1.32 1 2 C1.66 2.33 2.32 2.66 3 3 C2.67 3.33 2.34 3.66 2 4 C34.01 4.33 66.02 4.66 99 5 C99 5.33 99 5.66 99 6 C64.68 6 30.36 6 -5 6 C-3.35 4.02 -1.7 2.04 0 0 Z " fill="#C4E5D2" transform="translate(77,100)"/>
<path d="M0 0 C0.66 0 1.32 0 2 0 C1.64 13.67 0.19 22.62 -9.98 32.38 C-12 34 -12 34 -14 34 C-14 36.64 -14 39.28 -14 42 C-14.33 41.34 -14.66 40.68 -15 40 C-17.06 39.38 -17.06 39.38 -19 39 C-18.34 39 -17.68 39 -17 39 C-17.09 38.58 -17.09 38.58 -17.56 36.44 C-17 33 -17 33 -15.17 31.39 C-14.39 30.85 -13.61 30.31 -12.81 29.75 C-6.4 25.13 -3.78 20.04 -2.29 12.32 C-1.94 9.85 -1.63 7.38 -1.36 4.91 C-1 2 -1 2 0 0 Z " fill="#2B352F" transform="translate(83,73)"/>
<path d="M0 0 C2.29 -0.03 4.58 -0.05 6.88 -0.06 C8.15 -0.07 9.43 -0.09 10.74 -0.1 C14 0 14 0 16 1 C16 4.3 16 7.6 16 11 C15.01 11 14.02 11 13 11 C13 8.36 13 5.72 13 3 C12.01 3 11.02 3 10 3 C10 5.64 10 8.28 10 11 C9.01 11 8.02 11 7 11 C6.67 8.36 6.34 5.72 6 3 C5.01 3 4.02 3 3 3 C3 5.64 3 8.28 3 11 C2.01 11 1.02 11 0 11 C0 7.37 0 3.74 0 0 Z " fill="#C3EAD8" transform="translate(154,81)"/>
<path d="M0 0 C3.58 2.76 4.66 6.78 6.12 10.88 C6.39 11.58 6.65 12.29 6.93 13.02 C8.26 16.65 9.38 20.16 10 24 C8.68 24 7.36 24 6 24 C6 26.97 6 29.94 6 33 C5.67 33 5.34 33 5 33 C4.97 32.18 4.95 31.36 4.92 30.51 C4.53 22.87 3.2 16.92 0 10 C-0.33 9.01 -0.66 8.02 -1 7 C-1.66 6.67 -2.32 6.34 -3 6 C-3 5.34 -3 4.68 -3 4 C-1.68 3.67 -0.36 3.34 1 3 C0.34 2.67 -0.32 2.34 -1 2 C-0.67 1.34 -0.34 0.68 0 0 Z " fill="#E0E3E1" transform="translate(94,39)"/>
<path d="M0 0 C3.3 0 6.6 0 10 0 C10 0.99 10 1.98 10 3 C7.69 3.33 5.38 3.66 3 4 C3 4.99 3 5.98 3 7 C4.98 7 6.96 7 9 7 C9 7.99 9 8.98 9 10 C7.02 10 5.04 10 3 10 C3 10.66 3 11.32 3 12 C5.31 12.33 7.62 12.66 10 13 C10 13.99 10 14.98 10 16 C6.7 16 3.4 16 0 16 C0 10.72 0 5.44 0 0 Z " fill="#C2EBD7" transform="translate(110,76)"/>
<path d="M0 0 C1.81 1.19 1.81 1.19 3 3 C3.47 6.75 3.16 7.77 1 11 C-2.13 11.4 -4.13 11.52 -6.88 9.88 C-8.52 7.13 -8.4 5.13 -8 2 C-4.77 -0.16 -3.75 -0.47 0 0 Z " fill="#CCEEDE" transform="translate(149,81)"/>
<path d="M0 0 C0.33 0.99 0.66 1.98 1 3 C2.65 3 4.3 3 6 3 C7.26 5.91 8 7.8 8 11 C6.81 13.19 6.81 13.19 5 15 C2.31 15.25 2.31 15.25 0 15 C-0.12 15.64 -0.25 16.28 -0.38 16.94 C-0.58 17.62 -0.79 18.3 -1 19 C-1.66 19.33 -2.32 19.66 -3 20 C-2.01 13.4 -1.02 6.8 0 0 Z " fill="#D3EEDE" transform="translate(85,73)"/>
<path d="M0 0 C0.66 0 1.32 0 2 0 C2 1.32 2 2.64 2 4 C4.64 4 7.28 4 10 4 C10 4.99 10 5.98 10 7 C8.02 7 6.04 7 4 7 C4 8.32 4 9.64 4 11 C5.98 11 7.96 11 10 11 C10 11.99 10 12.98 10 14 C8.02 14 6.04 14 4 14 C4 14.99 4 15.98 4 17 C5.98 17 7.96 17 10 17 C10 17.99 10 18.98 10 20 C7.69 20 5.38 20 3 20 C0.39 14.12 0.82 8.29 1 2 C0.34 1.67 -0.32 1.34 -1 1 C-0.67 0.67 -0.34 0.34 0 0 Z " fill="#BEE2D1" transform="translate(44,72)"/>
<path d="M0 0 C2.64 0 5.28 0 8 0 C8 0.99 8 1.98 8 3 C5.36 3.33 2.72 3.66 0 4 C0.33 6.64 0.66 9.28 1 12 C3.64 12 6.28 12 9 12 C8.67 13.32 8.34 14.64 8 16 C0.32 16.3 0.32 16.3 -3 14 C-4.61 10.79 -4.06 7.56 -4 4 C-2.68 3.34 -1.36 2.68 0 2 C0 1.34 0 0.68 0 0 Z " fill="#CBECDD" transform="translate(72,76)"/>
<path d="M0 0 C0 0.99 0 1.98 0 3 C-1.98 3.33 -3.96 3.66 -6 4 C-7.12 9.75 -7.12 9.75 -6 12 C-2.94 12.62 -2.94 12.62 0 13 C0 13.99 0 14.98 0 16 C-7.36 16.48 -7.36 16.48 -10 14.5 C-11.77 10.07 -11.77 5.93 -10 1.5 C-6.8 -0.9 -3.93 -0.26 0 0 Z " fill="#C7ECDB" transform="translate(139,76)"/>
<path d="M0 0 C-1.43 3.18 -3.18 5.54 -5.5 8.12 C-6.11 8.81 -6.72 9.49 -7.34 10.2 C-8.53 11.49 -9.76 12.76 -11 14 C-12.57 12.43 -12.21 10.86 -12.25 8.69 C-12.2 5.85 -12.06 4.14 -10.94 1.5 C-7.74 -0.97 -3.68 -1.84 0 0 Z " fill="#F9F8F8" transform="translate(45,17)"/>
<path d="M0 0 C2 3 2 3 2 5 C0.68 5.33 -0.64 5.66 -2 6 C-2 6.99 -2 7.98 -2 9 C-3.65 9.33 -5.3 9.66 -7 10 C-7.33 11.32 -7.66 12.64 -8 14 C-9.98 14 -11.96 14 -14 14 C-14 9.97 -12.27 8.27 -10 5 C-9.31 3.68 -8.62 2.35 -8 1 C-6.68 1 -5.36 1 -4 1 C-4 3 -4 3 -5.5 4.62 C-6 5.08 -6.49 5.53 -7 6 C-3.63 4.61 -2.01 3.02 0 0 Z " fill="#F9F8F7" transform="translate(93,87)"/>
<path d="M0 0 C3.63 0 7.26 0 11 0 C11 0.99 11 1.98 11 3 C10.01 3.33 9.02 3.66 8 4 C7.67 7.96 7.34 11.92 7 16 C5.68 16 4.36 16 3 16 C3 11.38 3 6.76 3 2 C2.01 2 1.02 2 0 2 C0 1.34 0 0.68 0 0 Z " fill="#C6ECDB" transform="translate(56,76)"/>
<path d="M0 0 C6.21 -0.07 12.42 -0.13 18.63 -0.16 C20.75 -0.18 22.86 -0.2 24.97 -0.23 C28.01 -0.26 31.05 -0.28 34.08 -0.29 C34.56 -0.3 34.56 -0.3 36.95 -0.34 C37.39 -0.34 37.39 -0.34 39.62 -0.34 C40.4 -0.35 41.17 -0.35 41.97 -0.36 C44.55 0.1 45.41 0.94 47 3 C47.69 5.69 47.69 5.69 48 8 C47.01 8 46.02 8 45 8 C44.84 7.5 44.84 7.5 44 5 C43.44 5.03 43.44 5.03 40.62 5.19 C39.43 5.13 38.23 5.06 37 5 C36.34 4.01 35.68 3.02 35 2 C32.31 1.66 29.84 1.51 27.15 1.49 C26.37 1.47 25.6 1.45 24.8 1.43 C22.33 1.38 19.85 1.35 17.38 1.31 C15.7 1.28 14.02 1.24 12.34 1.21 C8.23 1.12 4.11 1.06 0 1 C0 0.67 0 0.34 0 0 Z " fill="#F7FDF9" transform="translate(13,106)"/>
<path d="M0 0 C1.65 0 3.3 0 5 0 C5 1.32 5 2.64 5 4 C5.66 4 6.32 4 7 4 C7.66 5.98 8.32 7.96 9 10 C8.34 10 7.68 10 7 10 C6.67 10.66 6.34 11.32 6 12 C5.34 10.02 4.68 8.04 4 6 C3.67 9.3 3.34 12.6 3 16 C2.01 16 1.02 16 0 16 C0 10.72 0 5.44 0 0 Z " fill="#C7ECDB" transform="translate(17,76)"/>
<path d="M0 0 C3.96 0 7.92 0 12 0 C12 2.64 12 5.28 12 8 C11.67 8 11.34 8 11 8 C11 6.35 11 4.7 11 3 C9.02 3 7.04 3 5 3 C5 4.32 5 5.64 5 7 C6.65 7 8.3 7 10 7 C10 7.66 10 8.32 10 9 C8.02 9.66 6.04 10.32 4 11 C2.68 7.37 1.36 3.74 0 0 Z " fill="#B9D9C9" transform="translate(31,76)"/>
<path d="M0 0 C-1.65 4.29 -3.3 8.58 -5 13 C-7.54 13.2 -10.08 13.39 -12.62 13.59 C-15 14 -15 14 -17 16 C-17.33 14.68 -17.66 13.36 -18 12 C-14.7 12 -11.4 12 -8 12 C-8 11.01 -8 10.02 -8 9 C-8.66 8.67 -9.32 8.34 -10 8 C-9.34 8 -8.68 8 -8 8 C-7.67 7.01 -7.34 6.02 -7 5 C-7 5.99 -7 6.98 -7 8 C-6.34 8 -5.68 8 -5 8 C-5.35 7.42 -5.7 6.84 -6.06 6.25 C-7.15 3.64 -6.93 2.61 -6 0 C-2.25 -1.12 -2.25 -1.12 0 0 Z " fill="#F6FAF6" transform="translate(26,48)"/>
<path d="M0 0 C3 1 3 1 3.98 2.87 C4.26 3.67 4.54 4.47 4.82 5.3 C5.13 6.17 5.44 7.05 5.75 7.95 C6.06 8.88 6.37 9.8 6.69 10.75 C7.01 11.66 7.33 12.56 7.66 13.5 C9.15 17.85 10.19 21.36 10 26 C9.34 26 8.68 26 8 26 C6.66 22.23 5.33 18.46 4 14.69 C3.62 13.62 3.24 12.54 2.84 11.44 C2.66 10.93 2.66 10.93 1.75 8.32 C1.41 7.38 1.08 6.43 0.73 5.45 C0 3 0 3 0 0 Z " fill="#2B2A2A" transform="translate(97,41)"/>
<path d="M0 0 C1.65 0.33 3.3 0.66 5 1 C5 1.99 5 2.98 5 4 C5.66 4 6.32 4 7 4 C7 2.68 7 1.36 7 0 C8.65 0 10.3 0 12 0 C12 0.66 12 1.32 12 2 C11.01 2 10.02 2 9 2 C8.67 2.99 8.34 3.98 8 5 C6.35 5.33 4.7 5.66 3 6 C2.67 8.31 2.34 10.62 2 13 C1.01 13 0.02 13 -1 13 C-0.67 8.71 -0.34 4.42 0 0 Z " fill="#FAF9F8" transform="translate(100,63)"/>
<path d="M0 0 C2.31 0.33 4.62 0.66 7 1 C5.51 5.61 3.27 8.49 0 12 C-0.99 12.33 -1.98 12.66 -3 13 C-3.93 9.99 -4.04 9.13 -3 6 C-2.34 6 -1.68 6 -1 6 C-1 6.99 -1 7.98 -1 9 C0.62 6.43 1.04 5.32 0.62 2.25 C0.42 1.51 0.21 0.77 0 0 Z " fill="#F5F8F6" transform="translate(72,91)"/>
<path d="M0 0 C1.98 0 3.96 0 6 0 C6.37 1.41 6.72 2.83 7.06 4.25 C7.26 5.04 7.46 5.83 7.66 6.64 C8.01 9.1 7.77 10.66 7 13 C6.67 12.34 6.34 11.68 6 11 C4.02 10.27 2.02 9.6 0 9 C0.33 8.01 0.66 7.02 1 6 C2.32 6 3.64 6 5 6 C5 5.34 5 4.68 5 4 C3.35 4 1.7 4 0 4 C0 2.68 0 1.36 0 0 Z " fill="#E6F1EA" transform="translate(36,79)"/>
<path d="M0 0 C1.32 0 2.64 0 4 0 C4.29 8.57 4.29 8.57 2 12 C0.68 12 -0.64 12 -2 12 C-1.86 10.37 -1.71 8.75 -1.56 7.12 C-1.48 6.22 -1.4 5.32 -1.32 4.38 C-1 2 -1 2 0 0 Z " fill="#F8FCFB" transform="translate(124,80)"/>
<path d="M0 0 C9.01 -0.58 15.59 -0.49 23 5 C22.67 5.66 22.34 6.32 22 7 C21.3 6.71 20.6 6.42 19.88 6.12 C18.93 5.75 17.98 5.38 17 5 C16.15 4.65 15.31 4.3 14.44 3.94 C9.36 2.55 4.24 2.32 -1 2 C-0.67 1.34 -0.34 0.68 0 0 Z " fill="#21201E" transform="translate(58,12)"/>
<path d="M0 0 C6.39 -0.48 6.39 -0.48 9.06 1.62 C10.38 4.97 9.39 6.79 8 10 C7.01 9.34 6.02 8.68 5 8 C5 6.68 5 5.36 5 4 C3.35 4 1.7 4 0 4 C0 2.68 0 1.36 0 0 Z " fill="#F9FCF8" transform="translate(86,72)"/>
<path d="M0 0 C0.66 0 1.32 0 2 0 C2.03 1.58 2.05 3.17 2.06 4.75 C2.07 5.63 2.09 6.51 2.1 7.42 C2.01 9.78 1.67 11.74 1 14 C-0.65 14 -2.3 14 -4 14 C-2.85 9.25 -1.62 4.62 0 0 Z " fill="#E2EAE6" transform="translate(27,49)"/>
<path d="M0 0 C0.6 0.76 1.2 1.53 1.81 2.31 C4 5 4 5 5.75 6.69 C7 8 7 8 7 10 C3.63 10.23 1.59 10.34 -1.38 8.62 C-1.91 8.09 -2.45 7.55 -3 7 C-3 6.34 -3 5.68 -3 5 C-2.34 5 -1.68 5 -1 5 C-0.67 3.35 -0.34 1.7 0 0 Z " fill="#FBFBFA" transform="translate(45,94)"/>
<path d="M0 0 C0.33 0.66 0.66 1.32 1 2 C1.99 2 2.98 2 4 2 C3.67 2.99 3.34 3.98 3 5 C0.94 5.69 0.94 5.69 -1 6 C-1 6.66 -1 7.32 -1 8 C0.65 7.34 2.3 6.68 4 6 C4 7.32 4 8.64 4 10 C2.02 10 0.04 10 -2 10 C-2 10.66 -2 11.32 -2 12 C-2.66 12 -3.32 12 -4 12 C-3.46 7.44 -2.21 4.03 0 0 Z " fill="#F5F4F6" transform="translate(36,47)"/>
<path d="M0 0 C0.66 0 1.32 0 2 0 C0.28 5.45 -1.85 10.71 -4 16 C-4.66 16 -5.32 16 -6 16 C-5.53 10.37 -4.16 4.16 0 0 Z " fill="#2A2A2A" transform="translate(34,47)"/>
<path d="M0 0 C0 0.99 0 1.98 0 3 C-1.65 3 -3.3 3 -5 3 C-5 4.98 -5 6.96 -5 9 C-3.68 9.33 -2.36 9.66 -1 10 C-2.98 10 -4.96 10 -7 10 C-8.39 7.21 -8.26 5.08 -8 2 C-4.77 -0.15 -3.72 -0.2 0 0 Z " fill="#C2ECD9" transform="translate(149,81)"/>
<path d="M0 0 C2.32 3.48 2.17 4.93 2 9 C2 9.99 2 10.98 2 12 C2 14 2 16 2 18 C1.01 18 0.02 18 -1 18 C-2 11.41 -2.01 6.38 0 0 Z " fill="#BBDECD" transform="translate(98,74)"/>
<path d="M0 0 C6.62 -0.25 6.62 -0.25 10 2 C12.33 2.04 14.67 2.04 17 2 C17.66 2.33 18.32 2.66 19 3 C19 3.66 19 4.32 19 5 C13.06 4.67 7.12 4.34 1 4 C0.67 2.68 0.34 1.36 0 0 Z " fill="#D9D8D6" transform="translate(55,8)"/>
<path d="M0 0 C3.3 0 6.6 0 10 0 C9.34 0.66 8.68 1.32 8 2 C7.6 3.99 7.26 5.99 7 8 C6.01 8 5.02 8 4 8 C2.68 5.36 1.36 2.72 0 0 Z " fill="#F3F1F0" transform="translate(59,104)"/>
<path d="M0 0 C1.32 0 2.64 0 4 0 C3.67 2.97 3.34 5.94 3 9 C2.01 8.67 1.02 8.34 0 8 C-0.66 8.66 -1.32 9.32 -2 10 C-2.33 8.68 -2.66 7.36 -3 6 C-2.01 6 -1.02 6 0 6 C0 4.02 0 2.04 0 0 Z " fill="#F4FBF6" transform="translate(100,86)"/>
<path d="M0 0 C0.99 0.17 0.99 0.17 6 1 C6.66 3.31 7.32 5.62 8 8 C7.01 8 6.02 8 5 8 C4.67 7.01 4.34 6.02 4 5 C2.89 5.06 1.77 5.12 0.62 5.19 C-0.57 5.13 -1.77 5.06 -3 5 C-3.66 4.01 -4.32 3.02 -5 2 C-3.35 1.67 -1.7 1.34 0 1 C0 0.67 0 0.34 0 0 Z " fill="#F3F3F2" transform="translate(53,106)"/>
<path d="M0 0 C0.99 0.66 1.98 1.32 3 2 C2.34 2.33 2.34 2.33 -1 4 C-1 6.64 -1 9.28 -1 12 C-1.33 11.34 -1.66 10.68 -2 10 C-4.06 9.38 -4.06 9.38 -6 9 C-5.34 9 -4.68 9 -4 9 C-4.08 8.07 -4.17 7.14 -4.25 6.19 C-4 3 -4 3 -2 1.12 C-1.34 0.75 -0.68 0.38 0 0 Z " fill="#3E3E3D" transform="translate(70,103)"/>
<path d="M0 0 C0.66 0 1.32 0 2 0 C1.67 4.95 1.34 9.9 1 15 C0.01 14.67 -0.98 14.34 -2 14 C-1.86 12.04 -1.71 10.08 -1.56 8.12 C-1.48 7.03 -1.4 5.94 -1.32 4.82 C-1 2 -1 2 0 0 Z " fill="#333834" transform="translate(83,73)"/>
<path d="M0 0 C2.53 2.36 3.89 3.66 5 7 C7.06 7.69 7.06 7.69 9 8 C9 8.66 9 9.32 9 10 C6.69 10 4.38 10 2 10 C1.01 7.03 0.02 4.06 -1 1 C-0.67 0.67 -0.34 0.34 0 0 Z " fill="#2E2D2E" transform="translate(59,105)"/>
<path d="M0 0 C2.83 2.83 2.99 4.65 3.12 8.62 C3 12 3 12 2 13 C0 13.04 -2 13.04 -4 13 C-2.68 12.67 -1.36 12.34 0 12 C0 8.04 0 4.08 0 0 Z " fill="#ECF6F1" transform="translate(29,80)"/>
<path d="M0 0 C0.58 0.74 1.16 1.48 1.75 2.25 C4 5 4 5 6.25 7.19 C8 9 8 9 8 11 C5.27 10.63 4.19 10.21 2.3 8.15 C1.79 7.42 1.28 6.69 0.75 5.94 C0.23 5.2 -0.29 4.47 -0.83 3.71 C-1.21 3.15 -1.6 2.58 -2 2 C-1.34 1.34 -0.68 0.68 0 0 Z " fill="#325743" transform="translate(33,83)"/>
<path d="M0 0 C3.24 3.24 3.99 7.62 5 12 C3.35 12 1.7 12 0 12 C0 8.04 0 4.08 0 0 Z " fill="#F0FBF3" transform="translate(20,80)"/>
<path d="M0 0 C0.33 0 0.66 0 1 0 C1 7.26 1 14.52 1 22 C0.34 21.67 -0.32 21.34 -1 21 C-1.41 18.06 -1.41 18.06 -1.62 14.44 C-1.7 13.24 -1.77 12.04 -1.85 10.81 C-1.9 9.88 -1.95 8.95 -2 8 C-1.34 8 -0.68 8 0 8 C0 5.36 0 2.72 0 0 Z " fill="#D1DFD6" transform="translate(27,64)"/>
<path d="M0 0 C0.99 0 1.98 0 3 0 C2.67 1.98 2.34 3.96 2 6 C3.32 6.33 4.64 6.66 6 7 C6 7.33 6 7.66 6 8 C4.35 8 2.7 8 1 8 C0.88 8.64 0.75 9.28 0.62 9.94 C0.42 10.62 0.21 11.3 0 12 C-0.33 12.16 -0.33 12.16 -2 13 C-1.34 8.71 -0.68 4.42 0 0 Z " fill="#ADD3C0" transform="translate(84,80)"/>
<path d="M0 0 C0.33 0.99 0.66 1.98 1 3 C2.65 3 4.3 3 6 3 C5.67 5.31 5.34 7.62 5 10 C4.67 9.01 4.34 8.02 4 7 C3.01 7 2.02 7 1 7 C0.67 7.66 0.34 8.32 0 9 C0 6.03 0 3.06 0 0 Z " fill="#C2E4D2" transform="translate(85,73)"/>
<path d="M0 0 C0.66 0.66 1.32 1.32 2 2 C4.32 2.4 6.66 2.74 9 3 C8.67 3.66 8.34 4.32 8 5 C5.36 5 2.72 5 0 5 C0 8.63 0 12.26 0 16 C-0.33 16 -0.66 16 -1 16 C-1.03 14.08 -1.05 12.17 -1.06 10.25 C-1.07 9.18 -1.09 8.12 -1.1 7.02 C-1.02 4.47 -0.75 2.42 0 0 Z " fill="#BED5C9" transform="translate(31,58)"/>
<path d="M0 0 C1.11 0.6 2.23 1.2 3.38 1.81 C3.69 1.98 3.69 1.98 5.27 2.83 C7 4 7 4 9 7 C7.31 7.81 7.31 7.81 5 8 C2.25 5.75 2.25 5.75 0 3 C0 2.01 0 1.02 0 0 Z " fill="#F9F8F8" transform="translate(75,17)"/>
<path d="M0 0 C0 1.32 0 2.64 0 4 C-0.66 4 -1.32 4 -2 4 C-2 4.66 -2 5.32 -2 6 C-1.01 5.67 -0.02 5.34 1 5 C1 5.66 1 6.32 1 7 C-0.65 7 -2.3 7 -4 7 C-4 6.01 -4 5.02 -4 4 C-4.66 4 -5.32 4 -6 4 C-6.33 4.66 -6.66 5.32 -7 6 C-7 5.01 -7 4.02 -7 3 C-2.78 0 -2.78 0 0 0 Z " fill="#F4F4F4" transform="translate(55,16)"/>
<path d="M0 0 C1.31 2.62 0.9 4.23 0.56 7.12 C0.46 8.04 0.36 8.95 0.25 9.88 C0.17 10.58 0.09 11.28 0 12 C-2 9 -2 9 -2 7 C-3.65 7 -5.3 7 -7 7 C-7 6.67 -7 6.34 -7 6 C-5.35 6 -3.7 6 -2 6 C-2 5.01 -2 4.02 -2 3 C-3.65 3 -5.3 3 -7 3 C-7 2.67 -7 2.34 -7 2 C-4.69 1.34 -2.38 0.68 0 0 Z " fill="#F1F4F2" transform="translate(82,73)"/>
<path d="M0 0 C-0.51 2.17 -1 4 -2 6 C-1.34 6.33 -0.68 6.66 0 7 C-0.33 7.16 -0.33 7.16 -2 8 C-3.65 6.35 -5.3 4.7 -7 3 C-4.75 0.75 -3.21 0 0 0 Z " fill="#F5F5F3" transform="translate(80,8)"/>
<path d="M0 0 C0.66 0.99 1.32 1.98 2 3 C0.02 5.31 -1.96 7.62 -4 10 C-4.99 9.67 -5.98 9.34 -7 9 C-6.34 8.01 -5.68 7.02 -5 6 C-4.34 6 -3.68 6 -3 6 C-2.69 5.2 -2.38 4.39 -2.06 3.56 C-1 1 -1 1 0 0 Z " fill="#3A3A38" transform="translate(92,84)"/>
<path d="M0 0 C1.65 0 3.3 0 5 0 C5 0.66 5 1.32 5 2 C4.01 2 3.02 2 2 2 C1.67 2.99 1.34 3.98 1 5 C-0.65 5.33 -2.3 5.66 -4 6 C-4.33 6.99 -4.66 7.98 -5 9 C-5.12 3.25 -5.12 3.25 -4 1 C-3.34 1 -2.68 1 -2 1 C-2 1.99 -2 2.98 -2 4 C-1.34 4 -0.68 4 0 4 C0 2.68 0 1.36 0 0 Z " fill="#E9EAE8" transform="translate(107,63)"/>
<path d="M0 0 C1.65 0 3.3 0 5 0 C5.33 0.99 5.66 1.98 6 3 C5.34 3.66 4.68 4.32 4 5 C3.67 5 3.34 5 3 5 C2.67 5.99 2.34 6.98 2 8 C1.34 8 0.68 8 0 8 C-1.1 4.71 -0.8 3.29 0 0 Z " fill="#F8F8F8" transform="translate(98,32)"/>
<path d="M0 0 C0 0.66 0 1.32 0 2 C-1.45 2.7 -2.91 3.38 -4.38 4.06 C-5.19 4.45 -6 4.83 -6.84 5.22 C-7.55 5.48 -8.26 5.74 -9 6 C-9.66 5.67 -10.32 5.34 -11 5 C-8.11 1.79 -4.48 -2.24 0 0 Z " fill="#333030" transform="translate(58,13)"/>
<path d="M0 0 C0.99 0.33 1.98 0.66 3 1 C3 3.31 3 5.62 3 8 C1.68 8 0.36 8 -1 8 C-1.12 2.25 -1.12 2.25 0 0 Z " fill="#FDFEFD" transform="translate(137,80)"/>
<path d="M0 0 C0.66 0 1.32 0 2 0 C2 0.99 2 1.98 2 3 C2.66 3 3.32 3 4 3 C4 2.34 4 1.68 4 1 C4.66 1 5.32 1 6 1 C4.95 3.62 4.35 4.79 1.88 6.25 C1.26 6.5 0.64 6.75 0 7 C-0.93 3.99 -1.04 3.13 0 0 Z " fill="#EDEDEC" transform="translate(69,97)"/>
<path d="M0 0 C0.66 0 1.32 0 2 0 C1.49 4.37 0.55 7.39 -2 11 C-2.33 11 -2.66 11 -3 11 C-2.53 6.94 -2.12 3.53 0 0 Z " fill="#2E2C2D" transform="translate(29,39)"/>
<path d="M0 0 C3.34 2.99 5.15 5.93 7 10 C6.01 10 5.02 10 4 10 C3.67 8.35 3.34 6.7 3 5 C2.01 5 1.02 5 0 5 C0 4.34 0 3.68 0 3 C-0.66 3 -1.32 3 -2 3 C-1 1 -1 1 0 0 Z " fill="#ECEBEB" transform="translate(86,26)"/>
<path d="M0 0 C0.66 0 1.32 0 2 0 C2.93 3.01 3.04 3.87 2 7 C0.35 6.67 -1.3 6.34 -3 6 C-2.01 4.02 -1.02 2.04 0 0 Z " fill="#F3F3F3" transform="translate(81,94)"/>
<path d="M0 0 C0.99 0 1.98 0 3 0 C3 0.66 3 1.32 3 2 C3.99 1.67 4.98 1.34 6 1 C6.66 1.66 7.32 2.32 8 3 C6.68 4.32 5.36 5.64 4 7 C0 2.25 0 2.25 0 0 Z " fill="#F0F0EE" transform="translate(49,94)"/>
<path d="M0 0 C2.88 -0.12 2.88 -0.12 6 0 C6.66 0.66 7.32 1.32 8 2 C7.67 2.66 7.34 3.32 7 4 C5.02 4 3.04 4 1 4 C0.67 2.68 0.34 1.36 0 0 Z " fill="#F4FBF7" transform="translate(112,79)"/>
<path d="M0 0 C1.32 0 2.64 0 4 0 C3.39 3.56 2.42 6.68 1 10 C0.67 10 0.34 10 0 10 C-0.19 8.52 -0.38 7.04 -0.56 5.56 C-0.67 4.74 -0.77 3.92 -0.88 3.07 C-0.92 2.38 -0.96 1.7 -1 1 C-0.67 0.67 -0.34 0.34 0 0 Z " fill="#F2F1F0" transform="translate(29,46)"/>
<path d="M0 0 C1.98 0 3.96 0 6 0 C6 1.32 6 2.64 6 4 C4.02 4 2.04 4 0 4 C0 2.68 0 1.36 0 0 Z " fill="#F3FBF6" transform="translate(36,79)"/>
<path d="M0 0 C0.66 0 1.32 0 2 0 C2 0.99 2 1.98 2 3 C2.66 3 3.32 3 4 3 C4.33 2.34 4.66 1.68 5 1 C5 1.66 5 2.32 5 3 C5.66 3.33 6.32 3.66 7 4 C6.01 4.33 5.02 4.66 4 5 C3.34 4.67 2.68 4.34 2 4 C1.67 4.99 1.34 5.98 1 7 C0.34 6.34 -0.32 5.68 -1 5 C-0.62 2.38 -0.62 2.38 0 0 Z " fill="#F1F1F1" transform="translate(17,65)"/>
<path d="M0 0 C0.14 0.6 0.29 1.2 0.44 1.81 C0.89 3.56 1.43 5.29 2 7 C1.34 7 0.68 7 0 7 C-0.33 7.66 -0.66 8.32 -1 9 C-1.66 9 -2.32 9 -3 9 C-2.44 5.66 -1.65 2.97 0 0 Z " fill="#EEEEEE" transform="translate(36,32)"/>
<path d="M0 0 C0.66 0.33 1.32 0.66 2 1 C2 1.99 2 2.98 2 4 C2.99 4 3.98 4 5 4 C4.01 6.31 3.02 8.62 2 11 C1.67 11 1.34 11 1 11 C0.64 9.54 0.29 8.08 -0.06 6.62 C-0.16 6.22 -0.16 6.22 -0.66 4.16 C-1 2 -1 2 0 0 Z " fill="#F1EFF0" transform="translate(26,32)"/>
<path d="M0 0 C4.75 0.88 4.75 0.88 7 2 C6.34 3.32 5.68 4.64 5 6 C3.68 5.67 2.36 5.34 1 5 C1.66 5 2.32 5 3 5 C2.01 3.35 1.02 1.7 0 0 Z " fill="#DFE8E1" transform="translate(38,89)"/>
<path d="M0 0 C0.99 0 1.98 0 3 0 C4.35 2.71 4.07 5.01 4 8 C3.67 6.68 3.34 5.36 3 4 C2.34 4 1.68 4 1 4 C0.67 5.32 0.34 6.64 0 8 C0 5.36 0 2.72 0 0 Z " fill="#EDFBF3" transform="translate(157,84)"/>
<path d="M0 0 C0.33 0.66 0.66 1.32 1 2 C1.99 2 2.98 2 4 2 C3.67 2.99 3.34 3.98 3 5 C-0.06 6.19 -0.06 6.19 -3 7 C-2.01 4.69 -1.02 2.38 0 0 Z " fill="#ECECEC" transform="translate(36,47)"/>
<path d="M0 0 C4.43 5.14 4.43 5.14 5 9 C4.01 9 3.02 9 2 9 C0.44 6.19 0.44 6.19 -1 3 C-0.67 2.01 -0.34 1.02 0 0 Z " fill="#3F3D3E" transform="translate(94,33)"/>
<path d="M0 0 C0 0.66 0 1.32 0 2 C-0.33 2.33 -0.66 2.66 -1 3 C-0.67 3.66 -0.34 4.32 0 5 C-1.88 4.75 -1.88 4.75 -4 4 C-5.25 1.94 -5.25 1.94 -6 0 C-3.51 -1.25 -2.59 -0.78 0 0 Z " fill="#F7F5F6" transform="translate(96,26)"/>
<path d="M0 0 C2 3 2 3 2 5 C0.68 5.33 -0.64 5.66 -2 6 C-2 6.99 -2 7.98 -2 9 C-2.99 8.67 -3.98 8.34 -5 8 C-3.63 5.05 -2.01 2.56 0 0 Z " fill="#EBF1ED" transform="translate(93,87)"/>
<path d="M0 0 C1.32 0 2.64 0 4 0 C4 1.65 4 3.3 4 5 C2.68 5 1.36 5 0 5 C0 3.35 0 1.7 0 0 Z " fill="#F6FAF9" transform="translate(144,84)"/>
<path d="M0 0 C0.66 0 1.32 0 2 0 C2 0.66 2 1.32 2 2 C3.32 2.33 4.64 2.66 6 3 C3.36 3.99 0.72 4.98 -2 6 C-1.34 4.02 -0.68 2.04 0 0 Z " fill="#F6F3F2" transform="translate(50,10)"/>
<path d="M0 0 C3.3 0 6.6 0 10 0 C8 2 8 2 5.38 2.12 C4.59 2.08 3.81 2.04 3 2 C2.67 2.66 2.34 3.32 2 4 C1.34 2.68 0.68 1.36 0 0 Z " fill="#B8E4D0" transform="translate(59,104)"/>
<path d="M0 0 C1.32 0.33 2.64 0.66 4 1 C4 1.66 4 2.32 4 3 C3.34 3 2.68 3 2 3 C2 5.64 2 8.28 2 11 C1.67 11 1.34 11 1 11 C0.67 7.37 0.34 3.74 0 0 Z " fill="#B9E8D3" transform="translate(18,77)"/>
<path d="M0 0 C1.68 0.29 3.34 0.62 5 1 C5 1.66 5 2.32 5 3 C5.66 3.33 6.32 3.66 7 4 C2.45 4.37 2.45 4.37 0.19 2.5 C-0.01 2.25 -0.01 2.25 -1 1 C-0.67 0.67 -0.34 0.34 0 0 Z " fill="#EDEDED" transform="translate(55,100)"/>
<path d="M0 0 C0.33 0 0.66 0 1 0 C1.06 0.57 1.06 0.57 1.38 3.44 C1.48 4.03 1.48 4.03 2 7 C2.66 7.33 3.32 7.66 4 8 C2.35 8 0.7 8 -1 8 C-1.33 6.68 -1.66 5.36 -2 4 C-1.34 4 -0.68 4 0 4 C0 2.68 0 1.36 0 0 Z " fill="#ECFBF2" transform="translate(140,84)"/>
<path d="M0 0 C1.98 0 3.96 0 6 0 C6 0.99 6 1.98 6 3 C4.02 3 2.04 3 0 3 C0 2.01 0 1.02 0 0 Z " fill="#C7E7DA" transform="translate(48,89)"/>
<path d="M0 0 C0.66 0.33 1.32 0.66 2 1 C1.34 2.98 0.68 4.96 0 7 C-0.99 6.34 -1.98 5.68 -3 5 C-3 3.68 -3 2.36 -3 1 C-2.01 0.67 -1.02 0.34 0 0 Z " fill="#EEF1EE" transform="translate(94,75)"/>
<path d="M0 0 C2.15 3.23 2.2 4.28 2 8 C1.34 8 0.68 8 0 8 C-0.66 5.69 -1.32 3.38 -2 1 C-1.34 0.67 -0.68 0.34 0 0 Z " fill="#34423A" transform="translate(105,59)"/>
<path d="M0 0 C0.91 3.07 1.09 5.8 1 9 C0.01 9.33 -0.98 9.66 -2 10 C-1.54 6.53 -1.11 3.33 0 0 Z " fill="#3C453F" transform="translate(30,53)"/>
<path d="M0 0 C0.33 0.16 0.33 0.16 2 1 C2.59 3.65 2.74 6.29 3 9 C1.5 7.88 1.5 7.88 0 6 C-0.19 2.81 -0.19 2.81 0 0 Z " fill="#262423" transform="translate(102,52)"/>
<path d="M0 0 C2 3 2 3 2 5 C1.34 5.33 1.34 5.33 -2 7 C-2.33 5.68 -2.66 4.36 -3 3 C-2.34 3 -1.68 3 -1 3 C-0.67 2.01 -0.34 1.02 0 0 Z " fill="#DAD9D8" transform="translate(98,46)"/>
<path d="M0 0 C-1.15 2.47 -2.05 4.05 -4 6 C-4.99 5.67 -5.98 5.34 -7 5 C-2.25 0 -2.25 0 0 0 Z " fill="#1F1E1C" transform="translate(78,98)"/>
<path d="M0 0 C1.32 0 2.64 0 4 0 C4 1.32 4 2.64 4 4 C2.68 4 1.36 4 0 4 C0 2.68 0 1.36 0 0 Z " fill="#CFEDE1" transform="translate(122,88)"/>
<path d="M0 0 C0.66 0 1.32 0 2 0 C2.33 2.31 2.66 4.62 3 7 C2.34 7 1.68 7 1 7 C0.67 4.69 0.34 2.38 0 0 Z " fill="#292F2B" transform="translate(30,77)"/>
<path d="M0 0 C1.65 0 3.3 0 5 0 C4.67 0.16 4.67 0.16 3 1 C3 1.99 3 2.98 3 4 C1.68 3.67 0.36 3.34 -1 3 C-0.67 2.01 -0.34 1.02 0 0 Z " fill="#F8F8F6" transform="translate(23,63)"/>
<path d="M0 0 C1.32 0 2.64 0 4 0 C4 0.99 4 1.98 4 3 C4.66 3.33 5.32 3.66 6 4 C4.35 4 2.7 4 1 4 C0.67 2.68 0.34 1.36 0 0 Z " fill="#F1F5F3" transform="translate(105,57)"/>
<path d="M0 0 C0.33 0.99 0.66 1.98 1 3 C1.66 3 2.32 3 3 3 C3 2.34 3 1.68 3 1 C3.66 1 4.32 1 5 1 C4.34 2.32 3.68 3.64 3 5 C2.34 4.67 1.68 4.34 1 4 C0.67 4.66 0.34 5.32 0 6 C0 5.34 0 4.68 0 4 C-0.66 3.67 -1.32 3.34 -2 3 C-1.34 3 -0.68 3 0 3 C0 2.01 0 1.02 0 0 Z " fill="#EEEDEE" transform="translate(18,53)"/>
<path d="M0 0 C1.32 0.33 2.64 0.66 4 1 C3.34 2.65 2.68 4.3 2 6 C1.34 5.67 0.68 5.34 0 5 C0 3.35 0 1.7 0 0 Z " fill="#EDEBEC" transform="translate(33,25)"/>
<path d="M0 0 C0.99 0.33 1.98 0.66 3 1 C2.67 2.98 2.34 4.96 2 7 C0.68 5.68 -0.64 4.36 -2 3 C-1.34 2.01 -0.68 1.02 0 0 Z " fill="#F0F0F0" transform="translate(43,23)"/>
<path d="M0 0 C0.66 1.32 1.32 2.64 2 4 C1.01 4.99 0.02 5.98 -1 7 C-1.66 6.34 -2.32 5.68 -3 5 C-2.01 3.35 -1.02 1.7 0 0 Z " fill="#3B3C3B" transform="translate(79,92)"/>
<path d="M0 0 C0.99 0 1.98 0 3 0 C3.33 1.65 3.66 3.3 4 5 C3.01 5 2.02 5 1 5 C0.67 3.35 0.34 1.7 0 0 Z " fill="#3F5848" transform="translate(43,86)"/>
<path d="M0 0 C1.32 0.33 2.64 0.66 4 1 C4 2.98 4 4.96 4 7 C3.34 7 2.68 7 2 7 C1.34 4.69 0.68 2.38 0 0 Z " fill="#E9E9E8" transform="translate(102,49)"/>
<path d="M0 0 C0.66 0 1.32 0 2 0 C2.62 2.31 2.62 2.31 3 5 C2.34 5.99 1.68 6.98 1 8 C0.67 5.36 0.34 2.72 0 0 Z " fill="#363533" transform="translate(100,47)"/>
<path d="M0 0 C2 1 2 1 2 1 Z M-2 1 C-1.01 1.33 -0.02 1.66 1 2 C1 2.66 1 3.32 1 4 C1.66 4.33 2.32 4.66 3 5 C2.5 5.33 2.5 5.33 0 7 C-0.66 5.02 -1.32 3.04 -2 1 Z " fill="#F0EEEF" transform="translate(101,40)"/>
<path d="M0 0 C0.66 0.33 1.32 0.66 2 1 C0.25 4.88 0.25 4.88 -2 6 C-2.33 5.01 -2.66 4.02 -3 3 C-2.01 2.01 -1.02 1.02 0 0 Z " fill="#403E3F" transform="translate(46,17)"/>
<path d="M0 0 C0.99 0.16 0.99 0.16 6 1 C5.67 1.5 5.67 1.5 4 4 C2.68 3.67 1.36 3.34 0 3 C0 2.01 0 1.02 0 0 Z " fill="#373634" transform="translate(69,12)"/>
<path d="M0 0 C0.66 0.99 1.32 1.98 2 3 C1.01 3.99 0.02 4.98 -1 6 C-1.66 5.34 -2.32 4.68 -3 4 C-2.01 2.68 -1.02 1.36 0 0 Z " fill="#365C4B" transform="translate(92,84)"/>
<path d="M0 0 C0.99 0.33 1.98 0.66 3 1 C3.69 3.06 3.69 3.06 4 5 C3.01 5.33 2.02 5.66 1 6 C1 5.01 1 4.02 1 3 C0.34 2.34 -0.32 1.68 -1 1 C-0.67 0.67 -0.34 0.34 0 0 Z " fill="#ECEAEB" transform="translate(90,49)"/>
<path d="M0 0 C1.98 0.99 3.96 1.98 6 3 C5.34 3.33 5.34 3.33 2 5 C1.34 4.34 0.68 3.68 0 3 C0 2.01 0 1.02 0 0 Z " fill="#E9E9E9" transform="translate(75,17)"/>
<path d="M0 0 C1.32 0 2.64 0 4 0 C4.33 0.99 4.66 1.98 5 3 C4.67 3.17 4.67 3.17 3 4 C2.01 3.34 1.02 2.68 0 2 C0 1.34 0 0.68 0 0 Z " fill="#F4F6F4" transform="translate(91,92)"/>
<path d="M0 0 C1.32 0 2.64 0 4 0 C4 0.66 4 1.32 4 2 C1.5 3.62 1.5 3.62 -1 5 C-0.67 3.35 -0.34 1.7 0 0 Z " fill="#E3EAE6" transform="translate(85,88)"/>
<path d="M0 0 C0.33 1.32 0.66 2.64 1 4 C1.66 4 2.32 4 3 4 C3.33 4.99 3.66 5.98 4 7 C2.68 6.67 1.36 6.34 0 6 C0 4.02 0 2.04 0 0 Z " fill="#BCE7D4" transform="translate(69,82)"/>
<path d="M0 0 C0.66 0 1.32 0 2 0 C2.33 1.65 2.66 3.3 3 5 C2.01 5 1.02 5 0 5 C0 3.35 0 1.7 0 0 Z " fill="#303833" transform="translate(96,57)"/>
<path d="M0 0 C1.88 0.31 1.88 0.31 4 1 C4.66 1.99 5.32 2.98 6 4 C3.83 3.49 2 3 0 2 C0 1.34 0 0.68 0 0 Z " fill="#F2F0F1" transform="translate(81,16)"/>
<path d="M0 0 C0.66 0.33 1.32 0.66 2 1 C1.34 2.32 0.68 3.64 0 5 C-0.66 4.67 -1.32 4.34 -2 4 C-2 3.01 -2 2.02 -2 1 C-1.34 0.67 -0.68 0.34 0 0 Z " fill="#F0EEEF" transform="translate(43,16)"/>
<path d="M0 0 C0.99 0.33 1.98 0.66 3 1 C3.33 1.99 3.66 2.98 4 4 C3.01 4.33 2.02 4.66 1 5 C0.67 3.35 0.34 1.7 0 0 Z " fill="#363935" transform="translate(45,91)"/>
<path d="M0 0 C1.32 1.32 2.64 2.64 4 4 C2.68 4.33 1.36 4.66 0 5 C0 3.35 0 1.7 0 0 Z " fill="#C4E5D3" transform="translate(32,87)"/>
<path d="M0 0 C1.32 0 2.64 0 4 0 C4 0.99 4 1.98 4 3 C2.68 3 1.36 3 0 3 C0 2.01 0 1.02 0 0 Z " fill="#F7FCF7" transform="translate(38,86)"/>
<path d="M0 0 C0.99 0 1.98 0 3 0 C3 1.32 3 2.64 3 4 C2.01 4 1.02 4 0 4 C0 2.68 0 1.36 0 0 Z " fill="#F7FDF8" transform="translate(101,79)"/>
<path d="M0 0 C0.66 0 1.32 0 2 0 C1.67 1.65 1.34 3.3 1 5 C0.34 5 -0.32 5 -1 5 C-0.67 3.35 -0.34 1.7 0 0 Z " fill="#2F302E" transform="translate(20,63)"/>
<path d="M0 0 C0.99 0.33 1.98 0.66 3 1 C3 1.99 3 2.98 3 4 C1.68 3.67 0.36 3.34 -1 3 C-0.67 2.01 -0.34 1.02 0 0 Z " fill="#F5F4F2" transform="translate(98,51)"/>
<path d="M0 0 C0.66 0 1.32 0 2 0 C1.34 1.98 0.68 3.96 0 6 C-0.66 5.01 -1.32 4.02 -2 3 C-1.34 2.01 -0.68 1.02 0 0 Z " fill="#FEFEFE" transform="translate(36,39)"/>
<path d="M0 0 C1.5 1.38 1.5 1.38 3 3 C3 3.66 3 4.32 3 5 C2.01 4.67 1.02 4.34 0 4 C-0.33 3.01 -0.66 2.02 -1 1 C-0.67 0.67 -0.34 0.34 0 0 Z " fill="#22231F" transform="translate(59,105)"/>
<path d="M0 0 C0.33 0.66 0.66 1.32 1 2 C1.66 2.33 2.32 2.66 3 3 C1.35 3.33 -0.3 3.66 -2 4 C-1.34 2.68 -0.68 1.36 0 0 Z " fill="#DFDEDC" transform="translate(77,100)"/>
<path d="M0 0 C2 1.38 2 1.38 4 3 C4 3.66 4 4.32 4 5 C2.68 4.34 1.36 3.68 0 3 C0 2.01 0 1.02 0 0 Z " fill="#E8E7E5" transform="translate(48,99)"/>
<path d="M0 0 C1.32 0.33 2.64 0.66 4 1 C3.01 1.99 2.02 2.98 1 4 C0.67 2.68 0.34 1.36 0 0 Z " fill="#EEF3EF" transform="translate(34,92)"/>
<path d="M0 0 C1.06 1.81 1.06 1.81 2 4 C1.67 4.99 1.34 5.98 1 7 C-0.06 5.19 -0.06 5.19 -1 3 C-0.67 2.01 -0.34 1.02 0 0 Z " fill="#A0BEB1" transform="translate(28,74)"/>
<path d="M0 0 C0.99 0.33 1.98 0.66 3 1 C2.67 1.99 2.34 2.98 2 4 C0.68 3.01 -0.64 2.02 -2 1 C-1.34 0.67 -0.68 0.34 0 0 Z " fill="#335746" transform="translate(56,103)"/>
<path d="M0 0 C1.32 0.33 2.64 0.66 4 1 C4 1.66 4 2.32 4 3 C2.68 2.67 1.36 2.34 0 2 C0 1.34 0 0.68 0 0 Z " fill="#36473D" transform="translate(37,91)"/>
<path d="M0 0 C2 3 2 3 2 5 C0.68 4.34 -0.64 3.68 -2 3 C-1.34 2.01 -0.68 1.02 0 0 Z " fill="#BDD8CC" transform="translate(93,87)"/>
<path d="M0 0 C0.66 0 1.32 0 2 0 C2 1.32 2 2.64 2 4 C1.01 3.67 0.02 3.34 -1 3 C-0.67 2.01 -0.34 1.02 0 0 Z " fill="#E8EAE7" transform="translate(95,84)"/>
<path d="M0 0 C0.66 0 1.32 0 2 0 C1.34 1.65 0.68 3.3 0 5 C-0.56 3.06 -0.56 3.06 -1 1 C-0.67 0.67 -0.34 0.34 0 0 Z " fill="#1E1C1D" transform="translate(23,55)"/>
<path d="M0 0 C0.66 0.33 1.32 0.66 2 1 C1.01 1.99 0.02 2.98 -1 4 C-1.66 3.34 -2.32 2.68 -3 2 C-2.01 1.34 -1.02 0.68 0 0 Z " fill="#EFEFED" transform="translate(24,47)"/>
<path d="M0 0 C0.5 0.33 0.5 0.33 3 2 C2.5 2.33 2.5 2.33 0 4 C0 2.68 0 1.36 0 0 Z " fill="#426353" transform="translate(70,103)"/>
<path d="M0 0 C0.33 0.99 0.66 1.98 1 3 C0.5 3.33 0.5 3.33 -2 5 C-1.12 1.12 -1.12 1.12 0 0 Z " fill="#1B1C1A" transform="translate(95,81)"/>
<path d="M0 0 C0.99 0.33 1.98 0.66 3 1 C2.67 1.66 2.34 2.32 2 3 C1.01 3 0.02 3 -1 3 C-0.67 2.01 -0.34 1.02 0 0 Z " fill="#F8F8F8" transform="translate(106,68)"/>
<path d="M0 0 C1.32 0.33 2.64 0.66 4 1 C3.67 1.5 3.67 1.5 2 4 C1.34 2.68 0.68 1.36 0 0 Z " fill="#A9C8B8" transform="translate(59,104)"/>
<path d="M0 0 C0.99 1.32 1.98 2.64 3 4 C2.01 4 1.02 4 0 4 C0 2.68 0 1.36 0 0 Z " fill="#E3E4E3" transform="translate(45,94)"/>
<path d="M0 0 C1.32 0 2.64 0 4 0 C3.67 0.99 3.34 1.98 3 3 C2.01 2.01 1.02 1.02 0 0 Z " fill="#C4E3D1" transform="translate(38,89)"/>
<path d="M0 0 C0.66 1.32 1.32 2.64 2 4 C1.34 4.66 0.68 5.32 0 6 C-1 3 -1 3 0 0 Z " fill="#DFDDDE" transform="translate(30,42)"/>
<path d="M0 0 C0.66 0 1.32 0 2 0 C1.67 0.99 1.34 1.98 1 3 C0.01 2.67 -0.98 2.34 -2 2 C-1.34 1.34 -0.68 0.68 0 0 Z " fill="#242223" transform="translate(42,21)"/>
<path d="M0 0 C0.66 0 1.32 0 2 0 C1.67 0.99 1.34 1.98 1 3 C0.01 2.67 -0.98 2.34 -2 2 C-1.34 1.34 -0.68 0.68 0 0 Z " fill="#E9E9E9" transform="translate(53,16)"/>
<path d="M0 0 C0.99 0 1.98 0 3 0 C2.67 0.99 2.34 1.98 2 3 C1.34 2.67 0.68 2.34 0 2 C0 1.34 0 0.68 0 0 Z " fill="#EEE7E8" transform="translate(49,94)"/>
<path d="M0 0 C0.99 0.33 1.98 0.66 3 1 C2.67 1.5 2.67 1.5 1 4 C0.67 2.68 0.34 1.36 0 0 Z " fill="#2E2C2D" transform="translate(87,25)"/>
</svg>
