<?xml version="1.0" encoding="UTF-8"?>
<svg xmlns="http://www.w3.org/2000/svg" viewBox="0 0 2430 1409" width="2430" height="1409" shape-rendering="geometricPrecision">
<path d="M61 1392.06C43.78 1386.81 30.72 1370.25 23.79 1344.87C21.7 1337.25 21.5 1334.4 21.51 1313L21.52 1289.5L24.63 1280.33C28.86 1267.84 34.2 1258.66 41.43 1251.42C56.36 1236.47 80.11 1231.95 98.79 1240.5C107.31 1244.41 117.18 1254.98 122.1 1265.48C124.32 1270.22 126.39 1275.61 126.69 1277.46C127.18 1280.49 126.9 1281 123.92 1282.54C119.61 1284.77 111.08 1285.05 109.92 1283C109.46 1282.17 107.42 1277.99 105.39 1273.7C101.23 1264.91 95.5 1259.07 89.19 1257.18C87.03 1256.53 81.27 1256 76.38 1256.01C65.39 1256.02 59.66 1258.39 52.84 1265.71C43.97 1275.25 40.27 1286.68 39.34 1307.5C37.8 1341.81 46.25 1364.43 63.5 1372.14C70.13 1375.1 83.71 1375.32 89 1372.54C98.79 1367.41 107.61 1355.39 110.75 1342.93C112.17 1337.29 112.45 1336.9 114.68 1337.46C120.3 1338.87 128.18 1342.3 128.66 1343.54C129.45 1345.62 126.28 1355.62 122 1364.54C118.86 1371.1 116.58 1374.08 109.73 1380.66C98.3 1391.64 94.55 1393.03 76.71 1392.91C69.45 1392.87 62.38 1392.48 61 1392.06ZM151 1391.1L146.5 1390.5L146.5 1314.5L146.5 1238.5L154 1238.5L161.5 1238.5L161.76 1314.27L162.01 1390.04L159.44 1391.02C158.03 1391.56 156.56 1391.93 156.18 1391.85C155.81 1391.77 153.47 1391.43 151 1391.1ZM184.2 1318.8C183.54 1318.14 183 1316.44 183 1315.01C183 1312 187.15 1309.06 209.5 1296.29C237.21 1280.45 228.25 1285.37 421.5 1180.04C491.35 1141.97 550.17 1109.74 552.22 1108.41L555.94 1106.01L556.22 869.16C556.45 674.33 556.74 632.02 557.82 630.71C558.55 629.83 567.1 624.74 576.82 619.39C662.68 572.14 859.44 464.82 910.04 437.64C922.98 430.69 934.64 425 935.93 425C939.04 425 957.38 434.84 1114 520.5C1137.38 533.29 1168.65 550.39 1183.5 558.51C1198.35 566.64 1224.9 581.16 1242.5 590.79C1286.29 614.74 1308.88 626.26 1310.98 625.71C1311.95 625.46 1342.84 608.83 1379.62 588.77C1416.41 568.7 1462.03 543.83 1481 533.5C1499.97 523.18 1525.62 509.22 1538 502.48C1585.71 476.52 1635.28 449.89 1653.28 440.54C1673.51 430.05 1676.3 429.37 1677.64 434.68C1678.94 439.88 1690.85 433.12 1422.26 579.67L1315.02 638.18L1314.76 875.55C1314.53 1085 1314.32 1113.1 1313 1114.4C1311.01 1116.35 1309.3 1117.29 1221.5 1165.26C1179.7 1188.09 1135.15 1212.5 1122.5 1219.5C1029.56 1270.93 944.77 1316.66 938 1319.01C934.56 1320.2 934.07 1319.99 910 1306.98C878.91 1290.18 800.48 1247.51 779.5 1235.99C754.19 1222.09 609.86 1143.55 584.8 1130.04L562.11 1117.81L552.3 1123.06C534.5 1132.61 458.48 1173.95 318.29 1250.34C209.58 1309.57 190.03 1320 187.65 1320C186.41 1320 184.86 1319.46 184.2 1318.8ZM1022.68 1260.11C1069.88 1234.33 1124.7 1204.26 1144.5 1193.29C1164.3 1182.32 1207.28 1158.8 1240 1141.02C1272.72 1123.24 1300.29 1108.01 1301.25 1107.19C1302.91 1105.76 1302.99 1093.59 1302.75 871.62L1302.5 637.55L1288.5 629.93C1223.7 594.64 1134.16 545.77 1114.5 534.97C1027.18 486.96 936.99 438 935.87 438C935.15 438 852.3 482.86 751.78 537.69L569 637.38L569.25 872.38L569.5 1107.39L595 1121.26C609.02 1128.9 633.1 1142.03 648.5 1150.45C663.9 1158.87 703.95 1180.72 737.5 1199.01C791.6 1228.5 848.74 1259.68 886 1280.02C892.88 1283.77 906.6 1291.33 916.5 1296.82C926.4 1302.3 935.03 1306.84 935.68 1306.89C936.33 1306.95 975.48 1285.9 1022.68 1260.11ZM2214.69 741.99C2200.37 739.48 2187.44 732.11 2178.63 721.44C2173 714.61 2166.2 701.76 2163.58 693C2161.42 685.74 2159.64 663.67 2160.37 652.99C2162.69 618.74 2182.59 590.69 2207.89 586C2215.06 584.67 2229.62 584.73 2236.2 586.12C2254.14 589.9 2270.3 604.84 2278.27 625C2283.64 638.57 2284.41 643.27 2284.46 662.5C2284.5 682.15 2283.39 688.89 2277.9 702.24C2270.41 720.44 2254.13 735.6 2237 740.34C2229.72 742.36 2220.63 743.03 2214.69 741.99ZM2307 663.5L2307 586.92L2315.75 587.21L2324.5 587.5L2324.76 617.76L2325.03 648.03L2357.76 647.76L2390.5 647.5L2391 617.5L2391.5 587.5L2394.5 587.16C2396.14 586.97 2400.31 587.12 2403.75 587.49L2410 588.16L2410 662.96C2410 725.98 2409.78 737.94 2408.59 738.92C2407.71 739.65 2404.27 739.98 2399.34 739.79L2391.5 739.5L2391.24 704.25L2390.97 669L2358 669L2325.03 669L2324.76 704.25L2324.5 739.5L2315.75 739.79L2307 740.08L2307 663.5ZM2232.89 721.43C2239.65 719.27 2245.03 715.72 2250.81 709.6C2257.38 702.66 2261.56 693.88 2264.05 681.81C2270.59 650.15 2259.64 617.34 2239.2 607.3C2233.96 604.73 2232.57 604.5 2222 604.5C2211.36 604.5 2210.09 604.71 2205 607.31C2198.54 610.62 2190.88 617.75 2187.31 623.79C2182.2 632.41 2180.82 639.14 2180.27 658C2179.64 679.55 2180.75 687.89 2185.57 697.75C2195.62 718.33 2213.92 727.49 2232.89 721.43ZM2124.5 636.63C2094.64 619.16 1872.21 485.36 1823.29 455.43C1814.37 449.98 1806.55 444.52 1805.9 443.3C1804.93 441.51 1805.02 440.61 1806.38 438.55C1809.44 433.87 1808.61 433.49 1856.5 461.98C1947.01 515.82 2102.88 609.21 2130.77 626.31C2148.64 637.26 2150.2 639.03 2145.95 643.56C2144.68 644.9 2142.94 646 2142.08 645.99C2141.21 645.99 2133.3 641.78 2124.5 636.63ZM1728.5 489.64C1721.15 486.19 1713.85 479.99 1709.58 473.55C1692.06 447.17 1689.43 393.89 1704.14 363.45C1708.39 354.66 1719.16 343.46 1727.03 339.65C1738.71 334.01 1755 333.93 1765.93 339.46C1776.21 344.67 1785.15 356.52 1789.99 371.36C1792.18 378.04 1792.19 378.25 1790.37 380C1788.24 382.04 1777.85 385.28 1776.88 384.21C1776.53 383.82 1775.68 381.7 1774.98 379.5C1771.65 368.89 1765.5 360.35 1758.59 356.74C1755.44 355.1 1752.66 354.59 1746.5 354.55C1732.61 354.46 1724.66 359.94 1718.02 374.15C1713.24 384.41 1711.87 393.16 1711.86 413.5C1711.85 434.31 1713.21 442.71 1718.35 453.52C1724.93 467.37 1733.66 473.55 1746.5 473.44C1754.62 473.38 1756.52 472.52 1763.83 465.6C1769.95 459.82 1772.83 454.71 1776.04 443.97C1777.28 439.86 1778.42 436.34 1778.58 436.15C1779.19 435.41 1791.91 440.18 1793.08 441.59C1794.06 442.77 1793.96 444.32 1792.6 449.22C1787.54 467.43 1776.71 482.43 1763.59 489.4C1759.07 491.81 1757.76 492 1746.1 491.99C1734.99 491.98 1732.91 491.7 1728.5 489.64ZM1757.94 327.66C1755.66 326.52 1755.45 325.74 1754.73 315.47C1754.3 309.44 1754.08 281.28 1754.23 252.9C1754.45 210.94 1754.76 201 1755.87 199.65C1757.96 197.13 1763.64 197.5 1765.21 200.25C1767.08 203.52 1767.09 321.46 1765.23 324.73C1763.32 328.07 1760.8 329.08 1757.94 327.66ZM1722.04 326.07C1720.66 323.5 1720.61 204.17 1721.98 200.57C1722.7 198.66 1723.66 198 1725.73 198.02C1727.25 198.02 1729.13 198.43 1729.89 198.91C1732.39 200.49 1732.95 215.26 1732.63 270.25C1732.33 320.43 1732.18 324.14 1730.5 326C1728.16 328.59 1723.41 328.63 1722.04 326.07ZM1730.28 183.46C1713.61 178.97 1699.43 167 1691.62 150.83C1683.58 134.19 1680.15 114.71 1682.01 96.38C1685.47 62.37 1699.52 39.47 1722.22 30.82C1734.48 26.15 1755.43 26.67 1766.67 31.93C1793.27 44.38 1807.3 72.73 1805.7 110.76C1804.84 131.12 1800.41 146.07 1791.56 158.46C1782.93 170.56 1769.62 180.04 1756.45 183.47C1749.24 185.35 1737.27 185.34 1730.28 183.46ZM1759 162.68C1761.47 161.55 1766.68 157.43 1770.57 153.51C1776.2 147.86 1778.28 144.87 1780.75 138.95C1789.57 117.73 1788.72 87.41 1778.77 68.72C1774.85 61.35 1766.65 52.98 1760.36 49.93C1751.16 45.48 1734.4 45.71 1725.22 50.42C1720.11 53.04 1712.55 60.4 1709.22 66.01C1708.07 67.95 1705.88 73.57 1704.36 78.51C1701.78 86.9 1701.6 88.71 1701.57 105.5C1701.55 125.4 1702.59 131.25 1708.16 142.64C1711.71 149.88 1720.18 158.72 1726.79 162.07C1734.93 166.2 1750.6 166.49 1759 162.68Z" fill="#1e2749" fill-rule="evenodd"/>
</svg>
