<?xml version="1.0" encoding="UTF-8"?>
<!-- Generator: visioncortex VTracer 0.6.12 -->
<svg version="1.1" xmlns="http://www.w3.org/2000/svg" width="500" height="111">
<path d="M0 0 C165 0 330 0 500 0 C500 36.63 500 73.26 500 111 C335 111 170 111 0 111 C0 74.37 0 37.74 0 0 Z " fill="#FCFCFC" transform="translate(0,0)"/>
<path d="M0 0 C85.47 0 170.94 0 259 0 C259 15.18 259 30.36 259 46 C260.98 46 262.96 46 265 46 C266 47 266 47 266.11 50.51 C266.11 52.07 266.11 53.63 266.1 55.19 C266.1 55.6 266.1 55.6 266.09 57.68 C266.09 60.3 266.08 62.93 266.06 65.56 C266.06 67.34 266.05 69.12 266.05 70.9 C266.04 75.26 266.02 79.63 266 84 C264.77 84.01 263.55 84.03 262.28 84.04 C257.74 84.1 253.19 84.18 248.65 84.26 C246.68 84.3 244.71 84.32 242.74 84.35 C239.92 84.38 237.09 84.43 234.26 84.49 C233.38 84.49 232.5 84.5 231.59 84.51 C230.77 84.53 229.95 84.55 229.1 84.57 C228.38 84.58 227.66 84.59 226.92 84.6 C224.48 85.11 223.7 86.25 222 88 C218.81 88.19 218.81 88.19 216 88 C216 87.01 216 86.02 216 85 C215.47 85.22 214.94 85.43 214.39 85.66 C214.04 85.8 214.04 85.8 212.25 86.5 C211.9 86.64 211.9 86.64 210.14 87.34 C208 88 208 88 204 88 C203.67 90.64 203.34 93.28 203 96 C202.01 96 201.02 96 200 96 C200 93.36 200 90.72 200 88 C195.38 88 190.76 88 186 88 C186.33 86.68 186.66 85.36 187 84 C172.15 84 157.3 84 142 84 C141.01 86.97 140.02 89.94 139 93 C136.37 99.63 136.37 99.63 134 102 C132.68 102 131.36 102 130 102 C130 101.01 130 100.02 130 99 C131.32 99 132.64 99 134 99 C134.19 98.41 134.39 97.82 134.59 97.21 C135.94 93.09 137.32 89 139 85 C137.35 84.67 135.7 84.34 134 84 C134 87.63 134 91.26 134 95 C133.34 95 132.68 95 132 95 C131.67 91.7 131.34 88.4 131 85 C129.76 85.5 128.52 85.99 127.25 86.5 C124.1 87.76 122.55 88 119 88 C118.67 90.64 118.34 93.28 118 96 C117.01 96 116.02 96 115 96 C115.79 89.21 117.41 82.64 119 76 C118.34 75.67 117.68 75.34 117 75 C118.32 74.67 119.64 74.34 121 74 C121.08 78.16 120.98 81.95 120 86 C121.89 85.79 121.89 85.79 124 85 C125.05 82.93 125.05 82.93 125.75 80.44 C125.99 79.61 126.23 78.78 126.48 77.93 C126.65 77.3 126.82 76.66 127 76 C126.01 76 125.02 76 124 76 C124 68.41 124 60.82 124 53 C83.08 53 42.16 53 0 53 C0 35.51 0 18.02 0 0 Z " fill="#F9FBFA" transform="translate(233,8)"/>
<path d="M0 0 C27.72 0 55.44 0 84 0 C84 15.84 84 31.68 84 48 C56.28 48 28.56 48 0 48 C0 32.16 0 16.32 0 0 Z " fill="#FBFDFD" transform="translate(406,10)"/>
<path d="M0 0 C25.41 0 50.82 0 77 0 C77 17.16 77 34.32 77 52 C51.59 52 26.18 52 0 52 C0 34.84 0 17.68 0 0 Z " fill="#FBFBFB" transform="translate(121,8)"/>
<path d="M0 0 C25.41 0 50.82 0 77 0 C77 17.16 77 34.32 77 52 C51.59 52 26.18 52 0 52 C0 34.84 0 17.68 0 0 Z " fill="#FBFCFB" transform="translate(9,8)"/>
<path d="M0 0 C27.39 0 54.78 0 83 0 C83 15.84 83 31.68 83 48 C55.61 48 28.22 48 0 48 C0 32.16 0 16.32 0 0 Z " fill="#FDFEFD" transform="translate(321,10)"/>
<path d="M0 0 C27.39 0 54.78 0 83 0 C83 15.84 83 31.68 83 48 C55.61 48 28.22 48 0 48 C0 32.16 0 16.32 0 0 Z " fill="#FCFCFC" transform="translate(235,10)"/>
<path d="M0 0 C0.33 0 0.66 0 1 0 C1 18.48 1 36.96 1 56 C-43.22 56 -87.44 56 -133 56 C-131.68 53.69 -130.36 51.38 -129 49 C-128.23 47.25 -127.49 45.48 -126.81 43.69 C-125.05 39.09 -125.05 39.09 -124 37 C-109.15 37 -94.3 37 -79 37 C-79.33 38.32 -79.66 39.64 -80 41 C-75.38 41 -70.76 41 -66 41 C-65.67 40.01 -65.34 39.02 -65 38 C-65.33 41.63 -65.66 45.26 -66 49 C-65.01 49 -64.02 49 -63 49 C-63.02 48.05 -63.04 47.1 -63.06 46.12 C-63 43 -63 43 -62 41 C-60.04 40.15 -60.04 40.15 -57.62 39.38 C-56.83 39.11 -56.04 38.85 -55.23 38.59 C-53 38 -53 38 -50 38 C-49.67 38.66 -49.34 39.32 -49 40 C-47 40.04 -45 40.04 -43 40 C-42.67 39.67 -42.34 39.34 -42 39 C-43.65 38.67 -45.3 38.34 -47 38 C-47 37.67 -47 37.34 -47 37 C-31.49 37 -15.98 37 0 37 C0 24.79 0 12.58 0 0 Z " fill="#FCFDFD" transform="translate(499,55)"/>
<path d="M0 0 C1.32 0 2.64 0 4 0 C4.66 1.32 5.32 2.64 6 4 C6.33 2.68 6.66 1.36 7 0 C8.32 0 9.64 0 11 0 C11.33 0.99 11.66 1.98 12 3 C12.33 2.01 12.66 1.02 13 0 C15.64 0 18.28 0 21 0 C21 1.98 21 3.96 21 6 C21.33 4.02 21.66 2.04 22 0 C28.93 0 35.86 0 43 0 C43 0.66 43 1.32 43 2 C43.99 1.34 44.98 0.68 46 0 C48.33 -0.08 50.67 -0.09 53 0 C53 0.99 53 1.98 53 3 C51.02 3.33 49.04 3.66 47 4 C46.67 5.98 46.34 7.96 46 10 C48.31 10.33 50.62 10.66 53 11 C53.16 11.5 53.16 11.5 54 14 C54.1 12.8 54.21 11.61 54.31 10.38 C54.79 6.44 56.01 3.46 58 0 C59.32 0 60.64 0 62 0 C62.43 1.09 62.87 2.19 63.31 3.31 C64.27 5.6 64.85 6.86 66.69 8.56 C68 10 68 10 68.56 12.69 C67.75 17.46 65.09 20.38 62 24 C63.98 24.33 65.96 24.66 68 25 C68 24.01 68 23.02 68 22 C68.66 22 69.32 22 70 22 C70 24.31 70 26.62 70 29 C65.38 29 60.76 29 56 29 C56.33 27.68 56.66 26.36 57 25 C42.15 25 27.3 25 12 25 C11.01 27.97 10.02 30.94 9 34 C6.37 40.63 6.37 40.63 4 43 C2.68 43 1.36 43 0 43 C0 42.01 0 41.02 0 40 C1.32 40 2.64 40 4 40 C4.19 39.41 4.39 38.82 4.59 38.21 C5.94 34.09 7.32 30 9 26 C7.35 25.67 5.7 25.34 4 25 C4 28.63 4 32.26 4 36 C3.34 36 2.68 36 2 36 C1.83 34.35 1.83 34.35 1 26 C-0.24 26.5 -1.48 26.99 -2.75 27.5 C-5.9 28.76 -7.45 29 -11 29 C-11.33 31.64 -11.66 34.28 -12 37 C-12.99 37 -13.98 37 -15 37 C-14.21 30.21 -12.59 23.64 -11 17 C-11.66 16.67 -12.32 16.34 -13 16 C-11.68 15.67 -10.36 15.34 -9 15 C-8.92 19.16 -9.02 22.95 -10 27 C-8.11 26.79 -8.11 26.79 -6 26 C-4.95 23.93 -4.95 23.93 -4.25 21.44 C-4.13 21.02 -4.13 21.02 -3.52 18.93 C-3.35 18.3 -3.18 17.66 -3 17 C-3.99 16.67 -4.98 16.34 -6 16 C-4.02 15.34 -2.04 14.68 0 14 C0 9.38 0 4.76 0 0 Z " fill="#F9FCFA" transform="translate(363,67)"/>
<path d="M0 0 C85.14 0 170.28 0 258 0 C258 17.16 258 34.32 258 52 C172.86 52 87.72 52 0 52 C0 34.84 0 17.68 0 0 Z M2 2 C2 17.84 2 33.68 2 50 C29.39 50 56.78 50 85 50 C85 34.16 85 18.32 85 2 C57.61 2 30.22 2 2 2 Z M88 2 C88 17.84 88 33.68 88 50 C115.39 50 142.78 50 171 50 C171 34.16 171 18.32 171 2 C143.61 2 116.22 2 88 2 Z M173 2 C173 17.84 173 33.68 173 50 C200.72 50 228.44 50 257 50 C257 34.16 257 18.32 257 2 C229.28 2 201.56 2 173 2 Z " fill="#494949" transform="translate(233,8)"/>
<path d="M0 0 C25.41 0 50.82 0 77 0 C77 17.16 77 34.32 77 52 C51.59 52 26.18 52 0 52 C0 34.84 0 17.68 0 0 Z M2 2 C2 17.84 2 33.68 2 50 C26.09 50 50.18 50 75 50 C75 34.16 75 18.32 75 2 C50.91 2 26.82 2 2 2 Z " fill="#464646" transform="translate(121,8)"/>
<path d="M0 0 C25.41 0 50.82 0 77 0 C77 17.16 77 34.32 77 52 C51.59 52 26.18 52 0 52 C0 34.84 0 17.68 0 0 Z M2 2 C2 17.84 2 33.68 2 50 C26.09 50 50.18 50 75 50 C75 34.16 75 18.32 75 2 C50.91 2 26.82 2 2 2 Z " fill="#4A4A4A" transform="translate(9,8)"/>
<path d="M0 0 C0.33 0 0.66 0 1 0 C1 15.18 1 30.36 1 46 C2.98 46 4.96 46 7 46 C8 47 8 47 8.11 50.51 C8.11 52.07 8.11 53.63 8.1 55.19 C8.1 56.01 8.09 56.83 8.09 57.68 C8.09 60.3 8.08 62.93 8.06 65.56 C8.06 67.34 8.05 69.12 8.05 70.9 C8.04 75.26 8.02 79.63 8 84 C7.39 84.01 7.39 84.01 4.28 84.04 C-0.26 84.1 -4.81 84.18 -9.35 84.26 C-11.32 84.3 -13.29 84.32 -15.26 84.35 C-18.08 84.38 -20.91 84.43 -23.74 84.49 C-24.62 84.49 -25.5 84.5 -26.41 84.51 C-27.23 84.53 -28.05 84.55 -28.9 84.57 C-29.62 84.58 -30.34 84.59 -31.08 84.6 C-33.52 85.11 -34.3 86.25 -36 88 C-39.19 88.19 -39.19 88.19 -42 88 C-42 87.01 -42 86.02 -42 85 C-42.53 85.22 -43.06 85.43 -43.61 85.66 C-44.32 85.93 -45.02 86.21 -45.75 86.5 C-46.45 86.78 -47.14 87.06 -47.86 87.34 C-50 88 -50 88 -54 88 C-54.33 90.64 -54.66 93.28 -55 96 C-55.66 96 -56.32 96 -57 96 C-56.38 89.66 -55.71 83.33 -55 77 C-55.66 76.67 -56.32 76.34 -57 76 C-54 74 -54 74 -51 74 C-51 74.66 -51 75.32 -51 76 C-50.5 75.67 -50.5 75.67 -48 74 C-45.31 73.88 -45.31 73.88 -43 74 C-43 76.64 -43 79.28 -43 82 C-26.83 82 -10.66 82 6 82 C6 70.78 6 59.56 6 48 C4.35 48 2.7 48 1 48 C0.67 49.32 0.34 50.64 0 52 C0 34.84 0 17.68 0 0 Z " fill="#C8DDD3" transform="translate(491,8)"/>
<path d="M0 0 C3.12 0.25 3.12 0.25 5 1.38 C6.76 4.31 6.7 5.86 6.12 9.25 C4.35 12.11 2.31 14.69 0.12 17.25 C2.11 17.58 4.08 17.91 6.12 18.25 C6.12 17.26 6.12 16.27 6.12 15.25 C6.78 15.25 7.44 15.25 8.12 15.25 C8.12 17.56 8.12 19.87 8.12 22.25 C3.5 22.25 -1.12 22.25 -5.88 22.25 C-5.55 20.93 -5.22 19.61 -4.88 18.25 C-19.73 18.25 -34.57 18.25 -49.88 18.25 C-50.87 21.22 -51.86 24.19 -52.88 27.25 C-55.51 33.88 -55.51 33.88 -57.88 36.25 C-59.19 36.25 -60.51 36.25 -61.88 36.25 C-61.88 35.26 -61.88 34.27 -61.88 33.25 C-60.56 33.25 -59.24 33.25 -57.88 33.25 C-57.68 32.66 -57.49 32.07 -57.29 31.46 C-55.93 27.34 -54.55 23.25 -52.88 19.25 C-54.52 18.92 -56.18 18.59 -57.88 18.25 C-57.88 21.88 -57.88 25.51 -57.88 29.25 C-58.54 29.25 -59.19 29.25 -59.88 29.25 C-60.04 27.6 -60.04 27.6 -60.88 19.25 C-62.11 19.75 -63.35 20.24 -64.62 20.75 C-67.77 22.01 -69.32 22.25 -72.88 22.25 C-73.2 24.89 -73.54 27.53 -73.88 30.25 C-74.87 30.25 -75.86 30.25 -76.88 30.25 C-76.09 23.46 -74.46 16.89 -72.88 10.25 C-73.54 9.92 -74.19 9.59 -74.88 9.25 C-73.56 8.92 -72.24 8.59 -70.88 8.25 C-70.79 12.41 -70.89 16.2 -71.88 20.25 C-69.98 20.04 -69.98 20.04 -67.88 19.25 C-66.83 17.18 -66.83 17.18 -66.12 14.69 C-65.88 13.86 -65.64 13.03 -65.39 12.18 C-65.22 11.55 -65.05 10.91 -64.88 10.25 C-65.87 9.92 -66.86 9.59 -67.88 9.25 C-66.23 8.92 -64.57 8.59 -62.88 8.25 C-62.88 11.22 -62.88 14.19 -62.88 17.25 C-55.16 17.28 -47.44 17.28 -39.72 17.22 C-36.13 17.2 -32.55 17.19 -28.96 17.21 C-25.5 17.22 -22.04 17.21 -18.58 17.17 C-16.62 17.15 -14.66 17.17 -12.7 17.2 C-4.04 17.05 -4.04 17.05 -0.69 14.73 C1.94 11.83 3.17 10.3 3 6.31 C2.71 5.63 2.42 4.95 2.12 4.25 C-0.25 4.12 -0.25 4.12 -2.88 4.25 C-3.53 4.91 -4.19 5.57 -4.88 6.25 C-3.81 0.33 -3.81 0.33 0 0 Z " fill="#BFE7D5" transform="translate(424.875,73.75)"/>
<path d="M0 0 C3.12 0.19 3.12 0.19 6.12 2.19 C6.83 4.85 6.9 7.43 7.12 10.19 C7.89 9.86 8.65 9.53 9.44 9.19 C12.12 8.19 12.12 8.19 15.12 8.19 C15.45 8.85 15.79 9.51 16.12 10.19 C16.79 9.53 17.44 8.87 18.12 8.19 C20.75 8.06 20.75 8.06 23.12 8.19 C23.63 13.48 22.41 16.05 19.12 20.19 C16.12 22.19 16.12 22.19 12.12 22.19 C12.12 24.5 12.12 26.81 12.12 29.19 C10.81 29.52 9.49 29.85 8.12 30.19 C8.2 29.69 8.2 29.69 8.56 27.19 C9.13 23.19 9.63 19.19 10.12 15.19 C9.46 15.19 8.81 15.19 8.12 15.19 C8.12 17.5 8.12 19.81 8.12 22.19 C3.5 22.19 -1.12 22.19 -5.88 22.19 C-3.86 17.14 -1.96 14.95 1.76 11.25 C3.12 9.19 3.12 9.19 2.83 6.44 C2.6 5.69 2.37 4.95 2.12 4.19 C-0.25 4.06 -0.25 4.06 -2.88 4.19 C-3.53 4.85 -4.19 5.51 -4.88 6.19 C-3.81 0.25 -3.81 0.25 0 0 Z " fill="#8A888A" transform="translate(253.875,73.8125)"/>
<path d="M0 0 C2.64 0 5.28 0 8 0 C8 0.66 8 1.32 8 2 C6.35 2 4.7 2 3 2 C3 3.32 3 4.64 3 6 C4.65 6 6.3 6 8 6 C8 6.66 8 7.32 8 8 C6.35 8 4.7 8 3 8 C3 8.99 3 9.98 3 11 C4.98 11 6.96 11 9 11 C9 11.99 9 12.98 9 14 C7.35 14.5 7.35 14.5 -1 17 C-1 16.34 -1 15.68 -1 15 C-2.65 15.66 -4.3 16.32 -6 17 C-5.67 17.33 -5.34 17.66 -5 18 C-4.68 24.64 -5.49 30.54 -7 37 C-7.33 37 -7.66 37 -8 37 C-8 32.05 -8 27.1 -8 22 C-8.66 22 -9.32 22 -10 22 C-10 22.99 -10 23.98 -10 25 C-12.31 25 -14.62 25 -17 25 C-15 22 -13 19 -11 16 C-10.67 10.65 -10.67 10.65 -12 8 C-11.34 8 -10.68 8 -10 8 C-10 5.69 -10 3.38 -10 1 C-9.34 1 -8.68 1 -8 1 C-8 2.65 -8 4.3 -8 6 C-6.68 6 -5.36 6 -4 6 C-4 4.35 -4 2.7 -4 1 C-3.01 1.33 -2.02 1.66 -1 2 C-0.67 1.34 -0.34 0.68 0 0 Z " fill="#EBF4EC" transform="translate(441,67)"/>
<path d="M0 0 C0.33 0 0.66 0 1 0 C1 15.84 1 31.68 1 48 C-26.72 48 -54.44 48 -83 48 C-83 47.01 -83 46.02 -83 45 C-55.61 45 -28.22 45 0 45 C0 30.15 0 15.3 0 0 Z " fill="#D0DCD6" transform="translate(489,10)"/>
<path d="M0 0 C15.18 0 30.36 0 46 0 C46 1.32 46 2.64 46 4 C18.61 4 -8.78 4 -37 4 C-37 3.67 -37 3.34 -37 3 C-25.12 3 -13.24 3 -1 3 C-0.67 2.01 -0.34 1.02 0 0 Z " fill="#D8E9E1" transform="translate(358,54)"/>
<path d="M0 0 C2.64 0 5.28 0 8 0 C8 1.98 8 3.96 8 6 C8.33 4.02 8.66 2.04 9 0 C11.97 0 14.94 0 18 0 C18 0.66 18 1.32 18 2 C16.35 2 14.7 2 13 2 C13 3.32 13 4.64 13 6 C14.32 6 15.64 6 17 6 C17 6.66 17 7.32 17 8 C15.68 8 14.36 8 13 8 C13 8.99 13 9.98 13 11 C14.65 11 16.3 11 18 11 C18 11.99 18 12.98 18 14 C14.04 14 10.08 14 6 14 C6 14.66 6 15.32 6 16 C6.66 16.33 7.32 16.66 8 17 C5.36 17 2.72 17 0 17 C0.66 16.67 1.32 16.34 2 16 C2 15.34 2 14.68 2 14 C1.34 14 0.68 14 0 14 C-0.2 12.23 -0.38 10.46 -0.56 8.69 C-0.67 7.7 -0.77 6.72 -0.88 5.7 C-1 3 -1 3 0 0 Z " fill="#D5F1E5" transform="translate(376,67)"/>
<path d="M0 0 C0 0.66 0 1.32 0 2 C0.99 1.34 1.98 0.68 3 0 C5.69 -0.12 5.69 -0.12 8 0 C7.97 7.69 7.97 7.69 5.74 10.71 C2.64 13.41 1.17 14 -3 14 C-3.33 16.64 -3.66 19.28 -4 22 C-4.66 22 -5.32 22 -6 22 C-5.38 15.66 -4.71 9.33 -4 3 C-4.66 2.67 -5.32 2.34 -6 2 C-3 0 -3 0 0 0 Z " fill="#4C443E" transform="translate(440,82)"/>
<path d="M0 0 C0 5.28 0 10.56 0 16 C0.66 16.33 1.32 16.66 2 17 C-0.31 17 -2.62 17 -5 17 C-4.67 15.68 -4.34 14.36 -4 13 C-4.31 12.93 -4.31 12.93 -5.88 12.56 C-8 12 -8 12 -10 11 C-10 11.66 -10 12.32 -10 13 C-11.32 13 -12.64 13 -14 13 C-13.67 11.68 -13.34 10.36 -13 9 C-12.34 9 -11.68 9 -11 9 C-10.96 8.63 -10.96 8.63 -10.75 6.75 C-9.01 0.38 -6.44 0 0 0 Z " fill="#CAE6CF" transform="translate(466,67)"/>
<path d="M0 0 C3.12 0.25 3.12 0.25 5 1.38 C6.76 4.31 6.7 5.86 6.12 9.25 C4.35 12.11 2.31 14.69 0.12 17.25 C2.1 17.58 4.09 17.91 6.12 18.25 C6.12 17.26 6.12 16.27 6.12 15.25 C6.78 15.25 7.44 15.25 8.12 15.25 C8.12 17.56 8.12 19.87 8.12 22.25 C3.5 22.25 -1.12 22.25 -5.88 22.25 C-4.28 19.06 -2.96 17.04 -0.75 14.38 C1.48 11.49 2.1 10.5 2.5 6.75 C2.38 5.92 2.25 5.1 2.12 4.25 C-0.25 4.12 -0.25 4.12 -2.88 4.25 C-3.53 4.91 -4.19 5.57 -4.88 6.25 C-3.81 0.33 -3.81 0.33 0 0 Z " fill="#323338" transform="translate(141.875,73.75)"/>
<path d="M0 0 C3.12 0.25 3.12 0.25 5 1.38 C6.76 4.31 6.7 5.86 6.12 9.25 C4.35 12.11 2.31 14.69 0.12 17.25 C2.11 17.58 4.08 17.91 6.12 18.25 C6.12 17.26 6.12 16.27 6.12 15.25 C6.79 15.25 7.44 15.25 8.12 15.25 C8.12 17.56 8.12 19.87 8.12 22.25 C3.5 22.25 -1.12 22.25 -5.88 22.25 C-3.86 17.2 -1.96 15.02 1.76 11.31 C3.12 9.25 3.12 9.25 2.83 6.5 C2.6 5.76 2.37 5.02 2.12 4.25 C-0.25 4.12 -0.25 4.12 -2.88 4.25 C-3.54 4.91 -4.19 5.57 -4.88 6.25 C-3.81 0.33 -3.81 0.33 0 0 Z " fill="#142222" transform="translate(424.875,73.75)"/>
<path d="M0 0 C6.6 0.6 6.6 0.6 9 3 C9.51 6.78 9.3 8.52 7.25 11.77 C6.51 12.63 5.76 13.49 5 14.38 C4.63 14.81 4.63 14.81 2.75 17.02 C2.17 17.68 1.6 18.33 1 19 C7.75 18.12 7.75 18.12 10 17 C10 18.65 10 20.3 10 22 C5.71 22 1.42 22 -3 22 C-1.32 17.81 -0.77 16.48 2.12 13.56 C4.52 10.91 4.97 10.28 5.38 6.56 C5.25 5.72 5.13 4.87 5 4 C0.25 3.88 0.25 3.88 -2 5 C-1.12 1.12 -1.12 1.12 0 0 Z " fill="#312E34" transform="translate(337,74)"/>
<path d="M0 0 C1.32 0 2.64 0 4 0 C4.66 1.32 5.32 2.64 6 4 C6.33 2.68 6.66 1.36 7 0 C7.99 0 8.98 0 10 0 C10 4.29 10 8.58 10 13 C6 12 6 12 4.75 9.94 C4.63 9.62 4.63 9.62 4 8 C3.67 9.65 3.34 11.3 3 13 C2.01 13 1.02 13 0 13 C0 8.71 0 4.42 0 0 Z " fill="#C4EDD9" transform="translate(363,67)"/>
<path d="M0 0 C0.99 0 1.98 0 3 0 C3.08 4.16 2.98 7.95 2 12 C3.89 11.79 3.89 11.79 6 11 C7.05 8.93 7.05 8.93 7.75 6.44 C7.99 5.61 8.23 4.78 8.48 3.93 C8.65 3.3 8.82 2.66 9 2 C8.01 1.67 7.02 1.34 6 1 C7.65 0.67 9.3 0.34 11 0 C11.29 5 11.1 7.98 8 12 C5 14 5 14 1 14 C0.67 16.64 0.34 19.28 0 22 C-0.99 22 -1.98 22 -3 22 C-2.21 15.21 -0.59 8.64 1 2 C0.34 1.67 -0.32 1.34 -1 1 C-0.67 0.67 -0.34 0.34 0 0 Z " fill="#4D4548" transform="translate(351,82)"/>
<path d="M0 0 C0.66 0 1.32 0 2 0 C3.34 1.99 4.68 3.99 6 6 C6.99 6.66 7.98 7.32 9 8 C9 8.66 9 9.32 9 10 C4.12 8.12 4.12 8.12 3 7 C2.67 13.93 2.34 20.86 2 28 C1.34 28 0.68 28 0 28 C0 20.74 0 13.48 0 6 C-1.65 7.32 -3.3 8.64 -5 10 C-5.66 10 -6.32 10 -7 10 C-5.33 6.04 -2.87 3.16 0 0 Z " fill="#474349" transform="translate(168,16)"/>
<path d="M0 0 C3.49 1.16 4.1 2.14 6.19 5.06 C6.72 5.8 7.25 6.53 7.79 7.29 C8.19 7.85 8.59 8.42 9 9 C6.04 8.39 4.62 7.75 2 6 C2 13.26 2 20.52 2 28 C1.34 28 0.68 28 0 28 C0 20.74 0 13.48 0 6 C-1.65 7.32 -3.3 8.64 -5 10 C-5.66 10 -6.32 10 -7 10 C-5.33 6.06 -2.77 3.21 0 0 Z " fill="#4A3C3C" transform="translate(361,16)"/>
<path d="M0 0 C0.66 0 1.32 0 2 0 C3.51 1.97 3.51 1.97 5.12 4.5 C5.66 5.34 6.2 6.17 6.76 7.03 C7.17 7.68 7.58 8.33 8 9 C7.18 8.67 7.18 8.67 3 7 C2.67 13.93 2.34 20.86 2 28 C1.34 28 0.68 28 0 28 C0 20.74 0 13.48 0 6 C-1.32 6.99 -2.64 7.98 -4 9 C-4.99 8.67 -5.98 8.34 -7 8 C-5.88 6.66 -4.76 5.33 -3.62 4 C-3.31 3.63 -3.31 3.63 -1.73 1.75 C-1.16 1.17 -0.59 0.59 0 0 Z " fill="#495C75" transform="translate(276,16)"/>
<path d="M0 0 C1.51 1.97 1.51 1.97 3.12 4.5 C3.66 5.34 4.2 6.17 4.76 7.03 C5.17 7.68 5.58 8.33 6 9 C2.12 8.12 2.12 8.12 1 7 C0.67 13.93 0.34 20.86 0 28 C-0.66 28 -1.32 28 -2 28 C-2.33 20.74 -2.66 13.48 -3 6 C-4.65 7.32 -6.3 8.64 -8 10 C-8 6.46 -7.39 5.9 -5.12 3.31 C-4.59 2.69 -4.06 2.07 -3.51 1.43 C-2 0 -2 0 0 0 Z " fill="#424660" transform="translate(58,16)"/>
<path d="M0 0 C0 4.95 0 9.9 0 15 C0.66 15.33 1.32 15.66 2 16 C-0.64 16 -3.28 16 -6 16 C-5.34 15.67 -4.68 15.34 -4 15 C-4 14.34 -4 13.68 -4 13 C-4.66 13 -5.32 13 -6 13 C-6.33 9.37 -6.66 5.74 -7 2 C-4 0 -4 0 0 0 Z " fill="#799084" transform="translate(382,68)"/>
<path d="M0 0 C1.96 -0.05 3.92 -0.09 5.88 -0.12 C6.42 -0.14 6.42 -0.14 9.18 -0.2 C12 0 12 0 14 2 C14.27 4.69 14.09 7.29 14 10 C13.01 10 12.02 10 11 10 C11 7.69 11 5.38 11 3 C10.01 3 9.02 3 8 3 C8 4.98 8 6.96 8 9 C7.01 9 6.02 9 5 9 C5 7.02 5 5.04 5 3 C4.34 3 3.68 3 3 3 C3 4.98 3 6.96 3 9 C2.01 9 1.02 9 0 9 C0 6.03 0 3.06 0 0 Z " fill="#C8EEDB" transform="translate(479,71)"/>
<path d="M0 0 C0.66 0 1.32 0 2 0 C2 7.26 2 14.52 2 22 C3.65 20.68 5.3 19.36 7 18 C7.66 18 8.32 18 9 18 C7.44 21.82 5.04 24.26 2 27 C1.34 27 0.68 27 0 27 C-1.51 25.25 -1.51 25.25 -3.12 23 C-3.66 22.26 -4.2 21.52 -4.76 20.75 C-4.96 20.46 -4.96 20.46 -6 19 C-5.18 19.33 -5.18 19.33 -1 21 C-0.67 14.07 -0.34 7.14 0 0 Z " fill="#614745" transform="translate(37,16)"/>
<path d="M0 0 C2.67 0 5.33 0 8 0 C7.34 4.29 6.68 8.58 6 13 C5.01 12.67 4.02 12.34 3 12 C2.31 9.94 2.31 9.94 2 8 C1.67 8.33 1.34 8.66 1 9 C-1.33 9.04 -3.67 9.04 -6 9 C-4.47 5.56 -2.55 2.78 0 0 Z " fill="#DDDEDB" transform="translate(344,84)"/>
<path d="M0 0 C0.66 0.66 1.32 1.32 2 2 C4.1 2.28 4.1 2.28 6.73 2.32 C7.71 2.34 8.69 2.36 9.7 2.38 C10.76 2.39 11.82 2.4 12.91 2.41 C14 2.43 15.08 2.45 16.2 2.47 C19.68 2.53 23.15 2.58 26.62 2.62 C28.98 2.66 31.33 2.7 33.68 2.74 C39.45 2.84 45.23 2.92 51 3 C51 3.33 51 3.66 51 4 C49.8 4.01 48.61 4.03 47.38 4.04 C42.94 4.1 38.51 4.18 34.07 4.26 C32.16 4.3 30.24 4.32 28.32 4.35 C25.56 4.38 22.8 4.43 20.04 4.49 C19.18 4.49 18.32 4.5 17.44 4.51 C16.64 4.53 15.84 4.55 15.01 4.57 C14.31 4.58 13.6 4.59 12.88 4.6 C10.48 5.11 9.69 6.27 8 8 C4.81 8.19 4.81 8.19 2 8 C2 7.01 2 6.02 2 5 C0.02 5.66 -1.96 6.32 -4 7 C-2.68 4.69 -1.36 2.38 0 0 Z " fill="#C0E6D5" transform="translate(447,88)"/>
<path d="M0 0 C0.01 0.57 0.03 1.13 0.04 1.71 C0.12 4.27 0.22 6.82 0.31 9.38 C0.34 10.26 0.36 11.15 0.38 12.07 C0.42 12.92 0.45 13.77 0.49 14.65 C0.51 15.43 0.54 16.22 0.57 17.03 C1 19 1 19 4 21 C0.7 21 -2.6 21 -6 21 C-5.01 20.67 -4.02 20.34 -3 20 C-3.33 14.39 -3.66 8.78 -4 3 C-4.99 2.67 -5.98 2.34 -7 2 C-4.35 0.54 -3.11 0 0 0 Z " fill="#4A3A2F" transform="translate(32,75)"/>
<path d="M0 0 C2.88 -0.12 2.88 -0.12 6 0 C6.66 0.66 7.32 1.32 8 2 C7.78 6.88 6.25 9.43 3 13 C4.65 13 6.3 13 8 13 C8.33 12.34 8.66 11.68 9 11 C9 12.65 9 14.3 9 16 C5.37 16 1.74 16 -2 16 C1.75 10.25 1.75 10.25 4 8 C4.4 6.01 4.74 4.01 5 2 C3.02 2.66 1.04 3.32 -1 4 C-0.67 2.68 -0.34 1.36 0 0 Z " fill="#5E5554" transform="translate(164,68)"/>
<path d="M0 0 C2.88 -0.12 2.88 -0.12 6 0 C6.66 0.66 7.32 1.32 8 2 C7.78 6.88 6.25 9.43 3 13 C4.65 13 6.3 13 8 13 C8.33 12.34 8.66 11.68 9 11 C9 12.65 9 14.3 9 16 C5.37 16 1.74 16 -2 16 C1.75 10.25 1.75 10.25 4 8 C4.4 6.01 4.74 4.01 5 2 C3.02 2.66 1.04 3.32 -1 4 C-0.67 2.68 -0.34 1.36 0 0 Z " fill="#293854" transform="translate(52,68)"/>
<path d="M0 0 C0.33 0.66 0.66 1.32 1 2 C1.99 1.67 2.98 1.34 4 1 C4.21 7.64 3.51 13.53 2 20 C1.67 20 1.34 20 1 20 C1 15.05 1 10.1 1 5 C0.34 5 -0.32 5 -1 5 C-1 5.99 -1 6.98 -1 8 C-3.31 8 -5.62 8 -8 8 C-4 1.43 -4 1.43 0 0 Z " fill="#FBFBF7" transform="translate(432,84)"/>
<path d="M0 0 C0.66 0 1.32 0 2 0 C2 1.65 2 3.3 2 5 C3.32 5 4.64 5 6 5 C6 3.35 6 1.7 6 0 C6.99 0.33 7.98 0.66 9 1 C8.81 1.89 8.63 2.77 8.44 3.69 C8.02 6.85 8.19 8.95 9 12 C8.01 12 7.02 12 6 12 C5.67 10.35 5.34 8.7 5 7 C4.01 7 3.02 7 2 7 C2 8.98 2 10.96 2 13 C1.67 13.16 1.67 13.16 0 14 C-0.66 11.69 -1.32 9.38 -2 7 C-1.34 7 -0.68 7 0 7 C0 4.69 0 2.38 0 0 Z " fill="#C7EDDA" transform="translate(431,68)"/>
<path d="M0 0 C0.33 0 0.66 0 1 0 C1 7.26 1 14.52 1 22 C2.32 21.01 3.64 20.02 5 19 C5.99 19.33 6.98 19.66 8 20 C5.69 22.64 3.38 25.28 1 28 C-1.67 25.33 -4.33 22.67 -7 20 C-6.67 19.34 -6.34 18.68 -6 18 C-5.01 18.66 -5.01 18.66 0 22 C0 14.74 0 7.48 0 0 Z " fill="#11172A" transform="translate(150,16)"/>
<path d="M0 0 C0.33 0 0.66 0 1 0 C1 7.26 1 14.52 1 22 C3.31 20.68 5.62 19.36 8 18 C6.47 21.44 4.4 24.12 2 27 C-1.82 25.44 -4.19 22.96 -7 20 C-6.67 19.34 -6.34 18.68 -6 18 C-5.01 18.66 -5.01 18.66 0 22 C0 14.74 0 7.48 0 0 Z " fill="#47302F" transform="translate(447,16)"/>
<path d="M0 0 C0 0.99 0 1.98 0 3 C-1.98 3.33 -3.96 3.66 -6 4 C-6.33 5.98 -6.66 7.96 -7 10 C-4.69 10.33 -2.38 10.66 0 11 C0 11.66 0 12.32 0 13 C-1.28 13.06 -2.56 13.12 -3.88 13.19 C-4.59 13.22 -5.31 13.26 -6.05 13.29 C-6.7 13.2 -7.34 13.1 -8 13 C-10.46 9.31 -10.39 7.37 -10 3 C-7.77 -1.07 -4.21 -0.24 0 0 Z " fill="#C5EDD9" transform="translate(416,67)"/>
<path d="M0 0 C3.3 0.33 4.62 0.62 7 3 C6.44 7.56 6.44 7.56 5 9 C2 9.12 2 9.12 -1 9 C-2 8 -2 8 -2.19 5.06 C-2 2 -2 2 0 0 Z " fill="#C7EDDA" transform="translate(470,71)"/>
<path d="M0 0 C1.32 0 2.64 0 4 0 C4.66 2.31 5.32 4.62 6 7 C4.02 7.66 2.04 8.32 0 9 C0 10.65 0 12.3 0 14 C-1.32 14 -2.64 14 -4 14 C-3.53 8.59 -2.76 4.79 0 0 Z " fill="#C9EAD6" transform="translate(421,67)"/>
<path d="M0 0 C1.98 0.66 3.96 1.32 6 2 C5.25 8.62 5.25 8.62 3 12 C1.68 12 0.36 12 -1 12 C-0.67 8.04 -0.34 4.08 0 0 Z " fill="#BCC9B6" transform="translate(354,82)"/>
<path d="M0 0 C0 4.95 0 9.9 0 15 C0.66 15.33 1.32 15.66 2 16 C-0.31 16 -2.62 16 -5 16 C-4.34 15.67 -3.68 15.34 -3 15 C-3 11.04 -3 7.08 -3 3 C-3.99 3 -4.98 3 -6 3 C-6 2.34 -6 1.68 -6 1 C-3 0 -3 0 0 0 Z " fill="#585151" transform="translate(296,68)"/>
<path d="M0 0 C3.12 0.19 3.12 0.19 6.12 2.19 C6.71 6.56 6.37 8.73 4.25 12.62 C3.55 13.47 2.85 14.32 2.12 15.19 C1.47 15.19 0.81 15.19 0.12 15.19 C0.43 14.47 0.74 13.74 1.06 13 C2.06 10.37 2.74 7.97 3.12 5.19 C2.12 4.19 2.12 4.19 -0.31 4 C-2.88 4.19 -2.88 4.19 -4.88 6.19 C-3.81 0.25 -3.81 0.25 0 0 Z " fill="#19151A" transform="translate(253.875,73.8125)"/>
<path d="M0 0 C0 4.95 0 9.9 0 15 C0.66 15.33 1.32 15.66 2 16 C-0.31 16 -2.62 16 -5 16 C-4.34 15.67 -3.68 15.34 -3 15 C-3 10.71 -3 6.42 -3 2 C-3.99 2.33 -4.98 2.66 -6 3 C-6 2.34 -6 1.68 -6 1 C-3 0 -3 0 0 0 Z " fill="#4B5859" transform="translate(466,68)"/>
<path d="M0 0 C2.97 0 5.94 0 9 0 C9 0.66 9 1.32 9 2 C8.01 2 7.02 2 6 2 C6 5.96 6 9.92 6 14 C5.01 14 4.02 14 3 14 C3 10.04 3 6.08 3 2 C2.01 2 1.02 2 0 2 C0 1.34 0 0.68 0 0 Z " fill="#C4EDD9" transform="translate(396,67)"/>
<path d="M0 0 C2.31 0 4.62 0 7 0 C7 0.66 7 1.32 7 2 C5.35 2 3.7 2 2 2 C2 3.32 2 4.64 2 6 C3.32 6 4.64 6 6 6 C6 6.66 6 7.32 6 8 C4.68 8 3.36 8 2 8 C2 8.99 2 9.98 2 11 C3.65 11 5.3 11 7 11 C7 11.66 7 12.32 7 13 C4.69 13 2.38 13 0 13 C0 8.71 0 4.42 0 0 Z " fill="#BFEBD5" transform="translate(387,67)"/>
<path d="M0 0 C14.85 0 29.7 0 45 0 C44.67 1.32 44.34 2.64 44 4 C43.34 4 42.68 4 42 4 C42 3.01 42 2.02 42 1 C28.14 1 14.28 1 0 1 C0 0.67 0 0.34 0 0 Z " fill="#E8F6EC" transform="translate(375,92)"/>
<path d="M0 0 C2.31 0 4.62 0 7 0 C7 0.66 7 1.32 7 2 C5.35 2 3.7 2 2 2 C2 3.32 2 4.64 2 6 C3.65 6 5.3 6 7 6 C7 6.66 7 7.32 7 8 C5.35 8 3.7 8 2 8 C3 11 3 11 5.06 12.19 C5.7 12.46 6.34 12.72 7 13 C4.69 13 2.38 13 0 13 C0 8.71 0 4.42 0 0 Z " fill="#BEEBD4" transform="translate(442,67)"/>
<path d="M0 0 C0.66 0 1.32 0 2 0 C2 2.31 2 4.62 2 7 C-2.62 7 -7.24 7 -12 7 C-11.67 6.01 -11.34 5.02 -11 4 C-7.37 4 -3.74 4 0 4 C0 2.68 0 1.36 0 0 Z " fill="#313537" transform="translate(431,89)"/>
<path d="M0 0 C0.38 0.08 0.38 0.08 2.31 0.5 C5.01 1 6.44 0.85 9 0 C9 0.66 9 1.32 9 2 C8.01 2.33 7.02 2.66 6 3 C6 5.31 6 7.62 6 10 C5.42 9.79 4.85 9.59 4.25 9.38 C1.48 8.91 0.35 9.57 -2 11 C-2 10.01 -2 9.02 -2 8 C-1.01 7.67 -0.02 7.34 1 7 C1.33 5.35 1.66 3.7 2 2 C1.01 1.67 0.02 1.34 -1 1 C-0.67 0.67 -0.34 0.34 0 0 Z " fill="#565760" transform="translate(280,93)"/>
<path d="M0 0 C0.33 0 0.66 0 1 0 C1 2.31 1 4.62 1 7 C-3.62 7 -8.24 7 -13 7 C-12.34 5.68 -11.68 4.36 -11 3 C-7.7 3 -4.4 3 -1 3 C-0.67 2.01 -0.34 1.02 0 0 Z " fill="#292B32" transform="translate(261,89)"/>
<path d="M0 0 C0.66 0.33 1.32 0.66 2 1 C2 1.99 2 2.98 2 4 C2.82 4.33 2.82 4.33 7 6 C7.19 8.38 7.19 8.38 7 11 C3.56 13.29 2.01 13.18 -2 13 C-1.67 11.68 -1.34 10.36 -1 9 C-1 9.66 -1 10.32 -1 11 C0.98 11 2.96 11 5 11 C4.67 10.01 4.34 9.02 4 8 C1.44 6.81 1.44 6.81 -1 6 C-1.04 4.33 -1.04 2.67 -1 1 C-0.67 0.67 -0.34 0.34 0 0 Z " fill="#565050" transform="translate(153,83)"/>
<path d="M0 0 C0.22 3.29 0.3 5.42 -1.25 8.38 C-3 10 -3 10 -7 10 C-7.31 7.81 -7.31 7.81 -7 5 C-2.78 0 -2.78 0 0 0 Z " fill="#ECF1F0" transform="translate(274,84)"/>
<path d="M0 0 C-0.75 7.75 -0.75 7.75 -3 10 C-4.32 10 -5.64 10 -7 10 C-7.31 7.81 -7.31 7.81 -7 5 C-2.78 0 -2.78 0 0 0 Z " fill="#F4F9F4" transform="translate(445,84)"/>
<path d="M0 0 C0.66 0 1.32 0 2 0 C2 7.26 2 14.52 2 22 C0.68 21.34 -0.64 20.68 -2 20 C-1.34 19.67 -0.68 19.34 0 19 C0 12.73 0 6.46 0 0 Z " fill="#E5D9CA" transform="translate(445,16)"/>
<path d="M0 0 C3.12 0.25 3.12 0.25 5 1.38 C6.59 4.03 6.33 6.22 6.12 9.25 C5.47 9.25 4.81 9.25 4.12 9.25 C3.47 7.6 2.81 5.95 2.12 4.25 C-0.25 4.12 -0.25 4.12 -2.88 4.25 C-3.53 4.91 -4.19 5.57 -4.88 6.25 C-3.81 0.33 -3.81 0.33 0 0 Z " fill="#12111B" transform="translate(141.875,73.75)"/>
<path d="M0 0 C1.98 0 3.96 0 6 0 C5.01 3.63 4.02 7.26 3 11 C2.01 11 1.02 11 0 11 C0 7.37 0 3.74 0 0 Z " fill="#D7E1DE" transform="translate(367,92)"/>
<path d="M0 0 C0.33 0 0.66 0 1 0 C1 1.65 1 3.3 1 5 C-3.29 5 -7.58 5 -12 5 C-11.67 4.01 -11.34 3.02 -11 2 C-10.29 1.94 -9.58 1.88 -8.85 1.82 C-8.39 1.77 -8.39 1.77 -6.06 1.56 C-5.15 1.48 -4.23 1.4 -3.29 1.32 C-1 1 -1 1 0 0 Z " fill="#232224" transform="translate(346,91)"/>
<path d="M0 0 C0.95 0.04 1.9 0.08 2.88 0.12 C2.88 0.78 2.88 1.44 2.88 2.12 C1.23 2.12 -0.42 2.12 -2.12 2.12 C-2.12 3.11 -2.12 4.11 -2.12 5.12 C-1.3 5.45 -1.3 5.45 2.88 7.12 C2.88 8.78 2.88 10.42 2.88 12.12 C2.22 12.12 1.55 12.12 0.88 12.12 C0.55 11.14 0.22 10.14 -0.12 9.12 C-2.69 7.94 -2.69 7.94 -5.12 7.12 C-5.25 4.75 -5.25 4.75 -5.12 2.12 C-3.12 0.12 -3.12 0.12 0 0 Z " fill="#494243" transform="translate(45.125,81.875)"/>
<path d="M0 0 C0.66 0 1.32 0 2 0 C-1.13 12.69 -1.13 12.69 -4 16 C-6.69 16.81 -6.69 16.81 -9 17 C-9 16.01 -9 15.02 -9 14 C-7.68 14 -6.36 14 -5 14 C-4.81 13.41 -4.61 12.82 -4.41 12.21 C-3.06 8.09 -1.68 4 0 0 Z " fill="#4E434C" transform="translate(372,93)"/>
<path d="M0 0 C-0.33 1.65 -0.66 3.3 -1 5 C-2.98 5 -4.96 5 -7 5 C-7 3.35 -7 1.7 -7 0 C-3.87 -1.04 -3.01 -0.93 0 0 Z " fill="#B7B6B7" transform="translate(46,91)"/>
<path d="M0 0 C2.64 0 5.28 0 8 0 C7.67 1.98 7.34 3.96 7 6 C5.68 6 4.36 6 3 6 C3 4.35 3 2.7 3 1 C2.34 1 1.68 1 1 1 C1 3.31 1 5.62 1 8 C0.01 7.67 -0.98 7.34 -2 7 C-1.34 7 -0.68 7 0 7 C0 4.69 0 2.38 0 0 Z " fill="#D0EFE1" transform="translate(430,67)"/>
<path d="M0 0 C2.31 0.33 4.62 0.66 7 1 C7.33 2.32 7.66 3.64 8 5 C7.05 4.96 6.1 4.92 5.12 4.88 C2 5 2 5 0 7 C0 4.69 0 2.38 0 0 Z " fill="#EFEDE7" transform="translate(150,89)"/>
<path d="M0 0 C1.98 0 3.96 0 6 0 C6 1.65 6 3.3 6 5 C4.02 5.33 2.04 5.66 0 6 C-1.12 2.25 -1.12 2.25 0 0 Z " fill="#B6BBC0" transform="translate(155,82)"/>
<path d="M0 0 C1.12 1.75 1.12 1.75 2 4 C0.94 7.07 -1 9.46 -3 12 C-2.01 12.16 -2.01 12.16 3 13 C3 13.33 3 13.66 3 14 C0.03 14 -2.94 14 -6 14 C-5 10 -5 10 -3 7.56 C-0.92 4.9 -0.38 3.3 0 0 Z " fill="#7D726A" transform="translate(145,79)"/>
<path d="M0 0 C0.66 0 1.32 0 2 0 C2 1.98 2 3.96 2 6 C3.32 6.33 4.64 6.66 6 7 C4.68 7 3.36 7 2 7 C2 8.98 2 10.96 2 13 C1.67 13.16 1.67 13.16 0 14 C-0.66 11.69 -1.32 9.38 -2 7 C-1.34 7 -0.68 7 0 7 C0 4.69 0 2.38 0 0 Z " fill="#ABDCCF" transform="translate(431,68)"/>
<path d="M0 0 C0.99 0 1.98 0 3 0 C2.67 4.29 2.34 8.58 2 13 C1.34 13 0.68 13 0 13 C0 8.71 0 4.42 0 0 Z " fill="#BDEBD4" transform="translate(363,67)"/>
<path d="M0 0 C0.66 0 1.32 0 2 0 C2 2.64 2 5.28 2 8 C0.68 8 -0.64 8 -2 8 C-1.12 1.12 -1.12 1.12 0 0 Z " fill="#EBF5FA" transform="translate(355,86)"/>
<path d="M0 0 C0.33 0 0.66 0 1 0 C1 1.65 1 3.3 1 5 C-0.98 5.33 -2.96 5.66 -5 6 C-5.33 4.68 -5.66 3.36 -6 2 C-2.25 0.88 -2.25 0.88 0 2 C0 1.34 0 0.68 0 0 Z " fill="#D5DDE2" transform="translate(48,82)"/>
<path d="M0 0 C1.13 0.02 2.27 0.04 3.44 0.06 C3.44 1.05 3.44 2.04 3.44 3.06 C2.16 3.21 0.88 3.35 -0.44 3.5 C-2.82 3.77 -4.41 3.98 -6.56 5.06 C-4.15 0.07 -4.15 0.07 0 0 Z " fill="#CFF0DF" transform="translate(412.5625,66.9375)"/>
<path d="M0 0 C0.33 0 0.66 0 1 0 C1.33 3.63 1.66 7.26 2 11 C0.68 11.33 -0.64 11.66 -2 12 C-1.45 7.97 -0.84 3.98 0 0 Z " fill="#807166" transform="translate(264,92)"/>
<path d="M0 0 C0.33 0 0.66 0 1 0 C1 4.62 1 9.24 1 14 C0.34 14 -0.32 14 -1 14 C-1.66 11.69 -2.32 9.38 -3 7 C-2.01 6.67 -1.02 6.34 0 6 C0 4.02 0 2.04 0 0 Z " fill="#EDF9F3" transform="translate(441,67)"/>
<path d="M0 0 C2.88 -0.12 2.88 -0.12 6 0 C6.66 0.66 7.32 1.32 8 2 C7.62 4.63 7.62 4.63 7 7 C6.34 5.68 5.68 4.36 5 3 C3.02 3.33 1.04 3.66 -1 4 C-0.67 2.68 -0.34 1.36 0 0 Z " fill="#222634" transform="translate(164,68)"/>
<path d="M0 0 C0.99 0 1.98 0 3 0 C3.08 4.16 2.98 7.95 2 12 C-0.57 8.15 0.17 6.41 1 2 C0.34 1.67 -0.32 1.34 -1 1 C-0.67 0.67 -0.34 0.34 0 0 Z " fill="#33333F" transform="translate(351,82)"/>
<path d="M0 0 C0.33 0 0.66 0 1 0 C1.12 6.75 1.12 6.75 0 9 C-1.32 9 -2.64 9 -4 9 C-3.67 7.68 -3.34 6.36 -3 5 C-2.34 5 -1.68 5 -1 5 C-0.67 3.35 -0.34 1.7 0 0 Z " fill="#F2FBF6" transform="translate(456,71)"/>
<path d="M0 0 C0.99 0.33 1.98 0.66 3 1 C2.67 1.66 2.34 2.32 2 3 C1.85 4.45 1.75 5.9 1.68 7.35 C1.64 8.2 1.6 9.05 1.56 9.93 C1.52 10.82 1.48 11.71 1.44 12.62 C1.39 13.52 1.35 14.42 1.31 15.34 C1.2 17.56 1.1 19.78 1 22 C0.67 22 0.34 22 0 22 C0 14.74 0 7.48 0 0 Z " fill="#C5F3FF" transform="translate(363,22)"/>
<path d="M0 0 C0.33 0 0.66 0 1 0 C1 1.65 1 3.3 1 5 C-2.63 5 -6.26 5 -10 5 C-9.67 4.34 -9.34 3.68 -9 3 C-6.94 2.61 -4.91 2.49 -2.81 2.34 C-2.21 2.23 -1.62 2.12 -1 2 C-0.67 1.34 -0.34 0.68 0 0 Z " fill="#2A2D35" transform="translate(60,79)"/>
<path d="M0 0 C0.33 0.66 0.66 1.32 1 2 C1.99 1.34 2.98 0.68 4 0 C6.69 -0.12 6.69 -0.12 9 0 C9 1.98 9 3.96 9 6 C8.67 6 8.34 6 8 6 C8 4.35 8 2.7 8 1 C5.29 2.61 2.63 4.25 0 6 C0 4.02 0 2.04 0 0 Z " fill="#4B5B6E" transform="translate(439,82)"/>
<path d="M0 0 C0.66 1.32 1.32 2.64 2 4 C1.34 4.99 1.34 4.99 -2 10 C-0.68 10.33 0.64 10.66 2 11 C-0.31 11 -2.62 11 -5 11 C-3.85 8.53 -2.95 6.95 -1 5 C-0.38 2.38 -0.38 2.38 0 0 Z " fill="#877D78" transform="translate(57,71)"/>
<path d="M0 0 C0.66 0 1.32 0 2 0 C3.51 1.97 3.51 1.97 5.12 4.5 C5.66 5.34 6.2 6.17 6.76 7.03 C7.17 7.68 7.58 8.33 8 9 C3.15 7.25 3.15 7.25 1.81 5 C1.54 4.34 1.28 3.68 1 3 C0.34 2.34 -0.32 1.68 -1 1 C-0.67 0.67 -0.34 0.34 0 0 Z " fill="#34343B" transform="translate(276,16)"/>
<path d="M0 0 C0 3 0 3 -1 5 C0.32 5 1.64 5 3 5 C3 5.66 3 6.32 3 7 C0.36 7 -2.28 7 -5 7 C-3.71 4.12 -2.34 2.13 0 0 Z " fill="#615E63" transform="translate(454,96)"/>
<path d="M0 0 C0.99 1.32 1.98 2.64 3 4 C2.67 4.66 2.34 5.32 2 6 C1.32 8.33 0.65 10.66 0 13 C-0.33 13 -0.66 13 -1 13 C-1.03 11.4 -1.05 9.79 -1.06 8.19 C-1.07 7.29 -1.09 6.4 -1.1 5.48 C-1 3 -1 3 0 0 Z " fill="#D6F2E4" transform="translate(366,67)"/>
<path d="M0 0 C0.66 0 1.32 0 2 0 C2 3.3 2 6.6 2 10 C1.34 10 0.68 10 0 10 C-0.19 8.52 -0.38 7.04 -0.56 5.56 C-0.67 4.74 -0.77 3.92 -0.88 3.07 C-0.92 2.38 -0.96 1.7 -1 1 C-0.67 0.67 -0.34 0.34 0 0 Z " fill="#563F3B" transform="translate(365,93)"/>
<path d="M0 0 C1.32 0 2.64 0 4 0 C4.12 3.38 4.12 3.38 4 7 C3.34 7.66 2.68 8.32 2 9 C2 6.69 2 4.38 2 2 C1.01 1.67 0.02 1.34 -1 1 C-0.67 0.67 -0.34 0.34 0 0 Z " fill="#252424" transform="translate(358,82)"/>
<path d="M0 0 C0.99 0.33 1.98 0.66 3 1 C2.79 1.78 2.59 2.57 2.38 3.38 C2.25 4.24 2.13 5.11 2 6 C2.66 6.66 3.32 7.32 4 8 C2.35 7.67 0.7 7.34 -1 7 C-1.04 5 -1.04 3 -1 1 C-0.67 0.67 -0.34 0.34 0 0 Z " fill="#C1ECD6" transform="translate(469,72)"/>
<path d="M0 0 C0.33 0 0.66 0 1 0 C1 4.29 1 8.58 1 13 C-0.32 13.33 -1.64 13.66 -3 14 C-3 13.01 -3 12.02 -3 11 C-2.01 11 -1.02 11 0 11 C0 7.37 0 3.74 0 0 Z " fill="#E6F7F0" transform="translate(385,67)"/>
<path d="M0 0 C2.04 1.62 4.04 3.29 6 5 C6 5.66 6 6.32 6 7 C2.67 5.67 -0.67 4.33 -4 3 C-2.68 2.67 -1.36 2.34 0 2 C0 1.34 0 0.68 0 0 Z " fill="#383D44" transform="translate(171,19)"/>
<path d="M0 0 C0.66 0.66 1.32 1.32 2 2 C1.67 2.33 1.34 2.66 1 3 C1.99 3.17 1.99 3.17 7 4 C7 4.33 7 4.66 7 5 C3.7 5 0.4 5 -3 5 C-1 1 -1 1 0 0 Z " fill="#7F9184" transform="translate(424,88)"/>
<path d="M0 0 C0.99 0 1.98 0 3 0 C2.34 4.29 1.68 8.58 1 13 C0.67 13 0.34 13 0 13 C0 8.71 0 4.42 0 0 Z " fill="#DCD3B2" transform="translate(433,91)"/>
<path d="M0 0 C0 0.99 0 1.98 0 3 C0.99 3.33 1.98 3.66 3 4 C3 4.66 3 5.32 3 6 C0.69 6 -1.62 6 -4 6 C-2.68 4.02 -1.36 2.04 0 0 Z " fill="#C8E7E1" transform="translate(428,86)"/>
<path d="M0 0 C0.66 0.66 1.32 1.32 2 2 C0.02 4.31 -1.96 6.62 -4 9 C-4.99 8.67 -5.98 8.34 -7 8 C-4.69 5.36 -2.38 2.72 0 0 Z " fill="#655754" transform="translate(342,84)"/>
<path d="M0 0 C0.66 0.66 1.32 1.32 2 2 C1.67 2.33 1.34 2.66 1 3 C1.99 3.17 1.99 3.17 7 4 C7 4.33 7 4.66 7 5 C0.95 5.2 0.95 5.2 -1 5 C-1.66 4.34 -2.32 3.68 -3 3 C-2.01 2.01 -1.02 1.02 0 0 Z " fill="#A8ACAD" transform="translate(253,88)"/>
<path d="M0 0 C0.48 0.01 0.48 0.01 2.94 0.06 C0.7 3.42 0.53 3.28 -3.06 4.06 C-3.72 4.72 -4.38 5.38 -5.06 6.06 C-3.99 0.08 -3.99 0.08 0 0 Z " fill="#4F6F61" transform="translate(425.0625,73.9375)"/>
<path d="M0 0 C0.48 0.01 0.48 0.01 2.94 0.06 C0.7 3.42 0.53 3.28 -3.06 4.06 C-3.72 4.72 -4.38 5.38 -5.06 6.06 C-3.99 0.08 -3.99 0.08 0 0 Z " fill="#575052" transform="translate(254.0625,73.9375)"/>
<path d="M0 0 C0.48 0.01 0.48 0.01 2.94 0.06 C0.7 3.42 0.53 3.28 -3.06 4.06 C-3.72 4.72 -4.38 5.38 -5.06 6.06 C-3.99 0.08 -3.99 0.08 0 0 Z " fill="#555456" transform="translate(142.0625,73.9375)"/>
<path d="M0 0 C0.99 0.33 1.98 0.66 3 1 C3 2.32 3 3.64 3 5 C1.68 5 0.36 5 -1 5 C-0.67 3.35 -0.34 1.7 0 0 Z " fill="#EEF9F4" transform="translate(471,73)"/>
<path d="M0 0 C0.33 0.66 0.66 1.32 1 2 C2.65 2 4.3 2 6 2 C5.67 2.5 5.67 2.5 4 5 C2.68 5 1.36 5 0 5 C0 3.35 0 1.7 0 0 Z " fill="#C4E1D8" transform="translate(438,89)"/>
<path d="M0 0 C0.66 0 1.32 0 2 0 C2.12 3.38 2.12 3.38 2 7 C1.34 7.66 0.68 8.32 0 9 C-0.88 2.85 -0.88 2.85 -1 1 C-0.67 0.67 -0.34 0.34 0 0 Z " fill="#1D171B" transform="translate(437,82)"/>
<path d="M0 0 C0.66 0 1.32 0 2 0 C2 2.31 2 4.62 2 7 C1.01 6.34 0.02 5.68 -1 5 C-0.67 3.35 -0.34 1.7 0 0 Z " fill="#F4FBF8" transform="translate(460,71)"/>
<path d="M0 0 C1.65 0 3.3 0 5 0 C4.34 1.65 3.68 3.3 3 5 C1.5 3.62 1.5 3.62 0 2 C0 1.34 0 0.68 0 0 Z " fill="#1B191D" transform="translate(148,39)"/>
<path d="M0 0 C0.66 0.66 1.32 1.32 2 2 C0.75 3.5 0.75 3.5 -1 5 C-2.32 5 -3.64 5 -5 5 C-5 4.01 -5 3.02 -5 2 C-3.68 2 -2.36 2 -1 2 C-0.67 1.34 -0.34 0.68 0 0 Z " fill="#828183" transform="translate(368,105)"/>
<path d="M0 0 C2.64 0 5.28 0 8 0 C6.81 1.56 6.81 1.56 5 3 C2.31 2.69 2.31 2.69 0 2 C0 1.34 0 0.68 0 0 Z " fill="#5D5C62" transform="translate(450,93)"/>
<path d="M0 0 C0.33 0.66 0.66 1.32 1 2 C-0.25 4.56 -0.25 4.56 -2 7 C-2.99 7.33 -3.98 7.66 -5 8 C-3.63 5.05 -2.01 2.56 0 0 Z " fill="#54463F" transform="translate(54,18)"/>
<path d="M0 0 C0.33 0 0.66 0 1 0 C1.37 4.52 1.37 4.52 -0.38 6.81 C-2 8 -2 8 -4 8 C-4 7.01 -4 6.02 -4 5 C-3.01 4.67 -2.02 4.34 -1 4 C-0.31 1.94 -0.31 1.94 0 0 Z " fill="#96867B" transform="translate(282,96)"/>
<path d="M0 0 C1.32 0.33 2.64 0.66 4 1 C4 1.99 4 2.98 4 4 C2.68 4 1.36 4 0 4 C0 2.68 0 1.36 0 0 Z " fill="#EEF9F3" transform="translate(433,69)"/>
<path d="M0 0 C1.65 0 3.3 0 5 0 C4.67 1.32 4.34 2.64 4 4 C2.68 3.34 1.36 2.68 0 2 C0 1.34 0 0.68 0 0 Z " fill="#0E0C0F" transform="translate(445,39)"/>
<path d="M0 0 C1.16 0.66 1.16 0.66 7 4 C6.01 4.66 5.02 5.32 4 6 C2.62 4.71 1.29 3.37 0 2 C0 1.34 0 0.68 0 0 Z " fill="#423A38" transform="translate(143,34)"/>
<path d="M0 0 C1.98 1.65 3.96 3.3 6 5 C5.01 5.33 4.02 5.66 3 6 C1.5 4.69 1.5 4.69 0 3 C0 2.01 0 1.02 0 0 Z " fill="#313B4B" transform="translate(364,19)"/>
<path d="M0 0 C0.33 0.66 0.66 1.32 1 2 C-0.44 4.62 -0.44 4.62 -2 7 C-2.99 6.67 -3.98 6.34 -5 6 C-3.35 4.02 -1.7 2.04 0 0 Z " fill="#534339" transform="translate(274,18)"/>
<path d="M0 0 C0.99 0.33 1.98 0.66 3 1 C1.35 2.32 -0.3 3.64 -2 5 C-2.66 4.34 -3.32 3.68 -4 3 C-2.19 1.44 -2.19 1.44 0 0 Z " fill="#313641" transform="translate(155,35)"/>
<path d="M0 0 C1.32 0 2.64 0 4 0 C3.67 0.99 3.34 1.98 3 3 C1.35 3 -0.3 3 -2 3 C-1 1 -1 1 0 0 Z " fill="#C1C5C8" transform="translate(285,101)"/>
<path d="M0 0 C0.66 0 1.32 0 2 0 C2 2.64 2 5.28 2 8 C1.67 8 1.34 8 1 8 C1 6.35 1 4.7 1 3 C0.34 3 -0.32 3 -1 3 C-0.67 2.01 -0.34 1.02 0 0 Z " fill="#E5EFEE" transform="translate(355,86)"/>
<path d="M0 0 C1.32 0 2.64 0 4 0 C3.67 1.32 3.34 2.64 3 4 C2.34 4 1.68 4 1 4 C0.67 2.68 0.34 1.36 0 0 Z " fill="#100B0A" transform="translate(36,39)"/>
<path d="M0 0 C2.92 1.07 4.78 1.78 7 4 C6.01 4.33 5.02 4.66 4 5 C2.68 3.35 1.36 1.7 0 0 Z " fill="#342C2B" transform="translate(31,35)"/>
<path d="M0 0 C0 0.99 0 1.98 0 3 C-2 4.69 -2 4.69 -4 6 C-3.69 4.12 -3.69 4.12 -3 2 C-2.01 1.34 -1.02 0.68 0 0 Z " fill="#37353C" transform="translate(454,34)"/>
<path d="M0 0 C0.66 0 1.32 0 2 0 C0.63 3.16 0.01 3.99 -3 6 C-1.12 1.12 -1.12 1.12 0 0 Z " fill="#483D41" transform="translate(428,83)"/>
<path d="M0 0 C0.66 0.66 1.32 1.32 2 2 C0.62 4 0.62 4 -1 6 C-1.66 6 -2.32 6 -3 6 C-1.12 1.12 -1.12 1.12 0 0 Z " fill="#574C4B" transform="translate(257,83)"/>
<path d="M0 0 C0.33 0.66 0.66 1.32 1 2 C1.99 2.33 2.98 2.66 4 3 C2.68 3.99 1.36 4.98 0 6 C0 4.02 0 2.04 0 0 Z " fill="#7692AB" transform="translate(439,82)"/>
<path d="M0 0 C0.66 0 1.32 0 2 0 C1.34 1.32 0.68 2.64 0 4 C-0.99 4 -1.98 4 -3 4 C-1.62 2 -1.62 2 0 0 Z " fill="#2C3340" transform="translate(44,34)"/>
<path d="M0 0 C0.66 0 1.32 0 2 0 C2 1.32 2 2.64 2 4 C1.01 4 0.02 4 -1 4 C-0.67 2.68 -0.34 1.36 0 0 Z " fill="#231F23" transform="translate(56,16)"/>
<path d="M0 0 C0.66 0.99 1.32 1.98 2 3 C0.68 3.99 -0.64 4.98 -2 6 C-1.34 4.02 -0.68 2.04 0 0 Z " fill="#56615A" transform="translate(359,89)"/>
<path d="M0 0 C1.32 0.66 2.64 1.32 4 2 C2.35 2.66 0.7 3.32 -1 4 C-0.67 2.68 -0.34 1.36 0 0 Z " fill="#72675F" transform="translate(164,68)"/>
<path d="M0 0 C1.32 0.66 2.64 1.32 4 2 C2.35 2.66 0.7 3.32 -1 4 C-0.67 2.68 -0.34 1.36 0 0 Z " fill="#6B5F58" transform="translate(52,68)"/>
<path d="M0 0 C0.66 0.66 1.32 1.32 2 2 C0.35 2.66 -1.3 3.32 -3 4 C-2.01 2.68 -1.02 1.36 0 0 Z " fill="#887C74" transform="translate(253,88)"/>
<path d="M0 0 C0.66 0.66 1.32 1.32 2 2 C1.01 2.33 0.02 2.66 -1 3 C-1.33 3.66 -1.66 4.32 -2 5 C-1.12 1.12 -1.12 1.12 0 0 Z " fill="#727073" transform="translate(141,88)"/>
<path d="M0 0 C0.99 0 1.98 0 3 0 C3 0.99 3 1.98 3 3 C2.01 3 1.02 3 0 3 C0 2.01 0 1.02 0 0 Z " fill="#C8EEDB" transform="translate(452,77)"/>
<path d="M0 0 C0.82 0.16 0.82 0.16 5 1 C5 1.66 5 2.32 5 3 C4.18 2.67 4.18 2.67 0 1 C0 0.67 0 0.34 0 0 Z " fill="#67696F" transform="translate(172,23)"/>
<path d="M0 0 C1.94 0.38 1.94 0.38 4 1 C4.33 1.66 4.66 2.32 5 3 C3.06 2.62 3.06 2.62 1 2 C0.67 1.34 0.34 0.68 0 0 Z " fill="#50423C" transform="translate(59,22)"/>
<path d="M0 0 C0.99 0.33 1.98 0.66 3 1 C2.01 1.99 1.02 2.98 0 4 C-0.33 3.34 -0.66 2.68 -1 2 C-0.67 1.34 -0.34 0.68 0 0 Z " fill="#090709" transform="translate(275,18)"/>
<path d="M0 0 C0.66 0.66 1.32 1.32 2 2 C1.34 2.33 1.34 2.33 -2 4 C-1.34 2.68 -0.68 1.36 0 0 Z " fill="#D5E7F4" transform="translate(431,82)"/>
<path d="M0 0 C0.99 0.33 1.98 0.66 3 1 C2.34 1.33 2.34 1.33 -1 3 C-0.67 2.01 -0.34 1.02 0 0 Z " fill="#E5F1F9" transform="translate(168,78)"/>
<path d="M0 0 C0.83 0.17 0.83 0.17 5 1 C4.34 1.66 3.68 2.32 3 3 C2.01 2.01 1.02 1.02 0 0 Z " fill="#242429" transform="translate(54,68)"/>
<path d="M0 0 C0.33 0.99 0.66 1.98 1 3 C0.01 3.33 -0.98 3.66 -2 4 C-1.34 2.68 -0.68 1.36 0 0 Z " fill="#79685E" transform="translate(356,22)"/>
<path d="M0 0 C0.66 0.66 1.32 1.32 2 2 C1.5 2.33 1.5 2.33 -1 4 C-0.67 2.68 -0.34 1.36 0 0 Z " fill="#555258" transform="translate(342,84)"/>
<path d="M0 0 C0.66 0 1.32 0 2 0 C1.67 0.99 1.34 1.98 1 3 C0.34 2.34 -0.32 1.68 -1 1 C-0.67 0.67 -0.34 0.34 0 0 Z " fill="#64656B" transform="translate(44,34)"/>
<path d="M0 0 C0.99 0.33 1.98 0.66 3 1 C2.34 1.66 1.68 2.32 1 3 C0.67 2.01 0.34 1.02 0 0 Z " fill="#D6D6C8" transform="translate(363,22)"/>
<path d="M0 0 C0.66 0.66 1.32 1.32 2 2 C1.01 2.33 0.02 2.66 -1 3 C-0.67 2.01 -0.34 1.02 0 0 Z " fill="#766B6D" transform="translate(162,23)"/>
<path d="M0 0 C0.66 0.66 1.32 1.32 2 2 C1.01 2 0.02 2 -1 2 C-0.67 1.34 -0.34 0.68 0 0 Z " fill="#7F8180" transform="translate(424,88)"/>
</svg>
