<?xml version="1.0" encoding="UTF-8"?>
<svg xmlns="http://www.w3.org/2000/svg" viewBox="0 0 308 259" width="308" height="259" shape-rendering="geometricPrecision">
<path d="M134.67 210.65C128.46 210.18 119.28 208.1 114.83 206.15C114.28 205.91 113.08 205.39 112.17 205C108.75 203.55 104.19 201.04 101 198.87C89.27 190.88 80.69 180.47 75.1 167.42C73.52 163.72 73.15 162.6 71.85 157.5C70.49 152.17 70.34 151.26 69.81 145.18C69.53 141.88 69.25 139.13 69.19 139.07C69.13 139.01 65.16 138.94 60.37 138.9L51.67 138.83L51.67 151.71C51.67 163.84 51.63 164.64 51.04 165.37C50.5 166.03 50.33 166.08 49.87 165.7C49.39 165.3 49.33 163.82 49.33 152.31C49.33 143.46 49.22 139.3 48.98 139.15C48.78 139.03 44.51 138.91 39.49 138.88C30.13 138.83 29.32 138.72 29.78 137.52C29.95 137.07 31.14 137 39.28 137C46.7 137 48.66 136.91 48.96 136.55C49.24 136.22 49.31 119.44 49.25 73.3L49.17 10.5L48 10.33C46.95 10.18 46.84 10.06 46.88 9.16C46.91 8.62 47.55 6.85 48.3 5.25C50.17 1.29 50.47 1.33 52.67 5.85C54.54 9.68 54.54 10.33 52.63 10.33L51.67 10.33L51.67 73.67L51.67 137L60.27 137C66.66 137 69 136.89 69.38 136.58C70 136.07 70.95 132.87 71.26 130.17C71.46 128.49 71.61 128.15 72.2 128.07C72.58 128.01 73.08 128.2 73.32 128.48C74.04 129.35 74.57 129.08 75.9 127.17C76.91 125.71 77.35 125.34 78.08 125.34C79.34 125.33 79.27 126.05 77.83 128C76.49 129.83 76.37 130.72 77.39 131.4C77.82 131.68 78.04 132.09 77.93 132.38C77.82 132.65 76.29 133.61 74.53 134.51C72.77 135.41 71.33 136.33 71.33 136.57C71.33 136.92 89.92 137 171.49 137C270.01 136.99 271.65 136.98 271.99 136.35C272.18 136 272.33 135.33 272.33 134.86C272.33 134.29 272.52 134 272.87 134C273.77 134 280.37 137.39 280.25 137.79C280.11 138.26 273.71 141.64 272.92 141.65C272.5 141.66 272.33 141.4 272.33 140.75C272.33 140.25 272.2 139.64 272.05 139.41C271.84 139.07 265.69 138.97 241.77 138.91L211.76 138.83L211.54 142.63C210.39 162.87 201.69 180.58 186.48 193.66C180.85 198.51 172.04 203.96 167 205.72C163.88 206.8 158.24 208.57 156.67 208.96C150.3 210.51 141.62 211.18 134.67 210.65ZM148.33 208.36C151.43 208.01 152.26 207.86 156.67 206.82C166.2 204.59 176.36 199.5 184 193.14C187.15 190.52 193.01 184.51 195.2 181.67C203.3 171.11 208.57 157.41 209.17 145.33C209.28 143.22 209.42 141.12 209.49 140.65C209.56 140.18 209.51 139.62 209.37 139.4C209.18 139.09 193.74 138.98 140.4 138.91L71.67 138.83L71.67 141.67C71.67 145.88 72.97 154.98 74 158C74.16 158.46 74.62 159.96 75.03 161.33C77.17 168.54 81.51 176.55 86.86 183.18C93.14 190.96 100.25 196.76 108.84 201.13C116.56 205.06 122.24 206.89 130.17 208C131.45 208.18 133.47 208.47 134.67 208.64C137.18 209.01 143.78 208.87 148.33 208.36ZM244.49 151.17C241.43 147.96 240.9 147.94 240.67 151C240.51 153.04 240.45 153.17 239.67 153.17L238.83 153.17L238.74 147.25L238.65 141.33L241.52 141.33C244.7 141.33 246.07 141.93 246.7 143.59C247.09 144.62 246.59 146.33 245.65 147.18C245.29 147.5 245 147.94 245 148.14C245 148.35 245.75 149.41 246.66 150.51C247.57 151.6 248.32 152.61 248.32 152.74C248.33 152.87 248.02 153.14 247.63 153.35C247.01 153.69 246.68 153.46 244.49 151.17ZM250.65 152.36C249.39 151.04 249.33 150.87 249.33 148.81C249.33 146.82 249.42 146.56 250.47 145.41C251.56 144.23 251.72 144.17 253.67 144.17C255.57 144.17 255.8 144.25 256.69 145.26C257.42 146.07 257.67 146.68 257.67 147.66C257.67 149.37 257.09 149.67 253.86 149.67C251.09 149.67 250.85 149.88 252.18 151.22C253.06 152.09 253.86 152.14 256.37 151.5C257.42 151.23 257.85 151.96 257.18 152.87C256.85 153.33 256.16 153.51 254.35 153.61L251.97 153.74L250.65 152.36ZM255.18 147.32C255.53 146.75 254.66 146 253.65 146C252.29 146 251.67 146.32 251.67 147.04C251.67 147.57 251.92 147.67 253.31 147.67C254.22 147.67 255.06 147.51 255.18 147.32ZM243.85 146.12C244.75 145.15 244.9 144.26 244.25 143.76C243.62 143.26 242.27 143 241.43 143.21C240.77 143.38 240.67 143.62 240.67 144.98C240.67 145.85 240.77 146.66 240.89 146.78C241.43 147.32 243.07 146.96 243.85 146.12ZM208.22 133.77C207.99 133.55 208.06 132.89 208.7 129.17C209.3 125.72 209.32 125.67 209.97 125.67C210.31 125.67 210.77 125.89 211 126.17C211.69 127 212.19 126.75 213.68 124.82C214.72 123.47 215.29 122.99 215.8 123.07C216.88 123.22 216.79 124.07 215.51 125.75C214.15 127.54 214.03 128.42 215.08 129.15C216.18 129.92 215.61 130.55 212.14 132.39C209.1 134 208.61 134.17 208.22 133.77ZM86.32 115.66C84.62 113.83 84.63 110.65 86.35 108.93C87.93 107.35 89.8 107.94 88.29 109.55C87.66 110.22 87.51 110.74 87.51 112.34C87.51 114.56 87.99 115.38 88.93 114.78C89.36 114.49 89.48 114.02 89.41 112.79C89.27 110.42 89.53 109.67 90.48 109.67C91.51 109.67 91.78 110.49 91.49 112.77C91.23 114.86 91.76 115.66 92.86 114.85C93.37 114.48 93.5 113.97 93.5 112.33C93.5 110.6 93.38 110.18 92.75 109.67C92.34 109.33 92 108.8 92 108.49C92 107.61 93.99 108.14 94.88 109.26C96.45 111.2 96.25 114.08 94.45 115.66C93.18 116.78 92.48 116.9 91.44 116.17C90.81 115.73 90.6 115.73 89.54 116.17C87.86 116.87 87.39 116.8 86.32 115.66ZM111.78 116.18C110.5 115.28 110 113.63 110 110.28C110 105.68 111.07 104.01 114 104.01C115.56 104.01 116.66 104.61 117.57 105.97C118.22 106.93 118.33 107.53 118.33 110.06C118.33 113.29 117.71 115.13 116.26 116.14C115.32 116.8 112.7 116.82 111.78 116.18ZM115.36 114.14C116.09 113.36 116.17 112.99 116.17 110.34C116.17 107.04 115.65 106 113.99 106C112.48 106 112.17 106.75 112.17 110.35C112.17 113.07 112.27 113.71 112.8 114.3C113.64 115.23 114.38 115.18 115.36 114.14ZM224.2 113.95C223.1 113 222.61 111.06 222.98 109.09C223.29 107.42 224.02 106.48 225.24 106.18C226.56 105.85 226.94 106.5 226.01 107.49C225.36 108.18 225.22 108.69 225.22 110.31C225.22 111.46 225.41 112.52 225.66 112.82C226.06 113.3 226.15 113.3 226.74 112.77C227.27 112.29 227.34 111.92 227.16 110.61C226.87 108.52 227.17 107.67 228.18 107.67C229.17 107.67 229.5 108.7 229.19 110.76C228.91 112.63 229.51 113.6 230.5 112.87C231.04 112.48 231.17 112 231.17 110.33C231.17 108.6 231.05 108.18 230.42 107.67C229.56 106.97 229.42 106 230.18 106C231.23 106 232.59 107.01 233.16 108.2C234.08 110.14 233.7 112.2 232.17 113.6C231.15 114.54 230.8 114.68 230.06 114.46C229 114.15 227.18 114.16 225.97 114.49C225.32 114.67 224.88 114.53 224.2 113.95ZM98.29 113.58C97.89 113.44 97.66 113.1 97.73 112.75C97.83 112.23 98.36 112.16 102.43 112.07C106.37 111.99 107.04 112.06 107.22 112.51C107.33 112.81 107.28 113.19 107.11 113.36C106.72 113.74 99.22 113.93 98.29 113.58ZM248.33 112.42C246.86 111.85 246.5 109.16 247.73 108.01C248.66 107.15 249.66 107.15 251.15 108.03L252.33 108.73L253.52 108.03C255.39 106.93 256.71 107.21 257.61 108.89C258.22 110.03 258.08 110.64 256.99 111.73C256.14 112.58 255.8 112.71 254.93 112.54C254.35 112.42 253.59 112.07 253.25 111.75C252.65 111.21 252.55 111.22 251.32 111.92C250.04 112.66 249.28 112.79 248.33 112.42ZM235.67 111.6C235.23 111.44 234.99 111.11 235.06 110.75C235.16 110.24 235.67 110.15 239.17 110.07C241.37 110.02 243.5 110.06 243.92 110.16C244.68 110.35 244.93 111.13 244.35 111.49C243.84 111.8 236.47 111.9 235.67 111.6ZM256.33 109.98C256.33 109.18 255.63 108.85 254.5 109.14C253.48 109.39 253.43 110.13 254.38 110.8C255.27 111.42 256.33 110.97 256.33 109.98ZM250.8 110.24C251.08 109.78 251.05 109.57 250.67 109.33C249.37 108.5 247.98 109.26 248.46 110.52C248.73 111.21 250.31 111.02 250.8 110.24ZM98.25 110.31C97.52 109.88 97.49 109.14 98.19 108.87C98.48 108.76 100.42 108.67 102.5 108.67C104.58 108.67 106.52 108.76 106.81 108.87C107.53 109.15 107.47 109.9 106.69 110.32C105.86 110.77 99.02 110.75 98.25 110.31ZM235.4 108.27C234.85 107.71 234.9 107.11 235.53 106.87C235.82 106.76 237.75 106.67 239.83 106.67C241.91 106.67 243.85 106.76 244.14 106.87C244.86 107.15 244.8 107.9 244.02 108.32C243.1 108.82 235.9 108.77 235.4 108.27ZM21.08 27.45C20.44 27.19 20.59 26.21 21.33 25.74C21.94 25.37 22 24.97 22 21.34C22 17.7 21.94 17.33 21.33 17C20.97 16.8 20.67 16.35 20.67 15.99C20.67 15.4 20.9 15.33 22.98 15.33C24.25 15.33 25.38 15.48 25.49 15.65C25.6 15.83 25.39 16.28 25.01 16.65C24.4 17.26 24.33 17.75 24.33 21.42C24.33 25.21 24.38 25.54 25.03 25.94C25.7 26.36 25.7 26.41 25.15 27.02C24.72 27.49 24.15 27.66 23.03 27.64C22.19 27.63 21.31 27.54 21.08 27.45ZM27.54 26.81C27.24 26.03 27.3 19.24 27.61 18.75C27.76 18.51 28.39 18.33 29.02 18.34C29.65 18.35 30.72 18.27 31.4 18.15C32.23 18 32.97 18.1 33.68 18.46C34.62 18.92 34.84 18.93 35.68 18.49C37.63 17.48 39.79 18.07 40.52 19.82C41.12 21.26 41.18 26.36 40.6 26.93C40.38 27.15 39.93 27.33 39.6 27.33C39.07 27.33 39 26.99 38.99 24.25C38.98 20.77 38.64 20 37.11 20C35.58 20 35.33 20.51 35.33 23.67C35.33 26.62 35.06 27.33 33.94 27.33C33.2 27.33 33.02 26.6 32.92 23L32.83 20.17L31.73 20.06C29.95 19.89 29.67 20.37 29.67 23.64C29.67 25.45 29.52 26.68 29.27 26.93C28.7 27.5 27.78 27.43 27.54 26.81Z" fill="#1e2749" fill-rule="evenodd"/>
</svg>
