<?xml version="1.0" encoding="UTF-8"?>
<svg xmlns="http://www.w3.org/2000/svg" viewBox="0 0 2430 1076" width="2430" height="1076" shape-rendering="geometricPrecision">
<path d="M36.78 1009.04C33.45 1006.42 27.82 995.5 23.84 983.94C20.69 974.79 20.59 974.02 20.69 959C20.78 946.86 21.24 941.85 22.83 935.87C25.13 927.2 31.97 912.94 35.52 909.39C37.8 907.11 43 906.05 43 907.86C43 908.33 41.38 912.22 39.41 916.49C37.43 920.76 34.67 928.59 33.26 933.88C31.05 942.17 30.7 945.58 30.7 958.5C30.7 971.43 31.05 974.83 33.27 983.15C34.68 988.45 37.45 996.48 39.43 1000.97C41.41 1005.47 42.77 1009.57 42.45 1010.08C41.55 1011.54 39.47 1011.16 36.78 1009.04ZM342.5 1010.01C342.17 1009.46 343.75 1004.85 346.01 999.76C358.11 972.57 357.75 943.92 344.95 915.39C341.48 907.66 341.4 907 343.87 907C347.4 907 351.05 911.2 355.46 920.34C363.42 936.83 364.5 941.43 364.48 958.5C364.46 971.3 364.12 974.6 362.15 981C358.83 991.77 353.52 1002.37 349.12 1006.99C345.26 1011.05 343.61 1011.8 342.5 1010.01ZM560.41 1009.85C555.72 1007.58 546.08 986.88 543.92 974.44C543.17 970.13 542.92 962.52 543.26 954.02C543.85 938.94 546.08 930.34 552.63 917.88C557.19 909.21 559.49 906.8 562.84 907.19C566 907.56 566.03 907.35 561.54 917.59C556.16 929.89 553.88 939.84 553.27 953.76C552.48 971.79 555.55 987.42 563 1003.17C566.61 1010.79 565.94 1012.53 560.41 1009.85ZM803 1008.97C803 1007.86 804.35 1004.28 805.99 1001.02C810.06 992.95 813.8 979.6 815.04 968.69C816.84 952.73 813.47 933.11 806.07 916.66C801.8 907.13 802 905.68 807.27 908.08C813.25 910.8 823.37 933.72 825.04 948.32C826.34 959.61 824.71 975.9 821.36 985.24C816.82 997.9 811.27 1007.17 806.72 1009.69C803.62 1011.42 803 1011.3 803 1008.97ZM1580.59 1008.75C1577.75 1006.21 1571.32 993.67 1567.88 983.98C1565.93 978.49 1565.53 975.02 1565.21 961.31C1564.88 947.38 1565.12 943.96 1566.91 936.89C1569.26 927.61 1576.01 912.9 1579.55 909.36C1581.81 907.1 1587 906.06 1587 907.86C1587 908.34 1585.65 911.7 1584.01 915.33C1576.5 931.87 1572.99 952.3 1574.88 968.33C1576.3 980.36 1579.33 991.68 1583.6 1000.92C1585.5 1005.04 1586.83 1008.99 1586.56 1009.7C1585.81 1011.65 1583.41 1011.27 1580.59 1008.75ZM1835 1008.97C1835 1007.86 1836.35 1004.28 1837.99 1001.02C1842.04 993.01 1845.55 980.45 1846.93 969.12C1848.9 952.95 1845.6 933.41 1838.07 916.66C1834.66 909.07 1834.31 907 1836.42 907C1841.29 907 1848.53 918.52 1854.07 935.05C1856.83 943.29 1857.08 945.15 1857.08 957.76C1857.08 968.37 1856.61 973.31 1855.03 979.45C1852.16 990.56 1845.99 1002.87 1841.05 1007.34C1836.45 1011.5 1835 1011.89 1835 1008.97ZM2046.1 1009.36C2043.01 1007.19 2033.6 987.57 2031.46 978.82C2030.1 973.3 2029.86 968.7 2030.21 955.71C2030.61 941.36 2030.97 938.58 2033.39 931.5C2036.57 922.19 2042.23 911.26 2045.17 908.75C2047.32 906.92 2052 906.34 2052 907.91C2052 908.41 2050.62 911.89 2048.93 915.66C2041.32 932.6 2038.04 952.05 2040 968.54C2041.36 979.88 2044.7 992.17 2049.01 1001.67C2050.65 1005.3 2052 1008.89 2052 1009.64C2052 1011.5 2048.95 1011.35 2046.1 1009.36ZM2362 1008.97C2362 1007.86 2363.35 1004.28 2364.99 1001.02C2369.04 993.01 2372.55 980.45 2373.93 969.12C2375.9 952.95 2372.6 933.41 2365.07 916.66C2360.8 907.13 2361 905.68 2366.27 908.08C2370.74 910.11 2378.26 924.62 2382.54 939.45C2385.07 948.2 2384.82 968.87 2382.06 979.45C2379.14 990.61 2372.98 1002.88 2368.05 1007.34C2363.45 1011.5 2362 1011.89 2362 1008.97ZM227 1002.39C227 1000.96 228.35 998.08 230 996C231.65 993.92 233 991.55 233 990.73C233 989.89 231.71 988.99 230 988.65C227.1 988.07 227 987.87 227 982.48L227 976.9L233.25 977.2L239.5 977.5L239.8 982.59C240.21 989.71 236.93 998.09 232.21 1001.98C227.73 1005.67 227 1005.73 227 1002.39ZM689.04 1002.25C689.06 1000.7 690.37 998 692.04 996.04C695.86 991.57 695.85 989.42 692 988.65C689.1 988.07 689 987.87 689 982.48L689 976.9L695.25 977.2L701.5 977.5L701.43 984.5C701.34 992.74 698.85 998.48 693.66 1002.44C689.45 1005.66 688.99 1005.64 689.04 1002.25ZM1719.5 1003.99C1718.53 1002.44 1719.99 998.86 1723.14 995.02C1726.6 990.82 1726.77 989 1723.7 989C1720.23 989 1719 987.1 1719 981.75L1719 976.91L1725.75 977.2L1732.5 977.5L1732.4 983.04C1732.34 986.08 1731.73 990.28 1731.04 992.37C1729.01 998.52 1721.06 1006.52 1719.5 1003.99ZM2248.04 1002.25C2248.06 1000.7 2249.37 998 2251.04 996.04C2254.86 991.57 2254.85 989.42 2251 988.65C2248.1 988.07 2248 987.87 2248 982.48L2248 976.9L2254.25 977.2L2260.5 977.5L2260.43 984.5C2260.34 992.74 2257.85 998.48 2252.66 1002.44C2248.45 1005.66 2247.99 1005.64 2248.04 1002.25ZM169.95 988.51C164.25 986.69 161.45 983.75 159.94 978C158.49 972.51 159.84 966.54 163.5 962.19C166.25 958.92 171.51 957.22 187.46 954.46C195.75 953.03 197.88 952.27 200.21 949.95C203.71 946.44 203.7 945.54 200.08 941.92C197.65 939.5 196.33 939 192.33 939.01C184.56 939.01 180.47 940.62 176.98 945.03C174.41 948.27 173.2 949 170.42 949C167.36 949 167 948.71 167 946.25C167.01 943.14 170.08 937.6 173.33 934.86C178.99 930.08 195.04 928.45 202.5 931.89C212.44 936.48 213.53 941.37 209.08 961.24C205.36 977.83 205.26 980.27 208.23 982.23C210.19 983.54 210.31 984.02 209.26 986.33C208.6 987.77 206.92 989.23 205.51 989.59C203.08 990.2 197.02 988.45 196.98 987.13C196.98 986.78 196.58 985.88 196.1 985.12C195.38 983.99 194.24 984.23 189.8 986.4C183.07 989.69 175.98 990.45 169.95 988.51ZM300.44 987.95C289.13 983.6 285.98 976.12 285.24 951.96C284.66 933.1 285.67 927.67 291.24 919.45C295.16 913.66 299.99 910.99 307.81 910.28C321.24 909.07 330.66 915.37 334.57 928.19C336.12 933.26 336.5 937.55 336.5 950C336.5 963.52 336.21 966.34 334.23 972.06C329.12 986.85 314.92 993.52 300.44 987.95ZM631.53 988.92C621.62 986.48 617.18 975.46 622.06 965.38C624.81 959.69 629.33 957.64 644.91 955C651.74 953.84 658.14 952.46 659.14 951.93C663.79 949.44 663.9 943.48 659.36 940.5C654.43 937.27 638 940.32 638 944.47C638 947.77 629.15 950.67 627.45 947.92C626.33 946.11 629.96 938.21 633.14 935.54C639.88 929.87 656.01 928.32 664.44 932.53C673.19 936.91 674.09 942.05 669.57 961.71C666.36 975.65 666.19 981.61 669 982.5C671.67 983.35 671.52 985.16 668.56 987.95C665.42 990.89 660.01 990.15 657.27 986.4L655.43 983.87L650.47 986.4C644.74 989.32 637.23 990.32 631.53 988.92ZM763.99 989.13C756.03 986.51 751.2 981.99 748.38 974.5C746.76 970.2 746.5 966.63 746.5 949L746.5 928.5L749.45 923.18C756.04 911.28 766.05 907.45 779.87 911.55C787.4 913.79 792.4 919.26 795.25 928.38C797.1 934.34 797.46 937.79 797.44 949.5C797.4 971.22 793.26 981.77 782.62 987.19C778.22 989.44 768.14 990.49 763.99 989.13ZM1663.42 988.92C1660.96 988.33 1658.03 986.59 1656.01 984.51C1651.51 979.87 1650.69 972.34 1653.94 965.62C1656.71 959.9 1661.18 957.66 1674 955.55C1687.54 953.32 1691.88 952 1693.54 949.64C1695.66 946.61 1695.35 944.62 1692.25 941.52C1689.69 938.96 1689.06 938.8 1682.99 939.23C1676.02 939.73 1670 942.16 1670 944.47C1670 947.77 1661.15 950.67 1659.45 947.92C1658.33 946.11 1661.96 938.21 1665.14 935.54C1671.88 929.87 1688.01 928.32 1696.44 932.53C1705.07 936.85 1705.98 942.04 1701.53 961.69C1698.35 975.73 1698.2 981.61 1701 982.5C1703.67 983.35 1703.52 985.16 1700.56 987.95C1697.42 990.89 1692.01 990.15 1689.27 986.4L1687.43 983.87L1682.47 986.4C1676.75 989.32 1669.29 990.3 1663.42 988.92ZM1794 988.42C1791.53 987.54 1787.83 985.21 1785.79 983.24C1779.68 977.36 1778.72 973.24 1778.24 950.82L1777.82 931.15L1780.55 925.06C1785.49 914.06 1793.54 909.24 1805.24 910.29C1820.72 911.68 1827.98 921.38 1829.6 942.84C1830.36 953.02 1828.76 966.89 1825.95 974.4C1823.85 980 1819.56 984.74 1814.05 987.52C1809.19 989.97 1799.56 990.4 1794 988.42ZM2190.53 988.92C2180.51 986.45 2176.13 975.56 2181.06 965.38C2183.81 959.69 2188.33 957.64 2203.91 955C2217.27 952.74 2219.4 951.99 2220.98 949.04C2222.58 946.06 2222.21 944.49 2219.25 941.52C2216.69 938.96 2216.06 938.8 2209.99 939.23C2203.02 939.73 2197 942.16 2197 944.47C2197 947.77 2188.15 950.67 2186.45 947.92C2185.33 946.11 2188.96 938.21 2192.14 935.54C2198.88 929.87 2215.01 928.32 2223.44 932.53C2232.13 936.88 2233.07 942.21 2228.58 961.68C2225.36 975.65 2225.19 981.61 2228 982.5C2230.67 983.35 2230.52 985.16 2227.56 987.95C2224.42 990.89 2219.01 990.15 2216.27 986.4L2214.43 983.87L2209.47 986.4C2203.74 989.32 2196.23 990.32 2190.53 988.92ZM2322.94 989.11C2315.21 986.58 2309.67 981.45 2307.27 974.58C2305.8 970.35 2305.5 966.05 2305.5 949L2305.5 928.5L2308.45 923.18C2315.04 911.28 2325.05 907.45 2338.87 911.55C2346.4 913.79 2351.4 919.26 2354.25 928.38C2356.1 934.34 2356.46 937.79 2356.44 949.5C2356.4 971.22 2352.26 981.77 2341.62 987.19C2337.2 989.45 2327.14 990.48 2322.94 989.11ZM104.01 988.12C100.81 987.21 100.46 985.15 102.47 979.09C105.29 970.59 109.36 965.73 120.22 957.87C138.98 944.3 143.75 938.26 141.97 930.35C140.3 922.94 135.16 919 127.18 919C121.22 919 116.9 922.46 114.5 929.14C111.97 936.21 110.44 938 106.98 938C97.63 938 106.11 915.45 116.82 911.88C121.55 910.3 134.43 910.3 139.16 911.87C144.15 913.54 151.67 921.74 152.56 926.48C153.62 932.12 152.35 939.72 149.56 944.49C146.78 949.24 141.7 953.7 129.03 962.54C124.37 965.79 119.08 969.74 117.28 971.33C113.92 974.28 113.06 977.3 115.21 978.63C115.87 979.04 124.54 979.63 134.46 979.94L152.5 980.5L152.5 984.5L152.5 988.5L129.5 988.66C116.85 988.75 105.38 988.5 104.01 988.12ZM1617.16 987.69C1616.56 986.97 1615.95 981.69 1615.79 975.94L1615.5 965.5L1603.75 965.22L1592 964.94L1592 960.47L1592 956L1602.88 956C1610.62 956 1614.07 955.62 1614.84 954.69C1615.44 953.97 1616.05 948.69 1616.21 942.94C1616.48 933.36 1616.67 932.48 1618.5 932.24C1622.77 931.7 1623.44 933.31 1623.84 944.95L1624.22 956L1630.86 956.09C1642.72 956.24 1647.46 957.22 1647.8 959.59C1648.33 963.3 1645.46 964.43 1634.48 964.84L1624.22 965.22L1623.84 975.48C1623.46 985.63 1622.38 989 1619.5 989C1618.81 989 1617.76 988.41 1617.16 987.69ZM2082.2 987.74C2081.57 986.98 2080.95 981.75 2080.79 975.94L2080.5 965.5L2068.75 965.22L2057 964.94L2057 960.5L2057 956.06L2068.75 955.78L2080.5 955.5L2081 944C2081.46 933.45 2081.66 932.48 2083.5 932.24C2087.8 931.69 2088.48 933.31 2088.84 944.96L2089.18 956L2095.84 956.09C2107.71 956.24 2112.46 957.22 2112.8 959.59C2113.33 963.31 2110.46 964.43 2099.37 964.84L2089 965.23L2088.99 974.36C2088.97 983.8 2087.71 988.24 2084.88 988.78C2084.02 988.95 2082.81 988.48 2082.2 987.74ZM2125.3 988.31C2121.15 987.49 2121.44 982.13 2126.14 972.78C2128.72 967.64 2132.92 963.68 2144.57 955.35C2160.42 944.04 2164.87 937.79 2162.99 929.48C2161.55 923.07 2155.91 919 2148.48 919C2141.66 919 2137.59 922.48 2135.03 930.5C2133.33 935.82 2131.27 938 2127.95 938C2123.67 938 2123 934.72 2125.56 926.12C2129.2 913.87 2139.95 908.41 2155.4 910.97C2169.39 913.28 2176.48 924.49 2173.04 938.83C2171.37 945.79 2166.88 950.6 2152.64 960.66C2145.96 965.38 2139.26 970.4 2137.75 971.81C2134.84 974.52 2134.2 977.39 2136.21 978.63C2136.87 979.04 2145.54 979.63 2155.46 979.94L2173.5 980.5L2173.5 984.5L2173.5 988.5L2150.5 988.62C2137.85 988.69 2126.51 988.55 2125.3 988.31ZM187.74 978.85C192.27 976.05 201.25 961.82 199.21 960.67C198.82 960.45 193.38 961.29 187.12 962.53C173.07 965.33 170.62 966.91 170.19 973.38C169.9 977.82 170.05 978.12 173.19 979.49C178.03 981.59 183.71 981.34 187.74 978.85ZM315.38 979.61C321.99 976.85 325.85 968.29 326.69 954.5C327.36 943.61 325.71 932 322.71 926.59C317.48 917.15 305 915.96 299.49 924.38C296.45 929.02 294.77 940.72 295.33 953.5C295.91 967.17 296.98 971.63 300.71 976.06C304.9 981.05 309.37 982.13 315.38 979.61ZM650.62 976.92C654.67 973.02 658.53 966.85 659.58 962.59C660.25 959.89 660.13 959.74 657.9 960.38C656.58 960.76 651.9 961.72 647.5 962.51C636.92 964.43 632.45 966.5 630.91 970.21C628.17 976.82 632.86 981.34 641.78 980.71C646.16 980.39 647.67 979.75 650.62 976.92ZM780.16 976.2C785.42 970.55 787.35 963.33 787.27 949.5C787.18 931.23 784.23 923.86 775.43 919.9C768 916.55 760.42 920.63 757.75 929.4C756.96 931.99 756.5 939.76 756.5 950.5C756.5 965.86 756.71 967.95 758.68 972.22C763.21 982.02 773.03 983.84 780.16 976.2ZM1678.8 979.59C1682.61 977.6 1686.4 973.31 1689.42 967.6C1692.68 961.41 1692.77 959.54 1689.75 960.42C1688.51 960.78 1683.71 961.76 1679.09 962.6C1665.17 965.12 1661.02 968.24 1662.51 975.03C1663.67 980.33 1672.61 982.82 1678.8 979.59ZM1809.08 978.73C1816.43 973.77 1819.27 965.49 1819.18 949.26C1819.08 931.47 1815.9 923.61 1807.25 919.79C1802.99 917.9 1802.58 917.89 1798.43 919.47C1790.67 922.44 1787.78 930.85 1787.85 950.37C1787.9 967.38 1790.25 975.35 1796.3 979.04C1800.53 981.62 1804.94 981.51 1809.08 978.73ZM2209.62 976.92C2213.67 973.02 2217.53 966.85 2218.58 962.59C2219.25 959.89 2219.13 959.74 2216.9 960.38C2215.58 960.76 2210.9 961.72 2206.5 962.51C2195.92 964.43 2191.45 966.5 2189.91 970.21C2187.17 976.82 2191.86 981.34 2200.78 980.71C2205.16 980.39 2206.67 979.75 2209.62 976.92ZM2339.16 976.2C2344.1 970.9 2346.21 963.49 2346.29 951.11C2346.42 931.8 2343.02 923.23 2333.8 919.54C2329.93 917.99 2329.32 917.99 2325.36 919.5C2317.16 922.63 2314.52 931.5 2315.18 953.68C2315.53 965.04 2315.98 968.34 2317.73 972.22C2322.15 982.01 2332.02 983.84 2339.16 976.2ZM44 957.52L44 953L72.06 953L100.11 953L99.81 957.25L99.5 961.5L71.75 961.77L44 962.03L44 957.52ZM566 957.5L566 952.97L594.25 953.23L622.5 953.5L622.5 957.5L622.5 961.5L594.25 961.77L566 962.03L566 957.5ZM1743.49 883.2C1737.35 880.31 1733 874.8 1733 869.9C1733 865.98 1733.08 865.88 1736.17 866.19C1738.7 866.44 1739.54 867.11 1740.3 869.5C1741.66 873.76 1743.77 875.84 1747.87 876.97C1755.2 879 1764 873.59 1764 867.06C1764 861.98 1757.33 856 1751.67 856C1748.94 856 1746.53 853.68 1747.26 851.75C1747.53 851.05 1749.73 849.95 1752.14 849.31C1763.76 846.2 1764.61 833.83 1753.31 832.31C1748.13 831.62 1743.44 834.02 1741.66 838.27C1740 842.25 1737.52 844.41 1735.51 843.64C1731.44 842.08 1736.1 830.02 1742.01 826.86C1750.41 822.35 1762.97 825.67 1767.63 833.63C1770.68 838.84 1770.39 842.49 1766.49 847.6C1765.12 849.4 1764 851.34 1764 851.92C1764 852.5 1765.69 854.52 1767.75 856.41C1771.34 859.7 1771.5 860.13 1771.5 866.25C1771.5 871.73 1771.09 873.19 1768.69 876.34C1763.09 883.68 1751.33 886.88 1743.49 883.2ZM233.77 862.75L233.5 841.5L227.33 841.2C221.04 840.9 218.27 839.33 219.3 836.65C219.59 835.9 221.69 834.99 223.96 834.62C227.04 834.13 229.24 832.81 232.63 829.42C237.72 824.33 240.17 824.07 241.12 828.51C241.48 830.16 241.82 842.77 241.88 856.55C242.01 883.51 241.92 884 236.82 884L234.04 884L233.77 862.75ZM706.01 880.75C706.02 878.96 707.11 875.16 708.44 872.3C710.45 867.98 712.44 865.92 720.18 860.16C730.82 852.23 734.42 848.69 735.94 844.68C738.34 838.32 733.1 832 725.42 832C720.25 832 717.8 833.96 715.37 840.04C713.48 844.76 710.62 846.76 708.39 844.91C706.67 843.48 707.19 839.83 710.06 833.22C715.05 821.72 736.48 822.2 742.7 833.96C748.16 844.3 744.6 850.52 724.5 865.72C718.64 870.15 715.39 873.31 715.18 874.77C715 875.99 715.23 877.05 715.68 877.12C716.13 877.18 722.58 877.52 730 877.87C740.93 878.38 743.5 878.78 743.5 879.97C743.5 883.1 738.87 883.97 722.25 883.99L706 884L706.01 880.75ZM2254.5 882.75C2254.26 882.06 2253.93 879.25 2253.78 876.5L2253.5 871.5L2241.25 871.22L2229 870.94L2229 866.62C2229 863.17 2230.06 860.55 2234.25 853.64C2242.34 840.3 2253.2 826.01 2255.75 825.36C2260.83 824.06 2261 824.63 2261.02 843.22C2261.02 852.72 2261.36 861.02 2261.77 861.65C2262.17 862.28 2263.58 862.96 2264.9 863.15C2268.57 863.69 2269.82 866.43 2267.55 868.94C2266.53 870.07 2264.91 871 2263.95 871C2261.84 871 2261 872.96 2261 877.88C2261 879.93 2260.46 882.14 2259.8 882.8C2258.23 884.37 2255.06 884.34 2254.5 882.75ZM190.44 858.95L185.65 854.8L179.08 855.65C175.46 856.12 168.45 856.5 163.5 856.5C155.66 856.5 153.76 856.14 148.77 853.69C137.78 848.29 132.76 838.72 132.67 823C132.6 812.23 134.38 804.89 139.3 795.62C146.18 782.65 157.06 776.09 173.14 775.23C185.13 774.59 190.68 776.52 198.08 783.92C205.51 791.35 208.22 798.27 208.32 810C208.41 822.11 204.87 832.13 196.73 842.8L192.68 848.1L197.07 852.57C201.76 857.35 201.79 858.73 197.31 861.71C195.41 862.97 194.81 862.73 190.44 858.95ZM682.41 858.96C677.74 855.05 677.26 854.88 672.5 855.44C656.94 857.28 651.96 857.29 645.26 855.47C631.85 851.84 624 839.7 624 822.6C624 805.07 633.24 786.46 644.86 780.57C656.98 774.44 671.5 773.16 680.66 777.42C699.67 786.27 705.67 810.96 694.27 833.45C692.87 836.22 690.21 840.47 688.36 842.89C686.51 845.31 685 847.77 685 848.36C685 848.94 686.81 851.26 689.01 853.51L693.03 857.6L690.17 860.34L687.31 863.08L682.41 858.96ZM1708.41 858.98L1703.5 854.89L1696.5 855.7C1683.22 857.22 1673.04 856.66 1667.21 854.07C1649.77 846.32 1644.67 820.71 1655.96 797.5C1663.29 782.43 1675.86 775 1694.02 775C1700.57 775 1702.57 775.44 1707.84 778.08C1719.11 783.71 1725.08 793.75 1725.81 808.32C1726.19 815.91 1725.88 818.26 1723.58 825.32C1722.06 829.96 1719.19 835.88 1716.95 839C1710.03 848.6 1710.06 848.46 1714.84 853.33L1719.03 857.6L1716.17 860.34L1713.31 863.08L1708.41 858.98ZM2204.33 858.92L2199.5 854.89L2192.5 855.7C2179.22 857.22 2169.04 856.66 2163.21 854.07C2156.68 851.17 2150.73 844.63 2148.3 837.67C2145.54 829.76 2145.83 813.59 2148.89 804.64C2155.7 784.73 2170.81 774.23 2191.27 775.18C2201 775.63 2205.59 777.55 2211.83 783.78C2217.99 789.94 2221.25 797.63 2221.81 807.34C2222.56 820.31 2219.26 830.93 2211.04 841.95C2208.82 844.93 2207 847.74 2207 848.2C2207 848.67 2208.8 851 2211 853.38C2213.2 855.77 2215 857.93 2215 858.17C2215 858.42 2213.68 859.6 2212.08 860.79L2209.15 862.95L2204.33 858.92ZM2252.91 861.6C2254.49 859.71 2253.96 839.82 2252.32 839.27C2251.05 838.85 2236 859.51 2236 861.68C2236 863.6 2251.31 863.53 2252.91 861.6ZM173.56 846.58C175.47 845.19 175.46 845.12 173.25 842.77C172.01 841.45 171 839.75 171 839C171 837.49 174.87 833 176.17 833C176.62 833 178.81 834.64 181.02 836.64C184.93 840.17 185.1 840.22 187.04 838.47C190.41 835.41 195.74 823.5 196.93 816.32C199.4 801.52 193.4 788.6 182.37 784.96C177.44 783.33 166.92 784.38 161.41 787.04C153.86 790.7 147.57 799.86 144.49 811.69C141.66 822.57 143.25 832.9 148.97 840.8C151.22 843.9 153.15 845.29 156.73 846.39C162.94 848.3 171.08 848.39 173.56 846.58ZM665.17 846.91C667.17 845.84 667.16 845.77 664.51 843.01C661.31 839.67 661.51 837.45 665.26 834.66L668.01 832.6L672.35 836.85L676.68 841.1L679.2 837.8C693.19 819.42 691.87 792.84 676.62 785.91C668.06 782.03 654.82 784.36 647.58 791.03C637.54 800.29 632.33 818.86 636.05 832.22C637.8 838.56 642.91 844.28 648.53 846.21C654.24 848.17 662.19 848.5 665.17 846.91ZM1691.11 846.94C1693.03 845.91 1693.02 845.81 1690.54 842.87C1689.14 841.21 1688 839.41 1688 838.88C1688 837.68 1692.59 833 1693.76 833C1694.23 833 1696.13 834.58 1698 836.5C1699.87 838.42 1701.89 840 1702.51 840C1703.9 840 1707.03 835.82 1710.02 829.97C1718.91 812.57 1715.41 791.72 1702.62 785.91C1697.57 783.62 1690.09 783.49 1683.12 785.56C1658.82 792.77 1652.43 839.53 1674.81 846.42C1680.43 848.15 1688.38 848.4 1691.11 846.94ZM2187.16 846.91C2189.17 845.84 2189.17 845.81 2187.24 843.66C2186.17 842.47 2184.98 840.95 2184.6 840.27C2183.68 838.64 2185.53 835.32 2188.13 833.93C2189.94 832.96 2190.76 833.33 2194.14 836.63C2199.15 841.53 2200.16 840.95 2205.81 829.92C2209.41 822.89 2210.22 820.25 2210.7 813.89C2212.4 791.24 2199.37 779.54 2179.12 785.56C2154.82 792.77 2148.43 839.53 2170.81 846.42C2176.47 848.16 2184.38 848.4 2187.16 846.91ZM163.52 748.4C158.7 746.64 153.26 741.65 151.38 737.28C149.74 733.46 149.56 722.3 151.07 718.32C153.71 711.33 161.11 707.04 170.5 707.04C180.25 707.04 187.08 711.39 192.2 720.85L193.91 724L417.18 723.75L640.45 723.5L643.08 718.52C644.53 715.79 647.39 712.19 649.43 710.54C652.66 707.93 654.11 707.48 660.49 707.16C664.58 706.95 669.44 707.32 671.46 707.99C675.89 709.45 681.08 714.62 683.5 719.99L685.3 724L910.72 724C1058.88 724 1136.77 723.66 1138 723C1139.81 722.03 1139.86 715.41 1139.89 489.75C1139.9 362.01 1140.23 228.21 1140.61 192.42C1140.99 156.62 1141 126.16 1140.64 124.71C1140.18 122.88 1138.71 121.52 1135.74 120.2C1126.38 116.03 1122.19 107.81 1123.2 95.61C1124.66 78.01 1149.24 71.55 1160.9 85.7C1169.67 96.33 1166.41 111.37 1153.71 118.9L1147.98 122.29L1148.24 422.9L1148.5 723.5L1412.9 723.5L1677.29 723.5L1680.9 717.5C1685.89 709.19 1690.64 706.76 1701.09 707.19C1710.44 707.57 1714.92 710.26 1719.9 718.48L1723.25 724L1942.85 723.75L2162.46 723.5L2164.48 720.07C2165.59 718.19 2168.3 714.76 2170.5 712.45C2181.35 701.04 2201.82 706.56 2206.44 722.13C2207.3 725.01 2207.99 728.29 2207.98 729.43C2207.94 733.24 2204.35 739.46 2199.76 743.67C2188.15 754.33 2172.78 751.23 2165.39 736.75L2162.97 732L1942.58 732L1722.2 732L1721.18 734.9C1719.7 739.15 1713.1 746.04 1708.5 748.13C1697.81 753 1684.91 747.66 1679.81 736.25L1677.91 732L1182.14 732L686.37 732L682.44 737.71C674.35 749.44 664.35 752.85 653.53 747.56C649.09 745.38 647.23 743.64 643.81 738.44L639.58 732L416.44 732L193.3 732L191.54 735.9C186.5 747.1 174.53 752.43 163.52 748.4ZM1077.48 305.75C1077.18 304.51 1077.84 299.06 1078.96 293.64C1080.08 288.22 1081 283.38 1081 282.89C1081 281.4 1078.73 281.89 1073.58 284.5C1063.13 289.81 1050.32 286.26 1045.34 276.67C1041.19 268.69 1041.76 253.61 1046.6 243.38C1054.28 227.14 1075.91 221.79 1087.72 233.22C1091.03 236.42 1091.44 236.26 1092.2 231.5C1092.6 229 1099.37 226.97 1101.2 228.8C1102.08 229.68 1100.49 238.93 1094.57 267.23C1090.28 287.73 1086.36 305.29 1085.85 306.25C1085.25 307.4 1083.75 308 1081.48 308C1078.74 308 1077.92 307.54 1077.48 305.75ZM1073.03 276.35C1081.95 270.38 1086.12 262.93 1086.79 251.78C1087.25 244.07 1087.25 244.05 1083.82 240.62C1077.15 233.95 1066.01 234.66 1059.59 242.16C1053.02 249.84 1050.24 265.15 1054.3 271.34C1058.3 277.44 1067.65 279.94 1073.03 276.35ZM1220.78 141.04C1214.56 136.15 1205.56 112.98 1204.45 99C1203.63 88.79 1205.36 71.18 1207.9 63.8C1210.53 56.15 1216.75 44.16 1219.53 41.38C1221.64 39.26 1227 38 1227 39.62C1227 39.97 1225.4 43.8 1223.44 48.13C1221.48 52.47 1218.71 60.4 1217.29 65.76C1215.05 74.18 1214.7 77.53 1214.7 90.5C1214.7 103.47 1215.05 106.82 1217.29 115.24C1218.71 120.6 1221.51 128.59 1223.5 132.99C1225.49 137.4 1226.84 141.45 1226.5 142C1225.55 143.54 1223.52 143.2 1220.78 141.04ZM1483.49 141.99C1483.15 141.43 1484.7 137 1486.93 132.14C1493.87 117.1 1495.36 109.91 1495.4 91.5C1495.43 73.21 1493.92 65.68 1486.88 49.14C1484.69 43.99 1483.14 39.53 1483.43 39.24C1483.72 38.94 1485.39 39.11 1487.14 39.61C1490.93 40.7 1494.6 46.79 1501.17 62.93L1505.48 73.5L1505.49 89.5C1505.5 108.11 1504.39 113.44 1497.52 127.6C1492.24 138.48 1485.56 145.33 1483.49 141.99ZM1364 134.19C1364 132.46 1365.21 129.75 1367 127.5C1368.65 125.42 1370 123.17 1370 122.49C1370 121.81 1368.65 120.98 1367 120.65C1364.1 120.07 1364 119.87 1364 114.48L1364 108.9L1370.25 109.2L1376.5 109.5L1376.81 113.28C1377.18 117.76 1374.56 127.42 1372 130.98C1371.01 132.37 1368.8 134.31 1367.1 135.31L1364 137.11L1364 134.19ZM1313.59 119.99C1307.06 117.44 1303.46 113.79 1300.83 107.07C1298.95 102.25 1298.6 98.99 1298.24 83C1297.85 65.8 1297.97 64.09 1300.02 58.66C1302.9 50.98 1309.01 44.6 1315 42.99C1320.87 41.41 1330.93 42.25 1335.71 44.72C1340.62 47.26 1345.54 53.74 1347.52 60.29C1349.77 67.75 1350.51 84.04 1349.06 94.07C1346.92 108.87 1342.09 116.33 1332.26 120C1325.64 122.48 1319.96 122.48 1313.59 119.99ZM1439.13 120.56C1436.72 119.78 1432.93 117.67 1430.69 115.87C1428.46 114.08 1426.48 113.03 1426.3 113.55C1424.78 117.9 1423.2 119.52 1420.23 119.81C1417.35 120.09 1417 119.85 1417 117.55C1417 115.02 1430.02 52.04 1432.05 44.75C1433.03 41.22 1433.33 41 1437.08 41C1439.66 41 1441.26 41.52 1441.63 42.47C1441.94 43.28 1441.25 48.04 1440.1 53.05C1438.26 61.01 1437.47 67.01 1438.25 67C1438.39 66.99 1440.71 65.87 1443.42 64.5C1454.98 58.63 1468.85 63.15 1474.1 74.5C1476.49 79.64 1476.6 91.24 1474.34 99.28C1470.19 114.09 1452.37 124.86 1439.13 120.56ZM1257.29 120.2C1256.49 119.69 1255.97 115.69 1255.79 108.46L1255.5 97.5L1243.75 97.22L1232 96.94L1232 92.47L1232 88L1242.8 88C1249.87 88 1254.01 87.59 1254.8 86.8C1255.58 86.02 1256 81.99 1256 75.36C1256 69.24 1256.43 64.85 1257.06 64.46C1257.64 64.11 1259.21 64.09 1260.56 64.42C1262.95 65.02 1263 65.26 1263.02 75.27C1263.02 80.9 1263.36 86 1263.77 86.6C1264.18 87.22 1269.26 87.96 1275.41 88.3C1287.72 88.98 1289.82 90.13 1286.67 94.44C1285.57 95.93 1283.37 96.37 1274.42 96.88L1263.5 97.5L1263.23 108C1263.01 116.42 1262.62 118.75 1261.29 119.75C1259.35 121.2 1258.93 121.24 1257.29 120.2ZM1331.2 109.33C1335.58 105.17 1337.64 100.47 1338.99 91.55C1341.17 77.15 1338.45 60.6 1332.99 55.15C1328.38 50.53 1323.84 49.41 1318.31 51.52C1314.34 53.03 1313.45 53.96 1311.19 58.88C1308.91 63.86 1308.57 66.1 1308.19 78.51C1307.74 93.17 1309.09 102.16 1312.53 107.4C1316.51 113.49 1325.82 114.45 1331.2 109.33ZM1451.51 111.14C1459.75 107.39 1466.33 96.68 1466.32 87C1466.32 76.96 1461.09 71 1452.29 71C1442.76 71 1434.8 79.03 1432.01 91.44C1428.63 106.56 1438.85 116.89 1451.51 111.14Z" fill="#1e2749" fill-rule="evenodd"/>
</svg>
