<?xml version="1.0" encoding="UTF-8"?>
<svg xmlns="http://www.w3.org/2000/svg" viewBox="0 0 327 274" width="327" height="274" shape-rendering="geometricPrecision">
<path d="M121.17 230.46C120.4 230.26 118.68 229.54 117.05 228.73C114.45 227.43 111 222.38 111 219.87C111 219.46 110.85 218.98 110.66 218.79C110.47 218.6 110.22 216.73 110.11 214.64C109.74 207.59 111.52 201.78 115.11 198.41C117.34 196.31 119.21 195.45 123 194.77C125.37 194.35 126.3 194.33 128.67 194.67C131.94 195.14 135.68 196.78 137.27 198.45C138.68 199.93 140.18 202.86 140.89 205.54C141.63 208.34 141.73 215.36 141.06 217.67C139.8 221.99 139.41 222.92 138.01 224.79C136.33 227.05 133.71 228.99 131.17 229.88C129.53 230.45 122.7 230.84 121.17 230.46ZM150.33 230.43C149.88 230.34 149.39 230.09 149.26 229.88C148.96 229.42 148.91 196.29 149.2 195.53C149.46 194.85 152.74 194.78 153.29 195.44C153.52 195.73 153.69 198.4 153.74 202.86L153.83 209.83L161.46 209.92C166.74 209.99 169.22 209.9 169.53 209.64C169.88 209.35 170.01 207.65 170.08 202.21L170.17 195.17L171.99 195.06C173.42 194.98 173.9 195.09 174.24 195.54C174.85 196.37 174.85 228.11 174.25 229.31C173.75 230.29 172.07 230.8 170.87 230.35L170.01 230.02L169.92 221.93L169.83 213.83L161.75 213.74L153.67 213.65L153.67 221.62C153.67 227.6 153.56 229.67 153.25 229.93C152.69 230.4 151.35 230.62 150.33 230.43ZM129.24 226.32C131.15 225.75 134.04 223.1 135.12 220.93C135.65 219.86 136.2 217.88 136.52 215.86C136.99 212.86 136.99 212.22 136.51 209C135.92 204.91 134.99 202.73 133.11 200.96C131.02 198.98 129.74 198.55 125.88 198.57C123.18 198.59 122.19 198.73 120.96 199.29C119.14 200.12 117.19 202.16 116.36 204.11C114.5 208.45 114.59 217.39 116.52 221.51C118.62 225.96 123.84 227.94 129.24 226.32ZM133.64 191.64C132.61 190.61 133 189.26 135.3 185.78C136.37 184.16 139.27 179.76 141.74 176C144.2 172.24 148.28 166.04 150.8 162.21C153.32 158.38 155.46 155.05 155.56 154.81C155.7 154.43 155 153.01 153.17 149.94C152.98 149.64 152.6 148.96 152.31 148.44C151.8 147.53 146.51 138.34 141.4 129.5C140.02 127.12 138.68 124.79 138.43 124.33C138.17 123.88 137.7 123.05 137.37 122.5C137.04 121.95 135 118.42 132.84 114.67C125.41 101.78 123.9 99.16 123.29 98.17C122.95 97.62 122.57 96.94 122.45 96.67C122.33 96.39 121.75 95.42 121.16 94.5C120.58 93.58 119.19 91.18 118.08 89.17C116.97 87.15 115.22 84.08 114.2 82.35C113.17 80.62 112.33 78.85 112.33 78.42C112.33 77.56 113.79 74.51 115.27 72.29C115.81 71.49 116.7 70.01 117.25 69C118.45 66.84 121.21 62.05 121.68 61.33C121.86 61.06 122.11 60.61 122.23 60.34C122.36 60.07 123.56 58 124.9 55.74C126.24 53.47 127.33 51.57 127.33 51.51C127.33 51.39 132.12 43.17 132.67 42.33C132.86 42.06 133.11 41.61 133.24 41.33C133.36 41.06 134.34 39.36 135.4 37.56C136.46 35.75 137.33 34.23 137.33 34.17C137.33 34.11 138.46 32.17 139.83 29.87C141.21 27.56 142.33 25.61 142.33 25.53C142.33 25.4 147.05 17.27 147.67 16.33C147.86 16.06 148.11 15.61 148.24 15.33C148.36 15.06 149.34 13.36 150.4 11.56C151.46 9.75 152.33 8.22 152.33 8.15C152.33 7.85 155.5 2.77 156.11 2.08L156.78 1.33L200.81 1.34C250.19 1.35 245.53 1.1 246.99 3.83C247.38 4.57 247.84 5.39 248.01 5.67C248.93 7.18 252.33 13.08 252.33 13.17C252.33 13.24 253.51 15.29 254.94 17.73C256.37 20.17 258.59 23.97 259.86 26.17C261.13 28.37 262.35 30.47 262.57 30.83C262.79 31.2 263.08 31.72 263.21 32C263.35 32.27 264.33 33.98 265.39 35.78C266.46 37.59 267.33 39.11 267.33 39.17C267.33 39.24 268.51 41.29 269.94 43.73C271.37 46.17 273.59 49.97 274.86 52.17C276.13 54.37 277.35 56.47 277.57 56.83C277.79 57.2 278.08 57.73 278.21 58C278.35 58.27 279.33 59.98 280.39 61.78C281.46 63.59 282.33 65.12 282.33 65.18C282.33 65.24 283.79 67.74 285.56 70.73C287.33 73.72 289 76.72 289.27 77.4C289.72 78.55 289.7 78.71 289 79.9C288.59 80.6 287.65 82.29 286.9 83.67C285.73 85.85 277.88 99.31 276.99 100.67C276.81 100.94 276.56 101.39 276.43 101.67C276.3 101.94 275.33 103.64 274.27 105.44C273.2 107.25 272.33 108.77 272.33 108.83C272.33 108.89 271.21 110.83 269.83 113.13C268.46 115.44 267.33 117.39 267.33 117.47C267.33 117.54 266.24 119.45 264.9 121.72C263.56 123.98 262.36 126.06 262.23 126.33C262.1 126.61 261.72 127.28 261.38 127.83C261.04 128.38 259.64 130.78 258.26 133.17C256.89 135.55 253.99 140.57 251.82 144.33C249.65 148.09 247.67 151.59 247.4 152.11C247.14 152.63 246.37 153.64 245.68 154.36L244.44 155.67L202.47 155.67C179.39 155.67 160.33 155.79 160.13 155.92C159.93 156.06 157.99 158.87 155.82 162.17C153.66 165.47 150.17 170.79 148.06 174C136 192.41 136.05 192.33 134.94 192.33C134.61 192.33 134.02 192.02 133.64 191.64ZM243.23 150.58C243.6 150.17 244.58 148.63 245.4 147.17C246.82 144.61 252.17 135.33 254.23 131.83C254.77 130.92 255.32 129.94 255.45 129.67C255.58 129.39 255.87 128.87 256.1 128.5C256.32 128.13 257.54 126.03 258.81 123.83C260.08 121.63 262.29 117.84 263.73 115.39C265.16 112.95 266.33 110.9 266.33 110.84C266.33 110.78 267.46 108.83 268.83 106.51C270.21 104.19 271.33 102.24 271.33 102.18C271.33 102.11 272.46 100.17 273.83 97.87C275.21 95.56 276.33 93.61 276.33 93.53C276.33 93.42 280.78 85.73 281.65 84.33C281.83 84.06 282.52 82.78 283.19 81.5C283.87 80.22 284.57 78.98 284.75 78.75C284.97 78.47 284.97 78.19 284.75 77.92C284.56 77.69 283.77 76.3 282.99 74.83C282.21 73.37 280.57 70.44 279.35 68.33C278.12 66.22 276.08 62.7 274.81 60.5C273.54 58.3 272.35 56.25 272.17 55.95C271.98 55.64 271.6 54.96 271.31 54.44C269.82 51.77 263.72 41.23 262.61 39.41C261.91 38.26 261.33 37.26 261.33 37.18C261.33 37.11 260.21 35.15 258.83 32.82C257.46 30.5 256.33 28.55 256.33 28.49C256.33 28.43 255.16 26.38 253.73 23.94C252.29 21.5 250.08 17.7 248.81 15.5C247.54 13.3 246.32 11.2 246.1 10.83C245.87 10.47 245.58 9.94 245.45 9.67C245.32 9.39 244.7 8.3 244.09 7.25L242.97 5.33L200.91 5.42L158.85 5.5L157.12 8.31C156.17 9.86 155.04 11.79 154.61 12.59C154.18 13.4 153.68 14.31 153.5 14.61C153.32 14.92 152.13 16.97 150.86 19.17C149.59 21.37 147.37 25.16 145.94 27.61C144.51 30.05 143.33 32.1 143.33 32.16C143.33 32.22 142.21 34.17 140.83 36.49C139.46 38.81 138.33 40.76 138.33 40.82C138.33 40.89 137.21 42.83 135.83 45.13C134.46 47.44 133.33 49.39 133.33 49.47C133.33 49.54 132.24 51.45 130.9 53.72C129.56 55.98 128.36 58.06 128.23 58.33C128.1 58.61 127.72 59.28 127.38 59.83C126.82 60.75 122.68 67.95 118.64 75.04C117.74 76.62 117 78.08 117 78.27C117 78.75 117.55 79.98 118.25 81.06C119.57 83.09 121.66 86.68 123.16 89.48C124.55 92.07 127.7 97.52 128.68 99C128.86 99.27 129.11 99.72 129.23 100C129.35 100.27 130.33 101.98 131.39 103.78C132.46 105.59 133.33 107.11 133.33 107.17C133.33 107.24 134.51 109.29 135.94 111.73C137.37 114.17 139.59 117.97 140.86 120.17C142.13 122.37 143.35 124.47 143.57 124.83C143.79 125.2 144.08 125.72 144.22 126C144.35 126.27 144.9 127.25 145.44 128.17C146.47 129.93 151.08 137.9 155.26 145.17C156.63 147.55 158.04 149.91 158.4 150.42L159.05 151.33L200.8 151.33L242.55 151.33L243.23 150.58ZM237.67 141.33C236.89 140.56 236.82 139.52 237.45 138.33C238.1 137.1 239.78 134.05 240.17 133.4C240.35 133.09 241.54 131.03 242.81 128.83C244.08 126.63 246.29 122.84 247.73 120.39C249.16 117.95 250.33 115.9 250.33 115.84C250.33 115.73 254.08 109.25 254.68 108.33C254.86 108.06 255.11 107.61 255.23 107.34C255.36 107.07 256.56 105 257.9 102.74C259.24 100.47 260.33 98.57 260.33 98.51C260.33 98.45 261.43 96.55 262.77 94.28C264.11 92.02 265.31 89.94 265.44 89.67C265.57 89.39 266.09 88.48 266.59 87.65C267.09 86.81 268.54 84.26 269.8 81.98C271.07 79.7 272.4 77.5 272.78 77.08C273.56 76.21 274.55 76.12 275.59 76.85C276.47 77.47 276.61 79.35 275.83 80C275.56 80.23 275.33 80.53 275.33 80.66C275.33 80.97 273.51 84.2 269.44 91.08C267.73 93.96 266.33 96.39 266.33 96.46C266.33 96.6 261.63 104.71 260.99 105.67C260.81 105.94 260.56 106.39 260.43 106.67C260.3 106.94 259.33 108.64 258.27 110.44C257.2 112.25 256.33 113.77 256.33 113.83C256.33 113.89 255.21 115.83 253.83 118.13C252.46 120.44 251.33 122.39 251.33 122.47C251.33 122.54 250.21 124.5 248.83 126.82C247.46 129.15 246.33 131.1 246.33 131.16C246.33 131.22 245.43 132.79 244.33 134.64C243.23 136.49 242.33 138.07 242.33 138.15C242.33 138.57 240.2 141.38 239.66 141.67C238.77 142.14 238.42 142.08 237.67 141.33ZM160.24 137.75C159.74 137.22 159.33 136.69 159.33 136.57C159.33 136.44 158.43 134.83 157.33 132.97C156.23 131.12 155.33 129.55 155.33 129.49C155.33 129.43 154.16 127.38 152.73 124.94C151.29 122.5 149.08 118.7 147.81 116.5C146.54 114.3 145.35 112.25 145.17 111.95C144.98 111.64 144.6 110.96 144.31 110.44C142.7 107.55 136.63 97.08 135.11 94.57C134.13 92.96 133.33 91.58 133.33 91.5C133.33 91.42 132.69 90.26 131.9 88.93C131.11 87.59 130.36 86.27 130.22 86C130.08 85.72 129.79 85.2 129.57 84.83C127.06 80.63 126.85 79.87 127.94 78.88C128.72 78.18 129.65 78.19 130.53 78.92C131.11 79.4 135.33 86.06 135.33 86.49C135.33 86.57 136.46 88.51 137.83 90.82C139.21 93.13 140.33 95.08 140.33 95.15C140.33 95.23 141.51 97.29 142.94 99.73C144.37 102.17 146.59 105.97 147.86 108.17C149.13 110.37 150.35 112.47 150.57 112.83C150.79 113.2 151.08 113.72 151.22 114C151.35 114.27 152.56 116.35 153.9 118.62C155.24 120.88 156.33 122.79 156.33 122.87C156.33 122.99 160.96 130.93 161.66 132C161.84 132.27 162.46 133.45 163.04 134.61L164.09 136.72L163.43 137.61C162.5 138.86 161.36 138.91 160.24 137.75ZM164.8 19.34C164.42 19.19 163.9 18.58 163.66 17.98C163.24 16.96 163.26 16.86 164.12 16.12L165.04 15.33L199.64 15.33C234.14 15.33 234.25 15.34 235.12 16.02C236.27 16.93 236.23 17.75 234.97 18.8L233.95 19.67L199.72 19.65C180.9 19.63 165.19 19.5 164.8 19.34Z" fill="#1e2749" fill-rule="evenodd"/>
</svg>
