<?xml version="1.0" encoding="UTF-8"?>
<svg xmlns="http://www.w3.org/2000/svg" viewBox="0 0 2430 1614" width="2430" height="1614" shape-rendering="geometricPrecision">
<path d="M1131.5 1581.4C1130.4 1581.17 1127.15 1580.5 1124.27 1579.92C1118.34 1578.72 1115 1575.49 1115 1570.92C1115 1567.14 1116.21 1566.64 1120.71 1568.55C1130.29 1572.63 1142.95 1572.31 1149.26 1567.81C1152.91 1565.21 1155.95 1558.8 1155.98 1553.64C1156 1549.25 1152.91 1543.05 1149.67 1541.02C1148.38 1540.21 1141.93 1539.25 1133.72 1538.64C1120.47 1537.66 1119.92 1537.53 1119.35 1535.26C1119.03 1533.97 1119.09 1524.6 1119.49 1514.43L1120.22 1495.96L1141.36 1496.23L1162.5 1496.5L1162.83 1499.37C1163.01 1500.95 1162.65 1502.75 1162.03 1503.37C1161.35 1504.06 1155.09 1504.7 1146.03 1505C1137.85 1505.28 1130.81 1505.86 1130.37 1506.29C1129.94 1506.72 1129.57 1511.9 1129.54 1517.79L1129.5 1528.5L1140.5 1529.09C1153.32 1529.78 1157.73 1531.53 1163.41 1538.16C1169.83 1545.66 1170.55 1555.27 1165.47 1565.64C1162.49 1571.75 1158.52 1575.41 1151.5 1578.56C1146.7 1580.72 1135.68 1582.28 1131.5 1581.4ZM1203.5 1581.12C1199.24 1580 1192.79 1576.54 1190.87 1574.36C1188.04 1571.14 1185.04 1564.29 1183.39 1557.27C1182.17 1552.07 1181.91 1546.91 1182.25 1535C1182.64 1521.47 1183.02 1518.63 1185.27 1512.63C1189.46 1501.42 1196.72 1495.52 1207.75 1494.37C1214.88 1493.62 1225.02 1496.01 1229.62 1499.52C1241.18 1508.34 1244.77 1544.71 1236.03 1564.62C1233.51 1570.37 1227.76 1576.42 1222.44 1578.92C1217.46 1581.26 1208.14 1582.34 1203.5 1581.12ZM1287.44 1579.71C1286.62 1577.56 1287.43 1496.24 1288.28 1495.39C1289.44 1494.22 1296.04 1494.64 1297.35 1495.95C1298.1 1496.69 1298.62 1503.09 1298.85 1514.05L1299.2 1531L1313.35 1530.93C1321.13 1530.89 1329.53 1530.55 1332 1530.18L1336.5 1529.5L1337 1512.5L1337.5 1495.5L1341.82 1495.19C1349.36 1494.65 1349 1492.5 1349 1537.5C1349 1568.49 1348.71 1577.99 1347.75 1578.79C1347.06 1579.35 1344.47 1579.97 1342 1580.16L1337.5 1580.5L1337.23 1561.25L1336.96 1542L1318.13 1542L1299.31 1542L1298.63 1560.23C1298.25 1570.25 1297.62 1578.75 1297.22 1579.1C1296.82 1579.45 1294.58 1580.03 1292.22 1580.39C1289.13 1580.85 1287.81 1580.67 1287.44 1579.71ZM1365.69 1579.35C1364.43 1578.1 1364.98 1571.94 1366.64 1568.7C1367.54 1566.94 1373.39 1557.34 1379.64 1547.37C1385.89 1537.4 1391 1528.75 1391 1528.15C1391 1527.44 1386.76 1526.96 1378.75 1526.78L1366.5 1526.5L1366.2 1522.39L1365.9 1518.27L1371.09 1517.58C1373.95 1517.2 1382.75 1517.21 1390.64 1517.59L1405 1518.29L1405 1521.68C1405 1526.09 1402.34 1531.21 1389.49 1551.5C1383.65 1560.71 1379.12 1568.87 1379.41 1569.62C1379.81 1570.66 1382.34 1571 1389.72 1571.01C1395.1 1571.02 1401.21 1571.3 1403.3 1571.65C1406.96 1572.26 1407.09 1572.41 1406.8 1575.89L1406.5 1579.5L1386.44 1579.77C1375.4 1579.92 1366.06 1579.73 1365.69 1579.35ZM1218.75 1569.18C1220.32 1568.06 1222.92 1564.75 1224.53 1561.82C1227.34 1556.72 1227.48 1555.87 1227.83 1541.5C1228.54 1512.45 1224.11 1503.32 1209.75 1504.25C1199.22 1504.94 1195.28 1511.64 1194.32 1530.5C1193.63 1543.93 1195.22 1557.75 1198.13 1563.76C1201.89 1571.54 1211.79 1574.14 1218.75 1569.18ZM1424.5 1430C1424.16 1429.45 1425.52 1425.39 1427.51 1420.97C1429.51 1416.55 1431.6 1409.91 1432.15 1406.22C1433.27 1398.8 1434.7 1397 1439.49 1397C1443.7 1397 1445 1398.6 1445 1403.74C1445 1409.56 1439.2 1420.63 1432.17 1428.25C1429.63 1430.99 1425.67 1431.9 1424.5 1430ZM1274.01 1412.86C1262.14 1410.64 1255.69 1403.58 1252.29 1389.1C1250.17 1380.11 1250 1360.77 1251.95 1351.5C1254.72 1338.35 1261.39 1329.55 1270.54 1326.99C1276.87 1325.22 1289.47 1326.13 1294.5 1328.74C1304.97 1334.15 1309.3 1345.5 1309.29 1367.5C1309.28 1387.62 1306.18 1397.89 1297.78 1405.64C1291.13 1411.77 1282.37 1414.43 1274.01 1412.86ZM1117.04 1410.07C1114.22 1404.81 1116.39 1401.02 1132.5 1383.06C1138 1376.93 1144.15 1369.46 1146.18 1366.47C1155.3 1352.94 1152.57 1338.26 1140.59 1336.46C1137.39 1335.98 1134.58 1336.47 1128.93 1338.47C1119.06 1341.99 1117.58 1342.07 1117.17 1339.15C1116.48 1334.26 1117.84 1332.23 1123.75 1329.32C1128.96 1326.77 1130.5 1326.5 1140.08 1326.5C1150.08 1326.5 1150.91 1326.66 1155.5 1329.5C1162.06 1333.56 1165 1339.17 1165 1347.62C1165 1359.9 1159.92 1369.06 1142.6 1388C1136.81 1394.33 1132.06 1400.06 1132.04 1400.75C1131.99 1402.22 1131 1402.11 1152 1402.89C1168.32 1403.49 1168.5 1403.53 1168.83 1405.83C1169.01 1407.12 1168.38 1409.03 1167.43 1410.08C1165.81 1411.87 1164.08 1412 1141.88 1412C1119.36 1412 1118.01 1411.89 1117.04 1410.07ZM1186.2 1410.8C1185.54 1410.14 1185 1407.96 1185 1405.95C1185 1401.62 1186.11 1400.07 1202.29 1381.82C1216.48 1365.82 1220 1359.56 1220 1350.33C1220 1344.48 1219.72 1343.67 1216.58 1340.24C1213.3 1336.66 1212.88 1336.5 1206.83 1336.54C1202.07 1336.57 1198.96 1337.27 1194.32 1339.39C1190.93 1340.94 1187.66 1341.91 1187.07 1341.54C1185.74 1340.72 1185.67 1335.48 1186.96 1333.07C1189.68 1327.99 1208.95 1324.28 1218.81 1326.94C1228.79 1329.64 1234.74 1339.13 1233.67 1350.62C1232.61 1361.98 1227.57 1370.3 1210.1 1389.5C1205.1 1395 1201 1400 1201 1400.61C1201 1402.14 1209.17 1402.98 1224.25 1402.99L1237 1403L1237 1406.3C1237 1408.12 1236.46 1410.14 1235.8 1410.8C1234.93 1411.67 1228.02 1412 1211 1412C1193.98 1412 1187.07 1411.67 1186.2 1410.8ZM1375.53 1409.69C1372.38 1404.89 1348.12 1334.89 1347.72 1329.46C1347.51 1326.68 1347.74 1326.48 1351.5 1326.21C1353.7 1326.04 1356.26 1326.49 1357.19 1327.21C1358.12 1327.92 1361.84 1337.05 1365.47 1347.5C1382.3 1395.96 1382.35 1396.08 1383.56 1394.76C1384.2 1394.07 1389.55 1379.33 1395.45 1362C1401.35 1344.67 1406.84 1329.46 1407.65 1328.2C1408.86 1326.29 1409.84 1325.94 1413.31 1326.2C1417.32 1326.49 1417.49 1326.64 1417.36 1329.66C1417.29 1331.41 1412.86 1345.36 1407.52 1360.66C1389.11 1413.47 1389.85 1412 1381.85 1412C1377.94 1412 1376.77 1411.57 1375.53 1409.69ZM1286 1401.5C1287.59 1400.68 1289.97 1398.54 1291.29 1396.75C1296.01 1390.34 1296.5 1387.63 1296.47 1368.5C1296.45 1352.95 1296.17 1349.83 1294.47 1345.6C1292.16 1339.86 1288.82 1337.07 1283.04 1336.01C1273.87 1334.33 1267.59 1338.41 1264.86 1347.84C1262.69 1355.3 1263 1385.06 1265.31 1391.7C1267.84 1398.95 1272.6 1403 1278.58 1403C1281.07 1403 1284.4 1402.33 1286 1401.5ZM1251.5 1245.89C1216.56 1240.86 1184.68 1218.1 1169 1187.01C1162.97 1175.05 1160.56 1167.21 1157.56 1149.75L1156.91 1146L612.7 1145.89C313.39 1145.84 63.9 1145.5 58.28 1145.14C51.1 1144.69 47.61 1144.04 46.53 1142.96C45.15 1141.58 44.98 1104.27 44.92 784.93C44.88 588.86 45.17 427.19 45.55 425.65C45.97 423.97 47.3 422.42 48.88 421.77C50.73 421 124.61 420.51 300.5 420.09L549.5 419.5L549.5 403.3C549.5 392.14 549.13 386.73 548.32 385.91C547.66 385.26 541.59 383.89 534.82 382.86C490.4 376.1 471.13 365.15 475.23 349C477.57 339.79 492.16 332.57 519.5 327.1C525 326 533.55 324.58 538.5 323.94C543.45 323.3 548.06 322.32 548.75 321.77C549.56 321.11 550 317.99 550 312.98L550 305.2L544.75 298.99C541.87 295.58 528.79 282.88 515.69 270.78C485.6 242.97 479.12 235.31 469.54 216.27C461.18 199.66 459.81 193.93 459.25 173.39C458.68 152.1 459.86 144.39 466.12 128.56C488.96 70.79 555.4 26.8 620 26.68C651.6 26.62 680.59 36.33 706.95 55.79C717.66 63.7 735.04 80.93 742.97 91.5C768.06 124.95 775.23 158.74 764.84 194.5C761.9 204.61 752.38 223.86 744.32 236C732.63 253.58 721.62 266.59 700.85 287.32L681 307.14L681 315.49C681 323.8 681.01 323.84 683.75 324.37C685.26 324.67 691.45 325.85 697.5 327C725.72 332.36 739.95 339.34 743.46 349.56C748.08 363.01 732.01 373.63 696.5 380.61C688.8 382.13 682.17 383.84 681.77 384.43C681.36 385.02 681.02 393.26 681.02 402.75L681 420L1046.72 419.75L1412.43 419.5L1418.5 405.5C1428.8 381.74 1430.36 379.58 1436.32 380.72C1441.41 381.69 1443.61 385.74 1457.67 419.99C1460.71 427.4 1464.45 435.92 1465.96 438.92L1468.71 444.36L1470.24 441.93C1471.07 440.59 1475.89 429.6 1480.93 417.5C1492.7 389.3 1496.62 381.82 1500.3 380.55C1506.25 378.49 1509.69 383.69 1522.4 414.05C1527.81 426.95 1533.01 439.04 1533.98 440.93L1535.72 444.35L1537.41 441.78C1538.34 440.36 1543.73 428.25 1549.39 414.85C1562.22 384.49 1563.41 382.17 1566.75 380.9C1573.33 378.41 1576.34 382.06 1585.5 403.64C1588.73 411.27 1593.95 423.55 1597.09 430.94L1602.8 444.38L1604.89 440.94C1606.04 439.05 1611.98 425.8 1618.08 411.5C1624.19 397.2 1629.82 384.49 1630.61 383.25C1631.73 381.49 1632.97 381 1636.27 381.02C1638.6 381.02 1641.01 381.36 1641.62 381.77C1643.4 382.93 1650.06 396.83 1659 418C1663.52 428.73 1668.02 439.06 1668.99 440.96L1670.76 444.42L1673.76 438.46C1675.41 435.18 1680.87 422.82 1685.89 411C1696.74 385.44 1698.68 381.84 1702.23 380.59C1708.75 378.3 1710.78 381.38 1725.55 416.09C1736.04 440.73 1737.9 444.5 1739.02 443.37C1739.5 442.89 1745.37 429.45 1752.08 413.5C1758.79 397.55 1764.92 383.76 1765.7 382.86C1767.58 380.68 1771.64 379.98 1775.18 381.21C1778.53 382.38 1781.48 388.14 1793.4 416.8C1803.4 440.83 1805.3 444.55 1806.72 442.83C1807.32 442.1 1811.87 431.82 1816.83 420C1829.49 389.79 1831.59 385.32 1834.42 382.49C1835.79 381.12 1837.77 380 1838.82 380C1844.34 380 1848.02 386.45 1863.51 423.29C1868.49 435.13 1872.73 443.92 1873.37 443.71C1873.98 443.51 1879.5 431.36 1885.64 416.72C1899.01 384.83 1900.54 381.88 1904.35 380.88C1911.22 379.05 1913.1 381.73 1925.55 411.09C1941.02 447.55 1939.53 444.65 1941.3 441.89C1943.7 438.16 1947.26 430.28 1957.52 406C1962.75 393.62 1967.79 382.94 1968.71 382.25C1970.57 380.86 1976.81 380.59 1978.74 381.82C1980.56 382.98 1985.12 392.62 1996.48 419.33C2002.05 432.44 2007.04 443.21 2007.56 443.26C2008.08 443.32 2010.77 438.71 2013.54 433.03C2017.16 425.62 2019.28 422.42 2021.04 421.7C2022.65 421.05 2085.88 420.76 2203.46 420.86C2373.43 421.01 2383.49 421.11 2384.46 422.76C2385.03 423.72 2385.89 425.85 2386.37 427.5C2386.86 429.18 2387.45 586.9 2387.71 784.62L2388.17 1138.74L2385.1 1142.24L2382.03 1145.73L1879.88 1146.19C1405.96 1146.62 1377.66 1146.74 1376.47 1148.37C1375.78 1149.31 1374.91 1152.21 1374.55 1154.8C1372.73 1167.63 1366.3 1184.13 1358.55 1195.85C1352.5 1205 1339.87 1218.43 1331.14 1225.01C1308.78 1241.85 1278.52 1249.79 1251.5 1245.89ZM1289.12 1226.57C1304.2 1222.37 1320.91 1212.44 1331.93 1201.13C1344.22 1188.52 1351.4 1175.71 1356.14 1157.93C1358.97 1147.34 1359.2 1128.48 1356.64 1117.12C1350.81 1091.28 1333.59 1068.77 1310 1056.16C1295.22 1048.25 1285.24 1045.94 1265.91 1045.92C1250.02 1045.9 1241.57 1047.5 1229 1052.91C1208.29 1061.83 1194.15 1075.52 1183.96 1096.5C1176.67 1111.54 1175.62 1116.51 1175.55 1136.5C1175.49 1155.91 1176.39 1160.31 1183.51 1175.62C1190.86 1191.42 1198.61 1201.16 1211.43 1210.69C1222.85 1219.18 1237.44 1225.83 1249.39 1227.98C1256.95 1229.34 1282.43 1228.44 1289.12 1226.57ZM1277 1151.3C1275.62 1151.06 1266.92 1147.22 1257.65 1142.76C1245.06 1136.7 1239.49 1134.54 1235.62 1134.22C1230.47 1133.79 1230.39 1133.83 1223.7 1139.89C1219.99 1143.25 1216.13 1146 1215.12 1146C1214.1 1146 1212.09 1144.81 1210.64 1143.36C1202.77 1135.5 1214.72 1118.37 1229.28 1116.66C1238.84 1115.53 1243.55 1116.77 1261 1125.03C1270.08 1129.32 1279.12 1133.27 1281.09 1133.8C1287 1135.37 1290.02 1133.4 1294.36 1125.14C1298.24 1117.74 1300.15 1116 1304.36 1116C1307.8 1116 1313 1120.58 1313 1123.61C1313 1127.73 1307.56 1138.23 1302.58 1143.73C1296.19 1150.8 1288.07 1153.2 1277 1151.3ZM1155.75 1127.75C1156.3 1127.06 1157.71 1121.66 1158.88 1115.75C1167.2 1073.92 1197.87 1041.61 1239.48 1030.85C1249.66 1028.22 1270.17 1027.3 1282.36 1028.92C1303.84 1031.79 1325.39 1042.08 1341.55 1057.2C1358.37 1072.93 1371.26 1096.9 1375.05 1119.5C1375.7 1123.35 1376.51 1126.79 1376.86 1127.15C1377.8 1128.11 2367.27 1128.65 2368.75 1127.69C2369.75 1127.05 2370 1056.9 2370 782.44L2370 438L2221.75 438C2140.21 438 2063.73 438.3 2051.79 438.66L2030.09 439.32L2023.3 455.4C2015.66 473.49 2012.52 478 2007.55 478C2005.68 478 2003.61 477.23 2002.65 476.17C2000.73 474.05 1993.42 457.91 1982.99 432.75C1978.94 422.99 1975.11 415 1974.48 415C1973.12 415 1973.45 414.3 1961.3 442.46C1949.65 469.44 1946.56 475.63 1944.07 476.96C1941.5 478.34 1936.68 478.28 1935.26 476.86C1934.63 476.23 1928.19 461.83 1920.94 444.86C1913.69 427.89 1907.37 414 1906.89 414C1906.42 414 1905.4 415.46 1904.63 417.25C1903.86 419.04 1898.97 430.62 1893.76 443C1882.18 470.53 1880.91 473.06 1876.93 476.41C1873.29 479.47 1870.6 479.19 1867.5 475.41C1866.4 474.07 1859.87 459.85 1853 443.82C1846.12 427.78 1840.03 414.51 1839.45 414.32C1838.88 414.13 1836.49 418.59 1834.12 424.24C1822.16 452.84 1814.74 469.88 1812.73 473.4C1810.02 478.13 1807.45 479.23 1803.25 477.46C1799.51 475.89 1798.01 473.13 1787.45 448.31C1776.53 422.65 1772.8 414.9 1771.58 415.3C1770.99 415.49 1768.12 421.24 1765.21 428.07C1745.45 474.45 1744.03 477.27 1740.11 477.83C1733 478.86 1732.97 478.81 1716.53 440.25C1710.61 426.36 1705.38 415 1704.91 415C1703.67 415 1701.33 419.87 1691.48 443.01C1681.29 466.94 1678.53 472.68 1675.72 475.75C1673.13 478.57 1667.99 478.75 1665.59 476.1C1663.64 473.94 1656.7 458.61 1645.99 432.75C1641.94 422.99 1638.11 415 1637.48 415C1636.12 415 1636.45 414.3 1624.3 442.46C1612.65 469.44 1609.56 475.63 1607.07 476.96C1604.5 478.34 1599.68 478.28 1598.26 476.86C1597.63 476.23 1591.18 461.81 1583.92 444.82C1576.67 427.83 1570.31 414.06 1569.79 414.24C1568.76 414.58 1567.64 417.07 1554.12 449C1549.11 460.82 1544.11 471.97 1543 473.77C1539.24 479.92 1532.91 480.03 1529.34 474.01C1528.33 472.3 1522.1 458.25 1515.5 442.78C1508.9 427.32 1503.03 414.51 1502.46 414.32C1501.89 414.13 1496.75 425.12 1491.04 438.74C1479.37 466.59 1475.85 473.85 1472.48 477.02C1470.42 478.95 1469.75 479.07 1466.75 478.08C1462.45 476.66 1461.32 474.64 1451.04 450C1440.41 424.51 1435.93 414.99 1434.59 415.02C1433.99 415.04 1431.73 419.17 1429.57 424.2C1427.41 429.24 1424.88 434.12 1423.94 435.06C1422.41 436.59 1417.72 436.83 1377.87 437.46C1318.41 438.4 671.09 437.62 668.32 436.6C667.12 436.16 665.78 435.06 665.33 434.15C664.89 433.24 664.43 421.93 664.31 409L664.1 385.5L661.3 385.78C659.76 385.93 637.91 386.32 612.75 386.64L567 387.22L567 409.66C567 438.53 568.57 436.41 546.46 437.33C537.68 437.7 425.09 437.99 296.25 438L62 438L62 782.83C62 972.49 62.3 1127.97 62.67 1128.33C63.03 1128.7 308.9 1129 609.04 1129C1044.42 1129 1154.96 1128.75 1155.75 1127.75ZM1668.74 602.29C1668.44 597.5 1668.44 578.37 1668.75 559.79L1669.31 526L1684.1 526C1692.24 526 1701.1 526.47 1703.78 527.05C1716.77 529.83 1724.21 545.04 1718.24 556.59C1716.24 560.44 1711.2 565.67 1707.45 567.77C1705.98 568.59 1706.23 569.28 1709.55 573.6C1713.39 578.61 1717.48 586.87 1722.48 599.72C1725.94 608.6 1725.22 610.26 1718.12 609.8L1713.56 609.5L1708.98 598.48C1699.72 576.19 1698.05 574.27 1687.12 573.28C1681.63 572.78 1681.26 572.89 1680.66 575.12C1680.31 576.43 1680.02 584.57 1680.01 593.21C1680 610.76 1679.9 611 1672.71 611L1669.28 611L1668.74 602.29ZM1697.23 561.87C1702.54 560.54 1705.95 557.21 1707.05 552.31C1708.22 547.06 1706.53 541.45 1703 538.86C1700.13 536.75 1691.93 535 1684.9 535L1680.08 535L1680.13 548.75C1680.16 556.31 1680.41 562.85 1680.68 563.29C1681.23 564.18 1691.57 563.3 1697.23 561.87ZM657 368.12L663.5 367.5L663.78 353.87L664.05 340.24L661.28 339.55C659.75 339.17 637.9 338.61 612.72 338.31L566.95 337.76L567.22 353.13L567.5 368.5L574 369.12C581.52 369.84 647.35 369.05 657 368.12ZM167.73 367.03C165.11 366.55 161.51 365.31 159.73 364.28C156.99 362.69 156.45 361.74 156.19 358.08C155.88 353.82 155.92 353.76 158.69 354.31C160.23 354.62 163.97 355.6 167 356.5C173.57 358.45 183.94 357.9 187.89 355.39C194.56 351.14 198.04 342.59 196.08 335.28C194.02 327.66 188.36 325.11 173.33 325.04C167.74 325.02 162.45 324.73 161.58 324.39C160.22 323.87 160 321.23 160.01 305.14C160.02 294.89 160.3 285.49 160.63 284.25C161.23 282.01 161.31 282 182.1 282L202.96 282L203.6 284.54C204.03 286.27 203.67 287.71 202.46 289.04C200.97 290.7 199.36 291 192.1 291.01C187.37 291.01 180.46 291.3 176.75 291.65L170 292.29L170 303.52L170 314.74L180.85 315.19C190.64 315.59 192.23 315.93 197.1 318.67C200.2 320.42 203.78 323.51 205.5 325.94C208.28 329.87 208.5 330.81 208.48 338.84C208.46 345.75 208.02 348.31 206.31 351.5C203.39 356.95 197.44 362.48 191.85 364.96C186.48 367.32 174.87 368.32 167.73 367.03ZM276.77 366.31C274.78 365.79 272.86 359.93 260.37 316.13C255.77 299.97 252 285.46 252 283.88C252 281.1 252.17 281 256.89 281C261.61 281 261.83 281.13 263.26 284.75C264.92 288.94 267.59 298.06 274.9 324.5C280.89 346.14 282.58 351.05 283.35 349C283.66 348.18 286.85 336.02 290.45 322C294.05 307.98 298.02 293.12 299.29 289L301.59 281.5L306.54 281.5C311.22 281.5 311.6 281.7 313.21 285C314.16 286.93 317.21 296.61 320 306.5C330.81 344.81 332.24 349.19 333.55 347.8C334.22 347.09 338.18 333.68 342.34 318C352.67 279.08 351.66 281.57 357.35 281.2L362 280.89L362 284.3C362 289.71 341.94 361.34 339.48 364.7C338.66 365.82 336.3 366.5 332.13 366.8L326 367.24L324.6 363.87C323.82 362.02 319.75 348.14 315.54 333.03C311.33 317.92 307.68 305.35 307.43 305.09C306.32 303.99 305.02 307.35 301.67 320C291.67 357.73 290.03 363.31 288.43 365.08C286.74 366.94 281.34 367.51 276.77 366.31ZM549.78 353.75L550.06 341L545.16 341C539.06 341 525.55 343.32 512.69 346.58C500.48 349.67 495 351.83 495 353.54C495 356.06 512.29 361.18 533.5 364.93C539.55 366 545.62 366.79 547 366.69L549.5 366.5L549.78 353.75ZM697.88 362.4C709.19 359.86 721.62 355.78 723.36 354.04C723.85 353.55 722.85 352.45 721.06 351.53C717.4 349.64 694.02 343.6 686.25 342.53L681 341.81L681 353.41L681 365L683.63 365C685.08 365 691.49 363.83 697.88 362.4ZM663.76 259.75L664.02 198L615.51 198L567 198L567 259L567 320L601.25 320.13C620.09 320.2 640.67 320.59 647 320.98C653.33 321.37 659.62 321.65 661 321.6L663.5 321.5L663.76 259.75ZM695.56 267.98C711.13 251.58 716.72 244.99 725.72 232.4C738.7 214.25 746.93 196.52 750.51 179C752.74 168.1 752.09 151.8 749.01 141C740.94 112.73 718.23 83.74 689.55 65.08C662.8 47.68 631.91 40.82 601.24 45.48C545.34 53.97 496.37 92.99 479.9 142.15C477.01 150.76 476.84 152.14 476.75 167.87C476.66 181.94 476.97 185.66 478.75 192C483.26 208.08 491.2 221.92 503.18 234.59C513.12 245.12 548.23 276.98 549.21 276.37C549.64 276.1 550 257.85 550 235.81L550 195.74L546.4 191.76C541.48 186.31 540 182.25 540 174.19C540 160.83 544.21 152.94 553.96 148.02C557.85 146.06 561.08 143.42 563.65 140.12C565.77 137.39 568.45 134.71 569.61 134.17C570.97 133.53 579.14 133.46 592.61 133.97C611.5 134.69 613.96 134.99 618.26 137.09L623.02 139.41L627.76 134.85C633.97 128.88 636.9 127 639.97 127.01C643.89 127.01 648.22 130.19 649.52 134.03C650.54 137 651.12 137.47 653.6 137.31C660.3 136.87 664.75 138.1 668.71 141.48C672.36 144.61 672.82 144.76 674.29 143.28C675.32 142.25 677.62 141.67 680.61 141.67C684.54 141.67 685.72 142.13 687.77 144.52C689.98 147.09 690.15 147.93 689.55 153.26C689.18 156.5 687.11 164.91 684.94 171.95L681 184.74L681 232.21C681 258.31 681.29 279.95 681.64 280.31C682.66 281.33 684.02 280.13 695.56 267.98ZM395.34 216.44C395.01 215.59 395.44 213.22 396.29 211.19C397.14 209.16 398.98 204.8 400.39 201.5C401.8 198.2 402.96 193.59 402.98 191.25C403.01 184.44 408.34 180.97 414.07 184.04C416.37 185.27 416.61 190.55 414.62 196.12C412.58 201.81 404.03 214.01 400.6 216.1C396.83 218.4 396.11 218.45 395.34 216.44ZM1045.93 199.75C1045.78 186.48 1045.73 138.03 1045.86 128.75L1046 119L1048.75 119.02C1052.51 119.04 1053.63 119.96 1054.45 123.72L1055.14 126.93L1060.17 123.48C1067.48 118.45 1071.81 117.39 1079.64 118.73C1091.95 120.84 1097.85 128.94 1098.76 144.99C1099.84 163.94 1094.27 176.66 1082.78 181.45C1075.49 184.49 1063.14 182.51 1059.13 177.66C1058.37 176.75 1057.42 176 1057.02 176C1056.61 176 1055.96 182.4 1055.56 190.23C1055.16 198.05 1054.62 204.8 1054.36 205.23C1054.1 205.65 1052.11 206 1049.94 206L1046 206L1045.93 199.75ZM232.35 197.85C226.9 196.63 223 192.98 223 189.11C223 187.46 223.43 185.85 223.95 185.53C224.47 185.21 227.61 185.86 230.92 186.97C239.3 189.8 249.18 189.71 255.03 186.75C266.51 180.96 267.26 162.98 256.23 158.3C253.81 157.27 248.18 156.54 240.25 156.22L228 155.73L228 134.98C228 114.31 228.01 114.23 230.25 113.63C233.25 112.83 253.78 112.84 263.4 113.65L271.1 114.3L270.8 117.9L270.5 121.5L264.5 122.14C261.2 122.49 253.89 122.83 248.25 122.89L238 123L237.99 127.75C237.99 130.36 237.71 135.47 237.36 139.09L236.74 145.68L247.62 146.33C256.74 146.87 259.38 147.43 263.96 149.75C274.27 154.99 278.61 164.26 276.18 175.86C273.9 186.75 266.95 194.45 256.65 197.51C251.15 199.14 238.87 199.32 232.35 197.85ZM158.05 197.06C157.23 196.54 156.6 194.59 156.6 192.6C156.6 188.34 158.32 185.93 174.1 168.08C188.49 151.81 191.16 147.16 191.79 137.35C192.26 130.09 192.24 130.04 188.73 126.53C183.89 121.69 176.99 121.4 166.42 125.59C158.56 128.71 158 128.65 158 124.72C158 120.43 160.17 117.48 165.32 114.77C168.89 112.89 171.13 112.56 180.66 112.53C191.51 112.5 191.95 112.59 196.16 115.54C207.25 123.34 208.75 138.91 199.83 153.64C198.01 156.64 191.79 164.28 186.01 170.63C173.07 184.84 171.47 186.81 172.24 187.58C172.58 187.91 181.01 188.44 190.98 188.74L209.1 189.3L208.8 193.4L208.5 197.5L184 197.74C170.19 197.88 158.87 197.58 158.05 197.06ZM346.76 196.61C345.27 195.12 334.22 165.21 322.82 131.8C316.16 112.28 316.16 112.05 322.64 112.02C324.37 112.01 326.7 112.79 327.84 113.75C329.16 114.88 332.97 124.39 338.56 140.5C352.85 181.74 353.09 182.35 354.48 180.84C355.15 180.1 360.37 165.61 366.08 148.64C371.79 131.67 377.26 116.45 378.25 114.83C379.8 112.29 380.56 111.92 383.77 112.19C386.91 112.45 387.55 112.9 387.79 115.02C388.27 119.1 363.72 190.21 360.2 194.94C358.67 197 357.31 197.56 353.27 197.8C349.83 198 347.77 197.63 346.76 196.61ZM878.8 181.64C871.97 178.61 868 172.5 868 165.01C868 153.09 874.58 147.97 892.54 145.91C905.52 144.42 905 144.64 905 140.43C905 128.47 895.27 124.61 879.56 130.35C875.75 131.75 872.26 132.66 871.81 132.38C871.37 132.11 871 130.37 871 128.51C871 122.7 876.98 119.52 890.17 118.33C902.45 117.22 910.66 120.81 914.34 128.91C916.2 133.01 916.46 135.86 916.82 155.62C917.26 180.6 916.98 182 911.48 182C908.64 182 907.93 181.56 907.41 179.5C906.71 176.72 903.94 176.16 902.06 178.43C898.86 182.28 884.66 184.24 878.8 181.64ZM819.88 181.35C818.77 181.04 818.07 179.28 817.64 175.7C816.83 168.91 816.83 108.05 817.65 101.25L818.28 96L822.02 96C828.59 96 828.47 95.3 828.82 135.65L829.13 172L843.94 172C860.4 172 861.38 172.36 860.82 178.18L860.5 181.5L841 181.64C830.27 181.72 820.77 181.59 819.88 181.35ZM937 172.3C937 166.91 937.3 152.71 937.66 140.75L938.32 119L941.6 119C945.18 119 946.01 119.82 946.92 124.24L947.51 127.16L952.01 123.58C961.47 116.03 971.95 116.22 980.5 124.1L984.78 128.05L987.66 125.63C996.68 118.04 1008.2 116.22 1015.72 121.2C1018.45 123 1020.67 125.68 1022.42 129.25L1025.04 134.6L1024.77 158.05L1024.5 181.5L1019.35 181.8L1014.2 182.1L1013.8 160.3C1013.39 137.53 1012.68 133.47 1008.5 130C1003.66 125.99 991.48 130.56 988.95 137.34C988.28 139.14 987.56 148.69 987.27 159.5C986.99 169.95 986.35 179.29 985.84 180.25C985.18 181.52 983.7 182 980.46 182C978.01 182 975.97 181.89 975.93 181.75C975.88 181.61 975.48 171.33 975.02 158.89C974.09 133.3 973.5 130.98 967.44 128.98C962.68 127.41 956.79 129.59 951.72 134.78L948.04 138.54L947.77 160.02L947.5 181.5L942.25 181.8L937 182.1L937 172.3ZM664.69 177.96C665.36 176.56 666.2 173.59 666.56 171.35C667.13 167.81 666.95 167.22 665.17 166.75C664.04 166.46 661.86 163.93 660.31 161.12C657.21 155.51 656.1 155.08 652.09 157.93C646.33 162.03 640.57 161.79 636.38 157.28C633.98 154.68 633.84 154.66 628.72 155.97C620.92 157.97 616.03 157.53 608.21 154.09C600.18 150.57 600.74 150.64 592.37 152.1C587.63 152.92 585.92 153.67 585.47 155.11C584.62 157.76 580.5 159.62 574 160.28C565.87 161.11 559.44 164.29 558.1 168.15C556.65 172.31 556.71 176.23 558.25 178.28C559.84 180.41 565.47 180.61 620.99 180.55L663.47 180.5L664.69 177.96ZM899.06 170.58C903.64 167.55 905 164.77 905 158.43L905 154L897.75 154.01C884.44 154.02 879.97 156.66 880.03 164.47C880.08 171.05 883.89 174.3 890.77 173.65C893.14 173.42 896.83 172.06 899.06 170.58ZM1076.96 172.02C1083.99 168.44 1086.98 161.74 1086.99 149.62C1087 140.93 1085.41 135.56 1081.73 131.88C1079.22 129.38 1078.1 129 1073.12 129C1068.59 129 1066.53 129.57 1063.21 131.72C1057.14 135.65 1056 138.81 1056 151.7L1056 162.59L1059.75 166.24C1062.65 169.06 1070.67 173.82 1072.79 173.98C1072.95 173.99 1074.82 173.11 1076.96 172.02Z" fill="#1e2749" fill-rule="evenodd"/>
</svg>
