<?xml version="1.0" encoding="UTF-8"?>
<svg xmlns="http://www.w3.org/2000/svg" viewBox="0 0 792 459" width="792" height="459" shape-rendering="geometricPrecision">
<path d="M260.88 440.76C260.75 440.63 260.64 439.73 260.64 438.77L260.64 437.02L265.41 437.12L270.18 437.22L270.29 438.51C270.35 439.26 270.2 439.96 269.93 440.17C269.39 440.59 261.24 441.12 260.88 440.76ZM254.51 432.34C254.29 431.94 254.17 431.09 254.23 430.45L254.34 429.3L265.54 429.2C275.05 429.12 276.81 429.19 277.18 429.64C277.77 430.35 277.33 432.26 276.47 432.72C276.08 432.94 271.58 433.08 265.36 433.08C255.2 433.08 254.89 433.06 254.51 432.34ZM251.52 424.2C251.39 424.07 251.28 423.26 251.28 422.4L251.28 420.84L257.33 420.84C261.55 420.84 263.51 420.71 263.81 420.41C264.14 420.07 264.24 404.11 264.24 350.75L264.24 281.52L265.08 281.52C265.55 281.52 266.22 281.2 266.57 280.82C267.19 280.12 268.12 280.11 320.79 280.01C367.85 279.91 374.44 279.83 374.9 279.36C375.7 278.54 376.07 234.88 375.28 234.58C374.99 234.47 350.33 234.47 320.49 234.57L266.22 234.76L258.47 244.37C253.41 250.64 250.53 253.93 250.19 253.83C249.9 253.74 249.18 253.65 248.6 253.61C247.44 253.55 247.27 253.26 245.16 247.86C244.55 246.28 243.9 244.66 243.72 244.26C243.55 243.86 242 239.98 240.29 235.62C235.21 222.69 234.74 221.51 233.87 219.5C233.55 218.75 233.28 217.9 233.28 217.61C233.28 216.78 232.22 216.99 231.85 217.89C231.67 218.34 230.12 222.26 228.41 226.62C226.71 230.98 225.17 234.86 225 235.26C224.82 235.66 224.2 237.19 223.61 238.68C219.75 248.44 218.05 252.59 217.75 252.95C217.2 253.63 214.6 253.73 214.08 253.09C213.83 252.79 213.13 251.24 212.51 249.66C210.59 244.73 206.99 235.65 206.65 234.9C206.47 234.5 205.42 231.83 204.3 228.96C201.92 222.84 200.2 218.55 199.83 217.82C199.1 216.38 199.11 216.37 193.27 231.12C192.68 232.6 192.06 234.14 191.88 234.54C190.86 236.86 185.4 250.9 185.4 251.21C185.4 251.42 185 252.05 184.52 252.63C183.74 253.56 183.48 253.65 182.13 253.47L180.61 253.26L177.4 245.16C175.63 240.7 173.7 235.84 173.11 234.36C172.52 232.88 171.9 231.34 171.72 230.94C171.54 230.54 170.23 227.26 168.81 223.65C167.38 220.04 166.03 217.08 165.82 217.09C165.6 217.09 164.07 220.53 162.42 224.74C158.99 233.48 157.47 237.32 156.8 238.86C156.55 239.45 155.24 242.77 153.89 246.24C152.54 249.7 151.3 252.73 151.12 252.95C150.95 253.18 150.06 253.43 149.15 253.5L147.49 253.63L146.8 252.01C146.42 251.11 145.97 250.06 145.8 249.66C145.5 248.98 144.62 246.78 142.14 240.48C141.56 239 140.94 237.46 140.76 237.06C140.58 236.66 139.93 235.04 139.3 233.46C137.56 229.03 133.51 218.91 132.57 216.63C132.26 215.89 131.83 215.29 131.62 215.3C131.4 215.31 128.14 219.22 124.38 223.97C119.07 230.71 117.23 232.78 116.13 233.31C114.8 233.96 113.73 234 99.69 234C87.99 234 84.65 234.1 84.55 234.45C84.48 234.7 84.46 265.32 84.51 302.49L84.61 370.08L91.29 370.08C95.2 370.08 98.26 370.23 98.66 370.45C99.48 370.89 99.57 372.17 98.85 373.16C98.36 373.83 97.71 373.86 83.64 373.96C75.55 374.02 68.58 373.98 68.13 373.87C67.43 373.69 67.32 373.43 67.32 371.87L67.32 370.08L73.76 370.08C78.82 370.08 80.28 369.97 80.61 369.58C80.91 369.21 80.98 365.33 80.85 354.91C80.75 347.12 80.63 339.61 80.57 338.22C80.52 336.83 80.51 312.21 80.56 283.5L80.65 231.3L81.61 230.85C82.34 230.51 86.53 230.4 98.51 230.4L114.44 230.4L115.7 228.87C116.4 228.03 119.99 223.53 123.69 218.88C129.64 211.38 130.51 210.43 131.35 210.51C131.87 210.56 132.72 210.6 133.23 210.6C134.25 210.6 134.28 210.65 136.46 216.18C137.08 217.76 137.8 219.55 138.05 220.14C138.3 220.73 140.08 225.19 142 230.04C143.93 234.89 145.71 239.35 145.97 239.94C146.22 240.53 146.97 242.36 147.63 243.99C148.28 245.62 148.93 246.96 149.07 246.96C149.5 246.96 149.94 246.13 151.09 243.18C153.77 236.31 158.47 224.4 158.76 223.74C159.11 222.96 160.52 219.4 162.4 214.56C163.06 212.88 163.72 211.32 163.88 211.1C164.24 210.6 167.23 210.64 167.7 211.14C167.89 211.34 168.4 212.39 168.84 213.48C169.28 214.57 169.77 215.78 169.94 216.18C170.23 216.88 171.36 219.72 173.58 225.36C174.16 226.84 174.78 228.38 174.95 228.78C175.12 229.18 176.01 231.44 176.94 233.82C177.86 236.2 178.75 238.46 178.92 238.86C180.1 241.57 181.44 245.03 181.44 245.38C181.44 245.61 181.75 246.18 182.13 246.65C182.81 247.47 182.83 247.48 183.06 246.78C183.32 246 184.23 243.61 184.7 242.46C185.18 241.3 186.93 236.9 190.26 228.42C191.97 224.06 193.51 220.18 193.68 219.78C193.86 219.38 194.51 217.76 195.13 216.18C197.48 210.18 197.13 210.65 199.11 210.72C200.07 210.76 200.99 210.95 201.16 211.14C201.34 211.34 202.17 213.28 203 215.46C203.84 217.64 205.18 221.04 205.98 223.02C206.78 225 207.89 227.75 208.44 229.14C209 230.53 209.97 232.96 210.59 234.54C211.21 236.12 211.86 237.74 212.04 238.14C212.22 238.54 213.07 240.69 213.94 242.93C214.81 245.17 215.67 247.04 215.84 247.07C216.02 247.11 216.86 245.36 217.72 243.18C218.59 241 219.43 238.9 219.61 238.5C219.78 238.1 220.27 236.89 220.7 235.8C221.12 234.71 221.61 233.5 221.78 233.1C221.95 232.7 222.58 231.12 223.18 229.59C223.79 228.06 224.77 225.54 225.38 224.01C225.98 222.48 226.62 220.9 226.79 220.5C226.97 220.1 227.91 217.76 228.89 215.29L230.67 210.79L232.48 210.73C234.66 210.65 234.24 209.94 238.51 220.86C240.21 225.22 241.75 229.1 241.92 229.5C242.1 229.9 242.74 231.48 243.34 233.01C243.95 234.54 244.93 237.06 245.54 238.59C246.14 240.12 246.78 241.7 246.96 242.1C247.13 242.5 247.84 244.26 248.52 246.02L249.77 249.21L256.86 240.32C260.76 235.43 264.22 231.35 264.54 231.25C264.87 231.15 265.42 230.92 265.77 230.73C266.11 230.55 270.26 230.4 274.99 230.4C281.91 230.4 283.67 230.3 284.01 229.9C284.32 229.52 284.42 211.79 284.41 159.01L284.39 88.62L285.56 87.38C286.52 86.38 287.12 86.09 288.72 85.87C289.81 85.72 298.63 85.5 308.32 85.37L325.94 85.14L328.38 82.26C329.72 80.68 331.04 78.92 331.32 78.35C331.61 77.78 334.08 74.5 336.81 71.05L341.79 64.78L343.43 65.01C344.33 65.14 345.31 65.5 345.62 65.83C345.93 66.15 346.71 67.8 347.36 69.48C348 71.16 348.67 72.86 348.84 73.26C350.24 76.51 350.64 77.55 350.64 77.96C350.64 78.22 351.03 79.37 351.51 80.53C351.99 81.68 352.89 83.92 353.51 85.5C354.13 87.08 354.78 88.7 354.96 89.1C355.31 89.87 356.69 93.35 358.6 98.28C359.92 101.67 360.35 102.41 360.74 101.99C361.04 101.66 361.88 99.6 366.3 88.38C368.02 84.02 369.65 79.95 369.93 79.33C370.21 78.7 370.44 77.93 370.44 77.61C370.44 77.29 370.59 76.75 370.78 76.41C370.97 76.06 372.07 73.39 373.21 70.46L375.3 65.14L377.22 65.24L379.13 65.34L379.87 67.14C380.27 68.13 380.73 69.26 380.9 69.66C381.8 71.75 383.17 75.31 383.82 77.22C384.63 79.6 389.99 93.39 390.96 95.58C391.13 95.98 391.83 97.76 392.52 99.53L393.77 102.77L394.58 100.97C395.6 98.71 396.64 96.13 401.44 83.88C402.03 82.39 402.64 80.93 402.81 80.63C402.97 80.32 403.23 79.52 403.38 78.83C403.61 77.77 404.48 75.48 405.75 72.54C405.92 72.14 406.39 70.93 406.8 69.84C407.21 68.75 407.68 67.54 407.86 67.14C408.03 66.74 408.27 66.14 408.38 65.79C408.53 65.3 408.98 65.16 410.34 65.16C411.33 65.16 412.27 65.36 412.47 65.61C412.67 65.86 413.43 67.6 414.16 69.48C414.9 71.36 415.71 73.39 415.98 73.98C416.24 74.57 416.81 76.11 417.24 77.4C418.08 79.93 422.74 91.88 424.46 95.9C425.04 97.26 425.52 98.49 425.52 98.64C425.52 98.79 425.86 99.68 426.28 100.62C426.89 102.01 427.11 102.23 427.47 101.83C427.71 101.56 429.57 97.13 431.6 91.98C433.63 86.83 435.68 81.68 436.17 80.53C436.65 79.37 437.04 78.28 437.04 78.08C437.04 77.77 439.88 70.27 440.64 68.58C440.82 68.18 441.21 67.24 441.51 66.49C442.06 65.13 442.07 65.12 443.92 65.23C445.12 65.3 445.89 65.53 446.08 65.88C446.49 66.63 450.94 78.1 451.26 79.2C451.4 79.69 453.5 85.12 455.93 91.26C458.36 97.4 460.45 102.7 460.56 103.05C460.89 104.02 461.68 103.8 462.63 102.48C465.84 98.04 475.41 86.4 475.86 86.4C476.16 86.4 476.66 86.17 476.97 85.89C477.45 85.46 482.79 85.37 511.02 85.31C529.43 85.27 546.52 85.37 549 85.53C551.48 85.7 558 85.79 563.51 85.74L573.52 85.64L574.85 86.81L576.18 87.98L576.36 170.62L576.54 253.26L603.69 253.35C623.01 253.42 630.97 253.56 631.32 253.85C632.01 254.42 631.91 256.11 631.14 256.8C630.54 257.35 626.32 257.4 577.95 257.41L525.42 257.41L523.51 258.46C522.47 259.04 521.01 259.71 520.27 259.94C519.54 260.18 518.03 260.92 516.91 261.58C515.8 262.25 514.7 262.8 514.46 262.8C514.04 262.8 512.55 263.49 502.02 268.57C499.05 270 494.43 272.22 491.76 273.5C477.35 280.42 466.6 285.68 465.84 286.18C465.54 286.37 464.65 286.83 463.86 287.2C463.07 287.56 462.1 288.04 461.7 288.25C459.95 289.2 452.94 292.51 451.8 292.93C451.11 293.18 450.26 293.39 449.91 293.39C449.56 293.4 449.28 293.57 449.28 293.78C449.28 293.99 448.67 294.41 447.93 294.71C445.25 295.81 430.41 303.01 427.32 304.72C426.43 305.21 423.76 306.53 421.38 307.64C419 308.76 414.92 310.71 412.31 311.98C409.7 313.24 407.33 314.28 407.06 314.28C406.78 314.28 406.26 314.6 405.9 315C405.54 315.4 405.1 315.72 404.92 315.72C404.73 315.72 403.38 316.3 401.92 317C400.45 317.71 398.64 318.38 397.9 318.5C397.15 318.62 396.05 319.07 395.46 319.5C394.87 319.94 393.65 320.65 392.76 321.08C391.87 321.52 390.9 322.02 390.6 322.21C390.3 322.39 388.93 323.05 387.54 323.67C386.15 324.3 383.61 325.51 381.89 326.36C379.37 327.61 378.69 327.82 378.37 327.43C378.15 327.17 377.51 326.77 376.95 326.53L375.92 326.1L375.79 305.24C375.68 287.18 375.59 284.33 375.12 284.03C374.78 283.82 354.49 283.72 321.3 283.77L268.02 283.86L268.07 351.82C268.12 404.71 268.23 419.9 268.57 420.31C268.93 420.74 270.24 420.84 275.59 420.84C282.67 420.84 282.6 420.82 282.6 422.78C282.6 424.44 282.58 424.44 266.75 424.44C258.5 424.44 251.65 424.33 251.52 424.2ZM77.64 390C77.51 389.87 77.4 388.98 77.4 388.02L77.4 386.28L81.69 386.28C84.05 386.28 86.24 386.38 86.55 386.5C87.35 386.8 87.29 388.89 86.46 389.64C85.93 390.12 85.02 390.24 81.84 390.24C79.66 390.24 77.77 390.13 77.64 390ZM71.14 381.75C71.02 381.44 70.92 380.8 70.92 380.34C70.92 378.27 70.42 378.36 82.29 378.36C92.72 378.36 93.23 378.39 93.59 379.06C94.14 380.09 94.04 381.06 93.3 381.72C92.72 382.25 91.4 382.32 82 382.32C72.63 382.32 71.33 382.25 71.14 381.75ZM350.64 332.5C350.64 330.2 351.81 328.7 357.63 323.48C361.36 320.13 362.52 318.17 361.78 316.39C361.15 314.87 360.1 314.28 358.02 314.28C355.87 314.28 354.75 314.95 354.43 316.42C354.14 317.73 353.44 318.33 352.37 318.18C351.7 318.08 351.52 317.81 351.43 316.7C351.19 313.76 354.1 311.4 357.97 311.4C361.42 311.4 364.13 313.18 364.98 316.01C365.85 318.92 364.21 321.69 358.88 326.34C356.9 328.06 355.35 329.66 355.42 329.89C355.51 330.16 357.1 330.33 360.13 330.4C364.59 330.5 364.72 330.52 365.11 331.38C365.41 332.05 365.4 332.39 365.05 332.81C364.67 333.27 363.44 333.36 357.62 333.36L350.64 333.36L350.64 332.5ZM341.44 326.07C341.35 325.82 341.31 318.17 341.37 309.06L341.46 292.5L343.38 292.39C344.48 292.33 345.51 292.46 345.81 292.7C346.24 293.06 346.32 295.8 346.32 309.45C346.32 325.22 346.3 325.79 345.62 326.15C344.64 326.68 341.66 326.62 341.44 326.07ZM388.44 318.8C388.74 318.54 389.63 318.13 390.42 317.88C391.21 317.63 392.75 316.92 393.84 316.3C397.03 314.47 397.9 314.04 399.42 313.55C400.21 313.29 402.23 312.36 403.92 311.47C408.69 308.95 409.47 308.58 410.6 308.31C411.18 308.17 412.08 307.7 412.59 307.28C413.11 306.85 414.32 306.2 415.29 305.84C416.27 305.48 417.3 304.98 417.6 304.74C417.9 304.49 418.98 304.02 420 303.69C421.03 303.35 422.04 302.87 422.25 302.62C422.46 302.37 423.32 301.94 424.16 301.68C425.01 301.41 425.95 300.98 426.26 300.72C426.91 300.18 430.52 298.4 432.36 297.71C433.05 297.45 433.86 297.04 434.16 296.79C434.46 296.55 436.32 295.68 438.3 294.86C440.28 294.05 442.31 293.08 442.8 292.73C443.29 292.37 444.35 291.87 445.14 291.61C445.93 291.36 446.83 290.93 447.14 290.66C447.44 290.4 448.41 289.93 449.28 289.62C450.15 289.31 451.12 288.85 451.42 288.59C451.73 288.33 452.55 287.9 453.24 287.63C453.93 287.36 455.47 286.61 456.66 285.97C457.85 285.32 459.47 284.56 460.26 284.27C461.7 283.76 464.9 282.26 475.74 277.02C478.91 275.49 483.28 273.39 485.46 272.34C487.64 271.3 491.69 269.35 494.46 268.02C497.23 266.68 501.48 264.64 503.9 263.48C506.33 262.31 508.74 261.36 509.28 261.36C510.27 261.36 511.56 260.47 511.56 259.77C511.57 259.36 515.83 257.4 516.74 257.4C517.03 257.4 517.78 256.94 518.41 256.37L519.53 255.34L518.66 254.39C518.17 253.86 517.39 253.44 516.9 253.44C516.42 253.44 515.87 253.29 515.68 253.11C515.49 252.93 514.45 252.46 513.36 252.07C509.26 250.59 508.64 250.3 507.67 249.36C507.11 248.83 506.26 248.4 505.78 248.4C505.3 248.4 504.47 248.17 503.94 247.9C503.42 247.62 502.37 247.2 501.6 246.95C500.84 246.7 498.52 245.65 496.44 244.6C494.36 243.55 491.85 242.34 490.86 241.91C488.85 241.02 482.36 238.09 478.86 236.48C477.61 235.91 476.53 235.44 476.46 235.44C476.38 235.44 474.93 234.79 473.22 234C471.51 233.21 470.06 232.56 469.98 232.56C469.9 232.56 468.29 231.83 466.4 230.94C464.51 230.05 462.89 229.32 462.8 229.32C462.71 229.32 461.25 228.67 459.54 227.88C457.83 227.09 456.38 226.44 456.3 226.44C456.16 226.44 453.19 225.09 448.27 222.8C446.62 222.03 445.22 221.4 445.14 221.4C445.06 221.4 443.61 220.75 441.9 219.96C440.19 219.17 438.73 218.52 438.66 218.52C438.4 218.52 428.99 214.21 427.23 213.29C426.29 212.8 425.29 212.4 425.01 212.4C424.73 212.4 424.45 212.24 424.38 212.04C424.31 211.85 423.29 211.44 422.1 211.13C420.91 210.83 419.78 210.36 419.57 210.1C419.37 209.83 418.7 209.5 418.07 209.36C417.45 209.23 416.67 208.72 416.36 208.24C415.97 207.64 415.45 207.36 414.73 207.36C414.16 207.36 412.29 206.71 410.58 205.92C408.87 205.13 407.42 204.48 407.34 204.48C407.26 204.48 405.81 203.83 404.1 203.04C402.39 202.25 400.93 201.6 400.84 201.6C400.75 201.6 399.13 200.87 397.24 199.98C395.35 199.09 393.74 198.36 393.66 198.36C393.58 198.36 392.13 197.71 390.42 196.92C388.71 196.13 387.25 195.48 387.17 195.48C387.09 195.48 385.47 194.75 383.56 193.86C381.65 192.97 379.94 192.33 379.76 192.45C379.43 192.65 379.33 322.69 379.66 323.02C379.86 323.22 387.68 319.45 388.44 318.8ZM315.36 309.98C315.36 308.8 315.19 307.74 314.98 307.61C314.77 307.48 308.73 307.4 301.55 307.42C294.37 307.45 288.23 307.37 287.89 307.24C287.43 307.06 287.28 306.57 287.28 305.24L287.28 303.48L300.95 303.48C316.51 303.48 315.36 303.74 315.36 300.26C315.36 299.26 315.48 298.44 315.63 298.44C315.86 298.44 328.24 304.49 328.64 304.79C329.12 305.16 327.09 306.43 321.77 309.09C318.45 310.76 315.65 312.12 315.54 312.12C315.44 312.12 315.36 311.16 315.36 309.98ZM404.59 296.19C404.56 296.14 404.44 293.35 404.32 289.98L404.1 283.86L397.89 283.81C394.47 283.78 391.42 283.66 391.12 283.54C390.71 283.38 390.59 282.92 390.67 281.79L390.78 280.26L397.44 280.08L404.1 279.9L404.1 275.8C404.1 271.76 404.11 271.7 405 271.37C405.5 271.19 406.42 271.13 407.06 271.25L408.22 271.47L408.32 275.68L408.42 279.9L413.45 279.79C419.77 279.65 420.12 279.73 420.12 281.29C420.12 283.4 419.48 283.65 413.62 283.76L408.42 283.86L408.32 289.25C408.23 294.19 408.16 294.7 407.45 295.46C407 295.94 406.25 296.28 405.66 296.28C405.1 296.28 404.62 296.24 404.59 296.19ZM674.59 270.72C671.7 269.19 670.51 266.57 670.75 262.27C670.92 259.16 671.49 257.96 673.5 256.43C674.94 255.33 675.26 255.24 677.74 255.24C683.1 255.24 685.58 257.79 685.53 263.24C685.49 266.9 684.59 268.63 681.85 270.27C679.49 271.68 676.74 271.85 674.59 270.72ZM690.8 270.56C688.77 269.18 688.5 268.11 688.5 261.36L688.5 255.42L689.94 255.42L691.38 255.42L691.56 261.22C691.75 267.36 691.91 267.94 693.63 268.6C694.74 269.02 696.59 268.24 697.62 266.94C698.34 266.02 698.4 265.54 698.4 260.57L698.4 255.2L699.93 255.31L701.46 255.42L701.56 262.93C701.63 268.17 701.53 270.6 701.24 270.94C700.69 271.61 699.25 271.58 698.99 270.9C698.73 270.22 697.35 270.22 696.44 270.91C695.3 271.78 692.31 271.59 690.8 270.56ZM707.13 270.89C705.96 270.07 705.6 268.18 705.6 262.77C705.6 257.9 705.6 257.87 704.7 257.47C704.11 257.2 703.8 256.76 703.8 256.21C703.8 255.65 704.11 255.21 704.7 254.95C705.43 254.61 705.6 254.28 705.6 253.15C705.6 251.45 706.9 249.99 708.09 250.37C708.74 250.58 708.84 250.9 708.84 252.71C708.84 254.89 709.09 255.24 710.69 255.24C711.26 255.24 711.38 255.44 711.29 256.23C711.2 257.01 710.95 257.26 710.1 257.4L709.02 257.59L708.92 262.57C708.81 267.78 709 268.56 710.33 268.56C711.28 268.56 711.98 270.15 711.37 270.89C710.77 271.61 708.16 271.61 707.13 270.89ZM679.46 268.42C682.97 266.95 683.59 260.71 680.44 258.58C678.12 257.02 675.04 257.79 674.27 260.13C674.04 260.84 673.91 262.53 673.98 263.89C674.13 266.59 674.7 267.57 676.62 268.42C677.99 269.02 678.03 269.02 679.46 268.42ZM652.27 264.36C651.95 264.27 651.4 263.44 651.05 262.51C650.71 261.58 649.72 259 648.85 256.77C645.69 248.62 643.97 244.18 642.56 240.48C641.76 238.4 640.74 235.81 640.28 234.72C639.83 233.62 639.34 232.2 639.2 231.55L638.94 230.37L641.39 230.47C644.28 230.6 643.92 230.12 646.4 237.1C647.3 239.65 648.29 242.39 648.58 243.18C648.87 243.97 649.5 245.75 649.97 247.14C650.44 248.53 651.34 251.04 651.98 252.72C652.61 254.4 653.24 256.27 653.37 256.86C653.76 258.61 654.55 258.14 655.48 255.6C655.95 254.31 656.56 252.69 656.83 252C657.1 251.31 659 246.2 661.05 240.66L664.77 230.58L667.1 230.58C669.2 230.58 669.42 230.65 669.37 231.3C669.34 231.7 668.32 234.53 667.1 237.6C665.89 240.67 664.01 245.45 662.94 248.22C657.66 261.85 657.02 263.35 656.27 263.96C655.53 264.56 653.71 264.74 652.27 264.36ZM572.33 252.99C572.58 252.68 572.68 227.13 572.64 171.18L572.58 89.82L525.24 89.61L477.9 89.4L477.18 90.18C476.78 90.61 473.54 94.66 469.98 99.18C466.42 103.7 463.18 107.78 462.78 108.24C462.14 108.99 461.88 109.06 460.48 108.81C458.71 108.5 458.76 108.57 457.21 104.58C456.59 103 455.94 101.38 455.76 100.98C455.58 100.58 454.96 99.05 454.37 97.56C448.66 83.14 447.13 79.18 446.75 77.94C446.51 77.15 446.11 76.01 445.87 75.42C444.41 71.92 444.11 71.28 443.9 71.28C443.64 71.28 441.71 75.95 440.99 78.3C440.6 79.55 436.85 89.23 435.95 91.26C435.78 91.66 435.14 93.24 434.54 94.77C433.93 96.3 432.95 98.82 432.34 100.35C431.74 101.88 431.11 103.46 430.94 103.86C430.78 104.26 430.35 105.31 429.99 106.2C429.06 108.52 428.93 108.63 427.08 108.58L425.42 108.54L423.28 103.14C422.11 100.17 421.01 97.42 420.83 97.02C420.66 96.62 420.04 95.08 419.45 93.6C418.86 92.11 417.23 88.03 415.83 84.52C414.43 81 413.28 77.94 413.28 77.7C413.28 76.78 410.95 71.64 410.54 71.64C410.16 71.64 407.52 77.74 407.52 78.61C407.52 78.94 399.16 100.11 397.42 104.18C396.84 105.54 396.36 106.85 396.36 107.09C396.36 107.92 395.11 108.63 393.76 108.57C391.88 108.49 392.16 108.95 389.17 101.34C388.55 99.76 387.9 98.14 387.72 97.74C387.55 97.34 386.01 93.46 384.3 89.1C382.6 84.74 380.97 80.65 380.68 80C380.4 79.35 380.16 78.61 380.16 78.36C380.16 77.44 377.66 71.82 377.21 71.72C376.94 71.67 376.46 72.36 376.08 73.34C375.72 74.29 375.2 75.59 374.91 76.24C374.63 76.89 374.4 77.6 374.4 77.83C374.4 78.05 373.5 80.51 372.39 83.3C371.28 86.1 369.9 89.59 369.31 91.08C368.72 92.56 368.1 94.1 367.92 94.5C367.75 94.9 366.52 97.97 365.2 101.34C363.87 104.71 362.57 107.71 362.3 108.02C361.66 108.76 358.94 108.74 358.51 108C358.03 107.16 347.2 79.92 346.71 78.3C346.28 76.89 344.46 72.26 343.7 70.65C343.49 70.2 343.14 69.84 342.93 69.84C342.51 69.84 337.14 76.52 336.24 78.17C335.94 78.71 334.19 81.06 332.33 83.4C327.38 89.65 328.58 89.28 313.27 89.28C306.4 89.28 297.99 89.39 294.57 89.52L288.36 89.75L288.45 159.99L288.54 230.22L331.65 230.53C365.82 230.78 374.87 230.75 375.3 230.4C375.77 230.01 375.84 227.24 375.84 209.72L375.84 189.49L377.28 188.54C378.91 187.48 378.55 187.4 384.06 189.94C385.51 190.61 386.75 191.16 386.83 191.16C386.9 191.16 388.3 191.79 389.95 192.56C391.59 193.33 395.05 194.88 397.62 196.02C403.58 198.64 404.97 199.26 408.06 200.69C409.45 201.34 411.47 202.24 412.56 202.69C413.65 203.15 414.69 203.65 414.88 203.82C415.07 203.98 415.52 204.12 415.89 204.12C416.55 204.12 417.95 204.81 420.66 206.45C421.45 206.93 422.45 207.34 422.89 207.34C423.32 207.35 423.77 207.51 423.88 207.69C423.99 207.87 425.01 208.3 426.15 208.64C427.29 208.99 428.47 209.49 428.77 209.74C429.08 210 430.29 210.64 431.47 211.16C432.65 211.68 434.35 212.44 435.24 212.84C438.7 214.4 444.89 217.2 447.06 218.2C448.31 218.77 449.39 219.24 449.46 219.24C449.54 219.24 450.99 219.89 452.7 220.68C454.41 221.47 455.87 222.12 455.96 222.12C456.05 222.12 457.67 222.85 459.56 223.74C461.45 224.63 463.06 225.36 463.14 225.36C463.22 225.36 464.67 226.01 466.38 226.8C468.09 227.59 469.54 228.24 469.62 228.24C469.7 228.24 471.1 228.87 472.75 229.64C477.62 231.91 480.64 233.28 480.78 233.28C480.85 233.28 482.15 233.86 483.67 234.56C485.2 235.26 487.19 236.09 488.11 236.39C490.08 237.05 490.97 237.44 496.36 240C498.6 241.05 500.56 241.92 500.72 241.92C500.89 241.92 501.41 242.22 501.88 242.58C502.35 242.94 503.54 243.46 504.51 243.72C505.49 243.99 509 245.56 512.31 247.2C515.62 248.85 518.48 250.2 518.68 250.2C518.87 250.2 519.22 250.42 519.44 250.7C519.67 250.97 520.46 251.29 521.2 251.41C521.94 251.54 523.35 252.04 524.34 252.53L526.14 253.42L549.05 253.43C566.99 253.44 572.03 253.34 572.33 252.99ZM390.74 233.85C390.64 233.58 390.6 232.81 390.66 232.14L390.78 230.94L404.96 230.85C415.12 230.78 419.28 230.87 419.63 231.16C420.24 231.66 420.27 233.34 419.69 233.93C419.37 234.25 415.63 234.36 405.1 234.36C393.27 234.36 390.91 234.28 390.74 233.85ZM361.32 229.08C361.19 228.95 361.08 225.38 361.08 221.16C361.08 212.55 361.15 212.74 358.56 214.38C356.95 215.4 356.21 215.51 355.92 214.77C355.54 213.77 356.14 212.82 357.87 211.7C358.83 211.07 360.22 209.83 360.95 208.94C361.99 207.67 362.48 207.35 363.21 207.43L364.14 207.54L364.24 217.94C364.3 225.31 364.21 228.48 363.92 228.83C363.5 229.33 361.75 229.51 361.32 229.08ZM344.34 222.12C344.05 221.66 344.06 189.1 344.34 188.63C344.65 188.13 347.89 188.19 348.41 188.71C349.03 189.33 349.03 221.43 348.41 222.05C347.89 222.57 344.65 222.63 344.34 222.12ZM322.08 217.56C321.95 217.43 321.84 216.47 321.84 215.44C321.84 214.05 321.69 213.5 321.27 213.34C320.96 213.22 314.81 213.12 307.6 213.12C295.02 213.12 294.49 213.09 294.13 212.42C293.81 211.81 293.6 209.66 293.85 209.44C293.9 209.4 300.18 209.28 307.8 209.17L321.66 208.98L321.77 206.73C321.85 205.06 322.01 204.48 322.39 204.48C323.1 204.48 335.16 210.59 335.16 210.94C335.16 211.5 333.95 212.22 328.38 215C322.53 217.92 322.47 217.95 322.08 217.56ZM209.4 200.28C209.27 200.15 209.16 196.59 209.16 192.38C209.16 187.56 209.02 184.64 208.79 184.5C208.59 184.37 207.62 184.77 206.63 185.37C204.51 186.68 204.24 186.71 203.94 185.76C203.61 184.73 204.04 183.67 204.89 183.4C205.29 183.28 206.76 182.05 208.14 180.69C209.52 179.32 210.73 178.2 210.83 178.2C210.93 178.2 211.32 178.37 211.7 178.57C212.37 178.93 212.4 179.43 212.4 189.36C212.4 199.29 212.37 199.79 211.7 200.15C210.91 200.57 209.76 200.64 209.4 200.28ZM170.28 176.38L170.28 159.44L180.27 159.57C191.47 159.72 192.2 159.85 194.6 162.06C198.35 165.52 198.4 171.35 194.7 174.83C193.41 176.05 190.82 177.48 189.91 177.48C189.04 177.48 189.25 177.95 190.83 179.48C191.64 180.26 193.64 182.92 195.27 185.4C199.34 191.59 199.88 192.53 199.62 192.95C199.5 193.16 198.2 193.32 196.75 193.32L194.09 193.32L192.97 191.43C191.19 188.43 188.22 183.88 186.73 181.88C184.63 179.04 183.72 178.64 179.28 178.52L175.5 178.42L175.4 185.39C175.34 189.79 175.16 192.54 174.91 192.84C174.66 193.14 173.71 193.32 172.4 193.32L170.28 193.32L170.28 176.38ZM187.23 173.75C190.66 172.95 192.23 171.29 192.24 168.46C192.24 167.12 192.04 166.61 191.18 165.73C189.59 164.11 188 163.8 181.31 163.8L175.32 163.8L175.32 168.78C175.32 171.52 175.43 173.87 175.56 174C175.99 174.43 185.17 174.24 187.23 173.75ZM422.05 54.91C421.43 53.29 423.39 50.26 426.9 47.39C433.07 42.34 434.59 39.34 432.13 37.04C431.44 36.38 430.84 36.21 429.31 36.21C427.14 36.21 426.11 36.85 425.7 38.45C425.37 39.8 424.85 40.32 423.87 40.32C422.68 40.32 422.19 39.24 422.71 37.75C423.77 34.65 425.6 33.48 429.38 33.49C433.71 33.5 436.32 35.76 436.32 39.5C436.32 42.18 434.83 44.34 430.19 48.39C428.2 50.13 426.63 51.74 426.7 51.97C426.79 52.24 428.46 52.44 431.49 52.56L436.14 52.74L436.14 54L436.14 55.26L429.2 55.36C423.26 55.44 422.23 55.38 422.05 54.91ZM391.05 48.36C390.7 48.22 390.6 44.46 390.6 31.26L390.6 14.35L400.59 14.49C406.94 14.58 411.05 14.79 411.88 15.06C413.74 15.67 416.33 18.08 417.06 19.88C417.93 22.04 417.88 25.4 416.96 27.2C415.66 29.7 412.27 32.4 410.42 32.4C409.41 32.4 409.49 33.27 410.55 33.97C411.77 34.77 414.15 37.96 417.39 43.14C420.59 48.27 420.59 48.6 417.26 48.6C416.14 48.6 414.96 48.4 414.65 48.15C414.33 47.9 412.98 45.92 411.63 43.74C408.09 38.02 405.86 35.13 404.29 34.25C403.14 33.6 402.34 33.48 399.28 33.48L395.64 33.48L395.64 40.44C395.64 46.73 395.58 47.47 394.98 48C394.35 48.57 392.08 48.78 391.05 48.36ZM407.59 28.75C410.91 28.05 412.56 26.28 412.56 23.43C412.56 21.47 411 19.68 408.8 19.12C407.92 18.9 404.6 18.72 401.42 18.72L395.64 18.72L395.64 23.7C395.64 26.44 395.75 28.79 395.88 28.92C396.28 29.32 405.55 29.19 407.59 28.75Z" fill="#1e2749" fill-rule="evenodd"/>
</svg>
