<?xml version="1.0" encoding="UTF-8"?>
<svg xmlns="http://www.w3.org/2000/svg" viewBox="0 0 2430 3288" width="2430" height="3288" shape-rendering="geometricPrecision">
<path d="M1515.75 3218.3C1513.06 3218 1512 3217.4 1512 3216.18C1512 3215.25 1519.22 3206.62 1528.04 3196.99C1536.86 3187.37 1546.97 3175.45 1550.5 3170.5C1558.27 3159.62 1566.47 3143.47 1567.95 3136.13C1568.93 3131.26 1568.81 3130.27 1566.64 3125.63C1563.3 3118.46 1557.9 3112.63 1551.8 3109.59C1541.73 3104.57 1534.85 3106.91 1523.75 3119.14C1517.81 3125.69 1516.43 3126.76 1515.85 3125.29C1512.72 3117.34 1524.63 3100.13 1537.15 3094.51C1544.83 3091.07 1553.75 3091.23 1561.5 3094.96C1568.04 3098.11 1578.99 3109.08 1582.48 3115.96C1585.93 3122.76 1585.93 3127.49 1582.5 3136.6C1577.36 3150.26 1569.81 3161.94 1553.51 3181.51C1532.64 3206.55 1532.54 3206.95 1547.31 3206.99C1560.54 3207.02 1575.67 3203.49 1581.61 3199C1583.75 3197.38 1586.35 3196.04 1587.39 3196.03C1589.09 3196 1589.22 3196.57 1588.71 3201.53C1588.02 3208.24 1585.46 3213.67 1581.68 3216.44C1578.99 3218.41 1577.49 3218.51 1549.18 3218.61C1532.86 3218.68 1517.81 3218.54 1515.75 3218.3ZM1201 3181.92C1186.77 3180.38 1170.46 3174.46 1159 3166.68C1152.33 3162.15 1141.38 3151.34 1136.37 3144.34C1130.56 3136.23 1125.49 3125.09 1122.93 3114.82C1120.02 3103.1 1119.23 3077.99 1121.36 3064.99C1127.45 3027.96 1149.41 2999.16 1180.49 2987.47C1191.1 2983.47 1200.43 2981.88 1213.5 2981.83C1228.17 2981.77 1235 2982.95 1250.54 2988.23C1264.18 2992.87 1265.64 2992.82 1271.99 2987.51C1279.15 2981.52 1280.43 2982.69 1282.51 2997.11C1284.55 3011.24 1285.68 3043.46 1284.17 3044.39C1282.84 3045.22 1278.29 3038.36 1271.96 3026C1266.47 3015.29 1255.05 3003.28 1246.7 2999.46C1234.28 2993.78 1215.52 2992.57 1200.5 2996.48C1184.16 3000.74 1171.32 3011.18 1164.19 3026C1155.24 3044.62 1151.54 3064.12 1152.26 3088.89C1152.84 3108.95 1154.66 3116.92 1162.06 3131.69C1170.66 3148.89 1185.45 3162.23 1201.5 3167.29C1211.9 3170.56 1226.83 3170.33 1236.89 3166.74C1248.17 3162.72 1258.9 3155.65 1271.79 3143.75C1282.36 3134 1287.1 3130.77 1288.62 3132.29C1290.04 3133.7 1277.77 3152.32 1270.89 3159.21C1254.56 3175.54 1226.43 3184.68 1201 3181.92ZM1681.24 3179.57C1648.19 3170.81 1621.83 3143.72 1613.08 3109.5C1606.74 3084.68 1609 3058.99 1619.45 3037.28C1630.62 3014.06 1646.43 2998.54 1668.32 2989.3C1680.91 2983.99 1691.56 2981.81 1704.98 2981.82C1728.56 2981.83 1748.11 2989.76 1765.88 3006.53C1793.06 3032.17 1802.93 3078.51 1789.58 3117.77C1779.5 3147.42 1757.64 3168.98 1728 3178.53C1720.72 3180.88 1717.43 3181.33 1705 3181.65C1692.07 3181.98 1689.5 3181.76 1681.24 3179.57ZM1313.25 3177.29C1308.97 3176.47 1311.04 3174.3 1319.75 3170.48C1324.56 3168.37 1329.06 3166.22 1329.75 3165.7C1330.73 3164.96 1331 3146.9 1331 3081.33L1331 2997.91L1321 2993.31C1315.5 2990.77 1311 2988.14 1311 2987.46C1311 2984.41 1378.15 2984.75 1381.22 2987.82C1382.81 2989.41 1377.28 2992.77 1371.87 2993.52C1369.07 2993.9 1365.98 2995.02 1365 2996C1362.87 2998.13 1361.29 3004.93 1360.44 3015.65C1359.79 3023.79 1361.49 3071.83 1362.46 3072.8C1363.55 3073.89 1443.25 3075.54 1444.67 3074.5C1445.78 3073.68 1445.98 3066.64 1445.76 3035.57L1445.5 2997.65L1436 2993.45C1421.08 2986.86 1421.88 2986.36 1448.66 2985.48C1469.78 2984.8 1491.15 2985.35 1494.61 2986.68C1497.04 2987.61 1495.76 2989.04 1488.54 2993.44C1484.75 2995.75 1481.07 2998.51 1480.36 2999.59C1479.64 3000.67 1478.59 3004.69 1478.03 3008.52C1476.87 3016.38 1474.74 3122.11 1475.2 3148.94L1475.5 3166.37L1484.85 3170.44C1500.46 3177.22 1498.69 3177.77 1460.88 3177.9C1431.44 3178 1426 3177.63 1426 3175.53C1426 3174.86 1429.94 3172.59 1434.75 3170.48C1439.56 3168.37 1444.07 3166.22 1444.76 3165.69C1445.75 3164.95 1445.97 3155.98 1445.76 3124.62L1445.5 3084.5L1402.74 3084.24L1359.98 3083.98L1360.24 3125.2L1360.5 3166.42L1369.78 3170.38C1385.37 3177.04 1382.74 3177.81 1344.5 3177.76C1328.55 3177.74 1314.49 3177.53 1313.25 3177.29ZM1828 3177.34C1816.66 3176.6 1815.38 3175.4 1823.02 3172.69C1828.76 3170.65 1834.35 3166.13 1836.73 3161.6C1838.96 3157.37 1839.47 3127.27 1838.5 3055.46L1837.76 2999.89L1824.96 2993.48C1817.92 2989.95 1811.83 2986.53 1811.42 2985.87C1810.85 2984.95 1819.29 2984.82 1848.5 2985.3C1869.3 2985.64 1886.71 2986.31 1887.2 2986.8C1888.49 2988.09 1886.27 2989.59 1877.38 2993.46L1869.5 2996.88L1869.18 3004.19C1868.8 3013.06 1870.8 3072.13 1871.51 3072.84C1871.79 3073.12 1890.12 3073.86 1912.26 3074.48C1941.85 3075.31 1952.84 3075.31 1953.78 3074.49C1954.8 3073.6 1954.85 3067.84 1954.04 3045.44C1953.48 3030.07 1953.02 3013.57 1953.01 3008.76L1953 3000.01L1940.08 2993.54C1932.97 2989.98 1926.87 2986.6 1926.52 2986.03C1925.13 2983.78 2002.52 2985.19 2004.79 2987.46C2005.98 2988.65 2002.06 2991.27 1995.86 2993.4C1990.13 2995.37 1989.38 2995.95 1988.29 2999.26C1986.18 3005.65 1985.04 3039.45 1984.77 3103.92L1984.5 3166.33L1992.81 3170.03C2002.58 3174.37 2004.16 3175.6 2001.42 3176.72C1999.01 3177.7 1939.48 3177.68 1935.75 3176.69C1931.82 3175.65 1932.34 3174.41 1937.46 3172.67C1944.86 3170.15 1950.77 3165.49 1951.97 3161.23C1953.39 3156.23 1955.17 3117.07 1954.8 3099L1954.5 3084.5L1911.74 3084.24L1868.98 3083.98L1869.24 3125.18L1869.5 3166.39L1877 3169.62C1887.25 3174.04 1888.52 3174.88 1887.07 3176.33C1885.93 3177.47 1841.54 3178.23 1828 3177.34ZM1713.26 3169.53C1726.73 3166.68 1742.32 3155.75 1750.49 3143.45C1759.01 3130.62 1763 3112.07 1763 3085.33C1763 3048.5 1756.11 3024.2 1741.31 3008.88C1734.29 3001.6 1726.03 2996.84 1717.11 2994.93C1714.18 2994.3 1706.42 2993.95 1699.67 2994.15C1688.65 2994.47 1686.93 2994.78 1681.5 2997.42C1673.22 3001.45 1661.53 3013.33 1656.81 3022.5C1646.37 3042.82 1641.56 3070.98 1644.02 3097.32C1647.76 3137.33 1664.44 3163.06 1690.77 3169.45C1698.28 3171.26 1704.96 3171.29 1713.26 3169.53ZM1199.1 2932.61C1197.81 2931.24 1196.38 2928.05 1195.9 2925.51C1194.23 2916.55 1193.06 2869.55 1192.52 2789.5C1192.22 2744.95 1191.76 2676.78 1191.5 2638C1191.25 2599.22 1191.03 2292.21 1191.02 1955.75L1191 1344L1048.75 1343.92C826.89 1343.79 563.48 1342.29 547 1341.05C522.61 1339.22 516 1337.43 516 1332.63C516 1328.82 519.04 1327.07 527.58 1325.98C545.44 1323.69 627.61 1323.04 901.05 1323.02C1123.34 1323 1188.87 1322.73 1189.8 1321.8C1190.73 1320.87 1191 1261.64 1191 1061.3L1191 802L965.75 801.99C659.6 801.97 540.44 800.89 524.77 797.98C518.99 796.9 516 794.31 516 790.36C516 787.58 517.89 786.64 526.65 785.08C544.15 781.97 571.5 781.66 880 781.08L1190.5 780.5L1191.12 587.5C1191.7 409.29 1192.4 362.04 1194.62 350.5C1195.57 345.55 1197.72 343 1200.95 343C1203.33 343 1204.03 343.57 1204.91 346.25C1207.99 355.67 1209.7 388.76 1210.5 454C1210.8 478.48 1211.24 514.92 1211.49 535C1211.73 555.08 1211.95 862.24 1211.97 1217.6L1212 1863.69L1519.75 1864.33C1812.96 1864.94 1873.14 1865.55 1888.78 1868.05C1897.15 1869.38 1900.23 1871.86 1899.8 1876.92C1899.56 1879.67 1898.79 1880.82 1896.13 1882.36C1892.81 1884.29 1888.14 1884.33 1552.38 1884.8L1212 1885.28L1212 2128.98L1212 2372.68L1249.66 2373.34C1270.38 2373.7 1342.49 2374.01 1409.91 2374.03C1578.77 2374.08 1837.07 2375.75 1862.52 2376.96C1884.69 2378.02 1893.62 2379.19 1895.76 2381.34C1897.89 2383.46 1894.11 2385.93 1886.95 2387.09C1873.11 2389.31 1814.36 2389.96 1520.5 2391.11C1352.2 2391.77 1214.44 2392.35 1214.36 2392.4C1214.29 2392.46 1213.93 2466.75 1213.57 2557.5C1212.55 2816.12 1210.83 2925.4 1207.68 2931.99C1206.01 2935.49 1202.07 2935.77 1199.1 2932.61ZM2011.27 2471.01C2000.23 2469.45 1992.72 2467.11 1982.5 2462.07C1962.17 2452.03 1947.34 2433.8 1939.73 2409.5C1935.86 2397.14 1934.58 2387.78 1934.58 2372C1934.58 2356.22 1935.86 2346.86 1939.73 2334.5C1951.33 2297.44 1979.58 2275.02 2019.1 2271.47C2033.08 2270.22 2052.19 2274.01 2065.29 2280.64C2084.7 2290.46 2100.9 2307.51 2110.45 2328.19C2125.63 2361.04 2121.96 2399.3 2100.53 2431.5C2083.97 2456.38 2059.01 2470.25 2028.61 2471.45C2022.5 2471.69 2014.7 2471.49 2011.27 2471.01ZM2145.08 2467.18C2142.65 2466.8 2140.49 2466.01 2140.3 2465.41C2140.1 2464.81 2143.66 2462.64 2148.22 2460.58C2152.77 2458.53 2157.29 2456.14 2158.25 2455.27C2159.89 2453.79 2160 2448.47 2160 2370.82L2160 2287.95L2150.28 2283.22C2144.94 2280.63 2140.43 2278.01 2140.25 2277.41C2139.89 2276.16 2167.79 2275 2198.28 2275C2213.67 2275 2217.04 2275.24 2216.17 2276.29C2215.58 2277 2209.68 2280.22 2203.05 2283.43L2191 2289.28L2191 2326.14L2191 2363L2233.44 2363C2265.42 2363 2276.07 2362.7 2276.63 2361.8C2277.95 2359.65 2278.32 2317.83 2277.1 2307.52C2275.18 2291.24 2272.37 2286.92 2259.74 2280.87C2257.11 2279.61 2255.13 2278.12 2255.32 2277.54C2255.77 2276.19 2323.42 2275.58 2325.79 2276.9C2327.21 2277.7 2326.96 2278.1 2324.12 2279.67C2316.15 2284.04 2309.06 2289.02 2308.02 2290.97C2306.17 2294.42 2305.06 2313.28 2304.41 2352.5C2303.83 2386.79 2305.14 2445.44 2306.64 2452.29C2307.34 2455.49 2313.22 2459.94 2320.59 2462.84C2325.03 2464.58 2325.23 2464.8 2323.29 2465.84C2321.97 2466.55 2311.16 2467.19 2294.35 2467.56C2267.91 2468.14 2256 2467.5 2255.32 2465.46C2255.13 2464.89 2257.41 2463.24 2260.38 2461.78C2271.81 2456.17 2274.99 2451.23 2276.97 2436C2278.07 2427.47 2278.32 2395.07 2277.36 2383.78L2276.73 2376.25L2266.61 2375.64C2261.05 2375.31 2241.31 2374.74 2222.75 2374.37L2189 2373.71L2189 2398.6C2189.01 2428.94 2190.38 2449.09 2192.78 2453.96C2194.46 2457.37 2199.94 2460.94 2207.5 2463.56C2210.46 2464.59 2210.47 2464.62 2208.31 2465.8C2205.83 2467.17 2152.57 2468.33 2145.08 2467.18ZM2041.09 2457.54C2064.74 2447.19 2076.2 2435.33 2080.45 2416.81C2083.88 2401.86 2084.98 2373.92 2082.97 2352.5C2078.64 2306.45 2061.82 2285.75 2027.5 2284.25C2014.36 2283.68 2006.66 2284.94 1998.33 2289.02C1984.2 2295.95 1973.21 2315.08 1968.34 2341.24C1965.94 2354.17 1965.99 2385.63 1968.44 2399.44C1974.57 2433.91 1989.09 2452.98 2014.63 2460.09C2024.13 2462.73 2030.66 2462.1 2041.09 2457.54ZM2000.5 1961.96C1975.48 1958.06 1954.16 1944.23 1940.41 1922.97C1917.76 1887.95 1917.42 1839.09 1939.59 1804.73C1949.32 1789.66 1959.75 1779.98 1974.53 1772.32C1988.85 1764.89 1995.09 1763.5 2014 1763.5C2028.15 1763.5 2031.71 1763.83 2039 1765.82C2049.25 1768.62 2061.49 1774.22 2070.04 1780.03C2108.72 1806.29 2121.31 1864.56 2098.24 1910.5C2085.2 1936.47 2062.11 1955.82 2038.5 1960.53C2028.76 1962.48 2008.67 1963.24 2000.5 1961.96ZM2134.25 1958.33C2130.05 1957.46 2131.97 1955.3 2140.25 1951.57C2144.79 1949.53 2149.29 1947.14 2150.25 1946.27C2151.89 1944.79 2152 1939.47 2152 1861.8L2152 1778.91L2142 1774.31C2136.5 1771.77 2132 1769.16 2132 1768.5C2132 1765.11 2198.75 1765.35 2202.16 1768.76C2203.78 1770.38 2199.48 1772.96 2192.96 1774.28C2187.48 1775.39 2186.3 1776.03 2184.73 1778.72C2181.43 1784.38 2180.58 1798.42 2181.82 1827.21C2182.44 1841.55 2183.1 1853.43 2183.3 1853.63C2183.5 1853.83 2201.54 1854.53 2223.4 1855.2C2251.47 1856.05 2263.63 1856.09 2264.82 1855.34C2266.34 1854.38 2266.52 1850.68 2266.72 1816.58L2266.94 1778.89L2256.97 1774.29C2251.49 1771.76 2247 1769.14 2247 1768.45C2247 1765.96 2309.54 1765.09 2315.29 1767.5C2317.02 1768.22 2317.02 1768.32 2315.29 1770.23C2314.31 1771.32 2311.41 1773.27 2308.86 1774.57C2302.88 1777.6 2301.31 1779.24 2300.02 1783.78C2298.21 1790.22 2297.12 1820.44 2296.41 1884.73L2295.72 1946.95L2300.11 1948.86C2315.36 1955.47 2316.37 1956.03 2315.13 1957.27C2313.77 1958.63 2259.1 1959.68 2251.19 1958.5C2244.87 1957.56 2246.12 1955.48 2255.43 1951.43C2268.31 1945.84 2267.11 1950.74 2266.78 1905.06L2266.5 1865.5L2223.75 1865.24L2181 1864.98L2181 1906.04L2181 1947.1L2184.75 1948.66C2186.81 1949.52 2191.39 1951.53 2194.93 1953.13C2205.71 1958 2203.37 1958.48 2167.7 1958.65C2150.54 1958.73 2135.49 1958.58 2134.25 1958.33ZM2024 1950.97C2036.64 1949 2050.77 1939.9 2059.37 1928.18C2072.02 1910.94 2077.85 1887.55 2076.68 1858.7C2075.4 1827.06 2067.52 1803.51 2053.51 1789.48C2042.38 1778.33 2033.58 1775.03 2014.93 1775.01C1997.17 1774.99 1989.9 1778.02 1977.48 1790.58C1967.87 1800.3 1962.15 1812.71 1959.52 1829.5C1955.09 1857.89 1957.34 1890.97 1965.07 1911C1974.88 1936.44 1992.53 1950.89 2015 1951.88C2016.38 1951.94 2020.42 1951.53 2024 1950.97ZM387.5 1415.89C347.72 1410.15 319.24 1379.76 311.37 1334.64C309.3 1322.78 310 1301.94 312.86 1290.5C322.16 1253.28 349.21 1225.58 383.32 1218.34C394.46 1215.97 415.87 1216.97 427.28 1220.38C463.28 1231.15 484.94 1254.26 494.21 1291.79C497.2 1303.91 497.22 1325.59 494.25 1338.56C489.36 1359.9 480.47 1376.42 466 1391.07C450.76 1406.5 436.36 1413.62 415.73 1415.92C404.73 1417.15 396.16 1417.14 387.5 1415.89ZM106.25 1412.32C102.15 1411.48 103.91 1409.31 111.25 1406.13C115.24 1404.41 119.62 1402.42 121 1401.71L123.5 1400.42L123.76 1316.64L124.01 1232.87L114.01 1228.26C108.5 1225.73 104 1223.11 104 1222.44C104 1219.4 171.07 1219.67 174.12 1222.72C175.81 1224.41 170.51 1227.74 164.93 1228.51C159.09 1229.31 156.38 1231.67 155.26 1236.93C154.33 1241.31 154.36 1306.69 155.3 1307.63C156.42 1308.75 236.99 1310.62 238.05 1309.55C238.62 1308.98 239 1293.28 239 1270.76L239 1232.91L229 1228.31C223.5 1225.77 219 1223.16 219 1222.5C219 1219.37 285.6 1219.26 288.72 1222.38C289.72 1223.39 285.82 1226.55 279.78 1229.61C273.59 1232.75 272.19 1235.72 270.97 1248.23C269.86 1259.68 268.15 1345.53 268.36 1379.27L268.5 1401.03L277.88 1405.27C283.03 1407.6 287.31 1409.95 287.38 1410.49C287.61 1412.33 281.57 1412.76 254 1412.87C225.22 1412.98 219 1412.56 219 1410.49C219 1409.8 222.94 1407.56 227.75 1405.5C232.56 1403.45 237.06 1401.31 237.75 1400.76C238.71 1399.99 239 1390.48 239 1359.38L239 1319L196 1319L153 1319L153 1360.02L153 1401.05L155.25 1401.92C156.49 1402.4 161.07 1404.42 165.43 1406.42C177.83 1412.1 176.26 1412.48 139.7 1412.64C122.54 1412.72 107.49 1412.57 106.25 1412.32ZM410.92 1404.9C421.23 1403.19 431.31 1397.75 439.5 1389.49C454.94 1373.92 462.52 1353.69 463.65 1325C464.98 1291.42 455.79 1258.84 440.71 1243.7C429.78 1232.72 419.84 1229 401.45 1229C388.48 1229 383.07 1230.34 375.33 1235.48C361.45 1244.7 350.82 1260.6 347.57 1277C343.38 1298.15 343.09 1327.08 346.87 1346.57C353.1 1378.71 369.45 1399.52 392.4 1404.51C400.15 1406.2 402.81 1406.25 410.92 1404.9ZM385 878.93C365.78 877.24 346.26 868.35 332.32 854.91C316.97 840.13 308.35 825.32 302.92 804.42C299.57 791.53 299.56 767.51 302.9 754.61C309.25 730.05 321.39 711.16 339.5 697.66C355.31 685.87 371.49 680.17 391.73 679.27C418.05 678.11 437.91 685.83 457.37 704.78C490.81 737.37 495.76 798.51 468.24 839.1C462.81 847.13 451.37 858.68 443.67 863.92C427.09 875.21 405.52 880.73 385 878.93ZM98.75 874.29C94.32 873.8 93.71 871.53 97.75 870.54C102.73 869.32 109 864.96 111.73 860.83L114.42 856.77L114.83 829.36C115.06 814.29 114.91 778.3 114.5 749.4L113.76 696.85L100.38 690.24C93.02 686.61 87 683.23 87 682.75C87 681.84 155.5 682.63 161.82 683.61C166.68 684.35 164.63 686.15 153.8 690.64L144.74 694.39L145.48 723.95C145.88 740.2 146.5 757.33 146.86 762L147.5 770.5L188 771.67C218.89 772.56 228.78 772.56 229.68 771.67C230.57 770.78 230.62 762.12 229.89 735.5C229.35 716.25 228.72 699.58 228.49 698.45C228.18 696.95 224.6 694.78 215.03 690.28C207.86 686.91 202 683.67 202 683.08C202 680.64 278.79 682.39 281.28 684.88C282.6 686.2 278.21 688.85 271.28 690.9C266.01 692.46 265.39 692.95 264.24 696.42C262.27 702.38 261.17 732.27 260.42 800.5L259.73 863.5L268.87 867.35C273.9 869.47 278.26 871.61 278.56 872.1C279.94 874.33 272.43 875 246.68 874.91C218.72 874.82 209.91 874.25 209.33 872.49C209.14 871.93 211.16 870.7 213.81 869.76C221.27 867.11 226.71 862.7 227.96 858.28C229.41 853.14 231.17 814.93 230.8 796.5L230.5 781.5L187.75 781.24L145 780.98L145 822.05L145 863.12L154.66 867.6C162.21 871.1 164.05 872.35 163.11 873.29C162.23 874.18 153.97 874.53 132.2 874.6C115.87 874.66 100.81 874.52 98.75 874.29ZM405.45 866.47C426.83 860.9 444.19 842.66 449.98 819.7C454.28 802.64 454.94 770.66 451.42 750C445.73 716.59 430.16 696.6 406.2 691.95C397.2 690.19 379.67 691.16 373.94 693.73C367.02 696.82 357.89 704.25 353.17 710.62C337.8 731.37 330.66 768.33 335.55 801.87C337.77 817.13 339.54 823.1 345.52 835.5C353.57 852.2 364.12 861.71 379.5 866.13C387.07 868.31 397.86 868.45 405.45 866.47ZM1212 271.42C1188.29 268.77 1173.04 262.1 1159.28 248.36C1150.69 239.79 1144.71 230.83 1137.48 215.69C1131.42 203.01 1130 196.78 1130 182.92C1130 139.89 1142.72 108.6 1167.86 89.78C1175.54 84.04 1192.03 76.45 1202.51 73.84C1209.49 72.1 1214.41 71.59 1224.5 71.59C1238.96 71.57 1243.65 72.38 1262.5 78.12C1269.65 80.3 1276.47 81.85 1277.65 81.55C1278.84 81.25 1281.69 78.76 1284 76.01C1288.55 70.57 1291.44 69.64 1292.36 73.31C1293.54 78.01 1295.11 108.9 1294.81 121.5C1294.56 131.98 1294.22 134.5 1293.07 134.5C1292.26 134.5 1288.77 129.17 1285.07 122.25C1277.47 108.08 1272.51 101.44 1265.5 96.06C1229.64 68.54 1179.92 86.69 1167.85 131.7C1166.05 138.41 1165.69 143.29 1165.27 166.5C1164.56 205.42 1166.1 214.86 1175.48 228.98C1190.18 251.09 1220.62 263.42 1245.81 257.48C1259.48 254.26 1269.21 247.89 1283.18 233C1290.39 225.32 1294.18 222 1295.75 222C1298.76 222 1298.69 224.71 1295.5 230.99C1290.38 241.11 1271.48 258.03 1258.5 264.13C1255.2 265.69 1248.96 267.86 1244.63 268.97C1237.03 270.91 1219.33 272.24 1212 271.42ZM1602 270.57C1573.24 264.19 1551.02 246.88 1537.75 220.5C1528.64 202.41 1525.71 177.65 1529.53 151.13C1532.84 128.15 1538.9 116.53 1557.24 98C1575.26 79.8 1590.2 72.86 1614.5 71.38C1639.98 69.84 1664.62 78.82 1682.03 96C1705.94 119.6 1714.61 142.92 1712.57 178.13C1710.86 207.58 1702.82 226.21 1683.86 244.62C1664.63 263.28 1643.68 272.1 1619 271.89C1612.67 271.84 1605.03 271.25 1602 270.57ZM1325.25 266.28C1321.15 265.77 1321.06 264.37 1325.07 263.48C1326.77 263.11 1329.77 261.39 1331.74 259.65C1340.15 252.27 1341.93 241.34 1342.52 193.5C1342.92 160.11 1341.88 113.84 1340.41 100.05C1339.8 94.27 1339.29 93.14 1335.61 89.32C1333.35 86.98 1328.85 83.58 1325.6 81.78C1322.36 79.98 1319.66 78.05 1319.6 77.5C1319.36 75.08 1389.09 74.71 1390.58 77.13C1390.88 77.62 1389.69 78.8 1387.93 79.76C1370.59 89.2 1368.82 93.92 1368.62 131C1368.48 156.7 1369 158.73 1376.72 162.29C1381.34 164.43 1382.41 164.49 1409 164.2C1424.12 164.03 1440.78 163.58 1446 163.2L1455.5 162.5L1456.2 154C1456.58 149.32 1457 136.05 1457.13 124.5C1457.47 94.34 1455.34 88.72 1440.83 81.42C1437.08 79.52 1434 77.59 1434 77.12C1434 75.53 1443.22 75 1468.89 75.1C1495.64 75.2 1504.98 75.82 1505.18 77.5C1505.24 78.05 1502.64 79.99 1499.4 81.81C1490.63 86.72 1486.87 90.86 1485.91 96.66C1483.4 111.74 1482.53 214.09 1484.67 241.43C1485.26 248.92 1485.51 249.6 1489.27 253.68C1491.46 256.06 1496.14 259.42 1499.66 261.15C1503.18 262.89 1505.9 264.8 1505.7 265.4C1505.45 266.15 1496.53 266.6 1477.42 266.8C1450.36 267.1 1436.94 266.55 1437.06 265.17C1437.09 264.8 1439.39 263.38 1442.17 262C1448.77 258.74 1452.43 253.51 1455.12 243.5C1457.07 236.19 1457.27 232.82 1457.38 204.5L1457.5 173.5L1445 173.84C1438.12 174.02 1418.68 174.5 1401.78 174.89C1384.88 175.29 1370.85 175.81 1370.61 176.06C1370.36 176.31 1369.77 186.41 1369.3 198.5C1368.28 224.55 1369.08 242.7 1371.5 248.74C1373.57 253.88 1378.6 258.47 1385.76 261.75C1388.7 263.09 1390.93 264.71 1390.72 265.35C1390.44 266.18 1381.8 266.53 1359.42 266.6C1342.41 266.65 1327.04 266.51 1325.25 266.28ZM1636.57 258.54C1651.93 253.96 1667.74 235.95 1675.83 213.81C1678.47 206.57 1678.5 206.26 1678.4 181C1678.26 144.67 1675.28 125.93 1667.19 110.55C1658.14 93.31 1641.62 84.03 1620 84.03C1593.7 84.03 1575.5 97.03 1568.22 121C1564.41 133.58 1563.5 144.04 1563.57 174.5C1563.64 200.68 1563.85 204.35 1565.8 212.23C1569.22 226.11 1577.73 241.01 1587.04 249.41C1592.23 254.1 1601.68 258.63 1609 259.92C1616.08 261.18 1630.07 260.47 1636.57 258.54Z" fill="#1e2749" fill-rule="evenodd"/>
</svg>
