<?xml version="1.0" encoding="UTF-8"?>
<svg xmlns="http://www.w3.org/2000/svg" viewBox="0 0 2430 2048" width="2430" height="2048" shape-rendering="geometricPrecision">
<path d="M1031.25 2023.32C1029.89 2023.04 1029 2022.13 1029 2021C1029 2019.62 1030.46 2018.67 1034.66 2017.32C1041.88 2015 1043.9 2012.29 1045.04 2003.41C1046.13 1995.02 1046.15 1952.88 1045.09 1940.69C1044.15 1930 1043.15 1928.72 1035.22 1928.01C1030.26 1927.57 1029.46 1927.21 1029.18 1925.28C1028.95 1923.65 1029.76 1922.5 1032.18 1921.02C1037.66 1917.66 1055.14 1911.18 1060.73 1910.44C1065.75 1909.78 1065.99 1909.85 1066.98 1912.44C1067.54 1913.92 1068 1917.88 1068 1921.24L1068 1927.35L1075.85 1919.7C1080.17 1915.5 1084.93 1911.6 1086.42 1911.03C1093.26 1908.43 1104.87 1911.12 1108.37 1916.11C1110.45 1919.09 1110.49 1926.86 1108.44 1929.78C1106.53 1932.51 1101.91 1935 1098.77 1935C1097.5 1935 1093.76 1933.66 1090.47 1932.03C1087.19 1930.4 1083.22 1929.05 1081.65 1929.03C1078.37 1929 1074.1 1933.04 1070.68 1939.44C1068.57 1943.37 1068.5 1944.55 1068.5 1975.68C1068.5 2006.7 1068.57 2007.95 1070.58 2010.68C1072.69 2013.54 1076.33 2015.76 1083.44 2018.52C1087.16 2019.97 1087.28 2020.15 1085.65 2021.78C1084.12 2023.31 1081.13 2023.52 1058.72 2023.64C1044.85 2023.72 1032.49 2023.58 1031.25 2023.32ZM1371.58 2023.16C1365.68 2021.82 1367.71 2018.93 1375.5 2017.56C1381.08 2016.59 1386.35 2012.87 1388.57 2008.34C1390.34 2004.74 1390.48 2000.96 1390.81 1949C1391 1917.52 1390.73 1889.41 1390.18 1884.04C1389.26 1875.02 1389.05 1874.43 1385.69 1871.35C1383.75 1869.57 1380.21 1867.64 1377.83 1867.06C1370.04 1865.14 1368.52 1864.48 1368.21 1862.84C1367.95 1861.51 1369.22 1861.08 1375.13 1860.49C1384.08 1859.59 1448.94 1860.83 1458.5 1862.08C1472.55 1863.92 1486.96 1874.16 1493.12 1886.67C1496.44 1893.41 1496.42 1908.68 1493.09 1917.25C1488.97 1927.84 1476.43 1938.53 1463.22 1942.71C1459.74 1943.81 1458.1 1944.83 1458.43 1945.68C1459.27 1947.87 1483.93 1981.98 1491.56 1991.5C1504.46 2007.61 1509.58 2011.44 1526.3 2017.47C1531.9 2019.49 1532.31 2021.9 1527.28 2023.21C1525.5 2023.67 1515.4 2023.92 1504.82 2023.77L1485.59 2023.5L1458.53 1986L1431.47 1948.5L1423.74 1948.21L1416 1947.92L1416.08 1959.21C1416.12 1965.42 1416.49 1979.05 1416.9 1989.5C1417.9 2014.89 1417.75 2014.63 1432.75 2018.02C1438.74 2019.37 1439.67 2020.2 1437.34 2022.14C1436.04 2023.21 1429.28 2023.53 1405.1 2023.66C1388.27 2023.75 1373.19 2023.53 1371.58 2023.16ZM1167 1961.5L1167 1955.99L1232.75 1956.24L1298.5 1956.5L1298.5 1961.5L1298.5 1966.5L1232.75 1966.76L1167 1967.01L1167 1961.5ZM1437.74 1936.58C1446.18 1934.33 1452.15 1930.97 1457.66 1925.35C1467.75 1915.07 1469.68 1901.93 1463.09 1888.53C1459.13 1880.49 1454.76 1876.82 1445.63 1873.86C1437.3 1871.17 1420.09 1870.52 1417.79 1872.81C1416.81 1873.79 1416.42 1881.67 1416.17 1906.05L1415.83 1938L1424.17 1937.99C1428.75 1937.98 1434.86 1937.35 1437.74 1936.58ZM1167 1922.51L1167 1917L1233.05 1917L1299.1 1917L1298.8 1922.25L1298.5 1927.5L1232.75 1927.76L1167 1928.01L1167 1922.51ZM2312.33 1908.15C2307.84 1907.79 2303.84 1907.18 2303.46 1906.79C2302.12 1905.45 2303.93 1903.06 2306.71 1902.49C2311.77 1901.46 2316.45 1898.55 2317.94 1895.5C2319.9 1891.47 2320.84 1865.71 2320.03 1838.3C2319.3 1813.58 2319.32 1813.62 2310.33 1812.69C2300.34 1811.66 2300.53 1808.77 2310.92 1803.54C2321.1 1798.41 2332.42 1794.84 2337.34 1795.2L2341.5 1795.5L2341.79 1803.89L2342.09 1812.27L2350.32 1804.23C2359.4 1795.37 2363.57 1793.45 2371.19 1794.62C2379.51 1795.89 2383.85 1799.48 2384.69 1805.76C2385.29 1810.22 2383.29 1814.98 2379.78 1817.44C2376.37 1819.83 2370.89 1819.31 2363.63 1815.91C2355.2 1811.97 2352.92 1812.58 2347.64 1820.21C2344.2 1825.17 2343.67 1826.77 2342.82 1834.65C2341.45 1847.32 2342.54 1888.97 2344.36 1893.32C2345.99 1897.22 2349.5 1899.9 2356.25 1902.4C2361.2 1904.24 2361.85 1905.05 2359.74 1906.8C2358.2 1908.08 2323.79 1909.06 2312.33 1908.15ZM2197.5 1865.23C2194.67 1864.67 2193 1862.14 2193 1858.4C2193 1853.81 2197.75 1848.15 2223.36 1822.25L2245.37 1800L1331.93 1799.88C450.51 1799.77 304.12 1799.46 302.33 1797.67C301.87 1797.21 301.2 1787.09 300.84 1775.17C300.48 1763.25 299.86 1377.53 299.46 918C299.07 458.47 298.6 82.33 298.42 82.13C298.23 81.92 286.34 93.17 271.99 107.13C257.64 121.08 244.31 133.32 242.37 134.31C239.12 135.98 238.65 136 236.42 134.54C232.5 131.97 233.15 127.33 238.4 120.35C243.83 113.13 300.44 57.05 304.3 55.05C306.77 53.78 307.41 53.79 309.62 55.12C316.99 59.6 360.71 102.73 376.79 121.39C381.83 127.25 382.29 130.84 378.37 133.93C376.92 135.07 374.93 136 373.95 136C371.03 136 362.86 128.86 339.49 105.86C327.28 93.84 316.99 84 316.64 84C316.29 84 316 206.8 316 356.89L316 629.78L334.25 630.2C355.64 630.7 360 631.82 360 636.87C360 644.96 356.76 646.33 338.01 646.18C330.03 646.11 321.79 646.31 319.69 646.63L315.88 647.2L316.21 1202.35C316.44 1586.71 316.87 1758.23 317.59 1759.88C318.58 1762.13 319.42 1761.26 332.13 1744.88C363.53 1704.43 420.6 1629.67 458.39 1579.5C477.04 1554.73 550.42 1458.4 593.97 1401.5C651.68 1326.11 693.25 1271.77 709.11 1251C719.82 1236.97 763.2 1180.28 805.51 1125C847.82 1069.72 892.24 1011.67 904.22 996C936.23 954.14 960.92 921.9 974.54 904.17C981.16 895.55 1018.08 847.33 1056.59 797C1095.09 746.67 1136.03 693.22 1147.55 678.21C1159.07 663.2 1169.07 650.11 1169.77 649.12C1170.98 647.39 1170.03 647.28 1149.59 646.74C1123.99 646.07 1122.5 645.65 1122.5 639.09C1122.5 635.46 1122.98 634.36 1125.32 632.61C1127.93 630.66 1129.65 630.48 1148.35 630.16C1161.06 629.95 1170.59 630.26 1174.03 630.98C1180.39 632.32 1181.02 632.34 1187 631.46C1190.74 630.91 1191.81 631.13 1193.3 632.78C1195.37 635.07 1198.16 648.27 1203.49 681C1216.4 760.3 1233.88 825.54 1258.94 888C1321.12 1042.93 1407.42 1172.96 1524.11 1287.52C1650.36 1411.47 1805.23 1510.53 2002 1593.2C2054.73 1615.35 2108.93 1635.65 2167.5 1655.18C2216.28 1671.44 2217.07 1671.83 2215.51 1678.95C2213.96 1686.03 2209.33 1685.66 2179.5 1676.06C2002.57 1619.15 1844.05 1545.71 1714.5 1460.63C1655.83 1422.1 1602.24 1381.22 1556.5 1340.12C1534.24 1320.12 1468.44 1253.94 1451.91 1234.92C1414.95 1192.41 1389.34 1159.1 1360.48 1116C1331.03 1072.03 1311.94 1038.92 1284.93 985C1245.64 906.55 1221.17 840.66 1202.42 762.75C1200.86 756.29 1199.3 751 1198.94 751C1198.58 751 1198.02 757.64 1197.68 765.75C1197.35 773.86 1196.63 782.3 1196.09 784.5C1194.4 791.33 1188.22 794.22 1184.1 790.1C1182.62 788.62 1182.04 786.02 1181.46 778.35C1180.5 765.54 1181.45 736.9 1182.93 734.13C1184.31 731.56 1189.45 731.23 1192.71 733.51C1193.98 734.4 1195.11 734.63 1195.46 734.07C1196.1 733.02 1192.56 711.45 1190.89 706.26C1190.32 704.47 1188.56 702.26 1186.96 701.31C1183.11 699.04 1182.16 695.91 1181.48 683.18C1180.73 669.12 1180.04 663.81 1179.03 664.19C1178.57 664.36 1172.17 672.38 1164.82 682C1143.67 709.68 1041.3 843.33 1023.51 866.5C1014.56 878.16 961.97 946.79 953.02 958.5C937.38 978.96 908.88 1016.17 892.89 1037C856.6 1084.29 715.14 1269.06 641.77 1365C629.78 1380.67 614.46 1400.68 607.74 1409.46C590.45 1432.01 578.87 1447.15 552 1482.38C539.08 1499.33 522.22 1521.36 514.54 1531.34C506.86 1541.33 486.38 1568.4 469.04 1591.5C451.69 1614.61 421.98 1653.9 403 1678.83C339.24 1762.59 326 1780.24 326 1781.46C326 1783.28 476.15 1784 854.47 1784C1105.24 1784 1178.87 1783.73 1179.8 1782.8C1180.63 1781.97 1181.04 1776.23 1181.12 1764.05C1181.18 1754.4 1181.52 1745.17 1181.87 1743.54C1183.22 1737.25 1191.54 1736.27 1194.53 1742.05C1196.29 1745.46 1197.92 1760.91 1197.97 1774.75L1198 1784L1720.83 1784C2008.39 1784 2243.96 1783.7 2244.33 1783.34C2244.69 1782.97 2234.71 1772.27 2222.15 1759.55C2196.99 1734.07 2192.99 1729.27 2193.02 1724.6C2193.04 1720.61 2193.91 1719.31 2197.14 1718.5C2202.41 1717.18 2207.66 1721.41 2236.05 1749.88C2263.45 1777.34 2274 1788.89 2274 1791.43C2274 1793.78 2259.24 1809.83 2232.04 1837.07C2206.07 1863.08 2202.27 1866.17 2197.5 1865.23ZM1186.32 1706.99C1181.86 1705.2 1181.5 1702.97 1181.5 1677.5C1181.5 1664.3 1181.84 1652.27 1182.27 1650.77C1183.89 1644.97 1192.75 1646.39 1195.3 1652.84C1199.87 1664.42 1197.32 1707 1192.06 1707C1191.57 1707 1190.56 1707.2 1189.83 1707.44C1189.1 1707.68 1187.52 1707.48 1186.32 1706.99ZM1185 1615.19L1181.5 1613.48L1181.2 1589.99C1180.88 1564.59 1181.3 1558.84 1183.63 1556.51C1185.67 1554.47 1189.98 1554.64 1192.89 1556.88C1196.2 1559.43 1196.87 1564.69 1196.94 1588.75L1197 1608.99L1193.38 1613C1191.39 1615.2 1189.48 1616.98 1189.13 1616.95C1188.79 1616.93 1186.92 1616.13 1185 1615.19ZM1186.32 1523.93C1181.87 1522.27 1181.5 1519.99 1181.5 1494.5C1181.5 1481.3 1181.84 1469.27 1182.27 1467.77C1183.62 1462.94 1191.49 1462.76 1194.58 1467.49C1198.77 1473.88 1198.57 1515.08 1194.32 1520.77C1192 1523.89 1189.18 1524.99 1186.32 1523.93ZM1183.67 1431.38L1180.83 1429.85L1181.22 1403.17C1181.43 1388.5 1181.97 1375.71 1182.41 1374.74C1184.24 1370.76 1191.88 1371.37 1194.73 1375.72C1196.25 1378.02 1196.55 1381.48 1196.86 1400.2C1197.06 1412.18 1196.95 1423.08 1196.61 1424.42C1195.69 1428.09 1191.12 1433.01 1188.66 1432.96C1187.47 1432.94 1185.22 1432.23 1183.67 1431.38ZM1183.31 1338.35C1181.69 1335.88 1181.5 1333.06 1181.5 1311.54C1181.5 1298.32 1181.84 1286.27 1182.27 1284.77C1183.62 1279.94 1191.49 1279.76 1194.58 1284.49C1197.07 1288.28 1198.33 1307.32 1197.1 1322.64C1195.92 1337.49 1194.62 1340.3 1188.71 1340.81C1185.72 1341.06 1184.82 1340.65 1183.31 1338.35ZM1184.7 1249.75C1181.81 1247.61 1180.84 1238.02 1181.18 1214.94C1181.53 1190.94 1181.61 1190.63 1187.7 1189.41C1192.76 1188.4 1195.62 1192 1196.57 1200.61C1197.63 1210.14 1197.67 1230.1 1196.65 1238.43C1195.96 1244.05 1195.27 1245.88 1192.98 1248.18C1189.92 1251.23 1187.35 1251.72 1184.7 1249.75ZM1187 1158.05C1182.05 1156.79 1181.5 1153.7 1181.5 1127C1181.5 1099.56 1181.81 1098 1187.31 1098C1191.56 1098 1194.61 1100.24 1195.84 1104.25C1198.72 1113.66 1197.79 1149.62 1194.54 1154.57C1192.5 1157.7 1190.05 1158.83 1187 1158.05ZM1185.85 1067.33C1182.14 1066.35 1181.5 1061.55 1181.5 1034.8C1181.5 1016.02 1181.83 1008.78 1182.71 1007.89C1183.38 1007.22 1185.79 1006.64 1188.08 1006.59C1194.56 1006.45 1195.76 1008.82 1197.07 1024.34C1198.33 1039.19 1197.07 1058.02 1194.49 1063.02C1193.26 1065.4 1188.81 1068.59 1187.68 1067.88C1187.58 1067.82 1186.76 1067.57 1185.85 1067.33ZM1184.82 973.98C1181.7 972.12 1180.72 962.88 1181.19 939.82C1181.68 916.1 1181.95 915 1187.4 915C1191.77 915 1194.77 917.4 1195.88 921.79C1198.9 933.72 1197.82 967.08 1194.25 971.87C1192.15 974.7 1187.69 975.7 1184.82 973.98ZM1185.69 884.3C1182.31 883.42 1181.63 879.08 1181.22 855.44C1180.74 827.89 1181.32 824.41 1186.52 823.43C1190.78 822.63 1192.45 823.22 1194.38 826.2C1196.59 829.61 1198.27 847.82 1197.54 860.5C1196.71 875.07 1195.43 880.52 1192.26 883.01C1189.71 885.01 1189 885.16 1185.69 884.3ZM407.95 646.04C393.81 645.38 390.71 643.94 391.19 638.29C391.41 635.73 392.31 634.1 394.32 632.6C396.95 630.65 398.66 630.48 418.86 630.16C442.69 629.78 447.97 630.5 450.59 634.5C452.45 637.33 451.78 642.02 449.19 644.27C447.19 646.01 426.36 646.91 407.95 646.04ZM492.94 645.97C482.78 645.03 481 643.98 481 638.96C481 630.57 485 629.52 514.38 630.21C539.37 630.79 542.92 632.09 541.04 640C539.94 644.68 535.28 645.9 516.98 646.31C507.92 646.51 497.1 646.36 492.94 645.97ZM588.45 646.13C575.52 645.39 572 643.85 572 638.93C572 634.71 575.71 631.32 581.22 630.49C583.69 630.12 594.9 629.97 606.15 630.16C623.82 630.45 626.97 630.75 629.35 632.31C633.4 634.97 634.11 637.79 631.86 642.25L629.96 646L619.12 646C613.16 646 606.3 646.17 603.89 646.38C601.48 646.58 594.53 646.47 588.45 646.13ZM678.5 645.96C672.45 645.57 667.42 645.2 667.32 645.13C663.58 642.46 662.84 636.16 665.91 633.09C668.52 630.48 678.99 629.61 699.84 630.28C718.86 630.9 721.98 631.55 723.8 635.31C725.45 638.7 723.72 642.92 719.99 644.62C716.78 646.09 692.67 646.86 678.5 645.96ZM768.41 645.97C758.63 645.33 755 643.43 755 638.93C755 634.71 758.71 631.32 764.22 630.49C766.69 630.12 777.96 629.97 789.28 630.16C808.33 630.47 810.07 630.66 812.68 632.6C814.23 633.76 815.65 635.71 815.83 636.95C816.28 639.97 814.16 644.85 811.86 646.08C809.99 647.08 784.39 647.01 768.41 645.97ZM862 645.99C856.23 645.6 850.71 644.95 849.74 644.53C846.4 643.1 846.24 635.9 849.49 632.66C850.37 631.77 854.04 630.89 858.64 630.45C868.84 629.5 899.78 630.47 903.26 631.86C909.24 634.24 908.94 641.91 902.76 644.42C898.69 646.07 876.13 646.94 862 645.99ZM956.5 646C948.68 645.7 942.61 644.99 941.26 644.22C938.42 642.6 937.37 638.54 939.01 635.49C941.38 631.06 944.8 630.5 969.55 630.5C989.81 630.5 992.91 630.71 995.26 632.25C999.43 634.99 1000.22 637.24 998.46 641.45C997.62 643.45 996.39 645.26 995.72 645.47C993.43 646.18 969.53 646.5 956.5 646ZM1044.8 646.05C1036.41 645.54 1033.66 645 1032.05 643.55C1028.41 640.25 1030.2 632.56 1034.92 631.23C1036.34 630.83 1047.62 630.51 1060 630.53C1078.73 630.55 1083.12 630.84 1086.21 632.21C1092.86 635.17 1092.02 642.62 1084.79 644.82C1080.37 646.17 1058.02 646.86 1044.8 646.05ZM63.3 198.04C35.72 197.51 31.65 196.99 33.36 194.22C33.69 193.69 36.1 192.97 38.73 192.6C45.1 191.72 52.2 187.99 53.81 184.67C54.82 182.6 55.25 169.3 55.68 126.74C56.25 69.85 55.56 51.92 52.56 46.12C50.95 43.01 46.69 41.01 41.6 40.99C38.15 40.97 33.86 39.1 33.29 37.37C33.08 36.75 34.12 35.94 35.6 35.56C38.89 34.74 159.85 34.52 160.67 35.34C161 35.66 161.48 43.03 161.76 51.71C162.22 66.33 162.11 67.68 160.29 69.91C157.68 73.11 156.36 72.06 154.39 65.2C149.27 47.42 145.76 46 106.79 46L81 46L81 76.44C81 93.18 81.34 107.07 81.75 107.29C83.41 108.2 125.7 106.1 129 104.95C133.19 103.48 136.73 100.46 137.61 97.59C140.23 89.09 142.29 85 143.94 85C146.48 85 147.02 90.39 146.88 114.39C146.75 137.21 146.33 140.5 143.61 140.5C142.18 140.5 141.22 138.9 139.55 133.76C135.22 120.41 131.63 119 101.82 119L81 119L81.07 129.25C81.11 134.89 81.48 149.31 81.9 161.3C82.55 179.82 82.93 183.35 84.37 184.8C85.88 186.31 88.88 186.5 111.29 186.5C141.36 186.5 143.67 186 151.66 177.74C154.44 174.86 158.18 170.32 159.97 167.66C161.76 164.99 164.57 161.28 166.21 159.41C169.67 155.47 173 154.86 173 158.16C173 161.53 161.99 195.29 160.25 197.25C158.82 198.86 155.99 198.98 125.1 198.79C106.62 198.68 78.81 198.34 63.3 198.04Z" fill="#1e2749" fill-rule="evenodd"/>
</svg>
