<?xml version="1.0" encoding="UTF-8"?>
<svg xmlns="http://www.w3.org/2000/svg" viewBox="0 0 2430 910" width="2430" height="910" shape-rendering="geometricPrecision">
<path d="M1390.76 878.43C1387.95 876.91 1386.34 873.16 1387.36 870.5C1388.18 868.35 1394.86 868.58 1400.38 870.95C1408.11 874.26 1411.39 874.47 1416.53 871.98C1427.68 866.59 1430.16 852.95 1421.75 843.36C1418.1 839.21 1414.18 837.06 1407.58 835.59C1404.88 834.98 1402.51 834.02 1402.31 833.44C1402.12 832.86 1403.66 831.59 1405.73 830.62C1416.98 825.35 1421.52 819.24 1420.78 810.39C1419.67 796.94 1405.01 793.08 1393.51 803.2C1389.15 807.04 1389 807.09 1389 804.74C1389 801.97 1393.47 795.35 1397.45 792.21C1401.53 789.01 1406.57 787.74 1413.35 788.2C1421.14 788.72 1426.51 791.3 1429.63 796.02C1434.73 803.72 1433.75 810.54 1426.23 819.78L1421.67 825.37L1424.06 826.94C1433.21 832.93 1437.18 839.67 1437.13 849.16C1437.07 861.28 1428.25 873.52 1416.36 877.97C1409.62 880.49 1395.04 880.76 1390.76 878.43ZM1151.11 850.4C1128.04 845.35 1109.34 825.76 1102.94 799.93C1101.05 792.31 1101.25 772.26 1103.29 763C1105.43 753.37 1112.51 739.05 1118.67 731.9C1131.18 717.4 1149.54 709 1168.71 709C1180.27 709 1187.02 710.3 1197.63 714.58C1205.83 717.88 1206.38 717.98 1208.73 716.44C1210.08 715.56 1211.94 713.52 1212.85 711.92C1214.92 708.27 1218.98 707.83 1219.05 711.25C1219.07 712.49 1219.69 722.05 1220.41 732.5C1221.69 750.9 1221.36 755.62 1218.86 754.79C1218.31 754.6 1216.54 751.17 1214.93 747.15C1211.28 738.06 1207.53 732.56 1200.99 726.68C1194.23 720.61 1186.87 717.9 1175.37 717.25C1154.78 716.1 1141.49 723.67 1133.09 741.35C1126.97 754.23 1125.63 761.62 1125.72 782C1125.79 798.01 1126.01 800.19 1128.41 807.66C1135.94 831.13 1153.25 842.95 1178.44 841.81C1185.62 841.49 1188.73 840.84 1193.46 838.66C1201.43 834.99 1208.67 829.26 1214.45 822.07C1219.43 815.86 1221.69 814.29 1223.3 815.9C1224.9 817.5 1219.35 825.72 1211.1 833.98C1198.41 846.68 1185.29 852.08 1167.5 851.9C1162 851.84 1154.62 851.17 1151.11 850.4ZM1236.75 848.31C1235.79 848.06 1235 847.24 1235 846.5C1235 845.6 1236.91 844.9 1240.66 844.44C1245.1 843.88 1247.1 843.02 1249.91 840.44L1253.5 837.15L1253.5 779.99L1253.5 722.84L1250.28 719.96C1248.06 717.98 1245.52 716.87 1242.15 716.43C1236.48 715.67 1234.46 714.68 1235.43 713.11C1236.19 711.88 1286.12 711.7 1291.5 712.91C1294.3 713.54 1294.37 713.66 1292.5 714.66C1291.4 715.26 1288.35 716.06 1285.73 716.44C1282.97 716.84 1279.81 718.12 1278.23 719.48L1275.5 721.82L1275.18 748.43L1274.85 775.03L1306.18 774.76L1337.5 774.5L1337.42 750.5C1337.38 737.3 1337.04 725.3 1336.67 723.83C1335.78 720.27 1330.13 716.92 1323.69 716.13C1320.03 715.69 1318.5 715.06 1318.5 714C1318.5 712.71 1322.29 712.46 1345.5 712.22C1360.35 712.06 1373.62 712.21 1375 712.55C1377.31 713.12 1377.37 713.26 1375.73 714.46C1374.76 715.17 1371.73 716.04 1369 716.41C1365.95 716.81 1362.97 717.98 1361.27 719.45L1358.5 721.83L1358.5 780L1358.5 838.17L1361.21 840.51C1362.72 841.8 1366.51 843.37 1369.71 844.03C1377.01 845.53 1377.74 845.99 1375.46 847.65C1374.03 848.7 1367.93 849 1348.06 848.99C1334 848.98 1321.49 848.7 1320.25 848.37C1316.74 847.43 1317.46 845 1321.25 844.98C1325.68 844.95 1332.2 841.83 1334.83 838.49C1336.93 835.82 1337 834.91 1337 809.37L1337 783L1306.62 783L1276.23 783L1275.63 785.25C1274.58 789.16 1274.95 832.29 1276.07 836.3C1277.35 840.91 1281.46 843.72 1288.27 844.63C1293.7 845.35 1294.94 846.43 1292.09 847.95C1290.17 848.98 1240.55 849.3 1236.75 848.31ZM1157.57 682.87L1154.86 680.75L1155.18 607.79C1155.49 536.92 1155.56 534.8 1157.44 533.42C1159.98 531.56 1162.5 531.62 1165.54 533.62L1168 535.23L1168 607.94L1168 680.65L1165.69 682.83C1162.78 685.55 1160.99 685.56 1157.57 682.87ZM325 548.97C317.31 548.01 313.33 544.8 314.43 540.42C315.05 537.96 315.36 537.84 320.29 538.26C323.16 538.51 328.24 539.71 331.58 540.94C339.36 543.79 343.82 542.82 349.48 537.02C353.06 533.35 353.44 532.44 353.81 526.67C354.5 515.84 349.07 508.46 338.18 505.44C330.09 503.19 330 503.16 330 502.15C330 501.65 332.46 500.03 335.47 498.56C345.76 493.52 350.88 484.23 348.06 475.7C346.69 471.54 344.7 469.61 339.54 467.45C333.47 464.92 328.13 466.18 322.15 471.55C316.69 476.46 316 476.78 316 474.34C316 471.37 321.96 463.29 326.28 460.41C330.81 457.39 339.47 456.11 346.5 457.43C353.07 458.67 360.91 468.07 360.98 474.79C361.01 477.65 357.62 484.4 353.86 488.98C352.29 490.89 351.03 493.14 351.06 493.98C351.09 494.82 353.26 497.13 355.89 499.13C362.57 504.22 364.5 508.59 364.44 518.5C364.41 524.78 363.91 527.43 362.16 530.79C355.52 543.51 340.45 550.88 325 548.97ZM848.25 547.28C846.14 547.01 845 546.32 845 545.31C845 544.44 850.79 537.78 857.86 530.49C878.34 509.4 884.93 498.63 884.98 486.2C885.01 476.58 880.55 470.25 872.17 468.03C864.08 465.88 857.89 468.54 851.79 476.77C848.52 481.19 847.46 482.07 847.18 480.63C846.55 477.44 848.97 470.71 852.48 465.88C856.95 459.71 862.64 457 871.07 457.01C879.82 457.01 884.41 458.47 889.14 462.75C894.89 467.94 897.34 473.24 897.36 480.55C897.39 491.35 890.05 503.51 871.23 523.86C866.15 529.35 862 534.58 862 535.49C862 536.97 863.61 537.11 877.25 536.82C892.12 536.51 892.59 536.43 896.09 533.75C902.39 528.93 903.28 529.89 900.26 538.25C898.82 542.24 897.22 546.06 896.7 546.75C895.99 547.69 890.31 547.96 873.63 547.84C861.46 547.75 850.04 547.5 848.25 547.28ZM1510 525.98C1494.11 524.1 1483.11 518.96 1472.83 508.63C1456.62 492.34 1450.85 475.47 1452.4 448.9C1453.98 421.76 1468.7 399.72 1492.41 388.97C1509.72 381.12 1527.69 380.99 1547.31 388.57C1552.4 390.53 1557.12 391.78 1558.19 391.44C1559.23 391.11 1561.26 389.06 1562.7 386.88C1565.64 382.43 1568 382.16 1569.06 386.13C1570.18 390.31 1572.38 426.57 1571.63 428.51C1570.99 430.19 1570.86 430.18 1568.98 428.48C1567.89 427.5 1567 426.24 1567 425.7C1567 422.69 1559.23 409.28 1554.56 404.24C1545.19 394.11 1533.96 390.19 1518.01 391.46C1510.94 392.03 1508.34 392.76 1502.51 395.81C1490.36 402.18 1483.56 411.19 1478.97 427.01C1475.86 437.7 1475.01 465.43 1477.45 476.4C1482.15 497.55 1495.41 511.44 1514.83 515.55C1523.35 517.36 1527.95 517.34 1535.91 515.46C1546.23 513.03 1553.18 508.67 1562.45 498.82C1567.83 493.11 1571.5 490 1572.88 490C1574.05 490 1575 490.41 1575 490.91C1575 493.08 1562.66 508.21 1557.17 512.78C1544.41 523.4 1527.67 528.08 1510 525.98ZM1586.5 522C1585.42 520.25 1587.01 519 1590.31 519C1594.37 519 1599.84 516.22 1602.14 513C1603.74 510.76 1604 506.79 1604.6 474.5C1604.97 454.7 1604.93 429.09 1604.52 417.6C1603.78 397.09 1603.72 396.65 1601.29 394.4C1599.92 393.12 1596.31 391.57 1593.16 390.89C1586.62 389.5 1584.83 388.35 1587.01 386.97C1588.75 385.88 1640.58 385.78 1643.35 386.87C1646.05 387.93 1643.61 389.59 1638 390.51C1632.38 391.42 1628.38 393.42 1626.99 396.03C1626.35 397.21 1625.66 408.51 1625.3 423.53L1624.68 449.03L1656.09 448.76L1687.5 448.5L1687.78 424.5C1687.94 411.3 1687.82 399.49 1687.51 398.25C1686.71 394.98 1680.3 391.17 1674.07 390.27C1667.56 389.34 1666.34 387.4 1671.65 386.41C1675.91 385.61 1725.89 386.56 1726.79 387.45C1727.95 388.62 1725.13 390.17 1720.87 390.72C1715 391.47 1711.12 393.57 1709.96 396.61C1709.39 398.11 1709 422.21 1709 455.99L1709 512.85L1711.64 514.93C1714.09 516.86 1717.48 518.08 1724.32 519.49C1725.92 519.82 1726.97 520.6 1726.74 521.29C1726.43 522.2 1719.3 522.5 1697.93 522.5C1672.65 522.5 1669.49 522.32 1669.22 520.89C1668.98 519.65 1670.06 519.15 1674.08 518.68C1679.88 517.99 1683.16 516.21 1685.68 512.37C1687.17 510.1 1687.39 506.5 1687.44 483.64L1687.5 457.5L1672.5 457.59C1664.25 457.65 1650.41 457.76 1641.75 457.84L1626 458L1626 485.05L1626 512.09L1628.37 514.46C1630.69 516.78 1636.52 518.97 1640.5 519.01C1641.6 519.02 1643.12 519.43 1643.89 519.91C1645 520.61 1644.86 521 1643.2 521.89C1640.5 523.34 1587.39 523.44 1586.5 522ZM2268.12 522.1C2265.78 520.61 2267.71 519.31 2273.21 518.66C2278.89 517.99 2282.78 515.71 2284.74 511.9C2285.67 510.08 2285.97 496.03 2285.99 453.88C2286 400.09 2285.94 398.19 2284.03 395.77C2281.76 392.88 2278.32 391.28 2272.08 390.22C2267.15 389.39 2265.7 387.58 2269.21 386.64C2272.43 385.78 2322.1 385.98 2324.35 386.87C2327.07 387.94 2324.7 389.41 2317.88 390.88C2309.07 392.77 2308.6 393.39 2307.85 404.17C2307.48 409.3 2307.15 421.49 2307.09 431.25L2307 449L2337.38 449C2363.51 449 2367.93 448.78 2369.03 447.46C2370.63 445.53 2369.72 402.26 2367.98 397.33C2366.69 393.68 2362.83 391.52 2355.75 390.47C2351.01 389.77 2349.41 387.82 2352.58 386.61C2354.65 385.81 2403.81 385.84 2406.79 386.64C2410.58 387.66 2408.75 389.27 2402.32 390.58C2394.96 392.09 2392.15 393.71 2391.21 397C2390.82 398.38 2390.5 424.85 2390.5 455.83L2390.5 512.16L2393.65 514.98C2395.56 516.69 2398.5 518.06 2401.15 518.47C2408.48 519.61 2409.27 519.97 2407.92 521.6C2406.93 522.79 2402.09 522.99 2379.13 522.77C2353.76 522.52 2351.5 522.36 2351.19 520.75C2350.92 519.36 2351.55 519 2354.21 519C2358.96 519 2366.23 515.08 2367.86 511.64C2369.47 508.24 2370.71 460.32 2369.24 458.22C2368.53 457.2 2362.19 457.08 2338.17 457.63L2308 458.32L2308 485.48C2308 518.1 2307.12 516.14 2323.34 519.5C2325.69 519.98 2325.97 520.33 2324.97 521.54C2323.96 522.75 2319.19 523 2296.63 522.98C2281.71 522.98 2268.88 522.58 2268.12 522.1ZM82.87 519.93C69.39 517.95 59.64 512.82 48.94 502.09C40.29 493.41 37.1 488.19 32.71 475.5C29.76 467 29.59 465.67 29.56 451.5C29.53 434.43 30.7 428.83 37.07 415.5C43.86 401.31 52.92 391.97 66.5 385.19C77.35 379.77 81.75 378.68 94.5 378.24C107.6 377.79 112.87 378.68 126.15 383.59C135.13 386.91 137.93 386.32 140.69 380.52C142.48 376.77 142.78 376.57 144.8 377.85C146.43 378.89 147.95 393.2 148.26 410.53C148.54 425.96 147.29 427.44 142.98 416.79C137.46 403.16 130.99 395.64 119.78 389.78C113.62 386.56 113.25 386.5 100.45 386.5L87.4 386.5L79.76 390.27C70.57 394.82 65.36 400.33 60.42 410.73C54.59 423.01 53.68 428.2 53.58 449.5C53.51 465.27 53.81 469.51 55.34 474.45C62.56 497.87 79.54 511.04 102.46 510.98C118.21 510.95 126.25 507.11 139.7 493.24C146.13 486.6 149.37 483.93 150.48 484.35C151.93 484.91 151.92 485.26 150.41 488.23C147.58 493.79 138.56 504.32 132.86 508.72C119.77 518.82 102.18 522.77 82.87 519.93ZM612.5 519.44C603.65 517.5 593 512.48 586.3 507.09C575.9 498.72 566.38 483.02 563.51 469.47C561.31 459.08 561.54 440.13 563.99 430.41C570.29 405.45 587.46 387.33 611.81 379.98C618.19 378.05 620.77 377.83 632.31 378.21C644.83 378.63 646.03 378.86 656 382.71C667.83 387.28 668.6 387.19 672.92 380.66C675.54 376.69 677.55 375.99 678.41 378.75C679.21 381.34 680.88 402.03 681.21 413.5C681.44 421.51 681.22 423.5 680.11 423.5C678.56 423.5 678.61 423.59 673.36 412.57C668.25 401.83 658.92 392.17 650.5 388.88C645.36 386.88 642.7 386.54 632 386.52C620.49 386.5 619.04 386.71 613.75 389.2C606.31 392.68 598.05 400.54 594.22 407.78C586.96 421.51 583.8 441.17 585.81 460.17C587.68 477.84 591.09 486.58 599.84 496.11C609.87 507.04 621.45 511.5 638.06 510.83C646.8 510.48 648.45 510.08 655.28 506.71C661.42 503.67 664.5 501.2 671.81 493.49C680.39 484.42 684 482.09 684 485.62C684 490.29 667.96 507.9 658.84 513.25C647.14 520.11 627.5 522.73 612.5 519.44ZM1157.5 519.59C1142.9 516.75 1133.77 511.74 1123.64 501C1112.7 489.4 1106.65 474.68 1105.38 456.57C1103.16 424.95 1117.81 397.2 1143.37 384.6C1153.66 379.54 1160.66 378 1173.46 378.01C1185.4 378.01 1188.22 378.55 1200.71 383.19C1210.58 386.85 1213.02 386.51 1216.51 380.98C1219.06 376.95 1221.36 375.9 1222.3 378.33C1223.21 380.71 1225.36 420.61 1224.68 422.4C1223.63 425.13 1222.35 423.55 1217.57 413.58C1211.86 401.69 1205.14 394.18 1196.34 389.85C1190.52 386.98 1188.68 386.6 1178.92 386.19C1169.64 385.81 1167.01 386.07 1161.26 387.92C1148.63 392 1140.54 400.06 1135.1 414C1130.71 425.25 1129 435.22 1129 449.5C1129 472.04 1133.68 486.38 1144.57 497.18C1154.43 506.97 1164.3 510.98 1178.5 510.98C1194.48 510.98 1203.4 506.75 1215.85 493.26C1224.09 484.34 1226.18 482.86 1227.5 485C1228.39 486.45 1222 495.58 1215.3 502.43C1207.89 510 1199.4 515.49 1191.07 518.07C1182.57 520.72 1166.91 521.43 1157.5 519.59ZM165.25 517.29C161.24 516.52 162.73 514.27 167.74 513.52C173.77 512.61 177.52 510.66 179.74 507.27C181.37 504.79 181.5 500.34 181.5 448.21L181.5 391.84L178.29 388.97C176.53 387.4 173.38 385.83 171.29 385.5C164.02 384.32 163 383.95 163 382.48C163 381.21 166.96 381 191.25 381.02C219.04 381.03 224.53 381.58 220.2 383.89C219.06 384.5 216.99 385 215.59 385C211.34 385 205.35 387.93 204.14 390.6C203.38 392.25 203 401.68 203 418.56L203 444.03L233.75 443.76L264.5 443.5L264.5 417.67L264.5 391.84L261.35 389.02C259.44 387.31 256.5 385.94 253.85 385.53C247.28 384.51 246 384 246 382.42C246 381.18 250.26 381.01 275.25 381.23C293.96 381.4 304.48 381.86 304.43 382.5C304.36 383.61 301.38 384.65 295.75 385.51C293.69 385.83 290.77 387.15 289.25 388.46L286.5 390.83L286.23 446.43C286.07 477.01 286.32 503.45 286.77 505.19C287.86 509.39 291.57 511.99 298.45 513.37C304.38 514.56 305.71 516.05 301.81 517.15C298.81 518 253.2 518.19 249.12 517.38C244.51 516.45 245.28 514.37 250.52 513.65C256.31 512.86 260.52 510.66 262.74 507.27C264.28 504.92 264.54 501.32 264.86 478.29L265.22 452L234.11 452L203 452L203 478.78C203 501.42 203.24 505.9 204.56 507.78C206.63 510.74 210.46 512.59 216.25 513.43C221.52 514.2 222.34 515.54 218.43 517.02C215.97 517.96 169.94 518.2 165.25 517.29ZM697.75 517.31C694.1 516.36 696.02 514.25 701.18 513.57C705.32 513.02 707.09 512.15 710.04 509.19L713.74 505.5L714.12 474C714.33 456.67 714.27 430.87 714 416.66C713.41 385.93 714.25 387.71 698.75 384.53C697.24 384.22 696 383.3 696 382.48C696 381.21 699.96 381 724.25 381.02C752.04 381.03 757.53 381.58 753.2 383.89C752.06 384.5 749.99 385 748.59 385C744.68 385 738.08 387.99 736.76 390.37C735.96 391.8 735.44 400.95 735.18 418.26L734.78 444.03L766.14 443.76L797.5 443.5L797.5 427.5C797.5 418.7 797.27 406.79 797 401.03L796.5 390.57L793.14 388.31C791.29 387.07 788.14 385.79 786.14 385.47C779.06 384.33 778 383.95 778 382.48C778 381.21 782.05 381 806.94 381C824.14 381 836.12 381.39 836.47 381.95C837.29 383.28 834.32 384.63 828.79 385.43C821.39 386.5 819.73 388.46 818.86 397.12C817.84 407.38 817.9 491.87 818.94 500.86C819.44 505.17 820.43 508.86 821.34 509.77C822.19 510.62 825.87 512.04 829.5 512.93C836.34 514.6 837.8 516.03 833.81 517.15C830.81 518 785.2 518.19 781.12 517.38C776.01 516.35 777.34 514.23 783.57 513.45C789.52 512.71 794.46 509.54 796 505.49C796.46 504.29 797.15 491.76 797.55 477.65L798.26 452L766.49 452L734.71 452L735.25 479.21L735.79 506.42L738.84 509.15C741.89 511.88 747.51 513.98 751.75 513.99C754.79 514 754.6 515.82 751.43 517.02C748.93 517.98 701.27 518.23 697.75 517.31ZM1995.5 514.86C1985.27 513.57 1976.82 510.44 1968.48 504.86C1948.06 491.2 1937.42 467.3 1939.38 439.46C1941.52 408.93 1958.76 385.25 1985.88 375.6C1993.86 372.76 1995.46 372.54 2007.5 372.59C2019.58 372.64 2021.14 372.87 2029.5 375.89C2046.22 381.92 2044.65 381.7 2048 378.5C2049.64 376.93 2051.25 374.8 2051.57 373.77C2051.97 372.53 2052.92 371.99 2054.34 372.19C2056.38 372.48 2056.57 373.32 2057.67 387C2059.23 406.4 2059.28 416.32 2057.82 417.78C2056.92 418.68 2055.43 416.46 2051.44 408.23C2042.95 390.76 2033.82 383.32 2017.85 380.85C2008.53 379.41 1998.46 380.78 1989.8 384.67C1978.72 389.64 1969.47 402.87 1965.32 419.68C1962.8 429.88 1962.81 460.26 1965.34 468.5C1973.42 494.87 1994.31 508.71 2020.52 505.06C2032.95 503.33 2041.93 497.8 2052.01 485.64C2055.78 481.09 2058.2 479.02 2059.75 479.01C2060.99 479.01 2062 479.47 2062 480.05C2062 482.45 2053.67 493.12 2046.94 499.35C2038.06 507.57 2028.33 512.57 2017.46 514.51C2008.57 516.1 2005.62 516.14 1995.5 514.86ZM1259.5 478.29C1256.07 477.42 1255 475.89 1255 471.85C1255 468.56 1255.41 467.79 1257.63 466.95C1259.32 466.31 1285.95 466.05 1332.21 466.22C1402.11 466.49 1404.2 466.56 1405.58 468.44C1407.55 471.14 1407.37 472.46 1404.59 475.69L1402.17 478.5L1331.84 478.65C1293.15 478.73 1260.6 478.57 1259.5 478.29ZM1762 465.29C1756.15 464.19 1754.02 457.98 1758.09 453.91C1760.17 451.83 1760.26 451.82 1832.68 452.16L1905.18 452.5L1907.11 454.89C1909.29 457.58 1908.89 460.36 1905.87 463.5C1903.98 465.46 1902.55 465.5 1834.22 465.63C1795.88 465.7 1763.38 465.54 1762 465.29ZM2092.23 465.34C2090.18 464.5 2087.79 458.98 2088.41 456.5C2088.73 455.25 2089.77 453.84 2090.74 453.37C2091.71 452.91 2124.96 452.38 2164.64 452.21L2236.77 451.89L2238.89 454.58C2241.66 458.11 2241.55 460.13 2238.42 463.08L2235.84 465.5L2164.67 465.68C2125.53 465.78 2092.93 465.63 2092.23 465.34ZM928 457.29C922.32 456.22 920.15 450.5 923.75 446.06L925.51 443.89L998.1 444.2C1057.82 444.45 1070.99 444.74 1072.35 445.87C1074.56 447.71 1074.44 452.24 1072.09 455.14L1070.18 457.5L1000.34 457.63C961.93 457.7 929.38 457.55 928 457.29ZM387.05 450.05C384.03 447.03 384.28 441.52 387.55 439.38C389.88 437.85 395.94 437.75 460.86 438.22C510.82 438.58 532.25 439.06 533.74 439.86C537.84 442.05 537.8 447.89 533.68 450.25C532.01 451.21 514.93 451.57 460.3 451.8C389.61 452.11 389.1 452.1 387.05 450.05ZM1258.26 434.88C1253.12 433.4 1252.53 426.43 1257.32 423.8C1258.96 422.89 1277.03 422.6 1330.13 422.61C1394.35 422.61 1400.99 422.77 1403.31 424.28C1407.3 426.9 1407.66 429.71 1404.41 433.09L1401.63 436L1331.56 435.91C1291.37 435.86 1260.12 435.42 1258.26 434.88ZM1973.22 335.44L1971 333.89L1971 260.8C1971 192.37 1971.11 187.64 1972.75 186.39C1975.12 184.59 1979.08 184.67 1981.78 186.56L1984 188.11L1984 260.38L1984 332.65L1981.69 334.83C1978.95 337.39 1976.28 337.59 1973.22 335.44ZM2022.22 335.44L2020 333.89L2020 260.48C2020 188.93 2020.05 187.04 2021.93 186.04C2024.71 184.55 2028.21 184.76 2030.78 186.56L2033 188.11L2033 260.38L2033 332.65L2030.69 334.83C2027.95 337.39 2025.28 337.59 2022.22 335.44ZM1995.5 172.83C1980.1 171.54 1969.17 166.2 1956.98 154.02C1944.26 141.31 1939.15 129.9 1937 109.42C1936.08 100.58 1936.87 88.23 1938.89 80C1943.21 62.44 1956.82 45.68 1973.5 37.42C1985.35 31.54 1994.51 29.64 2007.59 30.33C2024.53 31.23 2035.98 36.24 2048.66 48.29C2058.96 58.07 2065.23 68.71 2069.13 83C2070.98 89.79 2070.69 113.12 2068.66 120.85C2065.69 132.15 2058.5 144.51 2049.98 152.96C2033.87 168.93 2018 174.72 1995.5 172.83ZM2010.2 164.89C2027.27 161.32 2040.14 147.15 2044.71 126.91C2047.15 116.1 2047.12 88.3 2044.65 77.5C2040.91 61.12 2031.95 47.69 2020.92 41.9C2017.17 39.92 2014.66 39.51 2004.31 39.19C1992.92 38.82 1991.75 38.97 1986.54 41.35C1971.15 48.4 1961.87 67.23 1960.35 94.5C1958.29 131.35 1972.31 159.76 1994.97 164.64C2002.17 166.19 2003.85 166.22 2010.2 164.89Z" fill="#1e2749" fill-rule="evenodd"/>
</svg>
