<?xml version="1.0" encoding="UTF-8"?>
<svg xmlns="http://www.w3.org/2000/svg" viewBox="0 0 250 291" width="250" height="291" shape-rendering="geometricPrecision">
<path d="M100.05 256.9C99.78 256.57 99.67 255.55 99.73 253.95C99.82 251.87 99.93 251.49 100.46 251.39C101.35 251.22 101.66 251.89 101.66 254.05C101.67 256.26 100.8 257.8 100.05 256.9ZM99.89 247.44C99.77 247.32 99.67 246.12 99.67 244.77C99.67 242.18 100.11 241.46 101.17 242.34C101.75 242.82 101.86 246.02 101.32 247.02C100.98 247.67 100.31 247.86 99.89 247.44ZM116 245.33C116 245.15 116.16 245 116.35 245C116.55 245 116.61 245.15 116.5 245.33C116.39 245.52 116.23 245.67 116.15 245.67C116.07 245.67 116 245.52 116 245.33ZM166 245.33C166 245.15 166.16 245 166.35 245C166.55 245 166.61 245.15 166.5 245.33C166.39 245.52 166.23 245.67 166.15 245.67C166.07 245.67 166 245.52 166 245.33ZM220 245.33C220 245.15 220.16 245 220.35 245C220.55 245 220.61 245.15 220.5 245.33C220.39 245.52 220.23 245.67 220.15 245.67C220.07 245.67 220 245.52 220 245.33ZM225 245.33C225 245.15 225.16 245 225.35 245C225.55 245 225.61 245.15 225.5 245.33C225.39 245.52 225.23 245.67 225.15 245.67C225.07 245.67 225 245.52 225 245.33ZM99.89 238.11C99.77 237.99 99.67 237.19 99.67 236.33C99.67 234.99 99.55 234.72 98.83 234.39C98.38 234.19 98 233.89 98 233.74C98 233.58 100.59 230.88 103.75 227.73C106.91 224.58 109.27 222 108.98 222C108.7 222 105.7 224.78 102.32 228.17C97.3 233.22 96.02 234.33 95.26 234.33C93.74 234.33 94.13 233.39 96.73 230.77C98.05 229.44 99.02 228.24 98.88 228.1C98.74 227.96 97.47 229.04 96.06 230.5C92.62 234.08 91.74 234.73 90.95 234.31C90.61 234.13 90.33 233.86 90.33 233.71C90.33 233.56 92.22 231.58 94.53 229.3C98.48 225.41 99.9 223.75 99.04 224.04C98.84 224.11 96.54 226.28 93.93 228.86C91.31 231.45 88.81 233.8 88.38 234.09C87.48 234.69 86.67 234.52 86.67 233.72C86.67 233.42 89.1 230.73 92.08 227.75C95.06 224.77 97.25 222.33 96.96 222.33C96.67 222.33 93.73 225.08 90.43 228.43C87.13 231.79 84.26 234.48 84.05 234.41C83.43 234.2 83.61 233.05 84.33 232.67C84.98 232.32 85.28 231.33 84.73 231.33C84.59 231.33 83.88 231.95 83.15 232.69C81.57 234.32 80.89 234.73 80.19 234.46C79.22 234.09 79.65 233.35 82.33 230.79C84.7 228.54 85.53 227.33 84.74 227.33C84.6 227.33 82.99 228.84 81.16 230.69C79.33 232.53 77.58 234.18 77.27 234.35C76.54 234.76 75.66 234.4 75.71 233.71C75.73 233.41 77.81 231.22 80.34 228.83C84.62 224.78 85.55 223.67 84.62 223.67C84.41 223.67 81.93 225.95 79.11 228.75C76.28 231.55 73.84 233.88 73.68 233.94C73.11 234.13 72.94 232.64 73.45 231.87C73.73 231.44 76.15 229.01 78.83 226.47C82.26 223.21 83.54 221.8 83.14 221.72C82.77 221.64 81.01 223.16 78.11 226.05C74.51 229.64 73.59 230.4 73.32 230C72.67 229 73.43 227.79 76.61 224.77C78.96 222.53 79.65 221.7 79.17 221.68C78.79 221.67 77.51 222.67 76.08 224.08C74.11 226.04 73.59 226.41 73.33 226C72.79 225.15 72.95 224.7 74.38 223.16C75.24 222.22 75.57 221.67 75.25 221.67C74.97 221.67 74.56 221.89 74.33 222.17C74.11 222.44 73.8 222.67 73.66 222.67C73.11 222.67 73.01 221.53 73.5 220.79C74 220.02 74.06 220.01 81.42 219.92L88.83 219.83L89.02 212.83C89.24 204.51 89.6 203.19 92.49 200.06C93.93 198.51 94.87 197.88 97.48 196.69C100.14 195.49 100.82 195.3 101.43 195.59C101.84 195.79 102.71 196.02 103.38 196.11C105.06 196.34 105.55 195.75 107.68 190.83C108.08 189.92 108.75 188.42 109.17 187.5C109.59 186.58 110.27 185.08 110.67 184.17C111.08 183.25 111.75 181.75 112.17 180.83C112.59 179.92 113.27 178.42 113.67 177.5C114.08 176.58 114.99 174.59 115.7 173.06C116.42 171.54 117 170.23 117 170.15C117 170.07 117.67 168.57 118.5 166.82C119.33 165.06 120 163.56 120 163.48C120 163.4 120.67 161.9 121.5 160.15C122.33 158.39 123 156.91 123 156.84C123 156.78 123.67 155.28 124.5 153.52C125.33 151.75 126 150.25 126 150.19C126 150.12 126.61 148.74 127.36 147.12C130.29 140.75 132 136.97 132 136.84C132 136.78 132.61 135.41 133.36 133.78C135.55 129.04 135.9 128.26 136.68 126.5C137.08 125.58 137.99 123.59 138.7 122.06C139.42 120.54 140 119.23 140 119.15C140 119.08 140.53 117.85 141.18 116.42C141.84 115 142.51 113.53 142.67 113.17C142.84 112.8 143.65 111.03 144.49 109.23C145.32 107.43 146 105.91 146 105.84C146 105.78 146.67 104.28 147.5 102.52C148.32 100.75 149 99.25 149 99.18C149 99.12 149.67 97.62 150.5 95.85C151.32 94.09 152 92.59 152 92.52C152 92.45 152.67 90.95 153.5 89.18C154.32 87.42 155 85.92 155 85.85C155 85.78 155.67 84.28 156.5 82.52C157.32 80.75 158 79.25 158 79.19C158 79.12 158.61 77.74 159.36 76.12C161.53 71.4 161.9 70.6 162.68 68.83C164.28 65.19 165.37 62.81 165.68 62.25C166.49 60.79 166.21 60.67 162.23 60.67C158.06 60.67 157.67 60.5 157.67 58.77C157.67 57.39 156.97 57.32 154.53 58.46C153.6 58.9 151.82 59.73 150.58 60.3C146.76 62.06 144.26 63.21 141.92 64.29C136.91 66.61 135.43 67.28 134 67.93C133.17 68.3 131.15 69.23 129.5 70C127.85 70.77 125.83 71.7 125 72.08C124.17 72.45 122.15 73.39 120.5 74.16C118.85 74.92 116.88 75.82 116.13 76.15L114.75 76.76L114.79 80.3C114.82 83.57 114.75 83.98 113.86 85.78C111.73 90.06 106.91 93.67 103.3 93.67L101.67 93.67L101.67 95.63C101.67 96.95 101.51 97.72 101.17 98C100.23 98.78 99.71 98.14 99.6 96.1L99.5 94.17L95.25 94.07L91 93.98L91 103.14C91 112.22 90.99 112.3 90.26 112.81C89.85 113.1 89.25 113.33 88.93 113.33C88.25 113.33 88.13 112.34 88.73 111.73C89.04 111.42 89.02 111.33 88.63 111.33C88.36 111.33 87.61 111.87 86.98 112.52L85.83 113.7L85.25 112.98C84.66 112.25 84.36 112.27 83.15 113.16C82.53 113.61 82.39 113.61 81.81 113.16C81.19 112.69 81.24 112.59 83.08 110.85C84.84 109.18 85.4 108.33 84.74 108.33C84.6 108.33 83.51 109.32 82.32 110.52C81.14 111.73 79.75 112.93 79.25 113.2C78.37 113.66 78.28 113.64 77.16 112.52C76.52 111.88 76 111.19 76 110.98C76 110.17 77.28 108.68 81.03 105.17C83.17 103.15 84.95 101.31 84.97 101.08C85.05 100.07 83.92 100.92 80.37 104.53C77.58 107.37 76.5 108.27 76.29 107.95C75.58 106.83 76.11 106.06 80.51 101.83C84.5 98 85.59 96.67 84.76 96.67C84.62 96.67 82.74 98.43 80.58 100.58C77.42 103.73 76.59 104.4 76.33 104C76.15 103.72 76.01 103.29 76.01 103.03C76 102.77 77.75 100.79 79.9 98.61C82.64 95.84 83.61 94.67 83.16 94.67C82.79 94.67 81.25 95.92 79.63 97.54C77.98 99.18 76.58 100.32 76.37 100.19C75.58 99.7 76.08 98.54 77.88 96.64C79.28 95.17 79.61 94.67 79.15 94.67C78.81 94.67 78.05 95.13 77.47 95.7C76.44 96.7 76.39 96.71 76.18 96.03C75.85 95.01 76.28 94 77.03 94C77.79 94 85 87.14 85 86.42C85 86.16 84.86 85.99 84.7 86.06C84.53 86.12 82.63 87.86 80.48 89.94C76.64 93.65 76.02 93.98 76.01 92.33C76 92.05 78.02 89.8 80.5 87.33C82.97 84.86 85 82.73 85 82.59C85 81.8 83.78 82.73 80.43 86.07C77.61 88.88 76.58 89.72 76.3 89.43C75.52 88.65 76.42 87.36 80.66 83.2C84.53 79.4 85.67 78.04 84.69 78.39C84.51 78.45 82.62 80.2 80.48 82.28C77.59 85.08 76.5 85.95 76.29 85.61C75.58 84.5 76.11 83.74 80.5 79.55C84.46 75.76 85.63 74.33 84.74 74.33C84.6 74.33 82.77 76.06 80.67 78.17C78.56 80.27 76.74 82 76.61 82C76.48 82 76.28 81.7 76.17 81.34C75.85 80.33 76.75 79.18 81.03 75.17C83.17 73.15 84.95 71.31 84.97 71.08C85.05 70.07 83.92 70.92 80.37 74.53C77.58 77.37 76.5 78.27 76.29 77.95C75.58 76.83 76.11 76.06 80.51 71.83C84.5 68 85.59 66.67 84.76 66.67C84.62 66.67 82.74 68.43 80.58 70.58C77.42 73.73 76.59 74.4 76.33 74C76.15 73.72 76.01 73.29 76.01 73.03C76 72.77 78.03 70.51 80.5 68.01C84.52 63.96 85.54 62.67 84.76 62.67C84.62 62.67 82.75 64.42 80.59 66.57C77.65 69.5 76.58 70.38 76.3 70.1C75.52 69.32 76.42 68.03 80.66 63.87C83.05 61.52 85 59.47 85 59.3C85 58.45 83.8 59.35 80.34 62.82C76.61 66.56 76.02 66.9 76.01 65.25C76 64.93 78.02 62.69 80.5 60.28C82.97 57.88 85 55.69 85 55.42C85 55.16 84.86 54.99 84.69 55.06C84.51 55.12 82.62 56.87 80.48 58.96C76.63 62.7 76.02 63.03 76.01 61.33C76 60.63 84.37 52.33 85.09 52.33C85.49 52.33 85.67 52.6 85.67 53.2L85.67 54.07L86.84 53.03C88.23 51.82 88.48 51.79 89.91 52.66L90.99 53.32L91.08 60.57L91.17 67.83L94.95 67.93C99.2 68.03 99.67 67.86 99.67 66.12C99.67 65.37 99.85 64.91 100.21 64.77C100.95 64.49 101.67 65.52 101.67 66.85C101.67 67.89 101.7 67.91 103.58 68.11C107.04 68.47 110.49 70.62 113.01 73.98L113.86 75.11L115.68 74.26C116.68 73.79 118.33 73.04 119.33 72.58C120.34 72.12 122.14 71.3 123.33 70.75C124.52 70.2 127.22 68.97 129.33 68C131.44 67.04 134.07 65.84 135.17 65.33C140.28 62.97 141.61 62.36 143.17 61.66C144.08 61.25 146.23 60.25 147.95 59.45C149.66 58.65 151.11 58 151.18 58C151.6 58 156.97 55.28 157.27 54.91C157.53 54.59 157.68 51.68 157.74 45.81L157.83 37.17L167.15 37.08C177.12 36.98 177.32 36.95 177.86 35.24C177.98 34.86 178.74 33.15 179.54 31.43C180.34 29.71 181 28.25 181 28.19C181 28.07 182.96 23.77 184.41 20.71C185 19.47 185.04 19.08 184.72 18.18C184.15 16.6 184.24 15.86 185.15 14.88C186.36 13.58 188.3 13.64 189.47 15.03C189.94 15.59 190.33 16.33 190.33 16.67C190.33 17.51 188.89 19.16 187.73 19.64C187.11 19.9 186.57 20.52 186.17 21.43C185.84 22.2 185.05 23.96 184.42 25.33C183.8 26.71 183.08 28.28 182.84 28.83C182.59 29.38 181.77 31.15 181.03 32.77C179.04 37.05 179.02 37 182.77 37C184.73 37 186.01 37.15 186.27 37.4C186.85 37.99 186.84 59.31 186.25 60.1C185.88 60.6 184.84 60.67 177.17 60.75L168.5 60.83L167.65 62.5C167.18 63.42 166.47 64.96 166.06 65.92C165.65 66.88 164.72 68.96 163.99 70.52C163.26 72.09 162.67 73.42 162.67 73.49C162.67 73.55 162.05 74.93 161.31 76.55C159.12 81.29 158.76 82.08 157.99 83.83C157.59 84.75 156.91 86.25 156.49 87.17C156.07 88.08 155.4 89.58 154.99 90.5C154.59 91.42 153.67 93.41 152.96 94.94C152.25 96.46 151.67 97.77 151.67 97.85C151.67 97.93 150.99 99.43 150.17 101.18C149.34 102.94 148.67 104.42 148.67 104.49C148.67 104.55 148.05 105.93 147.31 107.55C145.12 112.29 144.76 113.08 143.99 114.83C143.59 115.75 142.91 117.25 142.49 118.17C142.07 119.08 141.4 120.58 140.99 121.5C140.59 122.42 139.67 124.41 138.96 125.94C138.25 127.46 137.67 128.77 137.67 128.85C137.67 128.92 137.12 130.15 136.46 131.58C134.73 135.31 133.83 137.27 132.99 139.17C132.59 140.08 131.91 141.58 131.49 142.5C131.07 143.42 130.4 144.92 129.99 145.83C129.59 146.75 128.91 148.25 128.49 149.17C128.07 150.08 127.4 151.58 126.99 152.5C126.59 153.42 125.67 155.41 124.96 156.94C124.25 158.46 123.67 159.77 123.67 159.85C123.67 159.92 123.12 161.15 122.46 162.58C121.8 164 120.89 165.99 120.44 167C119.99 168.01 119.35 169.43 119.01 170.17C117.21 174.12 116.66 175.32 115.99 176.83C115.59 177.75 114.91 179.25 114.49 180.17C114.07 181.08 113.4 182.58 112.99 183.5C112.59 184.42 111.75 186.25 111.14 187.57C110.53 188.89 109.65 190.84 109.21 191.9C108.76 192.96 108.15 194.28 107.86 194.83C107.03 196.43 107.21 196.88 109.21 198.21C111.29 199.59 112.65 201.25 113.95 204C114.78 205.74 114.83 206.17 114.99 212.83L115.17 219.83L124.56 220C129.72 220.09 134.03 220.25 134.12 220.35C134.22 220.44 134.34 221.08 134.39 221.76C134.47 222.95 134.25 223.23 129.48 228.07C123.45 234.21 122.79 234.76 121.95 234.31C121.61 234.13 121.33 233.86 121.33 233.72C121.33 233.58 124 230.81 127.25 227.57C130.56 224.27 132.93 221.67 132.62 221.67C132.32 221.67 129.43 224.34 126.2 227.6C119.63 234.23 118.77 234.9 117.8 234.17C117.21 233.73 117.55 233.32 123.16 227.68C126.46 224.37 128.93 221.67 128.64 221.67C128.36 221.67 125.23 224.59 121.69 228.16C118.15 231.73 115.08 234.68 114.87 234.7C113.92 234.81 113.33 234.63 113.33 234.21C113.33 233.97 116.07 231.04 119.42 227.72C123.92 223.25 125.32 221.68 124.8 221.67C124.32 221.67 122.04 223.76 117.71 228.17C111.44 234.55 110.27 235.43 109.77 234.13C109.63 233.76 111.28 231.89 115.53 227.63C119.87 223.3 121.3 221.67 120.8 221.67C120.35 221.67 118.08 223.73 114.19 227.67C110.93 230.97 107.96 233.89 107.58 234.15C106.83 234.68 105.64 234.31 105.7 233.57C105.72 233.35 108.41 230.62 111.69 227.5C115.71 223.69 117.48 221.8 117.12 221.72C116.77 221.64 114.24 223.93 110.15 228.01C104.04 234.12 103.68 234.42 102.7 234.22L101.67 234.02L101.67 235.78C101.67 237.48 101.27 238.33 100.49 238.33C100.28 238.33 100.01 238.23 99.89 238.11ZM125.33 233.76C125.33 232.99 132.98 225.33 133.74 225.33C134.32 225.33 134.48 225.67 134.35 226.67C134.31 226.94 132.69 228.78 130.73 230.75C127.92 233.59 126.99 234.33 126.26 234.33C125.6 234.33 125.33 234.16 125.33 233.76ZM129.15 233.9C128.93 233.33 133.33 228.93 133.9 229.15C134.5 229.38 134.44 230.53 133.77 231.55C133.23 232.37 133.24 232.44 133.81 232.86C134.16 233.11 134.33 233.52 134.22 233.82C133.96 234.49 133.34 234.47 132.83 233.77C132.44 233.24 132.36 233.24 131.55 233.77C130.53 234.44 129.38 234.5 129.15 233.9ZM113 222.28C113 222.12 112.81 222 112.58 221.99C112.08 221.99 101.67 232.51 101.67 233.03C101.67 233.23 104.22 230.95 107.33 227.97C110.45 224.99 113 222.43 113 222.28ZM93.67 222.26C93.67 221.5 92.55 222.35 89.28 225.56C87.03 227.79 85.67 229.38 85.67 229.81C85.67 230.31 86.72 229.44 89.67 226.5C91.87 224.31 93.67 222.4 93.67 222.26ZM88 224.17C89.47 222.69 89.96 222 89.56 222C88.75 222 85.67 224.94 85.67 225.71C85.67 226.05 85.71 226.33 85.76 226.33C85.81 226.33 86.82 225.36 88 224.17ZM104.65 222.38C104.15 222.22 101.67 224.66 101.67 225.31C101.67 225.6 102.36 225.13 103.34 224.16C104.26 223.25 104.85 222.45 104.65 222.38ZM101.17 222.67C101.28 222.48 101.14 222.33 100.85 222.33C100.57 222.33 100.33 222.48 100.33 222.67C100.33 222.85 100.47 223 100.65 223C100.82 223 101.05 222.85 101.17 222.67ZM86.33 222.17C86.67 221.76 86.65 221.67 86.21 221.67C85.91 221.67 85.67 221.89 85.67 222.17C85.67 222.44 85.72 222.67 85.79 222.67C85.86 222.67 86.11 222.44 86.33 222.17ZM99.71 217.08C99.63 214.81 99.7 214.3 100.14 214.13C100.44 214.02 100.92 214.13 101.21 214.37C101.66 214.74 101.72 215.28 101.57 217.42L101.4 220.02L107.11 219.92L112.83 219.83L112.92 213.36C113 207.94 112.92 206.65 112.45 205.36C111.88 203.84 110.98 202.32 110.01 201.29C109.25 200.48 106.97 199 106.48 199C106.24 199 105.68 199.79 105.23 200.75C104.78 201.71 104.01 203.37 103.51 204.43C102.64 206.29 102.63 206.41 103.14 207.48C103.74 208.77 103.59 209.45 102.39 210.75C101.5 211.71 100.15 211.95 99 211.34C98.22 210.92 97.54 208.91 97.86 207.93C98.21 206.8 100.09 204.68 100.73 204.67C101.42 204.67 101.56 204.46 102.92 201.36C104.09 198.68 104.23 198 103.58 198C103.35 197.99 102.83 197.9 102.42 197.79C101.75 197.61 101.67 197.71 101.67 198.72C101.67 200.19 100.79 201.52 100.16 200.99C99.91 200.79 99.66 200.14 99.6 199.56C99.47 198.21 98.74 198.06 96.9 199C94.88 200.04 92.82 202.18 91.95 204.13C91.27 205.67 91.18 206.47 91.06 212.42C90.99 216.04 91.02 219.23 91.13 219.51C91.29 219.94 92.01 220 95.57 219.93L99.82 219.83L99.71 217.08ZM67.31 202.92C66.26 201.81 66 200.88 66 198.28C66 195.59 66.62 193.94 67.87 193.38C70.75 192.06 73.33 194.38 73.33 198.28C73.33 201.49 71.7 203.67 69.3 203.67C68.41 203.67 67.81 203.44 67.31 202.92ZM70.7 201.45C71 201.09 71.16 200 71.16 198.26C71.16 196.02 71.06 195.53 70.52 195.14C68.85 193.92 68 195.01 68 198.33C68 200.93 68.42 202 69.45 202C69.89 202 70.46 201.75 70.7 201.45ZM74.34 194.58C74.35 193.51 75.46 192.18 76.12 192.44C76.98 192.76 76.76 193.89 75.7 194.64C74.48 195.51 74.33 195.51 74.34 194.58ZM99.89 191.44C99.77 191.32 99.67 190.12 99.67 188.77C99.67 186.18 100.11 185.46 101.17 186.34C101.75 186.82 101.86 190.02 101.32 191.02C100.98 191.67 100.31 191.86 99.89 191.44ZM99.89 182.11C99.77 181.99 99.67 180.78 99.67 179.43C99.67 177.46 99.77 176.94 100.21 176.77C100.55 176.64 100.94 176.8 101.21 177.18C101.78 177.94 101.81 181.39 101.27 181.93C100.82 182.38 100.23 182.45 99.89 182.11ZM100.05 172.9C99.78 172.57 99.67 171.55 99.73 169.95C99.82 167.87 99.93 167.49 100.46 167.39C101.35 167.22 101.66 167.89 101.66 170.05C101.67 172.26 100.8 173.8 100.05 172.9ZM99.89 163.44C99.77 163.32 99.67 162.12 99.67 160.77C99.67 158.18 100.11 157.46 101.17 158.34C101.75 158.82 101.86 162.02 101.32 163.02C100.98 163.67 100.31 163.86 99.89 163.44ZM99.89 154.11C99.77 153.99 99.67 152.78 99.67 151.43C99.67 149.46 99.77 148.94 100.21 148.77C100.55 148.64 100.94 148.8 101.21 149.18C101.78 149.94 101.81 153.39 101.27 153.93C100.82 154.38 100.23 154.45 99.89 154.11ZM100.05 144.9C99.78 144.57 99.67 143.55 99.73 141.95C99.82 139.87 99.93 139.49 100.46 139.39C101.35 139.22 101.66 139.89 101.66 142.05C101.67 144.26 100.8 145.8 100.05 144.9ZM99.89 135.44C99.77 135.32 99.67 134.12 99.67 132.77C99.67 130.18 100.11 129.46 101.17 130.34C101.75 130.82 101.86 134.02 101.32 135.02C100.98 135.67 100.31 135.86 99.89 135.44ZM99.89 126.11C99.77 125.99 99.67 124.78 99.67 123.43C99.67 121.46 99.77 120.94 100.21 120.77C100.55 120.64 100.94 120.8 101.21 121.18C101.78 121.94 101.81 125.39 101.27 125.93C100.82 126.38 100.23 126.45 99.89 126.11ZM100.05 116.9C99.78 116.57 99.67 115.55 99.73 113.95C99.82 111.87 99.93 111.49 100.46 111.39C101.35 111.22 101.66 111.89 101.66 114.05C101.67 116.26 100.8 117.8 100.05 116.9ZM82.42 107.68C84.71 105.46 85.5 104.33 84.76 104.33C84.29 104.33 77.33 111.49 77.33 111.98C77.33 112.5 78.09 111.86 82.42 107.68ZM88.89 107.45C88.57 107.13 85.67 110 85.67 110.65C85.67 110.95 86.38 110.45 87.4 109.42C88.35 108.47 89.03 107.58 88.89 107.45ZM99.89 107.44C99.77 107.32 99.67 106.12 99.67 104.77C99.67 102.18 100.11 101.46 101.17 102.34C101.75 102.82 101.86 106.02 101.32 107.02C100.98 107.67 100.31 107.86 99.89 107.44ZM89 103.76C89 103.06 88.6 103.26 87.1 104.74C86.31 105.51 85.67 106.44 85.67 106.81C85.67 107.35 85.99 107.16 87.33 105.83C88.25 104.93 89 104 89 103.76ZM89 99.93C89 99.33 88.12 99.74 86.93 100.9C86.24 101.58 85.67 102.44 85.67 102.81C85.67 103.35 85.99 103.16 87.33 101.83C88.25 100.93 89 100.07 89 99.93ZM89 96.1C89 95.86 88.86 95.67 88.68 95.67C88.11 95.67 85.68 98.48 85.68 99.15C85.67 99.67 86.02 99.46 87.33 98.17C88.25 97.26 89 96.33 89 96.1ZM86.33 95.17C86.67 94.76 86.65 94.67 86.21 94.67C85.91 94.67 85.67 94.89 85.67 95.17C85.67 95.44 85.72 95.67 85.79 95.67C85.86 95.67 86.11 95.44 86.33 95.17ZM83.25 92.34C84.97 90.74 85.39 90 84.59 90C84.15 90 80.67 93.32 80.67 93.74C80.67 94.37 81.63 93.85 83.25 92.34ZM88.88 93.49C88.99 93.2 88.99 92.88 88.88 92.77C88.65 92.53 87.67 93.29 87.67 93.71C87.67 94.21 88.68 94.03 88.88 93.49ZM89 89.26C89 88.66 88.12 89.08 86.93 90.23C86.24 90.91 85.67 91.77 85.67 92.14C85.67 92.68 85.99 92.49 87.33 91.17C88.25 90.26 89 89.41 89 89.26ZM104.86 91.45C109.83 89.77 113.18 85.22 112.94 80.48C112.85 78.74 112.75 78.49 112.11 78.4C111.71 78.34 110.36 78.77 109.11 79.35C107.86 79.93 106.37 80.62 105.81 80.88C105.23 81.15 104.57 81.83 104.31 82.43C104.05 83.02 103.35 83.8 102.76 84.17C101.82 84.75 101.69 85.01 101.68 86.34C101.67 87.17 101.43 88.19 101.14 88.61C100.31 89.79 99.67 88.98 99.67 86.74C99.67 85.72 99.42 84.11 99.12 83.16C98.61 81.55 98.61 81.34 99.12 80.33C99.48 79.61 99.67 78.38 99.67 76.77C99.67 74.88 99.78 74.27 100.17 74.12C101.17 73.74 101.67 74.65 101.67 76.85C101.67 78.94 101.67 78.95 102.75 79.2C103.35 79.34 104.03 79.42 104.26 79.38C105.13 79.22 111.67 76.02 111.67 75.75C111.67 74.91 109.61 72.73 107.66 71.49C106.15 70.54 102.08 69.52 101.54 69.96C101.33 70.12 99.15 70.15 96.5 70.02C93.93 69.89 91.65 69.85 91.42 69.93C91.09 70.04 91 72.52 91 80.81C91 86.72 91.1 91.66 91.22 91.78C91.34 91.9 94.09 92 97.33 92C101.94 92 103.57 91.88 104.86 91.45ZM87.66 86.91C88.45 86.04 89 85.22 88.88 85.1C88.52 84.74 85.67 87.74 85.67 88.47C85.67 88.86 85.78 89 85.95 88.82C86.1 88.64 86.88 87.78 87.66 86.91ZM89 81.6C89 81 88.12 81.41 86.93 82.57C86.24 83.25 85.67 84.1 85.67 84.47C85.67 85.01 85.99 84.83 87.33 83.5C88.25 82.6 89 81.74 89 81.6ZM65.16 83.79C64.71 83.31 64.25 82.4 64.13 81.77C63.84 80.23 64.22 77.68 64.84 77C65.11 76.7 65.33 76.27 65.33 76.06C65.33 75.59 65.44 75.59 67.17 76C68.33 76.27 68.57 76.22 69.03 75.62C69.41 75.12 69.76 74.99 70.28 75.15C71.24 75.45 71.19 75.93 70.15 76.4C69.69 76.61 69.38 76.97 69.46 77.19C70.29 79.34 70.42 80.4 70.03 81.71C69.17 84.55 66.8 85.57 65.16 83.79ZM67.99 82.36C68.36 81.65 68.45 79.04 68.13 78.19C67.91 77.63 66.5 77.47 66.18 77.97C65.77 78.64 65.63 81.22 65.96 82.08C66.38 83.17 67.48 83.31 67.99 82.36ZM88.89 77.45C88.57 77.13 85.67 80 85.67 80.65C85.67 80.95 86.38 80.45 87.4 79.42C88.35 78.47 89.03 77.58 88.89 77.45ZM89 73.76C89 73.06 88.6 73.26 87.1 74.74C86.31 75.51 85.67 76.44 85.67 76.81C85.67 77.35 85.99 77.16 87.33 75.83C88.25 74.93 89 74 89 73.76ZM89 69.93C89 69.33 88.12 69.74 86.93 70.9C86.24 71.58 85.67 72.44 85.67 72.81C85.67 73.35 85.99 73.16 87.33 71.83C88.25 70.93 89 70.07 89 69.93ZM89 66.1C89 65.86 88.86 65.67 88.68 65.67C88.11 65.67 85.68 68.48 85.68 69.15C85.67 69.67 86.02 69.46 87.33 68.17C88.25 67.26 89 66.33 89 66.1ZM89 62.1C89 61.39 88.6 61.59 87.1 63.07C86.31 63.84 85.67 64.77 85.67 65.14C85.67 65.68 85.99 65.49 87.33 64.17C88.25 63.26 89 62.33 89 62.1ZM89 58.26C89 57.66 88.12 58.08 86.93 59.23C86.24 59.91 85.67 60.77 85.67 61.14C85.67 61.68 85.99 61.49 87.33 60.17C88.25 59.26 89 58.41 89 58.26ZM100.05 60.9C99.78 60.57 99.67 59.55 99.73 57.95C99.82 55.87 99.93 55.49 100.46 55.39C101.35 55.22 101.66 55.89 101.66 58.05C101.67 60.26 100.8 61.8 100.05 60.9ZM184.02 58.65C184.64 58.33 184.67 57.86 184.67 48.69C184.67 40.23 184.6 39.05 184.14 38.87C183.85 38.76 178.22 38.67 171.64 38.67L159.67 38.67L159.67 46.33C159.67 50.55 159.73 54 159.81 54C159.89 54 161.21 53.42 162.73 52.7C167.02 50.7 168.61 50 168.88 50C169.39 50 171 48.19 171 47.62C171 46.8 172.28 46 173.6 46C174.89 46 176.67 47.52 176.67 48.63C176.67 49 176.19 49.85 175.61 50.52C174.63 51.64 174.45 51.71 173.19 51.52C170.74 51.14 170.2 51.24 167.17 52.67C165.52 53.45 163.19 54.51 162 55.02C160.04 55.85 159.82 56.05 159.73 57C159.51 59.11 158.88 59 171.68 59C179.11 59 183.61 58.87 184.02 58.65ZM76.17 58.33C75.69 57.56 76.39 56.39 78.62 54.23C80.85 52.08 81.66 51.69 82.62 52.3C82.95 52.51 82.28 53.34 80 55.54C76.67 58.76 76.5 58.88 76.17 58.33ZM87.66 55.91C88.45 55.04 89 54.22 88.88 54.1C88.52 53.74 85.67 56.74 85.67 57.47C85.67 57.86 85.78 58 85.95 57.82C86.1 57.64 86.88 56.78 87.66 55.91ZM196.81 55.88C196.71 55.64 197.22 53.87 197.93 51.97C199.23 48.51 199.24 48.5 200.35 48.5C201.42 48.5 201.5 48.59 202.19 50.5C202.58 51.6 203.08 52.95 203.31 53.5C204.01 55.2 203.93 56.15 203.1 56.27C202.54 56.35 202.3 56.17 202.14 55.52C201.95 54.75 201.77 54.67 200.35 54.67C198.99 54.67 198.72 54.78 198.39 55.5C197.99 56.4 197.09 56.61 196.81 55.88ZM76.2 54.47C75.55 52.77 77.14 51.36 78.65 52.32C79.05 52.57 78.92 52.84 77.98 53.81C76.69 55.14 76.49 55.22 76.2 54.47ZM200.83 52.17C200.83 51.81 200.57 51.46 200.25 51.4C199.81 51.31 199.67 51.51 199.67 52.17C199.67 52.83 199.81 53.02 200.25 52.94C200.57 52.87 200.83 52.53 200.83 52.17ZM197.92 20.31C197.42 20.01 197.33 19.43 197.33 16.17L197.33 12.36L198.52 12.14C200.09 11.85 201.93 12.17 202.71 12.87C203.43 13.52 203.49 14.09 202.95 14.95C202.64 15.45 202.71 15.75 203.3 16.55C204.17 17.73 203.91 18.83 202.48 19.96C201.5 20.73 198.98 20.92 197.92 20.31ZM201.9 18.45C202.22 17.61 201.54 16.84 200.38 16.73C199.38 16.63 199.33 16.68 199.33 17.81C199.33 18.95 199.38 19 200.51 19C201.29 19 201.76 18.82 201.9 18.45ZM201.33 14.15C201.33 13.82 200.97 13.67 200.17 13.67C198.89 13.67 198.56 14.39 199.57 14.96C200.27 15.35 201.33 14.86 201.33 14.15Z" fill="#1e2749" fill-rule="evenodd"/>
</svg>
