<?xml version="1.0" encoding="UTF-8"?>
<svg xmlns="http://www.w3.org/2000/svg" viewBox="0 0 228 154" width="228" height="154" shape-rendering="geometricPrecision">
<path d="M190.45 126.33C189.75 126.05 189.09 124.8 189.44 124.44C189.54 124.35 190.16 124.47 190.82 124.71C192.27 125.23 193.12 124.85 193.27 123.59C193.35 122.9 193.2 122.72 192.35 122.55C191.62 122.41 191.33 122.16 191.33 121.67C191.33 121.24 191.55 121 191.96 121C192.75 121 193.52 120.15 193.01 119.84C192.81 119.72 192.02 119.66 191.24 119.72C190.13 119.8 189.82 119.7 189.73 119.24C189.47 117.88 193.31 117.67 194.39 118.99C194.84 119.55 194.88 119.84 194.56 120.67C194.25 121.49 194.29 121.84 194.78 122.66C195.46 123.83 195.24 124.46 193.65 125.8C192.59 126.69 191.7 126.84 190.45 126.33ZM92.39 124.83C89.54 123.51 88.15 120.92 88.19 117C88.21 115.11 88.4 114.11 88.98 112.91C89.74 111.34 91.05 110 91.83 110C92.05 110 92.49 109.71 92.81 109.36C93.3 108.82 93.69 108.75 95.24 108.91C98.42 109.24 100.86 111.06 102 113.94C102.59 115.44 102.52 119.22 101.88 120.71C100.17 124.68 95.98 126.49 92.39 124.83ZM97.67 122.36C99.97 120.73 100.86 117.17 99.66 114.41C98.69 112.2 97.76 111.61 95.11 111.55C92.97 111.5 92.9 111.53 91.83 112.76C89.44 115.52 90.07 120.93 92.98 122.64C94.36 123.45 96.29 123.33 97.67 122.36ZM165.5 122.34C162.31 121.51 160.69 119.97 159.78 116.92C159.11 114.66 159.32 112.32 160.41 109.94C161.19 108.23 161.49 107.93 163.31 107.01C165.17 106.07 165.53 106 167.48 106.2C170.91 106.55 173.1 108.17 171.98 109.52C171.63 109.95 171.44 109.93 170.52 109.39C167.74 107.75 163.67 108.42 162.46 110.72C161.66 112.24 161.64 116.11 162.42 117.56C163.8 120.11 167 120.9 169.9 119.39C171.72 118.45 172.33 118.46 172.33 119.44C172.33 120.59 171.07 121.57 168.84 122.15C167.75 122.43 166.78 122.65 166.68 122.63C166.58 122.61 166.05 122.48 165.5 122.34ZM174.72 122.37C174.29 122.1 174.12 116.66 174.28 108.58L174.33 106L175.48 106C176.11 106 176.7 106.11 176.78 106.25C176.87 106.39 176.81 107.63 176.66 109C176.42 111.12 176.46 111.56 176.9 111.91C177.57 112.42 182.84 112.22 183.52 111.65C183.86 111.37 183.97 110.62 183.93 109.04C183.89 107.83 183.97 106.64 184.12 106.42C184.43 105.91 185.88 105.87 186.18 106.36C186.57 106.99 186.34 121.43 185.93 121.92C185.72 122.16 185.25 122.32 184.86 122.27C184.21 122.17 184.16 121.93 184.07 118.45C183.98 114.92 183.94 114.72 183.24 114.56C182.07 114.29 177.2 114.31 176.83 114.58C176.65 114.72 176.5 116.37 176.5 118.29C176.5 121.38 176.43 121.8 175.83 122.19C175.44 122.45 174.98 122.53 174.72 122.37ZM104.64 110.14C104.14 109.53 104.48 108.76 105.51 108.19C106.67 107.54 110.81 104.95 112.26 103.97C113.04 103.44 113.91 103 114.18 103C114.45 103 115.41 102.48 116.31 101.85C117.21 101.21 118.45 100.46 119.06 100.17C120.35 99.56 121.14 99.1 122.51 98.14C123.05 97.75 124.43 96.94 125.56 96.32C127.3 95.38 127.7 95.28 128.14 95.64C128.89 96.27 128.79 97.21 127.92 97.84C126.02 99.2 121.53 102 121.23 102C121.05 102 120.06 102.56 119.03 103.25C118.01 103.93 116.49 104.83 115.67 105.25C114.84 105.66 113.57 106.45 112.83 106.99C112.1 107.54 110.69 108.29 109.7 108.67C108.71 109.05 107.53 109.65 107.07 110.01C106.07 110.8 105.23 110.85 104.64 110.14ZM37.25 108.91C35.86 108.08 28.47 103.78 25.71 102.19C24.73 101.63 23.42 100.87 22.8 100.5C22.18 100.13 18.97 98.28 15.67 96.39C12.37 94.5 9.44 92.62 9.16 92.22C8.72 91.6 8.65 89.22 8.68 74.35C8.7 64.92 8.79 56.8 8.89 56.31C8.99 55.81 9.39 55.25 9.78 55.05C10.42 54.73 12.67 53.43 15.95 51.49C16.56 51.13 18.66 49.91 20.61 48.79C22.57 47.67 27.27 44.93 31.05 42.72C34.84 40.51 38.3 38.6 38.75 38.49C39.36 38.34 40.36 38.77 42.86 40.26C44.68 41.34 47.86 43.19 49.94 44.37C52.01 45.54 54.26 46.83 54.94 47.23C55.61 47.64 56.47 48.11 56.83 48.28C57.2 48.45 60.05 50.06 63.17 51.85C66.28 53.64 68.98 55.11 69.17 55.1C69.35 55.1 71.7 53.82 74.39 52.26C77.08 50.7 79.48 49.33 79.72 49.21C79.97 49.09 80.69 48.68 81.33 48.3C82.43 47.64 86.65 45.18 94.06 40.88C95.84 39.85 97.39 38.85 97.5 38.67C97.85 38.09 99.11 38.31 100.67 39.21C101.49 39.69 102.92 40.49 103.83 40.99C106.11 42.24 117.08 48.49 119.33 49.83C120.34 50.42 121.92 51.33 122.83 51.84C128.51 55.01 129.69 55.75 130.02 56.37C130.23 56.77 130.35 62.88 130.33 73.25C130.32 82.19 130.31 89.76 130.32 90.07C130.33 90.67 132.12 91.93 136.37 94.32C137.72 95.08 139.66 96.22 140.67 96.84C141.67 97.46 142.7 97.98 142.95 97.99C143.2 97.99 143.95 98.43 144.62 98.96C145.29 99.49 147.03 100.55 148.5 101.31C149.97 102.08 151.47 102.98 151.83 103.3C152.2 103.63 153.47 104.38 154.67 104.96C157.8 106.5 159.33 107.45 159.33 107.87C159.33 108.07 159.03 108.51 158.65 108.84C158.05 109.39 157.85 109.41 156.74 109.02C156.06 108.77 154.95 108.14 154.28 107.61C153.6 107.09 152.33 106.33 151.44 105.94C150.56 105.55 149.38 104.89 148.83 104.48C148.28 104.06 147.16 103.46 146.33 103.13C145.51 102.81 144.73 102.39 144.61 102.21C144.15 101.52 138.02 98 137.29 98C137.07 98 136.61 97.75 136.27 97.45C135.94 97.14 135.38 96.73 135.04 96.53C130.76 94.04 129.38 93.34 128.7 93.34C128.25 93.34 126.15 94.33 124.03 95.55C121.9 96.77 119.04 98.36 117.67 99.09C116.29 99.82 114.12 101.11 112.85 101.95C111.58 102.79 110 103.77 109.35 104.12C106.58 105.64 103.36 107.37 101.43 108.38L99.35 109.47L98.51 108.68C97.43 107.66 97.45 107.47 98.67 107.05C99.22 106.86 99.76 106.47 99.87 106.18C99.98 105.9 100.35 105.67 100.68 105.67C101.38 105.67 104.54 104.01 106.5 102.62C107.23 102.1 108.51 101.36 109.33 100.99C110.16 100.61 111.06 100.17 111.33 100C116.33 96.97 122.44 93.36 123.4 92.86C124.08 92.51 125.33 91.69 126.17 91.03L127.71 89.83L127.7 74.67C127.7 66.32 127.69 59.1 127.68 58.61C127.67 57.87 127.33 57.52 125.75 56.64C124.7 56.04 122.22 54.61 120.25 53.45C118.27 52.28 116.58 51.33 116.49 51.33C116.4 51.33 115.24 50.69 113.91 49.91C112.58 49.13 110.97 48.2 110.33 47.84C109.69 47.48 107 45.95 104.36 44.43C101.72 42.91 99.22 41.67 98.8 41.67C98.02 41.67 97.09 42.17 89.74 46.53C83.77 50.08 84.26 49.8 77.67 53.51C74.46 55.31 71.57 57.01 71.25 57.28C70.71 57.73 70.67 58.97 70.67 74.37L70.67 90.98L69.63 92.16C69.06 92.8 68.48 93.33 68.34 93.33C68.12 93.33 62.63 96.43 52.5 102.26C51.03 103.1 49.31 104.06 48.67 104.4C48.02 104.74 47.27 105.14 47 105.31C46.73 105.47 45.35 106.3 43.95 107.14C42.55 107.98 41.26 108.67 41.08 108.67C40.9 108.67 40.56 108.89 40.33 109.17C39.75 109.87 38.71 109.78 37.25 108.91ZM46.14 103.12C49.82 100.99 54.26 98.39 56 97.35C57.74 96.3 61.01 94.35 63.26 93.01C65.51 91.67 67.41 90.47 67.49 90.35C67.57 90.22 67.66 82.89 67.69 74.05C67.75 59.14 67.71 57.93 67.16 57.33C66.84 56.97 66.3 56.59 65.95 56.48C65.39 56.31 60.49 53.55 55.33 50.52C47.49 45.91 39.66 41.67 38.98 41.67C38.26 41.67 34.81 43.59 21.67 51.33C19.56 52.58 17.01 54.04 16 54.58C14.99 55.13 13.57 55.98 12.83 56.48L11.5 57.38L11.33 73.44C11.23 83.78 11.29 89.79 11.5 90.3C11.69 90.76 12.62 91.53 13.67 92.09C14.67 92.62 16.25 93.55 17.17 94.14C18.08 94.73 22.21 97.22 26.33 99.66C30.46 102.1 34.88 104.75 36.17 105.54C37.45 106.33 38.71 106.98 38.98 106.99C39.24 107 42.46 105.26 46.14 103.12ZM118 106.48C118 106.19 118.15 106.05 118.34 106.17C118.53 106.29 118.59 106.52 118.49 106.69C118.2 107.15 118 107.07 118 106.48ZM155.33 102.67C155.33 102.48 155.49 102.33 155.69 102.33C155.88 102.33 155.95 102.48 155.83 102.67C155.72 102.85 155.56 103 155.48 103C155.4 103 155.33 102.85 155.33 102.67ZM198 102C198 101.82 198.16 101.67 198.35 101.67C198.55 101.67 198.61 101.82 198.5 102C198.39 102.18 198.23 102.33 198.15 102.33C198.07 102.33 198 102.18 198 102ZM134 99C134 98.82 134.23 98.67 134.52 98.67C134.81 98.67 134.95 98.82 134.83 99C134.72 99.18 134.49 99.33 134.31 99.33C134.14 99.33 134 99.18 134 99ZM35.5 87.72C31.01 86.05 28.01 83.33 26.47 79.5C25.64 77.45 25.53 76.76 25.57 73.83C25.6 70.96 25.73 70.2 26.55 68.29C27.61 65.82 28.76 64.39 31.12 62.59C33.47 60.8 35.74 60.24 40.17 60.38C43.85 60.5 43.85 60.5 46.27 61.96C49.86 64.13 52.5 67.57 52.94 70.66C53.22 72.66 53.14 75.75 52.75 77.72C52.32 79.91 51.41 81.47 49.08 84.01C45.82 87.57 39.64 89.26 35.5 87.72ZM43.83 84.31C47.89 82.26 49.5 80.38 50.53 76.46C51.61 72.34 49.75 67.68 45.95 65.04C42.94 62.95 42.02 62.61 39.33 62.63C35.55 62.65 33.25 63.68 30.87 66.4C30.02 67.37 29.33 68.35 29.33 68.59C29.33 68.84 29.08 69.51 28.77 70.1C27.89 71.76 27.64 75.14 28.26 76.97C29.47 80.52 31.44 82.97 34.11 84.26C36.9 85.61 36.9 85.61 39.17 85.64C40.87 85.66 41.56 85.46 43.83 84.31ZM118.04 59.17C116.7 58.34 115.54 57.67 115.46 57.67C115.39 57.67 112.96 56.26 110.08 54.54C107.19 52.82 104.08 50.99 103.17 50.49C99.62 48.52 99 48.02 99 47.16C99 46.48 99.16 46.33 99.92 46.33C100.43 46.33 101.37 46.69 102.01 47.12C102.64 47.55 103.92 48.31 104.83 48.81C107.8 50.45 112.43 53.07 115.17 54.67C116.63 55.53 118.86 56.8 120.11 57.49C122.61 58.88 123.1 59.53 122.16 60.21C121.2 60.92 120.65 60.78 118.04 59.17Z" fill="#1e2749" fill-rule="evenodd"/>
</svg>
