<?xml version="1.0" encoding="UTF-8"?>
<svg xmlns="http://www.w3.org/2000/svg" viewBox="0 0 2430 1394" width="2430" height="1394" shape-rendering="geometricPrecision">
<path d="M410.5 1331.85C399.96 1326.48 368.09 1309.05 349.5 1298.49C339.6 1292.87 327 1285.8 321.5 1282.79C309.42 1276.17 298.58 1270 264.5 1250.36C240.35 1236.44 173.62 1198.02 124.5 1169.74C95.11 1152.82 85.69 1147.27 84.25 1146.01C83.26 1145.15 83 1104.6 83 949.57L83 754.22L96.75 746.5C104.31 742.26 115.67 735.75 122 732.04C128.32 728.33 147.45 717.28 164.5 707.48C181.55 697.69 205.18 684.04 217 677.15C228.82 670.27 241.43 663 245 661C248.57 659 263.43 650.48 278 642.06C317.06 619.52 354.21 598.11 383 581.55C397.02 573.48 409.04 566.35 409.69 565.69C411.01 564.37 411.58 536.19 412.53 423.5C413.39 322.61 414.82 299 420.09 299C423.44 299 425.03 304.83 426.03 320.86C427.02 336.58 427.87 420.84 427.95 511.51L428 567.51L432.75 570.4C435.36 571.99 445.82 578.09 456 583.96C466.18 589.82 486.65 601.62 501.5 610.18C516.35 618.74 545.83 635.74 567 647.97C588.17 660.19 614.5 675.38 625.5 681.72C636.5 688.06 649.55 695.61 654.5 698.51C659.45 701.4 672.27 708.82 683 715C693.73 721.18 708.8 729.94 716.5 734.47C742.52 749.78 739.46 748.44 745.35 747.12C750.91 745.88 769.99 736.96 783.95 729.08C812.54 712.95 841.44 696.51 861.5 684.96C874.15 677.68 889.45 668.95 895.5 665.55C901.55 662.16 912.58 655.97 920 651.81C942.82 639.01 970.43 625.75 974.58 625.62C976.62 625.55 978.46 625.99 978.67 626.58C979.8 629.77 967.05 639.29 942 653.96C935.12 657.99 925.9 663.42 921.5 666.02C917.1 668.63 904.27 676.06 893 682.53C881.73 689.01 860.8 701.05 846.5 709.3C832.2 717.55 817.58 725.95 814 727.97C805.18 732.95 761.42 758.16 756.75 760.95L753 763.2L753 953.98C753 1105.39 752.74 1144.96 751.75 1145.76C750.54 1146.74 728.82 1159.52 714.5 1167.69C698.1 1177.04 631.85 1215.17 597.5 1235.03C584.85 1242.34 571.58 1249.98 568 1252.01C564.42 1254.04 548.45 1263.12 532.5 1272.2C498.37 1291.61 471.88 1306.53 463.5 1311.05C460.2 1312.83 452.77 1316.87 447 1320.03C433.96 1327.15 418.3 1335.02 417.27 1334.95C416.85 1334.93 413.8 1333.53 410.5 1331.85ZM1967.5 1319.21C1924.53 1295.58 1897.44 1280.17 1790.5 1218.49C1774.55 1209.29 1751.15 1195.8 1738.5 1188.52C1725.85 1181.24 1704.25 1168.75 1690.5 1160.76L1665.5 1146.24L1665.25 955.19L1664.99 764.14L1659.25 760.91C1656.09 759.13 1650.35 755.79 1646.5 753.49C1642.65 751.19 1628.7 743.08 1615.5 735.47C1602.3 727.87 1580.03 715.03 1566 706.94C1503.84 671.08 1469.55 650.39 1453 638.74C1438.94 628.85 1436.93 626.22 1440.61 622.54C1442.75 620.4 1444.44 621.01 1457 628.51C1462.78 631.95 1479.2 641.41 1493.5 649.53C1507.8 657.65 1527.42 668.92 1537.1 674.58C1546.78 680.24 1559.83 687.77 1566.1 691.31C1572.37 694.84 1588.08 703.78 1601 711.18C1634.53 730.36 1655.6 742.28 1662.34 745.85C1667.92 748.81 1668.34 748.88 1671.67 747.49C1677.59 745.02 1720.25 721.81 1753 703.25C1763.17 697.48 1776.67 689.83 1783 686.26C1789.33 682.68 1798.78 677.27 1804 674.24C1809.22 671.2 1816.42 667.04 1820 664.99C1823.58 662.94 1832.58 657.76 1840 653.49C1847.42 649.21 1860.7 641.59 1869.5 636.54C1885.79 627.2 1925.2 604.48 1959.5 584.65C1969.95 578.61 1980.53 572.55 1983 571.17C1985.47 569.8 1988.2 568.08 1989.06 567.35C1990.46 566.17 1990.65 554.12 1990.83 453.22C1991.06 318.06 1991.82 299 1996.92 299C2001.66 299 2002.91 305.99 2004.47 341.33C2004.71 346.74 2005.17 380.04 2005.5 415.33C2005.82 450.62 2006.27 488.73 2006.49 500C2006.71 511.27 2006.92 530.7 2006.95 543.16L2007 565.83L2011.25 568.28C2013.59 569.63 2025.4 576.47 2037.5 583.48C2062.9 598.2 2103.83 621.82 2135.5 640.03C2147.6 646.99 2164.7 656.86 2173.5 661.96C2191.44 672.37 2222.83 690.49 2264.5 714.49C2279.9 723.36 2302.06 736.17 2313.75 742.95L2335 755.28L2335 949.48C2335 1133.2 2334.91 1143.77 2333.25 1145.2C2332.29 1146.04 2321.15 1152.7 2308.5 1160.01C2295.85 1167.31 2281.45 1175.65 2276.5 1178.52C2251.52 1193.05 2239.82 1199.81 2209.5 1217.26C2191.35 1227.71 2171.78 1238.95 2166 1242.24C2160.22 1245.54 2149.88 1251.5 2143 1255.49C2076.72 1293.98 2007.37 1331.01 1997 1333.46C1995.04 1333.92 1988.65 1330.83 1967.5 1319.21ZM428.5 1315.64C447.67 1305.45 454.64 1301.61 476 1289.46C487.82 1282.73 499.75 1275.99 502.5 1274.48C510.75 1269.94 555.59 1244.31 586 1226.75C601.67 1217.69 617.88 1208.34 622 1205.96C626.12 1203.57 640.98 1194.89 655 1186.66C669.02 1178.42 683.42 1169.98 687 1167.89C705.4 1157.15 734.51 1139.22 737.23 1136.95C740.27 1134.41 740.35 1134.1 741.09 1122.93C741.51 1116.64 742.12 1083.6 742.46 1049.5C742.8 1015.4 743.25 973.33 743.45 956C743.97 911.83 742.33 791.67 741.04 778.77C740.45 772.86 739.55 766.95 739.05 765.63C738.17 763.32 735.77 761.68 713.5 748.19C689.18 733.46 608.4 686.65 560 659.25C547.8 652.34 545.45 651.01 518 635.34C476.23 611.49 452.66 598.36 426.5 584.34C422.1 581.99 417.34 580.05 415.92 580.03C414.51 580.01 409.78 581.95 405.42 584.33C384.85 595.57 373.14 602.08 357 611.29C347.38 616.77 334 624.37 327.27 628.16C320.54 631.95 308.39 638.92 300.27 643.65C268.34 662.26 260.96 666.53 246.5 674.73C238.25 679.41 226.32 686.28 220 690C213.68 693.71 195.45 704.3 179.5 713.52C123.97 745.63 112.47 752.31 108 755.02C105.53 756.51 101.14 759.04 98.25 760.62L93 763.5L93 949.6C93 1125.58 93.1 1135.77 94.75 1137.22C95.71 1138.06 107.53 1145.05 121 1152.75C134.47 1160.45 155.85 1172.73 168.5 1180.05C181.15 1187.37 197.12 1196.59 204 1200.54C210.88 1204.48 226.85 1213.69 239.5 1220.98C281.82 1245.4 333.14 1274.75 344.5 1281.03C346.7 1282.24 353 1285.82 358.5 1288.99C368.16 1294.54 391.98 1307.72 408.5 1316.64C412.9 1319.02 416.95 1320.96 417.5 1320.96C418.05 1320.96 423 1318.57 428.5 1315.64ZM2009.5 1316.15C2028.2 1306.21 2045.04 1296.95 2061 1287.83C2070.07 1282.65 2082.22 1275.75 2088 1272.51C2103.18 1263.99 2184.95 1216.97 2195 1210.98C2198.03 1209.18 2208.82 1202.89 2219 1197.01C2229.18 1191.13 2244.7 1182.13 2253.5 1177.02C2273.87 1165.17 2276.93 1163.41 2297.5 1151.56C2306.85 1146.18 2315.34 1140.97 2316.38 1139.98C2318.72 1137.74 2318.67 1138.72 2319.96 1073.5C2320.94 1023.61 2321.42 1001.4 2322.51 955.5C2325.49 829.16 2325.31 778.95 2321.83 768.5C2320.81 765.42 2319.24 763.66 2315 760.85C2306.09 754.95 2268.79 732.59 2236 713.5C2219.22 703.73 2200.32 692.71 2194 689.01C2187.68 685.31 2177.55 679.46 2171.5 676C2146.72 661.85 2139.91 657.95 2127.5 650.77C2105.27 637.93 2093.45 631.19 2084.31 626.15C2079.47 623.48 2065.15 615.46 2052.5 608.33C2012.48 585.79 2001.37 580 1998.09 580C1994.92 580 1983.7 585.92 1942.5 609.32C1930.95 615.88 1916.33 624.17 1910 627.73C1903.67 631.29 1893.78 637.02 1888 640.46C1882.22 643.91 1869.4 651.34 1859.5 656.99C1849.6 662.63 1836.78 670.05 1831 673.47C1819.51 680.28 1800.86 691.18 1768.5 710.01C1756.95 716.73 1745.03 723.71 1742 725.52C1738.97 727.33 1726.38 734.77 1714 742.06C1701.62 749.35 1687.79 757.75 1683.25 760.72L1674.99 766.13L1675.25 951.69L1675.5 1137.25L1701.5 1152.23C1715.8 1160.46 1735.15 1171.6 1744.5 1176.96C1753.85 1182.33 1770.28 1191.81 1781 1198.03C1808.31 1213.88 1877.38 1253.58 1884 1257.23C1887.03 1258.9 1891.97 1261.72 1895 1263.49C1902.33 1267.79 1917.07 1276.06 1924.5 1280.04C1927.8 1281.8 1932.53 1284.49 1935 1286C1945.44 1292.37 1998.7 1321.01 2000 1320.96C2000.28 1320.95 2004.55 1318.78 2009.5 1316.15ZM397.71 1154.43C360.98 1150.15 328.4 1137.67 298 1116.21C285.17 1107.16 261.33 1083.33 252.26 1070.5C217.32 1021.07 205.28 963.72 217.49 904.96C223.11 877.93 239.73 844.01 258.85 820.57C294.34 777.06 350.73 748.58 409.5 744.5C428.07 743.21 459.66 748.35 483.95 756.61C562.85 783.45 617.48 855.75 622.92 940.5C627.35 1009.59 591.06 1079.78 529.66 1120.85C490.01 1147.38 442.04 1159.58 397.71 1154.43ZM1982.72 1154.96C1971.77 1153.81 1952.35 1149.91 1940.5 1146.48C1909.35 1137.46 1883.11 1121.8 1857.65 1097.07C1825.8 1066.12 1806.28 1030.97 1797.91 989.5C1795.15 975.87 1794.09 941.74 1795.98 927.5C1802.93 875.06 1826.86 828.78 1863.35 797.19C1897.97 767.22 1932.13 751.6 1975.47 745.93C1988.55 744.22 2020.51 745.24 2035 747.84C2048.5 750.26 2070.41 757.2 2083.33 763.15C2152.33 794.94 2197.86 860.78 2204.25 938.04C2208.06 984.15 2191.34 1037.16 2161.05 1075C2127.19 1117.3 2082.4 1144.35 2032 1152.93C2017.62 1155.38 1995.47 1156.29 1982.72 1154.96ZM455.84 1138.99C466.34 1137.62 475.68 1134.62 490.3 1127.92C554.1 1098.68 596.26 1046.56 607.1 983.5C610.02 966.5 610.22 941.05 607.57 923.5C598.11 860.96 562.17 809.39 507.99 780.63C480.58 766.08 451.69 759.69 413.5 759.74C389.01 759.78 377.43 761.43 359.37 767.45C327.61 778.06 302.16 793.78 280.42 816.2C263.69 833.46 254.99 846.07 242.95 870.5C229.98 896.81 228.02 907.22 228.02 949.5C228.02 993.77 229.81 1002.59 245.11 1033.43C256.29 1055.96 272.9 1077.86 290.39 1093.15C315.38 1114.97 356.6 1136.29 379 1138.96C388.43 1140.09 447.21 1140.11 455.84 1138.99ZM2047.5 1137.25C2069.52 1130.97 2096.85 1116.62 2117.5 1100.5C2128.06 1092.26 2146.97 1072.65 2154.72 1061.9C2203.71 993.94 2203.89 905.8 2155.16 837.58C2142.59 819.97 2117.74 797.27 2098.33 785.65C2065.51 766 2024.05 756.05 1987 758.94C1964.85 760.67 1949.17 764.3 1927.5 772.71C1881.19 790.68 1847.22 822.78 1825.06 869.5C1811.63 897.81 1810.98 900.92 1810.3 939.5C1809.39 991.28 1811.03 1001.15 1825.43 1030.5C1843.04 1066.4 1866.8 1093.09 1898.88 1112.98C1914.36 1122.59 1938.51 1133.75 1951 1137.08C1959.86 1139.44 1968.01 1139.82 2004 1139.54C2036.95 1139.28 2041.18 1139.05 2047.5 1137.25ZM1088.5 650.99C1077.79 649.68 1068.68 647.02 1059.5 642.53C1042.8 634.36 1032.87 624.04 1023.86 605.5C1021.18 600 1018.04 591.68 1016.86 587.01C1013.86 575.03 1014.58 551.31 1018.39 536.5C1026.26 505.98 1044.95 487.27 1077.5 477.33C1085.61 474.85 1087.99 474.58 1101.5 474.58C1115.3 474.58 1117.74 474.88 1132 478.26C1150.17 482.57 1160.12 484.24 1163.25 483.51C1166.37 482.77 1167.6 483.86 1168.88 488.5C1170.18 493.2 1170.42 531.63 1169.15 532.41C1168.68 532.7 1166.36 528.79 1163.99 523.72C1151.62 497.25 1139.37 486.52 1118.42 483.82C1100.47 481.5 1079.13 486.29 1067.92 495.16C1057.59 503.32 1050.05 520.27 1047.88 540.19C1046.42 553.66 1047.27 583.37 1049.4 592.78C1052.8 607.85 1057.56 617.76 1065.92 627.13C1077.69 640.32 1094.4 646.24 1113.7 644.03C1134.08 641.71 1145.48 632.65 1160.29 607C1169.15 591.67 1171.69 594.63 1168.57 616.65C1166.54 630.95 1165.49 634.38 1161.84 638.53C1158.47 642.37 1155.58 643.42 1137.15 647.48C1119.07 651.46 1102.25 652.67 1088.5 650.99ZM1203.25 648.32C1198.35 647.92 1196.75 646.89 1198.93 645.55C1199.44 645.23 1204.5 644.03 1210.18 642.88C1215.85 641.73 1221.05 640.34 1221.72 639.8C1222.66 639.04 1222.88 621.36 1222.72 562.16L1222.5 485.5L1217.11 483.77C1210.77 481.74 1210.06 481.21 1212.03 479.96C1213.81 478.83 1262.67 478.81 1265.5 479.93C1267.23 480.62 1266.87 481.03 1262.76 482.97C1258.53 484.97 1257.85 485.75 1256.53 490.2C1254.9 495.71 1252.64 534.29 1253.17 547.5L1253.5 555.5L1290.36 555.73C1311.75 555.86 1327.94 555.57 1328.96 555.02C1330.89 553.99 1330.89 553.05 1329.02 514C1327.83 489.26 1326.62 485.35 1319.38 482.96C1314.98 481.51 1315.1 480.41 1319.75 479.64C1324.97 478.78 1369.94 479.03 1373 479.94C1375.33 480.64 1375.2 480.77 1371.2 481.9C1365.51 483.5 1363.44 485.75 1361.29 492.71C1359.63 498.07 1359.52 503.65 1359.73 567.81C1359.87 608.75 1360.35 637.81 1360.91 638.81C1361.53 639.93 1365.47 641.34 1372.57 643C1378.46 644.38 1383.24 645.95 1383.18 646.5C1382.96 648.49 1370.92 649.12 1342 648.63C1312.05 648.13 1308 647.76 1308 645.5C1308 643.93 1311.18 643.03 1316.78 643.01C1323.75 642.99 1327.71 640.8 1328.88 636.33C1330 632.03 1331.43 569.93 1330.48 566.93C1329.89 565.07 1328.51 565 1291.43 565L1253 565L1253.02 598.25C1253.05 631.5 1253.55 637.98 1256.34 640.76C1257.22 641.64 1260.94 642.55 1265.48 643C1274.38 643.87 1276.81 645.32 1272.41 647.12C1269.51 648.31 1214.93 649.26 1203.25 648.32ZM403 248.33C396.8 247.5 381.87 242.96 376.61 240.32C356.54 230.25 339.63 209.66 334.03 188.5C329.78 172.45 330.36 145.16 335.26 130.5C345.41 100.12 365.47 81.98 399.02 72.82C410.94 69.56 423.91 69.74 437.85 73.35C455.61 77.95 464.75 82.77 475.83 93.38C502.61 119.01 510.9 159.74 496.55 195.07C486.2 220.54 466.22 238 438.72 245.6C429.54 248.14 411.68 249.51 403 248.33ZM2000 247.98C1978 244.92 1957.75 234.29 1946.18 219.71C1918.5 184.83 1921.55 126.09 1952.62 95.51C1966.35 82 1987.5 72.55 2008.67 70.46C2027.62 68.6 2058 79.55 2074.39 94.16C2091.61 109.5 2101.16 136.6 2099.7 165.92C2098.56 188.76 2090.34 208.42 2075.69 223.31C2063.96 235.22 2050.69 242.47 2033.11 246.55C2024.99 248.44 2008.43 249.15 2000 247.98ZM547 245.9C533.5 245.21 529 244.35 529 242.48C529 240.22 530.99 239.65 540.96 239.06L550.5 238.5L550.36 205.5C550.28 187.35 549.89 152.16 549.49 127.3L548.77 82.1L542.63 80.27C539.26 79.27 536.6 78 536.73 77.47C536.86 76.94 540.01 76.22 543.73 75.87C559.37 74.43 599.54 75.31 598.45 77.07C598.19 77.5 595.8 78.57 593.15 79.45C587.34 81.38 583.66 84.99 581.38 91.01C579.96 94.73 579.6 100.33 579.23 123.76L578.79 152.02L619.65 151.76L660.5 151.5L660.24 130.5C659.93 104.98 658.61 89.09 656.46 84.92C655.43 82.93 653.23 81.11 650.32 79.82C642.83 76.5 645.91 75.72 668.21 75.26C688.9 74.84 702.02 75.71 702.11 77.5C702.14 78.05 699.76 79.23 696.83 80.12L691.5 81.75L691.53 152.62C691.55 228.58 691.84 233.57 696.33 236.45C697.52 237.22 701.32 238.39 704.77 239.06C714.73 240.98 713.88 243.17 702.46 245.03C688.77 247.25 643.18 246.08 638.83 243.39C636.74 242.1 638.26 240.05 641.75 239.45C653.31 237.48 656.27 235.38 657.84 228C658.93 222.88 659.7 210.16 660.61 181.75L661.25 162L620.02 162L578.79 162L579.26 193.25C579.78 227.54 580.2 230.4 585.5 235.7C588.21 238.41 589.58 239 593.15 239.02C597.69 239.05 604.72 240.39 605.76 241.43C609.34 245.01 577.1 247.46 547 245.9ZM2146.5 245.87C2128.71 245.16 2124 244.42 2124 242.34C2124 240.57 2124.94 240.24 2133.39 239.07C2145.54 237.38 2148.25 232.49 2150.03 209.09C2151.85 185.1 2149.62 100.14 2146.94 91.18C2145.41 86.08 2144.17 84.63 2138.46 81.27C2129.48 76 2130.8 75.54 2156 75.19C2179.69 74.87 2193 75.55 2193 77.09C2193 77.6 2191.18 78.74 2188.96 79.63C2186.57 80.59 2184.34 82.38 2183.49 84.02C2181.63 87.62 2180.25 103.2 2179.42 130.26L2178.74 152.02L2217.62 151.76L2256.5 151.5L2256.21 136C2256.04 127.47 2255.49 113.6 2254.97 105.17C2253.81 86.35 2252.35 82.16 2246.13 79.67C2243.86 78.76 2242 77.63 2242 77.16C2242 75.82 2256.62 75 2278.5 75.12C2300.19 75.25 2305.24 75.76 2302.91 77.62C2301.39 78.83 2293.49 81.46 2288.26 82.51C2286.48 82.86 2284.81 83.5 2284.55 83.91C2284.3 84.33 2284.5 106.91 2285 134.09C2285.5 161.26 2285.96 191.15 2286.01 200.5C2286.06 209.85 2286.36 221.8 2286.68 227.06L2287.26 236.62L2298.23 239.25C2309.91 242.04 2311.24 242.61 2309.06 243.96C2305.34 246.26 2246.02 246.44 2237.55 244.17C2230.78 242.36 2235.92 239 2245.47 239C2249.69 239 2251.08 238.54 2252.97 236.53C2256.15 233.15 2257.11 220.77 2256.77 187.9L2256.5 162.5L2217.68 162.24L2178.86 161.98L2179.18 197.42C2179.57 240.19 2178.92 238.02 2191.6 239.29C2199.72 240.11 2202.22 241.18 2200.36 243.04C2197.72 245.68 2173.47 246.95 2146.5 245.87ZM2023 241.79C2040.93 236.5 2057.66 219.18 2064.42 198.89C2074.11 169.82 2070.51 125.8 2056.36 100.25C2047.82 84.82 2037.71 79.44 2017.5 79.57C1999.13 79.69 1988.22 83.74 1977.56 94.41C1970.16 101.81 1967 106.88 1963.04 117.72C1959.08 128.59 1957.7 139.37 1957.63 160C1957.51 195.96 1962.69 212.87 1978.67 228.68C1991.99 241.87 2007.34 246.4 2023 241.79ZM428.46 240.61C437.95 237.59 444.1 233.66 451.67 225.74C466.04 210.73 473.04 189.03 472.97 159.76C472.88 125.55 462.89 96.47 447.8 86.49C434.02 77.37 401.36 77.95 387.36 87.56C381.32 91.71 374.13 100.51 370.02 108.8C360.24 128.52 358.08 172.38 365.5 200.99C368.25 211.62 373.5 220.73 381.39 228.57C394.85 241.94 411.13 246.11 428.46 240.61Z" fill="#1e2749" fill-rule="evenodd"/>
</svg>
