<?xml version="1.0" encoding="UTF-8"?>
<svg xmlns="http://www.w3.org/2000/svg" viewBox="0 0 2193 802.439" width="2193" height="802.439" shape-rendering="geometricPrecision">
<path d="M1807.73 787.43C1802.11 784.6 1795.61 777.9 1792.67 771.91C1788.7 763.79 1787.32 756.97 1787.31 745.34C1787.29 732.39 1790.25 721.93 1796.13 714.13C1800.28 708.63 1809.21 702.76 1813.42 702.76C1817.83 702.76 1816.76 705.24 1810.92 708.54C1799.31 715.09 1793.64 732.66 1796.18 754.18C1798.02 769.81 1802.63 778.62 1811.79 783.99C1819.1 788.27 1815.49 791.34 1807.73 787.43ZM2146.15 787.67C2146.15 786.6 2147.76 784.95 2150.09 783.64C2159 778.64 2164.06 769.37 2166.19 754.19C2167.6 744.09 2166.32 732.07 2162.88 723.08C2160.54 716.96 2154.16 709.82 2149.21 707.77C2145.5 706.23 2144.93 702.75 2148.39 702.77C2151.43 702.78 2159.88 707.79 2163.78 711.88C2167.8 716.1 2172.5 725.61 2173.94 732.46C2174.56 735.37 2175.05 741.65 2175.05 746.42C2175.03 760.78 2171.28 771.26 2163.08 779.94C2155.97 787.45 2146.15 791.94 2146.15 787.67ZM872.88 784.83C872.51 784.46 872.22 744.54 872.22 696.11L872.22 608.06L743.63 608.06C658.56 608.06 615.04 607.72 615.04 607.06C615.04 605.68 351.23 605.68 350.38 607.06C349.54 608.42 88.5 608.44 87.14 607.08C86.56 606.5 75.19 605.99 59.28 605.83L32.4 605.57L32.4 602.58L32.4 599.59L57.32 599.09L82.24 598.59L82.51 580.35L82.78 562.1L87.99 562.4L93.2 562.7L93.48 579.9L93.75 597.1L222.06 596.85L350.38 596.6L350.65 579.4L350.93 562.21L355.87 562.21L360.8 562.21L361.07 580.4L361.35 598.59L484.95 598.59L608.56 598.59L608.83 580.4L609.1 562.21L614.56 562.21L620.02 562.21L620.02 579.65L620.02 597.1L745.87 596.85L871.72 596.6L871.97 360.6L872.22 124.6L866.21 124.6C862 124.6 860.03 124.19 859.66 123.22C859.01 121.53 874.79 89.71 876.28 89.71C878.08 89.71 893.04 121.93 891.9 123.36C891.33 124.08 888.65 124.6 885.55 124.6L880.19 124.6L880.19 185.91L880.19 247.21L1009.26 247.21L1138.33 247.21L1138.99 249.84C1139.35 251.29 1139.24 253.65 1138.73 255.08L1137.82 257.68L1009.01 257.93L880.19 258.18L880.19 268.04C880.19 275.88 880.5 278.02 881.69 278.47C882.94 278.96 883.18 282.13 883.18 298.55C883.18 314.96 882.94 318.14 881.69 318.62C880.45 319.1 880.19 321.75 880.19 333.93C880.19 346.12 880.45 348.77 881.69 349.25C882.94 349.73 883.18 352.83 883.18 368.67C883.18 384.21 882.92 387.74 881.69 388.76C880.48 389.76 880.19 392.85 880.19 404.72C880.19 416.89 880.45 419.55 881.69 420.02C882.94 420.5 883.18 423.68 883.18 440.1C883.18 456.51 882.94 459.69 881.69 460.17C880.45 460.64 880.19 463.3 880.19 475.48C880.19 487.66 880.45 490.32 881.69 490.8C882.94 491.28 883.18 494.46 883.18 510.87C883.18 527.28 882.94 530.46 881.69 530.94C880.45 531.42 880.19 534.09 880.19 546.39C880.19 558.7 880.45 561.37 881.69 561.84C882.94 562.33 883.18 565.38 883.18 580.76L883.18 599.1L1007.53 598.84L1131.89 598.59L1132.16 580.34L1132.43 562.1L1137.14 562.4L1141.86 562.7L1142.13 579.9L1142.4 597.09L1270.47 597.24C1340.91 597.33 1399.1 597.44 1399.78 597.49C1400.73 597.57 1401.09 593.3 1401.3 579.85L1401.57 562.1L1406.78 562.4L1411.99 562.7L1412.26 580.9L1412.54 599.1L1536.37 598.84L1660.2 598.59L1660.47 580.35L1660.74 562.1L1665.78 562.4L1670.81 562.7L1670.99 579.65L1671.17 596.6L1797.76 596.6L1924.36 596.6L1924.63 580.9L1924.91 565.2L1929.87 565.2L1934.82 565.2L1934.82 582.15L1934.82 599.11L1979.93 598.85L2025.04 598.59L2025.33 592.36C2025.55 587.75 2026 586.13 2027.06 586.13C2028.45 586.13 2059.43 601.9 2059.43 602.61C2059.43 603.04 2027.04 620.02 2026.22 620.02C2025.89 620.02 2025.49 616.99 2025.33 613.29L2025.04 606.56L1976.75 606.3C1945.23 606.14 1928.11 606.4 1927.46 607.05C1926.07 608.44 1667.04 608.45 1666.18 607.06C1665.33 605.68 1399.89 605.68 1399.03 607.06C1398.63 607.72 1353.85 608.06 1267.95 608.06C1182.05 608.06 1137.28 607.72 1136.87 607.06C1136.47 606.41 1092.5 606.07 1008.22 606.07L880.19 606.07L880.19 694.58C880.19 762.1 879.91 783.38 878.99 784.3C877.7 785.59 873.96 785.91 872.88 784.83ZM1730.18 768.98C1724.67 765.93 1724.3 760.62 1728.41 743.13C1729.95 736.55 1731.02 730.83 1730.79 730.42C1730.55 730.01 1729.04 729.67 1727.43 729.67C1725.16 729.67 1724.5 729.22 1724.5 727.68C1724.5 726.26 1725.16 725.68 1726.81 725.68C1729.64 725.68 1732.84 722.43 1734.93 717.45C1736.32 714.12 1736.87 713.72 1740.07 713.72C1743.43 713.72 1743.61 713.88 1743 716.33C1742.64 717.76 1742.08 720.23 1741.77 721.81L1741.19 724.69L1747.63 724.69C1754.81 724.69 1755.77 725.13 1754.35 727.76C1753.59 729.19 1751.95 729.64 1746.72 729.87L1740.07 730.17L1738.3 737.15C1735.52 748.08 1734.08 757.92 1734.82 760.86C1735.75 764.58 1739.66 764.46 1744.09 760.57C1745.96 758.93 1747.94 757.58 1748.49 757.58C1750.66 757.58 1750.57 760.78 1748.31 763.18C1742.66 769.19 1734.99 771.65 1730.18 768.98ZM1829.66 769.69C1823.78 768.64 1823.18 767.98 1823.18 762.51C1823.18 758.4 1823.48 757.58 1825.01 757.58C1826.01 757.58 1828.28 759.38 1830.04 761.57C1832.89 765.12 1833.72 765.56 1837.59 765.56C1841.23 765.56 1842.37 765.05 1844.52 762.49C1845.94 760.8 1847.1 759.07 1847.1 758.64C1847.1 756.32 1842.12 752.2 1835.76 749.26C1827.27 745.34 1824.18 741.94 1824.18 736.56C1824.18 727.21 1828.61 724.18 1842.24 724.21C1852.71 724.23 1855.08 725.18 1855.08 729.36C1855.08 732.42 1853.4 735.65 1851.8 735.65C1851.14 735.65 1849.34 734.08 1847.81 732.16C1845.31 729.03 1844.53 728.67 1840.16 728.67C1834.68 728.67 1832.15 730.43 1832.15 734.23C1832.15 737.59 1834.68 739.8 1843.27 743.93C1852.1 748.17 1854.08 750.15 1854.79 755.44C1856.16 765.68 1844.43 772.34 1829.66 769.69ZM1876.51 769.1C1867.69 765.86 1863.09 756.08 1864.42 743.39C1865.83 729.89 1874.54 722.4 1886.88 724.09C1896.07 725.35 1901.34 731.54 1901.4 741.12L1901.43 746.12L1887.09 746.4L1872.76 746.67L1873.35 751C1873.68 753.39 1874.5 756.55 1875.17 758.03C1877.82 763.84 1887.01 765.38 1893.36 761.07C1897.6 758.19 1898.28 758.08 1899.84 759.96C1900.75 761.05 1900.33 761.9 1897.85 763.98C1890.91 769.83 1883.4 771.62 1876.51 769.1ZM1922.36 769.05C1917.64 767.38 1913.63 762.97 1912.04 757.68C1910.6 752.84 1910.58 742.33 1912.01 737.17C1913.49 731.83 1919.32 726.18 1924.89 724.67C1929.13 723.52 1939.37 723.82 1942.96 725.19C1944.87 725.93 1946 732.54 1944.53 734.41C1943.07 736.26 1938.85 735.93 1938.13 733.91C1936.81 730.19 1934.56 728.67 1930.34 728.67C1925.53 728.67 1923.4 730.48 1921.32 736.33C1919.69 740.89 1919.49 750.67 1920.91 755.79C1923.02 763.39 1931.13 765.88 1938.17 761.1C1941.82 758.63 1944.79 758.64 1944.79 761.13C1944.79 764.08 1933.55 770.45 1928.34 770.45C1927.25 770.45 1924.56 769.82 1922.36 769.05ZM1965.76 769.42C1956.48 766.63 1952.58 759.99 1952.62 747.07C1952.65 733.65 1956.57 727.42 1966.68 724.7C1972.45 723.15 1980.66 724.2 1984.86 727.03C1986.67 728.25 1989.27 731.25 1990.63 733.7C1992.7 737.41 1993.1 739.45 1993.08 746.12C1993.06 751.85 1992.54 755.07 1991.24 757.58C1988.96 761.96 1984.94 766.32 1981.58 768.08C1977.97 769.97 1969.87 770.65 1965.76 769.42ZM2067.01 769.51C2060.01 767.41 2055.44 758.87 2055.44 747.87C2055.44 729.39 2066.17 720.86 2084.38 724.86C2085.53 725.12 2085.91 723.79 2086.14 718.74C2086.54 710.39 2085.84 707.88 2082.82 706.73C2081.47 706.22 2080.36 705.09 2080.36 704.23C2080.36 702.93 2081.56 702.72 2087.59 702.96L2094.81 703.26L2095.08 733.94L2095.34 764.62L2097.9 765.59C2102.38 767.3 2100.12 769.02 2092.99 769.34L2086.34 769.63L2086.34 766.6C2086.34 763.2 2084.43 762.56 2082.23 765.22C2080.64 767.13 2073.58 770.53 2071.39 770.43C2070.57 770.4 2068.59 769.98 2067.01 769.51ZM2113.49 769.54C2107.51 768.28 2107.27 768.01 2107.27 762.51C2107.27 756.25 2109.11 756 2114.25 761.57C2117.22 764.79 2118.62 765.56 2121.49 765.56C2126.48 765.56 2128.05 764.76 2129.83 761.31C2131.27 758.53 2131.25 758.12 2129.48 755.7C2128.43 754.27 2124.2 751.46 2120.07 749.46C2111.26 745.2 2108.27 741.93 2108.27 736.56C2108.27 727.32 2113.03 724.16 2126.87 724.24C2133.05 724.27 2136.52 724.72 2137.63 725.65C2139.77 727.42 2139.31 733.55 2136.94 735.04C2135.5 735.94 2134.68 735.49 2132.13 732.4C2129.35 729.03 2128.6 728.67 2124.22 728.67C2118.77 728.67 2116.24 730.43 2116.24 734.23C2116.24 737.63 2118.99 740 2127.46 743.91C2135.95 747.84 2139.17 751.29 2139.17 756.47C2139.16 766.49 2127.41 772.47 2113.49 769.54ZM2002.61 767.79C2002.61 766.83 2003.5 765.48 2004.6 764.79C2006.47 763.63 2006.59 762.47 2006.59 746.59L2006.59 729.63L2004.1 728.49C2002.73 727.87 2001.61 726.76 2001.61 726.02C2001.61 725.03 2003.42 724.69 2008.59 724.69L2015.57 724.69L2015.57 727.85L2015.57 731.02L2017.82 728.9C2023.74 723.34 2033.99 722.37 2038.29 726.97C2041.79 730.71 2042.48 734.29 2042.48 748.72C2042.48 762.44 2042.52 762.7 2045.06 765.05C2046.48 766.37 2047.35 767.92 2047 768.5C2046.09 769.96 2029.84 769.87 2028.93 768.4C2028.52 767.73 2029.34 766.43 2030.87 765.32C2033.5 763.4 2033.51 763.37 2033.49 749.77C2033.48 732.96 2032.85 731.29 2026.37 730.87C2022.66 730.63 2021.22 731.04 2018.92 733.02C2016.07 735.47 2016.06 735.52 2015.74 749L2015.41 762.52L2018.07 764.98C2019.53 766.34 2020.44 767.92 2020.08 768.5C2019.71 769.09 2015.83 769.54 2011.02 769.54C2003.66 769.54 2002.61 769.33 2002.61 767.79ZM1978.58 763C1982.29 759.88 1983.66 755.29 1983.64 746.12C1983.62 738.36 1981.21 731.56 1977.84 729.75C1974.51 727.97 1967.96 728.44 1965.79 730.6C1961.97 734.42 1960.47 747.38 1962.83 756.09C1965.25 764.99 1972.46 768.15 1978.58 763ZM2082.12 760.15C2085.79 756.79 2085.85 756.62 2086.2 748.15C2086.83 732.63 2084.89 728.67 2076.59 728.67C2067.95 728.67 2065.01 733.29 2065.16 746.62C2065.3 758.6 2068.05 763.56 2074.55 763.56C2077.54 763.56 2079.22 762.8 2082.12 760.15ZM1891.9 741.2C1893.36 739.45 1891.91 733.36 1889.36 730.55C1886.89 727.81 1879.72 727.98 1877.06 730.84C1874.88 733.18 1873.44 738.69 1874.38 741.13C1875.18 743.23 1890.17 743.29 1891.9 741.2ZM101.18 686.19C92.77 684.05 92.7 684 92.7 678.76C92.7 674.01 92.8 673.85 95.6 673.85C97.83 673.85 98.94 674.62 100.51 677.28C104.67 684.33 115.12 683.98 119.59 676.65C123.29 670.59 121.36 661.36 115.8 658.48C114.15 657.63 110.31 656.65 107.24 656.29C102.8 655.76 101.68 655.27 101.68 653.85C101.68 652.54 103.14 651.64 107.09 650.49C113.7 648.57 118.11 645.02 119.63 640.42C122.02 633.16 117.86 627 110.56 627C105.2 627 102.21 628.64 100.3 632.64C98.93 635.51 98.19 636.05 95.93 635.79C93.41 635.5 93.2 635.13 93.2 630.99L93.2 626.5L99.68 624.29C110.67 620.55 121.62 621.67 126.66 627.06C132.35 633.15 131.15 640.51 123.32 647.49C120.35 650.15 118.64 652.33 119.32 652.59C122.03 653.63 127.04 657.58 129 660.22C132.09 664.4 131.8 672.41 128.36 677.61C124.25 683.82 119.68 686.11 110.75 686.42C106.58 686.57 102.27 686.46 101.18 686.19ZM361.3 683.07C362.41 678.46 367.54 670.86 376.86 659.97C381.76 654.25 386.66 647.71 387.76 645.45C392.39 635.88 388.56 627 379.8 627C374.52 627 372.54 628.1 369.97 632.46C368.46 635.01 367.2 635.97 365.37 635.97C363.01 635.97 362.84 635.65 362.84 631.07L362.84 626.16L368.08 624.35C375.32 621.84 389.28 621.82 393.09 624.31C399.57 628.56 401.44 636.78 397.69 644.52C396.58 646.83 392.17 652.46 387.91 657.05C379.28 666.31 371.81 675.54 371.81 676.93C371.81 677.43 376.3 677.84 381.78 677.84C390.42 677.84 392.02 677.57 393.74 675.84C394.84 674.75 395.74 673.37 395.74 672.78C395.74 672.2 396.75 671.86 397.98 672.04C400.03 672.33 400.2 672.82 399.98 677.84C399.85 680.85 399.53 683.88 399.27 684.56C398.91 685.5 394.05 685.81 379.71 685.81L360.63 685.81L361.3 683.07ZM1940.8 684.71C1940.8 684.1 1941.93 682.72 1943.3 681.65C1945.49 679.92 1945.79 678.93 1945.79 673.28L1945.79 666.87L1933.33 666.87L1920.87 666.87L1920.87 664.44C1920.87 662.15 1944.63 624.48 1947.17 622.75C1947.78 622.33 1949.63 622.11 1951.27 622.25L1954.26 622.51L1954.53 642.2C1954.79 660.81 1954.91 661.89 1956.7 661.89C1957.75 661.89 1959.49 660.77 1960.56 659.4C1964.22 654.75 1967.12 656.72 1965.85 662.97C1965.18 666.27 1964.99 666.38 1959.96 666.67L1954.76 666.98L1954.76 673.45C1954.76 679.07 1955.09 680.23 1957.24 682.22C1958.6 683.48 1959.42 684.81 1959.06 685.16C1957.9 686.33 1940.8 685.9 1940.8 684.71ZM1138.03 684.15C1136.31 682.43 1137.75 681 1141.83 680.38C1144.94 679.92 1146.9 678.93 1148.33 677.12C1150.26 674.67 1150.35 673.4 1150.1 653.5L1149.83 632.48L1147.55 632.16C1146.3 631.98 1143.33 632.97 1140.95 634.37C1136.52 636.96 1135.38 636.88 1135.38 633.97C1135.38 632.14 1153.25 621.07 1156.77 620.72C1158.76 620.52 1158.81 621.09 1159.34 649.43C1159.63 665.33 1159.97 678.4 1160.09 678.49C1161.28 679.35 1167.18 680.83 1169.42 680.83C1172.46 680.83 1172.98 681.7 1171.06 683.62C1169.77 684.91 1139.28 685.4 1138.03 684.15ZM1390.86 683.15C1389.84 680.51 1395.06 671.74 1403.65 661.67C1416.46 646.65 1418.86 642.69 1418.92 636.46C1418.96 632.18 1418.51 630.66 1416.57 628.59C1411.58 623.28 1403.6 624.31 1399.4 630.81C1397.71 633.42 1396.31 634.47 1394.54 634.47C1392.29 634.47 1392.03 634.03 1391.76 629.83L1391.46 625.19L1397.24 623C1401.16 621.51 1405.42 620.78 1410.5 620.71C1420.49 620.57 1424.98 622.69 1427.69 628.81C1431.23 636.83 1428.96 642.71 1417.52 655.18C1407.46 666.13 1401.53 673.65 1401.53 675.43C1401.53 676.54 1403.48 676.84 1410.77 676.84C1420.38 676.84 1424.45 675.47 1424.45 672.23C1424.45 671.18 1425.27 670.82 1427.15 671.04C1429.77 671.35 1429.85 671.54 1429.56 676.84C1429.4 679.85 1428.8 682.88 1428.23 683.57C1427.48 684.48 1422.41 684.81 1409.35 684.81C1393.61 684.81 1391.42 684.62 1390.86 683.15ZM1662.44 681.23L1657.71 679.77L1657.71 674.87C1657.71 672.18 1658.16 669.7 1658.71 669.36C1660.58 668.21 1663.53 669.93 1665.54 673.33C1669.45 679.95 1679.84 680.03 1684.14 673.47C1686.65 669.64 1687.11 663.73 1685.22 659.74C1683.12 655.33 1679.3 653.13 1672.3 652.31C1667.81 651.78 1666.68 651.29 1666.68 649.86C1666.68 648.55 1668.15 647.65 1672.15 646.48C1682.02 643.61 1687.25 635.82 1684.2 628.51C1682.56 624.59 1680.04 623.01 1675.47 623.02C1669.72 623.05 1667.66 624.12 1665.62 628.12C1663.98 631.32 1663.13 631.98 1660.62 631.98C1657.64 631.98 1657.6 631.92 1657.9 627.25L1658.21 622.51L1664.69 620.25C1676.67 616.05 1690.24 618.54 1693.42 625.53C1696.35 631.95 1693.93 639.31 1687.2 644.45C1685.23 645.95 1683.63 647.48 1683.63 647.87C1683.63 648.25 1685.15 649.29 1687.02 650.18C1690.87 652.01 1695.02 657.09 1695.97 661.13C1697.78 668.76 1691.19 679.14 1682.99 681.6C1677.62 683.21 1668.34 683.04 1662.44 681.23ZM637.96 679.83C637.96 678.16 638.63 677.84 642 677.84C644.95 677.84 646.68 677.18 648.48 675.39C650.92 672.95 650.92 672.9 650.92 652.09C650.92 627.35 650.86 627.19 642.84 631.35C636.68 634.55 635.74 634.61 636.15 631.77C636.38 630.18 639.14 627.95 645.94 623.86C651.15 620.73 656.42 618.13 657.65 618.1L659.89 618.03L659.89 646.28C659.89 672.39 660.03 674.66 661.72 676.19C662.72 677.09 665.07 677.84 666.95 677.85C670.95 677.87 673.39 679.15 672.42 680.72C671.96 681.46 666.17 681.82 654.85 681.82C638.63 681.82 637.96 681.75 637.96 679.83ZM834.99 679.37C826.37 676.3 822.48 668.43 821.66 652.42C820.77 634.96 824.68 622.45 832.4 618.12C835.84 616.18 837.58 615.88 843.36 616.21C851.94 616.69 854.74 618.57 858.76 626.54C861.66 632.3 861.75 632.91 861.75 646.44C861.75 663.33 860.35 668.39 853.96 674.67C847.87 680.64 842.37 682 834.99 679.37ZM846.65 673.78C850.81 670.52 852.65 662.54 852.64 647.93C852.63 629.29 848.97 620.02 841.61 620.02C834.03 620.02 831.84 626.16 831.84 647.43C831.84 660.51 832.17 664.23 833.67 668.12C836.59 675.69 841.5 677.83 846.65 673.78ZM21.93 658.4L21.93 654.91L50.27 654.91C77.96 654.91 78.63 654.96 79.26 656.95C80.76 661.67 79.45 661.89 49.72 661.89L21.93 661.89L21.93 658.4ZM292.07 658.41L292.07 654.91L320.54 654.91L349.01 654.91L348.7 658.15L348.39 661.39L320.23 661.65L292.07 661.92L292.07 658.41ZM1945.25 660.64C1945.46 659.96 1945.84 654.12 1946.08 647.68C1946.39 639.44 1946.19 635.98 1945.41 635.99C1944.1 636.02 1929.84 658.47 1929.84 660.5C1929.84 662.38 1944.66 662.51 1945.25 660.64ZM563.2 655.42L563.2 651.92L591.67 651.92L620.15 651.92L619.83 655.16L619.52 658.4L591.36 658.66L563.2 658.93L563.2 655.42ZM1925.52 534.63C1925.15 534.26 1924.86 525.07 1924.86 514.19L1924.86 494.42L1929.84 494.42L1934.82 494.42L1934.82 513.66C1934.82 527.29 1934.48 533.25 1933.63 534.1C1932.36 535.37 1926.64 535.74 1925.52 534.63ZM83.98 531.64C83.04 531.26 82.74 526.12 82.74 510.73L82.74 490.33L87.97 490.63L93.2 490.93L93.47 510.37C93.72 527.76 93.57 529.93 92.04 531.05C90.33 532.3 86.34 532.59 83.98 531.64ZM351.54 531.64C351.18 531.27 350.88 521.83 350.88 510.65L350.88 490.33L355.61 490.63L360.35 490.93L360.62 510.24C360.81 523.64 360.54 529.97 359.75 530.93C358.59 532.33 352.74 532.84 351.54 531.64ZM610.07 530.33C609.4 529.09 609.11 521.42 609.28 509.65L609.55 490.93L614.54 490.93L619.52 490.93L619.79 510.24C619.98 523.64 619.72 529.97 618.92 530.93C617.15 533.06 611.32 532.67 610.07 530.33ZM1133.05 531.64C1132.68 531.27 1132.39 521.83 1132.39 510.65L1132.39 490.33L1137.12 490.63L1141.86 490.93L1142.13 510.37C1142.37 527.76 1142.22 529.93 1140.69 531.05C1138.87 532.38 1134.16 532.74 1133.05 531.64ZM1402.77 531.64C1401.83 531.26 1401.53 526.12 1401.53 510.73L1401.53 490.33L1406.76 490.63L1411.99 490.93L1412.26 509.77C1412.5 526.25 1412.33 528.84 1410.86 530.45C1409.28 532.2 1405.52 532.75 1402.77 531.64ZM1661.95 531.64C1661.01 531.26 1660.7 526.12 1660.7 510.73L1660.7 490.33L1665.43 490.63L1670.17 490.93L1670.44 510.24C1670.63 523.64 1670.36 529.97 1669.57 530.93C1668.46 532.27 1664.44 532.65 1661.95 531.64ZM1924.86 443.09L1924.86 422.54L1929.59 422.85L1934.33 423.15L1934.33 443.09L1934.33 463.02L1929.59 463.33L1924.86 463.63L1924.86 443.09ZM82.74 440.04L82.74 419.56L87.97 419.86L93.2 420.16L93.47 438.97C93.66 452 93.4 458.2 92.6 459.15C91.95 459.94 89.59 460.53 87.1 460.53L82.74 460.53L82.74 440.04ZM350.88 440.15L350.88 419.66L355.88 419.66L360.89 419.66L360.62 439.85L360.35 460.03L355.61 460.34L350.88 460.64L350.88 440.15ZM609.52 459.31C609.24 458.58 609.13 449.47 609.28 439.07L609.55 420.16L614.81 419.86L620.06 419.55L619.79 439.79L619.52 460.03L614.78 460.34C611.51 460.55 609.87 460.23 609.52 459.31ZM1132.39 440.04L1132.39 419.55L1137.12 419.86L1141.86 420.16L1142.13 438.97C1142.32 452 1142.05 458.2 1141.26 459.15C1140.63 459.91 1138.38 460.53 1136.25 460.53L1132.39 460.53L1132.39 440.04ZM1401.53 440.04L1401.53 419.56L1406.76 419.86L1411.99 420.16L1412.26 438.97C1412.45 452 1412.19 458.2 1411.39 459.15C1410.74 459.94 1408.38 460.53 1405.89 460.53L1401.53 460.53L1401.53 440.04ZM1660.7 440.1L1660.7 419.66L1665.6 419.66L1670.51 419.66L1670.86 438.35C1671.06 448.63 1670.85 457.83 1670.41 458.79C1669.82 460.07 1668.42 460.53 1665.15 460.53L1660.7 460.53L1660.7 440.1ZM1925.57 392.13C1925.18 391.74 1924.86 382.74 1924.86 372.15L1924.86 352.87L1929.86 352.87L1934.87 352.87L1934.6 372.56L1934.33 392.25L1930.3 392.54C1928.09 392.71 1925.96 392.52 1925.57 392.13ZM83.4 389.09C83.03 388.73 82.74 379.51 82.74 368.6L82.74 348.78L87.97 349.08L93.2 349.38L93.47 368.2C93.66 381.23 93.4 387.43 92.6 388.38C91.44 389.78 84.61 390.31 83.4 389.09ZM351.59 389.14C351.2 388.75 350.88 379.51 350.88 368.6L350.88 348.78L355.61 349.08L360.35 349.38L360.35 369.32L360.35 389.26L356.33 389.55C354.11 389.72 351.98 389.53 351.59 389.14ZM609.54 387.51C609.24 386.28 609.11 377.2 609.27 367.33L609.55 349.38L614.54 349.38L619.52 349.38L619.79 368.2C619.98 381.23 619.72 387.43 618.92 388.38C618.3 389.14 616.05 389.76 613.94 389.76C610.78 389.76 609.99 389.36 609.54 387.51ZM1133.05 389.09C1132.68 388.73 1132.39 379.51 1132.39 368.6L1132.39 348.78L1137.12 349.08L1141.86 349.38L1142.13 368.2C1142.32 381.23 1142.05 387.43 1141.26 388.38C1140.09 389.79 1134.25 390.29 1133.05 389.09ZM1402.19 389.09C1401.83 388.73 1401.53 379.51 1401.53 368.6L1401.53 348.78L1406.76 349.08L1411.99 349.38L1412.26 368.2C1412.45 381.23 1412.19 387.43 1411.39 388.38C1410.24 389.78 1403.4 390.31 1402.19 389.09ZM1661.36 389.09C1661 388.73 1660.7 379.51 1660.7 368.6L1660.7 348.78L1665.43 349.08L1670.17 349.38L1671.03 367.18C1672.04 388.19 1671.69 389.76 1665.87 389.76C1663.76 389.76 1661.73 389.46 1661.36 389.09ZM1924.86 301.54L1924.86 280.99L1929.59 281.3L1934.33 281.6L1934.33 301.54L1934.33 321.47L1929.59 321.78L1924.86 322.08L1924.86 301.54ZM82.74 298.49L82.74 278.01L87.97 278.31L93.2 278.61L93.47 297.42C93.66 310.45 93.4 316.65 92.6 317.61C91.95 318.39 89.59 318.98 87.1 318.98L82.74 318.98L82.74 298.49ZM350.88 298.6L350.88 278.11L355.88 278.11L360.89 278.11L360.62 298.3L360.35 318.48L355.61 318.79L350.88 319.09L350.88 298.6ZM609.55 316.79C609.24 315.53 609.11 306.42 609.27 296.55L609.55 278.61L614.81 278.31L620.06 278.01L619.79 298.25L619.52 318.48L614.82 318.79C610.62 319.06 610.06 318.84 609.55 316.79ZM1132.39 298.49L1132.39 278L1137.12 278.31L1141.86 278.61L1142.13 297.42C1142.32 310.45 1142.05 316.65 1141.26 317.61C1140.63 318.36 1138.38 318.98 1136.25 318.98L1132.39 318.98L1132.39 298.49ZM1401.53 298.49L1401.53 278.01L1406.76 278.31L1411.99 278.61L1412.26 297.42C1412.45 310.45 1412.19 316.65 1411.39 317.61C1410.74 318.39 1408.38 318.98 1405.89 318.98L1401.53 318.98L1401.53 298.49ZM1660.7 298.6L1660.7 278.11L1665.55 278.11L1670.4 278.11L1671.03 282.74C1671.81 288.44 1671.69 305.62 1670.82 313L1670.17 318.48L1665.43 318.79L1660.7 319.09L1660.7 298.6ZM827.83 280.05C827.47 279.48 828.34 277.93 829.76 276.61C831.99 274.55 832.34 273.4 832.34 268.22L832.34 262.22L820.13 261.94L807.92 261.66L807.61 258.99C807.38 256.95 810.36 251.74 820.33 236.81L833.36 217.31L837.34 217.31L841.31 217.31L841.31 236.69C841.31 247.34 841.73 256.32 842.23 256.63C842.73 256.94 844.48 256.07 846.11 254.69C847.74 253.32 850.07 252.19 851.29 252.19C853.3 252.19 853.44 252.53 852.8 255.93C851.82 261.16 850.67 262.16 845.68 262.16L841.31 262.16L841.31 268.19C841.31 273.4 841.67 274.55 843.9 276.61C845.32 277.93 846.19 279.48 845.83 280.05C845.46 280.65 841.6 281.1 836.83 281.1C832.06 281.1 828.2 280.65 827.83 280.05ZM1927.85 255.68L1927.85 250.19L1993.89 250.44L2059.92 250.7L2060.24 254.51C2060.82 261.6 2065.24 261.17 1993.02 261.17L1927.85 261.17L1927.85 255.68ZM32.89 252.68L32.89 247.18L61.06 247.44L89.22 247.71L89.53 251.52C90.09 258.29 90.57 258.18 60.19 258.18L32.89 258.18L32.89 252.68ZM354.53 257.51C354.17 257.15 353.87 254.68 353.87 252.03L353.87 247.2L485.2 247.46L616.53 247.71L616.85 251.52C617.44 258.74 628.69 258.18 485 258.18C413.61 258.18 354.9 257.88 354.53 257.51ZM1405.19 257.52C1404.82 257.15 1404.52 254.68 1404.52 252.03L1404.52 247.21L1536.15 247.21L1667.78 247.21L1667.48 252.44L1667.18 257.68L1536.52 257.93C1464.65 258.07 1405.55 257.88 1405.19 257.52ZM831.09 255.93C832.59 254.05 833.45 230.06 832.01 230.54C830.39 231.08 816.45 253.33 816.42 255.43C816.4 256.93 817.38 257.18 823.25 257.18C827.54 257.18 830.47 256.71 831.09 255.93ZM967.2 96.25C953.1 89.68 945.52 74.63 945.6 53.33C945.67 34.05 952.27 20.44 964.88 13.58C969.9 10.84 973.9 10.44 974.6 12.59C974.81 13.21 972.47 15.13 969.41 16.86C958.6 22.96 954.47 33.18 954.46 53.83C954.45 65.31 954.8 68.35 956.82 74.51C959.52 82.75 964.88 89.63 971.04 92.78C974.42 94.5 974.79 95.01 973.88 96.72C973.3 97.8 972.73 98.68 972.61 98.68C972.49 98.67 970.06 97.58 967.2 96.25ZM1019.31 97.92C1017.76 96.37 1019.25 93.93 1023.2 91.54C1028.43 88.37 1032.8 82.62 1035.88 74.91C1037.83 70 1038.12 67.42 1038.15 54.82C1038.2 33.59 1034.67 24.59 1023.47 17.44C1018.91 14.53 1017.15 10.96 1020.28 10.97C1023.25 10.97 1031.68 16 1035.71 20.18C1048.7 33.65 1051.48 59.97 1041.97 79.4C1038.83 85.8 1029.93 94.42 1023.94 96.84C1021.7 97.74 1019.62 98.23 1019.31 97.92ZM988.86 77.47C985.8 75.92 983.89 72.3 983.87 67.97C983.86 65.19 987.76 45.96 989.39 40.74C989.77 39.51 989.03 38.95 986.38 38.45C981.69 37.57 981.94 35.76 987.1 33.37C990.56 31.76 991.63 30.57 992.96 26.91C994.45 22.8 994.89 22.4 998.32 22.11C1001.92 21.81 1002.03 21.89 1001.38 24.47C1001.01 25.94 1000.45 28.44 1000.13 30.02L999.56 32.9L1006.16 32.89C1012.06 32.89 1012.77 33.1 1012.77 34.85C1012.77 37.27 1009.83 38.96 1006.96 38.21C1005.78 37.9 1003.32 37.93 1001.5 38.28L998.18 38.9L995.5 50.6C992.17 65.17 992.03 70.28 994.93 71.83C996.7 72.77 997.71 72.47 1001.32 69.87C1008.58 64.66 1011.66 66.6 1005.54 72.52C1002.18 75.77 996.2 78.76 993.11 78.73C992.14 78.73 990.22 78.16 988.86 77.47ZM878.75 76.84C878.44 76.34 879.45 74.65 880.99 73.1C883.49 70.58 884.35 67.72 888.99 46.35C891.84 33.19 894.17 21.65 894.16 20.69C894.15 19.74 893.25 18.4 892.15 17.71C891.06 17.03 890.16 15.9 890.16 15.21C890.16 14.24 894.93 13.96 911.09 13.96C922.61 13.96 932.02 14.33 932.02 14.79C932.02 17.92 929.52 27.1 928.41 28.01C926.2 29.85 924.37 28.33 923.7 24.12C923.34 21.87 922.38 19.89 921.48 19.55C920.61 19.21 916.37 18.94 912.05 18.94L904.19 18.94L903.23 22.68C900.15 34.68 898.96 42.09 899.93 43.07C900.57 43.7 902.76 43.84 905.54 43.42C909.12 42.89 910.7 41.99 912.84 39.31C914.5 37.23 916.46 35.89 917.82 35.89C920.51 35.89 920.52 35.28 917.79 46.35C915.88 54.09 915.27 55.37 913.33 55.64C911.46 55.91 911.09 55.5 911.09 53.1C911.09 48.96 909.4 47.85 903.08 47.85L897.47 47.85L895.3 58.06C892.62 70.69 892.61 72.28 895.25 74.13C896.41 74.94 897.05 76.08 896.69 76.68C895.87 77.99 879.55 78.14 878.75 76.84Z" fill="#1e2749" fill-rule="evenodd"/>
</svg>
