<?xml version="1.0" encoding="UTF-8"?>
<svg xmlns="http://www.w3.org/2000/svg" viewBox="0 0 2430 747" width="2430" height="747" shape-rendering="geometricPrecision">
<path d="M366.12 744.43C362.19 739.43 312.6 689.25 203.63 580C69.81 445.85 -0 375.2 -0 373.94C-0 373.42 0.52 373 1.15 373C1.78 373 70.74 304.71 154.4 221.24C362.05 14.05 370.28 6 374.44 6C376.81 6 385.76 14.32 388.11 18.7C389.41 21.13 389.27 21.44 385.12 25.01L380.76 28.76L381.15 107.82C381.37 151.3 381.91 187.24 382.35 187.69C382.8 188.13 400.61 188.78 421.93 189.13C448.18 189.56 461.38 190.13 462.84 190.92C465.59 192.39 465.76 197.84 463.16 201.05C461.33 203.31 461.13 203.32 422.41 204.25C401.01 204.76 383.06 205.6 382.53 206.11C381.32 207.27 380.83 577.46 381.91 675.5C382.39 719.1 382.32 744.96 381.71 745.75C381.12 746.52 378.32 747 374.45 747C368.87 747 367.91 746.71 366.12 744.43ZM1219.29 743.13C1212.36 737.66 1179.5 705.54 1104.1 630.55C949.39 476.67 851.95 378.65 851.36 376.31C850.63 373.39 854.76 368.65 862.21 363.86C867.8 360.28 869.98 360.64 872.3 365.51L873.97 369L990.86 369C1094.85 369 1107.9 368.83 1109.03 367.46C1110.04 366.25 1110.17 359.54 1109.64 335.71C1109.27 319.1 1109.35 304.15 1109.8 302.5C1110.57 299.73 1111.02 299.48 1115.7 299.2C1123.74 298.73 1124 299.31 1124.02 317.82C1124.03 335.69 1124.9 362.42 1125.57 365.71C1125.88 367.26 1126.97 368.09 1129.26 368.5C1131.04 368.83 1151.03 368.96 1173.69 368.8L1214.87 368.5L1217.82 365.68C1221.68 361.98 1226.86 362.18 1228.73 366.12C1230.31 369.42 1230.82 413.09 1231.51 604.25L1232.02 747L1228.1 747C1225.06 747 1223.08 746.13 1219.29 743.13ZM2048.92 741.75C2043.33 735.07 1899.29 590.2 1778.73 470C1727.7 419.12 1685.96 376.76 1685.97 375.85C1686.01 373.7 1696.54 364.09 1700.82 362.3C1705.19 360.48 1707.28 361.27 1709.3 365.51L1710.97 369L1875.73 368.92C1966.36 368.87 2043.08 368.51 2046.24 368.11C2050.22 367.62 2052.61 366.72 2054.03 365.2C2055.59 363.52 2057.22 363 2060.9 363L2065.73 363L2066.33 542.75C2066.71 657.6 2067.3 725.74 2067.97 731.46C2068.71 737.84 2068.7 741.38 2067.93 743.71C2066.85 747 2066.84 747 2060.08 747L2053.31 747L2048.92 741.75ZM1216.5 553.7C1216.5 462.84 1216.14 387.2 1215.7 385.62L1214.9 382.73L1170.2 383.47C1145.61 383.87 1125.44 384.27 1125.36 384.35C1125.07 384.66 1124.71 416.13 1124.85 429.25C1124.97 440.09 1125.29 443 1126.36 443C1127.68 443 1133.2 436.46 1143.5 422.72C1146.44 418.8 1149.26 416.04 1150.33 416.02C1152.03 416 1152 416.28 1149.9 419.75C1143.9 429.69 1132.37 447.84 1130.29 450.62C1129.01 452.34 1126 457.51 1123.61 462.12C1121.22 466.73 1118.56 470.64 1117.68 470.81C1116.65 471.02 1115.23 469.46 1113.6 466.31C1112.23 463.67 1107.94 457 1104.07 451.5C1087.18 427.47 1081.9 418.75 1083.38 417.3C1084.52 416.18 1092.77 425.4 1100.13 436.02C1103.54 440.96 1106.69 445 1107.13 445C1109.88 445 1110.27 440.01 1109.56 413.68C1109.17 398.88 1108.63 386.2 1108.37 385.52C1107.79 384.02 1074.11 383.32 955.75 382.37C905.33 381.96 876 382.07 876 382.68C876 383.83 984.01 492.17 1116.91 624.31C1188.44 695.44 1214.57 720.83 1215.39 720.01C1216.2 719.2 1216.5 673.74 1216.5 553.7ZM2051.5 552.5C2051.5 417.32 2051.26 385.86 2050.2 384.8C2048.26 382.86 1713 382.31 1713 384.24C1713 384.96 1788.6 461.12 1881 553.48C2015.48 687.89 2049.25 721.15 2050.25 720.15C2051.24 719.16 2051.5 684.36 2051.5 552.5ZM366.46 718.75C367.28 716.15 367.7 474.91 367.11 343.8C366.62 233.65 366.25 206.85 365.2 205.8C363.43 204.03 316.88 203.9 316.28 205.66C316.07 206.29 321.04 210.22 327.34 214.37C333.63 218.53 340.45 223.5 342.49 225.42C346.13 228.86 346.73 231.61 343.78 231.38C341.85 231.24 312.2 211.37 305 205.39C301.98 202.88 298.68 200.17 297.69 199.37C293.81 196.25 295.87 193.96 313.5 181.79C337.61 165.14 344.67 160.78 346.71 161.26C349.54 161.92 338.43 172.01 325.77 180.28C319.82 184.17 315.12 187.84 315.32 188.43C315.57 189.16 323.36 189.41 340.09 189.22C360.02 188.98 364.77 188.66 365.97 187.45C367.24 186.18 367.51 175.82 367.84 114.01C368.06 74.43 367.93 39.56 367.55 36.52C366.98 31.96 366.52 31 364.92 31C362.24 31 20 372.88 20 375.55C20 378.33 362.19 720 364.97 720C365.57 720 366.24 719.44 366.46 718.75ZM401 714C397.38 710.38 398.38 706.77 404.54 701.14C418.11 688.74 426.67 697.49 413.33 710.13C409.44 713.82 406 716 404.07 716C403.48 716 402.1 715.1 401 714ZM1250.75 714.92C1246.27 712.31 1251.19 702.32 1259.3 697.57C1264.58 694.47 1266.37 694.37 1269.02 697.02C1270.71 698.71 1270.85 699.41 1269.89 701.27C1267.8 705.3 1261.74 712.19 1258.59 714.11C1255.12 716.22 1253.31 716.41 1250.75 714.92ZM2087.65 714.17C2081.21 707.05 2094.85 691.94 2104.42 695.61C2107.95 696.96 2104.5 704.39 2097.14 711.27C2091.59 716.46 2090.13 716.91 2087.65 714.17ZM438.2 678.8C436.28 676.88 436.77 670.14 439.07 666.91C441.26 663.82 448.66 659 451.2 659C452.04 659 453.91 659.93 455.36 661.07C457.75 662.95 457.87 663.36 456.69 665.63C455.2 668.47 442.23 680 440.52 680C439.9 680 438.86 679.46 438.2 678.8ZM2123.28 678.75C2120.17 674.73 2121.22 670.46 2126.7 664.81C2130.95 660.44 2135.04 658.54 2138.41 659.39C2144.31 660.87 2142.15 666.58 2132.35 675.38C2127.05 680.14 2124.95 680.92 2123.28 678.75ZM1287.2 677.8C1282.37 672.97 1290.99 660.85 1300.35 659.33C1303.51 658.82 1304.08 659.04 1304.86 661.12C1306.09 664.39 1304.37 667.42 1297.66 673.76C1292.11 679.01 1289.44 680.04 1287.2 677.8ZM474.75 641.92C473.55 641.22 473 639.66 473 636.95C473 628.18 487.39 618.86 491.3 625.1C492.82 627.53 491.34 631.62 487.3 636.09C483.94 639.81 479.24 643.04 477.3 642.97C476.86 642.95 475.71 642.48 474.75 641.92ZM1323.2 641.8C1322.54 641.14 1322 639.11 1322 637.3C1322 634.71 1323.04 632.91 1326.82 629C1331.04 624.61 1332.13 624 1335.69 624C1341.04 624 1342.66 625.87 1340.59 629.68C1338.37 633.79 1336 636.49 1331.61 639.94C1327.46 643.21 1325.13 643.73 1323.2 641.8ZM2159.2 641.8C2155.49 638.09 2160.09 628.59 2167.28 625.11C2177.84 620 2181.06 624.53 2173.71 634.16C2168.21 641.38 2162.03 644.63 2159.2 641.8ZM1980.5 615.59C1973.93 613.97 1970.53 612.11 1964.6 606.88C1953.8 597.37 1949.55 586.67 1950.19 570.62C1950.54 561.77 1950.99 559.67 1953.76 553.93C1958.42 544.27 1963.79 538.71 1972.7 534.31C1979.72 530.84 1980.89 530.57 1988.88 530.62C2010.03 530.76 2023.22 538.42 2031.48 555.37C2037.7 568.13 2037.89 579.69 2032.07 591.5C2028.46 598.84 2020.2 607.52 2013.22 611.3C2003.86 616.37 1990.65 618.1 1980.5 615.59ZM510.49 606.34C507.27 603.13 506.8 600.06 508.98 596.53C511.74 592.07 517.88 588 521.87 588C526.11 588 529 589.6 529 591.94C529 593.7 514.73 608 512.97 608C512.52 608 511.4 607.26 510.49 606.34ZM2195.57 606.43C2189.77 600.62 2202.62 584.84 2210.98 587.49C2212.09 587.85 2213.29 589.31 2213.65 590.75C2214.23 593.04 2213.46 594.17 2207.72 599.62C2199.36 607.54 2197.64 608.5 2195.57 606.43ZM1358.61 605.42C1355.9 598.37 1363.01 589.35 1372.81 587.39C1375.51 586.85 1376.1 587.1 1376.87 589.13C1378.09 592.39 1376.36 595.42 1369.66 601.76C1363.96 607.15 1359.8 608.53 1358.61 605.42ZM2003.67 602.03C2009.42 599.5 2017.35 592.07 2020.24 586.5C2023.45 580.32 2023.76 569.98 2020.96 562.56C2017.98 554.67 2011.28 547.92 2004.04 545.51C1993.1 541.88 1976.72 545.11 1970.39 552.15C1965.18 557.94 1962.67 564.03 1962.2 572.03C1961.81 578.87 1962.07 580.48 1964.43 585.64C1971.85 601.89 1988.35 608.79 2003.67 602.03ZM547.22 570.44C544.08 568.25 544.24 562.7 547.58 557.88C553.59 549.21 565.76 548.86 563.61 557.42C562.92 560.18 552.23 572 550.42 572C549.89 572 548.44 571.3 547.22 570.44ZM1395.2 569.8C1391.91 566.51 1395.41 557.76 1401.52 553.99C1405.51 551.52 1411.73 551.6 1413.32 554.13C1415.33 557.34 1402.9 571 1397.97 571C1397.11 571 1395.86 570.46 1395.2 569.8ZM2232.25 569.97C2229.37 568.81 2229.21 563.72 2231.93 559.59C2236.31 552.95 2248.04 548.32 2249.67 552.59C2250.97 555.97 2243.57 566.62 2237.9 569.55C2236.36 570.35 2234.96 570.97 2234.8 570.94C2234.63 570.9 2233.49 570.47 2232.25 569.97ZM580.95 532.37C578.26 525.29 587.93 514.37 596.15 515.19C601.2 515.69 601.9 518.1 598.44 523.09C594.92 528.18 586.59 535 583.89 535C582.72 535 581.55 533.96 580.95 532.37ZM1432.2 533.8C1431.54 533.14 1431 530.7 1431 528.38C1431 524.97 1431.61 523.54 1434.16 520.99C1439.13 516.03 1446.35 514.31 1448.98 517.47C1450.61 519.44 1447.73 524.11 1441.05 530.36C1435.89 535.18 1434.23 535.83 1432.2 533.8ZM2267.2 533.8C2264.89 531.49 2266.36 526.5 2271.3 519.81C2275.31 514.38 2282.97 513.65 2285.18 518.49C2286.63 521.68 2284.94 524.28 2277.86 529.67C2271.65 534.42 2268.89 535.49 2267.2 533.8ZM618.54 497.65C617.09 496.59 616.81 495.45 617.24 492.26C618.26 484.62 625.16 478.5 632 479.16C635 479.45 635.55 479.9 635.82 482.34C636.25 486.01 632.26 492.08 626.83 496.01C622.19 499.37 621.17 499.57 618.54 497.65ZM1468.2 497.8C1467.54 497.14 1467 494.92 1467 492.88C1467 488.38 1470.48 483.82 1476.09 480.96C1480.69 478.61 1483.32 478.48 1485.02 480.52C1487.73 483.79 1480.53 493.61 1472.32 497.87C1469.62 499.26 1469.66 499.26 1468.2 497.8ZM1840 498.14C1837.95 497.55 1837.45 496.71 1837.22 493.46C1836.97 489.91 1838 487.9 1847.22 473.99C1852.87 465.46 1858.36 456.57 1859.4 454.24C1861.27 450.07 1861.27 449.93 1859.4 445.76C1858.36 443.42 1853.82 435.98 1849.31 429.2C1844.81 422.43 1840.17 414.91 1838.99 412.49C1836.25 406.82 1836.63 402.82 1840 401.89C1841.38 401.51 1853.12 401.15 1866.1 401.1C1889.01 401 1889.8 401.07 1893.01 403.25C1899.58 407.72 1923 444.11 1923 449.86C1923 454.57 1899.27 491.16 1893.22 495.78L1889.66 498.5L1866.08 498.68C1853.11 498.78 1841.38 498.54 1840 498.14ZM2303.75 497.92C2301.59 496.66 2301.46 491.95 2303.47 488.06C2305.42 484.29 2312.74 479 2316.01 479C2317.44 479 2319.49 479.65 2320.56 480.44C2322.47 481.85 2322.46 481.96 2320.03 486.59C2317.67 491.09 2309.1 499.03 2306.66 498.97C2306.02 498.95 2304.71 498.48 2303.75 497.92ZM1955.32 492.33C1954.13 492.08 1952.64 491.27 1952.02 490.52C1951.4 489.78 1950.48 482.72 1949.97 474.83C1948.68 454.95 1948.73 404.37 1950.04 401.93C1951.02 400.09 1952.4 400 1978.32 400C2003.6 400 2005.86 399.86 2009.5 398C2011.66 396.9 2014.12 396 2014.96 396.01C2017.95 396.03 2027.14 402.15 2033.38 408.29C2040.79 415.57 2043.45 420.09 2042.51 423.83C2041.81 426.59 2018.42 450 2016.35 450C2015.71 450 2012.8 448.76 2009.89 447.25C2005.65 445.05 2002.94 444.43 1996.39 444.15L1988.2 443.8L1987.63 452.15C1987.32 456.74 1986.79 466.79 1986.46 474.48C1986.14 482.17 1985.42 489 1984.86 489.66C1984.31 490.33 1981.53 491.11 1978.68 491.4C1969.79 492.31 1957.6 492.79 1955.32 492.33ZM1884.91 484.25C1891.49 479.43 1907 455.03 1907 449.49C1907 447.84 1905.81 444.24 1904.36 441.49C1900.94 435 1891.06 421.33 1887.03 417.5C1883.89 414.51 1883.81 414.5 1870.44 414.17C1854.15 413.78 1854.24 413.62 1862.85 426.65C1872.29 440.94 1873.76 443.47 1875.01 447.64C1876.55 452.78 1875.4 455.55 1866.52 468C1858.19 479.69 1856.38 483.54 1858.19 485.72C1860.15 488.09 1881.26 486.92 1884.91 484.25ZM1971 478.02C1972.26 477.22 1972.5 473.53 1972.5 455.09C1972.5 438.42 1972.81 432.79 1973.8 431.8C1974.75 430.84 1980.95 430.36 1997.3 429.98C2021.37 429.41 2023.04 429.03 2026.05 423.41C2027.23 421.21 2027.21 420.46 2025.93 418.17C2024.55 415.73 2023.71 415.43 2015.96 414.71C2006.21 413.79 1964.5 414.17 1963.49 415.18C1962.57 416.1 1962.31 475.05 1963.22 477.25C1964.01 479.17 1968.49 479.61 1971 478.02ZM2339.63 462.15C2337.17 459.43 2337.65 456.06 2341.25 450.77C2345.36 444.73 2349.95 442.32 2354.08 444.03C2358.51 445.87 2357.93 449.14 2352.08 455.31C2349.37 458.16 2345.84 461.28 2344.21 462.23C2341.41 463.87 2341.19 463.87 2339.63 462.15ZM653.92 460.86C652.01 457.28 653.47 450.87 656.9 447.8C661.24 443.92 667.45 442.41 670.58 444.46C671.91 445.33 673 446.63 673 447.34C673 450.51 659.74 463 656.39 463C655.66 463 654.55 462.04 653.92 460.86ZM1504.2 461.8C1502.22 459.82 1502.75 452.59 1505.09 449.61C1507.93 446 1514.63 442.69 1517.59 443.43C1523.41 444.89 1522.52 450.32 1515.33 457.13C1509.45 462.7 1506.39 463.99 1504.2 461.8ZM691.22 425.44C686.35 422.03 689.84 412.71 697.35 409.07C704.89 405.42 709.04 406.73 707.64 412.3C706.81 415.62 700.08 423.91 696.86 425.57C693.49 427.31 693.91 427.32 691.22 425.44ZM1540.56 425.42C1539.7 424.56 1539 422.24 1539 420.26C1539 413.02 1552.41 403.98 1556.74 408.31C1558.06 409.63 1558.11 410.33 1557.02 412.94C1555.46 416.73 1549.14 423.36 1545.12 425.44C1542.42 426.84 1541.98 426.83 1540.56 425.42ZM2375.7 425.85C2370.58 422.99 2376.92 410.67 2384.81 408.15C2393.89 405.25 2396.7 409.34 2390.75 416.79C2385.02 423.97 2378.91 427.65 2375.7 425.85ZM726.67 391.33C724.71 389.38 727.74 369.84 730.4 367.17C733.58 363.99 745.22 369.22 745.8 374.09C746.17 377.22 743.53 380.65 735.82 387.07C730.12 391.82 728.09 392.76 726.67 391.33ZM2411.34 390.44C2410.44 388.09 2411.66 376.13 2413.27 371.56C2415.31 365.77 2416.9 365.16 2423.73 367.51L2429.5 369.5L2429.8 375.12C2430.07 380.38 2429.88 380.92 2426.9 383.43C2425.14 384.91 2421.06 387.46 2417.83 389.09C2412.73 391.66 2411.88 391.84 2411.34 390.44ZM1575.67 390.33C1574.57 389.24 1574.9 384.69 1576.62 377.09C1578.58 368.4 1580.64 365.44 1584.14 366.32C1588.05 367.3 1593.47 371.37 1593.79 373.57C1594.63 379.32 1579.06 393.72 1575.67 390.33ZM2387.39 347.75C2381.06 343.5 2377.81 338.65 2378.2 334.03C2378.48 330.73 2378.72 330.51 2381.77 330.65C2385.7 330.83 2391.04 334.69 2395.07 340.25C2398.46 344.93 2398.82 348.49 2396.07 349.96C2393.26 351.47 2392.72 351.33 2387.39 347.75ZM702.9 348.01C690.47 341.44 687.93 326 700.11 331.05C704.08 332.69 713 342.61 713 345.38C713 350.17 708.97 351.22 702.9 348.01ZM1554.5 348.81C1547.88 345.07 1542 338 1542 333.77C1542 327.62 1549.59 329.58 1556.96 337.64C1561.99 343.15 1563.13 346.47 1560.8 348.8C1559.32 350.28 1557.12 350.29 1554.5 348.81ZM890.42 344.52C888.48 341.56 889.48 337.68 893.56 332.33C896.09 329.01 902.56 325 905.39 325C906.79 325 911 329.49 911 330.99C911 333.71 895.91 347 892.83 347C892.4 347 891.31 345.88 890.42 344.52ZM1726.56 344.78C1725.7 343.56 1725 341.73 1725 340.73C1725 336.67 1729.78 330.62 1736.19 326.55C1738.72 324.95 1739.09 324.95 1742.44 326.54C1744.54 327.54 1746 328.95 1746 330C1746 332.65 1737.66 342.26 1733.17 344.79C1728.34 347.5 1728.46 347.5 1726.56 344.78ZM1218.68 334.25C1218.43 333.84 1218.07 328.77 1217.87 323L1217.5 312.5L1221.19 312.19C1223.92 311.97 1225.45 312.45 1227.04 314.04C1228.97 315.97 1229.16 317.07 1228.84 324.19C1228.55 330.66 1228.11 332.45 1226.55 333.59C1224.5 335.08 1219.42 335.51 1218.68 334.25ZM2056.13 333.65C2054.78 332.04 2053.01 322.46 2053.01 316.77C2053 313.57 2053.38 312.94 2055.64 312.38C2057.09 312.01 2059.45 312.12 2060.88 312.63C2063.69 313.62 2064.42 316.33 2065.15 328.63L2065.5 334.5L2061.41 334.8C2058.76 334.99 2056.91 334.59 2056.13 333.65ZM667.88 313.21C660.89 309.56 656 303.26 656 297.92C656 294.37 656.24 294 658.6 294C667.69 294 680.49 309.09 675.99 314.51C674.35 316.49 674.08 316.45 667.88 313.21ZM1515.39 311.75C1509.06 307.5 1505.81 302.65 1506.2 298.03C1506.49 294.64 1506.65 294.5 1510.3 294.62C1515.28 294.77 1520.75 299.1 1523.88 305.36C1525.85 309.28 1526.07 310.54 1525.16 312.56C1523.66 315.84 1521.17 315.63 1515.39 311.75ZM2353.5 313.17C2343.65 307.04 2337.45 295.08 2343.67 294.19C2348.65 293.48 2360.1 302.57 2361.56 308.4C2363.09 314.48 2359.25 316.75 2353.5 313.17ZM928.22 309.44C922.69 305.57 927.37 295.34 936.86 290.54C942.85 287.5 947.66 290.88 944.94 296.21C943.75 298.55 932.01 311 931 311C930.7 311 929.44 310.3 928.22 309.44ZM1763.6 308.9C1758.73 305.07 1760.93 298.22 1768.69 293.08C1775.32 288.69 1777.92 288.18 1780.08 290.85C1781.03 292.03 1781.6 293.82 1781.33 294.84C1780.53 297.91 1772.22 307.83 1769.11 309.44C1766.42 310.83 1766.01 310.79 1763.6 308.9ZM2057.72 284.25C2055.17 281.43 2053.95 277.16 2053.31 268.82L2052.7 261L2057.82 261C2064.35 261 2065 262.15 2065 273.78C2065 281.14 2064.68 282.98 2063.17 284.35C2060.85 286.45 2059.7 286.43 2057.72 284.25ZM1222.5 284.1L1218.5 283.5L1217.86 272.5C1217.51 266.45 1217.36 261.35 1217.53 261.16C1217.7 260.98 1220.24 261.2 1223.17 261.67L1228.5 262.52L1228.5 273.43C1228.5 279.91 1228.09 284.41 1227.5 284.52C1226.95 284.62 1224.7 284.43 1222.5 284.1ZM632.42 276.6C621.9 271.73 615.63 259.06 623.3 258.18C629.54 257.46 641 267.77 641 274.11C641 278.52 638.27 279.31 632.42 276.6ZM2315.32 276.01C2308.11 270.7 2302.74 260.52 2306.06 258.46C2306.65 258.1 2308.71 258.1 2310.65 258.46C2314.99 259.28 2324.53 268.19 2325.57 272.4C2327.19 278.91 2321.83 280.79 2315.32 276.01ZM1480.97 276.35C1473.74 271.52 1469 265.27 1469 260.55C1469 258.38 1469.45 258 1472.04 258C1476.34 258 1482.27 261.3 1485.94 265.72C1490.01 270.64 1490.72 273.54 1488.46 276.04C1486.3 278.43 1484.22 278.52 1480.97 276.35ZM962.93 271.88C960.6 267.52 964.14 259.92 970.27 256.15C975.19 253.11 978.44 252.58 980.36 254.5C983.39 257.54 982.31 260.48 975.63 267.4C968.68 274.59 965.07 275.87 962.93 271.88ZM1797.94 271.89C1796.15 268.53 1797.66 263.73 1801.76 259.81C1808.01 253.84 1813.2 252.34 1816.43 255.57C1818.88 258.02 1818.37 259.43 1812.85 265.47C1805.27 273.76 1800.13 275.98 1797.94 271.89ZM598.15 242.43C590.04 239 583 230.97 583 225.13C583 222.26 583.27 222 586.25 222C593.49 222.01 605 232.32 605 238.8C605 239.84 604.21 241.4 603.25 242.27C601.71 243.65 601.1 243.67 598.15 242.43ZM1447.5 242.81C1444.39 241.15 1436.99 233.8 1435.42 230.8C1434.64 229.31 1434 226.73 1434 225.05C1434 222.26 1434.28 222 1437.35 222C1443.88 222 1453.03 231.23 1453.36 238.14C1453.54 242.01 1450.51 244.43 1447.5 242.81ZM2279.13 239.01C2273.3 234.4 2268 227.64 2268 224.82C2268 219.8 2277.18 222.12 2284.32 228.93C2288.76 233.17 2289.31 234.17 2289.4 238.09C2289.49 242.12 2289.28 242.53 2286.9 242.8C2285.09 243.01 2282.76 241.88 2279.13 239.01ZM998.85 235.58C995.69 228.63 1004.18 218 1012.88 218C1020.5 218 1017.47 228.02 1007.72 235.09C1002.82 238.64 1000.31 238.77 998.85 235.58ZM1835.49 236.62C1834.24 235.7 1833.6 234.01 1833.6 231.62C1833.6 227.34 1837.79 222.45 1844.51 218.88C1848.6 216.72 1848.88 216.69 1851.39 218.33C1855.44 220.99 1854.62 223.49 1847.21 231.06C1840.18 238.25 1838.69 238.95 1835.49 236.62ZM2058.78 234.39C2055.46 232.65 2053 225.27 2053 217.02C2053 210.78 2054.12 209 2058.05 209C2062.19 209 2063.9 211.85 2065.02 220.58C2066.61 233.04 2064.62 237.45 2058.78 234.39ZM1223.26 234.23C1219.09 233.54 1218 230.42 1218 219.15L1218 208.74L1222.04 209.28C1228.6 210.16 1229 210.92 1229 222.59C1229 233.75 1228.35 235.08 1223.26 234.23ZM559.97 205.35C552.73 200.51 548 193.66 548 188.04C548 185.26 548.28 185 551.35 185C557.66 185 569 195.89 569 201.95C569 206.92 564.73 208.53 559.97 205.35ZM2241.06 202.15C2232.5 193.6 2230.57 186.79 2236.53 186.2C2240.31 185.83 2246.71 190.24 2251 196.15C2255.61 202.53 2254.69 207 2248.75 207C2246.68 207 2244.58 205.68 2241.06 202.15ZM1408.28 204.03C1406.51 202.95 1403.24 200.19 1401.02 197.9C1394.72 191.41 1394.26 186 1400.01 186C1404.32 186 1410.26 189.28 1413.86 193.65C1421.12 202.46 1417.31 209.54 1408.28 204.03ZM1034.85 199.57C1032.59 194.61 1036.97 186.92 1044.17 183.22C1049.46 180.49 1052.15 180.85 1053.81 184.48C1054.8 186.65 1054.43 187.51 1050.46 192.39C1042.76 201.85 1037.08 204.46 1034.85 199.57ZM1870.57 200.43C1866.29 196.14 1871.15 187.91 1880.83 183.05C1884.86 181.03 1885.33 180.99 1887.58 182.46C1891.49 185.02 1890.56 187.65 1883.1 195.1C1876.03 202.17 1873.43 203.28 1870.57 200.43ZM1221.5 183.12C1218.6 182.51 1218.47 182.23 1217.65 175.2C1217.18 171.18 1217.18 165.8 1217.65 163.2C1218.44 158.86 1218.75 158.48 1221.7 158.19C1223.88 157.98 1225.53 158.53 1226.94 159.94C1228.74 161.74 1229 163.24 1229 171.8C1229 178.09 1228.57 182.03 1227.8 182.8C1226.51 184.09 1226.11 184.11 1221.5 183.12ZM2059.23 183.31C2054.98 182.46 2053.5 178.52 2053.5 168.04L2053.5 158.5L2057.92 158.71C2064.8 159.03 2065.5 160.33 2065.5 172.79C2065.5 184.46 2065.44 184.55 2059.23 183.31ZM524.17 169.4C516.22 165.44 509.04 155.59 510.58 150.75C511.49 147.88 516.95 149.02 523.69 153.5C532.11 159.08 535.41 166.51 531.18 170.34C529.48 171.87 529.02 171.81 524.17 169.4ZM1376 171.21C1370.01 169.23 1361 158.54 1361 153.41C1361 150.2 1361.2 150 1364.39 150C1372.36 150 1383.45 162.05 1381.12 168.18C1380.07 170.96 1378.33 171.98 1376 171.21ZM2207.13 167.01C2198.28 160.01 2193.61 151.86 2197.58 150.33C2202.06 148.61 2214.33 156.55 2216.95 162.87C2220.41 171.24 2215.24 173.42 2207.13 167.01ZM1908.31 166.16C1906.76 165.15 1905 161.37 1905 159.07C1905 153.85 1918.25 144.09 1923.53 145.42C1928.4 146.64 1926.16 152.62 1917.83 160.61C1912.27 165.94 1910.01 167.26 1908.31 166.16ZM1071.65 165.24C1071.39 164.83 1070.87 162.8 1070.48 160.74C1069.59 156.01 1071.22 153.37 1077.6 149.14C1083.14 145.47 1087.43 145.06 1089.02 148.04C1090.69 151.15 1089.48 153.32 1082.42 159.93C1076.5 165.46 1072.89 167.25 1071.65 165.24ZM488.5 133.35C484.33 131.16 476.34 123.24 474.97 119.93C473.37 116.07 475.13 113 478.96 113C484.38 113 497 125.15 497 130.38C497 134.91 493.69 136.07 488.5 133.35ZM1337.12 132.74C1334.71 131.51 1330.75 128.29 1328.32 125.59C1324.79 121.66 1323.96 120.05 1324.2 117.59C1324.49 114.62 1324.68 114.5 1329.07 114.55C1334.45 114.61 1338.75 117.29 1343.09 123.28C1346.14 127.49 1346.83 131.77 1344.8 133.8C1343.15 135.45 1342.17 135.31 1337.12 132.74ZM2171.39 132.17C2166.38 128.54 2161 120.6 2161 116.83C2161 114.47 2161.42 114 2163.54 114C2169.46 114 2180.15 122.77 2181.68 128.88C2183.18 134.84 2177.56 136.64 2171.39 132.17ZM1220.18 131.13C1218.03 129.77 1216.94 123.02 1217.61 115.28C1218.09 109.62 1218.61 107.94 1219.98 107.51C1222.76 106.62 1226.95 108.73 1228.02 111.55C1229.42 115.24 1229.26 129.34 1227.8 130.8C1226.42 132.18 1222.12 132.37 1220.18 131.13ZM2054.88 129.78C2054.23 128.57 2053.48 123.4 2053.21 118.31L2052.73 109.05L2055.62 107.94C2061.98 105.47 2065.84 111.13 2065.94 123.05C2066.01 130.65 2065.09 132 2059.84 132C2056.97 132 2055.79 131.47 2054.88 129.78ZM1107.2 129.8C1102.62 125.22 1110.97 111.55 1119.7 109.36C1122.47 108.67 1127 111.34 1127 113.67C1127 114.56 1124.95 117.68 1122.45 120.61C1115.53 128.71 1109.65 132.25 1107.2 129.8ZM1941.92 127.29C1939.77 121.63 1946.38 111.92 1954.05 109.48C1956.63 108.66 1962 111.65 1962 113.9C1962 114.92 1958.96 118.96 1955.25 122.88C1950.04 128.37 1947.87 130 1945.72 130C1943.63 130 1942.7 129.34 1941.92 127.29ZM1300.83 97.11C1294.64 93.18 1290 86.63 1290 81.8C1290 78.16 1290.14 78 1293.35 78C1297.01 78 1303.22 81.92 1306.84 86.53C1309.68 90.14 1309.86 97.47 1307.14 98.93C1305.69 99.7 1304.27 99.29 1300.83 97.11ZM2139.29 98.48C2134.88 96.63 2125.29 87.09 2124.46 83.74C2122.94 77.59 2129.1 76.11 2135.85 81C2138.13 82.66 2141.34 85.87 2143 88.15C2148.28 95.45 2146.16 101.37 2139.29 98.48ZM449.46 95.8C443.21 91.6 440 86.86 440 81.85C440 78.15 440.13 78 443.35 78C450.12 78 461.4 89.3 460.8 95.47C460.35 99.99 455.9 100.12 449.46 95.8ZM1143.1 90.85C1141.41 86 1141.74 84.37 1145.25 80.37C1148.93 76.17 1156.1 72.58 1158.98 73.49C1164.04 75.1 1162.04 80.84 1153.66 88.76C1147.19 94.87 1144.67 95.37 1143.1 90.85ZM1978.43 91.54C1976.11 88 1977.35 84.05 1982.29 79.22C1988.92 72.76 1994.61 71.54 1997.04 76.08C1998.54 78.88 1995.88 83.9 1989.95 89.45C1984.33 94.71 1980.92 95.33 1978.43 91.54ZM1221.28 79.98C1220.06 79.49 1218.85 78.05 1218.58 76.79C1217.36 70.89 1216.98 64.96 1217.59 61.16C1218.23 57.15 1218.39 57 1221.94 57C1228.48 57 1229.52 58.61 1229.37 68.46C1229.27 75.18 1228.85 77.5 1227.47 79.04C1225.52 81.18 1224.62 81.32 1221.28 79.98ZM2056 79.71C2053.66 78.53 2053.48 77.89 2053.21 69.73C2052.86 59.27 2053.79 57 2058.38 57C2063.4 57 2065.04 59.55 2065.71 68.37C2066.56 79.54 2063.27 83.38 2056 79.71ZM2099.74 60.05C2090.11 53.94 2085.57 42.95 2092.36 42.17C2096.44 41.71 2100.46 43.66 2104.42 48.05C2108.41 52.46 2110.43 58.33 2108.92 61.14C2107.53 63.75 2105.12 63.46 2099.74 60.05ZM415.5 60.31C407.55 56.06 404.02 51.43 404.01 45.25C404 41.07 404.06 41 407.44 41C410.23 41 412.02 42.05 416.82 46.49C424.15 53.28 426.06 57.17 423.48 60.03C421.34 62.39 419.5 62.46 415.5 60.31ZM1264.31 59.92C1259.3 57.45 1252 49.83 1252 47.09C1252 44.31 1254.68 42 1257.92 42C1261.76 42 1268.35 47.03 1271.45 52.33C1274.18 56.98 1274.04 59.37 1270.95 61.03C1268.65 62.26 1269.2 62.35 1264.31 59.92ZM1179.64 57.82C1177.39 56.56 1177.56 51.78 1180.03 46.95C1182.33 42.43 1189.18 37 1192.58 37C1194.93 37 1198 39.36 1198 41.17C1198 43.85 1194.29 49.45 1189.91 53.39C1184.6 58.16 1182.15 59.22 1179.64 57.82ZM2013.81 55.47C2011.91 51.3 2015.41 44.26 2021.39 40.25C2026.87 36.57 2029.94 36.17 2032.35 38.83C2034.94 41.7 2034.37 43.43 2028.85 49.47C2021.02 58.04 2015.91 60.08 2013.81 55.47ZM2055.04 28.81C2052.28 25.85 2048.75 16.13 2049.44 13.38C2050.31 9.93 2054.94 5 2057.32 5C2062.42 5 2074.4 16.23 2073.79 20.44C2073.5 22.43 2060.96 31 2058.33 31C2057.64 31 2056.16 30.02 2055.04 28.81ZM1218.9 27.32C1212.32 20.17 1211.28 14.86 1215.28 8.9C1217.08 6.22 1218.35 5.43 1221.26 5.19C1224.59 4.91 1225.55 5.47 1231.04 10.81C1236.69 16.3 1237.11 17.02 1236.82 20.62C1236.53 24.16 1236.08 24.7 1231.73 26.78C1223.99 30.48 1221.89 30.57 1218.9 27.32Z" fill="#1e2749" fill-rule="evenodd"/>
</svg>
