<?xml version="1.0" encoding="UTF-8"?>
<svg xmlns="http://www.w3.org/2000/svg" viewBox="0 0 716 345" width="716" height="345" shape-rendering="geometricPrecision">
<path d="M84.67 308.67L62.5 308.5L62.39 307.75C62.33 307.34 62.33 306.97 62.39 306.92C62.45 306.88 71.72 306.77 82.98 306.67L103.46 306.5L103.82 304.85C104.11 303.44 104.38 303.05 105.58 302.24L107 301.29L107 227.81L107 154.33L120.1 154.33C129.84 154.33 133.3 154.23 133.6 153.93C133.91 153.63 134 141.34 134.01 100.68C134.01 71.62 134.14 47.63 134.29 47.39C134.45 47.14 134.93 46.99 135.37 47.05L136.17 47.17L136.25 76.58L136.34 106L162.15 106C178.2 106 188.04 105.88 188.16 105.68C188.27 105.51 188.35 96.74 188.34 86.21C188.32 69.15 188.38 67 188.85 66.53C189.33 66.05 194.69 66 245.44 66.01C280.15 66.01 301.69 66.13 302 66.33C302.42 66.59 302.53 68.43 302.67 78.33L302.83 90.02L319.5 90.09C334.85 90.16 336.17 90.21 336.27 90.73C336.33 91.09 336 91.49 335.35 91.83C334.44 92.3 332.45 92.35 318.49 92.26L302.67 92.17L302.67 154.54L302.67 216.91L304.25 216.13C308.44 214.08 313.17 215.87 315.13 220.25L315.77 221.67L343.65 221.67C364.89 221.67 371.63 221.57 371.93 221.27C372.24 220.96 372.33 207.89 372.33 164.47C372.33 113.35 372.38 108.05 372.86 107.87C373.15 107.76 385.38 107.67 400.04 107.67L426.68 107.67L426.97 106.92C427.84 104.67 430.43 103.87 432.31 105.27L433.31 106L458.63 106C474.38 106 484.04 105.88 484.16 105.68C484.27 105.51 484.35 96.74 484.34 86.21C484.32 69.15 484.38 67 484.85 66.53C485.33 66.05 490.69 66 541.44 66.01C576.15 66.01 597.69 66.13 598 66.33C598.42 66.59 598.53 68.43 598.67 78.33L598.83 90.01L621 90.09C641.51 90.16 643.17 90.21 643.27 90.73C643.33 91.09 643 91.49 642.35 91.82C641.44 92.29 638.94 92.34 620 92.26L598.67 92.17L598.67 154.56L598.67 216.95L600.18 216.14C601.29 215.55 602.23 215.33 603.66 215.33C607.15 215.33 609.67 216.99 611.13 220.25L611.77 221.67L625.49 221.67C636.68 221.67 639.32 221.75 639.84 222.13C640.38 222.52 640.41 222.68 640.03 223.13C639.63 223.61 638.02 223.67 625.32 223.67L611.05 223.67L610.36 224.8C609.43 226.29 607.85 227.46 605.82 228.16C603.92 228.8 602.27 228.65 600.32 227.66C599.61 227.3 598.95 227 598.85 227C598.75 227 598.67 233.12 598.67 240.59C598.67 252.36 598.6 254.28 598.15 254.93L597.63 255.67L541.56 255.66C506.83 255.66 485.31 255.54 485 255.34C484.57 255.07 484.48 252.45 484.33 236.26L484.17 217.5L457.52 217.42C439.18 217.37 430.77 217.23 430.52 216.99C430.28 216.74 430.11 207.22 430 186.57L429.83 156.5L416.5 156.41C409.17 156.36 402.83 156.4 402.42 156.5L401.67 156.68L401.67 231.51C401.67 290.16 401.76 306.48 402.08 307C402.41 307.53 402.39 307.75 401.98 308.16C401.53 308.61 385.14 308.67 254.16 308.75C173.13 308.8 96.86 308.76 84.67 308.67ZM399.29 306.22C399.56 305.89 399.69 285.37 399.75 230.13L399.83 154.5L414.47 154.41C424.6 154.35 429.24 154.21 429.55 153.96C429.92 153.65 430 149.71 430 132.46C430 117.89 429.89 111.33 429.65 111.33C429.46 111.33 428.75 110.96 428.07 110.5L426.85 109.67L400.76 109.67L374.67 109.67L374.67 166.06C374.67 218.06 374.62 222.49 374.12 223.06C373.59 223.64 372.23 223.67 344.29 223.67L315.02 223.67L314.52 224.63C314 225.64 312.19 227.17 310.54 228.01C309.1 228.74 305.99 228.59 304.52 227.72C303.84 227.32 303.15 227 302.98 227C302.79 227 302.67 232.3 302.67 240.59C302.67 252.36 302.6 254.28 302.15 254.93L301.63 255.67L245.56 255.66C210.83 255.66 189.31 255.54 189 255.34C188.57 255.07 188.48 252.45 188.33 236.26L188.17 217.5L161.52 217.42C143.18 217.37 134.77 217.23 134.52 216.99C134.28 216.74 134.11 207.22 134 186.57L133.83 156.5L121.5 156.5L109.17 156.5L109.17 229.55C109.17 299.94 109.19 302.62 109.78 303.27C110.11 303.64 110.47 304.56 110.57 305.31L110.75 306.67L254.84 306.67C375.38 306.67 398.98 306.59 399.29 306.22ZM29.17 302.62C26.21 301.93 24.27 298.77 24.25 294.65C24.24 290.22 26.02 287.69 29.64 287.01C32.72 286.42 35.35 287.37 36.7 289.55C37.38 290.65 37.38 290.73 36.82 291.35C35.98 292.27 35.53 292.16 34.63 290.83C33.35 288.96 30.52 288.48 28.5 289.8C27.62 290.38 26.67 292.91 26.67 294.68C26.67 296.15 27.47 298.56 28.23 299.4C29.03 300.28 30.96 300.72 32.36 300.33C33.47 300.02 34.61 298.88 35.1 297.58C35.35 296.89 36.3 296.83 37.15 297.44C37.73 297.87 37.73 297.94 37.17 299.12C36.4 300.74 34.61 302.19 32.81 302.64C31.17 303.05 31 303.05 29.17 302.62ZM39.25 302.31C38.72 302 38.67 301.27 38.67 294.63L38.67 287.29L39.92 287.4L41.17 287.5L41.33 293.83L41.5 300.17L44.83 300.33C47.79 300.48 48.17 300.57 48.28 301.14C48.51 302.33 47.45 302.67 43.52 302.66C41.49 302.65 39.57 302.49 39.25 302.31ZM60.26 302.31C59.95 302.13 58.78 300.65 57.66 299.01C54.96 295.08 54.85 295 53.73 296.12C52.94 296.91 52.83 297.29 52.79 299.31C52.74 302.03 52.59 302.33 51.31 302.33L50.33 302.33L50.33 294.87C50.33 286.91 50.35 286.81 51.97 287.23C52.77 287.44 52.76 287.39 52.67 290.55C52.64 291.86 52.76 293.02 52.95 293.13C53.13 293.25 54.61 291.98 56.22 290.33C58.57 287.92 59.4 287.28 60.33 287.14C60.98 287.05 61.71 287.12 61.97 287.29C62.35 287.54 61.86 288.16 59.72 290.17C58.23 291.58 57 292.99 57 293.31C57 293.62 58.27 295.59 59.83 297.69C61.39 299.78 62.67 301.6 62.67 301.74C62.67 302 61.53 302.67 61.11 302.66C60.96 302.65 60.58 302.5 60.26 302.31ZM299.93 253.27C300.53 252.67 300.51 68.87 299.92 68.46C299.68 68.29 275.68 68.2 245.08 68.25L190.66 68.34L190.75 105.88C190.82 138.84 190.89 143.46 191.33 143.72C191.81 144 198.2 147.01 202 148.76C203.01 149.22 205.56 150.42 207.67 151.41C209.78 152.41 212.13 153.5 212.9 153.84C215.53 154.98 215.15 155.61 210.33 158.09C206.66 159.99 201.87 162.52 197.66 164.81C196.27 165.55 194.14 166.69 192.91 167.33L190.67 168.5L190.67 211.08L190.67 253.67L245.1 253.67C286.99 253.67 299.63 253.57 299.93 253.27ZM595.93 253.27C596.53 252.67 596.51 68.87 595.92 68.46C595.68 68.29 571.68 68.2 541.08 68.25L486.66 68.34L486.75 105.88C486.82 138.84 486.89 143.46 487.33 143.72C487.81 144 494.2 147.01 498 148.76C499.01 149.22 501.56 150.42 503.67 151.41C505.77 152.41 508.13 153.5 508.9 153.84C511.53 154.98 511.15 155.61 506.33 158.09C502.66 159.99 497.87 162.52 493.66 164.81C492.27 165.55 490.14 166.69 488.91 167.33L486.67 168.5L486.67 211.08L486.67 253.67L541.1 253.67C582.99 253.67 595.63 253.57 595.93 253.27ZM210.08 230.76C209.58 230.24 208.38 228.66 207.41 227.24C205.58 224.54 204.89 224.16 203.88 225.28C203.48 225.72 203.33 226.52 203.33 228.24C203.33 230.8 202.95 231.47 201.6 231.28L200.83 231.17L200.74 223.73L200.65 216.29L201.91 216.4L203.17 216.5L203.26 219.48L203.36 222.46L206.45 219.39C208.86 216.98 209.78 216.28 210.68 216.14C211.32 216.05 212.05 216.12 212.31 216.29C212.68 216.54 212.2 217.16 210.06 219.17C208.56 220.58 207.33 221.99 207.33 222.29C207.33 222.59 208.63 224.61 210.21 226.77C211.85 229 212.97 230.82 212.8 230.98C211.94 231.78 210.98 231.7 210.08 230.76ZM506.26 231.31C505.95 231.13 504.78 229.65 503.66 228.01C500.96 224.08 500.85 224 499.73 225.12C498.94 225.91 498.83 226.29 498.79 228.31C498.74 231.03 498.59 231.33 497.31 231.33L496.33 231.33L496.33 223.87C496.33 215.91 496.35 215.81 497.97 216.23C498.77 216.44 498.76 216.39 498.67 219.55C498.64 220.86 498.76 222.02 498.95 222.13C499.13 222.25 500.61 220.98 502.22 219.33C504.57 216.92 505.4 216.28 506.33 216.14C506.97 216.05 507.71 216.12 507.97 216.29C508.35 216.54 507.86 217.16 505.72 219.17C504.23 220.58 503 221.99 503 222.31C503 222.63 504.27 224.59 505.83 226.67C507.39 228.75 508.67 230.57 508.67 230.71C508.67 231 507.55 231.67 507.11 231.66C506.96 231.65 506.58 231.5 506.26 231.31ZM311.18 225.18C313.46 223.44 313.83 221.05 312.11 219.2C308.94 215.78 302.67 217.48 302.67 221.75C302.67 225.59 307.89 227.69 311.18 225.18ZM606.22 225.79C606.85 225.49 607.77 224.71 608.26 224.07C609.94 221.87 609.2 219.35 606.48 218C602.92 216.24 598.67 218.29 598.67 221.76C598.67 225.23 602.78 227.42 606.22 225.79ZM335 215.79C335 215.48 335.53 213.87 336.17 212.2C338.1 207.21 338.22 207 339.17 207C339.86 207 340.14 207.3 340.78 208.75C343.89 215.78 344.03 216.33 342.65 216.33C342.24 216.33 341.77 215.86 341.33 215C340.69 213.75 340.57 213.67 339.17 213.67C337.77 213.67 337.64 213.75 337 215C336.3 216.38 335 216.89 335 215.79ZM187.96 214.88C188.24 214.55 188.31 206.59 188.25 185.46L188.17 156.5L162.25 156.41L136.33 156.33L136.33 185.61C136.33 201.71 136.43 214.99 136.56 215.11C136.68 215.23 148.21 215.33 162.18 215.33C183.19 215.33 187.65 215.25 187.96 214.88ZM483.96 214.88C484.24 214.55 484.31 206.59 484.25 185.46L484.17 156.5L458.25 156.41L432.33 156.33L432.33 185.61C432.33 201.71 432.43 214.99 432.56 215.11C432.68 215.23 444.21 215.33 458.18 215.33C479.19 215.33 483.65 215.25 483.96 214.88ZM331.95 213.91C330.81 213.23 330.6 213.21 328.72 213.6C325.8 214.2 323.98 213.68 321.96 211.66C320.67 210.37 320.33 209.77 320 208.15C318.63 201.58 322.65 196.75 328.45 197.99C330.83 198.5 332.22 199.49 333.34 201.45C334.19 202.93 334.33 203.51 334.33 205.67C334.33 207.72 334.18 208.43 333.5 209.62C332.45 211.44 332.46 211.64 333.58 212.55C334.33 213.15 334.43 213.4 334.14 213.87C333.63 214.72 333.31 214.72 331.95 213.91ZM339.8 210.76C339.23 209.86 338.71 209.89 338.47 210.85C338.19 211.96 338.92 212.55 339.66 211.82C340.03 211.45 340.06 211.18 339.8 210.76ZM327.25 211.28C327.52 211.02 327.53 210.71 327.3 210.28C326.63 209.01 327.89 208.56 329.31 209.56C330.07 210.08 330.13 210.08 330.71 209.36C331.74 208.08 332.14 206.05 331.69 204.33C330.91 201.37 329.53 200.19 326.83 200.19C323.53 200.19 322.18 202.02 322.39 206.18C322.49 208.16 322.66 208.77 323.43 209.77C323.95 210.46 324.83 211.12 325.43 211.3C326.88 211.72 326.82 211.72 327.25 211.28ZM319.37 194.36C319.11 194.2 319 193.83 319.11 193.53C319.29 193.07 320.25 193 326.91 193.01C334.75 193.01 336.11 193.21 334.85 194.17C334.33 194.57 332.86 194.67 327.02 194.66C323.07 194.66 319.62 194.52 319.37 194.36ZM196.43 163.12C199.4 161.53 202.58 159.83 203.5 159.33C204.42 158.84 206.24 157.88 207.56 157.2C210.53 155.66 211.04 155.13 209.95 154.71C209.52 154.54 207.97 153.84 206.5 153.16C205.03 152.48 202.93 151.5 201.83 150.99C200.73 150.48 197.91 149.15 195.55 148.03C193.2 146.92 191.14 146 190.97 146C190.79 146 190.67 150.2 190.67 156C190.67 161.5 190.75 166 190.85 166C190.95 166 193.46 164.7 196.43 163.12ZM492.43 163.12C495.4 161.53 498.58 159.83 499.5 159.33C500.42 158.84 502.24 157.88 503.56 157.2C506.53 155.66 507.04 155.13 505.95 154.71C505.52 154.54 503.97 153.84 502.5 153.16C501.03 152.48 498.93 151.5 497.83 150.99C496.73 150.48 493.91 149.15 491.55 148.03C489.2 146.92 487.14 146 486.97 146C486.79 146 486.67 150.2 486.67 156C486.67 161.5 486.75 166 486.85 166C486.95 166 489.46 164.7 492.43 163.12ZM187.96 153.88C188.24 153.55 188.31 147.28 188.25 130.96L188.17 108.5L162.25 108.41L136.33 108.33L136.33 131.11C136.33 143.64 136.43 153.99 136.56 154.11C136.68 154.23 148.21 154.33 162.18 154.33C183.2 154.33 187.65 154.26 187.96 153.88ZM483.96 153.88C484.24 153.55 484.31 147.28 484.25 130.96L484.17 108.5L459 108.43L433.83 108.36L433.08 109.54L432.33 110.71L432.33 132.3C432.33 144.17 432.43 153.99 432.56 154.11C432.68 154.23 444.21 154.33 458.18 154.33C479.2 154.33 483.65 154.26 483.96 153.88ZM210.1 110.63C208.75 110.24 207.58 108.61 207.53 107.05C207.5 105.96 207.6 105.82 208.4 105.73C209.15 105.64 209.39 105.81 209.77 106.73C210.48 108.42 211.1 108.82 212.22 108.28C213.45 107.68 213.67 106.55 213.64 100.83C213.63 98.27 213.63 95.98 213.64 95.75C213.68 95.12 215.88 95.22 216.13 95.86C216.47 96.73 216.34 105.39 215.97 107C215.56 108.81 214.29 110.22 212.69 110.67C211.35 111.04 211.52 111.04 210.1 110.63ZM506.55 110.66C505.18 110.25 504.38 109.41 504 107.98C503.57 106.4 503.85 105.67 504.9 105.67C505.55 105.67 505.83 105.94 506.23 106.97C506.82 108.46 507.72 108.86 508.84 108.13C509.9 107.44 509.99 106.86 510 100.79C510 95.06 510.07 94.82 511.63 95.23C512.31 95.41 512.33 95.6 512.33 101.63L512.33 107.85L511.32 109.08C510.7 109.83 509.82 110.44 509.07 110.65C507.68 111.04 507.82 111.04 506.55 110.66ZM633.91 87.27C633.38 86.88 633.32 86.33 633.41 82.5L633.5 78.17L636.02 78.07C638.19 77.99 638.67 78.08 639.46 78.69C640.31 79.36 640.36 79.53 640.15 81.17C640.01 82.31 640.06 83 640.3 83.15C641.06 83.62 640.7 85.51 639.66 86.51C638.82 87.31 638.32 87.49 636.58 87.59C635.19 87.68 634.3 87.57 633.91 87.27ZM638.39 85.45C639.62 84.33 638.74 83.33 636.52 83.33C635.36 83.33 635.33 83.36 635.33 84.67C635.33 85.98 635.35 86 636.56 86C637.23 86 638.06 85.75 638.39 85.45ZM629.62 84.91C628.48 84.23 628.27 84.21 626.38 84.6C622.64 85.38 619.64 83.86 618.12 80.43C616.58 76.94 617.47 72.2 620.05 70.23C623.22 67.82 628.7 68.66 630.68 71.86C632.42 74.66 632.54 78.3 631 80.91C630.13 82.38 630.16 82.67 631.25 83.55C631.99 84.15 632.1 84.4 631.81 84.87C631.3 85.72 630.98 85.72 629.62 84.91ZM341.43 83.45C341.63 82.36 343.05 78.51 344.02 76.42C344.82 74.67 346.03 74.45 346.79 75.92C347.8 77.87 349.99 83.75 349.81 84.03C349.38 84.74 348.37 84.27 347.75 83.08C347.16 81.94 346.97 81.82 345.56 81.73C344.07 81.63 344 81.67 343.43 82.9C343.02 83.76 342.57 84.2 342.04 84.28C341.34 84.38 341.27 84.29 341.43 83.45ZM338.28 81.91C337.15 81.23 336.93 81.21 335.05 81.6C331.52 82.33 328.55 80.97 326.91 77.88C325.85 75.89 325.85 71.44 326.92 69.44C328.88 65.74 333.94 64.67 337.71 67.16C340.59 69.06 341.53 73.84 339.78 77.73L338.89 79.72L339.86 80.5C340.65 81.14 340.77 81.4 340.48 81.87C339.96 82.72 339.65 82.72 338.28 81.91ZM624.92 82.28C625.18 82.02 625.2 81.71 624.97 81.28C624.3 80.02 625.55 79.56 626.96 80.54C627.69 81.05 627.77 81.04 628.45 80.37C629.08 79.74 629.17 79.28 629.17 76.63L629.17 73.62L627.96 72.51C626.51 71.18 624.7 70.79 622.86 71.4C621.18 71.96 620.37 73.1 620.12 75.22C619.68 78.93 620.83 81.64 623.11 82.3C624.54 82.72 624.48 82.72 624.92 82.28ZM637.69 81.32C638.78 80.74 638.49 79.77 637.16 79.52C635.73 79.25 635.33 79.47 635.33 80.49C635.33 81.59 636.45 81.99 637.69 81.32ZM346.33 79.35C346.33 78.68 345.9 78 345.47 78C344.96 78 344.49 79.44 344.82 79.98C345.07 80.38 346.33 79.85 346.33 79.35ZM333.64 79.2C333.91 78.87 333.92 78.66 333.68 78.51C333.17 78.19 333.26 77.34 333.82 77.13C334.09 77.02 334.78 77.17 335.36 77.46C336.59 78.08 336.82 77.99 337.56 76.56C338.33 75.08 338.28 72.05 337.47 70.66C336.43 68.89 335.23 68.19 333.21 68.19C330.09 68.19 328.67 69.9 328.67 73.67C328.67 76.74 329.78 78.69 331.88 79.32C333.21 79.72 333.21 79.72 333.64 79.2ZM119.89 36.52C118.23 35.92 117.44 35.18 116.97 33.75C116.66 32.81 116.68 32.53 117.04 32.3C117.76 31.84 118.29 31.95 118.92 32.67C119.24 33.03 119.76 33.63 120.08 34C120.88 34.91 122.08 34.84 123.31 33.8C124.19 33.06 124.33 32.72 124.33 31.33C124.33 29.98 124.19 29.6 123.46 29.02C122.33 28.14 121.27 28.15 119.44 29.06C118.11 29.73 117.94 29.75 117.46 29.27C116.98 28.79 116.98 28.48 117.51 25.79C118.47 20.92 118.05 21.3 122.41 21.41C125.81 21.49 126.17 21.56 126.28 22.14C126.48 23.2 125.42 23.67 122.81 23.67C120.6 23.67 120.39 23.73 120.21 24.42C119.75 26.15 119.89 26.33 121.68 26.33C124.44 26.33 126.41 27.81 126.86 30.2C127.63 34.29 123.67 37.88 119.89 36.52ZM139.25 36.25C138.95 36.02 138.15 34.33 137.48 32.5C136.8 30.67 135.99 28.57 135.67 27.83C135.35 27.1 134.68 25.4 134.17 24.05C133.41 22.03 133.33 21.54 133.71 21.3C135.09 20.42 136.06 21.55 137.49 25.72C139.31 31.04 139.9 32.5 140.22 32.47C140.37 32.46 141.42 30 142.53 27.01C143.74 23.79 144.81 21.45 145.15 21.25C145.55 21.03 146.01 21.05 146.54 21.29C147.19 21.59 147.28 21.77 147.01 22.25C146.66 22.86 142.58 33.29 142.19 34.57C141.98 35.27 140.52 36.67 140.02 36.67C139.9 36.67 139.55 36.48 139.25 36.25Z" fill="#1e2749" fill-rule="evenodd"/>
</svg>
