<?xml version="1.0" encoding="UTF-8"?>
<svg xmlns="http://www.w3.org/2000/svg" viewBox="0 0 324 121" width="324" height="121" shape-rendering="geometricPrecision">
<path d="M35.5 106.97C25.42 101.85 16.79 97.51 16.33 97.31C15.88 97.11 13.5 95.95 11.05 94.73C7.87 93.14 6.51 92.28 6.3 91.73C5.98 90.91 5.88 44.98 6.19 43.82C6.32 43.34 8.32 42.18 13.27 39.71C17.06 37.81 21.29 35.7 22.67 35C25.42 33.6 32.23 30.21 38.67 27.02C40.96 25.88 45.31 23.69 48.33 22.15C51.36 20.6 53.98 19.34 54.17 19.34C54.35 19.33 64.85 24.52 77.5 30.85C90.15 37.19 100.9 42.38 101.38 42.4C101.86 42.42 103.81 41.6 105.71 40.59C107.61 39.58 111.27 37.66 113.83 36.33C116.4 35 119.42 33.41 120.55 32.79C122.74 31.59 124.15 31.36 124.45 32.15C124.79 33.04 123.53 33.97 118.33 36.62C115.49 38.08 111.67 40.05 109.83 41.01C108 41.98 105.79 43.11 104.93 43.54C104.07 43.97 103.21 44.61 103.02 44.97C102.78 45.41 102.67 53.25 102.67 68.59L102.67 91.55L101.92 92.22C101.24 92.82 54.34 116.38 53.98 116.3C53.9 116.28 45.58 112.08 35.5 106.97ZM276.36 114.06C275.93 113.71 275.92 113.59 276.29 113.44C277.69 112.87 278 112.06 278 109.01C278 106.18 277.95 105.98 277.17 105.47C276.37 104.95 276.05 103.88 276.58 103.56C276.72 103.48 277.6 103.31 278.54 103.18C280.12 102.97 280.26 103 280.44 103.71L280.64 104.47L281.43 103.74C282.21 103 283.14 102.82 284.14 103.2C284.8 103.45 284.83 104.98 284.2 105.84C283.78 106.42 283.65 106.44 282.85 106.01C281.06 105.05 280.31 106.81 280.61 111.24C280.72 112.84 280.8 112.98 281.72 113.18C283.56 113.58 282.53 114.16 279.67 114.33C277.66 114.45 276.75 114.38 276.36 114.06ZM263.53 114.04C263.43 113.88 263.57 113.29 263.85 112.74C264.25 111.93 264.33 110.56 264.26 105.79L264.17 99.84L263.25 99.4C262.75 99.16 262.33 98.75 262.33 98.48C262.33 98.11 262.9 97.99 264.92 97.96C270.48 97.88 272.14 98.02 273 98.63C274.81 99.93 274.88 101.88 273.17 103.66C272.13 104.75 272.13 104.94 273.17 105.33C274.2 105.73 275.33 107.52 275.33 108.77C275.33 110.66 273.55 112.84 271.21 113.8C269.8 114.38 263.85 114.57 263.53 114.04ZM72.33 104.69C81.59 100.08 89.39 96.18 89.67 96.02C89.94 95.86 92.43 94.61 95.2 93.23C99.89 90.91 100.25 90.66 100.45 89.66C100.71 88.36 100.73 46.45 100.48 45.49C100.3 44.85 98.97 44.06 94.33 41.85C93.33 41.37 92.27 40.83 92 40.66C91.72 40.49 90.75 39.99 89.83 39.56C87.2 38.3 73.24 31.36 72.5 30.94C70.91 30.03 57.3 23.33 57.04 23.33C56.88 23.33 56.56 23.11 56.33 22.83C56.09 22.54 55.36 22.33 54.54 22.33C53.4 22.33 49.36 24.23 30.75 33.55L8.33 44.76L8.41 67.8L8.5 90.83L31.23 102.25C50.28 111.81 54.09 113.62 54.73 113.37C55.15 113.2 63.07 109.3 72.33 104.69ZM270.12 112.21C272.58 111.18 272.83 107.63 270.53 106.54C269.19 105.9 267.95 105.85 267.4 106.4C266.91 106.89 266.86 111.12 267.35 112.02C267.75 112.78 268.61 112.84 270.12 112.21ZM46.65 105.89C42.94 104.07 36.51 101 31.5 98.65C27.66 96.86 22.59 94.44 17.42 91.95C13.83 90.22 13.33 89.88 13.33 89.15C13.33 88.47 13.49 88.33 14.31 88.33C14.85 88.33 16.16 88.78 17.23 89.33C19.47 90.47 29 95 29.17 95C29.28 95 33.79 97.14 42.17 101.17C47.03 103.5 50.7 105.2 51.42 105.45C52.77 105.91 52.33 107.69 50.88 107.64C50.49 107.63 48.58 106.84 46.65 105.89ZM270.73 103.26C272.09 101.5 271.11 99.67 268.81 99.67L267.4 99.67L267.16 101.71C266.98 103.26 267.03 103.82 267.38 104.05C268.12 104.55 270.1 104.08 270.73 103.26ZM247.98 97.32C244.6 94.75 240.18 91.39 238.17 89.86C234.6 87.16 230.27 83.86 223.57 78.74C221.78 77.36 220.16 75.97 219.99 75.65C219.57 74.87 219.92 74 220.65 74C220.96 74 223.39 75.65 226.03 77.67C228.67 79.7 234.13 83.85 238.17 86.9C242.2 89.96 246.27 93.07 247.21 93.81C248.15 94.56 250.44 96.34 252.29 97.78C254.15 99.21 255.67 100.57 255.67 100.79C255.67 101.3 254.99 102 254.5 102C254.3 102 251.37 99.9 247.98 97.32ZM94.22 89.11C93.85 88.74 93.96 47.07 94.33 46.84C94.51 46.73 94.96 46.8 95.33 47C95.99 47.35 96 47.63 96 67.95C96 83.51 95.9 88.63 95.6 88.93C95.16 89.38 94.56 89.45 94.22 89.11ZM208.43 75.34C205.33 74.62 203.99 71.71 205.74 69.48C206.22 68.88 206.44 68.19 206.38 67.56C206.32 67.01 206.47 66.21 206.7 65.76C207 65.21 207.03 64.89 206.78 64.73C206.3 64.42 205.33 62.49 205.33 61.84C205.33 60.7 206.66 58.75 207.79 58.21C209.62 57.34 210.73 57.24 212.34 57.8C213.16 58.09 214.48 58.33 215.26 58.33C216.22 58.33 216.75 58.5 216.88 58.84C217.13 59.48 216.43 60.33 215.66 60.33C215.26 60.33 215.01 60.69 214.86 61.47C214.47 63.57 212.8 65.03 210.23 65.51C209.55 65.64 208.9 65.89 208.79 66.07C208.37 66.75 209.34 67.03 212.31 67.1C215.15 67.16 215.45 67.23 216.06 68C217.05 69.22 216.76 71.68 215.46 73.05C213.67 74.94 210.77 75.88 208.43 75.34ZM212.23 73.35C213.83 72.37 214.52 71.17 214.05 70.15C213.71 69.39 213.51 69.33 211.17 69.33C209.11 69.33 208.55 69.45 208 70C207.24 70.76 207.21 70.96 207.66 72.16C207.98 72.99 209.58 73.96 210.67 73.99C210.94 73.99 211.65 73.71 212.23 73.35ZM183.52 69.07C183.06 68.61 183.39 67.47 184.08 67.16C184.82 66.84 184.84 66.69 184.92 60.86L185.02 54.89L184.11 53.94C182.84 52.62 183.36 52.24 185.96 52.57L188.03 52.83L189.42 56C191.28 60.25 193.1 63.76 193.46 63.8C193.63 63.82 193.89 63.61 194.04 63.33C194.65 62.23 198.26 54.44 198.48 53.74C198.79 52.76 199.49 52.44 201.5 52.38C203.85 52.31 204.25 52.67 203.03 53.76L202.04 54.63L202.1 60.6C202.17 66.68 202.37 67.67 203.54 67.67C204.14 67.67 204.13 68.15 203.52 68.65C203.12 68.98 200.3 69.19 198.25 69.04C197.42 68.98 197.53 68.17 198.5 67.2C199.3 66.4 199.33 66.2 199.33 62.18C199.33 58.83 199.24 58 198.87 58C198.61 58 198.18 58.57 197.9 59.27C197.3 60.77 194.48 66.82 193.84 68C193.13 69.28 192.52 69.17 191.81 67.65C189.65 63.01 187.44 58.85 187.1 58.74C186.79 58.65 186.71 59.63 186.77 62.68C186.85 66.74 186.85 66.75 187.84 67.53C188.62 68.15 188.73 68.4 188.41 68.72C188 69.13 183.87 69.43 183.52 69.07ZM170.18 67.92C170.08 67.32 169.96 65.93 169.92 64.83L169.83 62.83L167.06 62.74L164.29 62.64L164.4 61.74C164.5 60.84 164.52 60.83 166.76 60.95C169.68 61.1 170 60.84 170 58.21C170.01 55.39 170.25 54.67 171.17 54.67C172.14 54.67 172.33 55.21 172.33 57.96C172.33 59.26 172.5 60.37 172.73 60.6C172.97 60.84 174.11 61 175.55 61C178.01 61 178.7 61.33 178 62.17C177.74 62.48 176.75 62.67 175.05 62.74L172.5 62.83L172.4 65.48C172.3 68.25 172 69 170.97 69C170.54 69 170.31 68.68 170.18 67.92ZM211.64 63.12C212.77 61.69 212.51 60.28 210.98 59.49C210.29 59.13 209.81 59.09 209.19 59.33C208.44 59.61 208.33 59.84 208.33 61.22C208.33 63.86 210.21 64.94 211.64 63.12ZM218.89 51.78C218.77 51.66 218.67 51.22 218.67 50.8C218.67 50.24 219.48 49.44 221.92 47.62C223.7 46.28 227.72 43.22 230.83 40.82C233.95 38.42 239.05 34.53 242.17 32.17C245.28 29.81 248.51 27.33 249.33 26.66C251.64 24.77 253.23 23.92 253.99 24.17C255.48 24.64 254.64 25.58 248.78 30.03C245.54 32.49 241.8 35.36 240.47 36.4C239.13 37.45 234.69 40.84 230.6 43.92C226.51 47.01 222.44 50.09 221.56 50.77C219.98 51.98 219.33 52.22 218.89 51.78ZM12.79 48.19C12.69 47.92 12.66 47.45 12.72 47.14C12.82 46.62 19.26 43.24 37 34.36C39.29 33.21 41.46 32.12 41.81 31.93C46.53 29.41 51.13 27.31 51.74 27.39C52.87 27.55 52.84 28.5 51.69 29.32C50.02 30.5 14.1 48.66 13.41 48.66C13.17 48.67 12.9 48.45 12.79 48.19ZM129.67 35.67C129.67 35.3 129.89 35 130.15 35C131.08 35 131.37 33.63 131.51 28.73C131.66 23.06 131.46 21.64 130.41 21.17C129.53 20.78 129.43 19.77 130.25 19.57C130.57 19.49 132 19.4 133.42 19.37C135.49 19.32 136.05 19.41 136.21 19.82C136.46 20.49 135.77 21.33 134.96 21.33C134.41 21.33 134.33 21.61 134.33 23.65C134.33 25.01 134.49 26.06 134.71 26.19C134.92 26.32 136.68 26.41 138.62 26.39C142.72 26.36 143 26.18 143 23.59C143 22.13 142.9 21.91 141.99 21.4C141.31 21.02 141.01 20.62 141.08 20.17C141.16 19.57 141.45 19.49 143.67 19.43C146.7 19.35 147.67 19.53 147.67 20.16C147.67 20.43 147.22 20.88 146.67 21.17L145.67 21.68L145.67 27.83C145.67 34.19 145.65 34.1 147.13 35.13C148.34 35.96 147.42 36.33 144.17 36.33C142.29 36.33 140.95 36.19 140.82 35.97C140.69 35.78 141.14 35.11 141.81 34.5C143.03 33.39 143.03 33.37 142.93 30.94L142.83 28.5L138.58 28.41L134.33 28.31L134.34 31.07C134.34 34.06 134.44 34.36 135.6 34.97C136.23 35.3 136.3 35.47 135.98 35.86C135.69 36.2 134.79 36.33 132.63 36.33C129.89 36.33 129.67 36.28 129.67 35.67ZM311.1 31.18C310.21 30.54 309.73 28.47 310.33 27.89C310.64 27.59 310.82 27.64 311.12 28.12C312.12 29.76 312.58 30.1 313.7 30.07C315.91 30.01 317.17 27.17 315.65 25.65C315.12 25.12 314.73 25.02 313.82 25.19C312.94 25.36 312.63 25.28 312.47 24.87C312.21 24.19 312.83 23.41 313.74 23.27C314.12 23.21 314.73 22.76 315.1 22.27C315.73 21.42 315.74 21.33 315.21 20.52C314.3 19.13 312.32 19.41 311.47 21.05C310.85 22.26 310.33 22 310.33 20.48C310.33 18.35 312.69 17.17 315.35 17.97C317.48 18.6 318.13 20.16 317.27 22.55C316.9 23.56 316.94 23.69 317.77 24.34C319.52 25.72 318.78 28.67 316.17 30.72C314.95 31.68 312.14 31.93 311.1 31.18ZM263.44 23.29C261.47 22.94 260.25 22.23 258.86 20.61C257.34 18.83 256.89 17.16 257.07 14C257.3 10.05 259.09 7.78 262.77 6.8C265 6.21 266.76 6.22 268.8 6.84C271.02 7.51 272.34 8.59 273.47 10.67C274.32 12.23 274.4 12.65 274.25 14.68C273.86 20.14 268.74 24.21 263.44 23.29ZM280.75 22.76C279.03 22.16 276.55 19.84 275.85 18.15C275.01 16.14 275.17 12.79 276.21 10.71C278.02 7.08 282.86 5.52 288.33 6.79L290.17 7.21L290.27 8.63C290.44 10.9 289.14 11.87 288.44 10C287.98 8.78 286.89 8.33 284.42 8.33C280.81 8.33 278.78 10.08 278.43 13.5C278.11 16.62 279.3 19.1 281.87 20.69C283.37 21.62 286.65 21.69 288.44 20.84C289.11 20.52 289.9 20.35 290.2 20.47C290.68 20.65 290.69 20.75 290.25 21.42C289.11 23.14 283.96 23.87 280.75 22.76ZM291.33 22.67C291.33 22.3 291.48 22 291.67 22C291.85 22 292.3 21.7 292.67 21.33C293.28 20.72 293.33 20.22 293.33 14.71C293.33 9.9 293.24 8.67 292.85 8.35C292.58 8.12 292.22 8.03 292.04 8.14C291.67 8.37 291.19 7.16 291.47 6.71C291.62 6.48 296.64 6.4 297.75 6.62C298.33 6.73 297.94 7.71 297.21 7.98C296.77 8.15 296.32 8.67 296.2 9.16C295.9 10.33 296.33 13.33 296.79 13.35C299.91 13.47 303.83 13.31 304.09 13.05C304.27 12.86 304.46 11.91 304.5 10.94C304.57 9.11 304.04 8 303.09 8C302.8 8 302.66 7.73 302.73 7.27C302.82 6.61 303.06 6.53 305.33 6.44C306.71 6.38 308.17 6.41 308.58 6.51C309.58 6.74 309.54 7.59 308.5 8.06C308.04 8.27 307.66 8.53 307.65 8.64C307.64 8.74 307.59 11.52 307.54 14.81C307.46 20.07 307.52 20.85 308.02 21.35C308.33 21.66 308.78 21.98 309.02 22.06C309.27 22.15 309.36 22.44 309.24 22.77C309.06 23.24 308.52 23.33 305.84 23.33C302.26 23.33 301.97 23.08 303.64 21.41C304.55 20.5 304.61 20.29 304.52 18.19C304.46 16.96 304.28 15.81 304.1 15.63C303.92 15.45 302.11 15.35 299.97 15.41L296.17 15.5L296.26 18.33C296.35 20.92 296.43 21.23 297.22 21.88C298.58 23 297.96 23.33 294.48 23.33C291.56 23.33 291.33 23.29 291.33 22.67ZM267.12 21.35C270.71 20.52 272.42 15.62 270.53 11.56C270.02 10.48 269.28 9.54 268.54 9.05C267.5 8.36 267.04 8.28 264.87 8.38C262 8.53 261.28 8.99 260.27 11.33C258.82 14.67 260.85 20.46 263.77 21.3C265.16 21.7 265.58 21.71 267.12 21.35Z" fill="#1e2749" fill-rule="evenodd"/>
</svg>
