<?xml version="1.0" encoding="UTF-8"?>
<svg xmlns="http://www.w3.org/2000/svg" viewBox="0 0 500 293" width="500" height="293" shape-rendering="geometricPrecision">
<path d="M76.44 292.58C76.29 292.35 76.09 233.74 76 162.33L75.83 32.5L74.58 32.4C73.46 32.3 73.33 32.2 73.33 31.34C73.33 30.82 74.07 28.17 74.96 25.45C77.2 18.65 77.33 18.65 79.64 25.61C80.61 28.53 81.34 31.2 81.28 31.55C81.19 32 80.82 32.2 79.91 32.27L78.67 32.37L78.75 113.27L78.83 194.17L115.64 194.25C148.09 194.32 152.57 194.27 153.47 193.82C154.37 193.37 159.15 193.31 193.05 193.29C226.92 193.28 231.7 193.34 232.39 193.78C233.07 194.23 237.66 194.29 269.65 194.3C294.23 194.3 306.63 194.19 307.65 193.95C308.66 193.72 321.95 193.56 347.33 193.5C378.97 193.41 385.64 193.47 386.37 193.85C387.54 194.46 455.81 194.57 456.54 193.97C456.79 193.76 457 193.15 457 192.63C457 191.86 457.15 191.67 457.73 191.67C458.51 191.67 460.18 192.16 461.88 192.88C462.46 193.13 463.14 193.33 463.38 193.33C463.86 193.34 468.96 195.18 469.23 195.45C469.56 195.79 467.72 196.65 464.5 197.67C462.67 198.25 460.39 199 459.44 199.35C457.51 200.05 457.14 199.87 456.95 198.17L456.83 197.17L383.26 197.13L309.69 197.09L309.17 197.88C308.51 198.89 307.82 198.88 307.15 197.85L306.61 197.03L271.14 197.04C247.58 197.05 235.67 197.17 235.67 197.39C235.67 197.57 236.54 198.65 237.6 199.78C238.66 200.91 241.92 204.38 244.84 207.5C249.88 212.88 251.61 214.7 260.67 224.16C262.77 226.36 267.88 231.75 272 236.13C276.12 240.52 280.18 244.79 281.01 245.63C281.83 246.48 285.96 250.84 290.17 255.33C301.6 267.5 306.12 272.17 306.5 272.17C306.68 272.17 306.88 271.76 306.94 271.27C307.12 269.7 309.15 269.66 309.54 271.21C309.65 271.65 309.63 272.42 309.5 272.92C309.36 273.42 309.26 274.5 309.28 275.31C309.31 276.88 308.91 277.67 308.08 277.67C307.47 277.67 303.75 273.86 290.51 259.68C289.05 258.11 286.71 255.63 285.3 254.17C283.9 252.7 282.39 251.11 281.96 250.63C280.88 249.44 265.74 233.45 261 228.5C258.89 226.3 256.05 223.3 254.68 221.83C251.81 218.75 248.51 215.29 239 205.38C235.24 201.47 232.09 198.15 232 198.01C231.4 197.12 229.21 197.07 192.95 197.06L155.4 197.06L154.64 197.86C153.68 198.88 153.15 198.88 152.47 197.84L151.93 197.01L116.47 197.06C94.3 197.09 81 197.22 81 197.42C81 197.79 85.27 202.61 89.2 206.67C91.51 209.06 99.64 217.81 106.68 225.49C109.33 228.38 112.85 232.17 118.33 238.01C120.99 240.85 124 244.07 125.01 245.17C126.03 246.27 129.03 249.5 131.68 252.35C134.33 255.19 138.22 259.39 140.33 261.68C146.79 268.67 151.48 273.5 151.83 273.5C152.02 273.5 152.21 272.78 152.27 271.9L152.37 270.3L153.6 270.4C154.8 270.5 154.84 270.54 154.94 271.95C155.05 273.45 154.38 274.67 153.45 274.67C152.97 274.67 152.83 275.21 153.26 275.39C153.41 275.45 153.87 276.05 154.28 276.73L155.03 277.97L154.36 278.64C153.99 279.01 153.48 279.24 153.23 279.14C152.8 278.98 146.4 272.23 136.32 261.34C134 258.83 131.82 256.47 131.47 256.11C131.12 255.75 129.18 253.66 127.15 251.48C125.12 249.29 120.26 244.05 116.33 239.83C112.41 235.62 108.45 231.34 107.53 230.33C106.61 229.32 103.96 226.47 101.65 224C97.01 219.05 88.31 209.69 86.15 207.33C79.77 200.37 79.42 200.02 78.92 200.01C78.78 200 78.67 220.54 78.67 245.65C78.67 279.58 78.57 291.52 78.28 292.15C77.87 293.05 76.89 293.28 76.44 292.58ZM152.47 267.21C152.37 266.96 152.34 266.02 152.4 265.12C152.49 263.72 152.6 263.49 153.27 263.39C153.69 263.33 154.25 263.46 154.52 263.68C155.11 264.17 155.16 266.7 154.6 267.27C154.06 267.81 152.69 267.77 152.47 267.21ZM307.37 267.21C307.13 266.93 307 266.04 307.06 265.11C307.16 263.57 307.21 263.5 308.23 263.4C309.22 263.3 309.31 263.38 309.53 264.53C309.66 265.21 309.62 266.16 309.46 266.63C309.11 267.63 307.97 267.94 307.37 267.21ZM152.84 260.46C152.45 260.07 152.33 259.44 152.4 258.21C152.49 256.65 152.58 256.49 153.36 256.4C154.99 256.21 155.67 258.43 154.51 260.19C153.89 261.14 153.57 261.19 152.84 260.46ZM307.49 260.45C307.12 260.07 307 259.43 307.07 258.21C307.16 256.68 307.25 256.49 307.98 256.39C308.97 256.25 309.67 257.08 309.67 258.42C309.67 260.3 308.47 261.42 307.49 260.45ZM152.69 253.53C152.46 253.25 152.34 252.3 152.4 251.28C152.49 249.71 152.59 249.49 153.27 249.39C154.38 249.23 155 249.91 155 251.3C155 253.35 153.64 254.67 152.69 253.53ZM307.36 253.53C307.13 253.25 307.01 252.3 307.06 251.28C307.16 249.68 307.25 249.49 307.98 249.39C309.52 249.17 310.27 251.66 309.15 253.26C308.55 254.11 307.92 254.21 307.36 253.53ZM307.52 246.81C306.84 246.13 306.81 243.24 307.48 242.68C308.28 242.02 309.24 242.57 309.48 243.82C309.9 246.11 308.69 247.97 307.52 246.81ZM152.54 246.47C152.19 245.56 152.31 243.15 152.73 242.73C153.73 241.74 155 242.81 155 244.64C155 246.48 153.09 247.91 152.54 246.47ZM152.88 239.72C151.83 238.56 152.41 235.33 153.67 235.33C154.21 235.33 155 236.81 155 237.83C155 238.83 154.22 240.33 153.7 240.33C153.55 240.33 153.19 240.06 152.88 239.72ZM307.52 239.81C306.84 239.13 306.81 236.24 307.48 235.68C308.23 235.06 309.26 235.57 309.5 236.68C309.99 238.91 308.69 240.97 307.52 239.81ZM152.73 232.93C152.51 232.71 152.33 231.74 152.33 230.77C152.33 229.17 152.41 228.99 153.17 228.8C154.33 228.51 155 229.18 155 230.63C155 232.64 153.73 233.93 152.73 232.93ZM307.36 232.86C307.13 232.59 307.01 231.63 307.06 230.61C307.16 228.96 307.23 228.83 308.06 228.73C309.2 228.6 309.81 229.64 309.55 231.24C309.24 233.14 308.22 233.9 307.36 232.86ZM152.73 225.93C152.21 225.41 152.21 222.59 152.73 222.07C153.73 221.07 155 222.14 155 223.97C155 225.76 153.69 226.89 152.73 225.93ZM307.4 225.93C306.98 225.51 306.85 223.1 307.2 222.19C307.49 221.46 308.91 221.53 309.32 222.31C309.82 223.25 309.74 224.74 309.15 225.59C308.57 226.42 308 226.53 307.4 225.93ZM152.48 218.55C152.38 218.12 152.33 217.18 152.39 216.47C152.49 215.31 152.61 215.15 153.46 215.06C154.01 214.99 154.55 215.14 154.71 215.39C155.13 216.06 155.06 218.48 154.6 218.93C153.9 219.63 152.7 219.41 152.48 218.55ZM307.16 218.57C307.04 218.13 307 217.18 307.06 216.47C307.15 215.33 307.28 215.15 308.08 215.06C309.31 214.92 309.91 216.15 309.47 217.92C309.22 218.93 309 219.19 308.26 219.27C307.54 219.35 307.32 219.21 307.16 218.57ZM307.51 212.22C307.09 211.91 306.98 211.39 307.06 209.99C307.16 208.34 307.25 208.16 307.98 208.05C308.97 207.91 309.67 208.75 309.67 210.09C309.67 211.91 308.57 212.99 307.51 212.22ZM152.47 211.87C152.37 211.62 152.34 210.68 152.4 209.79C152.49 208.39 152.6 208.15 153.27 208.06C153.69 208 154.25 208.13 154.52 208.35C155.11 208.84 155.16 211.37 154.6 211.93C154.06 212.48 152.69 212.44 152.47 211.87ZM62.5 207.87C60.62 207.15 59.94 206.5 59.11 204.67C57.51 201.12 57.73 193.85 59.53 190.76C60.61 188.91 62.18 188.17 65 188.17C67.83 188.17 69.53 189.23 70.7 191.73C71.42 193.28 71.5 193.86 71.47 197.81C71.45 201.51 71.34 202.39 70.74 203.67C69.06 207.26 65.56 209.05 62.5 207.87ZM478.74 205.81C477.29 204.8 477 203.66 477 199.05L477 194.73L475.83 194.04C475.19 193.67 474.67 193.13 474.67 192.85C474.67 192.57 475.19 192.12 475.83 191.85C476.93 191.4 477 191.27 477 189.84C477 188.16 477.41 187.78 478.83 188.14C479.56 188.32 479.67 188.53 479.67 189.77C479.67 191.57 480.1 192 481.91 192C482.92 192 483.42 192.16 483.56 192.53C483.83 193.24 482.91 194.08 481.77 194.16C479.48 194.32 479.67 193.95 479.67 198.43C479.67 203.32 479.95 204 482.03 204C483.59 204 484.05 204.69 483.16 205.68C482.42 206.5 479.83 206.58 478.74 205.81ZM66.76 205C68.56 203.58 69.35 199.05 68.53 194.83C68.1 192.61 67.84 192.01 66.96 191.21C66.03 190.38 65.72 190.28 64.38 190.43C62.23 190.67 61.5 191.69 60.98 195.2C60.35 199.43 61.29 204.36 62.92 205.31C63.89 205.88 65.84 205.72 66.76 205ZM152.69 205.19C152.46 204.92 152.34 203.97 152.4 202.94C152.49 201.38 152.59 201.15 153.27 201.06C154.44 200.89 155 201.58 155 203.16C155 205.13 153.64 206.34 152.69 205.19ZM307.04 204.92C306.88 204.5 306.85 203.49 306.96 202.67C307.13 201.43 307.3 201.15 307.94 201.06C309.1 200.89 309.67 201.58 309.67 203.16C309.67 205.32 307.68 206.65 307.04 204.92ZM143.45 191.49C143.21 190.86 143.41 189.98 144.33 187.67C144.73 186.66 145.58 184.33 146.21 182.5C146.84 180.67 147.72 178.27 148.16 177.17C148.6 176.07 149.73 173.03 150.68 170.43C152.41 165.66 152.84 165.04 154.12 165.53C154.92 165.84 154.81 166.53 153.3 170.54C152.54 172.53 151.4 175.74 150.76 177.67C150.12 179.59 149.23 182.05 148.77 183.14C148.32 184.23 147.51 186.38 146.98 187.93C146.46 189.48 145.77 191.03 145.46 191.38C144.78 192.13 143.72 192.19 143.45 191.49ZM222.77 191.12C222.65 190.82 222.82 189.88 223.14 189.04C223.47 188.19 224.46 185.47 225.35 183C226.23 180.53 227.58 176.85 228.34 174.83C229.1 172.82 230.07 170.17 230.49 168.96C231.54 165.97 231.92 165.33 232.64 165.33C233.84 165.33 234.12 166.17 233.49 167.91C233.17 168.78 232.42 170.92 231.82 172.67C231.22 174.41 230.33 176.88 229.84 178.17C229.35 179.45 228.82 180.95 228.67 181.5C228.07 183.65 225.27 190.52 224.77 191.07C224.09 191.82 223.05 191.84 222.77 191.12ZM310.98 190.15C310.49 189.55 310.51 189.48 313.42 181.5C314.43 178.75 316.18 173.95 317.32 170.83C318.46 167.72 319.56 164.97 319.75 164.73C319.95 164.49 320.5 164.34 320.97 164.4C321.69 164.48 321.82 164.65 321.77 165.46C321.73 165.98 321.37 167.26 320.97 168.29C319.9 171.08 319.53 172.08 317.82 176.83C316.97 179.22 316.07 181.69 315.82 182.33C315.58 182.97 314.89 184.85 314.3 186.5C312.86 190.52 312.04 191.42 310.98 190.15ZM388.04 189.41C387.87 189.08 387.75 185.4 387.78 181.06C387.82 174.52 387.75 173.25 387.33 172.98C387.06 172.79 385.9 172.69 384.76 172.74C382.49 172.84 381.88 172.51 382.06 171.29L382.17 170.5L389.09 170.41C395.28 170.33 396.04 170.38 396.23 170.87C396.68 172.04 395.89 172.5 393.21 172.6L390.67 172.69L390.67 180.95C390.67 186.92 390.56 189.31 390.27 189.6C389.67 190.19 388.4 190.08 388.04 189.41ZM134.32 187.3C134.05 186.81 134.01 184.34 134.18 178.84C134.45 169.88 134.62 170.36 131.16 170.44C128.85 170.49 128.33 170.26 128.33 169.17C128.33 168.15 128.79 168.08 135.74 168.04C141.35 168.01 143 168.25 143 169.12C143 170 142.02 170.4 139.76 170.45L137.5 170.5L137.33 178.55C137.18 185.86 137.11 186.66 136.53 187.3C135.72 188.19 134.79 188.19 134.32 187.3ZM164.63 187.29C164.1 186.76 163.98 186.35 164.14 185.51C164.53 183.44 164.34 183.33 160.15 183.33C154.04 183.33 154 182.99 159.23 174.27C162.54 168.76 162.87 168.33 163.92 168.13C164.54 168.01 165.41 168.08 165.86 168.28C166.66 168.65 166.67 168.67 166.69 174.08C166.7 177.06 166.83 179.8 166.98 180.17C167.15 180.61 167.55 180.83 168.16 180.83C170.2 180.83 170.09 183.07 168.05 183.27C166.91 183.38 166.41 184.34 166.82 185.63C167.07 186.42 166.58 187.5 165.84 187.79C165.54 187.9 165.02 187.69 164.63 187.29ZM213.89 187.44C213.77 187.32 213.67 183.58 213.67 179.12C213.67 171.2 213.65 171.02 212.96 170.64C212.55 170.42 211.7 170.35 210.95 170.47C209.1 170.77 208.03 170.41 207.79 169.43C207.65 168.89 207.74 168.49 208.04 168.31C208.67 167.92 220.45 167.94 221.49 168.33C221.96 168.51 222.33 168.86 222.33 169.12C222.33 170.03 221.32 170.43 218.91 170.46L216.5 170.5L216.41 178.64C216.35 183.91 216.18 186.94 215.95 187.23C215.57 187.69 214.27 187.82 213.89 187.44ZM236.01 187.18C235.23 186.24 235.99 184.79 238.94 181.63C241.93 178.41 242.86 177.2 243.58 175.55C244.19 174.16 244.08 172.29 243.34 171.33C242.79 170.61 242.45 170.5 240.74 170.51C239.43 170.52 238.47 170.72 237.86 171.12C237.15 171.58 236.85 171.63 236.48 171.31C234.53 169.7 239.11 167.27 242.8 167.96C244.84 168.34 246.44 169.84 247.02 171.92C247.4 173.25 247.37 173.66 246.86 175.12C246.12 177.19 244.16 179.91 241.6 182.38C238.77 185.13 238.88 185.29 243.55 185.41C246.87 185.49 247.48 185.59 247.8 186.1C248.09 186.59 248.04 186.8 247.52 187.19C246.57 187.89 236.6 187.88 236.01 187.18ZM283.09 186.29C281.79 185.92 280.86 184.65 281.16 183.68C281.42 182.86 282.24 182.81 283.29 183.54C283.72 183.84 284.99 184.16 286.12 184.25C288.06 184.4 288.24 184.35 289.26 183.41C290.34 182.4 290.67 180.92 290.13 179.51C289.81 178.69 287.52 177.67 285.99 177.67C284.22 177.67 283.33 177.17 283.33 176.2C283.33 175.48 283.5 175.4 285.34 175.27C288.44 175.04 290.14 173.26 289.54 170.86C289.07 169.01 285.7 168.49 283.31 169.9C282.54 170.36 282.26 170.39 281.92 170.06C281.59 169.73 281.61 169.46 282.02 168.74C282.78 167.38 284.16 166.86 287.06 166.85C289.14 166.84 289.81 166.97 290.56 167.53C292.92 169.26 293.25 172.33 291.33 174.72L290.25 176.06L291.96 177.56C293.46 178.87 293.67 179.21 293.67 180.34C293.67 181.04 293.51 182.05 293.31 182.56C292.83 183.83 291.07 185.65 289.76 186.21C288.56 186.72 284.74 186.77 283.09 186.29ZM302.05 186.37C301.71 186.15 301.59 184.33 301.52 178.03C301.48 173.6 301.3 169.84 301.14 169.67C300.97 169.5 299.8 169.32 298.53 169.27C296.12 169.16 295.34 168.67 295.77 167.55C295.95 167.07 296.79 167 302.78 167C308.46 167 309.65 167.08 310.01 167.51C310.35 167.92 310.32 168.13 309.84 168.66C309.39 169.16 308.72 169.33 306.88 169.4L304.5 169.5L304.41 177.67C304.34 184.87 304.26 185.88 303.77 186.25C303.11 186.73 302.67 186.77 302.05 186.37ZM331.91 186.25C331.54 185.97 331.33 185.23 331.26 184L331.17 182.17L327.45 182.15C321.65 182.13 321.45 181.53 325.15 175.33C330 167.21 330.02 167.18 331.4 167.06C332.08 167.01 332.94 167.13 333.32 167.33C333.96 167.67 334 167.99 334 173.3C334 179.31 334.02 179.38 335.75 179.79C337.54 180.22 336.66 182.33 334.69 182.33C334.09 182.33 334 182.54 334 183.95C334 185.09 333.82 185.73 333.39 186.12C332.66 186.78 332.61 186.78 331.91 186.25ZM163.65 180.51C163.9 180.22 164.12 178.41 164.21 175.82C164.34 172.02 164.3 171.62 163.8 171.72C163.18 171.85 158.67 179.49 158.67 180.42C158.67 180.92 159 181 160.96 181C162.56 181 163.37 180.85 163.65 180.51ZM330.92 179.26C331.52 178.77 331.51 170.67 330.91 170.67C330.67 170.67 329.71 171.98 328.77 173.58C325.71 178.82 325.47 179.54 326.75 179.73C327.98 179.9 330.47 179.62 330.92 179.26ZM21.68 37.71C20.63 37.32 19.89 36.72 19.18 35.72C18.3 34.46 18.15 33.94 18.05 31.59C17.98 30.11 18.1 28.33 18.3 27.63C18.76 26.11 20.06 24.49 21.36 23.82C22.59 23.19 25.59 23.2 27.14 23.84C28.78 24.53 30.33 26.96 30.33 28.85C30.33 31.09 29.81 31.33 25.08 31.33C22.49 31.33 20.96 31.47 20.81 31.7C20.41 32.35 21.42 34.68 22.42 35.39C23.39 36.09 25.06 36.11 28.25 35.47C29.53 35.22 30.1 36.04 29.23 36.91C27.83 38.31 24.29 38.69 21.68 37.71ZM51.91 37.96C51.4 37.67 51.33 37.02 51.33 32.68C51.33 27.83 51.31 27.69 50.47 26.69C49.4 25.42 48.27 25.36 46.58 26.51L45.33 27.36L45.33 32.03C45.33 37.01 45.09 38 43.89 38C42.48 38 42.33 37.48 42.33 32.31C42.33 27.87 42.27 27.34 41.64 26.54C40.69 25.33 39.17 25.37 37.65 26.63L36.5 27.59L36.46 32.3C36.41 37.13 36.19 38 35.03 38C33.78 38 33.67 37.39 33.67 30.43L33.67 23.67L34.65 23.67C35.3 23.67 35.77 23.9 36 24.33C36.35 24.98 36.38 24.98 37.67 24.16C39.76 22.84 42.05 23.06 43.91 24.76C44.59 25.38 44.71 25.4 45.25 24.93C46.37 23.94 47.98 23.33 49.47 23.33C51.35 23.33 53.04 24.67 53.57 26.57C53.96 27.98 54.16 35.97 53.83 37C53.55 37.9 52.63 38.36 51.91 37.96ZM59.56 37.78C59.43 37.66 59.33 35.29 59.33 32.53C59.32 26.95 59.18 26 58.36 26C57.58 26 57 25.34 57 24.43C57 23.84 57.19 23.67 57.82 23.67C58.81 23.67 59.33 22.81 59.33 21.2C59.33 18.64 61.47 16.41 63.52 16.83C63.97 16.92 64.71 17.08 65.17 17.17C66.07 17.36 66.28 18.25 65.6 18.93C65.38 19.15 64.57 19.33 63.81 19.33C62.29 19.33 62.01 19.72 62 21.85C62 23.16 62.53 23.67 63.91 23.67C66.05 23.67 65.42 25.85 63.22 26.06L62.17 26.17L62.07 31.64C62.02 34.99 61.84 37.29 61.62 37.56C61.23 38.02 59.94 38.16 59.56 37.78ZM27.33 28.83C28.34 27.62 26.17 25.33 24 25.33C22.23 25.33 19.92 28.14 20.89 29.11C21.01 29.23 22.42 29.33 24.01 29.33C26.19 29.33 27.02 29.21 27.33 28.83Z" fill="#1e2749" fill-rule="evenodd"/>
</svg>
