<?xml version="1.0" encoding="UTF-8"?>
<svg xmlns="http://www.w3.org/2000/svg" viewBox="0 0 2430 762" width="2430" height="762" shape-rendering="geometricPrecision">
<path d="M364.19 746.27C357.5 745.45 359.22 741.05 370.54 730C380.1 720.66 384 715.47 384 712.05C384 708.13 382.22 707 376.05 707C370.91 707 370.3 707.26 367.71 710.5C364.08 715.05 362 715.08 362 710.58C362 703.61 369.87 699.11 379.53 700.56C385.94 701.52 391 707.22 391 713.47C391 717.78 390.64 718.31 381 728.2C375.5 733.84 371 738.79 371 739.21C371 740.34 374.67 740.97 382.99 741.25C389.2 741.46 390.54 741.8 390.81 743.25C391.03 744.39 390.23 745.34 388.51 746C385.98 746.96 371.12 747.13 364.19 746.27ZM1253.75 746.32C1250.39 745.92 1250 745.58 1250 742.99C1250 740.68 1252.26 737.74 1261.34 728.21C1267.58 721.66 1272.92 715.43 1273.19 714.37C1274 711.3 1272.3 708.06 1269.28 706.9C1264.82 705.19 1260.53 706.45 1256.74 710.58C1254.73 712.77 1252.84 714.02 1252.16 713.6C1250.19 712.38 1250.87 708.31 1253.57 705.1C1258.46 699.28 1269.97 698.58 1276.08 703.72C1279.97 707 1281.06 709.84 1280.28 714.68C1279.77 717.8 1277.79 720.41 1269.33 729.08C1263.65 734.91 1259 739.97 1259 740.34C1259 740.7 1263.44 741 1268.88 741C1276.01 741 1279.07 741.38 1279.89 742.37C1282.18 745.13 1278.36 746.45 1267.62 746.61C1262.05 746.7 1255.81 746.57 1253.75 746.32ZM2245.6 745.72C2242.38 743.33 2244.35 739.88 2255.87 727.77C2261.86 721.47 2267.07 715.36 2267.44 714.2C2268.8 709.9 2264.47 706 2258.32 706C2256.62 706 2254.55 707.33 2252.11 710C2247.59 714.94 2245 715.27 2245 710.9C2245 706.46 2250.2 701.53 2255.81 700.64C2264.31 699.29 2271.86 703.01 2274.04 709.61C2275.71 714.68 2272.7 720.05 2262.61 729.98C2257.88 734.64 2254 739.03 2254 739.73C2254 740.67 2256.56 741 2263.94 741C2274.34 741 2276.55 741.88 2273.59 744.85C2271.29 747.14 2248.48 747.85 2245.6 745.72ZM252.71 727.64C244.21 725.24 237.61 718.17 234.87 708.5C233.29 702.92 233.63 688.8 235.49 682.38C238.46 672.15 247.04 666.18 260.12 665.23C271.46 664.41 280.98 669.27 285.62 678.24C287.19 681.26 287.16 681.45 285.01 683.19C282.39 685.31 280.48 685.49 279.05 683.75C278.49 683.06 276.9 681.09 275.53 679.37C267.81 669.72 251.03 671.2 245.22 682.05C243.07 686.08 242.87 687.48 243.19 697C243.45 705.12 243.99 708.41 245.57 711.5C248.31 716.86 254.41 720 262.06 720C268.98 720 273.44 717.34 276.82 711.21C278.81 707.61 279.62 707 282.37 707C287.15 707 288.21 708.55 286.4 712.9C281.59 724.43 265.83 731.33 252.71 727.64ZM419.86 727.43C413.13 725.36 405.94 718.47 402.49 710.8C400.2 705.72 399.65 703.04 399.62 697C399.56 682.59 404.94 672.8 415.66 667.78C421.7 664.95 422.77 664.77 430.38 665.24C448.25 666.36 459.1 677.9 459.3 696C459.41 706.08 456.82 712.36 449.59 719.58C440.61 728.54 431.39 730.98 419.86 727.43ZM1141.25 727.12C1136.54 725.49 1134.58 724.28 1130.27 720.31C1129.56 719.66 1127.79 716.76 1126.34 713.87C1124.24 709.7 1123.6 706.72 1123.22 699.43C1122.36 682.92 1126.54 673.34 1136.82 668.29C1141.76 665.86 1143.67 665.5 1151.5 665.5C1159.25 665.5 1161.12 665.85 1164.95 668C1170.15 670.92 1176.23 678.39 1175.8 681.32C1175.62 682.52 1174.33 683.73 1172.61 684.3C1169.93 685.19 1169.39 684.89 1165.11 680.14C1159.98 674.45 1156.99 673 1150.4 673C1141.7 673 1135.18 677.96 1132.91 686.3C1131.29 692.23 1132.5 706.34 1135.08 711.67C1137.98 717.65 1143.81 720.37 1152.54 719.82C1158.22 719.46 1159.4 719.01 1162.43 716.07C1164.32 714.24 1166.39 711.48 1167.02 709.94C1168.39 706.65 1169.64 706.02 1173.4 706.74C1177.11 707.45 1177.61 709.31 1175.41 714.2C1171.91 721.96 1159.73 729.06 1150.07 728.97C1148.11 728.95 1144.14 728.12 1141.25 727.12ZM1309.7 727.62C1295.55 722.34 1288.25 710.38 1289.21 694.08C1289.94 681.73 1295.16 672.71 1304.5 667.67C1307.8 665.88 1310.16 665.51 1318 665.51C1326.37 665.51 1328.11 665.83 1332.59 668.19C1338.55 671.33 1343.45 676.57 1346.38 682.95C1349.62 689.97 1349.37 702.64 1345.85 710.15C1342.76 716.75 1336.84 723.02 1330.79 726.11C1325.39 728.87 1315.04 729.61 1309.7 727.62ZM2136.71 727.34C2124.97 723.28 2118.9 713.64 2118.22 698C2117.71 686.2 2119.93 679.31 2126.37 672.69C2136.83 661.92 2157.04 662.42 2166.97 673.7C2171.46 678.81 2171.91 680.87 2169.07 683.44C2166.57 685.7 2164.03 684.79 2161.5 680.72C2154.89 670.08 2136.08 670.8 2130.29 681.91C2128.35 685.63 2128.01 687.8 2128.04 695.91C2128.12 713.23 2133.03 720.1 2145.41 720.21C2153 720.28 2158.29 716.89 2163.38 708.68C2164.9 706.24 2165.55 705.96 2168.32 706.54C2170.07 706.91 2171.82 707.51 2172.22 707.87C2172.62 708.24 2171.9 710.78 2170.63 713.53C2168.22 718.73 2163.25 723.79 2157.74 726.63C2153.13 729.02 2142.59 729.37 2136.71 727.34ZM2303.15 727.15C2296.56 724.8 2293.44 722.54 2289.26 717.09C2284.69 711.13 2282.66 703.42 2283.21 694.08C2284.25 676.48 2295.26 665 2311.08 665C2323.65 665 2332.97 669.99 2338.76 679.83C2341.34 684.22 2341.5 685.22 2341.5 696.5C2341.5 707.75 2341.33 708.79 2338.79 713.11C2331.31 725.83 2316.17 731.79 2303.15 727.15ZM299.38 725.37C299 723.86 298.97 710.03 299.31 694.64C299.99 664.43 299.92 664.75 305.5 665.24L308.5 665.5L309 678L309.5 690.5L325 690.5L340.5 690.5L340.78 677.69L341.06 664.89L345.28 665.19L349.5 665.5L349.77 695.38C349.96 717.21 349.71 725.64 348.85 726.68C348.17 727.5 346.36 727.97 344.59 727.8L341.5 727.5L341.22 713.75L340.94 700L325 700L309.06 700L308.78 713.75L308.5 727.5L304.28 727.81C300.41 728.09 300.01 727.89 299.38 725.37ZM472 696.5L472 664.88L475.75 665.19L479.5 665.5L480 678L480.5 690.5L496 690.5L511.5 690.5L511.78 677.74L512.06 664.99L516.28 665.63C518.6 665.99 520.66 666.41 520.86 666.58C521.06 666.75 521.46 680.08 521.75 696.2C522.35 728.8 522.41 728.45 515.82 727.82L512.5 727.5L512.22 713.75L511.94 700L496 700L480.06 700L479.78 713.75L479.5 727.5L475.75 727.81L472 728.12L472 696.5ZM1189.67 727.33C1189.3 726.97 1189 713.23 1189 696.81L1189 666.96L1191.43 665.85C1192.76 665.24 1195.01 665.04 1196.43 665.39L1199 666.04L1199 678.52L1199 691L1213.88 691C1225.46 691 1229.01 690.69 1229.92 689.59C1230.71 688.65 1231 684.44 1230.8 676.84L1230.5 665.5L1234.5 665.5L1238.5 665.5L1238.77 695.38C1238.95 716.59 1238.7 725.66 1237.89 726.63C1237.27 727.38 1235.46 728 1233.88 728C1230.65 728 1230.94 729.63 1230.64 710L1230.5 700.5L1214.75 700.22L1199 699.95L1199 712.77C1199 721.42 1198.61 725.99 1197.8 726.8C1196.52 728.08 1190.79 728.45 1189.67 727.33ZM1361.67 727.33C1361.3 726.97 1361 712.77 1361 695.78L1361 664.89L1365.25 665.19L1369.5 665.5L1369.78 678.28L1370.06 691.05L1385.28 690.78L1400.5 690.5L1401 678L1401.5 665.5L1405 665.76C1406.92 665.91 1409.07 666.24 1409.76 666.49C1410.75 666.85 1410.97 673.53 1410.76 697.22L1410.5 727.5L1406.6 727.82C1404.16 728.02 1402.39 727.65 1401.87 726.82C1401.41 726.09 1401.02 719.76 1401.02 712.75L1401 700L1385.5 700L1370 700L1370 712.07C1370 718.7 1369.53 725 1368.96 726.07C1367.95 727.95 1363.13 728.79 1361.67 727.33ZM2184.61 726.42C2184.27 725.55 2184 711.58 2184 695.39C2184 672.73 2184.29 665.84 2185.25 665.5C2185.94 665.26 2188.07 665.41 2190 665.82L2193.5 666.58L2193.75 676.54C2194.14 692.36 2192.75 691 2208.54 691L2222.05 691L2223.02 688.43C2223.56 687.02 2224 681.46 2224 676.07L2224 666.26L2227.69 665.66C2234.29 664.59 2234.18 664 2233.55 696.77C2233.24 712.96 2232.74 726.61 2232.44 727.11C2232.13 727.6 2230.12 728 2227.97 728L2224.06 728L2223.78 714.25L2223.5 700.5L2208.74 700.22L2193.99 699.95L2194.07 712.95C2194.11 720.1 2193.86 726.42 2193.51 726.98C2192.47 728.67 2185.3 728.22 2184.61 726.42ZM2355.49 725.75C2355.19 724.51 2355.07 710.45 2355.22 694.5L2355.5 665.5L2359.5 665.5L2363.5 665.5L2363.78 678.25L2364.06 691L2378.83 691C2388.98 691 2393.97 690.63 2394.8 689.8C2395.6 689 2396 684.63 2396 676.74L2396 664.88L2399.75 665.19L2403.5 665.5L2403.5 696.5L2403.5 727.5L2399.75 727.81L2396 728.12L2396 714.06L2396 700L2380 700L2364 700L2364 712.8C2364 726.66 2363.54 728 2358.82 728C2356.76 728 2355.89 727.41 2355.49 725.75ZM438.82 717.77C448.59 713.21 452.86 697.17 447.63 684.65C444.44 677.02 435.72 672.34 426.47 673.29C414.42 674.54 409.51 681.24 409.51 696.5C409.5 710.61 413.92 717.45 424.59 719.84C429.42 720.93 433.23 720.37 438.82 717.77ZM1328.19 717.87C1335.74 714.09 1339.44 706.01 1338.81 694.67C1338.33 685.88 1335.98 680.72 1330.75 676.93C1323.56 671.72 1311.58 671.79 1305.56 677.08C1300.68 681.36 1298.7 686.98 1298.7 696.52C1298.7 709.62 1303.25 717.09 1312.72 719.53C1318.29 720.96 1323.02 720.45 1328.19 717.87ZM2321.36 718.62C2333.83 713.41 2337.28 689.66 2327.1 679C2318.47 669.95 2300.3 671.6 2295.37 681.88C2293.2 686.4 2292.35 700.9 2293.92 706.7C2295.29 711.78 2299.3 716.79 2303.45 718.59C2307.46 720.34 2317.21 720.36 2321.36 718.62ZM259.31 651.75C258.86 651.06 258.27 632.5 258 610.5L257.5 570.5L215 570C191.62 569.73 171.94 569.14 171.25 568.69C169.25 567.39 169.81 565.08 172.25 564.54C173.49 564.27 193.18 563.7 216 563.27L257.5 562.5L257.76 502.9L258.02 443.31L245.85 442.65C239.16 442.29 222.39 442 208.59 441.99C182.14 441.98 176 441.51 176 439.52C176 437.62 187.8 437 223.53 437C249.51 437 255.97 436.74 256.89 435.64C257.7 434.65 257.94 418.05 257.76 375.39L257.5 316.5L216.5 315.92C193.95 315.6 175.39 315.26 175.25 315.17C175.11 315.08 175 313.93 175 312.62C175 310.99 175.71 310.04 177.25 309.63C178.49 309.3 196.66 309.02 217.63 309.01C248.57 309 255.97 308.74 256.89 307.64C257.7 306.65 257.94 290.05 257.76 247.39L257.5 188.5L213.5 187.97C189.3 187.68 169.39 187.35 169.25 187.22C168.41 186.47 169.21 182.98 170.25 182.86C170.94 182.78 190.85 182.44 214.5 182.11L257.5 181.5L258 143.5C258.5 105.71 258.51 105.5 260.62 105.2C261.93 105.01 263.03 105.59 263.48 106.7C263.88 107.69 264.45 124.99 264.75 145.13L265.28 181.77L304.62 182.16C344.81 182.56 348.47 182.93 345.15 186.25C344.21 187.2 334.3 187.58 304.44 187.84L264.98 188.18L265.24 248.34L265.5 308.5L308.2 309C353.2 309.53 355.63 309.79 351.67 313.76C350.08 315.35 346.27 315.53 307.46 315.8L264.98 316.1L265.24 376.3L265.5 436.5L308.17 437C331.63 437.27 351.18 437.85 351.61 438.27C352.03 438.7 351.62 439.81 350.68 440.75C349.15 442.27 344.83 442.48 306.99 442.84L265 443.24L265 503.12L265 563L283.75 563.11C312.23 563.27 344.74 564.41 345.61 565.27C346.03 565.7 345.61 566.82 344.66 567.77C342.82 569.61 341.54 569.67 286.5 570.27L265.5 570.5L265 609.5C264.63 638.66 264.18 649.07 263.21 650.75C261.77 653.28 260.51 653.6 259.31 651.75ZM1148.4 651.25C1147.96 650.29 1147.42 631.9 1147.22 610.39L1146.84 571.28L1139.27 570.64C1135.11 570.29 1117.25 569.97 1099.6 569.94C1081.94 569.91 1065.7 569.57 1063.51 569.18C1058.88 568.36 1057.39 565.4 1061.18 564.56C1062.46 564.28 1082.17 563.7 1105 563.27L1146.5 562.5L1146.76 502.87L1147.02 443.23L1104.03 442.84C1059.99 442.44 1057.92 442.25 1059.34 438.57C1059.87 437.18 1064.76 437 1102.35 437C1136.92 437 1144.96 436.75 1145.89 435.64C1146.7 434.65 1146.94 418.05 1146.76 375.39L1146.5 316.5L1106.5 316C1084.5 315.73 1065.94 315.14 1065.25 314.69C1063.2 313.36 1063.81 310.29 1066.25 309.63C1067.49 309.3 1085.62 309.02 1106.55 309.01C1134.8 309 1144.91 308.69 1145.8 307.8C1146.71 306.89 1147 292.09 1147 247.3L1147 188L1104.58 188C1081.25 188 1061.45 187.73 1060.58 187.39C1058.71 186.67 1058.45 183.06 1060.25 182.86C1060.94 182.78 1080.62 182.44 1104 182.11L1146.5 181.5L1147.1 143.5C1147.43 122.6 1147.76 105.36 1147.85 105.18C1147.93 105 1149.01 105 1150.25 105.18C1152.17 105.45 1152.59 106.29 1153.15 111C1153.51 114.03 1153.85 131.18 1153.9 149.13L1154 181.75L1193.99 182.17C1234.36 182.58 1238.17 182.95 1234.39 186.09C1233.01 187.24 1225.34 187.56 1193.34 187.83L1153.98 188.16L1154.24 248.33L1154.5 308.5L1196.7 309C1239.69 309.51 1242.08 309.74 1240.72 313.28C1239.83 315.6 1232.74 316 1192.35 316L1153.98 316L1154.24 376.25L1154.5 436.5L1194.67 437C1216.76 437.27 1235.11 437.77 1235.44 438.11C1235.78 438.44 1235.29 439.34 1234.37 440.11C1233.04 441.21 1225.18 441.63 1196.1 442.14C1175.97 442.49 1158.26 442.83 1156.74 442.89L1153.98 443L1154.24 502.75L1154.5 562.5L1193 563.21C1217.18 563.65 1232.4 564.32 1233.91 565.01C1236.18 566.04 1236.22 566.21 1234.63 567.8C1233.11 569.32 1228.76 569.56 1193.72 570.11C1172.15 570.45 1154.41 570.78 1154.29 570.86C1154.18 570.94 1153.95 588.71 1153.79 610.35C1153.56 641.9 1153.23 650.02 1152.13 651.35C1150.37 653.46 1149.42 653.44 1148.4 651.25ZM2143.64 650.8C2143.3 649.53 2143.02 631.12 2143.01 609.88L2143 571.26L2137.25 570.65C2134.09 570.32 2115.22 570.03 2095.32 570.02C2058.26 570.01 2053.55 569.57 2054.19 566.25C2054.7 563.57 2060.55 563.18 2102.55 563.09C2130.71 563.02 2140.91 562.69 2141.8 561.8C2142.71 560.89 2143 546.23 2143 501.95L2143 443.31L2130.25 442.66C2123.24 442.3 2104.9 442 2089.5 441.99C2060.22 441.98 2054 441.54 2054 439.52C2054 437.63 2066.64 437.01 2105.63 437.01C2134.05 437 2140.97 436.74 2141.89 435.64C2142.7 434.65 2142.94 418.05 2142.76 375.39L2142.5 316.5L2102.73 315.95C2067.18 315.45 2062.79 315.22 2061.28 313.71C2057.44 309.87 2060.1 309.57 2101.5 309.16C2131.35 308.86 2141.2 308.46 2141.98 307.52C2142.67 306.69 2142.93 286.81 2142.76 247.39L2142.5 188.5L2101.5 188L2060.5 187.5L2060.18 185.25C2060 184.01 2060.23 182.94 2060.68 182.86C2061.13 182.79 2079.72 182.45 2102 182.11L2142.5 181.5L2143 143.5C2143.49 106.33 2143.54 105.5 2145.5 105.5C2147.23 105.5 2147.59 106.38 2148.13 112C2148.48 115.58 2148.82 132.73 2148.88 150.13L2149 181.76L2190.98 182.16C2233.44 182.56 2237.22 182.91 2233.39 186.09C2232.01 187.24 2224.04 187.56 2190.35 187.85L2149 188.2L2149 248.56L2149 308.92L2191.45 309.21C2219.48 309.4 2234.26 309.86 2234.95 310.55C2235.69 311.29 2235.58 312.19 2234.59 313.55C2233.22 315.42 2231.42 315.51 2191.08 315.83L2149 316.15L2149 376.48L2149 436.8L2187.95 437.15C2215.29 437.4 2227.24 437.84 2228.04 438.64C2228.89 439.49 2228.84 439.99 2227.84 440.64C2227.1 441.11 2210.07 441.79 2190 442.14C2169.93 442.5 2152.49 442.84 2151.25 442.89L2149 443L2149 503L2149 563L2184.75 563.07C2204.41 563.11 2222.52 563.45 2224.99 563.82C2230.33 564.63 2231.72 567.4 2227.58 568.97C2226.11 569.53 2208.72 570.05 2187 570.17L2149 570.4L2148.89 602.45C2148.76 641.92 2148.14 652.36 2145.88 652.79C2144.88 652.98 2144.02 652.21 2143.64 650.8ZM721.2 639.8C719.26 637.86 719.8 635.13 722.93 631.19C724.58 629.11 725.99 625.98 726.18 624C726.48 620.68 726.32 620.48 723 620L719.5 619.5L719.21 611.75L718.92 604L727.6 604L736.28 604L735.78 615.4C735.2 628.41 733.11 634.29 727.55 638.53C723.9 641.32 722.91 641.51 721.2 639.8ZM1597.5 634.83C1592.26 631.94 1591 629.84 1591 624.05C1591 614.72 1593.83 612.36 1609.01 609.05C1614.1 607.94 1618.87 606.52 1619.63 605.89C1622.89 603.19 1620.08 598.77 1614.33 597.55C1608.97 596.41 1603.94 597.96 1600.38 601.84C1597.43 605.06 1596.9 605.28 1594.57 604.21C1591.4 602.77 1591.35 601.27 1594.29 596.9C1597.74 591.77 1601.15 590.5 1611.5 590.5C1628.23 590.51 1630.47 593.94 1630.49 619.5L1630.5 635.5L1627.57 635.83C1625.42 636.08 1624.17 635.55 1622.89 633.85L1621.14 631.53L1616.54 633.77C1611.47 636.23 1601.08 636.81 1597.5 634.83ZM1642 613.06L1642 590L1645.01 590C1646.77 590 1648.72 590.82 1649.72 591.98C1651.29 593.82 1651.59 593.85 1653.79 592.4C1657.52 589.96 1666.24 589.44 1671.28 591.36C1678.57 594.15 1679.44 596.68 1679.84 616.3C1680.2 634.54 1679.84 636 1675.03 636L1672.31 636L1671.65 619.87C1671.26 610.47 1670.46 602.66 1669.74 601.15C1668.12 597.78 1663.6 596.49 1658.35 597.9C1652.57 599.46 1651.81 601.79 1651.1 620L1650.5 635.5L1646.25 635.81L1642 636.11L1642 613.06ZM1699.91 633.68C1693.65 630.38 1690.78 624.84 1690.2 614.94C1689.43 601.62 1693.66 593.58 1702.78 591.04C1707.98 589.6 1712.61 589.75 1715.92 591.46C1717.48 592.26 1719.03 592.64 1719.37 592.29C1719.72 591.95 1720 587.67 1720 582.78L1720 573.89L1724.25 574.19L1728.5 574.5L1728.5 605L1728.5 635.5L1725.68 635.82C1723.51 636.07 1722.73 635.67 1722.31 634.07C1721.63 631.49 1720.32 631.47 1716.5 634C1712.35 636.75 1705.49 636.62 1699.91 633.68ZM1613.76 628.01C1617.56 625.69 1620.99 620.52 1621 617.12C1621 614.81 1620.84 614.76 1615.08 615.41C1611.82 615.78 1607.21 616.64 1604.83 617.33C1600.86 618.47 1600.47 618.87 1600.2 622.17C1599.95 625.09 1600.4 626.17 1602.58 627.89C1605.94 630.53 1609.56 630.57 1613.76 628.01ZM1715.39 626.91C1719.3 623.83 1721 619.78 1721 613.52C1721 602.74 1717.15 598 1708.39 598C1704.01 598 1702.99 598.37 1701.61 600.47C1697.05 607.44 1697.58 619.97 1702.7 626.06C1705.79 629.73 1711.33 630.1 1715.39 626.91ZM107 569.94L107 538.89L111.25 539.19L115.5 539.5L115.78 551.28L116.06 563.05L131.28 562.78L146.5 562.5L146.78 550.75L147.06 539L151.55 539L156.03 539L155.76 569.75L155.5 600.5L151.5 600.5L147.5 600.5L147.22 586.25L146.95 572L131.47 572L116 572L116 585.3C116 599.95 115.62 601 110.3 601L107 601L107 569.94ZM379.14 599.91C366.35 596.01 359.74 585.47 359.78 569C359.81 553.53 366.09 543.46 378.2 539.43C388.51 536.01 401.5 538.5 409.82 545.5C417.81 552.22 421.08 567.83 417.17 580.63C414.62 588.96 410.95 593.62 403.87 597.48C399.44 599.88 397.15 600.43 390.51 600.66C386.11 600.81 380.99 600.47 379.14 599.91ZM431 570L431 539L436 539L441 539L441 551L441 563L455.3 563C465.09 563 469.98 562.62 470.8 561.8C471.59 561.01 472 556.85 472 549.75L472 538.89L476.75 539.2L481.5 539.5L481.13 569C480.91 586.6 480.35 599 479.76 599.75C478.44 601.39 474.54 601.35 473.15 599.69C472.53 598.93 471.94 592.88 471.78 585.44L471.5 572.5L456.25 572.22L441 571.95L441 584.54C441 591.47 440.53 598 439.96 599.07C439.21 600.48 437.86 601 434.96 601L431 601L431 570ZM996.71 600.38C996.32 599.99 996 585.99 996 569.28L996 538.89L1000.25 539.19L1004.5 539.5L1004.78 551.28L1005.06 563.05L1020.78 562.78L1036.5 562.5L1036.78 550.75L1037.06 539L1041.05 539L1045.03 539L1044.76 569.75L1044.5 600.5L1040.75 600.81L1037 601.12L1037 586.56L1037 572L1021.03 572L1005.05 572L1004.78 586.25L1004.5 600.5L1000.96 600.8C999.02 600.96 997.11 600.77 996.71 600.38ZM1267.03 599.26C1260.58 596.99 1252.77 588.85 1250.51 582.04C1247.02 571.53 1248.94 556.52 1254.8 548.44C1261.26 539.52 1276.86 535.47 1289.09 539.53C1296.13 541.87 1303.99 549.57 1306.32 556.44C1308.46 562.7 1308.5 574.94 1306.42 581.97C1304.34 588.96 1296.61 596.92 1289.56 599.32C1283.46 601.4 1273.01 601.37 1267.03 599.26ZM1321 569.95L1321 538.89L1325.75 539.2L1330.5 539.5L1330.78 551.28L1331.06 563.05L1345.78 562.78L1360.5 562.5L1360.78 550.75L1361.06 539L1366.15 539L1371.24 539L1370.84 568.38C1370.42 600.19 1370.2 601.4 1365.09 600.8C1362.85 600.54 1362.41 599.88 1361.82 596C1361.45 593.52 1361.11 587.11 1361.07 581.75L1361 572L1346.15 572L1331.29 572L1330.65 579.65C1330.29 583.86 1330 589.84 1330 592.95C1330 599.45 1328.9 601 1324.3 601L1321 601L1321 569.95ZM1991.61 599.42C1991.27 598.55 1991 584.57 1991 568.36L1991 538.89L1995.75 539.2L2000.5 539.5L2000.78 551.28L2001.06 563.05L2016.28 562.78L2031.5 562.5L2031.78 550.75L2032.06 539L2036.55 539L2041.03 539L2040.76 569.75L2040.5 600.5L2036.5 600.5L2032.5 600.5L2032.22 586.25L2031.95 572L2016.47 572L2001 572L2001 585.3C2001 594.31 2000.61 598.99 1999.8 599.8C1998.02 601.58 1992.33 601.31 1991.61 599.42ZM2262.99 600.12C2254.34 597.29 2247.25 590.11 2244.51 581.4C2241.93 573.19 2242.78 560.46 2246.42 552.76C2251.29 542.46 2258.96 538 2271.78 538C2284.74 538 2293.63 543.43 2299.2 554.76C2302.11 560.68 2302.5 562.39 2302.47 569.48C2302.45 575.99 2301.95 578.56 2299.82 583.15C2296.97 589.31 2291 595.9 2285.8 598.63C2282.14 600.55 2267.29 601.53 2262.99 600.12ZM2315 569.94L2315 538.89L2319.25 539.19L2323.5 539.5L2323.78 551.28L2324.06 563.05L2339.28 562.78L2354.5 562.5L2354.78 550.75L2355.06 539L2359.55 539L2364.03 539L2363.76 569.75L2363.5 600.5L2359.5 600.5L2355.5 600.5L2355.22 586.25L2354.95 572L2339.47 572L2324 572L2324 585.3C2324 599.95 2323.62 601 2318.3 601L2315 601L2315 569.94ZM398.69 590.44C407.2 585.46 411.07 575.45 408.98 563.85C407.54 555.88 404.97 551.65 399.66 548.54C393.37 544.86 388.55 544.44 381.74 546.99C372.7 550.38 369.01 556.9 369.01 569.5C369.01 577.57 370.48 582.34 374.3 586.68C381 594.32 389.77 595.67 398.69 590.44ZM1283.19 592.82C1289.41 590.96 1295.69 584.77 1297.48 578.75C1300.42 568.85 1298.54 556.81 1293.27 551.76C1286.9 545.65 1275.82 544.15 1267.93 548.32C1261.16 551.9 1258.49 557.91 1258.53 569.47C1258.57 579.91 1260.61 585.07 1266.43 589.51C1272.09 593.83 1276.75 594.75 1283.19 592.82ZM2279.54 592.12C2292.53 586.22 2297.23 566.67 2288.73 553.88C2282.03 543.8 2262.28 543.35 2256.23 553.13C2251.69 560.48 2251.25 578.15 2255.44 584.55C2258.76 589.61 2266.46 593.71 2273 593.89C2274.38 593.93 2277.32 593.13 2279.54 592.12ZM1270.32 473.62C1256.34 469.06 1248.54 456.99 1248.71 440.19C1248.94 417.55 1270.05 404.09 1291.11 413.14C1297.04 415.69 1302.35 421.37 1305.84 428.88C1309.64 437.09 1309.6 448.24 1305.72 456.14C1299.05 469.76 1282.92 477.72 1270.32 473.62ZM2264.29 473.55C2261.98 472.83 2258.33 470.95 2256.19 469.37C2246.86 462.51 2243 454.5 2243 442.03C2243 428.35 2248.73 417.75 2258.75 412.86C2265.3 409.67 2277.44 409.57 2284.12 412.65C2290.77 415.71 2296.53 421.33 2299.68 427.84C2302.01 432.65 2302.42 434.78 2302.42 442C2302.43 452.13 2300.42 457.42 2293.88 464.51C2288.92 469.9 2284.64 472.3 2277.2 473.88C2270.74 475.25 2269.63 475.22 2264.29 473.55ZM40.67 473.33C40.3 472.97 40 458.79 40 441.83L40 411L43.97 411L47.94 411L48.22 423.75L48.5 436.5L62.86 436.78C72.6 436.97 77.67 436.69 78.61 435.91C79.65 435.04 80 431.77 80 422.82L80 410.89L84.25 411.19L88.5 411.5L88.76 441.71C89.03 471.54 89 471.93 86.92 473.04C85.76 473.66 83.73 473.9 82.41 473.57C80.01 472.96 80 472.92 80 458.98L80 445L64 445L48 445L48 458.3C48 467.31 47.61 471.99 46.8 472.8C45.51 474.09 41.75 474.42 40.67 473.33ZM120.39 472.44C114.63 470.32 108.95 465.15 105.47 458.86C102.66 453.79 102.5 452.88 102.5 442C102.5 431.9 102.78 429.95 104.84 426C110.37 415.35 118.61 410.57 131.5 410.53C138.51 410.5 140.16 410.86 144.82 413.45C155.14 419.16 160.12 427.31 160.79 439.59C161.59 454.15 156.51 464.68 145.89 470.46C141.45 472.88 139.14 473.43 132.51 473.67C127.17 473.86 123.13 473.45 120.39 472.44ZM364.67 473.33C364.3 472.97 364 458.79 364 441.83L364 411L368.97 411L373.94 411L374.22 423.75L374.5 436.5L388.77 436.78C399.98 437 403.15 436.77 403.56 435.71C403.84 434.98 404.39 429.23 404.79 422.94L405.5 411.5L409.75 411.19L414 410.89L414 441.24C414 473.68 413.95 474 409 474C404.45 474 404 472.59 404 458.3L404 445L389 445L374 445L374 458.3C374 467.31 373.61 471.99 372.8 472.8C371.52 474.08 365.79 474.45 364.67 473.33ZM997.11 472.63C996.3 471.66 996.05 462.59 996.23 441.38L996.5 411.5L1000.72 411.19L1004.94 410.89L1005.22 423.69L1005.5 436.5L1019.86 436.78C1029.6 436.97 1034.67 436.69 1035.61 435.91C1036.65 435.04 1037 431.78 1037 422.88L1037 411L1041 411L1045 411L1045 441.38C1045 474.1 1044.93 474.55 1039.81 473.83C1037.55 473.51 1037.49 473.19 1037 459.5L1036.5 445.5L1020.75 445.22L1005 444.95L1005 458.27C1005 467.31 1004.61 471.99 1003.8 472.8C1002.19 474.41 998.51 474.32 997.11 472.63ZM1321.67 473.33C1321.3 472.97 1321 458.79 1321 441.83L1321 411L1323.25 411.01C1329.33 411.05 1330 411.79 1330 418.47C1330 421.9 1330.29 427.47 1330.64 430.85L1331.28 437L1344.94 437C1354.23 437 1358.98 436.62 1359.8 435.8C1360.6 435 1361 430.64 1361 422.8L1361 411L1366 411L1371 411L1371 441.3C1371 473.63 1370.94 474.01 1366.05 473.98C1361.34 473.96 1361.08 473.21 1360.78 458.96L1360.5 445.5L1345.75 445.22L1331 444.95L1331 457.82C1331 469.02 1330.76 470.9 1329.17 472.35C1327.34 474 1322.92 474.59 1321.67 473.33ZM1991.67 473.33C1991.3 472.97 1991 459.3 1991 442.96C1991 410.2 1990.93 410.58 1997.18 411.18L2000.5 411.5L2000.78 424.28L2001.06 437.05L2016.28 436.78L2031.5 436.5L2031.78 423.69L2032.06 410.89L2036.28 411.19L2040.5 411.5L2040.77 441.38C2041.04 472.81 2040.89 474 2036.58 474C2032.49 474 2032 472.31 2032 458.3L2032 445L2016.5 445L2001 445L2001 457.85C2001 469.02 2000.76 470.91 1999.17 472.35C1997.34 474 1992.92 474.59 1991.67 473.33ZM2316.25 473.34C2315.29 472.95 2315 465.71 2315 441.92L2315 411L2318.89 411C2321.52 411 2322.98 411.51 2323.39 412.58C2323.73 413.45 2324 419.31 2324 425.61L2324 437.05L2339.25 436.78L2354.5 436.5L2354.78 423.69L2355.06 410.89L2359.28 411.19L2363.5 411.5L2363.76 441.76L2364.03 472.03L2361.44 473.21C2359.59 474.05 2358.36 474.09 2357.17 473.34C2355.77 472.45 2355.46 470.11 2355.22 458.64L2354.94 445L2339.47 445L2324 445L2324 457.85C2324 469.02 2323.76 470.91 2322.17 472.35C2320.34 474 2318.61 474.29 2316.25 473.34ZM137.36 465.06C147.79 462.64 154.43 447.73 151.06 434.31C148.39 423.7 140.78 418.5 128.9 419.18C120.62 419.64 117.51 421.59 114.07 428.45C112.13 432.33 111.63 434.92 111.57 441.4C111.41 460.14 120.93 468.87 137.36 465.06ZM1289.71 462.37C1300.97 453.32 1302.14 434.14 1292.06 424.06C1285.23 417.23 1273.85 416.41 1265.77 422.16C1257.15 428.3 1255.63 449.91 1263.15 459.47C1268.82 466.67 1282.5 468.16 1289.71 462.37ZM2280.14 464.59C2287.73 461.41 2291.99 454.96 2292.75 445.47C2293.32 438.44 2291.22 429.82 2287.92 425.63C2281.39 417.33 2266.22 416.15 2258.59 423.35C2254.38 427.32 2253.01 432.17 2253.03 443C2253.05 454.98 2255.59 460.16 2263.5 464.33C2267.26 466.32 2275.68 466.45 2280.14 464.59ZM40 316.06L40 285L43.97 285L47.94 285L48.22 296.75L48.5 308.5L64 308.5L79.5 308.5L79.78 296.75L80.06 285L84.53 285L89 285L89 314.88C89 347.47 89 347.47 83.31 346.82L80.5 346.5L80 332L79.5 317.5L70 317.18C64.78 317.01 57.7 317.16 54.28 317.51L48.05 318.15L47.78 332.33L47.5 346.5L43.75 346.81L40 347.12L40 316.06ZM123.33 346.1C110.16 342.7 102 330.85 102 315.1C102 305.14 104.22 298.17 109.18 292.53C114.95 285.97 120.76 283.53 130.5 283.56C139.94 283.59 146.32 286 152.33 291.8C158.62 297.87 160.32 302.15 160.8 313.13C161.19 321.97 161 323.25 158.48 328.87C155.42 335.69 149.3 342 143.32 344.53C138.85 346.41 127.87 347.28 123.33 346.1ZM929.67 346.33C929.3 345.97 929 332.02 929 315.33L929 285L933.5 285L938 285L938 297.03L938 309.05L953.25 308.78L968.5 308.5L968.78 296.75L969.06 285L973.55 285L978.03 285L977.76 315.75L977.5 346.5L974.1 346.82C972.06 347.02 970.38 346.62 969.87 345.82C969.41 345.1 969.02 338.54 969.02 331.25L969 318L965.25 317.87C963.19 317.79 956.21 317.61 949.75 317.46L938 317.19L938 330.9C938 340.22 937.62 344.98 936.8 345.8C935.52 347.08 930.77 347.44 929.67 346.33ZM1010.86 345.43C1004.57 343.5 996.88 336.41 993.89 329.78C990.62 322.56 990.54 306.93 993.72 299.9C998.73 288.82 1007 283.8 1020.5 283.61C1027.38 283.52 1029.3 283.9 1034.22 286.31C1043.92 291.07 1049.18 299.18 1050.64 311.63C1051.31 317.32 1049.76 325.45 1046.91 331.11C1045.92 333.1 1042.78 336.81 1039.95 339.35C1031.95 346.55 1021.55 348.72 1010.86 345.43ZM1925 316L1925 285L1929 285L1933 285L1933.19 293.25C1933.29 297.79 1933.4 303.07 1933.44 305L1933.5 308.5L1947.86 308.78C1957.6 308.97 1962.67 308.69 1963.61 307.91C1964.64 307.05 1965 303.93 1965 295.88L1965 285L1969.5 285L1974 285L1974 314.88C1974 347.47 1974 347.47 1968.31 346.82L1965.5 346.5L1965.22 332.25C1964.98 319.61 1964.75 317.98 1963.22 317.84C1962.28 317.76 1955.07 317.64 1947.21 317.59L1932.92 317.48L1933.06 331.18C1933.13 338.71 1932.9 345.35 1932.54 345.94C1932.18 346.52 1930.33 347 1928.44 347L1925 347L1925 316ZM2005.97 345.52C1999.67 343.5 1993.63 337.98 1990.31 331.22C1987.75 326 1987.5 324.53 1987.5 314.5C1987.5 302.12 1989.1 297.05 1994.81 291.34C2000.29 285.86 2006.36 283.6 2015.48 283.63C2025.34 283.67 2032.3 286.38 2037.6 292.25C2043.74 299.03 2045.5 304.11 2045.5 315C2045.5 325.67 2043.81 330.73 2038.08 337.26C2031.13 345.18 2016.55 348.93 2005.97 345.52ZM2248 316.06L2248 285L2251.97 285L2255.94 285L2256.22 296.75L2256.5 308.5L2270.86 308.78C2280.6 308.97 2285.67 308.69 2286.61 307.91C2287.64 307.05 2288 303.93 2288 295.88L2288 285L2293.09 285L2298.17 285L2297.93 314.25C2297.79 331.2 2297.29 344.03 2296.72 344.75C2296.19 345.44 2294.3 346 2292.52 346L2289.29 346L2288.65 338.35C2288.29 334.14 2288 327.84 2288 324.35C2288 320.86 2287.89 317.96 2287.75 317.92C2287.61 317.88 2280.42 317.61 2271.78 317.32L2256.05 316.79L2255.78 331.65L2255.5 346.5L2251.75 346.81L2248 347.12L2248 316.06ZM364.66 334.8C364.3 328.59 364.01 314.84 364 304.25L364 285L368.97 285L373.94 285L374.22 296.75L374.5 308.5L389 308.5L403.5 308.5L403.78 296.75L404.06 285L409.03 285L414 285L414 314.3C414 335.76 413.68 343.92 412.8 344.8C412.14 345.46 410.12 346 408.3 346L405 346L404.91 336.75C404.86 331.66 404.53 325.25 404.16 322.5L403.5 317.5L392.5 317.38C386.45 317.31 379.81 317.46 377.75 317.72L374 318.18L373.93 327.34C373.89 332.38 373.55 338.52 373.18 341C372.53 345.3 372.34 345.51 368.91 345.8L365.31 346.1L364.66 334.8ZM1253.99 325.31C1253.99 313.86 1253.7 300.11 1253.34 294.75L1252.7 285L1257.82 285L1262.94 285L1263.22 296.75L1263.5 308.5L1277.36 308.78C1286.73 308.97 1291.67 308.68 1292.61 307.91C1293.64 307.05 1294 303.93 1294 295.88L1294 285L1299.07 285L1304.13 285L1303.49 314.25C1303.13 330.34 1302.66 344.09 1302.43 344.81C1302.16 345.66 1300.71 346.01 1298.26 345.81L1294.5 345.5L1294 331.5L1293.5 317.5L1278.5 317.5L1263.5 317.5L1263 331.5L1262.5 345.5L1258.25 345.81L1254 346.11L1253.99 325.31ZM139.3 337.39C150.19 331.9 154.62 319.19 150.49 305.28C147.83 296.33 138.77 290.33 129.38 291.3C116.68 292.61 111.81 298.83 111.61 314C111.55 318.81 112.08 324.13 112.83 326.25C114.38 330.63 119.15 335.72 123.47 337.6C127.66 339.43 135.46 339.32 139.3 337.39ZM1028.28 337.65C1032.66 335.82 1038.64 328.98 1039.93 324.32C1040.51 322.22 1040.99 317.54 1040.99 313.93C1041 304.51 1037.36 297.51 1030.5 293.77C1024.38 290.44 1019.1 290.24 1011.52 293.08C1003.94 295.91 1001.79 299.99 1001.2 312.64C1000.72 322.88 1001.78 327.4 1005.79 332.17C1010.89 338.22 1021.02 340.69 1028.28 337.65ZM2025.09 336.67C2027.52 335.39 2030.83 332.45 2032.47 330.14C2035.17 326.3 2035.46 325.06 2035.8 316.21C2036.13 307.47 2035.92 306.05 2033.75 302C2028.37 291.95 2014.93 288.33 2004.87 294.23C1999.06 297.64 1997.12 301.61 1996.34 311.75C1995.35 324.58 1999.02 333.17 2007.5 337.84C2011.12 339.83 2020.26 339.22 2025.09 336.67ZM379.7 218.61C361.56 211.89 353.8 190.03 362.96 171.42C367.59 162.03 375.23 157 386.07 156.23C399.09 155.3 410.01 161.24 415.72 172.38C419.46 179.65 420.08 192.16 417.09 200.08C414.52 206.88 408.17 213.77 401.44 217.04C395.44 219.96 385.32 220.69 379.7 218.61ZM1268.17 218.16C1247.12 210.64 1241.7 177.54 1259.08 162.67C1266.6 156.23 1278.33 154.19 1288.32 157.59C1293.9 159.49 1302.35 166.8 1305.02 172.04C1308.91 179.67 1309.2 194.59 1305.61 202.14C1298.87 216.3 1282.54 223.28 1268.17 218.16ZM2007.5 218.67C2005.3 217.93 2002.04 216.58 2000.25 215.64C1996.5 213.69 1989.34 205.04 1988.24 201.15C1987.84 199.69 1987.52 193.1 1987.54 186.5C1987.57 177.24 1987.96 173.79 1989.25 171.37C1992.16 165.93 1996.09 161.99 2001.38 159.2C2005.92 156.8 2007.57 156.5 2016 156.53C2027.17 156.58 2031.15 158.19 2037.71 165.3C2044.63 172.81 2045.42 175.07 2045.46 187.5C2045.49 199.53 2044.31 203.16 2038.06 210.28C2031.23 218.05 2017.23 221.9 2007.5 218.67ZM107 187.94L107 156.89L111.25 157.19L115.5 157.5L115.78 169.78L116.06 182.05L131.28 181.78L146.5 181.5L146.78 169.25L147.06 157L151.55 157L156.03 157L155.76 187.75L155.5 218.5L151.5 218.5L147.5 218.5L147.22 204.75L146.94 191L131.47 191L116 191L116 203.8C116 217.92 115.59 219 110.3 219L107 219L107 187.94ZM431.71 218.38C431.32 217.99 431 204.02 431 187.33L431 157L434.8 157C436.89 157 439.14 157.54 439.8 158.2C440.59 158.99 441 163.25 441 170.73L441 182.05L456.25 181.78L471.5 181.5L471.78 169.2L472.06 156.89L476.78 157.2L481.5 157.5L481.77 186.88C481.95 207.72 481.7 216.66 480.89 217.63C480.27 218.38 478.02 219 475.91 219L472.06 219L471.78 205.25L471.5 191.5L456.28 191.22L441.06 190.95L440.78 204.72L440.5 218.5L436.46 218.8C434.24 218.96 432.11 218.77 431.71 218.38ZM996.71 218.38C996.32 217.99 996 204.02 996 187.33L996 157L1000.5 157L1005 157L1005 169.53L1005 182.05L1020.75 181.78L1036.5 181.5L1036.78 169.25L1037.06 157L1041.05 157L1045.03 157L1044.76 187.75L1044.5 218.5L1040.78 218.81L1037.06 219.12L1036.78 205.31L1036.5 191.5L1020.78 191.22L1005.06 190.95L1004.78 204.72L1004.5 218.5L1000.96 218.8C999.02 218.96 997.11 218.77 996.71 218.38ZM1321 187.94L1321 156.89L1325.25 157.19C1329.44 157.5 1329.5 157.55 1329.74 161.5C1329.87 163.7 1330.25 169.22 1330.58 173.78L1331.18 182.05L1345.84 181.78L1360.5 181.5L1360.78 169.25L1361.06 157L1366.05 157L1371.03 157L1370.76 187.75L1370.5 218.5L1365.75 218.8L1361 219.11L1361 205.05L1361 191L1346 191L1331 191L1331 203.8C1331 212.42 1330.61 216.99 1329.8 217.8C1329.14 218.46 1326.89 219 1324.8 219L1321 219L1321 187.94ZM1925 188L1925 157L1929 157L1933 157L1933.06 161.75C1933.09 164.36 1933.2 169.88 1933.31 174L1933.5 181.5L1949 181.5L1964.5 181.5L1964.78 169.19L1965.06 156.89L1969.28 157.19L1973.5 157.5L1973.5 188L1973.5 218.5L1969.25 218.81L1965 219.11L1965 205.06L1965 191L1948.91 191L1932.82 191L1933.14 203.75C1933.31 210.76 1933.1 217.06 1932.67 217.75C1932.24 218.44 1930.33 219 1928.44 219L1925 219L1925 188ZM2248 188.06L2248 157L2252 157L2256 157L2256 169.53L2256 182.05L2271.75 181.78L2287.5 181.5L2287.78 169.19L2288.06 156.89L2292.28 157.19L2296.5 157.5L2296.77 186.88C2296.95 207.72 2296.7 216.66 2295.89 217.63C2295.27 218.38 2293.24 219 2291.38 219L2288 219L2288 205L2288 191L2272.03 191L2256.06 191L2255.78 204.75L2255.5 218.5L2251.75 218.81L2248 219.12L2248 188.06ZM400.42 208.16C402.68 206.53 405.6 203.08 406.97 200.44C412.46 189.84 408.88 173.26 399.81 167.26C390.61 161.17 376.51 164.2 371.85 173.26C369.13 178.55 368.18 190.99 369.99 197.48C373.66 210.58 389.42 216.11 400.42 208.16ZM1284.22 210.96C1289.06 209.61 1293.54 205.77 1296.28 200.62C1299.4 194.77 1299.43 181.28 1296.34 175.5C1290.87 165.29 1279.59 161.25 1269.5 165.88C1262.52 169.09 1259.33 174.65 1258.33 185.38C1256.63 203.52 1268.56 215.3 1284.22 210.96ZM2021.28 210.94C2026.19 209.57 2031.84 204.55 2034.14 199.51C2036.48 194.34 2036.65 181.5 2034.45 176.22C2031.02 168.02 2025.08 164.62 2014.32 164.7C2002.39 164.79 1996.02 172.38 1996.02 186.5C1996.01 198.83 1999.34 205.89 2006.97 209.75C2011.87 212.22 2015.55 212.53 2021.28 210.94ZM255.15 91.94C245.96 90.11 238.92 83.97 235.72 75C232.04 64.68 232.87 49.32 237.54 41.35C247.37 24.55 276.76 25.14 285.66 42.32C288.94 48.64 281.09 50.43 276.5 44.41C272.47 39.12 268.39 37.01 262.22 37C249.57 36.99 242.83 44.77 242.72 59.49C242.63 72.05 246.28 79.41 254.46 83.12C263.84 87.38 273.54 83.44 278.13 73.5C279.72 70.06 283.39 69.1 286.45 71.34C288.37 72.74 288.37 72.85 286.55 76.89C284.23 82.03 276.51 89.37 271.94 90.78C266.59 92.43 259.92 92.89 255.15 91.94ZM341.65 92.32C341.29 91.96 341 85.22 341 77.33L341 63L325 63L309 63L309 76.38C309 91.05 308.5 92.42 303.31 91.82L300.5 91.5L299.77 62C299.37 45.77 299.25 31.91 299.51 31.19C299.82 30.32 301.41 29.99 304.24 30.19L308.5 30.5L308.78 42.25L309.06 54L312.78 54.14C326.8 54.65 336.82 54.55 338.72 53.87C340.8 53.12 340.95 52.41 341.22 41.8C341.53 29.53 341.83 28.99 347.66 30.45L350.17 31.08L349.47 60.79C349.08 77.13 348.48 90.78 348.13 91.12C347.09 92.14 342.35 93.01 341.65 92.32ZM384.93 91.69C370.09 87.51 362.62 77.09 362.56 60.5C362.54 52.71 362.91 50.69 365.32 45.5C368.6 38.45 371.99 34.62 377.5 31.7C380.8 29.96 383.26 29.59 391.5 29.58C403.24 29.57 406.69 30.85 413.49 37.75C425.8 50.25 424.21 75.98 410.47 86.46C403.22 91.98 393.24 94.03 384.93 91.69ZM1144.33 91.98C1138.24 90.74 1134.73 88.63 1130.25 83.55C1121.31 73.39 1120.33 51.17 1128.29 39.14C1135.68 27.97 1157.91 25.64 1169.04 34.86C1174.01 38.98 1176.8 44.34 1175.06 46.42C1172.86 49.07 1169.63 48.23 1165.45 43.92C1160.24 38.53 1157.1 37 1151.26 37C1144.24 37 1138.12 40.39 1135 46C1132.8 49.96 1132.5 51.7 1132.5 60.5C1132.5 69.31 1132.8 71.03 1135 74.96C1142.65 88.61 1159.85 88.01 1167.08 73.84C1169.2 69.69 1172.03 68.84 1175.46 71.34C1177.87 73.11 1177.03 76.48 1172.75 82.17C1167.02 89.8 1154.61 94.09 1144.33 91.98ZM1230.88 86.36C1230.82 82.59 1230.71 75.9 1230.63 71.5L1230.5 63.5L1214.9 63.23L1199.29 62.95L1198.58 76.68C1198.19 84.23 1197.65 90.76 1197.38 91.2C1196.45 92.7 1190.24 92.07 1189.61 90.42C1189.27 89.55 1189 75.57 1189 59.36L1189 29.89L1193.75 30.2L1198.5 30.5L1198.78 42.1L1199.06 53.71L1210.9 54.25C1217.42 54.55 1224.26 54.49 1226.12 54.11C1229.11 53.51 1229.53 53.03 1229.74 49.96C1229.88 48.06 1230.26 42.76 1230.59 38.2L1231.19 29.89L1234.84 30.2L1238.5 30.5L1238.76 59.54C1239.05 90.9 1238.99 91.29 1233.75 92.55L1231 93.22L1230.88 86.36ZM1274.73 91.97C1262.25 88.85 1254.51 79.95 1251.89 65.71C1250.86 60.09 1250.92 58.14 1252.36 52.32C1255.76 38.49 1263.46 30.83 1275.21 29.57C1298.95 27.03 1312.95 41.23 1310.68 65.55C1309.62 76.83 1303.42 85.72 1293.54 90.08C1288.39 92.37 1279.78 93.23 1274.73 91.97ZM2138.69 92.09C2130.2 90.32 2121.14 80.57 2119.09 70.97C2116.44 58.64 2118.75 44.99 2124.62 38.13C2130.16 31.66 2135.77 29.52 2147.16 29.51C2156.3 29.5 2157.06 29.66 2161.16 32.53C2163.55 34.2 2166.98 37.76 2168.79 40.46C2172.47 45.92 2172.03 47.45 2166.49 48.54C2163.85 49.06 2163.34 48.76 2162.13 45.99C2161.38 44.26 2158.95 41.53 2156.73 39.92C2153.4 37.51 2151.71 37 2147.01 37C2139.51 37 2133.19 40.2 2130.68 45.28C2126.21 54.31 2126.65 70.01 2131.58 77.12C2136.05 83.57 2144.8 86.54 2151.68 83.94C2155.12 82.64 2160.66 77.48 2162.61 73.75C2163.8 71.47 2164.72 71 2167.92 71C2174.39 71 2174.22 74.19 2167.31 82.74C2162.35 88.87 2156.81 91.8 2149 92.39C2145.43 92.66 2140.79 92.53 2138.69 92.09ZM2266.79 91.65C2251.75 87.44 2243.21 71.96 2246.07 54.07C2247.98 42.08 2255.6 32.55 2265.39 29.88C2270.68 28.44 2284.94 29.4 2288.93 31.47C2294.07 34.12 2299 39.08 2301.81 44.41C2304.26 49.04 2304.5 50.49 2304.5 60.5C2304.5 72.58 2303.32 76.15 2296.93 83.43C2290.53 90.72 2276.82 94.46 2266.79 91.65ZM2185.64 91.22C2185.37 90.79 2185.04 76.95 2184.9 60.47L2184.66 30.5L2188.98 30.19C2191.76 29.98 2193.6 30.34 2194.14 31.19C2194.6 31.91 2194.69 37.29 2194.34 43.15L2193.71 53.8L2202.11 54.28C2217.3 55.16 2221.19 55.09 2222.6 53.92C2223.65 53.05 2224 49.91 2224 41.38L2224 30L2227.94 30C2230.11 30 2232.24 30.56 2232.67 31.25C2233.88 33.17 2233 89.25 2231.74 90.8C2231.15 91.52 2229.28 91.97 2227.59 91.8L2224.5 91.5L2223.9 77.5C2223.57 69.8 2223.23 63.38 2223.15 63.22C2223.07 63.07 2216.59 63.07 2208.75 63.22L2194.5 63.5L2194.22 76.44C2194.06 83.88 2193.47 89.93 2192.85 90.69C2191.67 92.11 2186.42 92.49 2185.64 91.22ZM397.07 84C402.27 82.55 408.56 76.73 410.55 71.51C413.02 65.05 412.24 51.74 409.09 46.65C405.47 40.79 400.7 37.72 394.4 37.2C384.12 36.35 375.42 42.03 372.95 51.2C372.32 53.53 371.96 58.85 372.15 63.04C372.44 69.4 372.99 71.45 375.5 75.5C380.4 83.41 388.17 86.47 397.07 84ZM1286.32 83.93C1290.98 82.64 1297.82 76.66 1299.65 72.28C1301.27 68.43 1301.45 53.33 1299.94 49.32C1298.5 45.5 1293.2 40.06 1289.28 38.38C1282.6 35.52 1272.51 37.3 1267.18 42.3C1263.67 45.58 1261.89 50.63 1261.29 59.02C1260.83 65.33 1261.1 67.36 1262.94 71.64C1267.54 82.33 1276.02 86.79 1286.32 83.93ZM2281.78 83.45C2286.06 81.66 2291.53 76.73 2293.6 72.78C2294.38 71.28 2295.3 66.76 2295.64 62.72C2296.17 56.48 2295.93 54.64 2294.08 50.44C2289.81 40.78 2284.01 37 2273.5 37.02C2263.01 37.04 2256.56 44.19 2255.35 57.13C2254.17 69.77 2258.5 79.05 2267.49 83.14C2272.43 85.38 2276.92 85.48 2281.78 83.45Z" fill="#1e2749" fill-rule="evenodd"/>
</svg>
