<?xml version="1.0" encoding="UTF-8"?>
<svg xmlns="http://www.w3.org/2000/svg" viewBox="0 0 2430 2695" width="2430" height="2695" shape-rendering="geometricPrecision">
<path d="M955.69 2613.27C953.14 2608.94 950.69 2570.33 949 2508C946.3 2408.36 945.7 2315.79 945.12 1903.33C944.78 1662.89 944.22 1465.89 943.88 1465.55C943.54 1465.21 846.79 1464.72 728.88 1464.46C406.75 1463.76 303.32 1463.14 240 1461.53C161.48 1459.53 135.14 1458.67 137.5 1458.2C141.64 1457.38 140.95 1456.25 135.89 1455.58C129.81 1454.77 127 1453.5 127 1451.54C127 1450.09 128.46 1449.66 139 1448.06C156.28 1445.43 207.01 1443.39 288 1442.06C313.02 1441.65 470.48 1441.25 637.9 1441.16C860.77 1441.04 942.66 1440.69 943.65 1439.87C944.78 1438.94 945 1374.15 945.01 1045.13C945.03 577.05 946.26 389.66 950.02 283C952.07 224.65 954.38 203.13 957.95 208.92C960.72 213.41 963.17 254.99 965.02 329C967.49 428.33 968.17 548.47 968.69 980.83C969.1 1320.96 969.53 1440.25 970.37 1440.53C970.99 1440.74 1199.88 1441.11 1479 1441.34C1758.12 1441.58 1988.53 1442.03 1991 1442.33C1993.47 1442.63 2019.12 1443.15 2048 1443.47C2142.99 1444.54 2212.1 1447.51 2221.35 1450.93C2223.4 1451.69 2223.4 1451.71 2221.44 1452.76C2220.35 1453.35 2217.67 1454.15 2215.48 1454.54C2213.29 1454.94 2210.88 1455.75 2210.13 1456.35C2208.47 1457.67 2209.65 1457.6 2168 1458.92C2053.25 1462.55 1923.31 1463.68 1599.5 1463.86C1300.95 1464.02 970.79 1464.99 970 1465.71C969.73 1465.96 969.21 1657.27 968.87 1890.83C968.11 2397.95 966.64 2528.08 960.96 2592.5C959.61 2607.86 957.47 2616.29 955.69 2613.27ZM2105.76 1876.25C2099.14 1868.74 2073.96 1814.28 2058.03 1773C2053.47 1761.18 2042.35 1733.25 2036.54 1719C2022.72 1685.14 2001.54 1640.69 1992.19 1625.91C1989.9 1622.29 1985.54 1617.05 1982.51 1614.27C1979.48 1611.5 1977 1608.57 1977 1607.77C1977 1605.42 1981.54 1604.01 1992.86 1602.87C2007.11 1601.43 2050.46 1602.34 2058.59 1604.25C2068.84 1606.66 2069.21 1607.56 2061.74 1611.78C2055.32 1615.4 2052 1621.14 2052 1628.62C2052 1643.21 2081.22 1727.91 2104.75 1781.5C2112.45 1799.04 2116.59 1807 2118.01 1807C2119.37 1807 2123.96 1801.01 2126.63 1795.75C2134.73 1779.76 2158 1723.65 2158 1720.1C2158 1719.01 2158.42 1717.86 2158.94 1717.54C2160.21 1716.75 2166.19 1700.8 2176.59 1670.5C2180.97 1657.76 2187.2 1636.69 2188.5 1630.25C2189.35 1626.07 2186.74 1621.75 2180.5 1617C2170.38 1609.3 2170 1608.89 2170 1605.95C2170 1603.48 2170.52 1602.94 2173.75 1602.07C2178.35 1600.84 2234.03 1600.49 2234.89 1601.68C2235.22 1602.15 2236.74 1603.08 2238.25 1603.75C2239.76 1604.41 2241 1605.63 2241 1606.46C2241 1607.28 2238.27 1610.98 2234.92 1614.66C2231.58 1618.35 2226.34 1625.63 2223.28 1630.83C2215.95 1643.29 2194.16 1687.92 2193.34 1692.17C2192.98 1694 2191.94 1696.48 2191.02 1697.67C2190.1 1698.86 2187.85 1703.36 2186.02 1707.67C2184.19 1711.98 2181.02 1719.33 2178.97 1724C2176.92 1728.67 2171.3 1742.17 2166.47 1754C2139.85 1819.3 2112.25 1878 2108.18 1878C2107.7 1878 2106.61 1877.21 2105.76 1876.25ZM600.41 1818.01C583.82 1814.69 571.13 1806.05 563 1792.54C561.08 1789.34 558.71 1785.89 557.75 1784.86C556.79 1783.84 556 1782.5 556 1781.88C556 1781.27 554.19 1775.1 551.98 1768.18C541.95 1736.82 538.53 1691.96 542.49 1643.64C544.67 1617.04 546.71 1607.8 553.77 1592.5C558.3 1582.68 570.76 1565.27 574.8 1563.11C575.78 1562.58 577.19 1561.01 577.94 1559.61C578.69 1558.21 579.67 1557.3 580.12 1557.58C580.57 1557.85 584.36 1556.21 588.53 1553.92C594.05 1550.89 595.96 1549.34 595.54 1548.24C595.07 1547.03 595.24 1546.96 596.36 1547.88C597.45 1548.79 598.87 1548.63 602.63 1547.22C606.59 1545.72 607.46 1544.97 607.26 1543.19C606.96 1540.45 608.65 1540.31 609.5 1543C610.23 1545.31 610.83 1545.41 614.68 1543.89C616.23 1543.28 620.09 1542.85 623.26 1542.92C626.43 1543 630.03 1542.49 631.26 1541.8C634.16 1540.17 636.95 1539.96 636.39 1541.42C635.71 1543.19 641.11 1543.21 643.07 1541.44C644.22 1540.4 645.02 1540.23 645.46 1540.93C645.82 1541.52 645.64 1542 645.06 1542C644.48 1542 644 1542.52 644 1543.17C644 1543.81 644.28 1544.05 644.63 1543.71C644.97 1543.36 646.88 1543.76 648.87 1544.59C650.85 1545.42 653.44 1545.85 654.62 1545.56C655.93 1545.23 657.3 1545.66 658.12 1546.65C658.87 1547.55 662.86 1549.9 666.99 1551.88C676.74 1556.55 687.76 1567.34 693.82 1578.15C704.62 1597.4 710.23 1630.85 709.61 1672.25C709.36 1688.52 709.59 1695 710.38 1695.02C711.03 1695.02 710.93 1695.39 710.15 1695.88C709.28 1696.44 708.31 1701.13 707.4 1709.12C703.27 1745.6 694.2 1771.73 679.44 1789.66C666.23 1805.73 652.13 1815.53 637.94 1818.51C628.51 1820.5 611.69 1820.27 600.41 1818.01ZM627.79 1805.04C635.11 1803.65 641.42 1800.38 647.48 1794.84C651.9 1790.8 653.4 1788.48 656.39 1781.01C667.11 1754.22 670.9 1703.86 667.09 1639C665.14 1605.9 659.64 1583.52 650.04 1569.55C642.41 1558.46 626.41 1553.32 613.5 1557.8C602.62 1561.58 589 1573.69 589 1579.59C589 1580.92 588.61 1582 588.14 1582C587.2 1582 584.7 1589.5 582.97 1597.49C575.24 1633.14 575.74 1703.84 584.04 1748.5C586.51 1761.83 591.13 1776.26 594.51 1781.23C595.88 1783.24 597 1785.21 597 1785.6C597 1787.41 605.67 1797.26 610.38 1800.82C617.42 1806.14 619.43 1806.62 627.79 1805.04ZM1951 1288.07C1948.53 1287.07 1944.92 1285.44 1943 1284.46C1938.38 1282.11 1915.76 1259.31 1887.97 1229C1875.61 1215.53 1859.65 1198.42 1852.5 1190.99C1845.35 1183.56 1835.45 1173 1830.5 1167.52C1825.55 1162.05 1815.02 1150.58 1807.09 1142.04C1782.78 1115.82 1761.22 1092.5 1740 1069.5C1728.85 1057.4 1717.34 1045.03 1714.43 1042C1711.52 1038.97 1703.18 1029.97 1695.89 1022C1688.6 1014.02 1681.81 1007.09 1680.82 1006.6C1679.82 1006.1 1679 1005.35 1679 1004.92C1679 1003.44 1666.7 990 1665.35 990C1664.61 990 1664 989.38 1664 988.62C1664 987.86 1658.49 981.41 1651.75 974.29C1645.01 967.17 1628.03 948.89 1614 933.66C1599.97 918.44 1587.71 905.73 1586.74 905.42C1585.77 905.11 1584.29 903.53 1583.45 901.9C1582.16 899.41 1567.91 883.84 1509.44 821.02C1506.1 817.43 1485.67 795.38 1464.04 772C1442.4 748.62 1422.1 726.8 1418.93 723.5C1413.57 717.93 1399.61 702.78 1305.54 600.5C1286.32 579.6 1268.5 560.25 1265.93 557.5C1261.35 552.59 1190.4 475.08 1172.55 455.5C1167.54 450 1161.65 443.44 1159.47 440.93C1157.29 438.42 1144.9 424.47 1131.95 409.93C1119 395.39 1105.59 380.13 1102.15 376.01C1096.29 368.98 1095.93 368.25 1096.2 364.01L1096.5 359.5L1101.3 359.19C1106.02 358.89 1106.22 359 1113.8 366.12C1139.7 390.46 1241.86 497.14 1310.88 571.92C1318.79 580.49 1328.92 591.33 1333.39 596C1343.25 606.32 1362.96 627.57 1421.07 690.5C1445.45 716.9 1471.26 744.82 1478.44 752.54C1485.63 760.27 1500.72 776.69 1511.98 789.04C1523.25 801.4 1536.07 815.34 1540.48 820.03C1544.89 824.72 1555.03 835.74 1563 844.52C1570.97 853.3 1579.57 862.74 1582.11 865.49C1584.64 868.25 1592.27 876.58 1599.05 884C1605.83 891.42 1613.27 899.52 1615.57 902C1617.88 904.48 1629.79 917.52 1642.04 931C1654.3 944.48 1673.14 965.14 1683.91 976.92C1694.69 988.7 1707.96 1003.32 1713.4 1009.42C1718.85 1015.51 1729.24 1027.03 1736.5 1035C1743.75 1042.97 1757.3 1057.86 1766.6 1068.08C1783.7 1086.88 1808.58 1113.93 1832.29 1139.5C1839.42 1147.2 1852.74 1161.57 1861.88 1171.42C1871.02 1181.28 1886.6 1197.96 1896.5 1208.48C1941.88 1256.71 1956.89 1275.63 1957.31 1285.13C1957.42 1287.44 1957.05 1289.45 1956.5 1289.61C1955.95 1289.77 1953.47 1289.08 1951 1288.07ZM525.22 494.01C512.9 492.64 511.8 489.46 521.3 482.68C531.33 475.53 535.65 467.71 538.44 451.66C541 437.01 542.32 390.22 541.65 338C540.58 254.69 538.98 245.88 522.75 233.68C510.01 224.1 511.73 222.34 535.3 220.85C544.21 220.28 551.87 219.47 552.32 219.04C553.51 217.91 553.86 214.59 552.86 213.94C552.39 213.63 552.66 212.51 553.47 211.44C554.76 209.73 554.94 209.7 554.97 211.2C554.99 212.14 555.79 213.37 556.75 213.95C558.42 214.95 558.42 215.06 556.75 216.36C555.79 217.11 555 218.29 555 218.98C555 219.96 555.32 219.98 556.41 219.07C557.19 218.43 558.06 218.3 558.36 218.78C558.66 219.26 568.25 219.76 579.68 219.89C591.11 220.02 600.69 220.46 600.98 220.86C601.27 221.27 604.04 221.56 607.14 221.51C611.69 221.43 612.67 221.7 612.22 222.87C611.84 223.85 612.07 224.08 612.91 223.55C613.81 223 614.07 223.45 613.83 225.13C613.57 226.99 612.07 228.05 606.5 230.28C586.55 238.29 580.19 256.51 579.39 307.92C579.17 322.46 578.76 334.57 578.49 334.84C577.74 335.59 578.09 376.87 579.04 400C579.5 411.27 579.89 423.01 579.9 426.08C579.9 429.15 580.6 436.29 581.44 441.94C585.3 467.71 591.75 478.4 607.75 485.55C615.2 488.87 614.74 490.35 605.5 492.85C599.63 494.44 537.14 495.34 525.22 494.01Z" fill="#1e2749" fill-rule="evenodd"/>
</svg>
