<?xml version="1.0" encoding="UTF-8"?>
<svg xmlns="http://www.w3.org/2000/svg" viewBox="0 0 459 452" width="459" height="452" shape-rendering="geometricPrecision">
<path d="M239.05 429.67C236.6 429.09 236.39 427.49 238.69 426.91C240.88 426.35 240.74 427 241.18 415.08C241.35 410.46 241.31 408.87 241 408.5C240.43 407.81 238.92 407.87 237.96 408.62C236.81 409.52 235.72 409.79 235.15 409.32C233.77 408.17 235.59 406.03 238.78 405.04C239.91 404.69 241.57 404.01 242.47 403.54C244.37 402.52 244.76 402.48 245.49 403.2C245.96 403.68 246.01 405.01 245.93 414.81C245.82 427.04 245.82 427 247.85 427C248.46 427 249.2 427.25 249.5 427.55C250.01 428.06 250 428.14 249.41 428.74C248.37 429.78 241.95 430.35 239.05 429.67ZM255.35 429.6C254.83 429.32 254.38 428.65 254.12 427.75C253.9 426.98 253.48 426.01 253.19 425.6C252.61 424.78 252.5 423.48 252.97 423.19C253.48 422.87 254.22 423.32 254.61 424.19C254.82 424.63 255.19 425 255.43 425C255.68 425 256.25 425.39 256.69 425.86C257.43 426.66 257.68 426.72 259.68 426.61C261.62 426.5 262.04 426.35 263.36 425.26C265.31 423.66 265.71 422.27 265.01 419.5C264.53 417.62 264.4 417.45 262.94 416.73C261.08 415.8 259.76 415.73 257.41 416.42C254.76 417.21 254.67 416.97 254.67 409.42C254.67 403.33 254.67 403.32 255.44 403.02C255.87 402.86 258.81 402.72 261.97 402.72C267.29 402.72 267.77 402.77 268.39 403.39C269.17 404.17 269 405.45 267.97 406.5C267.4 407.08 266.74 407.19 262.71 407.34C257.5 407.53 257 407.73 257.01 409.62C257.01 411.59 257.18 411.67 260.86 411.58C263.84 411.51 264.34 411.59 265.8 412.33C266.7 412.79 267.54 413.39 267.68 413.67C269.86 418.03 270 418.41 270 420.18C270 421.75 269.79 422.37 268.6 424.37C267.83 425.66 266.89 426.87 266.52 427.06C266.14 427.25 265.04 427.95 264.06 428.61C262.4 429.73 262.11 429.81 259.23 429.92C257.16 429.99 255.9 429.89 255.35 429.6ZM286.04 429.62C284.08 429.16 281.53 426.64 280.99 424.64C280.78 423.85 280.66 421.78 280.72 420.02C280.83 416.85 280.84 416.81 282.15 415.25C282.88 414.38 283.67 413.67 283.92 413.67C284.16 413.67 284.72 413.31 285.16 412.88C286.3 411.73 287.75 411.33 290.8 411.33C292.71 411.33 293.84 411.51 294.67 411.92C295.7 412.44 295.82 412.63 295.74 413.66C295.53 416.19 293.84 417.11 292.33 415.5C291.64 414.76 291.28 414.67 289.12 414.67C286.8 414.67 286.66 414.71 286.23 415.58C285.98 416.09 285.58 417.21 285.34 418.08C284.65 420.65 285.76 425 287.11 425C287.3 425 287.79 425.32 288.2 425.7C288.75 426.21 289.64 426.48 291.53 426.69C294.83 427.06 295.41 427.75 293.58 429.12C292.53 429.9 288.38 430.18 286.04 429.62ZM300.27 429.69C297.84 429.21 297.36 428.04 299 426.6L300 425.73L300 421.28C299.99 417.24 299.92 416.67 299.16 415.05C297.95 412.44 298.03 412.14 300.04 411.66C301.38 411.33 302 411.34 302.99 411.66C303.94 411.98 304.65 411.99 305.97 411.7C309.64 410.92 311.53 411.25 314.18 413.15L315.09 413.8L315.79 412.92C316.73 411.75 317.95 411.33 320.44 411.33C323.26 411.33 324.52 412.04 325.81 414.33C326.8 416.1 326.84 416.34 327 421.22C327.17 426.25 327.17 426.28 328.08 427C328.59 427.39 329 427.93 329 428.18C329 429.47 324.47 430.53 323.17 429.56C322.55 429.1 322.49 428.56 322.33 422.86L322.17 416.66L321.17 415.83C319.17 414.18 317.47 414.33 316.28 416.25C315.59 417.35 315.49 418 315.38 421.73L315.27 425.95L316.63 426.81C318.23 427.82 318.34 428.43 317.1 429.24C315.96 429.99 311.64 430.04 310.17 429.32C308.81 428.65 308.77 427.92 310.03 426.74L311.1 425.74L311.11 421.53L311.12 417.32L310.01 416.18C308.01 414.11 306.04 414.34 304.88 416.78C304.47 417.65 304.33 418.91 304.33 421.95L304.33 425.97L305.68 427.05L307.03 428.14L306.27 428.73C305.57 429.27 304.68 429.51 302.33 429.82C301.88 429.88 300.95 429.82 300.27 429.69ZM322.33 406.33C322.33 406.15 323.09 406 324.02 406C325.06 406 325.63 406.13 325.5 406.33C325.39 406.52 324.63 406.67 323.81 406.67C323 406.67 322.33 406.52 322.33 406.33ZM329 406.33C329 406.15 329.16 406 329.35 406C329.55 406 329.61 406.15 329.5 406.33C329.39 406.52 329.23 406.67 329.15 406.67C329.07 406.67 329 406.52 329 406.33ZM334 406.33C334 406.15 334.16 406 334.35 406C334.55 406 334.61 406.15 334.5 406.33C334.39 406.52 334.23 406.67 334.15 406.67C334.07 406.67 334 406.52 334 406.33ZM344 406.33C344 406.15 344.16 406 344.35 406C344.55 406 344.61 406.15 344.5 406.33C344.39 406.52 344.23 406.67 344.15 406.67C344.07 406.67 344 406.52 344 406.33ZM349 406.33C349 406.15 349.16 406 349.35 406C349.55 406 349.61 406.15 349.5 406.33C349.39 406.52 349.23 406.67 349.15 406.67C349.07 406.67 349 406.52 349 406.33ZM355 406.33C355 406.15 355.16 406 355.35 406C355.55 406 355.61 406.15 355.5 406.33C355.39 406.52 355.23 406.67 355.15 406.67C355.07 406.67 355 406.52 355 406.33ZM360 406.33C360 406.15 360.16 406 360.35 406C360.55 406 360.61 406.15 360.5 406.33C360.39 406.52 360.23 406.67 360.15 406.67C360.07 406.67 360 406.52 360 406.33ZM366 406.34C366 406.15 366.47 406 367.06 406C368.27 406 368.23 406.15 366.92 406.46C366.37 406.59 366 406.54 366 406.34ZM375 406.33C375 406.15 375.16 406 375.35 406C375.55 406 375.61 406.15 375.5 406.33C375.39 406.52 375.23 406.67 375.15 406.67C375.07 406.67 375 406.52 375 406.33ZM382.67 406.33C382.67 406.15 382.9 406 383.19 406C383.47 406 383.61 406.15 383.5 406.33C383.39 406.52 383.15 406.67 382.98 406.67C382.81 406.67 382.67 406.52 382.67 406.33ZM387 406.33C387 406.15 387.16 406 387.35 406C387.55 406 387.61 406.15 387.5 406.33C387.39 406.52 387.23 406.67 387.15 406.67C387.07 406.67 387 406.52 387 406.33ZM401 406.33C401 406.15 401.16 406 401.35 406C401.55 406 401.61 406.15 401.5 406.33C401.39 406.52 401.23 406.67 401.15 406.67C401.07 406.67 401 406.52 401 406.33ZM420.5 406.33C420.39 406.15 420.61 406 421 406C421.39 406 421.61 406.15 421.5 406.33C421.39 406.52 421.16 406.67 421 406.67C420.84 406.67 420.61 406.52 420.5 406.33ZM429 406.33C429 406.15 429.16 406 429.35 406C429.55 406 429.61 406.15 429.5 406.33C429.39 406.52 429.23 406.67 429.15 406.67C429.07 406.67 429 406.52 429 406.33ZM434 406.33C434 406.15 434.16 406 434.35 406C434.55 406 434.61 406.15 434.5 406.33C434.39 406.52 434.23 406.67 434.15 406.67C434.07 406.67 434 406.52 434 406.33ZM440 406.33C440 406.15 440.16 406 440.35 406C440.55 406 440.61 406.15 440.5 406.33C440.39 406.52 440.23 406.67 440.15 406.67C440.07 406.67 440 406.52 440 406.33ZM320.62 400.66C320.25 400.45 319.99 399.66 319.83 398.32L319.6 396.3L321 395C321.77 394.29 322.34 393.51 322.26 393.27C322.14 392.93 319.71 392.8 310.81 392.67C304.59 392.57 299.24 392.37 298.93 392.22C297.72 391.62 297.83 389.88 299.11 389.54C299.51 389.43 304.65 389.34 310.54 389.34C322.46 389.33 322.53 389.32 321.51 387.35C320.71 385.81 320.68 383.89 321.45 383.73C321.78 383.66 322.35 383.92 322.71 384.3C323.07 384.69 323.57 385 323.82 385C324.07 385 324.72 385.36 325.24 385.81C325.77 386.25 327.04 386.99 328.06 387.44C329.08 387.89 330.02 388.42 330.14 388.63C330.27 388.83 331.17 389.23 332.16 389.51C334.93 390.32 335 390.65 332.76 392.57C331.7 393.48 330.31 394.41 329.67 394.62C329.03 394.84 327.98 395.39 327.34 395.83C326.69 396.27 325.19 397.13 324 397.74C322.07 398.71 321.82 398.95 321.73 399.92C321.62 401.07 321.48 401.16 320.62 400.66ZM329 399.33C329 399.15 329.16 399 329.35 399C329.55 399 329.61 399.15 329.5 399.33C329.39 399.52 329.23 399.67 329.15 399.67C329.07 399.67 329 399.52 329 399.33ZM375 399.33C375 399.15 375.16 399 375.35 399C375.55 399 375.61 399.15 375.5 399.33C375.39 399.52 375.23 399.67 375.15 399.67C375.07 399.67 375 399.52 375 399.33ZM383 399.33C383 399.15 383.15 399 383.33 399C383.52 399 383.67 399.15 383.67 399.33C383.67 399.52 383.52 399.67 383.33 399.67C383.15 399.67 383 399.52 383 399.33ZM420 399.33C420 399.15 420.38 399 420.85 399C421.34 399 421.62 399.14 421.5 399.33C421.39 399.52 421 399.67 420.65 399.67C420.29 399.67 420 399.52 420 399.33ZM437.67 399.33C437.67 399.15 437.83 399 438.02 399C438.21 399 438.28 399.15 438.17 399.33C438.05 399.52 437.89 399.67 437.81 399.67C437.73 399.67 437.67 399.52 437.67 399.33ZM236.75 398.3C236.43 397.91 235.49 397.3 234.67 396.94C233.84 396.58 232.87 396.02 232.5 395.69C232.13 395.35 231.07 394.84 230.15 394.54C228.24 393.92 225.45 391.38 225.76 390.56C225.87 390.29 226.7 389.82 227.62 389.51C228.54 389.21 229.64 388.7 230.06 388.37C230.49 388.05 231.36 387.59 232 387.35C233.1 386.93 234.66 386.03 236.77 384.59C237.88 383.83 238.53 384 239.06 385.16C239.35 385.81 239.34 386.31 238.99 387.36C238.61 388.52 238.61 388.76 239.02 389.02C239.28 389.19 242.65 389.33 246.51 389.33C252.31 389.33 253.65 389.42 254.26 389.85C255.19 390.5 255.2 391.05 254.3 391.87C253.66 392.44 252.92 392.51 245.95 392.61C240.42 392.68 238.25 392.82 238.14 393.11C238.06 393.33 238.29 394.1 238.66 394.82C239.5 396.46 239.52 397.73 238.72 398.45C237.92 399.18 237.45 399.14 236.75 398.3ZM375 395.33C375 395.15 375.16 395 375.35 395C375.55 395 375.61 395.15 375.5 395.33C375.39 395.52 375.23 395.67 375.15 395.67C375.07 395.67 375 395.52 375 395.33ZM387 395.33C387 395.15 387.16 395 387.35 395C387.55 395 387.61 395.15 387.5 395.33C387.39 395.52 387.23 395.67 387.15 395.67C387.07 395.67 387 395.52 387 395.33ZM118.41 381.15L117.67 380.63L117.67 283.71C117.67 208.78 117.58 186.71 117.27 186.4C117.05 186.18 116.25 186 115.5 186C114.75 186 113.95 185.82 113.73 185.6C113.43 185.3 113.33 178.48 113.33 156.97L113.33 128.73L114.5 128.04C115.72 127.32 116.03 126.67 115.15 126.67C114.86 126.67 114.23 126.25 113.73 125.73C113.24 125.21 112.38 124.51 111.83 124.17C111.28 123.83 110.65 123.29 110.42 122.97C110.19 122.65 109.49 122.22 108.86 122.01C108.23 121.8 107.48 121.27 107.19 120.82C106.89 120.37 106.37 120 106.02 120C105.67 120 105.03 119.57 104.61 119.04C104.18 118.51 103.35 117.83 102.76 117.53C102.17 117.24 101.54 116.71 101.35 116.37C101.17 116.03 100.49 115.65 99.85 115.52C99.19 115.4 98.52 115.02 98.33 114.66C98.14 114.3 97.51 113.76 96.94 113.47C96.37 113.17 95.53 112.5 95.09 111.97C94.64 111.43 94.07 111 93.82 111C93.56 111 92.86 110.57 92.26 110.04C91.66 109.52 90.83 108.98 90.42 108.86C90 108.73 89.51 108.33 89.32 107.98C89.13 107.62 88.42 107.05 87.74 106.7C87.06 106.34 86.32 105.76 86.11 105.4C85.89 105.04 85.17 104.65 84.51 104.52C83.7 104.37 83.19 104.04 82.94 103.51C82.74 103.07 82.23 102.63 81.8 102.52C81.36 102.41 80.76 101.94 80.45 101.47C80.14 101 79.24 100.31 78.45 99.94C77.65 99.57 77 99.12 77 98.95C77 98.78 76.34 98.36 75.53 98.01C74.71 97.66 73.97 97.08 73.85 96.71C73.73 96.34 73.3 95.93 72.9 95.81C72.5 95.68 71.6 95.07 70.92 94.46C70.23 93.84 69.46 93.33 69.22 93.33C68.97 93.33 68.48 93.02 68.14 92.63C67.79 92.25 67.05 91.7 66.5 91.42C65.95 91.13 65.3 90.62 65.06 90.28C64.82 89.94 64.15 89.42 63.56 89.13C62.98 88.83 62.12 88.25 61.67 87.84C61.21 87.42 60.43 86.99 59.94 86.88C59.45 86.76 58.95 86.36 58.83 85.99C58.71 85.62 58.14 85.12 57.55 84.88C56.96 84.63 56.01 83.99 55.43 83.46C53.57 81.76 52.19 80.76 51.33 80.51C50.88 80.37 50.12 79.9 49.67 79.46C46.55 76.46 44.76 75.67 41.13 75.67C40.31 75.67 39.23 75.46 38.73 75.21C37.77 74.71 34.63 74.16 30.83 73.82C28.4 73.6 27 73 27 72.16C27 71.78 26.54 71.67 25 71.67C23.23 71.67 22.87 71.55 21.95 70.67C21.37 70.12 20.62 69.67 20.28 69.67C17.77 69.67 17.67 64.67 20.14 62.36C20.62 61.91 21.16 60.99 21.34 60.31C21.52 59.63 22.03 58.84 22.47 58.55C22.91 58.26 23.38 57.57 23.5 57.01C23.79 55.67 25.21 55.55 25.53 56.84C25.78 57.81 25.2 58.67 24.29 58.67C23.78 58.67 23.67 58.92 23.67 60.13C23.67 61.99 24.37 62.7 25.14 61.61C25.43 61.19 25.67 60.71 25.67 60.53C25.67 60.36 26.19 59.73 26.83 59.15C27.57 58.47 28 57.77 28 57.24C28 56.39 28.54 56 29.7 56C30.06 56 30.44 55.77 30.55 55.5C30.65 55.23 30.87 55 31.03 55C31.19 55 30.93 56.06 30.45 57.35C29.78 59.15 29.67 59.8 29.96 60.1C30.47 60.6 31.35 60.07 31.92 58.92C32.15 58.46 32.7 57.83 33.16 57.54C33.61 57.24 34.24 56.51 34.54 55.91C35.23 54.56 35.56 54.34 36.92 54.34C38.07 54.33 38.34 54.78 37.47 55.26C37.18 55.43 36.83 56.07 36.71 56.7C36.57 57.41 36.2 57.96 35.74 58.16C34.96 58.51 34.72 59.79 35.36 60.18C35.56 60.31 36.12 60.04 36.61 59.59C37.1 59.13 37.74 58.68 38.04 58.58C38.34 58.47 38.68 57.85 38.81 57.19C38.93 56.51 39.23 56 39.49 56C39.74 56 40.31 55.54 40.76 54.97C41.38 54.17 41.77 53.97 42.53 54.06C44.05 54.23 43.9 55.12 42.02 57.11C41.09 58.09 40.33 59.14 40.33 59.44C40.33 60.08 41.65 60.49 42.79 60.21C43.76 59.97 49.67 55.04 49.67 54.48C49.67 53.54 51.78 53.62 52.15 54.58C52.34 55.07 51.19 56.67 50.66 56.67C50.19 56.67 48 58.97 48 59.47C48 59.75 48.26 60.11 48.58 60.26C49.79 60.86 51.03 60.37 53.36 58.35C55.08 56.87 55.97 56.33 56.69 56.33C57.73 56.33 58.05 57.08 57.21 57.57C56.96 57.71 56.52 58.29 56.23 58.86C55.95 59.42 55.48 60.08 55.19 60.32C54.61 60.79 54.48 62.18 54.98 62.49C55.16 62.6 55.62 62.25 56.02 61.71C56.56 60.98 57.12 60.67 58.2 60.51C59.28 60.35 59.82 60.05 60.35 59.31C60.94 58.48 61.27 58.33 62.5 58.33C64.99 58.33 64.78 59.55 62.09 60.7C61.1 61.12 60.67 61.51 60.67 61.97C60.67 62.33 60.52 62.72 60.33 62.83C60.15 62.95 60 63.41 60 63.85C60 64.55 60.15 64.67 61.12 64.67C61.78 64.67 62.77 64.31 63.54 63.78C65.02 62.77 67.23 62.41 68.31 62.99C69.02 63.37 69.03 63.41 68.47 64.03C68.15 64.39 67.43 64.8 66.87 64.94C65.98 65.17 65.81 65.4 65.6 66.69C65.29 68.49 64.52 69.18 62.47 69.49C61.4 69.65 60.69 69.99 60.17 70.6C59.51 71.36 59.1 71.49 57.05 71.61C55.04 71.72 54.62 71.85 54.19 72.51C53.7 73.26 51.74 73.87 49.17 74.08C48.41 74.15 48.14 74.35 48.06 74.92C47.99 75.42 48.13 75.67 48.47 75.67C48.75 75.67 49.5 76.19 50.14 76.83C50.79 77.48 51.45 78 51.62 78C51.8 78 52.57 78.52 53.33 79.17C54.1 79.81 54.91 80.33 55.14 80.33C55.36 80.33 55.97 80.78 56.5 81.33C57.03 81.88 57.65 82.33 57.89 82.33C58.12 82.33 58.64 82.78 59.04 83.32C59.44 83.86 60.31 84.52 60.97 84.78C61.63 85.05 62.45 85.58 62.8 85.96C63.15 86.35 63.65 86.67 63.92 86.67C64.18 86.67 64.8 87.09 65.29 87.62C65.78 88.14 66.67 88.82 67.27 89.13C67.87 89.45 68.46 89.93 68.57 90.22C68.67 90.5 69.42 91.01 70.21 91.35C71.01 91.7 71.67 92.13 71.67 92.31C71.67 92.5 72.15 92.9 72.75 93.21C73.34 93.51 74.22 94.19 74.71 94.72C75.2 95.24 75.81 95.67 76.07 95.67C76.33 95.67 76.97 96.11 77.49 96.66C78.02 97.2 78.94 97.81 79.54 98.01C80.14 98.21 80.73 98.67 80.84 99.02C80.95 99.38 81.27 99.67 81.54 99.67C81.81 99.67 82.57 100.19 83.23 100.83C83.9 101.48 84.55 102 84.69 102C84.82 102 85.57 102.52 86.33 103.17C87.1 103.81 87.94 104.33 88.19 104.33C88.44 104.33 89.17 104.82 89.82 105.42C92.2 107.63 93.55 108.63 94.45 108.85C94.96 108.98 95.58 109.41 95.85 109.8C96.11 110.2 96.84 110.72 97.48 110.95C98.11 111.18 98.72 111.64 98.83 111.98C98.93 112.32 99.45 112.77 99.97 112.99C100.49 113.2 101.34 113.82 101.86 114.36C102.37 114.89 103.06 115.33 103.39 115.33C103.94 115.33 104.81 116.02 107.44 118.52C108.03 119.09 108.97 119.71 109.54 119.91C110.1 120.1 110.96 120.65 111.43 121.13C111.91 121.61 112.52 122 112.8 122C113.07 122 113.61 122.45 114 123C114.39 123.55 114.88 124 115.09 124C115.3 124 115.93 124.44 116.48 124.98C118.32 126.75 121.16 128 123.35 128C126.77 128 127.95 128.91 126.89 130.75C126.07 132.19 126.19 132.61 127.52 132.86C128.21 132.99 128.91 133.4 129.2 133.84C129.48 134.26 130.13 134.78 130.67 135C131.2 135.22 131.88 135.77 132.18 136.23C132.47 136.68 133.2 137.26 133.78 137.5C134.37 137.74 135.13 138.26 135.48 138.64C135.82 139.02 136.31 139.33 136.57 139.33C136.82 139.33 137.51 139.84 138.1 140.47C138.69 141.09 139.49 141.7 139.89 141.81C140.28 141.93 140.85 142.39 141.14 142.83C141.44 143.29 142.23 143.79 142.98 143.99C143.77 144.21 144.37 144.6 144.49 144.98C144.6 145.33 145.13 145.76 145.66 145.95C146.2 146.13 146.83 146.61 147.07 147C147.3 147.4 148.1 148.03 148.83 148.41C149.57 148.79 150.35 149.36 150.58 149.69C150.81 150.01 151.46 150.38 152.02 150.5C152.64 150.64 153.19 151.05 153.41 151.52C153.6 151.96 154.08 152.42 154.47 152.54C154.85 152.66 155.73 153.26 156.42 153.88C157.11 154.49 157.96 155 158.33 155C158.69 155 159.22 155.36 159.51 155.8C159.8 156.24 160.48 156.78 161.03 157.01C161.58 157.24 162.17 157.7 162.36 158.04C162.54 158.38 163.17 158.91 163.76 159.21C164.35 159.51 165.33 160.19 165.93 160.71C166.53 161.24 167.24 161.67 167.5 161.67C167.77 161.67 168.23 162.04 168.53 162.5C168.83 162.96 169.44 163.43 169.88 163.54C170.32 163.65 170.98 164.13 171.35 164.6C171.72 165.07 172.62 165.72 173.34 166.04C174.07 166.37 174.67 166.8 174.67 167C174.67 167.2 175.22 167.6 175.9 167.88C176.58 168.17 177.52 168.76 177.99 169.21C180.5 171.61 181.4 172.3 182.48 172.66C183.14 172.88 183.83 173.34 184.01 173.69C184.2 174.05 184.86 174.55 185.48 174.8C186.1 175.06 186.7 175.58 186.82 175.95C186.94 176.33 187.44 176.71 187.97 176.83C188.48 176.94 189.33 177.48 189.85 178.02C190.37 178.56 191.06 179 191.39 179C191.72 179 192.4 179.45 192.89 180C193.38 180.55 193.95 181 194.17 181C194.38 181 195.04 181.53 195.62 182.17C196.21 182.81 196.82 183.33 196.98 183.33C197.14 183.33 197.9 183.86 198.67 184.5C199.43 185.14 200.34 185.67 200.68 185.67C201.01 185.67 201.61 186.12 202 186.67C202.39 187.22 202.91 187.67 203.16 187.67C203.41 187.67 204.04 188.12 204.56 188.67C205.07 189.22 205.99 189.83 206.59 190.03C207.18 190.23 207.83 190.67 208.01 191.03C208.2 191.38 208.88 191.89 209.52 192.15C210.15 192.42 210.77 192.87 210.88 193.17C210.99 193.46 211.63 193.97 212.29 194.32C212.96 194.66 213.86 195.32 214.31 195.8C214.75 196.28 215.37 196.67 215.67 196.67C215.97 196.67 216.62 197.12 217.11 197.67C217.6 198.22 218.22 198.67 218.49 198.67C218.76 198.67 219.31 199.11 219.7 199.65C220.1 200.18 220.84 200.8 221.35 201.01C221.85 201.22 222.61 201.75 223.03 202.19C223.44 202.64 224.05 203 224.38 203C224.71 203 225.49 203.51 226.11 204.13C226.73 204.75 227.54 205.36 227.92 205.47C228.3 205.59 228.84 206.05 229.13 206.48C229.41 206.92 230.16 207.44 230.79 207.65C231.43 207.86 232.17 208.38 232.45 208.8C232.73 209.23 233.4 209.66 233.95 209.77C234.55 209.89 235.03 210.24 235.16 210.66C235.28 211.03 235.86 211.58 236.44 211.88C237.02 212.17 237.88 212.75 238.33 213.17C238.79 213.58 239.54 214.04 240 214.17C240.46 214.31 241.23 214.76 241.72 215.16C242.21 215.57 243.22 216 243.97 216.12C244.71 216.24 245.9 216.64 246.6 217C247.36 217.4 249.47 217.88 251.93 218.21C254.17 218.51 256.26 218.95 256.57 219.18C257.08 219.55 256.99 219.74 255.58 221.1C254.08 222.56 253.38 223.94 253.81 224.62C253.92 224.8 254.46 225.05 255.01 225.17C255.56 225.29 256.16 225.68 256.35 226.03C256.54 226.38 257.21 226.89 257.85 227.15C258.48 227.42 259.14 227.99 259.3 228.42C259.5 228.94 260.06 229.34 260.93 229.61C261.66 229.83 262.49 230.36 262.77 230.79C263.06 231.22 263.75 231.67 264.31 231.78C264.96 231.91 265.48 232.29 265.72 232.81C265.92 233.26 266.51 233.78 267.02 233.96C267.53 234.14 268.11 234.57 268.3 234.93C268.49 235.29 269.24 235.82 269.96 236.11C270.68 236.4 271.48 236.91 271.72 237.24C271.97 237.57 272.56 238.02 273.03 238.22C273.87 238.59 274.77 239.33 277.1 241.53C277.7 242.1 278.74 242.67 279.41 242.79C280.21 242.94 280.7 243.25 280.84 243.68C280.95 244.05 281.55 244.55 282.16 244.81C282.78 245.07 283.45 245.59 283.65 245.97C283.86 246.35 284.52 246.87 285.12 247.13C285.73 247.38 286.62 247.98 287.1 248.46C287.58 248.94 288.21 249.33 288.51 249.33C288.8 249.33 289.55 249.82 290.16 250.42C292.07 252.26 293.8 253.57 294.67 253.83C295.12 253.96 295.9 254.51 296.4 255.04C296.89 255.57 297.53 256 297.82 256C298.11 256 298.52 256.37 298.72 256.83C298.93 257.28 299.42 257.75 299.8 257.86C300.19 257.98 300.95 258.5 301.5 259.01C302.05 259.53 302.92 260.06 303.44 260.19C303.96 260.31 304.56 260.71 304.77 261.07C304.99 261.43 305.72 262.01 306.41 262.36C307.09 262.71 307.8 263.28 307.98 263.63C308.16 263.97 308.91 264.49 309.64 264.78C310.37 265.08 311.12 265.61 311.31 265.96C311.5 266.32 312.12 266.71 312.69 266.84C313.31 266.97 313.85 267.38 314.08 267.87C314.28 268.32 314.8 268.77 315.23 268.88C315.66 268.99 316.29 269.43 316.63 269.87C316.97 270.3 317.93 270.94 318.75 271.3C319.57 271.65 320.33 272.18 320.45 272.48C320.56 272.78 321.11 273.19 321.67 273.38C322.23 273.58 322.83 274.02 323.02 274.37C323.2 274.71 323.95 275.3 324.67 275.67C325.39 276.03 326.13 276.62 326.32 276.97C326.51 277.33 327.12 277.71 327.68 277.84C328.23 277.96 328.93 278.42 329.22 278.87C329.73 279.64 329.79 279.66 330.38 279.13C330.98 278.58 331 276.33 331 204.09C331 153.4 331.11 129.42 331.35 128.98C331.74 128.23 333.08 128.12 333.63 128.79C333.91 129.13 334.01 161.35 334.02 254.71L334.03 380.17L333.16 380.92L332.3 381.67L225.72 381.67C129.8 381.67 119.07 381.61 118.41 381.15ZM330.68 377.82C330.88 377.58 331 376.88 330.94 376.27C330.85 375.3 330.71 375.15 329.77 375.06C328.87 374.98 328.62 375.12 328.19 375.96C327.47 377.34 327.53 377.97 328.4 378.29C329.28 378.62 330.17 378.43 330.68 377.82ZM265.32 378C265.92 377.69 265.92 377.62 265.28 375.94C264.92 374.99 264.27 373.79 263.83 373.27C263.4 372.76 262.94 372 262.81 371.59C262.68 371.17 262.22 370.41 261.79 369.89C261.35 369.37 261 368.67 261 368.33C261 367.99 260.85 367.61 260.67 367.5C260.04 367.11 260.33 366.41 261.2 366.19C261.77 366.05 262.37 366.17 262.93 366.53C264.36 367.47 266.06 367.72 266.74 367.1C267.29 366.61 267.33 365.65 267.33 355.35C267.33 347.07 267.44 344.03 267.73 343.73C268.29 343.18 269.19 343.23 269.81 343.86C270.26 344.31 270.33 345.83 270.33 355.48C270.33 368.1 270.27 367.78 272.71 366.68C275.22 365.54 276.75 365.99 275.37 367.46C274.98 367.87 274.67 368.44 274.67 368.72C274.67 369 274.35 369.52 273.96 369.87C273.57 370.21 272.89 371.25 272.44 372.17C271.99 373.08 271.25 374.51 270.8 375.33C270.35 376.16 270.02 377.13 270.07 377.5C270.17 378.16 270.45 378.17 297.07 378.25C322.9 378.33 323.99 378.31 324.3 377.72C324.51 377.33 324.63 360.22 324.63 329.81C324.63 285.18 324.66 282.49 325.21 282.09C325.53 281.86 326.15 281.67 326.59 281.67C327.51 281.67 328.67 281.11 328.67 280.67C328.67 280.5 328.1 280.21 327.4 280.02C326.7 279.83 325.8 279.3 325.4 278.84C325 278.38 324.37 278 324.01 278C323.65 278 323.02 277.55 322.61 277C322.21 276.45 321.69 276 321.46 276C321.24 276 320.56 275.47 319.95 274.83C319.35 274.19 318.57 273.67 318.23 273.67C317.89 273.67 317.2 273.25 316.69 272.74C316.18 272.24 315.37 271.64 314.88 271.41C314.38 271.19 313.89 270.77 313.78 270.49C313.67 270.2 313.04 269.69 312.38 269.35C311.71 269.01 310.81 268.35 310.37 267.88C309.94 267.42 309.17 266.94 308.67 266.83C308.17 266.72 307.57 266.27 307.32 265.82C307.08 265.37 306.6 265 306.25 265C305.9 265 305.14 264.47 304.58 263.83C304.01 263.19 303.36 262.67 303.13 262.67C302.9 262.67 302.28 262.22 301.74 261.68C301.19 261.14 300.36 260.6 299.87 260.48C299.39 260.36 298.68 259.83 298.31 259.3C297.93 258.77 297.41 258.33 297.14 258.33C296.88 258.33 296.11 257.83 295.42 257.21C294.73 256.59 293.83 255.98 293.41 255.85C292.99 255.72 292.41 255.25 292.12 254.81C291.83 254.36 291.38 254 291.11 254C290.85 254 290.23 253.59 289.73 253.09C289.24 252.59 288.31 251.92 287.68 251.59C287.05 251.27 286.39 250.76 286.23 250.48C286.07 250.19 285.28 249.67 284.47 249.32C283.66 248.97 283 248.53 283 248.34C283 248.15 282.48 247.74 281.84 247.43C281.2 247.13 280.58 246.59 280.47 246.24C280.36 245.89 279.61 245.31 278.8 244.95C278 244.6 277.18 244.01 276.99 243.65C276.8 243.29 276.34 243 275.98 243C275.61 243 274.79 242.47 274.14 241.83C273.5 241.19 272.84 240.67 272.67 240.67C272.5 240.67 271.83 240.14 271.19 239.5C270.55 238.86 269.73 238.33 269.37 238.33C269.01 238.33 268.44 237.98 268.1 237.55C267.75 237.11 267 236.51 266.41 236.21C265.83 235.91 265.19 235.36 265 235C264.81 234.64 264.29 234.25 263.86 234.14C263.43 234.03 262.65 233.51 262.14 232.97C261.63 232.44 260.92 232 260.57 232C260.22 232 259.54 231.59 259.05 231.08C258.56 230.57 257.75 229.97 257.24 229.75C256.74 229.52 256.18 228.98 256.01 228.53C255.82 228.03 255.34 227.65 254.73 227.51C254.19 227.4 253.41 226.93 252.98 226.48C251.98 225.41 250.88 225.42 250.39 226.52C250.17 226.98 250 227.54 250 227.74C250 228.49 248.55 229.67 247.62 229.67C246.51 229.67 246.26 229.26 245.5 226.24C244.42 221.89 242.53 219.15 238.08 215.47C237.4 214.9 236.43 214.33 235.93 214.21C235.43 214.09 234.86 213.7 234.67 213.34C234.48 212.99 233.82 212.46 233.21 212.16C232.59 211.87 231.93 211.28 231.73 210.85C231.52 210.37 230.96 209.97 230.32 209.83C229.74 209.7 228.96 209.25 228.59 208.82C228.21 208.39 227.49 207.94 226.97 207.83C226.45 207.71 225.94 207.33 225.82 206.97C225.71 206.62 225.18 206.1 224.63 205.82C224.09 205.54 223.25 204.86 222.77 204.32C222.28 203.77 221.55 203.33 221.12 203.33C220.4 203.33 219.58 202.71 216.86 200.1C216.24 199.51 215.35 198.93 214.87 198.81C214.38 198.69 213.71 198.24 213.38 197.81C213.04 197.39 212.37 196.94 211.88 196.82C211.39 196.69 210.68 196.16 210.31 195.63C209.93 195.1 209.43 194.67 209.2 194.67C208.97 194.67 208.42 194.28 207.97 193.8C207.53 193.32 206.57 192.63 205.83 192.25C205.1 191.88 204.32 191.31 204.09 190.99C203.87 190.67 203.32 190.32 202.88 190.21C202.44 190.1 201.84 189.63 201.53 189.17C201.23 188.71 200.48 188.12 199.86 187.87C199.24 187.61 198.64 187.1 198.52 186.73C198.38 186.3 197.81 185.95 196.85 185.7C195.89 185.46 195.31 185.11 195.17 184.69C195.06 184.33 194.46 183.87 193.83 183.67C193.21 183.46 192.61 183 192.5 182.65C192.38 182.3 191.64 181.72 190.84 181.37C190.04 181.02 189.23 180.43 189.03 180.06C188.83 179.69 188.22 179.29 187.67 179.17C187.12 179.05 186.36 178.51 185.98 177.97C185.6 177.44 185.13 177 184.93 177C184.74 177 184 176.47 183.29 175.83C182.58 175.19 181.72 174.67 181.39 174.67C181.05 174.67 180.38 174.22 179.89 173.67C179.4 173.12 178.77 172.67 178.51 172.67C178.24 172.67 177.76 172.28 177.46 171.82C177.15 171.35 176.44 170.73 175.87 170.44C175.3 170.15 174.34 169.48 173.74 168.95C173.14 168.43 172.43 168 172.16 168C171.9 168 171.44 167.64 171.15 167.19C170.86 166.75 170.19 166.23 169.67 166.05C169.15 165.87 168.47 165.35 168.17 164.89C167.88 164.44 167.24 163.96 166.75 163.84C166.27 163.72 165.37 163.18 164.76 162.64C164.14 162.11 163.43 161.67 163.18 161.67C162.92 161.67 162.39 161.22 162 160.67C161.61 160.12 161.1 159.67 160.87 159.67C160.64 159.67 159.94 159.2 159.31 158.63C158.68 158.06 157.7 157.39 157.13 157.14C156.56 156.9 155.85 156.32 155.54 155.85C155.24 155.38 154.69 155 154.33 155C153.98 155 153.45 154.64 153.16 154.2C152.87 153.76 152.21 153.22 151.68 153.01C151.16 152.79 150.34 152.17 149.86 151.64C149.38 151.1 148.7 150.67 148.33 150.67C147.97 150.67 147.27 150.22 146.78 149.67C146.29 149.12 145.71 148.67 145.5 148.67C145.28 148.67 144.63 148.14 144.05 147.5C143.46 146.86 142.85 146.33 142.69 146.33C142.53 146.33 141.77 145.81 141 145.17C140.23 144.53 139.33 144 138.99 144C138.65 144 138.06 143.55 137.67 143C137.28 142.45 136.73 142 136.47 142C136.2 142 135.45 141.48 134.81 140.83C134.17 140.19 133.43 139.67 133.17 139.67C132.9 139.67 132.23 139.22 131.67 138.67C131.1 138.12 130.43 137.67 130.18 137.67C129.92 137.67 129.4 137.26 129.01 136.77C128.62 136.28 127.83 135.58 127.24 135.23C126.65 134.87 125.97 134.3 125.74 133.97C125.51 133.63 124.79 133.26 124.15 133.14C123.51 133.02 122.83 132.64 122.65 132.29C122.46 131.95 122.04 131.67 121.7 131.67C121.15 131.67 121.08 132.15 120.88 137.08C120.49 146.92 120.65 377.42 121.05 377.9C121.35 378.25 134.5 378.33 193.06 378.33C239.54 378.33 264.93 378.22 265.32 378ZM366.4 377.28C365.7 376.83 364.93 375.79 364.16 374.22C362.47 370.79 361.4 368.95 360.66 368.15C360.29 367.76 360 366.99 360 366.4C360 365.37 360.04 365.33 361.42 365.34C362.2 365.35 363.39 365.48 364.07 365.64C366.52 366.21 366.33 370.14 366.33 318.42C366.33 292.92 366.42 271.82 366.54 271.53C366.83 270.76 368.56 270.85 368.99 271.64C369.22 272.08 369.33 287.32 369.33 318.63C369.33 355.05 369.42 365.02 369.75 365.22C370.37 365.6 372.39 365.34 373.41 364.74C374.37 364.17 375.06 364.41 374.39 365.07C374.18 365.29 374 365.83 374 366.27C374 366.71 373.57 367.62 373.04 368.29C372.52 368.95 371.77 370.13 371.38 370.89C370.99 371.66 370.53 372.38 370.35 372.49C370.17 372.6 369.71 373.74 369.33 375.01C368.51 377.78 367.92 378.24 366.4 377.28ZM330.93 368.35L330.83 366.17L329.33 366.17L327.83 366.17L327.74 367.83C327.66 369.31 327.77 369.63 328.69 370.6C329.7 371.66 329.76 371.68 330.38 371.12C330.92 370.64 331.01 370.17 330.93 368.35ZM330.65 360.69C331.15 359.76 331.08 357.57 330.53 356.82C330.08 356.2 330.02 356.2 328.86 356.75C327.73 357.29 327.67 357.41 327.67 358.98C327.67 360.2 327.82 360.72 328.25 360.97C329.18 361.52 330.28 361.39 330.65 360.69ZM330.26 351.81C330.9 351.36 331 350.99 331 349.02C331 346.64 330.81 346.33 329.31 346.33C327.74 346.33 327.1 350.85 328.53 351.9C329.28 352.45 329.36 352.44 330.26 351.81ZM330.65 342.36C331.13 341.47 331.09 338.22 330.6 337.73C330.38 337.51 329.81 337.33 329.33 337.33C328.11 337.33 327.67 337.92 327.67 339.53C327.67 340.58 327.89 341.19 328.57 341.97C329.62 343.16 330.17 343.26 330.65 342.36ZM247.17 339.1C245.15 338.62 242.54 334.48 243.32 333.02C243.79 332.15 245.28 332.19 245.72 333.08C245.87 333.4 246.12 333.91 246.26 334.21C246.41 334.52 247.23 334.99 248.09 335.26C249.55 335.73 249.81 335.71 251.75 335.09C253.42 334.55 254.05 334.13 254.92 333.01C256.21 331.35 256.26 330.4 255.21 328.17C254.05 325.71 253.04 324.92 250.81 324.73C249.28 324.61 248.78 324.71 247.99 325.29C247.46 325.68 246.81 326 246.55 326C245.34 326 244.76 323.6 245.32 320.89C245.62 319.47 245.61 318.41 245.3 316.36C244.63 312 245.45 311.2 249.73 312.01C251.55 312.35 252.65 312.37 254.86 312.07C256.42 311.86 257.89 311.77 258.14 311.87C258.4 311.97 258.79 312.5 259.02 313.05C259.38 313.92 259.35 314.16 258.76 314.94C258.1 315.83 258.05 315.83 253.49 315.93C250.78 315.98 248.7 316.17 248.44 316.38C248.17 316.61 248 317.49 248 318.69C248 321.09 248.33 321.33 251.02 320.92C253.63 320.53 256.38 321.09 257.71 322.28C258.96 323.4 260.47 328.19 260.15 330C259.8 332.02 258.83 333.8 257.13 335.53C255.78 336.92 254.99 337.39 252.55 338.27C249.73 339.29 248.65 339.45 247.17 339.1ZM276.83 338.46C274.03 337.49 271.83 335.41 271.48 333.4C271.36 332.72 271.14 331.59 271 330.89C270.81 330.01 270.91 328.86 271.33 327.1C271.82 325.03 272.16 324.35 273.22 323.29C275.56 320.95 282.31 319.57 284.56 320.97C286.14 321.95 286.35 322.59 285.64 324.26C284.8 326.2 284.2 326.35 282.88 324.9C281.74 323.66 279.68 322.98 278.91 323.58C278.69 323.76 278.09 324.01 277.59 324.13C276.26 324.44 275.33 326.45 275.33 329.01C275.33 333.22 277.85 335.49 282.43 335.4C284.17 335.37 284.74 335.47 284.89 335.86C285.15 336.53 284.31 337.39 282.55 338.27C280.44 339.33 279.44 339.36 276.83 338.46ZM230.42 338.43C229.75 338.34 229.33 338.1 229.33 337.8C229.33 336.96 230.21 335.2 230.95 334.53C231.64 333.92 231.67 333.64 231.67 326.14C231.67 321.88 231.58 318.15 231.46 317.86C231.22 317.23 229.78 317.17 227.97 317.72C226.34 318.2 225.59 317.69 225.73 316.2C225.83 315.26 225.96 315.15 227.55 314.84C228.5 314.65 229.55 314.26 229.89 313.96C230.98 312.99 231.93 312.67 233.63 312.67C234.95 312.67 235.38 312.81 235.65 313.31C235.87 313.71 236 317.63 236 323.73L236 333.5L237.12 335.73C237.92 337.31 238.14 338.06 237.89 338.31C237.55 338.65 232.82 338.72 230.42 338.43ZM289.39 338.31C288.78 338.07 288.67 337.85 288.86 337.25C289.5 335.25 289.65 333.8 289.66 329.41L289.67 324.64L288.5 323.96C286.86 322.99 286.95 322.13 288.75 321.65C289.53 321.45 290.66 320.99 291.27 320.64C292.66 319.83 292.95 319.84 293.85 320.68C294.83 321.6 295.5 321.6 297.69 320.69L299.55 319.93L301.69 320.83C304.83 322.17 305.62 322.21 307.97 321.16C310.33 320.1 311.77 320.15 314.26 321.39C316.54 322.52 316.77 323.21 316.98 329.57C317.11 333.23 317.3 335.1 317.58 335.38C318.14 335.94 318.11 337.49 317.53 337.98C317.27 338.19 316.53 338.45 315.88 338.56C314.87 338.72 314.55 338.6 313.68 337.73L312.67 336.72L312.67 332.23C312.67 325.82 311.93 323.99 309.35 324C307.21 324.01 306.7 324.31 306.31 325.75C305.94 327.11 306.07 334.03 306.51 336.38C306.7 337.4 306.61 337.67 305.96 338.13C305.15 338.69 303.4 338.81 301.22 338.45L299.93 338.23L300.14 336.87C300.26 336.12 300.65 335.09 301.01 334.6C301.9 333.38 301.95 328.32 301.1 326.43C300.18 324.39 299.71 324 298.2 324C296.19 324.01 295.46 324.29 295.04 325.21C294.59 326.19 294.56 334.16 294.99 336.33C295.24 337.57 295.2 337.91 294.75 338.25C294.12 338.73 290.54 338.77 289.39 338.31ZM330.94 330.83C331.12 328.73 330.79 328 329.68 328C328.22 328 327.62 328.81 327.73 330.62C327.81 331.87 327.99 332.23 328.66 332.56C329.88 333.16 330.8 332.46 330.94 330.83ZM330.64 323.2C330.88 322.91 330.99 321.84 330.93 320.45L330.83 318.17L329.77 318.06C328.87 317.98 328.62 318.12 328.19 318.96C327.51 320.26 327.52 322.47 328.19 323.14C328.84 323.79 330.12 323.82 330.64 323.2ZM267.86 315.14C267.41 314.69 267.33 313.42 267.33 306.37C267.33 296.79 267.25 296.44 265.19 297.42C264.52 297.74 263.38 298 262.65 298C261.55 298 261.25 297.85 260.93 297.16C260.61 296.44 260.66 296.18 261.28 295.41C262.14 294.32 264.22 290.49 265.21 288.17C265.93 286.46 267.67 284.89 268.64 285.07C268.92 285.13 269.33 285.55 269.55 286C269.77 286.46 270.67 288.32 271.55 290.13C272.43 291.95 273.57 293.95 274.08 294.59C275.82 296.79 274.82 298.6 272.19 298C271.46 297.84 270.75 297.78 270.6 297.87C270.45 297.96 270.33 301.71 270.33 306.19C270.33 313.89 270.3 314.37 269.67 315C268.86 315.8 268.54 315.83 267.86 315.14ZM330.65 313.69C330.84 313.33 331 312.21 331 311.18C331 309.57 330.9 309.27 330.24 308.97C329.72 308.73 329.2 308.73 328.57 308.97C327.77 309.28 327.67 309.49 327.67 310.8C327.67 311.91 327.88 312.54 328.53 313.31C329.52 314.49 330.16 314.6 330.65 313.69ZM330.39 303.78C330.8 303.41 331 302.76 331 301.81C331 299.32 330.44 298.84 328.52 299.72C327.78 300.06 327.67 300.32 327.67 301.7C327.67 302.97 327.82 303.4 328.41 303.81C329.34 304.47 329.64 304.47 330.39 303.78ZM330.64 294.53C330.88 294.24 330.99 293.17 330.93 291.78L330.83 289.5L329.64 289.4C328.64 289.32 328.39 289.43 328.06 290.17C327.58 291.22 327.55 292.99 327.99 294.14C328.24 294.79 328.55 295 329.28 295C329.82 295 330.43 294.79 330.64 294.53ZM263.85 282.74C261.27 282.68 259.36 282.49 259.09 282.27C258.83 282.06 258.68 281.44 258.73 280.86L258.83 279.83L267.35 279.74C276.83 279.65 277.52 279.77 276.75 281.45C276.53 281.93 276.01 282.39 275.59 282.47C274.44 282.71 268.68 282.84 263.85 282.74ZM364.23 267.34C363.53 267.21 362.76 266.89 362.51 266.63C361.93 266.02 360 261.55 360 260.82C360 260.34 359.78 260.29 358.42 260.5C355.96 260.86 355.61 261.15 355.86 262.6C356.13 264.13 356.46 264.45 358.28 264.97C359.67 265.36 359.71 265.4 359.16 266.01C358.27 266.99 355.29 267.45 351.53 267.19C347.92 266.94 347 266.64 347 265.69C347 264.99 347.63 264.67 348.99 264.67C350.19 264.67 350.75 263.97 350.8 262.41L350.83 261.17L347 260.98C342.64 260.78 341.67 260.42 341.67 259.03C341.67 257.66 342.57 255.31 343.47 254.34C343.9 253.88 344.43 252.96 344.64 252.3C344.86 251.6 345.35 250.95 345.81 250.74C346.38 250.48 346.67 250 346.83 249.01C346.98 248.12 347.33 247.47 347.83 247.14C348.26 246.86 348.7 246.25 348.82 245.78C349.04 244.9 351.17 241.83 352.09 241.07C352.37 240.83 353.11 240.56 353.72 240.47C355.81 240.17 355.81 240.2 355.71 248.07C355.62 254.91 355.64 255.21 356.33 256.09C356.75 256.62 357.37 257 357.83 257C358.76 257 360 258.43 360 259.5C360 260.07 360.25 260.3 361 260.45C361.64 260.58 362.15 260.96 362.39 261.5C362.61 261.96 363.45 262.79 364.28 263.34C366.6 264.88 368.81 264.67 371.34 262.66C372.98 261.36 373.42 259.73 372.82 257.17C372.29 254.9 372.06 254.6 370.44 254.05C369.74 253.82 368.85 253.47 368.46 253.28C367.94 253.03 367.5 253.06 366.8 253.42C366.27 253.69 365.28 254.01 364.61 254.13C362.54 254.51 362.33 253.87 362.33 247.12C362.33 242.55 362.43 241.28 362.82 240.9C363.48 240.24 365.37 240.05 370.72 240.11C374.67 240.16 375.35 240.25 375.97 240.8C376.89 241.64 376.85 242.75 375.86 243.9C375.07 244.82 375.01 244.83 370.21 245.01C367.55 245.11 365.25 245.31 365.1 245.45C364.7 245.85 364.78 248.91 365.19 249.33C365.45 249.58 366.06 249.58 367.32 249.3C368.3 249.1 369.81 248.99 370.67 249.08C372.52 249.25 375.31 250.83 375.89 252.03C377.94 256.23 378.09 256.65 377.89 257.91C377.3 261.56 372.89 266.39 369.38 267.21C367.34 267.69 366.19 267.72 364.23 267.34ZM393.38 266.99C392.06 266.44 390.08 264.71 389.27 263.4C388.58 262.3 388.5 261.76 388.5 258.33L388.5 254.48L390 252.74C390.82 251.78 391.66 251 391.86 251C392.06 251 392.56 250.63 392.98 250.19C394.31 248.78 399.18 248.18 401.48 249.14C403.29 249.89 403.88 251.74 402.81 253.26C402.1 254.29 400.98 254.18 399.94 253C399.19 252.15 398.83 252 397.45 252C394.48 252.01 393.93 252.44 393.16 255.35C392.72 257.03 393.05 260.76 393.72 261.56C394.84 262.92 397.15 264.04 399.42 264.32C400.7 264.48 401.97 264.82 402.22 265.08C402.61 265.47 402.55 265.66 401.81 266.35C401.03 267.09 400.64 267.17 397.56 267.24C395.69 267.29 393.81 267.17 393.38 266.99ZM406.42 266.84C404.97 266.21 405 265.26 406.5 264.33L407.67 263.61L407.67 258.87C407.67 254.43 407.61 254.02 406.8 252.39C406.32 251.44 406.02 250.43 406.13 250.16C406.52 249.13 409.94 248.59 411.31 249.32C411.72 249.54 412.57 249.48 413.98 249.12C416.77 248.41 419.19 248.72 420.98 250.02C422.62 251.21 423.16 251.24 423.85 250.2C424.85 248.66 429.29 248.27 431.69 249.51C432.17 249.76 433.03 250.86 433.64 252.01C434.7 254 434.74 254.21 434.9 258.95L435.07 263.83L436.09 264.7C436.73 265.25 437.01 265.72 436.84 265.98C436.41 266.69 434.44 267.33 432.73 267.33C430.09 267.33 430 267.11 430 260.36L430 254.6L428.87 253.47C427.92 252.52 427.49 252.33 426.28 252.34C424.98 252.34 424.75 252.47 424.01 253.59C423.26 254.72 423.17 255.23 423.06 259.06L422.93 263.28L424.38 264.33C425.18 264.91 425.83 265.56 425.83 265.77C425.83 265.99 425.31 266.43 424.67 266.75C422.72 267.72 417.91 267.38 416.71 266.19C416.23 265.71 416.3 265.57 417.43 264.64L418.67 263.62L418.67 259.01L418.67 254.4L417.49 253.37C413.95 250.26 410.81 254.27 411.53 260.99C411.73 262.89 411.9 263.3 412.9 264.25C413.53 264.85 414.27 265.33 414.55 265.33C415.57 265.33 414.74 266.16 413.14 266.72C411.16 267.43 407.9 267.48 406.42 266.84ZM350.52 256.86C351.06 256.46 351.18 255.89 351.28 253.23C351.4 249.86 351.08 248.67 350.02 248.67C349.63 248.67 349.32 248.99 349.18 249.58C349.05 250.09 348.61 250.88 348.18 251.33C347.76 251.79 347.23 252.77 347 253.5C346.77 254.23 346.34 255.25 346.04 255.76C345.57 256.58 345.57 256.73 346 257.01C346.77 257.49 349.79 257.39 350.52 256.86ZM366.86 236.14C366.39 235.67 366.33 231.06 366.33 190.35C366.33 165.45 366.24 144.61 366.12 144.04C365.9 142.9 365.24 142.71 364.2 143.5C363.29 144.19 360.77 144.5 360.16 144C359.4 143.37 359.57 142.23 360.58 141.09C361.46 140.1 363.96 135.49 364.65 133.6C364.83 133.1 365.58 132.29 366.32 131.8C367.97 130.71 368.42 130.97 369.14 133.44C369.41 134.39 369.87 135.47 370.15 135.83C370.44 136.2 370.97 137.1 371.34 137.83C371.71 138.57 372.54 139.98 373.17 140.98C374.21 142.61 374.28 142.87 373.87 143.48C373.49 144.04 373.05 144.17 371.45 144.17L369.5 144.17L369.42 189.65L369.33 235.13L368.61 235.9C367.75 236.81 367.55 236.84 366.86 236.14ZM131.75 130.99C131.2 130.77 131 130.41 131 129.67C131 128.31 132.03 127.93 135.5 128.03C140.08 128.15 141.44 128.93 139.85 130.52C139.09 131.28 138.8 131.33 135.77 131.31C133.97 131.3 132.16 131.16 131.75 130.99ZM144.65 130.65C143.01 129.01 144.6 128.01 148.83 128.01C152.28 128.01 153.5 128.44 153.5 129.67C153.5 130.91 152.29 131.32 148.58 131.33C145.74 131.33 145.25 131.25 144.65 130.65ZM158.07 130.81C157.16 130.17 157.1 128.81 157.98 128.35C158.69 127.97 163.63 127.88 165.3 128.21C165.88 128.33 166.52 128.73 166.72 129.11C167.03 129.68 166.95 129.91 166.19 130.56C165.39 131.25 164.96 131.33 162.06 131.33C159.66 131.33 158.62 131.2 158.07 130.81ZM171.25 130.97C170.44 130.5 170.48 128.79 171.31 128.35C171.67 128.16 173.96 128 176.4 128C179.89 128 181.01 128.11 181.59 128.52C182.57 129.2 182.53 129.8 181.46 130.64C180.67 131.26 180.13 131.33 176.21 131.32C173.8 131.32 171.57 131.16 171.25 130.97ZM186.75 130.99C186.2 130.77 186 130.41 186 129.67C186 128.33 186.88 128 190.47 128C194.9 128 196.46 128.9 194.85 130.52C194.09 131.28 193.8 131.33 190.77 131.31C188.97 131.3 187.16 131.16 186.75 130.99ZM199.72 130.8C198.75 130.12 198.89 128.99 200 128.43C201.1 127.88 206.57 127.88 207.67 128.43C208.21 128.71 208.5 129.13 208.5 129.67C208.5 130.91 207.29 131.32 203.66 131.33C201.28 131.33 200.29 131.2 199.72 130.8ZM213.07 130.81C212.03 130.08 212.09 128.74 213.19 128.33C214.14 127.96 219.38 127.94 220.64 128.29C221.08 128.41 221.6 128.78 221.8 129.11C222.1 129.6 222 129.85 221.23 130.52C220.38 131.26 220.01 131.33 217.06 131.33C214.66 131.33 213.62 131.2 213.07 130.81ZM226.25 130.97C225.9 130.77 225.67 130.23 225.67 129.64C225.67 128.32 226.58 128 230.27 128C233.45 128.01 234.78 128.45 234.94 129.56C235.12 130.87 233.88 131.33 230.18 131.32C228.34 131.32 226.57 131.16 226.25 130.97ZM239.39 130.8C238.35 130.07 238.51 128.61 239.67 128.3C240.96 127.94 246.19 127.96 247.15 128.33C248.46 128.82 248.6 129.64 247.54 130.55C246.72 131.26 246.31 131.33 243.39 131.33C240.96 131.33 239.96 131.2 239.39 130.8ZM252.75 130.99C252.2 130.77 252 130.41 252 129.67C252 128.33 252.88 128 256.47 128C260.9 128 262.46 128.9 260.85 130.52C260.09 131.28 259.8 131.33 256.77 131.31C254.97 131.3 253.16 131.16 252.75 130.99ZM265.65 130.65C264.01 129.01 265.6 128.01 269.83 128.01C273.28 128.01 274.5 128.44 274.5 129.67C274.5 130.91 273.29 131.32 269.58 131.33C266.74 131.33 266.25 131.25 265.65 130.65ZM279.07 130.81C278.03 130.08 278.09 128.74 279.19 128.33C280.14 127.96 285.38 127.94 286.64 128.29C287.08 128.41 287.6 128.78 287.8 129.11C288.1 129.6 288 129.85 287.23 130.52C286.38 131.26 286.01 131.33 283.06 131.33C280.66 131.33 279.62 131.2 279.07 130.81ZM292.25 130.97C291.9 130.77 291.67 130.23 291.67 129.64C291.67 128.25 292.56 128 297.61 128C300.91 128 302.02 128.12 302.59 128.52C303.57 129.2 303.53 129.8 302.46 130.64C301.67 131.26 301.13 131.33 297.21 131.32C294.8 131.32 292.57 131.16 292.25 130.97ZM307.75 130.99C306.63 130.54 306.7 128.76 307.86 128.33C308.94 127.91 314.36 127.9 315.43 128.31C316.64 128.77 316.79 129.57 315.85 130.52C315.09 131.28 314.8 131.33 311.77 131.31C309.97 131.3 308.16 131.16 307.75 130.99ZM320.65 130.65C319.01 129.01 320.6 128.01 324.83 128.01C328.13 128.01 329.44 128.44 329.6 129.57C329.78 130.78 328.19 131.33 324.52 131.33C321.75 131.33 321.24 131.24 320.65 130.65ZM113.88 93.39C113.38 92.83 113.33 90.37 113.33 64.79C113.33 43.46 113.43 36.7 113.73 36.4C114.29 35.84 119.8 35.86 120.26 36.42C120.45 36.65 120.63 37.13 120.67 37.5C120.71 37.87 120.73 50.43 120.71 65.42C120.66 97.11 121.08 94 116.88 94C114.94 94 114.32 93.88 113.88 93.39ZM331.69 93.36C331 92.67 331 92.55 331 64.98C331 46.53 331.12 37.07 331.35 36.64C331.74 35.9 333.08 35.79 333.63 36.45C333.9 36.78 333.98 44.52 333.92 65L333.83 93.09L333.11 93.57C332.45 94 332.31 93.98 331.69 93.36ZM31.76 70.61C32.08 70.22 32.26 69.64 32.16 69.32C31.83 68.28 32.35 67.06 33.28 66.7C33.77 66.5 34.56 66.03 35.05 65.64C35.87 64.97 36.31 64.93 41.55 64.93C44.64 64.93 47.55 64.94 48.03 64.96C49.4 65.02 51.93 67.21 52.39 68.72C52.95 70.6 53.33 70.79 55.04 70.01C55.84 69.65 57.07 69.34 57.77 69.34C60.18 69.33 60.66 68.68 60 66.33C59.69 65.19 59.64 65.17 57.87 65.12C56.55 65.09 55.43 64.78 53.78 63.97L51.51 62.87L40.25 62.85C31.83 62.84 29 62.93 29 63.23C29 63.96 27.27 65 26.04 65C24.03 65.01 23.44 65.32 22.83 66.68C22.13 68.23 22.35 69 23.5 69C25.02 69 26.62 69.88 26.87 70.85C27.09 71.73 27.12 71.74 29.13 71.52C30.61 71.37 31.33 71.11 31.76 70.61Z" fill="#1e2749" fill-rule="evenodd"/>
</svg>
