<?xml version="1.0" encoding="UTF-8"?>
<svg xmlns="http://www.w3.org/2000/svg" viewBox="0 0 1040 202.8" width="1040" height="202.8" shape-rendering="geometricPrecision">
<path d="M594.21 120.76C591.69 114.89 591.02 108.6 592.33 103.16C593.6 97.85 594.84 95.49 596.36 95.49C597.56 95.49 597.9 96.34 597.05 97.2C596.79 97.46 596.13 99.26 595.59 101.19C594.22 106.09 594.48 113.63 596.17 118.53C596.97 120.85 597.2 122.1 596.87 122.43C595.92 123.38 595.11 122.87 594.21 120.76ZM616.15 122.24C616.01 121.88 616.45 119.82 617.13 117.67C618.86 112.2 618.87 105.75 617.17 100.42C615.69 95.79 615.68 95.38 617.02 95.58C617.83 95.69 618.37 96.45 619.31 98.8C621.26 103.66 621.8 106.57 621.47 110.47C620.89 117.28 617.3 125.24 616.15 122.24ZM652.04 122.19C651.17 121.56 651.62 120.45 653.61 118.32C656.11 115.64 657.16 113.96 657.01 112.89C656.87 111.92 656.58 111.8 654.49 111.76C651.49 111.71 650.95 110.53 653.54 109.67C656.58 108.67 659.45 110.1 659.45 112.61C659.45 114.32 658.82 115.55 656.79 117.83C655.91 118.8 655.2 119.81 655.2 120.07C655.2 120.33 656 120.55 656.97 120.55C659.26 120.56 660.39 121.21 659.56 122.04C658.8 122.8 653.03 122.92 652.04 122.19ZM682.81 121.3C682.65 120.89 682.97 119.79 683.51 118.87C684.06 117.94 684.51 116.54 684.51 115.76C684.51 114.44 684.62 114.35 686.05 114.49C687.41 114.62 687.57 114.79 687.49 115.96C687.39 117.34 684.7 121.51 683.68 121.85C683.35 121.95 682.96 121.71 682.81 121.3ZM750.22 117.56C748.37 116.64 747.87 115.05 747.86 110.02C747.85 105.52 747.82 105.38 746.67 104.95C745.17 104.37 745.15 103.16 746.64 102.59C747.48 102.27 747.83 101.74 747.94 100.6C748.07 99.29 748.28 99.04 749.27 99.04C750.26 99.04 750.49 99.3 750.69 100.69C750.89 102.11 751.13 102.37 752.35 102.51C755.47 102.86 755.42 104.95 752.29 104.95L750.69 104.95L750.69 109.23C750.69 114.26 751.11 115.35 753.07 115.35C754.14 115.35 754.47 115.56 754.47 116.26C754.47 116.77 754.31 117.27 754.12 117.38C753.03 117.99 751.24 118.07 750.22 117.56ZM601.54 116.65C601.39 116.06 601.33 112.71 601.41 109.2L601.55 102.82L602.96 102.82L604.38 102.82L604.51 109.32C604.59 113.28 604.45 116.2 604.14 116.77C603.45 118.06 601.87 117.98 601.54 116.65ZM609 117.12C608.48 116.45 608.22 105.91 608.67 103.85C608.91 102.75 609.17 102.55 610.22 102.67L611.47 102.82L611.6 109.61C611.74 116.38 611.48 117.71 610.05 117.71C609.73 117.71 609.25 117.44 609 117.12ZM633.3 117.39C633.12 117.22 632.98 112.65 632.98 107.23L632.98 97.38L634.4 97.38L635.82 97.38L635.82 101.07C635.82 103.31 636.04 104.98 636.39 105.32C637.5 106.44 644.48 105.72 644.65 104.47C644.7 104.08 644.88 102.33 645.05 100.57C645.32 97.63 645.43 97.38 646.45 97.38C647.46 97.38 647.59 97.64 647.88 100.35C648.05 101.98 648.02 106.5 647.8 110.39C647.43 117.02 647.34 117.47 646.45 117.47C645.6 117.47 645.49 117.08 645.27 113.32C645.1 110.34 644.84 109.03 644.33 108.71C643.94 108.45 641.92 108.3 639.84 108.37L636.05 108.49L635.92 112.49C635.84 114.68 635.55 116.76 635.27 117.09C634.72 117.76 633.8 117.9 633.3 117.39ZM666.78 116.86C664.57 115.45 663.7 114.23 662.98 111.49C662.06 108.04 662.12 105.63 663.22 102.63C664.78 98.35 666.84 96.91 671.39 96.91C675.08 96.91 677.78 98.42 679.44 101.4C680.61 103.5 680.74 104.17 680.61 107.31C680.45 111.54 679.39 113.95 676.79 116.02C675.22 117.27 674.54 117.48 671.59 117.61C668.89 117.73 667.91 117.58 666.78 116.86ZM699.38 117.11C699.25 116.78 699.2 111.83 699.27 106.12L699.4 95.73L700.58 95.73C701.73 95.73 701.77 95.83 701.9 99.44C702.04 103.02 702.08 103.14 703.08 102.84C709.15 101.04 711.31 103.1 711.71 111.04C711.97 116.38 711.56 117.86 709.89 117.62C708.9 117.48 708.85 117.22 708.72 112.06C708.57 106.09 708.1 104.95 705.8 104.95C703.04 104.95 702.03 107.16 702.01 113.24C702 116.53 701.53 117.71 700.24 117.71C699.89 117.71 699.5 117.44 699.38 117.11ZM717.67 116.51C715.81 114.95 715.09 112.63 715.32 109.01C715.56 105.17 716.78 103.41 719.77 102.57C723.62 101.49 726.95 103.32 728.01 107.1C728.9 110.3 728.41 110.62 722.68 110.62L717.95 110.62L718.26 112.15C718.86 115.17 720.9 116 725.52 115.13C727.19 114.82 727.53 114.88 727.53 115.49C727.53 116.9 725.59 117.71 722.26 117.71C719.56 117.71 718.88 117.53 717.67 116.51ZM732.27 116.44C731.52 115.48 731.3 114.63 731.41 113.06C731.58 110.36 732.9 109.32 736.75 108.84C739.22 108.53 739.6 108.35 739.74 107.4C740.08 105.01 738.67 104.62 732.96 105.51C731.65 105.71 731.39 103.77 732.64 103.1C734.24 102.24 737.19 102 739.27 102.56C742.47 103.42 743.1 104.91 743.04 111.42C742.98 117.22 742.58 118.26 740.84 117.17C740.09 116.71 739.62 116.7 738.65 117.14C737.97 117.46 736.48 117.71 735.34 117.71C733.65 117.71 733.08 117.47 732.27 116.44ZM738.24 114.9C740.16 113.73 740.73 112.11 739.52 111.21C738.54 110.48 735.9 110.7 734.81 111.6C733.93 112.33 733.96 114.15 734.89 115.08C735.85 116.04 736.43 116.01 738.24 114.9ZM674.68 114.33C676.57 112.99 677.42 110.81 677.42 107.31C677.42 102.08 675.64 99.75 671.66 99.75C667.23 99.75 666.01 101.11 665.7 106.42C665.45 110.62 666.09 113.03 667.83 114.39C669.49 115.7 672.79 115.67 674.68 114.33ZM724.81 107.93C725 107.82 725.16 107.34 725.16 106.86C725.16 105.78 723.22 104.47 721.61 104.47C720.26 104.47 717.89 106.53 718.19 107.44C718.53 108.47 723.29 108.83 724.81 107.93ZM30.25 100.74L29.07 100.41L29.07 87.2L29.07 73.98L35.22 73.85C42.33 73.69 43.49 73.87 43.49 75.16C43.49 76.61 42 77.05 37.14 77.05L32.62 77.05L32.62 81.07L32.62 85.09L36.6 85.09C41.18 85.09 42.07 85.33 42.07 86.54C42.07 87.91 40.57 88.4 36.41 88.4L32.58 88.4L32.72 93.01L32.85 97.62L38.13 97.75C42.59 97.86 43.45 98.01 43.71 98.69C43.91 99.22 43.66 99.79 42.99 100.33C42.14 101.02 41.07 101.16 36.7 101.12C33.81 101.09 30.9 100.92 30.25 100.74ZM52.19 100.26C50.29 99.11 49.72 96.72 49.94 90.76C50.15 84.95 49.99 84.33 48.22 83.98C47.09 83.75 46.8 83.45 46.8 82.5C46.8 81.65 47.05 81.31 47.69 81.31C48.95 81.31 49.78 80.11 50.08 77.84C50.32 76.03 50.46 75.87 51.76 75.87C53.09 75.87 53.2 76.01 53.43 78C53.78 80.95 54.11 81.31 56.53 81.31C58.02 81.31 58.73 81.53 58.93 82.05C59.36 83.17 58.38 83.84 55.9 84.12L53.65 84.38L53.7 90.39C53.74 97.25 54 97.85 56.8 97.85C59.11 97.85 59.76 99.01 58.17 100.29C56.78 101.42 54.06 101.41 52.19 100.26ZM63.83 100.25C63.53 99.68 63.35 94.25 63.35 85.89C63.35 74.4 63.45 72.36 64.07 71.84C64.62 71.38 65.07 71.37 65.96 71.77C67.09 72.29 67.13 72.45 67.13 77.28C67.13 80.02 67.27 82.25 67.45 82.25C67.63 82.25 68.71 81.8 69.85 81.25C73.37 79.55 77.28 80.71 78.94 83.95C79.45 84.94 79.69 87.32 79.81 92.43C79.96 99.19 79.92 99.57 78.96 100.44C78.18 101.15 77.76 101.24 77.15 100.86C76.46 100.43 76.33 99.32 76.21 93.32C76.09 86.44 76.06 86.27 74.83 84.98C73 83.08 70.83 83.19 68.73 85.28L67.13 86.89L67.13 93.54C67.13 99.63 67.05 100.23 66.21 100.67C64.9 101.38 64.39 101.29 63.83 100.25ZM86.66 100.24C85.83 99.74 84.92 98.9 84.65 98.38C84 97.16 84 93.34 84.66 92.11C85.47 90.6 88.75 89.37 92.01 89.36C93.96 89.35 95.09 89.12 95.47 88.66C96.27 87.7 95.65 85.26 94.4 84.38C93.1 83.47 89.79 83.47 87.59 84.39C85.65 85.2 84.93 84.83 85.17 83.14C85.29 82.27 85.85 81.84 87.69 81.23C92.24 79.71 96.37 80.48 98.21 83.19C99.2 84.66 99.27 85.25 99.27 92.47C99.27 99.89 99.23 100.21 98.25 100.73C97.39 101.19 97.11 101.12 96.44 100.22L95.65 99.17L93.7 100.17C91.26 101.41 88.62 101.44 86.66 100.24ZM106.46 100.6C105.71 99.85 105.65 81.51 106.39 81.06C107.19 80.56 109.2 81.26 109.2 82.03C109.2 82.9 109.01 82.94 111.76 81.54C114.58 80.12 116.21 80.06 118.66 81.31C121.7 82.86 122.16 84.26 122.35 92.43C122.51 99.06 122.45 99.58 121.57 100.39C120.95 100.94 120.27 101.14 119.63 100.94C118.7 100.64 118.65 100.29 118.65 93.6C118.65 86.74 118.63 86.55 117.43 85.13C115.78 83.17 113.81 83.17 111.43 85.13L109.67 86.58L109.67 93.09C109.67 98.8 109.57 99.7 108.81 100.38C107.78 101.31 107.22 101.36 106.46 100.6ZM132.29 100.55C128.83 98.95 127.19 95.87 127.18 91C127.17 88.47 127.45 87.1 128.34 85.19C129.34 83.04 129.84 82.54 131.99 81.54C136.95 79.23 142.18 80.56 144.65 84.75C145.56 86.29 145.67 87.05 145.53 90.92C145.38 94.87 145.23 95.51 144.06 97.03C141.83 99.96 140.09 100.89 136.63 101.02C134.92 101.09 132.98 100.88 132.29 100.55ZM151.37 100.6C150.95 100.18 150.8 96.28 150.8 85.97C150.8 72.42 150.83 71.91 151.73 71.62C152.24 71.46 153.09 71.56 153.62 71.84C154.55 72.35 154.58 72.76 154.58 85.98C154.58 98.57 154.52 99.66 153.72 100.38C152.69 101.31 152.13 101.36 151.37 100.6ZM601.49 99.54C600.93 98.08 601.51 96.67 602.68 96.67C604.37 96.67 605.03 98.03 603.93 99.25C602.91 100.38 601.86 100.51 601.49 99.54ZM609.17 99.5C607.64 97.97 608.88 95.9 610.73 96.89C611.95 97.54 611.98 98.41 610.82 99.46C610 100.2 609.87 100.2 609.17 99.5ZM995.41 98.96C994.56 98.11 995.2 95.89 996.86 93.92C997.84 92.76 1000.34 89.75 1002.42 87.23C1004.5 84.7 1007.42 81.22 1008.91 79.49C1010.4 77.76 1011.62 76.19 1011.63 76.01C1011.63 75.82 1009.14 75.61 1006.08 75.53L1000.53 75.4L1000.38 73.86L1000.23 72.33L1008.51 72.33C1013.06 72.33 1016.9 72.52 1017.05 72.76C1017.65 73.73 1016.02 76.09 1008.69 84.89C1004.46 89.97 1000.93 94.54 1000.85 95.04C1000.71 95.91 1001.01 95.96 1006.35 95.96C1012.43 95.96 1013.28 96.27 1012.54 98.21C1012.15 99.26 1012.01 99.27 1003.93 99.27C999.42 99.27 995.58 99.13 995.41 98.96ZM298.46 98.09C298.13 97.23 298.96 95.91 302.77 91.24C304.36 89.29 306.25 86.9 306.98 85.93L308.31 84.18L306.13 78.44C304.94 75.28 303.96 72.4 303.96 72.04C303.96 71.2 307.06 71.14 307.6 71.97C307.81 72.29 308.63 74.35 309.43 76.55C310.22 78.74 311.1 80.62 311.38 80.71C311.66 80.8 313.42 78.8 315.29 76.25C317.17 73.7 319.09 71.43 319.57 71.2C320.54 70.75 322.87 71.17 322.87 71.79C322.87 72.36 321.27 74.51 317 79.68L313.25 84.21L313.86 85.95C314.2 86.91 315.42 89.92 316.57 92.64C318.55 97.32 318.62 97.63 317.82 98.22C317.15 98.7 314.83 98.67 314.56 98.17C314.53 98.13 313.65 95.86 312.59 93.13C311.53 90.4 310.38 88.11 310.03 88.05C309.68 87.99 308.23 89.57 306.8 91.57C302.9 97.01 301.19 98.8 299.88 98.8C299.25 98.8 298.61 98.48 298.46 98.09ZM529.03 98.37C528.3 97.9 528.45 95.99 529.63 90.7C530.25 87.91 530.25 87.34 529.61 85.5C528.46 82.21 525.67 72.64 525.67 71.98C525.67 71.61 526.31 71.38 527.34 71.38C529.25 71.38 529.28 71.42 531.21 78.24C531.87 80.58 532.58 82.68 532.78 82.9C532.99 83.13 534.39 81.42 535.89 79.12C540.43 72.13 541.12 71.38 542.97 71.38C544.25 71.38 544.58 71.57 544.58 72.3C544.58 72.8 544.38 73.34 544.14 73.49C543.46 73.91 534.64 86.48 534.18 87.69C533.96 88.27 533.42 90.7 532.98 93.08C532.38 96.37 531.95 97.57 531.19 98.1C530.03 98.91 529.91 98.93 529.03 98.37ZM93.34 97.4C95.13 96.29 96.11 94.64 95.89 93.08C95.75 92.13 95.42 91.92 93.84 91.79C91.03 91.56 88.44 92.48 87.91 93.89C87.29 95.51 87.32 95.66 88.43 97.08C89.62 98.59 91.25 98.69 93.34 97.4ZM138.28 97.65C140.72 96.63 141.81 94.47 141.82 90.67C141.82 88.92 141.56 86.94 141.25 86.26C139.86 83.19 134.11 82.73 132.05 85.52C130.45 87.69 130.82 94.23 132.66 96.43C133.66 97.61 134.25 97.91 136.28 98.26C136.48 98.3 137.38 98.02 138.28 97.65ZM278.28 93.28C277.62 92.62 278.01 90.54 278.99 89.49L280.02 88.4L277.93 88.32C276.78 88.27 275.41 88.24 274.89 88.26C274.37 88.27 259.69 88.41 242.27 88.57C224.85 88.74 200.49 89.01 188.12 89.17C167.34 89.45 165.59 89.41 164.84 88.67C163.89 87.71 163.81 86.8 164.63 86.15C165.2 85.69 180.14 85.46 249.6 84.8C269.02 84.62 278.88 84.36 279.28 84.03C279.76 83.63 279.64 83.27 278.69 82.27C276.87 80.37 277.26 78.47 279.47 78.47C280.28 78.47 286.95 85.2 286.95 86.01C286.95 86.98 280.31 93.6 279.33 93.6C278.93 93.6 278.45 93.46 278.28 93.28ZM976.25 91.59C975.42 90.76 975.6 89.13 976.69 87.75L977.67 86.51L769.73 86.51C608.63 86.51 561.66 86.38 561.22 85.94C560.52 85.24 560.48 83.37 561.15 82.95C561.42 82.78 655.12 82.66 769.37 82.67C912.9 82.69 977.18 82.54 977.39 82.2C977.56 81.93 977.25 81.24 976.7 80.65C976.16 80.07 975.71 79.02 975.71 78.32C975.71 77.27 975.92 77.05 976.94 77.05C977.81 77.05 979.11 77.97 981.43 80.2C983.22 81.94 984.69 83.67 984.69 84.06C984.69 84.86 979.33 90.69 977.79 91.57C977.04 92 976.66 92 976.25 91.59ZM495.26 90.92C494.56 90.22 495 87.7 496.01 86.59L497.07 85.43L440.58 85.74C409.51 85.91 372.02 86.12 357.27 86.22C337.2 86.34 330.26 86.25 329.69 85.83C329.25 85.51 329 84.79 329.09 84.12C329.25 82.97 329.27 82.96 336.35 82.69C340.25 82.54 371.73 82.38 406.31 82.33C465.37 82.26 494.78 81.98 496.32 81.5C496.83 81.33 496.74 81.03 495.93 80.16C494.64 78.79 494.72 76.44 496.07 76.19C497.12 75.99 503.93 82.5 503.93 83.7C503.93 84.63 497.2 91.24 496.26 91.24C495.88 91.24 495.43 91.09 495.26 90.92ZM248.42 80.03C247.49 79.82 246.29 78.64 246.29 77.94C246.29 77.75 247.41 77.71 248.79 77.85C250.78 78.06 251.42 77.95 251.95 77.31C252.94 76.12 251.99 74.97 249.79 74.69C247.41 74.38 246.93 72.93 249.07 72.5C250.81 72.16 252.18 70.74 251.79 69.71C251.56 69.13 250.96 68.98 249.25 69.08C246.64 69.25 245.88 68.15 247.95 67.21C250.89 65.87 254.33 67.36 254.33 69.97C254.33 70.72 254.11 71.46 253.85 71.62C253.15 72.05 253.28 73.55 254.09 74.22C255.1 75.06 254.97 77.36 253.84 78.49C252.26 80.07 250.6 80.54 248.42 80.03ZM846.47 75.36C846.31 74.95 846.18 70.29 846.18 65.01C846.18 56.32 846.26 55.38 847 55.09C847.54 54.89 848.1 55.11 848.59 55.72C849.34 56.64 849.36 56.64 850.72 55.75C852.48 54.59 854.99 54.59 856.91 55.76C858.05 56.46 858.6 57.29 859.16 59.15C860.08 62.26 860.07 63.11 859.13 65.87C858.15 68.75 856.03 70.44 853.37 70.44C852.31 70.44 851.31 70.22 851.15 69.96C850.98 69.7 850.55 69.49 850.17 69.49C849.66 69.49 849.49 70.16 849.49 72.23C849.49 73.74 849.24 75.23 848.92 75.54C848.12 76.34 846.81 76.25 846.47 75.36ZM203.55 74.9C202.87 74.22 202.78 72.9 202.83 64.83C202.87 59.29 203.1 55.3 203.39 54.95C204.01 54.18 210.97 54.68 212.84 55.62C214.55 56.48 215.57 58.12 215.65 60.09C215.81 64.51 212.77 67.6 208.26 67.6L206.11 67.6L206.11 70.84C206.11 73.4 205.93 74.24 205.22 74.88C204.39 75.63 204.28 75.63 203.55 74.9ZM220.65 75.16C219.9 74.7 219.82 73.72 219.82 65.8C219.83 60.94 219.96 56.48 220.12 55.9C220.38 54.9 220.65 54.84 224.39 54.84C230.14 54.84 232.11 56.07 232.11 59.68C232.11 60.56 231.8 61.69 231.42 62.19C230.43 63.5 230.53 64.27 231.85 65.5C234.71 68.14 233.46 72.83 229.46 74.51C227.35 75.39 221.69 75.81 220.65 75.16ZM594.91 74.49C591.31 69.01 590.81 56.99 593.91 50.58C594.6 49.14 595.28 48.41 596 48.3C597.36 48.11 597.35 48.7 595.87 53.23C594.32 57.98 594.24 64.34 595.67 69.49C596.21 71.43 596.87 73.29 597.14 73.62C597.5 74.04 597.47 74.42 597.05 74.93C596.24 75.91 595.78 75.82 594.91 74.49ZM608.87 74.7C608.87 74.18 609.4 71.92 610.05 69.68C610.91 66.72 611.24 64.48 611.24 61.48C611.24 58.46 610.92 56.32 610.05 53.42C608.62 48.64 608.61 48.22 609.83 48.22C610.53 48.22 611.07 48.84 611.78 50.46C614.47 56.6 614.88 63.84 612.89 69.79C611.54 73.79 610.48 75.64 609.53 75.64C609.17 75.64 608.87 75.21 608.87 74.7ZM646.22 75.19C643.77 74.8 643.91 73.71 646.85 70.52C649.91 67.19 650.41 66 649.27 64.74C648.62 64.02 648.06 63.89 646.62 64.12C645.13 64.36 644.8 64.27 644.8 63.63C644.8 62.73 646.6 61.93 648.63 61.93C650.29 61.93 652.36 63.77 652.36 65.23C652.36 66.6 650.81 69.5 649.34 70.87C647.5 72.59 647.75 73.27 650.21 73.27C652.34 73.27 653.32 73.92 652.48 74.77C651.92 75.32 648.52 75.55 646.22 75.19ZM236.68 74.85C236.51 74.68 236.36 71.37 236.36 67.51C236.36 61.44 236.47 60.44 237.14 60.18C237.56 60.02 238.31 60.14 238.8 60.44C239.5 60.88 239.92 60.84 240.83 60.24C242.2 59.34 243.88 59.5 244.56 60.59C245.28 61.73 244.15 62.87 242.29 62.87C240.16 62.87 239.55 64.27 239.55 69.1C239.55 71.27 239.37 73.51 239.15 74.1C238.77 75.11 237.36 75.53 236.68 74.85ZM696.02 73.75C695.75 72.41 695.6 72.33 693.53 72.33C691.29 72.33 690.18 71.73 690.18 70.54C690.18 69.67 693.78 63.66 694.91 62.63C695.52 62.08 696.21 61.91 697.02 62.12C698.17 62.41 698.22 62.56 698.22 66.02C698.22 68.9 698.38 69.74 699.04 70.22C699.82 70.79 699.82 70.87 699.04 71.73C698.59 72.23 698.22 72.95 698.22 73.33C698.22 74.09 697.32 75.16 696.69 75.16C696.48 75.16 696.18 74.53 696.02 73.75ZM701.24 74.02C701.1 73.66 701.36 72.65 701.81 71.78C702.27 70.91 702.77 69.46 702.92 68.55C703.22 66.71 704.7 66.06 705.73 67.3C706.43 68.14 705.56 70.49 703.62 73.04C702.26 74.82 701.65 75.08 701.24 74.02ZM228.26 72.13C230.15 71.15 230.93 69.22 230 67.79C228.94 66.17 227.63 65.64 225.12 65.8L222.89 65.95L222.83 68.55C222.73 72.48 222.9 72.8 225.07 72.8C226.11 72.8 227.54 72.5 228.26 72.13ZM364.75 71.35C362.07 68.16 364.05 64.65 368.87 64.05C371.67 63.7 372.69 63 372.43 61.61C372.14 60.12 369.98 59.28 367.93 59.86C366.94 60.14 365.82 60.46 365.45 60.56C364.42 60.84 364.27 59.11 365.26 58.37C367.75 56.5 373.42 57.22 374.63 59.56C375.66 61.55 375.66 72.24 374.63 72.63C374.24 72.78 373.59 72.64 373.2 72.31C372.65 71.85 372.21 71.84 371.29 72.26C370.64 72.56 369.17 72.8 368.04 72.8C366.31 72.8 365.77 72.56 364.75 71.35ZM379.83 71.74C379.69 71.15 379.63 66.21 379.7 60.75C379.83 51.64 379.91 50.82 380.69 50.67C382.75 50.27 382.91 51.08 382.91 61.65C382.91 68.81 382.75 71.83 382.34 72.23C381.42 73.15 380.11 72.89 379.83 71.74ZM388.51 71.73C386.64 70.16 386.13 68.78 386.11 65.29C386.08 60.44 387.65 58.13 391.44 57.44C393.63 57.04 397.09 58.36 397.09 59.59C397.09 60.87 396.53 61.01 394.35 60.25C390.56 58.95 388.81 60.81 389.16 65.81C389.39 69.08 390.41 70.44 392.65 70.44C393.5 70.44 394.33 70.22 394.49 69.96C394.95 69.23 397.09 69.39 397.09 70.17C397.09 70.54 396.53 71.28 395.85 71.82C394.06 73.22 390.22 73.18 388.51 71.73ZM400.97 72.23C400.66 71.92 400.4 71.18 400.4 70.59C400.4 69.29 402.38 68.59 403.48 69.5C404.8 70.6 404.01 72.8 402.29 72.8C401.87 72.8 401.28 72.54 400.97 72.23ZM416.32 72.48C416.14 72.31 416 67.74 416 62.32L416 52.47L417.42 52.47L418.84 52.47L418.84 56.49C418.84 58.7 419.03 60.51 419.26 60.51C419.5 60.51 420.45 59.5 421.37 58.26C422.29 57.03 423.64 55.23 424.37 54.26C425.41 52.87 426.01 52.49 427.23 52.48C428.07 52.48 428.76 52.63 428.76 52.83C428.76 53.02 427.39 54.88 425.71 56.96C424.03 59.04 422.65 61.12 422.64 61.57C422.62 62.36 425.36 66.52 428.08 69.85C429.11 71.11 429.23 71.52 428.76 72.1C428.44 72.48 427.91 72.8 427.58 72.8C426.8 72.8 424.19 69.88 421.72 66.25C420.64 64.65 419.56 63.35 419.34 63.35C419.11 63.35 419.04 65.01 419.18 67.04C419.45 71.05 418.94 72.8 417.48 72.8C417.01 72.8 416.49 72.66 416.32 72.48ZM435.81 71.74C434.9 71.14 433.68 69.64 433.02 68.31C431.35 64.98 431.37 59.28 433.05 56.27C434.81 53.12 436.26 52.28 440.3 52.08C445.24 51.83 447.15 52.89 449.11 56.96C450.13 59.09 450.33 63.45 449.54 66.31C448.96 68.37 446.71 71.12 444.79 72.12C442.65 73.22 437.73 73.01 435.81 71.74ZM454.13 72.48C453.96 72.31 453.82 67.62 453.82 62.05L453.82 51.94L455.12 52.09C456.41 52.24 456.42 52.25 456.55 56.37C456.72 61.22 456.74 61.24 462.09 60.64L465.4 60.27L465.54 56.37L465.67 52.47L467.07 52.47L468.47 52.47L468.47 62.11C468.47 70.09 468.35 71.84 467.76 72.33C467.2 72.8 466.91 72.8 466.35 72.33C465.82 71.89 465.64 70.73 465.64 67.84L465.64 63.95L463.44 63.65C462.24 63.48 460.22 63.35 458.95 63.35L456.65 63.35L456.65 67.51C456.65 71.55 456.26 72.8 454.98 72.8C454.69 72.8 454.31 72.66 454.13 72.48ZM371.47 69.33C373.02 67.91 372.73 66 370.92 65.79C370.18 65.71 368.96 65.89 368.2 66.2C367.08 66.67 366.84 67.05 366.84 68.34C366.84 71.01 369.11 71.5 371.47 69.33ZM443.94 69.36C446.2 67.83 446.95 66.05 446.94 62.16C446.94 56.55 444.55 53.97 439.99 54.66C436.41 55.2 434.92 57.58 434.91 62.74C434.9 69.12 439.4 72.41 443.94 69.36ZM601.62 70.12C601.29 69.78 601.17 55.31 601.51 55.31C601.62 55.31 602.01 55.19 602.39 55.05C602.77 54.9 603.42 55.13 603.85 55.55C604.48 56.19 604.62 57.45 604.62 62.81C604.62 67.23 604.44 69.48 604.05 69.87C603.43 70.49 602.13 70.62 601.62 70.12ZM626.21 70.12C626.03 69.95 625.89 65.37 625.89 59.94C625.89 51.57 626 50.04 626.61 49.81C628.09 49.23 628.73 50.55 628.73 54.2C628.73 57.52 628.79 57.72 629.94 58.16C631.69 58.82 635.97 58.72 636.96 58C637.63 57.51 637.83 56.62 637.91 53.86C638.01 50.43 638.04 50.34 639.28 50.2L640.55 50.05L640.55 59.71C640.55 68.01 640.44 69.46 639.79 70.01C638.55 71.03 637.91 69.56 637.78 65.39C637.71 63.36 637.49 61.52 637.29 61.32C637.08 61.11 635.12 61 632.94 61.08L628.96 61.22L628.82 65.21C628.75 67.41 628.46 69.48 628.18 69.82C627.62 70.49 626.71 70.63 626.21 70.12ZM656.62 69.83C655.88 69.45 655.38 68.75 655.29 67.94C655.11 66.44 655.07 66.45 657.25 67.36C659.57 68.33 661.18 68.25 662.81 67.1C663.77 66.41 664.18 65.72 664.18 64.79C664.18 63.25 663.59 62.68 659.99 60.75C655.25 58.2 653.87 54.06 656.79 51.14C658.83 49.1 665.11 49.22 665.91 51.32C666.43 52.68 665.34 53.17 663.29 52.49C661.07 51.76 659.2 52.13 658.5 53.43C657.65 55.03 658.89 56.79 662.06 58.47C665.38 60.24 667.49 62.41 667.49 64.08C667.49 66.12 666.25 68.36 664.53 69.42C662.64 70.59 658.55 70.8 656.62 69.83ZM673.82 69.54C669.89 67.14 668.54 61.94 670.23 55.65C670.94 52.98 672.08 51.55 674.26 50.55C678.83 48.48 684.81 49.98 686.62 53.65C687.77 55.97 688.16 61.6 687.35 64.06C686.61 66.29 684.23 68.98 682.29 69.8C680.01 70.75 675.59 70.61 673.82 69.54ZM695.77 67.62C695.94 65.23 695.16 65.19 693.8 67.53C692.69 69.43 693.03 70.58 694.54 70.02C695.39 69.71 695.65 69.21 695.77 67.62ZM717.92 70.12C717.74 69.95 717.6 66.54 717.6 62.56L717.6 55.31L718.69 55.31C719.29 55.31 720.01 55.55 720.3 55.84C720.69 56.22 721.12 56.16 721.92 55.6C723.26 54.66 724.23 54.63 725.41 55.49C726.17 56.05 726.21 56.27 725.68 56.91C725.33 57.33 724.47 57.67 723.76 57.67C721.36 57.67 720.68 59.1 720.58 64.4C720.53 67.01 720.38 69.44 720.24 69.79C719.98 70.46 718.47 70.67 717.92 70.12ZM730.65 69.45C728.77 67.96 727.85 65.8 727.84 62.84C727.84 57.72 730.47 54.84 735.14 54.84C742.16 54.83 744.75 64 739.11 68.95C737.63 70.25 737.08 70.44 734.67 70.44C732.59 70.44 731.6 70.19 730.65 69.45ZM747.23 69.02C745.01 67.08 744.19 64.1 744.93 60.59C745.56 57.57 746.87 55.97 749.24 55.31C755.12 53.68 758.72 56.37 758.72 62.4C758.72 67.59 756.09 70.43 751.3 70.43C749.23 70.44 748.57 70.21 747.23 69.02ZM762.81 70.06C762.68 69.86 762.51 66.57 762.42 62.76C762.26 55.04 762.53 54.12 764.57 55.46C765.64 56.16 765.87 56.16 767.23 55.48C769.04 54.57 771.24 54.91 772.74 56.32L773.8 57.31L775.03 56.34C777.65 54.28 781.01 54.63 782.68 57.13C783.31 58.07 783.56 59.62 783.7 63.4C783.89 68.57 783.46 70.44 782.1 70.44C781.01 70.44 780.62 68.71 780.58 63.67C780.56 60.82 780.32 58.77 779.98 58.35C779 57.18 776.42 57.51 775.29 58.95C774.4 60.07 774.29 60.78 774.36 64.89C774.45 69.71 774.14 70.65 772.6 70.35C771.82 70.2 771.73 69.66 771.71 64.99C771.68 58.85 771.24 57.67 768.95 57.67C766.3 57.67 765.7 58.83 765.56 64.29C765.44 68.98 764.99 70.44 763.66 70.44C763.32 70.44 762.93 70.27 762.81 70.06ZM796.11 69.19C795.25 68.11 795.13 67.29 795.13 62.84C795.13 57.91 795.09 57.73 794.06 57.59C792.5 57.37 792.41 55.62 793.92 54.93C794.83 54.52 795.13 54.03 795.13 52.96C795.13 51.69 795.28 51.53 796.54 51.53C797.69 51.53 798 51.76 798.23 52.83C798.74 55.16 798.86 55.31 800.28 55.31C801.06 55.31 801.83 55.53 801.99 55.8C802.49 56.6 801.26 57.67 799.85 57.67C798.54 57.67 798.54 57.68 798.2 61.87C797.82 66.78 798.24 68.07 800.27 68.07C802.03 68.07 802.38 68.52 801.44 69.57C800.2 70.94 797.32 70.73 796.11 69.19ZM807.89 69.84C806.24 69.02 804.58 65.52 804.59 62.89C804.6 60.26 805.99 57.06 807.56 56.03C810.29 54.25 814.57 54.75 816.39 57.05C817.91 58.99 818.42 61.47 817.5 62.49C816.86 63.2 815.96 63.35 812.31 63.35L807.89 63.35L807.91 64.65C807.94 67.43 809.96 68.64 813.5 68C816.11 67.52 817.35 67.69 817.35 68.52C817.35 70.14 810.45 71.1 807.89 69.84ZM821.23 69.61C820.92 68.95 820.79 58.54 821.07 55.9C821.14 55.19 822.64 55.12 823.31 55.79C823.64 56.12 824.38 56.03 825.62 55.51C827.79 54.61 829.85 54.9 831.39 56.34L832.47 57.36L833.54 56.37C835.78 54.28 839.63 54.64 841.3 57.11C842.51 58.89 842.59 69.34 841.4 70.1C840.98 70.37 840.29 70.45 839.86 70.29C839.22 70.04 839.09 69.19 839.09 65.05C839.09 58.73 838.72 57.67 836.5 57.67C833.53 57.67 832.95 58.79 832.95 64.47C832.95 69.57 832.46 70.9 830.82 70.27C830.25 70.05 830.11 69.01 830.11 64.88C830.11 58.9 829.59 57.67 827.08 57.67C824.52 57.67 823.96 58.75 823.96 63.71C823.96 66.07 823.76 68.56 823.5 69.22C822.97 70.62 821.82 70.82 821.23 69.61ZM865.8 69.87C863.94 68.8 862.25 65.67 862.25 63.29C862.25 60.73 863.4 57.59 864.74 56.46C868.73 53.1 875.49 55.79 875.49 60.72C875.49 63.03 874.83 63.35 869.96 63.35C865.61 63.35 865.56 63.36 865.56 64.5C865.56 65.14 866.07 66.25 866.69 66.97C867.66 68.09 868.12 68.26 869.88 68.14C871.02 68.06 872.56 67.96 873.32 67.92C875.2 67.81 875.39 68.8 873.65 69.7C871.99 70.56 867.19 70.66 865.8 69.87ZM879.59 70.12C879.41 69.95 879.27 66.54 879.27 62.56L879.27 55.31L880.43 55.31C881.06 55.31 881.71 55.52 881.87 55.78C882.06 56.08 882.67 55.99 883.53 55.54C885.27 54.64 886.56 54.64 887.31 55.55C888.14 56.55 887.12 57.67 885.37 57.67C883.15 57.67 882.36 59.44 882.25 64.69C882.2 67.14 882.05 69.43 881.91 69.79C881.66 70.46 880.14 70.68 879.59 70.12ZM890.94 69.11C890.03 68.15 889.67 67.29 889.67 66.02C889.67 63.16 892.15 61.45 896.29 61.45C898.1 61.45 898.95 60.35 898.27 58.85C897.59 57.38 895.88 56.95 893.24 57.62C890.55 58.3 890.62 58.31 890.62 57.22C890.62 55.44 894.73 54.38 898.08 55.28C901.01 56.07 901.49 57.33 901.49 64.24C901.49 70.31 901.24 70.97 899.32 69.94C898.44 69.47 897.92 69.46 896.98 69.89C894.78 70.89 892.35 70.58 890.94 69.11ZM907.98 69.85C906.69 68.86 906.22 66.81 906.22 62.13C906.22 57.99 906.15 57.67 905.27 57.67C903.98 57.67 903.95 55.52 905.24 55.18C905.87 55.02 906.2 54.45 906.3 53.35C906.44 51.94 906.61 51.76 907.87 51.76C909.13 51.76 909.32 51.95 909.53 53.42C909.73 54.84 909.96 55.09 911.18 55.23C911.96 55.31 912.79 55.57 913.03 55.8C913.74 56.48 912.37 57.67 910.87 57.67L909.5 57.67L909.63 62.75L909.76 67.84L911.54 67.98C913.34 68.13 913.79 68.82 912.74 69.87C912 70.61 908.97 70.6 907.98 69.85ZM918.18 69.6C916.55 68.32 916.15 66.54 916.15 60.68L916.15 55.25L917.45 55.4L918.75 55.55L918.98 61.03C919.23 66.89 919.67 68.07 921.6 68.07C922.2 68.07 923.35 67.42 924.15 66.62C925.58 65.18 925.6 65.11 925.6 60.2L925.6 55.25L926.9 55.4L928.2 55.55L928.33 62.45C928.44 68.21 928.34 69.46 927.73 69.96C927.13 70.46 926.84 70.43 926.11 69.76C925.28 69.01 925.1 69.01 923.78 69.69C921.9 70.66 919.48 70.62 918.18 69.6ZM933.48 70.12C933.31 69.95 933.16 66.54 933.16 62.56L933.16 55.31L934.31 55.31C934.93 55.31 935.53 55.56 935.64 55.87C935.77 56.27 936.15 56.2 936.96 55.63C938.44 54.6 939.91 54.62 940.88 55.69C941.87 56.78 941.12 57.67 939.21 57.67C936.67 57.67 936 59.02 936 64.09C936 66.57 935.78 69.02 935.51 69.52C935.02 70.44 934.07 70.72 933.48 70.12ZM946.48 69.87C945.16 69.2 943.7 66.48 943.29 63.91C942.9 61.46 944.18 57.53 945.77 56.27C948.27 54.31 952.7 54.59 954.77 56.84C956.26 58.45 956.87 61.15 956.02 62.36C955.4 63.24 954.85 63.35 950.86 63.35C946.75 63.35 946.4 63.42 946.4 64.27C946.4 67.39 948.8 68.83 952.63 68.01C955.45 67.41 956.6 68 955.24 69.37C954.23 70.37 948.17 70.72 946.48 69.87ZM898.1 66.01C899.03 64.09 898.17 63.26 895.64 63.65C894.57 63.81 893.42 64.16 893.1 64.41C892.22 65.1 892.38 66.53 893.46 67.6C894.31 68.45 894.55 68.49 895.94 67.92C896.78 67.58 897.76 66.72 898.1 66.01ZM681.24 67.34C683.66 66.09 684.51 64.11 684.51 59.7C684.51 56.06 684.42 55.71 683.1 54.21C681.31 52.17 678.3 51.6 675.75 52.81C674.34 53.48 673.96 54.02 673.33 56.2C672.41 59.37 672.75 63.96 674.04 65.71C675.76 68.05 678.62 68.7 681.24 67.34ZM737.2 67.33C740.2 65.37 739.88 58.86 736.72 57.66C735.24 57.1 732.99 57.55 732.04 58.59C731.18 59.55 730.59 63.24 731.03 64.98C731.73 67.79 734.75 68.94 737.2 67.33ZM754.67 66.62C756.37 64.6 756.41 60.7 754.76 58.77C753.24 57.01 750.1 56.9 748.75 58.56C747.44 60.18 747.49 65.12 748.83 66.83C750.29 68.68 753.01 68.58 754.67 66.62ZM855.36 66.62C856.03 65.82 856.6 64.6 856.63 63.9C856.82 59.25 855.96 57.67 853.26 57.67C850.42 57.67 849.49 58.86 849.49 62.49C849.49 65.03 849.66 65.6 850.76 66.75C852.41 68.47 853.83 68.43 855.36 66.62ZM211.43 63.32C214.09 60.44 212.37 57.2 208.17 57.2L206.11 57.2L206.11 60.9C206.11 62.94 206.27 64.76 206.46 64.95C207.18 65.67 210.15 64.69 211.43 63.32ZM228.03 62.37C230.84 60.15 228.93 57 224.94 57.29C222.7 57.45 222.81 57.18 223.05 61.81C223.12 63.26 223.22 63.35 224.95 63.35C226.09 63.35 227.26 62.97 228.03 62.37ZM814.52 60.73C815.5 59.55 814.4 57.78 812.44 57.42C810.31 57.02 809.13 57.43 808.38 58.83C807.39 60.68 807.96 61.21 811.08 61.34C813.16 61.42 814.08 61.26 814.52 60.73ZM871.95 60.8C874.07 59.25 870.49 56.47 867.57 57.4C866.44 57.76 865.34 59.72 865.72 60.71C866.09 61.68 870.67 61.74 871.95 60.8ZM952.75 60.83C954.49 59.55 952.36 57.2 949.45 57.2C947.48 57.2 945.55 59.97 946.72 61.14C947.28 61.71 951.87 61.47 952.75 60.83ZM601.88 52.38C600.96 51.46 601.19 49.74 602.28 49.39C603.31 49.06 604.62 49.85 604.62 50.8C604.62 51.34 603.16 52.95 602.67 52.95C602.54 52.95 602.19 52.69 601.88 52.38Z" fill="#1e2749" fill-rule="evenodd"/>
</svg>
