<?xml version="1.0" encoding="UTF-8"?>
<svg xmlns="http://www.w3.org/2000/svg" viewBox="0 0 2430 2091" width="2430" height="2091" shape-rendering="geometricPrecision">
<path d="M1159.25 2068.34C1156.63 2067.28 1158.11 2065.16 1161.91 2064.52C1167.91 2063.5 1168.98 2061.6 1170.18 2049.85C1171.68 2035.19 1170.73 1961.59 1169.02 1959.52C1168.32 1958.68 1166.5 1958 1164.96 1958C1161.2 1958 1159 1957.06 1159 1955.47C1159 1954.05 1165.03 1951 1176.78 1946.47C1185.6 1943.07 1186.24 1943.46 1186.82 1952.54L1187.24 1959.08L1193.09 1953.5C1200.98 1945.97 1206.48 1943.6 1214.56 1944.25C1226.4 1945.2 1236.18 1953.13 1241.09 1965.75C1244.17 1973.66 1244.87 1989.89 1242.52 1998.93C1239.05 2012.28 1230.58 2023.61 1220.32 2028.63C1210.78 2033.3 1201.29 2032.96 1188.64 2027.5C1186.87 2026.74 1186.8 2027.42 1187.14 2042.77C1187.49 2058.19 1187.6 2058.94 1189.94 2061.44C1191.37 2062.96 1193.97 2064.29 1196.19 2064.65C1200.4 2065.32 1201.01 2066.39 1198.07 2067.96C1196.13 2069 1161.71 2069.33 1159.25 2068.34ZM1251.69 2068.3C1248.74 2067.53 1250.25 2065.9 1255.53 2064.15C1260.16 2062.61 1260.58 2062.2 1261.67 2058C1262.95 2053.09 1263.37 1972.59 1262.16 1963.5L1261.5 1958.5L1256.79 1957.96C1250.98 1957.29 1250.18 1956.56 1252.47 1954.03C1254.08 1952.26 1273.33 1944 1275.87 1944C1277.96 1944 1280 1948.56 1280 1953.22C1280 1955.85 1280.37 1958 1280.83 1958C1281.29 1958 1283.1 1956.21 1284.86 1954.03C1296.85 1939.11 1318.53 1941.29 1329.56 1958.52C1334.53 1966.29 1336.42 1973.81 1336.33 1985.5C1336.22 2001.47 1331.64 2012.45 1320.93 2022.47C1313.54 2029.38 1308.29 2031.43 1298 2031.43C1291.09 2031.42 1288.69 2031 1285.15 2029.14C1282.76 2027.89 1280.51 2027.15 1280.15 2027.51C1279.79 2027.87 1279.52 2034.54 1279.54 2042.33C1279.6 2059.63 1280.36 2061.79 1287.24 2064.07C1293.34 2066.1 1293.87 2066.72 1290.57 2067.97C1287.94 2068.97 1255.35 2069.25 1251.69 2068.3ZM1853.29 2036.75C1850.47 2033.67 1849.75 2030.78 1851 2027.51C1851.57 2026 1860.66 2016.04 1871.2 2005.38L1890.35 1986L1821.42 1985.99C1746.06 1985.97 1672.43 1985.21 1667.14 1984.39C1665.29 1984.1 1662.71 1982.71 1661.39 1981.29C1658.03 1977.67 1658.28 1973.78 1662.08 1970.59L1665.15 1968L1776.91 1968C1838.38 1968 1888.98 1967.69 1889.36 1967.31C1889.74 1966.93 1882.45 1958.94 1873.16 1949.56C1850.24 1926.41 1847.74 1922.67 1851.56 1917.22C1854.27 1913.35 1858.97 1914.22 1865.7 1919.87C1875.72 1928.27 1917.7 1970.86 1918.96 1973.89C1919.94 1976.26 1919.88 1977.33 1918.64 1979.72C1917.06 1982.79 1869.34 2030.67 1862.61 2035.95C1857.98 2039.59 1856.04 2039.75 1853.29 2036.75ZM763.2 2030.38C757.98 2028.46 747.85 2019.31 744.37 2013.36C739.02 2004.24 736.88 1988.92 739.34 1977.33C742.4 1962.88 749.97 1952.24 760.78 1947.19C765.71 1944.89 767.81 1944.52 776 1944.51C784.4 1944.5 786.16 1944.83 791.22 1947.31C800.65 1951.94 806.96 1960.87 807.8 1970.75C808.53 1979.31 809.59 1979 779.24 1979L752.73 1979L753.22 1985.75C754.7 2006.35 775.43 2021.94 790.86 2014.07C795.05 2011.93 801.04 2005.75 803.47 2001.06C805.09 1997.92 807.49 1997.02 808.27 1999.25C808.93 2001.11 806.54 2008.4 803.69 2013.27C800.28 2019.09 791.96 2026.69 786.22 2029.23C780.03 2031.98 769.03 2032.53 763.2 2030.38ZM1092.5 2030.16C1087.45 2027.75 1083.27 2023.34 1081.88 2018.92C1081.28 2017.04 1080.28 2002.16 1079.65 1985.85C1078.36 1952.49 1078.44 1952.8 1070.63 1951.25C1067.96 1950.72 1066.4 1949.84 1066.18 1948.72C1065.88 1947.16 1067.18 1947 1080.29 1947L1094.73 1947L1095.36 1951.64C1095.71 1954.19 1096 1969.24 1096 1985.09L1096 2013.9L1099.6 2016.64C1106.17 2021.65 1115.86 2019.71 1124.39 2011.67L1128 2008.26L1127.99 1982.88C1127.97 1964.73 1127.62 1956.82 1126.74 1955.1C1125.92 1953.5 1123.9 1952.23 1120.75 1951.32C1117.86 1950.48 1116 1949.36 1116 1948.47C1116 1947.25 1118.33 1947 1129.86 1947L1143.72 1947L1144.21 1979.81C1144.79 2017.47 1144.94 2018.3 1151.51 2018.82C1160.3 2019.51 1157.5 2022.44 1142.73 2028.01C1136.9 2030.2 1131.49 2032 1130.7 2032C1129.28 2032 1128 2026.24 1128 2019.86C1128 2018.29 1127.73 2017 1127.41 2017C1127.09 2017 1124.05 2019.47 1120.66 2022.5C1117.27 2025.52 1112.92 2028.76 1111 2029.68C1105.71 2032.24 1097.31 2032.45 1092.5 2030.16ZM1477.88 2030.33C1467.5 2026.87 1457.83 2016.25 1454.36 2004.5C1451.61 1995.17 1451.92 1977.33 1454.96 1969.5C1459.24 1958.5 1466.05 1950.71 1474.95 1946.63C1478.6 1944.95 1481.48 1944.54 1489.5 1944.54C1502.21 1944.54 1506.09 1945.89 1512.65 1952.61C1520.16 1960.31 1524.6 1974 1520.8 1977.8C1519.93 1978.67 1512.31 1979 1492.8 1979C1462.23 1979 1465.05 1977.87 1467.44 1989.13C1471.23 2006.99 1482.47 2017.05 1497.16 2015.72C1504.76 2015.03 1509.86 2011.73 1514.89 2004.25C1518.65 1998.66 1522 1997.24 1522 2001.25C1522 2005.68 1516.09 2016.07 1510.25 2021.91C1500.98 2031.18 1489.43 2034.19 1477.88 2030.33ZM1558.17 2030.52C1541.6 2025.34 1531.31 2005.73 1534.01 1984.46C1535.17 1975.27 1538.01 1968.14 1543.67 1960.21C1553.69 1946.16 1568.98 1940.77 1584 1945.97C1587.05 1947.03 1589.89 1947.49 1590.37 1947.02C1591.68 1945.73 1590.64 1918.9 1589.17 1916.25C1588.18 1914.45 1587.06 1914 1583.52 1914C1573.94 1914 1577.37 1910.06 1591.74 1904.55C1601.66 1900.74 1604.43 1900.28 1605.67 1902.25C1606.1 1902.94 1606.73 1927.58 1607.06 1957C1607.77 2019.38 1607.63 2018.32 1615.25 2018.8C1617.86 2018.97 1620 2019.52 1620 2020.01C1620 2022.36 1597.57 2032.37 1593.6 2031.8C1591.97 2031.57 1591.39 2030.6 1591 2027.5C1590.72 2025.3 1590.05 2023.5 1589.5 2023.5C1588.95 2023.5 1586.64 2024.77 1584.36 2026.31C1576.75 2031.47 1566.51 2033.12 1558.17 2030.52ZM830.91 2028.67C828.01 2027.14 825.47 2024.68 823.5 2021.51C820.97 2017.41 820.5 2015.65 820.5 2010.08C820.5 1997.2 827.58 1989.93 849.31 1980.5C863.38 1974.4 866 1972.73 866 1969.89C866 1964.3 863.53 1957.33 860.47 1954.27C857.62 1951.42 856.53 1951 852.05 1951C844.92 1951 841.23 1953.08 840.54 1957.5C840.25 1959.43 839.74 1962.64 839.43 1964.65C838.79 1968.73 834.2 1974 831.3 1974C826.47 1974 822.19 1966.96 823.48 1961.11C824.41 1956.87 830.5 1950.3 836.36 1947.22C841.02 1944.78 842.47 1944.53 852 1944.58C863.51 1944.65 868.92 1945.8 874.1 1949.29C880.64 1953.69 881.66 1959.18 882.62 1995.25L883.22 2018L885.48 2018C886.72 2018 888.87 2017.1 890.27 2016C893.29 2013.62 896 2013.4 896 2015.52C896 2017.77 888.27 2025.76 883.26 2028.7C879.85 2030.69 878.03 2031.13 874.91 2030.71C869.82 2030.03 868.26 2028.69 866.97 2023.88C866.39 2021.75 865.46 2020 864.89 2020C864.32 2020 861.88 2021.36 859.47 2023.02C847.24 2031.43 839.16 2033.03 830.91 2028.67ZM920.42 2029.1C915.18 2026.72 912.27 2022.96 911.45 2017.54C911.1 2015.17 910.51 1999.79 910.15 1983.36L909.5 1953.5L903.75 1953.2C896.24 1952.81 896.01 1950.62 902.94 1945.64C908.86 1941.38 915.1 1933.73 919.1 1925.8C920.71 1922.61 922.64 1920 923.38 1920C924.99 1920 925.99 1926.22 926.02 1936.39C926.02 1940.3 926.36 1944 926.77 1944.6C927.17 1945.21 931.05 1945.96 935.38 1946.28C943.96 1946.92 946.12 1947.99 944.38 1950.75C943.01 1952.94 939.91 1953.78 932.75 1953.9L927 1954L927 1984.88L927 2015.77L929.46 2017.38C933.18 2019.82 936.04 2019.34 940.89 2015.49C943.31 2013.57 945.67 2012 946.14 2012C947.91 2012 946.9 2015.83 944.14 2019.6C940.19 2024.97 937.12 2027.64 932.77 2029.45C927.99 2031.45 925.43 2031.38 920.42 2029.1ZM1009.85 2030.26C1002.95 2029.83 1003.03 2030.02 1003.01 2013.18C1003 2002.55 1003.21 2000.9 1004.56 2001.18C1005.41 2001.35 1007.14 2004.04 1008.4 2007.15C1011.24 2014.13 1013.98 2017.7 1019.23 2021.25C1028.17 2027.29 1036.15 2027.01 1041.91 2020.45C1048.68 2012.74 1043.64 2004.44 1026.5 1995.09C1015.88 1989.29 1007.48 1983.36 1005.3 1980.13C1003.92 1978.08 1003.53 1975.42 1003.52 1968C1003.5 1956.9 1005.01 1953.35 1011.74 1948.61C1017.2 1944.78 1023.26 1943.93 1035.76 1945.25C1044.1 1946.13 1046.49 1946.08 1048.57 1944.96C1052.37 1942.93 1052.97 1944.7 1052.98 1958.13C1053 1967.76 1052.72 1969.99 1051.34 1971.13C1049.95 1972.27 1049.6 1972.28 1049.22 1971.15C1048.97 1970.41 1047.13 1966.59 1045.13 1962.65C1042.07 1956.63 1040.79 1955.14 1037.04 1953.25C1028.88 1949.13 1017.1 1950.97 1014.93 1956.69C1012.05 1964.26 1017.82 1970.81 1035.94 1980.5C1049.92 1987.98 1053.64 1991.02 1056.62 1997.43C1060.92 2006.67 1059.31 2014.99 1051.7 2022.83C1044.61 2030.14 1041.95 2031.03 1027.79 2030.81C1021.03 2030.71 1012.96 2030.46 1009.85 2030.26ZM1417.5 2029.93C1410.9 2029.57 1404.71 2029.21 1403.75 2029.14C1400.56 2028.89 1401.94 2026.01 1406.03 2024.37C1408.25 2023.48 1410.5 2021.93 1411.04 2020.92C1412.42 2018.35 1413.44 1984.73 1412.54 1971.65C1411.67 1958.93 1410.53 1957 1403.93 1957C1400.59 1957 1399.91 1956.68 1400.18 1955.25C1400.56 1953.19 1406.57 1950.08 1417 1946.54C1429.97 1942.15 1428.57 1938.28 1429.38 1980.96C1429.79 2002.53 1430.52 2019.18 1431.14 2020.96C1431.86 2023.03 1433.06 2024.2 1434.85 2024.6C1440.23 2025.79 1441 2026.17 1441 2027.6C1441 2030.23 1434.56 2030.87 1417.5 2029.93ZM604.19 2029.33C599.95 2028.44 601.99 2025.6 607.42 2024.82C614.42 2023.82 615.99 2021.8 617.13 2012.38C617.65 2008.05 617.94 1984.86 617.79 1960.85C617.46 1911.62 617.88 1914.11 609.59 1911.89C595.52 1908.13 598.58 1906.98 622.31 1907.1C633.41 1907.15 644.98 1907.52 648 1907.9C653.07 1908.55 653.31 1908.69 651 1909.7C649.62 1910.31 646.59 1911.31 644.27 1911.93C641.76 1912.61 639.52 1913.97 638.78 1915.29C637.91 1916.82 637.42 1924.47 637.17 1940.27L636.81 1963.03L664.65 1962.77L692.5 1962.5L692.39 1941.5C692.31 1924.78 691.97 1919.74 690.71 1916.79C689.11 1913.03 688.76 1912.83 680.51 1911.2C677.95 1910.7 676.39 1909.8 676.18 1908.71C675.88 1907.14 677.8 1907 700.34 1907C713.82 1907 725.56 1907.28 726.44 1907.62C728.83 1908.53 726.43 1910.99 723.13 1911.02C721.68 1911.03 718.58 1911.91 716.24 1912.98L711.98 1914.91L712.24 1967.6L712.5 2020.28L715.14 2022.25C716.59 2023.33 719.86 2024.46 722.41 2024.74C727.54 2025.32 728.78 2026.35 726.96 2028.54C725.97 2029.74 721.83 2030 704 2030C692.04 2030 680.84 2029.72 679.12 2029.38C675.26 2028.6 675.04 2026.25 678.75 2025.42C688.67 2023.18 689.12 2022.95 690.71 2019.19C692.94 2013.94 693.98 1972.07 691.89 1971.85C687.5 1971.39 643.88 1971.22 640.75 1971.65L637 1972.18L637.02 1992.84C637.06 2020.71 637.77 2023.24 645.92 2024.55C651.83 2025.5 654.5 2026.9 653.1 2028.3C652.25 2029.15 645.37 2029.54 629.2 2029.65C616.72 2029.74 605.46 2029.59 604.19 2029.33ZM1352.17 2028.98C1349.09 2027.69 1349.86 2025.76 1353.92 2024.59C1360.67 2022.66 1360.5 2024.1 1360.5 1968.54C1360.5 1930.24 1360.21 1917.99 1359.25 1916.31C1358.32 1914.69 1356.87 1914.03 1353.75 1913.81C1350.77 1913.59 1349.5 1913.05 1349.5 1912C1349.5 1909.97 1366.53 1901.72 1370.96 1901.6C1377.39 1901.42 1377.31 1900.76 1377.99 1963C1378.65 2024.2 1378.65 2024.18 1384.51 2024.84C1388.4 2025.28 1390.47 2026.93 1388.99 2028.41C1387.59 2029.82 1355.36 2030.32 1352.17 2028.98ZM1212.54 2024.12C1217.7 2021.78 1221.26 2017.53 1224.12 2010.27C1226 2005.49 1226.4 2002.52 1226.45 1993C1226.52 1977.8 1224.58 1971.59 1217.48 1964.26C1212.41 1959.02 1212.36 1959 1206.14 1959C1198.8 1959 1195.95 1960.3 1190.41 1966.17L1186.33 1970.5L1187 1991.5C1187.71 2013.9 1188.17 2016.04 1193.31 2020.84C1196.11 2023.45 1202.21 2025.9 1206 2025.93C1207.38 2025.95 1210.32 2025.13 1212.54 2024.12ZM1306.48 2023.15C1314.67 2018.37 1319.37 2007.03 1319.19 1992.5C1319.01 1977.54 1315.79 1969.05 1307.57 1961.79C1304.94 1959.47 1303.6 1959.08 1298.2 1959.04C1290.95 1958.99 1287.6 1960.41 1283.23 1965.39C1279.29 1969.88 1278.51 1975.73 1279.32 1994.48C1280.01 2010.36 1280.95 2014.59 1284.75 2019.11C1290.35 2025.77 1299.18 2027.42 1306.48 2023.15ZM1585.79 2017.33L1590.5 2014.42L1590.78 1996.46C1591.14 1973.73 1590.08 1964.23 1586.6 1958.97C1583.13 1953.73 1580.2 1951.98 1573.82 1951.32C1564.05 1950.31 1557.75 1955.33 1553.5 1967.5C1551.27 1973.89 1551.17 1994.17 1553.34 2001.22C1556.85 2012.64 1567.69 2021.64 1576.79 2020.69C1579.15 2020.44 1583.2 2018.93 1585.79 2017.33ZM858.17 2016.1C865.6 2011.4 866 2010.35 866 1995.75C866 1985.21 865.73 1982.83 864.48 1982.35C862.44 1981.57 847.29 1988.93 842.76 1992.91C837.63 1997.41 835.49 2003.4 837.01 2009.03C839.66 2018.89 848.9 2021.98 858.17 2016.1ZM788.27 1967.67C787.96 1962.52 784.35 1956.38 780.07 1953.74C775.56 1950.95 767.55 1950.91 762.85 1953.66C758.34 1956.29 753.97 1962.78 753.29 1967.86L752.73 1972.05L770.62 1971.77L788.5 1971.5L788.27 1967.67ZM1501.79 1968C1502.41 1960.49 1492.76 1951 1484.5 1951C1477.21 1951 1468.92 1958.14 1467.4 1965.74C1466.14 1972.06 1466.18 1972.08 1484.73 1971.77L1501.5 1971.5L1501.79 1968ZM1417.11 1918.6C1413.95 1916.85 1412.08 1913.3 1412.05 1909C1412.03 1904.95 1412.67 1903.74 1415.68 1902.15C1419.61 1900.08 1424.38 1900.74 1427.23 1903.75C1431.44 1908.2 1431.28 1911.5 1426.63 1916.43C1423.04 1920.24 1420.93 1920.72 1417.11 1918.6ZM2333 1860C2330.18 1857.18 2330.45 1852.42 2333.7 1848.09C2335.18 1846.12 2344.07 1836.62 2353.45 1827L2370.5 1809.5L2087 1808.9C1931.08 1808.56 1473.14 1808.23 1069.37 1808.15C388.07 1808.01 335.15 1807.88 333.87 1806.35C332.82 1805.08 332.35 1798.19 331.85 1776.6C331.5 1761.14 331.16 1372.19 331.1 912.25C331.02 211.73 330.78 76 329.65 76C328.91 76 324.97 79.3 320.9 83.34C316.83 87.38 307.75 96.18 300.71 102.9C288.68 114.39 287.71 115.1 284.31 114.81C279.68 114.41 276.41 110.47 277.42 106.48C278.34 102.78 333.54 47.36 337.18 46.47C338.65 46.11 340.89 46.15 342.16 46.55C347.31 48.19 402 104.37 402 108.02C402 108.48 400.83 110.23 399.41 111.92C397.45 114.26 395.99 115 393.4 115C389.68 115 386.93 112.65 361.71 88.02C355.22 81.68 349.49 76.35 348.96 76.17C347.86 75.78 347.6 1463.89 348.67 1654.49L349.33 1773.32L351.69 1770.41C358.91 1761.48 561.71 1503.27 567.26 1495.94L569.95 1492.37L570.23 1328.94C570.48 1174.57 570.6 1165.32 572.28 1162.25L574.05 1159L920.37 1159C1248.93 1159 1266.77 1158.91 1268.27 1157.25C1269.14 1156.29 1273.31 1147.85 1277.53 1138.5C1313.92 1058.01 1475.16 703.06 1503.3 641.5C1537.54 566.62 1542.37 556.12 1549.02 542.25C1555.93 527.83 1556.32 527.38 1561.46 527.87C1563.78 528.09 1568 531.8 1568 533.63C1568 535.87 1542.97 592.43 1491.48 706.5C1480.06 731.8 1467.48 759.7 1463.51 768.5C1427.52 848.36 1343.78 1032.55 1303.48 1120.5C1286.34 1157.92 1279.83 1171.55 1278.4 1173C1277.1 1174.33 1237.02 1174.53 931.96 1174.79L587 1175.09L587 1336.29L587 1497.5L559.96 1532C545.08 1550.97 529.19 1571.22 524.64 1577C514.61 1589.73 487.49 1624.35 476.5 1638.47C465.9 1652.1 376.82 1765.62 366.27 1778.95C361.72 1784.7 358 1789.99 358 1790.7C358 1792.43 2368.48 1792.65 2369.55 1790.92C2369.92 1790.32 2362.97 1782.49 2353.77 1773.17C2335.71 1754.87 2331 1749.05 2331 1745.04C2331 1741.12 2333.23 1738.67 2336.8 1738.67C2340.79 1738.67 2345.25 1742.3 2365.39 1761.98C2387.03 1783.12 2400 1797.55 2400 1800.48C2400 1803.42 2388.63 1816.17 2367.35 1837.08C2345.59 1858.46 2341.41 1862 2337.89 1862C2336.3 1862 2334.1 1861.1 2333 1860ZM35.75 1559.28L33 1558.87L33 1508.41L33 1457.94L46.5 1458.22C54.47 1458.39 60.09 1458.91 60.22 1459.5C60.34 1460.05 58.05 1461.36 55.14 1462.4C48.82 1464.68 44.88 1468.35 43.12 1473.62C41.57 1478.26 40.39 1498.53 41.63 1499.2C42.11 1499.46 65.74 1499.41 94.15 1499.09C151.96 1498.43 149.1 1498.83 150.45 1491.18C151.49 1485.34 152.05 1484 153.44 1484C154.16 1484 155.03 1485.41 155.38 1487.12C156.45 1492.49 156.08 1529.66 154.93 1532.68C153.89 1535.4 153.8 1535.43 152.43 1533.56C151.64 1532.49 151 1530.65 151 1529.46C151 1524.22 148.93 1521.06 144.66 1519.76C138.26 1517.82 43.17 1518.12 41.92 1520.09C40.68 1522.05 40.78 1533.88 42.09 1539.98C43.53 1546.7 47.11 1550.72 54.73 1554.18C64.63 1558.67 63 1560.08 48.17 1559.85C42.85 1559.77 37.26 1559.51 35.75 1559.28ZM101.39 1444.58C86.1 1441.09 75.7 1431.82 71.61 1418.07C67.73 1404.99 71.95 1389.85 81.51 1382.56C85.44 1379.56 92.91 1376.51 98.67 1375.55C102.24 1374.95 103.01 1375.14 103.92 1376.86C104.61 1378.15 105 1388.38 105 1405.38C105 1419.95 105.37 1432.11 105.81 1432.38C107.2 1433.24 120.25 1429.87 125.21 1427.38C136.07 1421.91 142 1413.17 142 1402.62C142 1392.7 138.53 1387.62 127.18 1380.91C123.73 1378.86 123.39 1376.75 126.42 1376.16C129.64 1375.54 139.75 1380.12 145.56 1384.84C153.5 1391.28 157.18 1398.08 157.76 1407.36C158.1 1412.99 157.75 1415.69 156.06 1420.16C152.25 1430.25 143.28 1439.18 133 1443.1C125.88 1445.82 110.06 1446.56 101.39 1444.58ZM97.77 1413.6L98.05 1395.72L92.79 1396.34C84.05 1397.37 78.95 1402.61 78.23 1411.28C77.51 1419.96 81.3 1425.96 90.02 1429.94C97.63 1433.41 97.46 1433.77 97.77 1413.6ZM77.66 1363.25C76.35 1360.64 74.01 1354.75 72.47 1350.16C69.26 1340.63 69.3 1340.55 77.45 1339.45C80.23 1339.08 82.84 1338.57 83.25 1338.32C83.67 1338.08 81.91 1335.32 79.35 1332.19C68.23 1318.6 67.12 1305.45 76.36 1296.52C78.64 1294.31 81.41 1291.99 82.5 1291.38C84.44 1290.29 84.4 1290.12 81.22 1285.88C72.07 1273.65 69.37 1266.94 70.34 1258.79C71.2 1251.53 74.68 1246.79 81.7 1243.35L87.5 1240.5L115 1239.91C130.59 1239.58 143.6 1238.86 145.04 1238.27C148.23 1236.94 149.93 1234.92 150.89 1231.31C151.31 1229.77 152.36 1228.36 153.22 1228.2C155.37 1227.78 155.93 1231.97 156.24 1250.6C156.44 1262.27 156.18 1266.07 155.12 1267.36C153.45 1269.37 151 1267.87 151 1264.83C151 1261.06 148.21 1257.29 144.92 1256.63C139.88 1255.63 101.2 1255.94 93.5 1257.05C84.1 1258.41 82.48 1260.07 82.55 1268.28C82.61 1275.17 84.8 1280.42 90.11 1286.47L93.21 1290L114.35 1289.92C147.16 1289.78 148.74 1289.39 151.06 1280.78C152.19 1276.58 154.44 1275.78 155.37 1279.25C156.42 1283.16 156.06 1312.72 154.93 1315.68C153.89 1318.4 153.8 1318.43 152.43 1316.56C151.64 1315.49 151 1313.59 151 1312.33C151 1307.63 147.22 1306.58 128.77 1306.15C119.49 1305.94 106.7 1306.09 100.35 1306.49C89.59 1307.16 88.58 1307.4 85.65 1310.03C82.74 1312.63 82.5 1313.32 82.52 1319.18C82.53 1326.21 85.18 1331.98 90.83 1337.36L93.84 1340.22L119.35 1339.86C143.38 1339.51 145.03 1339.37 147.67 1337.4C149.55 1335.99 150.75 1333.93 151.3 1331.15C152.13 1326.94 154.25 1325.61 155.39 1328.58C155.73 1329.45 156 1338.47 156 1348.61C156 1364.32 155.77 1367.15 154.46 1367.65C152.38 1368.45 151.8 1367.69 151.08 1363.27C150.11 1357.3 147.85 1356.71 124 1356.27C112.73 1356.06 99.22 1356.25 94 1356.7L84.5 1357.5L84.18 1361.49C83.85 1365.43 82.56 1368 80.89 1368C80.42 1368 78.96 1365.86 77.66 1363.25ZM190.64 1223.12C190.29 1220.99 189.15 1218.17 188.1 1216.87L186.18 1214.5L137.84 1214.5C111.25 1214.5 88.26 1214.85 86.75 1215.27C84.38 1215.93 84 1216.56 83.98 1219.77C83.98 1221.82 83.52 1224.17 82.97 1225C82.1 1226.3 81.75 1226.23 80.38 1224.5C77.16 1220.42 69.55 1200.54 70.58 1198.88C70.87 1198.39 74.21 1198 78 1198C81.79 1198 85.13 1197.6 85.43 1197.11C85.73 1196.62 84.01 1194.71 81.59 1192.86C76.19 1188.72 73.28 1184.6 71.43 1178.42C68.58 1168.98 70.55 1160.94 77.64 1153.06C86.05 1143.7 102.04 1138.84 117.25 1141.01C131.73 1143.07 141.6 1147.59 148.9 1155.5C154.77 1161.88 157.24 1167.89 157.79 1177.14C158.19 1183.83 157.92 1185.5 155.63 1190.5C154.19 1193.64 153.26 1196.61 153.57 1197.11C154.26 1198.22 163.48 1198.2 176.38 1197.05C187.35 1196.07 188.83 1195.25 190.52 1189.23C191.12 1187.09 192.19 1185.5 193.03 1185.5C194.26 1185.5 194.54 1188.63 194.77 1204.87C195.03 1223.45 194.59 1227 192.01 1227C191.59 1227 190.98 1225.25 190.64 1223.12ZM141.18 1195.27C148.59 1191.95 153.05 1183.39 151.54 1175.36C150.69 1170.82 144.92 1164.52 138.56 1161.19C133.82 1158.7 132.66 1158.53 120 1158.52C103.53 1158.5 97.19 1160.2 90.22 1166.5C85.79 1170.52 85.6 1170.91 85.2 1177.18C84.73 1184.55 85.67 1186.99 91.6 1193.87L95.36 1198.24L115.93 1197.8C134.08 1197.42 137.05 1197.12 141.18 1195.27ZM99.86 1126.03C92.53 1124.72 87.99 1122.09 80.91 1115.05C72.65 1106.84 70.59 1101.57 70.54 1088.5C70.51 1080.61 70.84 1078.87 73.2 1074.38C76.75 1067.64 83.95 1061.39 90.33 1059.5C96.4 1057.69 102.17 1057.57 103.8 1059.2C104.67 1060.07 105 1067.69 105 1087.2L105 1114L107.75 1113.98C115.84 1113.9 127.08 1109.17 133.37 1103.18C141.7 1095.25 144.36 1083.1 139.75 1073.96C138.1 1070.69 135.77 1068.36 131 1065.24C123.05 1060.02 121.88 1057.45 127.83 1058.25C137.98 1059.61 149.91 1068.11 154.83 1077.46C157.08 1081.75 157.47 1083.76 157.49 1091C157.5 1101.85 154.66 1108.16 146.03 1116.39C136.98 1125.03 133.14 1126.41 117.5 1126.65C110.35 1126.77 102.41 1126.48 99.86 1126.03ZM96.8 1112.8C97.64 1111.96 98 1106.53 98 1094.8L98 1078L93.75 1078.02C84.57 1078.05 78 1084.84 78 1094.3C78 1101.88 81.95 1107.42 90.5 1111.84C95.29 1114.32 95.28 1114.32 96.8 1112.8ZM79.83 1048.86C77.97 1046.01 72.7 1033.96 71.03 1028.71C69.16 1022.86 69.97 1022 77.3 1022C80.8 1022 83.95 1021.72 84.29 1021.38C84.63 1021.03 82.91 1019.09 80.45 1017.06C69.68 1008.16 67.05 998.86 73.5 992.41C77.04 988.87 84.06 988.99 86.93 992.63C89.63 996.07 89.54 998.61 86.53 1003.5C82.56 1009.93 83.09 1012.25 89.75 1017.56L95.5 1022.15L118 1021.51C130.38 1021.15 142.21 1020.42 144.29 1019.88C147.98 1018.93 149.45 1017.03 151.4 1010.75C151.69 1009.79 152.6 1009 153.4 1009C155.61 1009 155.88 1011.01 156.2 1030.2C156.51 1048.43 156.03 1050.99 152.57 1049.66C151.62 1049.3 151 1047.86 151 1046.03C151 1038.61 146.16 1037.66 110.9 1038.16C84.96 1038.53 84 1038.76 84 1044.43C84 1046.18 83.41 1048.43 82.69 1049.42C81.44 1051.12 81.29 1051.09 79.83 1048.86ZM130.94 983.64C125.53 982.18 120.94 979.09 117.79 974.8C116.53 973.08 111.9 964.43 107.5 955.59L99.5 939.5L94.26 939.2C86.9 938.77 80.43 941.73 78.47 946.43C76.45 951.25 76.64 956.89 78.93 960.65C80.85 963.81 81.75 964.18 90.72 965.53C99.61 966.87 102.53 972.63 97.08 978.08C89.88 985.27 76.4 978.04 72.03 964.63C71.19 962.05 70.9 956.72 71.17 948.63C71.52 938.08 71.89 935.92 74.04 932C78.4 924.03 80.04 923.65 112.6 923.03C142 922.48 144 922.15 144 917.95C144 916.96 142.88 914.82 141.5 913.18C138.4 909.5 138.39 909 141.39 909C144.67 909 153.28 916.94 155.79 922.27C156.99 924.84 157.6 927.66 157.29 929.28C156.73 932.17 150.88 938 148.52 938C145.57 938 146.06 940.18 150.46 946.61C160.05 960.61 159.92 970.78 150.03 979.24C146.31 982.43 140.15 985.09 136.88 984.93C136.12 984.9 133.45 984.31 130.94 983.64ZM138.7 966.04C145.82 961.7 147.26 954.54 142.61 946.61C138.35 939.33 137.45 939 121.78 939C109.82 939 108 939.21 108 940.6C108 942.97 115.49 956.93 119.15 961.37C124.57 967.94 132.49 969.83 138.7 966.04ZM72.46 901.94C68.02 895.9 61.23 890.31 53.02 885.93C47.66 883.07 45.15 880.51 46.45 879.21C46.73 878.94 52.36 878.49 58.97 878.22C66.27 877.92 71.36 877.27 71.94 876.57C72.47 875.93 73.04 872.06 73.2 867.96C73.49 860.75 73.58 860.5 76 860.5C78.14 860.5 78.54 861 78.75 864C78.89 865.92 79.26 869.86 79.57 872.75L80.14 878L107.82 877.99C137.29 877.99 142.03 877.41 144.58 873.51C146.01 871.33 146 870.81 144.5 867.65C143.6 865.74 141.99 863.4 140.93 862.44C139.05 860.74 138.24 857 139.75 857C140.16 857.01 142.07 857.95 144 859.11C157.92 867.45 160.99 880.05 151.34 889.19C146.37 893.89 144.32 894.18 111.25 894.75L80 895.29L79.9 898.4C79.76 902.69 78.66 906.28 77.34 906.72C76.73 906.92 74.53 904.77 72.46 901.94ZM73.69 856.35C73.31 855.98 73 849.49 73 841.95L73 828.23L103.75 827.77C124.76 827.46 135.45 826.93 137.5 826.09C144.52 823.23 147.25 817.48 145 810.32C143.15 804.41 137.87 797.15 134.6 796.01C131.44 794.91 92.74 794.63 84.25 795.65C79.11 796.27 78.98 796.36 77.9 800.39C76.75 804.7 75.35 807 73.88 807C73.39 807 73 800.7 73 793L73 779L97.75 778.96C127.19 778.92 141.38 777.87 143.95 775.55C145.34 774.28 145.63 772.92 145.24 769.46C144.82 765.75 145.02 765 146.42 765C148.31 765 151.37 771.28 155.76 784.12C158.45 792 158.47 792.16 156.56 793.57C155.45 794.39 152.34 795 149.31 795C146.39 795 144 795.28 144 795.61C144 795.95 146.25 798.82 149 801.99C159.87 814.55 161.02 826.25 152.26 835.26C144.75 842.98 145.1 842.9 117.91 843.52C90.9 844.14 82.1 844.7 80.09 845.94C79.35 846.4 78.2 848.94 77.53 851.59C76.34 856.25 75.11 857.78 73.69 856.35ZM78.16 759.25C74.84 752.63 69.74 737.13 70.35 735.54C70.78 734.41 72.4 734 76.41 734C79.42 734 82.1 733.64 82.38 733.2C82.65 732.76 80.69 730.3 78.02 727.72C69.39 719.37 67.79 709.88 74.11 704.56C75.78 703.15 78.04 702 79.13 702C81.9 702 86.61 704.6 88.35 707.09C89.69 709 89.55 709.76 86.91 715.35C82.84 723.95 83.04 725.03 89.54 729.94L95.08 734.13L119.47 733.81C142.37 733.52 144.03 733.37 146.68 731.41C148.25 730.25 150.1 727.47 150.84 725.16C152.31 720.63 154.64 719.68 155.52 723.25C155.82 724.49 155.94 733.82 155.78 743.99C155.53 760.35 155.31 762.51 153.82 762.8C152.58 763.04 151.8 761.88 150.8 758.32C149.87 755.04 148.66 753.14 146.97 752.28C143.92 750.73 90.54 750.47 86.57 751.98C84.43 752.79 84 753.59 84 756.78C84 760.34 82.64 763 80.82 763C80.39 763 79.2 761.31 78.16 759.25ZM101.72 695.43C84.08 691.16 73.46 680.62 70.89 664.85C68.82 652.14 71.65 642.29 79.42 635.16C85.98 629.14 91.6 626.83 98.76 627.2L104.5 627.5L105 655L105.5 682.5L110.96 682.16C127.6 681.12 141.96 667.72 141.99 653.21C142.01 644.95 137.58 637.94 129.11 632.8C122.61 628.85 122.25 626.54 128.25 627.23C139.06 628.48 151.93 638.89 156 649.67C158.83 657.17 158.43 667.33 155.05 673.93C151.96 679.96 144.04 688.12 138.19 691.3C128.06 696.82 114 698.41 101.72 695.43ZM96.9 681.62C97.69 680.67 97.96 674.96 97.77 663.37L97.5 646.5L93.67 646.73C87.43 647.1 82.32 650.65 79.38 656.65C77.33 660.84 76.95 662.73 77.48 665.9C78.33 670.92 84.86 678.58 90.46 681.12C95.35 683.34 95.46 683.35 96.9 681.62ZM113.51 541.63C112.24 540.7 111.4 538.36 110.9 534.38C110.5 531.15 110.13 479.79 110.08 420.25C110.02 339.13 109.71 312 108.85 312C108.21 312 99.52 320.04 89.53 329.86C79.54 339.69 69.49 348.97 67.2 350.49C63.18 353.15 62.93 353.19 60.47 351.57C55.83 348.53 55.36 345.77 58.54 340.31C61.61 335.06 106.96 289.38 113.85 284.6L118.03 281.7L121.51 284.18C130.78 290.77 174.44 334.69 179.75 342.75C181.07 344.75 181.05 345.27 179.6 347.49C178.71 348.85 176.83 350.72 175.44 351.63C173.24 353.07 172.57 353.11 170.35 351.92C168.95 351.17 158.89 341.88 148 331.28C137.11 320.67 127.93 312 127.6 312C127.27 312 126.96 351.26 126.91 399.25C126.87 447.24 126.52 498.36 126.14 512.85C125.47 538.9 125.43 539.23 123.12 541.1C120.37 543.33 116.15 543.56 113.51 541.63Z" fill="#1e2749" fill-rule="evenodd"/>
</svg>
