<?xml version="1.0" encoding="UTF-8"?>
<svg xmlns="http://www.w3.org/2000/svg" viewBox="0 0 2430 1413" width="2430" height="1413" shape-rendering="geometricPrecision">
<path d="M1187.67 1371.33C1187.3 1370.97 1187 1303.02 1187 1220.33L1187 1070L920.25 1070.04C681.36 1070.08 598.13 1070.72 589.84 1072.6C587.75 1073.07 586.96 1074.07 586.13 1077.35C583.41 1087.97 570.69 1104.05 561.39 1108.6C539.83 1119.15 510.95 1104.28 503.55 1078.82C502.65 1075.71 501.18 1072.57 500.3 1071.83C499.09 1070.83 492.41 1070.37 473.48 1069.98C454.33 1069.59 447.88 1069.14 446.64 1068.11C444.62 1066.44 444.33 1056.54 446.25 1055.33C446.94 1054.89 459.43 1054.31 474 1054.02L500.5 1053.5L503.5 1044.96C507.45 1033.73 510.75 1028.34 517.46 1022.21C524.57 1015.71 531.67 1012.28 542.13 1010.29C546.73 1009.42 551.01 1008.21 551.63 1007.6C552.24 1007 554.58 999.75 556.82 991.5C564.71 962.38 596.16 848.34 599.56 836.53C601.45 829.95 603 823.99 603 823.3C603 821.18 594.2 817.41 575.66 811.56C565.95 808.5 557.74 806 557.43 806C555.46 806 559.7 800.68 577.49 780.82C618.13 735.43 636.88 716 640.04 716C641.49 716 642.31 718.05 644.36 726.75C649.26 747.56 659.5 800.65 663.35 825.24C664.49 832.49 664.49 834.17 663.4 835.08C661.8 836.41 657.02 835.49 640.01 830.54C633.46 828.64 625.86 826.78 623.12 826.42L618.14 825.76L615.62 834.13C613.04 842.75 599.35 893.46 589.62 930.5C575.99 982.35 568 1013.18 568 1013.88C568 1014.3 570.5 1017.99 573.56 1022.07C580.42 1031.23 584.78 1040.17 586.26 1048.12L587.38 1054.16L619.64 1053.83C654.85 1053.47 658.56 1052.88 649.66 1049.07C647.1 1047.97 645 1046.49 645 1045.78C645 1045.07 646.37 1040.22 648.04 1035C657.4 1005.77 657.54 994.54 648.87 968C643.42 951.32 640.01 945.72 628.14 933.96C622.29 928.16 614.58 921.55 611 919.26C607.42 916.98 603.89 914.57 603.15 913.92C601.39 912.37 602.16 908.69 606.26 899.1C609.2 892.24 609.81 891.47 612.51 891.22C620.71 890.46 651.21 918.85 664.63 939.74C673.28 953.22 678.34 969.62 679.96 989.5C681.49 1008.35 679.52 1023.44 673.05 1042.44C671.37 1047.35 670 1051.97 670 1052.69C670 1053.77 715.45 1053.96 928.25 1053.75L1186.5 1053.5L1186.75 598.25L1187 143L1161.43 143L1135.87 143L1136.58 140.75C1137.54 137.72 1192.03 29.77 1193.24 28.5C1194.66 27.01 1195.32 28.22 1214.48 67.52C1224.12 87.31 1236.01 111.6 1240.88 121.5C1246.57 133.04 1249.43 139.9 1248.85 140.63C1248.27 141.36 1240.15 142.01 1225.48 142.49L1203 143.22L1203 598.61L1203 1054L1419.25 1053.91C1644.29 1053.81 1709.13 1053.27 1710.95 1051.45C1711.68 1050.72 1711.12 1047.69 1709.11 1041.45C1704.11 1025.95 1703.5 1021.72 1703.6 1003C1703.67 989.11 1704.13 983.49 1705.83 975.73C1709.99 956.68 1716.95 940.11 1725.4 929.13C1734.32 917.54 1753.69 900.74 1764.76 895C1768.77 892.92 1769.17 892.88 1771.51 894.42C1773.72 895.86 1782 910.46 1782 912.9C1782 913.42 1777.39 917.42 1771.75 921.78C1749.9 938.7 1739.03 952.68 1733.67 970.73C1728.44 988.35 1729.47 1014.04 1736.42 1039.75C1738.02 1045.66 1738.02 1046.16 1736.36 1048.97C1735.39 1050.6 1734.96 1052.29 1735.39 1052.72C1736.42 1053.75 1796.26 1053.14 1797.31 1052.09C1797.75 1051.65 1798.8 1048.63 1799.64 1045.39C1801.74 1037.31 1806.15 1029.94 1813.66 1021.98L1820 1015.26L1803.59 944.38C1778.23 834.85 1777.74 832.84 1776.26 832.27C1775.51 831.98 1766.91 833.58 1757.15 835.83C1747.39 838.07 1737.52 840.21 1735.2 840.58C1731.05 841.25 1731 841.22 1731 838.25C1731 835.1 1740.88 791.6 1751.04 750C1758.63 718.91 1758.03 721 1759.47 721C1762.68 721 1827.56 800.29 1833.6 811.59C1835.38 814.91 1835.39 815.22 1833.81 816.39C1832.88 817.07 1826.58 818.88 1819.81 820.41C1803.92 824 1795.31 826.76 1794.65 828.47C1794.36 829.22 1795.03 834.26 1796.13 839.67C1800.32 860.24 1833.55 1002.31 1834.94 1005.61C1835.59 1007.16 1837.63 1008.17 1842.66 1009.42C1852.04 1011.77 1860.75 1016.25 1867.27 1022.06C1873.92 1027.98 1877.72 1033.73 1882.59 1045.25L1886.29 1053.99L1969.9 1054.24L2053.5 1054.5L2053.8 1060.84C2053.98 1064.65 2053.63 1067.74 2052.93 1068.59C2051.93 1069.78 2039.04 1070 1968.82 1070L1885.89 1070L1883.39 1075.75C1877.66 1088.95 1875.27 1092.77 1868.52 1099.59C1860.43 1107.77 1853.81 1110.91 1842.86 1111.74C1833.1 1112.49 1826.98 1110.67 1819.67 1104.85C1808.62 1096.06 1801.76 1086.23 1798.99 1075.25L1797.92 1071L1693.71 1071C1636.4 1070.99 1502.54 1070.7 1396.25 1070.34L1203 1069.68L1203 1219.19C1203 1362.75 1202.93 1368.76 1201.17 1370.35C1199.33 1372.01 1189.09 1372.76 1187.67 1371.33ZM483.25 1250.35C479.98 1249.64 480.45 1247.83 485.33 1242.36C492.67 1234.12 503.74 1216.62 526.02 1178C539.81 1154.09 549.34 1139.48 552.48 1137.42C553.88 1136.5 556.41 1136 558.67 1136.19C561.67 1136.43 562.76 1137.08 563.78 1139.21C564.51 1140.74 565.91 1152.64 567.01 1166.71C572.57 1237.68 572.73 1238.81 577.82 1244.26C580.27 1246.89 580.31 1247.12 578.67 1248.76C577.2 1250.24 574.52 1250.55 560.97 1250.82C548.34 1251.07 545 1250.86 545 1249.83C545 1249.11 547.06 1245.54 549.58 1241.89C555.01 1234.01 555.79 1229.98 553.97 1219.32L552.67 1211.7L538.21 1212.33C519.49 1213.14 517.84 1213.88 512.75 1223.82C508.29 1232.52 508.07 1236.23 511.58 1243.15C513.45 1246.86 513.86 1248.54 513.06 1249.34C511.93 1250.47 487.58 1251.29 483.25 1250.35ZM1766 1244.13C1757.98 1242.92 1757.28 1241.48 1762.37 1236.68C1766.1 1233.17 1769.55 1223.7 1774.49 1203.5C1778.45 1187.31 1785.76 1151.44 1786.55 1144.33C1787.2 1138.52 1787.08 1137.99 1784.56 1135.47C1779.12 1130.03 1780.12 1129.83 1811.74 1130.18C1836.27 1130.45 1840.95 1130.74 1843.53 1132.16C1847.75 1134.47 1855.78 1143.28 1856.58 1146.47C1857.64 1150.68 1856.49 1158.09 1853.95 1163.5C1851.18 1169.39 1840.44 1180.6 1836.65 1181.55C1833.07 1182.45 1833.31 1183.93 1837.85 1189.11C1844.75 1196.97 1846.56 1202.9 1845 1212.51C1842.64 1226.97 1832.06 1237.14 1816 1240.38C1800.71 1243.47 1774.57 1245.43 1766 1244.13ZM1805.08 1233.58C1809.25 1232.83 1814.02 1231.52 1815.68 1230.66C1826.44 1225.1 1832.63 1205.81 1826.54 1196.84C1822.75 1191.27 1816.33 1188.64 1805.5 1188.24C1800.55 1188.06 1795.87 1188.33 1795.09 1188.86C1793.29 1190.08 1786.04 1221.82 1786.02 1228.58C1786.01 1231.38 1786.3 1233.97 1786.67 1234.33C1787.74 1235.41 1796.91 1235.04 1805.08 1233.58ZM552.11 1202.25C553.31 1199.14 552.28 1155 551 1155C550.15 1155 524.5 1200.97 524.5 1202.5C524.5 1203.66 532.11 1204.6 543.27 1204.84C550.89 1205 551.07 1204.94 552.11 1202.25ZM1826.67 1174.42C1834.88 1170.22 1838.2 1164.65 1838.72 1154.21C1838.97 1149.06 1838.66 1145.67 1837.77 1144C1835.81 1140.3 1826.41 1136.88 1817.62 1136.67C1805.88 1136.39 1805.6 1136.58 1803.05 1146.74C1798.63 1164.37 1796.93 1174.21 1798.07 1175.58C1799.55 1177.37 1803.08 1177.85 1812.7 1177.59C1819.55 1177.4 1821.86 1176.87 1826.67 1174.42ZM738.33 1014.94C731.76 1014.43 728 1012.98 728 1010.96C728 1010.52 729.5 1009.24 731.33 1008.11C735.87 1005.3 737 1002.27 737 992.95L737 985L720.75 984.99C703.81 984.99 697 983.96 697 981.42C697 977.53 703.64 965.77 719.58 941.45C731.51 923.25 740.2 911.77 743.29 910.11C746.93 908.16 749.76 909.51 751.04 913.81C751.64 915.84 752.48 929.42 752.89 944C753.4 961.89 754.06 971.25 754.89 972.81L756.14 975.13L760.55 971.06C767.19 964.94 770.07 965.81 770.76 974.16C771.12 978.55 770.81 979.99 769.03 982.25C767.25 984.5 766.06 985 762.49 985C760.09 985 756.98 985.44 755.57 985.98C753.22 986.87 753 987.44 753.02 992.73C753.04 998.76 755.06 1004.17 759.17 1009.26C761.12 1011.67 761.22 1012.2 759.95 1013.41C758.24 1015.05 748.54 1015.74 738.33 1014.94ZM800.33 1015.02C790.36 1012.89 786 1008.78 786 1001.51C786 995.49 787.17 994 791.89 994C794.79 994 796.15 994.84 799.94 998.93C804.84 1004.23 808.21 1006 813.42 1006C823.18 1006 831.33 998.72 833.34 988.22C834.29 983.23 832.28 975.79 828.86 971.65C823.87 965.59 821.05 964.65 808.5 964.86C802.45 964.96 796.6 965.15 795.5 965.27C793.62 965.49 793.46 964.72 792.86 953C792.51 946.12 792.1 934.2 791.96 926.5L791.69 912.5L811.14 912C831.53 911.48 830.72 911.64 837.49 906.6C839.58 905.04 843.68 906.81 844.92 909.81C845.57 911.39 845.96 915.94 845.8 920.07L845.5 927.5L824.75 927.77L804 928.04L804 940.89L804 953.73L816.75 954.2C831.06 954.73 836.83 956.52 842.79 962.29C850.33 969.58 852.16 988.01 846.51 999.58C841.28 1010.25 831.92 1015 815 1015.56C809.23 1015.76 802.62 1015.51 800.33 1015.02ZM1528.7 1014.92C1524.41 1014.55 1521.3 1013.73 1520.28 1012.71C1518.78 1011.21 1518.99 1010.78 1523.08 1007.16L1527.5 1003.23L1527.5 994.37L1527.5 985.5L1509.5 984.92C1499.6 984.6 1490.71 983.99 1489.75 983.57C1486.13 981.96 1487.57 978.27 1499.29 959.06C1515.08 933.18 1531.29 910.68 1535 909.5C1538.61 908.35 1540.89 909.89 1542.07 914.27C1542.69 916.56 1543.56 930.37 1544 944.96C1544.45 959.56 1545.14 972.31 1545.53 973.29C1546.52 975.77 1548.08 975.01 1550.92 970.68C1553.91 966.12 1556.43 965.93 1557.9 970.15C1560.55 977.75 1557.66 985 1551.99 985C1550.42 985 1547.98 985.44 1546.57 985.98C1544.26 986.85 1544 987.48 1544 992.23C1544 999.34 1545.26 1003.28 1549.08 1008.1C1551.8 1011.53 1552.07 1012.35 1550.89 1013.48C1549.25 1015.05 1538.42 1015.75 1528.7 1014.92ZM1588.5 1015.04C1577.73 1012.69 1574 1009.22 1574 1001.55C1574 995.49 1575.16 994 1579.89 994C1582.79 994 1584.15 994.84 1587.94 998.93C1594.59 1006.12 1600.82 1007.77 1608.77 1004.45C1616.71 1001.13 1620.94 994.29 1620.98 984.71C1621 977.98 1618.66 972.57 1614.01 968.67C1609.53 964.9 1605.37 964.27 1589.5 964.97L1581.5 965.33L1580.86 954.91C1580.51 949.19 1580.06 937.3 1579.86 928.5L1579.5 912.5L1599 911.98C1618.38 911.47 1621.11 910.98 1623.95 907.55C1625.94 905.17 1629.61 905.68 1631.96 908.68C1633.78 911 1634.04 912.48 1633.79 919.43L1633.5 927.5L1612.75 927.77L1592 928.04L1592 940.89L1592 953.73L1604.91 954.2C1616.69 954.63 1618.34 954.92 1623.62 957.58C1626.81 959.19 1630.65 962.08 1632.17 964C1638.13 971.56 1639.55 988.46 1635.08 998.56C1632.43 1004.55 1625.88 1010.52 1619.17 1013.06C1612.83 1015.47 1595.57 1016.58 1588.5 1015.04ZM736.77 956.75C736.94 945.5 736.67 938 736.1 938C734.31 938 715 970.02 715 972.99C715 975.29 717.54 975.78 728.5 975.62L736.5 975.5L736.77 956.75ZM1526.8 974.8C1527.64 973.96 1528 968.42 1528 956.3C1528 942.1 1527.75 939 1526.59 939C1524.7 939 1504.38 972.79 1505.58 973.95C1507.74 976.03 1524.88 976.72 1526.8 974.8ZM882.43 956.11C872.58 951.63 867.06 943.68 867.02 933.9C866.98 923.23 870.82 916.7 879.69 912.36C890.27 907.19 900.64 909.55 907.63 918.73C914.83 928.18 913.89 939.91 905.17 949.27C897.44 957.59 890.37 959.71 882.43 956.11ZM1670.89 956.67C1661.07 953.04 1655.94 945.8 1655.22 934.56C1654.44 922.3 1659.02 915.46 1671.11 910.87C1685.54 905.39 1700 916.67 1700 933.4C1700 939.36 1698.16 943.71 1693.42 948.96C1686.85 956.23 1677.95 959.28 1670.89 956.67ZM897.24 942.28C899.62 940.13 902 935.71 902 933.45C902 932.54 901.32 930.36 900.48 928.61C896.18 919.53 881.61 919.89 878.84 929.14C875.22 941.22 888.18 950.48 897.24 942.28ZM1683.74 943.37C1687.19 941.21 1689.45 937.04 1689.45 932.83C1689.45 922.19 1672.21 917.88 1667.34 927.31C1665.37 931.11 1666.04 938.27 1668.63 941.18C1672.71 945.75 1678.55 946.6 1683.74 943.37ZM64.5 875.9C53.52 872.52 52.62 860.91 60.55 824.8C62.45 816.17 64 808.67 64 808.13C64 806.09 60.74 804 57.55 804C55.73 804 53.64 803.28 52.9 802.39C51.76 801 51.9 800.5 53.89 798.89C55.17 797.85 57.07 797 58.11 797C61.09 797 67.9 790.15 70.97 784.06C74.39 777.28 78.67 772.8 81.33 773.2C84.85 773.73 85.46 776.17 84.35 785.16C83.78 789.75 83.5 793.84 83.72 794.25C83.94 794.66 88.32 795 93.45 795C101.2 795 103.18 795.33 105.14 796.94L107.5 798.88L105.22 801.19C103.16 803.28 101.9 803.53 91.7 803.83L80.46 804.16L78.68 811.83C73.01 836.33 71.7 844.01 71.6 853.22C71.51 861.82 71.74 863.18 73.59 865.03C76.27 867.72 79.05 867.06 87.18 861.8C98.35 854.58 102.36 856.77 93.75 865.38C87.58 871.55 82.77 874.27 75.2 875.88C69.16 877.16 68.6 877.16 64.5 875.9ZM366.43 875.25C352.23 870.16 345.62 857.22 343.04 829.49C340.18 798.74 348.98 771.54 364.79 762.28C368.77 759.94 370.35 759.64 378.4 759.65C394.91 759.66 403.87 764.88 410.49 778.32C415.88 789.24 417.33 798.94 416.73 820C416.19 839.07 414.44 848.24 409.5 857.99C406.13 864.64 399.16 871.6 393.24 874.22C386.58 877.16 373.2 877.68 366.43 875.25ZM386.88 864.08C393.95 859.05 396.61 849.76 397.61 826.5C398.31 810.45 397.03 793.82 394.42 785.05C390.41 771.53 373.47 766.28 368.06 776.88C364.19 784.47 362.56 796.17 362.54 816.5C362.51 843.96 365.45 857.67 372.71 864.05C375.78 866.74 376.89 867.14 380.11 866.71C382.2 866.43 385.25 865.25 386.88 864.08ZM178.75 852.21L170 851.92L170 844.46L170 837L221.5 837L273 837L273 843.94C273 847.76 272.62 851.12 272.16 851.4C271.22 851.98 192.49 852.66 178.75 852.21ZM175.41 815.09C170.72 813.92 170 813.17 170 809.46C170 806.58 170.44 805.92 172.75 805.27C176.3 804.28 265.64 804.26 269.18 805.25C273.72 806.52 273.98 811.78 269.63 814.28C267.19 815.68 180.79 816.42 175.41 815.09ZM2164.84 760.88C2152.62 757.41 2145.4 741.63 2144.3 715.93C2143.66 701.09 2144.83 689.99 2148.17 679.17C2150.88 670.41 2159.51 661.45 2168.5 658.06C2182.93 652.62 2196.05 658.3 2203.62 673.24C2208.75 683.35 2210.36 692.04 2210.34 709.5C2210.3 737.49 2204.2 752.44 2190.07 759.1C2184.78 761.6 2170.84 762.58 2164.84 760.88ZM2224.44 760.58C2222.86 759.43 2222.5 757.94 2222.5 752.63C2222.5 748.6 2223 745.6 2223.8 744.8C2224.61 743.99 2227.59 743.51 2231.65 743.52C2239.5 743.55 2241 744.94 2241 752.24C2241 758.99 2237.99 762 2231.24 762C2228.57 762 2225.51 761.36 2224.44 760.58ZM2270 761.39C2263.28 760.18 2262.87 759.96 2263.19 757.72C2263.56 755.1 2266.89 753.35 2274.12 751.98C2277.04 751.42 2279.9 750.5 2280.46 749.94C2281.13 749.28 2281.62 736.12 2281.83 713.45L2282.16 678L2280.05 678C2278.88 678 2275.59 679.19 2272.73 680.64C2265.06 684.53 2262.29 685.14 2260.5 683.36C2258.37 681.23 2258.64 678.68 2261.25 676.29C2266.65 671.36 2292 657 2295.31 657C2296.17 657 2297.14 657.42 2297.46 657.94C2299.14 660.65 2300.12 675.63 2302.62 736.63L2303.2 750.77L2308.25 751.44C2314.24 752.23 2319 754.48 2319 756.5C2319 757.3 2317.79 758.75 2316.31 759.71C2314 761.23 2310.81 761.5 2293.06 761.66C2281.75 761.76 2271.38 761.64 2270 761.39ZM2349.41 760.6C2340.11 758.82 2338 757.63 2338 754.15C2338 749.18 2340.93 741 2342.71 741C2343.61 741 2347.34 743.9 2351.01 747.44C2354.68 750.98 2358.89 754.18 2360.36 754.55C2363.66 755.38 2368.3 753.56 2372.7 749.69C2375.3 747.4 2376 746.03 2375.99 743.15C2375.98 738.06 2373.29 734.44 2364.28 727.47C2353.81 719.35 2350 713.64 2350 706.03C2350 698.53 2352.58 694.71 2360.65 690.3C2368.42 686.04 2374.19 685.35 2385 687.37C2395.07 689.25 2398 691.64 2398 698C2398 703.11 2394.06 708.07 2391.31 706.41C2390.31 705.81 2388.88 704.01 2388.12 702.41C2385.39 696.68 2384.2 696 2377.1 696.06C2367.69 696.14 2363.8 697.69 2362.61 701.85C2361.17 706.89 2363.87 710.85 2373.64 718.05C2383.63 725.4 2387.42 729.74 2389.61 736.34C2391.89 743.2 2390.46 747.5 2383.98 753.33C2375.66 760.81 2363.72 763.32 2349.41 760.6ZM1893.44 759.98C1889.2 758.68 1886 754.94 1884.89 750C1883.57 744.15 1885.28 729.06 1888.97 713.96C1893.18 696.73 1893.07 695.99 1886.25 694.54C1882.22 693.67 1882.05 691.53 1885.9 690.18C1890.51 688.58 1896.85 682.22 1898.15 677.91C1899.75 672.56 1901.97 670.8 1906.65 671.18L1910.5 671.5L1910.5 680L1910.5 688.5L1918.5 689.03C1926.44 689.55 1929 690.28 1929 692.02C1929 693.63 1925.32 694.96 1918 696C1914.06 696.56 1910.04 697.44 1909.07 697.96C1906.25 699.47 1899.07 725.46 1897.4 740.21C1896.6 747.25 1898.47 751 1902.77 750.99C1905.46 750.99 1906.58 750.4 1914.95 744.56C1918.22 742.28 1919.55 741.85 1920.84 742.66C1930.11 748.47 1905.87 763.8 1893.44 759.98ZM2183.96 749.38C2188.47 745.59 2189.83 742.27 2190.97 732.34C2192.24 721.28 2192.25 697.86 2190.99 688.16C2189.92 679.96 2185.75 669.64 2182.62 667.44C2178.22 664.37 2170.25 666.68 2167.6 671.81C2161.21 684.16 2159.56 721.33 2164.61 738.96C2167.87 750.33 2176.99 755.24 2183.96 749.38ZM1999.82 737.09C1994.38 736.68 1989.45 735.79 1988.57 735.06C1986.84 733.62 1986.53 730.29 1987.93 728.08C1989.21 726.05 2019.05 724.72 2050.72 725.28C2072.27 725.66 2076.31 725.97 2078.53 727.43C2081.78 729.56 2081.49 732.56 2077.77 735.33C2075.17 737.27 2073.45 737.37 2042.27 737.59C2024.25 737.72 2005.14 737.49 1999.82 737.09ZM2007.9 707.1C1989.16 706.46 1987 705.88 1987 701.45C1987 696.79 1988.78 696.27 2007.24 695.5C2032.35 694.45 2075.94 695.26 2078.75 696.82C2083.09 699.23 2080.76 705.17 2075 706.37C2070.74 707.25 2026.43 707.74 2007.9 707.1Z" fill="#1e2749" fill-rule="evenodd"/>
</svg>
