<?xml version="1.0" encoding="UTF-8"?>
<svg xmlns="http://www.w3.org/2000/svg" viewBox="0 0 2430 1951" width="2430" height="1951" shape-rendering="geometricPrecision">
<path d="M2108 1916.06C2108 1911.97 2110.31 1903.31 2112.68 1898.5C2116.96 1889.84 2125.32 1879.79 2145.25 1859.34C2155.89 1848.43 2167 1836.58 2169.95 1833.01C2180.04 1820.8 2183.67 1809.21 2180.64 1798.86C2177.34 1787.59 2169.46 1782 2156.86 1782C2146.38 1782 2140.7 1784.12 2137.09 1789.37C2133.53 1794.55 2131.43 1799.48 2130.53 1804.79C2129.59 1810.39 2128.07 1811.39 2121.57 1810.72C2111.33 1809.66 2110.31 1807.67 2113.99 1795.78C2117.72 1783.68 2126.45 1772.92 2135.95 1768.68C2144.74 1764.77 2169.5 1765.32 2178.69 1769.64C2184.19 1772.22 2192.18 1780.61 2195.38 1787.16C2199.41 1795.41 2200.67 1804.17 2199.24 1813.98C2196.98 1829.48 2191.55 1836.99 2157.01 1872.36C2144.35 1885.32 2134 1896.32 2134 1896.8C2134 1897.65 2168.24 1899 2189.7 1899L2200.08 1899L2199.79 1908.25L2199.5 1917.5L2153.75 1917.76C2108.88 1918.02 2108 1917.98 2108 1916.06ZM1801.81 1876.99C1758.93 1871.79 1730.84 1832.85 1725.99 1771.9C1724.77 1756.5 1725.95 1730.88 1728.54 1716.87C1736.69 1672.77 1759.63 1644.81 1795 1635.88C1802.27 1634.04 1805.24 1633.82 1815.5 1634.32C1822.1 1634.64 1830.17 1635.64 1833.43 1636.53C1856.64 1642.89 1874.94 1662.75 1884.99 1692.46C1887.25 1699.15 1887.71 1701.65 1886.86 1702.66C1886.25 1703.4 1880.74 1705.59 1874.63 1707.53C1861.74 1711.61 1862.45 1711.9 1858.89 1701.1C1852.38 1681.31 1841.83 1669.44 1826.67 1664.83C1817.52 1662.05 1801.32 1662.58 1793.02 1665.94C1774.89 1673.26 1762.05 1690.8 1756.47 1715.85C1749.9 1745.35 1751.84 1786.09 1760.93 1809.67C1769.04 1830.7 1783.66 1843.91 1802.3 1847.05C1832.53 1852.15 1855.64 1831.97 1863.51 1793.62C1864.09 1790.82 1864.25 1790.75 1868.8 1791.31C1874.73 1792.03 1889.23 1796.76 1890.17 1798.27C1891.16 1799.87 1890.22 1804 1886.27 1815.43C1880.46 1832.28 1874.14 1843.42 1864.48 1853.85C1847.88 1871.78 1825.88 1879.9 1801.81 1876.99ZM1983.5 1875C1973.61 1872.35 1959.59 1864.97 1952.23 1858.55C1932.86 1841.65 1921.48 1820.35 1915.32 1789.5C1912.75 1776.66 1912.74 1734.76 1915.29 1721C1922.5 1682.24 1940.24 1654.97 1967.06 1641.47C1978.8 1635.56 1983.79 1634.54 2001 1634.52C2014.5 1634.5 2017.46 1634.8 2023.96 1636.84C2034.19 1640.05 2041.22 1643.77 2049.82 1650.5C2067.47 1664.3 2079.74 1684.16 2086.28 1709.5C2093 1735.56 2093.24 1771.29 2086.86 1799C2078.14 1836.88 2052.53 1865.97 2020.02 1874.94C2010.14 1877.66 1993.52 1877.69 1983.5 1875ZM2232.46 1871.75C2232.2 1871.06 2232.1 1818.3 2232.24 1754.5L2232.5 1638.5L2245.36 1638.22C2253.99 1638.03 2258.68 1638.32 2259.61 1639.09C2260.76 1640.05 2261 1648.26 2261 1686.62L2261 1733L2310.8 1733C2348.2 1733 2360.9 1732.7 2361.8 1731.8C2362.7 1730.9 2363 1719.12 2363 1684.95L2363 1639.3L2376.75 1638.72C2384.31 1638.39 2390.86 1638.49 2391.31 1638.92C2392.28 1639.87 2392.34 1870.63 2391.38 1872.2C2390.69 1873.31 2365.79 1872.61 2363.89 1871.43C2363.39 1871.12 2363 1847.99 2363 1818.52C2363 1789.73 2362.73 1765.45 2362.39 1764.58C2361.85 1763.17 2356.42 1763 2311.39 1763L2261 1763L2261 1816.8C2261 1857.31 2260.7 1870.9 2259.8 1871.8C2258.08 1873.52 2233.12 1873.48 2232.46 1871.75ZM2020.5 1845.01C2037.22 1837.43 2049.73 1823.04 2057.09 1802.94C2061.57 1790.69 2062.92 1782.6 2063.64 1763.5C2064.76 1733.59 2061.57 1714.63 2052.46 1697.06C2046.44 1685.46 2039.94 1677.77 2031.18 1671.91C2020.52 1664.78 2012.78 1662.69 1998.72 1663.15C1988.28 1663.49 1986.98 1663.77 1980 1667.11C1975.88 1669.08 1969.93 1672.8 1966.8 1675.37C1956.78 1683.57 1947.41 1700.47 1943.47 1717.48C1941.27 1726.95 1940.1 1753.1 1941.02 1772.11C1941.76 1787.4 1942.11 1789.59 1945.46 1799.61C1947.45 1805.6 1950.98 1813.85 1953.29 1817.94C1960.72 1831.06 1974.04 1842.26 1987.45 1846.66C1990.2 1847.56 1995.35 1847.87 2003.5 1847.63C2013.34 1847.34 2016.4 1846.87 2020.5 1845.01ZM938 1700.79C915.67 1687.63 869.28 1660.68 777 1607.26C744.27 1588.32 714.58 1571.1 711 1569C707.42 1566.9 693.02 1558.55 679 1550.45C664.98 1542.35 640.9 1528.42 625.5 1519.5L597.5 1503.28L396.5 1502.63C285.95 1502.28 192.03 1501.7 187.79 1501.35L180.09 1500.72L176.97 1492.11C171.17 1476.08 148.31 1408.69 137.08 1374.5C120.45 1323.88 76.85 1193.37 45.59 1100.64C30.42 1055.62 18 1017.77 18 1016.54C18 1013.8 20.33 1011.59 25.54 1009.42C33.87 1005.94 83.83 977.42 144 941.8C170.02 926.39 189.26 915.2 267.5 869.98C294.45 854.4 325.95 836.18 337.5 829.49L358.5 817.34L359.08 561.42C359.67 304.44 359.83 293.77 363.06 290.54C364.88 288.72 371.4 289.44 374.78 291.84L378 294.14L378 505.32C378 621.47 378.3 736.41 378.66 760.75L379.33 805L383.79 802.38C390.5 798.45 395.4 799.28 407.59 806.37C412.95 809.5 417.66 811.71 418.05 811.28C418.44 810.85 419.08 708.58 419.47 584C420.18 358.68 420.83 292.84 422.36 291.3C422.81 290.86 425.36 290.5 428.05 290.5C436.73 290.5 436.37 288.91 437.14 329.77C437.51 349.42 438.15 468.68 438.56 594.8L439.32 824.09L441.91 825.91C443.33 826.91 460.48 836.96 480 848.22C499.52 859.49 544.08 885.26 579 905.49C660.39 952.62 753.78 1005.9 761.5 1009.62C765.59 1011.58 767.77 1013.29 768.36 1015C769.25 1017.62 744.77 1092.34 692.52 1246.5C657.35 1350.26 620.3 1461.26 616.47 1474.34C614.56 1480.85 613 1487.22 613 1488.49C613 1490.41 615.58 1492.32 628.25 1499.77C640.28 1506.85 798.08 1598.26 865.5 1637.2C872.65 1641.33 894.7 1654.08 914.5 1665.54C934.3 1677 952.65 1687.53 955.28 1688.94L960.07 1691.5L972.28 1685.12C987.51 1677.17 1040.29 1647.17 1119 1601.72C1261.24 1519.6 1322.47 1484.99 1325.44 1485.03C1328.96 1485.08 1332.58 1487.15 1550 1613.27C1642.26 1666.78 1679.1 1688.55 1689.5 1695.7C1695.25 1699.65 1696.55 1701.05 1696.8 1703.52C1697.02 1705.81 1696.35 1707.25 1694.03 1709.47C1688.16 1715.09 1693 1717.35 1618.5 1674.18C1611.35 1670.03 1597.17 1661.84 1587 1655.97C1576.83 1650.11 1524.85 1620.12 1471.5 1589.34C1346.75 1517.37 1326.71 1506 1324.59 1506C1323.02 1506 1294.29 1522.12 1239.5 1553.73C1024.01 1678.08 962.66 1713.03 960 1712.93C959.17 1712.89 949.27 1707.43 938 1700.79ZM591.92 1483.59C592.56 1482.82 596.85 1471.01 601.44 1457.34C606.04 1443.68 618.43 1407.08 628.98 1376C720.04 1107.87 747.19 1026.78 746.24 1025.87C744.88 1024.55 716.64 1007.38 692.95 993.46C649.67 968.03 636.57 960.37 623.5 952.8C616.35 948.67 592.05 934.59 569.5 921.51C500.77 881.66 402.78 825.46 395.95 821.98L391.92 819.92L382.71 825.08C350.43 843.18 179.87 941.97 126.5 973.48C113.3 981.27 89.45 995.22 73.5 1004.47C57.55 1013.73 43.72 1021.97 42.77 1022.79C41.58 1023.81 41.22 1025.1 41.62 1026.89C43.7 1036.18 53.2 1065.32 83.53 1155.5C102.4 1211.6 123.03 1273.47 129.37 1293C135.71 1312.53 152.67 1363.47 167.06 1406.22L193.22 1483.93L202.86 1484.26C208.16 1484.43 297.61 1484.68 401.63 1484.79C563.12 1484.97 590.93 1484.79 591.92 1483.59ZM564.22 1448.44C559.91 1445.42 559.53 1446.83 587.62 1361.5C621.43 1258.83 680.79 1083.75 696.47 1040.51C701.33 1027.08 702.12 1026 706.97 1026C709.67 1026 711.76 1026.75 713.69 1028.42L716.5 1030.83L714.15 1040.17C711.49 1050.7 693.29 1105.81 662.02 1198C650.36 1232.38 635.05 1277.6 628 1298.5C596.1 1393.04 579.92 1440.26 578.46 1443.07C574.96 1449.85 569.29 1451.99 564.22 1448.44ZM394 267.45C364.42 261.1 341 240.16 327.4 207.9C318.65 187.16 315.85 165.72 317.83 134.66C319.22 112.83 320.52 105.22 325.03 92.5C337.2 58.22 357.97 37.57 389.36 28.55C399.29 25.69 407.85 25.32 422.5 27.1C459.71 31.62 486.95 55.79 500.52 96.34C506.34 113.74 507.22 121.65 506.76 152.42L506.36 179.5L503.06 190.5C495.67 215.14 487.75 229.5 474.1 243C460.77 256.19 446.85 263.75 428.93 267.52C420.21 269.35 402.71 269.32 394 267.45ZM436.5 235.04C448.62 229.05 460.66 217.25 466.66 205.5C474.77 189.64 477.96 175.59 478.71 152.5C479.32 133.56 477.13 117.89 471.63 101.83C467.21 88.9 463.03 82.05 454 72.91C448.12 66.95 444.6 64.37 437.69 60.96L428.89 56.62L414.62 56.19C403.17 55.84 399.18 56.1 394.47 57.46C371.04 64.28 356.23 82.26 348.8 112.95C346.97 120.49 346.72 124.58 346.74 147.5C346.76 176.72 347.49 182.08 353.45 196.75C361.46 216.44 376.77 232.32 393.49 238.25C397.58 239.7 401.16 239.98 413 239.76L427.5 239.5L436.5 235.04Z" fill="#1e2749" fill-rule="evenodd"/>
</svg>
