<?xml version="1.0" encoding="UTF-8"?>
<svg xmlns="http://www.w3.org/2000/svg" viewBox="0 0 2430 2268" width="2430" height="2268" shape-rendering="geometricPrecision">
<path d="M1009.98 2228.27C999.31 2204.41 961 2109.18 961 2106.52C961 2105.08 964.54 2106.56 974.52 2112.18C980.56 2115.58 989.75 2120.74 994.94 2123.64C1000.88 2126.97 1004.78 2128.6 1005.45 2128.04C1006.61 2127.08 1007.03 1888.7 1005.88 1887.55C1005.55 1887.21 998.8 1886.5 990.89 1885.96C965.5 1884.23 946.63 1880.66 925.5 1873.57C856.17 1850.35 792.56 1795.71 743.03 1716.84C736.72 1706.8 728.93 1695.26 725.7 1691.21C719.4 1683.27 681.15 1643.41 652.59 1615.01C642.91 1605.39 635 1596.97 635 1596.29C635 1595.48 635.97 1595.22 637.75 1595.54C639.26 1595.82 649.71 1596.93 660.96 1598.03C678.35 1599.72 681.62 1599.81 682.79 1598.63C683.97 1597.46 683.25 1593.98 677.98 1575.38C657.65 1503.61 649.06 1458.54 644.56 1400C641.77 1363.71 640.72 1334.98 641.42 1314C641.79 1302.72 642.33 1286.97 642.6 1279C642.87 1271.03 643.52 1261.8 644.04 1258.5C644.56 1255.2 644.99 1251.71 644.99 1250.75C645 1249.09 632.17 1249 389.47 1249C166.47 1249 133.87 1249.19 133.38 1250.46C133.06 1251.27 137.46 1260 143.33 1270.23C153.68 1288.25 156.3 1294 154.15 1294C150.81 1294 34.78 1246.99 29.19 1243.37C24.79 1240.52 23.27 1241.33 67 1223.3C102.81 1208.54 152.65 1189 154.49 1189C156.45 1189 155.28 1191.38 141.79 1214.72C136.32 1224.2 132.13 1232.4 132.47 1232.95C132.88 1233.62 278.67 1233.96 569.01 1233.97C982.89 1233.99 1004.98 1233.91 1005.82 1232.25C1006.83 1230.27 1006.45 415.21 1005.42 364.25C1004.98 342.24 1004.43 332 1003.69 332C1003.1 332 994.71 336.47 985.06 341.94C965.32 353.11 962.28 354.61 961.32 353.66C960.32 352.65 975.67 313.6 1009.35 231.5C1010.7 228.2 1012.42 225.38 1013.15 225.24C1014.73 224.92 1017.31 230.96 1045.59 301.18C1064.3 347.64 1067.02 355 1065.47 355C1064.41 355 1054.23 349.58 1040 341.43C1032.03 336.86 1024.71 332.83 1023.75 332.46C1022.08 331.82 1022 353.68 1022 782.89L1022 1234L1354.75 1233.92C1769.32 1233.83 1925.45 1233.01 1927.4 1230.95C1928.57 1229.71 1927.75 1227.76 1921.78 1217.5C1908.32 1194.39 1905.63 1189 1907.58 1189C1909.07 1189 1941.13 1201.39 1975 1215.06C1986.17 1219.56 2028.23 1237.97 2032.32 1240.14C2034.7 1241.4 2034.92 1241.82 2033.7 1242.83C2030 1245.9 1911.46 1294 1907.58 1294C1906.31 1294 1907.13 1290.68 1909.61 1285.72C1912.62 1279.72 1921.8 1263.62 1925.99 1257C1927.56 1254.53 1928.88 1251.96 1928.92 1251.3C1929.04 1249.55 1911.41 1249.43 1620 1249.2L1361.5 1248.99L1361.5 1315.74C1361.5 1370.53 1361.16 1387.43 1359.63 1410L1357.75 1437.5L1364.35 1477.5C1373.16 1530.97 1378 1562.17 1378 1565.45C1378 1567.29 1377.54 1568.04 1376.54 1567.82C1375.74 1567.65 1367.38 1560.53 1357.95 1552C1348.52 1543.47 1340.33 1536.5 1339.74 1536.5C1339.15 1536.5 1335.15 1547.08 1330.84 1560C1306 1634.58 1285.1 1680.15 1254.48 1726.5C1236.17 1754.22 1218.85 1775.06 1193.35 1800.06C1165.24 1827.63 1142.73 1844.23 1114 1858.59C1090.3 1870.44 1069.41 1877.47 1043 1882.5C1035.58 1883.91 1027.92 1885.41 1026 1885.82L1022.5 1886.58L1022.5 2006.71C1022.5 2072.78 1022.8 2127.14 1023.17 2127.5C1023.54 2127.87 1029.16 2125.04 1035.67 2121.22C1061.91 2105.81 1066.87 2103.65 1065.43 2108.25C1063.89 2113.17 1038.7 2175.7 1030.69 2194.5C1019.73 2220.2 1014.47 2231.59 1013.16 2232.4C1012.57 2232.77 1011.19 2230.98 1009.98 2228.27ZM1005.98 1870C1006.47 1868.07 1006.59 1255.64 1006.11 1250.25C1006.02 1249.26 970.58 1249 832.55 1249L659.09 1249L658.3 1252.75C656.93 1259.21 657.36 1396.93 658.8 1410C664.03 1457.77 674.33 1509.77 688.11 1558C692.44 1573.19 698.03 1589.9 698.96 1590.48C700.08 1591.17 705.92 1584.61 716.77 1570.5C728.25 1555.56 729.58 1554 730.83 1554C732.41 1554 732.88 1563.42 733.5 1607C733.81 1629.28 734.53 1654.47 735.09 1663L736.12 1678.5L748.81 1699.28C771.04 1735.68 784.44 1753.13 811.2 1780.53C851.61 1821.9 886.36 1845.42 928.66 1860.01C947.71 1866.59 982.83 1873 997.93 1872.67C1004.96 1872.51 1005.4 1872.37 1005.98 1870ZM1055 1865.65C1075.9 1860.37 1088.16 1855.93 1105.2 1847.45C1135.41 1832.42 1161.06 1813.01 1190.54 1782.86C1243.25 1728.93 1278.74 1668.01 1310.45 1577C1316.15 1560.64 1322 1539.74 1322 1535.72C1322 1532.89 1321.87 1532.8 1318.42 1533.45C1316.45 1533.82 1309.13 1535.87 1302.17 1538.01C1295.2 1540.14 1286.19 1542.8 1282.14 1543.91L1274.78 1545.93L1275.21 1543.71C1275.62 1541.55 1299.34 1506.79 1324.68 1471.21C1331.45 1461.69 1337.63 1452.68 1338.41 1451.17C1342.26 1443.74 1345.33 1418.63 1347.09 1380.23C1348.37 1352.33 1347.72 1257.83 1346.21 1252.5L1345.36 1249.5L1183.68 1249.25L1022 1248.99L1022 1560.15L1022 1871.3L1029.75 1870.68C1034.01 1870.34 1045.38 1868.08 1055 1865.65ZM1932.1 1478.42C1916.54 1474.23 1904.83 1461.97 1900.49 1445.31C1898.73 1438.56 1898.54 1424.3 1900.11 1416.8C1902.65 1404.6 1913.1 1389.54 1922.27 1384.86C1930.44 1380.7 1953.63 1380.73 1961.85 1384.92C1976.4 1392.35 1986 1409.8 1986 1428.83C1986 1444.05 1981.11 1456.84 1971.39 1467.03C1960.83 1478.1 1946.44 1482.27 1932.1 1478.42ZM2024.25 1478.52C2009.2 1474.29 2000.84 1464.92 2000.6 1452.02L2000.5 1446.5L2004.56 1446.2C2011.09 1445.72 2013.7 1447.28 2016.36 1453.23C2020.47 1462.45 2025.73 1465.2 2039.51 1465.36C2047.25 1465.44 2049.04 1465.14 2052.21 1463.18C2059.1 1458.92 2061.91 1451.17 2058.38 1446.14C2056.28 1443.14 2050.74 1440.82 2036.28 1436.9C2022.84 1433.26 2011.52 1428.4 2008.3 1424.88C2002.09 1418.09 2000.86 1405.9 2005.44 1396.54C2010.86 1385.46 2019.03 1381.58 2037 1381.54C2051.47 1381.52 2058.31 1383.4 2064.53 1389.13C2072.34 1396.33 2075.38 1406.22 2070.78 1409.44C2068.26 1411.21 2063.76 1411.47 2061.03 1410.02C2060.02 1409.48 2058.22 1407.02 2057.03 1404.56C2053.11 1396.47 2040.07 1392.11 2029.82 1395.47C2026.91 1396.41 2023.29 1398.08 2021.77 1399.16C2019.4 1400.85 2019 1401.83 2019 1405.96C2019 1410.23 2019.41 1411.15 2022.5 1413.86C2024.81 1415.89 2028.96 1417.82 2034.75 1419.54C2058.24 1426.53 2062.84 1428.14 2067.2 1430.91C2073.64 1435 2076.43 1440.47 2076.42 1449C2076.42 1454.08 2075.85 1456.59 2073.8 1460.5C2070.24 1467.26 2063.74 1473.33 2056.51 1476.63C2051.42 1478.96 2048.92 1479.42 2040.01 1479.68C2032.92 1479.89 2027.79 1479.51 2024.25 1478.52ZM2254.5 1478.65C2238.3 1474.43 2225.53 1460.48 2221.92 1443.09C2220.2 1434.83 2221.22 1416.75 2223.77 1410.22C2228.01 1399.37 2236.46 1388.84 2244.06 1384.97C2249.29 1382.3 2258.95 1381.25 2270.62 1382.08C2281.6 1382.85 2287.82 1385.78 2294.69 1393.42C2313.01 1413.8 2312.41 1447.09 2293.37 1467.05C2283.42 1477.48 2267.84 1482.13 2254.5 1478.65ZM1800.5 1477.28C1798.86 1477.03 1797.17 1476.3 1796.77 1475.66C1796.36 1475.02 1796.02 1446.29 1796.02 1411.82L1796 1349.13L1798.25 1348.38C1801.35 1347.35 1849.58 1347.83 1859.91 1349C1872.18 1350.38 1877.56 1352.47 1882.83 1357.89C1890.17 1365.43 1891.48 1369.38 1891.49 1384.02C1891.5 1396.15 1891.4 1396.74 1888.21 1403.22C1884.32 1411.13 1877.92 1417.2 1871.09 1419.47C1864.78 1421.57 1851.91 1422.98 1839 1423C1833.22 1423.01 1825.47 1423.3 1821.77 1423.65L1815.03 1424.29L1814.77 1450.89L1814.5 1477.5L1809 1477.62C1805.97 1477.69 1802.15 1477.54 1800.5 1477.28ZM2096.71 1477.37C2096.32 1476.99 2096 1455.59 2096 1429.83L2096 1383L2103.51 1383L2111.02 1383L2110.76 1430.25L2110.5 1477.5L2103.96 1477.79C2100.36 1477.95 2097.1 1477.76 2096.71 1477.37ZM2151.86 1477.1C2146.03 1476.26 2144.76 1475.19 2141.95 1468.72C2139.27 1462.57 2138.17 1447.54 2138.06 1415.75L2138 1396L2133.12 1396C2127.05 1396 2125.79 1394.61 2126.19 1388.33L2126.5 1383.5L2130.5 1383.18C2136.94 1382.65 2137.61 1381.42 2138.38 1368.77C2138.81 1361.76 2139.52 1357.28 2140.28 1356.78C2140.95 1356.34 2144.65 1356.1 2148.5 1356.24L2155.5 1356.5L2155.78 1369.75L2156.06 1383L2161.83 1383C2168.56 1383 2170 1384.07 2170 1389.05C2170 1394.11 2167.61 1396 2161.17 1396L2156 1396L2156.01 1424.75C2156.02 1440.56 2156.3 1455.16 2156.63 1457.19C2157.46 1462.18 2160.27 1465 2164.42 1465C2168.87 1465 2170.18 1466.86 2169.81 1472.67L2169.5 1477.5L2163 1477.64C2159.43 1477.71 2154.41 1477.47 2151.86 1477.1ZM2185 1430.46L2185 1382.91L2192.25 1383.21L2199.5 1383.5L2199.76 1429.39C2199.95 1462.43 2199.7 1475.65 2198.89 1476.64C2198.15 1477.53 2195.55 1478 2191.38 1478L2185 1478L2185 1430.46ZM2326 1430.5L2326 1383L2331.93 1383C2338.72 1383 2341 1384.52 2341 1389.07C2341 1392.68 2341.94 1392.76 2345.08 1389.4C2346.41 1387.98 2349.41 1385.68 2351.75 1384.31C2359.49 1379.76 2378.46 1380.12 2387.98 1385C2396.73 1389.49 2399.78 1396.34 2401.02 1414.26C2402.41 1434.43 2402.27 1475.33 2400.8 1476.8C2400.12 1477.48 2396.87 1478 2393.3 1478L2387 1478L2386.98 1460.25C2386.96 1427.69 2384.72 1406.8 2380.58 1400.49C2376.03 1393.54 2354.85 1394.85 2348.14 1402.5C2342.45 1408.98 2341.05 1418.54 2341.02 1451.05C2341.01 1468.79 2340.67 1475.93 2339.8 1476.8C2339.12 1477.48 2335.87 1478 2332.3 1478L2326 1478L2326 1430.5ZM1952.28 1463.62C1954.05 1462.86 1957.16 1460.49 1959.2 1458.37C1972.65 1444.3 1972.79 1414.61 1959.48 1401.67C1953.1 1395.48 1939.09 1392.97 1931.37 1396.63C1926.64 1398.87 1921.43 1405.26 1918.89 1411.92C1916.18 1419.02 1915.24 1433.63 1917.01 1441.13C1919.62 1452.19 1926.59 1461.96 1933.26 1463.88C1938.21 1465.31 1948.68 1465.17 1952.28 1463.62ZM2274.58 1463.4C2279.22 1461.19 2284.73 1454.84 2287.79 1448.15C2291.48 1440.08 2292.12 1425.03 2289.17 1415.32C2286.75 1407.37 2281.89 1401.04 2275.64 1397.74C2272.33 1395.98 2269.8 1395.54 2263 1395.52C2255.63 1395.5 2254.06 1395.82 2251.16 1397.88C2231.3 1412.05 2234.57 1457.58 2255.91 1464.04C2260.56 1465.45 2271.01 1465.09 2274.58 1463.4ZM1848.9 1406.91C1854.08 1406.38 1860.15 1405.14 1862.4 1404.15C1869.66 1400.93 1874.99 1392.83 1874.99 1385C1874.99 1376.63 1867.97 1367.12 1860.27 1365.06C1856.21 1363.98 1831.21 1362.08 1820.25 1362.03L1815 1362L1815 1385.49L1815 1408.98L1827.25 1408.42C1833.99 1408.11 1843.73 1407.43 1848.9 1406.91ZM2100 1366.35C2097.06 1365.21 2096 1362.56 2096 1356.38C2096 1348.87 2097.42 1347 2103.14 1347C2110.13 1347 2111 1348.04 2111 1356.41C2111 1361.51 2110.57 1364.11 2109.59 1364.93C2107.92 1366.31 2102.12 1367.18 2100 1366.35ZM2187.25 1366.02C2185.17 1365.14 2185 1364.43 2185 1356.55C2185 1348.25 2185.06 1348.02 2187.56 1347.4C2190.29 1346.71 2197.75 1347.41 2198.79 1348.45C2199.13 1348.8 2199.59 1351.88 2199.81 1355.3C2200.12 1360.28 2199.83 1361.98 2198.35 1363.79C2196.26 1366.35 2190.69 1367.47 2187.25 1366.02ZM573.61 167.29C572.54 145.43 571.04 88.18 571.02 68.75L571 51L582.88 51C591.21 51 595.04 51.37 595.7 52.25C596.22 52.94 605.13 76.59 615.49 104.8C630.74 146.33 634.57 155.85 635.59 154.8C636.28 154.09 641.87 137.07 648 117C667.99 51.52 668.33 50.59 672.63 48.95C675.4 47.9 692.71 47.37 693.65 48.31C694.91 49.58 698.67 175.11 697.5 177.01C697.16 177.55 693.31 178 688.94 178C682.05 178 681 177.77 680.98 176.25C680.96 175.29 680.3 153.8 679.5 128.5C678.7 103.2 678.04 80.59 678.03 78.25C677.99 72.48 676.6 72.9 674.75 79.25C667.16 105.33 644.59 178.69 643.94 179.39C643.45 179.92 639.72 179.92 634.9 179.39L626.68 178.5L611.86 138.5C592.24 85.56 590.86 82 589.87 82C589.4 82 588.9 104.16 588.76 131.25L588.5 180.5L581.39 180.79L574.28 181.08L573.61 167.29ZM751 177.04C744.14 176.13 737.83 172.55 731.59 166.01C707.75 141.02 714.93 93 744.16 81.91C749.39 79.92 752.33 79.5 761 79.5C770.74 79.5 771.99 79.73 778.27 82.71C786.89 86.79 795.06 94.83 798.95 103.05C806.31 118.61 805.26 143.64 796.64 158.35C790.77 168.37 778.96 175.65 767 176.63C763.98 176.88 760.15 177.2 758.5 177.35C756.85 177.5 753.48 177.36 751 177.04ZM827.64 172.72C826.68 172.02 825.47 169.66 824.95 167.47C824.19 164.25 822.12 105.34 822.02 84.2L822 78.91L828.65 79.2C835.61 79.51 836.04 79.79 838 85.32L839.01 88.15L844.25 83.55C852.08 76.69 856.24 75 865.28 75C874.9 75 882.66 77.71 886.91 82.55C888.58 84.45 890.18 86 890.47 86C890.76 86 893.71 84 897.02 81.56C911.98 70.55 928.96 70.05 940.57 80.27C948.04 86.85 949.52 94.78 951.44 138.47C952.37 159.67 952.41 167.79 951.61 168.57C950.91 169.25 947.9 169.43 943.5 169.07L936.5 168.5L935.78 152.5C933.7 106.61 933.31 102.19 930.84 97.22C927.39 90.26 923.04 87.73 915.37 88.2C908.36 88.63 903.69 91.49 899.4 97.97C895.65 103.64 894.98 111.39 895.68 141.5C896.21 164.03 896.08 168.69 894.9 169.67C893.5 170.83 882.48 171.81 881.52 170.86C881.25 170.58 880.34 157.79 879.52 142.43C877.78 110.13 877.19 102.93 875.86 97.7C872.85 85.84 850.11 88.01 843.64 100.78C841.21 105.6 840.85 110.75 840.87 141.36C840.89 161.24 840.53 171.86 839.82 172.71C838.44 174.38 829.91 174.38 827.64 172.72ZM996.7 167.62C990.38 165.86 984.58 161.6 978.74 154.43C971.62 145.67 969.83 140.02 969.24 124.46C968.83 113.46 969.08 110.13 970.82 103.22C973.16 93.98 976.29 88.04 981.67 82.67C989.75 74.59 1000.54 70.61 1014.11 70.7C1021.27 70.75 1023.75 71.23 1028.84 73.51C1036.68 77.03 1043.04 83.77 1047.63 93.43C1052.36 103.39 1055.64 121.87 1052.98 123.51C1052.42 123.86 1040.05 124.59 1025.49 125.13C1010.94 125.67 996.21 126.44 992.76 126.83L986.5 127.54L986.69 131.76C986.95 137.58 992.43 147.58 997.29 151.1C1008.94 159.53 1026.94 155.65 1033.81 143.23C1035.56 140.06 1037 138.82 1039.81 138.04C1045.19 136.54 1050.56 136.76 1052.03 138.54C1055.39 142.59 1041 160.99 1030.5 166.06C1026.19 168.15 1023.84 168.51 1013.5 168.72C1005.81 168.88 999.78 168.48 996.7 167.62ZM1076.44 164.55C1074.66 161.83 1073.46 138.26 1072.77 92.75L1072.46 72L1076.58 72C1083.73 72 1086.83 73.66 1088.03 78.12L1089.09 82.06L1094.8 77.15C1103.73 69.46 1106.02 68.58 1117 68.66C1129.11 68.74 1136.08 71.19 1141.77 77.37C1148.09 84.22 1149.41 90.58 1150.93 121.5C1152.28 148.72 1152.5 162.38 1151.62 163.81C1151.16 164.54 1148.26 165 1144.03 165L1137.18 165L1136.63 161.25C1136.33 159.19 1135.81 149.62 1135.48 140C1134.47 110.43 1133.26 98.17 1130.88 93.24C1125.48 82.1 1109.41 79.82 1099 88.73C1091.74 94.95 1091.67 95.31 1091.05 133L1090.5 166.5L1084.3 166.8C1078.61 167.07 1077.97 166.89 1076.44 164.55ZM1186.5 163.2C1184.85 162.15 1182.73 160.42 1181.79 159.36C1179.13 156.36 1177 146.41 1177.01 137.04C1177.02 123.91 1174.85 87.78 1173.9 85.25C1173.19 83.38 1172.3 83 1168.56 83C1163.44 83 1162 81.39 1162 75.69C1162 71.29 1163.39 70.2 1169.53 69.81L1174.5 69.5L1174.78 56.25L1175.06 43L1181.47 43C1185.5 43 1188.18 43.46 1188.69 44.25C1189.14 44.94 1189.74 49.63 1190.03 54.68C1190.69 65.98 1192.02 67.99 1198.9 68.02C1201.43 68.02 1204.1 68.41 1204.83 68.87C1207.02 70.26 1207.51 77.58 1205.61 80.48C1204.14 82.72 1203.27 83 1197.83 83L1191.7 83L1192.34 110.25C1192.68 125.24 1193.38 139.51 1193.89 141.96C1194.98 147.23 1197.93 150 1202.46 150C1206.98 150 1209.43 152.91 1208.6 157.32C1207.58 162.75 1204.9 164.42 1196.66 164.79C1190.95 165.04 1188.89 164.72 1186.5 163.2ZM770.67 161.92C781.14 156.85 787.01 145.06 786.99 129.14C786.97 115.71 783.56 105.71 776.84 99.34C772.39 95.13 767 93.7 757.24 94.14C750.01 94.47 748.78 94.82 745.34 97.59C743.11 99.38 740.05 103.49 738.06 107.38C735.05 113.22 734.56 115.25 734.18 123.17C733.51 137.19 736.73 148.07 744.02 156.37C750.58 163.84 761.85 166.19 770.67 161.92ZM1244.95 162.7C1235.34 159.98 1229.05 154.09 1226.37 145.3C1224.89 140.43 1223.1 105.52 1223.03 80.21L1223 67.91L1230.25 68.21L1237.5 68.5L1238.2 77.5C1238.59 82.45 1239.35 97.3 1239.89 110.5C1240.43 123.8 1241.4 136.06 1242.07 138C1244.44 144.92 1251.69 150.02 1259.12 149.99C1263.25 149.97 1271.34 145.47 1275.62 140.82C1282.36 133.47 1282.52 132.46 1282.36 97.25L1282.22 66L1290.41 66L1298.61 66L1300 107.75C1300.76 130.71 1301.42 151.97 1301.45 155L1301.5 160.5L1295.03 160.8C1287.38 161.16 1286 160.01 1286 153.31C1286 150.94 1285.73 149 1285.41 149C1285.08 149 1282.46 151.02 1279.58 153.48C1269.23 162.32 1256.03 165.83 1244.95 162.7ZM1328.31 160.24C1327.66 159.81 1326.62 158.13 1326 156.49C1324.88 153.56 1323.1 107.44 1323.03 79.75L1323 66L1328.28 66C1334.51 66 1337.58 67.8 1338.5 72C1338.86 73.65 1339.37 75 1339.62 75C1339.88 75 1342.73 72.8 1345.96 70.12C1349.18 67.43 1353.88 64.45 1356.4 63.48C1366.36 59.68 1383.85 63.76 1389.07 71.1L1391.19 74.08L1395.56 70.51C1397.96 68.54 1402.97 65.49 1406.71 63.72C1412.61 60.92 1414.55 60.5 1421.5 60.52C1428.37 60.53 1430.34 60.95 1435.42 63.51C1446.27 68.97 1449.08 75.95 1450.91 102C1452.71 127.49 1453.38 155.65 1452.21 156.37C1451.62 156.73 1448 156.74 1444.16 156.38L1437.17 155.73L1436.63 146.61C1436.34 141.6 1435.65 127.15 1435.11 114.5C1434.56 101.85 1433.59 89.71 1432.95 87.52C1431.39 82.22 1425.43 76.36 1420.7 75.47C1412.68 73.97 1405.65 77.35 1400.32 85.28C1395.98 91.74 1395.57 96.29 1396.37 129.27C1396.9 151.29 1396.77 157.15 1395.77 157.52C1395.07 157.79 1391.58 158.11 1388.01 158.25L1381.51 158.5L1380.32 129.5C1378.99 97.46 1377.79 85.86 1375.42 82.24C1372.37 77.59 1364.61 75.87 1356.62 78.09C1351.16 79.61 1343.53 87.43 1342.52 92.55C1342.09 94.72 1341.46 110.9 1341.12 128.5L1340.5 160.5L1335 160.76C1331.97 160.9 1328.97 160.67 1328.31 160.24ZM1035.84 109.12C1036.47 104.61 1034.92 100.07 1031.04 95.17C1024.93 87.44 1021.03 85.51 1011.5 85.51C1004.91 85.51 1002.85 85.91 999.82 87.79C992.4 92.39 986.07 102.02 986.02 108.77L986 112.03L1010.75 111.77L1035.5 111.5L1035.84 109.12Z" fill="#1e2749" fill-rule="evenodd"/>
</svg>
