<?xml version="1.0" encoding="UTF-8"?>
<svg xmlns="http://www.w3.org/2000/svg" viewBox="0 0 2430 3818" width="2430" height="3818" shape-rendering="geometricPrecision">
<path d="M728.81 3777.89C728.25 3777.54 728.89 3776.2 730.3 3774.79C732.52 3772.57 732.87 3771.15 733.52 3761.51C734.45 3747.93 733.18 3670.1 731.96 3665.85C731.46 3664.12 730.14 3661.85 729.03 3660.81C726.2 3658.17 726.49 3656.49 730.25 3653.67C739.08 3647.06 746.57 3646.3 751.96 3651.46L754.77 3654.15L759.9 3651.55C770.94 3645.96 781.93 3644.86 790.61 3648.48C795.69 3650.6 802.37 3657.37 805.31 3663.38C815.43 3684.05 811.7 3711.09 796.89 3724.41C790.12 3730.5 784.88 3731.95 767.1 3732.71L752.7 3733.32L753.32 3747.91C754.02 3764.65 755.74 3771.94 759.57 3774.45C764.65 3777.79 762.18 3778.5 745.57 3778.5C736.9 3778.5 729.36 3778.22 728.81 3777.89ZM1428.23 3776.52C1417.34 3773.44 1411.92 3768.52 1410.1 3760.03C1408.49 3752.53 1408.69 3751.29 1411.97 3748.37C1415.64 3745.09 1416.69 3741.82 1417.51 3731C1418.54 3717.25 1419.92 3710.1 1422.48 3705.03L1424.9 3700.27L1421.86 3697.39C1416.53 3692.33 1414.6 3687.41 1414.64 3679C1414.7 3665.84 1420 3656.09 1430.14 3650.47C1435.34 3647.59 1435.88 3647.5 1448.5 3647.59C1459.51 3647.67 1463.55 3648.17 1474.94 3650.91C1492.93 3655.24 1496.8 3657.43 1492.6 3660.92C1491.51 3661.82 1490.39 3661.53 1487.46 3659.54C1481.74 3655.65 1480.56 3656.13 1484.09 3660.91C1486.05 3663.56 1486.11 3664.21 1485.03 3671.62C1482.88 3686.26 1481.19 3690.68 1475.28 3697.06C1468.02 3704.91 1465.86 3705.54 1447.31 3705.27C1430.14 3705.01 1431.65 3704.21 1430.52 3714.15C1430.09 3718 1430.25 3720.04 1431.04 3720.53C1431.68 3720.92 1437.9 3721.64 1444.85 3722.13C1467.48 3723.72 1479.42 3724.99 1483.5 3726.24C1488.16 3727.68 1495.67 3734.72 1496.19 3738.14C1497.25 3745.2 1492.73 3757.06 1486.84 3762.69C1481.94 3767.36 1472.41 3772.78 1465 3775.12C1456.27 3777.88 1435.8 3778.66 1428.23 3776.52ZM1468.94 3762.44C1481.52 3759.58 1489.04 3752.37 1487.58 3744.56C1486.53 3738.95 1484.85 3738.66 1451.75 3738.21L1422 3737.8L1422 3745.78C1422 3759.85 1422.46 3760.6 1432.5 3762.89C1439.29 3764.43 1461.38 3764.16 1468.94 3762.44ZM1593.19 3733.88C1585.36 3732.58 1577.6 3728.5 1571.86 3722.67C1564.82 3715.51 1562.1 3709.68 1560.84 3698.99C1558.12 3675.98 1566.32 3658.38 1583.76 3649.8C1590.16 3646.65 1590.97 3646.5 1601.98 3646.5C1612.41 3646.5 1614.05 3646.76 1619.27 3649.2C1626.79 3652.73 1635.38 3661.34 1638.57 3668.56C1644.15 3681.18 1643.86 3700.86 1637.92 3712.01C1634.01 3719.33 1625.73 3727.32 1618.75 3730.5C1614.23 3732.56 1602.57 3735.21 1599.5 3734.88C1598.95 3734.82 1596.11 3734.37 1593.19 3733.88ZM825.95 3732.44C825.08 3731.39 824.94 3730.39 825.56 3729.56C830.67 3722.63 830.31 3725.77 831.11 3681.65C832.32 3615.16 832.3 3613.03 830.25 3612.42C826.01 3611.16 821.5 3608.37 821.5 3607C821.5 3605.29 836.46 3601.11 843.96 3600.73L848.42 3600.5L849.11 3604.5C849.49 3606.7 850.13 3619.39 850.54 3632.69L851.27 3656.89L856.89 3654.11C875.78 3644.76 883.82 3644.24 892.22 3651.8C899.61 3658.46 899.53 3658.06 903.09 3703.5C903.73 3711.75 905.05 3721.65 906.02 3725.5C906.99 3729.35 907.58 3732.84 907.34 3733.25C906.66 3734.37 874 3734.18 874 3733.05C874 3732.53 875.6 3730.88 877.56 3729.39C884.3 3724.25 884.5 3723.28 884.5 3696.5C884.5 3683.3 884.12 3669.85 883.66 3666.61L882.82 3660.72L870.16 3661.39C863.2 3661.76 855.97 3662.34 854.09 3662.67L850.69 3663.28L851.28 3695.71C851.7 3718.43 852.23 3728.57 853.06 3729.57C853.71 3730.36 855.35 3731 856.71 3731C858.23 3731 859.01 3731.48 858.75 3732.25C858.45 3733.16 854.14 3733.57 842.81 3733.77C829.54 3734.01 827.09 3733.82 825.95 3732.44ZM949.65 3733.01C943.42 3731.89 938.09 3728.32 932.95 3721.82C926.88 3714.14 925.24 3710.25 923.93 3700.42C922.27 3687.93 923.13 3675.43 926.07 3669.34C929.18 3662.9 942.39 3649.71 947.54 3647.91C953.23 3645.92 971.38 3646.14 976.23 3648.25C982.49 3650.99 989.94 3658.78 993.65 3666.47C997.41 3674.29 997.82 3677.5 995.25 3678.84C994.21 3679.39 985.2 3679.42 973 3678.94C961.73 3678.48 949.18 3678.09 945.12 3678.06L937.73 3678L938.23 3684.9C938.87 3693.87 943.19 3703.21 950.06 3710.47C956.1 3716.86 961.96 3720 967.85 3720C974.03 3720 977.93 3717.97 985.97 3710.6C993.86 3703.36 996.65 3702.23 995.54 3706.75C993.71 3714.17 982.84 3727.48 975.51 3731.28C970.96 3733.64 957.99 3734.5 949.65 3733.01ZM1010.5 3733.17C1006.5 3732.26 1006.14 3729.18 1009.55 3725.13C1013.09 3720.92 1013.93 3713.85 1013.97 3687.88C1014 3668.76 1013.86 3667.09 1012 3664.73C1009.85 3662 1009.37 3658.51 1011 3657.5C1011.55 3657.16 1012 3654.88 1012 3652.44L1012 3648L1017.25 3648C1023.77 3648 1029.23 3650.57 1030.01 3654C1030.94 3658.06 1034.34 3657.75 1037.65 3653.31C1039.21 3651.21 1040.94 3649.17 1041.49 3648.77C1042.05 3648.36 1046.01 3648.02 1050.3 3648.02C1059.62 3648 1063.55 3649.67 1065.58 3654.53C1069.29 3663.42 1067.23 3664.46 1047.3 3663.73L1032 3663.17L1032 3692.93L1032 3722.69L1037.08 3726.97C1040.84 3730.14 1041.86 3731.54 1041.03 3732.37C1039.76 3733.65 1015.37 3734.28 1010.5 3733.17ZM1092.7 3733C1087.86 3732.61 1083.43 3731.83 1082.86 3731.26C1081.77 3730.17 1083.86 3725.08 1086.76 3721.76C1088.09 3720.25 1088.22 3715.49 1087.78 3685.52C1087.41 3660.59 1087.58 3650.58 1088.41 3649.46C1089.3 3648.24 1091.16 3647.97 1097.02 3648.2L1104.5 3648.5L1104.7 3659.5C1105.05 3679.31 1107.14 3715.41 1108.16 3719.5C1108.71 3721.7 1110.51 3725.21 1112.16 3727.3C1117.47 3734 1114.84 3734.77 1092.7 3733ZM1156.04 3732.86C1152.5 3732.02 1150.1 3730.31 1144.47 3724.65C1140.56 3720.72 1136.37 3715.41 1135.14 3712.85C1129.27 3700.57 1130.28 3676.37 1137.09 3666.4C1141.29 3660.25 1150.8 3651.99 1157 3649.12C1161.64 3646.97 1163.91 3646.58 1171.57 3646.61C1179.53 3646.64 1181.44 3647.02 1187.08 3649.66C1198.54 3655.02 1203.43 3662.54 1199.48 3668.75C1196.85 3672.89 1193.8 3676 1192.38 3676C1191.68 3676 1189.76 3673.19 1188.12 3669.75C1182 3656.93 1170.25 3650.71 1161.1 3655.45C1154.25 3658.99 1148.39 3669.01 1147.35 3678.93C1145.39 3697.65 1159.81 3720 1173.85 3720C1180.49 3720 1189.4 3713.53 1196.56 3703.52C1198.73 3700.48 1201 3700.7 1201 3703.94C1201 3707 1193.28 3721.4 1189.09 3726.16C1186.5 3729.1 1183.74 3731.06 1181.04 3731.87C1175.33 3733.58 1161.4 3734.13 1156.04 3732.86ZM1307 3733.77C1307 3733.5 1307.41 3731.07 1307.91 3728.39C1308.41 3725.7 1309.13 3698.46 1309.5 3667.86L1310.19 3612.23L1305.84 3610.78C1299.62 3608.71 1299.94 3606.17 1306.71 3603.83C1312.13 3601.96 1325.28 3599.59 1327.04 3600.18C1327.69 3600.4 1328.18 3615.78 1328.43 3643.51C1328.64 3667.15 1329.15 3695.34 1329.56 3706.14L1330.3 3725.77L1333.65 3727.37C1341.09 3730.92 1336.14 3733.21 1319.75 3733.8C1312.74 3734.06 1307 3734.04 1307 3733.77ZM1514.46 3732.59C1512.7 3731.31 1512.65 3730.82 1513.83 3726.84C1516.97 3716.32 1517.2 3711.17 1516.61 3666.5C1516.29 3641.75 1515.72 3619.53 1515.36 3617.13C1514.83 3613.56 1514.09 3612.39 1511.35 3610.78C1506.42 3607.87 1506.93 3605.4 1512.81 3603.65C1522.87 3600.66 1533.16 3598.76 1534.12 3599.72C1534.64 3600.24 1535.51 3615.48 1536.04 3633.58C1537.91 3697.25 1538.99 3721.67 1540.07 3724.78C1540.67 3726.51 1541.99 3728.18 1542.99 3728.5C1545.66 3729.35 1546.23 3731.81 1544.03 3732.98C1541 3734.61 1516.77 3734.29 1514.46 3732.59ZM1684.22 3732.95C1675.67 3731.42 1671.16 3728.58 1668.68 3723.19C1666.58 3718.62 1666.52 3717.22 1666.18 3666.45L1665.82 3614.4L1661.41 3612.06C1658.28 3610.4 1657 3609.1 1657 3607.56C1657 3605.69 1658.45 3604.93 1667.51 3602C1682.26 3597.23 1681.33 3595.62 1682.15 3627.29C1682.51 3641.15 1683.13 3653.92 1683.51 3655.67L1684.22 3658.83L1692.08 3653C1696.4 3649.8 1701.32 3646.87 1703.01 3646.5C1711.56 3644.62 1726.19 3649.96 1732.59 3657.29C1753.18 3680.91 1742.76 3720.8 1713.29 3731.11C1706.56 3733.46 1692.16 3734.37 1684.22 3732.95ZM1785 3733.11C1775.31 3729.97 1766.71 3722.28 1761.98 3712.52C1759.58 3707.58 1758.95 3704.71 1758.43 3696.5C1757.18 3676.4 1760.38 3665.03 1770.11 3655.01C1785.91 3638.73 1816.74 3643.1 1826.74 3663.04C1830.75 3671.02 1831.7 3675.45 1829.88 3677.65C1828.67 3679.1 1825.57 3679.22 1800.76 3678.78L1773 3678.28L1773.01 3683.89C1773.03 3694.49 1776.37 3703.19 1783.29 3710.7C1789.04 3716.94 1794.13 3719.38 1801.54 3719.45C1807.43 3719.5 1807.8 3719.34 1816.95 3712.75C1825.78 3706.39 1830 3704.57 1830 3707.11C1830 3709.79 1823.33 3720.36 1819.28 3724.09C1812.39 3730.45 1805.04 3733.41 1795.5 3733.69C1791.1 3733.82 1786.38 3733.56 1785 3733.11ZM637.5 3731.9C621.53 3730.59 622.87 3731.86 623.52 3718.73C624.46 3699.68 625.04 3695 626.46 3695C628.46 3695 629.52 3696.77 633.51 3706.75C638.66 3719.63 639.53 3720.54 648.68 3722.57C659.04 3724.88 674.52 3725.01 678.5 3722.82C685.56 3718.95 689 3713.1 689 3704.97C689 3697.01 687.1 3695.38 654.64 3675.41C647.57 3671.06 638.61 3664.58 634.73 3661.01C625.7 3652.69 623.02 3647.28 623.01 3637.29C622.99 3624.38 628.69 3614.26 638.93 3609.04C643.93 3606.48 659.69 3604.7 670 3605.51C683.81 3606.61 699.14 3609.21 699.66 3610.55C699.93 3611.26 699.69 3618.93 699.12 3627.59C698.35 3639.41 697.7 3643.73 696.54 3644.88C695.15 3646.28 695 3646.24 694.99 3644.46C694.99 3643.38 694.08 3641.15 692.98 3639.5C691.88 3637.85 690.07 3633.48 688.96 3629.79C685.15 3617.13 681.02 3614.76 662.5 3614.6C649.73 3614.48 646.77 3615.58 641.98 3622.19C639.71 3625.33 639 3627.38 639 3630.88C639 3635.2 639.36 3635.8 645.32 3641.48C649.14 3645.12 656.95 3650.63 665.07 3655.42C685.75 3667.62 694.55 3673.74 700.33 3679.99C707.05 3687.25 709.31 3691.99 709.39 3698.99C709.51 3709.44 700.3 3723.75 690.1 3728.95C682.99 3732.58 660.89 3733.82 637.5 3731.9ZM1222.2 3731.95C1217.93 3730.24 1213.51 3715.72 1214.18 3705.57C1214.47 3701.13 1214.78 3700.56 1217.28 3699.9C1218.81 3699.49 1221.72 3697.69 1223.76 3695.9C1228.58 3691.68 1241.97 3685.43 1250.65 3683.37C1261.14 3680.87 1260.5 3681.8 1260.5 3669.16C1260.5 3658.93 1260.32 3657.87 1258.22 3655.78C1255.13 3652.69 1246.24 3652.59 1240.54 3655.58C1232.42 3659.83 1229.59 3671.21 1234.54 3679.66C1236.37 3682.78 1236.7 3684 1235.71 3684C1233.29 3684 1227.07 3676.87 1226.41 3673.35C1225.71 3669.63 1223.74 3669.02 1220.87 3671.62C1218.02 3674.2 1215.7 3672.66 1216.54 3668.75C1218.05 3661.74 1223.54 3654.52 1230.39 3650.53C1238.82 3645.61 1257.12 3644.72 1266.22 3648.79C1275.2 3652.81 1276.48 3656.85 1278.5 3687.5C1280.66 3720.19 1280.5 3719.3 1285.15 3724.67C1290.95 3731.38 1289.66 3732.29 1273.51 3732.82L1261 3733.24L1261 3710.12L1261 3687L1258.54 3687C1251.14 3687 1237.06 3695 1234.05 3700.91C1231.05 3706.78 1231.22 3715.31 1234.39 3718.48C1237.28 3721.37 1242.37 3722.45 1249.58 3721.7C1252.68 3721.38 1255.23 3721.57 1255.58 3722.13C1256.52 3723.66 1251.22 3730.97 1248.39 3732.04C1245.21 3733.25 1225.27 3733.18 1222.2 3731.95ZM783.71 3722.2C793.44 3715.28 797.24 3689.95 790.7 3675.66C786.51 3666.51 776.82 3661.08 767.01 3662.4C757.1 3663.72 755.11 3664.27 754.37 3665.85C753.28 3668.19 752.73 3711.38 753.71 3718L754.52 3723.5L759.01 3724.16C761.48 3724.53 767.4 3724.7 772.16 3724.54C779 3724.32 781.43 3723.83 783.71 3722.2ZM1615.13 3721.5C1619.64 3718.56 1623.33 3711.4 1625.62 3701.14C1627.07 3694.64 1627.15 3692.32 1626.17 3685.57C1624.81 3676.18 1620.76 3666.95 1615.36 3660.97C1610.89 3656.02 1606.73 3654 1601 3654C1595.35 3654 1591.12 3656.01 1586.87 3660.72C1581.45 3666.73 1580.5 3670.53 1580.53 3686C1580.56 3698.55 1580.76 3699.98 1583.42 3706.33C1586.94 3714.75 1594.04 3722.81 1599 3724.02C1604.12 3725.27 1610.99 3724.19 1615.13 3721.5ZM1709.57 3723.11C1715.7 3720.32 1720.66 3715.44 1722.69 3710.2C1725.16 3703.78 1725.21 3681.08 1722.75 3676.42C1719.25 3669.8 1708.03 3662 1702 3662C1700.3 3662 1695.98 3662.74 1692.39 3663.64C1682.43 3666.14 1682.5 3665.93 1682.5 3692.96C1682.5 3713.1 1682.69 3715.78 1684.32 3718.18C1688.63 3724.53 1701.09 3726.96 1709.57 3723.11ZM1458.95 3696.73C1465.19 3693.57 1467.52 3681.91 1464.56 3668.61C1462.58 3659.74 1459.59 3655.54 1454.19 3654.03C1444.95 3651.47 1437.36 3653.61 1434.53 3659.57C1433 3662.8 1432.81 3665.05 1433.28 3674.04C1433.93 3686.35 1435.28 3690.28 1440.39 3694.77C1443.7 3697.67 1444.69 3698 1450.28 3697.99C1453.7 3697.98 1457.6 3697.41 1458.95 3696.73ZM974.82 3666.63C975.88 3653.72 949.54 3650.3 942.08 3662.37C939.38 3666.74 939.67 3669.17 943.01 3670.12C944.38 3670.51 952.02 3670.75 960 3670.66L974.5 3670.5L974.82 3666.63ZM1807.14 3669.01C1809.14 3668.44 1811.35 3667.28 1812.05 3666.44C1813.97 3664.13 1810.5 3660.11 1803.48 3656.5C1798.73 3654.06 1796.42 3653.5 1791 3653.5C1785.22 3653.5 1783.86 3653.87 1780.59 3656.37C1776.39 3659.57 1772.84 3664.72 1773.25 3667C1773.78 3669.9 1779.9 3671.06 1792 3670.54C1798.33 3670.27 1805.14 3669.58 1807.14 3669.01ZM1093.7 3615.28C1088.64 3614.52 1087.21 3605.7 1091.45 3601.45C1095.94 3596.97 1103.02 3598.51 1104.96 3604.39C1106.35 3608.6 1105.45 3612.57 1102.66 3614.52C1100.58 3615.98 1099.17 3616.1 1093.7 3615.28ZM1215.84 3322.79C1215.61 3322.08 1215.67 3291.35 1215.96 3254.5C1216.26 3217.65 1216.5 3149.25 1216.5 3102.5L1216.5 3017.5L1185.5 3016.84C1155.13 3016.2 1129.16 3014.1 1107.42 3010.53C1096.17 3008.69 1062.35 3001.64 1051.71 2998.92C1038.91 2995.66 1010.54 2986.18 996 2980.32C947.77 2960.87 877.54 2917.77 870.01 2903.02C864.36 2891.94 871.42 2892.85 886 2905.08C902.51 2918.93 939.76 2941.41 974.5 2958.49C1044.89 2993.08 1103.82 3006.1 1191 3006.32C1228.23 3006.42 1248.73 3004.68 1285 2998.37C1357.15 2985.81 1412.39 2968.83 1483 2937.51C1502.95 2928.66 1557.94 2902.46 1559.2 2901.2C1559.66 2900.74 1556.65 2893.32 1552.52 2884.7C1548.38 2876.07 1545 2868.52 1545 2867.9C1545 2866.58 1629.32 2866.99 1630.65 2868.31C1631.8 2869.47 1627.51 2876.71 1610.68 2902C1595.61 2924.64 1585.93 2938.31 1584.2 2939.38C1582.72 2940.29 1580.69 2937.35 1573.46 2923.75C1568.37 2914.17 1566.2 2911 1564.76 2911C1563.7 2911 1548.58 2917.81 1531.16 2926.13C1463.4 2958.52 1426.87 2972.7 1366.5 2990.03C1318.86 3003.72 1293.02 3008.72 1229.38 3016.59C1226.56 3016.94 1223.64 3017.61 1222.88 3018.07C1221.72 3018.79 1221.38 3042.84 1220.73 3166.71C1220.31 3248 1219.63 3316.49 1219.23 3318.92C1218.52 3323.24 1216.65 3325.36 1215.84 3322.79ZM1217.73 2982C1216.79 2963.21 1216.97 2773.28 1217.93 2770C1218.64 2767.59 1218.69 2767.62 1219.51 2771C1220.56 2775.35 1220.31 2976.31 1219.24 2988L1218.45 2996.5L1217.73 2982ZM1191 2760.42C1188.53 2760.21 1178.62 2759.56 1169 2758.97C1032.5 2750.65 896.03 2719.11 774 2667.69C662.47 2620.69 579.78 2570.41 487.5 2493.47C358.97 2386.32 260.33 2262.79 190.06 2121C161.07 2062.49 144.61 2022.27 124.19 1960C98.44 1881.51 81.21 1798.13 73.55 1715C67.67 1651.08 69.37 1548.32 77.66 1466.21L80.32 1439.92L78.16 1437C75.71 1433.69 75.35 1431 77.35 1431C81.42 1431 82.65 1426.99 90.03 1389.5C103.68 1320.24 126.17 1243.11 150.88 1180.83C200.3 1056.28 280.19 930.47 374.93 828.02C443.93 753.39 535.68 679.3 626.5 624.86C656.06 607.13 676.65 595.84 705.5 581.54C792.42 538.44 882.95 507.05 981 486.02C1022.43 477.13 1090.28 467.03 1142 462.04C1169.81 459.36 1178.03 458.22 1179.72 456.82C1180.47 456.19 1182.22 453.29 1183.6 450.37C1186.35 444.57 1191.41 439.64 1203 431.45C1207.12 428.54 1211.85 424.75 1213.5 423.02C1216.44 419.94 1216.51 419.62 1216.85 407.95C1217.14 398.44 1216.85 395.04 1215.46 391.15C1213.98 387.05 1213.9 385.75 1214.93 382.89C1216.82 377.69 1217.51 359.78 1216.06 353.69C1215.03 349.39 1215.09 346.68 1216.41 337.87C1218.51 323.82 1218.5 315.66 1216.38 313.9C1214.66 312.47 1214.76 308.9 1216.94 295C1218.46 285.33 1218.23 273.88 1216.47 271.56C1215.52 270.3 1215 267.3 1215.01 263.06C1215.03 254.11 1215.74 251.82 1218.38 252.2C1220.34 252.48 1220.56 253.35 1221.31 264C1221.76 270.32 1221.79 294.85 1221.38 318.5C1220.97 342.15 1220.67 366.23 1220.72 372C1220.76 377.77 1220.83 390.82 1220.87 401C1220.92 414.07 1221.32 420.22 1222.23 421.96C1222.94 423.31 1228.24 427.32 1234.01 430.86C1241.92 435.72 1247.04 439.88 1254.82 447.77C1262.8 455.88 1265.97 458.43 1268.84 459.07C1270.87 459.53 1283.55 460.83 1297.02 461.96C1328.05 464.57 1363.52 468.39 1386 471.57C1479.91 484.81 1578.93 512.55 1675.33 552.61C1707.1 565.81 1761.59 592.81 1793.61 611.21C1856.05 647.1 1910.87 685.26 1966.63 731.65C2033.21 787.04 2097.68 855.65 2152.09 929C2222.89 1024.45 2277.45 1130.12 2318.63 1251.5C2335.64 1301.66 2351.89 1366.88 2359.97 1417.5C2362.15 1431.13 2363.08 1433 2367.69 1433C2370.92 1433 2370.57 1434.52 2367 1436C2363.28 1437.54 2363.29 1436.89 2366.53 1463.62C2369.05 1484.45 2371.1 1505.45 2373.09 1531C2374.79 1552.77 2375.44 1640.55 2374.07 1663C2370.82 1716.22 2362.51 1786 2354.38 1828.5C2344.98 1877.6 2325.75 1946.06 2305.36 2003C2299.34 2019.81 2286.09 2052.1 2277.3 2071.4C2266.43 2095.26 2233.97 2159.81 2224.95 2175.5C2187.8 2240.1 2138.81 2308.06 2089.06 2363.99C2059.33 2397.42 2008.07 2447.99 1973 2478.5C1877.35 2561.71 1763.42 2630.82 1646 2676.85C1529.88 2722.36 1415.64 2747.93 1281 2758.53C1262.78 2759.97 1201.04 2761.26 1191 2760.42ZM1215.8 2739.8C1216.73 2738.87 1217.03 2685.01 1217.12 2504.05C1217.18 2375.05 1217.52 2263.43 1217.87 2256L1218.5 2242.5L1219.25 2262.41C1219.66 2273.36 1220.06 2354.59 1220.13 2442.91C1220.26 2619.36 1221.1 2738.44 1222.22 2739.55C1225.27 2742.6 1333.66 2734.85 1384.5 2727.94C1546.66 2705.92 1704.83 2645.43 1848.5 2550.48C1915.55 2506.17 1968.21 2462.19 2032.64 2396.69C2099.52 2328.71 2147.22 2267.24 2194.49 2188.1C2256.08 2084.98 2297.72 1986.06 2322.95 1882.95C2332.53 1843.75 2344.66 1779.75 2349.45 1743C2350.28 1736.67 2351.63 1726.33 2352.45 1720C2355.21 1698.7 2355.96 1684.66 2356.59 1641.99C2357.3 1594.07 2356.02 1549.93 2353.04 1520C2348.13 1470.6 2345.44 1448.3 2343.9 1444.25C2343.43 1443.01 2342.53 1442 2341.9 1442C2341.26 1442 2333.95 1444.52 2325.65 1447.6C2296.57 1458.38 2233.98 1479.93 2175.5 1499.29C2060.18 1537.46 2058.15 1538.04 1957 1561.51C1924.83 1568.97 1895.22 1575.99 1891.22 1577.1C1883.02 1579.38 1877.67 1579.31 1877.22 1576.93C1876.98 1575.66 1881.68 1574.28 1902.21 1569.59C1960.44 1556.28 2034.52 1538.74 2048.5 1534.95C2101.52 1520.58 2336.04 1441.46 2341.17 1436.21C2342.99 1434.35 2343.05 1434.86 2337.03 1402.14C2310.49 1257.91 2258.42 1126.82 2177.51 1000.5C2075.98 841.99 1938.24 713.13 1770.09 619.35C1747.89 606.96 1702.52 584.03 1681.5 574.56C1568.96 523.87 1420.24 487.7 1293 480.07C1283.38 479.49 1272.02 478.76 1267.77 478.44L1260.03 477.87L1250.76 486.68C1245.65 491.53 1237.37 498.3 1232.36 501.73C1227.34 505.15 1222.86 508.75 1222.41 509.73C1221.96 510.7 1221.29 609.15 1220.93 728.5C1220.29 934.52 1219.89 966.33 1217.91 967.56C1215.78 968.87 1215.06 955.42 1216.49 941C1216.84 937.42 1216.71 930.38 1216.2 925.34C1215.65 919.91 1215.6 901.17 1216.07 879.34C1217.45 815.55 1217.84 667.48 1216.78 607.83C1216.21 576.3 1215.83 548.92 1215.92 547C1216.01 545.08 1216.31 535.56 1216.59 525.86L1217.09 508.22L1212.79 506.14C1210.43 504.99 1202.25 498.35 1194.61 491.38L1180.72 478.7L1163.61 479.32C1134.71 480.36 1085.17 485.45 1044 491.61C951.34 505.48 856.32 532.71 771.5 569.71C596.91 645.87 443.16 764.86 327.81 913.09C223.12 1047.62 151.23 1199.78 115 1363.5C106.06 1403.86 98.17 1447.7 96.06 1468.6C90.04 1528.43 88.99 1544.99 88.33 1590C87.57 1642.51 89.84 1686.93 96.05 1741.5C104.42 1814.97 122.2 1893.11 148.16 1970.5C166.39 2024.85 181.03 2060.53 204.59 2108C264.01 2227.77 349.9 2342.31 451.47 2437.26C519.22 2500.6 599.23 2557.93 684.5 2604.24C726.89 2627.26 792.49 2656.9 834.5 2672C917.82 2701.96 992.65 2720.11 1075.5 2730.45C1136.72 2738.09 1212.46 2743.14 1215.8 2739.8ZM1216.64 2227.25C1215.58 2220.8 1215.9 2204.18 1217.11 2203.43C1219.14 2202.18 1219.97 2205.4 1219.97 2214.5C1219.98 2224.26 1219.17 2231 1218 2231C1217.59 2231 1216.98 2229.31 1216.64 2227.25ZM1217.52 2190.24C1217.14 2189.28 1216.57 2183.21 1216.27 2176.75C1215.79 2166.67 1215.92 2165 1217.22 2165C1219.18 2165 1219.97 2169.82 1219.99 2181.69C1220 2190.49 1218.99 2193.97 1217.52 2190.24ZM1216.65 2147.82C1215.55 2143.73 1215.92 2126.17 1217.11 2125.43C1219.29 2124.09 1220.06 2127.64 1219.78 2137.7C1219.5 2147.79 1217.97 2152.75 1216.65 2147.82ZM1217.8 2082C1216.9 2048.06 1216.96 1841.27 1217.87 1834L1218.55 1828.5L1219.31 1835.3C1220.18 1843.1 1220 2050.82 1219.1 2085.5L1218.5 2108.5L1217.8 2082ZM1282.38 1857.56C1281.99 1856.52 1282.88 1854.3 1284.74 1851.69C1292.08 1841.43 1296.79 1828.31 1305.99 1792.5C1313.98 1761.43 1318.3 1742.22 1317.66 1740.56C1317.37 1739.81 1315.79 1738.89 1314.14 1738.53C1310.19 1737.66 1308.06 1735.23 1310.06 1733.89C1310.93 1733.31 1323.45 1733.06 1341.5 1733.26C1370.06 1733.58 1371.76 1733.7 1377 1735.88C1389.62 1741.11 1394.37 1748.5 1394.43 1763C1394.46 1770.07 1394.03 1772.42 1391.9 1777C1384.92 1791.99 1368.55 1800.32 1340.68 1803.05C1324.98 1804.59 1325.08 1804.56 1323.38 1808.63C1322.57 1810.58 1320.14 1820.35 1317.98 1830.33L1314.07 1848.48L1317.24 1851.75C1320.24 1854.84 1320.32 1855.11 1318.69 1856.74C1317.24 1858.19 1314.37 1858.51 1300 1858.84C1284.84 1859.19 1282.96 1859.05 1282.38 1857.56ZM1216.35 1820.76C1215.11 1818.76 1215.6 1799 1216.92 1797.68C1218.81 1795.79 1219.75 1798.46 1220.49 1807.91C1220.9 1813.21 1220.75 1817.55 1220.1 1819.25C1218.97 1822.2 1217.59 1822.76 1216.35 1820.76ZM1346.17 1792.35C1357.68 1788.68 1367.44 1783 1371.13 1777.82C1373.61 1774.33 1375.71 1758.61 1374.54 1752.34C1373.62 1747.45 1369.09 1743.37 1362.44 1741.44C1355.51 1739.43 1345.31 1739.25 1343.52 1741.11C1340.71 1744.04 1329 1786.43 1329 1793.67C1329 1796.83 1329.12 1796.93 1332.25 1796.35C1334.04 1796.02 1340.3 1794.22 1346.17 1792.35ZM1215.62 1777.88C1214.81 1773.82 1214.82 1764.13 1215.64 1760.04C1216.35 1756.49 1218.71 1754.93 1220.09 1757.1C1221.46 1759.27 1221.22 1778.38 1219.8 1779.8C1217.77 1781.83 1216.28 1781.14 1215.62 1777.88ZM1217.11 1739.31C1216.56 1737.22 1215.98 1731.9 1215.81 1727.5C1215.51 1719.64 1215.54 1719.5 1217.89 1719.5C1221.81 1719.5 1222.41 1721.74 1221.41 1732.54C1220.42 1743.18 1218.8 1745.74 1217.11 1739.31ZM1217.63 1704.49C1217.28 1703.58 1217 1700.87 1217 1698.47C1217 1692.34 1215.46 1689.63 1210.66 1687.28C1205.31 1684.67 1189.9 1671.19 1187.11 1666.68C1183.03 1660.08 1182.3 1636.91 1185.96 1630.08C1187.57 1627.07 1195.96 1620.12 1203.14 1615.85C1211.45 1610.91 1212.18 1610.03 1214.83 1601.73C1216.48 1596.57 1217 1592.47 1217 1584.54C1217 1578.82 1216.63 1573.09 1216.17 1571.82C1215.18 1569.05 1216.27 1431.4 1217.29 1430.38C1217.68 1429.99 1218.34 1430 1218.75 1430.42C1219.16 1430.83 1219.74 1470.39 1220.04 1518.33C1220.43 1580.5 1220.91 1606.09 1221.72 1607.54C1222.38 1608.73 1225.12 1610.3 1228.27 1611.3C1234.36 1613.22 1249.05 1621.72 1253.28 1625.77C1258.12 1630.41 1261.29 1638.3 1261.79 1646.99C1262.63 1661.41 1258.3 1668.62 1242.67 1678.82C1238.63 1681.47 1232.66 1684.44 1229.41 1685.44C1226.16 1686.44 1223.06 1687.66 1222.52 1688.15C1221.99 1688.65 1221.27 1692.43 1220.93 1696.57C1220.31 1704.17 1218.85 1707.67 1217.63 1704.49ZM1168 1652.32C1168 1651.31 1167.1 1649.92 1166 1649.23C1164.9 1648.55 1164 1647.11 1164 1646.05C1164 1640.9 1158.46 1642.7 1155.8 1648.72C1154.02 1652.75 1153.64 1653.07 1152.29 1651.72C1151.46 1650.89 1150.54 1648.13 1150.26 1645.6L1149.74 1641L1159.89 1641C1170.01 1641 1170.05 1641.01 1171.08 1643.7C1171.69 1645.32 1171.77 1647.8 1171.28 1649.87C1170.4 1653.59 1168 1655.38 1168 1652.32ZM1122.25 1651.47C1120.54 1650.26 1120.19 1649.29 1120.66 1646.97C1121.42 1643.17 1119.6 1643.05 1115.86 1646.63C1112.27 1650.07 1109.75 1649.25 1110.19 1644.76L1110.5 1641.5L1120.3 1641.21L1130.1 1640.93L1129.44 1644.71C1128.75 1648.63 1126.52 1653 1125.2 1653C1124.78 1653 1123.46 1652.31 1122.25 1651.47ZM1285.57 1650.86C1285.32 1650.11 1284.98 1648.64 1284.81 1647.58C1284.32 1644.57 1282.65 1644.74 1280.8 1648.01C1278.63 1651.81 1277.57 1651.78 1275.94 1647.87C1274.79 1645.08 1274.85 1644.58 1276.51 1643.37C1278.58 1641.86 1286.73 1641.54 1288.86 1642.89C1289.78 1643.48 1290 1644.72 1289.54 1646.81C1288.74 1650.46 1286.27 1652.98 1285.57 1650.86ZM1079.93 1649.42C1078.87 1648.14 1078.86 1647.45 1079.88 1645.82C1081.95 1642.5 1080.3 1642.53 1076.5 1645.87C1074.54 1647.59 1072.59 1649 1072.17 1649C1070.53 1649 1069 1646.47 1069 1643.76L1069 1640.93L1078.75 1641.21C1087.72 1641.48 1088.52 1641.66 1088.79 1643.56C1089.17 1646.16 1085.43 1651 1083.05 1651C1082.06 1651 1080.65 1650.29 1079.93 1649.42ZM1317.95 1648.37C1317.37 1646.83 1317.15 1644.55 1317.46 1643.29C1317.98 1641.23 1318.63 1641 1323.83 1641C1331.09 1641 1333.27 1642.44 1332.83 1646.97C1332.4 1651.36 1330.51 1651.91 1329.17 1648.05C1327.81 1644.15 1324.61 1643.97 1322.8 1647.68C1320.99 1651.4 1319.2 1651.66 1317.95 1648.37ZM1039.67 1649.33C1039.3 1648.97 1039 1647.39 1039 1645.83C1039 1642.16 1036.67 1642.11 1033.57 1645.72C1031.55 1648.06 1031 1648.25 1029.61 1647.1C1027.53 1645.36 1027.51 1640.4 1029.58 1639.61C1032.05 1638.66 1041.59 1638.89 1044.43 1639.98C1047.22 1641.04 1047.88 1644.49 1045.96 1648.07C1044.97 1649.93 1041.05 1650.71 1039.67 1649.33ZM1371.37 1646.78C1370.1 1642.34 1367.06 1641.96 1364.8 1645.98C1363.48 1648.31 1362.39 1649 1360.05 1649C1357.11 1649 1357 1648.84 1357 1644.61C1357 1641.98 1357.5 1640.05 1358.25 1639.81C1358.94 1639.58 1362.83 1639.65 1366.9 1639.95C1375.31 1640.58 1377.1 1641.97 1375.46 1646.62C1374.08 1650.51 1372.45 1650.58 1371.37 1646.78ZM1449.36 1648.49C1449.05 1647.69 1449.29 1645.6 1449.9 1643.86C1450.5 1642.12 1451 1639.39 1451 1637.78C1451 1635.53 1451.41 1634.93 1452.75 1635.19C1455.04 1635.62 1456.7 1642.12 1455.43 1645.67C1454.31 1648.82 1450.21 1650.72 1449.36 1648.49ZM1395.61 1647.42C1394.63 1644.87 1394.91 1641.49 1396.2 1640.2C1397.85 1638.55 1404.5 1638.69 1405.92 1640.4C1407.45 1642.25 1406.28 1646.78 1403.95 1648.03C1401.1 1649.55 1396.29 1649.2 1395.61 1647.42ZM1411.67 1648.33C1410.5 1647.17 1410.95 1641.45 1412.36 1639.53C1415.24 1635.58 1418.94 1641.39 1416.92 1646.7C1416.1 1648.87 1413.13 1649.79 1411.67 1648.33ZM1438.41 1647.85C1437.46 1646.32 1437.49 1637.63 1438.44 1636.09C1438.81 1635.49 1440.2 1635 1441.51 1635C1443.43 1635 1444.03 1635.66 1444.53 1638.31C1445.45 1643.2 1443.83 1648.43 1441.29 1648.81C1440.13 1648.98 1438.84 1648.54 1438.41 1647.85ZM995 1646.38C995 1645.49 996.35 1643.23 998 1641.35C999.65 1639.47 1001 1637.5 1001 1636.97C1001 1635.38 1003.74 1635.87 1004.39 1637.58C1005.55 1640.6 1004.99 1644.01 1003 1646C1000.52 1648.48 995 1648.74 995 1646.38ZM1478.49 1643.82C1478.15 1641.99 1478.01 1638.25 1478.19 1635.5C1478.46 1631.14 1478.8 1630.46 1480.82 1630.17C1485.54 1629.5 1486.26 1630.57 1484.03 1634.94C1482.91 1637.13 1482 1640.23 1482 1641.84C1482 1643.44 1481.35 1645.29 1480.56 1645.95C1479.37 1646.94 1479.01 1646.58 1478.49 1643.82ZM988.67 1645.33C987.47 1644.14 987.97 1637.43 989.39 1635.48C990.61 1633.81 991 1633.75 992.49 1634.99C993.73 1636.02 994.05 1637.33 993.65 1639.79C992.88 1644.54 990.51 1647.18 988.67 1645.33ZM1488.38 1643.55C1488.07 1642.75 1488.54 1641.07 1489.41 1639.82C1490.28 1638.58 1491 1635.6 1491 1633.2C1491 1629.6 1491.3 1628.91 1492.75 1629.19C1494.16 1629.45 1494.56 1630.76 1494.8 1635.85C1494.98 1639.65 1494.63 1642.74 1493.93 1643.59C1492.4 1645.43 1489.09 1645.4 1488.38 1643.55ZM957.91 1640.09C956.45 1635.2 957.39 1630.73 959.79 1631.21C961.15 1631.49 961.43 1632.44 961.17 1635.89C960.78 1641.07 962.92 1641.25 964.38 1636.17C965.58 1631.98 967.36 1632.05 966.48 1636.25C964.76 1644.52 959.89 1646.7 957.91 1640.09ZM946 1638.16C946 1632.37 946.79 1631 950.14 1631C952.87 1631 952.99 1631.15 951.86 1633.25C951.2 1634.49 950.38 1636.85 950.04 1638.49C949.69 1640.19 948.68 1641.63 947.71 1641.82C946.33 1642.08 946 1641.38 946 1638.16ZM1517.05 1640.09C1516.47 1639.01 1516 1635.87 1516 1633.11C1516 1628.2 1516.07 1628.08 1519.37 1627.46C1525.18 1626.37 1527.55 1627.14 1527.16 1630C1526.7 1633.45 1525.4 1634.57 1523.59 1633.07C1521.33 1631.2 1520 1632.66 1520 1637C1520 1641.47 1518.58 1642.95 1517.05 1640.09ZM1532.64 1637.79C1532.3 1636.53 1532.02 1633.33 1532.01 1630.68C1532 1626.62 1532.28 1625.91 1533.75 1626.19C1536.04 1626.62 1537.7 1633.12 1536.43 1636.7C1535.21 1640.15 1533.41 1640.67 1532.64 1637.79ZM912.36 1634.36C912.71 1631.81 913 1628.88 913 1627.86C913 1625.79 915.11 1625.45 918.09 1627.05C919.88 1628.01 919.93 1628.34 918.64 1630.8C917.86 1632.28 916.73 1634.74 916.13 1636.25C915.53 1637.76 914.3 1639 913.39 1639C911.99 1639 911.83 1638.27 912.36 1634.36ZM923.63 1637.47C922.63 1634.86 922.9 1631.18 924.15 1630.41C925.78 1629.4 928.14 1633.02 927.79 1635.99C927.46 1638.86 924.55 1639.89 923.63 1637.47ZM873.63 1634.92C871.31 1633.1 870.94 1632.14 871.2 1628.65C871.43 1625.54 871.97 1624.43 873.38 1624.16C875.95 1623.67 877.07 1625.82 876.42 1630C875.91 1633.3 875.96 1633.39 877.44 1631.56C878.3 1630.49 879 1628.8 879 1627.81C879 1625.04 881.88 1625.66 882.61 1628.59C883.06 1630.38 882.65 1631.99 881.27 1633.84C878.69 1637.31 876.97 1637.55 873.63 1634.92ZM1563.45 1633.39C1563.97 1630.65 1563.82 1629.89 1562.82 1630.22C1562.09 1630.46 1561.35 1631.66 1561.17 1632.89C1560.78 1635.59 1558.14 1636.83 1556.91 1634.9C1556.43 1634.13 1556.02 1631.81 1556.02 1629.75L1556 1626L1561.68 1626C1564.8 1626 1568.82 1625.47 1570.61 1624.82C1573.19 1623.89 1574.2 1623.92 1575.43 1624.95C1577.62 1626.76 1577.42 1632.31 1575.09 1634.42C1573.27 1636.06 1573.15 1636.05 1572.55 1634.16C1572.2 1633.06 1572.23 1630.95 1572.6 1629.45C1573.11 1627.43 1572.94 1626.85 1571.95 1627.18C1571.21 1627.43 1570.27 1628.89 1569.86 1630.42C1568.96 1633.8 1566.22 1637 1564.23 1637C1563.1 1637 1562.93 1636.19 1563.45 1633.39ZM904.62 1635.19C903.66 1633.64 905.14 1627.88 906.38 1628.32C907 1628.54 907.41 1629.98 907.29 1631.52C907.05 1634.68 905.56 1636.72 904.62 1635.19ZM893 1632.56C893 1631.15 893.45 1630 894 1630C894.55 1630 895 1630.87 895 1631.94C895 1633.01 894.55 1634.16 894 1634.5C893.43 1634.85 893 1634.01 893 1632.56ZM1597 1625.64C1597 1619.71 1597.22 1618.9 1598.75 1619.21C1600.18 1619.51 1600.45 1620.48 1600.23 1624.52C1600.09 1627.24 1599.3 1630.13 1598.48 1630.94C1597.17 1632.26 1597 1631.64 1597 1625.64ZM837.2 1629.8C835.35 1627.95 835.67 1621.06 837.64 1620.31C839.73 1619.51 842 1622.48 842 1625.99C842 1628.39 840.44 1631 839 1631C838.67 1631 837.86 1630.46 837.2 1629.8ZM859.61 1629.42C858.37 1626.2 858.95 1624 861.03 1624C863.59 1624 864.49 1626.21 863.04 1628.92C861.71 1631.4 860.44 1631.59 859.61 1629.42ZM1615.13 1629.25C1613.43 1626.07 1613.65 1618 1615.44 1618C1617.28 1618 1617.63 1618.63 1618.43 1623.5C1618.88 1626.26 1618.65 1628.1 1617.68 1629.43C1616.29 1631.32 1616.24 1631.32 1615.13 1629.25ZM1604.64 1628.5C1604.32 1627.67 1604.24 1626.44 1604.45 1625.75C1604.66 1625.06 1605.1 1623.26 1605.44 1621.75C1605.85 1619.88 1606.67 1619 1608.02 1619C1610.64 1619 1610.63 1622.45 1608.01 1626.75C1605.77 1630.43 1605.44 1630.6 1604.64 1628.5ZM828.02 1623.81C828.03 1618.31 829.25 1616.13 831.34 1617.87C832.63 1618.94 832.64 1619.46 831.42 1621.8C830.65 1623.29 830.01 1625.04 830.01 1625.69C830 1626.35 829.55 1627.16 829 1627.5C828.39 1627.88 828.01 1626.43 828.02 1623.81ZM1637.65 1625.83C1636.85 1622.84 1636.83 1617.61 1637.61 1615.58C1637.94 1614.71 1639.07 1614 1640.12 1614C1641.84 1614 1641.96 1614.54 1641.39 1619.75C1640.66 1626.38 1638.67 1629.62 1637.65 1625.83ZM796.69 1624.25C796.45 1623.84 795.94 1621.36 795.57 1618.75C794.88 1614 794.88 1614 797.82 1614C799.43 1614 801.31 1614.67 801.99 1615.49C803.3 1617.06 802.65 1621.51 800.8 1623.74C799.64 1625.13 797.36 1625.42 796.69 1624.25ZM819.69 1624.35C819.31 1623.98 819 1622.62 819 1621.33C819 1619.64 819.57 1619 821.07 1619C822.72 1619 823.07 1619.54 822.82 1621.67C822.5 1624.35 820.98 1625.65 819.69 1624.35ZM1655.03 1621.25C1655.01 1618.15 1654.59 1617 1653.5 1617C1652.67 1617 1652 1617.59 1652 1618.31C1652 1619.03 1651.33 1620.49 1650.52 1621.56C1649.24 1623.24 1648.9 1623.3 1648.03 1622C1647.48 1621.17 1647.02 1619.04 1647.02 1617.25C1647 1614.02 1647.04 1614 1651.89 1614C1655.43 1614 1656.95 1614.44 1657.39 1615.58C1658.42 1618.26 1658.07 1621.53 1656.53 1623.56C1655.17 1625.36 1655.06 1625.2 1655.03 1621.25ZM781.49 1619.82C780.15 1616.36 781.36 1613.52 784.31 1613.18C787.77 1612.78 790 1614.5 790 1617.56C790 1620.33 788.45 1621.6 787.64 1619.49C786.87 1617.49 785.01 1617.61 783.43 1619.75C782.24 1621.37 782.1 1621.38 781.49 1619.82ZM754.18 1619.15C753.1 1618.45 753.17 1617.36 754.55 1613.15C755.47 1610.32 756.84 1608 757.57 1608C759.5 1608 761.66 1615.72 760.33 1617.84C759.14 1619.75 756.1 1620.4 754.18 1619.15ZM1678.44 1618.71C1677.37 1615.93 1678.4 1610.5 1680 1610.5C1682.14 1610.5 1682.59 1617.27 1680.56 1618.95C1679.3 1620 1678.92 1619.96 1678.44 1618.71ZM1689 1613C1689 1609.7 1689.35 1607 1689.78 1607C1690.21 1607 1691.59 1607.73 1692.86 1608.61C1694.66 1609.87 1695.02 1610.8 1694.5 1612.86C1693.81 1615.65 1691.26 1619 1689.85 1619C1689.38 1619 1689 1616.3 1689 1613ZM744.66 1616.32C743.56 1615.23 743.92 1606.17 745.1 1605.44C747.23 1604.12 749.3 1607.6 748.6 1611.31C747.94 1614.86 745.85 1617.52 744.66 1616.32ZM1670 1614.5C1670 1613.67 1670.73 1613 1671.62 1613C1672.95 1613 1673.02 1613.27 1672 1614.5C1671.32 1615.33 1670.59 1616 1670.38 1616C1670.17 1616 1670 1615.33 1670 1614.5ZM1703.62 1613.46C1703.28 1612.57 1703 1610.52 1703 1608.92C1703 1604.97 1706.65 1604.76 1707.63 1608.65C1708.65 1612.74 1705.02 1617.1 1703.62 1613.46ZM720.65 1610.25C720.32 1608.19 719.75 1605.26 719.4 1603.75C718.87 1601.43 719.09 1601 720.83 1601C723.21 1601 726 1604.51 726 1607.5C726 1609.71 723.41 1614 722.07 1614C721.63 1614 720.99 1612.31 720.65 1610.25ZM1718.4 1611.6C1718.1 1610.82 1718 1608.69 1718.18 1606.85C1718.43 1604.27 1718.96 1603.5 1720.5 1603.5C1722.03 1603.5 1722.57 1604.27 1722.82 1606.82C1723.27 1611.48 1719.79 1615.23 1718.4 1611.6ZM714.63 1609.49C714.28 1608.58 714 1606.26 714 1604.33C714 1599.52 716.4 1600.48 716.82 1605.46C717.16 1609.57 715.7 1612.26 714.63 1609.49ZM704.04 1607.54C703.39 1606.77 703.01 1604.64 703.18 1602.82C703.45 1600.04 703.95 1599.45 706.26 1599.18C708.05 1598.98 709.22 1599.41 709.61 1600.44C711.24 1604.67 706.58 1610.61 704.04 1607.54ZM1727.75 1606.92C1726.79 1606.36 1726 1604.84 1726 1603.54C1726 1601.57 1726.65 1601.07 1729.96 1600.51C1736.96 1599.32 1739.49 1601.34 1736.96 1606.07C1735.82 1608.21 1730.76 1608.68 1727.75 1606.92ZM672.06 1604.01C663.07 1601.04 661.38 1599.31 662.62 1594.36C663.61 1590.42 667.12 1591.65 669.42 1596.75C670.93 1600.1 672.08 1601.21 674.83 1601.96C679.34 1603.21 680.11 1602.62 678.82 1598.93C677.52 1595.18 678.25 1594.35 681.77 1595.58C685.19 1596.78 686.11 1602.11 683.42 1605.09C681.37 1607.35 682.47 1607.46 672.06 1604.01ZM1766 1600.71C1766 1595.96 1767.85 1593.34 1770.49 1594.36C1772.4 1595.09 1772.34 1596.63 1770.2 1600.93C1767.63 1606.1 1766 1606.01 1766 1600.71ZM1758.74 1603.4C1758.33 1603 1758 1601.36 1758 1599.76C1758 1597.35 1758.37 1596.92 1760.17 1597.18C1761.37 1597.36 1762.51 1597.99 1762.7 1598.6C1763.19 1600.07 1759.67 1604.33 1758.74 1603.4ZM1746 1601C1746 1599.53 1746.67 1599 1748.54 1599C1750.76 1599 1750.94 1599.24 1750 1601C1749.41 1602.1 1748.27 1603 1747.46 1603C1746.66 1603 1746 1602.1 1746 1601ZM1776.46 1601.76C1776.13 1600.89 1776 1598.89 1776.18 1597.33C1776.41 1595.27 1777.05 1594.5 1778.5 1594.5C1780.09 1594.5 1780.46 1595.1 1780.29 1597.43C1780.17 1599.04 1779.4 1601.03 1778.57 1601.85C1777.24 1603.19 1777.01 1603.18 1776.46 1601.76ZM1785.23 1596.72C1785.38 1595.19 1785.94 1593.92 1786.47 1593.89C1788.11 1593.82 1788.11 1595.47 1786.49 1597.54C1785.01 1599.42 1784.97 1599.39 1785.23 1596.72ZM635 1595.29C624.12 1591.78 620 1589.87 620 1588.35C620 1586.53 625.94 1586.59 635 1588.5C643.55 1590.3 646 1591.49 646 1593.84C646 1595.58 644.12 1598.14 643.05 1597.86C642.75 1597.78 639.12 1596.62 635 1595.29ZM1798.68 1596.35C1797.49 1595.15 1797.95 1591.29 1799.44 1590.05C1800.98 1588.77 1812.19 1586.62 1823.49 1585.44C1829.79 1584.79 1830.35 1584.87 1829.17 1586.29C1828.45 1587.16 1826.46 1588.18 1824.74 1588.56C1823.03 1588.93 1820.78 1590.2 1819.75 1591.37C1818.43 1592.86 1817.72 1593.13 1817.35 1592.25C1816.61 1590.47 1815.3 1590.7 1813 1593C1811.56 1594.44 1809.67 1595 1806.2 1595C1803.56 1595 1800.94 1595.46 1800.38 1596.02C1799.82 1596.58 1799.06 1596.73 1798.68 1596.35ZM590.5 1585.49C585.55 1584.16 571.83 1580.99 560 1578.45C541.63 1574.51 488.11 1562.18 435 1549.66C416.96 1545.41 384.75 1536.66 363 1530.12C329.87 1520.14 161.95 1464.18 128 1451.79C109.72 1445.12 106 1443.45 106 1441.89C106 1440.27 110.11 1441.44 140 1451.55C370.25 1529.47 379.83 1532.42 473 1553.98C494.18 1558.88 525 1566.04 541.5 1569.87C558 1573.71 578.92 1578.27 588 1580C597.08 1581.73 604.91 1583.54 605.41 1584.03C606.73 1585.32 604.15 1588.01 601.63 1587.95C600.46 1587.93 595.45 1586.82 590.5 1585.49ZM1836.2 1586.8C1832.91 1583.51 1835.31 1582.56 1854.79 1579.43C1859.99 1578.59 1864.52 1578.19 1864.87 1578.54C1865.22 1578.88 1864.03 1580.48 1862.23 1582.08C1859.5 1584.53 1858.67 1584.81 1857.1 1583.83C1855.62 1582.91 1854.49 1583.01 1851.71 1584.33C1849.78 1585.25 1847.28 1586 1846.16 1586C1845.04 1586 1843.84 1586.45 1843.5 1587C1842.64 1588.39 1837.65 1588.25 1836.2 1586.8ZM1868 1578.5C1868 1577.64 1868.9 1577 1870.12 1577C1871.9 1577 1872.04 1577.25 1871 1578.5C1870.32 1579.33 1869.36 1580 1868.88 1580C1868.39 1580 1868 1579.33 1868 1578.5ZM1217.47 1416.81C1217.03 1414.44 1216.63 1407.78 1216.58 1402.02C1216.51 1392.95 1216.73 1391.49 1218.18 1391.21C1220.5 1390.76 1221.44 1397.63 1220.71 1409.79C1220.07 1420.46 1218.71 1423.42 1217.47 1416.81ZM1217.89 1377.31C1216.38 1373.45 1215.61 1353.89 1216.9 1352.01C1218.96 1348.99 1219.98 1352.72 1220.63 1365.64C1221.11 1375.03 1220.97 1378.9 1220.14 1379.41C1219.44 1379.84 1218.57 1379.02 1217.89 1377.31ZM1217.81 1330.82C1217.43 1329.89 1216.81 1271.17 1216.44 1200.32C1215.77 1074.15 1215.72 1071.46 1213.79 1069.34C1212.71 1068.16 1209.21 1065.79 1206.02 1064.09C1189.11 1055.08 1182.98 1047.33 1182.21 1034.01C1181.65 1024.38 1183.34 1016.21 1186.92 1011.27C1190.11 1006.87 1200.92 998.58 1208.78 994.5C1214.24 991.67 1216 989.61 1216 986.07C1216 982.83 1218.96 983.57 1219.65 986.98C1220.41 990.8 1221.02 991.24 1230 994.44C1245.32 999.91 1257.64 1010.51 1260.63 1020.81C1262.68 1027.84 1261.96 1038.39 1259.02 1044.45C1256.35 1049.97 1246.86 1059.02 1240.2 1062.4C1237.35 1063.84 1232.31 1065.4 1229.01 1065.85C1225.7 1066.3 1222.77 1066.89 1222.5 1067.17C1222.23 1067.44 1221.52 1113.98 1220.93 1170.58C1219.73 1286.61 1218.82 1333.28 1217.81 1330.82ZM1306 1110.42C1306 1109.51 1307.42 1107.14 1309.16 1105.16C1310.9 1103.18 1313.55 1098.85 1315.04 1095.53C1320.42 1083.58 1339.28 1015.54 1341.74 999.23C1342.77 992.37 1342.22 990.8 1338.06 988.71C1333.37 986.35 1334.68 985.32 1343.22 984.66C1354.98 983.74 1379.86 983.9 1390.78 984.95C1401.32 985.97 1406.83 988.19 1412.51 993.71C1417.8 998.85 1420.44 1005.15 1420.37 1012.5C1420.29 1020.51 1417.28 1026.6 1410.11 1033.24C1404.39 1038.53 1389.5 1047 1385.92 1047C1384.67 1047 1384 1047.69 1384 1048.98C1384 1054.06 1399.31 1089.01 1406.69 1100.76C1409.66 1105.48 1411.85 1109.94 1411.57 1110.67C1411.02 1112.11 1401.5 1112.33 1390.61 1111.14L1384.71 1110.5L1380.37 1098.5C1377.97 1091.9 1373.48 1079.3 1370.37 1070.5C1362.09 1047.01 1360.96 1045.22 1355.39 1046.62C1352 1047.47 1350.93 1049.93 1345.09 1070.48C1339.66 1089.57 1337.44 1100.1 1338.35 1102.46C1338.65 1103.26 1340.74 1104.85 1342.99 1105.99C1350.38 1109.77 1347.38 1110.54 1321.75 1111.5C1307.51 1112.02 1306 1111.92 1306 1110.42ZM1380.97 1035.93C1387.57 1032.93 1391.74 1029.4 1394.24 1024.69C1396.13 1021.13 1396.47 1018.91 1396.48 1009.85C1396.5 1000.73 1396.22 998.91 1394.57 997.08C1392.1 994.35 1384.08 992.03 1376.1 991.73C1370.9 991.54 1369.61 991.83 1368.42 993.44C1365.03 998.07 1358.39 1019.76 1357.39 1029.46L1356.74 1035.87L1360.12 1036.85C1366.16 1038.58 1376.08 1038.15 1380.97 1035.93ZM1343.65 441.46C1339.33 440.65 1331.23 438.79 1325.65 437.32C1315.87 434.76 1310.8 434.41 1296 435.29C1293.79 435.42 1292.5 435.05 1292.5 434.27C1292.5 432.69 1304.94 422.69 1311.75 418.81C1314.64 417.16 1317 415.64 1317 415.44C1317 415.24 1312.49 410 1306.98 403.79C1294.19 389.37 1292.29 385.57 1290.99 371.88C1289.04 351.29 1292.12 336.92 1302.18 319.7C1313.16 300.9 1339.19 281.65 1358.43 278.09C1375.53 274.94 1388.87 278.91 1400.6 290.64C1416.82 306.86 1418.29 334.62 1404.34 361.17C1396.34 376.39 1379.13 393.77 1365.14 400.75C1358.6 404 1356.73 404.46 1348.58 404.82C1339.29 405.23 1328 403.64 1328 401.93C1328 401.42 1330.4 401 1333.34 401C1350.38 401 1367.5 387.64 1378.32 365.9C1391.62 339.2 1395.71 308.23 1387.57 295.93C1382.54 288.32 1368.07 284 1357.34 286.9C1332.55 293.61 1304.14 352.6 1312.73 379.5C1314.89 386.24 1324.1 402.46 1329.17 408.42C1333.8 413.87 1343.16 420.64 1351.77 424.76C1358.76 428.11 1359.39 428.22 1367.77 427.75C1373.95 427.4 1380.7 426.03 1390.87 423.05C1399.88 420.41 1405.6 419.2 1406.19 419.79C1408.31 421.91 1389.02 434.45 1375 440.05C1367.88 442.89 1354.43 443.5 1343.65 441.46ZM1169.5 241.96C1149.11 241.19 1145.1 240.81 1121.76 237.39C1037.48 225.04 973.94 201.37 907.5 157.56C882.43 141.03 871.82 131.92 868.99 124.48C867.52 120.6 867.74 120 870.66 120C872.47 120 877.47 123.14 886.41 129.88C975.72 197.29 1078.96 231.95 1190.5 231.98C1207.19 231.99 1212.62 231 1214.03 227.69C1214.54 226.49 1215.8 218.75 1216.84 210.5C1218.36 198.31 1218.48 194.84 1217.51 192C1216.65 189.5 1216.41 180.51 1216.67 160.57C1216.87 145.21 1217.23 132.44 1217.47 132.2C1217.71 131.95 1218.61 132.02 1219.46 132.35C1220.77 132.85 1221.01 135.86 1221.08 152.72C1221.25 192.55 1221.89 226.08 1222.52 228.07C1223.24 230.32 1221.98 230.33 1244 227.9C1296.07 222.13 1322.62 216.97 1369.62 203.47C1393.87 196.51 1426.9 185.13 1450 175.78C1473.91 166.1 1556.32 128.08 1558.88 125.54C1560.05 124.38 1559.02 121.78 1552.1 108.45C1547.61 99.8 1544.13 92.53 1544.37 92.3C1545.09 91.57 1629.78 91.46 1630.52 92.19C1631.38 93.04 1628.15 98.43 1606.67 132C1597.34 146.57 1588.43 159.84 1586.86 161.47C1583.25 165.25 1583.05 165.06 1575 150C1566.07 133.29 1567.22 133.94 1555.53 138.93C1550.2 141.21 1536.08 147.62 1524.17 153.17C1446.84 189.17 1397.9 207.05 1334 222.64C1280.91 235.6 1250.74 240.51 1218 241.53C1208.92 241.81 1198.35 242.18 1194.5 242.34C1190.65 242.51 1179.4 242.34 1169.5 241.96ZM1217.58 119.35C1217.24 114.48 1216.46 108.95 1215.84 107.05C1214.38 102.53 1214.43 96.8 1215.96 93.1C1216.83 91 1216.99 86.98 1216.52 79.32C1214.89 53.19 1215.56 47.13 1219.59 51.16C1220.95 52.52 1221.21 57.03 1221.45 83.12C1221.73 113.13 1221.1 125.3 1219.18 127.22C1218.54 127.86 1217.98 125.16 1217.58 119.35Z" fill="#1e2749" fill-rule="evenodd"/>
</svg>
