<?xml version="1.0" encoding="UTF-8"?>
<svg xmlns="http://www.w3.org/2000/svg" viewBox="0 0 672 422" width="672" height="422" shape-rendering="geometricPrecision">
<path d="M285.4 406.93C285.1 406.64 285 403.63 285 395.47C285 383.24 284.86 384 287.17 384C287.79 384 288.67 384.15 289.14 384.33L290 384.65L290 393.64C290 399.88 290.11 402.7 290.37 402.86C290.58 402.98 292.07 403.06 293.7 403.03C297.42 402.95 298 403.23 298 405.11C298 405.89 297.82 406.71 297.6 406.93C297.04 407.5 285.96 407.5 285.4 406.93ZM161.04 390.37L160 389.4L160 374.35L160 359.31L162.75 359.4L165.5 359.5L165.55 366.11C165.58 369.74 165.68 372.79 165.77 372.88C165.86 372.97 170.01 371.68 174.99 370.02C179.97 368.36 184.32 367 184.66 367C185.43 367 185.67 367.64 185.67 369.74L185.67 371.43L237.08 371.21C265.36 371.09 306.65 370.92 328.83 370.83C377.31 370.65 394.33 370.41 394.91 369.93C395.16 369.73 395.33 368.8 395.33 367.63C395.33 366.55 395.39 365.67 395.47 365.67C395.54 365.67 397.38 366.25 399.55 366.96C411.22 370.79 413.11 371.36 413.53 371.2C413.91 371.06 414 369.8 414 364.66L414 358.31L416.75 358.4L419.5 358.5L419.59 374.46C419.65 386.24 419.57 390.55 419.28 390.89C419 391.23 418.25 391.33 416.53 391.26L414.17 391.17L414.08 382.92C414.03 378.38 413.88 374.67 413.74 374.67C413.61 374.67 409.54 376.02 404.71 377.66C399.87 379.31 395.78 380.57 395.62 380.47C395.46 380.37 395.33 379.52 395.33 378.56C395.33 377.61 395.2 376.64 395.05 376.4C394.78 375.97 357.77 376.07 231.17 376.82C219.07 376.89 203.88 376.96 197.42 376.98L185.67 377L185.67 378.96C185.67 382.1 185.73 382.09 177.75 379.51C173.95 378.27 169.86 376.91 168.66 376.47C167.46 376.03 166.3 375.67 166.08 375.67C165.77 375.67 165.67 377.29 165.67 382.37L165.67 389.07L164.53 390.2C163.15 391.59 162.38 391.62 161.04 390.37ZM137.33 327.58C137.33 327.04 140.52 323.65 148.87 315.33C155.25 308.96 160.61 303.35 160.87 302.76C161.42 301.48 161.49 298.47 160.97 298.15C160.76 298.02 159.62 298.89 158.37 300.13C156.23 302.25 155.29 302.74 154.82 301.97C154.69 301.77 156.09 300.09 157.96 298.19L161.33 294.76L161.33 292.57C161.33 291.32 161.17 290.27 160.96 290.14C160.75 290.01 158 292.5 154.38 296.12C150.96 299.54 147.91 302.33 147.6 302.33C147.29 302.33 146.94 302.17 146.81 301.97C146.68 301.76 149.71 298.47 153.96 294.2L161.33 286.8L161.33 284.59C161.33 283.32 161.17 282.27 160.96 282.14C160.74 282.01 156.39 286.11 150.38 292.12C144.76 297.74 139.91 302.33 139.6 302.33C139.29 302.33 138.94 302.17 138.81 301.96C138.68 301.75 143.32 296.85 149.96 290.2L161.33 278.81L161.33 276.59C161.33 275.32 161.17 274.27 160.96 274.14C160.74 274.01 155.72 278.79 148.71 285.79C142.18 292.32 136.72 297.67 136.58 297.67C136.45 297.67 136.33 297.26 136.33 296.76C136.33 296 138.49 293.68 148.83 283.33L161.33 270.81L161.33 268.59C161.33 267.32 161.17 266.27 160.96 266.14C160.74 266.01 155.72 270.79 148.71 277.79C142.18 284.32 136.72 289.67 136.58 289.67C136.45 289.67 136.33 289.26 136.33 288.76C136.33 288 138.49 285.68 148.83 275.33L161.33 262.81L161.33 260.59C161.33 259.32 161.17 258.27 160.96 258.14C160.74 258.01 155.72 262.79 148.71 269.79C142.18 276.32 136.72 281.67 136.58 281.67C136.45 281.67 136.33 281.26 136.33 280.76C136.33 280 138.49 277.68 148.83 267.33L161.33 254.81L161.33 252.59C161.33 251.32 161.17 250.27 160.96 250.14C160.74 250.01 155.72 254.79 148.71 261.79C142.18 268.32 136.72 273.67 136.58 273.67C136.45 273.67 136.33 273.26 136.33 272.76C136.33 272 138.49 269.68 148.83 259.33L161.33 246.81L161.33 244.59C161.33 243.32 161.17 242.27 160.96 242.14C160.74 242.01 155.72 246.79 148.71 253.79C142.18 260.32 136.72 265.67 136.58 265.67C136.45 265.67 136.33 265.26 136.33 264.76C136.33 264 138.49 261.68 148.83 251.33L161.33 238.81L161.33 236.59C161.33 235.32 161.17 234.27 160.96 234.14C160.74 234.01 155.72 238.79 148.71 245.79C142.18 252.32 136.72 257.67 136.58 257.67C136.45 257.67 136.33 257.26 136.33 256.76C136.33 256 138.49 253.68 148.83 243.33L161.33 230.81L161.33 228.59C161.33 227.32 161.17 226.27 160.96 226.14C160.74 226.01 155.72 230.79 148.71 237.79C142.18 244.32 136.72 249.67 136.58 249.67C136.45 249.67 136.33 249.26 136.33 248.76C136.33 248 138.49 245.68 148.83 235.33L161.33 222.81L161.33 220.59C161.33 219.32 161.17 218.27 160.96 218.14C160.74 218.01 155.72 222.79 148.71 229.79C142.18 236.32 136.72 241.67 136.58 241.67C136.45 241.67 136.33 241.26 136.33 240.76C136.33 240 138.49 237.68 148.83 227.33L161.33 214.81L161.33 212.59C161.33 211.32 161.17 210.27 160.96 210.14C160.74 210.01 155.72 214.79 148.71 221.79C142.18 228.32 136.72 233.67 136.58 233.67C136.45 233.67 136.33 233.26 136.33 232.76C136.33 232 138.49 229.68 148.83 219.33L161.33 206.81L161.33 204.59C161.33 203.32 161.17 202.27 160.96 202.14C160.74 202.01 155.72 206.79 148.71 213.79C142.18 220.32 136.72 225.67 136.58 225.67C136.45 225.67 136.33 225.26 136.33 224.76C136.33 224 138.49 221.68 148.83 211.33L161.33 198.81L161.33 196.59C161.33 195.32 161.17 194.27 160.96 194.14C160.74 194.01 155.72 198.79 148.71 205.79C142.18 212.32 136.72 217.67 136.58 217.67C136.45 217.67 136.33 217.26 136.33 216.76C136.33 216 138.49 213.68 148.83 203.33L161.33 190.81L161.33 188.59C161.33 187.32 161.17 186.27 160.96 186.14C160.74 186.01 155.72 190.79 148.71 197.79C142.18 204.32 136.72 209.67 136.58 209.67C136.45 209.67 136.33 209.26 136.33 208.76C136.33 208 138.49 205.68 148.83 195.33L161.33 182.81L161.33 180.59C161.33 179.32 161.17 178.27 160.96 178.14C160.74 178.01 155.72 182.79 148.71 189.79C142.18 196.32 136.72 201.67 136.58 201.67C136.45 201.67 136.33 201.26 136.33 200.76C136.33 200 138.49 197.68 148.83 187.33L161.33 174.81L161.33 172.59C161.33 171.32 161.17 170.27 160.96 170.14C160.74 170.01 155.72 174.79 148.71 181.79C142.18 188.32 136.72 193.67 136.58 193.67C136.45 193.67 136.33 193.26 136.33 192.76C136.33 192 138.49 189.68 148.83 179.33L161.33 166.81L161.33 164.59C161.33 163.32 161.17 162.27 160.96 162.14C160.74 162.01 155.72 166.79 148.71 173.79C142.18 180.32 136.72 185.67 136.58 185.67C136.45 185.67 136.33 185.26 136.33 184.76C136.33 184 138.49 181.68 148.83 171.33L161.33 158.81L161.33 156.59C161.33 155.32 161.17 154.27 160.96 154.14C160.74 154.01 155.72 158.79 148.71 165.79C142.18 172.32 136.72 177.67 136.58 177.67C136.45 177.67 136.33 177.26 136.33 176.76C136.33 176 138.49 173.68 148.83 163.33L161.33 150.81L161.33 148.59C161.33 147.32 161.17 146.27 160.96 146.14C160.74 146.01 155.72 150.79 148.71 157.79C142.18 164.32 136.72 169.67 136.58 169.67C136.45 169.67 136.33 169.26 136.33 168.76C136.33 168 138.49 165.68 148.83 155.33L161.33 142.81L161.33 140.59C161.33 139.32 161.17 138.27 160.96 138.14C160.74 138.01 155.72 142.79 148.71 149.79C142.18 156.32 136.72 161.67 136.58 161.67C136.45 161.67 136.33 161.26 136.33 160.76C136.33 160 138.49 157.68 148.83 147.33L161.33 134.81L161.33 132.59C161.33 131.32 161.17 130.27 160.96 130.14C160.74 130.01 155.72 134.79 148.71 141.79C142.18 148.32 136.72 153.67 136.58 153.67C136.45 153.67 136.33 153.26 136.33 152.76C136.33 152 138.49 149.68 148.83 139.33L161.33 126.81L161.33 124.59C161.33 123.32 161.17 122.27 160.96 122.14C160.74 122.01 155.72 126.79 148.71 133.79C142.18 140.32 136.72 145.67 136.58 145.67C136.45 145.67 136.33 145.26 136.33 144.76C136.33 144 138.49 141.68 148.83 131.33L161.33 118.81L161.33 116.59C161.33 115.32 161.17 114.27 160.96 114.14C160.74 114.01 155.72 118.79 148.71 125.79C142.18 132.32 136.72 137.67 136.58 137.67C136.45 137.67 136.33 137.26 136.33 136.76C136.33 136 138.49 133.68 148.83 123.33L161.33 110.81L161.33 108.59C161.33 107.32 161.17 106.27 160.96 106.14C160.74 106.01 155.72 110.79 148.71 117.79C142.18 124.32 136.72 129.67 136.58 129.67C136.45 129.67 136.33 129.26 136.33 128.76C136.33 128 138.49 125.68 148.83 115.33L161.33 102.81L161.33 100.59C161.33 99.32 161.17 98.27 160.96 98.14C160.74 98.01 155.72 102.79 148.71 109.79C142.18 116.32 136.72 121.67 136.58 121.67C136.45 121.67 136.33 121.26 136.33 120.76C136.33 120 138.49 117.68 148.83 107.33L161.33 94.81L161.33 92.59C161.33 91.32 161.17 90.27 160.96 90.14C160.74 90.01 155.72 94.79 148.71 101.79C142.18 108.32 136.72 113.67 136.58 113.67C136.45 113.67 136.33 113.26 136.33 112.76C136.33 112 138.49 109.68 148.83 99.33L161.33 86.81L161.33 84.59C161.33 83.32 161.17 82.27 160.96 82.14C160.74 82.01 155.72 86.79 148.71 93.79C142.18 100.32 136.72 105.67 136.58 105.67C136.45 105.67 136.33 105.26 136.33 104.76C136.33 104 138.49 101.68 148.83 91.33L161.33 78.81L161.33 76.59C161.33 75.32 161.17 74.27 160.96 74.14C160.74 74.01 155.72 78.79 148.71 85.79C142.18 92.32 136.72 97.67 136.58 97.67C136.45 97.67 136.33 97.26 136.33 96.76C136.33 96 138.49 93.68 148.83 83.33L161.33 70.81L161.33 68.59C161.33 67.32 161.17 66.27 160.96 66.14C160.74 66.01 155.72 70.79 148.71 77.79C142.18 84.32 136.72 89.67 136.58 89.67C136.45 89.67 136.33 89.25 136.33 88.75C136.33 87.99 138.44 85.73 148.7 75.47C158.76 65.4 161.11 62.89 161.29 61.97C161.56 60.66 162.44 60.36 164.03 61.01C165.02 61.42 165.56 62.62 165.75 64.83C165.83 65.8 166.26 66.05 177.64 71.74L189.44 77.64L196.8 84.1C200.85 87.66 206.87 92.94 210.17 95.85C219.34 103.93 228.15 111.67 239.5 121.66C245.18 126.65 250.88 131.67 252.17 132.81C253.45 133.95 258.38 138.3 263.12 142.47C273.13 151.29 271.78 150.98 274.83 145.17C280.46 134.43 281.55 132.51 282.06 132.41C282.31 132.36 283.1 132.92 283.82 133.66C284.55 134.4 285.28 135 285.47 135C285.65 135 287.38 133.46 289.32 131.58C297.03 124.07 310.54 111.42 311.23 111.06C313.13 110.04 315.46 111.33 315.41 113.36C315.37 114.65 316.73 113.26 300.42 128.65C294.5 134.23 289.67 139.03 289.67 139.33C289.67 139.62 290.26 140.45 290.99 141.16C292.02 142.16 292.23 142.55 291.94 142.9C291.6 143.31 289.89 144.18 285.5 146.17C284.58 146.59 282.18 147.7 280.17 148.64C278.15 149.58 275.94 150.61 275.25 150.93C274.57 151.24 274.01 151.59 274 151.71C274 151.98 277.3 154.95 289.67 165.82C295.26 170.73 302.08 176.74 304.83 179.17C307.58 181.59 313.21 186.55 317.33 190.17C327.29 198.91 334.47 205.24 338.15 208.51C339.81 209.98 344.15 213.8 347.8 217.01C351.45 220.21 356.49 224.63 358.99 226.83C361.49 229.03 366.61 233.52 370.35 236.81C374.1 240.09 378.37 243.86 379.83 245.18C381.3 246.5 384.43 249.25 386.8 251.29L391.1 255L421.48 255C444.67 255 451.96 254.91 452.27 254.6C452.49 254.38 452.67 253.41 452.67 252.45C452.67 251.49 452.8 250.62 452.96 250.52C453.22 250.36 459.5 252.38 471.5 256.48C473.15 257.04 474.5 257.65 474.5 257.83C474.5 258.16 454.77 265 453.5 265.11C452.91 265.16 452.81 264.91 452.67 263L452.5 260.83L423.58 260.75C407.68 260.7 394.68 260.78 394.7 260.91C394.71 261.05 396.85 265.37 399.45 270.5L404.17 279.83L412.67 280L421.17 280.17L421.27 282.45C421.38 285.12 421.01 285.82 419.6 285.54C418.54 285.32 418.43 285.66 419.18 286.81C419.46 287.24 419.89 288.53 420.12 289.69C420.66 292.33 420.3 294.86 419.07 297.08L418.17 298.7L419.08 299.38C419.79 299.9 420 300.33 420 301.27C420 302.42 419.35 303.14 407.09 315.41C399.99 322.52 393.92 328.33 393.61 328.33C393.3 328.33 392.94 328.17 392.81 327.96C392.67 327.74 397.45 322.72 404.46 315.71C410.99 309.18 416.33 303.72 416.33 303.58C416.33 303.45 415.18 303.33 413.76 303.33L411.19 303.33L398.67 315.83C391.79 322.71 385.9 328.33 385.6 328.33C385.29 328.33 384.94 328.17 384.81 327.96C384.67 327.74 389.45 322.72 396.46 315.71C402.99 309.18 408.33 303.72 408.33 303.58C408.33 303.45 407.18 303.33 405.76 303.33L403.19 303.33L390.67 315.83C383.79 322.71 377.9 328.33 377.6 328.33C377.29 328.33 376.94 328.17 376.81 327.96C376.67 327.74 381.45 322.72 388.46 315.71C394.99 309.18 400.33 303.72 400.33 303.58C400.33 303.45 399.18 303.33 397.76 303.33L395.19 303.33L382.67 315.83C375.79 322.71 369.9 328.33 369.6 328.33C369.29 328.33 368.94 328.17 368.81 327.96C368.67 327.74 373.45 322.72 380.46 315.71C386.99 309.18 392.33 303.72 392.33 303.58C392.33 303.45 391.18 303.33 389.76 303.33L387.19 303.33L374.67 315.83C367.79 322.71 361.9 328.33 361.6 328.33C361.29 328.33 360.94 328.17 360.81 327.96C360.67 327.74 365.45 322.72 372.46 315.71C378.99 309.18 384.33 303.72 384.33 303.58C384.33 303.45 383.18 303.33 381.76 303.33L379.19 303.33L366.67 315.83C359.79 322.71 353.9 328.33 353.6 328.33C353.29 328.33 352.94 328.17 352.81 327.96C352.67 327.74 357.45 322.72 364.46 315.71C370.99 309.18 376.33 303.72 376.33 303.58C376.33 303.45 375.18 303.33 373.76 303.33L371.19 303.33L358.67 315.83C351.79 322.71 345.9 328.33 345.6 328.33C345.29 328.33 344.94 328.17 344.81 327.96C344.67 327.74 349.45 322.72 356.46 315.71C362.99 309.18 368.33 303.72 368.33 303.58C368.33 303.45 367.18 303.33 365.76 303.33L363.19 303.33L350.67 315.83C343.79 322.71 337.9 328.33 337.6 328.33C337.29 328.33 336.94 328.17 336.81 327.96C336.67 327.74 341.45 322.72 348.46 315.71C354.99 309.18 360.33 303.72 360.33 303.58C360.33 303.45 359.18 303.33 357.76 303.33L355.19 303.33L342.67 315.83C335.79 322.71 329.9 328.33 329.6 328.33C329.29 328.33 328.94 328.17 328.81 327.96C328.67 327.74 333.45 322.72 340.46 315.71C346.99 309.18 352.33 303.72 352.33 303.58C352.33 303.45 351.18 303.33 349.76 303.33L347.19 303.33L334.67 315.83C327.79 322.71 321.9 328.33 321.6 328.33C321.29 328.33 320.94 328.17 320.81 327.96C320.67 327.74 325.45 322.72 332.46 315.71C338.99 309.18 344.33 303.72 344.33 303.58C344.33 303.45 343.18 303.33 341.76 303.33L339.19 303.33L326.67 315.83C319.79 322.71 313.9 328.33 313.6 328.33C313.29 328.33 312.94 328.17 312.81 327.96C312.67 327.74 317.45 322.72 324.46 315.71C330.99 309.18 336.33 303.72 336.33 303.58C336.33 303.45 335.18 303.33 333.76 303.33L331.19 303.33L318.67 315.83C311.79 322.71 305.9 328.33 305.6 328.33C305.29 328.33 304.94 328.17 304.81 327.96C304.67 327.74 309.45 322.72 316.46 315.71C322.99 309.18 328.33 303.72 328.33 303.58C328.33 303.45 327.18 303.33 325.76 303.33L323.19 303.33L310.67 315.83C303.79 322.71 297.9 328.33 297.6 328.33C297.29 328.33 296.94 328.17 296.81 327.96C296.67 327.74 301.45 322.72 308.46 315.71C314.99 309.18 320.33 303.72 320.33 303.58C320.33 303.45 319.18 303.33 317.76 303.33L315.19 303.33L302.67 315.83C295.79 322.71 289.9 328.33 289.6 328.33C289.29 328.33 288.94 328.17 288.81 327.96C288.67 327.74 293.45 322.72 300.46 315.71C306.99 309.18 312.33 303.72 312.33 303.58C312.33 303.45 311.18 303.33 309.76 303.33L307.19 303.33L294.67 315.83C287.79 322.71 281.9 328.33 281.6 328.33C281.29 328.33 280.94 328.17 280.81 327.96C280.67 327.74 285.45 322.72 292.46 315.71C298.99 309.18 304.33 303.72 304.33 303.58C304.33 303.45 303.18 303.33 301.76 303.33L299.19 303.33L286.67 315.83C279.79 322.71 273.9 328.33 273.6 328.33C273.29 328.33 272.94 328.17 272.81 327.96C272.67 327.74 277.45 322.72 284.46 315.71C290.99 309.18 296.33 303.72 296.33 303.58C296.33 303.45 295.18 303.33 293.76 303.33L291.19 303.33L278.67 315.83C271.79 322.71 265.9 328.33 265.6 328.33C265.29 328.33 264.94 328.17 264.81 327.96C264.67 327.74 269.45 322.72 276.46 315.71C282.99 309.18 288.33 303.72 288.33 303.58C288.33 303.45 287.18 303.33 285.76 303.33L283.19 303.33L270.67 315.83C263.79 322.71 257.9 328.33 257.6 328.33C257.29 328.33 256.94 328.17 256.81 327.96C256.67 327.74 261.45 322.72 268.46 315.71C274.99 309.18 280.33 303.72 280.33 303.58C280.33 303.45 279.18 303.33 277.76 303.33L275.19 303.33L262.67 315.83C255.79 322.71 249.9 328.33 249.6 328.33C249.29 328.33 248.94 328.17 248.81 327.96C248.67 327.74 253.45 322.72 260.46 315.71C266.99 309.18 272.33 303.72 272.33 303.58C272.33 303.45 271.18 303.33 269.76 303.33L267.19 303.33L254.67 315.83C247.79 322.71 241.9 328.33 241.6 328.33C241.29 328.33 240.94 328.17 240.81 327.96C240.67 327.74 245.45 322.72 252.46 315.71C258.99 309.18 264.33 303.72 264.33 303.58C264.33 303.45 263.18 303.33 261.76 303.33L259.19 303.33L246.67 315.83C239.79 322.71 233.9 328.33 233.6 328.33C233.29 328.33 232.94 328.17 232.81 327.96C232.67 327.74 237.45 322.72 244.46 315.71C250.99 309.18 256.33 303.72 256.33 303.58C256.33 303.45 255.18 303.33 253.76 303.33L251.19 303.33L238.67 315.83C231.79 322.71 225.9 328.33 225.6 328.33C225.29 328.33 224.94 328.17 224.81 327.96C224.67 327.74 229.45 322.72 236.46 315.71C242.99 309.18 248.33 303.72 248.33 303.58C248.33 303.45 247.18 303.33 245.76 303.33L243.19 303.33L230.67 315.83C223.79 322.71 217.9 328.33 217.6 328.33C217.29 328.33 216.94 328.17 216.81 327.96C216.67 327.74 221.45 322.72 228.46 315.71C234.99 309.18 240.33 303.72 240.33 303.58C240.33 303.45 239.18 303.33 237.76 303.33L235.19 303.33L222.67 315.83C215.79 322.71 209.9 328.33 209.6 328.33C209.29 328.33 208.94 328.17 208.81 327.96C208.67 327.74 213.45 322.72 220.46 315.71C226.99 309.18 232.33 303.72 232.33 303.58C232.33 303.45 231.18 303.33 229.76 303.33L227.19 303.33L214.67 315.83C207.79 322.71 201.9 328.33 201.6 328.33C201.29 328.33 200.94 328.17 200.81 327.96C200.67 327.74 205.45 322.72 212.46 315.71C218.99 309.18 224.33 303.72 224.33 303.58C224.33 303.45 223.18 303.33 221.76 303.33L219.19 303.33L206.67 315.83C199.79 322.71 193.9 328.33 193.6 328.33C193.29 328.33 192.94 328.17 192.81 327.96C192.67 327.74 197.45 322.72 204.46 315.71C210.99 309.18 216.33 303.72 216.33 303.58C216.33 303.45 215.18 303.33 213.76 303.33L211.19 303.33L198.67 315.83C191.79 322.71 185.9 328.33 185.6 328.33C185.29 328.33 184.94 328.17 184.81 327.96C184.67 327.74 189.45 322.72 196.46 315.71C202.99 309.18 208.33 303.72 208.33 303.58C208.33 303.45 207.18 303.33 205.76 303.33L203.19 303.33L190.67 315.83C183.79 322.71 177.9 328.33 177.6 328.33C177.29 328.33 176.94 328.17 176.81 327.96C176.67 327.74 181.45 322.72 188.46 315.71C194.99 309.18 200.33 303.72 200.33 303.58C200.33 303.45 199.18 303.33 197.76 303.33L195.19 303.33L182.67 315.83C175.79 322.71 169.9 328.33 169.6 328.33C169.29 328.33 168.94 328.17 168.81 327.96C168.67 327.74 173.45 322.72 180.46 315.71C186.99 309.18 192.33 303.72 192.33 303.58C192.33 303.45 191.18 303.33 189.76 303.33L187.19 303.33L174.67 315.83C167.79 322.71 161.9 328.33 161.6 328.33C161.29 328.33 160.94 328.17 160.81 327.96C160.67 327.74 165.45 322.72 172.46 315.71C178.99 309.18 184.33 303.72 184.33 303.58C184.33 303.45 183.18 303.33 181.76 303.33L179.19 303.33L166.67 315.83C159.79 322.71 153.9 328.33 153.6 328.33C153.29 328.33 152.94 328.17 152.81 327.96C152.67 327.74 157.45 322.72 164.46 315.71C170.99 309.18 176.33 303.72 176.33 303.58C176.33 303.45 175.18 303.33 173.76 303.33L171.19 303.33L158.67 315.83C151.79 322.71 145.9 328.33 145.6 328.33C145.29 328.33 144.94 328.17 144.81 327.96C144.67 327.74 149.45 322.72 156.46 315.71C162.99 309.18 168.33 303.72 168.33 303.58C168.33 303.45 167.18 303.33 165.76 303.33L163.19 303.33L150.67 315.83C143.79 322.71 137.97 328.33 137.74 328.33C137.52 328.33 137.33 328 137.33 327.58ZM137.33 319.75C137.33 318.99 138.72 317.44 145.09 311.08C151.43 304.74 153 303.33 153.75 303.33C154.26 303.33 154.67 303.44 154.67 303.58C154.67 303.91 137.91 320.67 137.59 320.67C137.45 320.67 137.33 320.25 137.33 319.75ZM137.33 311.74C137.33 310.41 144.42 303.33 145.76 303.33C146.26 303.33 146.67 303.45 146.67 303.59C146.67 303.91 137.91 312.67 137.58 312.67C137.44 312.67 137.33 312.25 137.33 311.74ZM137.33 304.02C137.33 303.55 137.55 303.33 138.02 303.33C138.88 303.33 138.78 304.44 137.91 304.6C137.51 304.68 137.33 304.5 137.33 304.02ZM78.56 303.44C78.43 303.32 78.33 302.05 78.33 300.62L78.33 298.02L83.75 297.92L89.17 297.83L89.12 296.83C89.1 296.28 87.78 292.04 86.2 287.41C84.63 282.77 83.33 278.83 83.33 278.66C83.33 278.48 84.21 278.33 85.29 278.33C86.54 278.33 87.39 278.17 87.63 277.88C87.9 277.55 88 254.38 88 190.18C88 142.2 87.92 102.8 87.81 102.64C87.71 102.47 86.73 102.33 85.64 102.33C83.45 102.33 82.94 101.89 83.62 100.56C83.82 100.16 85.26 96.01 86.81 91.33C88.36 86.66 89.72 82.57 89.84 82.26C90.05 81.72 89.55 81.67 83.28 81.59L76.5 81.5L76.4 78.75L76.31 75.99L90.24 76.08L104.17 76.17L104.27 78.45C104.33 79.84 104.21 80.91 103.98 81.2C103.67 81.57 102.35 81.67 97.63 81.67C94.35 81.67 91.67 81.7 91.67 81.75C91.67 81.8 93.16 86.26 94.97 91.67C97.27 98.51 98.18 101.62 97.94 101.9C97.76 102.12 96.72 102.35 95.63 102.4L93.66 102.5L93.66 190.11C93.66 238.3 93.75 277.86 93.85 278.03C93.95 278.2 95.01 278.33 96.19 278.33C97.37 278.33 98.33 278.4 98.33 278.49C98.33 278.58 97.04 282.44 95.46 287.07C93.89 291.71 92.52 296.06 92.43 296.74L92.26 297.98L97.72 298.07L103.17 298.17L103.27 300.45C103.33 301.84 103.21 302.91 102.98 303.2C102.65 303.59 100.52 303.67 90.68 303.67C84.13 303.67 78.68 303.57 78.56 303.44ZM362.39 297.83C362.48 297.74 362.27 296.8 361.92 295.75C361.11 293.36 361.23 289.5 362.17 287.5C363.03 285.65 362.99 285.5 361.67 285.5L360.5 285.5L360.4 282.76L360.31 280.01L368.07 279.92L375.83 279.83L381.07 269.5C383.95 263.82 386.31 258.93 386.32 258.65C386.33 258.36 384.27 256.32 381.75 254.12C379.23 251.92 374.03 247.36 370.2 243.98C366.36 240.6 361.18 236.03 358.68 233.83C356.17 231.63 350.55 226.68 346.18 222.83C341.8 218.98 336.18 214.03 333.68 211.83C325.35 204.51 302.87 184.74 293.5 176.49C290.75 174.07 285.12 169.12 281 165.49C276.88 161.86 271.25 156.91 268.5 154.48C265.75 152.06 262 148.76 260.17 147.15C258.33 145.54 251.37 139.41 244.68 133.53C238 127.64 228.03 118.87 222.52 114.02C217.01 109.17 210.7 103.61 208.5 101.67C193.47 88.39 187.58 83.33 187.16 83.33C186.89 83.33 181.94 85.69 176.17 88.58L165.67 93.83L165.67 195.91L165.67 298L263.94 298C318 298 362.3 297.92 362.39 297.83ZM375.37 297.15C375.91 296.87 376.79 296.03 377.34 295.27C379.28 292.6 378.46 288.83 375.56 287.03C374.21 286.2 371.13 286.08 369.73 286.8C367.87 287.77 366.66 289.89 366.67 292.13C366.68 293.41 367.67 295.62 368.6 296.45C370.31 297.97 373.2 298.27 375.37 297.15ZM392.17 297.63C393.8 297.19 395.86 295.28 396.37 293.73C397.17 291.29 396.07 288.38 393.8 286.98C392.36 286.09 388.98 286.09 387.54 286.98C384.62 288.79 384.19 293.78 386.74 296.24C387.67 297.13 389.27 297.86 390.5 297.97C390.68 297.98 391.43 297.83 392.17 297.63ZM410.5 297.63C414.37 296.58 416.1 292.04 413.9 288.71C412.82 287.07 411.24 286.33 408.82 286.33C405.36 286.33 403.33 288.36 403.33 291.82C403.33 294.88 404.51 296.65 407.17 297.59C408.48 298.06 408.91 298.07 410.5 297.63ZM397.52 279.64C397.83 279.14 390.62 264.85 390 264.75C389.4 264.65 382.12 279.06 382.48 279.63C382.79 280.14 397.2 280.14 397.52 279.64ZM507.17 273.67C506.89 272.81 507.21 272.33 508.04 272.33C508.41 272.33 509 272.18 509.36 271.99C509.94 271.68 510 271.26 510 267.65C510 263.39 509.87 263.12 508.34 264.07C507.56 264.56 506.79 264.02 507.11 263.2C507.43 262.36 509.92 261.29 511.27 261.4L512.5 261.5L512.59 266.48C512.65 269.45 512.83 271.63 513.05 271.89C513.25 272.14 513.78 272.33 514.22 272.33C515.16 272.33 515.58 273.13 515 273.84C514.68 274.22 513.76 274.33 510.98 274.33C507.68 274.33 507.36 274.28 507.17 273.67ZM518.17 273.67C517.89 272.81 518.21 272.33 519.04 272.33C519.41 272.33 520 272.18 520.36 271.99C520.94 271.68 521 271.26 521 267.65C521 263.39 520.87 263.12 519.34 264.07C518.56 264.56 517.79 264.02 518.11 263.2C518.43 262.36 520.92 261.29 522.27 261.4L523.5 261.5L523.59 266.48C523.65 269.45 523.83 271.63 524.05 271.89C524.25 272.14 524.78 272.33 525.22 272.33C526.16 272.33 526.58 273.13 526 273.84C525.68 274.22 524.76 274.33 521.98 274.33C518.68 274.33 518.36 274.28 518.17 273.67ZM488.1 269.92C487.77 269.41 487.54 250.74 487.83 248.74L488.05 247.3L490.27 247.4L492.5 247.5L492.67 252.11L492.83 256.72L493.54 255.94C493.93 255.52 494.63 254.57 495.1 253.83C495.57 253.1 496.76 251.38 497.74 250L499.53 247.5L501.77 247.4C505.35 247.24 505.23 247.75 500.21 254C498.81 255.74 497.67 257.43 497.67 257.76C497.67 258.3 498.95 260.3 503.24 266.48C505.36 269.53 505.09 270.33 501.95 270.33C500.12 270.33 500.01 270.28 499.18 269.08C497.3 266.35 494.33 261.63 494.33 261.38C494.33 261.06 493.22 260 492.89 260C492.77 260 492.67 262.14 492.67 264.77C492.67 268.03 492.54 269.66 492.27 269.93C491.73 270.47 488.45 270.45 488.1 269.92ZM393.83 246.93C393.73 246.69 393.7 241.1 393.75 234.5L393.83 222.5L396 222.5L398.17 222.5L398.26 227.08C398.31 229.6 398.43 231.67 398.52 231.67C398.62 231.67 399.28 231.37 400 231C401.76 230.1 405.09 230.09 406.54 230.97C408.23 232 409.28 233.68 409.87 236.3C410.37 238.51 410.37 238.9 409.89 240.83C409.61 242 409 243.55 408.54 244.27C406.71 247.16 402.34 248.27 399.74 246.5C398.23 245.47 397.91 245.46 397.5 246.42C397.23 247.02 396.85 247.19 395.58 247.27C394.5 247.34 393.94 247.23 393.83 246.93ZM403.83 242.19C407.18 238.65 403.85 232.31 399.99 234.88C398.55 235.84 398.33 236.36 398.33 238.89L398.33 241.33L399.72 242.33C401.53 243.65 402.49 243.61 403.83 242.19ZM60.34 189.68C60.11 189.25 60.02 185.3 60.08 178.26L60.17 167.5L62.11 167.4C63.26 167.34 64.25 167.46 64.53 167.69C64.91 168.01 65 169.72 65 177.01C65 184.83 65.06 185.95 65.53 186.13C65.82 186.24 67.44 186.33 69.13 186.33C72.53 186.33 73 186.56 73 188.18C73 190.15 72.43 190.33 66.24 190.33C61.07 190.33 60.67 190.29 60.34 189.68ZM361.12 147.83C361.01 147.55 361.47 146.06 362.13 144.52C362.98 142.55 363.33 141.23 363.33 140.05C363.33 137.48 363.46 137.33 365.64 137.33C367.87 137.33 368.33 137.69 368.33 139.39C368.33 141.46 366.47 145.19 364.25 147.58C363.42 148.47 361.42 148.63 361.12 147.83ZM321.22 142.11C320.63 141.51 320.91 140.47 324.11 131.5C325.66 127.19 328.33 119.52 328.33 119.42C328.33 119.37 329.68 119.33 331.32 119.33C334.96 119.33 334.48 118.67 337.69 128C338.22 129.56 338.8 131.13 338.97 131.5C339.15 131.87 339.6 133.14 339.99 134.33C340.38 135.52 340.9 136.95 341.15 137.5C341.4 138.05 341.79 139.13 342.02 139.91C342.6 141.89 342.16 142.33 339.61 142.33L337.64 142.33L337.04 140.92C336.71 140.14 336.34 139.09 336.21 138.59C335.92 137.41 335.35 137.29 330.68 137.4L326.86 137.5L326.18 139.38C325.23 142 324.87 142.33 323.01 142.33C322.15 142.33 321.34 142.23 321.22 142.11ZM345.03 141.28C344.57 139.94 344.53 121.4 344.99 120.18L345.32 119.32L351.91 119.41L358.5 119.5L358.6 121.03C358.66 122.02 358.54 122.69 358.25 122.93C357.98 123.15 356.14 123.35 353.81 123.41L349.83 123.5L349.74 125.53C349.67 126.93 349.78 127.68 350.09 127.93C350.33 128.14 352.03 128.35 353.85 128.4L357.17 128.5L357.27 130.03C357.33 131.01 357.2 131.69 356.91 131.93C356.67 132.14 354.97 132.35 353.15 132.4L349.83 132.5L349.73 134.95C349.67 136.46 349.78 137.57 350.03 137.86C350.32 138.22 351.37 138.33 354.31 138.33C358.59 138.33 359 138.5 359 140.18C359 142.19 358.49 142.33 351.59 142.33L345.4 142.33L345.03 141.28ZM381.34 141.68C381.11 141.25 381.02 137.3 381.08 130.26L381.17 119.5L383.11 119.4C384.26 119.34 385.25 119.46 385.53 119.69C385.91 120.01 386 121.72 386 129.01C386 136.83 386.06 137.95 386.53 138.13C386.82 138.24 388.44 138.33 390.13 138.33C393.53 138.33 394 138.56 394 140.18C394 142.15 393.43 142.33 387.24 142.33C382.07 142.33 381.67 142.29 381.34 141.68ZM333.97 132.87C334.46 132.29 332.04 124.83 331.36 124.83C330.84 124.83 328.21 132.19 328.47 132.88C328.72 133.52 333.44 133.51 333.97 132.87ZM173.81 83.72C177.65 81.77 180.84 80.02 180.89 79.83C181.01 79.47 166.99 72.33 166.16 72.33C165.74 72.33 165.67 73.4 165.67 79.83C165.67 86.76 165.71 87.33 166.25 87.31C166.57 87.29 169.97 85.68 173.81 83.72ZM195.97 77.58C194.33 76.49 193.6 74.89 193.76 72.76C193.84 71.67 194.12 70.75 194.51 70.33C195.58 69.14 197.9 68.33 200.23 68.33C202.37 68.33 203.67 67.95 203.67 67.31C203.67 67.12 203.3 66.6 202.85 66.15C201.84 65.14 199.63 65.04 197.23 65.9C195.3 66.6 194.55 66.27 194.39 64.69C194.15 62.26 195.99 61.33 201.04 61.34C203.66 61.34 204.38 61.47 205.47 62.09C208.04 63.56 208.15 63.91 208.27 71.05C208.34 75.57 208.26 77.52 207.98 77.86C207.75 78.13 206.99 78.33 206.17 78.33C205.09 78.33 204.63 78.16 204.28 77.62L203.81 76.92L202.42 77.62C200.46 78.62 197.5 78.6 195.97 77.58ZM202.26 73.66C204.36 72.39 203.99 71.35 201.44 71.34C199.37 71.33 198.33 71.82 198.33 72.81C198.33 74.36 200.39 74.81 202.26 73.66Z" fill="#1e2749" fill-rule="evenodd"/>
</svg>
