<?xml version="1.0" encoding="UTF-8"?>
<svg xmlns="http://www.w3.org/2000/svg" viewBox="0 0 646 257" width="646" height="257" shape-rendering="geometricPrecision">
<path d="M176.92 256.31C176.52 256.07 176.33 255.55 176.33 254.64C176.33 253.21 175.93 253.82 186.16 239.83C188.57 236.53 191.03 233.16 191.62 232.33L192.7 230.83L189.1 230.41C187.12 230.18 182.25 229.9 178.28 229.79L171.05 229.59L169.69 231.38C168.95 232.36 165.99 236.39 163.11 240.33C151.58 256.16 151.46 256.31 150.31 256.33C149.66 256.34 148.33 254.97 148.33 254.29C148.33 253.61 149.64 251.6 153.53 246.33C155.35 243.86 157.09 241.46 157.4 241C157.71 240.54 159.61 237.92 161.63 235.17C163.66 232.42 165.32 230.05 165.32 229.92C165.33 229.78 160.19 229.67 153.9 229.67L142.46 229.67L141.63 230.58C141.17 231.09 140.31 232.17 139.71 233C124.28 254.3 123.21 255.67 122.02 255.67C121.36 255.67 120.33 254.34 120.33 253.48C120.33 252.54 120.89 251.66 125.38 245.57C127.03 243.33 128.63 241.12 128.93 240.67C129.24 240.21 130.94 237.87 132.7 235.47C134.47 233.07 136.09 230.78 136.3 230.39L136.69 229.67L124.41 229.67L112.12 229.67L111.29 230.58C110.83 231.09 109.7 232.55 108.78 233.83C107.87 235.12 105.26 238.72 103 241.83C100.73 244.95 97.9 248.85 96.71 250.5C95.52 252.15 94.17 253.91 93.71 254.42C91.64 256.69 89.24 254.11 90.92 251.41C91.47 250.52 94.13 246.85 102.41 235.57C104.4 232.86 106.12 230.42 106.22 230.15C106.38 229.73 104.78 229.67 94.43 229.67C85.35 229.67 82.33 229.77 81.94 230.08C81.65 230.31 80.4 231.92 79.15 233.67C67.72 249.58 63.44 255.25 62.67 255.5C61.53 255.86 60.33 254.85 60.33 253.53C60.33 252.37 60.93 251.49 71.85 236.63C74.09 233.59 76.09 230.78 76.31 230.38L76.69 229.67L64.07 229.67L51.46 229.67L50.63 230.58C50.17 231.09 49.31 232.17 48.71 233C48.12 233.82 46.47 236.08 45.06 238.01C43.65 239.94 41.82 242.46 41 243.61C35.82 250.81 32.56 255.06 31.82 255.54C31.09 256.01 30.85 256.03 30.15 255.66C29.5 255.31 29.33 254.96 29.33 253.95C29.33 252.36 29.11 252.72 37.53 241.15C41.4 235.84 44.83 231.09 45.15 230.58L45.74 229.67L34.57 229.67L23.4 229.67L22.45 230.79C21.93 231.4 19.85 234.2 17.83 237C9.34 248.82 5.08 254.49 4.25 255.11C3.41 255.74 3.33 255.74 2.5 255.2C0.75 254.05 0.93 253.13 3.6 249.5C4.67 248.03 7.4 244.28 9.66 241.17C11.93 238.05 14.58 234.41 15.57 233.08C16.55 231.74 17.44 230.43 17.55 230.16C17.71 229.73 16.72 229.67 10.2 229.67C3.11 229.67 2.63 229.63 2 229C1.09 228.09 1.15 226.81 2.12 226.17C2.82 225.71 11.55 225.64 84.34 225.58C141.25 225.52 165.81 225.39 165.9 225.15C165.96 224.95 165.15 224.44 164.09 224.01C141.18 214.67 122.35 195.06 113.83 171.67C113.6 171.03 113.18 169.9 112.91 169.17C112.63 168.43 112.17 166.93 111.89 165.83C111.61 164.73 111.15 162.93 110.87 161.83C110.21 159.28 109.51 155.64 108.94 151.83C108.35 147.79 108.35 132.85 108.95 128.83C110.06 121.35 111.67 114.77 113.83 108.83C114.5 107 115.13 105.24 115.23 104.92C115.62 103.65 119.7 95.94 121.74 92.61C129.02 80.72 139.57 70.22 151.33 63.16C155.88 60.42 161.86 57.45 165.33 56.19C166.71 55.69 168.36 55.08 169 54.82C173.66 52.99 183.37 50.88 190 50.26C192.19 50.06 248.27 49.85 339.63 49.72C476.85 49.51 485.78 49.47 486.12 48.93C486.46 48.39 486.38 48.01 485.42 45.42C485.33 45.18 485.52 45 485.85 45C486.76 45 499.36 51.41 499.25 51.81C499.19 52.01 496.09 53.72 492.37 55.61L485.59 59.05L485.81 57.78C485.93 57.07 486.07 55.98 486.1 55.33L486.17 54.17L357.08 54.08C269.28 54.03 228 54.11 228 54.34C228 54.71 228.29 54.85 232 56.19C234.95 57.27 242.38 60.88 244.41 62.22C245.19 62.74 246.28 63.39 246.82 63.67C248.6 64.56 255.86 70.12 259.57 73.41C261.56 75.18 264.49 78.1 266.07 79.9C268.6 82.76 273.41 88.96 274.57 90.85C278.85 97.83 281.44 103.01 283.48 108.67C283.97 110.04 284.54 111.54 284.73 112C285.19 113.11 286.92 119.88 287.55 123C291.24 141.56 288.84 161.14 280.78 178.23C279.98 179.91 279.33 181.37 279.33 181.46C279.33 181.55 278.06 183.75 276.5 186.33C272.21 193.46 268.51 198.17 262.51 204.17C256.4 210.28 251.09 214.43 243.54 218.99C241.08 220.48 234.15 223.74 231.92 224.46C231.6 224.56 231.33 224.87 231.33 225.15C231.33 225.59 252.37 225.65 420.52 225.66C549.58 225.66 609.91 225.77 610.34 226.01C612.1 226.94 611.82 228.61 609.74 229.59C608.44 230.2 607.78 231.03 600.5 241.17C593.85 250.43 590.55 254.76 589.6 255.45C588.75 256.07 588.66 256.07 587.85 255.54C587.19 255.11 587 254.71 587 253.74C587 252.65 587.97 251.17 595.16 241.33C599.64 235.19 603.31 230.05 603.32 229.91C603.33 229.77 598.13 229.7 591.76 229.75L580.19 229.83L577.82 233C575.51 236.08 571.67 241.37 564.92 250.76C563.1 253.29 561.26 255.59 560.82 255.87C559.32 256.86 557.74 255.55 558.12 253.63C558.23 253.1 559.32 251.28 560.55 249.58C567.55 239.94 570.98 235.24 572.57 233.08C573.56 231.74 574.44 230.43 574.55 230.16C574.71 229.73 573.19 229.67 562.73 229.67C556.12 229.67 550.49 229.75 550.21 229.86C549.93 229.97 545.61 235.69 540.6 242.56C535.12 250.09 531.14 255.25 530.6 255.53C529.59 256.06 528.8 255.87 528.32 254.98C527.68 253.78 528.02 252.72 529.89 250.13C533.62 244.96 539.82 236.45 542.06 233.43C543.31 231.73 544.33 230.19 544.33 230C544.33 229.77 540.43 229.69 532.26 229.75L520.19 229.83L517.82 233C515.51 236.08 511.67 241.37 504.92 250.76C501.44 255.59 500.48 256.53 499.35 256.17C497.59 255.61 497.67 253.51 499.56 250.88C501.45 248.26 508.45 238.64 511.73 234.17C513.34 231.97 514.66 230.05 514.66 229.92C514.67 229.78 508.98 229.67 502.02 229.67L489.37 229.67L487.91 231.58C487.1 232.64 483.62 237.4 480.17 242.17C471.16 254.62 470.42 255.6 469.5 256.2C468.74 256.7 468.6 256.7 467.86 256.21C467.41 255.92 466.96 255.39 466.85 255.04C466.46 253.82 466.84 253.2 473.67 243.89C475.04 242.01 476.84 239.54 477.67 238.39C478.49 237.23 480.18 234.93 481.42 233.25C482.65 231.58 483.67 230.09 483.67 229.94C483.67 229.79 478.64 229.67 472.5 229.67L461.34 229.67L459.45 232.25C458.41 233.67 457.13 235.43 456.6 236.17C456.06 236.9 454.47 239.08 453.06 241.01C451.65 242.94 449.82 245.46 449 246.62C445.11 252.05 442.28 255.67 441.65 256.01C440.49 256.63 439.33 255.63 439.33 254.01C439.33 252.89 439.76 252.13 442.35 248.6C444.01 246.35 445.63 244.12 445.93 243.67C446.24 243.21 448.15 240.58 450.18 237.83C452.21 235.08 454.35 232.12 454.95 231.25L456.04 229.66L444.28 229.75L432.51 229.83L430.01 233.23C428.63 235.09 425.62 239.21 423.33 242.37C415.83 252.72 415.26 253.49 414.4 254.42C413.34 255.55 411.86 255.65 411.31 254.62C410.6 253.29 411.21 251.88 414.32 247.65C416 245.37 417.63 243.12 417.93 242.67C418.45 241.89 422.16 236.82 425.56 232.22C426.35 231.14 427 230.13 427 229.97C427 229.79 421.77 229.67 414.68 229.67L402.35 229.67L401.06 231.42C400.34 232.38 396.72 237.37 393 242.5C383.23 256 383.39 255.83 381.87 254.64C380.07 253.22 380.3 252.76 388.83 241.01C393.14 235.07 396.67 230.09 396.67 229.94C396.67 229.78 391.23 229.7 384.58 229.75L372.5 229.83L370 233.23C364.84 240.24 361.41 244.94 358.38 249.16C356.67 251.54 354.88 253.91 354.4 254.42C352.72 256.21 350.71 255.25 351.1 252.84C351.21 252.15 353.39 248.86 357.2 243.64C364.64 233.41 367 230.1 367 229.86C367 229.75 361.3 229.67 354.33 229.67L341.67 229.67L339.4 232.75C338.15 234.45 335.05 238.68 332.51 242.17C324.25 253.47 323.73 254.16 322.89 254.94C321.84 255.93 320.68 255.79 320.02 254.6C319.3 253.31 319.63 252.63 323.89 246.83C331.04 237.1 335.72 230.59 335.89 230.13C336.04 229.74 334.29 229.67 324.88 229.67L313.69 229.67L312.39 231.42C311.68 232.38 309.48 235.42 307.49 238.17C294.97 255.53 295.14 255.31 293.76 255.33C292.62 255.34 291.82 253.89 292.23 252.57C292.41 251.98 296.03 246.72 300.28 240.89C304.52 235.05 308 230.14 308 229.97C308 229.61 290.34 229.56 289.81 229.92C289.4 230.2 287.67 232.52 280.83 242C271.71 254.62 270.64 255.99 269.74 256.22C269.28 256.34 268.66 256.28 268.37 256.1C267.56 255.59 267.15 254.16 267.57 253.26C267.76 252.84 271.61 247.43 276.13 241.22C280.64 235.02 284.33 229.88 284.33 229.8C284.33 229.72 278.75 229.7 271.92 229.75L259.5 229.83L256.5 233.88C254.85 236.11 251.03 241.34 248 245.52C240.22 256.25 239.79 256.68 238.07 255.48C236.65 254.49 237.07 253.46 241.28 247.61C244.86 242.62 246.38 240.53 252.15 232.63C253.17 231.23 254 229.99 254 229.88C254 229.76 248.54 229.67 241.87 229.67L229.73 229.67L225.31 235.75C222.87 239.1 219.73 243.41 218.33 245.33C216.92 247.26 214.98 249.96 214.01 251.33C210.7 256.05 209.17 257.14 207.88 255.72C206.56 254.26 206.33 254.64 219.27 236.89C222.06 233.08 224.33 229.89 224.33 229.81C224.33 229.52 214.46 229.68 212.52 229.99C211.44 230.17 207.91 230.48 204.69 230.67C201.47 230.86 198.53 231.09 198.17 231.18C197.79 231.26 196.13 233.23 194.31 235.75C192.55 238.18 189.49 242.42 187.51 245.17C179.48 256.3 179.15 256.68 177.94 256.66C177.7 256.65 177.24 256.49 176.92 256.31ZM212.67 225.35C216.41 225.06 226.48 222.52 227.48 221.62C227.66 221.46 228.06 221.33 228.39 221.33C229.58 221.33 239.19 216.71 243.41 214.1C255.15 206.86 266.03 195.94 272.5 184.93C272.68 184.62 273.4 183.45 274.08 182.32C274.77 181.2 275.33 180.18 275.33 180.05C275.33 179.92 275.95 178.62 276.7 177.16C277.46 175.7 278.2 174.12 278.35 173.67C278.49 173.21 278.94 172.01 279.33 171C281.44 165.57 282.86 160.15 284.06 152.83C285.09 146.62 285.15 134.56 284.19 128.83C283.86 126.82 283.47 124.42 283.33 123.5C283.2 122.58 282.76 120.63 282.35 119.17C281.95 117.7 281.51 116.05 281.36 115.5C280.7 112.97 278.76 107.85 277.26 104.7C276.35 102.79 275.49 100.91 275.34 100.53C275.2 100.14 274 98.04 272.68 95.86C265.42 83.83 254.9 73.4 242.67 66.09C238.88 63.83 232.89 60.9 229.91 59.86C228.59 59.4 226.67 58.72 225.67 58.36C223.34 57.53 214.39 55.33 213.31 55.33C212.87 55.33 211.45 55.11 210.17 54.84C206.79 54.12 190.98 54.13 186.83 54.85C177.76 56.42 175.06 57.1 168.17 59.59C164.49 60.91 156.58 64.82 152.63 67.27C145.28 71.82 135.54 80.54 130.8 86.83C128.93 89.31 125.33 94.57 125.33 94.83C125.33 94.89 124.81 95.74 124.16 96.72C123.52 97.7 122.38 99.77 121.63 101.33C120.89 102.89 120.08 104.54 119.85 105C119.16 106.34 116.45 113.98 115.83 116.33C115.51 117.52 115.06 119.17 114.83 120C114.6 120.83 114.17 122.92 113.89 124.67C113.61 126.41 113.19 128.96 112.96 130.33C112.42 133.67 112.42 146.33 112.97 150.17C115.44 167.36 120.61 180.13 130.29 192.94C137.36 202.29 149.36 212.36 159 217.04C160.19 217.62 162.07 218.53 163.17 219.07C164.27 219.62 165.54 220.19 166 220.34C166.46 220.5 168.11 221.1 169.67 221.68C172.49 222.73 176.19 223.8 178.94 224.36C179.73 224.52 180.54 224.76 180.74 224.88C181.49 225.34 187.12 225.57 198.17 225.58C204.4 225.59 210.92 225.49 212.67 225.35ZM530.67 68.43C529.79 68.09 529.68 67.58 529.67 64.12C529.67 61.35 529.57 60.7 529.14 60.54C528.85 60.42 525.58 60.33 521.87 60.33C513.88 60.33 513.82 60.31 513.85 57.61C513.87 56.36 514.11 55.42 514.69 54.44C515.13 53.68 516.19 51.88 517.04 50.44C517.88 49.01 519.36 46.48 520.31 44.83C521.27 43.18 522.39 41.31 522.81 40.67C523.22 40.02 524.42 38.04 525.46 36.25L527.36 33L530.04 33C534.37 33 534 31.9 534 44.84L534 55.99L534.75 56.16C535.16 56.25 536.17 56.36 536.99 56.41C538.29 56.49 538.53 56.62 538.81 57.42C539.07 58.15 538.99 58.52 538.45 59.25C537.89 60 537.44 60.2 535.97 60.33L534.17 60.5L534 64.07C533.91 66.03 533.68 67.78 533.5 67.95C533.05 68.37 531.29 68.67 530.67 68.43ZM549.33 67.83C545.42 65.97 543.76 63.25 542.81 57.17C541.61 49.45 542.73 41.04 545.53 36.83C546.96 34.68 548.94 33.47 552.08 32.82C554.37 32.35 554.87 32.35 557.34 32.81C562.23 33.74 564.77 36.56 566.01 42.46C566.71 45.75 566.88 53.19 566.33 56C565.63 59.59 565.31 60.83 565 61.14C564.82 61.32 564.67 61.67 564.67 61.91C564.67 62.67 562.04 65.88 560.74 66.72C558.24 68.33 557.84 68.45 554.5 68.58C551.45 68.69 551.01 68.63 549.33 67.83ZM586.92 68.44C586.6 68.35 586.25 67.96 586.15 67.56C586.06 67.16 586.02 59.37 586.07 50.24C586.15 35.92 586.24 33.6 586.67 33.33C586.94 33.15 588.17 33.01 589.39 33.01C591.3 33 591.76 33.12 592.64 33.86C593.21 34.34 593.67 34.86 593.67 35.02C593.67 35.18 594.79 37.27 596.17 39.67C597.54 42.06 598.67 44.08 598.67 44.15C598.67 44.23 599.79 46.27 601.16 48.68C602.54 51.1 604.52 54.79 605.58 56.87C606.64 58.96 607.65 60.61 607.83 60.55C608.04 60.48 608.23 55.45 608.33 46.81L608.5 33.17L610.11 33.06C611.01 33.01 611.93 33.13 612.19 33.35C612.59 33.69 612.67 36.38 612.67 50.16C612.67 66.26 612.65 66.59 611.98 67.46C611.4 68.19 611.02 68.33 609.65 68.33C607.45 68.33 606.56 67.47 604 62.83C602.89 60.82 601.84 58.94 601.67 58.67C601.5 58.39 600.82 57.13 600.15 55.86C599.48 54.6 598.64 53.1 598.3 52.53C597.95 51.96 597.43 51.05 597.15 50.5C596.86 49.95 596.45 49.2 596.23 48.83C595.72 47.98 592.02 41.13 591.41 39.92C591.16 39.41 590.85 39 590.73 39C590.6 39 590.5 45.37 590.5 53.15C590.5 68.67 590.58 68.09 588.5 68.43C587.95 68.52 587.24 68.53 586.92 68.44ZM557.26 64.37C560.56 62.68 562 58.56 562 50.76C562 42.3 560.52 37.94 557.23 36.69C555.66 36.09 552.7 36.26 551.11 37.03C549.91 37.61 549.51 38.08 548.66 39.84C547.25 42.8 546.69 48.85 547.27 54.76C547.84 60.47 548.94 63.09 551.3 64.34C552.89 65.18 555.65 65.19 557.26 64.37ZM529.02 55.99C529.63 55.66 529.67 55.2 529.67 46.65C529.67 38.07 529.64 37.67 529.04 37.67C528.69 37.67 528.32 37.93 528.22 38.25C528 38.9 526.93 40.8 525.6 42.87C525.12 43.62 524.44 44.74 524.1 45.37C523.76 45.99 523.25 46.88 522.96 47.33C520.93 50.56 518.33 55.12 518.33 55.47C518.33 55.7 518.43 55.99 518.56 56.11C518.92 56.47 528.32 56.36 529.02 55.99Z" fill="#1e2749" fill-rule="evenodd"/>
</svg>
