<?xml version="1.0" encoding="UTF-8"?>
<svg xmlns="http://www.w3.org/2000/svg" viewBox="0 0 2430 1545" width="2430" height="1545" shape-rendering="geometricPrecision">
<path d="M891 1499.29C883.58 1499.13 707.27 1498.9 499.21 1498.76C164.23 1498.53 120.82 1498.33 119.98 1497C119.46 1496.17 119.02 1493.37 119.02 1490.76C119 1485.1 116.28 1487.1 152 1466.43C177.98 1451.4 182.74 1448.63 210 1432.75C218.53 1427.78 227.53 1422.58 230 1421.19C234.28 1418.78 247.15 1411.32 311.5 1373.98C326.9 1365.04 348.5 1352.56 359.5 1346.23C370.5 1339.9 380.62 1333.96 382 1333.02C383.38 1332.08 393.05 1326.44 403.5 1320.47C433.56 1303.32 517.14 1255.01 521 1252.56C522.92 1251.33 530.35 1247.03 537.5 1242.99C544.65 1238.96 555.23 1232.87 561 1229.47C566.77 1226.06 577.58 1219.78 585 1215.5C622.84 1193.69 665.94 1168.77 687.5 1156.22C718.08 1138.43 743.01 1123.97 754.5 1117.37C760.55 1113.9 767.08 1110.11 769 1108.97C770.92 1107.82 777 1104.28 782.5 1101.09C788 1097.91 801.27 1090.22 812 1084.01C822.73 1077.79 840.5 1067.55 851.5 1061.24C862.5 1054.93 876.67 1046.72 883 1043.01C889.33 1039.29 904.85 1030.28 917.5 1022.98C930.15 1015.68 944.33 1007.46 949 1004.71C965.51 995.02 975.92 989 1016 965.94C1038.28 953.13 1061.22 939.86 1067 936.46C1072.78 933.05 1084.42 926.27 1092.88 921.38C1101.33 916.5 1109.43 911.81 1110.88 910.97C1112.32 910.14 1115.75 908.16 1118.5 906.57C1121.25 904.99 1125.53 902.49 1128 901.01C1133.65 897.64 1142.54 892.52 1161 881.99C1168.97 877.45 1181.8 870.03 1189.5 865.51C1197.2 860.99 1212.72 851.99 1224 845.52C1235.28 839.04 1248.1 831.61 1252.5 829C1261.5 823.65 1294.06 804.82 1310 795.73C1315.78 792.44 1326.02 786.43 1332.77 782.37C1339.52 778.32 1345.24 775 1345.48 775C1345.72 775 1353.7 770.44 1363.21 764.86C1372.72 759.29 1383.88 752.83 1388 750.51C1394.59 746.8 1468.33 704.07 1483 695.47C1486.03 693.69 1492.1 690.17 1496.5 687.65C1500.9 685.12 1508.1 680.96 1512.5 678.41C1516.9 675.85 1530.4 668.05 1542.5 661.06C1554.6 654.08 1577.55 640.8 1593.5 631.56C1609.45 622.31 1631.5 609.58 1642.5 603.25C1653.5 596.92 1662.99 591.36 1663.58 590.89C1664.18 590.42 1667.78 588.3 1671.58 586.19C1679.45 581.82 1695.69 572.47 1727.5 554C1782.76 521.92 1806.66 508.06 1821.5 499.49C1830.3 494.41 1842.67 487.21 1849 483.49C1855.33 479.77 1864.01 474.75 1868.31 472.34C1872.61 469.92 1877.78 466.9 1879.81 465.63C1881.84 464.35 1886.65 461.49 1890.5 459.28C1896.72 455.71 1910.09 447.99 1931.5 435.63C1935.35 433.4 1949.3 425.32 1962.5 417.66C1975.7 410.01 1995.5 398.58 2006.5 392.26C2017.5 385.94 2027.06 380.32 2027.75 379.76C2029.79 378.12 2029.21 377.3 2025.25 376.23C2007.33 371.41 1971.6 361.27 1963.65 358.75C1950.74 354.66 1950.07 353.74 1952.34 343.19C1954.32 333.97 1967.06 285.94 1970.66 274.1C1974.29 262.16 1978.86 258.41 1984.77 262.55C1989.87 266.13 1989.65 268.05 1979.55 307.01C1974.81 325.27 1974.35 328 1975.99 328C1977 328 2005.06 312.29 2026 300.01C2038.25 292.82 2079.17 269.19 2090 263.05C2093.57 261.02 2110 251.58 2126.5 242.07C2143 232.56 2168.65 217.81 2183.5 209.28C2198.35 200.76 2212.97 192.32 2216 190.54C2226.68 184.24 2255.55 168.12 2259.32 166.36C2262.76 164.74 2263.4 164.71 2265.79 166.06C2269.75 168.28 2271.66 172.23 2270.45 175.68C2269.48 178.45 2259.28 184.8 2203.5 217.31C2197.45 220.84 2184.18 228.59 2174 234.54C2163.82 240.49 2153.03 246.78 2150 248.53C2146.97 250.27 2138.65 255.08 2131.5 259.21C2124.35 263.33 2108.82 272.33 2097 279.19C2085.18 286.05 2071 294.28 2065.5 297.47C2060 300.67 2046.28 308.68 2035 315.28C2023.72 321.88 2010.45 329.64 2005.5 332.52C1986.63 343.51 1985.04 344.53 1985.02 345.75C1985.01 346.44 1985.17 347 1985.39 347C1986.38 347 2026.43 358.16 2033.5 360.41C2037.9 361.8 2043.12 364.06 2045.1 365.41L2048.7 367.87L2054.4 364.43C2057.53 362.55 2060.32 361 2060.58 361C2060.85 361 2065.44 358.38 2070.78 355.18C2076.13 351.99 2083.2 347.88 2086.5 346.07C2089.8 344.25 2098.8 339.06 2106.5 334.53C2114.2 330 2127.03 322.56 2135 318.01C2142.97 313.46 2155.8 306.03 2163.5 301.52C2171.2 297 2185.6 288.67 2195.5 283.01C2205.4 277.34 2214.62 271.94 2216 271.01C2217.38 270.07 2220.97 267.95 2224 266.3C2227.03 264.64 2233.55 260.91 2238.5 258.01C2243.45 255.11 2251.1 250.71 2255.5 248.24C2259.9 245.77 2271.38 239.16 2281 233.55C2290.62 227.94 2309.1 217.19 2322.07 209.67C2335.03 202.14 2346.46 195.39 2347.46 194.65C2349.04 193.5 2347.31 193.21 2335.1 192.61C2320.26 191.88 2311.28 189.88 2305.5 186.03C2299.2 181.84 2291.81 173.4 2288.41 166.51C2282.92 155.4 2280.69 142.52 2281.31 125.5C2282.39 95.89 2291.89 77.16 2310.25 68.46C2319.26 64.2 2325.44 63 2338.5 63C2351.46 63 2357.2 64.1 2365.64 68.21C2379.09 74.77 2386.42 84.07 2391.24 100.7C2393.22 107.52 2393.49 110.7 2393.45 126C2393.39 145.78 2392.3 151.48 2386.3 163.39C2382.16 171.61 2372.06 182.63 2365.44 186.14C2363 187.44 2361 188.86 2361 189.3C2361 189.74 2362.24 191.16 2363.75 192.46L2366.5 194.83L2367.15 227.16C2368.03 271.05 2368.01 1418.79 2367.13 1461.37L2366.43 1495.24L2363.66 1497.62L2360.89 1500L1632.69 1499.78C1232.19 1499.66 898.42 1499.44 891 1499.29ZM473.49 1481.01C473.83 1480.47 474.6 1475.99 475.21 1471.05C479.42 1436.84 463.85 1398.11 434.67 1370.24C422.11 1358.24 402.91 1345.99 396.67 1346C395.48 1346.01 390 1348.64 384.5 1351.85C379 1355.07 362.12 1364.79 347 1373.47C300.04 1400.41 279.84 1412.09 270.6 1417.65C265.7 1420.59 261.59 1423 261.45 1423C261.31 1423 255.5 1426.38 248.53 1430.5C241.56 1434.62 235.7 1438 235.5 1438C235.3 1438 225.32 1443.76 213.32 1450.81C201.32 1457.85 185.43 1467.15 178 1471.46C162.07 1480.73 163.65 1479.62 164.46 1480.93C165.34 1482.37 472.61 1482.45 473.49 1481.01ZM2350.51 927C2350.51 269.85 2350.39 215 2348.86 215C2348.25 215 2344.09 217.19 2339.62 219.88C2335.16 222.56 2326.1 227.82 2319.5 231.58C2312.9 235.33 2302.32 241.39 2296 245.04C2267.66 261.39 2250.53 271.27 2238 278.47C2230.57 282.74 2220.9 288.38 2216.5 290.99C2209.01 295.44 2182.44 310.78 2135.5 337.75C2124.5 344.07 2111.68 351.49 2107 354.24C2098.54 359.21 2088.4 365.12 2070.75 375.37C2065.66 378.33 2056.55 383.56 2050.5 387.01C2044.45 390.45 2035.9 395.39 2031.5 397.99C2027.1 400.59 2020.35 404.51 2016.5 406.71C2012.65 408.91 1999.38 416.57 1987 423.74C1925.26 459.5 1912.58 466.85 1901.5 473.3C1894.9 477.13 1886.35 482.07 1882.5 484.26C1878.65 486.45 1871.45 490.61 1866.5 493.51C1861.55 496.4 1842.88 507.21 1825 517.52C1807.12 527.83 1790.03 537.73 1787 539.53C1783.97 541.32 1771.15 548.76 1758.5 556.05C1745.85 563.34 1731.9 571.44 1727.5 574.05C1723.1 576.66 1717.92 579.67 1716 580.75C1708.32 585.06 1684.68 598.69 1670.5 606.99C1653.9 616.71 1615.27 639.04 1584.5 656.73C1573.5 663.05 1560.9 670.35 1556.5 672.97C1552.1 675.58 1545.12 679.65 1541 682.02C1536.88 684.39 1531.47 687.55 1529 689.05C1526.53 690.55 1519.1 694.8 1512.5 698.5C1505.9 702.2 1494.2 708.95 1486.5 713.48C1478.8 718.02 1459 729.5 1442.5 739C1426 748.49 1410.03 757.72 1407 759.51C1403.97 761.31 1393.17 767.59 1383 773.48C1372.83 779.37 1361.58 785.89 1358 787.97C1354.42 790.04 1347.22 794.22 1342 797.26C1336.78 800.29 1310.9 815.26 1284.5 830.52C1203.15 877.53 1200.39 879.14 1168.5 897.79C1165.2 899.72 1160.47 902.44 1158 903.84C1154.09 906.05 1084.21 946.47 1038 973.25C1029.47 978.19 1020.48 983.38 1018 984.78C1012.83 987.71 988.76 1001.68 975.5 1009.44C963.14 1016.67 925.08 1038.69 904.5 1050.51C895.15 1055.88 882.33 1063.31 876 1067.02C869.67 1070.73 854.15 1079.72 841.5 1087C828.85 1094.28 816.48 1101.46 814 1102.96C809.23 1105.84 788.23 1118.01 776.5 1124.69C772.65 1126.88 762.52 1132.75 754 1137.73C735.93 1148.29 697.42 1170.56 664 1189.78C651.08 1197.22 636.23 1205.87 631 1209.01C625.77 1212.15 611.83 1220.24 600 1226.98C588.17 1233.73 573.77 1242.05 568 1245.47C557.42 1251.74 516.43 1275.44 490.5 1290.27C482.8 1294.68 472.23 1300.84 467 1303.96C459.19 1308.63 435.61 1322.3 419.51 1331.5C417.58 1332.6 416 1333.8 416 1334.18C416 1334.55 418.81 1336.55 422.25 1338.62C433.26 1345.25 439.27 1350.06 449.5 1360.42C466.24 1377.39 479.06 1397.92 486.93 1420.38C492.16 1435.34 494.29 1456.23 492.46 1474.75L491.74 1482L1421.12 1481.75L2350.5 1481.5L2350.51 927ZM537 1444.35C521.04 1441.96 512.98 1438.78 511.05 1434.13C509.31 1429.91 510.06 1421.6 512.22 1421.19C513.17 1421.01 517.89 1422.42 522.72 1424.33C541.27 1431.64 555.14 1430.96 563.14 1422.34C570.96 1413.92 571.69 1403.28 564.98 1395.64C559.88 1389.83 551.61 1386.91 537.72 1386.02C527.79 1385.39 525.42 1384.93 524.33 1383.43C522.61 1381.08 522.61 1373.57 524.33 1372.14C525.06 1371.53 531.02 1370.57 537.57 1369.99C547.43 1369.13 550.11 1368.53 553.16 1366.51C557.94 1363.35 561.63 1358.43 563.63 1352.58C564.99 1348.57 565.04 1347.22 563.95 1343.31C560.42 1330.72 546.32 1326.63 529.93 1333.45C515.5 1339.46 514.99 1339.6 513.97 1337.98C512.54 1335.72 512.82 1329.25 514.49 1326.02C517.84 1319.53 537.14 1313.36 551 1314.34C566.06 1315.4 575.17 1320.25 580.44 1330.03C584.5 1337.55 585.18 1348.89 582.06 1357.15C579.72 1363.35 573.4 1371.23 568.89 1373.56C567.3 1374.38 566 1375.43 566 1375.89C566 1376.35 568.9 1378.15 572.45 1379.9C584.85 1386 590.74 1396.07 589.73 1409.41C588.75 1422.31 582.12 1432.64 570.42 1439.5C563.45 1443.58 547.38 1445.91 537 1444.35ZM639 1443.68C628.01 1441.1 620.73 1435.32 615.51 1425.02C610.21 1414.57 609.56 1409.74 609.53 1381C609.5 1352.25 610.02 1348.38 615.67 1335.79C619.16 1328.02 628.77 1318.93 636.17 1316.38C645.98 1313.01 664.72 1314.37 674.22 1319.14C683.89 1324 688.8 1331.04 692.69 1345.64C695.1 1354.72 695.32 1357.17 695.41 1376.5C695.51 1398.66 694.96 1403.08 690.37 1417.2C686.25 1429.87 677.3 1439.02 665.55 1442.57C658.5 1444.69 645.63 1445.23 639 1443.68ZM659.56 1427.63C672.56 1421.57 676.96 1409.28 676.96 1379C676.97 1343.54 670.08 1329.95 652.13 1330.02C631.53 1330.1 624.13 1350.37 628.01 1396C629.8 1417.05 633.59 1424.38 644.84 1428.51C650.21 1430.49 653.89 1430.27 659.56 1427.63ZM726.14 1354.63C721.16 1352.83 715.01 1347.24 712.9 1342.59C709.09 1334.2 710.99 1322.01 717.07 1315.93C724.89 1308.11 742.45 1307.8 751.57 1315.32C761.06 1323.14 761.35 1338.59 752.19 1348.38C746.07 1354.91 734.56 1357.68 726.14 1354.63ZM741.6 1339.6C744.24 1336.96 745 1335.37 745 1332.5C745 1329.63 744.24 1328.04 741.6 1325.4C738.73 1322.53 737.49 1322 733.67 1322C729.93 1322 728.77 1322.47 726.97 1324.75C724.02 1328.49 724.57 1336.85 728.01 1340.51C731.62 1344.35 737.22 1343.98 741.6 1339.6ZM53.5 1322.85C50.04 1320.95 49 1318.78 49 1313.44C49 1298.45 69.26 1248.49 88.58 1215.83C106.54 1185.47 131.93 1155.86 160.5 1131.96C181.52 1114.39 197.19 1103.52 221.5 1089.69C242.5 1077.75 248.59 1074.57 265.96 1066.51C306.29 1047.8 352.42 1031.23 440 1004C599.82 954.3 649.73 935.32 737.5 890.84C779.88 869.37 812.8 850.18 851 824.67C957.35 753.66 1041.56 667.87 1098.52 572.5C1115.46 544.14 1135.23 504.54 1144.96 479.5C1153.12 458.52 1155.69 455.18 1162.75 456.45C1164.81 456.82 1172.12 458.87 1179 461C1201.89 468.09 1230.27 474.27 1264 479.5C1288.39 483.28 1348.84 483.75 1382 480.41C1448.61 473.7 1524.86 450 1593 414.84C1602.62 409.87 1612.97 404.35 1616 402.56C1672.92 369.03 1709.97 342.89 1757 303.11C1781.28 282.57 1785.73 278.39 1864 202.39C1936.62 131.88 1958.4 112.5 1988.85 91.27C2031.17 61.77 2069.08 45.23 2112.5 37.34C2124.95 35.08 2170.06 34.79 2184.5 36.88C2205.2 39.88 2230.48 46.7 2252 55.1C2266.08 60.6 2270.2 62.85 2272.45 66.29C2274.55 69.49 2272.84 74.52 2268.96 76.52C2265.7 78.21 2261.69 77.17 2236 68.01C2199.05 54.85 2172.37 50.84 2135.78 52.98C2113.2 54.29 2108.26 55.13 2087.5 61.15C2054.16 70.81 2021.7 88.04 1985.87 115.1C1957.54 136.49 1942.31 150.42 1869.5 221.55C1815.67 274.13 1797.51 291.22 1774.07 311.32C1641.63 424.94 1506.17 487.75 1369.13 499.1C1350.69 500.62 1286.54 499.67 1269.5 497.61C1241.48 494.23 1198.27 485.32 1174.14 477.94C1167.06 475.78 1165 475.55 1165 476.95C1165 478.31 1155.23 500.48 1145.16 521.99C1100.65 617.02 1033.56 701.75 942 778.57C892.22 820.32 823.31 865.96 762 897.77C756.23 900.77 750.6 903.77 749.5 904.45C745.33 907.01 695.78 930.57 679.5 937.73C614.24 966.44 569.05 982.43 446 1020.36C400.34 1034.43 349.79 1051.25 321.5 1061.79C283.62 1075.9 236.72 1099.23 207.45 1118.53C173.11 1141.16 136.55 1176.09 114.35 1207.5C97.12 1231.87 78.7 1270.23 68.99 1302C65.28 1314.11 63.76 1317.44 60.2 1321.25C57.38 1324.26 56.48 1324.48 53.5 1322.85ZM953.74 524.63C945.02 521.38 935.05 511.69 925.08 496.75C912.05 477.25 905.03 457.53 905.01 440.34C904.99 429.4 911.53 416.04 920.86 407.95C926.37 403.17 937.52 397.54 944.81 395.85C951.36 394.34 955.99 396.14 957.99 400.97C959.7 405.09 958.02 406.89 950.77 408.72C938.03 411.94 926.59 420.32 923.3 428.84C920.54 435.98 920.99 448.39 924.37 458.71C925.85 463.23 927.46 467.17 927.94 467.46C928.43 467.76 930.68 465.64 932.96 462.75C943.42 449.46 961.85 440.55 974.84 442.5C992.64 445.17 1009.04 469.14 1006.68 489.05C1005.24 501.17 993.61 515.73 980.25 522.13C974.74 524.77 972.03 525.43 965.5 525.7C960.33 525.91 956.17 525.54 953.74 524.63ZM976.51 507.65C986.5 502.99 990.91 494.22 989.03 482.7C987.47 473.12 980.86 463.09 974.3 460.35C967.99 457.72 958.96 458.98 952.5 463.4C947.76 466.64 941.07 473.2 938.84 476.78C935.64 481.93 937.85 486.94 948.64 498.95C958.56 509.99 966.29 512.41 976.51 507.65ZM1033.5 473.88C1021.28 467.48 1006.64 448.86 995.09 425.03C988.03 410.46 986.75 405.26 986.69 390.94C986.63 378 988.49 373.34 997.11 364.85C1005.33 356.76 1014.21 352.6 1024.27 352.14C1034.48 351.67 1039.97 353.16 1048.17 358.61C1064.67 369.58 1085.27 403.22 1089.76 426.54C1091.67 436.42 1090.76 444.71 1086.9 452.75C1083.34 460.14 1074.39 468.44 1065.34 472.73C1058.45 476.01 1056.54 476.46 1048.53 476.73C1040.06 477.01 1039.13 476.83 1033.5 473.88ZM1058.34 460.07C1064 457.64 1070.89 451.49 1072.65 447.28C1074.62 442.59 1074.3 433.2 1071.92 425.36C1069.58 417.67 1061.15 401.08 1054.82 391.7C1049.23 383.41 1038.44 372.29 1033.5 369.71C1027.64 366.66 1020.38 366.98 1013.21 370.61C1005.68 374.42 1002.47 380.27 1002.57 390C1002.78 410.16 1027.3 450.99 1044.27 459.45C1050.41 462.51 1052.44 462.6 1058.34 460.07ZM1167.5 401.61C1158.26 398.7 1148.37 389.53 1140.85 376.87C1128.2 355.57 1127.82 335.4 1139.84 322C1145.77 315.38 1153.41 310.63 1161.46 308.54C1173.21 305.5 1179.47 307.16 1184.03 314.55L1186.35 318.3L1184.06 320.15C1182.25 321.62 1180.06 322 1173.45 322C1164.35 322 1161.44 322.78 1155.67 326.74C1144.74 334.27 1145.49 351.99 1157.51 369.91C1168.55 386.37 1178.63 390.51 1190.59 383.5C1195.49 380.63 1202.79 372.4 1205.9 366.25C1208.38 361.34 1210.13 360.96 1213.53 364.62C1218.81 370.32 1217.29 377.85 1208.95 387.31C1198.03 399.72 1180.61 405.73 1167.5 401.61ZM1240.25 361.99C1238.46 359.25 1234.02 351.94 1230.38 345.75C1226.75 339.56 1222.77 332.93 1221.54 331C1215.68 321.82 1199 291.18 1199 289.6C1199 287.06 1204.74 282 1207.62 282C1209.29 282 1210.85 283.2 1212.76 285.96C1215.87 290.45 1216.95 290.89 1217.72 287.95C1219.09 282.72 1225.07 272.13 1228.59 268.73C1236.1 261.45 1248.89 259.01 1258.88 262.95C1264.82 265.29 1264.68 265.4 1268.88 254.5C1274.43 240.08 1282.19 234.01 1296.1 233.2C1309.15 232.44 1316.56 237.16 1326.45 252.5C1332.15 261.36 1338.56 272.43 1348.41 290.46L1354.95 302.42L1352.73 304.81C1350.77 306.91 1344.03 311 1342.53 311C1341.75 311 1333.65 298.24 1326.91 286.4C1317.69 270.19 1308.64 256.76 1304.52 253.15C1300.84 249.92 1300.42 249.81 1293.88 250.18C1284.81 250.69 1281.93 253.32 1278.48 264.26C1277.11 268.57 1276 272.99 1276 274.08C1276 276.4 1280.83 286.22 1289.52 301.55C1303.17 325.64 1306.03 331.14 1305.41 332.15C1304.5 333.62 1295.86 339 1294.4 339C1292.74 339 1287.72 331.74 1279.54 317.5C1269.53 300.09 1262.21 289.24 1256.33 283.13L1251.15 277.76L1244.61 278.17C1234.8 278.8 1232.02 281.89 1227.96 296.69L1225.72 304.87L1233.23 317.69C1248.81 344.27 1256.41 359.12 1255.33 360.87C1254.1 362.83 1247.1 366.97 1245 366.97C1244.17 366.96 1242.04 364.72 1240.25 361.99ZM2353.5 174.26C2370.44 165.39 2379.43 138.82 2374.57 112C2370.71 90.75 2362.04 81.16 2343.8 77.98C2330.66 75.69 2316.23 80.83 2309.31 90.26C2301.63 100.72 2298.03 118.57 2300.02 136.21C2301.99 153.6 2304.61 160.94 2311.3 167.83C2318.89 175.65 2323.14 177.03 2338.5 176.63C2347.35 176.4 2350.28 175.94 2353.5 174.26ZM2332.4 134.62C2330.69 133.85 2329.01 132.46 2328.65 131.53C2327.65 128.93 2327.88 121.1 2329.01 118.98C2330.92 115.41 2342.02 115.17 2345.47 118.61C2347.92 121.06 2347.49 129.33 2344.75 132.48C2342.01 135.63 2336.69 136.55 2332.4 134.62Z" fill="#1e2749" fill-rule="evenodd"/>
</svg>
