<?xml version="1.0" encoding="UTF-8"?>
<svg xmlns="http://www.w3.org/2000/svg" viewBox="0 0 2430 2270" width="2430" height="2270" shape-rendering="geometricPrecision">
<path d="M1060.57 2241.91C1051.37 2236.98 1044.22 2228.91 1038.66 2217.18L1035.5 2210.5L1035.16 2190.95C1034.78 2168.91 1035.63 2162.3 1039.95 2153.47C1044 2145.21 1053.05 2135.36 1057.81 2134.04C1063.61 2132.43 1075.68 2132.76 1079.64 2134.63C1088.29 2138.74 1098.65 2155.87 1101.61 2170.98C1104.61 2186.29 1101.9 2208.44 1095.39 2221.8C1091.91 2228.94 1084.81 2235.8 1076.26 2240.29C1068.13 2244.57 1065.94 2244.79 1060.57 2241.91ZM979.16 2239.06C973 2237.5 972.44 2234.72 978.05 2233.49C983.36 2232.32 984.43 2229.26 984.81 2214.07C985.29 2195.2 983.49 2153.78 982.08 2151.14C981.31 2149.71 979.97 2149 978.02 2149C971.45 2149 973.53 2144.55 982.98 2138.44C991.06 2133.22 994.08 2131.95 996.77 2132.65C1001.01 2133.76 1001.31 2136.48 1002.13 2180.5C1002.56 2203.6 1003.18 2224.38 1003.5 2226.67C1004.15 2231.23 1005.02 2232.26 1009.44 2233.68C1013.22 2234.9 1013.72 2236.53 1010.81 2238.13C1008.07 2239.64 984.21 2240.34 979.16 2239.06ZM1072.22 2231.84C1079.63 2226.57 1084.07 2209.75 1084.11 2186.87C1084.14 2165.55 1081.09 2151.2 1074.92 2143.72C1072.38 2140.64 1071.21 2140 1068.11 2140C1057.81 2140 1053.5 2154.91 1053.54 2190.5C1053.56 2216.12 1055.2 2224.19 1061.8 2231.25C1064.9 2234.56 1068.14 2234.75 1072.22 2231.84ZM552.6 2209.46C521.65 2203.62 490.82 2185.17 472.63 2161.61C462.18 2148.08 457.02 2137.38 452.49 2119.83C450.35 2111.54 449.72 2106.34 449.28 2093.5C447.96 2054.54 457.25 2029.58 482.74 2003.62C492.86 1993.32 503.41 1985.51 515.62 1979.27C535.74 1969 552.73 1965.33 575.45 1966.33C601.89 1967.5 624.47 1974.64 641.5 1987.21C656.1 1997.99 674.52 2018 680.96 2030.07C685.22 2038.07 691.14 2054.31 694.5 2067.24L697.3 2077.98L793.9 2078.24C847.03 2078.38 985.67 2078.5 1102 2078.5L1313.5 2078.5L1314.02 2066.26C1314.7 2050.22 1315.12 2049.73 1324.62 2053.78C1328.4 2055.4 1342.3 2062.41 1355.5 2069.36C1382.69 2083.68 1380.94 2083.5 1383.03 2072.2C1384.62 2063.57 1389.72 2047.95 1394.71 2036.4C1409.73 2001.67 1443.98 1975.48 1483.5 1968.51C1495.22 1966.44 1518.68 1966.41 1530.17 1968.45C1575.2 1976.42 1610.96 2007.34 1624.85 2050.32C1628.85 2062.7 1629.83 2067.21 1631.02 2078.66C1633.55 2103.1 1626.08 2131.58 1611.27 2153.91C1600.23 2170.57 1579.77 2189.05 1563.04 2197.49C1521.18 2218.61 1469.15 2213.71 1431.5 2185.11C1407.27 2166.71 1387.85 2134.12 1382.96 2103.66C1382.23 2099.15 1381.14 2095.61 1380.39 2095.32C1379.68 2095.05 1365.67 2102.06 1349.26 2110.91C1332.85 2119.76 1318.7 2127 1317.82 2127C1315.35 2127 1314.84 2124.57 1314.26 2110.25L1313.72 2097L1006.11 2097.25L698.5 2097.5L696.23 2104.5C694.98 2108.35 693.5 2114.36 692.94 2117.85C691.1 2129.4 682 2145.54 667.62 2162.77C647.56 2186.8 627.06 2200.51 601.23 2207.18C586.69 2210.93 565.62 2211.92 552.6 2209.46ZM603 2179.53C625.99 2172.21 649.05 2151.78 660.86 2128.3C662.58 2124.88 665.19 2118.13 666.67 2113.3C669.08 2105.42 669.37 2102.87 669.43 2089C669.49 2075.7 669.17 2072.37 667.2 2065.5C659.35 2038.12 637.99 2012.23 613.58 2000.51C604.12 1995.97 599.22 1994.98 581.5 1994.02C561.19 1992.92 543.82 1994.19 536.01 1997.34C523.06 2002.57 514.85 2008.15 503.42 2019.5C486.33 2036.46 478.07 2050.76 475.86 2067.16C474.09 2080.27 475.27 2109.92 477.87 2118C486.12 2143.64 518.3 2175.34 541.37 2180.56C550.72 2182.68 595.46 2181.93 603 2179.53ZM1538.23 2179.6C1554.91 2175.91 1580.08 2156.15 1590.81 2138.34C1609.54 2107.23 1610.71 2076.04 1594.35 2043.69C1582.87 2021 1558.34 2000.94 1536.69 1996.54C1518.29 1992.81 1490.29 1992.25 1478.48 1995.38C1468.97 1997.9 1449.32 2009.29 1438.24 2018.71C1427.75 2027.61 1417.32 2046.04 1412.33 2064.5C1410.01 2073.05 1409.61 2076.53 1409.56 2088.5C1409.51 2101.08 1409.79 2103.46 1412.34 2112C1418.09 2131.26 1426.87 2146.01 1439.73 2158.02C1453.79 2171.16 1468.64 2179.39 1481.07 2180.95C1491.97 2182.32 1530.04 2181.42 1538.23 2179.6ZM990.75 1983.26C984.94 1982.81 984.47 1980.81 989.14 1976.44C995.34 1970.63 999.58 1958.51 1011.33 1913C1013.24 1905.58 1015.09 1898.26 1015.43 1896.75C1015.93 1894.47 1015.32 1893.21 1011.87 1889.48C1009.58 1886.99 1008.04 1884.63 1008.44 1884.23C1008.84 1883.83 1026 1883.37 1046.58 1883.2L1084 1882.91L1084 1887.62C1084 1893.09 1081.51 1901.67 1078.92 1905.1C1077.52 1906.97 1077.02 1907.16 1076.65 1905.99C1076.38 1905.17 1075.57 1902.52 1074.83 1900.09C1072.52 1892.44 1067.05 1890.07 1051.65 1890.02C1039.96 1889.99 1036.66 1891.5 1034.55 1897.86C1032.33 1904.52 1030.04 1915.86 1030.02 1920.21C1030 1924.9 1031.87 1925.97 1038.5 1925.06C1044.66 1924.21 1048.47 1922.24 1052.95 1917.59C1054.84 1915.61 1057.26 1914 1058.33 1914C1060.11 1914 1060.23 1914.56 1059.76 1920.75C1058.79 1933.54 1051.67 1949.77 1048.02 1947.51C1047.4 1947.13 1045.83 1944.42 1044.54 1941.49C1043.24 1938.56 1041.27 1935.68 1040.16 1935.08C1037.16 1933.48 1025.5 1933.7 1024.1 1935.38C1022.46 1937.36 1018.03 1957.17 1017.32 1965.73C1016.4 1976.79 1018.98 1978.68 1032.66 1976.98C1044.19 1975.55 1050.48 1972.97 1059.56 1965.96C1068.02 1959.42 1072 1958.29 1072 1962.45C1072 1965.37 1067.21 1980.97 1065.77 1982.75C1064.99 1983.71 1056.8 1983.96 1030.13 1983.82C1011.08 1983.72 993.36 1983.47 990.75 1983.26ZM563.32 1870.01C557.33 1866.58 555 1863.7 555 1859.75C555 1854.11 561.48 1853.88 575.77 1859.04C584.12 1862.05 587.82 1861 594.77 1853.65C602.53 1845.44 603.84 1837.51 599.07 1827.65C594.53 1818.26 585.02 1811.44 572.4 1808.51C563.51 1806.45 561 1804.79 561 1800.98C561 1794.93 575.21 1766.06 579.29 1763.81C582.39 1762.11 607.17 1761.44 612.13 1762.92C616.55 1764.24 617.01 1766.06 614.37 1771.64C611.9 1776.84 608.34 1778.14 594.25 1778.98C580.01 1779.82 578.73 1780.5 578.59 1787.19L578.5 1791.49L585.63 1793.99C599.2 1798.76 606.91 1805.37 612.4 1816.95C616.65 1825.92 616.7 1835.36 612.57 1845.31C607.47 1857.59 598.08 1865.51 582.25 1870.88C573.7 1873.78 569.56 1873.59 563.32 1870.01ZM505.5 1868.35C498.16 1867.9 495 1867.23 495 1866.11C495 1865.65 496.84 1864.05 499.08 1862.57C505.91 1858.05 506.33 1856.09 506.79 1826.5C507.21 1798.81 506.13 1783.37 503.46 1779.31C502.05 1777.15 501.37 1776.93 497.93 1777.51C494.45 1778.1 494 1777.95 494 1776.19C494 1771.93 508.33 1763 515.18 1763C517.6 1763 518.38 1763.64 519.74 1766.75C521.19 1770.06 521.36 1775.63 521.21 1814C521.11 1837.92 521.26 1858.22 521.54 1859.11C521.82 1859.99 524.73 1861.79 528.02 1863.09C537.24 1866.75 536.06 1867.62 521 1868.3C515.77 1868.53 508.8 1868.56 505.5 1868.35ZM1519.18 1863.93C1508.95 1861.92 1500.47 1852.28 1494.92 1836.34C1485.69 1809.84 1499.81 1777.36 1528 1760.28C1533.29 1757.07 1551.54 1752.68 1554.04 1754.02C1557.73 1755.99 1554.28 1759.39 1546 1761.94C1541.15 1763.43 1530.23 1771.85 1524.61 1778.42C1520.32 1783.44 1517.3 1788.89 1515.52 1794.8L1514.83 1797.11L1527.19 1796.42C1541.76 1795.61 1544.46 1796.51 1552.18 1804.76C1556.46 1809.34 1556.86 1810.22 1557.54 1816.53C1558.56 1826.06 1557.54 1842.06 1555.68 1845.65C1554.84 1847.27 1550.8 1851.79 1546.69 1855.69C1540.39 1861.68 1538.41 1862.96 1534.06 1863.89C1528.23 1865.14 1525.38 1865.15 1519.18 1863.93ZM1420.51 1862.12C1418.1 1861.74 1416.42 1860.91 1416.26 1860C1415.97 1858.36 1420.58 1852.8 1437.77 1834.01C1450.44 1820.17 1455.91 1812.52 1458.92 1804.48C1466.68 1783.75 1460.84 1770.49 1444.01 1770.65C1436.34 1770.72 1434.39 1771.59 1427.17 1778.15C1424.24 1780.82 1421.2 1783 1420.42 1783C1416.43 1783 1421.97 1768.15 1428.13 1762.3C1436.04 1754.79 1449.44 1752.45 1459.35 1756.83C1473.87 1763.25 1479.96 1774.82 1477.09 1790.54C1475 1802.02 1466.95 1814.23 1447.26 1835.76C1435.84 1848.25 1435.93 1848.41 1454.27 1847.71C1462.82 1847.39 1470.84 1846.52 1474.35 1845.53C1477.57 1844.63 1481.25 1844.02 1482.53 1844.19L1484.86 1844.5L1482.98 1849.81C1481.95 1852.73 1480.29 1856.78 1479.3 1858.81L1477.5 1862.5L1451 1862.62C1436.42 1862.68 1422.7 1862.45 1420.51 1862.12ZM1534.01 1854.99C1545.22 1847.01 1544.16 1816.35 1532.37 1807.07C1529.34 1804.69 1521.75 1804.25 1517.47 1806.2C1511.87 1808.75 1509.05 1820.28 1511.01 1832.55C1512.83 1843.94 1516.67 1850.89 1523.5 1855.13C1527.37 1857.53 1530.5 1857.49 1534.01 1854.99ZM769 1332.36C759.06 1330.44 743.14 1326.25 736.06 1323.71C711.24 1314.78 678.43 1282.99 667.69 1257.46C661.87 1243.61 658.74 1225.53 658.72 1205.5C658.7 1189.17 660.7 1176.94 665.08 1166.66C669.33 1156.65 669.22 1156.27 661.75 1155.61C658.31 1155.31 645.83 1154.8 634 1154.49C622.17 1154.18 610.81 1153.66 608.75 1153.33C605.42 1152.81 605 1152.42 605 1149.85C605 1148.26 607.25 1142.48 610 1137C612.75 1131.52 615 1126.11 615 1124.97C615 1122.71 611.77 1120.53 591.32 1109.04C584.62 1105.27 566.85 1094.9 551.82 1085.98C515.54 1064.45 498.47 1054.39 487 1047.77C481.77 1044.76 470.07 1037.88 461 1032.48C451.93 1027.08 433.93 1016.49 421 1008.96C408.07 1001.42 389.62 990.64 380 984.99C370.38 979.34 353.27 969.33 342 962.75C330.73 956.16 311.82 945.03 300 938.02C288.18 931 271.75 921.29 263.5 916.45C255.25 911.6 243.32 904.56 237 900.79C230.68 897.02 224.46 893.67 223.2 893.35C221.59 892.93 216.25 894.89 205.54 899.82C181.7 910.79 183.23 910.5 149.5 910.5L120.5 910.49L112.71 907.74C68.35 892.06 37.1 856.77 28.36 812.5C26.01 800.56 26.01 776.59 28.37 766C36.64 728.86 58.99 698.62 89.27 683.59C100.72 677.91 119.27 671.58 130.82 669.41C157.34 664.44 190.28 671.16 216.25 686.85C220.94 689.68 225.57 692 226.54 692C227.51 692 233.07 687.35 238.9 681.66C253.23 667.68 292.19 631.31 327.98 598.5C375.16 555.24 395.4 536.56 413.02 520.01C422.11 511.48 448.64 486.73 471.98 465C532.29 408.87 559.99 383.02 579.49 364.66C588.84 355.85 599.41 346.23 602.97 343.29C606.53 340.36 609.81 337.3 610.26 336.5C611.37 334.51 609.22 330.68 603.08 323.68C597.48 317.29 594.61 312.47 595.31 310.63C595.89 309.13 603.07 306.86 622.91 301.89C641.43 297.26 654.04 293.06 654.71 291.31C654.98 290.61 653.26 286.55 650.89 282.27C636.11 255.57 632 241.11 632 215.78C632 196.71 636.98 175.06 645.05 159C660.56 128.17 699 100.07 731.21 96.03C741.93 94.69 765.09 94.72 776.5 96.09C799.56 98.86 824.68 112.46 845.5 133.45C857.45 145.5 862.01 152.3 868.68 168C873.93 180.36 876.62 188.64 878.78 199.04L880.53 207.5L1075.43 207.75C1255.73 207.99 1270.47 207.88 1272.17 206.35C1273.56 205.09 1274 203.22 1274.02 198.6C1274.05 190.58 1275.61 179.99 1276.97 178.63C1278.66 176.94 1286.53 180.15 1304.5 189.82C1335.08 206.29 1333.9 205.76 1335.49 203.64C1336.26 202.61 1337.87 197.46 1339.07 192.18C1344.84 166.86 1354.35 148.87 1371.19 131.43C1382.04 120.2 1393.02 112.2 1407.73 104.81C1424.66 96.31 1429.06 95.56 1461.5 95.54C1491.36 95.53 1492.74 95.74 1507.69 102.56C1532.32 113.78 1546.69 124.8 1560.35 142.93C1575.12 162.54 1587 194.27 1587 214.11C1587 227.3 1580.7 250.57 1571.52 271.33C1568.48 278.18 1566 284.46 1566 285.28C1566 287.14 1569.53 290.25 1590.07 306.49C1599.11 313.64 1646.59 351.44 1695.58 390.49C1744.58 429.55 1793.85 468.68 1805.08 477.46C1834.73 500.62 1869.84 528.7 1874.74 533.16C1878.87 536.92 1912.96 562.55 1922.04 568.72C1925.36 570.98 1927.03 571.56 1928.23 570.89C1929.13 570.39 1933.06 565.93 1936.96 560.99C1941.44 555.3 1944.74 552 1945.95 552C1949.71 552 1952.33 557.08 1966.31 591.5C1971.25 603.67 1974.09 609.47 1975.08 609.4C1975.89 609.34 1982.16 605.06 1989.02 599.87C2014.77 580.41 2036.78 572.76 2067 572.76C2112.08 572.76 2150.98 594.7 2174.1 633.16C2186.46 653.74 2193.65 685.35 2190.92 707.14C2188.85 723.65 2180.45 746.54 2171.53 759.95C2165.6 768.87 2151.17 784.06 2141.82 791.22C2119.79 808.09 2090.14 817.06 2061 815.65C2037.02 814.5 2018.71 808.56 1995.26 794.32C1991.22 791.87 1987.31 790.01 1986.57 790.18C1985.82 790.36 1978.47 798.6 1970.23 808.5C1961.99 818.4 1952.24 829.42 1948.57 833C1940.65 840.7 1941.43 841.11 1934 825.38C1931.37 819.81 1928.74 814.95 1928.15 814.59C1926.81 813.77 1917.62 817.18 1866.5 837.45C1843.95 846.39 1812 859.01 1795.5 865.49C1779 871.98 1761.22 878.99 1756 881.09C1750.78 883.18 1742.22 886.45 1737 888.36C1731.78 890.26 1718.05 895.62 1706.5 900.26C1694.95 904.9 1674.25 913.11 1660.5 918.5C1646.75 923.89 1613.45 937.05 1586.5 947.75C1559.55 958.44 1525.35 971.84 1510.5 977.51C1481.92 988.43 1413.13 1015.58 1394.29 1023.37C1388.13 1025.91 1382.58 1028 1381.97 1028C1381.36 1028 1375.83 1030.23 1369.68 1032.95C1363.53 1035.67 1354.67 1039.24 1350 1040.86C1333.53 1046.61 1294.11 1061.88 1259.5 1075.94C1220.78 1091.67 1203.25 1098.51 1189 1103.45C1183.78 1105.26 1168.92 1111.01 1156 1116.23C1123.74 1129.26 1053.98 1156.77 977 1186.81C962.98 1192.29 941.54 1200.71 929.37 1205.53L907.24 1214.29L905.63 1224.68C903.58 1237.97 900.39 1247.53 893.02 1262.5C882.64 1283.56 870.45 1297.27 849.15 1311.83C836.23 1320.66 827.36 1324.7 812.18 1328.67C800.35 1331.76 796.67 1332.29 785 1332.55C777.58 1332.71 770.38 1332.63 769 1332.36ZM813 1301.53C830.49 1295.96 852.52 1279.44 862.97 1264.04C868.9 1255.31 875.89 1240.59 877.61 1233.23C879.47 1225.26 879.77 1195.26 878.07 1187.73C876.47 1180.71 869.46 1165.63 863.52 1156.45C852.36 1139.22 838.82 1127.8 821.64 1121.13C805.53 1114.88 797.89 1113.49 780 1113.57C766.09 1113.63 763.57 1113.91 755.5 1116.36C736.9 1122.01 720.87 1131.66 709.92 1143.83C699.42 1155.5 689.88 1173.42 684.89 1190.89C680.78 1205.27 683.12 1226.41 690.89 1245.08C700.23 1267.51 716.39 1285.28 736.67 1295.42C750.91 1302.53 759.44 1303.94 786 1303.58C803.1 1303.34 808.63 1302.92 813 1301.53ZM286.25 1193.28C281.94 1192.74 282 1190.48 286.49 1183.71C293.48 1173.18 306.81 1126.49 309.6 1102.75L310.27 1097.01L306.64 1095.49C301.96 1093.54 301.93 1091.29 306.56 1090.42C313.25 1089.17 351.01 1090.64 357.37 1092.41C368.95 1095.62 372.18 1099.91 372.1 1111.96C372.02 1124.23 369.3 1128.75 358.75 1134.11C355.59 1135.71 353 1137.44 353 1137.95C353 1138.45 355.01 1140.52 357.48 1142.53C360.12 1144.7 363.04 1148.43 364.61 1151.64C369.5 1161.63 366.48 1171.86 355.78 1181.54C347.41 1189.09 340.32 1191.91 326.86 1193.03C315.78 1193.94 292.76 1194.08 286.25 1193.28ZM941.82 1181.05C1001.47 1157.44 1028.07 1147 1028.55 1147C1028.83 1147 1043.33 1141.33 1060.78 1134.4C1145.23 1100.85 1176.35 1088.61 1197.5 1080.6C1210.15 1075.82 1238.5 1064.75 1260.5 1056C1325.4 1030.2 1368.22 1013.38 1372.5 1012.01C1374.7 1011.31 1387.53 1006.35 1401 1001C1452.57 980.51 1502.4 960.83 1525 952.01C1537.92 946.97 1560.88 937.97 1576 932C1591.12 926.04 1613.4 917.34 1625.5 912.66C1645.6 904.89 1693.54 886.05 1722 874.74C1728.33 872.22 1737.33 868.71 1742 866.94C1770.55 856.14 1781.1 851.99 1784.61 850.2C1786.79 849.09 1793.13 846.59 1798.7 844.65C1804.28 842.71 1810.78 840.13 1813.17 838.91C1815.55 837.7 1821.78 835.26 1827 833.49C1832.22 831.72 1853.15 823.51 1873.5 815.23C1917.84 797.21 1919.6 796.45 1920.41 795.14C1920.76 794.57 1919.46 789.21 1917.52 783.21C1915.59 777.22 1914 771.57 1914 770.65C1914 769.26 1915.19 769 1921.48 769C1928.5 769 1954.88 770.53 1963.31 771.42C1965.81 771.69 1967.3 771.38 1967.62 770.55C1967.89 769.84 1963.1 759.69 1956.97 747.99L1945.83 726.71L1946.21 695.11L1946.59 663.5L1949.69 655.5C1951.39 651.1 1954.89 643.06 1957.45 637.64C1960.02 632.22 1961.9 627.57 1961.64 627.31C1960.59 626.26 1941.57 621.93 1925.5 619.08C1907.52 615.89 1896 612.59 1896 610.64C1896 609.99 1900.5 604.98 1906 599.5C1911.5 594.02 1916 589.08 1916 588.52C1916 587.96 1906.89 580.31 1895.75 571.53C1884.61 562.74 1849.85 535.05 1818.5 509.98C1787.15 484.91 1751.6 456.79 1739.5 447.49C1715.79 429.25 1675.76 397.43 1654 379.5C1646.58 373.38 1634.42 363.7 1627 357.98C1619.58 352.26 1602.92 339.23 1590 329.03C1564.15 308.62 1556.69 302.96 1553.13 301.06C1550.93 299.89 1550.36 300.19 1545.13 305.31C1532.04 318.11 1506.91 330.55 1480.89 337.12C1469.67 339.95 1467.51 340.19 1458 339.69C1442.88 338.89 1423.83 333.92 1406.69 326.3C1402.39 324.39 1398.3 323.06 1397.59 323.33C1396.17 323.87 1395.95 325.18 1392.93 350.9C1389.89 376.79 1387.71 386 1384.62 386C1383.9 386 1380.43 384.13 1376.91 381.85C1367.84 375.98 1359.28 372.11 1353.71 371.37C1348.83 370.72 1347 369.06 1347 365.27C1347 363.04 1341.39 357.53 1334.5 353C1328.22 348.87 1323 344.01 1323 342.29C1323 340.14 1333.17 334.26 1355.99 323.23C1367.82 317.51 1378.05 312.37 1378.73 311.81C1379.66 311.04 1378.09 308.65 1372.38 302.14C1354.09 281.29 1344.33 262.21 1338.44 235.8C1337.4 231.12 1336.14 227.88 1335.22 227.53C1333.68 226.94 1323.16 231.9 1296.09 245.98C1280.51 254.08 1277.78 255.02 1276.31 252.75C1275.86 252.06 1275.28 245.88 1275 239L1274.5 226.5L1110.5 226.4C955.91 226.3 886.32 226.94 881.32 228.51C879.72 229.02 878.96 230.29 878.46 233.35C875.93 248.87 862.92 278.1 853.26 290C845.33 299.77 840.51 304.33 829.21 312.78C798.98 335.36 762.69 344.3 731.96 336.73C713.41 332.17 699.83 326.08 680.87 313.83C674.91 309.97 669.51 307 668.86 307.21C668.22 307.43 664.89 316.58 661.46 327.55C653.93 351.68 649.57 363.17 647.13 365.38C645.43 366.92 645.12 366.89 642.4 364.82C640.81 363.6 636.71 360.03 633.3 356.88C629.9 353.74 626.15 350.87 624.99 350.5C621.76 349.47 617.46 352.93 589.65 378.88C575.82 391.79 551.9 414.11 536.5 428.49C521.1 442.86 494.32 467.83 477 483.97C459.68 500.11 441.67 516.96 436.99 521.41C432.31 525.86 412.75 543.9 393.51 561.5C374.27 579.1 344.13 606.97 326.52 623.42C308.91 639.88 282.46 664.56 267.75 678.27C253.04 691.98 241 703.66 241 704.21C241 704.77 244.41 710.01 248.58 715.86C267.22 742 275.08 767.1 273.67 795.94C272.28 824.43 264.85 843.47 246.11 866.54C241.66 872.02 238.01 877.26 238.01 878.19C238 880.36 251.05 888.55 297.5 915.49C337.4 938.64 398.01 974.27 403 977.52C404.93 978.77 414.38 984.4 424 990.02C440.66 999.76 450.96 1005.82 494.5 1031.5C504.95 1037.67 520.25 1046.67 528.5 1051.52C536.75 1056.36 559.02 1069.54 578 1080.82C613.75 1102.05 621.01 1105.97 624.65 1105.99C627.36 1106 631.86 1100.91 636.01 1093.14C640.03 1085.58 642.49 1083.2 644.81 1084.61C646.91 1085.88 651.52 1093 665.3 1116.26C671.24 1126.29 676.75 1135.37 677.54 1136.43C678.91 1138.26 679.7 1137.65 692.25 1125.32C710.43 1107.45 723.56 1099.11 744.59 1092.08C756.27 1088.17 764.35 1087.04 780.81 1087.02C795.61 1087 803.86 1088 818.18 1091.58C823.51 1092.91 828.55 1094 829.4 1094C830.25 1094 832.81 1091.41 835.11 1088.25C843.41 1076.81 847.52 1073.92 850.8 1077.2C852.86 1079.26 852.16 1081.5 847 1089.4C844.25 1093.62 842 1097.66 842 1098.38C842 1099.11 846.41 1103.09 851.79 1107.24C872.18 1122.95 886.76 1140.19 894.49 1157.76C896.85 1163.13 899.74 1169.14 900.9 1171.11C902.11 1173.16 903.41 1177.84 903.94 1182.06C904.95 1190.13 906.33 1192 911.26 1192C912.84 1192 926.59 1187.07 941.82 1181.05ZM329.13 1182.47C338.54 1179.27 346.07 1169.98 346.35 1161.24C346.65 1151.79 340.14 1144.8 329.71 1143.37C320.13 1142.06 318.7 1143.86 315.03 1161.85C311.47 1179.31 312.6 1184 320.38 1184C322.72 1184 326.66 1183.31 329.13 1182.47ZM1484.33 1170.97C1480.39 1170.56 1476.68 1169.92 1476.08 1169.55C1473.97 1168.25 1475.05 1166.14 1478.74 1164.33C1480.8 1163.32 1483.04 1161.38 1483.73 1160C1485.22 1157 1485.44 1108.27 1484.04 1092.54C1483.09 1081.92 1482.06 1080 1477.31 1080C1474.1 1080 1474.31 1077.02 1477.75 1073.78C1482.44 1069.35 1492.27 1064.01 1495.72 1064C1498.34 1064 1499.27 1064.61 1500.68 1067.25C1502.22 1070.13 1502.48 1075.45 1503.04 1114.5C1503.45 1143.29 1504.06 1159.43 1504.79 1161.2C1505.57 1163.08 1507.12 1164.26 1509.95 1165.1C1517.36 1167.32 1514.45 1169.58 1502.44 1170.96C1497.52 1171.52 1493.05 1171.93 1492.5 1171.86C1491.95 1171.79 1488.27 1171.39 1484.33 1170.97ZM1574.04 1169.07C1573.47 1168 1573 1162.43 1573 1156.68L1573 1146.23L1556.25 1145.75C1538.96 1145.26 1533.73 1144.23 1531.98 1140.96C1529 1135.39 1532.51 1128.58 1555.46 1095.5C1575.9 1066.04 1579.19 1062 1582.75 1062C1587.53 1062 1588.55 1067.76 1589.94 1102.29C1590.87 1125.27 1591.7 1129 1595.89 1129C1598.56 1129 1603 1132.82 1603 1135.12C1603 1139.02 1599.92 1143.15 1595.57 1145.07C1591.6 1146.83 1591.23 1147.32 1590.64 1151.63C1590.29 1154.18 1590 1158.85 1590 1161.98C1590 1169.42 1588.37 1171 1580.71 1171C1576.16 1171 1574.87 1170.63 1574.04 1169.07ZM342.12 1129.59C346.35 1127.83 353.68 1120.13 354.59 1116.5C356.52 1108.82 351.25 1100.85 343.1 1099.13C337.57 1097.96 333.26 1098.65 332.06 1100.89C330.14 1104.48 322.98 1130.15 323.61 1131.18C324.51 1132.64 337.49 1131.53 342.12 1129.59ZM1572.5 1110C1572.5 1094.54 1572.26 1091.5 1571.06 1091.5C1568.3 1091.5 1546 1123.65 1546 1127.63C1546 1128.81 1548.31 1129.01 1559.25 1128.78L1572.5 1128.5L1572.5 1110ZM862 1057.12C862 1054.99 862.73 1051.5 863.62 1049.37C865.71 1044.36 874.73 1031.3 877.39 1029.44C879.98 1027.63 883.41 1027.59 884.88 1029.36C886.84 1031.71 877.29 1047.64 868.16 1057.25C863.54 1062.11 862 1062.08 862 1057.12ZM895.6 1009.83C894.72 1008.58 894 1006.6 894 1005.43C894 1003.39 909.85 982.43 914.17 978.75C916.76 976.54 919.59 976.5 920.42 978.66C921.77 982.17 917.85 989.83 909.21 1000.62C904.42 1006.59 899.76 1011.62 898.85 1011.8C897.94 1011.97 896.47 1011.09 895.6 1009.83ZM929.67 962.33C927.31 959.98 933.2 948.52 943.73 935C948.67 928.67 950.04 927.5 952.54 927.5C955.28 927.5 955.52 927.8 955.78 931.5C956.01 934.68 955.39 936.44 952.78 940.13C950.98 942.68 947.62 947.44 945.33 950.71C938.73 960.12 932.26 964.92 929.67 962.33ZM483 937.52C482.18 937.31 479.81 936.86 477.75 936.52C472.98 935.74 472.43 932.5 476.9 931.52C482.96 930.19 483.35 928.85 484.13 906.72C484.88 885.58 483.97 850.38 482.62 848.19C482.19 847.49 480.04 846.2 477.86 845.33C474.48 843.98 473.94 843.35 474.2 841.12C474.44 838.99 475.76 837.88 481.18 835.2C493.03 829.34 496.72 829.87 498.99 837.78C499.57 839.83 500.48 857.7 500.99 877.5C501.97 915.2 502.6 925.37 504.12 928.22C504.63 929.17 506.94 930.77 509.27 931.79L513.5 933.63L510.78 935.41C508.67 936.79 505.45 937.27 496.28 937.55C489.8 937.74 483.82 937.73 483 937.52ZM531.67 936.33C529.89 934.56 531.83 931.53 541.75 920.62C565.73 894.24 570.98 886.87 574.48 874.75C579.51 857.35 573.09 845 559.02 845C552.32 845 548.66 846.65 541.57 852.86C538.33 855.69 535.08 858 534.34 858C532.21 858 532.76 853.4 535.56 847.89C541.54 836.08 554.72 827.18 564.61 828.27C569.95 828.86 578.65 832.88 583.17 836.84C589.96 842.81 593.12 854.74 591.12 866.89C589.29 877.98 583.13 887.49 563.6 909.39C557.77 915.93 553 921.89 553 922.62C553 923.66 554.42 923.85 559.25 923.43C577.8 921.84 586.12 920.8 591.82 919.38C595.29 918.51 598.4 918.07 598.73 918.39C599.51 919.17 594.16 932.99 592.2 935.25C590.83 936.84 588.06 937 561.51 937C545.46 937 532.03 936.7 531.67 936.33ZM1307.25 925.41C1304.97 924.36 1305.98 921.53 1309.42 919.3C1311.89 917.7 1313.41 915.52 1314.98 911.31C1318.21 902.68 1336 840.52 1336 837.87C1336 836.48 1334.17 833.71 1331.36 830.86C1328.48 827.94 1326.94 825.59 1327.3 824.66C1328.15 822.45 1338.99 821.6 1356.68 822.37C1384.96 823.58 1392.15 825.91 1403.63 837.56C1418.69 852.83 1420.58 868.06 1410.07 889.5C1402.7 904.54 1384.35 919.84 1369 923.74C1363.38 925.17 1309.88 926.61 1307.25 925.41ZM1366.11 913.27C1383.26 904.83 1395.01 883.8 1394.99 861.59C1394.98 847.04 1392.03 841.27 1382 836.23C1374.86 832.65 1364.77 830.34 1360.71 831.36C1358.39 831.94 1357.66 833.36 1354.12 844.26C1351.94 850.99 1348.75 862.12 1347.04 869C1345.33 875.88 1342.41 886 1340.56 891.5C1338.71 897 1336.88 904.26 1336.51 907.63C1335.88 913.31 1336.01 913.89 1338.17 915.46C1340.06 916.83 1342.29 917.08 1350.08 916.79C1358.42 916.49 1360.49 916.03 1366.11 913.27ZM967.25 912.3C963.43 910.87 969.03 897.59 979.05 884.32C982.4 879.87 983.62 878.94 985.73 879.19C990.56 879.77 990.77 882.16 986.67 890.18C982.82 897.74 974.01 909.37 970.5 911.54C969.4 912.22 967.94 912.56 967.25 912.3ZM181.55 882.16C195.57 877.05 213.28 864.21 225.22 850.5C234.02 840.4 239.44 831.32 243.23 820.31C245.92 812.52 246.27 810.04 246.74 795.58C247.59 769.85 245.54 760.33 235.46 743C220.93 718.02 196.61 701.05 168 695.93C164.43 695.29 154.53 694.72 146 694.65C128.27 694.52 122.66 695.77 108.58 703C90.17 712.46 77.28 723.22 68.58 736.4C47.49 768.32 46.97 807.82 67.17 841.73C72.24 850.23 86.12 864.28 95.95 870.86C104.91 876.85 117.12 882.5 124.34 884C126.63 884.47 139.07 884.75 152 884.61C173.37 884.39 176.05 884.16 181.55 882.16ZM1000.61 861.42C999.4 858.28 1000.04 854.27 1002.04 852.47C1003.16 851.45 1004.93 848.68 1005.98 846.31C1008.79 839.95 1017.6 831 1021.04 831C1024.82 831 1025.4 833.32 1022.99 838.76C1020.72 843.89 1016.14 849.94 1008.62 857.75C1003.32 863.26 1001.61 864.04 1000.61 861.42ZM1035.31 812.35C1034.51 810.27 1036.05 806.17 1040.22 799.28C1045.7 790.25 1051.81 783.09 1054.65 782.37C1057.57 781.64 1060.34 782.9 1060.79 785.17C1061.2 787.28 1052.32 800.47 1045.57 807.75C1039.78 814.01 1036.5 815.48 1035.31 812.35ZM2093.51 787.45C2101.57 785.36 2117.58 776.98 2126.77 770.05C2139.85 760.2 2147.8 750.33 2156.29 733.43C2163.88 718.3 2164.51 715.24 2164.45 693.5C2164.39 672.19 2163.83 669.62 2155.83 653.62C2146.71 635.37 2137.86 625.3 2121.5 614.53C2103.36 602.58 2099.1 601.59 2066 601.61C2038.34 601.63 2033.34 602.43 2022.07 608.62C2007.4 616.69 1990.26 632.43 1983.08 644.45C1977.69 653.45 1970.51 676.01 1968.58 690C1967.27 699.48 1973.19 722.46 1980.88 737.76C1992.03 759.94 2016.03 780.44 2037.83 786.41C2050.92 790 2081.55 790.57 2093.51 787.45ZM1070.22 761.05C1070.83 754.67 1075.61 746.52 1083.63 738.19C1088.34 733.3 1090.3 731.91 1092.13 732.16C1094.1 732.44 1094.48 733.04 1094.35 735.73C1094.08 741.83 1075.75 766 1071.4 766C1070.02 766 1069.82 765.18 1070.22 761.05ZM2364 734.06C2350.81 730.04 2338.86 715.33 2335.9 699.46C2333.57 687.02 2336.99 670.05 2344.68 656C2349.76 646.71 2353.08 642.87 2361.52 636.52C2370.51 629.75 2379.68 625.31 2387.76 623.81C2394.9 622.48 2397.26 623.12 2396.82 626.25C2396.48 628.62 2393.24 630.58 2384.81 633.49C2378.72 635.6 2373.9 639.51 2367.53 647.51C2357.93 659.55 2355.79 666.97 2362.13 666.22C2363.43 666.06 2368.55 665.84 2373.5 665.72C2383.66 665.47 2386.41 666.47 2392.61 672.68C2396.97 677.04 2401.73 686.79 2402.6 693.12C2403.91 702.66 2397.23 717.79 2387.91 726.42C2379.98 733.76 2371.69 736.41 2364 734.06ZM2272.78 732.02C2256.88 731.25 2255.25 728.48 2265.51 719.62C2271.9 714.11 2287.7 696.08 2294.5 686.55C2300.86 677.64 2302.96 671.67 2303.61 660.65C2304.06 653.01 2303.84 650.93 2302.32 648.07C2299.66 643.06 2295.91 640.74 2289.65 640.22C2282.71 639.65 2277.71 641.32 2272.58 645.96C2266.12 651.81 2263.84 653.11 2262.32 651.85C2260.39 650.25 2260.7 647.53 2263.42 642.22C2268.45 632.4 2281.97 623 2291.05 623C2296.52 623 2308.28 628.65 2313.32 633.69C2319.64 640.01 2321.38 644.92 2320.79 654.73C2320.41 661.09 2319.68 663.77 2316.77 669.5C2312.79 677.34 2302.87 690.73 2290.36 705.13C2285.76 710.43 2282 715.2 2282 715.74C2282 717.27 2298.88 718.15 2306.57 717.03C2310.38 716.47 2315.97 715.35 2318.98 714.54C2322.51 713.59 2324.8 713.4 2325.43 714.03C2326.61 715.21 2322.53 728.64 2320.19 731.3C2318.75 732.93 2316.91 733.07 2301.05 732.82C2291.4 732.67 2278.68 732.31 2272.78 732.02ZM2376.6 724.1C2383.24 720.06 2386.37 710.03 2384.88 697.63C2383.95 689.95 2379.97 680.87 2376.54 678.62C2372.64 676.06 2366.83 675.62 2360.7 677.4C2355.72 678.85 2355.03 679.39 2353.94 682.68C2352.25 687.82 2353.33 703.86 2355.93 712.14C2359.66 724.04 2368.41 729.1 2376.6 724.1ZM1104.67 716.33C1103.19 714.86 1104.17 708.25 1106.45 704.26C1109.91 698.2 1119.81 685.24 1122.32 683.49C1125.15 681.51 1128.91 681.6 1129.7 683.67C1131.09 687.28 1117.1 708.84 1109.49 714.83C1106.55 717.14 1105.73 717.4 1104.67 716.33ZM1139.97 666.47C1138.12 664.24 1139.96 659.06 1145.86 649.89C1151.92 640.47 1157.67 634 1159.99 634C1162.62 634 1164.32 636.6 1163.58 639.52C1161.85 646.44 1145.92 668 1142.54 668C1141.83 668 1140.67 667.31 1139.97 666.47ZM570.17 629.77C563.23 627.46 550.69 612.98 546.99 603C545.2 598.18 544.45 562.62 545.93 552.91C547.35 543.6 551.09 536.04 557.5 529.51C563.37 523.53 568.19 521.04 575.32 520.31C596.36 518.16 611.04 540.54 611.11 574.89C611.14 589.15 609.18 599.16 604.5 608.66C597.24 623.41 581.02 633.39 570.17 629.77ZM492.86 627.96C488.66 627.58 484.73 626.95 484.11 626.57C481.92 625.21 483.07 623.34 486.65 622.43C488.77 621.89 491.19 620.31 492.4 618.67C494.45 615.92 494.5 614.88 494.44 579.17C494.4 553.85 494.03 541.66 493.23 539.79C492.34 537.69 490.84 536.72 486.54 535.47C483.49 534.58 481 533.46 481 532.98C481 532.5 484.86 530 489.57 527.43C496.37 523.73 499.19 522.74 503.28 522.63C511.34 522.43 511.08 521.03 512.46 572.93C513.29 604.31 514.01 618.18 514.88 619.79C515.56 621.05 517.43 622.34 519.08 622.67C526.86 624.22 520.61 627.5 508.5 628.2C504.1 628.46 497.06 628.35 492.86 627.96ZM582.04 619.75C589.66 614.62 593 600.6 592.96 574C592.92 548.29 590.93 537.69 585.02 531.79C581.89 528.65 580.54 528 577.19 528C571.56 528 567.45 531.64 565.51 538.34C561.08 553.68 560.89 592.78 565.18 609.79C566.57 615.31 572.61 622 576.2 622C577.58 622 580.21 620.99 582.04 619.75ZM1637 618.04C1631.92 617.07 1629.78 615.67 1624.62 609.92C1619.49 604.22 1614.93 595.43 1612.41 586.43C1609.87 577.33 1609.37 555.99 1611.47 546.31C1613.95 534.88 1619.9 523.18 1626.81 516.11C1631.75 511.06 1633.35 510.06 1638.28 508.96C1653.52 505.55 1666.57 515.21 1673.41 534.96C1680 553.99 1679.04 581.19 1671.19 598C1664.6 612.12 1650.18 620.57 1637 618.04ZM1175.67 617.33C1171.78 613.44 1184.91 588.28 1192.67 584.74C1194.55 583.88 1195.39 583.97 1196.55 585.12C1197.83 586.4 1197.84 587.2 1196.64 591.22C1194 599.96 1181.55 618 1178.14 618C1177.15 618 1176.03 617.7 1175.67 617.33ZM1554.25 615.93C1549.96 614.63 1550.14 612.59 1554.75 610.33C1561.41 607.08 1561.5 606.54 1561.5 568.5C1561.5 549.8 1561.14 532.79 1560.69 530.69C1560 527.42 1559.26 526.61 1555.44 524.98C1553 523.93 1551 522.41 1551 521.6C1551 519.72 1555.13 516.8 1563.14 513.01C1571.95 508.84 1574.66 508.99 1576.75 513.75C1578.17 516.97 1578.49 523.69 1579.02 561C1579.43 589.41 1580.03 605.42 1580.76 607.16C1581.49 608.88 1582.93 610.05 1584.87 610.47C1589.37 611.46 1590.68 613.55 1587.81 615.17C1584.96 616.78 1559.01 617.37 1554.25 615.93ZM1646.38 609.61C1653.18 606.77 1657.33 596.99 1659.1 579.64C1661.1 560.04 1658.69 534.71 1653.86 524.42C1651.17 518.7 1648.61 516.6 1644.33 516.6C1634.49 516.6 1628 535.25 1628 563.5C1628 582.92 1632.15 602.64 1637.45 608.35C1640.24 611.36 1641.7 611.57 1646.38 609.61ZM1208 566.37C1208 563.11 1212.64 554.8 1219.84 545.16C1225.4 537.7 1228.62 535.26 1231.44 536.34C1234.7 537.59 1232 546.29 1225.83 554.35C1216.03 567.18 1208 572.59 1208 566.37ZM1433.32 538.62C1421.78 534.85 1413.65 524.63 1409.36 508.51C1407.6 501.89 1407.67 488.04 1409.5 480.26C1412.8 466.28 1422 452.17 1434.26 442.32C1443.26 435.08 1444.52 434.41 1454.7 431.57C1464.55 428.82 1469.48 428.35 1470.55 430.07C1471.63 431.84 1467.05 435.82 1462 437.5C1452.84 440.54 1442.64 448.97 1436.02 458.96C1433.25 463.16 1430.26 471.59 1431.21 472.54C1431.47 472.81 1435.2 472.53 1439.49 471.94C1449.63 470.53 1455.66 471.44 1462.09 475.34C1469.06 479.56 1472.82 486.16 1473.87 496.03C1476.45 520.19 1463.76 538.42 1443.5 539.63C1440.12 539.83 1435.68 539.39 1433.32 538.62ZM1357.86 537.93C1353.66 537.56 1349.73 536.95 1349.11 536.57C1346.98 535.25 1348.03 533.15 1351.38 532.04C1358.76 529.6 1358.5 531.18 1358.5 489.15C1358.5 460.98 1358.19 450.95 1357.26 449.33C1356.57 448.14 1354.44 446.64 1352.51 446C1349.58 445.04 1349 444.37 1349 441.97C1349 439.42 1349.73 438.75 1355.7 435.91C1359.38 434.15 1364.33 432.49 1366.69 432.23C1370.9 431.75 1371.03 431.83 1372.62 435.62C1374.6 440.32 1375.86 459.56 1375.96 486.5C1376 496.95 1376.46 510.62 1376.97 516.87C1378 529.24 1378.98 531.4 1384.09 532.52C1391.82 534.22 1385.64 537.52 1373.5 538.18C1369.1 538.41 1362.06 538.3 1357.86 537.93ZM1451.02 528.21C1455.78 523.45 1457.4 517.99 1457.31 507C1457.22 496.13 1454.55 488.63 1448.95 483.58C1444.4 479.46 1439.28 478.82 1433.36 481.63C1428.79 483.8 1426.94 487.7 1426.27 496.56C1425.22 510.5 1429.68 523.58 1437.4 529.17C1442.87 533.13 1446.35 532.89 1451.02 528.21ZM1244.03 518.54C1242.07 516.18 1243.77 511.42 1249.7 502.63C1259.22 488.56 1264.59 484.39 1267.99 488.49C1269.83 490.7 1268.7 493.59 1262.13 503.51C1252.19 518.52 1247.35 522.54 1244.03 518.54ZM1278.67 470.33C1275.57 467.24 1286.39 446.47 1294.86 439.25C1297.94 436.63 1302.78 436.27 1303.67 438.59C1304.91 441.82 1296.99 454.73 1287.64 464.73C1282.07 470.68 1280.19 471.86 1278.67 470.33ZM304.5 445.41C303.4 445.14 301.49 444.71 300.25 444.44C296.83 443.71 297.4 439.77 301.9 433.2C304.04 430.07 311.09 418.5 317.56 407.5C335.71 376.62 355.7 344.57 358.63 341.65C364.19 336.09 365.62 338.64 369.45 361C370.91 369.52 373.2 381.45 374.54 387.5C375.88 393.55 377.88 404.57 378.98 412C381.31 427.7 382.91 432.58 387.02 436.52C390.7 440.05 390.76 441.46 387.29 443.73C385.04 445.2 382.4 445.49 371.54 445.45C352.88 445.38 350.34 443.48 358.5 435.65C363.49 430.87 363.73 429.73 361.59 420.63C359.55 411.98 358.02 410.88 346.85 410.07C341.71 409.7 335.78 409.7 333.68 410.08C321.9 412.18 314.02 433.86 323.48 438.17C329.38 440.86 323.99 444.71 313.33 445.43C309.57 445.68 305.6 445.67 304.5 445.41ZM1063.89 423.07C1059.52 420.68 1057.26 416.01 1058.61 412.16C1059.39 409.91 1060.21 409.45 1063.87 409.19C1066.31 409.01 1071.05 409.77 1074.77 410.94C1082.45 413.35 1088.03 413.56 1091.8 411.59C1098.18 408.24 1105.2 397.67 1105.2 391.4C1105.2 386.9 1101.01 378.12 1096.45 373.07C1091.24 367.31 1085.52 364.2 1076.86 362.43C1066.77 360.37 1063.27 359.15 1062.63 357.48C1061.79 355.3 1063.49 350.95 1072.32 332.67L1080.44 315.84L1097.8 316.17C1113.8 316.47 1115.28 316.66 1116.63 318.5C1118.42 320.95 1117.65 324.64 1114.68 327.84C1111.19 331.59 1109.33 332.18 1097.93 333.09C1092 333.57 1085.29 334.7 1083.02 335.61C1079.5 337.02 1078.94 337.64 1079.2 339.85C1079.53 342.69 1081.36 343.9 1090.15 347.05C1106.01 352.72 1117.28 368.45 1117.37 385C1117.44 398.56 1111.84 408.89 1100.17 416.73C1092.33 422 1085.76 424.1 1075.5 424.63C1068.91 424.96 1066.86 424.69 1063.89 423.07ZM1314.2 421.8C1310.77 418.37 1315.77 406.82 1325.1 396.63C1330.04 391.25 1331.75 390 1334.21 390C1337.08 390 1337.21 390.18 1336.63 393.1C1335.78 397.37 1326.97 411.7 1321.4 417.9C1316.47 423.39 1316.03 423.63 1314.2 421.8ZM355.39 401.23C356.6 400.52 355.39 383.36 353.79 378.45C351.7 372.07 348.95 372.54 344.55 380.05C340.51 386.95 336 397.16 336 399.42C336 402.16 339.23 403.03 347 402.38C351.12 402.04 354.9 401.52 355.39 401.23ZM1800.93 400.01C1794.57 399.64 1788.83 399.01 1788.18 398.61C1786.18 397.37 1786.87 395.58 1790.06 393.76C1793.6 391.75 1797.41 384.08 1801.35 371C1805.31 357.88 1816 314.38 1816 311.42C1816 309.67 1814.81 307.68 1812.5 305.56C1810.58 303.8 1809 301.89 1809 301.31C1809 300.74 1811.09 299.99 1813.64 299.64C1820.19 298.74 1886 298.84 1885.98 299.75C1885.91 302.04 1881.93 318.26 1881.01 319.97C1879.17 323.42 1877.28 322.32 1876.02 317.08C1875.37 314.38 1873.97 311.37 1872.9 310.41C1870.29 308.05 1860.22 306.05 1850.83 306.02C1844.03 306 1842.81 306.29 1840.1 308.57C1836.72 311.41 1833.02 321.5 1830.91 333.58C1829.83 339.81 1829.88 340.44 1831.62 341.74C1835.6 344.7 1848.25 340.41 1854.56 333.94C1858.7 329.7 1860.44 329.1 1861.38 331.56C1862.81 335.27 1856.11 356.26 1851.91 361.24C1848.83 364.9 1847.89 364.52 1846.08 358.87C1844.18 352.91 1841.97 351.62 1833.8 351.69C1828.24 351.73 1826.38 352.13 1825.4 353.47C1824.7 354.42 1822.75 360.91 1821.07 367.88C1815.57 390.62 1816.09 391.5 1834.86 391.49C1849.05 391.48 1851.48 390.69 1860 383.31C1870.64 374.09 1874 372.73 1874 377.63C1874 381.12 1867.22 398.16 1865.21 399.75C1863.47 401.12 1822.79 401.29 1800.93 400.01ZM776.63 309.97C806.54 302.32 827.03 286.52 841.71 259.77C844.51 254.67 847.57 248.25 848.5 245.5C852.14 234.78 852.66 203.01 849.41 189.65C846.27 176.71 832.9 155.5 821.26 144.97C813.74 138.17 800.23 130.01 789.91 126.03C764.95 116.4 730.83 118.51 706.75 131.17C699.3 135.09 673.91 159.71 669.57 167.23C665.56 174.16 660.21 189.86 658.5 199.68C654.7 221.46 658.3 241.86 669.53 262.16C684.7 289.58 709.85 306.97 741.58 311.96C750.08 313.3 767.47 312.31 776.63 309.97ZM1484.5 309.55C1526.98 297.21 1556.97 262.08 1559.66 221.5C1562.58 177.56 1533.22 137.16 1488.29 123.3C1480.04 120.76 1478.33 120.59 1460.5 120.59C1442.69 120.59 1440.94 120.76 1432.5 123.31C1427.55 124.81 1419.67 127.89 1415 130.17C1407.43 133.84 1405.02 135.79 1392.99 147.9C1382.7 158.25 1378.43 163.36 1375.11 169.28C1369.78 178.76 1365.48 190.97 1363.92 201C1362.34 211.18 1363.29 229.47 1365.92 239.5C1368.2 248.22 1375.06 263.29 1380.15 270.77C1384.83 277.64 1396.64 289.64 1403 293.98C1414.44 301.78 1431.56 309.04 1444.5 311.58C1455.31 313.7 1473.35 312.79 1484.5 309.55ZM1079.41 125.24C1068.04 121.16 1053.65 108.45 1051.22 100.33C1049.56 94.81 1049.71 79.05 1051.5 70.5C1056.18 48.05 1073.64 28.64 1095.33 21.79C1100.86 20.04 1103.74 19.88 1123 20.26C1134.83 20.49 1145.29 21.02 1146.25 21.44C1148.7 22.52 1148.48 26.81 1145.5 36.58C1142.92 45.04 1140.09 49.79 1138.29 48.68C1137.72 48.33 1135.59 44.66 1133.55 40.53C1129.46 32.25 1126.65 29.7 1119.76 27.96C1106.88 24.72 1088.77 35.46 1079.59 51.79C1075.23 59.57 1071.05 72.52 1070.35 80.49C1069.71 87.66 1071.99 99.51 1075.26 106C1077.15 109.76 1078.63 111.06 1084.22 113.87C1093.42 118.5 1096.49 118.28 1108.64 112.17C1114.06 109.45 1120.94 105.57 1123.92 103.57C1133.74 96.94 1134.35 101.87 1124.87 111.19C1120.88 115.1 1116.16 118.32 1109.72 121.52C1101.53 125.59 1099.38 126.22 1092.43 126.62C1086.39 126.96 1083.28 126.63 1079.41 125.24Z" fill="#1e2749" fill-rule="evenodd"/>
</svg>
