<?xml version="1.0" encoding="UTF-8"?>
<svg xmlns="http://www.w3.org/2000/svg" viewBox="0 0 151 187" width="151" height="187" shape-rendering="geometricPrecision">
<path d="M118.14 176.96C118.01 176.75 118.15 176.44 118.45 176.27C118.8 176.08 119 175.54 119 174.81C119 173.88 118.83 173.59 118.17 173.33C117.12 172.93 117.13 172.82 118.25 171.84C119.12 171.08 119.14 171 118.66 170.12C118.38 169.61 117.78 169.09 117.33 168.96C116.58 168.75 116.6 168.73 117.61 168.7C119.79 168.63 120.96 169.92 120.15 171.48C119.53 172.67 119.54 173.21 120.17 173.45C120.97 173.76 120.8 175.76 119.9 176.61C119.04 177.41 118.49 177.52 118.14 176.96ZM114.99 176.32C114.53 175.45 114.89 174.26 115.59 174.4C116.13 174.5 116.78 176.22 116.47 176.72C116.15 177.23 115.36 177.01 114.99 176.32ZM63.08 172.68C60.17 171.98 57.72 169.19 56.81 165.54C56.33 163.65 56.31 163.02 56.66 161.25C57.41 157.42 59.15 155.16 62.2 154.01C64.37 153.2 64.68 153.19 66.82 153.84C71.1 155.14 73.4 158.34 73.4 163C73.4 165.96 72.67 167.92 70.8 170C68.74 172.27 65.73 173.32 63.08 172.68ZM82.45 172.61C80.53 172.19 78.1 169.98 77.12 167.75C76.52 166.4 76.33 165.38 76.33 163.45C76.33 160.23 77.09 158.03 78.89 156.01C80 154.77 80.7 154.33 82.33 153.83C84.31 153.24 84.43 153.23 86.1 153.82C87.05 154.15 87.97 154.55 88.15 154.71C88.32 154.87 88.71 154.76 89.04 154.47C89.36 154.18 89.89 153.99 90.23 154.06C90.74 154.16 90.87 154.65 91.07 157.31C91.35 160.82 91.05 161.78 89.99 160.82C89.66 160.53 89.31 159.8 89.19 159.2C88.91 157.67 86.99 155.55 85.42 155.03C84.24 154.64 83.97 154.67 82.73 155.3C81.12 156.12 80.53 157.1 80.03 159.82C78.95 165.69 80.42 170.44 83.6 171.32C86.53 172.13 88.91 170.4 90.14 166.56C90.39 165.77 91.14 166.01 91.27 166.92C91.5 168.45 89.11 171.61 87.19 172.32C85.9 172.79 83.84 172.92 82.45 172.61ZM94.86 172.35C93.76 172.14 93.27 171.33 94.24 171.33C94.59 171.33 95.14 171.13 95.48 170.89C96.03 170.48 96.08 169.85 96.04 163.16C96.02 159.15 95.89 155.76 95.75 155.63C95.61 155.5 95.2 155.34 94.83 155.28C94.47 155.21 94.17 154.93 94.17 154.66C94.17 154.27 94.79 154.15 97.31 154.07C100.94 153.96 101.61 154.1 101 154.84C100.77 155.11 100.3 155.33 99.96 155.33C99.39 155.33 99.33 155.62 99.33 158.5C99.33 160.24 99.45 161.69 99.58 161.71C99.72 161.73 101.11 161.8 102.67 161.85C106.65 161.99 107 161.72 107 158.53C107 156 106.78 155.52 105.5 155.28C105.13 155.21 104.83 154.93 104.83 154.66C104.83 154.26 105.45 154.17 108.25 154.17C111.78 154.17 112.55 154.48 110.92 155.26L110 155.7L110 163.33L110 170.95L111 171.17C112.04 171.39 112.28 171.79 111.62 172.19C111.14 172.49 105.18 172.48 104.69 172.18C104.13 171.84 104.27 171.33 104.93 171.33C105.25 171.33 105.85 171.1 106.26 170.81C106.94 170.34 107 170.02 107 167.14C107 164.02 106.99 163.98 106.1 163.64C105.61 163.45 103.92 163.35 102.35 163.4L99.5 163.5L99.41 167.26L99.31 171.01L100.32 171.21C101.35 171.42 101.67 171.92 100.92 172.15C100.14 172.4 95.84 172.54 94.86 172.35ZM67.33 170.71C69.51 169.21 70.59 164.03 69.66 159.62C69.16 157.26 68.24 156.03 66.36 155.18C65.08 154.6 64.94 154.6 63.51 155.14C62.67 155.47 61.7 156.15 61.3 156.71C59.58 159.12 59.69 167.49 61.47 169.82C62.87 171.66 65.4 172.04 67.33 170.71ZM115.12 170.83C114.85 170.14 115.22 169.33 115.8 169.33C116.34 169.33 116.83 170.47 116.5 171C116.19 171.5 115.34 171.4 115.12 170.83ZM64.33 141.92C64.33 136.74 64.24 132.17 64.13 131.77C64.01 131.31 63.03 130.5 61.55 129.63C60.24 128.86 57.07 126.93 54.5 125.33C49.97 122.52 44.05 119.05 41 117.41C37.55 115.56 33.98 113.25 33.67 112.67C33.46 112.27 33.33 105.31 33.34 93.77L33.34 75.5L34.42 74.79C36.31 73.56 49.72 65.49 52.67 63.82C54.23 62.94 56.97 61.34 58.77 60.27C60.56 59.21 62.16 58.33 62.32 58.33C62.48 58.33 63 57.86 63.49 57.29L64.37 56.24L64.33 47.04C64.31 41.97 64.3 37.57 64.31 37.25C64.34 36.57 65.64 36.44 66.27 37.07C66.56 37.36 66.67 40.07 66.67 47.17C66.67 54.44 66.77 57 67.08 57.39C67.31 57.67 69.38 58.92 71.67 60.16C75.46 62.22 76.69 62.89 80.83 65.18C81.57 65.59 84.34 67.26 87 68.9C89.66 70.53 93.18 72.69 94.83 73.69L97.83 75.52L97.92 93.71C98.02 114.89 98.49 112.52 93.6 115.37C91.89 116.36 90.26 117.32 89.96 117.5C89.67 117.68 88.65 118.25 87.69 118.77C86.74 119.28 85.03 120.27 83.9 120.96C82.76 121.65 81.08 122.64 80.17 123.14C79.25 123.65 75.84 125.64 72.58 127.57L66.67 131.07L66.67 140.8C66.67 151.1 66.63 151.33 65.1 151.33L64.33 151.33L64.33 141.92ZM67.67 127.3C68.67 126.74 70.4 125.79 71.5 125.18C76.93 122.21 81.38 119.67 84.17 117.95C85.27 117.27 88.09 115.56 90.43 114.14C92.78 112.72 94.84 111.3 95.02 110.97C95.39 110.27 95.45 77.35 95.08 76.81C94.94 76.62 94.16 76.08 93.33 75.62C92.51 75.16 90.33 73.91 88.5 72.85C86.67 71.78 84.7 70.64 84.12 70.31C81.65 68.91 73.85 64.36 70.07 62.11C67.81 60.76 65.67 59.67 65.31 59.67C64.95 59.67 61.24 61.74 57.08 64.27C49.86 68.66 46.36 70.72 39.42 74.67L36.33 76.42L36.31 78.96C36.22 88.01 36.37 110.9 36.51 111.32C36.61 111.6 39.95 113.78 43.93 116.16C50.55 120.11 52.79 121.42 61.82 126.62C63.46 127.56 65.04 128.33 65.32 128.33C65.6 128.32 66.66 127.86 67.67 127.3ZM66.03 124.53C65.66 124.09 59.57 120.33 59.22 120.33C59.14 120.33 57.17 119.21 54.87 117.83C52.56 116.46 50.6 115.33 50.51 115.33C50.42 115.33 49.33 114.71 48.09 113.95C46.85 113.19 44.86 112.04 43.67 111.4C39.47 109.14 38.95 108.72 39.06 107.73C39.22 106.37 40.12 106.65 45.45 109.72C48.04 111.22 51.29 113.08 52.67 113.86C62.76 119.56 67.85 122.65 67.95 123.15C68.05 123.7 67.15 125 66.66 125C66.52 125 66.24 124.79 66.03 124.53ZM90.38 110.03C90 109.79 89.92 106.92 89.93 93.56C89.93 84.66 90.03 77.22 90.15 77.02C90.45 76.55 91.44 76.57 91.93 77.07C92.51 77.64 92.51 109.36 91.93 109.93C91.46 110.4 91.01 110.43 90.38 110.03ZM4.42 102.34C4 102.17 3.67 101.88 3.67 101.7C3.67 101.52 4 101.28 4.42 101.15C4.83 101.03 5.52 100.6 5.95 100.21C6.76 99.48 11 94.19 11 93.92C11 93.83 10.11 92.41 9.02 90.76C7.07 87.79 5.68 86.33 4.79 86.33C3.94 86.33 4.33 85.39 5.25 85.21C6.44 84.98 10.6 85.16 10.9 85.45C11.02 85.58 10.94 85.86 10.73 86.07C10.07 86.73 10.27 87.59 11.54 89.5C12.37 90.75 12.89 91.24 13.2 91.07C13.69 90.79 16.33 87.35 16.33 86.98C16.33 86.85 16.11 86.56 15.83 86.33C15.01 85.65 15.25 85.44 17.08 85.22C20.04 84.88 21.23 85.52 19.39 86.47C18.2 87.08 14.33 92.05 14.33 92.96C14.33 93.91 18.95 100.66 19.89 101.09C20.32 101.28 20.67 101.57 20.67 101.73C20.67 102.48 17.26 102.95 15.42 102.46C14.61 102.24 14.43 101.37 15.05 100.75C15.54 100.26 12.77 96.03 11.96 96.01C11.45 96 8.88 99.05 8.45 100.17C8.35 100.45 8.45 100.9 8.68 101.19C8.99 101.56 9 101.8 8.74 102.06C8.25 102.55 5.35 102.74 4.42 102.34ZM23.4 97.6C23.18 97.38 23 96.78 23 96.27L23 95.33L26.14 95.33C29.03 95.33 29.31 95.39 29.51 96.02C29.93 97.36 28.85 98 26.18 98C24.77 98 23.64 97.84 23.4 97.6ZM39.73 81.27C39.51 81.05 39.33 80.53 39.33 80.11C39.33 79.48 40.32 78.77 45.08 75.97C48.25 74.11 53.36 71.09 56.45 69.26C67.42 62.76 67.75 62.61 68.31 64.08C68.46 64.5 68.49 65.01 68.38 65.23C68.19 65.57 57.17 72.33 56.81 72.33C56.74 72.33 53.16 74.43 48.86 77C44.55 79.57 40.83 81.67 40.58 81.67C40.34 81.67 39.95 81.49 39.73 81.27ZM96.56 39.43C95.7 39.21 95.98 38.06 97.08 37.4C97.94 36.88 98.01 36.89 98.46 37.51C98.89 38.09 99.06 38.11 100.08 37.74C101.64 37.18 102 37.23 102 37.98C102 39 100.72 39.67 98.84 39.63C97.92 39.61 96.9 39.52 96.56 39.43ZM98.67 35.98C98.67 35.78 99.04 34.99 99.49 34.22C100.46 32.56 100.32 31.48 99.09 31.18C98.47 31.02 98.34 30.86 98.6 30.6C99.37 29.83 102 31.63 102 32.91C102 33.41 99.4 36.33 98.96 36.33C98.8 36.33 98.67 36.17 98.67 35.98ZM65.5 34.83C65.32 34.77 64.62 34.63 63.95 34.52C62.45 34.27 59.92 32.11 58.9 30.21C58.28 29.04 58.17 28.31 58.17 25.33C58.17 22.18 58.26 21.67 59.05 20.17C60.29 17.84 61.83 16.5 64.08 15.81C65.98 15.22 66.02 15.22 68.18 15.98C70.31 16.73 70.37 16.73 71.04 16.13C71.71 15.52 71.74 15.52 72.2 16.15C72.87 17.08 72.85 22.43 72.17 23C71.77 23.33 71.63 23.3 71.45 22.79C70.07 18.96 69.32 17.92 67.35 17.13C65.98 16.58 65.89 16.59 64.44 17.29C62.15 18.4 61.53 20.07 61.52 25.17C61.51 28.68 61.6 29.33 62.25 30.5C63.38 32.55 63.76 32.91 65.18 33.29C67.93 34.02 69.92 32.88 71.34 29.75C71.94 28.42 72.72 27.94 73.15 28.64C73.38 29.02 71.9 31.88 70.94 32.89C69.82 34.09 66.65 35.22 65.5 34.83ZM109.88 34.63C107.21 34 104.89 31.41 103.88 27.95C103.2 25.61 103.2 24.79 103.86 22.24C104.6 19.39 105.95 17.57 108.11 16.51C110.55 15.32 111.89 15.16 113.86 15.82C118.28 17.33 120.4 20.3 120.39 25C120.39 27.97 119.65 29.94 117.8 32C115.69 34.33 112.74 35.31 109.88 34.63ZM76.69 34.33C75.48 34.16 74.84 33.33 75.91 33.33C76.26 33.33 76.8 33.14 77.12 32.91C77.64 32.53 77.7 31.74 77.71 25.49C77.72 21.65 77.72 18.33 77.7 18.12C77.68 17.9 77.2 17.57 76.64 17.37C76.05 17.17 75.67 16.83 75.75 16.59C75.85 16.28 76.85 16.17 79.36 16.17C82.22 16.17 82.83 16.26 82.83 16.66C82.83 16.95 82.42 17.23 81.83 17.33L80.83 17.5L80.74 20.22C80.61 23.89 80.8 24.07 84.73 23.94C86.49 23.88 87.85 23.69 88.04 23.45C88.22 23.24 88.32 21.82 88.26 20.3C88.17 17.65 88.13 17.52 87.33 17.33C86.88 17.22 86.5 16.92 86.5 16.65C86.5 16.27 87.12 16.15 89.33 16.07C92.83 15.95 93.9 16.16 93.32 16.85C93.1 17.11 92.64 17.33 92.29 17.33C91.71 17.33 91.66 17.68 91.63 22.42C91.59 27.61 91.59 30.94 91.64 32.22C91.66 32.75 91.94 33.01 92.68 33.17C93.24 33.29 93.65 33.56 93.58 33.76C93.39 34.33 92.08 34.52 89.08 34.4C86.14 34.27 85.5 33.8 87.33 33.1L88.33 32.72L88.33 29.22C88.33 26.16 88.26 25.69 87.75 25.55C87.27 25.42 82.55 25.47 81.09 25.62C80.8 25.65 80.69 26.61 80.7 29C80.71 32.65 81.01 33.33 82.6 33.33C83.39 33.33 83.42 33.39 82.97 33.84C82.43 34.38 78.9 34.66 76.69 34.33ZM125.42 34.4C122.79 34.3 122.22 33.77 124 33.1C124.97 32.74 125 32.66 125.03 30.45C125.12 25.11 124.94 17.82 124.73 17.62C124.6 17.5 124.2 17.34 123.83 17.28C123.47 17.21 123.17 16.93 123.17 16.66C123.17 16.27 123.79 16.15 126.31 16.07C129.94 15.96 130.61 16.1 130 16.84C129.77 17.11 129.3 17.33 128.95 17.33C128.36 17.33 128.32 17.57 128.4 20.58L128.5 23.83L131.45 23.94C135.6 24.08 136 23.78 136 20.53C136 18 135.78 17.52 134.5 17.28C134.13 17.21 133.83 16.93 133.83 16.66C133.83 16.26 134.46 16.17 137.33 16.17C140.17 16.17 140.83 16.26 140.83 16.65C140.83 16.92 140.46 17.23 140 17.33L139.17 17.53L139.08 25.27L138.99 33.01L139.99 33.22C141.03 33.42 141.27 33.79 140.63 34.19C140.13 34.5 134.22 34.51 133.72 34.2C133.14 33.84 133.25 33.33 133.93 33.33C134.25 33.33 134.85 33.1 135.26 32.81C135.94 32.34 136 32.03 136 29.03L136 25.76L134.25 25.58C133.29 25.49 131.6 25.43 130.5 25.45L128.5 25.5L128.41 29.26L128.31 33.01L129.34 33.22C129.9 33.33 130.3 33.59 130.24 33.79C130.07 34.3 128.31 34.52 125.42 34.4ZM96.33 33.65C95.9 32.86 96.19 31.67 96.8 31.67C97.03 31.67 97.42 32.04 97.66 32.49C98.02 33.16 98.02 33.41 97.68 33.82C97.11 34.51 96.76 34.47 96.33 33.65ZM114.33 32.73C114.79 32.4 115.54 31.39 115.99 30.49C117.57 27.34 117.22 20.67 115.37 18.55C114.73 17.81 112.58 16.67 111.83 16.67C110.6 16.67 108.66 18.04 107.95 19.42C107.32 20.63 107.21 21.4 107.19 24.83C107.16 30.35 108.03 32.55 110.55 33.34C111.78 33.72 113.28 33.48 114.33 32.73Z" fill="#1e2749" fill-rule="evenodd"/>
</svg>
