<?xml version="1.0" encoding="UTF-8"?>
<svg xmlns="http://www.w3.org/2000/svg" viewBox="0 0 2430 740" width="2430" height="740" shape-rendering="geometricPrecision">
<path d="M1976.5 672.84C1922.84 667.57 1885.29 632.22 1873.35 575.73C1871.22 565.63 1870.68 559.89 1870.26 542.73C1868.74 480.79 1882.47 440.7 1913.48 416.49C1938.88 396.66 1966.58 388.35 1998.58 390.97C2030.9 393.61 2056.6 404.26 2076.73 423.36C2089.15 435.14 2095.89 447.34 2101.54 468.25C2113.38 512.09 2110.06 581.8 2094.51 615.76C2082.36 642.3 2047.04 665.5 2009.79 671.42C1997.72 673.33 1986.45 673.81 1976.5 672.84ZM2326 602.53L2326 538L2252.11 538L2178.22 538L2178.09 593.3C2178.02 623.72 2177.52 651.28 2176.99 654.55C2175.55 663.4 2173.62 665.43 2166.34 665.79C2155.18 666.34 2152.62 661.48 2150.94 636.5C2148.24 596.3 2147.44 409.67 2149.94 403.21C2151.74 398.6 2157.75 395.68 2165.31 395.74C2172.05 395.8 2174.46 397.41 2176 402.9C2177.56 408.46 2178.16 425.82 2178.34 471L2178.5 512.5L2251.12 512.76C2308.85 512.96 2323.96 512.75 2324.8 511.74C2325.5 510.9 2325.96 492.66 2326.19 457.49C2326.48 410.56 2326.71 404.08 2328.19 400.79C2330.28 396.17 2332.22 395.59 2346 395.54L2356.5 395.5L2356.5 531L2356.5 666.5L2341.25 666.78L2326 667.05L2326 602.53ZM2003.2 645.53C2022.47 642.62 2036.69 635.27 2051.59 620.5C2068.58 603.67 2075.84 589.87 2080.23 566.06C2082.01 556.44 2082.37 550.65 2082.39 531.5C2082.42 505.62 2080.57 491.4 2075.22 476.29C2070.98 464.3 2066.59 457.6 2056 446.95C2026.67 417.45 1985.09 409.34 1951 426.48C1932.39 435.83 1918.61 451.25 1909.43 473.02C1898.58 498.76 1895.91 538.88 1903.01 569.51C1911.16 604.65 1930.15 629.55 1957.45 640.91C1971.2 646.64 1985.96 648.13 2003.2 645.53ZM946.67 400.63C911.63 382.67 837.1 341.44 776.5 306.5C740.9 285.98 683.9 253.31 669.5 245.17C661.25 240.51 643.25 230.31 629.5 222.51C571.56 189.62 545.99 176 542.19 176C532.42 176 462.29 213.34 336 285.78C201.85 362.73 164.48 383.59 136.84 396.92C119.49 405.28 108.96 409.31 106.71 408.44C104.96 407.77 102 401.64 102.01 398.72C102.01 396.42 99.04 398.21 220.5 327.42C249.99 310.24 250.74 309.8 275.5 295.54C284.85 290.15 296.32 283.48 301 280.73C305.68 277.97 315.12 272.47 322 268.51C328.88 264.56 340.35 257.93 347.5 253.8C440.44 200.06 528.35 151.29 535.27 149.62C537.54 149.07 541.58 150.77 557.27 158.83C583.59 172.36 646.05 207.02 704.59 240.58C878.32 340.18 941.42 375.81 963.09 386.54L972.68 391.29L989.09 382.49C1005.84 373.51 1030.8 359.7 1050.5 348.52C1056.55 345.09 1070.05 337.42 1080.5 331.49C1109.12 315.25 1149.8 292 1207 259.19C1269.08 223.58 1292.09 210.53 1336 186.03C1390.94 155.37 1402.05 149.59 1406 149.66C1410.03 149.72 1414.9 152.28 1476.19 186.57C1564.01 235.69 1692.5 309.12 1782 361.35C1842.21 396.48 1846.47 399.38 1844.16 403.69C1840.79 410 1836.75 410.26 1823.93 404.97C1803.46 396.53 1719.15 350.2 1633 300.05C1527.56 238.66 1416.91 178.57 1405.31 176.4C1403.23 176.01 1400.3 176.21 1398.47 176.88C1392.9 178.89 1363.77 194.9 1290.5 236.23C1277.29 243.68 1202.6 286.43 1166.5 307.2C1068.22 363.74 978.52 412 971.69 412C970.01 412 959.68 407.31 946.67 400.63Z" fill="#1e2749" fill-rule="evenodd"/>
</svg>
