<?xml version="1.0" encoding="UTF-8"?>
<!-- Generator: visioncortex VTracer 0.6.12 -->
<svg version="1.1" xmlns="http://www.w3.org/2000/svg" width="2430" height="535">
<path d="M0 0 C801.9 0 1603.8 0 2430 0 C2430 176.55 2430 353.1 2430 535 C1628.1 535 826.2 535 0 535 C0 358.45 0 181.9 0 0 Z " fill="#FEFEFE" transform="translate(0,0)"/>
<path d="M0 0 C1.96 -0 3.91 -0 5.87 -0 C11.23 -0 16.58 -0 21.94 0 C27.72 0.01 33.51 0.01 39.29 0.01 C49.3 0.01 59.32 0.01 69.33 0.01 C83.81 0.02 98.29 0.03 112.77 0.03 C136.26 0.03 159.76 0.04 183.25 0.04 C206.07 0.05 228.88 0.06 251.7 0.07 C252.05 0.07 252.05 0.07 253.83 0.07 C260.9 0.07 267.97 0.07 275.04 0.07 C289.43 0.07 303.83 0.07 318.23 0.08 C318.56 0.08 318.56 0.08 320.23 0.08 C364.41 0.09 408.58 0.1 452.76 0.12 C453.49 38.76 453.91 77.37 453.86 116.02 C453.85 121.81 453.85 127.6 453.85 133.39 C453.85 150.09 453.83 166.79 453.82 183.5 C453.8 220.99 453.78 258.49 453.76 297.12 C548.14 297.12 642.52 297.12 739.76 297.12 C739.76 233.43 739.76 169.74 739.76 104.12 C867.47 104.12 995.18 104.12 1126.76 104.12 C1126.76 90.92 1126.76 77.72 1126.76 64.12 C1126.86 55.43 1126.96 46.74 1127.13 38.04 C1127.2 34.5 1127.26 30.96 1127.31 27.42 C1127.36 25.12 1127.4 22.82 1127.44 20.53 C1127.46 19.49 1127.48 18.45 1127.49 17.39 C1127.51 16.41 1127.53 15.44 1127.55 14.44 C1127.57 13.6 1127.58 12.77 1127.6 11.9 C1127.81 8.29 1128.31 4.71 1128.76 1.12 C1288.15 1.12 1447.54 1.12 1611.76 1.12 C1612.91 24.16 1612.91 24.16 1613.07 34.12 C1613.09 34.68 1613.09 34.68 1613.14 37.53 C1613.18 39.88 1613.22 42.24 1613.26 44.59 C1613.32 48.09 1613.39 51.59 1613.45 55.09 C1613.49 57.41 1613.53 59.73 1613.57 62.06 C1613.59 63.05 1613.61 64.05 1613.63 65.08 C1613.84 78.09 1613.77 91.11 1613.76 104.12 C1614.68 104.12 1615.59 104.12 1616.54 104.12 C1638.94 104.1 1661.35 104.08 1683.76 104.07 C1694.59 104.06 1705.43 104.06 1716.26 104.04 C1725.72 104.03 1735.17 104.03 1744.63 104.03 C1749.63 104.02 1754.62 104.02 1759.62 104.01 C1799.58 103.96 1799.58 103.96 1818.76 105.12 C1818.76 106.44 1818.76 107.76 1818.76 109.12 C1810.28 114.77 1794.88 112.25 1784.86 112.23 C1782.95 112.23 1781.04 112.23 1779.12 112.23 C1774.03 112.23 1768.93 112.23 1763.84 112.22 C1759.05 112.22 1754.26 112.22 1749.46 112.21 C1735.48 112.21 1721.49 112.2 1707.51 112.18 C1676.24 112.16 1644.97 112.14 1612.76 112.12 C1612.76 209.8 1612.76 307.48 1612.76 408.12 C1452.71 408.12 1292.66 408.12 1127.76 408.12 C1127.76 351.36 1127.76 294.6 1127.76 236.12 C1049.88 236.12 972 236.12 891.76 236.12 C891.82 314.06 891.82 314.06 891.85 337.83 C891.87 398.28 891.29 458.67 890.76 519.12 C548.55 519.12 206.34 519.12 -146.24 519.12 C-147.4 455.67 -147.4 455.67 -147.55 426.03 C-147.57 421.67 -147.59 417.3 -147.62 412.94 C-147.67 404.78 -147.72 396.61 -147.76 388.45 C-147.81 379.12 -147.86 369.78 -147.92 360.44 C-148.03 341.34 -148.14 322.23 -148.24 303.12 C-149.21 302.67 -150.17 302.23 -151.16 301.76 C-152.44 301.15 -153.72 300.54 -154.99 299.93 C-155.63 299.64 -156.26 299.35 -156.91 299.05 C-162.78 296.21 -165.92 292.45 -168.49 286.43 C-168.83 285.67 -169.16 284.9 -169.51 284.11 C-170.24 282.12 -170.24 282.12 -170.24 280.12 C-171.33 280.12 -172.41 280.12 -173.53 280.13 C-183.74 280.15 -193.96 280.16 -204.17 280.17 C-209.42 280.18 -214.67 280.18 -219.92 280.2 C-224.98 280.21 -230.05 280.21 -235.11 280.22 C-237.05 280.22 -238.98 280.22 -240.92 280.23 C-243.62 280.23 -246.32 280.23 -249.03 280.23 C-249.83 280.24 -250.64 280.24 -251.47 280.24 C-257.01 280.23 -257.01 280.23 -259.24 279.12 C-258.93 277.25 -258.93 277.25 -258.24 275.12 C-254.46 272.6 -251.48 272.85 -247.1 272.89 C-246.27 272.89 -245.44 272.89 -244.58 272.89 C-241.84 272.89 -239.1 272.91 -236.36 272.92 C-234.45 272.93 -232.55 272.93 -230.65 272.93 C-225.64 272.94 -220.64 272.96 -215.63 272.98 C-210.53 273 -205.42 273.01 -200.31 273.02 C-190.29 273.04 -180.26 273.08 -170.24 273.12 C-170.04 272.51 -169.84 271.89 -169.64 271.26 C-169.37 270.46 -169.11 269.65 -168.84 268.82 C-168.7 268.42 -168.7 268.42 -168.04 266.4 C-165.53 259.25 -161.36 256.7 -154.9 253.32 C-148.46 250.41 -141.35 249.9 -134.55 251.92 C-126.05 255.7 -120.77 262.62 -117.24 271.12 C-117.24 271.78 -117.24 272.44 -117.24 273.12 C-89.52 273.12 -61.8 273.12 -33.24 273.12 C-33.24 219.99 -33.24 166.86 -33.24 112.12 C-108.68 112.18 -108.68 112.18 -132.1 112.21 C-162.85 112.23 -193.59 112.21 -224.34 111.68 C-225.52 111.66 -226.71 111.64 -227.93 111.62 C-231.22 111.56 -234.51 111.5 -237.8 111.43 C-238.27 111.43 -238.27 111.43 -240.64 111.38 C-244.86 111.29 -249.06 111.12 -253.27 110.79 C-253.99 110.73 -254.71 110.68 -255.44 110.62 C-257.24 110.12 -257.24 110.12 -259.24 107.12 C-256.17 105.08 -255.36 104.85 -251.87 104.71 C-251 104.67 -250.12 104.63 -249.22 104.59 C-248.28 104.56 -247.34 104.53 -246.36 104.5 C-245.38 104.46 -244.4 104.43 -243.38 104.39 C-233.35 104.03 -223.33 103.99 -213.29 104.01 C-211.31 104.01 -209.33 104.01 -207.34 104.01 C-202.04 104.01 -196.73 104.01 -191.42 104.02 C-185.85 104.03 -180.27 104.03 -174.7 104.03 C-164.18 104.03 -153.66 104.04 -143.14 104.05 C-131.14 104.06 -119.15 104.06 -107.16 104.07 C-82.52 104.08 -57.88 104.1 -33.24 104.12 C-33.24 103.02 -33.25 101.92 -33.25 100.78 C-33.27 90.37 -33.28 79.95 -33.29 69.54 C-33.3 64.18 -33.31 58.83 -33.32 53.48 C-33.33 48.3 -33.33 43.13 -33.34 37.96 C-33.34 35.99 -33.34 34.02 -33.35 32.06 C-33.41 7.79 -33.41 7.79 -32.24 2.12 C-23.57 -2.21 -9.54 -0.02 0 0 Z " fill="#FEFEFE" transform="translate(439.2417449951172,5.8797454833984375)"/>
<path d="M0 0 C125.4 0 250.8 0 380 0 C380 36.81 380 36.81 379.78 53.28 C379.76 55.1 379.74 56.91 379.71 58.73 C379.66 63.38 379.6 68.02 379.54 72.67 C379.47 77.47 379.42 82.26 379.36 87.06 C379.24 96.37 379.12 105.69 379 115 C363.75 115.78 348.55 116.14 333.29 116.11 C331.09 116.11 328.89 116.11 326.7 116.11 C320.9 116.11 315.1 116.11 309.29 116.1 C303.82 116.1 298.35 116.1 292.87 116.09 C276.94 116.09 261 116.08 245.06 116.06 C209.4 116.04 173.74 116.02 137 116 C137 210.05 137 304.1 137 401 C-201.25 401 -539.5 401 -888 401 C-888 331.7 -888 262.4 -888 191 C-884.04 189.02 -880.08 187.04 -876 185 C-869.91 179.2 -868.66 176.24 -865 168 C-837.28 168 -809.56 168 -781 168 C-780.94 176.19 -780.88 184.37 -780.82 192.8 C-780.77 198.66 -780.72 204.52 -780.68 210.37 C-780.62 217.95 -780.56 225.53 -780.5 233.11 C-780.46 239.76 -780.4 246.4 -780.35 253.05 C-780.33 255.58 -780.31 258.11 -780.29 260.65 C-780.27 264.2 -780.24 267.75 -780.21 271.31 C-780.2 272.35 -780.19 273.39 -780.19 274.46 C-780.13 280.69 -779.74 286.81 -779 293 C-772.47 294.2 -766.04 294.35 -759.42 294.55 C-758.73 294.57 -758.04 294.59 -757.33 294.61 C-738.05 295.18 -718.78 295.18 -699.5 295.2 C-694.03 295.21 -688.57 295.22 -683.11 295.24 C-673.68 295.26 -664.26 295.28 -654.83 295.29 C-641.21 295.31 -627.58 295.34 -613.96 295.37 C-591.84 295.42 -569.72 295.46 -547.61 295.5 C-526.15 295.54 -504.68 295.58 -483.22 295.63 C-482.56 295.63 -481.89 295.63 -481.21 295.63 C-473.88 295.65 -466.56 295.66 -459.23 295.68 C-404.15 295.79 -349.08 295.9 -294 296 C-294 262.01 -294 228.02 -294 193 C-254.58 192.74 -254.58 192.74 -239.77 192.64 C-238.86 192.64 -237.95 192.63 -237.02 192.63 C-230.24 192.58 -223.46 192.54 -216.69 192.5 C-215.73 192.49 -214.77 192.49 -213.78 192.48 C-159.81 192.15 -105.85 191.9 -51.88 191.94 C-51.21 191.94 -50.55 191.94 -49.87 191.94 C-33.58 191.95 -17.29 191.97 -1 192 C-1 191.18 -1 190.36 -1 189.52 C-1.03 169.45 -1.04 149.37 -1.05 129.3 C-1.06 119.59 -1.06 109.89 -1.08 100.18 C-1.09 91.71 -1.09 83.23 -1.09 74.76 C-1.1 70.28 -1.1 65.81 -1.11 61.33 C-1.11 57.09 -1.11 52.86 -1.11 48.62 C-1.11 47.09 -1.12 45.56 -1.12 44.03 C-1.16 29.32 -0.53 14.72 0 0 Z " fill="#FEFEFE" transform="translate(1187,118)"/>
<path d="M0 0 C155.1 0 310.2 0 470 0 C470 129.69 470 259.38 470 393 C314.9 393 159.8 393 0 393 C0 375.51 0 358.02 0 340 C2.64 337.69 5.28 335.38 8 333 C9.67 331.5 11.34 330 13 328.5 C16.62 325.23 20.27 322 23.95 318.8 C26.26 316.77 28.54 314.7 30.81 312.62 C34.21 309.55 37.68 306.62 41.25 303.75 C46.32 299.66 51.05 295.28 55.79 290.82 C60.26 286.62 64.88 282.71 69.7 278.9 C72 277 72 277 74.18 274.75 C76 273 76 273 78 273 C75.76 267.77 72.84 264.43 68.81 260.56 C68.52 260.28 68.52 260.28 67.04 258.82 C63.49 255.37 59.87 252.02 56.09 248.8 C53.34 246.43 50.67 243.96 48 241.5 C44.04 237.86 40.05 234.26 35.98 230.73 C31.07 226.44 26.26 222.04 21.42 217.67 C14.38 211.32 7.29 205.07 0 199 C0 133.33 0 67.66 0 0 Z " fill="#FEFEFE" transform="translate(416,13)"/>
<path d="M0 0 C1.96 -0 3.91 -0 5.87 -0 C11.23 -0 16.58 -0 21.94 0 C27.72 0.01 33.51 0.01 39.29 0.01 C49.3 0.01 59.32 0.01 69.33 0.01 C83.81 0.02 98.29 0.03 112.77 0.03 C136.26 0.03 159.76 0.04 183.25 0.04 C206.07 0.05 228.88 0.06 251.7 0.07 C252.05 0.07 252.05 0.07 253.83 0.07 C260.9 0.07 267.97 0.07 275.04 0.07 C289.43 0.07 303.83 0.07 318.23 0.08 C318.56 0.08 318.56 0.08 320.23 0.08 C364.41 0.09 408.58 0.1 452.76 0.12 C453.49 38.76 453.91 77.37 453.86 116.02 C453.85 121.81 453.85 127.6 453.85 133.39 C453.85 150.09 453.83 166.79 453.82 183.5 C453.8 220.99 453.78 258.49 453.76 297.12 C548.14 297.12 642.52 297.12 739.76 297.12 C739.76 233.43 739.76 169.74 739.76 104.12 C867.47 104.12 995.18 104.12 1126.76 104.12 C1126.76 90.92 1126.76 77.72 1126.76 64.12 C1126.86 55.43 1126.96 46.74 1127.13 38.04 C1127.2 34.5 1127.26 30.96 1127.31 27.42 C1127.36 25.12 1127.4 22.82 1127.44 20.53 C1127.46 19.49 1127.48 18.45 1127.49 17.39 C1127.51 16.41 1127.53 15.44 1127.55 14.44 C1127.57 13.6 1127.58 12.77 1127.6 11.9 C1127.81 8.29 1128.31 4.71 1128.76 1.12 C1288.15 1.12 1447.54 1.12 1611.76 1.12 C1612.91 24.16 1612.91 24.16 1613.07 34.12 C1613.09 34.68 1613.09 34.68 1613.14 37.53 C1613.18 39.88 1613.22 42.24 1613.26 44.59 C1613.32 48.09 1613.39 51.59 1613.45 55.09 C1613.49 57.41 1613.53 59.73 1613.57 62.06 C1613.59 63.05 1613.61 64.05 1613.63 65.08 C1613.84 78.09 1613.77 91.11 1613.76 104.12 C1614.68 104.12 1615.59 104.12 1616.54 104.12 C1638.94 104.1 1661.35 104.08 1683.76 104.07 C1694.59 104.06 1705.43 104.06 1716.26 104.04 C1725.72 104.03 1735.17 104.03 1744.63 104.03 C1749.63 104.02 1754.62 104.02 1759.62 104.01 C1799.58 103.96 1799.58 103.96 1818.76 105.12 C1818.76 106.44 1818.76 107.76 1818.76 109.12 C1810.28 114.77 1794.88 112.25 1784.86 112.23 C1782.95 112.23 1781.04 112.23 1779.12 112.23 C1774.03 112.23 1768.93 112.23 1763.84 112.22 C1759.05 112.22 1754.26 112.22 1749.46 112.21 C1735.48 112.21 1721.49 112.2 1707.51 112.18 C1676.24 112.16 1644.97 112.14 1612.76 112.12 C1612.76 209.8 1612.76 307.48 1612.76 408.12 C1452.71 408.12 1292.66 408.12 1127.76 408.12 C1127.76 351.36 1127.76 294.6 1127.76 236.12 C1049.88 236.12 972 236.12 891.76 236.12 C891.82 314.06 891.82 314.06 891.85 337.83 C891.87 398.28 891.29 458.67 890.76 519.12 C548.55 519.12 206.34 519.12 -146.24 519.12 C-147.4 455.67 -147.4 455.67 -147.55 426.03 C-147.57 421.67 -147.59 417.3 -147.62 412.94 C-147.67 404.78 -147.72 396.61 -147.76 388.45 C-147.81 379.12 -147.86 369.78 -147.92 360.44 C-148.03 341.34 -148.14 322.23 -148.24 303.12 C-149.21 302.67 -150.17 302.23 -151.16 301.76 C-152.44 301.15 -153.72 300.54 -154.99 299.93 C-155.63 299.64 -156.26 299.35 -156.91 299.05 C-162.78 296.21 -165.92 292.45 -168.49 286.43 C-168.83 285.67 -169.16 284.9 -169.51 284.11 C-170.24 282.12 -170.24 282.12 -170.24 280.12 C-171.33 280.12 -172.41 280.12 -173.53 280.13 C-183.74 280.15 -193.96 280.16 -204.17 280.17 C-209.42 280.18 -214.67 280.18 -219.92 280.2 C-224.98 280.21 -230.05 280.21 -235.11 280.22 C-237.05 280.22 -238.98 280.22 -240.92 280.23 C-243.62 280.23 -246.32 280.23 -249.03 280.23 C-249.83 280.24 -250.64 280.24 -251.47 280.24 C-257.01 280.23 -257.01 280.23 -259.24 279.12 C-258.93 277.25 -258.93 277.25 -258.24 275.12 C-254.46 272.6 -251.48 272.85 -247.1 272.89 C-246.27 272.89 -245.44 272.89 -244.58 272.89 C-241.84 272.89 -239.1 272.91 -236.36 272.92 C-234.45 272.93 -232.55 272.93 -230.65 272.93 C-225.64 272.94 -220.64 272.96 -215.63 272.98 C-210.53 273 -205.42 273.01 -200.31 273.02 C-190.29 273.04 -180.26 273.08 -170.24 273.12 C-170.04 272.51 -169.84 271.89 -169.64 271.26 C-169.37 270.46 -169.11 269.65 -168.84 268.82 C-168.7 268.42 -168.7 268.42 -168.04 266.4 C-165.53 259.25 -161.36 256.7 -154.9 253.32 C-148.46 250.41 -141.35 249.9 -134.55 251.92 C-126.05 255.7 -120.77 262.62 -117.24 271.12 C-117.24 271.78 -117.24 272.44 -117.24 273.12 C-89.52 273.12 -61.8 273.12 -33.24 273.12 C-33.24 219.99 -33.24 166.86 -33.24 112.12 C-108.68 112.18 -108.68 112.18 -132.1 112.21 C-162.85 112.23 -193.59 112.21 -224.34 111.68 C-225.52 111.66 -226.71 111.64 -227.93 111.62 C-231.22 111.56 -234.51 111.5 -237.8 111.43 C-238.27 111.43 -238.27 111.43 -240.64 111.38 C-244.86 111.29 -249.06 111.12 -253.27 110.79 C-253.99 110.73 -254.71 110.68 -255.44 110.62 C-257.24 110.12 -257.24 110.12 -259.24 107.12 C-256.17 105.08 -255.36 104.85 -251.87 104.71 C-251 104.67 -250.12 104.63 -249.22 104.59 C-248.28 104.56 -247.34 104.53 -246.36 104.5 C-245.38 104.46 -244.4 104.43 -243.38 104.39 C-233.35 104.03 -223.33 103.99 -213.29 104.01 C-211.31 104.01 -209.33 104.01 -207.34 104.01 C-202.04 104.01 -196.73 104.01 -191.42 104.02 C-185.85 104.03 -180.27 104.03 -174.7 104.03 C-164.18 104.03 -153.66 104.04 -143.14 104.05 C-131.14 104.06 -119.15 104.06 -107.16 104.07 C-82.52 104.08 -57.88 104.1 -33.24 104.12 C-33.24 103.02 -33.25 101.92 -33.25 100.78 C-33.27 90.37 -33.28 79.95 -33.29 69.54 C-33.3 64.18 -33.31 58.83 -33.32 53.48 C-33.33 48.3 -33.33 43.13 -33.34 37.96 C-33.34 35.99 -33.34 34.02 -33.35 32.06 C-33.41 7.79 -33.41 7.79 -32.24 2.12 C-23.57 -2.21 -9.54 -0.02 0 0 Z M-23.24 7.12 C-23.24 72.79 -23.24 138.46 -23.24 206.12 C-10.31 217.97 -10.31 217.97 -5.23 222.39 C-0.32 226.68 4.5 231.08 9.34 235.45 C13.08 238.82 16.83 242.19 20.63 245.5 C24.6 248.95 28.46 252.5 32.33 256.07 C35.18 258.69 38.07 261.28 41.01 263.81 C43.78 266.22 46.48 268.7 49.13 271.25 C49.78 271.87 50.43 272.49 51.09 273.13 C52.94 275.34 53.83 277.4 54.76 280.12 C54.48 280.24 54.48 280.24 53.07 280.84 C50.19 282.43 48.09 284.43 45.7 286.68 C42.05 290.08 38.34 293.32 34.45 296.43 C28.7 301.06 23.36 306.07 17.98 311.11 C14.94 313.96 11.83 316.73 8.68 319.45 C6.35 321.48 4.05 323.55 1.76 325.62 C-1.85 328.88 -5.49 332.1 -9.16 335.28 C-12.52 338.25 -15.83 341.28 -19.14 344.3 C-21.24 346.12 -21.24 346.12 -23.24 347.12 C-23.24 364.61 -23.24 382.1 -23.24 400.12 C131.86 400.12 286.96 400.12 446.76 400.12 C446.76 270.43 446.76 140.74 446.76 7.12 C291.66 7.12 136.56 7.12 -23.24 7.12 Z M1134.76 7.12 C1134.76 56.95 1134.76 106.78 1134.76 158.12 C1145.76 168.03 1145.76 168.03 1150.01 171.37 C1155.08 175.47 1159.82 179.86 1164.57 184.33 C1167.99 187.53 1171.46 190.58 1175.13 193.5 C1180.67 197.92 1185.79 202.74 1190.93 207.63 C1194.84 211.35 1198.82 214.97 1202.9 218.51 C1205.38 220.66 1207.82 222.86 1210.26 225.06 C1210.69 225.44 1210.69 225.44 1212.85 227.4 C1213.48 227.97 1214.11 228.53 1214.76 229.12 C1213.16 233.3 1210.07 235.84 1206.82 238.75 C1206.24 239.27 1205.66 239.8 1205.07 240.34 C1203.88 241.41 1202.68 242.49 1201.49 243.56 C1199.9 245 1198.31 246.44 1196.73 247.88 C1191.47 252.7 1186.16 257.46 1180.76 262.12 C1180.51 262.34 1180.51 262.34 1179.23 263.44 C1173.29 268.57 1167.35 273.67 1161.26 278.62 C1156.97 282.11 1152.72 285.66 1148.51 289.25 C1147.94 289.72 1147.38 290.2 1146.79 290.7 C1142.54 294.33 1138.75 298.13 1134.76 302.12 C1134.76 334.46 1134.76 366.8 1134.76 400.12 C1289.86 400.12 1444.96 400.12 1604.76 400.12 C1604.76 270.43 1604.76 140.74 1604.76 7.12 C1449.66 7.12 1294.56 7.12 1134.76 7.12 Z M747.76 112.12 C746.61 144.31 746.61 144.31 746.64 158.35 C746.65 159.97 746.64 161.59 746.64 163.21 C746.64 167.5 746.65 171.79 746.66 176.08 C746.66 180.6 746.66 185.12 746.66 189.64 C746.67 198.15 746.68 206.67 746.69 215.18 C746.7 224.89 746.7 234.6 746.71 244.32 C746.72 264.25 746.74 284.19 746.76 304.12 C745.59 304.12 744.43 304.12 743.23 304.11 C727.45 304.08 711.67 304.07 695.88 304.06 C694.57 304.06 693.25 304.06 691.9 304.06 C638.29 304.02 584.68 304.29 531.07 304.62 C530.11 304.63 529.14 304.63 528.15 304.64 C521.43 304.68 514.71 304.72 507.98 304.76 C507.14 304.77 506.29 304.78 505.42 304.78 C488.2 304.89 470.98 305.01 453.76 305.12 C453.76 339.11 453.76 373.1 453.76 408.12 C397.36 408.01 340.96 407.91 284.56 407.79 C277.88 407.78 271.21 407.76 264.54 407.75 C264.21 407.75 264.21 407.75 262.52 407.74 C240.4 407.7 218.28 407.66 196.16 407.62 C174.12 407.57 152.07 407.53 130.03 407.48 C116.45 407.45 102.87 407.43 89.29 407.41 C79.95 407.39 70.61 407.37 61.27 407.35 C55.9 407.33 50.53 407.32 45.16 407.32 C26.22 407.29 7.28 407.24 -11.66 406.67 C-12.96 406.63 -14.27 406.59 -15.61 406.55 C-20.93 406.37 -26 406.08 -31.24 405.12 C-32.1 397.87 -32.41 390.72 -32.45 383.43 C-32.46 382.31 -32.47 381.18 -32.48 380.02 C-32.51 376.35 -32.53 372.67 -32.56 368.99 C-32.58 366.42 -32.6 363.86 -32.62 361.3 C-32.67 355.26 -32.72 349.22 -32.76 343.18 C-32.81 335.62 -32.87 328.07 -32.94 320.51 C-33.04 307.05 -33.14 293.58 -33.24 280.12 C-60.96 280.12 -88.68 280.12 -117.24 280.12 C-119.22 284.08 -121.2 288.04 -123.24 292.12 C-129.04 298.21 -132 299.46 -140.24 303.12 C-140.24 372.42 -140.24 441.72 -140.24 513.12 C198.01 513.12 536.26 513.12 884.76 513.12 C884.76 419.07 884.76 325.02 884.76 228.12 C992.82 228.18 992.82 228.18 1026.83 228.21 C1040.63 228.21 1040.63 228.21 1047.11 228.22 C1051.59 228.22 1056.08 228.22 1060.56 228.23 C1066.31 228.23 1072.06 228.23 1077.81 228.23 C1079.9 228.23 1081.99 228.24 1084.08 228.24 C1098.33 228.26 1112.53 227.85 1126.76 227.12 C1126.89 216.85 1127.02 206.58 1127.15 196.31 C1127.21 191.54 1127.27 186.77 1127.33 182 C1127.39 177.36 1127.45 172.72 1127.51 168.09 C1127.53 166.35 1127.55 164.61 1127.57 162.87 C1127.8 145.95 1127.76 129.05 1127.76 112.12 C1002.36 112.12 876.96 112.12 747.76 112.12 Z " fill="#3C79F0" transform="translate(439.2417449951172,5.8797454833984375)"/>
<path d="M0 0 C0.33 0 0.66 0 1 0 C1 28.71 1 57.42 1 87 C118.48 87 235.96 87 357 87 C357 87.33 357 87.66 357 88 C284.73 88 212.46 88 138 88 C138 182.05 138 276.1 138 373 C-200.25 373 -538.5 373 -887 373 C-887 303.7 -887 234.4 -887 163 C-886.67 163 -886.34 163 -886 163 C-886 231.97 -886 300.94 -886 372 C-548.41 372 -210.82 372 137 372 C137 300.72 137 229.44 137 156 C91.79 156 46.58 156 0 156 C0 104.52 0 53.04 0 0 Z " fill="#EDF2FD" transform="translate(1186,146)"/>
<path d="M0 0 C6.33 3.5 9.57 8.74 11.81 15.47 C15.29 29.78 11.47 43.71 4.58 56.34 C0.36 63.11 -4.73 69.42 -10.3 75.15 C-10.96 75.15 -11.62 75.15 -12.3 75.15 C-13.45 73.5 -13.45 73.5 -14.67 71.34 C-18.14 65.63 -18.14 65.63 -21.3 64.15 C-25.23 63.65 -27.46 63.67 -30.92 65.65 C-33.96 68.84 -36.12 72.33 -38.3 76.15 C-43.15 74.07 -45.25 70.93 -47.3 66.15 C-47.96 62.6 -47.96 59.19 -47.86 55.59 C-47.84 54.62 -47.83 53.65 -47.81 52.66 C-47.24 34.93 -41.03 20.57 -28.3 8.15 C-20.18 1.25 -10.75 -3.99 0 0 Z " fill="#FDFDFE" transform="translate(778.296875,53.8515625)"/>
<path d="M0 0 C5.86 4.16 10.08 8.94 11.81 16 C13.12 28.46 12.25 39.64 6.81 51 C6.61 51.47 6.61 51.47 5.57 53.84 C1.53 62.18 -4.76 68.46 -11.19 75 C-11.79 74.23 -12.4 73.46 -13.02 72.67 C-18.59 65.8 -18.59 65.8 -22.19 64 C-26.34 63.72 -29.55 63.88 -33.19 66 C-34.31 68.31 -34.31 68.31 -35.19 71 C-36.16 72.68 -37.15 74.35 -38.19 76 C-40.96 75.66 -42 75.21 -43.89 73.09 C-50.36 62.25 -49.42 50.57 -46.56 38.69 C-42.37 23.06 -34.22 10.32 -20.19 2 C-19.58 1.64 -18.97 1.28 -18.35 0.91 C-12.54 -2.04 -6.08 -1.91 0 0 Z " fill="#FCFDFE" transform="translate(1939.1875,54)"/>
<path d="M0 0 C5.88 3.6 9.95 8.12 12.2 14.7 C14.99 30.41 11.01 45.62 2.71 59.03 C-1.21 64.41 -5.75 69.19 -10.41 73.94 C-10.85 73.34 -11.29 72.75 -11.75 72.14 C-17.76 64.15 -17.76 64.15 -21.41 62.94 C-25.67 62.46 -27.64 62.35 -31.09 65 C-33.61 68.2 -35.5 71.34 -37.41 74.94 C-40.79 73.55 -42.24 72.13 -44.09 69 C-44.51 68.31 -44.93 67.62 -45.36 66.91 C-50.5 57.26 -47.53 42.96 -44.73 32.85 C-42.95 27.18 -40.09 22.58 -36.41 17.94 C-35.72 17.06 -35.04 16.19 -34.34 15.29 C-26.6 6.06 -12.86 -5.68 0 0 Z " fill="#FCFDFE" transform="translate(1938.40625,265.0625)"/>
<path d="M0 0 C5.13 4.4 9.05 9.59 9.9 16.45 C9.99 18.85 9.99 21.23 9.94 23.62 C9.94 24.42 9.94 25.22 9.95 26.05 C9.79 43.49 1.35 57.38 -10.64 69.55 C-11.22 70.11 -11.79 70.67 -12.38 71.25 C-16.13 70 -16.62 68.68 -18.38 65.25 C-18.38 64.59 -18.38 63.93 -18.38 63.25 C-22.63 61.12 -26.7 60.33 -31.38 61.25 C-35.39 64.28 -37.36 67.69 -39.38 72.25 C-40.7 72.25 -42.01 72.25 -43.38 72.25 C-44.82 70.61 -44.82 70.61 -46.06 68.44 C-46.48 67.73 -46.9 67.02 -47.32 66.29 C-52.62 56.01 -49.73 38.81 -46.38 28.25 C-41.2 16.75 -33.36 7.46 -22.38 1.25 C-21.64 0.82 -20.91 0.4 -20.16 -0.04 C-13.21 -3.64 -6.97 -3.61 0 0 Z " fill="#FDFDFE" transform="translate(780.375,266.75)"/>
<path d="M0 0 C6.93 4.99 10.79 11.75 13.46 19.77 C15.37 37.38 11.45 52.68 0.46 66.77 C-4.21 72.18 -8.83 76.57 -15.11 80.02 C-19.38 82.4 -19.38 82.4 -20.92 85.89 C-20.54 88.77 -20.54 88.77 -18.98 91.14 C-15.81 93.26 -14.29 93.37 -10.54 92.77 C-5.66 90.23 -3.52 87.28 -0.54 82.77 C0.45 82.77 1.44 82.77 2.46 82.77 C2.1 90.71 -1.65 99.14 -7.17 104.89 C-11.35 108.2 -14.06 109.25 -19.58 109.08 C-22.81 108.57 -24.36 107.14 -26.54 104.77 C-30.55 99.25 -29.83 93.29 -29.54 86.77 C-30.64 86.82 -31.74 86.86 -32.88 86.91 C-43.45 87.22 -51.71 86.51 -60.86 80.64 C-64.49 76.75 -67.1 72.49 -69.54 67.77 C-69.73 67.41 -69.73 67.41 -70.7 65.56 C-74.1 54.33 -72.29 40.14 -67.07 29.86 C-58.06 13.58 -46.55 2.15 -28.66 -3.86 C-18.59 -5.61 -8.93 -5.22 0 0 Z M-46.54 16.77 C-55.25 29.23 -58.81 42 -59.17 57.14 C-59.2 58.06 -59.24 58.97 -59.28 59.92 C-59.26 66.15 -57.73 70.04 -54.22 75.17 C-52.54 76.77 -52.54 76.77 -48.54 76.77 C-46.95 74.87 -46.95 74.87 -45.48 72.39 C-43.59 69.24 -42.67 67.85 -39.54 65.77 C-35.06 65.18 -33.12 65.39 -29.29 67.89 C-26.58 70.73 -25.05 73.17 -23.54 76.77 C-14.24 73.03 -7.68 60.41 -3.54 51.77 C1.52 39.81 3.96 27.3 -0.29 14.64 C-2.79 8.78 -5.61 4.52 -11.44 1.51 C-25.39 -3.39 -38.21 6.41 -46.54 16.77 Z " fill="#3A77F0" transform="translate(789.54296875,52.23046875)"/>
<path d="M0 0 C0.75 0 1.5 0 2.27 0 C10.46 0.19 17.9 2.37 23.75 8.38 C31.7 18.48 34.03 28.38 33.04 41.1 C31.14 55.84 22.39 71.19 10.75 80.38 C7.57 82.41 4.39 84.39 1.13 86.29 C-1.25 88.38 -1.25 88.38 -1.7 91.5 C-1.25 94.38 -1.25 94.38 0.38 96.25 C3.44 97.7 5.38 97.79 8.75 97.38 C13.16 95.55 15.16 92.7 17.64 88.8 C18 88.33 18.37 87.86 18.75 87.38 C19.41 87.38 20.07 87.38 20.75 87.38 C20.32 96.46 17.16 103.77 10.75 110.38 C6.35 113.21 2.96 114.12 -2.25 113.38 C-6.55 110.54 -8.74 108.26 -10.25 103.38 C-10.45 100.26 -10.45 100.26 -10.38 97.06 C-10.36 95.99 -10.34 94.93 -10.32 93.82 C-10.3 93.02 -10.27 92.21 -10.25 91.38 C-11.14 91.4 -12.04 91.42 -12.96 91.45 C-25.01 91.63 -34.6 91.13 -43.9 82.91 C-49.94 76.62 -53.49 68.2 -53.75 59.5 C-52.78 40.44 -44.69 25.2 -31 12.12 C-22.28 4.66 -11.5 -0.03 0 0 Z M-27.34 21 C-32.56 28.31 -35.68 35.8 -38.25 44.38 C-38.5 45.13 -38.74 45.89 -39 46.66 C-41.67 56.22 -42.11 67.95 -37.5 76.88 C-34.97 81.12 -34.97 81.12 -32.05 82.16 C-31.45 82.23 -30.86 82.3 -30.25 82.38 C-29.41 81.09 -28.58 79.79 -27.75 78.5 C-27.29 77.78 -26.82 77.06 -26.34 76.32 C-25.25 74.38 -25.25 74.38 -25.25 72.38 C-21.41 70.57 -18.49 69.86 -14.25 70.38 C-8.87 73.07 -6.85 76.18 -4.25 81.38 C7.94 71.72 16.33 58.63 19.75 43.38 C20.07 39.91 20.12 36.48 20.12 33 C20.14 32.55 20.14 32.55 20.2 30.29 C20.23 22.82 18.64 16.75 13.71 11 C13.05 10.46 12.38 9.93 11.69 9.38 C11.02 8.82 10.34 8.26 9.65 7.69 C-3.03 -1.06 -19.45 11.1 -27.34 21 Z " fill="#3A77F0" transform="translate(1931.25,47.625)"/>
<path d="M0 0 C7.39 5.22 12.86 11.06 15 20 C17.22 36.26 12.9 50.92 3 64 C-3 71.75 -9.72 76.85 -18 82 C-18.33 82.33 -18.66 82.66 -19 83 C-18.69 86.5 -18.69 86.5 -18 90 C-14.31 91.85 -9.75 91.45 -5.81 90.44 C-3.36 88.49 -1.89 86.11 -0.25 83.46 C0.17 82.98 0.58 82.5 1 82 C1.99 82 2.98 82 4 82 C3.42 90.89 -0.83 98.67 -7 105 C-11.43 107.71 -15.95 107.8 -21 107 C-24.87 104.18 -26.54 101.48 -28 97 C-28.2 93.89 -28.2 93.89 -28.12 90.69 C-28.11 89.62 -28.09 88.55 -28.07 87.45 C-28.05 86.64 -28.02 85.83 -28 85 C-28.63 85.02 -28.63 85.02 -31.8 85.14 C-42.59 85.42 -51.44 85.41 -60.38 78.62 C-67.19 71.81 -70.34 64.21 -70.42 54.69 C-70.4 53.85 -70.39 53 -70.38 52.12 C-70.36 51.24 -70.35 50.35 -70.34 49.44 C-69.95 33.43 -62.23 22.1 -51 11 C-44.61 5.1 -38.11 1.12 -30 -2 C-28.89 -2.43 -27.77 -2.87 -26.62 -3.31 C-17.29 -5.08 -8.3 -4.97 0 0 Z M-36 9 C-36.26 9.19 -36.26 9.19 -37.61 10.13 C-47.93 18.04 -54.79 30.71 -56.64 43.42 C-58.7 63.97 -58.7 63.97 -53.48 73.25 C-51.83 75.21 -50.35 76.03 -48 77 C-46.13 74.69 -44.79 72.57 -43.5 69.88 C-42 67 -42 67 -39 65 C-34.28 64.7 -30.15 64.44 -26 67 C-24.81 69.44 -24.81 69.44 -24 72 C-23.67 72.5 -23.67 72.5 -22 75 C-11.56 70.65 -4.85 57.69 -0.69 47.75 C3.17 38.06 3.87 24.79 1.09 14.71 C-1.85 8.47 -5.63 4.48 -12 1.69 C-21.34 -0.45 -28.55 3.49 -36 9 Z " fill="#3A77F0" transform="translate(788,263)"/>
<path d="M0 0 C6.45 5.27 10.94 12.03 12.48 20.3 C14.01 37.85 8.05 53.33 -3.08 66.93 C-8.41 72.69 -15.03 76.94 -21.52 81.3 C-21.26 83.65 -20.92 85.98 -20.52 88.3 C-17.31 89.91 -14 89.79 -10.52 89.3 C-7.4 87.39 -5.6 85.42 -3.33 82.55 C-2.73 81.81 -2.13 81.07 -1.52 80.3 C-0.86 80.3 -0.2 80.3 0.48 80.3 C0.2 89.22 -3.05 95.88 -9.2 102.37 C-13 105.55 -16.53 105.64 -21.29 105.59 C-24.64 105.16 -26.27 103.75 -28.52 101.3 C-30.94 97.65 -30.72 94.36 -30.64 90.05 C-30.62 88.79 -30.6 87.53 -30.59 86.23 C-30.56 85.26 -30.54 84.3 -30.52 83.3 C-31.17 83.34 -31.17 83.34 -34.47 83.52 C-46.15 83.95 -55.08 83.54 -64.43 75.7 C-71.38 68.49 -73.82 58.1 -73.83 48.42 C-73.6 37.08 -69.66 27.99 -62.52 19.3 C-61.82 18.46 -61.13 17.62 -60.41 16.75 C-45.55 -0.5 -21.72 -14.64 0 0 Z M-52.83 22.48 C-55.47 26.9 -57.14 31.36 -58.52 36.3 C-58.63 36.69 -58.63 36.69 -59.2 38.66 C-61.76 49.15 -62.38 60.84 -56.9 70.39 C-55.57 72.23 -54.18 73.76 -52.52 75.3 C-49.52 74.3 -49.52 74.3 -48.23 72.31 C-48.03 71.91 -48.03 71.91 -47.02 69.87 C-45.35 66.55 -44.7 65.43 -41.52 63.3 C-37.92 62.97 -35.28 63.01 -31.89 64.3 C-28.55 67.12 -26.63 70.52 -24.52 74.3 C-14.72 66.8 -7.79 56.84 -3.52 45.3 C-3.36 44.89 -3.36 44.89 -2.55 42.77 C0.4 33.75 1.36 21.73 -1.7 12.62 C-5.04 6.52 -8.88 1.72 -15.52 -0.7 C-30.89 -4.13 -45 11.17 -52.83 22.48 Z " fill="#3A77F0" transform="translate(1951.515625,264.6953125)"/>
<path d="M0 0 C0.59 0 0.59 0 3.55 0.02 C31.76 0.39 31.76 0.39 39.75 8.25 C47.11 16.14 49.3 23.93 49.24 34.55 C48.65 50.33 41.09 63.57 29.75 74.25 C14.68 86.93 -2.32 87.44 -21.22 87.44 C-23.51 87.44 -25.8 87.46 -28.09 87.47 C-29.56 87.48 -31.04 87.48 -32.52 87.48 C-33.83 87.48 -35.15 87.49 -36.51 87.49 C-40.45 87.24 -43.52 86.47 -47.25 85.25 C-44.64 81.33 -42.76 81.24 -38.25 80.25 C-35.31 80.12 -35.31 80.12 -33.25 80.25 C-33.17 79.24 -33.08 78.23 -33 77.19 C-32.51 73.29 -31.6 69.61 -30.56 65.82 C-30.2 64.48 -29.84 63.14 -29.48 61.8 C-29.28 61.07 -29.08 60.34 -28.88 59.59 C-26.96 52.45 -25.1 45.29 -23.25 38.13 C-22.75 36.2 -22.24 34.26 -21.73 32.33 C-20.98 29.49 -20.25 26.65 -19.52 23.81 C-19.29 22.96 -19.06 22.1 -18.82 21.21 C-17.6 16.41 -17.01 12.21 -17.25 7.25 C-20.22 6.92 -23.19 6.59 -26.25 6.25 C-26.25 4.93 -26.25 3.61 -26.25 2.25 C-17.44 0.66 -8.95 -0.08 0 0 Z M-3.25 6.25 C-3.43 6.99 -3.61 7.73 -3.8 8.5 C-5.52 15.53 -7.24 22.56 -8.96 29.59 C-9.85 33.21 -10.73 36.82 -11.61 40.43 C-12.47 43.93 -13.32 47.42 -14.18 50.92 C-14.51 52.24 -14.83 53.57 -15.15 54.9 C-16.82 61.74 -18.53 68.51 -20.82 75.18 C-21.31 77.54 -21.01 78.98 -20.25 81.25 C-17.42 81.3 -14.58 81.34 -11.75 81.38 C-11.35 81.38 -11.35 81.38 -9.35 81.43 C2.06 81.52 12.5 78.09 20.91 70.22 C32.61 57.72 36.71 40.98 36.19 24.27 C35.79 18.8 33.76 14.98 29.75 11.25 C27.45 9.56 25.37 8.46 22.75 7.25 C22.09 6.92 21.43 6.59 20.75 6.25 C18.94 6.17 17.12 6.14 15.3 6.15 C14.77 6.15 14.77 6.15 12.04 6.16 C11.48 6.17 11.48 6.17 8.62 6.19 C7.49 6.19 6.35 6.2 5.18 6.2 C2.37 6.21 -0.44 6.23 -3.25 6.25 Z " fill="#3B78F0" transform="translate(478.25,49.75)"/>
<path d="M0 0 C3.3 3.25 5.68 6.77 7.86 10.83 C8.2 11.45 8.54 12.06 8.89 12.7 C12.77 21.07 11.98 32.3 8.86 40.83 C8.54 41.74 8.23 42.65 7.9 43.59 C2.15 58.7 -7.63 69.82 -22.29 76.65 C-33.91 81.48 -46.72 81.02 -59.11 81.02 C-61.4 81.02 -63.68 81.04 -65.97 81.06 C-67.45 81.06 -68.93 81.06 -70.4 81.06 C-71.72 81.07 -73.04 81.07 -74.4 81.07 C-78.34 80.82 -81.4 80.05 -85.14 78.83 C-83.27 76.2 -81.83 74.97 -78.64 74.34 C-76.14 74.11 -73.65 73.93 -71.14 73.83 C-71.04 73.24 -70.94 72.64 -70.84 72.02 C-68.83 60.34 -66.04 48.85 -62.76 37.46 C-59.3 25.39 -56.77 13.1 -54.14 0.83 C-57.44 0.5 -60.74 0.17 -64.14 -0.17 C-64.14 -1.49 -64.14 -2.81 -64.14 -4.17 C-48.29 -9.45 -13.7 -10.6 0 0 Z M-41.14 -0.17 C-43.51 9.02 -45.88 18.21 -48.23 27.4 C-49.32 31.66 -50.42 35.93 -51.52 40.2 C-52.59 44.31 -53.64 48.43 -54.69 52.55 C-55.09 54.12 -55.5 55.69 -55.91 57.26 C-56.48 59.46 -57.04 61.66 -57.6 63.86 C-57.76 64.49 -57.76 64.49 -58.57 67.66 C-59.09 70.58 -59.18 72.11 -58.14 74.83 C-29.95 75.38 -29.95 75.38 -17.87 64.86 C-7.09 53.53 -2 38.24 -1.89 22.83 C-1.87 22.15 -1.85 21.46 -1.82 20.75 C-1.78 14.55 -3.45 10.69 -7.57 6.14 C-12.62 1.59 -15.78 -0.3 -22.68 -0.27 C-23.22 -0.26 -23.22 -0.26 -25.93 -0.26 C-27.05 -0.25 -28.17 -0.24 -29.32 -0.23 C-29.89 -0.23 -29.89 -0.23 -32.75 -0.22 C-35.55 -0.21 -38.34 -0.19 -41.14 -0.17 Z " fill="#3B78F0" transform="translate(1675.13671875,56.16796875)"/>
<path d="M0 0 C0.36 0 0.36 0 2.19 0 C4.4 -0 6.6 -0.02 8.8 -0.04 C10.2 -0.04 11.6 -0.04 13 -0.04 C14.28 -0.05 15.55 -0.05 16.87 -0.06 C20.04 0.19 20.04 0.19 23.04 2.19 C22.71 3.18 22.38 4.17 22.04 5.19 C19.73 5.52 17.42 5.85 15.04 6.19 C16.36 11.88 18.06 17.24 20.16 22.69 C20.44 23.41 20.72 24.14 21 24.89 C21.68 26.66 22.36 28.42 23.04 30.19 C25.04 30.19 25.04 30.19 26.7 28.79 C41.22 14.16 41.22 14.16 42.04 6.19 C40.72 5.53 39.4 4.87 38.04 4.19 C38.37 2.87 38.7 1.55 39.04 0.19 C42.99 0.16 46.94 0.14 50.89 0.13 C52.9 0.12 54.9 0.11 56.91 0.1 C57.54 0.1 57.54 0.1 60.72 0.09 C61.88 0.08 63.04 0.08 64.24 0.07 C67.04 0.19 67.04 0.19 69.04 1.19 C68.04 4.19 68.04 4.19 65.7 5.47 C64.7 5.92 63.7 6.36 62.66 6.81 C55.89 10.07 50.62 14.2 45.04 19.19 C44.48 19.68 43.93 20.17 43.36 20.68 C41.6 22.26 39.85 23.84 38.1 25.44 C37.56 25.93 37.01 26.43 36.45 26.94 C30.15 32.78 30.15 32.78 28.04 36.19 C28.21 44.03 32.87 52.1 36.04 59.19 C36.39 59.98 36.74 60.77 37.1 61.58 C38.17 63.93 39.28 66.25 40.41 68.56 C40.74 69.28 41.07 70 41.4 70.74 C43.55 74.96 45.28 76.63 49.83 78.16 C51.22 78.53 52.63 78.88 54.04 79.19 C54.04 80.51 54.04 81.83 54.04 83.19 C49.75 85.33 44.01 84.37 39.24 84.37 C37.11 84.37 34.99 84.39 32.87 84.41 C31.52 84.41 30.17 84.42 28.82 84.42 C28.21 84.42 28.21 84.42 25.1 84.43 C22.04 84.19 22.04 84.19 19.04 82.19 C19.66 80.25 19.66 80.25 21.04 78.19 C24.16 77.44 24.16 77.44 27.04 77.19 C25.79 69.42 22.82 62.77 19.6 55.66 C18.04 52.19 18.04 52.19 17.04 49.19 C6.91 55.16 -4.01 65.99 -7.96 77.19 C-6.64 77.85 -5.32 78.51 -3.96 79.19 C-3.96 80.51 -3.96 81.83 -3.96 83.19 C-7.1 84.76 -10.45 84.38 -13.9 84.37 C-14.28 84.37 -14.28 84.37 -16.2 84.38 C-22.28 84.32 -28.05 83.62 -33.96 82.19 C-33.96 81.53 -33.96 80.87 -33.96 80.19 C-33.59 80.05 -33.59 80.05 -31.72 79.37 C-31.22 79.18 -31.22 79.18 -28.65 78.19 C-27.66 77.81 -26.68 77.44 -25.66 77.06 C-14.8 72.03 -6.5 63.12 1.73 54.69 C2.83 53.57 3.94 52.45 5.04 51.33 C7.72 48.62 10.38 45.91 13.04 43.19 C10.97 35.59 8.2 28.45 5.04 21.25 C4.6 20.22 4.16 19.19 3.71 18.14 C3.28 17.15 2.85 16.17 2.41 15.16 C2.03 14.27 1.65 13.39 1.25 12.48 C-0.34 9.46 -1.76 7.61 -5 6.46 C-5.71 6.3 -6.42 6.15 -7.15 6 C-8.41 5.73 -9.66 5.46 -10.96 5.19 C-11.52 3.25 -11.52 3.25 -11.96 1.19 C-9.49 -1.28 -3.46 0.01 0 0 Z " fill="#3A77F0" transform="translate(94.9609375,237.814453125)"/>
<path d="M0 0 C6.32 4.7 10.18 10.33 12 18 C13.22 26.98 11.12 34.12 5.69 41.31 C-0.12 47.12 -6.18 49.11 -14.31 49.25 C-22.87 49.12 -28.07 46.58 -34.3 40.77 C-40.14 34.68 -40.36 28.42 -40.28 20.32 C-39.62 12.47 -35.63 6.35 -30 1 C-21.67 -4.95 -8.89 -4.92 0 0 Z " fill="#FDFDFE" transform="translate(1615,213)"/>
<path d="M0 0 C5.33 4.22 7.79 8.87 8.7 15.6 C9.17 23.07 8.54 29.48 4.11 35.75 C-0.1 40.25 -5.75 44.58 -12.01 45.05 C-25.76 45.31 -25.76 45.31 -31.81 40.81 C-32.12 40.58 -32.12 40.58 -33.7 39.42 C-38.55 35.56 -42.39 31.61 -43.34 25.26 C-43.28 17.57 -42.95 11.42 -38.81 4.81 C-38.26 3.9 -37.7 3 -37.12 2.06 C-26.04 -8.73 -12.5 -7.84 0 0 Z " fill="#FCFDFE" transform="translate(458.8125,261.1875)"/>
<path d="M0 0 C1.35 0 2.7 0.01 4.05 0.02 C4.4 0.02 4.4 0.02 6.19 0.02 C8.47 0.03 10.74 0.04 13.01 0.05 C14.55 0.06 16.09 0.06 17.62 0.06 C21.4 0.08 25.17 0.09 28.95 0.11 C29.11 0.94 29.11 0.94 29.95 5.11 C27.31 5.77 24.67 6.43 21.95 7.11 C24.23 18.83 28.61 30.44 33.95 41.11 C36.83 39.83 38.71 38.56 40.76 36.16 C41.27 35.57 41.79 34.98 42.32 34.36 C42.85 33.72 43.39 33.09 43.95 32.43 C44.23 32.1 44.23 32.1 45.65 30.43 C47.43 28.33 49.19 26.23 50.95 24.11 C51.54 23.41 52.12 22.71 52.72 21.99 C54.41 19.96 56.09 17.91 57.76 15.86 C58.28 15.23 58.8 14.6 59.34 13.95 C62.95 9.46 62.95 9.46 62.95 6.11 C61.63 5.78 60.31 5.45 58.95 5.11 C59.28 3.46 59.61 1.81 59.95 0.11 C63.89 0.03 67.82 -0.03 71.76 -0.07 C72.32 -0.09 72.32 -0.09 75.15 -0.15 C76.23 -0.16 77.3 -0.17 78.41 -0.18 C78.9 -0.19 78.9 -0.19 81.41 -0.23 C84.32 0.16 85.17 0.83 86.95 3.11 C84.43 5.32 82.57 6.23 79.32 7.24 C73.41 9.33 69.35 13.81 64.95 18.11 C64.63 18.42 64.63 18.42 63 19.98 C59.48 23.42 56.17 27.02 52.96 30.77 C51.43 32.55 49.88 34.31 48.31 36.05 C38.03 47.62 29.89 60.39 29.76 76.43 C29.82 77.31 29.89 78.2 29.95 79.11 C32.59 79.44 35.23 79.77 37.95 80.11 C38.28 81.43 38.61 82.75 38.95 84.11 C31.18 85.8 23.82 86.4 15.89 86.3 C14.86 86.3 13.83 86.3 12.76 86.3 C5.23 86.25 5.23 86.25 2.95 85.11 C2.95 83.79 2.95 82.47 2.95 81.11 C3.62 81.06 4.3 81.01 5 80.96 C7.82 80.6 10.28 80.1 12.95 79.11 C15.16 76.15 15.92 74.54 16.95 71.11 C17.32 69.93 17.69 68.75 18.07 67.53 C21 57.53 22.13 49.85 18.25 40.14 C17.97 39.41 17.69 38.69 17.4 37.94 C16.81 36.41 16.22 34.89 15.61 33.37 C14.7 31.06 13.81 28.74 12.92 26.42 C12.34 24.93 11.76 23.44 11.18 21.95 C10.92 21.27 10.66 20.59 10.38 19.89 C5.67 8.01 5.67 8.01 1.81 5.99 C1.46 5.94 1.46 5.94 -0.3 5.68 C-0.92 5.58 -0.92 5.58 -4.05 5.11 C-4.05 0.15 -4.05 0.15 0 0 Z " fill="#3A78F0" transform="translate(2274.051025390625,74.886474609375)"/>
<path d="M0 0 C1.21 -0 2.41 -0.01 3.66 -0.01 C5 -0 6.34 0.01 7.68 0.02 C9.09 0.02 10.5 0.02 11.91 0.02 C15.73 0.02 19.56 0.04 23.39 0.06 C27.39 0.08 31.39 0.08 35.39 0.08 C42.97 0.09 50.54 0.11 58.12 0.14 C66.74 0.18 75.36 0.19 83.99 0.21 C101.73 0.24 119.47 0.29 137.21 0.36 C137.21 2.01 137.21 3.66 137.21 5.36 C90.68 5.36 44.15 5.36 -3.79 5.36 C-3.79 24.83 -3.79 44.3 -3.79 64.36 C42.74 64.36 89.27 64.36 137.21 64.36 C137.21 66.01 137.21 67.66 137.21 69.36 C118.62 69.43 100.02 69.48 81.43 69.52 C72.8 69.53 64.17 69.55 55.53 69.59 C48.01 69.62 40.49 69.64 32.96 69.64 C28.98 69.65 25 69.66 21.01 69.68 C17.26 69.7 13.51 69.7 9.77 69.7 C8.39 69.7 7.01 69.71 5.63 69.72 C3.76 69.73 1.88 69.73 0 69.72 C-1.05 69.72 -2.1 69.73 -3.19 69.73 C-5.79 69.36 -5.79 69.36 -7.63 68.01 C-9.41 65.48 -9.17 63.34 -9.18 60.28 C-9.19 59.03 -9.2 57.78 -9.21 56.49 C-9.2 55.13 -9.19 53.76 -9.19 52.39 C-9.19 50.99 -9.19 49.59 -9.2 48.19 C-9.2 45.25 -9.19 42.32 -9.18 39.38 C-9.16 35.62 -9.17 31.86 -9.19 28.09 C-9.2 25.2 -9.2 22.31 -9.19 19.42 C-9.19 18.03 -9.19 16.64 -9.2 15.25 C-9.21 13.31 -9.19 11.38 -9.18 9.44 C-9.18 8.33 -9.17 7.23 -9.17 6.09 C-8.79 3.36 -8.79 3.36 -7.63 1.71 C-5.04 -0.19 -3.2 -0.01 0 0 Z " fill="#E7EFFD" transform="translate(1041.7895965576172,232.6392364501953)"/>
<path d="M0 0 C1.68 0.29 3.34 0.62 5 1 C5.8 9.94 6.17 18.81 6.25 27.78 C6.28 30.36 6.31 32.94 6.35 35.52 C6.39 39.53 6.44 43.54 6.48 47.56 C6.51 51.46 6.57 55.37 6.62 59.28 C6.63 60.48 6.64 61.69 6.65 62.92 C6.66 64.04 6.68 65.16 6.7 66.31 C6.71 67.29 6.72 68.27 6.73 69.28 C7.02 72.18 7.8 74.37 9 77 C9.7 77.03 10.4 77.05 11.12 77.08 C11.57 77.11 11.57 77.11 13.88 77.25 C14.78 77.3 15.68 77.34 16.62 77.39 C19 78 19 78 20.32 80.05 C20.54 80.69 20.77 81.34 21 82 C16.78 84.03 13.31 84.26 8.65 84.27 C7.96 84.27 7.26 84.27 6.55 84.27 C5.09 84.27 3.63 84.27 2.17 84.26 C-0.06 84.25 -2.29 84.26 -4.52 84.27 C-5.94 84.27 -7.36 84.27 -8.79 84.27 C-10.07 84.26 -11.36 84.26 -12.69 84.26 C-15.75 84.02 -17.44 83.62 -20 82 C-19.67 80.68 -19.34 79.36 -19 78 C-18.37 77.94 -17.75 77.88 -17.1 77.82 C-16.28 77.73 -15.47 77.65 -14.62 77.56 C-13.81 77.48 -13 77.4 -12.16 77.32 C-10 77 -10 77 -8 76 C-6.93 72.8 -6.84 70.43 -6.79 67.06 C-6.77 65.84 -6.75 64.62 -6.73 63.36 C-6.72 62.04 -6.7 60.72 -6.68 59.36 C-6.66 58 -6.64 56.64 -6.62 55.27 C-6.57 51.69 -6.52 48.1 -6.47 44.52 C-6.42 40.86 -6.36 37.2 -6.31 33.54 C-6.2 26.36 -6.1 19.18 -6 12 C-11.28 12 -16.56 12 -22 12 C-21 9 -21 9 -19.07 7.94 C-18.24 7.63 -17.41 7.31 -16.56 6.99 C-16.12 6.82 -16.12 6.82 -13.85 5.94 C-13.38 5.77 -13.38 5.77 -11 4.88 C-9.15 4.17 -7.29 3.46 -5.44 2.74 C-4.61 2.43 -3.78 2.12 -2.93 1.8 C-1 1 -1 1 0 0 Z " fill="#3F7BF0" transform="translate(131,66)"/>
<path d="M0 0 C0.33 0 0.66 0 1 0 C1 28.71 1 57.42 1 87 C118.48 87 235.96 87 357 87 C357 87.33 357 87.66 357 88 C284.4 88 211.8 88 137 88 C137 89.32 137 90.64 137 92 C92.12 92 47.24 92 1 92 C1 103.88 1 115.76 1 128 C0.67 128 0.34 128 0 128 C0 85.76 0 43.52 0 0 Z " fill="#CFDEFB" transform="translate(1186,146)"/>
<path d="M0 0 C4.63 4.51 7.16 8.48 7.59 14.95 C6.98 24.42 1.04 31.17 -5.65 37.29 C-7.01 38.48 -8.38 39.66 -9.76 40.84 C-11.81 42.59 -13.77 44.36 -15.56 46.38 C-15.56 47.03 -15.56 47.69 -15.56 48.38 C-2.89 48.56 -2.89 48.56 2.44 47.38 C2.77 45.39 3.1 43.42 3.44 41.38 C4.1 41.21 4.1 41.21 7.44 40.38 C7.62 44.66 7.31 48.42 6.43 52.63 C6.25 53.52 6.06 54.41 5.87 55.33 C5.73 56.01 5.58 56.68 5.44 57.38 C1.25 57.4 -2.94 57.42 -7.12 57.44 C-8.31 57.45 -9.49 57.45 -10.71 57.46 C-22.65 57.5 -22.65 57.5 -27.56 56.38 C-27.89 55.72 -28.22 55.06 -28.56 54.38 C-24.57 49.31 -20.53 44.31 -16.32 39.43 C-3.21 24.19 -3.21 24.19 -3.34 12.82 C-3.63 9.63 -4.45 7.79 -6.56 5.38 C-9.29 3.23 -10.54 3.37 -14.06 3.69 C-16.59 4.18 -19.08 4.68 -21.56 5.38 C-21.09 6.28 -20.61 7.19 -20.12 8.12 C-17.63 13.31 -17.63 13.31 -17.56 15.38 C-19.19 17.69 -19.19 17.69 -21.56 19.38 C-24.95 19.21 -26.15 18.79 -28.56 16.38 C-28.92 11.84 -28.2 7.62 -25.38 4 C-18.33 -2.58 -8.91 -4.06 0 0 Z " fill="#407BF0" transform="translate(2001.5625,315.625)"/>
<path d="M0 0 C5.01 4.05 7.55 8.2 8.28 14.68 C7.76 25.13 -0.7 32.73 -7.97 39.37 C-9.73 40.92 -11.5 42.46 -13.29 43.99 C-13.91 44.59 -14.52 45.18 -15.16 45.8 C-15.16 46.46 -15.16 47.12 -15.16 47.8 C-12.72 47.85 -10.29 47.89 -7.85 47.93 C-7.16 47.94 -6.47 47.96 -5.76 47.98 C-1.99 48.01 -0.38 47.94 2.84 45.8 C4.03 42.68 4.03 42.68 4.84 39.8 C5.83 40.13 6.82 40.46 7.84 40.8 C7.7 42.53 7.55 44.26 7.4 45.99 C7.32 46.95 7.24 47.91 7.16 48.91 C6.86 51.59 6.39 54.16 5.84 56.8 C1.64 56.83 -2.56 56.84 -6.76 56.86 C-8.19 56.86 -9.61 56.87 -11.04 56.88 C-13.1 56.89 -15.15 56.89 -17.21 56.9 C-17.82 56.9 -17.82 56.9 -20.95 56.91 C-23.57 56.82 -25.68 56.58 -28.16 55.8 C-26.72 51.26 -24.38 48.64 -21.1 45.24 C-3.31 26.4 -3.31 26.4 -2.72 14.68 C-2.83 11.1 -3.1 9.89 -5.04 6.74 C-7.84 4.18 -8.67 3.83 -12.54 3.61 C-15.83 3.78 -17.44 4.06 -20.16 5.8 C-19.59 8.67 -19.3 9.66 -17.16 11.8 C-17.35 14.3 -17.35 14.3 -18.16 16.8 C-21.16 18.8 -21.16 18.8 -24.29 18.55 C-25.23 18.3 -26.18 18.06 -27.16 17.8 C-28.59 14.93 -28.47 12.99 -28.16 9.8 C-25.3 4.5 -21.91 1.17 -16.54 -1.51 C-10.95 -2.65 -5.11 -2.84 0 0 Z " fill="#3D79F0" transform="translate(2001.16015625,104.19921875)"/>
<path d="M0 0 C1.79 1.48 3.25 2.97 4.71 4.76 C5.35 5.52 5.99 6.29 6.64 7.07 C8.56 11.91 8.49 16.21 6.97 21.18 C2.95 30.37 -4.86 36.95 -12.42 43.26 C-15.29 45.76 -15.29 45.76 -16.29 48.76 C-13.69 48.65 -11.08 48.52 -8.48 48.39 C-7.74 48.36 -7 48.32 -6.24 48.29 C-2.47 48.09 -0.5 47.9 2.71 45.76 C3.89 42.64 3.89 42.64 4.71 39.76 C5.7 40.09 6.69 40.42 7.71 40.76 C7.57 42.68 7.42 44.6 7.27 46.51 C7.19 47.58 7.11 48.65 7.02 49.75 C6.76 52.21 6.34 54.38 5.71 56.76 C1.49 56.79 -2.73 56.8 -6.95 56.82 C-8.38 56.82 -9.81 56.83 -11.25 56.84 C-13.31 56.85 -15.37 56.85 -17.44 56.86 C-18.68 56.86 -19.92 56.87 -21.2 56.88 C-24.29 56.76 -24.29 56.76 -27.29 55.76 C-26.72 51.78 -24.72 49.54 -22.17 46.51 C-21.76 46.03 -21.76 46.03 -19.7 43.56 C-17.7 41.24 -15.67 38.96 -13.61 36.7 C-8.27 30.69 -3.16 23.62 -3.11 15.45 C-3.1 14.98 -3.1 14.98 -3.06 12.59 C-3.31 9.56 -3.87 7.44 -5.29 4.76 C-9.82 3.25 -14.36 2.99 -18.79 4.76 C-19.29 5.09 -19.78 5.42 -20.29 5.76 C-19.72 8.63 -19.43 9.62 -17.29 11.76 C-17.48 14.26 -17.48 14.26 -18.29 16.76 C-21.29 18.76 -21.29 18.76 -23.86 18.51 C-26.29 17.76 -26.29 17.76 -28.29 15.76 C-28.29 9.8 -27.11 6.52 -22.94 2.24 C-16.69 -3.38 -7.49 -4.05 0 0 Z " fill="#3C79F0" transform="translate(1720.29296875,104.23828125)"/>
<path d="M0 0 C45.21 0 90.42 0 137 0 C137 1.65 137 3.3 137 5 C91.79 5 46.58 5 0 5 C0 3.35 0 1.7 0 0 Z " fill="#E7EFFD" transform="translate(1186,297)"/>
<path d="M0 0 C0.41 0 0.41 0 2.47 0 C3.33 -0 4.18 -0.01 5.06 -0.01 C7.91 -0.02 10.75 -0.02 13.59 -0.02 C15.56 -0.02 17.52 -0.03 19.49 -0.03 C23.62 -0.04 27.75 -0.04 31.88 -0.04 C37.18 -0.04 42.48 -0.05 47.78 -0.07 C51.84 -0.08 55.91 -0.08 59.97 -0.08 C61.93 -0.08 63.88 -0.09 65.84 -0.1 C68.56 -0.11 71.29 -0.1 74.02 -0.1 C74.43 -0.1 74.43 -0.1 76.49 -0.11 C82.08 -0.08 82.08 -0.08 84.31 2.15 C83.94 4.27 83.94 4.27 83.31 6.15 C79 7.2 74.8 7.29 70.39 7.29 C69.61 7.3 68.82 7.3 68.02 7.3 C65.44 7.31 62.86 7.31 60.28 7.31 C58.49 7.32 56.69 7.32 54.89 7.32 C51.13 7.33 47.37 7.33 43.6 7.33 C38.79 7.33 33.97 7.35 29.15 7.36 C25.44 7.37 21.73 7.38 18.02 7.38 C16.24 7.38 14.47 7.38 12.69 7.39 C10.21 7.4 7.72 7.4 5.24 7.39 C4.51 7.4 3.77 7.4 3.02 7.41 C-0.99 7.38 -4.07 6.92 -7.69 5.15 C-6.48 -0.19 -5.49 0.03 0 0 Z " fill="#3977F0" transform="translate(737.6867980957031,239.85336303710938)"/>
<path d="M0 0 C0.84 -0 1.67 -0.01 2.53 -0.01 C5.3 -0.02 8.08 -0.02 10.85 -0.02 C12.77 -0.03 14.69 -0.03 16.61 -0.03 C20.64 -0.04 24.67 -0.04 28.69 -0.04 C33.87 -0.04 39.04 -0.05 44.21 -0.07 C48.18 -0.08 52.14 -0.08 56.11 -0.08 C58.02 -0.08 59.93 -0.09 61.83 -0.1 C64.5 -0.11 67.16 -0.1 69.82 -0.1 C70.61 -0.1 71.41 -0.11 72.23 -0.11 C77.68 -0.08 77.68 -0.08 79.91 2.15 C79.54 4.27 79.54 4.27 78.91 6.15 C74.59 7.21 70.38 7.29 65.95 7.29 C65.56 7.29 65.56 7.29 63.57 7.3 C60.98 7.31 58.4 7.31 55.81 7.31 C54.01 7.32 52.21 7.32 50.4 7.32 C46.63 7.33 42.86 7.33 39.09 7.33 C34.25 7.33 29.42 7.34 24.58 7.36 C20.86 7.37 17.14 7.37 13.43 7.37 C11.64 7.38 9.86 7.38 8.08 7.39 C5.59 7.4 3.1 7.39 0.61 7.39 C-0.13 7.39 -0.87 7.4 -1.63 7.41 C-5.34 7.38 -6.92 7.26 -10.09 5.15 C-10.09 3.83 -10.09 2.51 -10.09 1.15 C-6.91 -0.44 -3.49 -0 0 0 Z " fill="#3876F0" transform="translate(1901.08984375,239.854736328125)"/>
<path d="M0 0 C1.65 0 3.3 0 5 0 C5.07 7.38 5.12 14.76 5.16 22.14 C5.17 25.57 5.19 28.99 5.23 32.42 C5.27 36.36 5.28 40.3 5.29 44.24 C5.31 45.47 5.32 46.7 5.34 47.97 C5.34 49.11 5.34 50.25 5.34 51.43 C5.34 51.93 5.34 51.93 5.36 54.48 C5 57 5 57 3.86 58.83 C1.16 60.53 -0.94 60.36 -4.12 60.34 C-5.38 60.34 -6.65 60.34 -7.95 60.34 C-9.32 60.32 -10.7 60.31 -12.07 60.29 C-13.48 60.29 -14.89 60.28 -16.3 60.28 C-20 60.27 -23.71 60.24 -27.41 60.21 C-31.19 60.18 -34.97 60.16 -38.75 60.15 C-46.17 60.11 -53.58 60.06 -61 60 C-61 58.35 -61 56.7 -61 55 C-40.87 55 -20.74 55 0 55 C0 36.85 0 18.7 0 0 Z " fill="#E7EFFD" transform="translate(1392,242)"/>
<path d="M0 0 C1.24 5.77 1.13 11.44 1.1 17.3 C1.1 18.38 1.09 19.46 1.09 20.57 C1.09 24.01 1.08 27.44 1.06 30.88 C1.06 33.21 1.05 35.54 1.05 37.88 C1.04 43.58 1.02 49.29 1 55 C1.93 54.98 2.86 54.96 3.82 54.94 C7.06 55 9.09 55.63 12 57 C10.23 59.26 9.37 59.95 6.49 60.36 C5.51 60.35 4.53 60.34 3.53 60.33 C2.46 60.32 1.4 60.32 0.3 60.31 C-0.81 60.29 -1.92 60.27 -3.06 60.25 C-4.18 60.24 -5.29 60.24 -6.44 60.23 C-14.69 60.15 -14.69 60.15 -17 59 C-16.67 58.01 -16.34 57.02 -16 56 C-14.51 55.84 -14.51 55.84 -7 55 C-7.33 40.15 -7.66 25.3 -8 10 C-10.97 10 -13.94 10 -17 10 C-17 8.68 -17 7.36 -17 6 C-16.25 5.82 -15.5 5.64 -14.73 5.45 C-14.24 5.32 -14.24 5.32 -11.75 4.69 C-10.78 4.44 -9.8 4.2 -8.8 3.95 C-5.6 2.86 -3.28 0 0 0 Z " fill="#437DF0" transform="translate(836,101)"/>
<path d="M0 0 C1.22 5.7 1.13 11.29 1.1 17.09 C1.1 18.14 1.09 19.2 1.09 20.29 C1.09 23.65 1.08 27.01 1.06 30.38 C1.06 32.66 1.05 34.95 1.05 37.23 C1.04 42.82 1.02 48.41 1 54 C1.36 54.06 1.36 54.06 3.15 54.37 C4.07 54.53 4.99 54.7 5.94 54.88 C6.85 55.04 7.77 55.2 8.71 55.37 C9.47 55.58 10.22 55.78 11 56 C11.33 56.66 11.66 57.32 12 58 C9.23 59.38 6.99 59.11 3.9 59.1 C3.29 59.1 3.29 59.1 0.23 59.09 C-1.04 59.08 -2.32 59.07 -3.62 59.06 C-4.9 59.06 -6.18 59.05 -7.5 59.05 C-10.67 59.04 -13.83 59.02 -17 59 C-17 58.01 -17 57.02 -17 56 C-13.7 55.34 -10.4 54.68 -7 54 C-7 39.15 -7 24.3 -7 9 C-10.63 9 -14.26 9 -18 9 C-16 5 -16 5 -14.01 4.28 C-13.24 4.17 -12.48 4.05 -11.69 3.94 C-7.56 3.2 -3.88 0 0 0 Z " fill="#417CF0" transform="translate(836,313)"/>
<path d="M0 0 C3.87 1.93 6.49 4.13 9.56 7.06 C14.37 11.57 19.33 15.78 24.53 19.83 C27.39 22.35 29.62 25.02 32 28 C30.94 28.1 29.88 28.2 28.78 28.3 C16.33 29.56 10.45 32.16 0 40 C0 26.8 0 13.6 0 0 Z " fill="#F5F8FE" transform="translate(1574,174)"/>
<path d="M0 0 C4.75 1.19 8.6 3.28 12.93 5.53 C17.51 7.72 21.82 9.17 26.88 9.62 C27.24 9.66 27.24 9.66 29.08 9.83 C29.4 9.85 29.4 9.85 31 10 C26.64 15.27 22.01 20.03 17 24.69 C16.31 25.34 15.63 25.99 14.92 26.66 C11.16 30.18 7.53 33.51 3 36 C2.01 35.67 1.02 35.34 0 35 C0 23.45 0 11.9 0 0 Z " fill="#FBFCFE" transform="translate(416,305)"/>
<path d="M0 0 C0.66 0 1.32 0 2 0 C2 0.66 2 1.32 2 2 C2.52 2.23 3.03 2.45 3.56 2.69 C5.69 3.83 7.4 5.04 9.31 6.5 C16.14 11.4 23.86 11.49 32 12 C28.5 16.47 24.89 19.95 20.38 23.38 C19.77 23.84 19.16 24.31 18.53 24.8 C16.7 26.21 14.85 27.61 13 29 C12.44 29.42 11.89 29.84 11.31 30.28 C2.41 37 2.41 37 0 37 C0 24.79 0 12.58 0 0 Z " fill="#F5F8FE" transform="translate(1574,258)"/>
<path d="M0 0 C0.78 3.45 1.12 6.62 1.11 10.16 C1.11 11.16 1.11 12.16 1.11 13.19 C1.11 14.26 1.1 15.33 1.1 16.43 C1.1 17.53 1.09 18.63 1.09 19.77 C1.09 23.28 1.08 26.8 1.06 30.31 C1.06 32.7 1.05 35.08 1.05 37.47 C1.04 43.31 1.02 49.16 1 55 C1.31 55.03 1.31 55.03 2.9 55.18 C3.72 55.27 4.53 55.35 5.38 55.44 C6.19 55.52 7 55.6 7.84 55.68 C10 56 10 56 12 57 C12 57.66 12 58.32 12 59 C8.98 60.01 6.94 60.13 3.78 60.13 C2.77 60.13 1.75 60.14 0.71 60.14 C-0.35 60.13 -1.41 60.13 -2.5 60.12 C-3.03 60.13 -3.03 60.13 -5.71 60.14 C-6.72 60.14 -7.74 60.13 -8.78 60.13 C-9.71 60.13 -10.64 60.13 -11.6 60.13 C-14 60 -14 60 -17 59 C-16.67 58.01 -16.34 57.02 -16 56 C-13.03 55.34 -10.06 54.68 -7 54 C-6.67 39.15 -6.34 24.3 -6 9 C-7.32 9.33 -8.64 9.66 -10 10 C-12.33 10.04 -14.67 10.04 -17 10 C-17.33 9.01 -17.66 8.02 -18 7 C-17.18 6.75 -16.36 6.49 -15.52 6.23 C-14.44 5.89 -13.36 5.54 -12.25 5.19 C-11.18 4.85 -10.12 4.51 -9.02 4.17 C-5.87 2.95 -3.29 0 0 0 Z " fill="#3B78F0" transform="translate(555,101)"/>
<path d="M0 0 C3.91 3 5.01 6.25 5.69 11.06 C5.45 15.17 4.34 18.24 1.75 21.5 C-2.23 24.52 -6.5 24.55 -11.31 24.06 C-15.19 22.74 -16.84 21.74 -19.19 18.38 C-20.53 14.41 -21.05 11.2 -20.31 7.06 C-18.61 3.65 -17.32 1.68 -14.06 -0.31 C-9.01 -1.46 -4.92 -1.39 0 0 Z " fill="#E7EFFD" transform="translate(1207.3125,255.9375)"/>
<path d="M0 0 C5.57 0.05 8.66 4.03 12.38 7.69 C13.65 8.92 14.93 10.16 16.21 11.39 C16.83 11.99 17.46 12.59 18.1 13.21 C20.97 15.92 23.98 18.46 27 21 C23.49 22.84 20.1 23.83 16.25 24.81 C10.33 26.45 6.02 28.52 1 32 C0.34 32 -0.32 32 -1 32 C-1.02 27.6 -1.04 23.21 -1.05 18.81 C-1.06 17.31 -1.07 15.82 -1.08 14.32 C-1.09 12.17 -1.09 10.03 -1.1 7.88 C-1.1 6.59 -1.11 5.29 -1.11 3.96 C-1 1 -1 1 0 0 Z " fill="#FBFCFE" transform="translate(417,225)"/>
<path d="M0 0 C2.97 0 5.94 0 9 0 C9.98 1.94 10.96 3.87 11.94 5.81 C12.48 6.89 13.03 7.97 13.59 9.08 C15 12 15 12 16 15 C18.31 10.05 20.62 5.1 23 0 C26.3 0 29.6 0 33 0 C32.67 0.66 32.34 1.32 32 2 C31.34 2 30.68 2 30 2 C30 8.93 30 15.86 30 23 C30.99 23.33 31.98 23.66 33 24 C33 24.33 33 24.66 33 25 C29.04 25 25.08 25 21 25 C21.33 24.34 21.66 23.68 22 23 C22.66 23 23.32 23 24 23 C23.67 18.05 23.34 13.1 23 8 C20.69 13.28 18.38 18.56 16 24 C15.01 24 14.02 24 13 24 C10.69 18.39 8.38 12.78 6 7 C5.67 12.28 5.34 17.56 5 23 C5.99 23.33 6.98 23.66 8 24 C8 24.33 8 24.66 8 25 C5.36 25 2.72 25 0 25 C0.33 24.34 0.66 23.68 1 23 C1.66 23 2.32 23 3 23 C3 16.07 3 9.14 3 2 C2.01 2 1.02 2 0 2 C0 1.34 0 0.68 0 0 Z " fill="#E7EFFD" transform="translate(1333,255)"/>
<path d="M0 0 C2.44 -0.03 4.87 -0.05 7.31 -0.06 C8 -0.07 8.69 -0.08 9.4 -0.09 C12.55 -0.1 14.99 -0 18 1 C18.66 0.67 19.32 0.34 20 0 C23 -0.25 23 -0.25 26 0 C28.4 3.6 28.44 6.51 28.62 10.69 C28.66 11.39 28.7 12.09 28.74 12.81 C28.84 14.54 28.92 16.27 29 18 C26.36 18 23.72 18 21 18 C21.16 16.97 21.33 15.94 21.5 14.88 C22.62 6.23 22.62 6.23 21 3 C19.68 3 18.36 3 17 3 C17.53 8.03 18.11 13.02 19 18 C16.36 18 13.72 18 11 18 C11 13.05 11 8.1 11 3 C10.01 3 9.02 3 8 3 C7.97 5.12 7.95 7.25 7.94 9.38 C7.93 10.56 7.91 11.74 7.9 12.96 C8 16 8 16 9 18 C6.03 18 3.06 18 0 18 C0.33 17.34 0.66 16.68 1 16 C1.1 13.67 1.13 11.33 1.12 9 C1.13 7.74 1.13 6.48 1.13 5.19 C1 2 1 2 0 0 Z " fill="#E7EFFD" transform="translate(1126,262)"/>
<path d="M0 0 C1.98 0 3.96 0 6 0 C6.27 0.69 6.53 1.37 6.81 2.08 C8.02 5.18 9.23 8.28 10.44 11.38 C10.65 11.92 10.65 11.92 11.71 14.65 C12.12 15.68 12.52 16.71 12.93 17.77 C13.31 18.73 13.68 19.68 14.06 20.66 C15 23 15 23 16 25 C12.37 25 8.74 25 5 25 C5.33 24.34 5.66 23.68 6 23 C6.66 23 7.32 23 8 23 C7.34 21.02 6.68 19.04 6 17 C2.7 17 -0.6 17 -4 17 C-4.62 19.31 -4.62 19.31 -5 22 C-4.34 22.99 -3.68 23.98 -3 25 C-5.31 25 -7.62 25 -10 25 C-6.67 16.67 -3.33 8.33 0 0 Z " fill="#E7EFFD" transform="translate(1225,255)"/>
<path d="M0 0 C6.93 0 13.86 0 21 0 C21 1.98 21 3.96 21 6 C20.34 5.67 19.68 5.34 19 5 C19 4.01 19 3.02 19 2 C15.7 2 12.4 2 9 2 C9 4.97 9 7.94 9 11 C11.31 11 13.62 11 16 11 C16 10.01 16 9.02 16 8 C16.66 8 17.32 8 18 8 C18 10.64 18 13.28 18 16 C17.34 16 16.68 16 16 16 C16 15.01 16 14.02 16 13 C13.69 13 11.38 13 9 13 C9.33 15.97 9.66 18.94 10 22 C13.3 22.33 16.6 22.66 20 23 C20.33 21.35 20.66 19.7 21 18 C21.66 18 22.32 18 23 18 C23 20.31 23 22.62 23 25 C15.41 25 7.82 25 0 25 C0.99 23.68 1.98 22.36 3 21 C3.39 18.94 3.39 18.94 3.4 16.78 C3.4 16.38 3.4 16.38 3.41 14.4 C3.4 13.59 3.39 12.77 3.38 11.94 C3.39 11.12 3.4 10.31 3.41 9.47 C3.41 8.68 3.4 7.9 3.4 7.09 C3.4 6.38 3.39 5.66 3.39 4.93 C3 3 3 3 0 0 Z " fill="#E7EFFD" transform="translate(1063,255)"/>
<path d="M0 0 C2.56 2.2 2.99 3.97 3.81 7.25 C4.04 11.74 3.37 14.73 2 19 C0 21 0 21 -2.94 21.31 C-6 21 -6 21 -7.81 19.69 C-10.72 15.55 -10.35 10.84 -10 6 C-9.12 3 -9.12 3 -8 1 C-5.17 -0.41 -3.13 -0.32 0 0 Z " fill="#FFFFFF" transform="translate(1203,257)"/>
<path d="M0 0 C0.39 -0.01 0.39 -0.01 2.36 -0.08 C5.42 0.35 6.62 0.93 8.69 3.25 C9.15 5.94 9.38 8.25 9.44 10.94 C9.47 11.64 9.5 12.34 9.53 13.06 C9.6 14.79 9.64 16.52 9.69 18.25 C7.42 18.38 5.15 18.48 2.88 18.56 C2.24 18.59 2.24 18.59 -0.96 18.74 C-4.31 18.25 -4.31 18.25 -6.26 15.87 C-7.31 13.25 -7.31 13.25 -7.38 11.06 C-6.31 9.25 -6.31 9.25 -3.44 8 C-0.31 7.25 -0.31 7.25 2.69 7.25 C2.69 5.6 2.69 3.95 2.69 2.25 C-2.06 3 -2.06 3 -4.31 5.25 C-4.88 3.31 -4.88 3.31 -5.31 1.25 C-3.74 -0.32 -2.17 0.04 0 0 Z " fill="#E7EFFD" transform="translate(1114.3125,261.75)"/>
<path d="M0 0 C-0.33 0.99 -0.66 1.98 -1 3 C-1.66 2.67 -2.32 2.34 -3 2 C-9.34 1.54 -9.34 1.54 -11.88 3.31 C-14.86 7.79 -14.36 12.7 -13.56 17.81 C-11.28 21.01 -8.65 21.09 -4.9 21.74 C-4.27 21.82 -3.65 21.91 -3 22 C-3 19.36 -3 16.72 -3 14 C-3.99 13.67 -4.98 13.34 -6 13 C-4.02 13 -2.04 13 0 13 C0 16.3 0 19.6 0 23 C-4.65 25.33 -10.66 24.44 -15.44 22.88 C-18.65 20.52 -19.7 18.76 -21 15 C-21.56 9.8 -20.96 6.34 -18 2 C-13.18 -1.53 -5.53 -2.76 0 0 Z " fill="#E7EFFD" transform="translate(1179,256)"/>
<path d="M0 0 C0.75 -0.01 1.51 -0.03 2.28 -0.04 C4.75 0.21 6.36 0.96 8.5 2.19 C8.5 3.84 8.5 5.49 8.5 7.19 C7.84 7.19 7.18 7.19 6.5 7.19 C6.17 6.2 5.84 5.21 5.5 4.19 C2.66 2.77 0.65 2.87 -2.5 3.19 C-4.88 4.5 -4.88 4.5 -6.5 7.19 C-7.23 12.12 -7.5 16.54 -4.88 20.88 C-1.87 22.54 0.11 22.56 3.5 22.19 C4.16 21.86 4.82 21.53 5.5 21.19 C6.12 19.12 6.12 19.12 6.5 17.19 C7.16 17.19 7.82 17.19 8.5 17.19 C8.5 19.17 8.5 21.15 8.5 23.19 C4.15 25.66 0.4 25.74 -4.5 25.19 C-8.65 23.65 -11.37 22.12 -13.5 18.19 C-14.91 13.31 -14.33 9.89 -12.5 5.19 C-8.93 0.67 -5.56 0.05 0 0 Z " fill="#E7EFFD" transform="translate(1291.5,254.8125)"/>
<path d="M0 0 C4.29 0 8.58 0 13 0 C12.34 0.33 12.34 0.33 9 2 C9 8.93 9 15.86 9 23 C12.63 23 16.26 23 20 23 C20.33 21.35 20.66 19.7 21 18 C21.66 17.67 22.32 17.34 23 17 C22.67 19.64 22.34 22.28 22 25 C14.74 25 7.48 25 0 25 C0.33 24.34 0.66 23.68 1 23 C1.66 23 2.32 23 3 23 C3 16.07 3 9.14 3 2 C2.01 1.67 1.02 1.34 0 1 C0 0.67 0 0.34 0 0 Z " fill="#E7EFFD" transform="translate(1242,255)"/>
<path d="M0 0 C0.4 0 0.4 0 2.45 0.03 C2.76 0.03 2.76 0.03 4.31 0.06 C4.64 1.38 4.97 2.7 5.31 4.06 C3.29 3.77 1.28 3.48 -0.74 3.18 C-2.69 3.06 -2.69 3.06 -4.69 4.06 C-5.72 7.15 -5.82 9.33 -5.81 12.56 C-5.81 13.04 -5.81 13.04 -5.82 15.47 C-5.69 18.06 -5.69 18.06 -4.69 21.06 C1.94 22.19 1.94 22.19 5.31 21.06 C4.98 22.38 4.65 23.7 4.31 25.06 C-5.83 25.41 -5.83 25.41 -10.44 21.62 C-13.27 18.09 -13.07 13.9 -13.04 9.58 C-12.46 5.46 -10.73 3.83 -7.69 1.06 C-4.81 0.1 -2.99 -0.04 0 0 Z " fill="#E7EFFD" transform="translate(1317.6875,254.9375)"/>
<path d="M0 0 C2.97 0 5.94 0 9 0 C9 1.32 9 2.64 9 4 C9.99 3.67 10.98 3.34 12 3 C11.67 2.01 11.34 1.02 11 0 C12.98 0 14.96 0 17 0 C16.17 1.32 16.17 1.32 12 8 C13.98 11.3 15.96 14.6 18 18 C15.03 18 12.06 18 9 18 C8.67 16.35 8.34 14.7 8 13 C6.5 14.38 6.5 14.38 5 16 C5 16.66 5 17.32 5 18 C3.35 18 1.7 18 0 18 C0.37 17.55 0.75 17.11 1.13 16.64 C4.98 11.72 4.98 11.72 5.06 8.44 C3.72 5.35 1.97 2.73 0 0 Z " fill="#E7EFFD" transform="translate(1088,262)"/>
<path d="M0 0 C1.88 1.12 1.88 1.12 3 3 C3.39 6.09 3.53 8.09 1.94 10.81 C-1.06 12.65 -3.5 12.94 -7 13 C-9.5 11.38 -9.5 11.38 -11 9 C-11 5.76 -10.22 4.3 -8.31 1.69 C-5.31 -0.51 -3.64 -0.54 0 0 Z " fill="#F7F9FE" transform="translate(757,122)"/>
<path d="M0 0 C2.31 0.56 2.31 0.56 4.12 2.25 C5.57 5.06 5.93 6.46 5.31 9.56 C3.25 11.94 3.25 11.94 0.31 13.56 C-5.9 13.35 -5.9 13.35 -8.69 10.56 C-9.19 8.25 -9.19 8.25 -8.69 5.56 C-5.93 2.67 -3.96 0.83 0 0 Z " fill="#F8FAFE" transform="translate(1915.6875,121.4375)"/>
<path d="M0 0 C1.88 1.12 1.88 1.12 3 3 C3.44 6 3.44 6 3 9 C0.67 11.79 -0.88 11.98 -4.5 12.44 C-8.49 11.94 -9.58 11.1 -12 8 C-9.91 1.55 -6.91 -0.88 0 0 Z " fill="#F8FAFE" transform="translate(1918,332)"/>
<path d="M0 0 C2.31 3.47 2.42 4.92 2 9 C1 10.88 1 10.88 -1 12 C-4.65 12.55 -7.81 12.68 -11.06 10.81 C-12 9 -12 9 -11.94 6.56 C-9.69 0.41 -6.36 -0.82 0 0 Z " fill="#FAFCFE" transform="translate(758,332)"/>
<path d="M0 0 C7 6 7 6 10 9 C8.6 12.19 6.92 14.32 4.44 16.75 C4.13 17.06 4.13 17.06 2.56 18.61 C1 20 1 20 0 20 C0 13.4 0 6.8 0 0 Z " fill="#F0F5FD" transform="translate(1634,226)"/>
<path d="M0 0 C1.13 0.93 2.25 1.87 3.38 2.81 C4 3.33 4.63 3.86 5.27 4.39 C7 6 7 6 9 9 C7.52 10.17 6.04 11.34 4.56 12.5 C3.74 13.15 2.92 13.8 2.07 14.47 C0 16 0 16 -1 16 C-1.03 14.08 -1.05 12.17 -1.06 10.25 C-1.07 9.18 -1.09 8.12 -1.1 7.02 C-1.02 4.47 -0.75 2.42 0 0 Z " fill="#F2F6FD" transform="translate(476,275)"/>
<path d="M0 0 C2.19 3.28 3 6.21 4 10 C1.36 10 -1.28 10 -4 10 C-2.68 6.7 -1.36 3.4 0 0 Z " fill="#FFFFFF" transform="translate(1226,260)"/>
<path d="M0 0 C1.65 0.33 3.3 0.66 5 1 C4.67 2.65 4.34 4.3 4 6 C2.06 5.69 2.06 5.69 0 5 C-0.33 4.01 -0.66 3.02 -1 2 C-0.67 1.34 -0.34 0.68 0 0 Z " fill="#E7EFFD" transform="translate(1269,274)"/>
<path d="M0 0 C0.99 0 1.98 0 3 0 C3 2.31 3 4.62 3 7 C1.68 6.67 0.36 6.34 -1 6 C-1.04 4.33 -1.04 2.67 -1 1 C-0.67 0.67 -0.34 0.34 0 0 Z " fill="#FFFFFF" transform="translate(1114,271)"/>
</svg>
