<?xml version="1.0" encoding="UTF-8"?>
<!-- Generator: visioncortex VTracer 0.6.12 -->
<svg version="1.1" xmlns="http://www.w3.org/2000/svg" width="901" height="283">
<path d="M0 0 C297.33 0 594.66 0 901 0 C901 93.39 901 186.78 901 283 C603.67 283 306.34 283 0 283 C0 189.61 0 96.22 0 0 Z " fill="#FEFEFE" transform="translate(0,0)"/>
<path d="M0 0 C3.94 0.42 7.24 1.05 10.92 2.52 C16.98 4.58 22.97 4.4 29.31 4.44 C74.64 5.4 108.89 18.42 140.37 51.27 C143.87 54.99 147.02 58.85 150 63 C150.38 63.51 150.38 63.51 152.28 66.1 C163.53 81.91 171.92 99.76 177.71 118.25 C179.39 123.23 180.59 126.23 185.2 128.99 C185.9 129.32 186.59 129.65 187.3 129.99 C189 131 189 131 190 134 C200.71 132.1 210.43 128.05 217.06 119.12 C220.36 114.06 221.72 108.68 223.14 102.84 C223.28 102.37 223.28 102.37 224 100 C224.66 99.67 225.32 99.34 226 99 C226.99 99.33 227.98 99.66 229 100 C229.12 99.44 229.24 98.88 229.37 98.31 C230.19 94.57 231.03 90.87 232 87.17 C235.55 73.3 236.25 59.26 237 45 C238.32 44.67 239.64 44.34 241 44 C241.77 64.66 239.57 84.65 232 104 C232.83 104.33 232.83 104.33 237 106 C237 106.66 237 107.32 237 108 C235.23 109.39 233.41 110.71 231.56 112 C226.36 115.74 222.27 119.85 218.07 124.71 C212.45 130.92 205.53 134.51 198 138 C198 138.33 198 138.66 198 139 C198.76 139.2 199.53 139.39 200.32 139.59 C206.97 141.45 212.92 143.74 219 147 C219.62 147.33 220.24 147.66 220.89 148.01 C223.62 149.51 226.09 151.07 228.51 153.05 C231.44 155.35 234.41 156.74 237.81 158.25 C238.97 158.77 240.14 159.29 241.33 159.83 C242.21 160.21 243.09 160.6 244 161 C243.61 161.89 243.22 162.78 242.82 163.69 C242 167 242 167 243.09 169.46 C243.39 169.87 243.39 169.87 244.94 171.94 C254.49 185.78 259.23 200.2 260 217 C258.68 216.67 257.36 216.34 256 216 C255.88 215.39 255.88 215.39 255.3 212.3 C252.29 196.91 247.74 184.11 239 171 C237.68 171.33 236.36 171.66 235 172 C234.72 171.53 234.72 171.53 233.31 169.15 C224.73 154.99 214.11 148.32 198 144 C195.66 143.55 193.37 143.25 191 143 C190.97 143.28 190.97 143.28 190.81 144.69 C189.64 148.02 187.65 149.73 185 152 C184.01 152 183.02 152 182 152 C182.02 153.09 182.05 154.18 182.07 155.3 C182.55 186.55 170.45 214.83 149.02 237.38 C120.5 266.53 81.09 278.97 41 280 C33.92 279.96 26.84 279.66 19.78 279.28 C18.48 279.22 17.18 279.16 15.84 279.09 C14.69 279.03 13.54 278.96 12.35 278.9 C8.62 279.01 5.56 279.92 2 281 C0.68 281 -0.64 281 -2 281 C-2 279.35 -2 277.7 -2 276 C-2.36 276.01 -2.36 276.01 -4.2 276.07 C-5.16 276.09 -6.13 276.11 -7.12 276.12 C-8.08 276.15 -9.03 276.17 -10.01 276.2 C-13.32 275.98 -15.86 275.07 -19 274 C-20.88 273.48 -22.76 272.97 -24.64 272.48 C-65.24 261.84 -103.11 245.85 -139 224 C-139.89 223.46 -140.78 222.92 -141.69 222.37 C-151.94 216.12 -161.68 209.56 -171 202 C-171.95 201.24 -172.91 200.48 -173.89 199.7 C-180.12 194.67 -186.09 189.4 -192 184 C-192.91 183.18 -193.83 182.36 -194.77 181.52 C-200.63 176.21 -206.33 170.77 -211.94 165.19 C-212.25 164.88 -212.25 164.88 -213.84 163.3 C-217.44 159.69 -220.79 155.97 -224 152 C-224.99 152.33 -225.98 152.66 -227 153 C-228.96 152.89 -230.92 152.77 -232.88 152.62 C-238.42 152.55 -238.42 152.55 -240.86 154.45 C-242.83 157.21 -243.93 159.78 -245 163 C-244.01 163.33 -243.02 163.66 -242 164 C-242 164.66 -242 165.32 -242 166 C-243.67 167.36 -245.39 168.66 -247.12 169.94 C-252.94 174.58 -256.03 179.25 -259 186 C-259.25 186.54 -259.25 186.54 -260.52 189.3 C-262.14 193.35 -263.18 197.32 -264.12 201.56 C-264.29 202.29 -264.46 203.02 -264.64 203.77 C-266.37 211.33 -267.23 218.63 -267.56 226.38 C-267.61 227.3 -267.65 228.23 -267.69 229.18 C-267.8 231.46 -267.9 233.73 -268 236 C-269.32 235.67 -270.64 235.34 -272 235 C-272.63 215 -269.45 197.64 -261.42 179.25 C-258.25 171.98 -255.99 164.69 -254 157 C-252.35 157.66 -250.7 158.32 -249 159 C-248.01 157.76 -247.04 156.5 -246.06 155.25 C-245.52 154.55 -244.97 153.86 -244.41 153.14 C-243.03 151.04 -242.44 149.46 -242 147 C-243.9 148.08 -245.79 149.16 -247.69 150.25 C-248.74 150.85 -249.8 151.46 -250.89 152.08 C-258.34 156.68 -258.34 156.68 -260 160 C-259.01 160.33 -258.02 160.66 -257 161 C-260.27 163.74 -263.5 165.85 -267.25 167.88 C-279.18 175.39 -286.41 192.12 -289.75 205.31 C-290.17 207.21 -290.59 209.1 -291 211 C-291.35 212.24 -291.7 213.48 -292.07 214.76 C-293.22 219.36 -293.26 223.78 -293.19 228.5 C-293.19 229.3 -293.19 230.11 -293.19 230.93 C-293.15 236.03 -292.72 240.95 -292 246 C-293.32 246.33 -294.64 246.66 -296 247 C-301.71 224.51 -296.6 200.84 -285 181 C-282.83 177.63 -280.48 174.4 -278.12 171.16 C-274.72 166.09 -272.35 160.63 -270 155 C-270.99 155.33 -270.99 155.33 -276 157 C-276 158.32 -276 159.64 -276 161 C-277.06 161.35 -278.12 161.7 -279.22 162.07 C-292.97 166.79 -300.41 172.42 -306.99 185.73 C-312.28 197.62 -315.21 210.15 -318.25 222.75 C-318.92 225.49 -319.59 228.23 -320.26 230.97 C-320.67 232.65 -321.08 234.34 -321.49 236.03 C-322.89 241.78 -322.89 241.78 -324 244 C-324.99 243.67 -325.98 243.34 -327 243 C-326.48 234.44 -324.56 226.38 -322.41 218.12 C-321.82 215.84 -321.25 213.55 -320.68 211.27 C-316.29 194.01 -310.43 174.33 -295.55 163.16 C-292.59 160.65 -290.78 158.02 -288.69 154.75 C-287.99 153.67 -287.29 152.59 -286.57 151.48 C-286.05 150.66 -285.54 149.84 -285 149 C-283 150.38 -283 150.38 -281 152 C-281 152.66 -281 153.32 -281 154 C-274.4 151.36 -267.8 148.72 -261 146 C-261.78 145.73 -261.78 145.73 -265.75 144.38 C-271.19 142.41 -276.25 139.96 -281.37 137.27 C-285.54 135.26 -285.54 135.26 -288 135 C-290.25 135.94 -290.25 135.94 -292 137 C-292.47 136 -292.95 134.99 -293.43 133.96 C-296.66 127.24 -299.91 120.86 -304.31 114.81 C-312.95 102.73 -319.39 89.26 -324.75 75.44 C-325.1 74.55 -325.44 73.67 -325.8 72.75 C-326.11 71.93 -326.42 71.1 -326.73 70.25 C-327 69.52 -327.28 68.8 -327.55 68.05 C-328.07 65.69 -327.76 64.26 -327 62 C-324 63 -324 63 -322.92 65.08 C-322.58 65.98 -322.25 66.89 -321.91 67.83 C-321.52 68.85 -321.14 69.86 -320.74 70.91 C-320.33 72.01 -319.92 73.12 -319.5 74.25 C-310.97 96.34 -302.82 116.03 -281 127 C-281.33 128.32 -281.66 129.64 -282 131 C-270.29 138.55 -261.86 140.49 -248 140 C-248.94 139.55 -249.88 139.11 -250.85 138.64 C-252.11 138.03 -253.37 137.42 -254.62 136.81 C-255.24 136.52 -255.86 136.23 -256.5 135.93 C-259.82 134.3 -262.41 132.71 -265.09 130.14 C-266.05 129.43 -267.01 128.73 -268 128 C-271.38 128.69 -271.38 128.69 -274 130 C-274.21 129.2 -274.42 128.4 -274.63 127.58 C-276.28 121.7 -278.06 116.55 -281.31 111.38 C-287.8 100.81 -291.55 88.74 -294.44 76.75 C-294.6 76.07 -294.77 75.39 -294.93 74.69 C-295.89 70.4 -296.14 66.39 -296 62 C-294.68 62.33 -293.36 62.66 -292 63 C-291.8 64.12 -291.61 65.23 -291.41 66.38 C-289.65 75.79 -287.28 84.75 -284 93.75 C-283.67 94.67 -283.34 95.58 -282.99 96.52 C-279.72 105.24 -276.66 111.22 -268.75 116.44 C-268.1 116.88 -267.45 117.33 -266.78 117.79 C-265.2 118.87 -263.6 119.94 -262 121 C-262.33 121.66 -262.33 121.66 -264 125 C-257.86 130.26 -251.53 133.09 -244 136 C-246.97 131.71 -249.94 127.42 -253 123 C-254.98 123.33 -256.96 123.66 -259 124 C-258.99 123.06 -258.98 122.13 -258.97 121.16 C-259.16 107.45 -263.03 95.03 -267 82 C-267.82 79.25 -268.63 76.5 -269.44 73.75 C-269.75 72.73 -270.05 71.72 -270.37 70.67 C-271 68.01 -271.12 65.72 -271 63 C-269.68 63.33 -268.36 63.66 -267 64 C-266.82 64.66 -266.64 65.33 -266.45 66.01 C-264.65 72.6 -262.81 79.17 -260.93 85.74 C-260.36 87.75 -259.79 89.77 -259.22 91.79 C-256.55 101.31 -254.07 108.3 -246.76 115.25 C-246.47 115.54 -246.47 115.54 -245 117 C-245 117.66 -245 118.32 -245 119 C-246.32 119.33 -247.64 119.66 -249 120 C-246.69 123.3 -244.38 126.6 -242 130 C-240.35 129.34 -238.7 128.68 -237 128 C-235.08 128.13 -233.16 128.32 -231.25 128.56 C-227.33 128.62 -225.64 128.54 -222.61 125.98 C-220.29 123.06 -218.15 120.05 -216 117 C-212.47 112.87 -208.75 108.93 -205 105 C-204.35 104.31 -203.7 103.63 -203.03 102.92 C-192.73 92.16 -182.12 82.64 -170 74 C-169.29 73.49 -168.58 72.97 -167.85 72.45 C-162.94 68.91 -157.98 65.44 -153 62 C-152.39 61.58 -151.78 61.15 -151.15 60.72 C-104.6 28.5 -56.59 8.93 0 5 C0 3.35 0 1.7 0 0 Z " fill="#0D0D0D" transform="translate(477,1)"/>
<path d="M0 0 C65.67 0 131.34 0 199 0 C199.33 1.32 199.66 2.64 200 4 C200.67 3.72 201.33 3.43 202.02 3.14 C211.14 -0.34 219.6 -0.58 229.2 -0.53 C230.9 -0.54 232.6 -0.55 234.3 -0.56 C238.88 -0.58 243.47 -0.58 248.05 -0.57 C251.88 -0.57 255.72 -0.57 259.55 -0.58 C268.58 -0.6 277.62 -0.59 286.65 -0.58 C295.98 -0.56 305.3 -0.58 314.62 -0.61 C322.63 -0.63 330.65 -0.64 338.66 -0.63 C343.45 -0.63 348.23 -0.63 353.01 -0.65 C357.5 -0.67 361.99 -0.66 366.47 -0.64 C368.12 -0.63 369.77 -0.64 371.42 -0.65 C373.66 -0.67 375.91 -0.65 378.15 -0.63 C379.41 -0.63 380.67 -0.63 381.96 -0.63 C385 0 385 0 386.93 2.41 C388 5 388 5 388 7 C388.66 7 389.32 7 390 7 C383.87 22.3 360.12 32.74 346 39 C336.56 42.96 326.85 46.2 317 49 C316.12 49.25 315.24 49.51 314.34 49.77 C290.03 56.32 264.96 58.11 239.89 58.46 C238.24 58.49 236.59 58.52 234.94 58.57 C223.31 58.87 214.47 57.14 204 52 C204 53.65 204 55.3 204 57 C157.81 56.24 110.47 46.54 67 31 C66.31 30.75 65.61 30.51 64.9 30.25 C48.81 24.51 32.92 18.19 17 12 C15 11.22 13.01 10.45 11.01 9.67 C7 8.12 3 6.56 -1 5 C-0.67 3.35 -0.34 1.7 0 0 Z " fill="#FDFDFE" transform="translate(258,143)"/>
<path d="M0 0 C0 1.65 0 3.3 0 5 C0.88 4.72 1.76 4.45 2.67 4.16 C3.25 3.98 3.25 3.98 6.19 3.06 C7.34 2.7 8.48 2.34 9.67 1.97 C44.13 -8.09 94.13 5.03 126 19 C127.41 19.59 128.82 20.19 130.23 20.78 C143.81 26.57 155.92 33.55 167.81 42.31 C168.5 42.82 169.19 43.32 169.9 43.84 C170.54 44.32 171.17 44.8 171.83 45.3 C172.4 45.73 172.96 46.15 173.54 46.59 C175.39 48.38 176.3 49.5 177 52 C176.06 54.03 175.06 56.03 174 58 C152.11 58.12 130.22 58.21 108.33 58.26 C98.17 58.28 88 58.32 77.84 58.38 C68.97 58.43 60.11 58.46 51.24 58.47 C46.55 58.48 41.86 58.49 37.17 58.53 C32.75 58.56 28.32 58.57 23.9 58.57 C22.29 58.57 20.67 58.58 19.06 58.6 C7.84 58.72 -1.48 56.91 -12 53 C-12 54.65 -12 56.3 -12 58 C-77.67 58 -143.34 58 -211 58 C-211.33 56.68 -211.66 55.36 -212 54 C-155.57 20.05 -87.77 7.07 -22.88 1.19 C-22.53 1.16 -22.53 1.16 -20.76 1 C-13.83 0.38 -6.96 -0.17 0 0 Z " fill="#FDFDFD" transform="translate(469,81)"/>
<path d="M0 0 C0.33 0 0.66 0 1 0 C2.56 27.31 -10.46 53.46 -27.91 73.69 C-54.57 103.49 -94.36 116.01 -133.23 118.18 C-145.21 118.69 -155.82 118.65 -167 114 C-169.1 113.24 -171.21 112.49 -173.31 111.75 C-174.88 111.17 -176.44 110.59 -178 110 C-178 111.32 -178 112.64 -178 114 C-209.29 111.94 -239.68 99.71 -268 87 C-268.93 86.59 -269.85 86.17 -270.8 85.75 C-303.45 71.02 -335.22 51.71 -361.54 27.27 C-363.72 25.26 -365.94 23.31 -368.19 21.38 C-372.33 17.78 -376.17 13.92 -380 10 C-375.64 10 -372.93 12.5 -369.44 14.88 C-314.41 51.24 -249.59 67.16 -185 76 C-185 77.65 -185 79.3 -185 81 C-184.51 80.78 -184.02 80.57 -183.52 80.34 C-175.07 77.19 -166.66 77.8 -157.81 78 C-131.6 78.56 -105.4 76.92 -80 70 C-79.31 69.82 -78.63 69.65 -77.92 69.47 C-62.58 65.52 -47.5 59.93 -35 50 C-34.59 49.7 -34.59 49.7 -32.53 48.21 C-16.27 36.04 -7.35 18.45 0 0 Z " fill="#FCFCFC" transform="translate(654,159)"/>
<path d="M0 0 C0.73 0.34 1.46 0.67 2.21 1.02 C31.31 14.7 51.13 39.28 68.5 65.62 C68.98 66.34 69.45 67.06 69.94 67.8 C71.03 69.49 72.02 71.24 73 73 C72.67 73.66 72.34 74.32 72 75 C71.03 74.24 70.06 73.48 69.06 72.69 C49.47 57.51 27.56 46.62 4 39 C3.1 38.71 2.21 38.41 1.28 38.11 C-1.13 37.35 -3.56 36.67 -6 36 C-7.08 35.69 -8.17 35.39 -9.28 35.07 C-30.65 29.36 -53.14 26.32 -75.25 25.84 C-86.47 25.58 -95.86 25.36 -106 20 C-106 21.65 -106 23.3 -106 25 C-106.77 25.08 -107.55 25.15 -108.34 25.23 C-116.23 26 -124.12 26.79 -132 27.59 C-134.44 27.84 -136.88 28.09 -139.31 28.32 C-169.33 31.27 -198.87 36.67 -228.12 43.94 C-229.1 44.18 -230.08 44.42 -231.09 44.67 C-249.6 49.25 -267.87 54.93 -285.31 62.69 C-285.72 62.86 -285.72 62.86 -287.78 63.75 C-292.96 66.01 -297.97 68.49 -302.96 71.16 C-303.63 71.43 -304.31 71.71 -305 72 C-305.66 71.67 -306.32 71.34 -307 71 C-279.09 47.28 -248.31 29 -214 16 C-213.25 15.71 -212.5 15.43 -211.73 15.13 C-190.6 7.16 -168.71 2.16 -146.71 -2.71 C-143.41 -3.44 -140.13 -4.22 -136.86 -5.06 C-133.75 -5.82 -130.75 -6.42 -127.58 -6.85 C-126.64 -6.98 -125.69 -7.11 -124.72 -7.24 C-123.76 -7.37 -122.8 -7.49 -121.81 -7.62 C-121.33 -7.69 -121.33 -7.69 -118.87 -8.03 C-114.54 -8.61 -110.38 -9.07 -106 -9 C-106 -7.68 -106 -6.36 -106 -5 C-105.51 -5.21 -105.51 -5.21 -103.04 -6.28 C-101.71 -6.83 -100.39 -7.38 -99.06 -7.94 C-98.74 -8.08 -98.74 -8.08 -97.12 -8.78 C-69.97 -19.99 -25.46 -11.79 0 0 Z " fill="#FCFCFC" transform="translate(575,52)"/>
<path d="M0 0 C0.66 0.33 1.32 0.66 2 1 C-10.9 31.25 -27.35 54.4 -58.63 67.25 C-74.5 73.48 -91.19 76.52 -108 79 C-108.81 79.12 -109.63 79.24 -110.47 79.36 C-131.5 82.3 -155.6 84.76 -175 75 C-176.99 74.3 -178.99 73.62 -181 73 C-181 74.65 -181 76.3 -181 78 C-190.04 77.45 -198.89 76.39 -207.81 74.88 C-209.1 74.66 -210.38 74.44 -211.71 74.22 C-274.8 63.36 -334.93 42.39 -386 3 C-385.34 2.67 -384.68 2.34 -384 2 C-381.39 2.88 -378.88 3.83 -376.34 4.87 C-375.95 5.02 -375.95 5.02 -373.99 5.81 C-372.32 6.48 -370.65 7.15 -368.98 7.82 C-365.49 9.23 -362 10.62 -358.5 12.01 C-355.91 13.05 -353.32 14.08 -350.73 15.12 C-317.51 28.37 -283.31 38.07 -248 44 C-247.68 44.05 -247.68 44.05 -246.06 44.33 C-233.35 46.49 -220.64 47.97 -207.81 49.19 C-205.97 49.37 -204.13 49.55 -202.29 49.72 C-197.86 50.16 -193.43 50.58 -189 51 C-189 52.65 -189 54.3 -189 56 C-188.28 55.72 -187.56 55.44 -186.81 55.15 C-177.68 51.93 -169.43 51.42 -159.84 51.39 C-155.51 51.37 -151.19 51.28 -146.86 51.2 C-146.01 51.18 -145.15 51.17 -144.27 51.16 C-96.78 50.31 -46.17 40.49 -9 9 C-8.31 8.43 -7.61 7.86 -6.9 7.27 C-4.08 4.92 -2.06 3.09 0 0 Z " fill="#FBFBFB" transform="translate(651,153)"/>
<path d="M0 0 C0.33 0 0.33 0 2 0.03 C42.91 0.57 76.67 12.23 105.38 41.56 C108.55 45.1 111.49 48.78 114.38 52.56 C115.11 53.48 115.85 54.41 116.61 55.36 C128.95 71.12 141.88 92.9 146.38 112.56 C146.05 113.22 145.71 113.88 145.38 114.56 C145.22 114.31 145.22 114.31 144.43 113.02 C137.91 102.42 131.27 92.21 123.38 82.56 C122.93 82.01 122.48 81.46 122.02 80.9 C105.53 60.75 86.95 45.66 62.38 36.56 C61.32 36.14 60.27 35.72 59.18 35.29 C37.7 27.34 15.86 27.13 -6.75 27.62 C-28.7 28.03 -28.7 28.03 -37.62 23.56 C-37.62 25.54 -37.62 27.52 -37.62 29.56 C-38.22 29.64 -38.82 29.72 -39.44 29.8 C-98.95 37.87 -162.22 54.2 -211.62 89.56 C-212.26 90.01 -212.89 90.46 -213.54 90.92 C-221.11 96.32 -228.42 101.9 -235.45 107.98 C-237.62 109.56 -237.62 109.56 -240.62 109.56 C-218.73 86.06 -218.73 86.06 -206.62 76.56 C-206.11 76.16 -206.11 76.16 -203.52 74.1 C-182.05 57.35 -158.7 42.26 -134.62 29.56 C-134.26 29.37 -134.26 29.37 -132.42 28.39 C-100.55 11.54 -64.96 0.54 -28.62 1.56 C-28.62 2.88 -28.62 4.2 -28.62 5.56 C-27.78 5.21 -26.94 4.85 -26.08 4.49 C-17.19 1 -9.64 -0.21 0 0 Z " fill="#FCFCFC" transform="translate(505.625,9.4375)"/>
<path d="M0 0 C0 0.66 0 1.32 0 2 C0.26 1.92 0.26 1.92 1.59 1.49 C9.86 -0.19 18.66 1.42 25.94 5.53 C29.54 8.09 32.01 11.02 34 15 C34.46 22.19 34.46 22.19 32.88 25 C30.02 26.52 28.18 26.52 25 26 C22.51 23.58 21.21 21.56 20 18.31 C19 16 19 16 17 14.75 C16.34 14.5 15.68 14.25 15 14 C14.67 13.84 14.67 13.84 13 13 C0.78 11.97 0.78 11.97 -3.81 14.56 C-6 17 -6 17 -6.69 20.5 C-6 24 -6 24 -4.2 26 C0.5 28.94 5.49 30.09 10.81 31.5 C28.47 36.22 28.47 36.22 32.45 40.59 C34.44 42.4 35.57 42.42 38.23 42.51 C39.03 42.55 39.84 42.58 40.66 42.62 C41.5 42.64 42.33 42.66 43.19 42.69 C44.03 42.72 44.88 42.76 45.75 42.79 C47.83 42.87 49.92 42.94 52 43 C51.99 41.97 51.98 40.93 51.97 39.87 C51.93 36.02 51.91 32.17 51.89 28.32 C51.88 26.66 51.87 24.99 51.85 23.33 C51.82 20.94 51.81 18.54 51.8 16.14 C51.79 15.4 51.78 14.66 51.77 13.9 C51.77 9.83 52.08 6.63 54 3 C56.48 1.05 57.89 1 61.06 1 C64 2 64 2 65.67 4.55 C67.21 8.55 67.38 12.02 67.29 16.24 C67.29 17.01 67.28 17.78 67.28 18.57 C67.26 21.01 67.23 23.44 67.19 25.88 C67.17 27.53 67.16 29.19 67.15 30.85 C67.12 34.9 67.06 38.95 67 43 C72.94 43 78.88 43 85 43 C84.98 40.6 84.95 38.21 84.93 35.74 C84.91 33.41 84.9 31.08 84.89 28.75 C84.88 27.13 84.87 25.52 84.85 23.9 C84.82 21.58 84.81 19.25 84.8 16.93 C84.79 16.21 84.78 15.49 84.77 14.75 C84.77 10.75 84.89 7.46 87 4 C90.55 1.97 93.71 1.74 97.75 1.73 C98.86 1.73 99.96 1.73 101.1 1.73 C102.24 1.73 103.38 1.74 104.56 1.75 C105.68 1.74 106.8 1.73 107.95 1.73 C119.54 1.75 129.89 2.21 139 10 C141.31 12.37 141.31 12.37 143 15 C143.35 15.54 143.69 16.08 144.05 16.63 C148.86 24.99 149.05 34.6 149 44 C143.31 44.13 137.62 44.22 131.93 44.27 C130.01 44.3 128.08 44.33 126.15 44.38 C113.48 44.66 102.83 43.7 91 39 C91 40.65 91 42.3 91 44 C25.33 44 -40.34 44 -108 44 C-108.33 42.68 -108.66 41.36 -109 40 C-79.38 22.18 -35.16 0 0 0 Z " fill="#BDECFE" transform="translate(366,95)"/>
<path d="M0 0 C65.67 0 131.34 0 199 0 C199.33 1.32 199.66 2.64 200 4 C200.6 3.71 201.2 3.43 201.83 3.13 C212.54 -1.22 223.38 -0.44 234.75 -0.25 C236.82 -0.23 238.88 -0.21 240.95 -0.2 C245.96 -0.15 250.98 -0.08 256 0 C255 8.93 252.49 17.25 245.62 23.56 C236.01 30.75 224.28 30.18 212.81 30.19 C211.65 30.2 210.49 30.21 209.29 30.22 C208.73 30.23 208.73 30.23 205.89 30.23 C205.39 30.23 205.39 30.23 202.83 30.24 C199.82 29.98 197.68 29.38 195 28 C192.21 22.77 192.77 16.9 192.88 11.12 C192.88 10.15 192.89 9.18 192.9 8.17 C192.93 5.78 192.96 3.39 193 1 C187.06 1 181.12 1 175 1 C175.03 2.51 175.07 4.01 175.11 5.57 C175.13 7.57 175.16 9.56 175.19 11.56 C175.21 12.55 175.24 13.54 175.26 14.56 C175.32 20.48 175.02 24.84 172 30 C168.84 31.14 166.99 31.25 163.75 30.44 C161.09 28.26 160.83 26.35 160 23 C159.76 19.2 159.81 15.43 159.88 11.62 C159.88 10.6 159.89 9.58 159.9 8.53 C159.93 6.02 159.96 3.51 160 1 C155.05 1 150.1 1 145 1 C145.23 2.13 145.45 3.27 145.69 4.44 C146.51 11.38 144.2 16.88 139.94 22.31 C133.27 29.28 124.94 30.69 115.6 31.09 C107.28 30.88 99.13 29.38 92.66 23.87 C88.54 19.22 86.28 14.19 85.5 8.06 C86 5 86 5 87.12 3.06 C89.89 1.5 91.88 1.61 95 2 C98.26 4.65 99.81 8.18 101.72 11.84 C103.75 15.27 105.19 16.73 109 18 C122.6 18.94 122.6 18.94 128 15 C130.71 10.93 130.31 8.84 130 4 C127.43 1.43 126.39 1.73 122.82 1.68 C121.73 1.66 120.65 1.64 119.54 1.62 C118.37 1.61 117.2 1.6 115.99 1.59 C114.8 1.57 113.6 1.55 112.37 1.53 C108.54 1.47 104.71 1.42 100.88 1.38 C98.28 1.34 95.69 1.3 93.1 1.26 C86.73 1.16 80.37 1.08 74 1 C74.01 1.67 74.02 2.34 74.03 3.03 C74.07 6.08 74.1 9.14 74.12 12.19 C74.14 13.24 74.16 14.3 74.18 15.38 C74.18 16.41 74.19 17.43 74.2 18.48 C74.21 19.42 74.22 20.36 74.23 21.32 C73.98 24.26 73.31 26.37 72 29 C69.87 30.48 69.87 30.48 67 31 C64.2 30.28 61.78 29.46 59.12 28.38 C58.32 28.06 57.52 27.75 56.69 27.43 C54.85 26.71 53.01 25.99 51.17 25.26 C47.62 23.85 44.06 22.47 40.49 21.1 C32.65 18.09 24.83 15.04 17 12 C15 11.22 13.01 10.45 11.01 9.67 C7 8.12 3 6.56 -1 5 C-0.67 3.35 -0.34 1.7 0 0 Z " fill="#B1D0DC" transform="translate(258,143)"/>
<path d="M0 0 C23.88 7.55 46.35 19.13 65 36 C63.12 41.75 63.12 41.75 62 44 C24.38 44 -13.24 44 -52 44 C-52 9 -52 9 -50 4 C-45.5 1.04 -39.86 1.75 -34.67 1.8 C-34.17 1.81 -34.17 1.81 -31.66 1.81 C-28.5 1.82 -25.35 1.85 -22.19 1.88 C-20.04 1.89 -17.9 1.89 -15.75 1.9 C-10.5 1.92 -5.25 1.96 0 2 C0 1.34 0 0.68 0 0 Z " fill="#FEFEFE" transform="translate(581,95)"/>
<path d="M0 0 C3.08 5.43 2.25 11.21 1.88 17.31 C2.71 17.14 3.55 16.96 4.42 16.78 C8.16 16.27 11.43 16.47 15.19 16.81 C19.46 17.18 23.49 17.39 27.75 16.69 C32.58 16 36.56 17.1 40.88 19.31 C42.84 20.86 44.26 22.38 45.88 24.31 C46.3 23.9 46.72 23.49 47.16 23.07 C51.85 18.76 55.69 16.36 62.29 16.29 C68.15 16.63 72.13 17.83 76.88 21.31 C82.62 28.4 81.06 39.01 81.06 47.67 C81.06 49.94 81.08 52.21 81.1 54.48 C81.1 55.94 81.1 57.4 81.11 58.85 C81.11 60.16 81.11 61.48 81.12 62.83 C80.89 66.15 80.4 68.37 78.88 71.31 C76.39 73.26 74.99 73.31 71.81 73.31 C68.88 72.31 68.88 72.31 67.22 69.76 C65.68 65.8 65.45 62.35 65.47 58.18 C65.46 57.41 65.45 56.65 65.44 55.87 C65.39 52.63 65.38 49.4 65.36 46.16 C65.35 43.79 65.32 41.42 65.28 39.05 C65.28 38.69 65.28 38.69 65.29 36.83 C65.25 33.93 65.21 31.82 63.59 29.36 C60.55 27.5 57.27 27.7 53.88 28.31 C50.43 30.44 49.16 31.46 47.88 35.31 C47.75 37.61 47.67 39.91 47.63 42.21 C47.6 43.59 47.56 44.97 47.53 46.35 C47.48 48.52 47.44 50.69 47.4 52.86 C47.36 54.95 47.31 57.05 47.25 59.15 C47.24 59.78 47.24 59.78 47.18 62.95 C46.89 66.2 46.41 68.45 44.88 71.31 C42.06 72.81 42.06 72.81 38.88 73.31 C36.06 72.19 36.06 72.19 33.88 70.31 C32.42 66.51 32.67 62.38 32.59 58.37 C32.58 57.99 32.58 57.99 32.54 56.06 C32.46 52.79 32.39 49.53 32.32 46.27 C32.27 43.89 32.21 41.5 32.16 39.12 C32.14 38.38 32.13 37.65 32.12 36.89 C32.04 33.78 31.86 31.28 30.88 28.31 C24.81 27.71 20.27 27.42 15.31 31.31 C14.69 31.87 14.07 32.43 13.43 33 C11.88 34.31 11.88 34.31 9.88 34.31 C9.88 34.97 9.88 35.63 9.88 36.31 C12.85 36.31 15.82 36.31 18.88 36.31 C18.54 37.3 18.22 38.29 17.88 39.31 C16.55 39.31 15.24 39.31 13.88 39.31 C13.89 40.1 13.91 40.89 13.92 41.7 C13.99 45.28 14.02 48.86 14.06 52.44 C14.09 53.68 14.11 54.91 14.14 56.19 C14.15 57.39 14.16 58.59 14.17 59.82 C14.18 60.92 14.2 62.02 14.22 63.15 C13.82 66.81 12.79 69.19 10.88 72.31 C8.5 73.38 8.5 73.38 5.88 73.31 C3.12 72.12 3.12 72.12 0.88 70.31 C-0.44 66.81 -0.24 63.27 -0.22 59.58 C-0.22 58.28 -0.22 56.99 -0.21 55.65 C-0.2 54.29 -0.2 52.93 -0.19 51.56 C-0.18 50.18 -0.18 48.8 -0.17 47.43 C-0.16 44.05 -0.15 40.68 -0.12 37.31 C-0.9 37.01 -1.68 36.71 -2.48 36.41 C-5.1 35.32 -7.01 34.19 -9.12 32.31 C-9.12 31.65 -9.12 30.99 -9.12 30.31 C-9.62 30.48 -9.62 30.48 -12.12 31.31 C-17.31 31.8 -21.67 32.16 -26.25 29.5 C-29.58 25.61 -29.4 21.83 -29.34 16.94 C-28.79 10.21 -26.01 4.98 -21.12 0.31 C-14.42 -3.79 -6.84 -3.69 0 0 Z " fill="#BDECFE" transform="translate(759.125,100.6875)"/>
<path d="M0 0 C6.14 2.55 8.91 11.29 11.39 17.01 C12.06 18.86 12.06 18.86 12.06 20.86 C12.64 20.34 13.21 19.82 13.81 19.29 C16.06 17.86 16.06 17.86 17.86 18.09 C20.55 19.03 22.93 20.31 25.43 21.67 C32.12 25.09 38.8 27.03 46.06 28.86 C42.75 31.06 39.35 32.46 35.68 33.92 C35.02 34.19 34.36 34.46 33.68 34.73 C26.09 37.77 26.09 37.77 23.06 37.86 C20.75 35.92 20.75 35.92 19.06 33.86 C18.54 34.68 18.02 35.5 17.48 36.34 C16.79 37.42 16.09 38.5 15.37 39.61 C14.69 40.67 14 41.74 13.3 42.84 C11.11 45.79 8.96 47.64 6.06 49.86 C4.52 51.68 3.1 53.55 1.68 55.46 C0.06 56.86 0.06 56.86 -2.4 57.3 C-5.69 56.73 -6.56 55.62 -8.63 53.04 C-8.92 52.69 -8.92 52.69 -10.39 50.9 C-11.63 49.26 -12.8 47.57 -13.94 45.86 C-16.32 45.34 -16.32 45.34 -19.07 45.17 C-19.98 45.1 -20.89 45.04 -21.82 44.97 C-22.52 44.93 -23.22 44.89 -23.94 44.86 C-23.94 44.2 -23.94 43.54 -23.94 42.86 C-27.29 45.94 -29.9 49.38 -32.57 53.05 C-33.94 54.86 -33.94 54.86 -35.94 56.86 C-39.66 56.78 -41.37 56.41 -44.07 53.79 C-45.08 50.39 -44.79 49.89 -43.25 46.86 C-43.07 46.54 -43.07 46.54 -42.12 44.92 C-40.82 42.64 -39.87 40.31 -38.94 37.86 C-39.82 37.9 -40.7 37.95 -41.61 38 C-42.19 38.01 -42.19 38.01 -45.13 38.11 C-46.28 38.15 -47.43 38.2 -48.61 38.25 C-52.6 37.78 -54.15 36.69 -56.94 33.86 C-59 27.68 -58.76 21.01 -56.32 14.98 C-53.68 9.79 -50.42 7.09 -45.19 4.48 C-39.17 3.32 -33.31 3.56 -28.07 6.98 C-24.63 9.75 -22.87 12.93 -20.94 16.86 C-16.74 13.04 -13.72 8.79 -10.59 4.06 C-7.58 0.03 -4.94 -0.77 0 0 Z " fill="#BAE7F8" transform="translate(172.94140625,117.14453125)"/>
<path d="M0 0 C0.48 -0 0.48 -0 2.9 -0.01 C4.92 -0.01 6.94 -0 8.96 0 C12.05 0.02 15.14 0 18.23 -0.01 C20.19 -0.01 22.16 -0 24.12 0 C25.05 -0 25.97 -0.01 26.92 -0.01 C31.4 0.02 34.99 0.13 39.06 2.27 C39.06 4.91 39.06 7.55 39.06 10.27 C34.64 12.48 30.54 12.53 25.7 12.46 C24.91 12.46 24.12 12.46 23.3 12.45 C20.78 12.44 18.27 12.42 15.75 12.39 C14.04 12.38 12.33 12.37 10.62 12.36 C6.43 12.34 2.25 12.3 -1.94 12.27 C-1.94 18.21 -1.94 24.15 -1.94 30.27 C-0.75 30.24 -0.75 30.24 5.29 30.09 C7.61 30.05 9.94 30.02 12.26 29.99 C13.87 29.97 15.48 29.93 17.08 29.89 C19.4 29.83 21.72 29.8 24.04 29.78 C24.75 29.75 25.46 29.73 26.2 29.7 C31.91 29.7 34.17 31.42 38.06 35.27 C37.81 37.64 37.81 37.64 37.06 40.27 C33.46 42.96 29.31 42.52 25.02 42.46 C24.63 42.46 24.63 42.46 22.68 42.45 C20.22 42.44 17.77 42.42 15.31 42.39 C13.64 42.38 11.98 42.37 10.31 42.36 C6.23 42.34 2.14 42.3 -1.94 42.27 C-1.94 49.53 -1.94 56.79 -1.94 64.27 C0.83 64.22 3.6 64.17 6.45 64.12 C9.14 64.09 11.82 64.07 14.51 64.05 C16.37 64.03 18.23 64 20.1 63.96 C22.78 63.92 25.46 63.89 28.14 63.88 C28.97 63.85 29.81 63.83 30.66 63.81 C34.5 63.81 36.44 63.82 39.62 66.09 C41.06 68.27 41.06 68.27 41 71.39 C40.06 74.27 40.06 74.27 37.06 76.27 C34.95 76.52 34.95 76.52 32.49 76.52 C31.56 76.53 30.64 76.54 29.68 76.54 C28.69 76.54 27.69 76.54 26.66 76.53 C26.15 76.53 26.15 76.53 23.55 76.54 C21.38 76.54 19.2 76.53 17.03 76.53 C13.71 76.52 10.39 76.53 7.06 76.54 C4.95 76.54 2.84 76.54 0.73 76.53 C-0.27 76.54 -1.26 76.54 -2.28 76.54 C-11.75 76.48 -11.75 76.48 -14.94 74.27 C-16.65 70.1 -17.19 66.55 -17.2 62.06 C-17.2 60.86 -17.21 59.65 -17.22 58.41 C-17.21 57.13 -17.21 55.84 -17.2 54.51 C-17.2 53.16 -17.21 51.82 -17.21 50.47 C-17.21 47.66 -17.21 44.84 -17.2 42.03 C-17.19 38.43 -17.19 34.83 -17.21 31.23 C-17.21 28.45 -17.21 25.67 -17.21 22.89 C-17.2 20.92 -17.21 18.95 -17.22 16.98 C-17.21 15.78 -17.2 14.58 -17.2 13.34 C-17.19 12.28 -17.19 11.23 -17.19 10.14 C-16.93 7.12 -16.3 4.96 -14.94 2.27 C-10.5 -0.6 -5.1 -0.02 0 0 Z " fill="#BDECFE" transform="translate(78.9375,96.734375)"/>
<path d="M0 0 C0.05 0.34 0.05 0.34 0.3 2.08 C0.45 2.98 0.6 3.88 0.75 4.81 C0.89 5.71 1.03 6.6 1.17 7.52 C2.21 10.62 3.13 11.47 6 13 C8.8 13.51 8.8 13.51 11.75 13.69 C12.24 13.72 12.24 13.72 14.73 13.89 C15.48 13.92 16.23 13.96 17 14 C18.17 25.09 19.03 35.92 12.94 45.88 C8.61 51.2 2.18 55 -4.62 55.88 C-5.74 55.92 -6.85 55.96 -8 56 C-9.32 54.02 -10.64 52.04 -12 50 C-11 48 -10 46 -9 44 C-9.28 43.92 -9.28 43.92 -10.69 43.52 C-15.52 42.04 -19.54 40.26 -23.74 37.47 C-26.6 35.61 -29.54 33.9 -32.5 32.19 C-33.54 31.58 -34.58 30.98 -35.66 30.36 C-36.04 30.13 -36.04 30.13 -38 29 C-37.5 20.58 -36.46 12.87 -30.58 6.38 C-21.27 -1.77 -11.68 -1.14 0 0 Z " fill="#BCEBFC" transform="translate(730,118)"/>
<path d="M0 0 C0.33 1.32 0.66 2.64 1 4 C1.6 3.71 2.2 3.43 2.83 3.13 C13.54 -1.22 24.38 -0.44 35.75 -0.25 C37.82 -0.23 39.88 -0.21 41.95 -0.2 C46.96 -0.15 51.98 -0.08 57 0 C56 8.93 53.49 17.25 46.62 23.56 C37.01 30.75 25.28 30.18 13.81 30.19 C12.65 30.2 11.49 30.21 10.29 30.22 C9.73 30.23 9.73 30.23 6.89 30.23 C6.39 30.23 6.39 30.23 3.83 30.24 C0.82 29.98 -1.32 29.38 -4 28 C-6.79 22.77 -6.23 16.9 -6.12 11.12 C-6.12 10.15 -6.11 9.18 -6.1 8.17 C-6.07 5.78 -6.04 3.39 -6 1 C-4 0 -4 0 0 0 Z " fill="#BCECFE" transform="translate(457,143)"/>
<path d="M0 0 C0.66 0 1.32 0 2 0 C4.62 3.93 4.37 7.44 4 12 C0.12 14.59 -3.11 14.25 -7.61 14.2 C-8.44 14.19 -9.28 14.19 -10.15 14.19 C-12.83 14.18 -15.51 14.15 -18.19 14.12 C-20 14.11 -21.82 14.11 -23.64 14.1 C-28.09 14.08 -32.55 14.04 -37 14 C-37 19.94 -37 25.88 -37 32 C-34.59 31.97 -32.18 31.93 -29.7 31.89 C-27.37 31.87 -25.03 31.85 -22.69 31.84 C-21.07 31.82 -19.45 31.8 -17.83 31.77 C-15.49 31.74 -13.16 31.72 -10.83 31.71 C-10.11 31.69 -9.38 31.68 -8.64 31.66 C-5.53 31.66 -3.31 31.84 -0.53 33.29 C1 35 1 35 1.25 38.69 C1.17 39.78 1.09 40.87 1 42 C-2.12 43.82 -4.36 44.25 -7.95 44.23 C-8.93 44.23 -9.91 44.23 -10.92 44.23 C-11.45 44.22 -11.45 44.22 -14.11 44.2 C-15.19 44.19 -16.27 44.19 -17.39 44.19 C-20.84 44.18 -24.3 44.15 -27.75 44.12 C-30.09 44.11 -32.43 44.11 -34.78 44.1 C-40.52 44.08 -46.26 44.04 -52 44 C-52.05 39.11 -52.09 34.21 -52.11 29.32 C-52.12 27.66 -52.13 25.99 -52.15 24.33 C-52.18 21.94 -52.19 19.54 -52.2 17.14 C-52.21 16.4 -52.22 15.66 -52.23 14.9 C-52.23 10.86 -52.15 7.49 -50 4 C-45.5 1.04 -39.86 1.75 -34.67 1.8 C-34.17 1.81 -34.17 1.81 -31.66 1.81 C-28.5 1.82 -25.35 1.85 -22.19 1.88 C-20.04 1.89 -17.9 1.89 -15.75 1.9 C-10.5 1.92 -5.25 1.96 0 2 C0 1.34 0 0.68 0 0 Z " fill="#BDECFE" transform="translate(581,95)"/>
<path d="M0 0 C0 0.66 0 1.32 0 2 C0.52 1.83 1.05 1.66 1.59 1.49 C9.86 -0.19 18.66 1.42 25.94 5.53 C29.54 8.09 32.01 11.02 34 15 C34.46 22.19 34.46 22.19 32.88 25 C30.02 26.52 28.18 26.52 25 26 C22.51 23.58 21.21 21.56 20 18.31 C19 16 19 16 17 14.75 C16.34 14.5 15.68 14.25 15 14 C14.34 13.67 13.68 13.34 13 13 C0.78 11.97 0.78 11.97 -3.81 14.56 C-6 17 -6 17 -6.69 20.5 C-6 24 -6 24 -4.2 26 C0.5 28.94 5.49 30.09 10.81 31.5 C29.55 36.51 29.55 36.51 34 43 C29.36 43.1 24.72 43.17 20.08 43.22 C18.5 43.24 16.93 43.27 15.36 43.3 C3.74 43.55 -7.67 43.32 -16.62 34.76 C-20.22 30.17 -21.31 25.06 -20.94 19.31 C-20.04 13.79 -17.49 10.35 -13.38 6.62 C-11 5 -11 5 -9 5 C-9 4.34 -9 3.68 -9 3 C-9.66 2.67 -10.32 2.34 -11 2 C-3.38 0 -3.38 0 0 0 Z " fill="#BDECFE" transform="translate(366,95)"/>
<path d="M0 0 C0 0.66 0 1.32 0 2 C-0.91 2.58 -1.81 3.16 -2.75 3.75 C-6.83 6.57 -9.23 9.21 -10.57 14.07 C-11.51 19.8 -10.93 24.93 -8 30 C-3.32 35.03 2.47 37.28 9 39 C9 39.33 9 39.66 9 40 C-2.22 40 -13.44 40 -25 40 C-25.99 35.71 -26.98 31.42 -28 27 C-32.81 22.19 -36.76 20.17 -43.6 19.9 C-49.12 20.25 -52.62 21.45 -57 25 C-57.78 25.58 -58.57 26.16 -59.38 26.75 C-59.91 27.16 -60.45 27.58 -61 28 C-65 23.61 -65 23.61 -66 22 C-65 19 -65 19 -63.37 18.05 C-62.66 17.78 -61.95 17.51 -61.22 17.24 C-60.41 16.93 -59.6 16.62 -58.77 16.3 C-57.87 15.97 -56.98 15.65 -56.06 15.31 C-55.14 14.97 -54.22 14.62 -53.26 14.27 C-13.13 -0.39 -13.13 -0.39 0 0 Z " fill="#FAFBFC" transform="translate(357,98)"/>
<path d="M0 0 C5.23 4.34 7.62 9.7 10 16 C10 16.66 10 17.32 10 18 C10.58 17.48 11.16 16.97 11.75 16.44 C14 15 14 15 15.8 15.23 C18.5 16.17 20.87 17.46 23.38 18.81 C30.06 22.24 36.74 24.17 44 26 C40.7 28.2 37.29 29.61 33.62 31.06 C32.97 31.33 32.31 31.6 31.62 31.88 C24.03 34.91 24.03 34.91 21 35 C18.69 33.06 18.69 33.06 17 31 C16.49 31.81 15.98 32.62 15.46 33.45 C11.79 39.16 8.59 44.09 3 48 C-0.85 44.35 -3.71 40.02 -6.75 35.69 C-7.36 34.85 -7.98 34 -8.61 33.13 C-12.94 26.94 -12.94 26.94 -13.2 22.8 C-11.68 19.25 -9.55 16.47 -7.06 13.56 C-3.3 9.15 -1.26 5.71 0 0 Z " fill="#FBFCFD" transform="translate(175,120)"/>
<path d="M0 0 C5.61 0 11.22 0 17 0 C18.04 8.3 17.98 12.33 13.59 19.21 C8.48 25.72 2.74 28.19 -5.3 29.56 C-15.07 30.61 -25.08 29.99 -33.5 24.44 C-38.84 19.89 -41.63 13.94 -42.5 7.06 C-42 4 -42 4 -40.88 2.06 C-38.11 0.5 -36.12 0.61 -33 1 C-29.74 3.65 -28.19 7.18 -26.28 10.84 C-24.25 14.27 -22.81 15.73 -19 17 C-5.4 17.94 -5.4 17.94 0 14 C2 11 2.28 10.37 2.25 7 C2.26 6.32 2.26 5.64 2.27 4.94 C2 3 2 3 0 0 Z " fill="#BDEDFF" transform="translate(386,144)"/>
<path d="M0 0 C3.13 -0.08 6.27 -0.17 9.5 -0.25 C10.47 -0.29 11.44 -0.32 12.44 -0.36 C18.48 -0.44 23.02 0.46 28 4 C29.84 6.04 29.84 6.04 30.94 8.06 C31.32 8.73 31.7 9.41 32.09 10.1 C34.12 14.33 34.12 18.1 34.06 22.69 C34.06 23.39 34.05 24.09 34.05 24.81 C34.04 26.54 34.02 28.27 34 30 C29.65 30.06 25.29 30.09 20.94 30.12 C19.71 30.14 18.48 30.16 17.21 30.18 C16.02 30.18 14.82 30.19 13.59 30.2 C13.04 30.2 13.04 30.2 10.27 30.23 C7 30 7 30 0 28 C0 18.76 0 9.52 0 0 Z " fill="#FEFEFE" transform="translate(466,109)"/>
<path d="M0 0 C4.95 0 9.9 0 15 0 C15 5.94 15 11.88 15 18 C16.35 17.99 16.35 17.99 23.17 17.93 C25.79 17.91 28.4 17.9 31.02 17.89 C32.83 17.88 34.65 17.87 36.46 17.85 C39.07 17.82 41.69 17.81 44.3 17.8 C45.11 17.79 45.92 17.78 46.75 17.77 C54.13 17.77 54.13 17.77 57 20 C57.88 22.94 57.88 22.94 58 26 C56 29 56 29 53 30 C51.51 30.1 50.01 30.14 48.52 30.15 C47.61 30.15 46.71 30.16 45.77 30.16 C45.29 30.17 45.29 30.17 42.82 30.17 C41.82 30.17 40.81 30.17 39.78 30.18 C37.65 30.18 35.52 30.19 33.4 30.19 C30.14 30.19 26.89 30.21 23.64 30.22 C21.58 30.23 19.51 30.23 17.45 30.23 C16.96 30.23 16.96 30.23 14.5 30.25 C5.77 30.22 5.77 30.22 2 28 C-0.88 22.67 -0.22 16.52 -0.12 10.62 C-0.12 9.6 -0.11 8.58 -0.1 7.53 C-0.07 5.02 -0.04 2.51 0 0 Z " fill="#BDEDFF" transform="translate(529,143)"/>
<path d="M0 0 C3.02 5.24 2.65 10.36 1.88 16.25 C0.5 20.73 -1.54 24.37 -4.12 28.25 C-3.3 28.64 -2.47 29.03 -1.62 29.44 C-0.8 30.04 0.03 30.63 0.88 31.25 C1.19 33.94 1.19 33.94 0.88 36.25 C-2.65 36.65 -3.92 36.38 -6.94 34.38 C-7.3 34.02 -7.3 34.02 -9.12 32.25 C-9.12 31.59 -9.12 30.93 -9.12 30.25 C-9.62 30.41 -9.62 30.41 -12.12 31.25 C-17.31 31.74 -21.67 32.1 -26.25 29.44 C-29.7 25.41 -29.46 21.25 -29.4 16.17 C-28.84 10.29 -26.67 5.3 -22.25 1.31 C-15.1 -3.41 -7.62 -4.27 0 0 Z " fill="#030303" transform="translate(144.125,123.75)"/>
<path d="M0 0 C3.02 5.24 2.65 10.36 1.88 16.25 C0.5 20.73 -1.54 24.37 -4.12 28.25 C-3.3 28.64 -2.48 29.03 -1.62 29.44 C-0.8 30.04 0.02 30.63 0.88 31.25 C1.19 33.94 1.19 33.94 0.88 36.25 C-2.65 36.65 -3.92 36.38 -6.94 34.38 C-7.3 34.02 -7.3 34.02 -9.12 32.25 C-9.12 31.59 -9.12 30.93 -9.12 30.25 C-9.62 30.41 -9.62 30.41 -12.12 31.25 C-17.31 31.74 -21.67 32.1 -26.25 29.44 C-29.58 25.55 -29.4 21.76 -29.34 16.88 C-28.79 10.14 -26.01 4.92 -21.12 0.25 C-14.43 -3.84 -6.79 -3.8 0 0 Z " fill="#030303" transform="translate(759.125,100.75)"/>
<path d="M0 0 C2.96 0.11 5.92 0.24 8.88 0.38 C9.3 0.39 9.3 0.39 11.43 0.47 C11.83 0.49 11.83 0.49 13.87 0.59 C14.61 0.62 15.35 0.65 16.12 0.68 C18 1 18 1 20 3 C19.88 9.1 18.21 11.88 14 16 C11.19 17.38 11.19 17.38 9 18 C9 18.66 9 19.32 9 20 C11.97 20 14.94 20 18 20 C17.67 20.99 17.34 21.98 17 23 C15.68 23 14.36 23 13 23 C13.02 23.79 13.03 24.57 13.05 25.38 C13.11 28.96 13.15 32.54 13.19 36.12 C13.21 37.36 13.24 38.6 13.26 39.88 C13.27 41.07 13.28 42.27 13.29 43.51 C13.31 44.61 13.32 45.71 13.34 46.84 C12.95 50.49 11.91 52.88 10 56 C7.62 57.06 7.62 57.06 5 57 C2.25 55.81 2.25 55.81 0 54 C-1.31 50.5 -1.11 46.96 -1.1 43.27 C-1.09 41.97 -1.09 40.67 -1.09 39.34 C-1.08 37.98 -1.07 36.61 -1.06 35.25 C-1.06 33.87 -1.05 32.49 -1.05 31.11 C-1.04 27.74 -1.02 24.37 -1 21 C-1.66 20.67 -2.32 20.34 -3 20 C-2.01 20 -1.02 20 0 20 C0 18.35 0 16.7 0 15 C-0.83 14.67 -0.83 14.67 -5 13 C-5 9.85 -4.65 9.07 -3.06 6.5 C-1.7 4.27 -0.84 2.52 0 0 Z " fill="#BBE9FA" transform="translate(760,117)"/>
<path d="M0 0 C0.42 -0 0.42 -0 2.56 -0.02 C5.13 0.26 6.78 0.96 9 2.25 C9 2.91 9 3.57 9 4.25 C9.66 4.25 10.32 4.25 11 4.25 C13.71 8.91 14.43 12.38 14.44 17.75 C14.45 18.38 14.45 18.38 14.5 21.59 C13.77 26.92 11.3 29.92 7.62 33.69 C5 35.25 5 35.25 2.38 35.31 C-10.45 31.28 -10.45 31.28 -13.31 27.54 C-14.29 24.28 -14.3 21.28 -14.31 17.88 C-14.33 16.59 -14.35 15.3 -14.36 13.98 C-13.98 10.06 -12.98 7.62 -11 4.25 C-10.34 4.25 -9.68 4.25 -9 4.25 C-9 3.59 -9 2.93 -9 2.25 C-5.89 0.43 -3.59 -0.02 0 0 Z " fill="#FDFEFE" transform="translate(720,127.75)"/>
<path d="M0 0 C3.05 4.67 3.41 8.82 3.29 14.24 C3.29 15.01 3.28 15.78 3.28 16.57 C3.26 19.01 3.23 21.44 3.19 23.88 C3.17 25.53 3.16 27.19 3.15 28.85 C3.12 32.9 3.06 36.95 3 41 C-1.95 41 -6.9 41 -12 41 C-12.05 36.11 -12.09 31.21 -12.11 26.32 C-12.12 24.66 -12.13 22.99 -12.15 21.33 C-12.18 18.94 -12.19 16.54 -12.2 14.14 C-12.21 13.4 -12.22 12.66 -12.23 11.9 C-12.23 7.83 -11.92 4.63 -10 1 C-6.7 -1.59 -3.88 -1.32 0 0 Z " fill="#BDEDFF" transform="translate(430,97)"/>
<path d="M0 0 C1.3 0.01 2.59 0.01 3.93 0.02 C5.29 0.04 6.65 0.05 8.02 0.07 C9.39 0.08 10.77 0.09 12.15 0.1 C15.52 0.12 18.89 0.15 22.27 0.2 C21.59 8.75 21.59 8.75 17.95 12.57 C17.66 12.89 17.66 12.89 16.15 14.53 C12.67 17.61 9.91 18.45 5.28 18.39 C4.35 18.38 3.41 18.38 2.45 18.37 C1.48 18.35 0.51 18.34 -0.48 18.32 C-1.47 18.31 -2.45 18.3 -3.46 18.29 C-5.89 18.27 -8.31 18.23 -10.73 18.2 C-10.73 12.92 -10.73 7.64 -10.73 2.2 C-6.5 0.08 -4.62 -0.04 0 0 Z " fill="#FDFDFE" transform="translate(476.734375,142.8046875)"/>
<path d="M0 0 C6.27 0 12.54 0 19 0 C19.33 8.58 19.66 17.16 20 26 C12.51 24.93 6.98 22.81 0 20 C0 13.4 0 6.8 0 0 Z " fill="#FDFDFD" transform="translate(298,144)"/>
<path d="M0 0 C4.95 0 9.9 0 15 0 C15.05 3.73 15.09 7.46 15.12 11.19 C15.14 12.24 15.16 13.3 15.18 14.38 C15.18 15.41 15.19 16.43 15.2 17.48 C15.21 18.42 15.22 19.36 15.23 20.32 C14.98 23.26 14.31 25.37 13 28 C10.94 29.5 10.94 29.5 8 30 C4.89 29.26 1.96 28.2 -1 27 C-0.34 26.67 0.32 26.34 1 26 C0.67 25.01 0.34 24.02 0 23 C-0.08 21.23 -0.11 19.45 -0.1 17.68 C-0.09 16.65 -0.09 15.62 -0.09 14.56 C-0.08 13.49 -0.07 12.42 -0.06 11.31 C-0.06 10.23 -0.05 9.15 -0.05 8.03 C-0.04 5.35 -0.02 2.68 0 0 Z " fill="#BCECFE" transform="translate(317,144)"/>
<path d="M0 0 C4.95 0 9.9 0 15 0 C15.08 3.52 15.14 7.04 15.19 10.56 C15.21 11.55 15.24 12.54 15.26 13.56 C15.32 19.48 15.02 23.84 12 29 C8.84 30.14 6.99 30.25 3.75 29.44 C1.09 27.26 0.83 25.35 0 22 C-0.24 18.2 -0.19 14.43 -0.12 10.62 C-0.12 9.6 -0.11 8.58 -0.1 7.53 C-0.07 5.02 -0.04 2.51 0 0 Z " fill="#BDEDFF" transform="translate(418,144)"/>
<path d="M0 0 C0.16 0.91 0.33 1.81 0.5 2.75 C1.91 7.75 4.97 11.68 7.89 15.91 C10.79 20.16 13.41 24.56 16 29 C11.73 33.88 11.73 33.88 8.55 34.39 C5.23 33.88 4.39 32.78 2.31 30.19 C2.02 29.83 2.02 29.83 0.55 28.04 C-0.69 26.41 -1.86 24.71 -3 23 C-5.16 22.49 -5.16 22.49 -7.62 22.31 C-8.44 22.25 -9.26 22.18 -10.1 22.11 C-10.73 22.08 -11.35 22.04 -12 22 C-12 21.01 -12 20.02 -12 19 C-10.35 19 -8.7 19 -7 19 C-6.94 18.41 -6.88 17.82 -6.82 17.21 C-6.38 13.09 -5.91 9.04 -5 5 C-6.32 5.33 -7.64 5.66 -9 6 C-9 5.01 -9 4.02 -9 3 C-5.67 0.5 -4.27 0 0 0 Z " fill="#B8E5F7" transform="translate(162,140)"/>
<path d="M0 0 C2.38 1.5 2.38 1.5 4 4 C4.88 10.5 3.29 15.37 0 21 C-1.93 23.27 -3.02 23.84 -5.93 24.3 C-8.06 24.44 -8.06 24.44 -12 24 C-14.26 21.82 -14.95 20.56 -15.21 17.41 C-14.52 10.45 -13.19 6.19 -8.12 1.12 C-5.18 -0.43 -3.28 -0.48 0 0 Z " fill="#F5F6F6" transform="translate(136,126)"/>
<path d="M0 0 C2.38 1.5 2.38 1.5 4 4 C4.88 10.5 3.29 15.37 0 21 C-1.93 23.27 -3.02 23.84 -5.93 24.3 C-8.06 24.44 -8.06 24.44 -12 24 C-14.26 21.82 -14.95 20.56 -15.21 17.41 C-14.52 10.45 -13.19 6.19 -8.12 1.12 C-5.18 -0.43 -3.28 -0.48 0 0 Z " fill="#F2F3F3" transform="translate(751,103)"/>
<path d="M0 0 C2.75 0.75 2.75 0.75 4.69 1.75 C6.12 4.44 5.96 6.67 5.45 9.62 C3.71 14.91 -0.25 18.45 -5 21.12 C-9.64 23.23 -14.21 23.47 -19.25 23.75 C-18.92 20.12 -18.59 16.49 -18.25 12.75 C-17.07 12.44 -15.9 12.13 -14.69 11.81 C-10.71 10.38 -9.04 8.49 -6.62 5.06 C-3.61 0.83 -3.61 0.83 0 0 Z " fill="#BDECFE" transform="translate(677.25,150.25)"/>
<path d="M0 0 C1.79 2.69 2.66 4.66 3.62 7.69 C3.89 8.5 4.15 9.3 4.41 10.14 C4.61 10.75 4.8 11.37 5 12 C5.74 11.61 6.49 11.22 7.25 10.81 C8.16 10.54 9.07 10.28 10 10 C11.96 11.12 11.96 11.12 13.94 13 C19.67 17.91 26.02 20.29 33 23 C33 23.33 33 23.66 33 24 C18.48 24.73 6.71 23.54 -5 14 C-4.34 12.68 -3.68 11.36 -3 10 C-3.39 9.86 -3.39 9.86 -5.38 9.12 C-8 8 -8 8 -10 6 C-6.7 4.02 -3.4 2.04 0 0 Z " fill="#F6F8F8" transform="translate(199,118)"/>
<path d="M0 0 C9.7 0.3 16.53 1.1 23.94 7.56 C26 10 26 10 27 13 C27.66 13.33 28.32 13.66 29 14 C19.06 19.05 19.06 19.05 13 18 C10.38 15.69 10.38 15.69 8 13 C7.57 12.8 7.57 12.8 5.38 11.81 C1.54 8.89 1.05 4.56 0 0 Z " fill="#BBE9FA" transform="translate(654,117)"/>
<path d="M0 0 C0.66 0.33 1.32 0.66 2 1 C0.68 3.64 -0.64 6.28 -2 9 C61.36 9 124.72 9 190 9 C190 9.33 190 9.66 190 10 C124.33 10 58.66 10 -9 10 C-9.33 8.68 -9.66 7.36 -10 6 C-8.38 4.97 -6.75 3.95 -5.12 2.94 C-4.22 2.37 -3.32 1.8 -2.38 1.21 C-1.99 1.01 -1.99 1.01 0 0 Z " fill="#A8B9BE" transform="translate(267,129)"/>
<path d="M0 0 C2.97 0.82 2.97 0.82 18 5 C14.7 7.2 11.29 8.61 7.62 10.06 C6.97 10.33 6.31 10.6 5.62 10.88 C-1.38 13.67 -1.38 13.67 -5 14 C-7.31 12.06 -7.31 12.06 -9 10 C-9.41 10.65 -9.82 11.3 -10.24 11.97 C-10.78 12.8 -11.32 13.64 -11.88 14.5 C-12.41 15.34 -12.94 16.17 -13.49 17.03 C-13.99 17.68 -14.49 18.33 -15 19 C-15.66 19 -16.32 19 -17 19 C-16.67 12.69 -15.8 9.49 -11 5 C-7.33 2.82 -4.32 2 0 2 C0 1.34 0 0.68 0 0 Z " fill="#BDE7F7" transform="translate(201,141)"/>
<path d="M0 0 C2.1 -0.13 4.21 -0.23 6.31 -0.31 C7.48 -0.37 8.66 -0.43 9.86 -0.49 C13 0 13 0 14.92 2.39 C16 5 16 5 16 7 C16.66 7 17.32 7 18 7 C16.45 10.88 14 13.03 10.88 15.75 C9.96 16.55 9.05 17.35 8.12 18.17 C7.42 18.78 6.72 19.38 6 20 C2.36 16.86 1.21 13.6 0.59 8.89 C0.52 7.83 0.45 6.78 0.38 5.69 C0.34 5.15 0.34 5.15 0.15 2.45 C0.1 1.64 0.05 0.83 0 0 Z " fill="#BBEAFC" transform="translate(630,143)"/>
<path d="M0 0 C8.58 0 17.16 0 26 0 C26 4.29 26 8.58 26 13 C19.68 12.45 14.39 10.37 8.56 7.94 C7.64 7.56 6.72 7.18 5.77 6.79 C3.51 5.87 1.25 4.94 -1 4 C-0.67 2.68 -0.34 1.36 0 0 Z " fill="#FBFBFB" transform="translate(258,144)"/>
<path d="M0 0 C4.81 3.75 9.83 7.72 13 13 C12.81 16.88 12.81 16.88 11 20 C7.92 21.67 6.18 22.29 2.75 21.44 C-0.47 18.79 -0.94 15.47 -1.41 11.45 C-1.48 10.21 -1.55 8.97 -1.62 7.69 C-1.7 6.43 -1.77 5.18 -1.85 3.89 C-1.9 2.93 -1.95 1.98 -2 1 C-1.34 0.67 -0.68 0.34 0 0 Z " fill="#BBEAFC" transform="translate(252,152)"/>
<path d="M0 0 C-0.34 5.44 -3.7 8.94 -7 13 C-8.32 12.34 -9.64 11.68 -11 11 C-11.29 12.09 -11.58 13.19 -11.88 14.31 C-13 18 -13 18 -15 21 C-19.6 23.3 -24.97 24.89 -30 26 C-30.66 25.67 -31.32 25.34 -32 25 C-26.7 21.27 -21.41 17.56 -16 14 C-16.66 13.67 -17.32 13.34 -18 13 C-16.5 8.47 -12.85 6.62 -9 4.25 C-8.68 4.04 -8.68 4.04 -7.05 3 C-2.28 0 -2.28 0 0 0 Z " fill="#B5E0F0" transform="translate(235,148)"/>
<path d="M0 0 C2.81 1.81 3.04 3.14 3.94 6.44 C4 10 4 10 2.44 12.38 C-0.54 14.36 -2.42 15 -6 15 C-9.3 12.86 -9.92 11.3 -10.94 7.5 C-11 4 -11 4 -9.75 1.62 C-6.54 -1.36 -4 -1.2 0 0 Z " fill="#BFEDFF" transform="translate(612,159)"/>
<path d="M0 0 C7.63 2.46 15.09 5.29 22.56 8.19 C23.76 8.65 24.96 9.11 26.2 9.59 C29.13 10.73 32.07 11.86 35 13 C34.36 13.27 33.72 13.54 33.06 13.81 C31 15 31 15 30 18 C27.98 18.81 27.98 18.81 25 19 C22.18 17.67 19.75 15.85 17.25 14 C16.54 13.5 15.84 12.99 15.11 12.47 C13.06 11 11.03 9.51 9 8 C7.99 7.25 6.99 6.51 5.95 5.74 C1.73 2.53 1.73 2.53 0 1 C0 0.67 0 0.34 0 0 Z " fill="#B9E6F7" transform="translate(265,155)"/>
<path d="M0 0 C6.62 -0.12 6.62 -0.12 10 1 C10 3.31 10 5.62 10 8 C11.98 7.34 13.96 6.68 16 6 C17.51 7.95 19 9.91 20.5 11.88 C20.93 12.43 21.36 12.99 21.8 13.56 C25 17.77 25 17.77 25 20 C16.85 18.66 10.01 14.53 4 9 C4.66 7.68 5.32 6.36 6 5 C5.01 4.36 4.02 3.72 3 3.06 C2.01 2.38 1.02 1.7 0 1 C0 0.67 0 0.34 0 0 Z " fill="#B7E5F6" transform="translate(208,117)"/>
<path d="M0 0 C1.56 2.38 1.56 2.38 1.56 8.38 C-4.71 8.38 -10.98 8.38 -17.44 8.38 C-15.44 1.38 -15.44 1.38 -13.44 -0.62 C-8.93 -2.29 -4.06 -2.71 0 0 Z " fill="#FCFEFF" transform="translate(282.4375,129.625)"/>
<path d="M0 0 C0.35 -0.01 0.35 -0.01 2.12 -0.04 C4 0.19 4 0.19 6 2.19 C5.88 8.29 4.21 11.07 0 15.19 C-2.81 16.56 -2.81 16.56 -5 17.19 C-5 17.85 -5 18.51 -5 19.19 C-2.03 19.19 0.94 19.19 4 19.19 C3.67 20.18 3.34 21.17 3 22.19 C-1.29 22.19 -5.58 22.19 -10 22.19 C-8.88 16.59 -8.88 16.59 -5.56 14.06 C-3.06 12.13 -1.81 10.9 0 8.19 C0 6.87 0 5.55 0 4.19 C-2.31 4.52 -4.62 4.85 -7 5.19 C-6.62 3.25 -6.62 3.25 -6 1.19 C-3.77 0.07 -2.47 0.02 0 0 Z " fill="#070909" transform="translate(774,117.8125)"/>
<path d="M0 0 C2.5 1.62 2.5 1.62 4 4 C4 5.98 4 7.96 4 10 C-2.27 10 -8.54 10 -15 10 C-12.1 1.3 -8.87 -1.13 0 0 Z " fill="#FCFEFF" transform="translate(313,128)"/>
<path d="M0 0 C1.32 0.93 2.63 1.87 3.94 2.81 C4.67 3.33 5.4 3.86 6.15 4.39 C8 6 8 6 9 9 C8.01 10.98 7.02 12.96 6 15 C-2.25 15 -10.5 15 -19 15 C-19 14.67 -19 14.34 -19 14 C-16.86 13.84 -16.86 13.84 -6 13 C-5.78 12.39 -5.78 12.39 -4.69 9.31 C-3.44 5.96 -1.97 3 0 0 Z " fill="#B8E2F2" transform="translate(637,124)"/>
<path d="M0 0 C0.66 0.33 1.32 0.66 2 1 C1.07 3.09 0.13 5.17 -0.81 7.25 C-1.33 8.41 -1.86 9.57 -2.39 10.77 C-3.74 13.48 -5.09 15.68 -7 18 C-11.98 17.53 -15.07 16.09 -19 13 C-19 12.34 -19 11.68 -19 11 C-17.23 10.33 -15.46 9.66 -13.69 9 C-12.7 8.63 -11.72 8.26 -10.7 7.88 C-8 7 -8 7 -5 7 C-5.33 5.68 -5.66 4.36 -6 3 C-4.04 1.93 -2.03 0.93 0 0 Z " fill="#B7E5F6" transform="translate(206,155)"/>
<path d="M0 0 C8.32 2.52 12.73 8.59 16.93 15.83 C18 18 18 18 18 20 C12.12 19.2 8.99 16.21 5 12 C2.27 8.31 0.56 4.59 0 0 Z " fill="#B8E7F8" transform="translate(693,152)"/>
<path d="M0 0 C-0.31 2.04 -0.62 4.08 -0.94 6.12 C-1.11 7.26 -1.29 8.4 -1.46 9.57 C-1.96 12.72 -2.47 15.86 -3 19 C-1.68 19.33 -0.36 19.66 1 20 C0.67 20.66 0.34 21.32 0 22 C-3.96 22 -7.92 22 -12 22 C-12 21.01 -12 20.02 -12 19 C-10.35 19 -8.7 19 -7 19 C-6.94 18.41 -6.88 17.82 -6.82 17.21 C-6.38 13.09 -5.91 9.04 -5 5 C-6.32 5.33 -7.64 5.66 -9 6 C-9 5.01 -9 4.02 -9 3 C-5.67 0.5 -4.27 0 0 0 Z " fill="#040505" transform="translate(162,140)"/>
<path d="M0 0 C2.46 3.69 3.01 6.7 4 11 C1.69 12.65 -0.62 14.3 -3 16 C-3.66 15.01 -4.32 14.02 -5 13 C-4.34 12.01 -3.68 11.02 -3 10 C-3.39 9.86 -3.39 9.86 -5.38 9.12 C-8 8 -8 8 -10 6 C-6.7 4.02 -3.4 2.04 0 0 Z " fill="#B6E2F3" transform="translate(199,118)"/>
<path d="M0 0 C0.66 0.33 1.32 0.66 2 1 C-0.64 6.94 -3.28 12.88 -6 19 C-8.64 17.35 -11.28 15.7 -14 14 C-10.68 10.58 -7.24 7.45 -3.55 4.43 C-2 3 -2 3 0 0 Z " fill="#B7E4F5" transform="translate(651,153)"/>
<path d="M0 0 C6.45 2.06 12.74 4.42 19 7 C19.33 9.31 19.66 11.62 20 14 C16.76 13.39 14.73 12.29 12.11 10.31 C11.4 9.78 10.69 9.25 9.96 8.7 C9.23 8.14 8.5 7.58 7.75 7 C7 6.44 6.26 5.88 5.49 5.3 C1.47 2.26 1.47 2.26 0 1 C0 0.67 0 0.34 0 0 Z " fill="#F2F2F3" transform="translate(265,155)"/>
<path d="M0 0 C1.6 2.88 2.37 5.3 2.75 8.56 C2.8 8.94 2.8 8.94 3.05 10.88 C3 13 3 13 1 16 C-3.38 17.31 -3.38 17.31 -6 16 C-4.95 13.38 -4.35 12.21 -1.88 10.75 C-1.26 10.5 -0.64 10.25 0 10 C-0.52 9.59 -1.03 9.18 -1.56 8.75 C-3 7 -3 7 -2.81 5 C-2 3 -2 3 0 0 Z " fill="#B5E3F5" transform="translate(235,157)"/>
<path d="M0 0 C-3.27 4.39 -6.55 8.75 -10 13 C-10.66 12.67 -11.32 12.34 -12 12 C-11.74 10.56 -11.47 9.12 -11.19 7.69 C-11.04 6.89 -10.89 6.09 -10.73 5.26 C-8.87 -0.5 -5.58 -0.32 0 0 Z " fill="#B9E4F5" transform="translate(262,117)"/>
<path d="M0 0 C0.33 0 0.66 0 1 0 C1.18 11.52 1.18 11.52 0 17 C-0.33 16.01 -0.66 15.02 -1 14 C-1.99 14 -2.98 14 -4 14 C-4.66 15.32 -5.32 16.64 -6 18 C-6.33 17.34 -6.66 16.68 -7 16 C-6.07 13.57 -6.07 13.57 -4.69 10.69 C-3.01 7.16 -1.41 3.64 0 0 Z " fill="#B3D3DF" transform="translate(654,159)"/>
<path d="M0 0 C0 0.33 0 0.66 0 1 C-2.96 1.05 -5.92 1.09 -8.88 1.12 C-9.3 1.13 -9.3 1.13 -11.43 1.18 C-12.23 1.18 -13.04 1.19 -13.87 1.2 C-14.61 1.21 -15.35 1.22 -16.12 1.23 C-18 1 -18 1 -20 -1 C-12.36 -4.85 -7.55 -3.54 0 0 Z " fill="#B5E2F3" transform="translate(232,141)"/>
<path d="M0 0 C0.66 0.33 1.32 0.66 2 1 C1.52 1.47 1.04 1.94 0.55 2.42 C-1.62 4.55 -3.78 6.68 -5.94 8.81 C-6.69 9.55 -7.45 10.29 -8.22 11.05 C-8.94 11.76 -9.66 12.47 -10.4 13.21 C-10.73 13.53 -10.73 13.53 -12.42 15.19 C-14 17 -14 17 -15 20 C-16.88 21.84 -18.93 23.37 -21 25 C-21.66 24.67 -22.32 24.34 -23 24 C-6.74 6.55 -6.74 6.55 0 0 Z " fill="#DADADA" transform="translate(288,95)"/>
<path d="M0 0 C0.66 0.33 1.32 0.66 2 1 C0.68 3.64 -0.64 6.28 -2 9 C-4.31 9 -6.62 9 -9 9 C-9 7.68 -9 6.36 -9 5 C-7.55 4.14 -6.09 3.28 -4.62 2.44 C-4.22 2.2 -4.22 2.2 -2.16 1 C-1.45 0.67 -0.74 0.34 0 0 Z " fill="#B5E3F5" transform="translate(267,129)"/>
<path d="M0 0 C3.46 -0.31 5.4 -0.38 8.38 1.5 C10.74 5.13 10.29 7.72 10 12 C6.74 8.97 4.43 5.72 2 2 C1.34 1.34 0.68 0.68 0 0 Z " fill="#A7D1E1" transform="translate(130,126)"/>
<path d="M0 0 C4.06 1.28 4.45 2.43 6.38 6.06 C4.44 5.92 2.5 5.77 0.56 5.62 C-0.52 5.54 -1.6 5.46 -2.71 5.38 C-5.62 5.06 -5.62 5.06 -8.62 4.06 C-5.64 1.07 -4.3 0.07 0 0 Z " fill="#B8E2F1" transform="translate(136.625,116.9375)"/>
<path d="M0 0 C0.66 0.33 1.32 0.66 2 1 C0.68 3.64 -0.64 6.28 -2 9 C-2.99 8.67 -3.98 8.34 -5 8 C-5.33 6.35 -5.66 4.7 -6 3 C-4.04 1.93 -2.03 0.93 0 0 Z " fill="#ECEDEE" transform="translate(206,155)"/>
<path d="M0 0 C2.31 0 4.62 0 7 0 C7 1.98 7 3.96 7 6 C4.36 5.34 1.72 4.68 -1 4 C-0.67 2.68 -0.34 1.36 0 0 Z " fill="#B5E4F5" transform="translate(258,144)"/>
<path d="M0 0 C-2.97 1.98 -5.94 3.96 -9 6 C-9.99 5.01 -10.98 4.02 -12 3 C-10.57 2.3 -9.13 1.62 -7.69 0.94 C-7.29 0.75 -7.29 0.75 -5.26 -0.22 C-3 -1 -3 -1 0 0 Z " fill="#E8E8E8" transform="translate(222,151)"/>
<path d="M0 0 C-3.56 2.97 -7.65 5.38 -12 7 C-12.66 6.67 -13.32 6.34 -14 6 C-9.5 1.4 -6.77 -0.83 0 0 Z " fill="#A2CBDA" transform="translate(282,117)"/>
<path d="M0 0 C3.21 1.11 4.01 2.02 5.81 5 C6.2 5.99 6.6 6.98 7 8 C6.67 8.66 6.34 9.32 6 10 C4.99 8.71 4 7.42 3 6.12 C2.44 5.41 1.89 4.69 1.31 3.95 C0 2 0 2 0 0 Z " fill="#B5E2F2" transform="translate(228,121)"/>
<path d="M0 0 C0.1 0.64 0.21 1.28 0.31 1.94 C0.54 2.62 0.77 3.3 1 4 C1.99 4.33 2.98 4.66 4 5 C1.03 5 -1.94 5 -5 5 C-5 4.34 -5 3.68 -5 3 C-2.5 1.38 -2.5 1.38 0 0 Z " fill="#9CB7C1" transform="translate(774,132)"/>
<path d="M0 0 C0.66 0 1.32 0 2 0 C2 2.31 2 4.62 2 7 C0.68 6.67 -0.64 6.34 -2 6 C-2 3 -2 3 0 0 Z " fill="#ECECEC" transform="translate(757,124)"/>
<path d="M0 0 C1.32 1.65 2.64 3.3 4 5 C3.67 5.66 3.34 6.32 3 7 C0.69 5.35 -1.62 3.7 -4 2 C-2.68 1.34 -1.36 0.68 0 0 Z " fill="#A6CDDB" transform="translate(644,120)"/>
<path d="M0 0 C0.66 0.33 1.32 0.66 2 1 C2 2.32 2 3.64 2 5 C0.35 5.33 -1.3 5.66 -3 6 C-1.12 1.12 -1.12 1.12 0 0 Z " fill="#F9FDFF" transform="translate(152,153)"/>
<path d="M0 0 C0.66 0.33 1.32 0.66 2 1 C1.01 1.33 0.02 1.66 -1 2 C-1.33 2.99 -1.66 3.98 -2 5 C-2.99 4.84 -2.99 4.84 -8 4 C-6.67 3.33 -5.33 2.67 -4 2 C-3.3 1.61 -2.6 1.22 -1.88 0.81 C-1.26 0.54 -0.64 0.28 0 0 Z " fill="#C6DBE3" transform="translate(679,136)"/>
<path d="M0 0 C2.95 2.95 3.09 5.96 4 10 C1.28 7.65 0.05 5.43 -1 2 C-0.67 1.34 -0.34 0.68 0 0 Z " fill="#B0C4CB" transform="translate(648,114)"/>
<path d="M0 0 C0.33 0.16 0.33 0.16 2 1 C2 1.66 2 2.32 2 3 C2.66 3 3.32 3 4 3 C3.67 3.99 3.34 4.98 3 6 C2.01 6 1.02 6 0 6 C0 4.02 0 2.04 0 0 Z " fill="#E4E7E9" transform="translate(644,147)"/>
<path d="M0 0 C4.68 1.48 4.68 1.48 6.31 4.12 C6.54 4.74 6.77 5.36 7 6 C6.01 6 5.02 6 4 6 C1.81 3 1.81 3 0 0 Z " fill="#EFF4F7" transform="translate(663,129)"/>
<path d="M0 0 C0.66 0.33 1.32 0.66 2 1 C1.01 2.98 0.02 4.96 -1 7 C-1.66 6.67 -2.32 6.34 -3 6 C-1.12 1.12 -1.12 1.12 0 0 Z " fill="#DADADA" transform="translate(651,153)"/>
<path d="M0 0 C-1.81 1.56 -1.81 1.56 -4 3 C-4.99 2.67 -5.98 2.34 -7 2 C-5.27 -1.47 -3.41 -1.14 0 0 Z " fill="#C5C5C5" transform="translate(222,151)"/>
<path d="M0 0 C2.38 0.31 2.38 0.31 5 1 C5.66 1.99 6.32 2.98 7 4 C3.73 3.44 2.17 2.5 0 0 Z " fill="#EEF4F7" transform="translate(214,127)"/>
<path d="M0 0 C-0.66 0.66 -1.32 1.32 -2 2 C-3.32 2 -4.64 2 -6 2 C-6 1.34 -6 0.68 -6 0 C-3 -1 -3 -1 0 0 Z " fill="#EFF5F8" transform="translate(372,95)"/>
<path d="M0 0 C0.99 0.33 1.98 0.66 3 1 C2.34 1.66 1.68 2.32 1 3 C0.01 2.67 -0.98 2.34 -2 2 C-1.34 1.34 -0.68 0.68 0 0 Z " fill="#B6D6E2" transform="translate(714,171)"/>
</svg>
