<?xml version="1.0" encoding="UTF-8"?>
<svg xmlns="http://www.w3.org/2000/svg" viewBox="0 0 2430 2287" width="2430" height="2287" shape-rendering="geometricPrecision">
<path d="M2226.83 2243.42C2217.91 2240.68 2214.29 2232.62 2219.58 2227.33C2221.85 2225.06 2222.74 2224.81 2226.83 2225.31C2229.4 2225.63 2235.32 2227.58 2240 2229.65C2246.52 2232.53 2250.15 2233.5 2255.59 2233.8C2264.03 2234.28 2268.71 2232.35 2275.19 2225.71C2281.38 2219.37 2283.47 2214.04 2283.48 2204.5C2283.51 2190.77 2277.54 2181.49 2264.57 2175.11C2261.06 2173.38 2255.56 2171.51 2252.34 2170.95C2241.41 2169.06 2238.74 2166.21 2245.75 2163.94C2256.89 2160.33 2268.1 2151.56 2272.08 2143.34C2274.82 2137.67 2275.08 2126.38 2272.59 2120.51C2268.82 2111.61 2262.07 2107.59 2251 2107.64C2241.34 2107.69 2236.3 2109.92 2227.72 2117.94C2221.03 2124.21 2219.3 2124.46 2220.49 2119.02C2222.3 2110.8 2234.11 2097.75 2243.83 2093.25C2248.65 2091.02 2250.15 2090.82 2259.33 2091.18C2267.62 2091.5 2270.54 2092.05 2275.12 2094.17C2297.17 2104.37 2300.21 2126.17 2282.32 2145.93C2279.4 2149.17 2277 2152.47 2277 2153.27C2277 2154.08 2278.7 2155.86 2280.79 2157.24C2286.77 2161.2 2294.87 2170.03 2297.56 2175.53C2302.84 2186.33 2302.95 2198.03 2297.9 2211.55C2293.77 2222.59 2281.56 2235.2 2270.27 2240.08C2259.52 2244.73 2236.78 2246.49 2226.83 2243.42ZM957.5 2197.58C934.25 2192.46 914.08 2181.11 900.8 2165.68C878.42 2139.68 869.78 2113.7 871.33 2077.08C872.56 2047.93 880.36 2025.27 896.57 2003.72C910.4 1985.34 932.04 1971.03 956 1964.42C968.76 1960.89 990.02 1960.01 1004 1962.43C1012.54 1963.91 1017.31 1965.38 1039.96 1973.54C1046.13 1975.76 1046.55 1975.79 1049.33 1974.18C1052.63 1972.27 1059 1964.44 1059 1962.29C1059 1959.81 1064.33 1961.17 1065.68 1964.01C1067.02 1966.82 1069.67 1997.15 1070.65 2020.89C1071.22 2034.74 1071.1 2036.67 1069.63 2037.89C1067.18 2039.92 1064.74 2037.3 1061.99 2029.7C1055.84 2012.74 1045.17 1996.35 1035.69 1989.32C1022.05 1979.19 1008 1974.79 989 1974.69C974.53 1974.61 966.63 1976.25 955 1981.75C941.92 1987.93 927.08 2004.92 920.71 2021C913.79 2038.5 910.58 2057.55 910.62 2081C910.69 2130.51 926.07 2160.78 959.11 2176.47C968.9 2181.12 978.06 2182.96 991.5 2182.98C1021.88 2183 1037.41 2175.32 1060.67 2148.76C1068.01 2140.37 1070.68 2137.96 1072.34 2138.19C1078.3 2139.04 1071.8 2151.02 1057.04 2166.4C1033.69 2190.74 1016.12 2198.73 984 2199.59C970.31 2199.96 967.21 2199.73 957.5 2197.58ZM1830 2198.05C1812.58 2194.33 1798.49 2188.21 1786.03 2178.95C1763.52 2162.23 1747.34 2134.08 1742.94 2104C1741.43 2093.67 1742.3 2062.5 1744.38 2052.5C1751.94 2016.09 1779.25 1983.02 1813.48 1968.82C1830.06 1961.94 1846.73 1959.84 1868.5 1961.89C1883.07 1963.25 1889.03 1964.77 1902.56 1970.55C1908.29 1973 1914.41 1975 1916.15 1975C1920.45 1975 1925.8 1970.72 1928.17 1965.36C1929.79 1961.69 1930.54 1961 1932.92 1961C1934.48 1961 1936.23 1961.57 1936.81 1962.27C1937.89 1963.57 1942 2016.9 1942 2029.63C1942 2034.84 1941.58 2037.1 1940.45 2038.04C1938.14 2039.96 1936.65 2037.98 1931.48 2026.07C1929.02 2020.39 1925.67 2013.42 1924.05 2010.58C1916.39 1997.2 1901.3 1983.5 1889.26 1979C1882.56 1976.49 1871.09 1975.01 1858.5 1975.03C1843.77 1975.05 1836.82 1976.48 1827.14 1981.49C1812.25 1989.19 1803.11 1998.31 1795.63 2012.93C1786.03 2031.72 1783.12 2045.27 1782.32 2075C1781.47 2106.58 1784 2122.1 1792.99 2140.5C1800.97 2156.83 1811.4 2167.3 1827.33 2174.94C1838.67 2180.39 1845.59 2182.05 1859.54 2182.7C1887.3 2183.98 1900.94 2178.7 1921.85 2158.54C1926.44 2154.12 1932.44 2147.69 1935.18 2144.25C1940.52 2137.57 1943.96 2136.19 1945.96 2139.93C1948.5 2144.67 1924.86 2173.03 1910.5 2182.49C1897.83 2190.83 1884.1 2196.35 1869.57 2198.94C1860.29 2200.6 1839.77 2200.13 1830 2198.05ZM87 2193.97C66.92 2193.68 50.39 2193.34 50.25 2193.22C50.11 2193.1 50 2191.88 50 2190.5C50 2189.12 50.11 2187.98 50.25 2187.95C50.39 2187.92 54.35 2187.31 59.06 2186.59C69.42 2185 74.26 2182.84 77.76 2178.25C80.11 2175.16 80.49 2173.54 81.13 2163.64C82.06 2149.42 82.21 2039.91 81.34 2008.19L80.68 1984.05L77.59 1980.87C73.45 1976.61 67.59 1974.14 59.02 1973.07C55.11 1972.58 51.26 1971.63 50.46 1970.97C47.96 1968.89 48.83 1967.12 52.71 1966.39C58.18 1965.37 176.22 1966.79 185 1967.98C194.3 1969.25 200.21 1971.14 210.58 1976.15C231.24 1986.12 243.6 2003.02 244.77 2022.87C245.95 2042.95 237.28 2058.48 217.61 2071.5C213.46 2074.25 210.05 2076.86 210.03 2077.3C210.01 2077.74 211.46 2078.61 213.25 2079.23C215.04 2079.85 220.5 2082.36 225.38 2084.8C244.38 2094.3 256.04 2111.51 255.98 2129.96C255.89 2158.28 235.31 2182.21 203.38 2191.1C196.18 2193.1 192.4 2193.34 159.5 2193.9C139.7 2194.23 107.08 2194.26 87 2193.97ZM278 2192.67C278 2189.19 280.19 2187.31 285.23 2186.47C290.77 2185.55 293.74 2183.96 297.81 2179.73L301.11 2176.29L300.81 2121.4C300.57 2079.25 300.2 2065.98 299.23 2064.27C297.29 2060.88 294.18 2059.69 286.5 2059.39C282.65 2059.24 279.16 2059.09 278.75 2059.06C278.34 2059.03 278 2057.89 278 2056.52C278 2053.47 279.91 2052.17 292.08 2046.95C307.98 2040.12 321.77 2035.87 326.91 2036.2L331.5 2036.5L331.78 2049.25C331.93 2056.26 332.44 2062 332.91 2062C333.38 2062 336.26 2058.68 339.31 2054.62C345.1 2046.94 351.04 2041.5 357 2038.46C361.45 2036.2 373.5 2035.35 378.39 2036.96C386.02 2039.48 391.14 2046.01 391.25 2053.38C391.32 2058.48 389.19 2062.75 384.52 2066.85C379.66 2071.12 374.52 2071.11 367 2066.84C353.42 2059.12 351.95 2058.73 347.11 2061.6C345.62 2062.47 341.61 2067.09 338.19 2071.85L331.98 2080.5L332.24 2127C332.47 2168.89 332.67 2173.81 334.23 2176.66C337.34 2182.34 340.15 2183.91 352.75 2187.03C355.83 2187.79 357 2188.58 357 2189.92C357 2194.33 355.73 2194.48 315.85 2194.85L278 2195.2L278 2192.67ZM1101.1 2194.09C1097.42 2193.69 1095.35 2192.92 1094.6 2191.69C1092.95 2188.97 1095.98 2187.26 1103.85 2186.48C1111.63 2185.7 1117.45 2183.22 1121.56 2178.94L1124.5 2175.87L1124.5 2080.51C1124.5 1985.76 1124.49 1985.13 1122.44 1982.39C1118.29 1976.83 1116.43 1976.05 1098.51 1972.33C1094.32 1971.46 1092.53 1968.55 1095.15 1966.89C1095.89 1966.42 1117.23 1966.02 1142.56 1966.02C1181.08 1966 1188.94 1966.24 1190.56 1967.44C1193.72 1969.78 1190.61 1971.76 1181.18 1973.41C1171.74 1975.06 1166.52 1977.42 1163.56 1981.39C1161.57 1984.05 1161.49 1985.56 1161.19 2027.08L1160.88 2070.02L1212.69 2069.76L1264.5 2069.5L1264.8 2058.5C1264.96 2052.45 1264.66 2033.65 1264.12 2016.72C1263.02 1981.8 1262.93 1981.38 1254.97 1977.29C1252.51 1976.03 1246.77 1974.34 1242.22 1973.54C1237.67 1972.74 1233.51 1971.81 1232.97 1971.48C1231.43 1970.53 1231.84 1967.27 1233.58 1966.61C1235.66 1965.81 1306.7 1966.01 1319.17 1966.85C1324.49 1967.21 1329.16 1967.83 1329.56 1968.23C1331.21 1969.88 1327.45 1971.91 1320.69 1973.03C1312.52 1974.38 1304.94 1977.3 1302.44 1980.07C1299.54 1983.27 1298.93 2004.55 1299.22 2092.11C1299.49 2171.17 1299.58 2174.63 1301.41 2177.66C1304.24 2182.33 1309.84 2184.97 1320.18 2186.53C1329.92 2187.99 1332.25 2189.45 1329.08 2192.09C1327.67 2193.27 1324.04 2193.84 1315.33 2194.26C1300.11 2195 1237.02 2194.42 1234.83 2193.53C1230.67 2191.83 1232.17 2187.01 1236.87 2186.98C1238.32 2186.97 1242.65 2186.31 1246.5 2185.5C1252.58 2184.23 1254.04 2183.47 1257.63 2179.71C1260.74 2176.44 1262.04 2174.05 1262.91 2169.97C1263.61 2166.73 1264.32 2148.8 1264.7 2125.28L1265.32 2086L1213.09 2086L1160.85 2086L1161.18 2130.25C1161.54 2180.03 1161.32 2178.56 1169.03 2182.9C1171.86 2184.49 1176.27 2185.64 1182.38 2186.39L1191.5 2187.52L1191.5 2191.01L1191.5 2194.5L1149 2194.59C1125.62 2194.64 1104.07 2194.42 1101.1 2194.09ZM1977.5 2194.3C1966.38 2193.88 1965 2193.46 1965 2190.5C1965 2187.79 1964.87 2187.84 1977 2186.03C1985.86 2184.71 1990.93 2181.78 1993.42 2176.52C1994.93 2173.35 1995.27 2167.76 1995.98 2135.17C1996.83 2096.41 1996.53 2023.52 1995.41 1998.2C1994.84 1985.1 1994.59 1983.66 1992.42 1981.08C1989.25 1977.32 1980.99 1973.89 1973.55 1973.25C1970.22 1972.97 1966.71 1972.33 1965.75 1971.83C1963.57 1970.71 1963.46 1967.42 1965.58 1966.61C1966.45 1966.27 1988.19 1966 2013.89 1966C2053.91 1966 2060.9 1966.22 2062.56 1967.5C2064.47 1968.98 2064.47 1969.03 2062.33 1970.85C2060.93 1972.03 2057.8 1972.92 2053.61 1973.31C2046.07 1974.01 2038.22 1977.07 2034.91 1980.6C2032.81 1982.83 2032.56 1984.31 2031.88 1998.27C2031.48 2006.65 2031.11 2026.22 2031.07 2041.76L2031 2070.02L2082.75 2069.76L2134.5 2069.5L2134.77 2043.5C2135.13 2009.23 2133.93 1985.35 2131.68 1981.92C2129.16 1978.07 2122.95 1975.07 2114.29 1973.54C2104.47 1971.8 2102.83 1971.14 2103.21 1969.12C2103.64 1966.85 2114.96 1966.26 2161.06 1966.12C2192.3 1966.02 2198.94 1966.24 2200.56 1967.44C2203.88 1969.9 2200.36 1972.24 2191.99 1973.13C2183.67 1974.02 2174.86 1977.76 2172.47 1981.41C2170.97 1983.7 2170.67 1988.87 2170.02 2024.76C2169.24 2066.89 2169.53 2134.16 2170.59 2160.65C2171.28 2177.81 2172.19 2180.44 2178.49 2183.43C2180.53 2184.4 2185.42 2185.61 2189.35 2186.12C2197.79 2187.22 2201 2188.41 2201 2190.44C2201 2194.21 2197.94 2194.45 2151.98 2194.37C2127.5 2194.32 2106.46 2193.96 2105.23 2193.57C2103.75 2193.1 2103 2192.07 2103 2190.5C2103 2187.85 2103.92 2187.45 2112 2186.5C2123.78 2185.13 2129.16 2182.11 2132.32 2175.09C2134.28 2170.74 2134.41 2168.32 2134.81 2128.25L2135.24 2086L2083.03 2086L2030.83 2086L2031.24 2127.75C2031.59 2163.13 2031.91 2170.27 2033.31 2174.56C2036 2182.78 2039.92 2185.16 2052.95 2186.49C2056.5 2186.85 2060.21 2187.58 2061.2 2188.11C2063.57 2189.38 2063.49 2191.67 2061.03 2192.99C2059.13 2194 1995.86 2195 1977.5 2194.3ZM177.5 2178.44C181.35 2177.63 186.85 2175.62 189.71 2173.99C196.93 2169.85 207.08 2160.11 210.28 2154.23C216.18 2143.39 216.22 2125.72 210.37 2113.28C204.78 2101.4 191.1 2091.62 173.44 2086.89C166.52 2085.03 162.54 2084.74 142.5 2084.63C129.85 2084.56 118.71 2084.82 117.75 2085.22C116.13 2085.88 116 2088.46 116 2119.22C116.01 2137.52 116.3 2158.2 116.65 2165.17L117.3 2177.84L125.4 2178.96C141.59 2181.19 165.5 2180.95 177.5 2178.44ZM487.29 2101.08C482.26 2100.24 479.47 2097.95 477.97 2093.42C476.36 2088.53 478.96 2083.43 483.86 2081.89C488.53 2080.42 696.43 2079.48 735.39 2080.75L762.29 2081.63L764.64 2084.37C768.54 2088.9 767.02 2097.21 761.74 2100.22C759.95 2101.24 732.32 2101.53 625.5 2101.64C551.8 2101.72 489.6 2101.46 487.29 2101.08ZM1402.5 2098.1C1381.72 2097.27 1378 2095.5 1378 2086.45C1378 2083.5 1378.78 2081.99 1381.88 2078.88L1385.76 2075L1523.04 2075L1660.31 2075L1664.15 2079.04C1667.69 2082.76 1668.57 2085.02 1668.03 2089C1667.69 2091.52 1662.81 2095.95 1659.06 2097.14C1655.09 2098.41 1431.12 2099.24 1402.5 2098.1ZM173.31 2067.57C187.79 2064.8 197.09 2057.67 203.72 2044.26C207.46 2036.68 207.5 2036.48 207.5 2024.55C207.5 2012.73 207.43 2012.38 204.09 2006.21C197.52 1994.1 185.28 1985.42 168.3 1980.84C158.84 1978.28 135.69 1977.76 124.33 1979.84L117.16 1981.15L116.51 1988.33C116.15 1992.27 116 2011.29 116.18 2030.6C116.43 2058.51 116.78 2066.03 117.87 2067.35C119.08 2068.8 122.1 2069 142.53 2069C158.6 2069 168.15 2068.56 173.31 2067.57ZM973.27 1932.97L969.14 1929.93L968.79 1722.22C968.59 1607.97 968.06 1513.72 967.61 1512.76C966.88 1511.21 915.29 1481.49 738 1380.49C559.8 1278.97 391.28 1182.43 372.8 1171.27L366.5 1167.46L365.83 1154.48C364.86 1135.78 364.36 504.74 365.31 503.26C365.75 502.57 371.15 499.04 377.3 495.41C394.03 485.54 615.29 359.26 770.5 271C804.6 251.61 864.73 217.35 904.13 194.87C964.65 160.34 976.36 154 979.64 154C982.9 154 991.21 158.39 1030.52 180.82C1142.88 244.97 1423.65 404.97 1488 441.52C1500.38 448.54 1526.61 463.47 1546.29 474.68C1567.18 486.58 1582.58 494.77 1583.29 494.35C1583.96 493.95 1592.6 486.82 1602.5 478.51C1612.4 470.19 1629.05 456.23 1639.5 447.5C1649.95 438.76 1665.25 425.94 1673.5 419C1727.87 373.31 1812.07 303.4 1829 289.9C1847.42 275.22 1849.9 273.6 1853.82 273.71C1858.54 273.85 1864 279.41 1864 284.08C1864 289.27 1867.74 285.86 1795 347.01C1725.44 405.47 1701.96 425.15 1634 481.95C1616.67 496.42 1601.04 509.54 1599.25 511.1L1596 513.94L1595.91 781.72C1595.87 929 1595.52 1075.45 1595.15 1107.16C1594.51 1161.75 1594.37 1164.93 1592.59 1166.91C1591.55 1168.05 1584.58 1172.55 1577.1 1176.89C1514.85 1213.05 1432.97 1259.88 1178.51 1404.87C994.05 1509.97 993.61 1510.23 992.68 1514C992.2 1515.92 991.58 1609.97 991.31 1723L990.82 1928.5L988.66 1930.85C986.07 1933.66 981.79 1936 979.25 1936C978.23 1936 975.54 1934.63 973.27 1932.97ZM1000.57 1478.89C1034.23 1460.12 1134.55 1403.37 1221 1354.18C1377.43 1265.18 1396.69 1254.21 1494 1198.7L1571.5 1154.5L1571.75 834.86L1572 515.22L1510.75 480.39C1477.06 461.23 1435.55 437.64 1418.5 427.95C1401.45 418.26 1364.33 397.14 1336 381.02C1287.51 353.41 1194.16 300.41 1144 272C1131.62 264.99 1105.3 250.05 1085.5 238.81C1010.04 195.95 982.62 180.65 980.58 180.26C978.66 179.89 970.25 184.37 920 212.51C907.39 219.57 821.04 268.42 794.5 283.51C768.32 298.39 650.49 365.42 566 413.5C538.77 429 496.48 453.07 472 466.99C447.52 480.92 418.73 497.35 408 503.5L388.5 514.68L388.25 834.7L388 1154.72L411.75 1168.25C643.67 1300.36 753.1 1362.64 807.5 1393.48C826.75 1404.39 852.17 1418.8 864 1425.51C890.3 1440.43 937.39 1466.97 961 1480.17C970.62 1485.55 978.98 1489.97 979.57 1489.98C980.15 1489.99 989.6 1485 1000.57 1478.89ZM948.36 1408.84C926.13 1396.56 915.71 1390.72 841.5 1348.96C694.13 1266.04 456.59 1130.88 408.3 1102.46C399.1 1097.05 397.4 1094.54 398.31 1087.73C398.96 1082.85 402.65 1079 406.66 1079C408.05 1079 414.44 1081.86 420.85 1085.36C433.38 1092.2 503.43 1131.44 534.5 1149.03C544.95 1154.95 572.4 1170.47 595.5 1183.53C618.6 1196.58 650.77 1214.81 667 1224.03C683.23 1233.25 716.08 1251.92 740 1265.51C880.21 1345.2 973.69 1399.1 976.68 1401.97C981.39 1406.51 978.15 1416.36 971.14 1418.8C968.46 1419.73 966.55 1418.9 948.36 1408.84ZM1476.53 1169.78C1473.91 1167.52 1473.64 1166.6 1472.89 1157.42C1471.97 1146.16 1471.63 550.89 1472.53 535.5C1473.49 519.22 1474.15 518 1482.02 518C1489.83 518 1492 520.55 1493.1 531.04C1494.22 541.74 1494.24 1144.16 1493.12 1156.83C1492.41 1164.83 1491.94 1166.52 1489.8 1168.66C1486.07 1172.38 1480.14 1172.89 1476.53 1169.78ZM412.5 598.05C407.43 595.98 404.67 588.5 406.87 582.81C408.11 579.58 411.63 577.47 501.5 526C727.56 396.52 927.65 283.09 969.83 260.5C986.57 251.53 990.39 250.48 994.88 253.63C996.16 254.53 997.84 256.78 998.62 258.63C999.81 261.49 999.82 262.49 998.66 265.25C997.55 267.9 994.48 270.17 981.9 277.62C949.61 296.75 760.06 405.08 619.5 484.73C460.5 574.83 417.2 599.06 415.4 598.94C414.9 598.9 413.6 598.5 412.5 598.05ZM1997.5 286.36C1981 284.5 1968.15 280.71 1954.77 273.75C1926.16 258.88 1905.42 231.61 1897.76 198.8C1895.86 190.63 1895.59 186.59 1895.59 165.5C1895.58 142.71 1895.72 141.01 1898.2 131.87C1901.61 119.35 1905.97 109.47 1912.6 99.25C1918.84 89.64 1931.64 75.94 1940.97 68.9C1949.62 62.37 1967.58 53.56 1977.35 51.06C1994.95 46.55 2016.87 46.17 2033.88 50.09C2063.23 56.86 2093.92 83.03 2107.99 113.3C2115.26 128.96 2118.4 145.28 2118.32 167C2118.17 202.82 2105.75 231.77 2079.88 256.57C2062.37 273.35 2040.4 283.45 2015.92 285.96C2005.96 286.98 2003.48 287.04 1997.5 286.36ZM2141 280.12C2139.22 279.62 2138.5 278.71 2138.5 276.99C2138.5 274.38 2138.67 274.32 2151.91 272.12C2159.33 270.89 2163.13 268 2166.18 261.24C2169.62 253.62 2170.28 232.7 2169.54 155.5C2169.16 116.45 2168.53 81.25 2168.14 77.28C2167.54 71.22 2166.96 69.57 2164.55 67.05C2161.35 63.71 2155.44 61.44 2145.93 59.91C2139 58.8 2137 57.69 2137 55.01C2137 52.57 2143.69 52.33 2193.2 52.97C2235.36 53.52 2239.11 53.92 2233.86 57.35C2232.56 58.2 2228.36 59.39 2224.52 60C2216.52 61.27 2210.33 63.77 2207.63 66.81C2204.98 69.81 2204.11 83.55 2204.05 123.76L2204 157.02L2255.75 156.76L2307.5 156.5L2307.23 120.5C2306.94 81.1 2306.2 70.98 2303.34 67.82C2300.13 64.27 2292.29 61.02 2283.76 59.7C2275.89 58.48 2275.48 58.29 2275.18 55.71C2274.88 53.08 2275.02 53 2280.18 52.83C2292.14 52.46 2360.91 53.09 2366.25 53.62C2376.06 54.6 2374.86 57.95 2364 59.92C2353.65 61.81 2348.58 63.8 2345.14 67.36L2341.93 70.67L2342.22 165.08C2342.49 257.2 2342.55 259.6 2344.5 263.5C2347.08 268.66 2352.84 271.53 2363.49 272.97C2372.62 274.2 2374.79 275.53 2372.59 278.55C2371.22 280.43 2369.49 280.51 2327.12 280.79C2302.9 280.95 2281.6 280.7 2279.79 280.23C2277.27 279.58 2276.43 278.78 2276.19 276.8C2275.9 274.31 2276.14 274.18 2282.19 273.53C2295.27 272.11 2300.18 269.45 2304.21 261.62C2306 258.15 2306.47 254.79 2307.18 240.39C2307.65 230.99 2307.91 211.86 2307.77 197.89L2307.5 172.5L2255.67 172.24L2203.84 171.98L2204.17 216.92C2204.49 260.38 2204.57 261.95 2206.55 264.68C2209.54 268.78 2216.38 271.81 2225.5 273.05C2234.73 274.31 2237.44 275.99 2234.68 278.75C2233.07 280.36 2229.33 280.51 2188.22 280.67C2163.62 280.76 2142.38 280.52 2141 280.12ZM2032.17 267.28C2056.83 255.05 2068.88 238.07 2075.24 206.6C2077.23 196.74 2077.48 192.49 2077.48 168.5C2077.48 146.52 2077.14 139.64 2075.64 131.5C2069.52 98.39 2056.6 77.7 2035.5 67.25C2027.82 63.44 2022.11 62.23 2008.5 61.53C1994.41 60.8 1987.57 62 1977.05 67.04C1966.55 72.08 1961.3 76.31 1955.55 84.38C1941.64 103.87 1935.06 128.93 1935.02 162.5C1934.99 198.61 1939.81 220.9 1952.17 241.76C1956.76 249.5 1967.66 260.8 1974.52 264.94C1985.13 271.34 1988.54 272.05 2007.08 271.76L2023.66 271.5L2032.17 267.28Z" fill="#1e2749" fill-rule="evenodd"/>
</svg>
