<?xml version="1.0" encoding="UTF-8"?>
<svg xmlns="http://www.w3.org/2000/svg" viewBox="0 0 2430 729" width="2430" height="729" shape-rendering="geometricPrecision">
<path d="M117.88 720.21C103.04 712.46 101.15 688.86 114.43 677.2C119.48 672.76 124 671.84 136.98 672.63L148.08 673.31L147.79 679.82C147.63 683.52 147.01 686.5 146.37 686.71C145.75 686.92 144.29 685.47 143.13 683.49C140.97 679.84 136.42 677.24 130.56 676.34C128.34 676 126.33 676.64 123.26 678.65C117.31 682.56 115.61 686.63 115.62 697C115.63 707.92 118.04 713.21 124.31 716.05C131.56 719.34 137.72 718.03 143.54 711.95C146.35 709.03 149 708.08 149 710C149 712 141.4 719.36 137.5 721.13C131.46 723.89 124.28 723.55 117.88 720.21ZM156 720.2C156 719.21 156.56 717.84 157.25 717.15C158.16 716.24 158.5 710.86 158.5 697.38C158.5 680.78 158.32 678.76 156.75 677.88C153.91 676.29 154.62 673.33 158.15 672.1C163.46 670.25 164.85 670.66 165.43 674.25C165.71 676.04 166.33 686.11 166.79 696.64C167.45 711.62 167.99 716.33 169.26 718.28C170.16 719.65 170.62 721.05 170.28 721.39C169.94 721.72 166.59 722 162.83 722C156.92 722 156 721.76 156 720.2ZM171.64 664.3C169.1 661.77 173.15 657.35 224.5 606.5L278.03 553.5L278.01 470.33L278 387.16L292.25 378.98C385.03 325.69 432.87 298.56 434.65 298.22C436.73 297.82 442.75 301.19 487 327.49C495.52 332.55 511.5 342 522.5 348.48C533.5 354.96 548.8 363.98 556.5 368.53C564.2 373.08 573.48 378.43 577.13 380.42L583.76 384.05L588.85 380.03C599.69 371.45 686 286.36 686 284.23C686 283.66 672.39 270.23 655.75 254.39C606.57 207.55 587 187.89 587 185.28C587 179.85 587.48 180.24 633.97 223.93C651.27 240.19 671.49 259.24 678.89 266.26L692.35 279.03L732.43 239.2C780.74 191.19 786.93 185.84 789.46 189.93C790.04 190.87 746.64 236.14 715.59 266.99C706.47 276.06 699 283.88 699 284.38C699 284.88 716.33 302.77 737.5 324.13C758.67 345.49 776 363.62 776 364.43C776 365.23 775.52 366.18 774.94 366.54C772.32 368.16 761.95 358.86 719.69 317.04C705.5 302.99 693.43 291.34 692.87 291.14C691.7 290.73 688.42 293.85 631.75 349.33L590 390.19L590 473.92L590 557.64L557.3 580.57C461.81 647.54 447.94 657 445.29 657C444.17 657 436.11 652.67 427.38 647.37C408.46 635.9 342.33 596.95 308.03 577.07C290.94 567.16 282.96 563.06 281.53 563.44C279.07 564.09 265.8 576.3 232 609C181.91 657.45 172.97 665.64 171.64 664.3ZM474.85 629.84C490.61 618.76 505.75 608.11 508.5 606.18C511.25 604.25 525.42 594.29 540 584.04C554.58 573.79 570.21 562.81 574.75 559.64L583 553.86L583 473.5L583 393.14L580.25 391.18C578.74 390.1 554.1 375.4 525.5 358.5C496.9 341.61 465.59 323.11 455.93 317.39C446.27 311.68 437.55 307 436.56 307C433.25 307 412.97 318 354.5 351.51C322.6 369.79 294.25 386.07 291.5 387.69L286.5 390.64L286.25 473.07L285.99 555.5L308.25 568.6C335.71 584.76 400.96 623.4 426.5 638.63C436.95 644.86 445.66 649.97 445.85 649.98C446.05 649.99 459.1 640.93 474.85 629.84ZM431.19 514.88C407.26 510.9 392.2 486.86 398.49 462.69C403.07 445.13 414.39 434.66 431.7 431.98C445.74 429.8 459.46 434.55 469.5 445.09C481.79 457.97 484.64 475.49 477.04 491.42C473.42 499.01 464.26 508.08 456.78 511.49C452.23 513.56 440.58 516.21 437.5 515.88C436.95 515.82 434.11 515.37 431.19 514.88ZM2110 509.47C2107.53 508.7 2103.78 506.4 2101.67 504.35C2096.09 498.92 2093.76 493.68 2093.22 485.36C2092.82 479.24 2093.11 477.44 2095.29 472.68C2098.4 465.89 2103.93 461.57 2111.55 459.99C2119.9 458.26 2125.2 459.5 2131.56 464.68C2138.47 470.31 2139.66 472.69 2140.53 482.63C2141.12 489.39 2140.93 491.34 2139.4 494.6C2136.38 500.99 2129.03 507.62 2122.94 509.42C2116.67 511.29 2115.88 511.29 2110 509.47ZM450 506.44C464.72 501.57 475.15 485.64 473.75 470.16C473.03 462.21 470.12 456.06 464.03 449.62C448.93 433.66 422.3 435 410.69 452.3C403.15 463.52 401.84 477.95 407.37 488.79C415.91 505.51 432.3 512.29 450 506.44ZM2148 507.83C2148 507.18 2148.79 505.79 2149.75 504.72C2151.28 503.03 2151.5 500.5 2151.5 484.27C2151.5 466.17 2151.45 465.71 2149.25 464.25C2145.77 461.94 2146.52 460.3 2151.41 459.57C2155.72 458.92 2166 459.76 2166 460.76C2166 461.04 2164.88 462.31 2163.5 463.59C2161.23 465.69 2161 466.65 2161 473.99L2161 482.07L2170.67 481.79C2180.29 481.5 2180.34 481.49 2181.28 478.68C2181.79 477.13 2181.9 473.39 2181.53 470.37C2180.97 465.89 2180.4 464.68 2178.42 463.78C2174.65 462.06 2175.54 460.3 2180.54 459.55C2185.8 458.76 2196 459.81 2196 461.14C2196 461.64 2194.88 462.56 2193.5 463.18L2191 464.32L2191 484.09C2191 500.69 2191.25 504.11 2192.56 505.42C2195.17 508.03 2193.25 509 2185.5 509C2177.71 509 2175.42 507.8 2178.75 505.46C2181.16 503.77 2182.16 498.27 2181.34 491.25L2180.72 486L2170.86 486L2161 486L2161 493.36C2161 499.56 2161.39 501.3 2163.5 504.4C2164.88 506.43 2166 508.29 2166 508.54C2166 508.79 2161.95 509 2157 509C2150.79 509 2148 508.64 2148 507.83ZM2124.83 501.54C2129.21 497.58 2131 492.74 2130.99 484.88C2130.99 476.96 2129.26 472.02 2125.01 467.77C2121.89 464.65 2120.54 464 2117.18 464C2114.95 464 2111.95 464.45 2110.51 465C2107.08 466.3 2104.11 473.06 2103.34 481.28C2101.63 499.59 2114.04 511.28 2124.83 501.54ZM1647.7 491.75C1645.61 488.92 1582.48 398.75 1570.16 381C1567.68 377.43 1562.61 370.18 1558.89 364.91L1552.14 355.32L1470.32 354.61C1425.32 354.22 1385.91 353.56 1382.75 353.15C1377.05 352.4 1373.92 350.75 1375.4 349.27C1376.76 347.9 1412.03 347.18 1482.18 347.09L1550.85 347L1553 344.28C1554.18 342.78 1558.28 336.14 1562.11 329.53C1565.94 322.91 1586.96 287.12 1608.81 250L1648.54 182.5L1733.52 182.26C1780.26 182.13 1819.01 182.36 1819.62 182.76C1820.66 183.44 1843.44 222.84 1889.84 304.23L1908.5 336.97L1976.09 336.98C2013.26 336.99 2051.85 336.7 2061.83 336.34L2079.98 335.68L2100.16 299.59C2130.48 245.36 2137.47 234 2140.51 234C2144 234 2142.86 236.49 2120.97 276.5C2112.84 291.35 2102.33 310.45 2097.6 318.95C2092.87 327.45 2089 335.16 2089 336.08C2089 338.13 2084.28 336.78 2139.5 350.52C2195.01 364.34 2216.9 370.01 2219.31 371.23C2221.98 372.57 2219.59 375 2215.63 374.99C2211.43 374.97 2190.52 370.28 2124.69 354.58C2107.19 350.41 2092.45 347 2091.94 347C2089.34 347 2089.31 346.92 2115.85 402.68C2126.89 425.87 2136.2 445.93 2136.53 447.25C2136.9 448.74 2136.59 450.09 2135.71 450.83C2134.57 451.77 2133.79 451.52 2131.89 449.62C2129.72 447.45 2112.93 413.5 2089.41 363.75L2080.54 345L1993.93 345L1907.31 345L1875.27 399.25C1822.31 488.9 1819.71 493.15 1817.18 494.11C1815.91 494.6 1777.87 495 1732.49 495L1650.1 495L1647.7 491.75ZM1816.77 484.25C1818.47 481.81 1865.7 401.92 1892.27 356.57L1902.18 339.63L1900.11 336.07C1898.97 334.1 1879.74 300.49 1857.37 261.36L1816.7 190.23L1781.6 189.55C1762.29 189.18 1725.38 189.01 1699.57 189.19L1652.65 189.5L1648.48 196.5C1636.44 216.73 1590.91 294.02 1582.21 309C1579.18 314.23 1575.47 320.52 1573.96 323C1567.51 333.64 1559 348.98 1559 349.97C1559 351.85 1594.26 403.42 1636.84 463.82L1653.18 487L1734.02 487L1814.86 487L1816.77 484.25ZM1096 398.15C1096 397.14 1096.9 395.5 1098 394.5C1100.63 392.12 1100.52 391.2 1097.45 389.8C1095.31 388.82 1094.95 388.07 1095.2 385.07C1095.48 381.69 1095.71 381.48 1099.46 381.18C1104.26 380.79 1106 382.65 1106 388.19C1106 391.16 1105.2 392.88 1102.38 396C1098.51 400.29 1096 401.14 1096 398.15ZM1726.12 384.87C1714.79 382.99 1701.28 372.5 1696.15 361.6C1686.14 340.3 1695.25 314.8 1716.42 304.89C1724.6 301.06 1731.39 300.37 1741 302.4C1762.33 306.9 1774.63 320.19 1775.76 339.94C1776.57 354.21 1772.67 364.3 1762.65 373.77C1756.33 379.75 1751.24 382.5 1742.78 384.49C1735.82 386.13 1733.95 386.17 1726.12 384.87ZM1748.5 375.09C1761.09 369.25 1768.06 358.74 1768.79 344.5C1769.34 333.62 1766.73 326.59 1759.38 319.25C1751.65 311.52 1745.64 309.02 1734.73 309.01C1727.68 309 1724.76 309.49 1719.84 311.49C1710.67 315.21 1707.57 318.07 1703.3 326.71C1699.74 333.9 1699.5 334.98 1699.51 343.45C1699.51 354.36 1701.45 359.36 1708.66 367.07C1719.52 378.67 1734.33 381.65 1748.5 375.09ZM1294.75 372.62C1284.64 368.89 1279 360.26 1279.01 348.55C1279.01 339.24 1280.24 335.25 1284.69 330.05C1289.93 323.92 1292.85 323 1306.97 323L1319 323L1319 329.94C1319 333.76 1318.55 337.16 1318 337.5C1317.45 337.84 1316.08 336.55 1314.95 334.64C1312.62 330.7 1310.12 328.84 1304.81 327.09C1300.49 325.68 1297.33 326.9 1292.7 331.76C1287.4 337.34 1286.75 354.39 1291.56 361.73C1293.93 365.35 1299.02 367.99 1303.64 368C1307.06 368 1308.71 367.23 1313.24 363.5C1321.77 356.48 1324.03 357.7 1316.63 365.32C1309.33 372.82 1301.97 375.28 1294.75 372.62ZM1153.52 371.04C1153.2 370.51 1153.83 369.17 1154.94 368.06C1157.94 365.06 1158.5 361.79 1158.47 347.5C1158.44 333.46 1157.15 327.5 1153.94 326.48C1152.87 326.14 1152 325.28 1152 324.56C1152 321.11 1178.68 322.09 1185.88 325.81C1189.99 327.93 1194 333.22 1194 336.51C1194 337.73 1192.88 340.38 1191.5 342.4C1188.46 346.88 1188.45 347.2 1191.14 349.6C1194.53 352.62 1196 357.08 1195.03 361.39C1193.15 369.69 1187.14 372 1167.38 372C1159.95 372 1153.86 371.58 1153.52 371.04ZM1322 371.11C1322 370.63 1322.67 368.94 1323.49 367.36C1324.65 365.14 1324.99 360.54 1324.99 346.79C1325 330.09 1324.88 329.01 1323 328C1321.9 327.41 1321 326.31 1321 325.55C1321 323.77 1329.75 320.35 1331.03 321.63C1331.54 322.14 1332.36 332.33 1332.85 344.26C1333.55 361.2 1334.09 366.49 1335.32 368.37C1336.19 369.69 1336.62 371.05 1336.28 371.39C1335.31 372.35 1322 372.1 1322 371.11ZM1179.45 366.58C1183.3 364.98 1185 362.43 1185 358.26C1185 353.05 1181.63 350.97 1170.75 349.44L1166 348.77L1166 356.45C1166 366.31 1166.89 368 1172.07 368C1174.27 368 1177.59 367.36 1179.45 366.58ZM1222.51 355.12C1220.87 354.77 1219.38 353.75 1219.21 352.84C1218.79 350.69 1225.21 350.2 1241.69 351.14C1263.68 352.39 1261.33 356.08 1238.68 355.88C1231.43 355.82 1224.16 355.48 1222.51 355.12ZM1179.47 341.9C1182.15 339.54 1183 338.01 1183 335.55C1183 330.65 1180.13 328.67 1172.3 328.17L1165.71 327.75L1166.22 334.86C1166.5 338.77 1167.3 342.65 1167.99 343.49C1170.15 346.09 1175.54 345.34 1179.47 341.9ZM1220.75 343.31C1217.81 342.54 1218.79 340.13 1222.3 339.47C1226.66 338.65 1256.63 339.29 1257.56 340.23C1257.96 340.63 1257.72 341.64 1257.02 342.48C1255.97 343.74 1252.9 343.98 1239.13 343.88C1229.98 343.82 1221.71 343.56 1220.75 343.31ZM11.25 336.97C8.46 335.85 8.36 334.34 11.02 333.49C13.3 332.77 14.97 329.76 20.99 315.5C29.59 295.13 33.27 287.9 34.88 288.22C35.76 288.38 38.45 293.04 41.13 299.01C52.01 323.31 56.45 332.2 58.38 333.55C61.31 335.6 59.4 337 52.73 337.69C43.44 338.65 39.98 336.89 43.51 332.99C44.8 331.56 44.83 330.8 43.66 327.42C42.05 322.73 39.17 321.03 32.82 321.01C25.82 320.99 23.58 322.2 22.05 326.86C20.86 330.45 20.91 331.21 22.46 333.58C23.9 335.78 23.97 336.4 22.86 337.11C21.11 338.22 14.15 338.13 11.25 336.97ZM84.17 319.94C82.88 319.42 82.02 318.44 82.25 317.75C83.05 315.33 117.31 315.97 119.79 318.46C120.15 318.82 119.78 319.53 118.97 320.04C117.06 321.25 87.22 321.16 84.17 319.94ZM38.43 316.11C39.16 314.93 34.14 304 32.87 304C31.92 304 27 314.08 27 316.03C27 317.25 37.68 317.32 38.43 316.11ZM86.82 309.35C83.9 308.84 81.29 306.38 82.44 305.23C82.84 304.83 91.43 304.5 101.53 304.5C120.33 304.5 123.91 305.17 120.45 308.04C119.26 309.03 114.78 309.46 104.16 309.61C96.1 309.72 88.3 309.61 86.82 309.35ZM2171.5 227.97C2163.6 226.29 2156.99 220.49 2154.06 212.68C2150.94 204.38 2154.15 189.14 2160.25 183.26C2165.01 178.66 2167.76 178 2182.07 178L2195 178L2195 184.94C2195 188.76 2194.57 192.15 2194.04 192.48C2193.51 192.81 2191.9 191.22 2190.48 188.96C2187.73 184.62 2181.65 181.06 2176.9 181.02C2173.28 180.99 2166.13 186.44 2164.42 190.53C2163.58 192.54 2163 197.31 2163 202.15C2163 212.9 2165.43 218.38 2171.39 221.09C2178.84 224.47 2184.56 223.27 2190.44 217.09C2192.97 214.42 2197 212.87 2197 214.56C2197 215.95 2190.28 223.28 2187.34 225.1C2183.52 227.46 2175.75 228.87 2171.5 227.97ZM819.75 202.63C813.94 200.47 809.72 196.74 806.47 190.87C803.79 186.03 803.5 184.61 803.5 176.5C803.5 168.37 803.77 167.09 806.26 163.26C810.77 156.32 815.93 153.56 825.21 153.14C835.02 152.7 837.43 153.67 844.28 160.85C849.59 166.42 849.69 166.64 850.36 174.03C851.24 183.78 850.58 186.7 846.13 192.58C839.21 201.75 828.42 205.86 819.75 202.63ZM863.75 202.29C857.65 201.88 856.84 200.94 859.75 197.72C861.28 196.03 861.5 193.51 861.5 177.38L861.5 158.97L858.5 156.58C856.85 155.26 855.79 153.88 856.15 153.52C856.51 153.15 860.96 152.86 866.03 152.86C875.73 152.86 879.37 154.15 874.69 155.93C871.47 157.15 870.81 159.52 871.2 168.52L871.5 175.5L880.6 175.79C891.99 176.14 892.22 175.92 891.35 165.56C890.76 158.67 890.44 157.74 888.35 156.94C887.06 156.45 886 155.43 886 154.66C886 151.94 904.71 151.78 905.29 154.5C905.4 155.05 904.52 155.93 903.33 156.45C901.39 157.31 901.09 158.45 900.47 167.61C900.09 173.23 900.05 182.25 900.4 187.66C900.92 195.95 901.34 197.74 903.05 199.04C906.1 201.34 904.49 202 895.89 202C887.57 202 885.65 200.97 888.85 198.22C890.44 196.85 890.97 194.81 891.42 188.25L891.99 180L881.5 180L871 180L871 187.42C871 193.98 871.31 195.21 873.62 197.97C875.07 199.68 876.05 201.29 875.8 201.53C874.98 202.35 869.57 202.69 863.75 202.29ZM834.13 195.87C837.94 193.21 840.35 187.44 840.81 179.83C841.6 166.85 835.61 157 826.92 157C818.22 157 814.22 162.3 813.25 175.12C811.93 192.55 823.05 203.61 834.13 195.87ZM2125.5 191.14C2115.64 185.75 2063.35 154.04 2052.29 146.74C2047.23 143.4 2042.84 140.03 2042.54 139.25C2041.81 137.34 2042.74 136 2044.81 136C2047.04 136 2131.34 186.06 2134.85 189.46C2135.89 190.47 2135.94 191.25 2135.06 192.88C2134.44 194.05 2133.61 194.99 2133.21 194.99C2132.82 194.98 2129.35 193.25 2125.5 191.14ZM2212 192.48C2212 190.29 2214.12 188.54 2226.75 180.28C2242.91 169.72 2287.42 142.85 2295.72 138.64C2301.36 135.78 2303.51 135.4 2304.55 137.07C2305.74 139 2301 142.74 2284.62 152.8C2264.83 164.96 2223.69 189.11 2216.95 192.52L2212 195.03L2212 192.48ZM2175.4 161.9C2174.91 161.13 2174.36 139.24 2174.18 113.25C2173.87 66.86 2173.9 66 2175.82 66C2176.9 66 2178.09 66.78 2178.45 67.74C2178.82 68.7 2179.38 82.76 2179.7 98.99C2180.59 144.08 2178.99 167.48 2175.4 161.9ZM511.5 159.61C506.56 157.45 502.06 153.05 499.25 147.62C493.65 136.81 497 121.34 506.27 115.2C510.14 112.63 511.05 112.48 524.67 112.18L539 111.85L539 118.37C539 121.95 538.57 125.15 538.05 125.47C537.52 125.79 535.26 124.07 533.02 121.64C525.37 113.34 518.73 113.01 511.19 120.55L506.82 124.92L507.16 135.41C507.5 145.8 507.53 145.93 510.91 149.41C518.45 157.19 524.6 157.63 532.66 150.97C539.91 144.98 542.37 145.67 537 152.18C530.95 159.53 519.17 162.96 511.5 159.61ZM548.75 159.31C546.43 158.7 546.54 157.12 549.09 154.41C551.74 151.58 552.64 140.34 551.21 127.7C550.17 118.48 548.61 115.38 544.72 114.81C541.18 114.28 541.63 112.16 545.44 111.45C550.42 110.51 555.84 111.73 558.36 114.36C559.54 115.59 565.64 122.51 571.91 129.75C578.19 136.99 583.77 142.64 584.3 142.31C585.52 141.56 584.31 119.45 582.91 116.84C582.37 115.83 581.27 115 580.46 115C578.14 115 578.77 112.3 581.25 111.63C586.08 110.34 594 111.32 594 113.21C594 113.75 593.12 114.42 592.05 114.7C589.54 115.35 589.09 118.47 588.2 141.42C587.79 151.89 587.08 159.46 586.5 159.62C585.95 159.78 583.7 157.57 581.5 154.72C573.48 144.31 558.77 128 557.4 128C556.28 128 556 130.36 556 139.92C556 151.27 556.12 151.99 558.57 154.9C559.99 156.58 560.86 158.42 560.51 158.98C559.89 159.98 552.16 160.2 548.75 159.31ZM2402.25 134.38C2399.96 133.38 2400.96 130.96 2403.9 130.37C2406.26 129.9 2407.48 128.5 2410.4 122.92C2414.46 115.18 2414.69 113.83 2412.36 111.5C2410.8 109.94 2408.86 109.97 2404.59 111.6C2402.46 112.42 2402.44 108.7 2404.57 106.57C2406.61 104.54 2412.92 104.55 2415.84 106.6C2420.99 110.21 2420.27 116.17 2413.61 124.94C2412.18 126.84 2411 128.75 2411 129.19C2411 129.64 2413.03 130 2415.5 130C2420.14 130 2421.32 131.23 2418.25 132.86C2416.12 134 2403.99 135.15 2402.25 134.38ZM2024.17 131.44C2021.79 130.74 2018.97 129.38 2017.91 128.42C2013.38 124.32 2013.07 111.17 2017.35 104.8C2019.75 101.24 2025.06 98.13 2028.86 98.05C2035.13 97.92 2043.87 106.8 2041.38 110.76C2040.55 112.1 2038.08 112.7 2030.65 113.37C2019.87 114.35 2019.3 114.9 2023.23 120.63C2027.37 126.68 2032.59 127.56 2037.15 123C2043.03 117.12 2044.06 120.9 2038.25 127.06C2033.59 132 2029.93 133.14 2024.17 131.44ZM1953 129.7C1953 128.99 1953.56 127.84 1954.25 127.15C1955.16 126.24 1955.49 121.02 1955.46 107.9L1955.41 89.9L1952.46 87.54C1950.83 86.24 1949.85 84.82 1950.29 84.38C1951.78 82.88 1963.5 82.68 1964.6 84.15C1965.16 84.89 1968.94 92.6 1973 101.27C1977.06 109.94 1980.81 116.9 1981.33 116.72C1981.85 116.55 1985.33 109.76 1989.07 101.64C1992.81 93.52 1996.39 86.24 1997.03 85.46C1998.59 83.59 2004.15 82.62 2008.57 83.45C2011.54 84 2011.94 84.36 2010.95 85.56C2010.29 86.35 2009.19 87 2008.49 87C2006.43 87 2006.03 90.6 2006.01 109.13C2006 123.53 2006.27 126.98 2007.49 127.99C2010.05 130.12 2008.13 131 2000.94 131C1993.98 131 1992.93 130.47 1995.25 128.15C1996.72 126.69 1997.73 101 1996.32 101C1995.83 101 1992.69 106.74 1989.34 113.75C1982.56 127.92 1980.06 131.62 1977.82 130.76C1976.99 130.44 1973.25 123.39 1969.51 115.09C1965.76 106.79 1962.27 100 1961.75 100C1961.18 100 1960.94 105.45 1961.15 113.58C1961.45 125.06 1961.77 127.36 1963.23 128.43C1965.76 130.27 1964.37 131 1958.33 131C1954.62 131 1953 130.6 1953 129.7ZM2332.9 121.25C2323.03 108.63 2309.73 93 2308.86 93C2308.39 93 2308 98.82 2308 105.92C2308 118.43 2308.08 118.95 2310.64 121.98C2312.51 124.2 2312.97 125.43 2312.21 126.19C2311.08 127.32 2299.56 126.9 2298.34 125.68C2297.96 125.29 2298.96 123.6 2300.57 121.92L2303.5 118.87L2303.5 103.14C2303.5 85.65 2302.67 82.83 2296.93 80.82C2295.32 80.26 2294 79.17 2294 78.4C2294 76.42 2305.8 76.47 2308.64 78.46C2309.78 79.26 2316.01 86.46 2322.47 94.45C2328.94 102.44 2334.63 108.73 2335.11 108.43C2336.18 107.77 2336.29 83.97 2335.23 82.4C2334.83 81.79 2333.49 80.77 2332.25 80.11C2328.14 77.95 2329.88 77 2337.94 77C2346.06 77 2349.02 78.28 2344.7 79.93C2343.36 80.43 2341.98 81.61 2341.62 82.55C2341.26 83.48 2340.68 93.89 2340.32 105.66C2339.97 117.44 2339.34 127.29 2338.93 127.54C2338.52 127.8 2335.81 124.97 2332.9 121.25ZM2353.75 126.31C2351.53 125.73 2351.56 125.38 2354 122.27C2355.83 119.94 2356 118.22 2356 101.44L2356 83.15L2353.5 81.18C2349.12 77.74 2350.33 77 2360.33 77C2365.47 77 2369.98 77.31 2370.36 77.69C2370.74 78.07 2369.85 79.34 2368.39 80.51C2365.91 82.49 2365.72 83.19 2365.61 91.06L2365.5 99.5L2374.35 99.79C2380.01 99.98 2383.7 99.66 2384.6 98.92C2385.57 98.11 2386 95.48 2386 90.33C2386 83.13 2385.91 82.86 2383.01 81.2C2377.45 78.04 2379.16 77 2389.94 77C2400.07 77 2403.1 78.09 2398.64 80.12C2397.28 80.74 2395.91 82.2 2395.6 83.37C2395.28 84.54 2395.02 93.28 2395.01 102.8C2395 119.71 2395.05 120.14 2397.39 122.48C2398.71 123.8 2399.54 125.13 2399.23 125.44C2398.32 126.35 2382.17 126.08 2381.59 125.15C2381.3 124.68 2382.17 123.25 2383.53 121.97C2385.75 119.89 2386 118.85 2386 111.83L2386 104L2375.37 104L2364.74 104L2365.22 111.54C2365.64 118.06 2366.08 119.47 2368.46 121.96C2369.98 123.54 2370.92 125.32 2370.55 125.92C2369.9 126.97 2357.4 127.26 2353.75 126.31ZM2031.67 107.86C2034.73 105.32 2028.39 102.76 2023.58 104.61C2021.7 105.33 2021.47 108.6 2023.25 109.37C2024.99 110.13 2030.03 109.22 2031.67 107.86ZM2208.98 58.15C2203.81 55.39 2201.04 49.85 2201.02 42.22C2200.99 31.91 2204.92 25.86 2212.59 24.42C2217.45 23.5 2220.84 24.64 2224.66 28.46C2228.12 31.92 2229.03 35.94 2226.75 37.75C2226.06 38.29 2221.54 38.98 2216.69 39.26C2211.84 39.55 2207.6 40.06 2207.26 40.41C2206.04 41.62 2210.03 48.05 2213.24 50.03C2217.11 52.42 2220.37 51.94 2224.05 48.43C2227.2 45.44 2228 45.38 2228 48.16C2228 52.84 2219.73 60 2214.33 60C2213.31 60 2210.9 59.17 2208.98 58.15ZM2138.46 57.94C2138.1 57.35 2138.64 55.96 2139.65 54.83C2141.25 53.07 2141.55 50.65 2141.84 36.78C2142.23 18.19 2141.75 14.37 2138.91 13.47C2137.73 13.1 2137.02 12.14 2137.2 11.16C2137.45 9.85 2138.91 9.44 2144.19 9.21L2150.85 8.91L2155.67 19.21C2158.32 24.87 2162.13 32.88 2164.14 37L2167.79 44.5L2170.13 39C2175.03 27.5 2182.01 13.41 2183.89 11.25C2185.48 9.42 2186.89 9 2191.37 9C2197.9 9 2199.01 10.09 2195.26 12.83L2192.5 14.84L2192.15 31.72C2191.87 45.28 2192.11 49.33 2193.35 52.3C2194.2 54.34 2195.43 56 2196.07 56C2196.94 56 2196.92 56.39 2196 57.5C2194.55 59.25 2180.53 59.67 2179.49 57.99C2179.15 57.44 2179.8 55.8 2180.94 54.36C2182.77 52.02 2183 50.35 2183 39.37C2183 32.56 2182.66 27 2182.25 27.01C2181.84 27.01 2178.85 32.88 2175.61 40.05C2170.01 52.44 2166.76 58 2165.11 58C2164.34 58 2157.6 44.57 2152.44 32.78C2150.82 29.08 2149.16 26.04 2148.75 26.03C2148.34 26.01 2148 31.79 2148 38.87C2148 50.35 2148.22 52.01 2150.06 54.36C2151.2 55.8 2151.85 57.44 2151.51 57.99C2150.67 59.34 2139.3 59.29 2138.46 57.94ZM2218.5 32.5C2218.5 30.9 2217.73 30.44 2214.68 30.19C2210.68 29.86 2208 31.26 2208 33.67C2208 34.77 2209.22 35.03 2213.25 34.8C2217.73 34.54 2218.5 34.21 2218.5 32.5Z" fill="#1e2749" fill-rule="evenodd"/>
</svg>
