<?xml version="1.0" encoding="UTF-8"?>
<svg xmlns="http://www.w3.org/2000/svg" viewBox="0 0 558 264" width="558" height="264" shape-rendering="geometricPrecision">
<path d="M55.33 231.83L55.33 230.33L192.45 230.33C324.86 230.33 329.58 230.31 330.12 229.72C330.62 229.17 330.67 227.21 330.67 208.43C330.67 192.29 330.58 187.67 330.25 187.41C330.02 187.22 328.93 186.97 327.83 186.85C320.19 186.02 312.05 182.03 307.31 176.78C304.13 173.26 301.49 168.82 299.97 164.43C299.12 161.99 298.34 156.87 298.34 153.83C298.35 150.25 299.64 143.36 300.69 141.34C300.83 141.06 301.51 139.71 302.19 138.33C306.63 129.38 315.33 123.25 326.08 121.48C327.96 121.17 329.69 120.76 329.93 120.57C330.27 120.3 330.33 114.93 330.22 93.2C330.15 78.33 329.97 65.59 329.84 64.88L329.59 63.59L397.04 63.66C443.61 63.71 464.91 63.63 465.83 63.38C466.57 63.19 469.31 61.97 471.93 60.68C476.73 58.31 478.19 57.91 478.55 58.85C478.84 59.59 477.95 60.41 475.67 61.5C474.56 62.03 473.71 62.62 473.77 62.81C473.85 63.06 482.65 63.19 502.13 63.25L530.37 63.34L530.27 64.75L530.17 66.17L501.56 66.25C481.12 66.31 472.98 66.44 473.07 66.7C473.13 66.9 474.38 67.69 475.84 68.45C478.6 69.89 479.15 70.69 477.91 71.46C477.43 71.77 476.31 71.32 471.75 69L466.17 66.17L451.69 66.17L437.21 66.17L437.3 94.71C437.36 114.94 437.28 123.32 437.03 123.48C436.82 123.61 436.67 124.81 436.67 126.34L436.67 128.98L438.08 129.61C438.86 129.96 441.12 130.89 443.11 131.68C445.95 132.81 446.91 133.36 447.59 134.25C448.24 135.11 448.38 135.52 448.12 135.93C447.93 136.23 444.62 137.51 440.52 138.88C436.52 140.22 433.16 141.39 433.07 141.49C432.65 141.9 433.87 142.3 441.19 144.15C442.12 144.39 443.21 144.75 443.61 144.97C444.41 145.4 444.56 146.39 443.9 146.94C443.67 147.14 440.48 148.3 436.82 149.52C429.78 151.87 429 152.18 429 152.65C429 152.8 430.54 153.41 432.42 153.98C434.3 154.56 436.43 155.23 437.17 155.47C438.24 155.82 441.88 156.92 443.87 157.5C444.43 157.66 444.62 159.21 444.2 160.07C443.81 160.87 442.42 161.38 434.53 163.63C432.53 164.2 430.8 164.75 430.69 164.86C430.44 165.12 431.66 166 432.29 166C432.56 166 433.73 166.52 434.9 167.17C436.07 167.81 437.32 168.33 437.68 168.33C438.3 168.33 438.33 168.58 438.33 172.65C438.33 176.25 438.25 177.02 437.8 177.26C437.33 177.53 437.28 179.24 437.37 193.86C437.42 202.83 437.43 214.49 437.38 219.77C437.31 226.84 437.39 229.5 437.68 229.85C438.03 230.27 443.89 230.33 479.73 230.33L521.37 230.33L521.27 231.75L521.17 233.17L288.25 233.25L55.33 233.33L55.33 231.83ZM434.61 229.9C435.05 229.37 435.21 170.06 434.78 169.67C434.62 169.53 433.75 169.14 432.83 168.81C431.92 168.47 430.79 168 430.33 167.76C429.88 167.53 429.3 167.34 429.07 167.34C428.39 167.33 426.34 164.91 426.33 164.11C426.33 163.54 426.62 163.32 427.75 163.04C428.53 162.85 429.92 162.48 430.83 162.21C431.75 161.94 433.4 161.47 434.5 161.16C435.6 160.85 437.1 160.42 437.83 160.21C440.18 159.54 440.66 158.9 439.08 158.52C437.99 158.25 430.4 155.9 427.33 154.87C425.18 154.15 425.17 154.14 425.07 152.79C425.01 151.96 425.14 151.3 425.41 151.07C425.66 150.87 428.51 149.81 431.74 148.72C434.98 147.62 437.79 146.63 437.98 146.51C438.7 146.07 438.27 145.8 435.92 145.22C434.59 144.9 432.9 144.43 432.17 144.18C431.43 143.93 430.41 143.64 429.9 143.52C429.02 143.32 428.97 143.22 429.07 141.77L429.17 140.24L436.3 137.81C442.74 135.61 444.41 134.9 443.98 134.56C443.9 134.5 441.96 133.72 439.67 132.84C437.38 131.95 435.24 131 434.92 130.72C434.42 130.3 434.33 129.62 434.33 125.97C434.33 123.49 434.47 121.62 434.67 121.5C434.88 121.37 435 111.84 435 94.02C435 69.06 434.95 66.71 434.45 66.29C433.99 65.91 425.71 65.83 383.37 65.83L332.83 65.83L332.75 93.38L332.66 120.92L335.33 121.31C342.94 122.43 348.7 125.13 353.79 129.99C357.7 133.73 359.68 136.53 361.79 141.33C363.35 144.88 364.34 149.87 364.33 154.14C364.29 168.72 353.64 182.35 339.44 185.97C337.95 186.35 336.19 186.67 335.55 186.67C334.9 186.67 333.97 186.82 333.47 187.01L332.56 187.36L332.76 208.37C332.91 223.8 333.06 229.51 333.35 229.86C333.92 230.54 434.05 230.58 434.61 229.9ZM214.19 228.36C214.08 228.2 213.9 216.33 213.78 202C213.57 177.21 213.53 175.92 212.94 175.55C212.42 175.23 212.33 174.72 212.33 172.06C212.33 169.05 212.01 167.67 211.3 167.67C211.12 167.67 210.26 167.35 209.4 166.95C208.54 166.56 207.23 165.97 206.5 165.65C204.94 164.96 203.33 163.52 203.33 162.81C203.33 162.06 205.59 161.22 213.17 159.16C217.92 157.87 218.05 157.61 214.45 156.51C212.83 156.02 210.9 155.41 210.17 155.17C209.43 154.92 207.43 154.3 205.71 153.79C202.33 152.78 201.83 152.29 202.21 150.37C202.39 149.45 202.67 149.31 207.57 147.68C213.34 145.74 215.85 144.74 215.58 144.47C215.48 144.37 214.37 144.01 213.11 143.67C205.7 141.68 206 141.84 206 139.86L206 138.48L208.75 137.59C215.07 135.55 220.79 133.46 220.9 133.15C220.96 132.96 219.04 132 216.64 131C214.25 130.01 212.14 128.93 211.97 128.62C211.6 127.91 211.56 120.26 211.94 119.82C212.08 119.64 212.12 107.5 212.02 92.83L211.83 66.17L180.58 66.17L149.33 66.17L143.86 68.96C138.43 71.75 137.56 71.98 137.1 70.79C136.83 70.07 137.88 69.19 140.58 67.92C141.73 67.38 142.67 66.8 142.67 66.64C142.67 66.46 126.67 66.33 103.5 66.33L64.33 66.33L64.33 64.83L64.33 63.34L103.06 63.25C130.58 63.19 141.81 63.06 141.9 62.8C141.97 62.6 141.04 62.02 139.83 61.51C137.61 60.57 136.84 59.8 137.2 58.86C137.56 57.94 138.72 58.28 143.49 60.68C146.05 61.97 148.75 63.21 149.49 63.42C150.47 63.71 159.37 63.84 182.21 63.91C206.69 63.99 213.66 64.1 213.92 64.42C214.12 64.68 214.32 75.52 214.44 93.17C214.61 117.67 214.57 121.59 214.15 122.15C213.86 122.54 213.67 123.55 213.67 124.67C213.67 126.2 213.81 126.68 214.44 127.28C214.86 127.67 215.33 128 215.47 128C215.61 128 216.21 128.21 216.78 128.48C217.36 128.74 219.18 129.5 220.83 130.17C222.48 130.84 224.17 131.7 224.58 132.09C225.4 132.85 225.58 134.14 224.92 134.56C224.69 134.71 221.36 135.88 217.53 137.17C213.69 138.45 210.49 139.69 210.42 139.91C210.26 140.38 210.99 140.71 213.83 141.46C221.16 143.38 222.15 143.88 221.22 145.15C220.97 145.49 217.79 146.75 213.65 148.14C208.91 149.74 206.5 150.71 206.5 151.02C206.5 151.3 207.42 151.78 208.83 152.23C210.12 152.64 213.34 153.67 215.99 154.51C218.64 155.35 221.01 156.2 221.24 156.4C222.23 157.22 221.32 159.67 220.02 159.67C219.78 159.67 218.89 159.89 218.04 160.17C215.83 160.89 210 162.58 208.92 162.81C207.41 163.14 207.87 163.78 210.33 164.79C211.62 165.32 212.67 165.95 212.67 166.19C212.67 166.73 213.7 167.33 214.61 167.33C215.2 167.33 215.28 167.65 215.46 170.92C215.57 172.89 215.75 186.46 215.87 201.08C216.09 228.56 216.09 228.67 214.81 228.67C214.57 228.67 214.29 228.53 214.19 228.36ZM334.52 184.49C345.18 182.91 353.88 176.84 358.46 167.8C363.69 157.5 363.11 146.95 356.77 137.04C353.69 132.23 347.63 127.4 342.19 125.44C337.98 123.92 335.87 123.56 331 123.56C326.58 123.56 325.87 123.65 322.67 124.59C317.04 126.24 313.71 128.21 309.64 132.3C300.33 141.64 298.03 155.43 303.78 167.33C308.34 176.78 316.64 182.8 327.33 184.45C329.07 184.72 330.63 184.95 330.79 184.97C330.95 184.99 332.63 184.77 334.52 184.49ZM328.88 167.9C327.48 165.08 326.33 162.52 326.33 162.22C326.33 161.78 326.67 161.67 327.99 161.67C329.3 161.67 329.72 161.53 330 161C330.23 160.56 330.34 156.12 330.32 147.84C330.3 140.97 330.38 135.19 330.5 135C330.8 134.51 331.54 134.59 332.14 135.19C332.6 135.65 332.67 137.31 332.67 148.35C332.67 162.66 332.46 161.67 335.46 161.67C336.28 161.67 337.03 161.78 337.11 161.92C337.2 162.05 336.38 164.04 335.3 166.33C332.59 172.06 332.22 172.76 331.8 172.9C331.59 172.97 330.28 170.72 328.88 167.9ZM469.28 151.37C467.46 150.7 466.73 147.58 468.04 146.02C469.26 144.54 472.33 145.28 472.33 147.05C472.33 147.86 471.95 147.83 471.22 146.97C470.88 146.57 470.41 146.36 470.12 146.47C469.84 146.58 469.41 146.67 469.16 146.67C468.55 146.67 468.24 147.8 468.5 149.01C468.69 149.87 468.87 150 469.85 150C470.64 150 471.08 149.8 471.33 149.33C471.78 148.5 472.33 148.47 472.33 149.28C472.33 149.91 471.21 151.11 470.33 151.4C470.06 151.5 469.58 151.48 469.28 151.37ZM369.31 149.92C369.3 149.69 369.31 146.37 369.33 142.54C369.38 135.37 369.56 134.33 370.75 134.33C371.38 134.33 371.54 134.84 371 135.17C370.45 135.51 370.58 143.53 371.16 144.65C371.61 145.53 371.74 145.58 372.9 145.32C374.45 144.97 375 144.25 375 142.57C375 141.05 373.99 139.43 372.94 139.27C371.83 139.11 371.88 138.52 373.04 138.09C374.07 137.7 374.09 137.66 373.9 136.01C373.72 134.51 373.76 134.33 374.34 134.33C375.67 134.33 376.21 137.08 375.02 137.82C374.39 138.21 374.64 138.99 375.72 139.95C376.63 140.77 376.78 141.12 376.78 142.51C376.78 143.97 376.65 144.23 375.47 145.26C374.38 146.21 373.97 146.37 373 146.23C372.36 146.14 371.57 145.96 371.25 145.83C370.73 145.62 370.67 145.82 370.67 147.56C370.67 149.36 370.29 150.33 369.6 150.33C369.45 150.33 369.32 150.15 369.31 149.92ZM461.22 149.11C461.1 148.99 461 146.96 461 144.61C461 140.58 461.04 140.33 461.65 140.33C462.56 140.33 463.13 141.47 462.66 142.34C462.46 142.72 462.33 144.27 462.36 145.8C462.39 147.33 462.32 148.75 462.19 148.96C461.93 149.38 461.55 149.44 461.22 149.11ZM175.53 147.65C174.51 146.75 174.33 146.39 174.33 145.17C174.33 144.02 174.46 143.71 175 143.57C175.37 143.47 175.67 143.17 175.67 142.89C175.67 142.25 176.68 141.91 177.77 142.18C178.76 142.43 179.99 144.48 179.46 145C179.27 145.19 178.33 145.44 177.38 145.56C176.02 145.72 175.66 145.88 175.74 146.3C175.8 146.64 176.25 146.87 177 146.93C178.87 147.08 179.21 147.27 178.64 147.81C177.62 148.78 176.77 148.74 175.53 147.65ZM386.67 148.39C386.07 148.19 386.32 147.42 387.17 146.86C387.87 146.4 388 146.06 388 144.65C388 143.2 387.89 142.94 387.17 142.61C386.09 142.12 386.1 141.4 387.19 140.99C388.93 140.33 389 140.44 389 143.63C389 146.32 389.07 146.63 389.75 147.09C390.32 147.48 390.41 147.7 390.12 148C389.76 148.37 387.41 148.64 386.67 148.39ZM379.55 146.39C378.79 146.24 378.86 145.43 379.67 145C380.28 144.67 380.33 144.3 380.33 140.18C380.33 136 380.29 135.7 379.67 135.5C379.04 135.3 378.71 134.37 379.25 134.3C380.94 134.11 382.69 134.15 383.05 134.38C383.41 134.62 383.35 134.81 382.75 135.31C382.04 135.9 382 136.19 382 140.26C382 144.37 382.04 144.61 382.75 145.09C383.32 145.48 383.41 145.7 383.12 146C382.75 146.39 380.69 146.61 379.55 146.39ZM168.22 146.11C168.1 145.99 168 143.96 168 141.61C168 137.58 168.04 137.33 168.65 137.33C169.5 137.33 170.14 138.48 169.72 139.23C169.55 139.54 169.48 140.94 169.58 142.34C169.78 145.31 169.16 147.05 168.22 146.11ZM177.92 143.75C178.01 143.47 177.67 143.33 176.86 143.33C175.62 143.33 175.23 143.83 176.25 144.11C177.14 144.34 177.76 144.21 177.92 143.75ZM464.58 141.41C463.86 141.25 463.82 140.47 464.53 140.2C465.24 139.93 466.72 140.33 466.58 140.76C466.43 141.21 465.32 141.58 464.58 141.41ZM171.58 138.41C170.86 138.25 170.82 137.47 171.53 137.2C172.24 136.93 173.72 137.33 173.58 137.76C173.43 138.21 172.32 138.58 171.58 138.41ZM480.92 48.44C480.55 48.34 480.33 47.96 480.33 47.43C480.33 46.66 480.43 46.6 481.38 46.79C481.95 46.91 482.89 47 483.46 47.01C484.03 47.01 484.72 47.16 485 47.34C486.24 48.18 483.11 49.01 480.92 48.44ZM473.68 46.39C473.1 46.2 473.29 45.38 474 45C474.62 44.67 474.67 44.3 474.67 40.18C474.67 35.96 474.63 35.7 473.98 35.49C473.58 35.37 473.34 35.05 473.4 34.72C473.51 34.19 474.27 34.11 477.42 34.3C478.28 34.35 478.12 34.97 477.16 35.34L476.31 35.66L476.41 40.25C476.5 44.64 476.53 44.85 477.25 45.16C477.66 45.34 477.95 45.64 477.89 45.83C477.78 46.16 474.35 46.62 473.68 46.39ZM150.75 45.42C150.07 45.19 150.27 44.45 151.17 43.86C151.87 43.4 152 43.06 152 41.65C152 40.2 151.89 39.94 151.17 39.61C150.09 39.12 150.1 38.4 151.19 37.99C152.93 37.33 153 37.44 153 40.63C153 43.32 153.07 43.63 153.75 44.09C154.31 44.47 154.4 44.7 154.13 44.99C153.75 45.39 151.5 45.67 150.75 45.42ZM144.25 43.42C142.54 43.29 142.13 42.65 143.33 42C143.95 41.67 144 41.3 144 37.18C144 33 143.96 32.7 143.33 32.5C142.56 32.25 142.43 31.35 143.17 31.29C146.05 31.05 147.33 31.18 147.33 31.71C147.33 31.88 146.96 32.19 146.5 32.39C145.67 32.77 145.67 32.79 145.67 37.35L145.67 41.93L146.5 42.14C146.96 42.25 147.33 42.49 147.33 42.66C147.33 42.95 146.17 43.74 145.94 43.61C145.88 43.57 145.12 43.49 144.25 43.42ZM484.17 42.35C483.99 41.78 483.68 41.67 482.31 41.67C480.51 41.67 480.06 41.02 481.37 40.31C482.84 39.53 485.54 40.87 485.27 42.25C485.11 43.06 484.42 43.12 484.17 42.35Z" fill="#1e2749" fill-rule="evenodd"/>
</svg>
