<?xml version="1.0" encoding="UTF-8"?>
<svg xmlns="http://www.w3.org/2000/svg" viewBox="0 0 604 203" width="604" height="203" shape-rendering="geometricPrecision">
<path d="M322.2 197.47C322.09 197.18 322 196.58 322 196.14C322 195.48 322.17 195.33 322.92 195.32C323.42 195.32 324.4 194.96 325.09 194.54C326.55 193.64 328.86 191.08 328.51 190.73C328.38 190.61 264.13 190.5 185.73 190.5L43.18 190.5L42.75 191.38C42.52 191.87 41.8 192.73 41.15 193.3C40.13 194.2 39.73 194.33 38.05 194.33C36.32 194.33 36.03 194.23 35.11 193.25C33.72 191.79 33.33 190.95 33.33 189.4C33.33 187.91 34.42 186.06 35.68 185.43C36.13 185.2 37.25 185.01 38.17 185.01C39.99 185 41.11 185.57 42.68 187.29L43.63 188.33L77.13 188.33C96.22 188.33 110.71 188.21 110.81 188.04C110.91 187.88 111 173.03 111 155.05C111.01 137.07 111.14 122.28 111.3 122.19C111.45 122.09 120.88 122 132.26 121.99C143.63 121.97 153.36 121.85 153.88 121.71C154.7 121.49 154.94 121.14 155.56 119.21C156.5 116.32 157.33 111.44 157.34 108.86C157.34 106.22 156.47 101.36 155.54 98.83L154.81 96.83L133.11 96.75L111.42 96.66L111.21 95.61C111.09 95.03 111 78.45 111 58.76C111.01 39.07 110.92 22.81 110.82 22.64C110.7 22.46 97.38 22.33 76.88 22.33L43.13 22.33L42.37 23.35C40.58 25.78 37.31 26.45 35.35 24.79C33.4 23.15 32.86 21.11 33.79 18.88C34.55 17.06 35.78 16.33 38.09 16.33C40.55 16.33 42.27 17.24 42.56 18.71C42.67 19.24 42.87 19.75 43.02 19.85C43.5 20.14 326.78 20.02 327.08 19.72C327.74 19.06 324.2 15.98 322.19 15.48C321.52 15.31 321.33 15.06 321.33 14.3L321.33 13.33L325.09 13.33C327.15 13.33 329.36 13.48 330 13.67C330.64 13.85 332.44 14.1 334 14.21C335.73 14.33 338.01 14.79 339.83 15.38C341.48 15.92 343.58 16.59 344.5 16.87C345.42 17.16 346.47 17.51 346.83 17.67C347.2 17.82 348.32 18.19 349.33 18.5C350.34 18.81 352.22 19.69 353.5 20.47C354.78 21.25 357.41 22.84 359.33 24C363.81 26.7 365.38 27.98 371.76 34.08L372.72 35L373.8 34.17C375.21 33.1 376.53 32.85 378.31 33.33C379.79 33.72 381.19 34.94 381.7 36.25L381.98 37L398.41 37.02C417.96 37.03 422.54 37.1 422.81 37.37C422.92 37.48 423.01 49.73 423 64.59C422.99 89.11 423.04 91.66 423.54 92.15C424.03 92.65 426.19 92.69 446.92 92.6C473.04 92.49 471.3 92.72 469.15 89.64C467.2 86.86 466.35 86.06 464.69 85.45C462.63 84.69 462.28 84.37 462.4 83.36L462.5 82.5L465.67 82.55C471.26 82.64 477.75 83.57 481.63 84.85C483.58 85.49 486.14 86.31 487.33 86.68C488.52 87.04 490.02 87.51 490.67 87.71C491.66 88.02 492.84 88.65 497.72 91.5C503.64 94.95 505.99 96.74 511.27 101.82C513.99 104.44 514.29 104.62 514.8 103.96C515.95 102.48 518.25 101.94 520.23 102.69C521.34 103.11 523 104.62 523 105.21C523 105.44 523.14 105.71 523.31 105.82C523.47 105.92 533.55 106.01 545.69 106.01C565.79 106.02 567.81 105.97 568.37 105.47C568.71 105.16 569.07 104.63 569.18 104.28C569.29 103.94 569.96 103.36 570.68 102.99C574.62 100.98 579.01 104.23 577.81 108.28C577.09 110.72 575.44 112 573 112C571.61 112 569.67 111.23 569.67 110.68C569.67 110.52 569.28 109.92 568.8 109.36L567.94 108.33L545.64 108.33L523.35 108.33L522.69 109.62C522.19 110.6 521.63 111.08 520.35 111.63C518.28 112.52 516.65 112.22 515.17 110.67C514.64 110.12 514.05 109.67 513.85 109.68C513.66 109.68 511.62 111.43 509.33 113.55C507.04 115.67 504.42 117.9 503.5 118.5C499.76 120.97 491.74 125.58 490.33 126.08C488.84 126.6 481.2 129.01 478.33 129.85C475.86 130.58 463.77 131.91 462.84 131.55C462.52 131.43 462.33 130.92 462.33 130.18C462.33 129.12 462.43 129 463.25 128.99C464.63 128.97 466.62 127.41 468.69 124.72C470.23 122.72 471.67 119.74 471.67 118.55C471.67 118.43 460.75 118.37 447.42 118.41L423.17 118.5L423.11 145.96C423.06 170.03 422.99 173.49 422.55 173.93C422.1 174.37 419.55 174.43 402.27 174.38C391.4 174.36 382.35 174.45 382.16 174.58C381.97 174.72 381.56 175.24 381.24 175.75C380.38 177.09 378.18 178.11 376.58 177.9C375.87 177.8 375.02 177.49 374.7 177.19C373.74 176.33 372.73 176.58 371.07 178.12C366.31 182.53 363.03 185.04 358.95 187.4C356.5 188.81 353.68 190.5 352.68 191.15C351.68 191.8 350.63 192.33 350.34 192.33C350.06 192.33 347.88 192.98 345.5 193.77C336.96 196.61 337.98 196.4 328 197.47C322.05 198.11 322.44 198.11 322.2 197.47ZM12.5 195.01C12.39 194.83 12.53 194 12.82 193.16C13.18 192.09 13.33 190.34 13.33 187.24C13.32 181.57 13.14 180.4 12.21 180.27C11.76 180.2 11.46 179.88 11.39 179.39C11.28 178.62 11.31 178.61 13.4 178.84C14.69 178.97 16.08 178.91 16.93 178.69C18.62 178.23 21.32 178.89 22.56 180.06C23.7 181.13 23.6 182.86 22.31 184.42C21.32 185.62 21.25 186.33 22.13 186.33C22.36 186.33 22.86 186.67 23.25 187.08C25.44 189.44 23.73 193.51 20 194.8C18.32 195.39 12.83 195.53 12.5 195.01ZM333.32 194.62C336.02 194.27 338.72 193.55 346 191.27C350.3 189.92 353.06 188.47 361.5 183.13C363.86 181.63 371.92 174.43 372.2 173.57C372.3 173.25 372.11 172.55 371.78 172.03C371.23 171.18 365.02 165.32 363.22 163.95C361.81 162.88 351.48 156.79 350.17 156.26C347.92 155.34 339.06 152.62 336.8 152.15C334.04 151.57 329 151.16 329 151.51C329 151.66 329.73 152.85 330.62 154.14C334.1 159.21 336 165.9 336 173.1C336 177.5 335.49 180.43 333.88 185.33C332.79 188.67 332.17 189.98 330.76 191.9C329.79 193.22 329 194.46 329 194.65C329 195.09 329.78 195.09 333.32 194.62ZM19.42 192.94C20.99 192.14 21.64 189.26 20.53 188.03C19.77 187.2 17.2 186.75 16.5 187.34C15.92 187.82 15.8 191.44 16.32 192.81C16.6 193.55 16.78 193.63 17.74 193.45C18.34 193.33 19.1 193.11 19.42 192.94ZM330.23 187.83C330.63 187.56 331.05 186.85 331.18 186.26C331.31 185.67 331.54 184.96 331.69 184.68C332.72 182.76 333.79 177.04 333.81 173.33C333.84 170.15 333.16 165.86 332.15 162.83C331.66 161.37 331.14 160.03 330.99 159.87C330.83 159.71 320.89 159.6 308.41 159.62C291.08 159.65 285.98 159.56 285.54 159.24C285.02 158.85 284.98 157.06 284.99 134.78C285.01 113.22 284.96 110.67 284.48 110.2C284 109.72 280.17 109.67 245.18 109.67L206.41 109.67L205.7 111.16C204.26 114.24 201.03 115.19 198.3 113.34C197.49 112.79 196.71 112.34 196.57 112.34C196.42 112.34 194.32 114.1 191.9 116.26C187.68 120.03 186.61 120.87 184.58 121.99C184.08 122.27 181.74 123.65 179.4 125.06C174.48 128.01 174.57 127.97 170.17 129.31C168.33 129.87 165.41 130.77 163.67 131.31C158.81 132.81 147.43 134.08 145.92 133.28C145.6 133.11 145.33 132.61 145.33 132.15C145.33 131.52 145.51 131.33 146.1 131.33C147.13 131.33 149.61 129.73 150.77 128.31C152.73 125.93 153.65 124.58 153.49 124.32C153.4 124.18 144.37 124.08 133.41 124.11L113.5 124.17L113.41 155.83C113.37 173.25 113.4 187.69 113.49 187.92C113.61 188.25 135.54 188.33 221.58 188.33C317.03 188.33 329.6 188.28 330.23 187.83ZM19.58 184.15C21.18 182.33 20.04 180.22 17.57 180.4L16.17 180.5L16.07 182.64C16 184.11 16.1 184.86 16.4 185.06C17.11 185.54 18.78 185.06 19.58 184.15ZM378.87 174.53C380.19 173.21 380.24 172.82 379.23 171.59C378.19 170.32 376.74 170.09 375.58 171C374.38 171.94 374.34 173.55 375.48 174.78C376.58 175.96 377.5 175.9 378.87 174.53ZM420.67 171.66C420.93 171.18 421.01 162.9 420.93 143.66C420.85 120.03 420.9 116.32 421.32 116.15C421.58 116.05 433.11 115.99 446.93 116.02C469.48 116.07 472.12 116.02 472.6 115.55C474.33 113.81 474.12 100.64 472.3 96.83L471.5 95.17L467 95.07C464.52 95.01 453.21 94.9 441.85 94.81C430.5 94.72 421.14 94.59 421.06 94.51C420.99 94.43 420.95 82.2 420.98 67.32C421.02 46.99 420.94 40.16 420.64 39.81C420.31 39.41 417.21 39.33 400.95 39.33L381.65 39.33L381.34 40.14C380.81 41.53 378.76 42.67 376.77 42.67C375.28 42.67 374.84 42.51 373.81 41.6C372.97 40.86 372.47 40.64 372.17 40.85C371.93 41.03 369.7 43 367.2 45.25C364.7 47.49 362.07 49.62 361.37 49.98C360.66 50.34 357.92 51.94 355.29 53.53C351.38 55.88 349.7 56.68 346.17 57.83C337.74 60.57 335.97 61.04 332.92 61.34C331.22 61.51 329.01 61.81 328 62.01C326.99 62.21 325.04 62.33 323.67 62.27C321.23 62.17 321.16 62.15 321.06 61.26C320.98 60.51 321.12 60.32 321.89 60.12C323.61 59.69 325 58.61 327 56.13C328.1 54.78 329 53.6 329 53.5C329 53.41 319.59 53.37 308.08 53.41L287.17 53.5L287.09 104.97C287.03 142.26 287.11 156.57 287.38 156.89C287.68 157.25 291.6 157.33 308.52 157.33C321.97 157.33 329.37 157.22 329.5 157C329.61 156.82 329.1 155.82 328.35 154.78C326.96 152.83 325.02 151.36 323.82 151.34C322.83 151.33 322.33 150.69 322.33 149.43C322.33 148.34 322.35 148.33 323.92 148.34C324.79 148.34 326.4 148.49 327.5 148.68C328.6 148.87 330.62 149.1 332 149.18C335.67 149.4 340.26 150.42 344 151.83C344.64 152.07 346.07 152.52 347.17 152.83C351.4 154.03 351.97 154.3 358.62 158.4C359.6 159.01 361.19 159.95 362.16 160.5C363.77 161.41 365.59 162.93 371.09 167.94L373.04 169.71L374.21 169.02C376.53 167.65 380.31 168.38 381.35 170.4C382.43 172.48 380.93 172.33 401.54 172.33C420.07 172.33 420.31 172.32 420.67 171.66ZM157.78 130.31C159.41 130.14 160.88 129.91 161.06 129.79C161.24 129.68 162.09 129.39 162.95 129.16C170.82 126.95 174.05 125.67 178.56 122.98C185.35 118.92 186.27 118.3 188.83 116.02C194.19 111.25 196 109.47 196 108.94C196 108.64 194.39 106.89 192.42 105.06C187.78 100.75 186.22 99.48 184.07 98.21C183.1 97.63 181.75 96.83 181.07 96.42C180.39 96.01 179.61 95.57 179.34 95.44C179.06 95.31 178.06 94.65 177.11 93.99C175.17 92.63 174.23 92.25 168.5 90.48C166.3 89.8 163.67 88.97 162.65 88.64C161.02 88.11 155.37 87.33 153.13 87.33C152.19 87.33 152.11 87.78 152.92 88.58C153.94 89.6 156.34 93.39 156.54 94.3C156.64 94.77 157.08 96.14 157.51 97.33C158.91 101.23 159.46 104.54 159.45 109C159.45 112.92 159.28 114.16 158.11 118.67C157.65 120.43 156.76 122.98 155.81 125.23C155.56 125.82 154.67 127.19 153.81 128.29C152.11 130.48 152.11 131.2 153.79 130.85C154.36 130.73 156.16 130.49 157.78 130.31ZM473.67 128.35C475.22 128.22 477.85 127.7 479.5 127.18C486.95 124.85 490.63 123.52 492.28 122.55C493.27 121.97 494.84 121.06 495.78 120.53C497.37 119.64 498.21 119.13 502.28 116.54C503.84 115.55 508.84 111.18 511.42 108.56C512.99 106.97 513 106.94 512.41 106.19C511.65 105.22 504.14 98.39 502.8 97.45C500.68 95.96 490.87 90.23 489.71 89.81C487.97 89.17 481.21 87.04 478.64 86.31C477.43 85.97 474.84 85.59 472.89 85.46C469.76 85.26 469.33 85.3 469.33 85.77C469.33 86.06 469.53 86.42 469.77 86.57C470.65 87.1 472.77 91.05 473.89 94.24C476.1 100.51 476.73 106.25 475.83 111.77C474.83 117.89 473.19 122.5 470.9 125.65C469.15 128.05 468.85 129.24 470.08 128.83C470.5 128.69 472.11 128.48 473.67 128.35ZM584.67 113.96C584.67 113.61 584.87 113.33 585.13 113.33C585.79 113.33 586.43 112.44 586.55 111.33C586.61 110.79 586.69 110.24 586.73 110.1C587.22 108.3 583.64 101.99 580.85 99.72C579.89 98.94 580.36 98.18 581.86 98.07C583.83 97.92 584.4 98.54 588.18 104.85C588.47 105.34 588.82 104.93 590.43 102.24C591.48 100.49 592.33 98.89 592.33 98.69C592.33 98.49 592.93 98.33 593.67 98.33C595.08 98.33 595.44 98.89 594.51 99.66C593.75 100.29 591.22 104.27 590.22 106.4C589.48 107.97 589.34 108.69 589.41 110.56C589.49 112.53 589.59 112.84 590.17 112.95C591.22 113.14 591.73 113.68 591.32 114.18C591.08 114.47 589.97 114.6 587.82 114.59C584.97 114.58 584.67 114.52 584.67 113.96ZM202.32 111.46C202.88 110.99 203.5 110.31 203.68 109.97C204.2 109.01 203.3 107.57 201.85 107.05C200.79 106.67 200.52 106.68 199.8 107.16C198.06 108.3 198.1 110.28 199.89 111.61C201.09 112.5 201.08 112.5 202.32 111.46ZM520.14 108.88C521.59 107.51 521.63 106.91 520.36 105.64C518.61 103.9 516.57 104.46 516.22 106.79C516.06 107.9 516.16 108.21 516.99 109.04C518.22 110.27 518.69 110.25 520.14 108.88ZM284.45 107.04C284.97 106.61 285.01 104.37 284.99 79.06C284.98 57.02 285.06 51.5 285.41 51.27C285.64 51.12 295.71 51.01 307.78 51.04C319.9 51.06 329.84 50.95 330 50.79C330.55 50.21 332.04 45.11 332.41 42.5C332.89 39.11 332.89 36.57 332.4 33C331.99 30.01 329.84 23 329.21 22.59C329 22.45 280.35 22.34 221.08 22.34L113.33 22.33L113.33 58.13C113.33 87.62 113.41 93.98 113.78 94.29C114.48 94.87 152.87 94.73 153.35 94.14C153.81 93.59 153.42 92.81 151.28 90.12C149.99 88.48 149.32 87.94 147.98 87.46C145.94 86.73 145.52 86.28 145.81 85.14C146.03 84.28 146.06 84.27 148.43 84.46C157.13 85.12 161.22 85.7 164 86.64C165.01 86.99 168.03 87.97 170.72 88.82C175.48 90.33 177.22 91.18 182.33 94.49C183.53 95.26 185.22 96.24 186.1 96.68C186.99 97.12 189.16 98.87 190.94 100.59C192.71 102.3 194.81 104.24 195.59 104.9L197.02 106.1L198.84 105.21C200.51 104.39 200.78 104.35 202.19 104.71C203.12 104.94 204.14 105.52 204.78 106.17C205.36 106.75 206.06 107.32 206.33 107.43C206.61 107.53 224.17 107.59 245.37 107.56C277.66 107.51 283.99 107.43 284.45 107.04ZM332.5 59.17C334.81 58.96 337.88 58.17 343.33 56.36C344.89 55.84 346.99 55.16 348 54.85C349.01 54.54 350.36 53.95 351 53.53C351.64 53.12 352.77 52.41 353.5 51.95C354.23 51.49 355.44 50.73 356.18 50.26C356.93 49.79 358.34 49 359.33 48.5C360.32 48 361.96 46.81 362.98 45.86C364 44.91 365.96 43.18 367.33 42.02C368.71 40.86 370.26 39.41 370.77 38.79L371.71 37.68L370.87 36.59C370.41 35.99 369.69 35.21 369.27 34.87C368.85 34.52 367.07 32.94 365.33 31.36C362.36 28.66 360.19 27.16 353.33 23.08C349.82 20.99 349.04 20.65 344.67 19.31C342.74 18.73 340.12 17.9 338.83 17.49C337.55 17.07 334.85 16.56 332.83 16.35C330.82 16.13 328.83 15.88 328.42 15.78C328 15.68 327.67 15.72 327.67 15.88C327.68 16.04 328.5 17.26 329.5 18.59C330.95 20.52 331.6 21.83 332.67 24.97C334.52 30.42 335.42 36.05 334.99 39.53C334.24 45.59 333.61 48.58 332.71 50.24C332.5 50.64 332.33 51.25 332.33 51.62C332.33 52.54 331.44 54.14 329.56 56.61C327.8 58.91 327.7 59.84 329.25 59.55C329.75 59.45 331.22 59.28 332.5 59.17ZM377.98 40.18C379.1 39.6 379.82 37.9 379.32 36.98C378.83 36.06 377.63 35.33 376.62 35.33C375.58 35.33 374.33 36.68 374.33 37.8C374.33 39 375.58 40.36 376.93 40.65C376.99 40.66 377.46 40.45 377.98 40.18ZM11.42 26.44C10.75 26.18 10.93 25.45 11.8 24.88C12.25 24.59 12.98 23.56 13.43 22.6C15.53 18.12 16.33 16.35 16.33 16.2C16.33 16.12 16.78 15.09 17.32 13.92C17.86 12.75 18.46 11.38 18.65 10.88C18.9 10.21 19.19 9.98 19.69 10.06C20.59 10.2 21.23 11.39 23.85 17.76C24.32 18.9 25.05 20.58 25.47 21.5C25.9 22.42 26.34 23.48 26.46 23.87C26.58 24.25 27.05 24.74 27.51 24.94C28.42 25.36 28.54 25.75 27.92 26.25C27.58 26.52 24.24 26.6 22.42 26.38C21.75 26.3 21.93 25.46 22.73 24.93C23.46 24.45 23.46 24.43 22.88 22.92C22.56 22.08 22.12 21.32 21.9 21.24C21.68 21.16 20.27 21.17 18.77 21.26C16.08 21.41 16.03 21.43 15.68 22.42C15.14 23.99 15.25 24.93 16 25.17C16.73 25.4 16.87 25.84 16.31 26.18C15.87 26.45 11.99 26.65 11.42 26.44ZM20.81 18.97C21.17 18.58 21.11 18.2 20.46 16.75C20.03 15.79 19.49 15 19.26 15.01C19.02 15.01 18.49 15.8 18.08 16.76C17.25 18.68 17.17 19.22 17.66 19.39C18.46 19.66 20.41 19.39 20.81 18.97Z" fill="#1e2749" fill-rule="evenodd"/>
</svg>
