<?xml version="1.0" encoding="UTF-8"?>
<svg xmlns="http://www.w3.org/2000/svg" viewBox="0 0 2430 601" width="2430" height="601" shape-rendering="geometricPrecision">
<path d="M462 529.88C444.68 520.46 419.93 507.03 407 500.01C394.07 493 381.48 486.13 379 484.74C376.52 483.36 370 479.76 364.5 476.75C319.04 451.86 279.24 429.61 278 428.4C276.69 427.11 276.47 413.91 276.25 323.66C276.11 266.86 276.28 216.32 276.64 211.34L277.28 202.3L323.39 176.94C369.88 151.36 386.6 142.16 404 132.54C443.54 110.71 488.47 86.39 491.65 85.11C494.72 83.87 495.62 84.29 529.15 102.53C572.52 126.13 615.98 149.88 627 156.01C631.67 158.61 638.2 162.2 641.5 163.99C644.8 165.77 660.59 174.38 676.58 183.12C692.58 191.85 706.49 199 707.5 199C708.51 199 714.32 196.35 720.42 193.12C733.42 186.21 733.27 186.3 774 163.97C824.45 136.33 828.87 134 830.92 134C832.96 134 836 136.46 836 138.12C836 141.18 827.24 146.29 743.9 191.86L714.3 208.04L713.7 229.77C713.37 241.72 713.07 290.63 713.03 338.45C712.98 410 712.73 425.76 711.61 427.45C710.86 428.58 693.43 438.69 672.88 449.93C632.03 472.26 556.64 513.42 545.5 519.48C541.65 521.57 531.75 526.99 523.5 531.52C509.93 538.97 494.48 547.01 493.77 546.99C493.62 546.99 479.32 539.29 462 529.88ZM1700.5 532.91C1652.07 507.03 1524.36 437.36 1508.87 428.38L1501.25 423.96L1500.73 415.23C1500.1 404.58 1500.12 229.76 1500.75 211.25L1501.2 198.01L1514.35 190.59C1521.58 186.52 1543.25 174.53 1562.5 163.95C1613.22 136.09 1616.73 134.16 1625 129.72C1629.12 127.51 1632.95 125.38 1633.5 124.99C1634.05 124.6 1638.96 121.91 1644.4 119.01C1649.85 116.11 1667.85 106.35 1684.4 97.33C1700.96 88.31 1715.53 80.67 1716.79 80.35C1718.31 79.96 1721.17 80.87 1725.29 83.04C1734.21 87.75 1786 115.88 1802.5 124.98C1810.2 129.23 1831.8 141.06 1850.5 151.27C1869.2 161.48 1895.08 175.68 1908 182.81L1931.5 195.79L1938 192.26C1969.23 175.31 2023.34 145.79 2031 141.52C2051.33 130.19 2055.27 128.67 2057.8 131.2C2059.86 133.26 2059.13 135.8 2055.75 138.3C2052.51 140.7 2008.37 165.31 1967.5 187.49C1955.47 194.02 1938.52 203.33 1938.15 203.61C1937.95 203.75 1937.62 250.81 1937.39 308.19C1937.17 365.56 1936.74 414.85 1936.43 417.73C1935.97 421.92 1935.33 423.33 1933.18 424.83C1930.89 426.42 1901.72 442.72 1884 452.31C1880.97 453.95 1870.17 459.89 1860 465.51C1842.94 474.94 1794.88 501.06 1750 525.29C1732.18 534.91 1718.52 542 1717.83 542C1717.65 541.99 1709.85 537.9 1700.5 532.91ZM509.72 527.87C517.85 523.4 540.92 510.74 561 499.74C581.08 488.74 602 477.27 607.5 474.24C613 471.22 620.88 466.92 625 464.68C660.66 445.34 699.77 423.61 701.11 422.4C702.6 421.06 702.73 411.75 702.62 314.85L702.5 208.78L688 200.82C657.47 184.06 595.57 150.19 574.5 138.73C562.4 132.14 543.27 121.7 532 115.52C520.73 109.34 507.52 102.16 502.65 99.56L493.81 94.83L457.65 114.55C437.77 125.39 417.23 136.64 412 139.53C406.77 142.43 385.85 153.93 365.5 165.08C324.51 187.54 321.74 189.05 300.66 200.5L285.93 208.5L286.07 314.7C286.18 392.67 286.52 421.3 287.36 422.36C287.99 423.16 300.65 430.45 315.5 438.56C364.03 465.08 395.25 482.15 409.5 489.95C417.2 494.17 438.57 505.87 457 515.95C475.43 526.03 490.93 534.67 491.45 535.14C493.19 536.71 494.82 536.06 509.72 527.87ZM1748.37 515.11C1804.58 484.45 1877.45 444.58 1909.75 426.81C1918.69 421.89 1926.07 417.56 1926.14 417.18C1926.22 416.81 1926.36 368.86 1926.44 310.63L1926.58 204.75L1923.04 202.5C1921.09 201.26 1906.9 193.38 1891.5 184.99C1876.1 176.6 1861.03 168.37 1858 166.69C1844.06 158.98 1767.84 117.33 1744.55 104.7L1718.61 90.63L1705.55 97.47C1693.92 103.56 1652.12 126.16 1643 131.28C1641.08 132.36 1633.65 136.4 1626.5 140.25C1619.35 144.1 1604.28 152.33 1593 158.55C1581.72 164.76 1558.55 177.47 1541.5 186.8L1510.5 203.76L1510.18 310.76L1509.86 417.76L1518.68 422.56C1523.53 425.19 1529.08 428.23 1531 429.3C1534.18 431.07 1604.1 469.34 1632 484.57C1638.33 488.02 1659.92 499.86 1680 510.87C1700.08 521.89 1717.12 530.92 1717.87 530.95C1718.63 530.98 1732.35 523.85 1748.37 515.11ZM485 516.14C484.18 515.69 475.18 510.9 465 505.49C443.16 493.87 359.83 447.71 314.26 421.98C303.09 415.68 301.28 413.83 302.5 410C304.06 405.07 301.82 403.95 410 464.02C500.82 514.46 494.45 510.48 491.4 514.85C489.83 517.08 487.6 517.53 485 516.14ZM1692 502.44C1681.28 496.64 1667.33 489.04 1661 485.56C1654.67 482.08 1627.22 466.96 1600 451.98C1543.93 421.11 1530.25 413.39 1527.75 411.21C1524.68 408.54 1526.08 403 1529.84 403C1531.55 403 1546.26 410.91 1608.5 445.3C1684.36 487.22 1712.34 503.07 1714.95 505.58L1717.4 507.95L1715.03 510.47C1713.72 511.86 1712.39 513 1712.08 512.99C1711.76 512.98 1702.72 508.24 1692 502.44ZM677.2 402.8C675.61 401.21 675.45 218.9 677.04 215.93C678.34 213.5 681.19 213.45 683.35 215.83C684.86 217.5 685 225.42 685 309.17C685 396.56 684.92 400.76 683.17 402.35C681.01 404.3 678.86 404.46 677.2 402.8ZM1901.64 398.71C1900.16 397.62 1899.99 392.79 1899.9 350C1899.65 232.88 1899.9 210.98 1901.5 210.36C1903.83 209.47 1907.71 210.79 1908.46 212.74C1908.83 213.71 1909.13 255.14 1909.13 304.82C1909.13 374.89 1908.85 395.47 1907.9 396.63C1905.73 399.24 1903.4 400.01 1901.64 398.71ZM86.48 355.97C86.11 355.36 85.96 354.76 86.15 354.63C86.34 354.5 87.73 353.62 89.24 352.68C92.77 350.48 93.9 348.22 109.12 313C116.59 295.7 122.41 283.5 123.18 283.5C124.88 283.5 126.7 287.27 139.59 317.5C153.52 350.18 154.41 351.9 158.1 353.18C159.74 353.76 160.92 354.74 160.71 355.36C160.15 357.05 134.81 356.94 134.25 355.25C134.02 354.56 134.48 354 135.26 354C136.05 354 137.49 353.11 138.48 352.03C140.61 349.67 140.2 346.78 136.61 338.66L134.11 333L126.2 333C121.85 333 115.56 333.29 112.22 333.63L106.14 334.27L103.57 340.2C99.77 348.98 100.39 354 105.28 354C106.34 354 106.99 354.55 106.75 355.25C106.2 356.9 87.47 357.57 86.48 355.97ZM1311.24 351.34C1309.39 350.59 1310.78 349 1313.31 348.98C1314.51 348.97 1316.53 348.16 1317.79 347.19C1320.09 345.43 1320.09 345.41 1320.22 316.46C1320.36 285.18 1320.11 283.5 1315.22 282.43C1310.03 281.29 1309.58 281.02 1310.81 279.79C1311.65 278.95 1317.91 278.9 1334.72 279.59C1357.08 280.5 1357.59 280.57 1362.27 283.31C1364.9 284.85 1368.2 287.85 1369.61 289.98C1374.38 297.19 1372.18 307.42 1364.93 311.7C1363.32 312.65 1362.02 313.9 1362.04 314.47C1362.06 315.03 1363.97 316.4 1366.28 317.5C1368.6 318.6 1371.55 321.07 1372.84 323C1374.81 325.95 1375.12 327.47 1374.79 332.71C1374.48 337.8 1373.87 339.6 1371.4 342.64C1367.75 347.15 1363.19 349.64 1356.08 350.98C1350.73 352 1313.61 352.29 1311.24 351.34ZM1357.68 341.69C1363.25 335.79 1363.82 333.22 1360.86 327.25C1357.64 320.76 1352.29 318.14 1340.61 317.31L1331.94 316.7L1332.22 331.6L1332.5 346.5L1337 347C1339.47 347.27 1344.19 347.2 1347.48 346.83C1352.89 346.23 1353.85 345.74 1357.68 341.69ZM193 329.52C193 327.45 193.49 326.99 195.75 326.96C207.98 326.81 223.79 326.77 235.82 326.88C250.07 327 250.14 327.01 249.82 329.25L249.5 331.5L221.25 331.77L193 332.03L193 329.52ZM130.67 327.93C131.91 326.69 122.25 302.99 120.52 303.02C119.51 303.03 110 324.42 110 326.68C110 328.2 112.73 328.7 122.05 328.86C126.27 328.94 130.07 328.53 130.67 327.93ZM1410.68 326.35C1410.31 325.97 1410 324.9 1410 323.97C1410 322.46 1411.88 322.22 1427.25 321.81C1436.74 321.55 1449.81 321.54 1456.3 321.8C1467.64 322.24 1468.09 322.34 1467.8 324.38C1467.5 326.48 1467.18 326.5 1439.43 326.77C1423.99 326.91 1411.06 326.72 1410.68 326.35ZM193.67 314.33C193.3 313.97 193 312.62 193 311.33L193 309L221.5 309C248.28 309 250 309.11 250 310.8C250 314.8 248.6 315 220.97 315C206.32 315 194.03 314.7 193.67 314.33ZM1354.24 308.77C1356.36 307.15 1358.51 304.24 1359.5 301.64C1361.01 297.69 1361.03 296.95 1359.68 294.37C1357.7 290.59 1353.19 286.39 1349.68 285.06C1348.14 284.48 1343.52 284 1339.43 284L1332 284L1332 298.1L1332 312.19L1341.33 311.85C1349.67 311.54 1351.04 311.21 1354.24 308.77ZM1410.67 309.33C1410.3 308.97 1410 307.62 1410 306.33L1410 304L1438.53 304C1463.08 304 1467.14 304.21 1467.64 305.51C1467.96 306.34 1467.67 307.69 1466.99 308.51C1465.95 309.76 1461.41 310 1438.54 310C1423.58 310 1411.03 309.7 1410.67 309.33ZM309.14 222.39C307.96 221.56 307 220.08 307 219.1C307 215.68 303.09 217.98 386 172.45C480.24 120.69 489.24 115.93 492.4 116.23C496.01 116.57 497.96 119.26 496.39 121.75C495.79 122.71 492.19 125.24 488.4 127.36C449.89 148.9 428.47 160.67 367.5 193.76C307.34 226.41 311.78 224.23 309.14 222.39ZM1532.65 217.51C1530.51 215.37 1530.55 212.69 1532.75 210.81C1534.5 209.31 1596.96 174.88 1662.5 139.28C1706.25 115.52 1714.87 111 1716.44 111C1718.38 111 1721.31 114.75 1720.67 116.42C1720.35 117.24 1718.39 118.99 1716.3 120.31C1712.52 122.68 1684.75 138.25 1666.22 148.38C1660.87 151.31 1642.55 161.34 1625.5 170.68C1574.22 198.78 1538.17 218.14 1536.18 218.66C1535.14 218.93 1533.56 218.41 1532.65 217.51ZM1107 164.93C1107 164.3 1110.82 159.48 1115.48 154.21C1127.2 140.96 1129.72 135.23 1126.54 129.07C1124.82 125.74 1123.23 125 1117.86 125C1114.66 125 1113.31 125.63 1110.94 128.22L1108 131.45L1108 128.76C1108 124.94 1113.19 119.37 1117.5 118.57C1126.13 116.95 1134 122.7 1134 130.63C1134 136.5 1132.24 139.74 1123.38 150.22C1119.32 155.02 1116 159.41 1116 159.97C1116 161.64 1128.69 161.21 1132.14 159.43C1135.91 157.48 1136.56 158.05 1135.36 162.23L1134.43 165.5L1120.71 165.78C1111.01 165.98 1107 165.73 1107 164.93ZM881 151.61C873.16 149.87 867.95 146.85 862.71 141.02C856.32 133.91 854.49 128.06 854.56 115C854.61 106.58 855.07 103.37 856.86 98.8C859.83 91.27 866.66 83.81 873.8 80.3C878.89 77.8 880.57 77.5 889.5 77.5C896.97 77.5 900.71 77.98 904.28 79.4L909.06 81.29L911.54 78.96C915.18 75.54 916.19 77.36 916.77 88.37C917.45 101.38 916.62 103.05 913 95.95C907.14 84.45 898.88 80.01 886.92 81.93C878.96 83.22 874.53 86.65 870.55 94.6C867.87 99.94 867.56 101.63 867.2 112.5C866.85 123.04 867.08 125.21 869.02 130.36C872.96 140.81 881.96 147 893.21 147C899.92 147 904.11 144.99 910.88 138.54C914.07 135.49 916.98 133 917.34 133C920.97 133 910.3 145.79 903.98 149.01C900.8 150.63 890.3 153.13 887.57 152.92C886.98 152.87 884.02 152.28 881 151.61ZM1032.37 151.48C1024.57 149.82 1020.9 147.9 1015.85 142.85C998.19 125.19 1003.35 91.56 1025.45 80.24C1033.73 76 1047.38 75.97 1057.84 80.16C1060.95 81.41 1061.3 81.34 1063.08 79.14C1066.46 74.98 1067.64 76.93 1068.4 87.93C1069.34 101.58 1068.15 103.53 1064.08 94.97C1061.57 89.67 1056.55 84.57 1052.14 82.82C1050.69 82.25 1046.52 81.76 1042.87 81.74C1026.16 81.65 1018.77 91.66 1018.7 114.5C1018.66 124.82 1018.97 127.2 1020.89 131.5C1025.53 141.88 1032.46 146.36 1044 146.43C1052.93 146.48 1056.17 145.03 1063.01 137.89C1067.42 133.3 1070 131.82 1070 133.91C1070 135.71 1062.26 144.55 1058.42 147.14C1051.26 151.97 1041.94 153.52 1032.37 151.48ZM926.25 150.34C924.14 149.49 924.86 148 927.39 148C928.7 148 930.83 147.15 932.12 146.1L934.47 144.2L934.48 114.76C934.5 82.62 934.52 82.71 928.69 81.2C927.01 80.76 925.46 79.87 925.23 79.2C924.93 78.3 928.51 78 939.5 78C950.49 78 954.07 78.3 953.77 79.2C953.54 79.87 951.94 80.78 950.19 81.23C947.93 81.82 946.81 82.83 946.29 84.78C945.27 88.51 945.3 109.64 946.33 110.66C946.78 111.12 953.86 111.65 962.05 111.85C980.26 112.3 979.41 113.16 978.27 95.54C977.44 82.61 977.45 82.64 970.53 80.5C968.88 79.99 968.8 79.74 970.03 78.96C972.25 77.56 998.26 77.72 997.79 79.13C997.58 79.76 995.86 80.77 993.96 81.38L990.5 82.5L990.23 113.5C989.95 144.11 989.98 144.52 992.09 146.25C993.26 147.21 995.07 148 996.11 148C998.41 148 998.6 149.55 996.42 150.39C993.94 151.35 971.66 151.07 970.08 150.07C968.99 149.38 969.5 148.82 972.25 147.67C974.22 146.84 976.26 145.34 976.78 144.33C978.38 141.24 979.18 118.38 977.74 117.26C977.01 116.7 970.24 116.5 961.25 116.78L946 117.25L946 131.07C946 144.21 946.11 144.96 948.22 146.44C949.44 147.3 951.24 148 952.22 148C954.43 148 954.56 149.57 952.42 150.39C950.54 151.11 928.05 151.07 926.25 150.34ZM1079.67 150.33C1078.49 149.16 1078.95 148.25 1080.99 147.71C1082.08 147.43 1083.43 146 1083.99 144.53C1085.08 141.66 1085.41 89.12 1084.36 85.2C1083.95 83.69 1082.75 82.7 1080.87 82.32C1076.77 81.5 1077.31 80.23 1082.75 77.89C1089.53 74.98 1093.03 74.43 1094.09 76.1C1094.57 76.87 1094.98 91.98 1094.98 109.68C1094.99 128.94 1095.41 142.94 1096.01 144.53C1096.57 146 1097.92 147.43 1099.01 147.71C1101.4 148.34 1101.59 149.56 1099.42 150.39C1097.27 151.22 1080.5 151.17 1079.67 150.33ZM2104.2 146.51C2100.74 145.74 2096.4 144.17 2094.55 143.03C2089.58 139.96 2084.12 133.48 2081.14 127.12C2078.76 122.05 2078.5 120.37 2078.53 110C2078.55 99.13 2078.73 98.14 2081.76 91.89C2089.85 75.22 2107.15 68.21 2126.03 73.94L2133.23 76.13L2135.63 73.88C2139.18 70.55 2140.2 72.43 2140.77 83.37C2141.45 96.37 2140.62 98.05 2137.02 90.99C2131.77 80.7 2126.1 77 2115.53 77C2104.28 77 2099.01 80.19 2094.27 89.87C2092 94.53 2091.55 96.93 2091.18 106.66C2090.69 119.49 2091.7 124.56 2096.14 131.56C2098.37 135.07 2100.42 136.76 2105.26 139.04C2116.46 144.34 2124.95 142.79 2134.72 133.64C2138.2 130.39 2141.31 127.97 2141.62 128.28C2144.08 130.74 2131.65 142.99 2124.3 145.35C2116.95 147.72 2111.11 148.05 2104.2 146.51ZM2177.5 146.59C2167.3 144.07 2159.55 137.91 2155.03 128.71C2144.84 107.96 2152.03 83.35 2170.82 74.66C2174.63 72.9 2177.35 72.5 2185.5 72.51C2198.01 72.52 2203.54 74.7 2211.01 82.6C2218.97 91.03 2220.5 95.27 2220.5 109C2220.5 119.58 2220.27 120.96 2217.69 126.22C2212.5 136.79 2202.1 144.9 2191.01 147C2184.67 148.2 2183.91 148.18 2177.5 146.59ZM2257.11 146.92C2229.35 141.47 2219.14 101.29 2240.4 81.18C2247.81 74.18 2254.95 71.68 2266 72.23C2280.47 72.95 2289.8 79.01 2296.64 92.12C2299.22 97.05 2299.46 98.41 2299.48 108.5C2299.5 118.35 2299.22 120.09 2296.84 125.18C2291.74 136.05 2282.17 144.04 2271.15 146.64C2264.84 148.12 2263.4 148.15 2257.11 146.92ZM2307.03 145.04C2305.8 144.26 2305.88 144 2307.53 143.47C2312.66 141.82 2314.12 140.83 2315.06 138.33C2316.53 134.46 2315.88 79.47 2314.34 77.94C2313.71 77.31 2311.71 76.48 2309.92 76.12C2308.12 75.75 2306.47 74.9 2306.24 74.22C2305.93 73.29 2309.48 73 2321 73C2332.38 73 2336.07 73.3 2335.77 74.2C2335.54 74.87 2333.95 75.77 2332.23 76.22C2330.51 76.67 2328.82 77.48 2328.49 78.02C2327.62 79.42 2326.76 101.9 2327.46 104.69C2328.03 106.97 2328.22 107 2342.82 107C2352.98 107 2357.97 106.63 2358.8 105.8C2360.47 104.13 2360.39 83.34 2358.71 80C2358.02 78.62 2356.02 77.03 2354.27 76.47C2352.53 75.9 2350.82 75.15 2350.47 74.81C2349.54 73.87 2363.48 72.81 2372 73.18C2379.92 73.52 2381.27 74.66 2375.85 76.43C2373.7 77.13 2372.34 78.36 2371.89 80C2371.51 81.38 2371.15 95.21 2371.1 110.75C2371 137.74 2371.09 139.09 2373 141C2374.1 142.1 2376.12 143 2377.5 143C2380.29 143 2380.85 144.46 2378.42 145.39C2375.93 146.35 2352.66 146.07 2351.08 145.07C2349.99 144.38 2350.45 143.84 2353.08 142.74C2358.98 140.27 2359.46 138.99 2359.85 124.99C2360.16 113.7 2360 112.21 2358.47 111.63C2357.52 111.26 2350 111.27 2341.76 111.64L2326.78 112.32L2327.17 125.58C2327.59 140.03 2328.69 143 2333.65 143C2336.32 143 2336.79 144.48 2334.42 145.39C2331.89 146.36 2308.65 146.06 2307.03 145.04ZM2192.49 141.57C2198.42 139.09 2204.68 131.89 2206.61 125.33C2208.87 117.64 2208.88 103.49 2206.64 95C2203.22 82.04 2197.27 77.06 2185.14 77.02C2170.25 76.97 2163.71 86.74 2163.73 109C2163.74 121.76 2165.58 128.96 2170.47 135.37C2175.57 142.06 2184.97 144.71 2192.49 141.57ZM2275.16 139.51C2280.03 136.29 2284.44 129.52 2286.05 122.8C2287.96 114.85 2286.83 96.78 2284.02 90.26C2278.35 77.1 2264.36 72.53 2252.35 79.91C2250.29 81.18 2248.04 84.21 2245.85 88.65C2242.55 95.36 2242.5 95.65 2242.59 108.48C2242.67 119.52 2243.03 122.4 2244.97 127.41C2247.47 133.86 2254.21 141.5 2258.14 142.34C2263.33 143.45 2271.19 142.14 2275.16 139.51Z" fill="#1e2749" fill-rule="evenodd"/>
</svg>
