<?xml version="1.0" encoding="UTF-8"?>
<svg xmlns="http://www.w3.org/2000/svg" viewBox="0 0 2430 2186" width="2430" height="2186" shape-rendering="geometricPrecision">
<path d="M466.5 2085.34C463.75 2085.18 452.05 2084.57 440.5 2084C428.95 2083.43 417.59 2082.69 415.25 2082.37C408.48 2081.42 409.94 2079.39 419.49 2076.47C424.16 2075.05 429.29 2072.79 430.88 2071.45C438.48 2065.05 439.55 2053.09 440.59 1962.5C441.14 1914.35 441.02 1906.58 439.63 1900.07C437.84 1891.74 435.36 1888.37 428.89 1885.45C423.83 1883.17 424.09 1880.82 429.51 1879.73C436.27 1878.37 509.33 1877.65 522 1878.83C542.14 1880.69 551.03 1885.02 561.99 1898.34C570.07 1908.16 572.5 1913.97 572.5 1923.5C572.5 1935.06 569.61 1940.45 555.81 1954.58C549.87 1960.68 545 1965.86 545 1966.08C545.01 1966.31 552.36 1973.92 561.34 1983C575.39 1997.19 578.19 2000.55 581.34 2007C586.37 2017.28 587.47 2023.89 585.61 2032.78C581.68 2051.66 565.9 2069.27 546.05 2076.92C528.24 2083.79 496.58 2087.14 466.5 2085.34ZM633.5 2080.29C620.4 2079.81 618.55 2078.88 624.11 2075.59C628.93 2072.75 630.96 2066.85 632.17 2052.22C633.48 2036.29 632.57 1997.13 630.64 1986.89C628.94 1977.8 626.09 1971 622.05 1966.41C618.27 1962.1 616.19 1955.68 617.92 1953.6C620.69 1950.25 634.45 1949.08 644.14 1951.36C652.42 1953.31 656.26 1955.89 657.8 1960.52C660.01 1967.21 661.16 1994.94 660.49 2025.5C659.64 2064.32 660.75 2071.67 668.08 2075.85C671.83 2077.98 671.76 2078.79 667.75 2079.4C663.06 2080.11 642.85 2080.64 633.5 2080.29ZM522.77 2070.03C541.8 2061.26 551.38 2040.76 548.02 2016C546.54 2005.13 542.99 1997.16 537.27 1991.9C532.41 1987.41 523.34 1982.92 515.5 1981.11C508.83 1979.58 475.71 1974.96 475.18 1975.49C474.53 1976.14 478.3 2069.87 479.02 2071.03C479.95 2072.54 493.96 2073.89 505.54 2073.6C514.51 2073.37 516.36 2072.99 522.77 2070.03ZM681 1972.99C670.41 1972.09 667 1970.64 667 1967.01C667 1964.09 669.29 1961.62 675.63 1957.69C682.07 1953.69 690.17 1951.73 698.36 1952.19C707.34 1952.69 712.75 1955.16 714.62 1959.62C718.86 1969.79 705.59 1975.06 681 1972.99ZM492.52 1968.59C514.91 1964.78 522.6 1962.06 530.03 1955.36C545.12 1941.76 544.09 1910.95 528.07 1896.82C518.75 1888.6 507.86 1885 492.33 1885C480.96 1885 478.73 1885.98 476.91 1891.78C476.14 1894.23 475.58 1908.42 475.29 1933.25C474.86 1969.33 474.92 1971 476.67 1970.99C477.68 1970.99 484.81 1969.91 492.52 1968.59ZM480.7 1817.32C479.44 1815.29 477.97 1803.17 476.9 1786C476.22 1775.11 475.49 1720.21 475.12 1652.56L474.5 1537.62L458 1528.16C448.93 1522.96 437.45 1516.37 432.5 1513.51C427.55 1510.66 414.34 1503.06 403.15 1496.62C391.96 1490.18 374.41 1480.04 364.15 1474.09C353.89 1468.14 331.77 1455.39 315 1445.76C298.23 1436.13 269.88 1419.82 252 1409.51C220.48 1391.34 202.19 1380.81 134 1341.55C116.12 1331.26 101.08 1322.43 100.56 1321.93C99.67 1321.07 101.12 1048.89 102.67 925.34L103.31 874.19L128.91 859.4C142.98 851.27 163.95 839.14 175.5 832.44C187.05 825.74 216.52 808.67 241 794.52C265.48 780.36 294.27 763.7 305 757.49C322.32 747.46 351.79 730.42 423 689.25C434.82 682.41 449.38 674.05 455.35 670.66C461.32 667.27 467.45 663.36 468.98 661.97L471.75 659.43L472.41 603.47C474.3 445.63 476.85 384 481.5 384C482.66 384 483.61 387.83 485.43 400C486.62 407.92 488.93 462.93 489.52 497.5C489.86 517.85 490.31 543.95 490.5 555.5C490.7 567.05 490.9 590.23 490.94 607C490.98 623.77 491.3 643.12 491.65 650L492.28 662.5L500.39 667.1C504.85 669.62 512.77 674.16 518 677.19C523.23 680.21 566.65 705.3 614.5 732.94C662.35 760.59 708.92 787.51 718 792.78C727.08 798.05 742.83 807.16 753 813.03C763.17 818.9 790.4 834.62 813.5 847.98C836.6 861.33 856.49 872.71 857.69 873.26C859.41 874.05 860 875.38 860.41 879.39C860.7 882.2 861.17 931.08 861.47 988C862.11 1110.74 862.91 1228.77 863.46 1281.66C863.83 1316.44 863.71 1319.95 862.18 1321.32C861.26 1322.14 850.38 1328.64 838 1335.77C811.8 1350.84 730.79 1397.39 697.5 1416.5C674.3 1429.81 613.04 1464.99 566 1492.03C537.24 1508.55 511.81 1523.2 498.53 1530.89C493.6 1533.75 489.28 1536.55 488.92 1537.13C488.57 1537.7 488.22 1587.52 488.16 1647.84C488.04 1757.83 486.98 1799.26 483.95 1812C482.83 1816.72 481.59 1818.76 480.7 1817.32ZM503 1509.46C531.55 1493.7 551.12 1482.67 585.18 1463.15C627.01 1439.19 666.3 1416.6 678.25 1409.66C705.27 1393.97 730.5 1379.4 775.5 1353.5C810.96 1333.09 842.52 1314.66 844.85 1313C846.93 1311.51 846.96 1311.01 847.48 1252.5C847.77 1220.05 848.23 1170.55 848.49 1142.5C848.75 1114.45 849.2 1050.78 849.49 1001C849.78 951.23 850.26 905.55 850.56 899.5C850.97 891.29 850.77 888.09 849.8 886.9C849.09 886.02 841.75 881.44 833.5 876.74C825.25 872.03 811.75 864.26 803.5 859.48C786.46 849.59 730.56 817.33 706.29 803.38C697.38 798.26 677.35 786.69 661.79 777.67C646.23 768.65 627.2 757.68 619.5 753.28C611.8 748.89 589.08 735.86 569 724.32C497.27 683.09 484.43 676 481.56 676C480.01 676 474.42 678.33 469.12 681.18C434.27 699.93 348.12 749.15 241 811.51C190.75 840.77 132.2 874.79 123.22 879.95C118.12 882.88 113.7 885.68 113.39 886.17C112.51 887.59 116.04 1310.28 116.94 1312.5C117.69 1314.32 136.05 1325.15 236.5 1383.02C248.6 1389.99 265.7 1399.87 274.5 1404.98C338.01 1441.85 423.72 1490.75 454.42 1507.63C476.77 1519.92 480.63 1521.73 482.42 1520.78C483.56 1520.18 492.82 1515.08 503 1509.46ZM469 1450.12C469 1445.07 475.7 1440.07 511 1418.8C537.26 1402.98 563.13 1387.92 629.5 1349.79C721.67 1296.84 780.25 1266 788.67 1266C790.72 1266 791 1266.48 791 1270.02C791 1273.98 790.86 1274.13 782.25 1279.69C772.65 1285.88 742.6 1303.54 714.5 1319.49C580.22 1395.73 475.56 1453 470.52 1453C469.51 1453 469 1452.03 469 1450.12ZM180.65 1277.92C179.51 1271.78 178 1249.99 176.98 1225C176.43 1211.53 175.78 1196.59 175.53 1191.8C175.28 1187.02 174.82 1164.75 174.51 1142.3C174.2 1119.86 173.73 1099.11 173.46 1096.19C172.58 1086.69 173 945.91 173.95 931.38C174.89 916.93 176.64 910 179.36 910C181.91 910 185.82 915.79 186.94 921.24C191.43 943.07 192.06 1112.85 188.02 1216C186.36 1258.5 184.81 1276.52 182.54 1279.62C181.43 1281.14 181.21 1280.94 180.65 1277.92ZM762.81 921.24C728.81 903.89 613.05 839.05 562.54 809.05C555.37 804.78 539.38 795.29 527 787.94C506.76 775.92 477.58 757.69 471.42 753.21C469.95 752.15 469.05 750.46 469.03 748.75C469.01 746.47 469.43 746 471.53 746C482.37 746 517.85 765.13 663 849.22C755.39 902.75 781.32 918.56 787.98 925.46C790.8 928.39 791.25 929.38 790.37 930.78C789.77 931.73 788.57 932.64 787.7 932.81C786.83 932.98 775.62 927.78 762.81 921.24ZM2287 381.36C2263.7 377.96 2246.4 365.51 2241.48 348.59C2238.36 337.84 2241.35 330 2248.57 330C2256.61 330 2258.89 334.21 2259.96 351.01C2260.76 363.59 2261.76 366.25 2266.43 368.18C2270.4 369.82 2285.14 369.77 2292 368.08C2309.78 363.7 2325 348.89 2325 335.96C2325 328.04 2320.2 320.15 2307.23 306.77C2296.91 296.12 2295.9 294.75 2296.18 291.77C2296.45 289 2297.26 288.09 2301.42 285.85C2317.32 277.27 2322.43 263.43 2315.14 248.64C2304.78 227.59 2274.72 221.1 2268.19 238.5C2267.57 240.15 2266.65 245.47 2266.14 250.32C2265.41 257.33 2264.75 259.64 2262.93 261.57C2257.62 267.23 2249 262.03 2249 253.15C2249 243.17 2257.96 227.69 2266.5 222.91C2275.05 218.12 2289.47 216.78 2303.51 219.47C2321.9 222.99 2333.91 232.68 2337.57 246.96C2340.28 257.53 2337.04 267.11 2326.44 279.88C2319.24 288.56 2319.11 291.37 2325.69 296.7C2341.7 309.69 2344.15 313.89 2344.8 329.62C2345.11 337.18 2344.79 341.23 2343.52 345.62C2338.14 364.25 2321.59 377.4 2299 380.96C2292.44 381.99 2291.53 382.02 2287 381.36ZM1382.73 321.55C1349.11 315.62 1326.56 298.73 1312.01 268.6C1291.12 225.32 1296.13 175.34 1324.89 140.07C1332.8 130.38 1349.59 119.06 1362.65 114.62C1378.51 109.22 1387.72 107.62 1402.5 107.65C1419.02 107.7 1431.67 109.76 1481.61 120.54L1488.73 122.08L1489.22 127.79C1489.99 136.65 1488.45 167.01 1487 171.73C1486.28 174.06 1484.85 176.74 1483.81 177.67C1482.02 179.29 1481.8 179.25 1479.51 176.94C1477.76 175.17 1476.79 172.58 1475.99 167.54C1472.79 147.25 1451.26 125.81 1428.76 120.51C1421.61 118.82 1406.68 118.54 1399.21 119.96C1391.55 121.41 1379.25 126.48 1372.25 131.06C1362.49 137.46 1350.8 149.02 1347.12 155.92C1342.57 164.46 1341.22 173.01 1339.86 201.75C1337.75 246.2 1341.82 268.52 1355.31 286.69C1361.27 294.71 1368.34 300.25 1379.5 305.64C1406.88 318.87 1429.4 316.48 1449.06 298.28C1456.66 291.25 1462.97 283.38 1473.99 267.19C1481.34 256.38 1484.31 253 1486.43 253C1488.19 253 1485.24 284.54 1482.46 295.44C1481.62 298.71 1479.82 302.86 1478.45 304.65C1473.82 310.73 1460.18 315.48 1432.5 320.66C1421.24 322.77 1392.54 323.29 1382.73 321.55ZM1858.65 321.97C1843.7 319.61 1828.43 313.75 1816.88 305.94C1793.12 289.88 1777.09 259.11 1773.93 223.5C1770.33 182.98 1787.21 144.2 1817 124.56C1826.54 118.27 1835.39 114.55 1849.93 110.74C1860.23 108.03 1863.09 107.7 1876 107.68C1885.27 107.67 1893.92 108.27 1900 109.36C1918.04 112.57 1959.51 121.1 1961.91 122.1L1964.31 123.1L1963.68 142.8C1963.33 153.64 1962.58 164.98 1962.01 168C1960.94 173.73 1958.21 178.5 1956 178.5C1953.68 178.5 1951.08 173.6 1950.11 167.37C1947.7 151.96 1932.26 133 1915.68 125.09C1894.03 114.75 1866.52 117.47 1844.83 132.09C1836.73 137.54 1823.88 150.31 1821.22 155.56C1816.59 164.67 1814.63 178.44 1813.49 210C1811.56 263.6 1823.15 291.22 1853.65 305.69C1865.26 311.2 1876.15 314 1885.98 314C1907.81 314 1924.42 301.85 1946.38 269.83C1956.14 255.6 1959.32 251.99 1960.8 253.46C1962.31 254.98 1959.03 286.45 1956.36 296C1953.43 306.47 1949.11 309.95 1933.32 314.53C1914.1 320.1 1901.56 322.07 1882.5 322.49C1872.6 322.72 1861.87 322.48 1858.65 321.97ZM465.07 320.91C457.16 319.36 447.69 315.86 438.59 311.13C386.34 283.97 368.57 205.07 403.01 153.16C413.48 137.37 425.58 127.25 444.38 118.54C468.27 107.47 481.78 105.21 504.5 108.47C512.79 109.67 547.3 116.41 568.77 121.04L574.03 122.17L573.77 150.84C573.61 167.97 573.12 179.44 572.56 179.35C572.05 179.27 568.37 173.11 564.39 165.66C555.04 148.17 550.15 141 542.07 132.98C534.7 125.66 528.66 122.97 515 120.89C505.84 119.5 485.21 120.31 475.59 122.43C467.23 124.28 457.5 128.7 451.91 133.19C438.28 144.13 427.44 168.76 423.91 196.78C422.47 208.27 423.29 233.11 425.47 243.94C430.15 267.16 440.54 287.08 454.07 298.8C458.97 303.04 471.27 309.49 478.5 311.6C486.53 313.94 502.31 313.97 510.97 311.66C526.2 307.59 541.51 297.42 551.84 284.49C554.95 280.6 560.88 271.25 565 263.72C569.12 256.19 572.84 250.02 573.25 250.01C574.39 249.99 574.17 254 572.01 272.24C569.52 293.17 567.41 303.78 565.09 307C562.66 310.37 556.89 312.36 539.32 315.88C513.26 321.11 478.18 323.48 465.07 320.91ZM635 319.89C617.86 319.21 608.18 317.62 607.3 315.35C606.36 312.9 608.3 311.95 617.06 310.55C626.32 309.07 628.2 307.68 629.99 301.05C632.18 292.89 632.97 271.16 632.96 218.5C632.96 164.01 632.13 139.35 629.95 129.2C628.79 123.78 624.9 118 622.41 118C620.46 118 620.64 116.35 622.68 115.57C625.34 114.55 683.33 114.81 686.05 115.86C688.36 116.74 688.38 116.84 686.5 117.45C680.68 119.34 677.37 121.76 675.5 125.5C673.63 129.25 673.48 131.88 673.16 167.25L672.82 205L717.79 205C754.82 205 762.96 204.76 763.9 203.62C765.33 201.9 765.35 151.05 763.94 137.07C762.62 124.11 760.77 121.25 751.5 117.87C748.75 116.87 748.67 116.71 750.5 115.96C753.02 114.93 814.62 114.93 818 115.96C820.34 116.68 820.37 116.77 818.5 117.44C808.8 120.88 806.94 123.78 805.05 138.35C803.59 149.6 802.23 196.42 802.61 222.5C803.5 283.99 805.6 304.84 811.28 308.38C812.5 309.14 816.13 310.05 819.34 310.4C825.74 311.1 831.42 313.51 830.44 315.1C828.37 318.44 813.21 320.09 784.6 320.09C761.55 320.09 744.48 318.86 740.89 316.94C739.85 316.39 739 315.26 739 314.44C739 312.49 742.85 311.09 750.39 310.3C757.52 309.56 761.1 306.74 762.97 300.42C763.7 297.93 764.33 282.4 764.7 257.81L765.29 219.11L762.89 218.53C761.58 218.21 740.92 218.07 717 218.22L673.5 218.5L673.52 258C673.56 308.6 673.68 309.12 686.38 310.31C693.25 310.95 698.28 312.72 698.28 314.5C698.28 318.87 670.05 321.27 635 319.89ZM1679.88 319.88C1664.12 319.22 1655.17 317.62 1654.29 315.31C1653.34 312.85 1655.46 311.86 1664.6 310.51C1679.35 308.33 1679.17 308.93 1679.74 258.62C1680.1 226.83 1679.94 219.58 1678.84 218.88C1676.95 217.68 1582.27 217.75 1581.53 218.95C1580.75 220.21 1583.77 281.33 1585.06 290.41C1586.22 298.58 1589.08 305.17 1592.43 307.36C1593.71 308.2 1598.65 310.15 1603.4 311.69C1608.16 313.24 1612.03 314.95 1612.01 315.5C1611.9 317.79 1604.56 318.26 1567 318.38C1526.71 318.5 1522 318.12 1522 314.69C1522 312.77 1525.71 311.3 1532.6 310.49C1535.84 310.1 1539.55 309.13 1540.83 308.32C1547.19 304.3 1548 293.63 1548 213.21C1548 148.2 1547.36 132.19 1544.48 125.3C1543.08 121.94 1537.83 118.01 1534.75 118C1532.08 118 1532.67 116.3 1535.59 115.57C1539.47 114.59 1599.03 114.85 1602.5 115.85L1605.5 116.72L1603 117.75C1601.62 118.32 1598.56 119.59 1596.19 120.57C1590.49 122.93 1587.52 126.66 1584.85 134.8C1582.82 140.99 1582.62 143.89 1582.23 173.26L1581.81 205.02L1630.66 204.76L1679.5 204.5L1679.5 171.5C1679.5 143.16 1679.26 137.72 1677.79 132.97C1675.83 126.66 1672.59 123.16 1665.75 119.99C1663.14 118.77 1661 117.22 1661 116.53C1661 114.49 1668.56 113.99 1697.89 114.12C1733.58 114.27 1736.43 114.87 1726.49 120.15C1718.16 124.58 1716.95 126.7 1714.89 140.5C1713.49 149.85 1712.79 238.66 1713.89 266.5C1715.32 302.42 1716.27 304.93 1730.13 309.54C1734.45 310.98 1738.28 312.64 1738.65 313.24C1741.91 318.52 1716.24 321.42 1679.88 319.88ZM2024 319.9C2005 319.14 1997 317.67 1997 314.96C1997 312.35 1999.6 311.2 2007.31 310.41C2019.57 309.15 2020.7 305.81 2022.07 266.5C2023.19 234.35 2022.48 157.02 2020.91 140C2019.71 127.04 2017.48 120.63 2013.56 118.84C2010.59 117.49 2010.32 116.48 2012.68 115.57C2015.34 114.55 2073.33 114.81 2076.05 115.86C2078.69 116.87 2078.7 116.86 2071.71 119.01C2067.23 120.39 2065.06 123.35 2063.82 129.78C2062.68 135.69 2061.83 202.1 2062.87 203.78C2063.46 204.74 2073.7 204.96 2108.57 204.76L2153.5 204.5L2153.5 167.5C2153.5 121.24 2153.89 122.65 2139.5 117.45C2137.63 116.77 2137.66 116.68 2140 115.96C2143.38 114.93 2204.98 114.93 2207.5 115.96C2209.33 116.71 2209.25 116.87 2206.5 117.91C2196.17 121.81 2194.81 125.98 2193.01 159.5C2191.79 182.15 2192.41 264.5 2193.92 281.5C2196.11 306.07 2197.36 308.42 2209.32 310.5C2221.82 312.67 2223.02 315.82 2212.21 318.06C2198.86 320.83 2148.05 320.82 2134.69 318.04C2128.94 316.85 2126.71 314.89 2128.76 312.84C2129.32 312.28 2133.59 311.25 2138.23 310.57C2142.87 309.88 2147.25 308.97 2147.95 308.53C2148.65 308.1 2150.19 305.66 2151.36 303.12C2153.41 298.69 2153.51 296.87 2153.82 259.1C2154.08 227.25 2153.89 219.55 2152.82 218.87C2152.1 218.41 2131.87 218.02 2107.87 218.02C2070.7 218 2064.06 218.22 2063.03 219.47C2061.41 221.41 2062.32 291.91 2064.06 299.91C2065.71 307.52 2068.07 309.53 2076.31 310.37C2087.06 311.47 2091.49 314.72 2085.39 317.04C2078.82 319.54 2049.22 320.92 2024 319.9ZM966 263.94C898.23 262.97 883 261.26 883 254.62C883 246.03 902.27 245.01 1064 245.02C1184.87 245.02 1222.29 245.78 1235.39 248.51C1242.94 250.09 1246.5 252.52 1245.42 255.35C1243.67 259.91 1234.77 261.61 1205.5 262.97C1178.19 264.25 1029.41 264.85 966 263.94ZM930 204.35C913.41 203.73 895.19 201.95 890.09 200.43C886.32 199.32 884.59 198.19 883.74 196.33C881.26 190.88 887.97 188.87 915.62 186.8C937.85 185.13 1190.1 185.14 1212.38 186.8C1232.93 188.34 1240.53 189.69 1243.61 192.37C1245.92 194.37 1245.97 194.64 1244.49 196.74C1243.58 198.02 1240.7 199.61 1237.7 200.47C1225.58 203.97 1212.7 204.29 1074.5 204.48C999.7 204.58 934.67 204.52 930 204.35Z" fill="#1e2749" fill-rule="evenodd"/>
</svg>
