<?xml version="1.0" encoding="UTF-8"?>
<svg xmlns="http://www.w3.org/2000/svg" viewBox="0 0 497 194" width="497" height="194" shape-rendering="geometricPrecision">
<path d="M233.5 172.46C224.41 172.04 210.57 170.38 204.5 168.99C203.77 168.82 202.34 168.53 201.33 168.34C197.04 167.55 192.69 166.55 187 165.05C180.92 163.44 178.79 162.8 176.83 161.98C176.47 161.83 175.04 161.33 173.67 160.88C170.35 159.78 166.33 158.38 165.5 158.03C165.13 157.88 163.93 157.41 162.83 156.99C161.73 156.56 159.86 155.78 158.67 155.25C156.03 154.08 155.62 153.9 153.5 152.97C150.82 151.81 140.18 146.45 138.78 145.58C138.08 145.13 136.6 144.27 135.5 143.67C133.63 142.63 132.35 141.84 126 137.78C118.73 133.14 107.96 125.08 101.44 119.43C98.85 117.18 96.62 115.33 96.49 115.33C96.18 115.33 96.62 118.21 97.09 119.22C97.39 119.89 97.34 120.14 96.81 120.67C96.45 121.03 95.99 121.2 95.77 121.07C95.36 120.81 93 112.25 93 111.01C93 110.01 93.85 109.82 95.62 110.43C96.47 110.72 97.84 111.06 98.67 111.18C100.64 111.46 103.61 112.31 103.82 112.64C103.91 112.79 103.7 113.17 103.35 113.49C102.79 113.99 102.48 114.02 101.01 113.7C98.81 113.23 98.33 113.24 98.35 113.75C98.37 114.26 107.03 121.8 111.3 125.02C122.3 133.32 131.93 139.65 140.17 144C153.22 150.89 161.61 154.7 169.17 157.17C169.9 157.41 172.45 158.3 174.83 159.16C180.6 161.24 181.54 161.54 185.83 162.66C195.38 165.16 202.07 166.6 209 167.62C224.48 169.92 227.69 170.15 244 170.14C256.32 170.13 259.04 170.04 264.83 169.4C273.86 168.41 281.23 167.32 286.5 166.21C292.88 164.87 293.97 164.63 295.67 164.19C296.67 163.92 298.32 163.46 299.33 163.16C300.34 162.86 301.92 162.41 302.83 162.17C304.43 161.75 306.2 161.2 313.5 158.82C317.36 157.56 324.26 155.01 326.37 154.05C327.18 153.69 329.01 152.85 330.45 152.2C331.88 151.54 333.11 151 333.18 151C333.24 151 335.94 149.73 339.18 148.17C344.28 145.71 354.86 139.74 356.33 138.49C356.61 138.26 357.57 137.66 358.46 137.16C361.29 135.6 370.34 129.37 374.83 125.9C379.69 122.15 384.61 117.89 391.4 111.56C394.85 108.35 396.16 107.31 396.72 107.39C397.12 107.45 397.52 107.71 397.6 107.96C397.89 108.84 385.45 120.17 376.67 127.03C371.07 131.41 363.52 136.84 361.2 138.17C360.24 138.72 359.03 139.5 358.52 139.92C358 140.33 357.47 140.67 357.33 140.67C357.2 140.67 354.7 142.03 351.79 143.69C346.91 146.47 334.36 152.88 331.66 153.96C330.36 154.48 327.85 155.55 326.83 156C321.71 158.31 312.27 161.6 304.33 163.85C302.77 164.29 301.05 164.8 300.5 164.97C298 165.75 294.1 166.71 289.5 167.65C282.89 169.01 281.97 169.17 276.5 169.98C273.93 170.36 270.86 170.82 269.67 171.01C262.42 172.14 243.16 172.91 233.5 172.46ZM239.47 165.53C239.37 165.27 239.66 164.11 240.11 162.95C240.56 161.79 241.42 159.56 242.01 158C242.6 156.44 243.43 154.28 243.84 153.2C244.59 151.26 245.35 150.43 246 150.83C246.41 151.09 246.43 152.15 246.03 152.92C245.87 153.24 245.51 154.1 245.24 154.83C244.97 155.57 244.51 156.77 244.22 157.5C243.94 158.23 243.16 160.26 242.49 162C241.82 163.74 241.12 165.35 240.93 165.58C240.47 166.14 239.69 166.11 239.47 165.53ZM232.25 163.31C230.98 162.57 230.25 160.38 230.25 157.29C230.25 152.58 231.52 150.83 234.75 151.1C237.59 151.34 238.67 153.06 238.67 157.36C238.67 161.69 237.31 163.68 234.37 163.66C233.53 163.65 232.57 163.49 232.25 163.31ZM249.03 162.7C248.11 161.72 247.33 159.19 247.34 157.22C247.34 155.56 248.24 152.61 248.96 151.89C249.77 151.08 252.5 150.79 253.63 151.4C256.67 153.04 257.18 159.85 254.47 162.58C253.54 163.53 253.18 163.67 251.67 163.67C250.19 163.67 249.8 163.53 249.03 162.7ZM259.08 163.45C258.22 163.1 258.64 162.03 259.75 161.74L260.83 161.46L260.83 157.98L260.83 154.5L259.92 154.39C259.21 154.31 259 154.11 259 153.51C259 152.97 259.28 152.62 259.92 152.37C260.42 152.17 261.1 151.82 261.42 151.59C261.85 151.28 262.15 151.26 262.58 151.54C263.09 151.86 263.18 152.56 263.26 156.8L263.35 161.69L264.34 161.89C265.39 162.09 265.6 162.6 264.93 163.27C264.54 163.66 259.96 163.8 259.08 163.45ZM235.57 161.25C236.43 160.31 236.8 158.16 236.51 155.8C236.25 153.74 235.68 153 234.35 153C232.81 153 232.5 153.74 232.5 157.35C232.5 160.07 232.6 160.71 233.13 161.3C233.95 162.2 234.71 162.19 235.57 161.25ZM253.27 160.67C253.96 159.64 254.04 159.19 253.94 156.95C253.81 153.93 253.17 152.9 251.52 153.07C250.14 153.2 249.68 154.28 249.67 157.33C249.67 161.66 251.47 163.33 253.27 160.67ZM58 155.04C58 154.26 60.33 147.49 61.63 144.5C61.79 144.13 62.19 143.2 62.51 142.42C62.98 141.29 63.27 141 63.92 141C64.64 141 64.72 141.12 64.57 141.92C64.33 143.22 59.81 154.92 59.32 155.51C58.65 156.32 58 156.09 58 155.04ZM50 152.66C48.01 150.54 47.93 144.28 49.86 142.04C50.51 141.28 50.87 141.17 52.61 141.17C55.07 141.17 56.1 141.97 56.84 144.46C57.46 146.53 57.46 147.67 56.84 150C56.16 152.56 54.9 153.67 52.63 153.67C51.17 153.67 50.8 153.52 50 152.66ZM67.78 153.18C66.5 152.28 66 150.63 66 147.28C66 142.68 67.07 141.01 70 141.01C71.56 141.01 72.66 141.61 73.57 142.97C74.22 143.93 74.33 144.53 74.33 147.06C74.33 150.29 73.71 152.13 72.26 153.14C71.32 153.8 68.7 153.82 67.78 153.18ZM78.25 153.31C76.99 152.57 76.25 150.37 76.24 147.32C76.22 142.63 77.52 140.83 80.75 141.1C83.59 141.34 84.67 143.06 84.67 147.36C84.67 151.69 83.31 153.68 80.37 153.66C79.53 153.65 78.57 153.49 78.25 153.31ZM54.27 150.67C54.96 149.64 55.04 149.19 54.94 146.95C54.81 143.93 54.17 142.9 52.52 143.07C51.14 143.2 50.68 144.28 50.67 147.33C50.67 151.66 52.47 153.33 54.27 150.67ZM71.36 151.14C72.09 150.36 72.17 149.99 72.17 147.34C72.17 144.03 71.65 143 69.99 143C68.5 143 68.17 143.76 68.17 147.15C68.17 151.6 69.43 153.19 71.36 151.14ZM81.57 151.25C82.43 150.31 82.8 148.16 82.51 145.8C82.25 143.74 81.68 143 80.35 143C78.81 143 78.5 143.74 78.5 147.35C78.5 150.07 78.6 150.71 79.13 151.3C79.95 152.2 80.71 152.19 81.57 151.25ZM417 141.33C416.54 141.19 415.55 141.05 414.79 141.03C414.01 141.01 413.08 140.74 412.63 140.38C412.19 140.04 411.46 139.64 411 139.5C407.73 138.5 403.66 135.13 401.12 131.33C397.21 125.47 396.58 117.84 399.49 111.48C400.08 110.18 400.97 108.75 401.46 108.29L402.35 107.47L400.11 106.32C395.05 103.73 391.03 98.02 390.15 92.18C390.02 91.34 389.74 90.67 389.52 90.67C389.29 90.67 387.97 91.27 386.58 92C383.62 93.56 383 93.65 383 92.52C383 92.08 382.76 91.48 382.48 91.19C382 90.72 376.22 90.67 323.82 90.67L265.7 90.67L265.48 91.92C265.36 92.6 264.66 94.44 263.92 96C262.86 98.23 262.04 99.37 260.04 101.37C256.98 104.42 253.9 106.04 249.55 106.89C246.87 107.41 246.47 107.41 243.88 106.91C240.47 106.25 238.13 105.23 235.46 103.25C231.66 100.43 228.77 95.71 228.17 91.36C228.02 90.29 227.74 89.55 227.43 89.43C227.15 89.32 225.73 89.87 224.27 90.64C222.8 91.41 221.4 91.97 221.16 91.88C220.91 91.78 220.66 91.21 220.61 90.6L220.5 89.5L162.93 89.42L105.37 89.33L105.02 90.58C104.83 91.27 104.67 92.1 104.67 92.43C104.67 93.01 103.98 94.75 102.73 97.33C101.85 99.15 96.76 104.06 94.83 104.94C93.92 105.36 92.93 105.84 92.64 105.99C92.35 106.14 90.74 106.54 89.06 106.86C86.38 107.37 85.73 107.39 83.59 107C77.02 105.81 71.9 102.08 69.22 96.52C67.74 93.45 67.21 91.11 67.24 87.83C67.28 83.67 68.43 80.12 70.74 77.04C72.42 74.81 72.81 74.42 75.04 72.74C78.22 70.36 81.77 69.24 86 69.29C89.63 69.33 91.57 69.77 94.67 71.27C99.69 73.7 103.6 78.79 104.79 84.45C105.05 85.69 105.33 86.77 105.41 86.85C105.63 87.07 220 87.04 220.36 86.82C220.53 86.71 220.67 86.11 220.67 85.48C220.67 83.98 221.03 84 224.38 85.69C225.86 86.43 227.26 86.97 227.49 86.88C227.73 86.79 228.02 85.85 228.15 84.78C228.29 83.58 228.9 81.76 229.73 80.02C234.78 69.49 247.64 65.96 257.33 72.43C261.86 75.45 264.92 80.26 265.65 85.5C265.85 86.95 266.2 88.25 266.42 88.4C266.65 88.54 292.67 88.66 324.25 88.66C381.23 88.67 381.67 88.66 382.33 88C382.7 87.63 383 87.03 383 86.67C383 85.67 383.92 85.83 386.87 87.31C389.55 88.66 390 88.71 390 87.71C390 87.39 390.28 86.05 390.62 84.75C392.84 76.31 400.13 70.67 408.8 70.67C414.7 70.67 420.22 73.31 423.76 77.83C428.7 84.14 429.36 91.42 425.61 98.44C424.84 99.88 424.99 100.29 426.08 99.72C427.55 98.97 434.02 96.67 434.68 96.67C435.45 96.67 435.92 97.55 435.42 98.05C435.23 98.24 433.83 98.89 432.3 99.49C430.77 100.1 429.48 100.73 429.43 100.88C429.38 101.04 430.33 101.68 431.55 102.31C435.16 104.18 438.85 108.03 440.77 111.95C443.01 116.52 443.26 122.8 441.38 127.32C439.23 132.5 435.4 136.6 430.33 139.13C428.64 139.98 427 140.67 426.67 140.67C426.35 140.67 425.89 140.89 425.67 141.17C425.34 141.56 424.46 141.66 421.54 141.63C419.5 141.62 417.46 141.48 417 141.33ZM424.64 138.97C428.27 138.36 431.99 136.36 435 133.39C437.71 130.7 438.62 129.25 439.71 125.88C441.15 121.44 440.86 117.16 438.86 112.83C437.14 109.14 433.67 105.32 433.67 107.13C433.67 107.38 433.46 107.76 433.2 107.97C432.84 108.28 432.27 107.93 430.42 106.26C426.4 102.62 424.54 101 424.39 101C424.32 101 423.31 101.88 422.16 102.95C417.19 107.6 410.92 109.54 405.2 108.2C403 107.68 402.02 107.73 402.96 108.31C403.31 108.53 403.15 109.06 402.19 110.77C398.33 117.66 398.93 124.95 403.9 131.76C405.78 134.32 411.08 138 412.9 138C413.34 138 414.04 138.18 414.44 138.39C416.22 139.35 420.79 139.61 424.64 138.97ZM454.34 137.11C454.34 135.54 459.15 123.18 459.8 123.06C461.36 122.75 461.32 123.18 459.3 128.56C456.33 136.48 455.73 137.78 454.92 137.94C454.47 138.02 454.33 137.83 454.34 137.11ZM59.67 135.89C54.65 134.33 51.52 132.15 48.17 127.85C45.59 124.54 44.7 122.63 43.67 118.21C41.09 107.11 47.2 95.92 57.52 92.82C60 92.08 66.07 91.94 66.73 92.61C67.45 93.33 65.95 94.34 64.5 94.1C63.87 94 62.11 94.1 60.59 94.33C53.96 95.31 48.48 99.89 46.27 106.28C45.6 108.2 45.5 109.15 45.5 113.33C45.5 117.53 45.61 118.46 46.28 120.43C47.28 123.31 49.23 126.25 51.99 129.03C57.45 134.55 66.46 136.21 72.9 132.9C76.11 131.24 78.67 129.04 80.36 126.48C81.6 124.59 83.33 120.88 83.33 120.1C83.33 120 82.88 120.01 82.33 120.12C81.38 120.31 81.33 120.26 81.33 119.21C81.33 118.6 81.66 116.92 82.05 115.47C82.44 114.02 82.83 112.16 82.92 111.33C83.19 108.71 84.2 108.29 85.83 110.12C86.38 110.73 88.08 112.34 89.6 113.68C92.28 116.05 92.83 117.03 91.61 117.27C91.3 117.32 90.07 116.54 88.87 115.52C87.67 114.5 86.55 113.67 86.39 113.67C86.23 113.67 86 115.01 85.89 116.66C85.5 122.08 83.42 126.6 79.52 130.49C75.24 134.76 71.73 136.32 66 136.53C62.68 136.65 61.83 136.56 59.67 135.89ZM446.42 135.45C445.64 135.13 446.01 134.17 447.09 133.67L448.17 133.17L448.17 129.83L448.17 126.5L447.25 126.39C446.53 126.31 446.33 126.12 446.33 125.48C446.33 125.03 446.52 124.66 446.75 124.66C446.98 124.66 447.54 124.36 448 124C449.14 123.11 450.2 123.14 450.46 124.08C450.57 124.5 450.66 126.81 450.66 129.22L450.67 133.61L451.67 133.83C452.8 134.08 452.98 134.81 452.02 135.32C451.37 135.67 447.2 135.76 446.42 135.45ZM463.75 135.45C462.98 135.13 463.34 134.17 464.42 133.67L465.5 133.17L465.6 129.93L465.69 126.69L464.6 126.41C463.1 126.02 463.01 125.16 464.39 124.52C465 124.24 465.74 123.84 466.04 123.62C466.33 123.4 466.82 123.32 467.12 123.44C467.59 123.62 467.67 124.3 467.67 128.24C467.67 130.77 467.79 133.01 467.93 133.22C468.06 133.44 468.58 133.72 469.09 133.84C470.15 134.11 470.28 134.83 469.36 135.32C468.71 135.67 464.53 135.76 463.75 135.45ZM474 134.66C472.01 132.54 471.93 126.28 473.86 124.04C474.51 123.28 474.87 123.17 476.61 123.17C479.07 123.17 480.1 123.97 480.84 126.46C481.46 128.53 481.46 129.67 480.84 132C480.16 134.56 478.9 135.67 476.63 135.67C475.17 135.67 474.8 135.52 474 134.66ZM478.27 132.67C478.96 131.64 479.04 131.19 478.94 128.95C478.81 125.93 478.17 124.9 476.52 125.07C475.14 125.2 474.68 126.28 474.67 129.33C474.67 133.66 476.47 135.33 478.27 132.67ZM317.47 109.53C317.37 109.27 317.66 108.11 318.11 106.95C318.56 105.79 319.42 103.56 320.01 102C320.6 100.44 321.43 98.28 321.84 97.2C322.59 95.26 323.35 94.43 324 94.83C324.43 95.1 324.43 96.57 324 96.83C323.82 96.95 323.67 97.27 323.67 97.55C323.67 97.83 323.46 98.54 323.21 99.12C322.67 100.36 322.12 101.75 320.49 106C319.82 107.74 319.12 109.35 318.93 109.58C318.47 110.14 317.69 110.11 317.47 109.53ZM149.22 107.52C148.91 106.71 154.13 93.19 154.8 93.06C156.36 92.75 156.32 93.18 154.3 98.56C151.36 106.4 150.72 107.78 149.96 107.93C149.66 107.99 149.33 107.8 149.22 107.52ZM309.75 107.45C308.98 107.13 309.34 106.17 310.42 105.67L311.5 105.17L311.6 101.93L311.69 98.69L310.6 98.41C309.1 98.02 309.01 97.16 310.39 96.52C311 96.24 311.74 95.84 312.04 95.62C312.33 95.4 312.82 95.32 313.12 95.44C313.59 95.62 313.67 96.29 313.67 100.13C313.67 104.55 313.8 105.67 314.35 105.67C314.5 105.67 315.05 105.83 315.56 106.03L316.5 106.39L315.71 107.03C315.09 107.53 314.43 107.66 312.55 107.64C311.24 107.63 309.98 107.54 309.75 107.45ZM327.08 107.45C326.22 107.1 326.64 106.03 327.75 105.74L328.83 105.46L328.83 101.98L328.83 98.5L327.92 98.39C327.21 98.31 327 98.11 327 97.51C327 96.97 327.28 96.62 327.92 96.37C328.42 96.17 329.1 95.82 329.42 95.59C329.85 95.28 330.15 95.26 330.58 95.54C331.09 95.86 331.18 96.56 331.26 100.8L331.35 105.69L332.34 105.89C333.39 106.09 333.6 106.6 332.93 107.27C332.54 107.66 327.96 107.8 327.08 107.45ZM337.78 107.18C336.5 106.28 336 104.63 336 101.28C336 96.68 337.07 95.01 340 95.01C341.56 95.01 342.66 95.61 343.57 96.97C344.22 97.93 344.33 98.53 344.33 101.06C344.33 104.29 343.71 106.13 342.26 107.14C341.32 107.8 338.7 107.82 337.78 107.18ZM411.1 106.31C412.42 106.12 413.97 105.74 414.55 105.48C415.13 105.22 415.7 105 415.82 105C415.93 105 416.85 104.48 417.84 103.84C421.64 101.41 424.39 97.6 425.51 93.23C428.09 83.12 419.61 72.67 408.83 72.67C404.3 72.67 400.27 74.36 396.99 77.65C387.3 87.38 392.74 104.05 406.33 106.29C407.34 106.45 408.29 106.61 408.44 106.63C408.58 106.65 409.78 106.51 411.1 106.31ZM341.36 105.14C342.09 104.36 342.17 103.99 342.17 101.34C342.17 98.03 341.65 97 339.99 97C338.48 97 338.17 97.75 338.17 101.35C338.17 104.07 338.27 104.71 338.8 105.3C339.64 106.23 340.38 106.18 341.36 105.14ZM141.42 105.45C140.62 105.13 140.99 104.12 142.08 103.64L143.17 103.17L143.26 99.91L143.36 96.65L142.35 96.45C141.56 96.3 141.33 96.07 141.33 95.46C141.33 95.02 141.52 94.66 141.75 94.66C141.98 94.66 142.54 94.36 143 94C144.14 93.11 145.2 93.14 145.46 94.08C145.57 94.5 145.66 96.81 145.66 99.22L145.67 103.61L146.67 103.83C147.8 104.08 147.98 104.81 147.02 105.32C146.37 105.67 142.2 105.76 141.42 105.45ZM159.03 104.7C158.11 103.72 157.33 101.19 157.34 99.22C157.34 97.56 158.24 94.61 158.96 93.89C159.77 93.08 162.5 92.79 163.63 93.4C166.67 95.04 167.18 101.85 164.47 104.58C163.54 105.53 163.18 105.67 161.67 105.67C160.19 105.67 159.8 105.53 159.03 104.7ZM169.08 105.45C168.22 105.1 168.64 104.03 169.75 103.74L170.83 103.46L170.83 99.98L170.83 96.5L169.92 96.39C169.21 96.31 169 96.11 169 95.51C169 94.97 169.28 94.62 169.92 94.37C170.42 94.17 171.1 93.82 171.42 93.59C171.85 93.28 172.15 93.26 172.58 93.54C173.09 93.86 173.18 94.56 173.26 98.8L173.35 103.69L174.34 103.89C175.39 104.09 175.6 104.6 174.93 105.27C174.54 105.66 169.96 105.8 169.08 105.45ZM90.34 104.5C93.33 103.72 95.63 102.37 98 100C100.48 97.52 101.69 95.45 102.54 92.27C103.11 90.11 103.11 90.01 102.5 88.87C101.9 87.77 101.9 87.66 102.43 87.07C103.13 86.31 103.14 85.65 102.49 83.5C100.92 78.29 97.11 74.19 92 72.2C90.04 71.45 84.7 71.13 82.36 71.63C76.1 72.97 70.97 78.1 69.63 84.36C69.12 86.71 69.45 92.05 70.21 94C71.56 97.46 74.4 100.89 77.31 102.6C81.13 104.85 86.16 105.58 90.34 104.5ZM250.83 104.53C253.35 103.84 254.91 103.09 256.88 101.63C260.37 99.06 262.62 95.34 263.57 90.6C264.07 88.1 264.08 87.69 263.58 85.33C262.76 81.45 261.55 79.18 258.8 76.41C256.97 74.57 255.76 73.69 253.78 72.75L251.17 71.51L246.67 71.51L242.17 71.51L239.5 72.81C232.35 76.29 228.83 83.57 230.35 91.78C231.37 97.31 236.2 102.54 241.95 104.35C244.26 105.07 248.55 105.16 250.83 104.53ZM163.27 102.67C163.96 101.64 164.04 101.19 163.94 98.95C163.81 95.93 163.17 94.9 161.52 95.07C160.14 95.2 159.68 96.28 159.67 99.33C159.67 103.66 161.47 105.33 163.27 102.67ZM405 94.94C401.59 92.66 401.4 86.33 404.67 83.99C407.34 82.1 413.47 83.2 412.32 85.37C412.06 85.83 411.77 85.98 411.39 85.81C409.01 84.8 408.22 84.65 407.13 85.01C405.37 85.59 404.67 86.75 404.67 89.06C404.67 91.21 405.24 92.66 406.41 93.48C407.32 94.12 408.9 94.13 410 93.5C411 92.93 412.21 92.86 412.52 93.37C412.65 93.57 412.35 94.13 411.87 94.61C411.12 95.36 410.66 95.5 408.58 95.61C406.49 95.71 406.01 95.62 405 94.94ZM242.92 91.44C242.39 91.3 242.33 90.72 242.33 85.31L242.33 79.33L245.37 79.33C249.91 79.33 251.29 80.44 250.34 83.31C249.95 84.49 249.98 84.62 250.8 85.43C252.5 87.14 251.47 90.09 248.78 91.21C247.75 91.64 244.21 91.77 242.92 91.44ZM81 90.54C81 90.1 81.36 88.79 81.8 87.62C82.24 86.46 83 84.3 83.5 82.83C84.62 79.56 84.8 79.33 86.2 79.33C87.54 79.33 87.71 79.62 89.5 84.83C90.2 86.85 90.98 88.92 91.24 89.44C91.6 90.17 91.62 90.49 91.31 90.86C90.58 91.74 89.67 91.41 89.11 90.08C88.43 88.46 88.22 88.34 85.76 88.34C83.76 88.33 83.67 88.37 83.46 89.25C83.01 91.17 81 92.22 81 90.54ZM248.46 88.98C249.42 88.22 249.61 86.98 248.86 86.35C248.59 86.13 247.54 85.87 246.52 85.76L244.67 85.57L244.67 87.62L244.67 89.67L246.12 89.67C247.09 89.67 247.87 89.44 248.46 88.98ZM87.22 85.82C87.46 85.18 86.64 82.93 86.09 82.75C85.87 82.68 85.59 83.04 85.47 83.56C85.34 84.08 85.1 84.69 84.92 84.91C84.74 85.14 84.68 85.55 84.79 85.83C85.04 86.5 86.96 86.5 87.22 85.82ZM247.81 83.36C248.79 82.28 248.36 81.54 246.54 81.21C244.75 80.88 244.35 81.15 244.34 82.69C244.33 83.83 244.55 84 246 84C246.79 84 247.44 83.77 247.81 83.36ZM232 67.45C228.2 63.98 224.63 61.22 218.69 57.2C212.28 52.86 206.53 49.92 197.39 46.3C196.22 45.83 193.09 44.82 190.83 44.18C189.73 43.86 188.16 43.41 187.33 43.16C186.51 42.92 184.93 42.54 183.83 42.33C182.73 42.12 180.78 41.73 179.5 41.47C174.35 40.44 167.46 39.87 160 39.85C150.59 39.83 143.59 40.5 137.5 42C136.77 42.18 134.82 42.64 133.17 43.02C129.26 43.92 127.03 44.61 122.17 46.45C114.96 49.16 114.02 49.6 106.19 53.91C100.36 57.11 90.67 63.97 90.67 64.88C90.67 65.43 91.02 65.44 93.47 64.95C95.15 64.61 95.44 64.63 95.94 65.14C96.47 65.67 96.46 65.73 95.91 66.15C95.58 66.39 94.01 66.85 92.41 67.17C90.81 67.49 88.73 67.94 87.8 68.16C85.29 68.78 84.32 67.89 85.37 65.93C85.57 65.55 86.14 63.59 86.63 61.57C87.59 57.64 88.28 56.6 89.15 57.76C89.6 58.37 89.57 58.59 88.64 61.93C88.42 62.71 88.33 63.44 88.43 63.54C88.53 63.64 89.69 62.81 91.01 61.7C96.16 57.38 102.42 53.44 110.33 49.53C118.19 45.66 120.35 44.76 127.17 42.48C131.03 41.2 132.56 40.8 136 40.16C137.38 39.91 139.77 39.46 141.33 39.17C142.89 38.87 147.58 38.35 151.75 38C158.71 37.43 159.91 37.41 166.25 37.83C170.05 38.08 174.89 38.61 177 39C184.6 40.4 185.86 40.65 187.5 41.13C188.42 41.4 189.77 41.79 190.5 42.01C197.35 44.02 202.39 45.98 207.98 48.8C215.93 52.8 221.14 56.14 227.94 61.61C234.46 66.84 237.17 69.42 236.9 70.12C236.49 71.18 235.47 70.62 232 67.45ZM155.22 61.52C154.91 60.71 160.13 47.19 160.8 47.06C162.36 46.75 162.32 47.18 160.3 52.56C157.36 60.4 156.72 61.78 155.96 61.93C155.66 61.99 155.33 61.8 155.22 61.52ZM147.78 59.18C146.5 58.28 146 56.63 146 53.28C146 48.68 147.07 47.01 150 47.01C151.56 47.01 152.66 47.61 153.57 48.97C154.22 49.93 154.33 50.53 154.33 53.06C154.33 56.29 153.71 58.13 152.26 59.14C151.32 59.8 148.7 59.82 147.78 59.18ZM165.03 58.7C164.11 57.72 163.33 55.19 163.34 53.22C163.34 51.56 164.24 48.61 164.96 47.89C165.77 47.08 168.5 46.79 169.63 47.4C172.67 49.04 173.18 55.85 170.47 58.58C169.54 59.53 169.18 59.67 167.67 59.67C166.19 59.67 165.8 59.53 165.03 58.7ZM175.08 59.45C174.22 59.1 174.64 58.03 175.75 57.74L176.83 57.46L176.83 53.98L176.83 50.5L175.92 50.39C175.21 50.31 175 50.11 175 49.51C175 48.97 175.28 48.62 175.92 48.37C176.42 48.17 177.1 47.82 177.42 47.59C177.85 47.28 178.15 47.26 178.58 47.54C179.09 47.86 179.18 48.56 179.26 52.8L179.35 57.69L180.34 57.89C181.39 58.09 181.6 58.6 180.93 59.27C180.54 59.66 175.96 59.8 175.08 59.45ZM151.36 57.14C152.09 56.36 152.17 55.99 152.17 53.34C152.17 50.03 151.65 49 149.99 49C148.5 49 148.17 49.76 148.17 53.15C148.17 57.6 149.43 59.19 151.36 57.14ZM169.27 56.67C169.96 55.64 170.04 55.19 169.94 52.95C169.81 49.93 169.17 48.9 167.52 49.07C166.14 49.2 165.68 50.28 165.67 53.33C165.67 57.66 167.47 59.33 169.27 56.67ZM197.75 1.45C197.52 1.35 197.33 0.99 197.33 0.64C197.33 0.12 197.57 0 198.67 0C200.13 0 200.31 0.28 199.39 1.12C198.77 1.68 198.48 1.74 197.75 1.45Z" fill="#1e2749" fill-rule="evenodd"/>
</svg>
