<?xml version="1.0" encoding="UTF-8"?>
<svg xmlns="http://www.w3.org/2000/svg" viewBox="0 0 2430 1833" width="2430" height="1833" shape-rendering="geometricPrecision">
<path d="M947.99 1798.07C938.52 1795.18 937.23 1792.42 941.57 1784.3C943.58 1780.54 944.01 1778.64 943.54 1775.5C943.12 1772.62 943.49 1770.45 944.87 1767.75C946.75 1764.07 946.75 1763.95 944.89 1761.59C942.77 1758.9 942.28 1750.03 943.99 1745.52C945.59 1741.31 950.96 1739.66 961 1740.29C965.67 1740.58 970.99 1741.36 972.8 1742.03C975.75 1743.1 975.95 1743.41 974.67 1744.87C973.88 1745.76 972.92 1749.19 972.52 1752.47C971.91 1757.53 971.25 1758.99 968.11 1762.12C965.22 1765.02 963.35 1765.96 959.46 1766.49C952.34 1767.46 951 1767.95 951 1769.59C951 1771.5 954.5 1772.76 963.32 1774.06C972.93 1775.46 975.69 1776.66 976.83 1779.93C980.7 1791.04 962.5 1802.48 947.99 1798.07ZM854.5 1795.81C847.12 1791.87 840.17 1781.08 837.38 1769.25C833.51 1752.78 839.53 1732.55 851.3 1722.47C857.54 1717.13 858.51 1718.3 853.49 1725.12C846.87 1734.11 844.49 1742.58 844.54 1757C844.56 1763.33 845.17 1770.97 845.89 1774C847.3 1779.83 851.9 1789.05 855.22 1792.68C857.72 1795.41 857.29 1797.3 854.5 1795.81ZM1601 1796.11C1601 1795.58 1602.05 1793.88 1603.34 1792.33C1611.31 1782.71 1614.44 1771.75 1613.72 1756C1613.16 1743.74 1610.83 1735.51 1605.47 1726.81C1603.45 1723.54 1601.99 1720.67 1602.24 1720.43C1603.08 1719.58 1614.75 1732.59 1616.87 1736.74C1625.78 1754.2 1622.81 1777.29 1610 1790.1C1605.1 1794.99 1601 1797.73 1601 1796.11ZM967.67 1791.06C971.95 1789.12 974.61 1785.8 973.42 1783.88C970.19 1778.65 948.15 1778.82 946.47 1784.08C944.27 1791.03 957.88 1795.51 967.67 1791.06ZM870.75 1779.21C866.37 1778.82 866.12 1777.84 869.4 1773.94C871.54 1771.39 871.87 1769.74 872.55 1758.3C873.44 1743.08 872.12 1727.89 869.66 1725.18C868.75 1724.17 868 1722.88 868 1722.32C868 1720.02 901.8 1719.89 906.25 1722.17C908.07 1723.1 908.73 1728.43 907.15 1729.41C906.68 1729.7 904.82 1728.84 903.01 1727.51C896.91 1723 883.07 1721.78 881.6 1725.61C880.64 1728.11 880.91 1741.63 881.98 1744.43C882.78 1746.56 883.59 1747 886.73 1747C888.8 1746.99 892.02 1746.07 893.87 1744.94C898.52 1742.1 900 1742.96 900 1748.5C900 1753.73 898.43 1754.98 894.83 1752.63C891.8 1750.64 884.91 1749.65 883 1750.93C881.82 1751.72 881.5 1754.26 881.5 1762.86C881.5 1772.17 881.78 1774.1 883.39 1775.88C884.88 1777.52 884.98 1778.05 883.89 1778.4C881.57 1779.13 874.72 1779.55 870.75 1779.21ZM920.25 1779.29C917.76 1778.81 917.34 1777.06 919.25 1775.15C920.13 1774.27 920.5 1769.86 920.5 1760.37C920.5 1748.64 920.27 1746.67 918.75 1745.56C916.47 1743.89 916.53 1742.32 918.93 1741.04C922.3 1739.23 924.98 1739.81 926.02 1742.57C926.56 1743.98 927 1750.16 927.01 1756.32C927.01 1768.89 928.12 1774.27 931.14 1776.38L933.2 1777.83L931.16 1778.91C929.16 1779.98 924.65 1780.14 920.25 1779.29ZM1024.71 1779C1019.88 1778.61 1014.81 1777.7 1013.45 1776.97C1011.33 1775.84 1010.45 1775.89 1007.45 1777.32C1005.49 1778.26 1001.52 1779 998.49 1779C990.93 1779 990.19 1777.62 989 1761.38C988.48 1754.3 988.05 1747.97 988.03 1747.33C988.01 1746.68 986.83 1744.77 985.41 1743.08L982.82 1740L987.21 1740C989.62 1740 992.14 1740.54 992.8 1741.2C993.47 1741.87 994 1745.09 994.01 1748.45C994.02 1756.83 995.78 1766.92 997.86 1770.5C1001.63 1777 1009.78 1773.25 1012 1764.01C1013.92 1756 1011.82 1745.58 1007.57 1742.05C1006.7 1741.34 1006 1740.3 1006 1739.75C1006 1738.34 1016.03 1739.43 1016.96 1740.94C1017.37 1741.6 1018.01 1747.17 1018.39 1753.3C1018.91 1761.9 1019.61 1765.65 1021.44 1769.64C1027.15 1782.13 1033.98 1776.83 1033.99 1759.9C1034 1752.23 1032.57 1747.38 1029.89 1745.94C1026.79 1744.28 1027.69 1742.16 1032 1741C1036.64 1739.75 1039.49 1740.8 1040.55 1744.16C1040.93 1745.35 1040.92 1751.61 1040.54 1758.07C1039.82 1770.04 1040.43 1773.4 1043.65 1775.3C1046 1776.69 1045.12 1778.73 1041.88 1779.38C1038.47 1780.06 1037.67 1780.04 1024.71 1779ZM1067.96 1777.75C1064.72 1776.12 1062.86 1774.27 1061.18 1771C1056.82 1762.54 1059.7 1745.86 1066.26 1741.57C1071.56 1738.1 1081.89 1738.76 1087.16 1742.91C1088.5 1743.96 1090.46 1746.43 1091.52 1748.4C1094.58 1754.08 1092.9 1754.99 1077.67 1755.88C1070.73 1756.28 1064.78 1756.89 1064.45 1757.22C1063.1 1758.57 1071.11 1769.72 1075.48 1772.58C1077.53 1773.92 1078.27 1773.87 1083.01 1772C1085.9 1770.86 1088.53 1770.19 1088.85 1770.52C1090.01 1771.67 1086.45 1776.31 1083.02 1778.14C1078.38 1780.62 1073.39 1780.49 1067.96 1777.75ZM1126.25 1779.29C1123.54 1778.77 1123.47 1778.25 1125.75 1775.73C1127.28 1774.04 1127.54 1771.09 1127.81 1752.24C1128.01 1738.02 1127.73 1729.77 1127 1728C1126.39 1726.53 1124.23 1724.46 1122.19 1723.41L1118.5 1721.5L1123.79 1721.2C1132.32 1720.71 1134.42 1722.54 1156.99 1750.26C1163.37 1758.09 1166.82 1761.58 1167.49 1760.91C1168.09 1760.31 1168.5 1753.19 1168.5 1743.53C1168.5 1728.06 1168.37 1727 1166.22 1724.08L1163.94 1721L1171.14 1721L1178.35 1721L1176.09 1723.4C1172.71 1727 1172.02 1731.5 1171.33 1754.27C1170.94 1766.92 1170.26 1775.63 1169.58 1776.56C1168.67 1777.81 1165.48 1774.37 1151.53 1757.04C1142.22 1745.47 1134.24 1736 1133.82 1736C1132.26 1736 1131.86 1741.02 1132.18 1756.77C1132.49 1772.28 1132.59 1772.94 1134.97 1775.48C1137.06 1777.69 1137.21 1778.25 1135.97 1779.04C1134.48 1779.98 1130.37 1780.09 1126.25 1779.29ZM1203.43 1778.17C1197.82 1775.54 1192.43 1770.59 1189.21 1765.11C1186.71 1760.85 1186.5 1759.66 1186.5 1749.5C1186.51 1736.93 1187.33 1734.64 1194.06 1728.56C1200.35 1722.88 1206.2 1720.61 1214.5 1720.63C1222.85 1720.66 1227.26 1722.35 1233.23 1727.86C1241.98 1735.92 1245.43 1749.35 1241.44 1759.8C1239.3 1765.4 1231.09 1774.4 1225.51 1777.26C1219.72 1780.23 1208.77 1780.68 1203.43 1778.17ZM1365.16 1778.36C1358.16 1774.8 1353 1767.33 1353 1760.76C1353 1755.75 1355.45 1748.41 1358.41 1744.53C1361.83 1740.05 1369.59 1738.07 1376.34 1739.95C1381.81 1741.49 1387.2 1745.79 1389.37 1750.37C1393.21 1758.47 1389.93 1770.9 1382.44 1776.61C1377.87 1780.1 1370.1 1780.88 1365.16 1778.36ZM1423.75 1778.92C1422.45 1778.16 1422 1776.61 1422 1772.87C1422 1767.16 1422.87 1766.99 1426.22 1772C1428.21 1774.96 1429.22 1775.55 1432.86 1775.81C1437.37 1776.14 1442 1774.04 1442 1771.67C1442 1770.03 1436.85 1765.19 1430.67 1761.04C1423.48 1756.21 1420.49 1750.09 1422.62 1744.54C1423.58 1742.05 1428.35 1740.04 1434.94 1739.35C1442.36 1738.57 1446 1740.42 1446 1744.96C1446 1748.87 1444.58 1749.53 1442.61 1746.53C1440.8 1743.77 1434.06 1741.52 1430.37 1742.44C1428.74 1742.85 1428 1743.75 1428 1745.33C1428 1748.56 1429.65 1750.47 1437.52 1756.34C1444.69 1761.7 1449 1766.91 1449 1770.22C1449 1773.05 1443.93 1777.65 1439.42 1778.9C1434.52 1780.26 1426.07 1780.27 1423.75 1778.92ZM1464.42 1778.92C1458.42 1777.18 1455.12 1770.67 1455.04 1760.43C1454.95 1747.51 1463.5 1738.16 1474.29 1739.37C1482.7 1740.32 1488.09 1746.04 1484.41 1750.1C1482.66 1752.03 1482.56 1751.99 1478.03 1747.53C1472.82 1742.39 1470.34 1741.94 1466.35 1745.38C1463.9 1747.48 1463.53 1748.6 1463.18 1754.87C1462.69 1763.51 1463.24 1765.94 1466.59 1769.92C1468.73 1772.47 1469.9 1772.99 1473.34 1772.96C1475.63 1772.95 1478.62 1772.29 1480 1771.5C1481.38 1770.71 1483.38 1770.05 1484.45 1770.04C1486.05 1770.01 1485.7 1770.73 1482.49 1774.01C1477.19 1779.44 1471.51 1780.98 1464.42 1778.92ZM1500.02 1778.72C1495.16 1776.26 1493.58 1769.22 1496.69 1763.94C1497.63 1762.36 1500.96 1759.7 1504.1 1758.03C1509.47 1755.16 1516 1749.1 1516 1746.97C1516 1745.49 1512.18 1742 1510.57 1742C1507.94 1742 1504 1743.93 1504 1745.23C1503.99 1745.93 1503.08 1748 1501.96 1749.84C1500.28 1752.59 1499.66 1752.96 1498.46 1751.97C1496.32 1750.19 1496.63 1744.37 1499 1742C1500.65 1740.35 1502.33 1740 1508.55 1740C1516.57 1740 1521.24 1741.58 1522.45 1744.71C1522.83 1745.7 1523.6 1752.12 1524.15 1759C1524.8 1767.19 1525.64 1772.04 1526.58 1773.08C1528.6 1775.33 1528.35 1776.73 1525.58 1778.54C1523.34 1780.01 1522.87 1779.97 1519.12 1778.06C1514.12 1775.51 1513.44 1775.51 1510.27 1778C1507.37 1780.28 1503.63 1780.54 1500.02 1778.72ZM1539.02 1756.25C1539.05 1724.79 1540.06 1718.07 1544.77 1718.02C1547.21 1717.99 1547.85 1722.86 1548.52 1746.61C1548.89 1759.75 1549.63 1772.25 1550.17 1774.39C1551.37 1779.16 1550.45 1779.96 1543.75 1779.98L1539 1780L1539.02 1756.25ZM1571.03 1778.42C1566.43 1776.42 1564.19 1774.29 1561.84 1769.68C1558.53 1763.21 1558.36 1757.09 1561.29 1750.69C1567.45 1737.23 1583.69 1735.13 1591.11 1746.83C1594.02 1751.42 1594.02 1751.43 1592.02 1753.42C1590.38 1755.06 1588.2 1755.52 1579.76 1755.99C1574.12 1756.3 1568.94 1756.91 1568.25 1757.34C1563.57 1760.25 1573.55 1774 1580.35 1774C1581.15 1774 1584.14 1772.42 1587 1770.5C1589.86 1768.58 1592.39 1767 1592.63 1767C1593.64 1767 1589.94 1772.73 1587.34 1775.19C1582.21 1780.04 1577.1 1781.05 1571.03 1778.42ZM1266.5 1776.25C1266.9 1774.74 1267.43 1764.05 1267.68 1752.5C1268.35 1722.01 1266.68 1718.52 1255.72 1727.45C1252.65 1729.95 1249.82 1732 1249.44 1732C1248.38 1732 1249.62 1722.98 1250.84 1721.76C1251.52 1721.08 1260.04 1720.66 1274.7 1720.6L1297.5 1720.5L1297.82 1724.38C1298.2 1728.98 1296.69 1731.15 1295.14 1728.25C1293.76 1725.68 1282.53 1723.07 1280.7 1724.9C1279.83 1725.77 1279.52 1732.43 1279.57 1748.84C1279.63 1767.4 1279.93 1772.16 1281.22 1774.73C1282.08 1776.46 1282.53 1778.13 1282.23 1778.44C1281.92 1778.75 1278.09 1779 1273.72 1779L1265.77 1779L1266.5 1776.25ZM1337.31 1777.96C1334.84 1777 1334.59 1775.95 1333 1759.9C1332.42 1754.08 1331.51 1747.78 1330.97 1745.91C1329.5 1740.78 1329.78 1738.31 1332.25 1734.5C1335.02 1730.22 1336.78 1730.08 1338.16 1734.02C1339.35 1737.44 1341.65 1739 1345.49 1739C1348.84 1739 1347.9 1740.6 1343.47 1742.45C1339.11 1744.27 1338.55 1746.58 1339.36 1759.38C1339.91 1768 1340.32 1769.76 1342.11 1771.25C1343.27 1772.21 1345.07 1773 1346.11 1773C1347.15 1773 1348 1773.66 1348 1774.46C1348 1777.14 1341.03 1779.42 1337.31 1777.96ZM1223.75 1773.31C1230.87 1767.55 1233.84 1757.25 1232.06 1744.46C1230.89 1736.05 1228.32 1730.18 1224.49 1727.17C1219.02 1722.87 1207.42 1722.5 1203.02 1726.48C1202.01 1727.4 1200.16 1730.47 1198.9 1733.32C1195.86 1740.2 1195.51 1757.94 1198.27 1765.08C1202.65 1776.44 1214.97 1780.42 1223.75 1773.31ZM1379.37 1772.97C1385.86 1765.25 1383.18 1747.89 1374.85 1743.75C1361.86 1737.28 1355.89 1760.82 1367.56 1772.49C1372.1 1777.03 1375.83 1777.18 1379.37 1772.97ZM1512.69 1771.58C1515.15 1769.47 1515.48 1768.52 1515.35 1763.98C1515.14 1757.12 1514.06 1756.18 1509.57 1758.96C1504.98 1761.79 1503 1764.67 1503 1768.52C1503 1774.32 1507.77 1775.83 1512.69 1771.58ZM962.81 1760.7C967.06 1756.18 966.66 1750.7 961.7 1745.25C959 1742.29 952.55 1742.1 951.04 1744.93C949.67 1747.49 949.72 1753.58 951.12 1756.32C954.56 1762.99 959.07 1764.68 962.81 1760.7ZM1080.68 1750.85C1082.55 1749.3 1082.32 1747.32 1080 1745C1077.37 1742.37 1072.03 1742.41 1068.63 1745.07C1065.87 1747.25 1065.08 1751.42 1067.25 1752.39C1069.15 1753.24 1079.19 1752.09 1080.68 1750.85ZM1579.21 1752.01C1580.16 1752.01 1581.41 1751.1 1582 1749.99C1582.88 1748.35 1582.63 1747.54 1580.58 1745.49C1577.27 1742.18 1569.66 1741.9 1567.98 1745.04C1567.38 1746.16 1567.16 1747.93 1567.49 1748.97C1568.19 1751.16 1572.59 1753.08 1575.5 1752.46C1576.6 1752.22 1578.27 1752.02 1579.21 1752.01ZM1046.25 1745.78C1042.99 1744.21 1043.23 1740.23 1046.64 1739.38C1051.99 1738.03 1057.76 1742.17 1055.07 1745.42C1053.57 1747.22 1049.57 1747.38 1046.25 1745.78ZM921.7 1724.37C920.39 1723.06 920.99 1718.94 922.58 1718.33C924.99 1717.41 927.74 1720.61 926.38 1722.77C925.18 1724.66 922.81 1725.47 921.7 1724.37ZM690 1539.15C686.25 1538.04 686.96 1535.71 691.45 1534.46C698.45 1532.49 699.09 1530.67 699.69 1510.9C700.38 1488.02 699.38 1485.36 691.77 1490C687.78 1492.43 685.42 1492.54 684.58 1490.34C684.17 1489.29 684.87 1487.71 686.46 1486.04C690.49 1481.83 704.43 1473.89 708.81 1473.3C715.68 1472.38 716.09 1473.83 717.58 1503.81C718.27 1517.94 719.15 1530.26 719.51 1531.2C719.88 1532.13 722.43 1533.65 725.19 1534.56C729.83 1536.1 730.08 1536.35 728.57 1537.86C727.2 1539.24 724.15 1539.53 709.72 1539.69C700.25 1539.8 691.38 1539.55 690 1539.15ZM764.75 1538.92C762.5 1537.61 762.54 1535.91 764.91 1531.81C768.85 1524.97 768.79 1501.79 764.83 1497.83C763.75 1496.75 763.03 1495.12 763.21 1494.19C763.7 1491.72 779.69 1491.68 781.06 1494.15C781.91 1495.66 782.28 1495.64 785.7 1493.9C791.03 1491.18 800.27 1491.34 806.04 1494.25L810.5 1496.5L814.92 1494.25C818.02 1492.67 821.1 1492 825.22 1492C837.38 1492 839.58 1495.63 840.9 1517.9C841.38 1526.05 842.31 1533.71 842.96 1534.93C845.29 1539.28 843.88 1540 833.01 1540L822.96 1540L823.63 1520.67C824.38 1499.07 824.44 1499.26 817.43 1500.58C814.9 1501.05 813.88 1501.92 813.06 1504.25C811.45 1508.87 811.71 1530.36 813.42 1534.47C815.5 1539.43 814.09 1540.14 802.85 1539.79L793.5 1539.5L794 1526.5C794.81 1505.45 794.68 1502.04 793 1500.98C790.62 1499.47 787.42 1499.84 784.86 1501.91C782.68 1503.67 782.47 1504.67 782.16 1514.85C781.92 1522.95 782.26 1527.39 783.47 1531.53C785.72 1539.29 784.97 1540.01 774.63 1539.97C770.16 1539.95 765.71 1539.48 764.75 1538.92ZM1580.32 1534.29C1572.44 1533.28 1573.41 1530.05 1587.17 1511.68C1597.85 1497.4 1603 1488.34 1603 1483.79C1603 1479.49 1600.5 1475.45 1596.91 1473.96C1594.22 1472.85 1593.32 1472.87 1591.13 1474.1C1589.7 1474.9 1587.98 1476.67 1587.3 1478.03C1585.85 1480.97 1582.33 1484 1580.39 1484C1575.54 1484 1573.16 1474.79 1577.07 1471.15C1582.09 1466.47 1599.35 1464.9 1608.19 1468.31C1614.07 1470.58 1620 1476.9 1620 1480.89C1620 1484.82 1614.2 1493.17 1602.06 1506.73C1596.53 1512.91 1592 1518.36 1592 1518.85C1592 1519.34 1593.69 1520.02 1595.75 1520.36C1603.03 1521.56 1607.42 1521.03 1612.84 1518.28C1618.12 1515.61 1618.23 1515.6 1619.64 1517.53C1620.66 1518.91 1620.99 1521.67 1620.79 1526.99L1620.5 1534.5L1602 1534.6C1591.83 1534.66 1582.07 1534.52 1580.32 1534.29ZM1659.01 1534.11C1655.66 1533.18 1655.38 1530.75 1658.19 1526.96C1660.36 1524.02 1660.5 1522.93 1660.5 1509.12C1660.5 1496.79 1660.22 1493.98 1658.75 1491.74C1657.79 1490.27 1657 1488.45 1657 1487.7C1657 1485.7 1661.41 1484 1666.61 1484C1672.09 1484 1675 1485.4 1675 1488.04C1675 1489.12 1675.15 1490 1675.34 1490C1675.53 1490 1678.11 1488.66 1681.09 1487.02C1688.13 1483.14 1692.41 1483.13 1698.1 1486.98C1700.52 1488.62 1703.07 1489.97 1703.77 1489.98C1704.47 1489.99 1707.57 1488.65 1710.66 1487C1725.75 1478.95 1733.86 1487.4 1734.06 1511.39C1734.14 1521.51 1735.41 1528.09 1737.57 1529.68C1739.32 1530.95 1739.32 1531.11 1737.67 1532.76C1736.3 1534.13 1733.77 1534.57 1725.82 1534.85L1715.72 1535.2L1716.36 1530.32C1717.41 1522.4 1717.21 1498.67 1716.06 1495.66C1715.16 1493.29 1714.52 1492.92 1711.76 1493.19C1706.82 1493.66 1705.61 1497.12 1705.18 1512.06C1704.82 1524.34 1704.87 1524.69 1707.38 1527.68L1709.95 1530.73L1707.89 1532.6C1706.38 1533.97 1703.89 1534.56 1698.66 1534.82C1686.65 1535.41 1683.3 1532.57 1688.18 1525.97C1690.11 1523.36 1690.35 1521.82 1690.26 1512.95C1690.17 1504.55 1689.77 1502.1 1687.83 1498.19C1682.15 1486.76 1675 1496.12 1675 1514.98C1675 1522.51 1676.17 1526.8 1678.77 1528.78C1680.9 1530.39 1679.42 1533.14 1675.91 1534.13C1672.77 1535.01 1662.19 1534.99 1659.01 1534.11ZM1017 1500.88C1017 1496.39 1021 1492.07 1059.9 1454.6L1074.3 1440.73L940.4 1441.37C590.33 1443.04 416.73 1444.7 391.66 1446.63L383.14 1447.28L382.82 1469.09C382.59 1484.68 382.15 1491.26 381.27 1492.14C380.59 1492.81 379.69 1493.02 379.27 1492.6C378.85 1492.18 378.36 1482.42 378.19 1470.92C377.92 1451.93 377.73 1450 376.17 1450C375.23 1450 370.86 1453.64 366.48 1458.1C353.55 1471.22 330.28 1492.78 325.96 1495.64C318.99 1500.26 319.51 1496.19 327.02 1487.43C329.34 1484.72 341.76 1471.82 354.62 1458.76L378 1435.02L378.01 1416.26C378.03 1396.64 378.41 1393 380.49 1393C382.32 1393 382.98 1398.72 382.99 1414.75C383 1422.59 383.38 1429 383.85 1429C384.31 1429 385.55 1428.04 386.6 1426.86C390.22 1422.78 422.46 1392.69 427.31 1388.85C432.52 1384.73 436.84 1383.57 435.13 1386.75C433.35 1390.05 423.8 1400.51 406.4 1418.21C396.83 1427.95 389 1436.45 389 1437.08C389 1437.96 416.75 1438.07 503.25 1437.52C566.09 1437.12 619.75 1436.64 622.5 1436.45C625.25 1436.26 727.62 1435.8 850 1435.43C972.38 1435.05 1072.92 1434.36 1073.43 1433.89C1073.94 1433.42 1074.7 1425.45 1075.1 1416.18C1075.89 1398.38 1076.67 1392 1078.08 1392C1080.57 1392 1082.42 1401.42 1083.54 1419.79L1084.22 1431.08L1102.41 1413.19C1120.46 1395.44 1127.99 1389 1130.71 1389C1133.3 1389 1125.95 1397.96 1109.75 1414.56C1101.09 1423.44 1094 1431.28 1094 1431.98C1094 1433.02 1115.64 1433.14 1206.75 1432.63C1268.76 1432.28 1364.72 1431.77 1420 1431.5C1612.02 1430.55 1833.14 1429.15 1895 1428.5C1920.58 1428.23 1969.4 1427.78 2003.5 1427.5C2069.15 1426.95 2114.01 1426.08 2115.25 1425.33C2115.66 1425.09 2116.04 1415.12 2116.1 1403.19C2116.15 1391.26 2116.51 1380.38 2116.89 1379C2117.46 1376.96 2118.21 1376.5 2121.02 1376.5C2126.37 1376.5 2126.97 1378.73 2126.99 1398.92L2127 1416.33L2144.25 1399.34C2161.36 1382.5 2169 1376 2171.71 1376C2174.74 1376 2169 1382.79 2148.31 1403.65L2127.13 1425.02L2126.81 1449.86C2126.47 1477.28 2126.23 1478.36 2120.62 1477.8C2116.51 1477.39 2116.22 1475.94 2116.1 1455.25C2116.04 1445.76 2115.73 1438 2115.41 1438C2115.08 1438 2104.84 1447.63 2092.66 1459.4C2080.47 1471.17 2068.26 1482.65 2065.52 1484.9C2057.77 1491.27 2054.05 1489.73 2059.61 1482.45C2061.04 1480.57 2072.18 1469.48 2084.36 1457.81C2096.54 1446.14 2106.66 1436.19 2106.87 1435.69C2107.08 1435.17 2076.83 1435.05 2033.87 1435.4C1993.51 1435.73 1907.4 1436.24 1842.5 1436.54C1550.92 1437.88 1138.94 1440.72 1105.34 1441.62L1083.19 1442.22L1082.84 1465.08C1082.51 1487.2 1082.43 1488.02 1080.26 1490.18C1076.22 1494.22 1075.55 1491.81 1075 1471.2C1074.63 1457.5 1074.18 1452.5 1073.29 1452.5C1072.62 1452.5 1063.62 1460.85 1053.29 1471.05C1033.88 1490.21 1019.76 1503 1018 1503C1017.45 1503 1017 1502.05 1017 1500.88ZM77.17 1375.69C72.46 1370.67 73.42 1368.95 93.63 1346.34C103.88 1334.88 116.85 1320.33 122.46 1314C128.08 1307.67 136.38 1298.33 140.91 1293.24C149.26 1283.84 152.11 1281.69 157.5 1280.68C159.15 1280.37 198.3 1279.82 244.5 1279.46C337.61 1278.74 366.33 1277.98 369.75 1276.14L372 1274.93L372 1211.98L372 1149.03L367.25 1146.64C364.64 1145.32 351.25 1139.18 337.5 1132.99C305.27 1118.5 277.57 1105.39 272.78 1102.36C269.82 1100.49 269 1099.35 269 1097.06C269 1095.46 269.77 1093.37 270.72 1092.43C272.67 1090.47 324.94 1064.64 347.5 1054.48C355.75 1050.76 374.82 1041.71 389.87 1034.36C411.9 1023.61 417.03 1020.74 416.13 1019.66C415.52 1018.92 409.95 1015.69 403.76 1012.49C397.57 1009.29 390.02 1005.1 387 1003.17C381.29 999.54 375.39 996.26 343.5 979.05C285.52 947.74 276 941.9 276 937.57C276 934.55 277.01 933.79 286.53 929.67C310.37 919.35 380.85 886.95 398.75 878.09C404.39 875.29 409 872.63 409 872.16C409 871.29 380.9 854.33 364.5 845.3C332.07 827.43 296.45 806.99 291 803.11C279.93 795.23 278.72 791.86 284.88 786C290.03 781.1 320.46 761.12 358.75 737.48L368.5 731.47L369.21 649.48C369.89 572.33 370.73 546.86 372.67 544.94C373.13 544.49 531.77 543.98 725.2 543.81C994.45 543.57 1077.18 543.22 1078.08 542.32C1079.36 541.04 1077.73 537.49 1060.05 503C1055.11 493.38 1051.06 484.54 1051.04 483.37C1050.99 480.54 1053.22 480.03 1065.63 480.01C1073.2 480 1076.06 479.64 1076.95 478.56C1077.79 477.55 1077.98 474.06 1077.59 466.81C1077.28 461.14 1076.79 443.45 1076.5 427.5C1075.43 368.76 1072.07 218.05 1071.52 203.71L1070.95 188.92L1079.23 189.21L1087.5 189.5L1088.16 234.5C1090.47 390.82 1091.26 436.76 1091.96 454.84C1092.93 480.21 1092.11 478.93 1108.2 480.33C1114.41 480.87 1119.63 481.41 1119.79 481.53C1119.95 481.65 1113.77 494.79 1106.04 510.74C1098.32 526.68 1092 540.42 1092 541.27C1092 542.46 1093.46 542.93 1098.25 543.27C1101.69 543.51 1333.99 543.78 1614.47 543.86C2019.72 543.98 2124.69 544.27 2125.65 545.26C2128.1 547.78 2129.06 573.44 2129.68 652.5L2130.31 733.5L2126.4 737C2124.26 738.92 2113.16 746.58 2101.74 754C2057.71 782.63 2050.5 787.55 2050.5 788.95C2050.5 790.38 2057.12 794.62 2074 804.02C2078.68 806.62 2092.18 814.13 2104 820.7C2154.33 848.68 2161.61 852.85 2171.79 859.5C2177.72 863.38 2182.65 867.3 2182.83 868.3C2183.03 869.37 2181.72 871.47 2179.64 873.43C2175.83 877.03 2172.44 878.74 2125 901.01C2107.68 909.15 2083.84 920.35 2072.04 925.9C2060.23 931.46 2050.44 936 2050.29 936C2050.13 936 2050 936.64 2050 937.42C2050 938.24 2058.47 943.32 2070.25 949.55C2138.97 985.92 2172.89 1004.34 2182.77 1010.64C2189.37 1014.85 2191.12 1018.1 2188.41 1021.1C2184.39 1025.55 2159.52 1038.49 2117.5 1058C2113.1 1060.04 2104.78 1063.97 2099 1066.74C2093.22 1069.5 2084.22 1073.77 2079 1076.23C2050.86 1089.47 2043 1093.39 2043 1094.22C2043 1095.32 2059.45 1103.23 2096.35 1119.88C2118.83 1130.02 2126.67 1134.41 2128.93 1138.13C2131.61 1142.53 2132.02 1152.78 2132.11 1216.25C2132.16 1252.88 2132.54 1273.21 2133.18 1273.61C2134.15 1274.21 2203.94 1274.14 2209 1273.54C2211.55 1273.24 2341.46 1271.57 2366 1271.52L2379.5 1271.5L2379.82 1274.89C2380.37 1280.62 2379.39 1282.29 2368.77 1293.61C2363.12 1299.64 2353.1 1310.63 2346.5 1318.03C2321.74 1345.8 2300.21 1369.56 2298.19 1371.36C2296.14 1373.18 2296.02 1373.17 2292.55 1371.03C2285.59 1366.73 2287.13 1363.61 2307.87 1340.11C2350.44 1291.88 2354.31 1287.31 2353.53 1286.04C2352.7 1284.7 2322.77 1284.68 2306.5 1286.01C2281.78 1288.03 2283.77 1287.44 2277.79 1294.46C2249.69 1327.47 2211.4 1368.84 2208.19 1369.66C2206.59 1370.06 2205.14 1369.54 2203.44 1367.95C2197.84 1362.68 2198.36 1361.95 2241.87 1314.02C2254.59 1300 2265 1288.28 2265 1287.98C2265 1287.67 2251.62 1287.47 2235.27 1287.52L2205.54 1287.62L2189.13 1306.06C2144.44 1356.3 2132.37 1369.2 2127.88 1371.55C2125.51 1372.79 2125.07 1372.7 2123.13 1370.64C2118.22 1365.41 2119.86 1362.87 2150.42 1328.5C2159.22 1318.6 2170.72 1305.78 2175.96 1300L2185.49 1289.5L2180.49 1288.84C2177.75 1288.47 2164.7 1288.14 2151.5 1288.09L2127.5 1288L2118.5 1297.26C2113.55 1302.35 2102.77 1313.94 2094.55 1323.01C2069.94 1350.15 2052.69 1368.18 2050.32 1369.27C2048.62 1370.04 2047.47 1369.88 2045.54 1368.62C2041 1365.65 2042.51 1361.17 2051.74 1350.21C2057.45 1343.43 2093.34 1302.96 2100.24 1295.53C2102.29 1293.31 2103.98 1291.16 2103.99 1290.75C2103.99 1290.34 2093.54 1290.02 2080.75 1290.04L2057.5 1290.07L2030 1321.16C1995.7 1359.92 1987.52 1368.68 1983.8 1370.61C1981.14 1371.98 1980.61 1371.97 1978.42 1370.54C1975.04 1368.32 1975.3 1364.28 1979.17 1358.9C1982.78 1353.88 2001.61 1332.41 2024.25 1307.5L2039.7 1290.5L2014.11 1290.23C2000.04 1290.09 1988.01 1290.17 1987.37 1290.41C1986.73 1290.66 1972.04 1306.75 1954.73 1326.18C1937.42 1345.61 1920.49 1364.13 1917.11 1367.34L1910.97 1373.17L1907.73 1371.14C1905.5 1369.73 1904.41 1368.2 1904.2 1366.18C1903.84 1362.72 1908.53 1356.55 1929.1 1333.44C1949.15 1310.91 1953.22 1306.16 1958.96 1298.56C1964.17 1291.67 1964.19 1291.61 1961.85 1290.74C1960.43 1290.21 1948.5 1290.52 1931.54 1291.54L1903.58 1293.21L1897.43 1299.86C1894.05 1303.51 1889.31 1308.78 1886.89 1311.58C1874.01 1326.46 1828.73 1376 1828 1376C1827.54 1376 1825.77 1374.83 1824.08 1373.41C1821.95 1371.62 1821 1369.93 1821 1367.94C1821 1364.79 1820.49 1365.42 1856.5 1324.41C1877.81 1300.13 1888.89 1287.01 1892.78 1281.4C1894.67 1278.66 1895.67 1278.22 1901.09 1277.65C1904.48 1277.29 1946.24 1276.77 1993.88 1276.47C2098.69 1275.83 2110.24 1275.49 2112.51 1272.99C2115.26 1269.96 2115.94 1255.4 2115.97 1199.77L2116 1147.05L2113.75 1145.58C2112.51 1144.77 2097.78 1137.84 2081 1130.17C2044.96 1113.7 2025.28 1104.17 2018.75 1100.01C2013.49 1096.67 2012.53 1093.47 2015.81 1090.19C2018.48 1087.52 2033 1080.3 2076.5 1060.01C2097.95 1050 2118.65 1040.32 2122.5 1038.49C2126.35 1036.66 2136.47 1031.94 2145 1028.01C2153.53 1024.08 2160.95 1020.42 2161.5 1019.88C2162.83 1018.57 2159.55 1016.1 2149.5 1010.86C2145.1 1008.56 2139.03 1005.02 2136 1002.99C2132.97 1000.97 2127.12 997.51 2123 995.32C2118.88 993.13 2110.55 988.62 2104.5 985.31C2094.93 980.07 2083.93 974.25 2059.5 961.51C2050.04 956.58 2037.07 949.1 2030.21 944.63C2024.2 940.71 2022.11 937.72 2023.28 934.75C2024.54 931.56 2052.58 917.46 2117.5 887.38C2154.92 870.04 2153.5 870.77 2153.5 868.96C2153.5 867.33 2144.35 861.03 2133 854.85C2128.88 852.6 2121.68 848.62 2117 846C2112.32 843.38 2100.62 836.83 2091 831.45C2041.61 803.83 2027.49 795.18 2025.83 791.53C2024.36 788.29 2026.31 785.31 2033.25 780.19C2038.67 776.2 2042.38 773.76 2074.5 753.05C2096.76 738.69 2112.66 727.45 2113.15 725.73C2113.34 725.05 2113.28 690.75 2113 649.5L2112.5 574.5L1249.25 574.25L386 574L385.97 588.75C385.95 596.86 385.52 633.84 385.02 670.92C384.29 724 383.82 738.58 382.8 739.52C382.08 740.18 368.23 749.21 352 759.59C320.08 780 306.7 789.53 306.2 792.2C305.97 793.4 307.99 795.08 313.19 798.01C317.21 800.27 324.1 804.16 328.5 806.66C332.9 809.15 346.18 816.61 358 823.23C369.82 829.84 382.43 836.97 386 839.06C392.41 842.8 397.37 845.63 407.83 851.51C419.52 858.07 435.5 869.59 435.8 871.66C436.44 876.01 426.6 881.73 383.5 902.06C359.96 913.16 317.39 933.33 309.21 937.26C303.46 940.02 303.43 940 371 976.14C389.98 986.29 410.73 997.77 417.12 1001.66C423.51 1005.55 431.16 1009.85 434.12 1011.21C440.77 1014.27 446 1018.58 446 1021.02C446 1024.31 439.14 1028.63 418.15 1038.55C406.79 1043.92 391.65 1051.14 384.5 1054.58C377.35 1058.03 365.43 1063.66 358 1067.09C309.94 1089.31 296.6 1095.7 296.28 1096.65C296.08 1097.25 301 1099.99 307.21 1102.74C338.46 1116.6 383.59 1137.52 384.23 1138.45C384.64 1139.03 384.98 1150.11 384.98 1163.09C384.99 1176.06 385.3 1207.05 385.66 1231.96L386.33 1277.25L438.41 1276.61C467.06 1276.27 500.85 1275.77 513.5 1275.5C526.15 1275.23 558.44 1274.73 585.25 1274.39L634 1273.76L633.38 1277.13C632.32 1282.99 626.27 1291.29 605.06 1316C581.6 1343.34 557.74 1368.71 552.26 1372.13L549.02 1374.15L546.01 1372.01C540.41 1368.02 539.33 1369.59 575.95 1328.63C614.97 1284.97 611.23 1289.59 608.18 1288.87C603.5 1287.76 574.11 1287.93 556.58 1289.16C543.27 1290.09 539.32 1290.7 538.08 1291.99C537.21 1292.9 529.52 1301.47 521 1311.05C498.82 1335.97 485.12 1350.99 473.69 1362.92C463.82 1373.21 463.67 1373.32 461.1 1371.89C459.29 1370.88 458.4 1369.46 458.18 1367.19C457.71 1362.3 464.43 1353.61 493.47 1321.5C508.04 1305.4 519.28 1291.95 518.67 1291.34C518.34 1291.01 504.89 1290.52 488.79 1290.25L459.5 1289.77L431.92 1321.13C400.74 1356.59 383.06 1376 381.94 1376C380.56 1376 376 1369.88 376 1368.04C376 1365.53 382.65 1355.94 390.59 1347C396.71 1340.1 416.12 1318.31 433.71 1298.59L440.92 1290.5L424.9 1290.22C416.1 1290.07 402.77 1290.33 395.29 1290.8L381.68 1291.65L374.09 1299.58C369.91 1303.93 359.97 1314.68 352 1323.44C330.95 1346.6 307.76 1371.15 305.79 1372.37C304.46 1373.21 303.53 1372.91 301.49 1370.99C298.37 1368.06 298.7 1365.79 303.22 1359.1C309.02 1350.52 339.03 1316.08 355.37 1299.25L361.44 1293L336.35 1293L311.25 1293L301.87 1303.64C281.76 1326.46 273.91 1335.42 258.08 1353.62C239.98 1374.45 239.43 1375 236.76 1375C234.37 1375 230 1370.29 230 1367.72C230 1364.82 248.14 1343.24 279.12 1309.28C286.75 1300.91 293 1293.82 293 1293.53C293 1293.24 281.11 1293 266.57 1293L240.14 1293L237.82 1295.85C226.91 1309.26 168.24 1373.49 165.21 1375.35C163.2 1376.58 159 1372.27 159 1368.97C159 1365.99 161.9 1361.29 168.84 1353C173.46 1347.49 200.04 1317.71 213.86 1302.57L221.22 1294.5L208.86 1293.6C196.91 1292.72 167.08 1294.05 159.39 1295.79C156.96 1296.35 151.59 1301.79 134.53 1321C101.09 1358.66 82.95 1378 81.06 1378C80.12 1378 78.37 1376.96 77.17 1375.69ZM2283.67 996C2280.29 992.7 2275.64 989.11 2273.33 988.03C2265.61 984.4 2262 977.23 2262 965.53C2262 959.68 2262.51 957.37 2264.75 952.98C2268.62 945.42 2271.49 943.62 2280.39 943.17C2292.46 942.56 2298.9 947.25 2301.23 958.36C2302.72 965.47 2301.11 972.85 2296.49 980.11C2291.1 988.56 2292.16 992.52 2300.29 994.41C2301.83 994.77 2302.81 995.5 2302.47 996.05C2301.73 997.24 2292.52 1002 2290.95 1002C2290.33 1002 2287.06 999.3 2283.67 996ZM2286.42 980.08C2288.72 977.68 2289.31 976.01 2289.74 970.68C2290.78 957.7 2287.3 949 2281.07 949C2275.85 949 2272.84 954.87 2272.83 965.07C2272.82 972.32 2274.57 977.59 2278.08 980.86C2281.17 983.74 2283.09 983.56 2286.42 980.08ZM212.84 972.36C211.92 972.1 210.82 971.12 210.39 970.19C209.96 969.26 209.43 959.16 209.22 947.75L208.83 927L218.29 927C229.33 927 235.01 928.65 239.75 933.24C243.53 936.9 243.81 939.62 241.03 945.74C238.89 950.46 235.78 952.28 227.5 953.66L222.5 954.5L222.5 962.19C222.5 966.43 222.04 970.36 221.47 970.93C220.22 972.18 215.14 973.02 212.84 972.36ZM2200.51 964.09C2196.8 963.65 2195.43 963.04 2195.18 961.72C2194.99 960.74 2195.55 953.42 2196.42 945.46C2197.29 937.5 2198 925.57 2198 918.94C2198 908.3 2197.74 906.44 2195.77 903.02C2194.54 900.88 2193.84 898.83 2194.21 898.46C2195.31 897.36 2207.41 896.68 2212.46 897.44C2218.06 898.28 2219.11 900.19 2215.88 903.63C2213.83 905.81 2213.5 907.16 2213.5 913.33C2213.5 921.65 2214.49 926 2216.37 926C2217.1 926 2220.25 923.32 2223.37 920.05C2229.78 913.33 2234.25 904.85 2233.33 901.17C2232.95 899.67 2233.24 898.46 2234.11 897.91C2236.26 896.55 2253.75 896.78 2254.61 898.18C2255.07 898.92 2250.97 903.54 2243.67 910.52C2237.25 916.66 2232 922.33 2232 923.12C2232 925.64 2240.61 939.75 2249.03 951.04C2259.46 965.02 2259.37 965.48 2246.23 964.73C2234.61 964.07 2233.15 963.58 2232.44 960.14C2231.59 955.97 2225.12 942.96 2221.31 937.75C2217.77 932.91 2213.98 931.36 2214.02 934.75C2214.03 935.71 2214.91 941.86 2215.97 948.41C2218.12 961.68 2217.79 963.39 2212.91 964.37C2209.53 965.04 2208.28 965.02 2200.51 964.09ZM229.2 946.95C231.8 944.35 232.16 943.39 231.67 940.33C230.9 935.63 228.3 932.82 225.05 933.2C222.68 933.48 222.48 933.91 222.19 939.46C221.63 950.44 223.6 952.55 229.2 946.95ZM140.34 946.43C140 945.57 140.36 943.7 141.12 942.27C142.21 940.22 142.49 933.44 142.46 910.25L142.42 880.83L152.66 881.16C164.66 881.56 166.66 882.6 162.97 886.54C161.02 888.61 160.49 890.41 160.17 895.96C159.75 903.35 161.33 910 163.5 910C164.24 910 166.24 908.61 167.94 906.91C174.93 899.92 180.1 889.83 179.68 884C179.5 881.55 179.66 881.49 187.5 881.2C196.27 880.88 200 881.45 200 883.13C200 883.74 195.28 889.16 189.5 895.19C182.49 902.5 179 906.9 179 908.41C179 910.84 184.62 920.51 195.27 936.42C198.92 941.88 201.68 946.72 201.39 947.17C200.81 948.12 180.98 948.31 178.58 947.39C177.59 947.01 177 945.58 177 943.55C177 941.77 175.62 937.56 173.93 934.18C170.5 927.31 162.65 918.05 161.35 919.34C159.8 920.87 160.46 939.21 162.19 942.67C164.51 947.34 163.15 948 151.27 948C142.81 948 140.83 947.72 140.34 946.43ZM2155.5 508.13C2153.3 507.07 2148.9 503.25 2145.72 499.64C2141.47 494.81 2138.26 492.27 2133.57 490.03C2126.02 486.43 2121.93 482.1 2119.21 474.83C2111.7 454.75 2119.9 429.18 2135.24 424.89C2140.29 423.47 2151.94 423.17 2157.34 424.31C2162.93 425.49 2169.44 431.91 2172.09 438.84C2175 446.46 2175.79 461.34 2173.7 469.25C2171.76 476.65 2167.87 483.23 2163.48 486.58C2155.76 492.47 2161.8 499.98 2174.25 499.99C2178.41 500 2178.72 500.53 2176.44 503.78C2172.71 509.11 2162.1 511.31 2155.5 508.13ZM365.75 501.33C362.59 500.8 362.47 500.1 364.53 494.18C367.8 484.79 367.37 442.08 363.98 439.99C363.33 439.59 362.96 438.41 363.16 437.38C364.06 432.59 395.31 433.25 406.33 438.29C410.06 440 412.37 441.81 413.43 443.86C415.41 447.7 415.49 458.15 413.56 461.87C409.73 469.28 399.19 475 389.35 475C385.98 475 384.82 475.46 383.91 477.18C382.38 480.02 383.36 492.02 385.46 496.22C386.57 498.45 386.72 499.68 385.97 500.43C384.87 501.53 370.67 502.16 365.75 501.33ZM2152.69 480.55C2157.14 475.83 2158.43 470.44 2158.46 456.5C2158.49 443.47 2157.44 438.87 2153.33 433.97C2151.12 431.36 2150.18 431 2145.48 431C2140.9 431 2139.85 431.37 2138.05 433.66C2134.17 438.6 2132.73 446.18 2133.17 459.4C2133.64 473.28 2135.86 479.71 2141.39 483.12C2145.4 485.6 2148.61 484.87 2152.69 480.55ZM392.89 465.97C395.19 464.3 397.54 461.71 398.12 460.22C399.15 457.51 398.56 448.47 397.21 446.39C395.91 444.39 392.18 443 388.11 443C384.28 443 384.06 443.17 383.41 446.63C382.53 451.32 383.51 464.21 384.95 466.91C386.46 469.72 387.94 469.55 392.89 465.97ZM998.42 127.58C992.02 124.79 988.75 116.4 992.57 112.57C995.12 110.02 996.74 110.69 1002.5 116.63C1007.48 121.78 1008.23 122.21 1011.23 121.63C1013.03 121.29 1015.74 119.65 1017.25 117.99C1019.48 115.54 1020 114.02 1020 110C1020 103.27 1016.46 99.13 1010 98.3C1004.17 97.56 1002 96.39 1002 93.99C1002 91.81 1005.05 89.58 1009.41 88.56C1011.01 88.19 1013.82 86.38 1015.66 84.54C1018.49 81.71 1019 80.49 1019 76.52C1019 72.65 1018.48 71.33 1015.97 68.82C1013.55 66.4 1012.41 65.92 1010.22 66.44C1007.61 67.05 1006.34 68.25 1001.17 74.97C996.88 80.56 992 77.75 992 69.7C992 65.58 992.33 64.88 994.9 63.55C1000.07 60.88 1011.25 59.58 1018.59 60.8C1026.16 62.05 1029.3 63.8 1032.04 68.3C1035.81 74.48 1033.69 84.96 1028.05 87.97C1025.03 89.59 1025.5 91.37 1030.39 96.88C1036.06 103.26 1037.66 107.87 1036.05 113.22C1034.32 119.01 1027.39 125.51 1020.91 127.43C1014.5 129.34 1002.63 129.41 998.42 127.58ZM1073.85 127.37C1073.77 126.89 1073.82 113 1073.96 96.5C1074.21 67.3 1074.16 66.43 1072.11 63.84C1070.95 62.38 1070 60.7 1070 60.11C1070 58.48 1074.69 57.54 1083 57.52L1090.5 57.5L1091 76.1C1091.57 97.21 1092.11 99.03 1097.08 96.46C1101.24 94.31 1103.36 89.65 1102.63 84.29C1102.2 81.18 1102.4 79.78 1103.33 79.43C1104.04 79.15 1109.53 79.06 1115.52 79.21L1126.41 79.5L1116.71 87.5C1111.38 91.9 1107.01 96.09 1107.01 96.82C1107 98.49 1111.03 104.35 1120.56 116.54C1124.68 121.81 1127.75 126.6 1127.38 127.19C1126.46 128.69 1107.53 127.69 1105.54 126.03C1104.69 125.33 1104 123.57 1104 122.13C1103.99 118.11 1094.49 104 1091.79 104C1090.06 104 1091.49 119.58 1093.5 122.64C1094.72 124.51 1094.89 125.51 1094.09 126.31C1092.77 127.63 1074.06 128.61 1073.85 127.37ZM1136.75 127.31C1134.59 126.75 1134.58 125.7 1136.71 120C1138.1 116.29 1138.4 111.52 1138.45 92.84C1138.5 70.86 1138.43 70.08 1136.25 67.13C1135.01 65.45 1134 63.44 1134 62.67C1134 59.11 1149.41 60.16 1153.5 64C1156.12 66.46 1163.64 78.38 1172.96 94.83C1176.66 101.37 1178.56 103.84 1179.3 103.1C1180.03 102.37 1180.05 97.05 1179.36 85.53C1178.46 70.7 1178.14 68.77 1176.18 66.69C1174.98 65.42 1174 63.85 1174 63.22C1174 61 1178.25 59.78 1184.63 60.19C1191.97 60.66 1194.61 62.32 1191.57 64.56C1188.76 66.63 1188.16 73.06 1188.07 101.69C1188.03 116.24 1187.6 127.13 1187.06 127.46C1186.54 127.78 1184.18 127.75 1181.81 127.39C1175.46 126.42 1170.15 120.29 1159.14 101.22C1153.99 92.3 1149.33 85 1148.79 85C1147.21 85 1148.23 119.95 1149.89 122.92C1151.09 125.05 1151.04 125.5 1149.44 126.67C1147.71 127.93 1140.52 128.3 1136.75 127.31Z" fill="#1e2749" fill-rule="evenodd"/>
</svg>
