<?xml version="1.0" encoding="UTF-8"?>
<!-- Generator: visioncortex VTracer 0.6.12 -->
<svg version="1.1" xmlns="http://www.w3.org/2000/svg" width="500" height="122">
<path d="M0 0 C165 0 330 0 500 0 C500 40.26 500 80.52 500 122 C335 122 170 122 0 122 C0 81.74 0 41.48 0 0 Z " fill="#FDFDFD" transform="translate(0,0)"/>
<path d="M0 0 C0.32 -0 0.32 -0 1.97 -0 C4.16 -0.01 6.35 -0.01 8.54 -0 C10.11 -0 11.67 -0.01 13.24 -0.01 C17.5 -0.01 21.76 -0.01 26.03 -0.01 C30.48 -0 34.93 -0.01 39.38 -0.01 C46.85 -0.01 54.33 -0.01 61.8 -0 C70.46 0 79.11 0 87.77 -0.01 C95.19 -0.01 102.6 -0.01 110.02 -0.01 C114.46 -0.01 118.89 -0.01 123.33 -0.01 C127.5 -0.01 131.67 -0.01 135.84 -0 C137.37 -0 138.91 -0 140.44 -0.01 C142.53 -0.01 144.61 -0.01 146.7 0 C147.87 0 149.04 0 150.25 0 C152.85 0.13 152.85 0.13 153.85 1.13 C153.95 4.15 153.99 7.14 153.98 10.16 C153.98 11.06 153.98 11.97 153.99 12.9 C153.99 14.82 153.98 16.74 153.98 18.66 C153.98 21.61 153.98 24.56 153.99 27.51 C153.99 29.37 153.98 31.24 153.98 33.1 C153.99 33.98 153.99 34.87 153.99 35.79 C153.97 42.01 153.97 42.01 152.85 43.13 C151.06 43.23 149.28 43.27 147.49 43.28 C146.32 43.29 145.16 43.3 143.96 43.31 C143.32 43.31 143.32 43.31 140.06 43.32 C138.69 43.33 137.33 43.34 135.97 43.34 C131.49 43.37 127.01 43.39 122.52 43.4 C120.98 43.41 119.44 43.41 117.9 43.42 C111.48 43.44 105.07 43.46 98.66 43.47 C89.46 43.48 80.26 43.52 71.06 43.57 C64.6 43.61 58.14 43.63 51.68 43.64 C47.81 43.64 43.95 43.65 40.09 43.69 C36.46 43.72 32.82 43.72 29.19 43.71 C27.22 43.71 25.25 43.73 23.28 43.76 C13.66 43.69 13.66 43.69 10.61 40.7 C10.03 39.85 9.45 39 8.85 38.13 C8.6 37.85 8.6 37.85 7.34 36.43 C5.38 34.05 3.56 31.69 1.85 29.13 C-0.78 28.77 -0.78 28.77 -4.16 28.79 C-4.79 28.79 -4.79 28.79 -7.98 28.79 C-9.36 28.8 -10.74 28.82 -12.13 28.83 C-13.54 28.84 -14.95 28.84 -16.36 28.85 C-20.07 28.86 -23.78 28.89 -27.49 28.92 C-31.28 28.95 -35.07 28.97 -38.85 28.98 C-46.29 29.01 -53.72 29.06 -61.15 29.13 C-60.82 28.14 -60.49 27.15 -60.15 26.13 C-42.66 26.13 -25.17 26.13 -7.15 26.13 C-7.15 17.88 -7.15 9.63 -7.15 1.13 C-5.33 -0.7 -2.45 0 0 0 Z " fill="#C0DDCE" transform="translate(345.1497802734375,57.873016357421875)"/>
<path d="M0 0 C0.33 0 0.66 0 1 0 C1.02 5.82 1.04 11.64 1.05 17.46 C1.06 19.44 1.07 21.43 1.08 23.41 C1.09 26.25 1.09 29.09 1.1 31.93 C1.1 32.83 1.11 33.72 1.11 34.64 C1.11 36.76 1.06 38.88 1 41 C-0.72 42.72 -3.01 42.14 -5.36 42.15 C-6.53 42.16 -7.69 42.17 -8.89 42.18 C-9.53 42.18 -9.53 42.18 -12.79 42.19 C-14.16 42.2 -15.52 42.21 -16.88 42.22 C-21.36 42.24 -25.84 42.26 -30.33 42.27 C-31.87 42.28 -33.41 42.28 -34.95 42.29 C-41.37 42.31 -47.78 42.33 -54.19 42.34 C-63.39 42.36 -72.59 42.39 -81.79 42.45 C-88.25 42.49 -94.71 42.51 -101.17 42.51 C-105.04 42.51 -108.9 42.53 -112.76 42.56 C-116.39 42.59 -120.03 42.6 -123.66 42.58 C-125.63 42.58 -127.6 42.61 -129.57 42.63 C-139.19 42.57 -139.19 42.57 -142.24 39.57 C-142.82 38.72 -143.4 37.87 -144 37 C-144.25 36.72 -144.25 36.72 -145.51 35.3 C-147.47 32.93 -149.29 30.56 -151 28 C-153.63 27.64 -153.63 27.64 -157.01 27.66 C-157.64 27.66 -157.64 27.66 -160.83 27.66 C-162.21 27.68 -163.6 27.69 -164.98 27.71 C-166.39 27.71 -167.8 27.72 -169.21 27.72 C-172.92 27.73 -176.63 27.76 -180.34 27.79 C-184.13 27.82 -187.92 27.84 -191.7 27.85 C-199.14 27.89 -206.57 27.94 -214 28 C-213.67 27.01 -213.34 26.02 -213 25 C-192.54 25 -172.08 25 -151 25 C-151 22.36 -151 19.72 -151 17 C-149.43 11.72 -146.26 7.45 -142 4 C-136.58 1.58 -131.44 1.77 -125.62 1.88 C-125.16 1.88 -125.16 1.88 -122.82 1.9 C-120.54 1.93 -118.27 1.96 -116 2 C-116 5.3 -116 8.6 -116 12 C-116.36 11.61 -116.36 11.61 -118.19 9.62 C-122.78 5.34 -126.7 4.52 -132.85 4.69 C-136.22 5.18 -137.79 6.46 -140 9 C-141.89 13.58 -142.33 17.62 -142.38 22.56 C-142.4 23.84 -142.43 25.12 -142.46 26.44 C-141.93 30.56 -140.9 32.1 -138 35 C-133.74 37.84 -130 37.64 -125 37 C-121.65 35.73 -118.66 34.32 -117 31 C-116.34 31 -115.68 31 -115 31 C-115.15 31.38 -115.15 31.38 -115.94 33.31 C-116.68 35.19 -117.36 37.09 -118 39 C-112.84 39.21 -110.1 38.7 -105 37 C-105 26.44 -105 15.88 -105 5 C-106.65 4.34 -108.3 3.68 -110 3 C-110 2.67 -110 2.34 -110 2 C-104.39 2 -98.78 2 -93 2 C-96 4 -96 4 -98 4 C-98 8.95 -98 13.9 -98 19 C-92.06 19 -86.12 19 -80 19 C-80.33 14.38 -80.66 9.76 -81 5 C-82.65 4.34 -84.3 3.68 -86 3 C-86 2.67 -86 2.34 -86 2 C-80.39 2 -74.78 2 -69 2 C-70.32 2.66 -71.64 3.32 -73 4 C-73.33 15.22 -73.66 26.44 -74 38 C-72.02 38 -70.04 38 -68 38 C-68 38.66 -68 39.32 -68 40 C-64.37 39.67 -60.74 39.34 -57 39 C-57.74 38.5 -58.49 38.01 -59.25 37.5 C-63.67 33.48 -65.66 29.78 -66.39 23.8 C-66.55 18.81 -66.49 15.06 -64.38 10.5 C-56.67 2.38 -56.67 2.38 -50 2 C-49.63 1.95 -49.63 1.95 -47.75 1.71 C-41.15 1.16 -37.25 2.96 -32.07 7.02 C-27.81 11.1 -26.87 15.24 -26.56 20.94 C-26.74 25.94 -27.92 30.02 -31 34 C-32.98 35.65 -34.96 37.3 -37 39 C-25.12 39.33 -13.24 39.66 -1 40 C-1.01 37.2 -1.02 34.39 -1.04 31.5 C-1.04 28.8 -1.05 26.1 -1.05 23.39 C-1.06 21.51 -1.07 19.62 -1.08 17.74 C-1.09 15.03 -1.09 12.33 -1.1 9.63 C-1.1 8.78 -1.11 7.93 -1.11 7.06 C-1.11 5.04 -1.06 3.02 -1 1 C-0.67 0.67 -0.34 0.34 0 0 Z " fill="#B9E1CD" transform="translate(498,59)"/>
<path d="M0 0 C12.87 0 25.74 0 39 0 C39 12.87 39 25.74 39 39 C26.79 39 14.58 39 2 39 C2.82 38.17 2.82 38.17 7 34 C11.67 27.52 12.61 22.83 12 15 C10.67 9.69 8.76 7.59 4.31 4.69 C3.5 4.22 2.7 3.75 1.86 3.26 C1.25 2.85 0.63 2.43 0 2 C0 1.34 0 0.68 0 0 Z " fill="#FCFCFC" transform="translate(458,60)"/>
<path d="M0 0 C3.36 1.34 5.46 2.46 8 5 C8 6.32 8 7.64 8 9 C5.03 9 2.06 9 -1 9 C-1 14.28 -1 19.56 -1 25 C2.3 25 5.6 25 9 25 C9 24.01 9 23.02 9 22 C7.02 22 5.04 22 3 22 C3 21.01 3 20.02 3 19 C4.65 19 6.3 19 8 19 C8 18.01 8 17.02 8 16 C6.35 16 4.7 16 3 16 C3 14.68 3 13.36 3 12 C7.21 11.27 9.8 10.95 14 12 C14 16.29 14 20.58 14 25 C14.99 25 15.98 25 17 25 C17 20.71 17 16.42 17 12 C18.32 12 19.64 12 21 12 C21 19.26 21 26.52 21 34 C15.31 35.9 12.69 36.2 7 36 C9.88 29.25 9.88 29.25 11 27 C10.34 27 9.68 27 9 27 C8.9 27.3 8.9 27.3 8.38 28.81 C6.36 32.02 4.56 32.73 1 34 C-3.14 34.62 -7.12 35 -10.91 32.98 C-13.44 30.92 -15.19 28.71 -17 26 C-17.68 18.49 -18.2 10.52 -14 4 C-9.96 -0.64 -5.8 -0.87 0 0 Z " fill="#F4F5F4" transform="translate(372,63)"/>
<path d="M0 0 C2.93 1.54 5.15 3.25 7 6 C8.52 12.4 9.53 20.79 7.25 27.07 C5.36 30.02 2.93 32.13 0 34 C-3.4 34.66 -6.59 34.6 -10 34 C-13.39 31.45 -15.45 28.92 -17 25 C-17.85 15.9 -17.36 9.24 -12.44 1.56 C-8.45 -0.99 -4.57 -0.93 0 0 Z " fill="#F4F7F5" transform="translate(456,63)"/>
<path d="M0 0 C5.61 0 11.22 0 17 0 C14 2 14 2 12 2 C12 6.95 12 11.9 12 17 C17.94 17 23.88 17 30 17 C29.67 12.38 29.34 7.76 29 3 C27.35 2.34 25.7 1.68 24 1 C24 0.67 24 0.34 24 0 C29.61 0 35.22 0 41 0 C40.34 0.33 40.34 0.33 37 2 C36.9 6.79 36.83 11.57 36.78 16.36 C36.76 17.99 36.73 19.62 36.7 21.25 C36.65 23.59 36.63 25.93 36.61 28.27 C36.6 28.63 36.6 28.63 36.55 30.48 C36.55 32.54 36.55 32.54 37 36 C38.32 36.99 39.64 37.98 41 39 C35.39 39 29.78 39 24 39 C24 38.34 24 37.68 24 37 C24.82 36.84 24.82 36.84 29 36 C29.33 30.72 29.66 25.44 30 20 C24.06 20 18.12 20 12 20 C12 25.61 12 31.22 12 37 C13.65 37 15.3 37 17 37 C17 37.66 17 38.32 17 39 C11.39 39 5.78 39 0 39 C0 38.34 0 37.68 0 37 C1.65 36.34 3.3 35.68 5 35 C5 24.44 5 13.88 5 3 C4.18 2.67 4.18 2.67 0 1 C0 0.67 0 0.34 0 0 Z " fill="#57655B" transform="translate(388,61)"/>
<path d="M0 0 C5.61 0 11.22 0 17 0 C16.34 0.33 16.34 0.33 13 2 C12.53 4.69 12.31 6.93 12.25 9.62 C12.17 12.06 12.09 14.49 12 17 C17.94 17 23.88 17 30 17 C30 12.05 30 7.1 30 2 C29.18 1.84 29.18 1.84 25 1 C25 0.67 25 0.34 25 0 C30.61 0 36.22 0 42 0 C41.34 0.33 41.34 0.33 38 2 C37 3 37 3 36.89 6.14 C36.89 7.53 36.89 8.93 36.9 10.32 C36.9 10.68 36.9 10.68 36.91 12.53 C36.91 14.88 36.92 17.22 36.94 19.56 C36.94 21.15 36.95 22.73 36.95 24.32 C36.96 28.21 36.98 32.11 37 36 C38.65 36.33 40.3 36.66 42 37 C42 37.66 42 38.32 42 39 C36.39 39 30.78 39 25 39 C25 38.34 25 37.68 25 37 C25.66 36.84 25.66 36.84 29 36 C29.33 30.72 29.66 25.44 30 20 C24.06 20 18.12 20 12 20 C12.08 22.58 12.16 25.16 12.25 27.81 C12.27 28.62 12.28 29.43 12.3 30.26 C12.39 32.21 12.39 32.21 13 36 C14.32 36.99 15.64 37.98 17 39 C11.39 39 5.78 39 0 39 C0 38.34 0 37.68 0 37 C0.82 36.84 0.82 36.84 5 36 C5 25.11 5 14.22 5 3 C4.18 2.67 4.18 2.67 0 1 C0 0.67 0 0.34 0 0 Z " fill="#423E3B" transform="translate(242,61)"/>
<path d="M0 0 C5.61 0 11.22 0 17 0 C14 2 14 2 11 2 C11 7.28 11 12.56 11 18 C17.27 18 23.54 18 30 18 C29.67 13.05 29.34 8.1 29 3 C27.35 2.34 25.7 1.68 24 1 C24 0.67 24 0.34 24 0 C29.61 0 35.22 0 41 0 C40.34 0.33 40.34 0.33 37 2 C37 13.22 37 24.44 37 36 C38.65 36.33 40.3 36.66 42 37 C42 37.66 42 38.32 42 39 C36.06 39 30.12 39 24 39 C24 38.34 24 37.68 24 37 C24.83 36.84 24.83 36.84 29 36 C29.33 30.72 29.66 25.44 30 20 C23.73 20 17.46 20 11 20 C11.33 25.28 11.66 30.56 12 36 C13.65 36.33 15.3 36.66 17 37 C17 37.66 17 38.32 17 39 C11.06 39 5.12 39 -1 39 C-1 38.34 -1 37.68 -1 37 C-0.17 36.84 -0.17 36.84 4 36 C4.33 24.78 4.66 13.56 5 2 C3.35 1.67 1.7 1.34 0 1 C0 0.67 0 0.34 0 0 Z " fill="#3C3835" transform="translate(66,61)"/>
<path d="M0 0 C0.46 0 0.46 0 2.81 0.03 C5.08 0.05 7.35 0.09 9.62 0.12 C9.62 3.42 9.62 6.72 9.62 10.12 C9.26 9.73 9.26 9.73 7.44 7.75 C2.85 3.46 -1.07 2.65 -7.22 2.81 C-10.6 3.3 -12.17 4.58 -14.38 7.12 C-16.27 11.71 -16.7 15.75 -16.75 20.69 C-16.78 21.97 -16.81 23.25 -16.84 24.57 C-16.3 28.68 -15.28 30.23 -12.38 33.12 C-8.11 35.97 -4.38 35.76 0.62 35.12 C3.97 33.85 6.96 32.45 8.62 29.12 C9.28 29.12 9.94 29.12 10.62 29.12 C10.05 31.99 9.14 33.7 6.88 35.57 C0.97 39.26 -4.5 40.39 -11.38 39.12 C-17.92 36.44 -21.53 31.9 -25.38 26.12 C-28.01 25.76 -28.01 25.76 -31.39 25.78 C-32.02 25.78 -32.02 25.78 -35.21 25.79 C-36.59 25.8 -37.97 25.82 -39.35 25.83 C-40.76 25.84 -42.17 25.84 -43.58 25.84 C-47.29 25.86 -51 25.89 -54.72 25.92 C-58.5 25.95 -62.29 25.96 -66.08 25.98 C-73.51 26.01 -80.94 26.06 -88.38 26.12 C-88.05 25.14 -87.71 24.14 -87.38 23.12 C-66.92 23.12 -46.45 23.12 -25.38 23.12 C-25.38 20.48 -25.38 17.84 -25.38 15.12 C-23.81 9.84 -20.64 5.58 -16.38 2.12 C-10.95 -0.3 -5.81 -0.11 0 0 Z " fill="#322E2B" transform="translate(372.375,60.875)"/>
<path d="M0 0 C6.6 -0.55 10.5 1.25 15.68 5.31 C19.94 9.39 20.88 13.53 21.19 19.23 C20.99 24.32 19.88 28.24 16.75 32.29 C10.99 37.62 6.23 39.68 -1.62 39.57 C-6.58 39.05 -10.44 37.27 -13.82 33.57 C-18.77 26.9 -18.96 20.45 -18.25 12.29 C-15.97 7.39 -12.62 4.35 -8.25 1.29 C-5.47 0.47 -2.86 0.37 0 0 Z M-9.25 7.29 C-12.04 14.28 -13.02 22.82 -10.2 29.95 C-8.49 32.74 -7.21 34.81 -4.25 36.29 C-0.19 36.8 3.95 37.21 7.67 35.32 C10.52 33.02 12.44 30.68 13.75 27.29 C14.34 20.6 14.59 13.48 11.75 7.29 C8.99 4.05 7.46 2.63 3.31 1.81 C-2.57 1.49 -5.73 2.23 -9.25 7.29 Z " fill="#3B463C" transform="translate(450.25,60.70703125)"/>
<path d="M0 0 C0 0.66 0 1.32 0 2 C1.32 2.66 2.64 3.32 4 4 C4 4.99 4 5.98 4 7 C-0.75 6.25 -0.75 6.25 -3 4 C-5.32 3.6 -7.66 3.26 -10 3 C-8.64 7.69 -6.74 9.17 -2.56 11.56 C1.09 13.67 3.86 15.3 6 19 C6.94 22.93 6.74 26.51 4.93 30.14 C2.95 32.8 1.25 34.61 -1.97 35.61 C-5.75 35.87 -8.38 35.12 -11.44 32.88 C-14 30 -14 30 -15 24 C-23.25 24 -31.5 24 -40 24 C-40 23.34 -40 22.68 -40 22 C-39.63 22 -39.63 22 -37.78 22 C-34.46 21.99 -31.14 21.93 -27.81 21.88 C-26.66 21.88 -25.51 21.88 -24.33 21.88 C-15.92 21.69 -15.92 21.69 -13.19 19.64 C-11.89 18.01 -11.89 18.01 -10 15 C-9.01 14.67 -8.02 14.34 -7 14 C-6.67 13.34 -6.34 12.68 -6 12 C-6.31 11.87 -6.31 11.87 -7.88 11.19 C-10 10 -10 10 -12 7 C-12.12 4.31 -12.12 4.31 -12 2 C-8.1 -0.6 -4.53 -0.15 0 0 Z " fill="#342F2D" transform="translate(56,17)"/>
<path d="M0 0 C0.66 0.58 1.32 1.16 2 1.75 C2 3.07 2 4.39 2 5.75 C-1.91 5.21 -3.89 4.08 -7 1.75 C-9.75 1.06 -9.75 1.06 -12 0.75 C-11.87 3 -11.87 3 -11 5.75 C-8.38 7.85 -8.38 7.85 -5.12 9.81 C1.9 14.09 1.9 14.09 4 17.75 C4.56 22.67 4.51 24.78 2.19 29.19 C-0.2 31.98 -1.52 32.53 -5.09 33.06 C-9.6 33.31 -11.41 33.22 -15.06 30.31 C-17.33 26.98 -17.72 23.85 -17.5 19.88 C-16.68 16.39 -14.83 14.79 -12 12.75 C-11.01 12.75 -10.02 12.75 -9 12.75 C-9.8 11.95 -10.61 11.14 -11.44 10.31 C-15 6.75 -15 6.75 -15.06 3.69 C-15.04 2.72 -15.02 1.75 -15 0.75 C-10.3 -2.38 -5 -2.08 0 0 Z " fill="#3B3734" transform="translate(457,17.25)"/>
<path d="M0 0 C5.28 0 10.56 0 16 0 C14.68 0.99 13.36 1.98 12 3 C10.78 3.96 9.57 4.94 8.38 5.94 C7.78 6.42 7.19 6.9 6.59 7.4 C3.03 10.99 2.68 14.3 2.62 19.25 C2.75 26.76 4.53 31.64 9.75 37 C10.49 37.66 11.24 38.32 12 39 C8.04 39 4.08 39 0 39 C0 38.34 0 37.68 0 37 C-1.98 37 -3.96 37 -6 37 C-6 25.78 -6 14.56 -6 3 C-4.02 3 -2.04 3 0 3 C0 2.01 0 1.02 0 0 Z " fill="#FBFBFB" transform="translate(430,60)"/>
<path d="M0 0 C0 -0.66 0 -1.32 0 -2 C0.66 -2 1.32 -2 2 -2 C2 1.63 2 5.26 2 9 C1.63 8.62 1.63 8.62 -0.25 6.69 C-4.42 2.61 -6.58 0.58 -12.56 0.62 C-13.04 0.62 -13.04 0.62 -15.44 0.6 C-18.39 1.06 -19.09 1.81 -21 4 C-21.66 4 -22.32 4 -23 4 C-26.14 10.56 -26.39 19.49 -24.24 26.46 C-22.42 29.86 -20.53 31.61 -17 33 C-12.5 33.56 -8.36 33.6 -4.19 31.75 C-3.47 31.17 -2.74 30.59 -2 30 C-1.07 29.28 -0.14 28.56 0.81 27.81 C1.53 27.21 2.26 26.62 3 26 C2.75 29.37 1.77 30.22 -0.75 32.62 C-6.23 36.84 -11.18 37.75 -18 37 C-24.6 34.91 -28.4 31.82 -31.81 25.81 C-33.66 19.87 -33.92 14.58 -31.81 8.69 C-29.82 5.73 -27.62 3.42 -25 1 C-24.34 0.34 -23.68 -0.32 -23 -1 C-15.6 -3.52 -7.29 -2.2 0 0 Z " fill="#2F2A27" transform="translate(236,63)"/>
<path d="M0 0 C3 0.44 3 0.44 6 -0.56 C6 3.4 6 7.36 6 11.44 C3 7.44 3 7.44 3 5.44 C2.22 5.13 1.43 4.82 0.62 4.5 C-2 3.44 -2 3.44 -4 2.44 C-8.83 1.92 -12.74 1.7 -17 4.19 C-21.25 8.97 -21.29 12.82 -21.19 19 C-21.19 19.77 -21.19 20.54 -21.19 21.33 C-21.16 24.61 -21.04 27.3 -20 30.44 C-15.08 34.18 -10.91 35.22 -4.73 35.04 C-0.02 34 2.86 30.96 6 27.44 C6.16 27.93 6.16 27.93 7 30.44 C1.05 35.89 -3.3 38.95 -11.59 38.76 C-16.83 38.06 -21.24 35.75 -25.44 32.62 C-29.47 26.98 -29.67 20.13 -29 13.44 C-27.31 7.46 -24.17 3.75 -19 0.44 C-13.15 -1.59 -6.03 -0.99 0 0 Z " fill="#2D2826" transform="translate(56,61.5625)"/>
<path d="M0 0 C21.12 0 42.24 0 64 0 C64.16 0.66 64.16 0.66 65 4 C64 5 64 5 61.45 5.12 C60.88 5.12 60.88 5.12 58.01 5.11 C56.73 5.11 55.45 5.11 54.13 5.11 C52.72 5.11 51.31 5.1 49.9 5.1 C48.47 5.1 47.04 5.09 45.6 5.09 C41.82 5.09 38.04 5.08 34.26 5.07 C30.41 5.06 26.56 5.05 22.7 5.05 C15.13 5.04 7.57 5.02 0 5 C0 3.35 0 1.7 0 0 Z " fill="#413C3A" transform="translate(135,72)"/>
<path d="M0 0 C3.96 2.35 4.82 4.59 6 9 C4.91 9.1 3.81 9.21 2.69 9.31 C-1.93 10.17 -1.93 10.17 -4 13 C-4.29 15.26 -4.29 15.26 -4.19 17.69 C-4.16 18.5 -4.13 19.3 -4.11 20.14 C-4.07 20.75 -4.04 21.37 -4 22 C-6.31 21.67 -8.62 21.34 -11 21 C-11.33 21.99 -11.66 22.98 -12 24 C-12 23.34 -12 22.68 -12 22 C-13.65 22 -15.3 22 -17 22 C-17.4 13.76 -16.93 8.57 -12.44 1.56 C-8.6 -0.9 -4.43 -0.79 0 0 Z " fill="#F9FAF9" transform="translate(456,63)"/>
<path d="M0 0 C5.94 0 11.88 0 18 0 C18 5.28 18 10.56 18 16 C11.07 18.31 7.08 18.42 0 17 C0 11.39 0 5.78 0 0 Z " fill="#FCFCFC" transform="translate(400,81)"/>
<path d="M0 0 C2.31 0 4.62 0 7 0 C7 0.66 7 1.32 7 2 C7.8 2.14 8.61 2.29 9.44 2.44 C12 3 12 3 13 4 C13.14 8.67 13.04 13.33 13 18 C7.06 18 1.12 18 -5 18 C-5 13.05 -5 8.1 -5 3 C-3.35 2.67 -1.7 2.34 0 2 C0 1.34 0 0.68 0 0 Z " fill="#F7FBF9" transform="translate(405,60)"/>
<path d="M0 0 C5.61 0 11.22 0 17 0 C16.34 0.33 16.34 0.33 13 2 C12.9 6.79 12.83 11.57 12.78 16.36 C12.76 17.99 12.73 19.62 12.7 21.25 C12.65 23.59 12.63 25.93 12.61 28.27 C12.6 28.63 12.6 28.63 12.55 30.48 C12.55 32.54 12.55 32.54 13 36 C14.32 36.99 15.64 37.98 17 39 C11.39 39 5.78 39 0 39 C0 38.34 0 37.68 0 37 C0.82 36.84 0.82 36.84 5 36 C5.33 30.39 5.66 24.78 6 19 C2.87 19.14 -0.25 19.29 -3.38 19.44 C-3.82 19.46 -3.82 19.46 -6.07 19.56 C-6.92 19.6 -7.77 19.64 -8.65 19.68 C-9.04 19.7 -9.04 19.7 -11.03 19.79 C-13 20 -13 20 -15 21 C-14.67 19.68 -14.34 18.36 -14 17 C-7.4 17.33 -0.8 17.66 6 18 C5.67 13.05 5.34 8.1 5 3 C3.35 2.34 1.7 1.68 0 1 C0 0.67 0 0.34 0 0 Z " fill="#2A2E27" transform="translate(412,61)"/>
<path d="M0 0 C0 4.29 0 8.58 0 13 C0.99 13 1.98 13 3 13 C3 8.71 3 4.42 3 0 C4.32 0 5.64 0 7 0 C7 7.26 7 14.52 7 22 C1.31 23.9 -1.31 24.2 -7 24 C-6.01 21.69 -5.02 19.38 -4 17 C-3.34 17 -2.68 17 -2 17 C-2 15.68 -2 14.36 -2 13 C-2.66 13 -3.32 13 -4 13 C-4 12.01 -4 11.02 -4 10 C-6.31 10 -8.62 10 -11 10 C-11 9.01 -11 8.02 -11 7 C-9.35 7 -7.7 7 -6 7 C-6 6.01 -6 5.02 -6 4 C-7.65 4 -9.3 4 -11 4 C-11 2.68 -11 1.36 -11 0 C-6.64 -1.15 -4.83 -0.81 0 0 Z " fill="#FAFCFB" transform="translate(386,75)"/>
<path d="M0 0 C2 2 2 2 3.25 4.81 C4.83 7.69 5.67 8.75 8.12 10.69 C11 13 11 13 12 16 C8.69 16.03 5.38 16.05 2.06 16.06 C1.12 16.07 0.17 16.08 -0.8 16.09 C-1.25 16.09 -1.25 16.09 -3.53 16.1 C-3.94 16.1 -3.94 16.1 -6.05 16.11 C-8 16 -8 16 -9 15 C-9 11.04 -9 7.08 -9 3 C-26.49 3 -43.98 3 -62 3 C-62 2.67 -62 2.34 -62 2 C-41.54 2 -21.08 2 0 2 C0 1.34 0 0.68 0 0 Z " fill="#D3E7DD" transform="translate(347,85)"/>
<path d="M0 0 C21.45 0 42.9 0 65 0 C65 1.32 65 2.64 65 4 C43.55 4 22.1 4 0 4 C0 2.68 0 1.36 0 0 Z " fill="#2B2624" transform="translate(135,86)"/>
<path d="M0 0 C5.61 0 11.22 0 17 0 C16.34 0.33 16.34 0.33 13 2 C12 3 12 3 11.89 6.14 C11.89 7.53 11.89 8.93 11.9 10.32 C11.9 10.68 11.9 10.68 11.91 12.53 C11.91 14.88 11.92 17.22 11.94 19.56 C11.94 21.15 11.95 22.73 11.95 24.32 C11.96 28.21 11.98 32.11 12 36 C13.65 36.33 15.3 36.66 17 37 C17 37.66 17 38.32 17 39 C11.39 39 5.78 39 0 39 C0 38.34 0 37.68 0 37 C0.66 36.84 0.66 36.84 4 36 C4.66 24.78 5.32 13.56 6 2 C5.01 1.84 5.01 1.84 0 1 C0 0.67 0 0.34 0 0 Z " fill="#322D2A" transform="translate(267,61)"/>
<path d="M0 0 C3.36 1.34 5.46 2.46 8 5 C8 6.32 8 7.64 8 9 C5.03 9 2.06 9 -1 9 C-1 13.95 -1 18.9 -1 24 C-1.33 23.34 -1.66 22.68 -2 22 C-4.31 22 -6.62 22 -9 22 C-9 21.01 -9 20.02 -9 19 C-7.02 19 -5.04 19 -3 19 C-3 18.01 -3 17.02 -3 16 C-4.98 16 -6.96 16 -9 16 C-9 14.68 -9 13.36 -9 12 C-7.02 12 -5.04 12 -3 12 C-3 11.01 -3 10.02 -3 9 C-4.49 9.16 -4.49 9.16 -12 10 C-12.33 14.62 -12.66 19.24 -13 24 C-13.33 24 -13.66 24 -14 24 C-14.34 20.94 -14.62 17.88 -14.88 14.81 C-14.97 13.95 -15.07 13.08 -15.17 12.19 C-15.65 5.95 -15.65 5.95 -13.83 3.29 C-9.4 -0.66 -5.57 -0.94 0 0 Z " fill="#F9FAF9" transform="translate(372,63)"/>
<path d="M0 0 C5.94 0 11.88 0 18 0 C18 0.99 18 1.98 18 3 C16.57 4.36 16.57 4.36 14.69 5.75 C9.79 9.77 8.13 14.24 7.31 20.44 C7.26 21.03 7.26 21.03 7 24 C4.69 24 2.38 24 0 24 C0 16.08 0 8.16 0 0 Z " fill="#FAFBFB" transform="translate(340,60)"/>
<path d="M0 0 C0.33 0 0.66 0 1 0 C1.33 3.63 1.66 7.26 2 11 C4.97 11.33 7.94 11.66 11 12 C11 9.03 11 6.06 11 3 C11.33 3 11.66 3 12 3 C12 13.56 12 24.12 12 35 C11.67 35 11.34 35 11 35 C11 28.07 11 21.14 11 14 C9.68 14 8.36 14 7 14 C7 18.29 7 22.58 7 27 C6.01 27 5.02 27 4 27 C4 22.71 4 18.42 4 14 C0.37 14 -3.26 14 -7 14 C-7 15.32 -7 16.64 -7 18 C-5.35 18 -3.7 18 -2 18 C-2 18.99 -2 19.98 -2 21 C-3.65 21 -5.3 21 -7 21 C-7 21.99 -7 22.98 -7 24 C-5.02 24 -3.04 24 -1 24 C-1 24.99 -1 25.98 -1 27 C-4.3 27 -7.6 27 -11 27 C-11 21.72 -11 16.44 -11 11 C-8.03 11 -5.06 11 -2 11 C-0.85 8.7 -0.69 6.92 -0.44 4.38 C-0.35 3.56 -0.27 2.74 -0.18 1.9 C-0.12 1.27 -0.06 0.65 0 0 Z " fill="#CAEEDC" transform="translate(382,61)"/>
<path d="M0 0 C0.59 0 0.59 0 3.55 0 C4.2 0 4.85 0 5.52 0 C7.71 -0 9.91 0 12.1 0.01 C13.67 0.01 15.24 0.01 16.8 0.01 C21.07 0.01 25.34 0.01 29.6 0.02 C34.06 0.03 38.51 0.03 42.96 0.03 C51.4 0.03 59.84 0.04 68.28 0.05 C77.89 0.06 87.49 0.07 97.1 0.07 C116.86 0.08 136.63 0.1 156.39 0.12 C156.39 0.45 156.39 0.78 156.39 1.12 C104.58 1.45 52.77 1.78 -0.61 2.12 C-0.94 10.04 -1.27 17.96 -1.61 26.12 C-2.27 26.12 -2.93 26.12 -3.61 26.12 C-3.64 21.98 -3.65 17.83 -3.67 13.69 C-3.68 12.5 -3.69 11.32 -3.69 10.1 C-3.7 8.97 -3.7 7.85 -3.7 6.69 C-3.71 5.65 -3.71 4.61 -3.72 3.53 C-3.56 0.16 -3.38 0.16 0 0 Z " fill="#C7EEDA" transform="translate(341.60620975494385,57.876952171325684)"/>
<path d="M0 0 C2.98 1.32 3.82 2.32 6 5 C6.8 8.36 6.27 10.82 5 14 C2.33 17.99 -0.57 21.64 -4 25 C-4.66 25 -5.32 25 -6 25 C-6 25.66 -6 26.32 -6 27 C-5.24 26.93 -4.48 26.86 -3.7 26.78 C-2.71 26.69 -1.71 26.6 -0.69 26.5 C0.3 26.41 1.28 26.31 2.3 26.22 C5 26 5 26 8 26 C7.67 26.83 7.67 26.83 6 31 C0.06 31 -5.88 31 -12 31 C-9.67 26.33 -6.64 23.22 -3.09 19.44 C0.63 15.11 1.35 11.66 2 6 C-1.55 4.82 -4.27 4.73 -8 5 C-9.94 6.5 -9.94 6.5 -11 8 C-10.65 5.41 -10.26 3.42 -8.88 1.19 C-5.79 -0.77 -3.56 -0.48 0 0 Z " fill="#4F4B49" transform="translate(122,83)"/>
<path d="M0 0 C0.33 0 0.66 0 1 0 C1.03 1.46 1.05 2.92 1.06 4.38 C1.07 5.19 1.09 6 1.1 6.84 C1 9 1 9 0 11 C-20.79 11 -41.58 11 -63 11 C-62.67 10.01 -62.34 9.02 -62 8 C-41.54 8 -21.08 8 0 8 C0 5.36 0 2.72 0 0 Z " fill="#696B66" transform="translate(347,76)"/>
<path d="M0 0 C3 2 3 2 3.68 4.7 C4.01 8.07 4.17 11.37 4.19 14.75 C4.2 15.88 4.22 17.01 4.23 18.17 C4 21 4 21 2 23 C2 22.34 2 21.68 2 21 C1.46 21.04 1.46 21.04 -1.25 21.25 C-5 21 -5 21 -7.44 19.5 C-9.64 15.98 -9.8 13.05 -9 9 C-7.44 6.5 -7.44 6.5 -5 5 C-1.25 4.75 -1.25 4.75 2 5 C1.34 3.35 0.68 1.7 0 0 Z " fill="#C6E9D8" transform="translate(460,67)"/>
<path d="M0 0 C1.65 0 3.3 0 5 0 C7.98 5.7 8.9 10.58 8 17 C6.33 22.23 3.82 26.16 -1 29 C-1.99 28.67 -2.98 28.34 -4 28 C-3.34 27.34 -2.68 26.68 -2 26 C0.44 20.59 0.23 15.43 0.12 9.62 C0.12 8.7 0.11 7.77 0.1 6.82 C0.07 4.54 0.04 2.27 0 0 Z " fill="#35312E" transform="translate(463,68)"/>
<path d="M0 0 C2.5 1.88 2.99 2.96 4 6 C4.23 8.72 4.13 11.25 4 14 C2 16 2 16 -1.94 16.38 C-4.75 16.28 -5.71 16.22 -8 14.5 C-9.43 10.93 -9.7 7.78 -9 4 C-6.5 0.3 -4.43 -0.8 0 0 Z " fill="#F6F6F6" transform="translate(54,33)"/>
<path d="M0 0 C3.17 2.76 3.92 4.38 4.44 8.56 C3.78 13.76 3.78 13.76 1 16 C-2.5 16.56 -2.5 16.56 -6 16 C-8.71 13.2 -9.2 10.65 -9.38 6.88 C-9 3 -9 3 -7.88 1 C-5.02 -0.52 -3.18 -0.52 0 0 Z " fill="#F4F4F4" transform="translate(453,32)"/>
<path d="M0 0 C0.33 0 0.66 0 1 0 C1.02 5.82 1.04 11.64 1.05 17.46 C1.06 19.44 1.07 21.43 1.08 23.41 C1.09 26.25 1.09 29.09 1.1 31.93 C1.1 32.83 1.11 33.72 1.11 34.64 C1.11 36.76 1.06 38.88 1 41 C0 42 0 42 -3.69 42.11 C-5.34 42.11 -6.98 42.11 -8.63 42.1 C-9.06 42.1 -9.06 42.1 -11.25 42.09 C-14.02 42.09 -16.79 42.08 -19.56 42.06 C-21.44 42.06 -23.31 42.05 -25.19 42.05 C-29.79 42.04 -34.4 42.02 -39 42 C-38.67 41.34 -38.34 40.68 -38 40 C-25.79 40 -13.58 40 -1 40 C-1.01 37.2 -1.02 34.39 -1.04 31.5 C-1.04 28.8 -1.05 26.1 -1.05 23.39 C-1.06 21.51 -1.07 19.62 -1.08 17.74 C-1.09 15.03 -1.09 12.33 -1.1 9.63 C-1.1 8.78 -1.11 7.93 -1.11 7.06 C-1.11 5.04 -1.06 3.02 -1 1 C-0.67 0.67 -0.34 0.34 0 0 Z " fill="#C1ECD6" transform="translate(498,59)"/>
<path d="M0 0 C0.66 0 1.32 0 2 0 C2.23 0.78 2.45 1.57 2.69 2.38 C4 5 4 5 6.38 5.94 C10.01 7.41 10.96 9.72 13 13 C14.32 14.32 15.64 15.64 17 17 C13.04 17 9.08 17 5 17 C5 16.34 5 15.68 5 15 C3.35 15 1.7 15 0 15 C0 10.05 0 5.1 0 0 Z " fill="#FAFAFA" transform="translate(425,82)"/>
<path d="M0 0 C0.99 0 1.98 0 3 0 C2.98 0.68 2.95 1.35 2.93 2.05 C2.91 2.94 2.89 3.83 2.88 4.75 C2.85 5.63 2.83 6.51 2.8 7.42 C3.01 10.11 3.63 11.7 5 14 C7.64 14 10.28 14 13 14 C13 14.99 13 15.98 13 17 C5.23 17.67 5.23 17.67 1.56 14.88 C-1 12 -1 12 -2 6 C-10.25 6 -18.5 6 -27 6 C-27 5.34 -27 4.68 -27 4 C-26.25 3.99 -25.51 3.97 -24.74 3.96 C-21.37 3.88 -18 3.78 -14.62 3.69 C-13.45 3.66 -12.27 3.64 -11.06 3.62 C-9.94 3.58 -8.82 3.55 -7.66 3.51 C-7.15 3.5 -7.15 3.5 -4.52 3.43 C-3.69 3.29 -2.86 3.15 -2 3 C-1.34 2.01 -0.68 1.02 0 0 Z " fill="#4F4B49" transform="translate(43,35)"/>
<path d="M0 0 C0.46 0 0.46 0 2.81 0.03 C5.08 0.05 7.35 0.09 9.62 0.12 C9.62 3.42 9.62 6.72 9.62 10.12 C8.9 9.34 8.18 8.56 7.44 7.75 C2.85 3.46 -1.07 2.65 -7.22 2.81 C-10.6 3.3 -12.17 4.58 -14.38 7.12 C-17.13 12.64 -17 19.07 -17.38 25.12 C-17.7 25.12 -18.04 25.12 -18.38 25.12 C-18.38 19.52 -18.38 13.91 -18.38 8.12 C-19.04 8.45 -19.04 8.45 -22.38 10.12 C-20.53 5.81 -18.23 2.95 -13.88 1.02 C-9.2 -0.17 -4.81 -0.09 0 0 Z " fill="#586058" transform="translate(372.375,60.875)"/>
<path d="M0 0 C2.29 -0.05 4.58 -0.09 6.88 -0.12 C7.51 -0.14 7.51 -0.14 10.74 -0.2 C14 0 14 0 16 2 C16.2 4.16 16.2 4.16 16.12 6.62 C16.11 7.44 16.09 8.26 16.07 9.1 C16.05 9.73 16.02 10.35 16 11 C14.68 11 13.36 11 12 11 C12 8.36 12 5.72 12 3 C11.34 3 10.68 3 10 3 C10 5.64 10 8.28 10 11 C8.68 11 7.36 11 6 11 C6 8.36 6 5.72 6 3 C5.67 3.17 5.67 3.17 4 4 C3.59 6.32 3.26 8.66 3 11 C2.01 11 1.02 11 0 11 C0 7.37 0 3.74 0 0 Z " fill="#CAEEDC" transform="translate(476,77)"/>
<path d="M0 0 C3.06 -0.5 3.06 -0.5 7 0 C9.12 1.89 10.79 3.9 12.52 6.15 C14 8 14 8 16 9 C16 9.66 16 10.32 16 11 C10.72 11 5.44 11 0 11 C0 7.37 0 3.74 0 0 Z " fill="#F9F9F9" transform="translate(341,88)"/>
<path d="M0 0 C6.27 0 12.54 0 19 0 C19 0.33 19 0.66 19 1 C13.06 1 7.12 1 1 1 C1 6.61 1 12.22 1 18 C2.65 18 4.3 18 6 18 C6 18.66 6 19.32 6 20 C0.39 20 -5.22 20 -11 20 C-11 19.34 -11 18.68 -11 18 C-9.35 17.34 -7.7 16.68 -6 16 C-5.67 12.04 -5.34 8.08 -5 4 C-3.68 4.99 -2.36 5.98 -1 7 C-0.67 4.69 -0.34 2.38 0 0 Z " fill="#474D46" transform="translate(399,80)"/>
<path d="M0 0 C3 0.44 3 0.44 6 -0.56 C6 3.4 6 7.36 6 11.44 C3 7.44 3 7.44 3 5.44 C2.22 5.13 1.43 4.82 0.62 4.5 C-2 3.44 -2 3.44 -4 2.44 C-8.8 1.92 -12.72 1.68 -16.94 4.19 C-18.78 6.2 -20.47 8.18 -22 10.44 C-22.33 9.78 -22.66 9.12 -23 8.44 C-23.83 8.93 -23.83 8.93 -28 11.44 C-26.64 6.29 -23.31 3.31 -19 0.44 C-13.16 -1.61 -6.02 -0.99 0 0 Z " fill="#494542" transform="translate(56,61.5625)"/>
<path d="M0 0 C0.33 0 0.66 0 1 0 C1 0.49 1 0.49 1.03 2.98 C1.07 6.63 1.13 10.28 1.21 13.93 C1.24 15.51 1.26 17.09 1.27 18.67 C1.29 20.95 1.34 23.22 1.39 25.49 C1.39 26.19 1.39 26.9 1.39 27.63 C1.45 29.63 1.45 29.63 2 33 C3.32 33.99 4.64 34.98 6 36 C0.39 36 -5.22 36 -11 36 C-11 35.34 -11 34.68 -11 34 C-9.02 33.34 -7.04 32.68 -5 32 C-4.34 28.37 -3.68 24.74 -3 21 C-2.67 21.99 -2.34 22.98 -2 24 C-1.34 24 -0.68 24 0 24 C0 16.08 0 8.16 0 0 Z " fill="#434B43" transform="translate(423,64)"/>
<path d="M0 0 C1.65 0 3.3 0 5 0 C5 0.99 5 1.98 5 3 C6.98 3 8.96 3 11 3 C11 6.3 11 9.6 11 13 C4.07 13.1 4.07 13.1 2 13 C0.19 11.19 0.62 8.39 0.44 5.94 C0.35 4.83 0.27 3.73 0.18 2.59 C0.15 2.16 0.15 2.16 0 0 Z " fill="#F9FBFA" transform="translate(382,60)"/>
<path d="M0 0 C0.33 0.99 0.66 1.98 1 3 C1.99 3.33 2.98 3.66 4 4 C3.03 4.31 2.06 4.62 1.06 4.94 C-2 6 -2 6 -3 7 C-3.25 11.93 -3.25 15.5 -1 20 C5.52 19.38 5.52 19.38 7.94 17.44 C8.29 16.96 8.64 16.49 9 16 C9.33 17.32 9.66 18.64 10 20 C5.7 22.42 1.86 22.96 -3 22 C-6.33 19.35 -7.6 17.88 -8.47 13.77 C-8.76 9.39 -8.39 7.52 -5.69 3.94 C-3 2 -3 2 0 2 C0 1.34 0 0.68 0 0 Z " fill="#383431" transform="translate(448,28)"/>
<path d="M0 0 C0.33 0 0.66 0 1 0 C1.33 3.63 1.66 7.26 2 11 C4.97 11.33 7.94 11.66 11 12 C11 9.03 11 6.06 11 3 C11.33 3 11.66 3 12 3 C12 13.56 12 24.12 12 35 C11.67 35 11.34 35 11 35 C11 28.07 11 21.14 11 14 C9.68 14 8.36 14 7 14 C7 18.29 7 22.58 7 27 C6.01 27 5.02 27 4 27 C4 22.71 4 18.42 4 14 C2.68 14 1.36 14 0 14 C-1.03 10.73 -0.96 8.14 -0.56 4.75 C-0.46 3.86 -0.36 2.97 -0.25 2.05 C-0.17 1.37 -0.09 0.7 0 0 Z " fill="#B2CABD" transform="translate(382,61)"/>
<path d="M0 0 C0.66 0 1.32 0 2 0 C2 3.63 2 7.26 2 11 C5.63 11 9.26 11 13 11 C13 11.66 13 12.32 13 13 C9.37 13 5.74 13 2 13 C2 16.96 2 20.92 2 25 C1.34 25 0.68 25 0 25 C0 21.04 0 17.08 0 13 C-3.63 13 -7.26 13 -11 13 C-11 12.01 -11 11.02 -11 10 C-7.37 10 -3.74 10 0 10 C0 6.7 0 3.4 0 0 Z " fill="#4C4845" transform="translate(424,23)"/>
<path d="M0 0 C2.97 0 5.94 0 9 0 C9 0.99 9 1.98 9 3 C7.02 3 5.04 3 3 3 C3 4.32 3 5.64 3 7 C4.98 7 6.96 7 9 7 C9 7.99 9 8.98 9 10 C7.02 10 5.04 10 3 10 C3 10.99 3 11.98 3 13 C4.98 13 6.96 13 9 13 C9 13.99 9 14.98 9 16 C6.03 16 3.06 16 0 16 C0 10.72 0 5.44 0 0 Z " fill="#C7EDDA" transform="translate(360,72)"/>
<path d="M0 0 C2.98 1.32 3.82 2.32 6 5 C6.42 8.2 6.18 10.99 5 14 C3.68 14.99 2.36 15.98 1 17 C1.33 13.37 1.66 9.74 2 6 C-1.55 4.82 -4.27 4.73 -8 5 C-9.94 6.5 -9.94 6.5 -11 8 C-10.65 5.41 -10.26 3.42 -8.88 1.19 C-5.79 -0.77 -3.56 -0.48 0 0 Z " fill="#4C4845" transform="translate(122,83)"/>
<path d="M0 0 C0.33 0 0.66 0 1 0 C1 5.28 1 10.56 1 16 C2.32 16 3.64 16 5 16 C5 14.35 5 12.7 5 11 C5.99 11.33 6.98 11.66 8 12 C8.33 16.29 8.66 20.58 9 25 C7.35 24.67 5.7 24.34 4 24 C3.67 22.35 3.34 20.7 3 19 C2.34 19 1.68 19 1 19 C1 23.95 1 28.9 1 34 C0.67 34 0.34 34 0 34 C0 22.78 0 11.56 0 0 Z " fill="#C3DDCF" transform="translate(424,63)"/>
<path d="M0 0 C0 -0.66 0 -1.32 0 -2 C0.66 -2 1.32 -2 2 -2 C2 1.63 2 5.26 2 9 C1.63 8.62 1.63 8.62 -0.25 6.69 C-4.39 2.64 -6.55 0.58 -12.5 0.62 C-13.44 0.62 -14.38 0.61 -15.34 0.6 C-18.36 1.05 -19.75 1.99 -22 4 C-22 3.01 -22 2.02 -22 1 C-22.66 0.67 -23.32 0.34 -24 0 C-16.15 -3.57 -8.05 -2.43 0 0 Z " fill="#4F4B49" transform="translate(236,63)"/>
<path d="M0 0 C0.33 0 0.66 0 1 0 C1.03 1.81 1.05 3.62 1.06 5.44 C1.07 6.45 1.09 7.46 1.1 8.5 C1 11 1 11 0 12 C-2.94 12.25 -2.94 12.25 -6 12 C-8.15 8.78 -8.38 7.73 -8 4 C-6 2 -6 2 -2.88 1.88 C-1.93 1.92 -0.98 1.96 0 2 C0 1.34 0 0.68 0 0 Z " fill="#F9FDFB" transform="translate(462,73)"/>
<path d="M0 0 C0.33 0.99 0.66 1.98 1 3 C-5.02 8.51 -9.29 11.42 -17.64 11.27 C-21.42 10.84 -24.52 9.52 -28 8 C-27.01 7.34 -26.02 6.68 -25 6 C-24.67 5.34 -24.34 4.68 -24 4 C-23.4 4.5 -22.8 4.99 -22.19 5.5 C-17.45 7.73 -13.14 8.04 -8 7 C-4.89 5.04 -2.44 2.74 0 0 Z " fill="#45413E" transform="translate(62,89)"/>
<path d="M0 0 C3.17 0.28 5.35 0.48 7.88 2.5 C9.59 6.32 9.68 9.89 9 14 C7.12 17.06 7.12 17.06 5 19 C4.34 19 3.68 19 3 19 C3.33 18.01 3.66 17.02 4 16 C4.55 9.49 3.32 5.58 0 0 Z " fill="#312D2A" transform="translate(53,31)"/>
<path d="M0 0 C5.61 0 11.22 0 17 0 C14 2 14 2 11 3 C10.97 3.6 10.95 4.21 10.92 4.83 C10.87 5.63 10.81 6.43 10.75 7.25 C10.73 7.64 10.73 7.64 10.61 9.64 C10 12 10 12 6 16 C5.67 11.71 5.34 7.42 5 3 C4.18 2.67 4.18 2.67 0 1 C0 0.67 0 0.34 0 0 Z " fill="#2A2622" transform="translate(388,61)"/>
<path d="M0 0 C1.15 4.09 1.11 8.03 1.06 12.25 C1.06 13 1.05 13.74 1.05 14.51 C1.04 16.34 1.02 18.17 1 20 C-2.59 16.59 -4.44 13.76 -6 9 C-6 5.75 -6 5.75 -5 3 C-2.44 1.12 -2.44 1.12 0 0 Z " fill="#2E4E3A" transform="translate(354,68)"/>
<path d="M0 0 C3.3 0 6.6 0 10 0 C10 5.28 10 10.56 10 16 C9.67 16 9.34 16 9 16 C8.94 15.4 8.88 14.79 8.82 14.17 C8.73 13.37 8.65 12.57 8.56 11.75 C8.48 10.96 8.4 10.17 8.32 9.36 C8.02 7.18 7.58 5.12 7 3 C5.68 3 4.36 3 3 3 C2.67 4.32 2.34 5.64 2 7 C1.01 7 0.02 7 -1 7 C-0.67 4.69 -0.34 2.38 0 0 Z " fill="#C2E4D3" transform="translate(408,81)"/>
<path d="M0 0 C0.66 0.58 1.32 1.16 2 1.75 C2 3.07 2 4.39 2 5.75 C-1.91 5.21 -3.89 4.08 -7 1.75 C-9.75 1.06 -9.75 1.06 -12 0.75 C-12.33 3.06 -12.66 5.37 -13 7.75 C-13.66 7.42 -14.32 7.09 -15 6.75 C-15 4.77 -15 2.79 -15 0.75 C-10.3 -2.38 -5 -2.08 0 0 Z " fill="#5E5A58" transform="translate(457,17.25)"/>
<path d="M0 0 C0.33 0.99 0.66 1.98 1 3 C-5.18 8.66 -9.32 11.21 -17.82 11.27 C-20.24 10.97 -21.89 10.21 -24 9 C-22.98 8.89 -21.95 8.78 -20.89 8.67 C-19.53 8.51 -18.17 8.35 -16.81 8.19 C-16.14 8.12 -15.47 8.05 -14.77 7.97 C-8.18 7.17 -4.46 4.79 0 0 Z " fill="#504C4A" transform="translate(238,89)"/>
<path d="M0 0 C0.63 0.01 0.63 0.01 3.81 0.06 C3.81 0.72 3.81 1.38 3.81 2.06 C5.13 2.72 6.45 3.38 7.81 4.06 C7.81 5.05 7.81 6.04 7.81 7.06 C3.06 6.31 3.06 6.31 0.81 4.06 C-1.35 3.65 -1.35 3.65 -3.81 3.44 C-4.22 3.4 -4.22 3.4 -6.29 3.21 C-6.92 3.16 -7.54 3.11 -8.19 3.06 C-6.46 -0.4 -3.47 -0.06 0 0 Z " fill="#6A6764" transform="translate(52.1875,16.9375)"/>
<path d="M0 0 C0.66 0.33 1.32 0.66 2 1 C2.39 3.68 2.65 6.24 2.81 8.94 C2.88 9.68 2.94 10.42 3.01 11.19 C3.14 13.34 3.14 13.34 3 17 C2.5 17.33 2.5 17.33 0 19 C-1.74 17.26 -1.13 15.04 -1.14 12.73 C-1.13 12.03 -1.13 11.34 -1.12 10.62 C-1.13 9.94 -1.13 9.25 -1.14 8.55 C-1.13 5.43 -0.99 2.98 0 0 Z " fill="#D8EFE3" transform="translate(356,71)"/>
<path d="M0 0 C2.64 0 5.28 0 8 0 C7.67 2.31 7.34 4.62 7 7 C4.69 7 2.38 7 0 7 C0 4.69 0 2.38 0 0 Z " fill="#FAFDFB" transform="translate(400,81)"/>
<path d="M0 0 C1.65 0 3.3 0 5 0 C7.29 3.44 7.18 4.99 7 9 C5.35 9.33 3.7 9.66 2 10 C1.34 6.7 0.68 3.4 0 0 Z " fill="#2A2623" transform="translate(463,68)"/>
<path d="M0 0 C12.87 0 25.74 0 39 0 C39 0.33 39 0.66 39 1 C27.78 1.33 16.56 1.66 5 2 C5 2.66 5 3.32 5 4 C4.18 3.67 4.18 3.67 0 2 C0 1.34 0 0.68 0 0 Z " fill="#F0F1F0" transform="translate(458,60)"/>
<path d="M0 0 C0.33 0 0.66 0 1 0 C1 4.62 1 9.24 1 14 C-1.97 14 -4.94 14 -8 14 C-7.67 12.35 -7.34 10.7 -7 9 C-5.02 9 -3.04 9 -1 9 C-0.67 6.03 -0.34 3.06 0 0 Z " fill="#C7DBD0" transform="translate(417,64)"/>
<path d="M0 0 C0.82 0.16 0.82 0.16 5 1 C5.25 8.62 5.25 8.62 3 12 C2.34 12 1.68 12 1 12 C0.67 8.04 0.34 4.08 0 0 Z " fill="#302C29" transform="translate(456,34)"/>
<path d="M0 0 C0.66 0 1.32 0 2 0 C1.43 2.87 0.51 4.58 -1.75 6.45 C-7.81 10.23 -12.98 10.59 -20 10 C-20 9.67 -20 9.34 -20 9 C-18.02 8.67 -16.04 8.34 -14 8 C-14 7.67 -14 7.34 -14 7 C-13.41 6.91 -12.82 6.83 -12.21 6.74 C-6.58 5.74 -3.86 4.44 0 0 Z " fill="#5E6960" transform="translate(381,90)"/>
<path d="M0 0 C0.66 0.66 1.32 1.32 2 2 C1.67 2.17 1.67 2.17 0 3 C0 3.99 0 4.98 0 6 C-0.33 5.67 -0.66 5.34 -1 5 C-7.39 4.53 -7.39 4.53 -9.94 6.5 C-10.29 7 -10.64 7.49 -11 8 C-10.65 5.41 -10.26 3.42 -8.88 1.19 C-5.93 -0.68 -3.39 -0.31 0 0 Z " fill="#585452" transform="translate(122,83)"/>
<path d="M0 0 C0.33 0 0.66 0 1 0 C1.03 1.79 1.05 3.58 1.06 5.38 C1.07 6.37 1.09 7.37 1.1 8.4 C1 11 1 11 0 13 C-3.63 13 -7.26 13 -11 13 C-11 12.01 -11 11.02 -11 10 C-7.37 10 -3.74 10 0 10 C0 6.7 0 3.4 0 0 Z " fill="#7E7B79" transform="translate(424,23)"/>
<path d="M0 0 C-0.66 0.33 -0.66 0.33 -4 2 C-5.01 1.2 -6.02 0.39 -7.06 -0.44 C-10.76 -3.11 -13.49 -3.72 -18 -4 C-18 -4.33 -18 -4.66 -18 -5 C-10.43 -6.95 -6.16 -4.14 0 0 Z " fill="#44403D" transform="translate(467,67)"/>
<path d="M0 0 C0.82 0.17 0.82 0.17 5 1 C5.2 7.05 5.2 7.05 5 9 C4.34 9.66 3.68 10.32 3 11 C1.5 10 1.5 10 0 8 C-0.27 5.28 -0.13 2.74 0 0 Z " fill="#21432E" transform="translate(465,79)"/>
<path d="M0 0 C2 3 2 3 3 6 C4.32 6 5.64 6 7 6 C7.33 5.34 7.66 4.68 8 4 C8 7.3 8 10.6 8 14 C7.67 14 7.34 14 7 14 C7 12.35 7 10.7 7 9 C5.35 8.67 3.7 8.34 2 8 C2 10.64 2 13.28 2 16 C1.67 16 1.34 16 1 16 C0.67 10.72 0.34 5.44 0 0 Z " fill="#496051" transform="translate(463,71)"/>
<path d="M0 0 C0.66 0.99 1.32 1.98 2 3 C1.05 4.17 0.09 5.34 -0.88 6.5 C-1.41 7.15 -1.94 7.8 -2.49 8.47 C-2.74 8.72 -2.74 8.72 -4 10 C-4.66 10 -5.32 10 -6 10 C-6 10.66 -6 11.32 -6 12 C-2.37 12 1.26 12 5 12 C5 12.33 5 12.66 5 13 C1.04 13 -2.92 13 -7 13 C-7.33 12.01 -7.66 11.02 -8 10 C-6.35 7.52 -6.35 7.52 -4.06 4.81 C-3.31 3.91 -2.56 3.01 -1.79 2.08 C-1.49 1.74 -1.49 1.74 0 0 Z " fill="#73706E" transform="translate(122,98)"/>
<path d="M0 0 C0 2 0 4 0 6 C-4.86 8.59 -9.65 8.19 -15 8 C-13 5 -13 5 -10.72 4.38 C-9.84 4.25 -8.97 4.13 -8.06 4 C-4.32 3.47 -2.44 2.96 0 0 Z " fill="#676F67" transform="translate(461,92)"/>
<path d="M0 0 C1.15 4.09 1.11 8.03 1.06 12.25 C1.06 13 1.05 13.74 1.05 14.51 C1.04 16.34 1.02 18.17 1 20 C1.66 20 2.32 20 3 20 C4.63 22.5 4.63 22.5 6 25 C1.41 23.55 1.41 23.55 -0.15 21.46 C-1.42 17.78 -1.25 14.24 -1.19 10.38 C-1.19 9.6 -1.19 8.82 -1.19 8.02 C-1.14 2.28 -1.14 2.28 0 0 Z " fill="#CAC9C8" transform="translate(35,70)"/>
<path d="M0 0 C0.64 0.62 1.28 1.24 1.94 1.88 C5.82 4.57 9.4 5.24 14 6 C14 6.33 14 6.66 14 7 C6.71 7.47 2.03 7.29 -4 3 C-2 2 -2 2 0 2 C0 1.34 0 0.68 0 0 Z " fill="#4A4644" transform="translate(441,92)"/>
<path d="M0 0 C1.32 0 2.64 0 4 0 C4.66 2.64 5.32 5.28 6 8 C4.02 7.34 2.04 6.68 0 6 C-0.38 4.34 -0.71 2.68 -1 1 C-0.67 0.67 -0.34 0.34 0 0 Z " fill="#2E2A27" transform="translate(436,88)"/>
<path d="M0 0 C-0.75 4.75 -0.75 4.75 -3 7 C-3.33 6.34 -3.66 5.68 -4 5 C-4.83 5.5 -4.83 5.5 -9 8 C-7.08 2.53 -6.1 0 0 0 Z " fill="#4A4744" transform="translate(37,65)"/>
<path d="M0 0 C-0.5 3.69 -1.1 5.6 -4 8 C-4.33 7.34 -4.66 6.68 -5 6 C-5.66 6.33 -5.66 6.33 -9 8 C-7.14 3.65 -5.02 0 0 0 Z " fill="#3B3734" transform="translate(214,64)"/>
<path d="M0 0 C0.33 0.99 0.66 1.98 1 3 C1.99 3.33 2.98 3.66 4 4 C3.09 4.29 2.19 4.58 1.25 4.88 C0.71 5.06 0.71 5.06 -2 6 C-2.76 6.21 -3.53 6.41 -4.31 6.62 C-6.49 8.4 -6.4 9.39 -6.75 12.12 C-6.83 13.4 -6.92 14.68 -7 16 C-7.33 16 -7.66 16 -8 16 C-8.78 8.03 -8.78 8.03 -5.69 3.94 C-3 2 -3 2 0 2 C0 1.34 0 0.68 0 0 Z " fill="#656160" transform="translate(448,28)"/>
<path d="M0 0 C0.33 0.99 0.66 1.98 1 3 C-6.43 10 -6.43 10 -11 10 C-12.35 9.37 -13.69 8.71 -15 8 C-14.42 7.93 -13.84 7.85 -13.24 7.77 C-6.93 6.71 -4.13 4.88 0 0 Z " fill="#5A5654" transform="translate(62,89)"/>
<path d="M0 0 C2.31 0.33 4.62 0.66 7 1 C6.67 1.66 6.34 2.32 6 3 C5.34 2.67 4.68 2.34 4 2 C4 3.65 4 5.3 4 7 C2.68 7 1.36 7 0 7 C0 4.69 0 2.38 0 0 Z " fill="#D3F1E2" transform="translate(425,72)"/>
<path d="M0 0 C0.66 0 1.32 0 2 0 C2 3.3 2 6.6 2 10 C-0.65 7.42 -2.94 5.08 -5 2 C-4.18 2.16 -4.18 2.16 0 3 C0 2.01 0 1.02 0 0 Z " fill="#484442" transform="translate(380,61)"/>
<path d="M0 0 C1.6 4 0.29 7.05 -1 11 C-3.62 7.94 -4 7.27 -4 3 C-2 1.25 -2 1.25 0 0 Z " fill="#211E1A" transform="translate(354,68)"/>
<path d="M0 0 C0 3.63 0 7.26 0 11 C-2.83 8.17 -3.72 6.65 -5 3 C-2.25 0 -2.25 0 0 0 Z " fill="#4D4947" transform="translate(238,61)"/>
<path d="M0 0 C1.32 0.33 2.64 0.66 4 1 C3.34 4.63 2.68 8.26 2 12 C1.34 12 0.68 12 0 12 C0 8.04 0 4.08 0 0 Z " fill="#C0E8D4" transform="translate(345,72)"/>
<path d="M0 0 C0.66 1.32 1.32 2.64 2 4 C-1.06 5.78 -3.22 6.23 -6.75 6.12 C-7.55 6.11 -8.35 6.09 -9.17 6.07 C-9.78 6.05 -10.38 6.02 -11 6 C-8 4 -8 4 -4.38 3 C-3.26 2.67 -2.15 2.34 -1 2 C-0.67 1.34 -0.34 0.68 0 0 Z " fill="#5F5B59" transform="translate(456,44)"/>
<path d="M0 0 C0.33 0 0.66 0 1 0 C1.05 2.12 1.09 4.25 1.12 6.38 C1.15 7.56 1.17 8.74 1.2 9.96 C1 13 1 13 -1 15 C-1 14.34 -1 13.68 -1 13 C-3.31 13 -5.62 13 -8 13 C-8 12.67 -8 12.34 -8 12 C-5.69 12 -3.38 12 -1 12 C-0.67 8.04 -0.34 4.08 0 0 Z " fill="#D8E3DD" transform="translate(463,75)"/>
<path d="M0 0 C0.66 0 1.32 0 2 0 C2.33 1.98 2.66 3.96 3 6 C2.01 6.33 1.02 6.66 0 7 C-0.66 7.66 -1.32 8.32 -2 9 C-2.33 7.68 -2.66 6.36 -3 5 C-2.34 5 -1.68 5 -1 5 C-0.67 3.35 -0.34 1.7 0 0 Z " fill="#294835" transform="translate(436,82)"/>
<path d="M0 0 C0.5 0.33 0.5 0.33 3 2 C3.19 5.12 3.19 5.12 3 8 C1.68 8.33 0.36 8.66 -1 9 C-0.67 6.03 -0.34 3.06 0 0 Z " fill="#BCDECC" transform="translate(471,78)"/>
<path d="M0 0 C0.33 0.99 0.66 1.98 1 3 C-1.31 4.98 -3.62 6.96 -6 9 C-6.99 8.34 -7.98 7.68 -9 7 C-8.63 6.79 -8.63 6.79 -6.75 5.75 C-4.1 4.06 -2.13 2.29 0 0 Z " fill="#696563" transform="translate(238,89)"/>
<path d="M0 0 C0.9 0.11 1.8 0.22 2.73 0.34 C3.07 0.38 3.07 0.38 4.81 0.62 C4.81 1.28 4.81 1.95 4.81 2.62 C-0.13 3.83 -3.4 3.25 -8.19 1.62 C-4.74 -0.68 -3.95 -0.51 0 0 Z " fill="#797675" transform="translate(375.1875,61.375)"/>
<path d="M0 0 C-0.62 0.08 -1.24 0.16 -1.88 0.25 C-4 1 -4 1 -5.12 2.62 C-6.26 5.71 -7.15 8.83 -8 12 C-8.33 12 -8.66 12 -9 12 C-9.49 4.72 -9.49 4.72 -7.31 1.5 C-4.62 -0.25 -3.15 -0.35 0 0 Z " fill="#C6C5C4" transform="translate(54,33)"/>
<path d="M0 0 C1.67 -0.04 3.33 -0.04 5 0 C6 1 6 1 6.1 3.29 C6.09 4.2 6.07 5.12 6.06 6.06 C6.05 6.98 6.04 7.9 6.04 8.85 C6.02 9.56 6.01 10.27 6 11 C5.67 11 5.34 11 5 11 C4.73 9.93 4.46 8.86 4.19 7.75 C3.14 4.43 2.25 2.56 0 0 Z " fill="#201B18" transform="translate(120,85)"/>
<path d="M0 0 C0.33 0 0.66 0 1 0 C1.2 3.63 0.86 5.87 -1 9 C-1.66 9 -2.32 9 -3 9 C-2.25 2.25 -2.25 2.25 0 0 Z " fill="#21452F" transform="translate(397,73)"/>
<path d="M0 0 C2.67 2.67 5.33 5.33 8 8 C6.68 8.33 5.36 8.66 4 9 C0 4.5 0 4.5 0 0 Z " fill="#46413F" transform="translate(443,19)"/>
<path d="M0 0 C0.83 0.16 0.83 0.16 5 1 C5.33 2.32 5.66 3.64 6 5 C4.35 4.67 2.7 4.34 1 4 C0.67 2.68 0.34 1.36 0 0 Z " fill="#3C3735" transform="translate(54,19)"/>
<path d="M0 0 C3.12 -0.19 3.12 -0.19 6 0 C6 0.99 6 1.98 6 3 C3.36 3 0.72 3 -2 3 C-1.34 2.01 -0.68 1.02 0 0 Z " fill="#827F7D" transform="translate(50,49)"/>
<path d="M0 0 C0.33 0.66 0.66 1.32 1 2 C1.99 2.33 2.98 2.66 4 3 C3.05 3.31 2.1 3.62 1.12 3.94 C-2 5 -2 5 -4 6 C-4.66 5.34 -5.32 4.68 -6 4 C-4.02 2.68 -2.04 1.36 0 0 Z " fill="#565350" transform="translate(50,30)"/>
<path d="M0 0 C1.88 0.25 1.88 0.25 4 1 C5.25 3.06 5.25 3.06 6 5 C4.35 5 2.7 5 1 5 C0.67 3.35 0.34 1.7 0 0 Z " fill="#3D3836" transform="translate(454,30)"/>
<path d="M0 0 C0 0.66 0 1.32 0 2 C0.99 2.17 0.99 2.17 6 3 C6 3.33 6 3.66 6 4 C2.7 4 -0.6 4 -4 4 C-4 3.01 -4 2.02 -4 1 C-2 0 -2 0 0 0 Z " fill="#C5EED9" transform="translate(380,96)"/>
<path d="M0 0 C0.33 1.32 0.66 2.64 1 4 C0.4 4.14 -0.2 4.29 -0.81 4.44 C-2.56 4.89 -4.29 5.43 -6 6 C-4.95 3.38 -4.35 2.21 -1.88 0.75 C-1.26 0.5 -0.64 0.25 0 0 Z " fill="#373330" transform="translate(356,65)"/>
<path d="M0 0 C3 4 3 4 3 7 C2.34 7 1.68 7 1 7 C0.67 7.99 0.34 8.98 0 10 C0 6.7 0 3.4 0 0 Z " fill="#21281F" transform="translate(348,77)"/>
<path d="M0 0 C1.32 0.66 2.64 1.32 4 2 C4 2.99 4 3.98 4 5 C2.35 5 0.7 5 -1 5 C-0.67 3.35 -0.34 1.7 0 0 Z " fill="#C8EBDA" transform="translate(410,73)"/>
<path d="M0 0 C0.66 0.33 1.32 0.66 2 1 C1.76 1.27 1.76 1.27 0.56 2.62 C-1.28 5.43 -1.62 7.7 -2 11 C-2.33 11 -2.66 11 -3 11 C-3.37 3.49 -3.37 3.49 -1.5 1 C-1 0.67 -0.51 0.34 0 0 Z " fill="#CFCDCD" transform="translate(447,32)"/>
<path d="M0 0 C0.66 0 1.32 0 2 0 C2.29 0.78 2.58 1.57 2.88 2.38 C4 5 4 5 6 7 C5.01 7.33 4.02 7.66 3 8 C0.38 4.94 0 4.27 0 0 Z " fill="#433F3D" transform="translate(44,20)"/>
<path d="M0 0 C0.33 0.17 0.33 0.17 2 1 C2 1.66 2 2.32 2 3 C2.66 3 3.32 3 4 3 C5.62 5.5 5.62 5.5 7 8 C4.62 7.38 4.62 7.38 2 6 C0.69 2.88 0.69 2.88 0 0 Z " fill="#A3A2A0" transform="translate(34,87)"/>
<path d="M0 0 C-1.39 3.37 -2.98 4.99 -6 7 C-5.37 3.36 -4.15 0 0 0 Z " fill="#E2E1E1" transform="translate(363,64)"/>
<path d="M0 0 C0.33 0 0.66 0 1 0 C1.33 2.97 1.66 5.94 2 9 C1.34 9.33 1.34 9.33 -2 11 C-1.34 7.37 -0.68 3.74 0 0 Z " fill="#4D4846" transform="translate(58,39)"/>
<path d="M0 0 C0.99 0 1.98 0 3 0 C3 1.65 3 3.3 3 5 C2.01 5 1.02 5 0 5 C0 3.35 0 1.7 0 0 Z " fill="#1F1F1A" transform="translate(467,80)"/>
<path d="M0 0 C1.98 0 3.96 0 6 0 C6 1.32 6 2.64 6 4 C4.12 3.69 4.12 3.69 2 3 C1.34 2.01 0.68 1.02 0 0 Z " fill="#322D2B" transform="translate(375,63)"/>
<path d="M0 0 C1.68 0.29 3.34 0.62 5 1 C5 4 5 4 4 6 C2.35 4.35 0.7 2.7 -1 1 C-0.67 0.67 -0.34 0.34 0 0 Z " fill="#6B6866" transform="translate(230,62)"/>
<path d="M0 0 C1.65 0 3.3 0 5 0 C4.67 0.99 4.34 1.98 4 3 C2.68 3 1.36 3 0 3 C0 2.01 0 1.02 0 0 Z " fill="#CAEFDC" transform="translate(400,85)"/>
<path d="M0 0 C0 1.98 0 3.96 0 6 C-0.66 6 -1.32 6 -2 6 C-2.66 4.68 -3.32 3.36 -4 2 C-1 0 -1 0 0 0 Z " fill="#26211E" transform="translate(237,62)"/>
<path d="M0 0 C0.66 0.33 1.32 0.66 2 1 C2 1.66 2 2.32 2 3 C2.99 3.33 3.98 3.66 5 4 C5 4.33 5 4.66 5 5 C3.35 5 1.7 5 0 5 C0 3.33 0 1.67 0 0 Z " fill="#504B49" transform="translate(46,46)"/>
<path d="M0 0 C-1.75 4.88 -1.75 4.88 -4 6 C-4.66 5.34 -5.32 4.68 -6 4 C-2.25 0 -2.25 0 0 0 Z " fill="#7E7B79" transform="translate(383,90)"/>
<path d="M0 0 C-0.75 1.94 -0.75 1.94 -2 4 C-4.12 4.75 -4.12 4.75 -6 5 C-4.62 2.23 -3.26 0 0 0 Z " fill="#D9D8D8" transform="translate(116,87)"/>
<path d="M0 0 C0.6 0.21 1.2 0.41 1.81 0.62 C1.48 1.28 1.15 1.94 0.81 2.62 C-0.18 2.46 -0.18 2.46 -5.19 1.62 C-2.19 -0.38 -2.19 -0.38 0 0 Z " fill="#CAEFDC" transform="translate(489.1875,77.375)"/>
<path d="M0 0 C1.32 0 2.64 0 4 0 C3.67 1.65 3.34 3.3 3 5 C2.67 4.01 2.34 3.02 2 2 C1.01 1.67 0.02 1.34 -1 1 C-0.67 0.67 -0.34 0.34 0 0 Z " fill="#413D3A" transform="translate(33,65)"/>
<path d="M0 0 C0.99 0.16 0.99 0.16 6 1 C6.33 1.99 6.66 2.98 7 4 C4.08 2.93 2.22 2.22 0 0 Z " fill="#C3C1C0" transform="translate(48,25)"/>
<path d="M0 0 C0.33 0.99 0.66 1.98 1 3 C0.34 3.66 -0.32 4.32 -1 5 C-1.99 4.67 -2.98 4.34 -4 4 C-2.68 2.68 -1.36 1.36 0 0 Z " fill="#817E7C" transform="translate(238,89)"/>
<path d="M0 0 C1.32 0 2.64 0 4 0 C4 0.99 4 1.98 4 3 C2.68 3 1.36 3 0 3 C0 2.01 0 1.02 0 0 Z " fill="#CAEFDD" transform="translate(439,79)"/>
<path d="M0 0 C0.99 0 1.98 0 3 0 C3 1.32 3 2.64 3 4 C2.01 4 1.02 4 0 4 C0 2.68 0 1.36 0 0 Z " fill="#F7FCFA" transform="translate(425,75)"/>
<path d="M0 0 C0.66 0.99 1.32 1.98 2 3 C0.68 3.99 -0.64 4.98 -2 6 C-1.49 3.83 -1 2 0 0 Z " fill="#666361" transform="translate(122,98)"/>
<path d="M0 0 C1.65 0 3.3 0 5 0 C5.33 0.66 5.66 1.32 6 2 C5.34 2 4.68 2 4 2 C3.67 2.66 3.34 3.32 3 4 C2.01 2.68 1.02 1.36 0 0 Z " fill="#282421" transform="translate(120,85)"/>
<path d="M0 0 C0.99 0.33 1.98 0.66 3 1 C2.67 2.65 2.34 4.3 2 6 C1.34 5.34 0.68 4.68 0 4 C0 2.68 0 1.36 0 0 Z " fill="#BDE9D3" transform="translate(429,74)"/>
<path d="M0 0 C0.99 0.33 1.98 0.66 3 1 C3 1.99 3 2.98 3 4 C1.68 3.67 0.36 3.34 -1 3 C-0.67 2.01 -0.34 1.02 0 0 Z " fill="#CEEDDE" transform="translate(440,71)"/>
<path d="M0 0 C0.33 1.32 0.66 2.64 1 4 C-0.65 4 -2.3 4 -4 4 C-2.68 2.68 -1.36 1.36 0 0 Z " fill="#201C19" transform="translate(438,68)"/>
<path d="M0 0 C0.33 0.99 0.66 1.98 1 3 C0.51 3.33 0.51 3.33 -2 5 C-2 2 -2 2 0 0 Z " fill="#868382" transform="translate(62,89)"/>
<path d="M0 0 C-0.99 0.66 -1.98 1.32 -3 2 C-4.32 1.34 -5.64 0.68 -7 0 C-4.33 -1.33 -2.83 -0.67 0 0 Z " fill="#6E6A69" transform="translate(59,63)"/>
<path d="M0 0 C1.32 0 2.64 0 4 0 C4 0.66 4 1.32 4 2 C2.68 2.33 1.36 2.66 0 3 C0 2.01 0 1.02 0 0 Z " fill="#D6D6D5" transform="translate(358,60)"/>
<path d="M0 0 C0.82 0.16 0.82 0.16 5 1 C4.67 1.66 4.34 2.32 4 3 C3.01 3 2.02 3 1 3 C0.67 2.01 0.34 1.02 0 0 Z " fill="#292421" transform="translate(449,27)"/>
<path d="M0 0 C-0.33 0.99 -0.66 1.98 -1 3 C-1.99 3 -2.98 3 -4 3 C-4 2.34 -4 1.68 -4 1 C-2 0 -2 0 0 0 Z " fill="#E2E1E1" transform="translate(380,96)"/>
<path d="M0 0 C0.99 0 1.98 0 3 0 C3 0.99 3 1.98 3 3 C2.01 3 1.02 3 0 3 C0 2.01 0 1.02 0 0 Z " fill="#C4EDD8" transform="translate(446,84)"/>
<path d="M0 0 C0.66 0 1.32 0 2 0 C1.67 0.99 1.34 1.98 1 3 C0.01 2.67 -0.98 2.34 -2 2 C-1.34 1.34 -0.68 0.68 0 0 Z " fill="#2B2623" transform="translate(461,94)"/>
<path d="M0 0 C0.99 0 1.98 0 3 0 C2.34 1.32 1.68 2.64 1 4 C0.67 2.68 0.34 1.36 0 0 Z " fill="#344B3B" transform="translate(467,86)"/>
<path d="M0 0 C0.99 0.33 1.98 0.66 3 1 C2.67 1.5 2.67 1.5 1 4 C0.67 2.68 0.34 1.36 0 0 Z " fill="#393934" transform="translate(433,87)"/>
<path d="M0 0 C0.66 0 1.32 0 2 0 C1.67 0.99 1.34 1.98 1 3 C0.34 2.34 -0.32 1.68 -1 1 C-0.67 0.67 -0.34 0.34 0 0 Z " fill="#6F6C6A" transform="translate(58,93)"/>
</svg>
