<?xml version="1.0" encoding="UTF-8"?>
<svg xmlns="http://www.w3.org/2000/svg" viewBox="0 0 2430 556" width="2430" height="556" shape-rendering="geometricPrecision">
<path d="M588 500.5L588 495L598 495L608 495L608 499.3C608 501.66 607.46 504.14 606.8 504.8C606.05 505.55 602.31 506 596.8 506L588 506L588 500.5ZM638 500.54L638 495L648.05 495L658.1 495L657.8 500.25L657.5 505.5L647.75 505.79L638 506.07L638 500.54ZM689.25 505.36C688.49 505.04 688 502.9 688 499.92L688 495L698.05 495L708.1 495L707.8 500.25L707.5 505.5L699 505.69C694.33 505.79 689.94 505.64 689.25 505.36ZM738.7 505.37C738.32 504.98 738 502.56 738 499.99C738 495.95 738.35 495.16 740.56 494.16C741.96 493.52 742.93 492.66 742.71 492.25C742.48 491.84 735.03 478.19 726.15 461.93C717.27 445.66 710 431.82 710 431.18C710 430.33 714 430 724.3 430C734.09 430 738.98 429.62 739.8 428.8C740.72 427.88 741 391.1 741 269.37L741 111.14L726.08 110.82C717.87 110.64 710.84 110.18 710.45 109.78C709.35 108.68 710.99 105.35 727.57 74.82L742.95 46.5L738.73 45.82C736.4 45.45 708.17 45.11 676 45.07C643.83 45.03 555.74 44.7 480.25 44.33L343 43.67L343 38.96L343 34.25L624.25 33.56C778.94 33.18 1147.15 33.02 1442.5 33.19L1979.5 33.5L1979.41 37.79C1979.36 40.15 1978.84 42.56 1978.24 43.16C1977.47 43.93 1892.33 44.39 1685.08 44.77C1511.6 45.08 1393 45.67 1393 46.21C1393 46.7 1437.44 92.65 1491.75 148.31C1672.42 333.45 1818.79 484.02 1831.47 497.78C1835.29 501.93 1836.07 503.33 1835.12 504.28C1834.17 505.23 1742.05 505.57 1413.2 505.83C1181.82 506.01 974.81 505.84 953.2 505.46C915.71 504.8 913.91 504.68 914.2 502.91C914.46 501.31 980.52 433.35 1078.42 333.98C1260.44 149.21 1361 46.67 1361 45.8C1361 45.36 1223.48 45 1055.39 45C811.31 45 749.88 45.25 750.27 46.25C750.54 46.94 758.24 61.2 767.38 77.95C779 99.24 783.69 108.71 782.95 109.45C782.35 110.06 775.61 110.64 766.95 110.84L751.99 111.18L752.25 269.84L752.5 428.5L762.5 429.13C768 429.48 774.91 429.82 777.87 429.88C782.72 429.99 783.18 430.19 782.71 432.01C782.42 433.11 775.17 446.98 766.59 462.83C758.02 478.68 751 492.11 751 492.68C751 493.25 752.46 494.13 754.25 494.64C757.35 495.53 757.5 495.8 757.5 500.54L757.5 505.5L748.45 505.78C743.47 505.94 739.09 505.75 738.7 505.37ZM789.25 505.34C788.49 505.03 788 502.91 788 499.92L788 495L798 495L808 495L808 499.3C808 501.66 807.46 504.14 806.8 504.8C805.62 505.98 791.89 506.4 789.25 505.34ZM839.25 505.34C838.49 505.03 838 502.91 838 499.92L838 495L848.5 495L859 495L859 498.85C859 504.65 856.87 506.02 847.92 505.92C843.84 505.88 839.94 505.62 839.25 505.34ZM1811.36 493.23C1811.62 492.81 1797.58 477.84 1780.16 459.98C1762.75 442.12 1696.31 373.95 1632.52 308.5C1488.57 160.79 1467.93 139.71 1466.24 138.67C1465.28 138.08 1452.52 150.1 1421.3 181.05L1377.7 224.26L1334.6 180.48C1298.98 144.3 1291.15 136.81 1289.48 137.34C1288.37 137.7 1274.66 150.93 1259 166.74C1186.02 240.46 1110.56 317.04 987.45 442.29C961.08 469.13 939.35 491.74 939.18 492.54C938.89 493.82 993.47 494 1374.87 494C1614.68 494 1811.1 493.65 1811.36 493.23ZM1383.92 411.45C1368.76 406.78 1360.39 381.55 1365.58 356.21C1369.49 337.1 1376.81 329.07 1390.35 329.02C1397.49 329 1401.77 330.9 1406.59 336.23C1411.22 341.35 1413.72 347.05 1415.55 356.59C1420.43 382.13 1410.69 407.82 1394.59 411.87C1389.28 413.21 1389.69 413.23 1383.92 411.45ZM1306.67 411.33C1304.97 409.63 1306.45 408.11 1311.75 406.09C1319.83 403.03 1327.29 397.84 1331.72 392.22C1335.82 387.01 1340.71 377.37 1339.74 376.41C1339.41 376.07 1336.62 376.75 1333.53 377.9C1330.45 379.06 1326.25 380 1324.21 379.99C1320.03 379.98 1311.37 376.26 1308.8 373.37C1300.96 364.53 1301.15 347.34 1309.21 337.56C1315.66 329.74 1329.21 326.64 1338.5 330.87C1346.91 334.69 1353.14 345.1 1354.52 357.61C1356.41 374.8 1344.72 396.94 1328.82 406.26C1321.83 410.35 1308.7 413.36 1306.67 411.33ZM1395.94 403.44C1402.46 397.55 1403.5 392.92 1403.48 370C1403.46 347.43 1402.65 343.42 1397.02 337.79C1392.43 333.19 1388.57 332.81 1384.19 336.5C1378.84 340.99 1377.67 345.64 1377.21 364.11C1376.6 388.88 1379.14 401.15 1385.72 405.22C1389.76 407.73 1391.53 407.42 1395.94 403.44ZM1338.56 369.87L1341.5 368.46L1341.49 357.98C1341.49 349.09 1341.14 346.79 1339.19 342.83C1336.63 337.61 1333.48 335.11 1328.44 334.3C1320.24 332.97 1314.8 339.73 1314.69 351.38C1314.54 366.84 1326.17 375.85 1338.56 369.87ZM1434.39 358.05C1428.26 354.53 1425.99 350.41 1426.02 342.85C1426.05 334.93 1428.91 329.4 1434.22 326.99C1442.45 323.25 1453.55 325.6 1458.26 332.08C1464.63 340.84 1460.95 353.94 1450.71 358.9C1444.79 361.77 1440.48 361.54 1434.39 358.05ZM1447.03 352.48C1450.65 350.61 1453 346.27 1453 341.47C1453 333.29 1442.2 328.71 1436.45 334.45C1432 338.91 1433.8 350.13 1439.42 352.86C1442.35 354.28 1443.69 354.21 1447.03 352.48ZM491.24 301.07C471.64 296.15 463.51 257.59 476.53 231.25C481.08 222.03 485.41 218.81 494.12 218.18C502.15 217.6 507.83 219.87 512.95 225.68C525.42 239.85 526.35 273.36 514.74 290.62C509.23 298.81 499.51 303.14 491.24 301.07ZM575.93 299.02C571 296.42 565.63 290.21 563.51 284.66C561.15 278.5 561.82 267.53 564.99 260.21C567.7 253.94 574.2 247.79 581.82 244.25C586.31 242.17 588.29 241.85 594.52 242.16C600.03 242.44 602.61 243.06 604.7 244.62C608.34 247.34 608.53 248.87 605.69 252.4L603.36 255.29L598.78 252.61C584.77 244.4 572.71 251.55 572.71 268.07C572.71 280.66 579.78 290.36 589.96 291.72C593.29 292.17 595.27 291.65 600.56 288.97C608.88 284.75 610.89 285.91 605.53 291.84C597.84 300.35 584.54 303.58 575.93 299.02ZM421.25 299.31C418.05 298.67 418.46 296.28 421.9 295.52C428.35 294.11 428.42 293.78 429.31 261.27C429.76 245.04 429.9 231.19 429.64 230.5C429.38 229.81 427.21 228.96 424.83 228.6C419.49 227.79 417.13 226.47 418.52 225.08C419.08 224.52 423.35 222.9 428.01 221.47C442.08 217.16 440.41 212.92 441.06 254.71C441.68 295.36 441.44 294.18 449.11 295.4C452.21 295.9 453.06 296.44 452.81 297.77C452.51 299.31 450.86 299.51 437.99 299.63C430.02 299.7 422.49 299.55 421.25 299.31ZM615 298C615 296.85 615.67 296 616.58 296C617.44 296 619.47 294.68 621.08 293.08L624 290.15L624 272.53C624 255.15 623.97 254.87 621.55 252.45C620.2 251.1 618.62 250 618.05 250C615.92 250 617.09 247.28 619.75 246.05C623.09 244.51 631.05 242.03 632.69 242.01C633.35 242 634.25 243.77 634.69 245.93L635.5 249.86L641.41 246.18C646.71 242.88 648.03 242.5 654.11 242.5C660.68 242.5 661.04 242.63 664.99 246.49L669.08 250.49L672.29 248.56C674.06 247.5 677.49 245.59 679.92 244.32C688.13 240.01 698.42 242.02 702.26 248.67C704.29 252.19 705.96 267.88 705.98 283.73L706 292.96L710.07 295.04C713.43 296.75 713.94 297.37 712.95 298.56C712.03 299.67 708.94 300 699.38 300C688.03 300 687 299.85 687 298.16C687 297.15 688.1 295.82 689.45 295.21C694.67 292.83 695.24 290.47 694.86 272.93L694.5 256.84L691.23 253.92C687.2 250.31 680.94 249.97 674.96 253.02L671 255.04L671 274.51L671 293.97L674.62 295.49C677.67 296.76 678.05 297.24 677 298.5C676.02 299.69 673.16 300 663.38 300C651.81 300 651 299.87 651 298.07C651 296.93 651.93 295.85 653.25 295.45C658.83 293.75 659 293.1 659 273.93L659 256.18L655.92 253.59C651.89 250.19 645.19 250.07 639.5 253.3L635.5 255.57L635.5 273.9L635.5 292.22L638.74 294.92C643.75 299.11 641.75 300 627.3 300C615.67 300 615 299.89 615 298ZM501.4 293.9C502.87 292.75 505.29 289.48 506.78 286.65C509.49 281.51 509.49 281.45 509.5 260C509.5 235.62 508.65 231.53 502.4 226.05C498.51 222.63 496.25 222.3 491.96 224.52C485.23 228 482.5 240.25 483.26 263.49C483.83 280.51 485.39 287.09 490.15 292.51C493.75 296.62 497.38 297.06 501.4 293.9ZM1418.53 168.61L1458.11 129.73L1447.78 119.11C1397.91 67.89 1378.15 48 1377.17 48C1375.34 48 1363.09 60.01 1330.34 93.88C1313.65 111.14 1300 126.01 1300 126.92C1300 129.52 1376.33 208.41 1378.21 207.75C1378.61 207.61 1396.75 190 1418.53 168.61ZM18.67 44.33C18.3 43.97 18 41.25 18 38.3L18 32.93L28.25 33.22L38.5 33.5L38.81 37.82C39.27 44.27 38.18 45 28.04 45C23.25 45 19.03 44.7 18.67 44.33ZM68.7 44.37C68.32 43.98 68 41.27 68 38.33L68 33L78.05 33L88.1 33L87.8 38.75L87.5 44.5L78.45 44.78C73.47 44.94 69.09 44.75 68.7 44.37ZM118 39.04L118 33L128.05 33L138.1 33L137.8 38.75L137.5 44.5L127.75 44.79L118 45.07L118 39.04ZM168 39.04L168 33L178.05 33L188.1 33L187.8 38.75L187.5 44.5L177.75 44.79L168 45.07L168 39.04ZM222.5 44.11L218.5 43.5L218.19 38.12L217.89 32.73L227.09 33.45C238.5 34.35 239 34.54 239 38.11C239 44.23 234.37 45.91 222.5 44.11ZM2009.67 44.33C2009.3 43.97 2009 41.25 2009 38.3L2009 32.93L2019.25 33.22L2029.5 33.5L2029.81 37.82C2030.27 44.27 2029.18 45 2019.04 45C2014.25 45 2010.03 44.7 2009.67 44.33ZM2059.67 44.33C2059.3 43.97 2059 41.25 2059 38.3L2059 32.93L2069.25 33.22L2079.5 33.5L2079.81 37.82C2080.27 44.27 2079.18 45 2069.04 45C2064.25 45 2060.03 44.7 2059.67 44.33ZM2109.7 44.37C2109.32 43.98 2109 41.27 2109 38.33L2109 33L2119.05 33L2129.1 33L2128.8 38.75L2128.5 44.5L2119.45 44.78C2114.47 44.94 2110.09 44.75 2109.7 44.37ZM2159 39.04L2159 33L2169.05 33L2179.1 33L2178.8 38.75L2178.5 44.5L2168.75 44.79L2159 45.07L2159 39.04ZM2310 39.14L2310 33L2320 33L2330 33L2330 37.38C2330 39.79 2329.43 42.23 2328.73 42.81C2328.04 43.38 2323.54 44.18 2318.73 44.57L2310 45.28L2310 39.14ZM2360 38.96L2360 32.92L2368.75 33.21L2377.5 33.5L2377.81 37.82C2378.27 44.16 2377.1 45 2367.88 45L2360 45L2360 38.96ZM268 39.05C268 34.23 268.09 34.07 271.25 33.54C273.04 33.24 277.65 33.33 281.5 33.75L288.5 34.5L288.82 37.82C289.34 43.24 287.94 44 277.38 44L268 44L268 39.05ZM318 39.14C318 33.02 318.67 32.71 329.73 33.6L338.1 34.28L337.8 38.89L337.5 43.5L327.75 43.79L318 44.07L318 39.14ZM2209.7 43.37C2209.32 42.98 2209 40.77 2209 38.45C2209 33.23 2210.17 32.79 2221.8 33.67L2230.1 34.3L2229.8 38.9L2229.5 43.5L2219.95 43.78C2214.7 43.94 2210.09 43.75 2209.7 43.37ZM2259.7 43.37C2259.32 42.98 2259 40.77 2259 38.45C2259 33.23 2260.17 32.79 2271.8 33.67L2280.1 34.3L2279.8 38.9L2279.5 43.5L2269.95 43.78C2264.7 43.94 2260.09 43.75 2259.7 43.37Z" fill="#1e2749" fill-rule="evenodd"/>
</svg>
