<?xml version="1.0" encoding="UTF-8"?>
<svg xmlns="http://www.w3.org/2000/svg" viewBox="0 0 525 398" width="525" height="398" shape-rendering="geometricPrecision">
<path d="M181.33 368.83L181.33 367.32L188.08 367.41L194.83 367.5L194.94 368.44C195.15 370.25 194.85 370.33 187.79 370.33L181.33 370.33L181.33 368.83ZM176.33 361.83L176.33 360.33L189.58 360.41L202.83 360.5L202.94 361.44C203.16 363.37 203.43 363.33 189.29 363.33L176.33 363.33L176.33 361.83ZM166.33 355.84L166.33 354.33L176.77 354.33C184.62 354.33 187.34 354.23 187.73 353.92C188.19 353.55 188.28 351.51 188.44 337.49C188.55 328.69 188.55 320.63 188.44 319.58L188.24 317.67L181.15 317.67C177.25 317.67 173.82 317.58 173.53 317.46C173.15 317.32 173 316.81 173 315.67C173 314.52 173.15 314.01 173.53 313.87C174.43 313.52 206.55 313.64 207.48 313.99C208.2 314.27 208.33 314.53 208.33 315.65C208.33 316.62 208.16 317.07 207.69 317.32C207.3 317.53 203.96 317.67 199.18 317.67L191.33 317.67L191.52 335.74C191.63 345.69 191.79 353.94 191.88 354.08C191.97 354.22 196.84 354.33 202.71 354.33L213.37 354.33L213.27 355.75L213.17 357.17L189.75 357.25L166.33 357.34L166.33 355.84ZM126.33 333.62C124.79 333.17 123.73 332.16 122.91 330.33C122.35 329.11 122.22 328.11 122.2 324.83C122.16 320.47 122.68 318.38 124.09 317.09C126.38 315 130.85 315.45 132.63 317.94C133 318.47 133.56 320.18 133.87 321.76C134.39 324.4 134.39 324.84 133.9 327.51C133.15 331.58 131.69 333.32 128.66 333.79C128.02 333.88 126.97 333.81 126.33 333.62ZM108.89 333.11C108.77 332.99 108.67 332.54 108.67 332.11C108.67 331.41 108.82 331.33 110.15 331.33C111.29 331.33 111.73 331.18 111.99 330.69C112.35 330 112.47 321.75 112.13 320.86C112.01 320.54 111.53 320.33 110.94 320.33C109.62 320.33 108.67 319.78 108.67 319.02C108.67 318.55 109 318.34 110.01 318.16C110.9 318.01 111.54 317.67 111.88 317.14C112.27 316.55 112.71 316.33 113.54 316.33L114.67 316.33L114.67 323.63C114.67 331.6 114.6 331.33 116.65 331.33C117.87 331.33 118.58 332.13 118 332.83C117.67 333.23 116.71 333.33 113.35 333.33C111.02 333.33 109.01 333.23 108.89 333.11ZM141.37 332.58C141.22 332.17 140.49 330.18 139.74 328.17C137.27 321.47 135.67 316.95 135.67 316.68C135.67 316.31 136.87 316.03 137.63 316.23C138.26 316.39 138.61 317.21 141.35 324.92C143.12 329.91 143.05 329.76 143.53 329.27C143.91 328.88 145.32 325.04 147.41 318.73C148.18 316.41 148.84 315.83 150.12 316.31L150.95 316.63L149.94 319.4C148.89 322.28 146.2 329.77 145.59 331.5C145.03 333.07 144.68 333.33 143.12 333.33C141.9 333.33 141.6 333.21 141.37 332.58ZM129.31 331.18C130.77 330.42 131.33 328.57 131.33 324.58C131.32 320.14 130.67 318.49 128.81 318.14C125.77 317.57 124.89 319.06 124.88 324.83C124.87 328.91 125.4 330.78 126.74 331.32C127.82 331.75 128.24 331.73 129.31 331.18ZM155.07 303.27C154.85 303.05 154.67 302.24 154.67 301.47C154.67 300.26 154.78 300.04 155.5 299.86C155.95 299.75 163.48 299.66 172.22 299.67C181.21 299.68 188.24 299.56 188.41 299.39C188.64 299.16 188.72 264.79 188.53 249.5L188.5 247.5L214.14 247.41C232.4 247.35 239.9 247.22 240.22 246.96C240.59 246.65 240.67 241.29 240.67 216.46L240.67 186.34L193.58 186.23C167.69 186.17 146.01 186 145.42 185.85C144.45 185.62 144.33 185.67 144.33 186.3C144.33 186.69 144.19 187.27 144.01 187.59C143.84 187.91 143.15 189.47 142.48 191.07C141.5 193.42 141.05 194.1 140.11 194.65C138.03 195.88 137.93 195.78 136.66 191.33C136.27 189.96 135.83 188.46 135.69 188C135.54 187.54 135.17 186.27 134.85 185.17C133.37 180.11 132.96 179.75 132.01 182.67C129.06 191.71 128.33 194.05 128.33 194.45C128.33 194.7 128.02 195.31 127.64 195.79C127.11 196.46 126.66 196.67 125.69 196.67L124.42 196.67L123.36 193.75C122.77 192.15 122.08 190.34 121.81 189.74C121.55 189.14 121.33 188.51 121.33 188.35C121.33 187.5 119.21 182.67 118.84 182.67C118.6 182.67 118.34 183.15 118.25 183.75C118.16 184.35 117.7 186.15 117.21 187.76C116.73 189.36 116.33 190.88 116.33 191.12C116.33 191.86 115.24 192.58 113.88 192.73C112.63 192.87 112.57 192.83 111.98 191.46C111.65 190.68 110.37 187.03 109.14 183.35C107.3 177.86 106.8 176.67 106.29 176.67C105.95 176.67 105.67 176.83 105.67 177.03C105.67 178.05 102.14 185.6 101.29 186.42C100.35 187.31 100.21 187.33 96.5 187.33C92.8 187.33 92.67 187.31 92.14 186.5L91.59 185.67L71.38 185.67L51.17 185.67L51.25 194.92C51.3 200 51.42 204.5 51.51 204.92L51.68 205.67L63.32 205.67C70 205.67 75.04 205.8 75.15 205.97C75.25 206.14 74.95 206.74 74.47 207.31L73.61 208.33L50.35 208.33C27.32 208.33 27.08 208.33 26.21 207.64C25.73 207.26 25.33 206.66 25.33 206.31C25.33 205.69 25.7 205.67 36.63 205.67C46.32 205.67 47.98 205.59 48.34 205.16C48.67 204.76 48.71 202.67 48.52 195.52C48.28 186.48 48.28 186.39 48.97 186.02C49.46 185.75 49.67 185.32 49.67 184.52C49.67 183.81 49.86 183.33 50.19 183.2C50.48 183.09 61.79 183 75.31 183C103.2 183 100.38 183.32 101.65 180C102.04 178.99 102.49 177.87 102.66 177.5C102.83 177.13 103.28 176.1 103.68 175.21C104.62 173.05 105.84 171.94 107.12 172.07C108.07 172.16 108.17 172.34 109.49 176.17C110.25 178.37 111.42 181.77 112.1 183.72C112.78 185.68 113.33 187.52 113.33 187.81C113.33 188.51 113.9 188.48 114.28 187.75C114.44 187.43 114.99 185.67 115.49 183.83C116 182 116.62 179.86 116.87 179.07C117.13 178.29 117.33 177.36 117.33 177.01C117.33 176.66 117.63 176.28 118 176.17C119.28 175.76 119.89 176.29 120.64 178.43C121.04 179.57 121.58 181.03 121.83 181.67C122.08 182.31 123.04 184.93 123.95 187.5C124.87 190.07 125.73 192.14 125.88 192.11C126.11 192.06 127.2 188.9 129.7 181C131.29 175.98 131.28 176 132.73 176C134.25 176 135.33 176.49 135.33 177.17C135.33 177.43 135.54 178.29 135.8 179.07C136.05 179.86 136.52 181.4 136.83 182.5C137.64 185.33 138.34 187.6 138.91 189.26C139.31 190.43 139.49 190.62 139.87 190.31C140.12 190.09 140.33 189.71 140.33 189.45C140.33 189.2 140.48 188.73 140.66 188.41C140.84 188.09 141.2 187.28 141.46 186.61C141.8 185.76 142.18 185.35 142.72 185.28C143.29 185.2 143.53 184.92 143.61 184.25C143.74 183.04 144.39 182.91 148.86 183.16C156.16 183.56 187.97 183.7 188.67 183.33C189.25 183.02 189.28 182.89 188.9 182.24C188.55 181.64 188.5 173.71 188.65 140.3C188.81 104.35 188.9 99.03 189.33 98.5C189.61 98.17 189.83 97.36 189.83 96.7L189.83 95.5L192.33 95.39C193.71 95.33 204.18 95.38 215.59 95.51C235.76 95.74 236.36 95.77 236.7 96.4C236.97 96.91 236.92 97.2 236.47 97.69C235.92 98.31 235.15 98.33 213.62 98.33L191.33 98.33L191.33 140.06C191.33 178.47 191.29 181.83 190.78 182.39C190.48 182.73 190.34 183.12 190.47 183.25C190.91 183.69 239.68 183.73 240.21 183.3C240.58 182.99 240.67 180.8 240.67 171.63C240.67 160.77 240.69 160.33 241.3 160.33C241.64 160.33 244.01 161.55 246.55 163.04C253.67 167.22 257.02 169.16 258.83 170.16C259.75 170.67 262.22 172.09 264.33 173.32C274.5 179.26 276.37 180.33 276.5 180.33C276.58 180.33 277.96 181.13 279.57 182.11C281.18 183.08 283.35 184.34 284.39 184.91C285.43 185.48 288.05 186.98 290.22 188.25C300.27 194.12 302.37 195.33 302.5 195.33C302.58 195.33 303.96 196.13 305.57 197.11C307.18 198.08 309.4 199.37 310.5 199.97C311.6 200.58 313.85 201.86 315.5 202.83C323.18 207.34 328.38 210.33 328.51 210.33C328.59 210.33 329.45 210.82 330.41 211.42L332.17 212.5L376.9 212.59L421.64 212.68L422.01 211.98C422.43 211.19 422.08 98.76 421.66 98.49C421.52 98.41 403.43 98.34 381.46 98.33L341.5 98.31L341.33 107.04C341.18 114.87 341.11 115.8 340.58 116.13C340.16 116.4 339.84 116.4 339.42 116.13C338.87 115.78 338.83 114.41 338.83 94.96L338.83 74.17L340 74.17L341.17 74.17L341.35 84.83C341.44 90.7 341.56 95.5 341.59 95.5C341.63 95.5 343.13 95.45 344.92 95.38C346.7 95.32 365 95.38 385.58 95.51L422.99 95.75L423.83 96.52L424.67 97.3L424.71 138.57C424.74 161.26 424.85 187.18 424.96 196.17L425.17 212.5L434.83 212.5L444.48 212.5L445.34 210.88C446.42 208.83 447.3 208.36 450.01 208.35C451.91 208.33 452.33 208.45 453.29 209.25C455.52 211.11 455.32 215.1 452.9 217.18C451.69 218.21 451.34 218.33 449.59 218.33C447.72 218.33 447.59 218.28 446.17 216.82L444.7 215.31L434.43 215.46C428.79 215.55 423.79 215.62 423.33 215.61C422.88 215.6 402.51 215.54 378.07 215.46C334.25 215.33 333.63 215.34 332.35 215.99C331.63 216.36 329.31 217.71 327.18 218.99C325.05 220.28 323.23 221.33 323.15 221.33C323.07 221.33 321.01 222.5 318.58 223.94C312.59 227.47 305.53 231.57 303.69 232.6C302.85 233.06 300.31 234.54 298.05 235.89C295.79 237.23 293.88 238.33 293.81 238.33C293.74 238.33 291.54 239.59 288.92 241.12C284.49 243.72 281.94 245.21 268.59 252.96C265.79 254.58 261.7 256.96 259.5 258.25C257.3 259.54 254.75 261 253.83 261.5C252.92 262.01 250.59 263.35 248.67 264.49C242.56 268.11 241.29 268.76 240.98 268.45C240.81 268.28 240.64 264.05 240.59 259.06L240.5 249.97L216 249.98L191.5 249.99L191.41 274.35C191.37 287.75 191.45 298.94 191.6 299.21C191.84 299.64 194.09 299.7 207.93 299.68C223.63 299.65 224 299.66 224.66 300.32C225.51 301.18 225.52 302.15 224.67 303C224.01 303.66 223.56 303.67 189.73 303.67C163.53 303.67 155.37 303.57 155.07 303.27ZM250.83 260.16C253.95 258.35 258.67 255.62 261.33 254.07C263.99 252.53 268.27 250.06 270.83 248.58C273.4 247.1 276.44 245.31 277.59 244.61C278.74 243.91 279.74 243.33 279.82 243.33C279.9 243.33 282.24 241.98 285.02 240.33C287.8 238.68 290.13 237.33 290.2 237.33C290.28 237.33 292.32 236.16 294.75 234.73C300.37 231.42 307.72 227.15 309.29 226.27C309.95 225.9 312.75 224.28 315.5 222.68C318.25 221.07 322.49 218.59 324.93 217.17C327.37 215.75 329.31 214.42 329.24 214.21C329.18 214 328.08 213.22 326.81 212.47C321.08 209.09 316.3 206.33 316.17 206.33C316.09 206.33 314.71 205.54 313.1 204.56C311.48 203.59 309.27 202.29 308.17 201.69C306.19 200.61 304.87 199.84 295.24 194.21C292.54 192.63 290.25 191.33 290.17 191.33C290.09 191.33 288.71 190.54 287.1 189.56C285.48 188.59 283.27 187.29 282.17 186.69C281.07 186.09 278.82 184.81 277.17 183.84C272 180.82 265.56 177.1 264.17 176.33C263.43 175.93 261.63 174.88 260.17 174.01C258.7 173.13 256.82 172.05 256 171.59C255.17 171.14 252.12 169.39 249.21 167.72C246.3 166.04 243.78 164.67 243.62 164.67C243.29 164.67 243.22 263.78 243.56 264.11C243.68 264.24 244.09 264.13 244.47 263.88C244.85 263.63 247.72 261.96 250.83 260.16ZM169.17 230.67C169.05 230.31 169.05 229.85 169.16 229.67C169.3 229.45 179.39 229.33 198.88 229.33L228.38 229.33L228.27 230.25L228.17 231.17L198.77 231.25C169.65 231.34 169.38 231.33 169.17 230.67ZM336.33 230.35L336.33 229.33L339.36 229.33L342.38 229.33L342.27 230.25C342.17 231.16 342.16 231.17 339.25 231.26L336.33 231.36L336.33 230.35ZM44.33 227.83L44.33 226.32L51.08 226.41L57.83 226.5L57.94 227.44C58.15 229.25 57.85 229.33 50.79 229.33L44.33 229.33L44.33 227.83ZM104.56 224.11C104.43 223.99 104.33 223.54 104.33 223.11C104.33 222.43 104.49 222.33 105.62 222.33C107.77 222.33 108 221.79 108 216.75C108 214.35 107.91 212.15 107.8 211.86C107.68 211.54 107.2 211.33 106.61 211.33C105.29 211.33 104.33 210.78 104.33 210.02C104.33 209.55 104.66 209.34 105.67 209.17C106.49 209.03 107.24 208.63 107.63 208.14C108.05 207.6 108.6 207.33 109.29 207.33L110.32 207.33L110.41 214.75L110.5 222.17L111.89 222.27C113.53 222.39 114.3 223.07 113.67 223.83C113.34 224.23 112.37 224.33 109.01 224.33C106.68 224.33 104.68 224.23 104.56 224.11ZM118.56 224.11C118.43 223.99 118.33 220.16 118.33 215.59L118.33 207.3L119.75 207.4L121.17 207.5L121.33 211.29L121.5 215.08L124.83 211.34C128.54 207.19 129.64 206.46 130.98 207.31C131.36 207.55 130.77 208.36 128.23 211.11C126.45 213.03 125 214.85 125 215.16C125 215.7 129.27 220.91 131.13 222.64C132.19 223.63 131.79 224.33 130.15 224.33C129.18 224.33 128.71 223.95 125.97 220.83C124.27 218.91 122.71 217.33 122.51 217.33C121.63 217.33 121.33 218.22 121.33 220.83C121.33 222.49 121.18 223.69 120.93 223.93C120.51 224.36 118.92 224.48 118.56 224.11ZM36.33 220.83L36.33 219.33L49.58 219.41L62.83 219.5L62.94 220.44C63.16 222.37 63.43 222.33 49.29 222.33L36.33 222.33L36.33 220.83ZM451.15 215.22C451.63 214.59 452 213.66 452 213.1C452 211.19 450.11 209.74 448.74 210.61C447.52 211.39 447.65 215.23 448.93 215.98C449.86 216.53 450.25 216.39 451.15 215.22ZM33.33 213.84L33.33 212.33L50.85 212.33L68.37 212.33L68.27 213.75L68.17 215.17L50.75 215.25L33.33 215.34L33.33 213.84ZM251.22 190.78C251.1 190.66 251 190.28 251 189.94C251 189.37 251.4 189.33 256.94 189.33C260.21 189.33 262.98 189.43 263.1 189.54C263.22 189.66 263.16 190.03 262.98 190.38C262.67 190.95 262.17 191 257.04 191C253.96 191 251.34 190.9 251.22 190.78ZM322.37 139.58C318.38 128.74 316.67 123.97 316.67 123.69C316.67 123.31 317.86 123.03 318.63 123.23C319.26 123.39 319.61 124.21 322.35 131.92C324.12 136.92 324.05 136.76 324.53 136.27C324.77 136.03 325.5 134.26 326.15 132.33C329.2 123.36 329.14 123.51 330.14 123.39C331.96 123.18 332.03 123.41 330.95 126.4C329.56 130.23 327.02 137.29 326.59 138.5C326.03 140.07 325.68 140.33 324.12 140.33C322.9 140.33 322.6 140.21 322.37 139.58ZM354.44 139.92C354.29 139.69 354.09 138.3 354 136.83L353.83 134.17L351 134L348.17 133.83L348.17 132.83L348.17 131.83L350.65 131.73C352.02 131.68 353.33 131.48 353.55 131.29C353.81 131.08 354.01 129.92 354.07 128.39L354.17 125.83L355.17 125.83L356.17 125.83L356.33 128.67L356.5 131.5L358.67 131.59C361.65 131.7 362.33 131.9 362.33 132.63C362.33 133.65 361.6 133.96 358.99 134.07L356.5 134.17L356.4 136.66C356.33 138.37 356.13 139.34 355.77 139.74C355.13 140.44 354.8 140.48 354.44 139.92ZM299.46 133.52C299.36 133.26 299.33 132.77 299.39 132.44C299.5 131.9 299.89 131.83 302.8 131.83C305.51 131.83 306.16 131.93 306.44 132.39C306.7 132.79 306.67 133.09 306.36 133.47C305.75 134.21 299.74 134.25 299.46 133.52ZM313.86 117.48C313.41 117.03 313.33 115.66 313.33 107.64L313.33 98.33L290.31 98.33C273.41 98.33 267.1 98.23 266.56 97.94C266.16 97.73 262.77 94.92 259.03 91.69C255.29 88.47 249.21 83.25 245.53 80.09L238.83 74.34L236.38 74.34C234.42 74.33 233.74 74.19 232.93 73.62C230.3 71.75 230.37 66.2 233.03 64.82C233.56 64.54 234.88 64.33 236.08 64.33C237.9 64.33 238.35 64.46 239.29 65.25C240.61 66.35 241.15 68.45 240.62 70.45C240.33 71.6 240.37 71.83 241.06 72.57C241.49 73.03 247.55 78.32 254.53 84.32L267.22 95.24L289.92 95.49C302.41 95.62 312.78 95.64 312.98 95.51C313.22 95.37 313.33 92.23 313.33 86.01C313.33 80.9 313.42 76.48 313.54 76.19C313.81 75.48 315.86 75.48 316.13 76.19C316.24 76.48 316.33 85.76 316.33 96.81C316.33 115.85 316.3 116.93 315.72 117.45C314.96 118.14 314.52 118.14 313.86 117.48ZM212.33 77.77C209.04 77.2 208 76.53 208 74.98C208 73.81 208.5 73.73 210.26 74.62C213.04 76.02 216.67 75.78 217.98 74.11C219.52 72.16 218.51 70.89 214.83 70.15C211.47 69.46 210.32 68.98 209.21 67.79C208.46 66.97 208.33 66.55 208.33 64.76C208.33 62.84 208.42 62.6 209.48 61.54C211.12 59.9 213.51 59.4 216.95 59.97C219.69 60.43 220.67 61.01 220.67 62.18C220.67 63.5 219.89 63.78 218.48 62.95C217.51 62.37 216.69 62.2 214.82 62.19C211.86 62.16 210.91 62.78 211.07 64.62C211.2 66.1 212.28 66.91 214.67 67.32C217.82 67.87 219.1 68.37 220.23 69.5C221.14 70.41 221.33 70.85 221.33 72.05C221.33 75.9 217.1 78.59 212.33 77.77ZM236.13 71.18C236.33 70.82 236.84 70.25 237.25 69.91C238.18 69.13 238.2 68.34 237.31 67.21C236.63 66.34 235.56 66.09 234.74 66.61C234.14 66.99 233.64 68.95 233.89 69.97C234.38 72.06 235.34 72.58 236.13 71.18ZM352.37 64.88C352.1 64.55 352.01 61.92 352.08 55.96L352.17 47.5L352.98 47.39C354.42 47.18 354.67 48.02 354.67 53.08L354.67 57.7L355.9 58.22C356.9 58.63 357.38 58.66 358.39 58.36C359.08 58.15 359.76 57.8 359.9 57.57C360.05 57.35 360.24 54.99 360.33 52.33C360.5 47.6 360.52 47.5 361.27 47.39C362.87 47.16 363 47.65 363 53.83C363 60.27 362.9 60.58 360.89 60.2C360.19 60.07 359.31 60.18 358.55 60.5C357.46 60.95 357.21 60.96 356.13 60.5C355.46 60.23 354.86 60 354.79 60C354.72 60 354.67 60.87 354.67 61.93C354.67 64.63 353.46 66.19 352.37 64.88ZM307.1 60.52C304.8 59.97 303.26 58.73 302.2 56.61C301.45 55.11 301.33 54.44 301.33 51.8C301.33 46.47 303.07 43.95 307.43 42.98C308.97 42.64 309.8 42.64 311.59 42.96C314.46 43.49 315.33 44.05 315.33 45.35C315.33 46.69 314.7 46.86 313.13 45.93C312.11 45.33 311.34 45.17 309.49 45.17C305.35 45.17 304.17 46.61 304.17 51.67C304.17 54.38 304.28 55.01 304.92 56.05C306.06 57.88 307.17 58.46 309.53 58.46C311.03 58.46 311.9 58.26 312.8 57.73C314.58 56.68 315.33 56.76 315.33 57.99C315.33 59.23 314.35 59.93 311.74 60.54C309.49 61.07 309.35 61.07 307.1 60.52ZM338.23 60.12C338.1 59.99 338 59.54 338 59.11C338 58.43 338.16 58.33 339.27 58.33C339.96 58.33 340.71 58.15 340.93 57.93C341.21 57.66 341.33 55.96 341.33 52.43L341.33 47.33L340.07 47.33C337.69 47.33 337.1 45.54 339.35 45.16C340.24 45.01 340.87 44.67 341.22 44.14C341.87 43.14 343.8 43 344.16 43.92C344.28 44.24 344.34 47.46 344.29 51.09C344.25 54.87 344.34 57.8 344.52 57.98C344.69 58.15 345.36 58.33 346 58.39C346.99 58.48 347.17 58.62 347.17 59.33L347.17 60.17L342.81 60.26C340.42 60.31 338.36 60.25 338.23 60.12ZM367.2 59.81C367.09 59.52 367 55.77 367 51.48C367 43.94 367.02 43.68 367.69 43.32C368.13 43.08 370.05 42.99 373.01 43.06C377.91 43.17 378.84 43.45 378.12 44.59C377.83 45.07 377.07 45.2 373.8 45.33L369.83 45.5L369.83 47.67L369.83 49.83L373.33 50C376.45 50.15 376.84 50.24 376.95 50.81C377.17 51.95 376.1 52.33 372.77 52.33L369.67 52.33L369.67 55.93C369.67 58.29 369.53 59.67 369.27 59.93C368.7 60.5 367.44 60.43 367.2 59.81ZM320.25 56.42C318.75 56.3 318.67 56.25 318.67 55.31L318.67 54.32L325.42 54.41L332.17 54.5L332.17 55.33C332.17 56.13 332.06 56.18 329.67 56.37C326.95 56.6 322.76 56.62 320.25 56.42ZM319.31 51.59C318.91 51.44 318.67 51.04 318.67 50.51L318.67 49.67L325.34 49.67C331 49.67 332.05 49.74 332.21 50.17C332.69 51.42 331.83 51.63 325.78 51.74C322.58 51.79 319.66 51.73 319.31 51.59Z" fill="#1e2749" fill-rule="evenodd"/>
</svg>
