<?xml version="1.0" encoding="UTF-8"?>
<svg xmlns="http://www.w3.org/2000/svg" viewBox="0 0 2430 1447" width="2430" height="1447" shape-rendering="geometricPrecision">
<path d="M167.23 1404.34C164.12 1403.68 161.62 1399.64 162.4 1396.54C163.66 1391.53 163.98 1391.5 216.5 1391.5C268.37 1391.5 272.17 1391.81 273.54 1396.11C274.4 1398.83 271.73 1402.58 268.31 1403.48C265.19 1404.3 170.83 1405.1 167.23 1404.34ZM123.9 1356.11C120.27 1355.78 116.56 1354.88 115.65 1354.13C113.13 1352.03 113.5 1346.36 116.25 1344.79C118.04 1343.76 137.64 1343.5 211.84 1343.5L305.18 1343.5L307.09 1345.86C309.59 1348.95 309.5 1350.31 306.59 1353.69L304.17 1356.5L217.34 1356.61C169.58 1356.68 127.53 1356.45 123.9 1356.11ZM98.64 1307.05C80.44 1306.47 79.72 1306.37 77.89 1304.11C74.6 1300.04 75.79 1297.37 81.6 1295.81C87 1294.37 282.05 1293.52 309 1294.82C320.27 1295.36 330.3 1296.13 331.28 1296.52C334.68 1297.89 335.22 1300.63 332.67 1303.6L330.33 1306.32L308.41 1307.09C283.21 1307.98 126.78 1307.95 98.64 1307.05ZM58.43 1259.01C45.23 1258.19 42 1257.14 42 1253.66C42 1249.93 44.19 1248.08 49.89 1247.01C53.2 1246.39 82.56 1246 126.01 1246C184.31 1246 196.95 1245.76 197.88 1244.64C198.71 1243.65 198.94 1184.06 198.75 1019.39L198.5 795.5L123 795.23C49.25 794.97 34.45 794.45 31.46 791.97C29.4 790.25 29.65 786.63 31.98 784.51C33.59 783.06 36.8 782.54 48.73 781.81C71.86 780.38 373.6 781.33 378.19 782.85C383.94 784.74 384.21 789.64 378.77 793.45C376.81 794.82 367.1 795 295.28 795L214 795L214.25 1020.25L214.5 1245.5L287.5 1246.18C330.37 1246.58 362.11 1247.27 364.39 1247.85C366.53 1248.4 369 1249.57 369.88 1250.45C371.32 1251.89 371.33 1252.33 369.97 1254.74C369.06 1256.37 367.1 1257.79 364.98 1258.37C360.77 1259.51 76.12 1260.1 58.43 1259.01ZM2211.85 1148.18C2202.4 1147.03 2199.33 1142.06 2205.32 1137.6C2208.1 1135.53 2208.9 1135.5 2258.87 1135.5C2305.74 1135.5 2309.79 1135.63 2312.29 1137.27C2317.4 1140.62 2314.61 1145.58 2306.78 1147.08C2301.28 1148.13 2219.31 1149.08 2211.85 1148.18ZM2164 1099.4C2155.98 1098.03 2154 1096.98 2154 1094.11C2154 1089.15 2156.65 1087.92 2169.62 1086.82C2186.47 1085.4 2341.62 1086.22 2345.19 1087.75C2351.61 1090.5 2350.16 1096.13 2342.5 1098.16C2338.6 1099.2 2169.66 1100.37 2164 1099.4ZM2133.3 1051.07C2116.15 1050.06 2112.1 1047.8 2116.86 1041.93C2118.23 1040.23 2120.23 1039.45 2124.61 1038.9C2132.29 1037.95 2357.7 1037.94 2365.38 1038.9C2369.36 1039.4 2371.7 1040.24 2372.63 1041.51C2374.39 1043.92 2374.36 1044.33 2372.22 1046.97C2370.69 1048.87 2368.97 1049.29 2359.59 1050.04C2345.29 1051.18 2150.3 1052.07 2133.3 1051.07ZM2136.5 1002.98C2085.51 1002.3 2081.84 1001.92 2081.17 997.17C2080.77 994.33 2083.19 991.46 2086.81 990.49C2088.29 990.09 2124.6 989.48 2167.5 989.13L2245.5 988.5L2245.75 635.25L2246 282L2071.58 282L1897.15 282L1896.83 313.42L1896.5 344.84L1894.03 347.47C1890.55 351.17 1887.02 350.57 1884.73 345.88C1883.23 342.81 1882.87 338.18 1882.32 315.13C1881.76 291.26 1881.49 288 1880.09 288C1879.21 288 1862.52 295.69 1843 305.09C1786.79 332.14 1771.44 339 1767.06 339C1765.68 339 1764.58 338.04 1763.88 336.25C1763.29 334.74 1762.43 322.02 1761.97 308C1761.5 293.98 1761.09 282.39 1761.06 282.25C1761.03 282.11 1667.04 282 1552.2 282L1343.4 282L1328.75 301.25C1311.72 323.62 1305.23 330.53 1302.17 329.55C1299.57 328.73 1296.21 323.35 1275.57 287C1252.44 246.27 1251.08 244 1249.67 244C1248.54 244 1239.49 257.25 1232.26 269.5C1200.64 323.08 1195.26 331.08 1191.78 329.75C1190.92 329.42 1189.08 327.65 1187.7 325.82C1185.06 322.32 1168.89 295.73 1152.54 268C1140.7 247.91 1138.08 244 1136.51 244C1134.67 244 1129.99 251.52 1110.04 286.57C1090.98 320.04 1084.69 329.5 1081.49 329.5C1078.78 329.5 1074.35 323.23 1059.49 298.36C1052.35 286.41 1042.18 269.4 1036.91 260.56C1030.05 249.07 1026.8 244.5 1025.47 244.5C1023.05 244.5 1018.47 251.42 999.71 283.45C981.03 315.32 973.35 326.97 969.68 328.97C966.98 330.44 966.78 330.39 964.6 327.69C961.78 324.21 957.16 316.52 941.02 288.5C927.45 264.95 917.75 248.66 915.49 245.62C914.72 244.59 913.46 243.99 912.69 244.29C911.92 244.59 908.56 249.48 905.23 255.16C901.9 260.85 897.61 267.3 895.7 269.5L892.23 273.5L553.11 273.86L214 274.22L214 481.11L214 688L233.25 688.07C267.21 688.19 288.43 689.4 291.47 691.39C294.8 693.57 294.51 696.55 290.68 699.4C287.87 701.49 287.39 701.5 204.7 701.8C103.38 702.16 99.74 701.88 103.01 693.98C103.73 692.25 105.48 690.32 106.91 689.7C108.66 688.93 123.79 688.45 153.81 688.21C186.62 687.95 198.22 687.55 198.5 686.68C198.71 686.03 199.14 592.35 199.45 478.5C199.76 364.65 200.27 269.21 200.59 266.41L201.17 261.31L224.84 260.66C237.85 260.3 391.82 259.74 567 259.42C742.17 259.1 886.01 258.69 886.64 258.5C887.26 258.31 890.58 253.05 894 246.82C906.68 223.78 911.65 217.67 915.87 219.93C918.25 221.2 924.69 231.48 939.44 257.5C954.19 283.54 966.27 304.22 967.75 306C968.94 307.42 973.55 300.2 1002.26 252C1018.8 224.22 1022.34 219 1024.62 219C1028.17 219 1032.97 226.13 1057.56 268C1074.1 296.17 1080.7 306.3 1081.99 305.51C1083.08 304.83 1096.84 281.78 1109.73 259C1127.27 228.03 1132.67 220 1135.99 220C1140.23 220 1146.44 229.64 1185.38 296.67C1189.27 303.36 1192.74 308.66 1193.09 308.45C1193.43 308.23 1196.11 303.88 1199.03 298.78C1224.8 253.73 1246.14 219 1248.04 219C1252.43 219 1256.09 224.26 1274.49 257C1282.06 270.48 1291.84 287.71 1296.23 295.31C1304.1 308.91 1304.25 309.09 1306.22 307.31C1307.33 306.31 1314.32 297.4 1321.76 287.5C1329.21 277.6 1335.68 269.07 1336.15 268.55C1336.68 267.96 1416.17 267.58 1547.95 267.55C1714.6 267.51 1759.16 267.24 1760.14 266.26C1761.03 265.37 1761.57 257.47 1762.05 238.26C1762.46 222.1 1763.18 210.38 1763.87 208.67C1764.89 206.13 1765.34 205.91 1768.26 206.54C1772.36 207.42 1790.13 215.5 1804.47 222.99C1853.66 248.71 1880.31 262.07 1880.96 261.35C1881.37 260.88 1882.21 246.78 1882.82 230C1883.42 213.22 1884.41 197.82 1885 195.76C1886.12 191.92 1889.22 190.1 1892.51 191.37C1895.99 192.7 1896.43 196.91 1896.79 232.14L1897.14 266.78L1904.32 267.3C1908.27 267.59 1983.05 267.86 2070.5 267.91C2225.57 267.99 2253.75 268.32 2257.16 270.11C2258.32 270.71 2259.01 272.87 2259.44 277.24C2259.78 280.68 2260.3 442.24 2260.61 636.25L2261.16 989L2289.33 989.08C2352.28 989.25 2403.34 990.55 2406.5 992.08C2410.44 993.98 2410.52 997.52 2406.68 1000.39C2403.89 1002.47 2402.94 1002.51 2335.68 1003.16C2256.97 1003.91 2202.76 1003.87 2136.5 1002.98ZM577.7 780.95C576.89 777.85 578 764.05 583.53 708.87C585.99 684.32 588 662.57 588 660.52C588 652.62 584.07 648.45 576.01 647.79C573.62 647.59 572.41 646.95 572.18 645.75C571.89 644.17 573.03 643.98 583.68 643.76C599.14 643.44 619.84 643.88 623 644.6C625.42 645.14 625.44 645.21 623.56 646.58C622.49 647.36 620.1 648 618.24 648C616.39 648 614.04 648.44 613.02 648.99C608.99 651.15 606.84 662.15 602.97 700.42C600.62 723.74 599.46 741 600.26 741C601.88 741 637.36 693.07 651.17 672.23C659.13 660.21 662.28 653.91 661.44 651.71C661.13 650.89 658.88 649.46 656.44 648.53C654 647.6 652 646.45 652 645.98C652 644.28 656.51 643.81 672.84 643.83C694.54 643.85 699.11 645.47 687.12 648.9C679.02 651.22 670.27 661.07 639.5 702.5C611.98 739.54 584.45 776.14 581.24 779.93L578.33 783.37L577.7 780.95ZM460.99 780.12C452.21 777.26 448.87 772.55 451.09 766.17C453.42 759.48 459.34 759.28 471.23 765.5C482.72 771.51 486.43 771.56 495.02 765.83C506.9 757.89 512.62 744.96 511.8 727.84C510.89 708.77 502.32 699.1 481.27 693.4C473.41 691.27 473.37 692.14 482.02 672.5C492.93 647.71 494.42 644.51 495.47 643.77C497.03 642.66 539.78 642.84 540.47 643.95C541.27 645.25 538.52 656.88 537.07 658.34C536.28 659.12 529.4 659.61 516.04 659.84L496.17 660.18L494.03 665.16C492.85 667.9 492.02 671.57 492.19 673.32C492.48 676.29 492.95 676.64 499.12 678.65C512.8 683.09 520.47 691.08 524.95 705.57C527.66 714.31 527.9 727.39 525.5 735.68C520.61 752.63 507.33 768.39 491.44 776.09C483.04 780.17 481.92 780.45 473 780.69C467.77 780.82 462.37 780.57 460.99 780.12ZM1854 565.91C1852.92 565.15 1852.84 564.71 1853.7 564.36C1856.57 563.18 1860.2 559.53 1862 555.99C1865.96 548.24 1883.27 486.93 1882.26 484.25C1882 483.56 1880.48 482.66 1878.89 482.25C1877.29 481.84 1875.96 481.05 1875.92 480.5C1875.84 479.26 1883.53 477.19 1891.37 476.33C1896.81 475.74 1897.19 475.83 1896.67 477.6C1890.91 497 1877.75 544.55 1876.42 550.77L1874.65 559.04L1876.94 562.14C1878.8 564.65 1878.97 565.4 1877.87 566.1C1875.91 567.34 1855.79 567.18 1854 565.91ZM1693.31 536.16C1690.46 535.77 1687.77 535.1 1687.34 534.67C1686.16 533.49 1689.09 532.03 1692.67 532.02C1702.21 531.97 1706.98 520.92 1725.32 456.5C1737.04 415.34 1737.92 409.71 1733 407.38C1731.62 406.73 1729.19 405.82 1727.58 405.35C1723.27 404.09 1723.27 402.23 1727.59 401.42C1732.82 400.44 1785.04 401.67 1793.5 402.98C1803.47 404.51 1811.49 408.61 1819.73 416.39C1835.5 431.26 1840.23 451.09 1833.92 475.79C1826.08 506.49 1796.54 531.43 1763.76 535.03C1752.3 536.29 1700.38 537.12 1693.31 536.16ZM1756.5 527.52C1769.42 525.66 1775.12 523.89 1782.5 519.48C1804.01 506.59 1814.91 482.51 1813.74 450.5C1813.17 434.97 1811.31 429.1 1804.5 421.31C1796.64 412.34 1786.09 409.03 1765.32 409.01C1759.34 409 1758.05 409.29 1757.61 410.75C1738.57 474.82 1728.06 512.97 1727.32 520.69L1726.72 526.87L1730.11 527.85C1735.1 529.28 1745.17 529.16 1756.5 527.52ZM1830.88 295.66C1853.1 284.92 1871.68 275.72 1872.19 275.21C1873.05 274.35 1858.51 266.46 1799.16 235.61C1786.87 229.23 1776.59 224 1776.31 224C1775.49 224 1776.43 318.39 1777.27 319.68C1778.2 321.12 1778.23 321.11 1830.88 295.66ZM1087.5 152.27C1082.78 151.79 1080.82 150.36 1083.01 148.97C1083.83 148.45 1085.44 148.02 1086.6 148.02C1089.25 148 1096.08 143.09 1098.83 139.24C1100.98 136.21 1108.06 113.57 1119.38 73.5C1131.2 31.65 1131.25 31.39 1129.59 28.18C1127.71 24.54 1126.16 23.3 1121.45 21.67C1111.64 18.27 1119.2 16.99 1148.9 17.02C1178.3 17.05 1187.17 18.92 1195.33 26.8C1201.65 32.89 1203.46 37.28 1203.48 46.5C1203.5 53.13 1203.03 55.49 1200.8 60.27C1196.19 70.1 1183.6 81.12 1174.2 83.55L1169.5 84.77L1169.69 88.93C1169.93 94.07 1179.79 123.59 1184.95 134.61C1188.53 142.28 1189.04 142.87 1194.12 145.26C1197.08 146.65 1200.37 148.07 1201.43 148.43C1203.22 149.03 1203.24 149.19 1201.71 150.72C1200.39 152.04 1197.29 152.45 1185.96 152.81C1176.94 153.1 1171.49 152.89 1170.82 152.22C1170.25 151.65 1165.16 136.63 1159.51 118.84L1149.24 86.5L1141.41 86.5L1133.59 86.5L1132.26 91C1127.16 108.23 1122 130.85 1122 135.94C1122 142.86 1123.64 145.35 1129.5 147.34C1135.5 149.38 1134.67 151.37 1127.5 152.14C1121.03 152.83 1094.04 152.92 1087.5 152.27ZM1163.22 76.26C1169.9 73.26 1177.35 65.93 1180.04 59.71C1181.4 56.58 1182.49 51.63 1182.78 47.31C1183.21 40.84 1182.99 39.65 1180.57 35.53C1176.35 28.32 1171.94 26 1161.19 25.3L1152.14 24.71L1150.1 31.61C1137.91 72.74 1137.36 74.89 1138.4 77.61C1139.36 80.1 1156.8 79.15 1163.22 76.26Z" fill="#1e2749" fill-rule="evenodd"/>
</svg>
