<?xml version="1.0" encoding="UTF-8"?>
<svg xmlns="http://www.w3.org/2000/svg" viewBox="0 0 846 454.148" width="846" height="454.148" shape-rendering="geometricPrecision">
<path d="M45.49 423.1C45.32 422.73 45.23 332.48 45.28 222.56L45.38 22.69L126.28 22.69C199.7 22.69 207.21 22.74 207.42 23.3C207.55 23.63 207.65 29.95 207.65 37.33L207.65 50.76L427.15 50.76C597.36 50.76 646.76 50.86 647.11 51.22C647.47 51.58 647.57 64.35 647.57 106.37L647.57 161.07L646.68 162.15C646.19 162.75 642.87 167.22 639.31 172.08C635.74 176.95 630.22 184.48 627.03 188.81L621.23 196.69L621.12 204.39C621.03 210.26 621.12 212.23 621.5 212.71C621.78 213.06 625.55 215.71 629.89 218.6L637.77 223.84L638.76 222.67C640.18 220.99 641.05 221.15 642.23 223.32C642.77 224.33 643.86 226.33 644.66 227.77C646.61 231.3 646.42 231.49 641.53 230.84C634.55 229.92 634 229.59 635.63 227.3L636.43 226.18L635.37 225.33C633.08 223.52 621.97 216.13 621.52 216.12C621.15 216.12 621.04 218.05 621.04 224.51C621.04 232.16 620.98 232.97 620.34 233.55C619.95 233.9 619.54 234.19 619.42 234.19C618.72 234.19 618.52 231.5 618.35 219.38L618.16 205.92L577.39 205.73C554.98 205.62 536.58 205.49 536.51 205.44C536.44 205.39 536.44 204.96 536.51 204.48L536.63 203.62L577.06 203.52C611.35 203.44 617.56 203.34 617.94 202.88C618.27 202.49 618.38 199.02 618.36 190.44C618.33 179.95 618.4 178.48 618.95 178.03C619.4 177.65 619.74 177.62 620.21 177.92C620.76 178.26 620.88 179.34 621.04 185.33L621.23 192.34L622.04 191.44C622.48 190.95 625.24 187.25 628.16 183.24C631.09 179.22 635.85 172.73 638.74 168.82C641.63 164.9 644.28 161.25 644.63 160.71C645.22 159.79 645.26 155.62 645.17 106.68L645.07 53.64L489.05 53.55L333.02 53.45L333.02 66.55C333.02 74.7 332.87 79.93 332.63 80.38C332.32 80.95 327.78 83.45 327.06 83.45C326.98 83.45 325.78 83.97 324.39 84.62C323 85.26 320.53 86.36 318.9 87.05C317.28 87.74 315.89 88.48 315.82 88.69C315.75 88.9 318.17 89.55 321.18 90.15C324.2 90.74 327.71 91.45 328.98 91.73C330.25 92 332.66 92.51 334.35 92.85C336.03 93.2 337.54 93.68 337.69 93.93C338.09 94.58 336.91 95.75 335.86 95.75C335.38 95.75 334.86 95.95 334.72 96.19C334.43 96.65 331.67 97.96 321 102.7C319.36 103.42 318.02 104.22 318.02 104.47C318.02 104.71 318.75 105.03 319.65 105.17C320.55 105.31 323.54 105.85 326.29 106.37C329.04 106.88 332.41 107.5 333.79 107.74C335.16 107.98 336.69 108.42 337.18 108.72C338.04 109.25 338.05 109.3 337.41 110.01C337.04 110.42 336.44 110.75 336.08 110.75C335.72 110.75 335.18 111.04 334.89 111.39C334.6 111.74 333.24 112.54 331.86 113.16C330.49 113.78 328.58 114.64 327.63 115.07C326.68 115.5 324.69 116.4 323.21 117.07C321.73 117.74 319.96 118.52 319.27 118.8C318.58 119.08 318.02 119.5 318.02 119.74C318.02 119.99 320.44 120.63 323.88 121.27C338.53 124.03 338.62 124.06 337.39 125.42C337.03 125.81 336.48 126.13 336.15 126.13C335.83 126.13 335.21 126.46 334.77 126.87C334.33 127.27 332.16 128.41 329.94 129.4C327.72 130.39 325.04 131.6 323.98 132.08C322.92 132.56 321.14 133.34 320.02 133.82C316.93 135.16 317.36 135.54 323.21 136.68C331.18 138.23 332.54 138.5 333.98 138.82C334.82 139.01 335.96 139.25 336.51 139.37C338.48 139.77 338.56 140.41 338.7 157.28C338.78 165.84 338.96 172.98 339.12 173.14C339.27 173.29 366.64 173.43 399.94 173.43L460.49 173.45L460.71 165.27C460.83 160.77 460.96 157.04 461 156.99C461.45 156.37 464.29 157.92 472.94 163.49C478.57 167.11 484.96 171.22 487.13 172.62C489.3 174.02 492.25 175.91 493.67 176.84C495.09 177.76 499.37 180.51 503.18 182.95C510.81 187.84 518.91 193.05 524.52 196.68C526.53 197.98 529.76 200.05 531.7 201.27C533.64 202.49 535.34 203.76 535.47 204.1C535.78 204.93 534.81 205.84 531.09 208.19C529.38 209.27 524.92 212.13 521.16 214.55C517.4 216.97 511.39 220.84 507.79 223.15C504.2 225.47 499.52 228.48 497.41 229.84C495.29 231.21 491.36 233.74 488.67 235.47C482.15 239.66 475.24 244.11 467.99 248.78C462.7 252.19 461.97 252.55 461.45 252.04C460.98 251.57 460.86 249.84 460.76 242.4L460.65 233.34L459.8 233.66C459.34 233.84 447.4 234.03 433.29 234.09L407.62 234.2L407.62 257.36L407.62 280.53L486.15 280.43C529.33 280.37 564.8 280.2 564.95 280.04C565.24 279.76 566.44 275.24 567.79 269.37C568.58 265.95 569.19 264.94 570.11 265.54C570.62 265.86 572.56 269.78 575.11 275.65L575.84 277.32L576.52 276.48C576.9 276.01 577.21 275.26 577.22 274.81C577.23 274.36 577.72 272.17 578.3 269.95C579.17 266.61 579.49 265.89 580.14 265.8C581.09 265.66 582.48 267.57 583.9 271C585.91 275.84 586.89 277.73 587.21 277.4C587.39 277.22 587.99 275.16 588.54 272.83C590.06 266.43 590.19 266.11 591.26 266.11C591.95 266.11 592.25 266.37 592.44 267.16C592.58 267.74 592.86 268.43 593.06 268.69C593.26 268.94 594.25 271.11 595.26 273.49C597.08 277.79 598.03 278.84 598.29 276.87C598.36 276.34 598.77 274.61 599.2 273.03C599.63 271.44 600.11 269.52 600.26 268.77C600.64 266.83 600.94 266.49 602.21 266.49C603.63 266.49 603.86 266.83 607.02 273.95C609.35 279.19 609.51 279.72 608.95 280.28C607.93 281.3 607.23 280.43 605.04 275.51C603.91 272.99 602.84 270.87 602.65 270.8C602.45 270.74 601.92 272.3 601.45 274.26C600.99 276.23 600.38 278.61 600.09 279.56C599.81 280.52 599.47 281.77 599.34 282.34C599.22 282.92 598.78 283.57 598.38 283.78C597.73 284.13 597.49 283.91 596.48 282.04C595.85 280.87 594.58 278.1 593.67 275.89C592.75 273.69 591.84 271.94 591.63 272C591.23 272.13 591.22 272.17 589.71 278.38C589.17 280.59 588.46 282.7 588.12 283.07C587.44 283.82 586.43 283.63 586.43 282.76C586.43 282.44 586.17 281.72 585.86 281.16C585.25 280.07 582.68 274.43 581.84 272.34C580.9 270.02 580.57 270.69 578.75 278.41C577.96 281.79 577.19 283.41 576.37 283.41C576.19 283.41 575.46 282.16 574.75 280.62C572.67 276.16 571.37 273.28 571.02 272.35C570.61 271.3 569.51 271.2 569.51 272.22C569.51 272.62 569.08 274.61 568.55 276.64C568.02 278.68 567.59 280.66 567.59 281.05C567.59 281.44 567.23 282.08 566.79 282.47C566.02 283.17 563.77 283.19 487.34 283.08C444.07 283.02 408.44 282.87 408.15 282.76C407.71 282.59 407.62 283.87 407.62 290.22C407.62 298.94 407.69 298.74 404.12 300.27C402.35 301.02 400.33 301.94 395.01 304.41C393.47 305.13 392.04 305.71 391.84 305.71C391.07 305.71 391.5 306.86 392.33 307.02C392.81 307.11 394.5 307.46 396.08 307.79C397.67 308.12 401.3 308.84 404.16 309.38C410.93 310.66 412.23 311.02 412.49 311.7C412.77 312.45 411.94 313.4 411.01 313.4C410.6 313.4 409.71 313.8 409.03 314.29C408.36 314.78 405.91 316.02 403.58 317.04C401.25 318.06 398.08 319.48 396.53 320.19C394.99 320.9 393.56 321.48 393.36 321.48C392.76 321.48 392.97 322.2 393.68 322.58C394.05 322.77 395.13 323.04 396.08 323.18C397.03 323.32 398.5 323.58 399.35 323.77C400.2 323.96 402.36 324.4 404.16 324.75C405.96 325.1 408.12 325.54 408.96 325.72C409.81 325.9 410.99 326.15 411.58 326.28C413.16 326.61 412.89 328.09 411.18 328.43C410.5 328.57 409.63 329.03 409.26 329.46C408.88 329.88 406.59 331.06 404.16 332.06C401.73 333.07 398.87 334.28 397.81 334.75C396.75 335.22 395.15 335.92 394.25 336.31C391.7 337.41 392.04 337.68 397.24 338.73C398.4 338.96 400.65 339.42 402.23 339.74C403.82 340.07 406.66 340.64 408.55 341.02C412.32 341.78 413.44 342.59 412.08 343.6C411.68 343.9 411.19 344.04 410.99 343.92C410.8 343.8 410.26 344.06 409.8 344.49C409.33 344.93 407.92 345.74 406.65 346.3C405.39 346.85 403.83 347.54 403.2 347.83C399.73 349.37 397.53 350.32 395.03 351.32C393.5 351.93 392.3 352.6 392.36 352.79C392.42 352.99 396.53 353.95 401.49 354.94C411.34 356.9 412.29 357.14 412.71 357.78C412.86 358.01 412.99 361.54 413 365.61L413 373.01L573.35 373.01L733.7 373.01L734.68 371.53C735.94 369.62 737.2 368.97 739.64 368.97C742.04 368.97 743.37 369.84 744.53 372.18C745.23 373.61 745.29 374.05 744.93 375.26C744.69 376.04 743.81 377.36 742.96 378.18C741.57 379.54 741.22 379.69 739.52 379.66C737.38 379.63 736.3 378.98 734.71 376.77L733.66 375.32L470.66 375.32L207.65 375.32L207.65 398.8C207.65 414.25 207.52 422.54 207.26 423.03C206.86 423.76 205.55 423.77 126.32 423.77C49.99 423.77 45.77 423.73 45.49 423.1ZM204.95 420.72C205.38 419.91 205.54 26.73 205.11 25.6C204.9 25.05 197.6 25 126.28 25L47.68 25L47.68 222.97C47.68 331.86 47.8 421.06 47.94 421.21C48.08 421.35 83.38 421.46 126.37 421.46C203.27 421.46 204.56 421.45 204.95 420.72ZM187.86 375.18C187.43 374.86 187.24 374.41 187.39 374.03C187.59 373.51 188.22 373.39 190.87 373.39C194.34 373.39 195.19 373.88 193.85 375.09C192.99 375.87 188.89 375.93 187.86 375.18ZM336.28 308.41L336.28 243.99L329.36 243.8L322.44 243.61L322.32 242.6C322.24 241.87 323.86 238.84 328.41 231.26C331.83 225.57 334.78 220.76 334.97 220.56C335.16 220.36 335.32 220.06 335.32 219.89C335.32 219.72 331.04 219.54 325.81 219.49L316.29 219.38L316.17 218.33L316.05 217.27L325.83 217.27C333.66 217.27 335.7 217.16 336.05 216.74C336.38 216.35 336.44 208.27 336.3 185.88C336.11 154.38 335.86 142.28 335.4 141.82C335.25 141.67 330.29 140.59 324.36 139.41C311.65 136.87 312.36 137.06 312.04 136.06C311.75 135.15 312.37 134.61 313.71 134.6C314.19 134.59 314.68 134.33 314.81 134C314.93 133.68 315.75 133.09 316.62 132.7C317.5 132.3 320.03 131.16 322.25 130.17C324.47 129.17 326.98 128.05 327.82 127.67C328.67 127.29 330.06 126.68 330.9 126.31L332.44 125.64L330.71 125.17C329.08 124.73 326.76 124.28 318.6 122.83C312.97 121.83 312.06 121.48 312.06 120.36C312.06 119.64 312.29 119.37 313 119.27C313.51 119.2 314.48 118.72 315.15 118.21C315.82 117.7 316.46 117.29 316.59 117.29C316.72 117.29 318.31 116.59 320.13 115.75C321.96 114.9 323.51 114.21 323.59 114.21C323.68 114.21 325.23 113.52 327.06 112.67C328.88 111.83 330.51 111.13 330.68 111.13C330.86 111.13 331.21 110.88 331.47 110.56C332.04 109.87 332.21 109.93 327.25 109.04C325.24 108.67 322.38 108.15 320.9 107.87C319.42 107.59 317 107.15 315.52 106.88C312.93 106.41 311.87 105.78 311.87 104.72C311.87 104.43 312.3 104.21 312.85 104.21C313.4 104.21 314.22 103.79 314.72 103.25C315.21 102.72 315.71 102.29 315.83 102.29C315.95 102.29 317.54 101.6 319.37 100.75C321.19 99.9 322.75 99.21 322.83 99.21C322.91 99.21 324.46 98.52 326.29 97.67C328.11 96.83 329.68 96.14 329.78 96.14C329.88 96.14 330.42 95.84 330.97 95.48C331.96 94.83 331.89 94.81 324.71 93.36C320.71 92.56 316.41 91.72 315.15 91.5C312.36 91.01 311.87 90.64 311.87 89.02C311.87 87.52 312.13 87.28 315.24 85.98C316.57 85.42 318.74 84.47 320.05 83.87C321.37 83.27 323.94 82.14 325.77 81.35C331.13 79.06 330.74 80.29 330.62 65.92L330.52 53.64L269.09 53.55L207.65 53.45L207.65 213.23L207.65 373.01L271.97 372.91L336.28 372.82L336.28 308.41ZM410.61 366.39C410.71 360.07 410.7 359.96 409.84 359.41C409.36 359.1 408.19 358.74 407.23 358.59C406.28 358.45 404.9 358.19 404.16 358.01C402.8 357.68 399.96 357.1 392.73 355.69C387.47 354.67 386.77 354.38 386.92 353.3C386.99 352.8 387.37 352.39 387.81 352.31C388.24 352.23 388.93 351.85 389.35 351.47C389.78 351.09 391.25 350.31 392.62 349.74C394 349.16 395.81 348.37 396.66 347.98C397.5 347.59 400.01 346.5 402.22 345.56C404.44 344.62 406.31 343.67 406.38 343.46C406.45 343.24 405.85 342.94 405.05 342.79C399.29 341.74 387.73 339.29 387.33 339.04C386.58 338.57 386.74 337.25 387.55 337.25C387.94 337.25 388.66 336.81 389.16 336.28C389.66 335.76 390.19 335.32 390.35 335.32C390.51 335.32 391.93 334.73 393.51 334C395.09 333.27 398.52 331.78 401.13 330.7C403.75 329.61 406.11 328.51 406.37 328.25C406.76 327.88 406.08 327.64 403.11 327.09C401.04 326.7 398.83 326.25 398.2 326.09C397.56 325.92 395.4 325.49 393.39 325.13C388.09 324.18 387.04 323.76 387.04 322.62C387.04 321.9 387.28 321.64 388.01 321.54C388.54 321.47 389.23 321.17 389.56 320.88C389.88 320.59 391.18 319.9 392.44 319.34C394.94 318.24 397.04 317.29 400.31 315.79C401.48 315.26 403.37 314.43 404.53 313.96C405.68 313.49 406.68 312.94 406.75 312.75C406.81 312.55 405.69 312.17 404.26 311.9C402.83 311.63 399.93 311.06 397.81 310.63C395.7 310.2 393.18 309.71 392.22 309.54C387.6 308.75 386.11 307.85 386.64 306.15C386.91 305.3 388.38 304.56 399.35 299.73C401.68 298.71 403.97 297.53 404.44 297.11L405.31 296.35L405.4 264.02L405.5 231.69L432.42 231.69C447.23 231.69 459.6 231.78 459.92 231.88C460.43 232.05 460.5 228.7 460.59 203.48C460.69 176.32 460.66 174.9 460.01 175.21C459.64 175.4 432.21 175.59 399.06 175.64L338.78 175.74L338.88 196.41L338.98 217.08L348.32 217.18C356.18 217.27 357.69 217.37 357.88 217.86C358 218.17 357.88 218.69 357.62 219C357.23 219.48 355.58 219.58 347.58 219.58C342.25 219.58 338.02 219.73 338.02 219.92C338.02 220.11 340.81 224.82 344.23 230.4C352.56 244.01 351.82 242.57 350.92 243.24C350.34 243.68 348.83 243.8 344.24 243.8L338.31 243.8L338.54 244.67C338.67 245.14 338.78 274.22 338.78 309.27L338.78 373.01L374.64 372.91L410.5 372.82L410.61 366.39ZM778.03 365.76C777.43 365.39 777.42 365.21 777.49 356.76L777.55 349.54L779.19 349.56C780.08 349.56 781.81 349.46 783.03 349.33C785.1 349.11 785.3 349.17 786.35 350.22C787.51 351.38 788.31 353.52 788.32 355.49C788.32 357.29 786.84 359.88 785.19 360.97C783.91 361.82 783.42 361.93 781.78 361.74L779.86 361.51L779.86 363.16C779.86 364.92 778.89 366.29 778.03 365.76ZM720.69 361.6C720.19 361.5 719.04 360.67 718.14 359.76C715.76 357.39 715.07 353.92 716.21 350.09C717.22 346.69 719.3 345.32 723.48 345.32C726.97 345.32 729.1 346.14 729.1 347.49C729.1 348.7 728.51 348.93 727.13 348.24C725.49 347.42 723.58 347.11 721.99 347.41C718.2 348.12 717.07 355.27 720.26 358.46C721.14 359.34 721.69 359.55 723.12 359.55C724.1 359.55 725.51 359.29 726.27 358.97C728.29 358.13 729.18 358.21 729.03 359.22C728.81 360.67 727.2 361.49 724.27 361.65C722.8 361.73 721.19 361.71 720.69 361.6ZM742.79 361.48C741.32 361.01 739.56 359.3 738.82 357.63C738.45 356.78 738.22 355.13 738.22 353.17C738.21 349.52 739.15 347.36 741.31 346.09C742.91 345.14 747.4 345.02 749.07 345.88C751.78 347.29 753.16 350.4 752.84 354.43C752.5 358.73 750 361.43 746.13 361.69C744.9 361.77 743.4 361.68 742.79 361.48ZM757.26 361.28C755.62 360.1 755.25 358.74 755.25 353.99L755.25 349.55L756.36 349.55C757.8 349.55 757.94 349.98 757.94 354.51C757.94 359.1 758.29 359.78 760.48 359.43C762.91 359.04 763.32 358.18 763.32 353.57C763.32 351.38 763.49 349.49 763.7 349.36C763.91 349.24 764.43 349.32 764.85 349.55C765.58 349.93 765.63 350.34 765.63 355.31C765.63 361.23 765.62 361.25 763.13 361.34C762.28 361.37 760.81 361.51 759.86 361.65C758.56 361.85 757.92 361.75 757.26 361.28ZM770.63 361.36C769.33 360.7 768.75 358.81 768.73 355.08C768.71 352.79 768.55 351.83 768.13 351.47C767.81 351.21 767.55 350.69 767.55 350.32C767.55 349.95 767.81 349.43 768.13 349.17C768.45 348.9 768.71 348.2 768.71 347.6C768.71 346.31 769.19 345.94 770.46 346.25C771.23 346.45 771.4 346.73 771.4 347.83C771.4 349.03 771.51 349.17 772.46 349.17C774.44 349.18 775.29 349.59 775.17 350.47C775.07 351.15 774.75 351.3 773.22 351.4L771.4 351.52L771.4 355.07C771.4 359.04 771.65 359.55 773.6 359.55C774.44 359.55 774.97 359.77 775.13 360.18C775.67 361.59 772.66 362.38 770.63 361.36ZM792.12 360.78L790.82 359.61L790.68 354.56L790.55 349.5L791.84 349.62L793.12 349.74L793.23 354.14C793.29 356.58 793.53 358.77 793.76 359.05C794.29 359.68 795.91 359.69 797.16 359.05C798.09 358.59 798.13 358.39 798.32 354.16L798.51 349.74L799.66 349.74L800.82 349.74L800.92 355.07C800.99 358.56 800.88 360.58 800.6 360.92C800.37 361.21 799.47 361.42 798.57 361.41C797.69 361.39 796.17 361.51 795.2 361.66C793.58 361.92 793.32 361.85 792.12 360.78ZM805.36 360.93C804.32 360.04 804.27 359.84 804.15 355.95C804.05 353.06 803.86 351.77 803.47 351.45C802.77 350.86 802.78 349.77 803.49 349.19C803.79 348.93 804.09 348.18 804.16 347.51C804.37 345.32 806.78 345.82 806.78 348.06C806.78 349.09 806.88 349.17 808.27 349.17C811.29 349.17 811.23 351.33 808.2 351.55L806.61 351.67L806.73 355.32C806.8 357.55 807.02 359.08 807.29 359.25C807.54 359.41 808.31 359.54 809 359.54C810.53 359.55 811.1 360.55 810.03 361.34C808.88 362.18 806.58 361.98 805.36 360.93ZM700.04 360.98C699.94 360.71 699.9 357.12 699.96 353L700.06 345.51L702.76 345.39C706.43 345.22 709.23 345.89 710.88 347.33C712.81 349.03 713.33 350.29 713.33 353.25C713.33 357.08 711.78 359.42 708.19 360.99C706.69 361.65 700.3 361.64 700.04 360.98ZM708.14 358.45C709.72 357.57 711.12 354.77 710.9 352.96C710.47 349.5 708.73 347.93 705.06 347.7L702.56 347.54L702.56 353.29C702.56 356.45 702.69 359.16 702.84 359.32C703.28 359.75 706.86 359.17 708.14 358.45ZM748.03 358.79C749.48 357.65 750.25 355.69 750.25 353.11C750.25 348.55 747.07 346.15 743.17 347.78C740.12 349.06 739.78 356.19 742.65 358.61C744.08 359.81 746.63 359.9 748.03 358.79ZM784.5 358.56C785.29 357.72 785.43 357.18 785.43 355.15C785.42 352.19 784.92 351.47 782.86 351.47C780.14 351.47 779.86 351.84 779.86 355.45C779.86 359.06 780.14 359.55 782.18 359.55C783.18 359.55 783.83 359.27 784.5 358.56ZM729.19 339.57C728.63 339.32 728.33 338.86 728.33 338.23C728.33 337.29 728.36 337.28 730.79 337.51C733.09 337.72 733.33 337.67 734.25 336.74C735.63 335.36 735.6 334.37 734.19 334.75C733.61 334.91 732.38 335.06 731.46 335.08C730 335.1 729.62 334.93 728.48 333.68C727.25 332.34 727.18 332.11 727.18 329.46C727.18 324.4 729.15 322.72 734.43 323.28L737.37 323.59L737.47 330.04L737.58 336.49L736.12 338.05C734.79 339.48 734.47 339.62 732.36 339.77C731.1 339.86 729.67 339.77 729.19 339.57ZM443.57 336.52C441.49 335.61 440.3 332.68 440.3 328.42C440.3 324.93 441.13 322.18 442.51 321.09C443.25 320.51 444.07 320.33 445.9 320.33C448.06 320.33 448.44 320.45 449.43 321.44C450.89 322.89 451.46 324.93 451.45 328.64C451.43 333.67 449.61 336.47 446.18 336.72C445.17 336.79 444 336.7 443.57 336.52ZM427.1 336.22C426.96 336.08 426.85 335.55 426.85 335.04C426.85 334.39 427.86 333.1 430.25 330.7C433.85 327.1 434.78 325.58 434.38 323.97C433.92 322.16 432.18 321.91 428.01 323.05C427.64 323.15 427.39 322.88 427.3 322.27C427.08 320.8 428.13 320.33 431.57 320.33C434.52 320.33 434.65 320.37 435.92 321.63C438.35 324.06 437.65 326.52 433.3 330.96C431.78 332.5 430.71 333.89 430.86 334.13C431.02 334.38 432.41 334.55 434.34 334.55C437.63 334.55 438.45 334.9 437.6 335.92C437.24 336.35 436.06 336.48 432.25 336.48C429.56 336.48 427.24 336.36 427.1 336.22ZM454.7 335.99C454.6 335.71 454.56 332.12 454.62 328.01L454.72 320.52L455.88 320.52L457.03 320.52L457.14 323.88C457.2 325.73 457.37 327.25 457.5 327.25C457.64 327.25 459.2 325.69 460.98 323.79C463.62 320.96 464.42 320.33 465.33 320.33C465.95 320.33 466.45 320.52 466.45 320.75C466.45 320.98 465.12 322.64 463.5 324.43C460.04 328.24 459.98 327.67 464.41 332.55C466.48 334.83 467.07 335.71 466.74 336.04C465.7 337.07 464.58 336.47 461.78 333.39C458.2 329.44 457.47 329.38 457.3 333C457.24 334.37 457 335.71 456.77 335.98C456.24 336.62 454.95 336.62 454.7 335.99ZM468.25 336.22C467.73 335.7 467.97 333.4 468.55 333.4C468.85 333.4 469.21 333.57 469.34 333.79C469.6 334.21 471.95 334.31 472.35 333.92C472.49 333.77 472.08 333.34 471.45 332.96C467.47 330.54 468.1 323.88 472.48 322.05C475.69 320.71 479.39 321.77 481.46 324.62C483.41 327.33 482.8 330.55 479.94 332.68C479.29 333.15 478.76 333.69 478.76 333.86C478.76 334.31 481.36 334.24 481.64 333.79C481.77 333.57 482.23 333.4 482.65 333.4C483.3 333.4 483.4 333.62 483.3 334.84L483.18 336.28L480.1 336.28L477.03 336.28L477.05 334.5C477.07 333.05 477.31 332.44 478.3 331.31C478.98 330.54 479.56 329.53 479.59 329.06C479.77 326.47 478.84 324.12 477.38 323.46C474.96 322.36 472.73 323.4 471.86 326.03C471.17 328.12 471.59 329.96 473.2 331.88C474.57 333.53 474.92 335.17 474.07 336.02C473.58 336.5 468.7 336.67 468.25 336.22ZM718.52 335.73C715.56 335.04 714.1 332.93 714.1 329.36C714.1 325.62 715.53 323.68 718.65 323.18C721.65 322.7 724.05 324.2 724.82 327.04C725.15 328.26 725.12 328.74 724.66 329.44C724.12 330.26 723.81 330.32 720.44 330.32C716.87 330.32 716.79 330.34 716.79 331.23C716.79 331.72 717.16 332.46 717.6 332.86C718.41 333.59 718.61 333.61 723.33 333.3C726.11 333.11 724.14 335.47 721.21 335.82C720.37 335.92 719.15 335.88 718.52 335.73ZM743.32 335.56C741.2 334.88 740.64 333.31 740.64 328.1C740.63 324.44 740.73 323.73 741.26 323.52C742.75 322.95 743.13 323.85 743.33 328.55C743.47 331.97 743.66 333.14 744.1 333.42C744.77 333.85 746.23 333.58 747.45 332.8C748.23 332.29 748.31 331.9 748.41 327.92C748.52 323.69 748.54 323.59 749.44 323.47C749.94 323.39 750.5 323.57 750.68 323.85C750.86 324.13 751.01 326.6 751.01 329.33C751.02 333.35 750.9 334.43 750.4 334.98C749.91 335.52 749.58 335.58 748.79 335.28C748.16 335.04 747.44 335.04 746.81 335.27C744.92 335.97 744.65 336 743.32 335.56ZM761.82 335.59C760.91 335.27 760.27 334.67 759.73 333.64C759.02 332.26 759.01 332.01 759.51 330.56C760.14 328.73 761.22 328.08 764.33 327.66C766.92 327.31 767.69 326.68 766.59 325.84C765.88 325.31 763.15 325.27 761.02 325.77C760.6 325.86 760.44 325.58 760.44 324.77C760.44 323.75 760.6 323.59 761.98 323.3C764.47 322.75 767.13 323.22 768.39 324.43C769.47 325.46 769.48 325.51 769.48 330.16C769.48 335.29 769.15 336.18 767.58 335.34C766.97 335.01 766.36 335.05 765.04 335.5C764.08 335.83 763.26 336.08 763.21 336.07C763.17 336.06 762.54 335.84 761.82 335.59ZM774.95 335.52C773.3 334.8 772.94 333.69 772.94 329.43C772.94 326.31 772.85 325.84 772.17 325.41C771.74 325.15 771.4 324.63 771.4 324.26C771.4 323.89 771.74 323.37 772.17 323.11C772.66 322.8 772.94 322.21 772.94 321.48C772.94 320.46 773.07 320.33 774.07 320.33C775.1 320.33 775.21 320.46 775.32 321.77C775.43 323.18 775.47 323.21 777.17 323.33C778.12 323.4 779.07 323.63 779.28 323.84C779.9 324.46 778.04 325.71 776.51 325.71L775.17 325.71L775.3 329.38C775.45 333.4 775.66 333.77 777.82 333.78C779.24 333.79 779.8 334.41 779.04 335.13C778.19 335.94 776.31 336.12 774.95 335.52ZM785.06 335.66C781.53 334.83 779.8 331.1 781 326.9C781.77 324.2 784.48 322.69 787.6 323.22C790.42 323.69 792.6 327.31 791.41 329.53C791.02 330.25 790.64 330.32 787.15 330.32C783.75 330.32 783.32 330.4 783.33 331C783.37 332.92 785.65 334.01 788.41 333.42C791.14 332.83 791.47 332.88 791.33 333.88C791.11 335.38 787.85 336.31 785.06 335.66ZM797.03 335.67C794.66 335.02 793.32 332.81 793.32 329.56C793.32 327.24 794 325.48 795.4 324.19C796.25 323.4 796.83 323.24 798.81 323.21L801.2 323.18L801.3 321.85C801.52 319.13 801.72 318.73 802.85 318.86L803.89 318.98L804 326.84C804.06 331.79 803.96 334.84 803.71 335.08C803.49 335.3 802.67 335.44 801.88 335.39C801.08 335.35 799.91 335.46 799.28 335.64C798.64 335.82 797.63 335.83 797.03 335.67ZM700.33 335.25C700.01 334.92 699.87 332.58 699.87 327.18L699.87 319.57L700.88 319.32C702.4 318.94 706.97 319.43 708.3 320.12C711.01 321.52 711.39 324.69 709.13 327.02C708.48 327.7 707.95 328.39 707.95 328.56C707.95 328.73 709.08 330.22 710.46 331.88C712.86 334.76 712.94 334.92 712.18 335.32C710.94 335.99 710.19 335.53 707.78 332.6C705.48 329.8 704.22 328.9 703.17 329.3C702.7 329.48 702.56 330.14 702.56 332.22C702.56 334.49 702.45 334.97 701.82 335.31C700.89 335.81 700.89 335.81 700.33 335.25ZM754.53 335.19C754.21 334.81 754.11 332.35 754.18 326.81L754.29 318.98L755.32 318.86C756.23 318.76 756.39 318.9 756.59 320.01C756.72 320.71 756.77 324.3 756.71 327.97C756.6 334.27 756.55 334.68 755.78 335.19C755.09 335.65 754.91 335.65 754.53 335.19ZM447.21 334.18C448.26 333.62 448.76 331.72 448.76 328.33C448.76 323.5 447.55 321.7 444.74 322.4C443.42 322.74 442.88 325.01 443.07 329.44C443.19 332.2 443.38 333.15 443.94 333.76C444.71 334.61 446.07 334.79 447.21 334.18ZM766.28 332.81C766.93 332.39 767.17 331.86 767.17 330.89C767.17 329.37 766.77 329.26 763.87 329.99C761.83 330.5 761.23 331.76 762.4 333.06C763.2 333.94 764.71 333.84 766.28 332.81ZM800.72 332.73C801.26 332.25 801.39 331.49 801.39 328.96C801.39 325.49 801.28 325.32 798.96 325.33C796.78 325.34 796.01 326.5 796.01 329.74C796.01 331.54 796.17 332.06 796.99 332.88C798.06 333.95 799.43 333.9 800.72 332.73ZM734.24 332.22C735.17 331.49 735.25 331.19 735.25 328.61C735.25 325.47 735.13 325.33 732.56 325.33C730.55 325.33 729.48 326.66 729.48 329.17C729.48 332.54 731.88 334.08 734.24 332.22ZM722.46 327.37C722.54 327.12 722.25 326.55 721.82 326.12C720.34 324.64 716.79 325.47 716.79 327.29C716.79 327.99 717.02 328.04 719.55 327.94C721.25 327.87 722.37 327.65 722.46 327.37ZM788.97 327.38C789.32 326.47 787.75 325.33 786.16 325.33C784.78 325.33 783.32 326.42 783.32 327.44C783.32 328.33 788.63 328.27 788.97 327.38ZM706.03 326.67C709.3 324.98 708.09 321.48 704.24 321.48L702.56 321.48L702.56 324.11C702.56 325.55 702.68 326.85 702.82 326.99C703.26 327.43 704.86 327.27 706.03 326.67ZM581.56 310.66C579.09 309.98 577.59 306.79 577.59 302.25C577.59 299.1 578.3 296.6 579.57 295.33C580.59 294.31 580.99 294.18 582.97 294.18C585.7 294.18 587.18 295.21 588.18 297.83C589.09 300.2 588.84 306.15 587.76 308C586.38 310.35 584.06 311.35 581.56 310.66ZM571.33 310.28C570.86 310.01 570.67 309.41 570.67 308.19L570.67 306.48L567.47 306.48C563.91 306.48 563.36 306.19 563.36 304.32C563.36 303.02 563.53 302.78 567.95 297.64C570.63 294.52 571.48 293.97 572.6 294.57C573.25 294.91 573.35 295.5 573.44 299.47C573.54 303.63 573.61 303.98 574.32 304.11C575.6 304.34 575.86 304.87 575.1 305.7C574.71 306.13 574.16 306.48 573.87 306.48C573.52 306.48 573.36 307.02 573.36 308.2C573.36 310.11 572.54 310.95 571.33 310.28ZM592.6 310.34C592.19 310.08 592.1 308.44 592.17 302.39C592.21 298.19 592.39 294.61 592.57 294.43C592.75 294.25 593.26 294.22 593.7 294.36C594.44 294.59 594.51 294.9 594.52 298.14L594.53 301.68L598.11 297.93C601.57 294.31 602.47 293.75 603.68 294.52C604.07 294.76 603.42 295.67 601.08 298.15C599.37 299.97 597.97 301.63 597.97 301.84C597.97 302.16 600.53 305.31 603.84 309.05C604.57 309.87 604.57 309.88 603.76 310.32C602.47 311 601.73 310.53 598.91 307.23C596.98 304.97 596.06 304.17 595.49 304.26C594.79 304.35 594.69 304.68 594.59 307.15C594.5 309.34 594.33 310.01 593.8 310.3C593.42 310.5 592.89 310.51 592.6 310.34ZM605.76 310.46C605.21 310.24 605.08 307.25 605.62 307.25C605.8 307.25 606.45 307.51 607.06 307.83C609.3 309 610.57 308.28 608.7 306.9C604.59 303.86 605.41 297.91 610.22 295.88C611.99 295.13 613.73 295.19 615.77 296.07C620.36 298.03 621.26 304.08 617.33 306.62C616.63 307.07 616.05 307.58 616.05 307.74C616.04 308.41 617.34 308.48 618.6 307.88C619.34 307.53 620.1 307.34 620.3 307.46C620.97 307.87 620.69 309.9 619.91 310.31C619.1 310.75 615.71 310.86 614.73 310.48C613.76 310.11 613.94 307.53 615.03 306.22C616.22 304.8 617.2 302.86 617.2 301.93C617.2 300.85 616.21 298.68 615.38 297.92C614.97 297.56 614.12 297.16 613.47 297.03C609.41 296.22 607.27 302.74 610.52 306C611.82 307.29 612.18 309.49 611.22 310.19C610.54 310.69 606.79 310.87 605.76 310.46ZM584.7 307.92C585.89 306.89 586.47 303.68 586.07 300.33C585.69 297.14 585.2 296.48 583.2 296.48C580.69 296.48 580.47 296.96 580.47 302.34C580.47 306.9 580.48 306.94 581.55 307.86C582.89 309.01 583.43 309.02 584.7 307.92ZM570.2 303.71C570.84 303.08 570.82 298.79 570.18 298.8C569.53 298.8 566.05 302.82 566.05 303.57C566.05 304.04 566.48 304.18 567.9 304.18C568.91 304.18 569.95 303.97 570.2 303.71ZM736.13 286.83C735.4 286.62 734.29 285.75 733.44 284.71L731.98 282.95L671.99 283.08C639 283.16 611.61 283.08 611.14 282.9C610.12 282.53 609.95 280.93 610.88 280.57C611.22 280.44 618.45 280.33 626.96 280.33C638.47 280.33 642.54 280.22 642.88 279.87C643.23 279.52 643.34 273.65 643.34 255.81L643.34 232.21L644.4 232.34L645.46 232.46L645.56 256.4L645.66 280.33L688.6 280.33L731.54 280.33L733.55 278.17L735.57 276L737.73 276.18C739.53 276.33 740.11 276.58 741.22 277.65C742.95 279.33 743.53 281.05 742.95 282.81C742.49 284.2 739.85 286.87 738.93 286.87C738.64 286.87 738.16 286.94 737.88 287.03C737.6 287.11 736.81 287.02 736.13 286.83ZM103.35 259.58C101.69 259.26 100.37 258.22 100.37 257.22C100.37 256.17 101.02 255.99 102.39 256.69C105.5 258.26 109.68 257.64 110.21 255.52C110.54 254.22 109.92 253.6 107.76 253.06C103.56 252.01 103.02 251.81 102.08 251C100.9 249.98 100.42 247.44 101.1 245.81C101.85 244 103.6 243.22 106.9 243.22C111.13 243.22 113.62 244.56 112.14 246.04C111.65 246.53 111.38 246.52 110 245.97C107.96 245.16 104.85 245.14 104.05 245.94C103.71 246.28 103.44 247.05 103.44 247.66C103.44 248.97 104.68 249.78 107.34 250.2C111.33 250.83 113.27 252.54 112.93 255.15C112.77 256.32 112.36 257.01 111.17 258.08C109.11 259.91 107.06 260.31 103.35 259.58ZM118.21 259.42C116.4 258.61 115.32 256.81 115.09 254.22C114.68 249.74 116.51 247.26 120.24 247.26C122.57 247.26 123.96 247.9 125.17 249.51C126.28 250.99 126.27 255.61 125.15 257.11C123.32 259.56 120.55 260.48 118.21 259.42ZM130.73 259.53C128.89 258.86 128.44 257.43 128.44 252.32C128.44 249.62 128.6 247.59 128.83 247.45C129.04 247.32 129.56 247.32 129.98 247.46C130.68 247.68 130.75 248.05 130.75 251.61C130.76 256.5 131.16 257.47 133.18 257.41C135.71 257.33 136.09 256.61 136.21 251.74C136.31 247.93 136.4 247.45 137.04 247.33C137.43 247.25 137.92 247.36 138.13 247.57C138.35 247.79 138.5 250.24 138.5 253.24C138.49 257.53 138.37 258.65 137.88 259.14C137.39 259.63 137.13 259.66 136.53 259.28C135.94 258.92 135.51 258.94 134.43 259.39C132.91 260.02 132.15 260.05 130.73 259.53ZM154.37 259.56C152.69 259.04 151.48 257.58 150.9 255.35C150.22 252.73 150.93 249.85 152.64 248.33C153.7 247.38 154.12 247.26 156.52 247.26C158.7 247.26 159.35 247.41 159.98 248.04C160.6 248.66 160.67 248.97 160.35 249.58C160.01 250.22 159.81 250.28 159.13 249.91C158.68 249.67 157.45 249.47 156.4 249.45C153.9 249.41 153.43 250.05 153.43 253.46C153.43 255.83 153.52 256.12 154.49 256.89C155.56 257.72 156.22 257.74 159.3 257.03C160.24 256.81 160.36 256.89 160.36 257.78C160.36 258.37 160.05 258.93 159.6 259.18C158.49 259.77 155.72 259.97 154.37 259.56ZM165.59 259.57C162.04 258.45 160.56 253.85 162.45 249.86C163.31 248.04 164.84 247.26 167.53 247.26C169.42 247.26 169.96 247.42 170.86 248.26C172.08 249.39 172.66 250.67 172.66 252.21C172.66 253.92 172.05 254.18 168.18 254.18C166.23 254.18 164.53 254.34 164.41 254.54C164 255.2 165.06 256.82 166.22 257.3C167.14 257.68 167.85 257.68 169.69 257.3C171.59 256.91 172.06 256.91 172.32 257.33C172.52 257.66 172.33 258.14 171.78 258.69C170.8 259.67 167.41 260.16 165.59 259.57ZM142.7 259.04C142.4 258.67 142.29 256.73 142.37 252.98C142.46 248 142.54 247.45 143.18 247.33C143.56 247.26 144.19 247.48 144.57 247.82C145.21 248.4 145.36 248.4 146.62 247.8C148.11 247.09 149.86 247.3 150.22 248.24C150.58 249.17 149.6 249.95 148.09 249.95C147.32 249.95 146.3 250.22 145.83 250.55C145.04 251.1 144.97 251.46 144.97 254.9C144.97 258.57 144.68 259.57 143.6 259.57C143.35 259.57 142.95 259.33 142.7 259.04ZM122.23 256.93C123.82 255.71 123.99 251.49 122.51 250.01C121.64 249.14 118.95 249.25 118.24 250.19C117.91 250.64 117.69 251.86 117.68 253.34C117.67 255.4 117.81 255.9 118.61 256.7C119.73 257.82 120.98 257.9 122.23 256.93ZM169.91 251.75C171 250.44 168.05 248.76 166.02 249.54C164.94 249.95 164.02 251.27 164.4 251.89C164.76 252.46 169.41 252.35 169.91 251.75ZM465.22 247.68C465.79 247.28 468.94 245.23 472.22 243.13C486.03 234.28 488.38 232.77 492.41 230.16C494.74 228.66 500.4 225.01 505 222.06C509.6 219.11 515.83 215.1 518.84 213.16C521.86 211.22 526.02 208.56 528.09 207.24C530.16 205.93 531.8 204.68 531.72 204.46C531.65 204.24 529.13 202.49 526.13 200.57C516.54 194.44 476.64 168.79 471.07 165.16C466.1 161.93 464.12 160.74 463.75 160.74C463.51 160.74 463.38 176.19 463.38 204.58C463.38 234.68 463.5 248.42 463.78 248.42C464 248.42 464.65 248.09 465.22 247.68ZM347.45 241.09C347.75 240.6 337.1 223.23 336.5 223.23C336.02 223.23 325.71 240.2 325.71 240.99C325.71 241.39 327.83 241.49 336.45 241.49C343.54 241.49 347.28 241.36 347.45 241.09ZM120.77 234.3C118.78 233.26 117.94 231.84 117.75 229.24C117.42 224.69 119.22 222.27 122.93 222.27C125.26 222.27 126.65 222.9 127.86 224.51C128.98 226 128.96 230.61 127.84 232.12C125.92 234.69 123.15 235.55 120.77 234.3ZM152.09 234.7C149.62 234.01 148.05 231.58 148.05 228.45C148.05 224.32 149.91 222.27 153.65 222.27C156.56 222.27 158.14 223.39 158.77 225.91C159.52 228.88 159.13 229.19 154.57 229.19C150.77 229.19 150.74 229.2 150.74 230.12C150.74 230.68 151.17 231.39 151.8 231.89C152.69 232.6 153.16 232.69 154.78 232.47C158.28 232.02 158.6 232.04 158.73 232.72C158.81 233.09 158.45 233.64 157.91 234C156.91 234.65 153.42 235.07 152.09 234.7ZM105.83 234.11C105.34 233.62 105.14 220.23 105.6 219.03C105.79 218.54 106.48 218.42 109.2 218.42C112.05 218.42 112.76 218.55 113.86 219.29C116.8 221.25 117.03 224.52 114.39 226.84C112.97 228.09 112.27 228.34 109.79 228.51L108.25 228.61L108.38 230.85C108.49 232.57 108.37 233.25 107.84 233.83C107.07 234.68 106.48 234.77 105.83 234.11ZM133.06 233.71C132.51 232.41 130.36 223.89 130.36 223.03C130.36 222.24 131.29 222.01 132.19 222.58C132.45 222.75 133.04 224.4 133.49 226.26C133.95 228.15 134.46 229.48 134.65 229.29C134.83 229.11 135.47 227.49 136.07 225.71C137.17 222.42 137.86 221.7 138.99 222.63C139.28 222.87 139.97 224.53 140.54 226.32C141.12 228.11 141.73 229.49 141.91 229.38C142.09 229.26 142.53 227.84 142.88 226.2C143.24 224.57 143.71 223.01 143.92 222.75C144.37 222.18 145.6 222.11 145.93 222.64C146.21 223.1 143.54 233.41 142.96 234.11C142.73 234.38 142.18 234.56 141.74 234.5C141.1 234.4 140.7 233.68 139.78 230.95C139.15 229.06 138.43 227.46 138.18 227.37C137.93 227.29 137.38 228.33 136.88 229.84C136.41 231.28 135.78 232.93 135.49 233.52C134.84 234.81 133.56 234.91 133.06 233.71ZM161.68 234.07C161.57 233.8 161.54 231.08 161.59 228.02C161.69 223.25 161.79 222.45 162.33 222.35C162.67 222.28 163.22 222.49 163.54 222.81C164.05 223.33 164.28 223.33 165.67 222.78C167.84 221.93 169.29 222.33 169.13 223.72C169.02 224.68 168.83 224.79 166.91 225.02C164.1 225.37 163.82 225.84 163.82 230.15C163.82 233.62 163.51 234.57 162.38 234.57C162.1 234.57 161.78 234.35 161.68 234.07ZM125.1 231.57C125.97 230.66 126.13 230.15 126.13 228.35C126.13 225.43 125.29 224.38 123.03 224.44C120.86 224.49 120.36 225.22 120.36 228.32C120.36 230.4 120.5 230.9 121.31 231.71C122.55 232.95 123.82 232.9 125.1 231.57ZM469.43 230.31C469.06 230.1 468.76 229.58 468.76 229.17C468.76 228.48 469.05 228.42 472.04 228.42C474.73 228.42 475.37 228.53 475.57 229.05C475.71 229.44 475.53 229.89 475.09 230.21C474.26 230.82 470.42 230.89 469.43 230.31ZM156.11 226.71C156.77 225.91 156.01 224.73 154.65 224.45C152.4 224 150.31 225.2 150.86 226.64C151.18 227.48 155.42 227.54 156.11 226.71ZM112.58 225.25C113.61 224.28 113.72 222.44 112.8 221.43C112.35 220.93 111.62 220.73 110.2 220.73L108.23 220.73L108.26 223.14C108.27 224.46 108.43 225.78 108.6 226.06C109.04 226.77 111.47 226.27 112.58 225.25ZM380.51 226.12C380.21 225.64 380.87 224.4 382.49 222.42C383.2 221.55 383.78 220.74 383.78 220.62C383.78 220.49 383.13 220.34 382.34 220.27C381.33 220.19 380.86 219.95 380.77 219.48C380.66 218.89 380.98 218.81 383.38 218.81C386.9 218.81 387.08 219.25 384.77 222.18C383.8 223.42 383.01 224.55 383.01 224.69C383.01 224.84 383.6 224.96 384.32 224.96C386.25 224.96 386.98 225.31 386.43 225.97C385.91 226.59 380.88 226.72 380.51 226.12ZM415 223.55C413.92 223.32 413.05 221.68 413.67 221.06C413.97 220.76 414.48 220.78 415.49 221.11C419.01 222.27 421.46 221.14 421.46 218.35C421.46 216.79 421.35 216.69 418.58 215.87C417.84 215.65 417.38 215.23 417.31 214.71C417.21 214.05 417.46 213.83 418.62 213.56C420.46 213.12 421.72 211.54 421.12 210.43C420.42 209.11 418.89 209.01 414.93 210.01C414.57 210.1 414.31 209.81 414.22 209.21C414 207.76 415.06 207.27 418.43 207.27C421.04 207.27 421.54 207.39 422.54 208.23C424.49 209.86 424.47 211.55 422.49 213.73L421.68 214.61L422.71 215.46C424.98 217.33 424.87 219.9 422.41 222.28C421.17 223.48 420.85 223.6 418.47 223.66C417.05 223.71 415.49 223.65 415 223.55ZM370.16 220.73C369.61 219.25 368.75 216.87 368.24 215.44C367.73 214.01 366.95 211.84 366.51 210.62C366.06 209.4 365.7 208.14 365.7 207.83C365.7 207.11 367.38 207.09 367.97 207.8C368.38 208.29 370.31 213.37 371.76 217.76C372.09 218.77 372.55 219.54 372.77 219.46C372.99 219.39 373.91 217.18 374.82 214.55C377.05 208.09 377.45 207.27 378.4 207.27C379.62 207.27 379.74 208.31 378.8 210.87C378.33 212.17 377.25 215.13 376.42 217.45C374.47 222.87 374.11 223.42 372.46 223.42C371.19 223.42 371.12 223.34 370.16 220.73ZM430.15 220.73C429.6 219.25 428.74 216.87 428.22 215.44C427.71 214.01 426.94 211.84 426.49 210.62C426.05 209.4 425.69 208.14 425.69 207.83C425.69 207.24 427.1 207.07 427.84 207.56C428.19 207.8 429.63 211.56 431.96 218.33C432.19 219.02 432.56 219.53 432.77 219.46C432.99 219.39 433.9 217.18 434.81 214.55C437.13 207.82 437.45 207.19 438.48 207.34C439.7 207.51 439.73 208.46 438.64 211.41C438.11 212.84 437.05 215.73 436.27 217.84C434.42 222.9 434.07 223.42 432.45 223.42C431.18 223.42 431.11 223.34 430.15 220.73ZM396.99 219.39C396.39 217.82 396.95 217.65 402.9 217.66C408.91 217.66 410.04 217.91 409.31 219.08C408.93 219.68 408.15 219.78 403.05 219.87C398.11 219.96 397.18 219.89 396.99 219.39ZM397.33 215.48C397.07 215.37 396.85 214.86 396.85 214.35L396.85 213.42L403.02 213.42C408.38 213.42 409.21 213.5 409.42 214.06C409.93 215.37 408.53 215.73 403.03 215.7C400.16 215.68 397.6 215.58 397.33 215.48ZM125.55 212.7C124.65 212.51 124.37 212.23 124.28 211.37L124.15 210.28L126.58 210.54C128.72 210.77 129.14 210.7 130.07 209.97C130.65 209.51 131.13 208.78 131.13 208.35C131.13 207.69 130.97 207.61 130.07 207.83C127.62 208.43 127.03 208.42 125.78 207.77C124.03 206.85 123.05 204.91 123.05 202.36C123.05 199.71 123.85 197.87 125.43 196.87C126.56 196.16 127.08 196.1 129.97 196.31C131.78 196.45 133.37 196.76 133.54 197.01C133.71 197.26 133.8 200.18 133.74 203.5L133.63 209.53L132.48 210.75C130.56 212.79 128.59 213.35 125.55 212.7ZM75.06 208.05C72.83 206.65 72.31 204.83 72.3 198.32C72.3 193.4 72.38 192.6 72.92 192.39C73.27 192.26 73.83 192.33 74.17 192.54C74.69 192.86 74.83 193.96 74.99 198.85C75.09 202.11 75.33 205 75.51 205.29C75.7 205.58 76.43 206.05 77.15 206.35C78.27 206.82 78.63 206.82 79.77 206.34C81.94 205.44 82.29 204.25 82.29 197.87L82.29 192.27L83.24 192.27C84.84 192.27 85.11 193.4 84.9 199.18C84.69 204.98 84.3 206.22 82.22 207.71C80.44 208.97 76.81 209.15 75.06 208.05ZM113.45 208.16C111.36 207.07 110.36 205.27 110.36 202.58C110.36 198.41 112.42 196.12 116.15 196.12C118.34 196.12 120.13 197.28 120.9 199.21C122.27 202.64 121.47 203.42 116.58 203.42C113.48 203.42 113.06 203.5 113.07 204.1C113.1 205.88 115.54 207.11 117.76 206.47C119.58 205.95 121.13 206.03 121.13 206.63C121.13 208.47 116.01 209.49 113.45 208.16ZM138.09 207.76C136.75 206.41 136.41 204.67 136.59 199.96L136.71 196.69L137.86 196.69L139.01 196.69L139.11 200.54C139.22 205.22 139.38 205.98 140.35 206.5C141.32 207.01 143.58 206.14 144.17 205.02C144.4 204.59 144.59 202.49 144.59 200.35L144.59 196.45L145.65 196.57L146.7 196.69L146.7 202.46L146.7 208.23L144.78 208.31C143.72 208.36 142.04 208.5 141.04 208.64C139.38 208.86 139.12 208.78 138.09 207.76ZM156.91 207.73C155.94 206.76 155.74 206.25 155.74 204.78C155.74 202.37 156.74 201.41 159.98 200.75C162.98 200.13 163.64 199.72 162.97 198.91C162.62 198.49 161.81 198.38 159.61 198.48C157 198.6 156.7 198.55 156.57 197.87C156.34 196.7 157.57 196.12 160.26 196.12C165 196.12 166.12 197.58 166.12 203.77C166.12 208.04 166.04 208.2 163.62 208.29C162.78 208.33 161.19 208.48 160.08 208.63C158.2 208.89 158.02 208.83 156.91 207.73ZM170.09 207.88C169.05 206.99 169 206.78 168.88 202.98C168.77 199.67 168.62 198.89 168.01 198.31C167.09 197.45 167.09 197.17 168.05 196.31C168.48 195.92 168.82 195.13 168.82 194.51C168.82 192.27 171.17 192.7 171.51 195C171.69 196.21 171.81 196.32 173.24 196.43C174.08 196.5 174.93 196.71 175.12 196.9C175.78 197.54 174.54 198.43 172.98 198.43L171.48 198.43L171.59 202.37L171.7 206.31L173.35 206.43C176.38 206.65 175.7 208.81 172.61 208.81C171.64 208.81 170.81 208.5 170.09 207.88ZM179.68 208.2C177.75 207.21 176.71 205.2 176.7 202.46C176.7 199.71 177.38 198.2 179.16 197C180.64 196 183.39 195.82 184.95 196.61C186.29 197.29 187.66 199.47 187.66 200.92C187.66 202.97 186.76 203.42 182.72 203.42C180.49 203.42 179.2 203.57 179.2 203.83C179.2 204.76 180.1 205.83 181.3 206.33C182.39 206.78 182.88 206.78 184.64 206.32C186.3 205.89 186.79 205.88 187.2 206.27C187.6 206.67 187.56 206.92 186.98 207.64C186.02 208.83 181.58 209.17 179.68 208.2ZM192.29 208.34C190.68 207.49 189.78 205.46 189.78 202.66C189.77 198.22 191.78 195.93 195.48 196.16C197.71 196.3 198.04 196 198.04 193.78C198.04 191.72 198.7 191 199.78 191.9C200.27 192.3 200.35 193.62 200.26 200.31L200.16 208.23L198.43 208.3C197.47 208.33 195.92 208.47 194.96 208.6C193.85 208.75 192.9 208.66 192.29 208.34ZM88.32 208.17C88.18 208.03 88.06 205.34 88.06 202.19L88.06 196.48L89.89 196.5C90.89 196.52 92.52 196.42 93.5 196.29C95.63 196 96.66 196.46 97.69 198.16C98.31 199.17 98.44 200.11 98.44 203.44C98.44 207.6 98.18 208.42 96.87 208.42C95.92 208.42 95.75 207.64 95.78 203.38C95.82 199 95.55 198.43 93.47 198.43C90.88 198.43 90.6 198.94 90.71 203.4C90.81 207.46 90.53 208.42 89.23 208.42C88.87 208.42 88.46 208.31 88.32 208.17ZM101.9 202.49L101.9 196.5L102.79 196.5C103.28 196.5 103.88 196.71 104.12 196.95C104.47 197.3 104.81 197.3 105.57 196.95C107.04 196.28 109.08 196.38 109.37 197.14C109.67 197.91 108.57 199.22 107.84 198.94C107.56 198.83 106.71 198.94 105.96 199.19C104.35 199.72 104.25 200.04 104.12 204.77L104.02 208.23L102.96 208.35L101.9 208.47L101.9 202.49ZM150.61 208.17C150.47 208.03 150.36 204.32 150.36 199.94C150.36 193.03 150.44 191.94 150.97 191.74C151.78 191.42 151.76 191.42 152.44 192.11C152.95 192.62 153.05 193.9 153.05 200.11C153.05 205.34 152.91 207.64 152.59 207.96C152.08 208.46 151.02 208.58 150.61 208.17ZM162.89 205.7C163.19 205.45 163.43 204.67 163.43 203.95C163.43 202.74 163.35 202.66 162.14 202.66C161.43 202.66 160.31 202.85 159.64 203.08C158.6 203.44 158.43 203.68 158.43 204.82C158.43 205.84 158.63 206.21 159.29 206.46C160.22 206.8 162.02 206.42 162.89 205.7ZM197.37 205.45C198.31 204.6 198.36 199.01 197.43 198.66C196.21 198.19 193.53 198.42 193.01 199.03C192.35 199.84 192.09 203.71 192.62 205.07C193.33 206.92 195.55 207.1 197.37 205.45ZM130.13 205.31C131.11 204.54 131.16 204.35 131.05 201.56L130.94 198.62L129.07 198.5C126.38 198.33 125.75 199.02 125.75 202.14C125.75 204.07 125.91 204.74 126.52 205.35C127.51 206.34 128.84 206.32 130.13 205.31ZM118.69 200.53C119.08 199.5 117.71 198.43 116.01 198.43C114.32 198.43 113.06 199.27 113.06 200.41C113.06 201.03 113.39 201.12 115.76 201.12C117.84 201.12 118.52 200.98 118.69 200.53ZM184.95 200.57C185.73 199.62 184.15 198.43 182.09 198.43C180.69 198.43 180.26 198.6 179.75 199.37C179.41 199.89 179.24 200.5 179.38 200.72C179.77 201.34 184.4 201.22 184.95 200.57ZM473.43 191.02C473.19 190.78 472.99 189.49 472.99 188.16L472.99 185.74L470.76 185.74C468.3 185.74 466.95 185.08 467.34 184.06C467.53 183.57 468.1 183.43 469.83 183.43C471.06 183.43 472.28 183.22 472.53 182.97C472.78 182.71 472.99 181.51 472.99 180.3C472.99 177.96 473.3 177.46 474.52 177.85C475.14 178.05 475.28 178.5 475.38 180.66L475.49 183.24L477.99 183.35C480.98 183.49 481.63 183.95 480.35 184.99C479.7 185.52 478.85 185.74 477.37 185.74L475.3 185.74L475.3 188.22C475.3 190.25 475.17 190.78 474.59 191.09C474.1 191.35 473.74 191.33 473.43 191.02ZM110.07 182.76C109.27 182.67 108.58 182.26 108.18 181.65C107.24 180.21 107.94 179.75 110.2 180.32C113.34 181.11 115.19 180.18 115.61 177.6C115.76 176.65 115.62 176.05 115.08 175.38C114.44 174.59 113.96 174.45 111.68 174.38C110.22 174.33 108.89 174.27 108.73 174.25C108.57 174.22 108.44 172.38 108.44 170.16L108.44 166.12L113.23 166.12C118.27 166.12 119.02 166.38 117.84 167.69C117.28 168.3 116.65 168.43 114.13 168.43L111.09 168.43L111.21 170.26L111.33 172.08L113.44 172.29C115.92 172.53 117.01 173.14 117.9 174.8C118.7 176.28 118.46 178.85 117.39 180.32C116.99 180.87 115.9 181.7 114.97 182.18C113.33 183.02 112.71 183.09 110.07 182.76ZM172.38 182.68C170.68 182.26 169.45 181.39 168.17 179.72C167.15 178.38 167.08 178.08 167.08 174.42C167.08 171.05 167.2 170.36 167.96 169.13C168.48 168.3 169.52 167.39 170.49 166.92C173.25 165.58 178.26 165.99 179.79 167.68C180.45 168.4 180.45 168.5 179.85 169.09C179.26 169.69 179.12 169.69 177.85 169.08C177.1 168.72 175.57 168.43 174.46 168.43C170.96 168.43 169.58 170.14 169.58 174.51C169.58 177.43 170.46 179.3 172.29 180.27C173.46 180.89 176.57 180.62 177.75 179.79C178.83 179.04 179.93 179.03 180.21 179.78C180.92 181.63 175.8 183.53 172.38 182.68ZM95.37 182.09C94.65 181.22 95.19 180.35 96.46 180.35C98.26 180.35 98.48 179.73 98.36 174.91L98.25 170.55L96.91 170.35C95.89 170.21 95.53 169.95 95.44 169.33C95.35 168.68 95.57 168.45 96.5 168.24C97.14 168.1 97.92 167.64 98.21 167.22C98.56 166.73 99.08 166.49 99.66 166.57C100.56 166.7 100.56 166.72 100.75 173.43L100.94 180.16L102.22 180.28C103.63 180.42 104.17 181.21 103.44 182.09C103.08 182.52 102.09 182.66 99.41 182.66C96.72 182.66 95.73 182.52 95.37 182.09ZM132.96 182.24C132.59 182.03 132.28 181.65 132.28 181.4C132.28 181.15 131.87 179.82 131.36 178.44C130.85 177.06 129.72 174.02 128.86 171.68C127.99 169.35 127.28 167.23 127.28 166.97C127.28 166.36 129.46 166.37 129.86 166.99C130.03 167.25 131.05 169.98 132.12 173.05C133.2 176.11 134.21 178.62 134.39 178.62C134.68 178.62 135.5 176.5 137.67 170.16C138.81 166.81 139.09 166.44 140.33 166.58C141.58 166.73 141.57 166.87 139.59 172.28C138.71 174.71 137.83 177.13 137.65 177.66C136.01 182.48 135.02 183.45 132.96 182.24ZM151.55 182.13C151.24 181.76 151.14 179.32 151.21 174.15L151.32 166.7L155.36 166.7C158.56 166.7 159.7 166.85 160.88 167.44C163.96 168.97 165.55 172.91 164.57 176.55C163.98 178.74 161.14 181.64 159.01 182.23C156.77 182.85 152.09 182.79 151.55 182.13ZM159.21 179.64C161.93 178.19 163.06 174.29 161.56 171.5C160.56 169.63 158.83 168.72 156.19 168.67L154.01 168.62L153.9 173.99C153.84 176.94 153.88 179.58 153.99 179.85C154.28 180.61 157.64 180.47 159.21 179.64ZM257.41 112.88C257.09 112.07 257.56 111.52 258.57 111.52C260.31 111.52 260.72 110.47 260.72 106.02C260.72 102.37 260.64 101.89 259.98 101.53C259.57 101.31 258.88 101.14 258.44 101.14C257.85 101.14 257.65 100.89 257.65 100.17C257.65 99.4 257.84 99.21 258.63 99.21C259.18 99.21 259.99 98.79 260.5 98.25C261.47 97.2 262.42 97.01 262.91 97.77C263.08 98.04 263.31 101.19 263.41 104.79L263.61 111.33L264.76 111.45C266.27 111.62 266.74 112.1 266.12 112.85C265.42 113.69 257.73 113.72 257.41 112.88ZM270.98 113.18C270.84 113.04 270.72 109.41 270.72 105.11L270.72 97.29L271.6 97.29C273.08 97.29 273.41 98.01 273.41 101.21C273.41 102.86 273.51 104.21 273.62 104.21C273.74 104.21 274.82 103.13 276.03 101.81C279.81 97.66 280.24 97.29 281.24 97.29C281.78 97.29 282.32 97.47 282.46 97.69C282.59 97.91 281.39 99.43 279.79 101.08C278.18 102.74 276.88 104.41 276.88 104.82C276.88 105.22 278.28 107.16 279.98 109.12C281.68 111.07 282.96 112.85 282.83 113.06C282.7 113.27 282.11 113.44 281.52 113.44C280.65 113.44 279.92 112.85 277.79 110.39C276 108.33 274.86 107.33 274.28 107.31C273.46 107.29 273.41 107.44 273.41 109.9C273.41 111.42 273.22 112.71 272.95 112.98C272.45 113.48 271.38 113.59 270.98 113.18ZM283.93 113.04C283.39 112.5 283.75 110.74 284.45 110.47C284.75 110.36 285.2 110.46 285.44 110.7C285.94 111.2 287.88 111.29 288.17 110.82C288.28 110.65 287.87 110.21 287.27 109.86C286.12 109.18 284.56 106.45 284.56 105.11C284.56 100.44 289.87 97.1 294.23 99.01C299.16 101.18 300.07 107 295.9 109.7C295.17 110.17 294.57 110.69 294.57 110.85C294.56 111.31 297.44 111.18 297.92 110.7C298.58 110.04 299.56 110.61 299.56 111.65C299.56 113.13 298.75 113.49 295.65 113.36L292.83 113.25L292.94 111.55C293.02 110.33 293.36 109.5 294.17 108.58C297.65 104.62 294.32 98.36 289.83 100.4C288.63 100.95 287.64 103.05 287.64 105.02C287.64 106.73 288.07 107.76 289.37 109.21C290.45 110.42 290.9 112.18 290.3 112.9C289.76 113.55 284.55 113.66 283.93 113.04ZM186.76 68.96C186.62 68.82 186.5 67.61 186.5 66.28C186.5 63.54 186.52 63.55 182.85 63.36C181.19 63.27 180.91 63.14 180.81 62.39C180.69 61.58 180.82 61.53 182.96 61.53C185.91 61.53 186.5 60.93 186.5 57.94C186.5 56.04 186.6 55.76 187.25 55.76C188.29 55.76 188.59 56.38 188.81 59.03L189 61.33L191.62 61.45C194.08 61.56 194.24 61.62 194.12 62.41C194.02 63.17 193.72 63.28 191.31 63.45L188.62 63.64L188.74 65.37C188.93 68.08 187.85 70.05 186.76 68.96Z" fill="#1e2749" fill-rule="evenodd"/>
</svg>
