<?xml version="1.0" encoding="UTF-8"?>
<svg xmlns="http://www.w3.org/2000/svg" viewBox="0 0 2430 1279" width="2430" height="1279" shape-rendering="geometricPrecision">
<path d="M601 1238.06L598.5 1237.41L598.23 1208.21L597.97 1179L601.86 1179C605.87 1179 607.52 1180.14 608.14 1183.34C608.46 1184.98 608.94 1184.84 612.44 1182.05C616.08 1179.16 616.88 1178.94 622.94 1179.21L629.5 1179.5L629.5 1184L629.5 1188.5L623.18 1189C617.3 1189.47 616.57 1189.81 612.93 1193.71C609.66 1197.22 608.99 1198.64 608.95 1202.21C608.92 1204.57 608.52 1212.96 608.06 1220.86C607.37 1232.9 606.93 1235.49 605.37 1236.96C604.09 1238.16 602.7 1238.51 601 1238.06ZM536 1237.21C534.08 1237.02 532.14 1236.51 531.71 1236.09C530.39 1234.8 530.76 1161.99 532.1 1160.38C532.98 1159.32 536.65 1159 548.01 1159C562.19 1159 562.98 1159.11 568.06 1161.76C572.02 1163.83 573.94 1165.64 575.68 1168.92C579.5 1176.16 578.36 1185.36 573.01 1190.49C571.35 1192.08 570.01 1193.85 570.03 1194.44C570.04 1195.02 571.87 1196.62 574.1 1198C579.38 1201.25 582.01 1205.68 582.71 1212.47C583.73 1222.36 579.16 1229.82 568.86 1235.07C565.43 1236.82 562.71 1237.19 552.13 1237.36C545.19 1237.47 537.92 1237.4 536 1237.21ZM1889.36 1230.31C1888.1 1230.06 1887.06 1228.98 1886.86 1227.69C1886.66 1226.49 1886.65 1213.24 1886.82 1198.25L1887.15 1171L1890.14 1171C1894.53 1171 1897 1172.67 1897 1175.65L1897 1178.23L1901.05 1174.57C1904.97 1171.03 1905.32 1170.92 1911.8 1171.21L1918.5 1171.5L1918.5 1176L1918.5 1180.5L1912.3 1181C1906.96 1181.43 1905.63 1181.97 1902.62 1184.88C1900.7 1186.74 1898.68 1189.44 1898.13 1190.88C1897.57 1192.32 1896.96 1200.92 1896.76 1210C1896.4 1226.33 1895.47 1231.17 1892.71 1230.86C1892.05 1230.79 1890.54 1230.54 1889.36 1230.31ZM1829 1229.2C1824.88 1229.04 1821.12 1228.52 1820.66 1228.06C1819.38 1226.78 1819.48 1153.12 1820.76 1151.84C1821.44 1151.16 1827.43 1150.92 1837.66 1151.16C1852.26 1151.5 1853.84 1151.72 1857.8 1153.98C1862.94 1156.9 1865.59 1160.89 1866.5 1167.07C1867.38 1173.06 1865.78 1178.71 1862.03 1182.81C1858.31 1186.88 1858.28 1187.57 1861.75 1189.38C1873 1195.23 1875.35 1211.07 1866.43 1220.95C1859.99 1228.07 1850.9 1230.07 1829 1229.2ZM562.1 1226.86C566.8 1225.29 569.83 1222.29 571.15 1217.91C572.08 1214.79 571.96 1213.59 570.38 1210.41C567.13 1203.88 564.36 1202.6 552.46 1202.16L542 1201.77L542 1214.22C542 1221.07 542.3 1226.97 542.67 1227.33C543.77 1228.44 558.46 1228.08 562.1 1226.86ZM1850.92 1219.02C1858.79 1216.77 1862.25 1209.61 1859.01 1202.29C1856.3 1196.16 1851.39 1194.05 1839.75 1194.02L1831 1194L1831 1207L1831 1220L1839.26 1220C1843.8 1220 1849.04 1219.56 1850.92 1219.02ZM559.4 1190.61C564.12 1188.63 566 1185.47 566 1179.5C566 1170.66 562.04 1168.02 548.75 1168.01L542 1168L542 1180L542 1192L549.03 1192C552.9 1192 557.57 1191.37 559.4 1190.61ZM1849.19 1182.37C1853.37 1180.26 1855 1177.14 1855 1171.28C1855 1162.96 1850.36 1160.02 1837.25 1160.01L1831 1160L1831 1171.92C1831 1180.51 1831.35 1183.97 1832.25 1184.34C1834.37 1185.2 1846.35 1183.8 1849.19 1182.37ZM558.45 1130.59C556.91 1129.46 556.39 1127.42 555.85 1120.34C555.48 1115.48 555.13 1065.56 555.09 1009.41L555 907.33L468.25 855.26C356.59 788.25 329.47 771.67 323.68 766.86L320.5 764.22L320 636.36L319.5 508.5L255.43 470C144.93 403.6 126.16 392.03 124.69 389.41C122.2 384.96 127.33 377.07 131.93 378.27C134.25 378.88 169.71 399.64 239 440.97C298.34 476.36 307.07 481.5 319.83 488.58L329.16 493.76L420.33 439.03C544.44 364.53 550.21 361.02 552.5 358.85C554.47 356.97 554.51 355.3 555.01 247.72C555.3 187.65 555.91 137.71 556.37 136.74C558.12 133.11 564.75 133.25 568.77 137L571 139.08L571.01 222.79C571.02 268.83 571.2 313.48 571.4 322C571.61 330.52 571.83 342.55 571.89 348.71L572 359.92L644.25 403.14C683.99 426.91 734.4 457.12 756.29 470.27C782.85 486.24 796.62 493.97 797.73 493.55C798.64 493.2 806.16 488.93 814.44 484.06C822.72 479.18 836.25 471.26 844.5 466.44C852.75 461.63 868.73 452.3 880 445.7C891.27 439.11 904.77 431.24 910 428.22C915.23 425.19 924.9 419.57 931.5 415.71C938.1 411.86 954.52 402.32 968 394.51C1005.71 372.66 1004.43 373.19 1009.42 377.12C1011.49 378.74 1012.04 379.95 1011.8 382.33C1011.34 387.07 1006.28 390.51 957.5 419.26C945.4 426.39 930.1 435.41 923.5 439.3C916.9 443.19 907.23 448.9 902 451.98C896.77 455.07 872.82 469.05 848.76 483.05L805.02 508.5L804.89 630.5C804.82 697.6 804.48 755.4 804.13 758.94C803.52 765.16 803.35 765.48 799 768.6C792.29 773.41 739.79 805.27 633.5 869.05C601.6 888.19 574.71 904.45 573.75 905.18C572.16 906.38 571.95 909.64 571.46 940C571.16 958.42 570.93 1007.85 570.96 1049.83L571 1126.15L568.08 1129.08C564.89 1132.26 561.47 1132.8 558.45 1130.59ZM1846.31 1120.59L1843.5 1118.17L1843 1007.84L1842.5 897.5L1800.5 872.28C1777.4 858.41 1750.62 842.38 1741 836.66C1721.13 824.84 1637.76 774.55 1622.27 765.05C1616.65 761.59 1611.48 758.07 1610.77 757.23C1609.76 756.01 1609.4 729.37 1609 627.64L1608.5 499.59L1558 469.37C1530.22 452.74 1506.15 438.26 1504.5 437.18C1502.85 436.1 1491.6 429.26 1479.5 421.98C1439.46 397.89 1414.19 381.94 1413.59 380.38C1412.37 377.2 1413.08 373.83 1415.45 371.45C1416.8 370.1 1418.53 369 1419.29 369C1420.63 369 1441.31 380.58 1463 393.47C1525.69 430.74 1548.77 444.51 1579.95 463.24C1610.92 481.85 1616.7 484.99 1618.45 484.13C1619.58 483.57 1670.22 453.26 1731 416.76L1841.5 350.41L1842.12 342.96C1842.46 338.86 1842.84 298.38 1842.98 253C1843.11 207.62 1843.5 160.9 1843.86 149.17C1844.45 129.41 1844.65 127.73 1846.5 126.35C1848.94 124.53 1854.44 125.19 1857.12 127.61C1858.94 129.25 1859 132.9 1859.01 234.4C1859.01 292.21 1859.3 341.86 1859.65 344.74L1860.28 349.98L1880.39 362.31C1908.75 379.7 2082.68 483.94 2084.49 484.64C2085.33 484.96 2089.2 483.25 2093.25 480.77C2097.24 478.33 2106.57 472.82 2114 468.52C2121.43 464.22 2130.65 458.81 2134.5 456.49C2138.35 454.17 2145.78 449.78 2151 446.73C2265.24 380.08 2290.05 366.04 2293.62 366.01C2299.56 365.98 2303.21 373.79 2299.15 377.85C2297.32 379.68 2277.21 391.91 2243 412C2233.38 417.65 2222.35 424.16 2218.5 426.47C2214.65 428.78 2207 433.3 2201.5 436.51C2196 439.72 2186.78 445.13 2181 448.53C2175.22 451.92 2153.32 464.71 2132.31 476.93L2094.12 499.17L2093.81 627.15L2093.5 755.13L2089.5 758.67C2087.3 760.62 2052.2 782.12 2011.5 806.45C1970.8 830.78 1921.3 860.5 1901.5 872.49C1881.7 884.48 1864.32 894.99 1862.87 895.84C1860.65 897.16 1860.15 898.32 1859.62 903.35C1859.28 906.62 1858.97 952.54 1858.93 1005.4C1858.89 1058.25 1858.51 1105.51 1858.08 1110.42C1857.42 1117.94 1856.94 1119.63 1855.04 1121.17C1852 1123.63 1849.66 1123.47 1846.31 1120.59ZM597.48 871.21C615.62 860.37 665.8 830.33 708.98 804.45L787.5 757.39L788.22 751.66C788.61 748.51 788.84 692.53 788.72 627.27L788.5 508.61L732.49 475.05C589.56 389.43 565.05 375 562.5 375C559.63 375 533.58 390.34 381.75 481.46L337 508.31L337 632.5C337 749.54 337.1 756.78 338.75 758.19C339.71 759.01 352.2 766.66 366.5 775.18C409.22 800.64 529.34 872.52 546 882.58C554.55 887.75 562.17 891.72 563 891.43C563.83 891.15 579.34 882.05 597.48 871.21ZM1868.4 872.59C1900.13 854.06 2063.48 755.7 2072.63 749.64C2076.48 747.08 2076.8 746.51 2077.42 741.04C2078.25 733.66 2077.97 501.54 2077.12 500.27C2076.78 499.76 2052.43 484.91 2023 467.26C1993.58 449.62 1943.62 419.62 1912 400.6C1878.81 380.63 1853.48 366.01 1852.08 366C1848.81 366 1835.62 373.17 1803.5 392.4C1788.65 401.3 1742.4 429 1700.72 453.96L1624.94 499.34L1625.04 621.37C1625.09 688.49 1625.36 744.56 1625.65 745.98C1625.93 747.4 1627.36 749.28 1628.83 750.16C1630.3 751.05 1634.42 753.55 1638 755.73C1648.6 762.18 1774.64 837.54 1798.5 851.68C1839.93 876.25 1849.78 881.89 1851.4 881.96C1851.9 881.98 1859.55 877.77 1868.4 872.59ZM549.49 867.87C537.24 861.34 500.81 839.86 441.5 804.2C386.53 771.15 383.32 769.2 366 758.23L350.5 748.42L350.2 744.33C349.84 739.47 351.79 737 356 737C357.65 737 363.41 739.58 369.68 743.13C382.62 750.46 416.42 770.19 434.5 780.97C497.95 818.8 517.21 830.4 548 849.31C557.04 854.87 560.82 857.87 561.51 860.04C562.59 863.43 557.83 870 554.3 870C553.84 870 551.68 869.04 549.49 867.87ZM1836 857.87C1820.81 849.28 1776.79 823.2 1726.5 793C1695.7 774.51 1664.92 756.03 1658.11 751.94C1639.15 740.56 1635.4 736.16 1639.56 730.22C1642.48 726.05 1646.67 727.18 1663.31 736.64C1697.95 756.32 1843.84 844.02 1848.25 847.81C1851.14 850.29 1850.5 855.4 1846.92 858.41C1845.23 859.83 1843.32 861 1842.67 860.99C1842.03 860.99 1839.03 859.58 1836 857.87ZM765.46 745.97C764.38 745.57 762.69 744.34 761.7 743.24C759.99 741.33 759.92 735.79 760.21 627.37C760.37 564.74 760.88 512.75 761.33 511.84C763.53 507.38 773.14 509.08 774.94 514.26C776.12 517.64 776.23 686.23 775.08 722.66C774.55 739.17 774.22 742.1 772.67 743.81C770.48 746.23 768.08 746.95 765.46 745.97ZM2051.03 734.37L2047.91 731.74L2048.2 617.78L2048.5 503.82L2050.86 501.91C2055.07 498.5 2061.25 499.9 2063.07 504.68C2063.67 506.27 2064.08 549.46 2064.14 619.18L2064.25 731.13L2061.44 734.06C2057.96 737.69 2055.08 737.78 2051.03 734.37ZM1153.27 665.91C1145.62 662.12 1142.25 652.88 1145.45 644.5C1148.19 637.33 1153.4 634.66 1167.95 633.01C1177.88 631.87 1179.39 630.9 1178.51 626.19C1177.67 621.73 1176.16 619.4 1173.26 618.07C1169.48 616.35 1160.54 616.82 1154.55 619.07C1148.27 621.42 1147 621.07 1147 617.01C1147 611.1 1156.02 607.45 1168.85 608.2C1177.64 608.71 1183.13 610.95 1186.44 615.39C1188.39 617.99 1188.5 619.48 1188.5 642.32L1188.5 666.5L1185.3 666.81C1182.93 667.04 1181.76 666.58 1180.81 665.06C1179.15 662.41 1178.11 662.47 1172.4 665.5C1166.41 668.69 1159.2 668.84 1153.27 665.91ZM1285.32 667.3C1281.86 666.63 1274.38 659.41 1272.64 655.06C1270.35 649.33 1269.52 636.57 1270.92 628.51C1272.49 619.52 1275.14 614.6 1280.2 611.25C1283.88 608.82 1285.3 608.5 1292.43 608.5C1299.06 608.5 1301.2 608.91 1304.4 610.8C1306.54 612.07 1308.66 612.74 1309.12 612.28C1309.57 611.83 1310.07 604.94 1310.22 596.98L1310.5 582.5L1315.25 582.2L1320 581.89L1320.11 605.2C1320.29 642.37 1320.04 665.12 1319.44 666.1C1319.13 666.59 1317.52 667 1315.85 667C1313.41 667 1312.61 666.42 1311.69 664C1311.07 662.35 1310.27 661 1309.92 661C1309.57 661 1306.26 662.58 1302.57 664.5C1296.03 667.91 1291.89 668.58 1285.32 667.3ZM1207.67 666.33C1206.54 665.21 1206.89 612.07 1208.04 609.93C1210.08 606.11 1217 608.53 1217 613.07C1217 615.59 1217.15 615.56 1222.51 611.78C1226.35 609.07 1228.14 608.51 1233.79 608.23C1241.68 607.84 1245.8 609.55 1250.2 615.06C1254 619.82 1254.99 626.49 1254.99 647.55C1255 666.22 1254.77 667 1249.34 667C1244.71 667 1244.01 664.98 1243.93 651.32C1243.89 644.82 1243.51 635.48 1243.08 630.58C1242.38 622.61 1242.01 621.4 1239.59 619.33C1234.81 615.21 1227.29 616.83 1221.15 623.29L1217.79 626.81L1217.41 645.97C1217.21 656.51 1216.78 665.55 1216.46 666.07C1215.8 667.13 1208.68 667.35 1207.67 666.33ZM1170.8 657.6C1176 654.89 1178.37 651.36 1178.44 646.24L1178.5 641.5L1172 641.18C1162.64 640.72 1158.2 642.28 1156.37 646.65C1154.68 650.69 1155.89 656.25 1158.83 657.96C1161.29 659.4 1167.71 659.21 1170.8 657.6ZM1298.16 657.42C1299.85 656.54 1303.2 654.01 1305.61 651.79L1310 647.75L1310 637.6C1310 625.99 1309.5 624.84 1302.35 620.11C1294.76 615.08 1287.42 616.37 1283.76 623.36C1281.95 626.8 1281.59 629.18 1281.59 637.5C1281.59 645.88 1281.95 648.18 1283.8 651.72C1286 655.93 1289.88 658.88 1293.3 658.96C1294.29 658.98 1296.48 658.29 1298.16 657.42ZM349.45 525.35C346.39 522.05 346.31 517.99 349.25 515.27C351.62 513.08 388.48 490.99 464 446.49C475.67 439.62 481.54 436.19 520.28 413.6C560.87 389.94 562.56 389.17 567.38 392.33C571.81 395.23 571.2 400.75 566 404.76C558.98 410.17 463.39 466.53 387.5 509.98C351.9 530.36 353.5 529.72 349.45 525.35ZM1638.45 516.55C1635.49 513.58 1635.13 508.06 1637.75 505.8C1639.75 504.08 1710.95 461.54 1737 446.5C1740.03 444.75 1746.78 440.83 1752 437.79C1798.86 410.52 1838.83 387.64 1845.71 384.14C1852.64 380.62 1856.62 381.75 1858.45 387.75C1859.64 391.65 1858.01 394.03 1851.16 398.44C1843.87 403.12 1768.07 447.67 1726 472C1711.42 480.43 1691.62 491.9 1682 497.5C1653.68 513.97 1644.48 519 1642.64 519C1641.69 519 1639.8 517.9 1638.45 516.55ZM30.75 370.35C29.24 370.09 27.56 369.05 27.03 368.05C25.59 365.36 25.51 295.79 26.94 293.11C27.98 291.16 28.91 291 38.85 291C62.01 291 70.58 295.24 72.57 307.69C73.42 313.05 71.52 319.33 67.75 323.63L64.58 327.24L66.95 329.16C68.25 330.22 69.84 331.4 70.47 331.79C71.09 332.18 72.86 334.17 74.4 336.21C78.15 341.22 79.06 349.96 76.41 355.55C73.51 361.65 67.83 366.68 61.81 368.47C56.52 370.03 36 371.28 30.75 370.35ZM96 370.11L93.5 369.41L93.23 341.15L92.97 312.89L97.73 313.19C101.76 313.45 102.55 313.84 102.81 315.69C103.12 317.83 103.2 317.82 107.39 314.86C115.39 309.23 125 310.3 125 316.82C125 320.86 123.27 322 117.17 322C112.25 322 111.42 322.33 108.41 325.53C103.76 330.45 103.01 334.21 103.01 352.55C103 371.31 102.73 371.98 96 370.11ZM1025.5 370.19C1022.71 369.53 1022.45 369.07 1021.73 363.49C1021.3 360.2 1021.08 342.97 1021.23 325.21C1021.46 297.84 1021.73 292.77 1023 291.91C1023.91 291.3 1030.08 291.04 1038.59 291.25C1051.64 291.58 1053.11 291.82 1058.45 294.43C1063.1 296.71 1064.57 298.04 1066.08 301.37C1069.4 308.67 1068.46 317.96 1063.9 322.95C1062.3 324.7 1061 326.7 1061 327.39C1061 328.09 1062.67 329.75 1064.72 331.08C1079.01 340.38 1075.42 361.58 1058.47 367.92C1052.61 370.12 1031.35 371.58 1025.5 370.19ZM1091.75 370.28L1089 369.87L1089 341.43L1089 313L1093.02 313C1096.31 313 1097.24 313.44 1098.15 315.44L1099.27 317.88L1102.97 314.9C1109.15 309.94 1118.01 309.72 1120.18 314.49C1121.06 316.42 1120.94 317.44 1119.62 319.46C1118.21 321.61 1117.2 322 1113.05 322C1109.23 322 1107.47 322.57 1105.04 324.62C1099.45 329.32 1099 331.22 1099 350.02C1099 366.74 1098.3 371.17 1095.71 370.85C1095.05 370.77 1093.26 370.51 1091.75 370.28ZM1317.8 363.32C1316.86 363.07 1315.79 361.9 1315.41 360.71C1314.45 357.68 1314.37 289.99 1315.33 287.28C1316.45 284.11 1321.31 283.49 1336.08 284.68C1354.21 286.13 1359.84 289.8 1361.53 301.29C1362.37 306.98 1360.29 313.44 1356.47 317.02C1353.28 320.02 1353.35 321.61 1356.75 323.38C1366.77 328.59 1370.06 342.26 1363.64 351.96C1359.95 357.54 1353.32 361.56 1345.62 362.91C1339.55 363.96 1321.28 364.24 1317.8 363.32ZM1383.25 363.36C1382.29 362.96 1382 356.2 1382 334.42L1382 306L1385.8 306C1389.98 306 1392 307.4 1392 310.28C1392 311.86 1392.48 311.67 1395.05 309.1C1399.9 304.25 1408.66 302.81 1412.74 306.2C1414.34 307.53 1414.37 312.23 1412.8 313.8C1412.14 314.46 1409.64 315 1407.25 315C1401.56 315 1397.74 317.07 1394.85 321.73C1392.66 325.25 1392.47 326.77 1392 344.5L1391.5 363.5L1388 363.69C1386.08 363.8 1383.94 363.65 1383.25 363.36ZM2312.5 362.67C2310.56 361.21 2310.5 359.99 2310.5 323.66C2310.5 303.04 2310.88 285.79 2311.34 285.33C2312.63 284.07 2338.43 284.58 2343.41 285.97C2349.37 287.64 2354.69 292.23 2355.96 296.79C2358.34 305.37 2356.44 313.94 2351.25 318.02C2348.38 320.28 2348.97 321.58 2354.4 324.94C2356.15 326.02 2358.53 328.61 2359.7 330.7C2364.85 339.89 2363.54 347.85 2355.61 355.58C2349.06 361.96 2345.49 363 2328 363.67C2316.94 364.09 2314.14 363.91 2312.5 362.67ZM2378.34 362.8C2377.88 362.09 2377.6 349.12 2377.73 334L2377.96 306.5L2381.97 306.19C2385.45 305.93 2386.15 306.23 2387.14 308.41L2388.29 310.93L2391.19 308.49C2395.28 305.05 2401.25 303.6 2405.52 305.01C2409.39 306.28 2410.49 308.58 2409.05 312.37C2408.14 314.77 2407.57 315 2402.6 315C2398.18 315 2396.57 315.5 2394.04 317.62C2388.4 322.36 2387.79 324.7 2387.87 341.39C2387.91 349.7 2387.6 358.07 2387.18 360C2386.51 363.13 2386.05 363.53 2382.81 363.8C2380.63 363.99 2378.85 363.59 2378.34 362.8ZM56.7 359.85C61.65 358.35 66 352.77 66 347.92C66 338.19 59.28 334.09 43.25 334.02L37 334L37 347.42C37 357.22 37.34 360.97 38.25 361.33C40.03 362.04 52.9 361 56.7 359.85ZM1053.72 358.95C1061.22 355.73 1064.04 347.86 1060.04 341.3C1057.08 336.44 1053.03 334.87 1041.85 334.25L1032 333.71L1032 346.65C1032 355.52 1032.39 359.99 1033.22 360.82C1034.92 362.52 1048.26 361.3 1053.72 358.95ZM1347.13 352.4C1354.64 348.61 1357.11 340.43 1352.71 333.9C1349.91 329.73 1345.69 328.22 1334.42 327.35L1326 326.7L1326 340.19C1326 347.6 1326.3 353.96 1326.66 354.33C1327.73 355.4 1344.27 353.84 1347.13 352.4ZM2342.94 352.15C2347.86 349.78 2350.5 345.72 2350.5 340.5C2350.5 331.62 2344.75 328.03 2330 327.69L2321.5 327.5L2321.42 336.5C2321.3 349.43 2321.9 353.81 2323.86 354.35C2327.02 355.22 2339.53 353.78 2342.94 352.15ZM46.47 324.95C55 323.72 57.63 322.09 60.1 316.51C61.77 312.74 61.85 311.7 60.76 308.4C58.96 302.99 54.66 300.77 44.86 300.2L37 299.74L37 312.2C37 319.06 37.3 324.97 37.67 325.33C38.49 326.15 38.04 326.17 46.47 324.95ZM1048.99 323.14C1057.2 319.27 1059.33 309.37 1053.14 303.83C1050 301.03 1042.91 299.51 1036 300.17L1032.5 300.5L1032.22 311C1031.82 326.31 1031.71 326.09 1039.26 325.37C1042.69 325.05 1047.07 324.04 1048.99 323.14ZM1343.5 316.16C1345.17 315.22 1347.52 312.41 1348.81 309.84C1350.93 305.58 1351 304.94 1349.69 301.85C1347.44 296.53 1344.82 294.88 1336.72 293.71C1325.68 292.12 1326 291.74 1326 306.6L1326 319.26L1333.25 318.56C1337.24 318.17 1341.85 317.09 1343.5 316.16ZM2333.08 317.98C2342.82 316.14 2348.24 307.93 2344.67 300.43C2342.41 295.7 2338.25 293.89 2329.16 293.68L2321.5 293.5L2321.28 304C2321.16 309.77 2321.28 315.51 2321.55 316.75C2322.11 319.35 2324.53 319.61 2333.08 317.98ZM686.61 118.44C685.75 116.17 688.25 111.91 694.65 104.77C703.66 94.71 707.29 88.67 707.4 83.52C707.53 77.52 705.42 75.47 699.21 75.58C696.62 75.62 693.06 76.41 691.31 77.33C687.67 79.23 686.46 78.3 687.44 74.38C688.3 70.95 693.4 69 701.48 69C707.54 69 708.31 69.25 711.76 72.43C715.34 75.7 715.5 76.12 715.45 82.18C715.39 89.96 714.2 92.31 704.48 103.9C700.37 108.8 697 113.23 697 113.75C697 114.27 701.56 114.98 707.13 115.32C712.71 115.65 717.49 116.15 717.76 116.42C718.03 116.69 717.98 117.61 717.65 118.46C716.76 120.78 687.5 120.76 686.61 118.44ZM1975.41 110.62C1974.57 108.45 1977.14 104.25 1984.02 96.5C1994.64 84.55 1997.91 77.9 1995.93 72.24C1994.28 67.5 1989.82 66.36 1982.52 68.83C1977.7 70.45 1976.75 70.53 1976.29 69.31C1975.23 66.56 1977.78 63.16 1981.7 62.07C1991.49 59.35 2000.24 61.7 2003.45 67.91C2007.27 75.29 2004.21 83.67 1992.99 96.5C1989.15 100.9 1986 105.01 1986 105.64C1986 106.37 1989.73 107.1 1996.25 107.64C2004.31 108.32 2006.5 108.82 2006.5 110C2006.5 112.19 1976.24 112.79 1975.41 110.62ZM534.71 104.38C533.61 103.27 533.85 31.51 534.98 28.57C535.86 26.24 536.46 26 541.48 26C545.44 26 547.5 26.5 548.78 27.78C551.02 30.02 562.03 48.61 573.58 69.67C578.46 78.56 582.8 85.62 583.23 85.36C583.65 85.1 584.06 77.15 584.14 67.69C584.21 58.24 584.55 45.1 584.89 38.5L585.5 26.5L590 26.5L594.5 26.5L594.3 63.86C594.13 97.53 593.94 101.41 592.4 103.11C590.42 105.3 584.25 105.67 581.78 103.75C579.21 101.75 572.93 91.36 558.83 65.85C551.59 52.73 545.3 42 544.85 42C544.4 42 543.91 56.06 543.76 73.25L543.5 104.5L539.46 104.8C537.24 104.96 535.11 104.77 534.71 104.38ZM615.71 104.38C615.32 103.99 615 86.19 615 64.83L615 26L620 26C622.75 26 625.07 26.11 625.16 26.25C625.25 26.39 625.59 33.7 625.91 42.5L626.5 58.5L642.92 58.78C651.96 58.93 659.71 58.69 660.15 58.25C660.59 57.81 661.26 50.37 661.63 41.72L662.31 26L666.57 26L670.82 26L671.16 32.25C671.35 35.69 671.5 53.35 671.5 71.5L671.5 104.5L666.75 104.8L662 105.11L661.82 93.8C661.72 87.59 661.76 79.9 661.92 76.72C662.34 67.93 662.51 68 642.88 68L626 68L625.93 81.75C625.89 89.31 625.55 97.53 625.18 100C624.51 104.41 624.42 104.51 620.46 104.8C618.24 104.96 616.11 104.77 615.71 104.38ZM1822.71 96.38C1822.32 95.99 1822 78.7 1822 57.96C1822 25.6 1822.21 20.07 1823.51 19C1825.59 17.26 1834.51 18.24 1836.97 20.47C1839.22 22.51 1846.67 35.16 1860.09 59.73C1865.26 69.21 1869.95 76.83 1870.5 76.65C1871.11 76.46 1871.74 65.77 1872.12 48.92C1872.46 33.84 1872.79 20.71 1872.87 19.75C1872.97 18.4 1873.91 18 1876.94 18C1879.11 18 1881.21 18.53 1881.61 19.19C1882.02 19.84 1882.27 36.56 1882.18 56.34C1882 98.04 1882.14 97.31 1874.19 96.8C1869.55 96.5 1869.45 96.43 1864.5 88.88C1861.75 84.69 1853.65 70.63 1846.5 57.65C1839.35 44.66 1833.17 34.02 1832.76 34.01C1832.36 34.01 1831.91 48.06 1831.76 65.25L1831.5 96.5L1827.46 96.8C1825.24 96.96 1823.11 96.77 1822.71 96.38ZM1902.8 71.25C1902.53 57.09 1902.52 39.31 1902.79 31.75L1903.26 18L1908.01 18L1912.76 18L1913.49 34.5L1914.21 51L1931.05 51C1940.31 51 1948.1 50.65 1948.37 50.22C1948.63 49.79 1949.17 42.36 1949.57 33.72L1950.29 18L1954.52 18L1958.75 18L1959.22 37.75C1959.48 48.61 1959.65 66.28 1959.6 77L1959.5 96.5L1954.27 96.8L1949.05 97.1L1948.77 79.3L1948.5 61.5L1932 60.92C1922.92 60.6 1915.21 60.6 1914.85 60.92C1914.49 61.24 1913.89 69.14 1913.52 78.48C1913.14 87.82 1912.62 95.81 1912.36 96.23C1912.1 96.65 1909.95 97 1907.58 97L1903.28 97L1902.8 71.25Z" fill="#1e2749" fill-rule="evenodd"/>
</svg>
