<?xml version="1.0" encoding="UTF-8"?>
<svg xmlns="http://www.w3.org/2000/svg" viewBox="0 0 2430 1070" width="2430" height="1070" shape-rendering="geometricPrecision">
<path d="M1400.33 1024.08C1393.09 1023.76 1386.84 1023.18 1386.46 1022.79C1384.66 1020.99 1387.29 1019.16 1393.17 1018.13C1404.76 1016.09 1407.8 1011.69 1409.08 995.16C1410.19 980.7 1410.16 939.25 1408.99 900.58C1407.89 863.93 1408.36 865.56 1398.19 862.55C1382.75 857.98 1381.5 856.5 1392.2 855.5C1402.01 854.59 1456.16 855.28 1457.8 856.34C1460.11 857.83 1457.3 859.68 1450.76 860.97C1443.51 862.39 1437.52 865.2 1436.59 867.62C1435.85 869.56 1434.04 908.57 1434.02 923.26L1434 933.02L1472.75 932.76L1511.5 932.5L1511.22 903.5C1511.07 887.55 1510.49 872.81 1509.93 870.75C1508.49 865.39 1505.77 863.37 1497.47 861.53C1490.53 859.98 1486.85 857.82 1488.44 856.23C1489.41 855.26 1556.99 855.29 1559.36 856.26C1562.34 857.48 1559.59 859.79 1554.18 860.6C1547.82 861.55 1544.01 863.3 1540.7 866.78L1537.9 869.71L1538.2 939.61C1538.44 995.64 1538.76 1009.96 1539.84 1011.84C1541.55 1014.85 1547.96 1017.64 1555.18 1018.52C1561.16 1019.25 1563 1020.92 1560.29 1023.18C1559.06 1024.2 1551.31 1024.57 1526.01 1024.79C1492.27 1025.09 1488 1024.68 1488 1021.2C1488 1019.68 1489.27 1019.16 1495.17 1018.25C1503.38 1016.97 1506.72 1014.94 1509.37 1009.61C1511.06 1006.2 1511.25 1002.96 1511.37 975.17L1511.5 944.5L1472.82 944.24L1434.15 943.98L1434.07 960.74C1433.97 984.94 1435.47 1007.08 1437.5 1011C1439.3 1014.48 1444.74 1017.36 1451.66 1018.47C1457.19 1019.37 1459.98 1021.38 1458.2 1023.18C1456.76 1024.65 1424.48 1025.15 1400.33 1024.08ZM2346.33 940.59C2338.81 937.2 2339.43 928 2347.18 928C2348.86 928 2354.54 929.62 2359.82 931.6C2368.54 934.86 2369.77 935.08 2373.27 934.04C2380.61 931.84 2389 921.61 2389 914.87C2389 913.49 2388.29 909.98 2387.43 907.08C2385.04 899.03 2379.3 893.98 2368.54 890.49C2363.18 888.74 2360 887.18 2360 886.3C2360 885.52 2362.44 883.81 2365.42 882.49C2378.93 876.52 2385.91 862.09 2379.73 852.92C2376.19 847.67 2371.5 845 2365.82 845C2359.61 845 2355.68 846.69 2349.85 851.87C2347.29 854.14 2344.7 856 2344.1 856C2339.67 856 2349.19 839.94 2355.81 836.23C2363.76 831.78 2377.11 831.39 2384.75 835.38C2387.81 836.98 2391.82 841.06 2394.51 845.29C2398.41 851.44 2396.08 861.93 2388.58 871.94C2387.16 873.84 2386 876.01 2386 876.77C2386 877.53 2388.44 880.38 2391.43 883.11C2401.81 892.6 2404.35 902.79 2399.8 916.65C2396.86 925.6 2388.77 934.46 2379.77 938.57C2374.16 941.14 2372.24 941.47 2361.5 941.73C2352.71 941.95 2348.65 941.64 2346.33 940.59ZM2059.5 906.41C2058.4 906.14 2054.35 905.19 2050.5 904.3C2027.44 898.95 2009.92 883.12 1998.71 857.5C1993.14 844.78 1992.5 840.94 1992.51 820.5C1992.53 799.62 1993.33 794.92 1999.11 781.74C2008.67 759.96 2019.39 748.27 2038.53 738.75C2052.31 731.91 2060.35 730.03 2076.12 730.01C2088.8 730 2100.58 732.36 2112.92 737.38C2122.55 741.3 2124.46 741 2128.19 735C2131.48 729.71 2135.12 728.28 2136.46 731.75C2137.71 734.98 2138.99 749.35 2139.64 767.51C2140.19 782.9 2140.07 785.7 2138.78 786.77C2136.74 788.46 2135.94 787.4 2131.66 777.23C2128.1 768.79 2121.37 758.51 2116.35 753.85C2111.62 749.45 2103.87 745.05 2097 742.84C2087.02 739.64 2070.97 739.86 2061.06 743.33C2044.18 749.24 2033.53 761.1 2027.22 781C2024.01 791.14 2022.97 798.31 2022.36 814.5C2020.8 855.86 2033.51 880.41 2062 891.03C2067.84 893.21 2070.08 893.46 2084 893.48C2105.22 893.51 2107.06 892.61 2128.65 871.79C2138.27 862.5 2141.88 860.38 2143.53 863.05C2144.67 864.89 2135.81 877.22 2127.02 886.04C2112.09 901.02 2099.64 905.98 2075.5 906.55C2067.8 906.74 2060.6 906.67 2059.5 906.41ZM2193.8 903C2171.94 902.63 2163.77 902.17 2162.85 901.25C2160.94 899.34 2162.75 898.23 2170.4 896.63C2179.31 894.76 2182.33 891.87 2184.58 883.03C2186.05 877.27 2186.19 869.58 2185.85 812.83C2185.4 737.86 2186.79 745.29 2172.25 740.5C2154.69 734.72 2157.53 734.01 2198 734.11C2216.43 734.16 2232.57 734.5 2233.88 734.87C2236 735.46 2236.09 735.68 2234.69 736.84C2233.82 737.56 2230.32 738.8 2226.91 739.6C2217.21 741.86 2214.2 743.65 2212.99 747.86C2212.41 749.86 2211.66 765.11 2211.31 781.75L2210.68 812L2248.81 812C2293.28 812 2289.66 813.08 2288.63 800.1C2288.3 795.92 2287.95 784.72 2287.84 775.21C2287.74 765.71 2287.31 755.36 2286.88 752.21C2285.88 744.82 2282.75 741.8 2274.33 740.15C2268.01 738.9 2263.94 736.73 2265.33 735.33C2266.38 734.29 2334.56 734.22 2335.6 735.27C2336.94 736.6 2334.58 737.97 2327.6 739.9C2322.91 741.2 2319.74 742.82 2317.3 745.14L2313.78 748.5L2314.26 817.5C2314.62 867.48 2315.08 887.19 2315.93 889.02C2317.83 893.07 2323.46 896.29 2329.54 896.8C2335.92 897.32 2338.22 899.21 2335.63 901.8C2334.1 903.33 2330.63 903.5 2300.5 903.5C2270.37 903.5 2266.9 903.33 2265.37 901.8C2262.68 899.11 2265.08 897.31 2272.04 896.8C2278.8 896.31 2282.36 894.22 2285.5 888.9C2287.36 885.73 2287.52 883.37 2287.83 854.25L2288.15 823L2249.45 823L2210.75 823L2211.19 853.25C2211.59 881.05 2211.79 883.87 2213.68 888.07C2216 893.25 2219.41 895.35 2228.44 897.16C2237.92 899.06 2237.95 902.41 2228.5 903.12C2225.75 903.33 2210.13 903.27 2193.8 903ZM1464.41 789.9C1463.04 788.39 1462.33 785.56 1461.84 779.65C1461.46 775.17 1461.12 718.06 1461.08 652.75C1461.03 585.8 1460.62 534 1460.13 534C1459.65 534 1358.28 584.32 1234.88 645.83C1111.47 707.33 1008.13 758.72 1005.23 760.01L999.95 762.36L971.73 748.45C956.2 740.8 849.08 687.39 733.68 629.77C618.28 572.15 523.05 525 522.05 525C521.06 525 438.4 565.91 338.37 615.91C107.98 731.07 49.67 759.79 42.69 761.54C39.46 762.35 35.77 757.89 36.2 753.67C36.45 751.2 37.6 750.12 43.5 746.77C61.67 736.44 121.27 706.31 332.31 600.74C468.92 532.41 512.33 510.27 512.96 508.61C513.41 507.42 513.81 450.25 513.84 381.57C513.86 312.89 514.2 253.14 514.58 248.79C515.39 239.5 517.3 237.27 523.48 238.43C527.55 239.19 528.5 240.66 529.38 247.56C529.73 250.35 530.04 310.44 530.06 381.1L530.11 509.56L765.3 627.16L1000.5 744.75L1230.29 629.85C1356.67 566.66 1460.25 514.41 1460.46 513.73C1460.67 513.05 1461.14 454 1461.5 382.5C1461.86 311 1462.23 250.06 1462.33 247.07L1462.5 241.65L1454.45 238.51C1430.02 228.96 1410.54 206.86 1403.88 181.14C1401.36 171.36 1400.36 149.67 1401.87 137.43C1405.27 109.97 1421.8 86.65 1446.5 74.45C1458.79 68.39 1465.23 66.84 1480.51 66.27C1498.33 65.6 1507.33 67.33 1520.54 73.96C1540.44 83.95 1554.23 100.33 1563.11 124.5C1566.42 133.49 1566.42 133.51 1566.45 152.5C1566.48 173.25 1565.67 177.63 1559.08 192.31C1549.36 213.99 1529.64 232.31 1508.7 239.14C1501.47 241.49 1487.36 243.99 1481.24 244L1476.97 244L1477.09 317.75C1477.23 407.65 1478.41 503.96 1479.39 506C1479.78 506.82 1497.97 516.27 1519.8 526.98C1571.29 552.25 1894.14 713.72 1921.5 727.89C1961.66 748.67 1964.46 750.35 1964.81 753.87C1965.22 757.96 1961.06 762.44 1957.73 761.47C1950.38 759.33 1912.48 740.68 1681.57 625.58C1571.61 570.77 1480.93 526.06 1480.07 526.23C1478.66 526.5 1478.45 539.53 1478 656.97L1477.5 787.42L1474.1 789.71C1469.88 792.56 1466.87 792.62 1464.41 789.9ZM804.75 249.36C802.87 249.02 802 248.26 802 246.93C802 245.81 807.74 239.02 815.68 230.75C837.78 207.73 846.19 195.96 849.48 183.5C853.47 168.35 844.35 155 830.01 155C823.55 155 818.15 157.71 813.82 163.12C808.34 169.97 806.04 172.14 804.96 171.48C801.93 169.6 809.65 152.09 815.71 147.08C820.3 143.29 824.93 141.93 833.8 141.78C844.59 141.59 850.62 143.53 855.99 148.9C862.6 155.52 865.48 161.94 865.49 170.09C865.5 175.95 864.97 177.75 860.81 186.13C855.47 196.89 848.9 205.58 833.67 222C827.81 228.32 823.01 234.06 823.01 234.75C823 235.7 827.08 236 840.07 236C857.76 236 859.03 235.76 864.33 231.35C867.37 228.82 871 228.22 871 230.25C871 232.67 865.87 246.86 864.62 247.9C863.3 248.99 809.95 250.29 804.75 249.36ZM1613.48 238.95C1599.72 238.65 1587.91 238.06 1587.23 237.64C1584.76 236.12 1585.99 234.09 1589.75 233.5C1600.33 231.85 1604.63 229.51 1607.62 223.75C1610.3 218.61 1611.01 201.14 1610.53 152.5C1609.97 96.16 1609.4 83.54 1607.29 81.44C1605.04 79.18 1600.83 77.23 1595.4 75.93C1588.96 74.38 1585.22 72.11 1587.12 70.91C1588.81 69.83 1655.72 69.84 1658.46 70.91C1660.33 71.64 1660.31 71.75 1657.96 73.19C1656.61 74.03 1652.94 75.25 1649.81 75.91C1646.68 76.57 1642.63 78.12 1640.81 79.35C1637.82 81.36 1637.43 82.19 1636.78 88.04C1636.38 91.59 1635.93 106.42 1635.78 121L1635.5 147.5L1672.88 147.76C1700.63 147.96 1710.63 147.72 1711.7 146.84C1712.9 145.83 1713.04 141.37 1712.54 118.57C1711.93 90.23 1711.58 86.18 1709.4 81.87C1707.98 79.05 1703.05 76.66 1696.34 75.55C1691.69 74.77 1688.07 72.6 1689.33 71.33C1690.31 70.35 1753.94 69.61 1758.89 70.52C1761.9 71.07 1762.12 71.31 1760.79 72.64C1759.97 73.46 1756.39 74.79 1752.83 75.61C1748.63 76.56 1745.05 78.16 1742.64 80.15L1738.92 83.21L1739.21 153.53C1739.5 223.07 1739.52 223.89 1741.59 226.68C1744.34 230.4 1748.03 232.1 1755.13 232.94C1761.78 233.72 1762.87 234.4 1761.36 236.8C1760.54 238.11 1758.27 238.63 1751.4 239.07C1740.34 239.77 1693.51 239.3 1690.84 238.45C1689.54 238.04 1688.99 237.11 1689.19 235.66C1689.46 233.8 1690.33 233.42 1695.5 232.92C1702.16 232.28 1704.49 231.3 1707.61 227.84C1711.55 223.47 1712.07 219.51 1712.69 188.75L1713.3 159L1674.1 159L1634.9 159L1635.05 179.75C1635.24 205.19 1636.31 220.78 1638.12 224.56C1639.87 228.19 1645.16 231.78 1649.86 232.53C1655.68 233.46 1657.4 233.92 1659 234.95C1660.33 235.82 1660.33 236.09 1659 237.38C1657.05 239.27 1645.83 239.66 1613.48 238.95ZM1491.4 231.55C1497.46 230.87 1509.08 225.36 1514.76 220.48C1521.39 214.79 1527.64 205.18 1531.75 194.38L1535.5 184.5L1535.47 157C1535.44 132.19 1535.23 128.66 1533.27 120.91C1526.95 95.77 1513.91 82.05 1491.91 77.39C1482.64 75.43 1474.46 76.13 1464.78 79.72C1450.94 84.85 1439.85 99.23 1435.03 118.27C1430.26 137.15 1430.26 170.88 1435.02 188C1441.85 212.54 1457.85 229.79 1475.79 231.97C1478.93 232.35 1482.62 232.53 1484 232.38C1485.38 232.22 1488.7 231.85 1491.4 231.55ZM694.5 214.34C667.25 208.53 644.28 187.43 634.94 159.65C631.09 148.18 629.61 132.11 630.93 115.97C632.09 101.71 633.59 95.96 638.98 84.91C643.82 75.01 645.84 72.14 653.95 63.64C661.34 55.89 668.49 50.73 678 46.3C691.01 40.23 694.88 39.5 714 39.53C725.29 39.54 733.1 40.01 736 40.85C743.37 42.97 756.04 49.57 763.23 55.03C776.82 65.33 789.35 84.83 794.05 102.97C796 110.47 796.16 113.14 795.74 129.9C795.28 147.69 795.13 148.83 792.26 156C785.35 173.25 781.23 180.21 771.91 190.41C761.68 201.6 744.26 211.55 729.79 214.45C720.23 216.37 703.77 216.32 694.5 214.34ZM577.88 209.26C569.41 200.5 549.46 176.61 495.61 110.75C483.59 96.04 473.34 84 472.84 84C471.83 84 471.84 154.71 472.87 181.68C473.62 201.43 474.2 202.8 482.82 204.95C493.35 207.58 495 208.12 495 208.92C495 211.7 491.55 212.03 464.38 211.77C436.65 211.5 436.5 211.49 436.19 209.34C435.85 206.95 436.71 206.55 444.18 205.53C449.75 204.78 453.36 202.18 455.98 197.04C458.51 192.08 458.89 183.48 459.47 118.51L459.94 66.51L453.78 60.79C446.03 53.6 437.6 49 432.18 49C428.07 49 424.57 46.78 425.29 44.63C425.74 43.27 461.77 42.54 469.77 43.73L474.94 44.5L489.72 62.64C497.85 72.62 519.77 99.52 538.43 122.42C557.31 145.58 572.74 163.66 573.21 163.19C573.69 162.71 574.17 139.87 574.29 112.41C574.51 59.01 574.4 57.61 569.54 53.04C568.22 51.8 563.84 49.9 559.82 48.83C551.68 46.65 549.71 45.43 552.01 43.97C553.75 42.87 606.58 42.78 609.35 43.87C610.99 44.51 611.03 44.73 609.65 45.87C608.81 46.58 605.28 47.81 601.81 48.62C598.34 49.43 593.81 51.25 591.75 52.68L588 55.27L587.98 86.89C587.96 134.99 586.87 207.08 586.12 210.93C585.74 212.81 584.99 214.5 584.45 214.68C583.9 214.87 580.95 212.42 577.88 209.26ZM726.12 203.39C738.02 199.88 751.67 188.24 757.21 176.87C763.61 163.69 765.19 156.71 765.75 138.99C766.63 111.53 763.82 92.14 756.84 77.27C752.89 68.88 742.91 58.62 735 54.82C723.39 49.25 706.36 48.02 695.75 51.99C679.76 57.97 669.35 71.62 663.71 94C661.84 101.42 661.56 105.37 661.53 125C661.5 150.48 662.63 158.23 668.43 171.97C679.86 199.08 701.22 210.71 726.12 203.39Z" fill="#1e2749" fill-rule="evenodd"/>
</svg>
