<?xml version="1.0" encoding="UTF-8"?>
<svg xmlns="http://www.w3.org/2000/svg" viewBox="0 0 2430 1334" width="2430" height="1334" shape-rendering="geometricPrecision">
<path d="M857 1286.17C853.98 1285.16 849.17 1283.14 846.32 1281.68L841.14 1279.04L840.82 1232.22C840.46 1179.31 840.62 1180.42 833.27 1179.81C830.33 1179.57 829.43 1179.04 829.2 1177.41C828.95 1175.68 830.13 1174.76 835.8 1172.23C844.24 1168.45 853.62 1165.65 854.99 1166.49C855.63 1166.89 856 1176.29 856 1192.06C856 1205.78 856.28 1217 856.61 1217C856.95 1217 859.85 1215.03 863.06 1212.61C869.51 1207.77 876.94 1205.4 882.21 1206.52C888.31 1207.83 895.76 1212.02 899.84 1216.44C906.1 1223.23 908.36 1231.89 907.8 1246.83C907.41 1256.98 907.01 1259.17 904.7 1263.66C900.6 1271.65 891.86 1280.45 884.34 1284.15C876.06 1288.23 865.49 1289.01 857 1286.17ZM1535.26 1283.94C1528.24 1281.16 1520.08 1273.54 1516.66 1266.57C1509.09 1251.1 1511.55 1226.43 1521.76 1215.38C1534.69 1201.41 1558.89 1200.28 1570.47 1213.1C1573.39 1216.33 1574 1217.77 1574 1221.43C1574 1225.02 1573.5 1226.25 1571.37 1227.93C1565.24 1232.74 1558.71 1229.17 1556.01 1219.54C1554.12 1212.78 1548.69 1210.15 1540.44 1212.01C1536.01 1213.01 1532.91 1216.18 1529.7 1223C1526.66 1229.46 1526.73 1245.13 1529.84 1253.08C1534.82 1265.83 1544.92 1272.71 1554.78 1270.06C1559.66 1268.75 1567.18 1262.26 1570.61 1256.4C1573.23 1251.93 1575.34 1250.84 1576.34 1253.44C1577.75 1257.12 1572.57 1267.46 1565.64 1274.79C1556.21 1284.76 1545.49 1287.99 1535.26 1283.94ZM2198 1284.69C2187.97 1281.9 2178.3 1272.26 2175.32 1262.08C2173.12 1254.55 2173.16 1241.11 2175.4 1233.55C2179.46 1219.89 2186.21 1211.01 2195.71 1206.8C2201.82 1204.1 2213.14 1203.42 2219.42 1205.38C2222.13 1206.22 2224.71 1206.68 2225.17 1206.39C2226.53 1205.55 2226.13 1182.82 2224.71 1180C2223.73 1178.06 2222.47 1177.39 2219.05 1177C2210.56 1176.03 2213.68 1172.63 2228.22 1166.99C2237.55 1163.37 2239.77 1163.24 2240.53 1166.25C2240.84 1167.49 2241.43 1191 2241.84 1218.5C2242.4 1255.58 2242.92 1269.09 2243.85 1270.79C2244.87 1272.63 2245.82 1273.02 2248.8 1272.79C2251.55 1272.57 2252.5 1272.89 2252.5 1274C2252.5 1275.78 2242.91 1281.11 2234.59 1283.96C2227.85 1286.26 2226 1285.6 2226 1280.88C2226 1279.29 2225.57 1278 2225.03 1278C2224.5 1278 2221.24 1279.54 2217.78 1281.42C2210.45 1285.42 2204.29 1286.44 2198 1284.69ZM186.36 1284.05C177.32 1281.89 172 1274.74 172 1264.75C172 1258.02 173.22 1254.46 176.81 1250.66C180.23 1247.05 190.11 1241.29 201 1236.56C211.9 1231.83 213.55 1230.22 213.33 1224.58C212.99 1215.91 208.17 1211 199.98 1211C192.83 1211 190.83 1213.33 189.52 1223.22C189.06 1226.64 188.17 1228.5 186.31 1229.97C183.04 1232.54 180.95 1232.53 177.63 1229.93C175.46 1228.22 175 1227.04 175 1223.18C175.01 1217.71 177.33 1213.35 182.16 1209.74C187.44 1205.79 192.62 1204.53 203.5 1204.53C212.15 1204.53 214.17 1204.87 218.45 1207.02C221.17 1208.38 224.23 1210.65 225.25 1212.05C227.93 1215.76 228.94 1224.97 229.08 1247C229.24 1272.53 229.83 1274.54 235.77 1269.54C239.53 1266.38 242 1266.24 242 1269.2C242 1272.18 231.5 1282.23 226.95 1283.61C221.58 1285.24 215 1282.05 215 1277.81C215 1274.52 212.25 1274.72 206.19 1278.47C201.13 1281.58 192.01 1285.23 190.09 1284.9C189.77 1284.84 188.09 1284.46 186.36 1284.05ZM878.34 1278.63C883.25 1276.58 888.51 1269.82 890.38 1263.15C892.29 1256.35 892.53 1241.49 890.82 1235.81C889.36 1230.92 882.66 1223.17 878.33 1221.36C876.53 1220.61 873.39 1220 871.35 1220C866.76 1220 859.38 1223.45 857.77 1226.35C856.95 1227.83 856.57 1235.48 856.54 1250.88L856.5 1273.27L859.06 1275.19C864.93 1279.59 872.72 1280.98 878.34 1278.63ZM2218.66 1272.35C2225.48 1269.13 2225.5 1269.04 2225.5 1245.65C2225.5 1226.81 2225.29 1224.08 2223.58 1220.63C2221.35 1216.13 2215.17 1211.31 2210.51 1210.44C2203.91 1209.2 2195.14 1216.41 2191.8 1225.83C2191 1228.09 2190.51 1234.12 2190.53 1241.5C2190.55 1251.54 2190.9 1254.26 2192.67 1258.12C2196.99 1267.61 2207.17 1275.77 2213 1274.42C2214.38 1274.11 2216.92 1273.17 2218.66 1272.35ZM205.6 1270.45C213.3 1266.44 214 1265.15 214 1255.01C214 1244.35 213.22 1240 211.31 1240C208.1 1240 194.81 1247.47 191.5 1251.13C188.38 1254.59 188 1255.61 188 1260.6C188 1265.63 188.34 1266.54 191.4 1269.6C195.58 1273.78 198.84 1273.97 205.6 1270.45ZM1025.5 1012.89C991 995.01 940.55 966.9 935.51 962.75C933.26 960.89 932 958.99 932 957.43C932 954.45 935.27 951 938.09 951C941.31 951 976.14 969.19 1021.87 994.76C1036.38 1002.88 1039 1004.91 1039 1008.08C1039 1010.08 1034.01 1016 1032.33 1016C1031.87 1016 1028.8 1014.6 1025.5 1012.89ZM699.59 1009.1C698.43 1007.82 697.97 1005.94 698.18 1003.39C698.49 999.7 698.82 999.4 709 993.46C728 982.37 768.25 960.45 782.35 953.51C797.52 946.03 799.89 945.76 802.91 951.15C804.21 953.47 804.2 954.04 802.83 956.13C800.04 960.38 708.78 1010.99 703.9 1011C702.48 1011 700.54 1010.14 699.59 1009.1ZM1710.46 987.94C1709.75 986.78 1710.23 986.18 1721.69 973.86C1740.52 953.6 1745.8 942.7 1741.33 933.28C1736.71 923.54 1723.12 923.6 1717.06 933.4C1714.21 938.02 1713 937.96 1713 933.2C1713 924.1 1722.3 916 1732.75 916C1739.2 916 1742.61 917.28 1746.87 921.31C1753.86 927.93 1754.9 936.48 1749.98 946.89C1746.92 953.35 1743.61 957.74 1732.25 970.4C1728.81 974.23 1726 977.73 1726 978.18C1726 978.63 1731.14 979 1737.42 979C1748.15 979 1749.03 978.85 1751.82 976.5C1753.45 975.12 1755.35 974 1756.03 974C1757.66 974 1756.72 979.86 1754.3 984.81L1752.5 988.5L1731.82 988.77C1717.57 988.96 1710.93 988.7 1710.46 987.94ZM1635.88 965.16C1617.58 959.09 1603.59 944.09 1598.41 925C1596.22 916.94 1595.94 898.82 1597.88 891C1600.03 882.33 1606.77 870.28 1612.96 864.03C1623.2 853.68 1641.32 847 1655.53 848.32C1669.95 849.66 1685.03 857.23 1693.23 867.24C1698.46 873.62 1704.12 884.39 1705.64 890.87C1707.45 898.54 1707.37 916.18 1705.49 923.37C1700.88 941.06 1687.02 956.76 1670 963.56C1661.04 967.15 1644.23 967.93 1635.88 965.16ZM1557.88 957.85C1550.64 949.84 1502.18 891.38 1497 884.42C1495.62 882.57 1494.23 881.04 1493.9 881.03C1492.18 880.95 1491.1 942.93 1492.65 952.32C1493.37 956.69 1496.19 959.02 1501.84 959.94C1506.1 960.63 1506.78 963.05 1503 964.11C1499.85 964.98 1473.29 965.18 1470.2 964.36C1466.53 963.37 1468 960.79 1472.91 959.58C1475.77 958.88 1478.04 957.51 1479.41 955.68C1481.44 952.93 1481.51 951.7 1481.8 909.55L1482.1 866.24L1477.95 862.69C1475.67 860.74 1470.93 857.92 1467.4 856.42C1456.89 851.95 1458.56 851 1476.87 851L1492.74 851L1507.12 868.7C1525.38 891.18 1542.39 912.2 1550.81 922.69C1554.43 927.19 1557.75 930.65 1558.19 930.38C1559.4 929.64 1559.18 866.19 1557.96 861.79C1556.76 857.46 1556.42 857.2 1550.21 855.66C1547.13 854.9 1545.41 853.9 1545.19 852.75C1544.89 851.21 1545.83 850.98 1553.18 850.86C1564.17 850.67 1582.4 851.12 1582.89 851.58C1583.94 852.57 1580.46 854.9 1576.44 855.91C1573.04 856.77 1571.65 857.72 1570.77 859.77C1569.96 861.68 1569.49 877.44 1569.22 912.25C1568.74 973.02 1569.35 970.54 1557.88 957.85ZM908.84 952.31C898.18 940.12 880.52 919.12 877.5 915.07C876.4 913.59 870.55 906.39 864.5 899.07C858.45 891.76 852.24 884.13 850.7 882.13C849.17 880.14 847.48 878.35 846.95 878.17C846.36 877.96 846 891.85 846 914.96L846 952.09L848.37 954.47C849.83 955.92 852.53 957.11 855.37 957.53C860.34 958.28 861.15 959.31 858.07 960.96C856.01 962.07 825.3 962.44 822.58 961.39C820.06 960.43 820.75 958.09 823.75 957.43C830.04 956.04 831.58 955.17 833.48 951.92C835.38 948.68 835.5 946.31 835.85 906.66L836.23 864.83L832.86 861.33C829.27 857.59 824.36 854.73 819.51 853.56C815.91 852.69 814 851.24 814 849.38C814 847.48 843.84 847.36 846.13 849.25C847.67 850.53 850.68 854.15 872.05 880.5C878.74 888.75 888.1 900.23 892.86 906C897.62 911.77 903.54 919.1 906.01 922.27C913.07 931.33 913.22 930.68 912.77 892.5C912.49 868.26 912.08 859.84 911.05 857.78C909.78 855.2 907.55 854.08 900.75 852.57C895.48 851.4 897.6 849.33 904.75 848.65C915.87 847.6 935.8 847.87 936.55 849.09C937.58 850.74 935.81 851.95 930.42 853.29C922.5 855.25 922.73 853.9 921.85 905C920.99 955.75 920.77 960.63 919.32 962.08C918.6 962.8 915.41 959.83 908.84 952.31ZM1663.48 956.55C1672.03 952.77 1680.36 943.09 1684.01 932.7C1685.7 927.89 1686 924.47 1685.99 909.77C1685.96 885.13 1683.25 875.52 1673.28 864.86C1667.67 858.87 1662.16 857 1650.13 857C1639.85 857 1634.91 859.02 1629.12 865.6C1618.57 877.59 1614.35 900.23 1618.41 923.03C1620.06 932.26 1625.29 945.13 1629.22 949.6C1637.9 959.48 1650.89 962.12 1663.48 956.55ZM2094.07 866.37C2091.72 863.38 2091.41 860.14 2093.25 857.78C2094.33 856.39 2119.79 842.02 2161.5 819.24C2181.39 808.39 2182.07 807.95 2183.05 805.36C2184.58 801.34 2184.29 708.48 2182.75 707.24C2182.06 706.68 2172.28 700.94 2161 694.47C2134.98 679.55 2104.39 661.95 2091.5 654.48C2086 651.3 2079.47 647.56 2077 646.18C2074.53 644.79 2067.1 640.45 2060.5 636.52C2053.9 632.59 2043.55 626.52 2037.5 623.03C2021.75 613.93 2008.86 605.93 2006.25 603.63L2004 601.65L2004 507.49C2004 455.69 2004.29 405.88 2004.65 396.79L2005.3 380.27L2017.9 372.49C2033.79 362.68 2062.76 345.57 2091.34 329.1C2117.41 314.08 2156.55 291.5 2170 283.71C2185.4 274.8 2183.58 282.44 2184.34 223.45C2184.7 195.43 2185.28 171.23 2185.63 169.67C2186.8 164.45 2194.56 163.5 2197.17 168.26C2198.07 169.89 2198.65 184.83 2199.32 223C2199.96 259.57 2200.58 275.86 2201.37 276.68C2201.99 277.33 2205.2 279.4 2208.5 281.27C2211.8 283.14 2228.9 293.01 2246.5 303.19C2264.1 313.38 2287.72 327 2299 333.47C2347.79 361.47 2375.59 378.52 2377.74 381.76C2379.05 383.72 2379.31 398.17 2379.77 491.3C2380.18 574.24 2380.02 599.09 2379.08 600.84C2378.42 602.09 2375.31 604.71 2372.19 606.67C2369.06 608.63 2364.93 611.24 2363 612.48C2361.07 613.71 2345.32 622.96 2328 633.03C2310.68 643.1 2292.9 653.44 2288.5 656.03C2284.1 658.61 2263.4 670.52 2242.5 682.5C2221.6 694.49 2203.28 705.14 2201.79 706.19C2199.17 708.02 2199.09 708.36 2199.43 715.79C2199.62 720.03 2199.83 742.51 2199.89 765.74L2200 807.98L2207.75 811.95C2221.44 818.97 2286.94 855.5 2289 857.27C2291.71 859.59 2291.52 863.57 2288.55 866.55C2285.48 869.61 2283.41 869.63 2277.88 866.62C2275.47 865.32 2263.82 859.06 2252 852.72C2224.77 838.12 2224.31 837.87 2207.32 828.68C2199.53 824.45 2192.33 821 2191.32 821.01C2190.32 821.01 2177.35 827.59 2162.5 835.62C2108.76 864.68 2100.46 869 2098.32 869C2097.12 869 2095.21 867.81 2094.07 866.37ZM868.73 816.25C867.87 815.29 866.9 813.38 866.6 812C865.94 809.06 865.12 766.83 865.05 731.97L865 707.44L842.25 694.35C829.74 687.16 813.42 677.78 806 673.51C798.58 669.24 788.45 663.38 783.5 660.49C778.55 657.59 772.25 653.98 769.5 652.47C766.75 650.95 763.38 648.95 762 648.02C760.62 647.08 755.9 644.29 751.5 641.81C726.46 627.71 688.14 605.04 687.45 603.92C686.54 602.45 686.96 383.23 687.88 380.83C689.08 377.66 710.19 365.05 819.5 302.2C830.5 295.87 842.65 288.8 846.5 286.48C850.35 284.16 855.3 281.35 857.5 280.24C865.2 276.34 864.68 279.88 865.4 227C866.11 175.82 866.5 168.64 868.71 166.43C870.69 164.45 874.33 164.64 877.09 166.87C879.33 168.68 879.42 169.39 880.12 190.62C880.52 202.65 880.88 226.78 880.92 244.23L881 275.95L883.25 277.33C885.82 278.91 915.35 296.04 940.5 310.55C999.65 344.66 1024.79 359.42 1046.5 372.8L1059.5 380.8L1060.13 398.15C1060.47 407.69 1060.81 457.15 1060.88 508.06L1061 600.63L1058.25 603.15C1055.5 605.67 1045.87 611.74 1028 622.21C997.63 640 974.18 653.58 952 666.24C942.38 671.73 930.9 678.36 926.5 680.98C922.1 683.61 910.13 690.54 899.89 696.39L881.28 707.03L880.79 759.96C880.35 807.22 880.12 813.17 878.63 815.45C876.6 818.54 871.19 818.98 868.73 816.25ZM1528.75 816.43C1527.24 815.61 1525.91 814.84 1525.8 814.72C1525.69 814.6 1525.35 790.23 1525.05 760.57L1524.5 706.63L1509 697.74C1500.47 692.85 1490.35 687.02 1486.5 684.79C1482.65 682.57 1462.4 670.84 1441.5 658.74C1420.6 646.64 1392.92 630.65 1380 623.2C1367.08 615.75 1354.14 608.29 1351.25 606.62L1346 603.58L1345.91 533.54C1345.75 407.3 1346 379.6 1347.31 378.4C1350.07 375.87 1403.34 344.54 1470 306.25C1492.87 293.11 1516.79 279.16 1521.16 276.4L1524.82 274.09L1525.17 221.8C1525.54 166.14 1525.56 165.83 1530.42 164.61C1534.72 163.53 1537.84 165.76 1538.53 170.39C1538.86 172.65 1539.44 197.17 1539.82 224.87L1540.5 275.24L1547 278.96C1550.58 281 1564.97 289.32 1579 297.45C1617.63 319.84 1643.08 334.55 1647.25 336.89C1649.31 338.05 1652.69 339.95 1654.75 341.11C1656.81 342.27 1661.09 344.74 1664.25 346.61C1671.04 350.61 1675.37 353.14 1700.25 367.56L1719 378.44L1719.01 444.97C1719.02 481.56 1719.31 530.91 1719.65 554.63C1720 578.35 1720 598.87 1719.66 600.22C1719.01 602.8 1715.64 604.93 1676.5 627.54C1667.15 632.94 1654.1 640.5 1647.5 644.34C1640.9 648.18 1628.08 655.57 1619 660.77C1609.92 665.96 1595.75 674.15 1587.5 678.97C1579.25 683.79 1565.19 691.93 1556.25 697.07L1540 706.4L1540 744.45C1539.99 765.38 1539.7 789.64 1539.34 798.36L1538.68 814.23L1535.59 816.11C1531.94 818.33 1532.23 818.32 1528.75 816.43ZM192 696.87C181.28 690.83 170.25 684.63 167.5 683.09C164.75 681.54 155.97 676.55 148 672C140.03 667.44 130.12 661.83 126 659.52C121.88 657.22 116.92 654.42 115 653.31C113.08 652.2 97.55 643.28 80.5 633.48C63.45 623.69 44.44 612.57 38.25 608.77L27 601.86L26.95 593.68C26.65 540.9 27.05 378.73 27.48 378.03C27.79 377.53 35.57 372.65 44.77 367.19C62.06 356.92 66.43 354.38 103.5 332.98C115.6 326 140.12 311.84 158 301.51C175.88 291.18 194.1 280.64 198.5 278.1L206.5 273.48L207.06 218.99C207.36 189.02 207.7 164.39 207.81 164.25C207.91 164.11 210.23 164 212.96 164C217.07 164 218.15 164.39 219.2 166.25C220.17 167.97 220.56 180.89 220.83 220.6C221.03 249.25 221.49 273.13 221.85 273.67C222.21 274.21 226.1 276.7 230.5 279.19C234.9 281.69 248.4 289.46 260.5 296.46C272.6 303.46 285.43 310.87 289 312.92C295.01 316.39 314.03 327.41 337 340.74C342.23 343.78 349.43 347.93 353 349.98C356.57 352.03 368.4 359.02 379.27 365.51C394.87 374.82 399.19 377.85 399.77 379.9C400.17 381.33 400.5 431.1 400.5 490.5C400.5 575.26 400.23 598.97 399.25 600.69C397.86 603.12 387.85 609.51 363.63 623.43C354.76 628.53 343 635.32 337.5 638.52C286.18 668.35 215.04 708.02 213.05 707.92C212.2 707.88 202.72 702.9 192 696.87ZM896.03 681.16C929.51 662.04 1000.51 621.2 1027.5 605.53C1035.75 600.75 1043.35 596.08 1044.38 595.17C1046.19 593.56 1046.24 591.62 1045.64 544.5C1045.3 517.55 1045.02 471.33 1045.01 441.79L1045 388.08L1040.25 385.37C1037.64 383.87 1032.29 380.73 1028.37 378.39C1024.46 376.05 1008.93 367.06 993.87 358.41C965.43 342.08 961 339.52 929.5 321.26C919.05 315.2 902.63 305.69 893.01 300.12C883.4 294.55 874.9 290 874.13 290C872.41 290 857.85 297.37 844.5 304.99C823.71 316.86 799.18 330.98 790.5 336.06C785.55 338.96 778.58 342.98 775 345C765.12 350.58 730.12 370.81 715.57 379.36C708.46 383.54 702.29 387.08 701.85 387.23C701.42 387.38 701 434.3 700.92 491.5L700.77 595.5L719.76 606.5C742.86 619.88 777.9 640.11 799.5 652.54C860.95 687.88 871.61 693.93 872.53 693.96C873.09 693.98 883.67 688.22 896.03 681.16ZM2200.87 689.09C2226 674.8 2273.9 647.32 2285.21 640.7C2290.32 637.71 2303.5 630.09 2314.5 623.75C2325.5 617.42 2341.03 608.45 2349 603.84L2363.5 595.44L2363.75 491.85L2364.01 388.27L2356.25 383.82C2351.99 381.37 2343.1 376.19 2336.5 372.32C2329.9 368.44 2315.5 360.09 2304.5 353.77C2270.02 333.95 2239.31 316.21 2216.36 302.87C2204.19 295.79 2193.6 290 2192.83 290C2190.02 290 2176.58 297.22 2136.5 320.24C2113.95 333.19 2091.45 346.16 2086.5 349.06C2081.55 351.95 2074.12 356.22 2070 358.53C2065.88 360.85 2055.75 366.7 2047.5 371.54C2039.25 376.39 2029.69 381.87 2026.25 383.74L2020 387.13L2019.99 414.32C2019.99 429.27 2019.7 475.96 2019.34 518.07L2018.69 594.64L2021.59 596.67C2023.19 597.78 2038.45 606.69 2055.5 616.46C2072.55 626.23 2090.1 636.36 2094.5 638.98C2102.95 644.02 2120.12 653.89 2128.5 658.54C2131.25 660.06 2140.03 665.13 2148 669.81C2155.97 674.48 2166.32 680.42 2171 683.02C2175.68 685.61 2181.97 689.13 2185 690.85C2188.03 692.56 2190.89 693.97 2191.37 693.98C2191.85 693.99 2196.13 691.79 2200.87 689.09ZM235 680.52C246.28 674.07 257.52 667.56 260 666.06C262.48 664.55 267.65 661.52 271.5 659.3C275.35 657.09 282.77 652.79 288 649.74C293.23 646.69 299.55 643.06 302.05 641.68C304.55 640.29 314.9 634.35 325.05 628.47C335.2 622.58 352.5 612.6 363.5 606.27C374.5 599.94 384.12 594.27 384.87 593.66C386 592.75 386.13 585.16 385.64 549.03C385.32 525.09 385.04 478.5 385.02 445.5L384.98 385.5L380.24 382.89C376.2 380.66 350.21 365.66 315.5 345.52C233.61 298 215.85 288 213.37 288C211.65 288 129.26 334.32 124.5 337.97C123.51 338.73 120.81 340.26 105.5 348.77C101.1 351.22 97.05 353.58 96.5 354.01C95.95 354.45 88.97 358.5 81 363.02C51.89 379.51 43.01 385.12 42.47 387.35C42.18 388.53 42.07 435.56 42.23 491.86L42.5 594.23L59 603.74C68.08 608.98 83.83 618.08 94 623.98C104.17 629.88 114.53 635.83 117 637.2C119.47 638.57 126 642.31 131.5 645.51C157.71 660.77 181.14 674.32 209.44 690.61C211.61 691.86 213.64 692.74 213.94 692.56C214.25 692.39 223.72 686.97 235 680.52ZM1553.77 680.89C1564.07 675.26 1576.97 667.99 1582.42 664.74C1587.88 661.48 1598.91 655.11 1606.92 650.58C1631.63 636.61 1649.99 626.09 1662 619.01C1668.33 615.29 1680.36 608.32 1688.75 603.52L1704 594.8L1703.97 490.65L1703.94 386.5L1697.22 382.62C1693.52 380.49 1680.15 372.79 1667.5 365.51C1654.85 358.23 1640 349.66 1634.5 346.46C1629 343.26 1621.58 338.99 1618 336.97C1614.42 334.96 1607.22 330.82 1602 327.77C1592.44 322.2 1583.22 316.97 1551.01 298.84C1541.39 293.43 1532.88 289 1532.1 289C1530.44 289 1511.02 299.73 1470 323.29C1453.78 332.61 1435.78 342.93 1430 346.23C1424.22 349.53 1415.9 354.36 1411.5 356.98C1399.89 363.89 1372.36 379.87 1366.25 383.25L1361 386.15L1361 490.83L1361 595.51L1376.75 604.43C1385.41 609.34 1394.75 614.69 1397.5 616.33C1400.25 617.96 1403.85 620.07 1405.5 621.02C1416.88 627.53 1440.66 641.25 1467.5 656.8C1523.77 689.41 1528.44 691.94 1531.77 691.52C1533.57 691.3 1543.47 686.52 1553.77 680.89ZM192 545.44C172.59 541.26 156.31 526.72 149.96 507.88C147.32 500.03 146.49 487.98 147.98 479.11C151.18 460.14 166.56 442.34 185.37 435.84C192.99 433.2 213.03 433.29 220.71 435.99C235.15 441.06 248.13 452.35 254.58 465.44L258.5 473.38L258.82 488.09C259.11 501.52 258.94 503.27 256.89 508.15C251.01 522.1 240.11 534.17 227.85 540.3C214.72 546.87 205.07 548.26 192 545.44ZM855.32 545.5C829.86 539.96 811.91 518.82 810.33 492.5C808.95 469.53 820.25 449.82 840.89 439.24C872.7 422.93 912.3 441.47 921.52 477C923.73 485.54 923.12 498.14 920.06 507C913.49 526.01 895.54 541.89 876.48 545.54C867.33 547.29 863.51 547.28 855.32 545.5ZM1520 545.44C1503.08 541.78 1487 528.62 1479.12 512C1476.63 506.74 1476.51 505.74 1476.51 489.5L1476.5 472.5L1480.4 464.61C1487.11 451 1500.41 439.83 1514.93 435.59C1521.92 433.55 1538.64 433.49 1546.3 435.49C1560.91 439.29 1575.31 450.71 1581.49 463.38C1590.05 480.9 1590.13 497.68 1581.73 514.85C1577.05 524.45 1565.8 535.57 1555.85 540.45C1543.12 546.7 1532.61 548.16 1520 545.44ZM2189 546.37C2164.7 541.7 2144.38 522.47 2141.03 501C2136.66 473 2147.87 450.17 2171.57 438.8C2180.14 434.68 2180.65 434.57 2192.43 434.19C2212.4 433.54 2222.54 437.27 2235.04 449.89C2250.16 465.14 2256.09 483.73 2251.48 501.42C2247.95 514.96 2237.86 529.03 2225.63 537.45C2216.33 543.86 2198.5 548.2 2189 546.37ZM220.3 527.75C228.27 524.06 237.19 514.95 241.19 506.41C250.77 485.94 241.39 461.46 220.22 451.68C216.17 449.81 213.74 449.5 203 449.5C191.4 449.5 190.1 449.7 184.93 452.24C174.6 457.31 166.25 467.54 163.29 478.75C158.76 495.96 166.24 515.53 180.98 524.99C188.66 529.92 193.17 531.01 204.5 530.7C212.87 530.47 215.44 529.99 220.3 527.75ZM883.71 527.7C894.55 522.09 903.61 511.32 906.52 500.58C908.95 491.6 908.18 480.36 904.61 472.82C901.63 466.51 892.13 456.88 884.5 452.43C879.97 449.79 878.47 449.48 868.61 449.14C861.84 448.91 856.16 449.23 853.61 449.99C843.01 453.14 832.81 462.47 827.85 473.55C825.01 479.9 824.7 495.55 827.25 504C829.27 510.67 836.52 519.98 843.36 524.67C850.79 529.76 855.9 531.01 868 530.68C877.12 530.43 879.18 530.04 883.71 527.7ZM1548.78 527.56C1556.65 523.98 1565.06 515.19 1569.41 506.02C1572.26 500.01 1572.5 498.67 1572.49 489C1572.48 479.69 1572.18 477.84 1569.78 472.7C1566.22 465.1 1556.86 455.75 1549.3 452.25C1541.57 448.68 1526.05 447.83 1517.84 450.54C1502.82 455.48 1491.6 469.48 1490.3 484.91C1488.65 504.62 1498.4 521.34 1515.82 528.67C1520.83 530.78 1522.74 531.02 1532 530.74C1541.01 530.46 1543.39 530.01 1548.78 527.56ZM2212.75 527.79C2222.05 522.99 2229.58 515.52 2234.29 506.4C2239.04 497.23 2238.55 480.46 2233.26 470.73C2230 464.75 2220.63 455.9 2213.66 452.22C2208.81 449.66 2207.72 449.5 2195.5 449.5C2183.8 449.5 2182.01 449.74 2177.62 451.9C2170.8 455.26 2161.94 464.31 2158.43 471.5C2155.69 477.12 2155.5 478.26 2155.5 489.5C2155.5 500.57 2155.71 501.93 2158.25 507.1C2161.92 514.57 2171.5 524.09 2179.28 528C2185.29 531.02 2185.87 531.12 2196.5 530.81C2206.15 530.54 2208.15 530.17 2212.75 527.79ZM197 160.57C187.82 158.02 180.64 153.64 172.69 145.75C160.63 133.78 156.04 121.74 156.01 101.96C155.99 84 160.48 71.83 171.39 60.26C179.06 52.14 188.03 47.17 199.7 44.59C208.53 42.64 213.5 42.61 222.29 44.47C241.97 48.64 258.68 64.45 264.62 84.5C267.04 92.69 267.02 111.18 264.58 119.5C258.81 139.16 242.36 155.54 223.45 160.47C216.51 162.28 203.33 162.33 197 160.57ZM857.91 160.62C844.75 156.81 829.95 144.82 824.12 133.25C814.74 114.63 814.77 89.68 824.19 71.69C828.28 63.87 838.96 53.14 846.09 49.68C863.32 41.34 881.31 41.32 897.81 49.64C911.91 56.76 924.31 73.65 927.07 89.49C929.75 104.85 926.86 122.03 919.48 134.62C913.64 144.6 900.76 155.04 889.17 159.19C881.97 161.78 864.65 162.56 857.91 160.62ZM1518.31 160.09C1504.49 156.13 1491.59 145.1 1484.96 131.55C1470.08 101.19 1480.88 63.03 1508.14 49.59C1536.91 35.4 1568.78 45.97 1583.25 74.5C1587.77 83.41 1588.98 89.19 1588.98 102C1588.98 121.33 1584.55 132.57 1572.01 145.11C1563.7 153.42 1554.15 158.84 1544.2 160.9C1536.57 162.48 1525.46 162.13 1518.31 160.09ZM2182.5 160.65C2173.47 158.29 2164.91 153.17 2157.8 145.84C2145.88 133.57 2140.31 117.78 2141.29 99.02C2142.14 82.63 2146.94 70.7 2157.18 59.5C2165.44 50.46 2183.2 43.07 2196.8 43.02C2199.17 43.01 2204.34 43.72 2208.3 44.61C2226.91 48.77 2242.41 62.79 2249.16 81.57C2251.84 89.04 2252.8 106.24 2251.04 115.26C2249.47 123.26 2244.43 134.1 2239.25 140.6C2233.7 147.57 2222.92 155.42 2214.5 158.6C2206.08 161.79 2190.66 162.78 2182.5 160.65ZM283.5 159.17C279.25 158.19 279.65 155.67 284.16 154.94C288.55 154.23 292.5 151.8 294.08 148.85C294.9 147.33 295.27 133.7 295.37 102.42C295.5 59.04 295.46 58.09 293.42 55.36C292.24 53.79 289.3 51.87 286.63 50.95C281.72 49.25 279.2 47.47 280.25 46.42C281.07 45.59 326.69 45.69 328.04 46.52C329.72 47.56 327.12 50 324.33 50C320.97 50 316.31 52.58 314.81 55.26C313.95 56.78 313.43 64.02 313.17 77.77L312.79 98.03L338.15 97.77L363.5 97.5L363.5 77.45C363.5 55.32 362.86 52.67 357.24 51.43C350.93 50.03 348 48.76 348 47.42C348 46.24 351.38 46.01 368.25 46.06C396.17 46.14 401.51 47.36 389.27 50.86C386.83 51.56 384.49 53.01 383.77 54.29C382.81 55.96 382.43 67.78 382.2 103.02L381.89 149.54L385.2 151.99C387.01 153.33 390.3 154.67 392.5 154.97C396.93 155.56 397.36 157.13 393.38 158.19C388.82 159.41 365.77 160.11 357 159.29C350.54 158.69 348.5 158.15 348.5 157.03C348.5 156.07 350.04 155.29 352.96 154.79C360.08 153.58 362.13 150.75 363.08 140.84C363.52 136.25 363.9 126.54 363.94 119.25L364 106L338.5 106L313 106L313 122.86C313 132.13 313.29 141.81 313.64 144.36C314.33 149.46 317.69 153.71 321.66 154.52C329.9 156.21 329.46 155.97 327.62 157.81C326.16 159.27 323.24 159.52 306.21 159.68C295.37 159.78 285.15 159.55 283.5 159.17ZM945.69 159.32C940.83 158.75 940.8 155.67 945.66 155.19C947.44 155.02 950.45 153.46 952.65 151.56L956.5 148.23L956.5 102.7L956.5 57.17L954.05 54.55C952.7 53.12 949.55 51.35 947.05 50.62C944.35 49.83 942.37 48.62 942.18 47.65C941.9 46.24 943.01 45.97 949.68 45.8C961.49 45.5 988.33 46.09 989.27 46.67C990.59 47.48 987.95 50 985.78 50C982.35 50 977.32 52.99 976.04 55.8C975.27 57.49 974.6 65.85 974.25 78.27L973.7 98.03L999.1 97.77L1024.5 97.5L1024.79 80C1024.96 70.38 1024.83 61.07 1024.51 59.32C1023.65 54.55 1021.05 52.05 1015.5 50.64C1012.28 49.82 1010.39 48.77 1010.18 47.68C1009.88 46.15 1011.67 46 1030.3 46C1050.37 46 1057 46.5 1057 48.01C1057 48.42 1054.44 49.6 1051.3 50.63C1046.53 52.2 1045.46 52.99 1044.7 55.5C1044.21 57.15 1043.57 78.8 1043.28 103.6L1042.76 148.7L1045.62 151.35C1047.19 152.81 1050.06 154.25 1051.99 154.57C1053.92 154.88 1056.4 155.5 1057.5 155.96C1059.39 156.74 1059.36 156.84 1056.93 157.8C1053.35 159.21 1027.08 160.2 1018 159.27C1012.41 158.7 1010.5 158.12 1010.5 157.03C1010.5 156.07 1012.04 155.29 1014.96 154.79C1017.41 154.38 1020.23 153.22 1021.22 152.22C1023.79 149.65 1024.84 141.61 1025.08 122.81L1025.28 106.5L999.64 106.23L974 105.97L974.09 118.23C974.15 124.98 974.48 134.7 974.85 139.83C975.47 148.75 975.65 149.3 978.77 152.08C980.67 153.78 983.17 155.01 984.77 155.02C988.71 155.04 990.85 156.55 989.22 158.18C988.31 159.09 982.67 159.48 968.73 159.61C958.15 159.7 947.79 159.57 945.69 159.32ZM1607 159.12C1601.92 158.22 1602.58 155.96 1608.34 154.49C1611 153.82 1614.15 152.29 1615.34 151.1C1617.48 148.97 1617.5 148.52 1617.79 104.53C1618.13 52.19 1618.49 54.38 1609.09 50.95C1599.09 47.31 1600.87 46.03 1616.25 45.81C1632.25 45.57 1647.84 45.96 1650.3 46.66C1653.13 47.46 1650.62 49.64 1646.03 50.38C1643.87 50.72 1640.84 52.09 1639.3 53.42L1636.5 55.82L1636.18 76.93L1635.85 98.03L1661.18 97.77L1686.5 97.5L1686.43 78C1686.39 65.57 1685.94 57.5 1685.2 55.74C1684 52.88 1682.45 51.99 1675.25 50.06C1672.71 49.38 1671 48.33 1671 47.46C1671 46.23 1674.16 46 1691.25 46.01C1714.03 46.02 1719.61 46.56 1717.95 48.55C1717.37 49.26 1715.1 50.14 1712.92 50.51C1710.74 50.88 1708.33 51.82 1707.55 52.59C1705.22 54.92 1704.89 62.59 1705.2 107.39L1705.5 150.28L1708.23 152.32C1709.73 153.44 1712.88 154.62 1715.23 154.93C1719.96 155.56 1720.43 157.11 1716.23 158.23C1711.79 159.43 1685.04 160.18 1678 159.31C1670.04 158.32 1668.98 155.99 1675.96 154.79C1678.57 154.35 1681.43 153.03 1682.85 151.6C1685.07 149.39 1685.36 148.03 1686.09 136.34C1686.54 129.28 1686.93 119.56 1686.95 114.75L1687 106L1661.5 106L1636 106L1636 125.93C1636 136.9 1636.43 147 1636.96 148.38C1638.16 151.55 1642.11 154.17 1646.84 154.94C1651.36 155.67 1651.76 158.21 1647.5 159.12C1643.67 159.94 1611.63 159.94 1607 159.12ZM2269.75 159.33C2266.86 158.98 2266 158.43 2266 156.94C2266 155.39 2266.7 155 2269.51 155C2272.12 155 2273.99 154.12 2276.76 151.58L2280.5 148.16L2280.83 107.33C2281.16 65.63 2280.83 57.51 2278.64 54.53C2277.96 53.59 2274.95 52 2271.95 50.99C2268.95 49.97 2266.37 48.5 2266.2 47.7C2265.96 46.52 2268.55 46.15 2280.7 45.66C2288.84 45.32 2299.55 45.38 2304.5 45.78C2315.9 46.69 2316.39 48.24 2306.17 50.97C2299.61 52.73 2298.93 55.19 2298.7 78.35L2298.5 97.5L2323.5 97.5L2348.5 97.5L2349 91.5C2349.28 88.2 2349.28 78.87 2349 70.78C2348.42 53.81 2347.94 52.8 2339.41 50.62C2336.27 49.82 2334.39 48.76 2334.18 47.68C2333.88 46.15 2335.56 46 2352.68 46.01C2374.97 46.02 2382.5 46.69 2380.97 48.54C2380.4 49.23 2378.27 50.1 2376.23 50.48C2370.57 51.55 2369.23 52.65 2368.61 56.74C2367.65 63.16 2366.82 126.87 2367.54 139C2368.18 149.71 2368.4 150.63 2370.73 152.39C2372.11 153.42 2375.22 154.5 2377.64 154.77C2382.86 155.36 2384.08 156.64 2380.65 157.94C2377.13 159.28 2347.64 160.29 2340.5 159.31C2333.01 158.29 2332.26 155.98 2339 154.72C2347.94 153.06 2348.81 150.31 2349.25 122.25L2349.5 106L2323.75 106L2298 106L2298.11 117.25C2298.16 123.44 2298.5 133.15 2298.86 138.83C2299.48 148.9 2299.58 149.24 2302.77 152.08C2304.67 153.78 2307.17 155.01 2308.77 155.02C2312.71 155.04 2314.85 156.55 2313.22 158.18C2312.31 159.09 2306.67 159.48 2292.73 159.61C2282.15 159.7 2271.81 159.58 2269.75 159.33ZM218.04 153.4C228.01 150.43 236.02 143.25 241.58 132.27C244.49 126.52 244.5 126.42 244.82 105.67C245.11 87 244.94 84.15 243.11 78.13C239.28 65.53 230.87 55.54 221.92 52.98C220.05 52.44 214.24 52 209.01 52C201.33 52.01 198.88 52.38 196.29 53.97C187.83 59.13 180.95 69.58 177.87 82C175.67 90.85 176.22 113.67 178.87 123.5C183.83 141.88 191.87 151.49 204.33 153.96C210.63 155.2 212.17 155.14 218.04 153.4ZM884.77 151.3C891.77 147.78 899.36 139.57 903.3 131.26L906.5 124.5L906.48 104.5C906.46 87.85 906.14 83.44 904.57 78.16C900.87 65.72 891.95 55.41 882.73 52.93C876.25 51.18 862.9 51.48 858.73 53.46C854.29 55.57 846.91 63.3 844.11 68.78C839.88 77.07 837.7 87.73 837.72 100C837.75 117.79 841.05 130.96 848.22 142C856.02 154 871.55 157.95 884.77 151.3ZM1546 151.23C1553.19 147.81 1560.07 140.63 1564.19 132.27L1567.5 125.55L1567.83 106.81C1568.19 85.92 1567.46 80.62 1562.91 70.94C1559.46 63.61 1554.26 57.74 1548.68 54.86C1543.94 52.41 1531.66 50.95 1525.53 52.09C1517.44 53.61 1509.95 60.03 1505.24 69.5C1500.55 78.93 1499.51 84.74 1499.55 101C1499.59 117.49 1501.32 126.76 1506.14 136.32C1514.47 152.87 1530.21 158.76 1546 151.23ZM2208.61 151.4C2215.38 148.21 2223.34 139.62 2227.29 131.26C2230.4 124.68 2230.49 124.08 2230.84 108.4C2231.04 99.47 2230.7 89.08 2230.08 85.08C2228.04 71.93 2220.38 59.28 2211.82 54.91C2207.13 52.52 2195.22 50.98 2188.85 51.95C2183.36 52.78 2178.37 55.74 2173.64 60.98C2165.68 69.78 2162 82.2 2162 100.2C2162 119.07 2166.38 135.16 2174.01 144.28C2182.58 154.54 2196.06 157.31 2208.61 151.4Z" fill="#1e2749" fill-rule="evenodd"/>
</svg>
