<?xml version="1.0" encoding="UTF-8"?>
<svg xmlns="http://www.w3.org/2000/svg" viewBox="0 0 2430 1874" width="2430" height="1874" shape-rendering="geometricPrecision">
<path d="M1787.36 1766.49C1786.49 1764.24 1787.73 1671.12 1788.69 1666.57C1789.36 1663.37 1790.07 1662.48 1792.51 1661.78C1797.72 1660.27 1829.85 1659.64 1838 1660.88C1847.96 1662.4 1857.94 1667.38 1866.2 1674.95C1875.77 1683.71 1876.32 1685.48 1876.79 1708.79C1877.29 1733.02 1876.02 1740.05 1869.61 1748.73C1864.12 1756.15 1857.9 1761.72 1852.32 1764.18C1846.75 1766.65 1830.97 1767.94 1806.22 1767.98C1790.84 1768 1787.85 1767.76 1787.36 1766.49ZM1916.22 1766.91C1898.69 1763.91 1889.96 1748.7 1890.02 1721.29C1890.05 1708.99 1891.65 1705.17 1900.4 1696.42C1911.18 1685.63 1921.55 1682.59 1933.57 1686.67C1938.61 1688.39 1946.58 1695.58 1958.7 1709.36C1961.53 1712.58 1964.45 1715.02 1965.18 1714.77C1965.9 1714.53 1966.8 1712.23 1967.17 1709.67C1968.01 1703.79 1970.78 1699.28 1977.01 1693.68C1982.88 1688.4 1992.44 1684.5 1999.5 1684.5C2009.11 1684.5 2024.48 1695.08 2030.19 1705.63C2037.16 1718.51 2038.01 1734.97 2032.34 1747.09C2030.64 1750.71 2027.55 1755.38 2025.46 1757.47C2014.4 1768.54 1992.43 1770.62 1978.82 1761.89C1972.43 1757.78 1968.97 1753.15 1967.54 1746.77C1966.9 1743.94 1965.84 1741.45 1965.18 1741.23C1963.87 1740.79 1961.02 1743.57 1951.06 1754.93C1946.48 1760.16 1943.16 1762.94 1939.56 1764.55C1933.65 1767.19 1923.7 1768.2 1916.22 1766.91ZM2055.4 1767.23C2053.14 1765.73 2051.97 1761.87 2051.02 1752.81C2049.18 1735.37 2050.49 1690.11 2052.9 1687.7C2054.07 1686.53 2073.1 1686.31 2082.15 1687.36C2085.81 1687.79 2089.64 1688.75 2090.65 1689.49C2092.42 1690.78 2092.4 1690.94 2090.07 1693.43C2088.73 1694.86 2084.38 1697.81 2080.41 1699.99C2076.43 1702.17 2072.29 1705.08 2071.21 1706.46C2068.83 1709.49 2067.27 1717.88 2066.47 1732C2065.64 1746.53 2064.11 1758.91 2062.83 1761.4C2061.59 1763.82 2057.93 1768.01 2057.08 1767.98C2056.76 1767.98 2056 1767.64 2055.4 1767.23ZM1840.5 1751.36C1849.25 1749.61 1855.79 1743.06 1858.11 1733.73C1860.21 1725.34 1859.91 1701.75 1857.62 1694.78C1855.15 1687.24 1849.97 1681.34 1843.05 1678.17C1838.07 1675.89 1835.94 1675.59 1822.25 1675.21L1807 1674.79L1807 1713.23C1807 1734.37 1807.29 1751.96 1807.65 1752.32C1808.4 1753.07 1835.99 1752.26 1840.5 1751.36ZM1934.94 1749.24C1939.39 1745.99 1941.17 1740.86 1941.74 1729.65C1942.41 1716.5 1940.55 1709.31 1935.03 1703.79C1931.84 1700.6 1930.57 1700 1927.02 1700C1912.76 1700 1900.93 1718.58 1904.93 1734.69C1906.65 1741.64 1910.41 1746.52 1916.36 1749.54C1920.64 1751.71 1922.41 1752.06 1926.94 1751.63C1929.93 1751.34 1933.53 1750.26 1934.94 1749.24ZM2005.5 1748.88C2010.99 1747.35 2017.47 1740.7 2019.01 1734.98C2021.59 1725.41 2018.05 1715.1 2008.98 1705.75C2003.72 1700.32 2003.13 1700 1998.61 1700C1992.48 1700 1988.47 1702.76 1985.63 1708.91C1983.79 1712.89 1983.52 1715.3 1983.56 1727C1983.61 1741.86 1985 1747.26 1989.21 1748.95C1992.41 1750.24 2000.74 1750.2 2005.5 1748.88ZM1694.67 1645.33C1694.3 1644.97 1694 1615.27 1694 1579.33L1694 1514L1590.75 1513.9C1533.96 1513.84 1469.5 1513.66 1447.5 1513.49C1425.5 1513.33 1139.08 1512.9 811 1512.53C482.92 1512.16 191.55 1511.68 163.5 1511.46C135.45 1511.24 106.54 1511.04 99.25 1511.03L86 1511L86 940L86 369L103.75 369.02C193.78 369.11 569.74 366.55 570.64 365.84C571.46 365.19 571.94 348.42 572.34 306.22C572.64 273.92 573.25 245.48 573.7 243.02C574.46 238.75 574.7 238.5 578.5 237.84C587.38 236.3 695.24 235.76 849.14 236.48C938.59 236.9 1012.22 237.53 1012.77 237.87C1013.39 238.26 1014.23 262.55 1015.01 302C1015.69 336.93 1016.53 365.78 1016.88 366.13C1017.22 366.47 1171.4 367.03 1359.5 367.38C1547.6 367.72 1834.36 368.3 1996.75 368.66L2292 369.32L2292 939.6C2292 1394.74 2291.75 1510.04 2290.75 1510.68C2289.73 1511.33 2192.58 1513.62 2153.25 1513.92L2143 1514L2143 1578.8C2143 1627.87 2142.71 1643.89 2141.8 1644.8C2140.87 1645.73 2089.79 1646 1917.97 1646C1795.52 1646 1695.03 1645.7 1694.67 1645.33ZM2132.76 1574.25L2133.02 1514L1916.01 1514L1699 1514L1699 1574.5L1699 1635L1915.75 1634.75L2132.5 1634.5L2132.76 1574.25ZM677.8 1502.8C678.72 1501.88 679 1461.53 679 1327.3L679 1153L386.5 1153L94 1153L94 1327.83C94 1423.99 94.3 1502.97 94.67 1503.33C95.03 1503.7 226.12 1504 385.97 1504C610.68 1504 676.87 1503.73 677.8 1502.8ZM2283.75 1076.75L2284 650L1979.25 649.75L1674.5 649.5L1674.25 513.25L1673.99 377L1411 377L1148 377L1148 524.96C1148 670.36 1147.97 672.95 1146.06 673.97C1144.74 674.68 1083.7 674.93 953.31 674.75L762.5 674.5L762.25 525.75L761.99 377L428 377L94 377L94 506L94 635L389 635L684.01 635L683.75 820.25L683.5 1005.5L388.74 1005.75L93.99 1006L94.24 1074.25L94.5 1142.5L389.25 1142.75L684 1143L684 1322.3C684 1460.47 684.28 1501.88 685.2 1502.8C686.13 1503.73 864.68 1503.95 1484.95 1503.75L2283.5 1503.5L2283.75 1076.75ZM233.15 1360.98C225.26 1360.52 218.62 1359.95 218.39 1359.72C218.16 1359.5 217.48 1345.85 216.87 1329.4C215.81 1300.58 216.12 1264.23 217.46 1260.89C219.19 1256.57 231.46 1254.6 252.39 1255.26C272.79 1255.9 280.32 1257.94 286.7 1264.57C292.38 1270.47 293.47 1274.84 292.39 1287.5C291.09 1302.85 291.39 1311.46 293.33 1314.17C294.24 1315.45 295.78 1317.6 296.74 1318.94C299.29 1322.49 298.93 1332.82 295.98 1340.5C293.15 1347.88 283.63 1357.87 277.5 1359.9C272.46 1361.57 251.93 1362.07 233.15 1360.98ZM330.14 1360C320.43 1356.51 314.53 1350.53 310.75 1340.35C307.5 1331.63 307.56 1313.24 310.87 1303.64C314.01 1294.53 319.92 1287.37 327.49 1283.5C332.58 1280.9 334.43 1280.5 341.43 1280.5C351.44 1280.5 358.4 1283.43 366.41 1291.01C372.14 1296.43 378.61 1307.84 379.68 1314.4C380.18 1317.48 379.81 1318.39 376.83 1321.37C372.09 1326.11 368.17 1327 347.26 1328.09C337.23 1328.61 327.89 1329.47 326.51 1330C322.97 1331.34 323.25 1335.08 327.24 1339.62C333.8 1347.09 343.83 1348.96 354 1344.59C357.02 1343.3 361.8 1341.22 364.62 1339.97C374.72 1335.51 378.38 1340.29 371.62 1349.13C367.44 1354.61 361.66 1358.7 355.44 1360.57C348.64 1362.61 336.66 1362.35 330.14 1360ZM413.18 1360.93C401.14 1359.36 394.23 1352.86 389.89 1339C383.02 1317.07 390.64 1291.13 406.43 1282.68C409.86 1280.84 412.13 1280.5 420.84 1280.5C430.49 1280.5 431.3 1280.34 433.09 1278.14C434.54 1276.34 435 1274.19 435 1269.14C435 1260.32 437.26 1255.62 441.69 1255.19C448.96 1254.49 450 1262.23 450 1317.37C450 1348.88 449.7 1359.9 448.8 1360.8C447.42 1362.18 423.53 1362.27 413.18 1360.93ZM516.86 1360.48C511.18 1357.4 509.72 1344.69 509.59 1297.41C509.52 1269.6 509.79 1260.96 510.77 1259.78C513.44 1256.56 520.9 1255.5 541 1255.5C558.6 1255.5 561.22 1255.73 567.88 1257.82C583.87 1262.84 591.21 1271.28 591.32 1284.81C591.41 1293.89 589.77 1298.85 584.83 1304.45C575.62 1314.92 566.78 1318.04 544.33 1318.76L528.15 1319.28L527.83 1338.06C527.51 1356.35 527.44 1356.91 525.08 1359.42C522.34 1362.33 520.66 1362.55 516.86 1360.48ZM268.16 1345.03C278.61 1341.06 282.79 1333.96 279.59 1325.61C276.09 1316.42 269.22 1313.66 251.12 1314.16C235.19 1314.61 235.54 1314.24 235.52 1330.1C235.5 1342.1 235.52 1342.19 238.31 1344.59C240.9 1346.82 241.93 1347 252.05 1347C260.5 1347 264.15 1346.55 268.16 1345.03ZM429.44 1342.05C434.97 1336.86 435.64 1314.91 430.59 1304.6C426.88 1297 422.9 1293.81 417.65 1294.2C410.08 1294.76 407 1302.9 407.01 1322.3C407.01 1336.23 408.09 1340.46 412.31 1343.11C416.78 1345.91 425.93 1345.35 429.44 1342.05ZM353.1 1311.99C355.08 1311.44 357.5 1310.11 358.47 1309.04C360.16 1307.17 360.15 1306.94 358.32 1303.8C355.39 1298.8 348.16 1294.77 342.08 1294.77C333.34 1294.77 325.02 1301.52 326.16 1307.67C326.77 1310.93 332.74 1313 341.5 1312.99C345.9 1312.99 351.12 1312.54 353.1 1311.99ZM559.12 1301.98C567.65 1299.62 573.55 1293.24 573.41 1286.54C573.28 1280.74 570.33 1276.03 564.95 1273C560.78 1270.66 559.59 1270.5 546.29 1270.5C534.37 1270.5 531.81 1270.77 530.41 1272.16C527.28 1275.29 527.28 1296.27 530.41 1300.55C531.13 1301.53 533.69 1302.67 536.11 1303.1C541.31 1304.02 554.01 1303.4 559.12 1301.98ZM265.22 1296.02C271.78 1293.57 275.88 1289.53 276.65 1284.76C277.15 1281.72 276.75 1280.71 273.86 1277.6C268.69 1272.02 260.97 1269.74 248.7 1270.16C240.55 1270.44 238.6 1270.82 237.5 1272.33C234.57 1276.34 234.49 1291.55 237.38 1295.51C240.23 1299.41 255.42 1299.68 265.22 1296.02ZM860 1068.47C846.15 1066.52 826.47 1061.59 816.4 1057.54C808.69 1054.43 788.85 1043.18 780.66 1037.27C775.15 1033.29 733 990.35 733 988.71C733 987.96 729.4 981.77 725.01 974.95C709.58 951.04 704.19 925.82 705.27 882.6C706.22 844.16 712.79 819.38 728.28 795.76C736.94 782.54 747.58 769.4 759.77 756.85C772.14 744.11 779.19 738.73 785.73 737.03C788.33 736.36 790.64 734.94 791.73 733.35C796.9 725.8 802.38 722.94 823 717.08C830.98 714.81 841.35 711.43 846.06 709.56C856.5 705.41 866 704 883.5 704C900.91 704 910.15 705.36 920.88 709.51C925.7 711.37 936.72 714.94 945.36 717.44C964.26 722.92 967.9 724.68 974.48 731.53C978.02 735.2 980.82 737.14 983.75 737.93C997.27 741.57 1034.9 783.91 1048.29 810.55C1055.13 824.15 1060.84 845.78 1063.07 866.5C1066.7 900.17 1057.77 957.77 1048.12 962.93C1047.1 963.48 1045.77 965.87 1045.17 968.23C1043.11 976.42 1029.92 992.9 1006.9 1016.03C990.06 1032.95 979.92 1041.46 969.8 1047.15C965.79 1049.41 960.48 1052.73 958 1054.52C953 1058.15 944.71 1060.83 929 1063.91C900.54 1069.5 877.96 1070.99 860 1068.47ZM905.5 1057.88C917.62 1056.5 935.46 1052.49 945.92 1048.8C959.51 1044 969.69 1038.59 981 1030.15C1023.27 998.6 1044.95 963.92 1052.66 915.5C1055.15 899.87 1054.93 872.57 1052.18 857C1049.42 841.36 1045.14 825.03 1040.92 814.05C1038.37 807.41 1036.42 804.25 1031.84 799.32C1028.63 795.87 1026 792.25 1026 791.28C1025.99 786.56 1014.94 773.74 996.48 757.02C978.58 740.81 970.05 734.62 962.84 732.62C959.54 731.7 954.29 729.66 951.17 728.09C943.07 724 933.29 721.2 919.5 719C901.02 716.06 880.49 714.68 863.73 715.26C846.81 715.85 847.21 715.75 821.5 726.01C813.25 729.3 804.6 732.46 802.28 733.03C796.04 734.56 785.2 743.62 762.94 765.91C734.11 794.8 730.29 800.59 722.6 827.18C720.11 835.8 717.1 845.48 715.93 848.68C714.75 851.88 713.14 856.25 712.35 858.4C710.17 864.31 709.06 874.99 709.04 890.5C709.01 908.16 710.13 915.46 713.33 918.43C715.91 920.83 718.2 926.99 720.02 936.5C723.67 955.58 730.61 970.82 743.9 989C756.36 1006.04 778.98 1030 782.62 1030C784.83 1030 789.88 1032.77 795.55 1037.08C805.63 1044.77 824.39 1051.53 848.41 1056.12C868.32 1059.93 883.51 1060.4 905.5 1057.88ZM503.26 999.35C625.71 998.88 675.26 998.37 675.87 997.59C676.85 996.34 679.47 647.57 678.51 646.02C678.09 645.33 583.04 645 385.94 645L94 645L94 823.15L94 1001.31L212.75 1000.66C278.06 1000.3 408.79 999.71 503.26 999.35ZM780.66 892.18C777.7 888.9 777 880.19 777.01 846.61C777.02 810.5 778.17 791.4 780.48 789.09C784.83 784.75 845.36 787.96 850.2 792.8C853.06 795.66 838.83 799.41 821 800.5C806.78 801.37 799.75 802.67 798.25 804.7C796.74 806.73 796.53 823.26 797.98 825.96C799.41 828.63 803.89 829.86 816.38 831.01C830.44 832.29 837.59 833.73 839.51 835.65C843.12 839.27 835.17 842.58 819.44 844.01C812.87 844.6 805.21 845.32 802.41 845.6L797.31 846.1L796.67 866.08C795.99 886.99 795.21 890.75 791.06 892.97C787.98 894.62 782.49 894.2 780.66 892.18ZM941.63 892.14C940.7 891.11 939.51 887.63 938.98 884.39C937.92 877.94 937.83 830.08 938.86 820.54L939.5 814.58L943.5 813.65C945.7 813.14 955.15 812.67 964.5 812.61C980.9 812.5 981.66 812.59 986 815.01C994.11 819.54 997.76 829.98 999.98 855C1000.54 861.33 1000.99 871.5 1001 877.62C1001 887.35 1000.74 889.06 998.93 891.37C997.24 893.51 996.02 894 992.36 894C983.37 894 982.03 891.16 981.98 872C981.94 852.41 980.43 836.45 978.22 832.18C974.67 825.3 964.47 824.46 960.84 830.76C957.12 837.21 955.31 846.15 952.99 869.5C951.71 882.43 950.51 887.47 947.83 891.24C945.53 894.47 943.95 894.7 941.63 892.14ZM877.89 891.63C866.33 889.14 863.83 885.18 863.64 869C863.44 853.31 865.54 850.74 884 844.03C894.95 840.05 906.26 834.48 908.56 831.93C910.27 830.05 910.27 829.84 908.65 828.22C907.4 826.97 904.87 826.43 899.22 826.21C890.13 825.84 885.84 827.55 882.23 832.96C879.15 837.56 875.27 839.99 870.95 839.99C866.52 840 865 838.53 865 834.26C865 827.93 871.44 818.35 877.9 815.05C886.11 810.86 901.75 809.96 912.5 813.07C918.29 814.74 923.31 820.45 925.28 827.61C928.41 839.02 932.01 889.08 929.88 891.65C928.39 893.43 886.21 893.42 877.89 891.63ZM898.28 877.62C900.05 876.86 902.94 874.72 904.7 872.87C908.15 869.23 913.4 858.45 912.46 856.93C911.52 855.41 893.88 855.85 888.19 857.54C882.12 859.34 880 862.4 880 869.36C880 873.11 880.49 874.23 883.08 876.41C886.63 879.4 892.96 879.9 898.28 877.62ZM596.84 867.51C595.49 866.16 583.65 864.77 567 864.02C541.49 862.86 532.68 859.88 521.44 848.61C504.16 831.28 501.2 801.69 514.53 779.5C518.93 772.17 522.08 768.79 527.98 765.05C537.6 758.95 555.33 755.7 566.53 757.98C590.11 762.8 608.27 787.86 606.75 813.47C606.17 823.21 604.23 829.02 598.42 838.35C592.95 847.13 592.69 850.43 597.3 852.35C601.39 854.06 606 859.4 606 862.42C606 865.33 603.05 868 599.84 868C598.46 868 597.11 867.78 596.84 867.51ZM230.01 863.3C224.24 863.09 219.16 862.56 218.71 862.11C218.27 861.67 217.5 845.15 217 825.4C216.5 805.66 215.79 782.19 215.44 773.25L214.79 757L234.64 757.01C273.91 757.02 284.85 760.33 290.88 774C295.16 783.69 294.41 792.74 288.85 798.65C286.29 801.39 286.9 804.88 291.13 811.54C298.25 822.77 299.97 834.04 295.93 843C293.28 848.88 283.69 858.65 278 861.28C274.07 863.1 271.39 863.38 257 863.52C247.93 863.6 235.78 863.51 230.01 863.3ZM332.5 862.28C316.28 855.74 307.98 841.77 308.01 821.04C308.03 808.03 312.13 795.99 318.66 789.8C325.31 783.5 336.99 780.91 349.83 782.91C362.75 784.91 366.97 788.36 373.51 802.24C378.01 811.81 379.78 818.54 378.37 820.79C376.61 823.6 368.56 824.98 348.5 825.89C338.05 826.37 328.26 827.25 326.75 827.86C321.43 829.98 324.19 836.62 333.63 844.39C338.1 848.07 339.99 849 343.01 849C346.73 849 347.36 848.65 359.83 839.71C364.83 836.13 370.05 835.19 372.33 837.47C377.87 843.01 367.87 857.2 354.96 862.11C348.79 864.45 338.09 864.54 332.5 862.28ZM413.74 862.61C404.74 860.66 397.26 854.95 393.23 846.99C388.96 838.52 386.66 826.69 387.51 817.5C389.54 795.59 401.44 781.64 417.99 781.78C421.57 781.81 425.85 782.35 427.49 782.98C430.2 784.03 430.7 783.89 432.74 781.51C434.56 779.4 435 777.68 435.01 772.69C435.02 761.3 437.92 756.01 443.42 757.39C449.03 758.8 450.14 770.27 449.78 823L449.5 863.5L434.5 863.68C425.54 863.79 417.18 863.35 413.74 862.61ZM268.08 847.55C274.34 845.33 280.02 839.38 280.64 834.38C281.4 828.28 277.74 822.12 271.5 819C266.89 816.69 265.42 816.5 252.67 816.5C240.38 816.5 238.69 816.71 237.49 818.35C234.54 822.37 234.47 842.52 237.39 846.52C238.05 847.43 240.15 848.56 242.05 849.05C247.12 850.33 262.8 849.43 268.08 847.55ZM423.53 846.39C429.66 842.37 434.01 830.32 434.06 817.18C434.11 806.51 432.27 802.39 426.04 799.25C420.51 796.46 413.15 796.25 410.02 798.78C406.93 801.29 405.53 814.09 406.94 827C408.3 839.47 409.59 843.75 413.02 847.17C416.08 850.23 417.87 850.1 423.53 846.39ZM563.09 848.95C564.94 847.96 564.85 847.72 561.52 844.59C553.98 837.48 558.82 832.41 571.98 833.63C577.93 834.19 579.28 833.99 582.34 832.1C587.8 828.72 590.5 822.24 590.5 812.5C590.5 783.76 565.03 764.48 541.51 775.4C530.87 780.34 524.25 790.47 523.31 803.26C521.49 828.03 537.19 849.26 557.82 849.9C559.64 849.95 562.01 849.53 563.09 848.95ZM351.57 809.91C355.75 809.19 358.51 808.08 359.92 806.58C361.96 804.41 361.97 804.28 360.2 802.68C357.37 800.12 347.24 797 341.74 797C335.76 797 330.67 799.25 327.91 803.13C325.36 806.71 325.75 809.2 329.01 810.11C332.95 811.2 344.75 811.1 351.57 809.91ZM261.65 799.51C274.64 795.65 281.66 784.92 275.95 777.66C273.08 774.02 267.37 772.7 254 772.59C235.9 772.45 235.45 772.8 235.56 787C235.62 795.12 236.9 798.62 240.32 799.99C243.83 801.41 256.21 801.13 261.65 799.51ZM1137.41 629.5C1137.32 589.78 1136.96 585.69 1133.47 584.35C1132.61 584.02 1128.96 584.72 1125.35 585.9C1114.91 589.33 1108.42 589.63 1099.98 587.06C1077.42 580.21 1067.43 550.25 1079.2 524.73C1085.36 511.36 1096.95 504.16 1110.55 505.25C1117.3 505.79 1122.25 507.8 1130.91 513.52C1133.88 515.49 1136.69 516.71 1137.16 516.24C1137.63 515.77 1137.9 484.36 1137.76 446.44L1137.5 377.5L954.75 377.25L772 376.99L772 523L772 669.01L954.75 668.75L1137.5 668.5L1137.41 629.5ZM2283.75 510.75L2284.01 377L1981.84 377L1679.68 377L1680.35 452.25C1680.71 493.64 1681.3 553.22 1681.66 584.66L1682.31 641.82L1693.41 642.41C1704.42 642.99 2134.73 644.72 2232.5 644.57L2283.5 644.5L2283.75 510.75ZM897.58 587.99C887.43 584.02 880.69 574.1 880.61 563C880.51 548.92 890.16 539.87 910 535.43C925.27 532.02 930.6 526.98 924.25 521.97C920.23 518.8 911.73 519.53 905.96 523.56C896.87 529.89 893.17 532.02 890.24 532.6C887.71 533.11 886.9 532.78 885.53 530.68C882.29 525.75 887.14 516.4 895.77 510.93C907.61 503.42 924.39 501.71 932.38 507.2C939.49 512.08 944.23 521.72 946.98 536.9C948.58 545.72 950.96 585.34 949.96 586.4C949.45 586.93 946.76 586.83 943.38 586.15C933.91 584.25 924.38 584.73 916.5 587.52C908.17 590.46 904.17 590.56 897.58 587.99ZM967.14 589.11C965.06 587.79 964.19 581.43 962.91 558C961.7 535.7 962.25 493.98 963.86 486.2C964.82 481.56 967.19 479.08 970.73 479.03C974.77 478.97 976.25 483.02 977.01 496.11C977.4 502.99 978.19 508.59 978.86 509.26C979.75 510.15 980.8 510.11 983.26 509.1C990.07 506.31 996.62 504.92 1000.34 505.48C1019.87 508.4 1030.47 534.11 1023.4 561.4C1020.45 572.77 1014.2 582.04 1006.4 586.61C1000.42 590.11 994.41 590.13 986.28 586.66C982.86 585.19 979.43 584 978.67 584C977.9 584 975.58 585.35 973.5 587C969.36 590.29 969.13 590.37 967.14 589.11ZM830.83 585.96C826.83 583.63 825.41 571.93 824 529.52C823.42 511.93 822.61 497.25 822.22 496.91C821.82 496.57 816.98 495.82 811.46 495.24C799.92 494.04 794.88 492.27 792.44 488.54C789.71 484.39 791.66 481.32 797.6 480.43C803.91 479.49 848.71 480.61 857.5 481.94C871.52 484.05 875.81 487.14 870.91 491.58C869.11 493.21 866.82 493.53 854.48 493.85L840.14 494.22L840.13 531.38C840.11 571.41 839.33 580.96 835.77 584.75C833.39 587.28 833.17 587.33 830.83 585.96ZM1045.26 585.47C1044.06 584.63 1042.57 582.27 1041.96 580.22C1040.27 574.64 1039.57 523.47 1040.91 503.5C1042.27 483.02 1042.55 481.58 1045.47 480.01C1054.24 475.32 1057.75 489.84 1058.84 535.3C1059.21 550.59 1059.23 567.44 1058.89 572.74C1058.32 581.58 1058.04 582.57 1055.58 584.69C1052.47 587.36 1048.4 587.67 1045.26 585.47ZM1001.37 571.89C1011.24 560.36 1013.24 544.07 1006.58 529.5C1003.93 523.7 999.56 519 996.81 519C991.23 519 982.15 528.04 979.39 536.33C977.17 543.01 977.2 551.09 979.49 558C980.89 562.24 982.77 564.94 987.66 569.75C991.16 573.19 994.88 576 995.93 576C996.98 576 999.43 574.15 1001.37 571.89ZM1118.69 572.12C1121.98 569.99 1127.57 565.53 1131.09 562.2C1140.12 553.68 1139.79 553.5 1115.2 553.5C1093.32 553.5 1090 553.98 1090 557.13C1090 561.85 1105.34 576 1110.45 576C1111.68 576 1115.39 574.26 1118.69 572.12ZM913.51 573.43C917.9 571.34 928.16 560.56 930.95 555.1C934.5 548.15 933.21 547.64 918.15 550.06C901.38 552.75 900.04 553.53 900.02 560.68C900 565.72 901.4 569.71 904.24 572.75C906.73 575.4 909 575.57 913.51 573.43ZM1900.92 542.31C1900.1 539.75 1899.56 526.62 1899.26 502.14L1898.81 465.77L1937.65 466.31C1988 467 1991.7 467.71 1994.14 477.22C1996.17 485.11 1995.87 522.99 1993.7 533.37C1991.24 545.13 1989.09 546.92 1986.65 539.25C1984.52 532.54 1984.2 530.5 1982.48 512.1C1980.73 493.49 1979.78 488.46 1976.97 482.95C1974.61 478.31 1971.89 476.65 1968.05 477.49C1961.33 478.96 1959.23 486.13 1958.05 511.5C1957.57 521.95 1956.64 532.59 1955.99 535.15C1954.73 540.12 1950.79 544.7 1947.5 545.03C1939.75 545.81 1938.96 543.35 1937.95 515C1936.86 484.7 1935.67 481.16 1926.29 480.25C1921.76 479.82 1921.03 480.03 1919.66 482.13C1917.45 485.51 1916.29 491.53 1914.46 509.08C1911.84 534.32 1908.82 545.13 1904.22 545.81C1902.57 546.06 1901.87 545.32 1900.92 542.31ZM2113.94 544.67C2103.36 541.73 2095.49 532.16 2094.32 520.82C2092.76 505.52 2101.71 496.96 2125 491.49C2140.64 487.81 2146.08 482.46 2138.75 477.99C2135.19 475.82 2129.65 475.42 2125.4 477.04C2123.9 477.61 2120.03 480.07 2116.79 482.5C2108.1 489.03 2100.98 489.71 2098.89 484.2C2098.15 482.26 2098.3 480.51 2099.46 477.46C2103.26 467.52 2111.39 464.58 2133.44 465.16C2145.98 465.49 2148.04 465.8 2152.49 468.01C2157.09 470.31 2157.61 470.94 2159.18 476.17C2164.6 494.31 2165.41 535.15 2160.5 542.65C2158.47 545.73 2154.64 545.69 2149.5 542.53C2144.49 539.44 2142.22 539.43 2133.57 542.49C2124.55 545.67 2119.54 546.23 2113.94 544.67ZM1770.65 543.17C1768.2 540.46 1768.53 531.5 1771.4 522.79C1772.73 518.78 1776.27 509.2 1779.28 501.5C1782.29 493.8 1786.13 483.2 1787.81 477.93C1794.25 457.83 1802.26 440.51 1806.78 436.96C1814.72 430.71 1820.6 439.42 1836.51 481.04C1852.08 521.76 1858.21 536 1860.19 536C1862.77 536 1864.46 521.11 1866.02 484.5C1866.59 471.3 1867.28 458.93 1867.57 457C1869.46 444.37 1870.31 441 1871.64 441C1875.63 441 1877 457.05 1877 503.76C1877 532.64 1876.69 542.91 1875.8 543.8C1874.25 545.35 1855.01 545.41 1849.5 543.88C1843.48 542.22 1838.93 536.77 1835.11 526.65C1830.65 514.82 1830.01 514.5 1810.83 514.5C1792.42 514.5 1792.53 514.43 1785 529.72C1777.48 544.98 1774.67 547.61 1770.65 543.17ZM2056.15 542.25C2053.41 537.01 2051.51 517.85 2050.44 484.6L2049.77 463.71L2067.63 464.27C2084.15 464.78 2092 465.99 2092 468.01C2092 470.04 2085.78 473.81 2081.32 474.46C2071.24 475.96 2068.67 482.15 2065.51 512.5C2062.79 538.66 2059.59 548.82 2056.15 542.25ZM2178.58 543.12C2177.36 541.16 2175.03 522.27 2173.93 505.6C2173.32 496.2 2172.97 477.93 2173.16 465C2173.54 438.58 2173.96 436.67 2179.27 437.19C2183.99 437.66 2186.01 441.96 2187.02 453.71C2188.1 466.38 2187.99 466.29 2203.06 465.41C2213.41 464.81 2215.1 464.95 2219.23 466.78C2227.82 470.58 2230.14 478.02 2230.08 501.5C2230.02 523.7 2227.7 540.34 2224.28 543.18C2220.81 546.07 2218.76 537.87 2216.98 514C2215.36 492.24 2212.92 483.44 2207.27 479C2205.19 477.36 2203.66 476.96 2201.11 477.37C2192.74 478.73 2190.54 484.96 2186.47 518.78C2185.59 526.08 2184.23 534.24 2183.43 536.91C2181.94 541.94 2179.65 544.87 2178.58 543.12ZM2021.11 539.75C2018.75 532.37 2017.81 522.18 2017.29 497.91C2016.68 469.71 2017.22 465.48 2021.58 464.39C2025.19 463.48 2028.78 466.29 2029.59 470.65C2030.71 476.6 2029.22 522.69 2027.64 531.12C2025.44 542.87 2023.1 545.95 2021.11 539.75ZM1123 535.16C1127.84 532.86 1128.03 530.02 1123.57 526.62C1119.02 523.15 1110.15 519.02 1107.23 519.01C1103.06 518.99 1089.39 533.82 1091.59 535.97C1094.07 538.41 1117.42 537.8 1123 535.16ZM2128.5 530.13C2134.94 526.13 2145.72 513.72 2147.39 508.39C2148.66 504.3 2146.22 503.87 2134.42 506.1C2128.41 507.23 2121.63 508.98 2119.33 509.98C2110.67 513.79 2109.66 521.43 2116.93 528.25C2121.39 532.44 2124.07 532.88 2128.5 530.13ZM1820.75 496.77C1822.67 495.21 1822.26 490.28 1819.47 481.5C1816.46 472.03 1813.07 465.64 1810.84 465.21C1807.52 464.57 1798.34 492.13 1800.64 495.81C1802.37 498.56 1817.64 499.29 1820.75 496.77ZM2018.22 448.44C2015.74 446.71 2015.43 444.35 2017.17 440.52C2019.51 435.39 2026.73 436.41 2029.98 442.33C2031.43 445 2031.38 445.22 2028.69 447.56C2025.48 450.36 2021.44 450.7 2018.22 448.44ZM1004.8 365.8C1005.71 364.89 1006 349.98 1006 304.8L1006 245L794 245L582 245L582 305.33C582 338.52 582.3 365.97 582.67 366.33C583.03 366.7 677.89 367 793.47 367C955.57 367 1003.87 366.73 1004.8 365.8ZM591.55 188.65C586.74 183.83 570.85 128.23 565.54 97.62C563.6 86.43 563.61 83.54 565.57 81.57C567.78 79.36 568.81 79.59 571.96 82.95C575.19 86.42 579.27 98.14 584.5 119C589.23 137.9 592.95 150.93 594.44 153.82C595.4 155.69 595.85 155.88 596.73 154.82C598.36 152.86 603.39 139.8 609.92 120.57C620.65 89.01 625.35 80 631.07 80C635.83 80 637.76 81.59 641.14 88.27C646.6 99.1 660 143.79 660 151.2C660 154.72 662.15 152.91 664.63 147.29C666.02 144.15 670.84 130.76 675.34 117.54C684.09 91.79 687.56 84.51 691.82 82.85C693.3 82.28 698.1 82 702.5 82.23C715.4 82.9 720.52 87.09 714.37 91.93C712.92 93.07 710.28 94 708.5 94C706.72 94 704.09 94.93 702.64 96.07C697.21 100.34 690.46 118.76 679.98 157.93C674.53 178.27 669.96 187.13 663.78 189.31C659.7 190.75 652.5 180.47 648.15 167C646.99 163.43 644.65 154.65 642.94 147.5C637.04 122.74 631.9 108.78 629.54 111.12C628.38 112.28 623.02 128.39 618.93 143C611.45 169.71 606.64 181.29 600.47 187.47C596.31 191.62 594.74 191.83 591.55 188.65ZM912.91 189.11C889.74 180.04 879.28 150.69 890.59 126.5C895.75 115.48 901.81 110.88 913.78 108.9C926.8 106.75 941.14 110.99 948.52 119.16C958.41 130.1 960.52 148.07 953.96 165.5C952.19 170.19 950.04 173.16 944.1 179.11C939.92 183.29 934.61 187.68 932.29 188.86C927.07 191.51 919.31 191.61 912.91 189.11ZM986.71 188.05C981.42 183.41 977.6 173.51 970.48 146C961.49 111.28 961.25 108 967.69 108C974.08 108 977.05 113.07 980.46 129.78C983.14 142.91 984.14 146.04 986.23 147.78C987.39 148.74 988.07 148.53 989.69 146.74C992.54 143.57 992.47 143.73 996.51 129.96C998.52 123.11 1001.08 115.86 1002.21 113.85C1006.74 105.77 1017.33 106.01 1019.83 114.25C1020.38 116.04 1021.08 122.28 1021.39 128.12C1022.02 139.74 1023.7 146.5 1025.96 146.5C1028.34 146.5 1031.71 140.45 1035.05 130.2C1040.13 114.55 1044.15 108 1048.67 108C1050.99 108 1055 111.14 1055 112.95C1055 120.07 1042.31 166.09 1037.36 176.93C1032.59 187.36 1029.5 191.19 1026.16 190.81C1022.4 190.37 1020.52 185.94 1016.87 168.86C1014.07 155.82 1011.86 149 1010.41 149C1006.67 149 1002.74 157.24 1001.57 167.5C1000.2 179.56 996.86 187.4 991.97 190.02C990.48 190.82 989.4 190.42 986.71 188.05ZM705.91 187.25C703.88 181.91 702.79 155.24 703.76 134.46C704.78 112.58 705.7 108.71 710.01 108.21C717.4 107.34 718.89 115.8 717.23 149.2C716.08 172.33 714.45 183.14 711.43 187.75C709.44 190.79 707.17 190.59 705.91 187.25ZM839.22 188.9C819.63 185.58 810.79 168.09 813.75 138.49C816.06 115.36 821.76 109.49 843.28 108.07C857.64 107.12 858.57 106.28 859.93 93.13C860.93 83.48 862.54 80 866 80C868.71 80 870.69 83.07 872.15 89.5C873.19 94.11 873.43 104.3 873.21 133.5C873.05 154.4 872.6 175.1 872.21 179.5L871.5 187.5L866.5 188.1C855.53 189.42 844.23 189.75 839.22 188.9ZM738.61 184.75C735.45 176.07 733.66 156.73 732.81 122L732.5 109.5L754 109.52C779.22 109.54 785.14 110.54 787.99 115.23C792.11 122 796 146.6 795.99 165.8C795.99 178.76 794.87 184.47 792.02 185.99C789.34 187.43 783.45 187.24 782.15 185.68C780.39 183.56 778.21 172.42 777.03 159.5C774.58 132.62 773.24 127.83 767.47 125.42C755.03 120.23 750.55 127.39 748.04 156.5C745.94 180.79 744.17 189 741.06 189C740.57 189 739.47 187.09 738.61 184.75ZM851.13 168.19C856.43 162.29 859.34 154.69 859.27 146.92C859.14 133.19 852.25 124 842.08 124C833.79 124 826.59 134.68 826.58 147C826.58 155.11 829.74 161.71 837.45 169.67C843.65 176.07 844.1 176.03 851.13 168.19ZM931.41 170.98C937.88 165.01 940.37 158.53 940.44 147.5C940.49 140.24 940.1 137.73 938.41 134.5C933.95 125.96 923.46 122.12 913 125.21C909.36 126.29 908.14 127.27 906.64 130.34C904.23 135.23 903.36 148.61 904.94 156.24C907.21 167.13 914.89 175 923.26 175C926.29 175 927.91 174.2 931.41 170.98Z" fill="#1e2749" fill-rule="evenodd"/>
</svg>
