<?xml version="1.0" encoding="UTF-8"?>
<svg xmlns="http://www.w3.org/2000/svg" viewBox="0 0 500 282" width="500" height="282" shape-rendering="geometricPrecision">
<path d="M353.73 255.91C353.43 255.54 353.35 252.84 353.41 245.13L353.5 234.83L357.68 234.83C362.73 234.83 364.16 235.31 365.33 237.4C366.4 239.3 366.3 241.1 365.02 242.91C363.77 244.68 363.76 244.95 364.92 245.36C367.32 246.19 368.1 250.99 366.23 253.44C364.69 255.47 362.77 256.14 358.15 256.28C354.92 256.37 354.06 256.3 353.73 255.91ZM371.48 255.91C371.39 255.68 371.36 252.11 371.41 247.99L371.5 240.5L372.42 240.39C373.15 240.31 373.4 240.47 373.66 241.16C373.93 241.87 374.1 241.97 374.61 241.7C374.95 241.52 375.41 241.14 375.64 240.86C376.15 240.25 378.01 239.85 378.97 240.16C379.35 240.28 379.83 240.68 380.03 241.05C380.59 242.1 379.57 243 377.81 243C376.56 243 376.27 243.15 375.36 244.3L374.33 245.6L374.33 250.56C374.33 253.98 374.21 255.66 373.93 255.93C373.4 256.46 371.69 256.45 371.48 255.91ZM362.33 253.08C363.89 252.3 364.67 250.28 364.01 248.69C363.33 247.05 361.51 246.28 358.57 246.4L356.17 246.5L356.07 249.33C355.92 253.7 355.9 253.67 358.76 253.67C360.38 253.67 361.55 253.48 362.33 253.08ZM360.4 243.65C362.69 243.02 363.61 240.82 362.5 238.67C361.92 237.55 360.82 237.24 358 237.4L356.17 237.5L356.07 240.08C355.95 243.31 356.28 244 357.93 244C358.61 244 359.72 243.84 360.4 243.65ZM359.4 228.6C359.1 228.3 359 224.04 359 211.5C359 198.65 358.9 194.67 358.58 194.25C358.23 193.79 351.13 189.45 347.83 187.68C346.22 186.81 343.67 185.33 341.14 183.78C339.84 182.98 338.68 182.33 338.57 182.33C338.45 182.33 336.89 181.45 335.1 180.37C333.3 179.3 328.31 176.39 324 173.92C311.57 166.77 311.34 166.63 310.99 165.99C310.47 165.01 310.55 109.6 311.08 108.94C311.31 108.65 313.22 107.42 315.33 106.2C317.44 104.98 319.39 103.84 319.67 103.67C319.94 103.5 320.92 102.93 321.83 102.41C322.75 101.89 327.62 99.08 332.67 96.17C337.71 93.26 342.58 90.45 343.5 89.92C344.42 89.4 345.39 88.84 345.67 88.68C345.94 88.51 347.44 87.64 349 86.74C355.65 82.91 358.33 81.27 358.58 80.9C358.72 80.68 358.91 72.85 359 63.5L359.17 46.5L359.94 46.39C361.71 46.14 361.67 45.75 361.67 63.81C361.67 76.69 361.76 80.66 362.08 81.08C362.44 81.53 373.72 88.33 374.12 88.33C374.2 88.33 375.23 88.92 376.42 89.64C378.16 90.7 389.77 97.41 398.5 102.4C399.42 102.93 400.39 103.49 400.67 103.66C400.94 103.83 402.89 104.97 405 106.19C407.11 107.42 409.1 108.72 409.42 109.08C409.96 109.7 410 111.52 410 137.16L410 164.58L413.08 166.41C414.78 167.41 420.42 170.68 425.62 173.67C430.81 176.67 435.29 179.47 435.57 179.9C435.98 180.52 436 180.77 435.67 181.17C434.98 181.99 433.69 181.74 431.2 180.29C423.92 176.06 421.1 174.42 420.5 174.08C420.13 173.87 418.03 172.66 415.83 171.39C409.05 167.47 408.64 167.27 407.89 167.46C407.49 167.56 405.67 168.52 403.83 169.59C402 170.66 398.32 172.79 395.67 174.31C393.01 175.84 388.84 178.27 386.4 179.71C383.97 181.15 381.88 182.33 381.76 182.33C381.65 182.33 380.49 182.98 379.19 183.78C376.55 185.4 373.68 187.08 373.14 187.33C372.95 187.42 370.37 188.92 367.41 190.65C363.43 192.98 361.99 194 361.84 194.58C361.74 195 361.66 202.64 361.68 211.54C361.71 226.41 361.66 227.78 361.14 228.37C360.48 229.1 359.97 229.17 359.4 228.6ZM479.75 198.63C478.9 198.38 478.67 198.13 478.67 197.49C478.67 196.59 478.73 196.58 481.17 196.99C483.1 197.32 484.02 196.91 484.83 195.35C485.3 194.43 485.29 194.32 484.58 193.52C484.03 192.89 483.35 192.6 482 192.41C480.51 192.21 480.15 192.03 480.07 191.48C479.98 190.89 480.23 190.75 481.72 190.48C483.2 190.22 483.57 190 484.11 189.06C484.67 188.09 484.7 187.85 484.3 187.11C483.88 186.32 483.73 186.28 481.52 186.39C479.53 186.48 479.16 186.42 479.07 185.94C478.78 184.45 483.06 183.8 485.11 185.01C486.79 186 487.21 188.22 486 189.76C485.11 190.89 485.15 191.2 486.37 192.42C487.29 193.34 487.39 193.62 487.24 194.92C486.88 198.11 483.6 199.74 479.75 198.63ZM168.92 197.14C167.73 196.5 167.67 195.33 168.81 195.33C169.26 195.33 169.72 195.48 169.83 195.67C170.21 196.27 172.53 196.04 173.47 195.3C174.2 194.72 174.35 194.36 174.27 193.39C174.16 192.08 173.77 191.79 171 190.95C168.93 190.33 168.73 189.33 170.67 189.33C171.75 189.33 172.26 189.12 173.03 188.36C175.41 185.97 173.2 184.33 169.01 185.38C168.7 185.45 168.47 185.21 168.4 184.74C168.16 183.19 172.43 182.47 174.69 183.68C175.79 184.27 176.4 186.05 175.95 187.39C175.74 188 175.37 188.74 175.12 189.03C174.47 189.78 174.55 190.18 175.47 190.78C175.91 191.07 176.38 191.78 176.5 192.35C177.17 195.39 175.1 197.68 171.7 197.65C170.67 197.65 169.42 197.42 168.92 197.14ZM48.17 194.36C42.81 191.31 29.13 183.39 27.07 182.14C25.74 181.33 24.57 180.67 24.47 180.67C24.38 180.67 22.17 179.42 19.57 177.89C16.96 176.36 13.18 174.16 11.17 173.01C9.15 171.85 7.09 170.63 6.6 170.29C6.1 169.95 5.6 169.67 5.48 169.67C4.98 169.67 1.26 167.16 0.98 166.63C0.81 166.31 0.67 164.61 0.67 162.86C0.67 160.95 0.53 159.67 0.33 159.67C0.11 159.67 0 151.67 0 136.35C0 121.17 0.12 112.97 0.33 112.83C0.52 112.72 0.67 112.06 0.67 111.37C0.67 110.49 0.89 109.92 1.42 109.45C2.14 108.8 6.91 105.92 10 104.25C10.82 103.81 13.3 102.39 15.5 101.1C18.9 99.1 25.73 95.13 31.14 92C31.93 91.54 33.98 90.37 35.71 89.4C42.06 85.82 47.63 82.48 48.31 81.87C48.99 81.24 49 81.01 49.01 64.53C49.01 55.35 49.14 47.63 49.29 47.39C49.73 46.7 51.1 47.07 51.57 48C51.89 48.64 51.99 52.74 52 65.39L52 81.96L54.75 83.6C56.26 84.5 59.3 86.26 61.5 87.5C63.7 88.74 66.17 90.16 67 90.66C67.82 91.16 71.05 93.04 74.17 94.83C77.28 96.62 81.03 98.8 82.5 99.67C85.93 101.69 93.19 105.85 96.11 107.47L98.39 108.73L105.61 104.34C109.58 101.93 115.28 98.47 118.27 96.65C121.27 94.82 123.98 93.33 124.3 93.33C124.63 93.33 125.17 93.64 125.51 94.01C126.11 94.68 126.11 94.71 125.15 95.65C124.61 96.18 119.37 99.5 113.5 103.02C107.63 106.55 102.2 109.87 101.42 110.4L100 111.37L100.01 138.1C100.01 152.8 100.12 165 100.26 165.2C100.39 165.41 101.33 166.05 102.33 166.64C103.34 167.22 104.39 167.84 104.67 168.02C104.94 168.19 106.59 169.14 108.33 170.12C117.04 175.02 124.58 179.49 125.28 180.16C125.92 180.78 126 181.04 125.71 181.59C125.13 182.66 124.35 182.74 122.87 181.88C122.12 181.44 120.97 180.78 120.33 180.41C113.86 176.73 105.43 171.87 105.17 171.66C104.98 171.52 103.93 170.91 102.83 170.31C97.95 167.63 98.39 167.68 95.33 169.5C94.33 170.11 92.97 170.89 92.33 171.25C91.69 171.61 89.67 172.78 87.83 173.85C86 174.92 83.95 176.1 83.27 176.48C82.59 176.86 80.12 178.29 77.77 179.66C75.42 181.04 73.2 182.32 72.83 182.53C71.61 183.2 56.2 192.06 53.39 193.71C51.86 194.6 50.44 195.33 50.22 195.32C50.01 195.32 49.08 194.89 48.17 194.36ZM446.11 193.54C443.19 192.58 441.51 190.67 440.48 187.16C439.77 184.72 439.95 180.25 440.86 177.7C441.67 175.41 443.78 173.25 445.89 172.53C449.04 171.46 453.25 172.09 454.92 173.89C455.8 174.84 455.82 175 455.2 175.84C454.75 176.46 454.69 176.45 452.95 175.57C449.41 173.78 446.06 174.53 444.46 177.47C443.66 178.92 443.5 179.64 443.39 182.4C443.22 186.5 444.02 188.79 446.11 190.25C447.88 191.47 450.88 191.55 452.71 190.41C454.83 189.09 456.31 189.8 455.15 191.58C453.95 193.4 448.97 194.48 446.11 193.54ZM459.51 193.23C459.1 192.6 459.01 190.95 459.02 183.65C459.02 178.8 459.11 174.28 459.22 173.59C459.44 172.19 460.11 171.81 461.45 172.31C462.31 172.64 462.31 172.67 462.41 176.73L462.5 180.82L463.82 181.04C464.54 181.15 466.56 181.16 468.32 181.04L471.5 180.83L471.67 176.83C471.76 174.63 471.95 172.65 472.1 172.42C472.48 171.84 473.51 171.9 474.14 172.52C474.6 172.98 474.66 174.37 474.65 182.87C474.64 192.12 474.6 192.74 473.99 193.34C473.22 194.12 472.4 193.88 471.97 192.77C471.81 192.32 471.67 190.17 471.67 187.99L471.67 184.03L470.58 183.83C469.99 183.72 467.93 183.68 466 183.73L462.5 183.83L462.41 188.23C462.32 192.53 462.29 192.65 461.45 193.32C460.34 194.18 460.13 194.17 459.51 193.23ZM135.04 192.75C133.12 192.09 131.22 190.08 130.26 187.72C129.19 185.06 129.2 179.72 130.29 176.93C131.17 174.68 133.56 172.34 135.59 171.73C138.56 170.84 143.05 171.61 144.32 173.22C145.13 174.25 145.14 174.35 144.53 175.18C144.07 175.81 144.03 175.81 142.64 175.02C141.52 174.4 140.7 174.22 138.82 174.2C136.71 174.19 136.29 174.29 135.24 175.09C132.05 177.52 131.73 185.89 134.71 188.94C136.53 190.8 139.87 191.12 142.27 189.66C144.3 188.42 145.64 189.14 144.51 190.87C143.13 192.97 138.4 193.9 135.04 192.75ZM149.01 193.01C148.6 192.75 148.52 191.1 148.54 182.32C148.55 171.44 148.56 171.34 150 171.34C151.31 171.34 151.5 171.87 151.67 176.07L151.83 180.17L156.25 180.26C161.51 180.37 161.23 180.63 161.14 175.57C161.1 173.06 161.2 172.18 161.58 171.8C162.1 171.28 163.31 171.46 163.74 172.13C163.88 172.33 163.99 176.94 163.99 182.37C164 191.69 163.96 192.26 163.36 192.81C162.96 193.17 162.46 193.31 162.05 193.18C161.48 193 161.36 192.56 161.16 189.87C161.03 188.16 161.03 186.29 161.16 185.72C161.28 185.15 161.29 184.38 161.17 184.01C160.97 183.37 160.68 183.33 156.31 183.33L151.67 183.33L151.67 187.67C151.67 191.56 151.6 192.07 151 192.67C150.27 193.4 149.76 193.49 149.01 193.01ZM51.18 191.7C51.36 191.54 54.05 189.94 57.17 188.15C64.91 183.7 65.9 183.12 70.58 180.39C72.82 179.07 74.76 178 74.88 178C75.01 178 75.35 177.79 75.64 177.54C75.93 177.28 77.37 176.4 78.83 175.59C82.72 173.43 84.13 172.63 84.5 172.34C84.68 172.2 85.51 171.71 86.33 171.26C89.89 169.28 95.24 166.18 96.08 165.59L97 164.95L97 138.36C97 113.45 96.96 111.74 96.42 111.26C95.91 110.81 86.94 105.54 80.67 102C79.47 101.33 77.15 99.99 75.5 99.03C71.63 96.78 71.91 96.94 69 95.24C67.62 94.43 65.82 93.39 65 92.93C61.76 91.12 60.66 90.49 55.81 87.63C53.04 86 50.57 84.67 50.31 84.67C50.05 84.67 48.63 85.37 47.17 86.22C45.7 87.07 43.95 88.08 43.27 88.47C41.97 89.2 36.04 92.61 24.67 99.16C20.91 101.32 17.44 103.37 16.95 103.71C16.46 104.05 15.96 104.33 15.84 104.33C15.72 104.33 13.86 105.37 11.72 106.63C9.58 107.9 6.93 109.44 5.83 110.07L3.83 111.21L3.75 138.02C3.71 152.77 3.79 164.99 3.92 165.19C4.06 165.38 4.84 165.92 5.67 166.38C6.49 166.85 11.89 169.97 17.67 173.31C23.44 176.66 28.69 179.69 29.33 180.04C29.97 180.4 30.95 180.96 31.5 181.29C32.05 181.63 34.97 183.33 38 185.07C41.02 186.82 44.92 189.09 46.67 190.12C49.84 191.99 50.59 192.26 51.18 191.7ZM363.22 189.63C364.84 188.7 366.77 187.59 367.5 187.17C368.23 186.76 369.81 185.85 371 185.16C372.19 184.47 374.14 183.34 375.33 182.66C376.52 181.98 379.82 180.08 382.67 178.43C386.91 175.97 393.64 172.09 404.83 165.66C405.57 165.24 406.35 164.66 406.58 164.38C406.91 163.98 407 158.06 407 137.3L407 110.73L400.75 107.14C392.76 102.56 384.9 98.01 381.5 95.99C380.03 95.13 378.68 94.36 378.49 94.29C378.31 94.22 376.36 93.11 374.16 91.81C364.81 86.29 360.73 84 360.23 84C359.75 84 350.83 88.99 344.39 92.86C343.04 93.67 341.86 94.33 341.76 94.33C341.66 94.33 340.36 95.07 338.87 95.96C337.39 96.86 332.72 99.58 328.5 102.02C319.16 107.4 316.91 108.71 315.08 109.8L313.67 110.64L313.67 137.47L313.67 164.31L315.58 165.61C316.64 166.32 318.02 167.17 318.67 167.49C319.31 167.82 321.56 169.09 323.67 170.32C327.53 172.58 342.21 181.05 344.38 182.26C345.02 182.62 347.56 184.09 350.02 185.52C354.6 188.19 360.12 191.33 360.22 191.33C360.26 191.33 361.61 190.57 363.22 189.63ZM47.17 163.63C43.73 163.28 40.06 161.95 36.84 159.87C31.6 156.5 27.97 151.71 25.92 145.48C25.28 143.5 25.17 142.47 25.17 138.33C25.18 134.21 25.29 133.13 25.96 131C28.62 122.49 34.36 116.71 42.9 113.91C46.01 112.9 54.48 112.82 57.33 113.79C66.29 116.82 72.16 122.71 74.9 131.41C75.65 133.78 75.76 134.75 75.75 138.33C75.73 143 75.01 146.05 73.02 149.83C69.97 155.61 63.77 160.83 57.67 162.75C55.24 163.51 50.19 163.94 47.17 163.63ZM355.67 162.68C352.27 161.97 350.76 161.43 348.14 159.98C345.38 158.44 342.41 155.89 340.33 153.26C337.42 149.57 336.8 148.26 335.32 142.67C334.81 140.71 334.94 134.04 335.54 131.82C335.83 130.73 336.18 129.38 336.32 128.82C336.94 126.28 339.5 122.43 342.63 119.33C345.85 116.15 349.24 114.19 353.67 112.95C357.14 111.98 363.16 111.98 366.6 112.95C374.11 115.07 379.98 119.85 383.14 126.44C385.07 130.45 385.45 132.09 385.6 136.9C385.71 140.66 385.63 141.66 385.03 143.74C382.62 152 376.44 158.77 368.67 161.62C366.42 162.45 361.74 163.34 359.88 163.3C359.12 163.29 357.22 163.01 355.67 162.68ZM54.4 160.52C61.46 158.83 66.57 155 70.19 148.67C73.31 143.23 73.79 137.05 71.59 130.83C70.76 128.5 70.45 127.96 68.12 124.82C64.2 119.54 58.8 116.61 51.89 116.01C46.02 115.5 40.73 117.13 36.1 120.9C33.85 122.73 33.42 123.2 31.71 125.67C26.45 133.29 26.79 144.33 32.52 151.95C37.54 158.64 46.92 162.31 54.4 160.52ZM365.58 159.49C366.64 159.2 368.77 158.34 370.33 157.58C372.62 156.47 373.72 155.64 376 153.35C378.33 151 379.11 149.93 380.41 147.31C382 144.09 383 140.3 383 137.5C383 135.92 382.23 132.07 381.5 130C379.73 124.98 375.32 120.02 370.57 117.71C366.45 115.71 364.41 115.22 360.17 115.23C353.86 115.23 348.74 117.33 344.38 121.69C340.79 125.27 338.8 129.41 338 134.89C337.33 139.5 338.73 145.54 341.47 149.81C342.61 151.58 345.51 154.65 347.22 155.9C349.62 157.64 354.53 159.66 357.5 160.12C359.21 160.39 363.57 160.05 365.58 159.49ZM205.23 138.18C202.8 137.32 201.75 135.51 202.15 132.85C202.51 130.43 204.85 129 208.47 129C210.75 129 211.33 128.65 211.33 127.29C211.33 125.93 211.02 125.36 209.98 124.82C208.69 124.16 207.34 124.21 205.26 125C203.78 125.56 203.45 125.59 203.06 125.2C201.75 123.9 203.96 122.42 207.69 122.1C209.46 121.95 210.17 122.05 211.45 122.61C212.79 123.2 213.14 123.57 213.82 125.07C214.59 126.78 214.61 127.01 214.39 132.33L214.17 137.82L213.26 138.14C212.55 138.39 212.21 138.33 211.71 137.87C211.14 137.36 210.95 137.34 209.95 137.76C208.11 138.53 206.59 138.67 205.23 138.18ZM239.93 138.21C238.75 137.69 237.4 136.41 236.72 135.17C236.3 134.4 236.17 133.27 236.17 130.33C236.17 127.06 236.28 126.31 236.88 125.17C237.79 123.46 238.54 122.8 240.22 122.21C241.77 121.66 244.4 122.02 245.42 122.93C246.41 123.8 246.69 123 246.7 119.32C246.7 115.65 246.93 115 248.19 115C249.9 115 250 115.63 250 126.72C250 136.95 250 136.96 249.23 137.86C248.56 138.64 248.36 138.7 247.73 138.37C247.33 138.15 247 137.75 247 137.48C247 136.66 246.02 136.53 245.23 137.25C243.63 138.71 241.8 139.04 239.93 138.21ZM219.17 137.92C218.95 137.26 218.69 123.31 218.89 122.8C219.08 122.3 220.26 122.18 220.86 122.59C221.05 122.72 221.31 123.1 221.43 123.43C221.63 123.97 221.78 123.94 223.08 123.09C225 121.84 227.95 121.78 229.59 122.94C231.55 124.34 231.79 125.2 231.94 131.59C232.09 137.86 231.98 138.33 230.33 138.33C229.1 138.33 229.01 137.89 229 131.78C229 126.82 228.98 126.7 228.14 125.69C227.15 124.52 225.63 124.32 224 125.16C222.15 126.12 222 126.66 222 132.34C222 135.94 221.88 137.66 221.6 137.93C221.07 138.46 219.35 138.45 219.17 137.92ZM208.76 135.88C210.78 135.02 212.03 132.97 211.34 131.68C210.92 130.9 209.04 130.76 206.92 131.35C204.88 131.92 204.33 134.02 205.82 135.52C206.76 136.45 207.26 136.52 208.76 135.88ZM244.76 134.84C246.58 133.45 246.81 132.88 246.73 129.85C246.65 126.76 246.53 126.47 244.87 125.5C243.24 124.55 242.05 124.45 240.69 125.16C239.43 125.81 238.83 128.19 239.13 131.39C239.38 134.07 239.79 134.91 241.17 135.53C242.66 136.19 243.09 136.11 244.76 134.84ZM129.11 98.92C128.96 98.69 128.81 94.04 128.77 88.59C128.71 79.75 128.77 78.62 129.26 78.12C129.73 77.65 130.35 77.6 133.77 77.77C137.16 77.94 137.92 78.09 139.13 78.8C141.77 80.34 142.39 83.66 140.49 86.15C140.04 86.74 139.67 87.32 139.67 87.44C139.67 87.55 140.32 88.31 141.12 89.14C142.8 90.87 143.26 92.56 142.61 94.71C142.13 96.34 139.93 98.38 138.06 98.94C136.26 99.48 129.46 99.46 129.11 98.92ZM147.16 98.99C146.75 98.33 146.77 84.32 147.18 83.76C147.7 83.04 149.2 83.44 149.44 84.36C149.62 85.05 149.65 85.05 150.85 84.13C153.39 82.2 157.12 83.55 155.02 85.64C154.63 86.04 154.12 86.22 153.7 86.1C152.5 85.79 151.46 86.28 150.57 87.58C149.75 88.78 149.71 89.05 149.68 93.65C149.66 96.57 149.5 98.63 149.28 98.9C148.85 99.42 147.46 99.48 147.16 98.99ZM136.15 96.69C138.34 96.33 139.67 94.92 139.67 92.96C139.67 90.44 137.3 89.11 133.33 89.39L131.83 89.5L131.74 93.06C131.65 96.24 131.71 96.63 132.24 96.77C133.16 97.01 134.35 96.98 136.15 96.69ZM137.16 85.97C138.17 85.07 138.33 84.73 138.33 83.45C138.33 82.32 138.14 81.77 137.52 81.15C136.79 80.43 136.41 80.33 134.18 80.33L131.67 80.33L131.67 83.44C131.67 85.16 131.77 86.66 131.89 86.78C132.01 86.9 132.98 87 134.04 87C135.73 87 136.13 86.87 137.16 85.97ZM81.08 46.67C80.41 46.26 80 45.74 80 45.3C80 44.69 80.13 44.62 80.92 44.82C81.42 44.95 82.47 45.14 83.24 45.23C84.48 45.38 84.77 45.28 85.65 44.4C86.55 43.51 86.62 43.29 86.31 42.41C85.92 41.3 84.92 40.73 82.79 40.44C81.71 40.29 81.33 40.09 81.33 39.67C81.33 39.24 81.7 39.04 82.75 38.9C83.81 38.76 84.4 38.44 85.08 37.62C86.22 36.26 86.24 35.51 85.16 34.8C84.33 34.26 82.65 34.27 81.25 34.84C80.51 35.13 80.1 34.19 80.67 33.5C81.25 32.8 83.57 32.24 84.88 32.49C85.48 32.6 86.43 33.08 86.99 33.54C87.82 34.24 88 34.64 88 35.82C88 36.74 87.76 37.54 87.33 38.09C86.46 39.2 86.49 39.48 87.58 40.34C88.38 40.96 88.5 41.3 88.5 42.83C88.5 44.84 87.95 45.67 85.93 46.7C84.34 47.52 82.45 47.5 81.08 46.67ZM391.96 46.44C390.76 46.24 389.41 44.79 389.93 44.27C390.22 43.98 390.63 43.98 391.61 44.28C393.48 44.84 394.46 44.76 395.46 43.98C396.52 43.14 396.62 41.7 395.67 40.84C395.31 40.51 394.22 40.06 393.26 39.85C391.88 39.54 391.5 39.31 391.5 38.81C391.5 38.29 391.75 38.16 392.81 38.13C393.83 38.1 394.33 37.86 395.06 37.04C395.58 36.46 396 35.7 396 35.34C396 34.32 394.54 33.54 393.08 33.78C390.49 34.2 390.5 34.2 390.39 33.42C390.25 32.44 391.38 32 394.05 32C395.82 32 396.16 32.11 397.03 32.97C398.33 34.28 398.37 36.17 397.14 37.64L396.28 38.66L397.47 39.79C398.73 40.97 398.98 42.12 398.35 43.78C397.65 45.63 394.63 46.89 391.96 46.44ZM45.83 41.88C44 41.03 42.82 39.7 41.69 37.23C41.11 35.94 40.96 34.96 40.93 32.23C40.88 28.37 41.23 26.82 42.64 24.59C43.96 22.52 45.75 21.38 48.39 20.95C52.17 20.32 56.33 21.91 56.33 23.98C56.33 25.17 55.57 25.35 54.09 24.52C52.24 23.46 50.34 23.19 48.3 23.68C46.94 24 46.43 24.34 45.66 25.39C43.5 28.38 43.44 34.67 45.54 37.72C46.6 39.26 49.12 40.42 50.72 40.12C51.33 40 52.54 39.55 53.41 39.12C55.24 38.2 55.94 38.14 56.22 38.85C56.6 39.85 55.7 41.01 53.92 41.85C51.51 42.96 48.19 42.98 45.83 41.88ZM60.37 42.21C60.1 41.89 60.02 38.78 60.08 31.46C60.16 21.8 60.2 21.17 60.78 21.06C61.11 20.99 61.75 21.03 62.19 21.14C62.99 21.34 63 21.4 63 25.27C63 27.88 63.13 29.33 63.4 29.6C64 30.2 71.46 30.15 71.97 29.54C72.21 29.25 72.36 27.6 72.38 25.2C72.41 21.44 72.43 21.32 73.18 21.13C73.6 21.03 74.26 21.04 74.64 21.16C75.32 21.37 75.33 21.55 75.33 31.7L75.33 42.01L74.54 42.37C73.97 42.64 73.56 42.63 73.04 42.36C72.37 42 72.33 41.73 72.33 37.32L72.33 32.67L67.67 32.67L63 32.67L63 37.15C63 41.4 62.96 41.66 62.26 42.15C61.35 42.79 60.86 42.8 60.37 42.21ZM357 41.74C354.61 41.04 352.43 38.89 351.5 36.33C350.5 33.59 350.56 28.55 351.63 25.74C353.5 20.79 358.99 18.74 364.2 21.05C366.01 21.85 366.74 23.07 365.9 23.91C365.39 24.42 365.24 24.4 363.73 23.7C361.55 22.67 358.58 22.6 356.99 23.52C356.36 23.9 355.46 24.87 355 25.68C354.24 27.03 354.17 27.53 354.17 31.03C354.17 34.74 354.21 34.95 355.17 36.53C356.94 39.41 360.06 40.14 363.53 38.5C365.83 37.41 366.78 37.77 366.13 39.47C365.71 40.57 361.64 42.36 359.67 42.3C359.21 42.29 358.01 42.04 357 41.74ZM370.1 41.42C369.95 41.1 369.88 36.22 369.93 30.58L370.03 20.33L371.11 20.33C372.84 20.33 373 20.73 373 25.03C373 28.28 373.09 28.96 373.53 29.13C374.53 29.52 381.51 29.35 381.93 28.93C382.19 28.67 382.33 27.29 382.33 24.96C382.33 23 382.42 21.15 382.54 20.86C382.77 20.24 384.35 20.15 384.93 20.73C385.45 21.25 385.51 40.39 384.99 41.36C384.6 42.08 383.19 42.23 382.77 41.58C382.62 41.35 382.43 39.14 382.33 36.67L382.17 32.17L377.67 32.17L373.17 32.17L373 36.53C372.82 41.21 372.55 42 371.14 42C370.71 42 370.24 41.74 370.1 41.42Z" fill="#1e2749" fill-rule="evenodd"/>
</svg>
