<?xml version="1.0" encoding="UTF-8"?>
<svg xmlns="http://www.w3.org/2000/svg" viewBox="0 0 2430 2759" width="2430" height="2759" shape-rendering="geometricPrecision">
<path d="M2247.53 2692.38C2239.42 2667.7 2228.07 2633.1 2222.31 2615.5C2216.54 2597.9 2208.54 2573.6 2204.53 2561.5C2200.52 2549.4 2192.7 2525.55 2187.16 2508.5C2181.63 2491.45 2173.65 2466.93 2169.43 2454C2159.45 2423.37 2157.89 2417.73 2159.06 2416.55C2159.59 2416.01 2168.41 2415.57 2179.12 2415.55L2198.23 2415.5L2200.99 2424C2202.51 2428.68 2207.01 2443.3 2210.99 2456.5C2214.97 2469.7 2219.29 2483.88 2220.59 2488C2221.89 2492.12 2224.71 2501.35 2226.86 2508.5C2233 2529 2238.95 2548.68 2242.12 2559C2247.56 2576.69 2262.1 2625.44 2265.09 2636C2266.73 2641.78 2268.71 2648.53 2269.5 2651C2272.15 2659.32 2277.72 2678.44 2279.48 2685.26C2281.22 2691.98 2282.63 2694.33 2283.43 2691.81C2283.66 2691.09 2285.94 2682.85 2288.5 2673.5C2291.06 2664.15 2294.66 2651.78 2296.5 2646C2298.35 2640.22 2300.51 2633.25 2301.31 2630.5C2303.21 2623.97 2318.21 2576.33 2326.97 2549C2330.76 2537.18 2335.52 2522.1 2337.56 2515.5C2339.59 2508.9 2343.61 2496.29 2346.51 2487.47C2350.67 2474.8 2363.86 2432.63 2367.91 2419.03C2368.46 2417.18 2369.63 2416.35 2372.57 2415.73C2377.99 2414.58 2405.65 2415.24 2406.95 2416.55C2408.12 2417.72 2303.83 2732.42 2301.44 2734.93C2300.39 2736.03 2295.78 2736.45 2281.17 2736.8L2262.27 2737.26L2247.53 2692.38ZM2110 2364.46C2110 2363.07 2111.53 2357.98 2113.39 2353.15C2120.13 2335.69 2127.69 2305.55 2125.65 2304.28C2122.91 2302.56 1964.98 2302.16 1029.73 2301.44L39.97 2300.69L36.05 2296.44C28.47 2288.21 28.42 2279.76 35.92 2271.72L39.68 2267.69L213.62 2267.54C309.29 2267.46 388.17 2267.01 388.91 2266.56C390.04 2265.86 390.16 2111.98 389.67 1316.61C389.1 391.2 388.82 278.42 387.08 276.68C385.25 274.85 361.44 280.34 338.14 287.97C329.7 290.74 322.61 293 322.39 293C320.21 293 327.81 276.76 364 204.13C390.87 150.18 406.44 119.98 407.23 120.24C409.15 120.88 494.35 291.65 493.65 293.46C493.14 294.8 492.15 294.66 486.28 292.39C471.6 286.71 452.22 280.92 439.91 278.52C432.8 277.13 426.31 276 425.49 276C424.17 276 424 389.15 424 1270.89L424 2265.78L426.25 2266.31C427.49 2266.6 435.48 2266.68 444 2266.48C452.52 2266.29 490.77 2266.03 529 2265.92C602.42 2265.7 646.44 2264.81 672 2263.01C717.09 2259.86 778.9 2249.22 825.92 2236.53C936.83 2206.6 1032.79 2154.88 1114.11 2081.18C1132.22 2064.78 1164.17 2032.48 1179.1 2015.5C1229.43 1958.26 1271.95 1894.42 1313.53 1813.64C1329.84 1781.95 1350.92 1735.53 1362.42 1706C1364.45 1700.78 1367.49 1693.12 1369.18 1689C1370.86 1684.88 1373.95 1676.78 1376.03 1671C1378.12 1665.22 1382.27 1653.75 1385.25 1645.5C1403.97 1593.7 1423.86 1527.85 1439.46 1466C1468.46 1351.06 1490.94 1229.15 1510.45 1081C1515.79 1040.43 1523.89 965.04 1527.97 918C1529.09 905.08 1530.44 889.55 1530.97 883.5C1532.72 863.58 1536.65 806.53 1537.96 782C1541.51 715.62 1541.38 719.01 1544.5 613.5C1545.43 582.04 1546.93 552.66 1547.86 547.71C1548.35 545.08 1549.56 542.04 1550.54 540.96C1554.98 536.05 1566.71 535.98 1572.12 540.82C1577.06 545.26 1577.33 550.33 1576.56 625.5C1576.18 662.35 1575.72 695.65 1575.54 699.5C1575.35 703.35 1574.91 713.25 1574.55 721.5C1564.18 959.63 1532.11 1211.51 1486.94 1409.5C1474.24 1465.18 1460.68 1516.82 1445.41 1567.78C1438.28 1591.54 1416.59 1657.46 1411.44 1671C1409.66 1675.67 1405.21 1687.38 1401.55 1697C1368.42 1784.12 1327.01 1866.91 1283.26 1933.5C1217.79 2033.13 1132.54 2119.93 1045 2176.06C1027.75 2187.13 992.74 2207.01 973 2216.95C943.53 2231.79 915.56 2243.1 873.75 2257.09C860.14 2261.64 849 2265.68 849 2266.06C849 2266.43 852.04 2266.98 855.75 2267.26C861.94 2267.74 1790.08 2267.55 1991.5 2267.03C2086.7 2266.79 2123.07 2266.01 2125.28 2264.18C2126.89 2262.85 2126.42 2258.44 2122.96 2242.5C2121.2 2234.36 2112.76 2207.54 2109.47 2199.63C2108.8 2198.02 2109.02 2197.87 2111.1 2198.53C2116.23 2200.16 2155.64 2219.32 2218.09 2250.54C2273.33 2278.17 2283.07 2283.35 2281.89 2284.51C2281.13 2285.25 2269.7 2291.02 2256.5 2297.31C2243.3 2303.6 2212.03 2318.76 2187 2330.98C2146.17 2350.93 2112.07 2367 2110.56 2367C2110.25 2367 2110 2365.86 2110 2364.46ZM171.19 198.05C171.39 92.48 171.84 36.76 172.5 36.12C174 34.64 209.53 33.44 210.4 34.83C211.23 36.18 211.31 356.7 210.47 358.05C210.13 358.6 201.67 359 190.38 359L170.89 359L171.19 198.05Z" fill="#1e2749" fill-rule="evenodd"/>
</svg>
