<?xml version="1.0" encoding="UTF-8"?>
<svg xmlns="http://www.w3.org/2000/svg" viewBox="0 0 431 171" width="431" height="171" shape-rendering="geometricPrecision">
<path d="M83.67 162.44C82.32 161.96 82.33 162.13 82.33 136.78C82.33 109.45 82.57 111.98 79.93 111.57C76.55 111.05 71.85 107.72 69.59 104.24C67.51 101.06 67.17 99.68 67.17 94.67L67.17 90.17L68.47 87.51C70.13 84.1 72.63 81.56 75.94 79.91C77.28 79.24 78.93 78.6 79.61 78.49C80.28 78.38 81.17 78.15 81.58 77.99L82.33 77.68L82.34 55.76C82.34 43.7 82.43 33.5 82.54 33.08L82.75 32.33L112.62 32.41L142.5 32.5L142.59 45.75L142.67 59L144.27 59C145.15 59 146.14 59.19 146.46 59.43C147.01 59.83 147.01 59.89 146.38 60.46C145.49 61.27 138.81 61.43 138.32 60.65C137.79 59.81 137.97 59.35 138.92 59.15C139.42 59.03 140.02 58.89 140.25 58.81C140.59 58.71 140.66 56.1 140.59 46.59L140.5 34.5L112.5 34.5L84.5 34.5L84.4 55.5C84.35 67.05 84.39 76.82 84.48 77.21C84.61 77.74 85.01 77.97 86.08 78.13C91.45 78.96 96.85 82.78 98.95 87.23C99.37 88.11 99.83 89.07 99.99 89.36C100.14 89.65 100.45 91.01 100.67 92.39C101.18 95.57 100.69 98.89 99.24 102C98.05 104.54 93.65 109.16 91.5 110.11C90.77 110.43 89.92 110.83 89.63 110.99C89.33 111.15 88.13 111.47 86.96 111.69C85.79 111.92 84.72 112.27 84.59 112.47C84.2 113.04 84.31 159.32 84.69 160.05C85.01 160.65 87 160.67 146.61 160.67C195.36 160.67 208.32 160.58 208.77 160.25C209.3 159.86 209.33 157.7 209.25 129.17L209.17 98.5L206.68 98.4C203.12 98.26 202.97 97.81 205 93.46C205.73 91.89 206.33 90.55 206.33 90.49C206.33 90.43 206.78 89.41 207.33 88.22C208.74 85.18 208.7 85 206.56 85C204.59 85 203.44 84.4 203.77 83.55C203.94 83.11 204.45 83 206.28 83C207.82 83 208.71 82.85 208.96 82.55C209.24 82.22 209.31 75.6 209.25 58.3L209.17 34.5L191.67 34.5L174.17 34.5L174.17 46.65L174.17 58.81L175.27 59.03C176.66 59.32 176.9 59.56 176.45 60.26C175.94 61.08 173.81 61.39 170.8 61.09C168.28 60.84 168.17 60.8 168.17 60C168.17 59.23 168.31 59.15 170 59L171.83 58.83L171.92 46.58L172.01 34.33L164.86 34.33L157.72 34.33L157.61 40.08C157.55 43.25 157.57 48.14 157.67 50.97C157.81 55.38 157.9 56.03 158.29 55.55C158.9 54.82 160.33 54.82 160.33 55.55C160.33 55.86 159.96 56.6 159.5 57.2C158.4 58.64 158.45 59 159.75 59.01C161.28 59.01 161.94 59.48 161.46 60.24C161.19 60.68 160.44 60.9 158.5 61.09C155.17 61.43 153.2 61.07 153.07 60.11C152.99 59.58 153.22 59.32 154.02 59.04C154.92 58.73 155.04 58.56 154.84 57.92C154.21 55.91 154.24 55.24 154.97 54.69C155.69 54.14 155.7 54.05 155.69 43.75C155.68 38.04 155.76 33.13 155.87 32.85C156.05 32.39 159.83 32.33 191.79 32.33C231.19 32.33 228.7 32.47 229.18 30.25C229.72 27.74 231.85 25.08 234.33 23.81C235.95 22.98 239.42 22.97 241.17 23.79C242.69 24.5 244.48 26.07 245.33 27.43L245.9 28.35L247.42 26.58C249.5 24.14 251.5 23.16 254.31 23.19C257.09 23.22 258.66 24.01 260.92 26.48L262.61 28.33L263.79 26.73C267.29 21.95 274.13 21.97 277.66 26.75L278.83 28.34L280.46 26.49C282.6 24.04 284.23 23.22 287 23.19C288.58 23.17 289.58 23.36 290.7 23.89C292.74 24.86 295.01 27.46 295.79 29.7C296.13 30.69 296.56 31.69 296.74 31.92C297.01 32.24 303.2 32.33 325.67 32.33C351.43 32.33 354.28 32.39 354.46 32.86C354.58 33.15 354.67 41.15 354.67 50.64C354.67 70.28 354.31 68.14 357.92 70.02C359.07 70.62 360.15 71.28 360.33 71.5C360.91 72.19 359.34 73.17 355.25 74.67C353.1 75.46 351.33 76.27 351.34 76.47C351.34 76.67 352.95 77.42 354.92 78.13C359.34 79.74 360.33 80.23 360.33 80.79C360.33 81.58 359.22 82.21 355.25 83.67C353.1 84.46 351.33 85.23 351.33 85.39C351.33 85.65 351.93 85.96 353.83 86.66C354.2 86.8 355.4 87.24 356.5 87.65C359.78 88.86 360.01 88.97 360.22 89.51C360.43 90.06 359.48 91.34 358.87 91.33C357.92 91.32 351 94.15 351 94.54C351 94.78 351.82 95.36 352.83 95.82L354.67 96.66L354.7 107.08C354.72 112.81 354.72 119.52 354.72 122C354.71 124.47 354.78 126.76 354.87 127.08C355.03 127.62 355.76 127.67 363.96 127.67C371.37 127.67 372.98 127.75 373.52 128.17C374.16 128.66 374.16 128.67 373.52 129.17C372.96 129.6 370.24 129.67 353.8 129.67C343.31 129.67 334.48 129.58 334.19 129.46C333.51 129.2 333.51 128.13 334.19 127.87C334.48 127.76 338.59 127.67 343.32 127.67C350.28 127.67 351.99 127.58 352.31 127.2C352.91 126.47 353.19 99.03 352.61 98.27C352.36 97.95 351.04 97.12 349.67 96.41C347.59 95.34 347.17 94.99 347.17 94.31C347.17 93.58 347.58 93.35 351.61 91.83C354.06 90.92 356.06 90.02 356.06 89.84C356.05 89.66 355.15 89.21 354.05 88.84C352.95 88.47 351.94 88.05 351.8 87.92C351.67 87.78 351.34 87.67 351.08 87.67C350.65 87.67 348.96 87.02 347.67 86.35C346.74 85.88 346.87 84.71 347.89 84.29C348.41 84.08 349.31 83.7 349.88 83.45C350.46 83.2 351.17 83 351.45 83C351.73 83 352.04 82.87 352.14 82.71C352.24 82.55 352.96 82.25 353.74 82.06C355.52 81.61 356.74 80.79 356 80.55C353.1 79.6 347.74 77.49 347.38 77.16C346.35 76.2 347.26 75.53 351.9 73.81C354.41 72.88 356.51 71.96 356.58 71.76C356.65 71.56 356.02 71.14 355.19 70.82C354.36 70.51 353.51 70.05 353.31 69.8C353.05 69.49 352.96 64.28 352.98 52.32C353.02 39.79 352.92 35.14 352.64 34.8C352.31 34.41 348.84 34.33 331.13 34.33L310 34.33L310 67.47C310.01 97.29 310.06 100.62 310.53 100.8C310.82 100.91 313.36 101 316.17 101C321.47 101 322.27 101.21 321.19 102.28C320.71 102.77 319.39 102.84 309.83 102.9C299.92 102.95 298.96 102.91 298.29 102.37C296.93 101.26 297.76 101 302.65 101C306.12 101 307.34 100.89 307.63 100.55C307.9 100.22 307.98 91.25 307.92 67.3L307.83 34.5L301.46 34.46C297.95 34.44 294.91 34.32 294.71 34.19C294.5 34.06 294.33 33.33 294.33 32.56C294.33 30.67 293.03 28.01 291.49 26.74C289.15 24.81 285.5 24.69 283.17 26.47C281.81 27.52 280.67 29.55 280.67 30.95C280.67 32.7 280.26 34.02 279.6 34.37C278.62 34.9 278 34.17 278 32.48C278 31.69 277.86 30.95 277.69 30.85C277.52 30.74 277.29 30.25 277.18 29.75C276.94 28.64 275.01 26.53 273.56 25.78C272.21 25.07 269.15 25.06 267.83 25.75C265.6 26.92 263.67 30.07 263.67 32.53C263.67 33.97 262.88 34.94 262.1 34.46C261.68 34.21 261.43 33.49 261.27 32.07C261.04 29.99 260.52 28.88 259.02 27.22C257.74 25.8 256.38 25.23 254.29 25.22C251.84 25.22 250.17 26.1 248.77 28.14C247.87 29.44 247.67 30.06 247.67 31.46C247.67 33.26 247 34.67 246.16 34.67C245.53 34.67 245 33.61 245 32.33C245 30.8 243.47 27.82 242.08 26.68C239.14 24.26 234.52 24.85 232.41 27.93C231.6 29.11 230.67 31.64 230.66 32.68C230.65 34.42 230.76 34.4 220.79 34.45L211.5 34.5L211.5 58.67L211.5 82.83L214.89 83C216.76 83.09 218.39 83.28 218.53 83.41C218.66 83.55 218.5 83.96 218.17 84.33C217.67 84.89 217.14 85 215.12 85C212.31 85 212.22 85.13 213.44 87.4C215.14 90.54 217.78 95.2 218.21 95.82C218.81 96.69 218.79 97.97 218.17 98.21C217.9 98.31 216.29 98.42 214.59 98.45L211.5 98.5L211.41 129.13C211.35 151.49 211.43 159.88 211.71 160.21C212.27 160.89 307.07 160.89 307.63 160.21C307.9 159.88 307.98 152.83 307.92 134.3L307.83 108.83L303.12 108.74C299.39 108.67 298.31 108.54 297.98 108.14C297.71 107.81 297.67 107.53 297.89 107.31C298.33 106.87 321.01 106.87 321.45 107.31C321.66 107.52 321.62 107.82 321.35 108.14C321.01 108.55 319.88 108.67 315.55 108.74L310.17 108.83L310.08 134.48C310.01 154.1 310.08 160.18 310.39 160.37C310.61 160.5 319.98 160.63 331.22 160.65C350.94 160.68 351.68 160.65 352.3 160.04C352.9 159.43 352.94 158.77 352.96 148.05C352.98 141.8 352.9 136.46 352.79 136.18C352.63 135.74 351.7 135.67 346.66 135.67C343.39 135.67 340.48 135.58 340.19 135.46C339.55 135.22 339.5 134.14 340.12 133.9C340.61 133.71 350.17 133.59 360.52 133.64C365.62 133.66 367 133.77 367.52 134.17C368.16 134.66 368.16 134.67 367.52 135.17C367 135.57 365.68 135.67 360.77 135.67L354.67 135.67L354.67 148.65L354.67 161.63L353.93 162.15C353.26 162.62 339.91 162.66 218.68 162.64C144.7 162.63 83.94 162.53 83.67 162.44ZM389.33 143.61C387.74 143.15 387.33 142.75 387.33 141.63C387.33 140.51 387.38 140.5 389.47 141.21C392.73 142.32 395.67 140.86 395.67 138.14C395.67 135.77 394.48 135 390.8 135C388.11 135 388 134.8 388 130.04C388 125.42 388.08 125.33 392.55 125.33C396.94 125.33 398.54 126.15 397.16 127.68C396.65 128.24 396.12 128.33 393.6 128.33L390.63 128.33L390.73 130.42L390.83 132.5L393.08 132.72C397.14 133.12 398.89 134.96 398.6 138.5C398.45 140.28 398.31 140.55 396.94 141.86C394.82 143.85 392.26 144.44 389.33 143.61ZM413.6 143.43C413.03 143.29 412.83 142.83 410.51 136.5C409.84 134.67 408.78 131.76 408.15 130.05C406.72 126.16 406.7 125.67 407.94 125.67C408.45 125.67 409.14 125.86 409.46 126.1C409.98 126.47 411.31 129.97 413.74 137.26C414.21 138.67 414.55 139.25 414.77 139.03C414.96 138.84 416.05 135.89 417.21 132.45C418.37 129.02 419.51 126.09 419.74 125.95C420.39 125.53 421.54 125.62 421.95 126.1C422.22 126.43 421.79 127.94 420.28 132.02C419.16 135.03 417.8 138.74 417.24 140.26C416.69 141.78 416.15 143.07 416.04 143.13C415.57 143.38 414.13 143.56 413.6 143.43ZM366.27 123.75C366.17 122.56 366.1 122.49 364.83 122.33C363.61 122.18 363.5 122.08 363.5 121.17C363.5 120.27 363.6 120.17 364.48 120.24C365.83 120.34 366.35 119.82 366.11 118.61C365.91 117.65 365.94 117.62 367.04 117.73C367.97 117.81 368.23 118.02 368.5 118.87C368.68 119.43 369.04 120.15 369.3 120.46C369.7 120.95 369.67 121.12 369.05 121.78C368.66 122.2 368.33 122.92 368.33 123.37C368.33 124.34 367.77 125 366.95 125C366.52 125 366.35 124.68 366.27 123.75ZM284.83 114.69C283.31 114.33 282.03 113.37 281.05 111.86C280.24 110.61 280.17 110.22 280.17 107C280.17 104.02 280.28 103.29 280.91 102.11C282.16 99.77 283.35 99.17 286.72 99.17C289.32 99.17 289.7 99.25 290.47 99.97C291.46 100.91 291.55 101.41 290.81 102.02C290.38 102.38 290.13 102.36 289.34 101.89C288.02 101.11 285.32 101.16 284.27 101.98C282.01 103.75 282.25 110.71 284.62 111.97C285.63 112.51 288.27 112.41 289.33 111.78C290.41 111.15 291.33 111.37 291.33 112.27C291.33 113.16 290.31 113.97 288.48 114.52C286.76 115.04 286.36 115.06 284.83 114.69ZM88.06 109.34C90.74 108.51 92.84 107.13 94.98 104.79C97.36 102.19 99 98.17 99 94.95C99 91.64 96.87 86.56 94.61 84.48C90.73 80.91 87.62 79.87 82.17 80.32C79.37 80.55 78.49 80.77 76.7 81.69C72.8 83.7 70.33 86.95 69.18 91.55C68.54 94.11 68.54 95.39 69.17 98.12C71.21 106.91 79.66 111.94 88.06 109.34ZM36.55 108.66C35.37 108.31 34.44 107.48 33.72 106.17C33.29 105.39 33.17 104.23 33.17 101C33.17 97.17 33.23 96.71 34.01 95.34C35.02 93.52 36.26 92.86 38.61 92.89C41.64 92.92 43.2 94.59 43.73 98.38C44.46 103.58 42.82 107.8 39.73 108.65C38.31 109.05 37.86 109.05 36.55 108.66ZM22 108.42C20.43 107.82 20.87 106.4 23.52 103.6C24.7 102.35 26.05 100.73 26.53 100.01C27.5 98.55 27.71 96.69 27 95.84C26.55 95.29 25.83 95.27 22.33 95.73C21.22 95.87 21.03 94.71 22.02 93.81C22.61 93.28 23.23 93.17 25.57 93.17C28.4 93.17 28.41 93.17 29.37 94.32C31.27 96.6 30.52 99.35 26.96 103.15C24.32 105.98 24.44 106.33 28 106.33C30.19 106.33 30.73 106.43 30.9 106.89C31.03 107.24 30.84 107.66 30.35 108.05C29.72 108.57 29.02 108.66 26.05 108.64C24.1 108.63 22.27 108.53 22 108.42ZM55.32 108.04C54.97 107.74 53.98 105.55 53.14 103.17C52.3 100.78 51.25 97.82 50.81 96.59C49.73 93.59 49.75 93.33 51.12 93.33C52.38 93.33 52.41 93.4 54.32 98.83C56.47 104.95 56.42 104.84 56.75 104.32C56.91 104.05 57.83 101.51 58.79 98.67C60.46 93.74 60.58 93.49 61.48 93.39C63.35 93.17 63.38 93.03 59.78 103C58.95 105.29 58.14 107.4 57.98 107.7C57.56 108.5 56.09 108.68 55.32 108.04ZM80.22 107.11C80.1 106.99 80 106.54 80 106.11C80 105.35 80.07 105.33 83.27 105.33C86.87 105.33 87.73 105.68 86.78 106.73C86.33 107.22 85.71 107.33 83.34 107.33C81.75 107.33 80.34 107.23 80.22 107.11ZM39.63 106.14C40.98 105.01 41.45 103.16 41.25 99.8C41.06 96.84 40.72 95.94 39.49 95.13C38.37 94.39 37.13 94.77 36.32 96.09C35.79 96.98 35.67 97.78 35.67 100.59C35.67 104.23 36.12 105.98 37.22 106.62C38.14 107.16 38.52 107.08 39.63 106.14ZM172.38 90.25C172.11 89.97 172 86.46 172 77.77L172 65.67L157.06 65.67C141.36 65.67 140.57 65.59 141.1 64.21C141.29 63.72 142.77 63.67 157.26 63.67C169.21 63.67 173.3 63.77 173.6 64.07C173.9 64.36 174 67.75 174 77.22C174 89.28 173.97 89.99 173.38 90.31C172.96 90.53 172.65 90.52 172.38 90.25ZM82.54 88.49C82.43 88.19 82.33 87.67 82.33 87.34C82.33 86.71 81.71 86.33 80.64 86.33C79.79 86.33 79.74 84.73 80.58 84.47C81.74 84.11 82.15 83.76 82.34 82.97C82.59 81.9 84.33 81.59 84.33 82.62C84.33 83.78 84.72 84.33 85.51 84.33C85.94 84.33 86.53 84.57 86.82 84.87C87.53 85.58 86.97 86.26 85.56 86.4C84.63 86.49 84.48 86.64 84.33 87.67C84.21 88.54 83.99 88.86 83.46 88.93C83.04 88.99 82.67 88.81 82.54 88.49ZM370 79.62C368.65 79.24 368 78.53 368 77.44C368 76.54 368.34 76.5 370.17 77.16C372.5 78 373.91 77.82 375.2 76.53C376.45 75.29 376.6 74.53 375.82 73.41C375.08 72.36 374.12 71.93 372.04 71.7C370.88 71.57 370.11 71.3 369.89 70.94C369.31 70.03 370.19 69.33 371.9 69.33C373.92 69.33 375.33 67.99 375.33 66.08C375.33 63.6 373.03 62.8 370.2 64.29C368.75 65.06 368.33 64.97 368.34 63.9C368.35 62.85 368.67 62.48 370.12 61.87C373.05 60.65 376.92 61.47 378.03 63.55C378.81 65.01 378.59 67.43 377.56 68.78C377.07 69.43 376.67 70.04 376.67 70.14C376.67 70.25 377.27 70.93 378 71.67C379.12 72.78 379.33 73.22 379.33 74.35C379.33 78.43 374.85 80.96 370 79.62ZM388.92 79.44C388.29 79.27 387.8 77.93 388.15 77.35C388.27 77.16 388.8 77 389.33 77C390.59 77 390.8 76.59 390.04 75.62C388.66 73.85 388.33 72.75 388.33 69.88C388.33 64.15 390.97 61.33 396.33 61.33C399.97 61.33 402.21 62.62 403.54 65.47C404.94 68.47 404.53 72.88 402.63 75.29C401.72 76.45 401.85 76.94 403.08 77.06C403.99 77.15 404.18 77.32 404.27 78.08C404.4 79.2 403.44 79.67 401 79.67C398.49 79.67 397.67 79.23 397.67 77.91C397.67 77.06 397.97 76.5 398.99 75.51C400.77 73.77 401.33 72.46 401.33 70.02C401.33 66.2 399.93 64.37 396.78 64.12C393.04 63.81 391.33 65.62 391.33 69.89C391.33 72.88 391.65 73.72 393.54 75.74C395.23 77.55 395.36 78.55 394 79.24C393.2 79.64 390.15 79.76 388.92 79.44ZM148.67 24.62C147.31 24.24 146.67 23.53 146.67 22.4C146.67 21.68 146.77 21.62 147.58 21.81C148.09 21.94 149.35 22.12 150.38 22.22C151.99 22.38 152.36 22.31 152.96 21.7C154.29 20.38 153.77 19.2 151.29 17.91C148 16.18 147.01 14.98 147 12.76C147 9.96 149.73 8.33 153.32 9C155.2 9.35 155.94 10.21 155.08 11.07C154.51 11.64 154.4 11.64 153.08 11.12C151.92 10.66 151.53 10.64 150.68 10.99C149.85 11.34 149.67 11.61 149.67 12.48C149.67 13.76 150.46 14.57 152.87 15.78C156.51 17.6 157.39 20.31 155.18 22.9C153.59 24.76 151.32 25.35 148.67 24.62ZM260.48 21.19C259.89 20.76 259.82 20.2 259.73 14.3C259.6 6.53 259.65 6.26 261.09 6.4L262.17 6.5L262.26 12.75C262.36 19.89 262.02 19.25 265.83 19.41C267.62 19.49 267.84 19.58 267.94 20.25C268.02 20.8 267.82 21.09 267.17 21.33C265.82 21.85 261.24 21.75 260.48 21.19Z" fill="#1e2749" fill-rule="evenodd"/>
</svg>
