<?xml version="1.0" encoding="UTF-8"?>
<svg xmlns="http://www.w3.org/2000/svg" viewBox="0 0 500 149" width="500" height="149" shape-rendering="geometricPrecision">
<path d="M126 123.99C116.01 123.9 107.82 123.78 107.8 123.74C107.78 123.7 107.09 122.5 106.26 121.08C105.44 119.66 103.44 116.17 101.82 113.33C100.2 110.49 98.07 106.85 97.1 105.24C96.13 103.63 95.33 102.22 95.33 102.1C95.33 101.98 94.68 100.83 93.88 99.53C93.08 98.23 91.54 95.62 90.46 93.72C89.38 91.83 88.12 89.62 87.66 88.82C87.2 88.01 86.64 87.18 86.43 86.96C86.14 86.67 82.78 86.59 73.53 86.64C64.95 86.69 60.82 86.59 60.35 86.34C59.67 85.98 59.4 84.54 59.94 84.2C60.09 84.11 65.94 84 72.93 83.97C85.39 83.9 85.65 83.89 86.27 83.2C86.87 82.52 89 79.13 89 78.85C89 78.77 90.32 76.48 91.94 73.77C93.56 71.05 95.34 68.01 95.89 67C96.44 65.99 98.16 62.99 99.72 60.33C104.02 52.99 106.44 48.79 107.11 47.5L107.72 46.33L130.18 46.33L152.63 46.33L153.6 47.75C154.12 48.53 155.92 51.57 157.58 54.5C160.37 59.43 162.35 62.87 169.11 74.56C170.51 76.98 171.93 79.45 172.28 80.06C173.91 82.94 174.42 83.65 174.94 83.79C175.25 83.87 181.16 83.94 188.07 83.94C194.98 83.94 200.79 84.04 200.99 84.16C201.53 84.49 201.4 85.51 200.73 86.11C200.19 86.6 198.64 86.67 187.16 86.75L174.21 86.83L172.58 89.5C171.69 90.97 170.82 92.5 170.66 92.9C170.5 93.3 169.95 94.28 169.44 95.07C168.93 95.86 168.35 96.8 168.15 97.17C167.68 98.03 159.12 112.89 156.73 117C155.72 118.74 154.54 120.78 154.11 121.53C152.71 124 152.47 124.1 148.08 124.13C145.93 124.15 135.99 124.09 126 123.99ZM342.36 121.09C341.79 120.41 341.33 119.73 341.33 119.59C341.33 119.44 340.03 117.12 338.44 114.41C334.91 108.41 333.33 105.64 333.33 105.47C333.33 105.4 331.96 103.05 330.29 100.26C327.49 95.59 325.57 92.23 323.18 87.83C322.68 86.92 321.9 85.83 321.44 85.41L320.61 84.65L308.19 84.74C294.85 84.84 294.67 84.82 294.67 83.16C294.67 82.56 294.91 82.36 295.88 82.18C296.55 82.05 302.42 81.99 308.93 82.04L320.76 82.13L321.58 81.15C322.03 80.61 323.38 78.44 324.59 76.33C325.79 74.22 327.78 70.77 329.01 68.67C330.24 66.56 331.62 64.16 332.08 63.33C332.54 62.51 334.6 58.91 336.66 55.33C338.71 51.76 340.77 48.16 341.23 47.33C342.87 44.38 340.33 44.67 365.33 44.67C386.08 44.67 387.6 44.71 388.08 45.25C388.54 45.76 393.24 53.74 395.6 58C396.05 58.82 397.43 61.23 398.66 63.33C403.57 71.74 404.63 73.57 405.5 75.17C406 76.08 406.91 77.6 407.52 78.53C408.13 79.47 408.82 80.63 409.04 81.12C409.39 81.88 409.64 82 410.97 82.01C411.81 82.02 417.65 82.05 423.94 82.07C434.4 82.1 435.45 82.16 436.11 82.7L436.83 83.29L436.09 84.05L435.35 84.8L422.59 84.82C415.57 84.84 409.64 84.97 409.41 85.11C409.18 85.26 408.6 86.16 408.12 87.11C407.64 88.06 406.76 89.58 406.17 90.5C405.57 91.42 404.6 93.07 404.01 94.17C403.42 95.27 402.82 96.32 402.67 96.5C402.52 96.68 400.98 99.31 399.25 102.33C397.52 105.36 395.01 109.71 393.68 112C391.25 116.18 389.17 119.78 388.45 121.07C388.23 121.45 387.86 121.88 387.61 122.04C387.37 122.2 377.32 122.33 365.27 122.33L343.38 122.33L342.36 121.09ZM151.26 120.75C151.63 120.43 152.49 119.12 153.18 117.83C154.38 115.6 155.36 113.89 156.25 112.49C156.47 112.13 156.98 111.23 157.37 110.5C157.77 109.77 159.38 106.99 160.95 104.33C162.52 101.67 164.05 99.05 164.34 98.5C164.63 97.95 166.48 94.7 168.45 91.27L172.03 85.04L170.74 82.77C167.28 76.71 165.06 72.86 163.16 69.67C160.22 64.72 157.33 59.66 157.33 59.46C157.33 59.31 154.29 54.11 152.97 52C152.79 51.73 152.44 51.03 152.17 50.46C151.91 49.89 151.35 49.33 150.93 49.21C150.51 49.1 140.98 49.01 129.76 49L109.35 49L108.89 49.75C108.63 50.16 107.84 51.54 107.13 52.82C106.42 54.1 105.42 55.82 104.92 56.65C104.42 57.49 103.82 58.54 103.6 59C103.37 59.46 102.54 60.9 101.76 62.21C100.97 63.52 100.33 64.67 100.33 64.78C100.33 64.88 99.26 66.74 97.96 68.9C95.75 72.54 93.08 77.21 91.6 80C91.25 80.64 90.54 81.84 90.01 82.67C88.75 84.64 88.77 85.33 90.17 87.71C90.81 88.81 91.33 89.76 91.33 89.82C91.33 89.88 92.21 91.41 93.28 93.22C95.5 96.96 105.02 113.49 107.27 117.5C108.09 118.97 108.99 120.43 109.27 120.75C109.74 121.29 111.16 121.33 130.18 121.33C149.14 121.33 150.64 121.29 151.26 120.75ZM385.99 119.34C386.48 119.08 389.33 114.65 389.33 114.15C389.33 114.09 390.23 112.54 391.33 110.72C392.43 108.9 393.33 107.33 393.33 107.24C393.33 107.14 393.91 106.12 394.62 104.95C395.33 103.79 398.27 98.71 401.16 93.68C404.05 88.65 406.57 84.28 406.76 83.97C407.15 83.36 407.08 83.16 405.76 80.94C405.25 80.08 402.09 74.6 398.74 68.77C388.48 50.91 387.19 48.7 386.58 48C386.01 47.34 385.71 47.33 365.08 47.41L344.17 47.5L343.67 48.5C343.39 49.05 342.81 50.1 342.37 50.83C341.93 51.57 339.59 55.62 337.17 59.83C334.75 64.05 332.07 68.67 331.22 70.11C330.36 71.55 329.67 72.77 329.67 72.82C329.67 72.88 328.44 75 326.95 77.54C324.93 80.97 324.23 82.47 324.23 83.33C324.23 84.22 325.23 86.23 328.4 91.67C332.28 98.35 341.92 115.04 343.41 117.67C343.77 118.31 344.22 119.02 344.41 119.25C344.84 119.78 385.01 119.86 385.99 119.34ZM126.35 104.8C120.45 103.51 114.82 99.16 112.46 94.07C109.29 87.22 109.88 79.5 114.05 73.43C117.61 68.24 123.34 65.31 129.99 65.26C135.96 65.21 140.98 67.33 145.31 71.73C147.27 73.71 148.17 75.32 149.46 79.06C151.31 84.46 150.19 92.07 146.92 96.36C143.56 100.77 139.17 103.66 134.1 104.8C131.25 105.43 129.27 105.43 126.35 104.8ZM362.83 103.3C359.93 103 358.44 102.51 355.57 100.88C350.49 98 347.03 93.11 345.82 87.09C345.27 84.37 345.25 83.72 345.62 81.04C346.37 75.74 348.22 72.09 351.91 68.65C355.99 64.83 362.04 62.89 367.47 63.65C372.58 64.37 376.2 66.01 379.23 68.97C383.39 73.03 385.43 77.84 385.39 83.5C385.34 90.78 381.78 96.86 375.29 100.71C371.49 102.97 367.59 103.78 362.83 103.3ZM135.43 101.64C136.57 101.26 138.29 100.49 139.26 99.94C141.21 98.83 144.6 95.13 145.64 92.97C148.96 86.11 147.73 78.2 142.55 72.96C139.79 70.18 136.86 68.78 132.7 68.27C127.29 67.6 122.99 68.73 119.34 71.77C114.71 75.64 112.63 81.07 113.35 87.46C114.08 93.95 119.34 100.11 125.64 101.85C128.17 102.55 133.02 102.44 135.43 101.64ZM368 100.53C371.77 99.91 374.3 98.57 377.38 95.56C380.31 92.7 381.76 90.01 382.51 86.04C382.92 83.89 382.95 82.91 382.67 81.35C381.58 75.36 378.87 71.3 374.17 68.61C370.9 66.75 368.64 66.23 364.63 66.41C360.19 66.62 357.26 67.68 354.24 70.17C351.74 72.23 350.31 74.33 349.13 77.7C348.33 79.96 348.27 80.49 348.41 84.17C348.55 87.91 348.64 88.33 349.78 90.8C350.74 92.88 351.51 93.92 353.42 95.76C356.23 98.47 358.8 99.83 362.39 100.48C363.73 100.73 364.91 100.94 365 100.96C365.09 100.98 366.44 100.79 368 100.53ZM208.01 94.34C207.65 94.12 207.57 92.27 207.59 84.86C207.61 79.81 207.72 75.52 207.83 75.33C208.13 74.86 210.43 74.92 211.09 75.42C211.39 75.65 212.3 77.03 213.11 78.5C213.92 79.97 214.92 81.77 215.34 82.5C215.76 83.23 216.74 85.01 217.51 86.45C218.49 88.26 219 88.93 219.19 88.62C219.34 88.38 219.45 85.29 219.42 81.76L219.37 75.34L220.21 75.12C221.9 74.7 221.98 75.11 222.03 84.37C222.08 93.76 221.98 94.33 220.32 94.33C219.05 94.33 218.29 93.55 216.85 90.76C216.21 89.52 215.08 87.45 214.34 86.17C213.6 84.88 212.51 82.9 211.93 81.75C211.34 80.6 210.76 79.67 210.64 79.67C210.21 79.67 210.1 81.54 210.21 86.93C210.26 89.91 210.17 92.71 210 93.16C209.63 94.13 208.63 94.72 208.01 94.34ZM20.22 94.11C20.1 93.99 20 89.64 20 84.44L20 75L20.92 75.01C22.52 75.01 22.64 75.28 22.74 79.18L22.83 82.83L26.64 82.93C28.9 82.98 30.58 82.89 30.78 82.68C30.97 82.49 31.09 81.03 31.04 79.32C30.95 75.71 31.13 75 32.12 75C33.62 75 33.67 75.31 33.67 84.67C33.67 94.05 33.62 94.33 32.1 94.33C31.19 94.33 31.23 94.5 31.18 89.76C31.15 87.71 31.02 85.91 30.87 85.76C30.54 85.43 24.58 85.2 23.49 85.47C22.68 85.68 22.67 85.73 22.67 89.36C22.67 91.39 22.51 93.33 22.32 93.69C21.99 94.31 20.68 94.57 20.22 94.11ZM38.89 94.11C38.77 93.99 38.67 89.73 38.67 84.65C38.67 74.59 38.59 75 40.55 75C42.25 75 42.47 75.27 45.83 81.5C46.52 82.78 47.51 84.52 48.04 85.36C48.56 86.2 49.16 87.36 49.37 87.95C49.64 88.74 49.85 88.93 50.15 88.68C50.44 88.44 50.58 86.53 50.62 81.93C50.65 78.31 50.82 75.38 51.01 75.19C51.22 74.98 51.65 74.98 52.25 75.19L53.17 75.52L53.17 84.22C53.17 92.32 53.12 92.98 52.53 93.63C51.24 95.06 49.86 94.31 48.25 91.33C47.8 90.51 46.64 88.41 45.66 86.67C44.69 84.92 43.46 82.67 42.93 81.67C42.4 80.66 41.82 79.78 41.65 79.72C41.46 79.65 41.33 82.19 41.33 86.23C41.33 91.68 41.24 92.98 40.81 93.59C40.31 94.31 39.35 94.57 38.89 94.11ZM273.77 93.92C273.41 93.35 273.34 76.7 273.7 75.75C273.93 75.15 274.24 75 275.26 75C275.96 75 276.78 75.19 277.09 75.42C277.68 75.87 279.95 79.75 283.96 87.17C284.26 87.73 284.65 88.25 284.83 88.34C285.05 88.44 285.23 86.11 285.33 81.83L285.5 75.17L286.33 75.08C286.79 75.03 287.35 75.11 287.57 75.26C288.15 75.64 288.22 93.17 287.65 93.86C287.43 94.12 286.76 94.33 286.15 94.33C285.29 94.33 284.88 94.1 284.27 93.25C283.22 91.78 278.85 83.94 277.77 81.58C277.29 80.53 276.73 79.67 276.53 79.67C276.28 79.67 276.18 81.71 276.21 86.25C276.24 91.35 276.14 93 275.78 93.58C275.28 94.4 274.2 94.58 273.77 93.92ZM444.71 92.37C444.33 92.13 444.25 90.38 444.28 83.02C444.3 78.04 444.4 73.82 444.51 73.65C444.86 73.09 447.29 73.29 447.94 73.94C448.5 74.5 454.69 85.45 455.19 86.76C455.31 87.09 455.58 87.31 455.79 87.24C456.05 87.15 456.18 85.15 456.21 80.81C456.27 72.72 456.2 73.33 457.1 73.33C458.62 73.33 458.67 73.62 458.67 82.88C458.67 91.54 458.66 91.63 457.93 92.15C456.32 93.27 455.4 92.6 453.37 88.83C449.52 81.71 447.2 77.67 446.95 77.67C446.79 77.67 446.67 80.89 446.67 84.82C446.67 91.55 446.63 92 446.02 92.32C445.25 92.73 445.29 92.73 444.71 92.37ZM464.05 92.37C463.69 92.14 463.57 90.3 463.51 83.46C463.46 78.71 463.49 74.49 463.58 74.07C463.72 73.41 463.93 73.31 464.96 73.4L466.17 73.5L466.25 76.67C466.38 81.68 466.09 81.33 470.11 81.33C474.75 81.33 474.73 81.35 474.93 76.88C475.07 73.76 475.16 73.33 475.68 73.33C477.38 73.33 477.33 73.09 477.33 82.88L477.33 92.01L476.49 92.4C475.12 93.02 474.92 92.45 474.87 87.94L474.83 83.83L470.67 83.83L466.5 83.83L466.41 87.83C466.34 91.11 466.22 91.91 465.76 92.25C465.11 92.74 464.67 92.77 464.05 92.37ZM233.3 91.74C232.85 91.43 232.66 90.97 232.73 90.38L232.83 89.5L247.96 89.41C263.17 89.33 264 89.38 264 90.48C264 90.69 263.79 91.16 263.53 91.52C263.07 92.14 262.51 92.17 248.51 92.19C236.55 92.2 233.84 92.12 233.3 91.74ZM236.01 83.07C233.23 82.96 232.59 82.62 232.73 81.36L232.83 80.5L241.33 80.33C246.01 80.24 252.89 80.24 256.63 80.33C262.61 80.48 263.47 80.57 263.79 81.08C264.08 81.53 264.02 81.8 263.49 82.32C262.86 82.96 262.3 82.99 250.66 83.08C243.97 83.13 237.38 83.12 236.01 83.07ZM45.5 69.25C45.4 68.84 45.36 62.88 45.41 56L45.5 43.5L46.5 43.5L47.5 43.5L47.59 56.29C47.65 65.46 47.57 69.22 47.3 69.54C46.7 70.26 45.7 70.09 45.5 69.25ZM450.17 68.01C450.02 67.76 449.82 43.74 449.96 42.08C450.01 41.55 451.41 41.54 451.93 42.07C452.46 42.59 452.51 66.72 451.99 67.69C451.63 68.36 450.51 68.56 450.17 68.01ZM74.67 42.24C73.64 41.71 73.51 40.45 74.5 40.61C74.87 40.67 75.66 40.8 76.25 40.9C76.96 41.01 77.63 40.88 78.19 40.52C78.89 40.06 79.02 39.74 78.94 38.73C78.84 37.54 78.78 37.49 77.17 37.17C75.22 36.78 74.67 36.48 74.67 35.81C74.67 35.49 75.04 35.33 75.85 35.33C77.08 35.33 78.67 34.15 78.67 33.25C78.67 31.83 77.02 31.2 74.92 31.81C74.24 32 74 31.96 74.01 31.62C74.02 30.61 74.64 30.26 76.73 30.09C78.82 29.92 78.89 29.95 79.77 30.99C80.85 32.26 80.92 33.59 79.98 34.79L79.28 35.67L80.31 36.91C80.87 37.59 81.33 38.5 81.33 38.92C81.33 39.91 80.1 41.59 78.93 42.2C77.82 42.78 75.77 42.8 74.67 42.24ZM481.42 41.43C480.73 41.3 479.67 40.19 479.67 39.59C479.67 39.21 481.26 39.28 481.5 39.67C481.85 40.24 483.53 40.03 484.46 39.31C486.14 37.98 485.09 35.83 482.75 35.83C481.38 35.83 480.47 34.88 481.33 34.33C481.61 34.15 482.24 34.01 482.73 34.01C483.28 34 483.83 33.71 484.15 33.26C485.44 31.41 484.12 29.88 481.85 30.57C480.6 30.96 480.33 30.85 480.33 29.98C480.33 29.21 481 29 483.36 29C484.88 29 485.48 29.15 485.99 29.66C487.04 30.71 487.16 31.84 486.37 33.18C485.48 34.7 485.49 34.88 486.52 35.77C487.63 36.72 487.68 38.22 486.66 39.6C485.41 41.29 483.73 41.88 481.42 41.43ZM44.17 37.52C40.76 35.95 39.33 33.32 39.33 28.62C39.33 24.73 40.01 22.64 41.86 20.79C43.28 19.37 45.73 18.33 47.65 18.33C48.98 18.33 52.1 19.58 52.75 20.37C53.46 21.23 53.47 21.47 52.83 22C52.43 22.34 52.01 22.27 50.6 21.67C49.21 21.07 48.46 20.96 46.9 21.1C43.37 21.42 42.19 23.46 42.38 28.94C42.49 32.09 42.56 32.34 43.54 33.55C44.17 34.34 45.16 35.05 46.1 35.4C47.72 36.01 48.61 35.89 50.85 34.77C51.4 34.49 52.14 34.31 52.49 34.38C55.16 34.9 50.32 38.38 47 38.32C46.36 38.3 45.08 37.95 44.17 37.52ZM56.49 37.6C56.4 37.36 56.36 33.03 56.41 28L56.5 18.83L57.33 18.75C58.93 18.58 59.15 19.04 59.33 22.9L59.5 26.5L63.03 26.59C65.61 26.66 66.66 26.57 66.92 26.26C67.12 26.02 67.36 24.25 67.46 22.33C67.55 20.41 67.64 18.8 67.65 18.75C67.66 18.7 68.03 18.67 68.48 18.67C70.08 18.67 70.17 19.25 70.1 28.49C70.03 37.34 69.93 38 68.65 38C67.67 38 67.5 37.38 67.45 33.5C67.42 31.48 67.38 29.72 67.36 29.58C67.35 29.45 65.53 29.33 63.33 29.33L59.33 29.33L59.33 32.75C59.32 36.66 58.94 37.78 57.57 37.94C57.04 38 56.59 37.86 56.49 37.6ZM450.67 37.45C449.26 37.19 447.23 35.56 446.18 33.85C445.26 32.37 445.16 31.94 445.05 28.69C444.87 23.39 445.72 21.17 448.68 19.18C449.91 18.35 450.57 18.15 452.53 18.05C456.42 17.85 459.75 19.73 458.21 21.27C457.73 21.74 457.54 21.72 456.04 21.02C454.06 20.09 451.48 20.18 450.06 21.23C448.78 22.18 447.69 25.07 447.68 27.53C447.65 32.39 449.63 35 453.33 35C454.58 35 455.52 34.78 456.26 34.33C457.54 33.55 458.28 33.49 458.54 34.14C459.28 36.09 454.39 38.14 450.67 37.45ZM462.38 37.36C462.09 37.18 462.01 34.63 462.08 27.64C462.17 18.27 462.17 18.17 462.88 18.07C464.31 17.86 464.67 18.76 464.67 22.53L464.67 26.02L468.75 25.93L472.83 25.83L473 22.2C473.14 19.22 473.27 18.5 473.75 18.2C474.17 17.94 474.49 17.94 474.92 18.2C475.44 18.54 475.51 19.42 475.59 27.56C475.67 36.09 475.64 36.58 475.03 37.14C474.51 37.61 474.25 37.65 473.68 37.34C473.01 36.98 472.97 36.71 473 33.23C473.02 31.18 473.03 29.31 473.02 29.08C473 28.77 471.93 28.67 468.83 28.67L464.67 28.67L464.67 32.44C464.67 36.26 464.46 37.03 463.3 37.42C463.01 37.52 462.6 37.5 462.38 37.36Z" fill="#1e2749" fill-rule="evenodd"/>
</svg>
