<?xml version="1.0" encoding="UTF-8"?>
<svg xmlns="http://www.w3.org/2000/svg" viewBox="0 0 2430 1365" width="2430" height="1365" shape-rendering="geometricPrecision">
<path d="M624.5 1315.27C621.2 1313.31 604.33 1303.39 587 1293.24C555.26 1274.65 543.52 1267.72 506 1245.47C484.51 1232.72 451.57 1213.23 414.5 1191.32C376.21 1168.69 348.57 1152.32 311 1129.99C290.93 1118.06 261 1100.29 244.5 1090.51C168.5 1045.43 126.02 1019.85 125.32 1018.73C124.9 1018.05 124.69 864.05 124.86 676.5C125.09 417.66 125.44 335.23 126.33 334.39C126.97 333.78 134.93 328.88 144 323.51C160.12 313.96 242.65 264.77 266.5 250.49C273.1 246.54 297.62 231.93 321 218.03C344.38 204.13 367.77 190.18 373 187.03C378.23 183.88 395.77 173.42 412 163.79C428.23 154.16 455.9 137.72 473.5 127.27C543.74 85.55 556.55 78.04 594.5 56.24C619.35 41.97 630.61 36 632.7 36C634.32 36 648.66 43.67 665.5 53.54C670.45 56.44 683.95 64.31 695.5 71.03C707.05 77.76 725.27 88.44 736 94.77C819.76 144.21 843.06 157.99 853 163.99C858.23 167.15 879.38 179.76 900 192.03C1020.69 263.82 1129.44 329.7 1138.75 336.67C1142.9 339.77 1142.95 342.9 1138.92 346.92C1135.05 350.79 1133.12 350.78 1126.12 346.83C1111.06 338.33 1059.8 308.5 1018.98 284.47C993.97 269.75 970.8 256.13 967.5 254.22C959.58 249.62 941.61 238.91 931 232.47C926.33 229.63 917.1 224.15 910.5 220.3C903.9 216.44 879.38 201.92 856 188.03C832.62 174.14 806.3 158.49 797.5 153.27C788.7 148.04 774.52 139.6 766 134.52C704.46 97.82 647.94 65.21 638.33 60.85C634.87 59.28 631.16 58 630.07 58C628.22 58 617.63 63.85 593 78.48C587.23 81.92 567.88 93.41 550 104.02C445.79 165.89 218.1 301.97 154.87 340.17C148.73 343.87 144.98 346.8 144.53 348.24C144.14 349.48 143.58 498.35 143.28 679.05L142.74 1007.6L152.62 1013.45C176.83 1027.78 200.87 1042.05 217.5 1051.96C227.4 1057.86 245.18 1068.44 257 1075.47C268.82 1082.51 286.6 1093.09 296.5 1098.99C306.4 1104.89 328 1117.72 344.5 1127.5C384 1150.92 403.89 1162.76 418.5 1171.56C425.1 1175.53 437.7 1183.04 446.5 1188.25C455.3 1193.45 483.88 1210.43 510 1225.98C536.12 1241.53 568.52 1260.8 582 1268.81C595.48 1276.82 612.34 1286.87 619.49 1291.14L632.47 1298.91L636.99 1296.3C641.74 1293.55 706.17 1255.25 741 1234.48C752.27 1227.75 781.75 1210.2 806.5 1195.49C831.25 1180.77 860.73 1163.23 872 1156.52C883.27 1149.81 902.62 1138.32 915 1131C927.38 1123.67 949.42 1110.61 964 1101.98C1026.31 1065.05 1093.76 1025.7 1120.56 1010.65C1131.51 1004.5 1135.67 1003.67 1138.97 1006.97C1142.68 1010.68 1142.65 1013.82 1138.88 1017.55C1134.49 1021.91 1101.44 1042.15 1001 1101.99C974.88 1117.55 944.27 1135.78 933 1142.5C921.73 1149.22 903.5 1160.02 892.5 1166.51C881.5 1172.99 865.52 1182.43 857 1187.49C848.48 1192.55 827.1 1205.15 809.5 1215.5C791.9 1225.84 771.65 1237.77 764.5 1242.01C715.47 1271.04 631.95 1319.13 630.9 1318.92C630.68 1318.88 627.8 1317.23 624.5 1315.27ZM1570.8 1103.08C1566.56 1102.76 1562.55 1101.96 1561.9 1101.3C1560.08 1099.48 1562.6 1096.29 1577.93 1081.04C1596.88 1062.19 1608.4 1046.89 1614.09 1033C1617.27 1025.23 1617.4 1012.18 1614.34 1006.5C1609.81 998.09 1602.91 993.99 1593.28 994.01C1583.67 994.03 1575.96 998.72 1569.09 1008.75C1567.87 1010.54 1566.44 1012 1565.93 1012C1562.58 1012 1567.36 997.17 1572.95 990.21C1587.78 971.75 1619.37 975.68 1630.8 997.39C1633.11 1001.78 1633.49 1003.71 1633.48 1011C1633.48 1018.69 1633.14 1020.22 1629.9 1027C1623.23 1040.96 1615.11 1051.67 1594.75 1073.31C1588.84 1079.59 1584 1085.24 1584 1085.87C1584 1087.36 1622.71 1087.44 1626.61 1085.96C1628.12 1085.39 1631.07 1083.36 1633.18 1081.46C1637.36 1077.68 1640 1077.02 1640 1079.75C1640 1083.03 1635 1096.49 1632.75 1099.27C1630.6 1101.91 1629.93 1102.08 1618 1103C1604.74 1104.01 1583.56 1104.05 1570.8 1103.08ZM1254.68 1065.79C1218.04 1062.47 1189.6 1037.73 1178.46 999.5C1174.89 987.26 1173.96 965.94 1176.38 951.77C1178.04 942.04 1182.47 927.98 1186.24 920.5C1193.17 906.74 1207.08 891.61 1219.65 884.14C1243.73 869.83 1274.76 867 1301.5 876.68C1315.34 881.68 1318.55 882.28 1322 880.5C1323.85 879.54 1325.94 877.12 1327.26 874.41C1329.08 870.66 1329.86 869.96 1331.93 870.2C1335.21 870.59 1335.46 872 1337.43 901C1338.32 913.92 1339.28 925.85 1339.57 927.5C1339.9 929.32 1339.54 931.27 1338.66 932.46C1336.46 935.45 1334.88 933.5 1327.94 919.29C1322.74 908.64 1320.77 905.72 1314.67 899.59C1302.69 887.57 1289.23 882.03 1272 882.03C1250.52 882.03 1230.5 892.52 1221.7 908.38C1212.21 925.5 1207.65 944.89 1207.57 968.5C1207.51 986.14 1208.73 994.99 1212.98 1007.73C1219.99 1028.71 1234.82 1043.78 1253.99 1049.42C1267.82 1053.49 1285.33 1053.36 1297.42 1049.11C1309.11 1045 1313.88 1041.22 1333.7 1020.27C1341.23 1012.32 1344.38 1017.16 1337.9 1026.73C1336.12 1029.35 1330.13 1036.03 1324.58 1041.57C1316.24 1049.9 1312.94 1052.44 1305.43 1056.27C1289.87 1064.22 1272.77 1067.43 1254.68 1065.79ZM2014.33 1064.96C2006.48 1063.56 1993.42 1058.48 1985.75 1053.85C1977.15 1048.65 1965.66 1038 1959.19 1029.22C1939.3 1002.24 1934.36 963.57 1946.4 929.11C1951.72 913.85 1966.37 895.7 1981.25 885.91C1996.95 875.57 2012.65 871 2032.5 871C2052.28 871 2065.79 874.93 2080.98 885.1C2115.72 908.36 2131.07 951.91 2119.97 995.71C2117.48 1005.5 2110.38 1020.36 2104.63 1027.8C2095.12 1040.12 2080.61 1052.02 2068.35 1057.59C2055.75 1063.32 2047.43 1065.19 2033 1065.55C2025.58 1065.74 2017.18 1065.47 2014.33 1064.96ZM1370.55 1061.86C1363.98 1061.39 1358.19 1060.59 1357.69 1060.09C1356.01 1058.41 1357.93 1057.23 1364.51 1055.92C1372.7 1054.29 1377.83 1051.45 1380.35 1047.14C1383.39 1041.94 1384.19 1020.51 1383.82 954C1383.5 895.67 1383.49 895.49 1381.25 890.93C1378.48 885.32 1373.76 882.51 1365.57 881.6C1359.09 880.88 1357 879.74 1357 876.92C1357 873.97 1361.98 873.57 1399 873.53C1434.3 873.5 1438 873.87 1438 877.41C1438 879.83 1435.55 880.88 1427.56 881.87C1412.85 883.69 1411.94 886.34 1411.26 929.26L1410.77 960.02L1453.64 959.76L1496.5 959.5L1496.5 927C1496.5 896.49 1496.38 894.26 1494.5 890.53C1491.95 885.46 1487.8 883.1 1479.29 881.9C1472.08 880.88 1469.54 879.37 1470.55 876.73C1471.57 874.07 1478.64 873.5 1510.5 873.5C1541.85 873.5 1549.72 874.12 1550.69 876.65C1551.69 879.23 1548.78 880.82 1541.19 881.86C1526.44 883.87 1526.03 884.85 1524.77 921.5C1523.52 958.07 1524.36 1039.18 1526.05 1044C1528.55 1051.14 1531.99 1053.28 1544.9 1055.68C1549.83 1056.6 1552.25 1059.15 1550.18 1061.22C1549.18 1062.21 1540.64 1062.5 1512.2 1062.5C1492.01 1062.5 1474.26 1062.15 1472.75 1061.73C1467.73 1060.33 1469.63 1058.35 1478.72 1055.52C1490.48 1051.85 1494.25 1048.2 1495.86 1038.92C1497.58 1028.97 1497.41 975.59 1495.65 974.12C1494.7 973.33 1482.18 973.01 1453.26 973.05L1412.22 973.09L1411.49 998.54C1410.44 1034.97 1412.22 1048.48 1418.62 1052.67C1419.89 1053.5 1423.89 1054.55 1427.5 1055C1431.11 1055.45 1435.26 1056.6 1436.72 1057.55L1439.37 1059.29L1437.07 1061.14C1434.96 1062.86 1432.74 1062.99 1408.64 1062.86C1394.26 1062.78 1377.12 1062.33 1370.55 1061.86ZM2152.51 1061.82C2136.08 1060.58 2134.41 1058.54 2147.36 1055.56C2161.77 1052.24 2163.86 1048.35 2165.11 1022.59C2166.47 994.42 2164.87 898.38 2162.91 890.82C2161.63 885.86 2156.99 883.11 2147.75 881.83C2143.76 881.28 2139.94 880.36 2139.25 879.79C2137.44 878.29 2137.72 875.32 2139.75 874.53C2142.47 873.46 2194.21 872.63 2206.28 873.46C2218.51 874.3 2221.66 875.78 2218.31 879.14C2217.08 880.36 2214.28 881.2 2209.98 881.63C2201.5 882.48 2196.57 884.98 2195.01 889.21C2193.61 893.03 2191.59 957.99 2192.84 959.24C2193.27 959.67 2212.72 959.9 2236.06 959.76L2278.5 959.5L2278.81 950C2279.15 939.74 2277.29 895.3 2276.33 890.68C2275.49 886.67 2269.26 883.03 2261.29 881.9C2254 880.87 2251 879.58 2251 877.5C2251 874.41 2255.25 873.83 2281.84 873.27C2312.89 872.62 2329.3 873.44 2331.6 875.74C2334.35 878.49 2330.66 880.76 2321.66 881.87C2312.55 882.98 2309.62 885.01 2307.86 891.43C2306.49 896.43 2305.29 976.78 2306 1016C2306.46 1041.34 2306.66 1043.77 2308.54 1046.96C2311.21 1051.52 2315.42 1053.86 2323.16 1055.09C2326.85 1055.68 2330.28 1056.87 2331.37 1057.95C2333.2 1059.75 2333.18 1059.84 2330.56 1061.55C2328.09 1063.17 2325.42 1063.25 2295.69 1062.6C2259.26 1061.79 2252.5 1061.23 2252.5 1059C2252.5 1057.98 2254.59 1056.99 2259 1055.92C2277.07 1051.51 2278.56 1047.45 2278.35 1003.33C2278.28 987.84 2277.94 974.72 2277.61 974.17C2277.22 973.55 2261.82 973.24 2235.25 973.34L2193.5 973.5L2193.5 1009L2193.5 1044.5L2195.91 1047.88C2198.72 1051.81 2204.35 1054.52 2211.78 1055.5C2214.68 1055.88 2217.74 1056.88 2218.57 1057.72C2219.94 1059.08 2219.92 1059.43 2218.39 1061.12C2216.8 1062.88 2214.97 1062.99 2190.6 1062.86C2176.24 1062.78 2159.1 1062.31 2152.51 1061.82ZM2042.54 1053.48C2061.03 1048.76 2075.92 1035.24 2083.53 1016.28C2089.04 1002.54 2091.66 978.95 2090.07 957.47C2087.48 922.58 2079.99 904.94 2062.47 892.44C2036.76 874.09 2002.79 879.83 1987.42 905.13C1978.69 919.51 1974.14 938.06 1973.35 962.5C1972.53 988.11 1976.29 1008.04 1985.25 1025.45C1996.75 1047.81 2020.07 1059.21 2042.54 1053.48ZM1716.61 998.42C1716.27 997.55 1716 994.78 1716 992.26L1716 987.68L1751.25 988.34C1770.64 988.7 1803.49 989 1824.25 989L1862 989L1862 993.3C1862 995.67 1861.46 998.14 1860.8 998.8C1859.89 999.71 1842.45 1000 1788.41 1000C1724.41 1000 1717.15 999.84 1716.61 998.42ZM1251.5 453.97C1238.9 452.61 1223.52 447.46 1213.58 441.27C1193.77 428.94 1178.65 405.4 1173.5 378.91C1171.63 369.27 1171.37 349.69 1172.98 339.61C1175.62 323.07 1184.1 303.96 1194.05 292.11C1204.65 279.48 1224.73 266.62 1241.05 262.01C1250.7 259.29 1267.15 258.36 1278.08 259.93C1282.71 260.59 1292.48 263.13 1299.78 265.57C1307.09 268.01 1314.12 270 1315.41 270C1317.7 270 1325 263.17 1325 261.03C1325 259.54 1329.08 257.68 1330.11 258.71C1331.31 259.91 1334.86 291.18 1335.66 307.6C1336.14 317.42 1335.99 320.89 1335.07 321.45C1333.04 322.71 1329.29 318.21 1326.47 311.13C1322.13 300.24 1318.03 293.87 1310.78 286.78C1296.32 272.64 1276.69 267.25 1255.21 271.54C1221.91 278.18 1204.98 307.6 1205.01 358.78C1205.02 381.34 1208.31 397.06 1215.67 409.74C1219.43 416.22 1233.36 429.89 1239.61 433.23C1248.78 438.15 1255.77 439.39 1274.55 439.45L1291.6 439.5L1299.05 435.81C1308.68 431.04 1317.72 423.5 1327.45 412.13C1331.74 407.11 1335.53 403.01 1335.88 403.02C1336.22 403.02 1337.17 403.46 1338 403.99C1342.2 406.68 1322.94 431.93 1310.34 440.24C1300.7 446.61 1296.34 448.64 1287.36 450.96C1280.63 452.69 1262.59 455.21 1259.5 454.85C1258.95 454.78 1255.35 454.39 1251.5 453.97ZM1438.81 453.99C1417.73 450.65 1397.84 440.52 1385.57 426.87C1362.02 400.67 1353.41 360.89 1363.58 325.18C1364.93 320.41 1367.58 313.35 1369.46 309.5C1381.46 284.91 1406.11 266.07 1433.77 260.35C1444.87 258.05 1467.87 258.91 1477.5 261.97C1506.86 271.32 1531.03 296.53 1538.67 325.78C1543.73 345.16 1542.82 375.39 1536.67 392.33C1528.56 414.68 1504.15 440.16 1483.35 447.99C1468.34 453.63 1451.17 455.95 1438.81 453.99ZM1639.83 453.57C1601.15 446.72 1573.54 419.07 1564.84 378.5C1564.07 374.88 1563.57 365.74 1563.6 355.5C1563.64 340.29 1563.93 337.45 1566.33 328.51C1571.26 310.13 1579.02 296.89 1592.06 284.58C1605.18 272.21 1620.6 263.95 1637.07 260.48C1645.24 258.77 1663.61 258.55 1672.9 260.05C1703.8 265.07 1734.44 294.52 1743.06 327.5C1745.75 337.8 1746.75 360.84 1745.06 373.48C1743.67 383.94 1739.21 396.47 1732.94 407.61C1727.61 417.07 1709.63 435.66 1700.82 440.83C1681.14 452.37 1659.06 456.98 1639.83 453.57ZM1777.5 449.86C1761.67 449.09 1763 449.31 1763 447.48C1763 445.61 1766.25 444.3 1773.2 443.38C1776.98 442.88 1779.23 441.92 1781.16 440C1786.5 434.65 1786.5 434.68 1786.5 352.55L1786.5 276.6L1782.45 273.75C1779.81 271.89 1776.34 270.61 1772.45 270.04C1763.97 268.81 1762.84 268.21 1763.2 265.12L1763.5 262.5L1801.22 262.5C1834.94 262.5 1839.1 262.67 1840.58 264.15C1842.11 265.69 1842.06 265.91 1839.87 267.33C1838.56 268.17 1835.7 269.17 1833.5 269.55C1827.1 270.66 1820.36 273.92 1819.2 276.46C1816.28 282.88 1815.69 291.48 1816.32 318.81C1816.67 333.96 1817.33 346.73 1817.79 347.19C1818.25 347.65 1837.05 347.91 1859.56 347.76L1900.5 347.5L1900.79 325C1901.11 299.41 1899.86 280.57 1897.54 276.08C1895.56 272.24 1893.9 271.39 1885.64 269.95C1879 268.8 1875.56 266.84 1876.29 264.63C1876.97 262.57 1890.15 261.87 1921 262.27C1949.94 262.64 1955 263.06 1955 265.08C1955 266.68 1950.44 268.97 1945.34 269.94C1937.83 271.36 1933.3 273.86 1931.81 277.41C1930.77 279.87 1930.52 296.04 1930.6 356.5C1930.66 401.49 1931.09 433.7 1931.66 435.43C1932.85 439.11 1937.7 441.71 1946.14 443.2C1954.24 444.62 1956.2 446.17 1952.77 448.42C1950.63 449.82 1945.87 450.04 1916.9 450.12C1882.29 450.21 1876 449.78 1876 447.36C1876 445.68 1878.82 444.52 1885.18 443.59C1892.32 442.54 1896.17 439.44 1898.35 432.98C1899.96 428.23 1900.28 423.04 1900.75 394.25L1901.29 361L1859.3 361L1817.31 361L1816.66 376.16C1815.59 400.77 1815.89 422.9 1817.38 429.21C1819.77 439.38 1823 442.25 1833.5 443.52C1840.41 444.36 1842.6 445.57 1840.91 447.61C1840.3 448.34 1838.38 449.19 1836.65 449.48C1831.73 450.31 1791.92 450.57 1777.5 449.86ZM1467.06 440.15C1476.64 436.86 1481.29 433.93 1488.56 426.61C1504.1 410.98 1511.08 387.08 1509.62 354.5C1508.64 332.38 1504.94 313.54 1499.02 300.41C1495.19 291.92 1484.93 281.26 1476.14 276.64C1461.19 268.79 1445.01 267.91 1428.57 274.06C1421.52 276.7 1410.44 287.2 1405.1 296.3C1395.73 312.27 1392.32 331.43 1393.39 362C1394.3 388.09 1397.52 401.85 1406.11 416.31C1414.27 430.04 1423.36 437.3 1437.03 441C1446.06 443.45 1458.5 443.09 1467.06 440.15ZM1664.57 441.91C1684.05 438.33 1701.59 421.87 1708.03 401.15C1712.48 386.79 1714.41 353.8 1711.95 333.97C1708.67 307.57 1699.04 288.86 1683.39 278.47C1676.69 274.02 1671.32 272.26 1660.34 270.89C1630.41 267.16 1608.94 283.78 1600.53 317.18C1597.02 331.16 1595.63 346.17 1596.38 362C1598.23 400.83 1610.6 427.49 1631.39 437.47C1642.26 442.69 1652.72 444.09 1664.57 441.91Z" fill="#1e2749" fill-rule="evenodd"/>
</svg>
