<?xml version="1.0" encoding="UTF-8"?>
<svg xmlns="http://www.w3.org/2000/svg" viewBox="0 0 2430 732" width="2430" height="732" shape-rendering="geometricPrecision">
<path d="M1235 662.88C1235 662.27 1237.54 659.02 1240.64 655.67C1250.23 645.32 1252.09 640.58 1247.78 637.56C1244.72 635.42 1241.26 635.61 1239.77 638C1238.19 640.53 1237 640.56 1237 638.07C1237 635.27 1241.69 632 1245.71 632C1249.91 632 1255 636.56 1255 640.33C1255 642.73 1249.59 650.45 1245.15 654.4C1240.98 658.11 1243.27 660.59 1249.32 658.92C1251.22 658.4 1253.34 657.3 1254.01 656.48C1257.34 652.47 1259.57 657.32 1256.44 661.78C1255.01 663.82 1254.08 664 1244.94 664C1238.29 664 1235 663.63 1235 662.88ZM1109.39 636.57C1109.09 635.78 1109.8 633.84 1110.97 632.26C1113.75 628.49 1114.95 619.79 1114.98 603.2C1115 590.1 1114.96 589.87 1112.35 587.45C1110.9 586.1 1109.32 585 1108.85 585C1108.38 585 1108 584.55 1108 584C1108 583.45 1110.57 583.01 1113.75 583.01C1121.19 583.03 1122.58 584.26 1141.02 607C1148.83 616.62 1155.73 624.5 1156.36 624.5C1157.17 624.5 1157.5 619.38 1157.5 606.66L1157.5 588.82L1154.75 586.46C1153.24 585.16 1152 583.85 1152 583.55C1152 582.64 1166.84 582.93 1167.41 583.85C1167.7 584.32 1166.87 585.62 1165.58 586.74C1163.29 588.74 1163.21 589.35 1162.49 611.44C1161.86 630.73 1161.5 634.4 1160.02 636.23L1158.28 638.38L1152.89 633.27C1149.92 630.46 1141.42 620.72 1134 611.64C1126.58 602.55 1119.89 595.09 1119.15 595.06C1118.05 595.01 1117.86 598.18 1118.15 611.9L1118.5 628.8L1121.7 632.78C1123.46 634.97 1124.63 637.04 1124.29 637.38C1123.95 637.72 1120.58 638 1116.8 638C1111.77 638 1109.79 637.62 1109.39 636.57ZM1188.44 636.11C1183.45 633.85 1177.71 627.32 1176.16 622.14C1174.23 615.69 1174.72 602.22 1177.08 597C1181.53 587.18 1189.89 582.03 1201.43 582.01C1216.12 581.99 1226.87 587.91 1229.77 597.62C1231.51 603.43 1231.3 612.86 1229.29 619.08C1227.05 626.01 1219.42 633.79 1212.46 636.25C1205.73 638.63 1193.84 638.56 1188.44 636.11ZM1210.74 633.03C1220.04 628.81 1226.1 610.29 1221.64 599.72C1219.6 594.86 1210.98 587.34 1205.87 585.95C1197.12 583.56 1188.66 587.71 1185.02 596.17C1183.13 600.57 1182.84 602.7 1183.2 609.45C1183.7 618.71 1185.7 623.7 1191.01 629.01C1196.86 634.86 1203.66 636.25 1210.74 633.03ZM1980 632.46C1980 631.62 1982.32 627.91 1985.15 624.21C1991.79 615.57 1993.55 611.49 1992.06 608.23C1991.14 606.2 1990.4 605.86 1987.72 606.24C1985.95 606.49 1983.71 607.04 1982.75 607.45C1981.33 608.07 1981 607.71 1981 605.58C1981 600.64 1990.08 599.63 1994.82 604.05C1998.99 607.93 1997.33 613.88 1989.36 623.6C1987.51 625.86 1986 628.04 1986 628.45C1986 629.3 1993.27 628.64 1996.84 627.48C1998.89 626.81 1999.13 627.01 1998.84 629.09C1998.36 632.43 1994.56 633.97 1986.75 633.99C1981.34 634 1980 633.7 1980 632.46ZM1934.61 606.43C1923.99 602.54 1916.47 591.55 1916.53 580C1916.6 566.76 1921.97 558.03 1932.46 554.1C1944.74 549.51 1955.28 550.62 1964.22 557.44C1973.15 564.26 1976.58 578.14 1971.98 588.83C1969.16 595.37 1959.11 605.05 1953.33 606.78C1948.01 608.38 1939.48 608.22 1934.61 606.43ZM1851 605.8C1851 605.15 1852.24 603.32 1853.75 601.74L1856.5 598.87L1856.5 579.02C1856.5 560.03 1856.4 559.04 1854.26 556.14C1851.52 552.43 1852.49 551.65 1858.69 552.58C1862.46 553.15 1864.28 554.19 1867.98 557.89C1872.01 561.93 1886.06 579.2 1894.32 590.27C1895.87 592.34 1897.55 593.78 1898.07 593.46C1898.58 593.14 1899 585.42 1899 576.08C1899 560.61 1898.84 559.06 1896.94 556.64C1895.8 555.2 1895.15 553.56 1895.49 553.01C1896.18 551.9 1906.84 551.62 1909.51 552.64C1910.93 553.19 1910.77 553.6 1908.43 555.47C1904.92 558.27 1904.2 563.03 1903.97 585C1903.78 603.14 1903.29 606.32 1900.61 606.84C1898.06 607.33 1894.63 603.76 1879.75 585.2C1868.09 570.65 1864.63 567 1862.5 567C1862.15 567 1862.01 574.6 1862.18 583.9C1862.46 598.66 1862.73 601.05 1864.35 602.83C1865.36 603.96 1865.9 605.35 1865.54 605.94C1864.6 607.46 1851 607.34 1851 605.8ZM1952.34 602.63C1956.53 600.88 1962.72 593.68 1964 589.07C1966.21 581.09 1964.37 569.81 1959.73 562.93C1954.72 555.5 1944.18 552.92 1935.3 556.95C1926.72 560.85 1922.5 576.41 1926.88 588C1931.87 601.21 1941.92 606.98 1952.34 602.63ZM1143.65 568.25C1143.34 566.19 1142.77 540.71 1142.38 511.63L1141.69 458.76L1137.59 456.34C1126.65 449.87 1050.03 406.41 1031.73 396.28L1010.96 384.8L1003.63 388.28C999.59 390.19 981.04 400.45 962.4 411.07C929.87 429.61 910.63 440 908.84 440C908.38 440 908.01 438.99 908.03 437.75C908.06 434.96 910.5 433.32 940.5 415.98C953.15 408.66 967.55 400.33 972.5 397.47C995.67 384.06 1004.64 378.69 1006.25 377.25C1007.88 375.8 1008 371.47 1008 313.6C1008.01 279.44 1008.3 244.41 1008.66 235.74L1009.31 219.98L1019.41 214.13C1123.85 153.6 1141.07 144 1145.27 144C1146.68 144 1157.6 149.51 1169.66 156.3C1197.74 172.12 1253.16 203.83 1263.5 210C1267.9 212.63 1273.49 215.77 1275.92 216.99C1281.01 219.55 1281.5 219.41 1293.71 211.88C1297.44 209.58 1305 205.15 1310.5 202.02C1316 198.9 1329.56 191.12 1340.64 184.74C1365.8 170.24 1376.57 164.8 1379.34 165.19C1381.19 165.46 1380.74 166.11 1376.18 169.74C1370.85 173.98 1332.09 197.44 1301 215.24L1284.5 224.69L1284.24 302.73C1284.04 363.49 1283.71 380.99 1282.74 381.78C1282.06 382.34 1273.62 387.27 1264 392.74C1222 416.58 1191.99 433.55 1171.5 445.03C1159.4 451.81 1149.23 457.75 1148.9 458.24C1148.58 458.72 1148 483.06 1147.63 512.31C1147.26 541.56 1146.69 566.96 1146.37 568.75C1145.57 573.09 1144.35 572.86 1143.65 568.25ZM1593.94 553.38C1531.28 517.88 1483.98 490.78 1483.61 490.16C1483.39 489.8 1482.89 453.9 1482.49 410.39L1481.76 331.28L1491.13 325.76C1496.28 322.72 1504.78 317.78 1510 314.78C1520.76 308.61 1591.89 267.05 1608.26 257.37C1614.18 253.87 1619.97 251 1621.12 251C1622.28 251 1635.66 258.27 1650.86 267.17C1666.06 276.06 1690.88 290.51 1706 299.28C1721.12 308.05 1738.41 318.17 1744.42 321.78C1750.43 325.38 1755.83 328.33 1756.43 328.33C1757.48 328.33 1770.17 321.16 1811 297.51C1845.5 277.53 1862.28 269.65 1860.79 274.14C1860.18 275.96 1832.18 293.09 1796.5 313.47C1778.35 323.84 1762.7 333.01 1761.72 333.85C1760.03 335.28 1759.95 339.49 1760.14 409.93C1760.26 451.55 1760.75 485.31 1761.25 486.32C1761.75 487.33 1774.38 500.38 1789.33 515.32C1820.97 546.95 1831.67 558.73 1830.14 560.26C1828.29 562.11 1821.69 556.23 1780.69 516.21C1769.25 505.04 1758.82 495.42 1757.51 494.82C1755.43 493.88 1753.12 494.83 1738.82 502.53C1729.84 507.36 1711.47 517.6 1698 525.29C1670.85 540.78 1638.93 558.9 1632 562.76C1629.53 564.14 1626.12 566.09 1624.44 567.09L1621.39 568.93L1593.94 553.38ZM1632.92 554.36C1638.74 551.26 1651.6 544.12 1661.5 538.5C1671.4 532.88 1694.8 519.6 1713.5 508.99C1732.2 498.38 1748.94 488.64 1750.7 487.34L1753.9 484.97L1753.7 409.76L1753.5 334.54L1744 329.11C1738.78 326.12 1723.09 316.95 1709.14 308.72C1663.33 281.69 1624.66 260 1622.28 260C1617.59 260 1595.12 272.49 1514 320.19C1506.03 324.88 1497.36 330.01 1494.75 331.6L1490 334.49L1489.75 373.99C1489.33 440.47 1489.52 481.37 1490.27 484.15C1491.05 487.03 1495.77 490.02 1535.5 512.74C1583.96 540.46 1619.28 560 1620.92 560C1621.69 560 1627.09 557.46 1632.92 554.36ZM711.75 550.28C708.12 549.73 708.15 547.05 711.85 542.78C717.24 536.56 721 530.69 721 528.5C721 523.39 714.4 521.33 710.31 525.17C706.97 528.31 707.19 525.12 710.59 521.08C713.55 517.56 717.29 517.06 722.09 519.55C728.38 522.8 727.53 529.47 719.65 538.84C717.64 541.23 716 543.82 716 544.59C716 546.56 721.96 546.42 724.86 544.38C727.94 542.23 729.84 543.87 728.26 547.33C726.76 550.61 720.88 551.67 711.75 550.28ZM1617.18 534.85C1617.51 532.6 1626.75 527.06 1680.5 496.83C1722.61 473.15 1733 468.01 1733 470.83C1733 473.27 1723.17 479.76 1694.5 496.23C1651.44 520.96 1621.44 537 1618.23 537C1617.4 537 1616.99 536.16 1617.18 534.85ZM661.2 521.94C651.22 516.96 646 508.23 646 496.53C646 483.24 651.12 474.99 661.9 470.92C674.07 466.32 685.14 467.63 693.78 474.69C700.13 479.87 703.45 486.93 703.35 495C703.25 502.56 701.63 506.76 696.11 513.74C687.42 524.74 673.39 528.03 661.2 521.94ZM580 522.9C580 522.3 580.94 520.5 582.08 518.89C584.81 515.05 585.96 506.54 585.98 489.8L586 476.1L582.5 473.43C580.58 471.96 579 470.37 579 469.88C579 468.47 587.84 468.87 590.83 470.41C594.35 472.23 599.65 478.07 614.8 496.83C621.57 505.2 627.53 511.79 628.05 511.47C629.35 510.67 629.26 479.83 627.95 476.38C627.38 474.86 626.03 473.01 624.95 472.25C621.21 469.63 622.74 468.77 630.43 469.16C634.52 469.36 638.19 469.86 638.59 470.26C638.99 470.65 638.19 472.02 636.81 473.3C634.34 475.59 634.31 475.83 633.59 498C632.88 519.89 632.26 524 629.64 524C627.74 524 615.02 510.47 602.14 494.75C595.95 487.19 590.45 481 589.94 481C588.68 481 588.73 509.5 590 514.07C590.55 516.04 592.11 518.69 593.47 519.97C594.83 521.25 595.7 522.68 595.41 523.15C594.61 524.44 580 524.22 580 522.9ZM681.28 519.65C685.51 517.88 691.44 511.22 693 506.5C694.95 500.58 693.87 488.29 690.93 483.02C687.06 476.1 682.08 472.71 675.04 472.2C666.14 471.55 660.95 474.37 657.29 481.82C653.54 489.46 653.37 500.2 656.9 507C663.41 519.58 671.47 523.76 681.28 519.65ZM825.2 500.8C823.09 498.69 823.73 496.68 826.25 497.5C831.15 499.1 834.19 498.58 836.3 495.78C839.15 492 837.51 488.37 832.55 487.44C829.13 486.8 827.41 484 830.43 484C831.21 484 832.8 482.8 833.95 481.34C835.79 479 835.87 478.44 834.65 476.59C832.84 473.86 830.69 473.51 827 475.35C824.19 476.75 824 476.72 824 474.95C824 472.58 827.68 470.09 832.28 469.34C835.04 468.89 836.24 469.24 838.01 471.01C839.96 472.96 840.17 473.92 839.63 478.51C839.16 482.52 839.36 484.06 840.51 485C842.45 486.62 842.42 492.29 840.43 496.13C837.97 500.9 828.27 503.87 825.2 500.8ZM100.34 500.01C91.34 498.12 83.95 492.28 80.33 484.21C78.07 479.16 78.09 465.88 80.37 460.55C86.56 446.1 101.85 440.71 120.82 446.29L129.14 448.74L143.32 440.72C151.12 436.3 172.35 424.4 190.5 414.27C208.65 404.13 223.94 395.41 224.48 394.89C225.11 394.28 225.53 365.59 225.64 316.36C225.73 273.7 226.19 238.42 226.65 237.96C227.12 237.5 235.38 232.54 245 226.93C254.62 221.32 266.32 214.49 271 211.76C282.77 204.88 318.1 184.62 332.15 176.68C338.56 173.06 348.41 167.78 354.04 164.93L364.27 159.76L367.89 161.47C371.34 163.1 420.98 191.55 443 204.51C460.19 214.63 490.23 231.68 494.15 233.54L497.81 235.28L509.15 229.26C515.39 225.96 526.12 219.98 533 215.98C558.56 201.13 580.76 188.66 589.23 184.39C597.63 180.17 603.59 178.73 602.79 181.14C602.43 182.22 573.61 200.32 560 208C556.42 210.02 548.55 214.6 542.5 218.19C536.45 221.77 525.2 228.41 517.5 232.93C509.8 237.46 503.39 241.28 503.24 241.42C503.1 241.57 502.69 276.18 502.34 318.33L501.7 394.97L534.14 427.74C551.99 445.76 568.48 462.9 570.8 465.84C575.08 471.29 575.54 473.89 571.86 471.93C569.03 470.41 541.08 443.78 518.51 421.09C506.23 408.74 498.8 402 497.48 402C496.36 402 490.95 404.54 485.47 407.65C479.99 410.75 451.65 426.89 422.5 443.51C393.35 460.13 368.02 474.49 366.2 475.41L362.91 477.1L311.7 447.84C261.73 419.29 229.6 402 226.52 402C225.08 402 211.68 409.25 190.11 421.7C184.94 424.68 173.24 431.3 164.11 436.41C145.3 446.93 137.02 452.06 135.07 454.41C133.97 455.75 133.95 457.07 135 462.02C139.72 484.25 121.33 504.41 100.34 500.01ZM15.03 499.04C13.79 498.25 13.94 497.69 16.03 495.47C18.44 492.91 18.51 492.42 18.82 474.67C19.17 455.35 18.37 449.8 14.96 447.98C10.98 445.85 13.13 445 22.5 445C27.73 445 32 445.35 32 445.78C32 446.21 31.1 447.33 30 448.27C28.26 449.76 28 451.22 28 459.49L28 469L41.88 469C52.97 469 56 468.7 57 467.51C58.59 465.58 57.44 451.95 55.45 449.34C52.61 445.59 53.57 445 62.5 445C67.67 445 71 445.4 71 446.03C71 446.6 70.36 447.31 69.57 447.61C66.85 448.66 66 454.3 66 471.41C66 489.17 66.75 494.37 69.62 496.46C72.7 498.71 70.17 500 62.69 499.98C53.41 499.96 52.08 499.18 54.85 495.37C56.53 493.06 56.99 490.74 57.22 483.5L57.5 474.5L42.75 474.22L28 473.95L28 483.52C28 492.34 28.19 493.28 30.45 495.54C32.78 497.87 32.81 498.03 31.01 498.99C28.65 500.26 17 500.29 15.03 499.04ZM115.8 494.26C124.54 490.2 129.2 475.61 125.58 463.61C122.52 453.44 115.42 448 105.19 448C97.35 448 93.46 450.59 89.56 458.37C84.61 468.29 86.1 479.71 93.64 489.59C99.08 496.72 106.93 498.37 115.8 494.26ZM761 474.05C761 473.52 762.09 472 763.42 470.67C766.66 467.43 767.29 462.43 766.86 442.96L766.5 426.83L763.75 424.46C762.24 423.16 761 421.85 761 421.55C761 421.25 765.06 421 770.02 421L779.05 421L777.41 423.5C776.23 425.3 775.74 428.55 775.64 435.25L775.5 444.5L788.86 444.78C797.86 444.97 802.68 444.68 803.61 443.91C804.57 443.12 805 440.46 805 435.41C805 428.69 804.75 427.78 802.02 424.67L799.03 421.27L804.53 420.63C807.55 420.27 811.79 420.26 813.96 420.61L817.89 421.24L816.2 423.82C814.73 426.05 814.5 429.39 814.5 448.1C814.5 467.36 814.7 470 816.25 471.72C817.22 472.79 817.7 473.96 817.34 474.33C816.5 475.16 800 475.22 800 474.39C800 474.06 801.12 472.45 802.5 470.82C804.75 468.14 805 466.97 805 459.04L805 450.22L791.08 449.5C783.42 449.11 776.61 449.12 775.94 449.54C774.23 450.59 775.45 468.51 777.43 471.54C778.24 472.76 778.62 474.05 778.28 474.39C777.27 475.4 761 475.08 761 474.05ZM1511.62 469.39C1510.76 462.12 1510.79 357.67 1511.65 350.36C1512.12 346.36 1512.59 345.19 1513.39 345.99C1514.18 346.78 1514.5 365.39 1514.5 410C1514.5 454.61 1514.18 473.22 1513.39 474.01C1512.59 474.81 1512.11 473.57 1511.62 469.39ZM866.15 472.49C855.05 469.38 849.18 461.35 848.27 448.05C846.84 427.29 856.74 417.85 880 417.78C892.89 417.74 896 418.76 896 423.01C896 424.69 895.29 427.74 894.42 429.78L892.84 433.5L890.84 429.33C889.56 426.64 887.67 424.6 885.53 423.58C878.99 420.48 866.46 422.34 861.31 427.18C858.07 430.22 856.79 435.03 856.75 444.36C856.71 454.05 857.73 456.43 864.96 463.5L870.07 468.5L882.29 469L894.5 469.5L891.62 471.45C887.79 474.04 873.76 474.62 866.15 472.49ZM373.38 462.86C387.61 455.64 412.5 441.71 479 403.74C484.77 400.44 490.74 396.87 492.25 395.8L495 393.86L494.87 337.18C494.79 306.01 494.46 271.74 494.12 261.02L493.5 241.55L463 223.85C446.23 214.12 428.9 204.02 424.5 201.41C401.84 187.98 363.5 166 362.74 166C362.26 166 348.73 173.73 332.68 183.18C316.63 192.64 298.05 203.55 291.39 207.43C284.73 211.32 268.9 220.57 256.21 227.99L233.13 241.48L232.82 317.49C232.64 359.3 232.62 393.96 232.77 394.51C233.24 396.3 359.47 467.56 362.88 467.96C363.09 467.98 367.81 465.69 373.38 462.86ZM1159.36 443.45C1169.34 438.33 1190.47 426.65 1222.5 408.54C1228.55 405.12 1241.83 397.68 1252 392.01C1262.17 386.34 1271.97 380.62 1273.76 379.3L1277.01 376.89L1276.76 301.23L1276.5 225.57L1264.5 218.48C1257.9 214.58 1249.41 209.69 1245.64 207.62C1241.87 205.54 1235.8 202.01 1232.14 199.77C1215.06 189.27 1145.5 150 1144 150C1142.46 150 1102.31 173 1062 196.99C1052.92 202.39 1038.53 210.86 1030 215.81C1014.96 224.55 1014.48 224.93 1013.81 228.66C1013.43 230.77 1013.09 265.18 1013.06 305.13L1013 377.75L1026.75 385.56C1034.31 389.85 1044.55 395.71 1049.5 398.58C1054.45 401.44 1060.97 405.12 1064 406.75C1072.04 411.1 1101.81 427.88 1122.5 439.74C1143.88 452 1142.87 451.9 1159.36 443.45ZM360 444.57C360 441.7 360.6 441.24 380 429.48C410.1 411.22 454.84 386.22 466.33 381.24C473.54 378.11 478.01 377.56 476.51 379.98C475.96 380.87 460.59 390.16 426 410.5C412.11 418.67 361.3 447 360.54 447C360.24 447 360 445.91 360 444.57ZM1142 429.19C1142 426.14 1154.73 417.72 1198.5 391.8C1231.35 372.35 1252.36 361 1255.54 361C1261.32 361 1258.33 363.32 1229.5 381.21C1202.24 398.12 1145.12 431 1143 431C1142.45 431 1142 430.19 1142 429.19ZM1992 389.33C1982.45 385.21 1977.04 377.19 1976.23 365.93C1975.5 355.86 1977.89 348.98 1984.34 342.53C1988.93 337.94 1990.41 337.11 1996.89 335.53C2003.99 333.79 2004.51 333.79 2012.32 335.57C2021.47 337.66 2025.77 340.68 2029.21 347.41C2032.14 353.14 2032.7 363.07 2030.52 370.57C2026.2 385.44 2005.9 395.32 1992 389.33ZM2014.08 383.75C2020.14 379.11 2022.29 374.33 2022.81 364.38C2023.37 353.67 2022.82 351.79 2017.4 346C2007.66 335.58 1998.48 335.19 1989.76 344.84C1986.7 348.23 1986.08 349.75 1985.48 355.31C1984.14 367.87 1986.92 377.55 1993.27 382.39C2000.79 388.13 2007.78 388.58 2014.08 383.75ZM253.36 383.84C252.24 382.09 251.59 297.35 252.51 271.25C253.05 255.81 253.52 251 254.5 251C255.21 251 256.16 251.79 256.63 252.75C257.09 253.71 257.61 277.99 257.79 306.7C258.18 368.99 257 389.47 253.36 383.84ZM1036.47 367.96C1034.28 364.41 1033.6 258.58 1035.64 240.25C1036.24 234.91 1038.05 233.28 1039.53 236.75C1040.62 239.3 1041.38 323.48 1040.52 346.38C1040.03 359.27 1039.36 366.49 1038.55 367.61C1037.54 368.98 1037.15 369.05 1036.47 367.96ZM2256 358.85C2247.47 353.83 2233.07 345.45 2224 340.22C2214.93 335 2206.38 329.96 2205 329.02C2200.99 326.3 2152.11 298.55 2145.28 295.12C2141.86 293.41 2138.26 292 2137.28 292C2134.98 292 2104.24 309.32 2049.54 341.41C2038.39 347.96 2036.39 348.82 2035.18 347.6C2033.39 345.82 2034.08 344.73 2039.3 341.14C2046.74 336.03 2111.59 296.9 2126.5 288.53C2135.86 283.27 2134.98 288.57 2135.14 236.6C2135.21 211.24 2135.55 176.16 2135.89 158.64L2136.5 126.78L2191.5 95.33C2257.38 57.66 2269.59 51 2272.79 51C2275 51 2285.78 56.87 2343 89.2C2394.94 118.56 2408.61 126.34 2409.75 127.25C2410.73 128.03 2411 145.29 2411 207.47C2411 281.67 2410.89 286.79 2409.25 288.22C2408.29 289.06 2392.2 298.63 2373.5 309.49C2354.8 320.35 2334.78 332.03 2329 335.46C2304.77 349.81 2273.09 368 2272.33 367.99C2271.87 367.99 2264.53 363.88 2256 358.85ZM2298.33 345.84C2311.62 338.06 2328.12 328.42 2335 324.43C2341.88 320.44 2359.88 309.98 2375 301.19L2402.5 285.2L2403.25 274.85C2403.67 269.16 2403.89 234.58 2403.75 198.02L2403.5 131.54L2371.5 113.17C2303.92 74.37 2275.73 59 2272.14 59C2270.75 59 2261.27 63.57 2251.06 69.16C2230.64 80.34 2144.22 129.63 2142.3 131.19C2141.37 131.94 2141.09 149.97 2141.08 207.55C2141.07 271.2 2141.29 283.14 2142.48 284.34C2143.26 285.12 2158.43 294.19 2176.2 304.51C2193.96 314.83 2214.8 326.96 2222.5 331.47C2261.77 354.46 2271.53 360 2272.78 360C2273.54 360 2285.04 353.63 2298.33 345.84ZM1722.3 345.09C1717.85 342.94 1706.85 337.02 1697.86 331.94C1688.86 326.86 1674.3 318.65 1665.5 313.69C1621.44 288.87 1617 286.05 1617 282.95C1617 279.89 1619.49 280.55 1630.91 286.65C1650.67 297.2 1724.91 340.08 1733.26 345.77C1734.77 346.81 1735.71 347.95 1735.34 348.33C1733.88 349.78 1730.05 348.83 1722.3 345.09ZM2257.5 328.65C2235.13 316.18 2233.97 315.52 2214.5 304.18C2175.17 281.28 2160 271.86 2160 270.32C2160 267.41 2165.92 269.75 2184.98 280.19C2237.18 308.79 2277.49 333.02 2276.72 335.34C2275.85 338.01 2271.7 336.56 2257.5 328.65ZM1951.5 317.75C1937.4 304.38 1924 289.29 1924 286.79C1924 282.65 1928.44 285.81 1943.25 300.46C1963.88 320.87 1969.96 329 1964.62 329C1963.92 329 1958.02 323.94 1951.5 317.75ZM1889.06 280.03C1877.29 275.67 1871.64 269.59 1870 259.52C1867.79 245.95 1871.33 235.49 1879.86 230.34C1888.21 225.31 1906.81 223.22 1914.53 226.45C1917.74 227.79 1918 228.23 1918 232.25C1918 238.5 1914.75 241.5 1913.69 236.22C1912.67 231.08 1900.88 227.6 1892.33 229.91C1889.92 230.56 1886.12 232.88 1883.34 235.39L1878.53 239.75L1878.16 247.9C1877.95 252.38 1878.07 257.56 1878.42 259.41C1879.27 263.98 1885.92 271.27 1891.73 274.01C1895.98 276.01 1897.57 276.2 1906.25 275.72C1911.81 275.42 1916.25 275.59 1916.57 276.12C1917.6 277.78 1907.77 281.29 1901.02 281.68C1896.22 281.95 1893.07 281.52 1889.06 280.03ZM2380.65 271.35C2379.57 265.84 2379.02 249.11 2378.54 207.5C2377.98 158.52 2378.64 141.69 2381.15 141.21C2383.61 140.74 2383.87 144.15 2384.5 185.5C2385.15 227.57 2384.06 271.34 2382.32 273.08C2381.49 273.91 2381.06 273.46 2380.65 271.35ZM462.97 252.86C439.55 240.55 379.31 205.91 367.25 197.81C360.44 193.24 358.07 190 361.52 190C364.7 190 446.14 235.69 467.41 249.41C476.66 255.38 477.56 256.29 475.7 257.83C474.77 258.61 471.41 257.3 462.97 252.86ZM1243.95 236.31C1212.31 219.63 1144.57 179.35 1142.49 175.99C1142.1 175.35 1142.24 174.36 1142.81 173.79C1143.53 173.07 1147.18 174.52 1154.68 178.52C1179.86 191.96 1235.61 224.4 1251.25 234.7C1257.46 238.8 1259.25 241.11 1257.2 242.38C1256.75 242.65 1250.79 239.92 1243.95 236.31ZM1903.64 212.31C1902.67 206.47 1901.59 145.98 1902.39 141.74C1903.22 137.33 1904.65 136.9 1905.73 140.75C1907 145.27 1906.68 213.71 1905.39 215.01C1904.58 215.82 1904.11 215.1 1903.64 212.31ZM1877.39 211.38C1876.98 209.25 1876.61 191.75 1876.57 172.5C1876.5 138.14 1876.54 137.5 1878.5 137.5C1880.34 137.5 1880.56 138.43 1881.28 149C1882.25 163.25 1880.67 212.73 1879.19 214.21C1878.46 214.94 1877.92 214.1 1877.39 211.38ZM1585.25 209.34C1583.73 208.72 1583.6 205.37 1585.06 204.46C1585.65 204.1 1586.92 204.52 1587.89 205.4C1590.42 207.69 1594.3 207.37 1596.83 204.69C1600.76 200.5 1598.81 196 1593.07 196C1590.14 196 1590.5 193.85 1594 190.5C1595.65 188.92 1597 186.9 1597 186.01C1597 182.12 1592.19 180.78 1588.22 183.56C1586.16 185 1586 184.98 1586 183.21C1586 177.86 1595.17 176.08 1599.65 180.56C1601.54 182.45 1602.05 183.76 1601.61 185.56C1601.27 186.9 1600.73 189.06 1600.41 190.36C1599.98 192.08 1600.52 193.43 1602.41 195.32C1605.56 198.47 1605.58 198.85 1602.75 203C1599.01 208.47 1590.63 211.51 1585.25 209.34ZM630.82 187.61C623.09 185.52 616.18 179.12 612.91 171C612.11 169 611.5 164.06 611.5 159.5C611.5 152.74 611.94 150.6 614.33 145.74C617.72 138.84 621.86 135.46 630.06 132.9C637.31 130.65 643.55 130.51 650.81 132.44C658.2 134.4 659.12 135.37 658.37 140.37C657.51 146.06 656.46 146.79 654.52 143.04C651.11 136.44 638.05 133.86 629.35 138.07C620.51 142.35 616.8 157.98 621.9 169.52C624.7 175.85 629.42 180.75 633.96 182C639.37 183.51 649.49 183.19 654.02 181.37C656.26 180.48 658.38 180.04 658.74 180.41C660.18 181.85 654.19 186 648.54 187.46C641.49 189.28 637.18 189.32 630.82 187.61ZM686.5 188.02C680.98 186.6 678.53 185.25 674.63 181.44C663.76 170.84 662.95 153.93 672.69 141.16C678.57 133.45 695.96 129.63 707.02 133.6C718.05 137.57 724.31 146.38 724.37 158.05C724.43 168.59 720.3 176.5 711.65 182.41C703.94 187.68 693.89 189.93 686.5 188.02ZM748.77 187.47C742.51 185.46 734.8 177.79 732.62 171.39C727.06 155.09 734.74 138.08 749.68 133.59C761.83 129.93 776.41 132.97 782.76 140.48C789.58 148.54 791.23 159.95 787 169.79C781.1 183.5 762.81 191.96 748.77 187.47ZM796.75 187.31C794.42 186.7 794.52 186.32 797.75 183.54L800.5 181.18L800.81 160.73L801.11 140.29L798.56 137.25C797.15 135.58 796 133.94 796 133.61C796 133.27 800.12 133 805.15 133L814.31 133L812.44 135.07C810.94 136.72 810.48 139.14 810.17 147.07L809.77 157L823.68 157C833.17 157 837.98 156.62 838.8 155.8C840.34 154.26 840.37 142.57 838.84 139.68C838.2 138.48 836.85 136.91 835.84 136.19C832.37 133.73 834 133 843 133C847.95 133 852 133.24 852 133.54C852 133.83 851.21 135.27 850.25 136.74C848.73 139.07 848.5 142.08 848.5 160C848.5 177.92 848.73 180.93 850.25 183.26C851.95 185.85 851.94 185.96 849.86 187.07C847.7 188.23 835.65 187.99 834.42 186.76C834.06 186.4 835.06 184.99 836.63 183.64C839.43 181.24 839.5 180.93 839.5 171.34L839.5 161.5L824.75 161.22L810 160.95L810 170.84C810 179.33 810.29 181.1 812.07 183.36L814.14 186L811.51 187C808.88 188 800.08 188.18 796.75 187.31ZM1423.73 185.96C1409.92 182.53 1402.04 172.36 1402.05 158C1402.07 139.1 1413.89 128.88 1434.12 130.27C1443.47 130.91 1449.37 133.45 1454.37 138.99C1462.28 147.75 1461.89 164.31 1453.51 175.28C1447.34 183.36 1433.4 188.36 1423.73 185.96ZM1488.34 185.96C1479.28 184.17 1472.59 178.84 1468.92 170.5C1463.04 157.13 1467.67 139.79 1478.87 133.23C1482.97 130.83 1484.74 130.47 1494.25 130.15C1506.32 129.73 1511.22 130.36 1513.47 132.61C1515.23 134.37 1515.48 139.23 1513.96 142.07C1512.75 144.34 1511 144.63 1511 142.56C1511 137.08 1497.47 131.72 1489.25 133.93C1480.14 136.38 1475.06 143.95 1475.02 155.1C1475 162.8 1476.2 166.85 1480.28 172.85C1484.69 179.35 1489.08 180.95 1502.46 180.98C1511.94 181 1513.23 181.19 1511.96 182.41C1509.97 184.34 1500.44 187.02 1496.07 186.89C1494.11 186.83 1490.63 186.41 1488.34 185.96ZM1522.02 185.03C1520.78 184.25 1521.03 183.58 1523.52 180.98L1526.5 177.87L1526.83 160.59C1527.18 142.04 1526.27 135.75 1522.97 133.98C1519.04 131.88 1521.11 131 1530 131C1534.95 131 1539 131.24 1539 131.54C1539 131.83 1538.35 133.07 1537.55 134.29C1536.64 135.69 1536 139.8 1535.8 145.5L1535.5 154.5L1550 154.5L1564.5 154.5L1564.79 146.19C1565.08 138.06 1565.02 137.82 1562.04 135.04C1560.37 133.48 1559 131.93 1559 131.6C1559 131.27 1563.22 131 1568.37 131L1577.75 131L1575.8 134.94C1574.02 138.53 1573.88 140.68 1574.18 159.34C1574.46 177.49 1574.71 180.02 1576.33 181.82C1578.11 183.78 1578.11 183.87 1576.15 184.92C1573.69 186.24 1563.06 186.32 1561.04 185.05C1559.83 184.28 1560.05 183.68 1562.33 181.57C1565.01 179.09 1565.07 178.79 1564.79 169.26L1564.5 159.5L1550 159.5L1535.5 159.5L1535.68 169.32C1535.8 176.12 1536.32 179.84 1537.36 181.43C1538.49 183.15 1538.58 184.02 1537.73 184.87C1536.37 186.23 1524.12 186.36 1522.02 185.03ZM704.25 182.05C716.35 174.38 719.55 156.93 711.11 144.66C706.12 137.41 694.25 133.93 685.24 137.07C680.04 138.88 673.99 150.09 674.01 157.88C674.04 166 678.72 176.2 684.34 180.39C691.44 185.68 697.72 186.2 704.25 182.05ZM766.8 183.58C770.27 181.76 776.35 175.36 778.29 171.49C784.18 159.77 778.97 142.81 768.05 138.12C761.74 135.4 752.71 135.27 748.5 137.84C744.44 140.31 739.98 148.81 739.3 155.35C738.14 166.61 744.16 178.3 753.31 182.56C759.25 185.33 762.94 185.61 766.8 183.58ZM1437.5 181.13C1442.64 178.79 1448.57 172.2 1449.93 167.32C1451.29 162.41 1451.3 152.93 1449.94 149.32C1446.36 139.75 1438 133.48 1429.01 133.6C1422.18 133.7 1417.72 135.92 1414.6 140.78C1408.89 149.67 1408.64 159.76 1413.87 170.38C1419.27 181.35 1428.15 185.39 1437.5 181.13ZM2159 148.03C2159 146.62 2167.94 140.15 2180.5 132.49C2192.01 125.46 2251.46 90.69 2265.84 82.57C2273.59 78.19 2277 77.41 2277 80C2277 82.11 2235.44 107.96 2191 133.49C2166.43 147.61 2159 150.98 2159 148.03ZM1884.72 122.97C1876.45 120.9 1870.12 115.42 1867.54 108.12C1865.3 101.77 1865.53 89.34 1868 82.72C1871.94 72.21 1880.07 67.64 1895 67.55C1903.45 67.51 1905.13 67.81 1910.23 70.31C1920.1 75.16 1924.01 81.92 1923.99 94.12C1923.97 105.48 1917.24 115.72 1906.59 120.58C1900.77 123.24 1890.34 124.37 1884.72 122.97ZM1904.25 117.05C1919.71 107.25 1919.29 81.38 1903.55 73.48C1895.49 69.44 1884.82 70.45 1879.75 75.74C1875.74 79.93 1873.99 85.12 1874.04 92.72C1874.13 106.07 1879.37 114.34 1890.49 118.67C1895.51 120.63 1899.32 120.19 1904.25 117.05Z" fill="#1e2749" fill-rule="evenodd"/>
</svg>
