<?xml version="1.0" encoding="UTF-8"?>
<svg xmlns="http://www.w3.org/2000/svg" viewBox="0 0 2430 1825" width="2430" height="1825" shape-rendering="geometricPrecision">
<path d="M1535.39 1786.56C1523.3 1783.83 1514.63 1777.08 1509.36 1766.3C1505.9 1759.23 1504.98 1750.16 1507.46 1747.68C1510.8 1744.34 1519.99 1746.63 1520.01 1750.81C1520.03 1758.4 1526.75 1767.33 1535.27 1771.07C1553.14 1778.91 1575 1767.13 1575 1749.66C1575 1736.51 1567.29 1728.52 1549.42 1723.17C1539.41 1720.17 1534.01 1714.61 1538.75 1712.17C1539.71 1711.68 1543.04 1711.02 1546.14 1710.72C1553.21 1710.03 1556.96 1708.1 1563.79 1701.64C1572.52 1693.38 1573.5 1690.08 1570 1680.74C1568.01 1675.4 1563.72 1670.41 1559 1667.92C1555.13 1665.87 1543.34 1666.31 1537.95 1668.69C1528.81 1672.74 1525.19 1677.4 1523.54 1687.22C1522.5 1693.45 1515.39 1696.3 1511.53 1692.04C1510.12 1690.48 1509.85 1688.87 1510.21 1684.29C1510.79 1676.96 1513.98 1670.27 1520.13 1663.55C1526.84 1656.21 1532.78 1653.75 1545.2 1653.2C1560.52 1652.52 1572.46 1656.87 1580.25 1665.98C1584.41 1670.84 1586 1676.3 1586 1685.76C1586 1694.43 1583.95 1701.4 1579.49 1707.88C1577.57 1710.67 1576 1713.91 1576 1715.08C1576 1716.25 1578.09 1719.52 1580.65 1722.35C1588.04 1730.53 1589.46 1734.57 1589.48 1747.5C1589.5 1756.77 1589.15 1759.26 1587.29 1763.29C1584.65 1769.01 1571.14 1782.74 1565.44 1785.5C1560.35 1787.97 1544.12 1788.54 1535.39 1786.56ZM1649.18 1782.41C1643.81 1778.65 1639.64 1769 1623.73 1723.5C1606.31 1673.71 1599.56 1652.59 1600.38 1650.46C1600.75 1649.48 1602.42 1649 1605.48 1649C1609.88 1649 1610.13 1649.17 1613.32 1654.25C1619.05 1663.37 1621.24 1668.99 1636 1712.5C1649.64 1752.69 1651.01 1756.23 1652.48 1755.02C1654.69 1753.18 1663 1731.55 1678.65 1686.82C1682.25 1676.55 1687.29 1663.95 1689.85 1658.82C1694.73 1649.04 1696 1648.03 1701.6 1649.44C1706.1 1650.57 1705.7 1652.15 1686.13 1710.44C1662.77 1779.98 1658.26 1788.77 1649.18 1782.41ZM673.25 1772.54C657.06 1768.88 645.24 1756.41 644.18 1741.88C643.84 1737.13 644.11 1735.89 645.89 1734.11C650.62 1729.38 657.36 1732.32 658.35 1739.54C659.38 1747.05 663.87 1752.35 673 1756.81C677.57 1759.05 679.78 1759.49 686.06 1759.42C692.41 1759.34 694.47 1758.87 698.92 1756.45C711.82 1749.42 716.32 1736.91 710.25 1724.94C706.74 1718.02 700.97 1713.65 691.68 1710.87C681.95 1707.95 677.14 1705.4 675.79 1702.43C674.23 1699.02 675.35 1698.23 683.32 1697.1C691.47 1695.94 696.89 1692.96 703.3 1686.11C710.86 1678.03 711.46 1673.79 706.47 1663.94C703.3 1657.69 699.12 1654.37 692.75 1653.05C679.62 1650.33 664.2 1658.31 662.47 1668.73C661.09 1677.1 658.83 1680 653.72 1680C651 1680 648.56 1677.63 647.72 1674.18C646.88 1670.77 649.67 1661.19 653 1656.01C660.2 1644.8 668.55 1639.92 681.77 1639.2C702.11 1638.09 718.42 1646.57 722.52 1660.39C725.71 1671.13 723.9 1683.93 717.91 1692.89C715.76 1696.11 714 1699.88 714 1701.25C714 1702.86 715.92 1705.9 719.4 1709.8C726.24 1717.46 727.4 1720.97 727.46 1734C727.49 1743.18 727.19 1745.13 725.04 1749.5C722.06 1755.56 709.93 1767.96 703.89 1771.1C698.36 1773.99 682.88 1774.71 673.25 1772.54ZM752.07 1769.26C750.19 1767.73 749.72 1765.94 748.91 1756.98C747.75 1744.18 748.45 1642.7 749.73 1638.5C750.57 1635.76 751.02 1635.5 755.06 1635.5C762.09 1635.5 762.1 1635.55 762.07 1675.15C762.06 1693.95 762.31 1710.39 762.63 1711.68C763.17 1713.8 764.86 1712.43 780.44 1697.26C791.53 1686.47 799.94 1679.16 804.06 1676.75C809.88 1673.33 811.11 1673 817.83 1673L825.2 1673L820.17 1678.75C817.4 1681.91 809.71 1689.89 803.07 1696.48C796.43 1703.08 791 1708.96 791 1709.56C791 1710.15 795.56 1717.36 801.13 1725.57C817.04 1749 828.2 1767.04 827.66 1768.45C826.86 1770.53 821.8 1770.98 818.21 1769.29C813.39 1767.02 807.48 1759.81 792.73 1738.25C785.49 1727.66 778.98 1719 778.26 1719C776.12 1719 767.99 1727.1 765.76 1731.46C763.88 1735.1 762.45 1747.56 762.05 1763.64C761.93 1768.73 755.73 1772.22 752.07 1769.26ZM857.51 1769.81C844.87 1769.32 834.2 1768.6 833.81 1768.21C833.41 1767.81 832.78 1762.06 832.4 1755.44C831.42 1738.05 833.38 1735.67 842.18 1743.57C844.2 1745.38 847.58 1747.34 849.68 1747.93C853.81 1749.07 873.25 1749.41 874.31 1748.36C874.66 1748 871.48 1745.66 867.23 1743.14C853.57 1735.07 843.97 1723.08 840.39 1709.63C838.5 1702.54 838.61 1685.7 840.59 1678.93C847.58 1654.99 868.01 1642 898.67 1642C916.75 1642 927.47 1644.85 940.58 1653.12C952.44 1660.61 957.17 1668.52 959.07 1684C960.52 1695.81 959.74 1708.72 957.12 1716.23C953.14 1727.64 945.89 1735.41 932.14 1742.99C927.66 1745.45 924 1747.82 924 1748.24C924 1749.42 944 1749.13 948.5 1747.88C950.7 1747.28 954.4 1745.03 956.73 1742.89C964.41 1735.83 966.58 1738.27 967.58 1755.06C968.63 1772.58 971.47 1771.08 937.71 1770.77L909.5 1770.5L909.8 1764C910.15 1756.37 912.34 1746.17 914.55 1741.91C915.41 1740.25 919.03 1735.71 922.6 1731.82C926.17 1727.93 929.9 1723.11 930.89 1721.12C938.25 1706.28 938.03 1684.86 930.36 1669.73C926.95 1663 920.57 1656.34 914.54 1653.2C910.22 1650.96 908.21 1650.58 900.5 1650.54C892.84 1650.51 890.67 1650.89 885.95 1653.1C878.27 1656.7 873.64 1661.07 868.71 1669.36L864.5 1676.45L864.15 1689.31C863.49 1713.11 866.59 1724.12 876.18 1732.15C882.68 1737.59 887.47 1747.49 889.54 1759.76C890.4 1764.85 890.83 1769.46 890.5 1770.01C890.16 1770.55 887.77 1770.93 885.19 1770.85C882.61 1770.76 870.16 1770.3 857.51 1769.81ZM1550.35 1618.42C1548.65 1615.81 1548.46 1612.29 1548 1573.55L1547.5 1531.5L1244.05 1531.5L940.61 1531.5L936.38 1541C926.87 1562.38 923.71 1569 923 1569C922.59 1569 915.36 1555.05 906.94 1538C898.51 1520.95 891.34 1507 891 1507C890.66 1507 884.81 1518.59 877.99 1532.75C864.66 1560.43 860.33 1568.32 858.94 1567.46C857.33 1566.47 851.33 1554.86 839.95 1530.75C833.78 1517.69 828.23 1507.01 827.62 1507.03C827 1507.05 819.88 1520.88 811.78 1537.77C803.69 1554.66 796.68 1568.61 796.2 1568.77C795.72 1568.93 788.65 1555.1 780.5 1538.03C772.34 1520.96 765.12 1507 764.44 1507C763.77 1507 762.53 1508.69 761.69 1510.75C760.85 1512.81 757.37 1520.35 753.95 1527.5C750.54 1534.65 744.66 1546.95 740.9 1554.83C736.73 1563.57 733.65 1568.9 733 1568.5C732.41 1568.13 725.19 1554.37 716.96 1537.92C708.73 1521.46 701.58 1508 701.07 1508C700.57 1508 697.95 1512.61 695.25 1518.25C692.55 1523.89 689.66 1529.06 688.82 1529.75C687.6 1530.75 621.54 1530.95 363.4 1530.75L39.5 1530.5L39.25 1047.25L39 564.01L228.25 563.75L417.5 563.5L421.08 556.68C425.57 548.15 429.61 544.11 438.5 539.27L445.5 535.46L445.75 436.73L446.01 338.01L607.25 337.75L768.5 337.5L768.76 292.75L769.02 248L778.01 248L787 248L787 344.38C787 426.01 786.78 440.93 785.59 441.92C784.72 442.65 781.39 442.98 776.84 442.8L769.5 442.5L769.24 397.77L768.98 353.03L766.74 352.49C765.51 352.2 696.1 352.08 612.5 352.23L460.5 352.5L460.5 444.49L460.5 536.48L465.81 538.38C477.2 542.48 487.34 557.73 487.45 570.93C487.49 576.45 487.03 578.3 484.57 582.5C480.56 589.35 471.79 598.34 467.04 600.48C463.68 602 462.93 602.92 461.91 606.88C461.05 610.22 460.6 636.13 460.29 700.75L459.85 790.01L570.67 789.75L681.5 789.5L685.48 781C693.18 764.57 698.52 754.71 700.29 753.61C701.76 752.7 702.43 752.95 704 755C706.51 758.28 714.85 775.38 724.09 796.21C729.82 809.13 731.77 812.65 732.68 811.71C733.33 811.04 740.69 797.09 749.04 780.7C757.38 764.31 764.65 751.05 765.18 751.23C765.71 751.4 772.75 765.37 780.82 782.26C788.9 799.15 795.88 812.85 796.35 812.7C796.82 812.55 802.72 800.75 809.46 786.47C824.09 755.47 826.02 751.89 828 752.24C828.86 752.39 835.28 764.13 843.05 779.76C850.5 794.76 857.33 807.76 858.23 808.66C859.73 810.16 860.02 810.03 861.99 806.89C863.17 805.03 867.07 797.42 870.66 790C890.69 748.64 889.92 749.9 892.84 753.8C895.13 756.85 898.3 763.07 910.47 788.41L921 810.31L923.11 808.41C924.27 807.36 927.49 802.79 930.26 798.25L935.31 790L1068.53 790C1183 790 1201.92 789.8 1202.95 788.57C1204.59 786.59 1203.74 735.91 1201.99 731.18C1201.04 728.62 1199.59 727.35 1195.6 725.59C1189.47 722.88 1183.2 716.16 1179.29 708.12C1177.02 703.45 1176.55 701.14 1176.53 694.49C1176.5 687.44 1176.89 685.67 1179.73 679.89C1183.89 671.44 1190.02 664.51 1195.82 661.72C1199.23 660.07 1200.63 658.73 1201.23 656.5C1202.91 650.28 1203.9 605.36 1203.7 544.05L1203.5 480.6L1197 478.12C1187.74 474.58 1181.07 467.72 1178.04 458.61C1174.92 449.25 1175.41 437.1 1179.24 428.77C1181.59 423.64 1182.75 422.47 1190.19 417.65C1201.4 410.4 1202.05 409.54 1203.04 400.69C1204.43 388.26 1204.11 354.34 1202.59 353.07C1201.67 352.31 1151.16 352.07 1028.89 352.25L856.5 352.5L856.32 396.36C856.21 420.48 855.89 440.84 855.6 441.61C855.2 442.64 852.97 443 847.03 443L839 443L838.96 434.25C838.91 422.63 838.9 289.46 838.96 266.25L839 248L847.5 248L856 248L856.08 265.75C856.12 275.51 856.23 295.65 856.33 310.5L856.5 337.5L1200 337.5L1543.5 337.5L1543.76 292.75L1544.02 248L1553.01 248L1562 248L1562 344.38C1562 426.01 1561.78 440.93 1560.59 441.92C1559.72 442.65 1556.39 442.98 1551.84 442.8L1544.5 442.5L1544 397.5L1543.5 352.5L1380 352.26C1290.08 352.13 1215.89 352.41 1215.15 352.88C1214.04 353.59 1213.95 358.54 1214.67 381.29C1215.67 412.72 1214.98 410.47 1225.45 416.7C1238.33 424.38 1241.48 430.03 1241.49 445.5C1241.5 454.41 1241.2 456.11 1238.73 461.14C1235.24 468.24 1228.68 474.34 1220.7 477.91L1214.5 480.67L1214.33 567.59C1214.24 615.39 1214.38 655.26 1214.63 656.19C1214.89 657.11 1218.39 659.68 1222.41 661.89C1232.17 667.24 1235.58 670.26 1238.77 676.38C1241.13 680.91 1241.44 682.65 1241.47 691.5C1241.5 700.3 1241.18 702.19 1238.82 707.22C1235.5 714.29 1228.21 722.24 1222.48 725.01C1220.11 726.16 1217.66 727.7 1217.05 728.44C1216.44 729.18 1215.54 733.32 1215.04 737.64C1214.05 746.33 1213.74 786.16 1214.64 788.51C1215.14 789.82 1230.1 790 1336.18 790L1457.14 790L1462.12 779.25C1469.7 762.91 1474.32 753.98 1475.84 752.72C1476.91 751.83 1477.55 752.02 1478.71 753.54C1480.19 755.48 1494.5 784.39 1503.39 803.41C1505.94 808.85 1508.31 813.02 1508.67 812.66C1509.03 812.3 1514.79 800.64 1521.47 786.75C1534.58 759.49 1538.23 753 1540.46 753C1542.33 753 1546.96 761.03 1555.43 779C1563.91 796.98 1571.19 810.09 1572.47 809.67C1573.54 809.32 1581.85 793.2 1592.66 770.5C1596.59 762.25 1600.5 754.6 1601.34 753.5L1602.88 751.5L1604.81 753.5C1607.14 755.92 1610.13 761.64 1622.35 787C1627.52 797.73 1632.43 807.38 1633.26 808.46C1634.73 810.35 1634.84 810.31 1636.94 806.96C1638.13 805.06 1644.74 792.14 1651.63 778.26C1658.51 764.38 1664.64 752.72 1665.24 752.35C1667.19 751.15 1670.1 756.11 1684.19 784.75C1691.83 800.29 1698.28 813 1698.52 813C1698.76 813 1701.16 808.33 1703.85 802.62L1708.75 792.24L1742.12 791.64C1760.48 791.31 1816.22 790.77 1866 790.45C1915.78 790.13 1956.84 789.53 1957.26 789.13C1957.67 788.72 1957.9 747.01 1957.76 696.44L1957.5 604.5L1950.79 600C1941.86 594.01 1937.36 589.53 1934.2 583.5C1931.98 579.25 1931.58 577.22 1931.57 570C1931.56 562.45 1931.92 560.76 1934.79 554.83C1938.32 547.55 1946 539.71 1950.73 538.55C1952.25 538.17 1954.51 537.21 1955.75 536.41L1958 534.95L1958 444.08C1958 362.14 1957.84 353.15 1956.42 352.61C1955.55 352.27 1882.2 352 1793.42 352L1632 352L1632 396.38C1632 433.31 1631.76 440.95 1630.59 441.92C1629.72 442.65 1626.39 442.98 1621.84 442.8L1614.5 442.5L1614.25 345.21L1613.99 247.92L1622.75 248.21L1631.5 248.5L1631.76 293.25L1632.02 338L1802.01 338L1972 338L1972.02 344.25C1972.03 347.69 1972.04 391.94 1972.02 442.6C1972 546.2 1971.14 535.57 1979.89 539.98C1986.79 543.45 1993.61 550.49 1996.98 557.62L2000 564L2189.5 564L2379 564L2379 1046.3C2379 1420.09 2378.73 1528.87 2377.8 1529.8C2376.87 1530.73 2292.57 1531 2004.45 1531L1632.31 1531L1631.62 1559.25C1630.8 1593.19 1631.08 1592.33 1620.65 1592.8L1614 1593.09L1614 1523.55L1614 1454L1620.5 1454C1629.9 1454 1630.96 1455.32 1631.14 1467.25C1631.21 1472.34 1631.55 1485.5 1631.89 1496.5L1632.5 1516.5L1997 1516.5C2197.47 1516.5 2362.29 1516.18 2363.25 1515.78C2364.92 1515.1 2364.99 1491.99 2364.75 1045.28L2364.5 575.5L2181.95 575.25L1999.4 574.99L1997.58 580.05C1995.16 586.77 1987.51 594.97 1979.2 599.75L1972.5 603.59L1972.26 701.04C1972.13 754.64 1971.81 799.06 1971.54 799.75C1971.16 800.74 1944.99 801.01 1844.28 801.03L1717.5 801.05L1708.5 820.7C1703.54 831.5 1699.04 840.48 1698.5 840.65C1697.95 840.82 1690.86 827.43 1682.73 810.91C1671.05 787.14 1667.6 780.93 1666.23 781.18C1665.08 781.39 1660.17 790.23 1651.5 807.68C1639.76 831.33 1635.93 838 1634.08 838C1633.05 838 1627.62 827.52 1618.26 807.5C1609.2 788.11 1604.71 780 1603.04 780C1602.52 780 1598.98 786.41 1595.17 794.25C1591.36 802.09 1585.27 814.63 1581.63 822.12C1574.41 837 1572.76 839.19 1570.49 836.91C1569.71 836.14 1562.97 823.21 1555.52 808.18C1544.84 786.66 1541.59 780.93 1540.23 781.19C1538.54 781.51 1529.48 798.61 1515.46 827.96C1510.23 838.91 1507 843.53 1507 840.08C1507 838.41 1483.61 791.13 1480.12 785.75C1478.43 783.14 1476.63 781 1476.13 781C1475.63 781 1473.38 784.54 1471.13 788.86C1468.89 793.18 1466.47 797.2 1465.76 797.79C1464.86 798.53 1407.95 799.03 1277.48 799.45C1174.64 799.77 1057.2 800.32 1016.5 800.66L942.5 801.28L934.6 817.06C930.26 825.74 925.65 834.11 924.36 835.67C922.04 838.47 921.99 838.48 920.41 836.5C919.54 835.4 915.89 828.42 912.32 821C894.25 783.48 892.93 781 890.99 781C889.55 781 887.52 784.25 882.43 794.75C861.38 838.18 860.42 839.82 857.73 837.13C857.05 836.46 850.42 823.66 843 808.7C834.02 790.61 828.92 781.39 827.77 781.18C826.08 780.87 818.37 795.63 802.16 830.25C799.39 836.16 796.76 841 796.31 841C795.87 841 788.87 827.38 780.77 810.75C772.67 794.11 765.56 780.5 764.96 780.5C764.37 780.5 757.13 793.77 748.86 810C740.6 826.23 733.28 840.07 732.61 840.77C731.64 841.78 730.39 839.74 726.51 830.77C723.82 824.57 719.75 815.45 717.46 810.5C715.16 805.55 710.92 796.21 708.02 789.75C705.13 783.29 702.25 778.02 701.63 778.04C701.01 778.06 698.25 782.67 695.5 788.29L690.5 798.5L641 799.14C613.77 799.49 558.76 800.02 518.75 800.32L446 800.86L446 702.89L446 604.91L439.82 601.21C430 595.31 424.71 589.89 421.07 582L417.84 575L235.47 575L53.1 575L53.1 1045.5C53.1 1304.28 53.41 1516.06 53.8 1516.14C55.92 1516.55 679.73 1516.57 680.9 1516.16C681.68 1515.89 686.3 1507.42 691.19 1497.33C696.07 1487.25 700.5 1479 701.03 1479C701.57 1479 708.86 1492.72 717.24 1509.5C725.63 1526.28 732.86 1540 733.31 1540C733.77 1540 737.05 1533.81 740.61 1526.25C758.84 1487.51 763.55 1478 764.52 1478C765.45 1478 777.62 1502.49 791.32 1531.9C794.45 1538.64 795.94 1540.91 796.56 1539.9C797.39 1538.57 818.77 1494.45 824.02 1483.22C825.53 1480 827.05 1478.06 827.92 1478.22C828.71 1478.38 832.21 1484.8 835.71 1492.5C846.75 1516.79 858.16 1539.11 859.35 1538.76C860.72 1538.35 872.01 1516.61 882.18 1494.78C886.21 1486.14 890.09 1479.05 890.81 1479.03C891.55 1479.01 898.74 1492.55 907.36 1510.21L922.6 1541.42L929.19 1528.98L935.77 1516.55L1240.83 1516.53C1442.86 1516.51 1546.23 1516.16 1546.88 1515.5C1547.48 1514.89 1548 1498.26 1548.22 1473C1548.58 1430.98 1549.02 1426 1552.35 1426C1554.92 1426 1556.21 1428.89 1557.13 1436.73C1558.33 1446.87 1558.31 1599.13 1557.11 1609.38C1556.45 1615.04 1555.63 1617.81 1554.2 1619.25C1552.21 1621.24 1552.2 1621.24 1550.35 1618.42ZM744.96 1052.96C743.96 1051.96 742.79 1048.97 742.35 1046.32C741.29 1039.89 741.27 933.09 742.33 925.7C743.02 920.86 743.56 919.74 745.58 918.97C748.84 917.73 752.8 919.34 753.95 922.38C754.46 923.7 754.96 940.93 755.07 960.65C755.17 980.37 755.47 996.87 755.73 997.32C755.99 997.77 763.69 990.79 772.85 981.81C782.01 972.83 792.14 963.69 795.37 961.49C800.88 957.75 801.76 957.48 809.62 957.15C814.23 956.95 818 957.05 818 957.37C818 957.68 810.46 965.63 801.25 975.03C792.04 984.43 784.37 992.66 784.22 993.33C784.07 993.99 789.85 1003.3 797.06 1014.02C817.2 1043.92 821.34 1050.89 819.93 1052.58C818.34 1054.49 812.51 1054.38 809.44 1052.37C805.67 1049.9 796.19 1037.66 783.91 1019.42C776.79 1008.83 772.26 1003 771.15 1003C768.97 1003 760.78 1011.38 758.44 1016C757.17 1018.51 756.36 1023.93 755.56 1035.13C754.88 1044.62 753.95 1051.35 753.19 1052.27C751.2 1054.67 747.02 1055.02 744.96 1052.96ZM850 1053.73C837.35 1053.19 827.23 1052.35 826.88 1051.79C826.54 1051.25 825.95 1045.77 825.57 1039.62C824.53 1022.74 826.44 1019.79 833.97 1026.59C836.15 1028.56 840.05 1030.81 842.63 1031.59C847.62 1033.09 866.54 1033.56 867.37 1032.2C867.64 1031.77 864.43 1029.4 860.23 1026.95C846.46 1018.93 837.6 1007.88 833.47 993.6C832.15 989.02 831.86 984.98 832.18 975.6C832.58 964.02 832.76 963.16 836.42 955.58C842.93 942.09 852.26 933.99 866.76 929.26C873.06 927.2 877.13 926.64 888.65 926.24C908.2 925.57 917.93 927.73 931.5 935.75C947.62 945.28 952.87 956.49 952.97 981.54C953.05 1002.25 944.91 1015.64 925.71 1026.37C920.92 1029.05 917 1031.64 917 1032.12C917 1032.6 921.42 1033 926.82 1033C937.8 1033 945.63 1031.17 948.58 1027.91C949.64 1026.75 951.79 1025.13 953.37 1024.31C955.88 1023.01 956.43 1023 957.7 1024.27C958.49 1025.07 959.55 1027.47 960.05 1029.61C961.29 1034.97 961.24 1052.73 959.98 1053.51C958.36 1054.51 904.65 1055.06 903.12 1054.09C901.94 1053.35 901.98 1051.53 903.35 1042.09C905.29 1028.79 906.96 1025.22 915.71 1015.71C923.51 1007.21 926.64 1000.93 928.64 989.72C932.51 968.05 922.93 944.57 907.03 936.73C903.3 934.9 900.82 934.5 893 934.51C884.27 934.51 883.01 934.77 877.38 937.7C870.58 941.25 864.2 947.85 860.15 955.5C857.57 960.37 857.5 960.96 857.55 978C857.61 1001.31 858.47 1004.24 868.52 1015.16C872.62 1019.61 877.09 1025.55 878.44 1028.37C880.96 1033.6 884.54 1051.16 883.59 1053.64C883 1055.16 883.99 1055.16 850 1053.73ZM1442.75 1054.2C1436.17 1053.86 1436.38 1054.4 1438.48 1043.42C1441.92 1025.44 1449.15 1016.66 1475.69 998.21C1501.77 980.09 1508.97 972.14 1508.99 961.45C1509.01 951.23 1500.69 940.53 1490.29 937.38C1484.57 935.64 1479.37 936.3 1472.89 939.57C1463.43 944.34 1458.83 950.17 1457.73 958.79C1456.85 965.68 1453.28 968.41 1446.56 967.32C1441.9 966.56 1441.23 963.99 1443.38 955.18C1447.12 939.86 1455.23 929.32 1466.55 925.05C1471.82 923.06 1473.81 922.86 1484 923.28C1497.01 923.82 1504.2 925.87 1512.63 931.46C1519.02 935.7 1521.6 940.72 1523.1 951.88C1526.02 973.57 1519.35 987.02 1499.42 999.69C1476.7 1014.12 1469.78 1019.08 1462.75 1025.97C1454.59 1033.97 1453.15 1037.21 1457.25 1038.44C1458.49 1038.81 1472.59 1039.52 1488.59 1040.02C1504.58 1040.52 1518.86 1041.38 1520.31 1041.93C1526.49 1044.28 1523.76 1052.07 1516.27 1053.48C1512.62 1054.16 1453.12 1054.75 1442.75 1054.2ZM1669.7 1054.4C1669.59 1054.31 1660.05 1053.94 1648.5 1053.57C1636.95 1053.2 1627.11 1052.51 1626.64 1052.04C1625.39 1050.79 1624.68 1025.79 1625.85 1024.09C1627.1 1022.27 1631.75 1024.04 1635.09 1027.6C1636.35 1028.94 1639.63 1030.7 1642.37 1031.52C1647.81 1033.13 1665.53 1033.57 1666.43 1032.11C1666.74 1031.62 1663.75 1029.3 1659.79 1026.95C1646.47 1019.03 1638.39 1009.46 1633.82 996.19C1631.96 990.79 1631.52 987.38 1631.52 978.5C1631.52 969.62 1631.96 966.21 1633.82 960.81C1641.92 937.26 1660.91 925.97 1692.34 926.02C1707.02 926.04 1715.43 927.9 1727 933.7C1746.56 943.49 1752.05 953.51 1752.07 979.5C1752.08 998.72 1749.2 1006.79 1738.82 1016.61C1735.87 1019.4 1729.75 1023.82 1725.23 1026.43C1720.7 1029.04 1717 1031.59 1717 1032.09C1717 1033.36 1733.83 1033.23 1740 1031.91C1743.5 1031.16 1746.53 1029.57 1749.67 1026.86C1757.92 1019.71 1760.12 1022.78 1759.75 1041L1759.5 1053.5L1755 1054.21C1752.53 1054.6 1739.59 1054.65 1726.25 1054.31L1702 1053.71L1702 1050.6C1702.01 1044.43 1704.84 1030.23 1706.85 1026.29C1707.98 1024.07 1711.84 1019.07 1715.41 1015.17C1723.08 1006.82 1725.65 1002.16 1727.56 993.14C1732.45 970.04 1723.77 945.71 1707.56 937.18C1703.11 934.83 1701.35 934.51 1693 934.5C1684.62 934.5 1682.83 934.83 1677.81 937.29C1671.32 940.48 1663.66 948.3 1660.2 955.28C1655.86 964.04 1655.09 979.72 1658.14 997.46C1659.51 1005.42 1661.02 1008.07 1669.01 1016.52C1672.74 1020.46 1676.73 1025.51 1677.87 1027.75C1680.63 1033.15 1684.17 1052.63 1682.62 1053.87C1681.73 1054.58 1670.48 1055.05 1669.7 1054.4ZM684.96 1052.45C682.85 1049.91 682.15 1035.74 682.07 994.25C682.01 958.58 681.85 955 680.36 955C679.46 955 673.63 955.53 667.4 956.18C654.01 957.58 651 956.84 651 952.14C651 948.4 652.39 947.35 658.5 946.46C664.02 945.66 667.81 944.03 672.82 940.28C677.15 937.04 682 930.29 682 927.5C682 921.94 690.57 919.89 693.73 924.7C695.3 927.1 695.56 930.96 696 958.74C696.27 975.96 696.27 1003.23 696 1019.33C695.56 1045.12 695.29 1048.91 693.73 1051.29C691.7 1054.39 687.07 1055 684.96 1052.45ZM1542.83 1050.25C1541.78 1047.29 1541.5 1033.9 1541.5 987C1541.5 954.27 1541.86 925.82 1542.29 923.76C1543.2 919.51 1545.78 917.66 1549.51 918.59C1554.3 919.79 1554.47 921.06 1555 960.65L1555.5 997.8L1573.59 980.56C1583.77 970.87 1594.11 961.94 1597.21 960.16C1602.13 957.35 1603.61 957 1610.61 957L1618.48 957L1601.24 974.26C1591.76 983.75 1584 992.31 1584 993.28C1584 994.25 1589.5 1003.24 1596.23 1013.27C1602.96 1023.3 1611.25 1035.99 1614.66 1041.49C1621.5 1052.52 1621.53 1054 1614.91 1054C1608.34 1054 1602.25 1047.3 1583.53 1019.5C1577.61 1010.7 1572.36 1003.07 1571.87 1002.54C1570.53 1001.1 1560.11 1011.74 1557.71 1017C1556.08 1020.58 1555.54 1024.4 1555.07 1035.66C1554.4 1051.69 1553.44 1054 1547.42 1054C1544.55 1054 1543.99 1053.55 1542.83 1050.25ZM1266.25 758.26C1260.21 757.92 1260 757.81 1260 755.2C1260 751.38 1261.48 744.01 1273.88 686C1279.94 657.67 1285.19 632.65 1285.55 630.39C1286.72 623.12 1285.12 623.5 1314.21 623.5C1345.67 623.5 1347.28 623.86 1357.34 633.07C1366.03 641.04 1367.37 644.58 1366.81 658.2C1366.31 670.48 1364.86 673.85 1356.58 681.97C1353.51 684.97 1351 688.27 1351 689.3C1351 690.32 1352.56 693.07 1354.47 695.4C1360.66 702.96 1363.29 710.16 1363.24 719.4C1363.12 737.76 1352.8 750.69 1334.5 755.37C1322.15 758.52 1292.78 759.77 1266.25 758.26ZM1328.66 742.7C1336.27 741.07 1340.72 737.78 1344.35 731.1C1350.77 719.3 1347.86 704.52 1338.13 699.6C1334.48 697.75 1320.6 695.22 1307.5 694.02C1301.45 693.47 1294.65 692.77 1292.38 692.47L1288.26 691.92L1286.51 701.21C1285.54 706.32 1283.22 717.44 1281.34 725.92C1279.05 736.32 1278.27 741.67 1278.95 742.35C1279.5 742.9 1281.88 743.71 1284.23 744.13C1290.43 745.25 1321.45 744.25 1328.66 742.7ZM1321.5 680.97C1335.88 679.35 1340.77 677.57 1346.18 671.98C1352.97 664.97 1354.56 658.04 1351.12 650.46C1348.88 645.54 1344.2 641.43 1339.22 640.03C1331.3 637.79 1316.4 636.7 1308.94 637.81C1304.97 638.4 1301.3 639.3 1300.79 639.81C1299.72 640.88 1296.1 654.66 1292.89 669.85C1291.04 678.6 1290.91 680.33 1292.1 681.08C1293.99 682.28 1310.42 682.22 1321.5 680.97ZM1308.5 542.34C1290.59 537.5 1280.13 529.29 1273.57 514.92C1260.09 485.4 1268.66 440.67 1292.02 418.65C1303.6 407.72 1317.03 402.17 1334.04 401.29C1349.34 400.49 1359.86 403.94 1369.34 412.88C1377.03 420.12 1383 431.91 1383 439.84C1383 444.18 1381.59 446 1378.23 446C1373.04 446 1370.57 443.64 1365.49 433.8C1358.44 420.17 1352.38 416.06 1338.11 415.24C1326.98 414.61 1319.84 416.54 1310.83 422.6C1297.63 431.51 1288.94 446.87 1285.42 467.55C1283.34 479.74 1283.82 499.54 1286.33 505.37C1288.26 509.85 1301.86 523.82 1307 526.61C1312.03 529.33 1330.93 529.35 1335.91 526.64C1337.79 525.62 1344.92 519.42 1351.77 512.86C1365.03 500.15 1368.56 497.7 1372.82 498.19C1375.21 498.47 1375.47 498.87 1375.23 501.9C1374.85 506.51 1368.98 517.42 1363.47 523.71C1357.82 530.17 1347.5 537.03 1339 539.97C1334.18 541.64 1329.65 542.31 1321.5 542.55C1315.45 542.74 1309.6 542.64 1308.5 542.34ZM280.49 531.62C278.66 530.28 278.71 529.99 281.96 522.87C290.18 504.84 335.74 419.36 343.48 407.43C349.3 398.47 352.53 396.31 358.48 397.43C364.78 398.61 365.79 402.1 378.48 466.5C391.29 531.51 390.81 528.45 388.54 530.95C386.51 533.2 382.06 533.64 378.85 531.92C375.66 530.21 373.89 524.68 371.04 507.5L368.38 491.5L341.47 491.5L314.56 491.5L309.67 500.5C299.71 518.83 295.8 524.93 291.48 528.91C286.82 533.21 283.71 533.97 280.49 531.62ZM2024.75 532.34C2021.62 531.96 2021 531.49 2021 529.55C2021 528.26 2023.49 514.9 2026.54 499.86C2029.59 484.81 2032.49 470.48 2032.98 468C2036.96 448.11 2046.23 404.88 2047.06 402.34C2048.33 398.46 2049.52 397.96 2059 397.3C2068.9 396.6 2107.15 398.68 2112.38 400.19C2115.35 401.04 2118.62 403.5 2124.09 409C2135.58 420.53 2140.42 431.96 2141.65 450.5C2143.68 480.95 2126.78 514.38 2103.84 525.35C2091.85 531.07 2084.98 532.07 2055 532.46C2040.42 532.65 2026.81 532.59 2024.75 532.34ZM2086.36 516.57C2095.26 514.61 2100.31 511.57 2107.61 503.76C2118.54 492.08 2125.27 473.62 2125.39 455C2125.5 439.11 2120.92 426.62 2112.18 418.92C2105.58 413.12 2100.51 411.95 2078.92 411.29L2060.34 410.71L2058.73 418.61C2057.85 422.95 2054.65 438.43 2051.62 453C2048.6 467.57 2044.42 487.69 2042.35 497.7C2040.27 507.71 2038.87 516.2 2039.23 516.57C2041.97 519.31 2073.96 519.31 2086.36 516.57ZM364.21 472.05C363.48 460.84 354.19 418.77 352.57 419.31C351.19 419.76 325 471.85 325 474.14C325 476.48 327.38 476.74 347.5 476.61L364.5 476.5L364.21 472.05ZM786.96 217.96C785.84 216.84 784.52 214.86 784.02 213.55C782.3 209.02 781.76 199.34 782.93 193.89C784.59 186.19 785.78 161.98 786.56 120.25L787.24 84L793.55 84C800.7 84 802.64 85.23 803.42 90.28C803.7 92.05 804.13 104.3 804.39 117.5C804.88 142.57 806.15 154.9 808.67 158.83C810.78 162.15 816.56 164.33 821.25 163.58C828.78 162.37 837.82 154.43 840.13 147C840.72 145.07 841.52 131.12 841.9 116C842.38 96.88 842.97 87.8 843.85 86.21C845.01 84.1 845.69 83.94 852.31 84.21L859.5 84.5L860.13 121.5C860.47 141.85 861.08 159.71 861.48 161.19C861.88 162.67 863.01 164.61 864 165.5C865.6 166.95 866.15 166.96 869.3 165.65C871.23 164.84 873.83 162.79 875.09 161.09C878.76 156.13 880 157.03 880 164.63C880 171.1 879.9 171.37 875.73 175.53C866.76 184.5 856.45 183.55 845.94 172.77L839.94 166.62L836.97 170.21C834.96 172.66 831.54 174.87 826.26 177.13C819.03 180.23 817.79 180.44 808.13 180.33L797.77 180.2L798.37 185.85C800.64 207.32 800.12 212.97 795.48 217.61C792.55 220.54 789.66 220.66 786.96 217.96ZM1565.52 217.61C1560.81 212.9 1560.05 203.08 1562.99 184.5C1563.51 181.2 1564.25 157.24 1564.62 131.25L1565.3 84L1572.13 84C1582.51 84 1582.24 83.2 1583.13 117.38C1584.1 154.95 1585.18 159.77 1593.31 162.87C1602.63 166.42 1616.09 157.28 1619.16 145.31C1619.7 143.22 1620.45 129.31 1620.82 114.4C1621.35 93.37 1621.81 86.93 1622.91 85.61C1624.02 84.27 1625.7 83.98 1631.08 84.21L1637.85 84.5L1638.44 118C1639.14 157.71 1639.47 161.56 1642.53 164.62C1645.46 167.55 1648.2 166.83 1653.04 161.84C1658.48 156.23 1659.3 156.69 1658.82 165.11C1658.44 171.94 1658.26 172.37 1654.32 176.04C1649.35 180.67 1643.78 182.41 1638.01 181.11C1632.81 179.95 1626.94 176.1 1623.53 171.63C1622.08 169.73 1620.29 167.94 1619.55 167.66C1618.81 167.37 1616.16 169.11 1613.65 171.51C1610.05 174.96 1607.32 176.45 1600.79 178.52C1593.6 180.8 1591.49 181.06 1584.87 180.48C1580.67 180.11 1577 180.2 1576.71 180.66C1576.42 181.13 1576.8 186.23 1577.56 192.01C1579.3 205.28 1578.31 213.02 1574.34 217.17C1571.03 220.63 1568.66 220.75 1565.52 217.61ZM725.93 175.25C724.81 173.05 724.47 163.22 724.2 125.75L723.86 79L720.97 79C719.37 79 713.54 79.52 708 80.15C695.54 81.56 693 80.79 693 75.57C693 72.41 693.34 72 696.75 71.05C698.81 70.48 701.4 70 702.5 69.98C710.13 69.88 723.98 57.18 724 50.29C724 47.52 727.1 45.78 731.29 46.19C737.59 46.8 737.5 45.81 737.5 112C737.5 167.11 737.37 171.74 735.72 174.75C734.27 177.41 733.34 178 730.63 178C728.02 178 727.03 177.42 725.93 175.25ZM896.91 175.83C894.83 171.94 894.13 152.59 894.06 96.86L894 43.22L897.25 42.72C902.21 41.95 970.98 42.63 975.31 43.49C982.47 44.91 983.74 52.5 977.27 55.18C975.46 55.93 963.17 56.49 941.84 56.77L909.18 57.22L908.62 60.36C907.48 66.7 908.09 99.83 909.36 100.88C910.09 101.49 922.43 102.01 940.63 102.19C973.76 102.53 974 102.58 974 108.6C974 111.14 973.35 112.38 971.31 113.72C968.93 115.28 965.05 115.54 938.56 115.99L908.5 116.5L908.26 144.5C908.04 170 907.85 172.72 906.16 175C903.58 178.47 898.56 178.92 896.91 175.83ZM1461.02 175.29C1461.04 170.66 1464.74 157.46 1467.59 151.81C1470.98 145.1 1481.02 135.24 1492.35 127.5C1517.11 110.58 1527.44 101.73 1531.59 93.91C1533.95 89.45 1533.98 80.59 1531.64 76.19C1526.45 66.4 1517.92 60.67 1508.49 60.64C1496.36 60.61 1483.8 70.47 1482.39 81.15C1482.03 83.86 1480.84 87.2 1479.76 88.58C1478 90.81 1477.16 91.06 1472.14 90.8L1466.5 90.5L1466.51 84.5C1466.53 71.32 1478.86 53.82 1491.44 49.11C1503.09 44.75 1516.93 45.61 1529.79 51.5C1538.24 55.37 1541.95 58.67 1544.87 64.89C1547.29 70.05 1547.5 71.55 1547.5 83.5C1547.5 95.82 1547.35 96.81 1544.58 102.5C1541.22 109.41 1532.17 118.7 1523.61 124C1504.59 135.79 1493.03 143.98 1486.47 150.31C1478.26 158.23 1477.07 161.29 1481.75 162.44C1483.26 162.81 1497.58 163.44 1513.57 163.82C1538.84 164.44 1542.99 164.76 1545.32 166.29C1549.02 168.72 1549.01 173.29 1545.3 175.73C1542.84 177.34 1538.87 177.53 1501.8 177.79L1461 178.08L1461.02 175.29ZM1679.06 176.11C1677.23 172.7 1676.95 164.25 1676.65 103.25L1676.36 43L1681.93 42.9C1706.87 42.44 1755.88 43.16 1759.09 44.02C1765.57 45.77 1765.74 51.73 1759.41 55C1757.04 56.22 1750.43 56.56 1723.73 56.82L1690.96 57.15L1691.23 79.32L1691.5 101.5L1722.34 102L1753.18 102.5L1755.09 104.86C1757.47 107.81 1757.49 109.18 1755.16 112.05C1752.56 115.26 1746.83 115.84 1716.85 115.93L1691.2 116L1690.85 144.42L1690.5 172.84L1688.08 175.42C1685.15 178.53 1680.54 178.88 1679.06 176.11Z" fill="#1e2749" fill-rule="evenodd"/>
</svg>
