<?xml version="1.0" encoding="UTF-8"?>
<svg xmlns="http://www.w3.org/2000/svg" viewBox="0 0 316 166" width="316" height="166" shape-rendering="geometricPrecision">
<path d="M151.72 160.38C149.47 159.58 147.19 157.41 146.07 155C145.32 153.41 145.21 152.73 145.23 149.83C145.25 146.19 145.62 144.94 147.44 142.41C148.16 141.4 149.11 140.66 150.64 139.91C152.72 138.88 153 138.83 156.66 138.84C159.95 138.85 160.72 138.96 162 139.6C164.32 140.74 166.52 143.06 167.18 145.04C167.99 147.48 167.74 152.29 166.7 154.3C165.56 156.5 163.15 158.88 161.04 159.89C158.52 161.1 154.35 161.32 151.72 160.38ZM159.7 158.4C161.05 157.86 162.93 155.43 163.49 153.48C164.57 149.76 163.91 145.68 161.81 143.11C160.15 141.09 158.97 140.55 156.17 140.53C152.12 140.5 150.11 142.12 149.1 146.2C148.62 148.12 148.61 148.76 148.97 150.96C150.04 157.48 154.41 160.51 159.7 158.4ZM169.22 143.11C169.1 142.99 169 142.54 169 142.11L169 141.33L174.81 141.33C180.89 141.33 181.56 141.49 180.48 142.69C179.95 143.27 179.42 143.33 174.67 143.33C171.8 143.33 169.34 143.23 169.22 143.11ZM248.96 142.56C246.16 141.51 243.95 139.57 242.61 137C241.92 135.67 241.83 135.04 241.84 131.5C241.84 126.93 242.21 125.87 244.66 123.42C246.99 121.08 248.6 120.5 252.67 120.5C258.33 120.5 261.41 122.13 263.32 126.14C266.11 131.99 263.31 138.79 256.73 142.14C255.23 142.91 250.55 143.16 248.96 142.56ZM256.28 140.02C258.96 138.65 260.35 136.01 260.38 132.26C260.41 127.74 259.08 124.59 256.57 123.25C254.63 122.22 250.38 122.19 248.67 123.19C246.18 124.64 245.16 127.33 245.44 131.71C245.57 133.86 245.83 135.01 246.45 136.23C247.42 138.15 249.58 140.23 250.91 140.52C251.42 140.63 251.98 140.78 252.17 140.85C252.81 141.1 255.08 140.64 256.28 140.02ZM36 137.21C33.68 136.54 32.53 135.82 31.05 134.14C26.9 129.42 27.52 121.09 32.31 117.37C34.4 115.75 36.15 115.26 39.9 115.27C42.82 115.27 43.57 115.39 45.12 116.1C47.22 117.07 49.24 118.96 50.18 120.84C50.7 121.89 50.83 122.86 50.83 125.5C50.83 128.47 50.73 129.04 49.91 130.71C48.79 132.98 46.26 135.43 43.9 136.51C41.72 137.51 38.12 137.83 36 137.21ZM42.97 134.84C44.24 134.18 45.86 132.35 46.52 130.83C47.39 128.85 47.32 123.69 46.41 121.62C44.64 117.64 40.63 116.03 36.2 117.54C34.01 118.29 32.85 119.94 32.32 123.07C31.55 127.63 32.99 132.37 35.74 134.29C37.73 135.68 40.9 135.93 42.97 134.84ZM151.35 135.02C151.12 134.6 151 128.34 151 117L151 99.63L152.25 99.73L153.5 99.83L153.59 116.97C153.66 131.9 153.61 134.21 153.16 134.89C152.54 135.83 151.81 135.89 151.35 135.02ZM58.07 127.27C57.85 127.05 57.67 126.41 57.67 125.85C57.67 124.95 59.12 123.38 69.59 112.91C76.14 106.36 81.74 101 82.03 101C82.59 101 83.67 102 83.67 102.53C83.67 102.85 58.97 127.67 58.65 127.67C58.55 127.67 58.29 127.49 58.07 127.27ZM232.39 125.86C231.35 124.86 225.92 119.46 220.33 113.85C210.65 104.13 210.17 103.59 210.17 102.41C210.17 99.78 210.8 100.28 223.75 113.19C230.49 119.91 236 125.59 236 125.8C236 126.35 235.03 127.67 234.62 127.67C234.44 127.67 233.43 126.85 232.39 125.86ZM226.51 111.35C214.56 99.39 214.21 99 214.52 98.1C215.22 96.09 215.6 96.39 228.43 109.17C235.16 115.88 240.67 121.56 240.67 121.79C240.67 122.18 239.33 123.67 238.98 123.67C238.9 123.67 233.29 118.12 226.51 111.35ZM52.96 121.87C52.73 121.36 52.71 120.87 52.9 120.52C53.53 119.39 76.83 96.33 77.34 96.33C78.07 96.33 78.67 97 78.67 97.82C78.67 98.68 54.77 122.67 53.91 122.67C53.58 122.67 53.16 122.31 52.96 121.87ZM23.09 94.66C19.76 93.98 17.19 92.05 15.66 89.08C14.76 87.33 14.41 82.95 14.96 80.38C15.69 76.95 18.46 73.93 21.81 72.91C23.92 72.27 28.86 72.39 30.83 73.13C37.35 75.58 39.45 83.73 35.1 89.73C33.79 91.54 31.31 93.47 29.45 94.12C27.66 94.75 24.76 94.99 23.09 94.66ZM271.67 94.78C267.12 93.98 264 91.19 263.01 87.04C262.38 84.43 262.72 80.14 263.7 78.18C265.76 74.04 269.87 72 275.19 72.45C276.53 72.56 278.27 72.91 279.06 73.21C285.37 75.66 287.37 83.84 283.1 89.73C281.79 91.54 279.31 93.47 277.45 94.12C275.97 94.64 272.89 94.99 271.67 94.78ZM83.84 93.08C84.15 91.53 84.43 76.44 84.17 75.4C84.07 74.99 83.61 74.5 83.16 74.33C82.66 74.14 82.33 73.75 82.33 73.34C82.33 72.69 82.53 72.67 87.61 72.67C95.77 72.67 97.67 73.52 97.67 77.21C97.67 78.79 97.53 79.15 96.5 80.29C95.17 81.76 95.06 82.2 95.98 82.49C97.01 82.82 98.56 84.81 98.8 86.12C99.17 88.06 98.45 89.98 96.71 91.71C94.63 93.8 92.77 94.33 87.57 94.33L83.59 94.33L83.84 93.08ZM101.11 93.81C100.99 93.5 101.27 92.93 101.79 92.38C102.64 91.49 102.67 91.35 102.67 87.24L102.67 83.02L101.67 82.28C100.27 81.25 100.41 80.78 102.25 80.34C104.75 79.73 105.13 79.76 105.5 80.58C105.91 81.52 105.96 81.52 107.33 80.5C108.66 79.52 110.81 79.35 111.13 80.19C111.53 81.24 111.33 82.9 110.73 83.45C110.19 83.93 110.05 83.94 109.48 83.51C108.61 82.85 107.19 82.87 106.62 83.55C106.32 83.92 106.13 85.32 106.05 87.86C105.93 91.56 105.94 91.64 106.81 92.51C108.19 93.89 107.53 94.33 104.12 94.33C101.88 94.33 101.27 94.23 101.11 93.81ZM143.84 93.08C144.15 91.53 144.43 76.44 144.17 75.4C144.07 74.99 143.61 74.5 143.16 74.33C142.66 74.14 142.33 73.75 142.33 73.34C142.33 72.69 142.53 72.67 147.61 72.67C155.77 72.67 157.67 73.52 157.67 77.21C157.67 78.79 157.53 79.15 156.5 80.29C155.17 81.76 155.06 82.2 155.98 82.49C157.01 82.82 158.56 84.81 158.8 86.12C159.17 88.06 158.45 89.98 156.71 91.71C154.63 93.8 152.77 94.33 147.57 94.33L143.59 94.33L143.84 93.08ZM161.11 93.81C160.99 93.5 161.27 92.93 161.79 92.38C162.64 91.49 162.67 91.35 162.67 87.24L162.67 83.02L161.67 82.28C160.27 81.25 160.41 80.78 162.25 80.34C164.75 79.73 165.13 79.76 165.5 80.58C165.91 81.52 165.96 81.52 167.33 80.5C168.66 79.52 170.81 79.35 171.13 80.19C171.53 81.24 171.33 82.9 170.73 83.45C170.19 83.93 170.05 83.94 169.48 83.51C168.61 82.85 167.19 82.87 166.62 83.55C166.32 83.92 166.13 85.32 166.05 87.86C165.93 91.56 165.94 91.64 166.81 92.51C168.19 93.89 167.53 94.33 164.12 94.33C161.88 94.33 161.27 94.23 161.11 93.81ZM203.84 93.08C204.15 91.53 204.43 76.44 204.17 75.4C204.07 74.99 203.61 74.5 203.16 74.33C202.66 74.14 202.33 73.75 202.33 73.34C202.33 72.69 202.53 72.67 207.61 72.67C215.77 72.67 217.67 73.52 217.67 77.21C217.67 78.79 217.53 79.15 216.5 80.29C215.17 81.76 215.06 82.2 215.98 82.49C217.01 82.82 218.56 84.81 218.8 86.12C219.17 88.06 218.45 89.98 216.71 91.71C214.63 93.8 212.77 94.33 207.57 94.33L203.59 94.33L203.84 93.08ZM221.11 93.81C220.99 93.5 221.27 92.93 221.79 92.38C222.64 91.49 222.67 91.35 222.67 87.24L222.67 83.02L221.67 82.28C220.27 81.25 220.41 80.78 222.25 80.34C224.75 79.73 225.13 79.76 225.5 80.58C225.91 81.52 225.96 81.52 227.33 80.5C228.66 79.52 230.81 79.35 231.13 80.19C231.53 81.24 231.33 82.9 230.73 83.45C230.19 83.93 230.05 83.94 229.48 83.51C228.61 82.85 227.19 82.87 226.62 83.55C226.32 83.92 226.13 85.32 226.05 87.86C225.93 91.56 225.94 91.64 226.81 92.51C228.19 93.89 227.53 94.33 224.12 94.33C221.88 94.33 221.27 94.23 221.11 93.81ZM29.28 92.02C32.14 90.56 33.38 88 33.38 83.6C33.38 80.88 33.28 80.36 32.33 78.44C30.67 75.07 27.82 73.7 23.92 74.41C21.79 74.79 20.24 75.9 19.25 77.77C18.61 78.98 18.51 79.66 18.52 82.83C18.53 86.13 18.62 86.67 19.41 88.19C20.43 90.15 22.58 92.23 23.91 92.52C24.42 92.63 24.98 92.78 25.17 92.85C25.81 93.1 28.08 92.64 29.28 92.02ZM277.28 92.02C280.14 90.56 281.38 88 281.38 83.6C281.38 80.88 281.28 80.36 280.33 78.44C278.67 75.07 275.82 73.7 271.92 74.41C269.79 74.79 268.24 75.9 267.25 77.77C266.61 78.98 266.51 79.66 266.52 82.83C266.53 86.13 266.62 86.67 267.41 88.19C268.43 90.15 270.58 92.23 271.91 92.52C272.42 92.63 272.98 92.78 273.17 92.85C273.81 93.1 276.08 92.64 277.28 92.02ZM92.93 91.71C94.21 91.02 95 89.36 95 87.39C95 85.88 94.86 85.47 94.05 84.67C93.05 83.67 91.14 83.19 88.99 83.39L87.83 83.5L87.74 87.17C87.63 91.36 87.77 92.24 88.58 92.4C89.5 92.58 92.09 92.17 92.93 91.71ZM152.93 91.71C154.21 91.02 155 89.36 155 87.39C155 85.88 154.86 85.47 154.05 84.67C153.05 83.67 151.14 83.19 148.99 83.39L147.83 83.5L147.74 87.17C147.63 91.36 147.77 92.24 148.58 92.4C149.5 92.58 152.09 92.17 152.93 91.71ZM212.93 91.71C214.21 91.02 215 89.36 215 87.39C215 85.88 214.86 85.47 214.05 84.67C213.05 83.67 211.14 83.19 208.99 83.39L207.83 83.5L207.74 87.17C207.63 91.36 207.77 92.24 208.58 92.4C209.5 92.58 212.09 92.17 212.93 91.71ZM42.4 87.93C41.96 87.5 41.89 86.69 42.2 85.86C42.38 85.39 44.24 85.33 59.71 85.33L77.01 85.33L77.39 86.17C77.71 86.85 77.67 87.11 77.17 87.67C76.58 88.32 76.15 88.33 59.68 88.33C47 88.33 42.7 88.23 42.4 87.93ZM111.56 88.11C111.43 87.99 111.33 87.46 111.33 86.94L111.33 86L126.3 86C139.6 86 141.28 86.06 141.46 86.52C141.57 86.81 141.51 87.34 141.32 87.69C140.99 88.31 140.45 88.33 126.38 88.33C118.35 88.33 111.68 88.23 111.56 88.11ZM171.56 88.11C171.43 87.99 171.33 87.46 171.33 86.94L171.33 86L186.3 86C199.6 86 201.28 86.06 201.46 86.52C201.57 86.81 201.51 87.34 201.32 87.69C200.99 88.31 200.45 88.33 186.38 88.33C178.35 88.33 171.68 88.23 171.56 88.11ZM231.56 88.11C231.43 87.99 231.33 87.46 231.33 86.94L231.33 86L246.13 86C262.06 86 262.22 86.02 261.34 87.65C260.98 88.32 260.79 88.33 246.38 88.33C238.35 88.33 231.68 88.23 231.56 88.11ZM42.32 80.98C42.12 80.61 42.01 79.97 42.06 79.57L42.17 78.83L59.63 78.83C75.49 78.83 77.13 78.88 77.44 79.38C77.7 79.79 77.64 80.16 77.22 80.8L76.65 81.67L59.67 81.67C42.89 81.67 42.69 81.66 42.32 80.98ZM93.07 80.1C93.84 79.37 94 78.93 94 77.6C94 76.14 93.9 75.93 92.92 75.33C92.18 74.88 91.24 74.67 89.96 74.67C88.12 74.67 88.08 74.69 87.88 75.71C87.59 77.13 87.62 80.42 87.92 80.87C88.61 81.89 91.68 81.43 93.07 80.1ZM153.07 80.1C153.84 79.37 154 78.93 154 77.6C154 76.14 153.9 75.93 152.92 75.33C152.18 74.88 151.24 74.67 149.96 74.67C148.12 74.67 148.08 74.69 147.88 75.71C147.59 77.13 147.62 80.42 147.92 80.87C148.61 81.89 151.68 81.43 153.07 80.1ZM213.07 80.1C213.84 79.37 214 78.93 214 77.6C214 76.14 213.9 75.93 212.92 75.33C212.18 74.88 211.24 74.67 209.96 74.67C208.12 74.67 208.08 74.69 207.88 75.71C207.59 77.13 207.62 80.42 207.92 80.87C208.61 81.89 211.68 81.43 213.07 80.1ZM286.5 76C286.39 75.64 286.38 75.19 286.5 75C286.62 74.8 288.92 74.67 292.36 74.67C297.11 74.67 298.05 74.75 298.21 75.17C298.32 75.45 298.22 75.9 298 76.17C297.66 76.57 296.55 76.67 292.15 76.67C287.01 76.67 286.7 76.63 286.5 76ZM215.47 69.08C215.07 68.81 214.33 67.54 214.33 67.12C214.33 66.6 238.5 42.67 239.03 42.67C239.59 42.67 240.67 43.67 240.67 44.19C240.67 44.8 215.84 69.32 215.47 69.08ZM64.74 56.91C58.1 50.25 52.67 44.62 52.67 44.38C52.67 43.6 53.35 42.67 53.92 42.67C54.76 42.67 78.67 66.66 78.67 67.51C78.67 68.33 78.07 69 77.34 69C77.06 69 71.39 63.56 64.74 56.91ZM151.16 67.25C151.06 66.84 151.02 58.85 151.07 49.5L151.17 32.5L151.94 32.39C153.71 32.14 153.67 31.75 153.67 49.9C153.67 60.85 153.55 66.94 153.32 67.36C152.83 68.28 151.4 68.21 151.16 67.25ZM69.56 52.17C58.77 41.27 57.62 40 57.72 39.13C57.98 36.92 58.68 37.5 71.47 50.3C83.55 62.4 83.76 62.64 83.27 63.4C82.99 63.82 82.47 64.19 82.13 64.21C81.72 64.23 77.4 60.1 69.56 52.17ZM209.99 63.48C209.76 62.86 209.8 62.38 210.14 61.73C210.41 61.24 215.78 55.68 222.1 49.39C232.46 39.06 233.67 37.96 234.54 38.06C235.32 38.15 235.52 38.35 235.61 39.14C235.71 40.02 234.6 41.23 223.61 52.22C216.76 59.08 211.25 64.33 210.91 64.33C210.58 64.33 210.17 63.95 209.99 63.48ZM36.8 44.66C31.4 43.57 28.35 39.54 28.34 33.5C28.33 26.32 33.36 21.88 40.85 22.45C45.35 22.8 48.31 24.55 50.01 27.89C50.72 29.28 50.83 29.95 50.83 32.83C50.83 35.87 50.74 36.34 49.85 38.11C47.46 42.82 41.78 45.67 36.8 44.66ZM250.09 44.66C246.76 43.98 244.19 42.05 242.66 39.08C241.76 37.33 241.41 32.95 241.96 30.38C242.69 26.95 245.46 23.93 248.81 22.91C250.92 22.27 255.86 22.39 257.83 23.13C264.35 25.58 266.45 33.73 262.1 39.73C260.79 41.54 258.31 43.47 256.45 44.12C254.66 44.75 251.76 44.99 250.09 44.66ZM42.67 42.27C43.92 41.8 45.29 40.36 46.26 38.5C46.99 37.08 47.13 36.39 47.14 33.83C47.18 29.25 45.67 26.22 42.7 24.91C40.06 23.74 36.16 24.21 34.21 25.93C31.76 28.11 31.41 35.42 33.6 38.97C35.73 42.44 38.99 43.62 42.67 42.27ZM256.28 42.02C259.14 40.56 260.38 38 260.38 33.6C260.38 30.88 260.28 30.36 259.33 28.44C257.67 25.07 254.82 23.7 250.92 24.41C248.79 24.79 247.24 25.9 246.25 27.77C245.61 28.98 245.51 29.66 245.52 32.83C245.53 36.13 245.62 36.67 246.41 38.19C247.43 40.15 249.58 42.23 250.91 42.52C251.42 42.63 251.98 42.78 252.17 42.85C252.81 43.1 255.08 42.64 256.28 42.02ZM153 27.04C150.04 26.39 147.26 24.03 145.92 21.06C145.36 19.82 145.22 18.82 145.21 16.17C145.2 13.22 145.3 12.62 146.09 10.98C147.18 8.72 148.91 6.93 150.97 5.93C153.04 4.93 158.08 4.69 160.76 5.46C163.31 6.21 165.61 8.11 166.79 10.47C167.69 12.27 167.73 12.57 167.6 15.77C167.49 18.48 167.31 19.46 166.7 20.63C165.63 22.69 162.97 25.23 160.88 26.19C158.95 27.07 155.05 27.49 153 27.04ZM158.83 24.96C163.81 23.6 165.68 14.92 162.16 9.6C161.25 8.22 159.97 7.44 157.57 6.81C156.13 6.43 155.74 6.46 153.74 7.11C150.81 8.06 149.59 9.58 148.98 13C148.61 15.04 148.63 15.71 149.11 17.92C150.35 23.64 154.01 26.29 158.83 24.96Z" fill="#1e2749" fill-rule="evenodd"/>
</svg>
