<?xml version="1.0" encoding="UTF-8"?>
<svg xmlns="http://www.w3.org/2000/svg" viewBox="0 0 500 136" width="500" height="136" shape-rendering="geometricPrecision">
<path d="M182.53 99.42C182.12 99.01 182.37 97.76 183.64 93.85C185.48 88.17 186.14 84.03 185.88 79.86C185.56 74.67 184.25 68.73 182.81 65.95C182.55 65.45 182.33 64.65 182.33 64.18C182.33 63.47 182.49 63.33 183.28 63.33C183.8 63.33 184.47 63.6 184.77 63.93C185.96 65.24 187.79 70.24 188.84 75C189.44 77.71 189.38 84.44 188.73 88C188.12 91.37 185.57 97.75 184.46 98.7C183.69 99.35 182.8 99.69 182.53 99.42ZM152.62 98.92C151.5 98 149.33 91.91 148.33 86.88C147.76 84.03 147.85 77.28 148.49 74.15C149.45 69.53 151.29 64.67 152.46 63.7C152.73 63.47 153.38 63.33 153.9 63.39C155.05 63.52 155.07 64.25 154.02 67.17C152.77 70.64 152.64 71.1 152.17 74.17C151.42 79.08 151.25 82.65 151.67 85.17C151.88 86.45 152.18 88.25 152.32 89.17C152.61 90.91 154.36 96.47 155 97.67C155.71 99 153.88 99.95 152.62 98.92ZM233.53 98.58C233.02 97.79 232.39 96.36 231.57 94.17C229.15 87.68 228.42 80.52 229.62 75C230.75 69.8 230.92 69.24 232.33 66.22C233.63 63.43 233.71 63.33 234.8 63.33C236.31 63.33 236.47 63.94 235.53 66.07C233.01 71.77 232.06 81.22 233.28 88.33C233.62 90.3 235.04 95.04 235.9 97.08C236.33 98.08 236.35 98.41 236.01 98.83C235.38 99.58 234.09 99.45 233.53 98.58ZM263.56 99.11C263.15 98.7 263.33 97.77 264.17 95.86C265.91 91.92 266.81 86.96 266.82 81.17C266.84 75.47 266.13 71.72 264.03 66.4C263.06 63.95 263.11 63.33 264.27 63.33C264.78 63.33 265.46 63.52 265.76 63.75C266.82 64.55 268.66 69.33 270.15 75.19C270.82 77.81 270.81 82.72 270.13 86.5C269.28 91.2 267.16 97.14 265.74 98.75C265.23 99.33 263.98 99.54 263.56 99.11ZM318.88 98.84C317.82 97.77 315.49 91.58 314.95 88.38C313.57 80.23 314.22 74.16 317.27 66.71C318.35 64.05 319.17 63 320.15 63C321.59 63 321.75 63.72 320.79 65.87C319.67 68.37 319.11 70.34 318.31 74.5C317.11 80.82 317.6 86.79 319.89 93.67C320.53 95.59 321.08 97.62 321.11 98.17C321.16 99.01 321.03 99.18 320.29 99.27C319.81 99.32 319.18 99.13 318.88 98.84ZM348.73 98.91C348.48 98.61 348.76 97.39 349.69 94.58C350.41 92.43 351.15 89.73 351.34 88.59C351.52 87.44 351.8 85.75 351.96 84.83C352.27 83.1 351.91 76.13 351.36 73.17C351.19 72.25 350.58 70.15 349.99 68.5C349.41 66.85 348.86 65.01 348.76 64.42C348.6 63.4 348.65 63.33 349.58 63.33C350.8 63.33 351.4 63.98 352.52 66.51C355.23 72.6 356.4 80.93 355.31 86.39C354.23 91.81 351.99 97.99 350.76 98.92C350.05 99.45 349.18 99.45 348.73 98.91ZM438.11 98.58C436.92 97.25 434.35 90.22 434.34 88.27C434.34 87.78 434.17 86.95 433.97 86.44C433.33 84.81 433.28 78.12 433.89 75.5C434.7 71.98 436.29 67.07 437.2 65.27C438.02 63.65 439.06 63.03 440.2 63.47C440.83 63.71 440.79 63.91 439.33 68.17C437.89 72.33 437.28 76.12 437.24 81C437.21 85.96 437.83 89.7 439.55 94.74C440.55 97.69 440.69 98.4 440.34 98.82C439.74 99.55 438.89 99.46 438.11 98.58ZM467.87 98.82C467.76 98.53 468.03 97.44 468.47 96.4C470.26 92.13 471.66 85.36 471.66 81C471.66 76.74 470.04 68.96 468.55 66.1C468.25 65.51 468 64.65 468 64.18C468 63.51 468.16 63.33 468.81 63.33C470.22 63.33 470.7 63.72 471.47 65.46C474.9 73.26 475.89 79.31 474.83 85.85C474.04 90.68 471.84 97.01 470.32 98.85C469.78 99.5 468.12 99.47 467.87 98.82ZM85.16 93.11C84.68 92.63 84.64 92.1 84.83 89.32C85.17 84.65 85.18 84.67 80.7 84.67C76.65 84.67 76.22 84.46 76.39 82.61L76.5 81.5L80.17 81.33C82.18 81.24 84.02 81.05 84.25 80.9C84.54 80.71 84.67 79.57 84.67 77.19C84.67 73.41 84.64 73.34 82.5 72.66C78.38 71.36 74.12 67.45 72.55 63.53C69.83 56.75 71.15 49.45 75.94 44.77C78.37 42.39 82.28 40.33 84.37 40.33C84.92 40.33 85.7 40.17 86.11 39.97C87.16 39.43 109.99 16.59 109.79 16.27C109.7 16.12 108.02 16 106.06 16C101.67 15.99 100.88 15.67 100.73 13.84C100.55 11.72 100.76 11.67 109.34 11.67C119.23 11.67 118.39 10.88 118.35 20.14C118.33 23.92 118.18 27.35 118.03 27.76C117.58 28.94 116.48 29.76 115.69 29.51C114.42 29.1 114 27.66 114 23.68C114 20.12 113.98 20 113.28 20C112.77 20 109.58 22.96 102.78 29.75C92.79 39.71 92.02 40.68 93.78 41.12C96.31 41.76 100.79 45.53 102.36 48.35C104.02 51.34 104.44 52.95 104.46 56.48C104.49 61.78 103.05 65.03 99.05 68.74C95.96 71.59 94.32 72.36 88.93 73.48L88.04 73.67L88.04 77.15C88.05 79.5 88.18 80.73 88.46 80.97C88.69 81.16 90.51 81.35 92.52 81.4L96.17 81.5L96.27 82.7C96.33 83.41 96.18 84.04 95.91 84.27C95.66 84.48 93.89 84.68 91.81 84.74L88.17 84.83L88.08 88.67C88 92.09 87.92 92.56 87.29 93.08C86.42 93.81 85.87 93.82 85.16 93.11ZM163.01 92.01C160.83 91.2 160.42 90.83 160.13 89.41C159.92 88.36 159.95 88.33 161.06 88.33C161.69 88.33 162.34 88.46 162.52 88.62C162.69 88.78 163.71 89.18 164.79 89.52C166.46 90.03 166.97 90.06 168.29 89.71C171.29 88.93 172.92 86.85 172.5 84.34C172.03 81.54 169.6 80 165.68 80C163.21 80 162.53 79.61 162.72 78.27C162.82 77.57 163.06 77.48 165.19 77.29C167.98 77.04 170.12 76.05 170.83 74.68C171.4 73.57 171.49 71.45 171.01 70.2C170.25 68.2 166.6 67.72 163.55 69.22C161.35 70.29 160.58 70.12 160.73 68.59C160.82 67.65 161.09 67.36 162.67 66.51C164.37 65.59 164.76 65.52 168.03 65.51C171.4 65.5 171.6 65.54 172.81 66.46C174.04 67.4 175.66 70.21 175.66 71.42C175.67 72.82 174.73 74.88 173.42 76.35C172.64 77.22 172 78.08 172 78.27C172 78.45 172.65 78.98 173.43 79.44C175.46 80.63 176.82 83.17 176.57 85.29C176.05 89.61 172.69 92.3 167.5 92.55C165.41 92.65 164.44 92.54 163.01 92.01ZM245.67 92.47C243.4 91.62 241.79 90.86 241.59 90.54C241.45 90.34 241.34 89.75 241.34 89.25C241.33 88.43 241.45 88.33 242.43 88.33C243.04 88.33 243.68 88.47 243.85 88.64C244.02 88.81 245.14 89.21 246.33 89.52C248.48 90.09 248.52 90.08 250.5 89.29C252.16 88.63 252.61 88.28 253.13 87.2C253.91 85.62 253.9 84.36 253.11 82.76C252.25 81.03 250.51 80.24 247.08 80.01C244.17 79.82 243.58 79.49 243.75 78.17C243.82 77.6 244.18 77.46 246.14 77.25C248.45 76.99 250.91 76.02 251.83 75C252.5 74.27 252.81 71.72 252.38 70.6C251.89 69.34 250.69 68.65 248.59 68.44C247.07 68.28 246.5 68.4 244.92 69.17C242.75 70.23 242 70.11 242 68.7C242 66.74 245.54 65.2 249.62 65.38C251.93 65.49 252.47 65.64 253.72 66.51C257.42 69.08 257.51 74.16 253.91 77.19L252.86 78.08L253.58 78.62C253.98 78.92 254.69 79.44 255.16 79.77C257.82 81.65 258.51 85.07 256.86 88.23C255.42 90.98 252.9 92.33 248.83 92.53C247.37 92.6 245.94 92.57 245.67 92.47ZM337.56 92.11C337.43 91.99 337.33 90.8 337.33 89.47C337.33 85.96 337.4 86 330.99 86C325.95 86 325.67 85.97 325.32 85.3C325.11 84.92 325.04 84.21 325.16 83.72C325.39 82.8 330.02 74.4 331.04 73.06C331.36 72.64 331.94 71.67 332.32 70.9C332.7 70.13 333.57 68.67 334.26 67.67L335.5 65.83L337.5 65.75C338.6 65.7 339.72 65.81 340 65.98C340.42 66.25 340.52 67.67 340.6 74.56C340.67 80.52 340.81 82.89 341.1 83.07C341.32 83.21 341.98 83.33 342.57 83.33C343.95 83.33 344.52 84.25 343.8 85.28C343.45 85.78 342.94 86 342.17 86C341.55 86 340.95 86.14 340.85 86.31C340.74 86.49 340.63 87.65 340.6 88.9C340.57 90.36 340.38 91.37 340.06 91.75C339.57 92.32 337.99 92.55 337.56 92.11ZM446.16 91.64C445.63 89.96 446.31 88.68 449.48 85.39C453.83 80.86 454.42 80.13 455.87 77.5C456.97 75.51 457.16 74.86 457.16 73.11C457.17 70.68 456.41 69.38 454.63 68.79C453.2 68.31 450.42 68.71 448.58 69.67C446.96 70.52 446.33 70.34 446.33 69.03C446.33 66.87 449.14 65.53 453.7 65.51L456.89 65.5L458.46 66.78C460.46 68.42 461.33 70.13 461.33 72.4C461.33 76.05 459.69 78.87 454.26 84.51C451.84 87.03 450.66 88.5 450.79 88.83C450.95 89.25 451.91 89.33 456.62 89.33C462.17 89.33 462.26 89.34 462.45 90.08C462.56 90.49 462.42 91.15 462.15 91.58C461.66 92.33 461.59 92.33 454.01 92.33C446.56 92.33 446.37 92.32 446.16 91.64ZM395.86 89.48C395.15 88.77 395.16 86.47 395.86 86.2C396.76 85.86 426.22 85.97 427.14 86.33C427.84 86.59 428 86.87 428 87.81C428 90.04 428.31 90 411.45 90C398.2 90 396.32 89.94 395.86 89.48ZM209.33 83.7C204.6 83.14 199.78 79.81 197.65 75.64C195.7 71.81 194.82 64.33 195.62 58.41C196.17 54.29 198.23 49.56 200.48 47.27C203.79 43.87 209.38 41.77 213.93 42.19C216.7 42.45 219.37 43.18 221.33 44.2C223.88 45.52 224.39 46.07 224.57 47.73C224.87 50.35 223.69 51.4 221.96 50.04C220.2 48.67 217.25 47.38 214.97 47C209.37 46.05 204.62 48.92 202.29 54.64C201.63 56.27 201.52 57.22 201.41 62.21C201.29 67.23 201.36 68.18 201.96 70.1C202.95 73.33 203.79 74.77 205.57 76.29C209.56 79.71 215.92 79.94 220.83 76.84C221.75 76.27 222.78 75.69 223.13 75.56C224.82 74.92 225.31 78.18 223.79 79.99C221.54 82.67 214.92 84.36 209.33 83.7ZM409.67 83.68C402.64 82.77 396.46 77.59 394.76 71.17C394.56 70.43 394.21 69.08 393.97 68.17C393.28 65.54 393.21 61.67 393.81 59.64C394.1 58.67 394.33 57.44 394.33 56.91C394.33 56.38 395.01 54.53 395.84 52.8C398.83 46.58 403.3 43.45 410.83 42.31C412.94 41.99 417.15 42.19 418.83 42.69C423.3 44 424.45 44.49 425.53 45.5C426.6 46.51 426.7 46.76 426.6 48.19C426.45 50.58 425.92 50.71 422.79 49.1C419.32 47.32 416.08 46.55 412.75 46.74C407.46 47.04 403.66 49.54 401.36 54.25C399.71 57.64 399.17 60.48 399.45 64.43C399.97 71.65 403.39 76.65 409.17 78.6C411.14 79.26 411.94 79.36 414.33 79.21C417.29 79.03 419.71 78.36 420.73 77.44C421.26 76.96 421.33 76.28 421.33 71.68C421.33 68.07 421.21 66.34 420.93 66.07C420.66 65.8 419.11 65.67 416.14 65.67C411.04 65.67 410.91 65.6 411.06 62.98L411.17 61.23L418.33 61.29C425.14 61.35 425.53 61.39 426.08 62.05C426.61 62.67 426.67 63.62 426.66 71.12L426.65 79.5L425.74 80.56C423.81 82.82 415.48 84.43 409.67 83.68ZM116.9 83.25C116.39 82.87 116.34 81.17 116.33 63.33C116.32 52.61 116.32 43.66 116.32 43.44C116.34 42.84 118.49 42.27 119.8 42.52C121.79 42.89 121.8 42.96 121.72 51.31C121.68 55.48 121.78 59.24 121.93 59.65C122.18 60.34 122.59 59.94 126.35 55.39C128.63 52.64 131.77 48.78 133.33 46.83C134.89 44.87 136.39 43.15 136.67 43.01C137.85 42.38 139.84 42.31 140.92 42.84C141.51 43.14 142 43.54 142 43.74C142 43.93 141.29 44.92 140.42 45.93C139.55 46.93 138.31 48.41 137.67 49.21C133.31 54.62 131.01 57.39 129.61 58.9C128.72 59.85 128 60.94 128 61.32C128 62.03 129.93 64.9 133.71 69.83C143.28 82.3 143.44 82.56 142.02 83.32C141.67 83.51 140.6 83.67 139.66 83.67C138.14 83.67 137.8 83.53 136.88 82.57C135.87 81.52 133.07 77.81 130.08 73.59C125.88 67.64 122.53 63.32 122.2 63.43C121.95 63.52 121.83 66.43 121.82 72.99L121.81 82.41L121.03 83.04C120.14 83.77 117.76 83.89 116.9 83.25ZM275.02 83.19C274.47 82.52 274.83 80.85 276.51 76.33C277.29 74.22 278.64 70.47 279.5 68C282.97 58.01 283.78 55.78 284.36 54.5C285.14 52.81 287.53 45.84 287.82 44.44C288.01 43.56 288.31 43.27 289.52 42.81C291.31 42.12 293.69 42.31 294.95 43.24C295.57 43.69 296.14 44.77 296.86 46.86C297.42 48.5 298.27 50.96 298.75 52.33C299.22 53.71 300.24 56.56 301.01 58.67C301.78 60.77 303.06 64.3 303.85 66.5C304.64 68.7 305.66 71.55 306.13 72.83C308.6 79.66 309.33 81.84 309.33 82.38C309.33 83.22 308.31 83.67 306.38 83.67C304.61 83.67 303.87 83.22 303.49 81.91C303.26 81.12 301.25 75.9 300.47 74.08L300.01 72.99L291.59 73.08L283.17 73.17L282.27 76C281.77 77.56 281.14 79.21 280.88 79.67C280.62 80.12 280.31 80.99 280.18 81.58C280.05 82.18 279.63 82.89 279.23 83.17C278.32 83.81 275.55 83.83 275.02 83.19ZM336.33 82.9L337.17 82.48L337.24 76.24C337.3 70.54 337.26 70 336.74 70C336.1 70 335.19 71.25 333.81 74C333.3 75.01 332.64 76.13 332.34 76.5C331.36 77.69 329 81.86 329 82.41C329 82.7 329.19 83.02 329.42 83.11C330.3 83.47 335.53 83.31 336.33 82.9ZM372.71 79.42C372.05 78.87 372 78.46 371.92 73.33L371.83 67.83L366.85 67.74C362.81 67.67 361.75 67.55 361.27 67.11C360.58 66.48 360.45 64.35 361.07 63.73C361.34 63.46 362.94 63.33 366.09 63.33C368.64 63.33 371 63.18 371.36 62.99C371.95 62.67 372 62.24 372 57.05C372 53.15 372.12 51.35 372.4 51.07C372.92 50.55 375.75 50.55 376.27 51.07C376.55 51.35 376.67 53.15 376.67 57.03C376.67 61.59 376.76 62.66 377.17 63.01C377.55 63.32 378.87 63.38 382.33 63.26C387.77 63.06 388.33 63.25 388.33 65.3C388.33 67.5 387.87 67.67 381.87 67.67L376.62 67.67L376.71 73.21C376.79 78.65 376.78 78.77 376.03 79.38C375.06 80.16 373.62 80.18 372.71 79.42ZM48 74.8C43.23 73.95 39.96 72.28 37.18 69.27C33.78 65.6 32.32 61.89 32.35 57C32.4 47.77 40.22 40.33 49.88 40.33C57.72 40.33 64.28 44.68 66.99 51.67C67.43 52.81 67.77 54.63 67.88 56.5C68.04 59.12 67.96 59.84 67.21 62.18C66.16 65.44 64.82 67.55 62.22 70.07C60.13 72.08 58.43 73.04 55.17 74.05C53.11 74.68 49.48 75.06 48 74.8ZM54.51 71.79C57.44 70.81 61.02 67.95 62.8 65.17C66.34 59.63 65.59 52.08 61.03 47.23C58 44.01 54.37 42.5 49.87 42.59C46.2 42.66 43.07 43.75 40.67 45.8C37.34 48.64 35.88 51.19 35.28 55.22C34.55 60.14 36.19 64.88 39.8 68.26C44.11 72.29 49.29 73.53 54.51 71.79ZM49.4 70.6C49.13 70.33 49 68.74 49 65.62C49 63.1 48.85 60.66 48.67 60.19L48.35 59.33L43.05 59.33C37.46 59.33 36.79 59.16 37.06 57.77C37.16 57.23 37.72 57.15 42.57 57C46.36 56.88 48.1 56.7 48.4 56.4C48.71 56.09 48.86 54.35 48.94 50.13L49.04 44.3L50.27 44.4L51.5 44.5L51.67 50.67L51.83 56.83L57.38 56.92C61.97 57 63.01 57.11 63.37 57.55C63.75 58 63.7 58.17 63.04 58.7C62.35 59.26 61.66 59.33 56.96 59.33L51.67 59.33L51.67 64.43C51.67 68.5 51.56 69.67 51.15 70.26C50.57 71.09 50 71.2 49.4 70.6ZM91.48 68.45C94.68 67.47 97.52 64.9 99.2 61.47C100.05 59.73 100.17 59.14 100.16 56.5C100.15 53.97 100.01 53.2 99.27 51.61C98.1 49.08 96.12 47 93.58 45.63C91.58 44.55 91.36 44.51 87.83 44.5C84.44 44.5 84.02 44.57 82.25 45.47C74.81 49.24 73.17 59.02 78.91 65.37C80.36 66.98 82.81 68.31 85.33 68.86C87.37 69.31 89.02 69.2 91.48 68.45ZM298.02 67.81C298.38 67.37 298.38 67.1 298.02 66.22C297.78 65.64 296.42 61.79 295 57.67C292.04 49.05 292.02 49 291.65 49C291.35 49 290.51 51.14 289.18 55.33C288.68 56.89 287.86 59.29 287.35 60.67C285.3 66.17 284.93 67.34 285.12 67.83C285.41 68.6 297.38 68.58 298.02 67.81Z" fill="#1e2749" fill-rule="evenodd"/>
</svg>
