<?xml version="1.0" encoding="UTF-8"?>
<svg xmlns="http://www.w3.org/2000/svg" viewBox="0 0 664 245" width="664" height="245" shape-rendering="geometricPrecision">
<path d="M321 195.63C319.44 195.48 315.54 195.11 312.33 194.81C306.08 194.23 304.64 193.94 303.94 193.1C303.63 192.73 303.45 190.97 303.33 187.2L303.17 181.83L289.33 181.66C281.72 181.56 275.46 181.45 275.42 181.41C275.37 181.37 275.33 180.58 275.33 179.66L275.33 177.99L289.05 178.01C296.6 178.02 302.9 177.9 303.06 177.74C303.21 177.59 303.3 168.02 303.25 156.48L303.17 135.5L289.33 135.33L275.5 135.17L275.4 133.27L275.3 131.38L288.8 131.57C299.51 131.73 302.41 131.68 302.82 131.34C303.25 130.99 303.33 129.86 303.33 124.31C303.33 120.68 303.48 117.33 303.65 116.87C304.12 115.63 305.35 115.45 316 114.98C334.9 114.15 350.16 115.95 361.33 120.34C362.34 120.73 363.46 121.14 363.82 121.25C365.24 121.68 371.49 125.38 373.89 127.22C381.24 132.85 385.57 140.97 386.3 150.5L386.5 153.17L404.96 153.25C418.24 153.31 423.55 153.23 423.88 152.96C424.24 152.66 424.34 149.83 424.41 138.39L424.5 124.19L425.33 123.76C425.98 123.44 431.66 123.34 451.04 123.34C472.14 123.33 475.98 123.26 476.31 122.86C477.07 121.95 478.76 116.98 479.35 113.96C480.37 108.7 480.38 104.64 479.37 98.33C479.02 96.19 477.58 91.44 476.66 89.42L476.02 88.01L452.48 87.92L428.94 87.83L428.3 87.05C427.7 86.3 427.67 85.55 427.67 72.48L427.67 58.7L426.58 58.5C425.99 58.4 416.72 58.35 406 58.4L386.5 58.5L386.31 65.17C386.08 73.3 385.52 76.26 383.24 81.38C380.41 87.72 374.45 93.62 367.17 97.27C360.43 100.64 353.55 102.57 343.83 103.82C339.2 104.42 321.95 104.53 318.22 103.99C316.97 103.81 314.04 103.51 311.72 103.34C306.34 102.92 304.45 102.49 303.91 101.56C303.69 101.16 303.42 99.48 303.33 97.83L303.17 94.83L243.67 94.67C210.94 94.58 183.98 94.38 183.75 94.23C183.42 94.02 183.33 89.04 183.33 71.17C183.33 57.36 183.21 48.3 183.02 48.18C182.85 48.07 160.91 48.02 134.27 48.07C107.63 48.12 81.26 48.16 75.67 48.16L65.5 48.17L65.4 46.25L65.3 44.33L156.57 44.29C206.76 44.26 260.28 44.15 275.5 44.04L303.17 43.83L303.33 34.67C303.42 29.62 303.62 25.25 303.77 24.95C303.92 24.64 304.39 24.31 304.82 24.2C309 23.15 331.92 22.88 339.33 23.8C353.27 25.52 361.19 27.9 370.27 33.09C372.57 34.4 376.84 37.9 378.42 39.77C382.09 44.12 383.72 47.32 385.65 54L385.89 54.83L408.09 55C425.69 55.13 430.39 55.26 430.73 55.6C431.07 55.94 431.2 59.18 431.33 70.1L431.5 84.17L452.59 84.25C470.26 84.32 473.71 84.26 473.86 83.88C474.05 83.4 470.07 77.06 467.28 73.37C465.28 70.72 465.14 69.52 466.75 68.85C468.74 68.02 478.42 67.67 485.83 68.17C489.5 68.41 493.55 68.78 494.83 68.99C505.03 70.63 511.07 72.21 518.83 75.24C523.35 77.01 530.26 80.5 532.5 82.15C533.05 82.56 534.32 83.47 535.33 84.17C541.72 88.61 547.56 95.46 551.52 103.17L552.89 105.83L566.13 106C577.4 106.14 579.4 106.24 579.67 106.67C580.13 107.39 580.07 108.08 579.47 108.94L578.94 109.69L565.24 109.65L551.54 109.61L550.4 111.72C548.52 115.19 547.17 117.02 544.26 120.02C541.5 122.88 536.83 126.58 534.44 127.83C533.74 128.19 532.49 128.87 531.67 129.34C526.23 132.43 515.18 136.1 506.17 137.8C500.42 138.88 499.35 139.05 495 139.53C487.1 140.4 482.89 140.65 475.01 140.69C468.44 140.72 467.18 140.65 466.49 140.19C465.29 139.41 465.44 138.24 466.93 136.58C469.82 133.36 474 128.01 474 127.53C474 127.42 463.65 127.33 451.01 127.33L428.02 127.33L427.93 141.32L427.83 155.32L427.07 156.07L426.32 156.83L406.41 157L386.5 157.17L386.29 160.33C385.6 170.92 381.26 179.07 373.1 185.12C370.76 186.86 365.37 189.93 363.77 190.44C363.44 190.54 361.59 191.17 359.67 191.83C353.82 193.83 348.85 194.76 340 195.5C333.73 196.02 325.57 196.08 321 195.63ZM251.81 193.53C251.5 192.31 251.9 191.72 259.58 181.87C261.28 179.69 262.67 177.78 262.67 177.63C262.67 177.48 260.38 177.31 257.58 177.26L252.5 177.17L252.5 176.17L252.5 175.17L258.93 175.08C265.59 174.98 266.67 175.15 266.67 176.31C266.67 176.65 264.3 179.96 261.42 183.67C254.6 192.41 255.11 191.66 255.69 192.02C255.95 192.19 258.53 192.33 261.43 192.33C265.81 192.33 266.72 192.42 266.88 192.84C266.99 193.11 266.89 193.56 266.66 193.84C266.32 194.25 265.03 194.33 259.13 194.33L252.01 194.33L251.81 193.53ZM339.33 192.01C344.63 191.52 348.71 191.01 349.97 190.68C350.63 190.51 352.29 190.11 353.67 189.8C362.87 187.72 371.88 182.74 376.27 177.32C378.11 175.04 380.81 170.07 381.33 167.99C381.52 167.26 381.85 166.03 382.07 165.25C382.33 164.32 382.48 161.02 382.48 155.67C382.49 148.06 382.44 147.32 381.71 144.83C379.24 136.41 374.09 130.55 365.27 126.1C363.38 125.15 361.2 124.14 360.42 123.85C359.64 123.57 358.44 123.12 357.75 122.87C356.57 122.43 354.79 121.94 350.42 120.86C348.05 120.27 343.34 119.51 338.5 118.94C334.37 118.45 315.87 118.35 310.58 118.79L307.33 119.06L307.33 154.66C307.33 182.73 307.42 190.32 307.75 190.59C307.98 190.77 310.57 191.11 313.5 191.33C316.43 191.55 319.66 191.85 320.67 191.99C323.26 192.34 335.55 192.36 339.33 192.01ZM258.84 139.92C258.76 139.69 258.65 137.77 258.59 135.67L258.49 131.83L255.39 126.89C252.39 122.11 251.98 120.99 253.24 121C254.79 121.02 255.28 121.5 257.48 125.19C259.22 128.12 259.85 128.93 260.18 128.66C260.41 128.47 261.44 126.9 262.47 125.17C264.63 121.55 265.11 121 266.11 121.01C268.01 121.02 267.9 121.41 264.64 126.55L261.5 131.5L261.43 135.47C261.39 137.65 261.29 139.64 261.19 139.89C260.98 140.45 259.03 140.48 258.84 139.92ZM486.67 136.66C488.41 136.49 491.11 136.27 492.67 136.16C494.22 136.06 496.4 135.82 497.5 135.64C504.09 134.54 505.92 134.19 509.83 133.29C518.11 131.39 526.24 128.45 530.78 125.72C531.91 125.05 533.23 124.29 533.72 124.04C535.48 123.14 540.52 118.89 542.6 116.55C544.96 113.91 545.95 112.46 547.47 109.5C549.02 106.47 548.9 105.5 546.42 101.42C543.74 96.99 540.79 93.45 537.12 90.26C534.62 88.08 529.57 84.33 529.15 84.33C529.08 84.33 527.91 83.66 526.55 82.83C525.19 82.01 524 81.33 523.89 81.33C523.79 81.33 522.46 80.75 520.94 80.03C516.75 78.06 513.57 76.95 507.17 75.24C496.66 72.41 484.02 70.94 475.14 71.49C470.99 71.75 470.78 71.89 471.96 73.6C475.07 78.07 477.7 82.71 479.75 87.33C480.56 89.15 482.17 94.23 482.87 97.17C483.76 100.91 483.75 111.33 482.86 115C480.94 122.87 477.63 129.55 472.89 135.13C472.19 135.96 471.71 136.8 471.83 136.99C472.07 137.38 481.35 137.18 486.67 136.66ZM589.56 119.11C589.43 118.99 589.33 114.73 589.33 109.65C589.33 101.53 589.4 100.38 589.86 100.2C590.15 100.09 592.76 100 595.67 100C600.09 100 601.04 100.09 601.49 100.54C601.99 101.04 601.99 101.13 601.46 101.71C600.96 102.26 600.38 102.33 596.6 102.33L592.31 102.33L592.4 104.92L592.5 107.5L595.67 107.58C599.86 107.69 600.33 107.82 600.33 108.83C600.33 110.04 599.42 110.33 595.69 110.33L592.33 110.33L592.33 114.43C592.33 117.18 592.2 118.67 591.93 118.93C591.51 119.36 589.92 119.48 589.56 119.11ZM339.33 100.52C344.94 100.06 348.16 99.59 353.17 98.52C355.38 98.05 356.23 97.79 361.26 96.04C362.42 95.64 364.74 94.55 366.43 93.61C374.62 89.07 379.28 83.45 381.71 75.17C382.45 72.67 382.5 71.97 382.49 64C382.48 56.84 382.39 55.26 381.91 54C381.6 53.17 381.34 52.26 381.34 51.97C381.34 51.68 380.56 49.92 379.63 48.05C376 40.82 369.38 35.57 359.33 31.93C354.79 30.28 353.74 29.99 349 29.02C342.99 27.8 341.81 27.64 335 27.12C328.31 26.61 322.8 26.63 311.58 27.21L307.33 27.43L307.33 63.2C307.33 82.87 307.45 99.03 307.59 99.12C307.73 99.21 310.25 99.52 313.17 99.81C316.1 100.1 319.7 100.46 321.17 100.62C325.43 101.08 333.04 101.03 339.33 100.52ZM303.33 69.13L303.33 47.61L245.58 47.69C208.61 47.74 187.68 47.88 187.42 48.09C187.09 48.34 187.01 52.28 187.04 65.96C187.07 75.61 187.18 85.15 187.29 87.17L187.5 90.83L244.83 91C276.37 91.09 302.43 91.05 302.75 90.9C303.3 90.66 303.33 89.3 303.33 69.13ZM41.83 59C41.59 58.6 41.38 58.95 44.86 53.95C46.4 51.72 47.67 49.77 47.67 49.59C47.67 49.42 46.38 47.4 44.82 45.09C43.25 42.79 42.04 40.7 42.14 40.45C42.32 39.97 43.44 39.89 44.43 40.28C44.76 40.41 45.96 41.93 47.1 43.65C48.23 45.38 49.34 46.84 49.56 46.91C49.78 46.98 50.88 45.64 52.02 43.94C54.29 40.52 54.8 40 55.81 40.01C57.62 40.02 57.5 40.47 54.54 44.76C52.96 47.06 51.67 49.19 51.67 49.51C51.67 50.08 53.65 53.26 56.09 56.61C57.64 58.72 57.55 59.42 55.75 59.27C54.57 59.17 54.38 58.99 52.25 55.75C51.01 53.87 49.77 52.33 49.5 52.33C49.24 52.33 48.09 53.72 46.97 55.42C45.84 57.11 44.68 58.69 44.4 58.92C43.77 59.42 42.12 59.47 41.83 59Z" fill="#1e2749" fill-rule="evenodd"/>
</svg>
