<?xml version="1.0" encoding="UTF-8"?>
<svg xmlns="http://www.w3.org/2000/svg" viewBox="0 0 748 324.02" width="748" height="324.02" shape-rendering="geometricPrecision">
<path d="M260.95 323.37C260.39 323.02 251.75 314.53 241.74 304.5C229.79 292.53 223.32 286.28 222.87 286.28C222.42 286.28 216 292.47 204.17 304.3C188.21 320.27 186.03 322.32 185.11 322.32C183.59 322.32 182.24 320.8 182.24 319.08C182.24 317.78 182.62 317.37 201.11 298.86L219.98 279.96L219.98 251.65C219.98 233.86 219.86 223.1 219.65 222.71C219.47 222.37 218.05 221.37 216.5 220.48C214.96 219.59 212.31 218.06 210.63 217.08C208.95 216.1 206.8 214.87 205.87 214.35C204.93 213.83 202.66 212.52 200.82 211.42C198.98 210.33 197.43 209.44 197.37 209.44C197.31 209.44 195.67 208.51 193.74 207.36C191.81 206.22 189.54 204.91 188.7 204.44C187.86 203.97 185.79 202.78 184.11 201.8C182.43 200.82 179.44 199.09 177.48 197.97C175.52 196.84 172.07 194.85 169.83 193.54C167.59 192.23 165.14 190.82 164.39 190.4C163.64 189.98 160.51 188.17 157.42 186.39C154.33 184.6 150.74 182.54 149.43 181.82C148.12 181.1 146.67 180.13 146.2 179.67L145.35 178.82L145.26 134.84C145.19 100.16 145.26 90.58 145.6 89.57C145.97 88.45 146.46 88.02 149.09 86.45C150.77 85.45 152.46 84.48 152.83 84.31C153.2 84.13 153.74 83.83 154.02 83.64C155 83 161.56 79.22 161.7 79.22C161.79 79.22 162.42 78.86 163.12 78.42C163.82 77.98 166.99 76.12 170.17 74.29C173.35 72.46 177.94 69.81 180.37 68.41C182.8 67.01 185.25 65.6 185.81 65.28C186.8 64.72 190.99 62.3 203.15 55.26C206.33 53.42 209.62 51.53 210.46 51.06C211.3 50.59 213.5 49.32 215.34 48.22C217.18 47.13 218.74 46.24 218.82 46.24C218.89 46.24 219.7 45.78 220.61 45.22C222.65 43.97 224.37 43.9 226.27 44.99C227.02 45.42 230.71 47.56 234.48 49.74C238.25 51.91 242.08 54.11 242.98 54.62C243.89 55.12 245.59 56.12 246.76 56.84C247.93 57.55 248.96 58.14 249.03 58.14C249.11 58.14 251.11 59.29 253.48 60.69C255.85 62.09 257.84 63.24 257.89 63.24C257.95 63.24 259.5 64.13 261.34 65.22C263.18 66.32 265.45 67.63 266.39 68.15C267.32 68.67 269.51 69.92 271.23 70.93C272.96 71.94 275.8 73.58 277.52 74.59C279.25 75.6 281.28 76.76 282.03 77.18C282.78 77.59 284.77 78.74 286.45 79.73C288.13 80.71 290.12 81.86 290.87 82.28C291.62 82.7 293.66 83.88 295.4 84.9C297.21 85.97 298.83 86.7 299.17 86.61C299.51 86.52 314.18 77.75 331.78 67.11C349.39 56.47 364.5 47.4 365.37 46.95L366.96 46.12L372.26 48.85C375.18 50.35 382.01 53.84 387.43 56.6C392.85 59.37 399.89 62.97 403.07 64.6C408.53 67.41 419.31 72.93 426.89 76.79L430.31 78.53L444.24 64.59C456.93 51.9 458.26 50.66 459.28 50.66C460.6 50.66 462.23 51.43 462.53 52.21C463.23 54.04 463.14 54.15 449.82 67.49C436.43 80.9 435.88 81.57 437.72 82.27C438.17 82.44 438.94 83.11 439.43 83.75C440.18 84.74 440.29 85.13 440.1 86.32C439.93 87.36 439.99 87.72 440.32 87.72C440.57 87.72 446.69 81.81 453.92 74.58C461.15 67.36 467.43 61.24 467.88 60.99C469.11 60.31 470.06 60.43 471.21 61.4C472.03 62.09 472.26 62.55 472.26 63.52C472.26 64.71 471.53 65.5 456.19 80.83L440.13 96.9L440.03 134.56C439.97 155.27 440.02 172.9 440.14 173.74C440.34 175.23 440.83 175.75 457.14 192.1C466.37 201.36 474.08 209.35 474.27 209.86C474.72 211.05 474.31 212.18 473.09 213.14C470.92 214.84 471.66 215.44 452.72 196.56C443.18 187.04 435.06 179.12 434.69 178.95C434.29 178.76 429.62 178.74 423.3 178.88C417.41 179.02 408.61 179.22 403.75 179.34C398.89 179.45 387.11 179.6 377.57 179.67C368.03 179.74 356.02 179.89 350.88 180.01C345.74 180.12 332.12 180.37 320.62 180.57L299.71 180.94L297.12 182.25C295.7 182.97 293.13 184.41 291.42 185.45C289.7 186.49 288.24 187.34 288.17 187.34C288.09 187.34 286.45 188.27 284.52 189.42C282.59 190.56 280.4 191.84 279.65 192.26C277.44 193.5 259.99 203.57 257.03 205.3C256.38 205.68 255.31 206.29 254.66 206.66C254.01 207.02 251.17 208.66 248.37 210.29C245.56 211.92 239.52 215.41 234.94 218.04C230.36 220.67 226.5 222.98 226.36 223.18C226.22 223.39 226.14 236.28 226.19 251.85L226.27 280.14L245.9 299.8C264.57 318.49 265.54 319.53 265.54 320.69C265.54 321.66 265.3 322.12 264.34 322.96C262.94 324.19 262.35 324.26 260.95 323.37ZM227.38 215.34C229.2 214.29 233.21 211.97 236.3 210.19C239.39 208.41 242.48 206.6 243.18 206.16C243.88 205.72 244.52 205.36 244.6 205.36C244.68 205.36 246.69 204.21 249.06 202.81C251.43 201.41 253.42 200.26 253.49 200.26C253.55 200.26 255.11 199.37 256.94 198.28C258.77 197.19 261.57 195.56 263.16 194.65C264.75 193.74 268.42 191.62 271.32 189.95C274.22 188.27 277.2 186.56 277.95 186.14C278.7 185.71 280.84 184.47 282.71 183.36C284.58 182.26 286.34 181.25 286.62 181.11C288.32 180.31 295.05 176.11 295.5 175.56C295.89 175.09 295.98 168.34 296.03 133.97C296.06 111.41 295.99 92.79 295.86 92.59C295.65 92.26 289.5 88.4 289.19 88.4C289.11 88.4 287.5 87.48 285.6 86.36C283.7 85.24 282.09 84.32 282.02 84.32C281.95 84.32 280.39 83.43 278.56 82.34C274.12 79.7 266.47 75.26 264.54 74.2C263.69 73.74 262.15 72.85 261.12 72.24C260.09 71.63 258.71 70.83 258.06 70.46C255.23 68.88 245.2 63.07 244.04 62.34C243.34 61.9 242.7 61.54 242.62 61.54C242.54 61.54 240.53 60.39 238.16 58.99C235.79 57.59 233.8 56.44 233.74 56.44C233.68 56.44 231.67 55.28 229.28 53.87C226.89 52.45 224.51 51.21 223.99 51.1C223.29 50.97 222.51 51.24 220.98 52.15C219.84 52.83 218.86 53.38 218.8 53.38C218.73 53.38 217.18 54.27 215.34 55.36C213.5 56.46 211.3 57.73 210.46 58.21C209.62 58.68 206.94 60.21 204.51 61.61C202.08 63.01 197.49 65.65 194.31 67.48C191.13 69.31 188.38 70.92 188.19 71.06C188 71.2 187.09 71.73 186.15 72.24C185.22 72.76 181.93 74.64 178.84 76.43C175.76 78.22 172.08 80.32 170.68 81.1C169.28 81.88 167.14 83.13 165.92 83.87C164.7 84.61 163.48 85.32 163.2 85.44C162.92 85.57 162.46 85.83 162.18 86.02C161.45 86.5 156.92 89.12 154.53 90.43C153.41 91.04 152.22 91.78 151.89 92.07C151.33 92.56 151.3 94.97 151.31 133.93C151.31 156.67 151.42 175.43 151.56 175.63C151.79 175.96 156.94 179.18 157.23 179.18C157.31 179.18 158.95 180.11 160.88 181.26C162.81 182.4 165 183.67 165.75 184.1C166.5 184.52 169.71 186.36 172.89 188.2C176.07 190.04 181.04 192.92 183.94 194.59C186.84 196.27 189.67 197.92 190.23 198.27C190.79 198.61 191.48 199 191.76 199.14C192.04 199.27 193.34 200.01 194.65 200.78C195.96 201.55 197.79 202.61 198.73 203.13C199.66 203.65 202.27 205.15 204.51 206.46C206.75 207.78 210.12 209.73 211.99 210.81C213.86 211.88 217.07 213.76 219.13 214.98C221.19 216.2 223.14 217.21 223.47 217.23C223.8 217.25 225.56 216.4 227.38 215.34ZM216.07 206.1C214.76 205.39 211.96 203.79 209.84 202.53C207.72 201.28 205.92 200.26 205.85 200.26C205.78 200.26 204.34 199.42 202.64 198.39C200.94 197.36 199.5 196.52 199.42 196.52C199.35 196.52 197.35 195.37 194.98 193.97C192.61 192.57 190.62 191.42 190.57 191.42C190.51 191.42 188.92 190.5 187.03 189.38C185.14 188.26 183.53 187.34 183.46 187.34C183.38 187.34 181.78 186.42 179.89 185.3C178 184.18 176.38 183.26 176.29 183.26C176.2 183.26 175.13 182.65 173.91 181.9C172.69 181.15 171.63 180.54 171.55 180.54C171.48 180.54 169.86 179.62 167.96 178.5C166.06 177.38 164.39 176.46 164.26 176.46C163.75 176.46 162.22 174.56 162 173.65C161.55 171.83 162.98 170 164.87 170C165.56 170 168.71 171.59 172.04 173.62C173.26 174.36 175.63 175.71 177.31 176.63C178.99 177.54 182.24 179.4 184.53 180.77C186.82 182.14 188.8 183.26 188.93 183.26C189.05 183.26 189.4 183.47 189.69 183.73C189.99 183.98 190.92 184.57 191.76 185.04C194.15 186.36 212.9 197.17 214.88 198.37C215.53 198.76 216.62 199.37 217.29 199.72C221.1 201.7 222.4 203.28 221.67 205.04C221.3 205.95 219.47 207.41 218.75 207.39C218.58 207.39 217.38 206.8 216.07 206.1ZM358.36 173.74C428.56 172.78 432.61 172.69 433.26 172.12C433.83 171.6 433.86 169.45 433.82 129.73C433.8 98.28 433.69 87.76 433.39 87.36C433.17 87.07 431.38 86.01 429.42 85.02C427.46 84.02 423.86 82.17 421.43 80.92C419 79.66 413.03 76.6 408.17 74.12C403.31 71.64 396.12 67.97 392.19 65.96C388.26 63.95 381.12 60.3 376.32 57.85C371.51 55.39 367.31 53.39 366.97 53.4C366.63 53.42 351.97 62.11 334.39 72.72L302.43 92.01L302.34 132.79C302.29 155.22 302.34 173.78 302.44 174.04C302.59 174.44 305.01 174.48 317.99 174.3C326.45 174.18 344.62 173.93 358.36 173.74ZM282.8 172.53C282.29 172.25 281.72 171.73 281.53 171.38C281.3 170.94 281.18 158.32 281.18 133.64C281.18 97.01 281.19 96.55 281.86 95.88C282.9 94.84 285.06 94.95 286.12 96.1L286.95 96.99L287.04 133.21C287.1 156.68 287.01 169.79 286.79 170.47C286.6 171.04 285.93 171.86 285.29 172.28C283.95 173.19 284.01 173.18 282.8 172.53ZM160.94 104.04C159.87 103.61 159.12 102.35 159.12 100.98C159.12 99.42 159.72 98.6 161.55 97.65C162.36 97.22 163.26 96.73 163.54 96.55C164.66 95.84 171.08 92.14 171.2 92.14C171.27 92.14 172.83 91.25 174.66 90.16C176.49 89.07 180.21 86.9 182.92 85.35C185.63 83.79 189.07 81.79 190.57 80.91C192.07 80.03 194.05 78.89 194.98 78.38C197.14 77.19 204.53 72.9 208.86 70.32C210.69 69.23 212.25 68.34 212.32 68.34C212.39 68.34 213.64 67.62 215.11 66.74C218.3 64.82 220.06 64.6 221.48 65.93C222.75 67.12 222.66 68.6 221.25 69.94C220.65 70.52 217.55 72.49 214.37 74.32C211.19 76.15 206.22 79.02 203.32 80.69C200.42 82.37 197.51 84.04 196.86 84.41C196.21 84.77 194.29 85.88 192.61 86.87C190.93 87.85 189.01 88.96 188.36 89.33C184.69 91.4 175.37 96.79 168.47 100.83C165.43 102.61 161.99 104.42 161.76 104.36C161.71 104.35 161.34 104.2 160.94 104.04ZM473.62 57.97C473.15 57.7 472.53 57.48 472.24 57.47C471.4 57.45 468.08 54.29 467.21 52.66C465.38 49.27 464.69 43.36 465.62 39.1C466.73 34.04 468.95 30.8 472.53 29.02C474.4 28.08 474.64 28.05 479.57 28.05C485.65 28.05 487.19 28.48 489.71 30.9C491.48 32.59 491.98 33.38 492.91 35.93C493.79 38.35 493.76 46.3 492.86 49.13C491.67 52.87 489.25 55.65 485.62 57.44C483.59 58.45 483.37 58.48 478.99 58.47C475.71 58.46 474.24 58.32 473.62 57.97ZM481.86 53.5C483.74 52.77 485.37 51.23 486.4 49.23C487.15 47.75 487.22 47.24 487.21 42.77C487.2 38.13 487.16 37.84 486.28 36.22C485.76 35.29 484.74 34.12 483.99 33.6C482.76 32.75 482.35 32.66 479.57 32.65C477.13 32.64 476.29 32.78 475.43 33.3C472.82 34.89 471.58 38.04 471.58 43.07C471.58 49.1 473.14 52.28 476.68 53.5C478.68 54.19 480.08 54.19 481.86 53.5Z" fill="#1e2749" fill-rule="evenodd"/>
</svg>
