<?xml version="1.0" encoding="UTF-8"?>
<svg xmlns="http://www.w3.org/2000/svg" viewBox="0 0 594 437" width="594" height="437" shape-rendering="geometricPrecision">
<path d="M396 422.75C396 422.43 399.52 418.64 403.83 414.33C408.14 410.03 411.67 406.39 411.67 406.25C411.67 406.11 410.44 406 408.93 406L406.2 406L398.01 414.17L389.82 422.33L387.57 422.33C385.96 422.33 385.33 422.21 385.33 421.9C385.33 421.66 388.71 418.1 392.83 413.99C396.96 409.88 400.33 406.4 400.33 406.26C400.33 406.12 399.1 406 397.6 406L394.86 406L386.67 414.17L378.48 422.33L376.24 422.33C374.32 422.33 374 422.25 374 421.75C374 421.42 377.3 417.86 381.33 413.83C385.37 409.8 388.67 406.39 388.67 406.25C388.67 406.11 387.44 406 385.93 406L383.2 406L375.01 414.17L366.82 422.33L364.57 422.33C362.64 422.33 362.34 422.25 362.39 421.75C362.41 421.43 366.84 416.82 372.22 411.5L382.01 401.84L387.92 401.84L393.83 401.83L393.73 400.83C393.3 396.63 393.31 395.71 393.8 394.52C394.09 393.83 394.25 393.13 394.14 392.96C394.04 392.8 390.29 392.67 385.81 392.67C378.11 392.67 377.63 392.63 377 392C376.63 391.63 376.34 391.07 376.34 390.75C376.34 390.43 383.92 375.03 393.17 356.53C402.43 338.03 410 322.77 410 322.61C410 322.46 409.78 322.33 409.51 322.33C408.4 322.33 405.12 320.43 403.52 318.85C401.62 316.99 400.63 315.19 399.85 312.18C399.2 309.68 399.2 308.73 399.87 306.08C400.52 303.47 401.51 301.67 403.34 299.79C404.72 298.37 408.25 296.33 409.33 296.33C409.64 296.33 410.15 296.05 410.46 295.71C410.98 295.14 410.99 292.48 410.68 256.63C410.5 235.48 410.25 198.52 410.14 174.5C410.02 150.48 409.86 130.72 409.78 130.58C409.7 130.45 382.11 130.33 348.48 130.33L287.33 130.33L287.42 197.42L287.5 264.5L289 265.03C293.24 266.53 295.78 268.67 297.5 272.2C298.37 273.99 298.46 274.49 298.46 277.67C298.46 280.84 298.37 281.35 297.5 283.17C296.2 285.85 293.03 288.98 290.55 290.01C289.51 290.44 288.67 290.99 288.67 291.23C288.67 291.85 320.66 355.78 321.12 356.08C321.33 356.21 322.06 356.33 322.74 356.33C324.02 356.33 324.67 356.97 324.67 358.21C324.67 358.54 320.77 362.71 315.93 367.57L307.18 376.33L304.93 376.33C302.96 376.33 302.67 376.25 302.67 375.73C302.67 375.38 305.78 372.04 309.95 367.9C313.96 363.93 317.16 360.6 317.06 360.51C316.97 360.41 315.68 360.33 314.21 360.33L311.53 360.33L303.51 368.33L295.48 376.33L293.43 376.33C292.28 376.33 291.27 376.17 291.14 375.96C291.01 375.75 293.97 372.53 298.29 368.21C302.35 364.15 305.67 360.72 305.67 360.58C305.67 360.44 304.44 360.33 302.93 360.33L300.2 360.33L292.17 368.33C285.73 374.76 283.97 376.33 283.26 376.33C282.54 376.33 282.36 376.51 282.27 377.25C282.17 378.14 282.1 378.17 279.92 378.27C277.91 378.35 277.67 378.3 277.67 377.74C277.67 377.38 281.05 373.76 285.95 368.9C290.51 364.38 294.16 360.6 294.06 360.51C293.97 360.41 292.61 360.33 291.04 360.33L288.19 360.33L279.17 369.33L270.15 378.33L267.91 378.33C265.97 378.33 265.67 378.25 265.67 377.73C265.67 377.38 269.2 373.61 273.95 368.9C278.51 364.38 282.16 360.6 282.06 360.51C281.97 360.41 280.68 360.33 279.21 360.33L276.53 360.33L267.51 369.33L258.48 378.33L256.43 378.33C255.28 378.33 254.27 378.17 254.14 377.96C254.01 377.74 257.37 374.13 262.29 369.21C266.9 364.6 270.67 360.72 270.67 360.58C270.67 360.44 269.44 360.33 267.93 360.33L265.19 360.33L256.17 369.33C247.29 378.19 247.13 378.33 245.78 378.33C244.86 378.33 244.34 378.5 244.21 378.83C244.09 379.15 243.58 379.33 242.84 379.33C241.93 379.33 241.67 379.2 241.67 378.73C241.67 378.39 245.42 374.4 250.45 369.4C255.28 364.6 259.15 360.6 259.06 360.51C258.97 360.41 257.68 360.33 256.21 360.33L253.53 360.33L244.01 369.83L234.48 379.33L232.43 379.33C231.28 379.33 230.27 379.17 230.14 378.96C230.01 378.74 233.84 374.66 239.46 369.04C248.06 360.44 249 359.39 249 358.41C249 357.64 253.83 347.67 265.5 324.33C274.57 306.19 282 291.2 282 291.02C282 290.84 281.43 290.54 280.73 290.35C279.06 289.9 276.58 288.23 275.32 286.72C274.76 286.05 273.82 284.53 273.24 283.34C272.24 281.32 272.17 280.95 272.17 277.67C272.17 274.38 272.24 274.01 273.25 271.95C274.9 268.59 277.81 266.08 281.21 265.07C281.97 264.85 282.76 264.46 282.96 264.21C283.24 263.88 283.31 245.97 283.25 197.13L283.17 130.5L216.25 130.42L149.33 130.33L149.42 191.75L149.5 253.17L168.98 253.26C186.65 253.34 188.52 253.4 189.08 253.91C189.44 254.23 189.66 254.81 189.6 255.27C189.53 255.8 186.18 259.38 179.33 266.2L169.17 276.32L167.07 276.33C165.68 276.33 164.92 276.19 164.82 275.91C164.72 275.67 168.49 271.66 173.49 266.67C178.36 261.82 182.33 257.73 182.33 257.59C182.33 257.45 181.09 257.33 179.58 257.33L176.83 257.33L167.33 266.83L157.84 276.33L155.59 276.33C153.64 276.33 153.33 276.25 153.33 275.73C153.33 275.39 157.1 271.38 162.17 266.35C167.03 261.53 171 257.52 171 257.45C171 257.39 169.69 257.33 168.1 257.33L165.19 257.33L155.67 266.83L146.15 276.33L144.07 276.33C142.68 276.33 141.92 276.19 141.82 275.91C141.72 275.67 145.49 271.66 150.49 266.67C155.36 261.82 159.33 257.73 159.33 257.59C159.33 257.45 157.95 257.33 156.26 257.33L153.19 257.33L143.67 266.83L134.15 276.33L132.07 276.33C130.68 276.33 129.92 276.19 129.82 275.91C129.72 275.67 133.49 271.66 138.49 266.67C143.36 261.82 147.33 257.73 147.33 257.59C147.33 257.45 146.1 257.33 144.59 257.33L141.84 257.33L132.24 266.92C124.02 275.12 122.59 276.42 122.3 275.92C122.07 275.52 121.55 275.33 120.65 275.33C119.6 275.33 119.33 275.21 119.33 274.73C119.33 274.38 122.89 270.59 127.67 265.85C132.25 261.3 136 257.52 136 257.46C136 257.39 134.69 257.33 133.1 257.33L130.19 257.33L121.17 266.33L112.15 275.33L110.06 275.33C108.68 275.33 107.92 275.19 107.82 274.91C107.72 274.67 111.27 270.88 115.99 266.17C120.58 261.59 124.33 257.73 124.33 257.59C124.33 257.45 123.09 257.33 121.58 257.33L118.83 257.33L109.83 266.33L100.84 275.33L98.59 275.33C96.66 275.33 96.33 275.25 96.33 274.75C96.33 274.42 101.01 269.49 106.78 263.72L117.23 253.27L130.86 253.28C139.88 253.28 144.63 253.17 144.91 252.93C145.25 252.66 145.33 239.65 145.33 188.28C145.33 134.21 145.41 123.64 145.8 121.9C146.06 120.76 146.52 118.41 146.83 116.67C147.13 114.92 147.59 112.6 147.84 111.5C148.09 110.4 148.55 108.38 148.85 107C149.92 102.16 150.42 100.15 150.86 98.83C151.1 98.1 151.77 95.92 152.34 94C153.27 90.86 153.82 89.27 154.69 87.17C154.84 86.8 155.51 85.15 156.17 83.5C158.74 77.13 162.3 70.78 165.97 66C171.57 58.71 179.17 52.86 186.83 49.92C187.57 49.64 188.77 49.18 189.5 48.9C190.86 48.39 193.3 47.77 197.5 46.88C205.59 45.17 220.25 45.6 230.5 47.86C244.61 50.96 256.51 56.68 265.38 64.63C269.57 68.39 276.81 78.53 278.97 83.67C279.39 84.67 279.84 85.61 279.97 85.75C280.1 85.89 283.2 83.8 286.85 81.12C290.51 78.43 294.25 75.7 295.17 75.06C296.08 74.41 299.7 71.77 303.21 69.19C306.72 66.61 312.16 62.62 315.31 60.33C318.45 58.04 323.4 54.42 326.31 52.28C329.22 50.15 334.31 46.43 337.63 44.02C340.94 41.61 343.81 39.35 344.01 38.99C344.31 38.41 344.72 38.33 347.3 38.33C350.25 38.33 350.25 38.33 350.45 39.25C350.6 39.98 356.98 45.23 381.69 64.98C398.76 78.62 412.92 90.1 413.16 90.48C413.64 91.23 413.63 89.76 414.35 223.5C414.64 276.27 414.85 295.6 415.12 295.86C415.33 296.06 416.11 296.4 416.86 296.61C418.9 297.18 422.1 299.4 423.45 301.17C427.15 306.02 427.09 312.54 423.3 317.34C421.71 319.34 419.54 320.98 417.31 321.84C416.41 322.19 415.67 322.65 415.67 322.86C415.67 323.06 423.24 338.37 432.5 356.87C441.75 375.36 449.33 390.62 449.33 390.77C449.33 390.91 448.97 391.4 448.52 391.85L447.7 392.67L440.18 392.67L432.67 392.67L432.67 393.43C432.67 393.85 432.85 394.38 433.07 394.61C433.64 395.17 433.61 399.76 433.05 400.44C432.81 400.73 432.66 401.2 432.72 401.49C432.82 401.94 434.1 402.02 443.03 402.09C453.89 402.17 454.33 402.24 454.33 403.79C454.33 404.28 451.37 407.47 444.91 413.92C436.58 422.25 435.37 423.33 434.45 423.33C433.83 423.33 433.33 423.13 433.21 422.83C433.11 422.56 432.79 422.33 432.51 422.33C431.17 422.33 432.56 420.6 439.33 413.83C443.37 409.8 446.67 406.39 446.67 406.25C446.67 406.11 445.44 406 443.93 406L441.2 406L433.01 414.17L424.82 422.33L422.57 422.33C420.96 422.33 420.33 422.21 420.33 421.9C420.33 421.66 423.71 418.1 427.83 413.99C431.96 409.88 435.33 406.4 435.33 406.26C435.33 406.12 434.1 406 432.6 406L429.86 406L421.67 414.17L413.48 422.33L411.24 422.33C409.32 422.33 409 422.25 409 421.75C409 421.42 412.3 417.86 416.33 413.83C420.37 409.8 423.67 406.39 423.67 406.25C423.67 406.11 422.36 406 420.76 406L417.86 406L409.17 414.67L400.48 423.33L398.24 423.33C396.33 423.33 396 423.25 396 422.75ZM419.37 401.31C419.3 401.05 419.01 400.04 418.73 399.07C418.25 397.44 418.26 397.18 418.85 395.41C419.2 394.36 419.54 393.31 419.6 393.08C419.69 392.76 418.32 392.67 413.52 392.67C407.85 392.67 407.33 392.71 407.35 393.25C407.35 393.57 407.57 394.21 407.83 394.67C408.47 395.78 408.46 399.11 407.82 400.36C407.54 400.91 407.4 401.51 407.53 401.71C407.67 401.95 409.68 402.02 413.62 401.92C418.5 401.81 419.48 401.7 419.37 401.31ZM402.55 400.64C403.95 399.77 404.33 399.07 404.33 397.37C404.33 396.44 404.09 395.75 403.53 395.1C402.81 394.26 402.51 394.17 400.67 394.17C398.05 394.17 397.33 394.87 397.34 397.45C397.34 399.36 397.43 399.55 398.79 400.59C400 401.52 401.1 401.53 402.55 400.64ZM427.81 400.68C429.6 399.5 430.14 397.55 429.18 395.7C428.56 394.49 427.03 393.86 425.28 394.1C423.59 394.32 422.71 395.16 422.45 396.76C422.19 398.37 422.85 399.92 424.14 400.7C425.45 401.5 426.58 401.5 427.81 400.68ZM443.34 388.49C443.7 388.06 441.35 383.14 428.47 357.42C420.05 340.62 413.02 326.82 412.83 326.77C412.48 326.66 382 387.33 382 388.14C382 388.4 382.19 388.69 382.42 388.78C382.65 388.87 396.35 388.96 412.88 388.97C439.48 389 442.97 388.94 443.34 388.49ZM315.94 355.9C316.41 355.32 286.04 294.67 285.28 294.67C284.88 294.67 280.55 303.01 269.52 325.07C261.16 341.79 254.38 355.65 254.47 355.87C254.69 356.44 315.47 356.47 315.94 355.9ZM414.7 318.55C422.02 316.83 424.83 307.82 419.63 302.72C415.72 298.88 409 299 405.61 302.96C401.08 308.25 403.76 316.91 410.43 318.52C412.67 319.06 412.52 319.06 414.7 318.55ZM386.5 296.63C384.61 295.63 384.04 295.05 383.13 293.26C382.45 291.92 382.33 291.21 382.33 288.4C382.33 286.02 382.49 284.78 382.88 283.97C384.47 280.67 386.59 279.33 390.22 279.33C393.56 279.33 395.67 280.66 395.67 282.77C395.67 284.24 394.95 284.41 393.32 283.32C391.58 282.17 389.97 282.05 388.47 282.96C386.97 283.88 386.33 285.49 386.33 288.42C386.33 290.65 386.43 291.04 387.34 292.3C388.88 294.42 390.27 294.76 393.31 293.78C394.88 293.27 395.08 293.27 395.56 293.75C396.28 294.47 395.91 295.76 394.75 296.53C394.07 296.98 393.05 297.16 390.83 297.24C388.28 297.33 387.63 297.24 386.5 296.63ZM288.26 286.82C292.85 284.91 295.54 280.31 294.63 275.92C293.19 268.9 284.42 265.93 278.96 270.61C275 274 274.88 280.72 278.72 284.63C281.12 287.08 285.32 288.04 288.26 286.82ZM256.16 266.58C256.06 266.17 256.02 262.16 256.07 257.67L256.17 249.5L260.32 249.41C265 249.3 265.84 249.52 267.33 251.22C268.57 252.62 268.61 253.83 267.5 255.47C267.04 256.14 266.67 256.78 266.67 256.88C266.67 256.98 267.27 257.75 268 258.58C269.1 259.83 269.33 260.34 269.33 261.46C269.32 263.48 268.14 265.32 266.16 266.41C264.61 267.26 264.23 267.32 260.42 267.33C256.47 267.33 256.34 267.31 256.16 266.58ZM264.31 263.47C266.57 261.56 264.73 259.06 261.3 259.39L260.17 259.5L260.07 261.64C259.95 264.05 260.15 264.32 262.06 264.33C262.89 264.33 263.61 264.06 264.31 263.47ZM262.98 255.85C265.39 254.6 264.02 252.06 261.12 252.39C260.23 252.49 260.16 252.61 260.06 254.13C259.92 256.35 260.9 256.92 262.98 255.85ZM120.22 249.11C119.68 248.56 119.83 248 122.83 239.83C123.5 238 124.13 236.2 124.22 235.83C124.31 235.47 124.52 234.87 124.68 234.5C124.84 234.13 125.19 233.27 125.47 232.58L125.97 231.33L128.07 231.34C130.51 231.34 130.9 231.53 131.32 232.86C131.64 233.89 133.24 238.31 134.99 243C137.16 248.8 137.15 249.33 134.85 249.33C133.19 249.33 132.59 248.76 132.17 246.75C131.89 245.41 131.42 245.27 127.51 245.4L124.53 245.5L124.31 246.57C123.91 248.51 123.14 249.33 121.71 249.33C121.02 249.33 120.34 249.23 120.22 249.11ZM129.99 241.85C130.31 241.46 130.2 240.81 129.45 238.62C128.93 237.12 128.33 235.83 128.13 235.76C127.91 235.69 127.42 236.69 126.98 238.07C126.55 239.41 126.07 240.69 125.89 240.92C125.7 241.18 125.73 241.51 126 241.83C126.55 242.5 129.44 242.51 129.99 241.85ZM282.93 125.93C283.54 125.33 283.42 118.69 282.7 112.5C281.99 106.44 281.58 104.16 280.41 99.67C279.96 97.92 279.45 95.92 279.28 95.21C278.76 92.98 278.41 92.57 277.25 92.8C275.15 93.22 274.24 90.92 275.82 89.21C276.74 88.22 276.74 88.24 275.17 84.83C271.12 76.04 263.39 66.92 256.17 62.44C255.25 61.87 253.82 60.98 253 60.47C248.53 57.66 237.65 53.38 231.87 52.15C230.56 51.88 228.45 51.43 227.17 51.16C218.61 49.37 205.74 49.25 197.5 50.88C192.05 51.96 189.04 52.97 184.57 55.21C180.37 57.32 176.73 60.02 173.14 63.72C170.58 66.35 166.33 71.59 166.33 72.12C166.33 72.21 165.46 73.76 164.39 75.57C162.4 78.94 160.33 83.07 160.33 83.67C160.33 83.86 160.19 84.27 160.01 84.59C158.45 87.41 154.4 100.07 152.85 107C152.54 108.38 152.08 110.4 151.83 111.5C151.58 112.6 151.14 114.77 150.84 116.33C150.54 117.89 150.08 120.22 149.81 121.5C149.29 123.99 149.19 125.75 149.56 126.11C149.68 126.23 179.65 126.33 216.16 126.33C267.34 126.33 282.62 126.24 282.93 125.93ZM409.39 125.78C409.96 125.26 410 124.3 410 109.12L410 93.01L409.08 92.03C407.81 90.67 347.64 42.6 347.01 42.44C346.73 42.37 343.72 44.34 340.33 46.82C325.83 57.44 322.11 60.16 315.22 65.19C307.2 71.04 299.76 76.49 289.05 84.33C283.9 88.1 282 89.67 282 90.16C282 90.53 282.47 92.41 283.03 94.33C285.63 103.16 287.34 114.4 287.33 122.69C287.33 124.45 287.43 125.99 287.56 126.11C287.68 126.23 315 126.33 348.28 126.33C404.11 126.33 408.83 126.29 409.39 125.78Z" fill="#1e2749" fill-rule="evenodd"/>
</svg>
