<?xml version="1.0" encoding="UTF-8"?>
<svg xmlns="http://www.w3.org/2000/svg" viewBox="0 0 452 156" width="452" height="156" shape-rendering="geometricPrecision">
<path d="M242.93 150.62C241.8 150.2 241.46 149.2 242.12 148.19C242.4 147.77 242.54 147.09 242.44 146.7C242.33 146.27 242.47 145.73 242.8 145.37C243.29 144.83 243.3 144.72 242.84 144.34C242.23 143.83 242.15 141.31 242.73 140.73C242.95 140.51 243.49 140.33 243.94 140.33C244.58 140.33 244.69 140.45 244.47 140.92C244.11 141.73 244.22 143.68 244.66 144.12C245.2 144.66 246.15 143.95 246.27 142.9C246.33 142.43 246.12 141.65 245.82 141.19L245.26 140.33L247.13 140.33C248.86 140.33 249.47 140.67 248.67 141.17C248.48 141.28 248.33 141.79 248.33 142.29C248.33 143.45 246.85 144.91 245.53 145.06C244.99 145.12 244.5 145.34 244.43 145.54C244.28 145.99 245.39 146.32 247.08 146.33C248.03 146.33 248.44 146.53 248.86 147.16C249.38 147.95 249.36 148.04 248.49 149.08C247 150.84 245.04 151.39 242.93 150.62ZM248 149.12C248.4 148.98 248.34 148.82 247.71 148.31C247.15 147.85 246.41 147.67 245.11 147.67C243.42 147.67 243.29 147.72 243.39 148.4C243.55 149.51 245.77 149.85 248 149.12ZM210.07 147.16C208.69 146.57 207.86 144.74 208.11 142.88C208.33 141.18 209.14 140.44 211.03 140.16C212.36 139.97 212.68 140.05 213.53 140.78C214.93 142 214.37 142.77 211.87 143.04C210.83 143.15 209.88 143.34 209.76 143.46C209.64 143.58 209.86 144.09 210.24 144.59C210.84 145.38 211.13 145.49 212.46 145.42C214.18 145.33 214.35 145.57 213.25 146.57C212.18 147.55 211.33 147.7 210.07 147.16ZM217.07 147.15C215.66 146.56 214.88 144.95 215.09 143.07C215.33 140.99 216.09 140.35 218.45 140.25C220.03 140.18 220.47 140.28 220.85 140.81C221.2 141.28 221.23 141.56 220.95 141.89C220.44 142.51 220 142.45 219.13 141.64C217.69 140.28 216.16 141.97 216.95 144.04C217.5 145.49 218.21 145.85 219.55 145.36C221.1 144.8 221.32 145.13 220.19 146.31C219.03 147.52 218.37 147.69 217.07 147.15ZM179.18 146.44C179.53 145.2 179.55 138.04 179.2 137.08C178.93 136.35 178.97 136.33 181.48 136.33C184.2 136.33 185.72 136.85 186.32 137.98C186.92 139.1 186.7 140.1 185.61 141.23C184.61 142.26 184.58 142.37 185.02 143.2C185.28 143.68 186.06 144.67 186.76 145.39C188.14 146.82 188.13 147.33 186.69 147.33C185.91 147.33 185.46 146.93 184.05 145C183.11 143.72 182.18 142.67 181.97 142.67C181.72 142.67 181.64 143.41 181.72 144.92L181.83 147.17L180.37 147.27C178.92 147.38 178.91 147.37 179.18 146.44ZM190.12 146.83C189.86 146.15 190.21 145.33 190.78 145.33C191.04 145.33 191.44 145.56 191.67 145.83C192 146.23 192 146.43 191.67 146.83C191.44 147.11 191.04 147.33 190.78 147.33C190.52 147.33 190.23 147.11 190.12 146.83ZM198.18 146.44C198.53 145.2 198.55 138.04 198.2 137.08C197.93 136.35 197.97 136.33 200.48 136.33C203.2 136.33 204.72 136.85 205.32 137.98C205.92 139.1 205.7 140.1 204.61 141.23C203.61 142.26 203.57 142.37 204.02 143.22C204.29 143.71 205.13 144.74 205.9 145.51C206.67 146.29 207.21 147.01 207.1 147.13C206.98 147.24 206.4 147.33 205.8 147.33C204.85 147.33 204.52 147.06 203.02 145C202.09 143.72 201.16 142.67 200.96 142.67C200.72 142.67 200.64 143.44 200.72 144.92L200.83 147.17L199.37 147.27C197.92 147.38 197.91 147.37 198.18 146.44ZM223.15 146.97C223.03 146.78 222.8 145.02 222.64 143.07C222.4 140.01 222.43 139.44 222.9 138.93C224.28 137.4 224.94 138.81 224.74 142.87C224.61 145.46 224.67 145.93 225.14 146.11C225.53 146.26 225.8 146.05 226.07 145.41C226.67 144 227.36 143.33 228.22 143.33C229.02 143.33 229.27 143.8 228.67 144.17C228.18 144.47 228.26 145.52 228.8 145.98C229.18 146.28 229.38 146.21 229.8 145.61C230.47 144.66 230.48 143.7 229.84 143.46C229.46 143.31 229.43 143.12 229.7 142.61C229.89 142.24 229.97 141.73 229.87 141.47C229.61 140.79 228.75 140.89 228.33 141.67C227.91 142.46 227.06 142.54 226.78 141.81C226.48 141.03 227.31 140.44 229.03 140.19C231.4 139.86 232.01 140.53 232.34 143.85C232.5 145.47 232.48 146.63 232.29 146.83C231.76 147.38 227.44 147.37 226.98 146.81C226.47 146.2 225.86 146.2 225.33 146.83C224.85 147.41 223.48 147.5 223.15 146.97ZM234.17 143.89L234.17 140.41L236.64 140.19C239.89 139.89 240.36 140.29 240.38 143.35C240.38 144.52 240.52 145.73 240.69 146.04C241.09 146.8 240.3 147.41 239.1 147.27C238.37 147.19 238.19 147.02 238.29 146.5C238.36 146.13 238.48 144.98 238.57 143.94C238.71 142.26 238.64 142.01 238 141.67C236.56 140.9 236.25 141.42 236.38 144.42L236.5 147.17L235.33 147.27L234.17 147.36L234.17 143.89ZM250.87 146.57C250.61 146.16 250.33 144.54 250.24 142.92C250.08 140.09 250.1 140 250.8 140C252.03 140 252.33 140.65 252.33 143.24C252.33 145.21 252.44 145.73 252.89 145.9C253.24 146.04 253.67 145.83 254.09 145.31C254.65 144.61 254.72 144.18 254.54 142.25C254.33 140.03 254.34 140 255.14 140C255.59 140 256.03 140.11 256.11 140.25C256.19 140.39 256.31 142 256.38 143.83L256.5 147.15L253.92 147.23C251.57 147.3 251.29 147.24 250.87 146.57ZM258.51 147.02C258.39 146.82 258.4 146.32 258.53 145.91C258.81 145.05 258.78 139.42 258.48 137.61C258.31 136.56 258.39 136.36 259.01 136.16C260.41 135.72 260.62 136.45 260.7 142L260.77 147.17L259.75 147.27C259.19 147.32 258.63 147.21 258.51 147.02ZM262.43 146.45C261.67 145.28 262.18 143.94 263.56 143.49C265.11 142.99 266.09 142.01 265.62 141.45C265.1 140.82 264.56 140.89 264.08 141.67C263.54 142.53 262.33 142.56 262.33 141.71C262.33 141.36 262.55 140.91 262.81 140.69C263.36 140.23 266.81 140.04 267.22 140.44C267.37 140.6 267.6 141.8 267.73 143.11C267.86 144.42 268.01 145.88 268.06 146.33C268.17 147.16 268.13 147.17 265.57 147.22C263.15 147.27 262.94 147.22 262.43 146.45ZM269.83 143.85C269.83 141.92 269.91 140.32 270 140.31C271.47 140.07 273.92 140.12 274.25 140.4C274.89 140.93 274.13 141.67 272.93 141.67L271.93 141.67L272.05 144.42L272.17 147.17L271 147.27L269.83 147.36L269.83 143.85ZM265.84 144.96C266.15 143.57 265.57 143.01 264.67 143.83C263.85 144.57 263.8 145.52 264.58 145.96C265.34 146.38 265.57 146.2 265.84 144.96ZM211.93 142.27C212.79 141.41 211.11 140.6 210 141.34C209.57 141.63 209.59 141.75 210.15 142.17C210.93 142.77 211.4 142.8 211.93 142.27ZM190.4 141.6C189.35 140.55 190.38 139.51 191.67 140.33C192.1 140.6 192.07 140.74 191.49 141.33C190.95 141.86 190.72 141.92 190.4 141.6ZM183.72 140.78C184.96 139.66 184.1 137.33 182.45 137.33C181.72 137.33 181.67 137.46 181.67 139.33C181.67 141.16 181.73 141.33 182.39 141.33C182.79 141.33 183.39 141.09 183.72 140.78ZM202.72 140.78C203.96 139.66 203.1 137.33 201.45 137.33C200.72 137.33 200.67 137.46 200.67 139.33C200.67 141.16 200.73 141.33 201.39 141.33C201.79 141.33 202.39 141.09 202.72 140.78ZM159.99 131.53C159.54 131.08 157.22 129.96 154.83 129.02C152.45 128.08 150.2 127.18 149.83 127C149.47 126.83 147.82 126.15 146.17 125.5C144.52 124.84 142.87 124.16 142.5 123.99C142.13 123.82 140.33 123.09 138.5 122.36C136.67 121.64 134.75 120.68 134.25 120.23L133.33 119.41L133.33 110.76C133.33 102.8 133.38 102.06 133.94 101.55C134.51 101.04 140.04 101 206.72 101L278.9 101L279.86 101.84C280.4 102.31 282.26 103.45 284 104.4C287.06 106.05 287.86 106.48 294.03 109.76C295.6 110.6 297.66 111.54 298.61 111.85L300.33 112.41L300.33 121.63C300.33 129.44 300.25 130.97 299.81 131.59L299.3 132.33L230.06 132.33L160.82 132.33L159.99 131.53ZM297.21 129.29C297.57 129 297.67 127.39 297.67 121.8C297.67 114.69 297.67 114.68 296.92 114.5C296.5 114.4 292.19 114.35 287.33 114.41L278.5 114.5L278.39 115.79C278.27 117.31 278.77 118.7 279.63 119.23C279.96 119.44 281.72 120.4 283.54 121.36C285.35 122.32 288.01 123.76 289.46 124.56C290.9 125.35 292.19 126 292.33 126C292.47 126 292.77 126.23 293.01 126.51C293.8 127.47 291.76 128.9 290.82 128.04C290.64 127.89 288.85 126.89 286.83 125.84C281.33 122.96 278.33 121.23 278.33 120.93C278.33 120.79 275.92 120.67 272.98 120.67C269.92 120.67 267.35 120.52 266.98 120.32C266.61 120.12 266.33 119.63 266.33 119.15L266.33 118.33L270.79 118.33C276.21 118.33 276.33 118.25 276.03 114.67C276.01 114.44 257.01 114.36 219.25 114.42L162.5 114.5L162.4 115.96C162.34 116.77 162.43 117.57 162.61 117.74C162.78 117.92 165.03 118.08 167.61 118.11C172.59 118.17 173.52 118.44 172.79 119.59C172.48 120.08 171.69 120.19 167.46 120.33L162.5 120.5L162.41 124.59C162.35 126.83 162.45 128.93 162.62 129.25C162.92 129.8 166.53 129.83 229.85 129.75C278.9 129.69 296.88 129.57 297.21 129.29ZM159.83 124.31L159.83 120.5L158.27 120.4C157.03 120.32 156.65 120.15 156.48 119.62C156.2 118.71 156.72 118.25 158.11 118.16C159.79 118.06 160 117.8 160 115.81L160 113.99L158.25 113.22C157.29 112.8 155.82 112.18 155 111.85C154.17 111.52 153.2 111.13 152.83 110.97C152.47 110.82 150.82 110.15 149.17 109.5C147.52 108.84 145.87 108.16 145.5 107.99C143.61 107.12 136.44 104.33 136.08 104.33C135.74 104.33 135.67 105.8 135.74 111.08L135.83 117.83L143.07 118C150.67 118.18 151.57 118.36 150.79 119.59C150.48 120.08 149.76 120.18 145.86 120.26C142.81 120.32 141.32 120.47 141.4 120.71C141.47 120.9 143.39 121.8 145.68 122.71C150.82 124.76 156.84 127.23 158.17 127.85C158.72 128.11 159.32 128.27 159.5 128.21C159.7 128.15 159.83 126.55 159.83 124.31ZM185.94 120.41C178.95 120.32 178.7 120.3 178.49 119.63C178.37 119.25 178.42 118.78 178.6 118.6C179.08 118.12 194.3 118.17 194.79 118.65C195.25 119.12 194.72 120.02 193.82 120.3C193.46 120.41 189.91 120.46 185.94 120.41ZM201.33 120.37C200.19 120.05 200.01 118.76 201.06 118.42C201.49 118.28 205.21 118.24 209.33 118.33C216.52 118.49 216.83 118.53 216.83 119.16C216.83 120.43 215.56 120.66 208.67 120.63C205.09 120.61 201.79 120.5 201.33 120.37ZM223.08 120.32C222.58 120.12 222.33 119.74 222.33 119.18L222.33 118.33L230.51 118.33C237.81 118.33 238.71 118.39 238.9 118.89C239.03 119.24 238.84 119.66 238.35 120.05C237.67 120.61 236.92 120.66 230.71 120.65C226.93 120.63 223.5 120.49 223.08 120.32ZM245.08 120.32C244.58 120.12 244.33 119.74 244.33 119.18L244.33 118.33L252.51 118.33C259.81 118.33 260.71 118.39 260.9 118.89C261.03 119.24 260.84 119.66 260.35 120.05C259.67 120.61 258.92 120.66 252.71 120.65C248.93 120.63 245.5 120.49 245.08 120.32ZM276 107.9C276.1 105.61 276.03 103.83 275.85 103.65C275.38 103.18 141.57 103.22 141.73 103.7C141.8 103.89 142.67 104.34 143.68 104.69C144.68 105.04 145.8 105.48 146.17 105.66C146.53 105.84 149.31 106.97 152.33 108.17C155.36 109.37 158.13 110.5 158.5 110.67C161.2 111.96 159.58 111.93 218.83 111.88L275.83 111.83L276 107.9ZM291.4 111.5C291.47 111.17 289.87 110.23 283.33 106.77C281.41 105.75 279.69 104.79 279.52 104.63C279.34 104.47 279 104.33 278.77 104.33C278.44 104.33 278.33 105.11 278.34 107.42C278.34 109.11 278.43 110.84 278.55 111.26L278.75 112.01L285.04 111.92C288.89 111.87 291.36 111.7 291.4 111.5ZM298.34 95.5C297.71 94.75 298.17 94.06 299.39 93.94C300.14 93.87 300.62 93.57 300.94 93C301.37 92.23 301.29 91.92 299.87 88.96C299.03 87.2 298.33 85.58 298.33 85.36C298.33 85.11 298.74 85 299.42 85.06C300.24 85.14 300.53 85.34 300.6 85.9C300.66 86.3 300.98 87.19 301.31 87.86L301.91 89.09L302.62 88.38C303.01 87.99 303.33 87.3 303.33 86.86C303.33 85.65 303.67 85 304.31 85C305.22 85 305.35 85.35 304.82 86.38C304.55 86.9 304.11 87.77 303.83 88.3C303.56 88.83 303.33 89.43 303.33 89.63C303.33 89.82 302.81 91.1 302.17 92.47C300.7 95.62 299.33 96.7 298.34 95.5ZM277.89 94.52C277.01 94.09 275.95 93.42 275.54 93.04C275.13 92.65 274.61 92.33 274.4 92.33C274.18 92.33 273.41 91.74 272.69 91.02C269.93 88.26 270.64 83.56 274.07 81.85C277.03 80.37 280.87 82.28 281.61 85.58C282.09 87.74 281.53 89.41 279.71 91.2L278.17 92.72L279.26 93.7C279.87 94.24 280.27 94.83 280.16 95.01C279.88 95.46 279.72 95.42 277.89 94.52ZM70.18 91.44C70.54 90.16 70.57 83.38 70.21 82.25L69.93 81.33L72.41 81.33C74.45 81.33 75.11 81.47 76.03 82.09C77.01 82.75 77.18 83.07 77.27 84.38C77.36 85.75 77.25 86.01 76.32 86.79C74.49 88.33 72.89 87.68 74.46 86.04C74.94 85.54 75.33 84.9 75.33 84.61C75.33 83.81 74.03 82.33 73.31 82.33C72.71 82.33 72.68 82.61 72.74 87.25L72.8 92.17L71.36 92.27C69.92 92.38 69.92 92.37 70.18 91.44ZM79.45 91.83C79.23 91.25 79.52 90.33 79.93 90.33C80.08 90.33 80.49 90.54 80.84 90.8C81.38 91.19 81.41 91.34 81.03 91.8C80.47 92.47 79.71 92.49 79.45 91.83ZM89.21 91.7C87.19 90.36 86.32 87.86 87.01 85.29C87.47 83.55 88.08 82.81 89.74 81.96C91.04 81.3 93.31 81.12 93.85 81.64C94.02 81.81 94.62 82 95.17 82.06C95.92 82.14 96.19 82.36 96.28 82.96C96.48 84.37 95.77 84.57 94.72 83.4C93.93 82.5 93.54 82.33 92.3 82.34C90.99 82.34 90.75 82.46 90 83.56C89.31 84.57 89.17 85.18 89.17 87.09C89.17 89.26 89.23 89.44 90.26 90.36C91.16 91.17 91.64 91.33 93.05 91.33C94.52 91.33 94.69 91.4 94.33 91.83C93.71 92.58 90.42 92.5 89.21 91.7ZM98.37 91.16C97.19 89.81 97.01 88.26 97.84 86.65C98.38 85.61 99.23 85.27 101.39 85.21C102.51 85.18 102.89 85.36 103.74 86.3C104.6 87.27 104.72 87.62 104.56 88.75C104.3 90.75 102.63 92.33 100.8 92.33C99.62 92.33 99.24 92.15 98.37 91.16ZM105.86 91.7C104.8 90.52 105.66 88.33 107.19 88.33C108.01 88.33 108.28 88.79 107.67 89.17C107.18 89.47 107.26 90.52 107.8 90.98C108.18 91.28 108.38 91.21 108.8 90.61C109.47 89.66 109.48 88.7 108.84 88.46C108.46 88.31 108.43 88.12 108.7 87.61C109.46 86.18 108.16 85.38 107.27 86.73C106.76 87.49 105.66 87.4 105.67 86.59C105.68 85.75 106.19 85.43 107.87 85.21C110.47 84.87 111.08 85.52 111.37 88.88C111.5 90.39 111.46 91.64 111.28 91.83C111.11 92.01 109.94 92.19 108.68 92.23C106.87 92.28 106.29 92.17 105.86 91.7ZM112.48 91.96C112.35 91.75 112.78 91.1 113.46 90.48C114.88 89.17 114.97 88.41 113.83 87.06C112.69 85.7 112.74 85 113.99 85C114.72 85 115.1 85.23 115.44 85.87L115.89 86.74L116.58 85.87C117.26 85.01 118.13 84.74 118.47 85.28C118.57 85.44 118.28 85.92 117.82 86.34C116.7 87.4 116.79 88.34 118.18 90.16C119.48 91.86 119.44 92.33 117.98 92.33C117.18 92.33 116.92 92.12 116.52 91.17C115.94 89.77 114.67 89.49 114.67 90.77C114.67 92.07 113.08 92.94 112.48 91.96ZM121.31 92.27C121.3 92.21 121.26 90.63 121.23 88.75C121.16 85.16 121.34 84.74 122.71 85.18C123.25 85.35 123.34 85.77 123.39 88.19C123.42 89.74 123.46 91.26 123.47 91.58C123.49 92.01 123.2 92.2 122.42 92.27C121.82 92.33 121.32 92.33 121.31 92.27ZM125.1 91.45C124.32 90.25 124.85 88.94 126.31 88.47C128 87.92 128.88 86.52 127.79 86.1C127.44 85.97 127.04 86.17 126.67 86.67C125.77 87.85 124.44 87.03 125.26 85.8C125.39 85.6 126.27 85.33 127.21 85.21C129.65 84.89 130.3 85.49 130.55 88.33C130.92 92.61 131.19 92.16 128.24 92.22C125.81 92.27 125.61 92.22 125.1 91.45ZM132.98 92.27C132.97 92.21 132.94 89.73 132.9 86.75C132.83 81.02 132.95 80.59 134.36 81.35C134.94 81.66 135.01 82.12 135.06 86.35C135.09 88.91 135.12 91.26 135.14 91.58C135.16 92.01 134.87 92.2 134.08 92.27C133.49 92.33 132.99 92.33 132.98 92.27ZM283.45 91.83C283.23 91.25 283.52 90.33 283.93 90.33C284.08 90.33 284.49 90.54 284.84 90.8C285.38 91.19 285.41 91.34 285.03 91.8C284.47 92.47 283.71 92.49 283.45 91.83ZM292.1 91.83C290.58 90.77 290.3 87.07 291.65 85.85C292.04 85.5 292.94 85.27 294.15 85.23C295.69 85.18 296.14 85.29 296.52 85.81C296.87 86.28 296.89 86.56 296.62 86.89C296.11 87.51 295.66 87.45 294.8 86.64C294.3 86.16 293.83 86.01 293.36 86.16C292.78 86.34 292.67 86.65 292.67 87.97C292.67 90.12 293.37 90.77 295.37 90.47L296.83 90.24L295.85 91.29C294.75 92.46 293.3 92.67 292.1 91.83ZM306.98 92.27C306.97 92.21 306.94 89.73 306.9 86.75C306.83 81.02 306.95 80.59 308.36 81.35C308.94 81.66 309.01 82.12 309.06 86.35C309.09 88.91 309.12 91.26 309.14 91.58C309.16 92.01 308.87 92.2 308.08 92.27C307.49 92.33 306.99 92.33 306.98 92.27ZM311.31 92.27C311.3 92.21 311.26 90.63 311.23 88.75C311.17 85.67 311.23 85.31 311.79 85.13C312.9 84.77 313.27 85.66 313.39 89L313.5 92.17L312.42 92.27C311.82 92.33 311.32 92.33 311.31 92.27ZM315.16 88.89L315.17 85.41L317.62 85.19C320.89 84.89 321.33 85.26 321.33 88.24C321.33 89.42 321.48 90.65 321.66 90.99C322.09 91.8 321.35 92.42 320.1 92.27C319.37 92.19 319.19 92.02 319.29 91.5C319.36 91.13 319.48 89.98 319.57 88.94C319.71 87.26 319.64 87.01 319 86.67C317.56 85.9 317.25 86.42 317.38 89.42L317.5 92.17L316.33 92.27L315.16 92.36L315.16 88.89ZM323.64 91.47C323 90.79 322.83 90.26 322.83 88.88C322.83 86.45 323.61 85.33 325.29 85.33C326.15 85.33 326.76 85.11 327.18 84.65C327.72 84.05 327.74 83.84 327.37 82.8C326.88 81.45 326.87 81.46 328.06 81.16C329.28 80.86 329.8 81.89 329.57 84.14C329.48 85.07 329.5 87.15 329.62 88.76C329.75 90.5 329.71 91.82 329.52 92.01C329.34 92.19 328.13 92.33 326.82 92.33C324.7 92.33 324.36 92.24 323.64 91.47ZM331.16 88.89L331.17 85.41L333.12 85.21C334.19 85.1 335.31 85.14 335.6 85.3C335.91 85.48 336.46 85.48 336.92 85.3C337.42 85.11 337.95 85.13 338.36 85.35C338.9 85.64 339.01 86.09 339.06 88.35C339.09 89.81 339.12 91.26 339.14 91.58C339.16 92.03 338.9 92.17 338 92.17L336.83 92.17L336.95 89.25C337.05 86.77 336.99 86.31 336.51 86.12C336.21 86.01 335.79 86.08 335.58 86.29C335.37 86.5 334.76 86.67 334.23 86.67L333.26 86.67L333.38 89.42L333.5 92.17L332.33 92.27L331.16 92.36L331.16 88.89ZM342.1 91.74C341.08 90.94 340.58 89.41 340.82 87.79C341.11 85.89 341.86 85.31 344.15 85.23C345.69 85.18 346.14 85.29 346.52 85.81C346.87 86.28 346.89 86.56 346.62 86.89C346.11 87.51 345.66 87.45 344.8 86.64C344.3 86.16 343.83 86.01 343.36 86.16C342.78 86.34 342.67 86.65 342.67 87.97C342.67 90.04 343.41 90.81 345.13 90.48C346.53 90.22 346.66 90.58 345.56 91.61C344.63 92.48 343.11 92.54 342.1 91.74ZM348.1 91.45C347.32 90.25 347.85 88.94 349.31 88.47C351 87.92 351.88 86.52 350.79 86.1C350.44 85.97 350.04 86.17 349.67 86.67C348.77 87.85 347.44 87.03 348.26 85.8C348.39 85.6 349.27 85.33 350.21 85.21C352.65 84.89 353.3 85.49 353.55 88.33C353.92 92.61 354.19 92.16 351.24 92.22C348.81 92.27 348.61 92.22 348.1 91.45ZM355.51 92.02C355.39 91.82 355.4 91.32 355.54 90.91C355.82 90.12 355.76 84.64 355.47 82.61C355.31 81.57 355.39 81.36 356.01 81.16C357.41 80.72 357.62 81.45 357.7 87L357.77 92.17L356.75 92.27C356.19 92.32 355.63 92.21 355.51 92.02ZM278.42 90.3C280.27 88.32 279.4 83.06 277.12 82.46C274.91 81.89 273.59 83.3 273.41 86.42C273.28 88.82 273.97 90.56 275.33 91.24C276.42 91.78 277.28 91.51 278.42 90.3ZM102.15 90.59C103.17 89.13 102.59 86.49 101.17 86.14C99.97 85.84 99.33 86.51 99.33 88.06C99.33 90.76 100.99 92.25 102.15 90.59ZM327.67 88.72C327.67 87.13 326.98 86 326.02 86C325.1 86 324.67 86.72 324.67 88.25C324.67 89.36 324.87 89.9 325.52 90.55C326.34 91.37 326.4 91.38 327.02 90.82C327.48 90.4 327.67 89.79 327.67 88.72ZM128.32 90.36C128.84 89.38 128.74 88.67 128.07 88.67C127.25 88.67 126.67 89.31 126.67 90.23C126.67 91.2 127.82 91.29 128.32 90.36ZM351.32 90.36C351.84 89.38 351.74 88.67 351.07 88.67C350.25 88.67 349.67 89.31 349.67 90.23C349.67 91.2 350.82 91.29 351.32 90.36ZM79.75 86.77C79.52 86.68 79.33 86.25 79.33 85.81C79.33 84.95 80.07 84.74 81 85.33C81.43 85.6 81.41 85.73 80.83 86.28C80.47 86.63 79.98 86.85 79.75 86.77ZM283.74 86.6C282.68 85.55 283.71 84.51 285 85.33C285.43 85.6 285.41 85.74 284.82 86.33C284.29 86.86 284.05 86.92 283.74 86.6ZM121.7 82.36C121.16 82.02 121.44 81 122.07 81.01C122.31 81.01 122.72 81.15 122.98 81.31C123.38 81.56 123.38 81.71 123.02 82.14C122.52 82.74 122.35 82.77 121.7 82.36ZM311.7 82.36C311.16 82.02 311.44 81 312.07 81.01C312.31 81.01 312.72 81.15 312.98 81.31C313.38 81.56 313.38 81.71 313.02 82.14C312.52 82.74 312.35 82.77 311.7 82.36ZM337.2 82.14C336.81 81.12 337.65 80.66 338.67 81.34C339.1 81.63 339.08 81.75 338.52 82.17C337.7 82.8 337.45 82.79 337.2 82.14ZM44.83 62.69C41.57 61.78 40.32 61.2 37.1 59.09C34.1 57.13 30.02 52.09 29.16 49.28C29.03 48.85 28.8 48.35 28.66 48.17C28.07 47.42 27.31 43.63 27.11 40.49C26.6 32.08 30.25 24.18 36.83 19.49C39.35 17.69 41.79 16.61 45.08 15.84C47.97 15.16 54.71 15.18 124.5 16.02C154.78 16.39 157.67 16.38 159.61 15.88C162.48 15.14 166.96 15.18 170.14 15.97C173.32 16.77 173.74 17.09 173.48 18.51C173.28 19.56 173.33 19.62 175.46 20.75C177.28 21.72 177.72 21.84 178.03 21.46C178.72 20.63 179.82 20.96 181.22 22.42C185.39 26.77 189.34 35.73 189.33 40.8C189.31 44.96 187.13 50.25 183.82 54.12C181.17 57.23 178.04 59.59 173.84 61.68L170.5 63.33L108.67 63.29C52.05 63.25 46.66 63.2 44.83 62.69ZM374.83 61.65C358.7 61.53 329.35 61.41 309.62 61.38C278.55 61.34 273.37 61.26 270.98 60.81C263.84 59.45 258.57 54.57 256.14 47.04C255.34 44.55 255.28 43.98 255.4 39.75C255.55 34.33 256.27 31.85 258.81 28.03C261.02 24.71 263.52 22.7 267.83 20.76C269.1 20.2 272.68 20.16 338.59 20.08C398.04 20 408.12 20.06 408.75 20.46C409.16 20.72 410.18 21.04 411 21.17C416.31 22 421.87 26.88 424.29 32.83C425.86 36.7 426.31 40.6 425.64 44.64C424.84 49.46 422.93 53.14 419.5 56.5C415.72 60.2 411.1 62.05 406 61.92C404.99 61.89 390.97 61.77 374.83 61.65ZM50.48 60.7C50.7 60.35 49.55 60.01 48.08 60C47.01 60 46.62 60.46 47.42 60.78C48.13 61.07 50.28 61.01 50.48 60.7ZM168.31 60.48C171.45 59.83 176.21 57.88 177.89 56.56C178.9 55.77 182.48 50.44 183.51 48.18C184.34 46.37 185.33 42.98 185.33 41.98C185.33 41.68 185.65 41.15 186.04 40.8C186.64 40.25 186.71 39.93 186.53 38.39C186.41 37.41 186.03 36.06 185.67 35.39C185.31 34.72 184.62 33.3 184.15 32.25C181.41 26.17 172.54 20.56 163.73 19.33C162.5 19.16 160.9 18.93 160.17 18.82C158.41 18.56 155.66 19.53 152.96 21.36C151.38 22.43 150.77 22.68 150.36 22.43C149.45 21.85 149.59 21.11 150.85 19.93L152.07 18.78L140.78 18.56C134.58 18.43 122.52 18.33 114 18.32C105.47 18.32 90.26 18.17 80.18 18C70.11 17.83 61.78 17.78 61.68 17.88C61.58 17.99 62.1 18.55 62.82 19.12C66.76 22.23 69.45 25.41 70.93 28.7C71.84 30.7 72.67 33.23 72.67 33.97C72.67 35.2 73.37 35.32 81.02 35.41C88.1 35.5 88.5 35.53 88.62 36.14C88.87 37.49 87.94 37.67 80.48 37.67L73.43 37.67L73.25 40.75C73.15 42.45 73.14 43.91 73.22 44C73.31 44.09 76.69 44.16 80.74 44.16C87.23 44.17 88.13 44.23 88.44 44.72C88.7 45.13 88.68 45.42 88.36 45.81C87.98 46.26 86.83 46.33 80.11 46.33L72.3 46.33L71.8 47.58C69.92 52.31 66.72 56.43 62.92 59.04C61.86 59.77 61 60.51 61 60.69C61 60.9 79.18 61.01 113.5 60.99C157.95 60.97 166.35 60.89 168.31 60.48ZM57.17 59.58C61.4 57.83 65.5 54.26 67.73 50.42C71.82 43.34 72 36.29 68.29 28.8C66.5 25.19 62.53 21.39 58.67 19.6C55.49 18.12 47.33 16.99 47.33 18.03C47.33 18.26 48.1 18.35 49.5 18.28C50.69 18.22 51.71 18.27 51.75 18.4C51.8 18.53 52.73 18.87 53.83 19.15C58.71 20.4 63.09 23.5 65.76 27.59C71.55 36.46 70.09 47.72 62.23 54.85C59.92 56.94 55.94 58.99 52.92 59.64C51.86 59.86 51 60.2 51 60.4C51 60.94 55.24 60.38 57.17 59.58ZM46.48 60.04C46.68 59.71 45.59 59.35 44.42 59.34C43.68 59.33 43.45 59.67 43.89 60.11C44.22 60.44 46.26 60.38 46.48 60.04ZM151.45 58.87C150.38 58.07 148.87 56.76 148.11 55.96C146.22 53.98 143.67 49.75 143.67 48.6C143.67 47.79 143.8 47.67 144.63 47.67C145.41 47.67 145.7 47.9 146.18 48.92C147.9 52.57 150.11 54.99 154.97 58.56C155.27 58.78 154.32 60.33 153.88 60.33C153.62 60.33 152.53 59.68 151.45 58.87ZM42.5 59C42.62 58.81 42.47 58.57 42.17 58.46C41.54 58.21 41.18 58.48 41.49 58.98C41.76 59.43 42.23 59.43 42.5 59ZM397.85 58.97C397.97 58.78 397.72 58.37 397.29 58.08C395.96 57.18 393.71 54.6 392.56 52.67C391.25 50.45 390.53 48.58 389.85 45.56C388.04 37.6 391.42 28.42 397.82 23.91L399.83 22.5L341.36 22.42C309.2 22.37 282.8 22.42 282.7 22.54C282.59 22.65 282.95 23.06 283.5 23.46C286.34 25.48 288.9 29.07 290.43 33.13C291.38 35.65 291.44 36.13 291.44 40.33C291.44 44.53 291.38 45.01 290.43 47.54C289.13 51 287.4 53.69 284.95 56.05C283.88 57.08 283 58.09 283 58.3C283 58.72 280.78 58.68 320.5 58.98C371.91 59.37 397.61 59.37 397.85 58.97ZM413.5 57.99C416.53 56.5 419.78 53.26 421.21 50.31C423.11 46.39 423.17 46.11 423.17 41.17C423.17 36.83 423.1 36.33 422.22 34.08C420.49 29.67 417.24 26.15 413.17 24.28C411.73 23.62 410.96 23.51 407.5 23.51C403.6 23.5 403.44 23.53 401.22 24.65C396.11 27.21 393.1 31.79 391.99 38.7C391.08 44.4 393.33 51.02 397.56 55.1C400.86 58.28 403.72 59.4 408.17 59.24C410.79 59.15 411.46 58.99 413.5 57.99ZM276.39 58.16C279.8 57.73 285.03 53.46 286.97 49.5C288.29 46.83 289.33 42.78 289.33 40.33C289.33 34.98 286.37 28.71 282.41 25.67C278.24 22.47 273.81 21.59 269.12 23.04C258.98 26.17 254.54 38.81 259.76 49.67C261.1 52.44 264.51 55.89 267.14 57.14C270.17 58.57 271.71 58.74 276.39 58.16ZM40.29 57.63C39.67 57.24 39.33 57.26 39.33 57.69C39.33 57.88 39.48 57.95 39.67 57.83C39.85 57.72 40 57.8 40 58C40 58.2 40.17 58.27 40.37 58.14C40.63 57.99 40.6 57.83 40.29 57.63ZM52.19 57.31C54.89 56.82 58.55 55.01 60.64 53.13C62.1 51.81 65.33 47.48 65.33 46.84C65.33 46.46 53.84 46.89 52.05 47.33C48.71 48.15 45.02 46.62 43.68 43.86C42.03 40.45 43.62 37.27 47.67 35.86C48.87 35.45 50.8 35.34 57.38 35.34C67.05 35.33 66.83 35.41 65.63 32.42C63.97 28.31 60.71 24.59 57.39 23.03C56.54 22.62 55.56 22.14 55.23 21.96C54.9 21.78 53.44 21.46 51.98 21.25C43.28 19.98 35.62 24.89 32.97 33.45C32.35 35.43 32.28 36.3 32.41 39.95C32.55 43.7 32.68 44.44 33.59 46.59C35.97 52.29 40.19 55.89 46 57.2C48.35 57.73 49.74 57.75 52.19 57.31ZM146.19 46.42C141.58 46.35 139.06 46.19 138.76 45.94C138.51 45.73 138.34 45.17 138.4 44.7L138.5 43.83L143.48 43.74C146.21 43.69 148.63 43.5 148.84 43.33C149.08 43.13 149.17 42.33 149.07 41.18C148.96 39.84 149.07 39.12 149.46 38.52C149.76 38.06 150 37.6 150 37.5C150 37.39 148.69 37.35 147.08 37.4L144.17 37.5L144.07 39.38C143.96 41.41 143.21 42.52 142.21 42.14C141.79 41.97 141.67 41.47 141.67 39.8C141.67 37.51 141.68 37.52 139.33 37.26C138.66 37.19 138.48 36.96 138.4 36.1L138.29 35.04L140.06 34.93C141.7 34.84 141.84 34.76 142.11 33.83C142.9 31.05 143.15 30.34 144.03 28.42C144.77 26.79 145.14 26.33 145.7 26.33C147.02 26.33 147.32 27.25 146.51 28.8C145.45 30.83 144.67 33.07 144.67 34.07L144.67 34.95L152.08 35.06L159.5 35.17L161.05 36.24C162.97 37.58 164.17 39.81 163.86 41.47C163.58 42.94 161.83 45.33 161.03 45.33C159.88 45.33 159.65 43.68 160.67 42.67C161.57 41.77 161.55 39.88 160.64 38.97C158.42 36.75 153.42 36.84 151.82 39.12C151.28 39.89 151.18 41.58 151.64 42.31C151.81 42.57 152.59 43.09 153.39 43.47C155.1 44.29 155.44 45.32 154.28 46.13C153.86 46.43 153.44 46.63 153.34 46.59C153.25 46.55 150.03 46.47 146.19 46.42ZM94.46 45.85C94.36 45.59 94.33 45.1 94.39 44.77C94.5 44.21 95.06 44.17 102.5 44.17C109.93 44.17 110.5 44.21 110.61 44.77C110.89 46.23 110.36 46.33 102.28 46.33C95.94 46.33 94.61 46.25 94.46 45.85ZM116.56 46.11C116.43 45.99 116.33 45.48 116.33 44.98L116.33 44.06L123.92 43.93C128.09 43.86 131.76 43.92 132.08 44.08C132.84 44.44 132.83 45.09 132.06 45.78C131.53 46.26 130.47 46.33 124.11 46.33C120.08 46.33 116.68 46.23 116.56 46.11ZM50 44.83C50.25 44.53 50.98 44.33 51.87 44.33C53 44.33 53.56 44.12 54.38 43.39C56.73 41.29 55.2 38.63 51.39 38.2C47.82 37.8 45.83 38.76 45.45 41.06C45.23 42.41 46.28 43.9 48.07 44.78C49.43 45.45 49.49 45.45 50 44.83ZM65.65 44.02C66.3 43.6 66.99 41.17 66.99 39.25L67 37.67L62 37.67C59.25 37.67 57 37.8 57 37.96C57 38.12 57.24 38.82 57.53 39.52C57.91 40.44 58 41.28 57.84 42.56L57.62 44.33L61.39 44.33C63.47 44.33 65.38 44.19 65.65 44.02ZM94.75 37.46C94.52 37.36 94.33 36.85 94.33 36.32L94.33 35.37L101.92 35.27C106.09 35.21 109.76 35.28 110.08 35.43C110.84 35.77 110.83 36.52 110.04 37.06C109.59 37.38 107.52 37.52 102.29 37.57C98.37 37.61 94.98 37.56 94.75 37.46ZM116.46 36.85C116.36 36.59 116.33 36.1 116.39 35.77C116.5 35.21 117.05 35.17 124.3 35.17C131.21 35.17 132.13 35.23 132.44 35.72C132.7 36.13 132.67 36.42 132.36 36.81C131.73 37.56 116.75 37.61 116.46 36.85ZM37.17 22.67C37.28 22.48 37.21 22.33 37.02 22.33C36.83 22.33 36.67 22.48 36.67 22.67C36.67 22.85 36.73 23 36.81 23C36.89 23 37.05 22.85 37.17 22.67ZM38.83 21.67C38.95 21.48 38.88 21.33 38.69 21.33C38.49 21.33 38.33 21.48 38.33 21.67C38.33 21.85 38.4 22 38.48 22C38.56 22 38.72 21.85 38.83 21.67ZM40.54 20.43C40.27 20.16 39.33 20.6 39.33 21C39.33 21.25 39.55 21.24 40.03 20.98C40.41 20.78 40.64 20.53 40.54 20.43ZM42.36 19.8C42.75 19.34 42.7 19.28 42.01 19.38C41.57 19.45 41.16 19.69 41.08 19.92C40.88 20.52 41.84 20.43 42.36 19.8ZM46.14 18.66C46.4 18.39 46.1 18.32 45.03 18.4C44.13 18.46 43.49 18.68 43.4 18.97C43.28 19.34 43.51 19.39 44.51 19.23C45.21 19.12 45.94 18.86 46.14 18.66Z" fill="#1e2749" fill-rule="evenodd"/>
</svg>
