<?xml version="1.0" encoding="UTF-8"?>
<svg xmlns="http://www.w3.org/2000/svg" viewBox="0 0 748 294.1" width="748" height="294.1" shape-rendering="geometricPrecision">
<path d="M283.52 293.54C283.12 293.06 283.05 270.28 283.05 147.37L283.05 1.77L284 0.88L284.96 0L299.54 0L314.12 0L315.24 1.03L316.37 2.06L316.46 71.9L316.54 141.74L329.31 129.09C337.5 120.99 342.37 116.41 342.87 116.35C343.66 116.24 344.76 117.04 344.76 117.71C344.76 118.07 330.83 132.41 323.3 139.81C321.27 141.81 319.6 143.69 319.6 143.99C319.6 144.48 320.28 144.53 325.89 144.44L332.17 144.33L346.11 130.3C358.26 118.08 360.18 116.28 361.06 116.28C362.44 116.28 363.04 117.36 362.3 118.49C362.01 118.94 356.34 124.73 349.7 131.36C343.05 137.99 337.62 143.66 337.62 143.96C337.62 144.43 338.41 144.5 344.16 144.5L350.69 144.5L364.82 130.39C377.4 117.82 379.06 116.28 380 116.28C381.07 116.28 381.48 116.74 381.48 117.92C381.48 118.24 375.82 124.15 368.9 131.07C361.98 137.99 356.32 143.84 356.32 144.07C356.32 144.4 357.85 144.5 362.91 144.5L369.5 144.5L383.73 130.4C393.66 120.57 398.19 116.29 398.71 116.29C399.48 116.28 400.52 117.09 400.52 117.69C400.52 117.89 394.86 123.79 387.94 130.82C381.02 137.85 375.36 143.8 375.36 144.05C375.36 144.41 376.71 144.5 381.9 144.5L388.45 144.51L402.51 130.39C414.4 118.47 416.72 116.28 417.53 116.28C418.52 116.28 419.56 117.04 419.56 117.75C419.56 117.97 413.82 123.88 406.81 130.89C399.8 137.89 394.06 143.82 394.06 144.06C394.06 144.3 394.25 144.51 394.48 144.51C394.72 144.52 397.66 144.52 401.03 144.5L407.15 144.48L421.28 130.38C436.18 115.51 436.33 115.39 437.72 116.93C438.17 117.42 438.23 117.74 437.97 118.21C437.78 118.55 432.03 124.41 425.19 131.24C418.36 138.07 412.76 143.84 412.76 144.07C412.76 144.4 414.33 144.5 419.47 144.5L426.19 144.51L435.75 134.9C452.82 117.75 454.37 116.28 455.38 116.28C456.03 116.28 456.41 116.53 456.68 117.13C457.05 117.94 456.89 118.18 454.06 121.13C452.4 122.86 446.71 128.59 441.42 133.87C436.13 139.14 431.8 143.7 431.8 143.98C431.8 144.43 432.9 144.5 440.21 144.5L448.63 144.5L462.82 130.39C477.19 116.11 477.85 115.55 478.99 116.69C480.07 117.77 479.41 118.55 466.82 131.14C459.9 138.06 454.24 143.88 454.24 144.08C454.24 144.28 454.39 144.49 454.58 144.56C454.76 144.62 458.66 144.59 463.24 144.5L471.57 144.33L485.61 130.3C493.63 122.3 499.91 116.28 500.26 116.28C501.29 116.28 502.18 116.95 502.18 117.72C502.18 118.23 498.37 122.27 489.6 131.06C482.68 138 477.02 143.86 477.02 144.09C477.02 144.4 479.04 144.5 485.42 144.5L493.82 144.5L507.96 130.39C522.88 115.5 523.02 115.38 524.42 116.93C524.87 117.42 524.93 117.74 524.67 118.21C524.48 118.55 518.73 124.41 511.89 131.24C505.05 138.06 499.46 143.84 499.46 144.07C499.46 144.4 501.34 144.5 507.8 144.5L516.15 144.5L521.66 139.27C524.69 136.39 531.08 130.04 535.87 125.16C543.37 117.5 544.71 116.28 545.58 116.28C546.74 116.28 547.4 116.81 547.4 117.74C547.4 118.14 542.61 123.12 534.82 130.81C523.18 142.3 521.24 144.49 522.66 144.51C522.9 144.51 530.82 144.51 540.26 144.51L557.43 144.51L558.45 143.35C559.77 141.85 560.63 141.44 562.42 141.44C565.11 141.44 567.46 143.67 567.46 146.23C567.46 148.61 564.76 151.3 562.39 151.3C561.02 151.3 559.98 150.69 558.53 149.04L557.56 147.94L437.05 148L316.54 148.07L316.46 220.37C316.37 290.92 316.35 292.69 315.72 293.38C315.08 294.09 314.9 294.1 299.53 294.1C285.48 294.1 283.94 294.05 283.52 293.54ZM312.73 290.63C313.38 289.99 313.32 148.81 312.68 148.28C312.34 148 308.55 147.92 299.33 147.98L286.45 148.07L286.36 219.13C286.31 258.21 286.35 290.38 286.44 290.61C286.67 291.22 312.13 291.23 312.73 290.63ZM429.86 185.42C428.45 184.85 427.42 180.83 428.01 178.21C428.49 176.08 429.53 175.1 431.34 175.1C433.22 175.1 434.31 176.22 434.79 178.61C435.62 182.8 432.84 186.63 429.86 185.42ZM432.32 183.51C433.14 182.8 433.22 182.51 433.22 180.25C433.22 177.51 432.67 176.46 431.26 176.46C430.02 176.46 429.42 177.68 429.42 180.23C429.42 182 429.57 182.68 430.12 183.38C430.98 184.48 431.18 184.49 432.32 183.51ZM331.5 180.01C327.48 178.63 323.96 177.5 323.68 177.49C322.71 177.45 322.12 176.86 322.49 176.29C322.89 175.66 338.79 170.26 339.81 170.41C340.41 170.5 340.53 170.81 340.68 172.72L340.85 174.93L376.85 175.1C410.3 175.26 412.88 175.31 413.22 175.85C413.51 176.31 413.42 176.61 412.78 177.29L411.96 178.16L376.41 178.24L340.85 178.33L340.67 180.03C340.47 182.02 340.17 182.59 339.38 182.55C339.07 182.53 335.52 181.39 331.5 180.01ZM536.05 182.04C535.93 181.75 535.84 180.84 535.84 180.04C535.84 179.02 535.68 178.51 535.3 178.37C535.01 178.25 513.82 178.16 488.21 178.16C442.11 178.16 441.65 178.15 440.98 177.48C440.2 176.7 440.12 176.1 440.71 175.51C441.02 175.19 451.95 175.1 487.82 175.1C519.36 175.1 534.74 174.99 535.18 174.75C535.71 174.47 535.84 174.03 535.84 172.53C535.84 171.15 535.98 170.61 536.37 170.46C537.06 170.19 552.81 175.39 553.66 176.17C554.3 176.75 554.3 176.77 553.49 177.08C551.71 177.78 537 182.58 536.64 182.58C536.43 182.58 536.16 182.34 536.05 182.04ZM420.66 181.32C420.35 181.2 420.24 179.77 420.24 175.75C420.24 170.77 420.29 170.34 420.85 170.34C421.19 170.34 421.64 170.52 421.87 170.74C422.17 171.05 422.45 171.04 423.06 170.72C423.5 170.48 424.39 170.34 425.03 170.4C426.01 170.49 426.19 170.64 426.19 171.36C426.19 172.11 426.01 172.23 424.7 172.41C422.57 172.69 422.28 173.26 422.28 177.15C422.28 179.85 422.17 180.53 421.68 180.95C421.36 181.24 420.9 181.4 420.66 181.32ZM312.77 144.03C313.04 143.7 313.12 124.4 313.06 73.91L312.97 4.25L299.62 4.16L286.28 4.07L286.28 74.05C286.28 117.75 286.4 144.15 286.6 144.35C286.8 144.54 291.94 144.63 299.66 144.58C309.76 144.5 312.47 144.39 312.77 144.03Z" fill="#1e2749" fill-rule="evenodd"/>
</svg>
