<?xml version="1.0" encoding="UTF-8"?>
<svg xmlns="http://www.w3.org/2000/svg" viewBox="0 0 2430 1178" width="2430" height="1178" shape-rendering="geometricPrecision">
<path d="M1386.43 1142.98C1363.62 1140.1 1334.18 1121.84 1317.92 1100.49C1307.24 1086.45 1300.49 1071.35 1296.38 1052.27C1291.99 1031.87 1292.05 992.88 1296.51 975.5C1298.44 967.98 1304.5 955.17 1310.59 945.74C1316.54 936.53 1318.35 934.32 1328.32 924.19C1342.6 909.69 1361.68 898.36 1382 892.32C1391.09 889.62 1392.37 889.5 1411.5 889.57C1428.17 889.62 1433.03 889.99 1440.67 891.76C1460.67 896.38 1476.96 905.9 1494.08 922.96C1510.53 939.34 1521.19 956.28 1526.43 974.34C1531.53 991.94 1532.37 1035.36 1527.94 1052.78C1525.34 1063.01 1515.75 1082.33 1507.71 1093.5C1500.16 1104 1484.64 1119.36 1474.15 1126.72C1466.16 1132.31 1452.03 1138.93 1442.5 1141.53C1435.42 1143.47 1397.94 1144.43 1386.43 1142.98ZM1431.71 1127.52C1442.44 1124.12 1451.09 1118.79 1459.57 1110.35C1473.11 1096.89 1480.65 1082.89 1485.07 1063C1489.5 1043.09 1489.64 1003.39 1485.39 978C1481.01 951.88 1468.77 929.43 1452.19 917.14C1432.99 902.9 1410.63 899.44 1387.57 907.12C1370.45 912.83 1352.15 932.13 1344.4 952.64C1338.14 969.23 1334.28 999.69 1335.35 1024C1337.2 1065.66 1344.95 1087.57 1366.7 1112.5C1377.13 1124.47 1379.93 1126.07 1394.91 1128.73C1410.21 1131.45 1420.38 1131.11 1431.71 1127.52ZM1357 842.88C1353.26 841.39 1349.19 837.09 1347.94 833.31C1346.16 827.92 1345.28 738.3 1345.12 546.48L1344.97 370.45L1349.74 365.84C1355.78 359.99 1357.78 359 1363.55 359C1367.63 359 1368.72 359.48 1371.98 362.75C1375.47 366.25 1375.78 367.04 1376.5 374.5C1377.98 389.83 1378.62 463.55 1378.63 618C1378.63 778.99 1378.11 822.97 1376.07 831.5C1373.75 841.21 1365.38 846.21 1357 842.88ZM1451.5 842.59C1447.8 840.94 1444.48 837.43 1443.04 833.61C1441.33 829.11 1440.05 697.45 1440.02 523.96L1440 370.42L1444.25 366.36C1450.72 360.17 1452.95 359 1458.26 359C1462.46 359 1463.59 359.48 1467.04 362.75L1471 366.5L1472.2 383.5C1473.96 408.31 1474.01 806.78 1472.26 823C1470.91 835.44 1469.9 837.74 1464.01 841.75C1460.3 844.28 1455.95 844.57 1451.5 842.59ZM564 353.39C557.82 352.24 552.91 349.72 551.48 346.96C549.31 342.76 549.6 337.4 552.12 334.88C553.94 333.06 554.99 332.84 559.49 333.37C562.37 333.71 569.18 335.85 574.62 338.12C587.24 343.41 595.52 344.31 601.85 341.08C611.29 336.26 618.19 327.54 619.96 318.2C621.77 308.66 617.76 295.65 610.68 288.11C606.85 284.04 594.54 278.13 583.25 274.95C578.71 273.67 575.01 272.15 575.02 271.56C575.02 270.98 579.37 268.49 584.67 266.04C596.51 260.55 603.69 254.3 607.95 245.79C613.1 235.48 611.98 226.41 604.53 218.17C599.45 212.54 593.78 210 586.31 210C576.81 210 573.01 211.74 559 222.5C553.83 226.47 552 226.85 552 223.96C552 218.51 563.29 202.98 570.94 197.91C578 193.24 584.85 191.67 595.69 192.23C603.59 192.65 605.99 193.21 611.61 195.98C627.72 203.91 634.79 219 629.24 233.6C628.19 236.39 624.55 242.94 621.16 248.17C617.77 253.4 615 258.2 615 258.82C615 259.45 617.87 262.22 621.38 264.98C630.67 272.28 634.98 278.52 637.64 288.5C641.91 304.5 635.81 325.19 623.07 337.93C616.15 344.85 607.77 349.17 597 351.37C589.29 352.94 568.45 354.22 564 353.39ZM1380.5 311.89C1363.55 311.21 1358.97 310.02 1343.67 302.33C1310.73 285.79 1288.96 255.46 1280.8 214.73C1277.67 199.08 1277.68 175.03 1280.83 160.31C1286.77 132.58 1297.84 111.87 1316.87 92.91C1328.6 81.22 1335.41 76.24 1348.66 69.66C1366.29 60.9 1380.11 57.53 1398 57.63C1415.6 57.73 1426.77 59.78 1446.5 66.53C1463.05 72.19 1469.92 73.24 1473.48 70.64C1474.5 69.89 1476.72 66.41 1478.42 62.89C1483.52 52.31 1487 54.51 1488.88 69.51C1490.91 85.8 1493.47 136.04 1492.35 137.81C1489.85 141.78 1488.05 140.39 1483.95 131.33C1477.05 116.09 1474.7 112.06 1467.49 103.2C1448.41 79.72 1430.21 71.11 1402.07 72.26C1388.16 72.83 1380.27 74.8 1369 80.53C1342.06 94.23 1328.05 119.12 1322.43 163.28C1320.18 180.95 1320.9 208.06 1323.99 222.5C1332.08 260.2 1353.67 284.96 1385.5 293.05C1402.05 297.26 1426.75 296.6 1440.58 291.58C1451.36 287.66 1457.79 283.07 1472.94 268.45C1489.52 252.44 1492.48 250 1495.26 250C1496.97 250 1497.16 250.46 1496.61 253.2C1494.95 261.52 1476.44 282.86 1460.5 294.83C1450.56 302.3 1435.16 309.59 1426.5 310.92C1417.6 312.29 1399.68 312.67 1380.5 311.89ZM126 301.5C95.27 294.66 65.45 269.66 50.94 238.58C42.94 221.46 39.25 206.31 38.35 187C35.4 123.48 69.23 72.2 126.42 53.51C145.54 47.27 165.7 46.6 187.37 51.49C196.3 53.51 201.85 55.39 223.72 63.79C227.86 65.38 227.99 65.36 230.5 63C231.92 61.67 235.17 57.51 237.74 53.76C245.13 42.93 247.19 45.18 249.58 66.68C251.7 85.74 252.71 130.44 251.04 131.47C248.86 132.82 246.88 129.68 238.45 111.5C232.92 99.57 226.86 91.02 218.15 82.83C204.78 70.28 189.61 64.37 167.98 63.3C152.66 62.54 142.77 64.46 130 70.66C113.3 78.77 100.2 94.28 91.35 116.42C84.73 132.98 82.38 145.99 81.41 171.5C79.37 225 96.86 262.61 131.14 278.42C145.94 285.25 164.87 288.11 182.47 286.19C204.09 283.83 213.1 278.86 235.48 256.96C250.98 241.8 255.11 238.71 257.18 240.78C259.87 243.47 245.62 263.45 231.6 276.65C220.27 287.32 208.04 295.17 196.25 299.32L187.5 302.41L160 302.68C138.87 302.88 130.99 302.61 126 301.5ZM2126.89 300.96C2112.14 300.16 2109 299.57 2109 297.56C2109 296.67 2112.38 295.72 2119.6 294.6C2139.25 291.54 2140.82 289.36 2142.9 262.42C2143.93 249.09 2144.85 191.7 2145.18 121.22L2145.37 80.94L2140.43 75.91C2133.61 68.95 2130.14 67.03 2122.28 65.88C2112.73 64.49 2110 63.27 2110 60.4C2110 58.68 2110.74 57.83 2112.75 57.27C2117.61 55.91 2210.12 56.33 2213.25 57.73C2219.72 60.61 2215.04 64.44 2203.27 65.91C2190.33 67.53 2184.94 71.12 2183.65 79C2182.77 84.37 2182.46 167.33 2183.32 168.71C2183.9 169.64 2196.49 169.92 2236.77 169.91C2283.64 169.89 2289.66 169.71 2291.23 168.29C2292.84 166.83 2292.99 164.33 2292.93 140.6C2292.89 126.24 2292.52 106.05 2292.11 95.73C2291.45 79.17 2291.12 76.63 2289.34 74.23C2286.06 69.79 2280.03 67.07 2270.95 65.93C2261.43 64.74 2259 63.72 2259 60.94C2259 56.83 2262.18 56.55 2308.5 56.52C2353.44 56.5 2361.67 56.97 2362.7 59.65C2363.85 62.66 2359.86 64.85 2351.27 65.92C2340.97 67.19 2335.63 69.77 2334.06 74.21C2331.75 80.76 2330.95 107.55 2330.73 186.29C2330.49 270.04 2330.77 276.84 2334.79 284.94C2337.34 290.06 2340.48 291.77 2351.41 293.95C2369.45 297.55 2366.03 299.63 2339.52 301.18C2321.82 302.21 2273.32 301.56 2264 300.17C2256.99 299.13 2258 296.75 2266.01 295.43C2269.59 294.84 2274.01 293.84 2275.83 293.21C2280.62 291.54 2291.99 282.91 2292.54 280.53C2292.8 279.41 2292.9 257.57 2292.76 232L2292.5 185.5L2238.06 185.24C2196.1 185.04 2183.46 185.26 2182.88 186.2C2181.83 187.89 2182.85 265.81 2184.03 274.79C2185.79 288.18 2188.89 291.14 2204.26 294.17C2215.82 296.45 2217.65 297.42 2213.42 299.03C2206.83 301.54 2157.78 302.63 2126.89 300.96ZM295.5 297.96C273.5 296.73 271.39 294.78 288.33 291.33C309.78 286.97 311.38 283.79 313.02 242C313.94 218.78 313.46 101.14 312.38 83.27C311.83 74.2 311.76 73.99 308.2 70.87C302.93 66.24 295.49 63.27 287.22 62.48C279.98 61.79 277 60.31 277 57.4C277 54.1 282.03 53.63 322 53.23C360.86 52.84 381.09 53.69 383.2 55.8C383.96 56.56 383.29 57.47 380.88 58.95C377.44 61.06 374.98 61.82 364.79 63.94C350.84 66.84 349.51 72.26 348.35 130.84C347.78 159.87 347.89 165.32 349.09 166.07C349.87 166.57 374.3 166.98 404.06 166.98C446.16 167 457.99 166.72 459.38 165.71C461.02 164.51 461.11 161.53 460.82 121.46C460.46 73.59 460.52 74.05 453.57 68.32C449.34 64.83 445.12 63.4 436.18 62.42C431.04 61.86 429.57 61.28 428.28 59.31C426.09 55.96 427.37 55.06 436.11 53.85C446.39 52.42 525.55 53.22 529.25 54.78C535.64 57.49 530.94 61.53 520.19 62.57C512.06 63.35 505.63 66.11 502.76 70.05C501.74 71.46 500.45 75.51 499.9 79.05C498.54 87.77 497.83 222.88 499 250C500.23 278.62 501.85 284.86 509 288.47C510.37 289.16 515.89 290.51 521.25 291.46C538.09 294.44 534.76 296.73 511.71 298.02C484.13 299.56 435.41 298.63 429.74 296.45C426.21 295.1 427.98 293.15 433.75 292.04C445.43 289.79 448.58 288.79 451.87 286.28C459.66 280.34 460.99 270.65 461 219.71L461 181.92L415.75 182.49C390.86 182.81 365.86 183.32 360.19 183.63L349.87 184.2L350.19 229.85L350.5 275.5L353 280.48C356.21 286.88 359.29 288.58 372.07 291.01C383.33 293.16 385.4 294.18 382.06 295.97C377.36 298.48 326.05 299.67 295.5 297.96ZM774.98 171.99C747.83 171.5 729.85 170.77 727.18 170.05C721.05 168.4 718.78 164.46 719.24 156.26C719.63 149.36 721.78 145.43 726.4 143.17C733.12 139.87 748.2 139.6 930 139.55C1172.22 139.48 1190.51 139.76 1195.69 143.6C1205.08 150.56 1205.21 161.43 1196 168.14C1194.3 169.38 1190.15 170.32 1183 171.08C1170.19 172.46 841.16 173.19 774.98 171.99ZM1630 166.03C1572.64 165.2 1566.65 164.81 1563.28 161.74C1557.18 156.16 1558.38 142.07 1565.34 137.51C1570.68 134.01 1582.58 133.76 1763.14 133.3C1951.28 132.83 2027.9 133.68 2034.21 136.31C2038.48 138.1 2041.66 142.02 2043.06 147.22C2043.98 150.66 2043.82 151.79 2041.81 155.82C2038.55 162.37 2035.44 163.81 2021.9 165.04C2007.67 166.34 1704.12 167.1 1630 166.03Z" fill="#1e2749" fill-rule="evenodd"/>
</svg>
