<?xml version="1.0" encoding="UTF-8"?>
<svg xmlns="http://www.w3.org/2000/svg" viewBox="0 0 384 235" width="384" height="235" shape-rendering="geometricPrecision">
<path d="M70.52 197.81C70.06 197.34 70 194.31 69.98 169.56C69.95 114.03 70.02 102.21 70.39 101.76C70.68 101.41 95.43 101.33 203.68 101.33C324.09 101.33 336.67 101.38 337.14 101.86C337.61 102.32 337.67 104.53 337.67 121.11C337.68 143.26 337.68 187.91 337.67 193.25C337.67 196.55 337.59 197.08 337 197.67C336.34 198.33 335.89 198.33 203.69 198.33C83.55 198.33 71 198.28 70.52 197.81ZM333.76 195.03L334.57 194.72L334.63 168.74C334.68 147.55 334.61 142.7 334.25 142.4C333.93 142.14 298.14 142.13 203.82 142.37C132.33 142.55 73.65 142.76 73.42 142.84C73.09 142.95 73 148.47 73 168.97C73 193.43 73.03 194.96 73.58 195.1C74.75 195.41 332.96 195.33 333.76 195.03ZM155.08 181.43C154.53 181.23 154.56 180.29 155.17 178.75C155.66 177.52 155.64 177.39 154.13 173.16C152.05 167.32 152.05 167.33 153.14 167.33C154.1 167.33 154.59 168.19 155.88 172.1C156.78 174.84 156.94 174.73 158.51 170.34C159.47 167.64 159.57 167.5 160.51 167.5C161.05 167.5 161.46 167.65 161.42 167.83C161.22 168.59 159.06 174.62 158.42 176.17C158.05 177.08 157.49 178.55 157.17 179.42C156.61 181 155.87 181.71 155.08 181.43ZM80.86 177.14C80.57 176.85 80.33 176.41 80.33 176.15C80.33 175.89 81.4 174.51 82.71 173.09C85.59 169.95 86.33 168.81 86.33 167.5C86.32 166.3 86.08 165.9 85.05 165.35C84.4 165.01 84 165.04 82.8 165.49C80.64 166.32 79.95 165.63 81.5 164.19C83.97 161.9 88.87 163.75 88.79 166.95C88.75 168.57 88.08 169.8 85.84 172.45C83.33 175.41 83.38 175.67 86.51 175.67C89.16 175.67 89.88 176.1 89 177.17C88.39 177.91 81.6 177.88 80.86 177.14ZM93.8 177.03C91.89 175.87 90.99 172.22 91.61 168.19C92.02 165.56 92.73 164.59 94.95 163.59C96.71 162.8 99.13 163 99.66 163.99C100.15 164.91 99.33 165.47 98.23 164.97C97.1 164.45 95.79 164.82 94.62 165.99C93.52 167.1 93.24 168.94 94.25 168.46C94.57 168.3 95.63 168.18 96.61 168.17C98.24 168.17 98.48 168.27 99.53 169.41C101.53 171.6 100.99 174.7 98.27 176.67C96.67 177.83 95.29 177.94 93.8 177.03ZM105.07 177.11C104.47 176.81 103.69 176.21 103.34 175.76C101.92 173.96 101.64 168.69 102.8 165.82C104.23 162.3 109.46 162.28 111.13 165.79C111.51 166.61 111.67 167.88 111.67 170.24C111.67 173.3 111.6 173.65 110.71 175.04C109.77 176.52 108.05 177.67 106.78 177.66C106.44 177.65 105.67 177.41 105.07 177.11ZM145.5 177.14C144.75 176.75 144.33 176.71 143.74 176.98C143.32 177.17 142.83 177.33 142.65 177.33C142.46 177.33 142.33 174.36 142.33 169.81L142.33 162.29L143.25 162.39C144.16 162.5 144.17 162.53 144.26 165.25C144.32 166.76 144.41 168 144.47 168C144.53 168 145.12 167.78 145.77 167.5C148.62 166.31 151.33 168.58 151.33 172.17C151.33 174.04 150.68 175.37 149.25 176.44C147.77 177.54 146.67 177.74 145.5 177.14ZM165.1 177.17C164 176.4 163.56 174.59 163.81 171.96C164.03 169.79 163.99 169.63 163.19 168.88C162.13 167.9 162.12 167.55 163.15 166.88C163.72 166.5 163.94 166.07 163.9 165.42C163.84 164.65 163.98 164.48 164.75 164.39C165.6 164.3 165.67 164.38 165.67 165.49C165.67 166.7 165.75 166.78 167.44 167.15C168.8 167.45 168.5 168.45 167 168.67C165.84 168.83 165.83 168.85 165.74 170.67C165.68 171.67 165.77 173.1 165.92 173.83C166.15 174.96 166.35 175.19 167.18 175.34C168.35 175.54 168.69 176.58 167.81 177.23C167.01 177.81 165.98 177.78 165.1 177.17ZM172.47 176.97C170.55 175.97 169.92 174.76 169.94 172.08C169.95 169.55 170.49 168.58 172.44 167.57C175.15 166.17 178.67 167.89 178.67 170.62C178.67 172.4 178.12 172.67 174.52 172.67C172.95 172.67 171.67 172.75 171.67 172.84C171.67 172.94 171.88 173.54 172.14 174.17C172.73 175.56 173.87 175.93 175.9 175.39C177.8 174.88 178.33 174.9 178.33 175.48C178.33 176.19 176.68 177.22 175.17 177.46C174.16 177.62 173.5 177.5 172.47 176.97ZM119.22 177.11C119.1 176.99 119 173.86 119 170.15C119 163.81 119.04 163.4 119.63 163.25C119.98 163.15 120.66 163.16 121.15 163.25C122.17 163.44 122.64 164.25 124.65 169.34C125.41 171.26 126.17 172.96 126.32 173.12C126.68 173.48 127.39 172.16 129.2 167.73C130.98 163.42 131.1 163.27 132.8 163.4L134.17 163.5L134.17 170.33L134.17 177.17L133.3 177.27C132.5 177.36 132.41 177.25 132.22 175.86C132.11 175.03 132.11 172.69 132.22 170.67C132.41 167.47 132.37 167 131.91 167C131.57 167 131.08 167.83 130.49 169.42C127.14 178.36 126.13 179.25 124.52 174.67C122.92 170.13 121.61 167 121.31 167C121.13 167 121 169.06 121 171.77C121 175.03 120.87 176.66 120.6 176.93C120.16 177.38 119.56 177.45 119.22 177.11ZM245 176.17C244.37 175.41 244.85 174.67 245.98 174.67C246.69 174.67 247.15 174.42 247.54 173.82C248.01 173.1 248.06 172.42 247.85 169.07C247.72 166.92 247.56 165.11 247.49 165.05C247.42 164.98 246.86 165.24 246.23 165.63C244.77 166.53 244.26 166.52 244.39 165.6C244.53 164.63 247.57 162.34 248.7 162.34C249.52 162.33 249.58 162.45 249.75 164.27C249.85 165.34 249.85 167.88 249.75 169.93C249.55 174.08 249.76 174.67 251.38 174.67C252.59 174.67 253.04 175.57 252.16 176.21C251.25 176.88 245.56 176.84 245 176.17ZM263.63 176.32C260.8 175.56 259.85 173.56 260.06 168.77C260.27 163.95 261.49 162.21 264.67 162.21C267.96 162.2 269.37 164.02 269.59 168.53C269.72 171.06 269.63 171.82 269.08 173.07C268.02 175.47 265.68 176.86 263.63 176.32ZM255.56 176.11C255.43 175.99 255.33 175.3 255.33 174.59C255.33 173.33 255.36 173.29 256.42 173.4C257.33 173.48 257.52 173.65 257.61 174.44C257.67 174.95 257.54 175.59 257.32 175.85C256.9 176.35 255.94 176.49 255.56 176.11ZM97.23 175.01C99.12 173.86 99.08 170.81 97.17 169.94C96.53 169.65 96.03 169.66 95 170C93.71 170.42 93.67 170.49 93.67 171.9C93.67 172.71 93.89 173.8 94.16 174.32C94.59 175.14 94.93 175.39 96 175.63C96.09 175.65 96.65 175.37 97.23 175.01ZM108.49 174.54C109.99 173.04 110.33 169.68 109.3 166.73C108.87 165.48 107.33 164.76 106.06 165.2C104.62 165.71 104.29 166.78 104.41 170.56C104.5 173.31 104.63 174.08 105.14 174.64C105.99 175.58 107.5 175.53 108.49 174.54ZM148.29 174.54C149.38 173.38 149.42 170.48 148.35 169.62C147.47 168.9 146.71 168.84 145.51 169.39C144.49 169.86 144.19 170.83 144.43 172.92C144.7 175.33 146.74 176.19 148.29 174.54ZM265.88 174.03C267.21 173.22 267.85 170.85 267.54 167.9C267.2 164.65 265.86 163.42 263.67 164.33C262.48 164.82 262 166.21 262 169.17C262 171.75 262.51 173.52 263.42 174.16C264.36 174.81 264.61 174.8 265.88 174.03ZM176.51 170.65C176.83 170.13 175.78 169.1 174.74 168.9C173.56 168.68 172 169.5 172 170.34C172 170.93 172.23 171 174.15 171C175.33 171 176.39 170.84 176.51 170.65ZM247.5 139.14C325.06 138.96 333.56 138.89 334.09 138.42C334.63 137.93 334.67 136.77 334.59 121.2L334.5 104.5L203.75 104.42L73 104.33L73 121.6C73 134.96 73.09 138.96 73.42 139.29C73.75 139.64 82.25 139.68 117.67 139.53C141.78 139.42 200.2 139.25 247.5 139.14ZM143.17 125.38C141.66 124.85 140.67 124.2 140.48 123.59C140.16 122.59 140.52 122.52 142.61 123.15C144.42 123.7 144.63 123.7 145.61 123.2C146.8 122.58 147.3 121.26 146.64 120.47C146.4 120.18 145.45 119.57 144.52 119.1C141.76 117.73 141 116.82 141 114.92C141 114.02 141.15 113.02 141.32 112.68C141.8 111.79 144.22 110.92 145.46 111.19C147.42 111.62 148.99 113.22 148.04 113.81C147.87 113.91 147.06 113.74 146.22 113.43C145 112.98 144.55 112.95 143.85 113.27C141.91 114.15 142.63 115.8 145.59 117.3C147.71 118.37 148.45 119.05 148.97 120.43C149.89 122.84 145.83 126.3 143.17 125.38ZM156.42 125.32C155.22 124.84 155.5 123.62 157.53 120.6C158.55 119.08 159.41 117.68 159.44 117.5C159.47 117.32 158.75 117.09 157.83 117C156.32 116.85 156.17 116.76 156.17 116C156.17 115.22 156.29 115.16 158.06 115.07C160.34 114.95 162.13 115.36 162.26 116.04C162.31 116.32 161.44 117.92 160.31 119.6C159.09 121.42 158.34 122.86 158.45 123.16C158.59 123.52 159.13 123.67 160.28 123.67C162.32 123.67 163.08 124.34 161.94 125.14C161.1 125.72 157.7 125.84 156.42 125.32ZM166.47 124.97C164.35 123.87 163.81 122.56 163.95 118.87C164.05 116.36 167.18 114.46 169.8 115.32C171.39 115.85 172.67 117.42 172.67 118.85C172.67 120.37 172 120.67 168.52 120.67C166.95 120.67 165.67 120.75 165.67 120.84C165.67 120.94 165.87 121.52 166.13 122.12C166.81 123.76 168.21 124.23 170.17 123.48C172.47 122.6 173.2 123.69 171.05 124.81C169.35 125.69 167.94 125.74 166.47 124.97ZM151.33 120.31L151.33 115.29L152.25 115.39L153.17 115.5L153.26 119.95C153.36 124.6 153.18 125.33 151.96 125.33C151.37 125.33 151.33 125 151.33 120.31ZM242.78 123.41C241.29 123.17 240.86 122.19 240.72 118.63C240.6 115.56 240.52 115.26 239.79 114.78C238.77 114.1 238.78 113.4 239.83 113C240.51 112.74 240.67 112.46 240.67 111.49C240.67 110.38 240.73 110.3 241.58 110.39C242.38 110.49 242.51 110.66 242.6 111.75C242.7 112.86 242.81 113 243.6 113.01C244.1 113.01 244.72 113.15 244.98 113.31C245.71 113.77 244.81 114.67 243.63 114.67L242.67 114.67L242.67 117.82C242.67 121.16 242.97 121.79 244.38 121.42C245.13 121.22 245.57 122.15 245.03 122.8C244.57 123.35 243.77 123.56 242.78 123.41ZM261.01 123.29C259.51 122.7 259 121.99 259 120.46C259 118.66 259.85 118 262.56 117.7C265.01 117.44 265.59 116.66 264.23 115.48C263.15 114.54 262.36 114.46 260.97 115.18C259.26 116.07 258.63 114.88 260.25 113.8C261.46 113 264.19 113 265.39 113.79C266.63 114.6 267 115.93 267 119.51C267 123.04 266.62 123.78 265.17 123C264.61 122.7 264.22 122.67 263.93 122.9C263.23 123.46 261.89 123.63 261.01 123.29ZM272.17 123.35C270.57 122.7 270.2 121.79 270.06 118.3C269.94 115.47 269.83 114.93 269.29 114.65C268.48 114.21 268.49 113.45 269.33 113C269.8 112.75 270 112.3 270 111.49C270 110.44 270.09 110.33 270.96 110.33C271.98 110.33 272.33 110.81 272.33 112.19C272.33 112.97 272.41 113 274.81 113C276.17 113 277.67 113.15 278.14 113.33L279 113.65L279 118.12C279 121.67 278.9 122.67 278.5 123C278.23 123.22 277.78 123.32 277.5 123.21C277.09 123.06 277 122.29 277 119.05C277 114.53 277.09 114.67 274.14 114.67L272.33 114.67L272.33 117.77C272.33 121.07 272.57 121.67 273.9 121.67C274.88 121.67 274.9 122.47 273.93 123.15C273.1 123.73 273.09 123.73 272.17 123.35ZM284.83 123.32C283.46 123.04 282.21 122.17 281.64 121.11C280.94 119.81 281.04 116.38 281.81 115.23C283.94 112.03 289.71 112.76 290.68 116.37C291.27 118.59 290.81 120.29 289.17 121.87C287.69 123.3 286.56 123.68 284.83 123.32ZM222.22 123.11C222.1 122.99 222 119.83 222 116.09L222 109.29L222.92 109.39C223.83 109.5 223.83 109.52 223.93 112.32C223.99 114.06 224.18 115.24 224.43 115.4C225.08 115.81 229.16 115.71 229.6 115.27C229.85 115.02 230 113.81 230 112.1L230 109.33L230.96 109.33C231.54 109.33 232.01 109.55 232.13 109.86C232.24 110.15 232.33 113.05 232.33 116.3C232.33 122.55 232.12 123.53 230.81 123.28C230.25 123.17 230.15 122.82 230.07 120.41L229.97 117.67L226.99 117.67L224 117.67L224 120.1C224 122.45 223.68 123.33 222.82 123.33C222.61 123.33 222.34 123.23 222.22 123.11ZM235.33 118.31L235.33 113.29L236.25 113.39L237.17 113.5L237.26 117.95C237.36 122.6 237.18 123.33 235.96 123.33C235.37 123.33 235.33 123 235.33 118.31ZM252.56 123.11C252.43 122.99 252.33 120.74 252.33 118.11C252.33 113.35 252.34 113.33 253.1 113.33C253.52 113.33 254.05 113.51 254.27 113.73C254.58 114.04 254.76 114.04 255.07 113.73C255.56 113.24 257.88 113.2 258.18 113.68C258.49 114.19 257.69 115 256.87 115C256.47 115 255.81 115.23 255.41 115.52C254.74 115.99 254.67 116.32 254.67 119.04C254.67 120.69 254.51 122.33 254.32 122.69C253.98 123.32 253 123.55 252.56 123.11ZM263.68 121.33C265.69 120.3 265.43 119.67 263 119.67C261.1 119.67 261 119.71 261 120.48C261 120.93 261.26 121.45 261.58 121.64C262.33 122.08 262.16 122.1 263.68 121.33ZM287.6 120.91C289.21 119.58 289.3 116.88 287.78 115.68C286.51 114.69 284.4 114.91 283.59 116.13C283.22 116.69 283.29 119.62 283.69 120.37C284.35 121.61 286.42 121.9 287.6 120.91ZM170.56 118.45C170.8 117.84 169.97 117.09 168.7 116.77C167.69 116.52 166.2 117.39 166.06 118.31C165.96 118.95 166.12 119 168.15 119C169.89 119 170.4 118.88 170.56 118.45ZM151.17 112.67C150.88 111.77 151.21 111.33 152.2 111.33C153.16 111.33 153.58 112.13 153 112.84C152.41 113.54 151.42 113.45 151.17 112.67ZM235.17 110.67C234.88 109.77 235.21 109.33 236.2 109.33C237.16 109.33 237.58 110.13 237 110.84C236.41 111.54 235.42 111.45 235.17 110.67ZM277 110.33C277 109.49 277.13 109.33 277.84 109.33C278.31 109.33 278.77 109.56 278.88 109.84C279.13 110.49 278.43 111.33 277.63 111.33C277.15 111.33 277 111.09 277 110.33ZM183.98 72C183.98 71.82 183.96 68.7 183.95 65.08L183.94 58.5L184.8 58.39L185.67 58.29L185.67 61.39C185.68 65.14 185.83 65.8 186.82 66.32C187.44 66.66 187.77 66.63 188.61 66.2C190.09 65.43 190.33 64.75 190.33 61.33L190.33 58.29L191.25 58.39L192.17 58.5L192.25 62.17C192.34 65.69 192.38 65.86 193.23 66.56C193.98 67.18 194.05 67.37 193.69 67.81C193.11 68.5 191.71 68.48 190.92 67.76C190.32 67.21 190.23 67.21 189.28 67.76C188.73 68.07 187.69 68.33 186.97 68.33L185.67 68.33L185.67 69.93C185.67 70.81 185.49 71.71 185.27 71.93C184.78 72.42 184.01 72.46 183.98 72ZM245.11 71.82C245 71.53 245.18 70.71 245.5 70C245.82 69.29 246.01 68.36 245.91 67.93C245.69 66.98 244.15 62.86 243.49 61.44C243.22 60.86 242.9 59.92 242.79 59.36C242.6 58.42 242.66 58.33 243.45 58.33C244.45 58.33 244.86 58.99 245.98 62.41C247.11 65.85 247.26 65.8 248.83 61.34C249.73 58.78 249.92 58.49 250.75 58.39C251.38 58.32 251.67 58.44 251.67 58.77C251.67 59.04 250.77 61.64 249.67 64.55C248.57 67.45 247.67 70 247.67 70.21C247.67 70.81 246.33 72.33 245.8 72.33C245.53 72.33 245.22 72.1 245.11 71.82ZM222.81 70.88C222.66 70.5 223.82 66.97 225.5 62.67C225.75 62.02 226.69 59.48 227.59 57C229.19 52.59 229.82 51.69 230.7 52.57C230.96 52.83 230 56.25 229.02 58.5C228.68 59.3 225.89 67.03 225.36 68.65C224.62 70.94 223.28 72.11 222.81 70.88ZM63.5 68.27C61.38 67.68 60.33 66 60.33 63.17C60.33 59.91 61.85 58.21 64.74 58.21C65.95 58.21 66.52 58.39 67.17 59C67.86 59.65 67.93 59.88 67.59 60.22C67.25 60.56 66.89 60.57 65.93 60.28C64.42 59.81 62.83 60.36 62.54 61.44C62.25 62.52 62.29 64.19 62.64 65.09C63.06 66.19 64.6 66.8 65.79 66.35C67.93 65.53 68.81 66.39 67.08 67.6C65.93 68.4 64.78 68.62 63.5 68.27ZM72.87 68.29C71.73 67.99 70.76 67.15 70.13 65.93C69.54 64.79 69.53 61.97 70.12 60.56C71.14 58.12 74.53 57.33 76.64 59.04C77.35 59.62 77.39 59.75 76.95 60.2C76.55 60.6 76.26 60.62 75.48 60.32C74.22 59.85 72.43 60.19 72 60.99C71.82 61.34 71.67 62.37 71.67 63.27C71.67 66.1 72.79 66.84 76.08 66.17C77.1 65.96 77.33 66.01 77.33 66.43C77.33 67.07 75.81 68.18 74.66 68.39C74.2 68.48 73.4 68.43 72.87 68.29ZM81.33 67.93C79.29 66.89 78.58 65.47 78.77 62.82C78.95 60.33 79.43 59.51 81.26 58.62C83.5 57.53 86.12 58.3 87.18 60.37C88.42 62.75 87.38 63.67 83.43 63.67C81 63.67 80.67 63.74 80.67 64.26C80.67 65.16 81.52 66.19 82.65 66.66C83.49 67.01 83.88 66.99 84.98 66.54C86.25 66.04 87.33 66.1 87.33 66.67C87.33 67.09 85.12 68.28 83.93 68.5C83.15 68.64 82.4 68.48 81.33 67.93ZM91.17 68.44C90.19 68.18 89.67 67.67 89.67 66.96C89.67 66.23 90.04 66.18 91.53 66.72C92.43 67.05 92.75 67.02 93.47 66.55C94.75 65.71 94.57 64.87 92.95 64.15C90.54 63.06 90 62.46 90 60.85C90 59.65 90.15 59.31 90.92 58.79C92.18 57.94 94.91 57.98 95.56 58.85C96.22 59.77 95.3 60.46 94.13 59.92C93.08 59.44 91.67 60.05 91.67 60.99C91.67 61.49 92.21 61.91 93.83 62.64C97.12 64.13 97.37 65.71 94.65 67.73C93.75 68.39 92.19 68.71 91.17 68.44ZM99.53 68.32C98.53 68.02 98.01 67.49 98.01 66.75C98 66.24 99.03 66.21 100.1 66.7C100.74 66.99 101.14 66.95 101.97 66.51C103.46 65.74 103.19 65.01 101.02 63.95C98.9 62.92 98.33 62.26 98.33 60.83C98.33 58.96 100.61 57.66 102.81 58.27C103.98 58.59 104.65 59.48 104.13 60.01C103.87 60.26 103.52 60.25 102.91 59.97C101.62 59.39 100.33 59.82 100.33 60.84C100.33 61.53 100.66 61.82 102.16 62.51C105.25 63.92 105.78 65.79 103.58 67.45C102.29 68.42 100.86 68.72 99.53 68.32ZM114.42 68.41C112.97 68.17 112.33 66.69 112.33 63.56C112.33 60.43 112.16 59.67 111.45 59.67C110.56 59.67 110.56 58.68 111.46 57.97C112.05 57.5 112.33 56.97 112.33 56.29C112.33 55.39 112.43 55.3 113.25 55.39C114.04 55.49 114.18 55.67 114.27 56.72L114.37 57.94L117.3 58.05C121.36 58.21 121.33 58.17 121.33 63.14C121.33 67.47 121.02 68.51 119.81 68.28C119.23 68.17 119.15 67.78 119 64L118.83 59.83L116.58 59.73L114.33 59.64L114.33 62.81C114.33 65.6 114.41 66.02 114.98 66.32C115.33 66.51 115.93 66.67 116.31 66.67C117.07 66.67 117.23 67.4 116.58 67.91C115.97 68.38 115.26 68.55 114.42 68.41ZM144.5 68.38C141.71 67.41 141 66.31 141 62.99C141 60.66 141.04 60.54 142.18 59.47C142.82 58.86 143.86 58.26 144.49 58.15C146.98 57.68 149.67 59.6 149.67 61.85C149.67 63.37 149 63.67 145.52 63.67C143.95 63.67 142.67 63.76 142.67 63.87C142.67 64.65 143.88 66.34 144.67 66.67C145.47 67 145.9 66.97 147.17 66.48C149.46 65.61 150.21 66.7 148.06 67.8C146.86 68.41 145.32 68.66 144.5 68.38ZM174.42 68.34C173.12 68.03 172.33 67.43 172.33 66.75C172.33 66.35 172.66 66.3 174.13 66.48C177.06 66.85 179 65.69 179 63.57C179 62.25 178.02 61.67 175.79 61.67C174.69 61.67 173.62 61.49 173.4 61.27C173.14 61.01 173 59.7 173 57.61C173 54.41 173.02 54.34 173.83 54.14C175.12 53.81 179.6 54.13 180.04 54.58C180.35 54.88 180.34 55.09 180.01 55.49C179.7 55.86 178.93 56 177.11 56L174.63 56L174.73 57.92L174.83 59.83L176.88 60C179.09 60.18 180.01 60.74 180.89 62.44C182.43 65.41 178.21 69.26 174.42 68.34ZM196.83 68.43C195.86 68.18 195.33 67.67 195.33 66.96C195.33 66.25 195.93 66.16 197.1 66.7C197.74 66.99 198.14 66.95 198.97 66.51C200.45 65.75 200.18 65.03 198 63.94C195.87 62.88 195.33 62.25 195.33 60.83C195.33 58.96 197.61 57.66 199.81 58.27C200.98 58.59 201.65 59.48 201.13 60.01C200.87 60.26 200.52 60.25 199.91 59.97C198.62 59.39 197.33 59.82 197.33 60.84C197.33 61.53 197.66 61.82 199.16 62.51C202.25 63.92 202.78 65.79 200.58 67.45C199.43 68.31 197.93 68.7 196.83 68.43ZM206.33 67.93C204.29 66.89 203.58 65.47 203.77 62.82C203.95 60.33 204.43 59.51 206.26 58.62C208.5 57.53 211.12 58.3 212.18 60.37C213.42 62.75 212.38 63.67 208.43 63.67C206 63.67 205.67 63.74 205.67 64.26C205.67 65.16 206.52 66.19 207.65 66.66C208.49 67.01 208.88 66.99 209.98 66.54C211.25 66.04 212.33 66.1 212.33 66.67C212.33 67.09 210.12 68.28 208.93 68.5C208.15 68.64 207.4 68.48 206.33 67.93ZM217.5 68.27C215.43 67.7 214.33 65.99 214.33 63.34C214.33 59.97 215.85 58.21 218.74 58.21C219.95 58.21 220.52 58.39 221.17 59C221.86 59.65 221.93 59.88 221.59 60.22C221.25 60.56 220.89 60.57 219.93 60.28C218.42 59.81 216.83 60.36 216.54 61.44C216.25 62.52 216.29 64.19 216.64 65.09C217.06 66.19 218.6 66.8 219.79 66.35C221.93 65.53 222.81 66.39 221.08 67.6C219.93 68.4 218.78 68.62 217.5 68.27ZM236.65 68.42C236.39 68.34 235.83 68.12 235.42 67.92C234.87 67.65 234.44 67.66 233.79 67.96C233.28 68.19 232.77 68.24 232.61 68.08C232.45 67.92 232.36 64.57 232.41 60.64L232.5 53.5L233.3 53.39C234.41 53.23 234.66 53.81 234.66 56.58C234.66 57.91 234.72 59 234.78 59C234.85 59 235.36 58.77 235.93 58.48C238.14 57.38 240.97 59.19 241.5 62.03C242.09 65.2 239.14 69.08 236.65 68.42ZM256.17 68.35C254.58 67.7 254.2 66.79 254.06 63.32C253.93 60.29 253.86 59.98 253.13 59.51C252.14 58.86 252.13 58.58 253.08 58.16C253.63 57.92 253.86 57.5 253.94 56.58C254.03 55.46 254.13 55.33 254.98 55.33C255.98 55.33 256.33 55.82 256.33 57.19C256.33 57.81 256.51 58 257.08 58.01C258.15 58.01 258.8 58.51 258.56 59.13C258.43 59.46 257.96 59.67 257.34 59.67L256.33 59.67L256.33 62.77C256.33 66.07 256.57 66.67 257.9 66.67C258.88 66.67 258.9 67.47 257.93 68.15C257.1 68.73 257.09 68.73 256.17 68.35ZM263.83 68.39C261.58 67.64 260.85 66.84 260.16 64.38C259.41 61.76 261.35 58.61 263.98 58.17C265.95 57.84 268.04 58.91 268.83 60.66C269.87 62.96 268.93 63.67 264.81 63.67C262.4 63.67 262.33 63.69 262.33 64.49C262.33 66.22 264.65 67.37 266.35 66.49C267.42 65.94 268.79 66.12 268.57 66.78C268.24 67.77 265.14 68.82 263.83 68.39ZM47.33 67.6C47.33 66.84 49.7 60.16 51.55 55.67C52.04 54.49 52.23 54.33 53.21 54.33C54.18 54.33 54.39 54.49 54.85 55.58C55.42 56.92 56.78 60.65 57.51 62.83C57.76 63.57 58.25 64.95 58.61 65.9C59.16 67.35 59.19 67.7 58.82 68.01C57.99 68.7 57.28 68.2 56.7 66.5L56.12 64.83L53.09 64.74L50.06 64.64L49.83 65.74C49.51 67.28 48.76 68.33 47.99 68.33C47.53 68.33 47.33 68.11 47.33 67.6ZM124.22 68.11C124.1 67.99 124 65.74 124 63.11C124 58.73 124.05 58.33 124.6 58.33C124.93 58.33 125.37 58.5 125.58 58.71C125.87 59 126.26 58.95 127.16 58.53C128.41 57.93 129.1 58.01 130.89 58.92C131.87 59.41 132 59.41 132.86 58.85C134.18 57.98 136.17 58.06 137.18 59.01C138.25 60.02 138.66 61.59 138.66 64.69C138.67 67.42 138.22 68.49 137.14 68.28C136.56 68.17 136.49 67.81 136.4 64.68C136.28 60.14 135.66 59.3 133.32 60.51C132.34 61.01 132.33 61.03 132.33 64.03C132.33 67.29 132.01 68.33 130.99 68.33C130.39 68.33 130.33 68.09 130.33 65.75C130.32 62.04 130.06 60.81 129.17 60.33C128.34 59.89 127.28 60.11 126.5 60.88C126.13 61.25 126 62.16 126 64.46C126 67.45 125.73 68.33 124.82 68.33C124.61 68.33 124.34 68.23 124.22 68.11ZM238.36 65.69C240.41 63.64 239.14 59.62 236.59 60.13C234.94 60.46 234.67 60.88 234.67 63.12C234.68 65.43 234.85 65.83 236.01 66.3C237.22 66.78 237.29 66.76 238.36 65.69ZM156.57 64.79C156.04 64.26 156.37 63.34 157.15 63.14C158.26 62.86 164.88 63.1 165.21 63.43C165.36 63.58 165.32 63.95 165.12 64.27C164.82 64.74 164.1 64.85 160.78 64.93C158.59 64.98 156.69 64.92 156.57 64.79ZM54.93 62.17C55.04 61.34 53.61 57.59 53.12 57.43C52.78 57.31 51.93 59.2 51.48 61.08C51.1 62.66 51.47 63.05 53.25 62.94C54.54 62.85 54.85 62.71 54.93 62.17ZM85.53 61.61C85.87 61.08 84.15 59.67 83.17 59.67C82.18 59.67 80.47 61.08 80.8 61.61C80.94 61.84 81.91 62 83.17 62C84.42 62 85.39 61.84 85.53 61.61ZM147.56 61.45C147.8 60.84 146.97 60.09 145.7 59.77C144.69 59.52 143.2 60.39 143.06 61.31C142.96 61.95 143.12 62 145.15 62C146.89 62 147.4 61.88 147.56 61.45ZM210.53 61.61C210.87 61.08 209.15 59.67 208.17 59.67C207.18 59.67 205.47 61.08 205.8 61.61C206.12 62.13 210.21 62.13 210.53 61.61ZM266.9 61.45C267.13 60.84 266.3 60.09 265.04 59.77C264.03 59.52 262.54 60.39 262.39 61.31C262.29 61.95 262.45 62 264.49 62C266.22 62 266.73 61.88 266.9 61.45ZM156.92 60.45C156.57 60.35 156.33 59.96 156.33 59.48L156.33 58.67L160.68 58.67C164.31 58.67 165.05 58.75 165.22 59.19C165.61 60.2 164.72 60.5 161.07 60.56C159.11 60.59 157.24 60.54 156.92 60.45ZM119.22 56.11C119.1 55.99 119 55.54 119 55.11C119 54.47 119.17 54.33 120.01 54.33C121.15 54.33 121.63 55.07 121 55.84C120.57 56.35 119.61 56.5 119.22 56.11ZM46.16 40.58C46.06 40.17 46.02 37.06 46.07 33.67L46.17 27.5L47.47 27.39C48.28 27.33 48.87 27.45 49.04 27.73C49.2 27.97 49.33 30.59 49.33 33.55C49.33 39.6 49.21 39.33 51.99 39.33C53.17 39.33 53.65 39.48 53.8 39.88C54.24 41.03 53.4 41.33 49.8 41.33C46.5 41.33 46.34 41.3 46.16 40.58ZM56.5 40.65C54.49 39.38 53.82 36.33 54.98 33.77C55.77 32.03 57.05 31.33 59.49 31.33C61.12 31.33 61.49 31.47 62.53 32.42C63.41 33.23 63.76 33.86 63.9 34.91C64.18 37.05 63.77 37.33 60.44 37.33C57.74 37.33 57.62 37.36 57.73 38.06C57.89 39.16 59.37 39.51 61.27 38.88C62.61 38.44 62.9 38.43 63.3 38.83C63.7 39.22 63.7 39.39 63.33 39.84C62.03 41.4 58.37 41.84 56.5 40.65ZM67.99 40.64C67.4 39.55 65 32.56 65 31.95C65 31.27 65.81 30.94 66.84 31.2C67.6 31.39 67.97 32.09 69 35.33C69.7 37.5 69.67 37.46 70.09 37.05C70.3 36.83 70.86 35.49 71.32 34.08C72.09 31.73 72.25 31.49 73.11 31.39C75.06 31.17 75.07 31.32 73.47 36.05C72.65 38.47 71.81 40.66 71.61 40.9C71.41 41.14 70.6 41.33 69.8 41.33C68.68 41.33 68.27 41.18 67.99 40.64ZM77.5 40.65C75.49 39.38 74.82 36.33 75.98 33.77C76.77 32.03 78.05 31.33 80.49 31.33C82.12 31.33 82.49 31.47 83.53 32.42C84.41 33.23 84.76 33.86 84.9 34.91C85.18 37.05 84.77 37.33 81.44 37.33C78.74 37.33 78.62 37.36 78.73 38.06C78.89 39.16 80.37 39.51 82.27 38.88C83.61 38.44 83.9 38.43 84.3 38.83C84.7 39.22 84.7 39.39 84.33 39.84C83.03 41.4 79.37 41.84 77.5 40.65ZM86.89 41.11C86.77 40.99 86.67 37.61 86.67 33.61L86.67 26.33L87.96 26.33C88.84 26.33 89.33 26.5 89.46 26.86C89.82 27.78 89.69 40 89.32 40.69C88.98 41.32 87.38 41.6 86.89 41.11ZM97.75 40.67C97.1 40.28 96.67 39.74 96.67 39.34C96.67 38.57 97.22 38.5 99.09 39.02C100.52 39.42 101.79 38.97 102.56 37.8C103.29 36.68 102.27 35.73 100 35.42C98.32 35.18 98.16 35.08 98.06 34.25C97.96 33.41 98.05 33.33 99.07 33.33C101 33.33 102.7 31.63 102.02 30.37C101.54 29.48 100.25 29.25 98.69 29.79C97.2 30.3 97 30.22 97 29.12C97 28.6 97.33 28.18 97.98 27.84C99.13 27.25 102.39 27.17 103.44 27.71C105.47 28.74 105.95 31.15 104.45 32.72L103.57 33.64L104.82 35.03C105.9 36.23 106.05 36.57 105.89 37.57C105.66 38.96 105.24 39.51 103.59 40.55C101.98 41.57 99.31 41.62 97.75 40.67ZM60.6 34.93C61.17 34.37 61.1 34.08 60.31 33.66C59.36 33.15 57.67 33.56 57.67 34.3C57.67 34.63 57.77 34.99 57.89 35.11C58.26 35.48 60.17 35.36 60.6 34.93ZM81.6 34.93C82.17 34.37 82.1 34.08 81.31 33.66C80.36 33.15 78.67 33.56 78.67 34.3C78.67 34.63 78.77 34.99 78.89 35.11C79.26 35.48 81.17 35.36 81.6 34.93Z" fill="#1e2749" fill-rule="evenodd"/>
</svg>
