<?xml version="1.0" encoding="UTF-8"?>
<svg xmlns="http://www.w3.org/2000/svg" viewBox="0 0 2430 2089" width="2430" height="2089" shape-rendering="geometricPrecision">
<path d="M818.5 2011.6C804.2 2003.21 776.52 1986.89 757 1975.33C706.96 1945.72 541.99 1847.64 528.5 1839.49C524.65 1837.17 496.75 1820.53 466.5 1802.51C348.19 1732.07 145.01 1610.28 134.23 1603.34C129.07 1600.02 125.59 1597.05 124.98 1595.44C121.67 1586.74 121.5 1563.4 121.5 1112C121.5 664.04 121.7 635.15 124.87 626.86C125.52 625.15 140.4 615.76 179.13 592.6C234.34 559.61 275.44 535.11 294.5 523.83C300.55 520.25 316.52 510.79 330 502.8C377.15 474.84 431.57 442.64 440 437.69C444.68 434.95 457.73 427.23 469 420.53C480.27 413.84 496.25 404.38 504.5 399.52C512.75 394.66 524.23 387.89 530 384.46C535.77 381.04 551.75 371.6 565.5 363.48C579.25 355.36 601.3 342.32 614.5 334.51C627.7 326.69 648.62 314.31 661 307C673.38 299.68 688.23 290.9 694 287.48C699.77 284.06 716.88 273.93 732 264.98C747.12 256.03 777.5 237.95 799.5 224.79C821.5 211.64 840.85 200.65 842.5 200.37C845.04 199.95 851.71 203.5 886 223.56C935.4 252.45 1039.8 313.8 1088 342.28C1107.53 353.81 1134.97 370.01 1149 378.27C1163.03 386.53 1181.47 397.43 1190 402.48C1198.53 407.54 1215.62 417.65 1228 424.96C1240.38 432.27 1255.22 441.06 1261 444.49C1278.62 454.97 1359.47 502.74 1377 513.02C1386.08 518.35 1396.88 524.73 1401 527.21C1405.12 529.68 1418.62 537.68 1431 544.97C1443.38 552.27 1463.17 563.98 1475 570.99C1486.83 578 1505.5 589.03 1516.5 595.51C1527.5 601.99 1539.8 609.26 1543.83 611.67C1547.86 614.08 1551.5 616.15 1551.92 616.28C1552.34 616.4 1594.04 575.77 1644.59 525.98C1759.7 412.61 1783.99 388.85 1806.96 367.14L1825.34 349.78L1829.88 350.29C1833.57 350.71 1835.14 351.56 1838.21 354.86C1845.05 362.19 1845.49 361.46 1815.75 392.19C1801.31 407.11 1740.16 468.41 1679.86 528.41L1570.22 637.5L1569.6 1053.5C1569.01 1455.03 1568.42 1582.51 1567.1 1591.97L1566.48 1596.45L1554.49 1603.83C1538.86 1613.46 1303.09 1754.85 1229 1799.03C1197.38 1817.89 1164.97 1837.22 1157 1841.99C1149.03 1846.77 1129.22 1858.57 1113 1868.22C1096.78 1877.88 1058.75 1900.51 1028.5 1918.51C998.25 1936.52 969.9 1953.36 965.5 1955.94C961.1 1958.52 943.55 1968.9 926.5 1979C887.12 2002.34 859.3 2018.63 851 2023.24L844.5 2026.85L818.5 2011.6ZM889.72 1969.66C941.73 1939.07 997.77 1905.95 1027 1888.52C1038.28 1881.8 1061 1868.29 1077.5 1858.5C1151.96 1814.33 1252.34 1754.64 1267.5 1745.53C1274.1 1741.56 1293 1730.31 1309.5 1720.51C1326 1710.72 1349.85 1696.53 1362.5 1688.98C1410.81 1660.15 1476.66 1620.97 1505 1604.21C1521.22 1594.6 1535.96 1585.66 1537.75 1584.32L1541 1581.9L1541 1111.5L1541 641.1L1537.75 638.68C1535.96 637.35 1525.05 630.73 1513.5 623.97C1501.95 617.21 1475.4 601.57 1454.5 589.21C1397.9 555.73 1377.52 543.69 1334 517.99C1312.28 505.17 1278.53 485.23 1259 473.7C1239.47 462.17 1210.9 445.3 1195.5 436.21C1180.1 427.13 1155.35 412.5 1140.5 403.71C1125.65 394.91 1108.1 384.55 1101.5 380.69C1094.9 376.82 1085.22 371.08 1080 367.94C1074.78 364.8 1051.6 351.09 1028.5 337.49C1005.4 323.88 981.77 309.96 976 306.55C970.23 303.13 958.75 296.37 950.5 291.51C942.25 286.66 927.4 277.87 917.5 271.99C863.94 240.17 847.47 230.62 845.45 230.24C843.3 229.82 832.37 236.04 768.5 274.01C758.6 279.89 743.75 288.67 735.5 293.52C727.25 298.36 710.83 308.05 699 315.05C672.59 330.67 606.53 369.7 583.5 383.28C564.55 394.45 533.45 412.84 501 432.04C489.18 439.03 463.3 454.34 443.5 466.06C423.7 477.78 403.68 489.58 399 492.29C394.32 494.99 382.4 502.04 372.5 507.94C362.6 513.84 346.85 523.18 337.5 528.69C287.55 558.13 261.58 573.46 234.5 589.49C171.61 626.71 165.29 630.45 157.75 634.79L150 639.27L150 1111.38L150.01 1583.5L171.75 1596.44C183.71 1603.55 202.28 1614.63 213 1621.06C223.72 1627.49 252.75 1644.77 277.5 1659.48C302.25 1674.18 330.6 1691.04 340.5 1696.96C350.4 1702.87 369.3 1714.13 382.5 1721.98C395.7 1729.83 414.6 1741.08 424.5 1746.99C434.4 1752.9 460.5 1768.42 482.5 1781.49C504.5 1794.57 530.6 1810.08 540.5 1815.98C550.4 1821.88 567.5 1832.02 578.5 1838.53C589.5 1845.04 606.15 1854.94 615.5 1860.54C637.23 1873.54 692.92 1906.62 731.5 1929.43C774.47 1954.84 814.92 1978.82 835 1990.79C839.67 1993.58 843.83 1995.89 844.22 1995.93C844.62 1995.97 865.1 1984.15 889.72 1969.66ZM839.5 1898.66C829.67 1893.38 813.71 1884.23 796.5 1874.02C708.6 1821.89 663.69 1795.07 574.5 1741.46C468.07 1677.49 422.48 1650 375.5 1621.49C361.2 1612.81 344.55 1602.71 338.5 1599.04C268.18 1556.42 235.75 1535.88 234.12 1532.93C232.27 1529.6 233.21 1525.97 237.06 1521.59C240.64 1517.5 244.88 1516.3 249.32 1518.11C260.34 1522.61 540.27 1689.9 764.5 1825.98C788.91 1840.8 809.48 1853.37 831.5 1866.95C862.87 1886.28 862.38 1885.85 859.66 1892.18C857.74 1896.64 851.68 1903 849.37 1902.98C848.34 1902.97 843.9 1901.03 839.5 1898.66ZM1428.5 1551.05C1425.44 1549.78 1422.06 1545.7 1420.95 1541.91C1418.88 1534.91 1417.87 1338.17 1418.3 1024C1418.73 701.43 1418.9 687.97 1422.49 681.03C1424.29 677.53 1428.66 675 1432.87 675C1435.96 675 1441.22 678.68 1443.06 682.12C1445.23 686.18 1446.03 809.69 1446.02 1142C1446.02 1474.76 1445.6 1528.79 1442.94 1540C1441.72 1545.18 1438.87 1548.67 1434.28 1550.63C1432.51 1551.38 1430.94 1551.97 1430.78 1551.94C1430.63 1551.9 1429.6 1551.5 1428.5 1551.05ZM223.45 714.59C221.77 713.86 219.16 711.79 217.65 710C215.37 707.29 214.95 705.94 215.2 702.11L215.5 697.5L225 691.22C230.22 687.77 243.72 679.25 255 672.3C266.27 665.35 279.1 657.43 283.5 654.71C326.05 628.38 531.97 504.73 673.5 420.52C692.75 409.06 719.98 392.85 734 384.49C833.92 324.94 873.01 303 879.23 303C880.92 303 882.87 304.23 884.96 306.61C892.32 314.99 891.24 318.96 879.57 326.47C875.13 329.32 861.6 337.66 849.5 344.99C837.4 352.33 814.9 365.96 799.5 375.3C749.15 405.82 567.25 514.8 426.5 598.79C412.2 607.32 391.73 619.55 381 625.96C370.27 632.38 352.73 642.83 342 649.19C331.27 655.55 313.05 666.37 301.5 673.22C265.14 694.81 230.58 714.75 228.5 715.34C227.4 715.65 225.13 715.31 223.45 714.59ZM2335.84 376.24C2330.19 370.46 2320.55 359.26 2294.64 328.37C2285.62 317.61 2252.13 276.93 2237.5 258.97C2232 252.22 2218.95 236.28 2208.5 223.54C2198.05 210.81 2184.55 194.26 2178.5 186.76C2172.45 179.26 2167.13 173.09 2166.68 173.06C2165.37 172.96 2166.55 343.44 2167.91 350.35C2170.36 362.79 2173.76 366.01 2186.54 367.96C2196.72 369.51 2203 371.08 2203 372.06C2203 374.27 2197.38 375.19 2177.69 376.2C2162.11 376.99 2150.87 376.98 2135.48 376.14C2112.47 374.89 2109 374.41 2109 372.45C2109 370.86 2109.87 370.57 2122.25 368.09C2127.79 366.98 2133.25 365.24 2134.91 364.06C2138.69 361.37 2141.63 355.14 2142.98 347C2144.53 337.55 2145.79 289.91 2146.49 213.39L2147.11 146.28L2138.65 138.39C2127.12 127.63 2121.86 124.69 2107.53 121.04C2087.95 116.04 2087.98 113.3 2107.63 111.95C2123.31 110.88 2166.08 110.75 2167.6 111.77C2168.2 112.17 2172.04 116.55 2176.12 121.5C2184.87 132.11 2221.4 176.88 2224.98 181.38C2228.12 185.34 2278.46 247.16 2286.14 256.5C2289.31 260.35 2298.95 272.19 2307.58 282.82C2317.75 295.35 2323.6 301.8 2324.23 301.17C2324.84 300.56 2325.26 270.6 2325.35 220.35C2325.51 135.94 2325.41 133.91 2320.9 126.42C2318.51 122.45 2315.68 121.23 2303.56 118.92C2293.25 116.95 2290.37 115.62 2292.96 114.02C2298.85 110.38 2379.13 110.79 2382.82 114.48C2384.17 115.83 2380.53 117.24 2370.09 119.39C2363.7 120.71 2357.74 122.55 2356.26 123.66C2353.01 126.08 2350.48 133.33 2349.1 144.2C2347.68 155.32 2346.11 221.72 2345.19 309.23C2344.71 355.26 2344.08 381.32 2343.43 381.97C2342.75 382.65 2340.28 380.78 2335.84 376.24ZM1948.5 379.6C1923.38 375.98 1905.86 367 1886.95 348.06C1873.46 334.55 1865.09 321.72 1857.49 302.92C1849.19 282.37 1846.38 265.04 1847.31 240.04C1848.18 216.56 1852.66 198.59 1862.61 178.69C1877.52 148.89 1900.56 127.93 1934.17 113.63C1950.54 106.67 1970.47 103.9 1989.5 105.95C2003.75 107.49 2010.04 108.97 2030.16 115.55C2039.32 118.55 2048.38 121 2050.29 121C2053.04 121 2054.64 120.12 2057.96 116.8C2060.27 114.49 2063.05 110.86 2064.13 108.74C2065.78 105.51 2066.54 104.93 2068.8 105.19C2073.44 105.72 2073.91 108.48 2078.02 158.65C2080.46 188.45 2080.51 193.33 2078.41 195.08C2076.21 196.9 2074.88 194.98 2064.98 175.75C2060.52 167.08 2054.23 156.44 2051.01 152.1C2034 129.16 2009.23 119.12 1976.69 121.99C1962.85 123.21 1952.98 125.86 1942.17 131.25C1921.83 141.4 1906.92 162.9 1899.01 193.5C1895.02 208.93 1894.02 216.82 1893.32 238.04C1892.09 275.7 1897.42 300.76 1911.51 323.52C1921.09 339 1938.05 352.65 1955.38 358.83C1961.74 361.1 1964.41 361.42 1980.33 361.8C2024.14 362.85 2041.4 355.56 2066 325.63C2075.72 313.81 2080.95 309.55 2083.11 311.71C2088.97 317.57 2064.51 347.53 2039.5 365.11C2032.28 370.19 2019.71 376.21 2011.5 378.53C2003.44 380.8 1961.75 381.51 1948.5 379.6Z" fill="#1e2749" fill-rule="evenodd"/>
</svg>
