<?xml version="1.0" encoding="UTF-8"?>
<svg xmlns="http://www.w3.org/2000/svg" viewBox="0 0 2430 999" width="2430" height="999" shape-rendering="geometricPrecision">
<path d="M446 965.12C441.32 962.46 427.15 954.43 414.5 947.28C381.78 928.76 349.38 910.39 328.5 898.51C318.6 892.87 302.18 883.53 292 877.75C281.82 871.98 241.78 849.11 203 826.94C164.22 804.76 128 784.09 122.5 781C107.44 772.53 66.21 748.71 51.5 739.97L38.5 732.25L38.5 518.38C38.5 400.74 38.82 303.38 39.22 302C39.62 300.62 41.19 298.79 42.72 297.91C44.25 297.04 55.85 290.34 68.5 283.01C81.15 275.69 140.32 241.82 200 207.75C259.68 173.68 311.65 143.98 315.5 141.76C319.35 139.53 324.75 136.42 327.5 134.86C330.25 133.3 359.69 116.49 392.93 97.51C426.17 78.53 454.2 63 455.22 63C456.24 63 468.87 69.69 483.29 77.87C518.77 97.99 728.79 217.81 768 240.3C785.33 250.24 802.42 260.01 806 262.02C809.58 264.03 824.09 272.26 838.26 280.31C860.18 292.76 864.37 294.81 866.39 294.04C872.08 291.88 905.69 272.47 979 229.01C988.08 223.63 1021.15 204.02 1052.5 185.44C1083.85 166.86 1114 148.97 1119.5 145.69C1131.46 138.56 1185.28 106.93 1210.5 92.21C1259.43 63.66 1262.67 62.07 1265.8 65.2C1266.46 65.86 1267 67.6 1267 69.07C1267 71.31 1265.74 72.56 1259.25 76.74C1243.86 86.65 1181.27 124.27 1080 184.49C1019.7 220.35 1008.35 227.09 923.5 277.43L873.5 307.1L872.99 517.8C872.62 670.23 872.17 729.19 871.36 731C870.55 732.82 861.7 738.45 839.37 751.39C797.69 775.54 675.83 845.33 582.5 898.5C465.39 965.22 456.88 970.01 455.47 969.98C454.94 969.96 450.68 967.78 446 965.12ZM484.3 938.86C499.26 930.54 519.15 919.36 528.5 914.02C537.85 908.68 554.27 899.33 565 893.24C588.72 879.78 718.41 805.66 736.5 795.22C743.65 791.1 773.12 774.23 802 757.74C830.88 741.25 855.34 726.97 856.36 726C858.15 724.29 858.23 717.21 858.72 516.28L859.23 308.33L855.37 306.02C849.18 302.33 729.12 233.55 648 187.24C505.32 105.79 481.42 92.18 468.5 85.02L455.5 77.83L449.5 81.07C442.07 85.07 414.17 100.85 373.5 124.04C356.45 133.76 316.62 156.45 285 174.47C253.38 192.49 188.01 229.78 139.75 257.33L52 307.43L52.02 516.46L52.03 725.5L79.27 740.94C94.25 749.43 137.32 773.99 175 795.52C212.68 817.04 260.38 844.25 281 855.97C301.62 867.69 327.73 882.56 339 889C359.78 900.87 403.68 925.57 436.5 943.85C446.4 949.37 455.08 953.91 455.8 953.94C456.51 953.97 469.34 947.19 484.3 938.86ZM420 895.31C408.73 888.99 390.05 878.51 378.5 872.04C171.6 756.01 98.9 714.61 89.25 707.35C83.02 702.65 86.4 695.3 93.55 698.02C98.39 699.86 157.71 732.76 290 806.97C343.98 837.26 413.58 876.72 432 887.5C446.77 896.14 449 897.76 449 899.88C449 902.01 443.95 907.04 441.95 906.91C441.15 906.85 431.27 901.64 420 895.31ZM808.74 709.25C807.77 709.03 806.29 707.52 805.45 705.91C804.11 703.31 803.93 683.19 803.95 533.23C803.96 363.97 804.38 325.62 806.26 323.25C807.68 321.44 813.51 321.71 815.13 323.65C817.22 326.18 817.18 703.88 815.08 706.4C813.17 708.7 810.87 709.73 808.74 709.25ZM2347 461.2C2343.34 459.19 2341.26 455.37 2342.32 452.62C2343.25 450.19 2349.63 450.63 2355.5 453.52C2361.51 456.48 2365.82 456.64 2370.79 454.11C2377.49 450.69 2381 444.81 2381 437.02C2381 424.16 2369.78 413.6 2353.35 410.98C2349.58 410.38 2346.06 409.46 2345.53 408.93C2344.91 408.31 2347.41 402.23 2352.53 391.92L2360.5 375.87L2375.17 376.18C2383.24 376.36 2390.16 376.82 2390.55 377.21C2390.93 377.6 2390.18 380.07 2388.88 382.71L2386.5 387.5L2373.39 387.78L2360.28 388.06L2358.67 392.17C2357.78 394.43 2357.27 396.63 2357.55 397.07C2357.82 397.51 2360.51 398.8 2363.54 399.93C2377.25 405.06 2384.18 410.62 2388.21 419.75C2390.74 425.46 2390.4 437.5 2387.55 443.35C2384.7 449.2 2376.73 456.77 2370.27 459.76C2362.57 463.33 2352.07 463.98 2347 461.2ZM2132.69 461.3C2131.7 461.04 2131.02 460.24 2131.19 459.51C2131.36 458.79 2137.32 451.96 2144.43 444.35C2164.18 423.2 2170.87 411.42 2169.75 399.78C2169.25 394.56 2167.14 390.94 2162.62 387.57C2160.48 385.97 2158.36 385.51 2153.18 385.5C2145.54 385.5 2141.92 387.5 2137.5 394.18C2134.35 398.94 2132.51 399.2 2133.4 394.77C2135.09 386.28 2141.41 378.04 2147.92 375.82C2153.15 374.04 2161.81 374.27 2167.23 376.34C2175.57 379.53 2182 389.14 2182 398.41C2182 407.42 2174.2 419.38 2152.61 443.47C2149.37 447.09 2147.05 450.37 2147.45 450.77C2147.85 451.17 2154.42 451.47 2162.04 451.42C2175.37 451.35 2176.04 451.25 2179.75 448.67C2183.64 445.98 2186 445.29 2186 446.84C2186 448.5 2181.99 459.31 2180.88 460.64C2179.99 461.72 2175.09 461.98 2157.13 461.88C2144.68 461.82 2133.69 461.56 2132.69 461.3ZM2056.24 435.91C2030.34 431.96 2011.58 414.64 2005 388.59C2002.29 377.88 2002.27 360.59 2004.96 349.4C2009.85 329 2021.34 314.32 2039.31 305.54C2050.27 300.18 2057.43 298.72 2070.42 299.22C2079.88 299.57 2083.1 300.18 2092.43 303.33C2098.43 305.36 2104.15 306.77 2105.13 306.46C2106.1 306.15 2107.87 304.32 2109.06 302.4C2111.6 298.3 2114.03 298.27 2115.11 302.32C2116.2 306.39 2118.36 339.62 2117.66 341.45C2116.53 344.39 2114.27 342.99 2112.48 338.25C2107.5 325.07 2099.38 315.3 2089.27 310.33C2083.83 307.66 2082.75 307.5 2070.5 307.5C2057.72 307.5 2057.39 307.56 2051.15 310.82C2036.29 318.57 2028.69 332.47 2025.88 357C2023.89 374.38 2026.35 391.16 2032.65 403.16C2041.61 420.21 2060.01 429.13 2080.33 426.28C2090.89 424.8 2095.28 422.34 2106.89 411.46C2116.06 402.86 2120 400.31 2120 402.98C2120 405.05 2112.94 414.73 2107.84 419.66C2104.9 422.49 2100.25 426.22 2097.5 427.94C2086.85 434.61 2069.56 437.94 2056.24 435.91ZM2196 431.98C2194.67 431.11 2194.67 430.89 2196 430.02C2196.82 429.47 2198.75 429.02 2200.28 429.02C2204.04 428.99 2209.07 426.76 2211.5 424.03C2213.45 421.85 2213.5 420.38 2213.5 368.65C2213.5 339.42 2213.16 314.27 2212.74 312.77C2211.79 309.4 2207.55 307.09 2200.86 306.3C2195.71 305.69 2193.45 303.6 2196.1 301.91C2198.07 300.67 2249.12 300.78 2251 302.03C2252.31 302.91 2252.27 303.22 2250.7 304.42C2249.71 305.18 2247.23 306.09 2245.2 306.44C2239.76 307.38 2236.24 308.97 2235.41 310.84C2234.6 312.67 2233.15 358.45 2233.82 361.25C2234.2 362.87 2236.42 363 2262.92 363C2283.89 363 2291.92 362.68 2292.8 361.8C2294.16 360.44 2294.39 331.65 2293.15 319.24C2292.25 310.27 2290.51 308.22 2282.36 306.59C2278.21 305.76 2276.42 304.92 2276.18 303.69C2275.87 302.09 2277.77 301.99 2303.67 302.23C2320.78 302.4 2331.46 302.87 2331.38 303.46C2331.21 304.94 2328.96 305.84 2323.79 306.5C2321.2 306.84 2318.05 307.94 2316.79 308.97L2314.5 310.82L2314.2 366.54L2313.89 422.25L2316.09 424.6C2318.39 427.04 2321.73 428.36 2328.49 429.51C2332.23 430.14 2332.36 430.27 2330.52 431.61C2327.59 433.75 2276.5 433.2 2276.5 431.03C2276.5 430.06 2278.05 429.29 2281 428.79C2286.13 427.91 2289.95 425.44 2291.72 421.84C2292.55 420.15 2293.03 411.58 2293.22 394.93L2293.5 370.5L2263.69 370.24L2233.88 369.97L2234.19 396.57C2234.56 428.27 2233.61 426.21 2249.5 429.54C2252.36 430.13 2252.41 430.23 2250.56 431.58C2249 432.72 2243.57 433 2223.06 432.98C2207.99 432.98 2196.88 432.57 2196 431.98ZM87.65 343.17C86.74 342.17 86 339.92 86 338.19C86 335.63 86.72 334.56 89.75 332.61C102.51 324.37 400.47 154.48 439.58 133.14C452.85 125.9 457.57 124.58 459.95 127.44C460.61 128.24 461.01 129.92 460.83 131.19C460.46 133.76 456.9 136.31 438.5 147.2C431.9 151.1 422.9 156.43 418.5 159.03C396.85 171.86 293.63 231.02 167 303.2C94.06 344.77 93.64 345 91.34 345C90.22 345 88.57 344.18 87.65 343.17ZM1928.73 308.29C1907.7 294.15 1877.9 274.08 1862.5 263.7C1847.1 253.31 1824.83 238.3 1813 230.35C1801.17 222.4 1783.4 210.4 1773.5 203.68C1749.97 187.72 1715.42 164.3 1696 151.15C1649.01 119.33 1617.99 97.86 1608.5 90.57C1601.8 85.43 1600.45 83.91 1600.19 81.22C1599.75 76.7 1603.27 75.06 1608.08 77.54C1612.02 79.58 1701.39 138.97 1764.5 181.49C1788.7 197.8 1819.53 218.56 1833 227.64C1846.47 236.71 1865.15 249.34 1874.5 255.7C1883.85 262.06 1898.47 272 1907 277.79C1941.19 301.01 1970.62 321.38 1972.75 323.31C1973.99 324.43 1975 326.36 1975 327.6C1975 329.94 1970.77 334 1968.34 334C1967.58 334 1949.75 322.43 1928.73 308.29ZM1421.73 173.3C1416.38 167.58 1399.69 147.71 1384.52 129C1361.93 101.14 1341.61 77 1340.75 77C1340.23 77 1339.99 95.75 1340.18 121.42L1340.5 165.84L1342.91 168.41C1344.56 170.16 1346.81 171.17 1350.03 171.6C1355.53 172.33 1357.53 173.33 1356.57 174.89C1356.1 175.65 1349.07 176 1334.37 176C1314.42 176 1312.88 175.87 1313.19 174.25C1313.42 173.04 1314.79 172.33 1317.63 171.95C1319.89 171.65 1322.96 170.6 1324.45 169.62C1329.8 166.12 1329.91 165.06 1330.65 112.62L1331.32 64.1L1327.78 59.77C1323.68 54.77 1316.39 50.52 1310.18 49.51C1305.71 48.78 1303.66 46.46 1306.1 44.91C1306.87 44.43 1314.94 44.02 1324.03 44.02L1340.55 44L1356.53 63.66C1405.81 124.31 1419.07 140.07 1420.23 139.36C1421 138.88 1421.12 126.59 1420.64 97.09L1419.97 55.5L1417.12 52.88C1415.07 51 1412.66 50.06 1408.57 49.55C1402.78 48.83 1400.27 46.71 1403.1 44.91C1404.95 43.75 1445.09 43.77 1446.94 44.94C1449.43 46.52 1446.46 48.65 1439.97 49.93C1429.94 51.9 1430.59 47.89 1430.18 109.93C1429.82 165.1 1429.32 177.06 1427.36 177.71C1426.74 177.92 1424.2 175.93 1421.73 173.3ZM1455.19 174.26C1455.42 173.03 1456.88 172.33 1460.14 171.86C1468.7 170.64 1470.64 168.58 1471.47 159.86C1471.75 156.91 1472.19 132.6 1472.46 105.83L1472.95 57.16L1470.13 54.14C1468.58 52.48 1466 50.82 1464.4 50.46C1455.85 48.52 1454 47.81 1454 46.48C1454 45.69 1455.19 44.74 1456.64 44.38C1459.94 43.55 1506.85 44.59 1509.29 45.55C1512.45 46.78 1510.49 48.47 1505.01 49.26C1502.09 49.68 1498.19 50.96 1496.35 52.1L1493 54.16L1493 80.08L1493 106L1521.8 106C1542.87 106 1550.92 105.68 1551.8 104.8C1553.27 103.33 1553.38 80.49 1552 65C1550.98 53.66 1549.92 51.68 1544.12 50.39C1536.17 48.61 1534 47.8 1534 46.61C1534 45.67 1536.7 45.12 1543.75 44.66C1558.09 43.71 1587.28 43.89 1588.94 44.94C1591.43 46.52 1588.46 48.65 1581.97 49.93C1571.86 51.92 1572.5 47.8 1572.5 110.5C1572.5 159.9 1572.65 164.81 1574.21 167.2C1575.94 169.84 1579.27 171.29 1586.32 172.47C1589.51 173.01 1589.95 173.36 1588.95 174.56C1587.96 175.75 1583.05 176 1560.8 176C1535.68 176 1533.88 175.88 1534.19 174.25C1534.44 172.95 1535.9 172.33 1539.9 171.84C1544.08 171.33 1545.97 170.49 1548.39 168.07L1551.5 164.97L1551.8 139.58L1552.1 114.19L1523.3 113.8C1507.46 113.59 1494.16 113.57 1493.75 113.77C1493.34 113.96 1493 125.9 1493.01 140.31L1493.01 166.5L1496.31 168.74C1498.12 169.98 1501.74 171.39 1504.35 171.87C1509.63 172.86 1510.5 173.37 1509.54 174.93C1509.1 175.65 1499.92 176 1481.87 176C1456.74 176 1454.88 175.88 1455.19 174.26Z" fill="#1e2749" fill-rule="evenodd"/>
</svg>
