<?xml version="1.0" encoding="UTF-8"?>
<svg xmlns="http://www.w3.org/2000/svg" viewBox="0 0 2430 691" width="2430" height="691" shape-rendering="geometricPrecision">
<path d="M1974.75 678.33C1972.14 678.09 1970 677.55 1970 677.13C1970 676.71 1971.55 675.63 1973.45 674.72C1980.47 671.38 1980.5 671.14 1980.46 627.5C1980.43 594.7 1980.17 587.86 1978.87 584.5C1977.2 580.2 1974.15 578.04 1969.75 578.01C1966.43 578 1966.13 576.41 1969.25 575.41C1972.9 574.25 2008.04 574.64 2009.26 575.86C2010.42 577.02 2010.58 576.94 2003.34 578.9C2000 579.8 1998.96 580.66 1998.05 583.26C1996.38 588.01 1995.46 621.55 1996.98 622.49C1998.88 623.66 2041.23 623.05 2042.71 621.83C2044.28 620.52 2044.5 597.63 2043.02 588.61C2041.9 581.74 2040.17 579.44 2035.43 578.55C2031.49 577.81 2030.99 576.48 2034.25 575.37C2037.77 574.19 2069.94 574.54 2071.18 575.78C2071.94 576.54 2070.82 577.53 2067.37 579.17C2059.41 582.97 2059.59 581.9 2059.58 627C2059.57 671.11 2059.52 670.77 2066.35 674.6C2069.22 676.2 2069.86 676.98 2068.85 677.62C2067.12 678.73 2044.29 679.42 2038.44 678.54C2033.35 677.78 2032.67 676.45 2036.9 675.52C2042.49 674.29 2042.73 673.34 2043.13 651L2043.5 630.5L2019.6 630.23L1995.7 629.96L1996.41 648.49C1996.8 658.69 1997.6 668.42 1998.19 670.12C1998.94 672.27 2000.48 673.76 2003.23 674.99C2005.54 676.03 2006.72 677.05 2006.07 677.46C2004.71 678.3 1981.36 678.95 1974.75 678.33ZM2016.66 533.25C2015.84 531.89 2014.97 383.66 2015.74 375.5C2016.47 367.78 2016.59 367.49 2019.19 367.19C2020.89 366.99 2022.64 367.64 2023.94 368.94C2025.91 370.91 2026 372.12 2026.05 396.25C2026.23 486.53 2025.83 531.5 2024.83 532.7C2023.68 534.09 2017.42 534.51 2016.66 533.25ZM231.25 375.52C228.67 373.65 228.23 369.23 230.53 368.35C231.37 368.03 235.66 368.92 240.06 370.34C244.46 371.75 248.84 372.63 249.78 372.29C256.67 369.81 261.56 362.28 260.47 355.82C259.31 348.98 252.72 342.98 244.72 341.47C240.15 340.62 239.93 338.68 244.2 336.92C248.4 335.18 253.72 330.44 255.64 326.73C257.85 322.45 256.68 317.8 252.43 314.08C247.65 309.88 242.24 309.85 236 314C233.53 315.65 231.16 316.99 230.75 317C228.82 317.01 230.38 313.54 234.14 309.47C239.09 304.09 246.4 301.39 251.79 302.94C262.37 305.97 268.6 315.21 264.85 322.32C264.21 323.52 262.41 326.07 260.85 327.98C259.28 329.89 258 331.89 258 332.42C258 332.95 260.41 335.68 263.35 338.48C269.57 344.42 270.73 348.15 268.98 356.59C266.48 368.65 256.44 376.05 241.62 376.76C235.24 377.07 233.02 376.8 231.25 375.52ZM497.67 376.33C495.89 374.56 497.85 371.59 508 360.68C527.56 339.66 532.35 330.1 528.11 320.52C525.69 315.06 521.12 312.01 515.32 312C509.41 312 506.3 313.44 501.75 318.28L497.78 322.5L498.41 319C499.33 313.89 503.98 307 508 304.79C513.22 301.92 524.47 302.72 529.96 306.36C535.72 310.16 539.52 316.31 539.41 321.61C539.24 329.31 530.59 343.02 516.59 357.78C511.61 363.03 509.98 365.38 510.76 366.16C512.27 367.67 536.58 366.82 538.2 365.2C538.86 364.54 540.24 364 541.27 364C543.36 364 543.16 365.31 539.95 372.75L538.11 377L518.22 377C507.28 377 498.03 376.7 497.67 376.33ZM1647 365.31C1644.49 364.01 1643.41 362.72 1643.18 360.75C1642.8 357.45 1643.33 357.39 1654.34 359.5C1666.08 361.75 1667.74 361.55 1671.59 357.47C1675.85 352.96 1676.73 348.47 1674.49 342.62C1672.36 337.02 1669.62 334.42 1663.39 332.06C1660.7 331.04 1658.41 329.6 1658.29 328.85C1658.18 328.11 1659.97 326.14 1662.27 324.47C1664.57 322.81 1667.48 319.93 1668.73 318.08C1677.17 305.55 1659.88 294.04 1648.49 304.6C1647 305.98 1645.52 306.86 1645.21 306.54C1644.07 305.4 1647.97 299.13 1651.48 296.45C1654.46 294.17 1656.35 293.62 1662.3 293.28C1671.13 292.78 1675.41 294.65 1678.77 300.5C1681.9 305.93 1681.25 310.73 1676.59 316.72C1674.61 319.26 1673 321.61 1673 321.96C1673 322.3 1675.06 324.59 1677.58 327.04C1685.29 334.54 1686.33 338.17 1683.5 347.67C1681.5 354.43 1675.47 361.12 1668.79 364C1661.57 367.12 1651.64 367.72 1647 365.31ZM1910 364.08C1910 363.03 1912.14 360.32 1914.75 358.07C1917.36 355.81 1923.46 349.59 1928.3 344.23C1942.58 328.44 1947.07 316.7 1941.96 308.44C1939.83 304.99 1932.95 301 1929.13 301C1925.93 301 1921.08 303.67 1916.75 307.81L1913 311.41L1913 308.37C1913 304.62 1918.44 296.16 1921.64 294.95C1925.91 293.33 1936.37 292.75 1940.64 293.9C1946.02 295.35 1952.57 301.69 1953.94 306.77C1956.33 315.64 1949.7 327.81 1932.93 345.38C1927.47 351.1 1923 356.34 1923 357.03C1923 358 1925.8 358.17 1935.25 357.76C1945.28 357.32 1948.36 356.81 1952.23 354.92C1954.83 353.66 1957.17 352.84 1957.44 353.11C1958.11 353.78 1955.27 362.97 1953.88 364.64C1953 365.71 1948.17 366 1931.38 366C1910.98 366 1910 365.91 1910 364.08ZM49.08 332.41C24.31 325.75 10.32 301.94 13.97 272.66C15.96 256.8 21.77 246.25 34.02 236.3C43.53 228.58 50.32 226.48 65.5 226.57C75.99 226.64 78.48 227 85.33 229.44L93.16 232.24L96.51 228.99C102.68 223.01 103.94 225.99 104.3 247.4C104.43 255.37 104.13 259.43 103.39 259.69C102.78 259.9 100.58 256.82 98.49 252.85C96.4 248.87 92.95 243.73 90.82 241.42C78 227.51 50.93 229.61 40.1 245.36C38.47 247.73 36.1 252.55 34.84 256.08C32.77 261.86 32.54 264.29 32.52 280.52L32.5 298.54L35.79 305.22C39.9 313.58 45.77 319.63 53.5 323.5C58.9 326.2 60.44 326.5 69 326.5C81.13 326.5 86.46 324.16 97.14 314.16C104.24 307.51 107 305.75 107 307.85C107 310.78 95 323.34 87.45 328.31C79.24 333.72 61.14 335.65 49.08 332.41ZM317.1 332.48C304.39 328.92 293.45 319.37 287.35 306.52C282.94 297.23 281.66 289.78 282.28 277C283.28 256.42 292.02 241.36 308.42 231.95C320.16 225.22 336.36 224.35 353.81 229.51L363.11 232.27L366.06 229.44C367.91 227.67 369.36 226.97 369.95 227.56C370.96 228.58 373 246.25 373 254.05C373 256.71 372.56 259.15 372.03 259.48C371.5 259.81 369.52 257.01 367.63 253.25C363.58 245.21 357.56 238.85 350.55 235.2C346.15 232.91 344.27 232.57 336 232.54C324 232.5 318.18 234.84 311.17 242.51C302.78 251.68 299.32 265.05 300.3 284.5C300.66 291.6 301.63 297.96 303.03 302.46C304.91 308.47 306.12 310.32 311.91 316.12C317.84 322.05 319.46 323.08 325.9 325.04C331.55 326.75 334.82 327.15 340.45 326.79C349.7 326.19 354.53 323.84 363.5 315.56C369.94 309.61 374 307.47 374 310.03C374 310.6 370.48 314.64 366.18 319C354.99 330.35 348.49 333.28 333.54 333.69C325.92 333.9 320.83 333.52 317.1 332.48ZM589 331.66C566.94 323.85 554.73 304.99 554.58 278.5C554.4 247.63 575.27 225.96 605.14 226.01C619.53 226.04 630.84 230.84 641.58 241.48C650.52 250.33 654.55 258.22 655.91 269.5C657.02 278.66 655.97 292.43 653.7 298.6C647.91 314.34 634.56 327.28 619.22 332.01C610.07 334.84 597.57 334.69 589 331.66ZM119.62 331.11L115.74 330.5L120.32 328.29C122.84 327.07 125.67 324.91 126.6 323.49C129.05 319.76 129.79 306.46 129.53 271.5C129.27 237.51 128.88 235.34 122.56 232.32C120.6 231.39 119 230.26 119 229.81C119 229.37 126.88 229 136.5 229C153.51 229 157.15 229.7 151.08 231.82C149.47 232.38 147.67 233.75 147.07 234.86C145.78 237.29 144.55 265.48 145.47 271.64L146.12 276L168.53 276C190.37 276 190.96 275.95 192.07 273.87C193.55 271.11 192.41 240.64 190.7 237.03C190.04 235.64 187.81 233.68 185.75 232.67C183.69 231.66 182 230.42 182 229.92C182 229.39 189.74 229 200 229C209.9 229 218 229.37 218 229.82C218 230.27 216.54 231.28 214.75 232.07C208.57 234.79 208.5 235.31 208.5 279C208.5 322.35 208.78 324.8 214.03 327.52C215.61 328.33 217.6 329 218.45 329C221.98 329 219.65 330.78 215.36 331.36C209.39 332.18 186.2 332.19 182.12 331.38C178 330.55 178.12 329 182.31 329C184.66 329 186.43 328.16 188.38 326.12C190.86 323.54 191.24 322.16 192.11 312.8C192.64 307.05 192.95 297.89 192.79 292.43L192.5 282.5L168.78 282.23L145.06 281.96L145.61 301.73C145.91 312.6 146.61 322.7 147.17 324.16C147.72 325.63 149.37 327.27 150.84 327.82C152.3 328.37 154.4 329.14 155.5 329.54C157.37 330.23 157.34 330.32 155 331.04C152.06 331.94 125.24 331.99 119.62 331.11ZM392.25 331.27C387.1 330.8 386.89 329.9 391.45 327.72C398.49 324.37 398.5 324.33 398.5 278.82L398.5 238.13L395.57 235.08C393.96 233.4 391.83 231.76 390.82 231.44C385.56 229.77 390.53 229 406.5 229C423.92 229 427.36 229.73 420.53 231.99C415.7 233.58 415.01 236.86 415.01 258.27L415 276.04L438.25 275.77L461.5 275.5L461.78 259.2C462.12 238.55 461.43 235.67 455.45 232.76C453 231.57 451 230.24 451 229.8C451 229.36 459.1 229 469 229C479.64 229 487 229.39 487 229.95C487 230.47 485.77 231.48 484.26 232.2C478.68 234.88 478.53 236.03 478.22 278C477.89 323.1 478.04 324.24 484.92 327.72C491.16 330.88 489.07 331.32 467.19 331.42C453.22 331.48 448.58 331.19 448.26 330.25C447.97 329.41 448.96 329 451.28 329C456.37 329 459.63 325.93 460.92 319.94C461.51 317.17 462 307.43 462 298.29L462 281.69L446.25 282.34C437.59 282.7 426.97 282.99 422.66 283L414.82 283L415.17 302.25C415.56 324 416.28 326.85 421.75 328.46C423.54 328.98 425 329.71 425 330.08C425 331.76 405.55 332.47 392.25 331.27ZM735 331.13L731.5 330.43L735.57 328.29C742.59 324.59 742.5 324.93 742.5 302.6L742.5 282.5L719.12 282.23L695.74 281.96L696.43 303.68C696.82 315.63 697.31 325.7 697.54 326.06C697.76 326.43 699.98 327.29 702.46 327.99C704.94 328.68 706.72 329.64 706.42 330.12C705.71 331.27 672 331.27 672 330.12C672 329.63 673.08 328.52 674.41 327.65C679.19 324.52 679.5 321.53 679.5 278.32L679.5 238.13L676.57 235.08C674.96 233.4 672.83 231.76 671.82 231.44C666.49 229.75 671.63 229 688.56 229C707.31 229 710.67 229.79 701.59 232.08L697.31 233.16L696.66 248.83C696.3 257.45 696.01 267.1 696 270.27L696 276.04L719.25 275.77L742.5 275.5L742.77 260.48C742.93 252.22 742.7 242.99 742.27 239.98C741.54 234.79 741.28 234.39 737.29 232.5C734.97 231.4 733.06 230.16 733.04 229.75C733.02 229.34 740.88 229 750.5 229C767.63 229 771.42 229.75 765.55 231.98C764.21 232.49 762.29 234.15 761.3 235.66C759.67 238.16 759.47 241.76 759.17 274.95C758.78 318.67 759 321.2 763.5 325.7C765.66 327.86 767.77 329 769.6 329C771.84 329 772.15 329.25 771.15 330.25C769.74 331.66 741.08 332.36 735 331.13ZM615.68 325.99C620.57 323.87 628.36 316.97 631.48 312C635.88 304.98 637.21 299.14 637.73 284.47C638.68 258.09 632.97 243.28 618.82 235.45C614.03 232.79 612.6 232.5 604.5 232.51C597.2 232.51 594.75 232.92 591.5 234.67C585.95 237.66 581.75 242.37 577.84 250L574.5 256.5L574.17 275.5C573.71 302.09 575.46 309.53 584.35 318.83C593.51 328.4 604.39 330.89 615.68 325.99ZM1465.5 321.41C1458.39 319.84 1448.55 315.02 1443.11 310.44C1438.19 306.3 1432.2 296.34 1429.51 287.86C1427.57 281.71 1427 277.76 1427 270.5C1427 258.7 1428.29 252.4 1432.57 243.39C1438.87 230.11 1449.34 221.11 1463.96 216.39C1475.05 212.82 1485.57 213.27 1498.5 217.87L1507.5 221.08L1510.61 217.54C1516.22 211.14 1516.89 212.57 1517.7 232.61C1518.09 242.37 1517.93 246.93 1517.17 247.4C1516.49 247.81 1514.68 245.33 1512.51 241.01C1507.74 231.54 1503.28 226.85 1495.89 223.53C1490.24 220.99 1488.99 220.81 1479.63 221.17C1470.72 221.52 1468.86 221.92 1464.14 224.5C1451.24 231.57 1445.05 246.19 1445.02 269.66C1444.99 286.44 1448.91 297.05 1458.33 305.74C1463.95 310.91 1468.87 313.43 1476.44 314.99C1487.87 317.35 1497.58 313.92 1509.28 303.38C1515.82 297.49 1519 295.69 1519 297.87C1519 300.47 1509.85 310.61 1504.03 314.47C1492.89 321.85 1478.91 324.37 1465.5 321.41ZM1734.32 321.08C1716.56 316.26 1705.27 305.82 1699.5 288.89C1697.08 281.78 1696.63 278.89 1696.61 270C1696.59 258.45 1698.16 251.56 1702.99 242.05C1709.33 229.57 1717.23 222.53 1730.77 217.29C1736.43 215.11 1739.18 214.68 1748 214.63C1756.84 214.58 1759.79 215 1766.7 217.29C1771.22 218.78 1775.47 220 1776.16 220C1776.84 220 1778.89 218.56 1780.7 216.8C1783.16 214.42 1784.29 213.89 1785.14 214.74C1785.77 215.37 1786.69 222.24 1787.23 230.46C1788.54 250.29 1787.61 252.11 1781.92 240.84C1777.85 232.78 1771.97 226.63 1765.14 223.27C1760.26 220.87 1758.35 220.51 1751 220.57C1725.28 220.8 1714.18 237.15 1715.17 273.34C1715.55 287.25 1715.62 287.62 1719.02 294C1723.47 302.34 1729.96 308.85 1737.51 312.56C1742.64 315.08 1744.64 315.5 1751.5 315.48C1758.32 315.45 1760.47 315 1766.06 312.37C1769.94 310.54 1775.32 306.76 1779.19 303.14C1785.05 297.66 1789 295.51 1789 297.81C1789 299.79 1777.79 311.92 1773.31 314.8C1761.86 322.15 1747.06 324.53 1734.32 321.08ZM2012.5 321.98C2001.46 320.68 1988.08 313.71 1982.15 306.16C1972.68 294.13 1969.59 283.18 1970.16 263.72C1970.54 250.59 1970.63 250.13 1974.28 242.75C1982.38 226.35 1994.98 217.59 2015.5 214.07C2023.33 212.72 2032.92 214.66 2042.59 219.54C2051.82 224.19 2055.98 227.71 2061.67 235.68C2073.51 252.28 2075.12 272.54 2066.17 292.28C2063.03 299.22 2053.05 310.68 2046.62 314.74C2037.07 320.77 2024.65 323.41 2012.5 321.98ZM1269 318.47C1269 315.41 1278.91 297.92 1285.66 289.09C1288.07 285.93 1288.74 284.34 1287.97 283.57C1287.22 282.82 1224.14 282.35 1075.2 282C855 281.48 859 281.56 859 277.58C859 276.84 860.24 275.88 861.75 275.46C863.26 275.03 959.9 274.51 1076.5 274.29C1193.1 274.08 1288.84 273.56 1289.26 273.14C1289.68 272.72 1287.65 269.41 1284.76 265.78C1278.54 257.97 1270.38 244.63 1269.44 240.75C1268.05 234.97 1272.79 237.98 1290.84 254.36C1297.96 260.81 1307 268.6 1310.94 271.66C1315.34 275.08 1317.99 277.83 1317.8 278.8C1317.63 279.67 1314.35 282.79 1310.5 285.74C1306.65 288.68 1299.27 295.01 1294.1 299.8C1273.28 319.06 1269 322.24 1269 318.47ZM1533 318.92C1531.76 318.03 1531.74 317.75 1532.87 317.3C1533.63 317 1535.63 315.51 1537.32 314C1540.04 311.57 1540.49 310.4 1541.14 303.88C1542.28 292.47 1542.14 232.05 1540.96 227.81C1539.89 223.96 1536.01 220.78 1530.75 219.47C1527.42 218.64 1527.21 217.45 1530.25 216.63C1533.35 215.8 1565.81 216.07 1569.5 216.96L1572.5 217.68L1569.68 218.84C1568.14 219.48 1566.05 220 1565.05 220C1564.04 220 1562.16 220.86 1560.86 221.91C1558.52 223.8 1558.5 223.99 1558.5 244.16L1558.5 264.5L1580.37 264.77C1595.67 264.96 1602.66 264.7 1603.62 263.9C1605.3 262.51 1605.6 231.69 1603.99 225.91C1602.96 222.19 1599.92 220.01 1595.7 219.98C1594.49 219.98 1592.83 219.53 1592 218.98C1588.75 216.85 1593.75 216.03 1610 216.03C1632.81 216.02 1639.59 217.35 1629.58 219.88C1624.24 221.22 1622.28 223.02 1621.47 227.28C1620.31 233.47 1621.46 308.3 1622.76 311.27C1623.42 312.8 1625.66 315.05 1627.73 316.27L1631.48 318.48L1628.49 319.12C1624.21 320.04 1598.88 320.01 1596.51 319.08C1594.69 318.37 1594.79 318.16 1597.74 316.63C1603.66 313.57 1604.42 310.68 1604.82 289.75L1605.19 271L1581.59 271L1558 271L1558 280.84C1558 286.26 1558.29 296.17 1558.66 302.87L1559.31 315.05L1563.7 316.15C1566.12 316.76 1567.91 317.76 1567.71 318.38C1567.2 319.91 1535.08 320.41 1533 318.92ZM1803.1 319.13C1800.79 318.48 1800.84 318.37 1804.8 315.75C1807.73 313.81 1809.19 311.98 1809.93 309.3C1811.5 303.62 1812.31 259.56 1811.19 241.53L1810.19 225.56L1807.08 222.78C1805.37 221.25 1803.27 220 1802.42 220C1801.57 220 1799.9 219.48 1798.71 218.84C1796.59 217.71 1796.59 217.67 1798.52 216.91C1799.61 216.49 1806.58 216.11 1814 216.08C1835.73 215.98 1847.76 217.77 1837.25 219.54C1831.23 220.56 1830.05 221.03 1829.08 222.85C1827.94 224.98 1826.48 258.81 1827.38 262.38L1828.04 265L1850.48 265C1872.62 265 1872.95 264.97 1874.11 262.79C1875.8 259.64 1874.6 229.38 1872.6 224.6C1871.15 221.11 1870.89 220.97 1863.25 219.42C1859.54 218.67 1860.7 217.31 1865.64 216.64C1872.7 215.67 1901.3 215.91 1902.95 216.95C1904.09 217.67 1903.77 218.11 1901.45 219.04C1892.98 222.41 1892.03 223.04 1891.28 225.72C1890.85 227.25 1890.5 245.82 1890.51 267C1890.51 310.17 1890.83 312.85 1896.29 315.62C1900.55 317.79 1900.68 317.96 1898.97 319.04C1897.23 320.14 1873.25 320.21 1867.5 319.13C1864.23 318.52 1863.88 318.25 1865.57 317.68C1866.71 317.29 1868.88 315.69 1870.38 314.12C1872.79 311.61 1873.23 310.09 1874.1 301.39C1874.64 295.95 1874.95 287 1874.79 281.5L1874.5 271.5L1850.59 271.23L1826.68 270.96L1827.31 291.1C1827.98 312.84 1828.59 315.36 1833.51 316.59C1837.1 317.49 1836.57 318.64 1832.25 319.36C1827.38 320.16 1806.2 320 1803.1 319.13ZM2315.25 319.34C2313.17 318.5 2313.83 317.25 2316.93 316.18C2322.84 314.12 2323.45 311.75 2324 288.8C2324.28 277.36 2324.27 258.66 2323.98 247.25C2323.37 222.7 2322.84 220.82 2316.26 219.94C2311.36 219.28 2309.95 218.28 2312.03 216.95C2314.03 215.67 2352.95 216.19 2353.17 217.5C2353.26 218.05 2350.67 219.4 2347.42 220.5L2341.5 222.5L2340.74 230C2340.32 234.12 2340.09 243.57 2340.24 251L2340.5 264.5L2363.37 264.77C2379.41 264.96 2386.66 264.7 2387.62 263.9C2388.67 263.03 2389 259.52 2389 249.43C2389 228.16 2387.08 222.54 2378.96 220.11C2376.7 219.43 2375 218.29 2375 217.46C2375 216.23 2377.69 216.01 2391.75 216.09C2400.96 216.14 2410.75 216.51 2413.5 216.91C2418.45 217.64 2418.47 217.66 2415.68 218.82C2414.14 219.47 2412.07 220 2411.09 220C2410.11 220 2408.45 220.95 2407.4 222.1C2405.6 224.1 2405.49 226.5 2405.27 266.79C2405.14 290.2 2405.39 310.71 2405.81 312.36C2406.37 314.51 2407.49 315.65 2409.78 316.43C2416.4 318.65 2413.01 319.5 2396.33 319.77C2387.15 319.93 2379.27 319.67 2378.81 319.21C2378.34 318.74 2379.66 317.26 2381.73 315.92C2387.3 312.32 2388.27 308.5 2388.77 288.25L2389.2 271L2364.48 271L2339.76 271L2340.16 290.34C2340.6 311.67 2341.26 314.14 2347.11 316.35C2350.98 317.81 2350.75 318.61 2346.25 319.36C2341.84 320.09 2317.07 320.07 2315.25 319.34ZM2030.77 314.02C2036.78 311.29 2045.16 303.01 2048.42 296.58C2051.95 289.59 2053.38 278.74 2052.59 264.88C2051.14 239.59 2046.8 230.49 2032.78 223.39C2022.13 217.99 2009.31 219.45 2000.69 227.05C1997.65 229.72 1994.78 233.7 1992.38 238.55C1988.78 245.82 1988.7 246.26 1988.23 260.25C1987.19 290.8 1992.68 306.17 2007.21 313.42C2013.83 316.72 2024.23 316.98 2030.77 314.02ZM2120.83 285.12C2112.65 284.46 2110.89 283.71 2112.87 281.73C2113.82 280.78 2131.68 280.5 2192.5 280.5C2272.87 280.5 2276.94 280.69 2270.86 284.16C2268.95 285.24 2255.06 285.52 2198.5 285.62C2160 285.69 2125.05 285.47 2120.83 285.12ZM1044 221.61C1044 220.81 1045.57 219.64 1047.49 219C1049.4 218.37 1051.31 217.32 1051.72 216.68C1052.81 214.97 1053.05 175.74 1052.07 160.53L1051.23 147.56L1047.9 144.78L1044.58 142L1058.54 142.03L1072.5 142.05L1069.23 144.78C1065.13 148.2 1063.9 154.6 1064.72 168.31L1065.29 177.87L1071.39 178.5C1074.75 178.84 1082.9 178.98 1089.5 178.81L1101.5 178.5L1101.77 162.87L1102.05 147.24L1098.11 145.66C1089.72 142.3 1093.06 141 1110.07 141C1122.07 141 1124.44 142.12 1118.09 144.79L1114.02 146.5L1114.01 182.1L1114 217.7L1118.09 219.3C1120.41 220.22 1121.9 221.36 1121.53 221.95C1120.82 223.1 1094.8 223.46 1093.67 222.34C1093.31 221.98 1094.76 220.06 1096.9 218.09C1101.49 213.85 1102.32 209.72 1101.81 193.5L1101.5 183.5L1083.5 183.86C1073.6 184.05 1065.38 184.32 1065.24 184.45C1065.1 184.58 1064.89 190.72 1064.79 198.09C1064.57 212.79 1065.88 218.19 1069.96 219.49C1071.14 219.86 1071.94 220.69 1071.72 221.33C1071.46 222.13 1066.96 222.59 1057.67 222.78C1046.26 223.01 1044 222.82 1044 221.61ZM623.5 194.14C618.89 191.29 616.88 188.52 616.31 184.24C615 174.48 625.29 167 633.9 171.45C637.64 173.38 639.91 177.05 640.63 182.33C641.16 186.21 640.89 187.06 638.03 190.31C636.2 192.39 633.27 194.39 631.17 194.97C626.53 196.26 627.02 196.31 623.5 194.14ZM575.92 192.22C572.03 188.74 570.98 182.37 573.36 176.68C576.98 168.02 590.99 168.28 595.55 177.1C601.56 188.72 585.69 200.95 575.92 192.22ZM2013.62 188.88C2013.28 187.16 2013 180.63 2013 174.38L2013 163L2005.25 162.89C2000.99 162.83 1994.8 162.49 1991.5 162.14C1986.39 161.6 1985.45 161.18 1985.2 159.38C1984.91 157.34 1985.43 157.22 1998.7 156.38L2012.5 155.5L2013 142.33C2013.28 135.09 2013.86 128.8 2014.3 128.37C2014.74 127.93 2015.86 128.05 2016.8 128.64C2018.23 129.55 2018.54 131.75 2018.78 142.72L2019.06 155.72L2032.28 156.43C2046 157.17 2048.51 157.92 2045.91 160.52C2044.81 161.62 2041.02 162.19 2031.84 162.66L2019.28 163.29L2018.73 174.9C2018.19 186.2 2016.98 192 2015.15 192C2014.65 192 2013.97 190.59 2013.62 188.88ZM612.75 143.94C606.35 140.63 605.93 139.5 609.19 134.12C619.26 117.47 648.64 84.34 668.5 67.24C699.48 40.56 721.99 29.92 777 15.93L789.5 12.75L816 12.83C854.38 12.96 869.57 14.57 897.59 21.51C924.37 28.14 950.65 38.31 967.66 48.62C981.17 56.81 999.31 69.76 1009.06 78.18C1013.32 81.86 1017.02 84.65 1017.28 84.39C1017.54 84.13 1015.34 74.6 1012.38 63.21C1009.43 51.82 1007.01 41.91 1007.01 41.2C1007 39.73 1012.74 37.08 1017.67 36.28C1021.84 35.6 1021.2 33.95 1030.97 71C1040.37 106.69 1042.61 116.79 1041.4 118C1039.84 119.56 961.89 105.29 959.63 103.03C959.01 102.41 959.08 100.66 959.83 98.17C960.47 96.02 961 93.04 961 91.54C961 88.87 961.11 88.82 966.25 89.2C969.14 89.42 977.68 90.91 985.22 92.52C1002.79 96.27 1003.8 95.58 993.38 86.97C942.97 45.27 872.37 23.73 803.19 28.93C755.37 32.53 695.09 59.84 661.92 92.94C652.99 101.85 649.47 106.35 631.56 131.75C625.65 140.14 620.29 146.98 619.65 146.95C619.02 146.93 615.91 145.57 612.75 143.94ZM1157.66 139.56C1157.3 138.61 1157 133.64 1157 128.51L1157 119.19L1147.08 118.84C1141.63 118.65 1136.86 118.19 1136.48 117.82C1134.62 115.95 1137.8 115 1145.86 115C1151.32 115 1155.05 114.55 1155.8 113.8C1156.54 113.06 1157.01 109.35 1157.02 104.05C1157.03 95.76 1158.04 91.72 1159.7 93.36C1160.14 93.8 1160.72 98.73 1161 104.33L1161.5 114.5L1169.5 114.75C1173.9 114.89 1178.62 115.26 1180 115.58C1182.42 116.14 1182.44 116.21 1180.56 117.58C1179.23 118.55 1175.84 119 1169.81 119L1161 119L1161 128.31C1161 134.51 1160.55 138.23 1159.66 139.45C1158.41 141.16 1158.28 141.17 1157.66 139.56Z" fill="#1e2749" fill-rule="evenodd"/>
</svg>
