<?xml version="1.0" encoding="UTF-8"?>
<svg xmlns="http://www.w3.org/2000/svg" viewBox="0 0 2430 2043" width="2430" height="2043" shape-rendering="geometricPrecision">
<path d="M2134.2 1996.8C2132.16 1994.76 2132.87 1989.59 2135.84 1984.95C2138.53 1980.75 2148.14 1969.67 2170.95 1944.5L2180.92 1933.5L2173.71 1932.79C2169.74 1932.4 1733.6 1931.79 1204.5 1931.43C675.4 1931.08 242.1 1930.42 241.62 1929.97C238.81 1927.33 238 1686.8 238 846.75C238 403.72 237.66 171 237.01 171C236.47 171 227.24 179.62 216.49 190.16C187.59 218.51 180.53 223.6 175.93 219.44C173.15 216.92 173.51 214.97 177.93 208.36C182.69 201.27 213.25 168.59 225.48 157.52C243.38 141.32 244.63 140.79 252.1 146.16C272.49 160.82 319 209.34 319 215.96C319 216.91 318.12 218.49 317.04 219.46C312.74 223.36 306.59 219.22 281.5 195.53C262.02 177.14 255.25 171.41 254.22 172.44C253.51 173.16 253.65 1905.98 254.36 1906.69C254.56 1906.9 275.6 1892.35 301.11 1874.37C326.63 1856.39 361.68 1831.72 379 1819.54C417.74 1792.3 460.66 1762.11 488.5 1742.5C500.05 1734.36 522.33 1718.7 538 1707.7C553.67 1696.69 571.67 1684.01 578 1679.51C584.33 1675.01 596.48 1666.45 605 1660.49C613.52 1654.53 627.92 1644.4 637 1637.97C652.66 1626.89 719.54 1579.82 780.5 1536.97C795.9 1526.14 820.2 1509.05 834.5 1498.97C863.86 1478.3 902.05 1451.44 937.5 1426.52C950.7 1417.24 979.05 1397.28 1000.5 1382.16C1021.95 1367.04 1041.75 1353.1 1044.5 1351.18C1047.25 1349.26 1059.85 1340.41 1072.5 1331.51C1085.15 1322.61 1109.9 1305.21 1127.5 1292.83C1145.1 1280.45 1171.2 1262.08 1185.5 1252C1199.8 1241.92 1218.03 1229.11 1226 1223.54C1244.75 1210.45 1293.87 1175.94 1315 1161.01C1328.51 1151.47 1366.23 1124.98 1406.5 1096.77C1414.84 1090.92 1537.65 1004.75 1547 998.18C1550.58 995.67 1558.67 990.03 1565 985.66C1571.33 981.28 1582.35 973.57 1589.5 968.52C1609.29 954.53 1713.98 881.49 1754.11 853.68C1773.69 840.11 1790.61 829 1791.7 829C1796.43 829 1798.88 837.13 1795.24 840.75C1794.27 841.71 1779.84 852.17 1763.17 864C1746.5 875.83 1730.3 887.34 1727.18 889.58C1721.12 893.93 1703.39 906.46 1661.5 936C1647.2 946.08 1631.9 956.9 1627.5 960.03C1612.51 970.73 1555.92 1010.67 1513.5 1040.5C1501.02 1049.28 1422.64 1104.56 1398 1121.97C1367.18 1143.75 1343.87 1160.18 1315.5 1180.16C1297.9 1192.56 1271.8 1210.94 1257.5 1221.01C1228.98 1241.11 1202.27 1259.91 1159.5 1290.01C1144.1 1300.85 1118.22 1319.08 1102 1330.51C1085.78 1341.95 1070.25 1352.88 1067.5 1354.81C1064.75 1356.73 1058.9 1360.88 1054.5 1364.02C1050.1 1367.17 1025.8 1384.28 1000.5 1402.05C975.2 1419.83 938.52 1445.62 919 1459.37C863.24 1498.65 852.39 1506.29 822 1527.67C798.34 1544.32 763.05 1569.19 739.5 1585.82C714.52 1603.46 680.78 1627.23 668.5 1635.82C660.25 1641.6 642.02 1654.44 628 1664.35C597.58 1685.85 590.63 1690.75 528.5 1734.51C502.1 1753.1 471.5 1774.7 460.5 1782.5C449.5 1790.29 428.8 1804.93 414.5 1815.01C359.43 1853.85 309.61 1889.11 309.08 1889.6C306.91 1891.66 313.68 1889.65 336.62 1881.4C351.4 1876.08 371.38 1868.92 381 1865.49C390.62 1862.06 414.02 1853.61 433 1846.72C451.98 1839.82 475.82 1831.19 486 1827.53C496.18 1823.88 507.43 1819.81 511 1818.49C514.58 1817.18 531.9 1810.95 549.5 1804.65C567.1 1798.34 609.4 1783.06 643.5 1770.69C725.51 1740.93 759.44 1728.65 789 1718.01C802.48 1713.16 815.98 1708.26 819 1707.13C822.02 1705.99 844.98 1697.67 870 1688.64C927.57 1667.87 1021.77 1633.78 1029 1631.1C1032.03 1629.98 1055.2 1621.6 1080.5 1612.49C1105.8 1603.37 1131.22 1594.18 1137 1592.05C1142.78 1589.93 1153.12 1586.16 1160 1583.67C1199.37 1569.4 1233.79 1556.97 1250.5 1550.99C1260.95 1547.25 1289.97 1536.76 1315 1527.69C1340.03 1518.62 1384.94 1502.36 1414.81 1491.56C1444.68 1480.77 1470.78 1471.3 1472.81 1470.51C1476.69 1469.01 1543.91 1444.78 1564.5 1437.46C1571.1 1435.11 1601.03 1424.33 1631 1413.49C1660.97 1402.66 1699.67 1388.7 1717 1382.46C1734.33 1376.23 1753.67 1369.24 1760 1366.95C1766.33 1364.65 1776.9 1360.83 1783.5 1358.47C1790.1 1356.11 1805.17 1350.71 1817 1346.47C1828.83 1342.23 1850.2 1334.59 1864.5 1329.49C1894.11 1318.93 1997.43 1282.03 2015.5 1275.57C2031.97 1269.68 2032.57 1269.57 2034.98 1271.98C2036.09 1273.09 2037 1274.7 2037 1275.55C2037 1278.37 2034.01 1282.94 2031.23 1284.37C2028.54 1285.76 1967.26 1308.37 1922.5 1324.49C1909.85 1329.05 1897.7 1333.48 1895.5 1334.33C1893.3 1335.18 1883.17 1338.88 1873 1342.56C1862.83 1346.24 1845.95 1352.37 1835.5 1356.18C1825.05 1360 1807.95 1366.19 1797.5 1369.94C1787.05 1373.69 1769.28 1380.15 1758 1384.3C1746.72 1388.44 1715.45 1399.79 1688.5 1409.53C1661.55 1419.26 1633.65 1429.38 1626.5 1432.03C1619.35 1434.68 1597.3 1442.7 1577.5 1449.86C1557.7 1457.01 1534.75 1465.34 1526.5 1468.35C1518.25 1471.36 1498.22 1478.63 1482 1484.49C1448.15 1496.72 1413.34 1509.34 1342.5 1535.06C1315 1545.04 1284.62 1556.03 1275 1559.49C1245.29 1570.17 1154.78 1602.98 1149.5 1604.99C1146.75 1606.04 1131.45 1611.6 1115.5 1617.35C1059.75 1637.46 980.38 1666.22 966 1671.52C958.02 1674.46 937.55 1681.9 920.5 1688.06C903.45 1694.23 883.42 1701.49 876 1704.21C868.58 1706.93 858.9 1710.42 854.5 1711.96C850.1 1713.5 841.55 1716.57 835.5 1718.8C829.45 1721.02 808.98 1728.45 790 1735.32C707.76 1765.1 640.63 1789.45 629.5 1793.54C615 1798.87 451.39 1858.28 413.5 1871.97C391.47 1879.93 321.67 1905.45 304.25 1911.91C301.91 1912.78 300 1913.76 300 1914.09C300 1915.75 465.65 1916.08 1288.39 1916.1C1897.35 1916.11 2181.61 1915.79 2182.31 1915.09C2183.01 1914.39 2177.35 1907.96 2164.41 1894.78C2136.83 1866.7 2131.58 1860 2132.19 1853.69C2132.46 1850.94 2132.93 1850.46 2135.58 1850.2C2137.91 1849.97 2139.99 1850.89 2144.08 1853.96C2162.52 1867.78 2202.44 1908.86 2208.43 1920.19L2210.37 1923.84L2207.7 1927.88C2196.98 1944.07 2142.63 1998 2137.03 1998C2136.13 1998 2134.86 1997.46 2134.2 1996.8ZM2267.75 1987.35C2266.2 1987.08 2265 1986.22 2265 1985.38C2265 1984.55 2268.72 1979.75 2273.26 1974.69C2282.82 1964.05 2292.01 1952.32 2300.95 1939.36L2307.25 1930.21L2302.94 1922.11C2294.22 1905.76 2276.92 1884.83 2268.07 1879.95C2260.86 1875.96 2261.67 1875.34 2275.07 1874.54C2288.31 1873.75 2312 1874.73 2312 1876.08C2312 1876.54 2310.43 1878.17 2308.5 1879.71C2306.58 1881.24 2305 1883.14 2305 1883.91C2305 1887.2 2318.68 1910 2320.65 1910C2323.28 1910 2337 1889.3 2337 1885.33C2337 1884.09 2335.59 1881.46 2333.87 1879.5C2332.14 1877.54 2331.06 1875.61 2331.45 1875.22C2332.74 1873.93 2361.3 1874.51 2363.81 1875.88C2366.71 1877.46 2365.38 1879.47 2360.85 1880.38C2358.82 1880.79 2355.62 1883.2 2351.61 1887.35C2344.33 1894.88 2327.04 1918.74 2327.02 1921.28C2327 1923.34 2341.91 1945.95 2352.88 1960.5C2363.49 1974.57 2368.46 1979.63 2373.59 1981.59C2376.02 1982.51 2378 1983.64 2378 1984.1C2378 1986.71 2372.72 1987.38 2351.8 1987.44C2325.69 1987.51 2324.78 1987.18 2332.67 1980.35L2337.84 1975.88L2331.63 1965.37C2323.68 1951.91 2314.92 1940 2313 1940.03C2311.14 1940.06 2298.83 1957.33 2293.7 1967.1C2288.95 1976.14 2288.95 1980 2293.7 1981.53C2298.18 1982.98 2298.52 1983.61 2295.79 1985.4C2293.34 1987.01 2273.58 1988.38 2267.75 1987.35ZM2069.53 1319.05C2068.65 1317.62 2068.52 1317.74 2073.59 1315.18C2079.82 1312.05 2083.68 1307.07 2084.36 1301.34C2086.5 1283.07 2085.5 1182.61 2083.08 1172.58C2081.41 1165.65 2079.1 1163.59 2072.15 1162.81C2065.31 1162.04 2064 1161.51 2064 1159.51C2064 1157.21 2073.81 1156.49 2104 1156.61C2131.85 1156.72 2154.23 1158.03 2164.42 1160.15C2176.27 1162.62 2188.59 1170.97 2194.81 1180.75C2206.26 1198.73 2201.01 1219.11 2181.46 1232.57C2178.46 1234.64 2176 1236.7 2176 1237.16C2176 1237.61 2180.16 1239.94 2185.25 1242.32C2198.55 1248.55 2204.4 1255.62 2207.11 1268.74C2210.31 1284.26 2201.3 1302.33 2185.2 1312.71C2175.85 1318.73 2172.01 1319.13 2118.38 1319.72C2081.91 1320.11 2070.09 1319.95 2069.53 1319.05ZM2147.17 1310.55C2160.33 1307.76 2171.93 1299.94 2176.73 1290.64C2183.32 1277.86 2177.66 1259.05 2164.67 1250.52C2156.7 1245.29 2146.47 1243.28 2118.75 1241.5L2109 1240.88L2109 1274.47C2109 1301.29 2109.26 1308.16 2110.31 1308.57C2113.7 1309.87 2127.21 1311.79 2133.5 1311.87C2137.35 1311.92 2143.5 1311.33 2147.17 1310.55ZM2156.79 1228.42C2162.7 1225.47 2169.06 1218.75 2172.67 1211.66C2177.38 1202.37 2175.36 1189.9 2167.47 1179.55C2161.59 1171.85 2149.62 1166.68 2135 1165.54C2126.44 1164.88 2112.34 1166.26 2110.68 1167.92C2109.5 1169.1 2109.4 1222.8 2110.57 1228.25L2111.16 1231L2131.38 1231C2151.13 1231 2151.73 1230.94 2156.79 1228.42ZM1837.5 885.36C1826.53 884.59 1824 883.97 1824 882.05C1824 880.75 1825.02 880.03 1827.52 879.56C1837.74 877.64 1843.29 867.5 1876 790.93C1897.04 741.68 1907.39 719.66 1909.23 720.18C1911.73 720.89 1922.06 743.71 1953.51 818C1966.4 848.44 1976.11 867.8 1981.5 873.79C1985.32 878.03 1986.84 879 1990.56 879.56C1995.65 880.32 1996.64 881.22 1994.43 883.05C1992.52 884.64 1973.15 885.61 1950.97 885.23C1932.91 884.91 1931.13 883.99 1939.96 879.52C1945.48 876.72 1947 874.66 1947 869.96C1947 865.87 1942.28 851.89 1937.13 840.74L1933.08 831.97L1901.93 832.24L1870.78 832.5L1865.29 845.32C1854.8 869.82 1855.64 876.25 1869.81 879.98C1874.45 881.2 1874.92 882.98 1870.88 884.06C1867.71 884.9 1844.09 885.83 1837.5 885.36ZM1929.32 822.25C1929.56 821.84 1927.37 815.88 1924.46 809C1921.54 802.12 1915.82 788.4 1911.74 778.5C1907.25 767.61 1903.78 760.5 1902.96 760.5C1901.55 760.5 1876.09 817.95 1876.03 821.25C1876 822.87 1877.91 823 1902.44 823C1916.98 823 1929.08 822.66 1929.32 822.25ZM75.4 214.15C67.82 210.6 64.23 199.77 69.04 194.96C70.94 193.06 71.84 192.97 82.51 193.61C96.44 194.44 101.18 193.08 106.12 186.85C109.47 182.62 116.24 167.87 118.2 160.53L119.37 156.18L106.05 127.34C92.98 99.03 81.65 76.26 76.42 67.78C74.97 65.43 70.58 60.24 66.67 56.25L59.55 49L82.53 49.01C105.93 49.02 113.39 49.56 112.41 51.15C112.11 51.64 109.66 53.15 106.97 54.52C102.01 57.03 100 59.39 100 62.68C100.02 66.84 127.46 128.95 129.3 128.99C130.29 129 130.97 127.41 143.09 96.33C157.17 60.21 158.19 55 151.16 55C149.63 55 147.51 54.36 146.44 53.57C144.86 52.4 144.74 51.89 145.78 50.83C146.71 49.9 151.99 49.43 164.78 49.16L182.5 48.78L177.48 53.64C169.88 60.98 164.55 72.08 142.71 126C117.69 187.77 112.78 198.2 105.74 204.57C95.56 213.77 83.05 217.72 75.4 214.15Z" fill="#1e2749" fill-rule="evenodd"/>
</svg>
