<?xml version="1.0" encoding="UTF-8"?>
<!-- Generator: visioncortex VTracer 0.6.12 -->
<svg version="1.1" xmlns="http://www.w3.org/2000/svg" width="2430" height="537">
<path d="M0 0 C801.9 0 1603.8 0 2430 0 C2430 177.21 2430 354.42 2430 537 C1628.1 537 826.2 537 0 537 C0 359.79 0 182.58 0 0 Z " fill="#FEFEFE" transform="translate(0,0)"/>
<path d="M0 0 C0.8 -0 1.6 -0.01 2.42 -0.01 C5.09 -0.03 7.77 -0.02 10.45 -0.01 C12.38 -0.01 14.32 -0.02 16.26 -0.02 C21.58 -0.04 26.91 -0.03 32.24 -0.03 C37.98 -0.02 43.72 -0.03 49.46 -0.04 C60.71 -0.06 71.96 -0.06 83.21 -0.06 C92.35 -0.05 101.49 -0.05 110.64 -0.06 C111.29 -0.06 111.29 -0.06 114.57 -0.06 C117.21 -0.06 119.85 -0.07 122.49 -0.07 C140.22 -0.08 157.95 -0.08 175.68 -0.07 C176.38 -0.07 177.07 -0.07 177.79 -0.07 C183.42 -0.07 189.05 -0.07 194.68 -0.06 C216.65 -0.05 238.62 -0.06 260.6 -0.09 C285.28 -0.11 309.96 -0.13 334.64 -0.12 C347.71 -0.11 360.78 -0.12 373.85 -0.13 C384.98 -0.15 396.1 -0.15 407.23 -0.13 C412.9 -0.12 418.58 -0.12 424.26 -0.14 C429.46 -0.15 434.65 -0.15 439.84 -0.13 C441.73 -0.12 443.61 -0.13 445.5 -0.14 C448.05 -0.15 450.6 -0.14 453.15 -0.12 C453.89 -0.13 454.63 -0.14 455.39 -0.15 C458.6 -0.1 460.66 0.2 463.4 1.92 C465.53 5.31 465.5 8.34 465.45 12.22 C465.45 12.62 465.45 12.62 465.47 14.64 C465.48 17.33 465.46 20.02 465.45 22.72 C465.45 24.66 465.46 26.6 465.47 28.55 C465.48 33.9 465.47 39.25 465.46 44.61 C465.45 50.37 465.46 56.14 465.47 61.91 C465.48 73.22 465.47 84.52 465.46 95.83 C465.44 108.98 465.44 122.14 465.45 135.29 C465.45 159.47 465.44 183.65 465.41 207.82 C465.39 229.9 465.38 251.98 465.39 274.07 C465.4 279.72 465.4 285.37 465.4 291.03 C465.4 291.72 465.4 292.42 465.4 293.14 C465.41 311.57 465.4 330.01 465.39 348.45 C465.39 351.09 465.39 353.74 465.39 356.38 C465.39 357.68 465.39 358.98 465.39 360.32 C465.38 369.5 465.38 378.67 465.39 387.85 C465.39 399.03 465.39 410.21 465.37 421.39 C465.36 427.1 465.35 432.81 465.36 438.51 C465.37 443.73 465.36 448.95 465.34 454.17 C465.34 456.07 465.34 457.96 465.35 459.85 C465.35 462.42 465.34 464.98 465.33 467.54 C465.34 468.29 465.34 469.03 465.35 469.8 C465.32 472.75 465.06 475.11 463.89 477.84 C460.96 480.16 458.06 479.93 454.48 479.88 C454.1 479.88 454.1 479.88 452.15 479.89 C449.55 479.9 446.94 479.88 444.34 479.87 C442.46 479.87 440.59 479.87 438.71 479.88 C433.53 479.89 428.36 479.88 423.18 479.86 C417.61 479.84 412.03 479.85 406.46 479.86 C395.53 479.86 384.6 479.85 373.66 479.83 C360.93 479.8 348.2 479.8 335.47 479.8 C312.75 479.79 290.02 479.77 267.29 479.74 C245.25 479.7 223.21 479.68 201.17 479.68 C200.49 479.68 199.81 479.67 199.11 479.67 C195.7 479.67 192.28 479.67 188.86 479.67 C188.19 479.67 187.52 479.67 186.82 479.67 C185.46 479.67 184.1 479.67 182.74 479.67 C161.06 479.66 139.37 479.65 117.68 479.63 C111.34 479.62 105 479.62 98.65 479.61 C85.31 479.6 71.96 479.59 58.61 479.57 C53.09 479.56 47.58 479.56 42.06 479.55 C37 479.55 31.94 479.54 26.88 479.53 C25.05 479.53 23.23 479.53 21.41 479.53 C-7.75 479.53 -7.75 479.53 -12.05 477.38 C-13.22 473.87 -13.41 470.55 -13.61 466.9 C-13.65 466.14 -13.69 465.39 -13.73 464.62 C-14.19 455.78 -14.19 446.95 -14.17 438.1 C-14.17 436.21 -14.17 434.33 -14.17 432.44 C-14.18 427.3 -14.17 422.16 -14.17 417.02 C-14.16 411.47 -14.16 405.91 -14.17 400.35 C-14.17 390.73 -14.16 381.12 -14.16 371.5 C-14.15 357.6 -14.15 343.7 -14.15 329.8 C-14.14 307.24 -14.14 284.69 -14.13 262.13 C-14.12 240.22 -14.11 218.32 -14.11 196.42 C-14.11 195.74 -14.11 195.06 -14.11 194.37 C-14.1 187.58 -14.1 180.79 -14.1 174 C-14.09 117.13 -14.07 60.25 -14.05 3.38 C-9.31 0.57 -5.4 -0.05 0 0 Z " fill="#FEFEFE" transform="translate(993.0516605377197,35.619683265686035)"/>
<path d="M0 0 C0.4 -0 0.4 -0 2.42 -0.01 C5.1 -0.02 7.79 -0.02 10.48 -0.01 C12.42 -0.01 14.35 -0.02 16.29 -0.02 C21.64 -0.04 26.98 -0.04 32.32 -0.03 C38.08 -0.03 43.83 -0.04 49.59 -0.05 C60.87 -0.07 72.15 -0.08 83.43 -0.08 C92.6 -0.08 101.76 -0.08 110.93 -0.09 C132.67 -0.1 154.4 -0.12 176.14 -0.11 C176.84 -0.11 177.53 -0.11 178.25 -0.11 C181.77 -0.11 185.3 -0.11 188.82 -0.11 C189.17 -0.11 189.17 -0.11 190.94 -0.11 C192.36 -0.11 193.77 -0.11 195.19 -0.11 C217.22 -0.11 239.26 -0.13 261.29 -0.15 C286.03 -0.19 310.78 -0.2 335.52 -0.2 C348.63 -0.2 361.73 -0.21 374.84 -0.23 C385.99 -0.24 397.15 -0.25 408.3 -0.24 C414 -0.23 419.69 -0.23 425.39 -0.25 C430.6 -0.26 435.81 -0.26 441.01 -0.24 C442.9 -0.24 444.79 -0.24 446.68 -0.25 C449.24 -0.27 451.8 -0.26 454.36 -0.24 C455.1 -0.25 455.84 -0.26 456.61 -0.27 C459.83 -0.23 461.89 0.08 464.64 1.81 C466.74 5.15 466.73 8.1 466.67 11.93 C466.68 12.32 466.68 12.32 466.69 14.3 C466.7 16.94 466.68 19.57 466.67 22.2 C466.67 24.1 466.67 26.01 466.68 27.91 C466.69 33.14 466.68 38.38 466.66 43.62 C466.64 49.26 466.65 54.91 466.66 60.55 C466.66 71.61 466.65 82.68 466.62 93.74 C466.6 106.62 466.6 119.5 466.6 132.38 C466.59 155.37 466.57 178.36 466.54 201.34 C466.5 223.65 466.48 245.95 466.47 268.26 C466.47 268.95 466.47 269.63 466.47 270.34 C466.47 273.8 466.47 277.26 466.47 280.72 C466.47 281.06 466.47 281.06 466.47 282.78 C466.47 284.16 466.47 285.54 466.47 286.91 C466.46 308.85 466.44 330.79 466.43 352.72 C466.42 359.14 466.42 365.56 466.41 371.98 C466.4 385.49 466.39 398.99 466.37 412.5 C466.36 418.08 466.35 423.67 466.35 429.25 C466.35 434.37 466.34 439.48 466.33 444.6 C466.33 446.45 466.33 448.3 466.33 450.14 C466.33 471.81 466.33 471.81 465.18 477.26 C462.72 479.71 461.37 479.5 458.02 479.52 C457.3 479.52 456.57 479.51 455.82 479.51 C455.05 479.51 454.28 479.51 453.49 479.51 C450.88 479.52 448.27 479.51 445.66 479.5 C443.78 479.51 441.9 479.51 440.02 479.51 C434.83 479.52 429.65 479.51 424.46 479.5 C418.87 479.5 413.29 479.5 407.7 479.51 C396.75 479.51 385.79 479.51 374.84 479.5 C362.08 479.49 349.32 479.49 336.56 479.49 C313.09 479.49 289.63 479.48 266.16 479.46 C244.76 479.45 223.36 479.44 201.95 479.44 C200.58 479.44 199.21 479.44 197.84 479.44 C197.16 479.44 196.48 479.44 195.78 479.44 C192.37 479.44 188.95 479.44 185.54 479.44 C185.2 479.44 185.2 479.44 183.49 479.44 C161.76 479.44 140.03 479.44 118.29 479.43 C109.4 479.43 100.52 479.42 91.63 479.42 C80.78 479.42 69.94 479.42 59.09 479.41 C53.56 479.41 48.03 479.4 42.5 479.4 C37.42 479.4 32.35 479.4 27.28 479.39 C25.45 479.39 23.63 479.39 21.8 479.39 C-2.3 479.41 -2.3 479.41 -10.82 478.26 C-13.27 475.81 -13.06 474.47 -13.09 471.13 C-13.08 470.4 -13.08 469.68 -13.07 468.94 C-13.07 468.17 -13.08 467.41 -13.08 466.62 C-13.08 464.02 -13.08 461.42 -13.07 458.83 C-13.07 456.96 -13.07 455.09 -13.08 453.22 C-13.08 448.06 -13.08 442.9 -13.07 437.74 C-13.06 432.18 -13.07 426.62 -13.07 421.07 C-13.07 410.17 -13.07 399.27 -13.06 388.37 C-13.05 375.67 -13.05 362.97 -13.05 350.28 C-13.05 326.92 -13.04 303.57 -13.03 280.21 C-13.01 258.92 -13.01 237.62 -13.01 216.33 C-13.01 214.96 -13.01 213.6 -13.01 212.23 C-13.01 211.56 -13.01 210.88 -13.01 210.19 C-13.01 206.79 -13.01 203.39 -13.01 200 C-13.01 199.33 -13.01 198.66 -13.01 197.97 C-13.01 176.33 -13 154.7 -12.99 133.07 C-12.99 124.23 -12.99 115.39 -12.99 106.55 C-12.99 95.76 -12.98 84.96 -12.97 74.17 C-12.97 68.66 -12.97 63.16 -12.97 57.66 C-12.97 52.61 -12.96 47.56 -12.96 42.51 C-12.96 40.7 -12.96 38.88 -12.96 37.07 C-12.97 25.43 -12.59 13.87 -11.82 2.26 C-8.06 -0.19 -4.32 -0.02 0 0 Z " fill="#FEFEFE" transform="translate(34.82118225097656,35.74273109436035)"/>
<path d="M0 0 C0.75 -0 1.5 -0.01 2.27 -0.01 C4.81 -0.01 7.34 -0.01 9.88 0 C11.71 0 13.53 -0 15.36 -0.01 C20.4 -0.01 25.44 -0.01 30.48 0 C35.91 0.01 41.34 0 46.77 0 C57.42 -0 68.07 0 78.72 0.01 C91.14 0.02 103.55 0.02 115.97 0.02 C138.82 0.02 161.66 0.03 184.51 0.04 C205.32 0.06 226.14 0.06 246.95 0.06 C248.27 0.06 249.59 0.06 250.95 0.06 C251.6 0.06 251.6 0.06 254.94 0.06 C279.42 0.06 303.9 0.07 328.38 0.08 C337.01 0.08 345.65 0.08 354.28 0.08 C364.84 0.08 375.39 0.09 385.95 0.1 C391.32 0.1 396.7 0.1 402.08 0.1 C423.31 0.1 444.51 0.13 465.72 1.25 C468.16 5 468 8.72 467.97 13.04 C467.97 13.83 467.98 14.62 467.98 15.44 C467.99 18.11 467.98 20.79 467.97 23.46 C467.97 25.39 467.97 27.32 467.98 29.25 C467.98 34.57 467.98 39.89 467.97 45.21 C467.96 50.94 467.97 56.66 467.97 62.39 C467.98 73.62 467.97 84.85 467.96 96.08 C467.95 109.15 467.95 122.22 467.95 135.29 C467.95 159.31 467.94 183.32 467.93 207.34 C467.91 229.27 467.91 251.21 467.91 273.14 C467.91 274.55 467.91 275.96 467.91 277.36 C467.91 277.71 467.91 277.71 467.91 279.47 C467.91 282.98 467.91 286.48 467.91 289.99 C467.91 290.68 467.91 291.37 467.91 292.08 C467.91 314.33 467.9 336.58 467.89 358.82 C467.89 367.94 467.89 377.05 467.89 386.17 C467.89 397.28 467.88 408.38 467.88 419.49 C467.87 425.16 467.87 430.83 467.87 436.5 C467.87 441.68 467.87 446.87 467.86 452.05 C467.86 453.93 467.86 455.81 467.86 457.69 C467.86 460.24 467.86 462.79 467.85 465.34 C467.85 466.07 467.86 466.81 467.86 467.57 C467.84 471.24 467.78 474.72 466.72 478.25 C463.67 479.78 460.48 479.39 457.13 479.39 C456.34 479.39 455.54 479.39 454.72 479.39 C452.03 479.4 449.33 479.4 446.63 479.4 C444.69 479.41 442.75 479.41 440.81 479.42 C435.46 479.43 430.1 479.43 424.74 479.44 C418.98 479.44 413.21 479.46 407.44 479.47 C393.5 479.49 379.56 479.51 365.62 479.52 C361.69 479.52 357.75 479.53 353.82 479.53 C329.41 479.56 305 479.58 280.58 479.59 C274.93 479.59 269.27 479.6 263.61 479.6 C263.26 479.6 263.26 479.6 261.48 479.6 C238.69 479.61 215.89 479.64 193.1 479.68 C169.01 479.73 144.92 479.75 120.83 479.76 C107.69 479.76 94.55 479.78 81.42 479.81 C70.23 479.84 59.05 479.85 47.87 479.84 C42.16 479.83 36.45 479.83 30.74 479.86 C25.51 479.88 20.29 479.88 15.07 479.86 C13.17 479.86 11.28 479.86 9.39 479.88 C6.82 479.9 4.25 479.89 1.69 479.87 C0.95 479.88 0.2 479.89 -0.56 479.91 C-4.26 479.84 -6.18 479.32 -9.24 477.2 C-11.76 473.56 -11.97 470.76 -11.9 466.48 C-11.9 465.7 -11.91 464.93 -11.91 464.12 C-11.93 461.5 -11.91 458.88 -11.89 456.26 C-11.89 454.37 -11.89 452.48 -11.9 450.59 C-11.91 445.38 -11.9 440.17 -11.87 434.95 C-11.85 429.34 -11.86 423.72 -11.87 418.11 C-11.87 407.1 -11.86 396.09 -11.83 385.08 C-11.8 372.26 -11.79 359.45 -11.79 346.63 C-11.78 323.75 -11.75 300.87 -11.71 278 C-11.67 255.8 -11.64 233.61 -11.63 211.41 C-11.63 210.73 -11.63 210.05 -11.63 209.34 C-11.62 203.85 -11.62 198.35 -11.62 192.85 C-11.6 168.47 -11.58 144.08 -11.55 119.7 C-11.55 115.86 -11.55 112.02 -11.54 108.19 C-11.53 94.75 -11.51 81.31 -11.49 67.88 C-11.48 62.32 -11.47 56.76 -11.46 51.2 C-11.46 46.11 -11.45 41.02 -11.44 35.93 C-11.43 34.09 -11.43 32.26 -11.43 30.42 C-11.42 7.13 -11.42 7.13 -10.28 2.25 C-6.69 -0.14 -4.14 -0.03 0 0 Z " fill="#FEFEFE" transform="translate(1935.2774820327759,29.751111030578613)"/>
<path d="M0 0 C0.75 -0 1.5 -0.01 2.27 -0.01 C4.81 -0.01 7.34 -0.01 9.88 0 C11.71 0 13.53 -0 15.36 -0.01 C20.4 -0.01 25.44 -0.01 30.48 0 C35.91 0.01 41.34 0 46.77 0 C57.42 -0 68.07 0 78.72 0.01 C91.14 0.02 103.55 0.02 115.97 0.02 C138.82 0.02 161.66 0.03 184.51 0.04 C205.32 0.06 226.14 0.06 246.95 0.06 C248.27 0.06 249.59 0.06 250.95 0.06 C251.6 0.06 251.6 0.06 254.94 0.06 C279.42 0.06 303.9 0.07 328.38 0.08 C337.01 0.08 345.65 0.08 354.28 0.08 C364.84 0.08 375.39 0.09 385.95 0.1 C391.32 0.1 396.7 0.1 402.08 0.1 C423.31 0.1 444.51 0.13 465.72 1.25 C468.16 5 468 8.72 467.97 13.04 C467.97 13.83 467.98 14.62 467.98 15.44 C467.99 18.11 467.98 20.79 467.97 23.46 C467.97 25.39 467.97 27.32 467.98 29.25 C467.98 34.57 467.98 39.89 467.97 45.21 C467.96 50.94 467.97 56.66 467.97 62.39 C467.98 73.62 467.97 84.85 467.96 96.08 C467.95 109.15 467.95 122.22 467.95 135.29 C467.95 159.31 467.94 183.32 467.93 207.34 C467.91 229.27 467.91 251.21 467.91 273.14 C467.91 274.55 467.91 275.96 467.91 277.36 C467.91 277.71 467.91 277.71 467.91 279.47 C467.91 282.98 467.91 286.48 467.91 289.99 C467.91 290.68 467.91 291.37 467.91 292.08 C467.91 314.33 467.9 336.58 467.89 358.82 C467.89 367.94 467.89 377.05 467.89 386.17 C467.89 397.28 467.88 408.38 467.88 419.49 C467.87 425.16 467.87 430.83 467.87 436.5 C467.87 441.68 467.87 446.87 467.86 452.05 C467.86 453.93 467.86 455.81 467.86 457.69 C467.86 460.24 467.86 462.79 467.85 465.34 C467.85 466.07 467.86 466.81 467.86 467.57 C467.84 471.24 467.78 474.72 466.72 478.25 C463.67 479.78 460.48 479.39 457.13 479.39 C456.34 479.39 455.54 479.39 454.72 479.39 C452.03 479.4 449.33 479.4 446.63 479.4 C444.69 479.41 442.75 479.41 440.81 479.42 C435.46 479.43 430.1 479.43 424.74 479.44 C418.98 479.44 413.21 479.46 407.44 479.47 C393.5 479.49 379.56 479.51 365.62 479.52 C361.69 479.52 357.75 479.53 353.82 479.53 C329.41 479.56 305 479.58 280.58 479.59 C274.93 479.59 269.27 479.6 263.61 479.6 C263.26 479.6 263.26 479.6 261.48 479.6 C238.69 479.61 215.89 479.64 193.1 479.68 C169.01 479.73 144.92 479.75 120.83 479.76 C107.69 479.76 94.55 479.78 81.42 479.81 C70.23 479.84 59.05 479.85 47.87 479.84 C42.16 479.83 36.45 479.83 30.74 479.86 C25.51 479.88 20.29 479.88 15.07 479.86 C13.17 479.86 11.28 479.86 9.39 479.88 C6.82 479.9 4.25 479.89 1.69 479.87 C0.95 479.88 0.2 479.89 -0.56 479.91 C-4.26 479.84 -6.18 479.32 -9.24 477.2 C-11.76 473.56 -11.97 470.76 -11.9 466.48 C-11.9 465.7 -11.91 464.93 -11.91 464.12 C-11.93 461.5 -11.91 458.88 -11.89 456.26 C-11.89 454.37 -11.89 452.48 -11.9 450.59 C-11.91 445.38 -11.9 440.17 -11.87 434.95 C-11.85 429.34 -11.86 423.72 -11.87 418.11 C-11.87 407.1 -11.86 396.09 -11.83 385.08 C-11.8 372.26 -11.79 359.45 -11.79 346.63 C-11.78 323.75 -11.75 300.87 -11.71 278 C-11.67 255.8 -11.64 233.61 -11.63 211.41 C-11.63 210.73 -11.63 210.05 -11.63 209.34 C-11.62 203.85 -11.62 198.35 -11.62 192.85 C-11.6 168.47 -11.58 144.08 -11.55 119.7 C-11.55 115.86 -11.55 112.02 -11.54 108.19 C-11.53 94.75 -11.51 81.31 -11.49 67.88 C-11.48 62.32 -11.47 56.76 -11.46 51.2 C-11.46 46.11 -11.45 41.02 -11.44 35.93 C-11.43 34.09 -11.43 32.26 -11.43 30.42 C-11.42 7.13 -11.42 7.13 -10.28 2.25 C-6.69 -0.14 -4.14 -0.03 0 0 Z M2.72 13.25 C2.72 162.41 2.72 311.57 2.72 465.25 C151.88 465.25 301.04 465.25 454.72 465.25 C454.72 316.09 454.72 166.93 454.72 13.25 C305.56 13.25 156.4 13.25 2.72 13.25 Z " fill="#3E7BF0" transform="translate(1935.2774820327759,29.751111030578613)"/>
<path d="M0 0 C0.8 -0 1.6 -0.01 2.42 -0.01 C5.09 -0.03 7.77 -0.02 10.45 -0.01 C12.38 -0.01 14.32 -0.02 16.26 -0.02 C21.58 -0.04 26.91 -0.03 32.24 -0.03 C37.98 -0.02 43.72 -0.03 49.46 -0.04 C60.71 -0.06 71.96 -0.06 83.21 -0.06 C92.35 -0.05 101.49 -0.05 110.64 -0.06 C111.29 -0.06 111.29 -0.06 114.57 -0.06 C117.21 -0.06 119.85 -0.07 122.49 -0.07 C140.22 -0.08 157.95 -0.08 175.68 -0.07 C176.38 -0.07 177.07 -0.07 177.79 -0.07 C183.42 -0.07 189.05 -0.07 194.68 -0.06 C216.65 -0.05 238.62 -0.06 260.6 -0.09 C285.28 -0.11 309.96 -0.13 334.64 -0.12 C347.71 -0.11 360.78 -0.12 373.85 -0.13 C384.98 -0.15 396.1 -0.15 407.23 -0.13 C412.9 -0.12 418.58 -0.12 424.26 -0.14 C429.46 -0.15 434.65 -0.15 439.84 -0.13 C441.73 -0.12 443.61 -0.13 445.5 -0.14 C448.05 -0.15 450.6 -0.14 453.15 -0.12 C453.89 -0.13 454.63 -0.14 455.39 -0.15 C458.6 -0.1 460.66 0.2 463.4 1.92 C465.53 5.31 465.5 8.34 465.45 12.22 C465.45 12.62 465.45 12.62 465.47 14.64 C465.48 17.33 465.46 20.02 465.45 22.72 C465.45 24.66 465.46 26.6 465.47 28.55 C465.48 33.9 465.47 39.25 465.46 44.61 C465.45 50.37 465.46 56.14 465.47 61.91 C465.48 73.22 465.47 84.52 465.46 95.83 C465.44 108.98 465.44 122.14 465.45 135.29 C465.45 159.47 465.44 183.65 465.41 207.82 C465.39 229.9 465.38 251.98 465.39 274.07 C465.4 279.72 465.4 285.37 465.4 291.03 C465.4 291.72 465.4 292.42 465.4 293.14 C465.41 311.57 465.4 330.01 465.39 348.45 C465.39 351.09 465.39 353.74 465.39 356.38 C465.39 357.68 465.39 358.98 465.39 360.32 C465.38 369.5 465.38 378.67 465.39 387.85 C465.39 399.03 465.39 410.21 465.37 421.39 C465.36 427.1 465.35 432.81 465.36 438.51 C465.37 443.73 465.36 448.95 465.34 454.17 C465.34 456.07 465.34 457.96 465.35 459.85 C465.35 462.42 465.34 464.98 465.33 467.54 C465.34 468.29 465.34 469.03 465.35 469.8 C465.32 472.75 465.06 475.11 463.89 477.84 C460.96 480.16 458.06 479.93 454.48 479.88 C454.1 479.88 454.1 479.88 452.15 479.89 C449.55 479.9 446.94 479.88 444.34 479.87 C442.46 479.87 440.59 479.87 438.71 479.88 C433.53 479.89 428.36 479.88 423.18 479.86 C417.61 479.84 412.03 479.85 406.46 479.86 C395.53 479.86 384.6 479.85 373.66 479.83 C360.93 479.8 348.2 479.8 335.47 479.8 C312.75 479.79 290.02 479.77 267.29 479.74 C245.25 479.7 223.21 479.68 201.17 479.68 C200.49 479.68 199.81 479.67 199.11 479.67 C195.7 479.67 192.28 479.67 188.86 479.67 C188.19 479.67 187.52 479.67 186.82 479.67 C185.46 479.67 184.1 479.67 182.74 479.67 C161.06 479.66 139.37 479.65 117.68 479.63 C111.34 479.62 105 479.62 98.65 479.61 C85.31 479.6 71.96 479.59 58.61 479.57 C53.09 479.56 47.58 479.56 42.06 479.55 C37 479.55 31.94 479.54 26.88 479.53 C25.05 479.53 23.23 479.53 21.41 479.53 C-7.75 479.53 -7.75 479.53 -12.05 477.38 C-13.22 473.87 -13.41 470.55 -13.61 466.9 C-13.65 466.14 -13.69 465.39 -13.73 464.62 C-14.19 455.78 -14.19 446.95 -14.17 438.1 C-14.17 436.21 -14.17 434.33 -14.17 432.44 C-14.18 427.3 -14.17 422.16 -14.17 417.02 C-14.16 411.47 -14.16 405.91 -14.17 400.35 C-14.17 390.73 -14.16 381.12 -14.16 371.5 C-14.15 357.6 -14.15 343.7 -14.15 329.8 C-14.14 307.24 -14.14 284.69 -14.13 262.13 C-14.12 240.22 -14.11 218.32 -14.11 196.42 C-14.11 195.74 -14.11 195.06 -14.11 194.37 C-14.1 187.58 -14.1 180.79 -14.1 174 C-14.09 117.13 -14.07 60.25 -14.05 3.38 C-9.31 0.57 -5.4 -0.05 0 0 Z M-1.05 13.38 C-1.05 162.87 -1.05 312.36 -1.05 466.38 C148.44 466.38 297.93 466.38 451.95 466.38 C451.95 316.89 451.95 167.4 451.95 13.38 C302.46 13.38 152.97 13.38 -1.05 13.38 Z " fill="#3A78F0" transform="translate(993.0516605377197,35.619683265686035)"/>
<path d="M0 0 C0.4 -0 0.4 -0 2.42 -0.01 C5.1 -0.02 7.79 -0.02 10.48 -0.01 C12.42 -0.01 14.35 -0.02 16.29 -0.02 C21.64 -0.04 26.98 -0.04 32.32 -0.03 C38.08 -0.03 43.83 -0.04 49.59 -0.05 C60.87 -0.07 72.15 -0.08 83.43 -0.08 C92.6 -0.08 101.76 -0.08 110.93 -0.09 C132.67 -0.1 154.4 -0.12 176.14 -0.11 C176.84 -0.11 177.53 -0.11 178.25 -0.11 C181.77 -0.11 185.3 -0.11 188.82 -0.11 C189.17 -0.11 189.17 -0.11 190.94 -0.11 C192.36 -0.11 193.77 -0.11 195.19 -0.11 C217.22 -0.11 239.26 -0.13 261.29 -0.15 C286.03 -0.19 310.78 -0.2 335.52 -0.2 C348.63 -0.2 361.73 -0.21 374.84 -0.23 C385.99 -0.24 397.15 -0.25 408.3 -0.24 C414 -0.23 419.69 -0.23 425.39 -0.25 C430.6 -0.26 435.81 -0.26 441.01 -0.24 C442.9 -0.24 444.79 -0.24 446.68 -0.25 C449.24 -0.27 451.8 -0.26 454.36 -0.24 C455.1 -0.25 455.84 -0.26 456.61 -0.27 C459.83 -0.23 461.89 0.08 464.64 1.81 C466.74 5.15 466.73 8.1 466.67 11.93 C466.68 12.32 466.68 12.32 466.69 14.3 C466.7 16.94 466.68 19.57 466.67 22.2 C466.67 24.1 466.67 26.01 466.68 27.91 C466.69 33.14 466.68 38.38 466.66 43.62 C466.64 49.26 466.65 54.91 466.66 60.55 C466.66 71.61 466.65 82.68 466.62 93.74 C466.6 106.62 466.6 119.5 466.6 132.38 C466.59 155.37 466.57 178.36 466.54 201.34 C466.5 223.65 466.48 245.95 466.47 268.26 C466.47 268.95 466.47 269.63 466.47 270.34 C466.47 273.8 466.47 277.26 466.47 280.72 C466.47 281.06 466.47 281.06 466.47 282.78 C466.47 284.16 466.47 285.54 466.47 286.91 C466.46 308.85 466.44 330.79 466.43 352.72 C466.42 359.14 466.42 365.56 466.41 371.98 C466.4 385.49 466.39 398.99 466.37 412.5 C466.36 418.08 466.35 423.67 466.35 429.25 C466.35 434.37 466.34 439.48 466.33 444.6 C466.33 446.45 466.33 448.3 466.33 450.14 C466.33 471.81 466.33 471.81 465.18 477.26 C462.72 479.71 461.37 479.5 458.02 479.52 C457.3 479.52 456.57 479.51 455.82 479.51 C455.05 479.51 454.28 479.51 453.49 479.51 C450.88 479.52 448.27 479.51 445.66 479.5 C443.78 479.51 441.9 479.51 440.02 479.51 C434.83 479.52 429.65 479.51 424.46 479.5 C418.87 479.5 413.29 479.5 407.7 479.51 C396.75 479.51 385.79 479.51 374.84 479.5 C362.08 479.49 349.32 479.49 336.56 479.49 C313.09 479.49 289.63 479.48 266.16 479.46 C244.76 479.45 223.36 479.44 201.95 479.44 C200.58 479.44 199.21 479.44 197.84 479.44 C197.16 479.44 196.48 479.44 195.78 479.44 C192.37 479.44 188.95 479.44 185.54 479.44 C185.2 479.44 185.2 479.44 183.49 479.44 C161.76 479.44 140.03 479.44 118.29 479.43 C109.4 479.43 100.52 479.42 91.63 479.42 C80.78 479.42 69.94 479.42 59.09 479.41 C53.56 479.41 48.03 479.4 42.5 479.4 C37.42 479.4 32.35 479.4 27.28 479.39 C25.45 479.39 23.63 479.39 21.8 479.39 C-2.3 479.41 -2.3 479.41 -10.82 478.26 C-13.27 475.81 -13.06 474.47 -13.09 471.13 C-13.08 470.4 -13.08 469.68 -13.07 468.94 C-13.07 468.17 -13.08 467.41 -13.08 466.62 C-13.08 464.02 -13.08 461.42 -13.07 458.83 C-13.07 456.96 -13.07 455.09 -13.08 453.22 C-13.08 448.06 -13.08 442.9 -13.07 437.74 C-13.06 432.18 -13.07 426.62 -13.07 421.07 C-13.07 410.17 -13.07 399.27 -13.06 388.37 C-13.05 375.67 -13.05 362.97 -13.05 350.28 C-13.05 326.92 -13.04 303.57 -13.03 280.21 C-13.01 258.92 -13.01 237.62 -13.01 216.33 C-13.01 214.96 -13.01 213.6 -13.01 212.23 C-13.01 211.56 -13.01 210.88 -13.01 210.19 C-13.01 206.79 -13.01 203.39 -13.01 200 C-13.01 199.33 -13.01 198.66 -13.01 197.97 C-13.01 176.33 -13 154.7 -12.99 133.07 C-12.99 124.23 -12.99 115.39 -12.99 106.55 C-12.99 95.76 -12.98 84.96 -12.97 74.17 C-12.97 68.66 -12.97 63.16 -12.97 57.66 C-12.97 52.61 -12.96 47.56 -12.96 42.51 C-12.96 40.7 -12.96 38.88 -12.96 37.07 C-12.97 25.43 -12.59 13.87 -11.82 2.26 C-8.06 -0.19 -4.32 -0.02 0 0 Z M0.18 13.26 C0.18 162.75 0.18 312.24 0.18 466.26 C149.67 466.26 299.16 466.26 453.18 466.26 C453.18 316.77 453.18 167.28 453.18 13.26 C303.69 13.26 154.2 13.26 0.18 13.26 Z " fill="#3977F0" transform="translate(34.82118225097656,35.74273109436035)"/>
<path d="M0 0 C2.52 0.01 5.04 0 7.56 -0.01 C34.38 -0.02 34.38 -0.02 38.72 4.13 C39.22 6.46 39.22 6.46 39.22 9.26 C39.23 10.32 39.24 11.38 39.24 12.48 C39.23 13.64 39.22 14.81 39.21 16.01 C39.21 17.23 39.22 18.46 39.22 19.72 C39.23 23.09 39.22 26.45 39.2 29.81 C39.18 33.33 39.18 36.85 39.18 40.36 C39.18 46.27 39.16 52.17 39.14 58.08 C39.1 64.91 39.09 71.75 39.1 78.58 C39.1 85.15 39.09 91.71 39.07 98.28 C39.06 101.08 39.06 103.88 39.06 106.68 C39.06 110.58 39.04 114.48 39.01 118.38 C39.02 119.55 39.02 120.72 39.02 121.92 C39.01 122.98 39 124.04 38.99 125.13 C38.99 126.05 38.99 126.97 38.98 127.92 C38.72 130.13 38.72 130.13 36.72 132.13 C33.76 132.43 33.76 132.43 30.22 132.44 C29.06 132.46 27.89 132.48 26.69 132.49 C25.71 132.37 24.73 132.25 23.72 132.13 C21.19 128.32 21.37 125.16 21.31 120.74 C21.3 120.34 21.3 120.34 21.25 118.27 C21.19 115.66 21.15 113.05 21.1 110.44 C21.06 108.67 21.02 106.91 20.98 105.14 C20.89 100.8 20.8 96.47 20.72 92.13 C20.24 92.13 20.24 92.13 17.78 92.14 C-5.83 92.23 -29.44 92.3 -53.05 92.34 C-64.47 92.36 -75.88 92.39 -87.3 92.43 C-97.25 92.47 -107.2 92.5 -117.15 92.51 C-122.42 92.51 -127.69 92.52 -132.96 92.55 C-137.91 92.58 -142.87 92.59 -147.83 92.58 C-149.65 92.58 -151.47 92.59 -153.29 92.61 C-155.78 92.63 -158.26 92.62 -160.74 92.61 C-161.1 92.62 -161.1 92.62 -162.94 92.65 C-166.17 92.61 -167.84 92.55 -170.22 90.28 C-171.63 87.42 -171.66 85.22 -171.66 82.03 C-171.67 80.8 -171.68 79.57 -171.69 78.3 C-171.69 76.96 -171.68 75.62 -171.67 74.28 C-171.68 72.91 -171.68 71.53 -171.68 70.15 C-171.69 67.27 -171.68 64.39 -171.67 61.5 C-171.65 57.81 -171.66 54.12 -171.68 50.42 C-171.69 47.58 -171.68 44.74 -171.68 41.89 C-171.68 40.53 -171.68 39.17 -171.68 37.81 C-171.69 35.9 -171.68 34 -171.66 32.1 C-171.66 31.02 -171.66 29.93 -171.66 28.82 C-171.28 26.13 -171.28 26.13 -170.23 24.48 C-167.25 22.41 -164.2 22.73 -160.7 22.77 C-159.92 22.77 -159.14 22.76 -158.34 22.76 C-155.73 22.76 -153.11 22.77 -150.49 22.79 C-148.62 22.79 -146.75 22.79 -144.88 22.79 C-139.79 22.79 -134.7 22.81 -129.6 22.83 C-124.29 22.84 -118.97 22.85 -113.65 22.85 C-103.58 22.86 -93.51 22.88 -83.44 22.91 C-71.97 22.95 -60.51 22.96 -49.04 22.98 C-25.45 23.01 -1.86 23.06 21.72 23.13 C21.72 20.82 21.72 18.51 21.72 16.13 C21.13 16.13 20.53 16.14 19.92 16.14 C13.72 16.19 7.52 16.22 1.33 16.24 C-0.99 16.25 -3.3 16.26 -5.62 16.28 C-8.94 16.31 -12.26 16.32 -15.58 16.33 C-16.62 16.34 -17.66 16.35 -18.73 16.36 C-19.69 16.36 -20.65 16.36 -21.64 16.36 C-22.49 16.36 -23.34 16.37 -24.21 16.37 C-26.28 16.13 -26.28 16.13 -28.28 14.13 C-28.54 11.6 -28.54 11.6 -28.53 8.63 C-28.53 8.14 -28.53 8.14 -28.54 5.66 C-28.28 3.13 -28.28 3.13 -26.28 1.13 C-17.58 -0.23 -8.78 -0.02 0 0 Z " fill="#FEFEFE" transform="translate(1204.275634765625,210.86962890625)"/>
<path d="M0 0 C0.33 0 0.66 0 1 0 C1 6.27 1 12.54 1 19 C2.87 18.99 4.75 18.99 6.67 18.98 C24.29 18.92 41.9 18.87 59.52 18.84 C68.57 18.83 77.63 18.81 86.69 18.77 C94.58 18.74 102.47 18.72 110.36 18.72 C114.54 18.71 118.72 18.7 122.9 18.68 C126.84 18.66 130.77 18.66 134.7 18.66 C136.15 18.66 137.59 18.65 139.04 18.64 C141.01 18.63 142.98 18.63 144.94 18.64 C146.05 18.64 147.15 18.63 148.29 18.63 C151 19 151 19 152.85 20.35 C154.6 22.86 154.39 24.95 154.4 27.97 C154.41 28.58 154.41 28.58 154.44 31.69 C154.44 33.03 154.44 34.37 154.43 35.71 C154.44 37.09 154.44 38.47 154.45 39.84 C154.46 42.73 154.46 45.61 154.45 48.5 C154.43 52.19 154.45 55.88 154.48 59.58 C154.5 62.42 154.5 65.26 154.5 68.1 C154.5 69.46 154.5 70.83 154.51 72.19 C154.53 74.09 154.52 76 154.5 77.9 C154.5 78.99 154.5 80.07 154.5 81.19 C153.86 84.77 152.84 85.76 150 88 C147.2 88.49 147.2 88.49 143.9 88.48 C142.65 88.49 141.4 88.49 140.11 88.5 C138.73 88.48 137.34 88.47 135.96 88.45 C134.5 88.45 133.04 88.45 131.58 88.46 C127.63 88.46 123.67 88.43 119.71 88.41 C115.57 88.38 111.43 88.38 107.3 88.37 C99.46 88.36 91.63 88.33 83.8 88.29 C74.88 88.24 65.96 88.22 57.04 88.2 C38.69 88.16 20.35 88.09 2 88 C2 88.58 2 89.15 2 89.74 C2.01 92.37 2.01 95 2.01 97.63 C2.02 98.54 2.02 99.44 2.02 100.37 C2.02 106.35 1.91 112.29 1.5 118.25 C1.45 119.02 1.4 119.79 1.36 120.58 C1.24 122.39 1.12 124.19 1 126 C0.67 126 0.34 126 0 126 C0 84.42 0 42.84 0 0 Z " fill="#FEFEFE" transform="translate(1243,215)"/>
<path d="M0 0 C5.28 0 10.56 0 16 0 C22.97 11.95 29.06 24.18 34.94 36.69 C35.31 37.49 35.69 38.29 36.08 39.11 C37.17 41.43 38.25 43.75 39.34 46.07 C39.5 46.42 39.5 46.42 40.32 48.18 C42.3 52.42 44.18 56.69 46 61 C47.97 59.03 48.65 57.81 49.74 55.31 C50.08 54.54 50.42 53.77 50.77 52.98 C51.13 52.14 51.5 51.3 51.88 50.44 C59.42 33.39 67.59 16.63 76 0 C81.28 0 86.56 0 92 0 C93.22 4.88 92.46 5.69 90.12 10 C87.07 15.8 84.32 21.68 81.69 27.69 C78.72 34.38 75.56 40.91 72.12 47.38 C71.72 48.17 71.31 48.96 70.89 49.77 C68.77 53.85 66.56 57.71 63.96 61.5 C53.08 78.46 54.58 97.42 55.1 116.91 C55.19 122.04 54.74 126.16 53 131 C51.2 132.8 48.56 132.22 46.12 132.25 C45.59 132.26 45.59 132.26 42.88 132.33 C40 132 40 132 38.32 130.73 C35.96 127.63 37.19 123.63 37.58 119.95 C40.21 83.14 28.2 57.9 10.38 26.76 C6.04 19.15 1.76 11.35 -1 3 C-0.67 2.01 -0.34 1.02 0 0 Z " fill="#3977F0" transform="translate(2117,197)"/>
<path d="M0 0 C2.52 0.01 5.04 0 7.56 -0.01 C34.38 -0.02 34.38 -0.02 38.72 4.13 C39.22 6.46 39.22 6.46 39.22 9.26 C39.23 10.32 39.24 11.38 39.24 12.48 C39.23 13.64 39.22 14.81 39.21 16.01 C39.21 17.23 39.22 18.46 39.22 19.72 C39.23 23.09 39.22 26.45 39.2 29.81 C39.18 33.33 39.18 36.85 39.18 40.36 C39.18 46.27 39.16 52.17 39.14 58.08 C39.1 64.91 39.09 71.75 39.1 78.58 C39.1 85.15 39.09 91.71 39.07 98.28 C39.06 101.08 39.06 103.88 39.06 106.68 C39.06 110.58 39.04 114.48 39.01 118.38 C39.02 119.55 39.02 120.72 39.02 121.92 C39.01 122.98 39 124.04 38.99 125.13 C38.99 126.05 38.99 126.97 38.98 127.92 C38.72 130.13 38.72 130.13 36.72 132.13 C33.69 132.33 33.69 132.33 30.1 132.26 C28.91 132.24 27.72 132.22 26.5 132.2 C25.58 132.18 24.67 132.15 23.72 132.13 C22.52 129.72 22.6 128.22 22.6 125.52 C22.6 124.55 22.6 123.58 22.6 122.58 C22.6 122.05 22.6 122.05 22.61 119.35 C22.61 118.22 22.61 117.1 22.61 115.95 C22.61 112.22 22.62 108.5 22.63 104.78 C22.63 102.2 22.63 99.63 22.63 97.05 C22.63 90.96 22.64 84.86 22.65 78.77 C22.66 71.83 22.67 64.89 22.67 57.95 C22.68 43.68 22.7 29.4 22.72 15.13 C22.1 15.13 21.48 15.13 20.83 15.14 C14.36 15.16 7.89 15.17 1.42 15.19 C-1 15.19 -3.42 15.2 -5.84 15.21 C-9.31 15.22 -12.77 15.22 -16.24 15.23 C-17.33 15.23 -18.42 15.24 -19.54 15.24 C-20.04 15.24 -20.04 15.24 -22.57 15.24 C-23.02 15.25 -23.02 15.25 -25.26 15.25 C-27.28 15.13 -27.28 15.13 -28.28 14.13 C-28.4 12.32 -28.45 10.51 -28.46 8.69 C-28.48 7.7 -28.49 6.72 -28.51 5.7 C-28.28 3.13 -28.28 3.13 -26.28 1.13 C-17.58 -0.23 -8.78 -0.02 0 0 Z " fill="#3675F0" transform="translate(1204.275634765625,210.86962890625)"/>
<path d="M0 0 C16.17 0 32.34 0 49 0 C49 37.62 49 75.24 49 114 C48.67 114 48.34 114 48 114 C47.67 101.79 47.34 89.58 47 77 C41.29 77.02 35.58 77.04 29.7 77.06 C10.87 77.13 -7.95 77.17 -26.77 77.21 C-38.19 77.23 -49.61 77.26 -61.02 77.3 C-70.97 77.34 -80.92 77.37 -90.87 77.38 C-96.14 77.38 -101.41 77.39 -106.68 77.42 C-111.64 77.45 -116.59 77.46 -121.55 77.45 C-123.37 77.45 -125.2 77.46 -127.02 77.48 C-129.5 77.5 -131.98 77.49 -134.46 77.48 C-134.83 77.49 -134.83 77.49 -136.67 77.52 C-139.89 77.48 -141.56 77.42 -143.95 75.15 C-145.35 72.28 -145.38 70.09 -145.39 66.9 C-145.4 65.67 -145.41 64.44 -145.42 63.17 C-145.41 61.83 -145.41 60.49 -145.4 59.15 C-145.4 57.78 -145.4 56.4 -145.41 55.02 C-145.41 52.14 -145.41 49.26 -145.39 46.37 C-145.37 42.68 -145.38 38.99 -145.4 35.29 C-145.41 32.45 -145.41 29.61 -145.4 26.76 C-145.4 25.4 -145.4 24.04 -145.41 22.68 C-145.42 20.77 -145.4 18.87 -145.39 16.97 C-145.39 15.89 -145.38 14.8 -145.38 13.69 C-145 11 -145 11 -143.95 9.35 C-140.97 7.28 -137.93 7.6 -134.43 7.64 C-133.65 7.64 -132.87 7.63 -132.07 7.63 C-129.45 7.63 -126.83 7.64 -124.22 7.66 C-122.35 7.66 -120.47 7.66 -118.6 7.66 C-113.51 7.66 -108.42 7.67 -103.33 7.7 C-98.01 7.71 -92.7 7.72 -87.38 7.72 C-77.31 7.73 -67.23 7.75 -57.16 7.78 C-45.7 7.82 -34.23 7.83 -22.77 7.85 C0.82 7.88 24.41 7.93 48 8 C48 5.69 48 3.38 48 1 C32.16 1 16.32 1 0 1 C0 0.67 0 0.34 0 0 Z M-140 13 C-140 32.47 -140 51.94 -140 72 C-78.29 72 -16.58 72 47 72 C47 63.75 47 55.5 47 47 C45.68 47 44.36 47 43 47 C42.67 48.98 42.34 50.96 42 53 C42.66 53 43.32 53 44 53 C44 53.66 44 54.32 44 55 C41.69 55 39.38 55 37 55 C37 54.34 37 53.68 37 53 C37.66 53 38.32 53 39 53 C40.39 49.92 41.7 46.81 43 43.69 C43.38 42.85 43.76 42 44.16 41.13 C48.26 31.05 47 25.24 47 13 C-14.71 13 -76.42 13 -140 13 Z " fill="#C7D9F9" transform="translate(1178,226)"/>
<path d="M0 0 C0.87 0.01 1.73 0.01 2.62 0.02 C5 0.19 5 0.19 8 1.19 C8.79 4.68 9.13 7.9 9.13 11.48 C9.13 12.53 9.13 13.58 9.14 14.66 C9.13 15.79 9.13 16.93 9.13 18.11 C9.13 19.31 9.13 20.52 9.13 21.76 C9.14 25.07 9.14 28.37 9.13 31.67 C9.13 35.12 9.13 38.58 9.14 42.03 C9.14 47.83 9.14 53.63 9.13 59.43 C9.12 66.14 9.13 72.85 9.13 79.56 C9.14 85.32 9.14 91.08 9.13 96.84 C9.13 100.28 9.13 103.72 9.14 107.16 C9.14 111 9.13 114.83 9.13 118.66 C9.13 119.8 9.13 120.95 9.14 122.12 C9.13 122.64 9.13 122.64 9.13 125.27 C9.13 126.18 9.13 127.09 9.13 128.02 C9 130.19 9 130.19 8 132.19 C3.38 132.19 -1.24 132.19 -6 132.19 C-7.93 128.33 -8.25 127.03 -8.26 122.94 C-8.27 121.87 -8.27 120.81 -8.28 119.72 C-8.28 118.56 -8.28 117.39 -8.27 116.2 C-8.28 114.97 -8.28 113.75 -8.29 112.48 C-8.3 109.12 -8.3 105.76 -8.3 102.4 C-8.3 99.6 -8.31 96.8 -8.31 93.99 C-8.32 87.38 -8.32 80.77 -8.32 74.16 C-8.31 67.34 -8.32 60.51 -8.34 53.69 C-8.36 47.83 -8.37 41.97 -8.36 36.11 C-8.36 32.61 -8.36 29.11 -8.38 25.61 C-8.39 21.71 -8.38 17.82 -8.37 13.92 C-8.38 12.75 -8.39 11.59 -8.4 10.39 C-8.39 9.33 -8.38 8.27 -8.37 7.18 C-8.37 6.26 -8.37 5.34 -8.37 4.39 C-8.25 3.66 -8.13 2.94 -8 2.19 C-4.74 0.01 -3.77 -0.06 0 0 Z " fill="#3877F0" transform="translate(261,209.8125)"/>
<path d="M0 0 C0.33 0 0.66 0 1 0 C1 6.27 1 12.54 1 19 C2.87 18.99 4.75 18.99 6.67 18.98 C24.29 18.92 41.9 18.87 59.52 18.84 C68.57 18.83 77.63 18.81 86.69 18.77 C94.58 18.74 102.47 18.72 110.36 18.72 C114.54 18.71 118.72 18.7 122.9 18.68 C126.84 18.66 130.77 18.66 134.7 18.66 C136.15 18.66 137.59 18.65 139.04 18.64 C141.01 18.63 142.98 18.63 144.94 18.64 C146.05 18.64 147.15 18.63 148.29 18.63 C151 19 151 19 152.85 20.35 C154.6 22.86 154.39 24.95 154.4 27.97 C154.41 28.58 154.41 28.58 154.44 31.69 C154.44 33.03 154.44 34.37 154.43 35.71 C154.44 37.09 154.44 38.47 154.45 39.84 C154.46 42.73 154.46 45.61 154.45 48.5 C154.43 52.19 154.45 55.88 154.48 59.58 C154.5 62.42 154.5 65.26 154.5 68.1 C154.5 69.46 154.5 70.83 154.51 72.19 C154.53 74.09 154.52 76 154.5 77.9 C154.5 78.99 154.5 80.07 154.5 81.19 C153.86 84.77 152.84 85.76 150 88 C147.2 88.49 147.2 88.49 143.9 88.48 C142.65 88.49 141.4 88.49 140.11 88.5 C138.73 88.48 137.34 88.47 135.96 88.45 C134.5 88.45 133.04 88.45 131.58 88.46 C127.63 88.46 123.67 88.43 119.71 88.41 C115.57 88.38 111.43 88.38 107.3 88.37 C99.46 88.36 91.63 88.33 83.8 88.29 C74.88 88.24 65.96 88.22 57.04 88.2 C38.69 88.16 20.35 88.09 2 88 C2 88.58 2 89.15 2 89.74 C2.01 92.37 2.01 95 2.01 97.63 C2.02 98.54 2.02 99.44 2.02 100.37 C2.02 106.35 1.91 112.29 1.5 118.25 C1.45 119.02 1.4 119.79 1.36 120.58 C1.24 122.39 1.12 124.19 1 126 C0.67 126 0.34 126 0 126 C0 84.42 0 42.84 0 0 Z M1 24 C1 29.61 1 35.22 1 41 C4.3 41.33 7.6 41.66 11 42 C10.01 42.33 9.02 42.66 8 43 C8 49.93 8 56.86 8 64 C11.63 64 15.26 64 19 64 C19.66 62.35 20.32 60.7 21 59 C21 61.31 21 63.62 21 66 C14.73 66 8.46 66 2 66 C2 71.61 2 77.22 2 83 C50.51 83 99.02 83 149 83 C149 63.53 149 44.06 149 24 C100.16 24 51.32 24 1 24 Z " fill="#C7D8F9" transform="translate(1243,215)"/>
<path d="M0 0 C3.35 2.47 4.83 4.92 5.62 8.94 C5.73 13.08 5.26 16.64 3.44 20.38 C-0.53 23.79 -5.34 24.39 -10.41 24.26 C-13.76 23.71 -15.85 22.11 -18.38 19.94 C-20.94 15.73 -21.06 11.74 -20.38 6.94 C-15.93 -1.79 -8.85 -2.79 0 0 Z " fill="#CEDDFA" transform="translate(1325.375,257.0625)"/>
<path d="M0 0 C3.35 2.47 4.83 4.92 5.62 8.94 C5.73 13.08 5.26 16.64 3.44 20.38 C-0.52 23.79 -5.34 24.41 -10.41 24.25 C-13.9 23.7 -15.83 22.3 -18.38 19.94 C-20.14 15.61 -20.97 11.59 -20.38 6.94 C-15.72 -1.71 -8.99 -2.83 0 0 Z " fill="#CEDDFA" transform="translate(1207.375,257.0625)"/>
<path d="M0 0 C0.33 0 0.66 0 1 0 C1 0.95 1 1.9 1.01 2.88 C1.11 59.16 1.22 115.44 1.33 171.73 C1.34 178.49 1.36 185.25 1.37 192.02 C1.37 192.69 1.38 193.36 1.38 194.06 C1.42 215.84 1.46 237.62 1.5 259.41 C1.54 282.44 1.59 305.48 1.64 328.52 C1.67 342.3 1.69 356.09 1.72 369.88 C1.73 379.35 1.75 388.81 1.77 398.28 C1.79 403.73 1.8 409.19 1.8 414.64 C1.81 419.65 1.82 424.66 1.84 429.66 C1.84 431.46 1.84 433.26 1.84 435.06 C1.85 447.4 2.29 459.68 3 472 C2.01 471.34 1.02 470.68 0 470 C-0.3 467.39 -0.4 465.02 -0.37 462.41 C-0.37 461.62 -0.38 460.82 -0.38 460 C-0.39 457.31 -0.37 454.61 -0.36 451.92 C-0.36 449.98 -0.36 448.04 -0.37 446.1 C-0.38 440.74 -0.36 435.39 -0.35 430.03 C-0.34 424.27 -0.34 418.5 -0.34 412.74 C-0.34 402.74 -0.33 392.74 -0.32 382.75 C-0.29 368.29 -0.29 353.84 -0.28 339.39 C-0.27 315.94 -0.25 292.49 -0.23 269.04 C-0.2 246.26 -0.18 223.48 -0.16 200.7 C-0.16 199.99 -0.16 199.29 -0.16 198.57 C-0.16 191.52 -0.16 184.47 -0.15 177.42 C-0.14 163.06 -0.14 148.7 -0.13 134.34 C-0.13 133.02 -0.13 131.7 -0.12 130.34 C-0.1 86.9 -0.05 43.45 0 0 Z " fill="#CBDBF9" transform="translate(978,41)"/>
<path d="M0 0 C3.3 0 6.6 0 10 0 C11 2.12 12 4.25 13 6.38 C13.56 7.56 14.11 8.74 14.69 9.96 C16 13 16 13 16 15 C16.66 15 17.32 15 18 15 C18.11 14.28 18.22 13.57 18.34 12.83 C19.04 9.81 20.13 7.44 21.56 4.69 C22.02 3.8 22.47 2.92 22.94 2.01 C23.29 1.35 23.64 0.68 24 0 C27.3 0 30.6 0 34 0 C33.67 0.66 33.34 1.32 33 2 C32.34 2 31.68 2 31 2 C31 8.93 31 15.86 31 23 C31.99 23.33 32.98 23.66 34 24 C34 24.33 34 24.66 34 25 C30.04 25 26.08 25 22 25 C22 24.34 22 23.68 22 23 C22.99 23 23.98 23 25 23 C24.67 17.72 24.34 12.44 24 7 C23.05 9.04 22.1 11.08 21.12 13.19 C20.59 14.34 20.06 15.48 19.51 16.67 C18.26 19.42 17.09 22.18 16 25 C15.34 25 14.68 25 14 25 C13.66 24.11 13.32 23.22 12.98 22.3 C12.53 21.13 12.08 19.96 11.62 18.75 C11.18 17.59 10.74 16.43 10.29 15.23 C9 12 9 12 7 8 C6.67 12.95 6.34 17.9 6 23 C6.99 23.33 7.98 23.66 9 24 C9 24.33 9 24.66 9 25 C6.03 25 3.06 25 0 25 C0.33 24.34 0.66 23.68 1 23 C1.66 23 2.32 23 3 23 C3 16.07 3 9.14 3 2 C2.01 1.67 1.02 1.34 0 1 C0 0.67 0 0.34 0 0 Z " fill="#D0DEFA" transform="translate(1333,256)"/>
<path d="M0 0 C6.93 0 13.86 0 21 0 C21 1.98 21 3.96 21 6 C20.34 6 19.68 6 19 6 C19 4.68 19 3.36 19 2 C15.7 2 12.4 2 9 2 C9 4.97 9 7.94 9 11 C10.98 11 12.96 11 15 11 C15 10.34 15 9.68 15 9 C15.66 9 16.32 9 17 9 C17 11.31 17 13.62 17 16 C16.34 16 15.68 16 15 16 C15 15.01 15 14.02 15 13 C13.02 13 11.04 13 9 13 C9 16.3 9 19.6 9 23 C12.3 22.67 15.6 22.34 19 22 C19.33 20.68 19.66 19.36 20 18 C20.66 18 21.32 18 22 18 C22 20.31 22 22.62 22 25 C14.74 25 7.48 25 0 25 C0 24.34 0 23.68 0 23 C0.99 23 1.98 23 3 23 C3 16.07 3 9.14 3 2 C2.01 2 1.02 2 0 2 C0 1.34 0 0.68 0 0 Z " fill="#CEDDFA" transform="translate(1063,256)"/>
<path d="M0 0 C0 1.98 0 3.96 0 6 C-0.66 6 -1.32 6 -2 6 C-2.33 5.01 -2.66 4.02 -3 3 C-6.58 1.81 -9.24 1.66 -13 2 C-15.08 4.1 -15.91 5.48 -16.4 8.4 C-16.36 12.22 -16.19 15.41 -15 19.06 C-11.93 22.03 -9.2 21.79 -5 22 C-5 19.36 -5 16.72 -5 14 C-5.99 13.67 -6.98 13.34 -8 13 C-4.37 13 -0.74 13 3 13 C2.67 13.17 2.67 13.17 1 14 C1 16.97 1 19.94 1 23 C-5.09 24.62 -11.45 24.83 -17.44 22.88 C-21.1 20.19 -22.59 17.54 -23.32 13.04 C-23.62 7.95 -22.45 4.91 -19 1 C-13.73 -2.41 -5.84 -1.69 0 0 Z " fill="#CEDDFA" transform="translate(1181,257)"/>
<path d="M0 0 C6.42 -0.48 6.42 -0.48 8.88 1.56 C11.73 7.76 11.01 12.75 9 19 C7 21 7 21 3.56 21.44 C0 21 0 21 -1.94 19.19 C-3.78 13.65 -3.85 7.54 -2 2 C-1.34 2 -0.68 2 0 2 C0 1.34 0 0.68 0 0 Z " fill="#FDFDFE" transform="translate(1314,258)"/>
<path d="M0 0 C6.42 -0.48 6.42 -0.48 8.88 1.56 C11.73 7.76 11.01 12.75 9 19 C7 21 7 21 3.56 21.44 C0 21 0 21 -1.94 19.19 C-3.78 13.65 -3.85 7.54 -2 2 C-1.34 2 -0.68 2 0 2 C0 1.34 0 0.68 0 0 Z " fill="#FDFDFE" transform="translate(1196,258)"/>
<path d="M0 0 C3.63 0 7.26 0 11 0 C10.67 0.66 10.34 1.32 10 2 C9.01 2 8.02 2 7 2 C7 8.93 7 15.86 7 23 C10.63 23 14.26 23 18 23 C18.33 21.35 18.66 19.7 19 18 C19.66 17.67 20.32 17.34 21 17 C21.12 22.75 21.12 22.75 20 25 C13.73 25 7.46 25 1 25 C1 30.61 1 36.22 1 42 C0.67 42 0.34 42 0 42 C0 28.14 0 14.28 0 0 Z " fill="#D1DFFA" transform="translate(1244,256)"/>
<path d="M0 0 C1.6 -0.11 3.21 -0.19 4.81 -0.25 C5.71 -0.3 6.6 -0.34 7.52 -0.39 C10 0 10 0 11.78 1.56 C13.42 4.83 13.52 7.61 13.69 11.25 C13.72 11.88 13.72 11.88 13.89 15.08 C13.92 16.04 13.96 17.01 14 18 C11.73 18.08 9.46 18.14 7.19 18.19 C6.56 18.2 6.56 18.2 3.36 18.29 C0 18 0 18 -1.95 16.68 C-3 15 -3 15 -2.94 11.94 C-2 9 -2 9 -0.25 7.62 C2.26 6.93 4.4 6.86 7 7 C6.67 5.68 6.34 4.36 6 3 C4.68 3 3.36 3 2 3 C1.67 3.66 1.34 4.32 1 5 C0.34 5 -0.32 5 -1 5 C-0.67 3.35 -0.34 1.7 0 0 Z " fill="#D0DEFA" transform="translate(1110,263)"/>
<path d="M0 0 C2.25 -0.04 4.5 -0.08 6.81 -0.12 C8.08 -0.15 9.34 -0.17 10.64 -0.2 C14 0 14 0 17 2 C17.22 4.63 17.28 7.01 17.19 9.62 C17.18 9.98 17.18 9.98 17.15 11.77 C17.11 13.51 17.06 15.26 17 17 C17.66 17.33 18.32 17.66 19 18 C16.03 18 13.06 18 10 18 C10.33 17.34 10.66 16.68 11 16 C11.07 13.79 11.08 11.58 11.06 9.38 C11.05 8.19 11.04 7 11.04 5.77 C11.02 4.86 11.01 3.94 11 3 C9.68 2.67 8.36 2.34 7 2 C7.33 7.28 7.66 12.56 8 18 C5.36 18 2.72 18 0 18 C0 12.06 0 6.12 0 0 Z " fill="#CEDDFA" transform="translate(1126,263)"/>
<path d="M0 0 C0 1.98 0 3.96 0 6 C-0.66 6 -1.32 6 -2 6 C-2.33 5.01 -2.66 4.02 -3 3 C-6.08 1.46 -8.61 1.7 -12 2 C-14.08 4.09 -14.91 5.48 -15.4 8.4 C-15.36 12.18 -15.15 15.47 -14.12 19.12 C-10.99 21.89 -8.13 21.38 -4.08 21.18 C-3.39 21.12 -2.71 21.06 -2 21 C-2 19.68 -2 18.36 -2 17 C-1.34 17 -0.68 17 0 17 C0 18.98 0 20.96 0 23 C-5.29 24.76 -10.75 24.74 -15.88 22.62 C-20.54 20.2 -20.54 20.2 -21.62 17.38 C-22.37 12.63 -22.68 8.62 -20.81 4.19 C-15.53 -2.19 -7.6 -2.53 0 0 Z " fill="#CEDDFA" transform="translate(1300,257)"/>
<path d="M0 0 C2.97 0 5.94 0 9 0 C9 1.32 9 2.64 9 4 C9.66 4.33 10.32 4.66 11 5 C11 3.35 11 1.7 11 0 C12.98 0 14.96 0 17 0 C16.67 0.17 16.67 0.17 15 1 C13.94 2.81 13.94 2.81 13 5 C12.86 5.31 12.86 5.31 12.12 6.88 C11.92 10.3 14.06 12.3 16 15 C16 15.66 16 16.32 16 17 C16.66 17.33 17.32 17.66 18 18 C15.03 18 12.06 18 9 18 C8.67 16.35 8.34 14.7 8 13 C7.01 13.66 6.02 14.32 5 15 C5 15.99 5 16.98 5 18 C3.02 18 1.04 18 -1 18 C-0.67 17.34 -0.34 16.68 0 16 C0.66 16 1.32 16 2 16 C4.74 10.89 4.74 10.89 5 8 C2.74 3.37 2.74 3.37 0 2 C0 1.34 0 0.68 0 0 Z " fill="#CFDDFA" transform="translate(1088,263)"/>
<path d="M0 0 C1.52 3.04 1.37 6.28 1.56 9.62 C1.61 10.33 1.65 11.04 1.69 11.77 C1.8 13.51 1.9 15.26 2 17 C-0.64 17 -3.28 17 -6 17 C-5.67 11.72 -5.34 6.44 -5 1 C-6.32 0.67 -7.64 0.34 -9 0 C-5.88 -1.56 -3.33 -0.67 0 0 Z " fill="#D1DFFA" transform="translate(1153,264)"/>
<path d="M0 0 C0 11.55 0 23.1 0 35 C-0.33 35 -0.66 35 -1 35 C-1 26.75 -1 18.5 -1 10 C-2.32 10 -3.64 10 -5 10 C-5.33 11.98 -5.66 13.96 -6 16 C-5.34 16 -4.68 16 -4 16 C-4 16.66 -4 17.32 -4 18 C-6.31 18 -8.62 18 -11 18 C-11 17.34 -11 16.68 -11 16 C-10.34 16 -9.68 16 -9 16 C-8.9 15.67 -8.9 15.67 -8.41 13.99 C-5.36 3.64 -5.36 3.64 -4 1 C-1 0 -1 0 0 0 Z " fill="#D4E1FA" transform="translate(1226,263)"/>
<path d="M0 0 C0.03 1.46 0.05 2.92 0.06 4.38 C0.07 5.19 0.09 6 0.1 6.84 C0 9 0 9 -1 11 C-6.38 11.36 -6.38 11.36 -8.94 9.88 C-10 8 -10 8 -9.94 4.94 C-9 2 -9 2 -7.25 0.62 C-4.74 -0.07 -2.6 -0.14 0 0 Z " fill="#D1DFFA" transform="translate(1117,270)"/>
<path d="M0 0 C0 2.64 0 5.28 0 8 C-1.98 8 -3.96 8 -6 8 C-5.19 4.56 -5.19 4.56 -4 1 C-1 0 -1 0 0 0 Z " fill="#E1EAFC" transform="translate(1226,263)"/>
<path d="M0 0 C1.32 0 2.64 0 4 0 C4 2.31 4 4.62 4 7 C2.68 7 1.36 7 0 7 C0 4.69 0 2.38 0 0 Z " fill="#FCFDFE" transform="translate(1113,272)"/>
<path d="M0 0 C2.12 0.38 2.12 0.38 4 1 C4 2.32 4 3.64 4 5 C2.68 5.33 1.36 5.66 0 6 C-0.66 4.68 -1.32 3.36 -2 2 C-1.34 1.34 -0.68 0.68 0 0 Z " fill="#CDDCFA" transform="translate(1270,275)"/>
<path d="M0 0 C0.33 0 0.66 0 1 0 C1 1.98 1 3.96 1 6 C0.01 6.33 -0.98 6.66 -2 7 C-1.12 1.12 -1.12 1.12 0 0 Z " fill="#C5D7F9" transform="translate(1225,257)"/>
</svg>
