<?xml version="1.0" encoding="UTF-8"?>
<svg xmlns="http://www.w3.org/2000/svg" viewBox="0 0 684 247" width="684" height="247" shape-rendering="geometricPrecision">
<path d="M107.56 224.67C25.28 224.5 23.94 224.49 23.47 223.85C22.94 223.12 22.96 228.83 23 102.88C23.01 56.06 23.14 27.37 23.33 27C23.51 26.68 23.89 26.32 24.19 26.2C24.9 25.93 663.76 25.93 664.47 26.2C664.77 26.32 665.16 26.69 665.34 27.02C665.55 27.41 665.67 62.41 665.68 125.19C665.69 212.57 665.63 222.83 665.17 223.54C664.89 223.97 664.32 224.4 663.91 224.5C662.91 224.74 212.94 224.88 107.56 224.67ZM189.49 218.67C190.06 218.05 190.08 216.93 189.93 198.98C189.8 183.04 189.7 179.89 189.31 179.64C189.03 179.47 155.36 179.34 108.58 179.34L28.33 179.33L28.33 199.11C28.33 209.99 28.43 218.99 28.56 219.11C28.68 219.23 64.8 219.33 108.84 219.33C188.2 219.33 188.9 219.33 189.49 218.67ZM386.82 219.02C386.96 218.8 387.08 191.74 387 179.75C387 179.42 367.61 179.33 291.17 179.33L195.33 179.33L195.33 199.11C195.33 209.99 195.43 218.99 195.56 219.11C195.91 219.47 386.6 219.38 386.82 219.02ZM523.3 218.88C523.57 218.55 523.65 213.06 523.59 198.96L523.5 179.5L458.07 179.5L392.64 179.5L392.65 199.08C392.65 209.85 392.66 218.82 392.66 219C392.66 219.22 414.6 219.33 457.79 219.33C512.35 219.33 522.98 219.26 523.3 218.88ZM659.96 218.88C660.23 218.55 660.32 213.06 660.25 198.96L660.17 179.5L594.75 179.42L529.33 179.33L529.33 199.11C529.33 209.99 529.43 218.99 529.56 219.11C529.68 219.23 558.98 219.33 594.68 219.33C649.05 219.33 659.65 219.26 659.96 218.88ZM84.68 209.69C84.49 209.33 84.33 208.88 84.33 208.68C84.33 208.48 85.65 206.86 87.26 205.08C91.13 200.78 92.34 199.2 92.87 197.72C93.56 195.79 93.43 195.03 92.2 193.8C90.79 192.39 89.32 192.3 86.95 193.49C85.63 194.16 85.27 194.23 85.13 193.85C84.39 191.93 86.72 190.33 90.25 190.33C94.13 190.33 96.33 192.25 96.33 195.63C96.33 197.92 95.23 200.05 92.57 202.92C89.94 205.74 88.67 207.3 88.67 207.68C88.67 207.85 90.58 208.02 92.91 208.07C96.69 208.16 97.17 208.23 97.27 208.77C97.54 210.18 96.9 210.33 90.8 210.33C85.43 210.33 85 210.29 84.68 209.69ZM103.32 209.68C102.55 209.27 101.79 208.43 101.15 207.28C100.18 205.52 100.17 205.43 100.17 200.33C100.17 195.93 100.26 194.99 100.79 194C102.19 191.38 103.96 190.33 107 190.33C111.76 190.33 113.98 193.37 113.99 199.9C114.01 205.08 112.63 208.14 109.6 209.7C107.96 210.54 104.92 210.53 103.32 209.68ZM119.52 209.58C118.63 209.08 117.93 208.29 117.35 207.18C116.58 205.68 116.49 205.09 116.39 200.88C116.27 195.73 116.65 194 118.29 192.22C119.63 190.77 120.75 190.33 123.16 190.33C125.7 190.33 127.54 191.1 128.53 192.56C129.63 194.21 130.32 197.01 130.32 199.83C130.33 204.63 128.87 208.04 126.15 209.58C124.33 210.61 121.34 210.61 119.52 209.58ZM422.94 209.51C420.64 207.94 419.67 205.22 419.67 200.33C419.67 193.29 421.81 190.33 426.9 190.34C429.94 190.35 431.52 191.21 432.67 193.5C433.44 195.05 433.5 195.51 433.5 200C433.49 204.3 433.41 204.98 432.78 206.17C432.03 207.56 430.8 208.82 429.26 209.77C427.81 210.67 424.45 210.54 422.94 209.51ZM437.31 209.44C437.12 208.93 437.05 208.01 437.16 207.4C437.36 206.34 437.42 206.3 438.76 206.4C439.95 206.48 440.2 206.64 440.48 207.44C440.96 208.81 440.15 210.13 438.74 210.27C437.83 210.36 437.61 210.24 437.31 209.44ZM447.32 209.68C446.55 209.27 445.79 208.43 445.15 207.28C444.17 205.51 444.17 205.46 444.18 200.17L444.18 194.83L445.25 193.15C446.61 190.99 447.95 190.33 451.02 190.33C452.91 190.33 453.59 190.49 454.63 191.15C456.95 192.61 458 195.38 458 200C458 205.09 456.61 208.15 453.6 209.7C451.96 210.54 448.92 210.53 447.32 209.68ZM463.28 209.61C462.52 209.17 461.69 208.24 461.11 207.2C460.19 205.54 460.17 205.38 460.17 200.33C460.17 195.62 460.24 195.05 460.91 193.83C462.48 191.01 463.72 190.28 466.97 190.26C471.87 190.22 474 193.15 474 199.87C474 205.09 472.63 208.14 469.6 209.7C467.87 210.59 464.89 210.54 463.28 209.61ZM477.98 209.81C477.23 208.91 478.01 208.18 479.86 208.06C480.75 208 481.67 207.8 481.91 207.6C482.23 207.34 482.33 205.59 482.33 200.63C482.33 193.2 482.4 193.36 479.99 194.71C478.52 195.54 477.67 195.36 477.67 194.21C477.67 193.57 478.16 193.09 480.09 191.89C482.35 190.48 483.31 190.15 484.74 190.28C485.27 190.33 485.33 191.06 485.41 199.08L485.5 207.83L487.3 208C489.32 208.19 490.12 208.89 489.36 209.81C488.99 210.25 488.05 210.33 483.67 210.33C479.28 210.33 478.34 210.25 477.98 209.81ZM493.95 209.79C492.72 209.28 492.07 208.13 492.67 207.53C492.87 207.33 493.62 207.36 494.68 207.61C499.26 208.66 502.33 207.14 502.33 203.82C502.33 201.32 499.99 200.03 496.16 200.43C493.48 200.71 493.33 200.42 493.33 195.05C493.33 190.78 493.36 190.64 494.08 190.4C494.5 190.26 496.88 190.2 499.39 190.27C503.15 190.36 503.98 190.48 504.15 190.91C504.26 191.19 504.1 191.71 503.79 192.05C503.31 192.57 502.72 192.67 499.77 192.67L496.31 192.67L496.4 195.42L496.5 198.17L499 198.35C503.36 198.68 505.34 200.41 505.32 203.86C505.31 206.35 504.2 208.1 501.82 209.41C500.43 210.17 499.77 210.32 497.67 210.31C496.21 210.3 494.66 210.09 493.95 209.79ZM108.69 207.24C110.34 206.13 110.96 204.22 110.98 200.21C110.99 198.39 110.82 196.32 110.61 195.6C109.47 191.82 104.37 191.58 103.35 195.27C102.9 196.86 102.9 203.47 103.34 205.06C103.76 206.55 105.38 208 106.64 208C107.15 208 108.08 207.66 108.69 207.24ZM124.82 207.34C126.6 206.24 127.17 204.46 127.17 200.01C127.17 195.73 126.79 194.37 125.32 193.32C124.2 192.53 122.11 192.46 121.07 193.19C119.61 194.21 119.33 195.32 119.33 200.18C119.33 205.22 119.71 206.64 121.29 207.5C122.51 208.16 123.57 208.11 124.82 207.34ZM428.95 206.72C429.82 205.84 430.3 205.02 430.44 204.14C430.78 202.13 430.7 196.97 430.32 195.6C429.84 193.86 428.3 192.66 426.56 192.67C423.68 192.69 422.67 194.63 422.67 200.09C422.67 204.37 423.08 206.06 424.42 207.19C425.91 208.44 427.38 208.29 428.95 206.72ZM452.69 207.24C454.34 206.13 454.96 204.22 454.98 200.21C454.99 198.39 454.82 196.32 454.61 195.6C453.5 191.9 448.95 191.65 447.46 195.21C446.91 196.53 446.83 203.21 447.34 205.06C447.76 206.55 449.38 208 450.64 208C451.15 208 452.08 207.66 452.69 207.24ZM468.69 207.24C470.32 206.14 470.96 204.21 470.98 200.31C471 196.33 470.37 194.22 468.88 193.3C466.72 191.99 463.99 192.94 463.36 195.23C462.91 196.85 462.9 203.45 463.34 205.06C463.76 206.55 465.38 208 466.64 208C467.15 208 468.08 207.66 468.69 207.24ZM259.56 205.11C259.43 204.99 259.33 204.44 259.33 203.9C259.33 203.12 259.98 202.21 262.42 199.54C266.09 195.54 267.09 194.22 267.61 192.7C268.25 190.83 268.09 189.81 266.97 188.69C265.64 187.36 263.85 187.3 261.77 188.52C260.98 188.98 260.18 189.28 260 189.16C259.61 188.92 259.57 187.34 259.94 186.76C260.39 186.04 263.02 185.33 265.25 185.33C267.86 185.33 269.29 186.08 270.56 188.09C272.23 190.74 271.09 193.78 266.61 198.64C264.99 200.39 263.67 202.08 263.67 202.41C263.67 202.94 264.05 203 267.48 203C270.54 203 271.39 203.11 271.83 203.54C272.32 204.04 272.32 204.13 271.8 204.71C271.28 205.27 270.69 205.33 265.5 205.33C262.35 205.33 259.68 205.23 259.56 205.11ZM278.32 204.68C277.55 204.27 276.79 203.43 276.15 202.28C275.18 200.52 275.17 200.45 275.17 195.17L275.17 189.83L276.24 188.15C277.59 186.03 278.97 185.33 281.86 185.33C284.52 185.33 285.92 185.89 287.22 187.47C288.44 188.95 289 191.2 289 194.68C289 200.1 287.67 203.12 284.6 204.7C282.96 205.54 279.92 205.53 278.32 204.68ZM294.32 204.68C293.55 204.27 292.79 203.43 292.15 202.28C291.18 200.52 291.17 200.45 291.17 195.17L291.17 189.83L292.18 188.34C293.59 186.24 295.31 185.35 297.93 185.34C302.72 185.33 304.99 188.29 305 194.57C305 200.1 303.7 203.11 300.6 204.7C298.96 205.54 295.92 205.53 294.32 204.68ZM562.55 204.63C561.5 204.07 561.06 203.5 560.11 201.45L558.96 198.95L559.16 195.06C559.46 189.56 560.47 187.16 563.07 185.8C564.42 185.1 568.09 185.2 569.63 185.98C572 187.19 573.32 190.38 573.33 194.95C573.34 199.74 571.78 203.25 569.02 204.66C567.25 205.56 564.3 205.55 562.55 204.63ZM577.02 204.86C576.8 204.6 576.67 203.73 576.73 202.94C576.83 201.57 576.89 201.49 577.95 201.39C579.18 201.28 580.33 202.06 580.33 203.01C580.33 204.65 577.95 205.98 577.02 204.86ZM586.98 204.67C585.46 203.87 585.29 203.64 584.22 200.91C583.51 199.1 583.33 198.1 583.33 195.85C583.33 188.43 585.45 185.33 590.52 185.33C594.22 185.33 596.15 186.92 597.01 190.64C597.56 193 597.25 199.01 596.49 200.83C595.86 202.35 594.26 204.17 592.93 204.86C591.64 205.54 588.42 205.44 586.98 204.67ZM602.86 204.58C600.62 203.3 599.95 201.62 599.67 196.55C599.42 191.93 599.8 189.64 601.17 187.55C602.6 185.37 607.34 184.54 609.96 186.02C612.64 187.52 613.31 189.97 612.99 197.04L612.82 200.92L611.52 202.49C609.68 204.74 608.57 205.33 606.17 205.33C604.72 205.32 603.81 205.12 602.86 204.58ZM616.14 204.52C615.82 203.23 616.16 202.67 619.14 199.6C622.82 195.79 624.3 193.54 624.56 191.38C624.74 189.83 624.68 189.63 623.74 188.69C622.45 187.4 620.88 187.34 618.4 188.49C616.93 189.18 616.61 189.24 616.45 188.82C615.71 186.91 618.16 185.33 621.87 185.33C624.81 185.33 626.35 186.14 627.35 188.21C628.06 189.66 628.08 189.91 627.7 191.76C627.18 194.29 626.25 195.74 622.97 199.15C621.52 200.67 620.33 202.15 620.33 202.45C620.33 202.93 620.83 203 624.14 203C627.21 203 628.06 203.11 628.49 203.54C628.99 204.04 628.99 204.13 628.46 204.71C627.95 205.27 627.35 205.33 622.12 205.33L616.35 205.33L616.14 204.52ZM283.69 202.24C285.34 201.13 285.96 199.22 285.98 195.21C285.99 193.39 285.82 191.32 285.61 190.6C285.05 188.74 283.65 187.67 281.79 187.67C278.97 187.67 278 189.6 278.01 195.17C278.02 199.45 278.37 200.93 279.65 202.08C280.91 203.21 282.18 203.26 283.69 202.24ZM299.69 202.24C301.28 201.17 301.96 199.2 301.98 195.6C302.02 189.82 300.88 187.67 297.79 187.67C294.95 187.67 294 189.58 294 195.33C294 199.57 294.37 201.02 295.7 202.15C296.96 203.2 298.22 203.23 299.69 202.24ZM567.98 202.18C569.68 201.11 569.97 200.1 570.07 195C570.13 191.58 570.04 190.64 569.57 189.76C568.54 187.85 565.71 187.04 564.07 188.19C562.66 189.17 562.33 190.37 562.35 194.4C562.37 199.55 562.67 200.94 564.04 202.08C565.4 203.21 566.3 203.24 567.98 202.18ZM592.8 201.51C594.5 199.86 594.44 200.15 594.34 194.33C594.27 190.12 593.81 188.81 592.16 188.06C590.73 187.4 588.87 187.57 588.07 188.42C586.75 189.83 586.33 191.43 586.33 195.1C586.33 199.61 586.92 201.67 588.41 202.42C590.25 203.33 591.11 203.15 592.8 201.51ZM608.78 201.5C610.57 199.71 610.75 198.93 610.52 193.92C610.38 190.92 610.24 190.18 609.63 189.36C608.72 188.13 607.46 187.59 605.81 187.73C604.75 187.82 604.34 188.08 603.43 189.28L602.33 190.72L602.33 195.04C602.33 199.87 602.83 201.53 604.59 202.48C606.2 203.35 607.15 203.13 608.78 201.5ZM189.55 173.15C189.92 172.65 190 168.48 190 150.61C190 129.26 189.98 128.68 189.35 128.34C188.91 128.11 163.44 128.03 108.6 128.08L28.5 128.17L28.41 150.63C28.35 168.02 28.42 173.2 28.74 173.59C29.1 174.02 38.75 174.06 109.13 173.92C186.35 173.77 189.12 173.75 189.55 173.15ZM386.66 173.48C387.08 173.05 387.16 128.7 386.74 128.27C386.59 128.12 343.5 128.04 290.98 128.08L195.5 128.17L195.41 150.17C195.36 162.27 195.4 172.5 195.49 172.9C195.66 173.58 195.9 173.65 198.42 173.74C199.93 173.79 242.82 173.83 293.73 173.83C358.53 173.83 386.41 173.72 386.66 173.48ZM523.25 173.11C523.84 172.3 523.86 129 523.27 128.4C522.74 127.88 392.67 127.81 392.66 128.33C392.66 128.52 392.66 138.57 392.66 150.67C392.66 162.77 392.66 172.89 392.66 173.16C392.67 173.84 393.67 173.85 463.33 173.76C519.23 173.69 522.85 173.65 523.25 173.11ZM659.72 173.45C660.3 172.92 660.33 171.78 660.33 150.82C660.33 132.65 660.25 128.68 659.88 128.37C659.55 128.1 642.21 128.02 594.46 128.08L529.5 128.17L529.5 150.83L529.5 173.5L531 173.7C531.82 173.81 560.99 173.92 595.81 173.95C654.29 174 659.16 173.96 659.72 173.45ZM260.56 156.11C260.43 155.99 260.33 155.46 260.33 154.94C260.33 154.02 260.37 154 262.27 154C263.33 154 264.38 153.82 264.6 153.6C265.12 153.08 265.17 140.15 264.66 139.83C264.47 139.71 263.63 140 262.78 140.48C260.78 141.59 260.33 141.57 260.33 140.36C260.33 139.5 260.64 139.19 262.78 137.86C264.52 136.77 265.57 136.33 266.44 136.33C267.12 136.33 267.7 136.37 267.74 136.42C267.77 136.46 267.89 140.4 267.99 145.17L268.17 153.83L269.89 153.93C271.88 154.05 272.57 154.6 272.01 155.65C271.66 156.3 271.36 156.33 266.21 156.33C263.22 156.33 260.68 156.23 260.56 156.11ZM278.32 155.68C277.55 155.27 276.79 154.43 276.15 153.28C275.18 151.52 275.17 151.43 275.17 146.33C275.17 141.93 275.26 140.99 275.79 140C277.19 137.38 278.96 136.33 282 136.33C286.76 136.33 288.98 139.37 288.99 145.9C289.01 151.08 287.63 154.14 284.6 155.7C282.96 156.54 279.92 156.53 278.32 155.68ZM294.32 155.68C293.55 155.27 292.79 154.43 292.15 153.28C291.18 151.52 291.17 151.43 291.17 146.33C291.17 141.93 291.26 140.99 291.79 140C293.19 137.38 294.96 136.33 298 136.33C302.74 136.33 304.99 139.35 305 145.73C305 151.09 303.66 154.13 300.6 155.7C298.96 156.54 295.92 156.53 294.32 155.68ZM431.32 155.68C430.55 155.27 429.79 154.43 429.15 153.28C428.18 151.52 428.17 151.43 428.17 146.33C428.17 141.93 428.26 140.99 428.79 140C430.19 137.38 431.96 136.33 435 136.33C439.76 136.33 441.98 139.37 441.99 145.9C442.01 151.08 440.63 154.14 437.6 155.7C435.96 156.54 432.92 156.53 431.32 155.68ZM445.31 155.44C445.12 154.93 445.05 154.01 445.16 153.4C445.36 152.34 445.42 152.3 446.76 152.4C447.95 152.48 448.2 152.64 448.48 153.44C448.96 154.81 448.15 156.13 446.74 156.27C445.83 156.36 445.61 156.24 445.31 155.44ZM455.28 155.61C454.52 155.17 453.69 154.24 453.11 153.2C452.19 151.54 452.17 151.38 452.17 146.33C452.17 141.93 452.26 140.99 452.79 140C454.19 137.38 455.96 136.33 459 136.33C463.76 136.33 465.98 139.37 465.99 145.9C466.01 151.08 464.63 154.14 461.6 155.7C459.87 156.59 456.89 156.54 455.28 155.61ZM471.32 155.68C470.55 155.27 469.79 154.43 469.15 153.28C468.18 151.52 468.17 151.43 468.17 146.33C468.17 141.93 468.26 140.99 468.79 140C470.19 137.38 471.96 136.33 475 136.33C479.76 136.33 481.98 139.37 481.99 145.9C482.01 151.08 480.63 154.14 477.6 155.7C475.96 156.54 472.92 156.53 471.32 155.68ZM485.98 155.81C485.23 154.91 486.01 154.18 487.86 154.06C488.75 154 489.67 153.8 489.91 153.6C490.43 153.17 490.53 140.16 490.01 139.84C489.84 139.73 489.07 140.03 488.32 140.51C486.81 141.46 485.9 141.48 485.72 140.55C485.57 139.73 486.37 138.92 488.75 137.5C490.27 136.6 491.07 136.32 491.97 136.4L493.17 136.5L493.33 145.17L493.5 153.83L495.3 154C497.32 154.19 498.12 154.89 497.36 155.81C496.99 156.25 496.05 156.33 491.67 156.33C487.28 156.33 486.34 156.25 485.98 155.81ZM579 155.68C576.56 154.39 575.33 151.3 575.34 146.45C575.35 139.38 577.53 136.33 582.57 136.33C585.91 136.34 587.77 137.62 588.82 140.64C589.55 142.74 589.53 149.48 588.78 151.41C588.18 152.99 586.32 155.13 584.93 155.86C583.65 156.54 580.42 156.44 579 155.68ZM593.03 155.87C592.81 155.6 592.67 154.74 592.73 153.94C592.83 152.5 592.83 152.5 594.15 152.5C595.24 152.5 595.56 152.66 595.98 153.4C596.45 154.23 596.43 154.37 595.79 155.23C595.01 156.29 593.64 156.61 593.03 155.87ZM601.14 155.52C600.83 154.29 601.21 154 603.12 154C604.08 154 605.05 153.82 605.27 153.6C605.55 153.32 605.67 151.29 605.67 146.6C605.67 140.09 605.66 140 604.96 140C604.57 140 603.74 140.31 603.11 140.7C601.78 141.52 601 141.34 601 140.2C601 139 605.55 136.25 607.29 136.4L608.5 136.5L608.67 145.17L608.83 153.83L610.56 153.93C612.55 154.05 613.24 154.6 612.68 155.65C612.33 156.3 612.03 156.33 606.83 156.33L601.35 156.33L601.14 155.52ZM85.14 154.52C84.83 153.29 85.21 153 87.12 153C88.08 153 89.05 152.82 89.27 152.6C89.55 152.32 89.67 150.29 89.67 145.6C89.67 139.09 89.66 139 88.96 139C88.57 139 87.74 139.31 87.11 139.7C85.78 140.52 85 140.34 85 139.2C85 138 89.55 135.25 91.29 135.4L92.5 135.5L92.67 144.17L92.83 152.83L94.56 152.93C96.55 153.05 97.24 153.6 96.68 154.65C96.33 155.3 96.03 155.33 90.83 155.33L85.35 155.33L85.14 154.52ZM102.94 154.51C100.64 152.94 99.67 150.22 99.67 145.33C99.67 138.45 101.83 135.33 106.61 135.33C109.77 135.33 111.45 136.32 112.88 139C113.4 139.99 113.5 140.92 113.5 145C113.49 150.23 113.27 151.07 111.38 153.11C109.21 155.45 105.29 156.1 102.94 154.51ZM118.97 154.53C116.64 152.95 115.68 150.34 115.67 145.6C115.66 138.44 117.76 135.33 122.61 135.33C125.77 135.33 127.45 136.32 128.88 139C129.4 139.99 129.5 140.92 129.5 145C129.49 150.23 129.27 151.07 127.38 153.11C125.22 155.44 121.29 156.1 118.97 154.53ZM283.69 153.24C285.34 152.13 285.96 150.22 285.98 146.21C285.99 144.39 285.82 142.32 285.61 141.6C284.47 137.82 279.37 137.58 278.35 141.27C277.9 142.86 277.9 149.47 278.34 151.06C278.76 152.55 280.38 154 281.64 154C282.15 154 283.08 153.66 283.69 153.24ZM299.69 153.24C301.34 152.13 301.96 150.22 301.98 146.21C301.99 144.39 301.82 142.32 301.61 141.6C300.47 137.82 295.37 137.58 294.35 141.27C293.9 142.86 293.9 149.47 294.34 151.06C294.76 152.55 296.38 154 297.64 154C298.15 154 299.08 153.66 299.69 153.24ZM436.69 153.24C438.34 152.13 438.96 150.22 438.98 146.21C438.99 144.39 438.82 142.32 438.61 141.6C437.47 137.82 432.37 137.58 431.35 141.27C430.92 142.79 430.91 149.03 431.32 150.83C431.7 152.47 433.29 154 434.62 154C435.14 154 436.08 153.66 436.69 153.24ZM460.69 153.24C462.34 152.13 462.96 150.22 462.98 146.21C462.99 144.39 462.82 142.32 462.61 141.6C461.47 137.82 456.37 137.58 455.35 141.27C454.92 142.79 454.91 149.03 455.32 150.83C455.7 152.47 457.29 154 458.62 154C459.14 154 460.08 153.66 460.69 153.24ZM476.69 153.24C478.34 152.13 478.96 150.22 478.98 146.21C478.99 144.39 478.82 142.32 478.61 141.6C477.47 137.82 472.37 137.58 471.35 141.27C470.9 142.86 470.9 149.47 471.34 151.06C471.76 152.55 473.38 154 474.64 154C475.15 154 476.08 153.66 476.69 153.24ZM584.35 153.1C586.01 151.71 586.33 150.54 586.33 145.98C586.33 140.25 585.4 138.67 582.05 138.67C580.99 138.67 580.56 138.87 579.89 139.66C578.53 141.27 578.24 142.7 578.4 146.96C578.55 151.07 578.84 152.03 580.28 153.25C581.5 154.28 583.02 154.22 584.35 153.1ZM108.95 151.72C109.82 150.84 110.3 150.02 110.44 149.14C110.78 147.13 110.7 141.97 110.32 140.6C109.84 138.86 108.3 137.66 106.56 137.67C103.68 137.69 102.67 139.63 102.67 145.09C102.67 149.37 103.08 151.06 104.42 152.19C105.91 153.44 107.38 153.29 108.95 151.72ZM124.95 151.72C125.82 150.84 126.3 150.02 126.44 149.14C126.78 147.13 126.7 141.97 126.32 140.6C125.84 138.86 124.3 137.66 122.56 137.67C119.68 137.69 118.67 139.63 118.67 145.09C118.67 149.37 119.08 151.06 120.42 152.19C121.91 153.44 123.38 153.29 124.95 151.72ZM189.26 122.15L190 121.63L190 76.88C190 42.52 189.91 32.04 189.6 31.73C189.29 31.42 170.88 31.33 108.77 31.33L28.33 31.33L28.33 76.6C28.33 111.36 28.43 121.96 28.73 122.27C29.04 122.58 47.29 122.67 108.83 122.67C180.41 122.67 188.59 122.61 189.26 122.15ZM386.63 122.21C386.94 121.84 387.13 75.03 387 31.75C387 31.42 367.61 31.33 291.17 31.33L195.33 31.33L195.33 76.6C195.33 111.36 195.43 121.96 195.73 122.27C196.36 122.9 386.1 122.84 386.63 122.21ZM523.12 122.06C523.63 121.49 523.66 117.96 523.58 76.47L523.5 31.5L458.08 31.5L392.66 31.5L392.66 76.77C392.66 101.67 392.74 122.19 392.85 122.36C392.96 122.55 418.35 122.67 457.8 122.67C520.17 122.67 522.58 122.64 523.12 122.06ZM659.78 122.06C660.29 121.49 660.33 117.96 660.25 76.47L660.17 31.5L594.75 31.42L529.33 31.33L529.33 76.8C529.33 112.87 529.42 122.31 529.75 122.45C529.98 122.54 559.21 122.63 594.7 122.64C656.86 122.67 659.25 122.64 659.78 122.06ZM289.05 119.08C287.01 115.05 285.78 108.76 286.17 104.33C286.42 101.47 287.19 97.78 287.9 96.03C289.41 92.32 289.4 92.33 290.56 92.33C291.84 92.33 291.94 92.72 291.14 94.59C288.59 100.56 288.4 109.53 290.67 116.28C291.24 118 291.63 119.61 291.53 119.87C291.43 120.12 290.98 120.33 290.52 120.33C289.88 120.33 289.53 120.03 289.05 119.08ZM325.17 120.01C325.07 119.84 325.49 118.15 326.11 116.26C327.76 111.29 328.21 106.85 327.54 102.13C327.25 100.14 326.57 97.23 326.01 95.67C325.46 94.11 325 92.73 325 92.59C325 92.45 325.5 92.33 326.12 92.33C327.2 92.33 327.28 92.43 328.27 94.75C330.22 99.35 330.48 100.72 330.48 106.33C330.49 111.96 330.19 113.39 328.05 118.11C327.2 119.99 326.91 120.33 326.21 120.33C325.75 120.33 325.28 120.19 325.17 120.01ZM253.55 117.72C252.42 116.47 253.05 115.91 254.51 116.87C255.6 117.58 256.93 117.23 257.35 116.13C257.77 115.03 257.67 114.91 255.59 113.84C254.62 113.34 253.65 112.7 253.42 112.41C252.79 111.61 252.91 110.2 253.69 109.21C254.29 108.45 254.63 108.33 256.28 108.33C257.82 108.33 258.25 108.46 258.6 109.01C259.22 110.01 258.8 110.35 257.66 109.78C256.49 109.2 255.71 109.29 255.22 110.06C254.72 110.84 255.45 112.33 256.33 112.33C256.7 112.33 257.3 112.6 257.67 112.92C258.03 113.24 258.65 113.78 259.03 114.11C259.9 114.88 259.67 116.1 258.41 117.42C257.68 118.19 257.26 118.33 255.82 118.33C254.58 118.33 253.95 118.16 253.55 117.72ZM261.89 117.73C261.59 117.4 261.25 116.65 261.13 116.08C260.83 114.58 262.22 113.33 264.18 113.33C265.05 113.33 265.88 113.1 266.34 112.73C267.02 112.17 267.06 112.01 266.7 110.92C266.14 109.24 264.31 108.75 262.71 109.87C261.56 110.68 260.95 109.92 262.03 109.02C262.64 108.51 263.33 108.35 264.93 108.34C266.78 108.33 267.13 108.44 267.85 109.22C268.62 110.05 268.67 110.32 268.67 114.06C268.67 117.29 268.57 118.06 268.16 118.21C267.89 118.32 267.43 118.22 267.15 117.98C266.76 117.66 266.54 117.66 266.25 117.95C265.61 118.59 262.52 118.43 261.89 117.73ZM272.7 117.47C272.09 116.69 272 116.13 272 113.18C272 109.87 271.98 109.76 271.17 109.39C270.71 109.19 270.33 108.89 270.33 108.73C270.33 108.57 270.71 108.27 271.17 108.06C271.83 107.76 272 107.44 272 106.49C272 105.38 272.07 105.3 272.92 105.39C273.7 105.48 273.85 105.67 273.94 106.66C274.07 107.95 274.44 108.32 275.61 108.33C276.71 108.34 276.34 109.13 275.14 109.34L274.17 109.51L274.17 113.17L274.17 116.83L275.25 117.15C276.7 117.58 276.45 118.14 274.76 118.27C273.63 118.35 273.3 118.22 272.7 117.47ZM266.33 116.11C267.15 115.31 267.15 115.29 266.52 114.81C264.61 113.4 261.92 115.21 263.54 116.82C264.2 117.48 265.2 117.23 266.33 116.11ZM243.16 113.92C243.07 113.69 242.96 109.75 242.92 105.17L242.83 96.83L240.03 96.67C237.11 96.49 236.32 96.06 236.77 94.88C236.95 94.4 237.83 94.33 244.33 94.33C250.64 94.33 251.72 94.41 251.88 94.85C251.99 95.13 251.81 95.65 251.49 96.01C251 96.55 250.46 96.67 248.45 96.67L246 96.67L246 104.76C246 111.54 245.92 112.97 245.48 113.59C244.92 114.4 243.41 114.61 243.16 113.92ZM312.49 113.71C310.37 112.75 308.51 110.39 307.87 107.85C307.16 105.02 307.19 103.38 308 100.66C308.95 97.49 310 96.2 312.63 95C315.69 93.6 320.91 94.47 322.03 96.56C322.39 97.23 322.37 97.44 321.92 97.89C321.43 98.38 321.24 98.35 319.63 97.54C314.77 95.12 311.03 97.67 310.72 103.6C310.5 107.74 311.71 110.45 314.25 111.51C316.11 112.29 318.65 111.97 320.03 110.79C320.77 110.15 322.33 110.2 322.33 110.86C322.33 113.55 316.11 115.35 312.49 113.71ZM77.84 109.55C76.92 108.16 75.45 103.58 75.05 100.88C74.55 97.53 74.57 94.47 75.12 91.17C75.57 88.51 77.12 83.54 77.75 82.75C77.93 82.52 78.81 82.33 79.71 82.33C81.55 82.33 81.73 82.72 80.86 84.74C79.39 88.15 79.17 89.68 79.2 96.17C79.22 102.14 79.28 102.66 80.15 105.33C80.66 106.89 81.1 108.62 81.12 109.17C81.16 110.11 81.09 110.17 79.77 110.27C78.59 110.35 78.29 110.24 77.84 109.55ZM132.49 109.98C132.36 109.78 132.71 108.17 133.26 106.39C134.61 102.04 135 99.71 135 96C135 92.42 134.59 89.9 133.43 86.33C132.02 81.98 131.98 82.28 134.04 82.4C135.65 82.49 135.87 82.6 136.31 83.5C137.94 86.92 139.33 92.75 139.33 96.17C139.33 100.92 136.76 109.51 135.15 110.13C134.3 110.46 132.73 110.37 132.49 109.98ZM413.75 105.92C413.05 105.02 411.55 100.7 410.96 97.84C409.85 92.43 410.4 86.61 412.55 81L413.51 78.5L415.26 78.4C417.31 78.28 417.35 78.41 416.3 81.5C414.78 85.99 414.19 93.27 415.03 97.39C415.72 100.82 416.43 103.51 416.9 104.44C417.27 105.17 417.29 105.49 416.98 105.86C416.49 106.44 414.2 106.49 413.75 105.92ZM483.44 105.67C482.68 105.33 481.89 104.75 481.69 104.38C481.09 103.26 481.26 101.03 482.03 99.96C482.69 99.03 482.7 98.91 482.2 97.85C481.52 96.42 481.53 96.08 482.31 94.55C482.9 93.39 482.91 93.2 482.45 92.09C481.46 89.72 482.65 86.64 484.92 85.7C485.52 85.45 487.53 85.35 490.51 85.41L495.17 85.5L495.17 86.67C495.17 87.55 494.99 87.91 494.43 88.16C493.82 88.43 493.71 88.72 493.76 89.99C493.9 93.21 491.42 95.33 487.51 95.33C485.57 95.33 485.33 95.4 485.33 95.99C485.33 96.96 486.35 97.33 489.06 97.34C492.98 97.35 495.33 98.88 495.33 101.41C495.33 102.68 493.77 104.6 492 105.5C490.62 106.2 489.91 106.33 487.59 106.31C485.67 106.29 484.41 106.1 483.44 105.67ZM497.49 105.98C497.36 105.78 497.71 104.17 498.26 102.39C499.61 98.04 500 95.71 500 92C500 88.42 499.59 85.9 498.43 82.33C497.02 77.98 496.98 78.28 499.04 78.4C500.65 78.49 500.87 78.6 501.31 79.5C502.94 82.92 504.33 88.75 504.33 92.17C504.33 96.92 501.76 105.51 500.15 106.13C499.3 106.46 497.73 106.37 497.49 105.98ZM547.84 105.55C546.92 104.16 545.45 99.58 545.05 96.88C544.55 93.53 544.57 90.47 545.12 87.17C545.57 84.51 547.12 79.54 547.75 78.75C547.93 78.52 548.81 78.33 549.71 78.33C551.55 78.33 551.73 78.72 550.86 80.74C549.39 84.15 549.17 85.68 549.2 92.17C549.22 98.14 549.28 98.66 550.15 101.33C550.66 102.89 551.1 104.62 551.12 105.17C551.16 106.11 551.09 106.17 549.77 106.27C548.59 106.35 548.29 106.24 547.84 105.55ZM614.44 105.67C613.68 105.33 612.89 104.75 612.69 104.38C612.09 103.26 612.26 101.03 613.03 99.96C613.69 99.03 613.7 98.91 613.2 97.85C612.52 96.42 612.53 96.08 613.31 94.55C613.9 93.39 613.91 93.2 613.45 92.09C612.46 89.72 613.65 86.64 615.92 85.7C616.52 85.45 618.53 85.35 621.51 85.41L626.17 85.5L626.17 86.67C626.17 87.55 625.99 87.91 625.43 88.16C624.82 88.43 624.71 88.72 624.76 89.99C624.9 93.21 622.42 95.33 618.51 95.33C616.57 95.33 616.33 95.4 616.33 95.99C616.33 96.96 617.35 97.33 620.06 97.34C623.98 97.35 626.33 98.88 626.33 101.41C626.33 102.68 624.77 104.6 623 105.5C621.62 106.2 620.91 106.33 618.59 106.31C616.67 106.29 615.41 106.1 614.44 105.67ZM628.49 105.98C628.36 105.78 628.71 104.17 629.26 102.39C630.61 98.04 631 95.71 631 92C631 88.42 630.59 85.9 629.43 82.33C628.02 77.98 627.98 78.28 630.04 78.4C631.65 78.49 631.87 78.6 632.31 79.5C633.94 82.92 635.33 88.75 635.33 92.17C635.33 96.92 632.76 105.51 631.15 106.13C630.3 106.46 628.73 106.37 628.49 105.98ZM452.22 105.11C451.71 104.6 452.23 102.65 454.68 96C455.26 94.44 455.88 92.72 456.06 92.17C456.24 91.62 456.53 90.87 456.69 90.5C456.86 90.13 457.37 88.71 457.82 87.33C458.27 85.96 459.11 83.56 459.68 82C460.26 80.44 460.88 78.75 461.06 78.25C461.37 77.42 461.55 77.33 463.04 77.33C464.23 77.33 464.74 77.48 464.89 77.86C465.08 78.35 464.48 80.77 463.99 81.5C463.86 81.68 463.37 83.03 462.89 84.5C462.41 85.97 461.8 87.77 461.53 88.5C460.35 91.71 458.54 96.79 457.33 100.29C456.62 102.38 455.77 104.36 455.46 104.71C454.91 105.32 452.71 105.6 452.22 105.11ZM583.33 104.29C583.33 103.69 583.77 101.99 584.31 100.52C584.85 99.04 585.76 96.48 586.34 94.83C586.92 93.18 587.6 91.31 587.84 90.67C588.09 90.02 588.74 88.22 589.29 86.67C589.84 85.11 590.81 82.41 591.45 80.67L592.6 77.5L594.38 77.5C595.99 77.5 596.18 77.58 596.28 78.27C596.34 78.69 596.24 79.22 596.06 79.44C595.88 79.65 595.58 80.36 595.4 81C595.21 81.64 594.51 83.67 593.84 85.5C593.17 87.33 592.49 89.21 592.34 89.67C592.18 90.12 591.35 92.45 590.49 94.83C589.63 97.22 588.71 99.84 588.45 100.67C588.19 101.49 587.64 102.84 587.24 103.67C586.53 105.1 586.43 105.17 584.92 105.27L583.33 105.37L583.33 104.29ZM85.22 104.11C85.1 103.99 85 99.04 85 93.11L85 82.33L86.82 82.33C88.28 82.33 88.71 82.46 88.99 82.98C89.18 83.34 89.33 85.87 89.33 88.81C89.33 91.67 89.45 94 89.59 94C89.73 94 90.64 92.95 91.6 91.67L93.34 89.33L95.34 89.33C97.96 89.33 97.96 89.82 95.33 92.78C94.23 94.02 93.33 95.25 93.33 95.52C93.33 95.79 94.24 97.37 95.34 99.03C98.06 103.15 98.13 103.28 97.65 103.85C97.14 104.46 94.53 104.49 93.93 103.89C93.69 103.64 92.68 102.22 91.7 100.72C90.72 99.22 89.78 98 89.62 98C89.46 98 89.33 99.09 89.33 100.43C89.33 103.56 88.85 104.33 86.87 104.33C86.09 104.33 85.34 104.23 85.22 104.11ZM100.73 103.93C100.44 103.64 100.33 101.07 100.33 94.46C100.33 89.47 100.42 85.15 100.54 84.86C100.71 84.42 101.44 84.33 105.24 84.33C109.49 84.33 109.84 84.38 111.38 85.22C113.59 86.43 114.33 87.7 114.33 90.3C114.33 94.45 111.17 97.33 106.63 97.33L104.67 97.33L104.67 100.43C104.67 102.4 104.52 103.68 104.27 103.93C104.05 104.15 103.25 104.33 102.5 104.33C101.75 104.33 100.95 104.15 100.73 103.93ZM118.24 103.72C116.71 102.71 116.36 101.98 116.34 99.81C116.34 98.13 116.46 97.66 117.09 97.07C118.27 95.96 120.14 95.33 122.26 95.33C124.94 95.33 125.68 94.52 124.32 93.06C123.49 92.17 121.88 92.11 119.35 92.86C117.27 93.48 116.91 93.26 117.06 91.49C117.15 90.38 117.31 90.17 118.33 89.8C119.97 89.21 125.13 89.21 126.27 89.8C128.64 91.04 129.33 93.19 129.33 99.32C129.33 101.98 129.2 103.04 128.81 103.59C128.19 104.48 126.68 104.58 125.51 103.81C124.79 103.34 124.62 103.34 123.71 103.81C122.31 104.53 119.4 104.49 118.24 103.72ZM490.12 102.64C491.82 101.31 490.8 100.33 487.71 100.33C485.96 100.33 485.33 100.75 485.33 101.91C485.33 103.37 488.57 103.86 490.12 102.64ZM621.12 102.64C622.82 101.31 621.8 100.33 618.71 100.33C616.96 100.33 616.33 100.75 616.33 101.91C616.33 103.37 619.57 103.86 621.12 102.64ZM123.7 100.57C125.33 99.47 125.23 98.53 123.48 98.4C121.53 98.26 120.33 98.79 120.33 99.81C120.33 101.38 121.96 101.74 123.7 100.57ZM420.7 99.87C420.43 99.55 420.35 97.31 420.41 92.46L420.5 85.5L422.08 85.4C422.95 85.34 423.67 85.42 423.67 85.57C423.67 85.71 423.8 86.03 423.96 86.28C424.19 86.64 424.5 86.59 425.61 86.03C427.58 85.02 430.2 85.08 431.81 86.17L433.04 87.01L434.47 86.17C436.3 85.09 438.99 85.02 440.6 86.01C442.35 87.07 442.77 88.5 442.93 93.92C443.1 99.59 442.84 100.33 440.7 100.33C439.99 100.33 439.26 100.14 439.07 99.91C438.87 99.68 438.67 97.35 438.61 94.61C438.51 90.38 438.42 89.64 437.87 89.03C436.98 88.06 435.79 88.16 434.64 89.31L433.67 90.28L433.67 94.91C433.67 98.06 433.54 99.66 433.27 99.93C433.05 100.15 432.23 100.33 431.45 100.33C430.38 100.33 429.94 100.17 429.68 99.69C429.49 99.33 429.33 96.9 429.33 94.21C429.33 89.59 429.3 89.35 428.59 88.85C427.55 88.12 426.87 88.2 425.69 89.2L424.67 90.06L424.67 94.55C424.67 97.02 424.51 99.33 424.32 99.69C423.9 100.47 421.31 100.6 420.7 99.87ZM467.7 99.88C467.43 99.55 467.35 96.4 467.41 88.96L467.5 78.5L469.2 78.4C470.33 78.34 471.02 78.45 471.27 78.76C471.51 79.05 471.68 81.26 471.74 84.85L471.83 90.48L473.85 87.99L475.87 85.5L477.82 85.5C478.94 85.5 479.83 85.66 479.9 85.86C479.97 86.06 479.2 87.15 478.19 88.28C475.3 91.51 475.33 91.31 477.42 94.45C481.07 99.93 481.14 100.43 478.26 100.27L476.52 100.17L474.51 97.19C473.4 95.55 472.31 94.15 472.08 94.08C471.77 93.98 471.67 94.61 471.67 96.49C471.67 99.82 471.38 100.33 469.53 100.33C468.71 100.33 467.92 100.14 467.7 99.88ZM555.03 99.87C554.77 99.55 554.68 97.31 554.74 92.46L554.83 85.5L556.39 85.4C557.71 85.31 557.98 85.4 558.16 85.98C558.43 86.83 558.58 86.83 559.83 86C560.56 85.52 561.4 85.34 562.89 85.34C564.63 85.33 565.11 85.47 565.99 86.21L567.03 87.09L568.65 86.21C569.84 85.56 570.74 85.33 572.13 85.33C573.79 85.33 574.14 85.46 575.27 86.48C576.9 87.96 577.33 89.73 577.33 94.95C577.33 99.82 577.04 100.42 574.72 100.27L573.17 100.17L573.07 95.21C572.99 90.83 572.9 90.13 572.3 89.29C571.4 88.02 570.1 88.02 568.9 89.27C568.01 90.19 568 90.27 568 94.72C568 98.67 567.92 99.3 567.39 99.78C566.52 100.57 564.45 100.51 564.01 99.69C563.82 99.33 563.67 96.97 563.67 94.43C563.67 90.79 563.56 89.66 563.15 89.07C562.45 88.07 561.06 88.12 559.91 89.18C559.01 90.02 559 90.06 559 94.44C559 99.65 558.73 100.33 556.69 100.33C555.99 100.33 555.24 100.13 555.03 99.87ZM598.7 99.88C598.43 99.55 598.35 96.4 598.41 88.96L598.5 78.5L600.2 78.4C601.33 78.34 602.02 78.45 602.27 78.76C602.51 79.05 602.68 81.26 602.74 84.85L602.83 90.48L604.85 87.99L606.87 85.5L608.82 85.5C609.94 85.5 610.83 85.66 610.9 85.86C610.97 86.06 610.2 87.15 609.19 88.28C606.3 91.51 606.33 91.31 608.42 94.45C612.07 99.93 612.14 100.43 609.26 100.27L607.52 100.17L605.51 97.19C604.4 95.55 603.31 94.15 603.08 94.08C602.77 93.98 602.67 94.61 602.67 96.49C602.67 99.82 602.38 100.33 600.53 100.33C599.71 100.33 598.92 100.14 598.7 99.88ZM296.27 98.57C295.11 97.61 294.67 96.39 294.67 94.12C294.67 90.8 296.04 89.36 299.23 89.35C301.1 89.33 301.39 89.43 302.45 90.43C304.57 92.43 304.5 95.44 302.27 97.86C300.97 99.27 300.84 99.33 299.04 99.32C297.61 99.31 296.95 99.13 296.27 98.57ZM300.87 97.2C301.86 96.2 302 95.86 302 94.33C302 92.07 301.22 90.74 299.73 90.46C298.41 90.21 296.98 91.08 296.62 92.36C295.79 95.33 297.08 98.21 299.28 98.31C299.53 98.32 300.24 97.82 300.87 97.2ZM108.71 93.04C110.26 91.48 110.43 90.04 109.22 88.53C108.57 87.72 108.15 87.54 106.56 87.41L104.67 87.25L104.67 90.57C104.67 92.4 104.77 93.99 104.89 94.11C105.01 94.23 105.63 94.33 106.26 94.33C107.15 94.33 107.7 94.04 108.71 93.04ZM489.37 91.4C490.59 90.31 490.5 89.34 489.14 88.72C488.01 88.2 487.29 88.23 486.41 88.85C485.48 89.5 485.46 90.65 486.35 91.6C487.26 92.58 488.11 92.52 489.37 91.4ZM620.37 91.4C621.59 90.31 621.5 89.34 620.14 88.72C619.01 88.2 618.29 88.23 617.41 88.85C616.48 89.5 616.46 90.65 617.35 91.6C618.26 92.58 619.11 92.52 620.37 91.4ZM265.56 88.11C265.43 87.99 265.33 84.16 265.33 79.61L265.33 71.33L266.55 71.33C267.32 71.33 267.92 71.55 268.19 71.92C268.6 72.47 268.66 72.47 269.61 71.92C270.2 71.57 271.28 71.33 272.29 71.33C274.57 71.33 276.09 72.62 276.67 75.03C277.74 79.46 275.15 83.64 271.6 83.24C270.81 83.15 269.83 82.97 269.42 82.83C268.68 82.59 268.67 82.65 268.67 85.06C268.67 86.54 268.51 87.69 268.27 87.93C267.84 88.36 265.93 88.48 265.56 88.11ZM360.33 85.7C360.33 85.36 360.63 84.42 360.99 83.62C361.36 82.82 361.66 81.77 361.66 81.28C361.67 79.69 361.98 79.33 363.36 79.33C365.85 79.33 365.82 81.48 363.3 84.67C362.36 85.86 361.75 86.33 361.16 86.33C360.57 86.33 360.33 86.15 360.33 85.7ZM446.25 84.63C445.37 83.97 445.04 82.89 445.6 82.54C445.75 82.45 446.56 82.62 447.4 82.92C449.22 83.57 450.43 83.21 451.06 81.82C451.62 80.6 450.54 79.59 448.42 79.35C446.99 79.18 446.82 79.08 446.73 78.25C446.63 77.4 446.71 77.33 447.79 77.33C449.25 77.33 450.82 76.12 450.48 75.25C450.17 74.41 448.82 74.17 447.3 74.68C445.81 75.17 445.51 75.02 445.79 73.91C446.31 71.8 451.97 71.73 453.41 73.81C453.91 74.53 453.67 76.33 452.99 77.01L452.31 77.69L453.32 78.92C454.48 80.33 454.61 81.59 453.75 83.06C452.49 85.22 448.24 86.11 446.25 84.63ZM580.54 84.64C580.06 84.26 579.67 83.65 579.67 83.27C579.67 82.7 579.82 82.62 580.58 82.78C581.09 82.89 581.95 83.07 582.5 83.18C584.43 83.57 586.22 81.15 584.85 80.02C584.59 79.8 583.65 79.51 582.77 79.39C581.34 79.19 581.16 79.06 581.06 78.25C580.96 77.4 581.05 77.33 582.13 77.33C583.58 77.33 585.15 76.12 584.82 75.25C584.51 74.45 583.12 74.16 581.84 74.62C580.31 75.17 580 75.1 580 74.18C580 73.02 581.48 72.33 583.95 72.33C585.67 72.33 586.06 72.46 586.96 73.3C588.17 74.43 588.29 75.54 587.33 76.76C586.51 77.81 586.5 78.18 587.28 78.73C589.5 80.3 588.74 83.44 585.77 84.96C584.51 85.61 581.54 85.43 580.54 84.64ZM220.72 82.89C220.49 82.62 220.31 80.19 220.26 76.48L220.17 70.5L218.17 70.33L216.17 70.17L216.06 68.74L215.96 67.32L222.23 67.41L228.5 67.5L228.61 68.44C228.77 69.87 228.16 70.33 226.13 70.33L224.33 70.33L224.33 76.09C224.33 82.66 224.13 83.33 222.19 83.33C221.58 83.33 220.92 83.13 220.72 82.89ZM232.33 82.68C230.55 81.73 229.84 80.26 229.84 77.5C229.83 74.58 230.42 73.17 232.05 72.14C233.05 71.5 233.77 71.33 235.44 71.33C237.27 71.33 237.76 71.47 238.93 72.32C239.88 73.01 240.4 73.7 240.65 74.57C241.53 77.77 240.93 78.33 236.56 78.33C234.04 78.33 233.33 78.43 233.33 78.79C233.33 80.11 235.97 80.69 238.16 79.85C239.95 79.17 240.33 79.35 240.33 80.85C240.33 81.84 240.16 82.07 239.01 82.66C237.28 83.55 233.98 83.56 232.33 82.68ZM244.01 82.69C243.65 82 243.52 72.76 243.87 71.86C244.14 71.15 246.2 71.15 246.6 71.87C246.87 72.36 246.98 72.36 247.93 71.87C249.4 71.11 252.04 71.17 253.07 71.98C253.89 72.63 253.91 72.63 255.12 71.98C256.63 71.17 259.05 71.13 260.22 71.9C261.51 72.75 262.06 74.45 262.25 78.24C262.46 82.33 262.06 83.33 260.19 83.33C258.77 83.33 258.67 83.05 258.67 79.05C258.67 75.49 258.23 74.33 256.87 74.33C256.46 74.33 255.79 74.68 255.39 75.1C254.75 75.79 254.67 76.25 254.67 79.23C254.67 83 254.44 83.45 252.61 83.27L251.5 83.17L251.33 79.22C251.19 75.82 251.08 75.21 250.52 74.81C249.68 74.2 248.99 74.21 248.07 74.85C247.39 75.33 247.33 75.64 247.33 78.71C247.33 80.54 247.18 82.33 246.99 82.69C246.51 83.58 244.49 83.58 244.01 82.69ZM281.63 82.67C279.64 81.62 279.17 80.59 279.17 77.32C279.17 75.14 279.31 74.26 279.77 73.55C280.78 72.01 282.25 71.34 284.59 71.33C287.27 71.33 288.99 72.32 289.79 74.32C291.09 77.57 290.35 78.33 285.89 78.33C283.3 78.33 282.67 78.43 282.67 78.81C282.67 79.5 283.99 80.33 285.08 80.33C285.6 80.33 286.57 80.11 287.23 79.83C288.92 79.12 289.73 79.44 289.6 80.77C289.53 81.52 289.19 82.02 288.37 82.57C286.88 83.57 283.43 83.62 281.63 82.67ZM293.01 82.69C292.65 82 292.52 72.76 292.87 71.86C293.15 71.12 295.2 71.16 295.62 71.91C295.93 72.45 295.98 72.45 296.61 71.89C297.08 71.46 297.68 71.32 298.72 71.4L300.17 71.5L300.17 72.83C300.17 74.15 300.14 74.17 298.78 74.35C296.5 74.66 296.33 74.96 296.33 78.73C296.33 82.68 296.07 83.33 294.5 83.33C293.71 83.33 293.25 83.13 293.01 82.69ZM303.26 82.75C302.37 82.2 301.67 80.83 301.67 79.63C301.67 77.69 303.64 76.33 306.47 76.33C308.16 76.33 309.01 75.65 308.33 74.83C307.8 74.2 306.14 74.19 304.34 74.83C303.56 75.1 302.79 75.25 302.63 75.14C302.47 75.04 302.33 74.4 302.33 73.71C302.33 72.6 302.47 72.39 303.51 71.9C305.1 71.14 309.06 71.13 310.33 71.88C311.89 72.81 312.33 74.24 312.33 78.37C312.33 80.39 312.18 82.33 311.99 82.69C311.6 83.42 310.32 83.54 309.35 82.94C308.86 82.63 308.52 82.63 307.84 82.94C306.6 83.5 304.32 83.41 303.26 82.75ZM317.02 82.52C316.13 81.58 315.7 79.72 315.68 76.75C315.67 75.6 315.53 74.67 315.36 74.67C314.73 74.67 314 73.59 314 72.65C314 71.99 314.26 71.51 314.83 71.14C315.29 70.84 315.67 70.32 315.67 69.99C315.67 68.66 316.04 68.33 317.53 68.33C319.06 68.33 319.09 68.37 319.41 70.5C319.48 71.01 319.8 71.19 320.75 71.27C321.74 71.35 322.04 71.54 322.19 72.16C322.52 73.44 321.81 74.33 320.49 74.33L319.33 74.33L319.33 76.96C319.33 79.82 319.54 80.2 321.16 80.39C322.41 80.53 322.58 81.26 321.66 82.44C321.07 83.19 320.69 83.33 319.37 83.33C318.12 83.33 317.62 83.16 317.02 82.52ZM326.19 82.84C324.55 81.56 324.34 80.76 324.34 75.9L324.33 71.3L325.92 71.4L327.5 71.5L327.67 75.44C327.81 78.85 327.92 79.45 328.48 79.86C329.39 80.52 329.8 80.46 330.97 79.47L332 78.61L332 74.95L332 71.3L333.58 71.4L335.17 71.5L335.26 76.96C335.32 80.7 335.23 82.56 334.97 82.87C334.43 83.52 332.99 83.45 332.48 82.75C332.1 82.23 331.94 82.21 330.94 82.63C329.28 83.33 326.95 83.44 326.19 82.84ZM338.68 82.69C338.31 82 338.19 72.76 338.54 71.86C338.8 71.18 340.77 71.16 341.33 71.83C341.69 72.26 341.82 72.26 342.44 71.83C342.83 71.56 343.72 71.33 344.41 71.33C345.42 71.33 345.75 71.49 346.04 72.12C346.6 73.36 345.92 74.33 344.49 74.33C342.45 74.33 342 75.16 342 78.86C342 82.68 341.73 83.33 340.17 83.33C339.38 83.33 338.92 83.13 338.68 82.69ZM349.97 82.58C346.65 80.37 346.49 74.17 349.7 72.15C350.7 71.52 351.44 71.33 353.01 71.33C356.37 71.33 358.22 72.76 358.56 75.61C358.86 78.16 358.6 78.33 354.46 78.33C351.74 78.33 351 78.43 351 78.79C351 80.08 353.55 80.66 355.82 79.89C358.03 79.14 358.82 79.68 358.13 81.49C357.43 83.29 352.11 84 349.97 82.58ZM272.44 79.4C274.2 77.56 273.33 74.33 271.07 74.33C269.36 74.33 268.67 75.15 268.67 77.16C268.67 78.7 268.79 79.05 269.54 79.64C270.72 80.57 271.37 80.51 272.44 79.4ZM307.79 79.64C308.91 78.76 308.65 78.33 306.97 78.33C305.6 78.33 305.08 78.85 305.45 79.83C305.72 80.54 306.76 80.45 307.79 79.64ZM237.31 75.86C237.62 75.49 237.54 75.28 236.94 74.86C235.51 73.86 232.96 74.54 233.44 75.79C233.71 76.5 236.73 76.56 237.31 75.86ZM286.5 75.51C286.5 73.95 282.95 74.04 282.72 75.61C282.62 76.33 282.7 76.36 284.56 76.27C286.24 76.18 286.5 76.08 286.5 75.51ZM354.93 75.94C355.23 75.63 355.2 75.4 354.78 74.94C353.72 73.77 350.61 74.49 351.1 75.79C351.36 76.45 354.3 76.56 354.93 75.94ZM52.56 66.11C52.43 65.99 52.33 61.49 52.33 56.11L52.33 46.33L56.75 46.34C60.73 46.34 61.34 46.42 62.91 47.15C66.73 48.93 67.42 53.39 64.38 56.76C62.76 58.56 61 59.32 58.42 59.33L56.33 59.33L56.33 62.43C56.33 64.4 56.19 65.68 55.93 65.93C55.51 66.35 52.94 66.49 52.56 66.11ZM69.22 66.11C69.1 65.99 69 62.61 69 58.61L69 51.33L70.51 51.33C71.83 51.33 72.06 51.44 72.35 52.21L72.68 53.08L73.55 52.21C74.72 51.03 77.04 50.96 77.81 52.07C78.93 53.66 77.86 55.89 76.18 55.47C75.68 55.35 74.99 55.5 74.35 55.87L73.33 56.48L73.33 60.66C73.33 65.72 73.07 66.33 70.87 66.33C70.09 66.33 69.34 66.23 69.22 66.11ZM83.33 65.8C79.94 64.33 78.45 60.01 79.87 55.76C80.89 52.7 82.98 51.33 86.57 51.35C90.65 51.37 92.76 53.06 93.24 56.69C93.38 57.68 93.27 58.18 92.83 58.67C92.29 59.27 91.79 59.33 87.95 59.33L83.67 59.33L83.67 60.2C83.67 60.74 84.09 61.49 84.8 62.2C86.12 63.52 87.28 63.65 89.94 62.79C91.91 62.15 92.67 62.34 92.67 63.45C92.67 64.52 91.76 65.51 90.37 65.96C88.75 66.49 84.72 66.4 83.33 65.8ZM96.42 65.67C95.48 65.1 95.33 64.83 95.33 63.63C95.33 62.31 95.37 62.26 96.25 62.44C96.75 62.54 97.81 62.81 98.6 63.05C99.83 63.42 100.17 63.41 100.94 62.98C102.06 62.34 102.09 61.31 101 60.81C96.6 58.79 95.33 57.63 95.33 55.6C95.33 52.96 97.56 51.33 101.17 51.33C104.11 51.33 105.33 51.96 105.33 53.47C105.33 55.04 104.66 55.52 103.37 54.85C101.77 54.03 99.33 54.23 99.33 55.19C99.33 55.9 100.69 56.98 102.05 57.35C103.55 57.75 105.17 59.04 105.86 60.39C106.52 61.67 106.06 63.16 104.58 64.57C102.98 66.07 102.28 66.33 99.77 66.33C98.1 66.33 97.22 66.16 96.42 65.67ZM108.88 65.64C108.2 65.11 108 64.66 108 63.64C108 62.15 108.54 61.96 110.21 62.83C111.63 63.57 113.1 63.46 113.95 62.56C114.64 61.82 114.65 61.75 114.09 61.27C113.76 60.98 112.57 60.34 111.43 59.84C108.86 58.7 108.3 58.09 108.08 56.19C107.72 52.96 109.53 51.33 113.5 51.33C114.82 51.33 116.09 51.54 116.68 51.84C117.96 52.5 118.31 53.84 117.44 54.7C116.84 55.31 116.73 55.32 115.74 54.82C115.16 54.53 114.12 54.34 113.42 54.4C112.33 54.49 112.17 54.61 112.17 55.33C112.17 56.04 112.54 56.35 114.58 57.33C117.88 58.93 118.5 59.61 118.5 61.65C118.5 63.51 117.71 64.62 115.6 65.7C113.81 66.62 110.08 66.59 108.88 65.64ZM123.76 65.68C121.71 64.42 121.33 63.07 121.33 56.83L121.33 51.3L123.25 51.4L125.17 51.5L125.33 56.53C125.46 60.31 125.63 61.73 126 62.2C127.17 63.68 127.63 63.67 129.32 62.14L130.65 60.94L130.74 56.22L130.83 51.5L132.49 51.4C134.96 51.24 135 51.37 135 58.66C135 65.74 134.83 66.33 132.81 66.33C131.88 66.33 131.59 66.17 131.33 65.5C131.16 65.04 130.95 64.67 130.88 64.67C130.8 64.67 130.08 65.04 129.28 65.5C127.48 66.53 125.28 66.6 123.76 65.68ZM138.7 65.87C138.43 65.55 138.35 63.31 138.41 58.46L138.5 51.5L140.08 51.4C140.95 51.34 141.67 51.42 141.67 51.57C141.67 51.71 141.81 52.04 141.97 52.3C142.22 52.69 142.43 52.64 143.18 52.05C144.4 51.09 146.82 51.05 147.32 51.98C148.3 53.8 147.31 55.73 145.55 55.44C144.79 55.32 144.25 55.47 143.58 55.99C142.67 56.71 142.67 56.73 142.67 60.88C142.67 63.17 142.51 65.33 142.32 65.69C141.9 66.47 139.31 66.6 138.7 65.87ZM152.44 65.66C151.55 65.27 150.7 64.53 150.1 63.63C149.23 62.31 149.17 61.98 149.17 58.86C149.17 55.76 149.24 55.39 150.08 54.09C151.38 52.1 153.05 51.33 156.07 51.34C160 51.35 162.28 53.06 162.58 56.26C162.87 59.2 162.66 59.33 157.65 59.33L153.33 59.33L153.33 60.44C153.33 62.73 156.06 63.9 159 62.87C161.2 62.1 161.95 62.17 162.2 63.19C162.48 64.28 161.35 65.54 159.69 66C157.75 66.54 154.01 66.36 152.44 65.66ZM591.76 65.68C590.51 64.91 590.1 63.72 590.71 62.61C590.95 62.18 591.16 61.16 591.17 60.33C591.29 54.1 591.3 54 592.15 53.15C592.91 52.39 593.21 52.33 596.28 52.33C599.93 52.33 600.61 52.72 599.29 54.04C598.87 54.46 598.67 54.99 598.78 55.39C599.26 57.24 597.19 59.33 594.88 59.33C594.02 59.33 593.67 59.48 593.67 59.83C593.67 60.22 594.09 60.33 595.52 60.33C598.62 60.33 600.09 61.61 599.53 63.83C599.41 64.3 598.75 65.03 598 65.5C596.29 66.58 593.37 66.66 591.76 65.68ZM464.87 63.81C464.76 63.52 464.67 61.83 464.67 60.05C464.67 57.19 464.59 56.78 464 56.41C463.07 55.83 463.15 54.53 464.17 53.86C464.73 53.5 465 53.01 465 52.38C465 51.03 465.93 50.33 467.74 50.33C469.47 50.33 470.35 51 469.68 51.81C469.46 52.08 468.96 52.34 468.56 52.4C468.12 52.46 467.79 52.78 467.73 53.21C467.66 53.75 467.88 54.01 468.67 54.29C469.95 54.73 469.91 55.63 468.58 56.27C467.68 56.7 467.67 56.75 467.67 59.87C467.67 61.62 467.51 63.33 467.32 63.69C466.89 64.49 465.16 64.57 464.87 63.81ZM596.36 63.71L597.13 63.09L596.38 62.69C595.28 62.11 593.53 62.36 593.39 63.13C593.15 64.37 595.07 64.75 596.36 63.71ZM452.83 59.99C452.23 59.03 448.56 47.97 448.42 46.73L448.26 45.3L450.19 45.4L452.12 45.5L453.38 49.17C454.07 51.18 454.64 53.07 454.65 53.35C454.66 53.64 454.88 54.16 455.14 54.52C455.59 55.14 455.62 55.13 455.93 54.33C456.11 53.87 456.48 52.75 456.75 51.83C458.2 47.04 458.5 46.13 458.78 45.75C459.21 45.16 462.3 45.2 462.53 45.8C462.77 46.42 458.53 58.9 457.8 59.7C457.36 60.19 456.77 60.33 455.13 60.33C453.98 60.33 452.94 60.18 452.83 59.99ZM580.2 56.58C579.61 55.67 575.67 43.81 575.67 42.95C575.67 42.43 575.94 42.33 577.46 42.33C578.49 42.33 579.4 42.51 579.6 42.75C579.92 43.15 580.69 45.38 581.87 49.33C582.17 50.34 582.48 51.39 582.56 51.67C582.83 52.54 583.59 51.11 584.52 48.02C586.34 41.93 585.97 42.51 588.07 42.4C589.35 42.33 589.97 42.43 590.08 42.74C590.29 43.27 586.3 55.33 585.53 56.5C585.04 57.25 584.76 57.33 582.83 57.33C580.97 57.33 580.62 57.23 580.2 56.58ZM595.72 56.78C596.94 55.68 596.1 54.07 594.5 54.47C593.85 54.63 593.67 54.89 593.67 55.66C593.67 56.24 593.9 56.77 594.25 56.97C595.02 57.42 595.02 57.42 595.72 56.78ZM59.92 55.67C61.91 54.46 62.28 51.89 60.69 50.31C59.87 49.49 59.45 49.33 58.03 49.33L56.33 49.33L56.33 52.61C56.33 54.41 56.43 55.99 56.56 56.11C57 56.56 58.86 56.31 59.92 55.67ZM88.89 55.81C89.19 55.02 88.54 54.59 86.77 54.42C85.51 54.3 84.98 54.41 84.36 54.91C83.13 55.9 83.74 56.33 86.36 56.33C88.17 56.33 88.73 56.22 88.89 55.81ZM158.31 55.86C158.99 55.05 157.32 54.21 155.46 54.42C153.76 54.61 153.15 55.03 153.45 55.81C153.72 56.52 157.73 56.56 158.31 55.86ZM235.42 50.67C234.48 50.1 234.33 49.82 234.33 48.67C234.33 47.17 234.5 47.1 236.5 47.82C238.45 48.53 239.83 48.45 240.84 47.58C242.09 46.5 241.66 45.83 238.87 44.51C235.78 43.04 234.94 42.14 234.77 40.09C234.51 36.95 236.34 35.33 240.17 35.33C243.01 35.33 244.33 36.07 244.33 37.65C244.33 39.06 243.67 39.44 242.22 38.84C239.98 37.9 238.19 38.3 238.39 39.7C238.47 40.31 239.05 40.77 240.87 41.67C243.69 43.07 244.21 43.47 244.88 44.77C245.89 46.71 244.6 49.34 241.97 50.68C240.21 51.58 236.9 51.57 235.42 50.67ZM248.51 50.68C247.96 50.32 247.41 49.75 247.28 49.43C246.98 48.67 246.94 46.88 247.21 46.18C247.55 45.29 249.83 44.33 251.61 44.33C253.6 44.33 254.55 43.56 253.51 42.8C252.72 42.22 251.22 42.23 249.57 42.81C248.49 43.2 248.24 43.19 247.82 42.77C246.91 41.87 247.3 40.54 248.69 39.82C250.13 39.08 254.23 39.17 255.56 39.98C257.21 40.99 257.36 41.56 257.26 46.38C257.15 51.48 256.99 51.77 254.69 51.01C253.64 50.66 253.22 50.65 252.92 50.94C252.29 51.57 249.62 51.41 248.51 50.68ZM262.2 50.37C261.35 49.48 261.26 49.14 261.09 46.01C260.91 42.83 260.85 42.59 260.12 42.31C259 41.89 258.98 39.65 260.08 39.16C260.59 38.94 260.89 38.46 261 37.67C261.16 36.53 261.21 36.5 262.67 36.5L264.17 36.5L264.33 37.83C264.49 39.1 264.56 39.17 265.83 39.33C267 39.48 267.18 39.62 267.27 40.44C267.42 41.7 266.81 42.33 265.46 42.33L264.33 42.33L264.34 44.75C264.34 47.63 264.61 48.14 266.06 48.16C267.02 48.17 267.18 48.29 267.27 49.11C267.44 50.56 266.53 51.33 264.68 51.33C263.4 51.33 262.96 51.16 262.2 50.37ZM271.17 50.23C269.87 48.94 269.56 47.27 269.73 42.5L269.83 39.5L271.3 39.4C272.25 39.33 272.87 39.45 273.05 39.73C273.2 39.97 273.33 41.76 273.33 43.7C273.33 46.76 273.42 47.31 273.98 47.81C274.73 48.5 275.59 48.31 276.6 47.24C277.21 46.58 277.32 46.01 277.4 42.99L277.5 39.5L278.82 39.39C280.83 39.23 281 39.67 281 45.16C281 48.87 280.89 50.01 280.48 50.59C279.89 51.44 278.41 51.59 278.12 50.83C277.88 50.2 276.7 50.21 275.85 50.84C275.5 51.11 274.54 51.33 273.74 51.33C272.52 51.33 272.08 51.15 271.17 50.23ZM284.16 50.58C284.06 50.17 284.02 47.51 284.07 44.67L284.17 39.5L284.97 39.39C285.41 39.32 286.13 39.47 286.57 39.7C287.2 40.04 287.51 40.05 288.02 39.73C288.84 39.22 290.75 39.22 291.27 39.73C292.32 40.78 291.29 42.59 289.75 42.38C289.25 42.32 288.63 42.57 288.13 43.03C287.39 43.73 287.33 44.02 287.33 47.16C287.33 50.91 287.14 51.33 285.44 51.33C284.58 51.33 284.31 51.17 284.16 50.58ZM294.26 50.75C293.37 50.2 292.67 48.83 292.67 47.63C292.67 45.69 294.64 44.33 297.47 44.33C299.16 44.33 300.01 43.65 299.33 42.83C298.8 42.2 297.14 42.19 295.34 42.83C294.56 43.1 293.79 43.25 293.63 43.14C293.47 43.04 293.33 42.4 293.33 41.71C293.33 40.6 293.47 40.39 294.51 39.9C296.1 39.14 300.06 39.13 301.33 39.88C302.89 40.81 303.33 42.24 303.33 46.37C303.33 48.39 303.18 50.33 302.99 50.69C302.6 51.42 301.32 51.54 300.35 50.94C299.86 50.63 299.52 50.63 298.84 50.94C297.6 51.5 295.32 51.41 294.26 50.75ZM308.02 50.52C307.13 49.58 306.7 47.72 306.68 44.75C306.67 43.6 306.53 42.67 306.36 42.67C305.73 42.67 305 41.59 305 40.65C305 39.99 305.26 39.51 305.83 39.14C306.29 38.84 306.67 38.32 306.67 37.99C306.67 36.66 307.04 36.33 308.53 36.33C310.06 36.33 310.09 36.37 310.41 38.5C310.48 39.01 310.8 39.19 311.75 39.27C312.74 39.35 313.04 39.54 313.19 40.16C313.52 41.44 312.81 42.33 311.49 42.33L310.33 42.33L310.33 44.96C310.33 47.82 310.54 48.2 312.16 48.39C313.41 48.53 313.58 49.26 312.66 50.44C312.07 51.19 311.69 51.33 310.37 51.33C309.12 51.33 308.62 51.16 308.02 50.52ZM315.68 50.69C315.31 50 315.19 40.76 315.54 39.86C315.82 39.12 318.51 39.12 318.8 39.86C319.14 40.76 319.02 50 318.65 50.69C318.42 51.13 317.96 51.33 317.17 51.33C316.38 51.33 315.92 51.13 315.68 50.69ZM323.97 50.58C322.52 49.62 321.33 47.29 321.33 45.41C321.33 43.19 322.46 40.91 323.98 40.05C325.69 39.09 329.15 39.06 330.96 39.98C332.95 40.99 333.49 42.07 333.5 45.02C333.5 47.28 333.4 47.68 332.56 48.78C331.25 50.5 329.46 51.33 327.06 51.33C325.58 51.33 324.82 51.15 323.97 50.58ZM336.56 51.11C336.43 50.99 336.33 48.29 336.33 45.11L336.33 39.33L337.55 39.33C338.28 39.33 338.92 39.55 339.15 39.87C339.52 40.37 339.63 40.37 340.59 39.87C341.88 39.21 344.61 39.19 345.47 39.84C347.08 41.05 347.33 41.94 347.33 46.38C347.33 51.07 347.17 51.46 345.27 51.27L344.17 51.17L344 47.22C343.86 43.82 343.74 43.21 343.19 42.81C342.29 42.15 341.58 42.21 340.54 43.02C339.7 43.69 339.67 43.84 339.67 47.12C339.67 49.33 339.53 50.67 339.27 50.93C338.84 51.36 336.93 51.48 336.56 51.11ZM253.12 47.64C254.21 46.79 253.99 46.33 252.51 46.33C250.5 46.33 249.78 46.98 250.73 47.93C251.32 48.52 252.13 48.42 253.12 47.64ZM298.79 47.64C299.91 46.76 299.65 46.33 297.97 46.33C296.6 46.33 296.08 46.85 296.45 47.83C296.72 48.54 297.76 48.45 298.79 47.64ZM328.68 47.78C329.94 46.94 330.33 46.31 330.33 45.09C330.33 42.75 327.28 41.39 325.67 43C324.66 44 324.75 46.44 325.82 47.52C326.78 48.47 327.54 48.54 328.68 47.78ZM315.65 36.64C315.44 36.25 315.37 35.58 315.48 35.14C315.65 34.44 315.87 34.33 317.16 34.33C319.02 34.33 319.7 35.22 318.85 36.52C318.14 37.6 316.2 37.67 315.65 36.64Z" fill="#1e2749" fill-rule="evenodd"/>
</svg>
