<?xml version="1.0" encoding="UTF-8"?>
<svg xmlns="http://www.w3.org/2000/svg" viewBox="0 0 500 521" width="500" height="521" shape-rendering="geometricPrecision">
<path d="M451.74 490.34C451.13 490.2 450.37 489.83 450.04 489.54C449.48 489.03 447.76 484.21 446.4 479.33C445.57 476.36 444.98 476.34 444.02 479.24C441.95 485.47 440.55 489.22 440.08 489.75C439.36 490.56 437.44 490.53 437.18 489.7C437.01 489.18 440.43 479.37 441.67 476.83C441.85 476.47 442.38 475.12 442.85 473.85C443.64 471.73 443.68 471.39 443.3 470.01C442.53 467.16 441.79 466.05 440.49 465.81C439.83 465.69 439.21 465.68 439.1 465.79C438.73 466.15 438 465.27 438 464.47C438 463.47 438.9 463 440.84 463C444.68 463 445.2 463.98 450.47 481.5C451.94 486.38 452.23 486.96 453.5 487.67C454.05 487.97 454.55 488.46 454.6 488.76C454.71 489.29 453.56 490.7 453.08 490.63C452.95 490.61 452.34 490.48 451.74 490.34ZM307.07 481.94C306.85 481.72 306.67 480.88 306.67 480.09C306.67 478.84 306.55 478.61 305.8 478.32C305.24 478.11 293.51 478 273.41 478.01L241.9 478.03L241.12 477.29C240.14 476.37 240.1 474.98 241.03 474.13C241.71 473.52 242.8 473.5 273.76 473.41C296.57 473.35 305.9 473.22 306.22 472.95C306.48 472.74 306.67 471.91 306.67 470.96C306.67 469.56 306.76 469.33 307.33 469.33C308.22 469.33 325.06 474.92 325.49 475.36C325.98 475.86 325.06 476.46 322.75 477.15C321.69 477.46 320.53 477.84 320.17 478C319.8 478.15 318 478.76 316.17 479.35C312.9 480.41 309 481.74 307.99 482.14C307.71 482.26 307.3 482.16 307.07 481.94ZM62.89 451.24C62.37 450.86 62.31 435.45 62.12 226.29L61.91 1.74L62.62 1.36C63.52 0.88 64.57 1.38 65 2.49C65.34 3.4 65.33 -6.84 65.33 248.47C65.34 394.6 65.44 447.55 65.71 447.88C66.02 448.26 101.46 448.33 282.47 448.33C450.33 448.33 498.96 448.42 499.27 448.73C499.9 449.37 499.73 450.58 498.93 451.15C498.26 451.62 477.08 451.67 280.81 451.66C109.41 451.65 63.32 451.57 62.89 451.24ZM96.84 410.13C96.1 409.38 96.33 408.27 97.33 407.78C97.79 407.55 99.37 407.12 100.83 406.82C102.3 406.53 104.17 406.13 105 405.94C105.83 405.75 108.15 405.25 110.17 404.83C114.82 403.86 124.26 401.44 129.67 399.83C131.96 399.15 134.41 398.44 135.11 398.25C135.82 398.06 138.52 397.17 141.11 396.27C143.71 395.37 146.28 394.5 146.83 394.34C152.55 392.7 174.47 383.65 182.18 379.75C183.64 379.01 186.33 377.69 188.17 376.81C193.3 374.36 207.11 366.65 214.67 362.02C224.57 355.96 236.56 347.52 247.02 339.27C266.48 323.9 289.27 300.85 302.79 282.84C303.92 281.35 306.01 278.56 307.44 276.65C321.09 258.43 335.45 232.71 343.82 211.5C347.71 201.66 348.25 200.18 349.33 196.67C349.92 194.74 350.75 192.19 351.19 191C351.62 189.81 352.12 188.23 352.29 187.5C352.46 186.77 352.86 185.27 353.17 184.17C354.3 180.29 356.71 170.8 357.33 167.83C359.34 158.19 360.83 149.99 361.34 145.78C361.51 144.34 361.88 141.29 362.17 139C362.7 134.77 363.43 123.92 363.85 114.11C363.99 110.91 363.91 105.05 363.65 99.66C363.29 91.9 363.29 90.56 363.7 90.31C364.38 89.88 365.11 89.93 365.84 90.47C366.44 90.9 366.51 91.67 366.8 100.88C367.37 118.59 366.08 138.25 363.34 153.5C362.94 155.7 362.49 158.4 362.32 159.5C362.15 160.6 361.69 162.92 361.3 164.67C360.91 166.41 360.47 168.36 360.33 169C359.24 174.06 358.5 177.14 357.95 179C357.6 180.19 357.11 181.92 356.86 182.83C354.26 192.31 351.85 199.54 347.16 211.83C343.7 220.93 336.73 235.5 330.51 246.67C326.99 252.98 320.84 263.09 318.23 266.83C317.34 268.12 315.64 270.59 314.46 272.33C308.9 280.55 300.75 290.92 292.67 300.09C290.74 302.27 288.67 304.68 288.07 305.45C286.24 307.75 272.49 321.48 267.5 325.98C263.43 329.65 256.69 335.48 251.46 339.86C244 346.08 220.74 362.5 215 365.59C214.54 365.84 212.44 367.06 210.33 368.31C201.63 373.46 197.93 375.48 189.75 379.59C185.03 381.96 180.19 384.31 179 384.82C177.81 385.33 176.08 386.09 175.17 386.52C171.04 388.45 155.26 394.89 152.8 395.65C152.27 395.81 149.21 396.87 146 398C135.18 401.82 118.52 406.43 106 409.06C103.34 409.62 100.57 410.2 99.83 410.36C97.9 410.76 97.44 410.73 96.84 410.13ZM29.4 205.65C28.99 205.28 28.63 204.94 28.59 204.9C28.55 204.86 28.43 188.18 28.34 167.83L28.17 130.83L26.33 130.67C24.6 130.51 24.49 130.45 24.39 129.53C24.33 129 24.43 128.25 24.62 127.86C24.81 127.48 26.11 123.68 27.51 119.42C28.9 115.16 30.2 111.58 30.39 111.47C30.57 111.35 30.9 111.43 31.11 111.65C31.33 111.86 32.8 115.96 34.38 120.77C37.03 128.76 37.22 129.55 36.75 130.08C36.41 130.47 35.74 130.67 34.81 130.67L33.38 130.67L33.16 132.42C33.04 133.38 32.97 134.32 33.01 134.5C33.05 134.68 33.06 150.48 33.04 169.61L33 204.38L32.03 205.36C30.87 206.51 30.38 206.57 29.4 205.65ZM25.25 95.4C24.75 95.34 24.33 95.11 24.32 94.89C24.21 92.2 24.41 70.48 24.54 70.35C24.64 70.25 26.62 70.18 28.94 70.19C35.33 70.24 37.38 71.15 38.97 74.67C40.17 77.31 39.73 80.05 37.71 82.56C35.96 84.74 34.33 85.45 30.75 85.61L27.67 85.75L27.67 89.9C27.67 95.07 27.4 95.68 25.25 95.4ZM33.6 82.01C36.58 79.85 36.97 76.72 34.53 74.37C33.47 73.33 33.21 73.25 30.53 73.08L27.67 72.91L27.67 77.95L27.67 83L29.95 83C31.95 83 32.4 82.88 33.6 82.01Z" fill="#1e2749" fill-rule="evenodd"/>
</svg>
