<?xml version="1.0" encoding="UTF-8"?>
<svg xmlns="http://www.w3.org/2000/svg" viewBox="0 0 2430 1202" width="2430" height="1202" shape-rendering="geometricPrecision">
<path d="M505.75 1173.45C504.85 1172.51 504.94 1071.81 505.86 1057.3C506.24 1051.27 507.01 1046.58 507.75 1045.84C508.69 1044.91 514.6 1044.61 530.75 1044.66C558.75 1044.76 570.54 1046.07 578.5 1049.96C597.26 1059.14 609.37 1085.96 607.65 1114.5C606.5 1133.56 600.28 1148.79 589.08 1159.99C581.73 1167.34 576.3 1170.03 564.79 1172.04C557.22 1173.36 506.81 1174.57 505.75 1173.45ZM561.14 1159.56C564.8 1158.78 569.58 1157.23 571.77 1156.12C577.25 1153.32 583.36 1146.08 587.78 1137.13C591.45 1129.71 591.5 1129.43 591.85 1115.69C592.24 1100.2 590.89 1088.44 587.76 1080.08C584.97 1072.63 576.13 1063.65 569.91 1061.97C560.38 1059.38 549.9 1057.93 536.39 1057.34L522.29 1056.72L521.61 1059.61C521.23 1061.2 520.66 1084.66 520.32 1111.75L519.72 1161L537.11 1160.98C548.19 1160.97 556.91 1160.45 561.14 1159.56ZM541.88 1014.25C540.98 1011.48 540.51 987.87 540.08 924.18L539.5 837.86L522 827.79C427.51 773.4 378.37 745.61 353.59 732.53C341.03 725.91 340.57 725.75 337.09 726.98C327.56 730.32 309.52 740.06 250 774.01C184.9 811.15 184.28 811.48 182.47 809.97C180.02 807.94 180.75 804.56 184.2 802.01C194.84 794.15 213.4 782.54 241 766.51C256.46 757.53 287.11 740.92 307 730.73C318.82 724.68 329.51 719.1 330.75 718.34L333.01 716.95L332.75 599.89L332.5 482.83L316.5 473.61C244.37 432.04 239.19 429.01 216.5 415.19C195.99 402.7 182.18 393.14 181.48 390.94C180.58 388.12 181.89 386.73 184.87 387.33C188.83 388.14 230.83 411.6 289 445.51C321.64 464.53 339.96 475 340.65 475C341.02 475 344.74 473.02 348.91 470.6C353.09 468.18 368.2 459.46 382.5 451.2C396.8 442.95 433.25 421.91 463.5 404.45C493.75 386.99 522.77 370.24 528 367.23C533.23 364.22 538 361.36 538.62 360.87C539.42 360.23 539.91 335.03 540.36 272.24C540.7 223.98 541.26 182.81 541.6 180.75C542.11 177.68 542.64 177 544.53 177C546.26 177 547.12 177.83 547.91 180.25C550.18 187.18 551.43 214.04 552.5 278.5C552.78 295.55 553.29 321.26 553.62 335.63L554.22 361.75L563.86 367.21C569.16 370.21 604.33 390.44 642 412.18C744.63 471.38 750.93 475 751.46 475C751.73 475 766.48 466.61 784.23 456.36C879.85 401.13 905.04 387 907.91 387C909.02 387 910.39 387.86 910.95 388.9C913.58 393.83 901.42 401.41 769.5 477.05L759.5 482.78L759.25 600.14L759 717.5L781.25 728.71C829.97 753.25 909.09 800.03 911.39 805.65C912.28 807.83 909.48 810.34 906.91 809.67C903.96 808.89 876.97 793.93 830 767.02C790.41 744.34 760.47 728.67 754.65 727.59C751.79 727.06 750.35 727.27 749.08 728.43C748.13 729.29 745.26 730.62 742.7 731.39C734.77 733.78 686.3 760.87 594.5 814.25L554.5 837.5L553.89 858.5C553.55 870.05 553.2 899.75 553.1 924.5C553 949.25 552.53 979.31 552.05 991.29C551.1 1014.99 550.36 1018 545.52 1018C543.6 1018 542.84 1017.22 541.88 1014.25ZM924.67 947.33C923.77 946.43 923.95 854.25 924.89 835.77C925.3 827.66 925.98 820.69 926.4 820.27C927.7 818.97 980.83 819.41 987.43 820.78C996.22 822.59 1001.79 825.67 1008.53 832.44C1015.53 839.47 1020.87 849.05 1024.19 860.55C1027.23 871.06 1027.5 894.78 1024.7 905C1021.99 914.88 1016.22 925.65 1010.07 932.29C1000.84 942.27 994.27 945.27 978 946.97C967.35 948.09 925.7 948.37 924.67 947.33ZM981.8 933.48C990.01 931.55 992.82 930.03 998.39 924.45C1004.45 918.4 1009.65 907.51 1010.98 898.12C1012.21 889.44 1010.86 868.55 1008.48 859.5C1005.83 849.46 1000.03 841.64 992.24 837.63C984.33 833.56 946.33 829.24 942.09 831.92C941.03 832.59 940.5 837 939.91 850.15C938.89 872.61 938.78 934.43 939.75 935.46C940.94 936.71 974.83 935.12 981.8 933.48ZM62.75 915.46C61.74 914.4 61.88 831.36 62.92 807.67C63.42 796.26 64.19 788.41 64.87 787.73C66.29 786.31 107.87 786.42 120.26 787.88C134.03 789.5 143.04 794.3 150.46 803.95C158.76 814.75 163.27 827.02 164.84 843.06C167.1 866.03 160.38 887.78 146.69 901.83C140.54 908.15 134.2 911.62 125.13 913.62C117.76 915.25 64.06 916.83 62.75 915.46ZM118.6 901.42C128.76 899.29 135.42 894.96 140.7 887.07C148.47 875.43 149.47 871.66 149.33 854.5C149.2 838.25 147.41 826.55 143.99 819.47C141.21 813.74 132.29 805.46 127.4 804.07C118 801.41 104.59 799.69 92.5 799.6L79.5 799.5L78.87 806C78.52 809.58 78.18 833.01 78.12 858.07L78 903.64L94.75 903.27C104.2 903.06 114.59 902.26 118.6 901.42ZM575.78 812.88C680.1 752.8 717.27 731.85 723.12 729.81C726.88 728.5 739.92 720.98 744.75 717.35L748 714.9L748 600.2L747.99 485.5L730.75 475.57C639.71 423.12 605.44 403.53 579 388.82C568.27 382.85 556.24 376.28 552.25 374.23L545 370.5L537.74 374.23C521.56 382.53 421.39 440.4 371.56 470.23C351.59 482.19 347.46 485.06 346.61 487.53C345.36 491.2 344.54 642.01 345.53 686.5L346.22 717.5L359.36 724.38C373.07 731.55 452.99 776.71 511.5 810.34C530.2 821.08 545.63 829.9 545.78 829.94C545.94 829.97 559.44 822.3 575.78 812.88ZM538 789.57C530.39 786.76 514.74 778.29 469.5 752.47C459.6 746.83 440.7 736.6 427.5 729.75C395.12 712.94 379.58 703.79 379.2 701.32C378.69 697.92 380.76 694 383.08 694C384.25 694 391.12 697.54 398.35 701.87C417.99 713.62 438.15 724.7 450.5 730.52C470.37 739.89 542.42 781.48 546.39 785.87C547.94 787.59 548.05 788.24 547.02 789.48C545.51 791.29 542.75 791.32 538 789.57ZM1463.75 771.36C1461 770.56 1461.46 764.08 1464.6 759.39C1468.62 753.36 1473.6 748.52 1485.02 739.52C1490.8 734.96 1496.19 730.02 1496.98 728.54C1499.73 723.4 1497.8 718.5 1491.8 715.4C1485.34 712.05 1477.6 714.59 1473.63 721.36C1469.14 729.04 1464 730.17 1464 723.48C1464 719.79 1466.01 714.9 1468.87 711.64C1476.02 703.5 1494.27 704.27 1503.09 713.09C1507.45 717.45 1508.66 721.84 1507.11 727.59C1505.48 733.62 1500.92 738.26 1488.41 746.62C1476.01 754.92 1472 758.8 1472 762.53C1472 765.48 1473.58 765.78 1491.79 766.3C1505.61 766.69 1509.16 767.73 1504.86 770.12C1502.49 771.44 1467.62 772.49 1463.75 771.36ZM1217.49 761.54C1211.7 755.33 1204.9 741.92 1200.98 729C1195.49 710.9 1195.8 694.39 1202.03 672.74C1207.52 653.65 1215.87 640 1222.04 640C1223.48 640 1224.92 640.25 1225.23 640.57C1225.54 640.88 1223.6 645.78 1220.92 651.47C1218.24 657.15 1214.92 665.69 1213.55 670.43C1210.54 680.8 1208.51 702.46 1209.29 715.75C1209.8 724.29 1210.38 726.34 1216.92 742.51C1220.81 752.14 1224 761.12 1224 762.45C1224 766.66 1221.99 766.37 1217.49 761.54ZM1285.68 764.6C1284.85 762.44 1285.83 759.5 1291.7 746.58C1299.66 729.03 1300.41 725.15 1300.35 701.5C1300.3 677.89 1299.73 675.11 1290.97 655.85C1287.69 648.63 1285 642.11 1285 641.36C1285 640.52 1286.13 640 1287.93 640C1291.85 640 1295.89 644.92 1301.47 656.5C1312.98 680.36 1315.87 705.82 1309.54 727.5C1305.92 739.91 1297.94 755.99 1292.65 761.5C1288.13 766.23 1286.57 766.92 1285.68 764.6ZM1549.79 737.53C1541.55 735.26 1532.24 730.29 1527.68 725.73C1520.57 718.62 1518.78 712.6 1518.23 693.83C1517.52 669.96 1520.22 658.98 1528.92 650.34C1539.12 640.2 1552.54 636.06 1569.15 637.91C1580.44 639.17 1587 642.15 1593.3 648.89C1602.95 659.21 1607.39 672.33 1607.37 690.5C1607.37 700.68 1606.98 703.66 1604.8 710.2C1603.4 714.43 1600.53 720.24 1598.43 723.1C1594.06 729.05 1585.01 735.33 1577.64 737.51C1571.54 739.33 1556.36 739.33 1549.79 737.53ZM1240.44 735.58C1238.61 734.25 1238.48 732.53 1238.19 705.83C1238.01 690.25 1238.16 675.14 1238.51 672.25C1239.11 667.32 1239.31 667 1241.95 667C1243.49 667 1245.27 667.61 1245.89 668.37C1247.82 670.7 1248.96 684.54 1249.24 709.14C1249.48 731.19 1249.37 732.92 1247.6 734.89C1245.37 737.35 1243.16 737.56 1240.44 735.58ZM1268.74 734.25C1267.36 731.12 1266.95 674.47 1268.27 669.75C1269.3 666.07 1271.55 666.27 1272.91 670.16C1275.86 678.65 1276.86 729.83 1274.16 734.75C1272.49 737.79 1270.21 737.58 1268.74 734.25ZM1375.26 735.75C1374.72 735.06 1373.98 732.92 1373.61 731C1372.7 726.19 1372.87 648.34 1373.81 644C1374.49 640.86 1374.95 640.47 1378.22 640.19C1383.88 639.72 1384.41 641.53 1384.83 662.77L1385.19 681.03L1412.35 680.77L1439.5 680.5L1440 661.5C1440.28 651.05 1440.86 641.94 1441.31 641.25C1441.75 640.56 1442.98 640 1444.02 640C1448.3 640 1448.5 642.19 1448.5 688.04C1448.5 728.05 1448.36 731.81 1446.73 734.29C1445.75 735.78 1444.53 737 1444.01 737C1441.31 737 1440.5 731.93 1440.17 712.75L1439.82 693L1412.49 693L1385.15 693L1384.83 712.3C1384.55 728.73 1384.24 732 1382.73 734.3C1380.83 737.19 1376.98 737.94 1375.26 735.75ZM1574.75 727.94C1579.57 725.87 1589.37 717.03 1591.85 712.51C1593.23 709.99 1593.5 706.22 1593.5 689.5C1593.5 666.24 1593.61 666.61 1583.67 657.3C1573.68 647.96 1564.89 645.94 1551.81 649.98C1543.45 652.56 1537.57 657.61 1533.9 665.38C1529.82 674 1528.69 680.79 1529.24 693.47C1529.79 706.18 1532.02 713.33 1537.4 719.61C1545.97 729.63 1562.32 733.27 1574.75 727.94ZM710.98 694.44C710.41 692.95 709.52 681.55 709.01 669.11C707.82 640.35 707.59 513.65 708.72 509C709.38 506.3 710.13 505.44 712.04 505.24C715.95 504.83 717.05 506.26 718.03 513.09C720.32 528.88 718.36 684.76 715.78 692.5C714.19 697.26 712.34 698.02 710.98 694.44ZM1238.45 651.67C1238.13 650.39 1238.01 647.35 1238.18 644.92C1238.5 640.57 1238.55 640.5 1241.95 640.67C1245.88 640.86 1248 643.09 1248 647.02C1248 652.53 1239.69 656.58 1238.45 651.67ZM1267.98 651.96C1267.38 650.84 1267.03 648.03 1267.19 645.71C1267.46 642.03 1267.82 641.46 1270.07 641.2C1274.79 640.65 1276.18 647.75 1272.23 652.25C1270.23 654.52 1269.32 654.46 1267.98 651.96ZM2317.66 636.24C2317.41 635.83 2318.28 630.1 2319.58 623.5C2320.88 616.9 2321.96 610.74 2321.97 609.81C2322 608.23 2285.99 608.09 1748.25 607.68C1360.12 607.37 1169.74 606.89 1159.8 606.17C1151.71 605.59 1144.14 604.61 1142.99 603.99C1139.69 602.23 1140.95 599.64 1145.51 598.79C1157.56 596.55 1268.96 596.07 1776.78 596.03C2253.31 596 2321.13 595.82 2321.62 594.54C2322.08 593.35 2318.5 572.18 2316.33 563.25C2316.03 562 2316.25 561 2316.83 561C2317.4 561 2321.83 564.35 2326.67 568.45C2342.37 581.73 2355.5 588.15 2383.29 596.09C2391.42 598.42 2397.72 600.65 2397.29 601.04C2396.86 601.44 2388.58 604.31 2378.89 607.42C2360.23 613.42 2343.45 621.04 2332.69 628.41C2324.69 633.88 2318.26 637.24 2317.66 636.24ZM1470.23 563.03C1466.9 561.59 1466.6 559.7 1468.89 554.52C1471.35 548.95 1480.93 538.75 1490.5 531.51C1501.15 523.44 1503.21 520.91 1503.76 515.19C1504.17 510.85 1503.89 509.91 1501.33 507.04C1499.07 504.52 1497.4 503.69 1493.73 503.27C1487.5 502.57 1483.55 504.34 1480.07 509.39C1473.55 518.85 1469.41 519.5 1470.23 510.94C1471.17 501.13 1479.16 494.75 1490.41 494.81C1498.04 494.86 1503.26 496.89 1508.27 501.77C1513.01 506.39 1514.39 511.1 1512.95 517.78C1511.2 525.94 1507.87 529.51 1492.48 539.77C1487.54 543.06 1482.31 547.05 1480.86 548.63C1477.65 552.13 1476.47 555.55 1478.13 556.58C1478.8 556.99 1486.49 557.64 1495.22 558.01C1511.44 558.7 1515.29 559.7 1510.86 562.08C1507.9 563.67 1473.57 564.47 1470.23 563.03ZM1262.12 556.22C1260.83 553.82 1262.25 548.16 1265.56 542.5C1268.16 538.04 1272.24 522.7 1274.06 510.5C1277.41 488.07 1273.51 459.05 1264.43 438.87C1262.54 434.68 1261 430.74 1261 430.12C1261 428.27 1265.86 428.86 1267.97 430.97C1272.66 435.66 1281.06 456.95 1284.56 473.03C1286.53 482.04 1286.8 500.07 1285.1 508.87C1281.93 525.28 1270.24 553.58 1265.32 556.74C1263.38 557.99 1263.04 557.94 1262.12 556.22ZM1963.32 556.39C1962.36 553.88 1964.43 547.18 1969.57 536.23C1972.08 530.88 1974.79 524.02 1975.6 521C1977.67 513.26 1978.57 484.73 1977.1 473.5C1975.61 462.09 1975.04 460.28 1967.89 444.39C1964.65 437.18 1962 430.77 1962 430.14C1962 429.51 1963.3 429 1964.9 429C1975.99 429 1991.93 472.99 1989.53 496.97C1986.85 523.82 1981.05 541.3 1971.22 552.18C1966.52 557.38 1964.18 558.63 1963.32 556.39ZM1218.79 555.05C1212.36 549.99 1204.11 532.73 1199.85 515.44C1197.23 504.8 1196.79 485.82 1198.9 474C1201.91 457.07 1211.38 434.65 1217.24 430.54C1219.41 429.02 1224.12 428.45 1225.24 429.58C1225.56 429.9 1223.18 435.61 1219.95 442.28C1212.69 457.25 1211.24 463.45 1210.57 482.5C1209.55 511.41 1211.07 520.8 1220.38 543.07C1222.35 547.78 1224.08 552.72 1224.23 554.03C1224.59 557.19 1222.1 557.66 1218.79 555.05ZM1548 552.88C1537.59 542.16 1528.74 514.87 1528.75 493.5C1528.75 480.79 1530.04 471.95 1533.64 460C1539.37 440.97 1547.08 429 1553.62 429C1555.48 429 1557 429.23 1557 429.51C1557 429.79 1554.57 435.07 1551.6 441.26C1542.86 459.47 1542.75 460.03 1542.26 488.5C1541.75 517.66 1542.2 520.59 1550.09 539.21C1552.87 545.78 1555.22 552.33 1555.32 553.78C1555.61 558.02 1552.63 557.65 1548 552.88ZM2016 542.96C2016 541.29 2016.94 538.09 2018.08 535.85L2020.16 531.77L2017.58 529.08C2015.49 526.9 2015 525.41 2015 521.23C2015 515.64 2016.43 514 2021.31 514C2025.38 514 2026.51 516.49 2026.45 525.41C2026.39 535.17 2024.87 540.09 2020.86 543.47C2016.94 546.76 2016 546.66 2016 542.96ZM1915.92 529.92C1900.3 527.5 1891.56 514.36 1891.69 493.5C1891.82 473.38 1897.99 459.81 1908.38 456.82C1910.65 456.17 1917 455.63 1922.5 455.63C1930.49 455.64 1933.44 456.06 1937.18 457.73C1945.35 461.39 1953 474.58 1953 485.01C1953 492.64 1951.98 493.02 1927.76 494.24C1916.62 494.81 1906.49 495.65 1905.25 496.11C1900.48 497.89 1903.67 510.36 1910.16 515.31C1920.01 522.82 1935.85 519.01 1941.41 507.79C1942.27 506.06 1943.53 505.44 1946.52 505.24C1952.92 504.82 1953.69 505.94 1950.94 511.65C1947.26 519.27 1940.86 525.45 1934.21 527.82C1927.34 530.27 1922.05 530.87 1915.92 529.92ZM2179 530.07C2169.62 528.19 2161.79 521.24 2157.97 511.42C2156.06 506.5 2155.66 503.55 2155.63 494C2155.56 475.16 2160.61 462.32 2169.86 457.82C2173.83 455.88 2176.09 455.56 2185.5 455.58C2199.24 455.61 2204.28 457.5 2209.22 464.5C2216.2 474.36 2219.01 486.99 2215.09 490.91C2212.96 493.04 2208.61 493.61 2187.5 494.51C2180.35 494.82 2172.81 495.32 2170.75 495.62C2167.06 496.17 2167 496.25 2167 500.64C2167 512.5 2178.2 521.53 2189.71 518.95C2192.18 518.4 2195.45 517.3 2196.98 516.51C2200.19 514.85 2205 509.46 2205 507.53C2205 505.88 2207.23 505 2211.33 505.02C2217.02 505.04 2217.49 506.1 2214.48 512.11C2209.29 522.5 2201.64 528.04 2189.86 529.95C2186.36 530.52 2183.28 530.94 2183 530.88C2182.72 530.82 2180.93 530.45 2179 530.07ZM1807.68 528.61C1802.84 526.81 1800.79 524.94 1795.49 517.5C1790.17 510.04 1789.01 505.9 1789.02 494.5C1789.04 483.77 1790.94 474.03 1794.31 467.37C1797.19 461.69 1799.27 459.61 1804.04 457.65C1812.34 454.23 1833.55 454.85 1840.08 458.7C1848.28 463.55 1853.38 477.4 1853.45 495C1853.49 504.94 1853.2 507.11 1851.27 511C1848.64 516.3 1840.3 525.25 1835.73 527.69C1831.35 530.02 1813.11 530.62 1807.68 528.61ZM1241.31 528.21C1238.48 526.42 1238 521.21 1238.01 492.68C1238.02 476.63 1238.3 461.81 1238.64 459.75C1239.18 456.48 1239.61 456 1242.01 456C1245.81 456 1246.77 457.56 1247.9 465.56C1249.22 474.99 1250.07 515.32 1249.07 521.42C1248.07 527.54 1244.78 530.42 1241.31 528.21ZM1343.75 528.44C1343.34 528.02 1343 505.24 1343 477.83L1343 428L1345.85 428C1355.54 428 1390.39 430.22 1394.88 431.12C1401.78 432.5 1408.16 438.09 1410.43 444.74C1413.44 453.57 1411.96 464.01 1407.08 468.43C1403.96 471.25 1404.42 475.58 1408.36 480.4C1414.66 488.11 1416.4 492.65 1416.45 501.53C1416.53 515.34 1411.75 521.74 1398.09 526.14C1392.38 527.97 1388.35 528.32 1368 528.74C1355.08 529 1344.16 528.87 1343.75 528.44ZM1433.45 526.57C1430.17 521.56 1430.2 460.85 1433.49 456.35C1435.45 453.66 1439.52 455.87 1440.37 460.09L1441.02 463.35L1443.81 460.69C1449.37 455.36 1461.79 453.41 1463.41 457.62C1464.15 459.56 1459.23 464.35 1453.56 467.19C1443.57 472.2 1442.21 476.1 1440.98 503.23C1440.1 522.61 1439.61 525.42 1436.62 527.9C1435.4 528.92 1434.84 528.68 1433.45 526.57ZM1598.48 527.61C1595.84 525.68 1595.16 516.77 1595.07 483.25C1595.01 458.31 1594.86 456 1593.3 456C1592.37 456 1587.9 456.53 1583.38 457.19C1574.04 458.54 1571.66 457.67 1572.2 453.1C1572.51 450.47 1572.61 450.41 1581.84 448C1586.7 446.73 1595 439.3 1595 436.23C1595 433.42 1597.04 432 1601.04 432C1603.96 432 1604.91 432.5 1605.83 434.52C1607.39 437.96 1608.39 489.12 1607.28 509.19C1606.56 522.31 1606.11 525.22 1604.55 526.94C1602.36 529.36 1601.07 529.5 1598.48 527.61ZM1679.94 527.43C1676.68 523.5 1676.57 459.03 1679.82 455.78C1681.73 453.87 1685.95 456.49 1686.66 460.04L1687.27 463.1L1689.4 461.1C1696.93 454.02 1717.36 453.22 1725.06 459.7L1728.09 462.25L1734.74 458.88C1740.92 455.74 1742.08 455.5 1750.95 455.5C1767.38 455.5 1771.34 459.14 1773.61 476.32C1776.89 501.13 1774.06 530.49 1768.59 528.4C1766.31 527.52 1765.86 523.76 1765.09 499.5C1764.45 479.11 1764.12 475.96 1762.22 471.72C1759.54 465.72 1755.36 463.62 1748.03 464.59C1735.19 466.29 1731.11 475.22 1730.96 502C1730.86 518.31 1729.96 524.49 1727.25 527.2L1725.2 529.24L1723.57 526.74C1722.24 524.71 1721.84 520.44 1721.42 503.87C1720.86 481.33 1719.76 472.88 1716.89 468.84C1714.46 465.43 1708.99 463.59 1703.79 464.42C1691.7 466.35 1689.05 472.66 1686.98 504.43C1685.68 524.38 1683.45 531.66 1679.94 527.43ZM1870.27 526.29C1868.64 523.8 1868.5 519.95 1868.5 477.83C1868.5 436.77 1868.67 431.9 1870.14 430.43C1872.45 428.12 1875.59 429.42 1877.02 433.29C1878.5 437.3 1880.64 508.56 1879.57 518.34C1878.48 528.28 1874.05 532.07 1870.27 526.29ZM2088.18 528.13C2085.51 526.44 2085.05 518.57 2085.02 474.18L2085 428.87L2115.25 429.18C2147.44 429.52 2151.12 430.04 2149.04 433.92C2148.5 434.94 2147.26 436.13 2146.28 436.57C2145.3 437.01 2133.8 437.56 2120.73 437.78L2096.95 438.18L2097.23 455.34L2097.5 472.5L2120.72 473C2139.85 473.41 2144.2 473.77 2145.48 475.05C2146.77 476.34 2146.81 476.88 2145.7 478.39C2143.7 481.14 2137.32 481.91 2116.32 481.96L2097.14 482L2096.82 503.59C2096.5 524.89 2096.47 525.21 2094.14 527.09C2091.56 529.18 2090.2 529.41 2088.18 528.13ZM1386.28 517.46C1399.82 515.18 1404.53 510.83 1404.46 500.68C1404.4 492 1402.29 488.49 1395.18 485.2C1389.92 482.77 1388.26 482.55 1372.75 482.17L1356 481.77L1356 500.94L1356 520.11L1367.25 519.44C1373.44 519.07 1382 518.18 1386.28 517.46ZM1832.09 516.68C1841.28 511.85 1846.68 493.58 1842.57 481.21C1840.66 475.45 1835.23 469.29 1829.81 466.71C1825.33 464.59 1814.98 464.44 1811.1 466.45C1799.04 472.68 1795.54 491.58 1803.46 507.61C1808.23 517.27 1810.49 518.67 1821.59 518.88C1826.19 518.97 1828.77 518.43 1832.09 516.68ZM379.58 504.13C379.21 503.53 379.34 502.24 379.86 501.27C381.29 498.62 423.92 472.9 486 437.25C543.09 404.45 544.84 403.6 546.47 407.75C548.06 411.78 533.19 421.91 481.06 452.32C406.92 495.57 382.12 508.24 379.58 504.13ZM1938.89 485.36C1940.84 484 1941.14 483.1 1940.71 479.91C1940.01 474.63 1937.05 470.89 1930.99 467.59C1926.45 465.12 1925.01 464.83 1918.96 465.17C1913.38 465.49 1911.6 466.02 1909.42 468.03C1904.44 472.61 1901.23 482.79 1904.18 484.61C1905.93 485.69 1916.24 486.71 1927.03 486.86C1934.4 486.97 1937.08 486.63 1938.89 485.36ZM2202.78 485.44C2204.14 484.49 2205 482.85 2205 481.19C2204.99 478.13 2201.88 472.57 2198.67 469.88C2192.02 464.31 2178.51 463.34 2173.38 468.06C2168.44 472.62 2165.24 482.79 2168.18 484.61C2169.93 485.69 2180.24 486.71 2191.03 486.86C2198.2 486.97 2201.1 486.62 2202.78 485.44ZM1381 470.92C1388.84 469.24 1396.29 465.72 1398.82 462.5C1400.46 460.42 1401 458.37 1401 454.23C1401 449.23 1400.68 448.43 1397.46 445.39C1392.4 440.62 1385.77 438.92 1369.75 438.27L1356 437.72L1356 455.51L1356 473.3L1365.75 472.7C1371.11 472.37 1377.97 471.57 1381 470.92ZM1238.45 440.67C1238.13 439.39 1238.01 436.35 1238.18 433.92C1238.47 429.96 1238.78 429.47 1241.19 429.19C1244.64 428.79 1248 432.06 1248 435.83C1248 441.51 1239.72 445.71 1238.45 440.67ZM933.42 416.65C933.07 415.75 932.95 387.35 933.14 353.54C933.47 297.61 933.65 291.92 935.18 290.39C939 286.58 988.74 287.79 1002.29 292.03C1013.02 295.39 1021.73 304.01 1028.14 317.59C1039.87 342.5 1038.1 374.23 1023.77 395.65C1015.52 407.99 1006.05 413.89 991.17 415.96C987.5 416.47 973.15 417.2 959.28 417.59C936.39 418.23 933.99 418.14 933.42 416.65ZM68.75 408.46C67.8 407.46 67.89 322.31 68.87 299.25C69.36 287.63 70 281.6 70.85 280.75C71.78 279.82 77.73 279.52 94.3 279.6C128.85 279.75 139.64 281.79 150.06 290.17C156.42 295.28 163.46 306.66 167.15 317.78C170.22 327.05 170.37 328.23 170.43 343.5C170.49 361.64 169.39 367.19 163.17 379.95C160.61 385.19 157.38 389.62 152.5 394.59C144.86 402.36 139.65 404.98 127.79 407.03C120.15 408.35 69.8 409.56 68.75 408.46ZM987.19 403.56C1001.36 401.03 1008.97 395.03 1015.8 381C1019.4 373.6 1019.45 373.31 1019.82 359C1020.58 329.69 1014.45 313.21 1000.44 306.9C994.22 304.1 979.98 301.88 964.4 301.28L950.3 300.73L949.58 303.12C949.17 304.43 948.6 327.89 948.29 355.25L947.73 405L963.62 404.97C972.5 404.95 982.89 404.33 987.19 403.56ZM123.32 394.56C127.45 393.78 132.56 392.24 134.69 391.16C143.78 386.52 152.79 372.64 155.02 359.83C156.21 352.99 155.04 330.59 153.02 321.58C150.69 311.21 143.54 301.57 135.5 297.99C128.71 294.96 112.56 292.59 98.5 292.54L85.5 292.5L84.82 298C84.44 301.02 83.81 324.31 83.41 349.75L82.68 396L99.25 396C109.5 396 118.69 395.45 123.32 394.56ZM509.16 156.12C508.06 155.42 507.88 144.28 508.16 93.17C508.48 35.14 508.62 30.95 510.29 29.29C511.91 27.67 514.25 27.51 535.29 27.61C571.91 27.78 581.63 29.97 591.8 40.32C614.23 63.16 617.41 107.26 598.62 134.81C588.14 150.16 579.63 154.31 555.2 155.97C537.23 157.19 510.99 157.28 509.16 156.12ZM569.4 141.05C578.47 138.13 585.15 131.64 590.62 120.45L594.5 112.5L594.45 94C594.4 75.1 593.23 67.22 589.36 59.73C587.32 55.78 581.43 49.43 577.65 47.09C572.54 43.94 556 40.96 539.9 40.31L525.31 39.72L524.57 42.11C524.16 43.42 523.59 66.94 523.28 94.37L522.74 144.24L542.62 143.76C559.59 143.35 563.51 142.96 569.4 141.05Z" fill="#1e2749" fill-rule="evenodd"/>
</svg>
