<?xml version="1.0" encoding="UTF-8"?>
<svg xmlns="http://www.w3.org/2000/svg" viewBox="0 0 2430 1070" width="2430" height="1070" shape-rendering="geometricPrecision">
<path d="M645.73 979.83C644.49 979.07 644.71 978.76 653.41 969.01C659.36 962.33 663.18 954.66 662.06 951.62C660.83 948.28 656.69 947.3 652.39 949.35C650.39 950.31 648.52 950.85 648.23 950.56C647.94 950.27 648.12 948.58 648.63 946.8C651.1 938.19 668.04 942.05 667.98 951.2C667.95 955.44 665.29 961.1 660.11 967.93C657.85 970.92 656 973.72 656 974.17C656 974.61 658.69 974.69 661.98 974.34C666.15 973.91 668.42 974.1 669.49 974.99C671.57 976.72 669.79 978.79 665.65 979.44C660.13 980.31 646.92 980.57 645.73 979.83ZM2036.01 972.07C2034.63 971.71 2033.36 970.64 2033.18 969.71C2032.91 968.29 2033.67 968 2037.7 968C2044.42 968 2047.2 965.91 2046.8 961.15C2046.55 958.09 2045.9 957.18 2042.75 955.5C2040.69 954.4 2039 953.02 2039 952.44C2039 951.85 2040.37 950.06 2042.04 948.46C2044.16 946.43 2045 944.77 2044.79 943.02C2044.52 940.71 2044.1 940.51 2039.75 940.56C2035.84 940.61 2035 940.31 2035 938.85C2035 936.6 2037.72 935.13 2043.21 934.41C2050.73 933.42 2051.29 934.48 2051.73 950.62C2052.14 965.73 2051.46 968.58 2046.97 970.63C2043.45 972.23 2038.9 972.83 2036.01 972.07ZM543.63 967.59C535.07 964.41 527.03 955.02 525.09 945.97C522.74 935.05 524.07 925.83 529.12 917.86C532.8 912.07 538.24 908.41 546.19 906.37C551.45 905.03 553.75 904.97 561.92 905.98C575.47 907.67 575.69 907.73 576.37 910.24C577.54 914.62 577.05 923.71 575.58 924.94C574.41 925.9 573.55 925.07 570.77 920.31C566.6 913.15 563.73 911.63 554.32 911.56C547.73 911.5 546.88 911.74 544.14 914.37C538.9 919.38 536.58 926.23 536.61 936.5C536.64 947.11 538.71 952.78 544.35 957.73C548.35 961.25 553.09 962.52 559.13 961.71C562.72 961.23 565.12 959.94 572.69 954.43C573.9 953.55 575.7 952.99 576.68 953.18C578.16 953.46 577.7 954.38 574.05 958.33C567.49 965.45 562.19 968.2 554.18 968.66C549.93 968.9 546.09 968.51 543.63 967.59ZM625.75 967.33C621.44 966.81 621.08 965.61 624.25 962.24C626.21 960.15 626.54 958.56 626.84 949.92L627.19 940L614.46 940L601.73 940L602.23 949.57C602.63 957.33 603.14 959.7 604.91 962.09C606.11 963.72 606.82 965.48 606.49 966.02C606.15 966.56 601.18 967 595.44 967C587.18 967 585 966.71 585 965.61C585 964.84 585.7 963.95 586.55 963.62C589.65 962.43 591.07 956.22 591.66 941.18C592.39 922.79 591.27 915.91 586.81 911.31C585.07 909.51 583.98 907.69 584.41 907.26C585.22 906.46 605.9 906.56 606.71 907.37C606.97 907.63 606.17 909.2 604.94 910.87C603.07 913.39 602.62 915.58 602.22 923.98L601.73 934.06L614.11 933.78L626.5 933.5L626.79 924.94C627.05 917.18 626.84 916.04 624.54 912.65C623.14 910.59 622 908.48 622 907.96C622 907.41 626.5 907 632.53 907L643.06 907L640.78 910.08C638.56 913.09 638.5 913.78 638.5 936.5C638.5 959.1 638.57 959.93 640.74 962.86C641.97 964.53 642.57 966.15 642.08 966.45C640.74 967.28 630.09 967.85 625.75 967.33ZM677.24 966.17C676.3 965.57 676.6 964.78 678.43 963.06C681.91 959.79 683 953.28 683 935.69C683 918.13 682.24 914.5 677.76 910.83C675.98 909.36 674.81 907.85 675.18 907.49C676.48 906.19 691.66 905.83 702.91 906.83C712.93 907.72 714.8 908.19 718.36 910.68C726.26 916.24 728.57 924.71 723.6 929.9C720.16 933.49 720.32 935.39 724.49 940.25C726.4 942.49 728.25 945.81 728.59 947.63C729.89 954.54 722.75 963.49 713.92 966.02C709.85 967.19 679.04 967.31 677.24 966.17ZM738.54 966.07C738.23 965.56 739.07 963.51 740.42 961.53C745.05 954.7 745.04 941.28 740.4 934.44C739.02 932.42 738.03 930.09 738.2 929.26C738.58 927.34 747.64 923.75 750.12 924.54C751.15 924.87 752 925.83 752 926.68C752 928.06 752.27 928.05 754.46 926.62C755.82 925.73 758.76 925 760.99 925C764.38 925 765.24 925.42 766.22 927.58C767.99 931.46 766.23 933.4 760.4 934C756.02 934.45 755.31 934.87 753.69 938C751.02 943.16 751.68 958.73 754.74 962.86C755.92 964.46 756.62 966.05 756.28 966.39C755.29 967.38 739.17 967.09 738.54 966.07ZM709.7 960.04C716.63 955.81 717.86 948.41 712.51 943.05C710.21 940.76 709.18 940.5 702.23 940.5L694.5 940.5L694.21 949.85C694.02 955.89 694.33 959.7 695.08 960.6C696.86 962.74 705.84 962.39 709.7 960.04ZM1864.82 960.64C1858.99 959.03 1850 952.35 1846.87 947.3C1844.66 943.76 1844.5 942.51 1844.5 928.93C1844.5 914.89 1844.6 914.21 1847.11 910.41C1851.83 903.28 1864.01 897 1873.12 897C1883.84 897 1896.05 905.79 1899.59 916.06C1902.15 923.52 1901.91 933.73 1898.98 941.42C1893.55 955.68 1878.16 964.34 1864.82 960.64ZM1934.72 960.93C1922.11 957.89 1914.11 948.38 1911.86 933.76C1909.45 918.18 1916.94 904.11 1930.11 899.46C1933.51 898.26 1938.97 898.11 1960.87 898.58C1975.52 898.91 1988.13 899.37 1988.91 899.61C1990 899.96 1989.84 900.5 1988.2 902.03C1985.53 904.52 1984.81 908.45 1985.19 918.5L1985.5 926.5L1996.36 926.78C2003.5 926.97 2007.69 926.67 2008.61 925.91C2009.5 925.17 2009.99 922.75 2009.98 919.13C2009.94 911.6 2008.61 906.28 2006.08 903.59C2002.27 899.53 2003.23 899 2014.5 899C2020.28 899 2025 899.3 2025 899.67C2025 900.04 2024.3 901.12 2023.44 902.07C2021.27 904.46 2020.04 914.24 2020.04 929C2020.04 944.21 2021.28 953.55 2023.65 956.16C2026.27 959.06 2024.07 959.97 2014.5 959.97C2004.17 959.97 2002.83 959.18 2006.25 955.11C2008.95 951.9 2010.55 943.4 2009.84 936L2009.5 932.5L1997.16 932.22L1984.82 931.94L1985.16 942.39C1985.47 951.79 1985.74 953.1 1987.9 955.39L1990.29 957.94L1987.4 959.07C1984.49 960.2 1968.49 959.83 1967.26 958.59C1966.92 958.25 1968.18 956.38 1970.07 954.43L1973.5 950.89L1973.5 931.69C1973.5 909.61 1972.93 905.65 1969.4 903.34C1965.91 901.05 1964.75 902.58 1963.93 910.54C1963.26 917 1962.17 919.73 1961.26 917.19C1960.22 914.26 1954.25 907.47 1951.11 905.63C1946.57 902.98 1937.48 902.96 1932.88 905.6C1925.3 909.94 1921.68 926.52 1925.47 939.55C1928.41 949.67 1937.29 956.04 1946.11 954.36C1950.38 953.55 1952.41 952.52 1957.89 948.34C1966.2 942.03 1967.77 945.13 1959.97 952.43C1952.1 959.8 1942.88 962.9 1934.72 960.93ZM1876.54 954.12C1881.3 951.96 1885.54 947.24 1888.29 941.06C1892.3 932.03 1888.87 915.92 1881.19 907.73C1877.78 904.09 1872.2 902.6 1867.13 903.96C1858.85 906.2 1855.76 912.72 1855.79 928C1855.81 941.78 1859.98 951.34 1867.38 954.56C1871.41 956.32 1871.74 956.3 1876.54 954.12ZM708.05 930.59C710.19 929.17 712.68 926.89 713.58 925.52C715.1 923.21 715.08 922.82 713.33 919.77C710.85 915.45 703.77 911.84 698.5 912.22L694.5 912.5L694.21 921.85C694.01 928.23 694.32 931.68 695.17 932.7C696.93 934.83 703.19 933.8 708.05 930.59ZM554.55 873.08C552.93 870.45 550.19 756.07 550.02 683.82L550 677.14L485.25 638.39C449.64 617.08 399.35 586.95 373.5 571.43L326.5 543.21L326.47 432.86C326.46 372.16 326.62 312.56 326.84 300.41L327.23 278.32L343.87 268.3C353.01 262.79 382.32 245.11 409 229C502.75 172.41 550.87 144.17 554.87 143.4C557.4 142.91 571.96 150.72 602.47 168.92C644.45 193.97 718.89 238.6 745.87 254.9L779.23 275.06L833.37 221.28C885.41 169.59 905.41 151 909.01 151C910.76 151 914 153.98 914 155.58C914 157.5 898.13 174.15 844.13 228.9C789.52 284.27 788.49 285.39 787.91 289.9C787.58 292.43 787.19 334.55 787.05 383.5C786.61 533.02 786.5 540.93 784.91 542.5C784.13 543.26 776.08 548.34 767 553.78C757.92 559.22 721.92 580.9 687 601.96C652.08 623.02 609.94 648.37 593.38 658.3L563.25 676.36L562.62 715.43C562.27 736.92 561.74 772.73 561.44 795C560.81 841.46 559.59 869.03 558.02 871.96C556.86 874.14 555.48 874.58 554.55 873.08ZM1853.52 868.33C1851.98 864.56 1850.93 827.15 1850.23 750.67L1849.5 671.83L1793.5 638.11C1700.24 581.94 1657.25 556.03 1641.5 546.48L1626.5 537.38L1625.96 530.94C1625.02 519.74 1625.62 273.98 1626.59 273.01C1627.42 272.19 1689.46 234.37 1725 213.03C1732.97 208.24 1748.05 199.13 1758.5 192.78C1824.88 152.48 1852.64 136 1854.16 136C1855.11 136 1861.43 139.31 1868.2 143.36C1874.96 147.4 1924.92 177.33 1979.21 209.86C2033.5 242.39 2078.25 269 2078.66 269C2079.07 269 2102.38 246.14 2130.45 218.19C2177 171.86 2199.53 150.32 2205.63 146.32C2210.06 143.42 2214.4 147.22 2211.57 151.53C2207.84 157.23 2184.51 181.6 2137.41 229L2086.24 280.5L2085.54 408C2084.91 522.02 2084.67 535.69 2083.26 537.25C2082.4 538.22 2079.84 540.05 2077.59 541.33C2069.02 546.21 1893.77 651.77 1879.15 660.86C1868.46 667.51 1863.5 671.18 1862.82 672.96C1861.38 676.7 1860.33 705.65 1860.16 746.5C1859.92 801.33 1858.95 850.6 1857.92 859.46C1856.96 867.77 1854.95 871.82 1853.52 868.33ZM576.58 653.38C617.99 629.23 771.56 536.77 773 535.12C774.62 533.26 774.58 539.74 774.17 359.86L774 286.23L670.75 224.28C613.96 190.2 564.93 160.88 561.79 159.11C556.16 155.94 556.05 155.92 552.79 157.6C549.19 159.46 515.83 179.33 464.5 210.19C446.35 221.1 410.7 242.51 385.28 257.77L339.07 285.5L338.87 359.5C338.76 400.2 338.59 456.11 338.48 483.75C338.33 519.37 338.6 534.41 339.39 535.41C340.32 536.6 467.22 613.21 506.5 636.3C538.91 655.35 555.55 664.98 556.08 664.99C556.4 665 565.63 659.77 576.58 653.38ZM1964.64 594.69L2073.5 529.38L2073.75 405.23L2074.01 281.08L2060.75 273.17C2053.46 268.82 2031.3 255.45 2011.5 243.47C1914.3 184.64 1861.58 153.73 1856.04 152.31C1853.29 151.6 1851.45 152.51 1827.5 166.24C1813.74 174.13 1740.04 218.28 1666.75 262.54L1637.01 280.5L1637 404.6C1637 521.54 1637.1 528.78 1638.75 530.21C1639.71 531.04 1647.7 536.01 1656.5 541.25C1673.64 551.44 1806.96 631.71 1836 649.32C1845.62 655.15 1854.01 659.94 1854.64 659.96C1855.27 659.98 1904.77 630.61 1964.64 594.69ZM551.38 477.02C537.81 474.98 522.17 466.68 514.04 457.2C508.87 451.18 503.48 440.94 501.53 433.45C499.03 423.85 499.49 408.82 502.57 399.38C506.98 385.85 514.28 375.75 524.83 368.56C536.04 360.92 541.1 359.54 558 359.54C574.94 359.54 579.96 360.91 591.29 368.64C607.66 379.8 617 397.24 617 416.66C617 427.82 615.59 433.95 610.7 444C600 466.02 574.1 480.43 551.38 477.02ZM564.98 463.93C574.07 462.46 582.97 457.89 590.52 450.83C598.23 443.62 602.44 436.61 603.92 428.57C605.27 421.18 605.27 410.92 603.93 405C601.87 395.94 589.52 381.37 578.92 375.5C573.65 372.58 573.13 372.5 560 372.5C549.53 372.5 545.27 372.91 541.03 374.34C524.57 379.89 513.55 394.71 512.29 413C510.6 437.71 525.48 458.53 548.4 463.51C556.1 465.19 557.09 465.21 564.98 463.93ZM1841 463.23C1814.18 456.02 1796.82 425.75 1803.49 397.85C1809.95 370.9 1832.91 353.59 1859.97 355.28C1870.52 355.94 1880.14 358.9 1887.15 363.64C1902.14 373.77 1910.59 387 1913.02 404.15C1914.4 413.89 1912.88 422.53 1907.95 432.89C1902.6 444.14 1892.05 454.8 1880.59 460.54C1872.77 464.46 1872.57 464.5 1860.09 464.74C1850.64 464.92 1845.88 464.55 1841 463.23ZM1315 459.93C1315 459.35 1316.58 457.38 1318.5 455.56C1322.67 451.63 1323.08 449 1319.54 449C1316.37 449 1314.63 445.8 1315.44 441.45C1316.12 437.87 1318.55 436.4 1322.01 437.5C1326.92 439.06 1328.77 450.48 1324.91 455.39C1321.73 459.43 1315 462.52 1315 459.93ZM1867.88 452.12C1876.27 449.5 1881.64 446.13 1887.81 439.6C1900.34 426.36 1903.98 406.77 1896.62 392.24C1885.88 371.03 1859.37 361.14 1839.5 370.93C1833.03 374.11 1824.59 381.63 1820.48 387.87C1817.49 392.39 1815.03 402.59 1815.01 410.54C1814.97 427.48 1824.91 442.89 1840.5 450.04C1850.16 454.47 1858.32 455.09 1867.88 452.12ZM80 446.55C80 445.63 81.33 443.22 82.96 441.19C84.58 439.16 88.89 431.2 92.53 423.5C109.34 387.97 110.37 386 112.02 386C113.19 386 115.53 390.29 120.07 400.75C129.92 423.46 138.72 440.63 141.68 442.96C143.54 444.42 144.03 445.37 143.29 446.11C142.22 447.18 123.25 447.59 122.23 446.56C121.93 446.26 122.25 444.28 122.94 442.17C124.07 438.76 123.98 437.89 122.18 434.35C121.06 432.16 119.53 429.86 118.79 429.24C117.24 427.95 102.62 427.31 99.33 428.38C97.91 428.84 96.62 430.68 95.58 433.72C93.52 439.78 93.59 441.32 96.02 443.52C97.14 444.53 97.7 445.68 97.27 446.08C96.85 446.47 92.79 447.12 88.25 447.5C80.94 448.13 80 448.02 80 446.55ZM1359.45 445.93C1359.09 445.34 1359.75 443.83 1360.92 442.59C1364.34 438.94 1365 434.58 1365 415.51C1364.99 399.26 1364.8 397.18 1362.99 394.22C1361.89 392.41 1360.32 390.67 1359.49 390.36C1357.53 389.61 1357.58 387.37 1359.58 386.61C1362.03 385.67 1380.83 385.9 1387.23 386.95C1398.53 388.8 1404.8 394.01 1405.74 402.34C1406.16 406.13 1405.83 407.13 1403.11 410.22C1401.4 412.17 1400 414.11 1400 414.53C1400 414.95 1401.59 417.24 1403.54 419.62C1408.31 425.44 1409.48 429.01 1408.04 433.39C1406.56 437.87 1399.26 444.56 1394.35 445.92C1389.21 447.35 1360.34 447.35 1359.45 445.93ZM1392.65 438.62C1395.82 434.93 1395.97 426.5 1392.93 422.63C1391.05 420.25 1390.21 420 1384.03 420C1375.99 420 1376 419.99 1376 430.65C1376 441.33 1376.74 442.33 1384.25 441.79C1389.31 441.42 1390.69 440.9 1392.65 438.62ZM171.75 426.33C170.24 426.07 169 425.26 169 424.52C169 422.57 180.79 421.68 200 422.17C215.46 422.56 220.12 423.52 216.84 425.64C215.45 426.54 176.57 427.13 171.75 426.33ZM1440.58 426.17C1435.22 424.94 1436.5 423.21 1443.31 422.48C1451.36 421.62 1484.57 422.24 1485.6 423.27C1486.02 423.69 1485.81 424.59 1485.14 425.27C1483.78 426.63 1445.93 427.39 1440.58 426.17ZM114.49 420.63C116.31 419.3 116.31 419.1 114.61 414.64C112.36 408.77 109.71 405.44 108.08 406.45C106.52 407.41 103 415.5 103 418.12C103 421.54 110.89 423.27 114.49 420.63ZM1390.83 409.49C1393.92 406.11 1394.19 405.35 1393.72 401.17C1392.99 394.7 1389.7 392 1382.55 392C1376.18 392 1376 392.29 1376 402.65C1376 412.88 1376.92 414.38 1382.81 413.72C1386.52 413.3 1388.11 412.46 1390.83 409.49ZM173.58 411.16C168.68 410.34 167.89 408.47 172.09 407.63C176.15 406.82 209.32 406.83 214.25 407.64C218.31 408.31 219.01 409.34 216.25 410.56C214.02 411.54 178.8 412.04 173.58 411.16ZM1441.08 411.12C1439.2 410.78 1437.49 409.99 1437.29 409.37C1436.68 407.53 1443.27 406.84 1461.5 406.84C1479.71 406.84 1486.32 407.53 1485.71 409.37C1485.5 409.99 1483.57 410.81 1481.42 411.19C1476.66 412.03 1445.85 411.98 1441.08 411.12ZM935.73 156.93C927.03 154.83 917.65 147.24 914.55 139.78C912.72 135.38 912.41 116.66 914.07 110.69C916.37 102.4 928.77 94.19 940.38 93.26C945.74 92.83 947.63 93.14 952.18 95.22C962.85 100.11 967.79 106.34 970.04 117.77C973.69 136.37 961.2 154.98 943.5 157.31C941.3 157.6 937.81 157.43 935.73 156.93ZM981.75 155.27C977.65 154.84 977.12 153.98 979.65 151.87C983 149.1 984.22 143.75 984.75 129.46C985.49 109.81 984.7 104.5 980.4 100.2C978.53 98.33 977 96.4 977 95.9C977 95.41 982.17 95 988.5 95C994.83 95 1000 95.3 1000 95.67C1000 96.04 999.27 97.15 998.38 98.13C996.54 100.17 994.36 115.31 995.34 119.24C995.86 121.31 996.75 121.83 1000.62 122.36C1010.04 123.65 1016.85 123.15 1019 121C1022.14 117.86 1021.03 105.24 1017.15 99.99C1015.97 98.39 1015 96.61 1015 96.04C1015 95.39 1018.89 95 1025.5 95C1031.28 95 1036 95.24 1036 95.54C1036 95.84 1034.99 97.45 1033.75 99.12C1031.57 102.07 1031.5 102.89 1031.5 125C1031.5 147.12 1031.57 147.93 1033.75 150.88C1035.95 153.86 1035.96 153.95 1034.07 154.96C1031.98 156.08 1020.91 156.35 1017.25 155.37C1015.07 154.78 1014.01 152 1015.97 152C1017.81 152 1019.77 146.5 1020.48 139.33C1021.63 127.73 1021.93 128 1007.9 128C998.1 128 995.83 128.28 995.35 129.52C995.03 130.36 995.09 134.88 995.48 139.56C996.06 146.55 996.63 148.6 998.68 151.03L1001.17 153.99L998.52 154.99C995.95 155.97 989.45 156.08 981.75 155.27ZM946.8 149.59C953.98 145.84 958.18 138.26 958.77 128C959.76 110.71 948.55 96.62 936.42 99.89C929.08 101.86 926.4 105.83 924.99 116.81C923.37 129.46 926.91 143.23 933.15 148.48C936.61 151.38 942.46 151.86 946.8 149.59ZM2237.75 147.31C2235.59 146.75 2235.47 145.14 2237.54 144.35C2241.26 142.92 2242.37 138.02 2242.81 121.27C2243.36 100.07 2242.81 96.5 2238.27 92.22C2235.78 89.87 2235.04 88.56 2235.78 87.82C2237.6 86 2269.68 87.29 2274.49 89.37C2284.93 93.89 2289.2 104.04 2283.5 110.82C2280.19 114.75 2280.34 116.41 2284.45 121.21C2288.55 126.01 2289.56 129.76 2288.01 134.47C2286.33 139.56 2278.97 145.63 2272.89 146.93C2268.09 147.96 2241.34 148.25 2237.75 147.31ZM2296 146.75C2296.01 146.06 2297.13 143.29 2298.5 140.58C2300.48 136.69 2301 134.18 2300.98 128.58C2300.96 121.61 2298.69 114.16 2296.1 112.56C2293.77 111.12 2295.18 108.85 2299.58 106.96C2305.11 104.6 2309 104.4 2309 106.5C2309 108.39 2310.02 108.39 2313.64 106.51C2315.21 105.68 2317.44 105.01 2318.6 105.01C2322.76 104.99 2325.62 110.98 2322.8 113.8C2322.14 114.46 2319.68 115 2317.32 115C2310.63 115 2309.38 118.29 2309.83 134.67C2309.97 139.63 2310.49 141.43 2312.47 143.78C2313.83 145.4 2314.66 147.01 2314.31 147.36C2313.95 147.71 2309.69 148 2304.83 148C2298.43 148 2296 147.66 2296 146.75ZM2270.61 140.34C2273.46 138.47 2276 134.07 2276 131C2276 127.56 2273.28 123.36 2270.3 122.18C2265.89 120.45 2260.43 119.75 2257.08 120.48L2254 121.16L2254 131.03C2254 139.35 2254.27 141.07 2255.75 141.98C2258.1 143.43 2267.47 142.39 2270.61 140.34ZM2264.51 113.14C2268.3 111.41 2275 104.97 2275 103.04C2275 101.21 2269.47 95.68 2266.33 94.36C2264.53 93.61 2261.02 93 2258.53 93L2254 93L2254 102.8C2254 115.63 2255.59 117.19 2264.51 113.14Z" fill="#1e2749" fill-rule="evenodd"/>
</svg>
