<?xml version="1.0" encoding="UTF-8"?>
<svg xmlns="http://www.w3.org/2000/svg" viewBox="0 0 2430 2015" width="2430" height="2015" shape-rendering="geometricPrecision">
<path d="M1433.34 1963.07C1425.99 1959.57 1393.29 1941.95 1370.71 1929.32C1361.25 1924.02 1346.53 1915.78 1338 1911.01C1299.63 1889.52 1205.57 1835.89 1167 1813.51C1159.58 1809.2 1146.3 1801.54 1137.5 1796.49C1128.7 1791.44 1107.1 1778.97 1089.5 1768.79C1071.9 1758.6 1052.78 1747.59 1047 1744.3C1041.22 1741.02 1032 1735.71 1026.5 1732.51C1016.99 1726.96 992.91 1713.07 955.5 1691.55C946.15 1686.17 937.96 1681.26 937.3 1680.63C936.37 1679.76 936.05 1615.14 935.91 1395.85C935.8 1239.84 935.44 1110.51 935.11 1108.44C934.5 1104.72 934.25 1104.54 910.5 1090.88C897.3 1083.3 879.3 1072.82 870.5 1067.61C849.64 1055.26 809.1 1032 808.43 1032C808.14 1032 805.37 1030.38 802.26 1028.39C796.37 1024.62 756.72 1001.42 749.11 997.29C728.43 986.07 653.02 938.94 637.02 927.24C623.89 917.65 619.24 912.03 625.75 913.64C636.61 916.32 695.16 946 733 968C736.58 970.08 745.12 974.92 752 978.76C758.88 982.6 768.55 988.11 773.5 991C778.45 993.9 784.75 997.51 787.5 999.03C790.25 1000.55 800.38 1006.41 810 1012.05C819.62 1017.69 833.12 1025.55 840 1029.51C846.88 1033.47 859.48 1040.74 868 1045.66C876.52 1050.59 892.05 1059.51 902.5 1065.49C912.95 1071.47 925.52 1078.75 930.42 1081.68C935.33 1084.61 939.99 1087 940.77 1087C941.56 1087 946.65 1084.3 952.08 1081C957.51 1077.7 962.16 1075 962.4 1075C962.64 1075 969.74 1071.03 978.17 1066.18C1035.25 1033.32 1049.41 1025.16 1056.5 1021.02C1060.9 1018.45 1069 1013.72 1074.5 1010.51C1080 1007.31 1087.3 1002.95 1090.73 1000.84C1094.15 998.73 1097.19 997 1097.49 997C1097.94 997 1129.96 978.66 1166.5 957.49C1171.45 954.62 1188.33 944.86 1204 935.8C1233.17 918.95 1279.15 892.28 1289 886.5C1292.03 884.72 1299.67 880.23 1306 876.52C1312.33 872.81 1323.28 866.43 1330.34 862.35C1337.41 858.26 1347.31 852.39 1352.34 849.3C1357.38 846.2 1366.67 840.65 1373 836.96C1400.89 820.71 1428.67 803.71 1430.68 801.69C1431.87 800.49 1434.02 795.9 1435.45 791.5C1438.98 780.62 1455.02 716.24 1464.86 673.5C1478.72 613.23 1485.91 580.66 1516.48 439.5C1535.32 352.52 1542.4 320.18 1549.62 288.21C1552.64 274.85 1554.84 263.06 1554.5 262C1553.19 257.87 1537.51 245.84 1512.26 229.6C1498.68 220.86 1441.76 186.79 1413.5 170.5C1404.15 165.11 1389.97 156.87 1382 152.2C1374.03 147.52 1363.22 141.21 1358 138.15C1320.04 115.99 1270.35 85.69 1257.2 76.68C1249.1 71.13 1246.97 69.19 1247.2 67.57C1247.69 64.17 1254.24 64.32 1263.33 67.93C1280.23 74.65 1320.67 96.65 1398 141.21C1407.08 146.43 1425.08 156.8 1438 164.24C1495.41 197.27 1515.11 208.64 1539 222.52L1564.5 237.34L1626 231.17C1735.92 220.14 1894.4 204.04 1898.5 203.48C1909.5 201.98 2043.29 190.27 2087.07 186.96C2106.63 185.49 2139.66 184.34 2144 184.99C2147.14 185.45 2147.88 186.22 2151.22 192.5C2172.83 233.2 2352.38 640.02 2379.52 709.8L2382.36 717.11L2371.43 728.16C2360.39 739.32 2357.02 742.48 2312.94 782.92C2299.5 795.25 2280.4 812.85 2270.5 822.03C2260.6 831.21 2249.15 841.6 2245.06 845.11C2240.97 848.63 2234.19 854.65 2229.99 858.5C2225.8 862.35 2217.22 870.07 2210.93 875.64C2204.64 881.22 2192.75 891.83 2184.5 899.21C2176.25 906.59 2164.49 917.1 2158.37 922.57C2152.25 928.03 2135.14 943.3 2120.36 956.5C2105.58 969.7 2090.12 983.41 2085.99 986.96C2081.87 990.51 2075.78 995.91 2072.45 998.96C2069.12 1002.01 2064.62 1006.11 2062.45 1008.08C2055.21 1014.66 1965.49 1094.42 1959.61 1099.51L1953.83 1104.52L1953.38 1144.01C1953.14 1165.73 1952.26 1294.88 1951.43 1431C1950.03 1662.55 1949.82 1678.58 1948.21 1679.8C1947.27 1680.51 1932.78 1689.02 1916 1698.72C1899.22 1708.42 1875.6 1722.07 1863.5 1729.08C1800.93 1765.27 1769.64 1783.35 1752 1793.49C1741.28 1799.66 1725.3 1808.88 1716.5 1813.99C1641.29 1857.61 1566.81 1899.5 1496 1937.99C1479.46 1946.98 1447.91 1962.77 1443.05 1964.48C1439.43 1965.76 1438.81 1965.67 1433.34 1963.07ZM1462.93 1935.35C1491.34 1919.9 1547.6 1888.19 1610.5 1852.18C1640.75 1834.86 1669.1 1818.66 1673.5 1816.17C1677.9 1813.68 1690.05 1806.71 1700.5 1800.68C1710.95 1794.65 1731.65 1782.75 1746.5 1774.22C1761.35 1765.7 1780.25 1754.8 1788.5 1750C1796.75 1745.19 1812.5 1736.09 1823.5 1729.77C1834.5 1723.45 1853.85 1712.31 1866.5 1705.01C1879.15 1697.71 1896.7 1687.6 1905.5 1682.54C1914.3 1677.48 1923.75 1671.99 1926.5 1670.35L1931.5 1667.36L1931.75 1386.29L1932 1105.22L1914.25 1094.93C1891.49 1081.74 1860.85 1064.02 1830.5 1046.51C1817.3 1038.89 1801.78 1029.87 1796 1026.46C1787.21 1021.27 1768.1 1010.22 1739 993.5C1724.72 985.29 1692 966.38 1678.5 958.53C1659.37 947.4 1583.41 903.93 1567 894.71C1513.99 864.92 1488.91 851.04 1474.5 843.5C1444.96 828.05 1440.84 826 1439.23 826.04C1437.64 826.07 1431.09 829.36 1403.5 844C1393.44 849.33 1337.11 880.95 1305.5 899C1243.17 934.59 1229.95 942.21 1217 949.98C1209.03 954.77 1198.9 960.64 1194.5 963.02C1190.1 965.41 1180.65 970.82 1173.5 975.04C1160.71 982.6 1149.7 988.98 1117 1007.78C1107.92 1012.99 1096.45 1019.74 1091.5 1022.77C1086.55 1025.81 1075.53 1032.21 1067 1037C1058.47 1041.79 1044.75 1049.67 1036.5 1054.52C993.47 1079.77 974.78 1090.67 968 1094.49L960.5 1098.71L960.25 1384.77L960 1670.83L966.75 1674.74C970.46 1676.9 988.12 1687.11 1006 1697.44C1023.88 1707.77 1042.55 1718.59 1047.5 1721.49C1052.45 1724.39 1062.41 1730.15 1069.63 1734.29C1076.85 1738.43 1089.67 1745.85 1098.13 1750.77C1124.39 1766.06 1222.22 1822.47 1278 1854.48C1324.46 1881.15 1395.18 1921.16 1415 1932C1422.42 1936.06 1431.2 1940.87 1434.5 1942.68C1437.8 1944.49 1441.14 1945.98 1441.93 1945.99C1442.72 1945.99 1452.17 1941.21 1462.93 1935.35ZM1446.5 1852.57C1426.85 1844.91 1393.04 1826.53 1296.5 1770.97C1280.55 1761.8 1259.62 1749.78 1250 1744.27C1218.88 1726.45 1186.78 1707.95 1175 1701.05C1168.67 1697.35 1154.72 1689.22 1144 1683C1060.06 1634.28 1030.94 1615.6 1029.4 1609.46C1028.69 1606.62 1030.88 1602.67 1034.11 1600.94C1035.88 1600 1037.41 1600.4 1043.36 1603.36C1093.6 1628.36 1457 1842.71 1461.51 1850.01C1462.67 1851.89 1458.94 1855 1455.6 1854.95C1453.89 1854.92 1449.8 1853.85 1446.5 1852.57ZM1837.64 1624.74C1833.78 1596.95 1828.98 1389.7 1829.02 1252.63C1829.04 1179.96 1830.07 1147.7 1832.52 1142.95C1835.85 1136.52 1842.7 1135.08 1844.19 1140.5C1846.55 1149.06 1847.23 1176.61 1847.69 1283.5C1848.43 1452.9 1845.36 1607.01 1840.91 1624.21C1839.54 1629.47 1838.32 1629.67 1837.64 1624.74ZM1029.25 1163.87C1026.85 1161.44 1027.89 1158.26 1032.39 1154.33C1036.22 1150.98 1066.91 1131.84 1089 1119.03C1093.12 1116.63 1098.53 1113.46 1101 1111.98C1103.47 1110.5 1114.28 1104.22 1125 1098.01C1135.72 1091.81 1148.82 1084.09 1154.1 1080.86C1159.39 1077.64 1163.94 1075 1164.23 1075C1164.51 1075 1180.44 1065.94 1199.62 1054.86C1218.81 1043.78 1241.47 1030.79 1250 1025.98C1258.53 1021.18 1272.47 1013.17 1281 1008.19C1297.77 998.39 1308.18 992.49 1334.5 977.87C1343.85 972.68 1356 965.82 1361.5 962.63C1373.87 955.44 1416.56 932.34 1435.84 922.4C1451.75 914.19 1455.13 913.49 1459.68 917.41C1462.47 919.8 1462.47 919.82 1460.54 921.95C1456.92 925.96 1426.77 945.65 1398 962.8C1391.12 966.9 1381 973.04 1375.5 976.44C1370 979.84 1358.75 986.49 1350.5 991.21C1342.25 995.94 1324.92 1005.98 1312 1013.54C1299.08 1021.1 1285.58 1028.87 1282 1030.8C1278.42 1032.73 1259.75 1043.31 1240.5 1054.31C1221.25 1065.31 1200.55 1076.99 1194.5 1080.27C1188.45 1083.55 1178.55 1089.04 1172.5 1092.46C1166.45 1095.89 1157.22 1100.96 1152 1103.73C1146.78 1106.5 1129.9 1115.59 1114.5 1123.93C1080.92 1142.1 1037.66 1163.81 1033.5 1164.58C1031.71 1164.91 1030 1164.62 1029.25 1163.87ZM1941.23 1079.32C1952.01 1075.09 1974.5 1058.75 1997.42 1038.5C2001.78 1034.65 2009.05 1028.35 2013.57 1024.5C2021.82 1017.47 2044.77 997.17 2074.4 970.71C2083.15 962.89 2101.82 946.24 2115.9 933.69C2129.98 921.15 2150.92 902.47 2162.44 892.19C2173.95 881.91 2187.66 869.67 2192.89 865C2198.13 860.33 2206.27 852.9 2210.98 848.5C2215.68 844.1 2228.53 832.64 2239.52 823.03C2250.51 813.42 2262.9 802.4 2267.05 798.53C2271.21 794.66 2277.73 788.74 2281.55 785.37C2289.48 778.38 2324.96 746.41 2341.34 731.5C2347.38 726 2354.55 719.48 2357.27 717L2362.22 712.5L2249.83 457.5L2137.44 202.5L2120.47 202.8C2098.29 203.19 2060.34 206.15 1996.5 212.48C1871.1 224.92 1757.9 236.65 1706.82 242.5C1694.54 243.91 1666.72 247.07 1645 249.52C1594.91 255.18 1578.18 257.42 1576.94 258.66C1575.9 259.7 1565.02 306.89 1552.43 365C1548.32 383.98 1543.4 406.48 1541.51 415C1535.72 441.1 1505.92 580.58 1496.43 626C1491.93 647.51 1490.12 656.11 1483.59 687C1470 751.23 1461.67 794.59 1462.4 797.35C1462.71 798.53 1465.44 801.3 1468.46 803.5C1477.94 810.4 1546.58 854.19 1573.5 870.49C1580.65 874.83 1592.35 881.94 1599.5 886.3C1630.46 905.18 1686.81 938.96 1702 947.74C1711.08 952.99 1723.45 960.32 1729.5 964.03C1743.62 972.69 1816.25 1014.99 1852.5 1035.66C1909.91 1068.4 1933.03 1081 1935.68 1081C1936.39 1081 1938.88 1080.24 1941.23 1079.32ZM424 1024.39C397.48 1021.16 382.34 1016.08 365.81 1004.87C342.24 988.87 324.52 959.89 316.43 924.11C308.28 888.02 312.25 845.63 326.74 814C338.06 789.27 356.09 769.4 377 758.59C392.97 750.33 420.06 742.82 434 742.79C455.07 742.75 498.72 759.76 514.39 774.12C526.39 785.12 533.95 796.45 541.39 814.63C547.19 828.79 549.46 837.15 552.19 854.42C556.39 880.95 554.77 922.74 548.87 939.88C545.99 948.25 538.5 961.49 530.95 971.55C510.2 999.2 485.03 1016.58 457 1022.59C450.26 1024.04 430.12 1025.14 424 1024.39ZM70.43 1016.69C66.28 1013.13 65.08 1005.11 63.88 973C62.53 937.02 63.37 783.04 65 768C66.41 755.04 68.29 750.62 72.56 750.2C74.24 750.04 76.8 750.35 78.25 750.91C86.01 753.85 87.99 765.54 89.98 820C90.57 836.23 91.31 853.22 91.62 857.76L92.18 866.01L167.34 865.76L242.5 865.5L243.13 815.5C243.74 766.74 244.3 758.27 247.27 752.5C248.64 749.84 249.98 749.03 253.1 749.02C258.32 748.98 260.43 754.04 262.25 770.9C264.05 787.6 264 984.5 262.19 998C260.54 1010.35 259.34 1014.66 256.89 1017.11C252.33 1021.67 246.97 1016.48 245.14 1005.76C243.6 996.72 242.22 971.74 240.93 929.5C240.31 909.15 239.49 892.17 239.12 891.77C238.75 891.37 212.81 890.38 181.47 889.56C150.14 888.74 116.96 887.79 107.75 887.46L91 886.84L90.99 939.67C90.98 1006.1 90.16 1014.08 82.95 1017.73C78.96 1019.75 73.45 1019.29 70.43 1016.69ZM446.68 1000.55C465.54 996.54 480 988.68 495.33 974.1C503.91 965.94 513.68 953.53 517.57 945.86C523.97 933.24 526.99 914.18 527 886.5C527 851.24 521.34 824.97 509.99 807.59C505.04 800 491.9 786.58 484.76 781.82C465.78 769.17 428.91 766.24 401 775.17C379.12 782.17 361.07 799.06 351.94 821.11C348.13 830.31 343.57 846.95 341.96 857.5C341.29 861.9 340.73 873.6 340.71 883.5C340.65 911.64 344.45 931.68 353.41 950.5C358.05 960.25 367.45 973.59 373.29 978.69C393.48 996.35 423.87 1005.4 446.68 1000.55Z" fill="#1e2749" fill-rule="evenodd"/>
</svg>
