<?xml version="1.0" encoding="UTF-8"?>
<svg xmlns="http://www.w3.org/2000/svg" viewBox="0 0 500 151" width="500" height="151" shape-rendering="geometricPrecision">
<path d="M28.95 144.33C27.7 143.6 26.91 141.3 26.88 138.33C26.85 135.18 27.47 133.36 28.9 132.43C29.89 131.77 30.58 132.25 30.04 133.21C28.41 136.08 28.21 139.51 29.5 142.28C30.5 144.43 30.32 145.12 28.95 144.33ZM40.33 143.9C40.33 143.48 40.48 142.99 40.65 142.82C41.3 142.17 41.94 138.81 41.67 137.48C41.08 134.56 40.9 134 40.46 133.63C39.8 133.09 39.89 132.33 40.61 132.33C42.11 132.33 43.67 135.39 43.67 138.33C43.67 140.59 43.06 142.29 41.72 143.75C40.69 144.87 40.33 144.91 40.33 143.9ZM133.94 143.58C132.09 141.1 131.81 137.23 133.27 134.33L134.19 132.5L137.27 132.23C139.94 131.99 140.52 132.04 141.59 132.56C142.79 133.15 142.83 133.22 142.75 134.78C142.7 135.79 142.85 136.65 143.17 137.1C143.99 138.27 143.77 139.32 142.46 140.56C141.32 141.63 141.14 141.69 139.21 141.6L137.17 141.5L137 137.5C136.86 134.1 136.75 133.49 136.27 133.4C135.91 133.33 135.5 133.69 135.13 134.4C134.32 135.96 134.35 140.94 135.18 142.48C135.75 143.54 135.68 144.67 135.05 144.67C134.88 144.67 134.38 144.18 133.94 143.58ZM144 143.74C144 143.23 144.24 142.47 144.54 142.04C145.39 140.83 145.29 135.87 144.37 134.08C143.5 132.36 143.5 132.33 144.42 132.34C146.26 132.34 147.92 137.82 146.97 140.8C146.52 142.22 144.84 144.67 144.31 144.67C144.14 144.67 144 144.25 144 143.74ZM237.11 143.25C236.11 141.69 235.58 138.7 235.9 136.5C236.19 134.48 237.55 132.33 238.53 132.33C238.97 132.33 239.33 132.38 239.33 132.44C239.33 132.49 238.94 133.35 238.47 134.34C237.73 135.87 237.62 136.48 237.72 138.48C237.81 140.06 238.1 141.35 238.62 142.41C239.86 144.97 238.64 145.65 237.11 143.25ZM248.45 144.15C248.33 143.86 248.57 143.02 248.98 142.3C250.01 140.46 250.22 137.85 249.52 135.71C249.2 134.77 248.86 134 248.75 134C248.64 134 248.31 134.22 248 134.5C247.51 134.94 247.38 134.92 246.74 134.33C246.25 133.87 245.57 133.67 244.54 133.67C243.33 133.67 242.92 133.83 242.36 134.54C240.96 136.32 241.82 139.34 243.93 140.03C244.56 140.24 245.69 140.31 246.52 140.18C247.72 140 248 140.06 248 140.47C248 141.28 246.88 141.67 244.53 141.67C242.6 141.67 242.23 141.56 241.24 140.68C239.75 139.38 239.18 137.49 239.68 135.58C240.15 133.84 240.65 133.26 242.33 132.5C243.47 131.99 244.07 131.95 246.73 132.2L249.81 132.5L250.8 134.1C251.66 135.5 251.79 136.02 251.8 138.27C251.81 140.5 251.69 141.04 250.87 142.42C249.77 144.28 248.77 144.99 248.45 144.15ZM392.09 143.91C391.17 142.93 390.4 140.99 390.14 139.06C389.91 137.3 390.88 133.97 391.94 132.91C392.84 132.01 399.68 131.9 401.26 132.77C402.53 133.46 403.66 135.13 403.67 136.31C403.67 137.68 402.38 139.88 401.03 140.81C399.88 141.61 399.5 141.69 397.29 141.6L394.83 141.5L394.94 139.5C395.01 138.4 394.96 136.56 394.83 135.42C394.66 133.74 394.5 133.33 394.03 133.33C392.95 133.33 392.5 134.88 392.51 138.53C392.52 141.29 392.63 142.07 393.09 142.58C393.78 143.35 393.82 143.79 393.22 144.29C392.88 144.57 392.61 144.48 392.09 143.91ZM403.81 144.21C403.7 143.95 403.93 143.12 404.31 142.38C405.27 140.49 405.28 136.2 404.33 134.33C403.54 132.78 403.5 132.33 404.15 132.33C405.48 132.33 407.34 135.93 407.33 138.48C407.32 139.67 406.55 142.02 405.78 143.2C405.04 144.34 404.05 144.84 403.81 144.21ZM30.82 141.24C30.72 140.98 31.15 139.73 31.78 138.47C33 136 33.81 134.2 34.13 133.23C34.27 132.8 34.59 132.65 35.22 132.73C35.98 132.82 36.26 133.21 37.24 135.5C37.86 136.97 38.68 138.82 39.06 139.61C39.87 141.3 39.61 141.77 37.96 141.61C36.98 141.51 36.82 141.37 36.73 140.5C36.6 139.3 35.87 138.67 34.61 138.67C33.86 138.67 33.64 138.85 33.49 139.58C33.38 140.09 33.17 140.72 33.03 141C32.68 141.67 31.05 141.85 30.82 141.24ZM140.98 139.26C141.39 138.54 141.39 138.31 141.03 137.87C140.78 137.57 140.3 137.33 139.96 137.33C139.46 137.33 139.33 137.58 139.33 138.61C139.33 140.59 140.07 140.87 140.98 139.26ZM400.02 139.42C400.87 138.65 401.05 138.22 401.11 136.88C401.16 135.46 401.05 135.18 400.17 134.47C399.57 134 398.72 133.67 398.08 133.67L397 133.67L397 136.81C397 139 397.12 139.99 397.42 140.11C398.33 140.48 399.04 140.29 400.02 139.42ZM35.33 136.48C35.33 136.22 35.11 136 34.83 136C34.33 136 34.15 136.7 34.55 137.1C34.86 137.41 35.33 137.04 35.33 136.48ZM140.61 135.08C141.02 134.29 140.74 133.67 139.97 133.67C139.53 133.67 139.33 133.9 139.33 134.44C139.33 135.73 140.08 136.11 140.61 135.08ZM19.17 107.13C11.65 103.35 5.31 100.03 5.08 99.74C4.77 99.33 4.67 95.92 4.67 85.32C4.67 72.51 4.71 71.4 5.25 70.94C5.57 70.66 11.51 67.62 18.44 64.17C26.49 60.17 31.22 57.64 31.54 57.15C31.95 56.52 32.03 54.76 32 46.62C31.98 41.24 31.97 36.42 31.98 35.92C32 35.24 32.17 35 32.65 35C33 35 33.39 35.15 33.5 35.33C33.61 35.51 33.69 40.35 33.68 46.09C33.66 54.05 33.75 56.65 34.08 57.09C34.31 57.41 40.35 60.6 47.5 64.2C54.65 67.79 60.76 70.96 61.08 71.25C61.62 71.73 61.67 72.83 61.67 85.24C61.67 93.95 61.54 98.94 61.32 99.36C61.13 99.72 58.62 101.18 55.74 102.61C52.86 104.04 46.57 107.18 41.77 109.6C36.96 112.02 32.99 114 32.93 113.99C32.88 113.99 26.68 110.9 19.17 107.13ZM226.38 106.98C216.24 101.92 212.33 99.81 212.32 99.4C212.32 99.09 212.31 92.63 212.31 85.05C212.31 72.95 212.37 71.21 212.83 70.88C213.44 70.43 214.76 69.76 228.91 62.7C234.82 59.75 240.04 57.33 240.51 57.33C240.98 57.33 247.32 60.33 254.62 64C261.91 67.67 267.98 70.67 268.11 70.67C268.23 70.67 273.14 68.27 279.02 65.33C284.9 62.4 289.98 60 290.31 60C290.65 60 291.09 60.21 291.31 60.47C291.88 61.16 291.06 61.65 279.41 67.49L269 72.69L269 85.81C269 97.81 268.95 98.99 268.42 99.64C268 100.14 241.06 114 240.5 114C240.46 114 234.11 110.84 226.38 106.98ZM47.5 104.38L59.17 98.5L59.25 85.63C59.32 75.58 59.25 72.68 58.92 72.41C57.83 71.52 33.73 59.67 33 59.66C32.54 59.66 26.43 62.55 19.41 66.08L6.66 72.5L6.75 85.49L6.83 98.48L9 99.62C10.19 100.24 16.03 103.19 21.97 106.17L32.77 111.59L34.3 110.93C35.14 110.56 41.08 107.62 47.5 104.38ZM254.67 104.52C260.81 101.46 266.1 98.71 266.42 98.42C266.96 97.93 267 96.96 266.92 85.19L266.83 72.5L254.02 66.08C246.97 62.55 240.87 59.67 240.45 59.67C239.63 59.67 214.99 71.86 214.59 72.46C214.45 72.67 214.34 78.55 214.34 85.54C214.33 95.46 214.43 98.33 214.76 98.61C214.99 98.8 220.86 101.81 227.8 105.3L240.41 111.64L241.96 110.87C242.81 110.44 248.52 107.59 254.67 104.52ZM134.25 109.41C133.29 109.28 133.01 108.46 133.69 107.78C134.09 107.38 133.95 102.01 133.52 100.75C133.27 100.05 133.35 100 134.6 100C136.76 100 137.04 100.2 136.4 101.32C135.98 102.06 135.94 102.44 136.23 103.07C136.54 103.75 136.83 103.87 138.04 103.85C139.23 103.84 139.55 103.69 139.89 103C140.24 102.32 140.22 102.04 139.79 101.39C139.09 100.32 139.56 99.93 141.37 100.06C142.63 100.15 142.81 100.26 142.69 100.83C142.61 101.2 142.55 102.92 142.55 104.67C142.55 106.41 142.61 108.12 142.69 108.47C142.85 109.18 141.51 109.74 140.35 109.43C139.75 109.28 139.7 109.07 139.89 107.34L140.09 105.42L138.9 105.2C138.24 105.08 137.31 105.08 136.82 105.2C136.01 105.4 135.95 105.53 136.14 106.63C136.53 108.9 136.51 109.07 135.83 109.3C135.47 109.42 134.75 109.47 134.25 109.41ZM390.29 108.86C387.54 106.98 387.46 102.34 390.16 100.67C391.64 99.76 394.75 99.75 396.24 100.66C397.34 101.32 398.35 103.18 398.32 104.46C398.27 106.73 395.79 109.14 393.16 109.46C391.74 109.64 391.31 109.55 390.29 108.86ZM20.92 103.1C11.16 98.18 10 97.51 10 96.8C10 96.21 10.18 96 10.7 96C11.37 96 32.19 106.15 33.49 107.11C34.04 107.52 34.08 107.67 33.7 108.13C33.45 108.43 32.93 108.65 32.54 108.64C32.15 108.62 26.92 106.13 20.92 103.1ZM395.27 107.01C396.37 105.53 396.26 103.55 395.03 102.31C392.48 99.76 389.35 102.36 390.69 105.89C391.27 107.42 392 108 393.32 108C394.29 108 394.69 107.79 395.27 107.01ZM55.06 97.26C54.77 96.97 54.67 93.77 54.67 85.24L54.67 73.62L55.58 73.73L56.5 73.83L56.59 85.19C56.67 95.84 56.64 96.59 56.07 97.11C55.6 97.53 55.37 97.57 55.06 97.26ZM136.15 97.24C136.07 97.02 135.96 91.88 135.92 85.83L135.83 74.83L122.5 68.13C110.13 61.91 109.16 61.36 109.06 60.5C108.95 59.62 108.99 59.59 110.11 59.8C110.75 59.92 111.99 60.41 112.88 60.88C113.77 61.35 119.55 64.28 125.73 67.39L136.96 73.04L139.4 71.81C140.74 71.12 146.54 68.2 152.29 65.31C158.04 62.42 162.88 59.92 163.03 59.77C163.19 59.61 163.36 53.5 163.41 46.19C163.49 33.79 163.54 32.88 164.1 32.54C164.59 32.24 164.8 32.3 165.19 32.81C165.59 33.35 165.67 35.7 165.67 46.75C165.67 55.14 165.54 60.28 165.33 60.68C165.13 61.05 159.37 64.12 151.58 68.02C144.2 71.71 138.1 74.79 138.03 74.87C137.95 74.94 137.92 79.72 137.96 85.49C138.01 92.2 137.92 96.2 137.7 96.61C137.26 97.42 136.36 97.79 136.15 97.24ZM395.39 96.23C395.13 95.92 394.98 92.47 394.92 85.3C394.84 75.04 394.82 74.84 394.17 74.95C393.8 75.01 393.06 75.09 392.52 75.11L391.54 75.17L391.49 85.43C391.46 92.1 391.32 95.82 391.09 96.04C390.9 96.24 390.46 96.34 390.12 96.28C389.53 96.16 389.5 95.57 389.41 85.08C389.32 74.03 389.32 74.01 388.58 73.52C388.17 73.26 382.66 70.43 376.33 67.25C366 62.04 364.83 61.37 364.83 60.65C364.83 60.19 365.05 59.8 365.35 59.74C365.63 59.69 371.85 62.65 379.16 66.32C386.48 70 392.64 73 392.85 73C393.06 73 393.97 72.6 394.87 72.12C400.02 69.33 419.59 59.67 420.07 59.67C420.39 59.67 426.64 62.67 433.96 66.33C441.28 70 447.37 73 447.48 73C447.6 73 453.73 69.99 461.1 66.31C474.14 59.8 475.67 59.19 475.67 60.51C475.67 61.18 474.23 62.08 469.3 64.5C466.84 65.71 464.53 66.87 464.17 67.07C463.8 67.28 459.93 69.24 455.56 71.42C447.91 75.25 447.59 75.38 446.59 74.97C446.02 74.73 439.92 71.72 433.05 68.27C426.17 64.82 420.31 62.01 420.02 62.01C419.73 62.02 414.47 64.55 408.33 67.63L397.17 73.24L397.08 84.41C397 94.77 396.95 95.61 396.38 96.13C395.86 96.59 395.7 96.61 395.39 96.23ZM10.22 75.11C10.1 74.99 10 74.55 10 74.14C10 73.49 11.45 72.66 21.06 67.86C27.14 64.82 32.46 62.33 32.89 62.33C33.75 62.33 33.98 63.33 33.25 63.93C32.76 64.33 10.97 75.33 10.66 75.33C10.54 75.33 10.34 75.23 10.22 75.11ZM217.44 74.79C217.32 74.49 217.37 74.01 217.55 73.73C218.04 72.96 239.35 62.34 240.42 62.34C241.09 62.33 241.33 62.5 241.33 62.96C241.33 63.3 241.15 63.74 240.92 63.93C240.69 64.12 236.67 66.16 232 68.48C227.32 70.79 223.28 72.82 223 72.99C222.06 73.57 218.26 75.33 217.95 75.33C217.78 75.33 217.55 75.09 217.44 74.79ZM137.03 70.02C136.8 69.88 136.66 69.41 136.72 68.99C136.81 68.35 138.61 67.34 147.67 62.8C157.88 57.68 159.99 56.84 160.51 57.69C160.95 58.39 159.54 59.3 153.07 62.51C149.46 64.3 144.46 66.78 141.98 68.02C139.21 69.4 137.29 70.18 137.03 70.02ZM447.17 69.67C447.05 69.3 447.05 68.86 447.16 68.67C447.52 68.09 469.41 57.33 470.23 57.33C471.17 57.33 471.28 58.33 470.42 59.06C469.75 59.62 448.16 70.33 447.69 70.33C447.52 70.33 447.28 70.03 447.17 69.67ZM313.58 63.41C312.54 63.19 312.89 61.69 314.35 60.1C316.03 58.29 315.99 57.47 314.24 57.57C312.95 57.65 312.69 57.21 313.2 55.86C313.53 54.99 316.05 55.16 316.94 56.1C317.93 57.16 317.85 58.17 316.67 59.67C315.45 61.21 315.41 61.67 316.51 61.67C317.44 61.67 317.96 62.5 317.39 63.08C317.02 63.45 314.68 63.65 313.58 63.41ZM296.83 59.77C294.89 59.07 293.89 57.65 293.75 55.37C293.55 52.07 295.27 50.33 298.74 50.33C299.82 50.33 301.02 50.5 301.39 50.7C301.88 50.96 302.17 50.96 302.44 50.7C302.64 50.5 303.5 50.33 304.36 50.33L305.91 50.33L305.87 52.25L305.83 54.17L307.17 54.26C307.93 54.32 308.77 54.16 309.13 53.9C309.69 53.49 309.72 53.3 309.38 52.33C308.73 50.45 308.83 50.29 310.58 50.4C311.82 50.48 312.13 50.61 312 51C311.91 51.27 311.83 53.38 311.82 55.67L311.81 59.83L310.7 59.94C309.09 60.1 308.85 59.69 309.36 57.7C309.59 56.77 309.69 55.91 309.56 55.78C309.44 55.66 308.49 55.49 307.46 55.4L305.59 55.24L305.71 57.54L305.83 59.83L304.69 59.94C304.06 60 303.2 59.86 302.76 59.63C302.11 59.28 301.71 59.31 300.41 59.77C298.61 60.42 298.63 60.42 296.83 59.77ZM303.33 54.96C303.33 52.38 302.89 51.34 302.27 52.45C301.87 53.17 301.45 53.14 300.42 52.33C299.19 51.37 297.8 51.48 296.64 52.64C295.46 53.82 295.36 55.26 296.36 56.88C297.17 58.18 298.09 58.49 300.35 58.23C301.38 58.1 302.07 58.17 302.21 58.4C302.75 59.27 303.33 57.48 303.33 54.96ZM479.64 56.34C477.2 53.78 477.72 50.17 480.74 48.63C481.9 48.04 482.46 47.96 484.15 48.14C485.26 48.26 487.17 48.34 488.39 48.33C490.68 48.3 491.36 48.62 490.5 49.34C489.87 49.86 489.86 51.13 490.48 51.65C490.74 51.86 491.6 51.99 492.39 51.94C493.76 51.84 493.84 51.78 493.94 50.71C494 50.09 493.89 49.42 493.69 49.22C493 48.54 493.35 48.33 495.2 48.33C496.86 48.33 497.04 48.4 496.8 48.92C496.37 49.81 496.24 55.54 496.63 56.26C497.09 57.13 496.5 57.67 495.09 57.67C493.76 57.67 493.54 57.23 493.95 55.4C494.34 53.64 493.93 53.26 491.78 53.4C490.22 53.5 490.16 53.54 490.06 54.61C490 55.21 490.13 55.93 490.35 56.19C491.26 57.28 488.45 58.32 487.41 57.28C487.11 56.98 486.82 56.98 486.16 57.28C485.69 57.49 484.31 57.67 483.1 57.67C480.97 57.67 480.86 57.63 479.64 56.34ZM102.83 56.99C102.71 56.81 102.8 56.1 103.02 55.43C103.29 54.62 103.36 53.11 103.23 50.94L103.03 47.67L104.33 47.67C105.86 47.67 106.12 47.96 105.66 49.18C105.08 50.71 105.51 51.33 107.14 51.33C108.76 51.33 109.85 50.5 109.32 49.66C109.15 49.39 109.01 48.82 109.01 48.4C109 47.69 109.12 47.64 110.58 47.73C111.97 47.82 112.15 47.92 112.02 48.5C111.95 48.87 111.88 50.67 111.88 52.5C111.88 54.33 111.95 56.13 112.02 56.5C112.15 57.08 111.97 57.18 110.58 57.27C108.92 57.37 108.22 56.8 108.91 55.91C110.15 54.34 109.39 52.91 107.24 52.79C105.48 52.69 105.21 53.13 105.71 55.35C105.88 56.1 105.93 56.85 105.82 57.02C105.56 57.44 103.09 57.42 102.83 56.99ZM488 52.81C488 49.33 487.66 48.74 486.51 50.19L485.76 51.13L485.3 50.4C484.93 49.82 484.53 49.67 483.3 49.67C481.25 49.67 480.54 50.44 480.54 52.69C480.54 54.06 480.7 54.52 481.44 55.26C482.23 56.05 482.6 56.16 484.48 56.16C485.65 56.17 486.72 56.28 486.86 56.41C486.99 56.55 487.31 56.49 487.55 56.29C487.87 56.03 488 55 488 52.81ZM295.16 46.96C293.36 46.01 292.82 45.49 291.79 43.72C291.06 42.49 290.9 41.8 290.9 39.92C290.9 37.92 291.03 37.45 291.88 36.24C292.41 35.48 293.49 34.4 294.27 33.86C295.5 32.99 295.97 32.86 297.94 32.86C300.75 32.86 302.63 33.84 304.32 36.2C306.89 39.78 305.76 43.98 301.52 46.64C299.47 47.92 297.19 48.03 295.16 46.96ZM299.71 45.19C301.17 44.58 302.81 42.82 303.35 41.29C303.71 40.25 303.69 39.87 303.19 38.62C302.43 36.71 301.6 35.86 299.83 35.18C298.63 34.72 298.14 34.69 296.96 35.01C295.18 35.49 293.52 37.12 292.98 38.92C292.6 40.21 292.64 40.44 293.53 42.24C294.31 43.78 294.79 44.31 295.99 44.92C297.73 45.79 298.2 45.83 299.71 45.19ZM479.79 44.68C477.57 43.57 476.59 42.45 475.8 40.12C474.81 37.21 476.02 33.67 478.63 31.84C479.94 30.91 480.28 30.83 482.83 30.84C485.59 30.84 485.62 30.85 487.2 32.19C489.04 33.75 490.02 35.45 490.25 37.46C490.57 40.36 487.94 44.05 484.72 45.2C482.88 45.86 481.96 45.76 479.79 44.68ZM297.56 43.78C297.43 43.66 297.33 43.17 297.33 42.69C297.32 41.44 296.97 41.07 295.66 40.94C294.75 40.86 294.48 40.67 294.39 40.08C294.31 39.47 294.45 39.33 295.17 39.33C296.68 39.33 297.33 38.77 297.33 37.47C297.33 36.44 297.43 36.3 298.07 36.39C298.59 36.47 298.87 36.8 299.02 37.53C299.33 39.07 299.6 39.33 300.85 39.33C302.66 39.33 302.24 40.78 300.36 41.05C299.79 41.13 299.47 41.46 299.3 42.1C298.9 43.58 298.12 44.34 297.56 43.78ZM485.58 42.34C488.27 40.36 488.93 37.45 487.21 35.19C486.14 33.79 484.12 32.67 482.67 32.67C481.2 32.67 479.08 33.85 478.32 35.1C477.43 36.56 477.44 39.25 478.35 40.79C479.78 43.22 483.36 43.99 485.58 42.34ZM482.17 41.25C482.09 41.02 481.98 40.38 481.93 39.83C481.84 38.94 481.69 38.82 480.5 38.67C479.44 38.53 479.17 38.36 479.17 37.83C479.17 37.31 479.44 37.13 480.5 37C481.74 36.84 481.84 36.75 481.94 35.67C482 35.02 482.18 34.36 482.34 34.2C482.86 33.67 483.67 34.69 483.67 35.87C483.67 36.92 483.74 37 484.75 37.01C485.35 37.01 486.05 37.15 486.31 37.31C487.09 37.8 486.12 38.67 484.79 38.67C483.74 38.67 483.67 38.74 483.67 39.77C483.67 41.24 482.55 42.35 482.17 41.25ZM48.89 34.78C48.4 34.29 48.71 33.07 49.53 32.31C50.63 31.29 51.44 29.75 51.2 29.14C50.98 28.56 49.94 28.52 49.4 29.07C49.1 29.37 48.91 29.37 48.62 29.08C48.33 28.8 48.37 28.49 48.79 27.85C49.91 26.14 53.34 27.11 53.33 29.15C53.33 29.97 52.15 32 51.67 32C51.49 32 51.33 32.22 51.33 32.5C51.33 32.77 51.57 33 51.86 33C52.14 33 52.68 33.16 53.05 33.36C53.69 33.7 53.69 33.75 53.14 34.36C52.71 34.83 52.12 35 50.84 35C49.89 35 49.01 34.9 48.89 34.78ZM180.07 32.27C179.48 31.68 179.54 31.52 180.97 29.86C182.51 28.09 182.93 27.04 182.29 26.63C182.04 26.47 181.61 26.42 181.33 26.53C180.36 26.89 180.18 26.83 180.06 26.06C179.82 24.44 182.21 23.78 183.79 25.02C184.92 25.92 184.94 27.29 183.83 28.61C182.73 29.92 182.78 30.44 184.06 30.92C185.09 31.31 185.1 31.33 184.51 31.99C184.05 32.5 183.48 32.67 182.18 32.67C181.24 32.67 180.29 32.49 180.07 32.27ZM31.58 30.82C30.9 30.36 30.11 29.54 29.84 29.01C29.16 27.71 29.2 25.17 29.9 23.97C30.88 22.31 32.04 22.01 37.03 22.09L41.5 22.17L41.39 23.6C41.26 25.36 41.74 26 43.2 26C44.61 26 45.59 24.77 45.02 23.71C44.28 22.32 44.54 21.96 46.25 22.07C47.63 22.15 47.82 22.25 47.7 22.83C47.34 24.67 47.32 29.35 47.67 30C48.19 30.99 47.56 31.67 46.12 31.67C44.76 31.67 44.42 31.06 44.99 29.69C45.21 29.15 45.3 28.4 45.17 28.02C44.99 27.43 44.68 27.33 43.1 27.33L41.24 27.33L41.43 29.18C41.61 30.92 41.57 31.06 40.79 31.41C40.17 31.7 39.69 31.69 38.86 31.39C38.07 31.1 37.49 31.08 36.85 31.33C35.2 31.96 32.93 31.74 31.58 30.82ZM38.6 29.93C39.11 29.42 39.15 23.8 38.64 23.48C38.45 23.36 37.96 23.57 37.56 23.94L36.83 24.62L36.01 23.94C35.4 23.45 34.89 23.32 34.05 23.45C32.26 23.74 31.67 24.5 31.67 26.49C31.67 27.93 31.82 28.35 32.58 29.09C33.34 29.81 33.87 29.99 35.67 30.08C36.86 30.15 37.92 30.23 38.02 30.27C38.12 30.3 38.38 30.15 38.6 29.93ZM163.42 28.68C160.93 27.54 159.97 24.65 161.16 21.81C161.84 20.17 164.06 19.19 166.45 19.48C167.39 19.59 168.69 19.66 169.33 19.64C169.97 19.61 171.02 19.57 171.66 19.55L172.82 19.5L172.83 21.33L172.83 23.17L174.42 23.15C176.49 23.12 176.86 22.74 176.3 21.21C175.8 19.81 175.93 19.61 177.44 19.49C179.08 19.36 179.44 19.68 178.98 20.86C178.76 21.44 178.65 23.25 178.72 25.33L178.83 28.83L177.5 28.83C176.21 28.83 176.17 28.8 176.28 27.83C176.57 25.43 176.52 25.19 175.62 24.76C175.1 24.51 174.3 24.42 173.67 24.55L172.59 24.76L172.74 26.55C172.91 28.59 172.56 29.11 171.1 28.94L170.17 28.83L170.29 24.92C170.38 21.95 170.3 21 169.99 21C169.76 21 169.38 21.26 169.15 21.58C168.75 22.12 168.64 22.11 167.33 21.37C165.96 20.6 165.92 20.6 164.64 21.18C163.6 21.65 163.25 22.04 162.94 23.08C162.6 24.21 162.63 24.55 163.17 25.55C163.99 27.07 164.78 27.47 167 27.49C169.21 27.5 169.58 27.96 168 28.73C166.47 29.48 165.15 29.46 163.42 28.68ZM31.44 17.79C28.36 16.69 25.99 13.45 26 10.33C26.01 8.92 27.29 6.1 28.37 5.11C29.71 3.88 32.62 2.92 34.24 3.16C36.05 3.43 38.54 5.11 39.8 6.91C41.87 9.88 40.83 14.4 37.58 16.59C36.31 17.45 33.9 18.38 33.13 18.31C32.97 18.29 32.21 18.06 31.44 17.79ZM161.76 17.63C158.42 16.35 156.36 12.88 156.86 9.38C157.28 6.43 159.03 4.5 162.16 3.52C164 2.94 164.14 2.94 166.04 3.51C169.19 4.46 171.68 7.59 171.66 10.57C171.64 13.57 168.99 16.9 165.9 17.8C163.68 18.44 163.9 18.45 161.76 17.63ZM35.83 15.33C37.09 14.56 38.6 12.41 38.88 11.01C39.14 9.71 37.99 7.37 36.58 6.32C35.1 5.22 31.84 5.16 30.44 6.2C29.09 7.21 28.28 8.78 28.25 10.42C28.19 14.42 32.64 17.31 35.83 15.33ZM166.28 15.36C167.95 14.51 169.48 12.28 169.48 10.71C169.48 8.85 168.34 6.98 166.67 6.1C163.4 4.37 160.02 5.79 158.96 9.35C158.51 10.83 158.7 11.79 159.75 13.35C161.44 15.86 163.85 16.6 166.28 15.36ZM32.9 14.12C32.77 13.99 32.67 13.39 32.67 12.78C32.67 11.77 32.57 11.67 31.69 11.67C30.29 11.67 29.67 11.35 29.67 10.64C29.67 10.22 29.98 9.95 30.58 9.82C32.1 9.5 32.49 9.15 32.67 7.97C32.79 7.11 33 6.83 33.5 6.83C34.01 6.83 34.25 7.17 34.52 8.31C34.83 9.57 35 9.78 35.77 9.82C37.73 9.9 37.65 11.67 35.68 11.67C34.92 11.67 34.74 11.86 34.48 12.91C34.19 14.08 33.43 14.66 32.9 14.12ZM163.27 13.09C163.19 12.14 163.01 11.82 162.5 11.74C160.69 11.47 160.33 11.29 160.33 10.66C160.33 10.15 160.56 10 161.31 10C162.43 10 163.33 8.98 163.33 7.74C163.33 7.12 163.49 6.98 164.08 7.06C164.68 7.14 164.85 7.41 164.93 8.38C165.03 9.5 165.13 9.6 166.33 9.79C167.05 9.91 167.73 10.17 167.87 10.38C168.22 10.95 167.03 11.67 165.75 11.67C164.78 11.67 164.65 11.76 164.83 12.32C165.08 13.12 164.48 14.33 163.84 14.33C163.54 14.33 163.34 13.89 163.27 13.09Z" fill="#1e2749" fill-rule="evenodd"/>
</svg>
