<?xml version="1.0" encoding="UTF-8"?>
<svg xmlns="http://www.w3.org/2000/svg" viewBox="0 0 249 186" width="249" height="186" shape-rendering="geometricPrecision">
<path d="M55.16 183C54.86 182.51 55.26 180.44 55.89 179.23C56.33 178.37 56.33 178.21 55.82 177.65C54.63 176.33 55.94 175.54 57.74 176.48C58.27 176.76 58.74 176.82 58.85 176.64C59.18 176.11 61.27 176.29 61.6 176.88C61.88 177.36 62.02 177.34 62.95 176.65C63.83 176 64.11 175.94 64.83 176.27C65.79 176.71 65.94 177.84 65.18 178.85C64.91 179.21 64.68 180.19 64.68 181.04C64.67 182.7 64.11 183.47 63.1 183.26C62.77 183.2 62.53 182.92 62.57 182.65C62.67 181.98 63.23 179.66 63.51 178.75C63.68 178.21 63.61 178 63.26 178C62.6 178 61.88 178.86 61.01 180.67C59.83 183.1 59.79 183.16 59.21 183.27C58.47 183.42 58.51 182.43 59.33 180.25C60.13 178.15 60.16 177.67 59.5 177.67C58.95 177.67 57.01 180.55 56.49 182.14C56.14 183.2 55.53 183.59 55.16 183ZM124.5 183C124.38 182.81 124.44 182.18 124.63 181.58C126.87 174.37 126.97 173.89 126.43 173.49C125.19 172.58 126.99 171.48 128.32 172.32C128.74 172.58 128.75 172.85 128.39 174.07C128.16 174.85 127.73 176.32 127.44 177.33C127.15 178.34 126.88 179.86 126.85 180.72C126.82 181.57 126.6 182.51 126.36 182.8C125.86 183.4 124.81 183.51 124.5 183ZM185.34 182.58C185.34 182.17 185.62 180.91 185.97 179.77C186.49 178.06 186.51 177.68 186.13 177.53C185.5 177.29 185.54 176.45 186.19 176.2C187.1 175.86 187.64 175.98 188.34 176.67C188.91 177.25 189.04 177.27 189.21 176.84C189.46 176.18 191.28 176.18 192.01 176.84C192.51 177.3 192.61 177.3 192.99 176.84C193.44 176.3 195.51 176.14 195.81 176.62C195.9 176.78 195.75 177.72 195.46 178.71C195.17 179.69 194.91 180.95 194.89 181.5C194.82 182.79 194.45 183.33 193.65 183.33C192.81 183.33 192.78 182.09 193.56 179.92C194.02 178.64 194.05 178.25 193.71 177.92C193.18 177.39 192.73 177.95 191.14 181.08C189.34 184.61 188.31 183.94 189.66 180.11C190.32 178.23 190.3 177.65 189.56 177.68C189.12 177.7 187.85 179.56 187.49 180.73C187.17 181.73 186.04 183.33 185.64 183.33C185.47 183.33 185.33 183 185.34 182.58ZM182.15 167.81L180.55 167L123.43 166.99C66.72 166.98 66.3 166.98 64.78 167.66C62.84 168.51 61.86 168.51 60.45 167.64C59.03 166.76 58.75 166.22 58.72 164.26C58.7 163.05 58.88 162.46 59.51 161.72L60.33 160.74L60.34 87.06C60.35 15.7 60.37 13.37 60.96 13.18C61.3 13.07 61.97 13.13 62.46 13.32L63.34 13.65L63.33 86.88C63.33 127.15 63.4 160.18 63.5 160.28C63.74 160.52 64.14 160.06 64.93 158.67C65.29 158.02 66.1 156.6 66.74 155.5C67.37 154.4 69.02 151.55 70.39 149.17C71.77 146.78 73.27 144.16 73.74 143.33C77.38 136.87 79.18 133.71 79.63 133C79.92 132.54 80.43 131.57 80.76 130.84C81.09 130.11 81.71 129.06 82.13 128.51C82.8 127.61 83.63 126.19 86.18 121.5C87.24 119.57 91.62 112.03 92.48 110.67C93.16 109.6 96.07 104.53 96.7 103.33C96.84 103.06 98.36 100.43 100.08 97.5C105.81 87.74 108.33 83.35 108.33 83.17C108.33 83.07 108.84 82.2 109.46 81.24C111.32 78.36 119.7 63.74 120.1 62.68C120.4 61.87 120.37 61.59 119.9 61.07C118.45 59.48 119.92 56.39 122.39 55.83C123.72 55.52 125.93 56.32 126.88 57.45C127.56 58.26 127.68 58.66 127.5 59.6C127.38 60.24 126.97 61.19 126.58 61.72L125.87 62.67L126.63 64.25C127.05 65.12 128.12 67.03 128.99 68.5C129.87 69.97 130.91 71.77 131.31 72.5C131.71 73.23 132.52 74.66 133.12 75.67C135.31 79.33 141.77 90.51 142.72 92.27C143.26 93.27 144.58 95.53 145.64 97.29C147.84 100.94 153.67 111.03 153.67 111.2C153.67 111.26 154.49 112.67 155.5 114.33C156.51 116 157.33 117.44 157.33 117.54C157.33 117.65 157.84 118.58 158.46 119.62C159.07 120.65 160.45 123.08 161.52 125C162.58 126.92 164.28 129.92 165.28 131.67C167.6 135.69 172.67 144.76 172.67 144.89C172.67 144.94 173.26 145.96 173.99 147.14C174.71 148.33 176.01 150.62 176.86 152.23C177.72 153.85 178.93 156.01 179.54 157.04C180.16 158.08 180.67 159.05 180.68 159.21C180.68 159.37 180.98 159.86 181.35 160.29C181.94 161 182.1 161.04 182.98 160.67C183.85 160.31 184.16 160.37 185.72 161.22C187.42 162.13 187.62 162.4 188.2 164.58C188.29 164.91 191.23 165 201.5 165C212.96 165 214.71 165.07 214.88 165.5C215.42 166.9 214.96 166.95 200.83 166.96C189.25 166.97 187.22 167.04 186.35 167.49C184.13 168.64 183.83 168.66 182.15 167.81ZM46.92 166.31C46.1 165.83 46.19 165.17 47.14 164.55C47.59 164.26 48.04 163.68 48.16 163.26C48.44 162.26 49.26 160.14 50.64 156.89C51.2 155.56 51.45 155.3 52.07 155.39C52.97 155.52 53.57 156.68 55.01 161.08C55.72 163.24 56.3 164.4 56.93 164.93C57.81 165.67 57.82 165.7 57.19 166.18C56.46 166.73 54.42 166.82 53.67 166.34C53.25 166.08 53.24 165.9 53.58 165.35C54.46 163.93 54.17 163.67 51.67 163.67C49.64 163.67 49.33 163.75 49.33 164.27C49.33 164.6 49.52 165.06 49.75 165.29C50.08 165.63 50.04 165.81 49.52 166.19C48.77 166.74 47.75 166.79 46.92 166.31ZM129.42 164.08L179.68 164L180.04 163.2C180.35 162.54 180.25 162.13 179.45 160.72C177.28 156.87 171.51 146.98 169.98 144.5C169.08 143.03 167.97 141.08 167.51 140.17C167.06 139.25 166.53 138.27 166.34 138C166.14 137.72 164.69 135.25 163.11 132.5C160.53 128.01 159.64 126.45 157.02 121.83C156.61 121.1 156.06 120.26 155.8 119.97C155.54 119.68 155.33 119.34 155.33 119.22C155.33 118.96 152.76 114.37 151.19 111.84C150.63 110.93 149.84 109.58 149.44 108.84C149.04 108.1 148.43 106.97 148.08 106.33C147.73 105.69 146.44 103.47 145.22 101.4C144 99.32 143 97.56 143 97.49C143 97.41 142.4 96.36 141.67 95.17C140.93 93.97 140.33 92.91 140.33 92.82C140.33 92.73 139.75 91.72 139.03 90.58C138.32 89.43 137.02 87.22 136.15 85.67C133.8 81.46 130.55 75.69 130.17 75.06C129.98 74.75 129.32 73.6 128.7 72.5C123.76 63.77 122.95 62.64 122.3 63.7C121.49 65 117.8 71.38 117 72.83C116.5 73.75 115.05 76.3 113.78 78.5C111.16 83.03 108.55 87.59 107.62 89.25C107.27 89.87 106.37 91.45 105.61 92.77C104.85 94.09 103.68 96.14 103.01 97.33C100.57 101.66 97.53 106.91 95.45 110.38C94.29 112.33 93.33 114.02 93.33 114.13C93.33 114.23 92.73 115.3 92 116.5C91.27 117.7 90.67 118.8 90.67 118.96C90.67 119.11 90.22 119.85 89.67 120.61C89.12 121.37 88.67 122.07 88.67 122.16C88.67 122.26 87.49 124.32 86.04 126.75C84.6 129.18 82.78 132.37 81.99 133.83C81.21 135.3 80.3 136.88 79.98 137.33C79.49 138.02 74.5 146.63 71.07 152.67C70.61 153.49 69.35 155.64 68.28 157.45C66.38 160.66 65.87 162.46 66.59 163.53C66.99 164.13 67.41 164.17 73.42 164.16C76.58 164.16 101.78 164.12 129.42 164.08ZM52.84 161.66C53.06 161.3 52.02 158.67 51.65 158.67C51.43 158.67 50.33 161.26 50.33 161.76C50.33 162.13 52.6 162.04 52.84 161.66ZM190.92 161.31C190.12 160.84 190.18 160.51 191.17 160.06C191.99 159.69 192 159.62 192 155.71C192 151.97 191.96 151.73 191.3 151.56C190.85 151.44 190.65 151.17 190.72 150.77C190.82 150.26 191.23 150.15 193.34 150.06C196.51 149.93 197.59 150.14 198.82 151.12C199.61 151.75 199.79 152.16 199.77 153.14C199.75 153.82 199.47 154.67 199.15 155.02C198.59 155.64 198.6 155.7 199.45 156.48C201.09 158 200.18 160.32 197.56 161.31C196.37 161.76 191.69 161.76 190.92 161.31ZM197.64 158.94C198.1 158.12 198.09 157.99 197.52 157.36C197.05 156.84 196.49 156.67 195.28 156.67L193.67 156.67L193.67 158.11C193.67 158.91 193.77 159.66 193.9 159.79C194.03 159.92 194.82 159.99 195.64 159.93C196.87 159.85 197.24 159.67 197.64 158.94ZM196.9 154.28C197.81 153.41 197.85 153.09 197.12 152.28C196.74 151.86 196.09 151.67 195.12 151.67L193.67 151.67L193.67 153.11C193.67 153.91 193.77 154.66 193.89 154.78C194.38 155.26 196.16 154.97 196.9 154.28ZM90.01 104.27C90.02 103.66 90.25 102.57 90.51 101.83C90.77 101.1 90.99 100.27 91 100C91 99.72 91.2 99.12 91.45 98.65C92.19 97.22 92.37 95.75 91.82 95.54C91.55 95.44 91.33 95.05 91.33 94.68C91.33 94.17 91.55 94 92.19 94C93.29 94 94.41 94.6 94.14 95.05C94.02 95.24 93.71 96.17 93.44 97.11C93.17 98.06 92.8 99.36 92.62 100C92.44 100.64 92.19 102.07 92.06 103.17C91.85 105.03 91.77 105.17 90.92 105.27C90.08 105.37 90 105.28 90.01 104.27ZM159 104.17C159 103.53 159.45 101.66 160 100C161.09 96.71 161.19 95.99 160.62 95.42C159.57 94.37 161.52 93.5 162.81 94.44C163.29 94.79 163.34 95.01 163.05 95.52C162.44 96.6 161.34 100.64 161.12 102.62C160.88 104.72 160.55 105.33 159.63 105.33C159.13 105.33 159 105.09 159 104.17ZM136.17 61.06C134.32 60.18 133.24 58.59 133.07 56.47C132.89 54.34 133.4 52.7 134.59 51.6C136.22 50.09 139.48 49.47 140.35 50.52C140.58 50.8 140.97 50.95 141.22 50.86C142.03 50.55 142.67 51.05 142.67 51.99C142.67 53.51 141.91 53.82 141.05 52.66C140.41 51.79 140.11 51.67 138.68 51.67C137.32 51.67 136.93 51.81 136.37 52.52C135.07 54.19 135.06 57.39 136.36 58.97C137.21 60 139.68 60.45 140.67 59.76C141.04 59.5 141.59 59.33 141.9 59.39C142.81 59.57 140.13 61.38 138.73 61.55C137.95 61.63 137.01 61.45 136.17 61.06ZM98.16 60.92C98.07 60.69 98.37 59.45 98.82 58.17C99.54 56.14 99.58 55.78 99.16 55.46C98.52 54.98 98.53 54.46 99.19 54.2C100.17 53.83 100.97 54 101.64 54.72C102.22 55.34 102.34 55.36 102.52 54.91C102.83 54.09 103.64 53.95 104.65 54.54C105.5 55.04 105.63 55.04 106.43 54.51C107.43 53.86 108.54 54.07 108.83 54.98C108.93 55.31 108.71 56.39 108.32 57.36C107.94 58.34 107.7 59.43 107.8 59.8C108.01 60.62 107.46 61.33 106.62 61.33C105.66 61.33 105.59 60.69 106.33 58.67C107.12 56.52 107.18 55.67 106.54 55.67C105.98 55.67 105.17 56.84 103.92 59.42C102.37 62.64 101.28 61.54 102.62 58.1C103.26 56.45 103.24 55.66 102.56 55.68C102.12 55.69 100.33 58.36 100.33 58.99C100.33 59.54 99.03 61.33 98.63 61.33C98.46 61.33 98.24 61.15 98.16 60.92ZM46.92 27.44C45.97 27.19 46.25 26.41 47.49 25.81C48.13 25.51 49.19 24.51 49.85 23.6L51.05 21.93L50.13 20.62C49.15 19.2 47.17 17.33 46.66 17.33C46.09 17.33 46.31 16.38 46.92 16.21C47.86 15.93 50.82 16.01 51.32 16.33C51.72 16.57 51.72 16.7 51.33 17.17C50.94 17.64 50.96 17.88 51.49 18.86C51.83 19.49 52.22 20 52.36 20C52.98 20 54.02 18.01 53.82 17.22C53.64 16.51 53.75 16.37 54.64 16.17C55.59 15.96 57.67 16.21 57.67 16.53C57.67 16.6 56.77 17.57 55.67 18.67C54.54 19.79 53.67 20.96 53.67 21.34C53.67 22.66 56.25 25.88 57.74 26.43C58.08 26.55 58.08 26.67 57.75 27.02C57.36 27.44 54.28 27.72 53.42 27.41C52.92 27.23 52.86 26.12 53.34 25.83C53.76 25.57 52.47 23.67 51.87 23.67C51.07 23.67 49.92 25.23 50.16 25.99C50.59 27.35 49.11 28.01 46.92 27.44Z" fill="#1e2749" fill-rule="evenodd"/>
</svg>
