<?xml version="1.0" encoding="UTF-8"?>
<svg xmlns="http://www.w3.org/2000/svg" viewBox="0 0 2430 1069" width="2430" height="1069" shape-rendering="geometricPrecision">
<path d="M472.38 1027.35C447.75 1014.55 365.11 971.02 346.5 961.04C335.5 955.14 314.8 944.11 300.5 936.53C286.2 928.95 268.88 919.7 262 915.98C255.12 912.25 241.85 905.17 232.5 900.24C223.15 895.31 188.8 877.02 156.16 859.61C123.52 842.19 85.59 822.04 71.87 814.83C58.15 807.62 46.11 800.68 45.1 799.4C43.7 797.62 43.11 794.45 42.57 785.67C41.66 770.75 41.67 300.98 42.59 286.04C43.21 276.06 43.58 274.34 45.46 272.65C46.66 271.59 55.93 266.25 66.07 260.79C76.2 255.33 93.95 245.78 105.5 239.56C117.05 233.35 128.97 226.93 132 225.29C135.03 223.66 142 219.93 147.5 217.01C153 214.1 173.47 203.14 193 192.68C212.53 182.21 230.97 172.32 234 170.71C237.03 169.09 255.7 159.11 275.5 148.51C389.85 87.34 480.24 40 482.68 40C485.03 40 564.86 81.75 693 149.99C709.23 158.64 727.45 168.31 733.5 171.49C739.55 174.67 746.3 178.28 748.5 179.53C750.7 180.77 760.6 186.05 770.5 191.26C780.4 196.48 799.3 206.49 812.5 213.52C825.7 220.55 854.23 235.66 875.9 247.09L915.29 267.88L922.4 264.31C926.3 262.35 939.85 255.24 952.5 248.51C965.15 241.78 980.9 233.45 987.5 230C994.1 226.55 1009.62 218.32 1022 211.72C1034.38 205.11 1048.33 197.69 1053 195.22C1084.18 178.73 1113.35 163.22 1131 153.75C1157.42 139.58 1163.64 136.27 1186 124.51C1196.17 119.16 1210.58 111.51 1218 107.52C1225.42 103.52 1245.45 92.93 1262.5 83.98C1279.55 75.03 1299.12 64.68 1306 60.98C1323.98 51.3 1346.75 40 1348.29 40C1350.29 40 1405.4 68.78 1521.5 130.47C1525.9 132.81 1534.45 137.32 1540.5 140.5C1546.55 143.68 1556.22 148.86 1562 152.01C1567.78 155.16 1580.6 162.02 1590.5 167.24C1600.4 172.46 1613.9 179.65 1620.5 183.2C1627.1 186.76 1637 192.06 1642.5 194.98C1682.9 216.45 1769.24 262.99 1778.5 268.28C1791.06 275.45 1792.55 278.36 1786.75 284.44C1780.8 290.68 1790.76 295.11 1686.5 239.8C1667.8 229.88 1646.88 218.72 1640 215C1633.12 211.27 1613.33 200.7 1596 191.49C1578.67 182.28 1547.62 165.74 1527 154.73C1506.38 143.72 1482.75 131.13 1474.5 126.75C1466.25 122.37 1456.8 117.32 1453.5 115.51C1450.2 113.71 1443.9 110.32 1439.5 107.99C1435.1 105.66 1413.03 93.91 1390.45 81.88C1367.88 69.85 1348.8 60 1348.06 60C1347.31 60 1342.83 62.08 1338.1 64.62C1315.97 76.52 1297 86.65 1253.5 109.79C1164.74 157 1070.49 207.21 1056 215.01C1042.68 222.17 976.52 257.42 950.5 271.22C944.45 274.43 936.24 278.72 932.25 280.75L925 284.44L924.91 520.97C924.86 651.06 924.52 766.46 924.14 777.41L923.45 797.32L920.67 799.41C916.85 802.27 888.32 817.76 798 866C782.33 874.37 766.7 882.74 763.29 884.61C759.87 886.47 749.75 891.88 740.79 896.62C731.83 901.36 717.98 908.74 710 913.01C702.02 917.27 677.05 930.54 654.5 942.49C631.95 954.44 603.6 969.5 591.5 975.97C569.57 987.68 525.64 1010.87 497.88 1025.37L483.27 1033.01L472.38 1027.35ZM522.42 991.6C543.36 980.39 578.05 961.89 599.5 950.5C620.95 939.11 644.12 926.74 651 923.02C657.88 919.3 671.38 912.08 681 906.97C706.06 893.69 709.84 891.67 726 882.99C733.98 878.71 775.83 856.42 819 833.47C862.17 810.51 899.41 790.65 901.75 789.32L906 786.92L906.01 716.21C906.01 677.32 906.31 564.46 906.66 465.42L907.31 285.34L896.91 279.79C891.18 276.74 862.2 261.3 832.5 245.48C802.8 229.66 768.38 211.31 756 204.71C724.33 187.82 694.61 172 657.5 152.28C639.9 142.93 622.58 133.69 619 131.76C615.42 129.82 588.2 115.31 558.5 99.5C528.8 83.7 499.92 68.32 494.33 65.33L484.15 59.9L473.83 65.09C463.18 70.43 435.45 85.03 379 115.02C361.12 124.52 338.85 136.34 329.5 141.29C320.15 146.24 279.2 168.06 238.5 189.78C197.8 211.51 149.88 237.07 132 246.58C114.12 256.1 90.72 268.56 80 274.28L60.5 284.67L60.31 535.12C60.2 672.87 60.43 786.07 60.81 786.68C61.19 787.29 105.15 811.05 158.5 839.48C211.85 867.9 261.57 894.45 269 898.47C276.43 902.49 290.15 909.82 299.5 914.76C308.85 919.7 321.9 926.65 328.5 930.21C335.1 933.77 345 939.07 350.5 941.99C356 944.91 370.4 952.57 382.5 959.01C394.6 965.45 409 973.1 414.5 976C424.1 981.08 439.03 989.08 468 1004.68C475.43 1008.68 482.14 1011.96 482.92 1011.97C483.7 1011.99 501.47 1002.82 522.42 991.6ZM474.4 948.3C472.44 946.18 471.97 944.74 472.2 941.57C472.5 937.6 472.65 937.46 481.96 932.2C487.16 929.27 511.91 915.93 536.96 902.57C589.41 874.59 587.59 875.55 645 845.53C739.23 796.26 748.97 791.22 810.2 760.12C847.27 741.29 849.84 740.44 853.93 745.63C859.69 752.96 856.93 755.08 805.5 782.75C791.2 790.45 768.02 802.7 754 809.98C739.98 817.27 724 825.59 718.5 828.48C607.02 887.05 501.36 941.82 488.42 947.75C479.81 951.7 477.63 951.79 474.4 948.3ZM126.73 748.46L123 745.93L123 536L123 326.07L126.73 323.54C128.78 322.14 130.97 321 131.58 321C132.2 321 134.57 322.35 136.85 324.01L141 327.01L141 536L141 744.99L136.85 747.99C134.57 749.65 132.2 751 131.58 751C130.97 751 128.78 749.86 126.73 748.46ZM1861.62 378.87C1853.04 377.76 1842.54 374.16 1835.24 369.82C1826.6 364.69 1816.2 353.61 1811.24 344.25C1804.5 331.55 1802.69 323.29 1802.73 305.5C1802.75 292.19 1803.06 289.49 1805.44 281.54C1806.91 276.61 1809.7 269.56 1811.64 265.87C1818.59 252.63 1832.54 240.29 1847.66 234C1862.41 227.86 1883.04 228.07 1901.84 234.55C1911.53 237.89 1912.32 238.02 1914.57 236.54C1915.89 235.68 1917.71 233.85 1918.6 232.49C1920.41 229.73 1923.48 229.19 1924.35 231.48C1926.65 237.48 1928.47 276.01 1926.5 277C1925.95 277.27 1923.05 272.81 1920.05 267.09C1911.27 250.32 1901.11 241.78 1885.88 238.34C1870.92 234.95 1853.46 240.25 1843.58 251.18C1827.61 268.82 1822.03 301.99 1830.11 331.16C1835.71 351.35 1847.93 363.55 1866.52 367.49C1879.04 370.14 1892.16 368.98 1901.13 364.44C1903.72 363.12 1910.58 357.54 1916.38 352.02C1926.35 342.54 1930 340.23 1930 343.39C1930 345.71 1921.74 356.13 1914.68 362.71C1901.27 375.21 1880.99 381.39 1861.62 378.87ZM2009 378.93C1999.75 377.91 1994.62 376.39 1985.5 371.98C1971.13 365.03 1962.1 355.69 1954.82 340.28C1948.81 327.56 1946.83 318.65 1946.76 304C1946.69 288.92 1948.35 281.28 1954.51 268.5C1964.38 248.01 1982.74 233.87 2004.18 230.26C2016.98 228.1 2032.75 229.59 2043.21 233.94C2063.01 242.19 2079.52 261.73 2085 283.41C2089.32 300.5 2086.68 325.44 2079.05 339.75C2072.67 351.71 2057.09 366.9 2044.87 373.07C2035.01 378.04 2021.33 380.28 2009 378.93ZM2154 376.66C2133.57 370.56 2117.2 355.32 2109.25 335C2100.21 311.88 2102.18 282.57 2114.13 262.26C2119.51 253.13 2131.15 242.14 2140.64 237.23C2152.3 231.19 2159.17 229.61 2173.5 229.66C2186.96 229.71 2196.06 231.48 2204.26 235.63C2239.04 253.22 2254.2 299.86 2237.24 337.09C2231.4 349.93 2215.83 366.08 2203.15 372.44C2189.59 379.26 2168.72 381.05 2154 376.66ZM2258.75 375.31C2254.83 374.68 2255.35 373.2 2259.75 372.45C2271.9 370.38 2273.45 368.93 2274.97 358.22C2275.5 354.45 2276.07 328.89 2276.22 301.43C2276.51 249.91 2276.08 242.97 2272.41 239.93C2271.64 239.28 2267.99 238.12 2264.31 237.35C2256.81 235.78 2255.91 235.3 2258.03 233.96C2259.69 232.91 2309.84 232.86 2314.5 233.91C2317.44 234.57 2317.46 234.61 2315.32 235.79C2314.11 236.46 2312.31 237 2311.32 237.01C2310.32 237.01 2307.78 237.49 2305.67 238.07C2299.3 239.84 2298.8 242.23 2298.64 271.98L2298.5 297.5L2329.88 297.76C2349.83 297.93 2361.7 297.66 2362.47 297.02C2363.35 296.29 2363.72 289.08 2363.82 270.4L2363.97 244.77L2361.03 242.03C2357.77 238.98 2354.38 237.46 2348.75 236.53C2344.54 235.83 2343.87 234.54 2347.25 233.63C2350.51 232.76 2402.14 233 2404.43 233.9C2406.99 234.9 2405.58 235.65 2399.5 236.53C2393.61 237.39 2391.46 238.35 2387.75 241.81L2385 244.37L2385.05 296.94C2385.11 353.17 2385.64 363.84 2388.52 367.02C2389.5 368.11 2392.82 369.72 2395.9 370.61C2405.72 373.46 2405.95 373.6 2402.53 374.95C2399.13 376.29 2346.72 376.05 2345.36 374.7C2344.25 373.58 2346.57 372.32 2351.06 371.61C2356.26 370.78 2360.72 366.76 2362.08 361.69C2363.4 356.82 2364.34 310.09 2363.16 308.24C2362.54 307.25 2355.31 307.03 2330.43 307.24L2298.5 307.5L2298.65 334.18C2298.75 351.66 2299.2 362.09 2299.98 364.44C2301.25 368.28 2304.12 370.29 2310 371.45C2316.58 372.76 2317.3 373.1 2316.05 374.35C2314.91 375.49 2265.02 376.33 2258.75 375.31ZM2024.57 369.91C2041.71 366.77 2055.17 352.25 2059.69 332C2061.72 322.93 2062.08 287.86 2060.24 278.77C2056.85 262.03 2047.02 248.08 2034.16 241.76C2027.82 238.65 2027 238.5 2016.01 238.52C2005.46 238.54 2003.97 238.78 1998.2 241.43C1990.43 244.99 1984.62 251.19 1979.69 261.2C1974.78 271.14 1973.1 279 1972.35 295.5C1971.23 320.23 1974.92 339.66 1983.03 351.8C1993.4 367.34 2006.78 373.17 2024.57 369.91ZM2188.5 367.94C2196.58 364.91 2207.38 354.25 2211.76 345C2225.37 316.23 2220.97 268.45 2203.03 250.03C2200.48 247.41 2195.42 243.86 2191.51 241.93C2184.74 238.6 2184.19 238.5 2172.52 238.5C2160.73 238.5 2160.38 238.56 2154.18 241.93C2150.7 243.81 2146.15 247.3 2144.05 249.68C2138.64 255.83 2133.12 266.87 2131.52 274.75C2127.89 292.64 2128.87 324.5 2133.45 337.89C2139.27 354.92 2149.42 365.86 2162.93 369.7C2169.32 371.51 2181.16 370.7 2188.5 367.94ZM833 331.6C825.18 328.19 797.02 314.06 764.5 297.2C741.63 285.36 623.38 223.34 613.5 218.02C609.65 215.94 599.75 210.75 591.5 206.48C583.25 202.2 571.77 196.14 566 192.99C560.23 189.85 549.2 183.98 541.5 179.95C519.21 168.29 487.03 150.16 480.59 145.65C477.34 143.37 473.76 140.26 472.64 138.75L470.61 136L472.64 133.25C473.76 131.74 475.85 129.92 477.29 129.22C479.71 128.03 481.22 128.6 498.2 137.08C508.26 142.11 524.83 150.61 535 155.98C545.17 161.34 564.98 171.7 579 179C593.02 186.3 609.45 194.85 615.5 198.02C676.37 229.82 691.88 237.93 700.5 242.48C706 245.38 731.88 259.01 758 272.76C836.18 313.93 838.34 315.07 842.69 317.8C846.7 320.32 849 323.49 849 326.51C849 328.33 843.16 335.02 841.65 334.93C841.02 334.9 837.12 333.4 833 331.6Z" fill="#1e2749" fill-rule="evenodd"/>
</svg>
