<?xml version="1.0" encoding="UTF-8"?>
<svg xmlns="http://www.w3.org/2000/svg" viewBox="0 0 385 541" width="385" height="541" shape-rendering="geometricPrecision">
<path d="M177.67 540.33C172.09 540.12 170.29 539.93 163.5 538.84C156.41 537.69 153.78 537.21 153 536.93C152.54 536.76 151.57 536.49 150.83 536.34C147.47 535.65 141.47 533.92 137.67 532.55C128.98 529.41 127.77 528.93 124.18 527.19C122.16 526.21 119.75 525.07 118.83 524.67C117.45 524.05 114.11 522.26 111.71 520.83C100.24 514.02 92.3 507.99 81.85 498.17C81.06 497.43 78.94 495.18 77.13 493.17C75.32 491.15 73.27 488.9 72.57 488.17C71.87 487.43 70.14 485.27 68.73 483.37C67.32 481.46 65.46 479.01 64.6 477.91C63.73 476.82 62.11 474.4 61 472.54C58.17 467.84 58.27 468.01 57.21 466.39C54.96 462.96 49.54 451.39 47.19 445C46.14 442.16 45.08 439.31 44.83 438.67C44.33 437.36 43.6 434.74 41.83 427.83C40.52 422.68 40.46 422.41 39.31 415.33C37.56 404.51 37.02 394.57 37.63 383.92C37.86 380.02 38.25 375.63 38.51 374.17C38.77 372.7 39.29 369.55 39.67 367.17C40.33 362.92 41.01 359.66 41.84 356.67C42.07 355.84 42.51 354.19 42.82 353C44.03 348.41 44.4 347.13 44.82 346C45.07 345.36 45.73 343.62 46.3 342.14C46.87 340.66 47.33 339.32 47.33 339.18C47.33 338.45 50.09 332.15 52.81 326.67C60.13 311.89 69.77 298.42 80.85 287.5C88.78 279.67 99.89 270.9 107.37 266.55C110.07 264.98 110.07 264.97 109.15 261.33C108.71 259.59 108.13 257.34 107.86 256.33C107.34 254.41 105.65 247.92 104.77 244.5C104.49 243.4 104.04 241.67 103.76 240.67C103.1 238.21 102.5 235.91 101.89 233.5C100.85 229.4 99.44 223.99 98.83 221.83C98.58 220.92 98.06 218.97 97.69 217.5C97.32 216.03 96.7 213.63 96.32 212.17C95.93 210.7 95.49 208.97 95.34 208.33C95.19 207.69 94.74 205.97 94.34 204.5C93.94 203.03 93.49 201.31 93.34 200.67C93.19 200.03 92.74 198.3 92.34 196.83C91.94 195.37 91.49 193.64 91.34 193C91.19 192.36 90.74 190.63 90.34 189.17C89.94 187.7 89.49 185.97 89.34 185.33C89.19 184.69 88.74 182.97 88.34 181.5C87.94 180.03 87.49 178.31 87.34 177.67C87.19 177.03 86.75 175.3 86.35 173.83C85.64 171.19 85.2 169.51 82.17 157.83C81.32 154.53 80.39 151.01 80.12 150C79.85 148.99 79.49 147.53 79.33 146.75C79.16 145.96 78.86 145.04 78.68 144.68C78.49 144.33 78.33 143.66 78.33 143.2C78.33 142.73 78.13 141.78 77.88 141.09C77.42 139.83 76.8 137.51 76.33 135.33C76.2 134.69 75.75 132.97 75.34 131.5C73.77 125.84 73.58 125.13 73.33 124C73.19 123.36 72.77 121.71 72.4 120.33C72.03 118.96 71.41 116.56 71.03 115C70.64 113.44 70.12 111.42 69.86 110.5C69.6 109.58 69.15 107.93 68.86 106.83C68.57 105.73 67.95 103.41 67.47 101.67C67 99.92 66.5 97.61 66.37 96.52C66.24 95.43 65.95 94.48 65.73 94.41C65.51 94.34 65.33 93.93 65.33 93.49C65.33 93.06 65.17 92.29 64.98 91.77C64.78 91.26 64.49 90.23 64.34 89.5C64.19 88.77 63.74 86.97 63.34 85.5C62.57 82.67 61.25 77.63 59.62 71.33C59.08 69.22 58.41 66.67 58.13 65.67C57.86 64.66 57.49 63.19 57.33 62.41C57.16 61.63 56.86 60.7 56.68 60.35C56.49 60 56.33 58.99 56.34 58.11C56.34 56.6 56.48 56.35 58.46 54.16C61.61 50.69 67.05 47.18 74.5 43.82C77.59 42.43 78.68 42 79.09 42C79.35 42 79.66 41.9 79.78 41.77C79.91 41.65 80.5 41.37 81.09 41.15C83.98 40.11 88.4 38.54 90.5 37.83C91.78 37.39 93.43 36.81 94.17 36.53C98.43 34.93 102.39 33.56 103.91 33.15C104.87 32.89 106.52 32.4 107.57 32.05C108.63 31.7 110.4 31.16 111.5 30.84C113.99 30.12 116.43 29.38 118.17 28.81C118.9 28.58 120.47 28.14 121.67 27.84C122.86 27.55 124.58 27.09 125.5 26.83C127.73 26.21 133.8 24.69 135.65 24.31C136.46 24.14 137.59 23.86 138.15 23.68C138.71 23.51 140.37 23.14 141.83 22.86C143.3 22.58 146.52 21.95 149 21.47C154.59 20.36 158.25 19.78 162.33 19.34C164.07 19.15 166.32 18.85 167.33 18.68C171.51 17.95 183.14 17.33 192.74 17.32C202.81 17.32 211.3 17.83 217.83 18.83C219.48 19.08 222.48 19.53 224.5 19.83C228.39 20.39 229.75 20.66 237.17 22.33C241.95 23.41 244.49 24.07 246.83 24.83C247.57 25.07 248.99 25.51 250 25.8C256.48 27.7 272.29 33.48 274.72 34.84C275.2 35.11 275.83 35.33 276.12 35.33C276.4 35.33 277.87 35.92 279.4 36.63C280.92 37.34 283.22 38.37 284.5 38.91C288.39 40.56 305.61 48.78 307.24 49.77C307.38 49.86 310.35 51.38 313.83 53.15C319.24 55.91 320.32 56.35 321.26 56.17C322.86 55.87 323.58 56.22 324 57.49C324.32 58.46 324.23 59.03 323.39 61.56C322.85 63.18 322.15 65.47 321.83 66.67C321.51 67.86 321.04 69.58 320.78 70.5C320.52 71.42 320.09 72.95 319.82 73.92C319.55 74.88 319.11 76.45 318.85 77.42C318.58 78.38 318.13 79.99 317.84 81C316.85 84.5 316.38 86.18 315.84 88.17C315.22 90.45 314.44 93.16 313.79 95.31C313.54 96.12 313.33 97.17 313.32 97.64C313.32 98.11 313.09 98.79 312.82 99.15C312.55 99.5 312.33 100.3 312.33 100.92C312.33 101.54 312.17 102.35 311.97 102.72C311.77 103.09 311.1 105.22 310.48 107.45C309.29 111.7 308.63 114.06 307.84 116.83C307.58 117.75 307.13 119.4 306.84 120.5C306.55 121.6 306.11 123.17 305.86 124C305.27 125.97 304.44 128.89 303.82 131.16C302.53 135.9 302.24 136.94 301.84 138.33C301.25 140.35 300.58 142.76 299.34 147.33C298.76 149.44 298.08 151.92 297.81 152.83C295.89 159.53 295.38 161.35 295.03 162.67C294.61 164.29 293.5 168.13 292.92 170C292.72 170.64 292.45 171.69 292.31 172.33C292.18 172.97 291.68 174.85 291.21 176.5C290.73 178.15 290.09 180.4 289.79 181.5C289.12 183.91 288.46 186.26 287.81 188.5C287.55 189.42 286.88 191.82 286.33 193.83C285.79 195.85 285.11 198.25 284.84 199.17C284.21 201.29 283.57 203.59 282.83 206.33C282.51 207.53 282.06 209.17 281.83 210C281.6 210.82 281.15 212.47 280.83 213.67C280.51 214.86 279.81 217.33 279.28 219.17C278.28 222.61 277.82 224.28 276.83 228C276.52 229.19 276.11 230.57 275.93 231.06C275.76 231.54 275.48 232.44 275.32 233.06C275.16 233.67 274.8 235.03 274.51 236.08C274.22 237.14 273.78 238.79 273.52 239.75C273.26 240.71 272.73 242.62 272.33 244C271.93 245.38 271.39 247.32 271.13 248.33C270.87 249.34 270.37 251.14 270.02 252.33C269.66 253.53 269.13 255.4 268.84 256.5C268.32 258.43 268.12 259.14 266.67 264.12C265.81 267.05 265.83 267.85 266.75 268.49C270.82 271.29 280.82 279.03 283.31 281.3C285.04 282.88 287.4 285.03 288.55 286.09C290.71 288.06 292.62 290.07 297 295C298.38 296.55 299.95 298.32 300.51 298.94L301.52 300.06L311.18 300.69C318.11 301.14 324.87 301.32 335.18 301.32C351.27 301.33 350.77 301.41 351.09 299C351.42 296.54 353.38 293.01 355.69 290.69C359.4 286.98 364.43 285.32 369.87 286C374.42 286.58 376.69 287.71 379.92 291.02C382.4 293.57 383.83 296.29 384.55 299.82C385.83 306.11 383.36 312.22 377.79 316.55C372.59 320.58 366.2 321.21 360.11 318.26C357.86 317.17 354.58 314.26 353.27 312.17C352.43 310.82 351 307.06 351 306.19C351 305.93 350.74 305.64 350.42 305.56C350.1 305.48 342.48 305.4 333.5 305.39C318.62 305.36 308.93 305.04 306.08 304.47C304.57 304.16 304.68 304.62 306.79 307.44C308.98 310.36 314.68 319.75 316.75 323.83C319.79 329.84 322.29 335.21 322.96 337.17C323.33 338.27 323.96 339.99 324.35 341C324.74 342.01 325.2 343.36 325.39 344C325.58 344.64 325.86 345.31 326.03 345.48C326.2 345.66 326.33 346.01 326.33 346.27C326.33 346.52 326.54 347.21 326.79 347.78C327.03 348.36 327.5 350.03 327.82 351.5C328.15 352.97 328.6 354.84 328.84 355.67C329.97 359.62 330.33 361.03 330.79 363.5C331.06 364.97 331.38 367.07 331.49 368.17C331.6 369.27 331.83 370.69 331.99 371.33C332.16 371.97 332.56 374.38 332.89 376.67C333.38 380.05 333.49 382.97 333.49 392.17C333.48 403.68 333.19 407.47 331.81 414.62C331.55 415.97 331.33 417.59 331.33 418.22C331.33 419.34 330.82 421.87 329.77 425.83C329.48 426.93 329.05 428.58 328.81 429.5C328.57 430.42 328.12 432.14 327.81 433.33C327.32 435.24 325.13 441.66 323.85 445C322.19 449.29 320.27 453.62 316.89 460.67C315.78 462.98 308.72 474.67 307.55 476.14C306.97 476.86 306.27 477.8 306 478.22C304.33 480.76 298.59 487.85 294.92 491.9C290.41 496.88 282.06 504.81 278.29 507.69C271.88 512.6 268.57 515.04 267.22 515.86C266.33 516.39 265.25 517.06 264.82 517.33C261.4 519.51 255.61 522.88 253.45 523.95C247.72 526.78 242.4 529.26 241.64 529.48C241.2 529.61 240.53 529.83 240.17 529.99C239.08 530.44 231.29 533.26 229.67 533.79C227.99 534.33 221.88 535.92 219.83 536.34C219.1 536.49 218.1 536.77 217.62 536.95C217.13 537.14 215.26 537.52 213.45 537.81C208.63 538.56 204.07 539.33 202.1 539.71C200.5 540.02 186.78 540.71 184.5 540.59C183.95 540.56 180.88 540.45 177.67 540.33ZM182.96 535.88C183.24 535.55 183.31 528.63 183.25 510.46L183.17 485.5L179 485.31C173.14 485.04 170.19 484.56 161.67 482.49C158.94 481.82 156.72 481.14 154.67 480.34C153.66 479.94 152.46 479.49 152 479.34C145.84 477.28 136.6 472.16 129.71 466.99C120.22 459.87 113.07 452.06 106.19 441.27C102.16 434.95 97.3 423.8 95.82 417.5C95.52 416.22 95.07 414.42 94.82 413.5C94.04 410.64 92.84 402.58 92.48 397.75C92.27 394.96 92.18 394.64 91.54 394.51C91.15 394.42 79.81 394.39 66.33 394.43L41.83 394.5L41.72 396.17C41.57 398.3 42.22 406.65 42.83 410.33C43.09 411.89 43.54 414.82 43.83 416.83C44.54 421.71 44.49 421.46 45.32 424.5C46.08 427.31 46.9 430.6 47.2 432C47.55 433.66 48.77 437.51 49.05 437.82C49.21 437.99 49.33 438.34 49.33 438.6C49.33 438.86 49.54 439.54 49.79 440.12C50.05 440.69 50.82 442.74 51.51 444.67C55.2 454.98 62.91 468.71 70.89 479.21C74.57 484.05 85.04 496 85.61 496C85.73 496.01 87.63 497.68 89.83 499.72C92.03 501.76 96.38 505.33 99.5 507.67C104.42 511.34 106.1 512.5 108.95 514.17C109.26 514.35 110.52 515.14 111.75 515.92C112.98 516.7 114.06 517.33 114.14 517.33C114.23 517.33 114.86 517.71 115.54 518.17C116.22 518.64 117.92 519.55 119.31 520.2C120.7 520.85 122.21 521.59 122.68 521.84C125.01 523.08 132.5 526.33 133.03 526.33C133.36 526.33 133.71 526.47 133.81 526.63C133.91 526.8 135.16 527.31 136.58 527.78C138 528.25 139.99 528.95 141 529.35C142.01 529.75 143.43 530.19 144.17 530.34C144.9 530.49 147.82 531.2 150.67 531.94C153.51 532.67 157.18 533.5 158.83 533.78C164.73 534.8 168.21 535.33 171.17 535.66C172.82 535.85 174.62 536.06 175.17 536.12C178.07 536.45 182.6 536.31 182.96 535.88ZM200.17 535.66C201.63 535.45 203.97 535.06 205.37 534.8C206.76 534.54 208.29 534.33 208.76 534.33C210.02 534.33 215.52 533.19 220.83 531.81C223.4 531.15 226.03 530.48 226.67 530.33C227.31 530.18 229.26 529.54 231 528.9C232.74 528.26 235.29 527.33 236.67 526.84C238.04 526.34 239.47 525.83 239.83 525.7C240.54 525.44 244.47 523.58 250.5 520.65C260.11 515.99 273.22 506.88 282.29 498.56C295.39 486.56 307.54 470.41 314.58 455.67C318.32 447.82 318.02 448.54 320.32 442.33C321.5 439.16 322.24 437.23 322.75 436C322.94 435.54 323.22 434.64 323.37 434C323.52 433.36 323.86 431.93 324.12 430.83C324.38 429.73 324.93 427.63 325.33 426.17C326.35 422.5 326.95 419.62 327.32 416.67C327.49 415.29 327.98 412.07 328.39 409.5C329.08 405.24 329.15 403.74 329.15 392.33C329.15 380.81 329.09 379.47 328.37 375.17C327.94 372.6 327.46 369.45 327.31 368.17C327.05 366.14 326.74 364.6 325.35 358.67C324.94 356.94 324.04 353.35 323.62 351.83C322.85 349.06 320.06 341.16 319 338.75C318.63 337.93 318.33 337.12 318.33 336.96C318.33 336.12 311.47 322.81 308.57 318.03C305.57 313.08 300.7 306.07 299.24 304.62C298.87 304.25 297.59 303.96 295.27 303.7C287.24 302.83 279.02 301.65 276 300.95C275.17 300.76 273.67 300.47 272.67 300.32C271.66 300.16 270.5 299.93 270.08 299.81C268.7 299.4 269.31 300.21 272.08 302.43C275.31 305.02 277.1 306.69 279.83 309.68C282.54 312.62 286.48 318.16 287.86 320.95L288.98 323.25L291.08 323.48C296.47 324.09 299.47 325.45 302.78 328.81C304.22 330.26 305.16 331.63 306.12 333.67C307.44 336.47 307.46 336.54 307.44 340.33C307.42 346.04 306.26 348.79 302.13 352.86C300.64 354.32 299.17 355.37 297.4 356.22C294.87 357.44 294.77 357.46 290.67 357.48C286.26 357.5 284.95 357.2 281.83 355.43C279.33 354.02 276.06 350.51 275.04 348.17C272.69 342.78 272.82 337.18 275.41 332.26C276.71 329.79 279.84 326.68 282.18 325.54C283.2 325.04 284.12 324.4 284.23 324.12C284.52 323.37 283.3 321.16 280.37 317.11C276.94 312.38 270.63 306.26 265.97 303.16C261.43 300.14 261.42 300.14 259.71 299.34C257.52 298.33 257.09 298.43 256.66 300.08C256.46 300.86 256.1 302.17 255.85 303C255.39 304.56 254.72 306.96 253.83 310.25C253.54 311.31 253.11 312.84 252.86 313.67C252.61 314.49 252.15 316.14 251.83 317.33C251.51 318.52 251.06 320.17 250.82 321C249.73 324.74 249.54 324.23 253.74 328.92C258.38 334.12 264.65 342.27 264.66 343.12C264.66 343.28 265.26 344.3 265.98 345.39C267.53 347.71 270.7 354.18 271.92 357.5C272.39 358.78 272.88 359.98 273 360.17C273.27 360.55 274.95 366.02 275.93 369.67C278.15 377.99 279.06 387.97 278.47 397.5C278.02 404.67 277.56 408.04 276.43 412.5C275.97 414.33 275.47 416.43 275.32 417.17C275.17 417.9 274.37 420.38 273.56 422.67C271.71 427.85 271.7 427.87 270.03 431.4C269.28 433 268.52 434.65 268.35 435.07C267.57 436.98 262.22 445.33 259.5 448.87C252.94 457.43 242.23 467 233.06 472.48C229.21 474.78 222.36 478.17 219.67 479.11C213.08 481.4 211.05 482.03 207.83 482.8C205.82 483.28 203.87 483.76 203.5 483.85C201.62 484.35 195.7 485.09 192.11 485.28C189.88 485.4 187.96 485.59 187.85 485.7C187.71 485.85 187.56 525.19 187.66 535.97C187.67 536.36 188.49 536.4 192.58 536.24C195.29 536.13 198.7 535.87 200.17 535.66ZM85.88 483.72C85.39 483.18 85.33 481.66 85.33 468.88L85.33 454.65L86.25 454.29C87.48 453.81 98.22 454.09 98.75 454.62C98.96 454.83 99.53 455 100.02 455C101.94 455 107.33 460.15 107.34 462C107.34 462.27 107.58 462.95 107.88 463.5C108.27 464.24 108.43 465.5 108.46 468.33C108.5 472.44 108.13 474.35 106.75 477.14C105.88 478.88 102.65 482.2 101.52 482.52C101.14 482.63 100.38 482.91 99.83 483.16C98.1 483.93 94.93 484.33 90.61 484.33C86.99 484.33 86.36 484.25 85.88 483.72ZM194.33 480.99C195.53 480.81 197.7 480.5 199.17 480.31C200.63 480.12 202.36 479.83 203 479.67C203.64 479.5 205.44 479.05 207 478.66C209.69 477.99 214.04 476.65 217.33 475.49C220.12 474.51 226.81 471.2 230.83 468.83C235.32 466.17 241.48 461.62 245.54 457.95C252.74 451.45 261.16 440.32 264.94 432.33C267.2 427.57 268.33 425.01 268.33 424.71C268.33 424.55 268.76 423.31 269.28 421.96C270.48 418.83 271.05 417.13 271.36 415.67C271.5 415.02 271.92 413.34 272.3 411.92C272.67 410.49 273.13 408.17 273.3 406.75C273.48 405.32 273.79 403.42 274 402.51C274.59 399.88 274.48 384.75 273.85 381.5C273.57 380.03 273.33 378.38 273.33 377.83C273.32 376.45 270.34 364.64 269.69 363.41C269.52 363.09 269.05 361.86 268.64 360.67C267.86 358.36 263.52 349.3 262.26 347.31C261.84 346.66 261.06 345.39 260.53 344.48C258.23 340.6 249.89 330.32 248.83 330.07C248.34 329.95 247.62 332.11 245.82 339C245.51 340.19 245.13 341.54 244.96 342C244.8 342.46 244.38 343.93 244.03 345.28C243.67 346.65 243.06 348.08 242.64 348.53L241.88 349.33L187.54 349.33L133.2 349.33L132.27 348.44C131.67 347.86 131.33 347.2 131.33 346.58C131.33 346.05 131.18 345.33 130.99 344.98C130.8 344.63 130.52 343.7 130.36 342.92C130.21 342.14 129.52 339.4 128.84 336.83C128.17 334.27 127.3 330.93 126.92 329.42C126.38 327.28 126.09 326.67 125.64 326.67C124.77 326.67 117.71 334.33 113.83 339.5C109.55 345.2 104.69 354.09 102.7 359.83C101.56 363.14 101.18 364.14 100.84 364.67C100.67 364.94 100.43 365.84 100.31 366.67C100.18 367.49 99.71 369.44 99.26 371C97.78 376.08 96.64 385.21 96.63 392.17C96.62 400.35 97.78 408.99 99.84 416C100.08 416.82 100.39 418.06 100.51 418.75C100.64 419.44 100.88 420.09 101.04 420.19C101.2 420.29 101.33 420.6 101.33 420.89C101.33 421.17 101.55 421.87 101.8 422.45C102.06 423.03 102.58 424.35 102.95 425.38C104.09 428.55 107.16 434.76 109.36 438.39C116.15 449.55 125.6 459.38 136.63 466.75C137.66 467.43 138.71 468.1 138.97 468.22C139.23 468.35 140.43 469.1 141.64 469.89C142.85 470.68 143.94 471.33 144.08 471.33C144.21 471.33 146.01 472.14 148.08 473.13C150.14 474.12 152.36 475.08 153 475.27C153.64 475.46 154.99 475.94 156 476.34C159.54 477.74 167.12 479.65 172.03 480.37C173.39 480.57 175.25 480.84 176.17 480.98C178.65 481.36 191.84 481.37 194.33 480.99ZM97.76 480.47C99.9 479.75 102.21 477.6 103.28 475.36C104.11 473.62 104.17 473.2 104.16 468.83C104.15 463.5 103.81 462.44 101.26 459.96C99.17 457.94 98.1 457.61 93.5 457.55L89.5 457.5L89.41 468.6C89.35 475.87 89.44 479.92 89.67 480.35C89.98 480.92 90.39 481 93.12 481C95.06 481 96.79 480.8 97.76 480.47ZM210.17 473.66C209.62 473.51 208.12 473.14 206.83 472.84C205.55 472.54 203.67 472.09 202.67 471.83C201.66 471.58 198.73 470.88 196.17 470.29C193.6 469.7 191.35 469.08 191.17 468.91C190.63 468.42 191.95 467.72 199.31 464.56C203.08 462.95 207.12 461.18 208.29 460.63C209.45 460.08 210.65 459.68 210.95 459.74C211.31 459.81 211.57 460.38 211.75 461.5C212.17 464.08 212.1 464.03 213.9 463.37C217.86 461.92 223.15 458.63 227.37 454.99C230.51 452.28 231.1 452.03 232.29 452.91C233.53 453.84 233.58 454.87 232.44 456.07C231.05 457.54 226.79 461.04 224.5 462.59C222.07 464.23 216.05 467.33 215.28 467.33C214.97 467.33 214.22 467.6 213.61 467.92C213 468.24 212.46 468.51 212.42 468.52C212.38 468.53 212.46 469.54 212.61 470.76C212.99 473.9 212.63 474.33 210.17 473.66ZM184.44 419.13C182.72 418.28 182.22 417.49 182.07 415.37C181.94 413.6 182.01 413.33 182.88 412.37C183.64 411.52 184.3 411.21 186.17 410.82C187.45 410.55 188.89 410.33 189.36 410.33C191.46 410.33 191.8 408.07 189.94 406.5C188.73 405.49 187.31 405.43 185.01 406.3C183.56 406.85 183.3 406.87 182.95 406.44C182.44 405.83 182.88 405.01 184.03 404.42C184.96 403.94 189.92 403.86 191.08 404.3C191.51 404.46 192.27 405.18 192.76 405.9C193.66 407.19 193.67 407.25 193.67 412.87C193.67 418.69 193.53 419.33 192.31 419.33C192 419.33 191.54 419.01 191.28 418.62L190.8 417.91L189.15 418.79C187.28 419.79 185.97 419.88 184.44 419.13ZM199.33 418.94C198.33 418.42 197.8 417.92 197.73 417.42C197.6 416.51 198.05 416.47 200.5 417.18C202.09 417.64 202.41 417.64 203.48 417.2C204.73 416.67 205.41 415.53 205.12 414.43C204.96 413.81 204.51 413.53 201.25 411.97C199.04 410.92 198.35 410.06 198.12 408.1C197.94 406.58 198.01 406.34 198.93 405.3C199.92 404.2 200.02 404.16 202.89 404.05C205.53 403.95 205.91 404.01 206.46 404.62C207.35 405.6 206.94 406.48 205.75 406.16C205.24 406.03 204.01 405.9 203.01 405.88C201.3 405.84 201.15 405.9 200.71 406.81C200.3 407.66 200.3 407.91 200.71 408.64C201.18 409.48 201.52 409.7 204.33 410.97C206.77 412.06 207.38 412.71 207.57 414.39C207.8 416.37 207.05 417.79 205.3 418.68C203.17 419.77 201.11 419.86 199.33 418.94ZM214.81 418.89C211.79 417.45 210.83 415.38 211.07 410.83C211.32 405.93 213.21 404 217.75 404C220.71 404 222.12 404.74 223.14 406.82C223.89 408.34 224.03 411.1 223.4 411.73C223.1 412.03 221.49 412.22 218.23 412.33L213.5 412.5L213.6 413.45C213.66 413.98 214.06 414.97 214.49 415.66C215.56 417.34 217.09 417.74 220.21 417.13C223.31 416.53 223.4 416.54 223.27 417.42C223.13 418.43 221.15 419.32 218.56 419.53C216.84 419.68 216.22 419.57 214.81 418.89ZM148.23 419.08C148 418.69 147.97 400.4 148.2 399.49C148.4 398.68 148.46 398.67 151.98 398.67C158.2 398.67 160.34 400.03 160.61 404.15C160.88 408.49 158.36 410.92 153.17 411.32L150.83 411.5L150.74 414.98C150.68 416.9 150.48 418.66 150.28 418.9C149.89 419.37 148.47 419.49 148.23 419.08ZM165.15 418.91C165.06 418.68 165.03 413.7 165.08 407.83L165.17 397.17L165.94 397.06C167.45 396.84 167.68 397.44 167.55 401.37C167.49 403.36 167.51 405.06 167.59 405.15C167.68 405.23 168.32 405.01 169.03 404.65C170.84 403.73 173.56 403.77 175.02 404.75C176.83 405.97 177.33 407.91 177.33 413.71C177.33 418.96 177.17 419.5 175.6 419.28C174.84 419.17 174.83 419.1 174.67 413.61C174.52 408.63 174.43 407.95 173.8 407.11C172.89 405.88 171.21 405.71 169.38 406.64C168.65 407.02 167.95 407.48 167.83 407.67C167.71 407.86 167.61 410.3 167.6 413.09C167.59 415.88 167.44 418.43 167.28 418.75C166.93 419.42 165.39 419.54 165.15 418.91ZM188.82 416.97C190.58 416.14 190.84 415.85 191.12 414.37C191.43 412.77 190.92 412.33 188.76 412.33C186.63 412.33 184.81 413.09 184.55 414.07C184.23 415.29 184.71 416.67 185.63 417.17C186.8 417.8 187.09 417.78 188.82 416.97ZM250.09 417.15C249.87 416.73 249.85 415.31 250.03 413.17C250.18 411.33 250.31 407.57 250.32 404.8C250.33 402.03 250.43 398.84 250.55 397.72C250.78 395.44 251.05 395.28 253.2 396.06C254.91 396.67 255.34 396.09 255.32 393.21C255.31 391.9 255.16 390.16 254.99 389.33C254.81 388.51 254.53 386.6 254.35 385.09C253.93 381.32 251.6 373.83 249.64 369.88C247.43 365.45 247.49 364 249.88 364C251.23 364 251.92 364.84 253.83 368.83C257.39 376.28 258.97 383.16 259.21 392.33C259.38 398.62 259.37 398.55 261.09 399.05C262.24 399.39 263.19 399.83 264.28 400.54C264.38 400.6 262.98 402.35 254.84 412.33C253.12 414.44 251.43 416.53 251.07 416.98C250.45 417.76 250.41 417.77 250.09 417.15ZM221.1 409.92C221.58 409.57 221.61 409.3 221.31 408.23C220.87 406.65 219.39 405.67 217.44 405.67C215.64 405.67 213.67 407.36 213.67 408.9C213.67 409.44 213.77 409.99 213.89 410.11C214.3 410.52 220.51 410.36 221.1 409.92ZM154.19 409C155.08 409 155.63 408.7 156.67 407.67C157.83 406.5 158 406.14 158 404.82C158 401.96 156.39 400.67 152.85 400.67L150.67 400.67L150.67 404.68C150.67 408.53 150.7 408.7 151.42 408.99C151.83 409.16 152.37 409.23 152.61 409.15C152.85 409.07 153.57 409 154.19 409ZM121.8 404.42C121.14 403.97 119.93 400.72 119.08 397.17C118.3 393.9 118.02 390.89 117.8 383.67C117.64 378.27 117.72 376.03 118.15 373C118.65 369.47 118.65 369.14 118.15 368.83C115.18 367 114.5 366.43 114.5 365.79C114.5 364.94 128.97 350.67 129.84 350.67C130.5 350.67 130.44 351.83 129.53 357.17C128.58 362.69 127.66 368.48 127.45 370.25C127.16 372.68 126.71 372.96 124.66 371.99C123.75 371.57 122.92 371.3 122.82 371.4C122.05 372.17 121.66 384.91 122.25 390.11C122.67 393.9 122.74 394.2 124.21 399.45C125.05 402.45 125.09 402.81 124.64 403.62C124.14 404.51 122.58 404.96 121.8 404.42ZM91.75 389.91C92.12 389.61 92.4 388.05 92.8 383.94C94.01 371.66 96.97 361.01 101.92 351.1C106.76 341.43 112.21 333.85 120.03 325.95C125.2 320.72 124.98 321.21 123.84 317.5C123.4 316.09 122.67 313.36 121.81 309.92C121.52 308.77 121.09 307.08 120.86 306.17C120.62 305.25 120.17 303.52 119.86 302.33C119.55 301.14 119.08 299.47 118.82 298.62C118.55 297.77 118.33 296.85 118.33 296.58C118.33 296.3 118.1 295.27 117.81 294.29C117.01 291.53 116.41 289.31 116 287.67C115.8 286.84 115.41 285.34 115.13 284.33C114.44 281.82 114.13 280.6 113.37 277.5C112.81 275.17 112.48 273.97 111.47 270.42C111.22 269.56 110.63 269.47 109.57 270.13C95.87 278.64 82.34 290.69 73.08 302.62C71.57 304.57 69.55 307.17 68.58 308.4C66.42 311.18 59.43 322.57 57.69 326.17C53.6 334.62 52.33 337.32 52.33 337.56C52.33 337.71 51.51 340.01 50.5 342.67C48.73 347.35 47.99 349.64 46.88 353.83C45.47 359.21 44.58 363.02 44.31 364.83C44.15 365.93 43.81 368.18 43.55 369.83C42.64 375.6 42.35 377.86 42.01 382.17C41.55 387.93 41.57 389.91 42.08 390.09C42.31 390.18 53.47 390.26 66.87 390.28C85.58 390.3 91.35 390.22 91.75 389.91ZM178.13 383.74C176.76 382.54 176.39 380.99 176.28 376.07C176.19 371.92 176.07 371.51 174.83 371.28C174.41 371.21 174.13 370.85 174.07 370.31C173.99 369.63 174.18 369.37 175.07 368.98C176.06 368.55 176.18 368.35 176.27 366.9C176.38 365.11 176.89 364.69 178.19 365.28C178.87 365.59 179 365.89 179 367.15C179 368.8 179.77 369.56 181.04 369.16C181.95 368.86 183.33 369.24 183.33 369.79C183.33 370.59 182.19 371.29 180.67 371.39L179.17 371.5L179.07 375.5C178.96 379.78 179.37 381.98 180.3 382.03C180.59 382.04 181.36 382.08 181.99 382.11C183.4 382.18 183.69 382.97 182.69 383.98C181.65 385.02 179.46 384.9 178.13 383.74ZM191.33 384.38C189.5 384.05 188.07 383.1 187.1 381.57C186.33 380.37 186.18 379.72 186.06 377.08C185.93 374.28 186 373.84 186.79 372.23C187.97 369.81 189.43 369 192.65 369C195.39 369 196.57 369.48 197.81 371.1C198.99 372.65 199.32 375.54 198.44 376.62C197.82 377.38 197.61 377.41 193.15 377.46L188.5 377.5L188.6 378.45C188.66 378.98 189.06 379.97 189.49 380.66C190.1 381.62 190.61 381.99 191.73 382.27C193.24 382.64 195.72 382.35 197.04 381.64C197.6 381.35 197.85 381.38 198.26 381.78C199.73 383.25 194.98 385.03 191.33 384.38ZM204.58 384.31C204.06 384 204 383.26 204 376.46L204 368.96L204.92 369.06C205.64 369.14 205.86 369.36 205.94 370.1L206.05 371.03L207.2 370.01C208.11 369.21 208.67 369 209.82 369C211.78 369 212.33 369.26 212.33 370.18C212.33 371.2 211.87 371.45 209.93 371.48C208.56 371.5 208.2 371.65 207.51 372.5C206.72 373.46 206.69 373.7 206.68 378.53C206.67 382.97 206.6 383.63 206.06 384.12C205.35 384.75 205.35 384.75 204.58 384.31ZM150.2 383.81C149.93 383.11 149.95 366.19 150.22 364.57C150.41 363.38 150.5 363.3 151.46 363.4L152.5 363.5L152.59 373.46C152.65 380.53 152.57 383.55 152.3 383.88C151.78 384.5 150.45 384.45 150.2 383.81ZM158.21 384.07C158.12 383.92 158 380.51 157.95 376.49C157.87 369.34 157.88 369.16 158.54 369.07C159.29 368.96 159.86 369.49 160.05 370.45C160.15 370.99 160.32 370.94 161.5 370C162.77 368.99 162.95 368.94 165.25 369.06C168.07 369.2 168.76 369.69 169.73 372.24C170.21 373.52 170.33 374.8 170.33 378.71C170.33 383.96 170.17 384.5 168.6 384.28C167.84 384.17 167.83 384.1 167.67 378.65C167.49 372.7 167.19 371.64 165.52 371.01C164.54 370.64 162.74 371.15 161.46 372.17L160.53 372.91L160.62 377.94C160.67 381.12 160.57 383.22 160.34 383.65C159.98 384.32 158.54 384.61 158.21 384.07ZM214.89 377.11C214.44 376.66 214.68 375.37 215.25 375.2C215.57 375.1 217.26 375.06 219 375.11C221.79 375.19 222.18 375.28 222.29 375.83C222.5 376.94 221.42 377.33 218.16 377.33C216.48 377.33 215.01 377.23 214.89 377.11ZM113.53 374.61C112.9 373.72 112.83 371.97 113.4 371.4C113.62 371.18 114.29 371 114.89 371C115.7 371 116.13 371.23 116.56 371.87C117.1 372.7 117.1 372.8 116.48 373.96C115.67 375.47 114.34 375.76 113.53 374.61ZM196.1 374.92C196.94 374.3 196.19 372.11 194.85 371.27C193.27 370.28 190.82 370.6 189.6 371.96C188.72 372.95 188.35 374.58 188.89 375.11C189.3 375.52 195.51 375.36 196.1 374.92ZM295.49 352.36C298.06 351.2 300.93 348.36 302.26 345.67C303.08 344.01 303.16 343.5 303.14 340.33C303.12 336.99 303.07 336.74 301.99 334.84C299.86 331.07 296.58 328.61 293.05 328.14C291.39 327.92 291.33 327.94 291.33 328.73C291.33 329.18 291.58 330.36 291.87 331.36C292.23 332.55 292.43 334.56 292.46 337.28C292.5 341.22 292.47 341.41 291.71 342.03C290.73 342.83 290.28 342.83 289.3 342.04C288.6 341.47 288.51 341.05 288.3 337.46C288 332.1 287.05 328.67 285.86 328.67C284.99 328.67 282.71 330.03 281.41 331.34C278.85 333.9 277.67 336.85 277.67 340.71C277.67 345.65 280.5 350.08 285.07 352.28C286.93 353.18 287.52 353.3 290.26 353.32C292.98 353.33 293.6 353.22 295.49 352.36ZM239.42 344.58C239.73 344.35 240.11 343.57 240.29 342.83C240.46 342.1 240.99 340.15 241.46 338.5C241.94 336.85 242.58 334.6 242.88 333.5C243.18 332.4 243.62 330.9 243.85 330.16C244.83 327.04 244.83 326.37 243.79 325.27C240.84 322.14 232.36 316.45 225.51 313.01C220.13 310.31 219.8 310.17 216 308.83C212.13 307.46 211.9 307.4 205.83 305.89C199.63 304.34 192.79 303.55 185.67 303.53C178.53 303.52 169.81 304.48 164.83 305.83C163.92 306.07 162.19 306.53 161 306.84C158.94 307.37 158.26 307.6 154.92 308.87C150.25 310.64 148.57 311.37 144.93 313.19C141.18 315.07 135.86 318.34 132.54 320.79L129.92 322.73L130.13 324.28C130.24 325.14 130.54 326.58 130.8 327.5C131.05 328.42 131.43 329.84 131.64 330.67C133.77 339.13 134.76 342.8 135.18 343.8L135.68 345L187.27 345C228.04 345 238.99 344.91 239.42 344.58ZM163.53 337.23C162.97 336.82 162.94 336.19 163.07 328.63C163.15 324.14 163.15 320.29 163.08 320.07C162.81 319.27 162.37 319.7 161.71 321.42C160.68 324.1 156.17 335.05 155.64 336.17C155.31 336.86 154.88 337.2 154.24 337.27C153.4 337.37 153.24 337.2 152.46 335.44C151.99 334.37 151.08 332.07 150.45 330.33C149.82 328.59 149.1 326.72 148.85 326.17C148.6 325.62 148.05 324.27 147.63 323.17C146.8 320.99 146.41 320.33 145.96 320.33C145.8 320.33 145.67 323.99 145.67 328.46C145.67 337.2 145.61 337.51 143.94 337.28L143.17 337.17L143.14 327.5C143.12 322.18 143.18 317.57 143.26 317.25C143.38 316.8 143.76 316.67 144.96 316.67C147.51 316.68 147.93 317.09 149.37 321C150.09 322.92 150.81 324.8 150.98 325.17C151.25 325.74 152.03 327.66 152.99 330.17C153.82 332.32 154.04 332.71 154.37 332.6C154.57 332.53 155.1 331.58 155.55 330.49C156 329.39 156.49 328.2 156.64 327.83C156.79 327.47 157.21 326.49 157.58 325.67C157.95 324.84 158.53 323.42 158.87 322.51C159.21 321.6 159.94 319.95 160.49 318.84L161.5 316.83L163.2 316.73C164.35 316.67 165.02 316.79 165.28 317.11C165.57 317.45 165.65 320.19 165.59 327.17C165.5 336.43 165.48 336.77 164.81 337.21C164.24 337.59 164.02 337.59 163.53 337.23ZM171.54 337.24C171.05 336.88 171 336.01 171.08 329.5L171.17 322.17L171.96 322.06C172.39 321.99 172.9 322.1 173.1 322.3C173.49 322.69 173.87 334.81 173.53 336.16C173.26 337.24 172.27 337.77 171.54 337.24ZM181.71 337.1C179.95 336.23 179.54 334.9 179.34 329.34L179.17 324.5L178.17 324.33C177.4 324.2 177.14 323.97 177.07 323.32C176.99 322.62 177.16 322.42 178.07 322.16C179.11 321.85 179.18 321.73 179.33 320C179.5 318.21 179.53 318.17 180.47 318.24C181.69 318.32 181.99 318.79 181.99 320.58C182 322.13 181.99 322.13 184.42 322.01C185.62 321.96 186.05 322.07 186.21 322.48C186.56 323.41 185.41 324.29 183.71 324.4L182.17 324.5L182.17 329.44C182.17 334 182.22 334.43 182.83 334.88C183.29 335.21 183.9 335.3 184.75 335.15C186.44 334.87 186.85 335.76 185.54 336.89C184.47 337.8 183.27 337.87 181.71 337.1ZM192.6 336.89C191.79 336.48 190.74 335.54 190.17 334.72C189.26 333.41 189.16 332.99 189.05 330.17C188.91 326.44 189.55 324.63 191.52 323.13C192.71 322.22 192.96 322.17 196.03 322.17C198.8 322.17 199.42 322.27 200.2 322.85C201.96 324.16 202.72 325.67 203.22 328.83C203.5 330.62 202.46 333.67 201.08 335.1C199.38 336.86 198.17 337.43 195.92 337.52C194.51 337.58 193.65 337.42 192.6 336.89ZM208.84 337.16C207.49 336.69 206.67 335.9 206.67 335.1C206.67 334.54 207.45 334.56 209.48 335.17C210.77 335.56 211.38 335.59 212.24 335.31C213.6 334.86 214.48 333.63 214.21 332.55C214.02 331.8 213.56 331.51 209.73 329.69C207.77 328.76 207.16 327.83 207.18 325.8C207.2 324.28 207.35 323.83 208.11 323.07C208.93 322.26 209.29 322.16 211.81 322.05C214.33 321.95 214.67 322.01 215.34 322.67C216 323.34 216.02 323.45 215.55 323.93C215.12 324.36 214.87 324.38 214.16 324.06C213.69 323.84 212.64 323.67 211.83 323.67C210.64 323.67 210.25 323.82 209.83 324.46C209.02 325.7 209.5 326.84 211.28 327.94C212.14 328.46 213.21 328.98 213.67 329.1C214.14 329.21 215 329.78 215.59 330.36C217.67 332.39 216.78 335.41 213.64 337.01C212.14 337.78 210.69 337.82 208.84 337.16ZM221.54 337.24C221.05 336.88 221 336.01 221.08 329.5L221.17 322.17L221.96 322.06C222.39 321.99 222.91 322.11 223.11 322.31C223.49 322.69 223.82 334.8 223.49 336.24C223.26 337.25 222.26 337.76 221.54 337.24ZM228.84 337.16C227.51 336.69 226.67 335.9 226.67 335.12C226.67 334.39 227.14 334.37 229.12 335.04C231.39 335.81 232.99 335.5 233.88 334.14C234.72 332.86 234.24 331.84 232.42 331C227.87 328.9 227.3 328.38 227.08 326.06C226.94 324.6 227.03 324.31 227.93 323.3C228.91 322.21 229.05 322.16 231.73 322.05C234.1 321.95 234.64 322.03 235.31 322.58C236.41 323.47 236.05 324.51 234.75 324.18C231.16 323.25 229.67 323.68 229.67 325.63C229.67 327.15 230.14 327.62 232.75 328.68C235.42 329.76 236.67 331.05 236.67 332.72C236.67 334.69 235.92 335.82 233.94 336.8C231.99 337.77 230.79 337.86 228.84 337.16ZM199.02 334.13C200.76 332.39 201.04 328.15 199.57 325.71C198.89 324.57 197.29 323.67 195.96 323.67C194.44 323.67 192.74 324.73 192.14 326.05C191.31 327.91 191.37 331.45 192.28 333.22C193.11 334.86 194.18 335.36 196.45 335.2C197.69 335.12 198.28 334.87 199.02 334.13ZM246.25 320.58C246.65 320.08 247.01 318.91 248.86 312.17C249.11 311.25 249.53 309.75 249.79 308.83C250.27 307.12 250.85 305.02 251.81 301.5C252.11 300.4 252.58 298.82 252.85 298C253.12 297.17 253.34 296.17 253.33 295.76C253.33 295.36 253.55 294.53 253.81 293.93C254.07 293.33 254.5 292.01 254.77 291C255.54 288.16 256.32 285.33 256.84 283.5C257.62 280.78 258.23 278.62 258.81 276.5C259.11 275.4 259.58 273.82 259.85 273C260.74 270.26 260.61 269.93 257.92 268.19C255.76 266.79 248.85 263.27 242.55 260.36C241.29 259.77 240.02 259.34 239.73 259.4C239.17 259.51 238.84 260.71 237.87 266.17C237.57 267.82 237.1 270.44 236.82 272C236.54 273.56 236.08 276.11 235.8 277.67C235.53 279.22 235.09 281.62 234.82 283C234.56 284.38 234.28 285.95 234.2 286.5C234.12 287.05 233.83 288.7 233.56 290.17C233.28 291.63 232.88 293.81 232.67 295C232.18 297.76 231.52 301.27 230.99 303.83C230.77 304.93 230.51 306.9 230.42 308.2L230.27 310.56L231.55 311.34C232.26 311.77 233.36 312.42 234 312.77C235.86 313.8 238.24 315.45 242 318.31C243.92 319.77 245.59 320.98 245.71 320.99C245.82 320.99 246.07 320.81 246.25 320.58ZM171.19 318.48C170.35 317.64 170.52 316.38 171.5 316.14C173.22 315.71 174.11 316.77 173.2 318.17C172.57 319.13 171.94 319.22 171.19 318.48ZM221.4 318.72C220.75 318.3 220.74 316.65 221.39 316.23C222.09 315.77 223.67 316.42 223.67 317.16C223.67 317.68 222.53 319 222.08 318.99C221.95 318.99 221.64 318.87 221.4 318.72ZM132.13 315.86C134.87 313.92 141.22 310.23 144.5 308.67C146.35 307.78 148.07 306.82 148.31 306.53C148.8 305.94 148.63 304.83 146.65 295.67C146.08 293.01 145.48 290.04 145.33 289.07C145.18 288.09 144.89 286.59 144.7 285.73C144.08 282.99 143.49 280.13 141.82 271.83C140.77 266.67 140.24 264.07 139.81 262.17C139.57 261.07 139.28 259.54 139.16 258.77C138.78 256.27 138.9 256.27 132.5 258.61C127.54 260.43 115.7 266.18 115.42 266.91C115.18 267.56 115.42 268.61 119.04 282.33C119.59 284.44 120.17 286.69 120.32 287.33C120.57 288.41 121.54 292.16 123.84 300.83C124.72 304.16 125.05 305.43 126.94 312.67C127.49 314.77 128.11 316.92 128.3 317.44L128.67 318.38L129.71 317.61C130.29 317.18 131.37 316.4 132.13 315.86ZM370.07 315.54C374.43 314.4 377.49 311.96 379.39 308.1C380.41 306.02 380.49 305.63 380.47 302.68C380.44 299.33 380.15 298.39 378.27 295.47C377.14 293.72 375.72 292.54 373.21 291.27C371.36 290.34 370.89 290.25 367.8 290.22C364.53 290.2 364.32 290.24 361.89 291.44C359.07 292.83 357.37 294.54 356.18 297.17C355.13 299.47 354.91 300.57 355.42 300.89C355.65 301.04 358.61 301.11 362 301.05C367.71 300.94 368.23 300.98 368.97 301.58C370.03 302.43 369.71 303.78 368.24 304.68C367.28 305.26 366.54 305.33 361.25 305.33C355.42 305.33 355.33 305.34 355.33 306.05C355.33 307.28 356.98 310.21 358.65 311.95C360.54 313.92 362.45 314.97 365.17 315.52C367.88 316.07 368.05 316.07 370.07 315.54ZM225.92 307.58C226.11 307.35 226.33 306.49 226.42 305.67C226.5 304.84 226.75 303.27 226.97 302.17C227.84 297.78 228.3 295.36 228.82 292.33C229.12 290.59 229.57 288.04 229.82 286.67C230.08 285.29 230.53 282.82 230.83 281.17C231.51 277.38 232.2 273.69 232.65 271.33C232.85 270.32 233.4 267.25 233.87 264.5C234.35 261.75 234.81 259.1 234.9 258.61C235.04 257.88 234.89 257.63 234.07 257.2C232.22 256.25 229.25 255.29 223.5 253.8C221.59 253.3 219.01 252.6 216.83 251.99C215.33 251.57 209.8 250.67 208.71 250.67L207.75 250.67L207.53 253.92C207.23 258.48 206.4 269.7 205.83 277C205.56 280.39 205.27 284.44 205.17 286C205.08 287.56 204.85 290.33 204.68 292.17C204.21 297.04 204.24 301 204.75 301.13C204.98 301.19 205.77 301.44 206.5 301.68C207.23 301.92 208.36 302.23 209 302.37C212.69 303.19 216.65 304.53 222.1 306.78C225.27 308.1 225.47 308.14 225.92 307.58ZM156.67 303.73C158.31 303.06 160.97 302.33 161.82 302.33C162.3 302.33 163.18 302.13 163.79 301.87C164.4 301.62 166.01 301.23 167.36 301C171.25 300.35 171.13 300.51 170.88 296.55C170.76 294.69 170.52 290.39 170.35 287C170.18 283.61 169.88 278.73 169.69 276.17C169.4 272.18 168.59 259.41 168.19 252.39C168.13 251.22 167.94 250.14 167.78 249.98C167.6 249.8 166.58 249.83 165.32 250.03C164.14 250.22 161.74 250.6 160 250.87C156.65 251.39 155.07 251.71 151.83 252.52C150.73 252.8 149.31 253.15 148.67 253.3C145.6 254.05 143.51 254.69 143.23 254.97C142.95 255.25 143.27 257.61 144.31 262.83C144.73 264.93 147.02 275.93 147.53 278.33C147.79 279.52 148.14 281.32 148.3 282.33C148.47 283.34 148.77 284.84 148.96 285.67C149.31 287.16 149.75 289.27 150.83 294.67C151.14 296.22 151.6 298.47 151.84 299.67C152.09 300.86 152.39 302.43 152.51 303.16C152.63 303.9 152.79 304.59 152.86 304.71C153 304.93 155.02 304.41 156.67 303.73ZM199.62 299.89C199.83 299.64 200.07 298.03 200.17 296.3C200.35 292.98 201.12 282.51 201.68 275.83C201.86 273.63 202.15 269.58 202.33 266.83C202.51 264.08 202.81 260.26 202.99 258.33C203.16 256.41 203.32 253.68 203.32 252.27L203.33 249.7L202.25 249.53C196.27 248.63 180.57 248.28 174.83 248.91L172.5 249.17L172.51 252C172.52 253.56 172.71 257.46 172.93 260.67C173.61 270.42 174.01 276.88 174.33 283C174.64 289 175.29 297.65 175.51 298.83C175.63 299.48 175.91 299.5 185.4 299.52C191.38 299.53 195.68 299.68 196.5 299.9C198.36 300.41 199.19 300.41 199.62 299.89ZM294.29 298.88C294.59 298.53 293.47 297.21 288.92 292.6C285.75 289.39 281.79 285.55 280.1 284.07C276.84 281.21 265.22 272.33 264.73 272.33C264.57 272.33 263.94 274.1 263.35 276.25C262.75 278.4 262.06 280.84 261.81 281.67C261.57 282.49 261.12 284.07 260.82 285.17C260.52 286.27 260.11 287.62 259.91 288.17C259.71 288.72 259.54 289.99 259.52 290.99C259.5 292.66 259.57 292.83 260.33 293.05C260.79 293.18 261.99 293.52 263 293.81C267.37 295.07 276.42 296.91 282.67 297.81C284.59 298.09 287.52 298.53 289.17 298.78C293.13 299.4 293.85 299.42 294.29 298.88ZM261.91 264.92C262.1 264.69 262.33 264.12 262.44 263.67C262.87 261.78 264.1 257.32 265.24 253.5C265.51 252.58 265.95 251.01 266.23 250C266.89 247.52 267.55 245.17 268.13 243.17C269.18 239.51 270.26 235.63 271.12 232.33C271.39 231.32 271.99 229.15 272.47 227.5C272.94 225.85 273.57 223.6 273.86 222.5C274.16 221.4 274.55 220.13 274.72 219.69C274.9 219.24 275.18 218.26 275.34 217.52C275.63 216.16 276.23 213.94 277.13 210.83C277.39 209.92 277.84 208.34 278.12 207.33C278.4 206.32 279.1 203.85 279.68 201.83C280.25 199.82 280.92 197.4 281.16 196.46C281.39 195.52 281.76 194.17 281.97 193.46C282.43 191.92 283.15 189.4 283.87 186.75C284.16 185.7 284.53 184.37 284.7 183.81C284.86 183.25 285 182.68 285 182.56C285 182.11 284.05 182.35 281.81 183.37C279.89 184.24 279.09 184.41 276.68 184.45C268.96 184.59 264.56 180.1 263.84 171.32C263.35 165.48 264.83 160.37 267.94 157.12C268.73 156.29 270.23 155.22 271.27 154.74C272.98 153.95 273.53 153.87 276.85 153.9C279.97 153.94 280.77 154.06 282.02 154.7C285.2 156.32 285.92 157.25 285.29 158.95C284.94 159.88 284.31 159.86 282.8 158.83C279.49 156.58 274.07 156.58 271.4 158.83C270.87 159.28 269.96 160.63 269.38 161.84C268.53 163.61 268.27 164.7 268.03 167.47C267.84 169.75 267.85 171.4 268.08 172.37C268.28 173.17 268.56 174.36 268.71 175.01C268.86 175.65 269.42 176.87 269.96 177.72C272.37 181.52 278.99 182.22 283.23 179.11C284.35 178.29 285.33 178.09 285.33 178.69C285.33 179.44 286.16 178.75 286.39 177.81C286.63 176.85 288.18 171.26 289.21 167.67C289.5 166.66 289.93 165.08 290.17 164.17C290.41 163.25 290.99 161.15 291.47 159.5C291.94 157.85 292.57 155.6 292.87 154.5C293.47 152.28 294.2 149.69 294.65 148.17C294.81 147.62 295.26 145.97 295.66 144.5C296.05 143.03 296.57 141.16 296.81 140.33C297.64 137.52 298.3 135.17 298.83 133.17C299.12 132.07 299.57 130.49 299.83 129.67C300.09 128.84 300.68 126.74 301.13 125C301.59 123.26 302.02 121.61 302.11 121.33C302.32 120.62 303.26 117.33 303.89 115.09C304.18 114.03 304.55 112.79 304.69 112.33C304.84 111.88 305.52 109.47 306.2 107C306.88 104.52 307.64 102.2 307.88 101.84C308.16 101.44 308.33 100.25 308.33 98.78C308.33 97.44 308.49 96.28 308.69 96.15C309.1 95.9 309.52 94.85 310.23 92.33C310.51 91.33 310.94 89.83 311.17 89C312.17 85.57 312.96 82.68 314.16 78.17C314.4 77.25 314.99 75.15 315.47 73.5C316.42 70.22 316.98 68.22 317.81 65.17C318.11 64.07 318.52 62.66 318.71 62.05C318.92 61.39 318.94 60.81 318.77 60.64C318.19 60.06 291.12 46.33 290.56 46.33C290.47 46.33 289 45.68 287.28 44.87C280.56 41.72 279.57 41.3 279.07 41.4C278.56 41.5 278.46 41.91 277.35 48.17C277.05 49.87 276.35 53.74 275.47 58.5C275.02 60.99 274.72 62.66 273.51 69.5C273.26 70.97 272.8 73.44 272.51 75C272.22 76.56 272.02 78.23 272.06 78.71C272.11 79.19 271.98 79.79 271.78 80.04C271.57 80.29 271.33 81.17 271.23 82C271.14 82.82 270.89 84.32 270.69 85.33C270.49 86.34 270.1 88.44 269.81 90C269.53 91.56 269.09 93.96 268.83 95.33C268.57 96.71 268.12 99.18 267.83 100.83C267.54 102.48 267.09 104.96 266.83 106.33C266.57 107.71 266.12 110.18 265.83 111.83C265.54 113.48 265.09 115.96 264.82 117.33C264.56 118.71 264.29 120.28 264.21 120.83C264.03 122.12 263.41 125.52 262.83 128.5C262.37 130.86 261.75 134.27 260.81 139.58C260.53 141.19 260.09 143.62 259.84 145C259.59 146.38 259.14 148.85 258.84 150.5C258.55 152.15 258.17 154.17 258 155C257.84 155.82 257.63 156.95 257.54 157.5C257.35 158.7 256.48 163.53 255.83 167C255.57 168.38 255.12 170.85 254.83 172.5C254.23 175.86 253.65 179.1 252.86 183.42C252.57 185.02 252.1 187.65 251.81 189.25C251.53 190.85 251.09 193.22 250.84 194.5C250.59 195.78 250.14 198.33 249.84 200.17C249.53 202 249.09 204.47 248.84 205.67C248.6 206.86 248.15 209.26 247.85 211C247.55 212.74 247.09 215.29 246.84 216.67C246.58 218.04 246.13 220.59 245.83 222.33C245.54 224.07 245.16 226.03 245 226.67C244.84 227.31 244.62 228.58 244.5 229.5C244.39 230.42 244.08 232.22 243.83 233.5C242.73 239.02 242.35 241.03 241.82 244.33C241.51 246.26 241.04 248.78 240.79 249.94C240.54 251.09 240.33 252.68 240.33 253.46C240.33 254.87 240.34 254.88 242.25 255.66C245.84 257.13 257.49 262.9 259.33 264.12C261.37 265.48 261.45 265.5 261.91 264.92ZM120.29 259.46C126.19 256.57 132.24 254 133.14 254C133.41 254 133.71 253.86 133.82 253.69C133.92 253.52 134.45 253.29 134.99 253.17C135.53 253.05 136.35 252.66 136.81 252.3C137.72 251.58 137.72 251.36 136.85 247.5C136.6 246.4 136.14 244.22 135.84 242.67C135.53 241.11 135.07 238.86 134.81 237.67C134.56 236.47 134.11 234.3 133.82 232.83C133.52 231.37 133.07 229.19 132.82 228C132.56 226.81 132.12 224.63 131.83 223.17C131.54 221.7 131.1 219.45 130.83 218.17C130.57 216.88 130.12 214.63 129.82 213.17C129.52 211.7 129.07 209.53 128.82 208.33C128.56 207.14 128.11 204.97 127.81 203.5C127.52 202.03 127.08 199.86 126.84 198.67C126.59 197.47 126.14 195.22 125.84 193.67C125.53 192.11 125.08 189.93 124.83 188.83C124.57 187.73 124.12 185.56 123.83 184C123.28 181.15 122.68 178.24 122 175.17C121.79 174.25 121.5 172.7 121.34 171.73C121.18 170.76 120.89 169.26 120.7 168.4C120.26 166.46 119.57 163.06 118.84 159.33C118.53 157.77 118.09 155.6 117.85 154.5C117.6 153.4 117.17 151.38 116.89 150C116.61 148.62 116.2 146.67 115.98 145.67C115.77 144.66 115.39 142.78 115.15 141.5C114.91 140.22 114.47 137.97 114.17 136.5C113.86 135.03 113.49 133.16 113.33 132.33C113.17 131.51 112.72 129.41 112.33 127.67C111.95 125.92 111.5 123.75 111.34 122.83C111.19 121.92 110.91 120.49 110.73 119.67C110.26 117.5 108.75 110.2 107.81 105.5C107.52 104.03 107.08 101.93 106.83 100.83C106.58 99.73 106.3 98.31 106.2 97.67C106.11 97.02 105.71 95.08 105.32 93.33C104.93 91.59 104.49 89.34 104.34 88.33C103.95 85.68 103.3 83.63 102.8 83.44C102.56 83.35 101.42 83.65 100.27 84.11C99.11 84.58 97.04 85.33 95.67 85.79C94.29 86.25 91.67 87.17 89.83 87.83C88 88.49 85.9 89.23 85.17 89.47C83.63 89.98 79.48 91.53 78.5 91.97C78.13 92.13 76.45 92.84 74.76 93.55C70.03 95.53 70.22 95.25 71.16 98.83C71.59 100.48 72.2 102.73 72.51 103.83C72.82 104.93 73.27 106.66 73.51 107.67C73.74 108.67 74.18 110.4 74.48 111.5C74.78 112.6 75.33 114.7 75.69 116.17C76.06 117.63 76.59 119.73 76.87 120.83C77.48 123.28 78.13 125.61 78.81 127.9C79.1 128.85 79.33 129.84 79.33 130.11C79.33 130.37 79.55 131.32 79.82 132.21C80.08 133.1 80.54 134.73 80.83 135.83C81.13 136.93 81.57 138.58 81.82 139.5C82.94 143.56 83.11 144.23 83.35 145.33C83.48 145.97 83.92 147.7 84.32 149.17C84.72 150.63 85.17 152.36 85.32 153C85.47 153.64 86.14 156.27 86.82 158.83C88.56 165.45 89.9 170.57 91.04 175C91.59 177.11 92.26 179.66 92.53 180.67C92.81 181.67 93.17 183.15 93.34 183.94C93.52 184.73 93.74 185.51 93.83 185.67C93.93 185.83 94.14 186.6 94.3 187.39C94.45 188.19 94.92 190.03 95.33 191.5C95.75 192.97 96.2 194.69 96.33 195.33C96.47 195.97 96.92 197.7 97.33 199.17C98.16 202.15 98.9 204.92 99.32 206.67C99.47 207.31 100.15 209.93 100.82 212.5C101.49 215.07 102.48 218.89 103.03 221C103.58 223.11 104.26 225.66 104.53 226.67C104.8 227.67 105.23 229.32 105.48 230.33C105.72 231.34 106.4 233.97 106.99 236.17C107.57 238.37 108.17 240.69 108.31 241.33C108.46 241.97 108.92 243.7 109.33 245.17C109.75 246.63 110.2 248.36 110.33 249C110.47 249.64 111.13 252.19 111.79 254.67C112.98 259.12 113.11 259.63 113.49 261.42C113.59 261.92 113.85 262.33 114.05 262.33C114.26 262.33 117.07 261.04 120.29 259.46ZM235.93 252.6C236.15 252.38 236.33 251.8 236.33 251.31C236.33 250.82 236.54 249.38 236.8 248.12C237.06 246.86 237.5 244.48 237.79 242.83C238.35 239.58 238.43 239.15 239.18 235.17C239.46 233.7 239.88 231.3 240.13 229.83C240.62 226.94 241.13 224.15 241.84 220.5C242.73 215.9 243.05 214.14 243.32 212.17C243.48 211.07 243.69 209.94 243.8 209.67C243.9 209.39 244.14 208.19 244.33 207C244.51 205.81 244.97 203.18 245.34 201.17C245.71 199.15 246.15 196.67 246.31 195.67C246.47 194.66 246.75 193.16 246.94 192.33C247.12 191.51 247.52 189.41 247.82 187.67C248.12 185.92 248.57 183.38 248.83 182C249.09 180.62 249.53 178.19 249.82 176.58C250.1 174.98 250.57 172.35 250.85 170.75C251.14 169.15 251.58 166.71 251.84 165.33C252.1 163.96 252.55 161.48 252.83 159.83C253.11 158.18 253.55 155.78 253.81 154.5C254.06 153.22 254.52 150.74 254.82 149C255.12 147.26 255.6 144.56 255.87 143C256.34 140.37 256.56 139.21 257.68 133.33C258.1 131.17 258.19 130.67 259.11 125.33C259.37 123.77 259.75 121.75 259.93 120.83C260.12 119.92 260.53 117.67 260.83 115.83C261.14 114 261.61 111.38 261.87 110C262.63 106.02 263.25 102.71 263.78 99.67C264.88 93.37 265.42 90.39 265.85 88.17C266.71 83.76 266.9 82.37 266.69 82.04C266.48 81.7 264.68 81.04 255.67 77.99C252.82 77.03 250.27 76.13 249.99 76C249.71 75.86 248.96 75.64 248.32 75.5C247.69 75.37 246.12 74.92 244.83 74.5C242.7 73.82 240.34 73.21 234.33 71.8C233.14 71.52 231.34 71.08 230.33 70.83C227.15 70.05 221.61 69.26 221.32 69.55C221.17 69.71 220.88 72.01 220.68 74.67C220.48 77.32 220.17 81.38 219.99 83.67C219.8 85.96 219.51 90.31 219.32 93.33C219.14 96.36 218.92 99.28 218.83 99.83C218.74 100.38 218.51 103.16 218.32 106C217.66 116.06 217.04 124.89 216.7 129.17C216.51 131.55 216.12 136.72 215.83 140.67C215.55 144.61 215.1 150.76 214.83 154.33C214.57 157.91 214.12 164.06 213.83 168C213.54 171.94 213.09 178.17 212.81 181.83C212.54 185.5 212.1 191.57 211.82 195.33C211.55 199.09 211.17 204.04 210.98 206.33C210.79 208.62 210.5 212.75 210.33 215.5C210.17 218.25 209.88 222.45 209.68 224.83C208.57 238.8 208.29 243 208.39 244.48L208.5 246.13L212.17 246.76C214.18 247.11 216.58 247.58 217.5 247.82C222.07 249.02 223.65 249.43 225.33 249.86C226.34 250.12 228.89 250.92 231 251.64C235.4 253.13 235.4 253.13 235.93 252.6ZM147.67 249.32C148.49 249.13 149.62 248.84 150.17 248.67C153.39 247.71 157.98 246.82 163.99 245.98C167.51 245.49 167.69 245.27 167.48 241.54C166.96 232.26 165.69 211.8 164.98 201.17C164.79 198.23 164.49 193.3 164.34 190.21C164.18 187.11 163.88 182.39 163.69 179.71C163.21 173.23 162.69 164.78 162.33 157.83C162.17 154.72 161.88 150.14 161.69 147.67C161.5 145.19 161.11 139.04 160.82 134C160.53 128.96 160.15 122.81 159.97 120.33C159.79 117.86 159.5 113.13 159.33 109.83C159.16 106.53 158.87 101.51 158.68 98.67C158.31 93.04 157.48 79.9 157.14 74.33C157.02 72.41 156.77 70.64 156.57 70.39C156.2 69.93 154.11 70.06 151.64 70.69C150.98 70.86 149.11 71.24 147.47 71.53C140.25 72.84 139.46 73.01 129 75.63C124.67 76.71 119.1 78.29 114.17 79.83C113.43 80.06 111.67 80.6 110.26 81.03C108.84 81.46 107.61 82.01 107.51 82.26C107.42 82.5 107.55 83.56 107.81 84.6C108.07 85.65 108.52 87.7 108.82 89.17C109.86 94.25 110.39 96.84 110.85 99C111.11 100.19 111.54 102.29 111.81 103.67C112.08 105.04 112.55 107.37 112.84 108.83C113.14 110.3 113.61 112.62 113.89 114C114.51 117.13 115.14 120.16 115.78 123.17C116.35 125.83 117.15 129.76 117.82 133.17C118.08 134.45 118.53 136.7 118.84 138.17C119.36 140.7 119.7 142.35 120.84 147.92C121.11 149.25 121.55 151.42 121.81 152.75C122.41 155.74 123.24 159.81 123.85 162.67C124.11 163.86 124.55 166 124.83 167.42C126.26 174.59 127.86 182.41 128.81 186.83C129.09 188.12 129.48 189.99 129.67 191C129.86 192.01 130.25 193.96 130.53 195.33C130.81 196.71 131.24 198.81 131.47 200C132.59 205.62 133.43 209.75 134.02 212.5C134.37 214.15 134.81 216.25 134.99 217.17C135.17 218.08 135.48 219.58 135.68 220.5C135.88 221.42 136.18 223.04 136.36 224.11C136.53 225.19 136.74 226.19 136.84 226.34C136.93 226.49 137.24 227.86 137.53 229.39C138.4 234.04 138.59 234.96 139.85 240.83C140.52 243.95 141.18 247.3 141.31 248.27C141.43 249.25 141.74 250.17 141.98 250.32C142.22 250.47 143.26 250.38 144.29 250.13C145.32 249.88 146.84 249.52 147.67 249.32ZM203.63 244.87C203.84 244.62 204.15 242.33 204.32 239.79C204.93 230.52 205.37 224.72 205.85 219.5C206.12 216.57 206.33 213.27 206.33 212.17C206.33 211.07 206.55 207.77 206.82 204.83C207.09 201.9 207.54 196.12 207.83 192C208.12 187.88 208.57 181.65 208.84 178.17C209.1 174.68 209.55 168.61 209.83 164.67C210.11 160.72 210.56 154.5 210.84 150.83C211.65 140.06 212.3 131.31 212.84 123.83C213.11 119.98 213.5 114.96 213.69 112.67C213.88 110.38 214.17 106.4 214.33 103.83C214.49 101.27 214.78 97.14 214.97 94.67C215.16 92.19 215.56 86.94 215.85 83C216.14 79.06 216.49 74.33 216.64 72.5C216.79 70.45 216.77 69.01 216.57 68.75C216.4 68.52 215.71 68.33 215.04 68.33C214.38 68.32 212.03 68.09 209.83 67.82C201.61 66.79 177.57 66.9 170.5 67.99C169.4 68.16 167.08 68.47 165.35 68.69C163.61 68.9 162 69.15 161.76 69.24C161.19 69.46 161.2 72.39 161.81 81.33C162.08 85.27 162.54 92.33 162.83 97C163.12 101.67 163.57 109.02 163.84 113.33C164.1 117.64 164.56 125.07 164.85 129.83C165.14 134.6 165.52 140.67 165.7 143.33C165.89 145.99 166.16 150.77 166.32 153.95C166.48 157.13 166.77 161.86 166.96 164.45C167.45 170.94 168 179.74 168.34 186.5C168.5 189.62 168.79 194.34 168.98 197C169.17 199.66 169.56 205.58 169.84 210.17C170.12 214.75 170.57 222.1 170.85 226.5C171.12 230.9 171.47 236.64 171.61 239.26C171.93 245.06 171.96 245.1 175 244.66C178.13 244.21 192.48 244.31 197.17 244.82C202.56 245.4 203.19 245.41 203.63 244.87ZM175.88 178.72C175.39 178.18 175.33 176.66 175.33 163.9C175.33 149.76 175.34 149.69 176.04 149.31C176.52 149.06 178.49 148.98 182.12 149.07C186.73 149.19 187.73 149.32 189.1 149.94C191.78 151.15 193.32 153.56 193.33 156.6C193.33 158.32 192.67 159.74 191.07 161.41C189.91 162.62 189.89 162.66 190.49 163.32C190.83 163.7 191.27 164.01 191.47 164.01C192.35 164.05 194.06 166.01 194.68 167.69C195.36 169.56 195.55 172.16 195.04 172.48C194.87 172.58 194.64 173.07 194.51 173.58C194.19 174.87 192.83 176.55 191.37 177.48C189.24 178.82 186.43 179.33 181.19 179.33C177.01 179.33 176.37 179.26 175.88 178.72ZM188.3 175.19C190.2 173.99 191.07 172.59 191.1 170.7C191.13 168.62 190.24 167.14 188.34 166.13C187.02 165.43 186.41 165.33 183.09 165.33L179.33 165.33L179.33 170.43C179.33 173.24 179.48 175.68 179.65 175.85C179.82 176.02 181.55 176.13 183.48 176.09C186.56 176.02 187.16 175.91 188.3 175.19ZM187.15 161.2C189.62 159.32 190.04 155.55 188 153.52C187.01 152.53 186.91 152.5 183.16 152.38L179.33 152.26L179.33 156.9C179.33 159.45 179.48 161.68 179.65 161.85C179.82 162.02 181.34 162.14 183.01 162.1C185.69 162.04 186.19 161.93 187.15 161.2ZM73.43 89.56C75.22 88.74 76.95 87.98 77.26 87.87C77.58 87.75 78.21 87.52 78.67 87.35C81.12 86.45 86.46 84.54 88.5 83.84C89.78 83.39 91.66 82.71 92.67 82.32C93.67 81.93 94.95 81.5 95.51 81.36C96.06 81.22 96.81 80.95 97.17 80.77C97.94 80.37 103.01 78.66 105.67 77.9C108.49 77.09 114.35 75.33 115.83 74.84C117.06 74.43 118.37 74.06 122.83 72.84C123.75 72.59 125.02 72.29 125.67 72.17C126.31 72.04 127.28 71.82 127.83 71.66C128.38 71.5 129.81 71.13 131 70.84C132.19 70.54 133.92 70.09 134.83 69.84C136.63 69.34 137.14 69.24 149.5 66.82C150.78 66.57 152.73 66.19 153.83 65.98C154.93 65.76 156.36 65.53 157 65.46C157.64 65.39 159.89 65.11 162 64.84C171.45 63.64 174.48 63.33 179.17 63.09C185.53 62.76 200.58 62.88 206 63.3C216.07 64.08 219.23 64.4 220.17 64.73C220.72 64.92 221.69 65.14 222.33 65.22C225.02 65.53 229.95 66.4 231.53 66.85C232.46 67.12 233.57 67.33 233.98 67.33C234.4 67.33 235.44 67.55 236.29 67.81C237.14 68.08 238.66 68.46 239.67 68.67C241.37 69.02 244.34 69.83 247.5 70.83C248.23 71.06 250.41 71.74 252.33 72.34C254.26 72.93 256.97 73.85 258.36 74.38C259.75 74.9 261.13 75.33 261.43 75.33C261.72 75.33 262.03 75.45 262.12 75.58C262.2 75.72 263.34 76.21 264.64 76.66C266.78 77.4 267.05 77.43 267.52 76.95C267.81 76.67 268.17 75.62 268.33 74.63C269.03 70.32 269.66 66.83 270.82 60.83C271.07 59.55 271.52 57.07 271.81 55.33C272.11 53.59 272.5 51.49 272.67 50.67C272.84 49.84 273.22 47.74 273.53 46C273.83 44.26 274.2 42.16 274.34 41.33C274.55 40.13 274.5 39.72 274.05 39.29C273.53 38.78 265.45 35.4 262.5 34.47C261.77 34.23 260.34 33.73 259.33 33.34C256.85 32.39 253.38 31.27 248.5 29.82C247.4 29.5 245.9 29.04 245.17 28.81C239.78 27.12 230.53 25.06 222.83 23.83C221 23.54 218.67 23.16 217.67 22.99C216.66 22.83 214.63 22.6 213.17 22.49C211.7 22.39 208.26 22.07 205.52 21.78C199.88 21.19 184.64 21.29 176.67 21.98C169.63 22.58 157.61 24.13 154.33 24.86C153.14 25.12 151.87 25.33 151.5 25.33C151.13 25.33 149.78 25.55 148.5 25.83C147.22 26.11 144.29 26.72 142 27.2C139.71 27.67 136.93 28.28 135.83 28.55C134.73 28.82 133.31 29.16 132.67 29.32C132.02 29.47 129.4 30.15 126.83 30.82C124.27 31.49 121.72 32.16 121.17 32.3C120.62 32.44 119.64 32.73 119 32.94C115.68 34.01 111.61 35.28 109.83 35.82C105.37 37.15 104.47 37.43 103.7 37.72C103.27 37.89 101.17 38.61 99.04 39.33C96.91 40.04 93.67 41.17 91.83 41.84C90 42.51 88.12 43.18 87.67 43.34C86.26 43.81 80.62 45.88 78.33 46.75C72.31 49.07 64.68 53.6 62.21 56.33C60.94 57.74 60.93 57.77 61.15 59.76C61.28 60.86 61.57 62.3 61.81 62.96C62.25 64.18 62.87 66.53 63.33 68.67C63.47 69.31 63.92 71.03 64.33 72.5C64.75 73.97 65.2 75.69 65.34 76.33C65.48 76.97 65.92 78.7 66.32 80.17C66.72 81.63 67.17 83.36 67.32 84C67.95 86.67 69.07 90.84 69.23 91.1C69.32 91.25 69.57 91.3 69.78 91.21C69.99 91.12 71.63 90.38 73.43 89.56ZM139.88 59.44C139.2 59.25 139.24 58.12 140.01 56C140.24 55.36 140.51 54.61 140.6 54.33C140.69 54.06 141.17 52.71 141.67 51.33C142.17 49.96 143.29 46.88 144.16 44.5C145.03 42.12 145.85 39.67 146 39.07C146.15 38.47 146.41 37.8 146.59 37.57C146.77 37.35 147.26 36.12 147.68 34.83C148.1 33.55 148.55 32.35 148.68 32.17C148.8 31.98 149.02 31.38 149.15 30.84C149.53 29.25 149.92 29 152.02 29C153.71 29 154.04 29.11 154.64 29.88C155.02 30.36 155.33 30.92 155.34 31.13C155.34 31.33 155.55 31.9 155.8 32.39C156.06 32.89 156.38 33.79 156.51 34.39C156.64 35 156.86 35.65 157 35.83C157.15 36.02 157.42 36.69 157.61 37.33C157.79 37.97 158.42 39.77 159 41.33C159.58 42.89 160.21 44.69 160.39 45.33C160.58 45.98 160.85 46.65 161 46.83C161.15 47.02 161.42 47.69 161.6 48.33C162.04 49.87 164.89 57.89 165.14 58.28C165.51 58.89 164.36 59.37 162.79 59.27L161.2 59.17L160.24 56.5C159.71 55.03 159.19 53.46 159.1 53C158.77 51.44 158.29 51.33 151.82 51.33L145.77 51.33L145.18 52.75C144.86 53.53 144.41 54.62 144.18 55.17C143.95 55.72 143.65 56.64 143.53 57.22C143.16 58.9 141.54 59.88 139.88 59.44ZM156.46 47.9C157.04 47.67 157.21 46.17 156.69 45.85C156.52 45.74 156.28 45.18 156.15 44.59C156.02 44 155.79 43.29 155.64 43.01C155.49 42.73 154.82 40.85 154.14 38.83C152.87 35.03 152.22 33.67 151.66 33.67C151.48 33.67 151.33 34.03 151.33 34.48C151.33 34.93 151.19 35.38 151.03 35.48C150.86 35.59 150.61 36.16 150.48 36.74C150.35 37.33 150.12 38.04 149.96 38.32C149.49 39.16 147 46.79 147 47.39C147 47.7 147.26 48 147.57 48.06C148.58 48.25 155.89 48.11 156.46 47.9Z" fill="#1e2749" fill-rule="evenodd"/>
</svg>
