<?xml version="1.0" encoding="UTF-8"?>
<svg xmlns="http://www.w3.org/2000/svg" viewBox="0 0 342 195" width="342" height="195" shape-rendering="geometricPrecision">
<path d="M127.17 194.05C126.25 193.54 124.08 192.29 122.33 191.28C120.59 190.26 118.49 189.06 117.67 188.6C116.84 188.14 112.34 185.55 107.67 182.84C102.99 180.13 97.07 176.71 94.5 175.23C91.93 173.75 87.66 171.26 85 169.69C82.34 168.12 79.72 166.6 79.17 166.31C78.62 166.02 75.09 164.01 71.33 161.84C67.57 159.68 64.11 157.7 63.64 157.46C63.16 157.21 62.49 156.69 62.14 156.3C61.52 155.62 61.5 154.54 61.5 117.38C61.5 96.36 61.61 78.79 61.74 78.33C61.88 77.82 62.55 77.18 63.46 76.67C65.01 75.8 72.04 71.76 81 66.58C83.84 64.93 87.67 62.72 89.5 61.66C98.84 56.28 103.84 53.38 107.09 51.45C109.06 50.29 110.75 49.33 110.84 49.33C110.94 49.33 111.95 48.75 113.09 48.04C114.23 47.33 115.94 46.32 116.88 45.79C120.76 43.61 123.3 42.15 125.6 40.78C129.09 38.7 129.63 38.76 134.82 41.83C137.15 43.21 139.09 44.33 139.15 44.33C139.2 44.33 140.62 45.16 142.3 46.17C143.98 47.18 145.44 48 145.55 48C145.65 48 147.73 49.2 150.17 50.67C152.6 52.13 154.67 53.33 154.77 53.33C154.86 53.33 156.79 54.43 159.05 55.77C161.31 57.12 163.39 58.32 163.67 58.45C163.94 58.57 164.85 59.09 165.69 59.59C166.52 60.09 169 61.53 171.19 62.79C173.38 64.05 175.57 65.37 176.07 65.71C176.57 66.05 177.05 66.33 177.14 66.33C177.29 66.33 181.3 68.6 183 69.64C183.28 69.81 186.23 71.52 189.56 73.43L195.63 76.91L214.89 67.29C225.48 62 234.53 57.67 235.01 57.67C236.7 57.67 237.2 59.07 235.92 60.23C235.5 60.61 226.65 65.16 216.25 70.35L197.33 79.79L197.33 117.67L197.33 155.55L196.55 156.28C196.12 156.69 195.26 157.29 194.63 157.62C193.39 158.29 181.1 165.39 179.5 166.38C178.95 166.72 178.28 167.1 178 167.22C177.72 167.35 176.02 168.33 174.22 169.39C172.41 170.46 170.88 171.33 170.81 171.33C170.74 171.33 168.04 172.91 164.81 174.83C161.58 176.76 158.87 178.33 158.79 178.33C158.65 178.33 155.48 180.17 146.06 185.7C144.53 186.6 143.2 187.33 143.11 187.33C143.01 187.33 141.33 188.29 139.38 189.46C133.9 192.75 129.79 195 129.29 194.99C129.04 194.99 128.08 194.57 127.17 194.05ZM130.78 190.75C131.36 190.43 133.26 189.33 135 188.31C136.74 187.29 138.84 186.07 139.67 185.6C140.49 185.13 143.04 183.66 145.33 182.32C147.62 180.99 150.17 179.53 151 179.08C152.34 178.35 157.29 175.48 162.33 172.5C163.34 171.9 168.29 169.05 173.33 166.16C178.38 163.27 183.06 160.55 183.74 160.12C184.43 159.69 185.07 159.33 185.17 159.33C185.27 159.33 185.98 158.92 186.76 158.42C187.53 157.92 188.54 157.32 189 157.09C191.35 155.9 193.22 154.64 193.67 153.95C194.11 153.26 194.15 148.7 194 116.37L193.83 79.57L191.17 78.08C189.7 77.26 187.84 76.23 187.03 75.8C186.23 75.36 185.39 74.85 185.17 74.67C184.96 74.49 183.74 73.77 182.47 73.06C181.2 72.36 177.62 70.3 174.5 68.5C166.79 64.03 166.24 63.71 165.69 63.44C165.42 63.32 162.6 61.67 159.42 59.77C156.24 57.88 153.57 56.33 153.49 56.33C153.41 56.33 152.33 55.71 151.09 54.95C149.85 54.19 148.04 53.14 147.07 52.62C145.46 51.74 142.38 49.96 133.18 44.6C131.36 43.54 129.6 42.67 129.28 42.67C128.96 42.67 127.6 43.32 126.26 44.11C124.93 44.91 121.66 46.82 119.01 48.36C116.35 49.91 113.93 51.32 113.64 51.5C113.34 51.68 112.31 52.25 111.36 52.77C110.41 53.28 108.66 54.29 107.47 55.02C106.29 55.74 105.24 56.33 105.15 56.33C105.05 56.33 102.72 57.68 99.96 59.33C97.21 60.98 94.86 62.33 94.76 62.33C94.65 62.33 93.87 62.76 93.03 63.29C92.19 63.81 90.08 65.06 88.33 66.07C85.2 67.88 78.48 71.79 77.18 72.57C76.8 72.79 76.27 73.08 76 73.21C75.5 73.45 69.27 77.07 68.33 77.67C68.06 77.85 67.38 78.19 66.83 78.44C66.28 78.69 65.65 79.12 65.42 79.4C65.09 79.79 64.99 87.89 64.96 116.97C64.93 151.97 64.96 154.07 65.51 154.68C65.84 155.04 66.22 155.33 66.36 155.33C66.5 155.33 67.71 155.98 69.06 156.78C70.4 157.57 72.32 158.68 73.33 159.25C74.34 159.81 77.34 161.54 80 163.08C82.66 164.62 87.91 167.65 91.67 169.82C95.42 171.99 99.06 174.12 99.74 174.55C100.43 174.98 101.05 175.33 101.13 175.33C101.21 175.33 102.79 176.23 104.64 177.33C106.49 178.43 108.09 179.33 108.18 179.33C108.28 179.33 108.77 179.61 109.26 179.96C110.34 180.69 118.3 185.33 118.49 185.33C118.57 185.33 120.55 186.47 122.9 187.85C128.78 191.32 128.78 191.31 129.28 191.32C129.53 191.33 130.2 191.07 130.78 190.75ZM124.5 151.36C122.62 151.12 120.97 150.71 117.28 149.54C115.4 148.95 111 146.59 109.17 145.2C102.82 140.39 98.83 134.7 96.3 126.83C95.25 123.55 95.23 123.4 95.22 117C95.21 110.56 95.22 110.47 96.31 107C97.62 102.82 99.88 98.4 102.17 95.53C105.85 90.92 112.78 85.98 117.67 84.5C118.67 84.2 119.83 83.82 120.23 83.65C120.64 83.49 122.79 83.11 125.02 82.79C128.54 82.29 129.54 82.27 132.62 82.63C138.12 83.27 142.27 84.59 146.56 87.05C156.44 92.73 162.35 101.71 163.87 113.33C164.35 116.94 164.34 117.41 163.72 121.33C162.86 126.72 162.37 128.34 160.35 132.49C159.07 135.13 158.04 136.64 155.85 139.1C152.91 142.4 149.96 145.14 148.4 146C147.91 146.28 146.47 147.08 145.22 147.79C143.96 148.49 141.34 149.58 139.39 150.19C136.24 151.19 135.32 151.33 131.17 151.46C128.6 151.55 125.6 151.5 124.5 151.36ZM136.19 147.65C140.4 146.57 142.28 145.78 146 143.55C148.3 142.18 151.98 138.96 153.65 136.86C155.64 134.36 158.01 130.14 158.64 128C158.88 127.17 159.36 125.8 159.71 124.94C160.05 124.08 160.33 122.87 160.33 122.25C160.33 121.63 160.5 120.24 160.7 119.16C160.96 117.72 160.95 116.32 160.66 113.85C159.39 103.07 153.03 93.9 143.54 89.15C141.55 88.15 139.68 87.33 139.39 87.33C139.09 87.33 138.25 87.12 137.51 86.86C135.67 86.22 129.83 85.54 128 85.77C123.31 86.34 121.38 86.65 120.33 87.02C119.69 87.24 118.49 87.65 117.67 87.94C113.88 89.23 108.04 93.51 105.13 97.13C103.26 99.46 100.86 103.78 100.02 106.33C98.54 110.85 98.5 111.11 98.5 117.17C98.5 122.9 98.55 123.29 99.46 126C103.03 136.56 109.97 143.58 120.19 146.96C124.24 148.3 123.94 148.25 129.02 148.29C132.59 148.33 134.1 148.19 136.19 147.65ZM308.56 72.11C308.43 71.99 308.33 71.39 308.33 70.79C308.33 69.98 308.64 69.38 309.5 68.52C312.16 65.86 315.75 61.48 316.53 59.95C317.43 58.16 317.65 55.88 317.03 54.73C315.98 52.76 312 52.47 309.96 54.22C309.51 54.62 309.37 54.61 309.01 54.18C308.4 53.44 308.83 52.24 309.96 51.58C311.32 50.78 315.45 50.47 317.13 51.05C320.36 52.16 321.61 56.17 319.82 59.69C318.96 61.4 315.12 66.2 313.21 67.97C312.73 68.42 312.33 69.06 312.33 69.39C312.33 69.95 312.7 70 316.8 70C320.55 70 321.29 70.08 321.46 70.52C321.57 70.81 321.51 71.34 321.32 71.69C321 72.29 320.56 72.33 314.88 72.33C311.52 72.33 308.68 72.23 308.56 72.11ZM278.49 64.24C278.07 64.01 278 61.69 278 47.51C278 28.94 277.76 30.43 280.67 30.93L282.17 31.18L282.35 38.01C282.45 41.76 282.56 44.87 282.6 44.92C282.82 45.19 296.48 44.94 297.02 44.65C297.62 44.33 297.67 43.9 297.67 38.01C297.67 32.57 297.74 31.64 298.22 31.16C298.86 30.52 300.92 30.68 301.39 31.4C301.54 31.64 301.62 39.03 301.58 47.83L301.5 63.82L300.57 64.27C299.93 64.58 299.36 64.62 298.74 64.41L297.83 64.11L297.67 56.47L297.5 48.83L290 48.83L282.5 48.83L282.33 56.17C282.24 60.2 282.06 63.67 281.92 63.88C281.61 64.36 279.16 64.62 278.49 64.24ZM244.15 63.92C244.06 63.69 244.03 56.23 244.08 47.33L244.17 31.17L246.62 31.07C248.37 31 249.29 31.11 249.83 31.47C250.25 31.74 251.37 33.43 252.33 35.23C253.28 37.03 254.78 39.77 255.65 41.33C259.84 48.81 262.25 53.22 262.43 53.72C262.88 55 264.41 57.06 264.69 56.78C264.86 56.61 265.03 50.78 265.08 43.82L265.17 31.17L266.61 31.06C267.4 31.01 268.26 31.14 268.52 31.35C268.92 31.68 269 34.22 269 47.16C269 62.25 268.99 62.6 268.31 63.46C267.74 64.18 267.35 64.33 266.04 64.33C264.7 64.33 264.31 64.17 263.43 63.25C262.87 62.65 261.96 61.34 261.42 60.33C260.43 58.49 258.24 54.59 257.66 53.67C257.49 53.39 256.52 51.63 255.51 49.75C254.49 47.87 252.82 44.8 251.79 42.92C250.75 41.04 249.59 38.91 249.2 38.19C248.82 37.47 248.35 36.83 248.17 36.77C247.95 36.7 247.87 41.15 247.94 49.82C248.01 58.91 247.93 63.18 247.68 63.65C247.39 64.18 246.98 64.33 245.81 64.33C244.92 64.33 244.25 64.16 244.15 63.92Z" fill="#1e2749" fill-rule="evenodd"/>
</svg>
