<?xml version="1.0" encoding="UTF-8"?>
<svg xmlns="http://www.w3.org/2000/svg" viewBox="0 0 487 289" width="487" height="289" shape-rendering="geometricPrecision">
<path d="M426.27 266.64C425.74 266.34 424.62 263.38 424.16 261.08C423.75 259 422.19 260.01 421.46 262.84C420.8 265.43 420.2 266.33 419.15 266.33C417.96 266.33 417.85 265.66 418.62 263.09C419.64 259.68 421.29 254.06 421.87 252C422.16 250.99 422.59 249.52 422.85 248.74C423.37 247.11 423.23 246.47 422.31 246.23C421 245.89 421.73 245.38 423.85 245.15C425.05 245.02 426.12 245.01 426.24 245.12C426.42 245.31 425.86 247.61 424.82 250.83C423.37 255.37 422.78 258 423.23 258C423.39 258 424.4 257.23 425.45 256.29C427.17 254.76 427.35 254.48 427.15 253.61L426.94 252.63L429.14 252.73C430.35 252.79 431.37 252.98 431.41 253.17C431.45 253.35 430.88 253.83 430.15 254.24C429.43 254.65 428.18 255.55 427.38 256.25L425.92 257.51L426.5 259.67C426.82 260.86 427.16 262.24 427.25 262.74C427.5 264.2 428.21 264.56 429.11 263.72C430.58 262.34 430.8 263.1 429.45 264.88C428.34 266.32 427.02 267.06 426.27 266.64ZM70.25 263.61C69.6 263.38 69.33 263.05 69.33 262.49C69.33 261.36 69.76 261.24 71.79 261.84C73.98 262.47 75.06 262.25 76.17 260.94C77.89 258.89 77 256.29 74.15 255.03C72.51 254.3 72.23 253.52 73.49 253.2C74.53 252.94 76 250.81 76 249.56C76 248.39 74.37 246.66 73.28 246.67C72.85 246.67 71.86 247.04 71.08 247.48C69.61 248.33 69.42 248.23 70.02 246.93C70.9 245.04 73.81 244.16 76.07 245.1C78.48 246.11 79.15 248.7 77.53 250.82C76.49 252.19 76.44 252.86 77.35 253.34C79.13 254.3 79.94 257.87 78.84 259.98C77.35 262.87 73.11 264.66 70.25 263.61ZM206.76 263.61C205.43 263.25 203.79 261.34 202.96 259.16C202.14 256.98 202.1 251.97 202.89 249.45C203.65 247.06 205.03 245.44 206.71 244.99C209.37 244.27 211.63 245.61 213.04 248.75C213.72 250.25 213.83 251.02 213.83 254.17C213.83 257.52 213.75 258 212.89 259.75C211.45 262.69 209.03 264.21 206.76 263.61ZM346.25 263.61C345.6 263.38 345.33 263.05 345.33 262.49C345.33 261.36 345.76 261.24 347.79 261.84C349.98 262.47 351.06 262.25 352.17 260.94C353.89 258.89 353 256.29 350.15 255.03C348.51 254.3 348.23 253.52 349.49 253.2C350.53 252.94 352 250.81 352 249.56C352 248.39 350.37 246.66 349.28 246.67C348.85 246.67 347.86 247.04 347.08 247.48C346.3 247.93 345.67 248.16 345.67 248C345.67 246.52 348.06 244.67 349.97 244.67C353.69 244.67 355.65 248.05 353.53 250.82C352.49 252.19 352.44 252.86 353.35 253.34C355.13 254.3 355.94 257.87 354.84 259.98C353.35 262.87 349.11 264.66 346.25 263.61ZM113.33 262.86C113.33 262.6 114.5 261.21 115.92 259.77C119.59 256.05 121.1 253.67 121.27 251.33C121.39 249.69 121.3 249.34 120.51 248.4C119.72 247.47 119.4 247.33 118 247.33C116.74 247.33 116.15 247.53 115.34 248.21C114.14 249.22 113.85 249.1 114.15 247.73C114.42 246.49 115.47 245.53 117.12 245C119.82 244.14 122.85 245.55 123.83 248.12C124.37 249.52 124.37 249.72 123.85 251.28C123.17 253.32 121.9 255.14 119.12 258.05C117.95 259.27 117 260.44 117 260.66C117 261.07 121.82 260.96 123.91 260.5L124.99 260.26L124.61 261.38C123.95 263.35 124.01 263.33 118.46 263.33C114.25 263.33 113.33 263.25 113.33 262.86ZM165.82 262.98C165.7 262.78 165.65 262.59 165.72 262.56C167.25 261.76 167.17 262.22 167.17 254.8L167.17 247.84L166.25 247.4C165.75 247.16 165.33 246.86 165.34 246.73C165.34 246.35 167.91 245 168.63 245C169 245 169.39 245.15 169.5 245.34C169.62 245.52 169.7 249.19 169.68 253.49C169.65 260.98 169.68 261.34 170.34 262C170.71 262.38 170.93 262.84 170.83 263.01C170.55 263.45 166.09 263.42 165.82 262.98ZM251.67 262.85C251.67 262.58 251.97 262.19 252.34 262C252.99 261.65 253.01 261.37 252.92 254.74L252.83 247.84L251.92 247.4C251.41 247.16 251 246.85 251 246.71C251 246.32 253.8 245 254.62 245C255.07 245 255.34 245.21 255.34 245.58C255.35 245.9 255.35 249.64 255.33 253.89C255.31 261.42 255.33 261.63 256.03 262.11C257.17 262.92 256.47 263.33 253.98 263.33C252.17 263.33 251.67 263.23 251.67 262.85ZM298.67 262.79C298.67 262.5 299.68 261.26 300.93 260.04C305.36 255.72 307.43 252.05 306.67 249.88C306.04 248.05 305.07 247.33 303.24 247.33C301.85 247.33 301.46 247.48 300.67 248.33C300.15 248.88 299.64 249.33 299.53 249.33C299.05 249.33 299.4 247.51 300.05 246.6C301.42 244.67 304.08 244.16 306.55 245.36C308.4 246.25 309.33 247.77 309.33 249.87C309.33 252 308.19 253.97 304.87 257.64C303.48 259.19 302.33 260.58 302.33 260.73C302.33 260.88 303.55 261 305.03 261C306.98 261 308 260.84 308.7 260.43C310.15 259.57 310.57 260.22 309.69 261.96L308.99 263.33L303.83 263.33C299.3 263.33 298.67 263.27 298.67 262.79ZM209.24 261.83C210.38 261.03 211 258.24 211 253.92C211 248.24 209.8 245.56 207.51 246.13C206.02 246.51 205.55 248.03 205.4 252.91C205.23 258.02 205.43 259.77 206.34 261.26C207.07 262.46 208.06 262.65 209.24 261.83ZM60.13 257.85C60.03 257.59 60 257.1 60.06 256.77C60.16 256.25 60.59 256.15 63.17 256.07C66.66 255.96 67.69 256.37 67.03 257.61C66.67 258.27 66.39 258.33 63.48 258.33C61.03 258.33 60.27 258.22 60.13 257.85ZM104.79 257.85C104.69 257.59 104.66 257.1 104.73 256.77C104.83 256.25 105.26 256.15 107.88 256.07C110.36 255.99 111.03 256.08 111.48 256.53C111.99 257.04 111.99 257.12 111.46 257.71C110.99 258.23 110.41 258.33 107.94 258.33C105.67 258.33 104.94 258.22 104.79 257.85ZM153.79 257.85C153.69 257.59 153.66 257.1 153.73 256.77C153.83 256.25 154.26 256.15 156.88 256.07C159.36 255.99 160.03 256.08 160.48 256.53C160.99 257.04 160.99 257.12 160.46 257.71C159.99 258.23 159.41 258.33 156.94 258.33C154.67 258.33 153.94 258.22 153.79 257.85ZM436 238.77C434.55 238.25 434.23 236.19 435.42 235.1C435.83 234.72 436.79 234.09 437.56 233.71C438.33 233.32 439.05 232.86 439.16 232.68C439.29 232.47 424.55 232.35 396.82 232.34L354.28 232.33L352.79 233.83C349.85 236.76 346.91 236.75 344.11 233.8L342.73 232.33L325.52 232.33L308.32 232.33L306.91 233.8C304.15 236.67 300.75 236.68 298.11 233.83L296.73 232.33L279.4 232.33L262.08 232.33L261.16 233.54C258.76 236.68 254.43 236.75 251.96 233.67L250.89 232.33L210.73 232.33L170.56 232.33L169.43 233.66C168.25 235.04 165.83 236.33 164.44 236.33C163.19 236.33 161.18 235.16 159.92 233.68L158.77 232.33L141.72 232.33L124.66 232.33L123.42 233.71C122.12 235.15 119.88 236.33 118.46 236.33C117.19 236.33 115.19 235.16 113.92 233.68L112.77 232.33L95.67 232.33L78.56 232.33L77.43 233.66C76.25 235.04 73.83 236.33 72.44 236.33C71.22 236.33 69.23 235.19 67.99 233.77L66.87 232.5L52.69 232.33L38.5 232.17L38.2 230.96C38.04 230.3 38 229.36 38.12 228.88L38.34 228.01L52.58 227.92L66.82 227.83L67.26 226.92C67.5 226.42 68.19 225.63 68.8 225.17C69.75 224.44 70.23 224.33 72.49 224.33C75.49 224.33 76.84 224.95 78.01 226.85L78.72 228.01L95.77 227.92L112.82 227.83L113.26 226.92C113.5 226.42 114.19 225.63 114.8 225.17C115.76 224.44 116.23 224.33 118.54 224.33C120.81 224.33 121.35 224.45 122.42 225.18C123.1 225.64 123.89 226.47 124.17 227.01L124.69 228.01L141.76 227.92L158.82 227.83L159.26 226.92C159.5 226.42 160.19 225.63 160.8 225.17C161.75 224.44 162.23 224.33 164.48 224.33C167.47 224.33 168.55 224.81 169.89 226.74L170.76 228L189.15 228C203 228 207.63 227.9 207.93 227.6C208.24 227.29 208.33 214.96 208.33 174.12L208.33 121.03L207.12 120.1C203.73 117.53 203.95 112.11 207.51 110.1C211.46 107.86 216.47 110.7 216.46 115.17C216.45 117.08 215.79 118.34 213.92 119.98L212.67 121.07L212.67 174.53L212.67 228L231.66 228L250.66 228L251.5 226.73C252.59 225.08 254.19 224.33 256.59 224.33C258.81 224.34 260.12 225 261.5 226.81L262.42 228.01L279.62 227.92L296.82 227.83L297.27 226.91C298.03 225.32 300 224.33 302.41 224.33C304.82 224.34 306.09 224.95 307.5 226.8L308.41 228L325.55 228L342.69 228L343.39 226.82C344.34 225.21 346.16 224.33 348.57 224.33C350.81 224.34 352.12 224.99 353.5 226.8L354.41 228L396.85 228C420.2 228 439.37 227.88 439.46 227.73C439.56 227.58 438.66 226.88 437.48 226.19C436.29 225.5 435.17 224.65 434.99 224.32C434.55 223.49 434.58 222.22 435.07 221.73C436 220.8 437.57 221.32 442.26 224.08C448.03 227.49 448.85 227.96 450.42 228.79C452.41 229.86 452.09 230.39 448.17 232.52C446.88 233.22 444.93 234.33 443.83 235C441.4 236.47 436.8 239.01 436.63 238.97C436.56 238.96 436.27 238.87 436 238.77ZM233.2 119.05C233.1 118.89 233.39 118.42 233.84 117.99C234.66 117.22 234.67 117.18 234.67 110.97C234.67 107.53 234.57 104.47 234.45 104.17C234.34 103.86 233.89 103.48 233.45 103.32C232.33 102.89 232.47 102.55 234.12 101.73C235.84 100.87 236.85 100.8 237.13 101.53C237.24 101.82 237.33 105.63 237.33 110.01C237.33 117.04 237.4 118 237.88 118.27C238.94 118.87 237.97 119.33 235.67 119.33C234.4 119.33 233.29 119.21 233.2 119.05ZM129.12 89.82C129.01 89.54 129.16 89.04 129.46 88.71C129.8 88.34 130 87.52 130 86.53C130 85.16 129.72 84.51 127.94 81.72C126.81 79.95 125.53 78.12 125.11 77.65C124.68 77.18 124.33 76.69 124.33 76.57C124.33 76.28 128.48 76.25 128.76 76.54C128.87 76.65 128.8 77 128.6 77.32C128.3 77.79 128.47 78.3 129.45 79.91C131.34 83.03 131.4 83.04 133 80.63C134.16 78.88 134.35 78.36 134.18 77.44L133.97 76.33L135.65 76.33C137.39 76.33 137.71 76.61 136.82 77.34C136.32 77.76 134.33 80.56 134.33 80.85C134.33 80.94 133.88 81.63 133.33 82.39C132.43 83.64 132.33 84.01 132.33 86.36C132.33 87.82 132.49 89.06 132.68 89.18C132.92 89.32 132.91 89.54 132.64 89.86C132.09 90.52 129.37 90.49 129.12 89.82ZM141.07 89.27C140.77 88.97 140.67 85.47 140.67 75.6L140.67 62.33L143.25 62.28C147.2 62.2 147.81 62.32 147.08 63.05C146.88 63.26 145.99 63.44 145.1 63.46L143.5 63.5L143.5 75.83L143.5 88.17L145.42 88.27C147.37 88.37 147.65 88.55 146.93 89.27C146.4 89.8 141.6 89.8 141.07 89.27ZM163.89 89.44C163.26 88.81 163.74 88.33 165.02 88.33C167.84 88.33 167.67 89.18 167.67 75.67L167.67 63.7L166.58 63.52C165.99 63.42 165.06 63.3 164.53 63.25C163.99 63.21 163.49 62.97 163.41 62.74C163.3 62.4 164.03 62.33 166.72 62.4L170.17 62.5L170.25 75.47C170.36 90.76 170.63 89.67 166.67 89.67C165.26 89.67 164.01 89.57 163.89 89.44ZM157.27 83.64C156.74 83.34 155.62 80.38 155.16 78.08C154.75 76.01 153.29 76.97 152.49 79.83C151.75 82.48 151.18 83.33 150.15 83.33C148.96 83.33 148.85 82.66 149.62 80.09C150.64 76.68 152.29 71.06 152.87 69C153.16 67.99 153.59 66.52 153.85 65.74C154.37 64.11 154.23 63.47 153.31 63.23C152.17 62.93 152.62 62.43 154.21 62.21C157.59 61.75 157.77 61.9 156.86 64.49C156.6 65.23 156.14 66.73 155.83 67.83C155.52 68.93 155.07 70.44 154.83 71.18C154.17 73.21 153.89 75 154.23 75C154.4 75 155.4 74.23 156.45 73.29C158.16 71.77 158.34 71.48 158.16 70.62L157.95 69.67L160.31 69.67C162.9 69.67 163.28 70.03 161.63 70.93C160.11 71.77 157.43 73.93 157.22 74.49C157.12 74.75 157.25 75.77 157.52 76.74C157.79 77.71 158.1 78.99 158.21 79.58C158.52 81.2 159.18 81.59 160.11 80.72C161.58 79.34 161.8 80.1 160.45 81.88C159.34 83.32 158.02 84.06 157.27 83.64ZM104.83 82.99C104.57 82.57 104.54 82.6 105.77 82.07C106.76 81.64 107.35 80.53 108.15 77.58C108.41 76.62 109.18 73.88 109.85 71.5C111.71 64.93 111.67 65.18 110.96 64.01C110.62 63.45 110.33 62.91 110.33 62.83C110.33 62.49 118.16 62.69 119.39 63.06C120.11 63.27 121.14 63.95 121.68 64.57C123.75 66.92 122.59 70.55 119.22 72.34C118.25 72.86 117.67 73.39 117.67 73.77C117.67 74.86 119.68 80.6 120.37 81.47C120.74 81.95 121.27 82.33 121.55 82.33C121.83 82.33 121.99 82.52 121.92 82.75C121.83 83.02 121.06 83.17 119.69 83.17L117.59 83.17L116.99 81.5C116.65 80.58 115.98 78.51 115.5 76.9C114.81 74.61 114.44 73.88 113.83 73.6C113.4 73.41 112.84 73.32 112.59 73.42C112.1 73.61 110.33 79.69 110.33 81.18C110.33 81.79 110.54 82.12 111.01 82.24C111.39 82.34 111.64 82.59 111.57 82.79C111.4 83.3 105.14 83.49 104.83 82.99ZM116.67 71.49C118.24 70.68 119.09 69.45 119.25 67.73C119.45 65.69 119 64.83 117.48 64.33C115.29 63.6 114.86 63.97 114 67.24C113.57 68.85 113.08 70.45 112.9 70.81C112.19 72.23 114.43 72.64 116.67 71.49Z" fill="#1e2749" fill-rule="evenodd"/>
</svg>
