<?xml version="1.0" encoding="UTF-8"?>
<svg xmlns="http://www.w3.org/2000/svg" viewBox="0 0 2430 658" width="2430" height="658" shape-rendering="geometricPrecision">
<path d="M26.75 646.62C19.46 643.92 12.92 637.47 9.91 630C7.63 624.33 8.13 612.46 10.92 606.21C16.27 594.22 30.68 588.13 44.15 592.16C47.24 593.09 48.54 593.05 50.58 591.96C53.91 590.17 54.66 591.35 55.57 599.81C56.1 604.72 55.92 606.51 54.81 607.62C53.56 608.87 53.06 608.58 50.94 605.36C49.6 603.32 46.83 600.32 44.79 598.69C41.71 596.22 40.16 595.71 35.72 595.71C29.18 595.71 25.71 597.76 22.69 603.4C20.81 606.92 20.5 609.07 20.52 618.5C20.55 632.09 22.54 636.98 29.31 640.05C36.98 643.53 41.92 642.56 49.4 636.09C52 633.84 54.54 632 55.06 632C56.82 632 56 634.54 53.11 638.06C46.99 645.48 34.57 649.52 26.75 646.62ZM63 644.8C63 644.15 64.24 642.32 65.75 640.74C68.49 637.88 68.5 637.84 68.83 621.19C69.16 604.08 68.3 597.71 65.49 596.63C61.46 595.09 66.77 590 72.41 590C75.71 590 75.89 591.33 76.23 617.67C76.49 637.67 76.62 639 78.7 641.8C79.9 643.44 80.62 645.05 80.28 645.39C79.07 646.6 63 646.06 63 644.8ZM63 563.86C63 559.95 73.61 548.65 127.58 495.07L181.1 441.93L180.88 350.94C180.75 296.51 181.03 259.58 181.58 259.03C182.09 258.53 192.18 252.55 204 245.73C215.82 238.91 230 230.71 235.5 227.51C261.38 212.43 341.85 166.6 347.07 163.96C350.3 162.33 353.31 161 353.76 161C354.91 161 380.64 175.44 405.5 190.03C417.05 196.81 428.98 203.79 432 205.54C435.02 207.29 448.07 214.93 461 222.5C490.16 239.6 513.45 252.74 517.82 254.57C521.74 256.21 519.49 257.43 543.5 240.58C552.85 234.01 565 225.49 570.5 221.63C576 217.78 584.71 211.68 589.86 208.07C601.86 199.65 601.15 200.15 617 189.12C624.42 183.95 631.74 178.57 633.25 177.17L636 174.63L636 119.89C636 89.79 636.27 64.45 636.61 63.58C637.37 61.59 640.6 61.51 641.35 63.47C642.29 65.93 642.95 85.51 643.52 127.95C643.81 150.19 644.21 168.54 644.4 168.73C644.59 168.92 650.76 165.01 658.12 160.05C665.48 155.09 672.44 151.02 673.58 151.01C674.73 151.01 683.06 155.24 692.08 160.42C702.79 166.56 708.85 169.5 709.5 168.87C710.13 168.26 710.62 150.41 710.83 120.7C711.01 94.74 711.46 71.03 711.84 68C712.44 63.03 712.74 62.5 714.93 62.5C716.69 62.5 717.54 63.21 718.05 65.09C718.87 68.16 719.94 116.25 719.97 151.71L720 176.91L727.25 181.12C731.24 183.43 740.35 188.8 747.5 193.05C754.65 197.31 764.33 203 769 205.71C799.47 223.34 850.36 253.87 854.81 257.19C859.14 260.42 859.9 261.42 858.94 262.58C858.29 263.36 857.32 264 856.78 264C853.59 264 831.23 251.41 763.5 211.45C717.46 184.29 674.96 160 673.48 160C672.17 160 651.28 174.11 616.39 198.59C603.12 207.89 577.14 226.07 558.65 239L525.03 262.5L525.02 354.08L525 445.65L522.75 447.74C521.51 448.88 508.8 458.03 494.5 468.07C480.2 478.1 452.75 497.37 433.5 510.88C414.25 524.38 391.17 540.48 382.2 546.64L365.9 557.84L355.2 551.56C349.32 548.1 325.15 533.9 301.5 519.98C277.85 506.07 250.85 490.21 241.5 484.74C232.15 479.27 222.93 473.87 221 472.74C199.43 460.09 186.46 453 184.87 453C182.3 453 172.08 462.52 104.56 527.88C82.85 548.9 64.43 566 63.52 566C63.23 566 63 565.04 63 563.86ZM383.07 536.75C400.82 524.64 405.63 521.29 471.85 474.98L515.5 444.46L515.5 354.03L515.5 263.6L505.5 257.68C500 254.43 486.5 246.48 475.5 240.01C464.5 233.54 441.77 220.18 425 210.31C379.66 183.64 355.5 170 353.61 170C351.27 170 328.55 182.73 217.25 246.39L188 263.12L188 310.4C188 336.4 188.3 377.3 188.66 401.29L189.32 444.91L210.91 457.64C222.79 464.64 239.47 474.49 248 479.54C289.7 504.21 304.26 512.76 325 524.74C349.92 539.13 365.21 547.76 366.04 547.9C366.34 547.96 374.01 542.94 383.07 536.75ZM1053 482.17C1053 481.17 1054.17 479.26 1055.6 477.92C1061.76 472.17 1064.97 461.71 1064.99 447.36C1065 434.89 1062.73 426.75 1057.02 418.76C1054.81 415.68 1053 412.89 1053 412.58C1053 409.14 1065.58 419.69 1069.46 426.38C1072.67 431.94 1074.29 441.02 1073.86 451.16C1073.56 458.13 1072.96 460.64 1070.31 466.03C1064.92 476.96 1053 488.09 1053 482.17ZM1288 479.37C1288 479.03 1289.58 477 1291.5 474.87C1295.47 470.48 1295.86 469 1293.06 469C1290.88 469 1288 465.48 1288 462.81C1288 458.11 1297.99 458.69 1300.19 463.53C1301.75 466.95 1300.44 470.56 1295.84 475.56C1292.35 479.35 1288 481.46 1288 479.37ZM1384.75 479.31C1383.79 479.06 1383 477.93 1383 476.8C1383 474.92 1383.41 474.8 1387.87 475.39C1397.19 476.63 1400.24 469.79 1392.5 465C1390.58 463.81 1389 462.39 1389 461.85C1389 461.31 1390.35 459.73 1392 458.35C1395.53 455.38 1395.73 453.97 1392.96 451.47C1391.16 449.84 1390.52 449.77 1387.39 450.9C1385.44 451.61 1383.6 451.94 1383.3 451.63C1382.31 450.64 1383.84 448.15 1386.53 446.39C1390.53 443.77 1394.66 444.2 1398.01 447.58C1400.77 450.38 1400.84 450.68 1399.72 454.83C1398.66 458.72 1398.77 459.55 1400.79 463.06C1402.85 466.63 1402.92 467.25 1401.65 470.23C1398.66 477.25 1391.52 481.08 1384.75 479.31ZM2017.25 478.34C2016.56 478.06 2016 477.2 2016 476.42C2016 475.4 2017.28 475 2020.5 475C2029.11 475 2031.92 468.17 2024.75 464.67C2022.69 463.66 2021 462.51 2021 462.1C2021 461.7 2022.35 460.08 2024 458.5C2030.23 452.53 2026.27 448.27 2017.59 451.6C2015.19 452.52 2015.62 449.69 2018.25 447.29C2022.85 443.08 2028.37 443.58 2031.59 448.5C2033.07 450.75 2033.12 451.6 2032.02 454.95C2030.92 458.26 2030.97 459.12 2032.37 461.12C2035.63 465.77 2033.71 473.99 2028.59 477.35C2026.21 478.91 2020 479.45 2017.25 478.34ZM1189.4 467.03C1184.22 464.73 1178.82 459.2 1175.84 453.17C1172.59 446.58 1172.5 432.39 1175.67 426.5C1184.11 410.8 1206.59 407.66 1217.95 420.6C1224.77 428.37 1227.59 439.47 1225.08 448.73C1223.71 453.79 1214.53 464.18 1208.87 467.07C1204.02 469.54 1195 469.53 1189.4 467.03ZM1424.42 467.1C1419.24 464.75 1413.8 459.17 1410.84 453.17C1407.59 446.58 1407.5 432.39 1410.67 426.5C1419.11 410.8 1441.59 407.66 1452.95 420.6C1459.77 428.37 1462.59 439.47 1460.08 448.73C1458.71 453.79 1449.53 464.18 1443.87 467.07C1438.93 469.59 1429.92 469.6 1424.42 467.1ZM2057.49 466.65C2047.49 461.99 2041.65 452.22 2041.56 440C2041.47 428.85 2045.33 421.23 2053.5 416.45C2064.07 410.26 2076.07 411.34 2084.66 419.26C2091.15 425.23 2093.26 429.93 2093.79 439.56C2094.28 448.57 2092.85 452.68 2086.82 459.55C2078.82 468.67 2067.64 471.37 2057.49 466.65ZM1015.75 467.28C1014.23 467.05 1013 466.23 1013 465.44C1013 464.66 1016.41 460.31 1020.57 455.79C1030.32 445.2 1035.34 436.41 1035.43 429.74C1035.49 425.73 1035.06 424.47 1033.14 422.91C1028.87 419.46 1020.6 420.9 1017.49 425.65C1015.27 429.04 1013.62 428.65 1014.37 424.92C1015.82 417.67 1021.75 413 1029.5 413C1047.89 413 1048.9 431.98 1031.51 450.76C1027.93 454.63 1025 458.26 1025 458.83C1025 461.57 1034.87 461.32 1041.87 458.4C1046.48 456.49 1047 456.61 1047 459.58C1047 461.09 1045.8 463.36 1044.08 465.08C1041.17 467.99 1041.1 468 1029.83 467.85C1023.6 467.77 1017.26 467.51 1015.75 467.28ZM1102.08 467.12C1097.85 466.35 1097.15 464.71 1100.42 463.22C1103.8 461.68 1104.19 458.75 1103.82 437.34C1103.54 421.61 1103.26 418.94 1101.71 417.23C1099.98 415.32 1100.01 415.25 1103.09 414.63C1104.83 414.28 1113.63 414 1122.66 414C1140.92 414 1140.91 414 1139.33 420.66C1138.32 424.94 1136.47 426.05 1135.49 422.96C1134.48 419.8 1129.07 418 1120.53 418L1113 418L1113 427.5L1113 437L1118.93 437C1126.54 437 1129.77 435.75 1130.59 432.49C1131.86 427.42 1133.5 430.59 1133.79 438.68C1134 444.66 1133.72 446.99 1132.65 447.87C1131.5 448.83 1131.12 448.6 1130.63 446.65C1130.27 445.23 1128.77 443.73 1126.93 442.97C1123.82 441.68 1115.36 441.31 1114.26 442.41C1113.93 442.73 1113.46 446.56 1113.21 450.92C1112.77 458.49 1112.87 458.97 1115.46 461.55C1117.96 464.05 1118.59 464.21 1123.69 463.61C1130.3 462.83 1132.35 461.87 1137.16 457.27C1142 452.64 1143.31 453.59 1141.34 460.27C1140.49 463.15 1139.34 466.06 1138.78 466.75C1137.69 468.07 1108.97 468.36 1102.08 467.12ZM1155.76 466.93C1152.56 465.06 1151.65 461.58 1150.99 448.74C1150.45 437.95 1150.06 435.77 1148.5 434.62C1146.71 433.31 1146.71 433.19 1148.58 430.28C1152.83 423.65 1156.55 419.1 1157.5 419.37C1158.05 419.52 1158.92 421.87 1159.44 424.57C1160.46 429.95 1161.31 430.96 1164.83 430.98C1168.14 431.01 1167.03 433.27 1163.17 434.38L1160 435.29L1160 446.95C1160 455.16 1160.4 459.16 1161.35 460.46C1162.28 461.74 1162.91 461.95 1163.41 461.15C1164.12 460 1168 459.5 1168 460.57C1168 462.28 1165.57 465.17 1163.02 466.49C1159.63 468.24 1158.17 468.33 1155.76 466.93ZM1228.25 467.36C1225.17 466.68 1225.43 465.35 1229 463.5L1232 461.95L1231.99 440.72L1231.99 419.5L1228.99 417.8C1223.75 414.81 1225.35 414 1236.5 414C1242.28 414 1247 414.27 1247 414.6C1247 414.93 1245.65 416.46 1244 418C1241.14 420.67 1241 421.19 1241 428.93L1241 437.07L1252.25 436.78L1263.5 436.5L1263.79 428.29C1264.04 421.09 1263.82 419.82 1262 418C1260.86 416.86 1260.2 415.49 1260.52 414.96C1261.18 413.89 1274.88 413.63 1277.51 414.64C1278.93 415.19 1278.75 415.62 1276.34 417.55L1273.5 419.81L1273.16 435.58C1272.97 444.26 1273.12 453.78 1273.49 456.74C1274.06 461.36 1274.6 462.4 1277.27 464.02L1280.38 465.91L1277.62 466.95C1274.64 468.09 1263.89 468.34 1260.25 467.37C1258.05 466.78 1257.02 464 1259 464C1259.55 464 1260.9 463.1 1262 462C1263.69 460.31 1264 458.67 1264 451.5L1264 443L1252.5 443L1241 443L1241 451.55C1241 459.14 1241.26 460.35 1243.31 462.4C1244.58 463.67 1246.26 464.93 1247.06 465.22C1250.11 466.29 1246.79 467.23 1238.81 467.53C1234.24 467.71 1229.49 467.63 1228.25 467.36ZM1328.25 467.36C1325.17 466.68 1325.43 465.35 1329 463.5L1332 461.95L1331.99 440.72L1331.99 419.5L1328.99 417.8C1323.75 414.81 1325.35 414 1336.5 414C1342.28 414 1347 414.27 1347 414.6C1347 414.93 1345.65 416.46 1344 418C1341.14 420.67 1341 421.19 1341 428.93L1341 437.07L1352.25 436.78L1363.5 436.5L1363.79 428.29C1364.04 421.09 1363.82 419.82 1362 418C1360.86 416.86 1360.2 415.49 1360.52 414.96C1361.18 413.89 1374.88 413.63 1377.51 414.64C1378.93 415.19 1378.75 415.62 1376.34 417.55L1373.5 419.81L1373.16 435.58C1372.97 444.26 1373.12 453.78 1373.49 456.74C1374.06 461.36 1374.6 462.4 1377.27 464.02L1380.38 465.91L1377.62 466.95C1372.1 469.05 1358 467.92 1358 465.38C1358 464.62 1358.45 464 1359 464C1359.55 464 1360.9 463.1 1362 462C1363.69 460.31 1364 458.67 1364 451.5L1364 443L1352.5 443L1341 443L1341 451.55C1341 459.14 1341.26 460.35 1343.31 462.4C1344.58 463.67 1346.26 464.93 1347.06 465.22C1350.11 466.29 1346.79 467.23 1338.81 467.53C1334.24 467.71 1329.49 467.63 1328.25 467.36ZM1959.75 467.34C1956.08 466.71 1956.28 465.71 1960.5 463.7L1964 462.03L1963.99 440.77L1963.99 419.5L1960.99 417.8C1955.8 414.84 1957.35 414 1968 414C1973.5 414 1978 414.37 1978 414.82C1978 415.27 1976.88 416.62 1975.5 417.81C1973.2 419.81 1973 420.66 1973 428.53L1973 437.07L1984.25 436.78L1995.5 436.5L1995.8 429.58C1996.12 422.19 1994.83 417.53 1992.19 416.52C1990.78 415.98 1990.76 415.77 1992.03 414.96C1993.68 413.92 2008.31 413.64 2009.31 414.64C2009.66 414.99 2008.83 416.6 2007.47 418.22C2005.04 421.11 2005 421.45 2005 439.43C2005 458.56 2005.8 463.45 2009.06 464.31C2011.68 464.99 2011.51 466.63 2008.75 467.37C2003.63 468.74 1990 467.71 1990 465.95C1990 465.51 1991.35 463.8 1993 462.15C1995.84 459.32 1996 458.72 1996 451.08L1996 443L1984.5 443L1973 443L1973 452C1973 461.2 1974 463.77 1978.12 465.24C1978.88 465.51 1979.16 466.09 1978.75 466.53C1977.89 467.45 1963.86 468.05 1959.75 467.34ZM1206.1 461.75C1208.13 460.41 1210.63 457.24 1212.31 453.89C1214.65 449.21 1215.11 447.02 1215.11 440.6C1215.11 426.61 1209.06 418.01 1199.2 418C1189.48 418 1184.79 424.42 1184.6 437.98C1184.45 449.23 1185.64 454.52 1189.26 458.65C1194.41 464.51 1200.29 465.6 1206.1 461.75ZM1441.1 461.75C1443.13 460.41 1445.63 457.24 1447.31 453.89C1449.65 449.21 1450.11 447.02 1450.11 440.6C1450.11 426.61 1444.06 418.01 1434.2 418C1424.48 418 1419.79 424.42 1419.6 437.98C1419.45 449.23 1420.64 454.52 1424.26 458.65C1429.41 464.51 1435.29 465.6 1441.1 461.75ZM2077.16 459.2C2086.18 449.53 2085.87 429.57 2076.56 421C2074.24 418.87 2072.88 418.5 2067.31 418.5C2060.96 418.5 2060.67 418.61 2057.43 422.37C2053.46 426.96 2052.58 431.38 2053.18 443.86C2053.48 450.25 2054.14 453.56 2055.6 456.06C2060.88 465.09 2070.37 466.47 2077.16 459.2ZM1464.5 416.05C1463.4 415.59 1461.38 414.01 1460 412.53C1457.73 410.09 1457.47 408.9 1457.16 399.6C1456.84 389.83 1456.95 389.22 1459.39 386.31C1463 382.03 1466.89 380.68 1474.15 381.2C1479.5 381.59 1480.66 382.06 1483.1 384.79C1491.04 393.68 1488.33 409.6 1477.91 415.19C1474.4 417.07 1467.97 417.48 1464.5 416.05ZM2095.9 414.72C2091.65 411.86 2090.13 407.58 2090.06 398.32C2089.99 389.53 2090.91 386.91 2095.14 383.9C2099.4 380.86 2109.26 380.05 2113.74 382.37C2121.31 386.28 2123.45 401.78 2117.5 409.59C2111.72 417.17 2102.72 419.31 2095.9 414.72ZM1480.46 405.77C1481.99 402.09 1481.98 402.03 1479.56 401.43C1478.22 401.09 1476.64 401.11 1476.06 401.46C1474.89 402.19 1474.59 410.26 1475.69 411.36C1476.7 412.36 1478.68 410.04 1480.46 405.77ZM2113.72 406.12C2115.35 402.23 2114.44 400.66 2110.87 401.17C2108.29 401.53 2107.3 405.06 2108.46 409.71C2109 411.85 2109.3 412 2110.7 410.84C2111.58 410.1 2112.95 407.98 2113.72 406.12ZM1468.82 407.11C1469.2 403.24 1467.45 400.79 1464.6 401.2C1461.77 401.61 1461.58 403.85 1464.02 407.82C1466.47 411.81 1468.38 411.53 1468.82 407.11ZM2101.5 405.92C2101.5 401.84 2101.29 401.48 2098.75 401.18C2096.32 400.9 2096 401.2 2096 403.71C2096 407 2098.65 411.28 2100.34 410.72C2100.99 410.5 2101.5 408.37 2101.5 405.92ZM345.89 399.55C325.11 393.82 309.34 371.22 311.44 350.18C314.1 323.5 335.91 305.5 362.43 308.1C378.06 309.63 393 320.13 400.13 334.61C403.41 341.28 403.5 341.78 403.5 354C403.5 366.16 403.4 366.75 400.21 373.22C390.24 393.47 366.16 405.14 345.89 399.55ZM1469 390.31C1469 387.5 1466.59 386.27 1464.49 388.01C1462.7 389.49 1462.54 393.14 1464.19 394.79C1465.83 396.43 1469 393.48 1469 390.31ZM1480.31 394.75C1481.89 393.58 1481.87 393.28 1480.01 390.25C1477.22 385.67 1475 385.96 1475 390.92C1475 394.34 1475.77 395.6 1478.06 395.92C1478.37 395.96 1479.38 395.44 1480.31 394.75ZM2100.8 394.8C2101.46 394.14 2102 392.08 2102 390.23C2102 387.32 2101.7 386.9 2099.77 387.18C2096.89 387.59 2095.1 392.2 2096.95 394.44C2098.51 396.31 2099.22 396.38 2100.8 394.8ZM2114.04 394.45C2115.1 393.17 2114.98 392.45 2113.3 390.2C2110.24 386.1 2108 386.11 2108 390.23C2108 395.41 2111.32 397.73 2114.04 394.45ZM373.88 389.1C408.83 371.24 402.16 323.59 363.63 315.85C352.32 313.58 337.68 318.29 329.94 326.68C316.2 341.59 315.63 365.63 328.7 380.09C333.38 385.27 337 387.8 343.89 390.7C348.7 392.73 350.79 393.02 358.5 392.72C366.29 392.41 368.35 391.93 373.88 389.1ZM1646.54 373.06C1646.22 372.55 1647.13 370.97 1648.55 369.54C1651.11 366.98 1658.7 351.79 1667.04 332.5C1669.43 327 1671.79 321.94 1672.31 321.25C1674.69 318.07 1675.83 319.76 1684.28 339C1690.71 353.63 1697.45 366.85 1699.67 369.17C1701.07 370.64 1701.92 372.32 1701.55 372.92C1701.15 373.57 1697.13 374 1691.44 374C1684.09 374 1682 373.7 1682 372.62C1682 371.86 1682.67 370.68 1683.5 370C1685.4 368.43 1685.41 365.69 1683.54 362.07C1681.67 358.47 1680.35 358 1672 358C1663.65 358 1662.33 358.47 1660.46 362.07C1658.47 365.92 1658.63 368.35 1661 370.5C1662.1 371.5 1663 372.69 1663 373.15C1663 374.32 1647.26 374.23 1646.54 373.06ZM2377.67 373.33C2376.47 372.14 2376.95 371.34 2379.6 370.14L2382.2 368.95L2381.85 348.06C2381.51 328.01 2381.41 327.06 2379.25 324.77C2378.01 323.45 2377 322.03 2377 321.62C2377 321.21 2384.87 321.01 2394.49 321.19L2411.98 321.5L2416.1 325.62C2419.35 328.88 2420.32 330.67 2420.72 334.17C2421.14 337.89 2420.8 339.08 2418.61 341.69C2415.39 345.51 2415.35 346.7 2418.37 349.08C2419.68 350.11 2421.53 352.6 2422.49 354.62C2423.92 357.63 2424.03 358.94 2423.14 361.92C2421.73 366.64 2416.54 371.54 2411.5 372.9C2407.19 374.07 2378.77 374.43 2377.67 373.33ZM1567.46 371.94C1566.1 369.73 1568.22 365.96 1575.12 358.36L1582.27 350.5L1294.38 349.8C1136.05 349.41 1000.99 348.8 994.25 348.45C985.36 347.98 982 347.45 982 346.53C982 345.77 983.92 345 986.75 344.62C994.52 343.57 1238.32 342.11 1415.69 342.05C1529.61 342.02 1581.08 341.68 1581.53 340.95C1581.88 340.38 1578.76 336.33 1574.59 331.96C1567.51 324.56 1565.61 320.98 1567.98 319.51C1569.83 318.37 1573.53 321.24 1585.72 333.32L1597.94 345.41L1590.22 353.4C1580.86 363.09 1570.11 373 1568.96 373C1568.5 373 1567.82 372.52 1567.46 371.94ZM2317.46 371.94C2316.1 369.73 2318.22 365.96 2325.12 358.36L2332.27 350.5L2044.38 349.8C1886.05 349.41 1750.99 348.8 1744.25 348.45C1735.23 347.97 1732 347.46 1732 346.5C1732 345.74 1733.74 344.97 1736.25 344.63C1743.65 343.62 1993.09 342.12 2165.19 342.06C2279.45 342.02 2331.08 341.68 2331.53 340.95C2331.88 340.38 2328.76 336.33 2324.59 331.96C2316.51 323.5 2315.04 320 2319.6 320C2321.57 320 2325.26 323.01 2335.1 332.67L2348.01 345.35L2340.25 353.37C2330.87 363.08 2320.11 373 2318.96 373C2318.5 373 2317.82 372.52 2317.46 371.94ZM2403.38 368.91C2409.36 367.25 2412.18 363.86 2411.81 358.77C2411.36 352.64 2407.15 350 2397.85 350L2391 350L2391 358C2391 369.36 2393.57 371.63 2403.38 368.91ZM1677.38 348.5C1677.24 345.11 1674.04 337.82 1672.46 337.31C1671.22 336.91 1666 347.21 1666 350.07C1666 351.91 1666.54 352.07 1671.75 351.8C1677.44 351.5 1677.5 351.47 1677.38 348.5ZM2404.52 342.56C2406.78 341.61 2408.58 339.85 2409.71 337.49C2411.26 334.23 2411.28 333.59 2409.95 331.18C2407.95 327.58 2402.51 325 2396.88 325C2392.49 325 2392.22 325.17 2391.62 328.12C2390.8 332.27 2390.82 342.49 2391.67 343.33C2392.86 344.53 2400.98 344.04 2404.52 342.56ZM1194.5 323C1193.75 321.78 1194.77 319.94 1197.17 318.2C1200.3 315.95 1204.01 308.46 1205.51 301.36C1209.07 284.54 1205.95 267.22 1197.55 257.24C1196.15 255.57 1195 253.71 1195 253.11C1195 250.46 1198.63 252.45 1204.43 258.25C1212.45 266.27 1214.91 272.44 1215.7 286.47C1216.21 295.46 1216.03 297.07 1213.96 302C1210.94 309.16 1204.6 318.31 1200.43 321.48C1196.87 324.2 1195.47 324.56 1194.5 323ZM1919.44 318.48C1912.87 311.42 1909.49 304.43 1908.06 294.94C1906.13 282.1 1909.22 268.56 1916.06 259.92C1919.36 255.75 1924.76 252 1927.45 252C1928.97 252 1928.93 252.31 1927.05 254.75C1918.76 265.5 1916.7 272.1 1916.77 287.68C1916.84 301.96 1918.66 308.58 1924.64 316.24C1927.11 319.4 1928.84 322.44 1928.5 322.99C1927.16 325.16 1924.36 323.77 1919.44 318.48ZM2139.44 322.91C2139.07 322.31 2140.35 320.17 2142.28 318.16C2146.84 313.39 2148.82 309.32 2150.55 301.16C2154.07 284.55 2150.91 267.17 2142.55 257.24C2137.6 251.36 2140.39 250.05 2146.77 255.25C2158.98 265.2 2164.22 284.49 2159.14 300.81C2157.01 307.64 2150.29 317.78 2145.43 321.48C2141.81 324.24 2140.47 324.56 2139.44 322.91ZM1348.5 307.13C1343.28 304.75 1338.27 299.62 1335.66 294C1332.6 287.4 1332.73 274.3 1335.92 267.73C1338.71 261.99 1345.9 255.4 1350.88 254.02C1355.6 252.7 1367.12 252.72 1370.6 254.04C1372.48 254.75 1373.65 254.75 1374.36 254.04C1375.98 252.42 1378.81 252.82 1379.37 254.75C1380.81 259.7 1381.16 268.1 1379.99 269.51C1378.94 270.78 1378.35 270.36 1375.99 266.65C1370.99 258.77 1359.5 255.57 1352.19 260.02C1347.19 263.07 1345.05 268.78 1345.02 279.1C1345 288.16 1346.05 292.7 1349.24 297.27C1351.44 300.44 1357.82 304.01 1361.21 303.98C1364.34 303.95 1370.75 300.71 1375.15 296.94C1377.29 295.1 1379.56 293.99 1380.65 294.24C1383.53 294.9 1371.41 306.52 1366.37 307.91C1360.59 309.52 1353 309.19 1348.5 307.13ZM1941.02 306.75C1933.82 303.07 1932.5 300.4 1932.53 289.68C1932.56 278.82 1934.15 274.98 1939.77 272.13C1945.7 269.13 1949.34 268.7 1953.63 270.49C1961.34 273.71 1965.02 280.11 1961.44 284.07C1959.98 285.68 1958.32 286 1951.43 286C1946.88 286 1942.45 286.27 1941.58 286.61C1937.59 288.14 1941.61 297.09 1947.38 299.52C1950.86 300.98 1953.94 299.93 1957.41 296.1C1958.45 294.95 1960.19 294 1961.26 294C1965.76 294 1959.47 304.09 1952.8 307.59C1949.03 309.56 1946.12 309.36 1941.02 306.75ZM2014.41 307.17C2007.54 302.85 2004.45 295.98 2005.28 286.86C2006.2 276.7 2011.14 271.08 2019.87 270.24C2026.01 269.65 2029.43 270.43 2032.03 273.03C2035.65 276.65 2033.65 284.23 2029.49 282.64C2028.65 282.31 2027.03 280.46 2025.88 278.52C2022.66 273.06 2016.27 273.93 2014.11 280.13C2011.76 286.86 2013.23 293.18 2018.15 297.6C2022.67 301.65 2024.6 301.29 2031.26 295.15C2035.2 291.52 2036.53 293.41 2033.85 298.83C2029.69 307.24 2020.68 311.1 2014.41 307.17ZM2055.03 307.22C2047.45 304.24 2044.19 296.8 2045.61 285.67C2046.73 276.85 2049.73 272.92 2057.22 270.43C2061.81 268.9 2062.46 268.91 2066.55 270.47C2071.88 272.5 2076 277.11 2076 281.04C2076 285.01 2073.65 286 2064.15 286C2059.76 286 2055.45 286.27 2054.58 286.61C2051.59 287.75 2052.79 292.05 2057.39 296.65C2061.45 300.72 2061.98 300.96 2064.63 299.95C2066.2 299.35 2068.93 297.77 2070.68 296.43C2072.43 295.09 2074.35 294 2074.93 294C2076.76 294 2076.11 297.47 2073.66 300.79C2068.14 308.26 2062.56 310.19 2055.03 307.22ZM2086.41 308.1C2081.46 306.85 2081 306.2 2081 300.44C2081 296.23 2081.35 295 2082.52 295C2083.36 295 2084.44 296.01 2084.91 297.25C2086.72 301.98 2092.42 304.92 2096.02 302.99C2099.7 301.02 2098.07 297.91 2090.75 292.96C2087.04 290.44 2083.34 287.51 2082.53 286.44C2081.02 284.44 2080.58 279.16 2081.61 275.32C2082.46 272.17 2087.84 270 2094.83 270C2102.34 270 2104.23 271.54 2103.8 277.3C2103.41 282.53 2101.77 282.97 2099.16 278.54C2097.25 275.31 2096.67 275 2092.53 275C2088.7 275 2088 275.3 2088 276.96C2088 279.22 2091.17 282.49 2095.5 284.7C2100.32 287.15 2104.93 292.12 2105.58 295.56C2107.16 303.99 2096.84 310.74 2086.41 308.1ZM2116.41 308.1C2111.4 306.83 2111 306.23 2111 299.94C2111 295.45 2111.35 294 2112.43 294C2113.22 294 2114.17 295.01 2114.55 296.25C2116.18 301.62 2122.12 305.08 2126.08 302.96C2129.65 301.05 2128 297.96 2120.78 293.05C2117.09 290.53 2113.39 287.58 2112.57 286.49C2111.02 284.45 2110.57 279.19 2111.61 275.32C2112.46 272.17 2117.84 270 2124.83 270C2132.34 270 2134.23 271.54 2133.8 277.3C2133.41 282.53 2131.77 282.97 2129.16 278.54C2127.25 275.31 2126.67 275 2122.53 275C2118.7 275 2118 275.3 2118 276.96C2118 279.22 2121.17 282.49 2125.5 284.7C2130.32 287.15 2134.93 292.12 2135.58 295.56C2137.16 303.99 2126.84 310.74 2116.41 308.1ZM1165.25 307.29C1162.27 306.72 1162.39 304.6 1165.47 303.19C1166.83 302.57 1168.25 300.85 1168.62 299.37C1169.36 296.45 1168.35 266.09 1167.45 263.72C1167.14 262.92 1165.79 261.77 1164.44 261.16C1163.1 260.54 1162 259.59 1162 259.04C1162 257.87 1171.22 253 1173.45 253C1175.58 253 1175.84 255.06 1176.37 277C1176.87 297.27 1177.84 303.34 1180.77 304.47C1182.37 305.09 1182.35 305.25 1180.56 306.57C1178.7 307.94 1170.58 308.32 1165.25 307.29ZM1241.75 307.31C1239.23 306.65 1239.59 304.9 1242.75 302.38L1245.5 300.19L1245.84 280.74L1246.18 261.3L1241.59 258.61C1239.07 257.13 1237 255.48 1237 254.96C1237 254.43 1240.46 254.01 1244.75 254.02L1252.5 254.05L1266.41 271.49C1274.05 281.08 1280.69 288.69 1281.16 288.4C1281.62 288.12 1282 281.87 1282 274.52C1282 261.72 1281.89 261.03 1279.5 258.18C1278.12 256.55 1277 254.94 1277 254.61C1277 253.61 1290.83 253.92 1291.46 254.94C1291.78 255.45 1291.25 256.32 1290.27 256.87C1288.68 257.76 1288.44 260.28 1287.93 281.94C1287.56 297.92 1286.99 306.41 1286.23 307.17C1284.84 308.56 1283.29 306.97 1266.31 286.75C1259.49 278.64 1253.51 272 1253.02 272C1251.55 272 1250.74 280.36 1251.17 291.14C1251.53 300.11 1251.83 301.44 1253.8 303.04C1255.03 304.03 1256.58 305.07 1257.26 305.34C1261.61 307.11 1247.73 308.87 1241.75 307.31ZM1300.65 306.17C1299.52 304.92 1299 302.55 1299 298.67C1299 291.95 1300.16 290.46 1308.78 286.11C1311.99 284.49 1315.19 282.47 1315.89 281.63C1317.81 279.31 1316.82 276.66 1313.61 275.53C1311.13 274.66 1310.54 274.83 1309.12 276.87C1305.87 281.58 1303.1 283.98 1301.59 283.4C1297.59 281.86 1299.05 274.58 1303.95 271.69C1307.73 269.46 1316.47 269.49 1321 271.75C1325.12 273.81 1325.71 275.74 1325.9 288C1326.07 299.32 1326.52 300.81 1329.58 300.23C1332.99 299.58 1332.59 301.28 1328.47 304.9C1324.68 308.22 1322.14 308.73 1319.03 306.78C1317.5 305.83 1316.36 305.83 1313.72 306.78C1308.67 308.61 1302.61 308.33 1300.65 306.17ZM1389.75 307.31C1387.28 306.67 1387.57 305.27 1390.75 302.54L1393.5 300.18L1393.81 280.72L1394.12 261.26L1389.56 258.38C1387.05 256.8 1385 255.16 1385 254.75C1385 254.34 1388.51 254 1392.8 254L1400.6 254L1414.55 271.4C1422.22 280.98 1428.77 288.64 1429.11 288.43C1430.13 287.8 1430.82 266.13 1429.94 262.24C1429.49 260.24 1428.17 257.88 1427.02 257.01C1424.03 254.76 1425.42 254 1432.5 254C1439.63 254 1440.68 254.6 1438.25 257.27C1436.72 258.96 1436.44 262.15 1436 282.35C1435.72 295.08 1435.11 306.1 1434.64 306.84C1433.44 308.69 1429.71 304.92 1414.22 286.25C1407.26 277.86 1401.2 271 1400.76 271C1400.31 271 1400.07 278.09 1400.22 286.75L1400.5 302.5L1403.7 304.1C1408.41 306.45 1406.06 308.03 1398.05 307.88C1394.45 307.82 1390.71 307.56 1389.75 307.31ZM1963 306.28C1963 305.2 1963.96 303.45 1965.14 302.4C1966.32 301.36 1969.47 297.89 1972.14 294.7C1976.82 289.11 1976.95 288.8 1975.57 286.14C1974.79 284.63 1971.64 280.71 1968.57 277.44L1962.99 271.5L1971.16 271.21C1979.36 270.91 1981.44 271.68 1980.33 274.58C1980.06 275.28 1980.37 276.82 1981 278C1982.11 280.08 1982.23 280.1 1984.12 278.39C1985.56 277.09 1985.91 275.88 1985.46 273.81L1984.84 271L1991.53 271L1998.22 271L1992.61 277.06C1989.31 280.61 1987 284.03 1987 285.32C1987 287.86 1990.36 293.19 1996.72 300.74C1999.15 303.62 2000.85 306.43 2000.51 306.99C1999.74 308.23 1988.04 308.31 1986.11 307.09C1985.32 306.59 1984.94 305.33 1985.24 304.21C1985.8 302.05 1982.26 294.91 1980.31 294.26C1979.65 294.05 1977.91 295.7 1976.43 297.93C1974.19 301.32 1973.96 302.24 1975.03 303.54C1976.99 305.9 1974.91 307.26 1968.54 307.79C1963.54 308.2 1963 308.06 1963 306.28ZM1314.98 299.3C1317.27 296.38 1317.52 288.99 1315.34 288.28C1314.71 288.07 1312.57 289.32 1310.59 291.05C1306.56 294.59 1305.71 299.15 1308.75 300.92C1311.49 302.52 1312.69 302.2 1314.98 299.3ZM1951.02 280.48C1952.05 279.24 1951.94 278.6 1950.44 276.93C1946.9 273.03 1938.58 275.85 1940.31 280.36C1941.15 282.55 1949.23 282.64 1951.02 280.48ZM2064.94 280.57C2065.89 279.43 2065.7 278.7 2064.01 277.01C2060.05 273.05 2051.53 275.72 2053.31 280.36C2054.13 282.51 2063.2 282.67 2064.94 280.57ZM2089.33 227.54C2083.63 225.07 2082.91 220.84 2087.15 214.81C2088.61 212.74 2088.89 211.19 2088.39 208.02C2087.84 204.6 2088.1 203.52 2089.98 201.52L2092.23 199.13L2090.24 196.31C2083.72 187.09 2089.52 175 2100.46 175C2106.54 175 2116.14 176.92 2118.88 178.68L2121.25 180.21L2118.63 182.65C2116.78 184.36 2116 186.09 2116 188.51C2116 194.98 2110.04 199.73 2099.75 201.46C2095.77 202.13 2094.84 203.5 2097.75 204.41C2098.71 204.71 2102.71 205.41 2106.63 205.96C2118.15 207.58 2121 209.41 2121 215.2C2121 218.42 2116.76 224.37 2112.67 226.9C2109.9 228.61 2107.7 228.99 2100.88 228.96C2096.04 228.94 2091.16 228.34 2089.33 227.54ZM2108.62 222.52C2112.26 221.79 2116.85 217.44 2115.44 216.06C2114.29 214.93 2097.62 213.03 2094.97 213.72C2092.07 214.48 2091.44 217.89 2093.77 220.22C2095.82 222.26 2101.35 224.01 2104 223.46C2104.82 223.29 2106.91 222.87 2108.62 222.52ZM1986.06 211.81C1978.8 208.04 1977.5 205.4 1977.53 194.68C1977.56 183.82 1979.15 179.98 1984.77 177.13C1990.7 174.13 1994.34 173.7 1998.63 175.49C2006.34 178.71 2010.02 185.11 2006.44 189.07C2004.98 190.68 2003.32 191 1996.43 191C1991.88 191 1987.45 191.27 1986.58 191.61C1982.73 193.09 1986.34 201.57 1992.08 204.54C1994.62 205.86 1995.35 205.87 1997.75 204.63C1999.27 203.85 2001.36 202.26 2002.41 201.1C2003.45 199.95 2005.19 199 2006.26 199C2009.38 199 2007.6 203.78 2002.61 208.82C1997.12 214.36 1992.55 215.19 1986.06 211.81ZM1905.46 211.93C1904.67 210.66 1904.64 210.69 1908.75 208.6L1912 206.95L1911.98 189.22C1911.95 169.75 1911.15 164.19 1908.05 162.13C1904.44 159.72 1905.81 159 1914.01 159L1922.02 159L1925.06 165.75C1933.69 184.98 1938.51 195 1939.1 195C1939.47 195 1940.42 193.99 1941.22 192.75C1942.49 190.76 1951.29 172.06 1955.09 163.25C1956.48 160.01 1956.52 160 1963.68 160L1970.88 160L1969.45 162.75C1968.34 164.87 1968.01 170.04 1968.01 185.17C1968 195.99 1968.29 205.58 1968.64 206.49C1968.99 207.41 1970.41 208.59 1971.8 209.11C1976.26 210.81 1972.61 212.36 1963.26 212.74C1952.28 213.19 1950.69 212.35 1954.34 208.01C1956.94 204.92 1957 204.54 1957 190.92C1957 183.27 1956.66 177.02 1956.25 177.04C1955.84 177.06 1951.67 184.82 1947 194.27C1942.33 203.73 1938.03 211.6 1937.46 211.75C1936.89 211.9 1932.65 204.37 1928.04 195.01C1923.43 185.66 1919.28 178 1918.83 178C1917.88 178 1917.68 205 1918.61 207.42C1918.94 208.29 1920.04 209 1921.05 209C1924.04 209 1924.33 210.93 1921.5 212C1918 213.33 1906.29 213.28 1905.46 211.93ZM2009 211.96C2008.16 211.34 2007.94 210.66 2008.5 210.42C2009.05 210.18 2011.01 209.07 2012.85 207.95L2016.2 205.91L2015.54 187.7C2014.75 165.92 2014.54 164.57 2011.42 162.12C2010.09 161.07 2009 159.94 2009 159.61C2009 159.27 2012.62 159 2017.05 159L2025.1 159L2030.06 169.75C2032.79 175.66 2036.78 184.1 2038.92 188.5L2042.82 196.5L2049.3 183C2052.86 175.57 2056.7 167.36 2057.83 164.75L2059.89 160L2067.07 160C2073.58 160 2074.12 160.15 2072.89 161.63C2071.33 163.51 2070.3 193.21 2071.46 202.55C2072.06 207.3 2072.53 208.25 2074.74 209.09C2079.27 210.81 2075.66 212.35 2066.02 212.81C2058.29 213.18 2056.94 213.01 2056.39 211.57C2055.99 210.53 2056.63 208.96 2058.1 207.4C2060.27 205.08 2060.47 203.91 2060.84 191.45C2061.16 180.44 2060.98 178 2059.84 178C2059.03 178 2055.37 184.46 2051.07 193.48C2047.01 202 2042.9 209.68 2041.93 210.56C2040.29 212.04 2040 211.86 2037.66 207.83C2036.27 205.45 2032.32 197.54 2028.88 190.25C2025.43 182.96 2022.25 177 2021.81 177C2020.85 177 2020.71 200.32 2021.64 204.95C2022.08 207.13 2023.09 208.46 2024.8 209.12C2026.76 209.86 2027.06 210.34 2026.13 211.27C2024.54 212.86 2010.94 213.41 2009 211.96ZM2130.25 212.33C2126.54 212.02 2125 211.47 2125 210.45C2125 209.65 2125.61 209 2126.35 209C2127.08 209 2128.48 208.12 2129.45 207.05C2131.08 205.25 2131.15 203.54 2130.34 185.12C2129.51 166.03 2129.36 165.02 2127.09 162.59C2124.94 160.31 2124.87 159.99 2126.42 159.39C2129.12 158.36 2157.11 159.66 2161 161C2162.93 161.67 2165.51 163.31 2166.75 164.66C2169.7 167.88 2169.82 175.14 2167 179.77C2164.36 184.09 2164.43 184.59 2168.32 189.4C2172.65 194.73 2173.14 196.27 2171.82 200.22C2168.96 208.77 2162.47 211.93 2146.78 212.42C2140.57 212.61 2133.14 212.57 2130.25 212.33ZM2174.38 211.55C2174.07 210.75 2174.54 209.07 2175.41 207.82C2177.64 204.64 2177.72 183.86 2175.5 181.64C2173.19 179.34 2173.68 178.16 2177.62 176.51C2182.01 174.68 2185.69 174.56 2186.25 176.24C2186.57 177.22 2187.22 177.22 2189.38 176.24C2193.28 174.46 2196.43 174.71 2199.14 177L2201.5 178.99L2198.76 181.44C2196.6 183.37 2195.31 183.76 2192.61 183.32C2188.13 182.6 2186.96 184.75 2186.3 194.88C2185.74 203.42 2186.96 207.92 2190.05 208.72C2191.17 209.02 2191.92 209.75 2191.72 210.35C2190.82 213.03 2175.36 214.09 2174.38 211.55ZM2155.86 205.57C2157.72 204.61 2159.27 202.72 2159.98 200.55C2162.38 193.29 2156.38 188 2145.75 188L2140 188L2140 196.95C2140 204.4 2140.29 206.08 2141.75 206.98C2143.99 208.36 2152.01 207.56 2155.86 205.57ZM2105.71 194C2107.89 189.68 2107.34 183.25 2104.55 180.45C2099.88 175.79 2096.77 178.12 2096.65 186.37C2096.51 195.6 2102.4 200.56 2105.71 194ZM1996.02 185.48C1997.05 184.24 1996.94 183.6 1995.44 181.93C1991.9 178.03 1983.58 180.85 1985.31 185.36C1986.15 187.55 1994.23 187.64 1996.02 185.48ZM2155.91 179.58C2158.86 176.92 2159.63 171.61 2157.53 168.41C2155.32 165.04 2149.85 162.82 2144.66 163.2L2140.5 163.5L2140.21 172.87L2139.92 182.23L2146.89 181.84C2151.86 181.56 2154.44 180.91 2155.91 179.58ZM667.49 61.65C651.33 54.12 645.97 30.93 657.14 16.83C663.28 9.08 676.43 5.53 686.44 8.94C692.4 10.97 699.56 18.21 701.97 24.64C704.46 31.3 704.68 41.76 702.44 46.49C699.92 51.8 694.15 57.87 688.63 61.04C682.01 64.83 674.78 65.04 667.49 61.65ZM686.04 55.47C695.66 46.25 696.13 25.25 686.92 16.42C684.18 13.8 683.19 13.5 677.32 13.5C670.96 13.5 670.67 13.61 667.43 17.37C663.46 21.96 662.58 26.38 663.18 38.85C663.65 48.73 665.88 53.69 671.4 57.16C675.75 59.89 682.19 59.15 686.04 55.47Z" fill="#1e2749" fill-rule="evenodd"/>
</svg>
