<?xml version="1.0" encoding="UTF-8"?>
<svg xmlns="http://www.w3.org/2000/svg" viewBox="0 0 2430 571" width="2430" height="571" shape-rendering="geometricPrecision">
<path d="M2055.13 540.97C2045.12 538.89 2034.55 531.12 2029.8 522.35C2025.26 513.95 2023.73 506.83 2024.17 496C2024.52 487.19 2024.91 485.56 2028.3 478.7C2032.56 470.08 2038.13 464.56 2046.88 460.26C2051.98 457.75 2053.51 457.5 2063.5 457.5C2073.59 457.5 2074.95 457.73 2080 460.31C2086.38 463.58 2094.15 470.77 2097.49 476.5C2106.13 491.34 2104.93 510.72 2094.49 524.9C2085.34 537.34 2069.25 543.91 2055.13 540.97ZM2112.25 539.29C2109.16 538.7 2109.41 537 2112.58 537C2114.09 537 2116.36 535.8 2118.08 534.08L2121 531.15L2121 499.64C2121 481.82 2120.58 467.03 2120.04 465.59C2119.44 464.02 2118.02 462.82 2116.29 462.43C2110.74 461.2 2109.9 460.81 2110.28 459.67C2110.73 458.31 2130.44 457.51 2138.76 458.51C2144.68 459.23 2144.78 460.44 2139.06 461.98C2136.94 462.55 2134.86 463.8 2134.44 464.76C2134.02 465.72 2133.47 473.15 2133.23 481.27L2132.78 496.05L2151.14 495.77L2169.5 495.5L2169.78 480.5C2170.06 466.2 2169.97 465.42 2167.92 463.75C2166.74 462.79 2164.82 461.99 2163.64 461.98C2160.9 461.97 2158.32 460.35 2159.36 459.3C2160.55 458.11 2191.43 458.3 2191.84 459.5C2192.03 460.05 2190.23 461.19 2187.84 462.03L2183.5 463.56L2183.24 498.65C2182.95 537.39 2182.6 535.27 2189.58 536.84L2193.5 537.72L2190.68 538.86C2187.71 540.07 2167.41 540.43 2162.12 539.38C2158.43 538.64 2157.95 537 2161.42 537C2162.76 537 2165.24 535.83 2166.95 534.39L2170.05 531.78L2169.78 516.64L2169.5 501.5L2151.84 501.23L2134.17 500.95L2133.46 508.63C2132.6 517.8 2133.35 530.92 2134.91 533.83C2135.56 535.05 2137.47 536.19 2139.51 536.57C2143.51 537.32 2144.03 538.49 2140.75 539.37C2138.26 540.04 2115.8 539.98 2112.25 539.29ZM2072.56 534.41C2077.77 532.23 2083.63 525.61 2086.04 519.17C2088.79 511.81 2089.66 498.43 2088.04 488.3C2085.14 470.12 2077.02 461.97 2061.88 462.02C2052.25 462.05 2043.78 469.26 2040.53 480.23C2038.22 488 2038.44 509.03 2040.92 516.99C2046.1 533.62 2058.33 540.35 2072.56 534.41ZM1679 500.76C1677.08 499.61 1641.04 478.03 1598.91 452.79L1522.33 406.91L1521.67 343.21C1521.3 308.17 1521.3 267.77 1521.66 253.44L1522.31 227.38L1525.91 225.35C1527.88 224.23 1550.2 210.8 1575.5 195.51C1661.84 143.31 1679.65 133 1683.43 133C1686.75 133 1708.52 145.68 1810.22 206.82L1841.95 225.89L1893.22 195.14C1999.86 131.2 1999.16 131.6 2001.91 132.47C2004.94 133.43 2005.22 135.89 2002.59 138.31C2000.46 140.25 1913.96 192.77 1865.26 221.67L1847.02 232.5L1847.01 317.15L1847 401.81L1851.75 404.57C1860.35 409.58 1959.09 469.09 1979 481.27C2004.05 496.59 2005.32 497.54 2003.97 500.06C2002.01 503.73 1998.93 502.6 1980.5 491.47C1960.9 479.63 1853.74 415.83 1848.92 413.13C1845.85 411.41 1842.6 410 1841.7 410C1840.8 410 1830.48 415.69 1818.78 422.65C1796.13 436.11 1704.23 490.9 1695 496.45C1689.2 499.93 1683.3 503.06 1682.8 502.92C1682.63 502.87 1680.92 501.9 1679 500.76ZM444.5 495.89C437.36 491.8 349.43 439.03 304 411.58C298.77 408.42 293.94 405.11 293.25 404.23C292.27 402.97 292.02 383.87 292.07 316.06C292.11 268.45 292.47 228.66 292.88 227.63C293.73 225.46 294.2 225.17 361.5 184.84C418.84 150.48 442.11 136.65 449.64 132.47L454.79 129.61L467.14 136.96C473.94 141 509.49 162.26 546.15 184.21L612.8 224.12L643.15 205.93C702.97 170.07 740.73 147.55 754.81 139.34C769.03 131.05 774.15 129.34 775.35 132.48C776.55 135.6 774.43 136.95 665.76 202.21L617.01 231.48L616.76 317.99L616.5 404.5L596 416.88C522.81 461.09 455.51 501 454.17 501C453.76 501 449.41 498.7 444.5 495.89ZM1761.08 447.22L1837.5 401.44L1837.76 317.36L1838.01 233.27L1761.03 187.14C1718.7 161.76 1683.72 141 1683.3 141C1682.89 141 1648.23 161.59 1606.29 186.75L1530.03 232.5L1530.02 317.11L1530 401.73L1595.75 441.03C1631.91 462.65 1666.22 483.17 1672 486.63C1677.78 490.1 1682.99 492.95 1683.58 492.97C1684.17 492.99 1719.05 472.4 1761.08 447.22ZM459.71 488.34C474.69 480.03 604.84 402.26 607.26 400.19C608.91 398.77 609 393.75 608.76 315.14L608.5 231.6L548 195.27C514.73 175.29 480.11 154.59 471.08 149.27L454.66 139.59L447.67 143.4C437.64 148.87 352.2 199.93 308.89 226.34L301.29 230.98L300.64 237.13C300.29 240.52 300 278.26 300 320.99C300 393.73 300.11 398.79 301.75 400.25C304.03 402.28 431.79 478.82 448.5 488.17C451.25 489.71 453.82 490.97 454.21 490.98C454.61 490.99 457.08 489.8 459.71 488.34ZM1273.25 353.41C1270.99 352.37 1271.95 351 1274.94 351C1276.58 351 1279.08 349.97 1280.58 348.68L1283.27 346.37L1283.75 315.93C1284.03 298.64 1283.83 283.99 1283.3 282C1282.35 278.42 1279.93 276.58 1274.75 275.52C1271.42 274.84 1271.17 273.42 1274.25 272.67C1275.49 272.36 1287.08 272.49 1300 272.94C1325.61 273.84 1327.87 274.32 1334.51 280.15C1339.25 284.3 1341 287.91 1341 293.48C1341 299.8 1339.01 303.98 1333.96 308.3C1331.59 310.33 1329.84 312.16 1330.08 312.37C1330.31 312.58 1332.3 313.67 1334.5 314.78C1344.25 319.72 1347.66 329.54 1343.11 339.56C1340.9 344.44 1333.97 350.61 1329.07 352.07C1325.3 353.2 1275.39 354.39 1273.25 353.41ZM42.56 351.1C42.25 350.6 43.57 349.27 45.49 348.14C49.7 345.66 51.65 342.58 57.35 329.5C59.74 324 66.55 308.36 72.47 294.75C79.29 279.07 83.76 270 84.66 270C86.32 270 88.47 274.6 102.65 308.5C117.08 343 118.61 345.89 123.81 348.51C126.13 349.68 127.72 350.94 127.35 351.32C126.97 351.69 119.73 352 111.25 352C99.36 352 95.93 351.71 96.24 350.75C96.47 350.06 97.64 349.35 98.85 349.18C100.06 349 101.74 347.81 102.57 346.53C103.99 344.37 103.85 343.55 100.69 335.35L97.29 326.5L81.31 326.23L65.33 325.95L62.62 332.87C61.13 336.67 59.64 341.42 59.32 343.42C58.75 346.93 58.87 347.11 62.84 348.67C65.1 349.56 66.71 350.67 66.41 351.14C65.7 352.29 43.27 352.25 42.56 351.1ZM1320.8 346.59C1331.18 341.16 1333.65 330.05 1326.28 321.89C1321.85 316.99 1315.52 315 1304.32 315L1296 315L1296 330.83C1296 339.54 1296.3 346.97 1296.67 347.33C1298 348.67 1318 348.05 1320.8 346.59ZM1384.67 325.33C1384.3 324.97 1384 323.62 1384 322.33L1384 320L1416.5 320C1447.13 320 1449 320.1 1449 321.8C1449 325.84 1447.78 326 1415.97 326C1399.12 326 1385.03 325.7 1384.67 325.33ZM161.37 322.51C161.05 321.68 161.05 320.32 161.36 319.5C161.86 318.21 166.27 318 192.72 318.02C209.65 318.02 224.11 318.42 224.85 318.89C225.59 319.36 226.03 320.59 225.84 321.62C225.49 323.41 223.89 323.51 193.71 323.76C166.11 323.99 161.87 323.83 161.37 322.51ZM92.64 318.49C93.31 316.75 83.05 291.85 81.45 291.32C80.28 290.93 70 314.89 70 318.01C70 319.88 70.69 320 81.03 320C89.96 320 92.17 319.71 92.64 318.49ZM1318.9 307.55C1320.44 306.75 1323.12 304.49 1324.85 302.52C1330.73 295.83 1328.45 285.5 1320 280.57C1317.27 278.97 1314.29 278.45 1306.26 278.15L1296 277.77L1296 292.72C1296 300.94 1296.3 307.97 1296.67 308.33C1298.01 309.67 1316.02 309.04 1318.9 307.55ZM1384 303.5L1384 300.97L1416.25 301.24C1447.75 301.49 1448.5 301.55 1448.5 303.5C1448.5 305.45 1447.75 305.51 1416.25 305.76L1384 306.03L1384 303.5ZM161.51 303.02C161.16 301.92 161.15 300.56 161.49 300.01C162.27 298.76 222.88 298.64 224.85 299.89C225.59 300.36 226.03 301.59 225.84 302.62C225.49 304.41 223.89 304.51 193.81 304.76C162.88 305.02 162.13 304.98 161.51 303.02ZM966 165.92C966 165.3 970.24 160.33 975.41 154.88C988.72 140.9 992.39 132.52 988.52 125.03C986.79 121.7 981.58 119.6 977.35 120.55C975.78 120.9 973.04 122.84 971.26 124.85L968.03 128.5L968.01 125.7C967.99 121.58 970.6 117.26 974.24 115.37C978.78 113.03 987.43 113.18 990.76 115.67C1001.26 123.51 999.54 133.15 984.6 150.16C980.42 154.93 977 159.32 977 159.91C977 161.73 991.38 161.26 995.45 159.32C997.39 158.4 999.27 157.94 999.63 158.3C999.99 158.66 999.64 160.65 998.85 162.73L997.42 166.5L981.71 166.78C970.52 166.97 966 166.73 966 165.92ZM2179 152.86C2179 152.24 2182.04 148.39 2185.75 144.31C2200.66 127.93 2204.26 121.34 2202 114.51C2200.45 109.82 2197.57 108 2191.66 108C2187.3 108 2186.39 108.41 2183.26 111.75L2179.74 115.5L2180.38 112.08C2181.91 103.91 2187.82 100.16 2197.47 101.24C2206.02 102.21 2211.15 109.04 2209.59 117.38C2208.73 121.98 2200.58 134.09 2194.07 140.46C2191.28 143.19 2189 146 2189 146.71C2189 148.61 2203.63 148.44 2207.36 146.49C2212.04 144.06 2213.08 144.47 2211.8 148.25C2211.2 150.04 2210.27 152.06 2209.73 152.75C2208.41 154.44 2179 154.55 2179 152.86ZM829 150.67C816.85 147.83 808.91 141.24 803.22 129.24C799.85 122.15 799.62 121.03 799.56 111.58C799.49 99.52 801.48 91.99 806.84 84.01C816.85 69.1 835.38 63.39 853.72 69.54L861.3 72.09L864.14 69.37C865.7 67.87 867.3 66.97 867.69 67.36C869.51 69.18 870.75 92.42 869.08 93.45C868.57 93.77 867.05 91.62 865.71 88.67C863.04 82.84 857.81 77.03 852.73 74.28C850.37 72.99 847.2 72.51 840.92 72.51C833.11 72.5 831.91 72.77 827.45 75.53C817.7 81.55 813.56 92.9 814.17 111.92C814.49 121.76 814.93 124.33 817.11 129.01C822.26 140.08 830.6 145.44 842.51 145.3C851.65 145.2 855.73 143.39 863.39 136.03C870.26 129.43 873 128.19 870.61 132.75C868.07 137.59 858.67 146.26 853.29 148.72C846.91 151.64 836.67 152.47 829 150.67ZM1037 150.47C1027.44 147.82 1017.23 139.38 1012.62 130.3C1008.22 121.62 1006.96 108.02 1009.56 97.01C1011.5 88.78 1014.5 83.67 1020.95 77.65C1028.04 71.01 1035.57 67.75 1045.07 67.2C1066.94 65.94 1083.83 80.26 1087.2 102.95C1089.31 117.17 1084.15 130.95 1072.78 141.52C1063.19 150.43 1049.37 153.89 1037 150.47ZM880.25 149.34C878.08 148.46 878.89 147 881.55 147C882.95 147 885.2 145.9 886.55 144.55L889 142.09L889 108.6C889 75.13 889 75.11 886.78 73.56C885.56 72.7 883.56 72 882.34 72C879.59 72 878.27 70.11 880.12 68.82C881.64 67.78 910.68 68.35 911.78 69.44C912.68 70.34 909.97 71.96 907.5 72C902.87 72.07 902.53 73.11 901.93 89.21C901.62 97.62 901.53 104.84 901.74 105.25C901.95 105.66 909.98 106 919.58 106L937.05 106L938.13 103.25C939.72 99.23 938.48 76.05 936.58 74.15C935.78 73.36 933.45 72.43 931.4 72.1C925.36 71.12 926.23 69.37 933.11 68.65C941.35 67.78 958.01 67.95 960.48 68.91C962.45 69.68 962.45 69.69 960.48 70.72C959.39 71.3 957.09 72.07 955.36 72.44C952.88 72.97 952.1 73.75 951.61 76.18C951.28 77.87 951 93.39 951 110.67L951 142.09L953.45 144.55C954.8 145.9 957.05 147 958.45 147C961.28 147 961.87 148.45 959.42 149.39C957.36 150.18 930.64 150.18 928.58 149.39C926.18 148.47 926.69 147 929.42 147C937.28 147 939.75 139.75 938.26 121L937.5 111.5L934 111.15C932.08 110.96 924.09 111.12 916.25 111.51L902 112.21L902 127.15C902 141.68 902.07 142.16 904.45 144.55C906.04 146.14 908.07 147.01 910.2 147.03C913.32 147.06 913.39 147.14 911.56 148.53C910.05 149.67 906.47 149.98 895.56 149.92C887.83 149.88 880.94 149.62 880.25 149.34ZM1095.25 149.34C1092.92 148.4 1093.99 147 1097.05 147C1098.95 147 1101.01 146.08 1102.55 144.55L1105 142.09L1105 108.6C1105 75.13 1105 75.11 1102.78 73.56C1101.56 72.7 1099.64 71.99 1098.53 71.98C1097.41 71.98 1095.83 71.53 1095 70.98C1093.67 70.11 1093.67 69.89 1095 69.02C1096.75 67.86 1124.57 67.78 1127.48 68.91C1129.41 69.67 1129.41 69.71 1127.29 70.84C1126.1 71.48 1124.23 72 1123.14 72C1118.59 72 1118 74.12 1118 90.59L1118 106.05L1135.75 105.77L1153.5 105.5L1153.78 90.39C1154.08 73.54 1153.95 73.16 1147.28 72.08C1145.29 71.76 1143.48 70.93 1143.25 70.25C1142.93 69.28 1146.75 69 1160.04 69C1175.22 69 1177.1 69.18 1176 70.5C1175.32 71.32 1173.72 72 1172.45 72C1167.05 72 1167 72.31 1167 109L1167 142.85L1169.63 144.93C1171.08 146.07 1173.33 147 1174.63 147C1177.64 147 1177.72 148.78 1174.75 149.52C1170.57 150.55 1144.69 149.58 1144.29 148.37C1144.08 147.74 1145.48 146.95 1147.43 146.58C1153.37 145.46 1154 143.53 1154 126.28L1154 111L1136 111L1118 111L1118 126.93L1118 142.85L1120.63 144.93C1122.08 146.07 1124.39 147 1125.76 147C1127.86 147 1128.05 147.24 1127 148.5C1125.99 149.72 1122.98 149.99 1111.13 149.92C1103.08 149.88 1095.94 149.62 1095.25 149.34ZM1053.57 145.53C1062.97 142.72 1069.14 135.22 1071.99 123.12C1073.79 115.49 1072.84 95.99 1070.36 89.82C1065.8 78.45 1059.77 73.34 1049.68 72.31C1038.55 71.17 1029.48 76.94 1025.75 87.53C1021.71 98.99 1021.63 117.36 1025.56 129.2C1027.63 135.42 1035.15 143.63 1040.5 145.51C1045.65 147.32 1047.57 147.32 1053.57 145.53ZM2038.62 137.43C2024.19 132.8 2014.06 119.97 2012.08 103.78C2009.21 80.42 2022.23 59.79 2042.89 54.99C2049.64 53.42 2059.56 54.21 2067.44 56.95L2073.37 59.02L2075.99 56.51C2077.43 55.13 2079.1 54 2079.69 54C2081.03 54 2081.9 59.96 2082.12 70.61C2082.35 81.61 2081.4 82.66 2077.79 75.39C2071.96 63.65 2065.78 59.63 2053.5 59.56C2047.14 59.53 2044.66 59.97 2041.41 61.7C2035.85 64.66 2031.66 69.68 2028.91 76.67C2026.91 81.74 2026.6 84.33 2026.55 96.5C2026.51 109.14 2026.73 111.01 2028.86 115.73C2031.53 121.63 2038 128.11 2043.68 130.57C2045.88 131.51 2050.47 132.27 2054.5 132.34C2063.6 132.5 2069.33 129.92 2076.51 122.44C2082.2 116.52 2085.4 115.8 2082.27 121.15C2079.42 126.02 2071.37 132.94 2065.37 135.69C2058.25 138.95 2045.88 139.75 2038.62 137.43ZM2249.5 137.66C2235.42 132.97 2226.02 123.22 2222.36 109.5C2220.36 102.03 2220.62 87.46 2222.87 80.65C2227.94 65.27 2241.29 55.05 2257.39 54.2C2280 53.01 2297.49 68.58 2299.6 91.78C2301.84 116.25 2284.53 137.38 2261.25 138.59C2256.4 138.85 2252 138.5 2249.5 137.66ZM2091.69 136.36C2090.28 134.94 2091.1 134.24 2094.87 133.64C2097 133.3 2099.19 132.45 2099.75 131.76C2100.8 130.45 2101.51 103 2101.19 76.41L2101 61.32L2098.45 60.16C2097.05 59.52 2094.83 59 2093.51 59C2090.64 59 2089.19 57.12 2091.12 55.9C2092.68 54.92 2120.97 54.67 2123.44 55.62C2125.67 56.47 2123.52 59 2120.57 59C2119.37 59 2117.51 59.64 2116.44 60.42C2114.69 61.7 2114.47 63.36 2114.18 77.44L2113.86 93.05L2132.18 92.77L2150.5 92.5L2150.5 77.66C2150.5 63.27 2150.43 62.76 2148.14 60.91C2146.84 59.86 2144.48 59 2142.89 59C2140.99 59 2140 58.49 2140 57.5C2140 56.23 2142.57 56 2157.12 56C2172.23 56 2174.1 56.18 2173 57.5C2172.32 58.32 2170.77 59 2169.57 59C2168.37 59 2166.51 59.64 2165.44 60.42C2163.59 61.78 2163.5 63.34 2163.5 96.01L2163.5 130.18L2165.86 132.09C2167.16 133.14 2169.58 134 2171.23 134C2173.82 134 2174.07 134.22 2172.98 135.52C2171.93 136.79 2169.12 137 2156.19 136.77C2144.86 136.57 2140.55 136.16 2140.25 135.25C2139.98 134.44 2140.86 134 2142.74 134C2144.58 134 2146.55 133.05 2148.08 131.42C2150.42 128.92 2150.5 128.35 2150.5 113.67L2150.5 98.5L2132.14 98.23L2113.79 97.95L2114.14 114.07C2114.49 129.58 2114.59 130.25 2116.86 132.09C2118.16 133.14 2120.33 134 2121.69 134C2123.23 134 2124.01 134.47 2123.75 135.25C2123.45 136.16 2119.15 136.57 2107.86 136.77C2099.35 136.93 2092.07 136.74 2091.69 136.36ZM2307.69 136.36C2306.32 134.98 2307.05 134 2309.44 134C2310.79 134 2313.01 132.99 2314.38 131.75L2316.87 129.5L2317.55 96.5C2318.22 63.94 2318.2 63.48 2316.16 61.63C2315.02 60.6 2312.6 59.46 2310.79 59.09C2305.76 58.06 2306.53 55.57 2312 55.16C2320.37 54.53 2341.13 56.12 2340.72 57.35C2340.51 57.98 2338.66 58.76 2336.62 59.1C2334.57 59.43 2332.36 60.24 2331.7 60.9C2330.9 61.69 2330.39 67.26 2330.18 77.57L2329.86 93.05L2348.18 92.77L2366.5 92.5L2366.47 77.76C2366.44 61.41 2366.08 60.38 2359.94 59.12C2353.92 57.89 2355.57 56.33 2363.62 55.65C2373.33 54.83 2386.34 54.81 2388.44 55.62C2390.67 56.47 2388.52 59 2385.57 59C2384.37 59 2382.51 59.64 2381.44 60.42C2379.6 61.77 2379.48 63.52 2379.19 95.4L2378.88 128.97L2381.39 131.48C2382.81 132.9 2385.06 134 2386.54 134C2388.2 134 2389.01 134.46 2388.75 135.25C2388.44 136.18 2384.18 136.5 2372 136.5C2359.82 136.5 2355.56 136.18 2355.25 135.25C2354.98 134.43 2355.88 134 2357.86 134C2359.57 134 2362.02 133.02 2363.48 131.75C2366.03 129.53 2366.07 129.27 2366.28 114.5L2366.5 99.5L2348.25 99.23L2330 98.95L2330 114.4L2330 129.85L2332.63 131.93C2334.08 133.07 2336.37 134 2337.72 134C2339.23 134 2340.01 134.48 2339.75 135.25C2339.45 136.16 2335.15 136.57 2323.86 136.77C2315.35 136.93 2308.07 136.74 2307.69 136.36ZM2269.96 131.52C2274.22 129.32 2280.54 121.78 2282.59 116.44C2284.17 112.35 2284.5 108.85 2284.5 96C2284.5 80.99 2284.41 80.3 2281.59 74.19C2276.87 63.98 2269.2 58.98 2258.31 59.01C2253.17 59.02 2244.8 63.07 2242.11 66.85C2233.8 78.52 2232.66 106.61 2239.92 120.84C2242.35 125.6 2249.07 131.75 2252.72 132.56C2254.25 132.9 2255.95 133.35 2256.5 133.56C2258.34 134.26 2267.28 132.91 2269.96 131.52Z" fill="#1e2749" fill-rule="evenodd"/>
</svg>
