<?xml version="1.0" encoding="UTF-8"?>
<svg xmlns="http://www.w3.org/2000/svg" viewBox="0 0 2430 2020" width="2430" height="2020" shape-rendering="geometricPrecision">
<path d="M558.5 1946.61C513.08 1920.64 421.83 1867.91 355 1829.01C351.43 1826.93 344 1822.62 338.5 1819.44C333 1816.25 323.77 1810.85 318 1807.44C312.23 1804.04 285.23 1788.3 258 1772.47C230.77 1756.65 201.07 1739.33 192 1734C182.93 1728.67 159.53 1714.95 140 1703.51C60 1656.63 56.28 1654.3 55.61 1650.73C52.86 1635.99 51.19 1359.52 52.95 1210.5C53.6 1155.5 54.46 1105.17 54.86 1098.66C55.53 1087.86 55.8 1086.66 57.93 1085.05C59.21 1084.09 83.04 1069.88 110.88 1053.49C138.72 1037.1 171.18 1017.99 183 1011.02C194.82 1004.05 214.4 992.58 226.5 985.54C238.6 978.5 254.8 969.04 262.5 964.51C270.2 959.99 295.62 945.13 319 931.5C342.38 917.87 369.38 902.1 379 896.47C409.7 878.51 453.38 853.03 525.5 811C550.25 796.58 571.06 784.07 571.75 783.2C572.73 781.95 573.01 756.56 573.03 664.06C573.06 531.13 574.64 341.26 575.88 321.09C576.79 306.25 577.39 305 583.61 305C588.24 305 590.02 305.92 591.16 308.89C593.46 314.89 593.96 359.41 594.03 565.23C594.1 746.09 594.33 782.19 595.46 783.32C596.21 784.06 599 786.04 601.66 787.7C619.35 798.77 630.91 805.71 657 820.96C673.23 830.45 692.8 841.92 700.5 846.46C708.2 851 723.73 860.02 735 866.5C746.27 872.98 757.52 879.51 760 881.02C762.48 882.53 774.85 889.73 787.5 897.02C800.15 904.3 818.83 915.1 829 921.01C845.53 930.6 873.84 946.85 963.5 998.18C1059.69 1053.25 1105.8 1079 1108.27 1079C1109.4 1079 1136.92 1063.44 1175.5 1040.99C1186.5 1034.59 1208.55 1021.79 1224.5 1012.54C1240.45 1003.29 1255.97 994.26 1259 992.45C1265.86 988.37 1309.09 963.23 1326.5 953.21C1333.65 949.09 1351.42 938.74 1366 930.2C1380.58 921.67 1399.92 910.42 1409 905.2C1418.08 899.98 1432.25 891.78 1440.5 886.98C1510.61 846.2 1546.89 827.1 1555.93 826.23C1561.31 825.72 1562.35 826.54 1562.21 831.28C1561.95 840.37 1555.08 844.59 1260 1016.79C1205.83 1048.41 1151.6 1080.03 1139.5 1087.06L1117.5 1099.84L1116.87 1297.17C1115.92 1598 1115.15 1648.97 1111.49 1653.01C1109.7 1654.99 1083.46 1670.85 1035 1699.23C971.1 1736.66 890.1 1783.93 867 1797.29C854.62 1804.44 838.65 1813.76 831.5 1817.98C824.35 1822.2 809.27 1830.98 798 1837.47C786.73 1843.97 772.33 1852.32 766 1856.04C746.22 1867.66 674.99 1908.85 618.5 1941.31C604.59 1949.31 583.72 1961.04 583.57 1960.95C583.53 1960.93 572.25 1954.47 558.5 1946.61ZM625.04 1912.9C647.29 1900.2 678.1 1882.48 693.5 1873.54C728.67 1853.1 775 1826.16 785.5 1820.05C789.9 1817.48 799.58 1811.87 807 1807.57C814.42 1803.27 825.67 1796.7 832 1792.98C847.54 1783.84 919.17 1742.05 931 1735.21C936.23 1732.2 947.02 1725.9 955 1721.22C962.98 1716.55 996.5 1696.98 1029.5 1677.74C1062.5 1658.5 1090.3 1642.06 1091.28 1641.2C1092.93 1639.75 1093.02 1637.51 1092.58 1610.07C1092.31 1593.81 1092.02 1502.65 1091.93 1407.5C1091.83 1312.35 1091.53 1203.79 1091.25 1166.25L1090.74 1098L1087.62 1096.13C1085.9 1095.1 1049.85 1074.12 1007.5 1049.5C935.61 1007.71 919.52 998.33 890 981.03C880 975.16 848.03 956.58 757.5 904C745.4 896.97 720.42 882.46 702 871.76C683.58 861.05 662.2 848.68 654.5 844.26C646.8 839.84 627.9 828.98 612.5 820.12C597.1 811.26 583.74 804.01 582.82 804.01C581.07 804 547.23 823.33 449 880.43C428.38 892.42 406.32 905.28 400 909.01C389.99 914.91 353.01 936.47 306.5 963.51C298.8 967.99 269.55 985.07 241.5 1001.47C213.45 1017.88 184.88 1034.55 178 1038.53C171.12 1042.51 151.1 1054.2 133.5 1064.5C115.9 1074.81 95.99 1086.41 89.25 1090.29L77 1097.33L77 1170.92C77 1211.39 76.72 1333.83 76.39 1443L75.78 1641.5L96.56 1653.5C117.65 1665.67 143.55 1680.71 159 1689.74C163.68 1692.47 185.05 1704.94 206.5 1717.44C227.95 1729.95 250.68 1743.24 257 1746.97C263.32 1750.7 289.2 1765.79 314.5 1780.51C339.8 1795.23 365.9 1810.42 372.5 1814.27C379.1 1818.12 389.9 1824.4 396.5 1828.24C403.1 1832.08 410.98 1836.69 414 1838.5C417.02 1840.3 428.05 1846.7 438.5 1852.72C448.95 1858.74 467.85 1869.67 480.5 1877.01C518.41 1899 583.31 1936 583.97 1936C584.31 1936 602.79 1925.61 625.04 1912.9ZM552.45 1851.62C528.86 1839.28 457.53 1799.12 407.5 1770.01C399.25 1765.21 383.5 1756.11 372.5 1749.79C361.5 1743.47 345.98 1734.47 338 1729.79C330.02 1725.1 319.23 1718.8 314 1715.78C256.29 1682.45 151.84 1619.97 135.75 1609.17C126.2 1602.76 125 1601.63 125 1599.04C125 1594.27 126.75 1591.09 130.31 1589.39C133.48 1587.88 133.9 1587.91 137.83 1589.92C148.36 1595.29 257.79 1658.03 328.5 1699.25C335.1 1703.09 343.43 1707.94 347 1710.02C362.76 1719.18 396.67 1738.99 409.5 1746.52C417.2 1751.05 437 1762.62 453.5 1772.24C480.31 1787.88 495.72 1796.98 531 1818C560.64 1835.66 576 1847.23 576 1851.9C576 1854.98 572.13 1859 569.18 1858.98C567.7 1858.97 560.18 1855.66 552.45 1851.62ZM993.49 1620.62C991.79 1619.37 991.54 1617.2 990.9 1598.37C988.67 1532.42 989.38 1190.83 991.84 1143.64C992.66 1128.07 993.36 1126.65 1000 1127.21C1005.37 1127.66 1006.75 1131.5 1008.05 1149.55C1008.78 1159.76 1009.03 1236.54 1008.81 1391.6C1008.55 1582.27 1008.28 1618.96 1007.13 1620.35C1005.4 1622.43 996.22 1622.61 993.49 1620.62ZM136.45 1161.55C134.51 1159.6 134 1158.06 134 1154.11C134 1149.81 134.37 1148.88 136.75 1147.23C140.05 1144.94 167.81 1128.24 192 1114.01C201.62 1108.34 219.18 1097.98 231 1090.98C242.82 1083.99 268.25 1069.05 287.5 1057.8C306.75 1046.54 337.12 1028.79 355 1018.34C429.51 974.78 522.92 920.66 560.45 899.32C579.56 888.46 588.32 884 590.56 884C596.57 884 601.45 890.42 598.97 895.05C597.3 898.19 585.2 906.68 562.41 920.74C530.85 940.2 506.26 954.83 438.5 994.46C423.65 1003.14 402.5 1015.54 391.5 1022C313.55 1067.84 182.3 1143.07 152.81 1158.83C147.49 1161.67 142.18 1164 141.02 1164C139.86 1164 137.8 1162.9 136.45 1161.55ZM2271.01 853.75C2271.01 853.06 2277.79 845.3 2286.07 836.5C2312.45 808.46 2323.24 794.7 2329.94 780.55C2338.82 761.82 2338.69 750.65 2329.47 739.4C2324.26 733.04 2316.62 729.65 2307.65 729.72C2296.05 729.8 2289.03 734.03 2284.03 743.94C2279.08 753.75 2276.17 754.06 2277.23 744.65C2278.53 733.14 2288.06 720.67 2299.75 715.2C2304.8 712.83 2306.73 712.5 2315.52 712.5C2324.91 712.5 2325.98 712.71 2332.51 715.93C2349.89 724.49 2358.51 742.4 2353.52 759.58C2350.01 771.66 2339.96 787.76 2324.55 806C2305.48 828.59 2300 835.72 2300 838L2300 840.26L2315.75 839.74C2333.8 839.13 2346.23 837.03 2353.69 833.32C2359.87 830.24 2362.35 830.69 2361.39 834.73C2360.55 838.23 2354.95 852.09 2353.7 853.75C2352.97 854.71 2343.41 855 2311.88 855C2279.84 855 2271 854.73 2271.01 853.75ZM1609.5 812.01C1569.59 803.95 1543.55 778.77 1532.43 737.5C1530.18 729.17 1529.65 724.75 1529.24 711C1528.68 691.89 1529.83 681.94 1534.22 668C1540.32 648.67 1549.45 633.61 1563.21 620.15C1580.52 603.22 1604.71 593.22 1630.64 592.26C1645.79 591.7 1652.05 592.7 1673.04 599.04C1690.8 604.4 1694.66 604.82 1698.29 601.81C1699.82 600.54 1701.69 597.7 1702.44 595.5C1704.36 589.87 1707.48 589.5 1709.63 594.65C1712.6 601.76 1715.64 661.87 1713.11 663.43C1711.81 664.24 1710.87 662.78 1703.71 648.83C1695.62 633.07 1692.88 629.08 1684.83 621.37C1673.36 610.39 1662.08 606.11 1642.5 605.3C1626.05 604.63 1619.89 605.76 1608.34 611.54C1589.35 621.07 1577.3 636.55 1571.4 658.99C1565.15 682.77 1564.54 721.55 1570.08 743.3C1577.2 771.25 1595.82 789.39 1625.43 797.21C1635.54 799.88 1650.65 800.08 1659.8 797.67C1677.63 792.98 1689.39 785.3 1703.16 769.39C1711.99 759.19 1716.99 755.59 1719.25 757.85C1720.86 759.46 1718.5 763.98 1711.27 773.08C1702.58 784.02 1689.24 797 1682.76 800.83C1662.71 812.69 1634.31 817.03 1609.5 812.01ZM2052.19 811.98C2046.52 810.8 2033.85 805.28 2024.39 799.87C1999.68 785.73 1982.9 760.57 1977.54 729.62C1975.58 718.29 1975.55 695.33 1977.48 683.4C1983.48 646.45 2005.25 616.14 2036.37 601.45C2050.09 594.97 2059.05 592.87 2075.5 592.28C2091.87 591.69 2099.56 592.86 2120.09 599.05C2137.8 604.4 2141.66 604.82 2145.29 601.81C2146.82 600.54 2148.69 597.7 2149.45 595.5C2151.13 590.57 2154.71 589.9 2156.74 594.14C2159.33 599.55 2162.11 656.19 2160.04 661.49L2158.87 664.48L2156.97 661.99C2155.92 660.62 2152.32 654.2 2148.96 647.72C2138.67 627.89 2128.33 616.79 2113.77 609.98C2091.51 599.56 2058.5 603.95 2041.05 619.65C2031.83 627.93 2020.04 648.27 2016.53 661.93C2012.66 676.98 2012.1 721.73 2015.57 738.43C2019.83 758.91 2032.01 777.59 2047.73 787.74C2063.4 797.87 2090.06 801.53 2110.5 796.35C2122.11 793.41 2129.4 788.61 2144.52 773.94C2152.23 766.47 2159.7 759.59 2161.13 758.65C2163.66 756.99 2167 757.28 2167 759.16C2167 763.09 2156.44 776.52 2144.37 787.95C2134.08 797.69 2123.15 804.99 2112.52 809.22L2104.5 812.42L2080.5 812.65C2067.3 812.77 2054.56 812.47 2052.19 811.98ZM1748.5 808.38C1740.6 807.6 1738 806.9 1738 805.53C1738 804.14 1739.75 803.62 1748.18 802.51C1756.03 801.48 1762.13 796.11 1764.17 788.42C1765.63 782.94 1766.37 679.6 1765.22 642.74C1764.39 616.28 1764.09 612.76 1762.49 610.99C1760.11 608.35 1751.5 604.34 1746.5 603.53C1739 602.32 1738 601.96 1738 600.5C1738 599.7 1739.24 598.69 1740.75 598.27C1744.45 597.23 1820.47 597.28 1825.39 598.32C1828.86 599.05 1829.12 599.31 1827.78 600.65C1826.95 601.48 1823.28 602.53 1819.64 602.98C1812.13 603.91 1805.28 607.4 1802.05 611.92C1798.6 616.78 1798 623.81 1798 659.65L1798 694.02L1846.25 693.76L1894.5 693.5L1894.78 670.5C1895.1 644.07 1893.78 615.33 1892.11 612.2C1889.95 608.17 1880.98 604.09 1870.75 602.5C1866.28 601.8 1865.72 599.4 1869.75 598.27C1873.45 597.23 1949.47 597.28 1954.39 598.32C1957.86 599.05 1958.12 599.31 1956.78 600.65C1955.95 601.48 1952.36 602.52 1948.82 602.96C1941.19 603.91 1937.33 605.74 1931.39 611.21L1927 615.25L1927 702.49L1927 789.73L1931.84 794.26C1938.17 800.18 1941.86 801.99 1949.86 803.12C1957.78 804.24 1959.44 805.45 1955.41 807.17C1953.26 808.09 1942.28 808.42 1913.5 808.46C1873.99 808.5 1867 808.06 1867 805.5C1867 804.64 1868.45 803.87 1870.75 803.53C1882.69 801.76 1888.52 798.76 1891.61 792.79C1894.02 788.13 1894.92 773.81 1894.96 739.75L1895 709L1846.5 709L1798 709L1798 744.36C1798 763.81 1798.44 782.06 1798.98 784.91C1800.87 794.88 1808.85 801.56 1820.62 803.02C1828.58 804 1830.57 805.42 1826.41 807.12C1823.58 808.27 1758.13 809.34 1748.5 808.38ZM2197.27 808.08C2191.37 807.37 2188.56 805.52 2191.01 803.97C2191.83 803.45 2193.53 803.02 2194.79 803.02C2199.13 802.99 2205.06 799.11 2206.67 795.24C2209.57 788.32 2210.23 765.36 2209.74 689.27C2209.31 623.37 2209.08 614.77 2207.66 612.6C2205.78 609.73 2204.75 609.38 2195.69 608.49C2188.06 607.75 2186.13 605.93 2189.79 602.97C2192.65 600.65 2211.47 592.48 2222.3 588.85C2231.73 585.69 2234.43 585.78 2235.4 589.28C2236.84 594.47 2238 626.72 2239.01 689.5C2240.58 788.1 2241.46 799.41 2247.75 801.8C2249.26 802.38 2252.66 803.05 2255.3 803.31C2257.94 803.56 2260.38 804.05 2260.73 804.4C2262.1 805.76 2258.74 807.43 2253.25 808.11C2246.25 808.99 2204.54 808.97 2197.27 808.08ZM560.85 285.51C527.69 279.2 502.01 258.31 485.84 224.46C478.57 209.23 477.68 203.16 478.25 172.52C478.78 144.29 479.84 138.24 486.56 124.86C501.87 94.42 528.88 73.04 560.21 66.59C570.22 64.52 590.22 64.52 601.05 66.57C619.53 70.07 635.97 78.45 649.62 91.31C667.49 108.16 678.2 127.67 683.61 153.23C685.69 163.06 685.96 185.14 684.12 195C681.28 210.19 674.09 227.2 664.82 240.65C659.43 248.47 642.28 265.69 634.76 270.84C627.47 275.83 614.36 281.76 605.5 284.06C594.86 286.84 571.77 287.58 560.85 285.51ZM712.75 281.05C705.5 280.44 701.72 278.95 703.33 277.34C703.71 276.95 706.97 276.28 710.57 275.85C718.59 274.89 726.52 270.82 728.74 266.55C729.95 264.21 730.5 258.38 731.12 241.5C732.08 215.23 731.28 112.3 729.99 96C729.12 85 728.95 84.38 726.08 81.8C724.44 80.32 721.38 78.65 719.29 78.08C717.21 77.52 712.91 76.36 709.75 75.5C700.87 73.1 702.11 71.33 713.25 70.49C727.67 69.41 791.7 70.29 792.99 71.59C794.8 73.4 791.95 74.87 784.63 75.91C776.67 77.04 769.68 80.78 767.43 85.13C765.44 88.98 764.37 104.03 763.52 139.75L762.88 167L810.88 167C848.18 167 859.06 166.72 859.69 165.75C860.8 164.04 860.21 102.41 858.99 92.57C857.61 81.41 854.72 78.89 840 76.02C834.12 74.87 831.15 73.52 832.21 72.46C834.01 70.66 852.7 69.84 885.13 70.16C920.76 70.5 925.18 70.94 921.71 73.82C920.96 74.45 917.41 75.38 913.82 75.88C906.91 76.86 901.27 79.35 896.75 83.43L894 85.9L894 175.35L894 264.79L897.7 268.04C902.56 272.31 908.39 274.81 915.89 275.83C922.64 276.76 923.95 277.45 922.2 279.2C918.55 282.85 836.38 282.78 832.73 279.13C831.02 277.42 832.51 276.7 839.57 275.85C848.72 274.75 855.77 270.78 858.16 265.37C859.81 261.63 860.01 257.48 860.24 221.87L860.5 182.5L811.68 182.24L762.86 181.98L763.44 219.19C763.77 239.65 764.48 258.08 765.04 260.15C767.24 268.3 775.45 274.36 786.4 275.91C790.15 276.45 793.47 277.14 793.79 277.46C795.4 279.07 791.1 280.31 781.34 281.06C768.9 282.02 724.26 282.01 712.75 281.05ZM592.5 272.89C623.97 264.94 642.25 240.15 647.06 198.93C648.7 184.86 647.69 156.63 645.1 144C638.1 109.95 623.68 89.47 600.2 80.24C594.26 77.91 592.08 77.6 581 77.57C566.77 77.52 558.29 79.54 549.5 85.05C532.34 95.82 519.59 118.39 515.84 144.64C513.98 157.64 514.24 192.23 516.28 204.01C519.9 224.92 525.74 239.62 535.54 252.54C544.86 264.81 556.83 272.28 570.5 274.36C574.63 274.99 587.65 274.12 592.5 272.89Z" fill="#1e2749" fill-rule="evenodd"/>
</svg>
