<?xml version="1.0" encoding="UTF-8"?>
<svg xmlns="http://www.w3.org/2000/svg" viewBox="0 0 924 207.9" width="924" height="207.9" shape-rendering="geometricPrecision">
<path d="M9.34 107.84L9.45 18.27L459.06 18.16C706.35 18.09 909.1 18.14 909.62 18.27L910.56 18.5L910.46 107.84L910.35 197.19L459.79 197.3L9.24 197.4L9.34 107.84ZM445.1 175.88L445.21 156.66L228.48 156.66L11.76 156.66L11.76 175.98L11.76 195.3L228.38 195.2L444.99 195.09L445.1 175.88ZM907.78 194.97C908.1 194.45 908.28 157.18 907.97 156.87C907.81 156.71 884.28 156.59 855.68 156.59C827.07 156.6 723.58 156.61 625.69 156.63L447.72 156.66L447.72 175.98L447.72 195.3L677.65 195.3C804.1 195.3 907.66 195.15 907.78 194.97ZM626.23 184.91C626.24 184.73 626.52 184.22 626.86 183.77C627.76 182.59 627.77 170.18 626.87 169.84C626.53 169.71 626.01 169.76 625.72 169.95C625.42 170.14 624.51 170.3 623.7 170.31L622.23 170.31L622.11 174.03C622.01 177.16 622.1 177.84 622.71 178.28C623.38 178.77 623.37 178.84 622.54 179.28C620.96 180.13 618.24 179.77 618.24 178.72C618.24 178.42 618.54 177.93 618.91 177.63C619.45 177.18 619.55 176.38 619.43 173.52C619.34 171.16 619.11 169.9 618.76 169.78C617.84 169.48 618.2 168.41 619.39 167.96C620.19 167.65 620.77 167.65 621.25 167.95C621.73 168.24 622.33 168.23 623.21 167.9C624.17 167.54 624.75 167.54 625.54 167.9C626.33 168.26 626.95 168.27 627.95 167.92C629.06 167.53 629.37 167.57 629.79 168.14C630.23 168.74 630.38 168.75 631.09 168.21C632.46 167.18 634.79 167.43 636.22 168.77C640.16 172.45 636.6 180.48 631.46 179.52L630 179.25L630 181.09C630 182.1 630.28 183.33 630.62 183.81C630.95 184.29 631.11 184.81 630.97 184.95C630.59 185.33 626.22 185.29 626.23 184.91ZM94.92 179.64C94.34 179.35 93.81 178.69 93.74 178.17C93.62 177.39 93.8 177.24 94.87 177.24C95.56 177.24 96.25 177.43 96.39 177.66C96.89 178.47 98.86 178.08 100.04 176.95C102.64 174.47 100.93 170.53 96.8 169.49C94.17 168.83 94.02 168.13 95.74 164.74C97.16 161.94 97.52 161.7 100.17 161.7C102.34 161.7 103.32 162.02 103.32 162.73C103.32 163.8 101.81 164.59 99.54 164.72C96.56 164.89 96.49 165.7 99.33 167.19C101.64 168.41 103.16 170.29 103.56 172.44C104.28 176.26 98.21 181.32 94.92 179.64ZM26.98 179.2L24.78 178.77L24.78 176.53C24.78 175.31 24.97 174.3 25.2 174.3C25.43 174.3 25.62 174.48 25.62 174.71C25.62 174.93 26.29 175.78 27.1 176.6C29.19 178.68 32.02 178.58 33.2 176.36C33.86 175.12 32.87 173.83 29.99 172.18C25.21 169.44 23.54 167.01 24.79 164.58C26 162.22 27.76 161.75 33.07 162.39L35.28 162.66L35.28 164.67C35.28 167.23 34.75 167.56 33.62 165.72C32.11 163.28 28.35 162.67 27.27 164.7C26.57 166 27.75 167.34 31.5 169.47C36.1 172.09 37.23 174 35.59 176.42C34.28 178.36 32.09 179.77 30.49 179.69C29.78 179.66 28.2 179.44 26.98 179.2ZM58.7 179.47C57.79 179.23 57.76 178.77 58.59 178.08C59.53 177.3 59.51 164.63 58.57 163.19C57.94 162.23 57.96 162.19 59.12 161.93C60.71 161.58 62.27 162.2 62.89 163.44C64.42 166.48 67.62 173.62 67.62 173.99C67.62 174.85 69.13 173.05 69.67 171.54C69.98 170.7 71.06 168.25 72.07 166.1C74.02 161.95 74.63 161.42 76.87 161.91C78.05 162.17 78.09 162.24 77.49 163.09C76.99 163.79 76.86 165.4 76.86 170.61C76.86 176.7 76.93 177.31 77.71 178.09L78.56 178.94L77.47 179.35C75.53 180.08 72.66 179.77 72.66 178.82C72.66 178.58 72.99 178.14 73.39 177.85C74.02 177.39 74.13 176.6 74.13 172.59C74.13 169.65 73.96 167.81 73.69 167.72C73.44 167.63 72.24 169.79 71.01 172.51C68.24 178.66 67.68 179.57 67.09 178.98C66.85 178.74 65.57 176.13 64.24 173.18C62.92 170.23 61.63 167.75 61.37 167.67C61.04 167.56 60.9 168.97 60.9 172.37C60.9 176.69 61 177.34 61.75 178.09L62.6 178.94L61.51 179.35C60.38 179.78 59.94 179.79 58.7 179.47ZM83.67 179.1C81.26 177.41 79.86 170.76 81.02 166.48C81.85 163.37 84.64 160.93 86.74 161.46C88.08 161.79 90.19 163.63 91.04 165.22C92.04 167.06 92.04 173.97 91.05 175.81C89.25 179.14 85.87 180.65 83.67 179.1ZM461.06 179.47C460.1 179.22 460.13 178.81 461.16 177.87C461.93 177.17 462 176.58 462 170.59C462 165.03 461.89 163.96 461.28 163.28C460.66 162.6 460.65 162.43 461.18 162.08C461.81 161.65 465.19 161.81 465.67 162.29C465.81 162.43 465.71 162.78 465.44 163.05C465.09 163.39 464.94 165.73 464.94 170.58C464.94 177.32 464.98 177.64 465.85 178.25L466.76 178.89L465.61 179.32C464.46 179.76 462.42 179.83 461.06 179.47ZM506.83 179.47C505.88 179.22 505.91 178.81 506.94 177.87C507.71 177.17 507.78 176.58 507.78 170.54C507.78 166.2 507.62 163.81 507.3 163.49C507.04 163.23 506.95 162.7 507.1 162.31C507.32 161.73 507.77 161.63 509.48 161.8C511.93 162.03 512.47 162.4 511.45 163.15C510.81 163.62 510.72 164.49 510.72 170.38C510.72 175.02 510.87 177.23 511.22 177.58C512.31 178.66 518.28 177.74 518.28 176.49C518.28 176.32 518.68 175.93 519.17 175.62C520.04 175.08 520.06 175.11 519.78 176.68C519.3 179.43 518.51 179.77 512.67 179.71C509.86 179.68 507.24 179.58 506.83 179.47ZM522.79 179.47C521.89 179.23 521.86 178.77 522.69 178.08C523.16 177.69 523.32 176.64 523.32 173.88C523.32 171.12 523.16 170.07 522.69 169.68C521.78 168.92 521.9 168.59 523.31 168C525.63 167.04 525.84 167.44 525.84 172.88C525.84 177.06 525.95 177.86 526.57 178.32C527.25 178.81 527.21 178.89 526.13 179.31C524.92 179.77 524.09 179.81 522.79 179.47ZM529.51 179.47C528.61 179.23 528.56 178.36 529.41 177.66C530.36 176.87 530.29 170.66 529.32 169.58C528.7 168.9 528.69 168.73 529.22 168.39C530.49 167.57 531.84 167.44 532.33 168.11C532.74 168.67 532.94 168.68 533.84 168.18C535.44 167.3 537.09 167.46 538.25 168.61C539.19 169.56 539.28 169.96 539.28 173.51C539.28 176.5 539.44 177.56 539.97 178.14C540.61 178.85 540.58 178.93 539.44 179.36C538.19 179.84 535.5 179.56 535.5 178.95C535.5 178.76 535.78 178.37 536.13 178.08C536.6 177.69 536.76 176.66 536.76 174.12C536.76 170.39 536.42 169.68 534.66 169.68C532.87 169.68 532.56 170.38 532.56 174.36C532.56 177.43 532.68 178.11 533.29 178.45C533.95 178.81 533.89 178.91 532.85 179.31C531.64 179.77 530.81 179.81 529.51 179.47ZM544.77 179.02C541.86 177.54 540.63 173.97 541.94 170.83C543.26 167.67 547.62 166.52 550.17 168.67C551.43 169.73 551.9 171.46 551.06 171.98C550.84 172.11 549.14 172.34 547.28 172.48C543.43 172.78 543.07 173.25 544.97 175.51C546.46 177.28 547.39 177.46 549.35 176.35C550.28 175.83 551.15 175.53 551.29 175.67C551.77 176.15 549.67 178.59 548.26 179.18C546.51 179.91 546.5 179.91 544.77 179.02ZM554.83 179.22C553.57 178.59 552.92 176.93 553.3 175.4C553.61 174.18 555.57 172.74 557.48 172.33C558.95 172.02 559.82 170.43 559.03 169.48C558.1 168.36 556.71 168.7 556.05 170.2C555.27 171.98 554.11 172.22 553.72 170.69C553.12 168.28 557.32 166.63 560.45 168.06C561.82 168.68 562 169.21 562.28 173.46C562.44 175.92 562.7 177.17 563.14 177.49C563.67 177.88 563.62 178.05 562.77 178.64C561.59 179.47 560.96 179.51 559.9 178.85C559.28 178.46 558.81 178.51 557.64 179.06C555.89 179.89 556.12 179.88 554.83 179.22ZM565 179.48C564.29 179.19 564.34 178.3 565.11 177.66C565.98 176.94 565.99 171.01 565.12 169.87C564.26 168.73 564.31 168.59 565.79 167.98C566.8 167.56 567.27 167.55 567.89 167.93C568.49 168.31 568.87 168.31 569.46 167.94C570.52 167.28 572.46 167.81 572.46 168.76C572.46 169.94 571.62 170.5 570.26 170.23C568.57 169.89 568.27 170.51 568.27 174.35C568.26 176.78 568.42 177.69 568.93 178.11C569.54 178.62 569.53 178.72 568.85 179.21C568.11 179.75 566.03 179.9 565 179.48ZM580.75 179.47C579.85 179.23 579.82 178.77 580.65 178.08C581.12 177.69 581.28 176.64 581.28 173.88C581.28 171.12 581.12 170.07 580.65 169.68C579.74 168.92 579.86 168.59 581.27 168C583.59 167.04 583.8 167.44 583.8 172.88C583.8 177.06 583.91 177.86 584.53 178.32C585.21 178.81 585.17 178.89 584.09 179.31C582.88 179.77 582.05 179.81 580.75 179.47ZM587.48 179.47C586.58 179.24 586.51 178.26 587.37 177.93C587.86 177.74 588 176.88 588 173.94C588 171.13 587.84 170.07 587.37 169.68C586.41 168.88 586.6 168.53 588.28 167.98C589.58 167.55 589.89 167.57 590.29 168.11C590.7 168.67 590.9 168.68 591.8 168.18C593.23 167.39 594.88 167.44 595.97 168.33C597.04 169.2 597.62 171.63 597.64 175.43C597.65 176.92 597.87 178.16 598.14 178.33C598.84 178.76 597.34 179.76 596 179.75C594.26 179.74 593.57 179.11 594.19 178.1C594.73 177.23 594.93 171.56 594.47 170.34C594.17 169.59 592.54 169.47 591.33 170.11C590.62 170.49 590.52 171.02 590.52 174.29C590.52 177.42 590.64 178.11 591.25 178.45C591.91 178.81 591.85 178.91 590.81 179.31C589.6 179.77 588.77 179.81 587.48 179.47ZM601.21 178.72C600.25 177.77 600.18 177.4 600.18 173.42C600.18 169.91 600.05 169.05 599.48 168.63C598.84 168.16 598.91 167.95 600.21 166.39C601.86 164.4 602.7 164.17 602.7 165.71C602.7 166.51 603.03 166.92 603.98 167.32C605.31 167.88 605.15 168.36 603.43 168.97C602.82 169.19 602.7 169.77 602.7 172.57C602.7 176.6 602.91 177.24 604.21 177.24C605.4 177.24 605.5 177.71 604.49 178.58C603.11 179.77 602.28 179.8 601.21 178.72ZM610.47 179.47C609.38 179.19 607.81 177.74 607.07 176.32C605.74 173.76 606.78 169.36 608.98 168.22C610.68 167.34 613.14 167.42 614.76 168.41C616.15 169.26 616.97 171.11 616.27 171.82C616.05 172.04 614.33 172.33 612.44 172.48C609.9 172.68 609 172.9 609 173.33C609 174.55 610.27 176.3 611.52 176.82C612.69 177.3 612.96 177.27 614.05 176.46C614.72 175.97 615.57 175.56 615.94 175.56C616.53 175.56 616.52 175.7 615.85 176.84C614.64 178.89 612.44 179.96 610.47 179.47ZM642.71 179.09C638.65 177.03 638.45 169.83 642.4 168.18C646.48 166.47 651 169.1 651 173.18C651 177.41 646.17 180.85 642.71 179.09ZM653.41 179.47C652.51 179.23 652.46 178.36 653.31 177.66C653.82 177.24 653.94 175.9 653.94 170.62C653.94 165.03 653.84 164.03 653.24 163.59C652.32 162.91 652.78 161.8 654.13 161.46C656.43 160.88 656.46 160.98 656.46 169.86C656.46 177.21 656.53 178.08 657.19 178.45C657.85 178.81 657.79 178.91 656.75 179.31C655.54 179.77 654.71 179.81 653.41 179.47ZM660.48 178.87C659.54 178.13 659.38 177.71 659.48 176.26C659.59 174.79 659.85 174.38 661.29 173.4C662.21 172.76 663.33 172.19 663.77 172.12C664.93 171.93 665.6 170.7 665.02 169.78C664.29 168.62 662.83 168.61 662.38 169.77C662.18 170.32 661.69 171.02 661.31 171.34C660.36 172.13 659.32 171.13 659.68 169.77C660.22 167.68 665.03 166.78 667.02 168.38C667.9 169.1 668.03 169.59 668.15 172.9C668.25 175.67 668.45 176.74 668.95 177.13C669.56 177.6 669.55 177.72 668.86 178.49C667.99 179.45 666.9 179.57 665.74 178.85C665.12 178.46 664.65 178.51 663.48 179.06C661.65 179.93 661.84 179.94 660.48 178.87ZM672.61 178.72C671.66 177.77 671.58 177.39 671.58 173.53C671.58 170.34 671.43 169.24 670.95 168.84C670.07 168.11 670.13 167.89 671.76 166.11C673.2 164.54 674.8 164.27 674.26 165.68C673.93 166.53 674.82 167.58 675.86 167.58C676.89 167.58 676.44 168.35 675.11 168.86C674.16 169.22 674.1 169.44 674.1 172.58C674.1 176.6 674.31 177.24 675.61 177.24C676.8 177.24 676.9 177.71 675.88 178.58C674.51 179.77 673.68 179.8 672.61 178.72ZM679.03 179.47C678.15 179.24 678.13 178.96 678.94 177.89C679.82 176.74 679.81 170.41 678.93 169.68C678.58 169.39 678.3 169.01 678.3 168.82C678.3 168.34 681.14 167.47 681.65 167.78C681.9 167.94 682.08 170.03 682.08 172.8C682.08 176.64 682.21 177.66 682.75 178.11C684.06 179.2 681.54 180.12 679.03 179.47ZM688.07 179.09C683.94 176.99 683.81 169.83 687.87 168.13C689.94 167.27 692.74 167.61 694.12 168.9C696.46 171.08 696.9 173.28 695.53 175.96C693.96 179.04 690.68 180.42 688.07 179.09ZM698.46 179.35C697.94 179.02 697.92 178.8 698.36 178.1C699.14 176.83 699.06 170.35 698.25 169.68C697.29 168.88 697.48 168.53 699.16 167.98C700.5 167.53 700.77 167.56 701.23 168.2C701.72 168.87 701.84 168.87 702.73 168.25C704.19 167.23 706.12 167.4 707.31 168.66C708.22 169.63 708.35 170.2 708.48 173.81C708.56 176.04 708.8 178.09 709.03 178.37C709.87 179.39 706.58 180.23 705.18 179.35C704.64 179.01 704.66 178.78 705.35 177.62C705.99 176.53 706.09 175.77 705.89 173.4C705.76 171.82 705.53 170.33 705.39 170.1C704.99 169.45 702.79 169.61 702.06 170.34C701.11 171.29 701.13 177.08 702.09 178.14C702.73 178.85 702.7 178.93 701.64 179.33C700.24 179.86 699.28 179.87 698.46 179.35ZM39.29 178.56C38.69 176.68 40.38 175.68 41.78 177.08C42.41 177.71 42.4 177.82 41.74 178.55C40.83 179.56 39.61 179.56 39.29 178.56ZM475.07 176.79C473.54 173.42 471.09 167.86 470.27 165.85C469.93 165.02 469.21 163.93 468.67 163.42C467.83 162.64 467.78 162.44 468.31 162.11C469.04 161.64 471.94 161.62 473.1 162.08C473.66 162.3 473.76 162.49 473.42 162.7C473.14 162.87 472.92 163.38 472.92 163.84C472.92 165.12 476.78 173.92 477.27 173.76C477.51 173.68 478.59 171.46 479.69 168.81C481.1 165.38 481.55 163.86 481.24 163.49C480.15 162.18 482.32 161.14 484.46 161.96C485.07 162.2 485.06 162.32 484.31 163.12C483.85 163.61 482.13 167.22 480.49 171.15C478.85 175.08 477.24 178.56 476.91 178.89C476.39 179.41 476.14 179.14 475.07 176.79ZM487.78 178.73C487.33 177.57 487.81 176.61 488.84 176.61C490.16 176.61 490.92 177.78 490.17 178.67C489.48 179.51 488.09 179.54 487.78 178.73ZM87.24 177.87C88.47 177.01 89.18 173.32 88.95 169.07C88.61 162.82 85.98 160.56 84.14 164.94C83.44 166.62 83.39 174.03 84.06 176.02C84.93 178.6 85.62 179 87.24 177.87ZM634.08 177.13C635.33 175.78 635.63 173.84 634.88 172.03C634.03 170.02 632.51 169.31 631.07 170.26C630.1 170.89 630 171.23 630 173.71C630 175.22 630.2 176.82 630.43 177.27C631.04 178.39 632.99 178.32 634.08 177.13ZM647.09 177.17C647.86 176.44 648.06 175.81 648.06 174.08C648.06 171.26 646.73 169.11 644.86 168.92C642.98 168.74 642.38 169.72 642.45 172.87C642.54 177.27 644.77 179.34 647.09 177.17ZM692.59 176.92C693.86 175.32 693.62 171.45 692.17 169.9C690.05 167.65 687.54 169.05 687.54 172.48C687.54 177.02 690.47 179.61 692.59 176.92ZM558.91 176.7C559.2 176.48 559.44 175.66 559.44 174.88C559.44 173.65 559.3 173.46 558.39 173.46C557.24 173.46 555.66 174.78 555.66 175.74C555.66 177.32 557.43 177.85 558.91 176.7ZM665.17 175.92C666.19 173.79 664.45 172.56 662.69 174.16C661.92 174.85 661.66 176.42 662.22 176.98C662.88 177.64 664.66 177 665.17 175.92ZM548.07 170.77C548.46 170.3 548.36 170.04 547.61 169.51C547.08 169.14 546.43 168.84 546.16 168.84C545.31 168.84 543.75 170.36 544.07 170.87C544.49 171.56 547.48 171.48 548.07 170.77ZM613.07 170.67C613.36 169.91 612.22 168.84 611.1 168.84C609.98 168.84 608.84 169.91 609.13 170.67C609.31 171.15 609.9 171.36 611.1 171.36C612.3 171.36 612.89 171.15 613.07 170.67ZM523.6 163.52C523.45 163.37 523.32 162.8 523.32 162.26C523.32 161.49 523.55 161.28 524.38 161.28C524.97 161.28 525.56 161.57 525.69 161.92C526.13 163.05 524.43 164.35 523.6 163.52ZM581.56 163.52C581.41 163.37 581.28 162.8 581.28 162.26C581.28 161.49 581.51 161.28 582.34 161.28C582.93 161.28 583.52 161.57 583.65 161.92C584.09 163.05 582.39 164.35 581.56 163.52ZM679.84 163.52C679.69 163.37 679.56 162.8 679.56 162.26C679.56 161.52 679.79 161.28 680.53 161.28C682.03 161.28 682.63 162.12 681.8 163.04C681.09 163.82 680.33 164.01 679.84 163.52ZM907.66 153.85C908.05 153.46 908.29 122.33 907.9 121.94C907.82 121.86 804.25 121.75 677.74 121.69L447.72 121.59L447.72 137.86L447.72 154.14L620.02 154.24C869.54 154.4 907.16 154.35 907.66 153.85ZM444.99 137.86L444.99 121.8L228.38 121.69L11.76 121.59L11.76 137.87L11.76 154.14L228.38 154.04L444.99 153.93L444.99 137.86ZM641.95 149.07C641.8 148.83 641.98 148.29 642.36 147.87C642.94 147.23 643.02 146.12 642.93 140.44C642.81 134.03 642.78 133.78 641.97 133.92C641.51 134.01 640.47 134.07 639.67 134.05C638.87 134.04 638.07 134.25 637.89 134.53C637.72 134.8 637.57 136.58 637.57 138.47C637.56 141.31 637.69 141.99 638.29 142.35C638.94 142.73 638.95 142.84 638.4 143.21C637.56 143.77 634.32 143.76 633.97 143.19C633.82 142.95 634 142.41 634.37 142.01C635.31 140.96 635.34 134.07 634.41 133.71C633.31 133.29 633.73 132.49 635.34 131.91C636.69 131.41 636.95 131.43 637.31 131.99C637.67 132.57 637.82 132.57 638.72 131.98C639.56 131.43 639.97 131.4 641.11 131.82C642.13 132.18 642.82 132.2 643.69 131.86C644.67 131.49 644.98 131.54 645.4 132.11C645.86 132.75 645.98 132.75 646.87 132.13C648.07 131.29 649.43 131.28 651.01 132.1C652.64 132.94 653.52 134.74 653.52 137.21C653.52 141.02 650.68 143.88 647.32 143.46L645.54 143.24L645.54 145.02C645.54 146.01 645.83 147.23 646.19 147.75C646.55 148.26 646.73 148.87 646.59 149.1C646.24 149.66 642.3 149.64 641.95 149.07ZM727.44 146.65C727.44 146.46 727.91 145.86 728.49 145.32C729.78 144.11 729.81 143.74 728.64 143.56C727.38 143.38 726.68 142.17 727.28 141.22C727.99 140.09 729 140.12 730.2 141.32C731.05 142.17 731.24 142.68 731.04 143.56C730.65 145.22 727.44 147.98 727.44 146.65ZM86.93 143.31C85.98 142.83 85.14 141.89 84.44 140.5C83.53 138.72 83.37 137.85 83.37 134.62C83.37 131.49 83.54 130.48 84.36 128.82C85.99 125.5 89.08 124.6 91.59 126.72C93.63 128.44 94.48 130.7 94.49 134.47C94.5 138.16 93.62 140.68 91.71 142.43C90.08 143.93 88.67 144.19 86.93 143.31ZM96.91 143.61C96.51 143.37 96.18 142.79 96.18 142.31C96.18 141.4 96.37 141.4 100.21 142.19C101.32 142.42 101.67 142.26 102.66 141.08C103.56 140 103.76 139.43 103.56 138.45C103.23 136.79 102.3 135.81 100.78 135.51C99.15 135.18 99.21 134.45 101.01 133.02C102.16 132.1 102.48 131.54 102.48 130.46C102.48 127.99 100.05 126.87 97.93 128.35C96.72 129.2 96.3 128.82 97 127.52C97.66 126.28 99.12 125.58 101.04 125.58C102.88 125.58 104.34 126.52 105 128.11C105.44 129.17 105.39 129.55 104.63 130.84C103.53 132.71 103.52 133.23 104.56 134.18C105.85 135.34 106.41 137.5 105.86 139.16C104.72 142.62 99.59 145.17 96.91 143.61ZM24.36 143.23C23.83 142.88 23.87 142.72 24.68 142.16C25.59 141.51 25.62 141.27 25.62 134.61C25.62 130.48 25.45 127.63 25.2 127.47C24.97 127.33 24.78 126.94 24.78 126.61C24.78 126.12 25.58 126 28.78 126C34.67 126 36.96 127.28 36.96 130.57C36.96 131.7 36.6 132.35 35.28 133.61C34.36 134.49 33.6 135.37 33.6 135.56C33.6 136.34 37.52 141.24 38.67 141.89C40.28 142.81 40.02 143.4 37.92 143.56C35.92 143.71 35.76 143.57 32.55 139.02C30.98 136.8 29.91 135.66 29.37 135.66C28.65 135.66 28.56 135.97 28.56 138.6C28.56 141.05 28.69 141.62 29.38 142.04C29.99 142.42 30.08 142.69 29.75 143.1C29.22 143.73 25.3 143.82 24.36 143.23ZM42.52 143.36C41.9 143.11 41.82 140.86 42.42 140.49C43.06 140.1 44.41 140.64 44.7 141.41C44.84 141.78 44.64 142.43 44.26 142.86C43.52 143.67 43.39 143.71 42.52 143.36ZM60.67 143.19C60.52 142.94 60.79 142.31 61.28 141.8C62.09 140.93 62.16 140.38 62.16 134.53C62.16 129.42 62.04 128.1 61.53 127.68C60.23 126.6 60.78 125.95 62.89 126.08C65.17 126.23 64.83 125.77 68.46 133.69C69.61 136.19 70.71 138.14 70.91 138.01C71.11 137.89 72.47 135.14 73.93 131.9L76.59 126L78.61 126C80.51 126 81.19 126.45 80.22 127.05C79.97 127.21 79.8 130.2 79.8 134.61C79.8 141.13 79.88 141.97 80.53 142.35C81.68 143.02 80.44 143.63 77.91 143.63C74.94 143.63 74.26 143.1 75.72 141.95C76.84 141.08 76.86 140.96 76.86 136.47C76.86 132.96 76.73 131.88 76.31 131.88C76 131.88 74.75 134.1 73.53 136.81C72.3 139.53 70.96 142.11 70.55 142.54C69.66 143.47 69.81 143.7 66.57 136.39C65.47 133.91 64.41 131.88 64.21 131.88C64 131.88 63.84 134.14 63.84 136.9C63.84 141.23 63.94 141.98 64.58 142.35C65.22 142.73 65.23 142.84 64.68 143.21C63.84 143.77 61.02 143.76 60.67 143.19ZM460.74 143.2C460.2 142.83 460.25 142.67 461.06 142.1C461.97 141.46 462 141.21 462 134.61C462 129.05 461.88 127.69 461.37 127.26C460.23 126.32 460.7 126 463.26 126C465.58 126 466.4 126.41 465.36 127.05C465.11 127.21 464.94 130.2 464.94 134.61C464.94 141.13 465.02 141.97 465.67 142.35C466.32 142.73 466.33 142.84 465.78 143.21C464.96 143.76 461.55 143.75 460.74 143.2ZM468.94 143.24C468.8 143.01 469.07 142.45 469.54 141.98C470.33 141.19 470.4 140.6 470.4 134.69C470.4 129.69 470.26 128.08 469.78 127.45C469.44 127 469.16 126.49 469.15 126.31C469.15 126.14 470.4 126 471.94 126C474.62 126 474.7 126.03 474.04 126.77C473.44 127.42 473.34 128.63 473.34 134.79C473.34 141.71 473.38 142.05 474.19 142.26C474.86 142.44 474.93 142.61 474.56 143.06C474 143.73 469.34 143.88 468.94 143.24ZM477.56 143.24C477.06 142.93 477.14 142.71 477.98 142.03C478.97 141.23 479.02 140.97 479.15 135.28C479.26 130.53 479.15 129.1 478.62 128.04C478.26 127.31 477.96 126.55 477.96 126.36C477.96 126.16 479.09 126 480.48 126C483.04 126 483.51 126.32 482.37 127.26C481.86 127.69 481.74 129.06 481.74 134.64C481.74 141.27 481.77 141.51 482.69 142.16C483.49 142.72 483.53 142.88 483 143.23C482.2 143.74 478.36 143.75 477.56 143.24ZM486.88 143.36C486.26 143.11 486.18 140.86 486.78 140.49C487.42 140.1 488.77 140.64 489.06 141.41C489.2 141.78 489 142.43 488.62 142.86C487.88 143.67 487.75 143.71 486.88 143.36ZM509.17 142.77C502.79 139.61 502.92 129.6 509.38 126.74C510.95 126.05 511.74 125.95 513.84 126.21C515.24 126.38 517.08 126.5 517.92 126.48C519.42 126.45 519.46 126.49 519.65 128.22C519.77 129.31 519.64 130.21 519.31 130.57C518.86 131.05 518.67 130.94 518.14 129.92C517.3 128.28 515.63 127.46 513.22 127.5C510.37 127.54 509.2 128.46 508.37 131.31C506.63 137.3 509.37 142.3 514.13 141.85C515.2 141.75 516.65 141.27 517.35 140.77C519.11 139.51 519.91 139.62 518.67 140.95C516.18 143.62 512.37 144.35 509.17 142.77ZM522.25 143.19C522.1 142.95 522.28 142.41 522.65 142.01C523.59 140.96 523.62 134.07 522.69 133.71C521.65 133.31 521.97 132.52 523.39 131.98C525.58 131.16 525.84 131.72 525.84 137.19C525.84 141.1 525.96 142.03 526.48 142.23C526.97 142.42 527.01 142.61 526.64 143.06C526.07 143.74 522.66 143.85 522.25 143.19ZM528.97 143.19C528.82 142.95 529 142.41 529.37 142.01C530.31 140.96 530.34 134.07 529.41 133.71C528.32 133.29 528.72 132.49 530.32 131.91C531.65 131.43 531.93 131.44 532.33 131.99C532.73 132.54 532.91 132.55 533.6 132.05C534.69 131.25 535.65 131.31 536.49 132.23C537.14 132.95 537.14 133.05 536.39 133.72C535.84 134.23 535.26 134.36 534.45 134.15C532.86 133.75 532.57 134.41 532.57 138.47C532.56 141.31 532.69 141.99 533.29 142.35C533.94 142.73 533.95 142.84 533.4 143.21C532.56 143.77 529.32 143.76 528.97 143.19ZM540 142.74C537.56 140.92 536.7 136.68 538.24 134.07C539.85 131.35 543.82 130.65 546.09 132.68C547.45 133.89 547.45 133.91 546.66 134.79C545.67 135.88 545.18 135.75 544.31 134.16C543.38 132.48 541.68 132.29 540.72 133.75C539.72 135.28 540.08 138.69 541.39 140.08C542.64 141.41 543.67 141.39 545.46 140.03C546.25 139.43 547.02 139.06 547.16 139.2C547.61 139.65 546.18 141.68 544.72 142.69C543.03 143.86 541.53 143.88 540 142.74ZM551.02 142.57C550.13 141.62 550 141.02 549.85 137.33C549.74 134.46 549.5 133.01 549.1 132.68C548.06 131.81 548.49 131.41 550.3 131.54L552.09 131.67L552.3 136.2C552.46 139.6 552.67 140.83 553.14 141.13C553.92 141.62 555.28 141.25 555.98 140.37C556.61 139.56 556.7 132.89 556.08 132.51C555.22 131.98 555.7 131.46 557.05 131.46C559.2 131.46 559.44 132 559.44 136.71C559.44 139.31 559.62 141.14 559.92 141.43C560.27 141.78 560.03 142.12 558.99 142.76C557.68 143.56 557.53 143.57 556.82 142.92C556.1 142.27 555.96 142.27 554.84 142.93C553.18 143.91 552.2 143.82 551.02 142.57ZM562.4 143.24C561.87 142.9 561.88 142.74 562.5 142.06C563.12 141.38 563.22 140.3 563.22 134.62C563.22 128.8 563.13 127.91 562.49 127.41C561.8 126.87 561.81 126.79 562.77 125.98C563.32 125.51 564.18 125.18 564.66 125.25C565.5 125.37 565.53 125.62 565.64 133.68C565.74 140.62 565.86 142.03 566.39 142.24C566.88 142.42 566.91 142.61 566.54 143.06C566 143.71 563.33 143.83 562.4 143.24ZM569.95 142.89C568.85 142 568.62 139.48 569.53 138.37C569.86 137.98 571.17 137.15 572.45 136.54C574.81 135.41 575.45 134.43 574.54 133.33C573.64 132.24 572.46 132.61 571.8 134.19C570.84 136.5 568.77 135.98 569.39 133.58C569.89 131.69 573.79 130.82 576.2 132.07C577.58 132.78 577.92 134 577.92 138.19C577.92 140.44 578.06 141.09 578.61 141.3C579.22 141.53 579.19 141.69 578.33 142.6C577.17 143.83 576.78 143.88 575.72 142.92C574.96 142.23 574.85 142.23 573.65 142.92C572.05 143.84 571.11 143.83 569.95 142.89ZM580.21 143.19C580.06 142.95 580.24 142.41 580.61 142.01C581.54 140.97 581.57 134.33 580.65 133.56C579.75 132.81 579.86 132.55 581.31 132C582.63 131.5 583.8 131.67 583.8 132.35C583.8 132.57 584.27 132.43 584.85 132.05C586.72 130.83 589.28 132.23 588 133.77C587.63 134.21 587.03 134.32 585.91 134.14C584.52 133.92 584.31 134 584.08 134.88C583.53 136.9 583.77 141.24 584.47 142.01C585.47 143.11 584.84 143.64 582.54 143.64C581.41 143.64 580.37 143.44 580.21 143.19ZM596 143.24C595.47 142.9 595.48 142.74 596.1 142.06C597.08 140.98 597.15 134.35 596.19 133.56C595.84 133.27 595.56 132.9 595.56 132.74C595.56 132.34 598.55 131.44 598.99 131.71C599.18 131.83 599.34 134.08 599.34 136.7C599.34 140.29 599.49 141.63 599.94 142.08C600.39 142.53 600.43 142.81 600.07 143.16C599.5 143.73 596.86 143.78 596 143.24ZM602.84 142.98C602.7 142.62 602.8 142.11 603.06 141.85C603.82 141.1 603.69 134.21 602.91 133.56C602.56 133.27 602.28 132.88 602.28 132.69C602.28 132.12 605.29 131.72 606.05 132.19C606.54 132.5 607.03 132.46 607.76 132.06C609.28 131.22 610.49 131.34 611.79 132.45C612.88 133.39 612.96 133.69 613.12 137.6C613.22 139.88 613.46 141.95 613.66 142.2C614.25 142.93 613.16 143.64 611.46 143.64C609.78 143.64 609.03 143.02 609.79 142.26C610.07 141.98 610.26 140.2 610.26 137.89C610.26 134.13 610.23 133.99 609.25 133.74C608.69 133.6 607.84 133.7 607.36 133.96C606.57 134.38 606.48 134.8 606.48 138.17C606.48 140.33 606.67 142.03 606.92 142.18C607.78 142.71 606.39 143.64 604.74 143.64C603.63 143.64 603.01 143.42 602.84 142.98ZM617.15 142.76C616.5 142.04 616.32 141.08 616.21 137.61C616.1 134.52 615.89 133.15 615.41 132.62C614.82 131.96 614.89 131.76 616.19 130.24C617.82 128.35 618.66 128.09 618.66 129.49C618.66 130.66 619.39 131.46 620.46 131.46C621.47 131.46 621.17 132.46 620.1 132.66C618.89 132.89 618.67 133.49 618.67 136.58C618.66 140.16 619.15 141.55 620.32 141.25C621.46 140.95 621.41 141.6 620.21 142.73C618.99 143.87 618.17 143.88 617.15 142.76ZM625.19 142.82C621.65 140.48 621.56 134.43 625.04 132.31C627.54 130.79 630.87 131.47 632.1 133.76C633.13 135.7 632.33 136.27 628.38 136.41C624.54 136.55 624.28 136.84 625.79 139.32C626.68 140.79 628.45 141.5 629.54 140.83C629.91 140.6 630.63 140.15 631.14 139.84C632.48 139 632.75 139.61 631.69 141.1C629.93 143.58 627.37 144.25 625.19 142.82ZM657.99 142.84C654.17 140.33 654.23 134.11 658.1 132.11C660.66 130.79 664.36 131.85 665.8 134.32C668.69 139.26 662.61 145.89 657.99 142.84ZM668.83 143.19C668.68 142.95 668.86 142.41 669.23 142.01C670.2 140.94 670.23 127.9 669.27 127.53C668.24 127.13 668.55 126.14 669.89 125.58C672.37 124.56 672.42 124.72 672.42 133.77C672.42 140.75 672.52 142.02 673.06 142.23C673.55 142.42 673.59 142.61 673.22 143.06C672.65 143.74 669.24 143.85 668.83 143.19ZM676.2 142.8C675.12 141.72 675.06 139 676.1 138.07C676.5 137.7 677.73 137.01 678.83 136.54C679.94 136.07 680.96 135.37 681.11 134.98C681.46 134.05 680.73 132.96 679.64 132.8C678.97 132.7 678.6 133.02 678.13 134.16C677.15 136.5 675.32 135.88 675.93 133.42C676.61 130.71 683.18 130.9 683.91 133.65C684.05 134.18 684.17 136.05 684.17 137.82C684.18 140.41 684.31 141.08 684.87 141.3C685.48 141.53 685.45 141.69 684.59 142.6C683.43 143.83 683.04 143.88 681.98 142.92C681.22 142.23 681.11 142.23 679.91 142.92C678.26 143.86 677.23 143.83 676.2 142.8ZM688.97 143.32C687.93 142.63 687.54 140.98 687.54 137.3C687.54 134.3 687.38 133.24 686.86 132.66C686.22 131.95 686.26 131.8 687.57 130.32C689.1 128.57 690.27 128.25 690.27 129.57C690.27 130.78 690.82 131.46 691.82 131.46C692.54 131.46 692.6 131.56 692.16 132.09C691.87 132.44 691.37 132.72 691.04 132.72C690.56 132.72 690.47 133.54 690.57 137.03C690.67 140.78 690.78 141.32 691.39 141.21C692.6 141.02 692.64 141.85 691.48 142.77C690.3 143.69 689.72 143.82 688.97 143.32ZM694.4 142.98C694.26 142.62 694.36 142.11 694.62 141.85C695.38 141.1 695.25 134.21 694.47 133.56C694.12 133.27 693.84 132.91 693.84 132.75C693.84 132.31 696.73 131.38 697.2 131.67C697.44 131.82 697.62 133.95 697.62 136.68C697.62 140.41 697.76 141.55 698.26 141.96C699.24 142.78 698.23 143.64 696.3 143.64C695.19 143.64 694.57 143.42 694.4 142.98ZM703.63 142.82C701.86 141.74 700.98 139.95 700.99 137.47C700.99 134.96 701.64 133.65 703.46 132.42C707.28 129.84 712.65 133.1 712.18 137.7C711.97 139.79 710.98 141.33 708.96 142.69C707.26 143.86 705.4 143.9 703.63 142.82ZM713.72 142.98C713.58 142.62 713.68 142.11 713.94 141.85C714.6 141.19 714.56 134.62 713.89 133.54C713.46 132.84 713.48 132.62 714 132.29C714.83 131.77 716.82 131.77 717.15 132.3C717.31 132.56 717.86 132.48 718.62 132.09C720.39 131.17 721.7 131.31 722.85 132.54C723.76 133.51 723.89 134.08 724.02 137.69C724.1 139.92 724.35 141.98 724.58 142.26C725.28 143.12 724.53 143.64 722.61 143.64C720.51 143.64 719.92 143.08 720.89 142.01C721.66 141.15 721.83 136.42 721.15 134.64C720.71 133.48 719.59 133.24 718.17 133.99C717.46 134.37 717.36 134.9 717.36 138.17C717.36 140.33 717.55 142.03 717.8 142.18C718.66 142.71 717.27 143.64 715.62 143.64C714.51 143.64 713.89 143.42 713.72 142.98ZM740.11 142.67C739.1 141.59 738.91 139.55 739.73 138.51C740.32 137.74 743.33 136.08 744.11 136.08C744.56 136.08 745.5 134.84 745.5 134.25C745.5 134.13 745.2 133.74 744.84 133.38C743.79 132.33 742.77 132.59 742.11 134.09C741.34 135.85 739.89 135.98 739.7 134.31C739.5 132.59 741.65 131.35 744.42 131.59C747.45 131.85 748.02 132.74 748.02 137.15C748.02 140.18 748.13 140.73 748.86 141.24C749.66 141.8 749.66 141.86 748.97 142.46C747.62 143.62 747.19 143.69 745.97 142.97C744.85 142.31 744.69 142.31 743.78 142.95C742.41 143.91 741.19 143.81 740.11 142.67ZM750.69 143C750.56 142.66 750.68 142.08 750.97 141.74C751.59 140.99 751.56 134.42 750.94 133.79C750.15 133 750.57 132.33 752.01 132.06C752.93 131.89 753.72 131.97 754.1 132.29C754.58 132.69 754.91 132.65 755.66 132.13C756.78 131.34 758.46 131.28 759.4 132C760.66 132.97 761.04 134.36 761.04 138.07C761.04 140.24 761.23 141.99 761.51 142.26C762.31 143.06 761.49 143.64 759.57 143.64C757.47 143.64 756.88 143.08 757.85 142.01C758.63 141.14 758.8 135.71 758.09 134.37C757.61 133.48 756.39 133.32 755.13 133.99C754.42 134.37 754.32 134.9 754.32 138.11C754.32 140.48 754.51 141.98 754.84 142.31C755.26 142.73 755.24 142.92 754.74 143.23C753.71 143.88 750.97 143.72 750.69 143ZM765.42 142.77C764.79 142.07 764.61 141.06 764.48 137.63C764.39 135.27 764.15 133.17 763.94 132.95C763.22 132.19 763.56 131.2 765.03 129.78C766.59 128.27 767.16 128.37 767.41 130.2C767.51 130.92 767.85 131.29 768.52 131.39C769.71 131.56 769.51 132.46 768.24 132.65C767.34 132.78 767.32 132.93 767.43 137.06C767.53 140.5 767.67 141.34 768.18 141.37C769.52 141.46 769.56 141.57 768.6 142.59C767.4 143.87 766.46 143.92 765.42 142.77ZM771.33 143.22C771.19 142.99 771.37 142.38 771.73 141.87C772.63 140.58 772.64 134.72 771.75 133.83C770.83 132.91 770.97 132.54 772.45 131.98C774.63 131.16 774.9 131.73 774.9 137.1C774.9 139.98 775.08 141.97 775.37 142.26C775.62 142.52 775.71 142.93 775.55 143.18C775.2 143.76 771.68 143.79 771.33 143.22ZM780.44 142.79C779.68 142.32 778.78 141.29 778.44 140.49C777.7 138.72 777.67 135.81 778.38 134.41C779.15 132.88 781.5 131.46 783.26 131.46C786.28 131.46 788.75 134.12 786.74 135.2C785.85 135.67 785.43 135.43 784.44 133.88C783.56 132.49 782.36 132.4 781.15 133.61C780.41 134.35 780.29 134.86 780.45 136.76C780.76 140.52 783.03 142.13 785.4 140.28C786.5 139.42 787.5 139.19 787.5 139.8C787.5 140.49 785.75 142.4 784.54 143.02C782.94 143.85 782.1 143.8 780.44 142.79ZM789.79 143.19C789.64 142.95 789.82 142.41 790.19 142.01C790.74 141.39 790.86 140.12 790.86 134.62C790.86 128.8 790.77 127.91 790.12 127.41C789.44 126.87 789.45 126.79 790.41 125.98C790.96 125.51 791.82 125.18 792.3 125.25C793.14 125.37 793.18 125.66 793.38 133.74C793.54 140.05 793.72 142.15 794.13 142.28C794.55 142.42 794.56 142.6 794.19 143.05C793.61 143.74 790.2 143.85 789.79 143.19ZM798.97 142.82C797.16 141.71 796.32 139.94 796.32 137.21C796.32 135.54 796.55 134.64 797.2 133.82C799.82 130.48 804.57 130.82 806.82 134.5C808.49 137.24 807.48 140.57 804.33 142.69C802.6 143.86 800.74 143.9 798.97 142.82ZM810.97 142.01C809.43 140.47 809.34 140.24 809.34 137.79C809.34 134.54 810.08 133.08 812.24 132.11C814.45 131.11 816.76 131.45 818.08 132.96C818.99 134.02 819 134.12 818.33 134.87C817.33 135.97 817 135.87 816 134.19C814.03 130.84 810.76 133.79 811.89 137.89C812.35 139.57 813.73 141.12 814.75 141.12C815.1 141.12 816.11 140.62 816.99 140.01C817.87 139.4 818.7 139 818.83 139.13C819.3 139.6 817.72 141.9 816.34 142.76C814.19 144.09 812.86 143.9 810.97 142.01ZM820.7 143.24C820.17 142.9 820.18 142.74 820.8 142.06C821.42 141.38 821.52 140.29 821.52 134.5C821.52 130.44 821.35 127.63 821.1 127.47C819.74 126.63 821.96 124.84 823.68 125.39C824.38 125.61 824.46 126.13 824.46 130.73L824.46 135.82L825.93 134.4C826.74 133.62 827.4 132.63 827.4 132.22C827.4 131.53 827.86 131.46 832.24 131.46C837.04 131.46 837.07 131.47 836.86 132.41C836.61 133.45 838.44 138.84 839.01 138.76C839.2 138.73 839.8 137.82 840.34 136.74L841.32 134.78L840.45 133.31C839.97 132.5 839.58 131.75 839.58 131.65C839.58 131.54 840.62 131.46 841.89 131.46C844.07 131.46 844.18 131.51 843.7 132.27C843.29 132.92 843.39 133.54 844.23 135.67C844.79 137.1 845.41 138.29 845.6 138.33C846.19 138.43 848.03 133.43 847.78 132.41C847.57 131.56 847.7 131.46 849.06 131.46C849.89 131.46 850.5 131.6 850.41 131.78C849.08 134.42 847.56 137.96 847.56 138.4C847.56 138.72 847.39 139.08 847.17 139.21C846.96 139.34 846.66 139.99 846.52 140.66C846.37 141.33 845.89 142.2 845.44 142.61C844.57 143.4 844.66 143.54 842.51 138.28C841.9 136.82 841.44 137.14 840.41 139.75C839.31 142.55 838.51 143.58 837.93 142.99C837.71 142.77 836.83 140.79 835.99 138.6C833.73 132.74 833.46 132.3 832.07 132.3C830.92 132.3 828.2 133.96 827.04 135.38C826.54 135.97 826.57 136.24 827.21 137.23C828.7 139.53 830.85 141.93 831.66 142.19C832.33 142.4 832.39 142.57 831.97 143.07C831.63 143.48 830.85 143.64 829.56 143.56C827.92 143.45 827.63 143.28 827.37 142.33C827.04 141.09 825.33 138.6 824.8 138.6C824.3 138.6 824.39 141.87 824.9 142.18C825.2 142.37 825.19 142.64 824.85 143.05C824.3 143.71 821.64 143.83 820.7 143.24ZM852.4 143.23C852.26 143.01 852.46 142.35 852.84 141.77C853.82 140.27 853.56 134.11 852.49 133.51C851.38 132.89 851.6 132.49 853.33 131.95C855.64 131.24 855.96 131.9 855.96 137.34C855.96 140.32 856.13 141.96 856.48 142.31C856.9 142.73 856.88 142.92 856.38 143.23C855.55 143.75 852.72 143.75 852.4 143.23ZM859.6 143.36C859.25 143.01 859.23 139.86 859.57 139.86C859.71 139.86 860.35 140.43 861 141.12C862.36 142.58 863.5 142.72 864.55 141.57C865.47 140.54 865.22 140.15 862.76 138.74C859.75 137.03 859.32 136.54 859.33 134.86C859.34 132.17 860.77 131.23 864.2 131.66C866.34 131.93 866.46 132 866.46 133.15C866.46 134.79 865.92 134.99 864.77 133.76C864.17 133.12 863.33 132.72 862.58 132.72C861.5 132.72 861.38 132.85 861.5 133.88C861.6 134.76 862.09 135.28 863.59 136.08C866.32 137.56 867.3 138.55 867.3 139.84C867.3 142.05 865.09 143.64 862.03 143.64C860.85 143.64 859.75 143.51 859.6 143.36ZM871.46 142.68C870.68 142.16 869.81 141.26 869.52 140.69C868.8 139.26 868.85 135.46 869.6 133.99C870.85 131.59 874.36 130.77 876.87 132.3C878.62 133.37 879.2 134.76 878.32 135.76C877.81 136.34 877 136.5 874.58 136.5L871.5 136.5L871.5 137.72C871.5 138.57 871.89 139.28 872.79 140.03C874.26 141.27 875.18 141.39 876.35 140.5C877.26 139.82 878.64 139.65 878.64 140.23C878.64 140.44 877.88 141.29 876.96 142.12C874.97 143.92 873.52 144.07 871.46 142.68ZM90.33 141.3C91.3 140.26 91.35 139.96 91.35 134.68C91.35 129.98 91.23 128.98 90.57 127.99C89.46 126.37 88 126.46 87.08 128.2C86.04 130.19 86.03 139.07 87.07 141.01C87.95 142.66 88.96 142.75 90.33 141.3ZM648.92 141.95C649.97 141.39 651 139.38 651 137.89C651 137.24 650.62 136.1 650.16 135.34C649.48 134.23 649.07 133.98 647.87 133.98C646.86 133.98 646.28 134.23 645.97 134.79C645.33 136 645.45 139.73 646.18 141.14C646.86 142.45 647.59 142.66 648.92 141.95ZM662.21 141.75C663.6 140.78 664.16 138.6 663.59 136.42C662.73 133.19 660.64 131.85 658.91 133.42C657.36 134.81 658.2 140.8 660.1 141.9C661.11 142.49 661.16 142.49 662.21 141.75ZM708.35 141.27C710.19 139.29 709.51 134.33 707.24 133.12C705.35 132.11 703.5 133.71 703.5 136.37C703.5 138.27 704.46 140.73 705.52 141.57C706.86 142.62 707.12 142.6 708.35 141.27ZM803.69 141.27C804.46 140.44 804.72 139.69 804.72 138.32C804.72 134.75 802.93 132.34 800.71 132.9C798.36 133.49 798.4 139.33 800.76 141.44C802.12 142.64 802.44 142.62 803.69 141.27ZM574.3 141C575.35 140.23 575.44 137.63 574.43 137.43C573.15 137.16 571.62 138.48 571.62 139.83C571.62 141.47 572.9 142.02 574.3 141ZM680.56 141C681.61 140.23 681.7 137.63 680.69 137.43C679.56 137.19 677.88 138.48 677.88 139.58C677.88 141.32 679.18 142.01 680.56 141ZM744.57 140.89C745.68 140.11 745.86 137.87 744.84 137.48C743.07 136.8 740.96 139.48 742.14 140.92C742.8 141.71 743.4 141.7 744.57 140.89ZM629.07 134.37C629.14 133.99 628.72 133.49 628.07 133.2C627.16 132.78 626.78 132.81 625.96 133.35C625.41 133.7 624.96 134.29 624.96 134.64C624.96 135.57 628.89 135.31 629.07 134.37ZM875.59 134.53C875.68 134.26 875.29 133.73 874.73 133.36C873.89 132.81 873.51 132.78 872.6 133.19C871.98 133.48 871.5 134.04 871.5 134.49C871.5 135.18 871.77 135.27 873.46 135.16C874.54 135.09 875.5 134.81 875.59 134.53ZM30.83 134C32.52 133.35 33.6 132.01 33.6 130.55C33.6 128.6 32.56 127.68 30.38 127.68L28.56 127.68L28.56 130.76C28.56 134.57 28.72 134.8 30.83 134ZM523.6 127.4C523.45 127.25 523.32 126.68 523.32 126.14C523.32 125.37 523.55 125.16 524.38 125.16C524.97 125.16 525.56 125.45 525.69 125.8C526.13 126.93 524.43 128.23 523.6 127.4ZM596.97 127.05C596.61 126.1 597.11 125.16 597.98 125.16C599.17 125.16 599.8 125.99 599.31 126.9C598.81 127.84 597.31 127.93 596.97 127.05ZM695.25 127.05C694.89 126.1 695.39 125.16 696.26 125.16C697.45 125.16 698.08 125.99 697.59 126.9C697.09 127.84 695.59 127.93 695.25 127.05ZM772.24 127.07C771.65 125.54 773 124.63 774.48 125.57C774.97 125.88 775 126.15 774.65 126.72C774.05 127.69 772.56 127.91 772.24 127.07ZM853.23 126.84C852.9 125.78 853.27 125.16 854.25 125.16C855.43 125.16 856.19 126.27 855.54 127.05C854.8 127.94 853.54 127.83 853.23 126.84ZM445.1 102.8L445.21 86.52L228.48 86.52L11.76 86.52L11.76 102.9L11.76 119.28L228.38 119.18L444.99 119.07L445.1 102.8ZM907.82 118.88C907.99 118.59 908.15 97.03 908.05 87.05C908.04 86.63 861.73 86.52 677.88 86.52L447.72 86.52L447.72 102.9L447.72 119.28L677.65 119.28C821.39 119.28 907.66 119.13 907.82 118.88ZM522.91 113.92C522.92 113.75 523.2 113.24 523.54 112.79C524.45 111.59 524.44 99.46 523.53 98.7C522.57 97.9 522.76 97.55 524.44 97C525.74 96.57 526.05 96.59 526.45 97.13C526.85 97.68 527.03 97.69 527.72 97.19C528.79 96.4 531.31 96.44 532.47 97.26C536.97 100.41 534.11 108.63 528.59 108.43L526.68 108.35L526.68 110.41C526.68 111.71 526.91 112.65 527.31 112.98C527.65 113.26 527.83 113.66 527.7 113.87C527.42 114.32 522.89 114.37 522.91 113.92ZM36.39 112.55C34.49 111.83 29.51 108.77 26.72 106.61C24.73 105.08 23.81 102.44 24.03 98.93C24.25 95.51 24.96 94.14 27.45 92.34C28.89 91.3 29.48 91.14 32 91.14C35.37 91.14 36.63 91.68 38.73 94C41.18 96.72 41.58 100.51 39.78 103.99C39.07 105.35 36.39 107.94 35.69 107.94C35.46 107.94 35.28 108.31 35.28 108.75C35.28 109.59 38.53 112.56 39.44 112.56C39.72 112.56 39.83 112.75 39.69 112.98C39.35 113.54 38.82 113.47 36.39 112.55ZM674.94 111.9C674.94 111.77 675.42 111.04 676 110.27L677.07 108.87L675.77 108.42C674.67 108.04 674.48 107.78 674.6 106.8C674.76 105.37 676.29 104.99 677.49 106.08C678.76 107.22 678.54 109.31 677.01 110.85C675.82 112.04 674.94 112.49 674.94 111.9ZM94.19 108.79C93.56 108.52 93.24 108.03 93.24 107.32C93.24 106.11 93.63 106.04 95.92 106.84C96.82 107.15 97.9 107.32 98.31 107.21C100.7 106.59 101.35 103.06 99.39 101.38C98.75 100.83 97.87 100.38 97.42 100.38C96.88 100.38 96.6 100.09 96.6 99.54C96.6 99.08 96.76 98.7 96.96 98.7C97.16 98.7 97.82 98.24 98.43 97.67C101.34 94.97 98.05 91.3 94.7 93.5C93.74 94.13 93.66 94.12 93.66 93.48C93.66 92.53 95.45 90.81 96.79 90.48C98.44 90.06 100.85 91.15 101.77 92.73L102.56 94.08L101.43 96.01L100.3 97.94L101.38 99.07C103.2 100.96 103.52 102.53 102.55 104.73C101.18 107.82 96.86 109.91 94.19 108.79ZM67.8 108.21C65.24 107.37 63.54 105.92 62.37 103.58C61.17 101.17 61.06 99.54 61.94 97.05C62.84 94.49 64.1 92.92 66.04 91.93C67.5 91.18 68.24 91.09 71.15 91.29C76.88 91.69 76.61 91.59 77.04 93.35C77.65 95.84 76.88 96.1 74.88 94.1C73.33 92.55 72.99 92.4 70.99 92.4C68.6 92.4 66.69 93.27 65.99 94.68C64.09 98.49 64.62 103 67.27 105.52C68.7 106.9 69.17 107.1 70.93 107.1C73.63 107.1 74.34 106.3 74.34 103.23C74.34 101.67 74.13 100.73 73.71 100.38C72.57 99.43 73.05 99.12 75.64 99.12C77.94 99.12 78.17 99.2 77.88 99.85C77.69 100.26 77.44 102.01 77.31 103.74C77.07 106.88 77.06 106.89 75.51 107.65C73.45 108.66 69.94 108.91 67.8 108.21ZM82.82 107.53C79.34 104.06 79.34 94.7 82.81 91.78C83.5 91.19 84.54 90.6 85.13 90.45C86.83 90.03 89.07 91.57 90.41 94.1C92.74 98.51 91.53 105.85 88.12 107.93C86.09 109.17 84.32 109.03 82.82 107.53ZM461.06 108.49C460.1 108.24 460.13 107.83 461.16 106.89C461.93 106.19 462 105.6 462 99.61C462 94.23 461.88 92.97 461.33 92.35C460.37 91.29 460.94 90.72 462.97 90.73C465.16 90.73 466.22 91.29 465.46 92.05C465.09 92.42 464.94 94.56 464.94 99.6C464.94 106.34 464.98 106.66 465.85 107.27L466.76 107.91L465.61 108.34C464.46 108.78 462.42 108.85 461.06 108.49ZM469.45 108.51C468.5 108.23 468.53 107.82 469.56 106.89C470.33 106.19 470.4 105.6 470.4 99.61C470.4 94.23 470.28 92.97 469.73 92.35C468.77 91.29 469.34 90.72 471.37 90.73C473.52 90.73 474.28 91.14 473.74 91.99C473.53 92.33 473.35 95.86 473.35 99.83C473.34 106.79 473.37 107.05 474.22 107.32C474.76 107.5 474.95 107.75 474.72 107.99C474.26 108.45 470.51 108.82 469.45 108.51ZM513.24 108.36C512.66 108.18 511.58 108 510.82 107.98L509.46 107.94L509.46 105.63C509.46 104.36 509.58 103.32 509.72 103.32C509.87 103.32 510.78 104.17 511.75 105.21C513.19 106.76 513.78 107.1 514.98 107.1C517.58 107.1 519.26 104.29 517.54 102.81C517.14 102.46 515.44 101.39 513.77 100.42C510.53 98.55 509.46 97.18 509.46 94.91C509.46 94 509.86 93.2 510.75 92.31L512.04 91.02L515.78 91.26C517.84 91.4 519.72 91.62 519.96 91.77C520.54 92.13 520.49 95.22 519.9 95.59C519.63 95.76 519.17 95.53 518.87 95.09C517.8 93.53 516.87 92.83 515.52 92.58C513.6 92.22 512.45 92.69 512.13 93.97C511.9 94.87 512.12 95.29 513.33 96.36C514.14 97.07 515.98 98.31 517.42 99.11C521.32 101.28 522.23 103.74 520.08 106.28C518.27 108.44 515.82 109.19 513.24 108.36ZM537.07 108.49C536.17 108.25 536.12 107.38 536.97 106.68C537.44 106.29 537.6 105.26 537.6 102.69C537.6 100.12 537.44 99.09 536.97 98.7C536.06 97.94 536.18 97.61 537.59 97.02C539.9 96.07 540.12 96.48 540.12 101.7C540.12 105.46 540.26 106.56 540.81 107.16C541.45 107.87 541.42 107.95 540.36 108.35C539.2 108.79 538.36 108.83 537.07 108.49ZM543.79 108.49C542.89 108.25 542.86 107.79 543.69 107.1C544.65 106.31 544.58 99.68 543.6 98.6C542.98 97.92 542.97 97.75 543.5 97.41C544.77 96.59 546.12 96.46 546.61 97.13C547.02 97.69 547.22 97.7 548.12 97.2C549.73 96.31 551.61 96.46 552.65 97.57C553.45 98.43 553.56 99.02 553.56 102.47C553.56 105.52 553.71 106.57 554.25 107.16C554.89 107.87 554.86 107.95 553.77 108.36C552.59 108.81 549.78 108.52 549.78 107.94C549.78 107.77 550.06 107.39 550.41 107.1C550.87 106.72 551.04 105.7 551.04 103.3C551.04 99.33 550.83 98.7 549.5 98.7C547.2 98.7 546.84 99.28 546.84 102.99C546.84 105.56 547.01 106.59 547.53 107.16C548.17 107.87 548.14 107.95 547.08 108.35C545.92 108.79 545.08 108.83 543.79 108.49ZM559.86 108.5C558.09 107.93 557.27 107.22 556.45 105.54C555.42 103.39 555.59 101.06 556.95 98.87C557.93 97.28 558.54 96.97 561.33 96.64C563.41 96.39 563.43 96.38 563.56 94.77C563.65 93.67 563.46 92.9 562.95 92.33C562.12 91.42 562.47 90.97 564.37 90.46C566.52 89.89 566.58 90.1 566.58 98.44C566.58 104.25 566.71 106.24 567.11 106.4C568.21 106.85 565.61 108.31 563.85 108.23C562.93 108.19 561.79 108.28 561.33 108.43C560.87 108.58 560.21 108.61 559.86 108.5ZM570.25 108.49C569.46 108.28 569.26 107.31 569.94 106.89C570.58 106.49 570.49 93.44 569.83 92.37C569.39 91.63 569.43 91.42 570.15 90.89C570.61 90.54 571.46 90.32 572.04 90.39L573.09 90.51L573.2 98.67C573.27 103.54 573.5 107.04 573.76 107.35C574.56 108.32 572.35 109.04 570.25 108.49ZM580.44 108.5C577.59 107.6 576.24 105.68 576.24 102.51C576.24 101.32 576.53 99.78 576.88 99.11C578.54 95.89 584.21 95.75 585.89 98.89C586.78 100.56 585.88 101.16 582 101.49C578.99 101.74 578.76 101.83 578.76 102.72C578.76 103.8 581.01 106.26 582 106.26C582.36 106.26 583.29 105.87 584.07 105.39C586.29 104.01 586.69 104.64 584.83 106.56C583.21 108.24 581.72 108.89 580.44 108.5ZM594.62 108.49C593.71 108.25 593.66 107.38 594.51 106.68C595.43 105.92 595.4 99.86 594.47 98.93C594.1 98.56 593.9 98 594.02 97.68C594.3 96.94 596.77 96.38 597.32 96.93C597.59 97.2 598.13 97.19 598.89 96.9C600.91 96.14 602.69 97.63 601.36 98.96C600.84 99.48 600.54 99.49 599.59 99.06C597.98 98.33 597.67 98.99 597.67 103.27C597.66 106.15 597.8 106.9 598.39 107.34C599.07 107.83 599.03 107.91 597.95 108.33C596.74 108.79 595.91 108.83 594.62 108.49ZM605.65 108.02C604.04 107.14 602.27 104.26 602.29 102.52C602.31 100.63 603.79 97.97 605.26 97.21C607.5 96.05 610.41 96.56 612.3 98.44C613.68 99.83 613.83 100.19 613.81 102.2C613.77 106.83 609.31 110.01 605.65 108.02ZM624.13 108.24C622.79 107.57 622.15 105.8 622.67 104.27C622.95 103.45 623.8 102.74 625.55 101.84C628.44 100.36 629.16 99.5 628.35 98.53C627.47 97.47 625.86 97.68 625.56 98.89C625.18 100.39 624.28 101.04 623.49 100.38C622.59 99.63 622.71 98.81 623.89 97.63C624.68 96.84 625.37 96.6 626.81 96.6C630.72 96.6 631.68 97.9 631.68 103.17C631.68 105.71 631.8 106.26 632.35 106.26C633.29 106.26 632.86 107.2 631.57 107.92C630.65 108.44 630.33 108.45 629.43 107.97C628.52 107.48 628.16 107.5 626.91 108.09C625.19 108.91 625.42 108.9 624.13 108.24ZM642.07 108.49C641.17 108.25 641.12 107.38 641.97 106.68C642.44 106.29 642.6 105.26 642.6 102.69C642.6 100.12 642.44 99.09 641.97 98.7C641.06 97.94 641.18 97.61 642.59 97.02C644.9 96.07 645.12 96.48 645.12 101.7C645.12 105.46 645.26 106.56 645.81 107.16C646.45 107.87 646.42 107.95 645.36 108.35C644.2 108.79 643.36 108.83 642.07 108.49ZM651.51 108.08C647.43 106.07 646.93 99.77 650.66 97.43C652.71 96.14 656.03 96.45 657.74 98.09C660.89 101.11 659.73 106.46 655.55 108.13C653.54 108.93 653.23 108.93 651.51 108.08ZM661.39 108.49C660.5 108.26 660.43 107.28 661.29 106.95C661.78 106.76 661.92 105.9 661.92 102.96C661.92 100.15 661.76 99.09 661.29 98.7C660.33 97.9 660.52 97.55 662.2 97C663.54 96.55 663.81 96.58 664.27 97.22C664.76 97.89 664.88 97.89 665.77 97.27C667.23 96.25 669.16 96.42 670.35 97.68C671.26 98.65 671.39 99.22 671.52 102.83C671.6 105.06 671.85 107.12 672.09 107.41C672.67 108.12 670.56 108.9 668.99 108.55C667.82 108.3 667.4 107.4 668.22 106.89C668.67 106.61 668.81 100.46 668.39 99.36C668.09 98.61 666.46 98.49 665.25 99.13C664.55 99.51 664.44 100.04 664.44 102.99C664.44 105.56 664.61 106.59 665.13 107.16C665.77 107.87 665.74 107.95 664.68 108.35C663.52 108.79 662.68 108.83 661.39 108.49ZM690.25 108.3C688.47 107.83 687.27 106.41 686.64 104.05C685.6 100.15 688.05 96.6 691.78 96.6C694.65 96.6 697.03 98.43 695.91 99.78C695.12 100.74 693.93 100.48 693.33 99.22C692.68 97.85 690.92 97.48 689.9 98.5C688.88 99.52 688.98 103.32 690.07 104.71C691.37 106.36 692.4 106.5 694.04 105.24C696.55 103.33 697.18 104.03 695.09 106.42C693.57 108.15 691.99 108.77 690.25 108.3ZM699.19 108.49C698.4 108.28 698.2 107.31 698.88 106.89C699.52 106.49 699.43 93.44 698.77 92.37C698.33 91.63 698.37 91.42 699.09 90.89C699.55 90.54 700.4 90.32 700.98 90.39L702.03 90.51L702.14 98.7C702.23 105.71 702.35 106.96 702.94 107.4C703.55 107.86 703.5 107.96 702.48 108.35C701.32 108.79 700.48 108.83 699.19 108.49ZM708.55 108.06C705.3 106.39 704.13 102.06 706.14 99.08C707.31 97.34 708.67 96.61 710.77 96.61C716.73 96.58 718.61 103.9 713.58 107.58C711.98 108.75 710.22 108.92 708.55 108.06ZM721.69 108.46C720.24 108.22 718.29 105.94 717.98 104.11C717.25 99.8 719.11 97.01 722.92 96.7C724.74 96.55 725.34 96.68 726.31 97.45C727.73 98.57 727.72 100.1 726.28 100.3C725.59 100.4 725.14 100.09 724.6 99.15C723.79 97.73 722.06 97.39 721.15 98.47C720.27 99.54 720.14 102.23 720.9 103.83C721.9 105.93 723.18 106.53 724.86 105.66C725.59 105.28 726.18 104.79 726.18 104.57C726.18 104.34 726.46 104.16 726.81 104.16C727.79 104.16 727.56 105.28 726.28 106.68C725.08 108.01 723.27 108.71 721.69 108.46ZM729.86 108.49C728.96 108.26 728.89 107.28 729.75 106.95C730.27 106.75 730.38 105.55 730.38 99.78C730.38 93.78 730.29 92.81 729.69 92.47C728.74 91.94 729.24 90.81 730.57 90.48C732.75 89.93 732.9 90.27 732.9 95.76L732.9 100.84L734.38 99.66C735.2 99.02 735.97 98.08 736.1 97.59C736.37 96.51 737.47 96.33 742.39 96.52C745.69 96.66 745.79 96.69 745.61 97.63C745.4 98.71 747.08 103.74 747.65 103.74C748.08 103.74 749.7 100.65 749.7 99.82C749.7 99.5 749.32 98.75 748.86 98.17C748.4 97.58 748.02 96.99 748.02 96.85C748.02 96.71 749.16 96.6 750.54 96.6C752.96 96.6 753.05 96.63 752.54 97.44C752.11 98.14 752.16 98.69 752.88 100.7C753.36 102.02 753.99 103.11 754.29 103.11C755.09 103.11 756.84 98.18 756.35 97.3C756.01 96.7 756.19 96.6 757.69 96.6L759.42 96.6L758.55 97.82C758.07 98.49 757.68 99.19 757.68 99.38C757.68 99.89 754.65 107.23 754.18 107.85C753.59 108.63 753.05 107.95 751.99 105.1C751.49 103.78 750.84 102.69 750.54 102.69C750.24 102.69 749.41 103.91 748.69 105.4C747.98 106.89 747.2 108.16 746.96 108.23C746.73 108.31 745.99 106.9 745.32 105.11C743.37 99.88 742.16 97.5 741.3 97.23C739.92 96.79 735.42 99.74 735.42 101.08C735.42 101.92 739.02 106.55 740.14 107.15C741 107.62 741.01 107.65 740.25 108.21C738.89 109.2 736.26 108.83 736.26 107.65C736.26 106.78 734.06 103.76 733.42 103.75C732.65 103.74 732.77 106.26 733.59 107.16C734.23 107.87 734.2 107.95 733.14 108.35C731.98 108.79 731.14 108.83 729.86 108.49ZM761.36 108.49C760.46 108.26 760.39 107.28 761.25 106.95C761.74 106.76 761.88 105.9 761.88 102.96C761.88 100.15 761.72 99.09 761.25 98.7C760.9 98.41 760.62 98.03 760.62 97.84C760.62 97.36 763.46 96.49 763.97 96.8C764.22 96.96 764.4 99.02 764.4 101.74C764.4 105.46 764.54 106.56 765.09 107.16C765.73 107.87 765.7 107.95 764.64 108.35C763.48 108.79 762.64 108.83 761.36 108.49ZM769.23 108.36C768.12 108.17 767.95 107.95 767.84 106.57C767.69 104.71 768.55 104.42 769.58 106C770.42 107.28 772.15 107.63 773 106.69C774.03 105.55 773.78 105.12 771.23 103.63C768.34 101.94 767.39 100.54 767.99 98.85C768.62 97.05 770.1 96.43 772.92 96.78C775.19 97.06 775.32 97.14 775.32 98.24C775.32 100 774.88 100.1 773.4 98.67C771.98 97.29 770.87 97.18 770.14 98.35C769.55 99.29 770.31 100.17 772.87 101.47C773.98 102.03 775.19 102.96 775.57 103.53C777.4 106.33 773.71 109.14 769.23 108.36ZM781.46 108.31C779.9 107.89 778.7 106.79 777.99 105.12C776.74 102.16 777.85 98.16 780.2 97.18C782.44 96.25 784.72 96.44 786.21 97.69C787.45 98.73 787.94 100.48 787.14 100.97C786.95 101.09 785.25 101.32 783.36 101.48C780.97 101.68 779.94 101.93 779.94 102.31C779.94 103.51 780.95 104.96 782.29 105.68C783.67 106.42 783.72 106.42 784.95 105.51C786.26 104.54 787.5 104.29 787.5 104.99C787.5 105.71 784.68 108.24 783.65 108.44C783.1 108.54 782.12 108.48 781.46 108.31ZM43.42 107.75C42.97 106.59 43.45 105.63 44.48 105.63C45.8 105.63 46.56 106.8 45.81 107.69C45.12 108.53 43.73 108.56 43.42 107.75ZM477.7 107.75C477.25 106.59 477.73 105.63 478.76 105.63C480.08 105.63 480.84 106.8 480.09 107.69C479.4 108.53 478.01 108.56 477.7 107.75ZM617.21 107.43C616.73 106.74 616.56 105.43 616.56 102.44C616.56 99.35 616.41 98.26 615.93 97.86C615.05 97.13 615.11 96.91 616.74 95.13C618.28 93.45 619.62 93.32 619.21 94.89C619.03 95.57 619.27 95.88 620.29 96.31C621.3 96.73 621.48 96.97 621.09 97.36C620.82 97.63 620.37 97.86 620.09 97.86C619.33 97.86 619.22 98.59 619.41 102.58C619.56 105.72 619.69 106.26 620.31 106.26C621.45 106.26 621.67 106.75 620.91 107.59C619.93 108.66 618.02 108.58 617.21 107.43ZM635.47 107.55C635.24 107.1 635.04 104.83 635.04 102.49C635.04 99.11 634.91 98.2 634.41 98.01C633.39 97.62 633.68 96.44 635.16 95C636.88 93.34 637.56 93.3 637.56 94.87C637.56 95.82 637.79 96.15 638.61 96.35C639.96 96.69 639.96 97.35 638.6 97.69C637.54 97.96 637.53 97.98 637.65 102L637.77 106.05L638.97 106.19L640.17 106.32L639.21 107.34C638.03 108.6 636.09 108.7 635.47 107.55ZM35.19 106.15C36.87 104.59 37.38 103.13 37.38 99.97C37.38 94.74 35.84 92.61 32.05 92.61C30.01 92.61 29.63 92.75 28.77 93.83C28.24 94.5 27.69 95.61 27.55 96.29C27.05 98.79 27.31 102.67 28.09 104.4C29.47 107.44 32.91 108.28 35.19 106.15ZM87.53 106.12C88.31 105.08 88.41 104.36 88.41 100.03C88.41 94.28 88.15 93.08 86.67 92.11C85.6 91.41 85.55 91.42 84.61 92.51C82.92 94.48 82.69 103.33 84.26 106.36C85.05 107.88 86.29 107.78 87.53 106.12ZM530.82 106.03C532.04 104.48 532.29 102.81 531.56 101.05C530.71 99.04 529.19 98.33 527.75 99.28C526.78 99.91 526.68 100.25 526.68 102.73C526.68 104.24 526.88 105.84 527.11 106.29C527.76 107.49 529.78 107.35 530.82 106.03ZM610.23 105.99C611.45 104.44 611.41 101.39 610.14 99.5C609.36 98.34 608.91 98.07 607.73 98.07C605.77 98.07 605.02 99.57 605.41 102.71C605.91 106.7 608.36 108.37 610.23 105.99ZM656.21 105.4C656.84 104.23 656.94 103.49 656.7 101.89C655.93 96.77 651 96.44 651 101.5C651 106.43 654.32 108.92 656.21 105.4ZM712.88 106.09C713.9 104.54 714.1 103.17 713.6 101.28C712.79 98.28 710.37 96.93 708.74 98.56C707.62 99.68 708.03 104.61 709.36 106.03C710.62 107.38 712.03 107.4 712.88 106.09ZM562.83 106.25C563.52 105.87 563.64 105.34 563.64 102.6C563.64 99.08 563.04 97.86 561.28 97.86C559.61 97.86 558.6 99.4 558.6 101.96C558.6 103.9 558.77 104.4 559.83 105.45C561.16 106.79 561.6 106.9 562.83 106.25ZM628.24 105.76C628.51 105.48 628.74 104.63 628.74 103.87C628.74 102.75 628.57 102.48 627.87 102.48C626.35 102.48 625.38 103.27 625.38 104.52C625.38 105.17 625.51 105.83 625.66 105.98C626.12 106.44 627.69 106.3 628.24 105.76ZM582.88 99.44C582.97 98.98 582.62 98.53 581.94 98.22C580.52 97.57 578.76 98.31 578.76 99.55C578.76 100.33 578.97 100.41 580.75 100.3C582.25 100.2 582.78 99.99 582.88 99.44ZM784.12 99.78C784.81 98.94 782.88 97.66 781.46 98.02C780.43 98.28 779.75 99.32 780.17 100C780.55 100.61 783.57 100.44 784.12 99.78ZM537.88 92.54C537.73 92.39 537.6 91.82 537.6 91.28C537.6 90.54 537.83 90.3 538.57 90.3C540.07 90.3 540.67 91.14 539.84 92.06C539.13 92.84 538.37 93.03 537.88 92.54ZM642.88 92.54C642.73 92.39 642.6 91.82 642.6 91.28C642.6 90.54 642.83 90.3 643.57 90.3C645.07 90.3 645.67 91.14 644.84 92.06C644.13 92.84 643.37 93.03 642.88 92.54ZM762.16 92.54C762.01 92.39 761.88 91.82 761.88 91.28C761.88 90.51 762.11 90.3 762.94 90.3C763.53 90.3 764.12 90.59 764.25 90.94C764.69 92.07 762.99 93.37 762.16 92.54ZM444.73 83.85C445.08 83.43 445.18 78.65 445.1 66.94L444.99 50.61L228.38 50.5L11.76 50.4L11.76 67.13C11.76 76.33 11.89 83.99 12.04 84.14C12.19 84.29 109.51 84.42 228.29 84.42C410.39 84.42 444.33 84.33 444.73 83.85ZM907.58 83.84C908.08 83.23 908.31 51.6 907.82 50.8C907.66 50.55 821.46 50.4 677.65 50.4L447.72 50.4L447.72 67.13C447.72 76.33 447.85 83.99 448 84.14C448.15 84.29 551.51 84.42 677.69 84.42C872.41 84.42 907.17 84.33 907.58 83.84ZM520.67 79.11C520.53 78.97 520.69 78.45 521.02 77.97C521.5 77.29 521.64 75.61 521.64 70.49C521.64 66.54 521.47 63.79 521.22 63.63C520.99 63.49 520.8 63.11 520.8 62.78C520.8 62.06 523.63 61.46 524.23 62.06C524.51 62.35 525.17 62.28 526.25 61.86C528.56 60.95 530.67 62 531.84 64.64C532.99 67.25 532.39 69.7 530.05 71.92C528.63 73.27 528.11 73.5 526.49 73.5L524.58 73.5L524.58 75.79C524.58 77.04 524.77 78.19 525.01 78.33C525.24 78.48 525.32 78.77 525.19 78.99C524.92 79.42 521.09 79.53 520.67 79.11ZM621.61 78.86C621.62 78.57 621.9 77.96 622.24 77.51C623.15 76.32 623.14 64.59 622.23 63.84C621.13 62.93 621.53 62.25 623.33 61.94C624.49 61.75 625.16 61.81 625.37 62.14C625.59 62.5 626.08 62.43 627.2 61.9C628.65 61.21 628.83 61.21 630.21 61.87C633.16 63.27 634.18 66.89 632.53 70.12C631.37 72.4 629.67 73.5 627.31 73.5L625.38 73.5L625.38 75.55C625.38 76.85 625.61 77.79 626.01 78.12C627.02 78.96 626.32 79.38 623.89 79.38C622.33 79.38 621.6 79.21 621.61 78.86ZM86.1 73.41C85.51 73.1 84.51 71.79 83.81 70.38C81.05 64.87 82.88 56.69 87.1 55.63C88.72 55.22 90.03 55.68 91.49 57.18C93.21 58.94 93.84 60.89 93.86 64.47C93.87 67.92 92.93 70.74 91.2 72.39C89.81 73.73 87.58 74.17 86.1 73.41ZM24.18 73.14C24.06 72.94 24.33 72.43 24.79 72.02C25.55 71.33 25.62 70.71 25.62 64.43C25.62 60.32 25.45 57.49 25.2 57.33C24.97 57.19 24.78 56.8 24.78 56.47C24.78 55.99 25.48 55.86 28.04 55.86C34.07 55.87 36.54 57.32 36.54 60.87C36.54 62.57 36.34 63.03 35.05 64.28C33.68 65.61 33.34 65.73 31.06 65.72L28.56 65.7L28.56 68.75C28.56 71.37 28.68 71.85 29.41 72.25C29.88 72.5 30.15 72.88 30.02 73.1C29.71 73.6 24.49 73.63 24.18 73.14ZM39.5 72.89C39.22 72.55 39.06 71.94 39.13 71.53C39.32 70.54 41.27 70.3 41.99 71.18C42.45 71.73 42.41 71.97 41.78 72.67C40.89 73.66 40.19 73.72 39.5 72.89ZM68.46 72.51C67.38 71.96 66.03 70.78 65.31 69.76C64.19 68.17 64.05 67.63 64.05 64.96C64.05 61.39 65.18 58.99 67.59 57.41C69.64 56.05 71.83 55.78 75.91 56.37L79.38 56.87L79.38 58.6C79.38 59.56 79.26 60.46 79.1 60.62C78.95 60.77 78.18 60.14 77.39 59.22C75.99 57.58 75.88 57.54 73.26 57.54C70.92 57.54 70.41 57.69 69.28 58.7C66.3 61.37 66.56 67.59 69.78 70.66C71.19 72 71.72 72.24 73.31 72.24C75.93 72.24 76.86 71.23 76.86 68.39C76.86 66.99 76.62 65.95 76.19 65.47C75.19 64.37 75.82 63.84 78.12 63.84C80.1 63.84 81.11 64.34 80.23 64.89C79.99 65.03 79.8 66.53 79.8 68.21C79.8 71.5 79.53 71.98 77.16 73C75.13 73.86 70.61 73.61 68.46 72.51ZM98.46 73.02C98.29 72.76 98.47 72.38 98.85 72.16C99.44 71.83 99.54 70.88 99.54 65.43C99.54 59.98 99.44 58.96 98.81 58.27C98.11 57.5 98.12 57.42 99.09 56.64C99.66 56.18 100.58 55.87 101.19 55.94L102.27 56.07L102.38 64.04C102.48 70.6 102.61 72.07 103.13 72.36C103.47 72.55 103.65 72.89 103.51 73.11C103.17 73.67 98.81 73.6 98.46 73.02ZM460.51 73.05C460.36 72.8 460.63 72.31 461.11 71.97C461.95 71.39 462 70.99 462 64.71C462 59.31 461.88 57.96 461.37 57.54C460.01 56.41 460.64 55.86 463.26 55.86C465.17 55.86 465.78 56.01 465.78 56.47C465.78 56.8 465.59 57.19 465.36 57.33C465.11 57.49 464.94 60.41 464.94 64.68C464.94 70.82 465.03 71.83 465.63 72.16C466.01 72.38 466.19 72.76 466.02 73.02C465.65 73.63 460.88 73.65 460.51 73.05ZM469.16 72.89C468.28 71.84 468.8 70.77 470.19 70.77C471.06 70.77 471.48 71 471.58 71.53C471.75 72.39 470.97 73.5 470.19 73.5C469.9 73.5 469.44 73.23 469.16 72.89ZM508.94 73.19L507.36 73.03L507.36 70.53C507.36 67.71 507.84 67.37 508.84 69.48C509.53 70.92 511.57 72.24 513.12 72.24C513.56 72.24 514.46 71.68 515.12 70.99C516.81 69.23 516.23 68.25 512.06 65.83C508.12 63.54 507.36 62.62 507.36 60.16C507.36 56.79 509.7 55.55 514.92 56.17L517.65 56.49L517.78 58.33C517.92 60.22 517.14 61.74 516.69 60.48C516.56 60.14 515.94 59.34 515.3 58.7C514.44 57.83 513.73 57.54 512.52 57.54C510.61 57.54 509.88 58.12 509.88 59.65C509.88 60.87 510.99 61.85 514.31 63.54C517.33 65.08 518.78 66.76 518.78 68.72C518.78 70.05 518.49 70.59 517.08 71.91C515.48 73.4 515.22 73.5 512.94 73.43C511.6 73.39 509.8 73.28 508.94 73.19ZM534.66 72.68C534.66 72.24 534.85 71.75 535.08 71.61C535.31 71.47 535.5 69.67 535.5 67.62C535.5 64.5 535.38 63.81 534.76 63.47C533.77 62.9 534.51 62.2 536.42 61.89C538.28 61.59 538.43 62.03 538.43 67.91C538.44 70.35 538.62 72.3 538.87 72.45C539.75 73 538.74 73.5 536.74 73.5C534.96 73.5 534.66 73.38 534.66 72.68ZM540.96 73.14C540.96 72.95 541.26 72.18 541.64 71.43C542.57 69.57 542.3 64.67 541.21 63.46C540.44 62.62 540.45 62.59 541.56 62.17C543.15 61.57 544.19 61.63 544.47 62.36C544.67 62.9 544.93 62.86 546.16 62.14C548.01 61.04 549.59 61.4 550.66 63.16C551.28 64.18 551.46 65.27 551.46 68.06C551.46 70.14 551.66 71.85 551.93 72.12C552.75 72.95 551.88 73.5 549.76 73.5C547.58 73.5 547.04 72.88 548.31 71.82C548.76 71.44 548.94 70.45 548.94 68.28C548.94 64.59 548.43 63.72 546.4 63.91L544.95 64.05L544.83 68C544.75 70.69 544.86 72.06 545.2 72.26C545.47 72.43 545.56 72.78 545.4 73.03C545.07 73.57 540.96 73.68 540.96 73.14ZM555.82 72.45C553.5 70.63 553.16 66.54 555.08 63.61C555.86 62.42 558.72 61.14 559.92 61.46C560.44 61.59 561.11 61.5 561.41 61.25C562.18 60.61 562.09 58.57 561.26 57.74C560.24 56.72 561.04 55.68 562.95 55.52L564.48 55.39L564.48 63.16C564.48 69.96 564.57 70.99 565.17 71.33C566.53 72.08 564.01 73.13 560.41 73.31C557.43 73.46 557.01 73.39 555.82 72.45ZM567.19 73.05C567.04 72.81 567.22 72.27 567.59 71.87C568.62 70.72 568.58 58.59 567.53 57.43C566.84 56.66 566.84 56.6 567.61 56.03C568.06 55.71 568.95 55.44 569.6 55.44L570.78 55.44L570.78 63.58C570.78 70.27 570.89 71.81 571.41 72.24C571.75 72.52 571.93 72.92 571.8 73.13C571.47 73.66 567.53 73.59 567.19 73.05ZM575.69 72.08C572.76 69.15 573.32 63.86 576.73 62.12C578.79 61.07 580.01 61.11 581.7 62.27C583.59 63.55 584.13 64.48 583.54 65.41C583.18 66 582.37 66.18 579.61 66.27L576.14 66.4L576.4 67.74C576.9 70.37 580.02 71.87 581.74 70.31C582.15 69.95 582.82 69.72 583.24 69.81C583.89 69.94 583.73 70.26 582.27 71.74C580.8 73.24 580.28 73.5 578.82 73.5C577.43 73.5 576.84 73.23 575.69 72.08ZM592.48 73.22C592.08 72.82 592.13 69.72 592.54 69.72C592.73 69.72 593.3 70.29 593.81 70.98C594.87 72.4 596.76 72.69 597.69 71.57C598.44 70.67 597.87 69.87 595.55 68.6C592.94 67.16 592.13 66.11 592.28 64.31C592.46 62.2 594.28 61.18 597.19 61.56C599.52 61.87 600.18 62.7 599.34 64.25C598.89 65.1 598.85 65.09 597.81 63.85C596.63 62.45 594.86 62.14 594.43 63.27C594.04 64.29 594.78 65.19 597.02 66.38C599.16 67.53 600.6 68.99 600.6 70.02C600.6 70.36 599.96 71.29 599.17 72.07C597.87 73.38 597.53 73.5 595.25 73.5C593.88 73.5 592.63 73.37 592.48 73.22ZM603.35 72.57C602.87 71.88 602.7 70.57 602.7 67.58C602.7 64.49 602.55 63.4 602.07 63C601.17 62.26 601.3 61.72 602.71 60.16C604.23 58.49 605.12 58.42 605.3 59.95C605.39 60.78 605.7 61.15 606.38 61.24C607.63 61.42 607.57 62.06 606.26 62.66C605.21 63.14 605.19 63.22 605.31 67.17L605.43 71.19L606.63 71.33L607.83 71.46L606.87 72.48C605.68 73.75 604.21 73.79 603.35 72.57ZM610.8 72.08C609.38 70.78 609.24 70.45 609.11 67.99C608.92 64.74 609.84 62.94 612.19 61.96C614.12 61.15 615.14 61.18 616.97 62.08C620.14 63.63 621.2 67.25 619.37 70.27C618.06 72.43 616.33 73.49 614.14 73.5C612.69 73.5 612.05 73.23 610.8 72.08ZM89.77 71.32C90.55 70.37 91.26 65.61 91.04 62.81C90.61 57.45 88.09 55.03 86.42 58.38C85.85 59.52 85.68 60.92 85.68 64.55C85.68 69.37 86.06 71.23 87.23 72.12C87.93 72.65 88.93 72.34 89.77 71.32ZM528.3 71.25C530.96 68.43 529.07 63.15 525.71 63.99C524.6 64.27 524.58 64.33 524.58 67.75C524.58 69.9 524.77 71.43 525.08 71.74C525.88 72.54 527.29 72.32 528.3 71.25ZM616.53 71.13C617.14 70.35 617.4 69.41 617.4 67.96C617.4 65.66 616.91 64.41 615.57 63.32C614.3 62.3 613.4 62.41 612.39 63.69C610.41 66.21 612.2 72.17 614.95 72.23C615.34 72.23 616.05 71.74 616.53 71.13ZM629.55 71.13C631.35 68.84 630.18 63.84 627.84 63.84C625.83 63.84 625.38 64.53 625.38 67.64C625.38 69.25 625.61 70.95 625.9 71.41C626.66 72.62 628.49 72.48 629.55 71.13ZM561.23 70.64C561.75 70.19 561.96 69.39 561.95 67.87C561.95 64.94 561.63 64 560.39 63.19C559.53 62.62 559.17 62.58 558.38 63C555.74 64.42 555.99 70.34 558.73 71.37C559.71 71.74 560.06 71.64 561.23 70.64ZM580.08 65.07C580.89 64.63 580.9 64.58 580.2 63.81C579.45 62.98 578.51 62.8 577.32 63.25C576.65 63.51 576.42 64.72 576.94 65.24C577.37 65.67 579.14 65.57 580.08 65.07ZM32.45 63.36C32.87 62.85 33.18 61.8 33.18 60.85C33.18 58.75 32.03 57.54 30.03 57.54L28.56 57.54L28.56 60.61C28.56 62.49 28.76 63.87 29.08 64.2C29.78 64.89 31.52 64.45 32.45 63.36ZM536 57.45C535.73 57.18 535.5 56.6 535.5 56.17C535.5 55.54 535.77 55.41 536.87 55.52C538.43 55.67 538.66 56.52 537.37 57.38C536.7 57.83 536.39 57.84 536 57.45ZM183.05 46.83C183.13 46.14 183.38 45.35 183.61 45.07C183.88 44.74 183.86 44.27 183.55 43.69C182.99 42.65 183.32 41.29 184.43 40.08C185.21 39.22 185.21 39.2 184.17 38.22C183.34 37.44 183.12 36.82 183.12 35.27C183.12 31.94 185.02 30.96 190.69 31.36C194.49 31.63 195.21 32.04 193.86 33.15C193.46 33.49 193.34 34.12 193.49 35.05C193.68 36.22 193.48 36.7 192.28 38.02C191.05 39.36 190.51 39.62 188.64 39.8C186.69 39.99 186.45 40.11 186.56 40.9C186.68 41.69 187.04 41.82 189.7 42.02C192.71 42.26 193.72 42.71 194.51 44.19C194.81 44.75 194.74 45.34 194.27 46.28C193.91 47 193.62 47.75 193.62 47.95C193.62 48.14 213.98 48.26 238.88 48.2L284.13 48.09L284.27 46.83C284.35 46.14 284.58 45.37 284.78 45.12C284.99 44.88 285.04 43.97 284.9 43.1C284.7 41.89 284.84 41.26 285.52 40.34L286.39 39.16L285.37 38.2C284.62 37.5 284.34 36.79 284.34 35.6C284.34 31.97 286.23 30.91 291.92 31.34C294.58 31.54 295.68 31.78 295.68 32.17C295.68 32.47 295.49 32.83 295.26 32.97C295.03 33.11 294.84 33.98 294.84 34.89C294.84 37.36 292.82 39.42 290.01 39.82C288.29 40.07 287.91 40.27 287.91 40.96C287.91 41.69 288.28 41.82 290.85 42.03C292.47 42.16 294.21 42.49 294.73 42.77C296.03 43.48 296.36 45.11 295.48 46.46C295.06 47.1 294.92 47.7 295.14 47.93C295.36 48.15 326.62 48.26 370.25 48.2L444.99 48.09L445.1 34.34L445.21 20.58L228.49 20.58L11.76 20.58L11.76 34.44L11.76 48.3L97.33 48.2L182.91 48.09L183.05 46.83ZM907.81 47.91C907.95 47.69 908.06 41.5 908.07 34.15L908.09 20.79L677.9 20.68L447.72 20.58L447.72 34.44L447.72 48.3L677.65 48.3C819.37 48.3 907.66 48.15 907.81 47.91ZM191.29 47.31C192.63 46.33 191.64 45.78 188.56 45.78C185.59 45.78 184.96 46.2 186.14 47.38C186.83 48.06 190.33 48.02 191.29 47.31ZM292.35 47.45C292.79 47.21 293.16 46.73 293.16 46.4C293.16 45.91 292.5 45.78 290.01 45.78C287.54 45.78 286.86 45.91 286.86 46.39C286.86 47.72 290.52 48.42 292.35 47.45ZM105.1 43.46C104.07 42.73 103.84 40.87 104.6 39.45C104.84 39 106.05 38.05 107.29 37.35C108.54 36.65 109.76 35.82 110.02 35.51C110.71 34.68 110.12 32.88 109.07 32.6C107.83 32.28 107.34 32.9 107.93 34.01C108.34 34.76 108.29 35.08 107.7 35.73C105.99 37.63 103.59 35.98 104.58 33.6C105.2 32.1 107.08 31.29 109.92 31.29C113.32 31.29 113.96 32.17 114.29 37.29C114.44 39.53 114.63 41.74 114.71 42.19C114.82 42.76 114.51 43.19 113.7 43.59C112.66 44.1 112.38 44.06 111.06 43.24C109.72 42.41 109.51 42.39 108.86 42.97C107.72 44 106.16 44.21 105.1 43.46ZM130.75 43.68C129.29 43.09 128.94 41.91 128.94 37.6C128.94 34.34 128.82 33.53 128.28 33.32C127.88 33.17 127.38 33.43 126.98 33.99C126.42 34.79 126.09 34.88 124.64 34.63C123.43 34.43 122.85 34.51 122.59 34.92C122.08 35.73 122.13 41.74 122.66 42.27C123.44 43.05 122 43.74 119.89 43.6L117.92 43.47L117.86 37.48L117.81 31.5L119.76 31.5C121.18 31.5 121.78 31.69 121.97 32.19C122.21 32.8 122.31 32.81 122.96 32.24C124.19 31.16 125.53 30.95 126.63 31.67C127.61 32.31 127.69 32.27 129.65 30.03C131.99 27.36 132.72 27.14 132.72 29.11C132.72 30.66 133.35 31.5 134.51 31.5C135.68 31.5 135.24 32.88 133.98 33.18C132.99 33.41 132.92 33.61 132.8 36.55C132.64 40.78 132.87 41.58 134.3 41.59L135.45 41.6L134.08 42.85C132.63 44.17 132.23 44.27 130.75 43.68ZM173.56 43.64C171.44 43.01 169.96 40.45 169.96 37.44C169.96 34.5 170.93 32.64 172.98 31.67C175.98 30.24 179.58 31.79 180.83 35.06C182.73 40.03 178.44 45.11 173.56 43.64ZM208.42 43.46C207.34 42.69 207.14 40.53 208.04 39.29C208.35 38.86 209.63 37.92 210.88 37.19C212.82 36.05 213.17 35.65 213.29 34.46C213.42 33.06 212.9 32.36 211.73 32.35C211.3 32.34 211.21 32.72 211.38 33.77C211.55 34.82 211.42 35.39 210.88 35.87C209.06 37.52 206.95 35.9 207.9 33.6C208.52 32.1 210.41 31.29 213.29 31.29C215.23 31.29 215.67 31.45 216.55 32.47C217.46 33.53 217.56 34.03 217.56 37.53C217.56 39.82 217.75 41.6 218.03 41.88C218.63 42.49 218.17 43.21 216.84 43.71C216.02 44.03 215.48 43.92 214.35 43.22C213.04 42.41 212.83 42.39 212.18 42.97C211.04 44 209.48 44.21 208.42 43.46ZM309.85 43.57C306.03 42.32 303.68 39 303.68 34.86C303.68 30.46 306.27 27.07 310.59 25.81C312.7 25.2 313.1 25.2 315.19 25.81C316.44 26.17 318.1 26.42 318.86 26.36L320.25 26.25L320.25 28.56C320.25 31.27 319.71 31.52 318.28 29.47C317.75 28.69 316.61 27.67 315.76 27.19C314.26 26.35 314.15 26.35 312.33 27.04C310.8 27.63 310.29 28.11 309.58 29.63C307.88 33.23 308.76 40.35 311.08 41.88C312.67 42.92 315.53 42.7 317.22 41.41C318.65 40.32 319.62 40.02 319.62 40.67C319.62 41.12 317.98 42.61 316.83 43.2C315.4 43.93 311.59 44.13 309.85 43.57ZM325.67 43.51C322.6 42.15 321.32 37.89 322.9 34.32C323.98 31.87 325.72 30.88 328.33 31.24C331.74 31.71 333.47 33.76 333.48 37.33C333.48 42.01 329.45 45.2 325.67 43.51ZM338.01 43.63C336.14 42.93 335.16 40.86 335.16 37.62C335.16 33.02 336.95 30.94 340.72 31.18L342.51 31.29L342.44 28.66L342.36 26.04L344.43 26.04L346.5 26.04L346.5 33.63C346.5 37.8 346.69 41.56 346.91 41.98C347.56 43.19 346.48 43.75 343.7 43.63C342.35 43.57 340.78 43.64 340.2 43.79C339.62 43.93 338.64 43.86 338.01 43.63ZM353.01 43.81C350.72 43.21 349.44 40.84 349.44 37.18C349.44 34.63 349.55 34.31 350.88 32.86C352.17 31.45 352.53 31.29 354.4 31.29C356.79 31.29 358.02 32.12 358.97 34.38C359.51 35.64 359.49 35.87 358.85 36.58C358.3 37.19 357.55 37.38 355.67 37.38C353.82 37.38 353.22 37.53 353.22 37.98C353.22 39.19 354.05 40.71 355.07 41.38C356.03 42.01 356.2 42.02 357.08 41.41C358.87 40.15 359.36 40.67 357.83 42.2C356.38 43.65 354.63 44.24 353.01 43.81ZM363.3 43.79C361.39 43.56 360.78 43.01 360.78 41.53C360.78 40.02 361.69 39.94 362.63 41.37C363.42 42.58 364.62 42.73 365.45 41.73C365.94 41.13 365.83 40.91 364.55 39.95C361.24 37.46 360.72 36.71 360.86 34.6C361.05 31.76 362.21 30.98 365.72 31.35L368.34 31.62L368.34 33.01C368.34 34.83 367.84 35.06 366.65 33.8C365.58 32.66 363.72 32.39 363.72 33.37C363.72 33.71 364.56 34.55 365.58 35.26C367.78 36.77 369.18 38.44 369.18 39.56C369.18 41.03 367.88 42.9 366.44 43.5C365.65 43.83 364.95 44.07 364.89 44.03C364.82 44 364.11 43.89 363.3 43.79ZM643.23 43.59C641.59 42.65 641.37 41.91 641.35 37.3C641.35 34.77 641.16 32.7 640.92 32.55C639.94 31.94 640.64 31.5 642.59 31.5C645.3 31.5 645.54 31.98 645.54 37.35C645.54 40.8 645.65 41.58 646.16 41.58C647.49 41.58 648.13 39.69 647.97 36.25C647.88 34.45 647.66 32.63 647.46 32.21C647.14 31.52 647.32 31.46 649.37 31.58L651.63 31.71L651.75 36.72C651.81 39.48 652.05 41.95 652.26 42.21C652.89 42.96 651.86 43.68 650.16 43.68C649.33 43.68 648.45 43.49 648.22 43.25C647.93 42.96 647.3 43.02 646.26 43.46C644.45 44.21 644.32 44.22 643.23 43.59ZM672.17 43.51C670.18 42.63 669.06 40.48 669.06 37.54C669.06 34.53 670.12 32.56 672.21 31.68C674.07 30.91 675.11 30.92 676.88 31.76C679.32 32.92 679.16 35.91 676.67 35.62C675.87 35.52 675.5 35.15 675.21 34.12C674.96 33.25 674.55 32.76 674.08 32.76C673.18 32.76 672.84 33.58 672.84 35.79C672.84 39.72 674.69 42.61 676.56 41.61C677.03 41.36 677.74 41.16 678.16 41.16C678.77 41.16 678.68 41.39 677.66 42.39C676.16 43.87 673.97 44.32 672.17 43.51ZM683.05 43.68C681.6 43.09 681.24 41.91 681.24 37.64C681.24 35.43 681.05 33.53 680.82 33.39C680.02 32.89 680.41 31.85 682.18 29.79C684.44 27.18 685.44 27.06 685.44 29.41C685.44 30.55 685.65 31.17 686.07 31.3C688.12 31.94 688.07 31.91 687.54 32.55C687.25 32.9 686.66 33.18 686.23 33.18C685.51 33.18 685.44 33.55 685.44 37.38L685.44 41.58L686.6 41.59L687.75 41.6L686.38 42.85C684.93 44.17 684.53 44.27 683.05 43.68ZM699.93 43.81C695.76 42.73 694.54 35.24 698.03 32.13C699.35 30.95 702.99 30.96 704.62 32.16C706.21 33.32 707.28 35.53 707.28 37.63C707.28 41.34 703.3 44.69 699.93 43.81ZM725.34 43.72C723.51 43.48 723.45 43.42 723.32 41.89C723.17 40.04 723.79 39.84 725 41.37C725.91 42.53 727.08 42.73 727.82 41.84C728.2 41.38 727.79 40.82 725.8 39.09C722.97 36.65 722.44 35.32 723.39 33.06C724.11 31.32 725.32 30.93 728.49 31.4C730.4 31.69 730.6 31.82 730.73 32.92C730.94 34.75 730.15 35.22 729.1 33.88C728.58 33.22 727.8 32.76 727.2 32.76C725.55 32.76 725.99 33.89 728.3 35.54C731.81 38.07 732.38 40.34 730.03 42.54C728.66 43.82 727.79 44.04 725.34 43.72ZM89.06 43.28C88.53 42.95 88.55 42.78 89.18 42.08C89.83 41.35 89.91 40.47 89.79 34.38C89.72 30.6 89.5 27.18 89.31 26.77C88.98 26.1 89.31 26.04 93.42 26.04C98.62 26.04 100.38 26.6 101.64 28.64C102.76 30.46 102.45 31.73 100.4 33.69C99.12 34.91 98.32 35.3 96.64 35.52L94.5 35.81L94.5 38.92C94.5 41.41 94.64 42.08 95.19 42.29C95.81 42.53 95.8 42.61 95.11 43.12C94.24 43.76 89.99 43.87 89.06 43.28ZM144.08 43.28C143.55 42.94 143.56 42.78 144.18 42.1C144.8 41.42 144.9 40.33 144.9 34.54C144.9 30.48 144.73 27.67 144.48 27.51C144.25 27.37 144.06 26.98 144.06 26.65C144.06 26.16 144.91 26.04 148.48 26.04C153.64 26.04 155.4 26.6 156.66 28.64C157.78 30.46 157.47 31.73 155.42 33.69C154.14 34.91 153.34 35.3 151.66 35.52L149.52 35.81L149.52 38.92C149.52 41.41 149.66 42.08 150.21 42.29C150.83 42.53 150.82 42.61 150.13 43.12C149.26 43.76 145.01 43.87 144.08 43.28ZM160 43.57C159.98 43.52 159.94 40.78 159.89 37.48L159.81 31.5L161.76 31.5C163.18 31.5 163.78 31.69 163.97 32.19C164.21 32.8 164.31 32.81 164.96 32.24C166.76 30.66 169.26 31.07 169.26 32.93C169.26 34.38 168.33 34.96 166.52 34.62C165.4 34.41 164.86 34.49 164.6 34.91C164.08 35.73 164.13 41.89 164.66 42.22C165.63 42.82 164.1 43.68 162.07 43.68C160.94 43.68 160.01 43.63 160 43.57ZM196.33 43.23C196.18 42.99 196.29 42.24 196.56 41.57C197.1 40.28 196.97 33.55 196.38 32.23C196.09 31.59 196.31 31.5 198.21 31.5C199.69 31.5 200.44 31.69 200.6 32.1C200.78 32.59 201.07 32.55 202.25 31.85C204.6 30.47 206.93 31.97 205.53 33.98C204.97 34.77 204.63 34.86 203.09 34.63C201.46 34.39 201.27 34.45 201.03 35.35C200.6 36.95 200.72 41.93 201.2 42.22C201.5 42.41 201.49 42.68 201.15 43.09C200.57 43.79 196.75 43.9 196.33 43.23ZM220.69 43.23C220.54 42.99 220.65 42.24 220.92 41.57C221.45 40.3 221.3 34.25 220.7 32.41C220.39 31.45 220.44 31.44 223.28 31.45C224.87 31.45 227.07 31.43 228.16 31.39C229.52 31.34 230.37 31.53 230.84 32C231.47 32.63 231.62 32.62 232.84 31.88C234.59 30.81 236.17 30.87 237.55 32.06C238.64 32.99 238.71 33.28 238.97 38.04C239.17 41.45 239.11 43.15 238.8 43.37C238.55 43.55 237.5 43.64 236.46 43.58L234.57 43.47L234.72 38.53L234.87 33.6L233.61 33.6C232.85 33.6 232.25 33.86 232.09 34.26C231.69 35.31 231.81 41.3 232.24 41.99C232.9 43.02 231.9 43.68 229.68 43.68C227.49 43.68 226.68 42.95 227.61 41.83C227.92 41.46 228.05 39.89 227.97 37.53C227.86 33.97 227.81 33.8 226.85 33.67C226.3 33.59 225.68 33.78 225.49 34.09C224.94 34.96 225.04 41.9 225.6 42.25C225.94 42.46 225.85 42.72 225.31 43.11C224.4 43.79 221.09 43.87 220.69 43.23ZM242.31 43.36C242.29 43.19 242.24 40.44 242.2 37.25L242.13 31.45L244.86 31.5C246.36 31.53 248.18 31.43 248.91 31.28C249.77 31.09 250.73 31.23 251.67 31.68C252.97 32.3 253.23 32.3 254.34 31.73C256.73 30.48 258.84 31.11 259.77 33.32C260.38 34.79 260.75 42.36 260.24 43.17C259.87 43.77 256.68 43.84 255.78 43.27C255.26 42.94 255.24 42.72 255.67 42.02C255.99 41.5 256.2 39.68 256.2 37.39L256.2 33.6L254.98 33.6C254.26 33.6 253.67 33.87 253.51 34.26C253.1 35.33 253.22 41.14 253.67 41.98C254.29 43.14 253.24 43.75 250.88 43.6C248.98 43.48 248.86 43.4 248.99 42.42C249.37 39.64 249.53 35.52 249.29 34.59C249.08 33.75 248.81 33.57 247.89 33.68L246.75 33.81L246.75 38.43C246.75 41.02 246.57 43.19 246.33 43.36C245.78 43.76 242.35 43.77 242.31 43.36ZM263.31 43.36C263.29 43.19 263.24 40.44 263.2 37.26L263.13 31.46L265.23 31.59L267.33 31.71L267.45 36.72C267.51 39.48 267.76 41.97 268 42.26C268.31 42.64 268.2 42.91 267.59 43.23C266.64 43.74 263.36 43.84 263.31 43.36ZM270.88 43.57C270.86 43.52 270.82 40.77 270.77 37.46L270.69 31.45L273.42 31.5C274.92 31.52 276.83 31.42 277.66 31.27C278.89 31.05 279.39 31.19 280.36 32.03C281.52 33.03 281.56 33.22 281.79 37.99C281.96 41.51 281.89 43.03 281.54 43.32C281.26 43.55 280.22 43.67 279.23 43.6L277.41 43.47L277.41 38.65C277.41 34.27 277.34 33.81 276.62 33.67C275.35 33.42 275.07 34.4 275.17 38.66C275.21 40.87 275.11 42.9 274.94 43.18C274.69 43.58 270.96 43.95 270.88 43.57ZM625.69 43.39C624.76 43.15 624.77 43.03 625.82 41.98C626.63 41.17 626.67 40.72 626.53 34.53C626.45 30.9 626.23 27.5 626.04 26.98L625.7 26.04L631.97 26.04C636.28 26.04 638.39 26.2 638.74 26.54C639.41 27.22 639.37 28.64 638.65 29.63C638.07 30.42 638.04 30.41 637.55 29.34C636.92 27.94 635.52 27.3 633.13 27.3L631.26 27.3L631.26 30.43C631.26 32.15 631.46 33.67 631.7 33.82C631.94 33.97 632.81 33.39 633.63 32.52C634.81 31.27 635.19 31.06 635.49 31.54C636.01 32.36 635.97 35.82 635.43 37.25L634.97 38.43L634.37 37.29C633.78 36.17 632.6 35.28 631.71 35.28C631.43 35.28 631.26 36.55 631.26 38.65C631.26 41.39 631.39 42.08 631.95 42.29C632.57 42.53 632.56 42.61 631.87 43.12C631.14 43.65 627.34 43.82 625.69 43.39ZM655.59 43.36C655.57 43.19 655.52 40.45 655.48 37.28L655.41 31.5L657.38 31.5C658.46 31.5 659.47 31.69 659.61 31.92C659.78 32.19 660.21 32.12 660.78 31.71C662.65 30.4 665 31.15 665.92 33.35C666.52 34.78 666.86 42.4 666.36 43.21C666.01 43.77 662.8 43.83 661.94 43.28C661.44 42.96 661.42 42.72 661.85 41.92C662.19 41.29 662.33 39.64 662.25 37.37C662.13 33.89 662.11 33.81 661.08 33.81L660.03 33.81L659.99 38.26C659.96 40.71 659.81 42.93 659.65 43.2C659.32 43.72 655.64 43.88 655.59 43.36ZM689.61 43.36C689.59 43.19 689.54 40.44 689.5 37.26L689.43 31.46L691.53 31.59L693.63 31.71L693.75 36.72C693.81 39.48 694.05 41.95 694.26 42.21C694.94 43.03 693.79 43.68 691.66 43.68C690.55 43.68 689.63 43.54 689.61 43.36ZM709.15 43.23C709 42.99 709.11 42.24 709.38 41.57C709.92 40.28 709.79 33.55 709.2 32.23C708.91 31.59 709.13 31.5 710.99 31.5C712.16 31.5 713.22 31.67 713.35 31.89C713.48 32.1 714.14 31.99 714.87 31.63C715.7 31.22 716.65 31.09 717.59 31.27C719.71 31.66 720.3 33.11 720.3 37.91C720.3 40.07 720.5 42.03 720.74 42.27C721.52 43.06 720.08 43.74 717.92 43.6C716.02 43.48 715.9 43.4 716.03 42.42C716.4 39.67 716.57 35.52 716.34 34.61C716.06 33.52 714.92 33.26 714.08 34.1C713.45 34.74 713.39 41.83 714.02 42.22C714.32 42.41 714.31 42.68 713.97 43.09C713.39 43.79 709.57 43.9 709.15 43.23ZM176.7 41.16C177.34 39.89 177.41 34.7 176.81 33.57C176.56 33.12 175.93 32.76 175.37 32.76C174.45 32.76 174.34 32.98 174.08 35.45C173.82 37.88 174.08 41.26 174.6 42.13C174.97 42.76 176.17 42.21 176.7 41.16ZM328.82 41.83C329.14 41.45 329.27 39.8 329.19 37.11C329.07 32.99 329.06 32.97 327.97 32.84C327.12 32.74 326.81 32.94 326.61 33.68C326.19 35.25 326.3 40.73 326.77 41.61C327.29 42.56 328.14 42.66 328.82 41.83ZM702.31 41.72C702.94 41.16 703.08 40.39 703.08 37.56C703.08 33.43 702.88 32.76 701.61 32.76C700.33 32.76 700.14 33.42 700.14 37.75C700.14 42.14 700.71 43.18 702.31 41.72ZM110.37 39.3C110.19 37.98 108.72 38.19 108.25 39.6C107.97 40.43 108.02 40.96 108.41 41.43C108.9 42.02 109.04 41.99 109.73 41.13C110.15 40.61 110.44 39.78 110.37 39.3ZM213.36 39.4C213.36 37.88 212.23 37.81 211.67 39.3C211.39 40.03 211.41 40.66 211.74 41.26C212.2 42.12 212.23 42.13 212.79 41.37C213.1 40.93 213.36 40.05 213.36 39.4ZM342.72 37.38C342.72 34.11 342.07 32.68 340.66 32.84C339.83 32.94 339.53 33.29 339.27 34.44C338.81 36.5 339.31 40.63 340.11 41.43C340.73 42.05 340.87 42.01 341.75 40.98C342.53 40.08 342.72 39.36 342.72 37.38ZM290.97 35.09C290.86 33.15 290.76 32.96 289.75 32.84C288.78 32.73 288.61 32.9 288.37 34.18C288.06 35.82 288.43 37.86 289.12 38.3C289.37 38.47 289.91 38.29 290.33 37.91C290.92 37.38 291.07 36.72 290.97 35.09ZM189.58 36.92C189.79 36.32 189.83 35.14 189.67 34.29C189.44 33.05 189.2 32.76 188.4 32.76C187.85 32.76 187.3 33.06 187.15 33.42C186.82 34.29 186.83 36.7 187.16 37.58C187.56 38.62 189.13 38.19 189.58 36.92ZM355.3 35.51C355.58 35.18 355.74 34.47 355.67 33.94C355.47 32.55 353.49 32.56 353.29 33.95C353.01 35.93 354.19 36.85 355.3 35.51ZM97.01 32.78C97.25 32.34 97.44 31.22 97.44 30.29C97.44 29.03 97.21 28.44 96.51 27.95C94.75 26.73 94.5 27.06 94.5 30.59C94.5 32.4 94.62 34 94.77 34.15C95.15 34.53 96.51 33.71 97.01 32.78ZM152.03 32.78C152.27 32.34 152.46 31.22 152.46 30.29C152.46 29.03 152.23 28.44 151.53 27.95C149.77 26.73 149.52 27.06 149.52 30.59C149.52 32.4 149.64 34 149.79 34.15C150.17 34.53 151.53 33.71 152.03 32.78ZM263.67 28.32C263.03 26.93 263.64 25.88 265.19 25.69C267.32 25.44 268.31 27.32 266.77 28.7C265.62 29.75 264.24 29.58 263.67 28.32ZM689.97 28.32C689.33 26.93 689.94 25.88 691.49 25.69C693.62 25.44 694.61 27.32 693.07 28.7C691.92 29.75 690.54 29.58 689.97 28.32Z" fill="#1e2749" fill-rule="evenodd"/>
</svg>
