<?xml version="1.0" encoding="UTF-8"?>
<svg xmlns="http://www.w3.org/2000/svg" viewBox="0 0 2430 639" width="2430" height="639" shape-rendering="geometricPrecision">
<path d="M452.95 599.75C450.05 596.67 441.66 579.22 438.48 569.62C433.01 553.13 432.84 527.8 438.08 510.5C440.77 501.65 450.05 481.95 452.87 479.13C455.05 476.95 459.42 476.26 460.46 477.94C460.78 478.45 459.01 483.45 456.53 489.04C448.38 507.43 445.83 519.32 445.82 538.94C445.82 558.8 450.31 577.96 458.9 594.81C460.06 597.07 461 599.61 461 600.46C461 602.89 455.46 602.4 452.95 599.75ZM552 601.04C552 600.52 553.77 596.06 555.94 591.14C564.92 570.73 568.47 553.48 567.71 534C567.06 517.38 564.37 506.27 557 489.68C554.12 483.21 552.02 477.65 552.33 477.33C552.65 477.02 554.45 477.05 556.34 477.4C560.54 478.19 563.14 481.86 569.4 495.77C577.69 514.23 578.49 518.01 578.47 539C578.46 556.25 578.27 558.11 575.73 566.5C572.37 577.6 562.67 597.33 559.26 600.01C556.65 602.07 552 602.73 552 601.04ZM1907.42 598.75C1903.13 593.69 1896.38 578.51 1893.52 567.5C1887.83 545.55 1888.12 526.9 1894.48 507.49C1898.12 496.39 1904.91 482.09 1908.02 478.98C1909.97 477.03 1916 476.18 1916 477.86C1916 478.33 1914.25 482.5 1912.12 487.12C1907.22 497.71 1903.56 509.3 1901.97 519.21C1900.18 530.41 1901.23 557.2 1903.86 567.13C1905.95 575.04 1912.18 592.43 1914.66 597.28C1915.44 598.81 1915.81 600.5 1915.48 601.03C1914.21 603.09 1910.13 601.94 1907.42 598.75ZM2004 600.47C2004 599.62 2005.07 596.81 2006.38 594.22C2020.87 565.46 2023.38 531.96 2013.33 501.5C2011.88 497.1 2009.19 490.18 2007.35 486.13C2005.51 482.07 2004 478.32 2004 477.8C2004 476.44 2010.13 477.9 2012.23 479.75C2014.77 481.99 2023.49 500.23 2026.45 509.48C2029.89 520.22 2031.32 536.09 2030.05 549.26C2028.7 563.11 2025.37 574.31 2018.51 588.04C2013.1 598.87 2010.51 602 2006.95 602C2004.97 602 2004 601.5 2004 600.47ZM466.6 573.16C466.28 572.64 473.1 551.25 481.76 525.62L497.5 479.02L504.15 479.01C510.5 479 510.85 479.12 511.8 481.75C512.35 483.26 518.95 501.38 526.47 522C544.34 571 544.28 570.83 543.6 572.59C543.16 573.75 541.68 574.03 537.26 573.8L531.5 573.5L526.9 560L522.29 546.5L504.53 546.5L486.77 546.5L482.58 560L478.38 573.5L472.78 573.8C469.7 573.96 466.92 573.67 466.6 573.16ZM1929 525.95L1929 477.68L1946.75 478.35C1972.06 479.29 1977.21 480.97 1983.16 490.25C1986.05 494.75 1986.42 496.14 1986.44 502.42C1986.45 509.95 1984.37 515.55 1980.11 519.4C1977.15 522.08 1977.44 523.21 1982.01 526.88C1993.42 536.06 1993.92 553.72 1983.1 565.34C1976.01 572.96 1974.66 573.31 1950.25 573.8L1929 574.22L1929 525.95ZM1971.68 559.41C1978.68 554.21 1980.88 546.19 1977.25 539.07C1974.06 532.82 1971.69 531.87 1956.56 530.79C1949.06 530.26 1942.26 530.07 1941.46 530.38C1940.27 530.83 1940 533.79 1940 546.56L1940 562.19L1954.43 561.84C1967.19 561.54 1969.18 561.26 1971.68 559.41ZM516.69 533.91C517.48 533.12 515.99 527.44 511.31 513.41C507.74 502.73 504.51 494 504.11 494C503.72 494 502.39 497.49 501.16 501.75C499.92 506.01 497.32 514.6 495.38 520.83C493.44 527.06 492.09 532.8 492.39 533.58C492.82 534.69 495.41 535 504.27 535C511.13 535 516.03 534.57 516.69 533.91ZM1971.03 514.29C1972.61 512.53 1974.42 509.34 1975.06 507.19C1976.07 503.83 1975.95 502.67 1974.17 498.65C1972.79 495.53 1971.18 493.62 1969.3 492.85C1967.76 492.23 1960.65 491.67 1953.5 491.61L1940.5 491.5L1940.22 504.83L1939.94 518.15L1954.05 517.83L1968.17 517.5L1971.03 514.29ZM131.5 479.85C127.12 478.25 122.13 473.11 121 469.04C119.47 463.55 119.69 463 123.38 463C126.16 463 126.97 463.51 127.96 465.9C129.48 469.58 132.78 472.67 136.03 473.48C139.06 474.23 144.82 470.72 146.72 466.97C150.22 460.06 146.12 451 139.49 451C134.63 451 133 450.09 133 447.36C133 445.44 133.92 444.53 137.35 443.07C144.59 439.96 147.52 434.72 144.84 429.68C143.07 426.37 140.86 425.07 137 425.05C132.51 425.03 131.73 425.6 129.08 430.81C127.22 434.49 126.5 435.08 124.2 434.81C118.53 434.16 121.23 424.27 128.24 419.99C132.66 417.3 139.41 417.4 144.98 420.25C151.02 423.34 153.5 427.01 153.5 432.87C153.5 437.26 152.9 438.67 148.56 444.56C147.89 445.46 148.55 446.72 150.79 448.8C156.87 454.49 157.95 463 153.53 470.54C148.87 478.49 139.08 482.62 131.5 479.85ZM1575.6 479.01C1569.99 477.23 1564 469.76 1564 464.55C1564 462.32 1564.42 462 1567.38 462C1570.16 462 1570.97 462.51 1571.96 464.9C1573.38 468.34 1576.64 471.51 1579.7 472.44C1584.95 474.03 1591.99 466.81 1592 459.83C1592 454.87 1587.96 450 1583.85 450C1579.56 450 1577 448.32 1577 445.5C1577 443.54 1577.73 442.88 1580.82 442.05C1582.91 441.48 1585.7 439.88 1587.02 438.48C1592.18 432.98 1588.49 423.98 1581.08 424.02C1576.6 424.03 1575.93 424.5 1572.6 429.81C1570.55 433.08 1569.37 434.05 1567.7 433.81C1562.54 433.08 1565.62 423.03 1572.24 418.99C1579.1 414.81 1590.93 417.56 1595.04 424.29C1597.87 428.94 1597.64 435.78 1594.5 440.4C1591.47 444.87 1591.42 445.62 1594.05 447.03C1600.03 450.23 1601.83 460.95 1597.75 469.02C1593.72 476.98 1583.6 481.55 1575.6 479.01ZM187.63 460.97C182.93 459.56 177.21 455.03 173.98 450.16C167.19 439.9 163.74 419.61 165.75 401.64C167.68 384.42 173.5 373.51 183.84 367.7C188.3 365.2 190.27 364.71 195.84 364.73C205.45 364.75 210.1 366.34 215.04 371.26C219.15 375.35 225 385.82 225 389.1C225 391.19 222.16 393.68 218.82 394.51C216.36 395.13 216.04 394.85 214.93 391.17C214.27 388.97 211.71 384.59 209.25 381.45L204.76 375.73L197.91 376.3C185.46 377.35 181.88 380.4 177.75 393.5C174.51 403.78 174.56 422.49 177.85 433C181.98 446.14 191.28 453.03 200.97 450.13C206.22 448.55 212.29 441.64 215.03 434.13C217.43 427.56 218.19 427.12 223.85 429.1C227.35 430.32 227.36 430.61 223.89 440.77C220.53 450.63 212.95 458.72 204.92 461.02C200.84 462.19 191.62 462.16 187.63 460.97ZM43 413.57C43 367.37 43.05 366.12 44.96 365.51C46.03 365.17 48.44 365.18 50.31 365.53L53.7 366.17L54.35 377.33C54.7 383.48 54.99 392.22 55 396.77L55 405.04L75.25 404.77L95.5 404.5L96.06 385.5C96.36 375.05 96.7 366.39 96.81 366.25C96.91 366.11 99.24 366 101.98 366C106.32 366 107.03 366.29 107.51 368.25C107.81 369.49 107.93 390.75 107.78 415.5L107.5 460.5L102 460.5L96.5 460.5L96.23 438.75L95.96 417L75.48 417L55 417L55 437.8C55 452.64 54.66 458.94 53.8 459.8C53.14 460.46 50.44 461 47.8 461L43 461L43 413.57ZM1630.75 459.63C1618.32 455 1610.79 440.77 1609.06 418.64C1606.49 385.81 1619.59 363 1641 363C1650.6 363 1661.02 370.2 1665.84 380.17C1669.33 387.39 1669.17 390.15 1665.14 392.17C1660.84 394.33 1659.55 393.77 1658.16 389.15C1656.62 383.99 1650.71 377.39 1646.36 375.95C1642.18 374.58 1635.31 375.27 1630.98 377.51C1627.22 379.46 1623.53 384.98 1621.28 392.03C1618.5 400.73 1618.78 423.22 1621.78 432.77C1625.69 445.2 1634.17 451.66 1643.8 449.54C1650.16 448.15 1657.56 439.02 1659.46 430.25C1660.23 426.66 1661.61 426.27 1666.96 428.14C1670 429.2 1670.18 429.51 1669.64 432.86C1668.87 437.56 1663.91 447.51 1659.95 452.28C1658.22 454.36 1654.94 457.02 1652.65 458.19C1647.39 460.88 1636.1 461.63 1630.75 459.63ZM1487.67 459.33C1487.3 458.97 1487 437.34 1487 411.28L1487 363.9L1492.25 364.2L1497.5 364.5L1497.77 384.25L1498.04 404L1517.96 404C1529.06 404 1538.13 403.59 1538.45 403.08C1538.77 402.57 1539.31 393.79 1539.67 383.58L1540.32 365L1545.67 365L1551.02 365L1550.76 412.25L1550.5 459.5L1545.6 459.81C1542.35 460.02 1540.41 459.68 1539.86 458.81C1539.4 458.09 1539.02 448.16 1539.02 436.75L1539 416L1518.5 416L1498 416L1498 436.8C1498 451.64 1497.66 457.94 1496.8 458.8C1495.53 460.07 1488.8 460.46 1487.67 459.33ZM475 410.74C461.99 402.95 366.28 347.02 356.76 341.64C350.3 337.99 344.52 335 343.91 335C343.3 335 334.63 340.55 324.65 347.33C306.81 359.46 301.94 362.79 279.03 378.5C254.5 395.32 244.9 401.02 242.88 399.94C241.85 399.38 241 397.86 241 396.56C241 394.12 242.76 392.73 270.5 373.3C282.89 364.62 306.45 348.41 323 337.17C329.88 332.51 336.51 327.78 337.75 326.67L340 324.65L340 244.39L340 164.13L359.51 152.58C370.24 146.23 387.9 135.78 398.76 129.37C409.62 122.96 431.63 109.9 447.68 100.35C470.66 86.69 477.61 83 480.39 83C482.99 83 487 84.87 495.7 90.14C508.38 97.8 588.78 145.11 595.65 148.94L599.81 151.26L619.65 137.77C630.57 130.36 652.51 115.45 668.4 104.64C684.56 93.66 698.29 85 699.53 85C702.24 85 704.25 87.19 703.45 89.28C702.43 91.93 696.21 96.47 643.5 133.02C615.43 152.48 611 155.77 611 157.1C611 157.61 613.5 159.63 616.56 161.58L622.13 165.14L621.45 170.57C621.07 173.56 621.06 176 621.42 176C622.24 176 633.86 168.21 664.5 147.13C698.31 123.87 712.91 114.16 715.16 113.45C717.68 112.65 720.18 114.77 719.8 117.38C719.38 120.25 711.08 126.41 662.96 159.52L621 188.39L621 259.57C621 319.2 620.77 330.94 619.61 331.91C618.84 332.55 605.45 340.52 589.86 349.63C559.43 367.4 534.32 382.23 502.62 401.14C491.68 407.66 481.78 412.96 480.62 412.92C479.45 412.87 476.93 411.89 475 410.74ZM1874 385.42C1816.19 351.31 1787.77 335 1786.14 335C1784.93 335 1775.39 341.35 1739 366.4C1710.19 386.23 1687.67 401 1686.27 401C1684.64 401 1682.55 396.62 1683.27 394.73C1683.72 393.57 1712.95 373.07 1773.25 331.61L1782 325.6L1782 244.91L1782 164.23L1799.75 153.73C1809.51 147.95 1834.83 132.99 1856 120.48C1877.17 107.96 1899.95 94.41 1906.6 90.36C1914 85.86 1919.79 83 1921.49 83C1925.14 83 1957.29 101.28 2038.8 149.71C2050.57 156.71 2058.7 160.95 2059.65 160.58C2060.5 160.26 2066.21 156.5 2072.35 152.25C2118.41 120.27 2154.27 96.4 2157.43 95.61C2159.46 95.1 2160.77 95.34 2161.86 96.43C2163.25 97.83 2162.92 98.44 2158.43 102.74C2155.7 105.36 2146.04 112.64 2136.98 118.92C2127.92 125.2 2116.68 132.99 2112 136.24C2107.32 139.49 2094.72 148.19 2084 155.57L2064.5 168.99L2064 249.34C2063.6 312.83 2063.23 330.02 2062.21 331.25C2061.5 332.1 2056.33 335.49 2050.71 338.78C2045.1 342.08 2023.85 354.56 2003.5 366.53C1960.12 392.04 1935.34 406.57 1928.82 410.31C1926.25 411.79 1923.32 412.97 1922.32 412.93C1921.32 412.89 1899.58 400.51 1874 385.42ZM498.5 392.26C526.29 376.19 537.93 369.42 546.95 364.06C552.2 360.94 568.99 351.03 584.25 342.04L612 325.69L611.99 247.6L611.98 169.5L608.24 167.44C606.18 166.31 591.67 157.8 576 148.54C519.05 114.87 485.16 95.03 482.69 93.9C479.62 92.5 477.45 93.71 385.5 148.03C368.45 158.1 353.27 167.05 351.76 167.92L349.01 169.5L349.01 247.69L349 325.87L359.75 332.28C379.18 343.86 403.97 358.44 440 379.5C459.52 390.92 476.4 400.82 477.5 401.51C479.85 402.98 480.3 402.78 498.5 392.26ZM1939.5 393.17C1955.03 384.16 1994.18 361.19 2028 341.24C2041.47 333.3 2053.04 326.28 2053.71 325.65C2054.64 324.76 2054.78 306.92 2054.3 246.87L2053.68 169.25L2020.09 149.48C2001.62 138.61 1972.46 121.45 1955.31 111.36C1938.16 101.26 1923.47 93 1922.68 93C1920.95 93 1912.07 98.12 1848 136.05C1820.78 152.17 1796.82 166.29 1794.76 167.43L1791.02 169.5L1791.01 247.65L1791 325.8L1840.25 354.81C1924.51 404.44 1922.03 403.05 1924.4 401.81C1925.56 401.2 1932.35 397.32 1939.5 393.17ZM1393.2 289.8C1389.97 286.57 1391.86 283.8 1412.86 260.99L1420.21 253L1241.86 252.89C1041.42 252.77 1004.44 252.32 1002.98 250C1001.8 248.14 1001.8 247.86 1002.98 246C1003.81 244.68 1028.43 244.43 1210.97 243.94C1370.34 243.51 1418.3 243.1 1419.22 242.18C1420.16 241.24 1418.87 239.38 1413.39 233.74C1396.66 216.51 1392 210.88 1392 207.9C1392 203.44 1394.91 204.2 1402.43 210.62C1410.57 217.58 1437 245.86 1437 247.62C1437 250.11 1397.72 291 1395.33 291C1394.82 291 1393.86 290.46 1393.2 289.8ZM883.35 142.46C882.07 139.13 886.22 132.07 895.16 122.36C911.83 104.24 914.02 100.81 912.1 95.76C910.4 91.29 907.06 89 902.27 89C897.47 89 893 92.28 893 95.8C893 96.84 892.14 98.47 891.08 99.42C889.55 100.81 888.75 100.93 887.08 100.04C882.85 97.78 885.73 88.53 892 84.25C894.6 82.48 896.69 82 901.9 82C913.79 82 920 87.44 920 97.83C920 105.78 917.55 109.92 905.52 122.39C899.73 128.38 895 133.63 895 134.05C895 134.74 903.01 135.58 916 136.26C919.85 136.47 920.55 136.83 920.83 138.81C921.51 143.62 920.08 144 901.35 144C886.6 144 883.85 143.76 883.35 142.46ZM2201.2 139.17C2194.22 136.67 2189.23 132.54 2185.22 125.92C2176.18 111 2173.98 86.92 2179.92 68C2184.94 52.02 2196.52 43 2212 43C2224.54 43 2233.86 48.63 2239.82 59.82C2243.99 67.64 2243.94 69.71 2239.53 71.55C2237.62 72.35 2235.47 73 2234.74 73C2234.01 73 2232.18 70.31 2230.67 67.02C2226.69 58.35 2222.7 55.62 2213.32 55.15C2204.31 54.7 2201.16 55.88 2196.13 61.59C2191.16 67.24 2188.96 74.24 2188.28 86.57C2186.85 112.77 2195.75 129 2211.57 129C2214.11 129 2217.74 128.27 2219.63 127.37C2224.61 125.01 2230.34 117.97 2232.53 111.54C2234.38 106.1 2234.53 105.96 2237.47 106.57C2239.14 106.91 2241.48 107.82 2242.68 108.57C2244.63 109.81 2244.75 110.33 2243.81 113.72C2242.23 119.49 2238.32 126.64 2234.38 131.01C2226.6 139.61 2212.3 143.13 2201.2 139.17ZM2358.85 139.09C2341.64 132.36 2332.59 115.89 2332.69 91.5C2332.82 60.03 2347.56 41.65 2371.42 43.23C2381.05 43.86 2387.91 46.99 2393.61 53.33C2402.67 63.41 2406.26 74.18 2406.32 91.42C2406.38 108.57 2402.96 119.11 2394.08 129.19C2389 134.94 2384.55 137.77 2377.72 139.59C2370.72 141.45 2364.47 141.29 2358.85 139.09ZM2259.25 139.34C2258.27 138.94 2258 128.41 2258 91.42L2258 44L2262.86 44L2267.73 44L2268.36 48.64C2268.71 51.19 2269 59.98 2269 68.16L2269 83.04L2288.25 82.77L2307.5 82.5L2307.77 63.2L2308.04 43.9L2313.27 44.2L2318.5 44.5L2318.76 90.89C2318.95 124.3 2318.7 137.65 2317.89 138.64C2316.49 140.32 2310.83 140.43 2309.2 138.8C2308.34 137.94 2308 131.64 2308 116.8L2308 96L2288.5 96L2269 96L2269 117.02L2269 138.05L2266.43 139.02C2263.71 140.06 2261.3 140.16 2259.25 139.34ZM2377.39 127.61C2381.95 125.7 2388.57 118.57 2391.69 112.19C2394.1 107.27 2394.29 105.91 2394.29 93.19C2394.29 77.52 2392.85 70.89 2387.99 64.3C2383.13 57.7 2379.02 55.68 2369.58 55.26C2362.56 54.95 2360.98 55.21 2357.5 57.22C2348.08 62.69 2343.5 75.78 2344.18 95.28C2344.52 104.93 2344.96 107.36 2347.37 112.63C2350.29 119.03 2355.4 124.8 2360.5 127.43C2364.23 129.37 2372.97 129.46 2377.39 127.61ZM758.99 125.07C747.5 121.57 738.86 110.27 735.48 94.33C733.64 85.64 733.62 67.46 735.44 58.88C739.49 39.77 751.32 28.6 767.5 28.6C781.3 28.6 789.24 33.23 795.33 44.81C797.35 48.65 799 52.46 799 53.27C799 55.41 796.69 57.01 792.67 57.67C789.25 58.22 789.1 58.11 787.02 53.26C785.84 50.52 783.1 46.55 780.92 44.42C777.24 40.83 776.49 40.54 770.11 40.18C761.9 39.71 757.72 41.35 752.56 47.06C747.15 53.06 745.55 59.85 745.52 77C745.49 96.83 748.11 104.44 757.21 111.04C763.23 115.4 768.76 115.84 775.58 112.51C781.91 109.41 786.02 104.46 788.52 96.93C790.3 91.59 791.27 91.15 796.96 93.13C800.08 94.22 800.19 94.43 799.56 98.32C797.93 108.56 787.6 121.25 778.32 124.41C773.48 126.06 763.38 126.4 758.99 125.07ZM812.32 123.4C811.58 121.45 812.77 31.19 813.56 29.91C813.87 29.41 816.06 29 818.44 29C823.98 29 823.97 28.95 823.99 50.77L824 68.04L842.75 67.77L861.5 67.5L862.37 48.2L863.24 28.9L867.87 29.2L872.5 29.5L872.76 75.89C872.95 109.3 872.7 122.65 871.89 123.64C871.26 124.39 869.01 125 866.88 125L863 125L863 103L863 81L843.5 81L824 81L824 100.43C824 111.12 823.56 121.02 823.02 122.43C822.17 124.67 821.46 125 817.49 125C814.24 125 812.76 124.54 812.32 123.4Z" fill="#1e2749" fill-rule="evenodd"/>
</svg>
