<?xml version="1.0" encoding="UTF-8"?>
<svg xmlns="http://www.w3.org/2000/svg" viewBox="0 0 604 511" width="604" height="511" shape-rendering="geometricPrecision">
<path d="M448.33 463.73C448.33 463.39 452.51 458.98 458.11 453.4C463.49 448.05 467.82 443.6 467.73 443.5C467.63 443.41 466.35 443.33 464.87 443.33L462.19 443.33L452.17 453.33L442.15 463.33L440.07 463.33C438.68 463.33 437.92 463.19 437.82 462.91C437.72 462.67 441.7 458.45 446.98 453.18C452.1 448.07 456.22 443.76 456.13 443.61C456.04 443.46 454.81 443.33 453.39 443.33L450.83 443.33L440.83 453.33L430.84 463.33L428.59 463.33C426.64 463.33 426.33 463.25 426.33 462.73C426.33 462.39 430.3 458.19 435.62 452.9C440.72 447.83 444.82 443.6 444.73 443.5C444.63 443.41 443.27 443.33 441.69 443.33L438.83 443.33L428.83 453.33L418.84 463.33L416.59 463.33C414.64 463.33 414.33 463.25 414.33 462.73C414.33 462.39 418.3 458.19 423.62 452.9C428.72 447.83 432.82 443.6 432.73 443.5C432.63 443.41 431.35 443.33 429.87 443.33L427.19 443.33L417.17 453.33L407.15 463.33L405.07 463.33C403.68 463.33 402.92 463.19 402.82 462.91C402.72 462.67 406.7 458.45 411.98 453.18C417.1 448.07 421.22 443.76 421.13 443.61C421.04 443.46 419.81 443.33 418.39 443.33L415.83 443.33L406.83 452.33L397.84 461.33L395.59 461.33C393.63 461.33 393.33 461.25 393.33 460.73C393.33 460.38 396.87 456.61 401.62 451.9C406.17 447.38 409.82 443.6 409.73 443.51C409.63 443.41 408.35 443.33 406.88 443.33L404.19 443.33L395.17 452.33L386.15 461.33L384.06 461.33C382.69 461.33 381.92 461.19 381.82 460.91C381.73 460.67 386.23 455.92 392.17 449.99L402.68 439.5L408.49 439.5C414.75 439.5 415.56 439.31 414.74 438C414.04 436.88 414.23 432.85 415.05 431.24C415.44 430.46 415.71 429.79 415.63 429.73C415.56 429.68 411.5 429.6 406.62 429.57C398.41 429.51 397.68 429.45 397.03 428.87C396.65 428.52 396.34 427.92 396.34 427.53C396.34 427.15 403.92 411.69 413.18 393.18C422.44 374.67 429.94 359.33 429.85 359.1C429.76 358.86 429.41 358.67 429.06 358.67C428.28 358.67 425.53 357.22 424.24 356.14C422.42 354.6 421.06 352.67 420.17 350.34C419.51 348.62 419.08 347.95 418.55 347.83C418.16 347.73 391.27 347.62 358.8 347.58L299.77 347.5L299.03 349.83C297.68 354.15 294.7 357.34 290.79 358.66C289.01 359.26 288.09 359.35 285.25 359.25C280.37 359.06 277.55 357.78 275.3 354.73C274.36 353.45 273 349.86 273 348.66C273 347.62 272.13 347.23 270.25 347.44C269.29 347.54 242.43 347.64 210.57 347.65C155.64 347.66 152.64 347.69 152.46 348.25C150.73 353.61 147.54 357.12 143.08 358.56C141.9 358.94 141.33 359.3 141.33 359.67C141.33 360.29 174.34 426.51 175.56 428.33C175.98 428.97 176.33 429.71 176.33 429.99C176.33 430.27 172.1 434.73 166.92 439.91L157.5 449.33L155.25 449.33C153.33 449.33 153 449.25 153 448.75C153 448.43 156.55 444.61 160.9 440.27C167.2 433.96 168.68 432.32 168.21 432.14C167.89 432.01 166.57 431.99 165.27 432.08L162.92 432.25L154.38 440.79L145.83 449.33L143.58 449.33C141.96 449.33 141.33 449.21 141.33 448.9C141.33 448.66 144.93 444.89 149.32 440.51C153.71 436.13 157.21 432.41 157.11 432.24C157 432.06 155.75 431.99 154.26 432.07L151.61 432.23L143.05 440.78L134.5 449.33L132.25 449.33C130.33 449.33 130 449.25 130 448.75C130 448.43 133.55 444.61 137.9 440.27C144.19 433.97 145.68 432.32 145.21 432.14C144.89 432.02 143.5 431.99 142.12 432.08L139.6 432.24L131.05 440.79L122.5 449.33L120.25 449.33C118.33 449.33 118 449.25 118 448.75C118 448.43 121.55 444.61 125.9 440.27C132.2 433.96 133.68 432.32 133.21 432.14C132.89 432.01 131.57 431.99 130.27 432.08L127.92 432.25L119.38 440.79L110.83 449.33L108.58 449.33C106.96 449.33 106.33 449.21 106.33 448.9C106.33 448.66 109.93 444.89 114.32 440.51C118.71 436.13 122.21 432.41 122.11 432.24C122 432.06 120.75 431.99 119.26 432.07L116.61 432.23L108.05 440.78L99.5 449.33L97.25 449.33C95.33 449.33 95 449.25 95 448.75C95 448.43 98.55 444.61 102.9 440.27C109.2 433.96 110.68 432.32 110.21 432.14C109.89 432.01 108.57 431.99 107.27 432.08L104.92 432.25L96.38 440.79L87.83 449.33L85.58 449.33C83.97 449.33 83.33 449.21 83.33 448.9C83.33 448.67 87.61 444.2 92.84 438.99L102.35 429.5L119.84 394.54C129.45 375.32 137.25 359.47 137.17 359.34C137.09 359.2 136.3 358.9 135.43 358.66C132.07 357.75 128.63 354.75 127.05 351.37C126.24 349.66 126.17 349.15 126.19 345.5C126.21 341.81 126.28 341.35 127.14 339.58C128.27 337.27 130.79 334.87 133.44 333.57L135.33 332.65L135.33 253.72L135.33 174.79L133.35 173.51C129.82 171.22 128.19 167.92 127.8 162.22C127.03 151.15 131.8 145.31 141.57 145.34C145.89 145.36 148.56 146.26 151.02 148.54L151.87 149.33L212.02 149.42L272.17 149.5L272.28 150.27C272.36 150.89 272.47 150.96 272.86 150.65C273.12 150.43 273.33 149.97 273.33 149.61C273.33 148.55 274.97 145.67 276.52 144.02C277.32 143.16 278.8 142.04 279.81 141.53C282.26 140.29 282.52 139.94 281.87 138.77C280.78 136.81 278.28 131.16 278.1 130.25C277.91 129.3 277.92 129.29 279.37 129.4C280.66 129.49 280.9 129.64 281.41 130.65C281.72 131.28 282.13 132.23 282.32 132.76C282.5 133.29 282.8 133.62 282.99 133.51C283.22 133.36 283.34 123.41 283.34 103.23C283.34 86.7 283.47 72.97 283.62 72.73C283.8 72.44 284.45 72.33 285.53 72.4L287.17 72.5L287.33 102.83C287.45 123.22 287.61 133 287.83 132.67C288.02 132.4 288.41 131.57 288.71 130.84C289.22 129.58 289.34 129.49 290.79 129.4C291.7 129.34 292.33 129.44 292.33 129.64C292.33 129.83 291.83 131.08 291.21 132.41C287.89 139.59 287.8 139.99 289.5 140.35C292.7 141.03 296.88 144.42 298.3 147.49C300 151.15 299.96 155.49 298.18 159.03C297.72 159.96 297.33 161.02 297.33 161.39C297.33 162 313.05 181.73 390.83 278.78C404.03 295.25 416.33 310.61 418.17 312.92C420 315.22 424.2 320.49 427.51 324.63L433.52 332.16L435.87 332.83C438.86 333.68 440.9 334.91 442.67 336.91C444.46 338.94 445.11 340.26 445.84 343.25C446.4 345.55 446.4 345.78 445.84 348.08C445.52 349.41 444.96 351.08 444.6 351.78C443.21 354.54 439.21 357.94 436.75 358.48C435.92 358.66 435.67 358.89 435.67 359.47C435.67 359.88 443.23 375.36 452.48 393.86C467.6 424.1 469.26 427.57 468.87 428.17C467.98 429.52 467.14 429.66 459.75 429.66C455.85 429.66 452.67 429.74 452.67 429.84C452.67 429.94 453.06 430.61 453.55 431.34C454.29 432.46 454.42 433.03 454.41 434.96C454.4 436.21 454.21 437.54 453.98 437.91C453.75 438.28 453.65 438.81 453.76 439.1C453.94 439.56 455.13 439.62 463.86 439.55C473.07 439.48 473.81 439.52 474.54 440.09C474.98 440.44 475.33 440.97 475.33 441.28C475.33 441.58 470.27 446.9 464.08 453.09L452.83 464.33L450.58 464.33C448.64 464.33 448.33 464.25 448.33 463.73ZM440.06 439.07C440.2 438.94 440.1 438.23 439.84 437.5C438.99 435.11 439.31 432.64 440.74 430.58C441.09 430.08 441.22 429.66 441.02 429.65C438.34 429.54 427.57 429.66 427.42 429.8C427.31 429.91 427.47 430.26 427.77 430.59C429.28 432.27 429.76 435.5 428.79 437.54C428.34 438.5 428.32 438.75 428.71 439.22C429.11 439.7 429.79 439.74 434.49 439.54C437.41 439.42 439.92 439.21 440.06 439.07ZM424.52 437.24C426.34 435.08 424.99 431.83 422.12 431.44C419.51 431.09 417.62 433.15 418.18 435.75C418.84 438.89 422.43 439.73 424.52 437.24ZM449.75 437.28C451.14 435.62 450.82 433.3 449.02 432.09C447.72 431.21 446.37 431.13 444.99 431.84C443.74 432.49 443.33 433.28 443.34 435.06C443.35 436.77 444.04 437.78 445.66 438.46C446.68 438.88 446.98 438.88 448 438.46C448.64 438.2 449.43 437.67 449.75 437.28ZM169.89 426.97C170.15 426.72 165.92 417.94 155.04 396.15C142.37 370.76 139.72 365.69 139.17 365.7C138.62 365.72 135.77 371.2 123.4 396.07C115.09 412.75 108.37 426.62 108.47 426.87C108.62 427.26 113.45 427.33 139.09 427.33C160.42 427.33 169.64 427.23 169.89 426.97ZM463.52 425.24C463.71 424.75 433.1 363.33 432.67 363.33C432.22 363.33 401.57 424.9 401.82 425.3C402.17 425.88 463.3 425.81 463.52 425.24ZM280.68 391.69C280.27 390.92 280.2 370.39 280.61 369.74C280.82 369.42 282.33 369.34 287.02 369.41L293.17 369.5L293.27 370.36C293.32 370.84 293.16 371.39 292.91 371.6C292.64 371.83 290.73 372.02 288.15 372.07L283.83 372.17L283.74 375.14C283.67 377.29 283.76 378.19 284.07 378.38C284.31 378.53 286.12 378.66 288.09 378.66C291.58 378.67 291.69 378.69 292.06 379.49C292.76 381.05 292.07 381.33 287.63 381.33L283.67 381.33L283.67 385.3C283.67 388.61 283.75 389.3 284.19 389.46C284.48 389.58 286.57 389.67 288.82 389.67C293.42 389.67 294.1 389.94 293.39 391.51L293.01 392.33L287.02 392.33C281.43 392.33 281 392.29 280.68 391.69ZM288.5 355.48C291.09 354.73 292.67 353.43 294.01 350.97C295.16 348.84 295.17 348.82 295.16 344.5C295.16 339.23 294.63 337.38 292.53 335.22C291.28 333.93 290.81 333.69 288.47 333.17C286.22 332.67 285.59 332.64 284.17 333C280.68 333.86 279.08 335.2 277.89 338.26C277.08 340.33 277.1 347.88 277.93 350.18C279.03 353.25 280.52 354.74 283.28 355.49C285.43 356.08 286.45 356.08 288.5 355.48ZM142.13 354.75C144.15 354.03 146.3 352.17 147.55 350.08C148.38 348.68 148.49 348.18 148.49 345.67C148.49 343.15 148.38 342.66 147.54 341.24C145.04 337.03 140.1 335.29 135.61 337.02C132.79 338.11 131.04 339.98 130.17 342.87C129.53 344.96 129.54 346.29 130.19 348.54C131.7 353.71 137.13 356.54 142.13 354.75ZM436.61 354.31C439.09 353.07 440.69 351.28 441.68 348.63C443.88 342.76 439.07 336.33 432.48 336.33C428.98 336.33 425.72 338.35 424.21 341.43C423.5 342.89 423.33 343.71 423.34 345.7C423.34 348.78 424.29 351 426.37 352.81C429.5 355.53 433.11 356.06 436.61 354.31ZM455.68 353.69C455.48 353.32 455.33 350.76 455.33 347.75C455.33 342.48 455.33 342.44 454.32 340.58C453.35 338.79 453.31 338.58 453.41 335.11L453.5 331.5L454.56 331.4C455.14 331.34 455.8 331.08 456.02 330.81C456.46 330.27 458.03 330.17 458.52 330.64C458.69 330.82 460.26 331 462 331.06L465.17 331.17L465.27 330.25C465.34 329.69 465.58 329.33 465.9 329.33C466.32 329.33 466.38 329.59 466.21 330.62C466.03 331.74 466.1 331.94 466.8 332.26C467.24 332.46 468.02 333.17 468.53 333.84C469.82 335.54 469.84 337.7 468.58 339.6C468.08 340.36 467.67 341.14 467.67 341.33C467.67 341.51 468.26 342.26 468.98 342.98C470.71 344.71 471.24 346.45 470.72 348.7C470.2 350.97 469 352.43 466.81 353.47C465.12 354.27 464.63 354.33 460.5 354.33C456.42 354.33 455.99 354.28 455.68 353.69ZM464.31 351.34C464.94 351.16 465.87 350.61 466.39 350.11C467.19 349.34 467.33 348.95 467.33 347.44C467.33 344.64 466.83 344.33 462.33 344.33L458.67 344.33L458.67 347.81C458.67 350.27 458.79 351.33 459.08 351.45C459.82 351.74 463.14 351.68 464.31 351.34ZM272.05 343.92C272.38 343.65 272.7 342.44 272.93 340.6C273.31 337.59 274.06 335.72 275.71 333.62C276.78 332.26 279.34 330.53 280.78 330.19C281.31 330.07 282.1 329.73 282.53 329.45L283.33 328.92L283.33 247.8L283.33 166.67L281.12 165.67C279.9 165.12 278.65 164.67 278.34 164.67C278.01 164.67 276.49 166.27 274.77 168.42C273.12 170.48 267.43 177.57 262.12 184.17C256.82 190.77 246.64 203.44 239.51 212.33C232.37 221.22 223.52 232.25 219.83 236.83C216.14 241.42 208.79 250.57 203.5 257.17C198.2 263.77 189.05 275.17 183.16 282.5C172.64 295.61 169.67 299.33 161.29 309.87C154.76 318.08 149.47 324.61 145.08 329.88C144.12 331.03 143.33 332.2 143.33 332.47C143.33 332.73 143.97 333.27 144.75 333.66C148.99 335.79 150.53 337.64 152.7 343.25L152.99 344.01L211.21 344C243.23 343.99 269.51 344.06 269.6 344.16C269.93 344.49 271.54 344.33 272.05 343.92ZM418.98 343.35C419.34 342.99 419.8 342.06 420.02 341.27C420.68 338.82 422.56 336.39 425.04 334.78C426.27 333.99 427.52 333.33 427.82 333.33C429.16 333.33 428.48 332.12 424.16 326.79C421.66 323.7 418.02 319.16 416.06 316.7C414.1 314.24 390.77 285.07 364.2 251.87C337.64 218.66 311.09 185.47 305.2 178.1C299.32 170.73 294.32 164.63 294.1 164.53C293.88 164.44 292.83 164.79 291.77 165.31C290.7 165.84 289.25 166.36 288.54 166.49L287.25 166.71L287.38 247.77C287.46 301.28 287.61 328.92 287.83 329.08C288.02 329.21 288.62 329.33 289.17 329.33C290.55 329.34 293.49 330.45 294.84 331.48C297.79 333.74 299.63 337.32 299.78 341.12C299.82 342.25 299.97 343.36 300.12 343.58C300.32 343.91 312.58 344 359.35 344C417.36 344 418.34 343.99 418.98 343.35ZM103.12 342.83C102.87 342.17 103.09 341.31 104.89 336.17C109 324.39 108.64 325.01 111.33 325.01C113.57 325.01 113.95 325.47 115.48 330C116.25 332.29 117.27 335.14 117.74 336.33C120.39 343.02 120.39 343.33 117.84 343.33C116.23 343.33 115.53 342.74 115.17 341.06C114.87 339.62 114.17 339.4 110.55 339.64L107.6 339.83L107.17 341.09C106.94 341.78 106.56 342.56 106.33 342.84C105.78 343.5 103.38 343.5 103.12 342.83ZM463.33 340.46C465.88 339.44 466.77 336.92 465.18 335.22C464.42 334.39 464.17 334.33 461.52 334.33L458.67 334.33L458.67 336.95C458.67 339.02 458.79 339.67 459.25 340.07C460.45 341.11 461.46 341.21 463.33 340.46ZM113.18 335.06C112.15 331.92 111.44 330.2 111.13 330.1C110.8 329.99 109 334.62 109 335.57C109 336.04 111.89 336.29 112.77 335.9C113.14 335.73 113.29 335.41 113.18 335.06ZM144.73 324.09C149.07 318.61 152.77 313.99 165.98 297.61C180.71 279.34 189.33 268.62 212.83 239.33C217.76 233.19 225.11 224.04 229.17 219C233.22 213.96 239.67 205.93 243.5 201.17C251.18 191.62 274.6 162.39 275.06 161.79C275.23 161.57 274.93 160.59 274.29 159.3C273.43 157.56 273.21 156.66 273.07 154.26C272.92 151.49 272.64 150.71 272.21 151.83C272.04 152.28 265.15 152.33 212.97 152.33L153.92 152.33L154.13 153.25C154.24 153.75 154.48 155.55 154.66 157.25C155.38 164.1 153.67 169.21 149.53 172.61C147.52 174.27 145.26 175.08 142 175.32L139.5 175.5L139.42 252.97C139.33 329.57 139.34 330.43 139.98 329.85C140.33 329.53 142.47 326.94 144.73 324.09ZM109.76 171.63C107.91 170.78 106.21 168.99 105.11 166.75C104.32 165.13 104.22 164.53 104.19 161.22C104.17 158.31 104.31 157.14 104.81 155.83C105.85 153.11 107.26 151.49 109.58 150.35C111.35 149.48 112.03 149.33 114.24 149.33C116.11 149.33 117.29 149.53 118.53 150.04C120.45 150.84 121.49 152.14 120.96 153.09C120.53 153.86 119.82 153.82 118.42 152.95C117.49 152.37 116.72 152.23 114.5 152.22C112.01 152.2 111.63 152.29 110.57 153.09C108.77 154.47 107.89 156.62 107.72 160.09C107.51 164.55 108.54 167.14 111.21 168.89C112.54 169.77 116.52 169.68 118.11 168.74C119.72 167.8 120.88 167.78 121.17 168.69C121.48 169.64 120.56 170.57 118.38 171.54C116.04 172.57 111.91 172.62 109.76 171.63ZM143.5 171.48C146.1 170.73 147.68 169.43 148.98 166.99C150.04 164.99 150.12 164.64 150.26 160.81C150.39 157.52 150.31 156.39 149.83 154.86C148.33 150.1 143.67 147.78 138.44 149.2C135.71 149.93 133.83 151.64 132.92 154.2C132.09 156.52 132.09 163.83 132.92 166.18C133.98 169.17 134.34 169.47 136.91 169.48C139.06 169.5 139.17 169.54 139.28 170.33C139.53 172.12 140.45 172.37 143.5 171.48ZM289.07 162.3C290.59 161.91 293.78 159.06 294.76 157.2C295.33 156.12 295.49 155.26 295.49 153.17C295.49 150.12 294.84 148.52 292.81 146.55C290.81 144.6 289.57 144.17 286 144.17C282.39 144.17 280.88 144.74 279.09 146.79C277.83 148.21 276.67 151.23 276.67 153.04C276.67 156.38 278.8 160.18 281.45 161.57C283.92 162.87 286.04 163.07 289.07 162.3ZM311.68 158.69C311.26 157.91 311.21 137.38 311.62 136.73C312.02 136.09 321.37 136.35 323.1 137.05C325.61 138.06 327.13 139.44 328.26 141.73C329.25 143.75 329.33 144.17 329.33 147.25C329.33 151.96 328.74 153.62 326.18 156.17C323.53 158.8 321.79 159.35 316.1 159.34C312.41 159.33 311.99 159.27 311.68 158.69ZM322.24 155.62C324.65 154.13 326.08 151.18 326.08 147.67C326.08 144.18 324.8 141.5 322.49 140.15C321.25 139.42 320.6 139.29 317.94 139.23L314.83 139.17L314.74 147.64C314.68 154.19 314.75 156.19 315.08 156.41C315.83 156.93 321.06 156.35 322.24 155.62ZM229.73 66.93C229.51 66.71 229.33 66.29 229.33 66C229.33 65.02 230.1 64.67 232.19 64.67C233.57 64.67 234.38 64.51 234.65 64.19C234.97 63.81 235.17 55.05 235.01 48.75C234.99 48.03 234.04 48.29 232.27 49.51C230.29 50.88 229.54 50.89 229.39 49.55C229.27 48.52 229.17 48.62 233.11 45.9C235.1 44.53 235.63 44.31 236.8 44.4L238.17 44.5L238.26 54.14C238.31 60.57 238.47 63.93 238.71 64.22C238.94 64.49 239.79 64.67 240.88 64.67C242.47 64.67 242.72 64.76 243.06 65.49C243.34 66.12 243.33 66.43 243.01 66.82C242.66 67.25 241.54 67.33 236.36 67.33C231.96 67.33 230.02 67.22 229.73 66.93ZM250.85 66.58C248.54 65.27 247.47 63.47 246.99 60.12C246.21 54.59 247.14 48.49 249.08 46.41C250.47 44.92 252.09 44.33 254.84 44.33C259.88 44.33 261.94 46.53 262.69 52.71C263.34 58.06 262.23 63.14 259.95 65.21C257.53 67.42 253.42 68.03 250.85 66.58ZM269.85 66.58C267.54 65.27 266.47 63.47 265.99 60.12C265.21 54.59 266.14 48.49 268.08 46.41C269.47 44.92 271.09 44.33 273.84 44.33C278.88 44.33 280.94 46.53 281.69 52.71C282.34 58.06 281.23 63.14 278.95 65.21C276.53 67.42 272.42 68.03 269.85 66.58ZM294.16 66.58C294.06 66.17 294.02 60.58 294.07 54.17L294.17 42.5L295.67 42.5L297.17 42.5L297.33 49.63L297.5 56.76L300.45 53.55L303.4 50.33L305.03 50.33C306.13 50.33 306.67 50.47 306.67 50.76C306.67 50.99 305.39 52.45 303.83 54C302.27 55.55 301 57.09 301 57.43C301 58.03 304.43 62.73 306.42 64.88C307.77 66.33 307.55 67.14 305.78 67.27C304.52 67.36 304.3 67.25 303.45 66.15C302.93 65.48 302.05 64.36 301.5 63.67C300.95 62.98 299.9 61.64 299.17 60.71C298.44 59.77 297.73 59 297.59 59C297.45 59 297.33 60.7 297.33 62.77C297.33 66.93 297.17 67.33 295.44 67.33C294.58 67.33 294.31 67.17 294.16 66.58ZM311.57 67.13C311.28 66.84 311.25 45.61 311.54 44.86C311.69 44.46 312.22 44.33 313.69 44.33C315.5 44.33 315.69 44.41 316.48 45.45C316.95 46.06 317.33 46.68 317.33 46.82C317.33 46.97 318.01 48.19 318.83 49.55C319.66 50.91 320.33 52.09 320.33 52.17C320.33 52.3 322.87 56.75 323.65 58C323.83 58.27 324.29 59.14 324.69 59.93C325.08 60.72 325.57 61.31 325.77 61.24C326.02 61.16 326.14 58.5 326.15 52.81L326.17 44.5L327.67 44.5L329.17 44.5L329.25 55.13C329.36 67.24 329.34 67.33 327.05 67.33C325.41 67.33 324.9 66.77 322.34 62.17C321.22 60.15 320.17 58.27 320 58C319.19 56.67 317.29 53.29 316.32 51.42C314.46 47.86 314.36 48.22 314.26 58.25L314.17 67.17L312.99 67.27C312.34 67.32 311.7 67.26 311.57 67.13ZM257 63.71C257.46 63.39 258.19 62.41 258.64 61.53C259.36 60.09 259.44 59.5 259.44 55.71C259.44 52.21 259.32 51.24 258.77 50C257.76 47.75 257.01 47.23 254.7 47.2C251.47 47.16 250.42 48.69 250.11 53.91C249.88 57.81 250.41 61.71 251.36 63.04C252.52 64.67 255.16 64.98 257 63.71ZM276 63.71C276.46 63.39 277.19 62.41 277.64 61.53C278.36 60.09 278.44 59.5 278.44 55.71C278.44 52.21 278.32 51.24 277.77 50C276.76 47.75 276.01 47.23 273.7 47.2C270.47 47.16 269.42 48.69 269.11 53.91C268.88 57.81 269.41 61.71 270.36 63.04C271.52 64.67 274.16 64.98 276 63.71Z" fill="#1e2749" fill-rule="evenodd"/>
</svg>
