<?xml version="1.0" encoding="UTF-8"?>
<svg xmlns="http://www.w3.org/2000/svg" viewBox="0 0 428 292" width="428" height="292" shape-rendering="geometricPrecision">
<path d="M238.89 268.11C238.77 267.99 238.67 264.01 238.67 259.28L238.67 250.67L243.01 250.67C247.89 250.67 249.02 250.97 250.43 252.65C251.63 254.07 251.66 255.9 250.5 257.27C249.45 258.52 249.46 258.67 250.64 259.81C252.68 261.76 252.79 264.08 250.93 266.19C249.23 268.13 248.54 268.33 243.57 268.33C241.12 268.33 239.01 268.23 238.89 268.11ZM246.89 265.98C249.35 265.05 250.12 262.75 248.52 261.15C247.76 260.4 247.45 260.33 244.52 260.33L241.33 260.33L241.33 263.14C241.33 265.07 241.46 266 241.75 266.11C242.53 266.43 245.95 266.34 246.89 265.98ZM211.68 262.69C211.45 262.25 211.33 247.21 211.33 216.36C211.33 175.89 211.28 170.67 210.83 170.67C210.56 170.67 207.97 172.14 205.08 173.94C197.11 178.92 194.18 180.74 190.17 183.19C188.15 184.42 185.75 185.91 184.83 186.5C183.92 187.1 180.54 189.2 177.33 191.19C174.12 193.17 169.86 195.82 167.86 197.08C165.38 198.64 163.96 199.34 163.39 199.27L162.56 199.17L162.64 184.82C162.68 176.93 162.61 170.07 162.49 169.57L162.26 168.67L138.35 168.67L114.44 168.67L112.96 170.08C112.15 170.86 111.21 171.66 110.86 171.85C110.29 172.16 110.28 172.27 110.74 173.18C111.09 173.87 111.3 175.8 111.45 179.67C111.57 182.69 111.81 187.64 111.99 190.67C112.17 193.69 112.48 200.09 112.69 204.88C113.04 212.93 113.03 213.65 112.5 214.46C112.1 215.07 111.63 215.33 110.97 215.33C109.3 215.33 109.09 214.55 108.69 206.67C108.49 202.72 108.16 196.42 107.96 192.67C107.75 188.91 107.52 182.85 107.45 179.2L107.31 172.56L105.74 171.82C103.83 170.93 102.62 169.64 101.88 167.74C101.19 165.95 101.19 165.05 101.88 163.26C102.56 161.5 103.74 160.18 105.12 159.64C107.12 158.85 107.33 158.46 107.33 155.7C107.33 154.31 107.23 152.83 107.12 152.42L106.92 151.67L91.77 151.67C81.97 151.67 76.4 151.54 75.98 151.32C75.5 151.06 75.33 150.62 75.33 149.55C75.33 148.77 75.47 147.99 75.64 147.82C75.8 147.64 77.17 145.25 78.67 142.5C80.18 139.75 81.79 136.82 82.25 136C82.71 135.17 83.52 133.71 84.04 132.75C84.57 131.79 85.43 130.21 85.96 129.25C87.37 126.67 94.26 114.1 95.32 112.17C95.83 111.25 96.73 109.6 97.33 108.5C97.93 107.4 98.8 105.83 99.26 105C99.72 104.17 100.58 102.6 101.18 101.5C101.78 100.4 103.11 98 104.13 96.17L105.98 92.83L105.22 92.17C103.71 90.84 102.43 88.79 101.89 86.81C101.19 84.28 101.19 83.39 101.89 80.86C102.57 78.39 104 76.28 105.57 75.45C106.21 75.11 106.87 74.49 107.03 74.06C107.2 73.64 107.33 69.94 107.33 65.85C107.33 59.34 107.4 58.36 107.88 57.96C108.34 57.58 113.1 57.48 135.13 57.41C159.87 57.32 161.86 57.27 162.26 56.74C162.6 56.29 162.68 51.63 162.65 34.1C162.63 21.96 162.71 11.87 162.83 11.68C163.13 11.19 164.02 11.25 164.64 11.79C165.12 12.21 168.57 14.37 182.67 23.09C185.32 24.73 188.03 26.42 188.67 26.85C189.31 27.27 192.08 28.99 194.83 30.69C200.87 34.4 206.52 37.9 213 41.94C219.19 45.8 228.06 51.29 231.58 53.44L234.33 55.12L234.33 74.87C234.33 86.38 234.46 94.71 234.64 94.81C234.8 94.92 258.79 95.04 287.93 95.08C339.52 95.16 340.95 95.18 341.63 95.8C342.56 96.64 342.52 97.38 341.47 98.36L340.61 99.17L287.47 99.25L234.33 99.34L234.33 127.62L234.33 155.9L228.75 159.3C225.68 161.18 221.02 164.03 218.4 165.65L213.64 168.59L213.66 215.5C213.67 250.21 213.58 262.53 213.3 262.87C212.76 263.52 212.08 263.44 211.68 262.69ZM247.31 257.35C248.28 256.83 248.74 255.78 248.5 254.65C248.22 253.41 246.71 252.91 243.67 253.06L241.5 253.17L241.4 255.11C241.26 257.83 241.58 258.13 244.39 257.9C245.62 257.79 246.94 257.55 247.31 257.35ZM97.84 247.01C97.65 246.7 101.76 235.4 103.49 231.49L104.31 229.63L105.72 229.73L107.13 229.83L108.58 233.33C109.38 235.26 110.12 237.06 110.23 237.33C112.26 242.41 112.81 243.73 113.37 244.96C114.25 246.86 114.02 247.4 112.42 247.27C111.23 247.17 111.13 247.07 110.34 245.09C109.88 243.95 109.34 242.86 109.14 242.66C108.91 242.45 107.45 242.35 105.32 242.4L101.86 242.5L101.47 243.86C100.73 246.41 100.08 247.33 99.01 247.33C98.48 247.33 97.95 247.19 97.84 247.01ZM107.79 239C107.73 237.7 106.1 233.5 105.66 233.5C105.15 233.5 103.2 238.84 103.46 239.52C103.62 239.92 104.12 240.01 105.75 239.93C107.74 239.84 107.83 239.79 107.79 239ZM171.12 192.46C174.26 190.51 178.63 187.8 180.83 186.44C183.03 185.07 187.08 182.57 189.83 180.86C192.58 179.16 197.31 176.23 200.33 174.34C203.36 172.46 207.63 169.8 209.83 168.44C212.03 167.07 216.23 164.47 219.17 162.65C222.1 160.83 226.11 158.35 228.08 157.15C230.05 155.94 231.82 154.68 232 154.33C232.21 153.93 232.33 144 232.33 126.42C232.33 102.94 232.26 99.04 231.84 98.48C231.21 97.65 231.21 96.65 231.83 95.45C232.26 94.64 232.33 91.72 232.33 75.62C232.33 58.51 232.28 56.71 231.78 56.29C231.48 56.04 228.9 54.38 226.03 52.61C223.17 50.83 219.48 48.54 217.83 47.51C213.68 44.91 206.04 40.17 198.33 35.4C194.76 33.19 190.48 30.54 188.83 29.51C187.18 28.47 183.28 26.05 180.17 24.12C177.05 22.18 172.58 19.4 170.24 17.94C167.9 16.47 165.69 15.19 165.33 15.09C164.67 14.92 164.67 15.15 164.67 36.14C164.67 54.47 164.74 57.5 165.17 58.35C165.63 59.22 165.63 59.45 165.17 60.54C164.73 61.6 164.67 67.92 164.67 113.06C164.67 159.55 164.72 164.46 165.2 165.4C165.7 166.36 165.7 166.53 165.2 167.56C164.74 168.54 164.67 170.48 164.67 182.34C164.67 192.1 164.77 196 165.04 196C165.24 196 167.98 194.41 171.12 192.46ZM179.97 171.92C179.95 171.69 179.96 168.91 180 165.75C180.07 159.19 179.98 158.99 177.62 160.32C176.9 160.73 176.08 160.98 175.82 160.87C175.03 160.57 175.26 159.41 176.24 158.77C176.73 158.44 177.94 157.37 178.93 156.4C180.18 155.16 180.94 154.66 181.44 154.73C182.16 154.83 182.17 154.9 182.26 163.13C182.32 168.96 182.23 171.55 181.97 171.88C181.49 172.45 180.01 172.48 179.97 171.92ZM162.15 163.93C162.61 163.26 162.67 157.88 162.67 112.95C162.67 85.33 162.58 62.48 162.46 62.19C162.28 61.72 159.71 61.67 136.8 61.67L111.33 61.67L111.33 68.16L111.33 74.66L112.66 75.54C114.22 76.57 115.86 78.89 116.37 80.81C116.58 81.56 116.67 83.29 116.59 84.67C116.42 87.6 115.63 89.37 113.61 91.39L112.25 92.75L112.96 94.12C113.35 94.88 114.21 96.47 114.86 97.67C116.68 100.96 123.46 113.31 126.67 119.17C127.17 120.08 127.95 121.51 128.41 122.33C128.87 123.16 129.73 124.73 130.33 125.83C130.93 126.93 131.84 128.58 132.34 129.5C138.21 140.17 140.86 145 141.28 145.83C141.55 146.38 142.13 147.36 142.56 147.99C143.53 149.46 143.53 149.83 142.52 150.85L141.7 151.67L126.52 151.67L111.33 151.67L111.33 155.55L111.33 159.43L112.83 161.03C113.66 161.92 114.33 162.86 114.33 163.13C114.33 163.41 114.67 163.86 115.07 164.15C115.73 164.61 118.53 164.67 138.72 164.67L161.63 164.67L162.15 163.93ZM205.83 156.78C204.36 156 203.67 155.31 202.96 153.93C201.97 151.99 202.11 151.33 203.49 151.33C204.51 151.33 204.74 151.5 205.33 152.66C206.95 155.83 211.91 155.99 213.65 152.92C214.37 151.66 213.54 150.61 211.29 149.92C210.3 149.62 208.6 149.1 207.5 148.77C206.35 148.42 205 147.71 204.33 147.11C203.25 146.12 203.17 145.91 203.17 144.05C203.17 142.38 203.3 141.91 204 141.16C205.22 139.87 206.78 139.33 209.39 139.33C212.67 139.33 215.12 140.74 215.85 143.04C216.39 144.74 214.01 145.3 213.17 143.67C212.89 143.13 212.22 142.45 211.68 142.17C210.42 141.52 207.91 141.52 206.65 142.18C205.86 142.59 205.67 142.9 205.67 143.8C205.67 145.27 206.53 145.82 210.37 146.82C214.53 147.91 216.07 149.02 216.49 151.27C216.81 152.95 215.6 155.18 213.72 156.37C212.36 157.23 211.92 157.33 209.52 157.32C207.73 157.31 206.5 157.13 205.83 156.78ZM136.92 147.24C137.15 146.96 136.5 145.48 134.76 142.33C132.43 138.12 131.58 136.56 129.09 132C128.54 130.99 127.71 129.49 127.26 128.67C126.8 127.84 125.98 126.34 125.43 125.33C124.88 124.33 123.97 122.67 123.42 121.67C122.42 119.87 115.79 107.77 114 104.5C113.5 103.58 112.76 102.23 112.35 101.5C111.94 100.77 111.28 99.57 110.89 98.83C110.51 98.1 109.97 97.24 109.71 96.92C109.21 96.31 108.33 96.12 108.33 96.63C108.33 96.79 107.64 98.17 106.79 99.71C104.92 103.1 103.57 105.57 102.24 108C101.69 109.01 100.87 110.51 100.41 111.33C99.95 112.16 99.13 113.66 98.58 114.67C96.36 118.74 88.85 132.43 87.34 135.17C86.84 136.08 85.85 137.88 85.15 139.17C84.45 140.45 83.45 142.25 82.92 143.17C81.54 145.57 80.95 146.98 81.17 147.34C81.49 147.85 136.52 147.75 136.92 147.24ZM211.89 106.11C211.77 105.99 211.67 104.36 211.67 102.49L211.67 99.09L208.5 94.29C206.76 91.66 205.34 89.31 205.34 89.08C205.33 88.82 205.81 88.67 206.64 88.67C207.81 88.67 208.05 88.82 209.07 90.25C209.69 91.12 210.78 92.77 211.48 93.92C212.19 95.06 212.9 96 213.06 96C213.23 96 214.43 94.35 215.73 92.33C218.06 88.71 218.1 88.67 219.38 88.67C220.22 88.67 220.67 88.82 220.67 89.1C220.67 89.34 219.24 91.63 217.5 94.19L214.34 98.83L214.33 102.18C214.33 104.34 214.19 105.68 213.93 105.93C213.5 106.36 212.25 106.47 211.89 106.11ZM359.33 86.5L359.33 77.67L365.18 77.67C370.28 77.67 371.05 77.74 371.23 78.21C371.35 78.51 371.29 79 371.1 79.3C370.82 79.74 369.98 79.85 366.38 79.93L362 80.02L362 82.47C362 84.4 362.11 84.97 362.53 85.13C362.82 85.24 364.6 85.33 366.49 85.33C370.16 85.33 370.76 85.62 369.84 86.88C369.46 87.41 368.82 87.52 365.69 87.61L362 87.73L362 91.13C362 94.84 361.8 95.33 360.27 95.33L359.33 95.33L359.33 86.5ZM110.82 88.3C112.22 87.07 112.82 85.19 112.55 82.87C112.22 80.13 111.19 79.13 109.66 80.08C109.14 80.41 108.86 80.41 108.34 80.08C107.25 79.4 106.7 79.6 106.17 80.87C105.09 83.46 105.75 87.23 107.54 88.64C108.74 89.58 109.44 89.51 110.82 88.3ZM112.52 71.48C111.9 70.85 111.87 70.59 112.4 70.07C112.92 69.54 113.4 69.56 114.18 70.14C114.81 70.6 114.81 70.62 114.19 71.3C113.44 72.14 113.21 72.16 112.52 71.48ZM178.26 67.6C177.52 67.4 176.56 66.76 175.88 66C174.37 64.33 173.87 61.97 174.07 57.32C174.19 54.39 174.35 53.55 175.02 52.32C177.1 48.53 182.32 48.76 184.52 52.72C185.46 54.43 185.5 54.66 185.48 58.67C185.47 62.25 185.37 63.02 184.77 64.17C183.61 66.35 182.3 67.35 180 67.82C179.72 67.88 178.94 67.78 178.26 67.6ZM181.53 64.63C181.92 64.27 182.41 63.4 182.62 62.7C183.19 60.79 183.1 55.61 182.47 54.03C181.4 51.34 178.22 51.1 177.12 53.62C176.44 55.17 176.34 61.29 176.95 63.08C177.8 65.54 179.82 66.23 181.53 64.63Z" fill="#1e2749" fill-rule="evenodd"/>
</svg>
