<?xml version="1.0" encoding="UTF-8"?>
<svg xmlns="http://www.w3.org/2000/svg" viewBox="0 0 628 359" width="628" height="359" shape-rendering="geometricPrecision">
<path d="M357.34 332.34C356.96 331.64 356.81 231.24 357.18 230.64C357.51 230.1 359.25 230.29 359.48 230.89C359.59 231.19 359.68 244.1 359.67 259.56C359.66 283.15 359.73 287.71 360.12 287.86C360.37 287.96 362.43 287.43 364.7 286.68C372.46 284.14 372.26 284.19 372.82 284.65C373.11 284.9 373.26 285.38 373.16 285.79C372.75 287.52 372.13 287.47 393.06 287.48C411.21 287.5 412.54 287.46 413.09 286.91C413.49 286.51 413.61 286.06 413.47 285.5C413.32 284.9 413.42 284.61 413.82 284.46C414.13 284.34 416.97 285.1 420.2 286.17C424.75 287.68 426.12 288.01 426.43 287.7C426.73 287.41 426.83 284.79 426.83 278C426.83 269.82 426.9 268.63 427.38 268.15C428.17 267.35 429.26 267.82 429.63 269.1C429.79 269.69 429.86 273.87 429.79 278.39C429.69 284.12 429.75 286.68 430.01 286.84C430.21 286.96 430.78 286.92 431.27 286.75C431.76 286.57 432.99 286.18 434 285.89C443.4 283.11 443.09 283.13 443.33 285.33L443.5 286.83L449.5 287.05C453.45 287.2 455.64 287.15 455.92 286.93C456.15 286.74 456.33 286 456.33 285.29C456.33 284.48 456.49 284 456.75 284C457.12 284 460.06 285 464.17 286.53C467.56 287.79 468.43 288.04 468.86 287.87C469.25 287.72 469.33 286.03 469.33 278.08C469.33 271.05 469.44 268.36 469.73 268.07C470.31 267.49 471.15 267.57 471.78 268.27C472.25 268.79 472.33 270.08 472.41 277.85C472.49 285.61 472.57 286.82 473 286.77C473.27 286.74 474.29 286.48 475.25 286.19C478.36 285.26 480.3 284.68 482.08 284.13C483.05 283.84 484.21 283.57 484.67 283.55C485.42 283.5 485.51 283.64 485.6 284.92C485.67 285.83 485.9 286.43 486.27 286.62C487.06 287.03 497.46 287.31 498.12 286.94C498.48 286.74 498.67 286.19 498.67 285.32C498.67 283.42 498.24 283.35 507.28 286.68C510.06 287.71 511.16 287.98 511.43 287.7C511.69 287.44 511.83 280.95 511.91 265.42C512.02 241.51 511.97 242.09 513.82 242.93C514.36 243.18 514.67 243.59 514.67 244.08C514.67 244.49 514.7 258.93 514.74 276.17C514.8 305.92 514.77 307.55 514.19 308.42C513.86 308.92 513.39 309.33 513.14 309.33C512.89 309.33 512.47 308.92 512.22 308.42C511.84 307.68 511.78 305.99 511.92 299.62C512.11 290.97 512.01 290 510.96 290C510.34 290 505.19 291.56 501.43 292.89C500.65 293.16 499.68 293.33 499.26 293.27C498.63 293.18 498.49 292.95 498.47 291.88C498.45 291.18 498.22 290.47 497.97 290.31C497.71 290.15 495.16 290.02 492.3 290.02C489.45 290.02 486.84 289.92 486.52 289.8C485.78 289.51 485.35 290.16 485.34 291.56C485.33 293.3 485.14 293.3 480 291.33C477.44 290.36 473.25 289.01 472.75 289C472.43 289 472.33 291.02 472.33 297.99L472.33 306.98L471.49 307.54C470.7 308.05 470.61 308.05 469.99 307.49C469.37 306.93 469.33 306.44 469.33 298.87C469.33 294.45 469.19 290.62 469.03 290.36C468.77 289.96 468.45 289.97 466.78 290.41C464.78 290.93 462.42 291.62 459.5 292.53C458.58 292.82 457.46 293.08 457 293.11C456.25 293.16 456.16 293.03 456.06 291.75C455.94 290.03 456.23 290.1 449.1 289.84C443.97 289.66 443.68 289.68 443.35 290.3C443.16 290.66 443 291.25 443 291.6C443 291.96 442.77 292.44 442.49 292.67C442.07 293.02 441.3 292.85 438.08 291.68C435.93 290.9 433.72 290.07 433.17 289.83C432.62 289.6 431.69 289.3 431.12 289.18L430.07 288.96L429.82 293.56C429.69 296.1 429.67 299.99 429.78 302.22C429.97 305.96 429.93 306.33 429.3 307.13C428.46 308.2 427.87 308.23 427.18 307.25C426.74 306.62 426.69 305.84 426.87 302.33C426.99 300.04 426.98 296.4 426.85 294.25C426.6 290.35 426.6 290.33 425.76 290.33C425.3 290.33 422.95 291 420.54 291.81C414.88 293.73 413.69 293.95 413.61 293.12C413.58 292.78 413.52 292.27 413.48 292C413.44 291.72 413.39 291.31 413.37 291.08C413.34 290.75 409.19 290.68 393.25 290.75L373.17 290.83L373.13 291.71C373.08 293.06 372.75 293.67 372.05 293.67C371.7 293.67 368.91 292.84 365.85 291.83C362.78 290.82 360.13 290.08 359.97 290.19C359.78 290.3 359.66 298.78 359.67 311.07C359.68 330.01 359.64 331.81 359.12 332.38C358.4 333.18 357.78 333.17 357.34 332.34ZM392.17 329.77C391.62 329.47 390.38 328.63 389.42 327.91C387.91 326.77 387.52 326.62 386.59 326.83C385.99 326.96 384.4 327.14 383.06 327.23C379.1 327.49 376.62 326.19 375.13 323.08C374.31 321.36 374.21 320.79 374.19 317.49C374.16 313.36 374.65 311.71 376.48 309.72C378.27 307.77 379.77 307.21 383.17 307.2C385.87 307.19 386.35 307.29 387.96 308.17C389.91 309.24 390.89 310.52 391.78 313.14C392.78 316.12 392.3 320.93 390.78 323.16C389.77 324.64 390.21 325.32 393.17 326.83C394.17 327.34 394.53 327.73 394.61 328.44C394.72 329.41 394.19 330.34 393.54 330.32C393.34 330.31 392.72 330.06 392.17 329.77ZM438.52 326.92C438.45 326.69 438.15 325.75 437.86 324.83C437.57 323.92 436.57 320.54 435.64 317.33C434.7 314.12 433.73 310.93 433.47 310.24C432.74 308.31 432.85 307.38 433.84 307.14C435.08 306.82 436.21 307.72 436.49 309.23C436.89 311.44 439.9 322.34 440.18 322.62C440.52 322.97 441 322.08 441.33 320.49C441.52 319.58 442.32 316.3 443.12 313.19C444.37 308.32 444.67 307.51 445.32 307.27C446.34 306.9 447.75 307.62 448.06 308.67C448.2 309.13 448.54 310.32 448.82 311.33C451.02 319.21 451.96 322.41 452.14 322.58C452.55 322.99 452.93 322.11 453.83 318.67C454.33 316.74 454.96 314.34 455.23 313.33C455.5 312.32 455.91 310.62 456.16 309.54C456.62 307.52 457.02 307.01 458.17 307.01C459.74 307.01 459.85 307.43 459.02 310.23C458.6 311.66 458.11 313.23 457.93 313.72C457.75 314.21 457.48 315.11 457.33 315.72C457.17 316.33 456.83 317.58 456.56 318.5C453.9 327.53 453.96 327.42 451.85 327.27C450.28 327.15 450.66 328.06 447.49 316.84C446.67 313.93 446.22 313.01 445.82 313.4C445.71 313.51 445.28 315 444.85 316.71C443.28 322.96 442.27 326.51 441.93 326.92C441.74 327.15 440.92 327.33 440.12 327.33C439.23 327.33 438.6 327.17 438.52 326.92ZM485.33 318.72C485.33 314.53 485.24 310.2 485.13 309.11C484.95 307.46 485.02 307.03 485.53 306.52C486.07 305.98 486.51 305.94 489.82 306.15C495.3 306.49 497.29 307.84 497.59 311.43C497.74 313.2 497.72 313.23 496.03 314.97L494.32 316.72L495.26 317.94C495.78 318.62 496.48 319.84 496.83 320.67C497.17 321.49 497.73 322.82 498.08 323.61C498.88 325.45 498.75 326.14 497.55 326.27C496.43 326.4 495.48 325.65 495.17 324.39C495.05 323.9 494.44 322.45 493.81 321.16C492.55 318.56 491.46 317.67 489.53 317.67L488.33 317.67L488.33 321.26C488.33 325.38 487.95 326.33 486.31 326.33L485.33 326.33L485.33 318.72ZM385.23 324.5C387.68 323.47 388.95 321.42 389.23 318C389.58 313.83 388.04 310.8 385.14 309.99C382.13 309.15 379.19 310.2 378.02 312.52C377.36 313.86 377.29 314.42 377.39 317.79C377.49 321.32 377.56 321.63 378.44 322.79C380.02 324.86 382.72 325.54 385.23 324.5ZM493.12 314.18C494.19 313.36 494.33 313.08 494.33 311.79C494.33 309.46 492.99 308.51 489.97 308.73L488.5 308.83L488.4 311.64C488.35 313.18 488.39 314.66 488.49 314.93C488.8 315.75 491.68 315.28 493.12 314.18ZM187.58 278.33C187.21 278.09 187 277.55 187 276.78C187 275.78 187.33 275.26 189.15 273.38C191.82 270.61 192.42 269.55 191.92 268.45C191.43 267.39 190.37 267.17 188.84 267.81C187.24 268.48 187.33 268.52 187.33 267.22C187.33 265.79 188.26 265.33 191.16 265.33C192.96 265.33 193.44 265.47 194.31 266.2C195.17 266.92 195.33 267.3 195.33 268.55C195.33 270.42 194.69 271.66 192.57 273.9C191.65 274.88 190.99 275.77 191.11 275.89C191.23 276.01 192.13 276.08 193.12 276.04C194.41 276 195.11 276.15 195.65 276.58C196.36 277.16 196.36 277.2 195.78 277.73C195.01 278.42 188.5 278.9 187.58 278.33ZM161.4 277.81C159.99 276.82 159.33 274.95 159.34 271.93C159.35 267.13 160.66 265.33 164.13 265.33C167.53 265.33 169 267.19 169 271.5C169 274.24 168.38 275.91 166.9 277.18C165.74 278.17 165.3 278.33 163.85 278.33C162.84 278.33 161.84 278.12 161.4 277.81ZM170.99 277.66C170.78 277.26 170.7 276.58 170.81 276.14C170.97 275.49 171.23 275.33 172.13 275.33C173.69 275.33 174.29 276.11 173.64 277.28C172.99 278.45 171.53 278.65 170.99 277.66ZM177.39 277.23C175.19 274.96 175.19 268.53 177.39 266.33C178.27 265.45 178.61 265.33 180.34 265.33C184.18 265.33 185.33 266.76 185.33 271.5C185.33 276.19 183.71 278.33 180.15 278.33C178.68 278.33 178.33 278.19 177.39 277.23ZM165.07 275.44C165.94 274.6 166 274.37 166 271.82C166 269.56 165.88 268.94 165.31 268.21C164.93 267.73 164.34 267.33 163.99 267.33C162.83 267.33 162.33 268.61 162.33 271.6C162.33 274.25 162.66 275.54 163.47 276.08C164 276.43 164.04 276.42 165.07 275.44ZM181.52 275.52C182.26 274.77 182.33 274.44 182.33 271.68C182.33 269.11 182.24 268.57 181.67 268C179.95 266.29 178.67 267.89 178.67 271.73C178.67 273.57 178.83 274.43 179.33 275.25C180.12 276.55 180.44 276.59 181.52 275.52ZM153.22 274.11C153.1 273.99 153 273.54 153 273.11C153 272.37 153.1 272.33 155.46 272.33C157.43 272.33 157.97 272.44 158.14 272.88C158.52 273.88 157.7 274.33 155.51 274.33C154.38 274.33 153.34 274.23 153.22 274.11ZM38.56 272.11C38.43 271.99 38.33 267.49 38.33 262.11L38.33 252.33L43.08 252.35C48.74 252.36 50.3 252.88 51.58 255.17C52.9 257.53 52.48 259.8 50.36 261.81C49.22 262.9 49.06 263.7 49.87 264.36C50.16 264.6 51.07 266.23 51.9 267.98C53.68 271.78 53.6 272.17 50.98 272.17C48.96 272.17 49.22 272.45 47.16 267.92C45.94 265.22 44.95 264.33 43.18 264.33L42.33 264.33L42.33 267.93C42.33 270.29 42.2 271.67 41.93 271.93C41.51 272.35 38.94 272.49 38.56 272.11ZM79.33 270.83L79.33 269.33L80.93 269.33C81.81 269.33 82.71 269.15 82.93 268.93C83.21 268.65 83.33 266.81 83.33 262.77C83.33 256.31 83.33 256.3 81.09 257.82C79.65 258.8 79 258.5 79 256.84C79 255.66 79.33 255.29 81.95 253.53C83.43 252.54 84.03 252.33 85.47 252.33C86.42 252.33 87.38 252.51 87.6 252.73C87.89 253.02 88 255.34 88 261.06L88 268.99L88.75 269.15C89.16 269.24 89.95 269.36 90.5 269.41C91.32 269.48 91.52 269.67 91.61 270.44C91.81 272.23 91.46 272.33 85.13 272.33L79.33 272.33L79.33 270.83ZM95.68 271.81C94.28 271.2 94.01 270.82 94.01 269.42C94 268.15 94.14 268.13 97.01 268.86C99.39 269.47 100.47 269.29 101.75 268.08C102.95 266.94 102.96 265.58 101.79 264.49C100.92 263.68 99.99 263.41 97.5 263.25C96.19 263.17 96.16 263.14 96.07 261.8L95.97 260.43L98.17 260.25C99.65 260.13 100.59 259.87 101.05 259.46C102.66 258 102.62 256.67 100.92 255.79C99.63 255.12 98.16 255.34 96.36 256.49C95.6 256.96 94.83 257.27 94.65 257.16C94.16 256.85 94.28 255.23 94.86 254.4C96.89 251.49 104.71 251.67 106.26 254.67C106.98 256.05 106.6 258.85 105.56 259.94C104.42 261.13 104.44 261.7 105.65 262.39C107.89 263.66 108.31 267.16 106.51 269.52C105.08 271.4 102.74 272.33 99.5 272.32C97.88 272.31 96.38 272.11 95.68 271.81ZM111.35 271.69C110.87 270.81 110.91 268.22 111.4 267.73C111.62 267.51 112.51 267.33 113.39 267.33C115.19 267.33 115.67 267.84 115.67 269.74C115.67 271.52 114.89 272.33 113.16 272.33C112.05 272.33 111.61 272.18 111.35 271.69ZM122 271.68C119.53 270.37 118.33 267.38 118.34 262.52C118.35 255.27 120.51 252.33 125.82 252.34C129.69 252.35 131.67 253.88 132.53 257.54C133.66 262.37 132.83 267.73 130.54 270.28C128.7 272.32 124.5 273.01 122 271.68ZM138 271.68C135.53 270.37 134.33 267.38 134.34 262.52C134.35 255.27 136.51 252.33 141.82 252.34C145.69 252.35 147.67 253.88 148.53 257.54C149.66 262.37 148.83 267.73 146.54 270.28C144.7 272.32 140.5 273.01 138 271.68ZM127.15 268.25C128.1 267.3 128.26 266.87 128.47 264.78C128.59 263.47 128.59 261.22 128.46 259.79C128.26 257.55 128.1 257.04 127.31 256.25C125.56 254.5 123.61 255.31 123.03 258.02C122.56 260.2 122.57 264.64 123.04 266.53C123.42 268.01 124.61 269.33 125.58 269.33C125.85 269.33 126.55 268.85 127.15 268.25ZM143.15 268.25C144.1 267.3 144.26 266.87 144.47 264.78C144.59 263.47 144.59 261.22 144.46 259.79C144.26 257.55 144.1 257.04 143.31 256.25C141.56 254.5 139.61 255.31 139.03 258.02C138.56 260.2 138.57 264.64 139.04 266.53C139.42 268.01 140.61 269.33 141.58 269.33C141.85 269.33 142.55 268.85 143.15 268.25ZM208.7 268.87C208.43 268.55 208.35 266.31 208.41 261.46L208.5 254.5L210.06 254.4C211.38 254.31 211.64 254.4 211.83 254.98C212.1 255.83 212.23 255.83 213.59 255C215.23 254 218.2 254.08 219.81 255.17L221.04 256.01L222.47 255.17C223.55 254.53 224.36 254.33 225.87 254.33C227.58 254.33 228.01 254.47 229.06 255.34C230.62 256.62 231 258.29 231 263.78C231 268.62 230.7 269.33 228.69 269.33C227.99 269.33 227.26 269.14 227.07 268.91C226.87 268.68 226.67 266.33 226.61 263.55C226.5 258.82 226.47 258.58 225.71 257.97C224.62 257.08 223.77 257.17 222.64 258.31L221.67 259.28L221.67 263.91C221.67 267.06 221.54 268.66 221.27 268.93C221.05 269.15 220.23 269.33 219.45 269.33C218.38 269.33 217.94 269.17 217.68 268.69C217.49 268.33 217.33 265.95 217.33 263.36C217.33 259.11 217.27 258.6 216.67 258C215.77 257.1 214.92 257.16 213.69 258.2L212.67 259.06L212.67 263.55C212.67 266.02 212.51 268.33 212.32 268.69C211.9 269.47 209.31 269.6 208.7 268.87ZM234.56 269.11C234.43 268.99 234.33 265.61 234.33 261.59L234.33 254.3L235.92 254.4C237.25 254.48 237.52 254.62 237.6 255.22L237.71 255.94L239.1 255.14C241.1 254 244.01 254.01 245.53 255.17C246.13 255.62 246.71 256 246.82 256C246.93 256 247.61 255.62 248.33 255.17C249.36 254.52 250.09 254.33 251.66 254.33C253.47 254.33 253.8 254.44 254.86 255.42C255.6 256.1 256.15 256.99 256.34 257.83C256.76 259.66 256.75 267.89 256.32 268.69C256.06 269.17 255.62 269.33 254.55 269.33C253.77 269.33 252.95 269.15 252.73 268.93C252.46 268.66 252.33 267.03 252.33 263.75C252.33 259.12 252.31 258.94 251.52 258.15C251.07 257.7 250.53 257.33 250.33 257.33C249.64 257.33 248.02 258.34 247.68 258.98C247.49 259.33 247.33 261.64 247.33 264.1C247.33 269.21 247.23 269.44 244.94 269.27L243.5 269.17L243.33 263.89C243.17 258.79 243.14 258.58 242.35 257.95C241.35 257.14 240.14 257.35 239.08 258.53C238.38 259.32 238.33 259.67 238.33 263.95C238.33 267.07 238.21 268.66 237.93 268.93C237.51 269.35 234.94 269.49 234.56 269.11ZM62.56 268.11C62.43 267.99 62.33 267.31 62.33 266.6L62.33 265.32L68.92 265.41L75.5 265.5L75.61 266.44C75.81 268.24 75.48 268.33 68.85 268.33C65.51 268.33 62.68 268.23 62.56 268.11ZM62.56 262.11C62.43 261.99 62.33 261.31 62.33 260.6L62.33 259.32L68.92 259.41L75.5 259.5L75.61 260.44C75.81 262.24 75.48 262.33 68.85 262.33C65.51 262.33 62.68 262.23 62.56 262.11ZM47.06 260.04C48.21 258.76 48.25 257.66 47.22 256.46C46.56 255.7 46.1 255.53 44.38 255.4L42.33 255.25L42.33 258.07C42.33 259.62 42.45 261 42.58 261.14C42.72 261.28 43.57 261.33 44.48 261.24C45.8 261.12 46.31 260.88 47.06 260.04ZM162.95 259.58C161.49 258.35 161.21 257.42 161.2 253.83C161.19 248.74 162.2 247.33 165.88 247.33C167.76 247.33 168.06 247.43 169.11 248.43C170.46 249.7 170.86 251.44 170.58 254.85C170.29 258.52 168.59 260.33 165.43 260.33C164.26 260.33 163.6 260.13 162.95 259.58ZM172.65 259.64C172.44 259.25 172.37 258.58 172.48 258.14C172.65 257.46 172.88 257.33 174 257.33C175.12 257.33 175.35 257.46 175.52 258.14C175.83 259.35 175.15 260.33 174 260.33C173.35 260.33 172.9 260.1 172.65 259.64ZM179.18 259.24C177.46 257.52 176.94 254.36 177.83 251C178.53 248.35 179.75 247.33 182.26 247.33C184.85 247.34 186.08 248.11 186.79 250.2C187.93 253.54 187.17 257.6 185.08 259.32C184.05 260.17 183.56 260.33 182.06 260.33C180.48 260.33 180.14 260.2 179.18 259.24ZM194.07 259.93C193.85 259.71 193.67 259.13 193.67 258.64C193.67 257.52 193.2 257.33 190.47 257.33L188.33 257.33L188.33 255.86C188.33 254.65 188.71 253.75 190.42 250.86L192.5 247.33L194.5 247.41L196.5 247.5L196.59 251.26C196.69 254.95 196.71 255.03 197.54 255.35C198.56 255.74 198.5 256.69 197.41 257.16C196.87 257.4 196.67 257.77 196.67 258.51C196.67 259.7 196.15 260.33 195.17 260.33C194.78 260.33 194.29 260.15 194.07 259.93ZM154.27 257.42L154.17 255.5L152.67 255.39C150.99 255.27 150.33 254.87 150.33 253.96C150.33 253.43 150.59 253.33 151.93 253.33C152.81 253.33 153.71 253.15 153.93 252.93C154.15 252.71 154.33 251.8 154.33 250.91L154.33 249.29L155.42 249.4C156.46 249.5 156.5 249.56 156.6 251.16C156.72 253.05 157 253.32 158.76 253.33C161.17 253.34 160.68 255.22 158.22 255.4L156.83 255.5L156.73 256.99C156.6 258.75 156.21 259.33 155.14 259.33C154.43 259.33 154.36 259.17 154.27 257.42ZM166.85 257.52C167.58 256.78 167.67 256.42 167.67 254.04C167.67 250.82 167.32 249.76 166.15 249.47C164.76 249.12 164.21 249.96 164.06 252.67C163.9 255.43 164.17 257.12 164.87 257.82C165.57 258.52 165.9 258.47 166.85 257.52ZM183.82 256.92C184.16 256.43 184.33 255.43 184.33 253.95C184.33 251.35 183.97 250.19 183 249.67C181.34 248.78 180.33 250.29 180.33 253.69C180.33 255.81 180.65 256.94 181.5 257.78C182.14 258.42 182.98 258.11 183.82 256.92ZM427.52 256.14C427.24 255.85 427 255.37 426.99 255.06C426.99 254.75 426.99 242.64 427 228.13C427.01 213.63 426.92 201.52 426.81 201.22C426.61 200.71 423.93 200.67 392.71 200.66C374.08 200.66 358.51 200.57 358.11 200.46C357.71 200.36 357.3 200.05 357.2 199.79C357.1 199.53 357 189.53 356.99 177.58C356.97 157.34 357.01 155.82 357.55 155.42C358.01 155.09 365.23 155 392.22 155C425.81 155 426.32 154.99 426.66 154.34C426.9 153.9 427.01 144.7 426.99 125.57C426.98 110.11 427.07 97.21 427.19 96.9C427.39 96.38 429.04 96.33 449.32 96.33C470.12 96.33 471.26 96.36 471.78 96.94C472.27 97.48 472.33 98.74 472.33 107.9C472.33 116.34 472.42 118.32 472.8 118.64C473.14 118.92 478.64 119.01 493.51 118.99C510.2 118.96 513.84 119.03 514.22 119.41C514.6 119.79 514.67 129.09 514.67 176.32L514.67 232.79L513.94 233.56L513.22 234.33L492.78 234.33L472.33 234.33L472.33 244.83C472.33 254.89 472.31 255.36 471.67 256C471.01 256.65 470.56 256.67 449.52 256.67C430.44 256.67 427.99 256.61 427.52 256.14ZM193.02 254.99C193.53 254.72 193.67 254.28 193.67 252.96C193.67 250.8 192.98 250.85 191.73 253.09C190.96 254.46 190.9 254.73 191.33 255C191.97 255.41 192.23 255.41 193.02 254.99ZM468.8 253.37C469.29 252.83 469.33 246.34 469.25 176.14L469.17 99.5L449.5 99.5L429.83 99.5L429.89 127.17C429.93 142.38 429.96 155.51 429.96 156.33C429.96 157.16 429.87 166.53 429.75 177.17C429.51 199.95 429.52 198.68 429.59 228.58C429.62 241.45 429.74 252.36 429.86 252.81C429.97 253.26 430.31 253.7 430.61 253.78C430.92 253.86 439.51 253.94 449.71 253.95C467.11 253.97 468.29 253.93 468.8 253.37ZM511.45 230.72C511.96 230.15 512 226.03 512 176.44C511.99 134.45 511.9 122.66 511.58 122.22C511.2 121.7 509.61 121.67 491.83 121.75L472.5 121.83L472.41 176.17C472.37 206.05 472.4 230.69 472.49 230.92C472.61 231.24 476.78 231.33 491.77 231.33C509.91 231.33 510.93 231.3 511.45 230.72ZM460.33 199.86C460.33 199.57 460.57 199.33 460.86 199.33C461.45 199.33 461.35 200.05 460.73 200.26C460.51 200.33 460.33 200.15 460.33 199.86ZM426.53 196.85C426.92 196.31 427 193.16 426.99 177.69C426.99 166.6 426.86 158.97 426.67 158.67C426.4 158.23 422.3 158.16 393.67 158.08C371.31 158.02 360.77 158.1 360.32 158.34C359.68 158.68 359.67 159.15 359.67 177.6C359.67 187.99 359.79 196.67 359.92 196.87C360.06 197.07 360.39 197.32 360.67 197.43C360.94 197.53 375.77 197.59 393.61 197.56C425.31 197.5 426.06 197.49 426.53 196.85ZM53.18 188.32C52.09 187.76 50.91 187.05 50.56 186.74C50.04 186.26 49.24 186.17 45.88 186.17C42.2 186.17 41.68 186.09 40.17 185.31C37.8 184.1 36.47 181.83 36.15 178.44C35.57 172.24 37.24 168.61 41.46 166.87C42.31 166.52 43.76 166.33 45.7 166.33C49.26 166.33 51.64 167.22 53.22 169.14C55.67 172.11 56.01 177.46 54.01 181.52C53.42 182.73 53.06 183.84 53.21 183.98C53.37 184.12 54.17 184.49 55 184.81C57.06 185.61 57.33 185.9 57.33 187.31C57.33 189.6 56.24 189.87 53.18 188.32ZM74.87 185.81C74.76 185.52 74.67 184.84 74.67 184.31C74.67 183.37 74.73 183.33 76.19 183.33C79.05 183.33 79 183.44 79 176.82C79 170.29 79.04 170.37 76.66 171.71C75.1 172.59 74.33 172.36 74.33 171.02C74.33 169.9 74.97 169.2 77.58 167.46C79.15 166.42 79.53 166.31 81.25 166.4L83.17 166.5L83.33 174.83L83.5 183.17L85.33 183.33C87.05 183.49 87.17 183.56 87.27 184.44C87.48 186.23 87.12 186.33 80.83 186.33C75.89 186.33 75.04 186.26 74.87 185.81ZM90.07 185.93C89.64 185.5 89.57 183.86 89.94 182.93C90.06 182.62 91.23 181.27 92.53 179.93C97.26 175.07 98.45 172.09 96.47 170.11C95.75 169.39 95.4 169.28 94.3 169.43C93.57 169.53 92.45 170 91.82 170.49C91.18 170.97 90.51 171.28 90.33 171.17C89.79 170.83 89.95 168.76 90.56 168.15C92.36 166.35 97.19 165.74 99.65 166.99C101.73 168.05 102.33 169.08 102.33 171.56C102.33 174.4 101.63 175.7 98.1 179.36C96.26 181.28 95.32 182.49 95.45 182.81C95.6 183.21 96.43 183.33 99.4 183.41L103.17 183.5L103.27 184.44C103.48 186.24 103.15 186.33 96.53 186.33C92.26 186.33 90.35 186.22 90.07 185.93ZM106.85 185.59C106.26 184.74 106.17 182.93 106.68 181.98C107.21 180.99 110.1 181.06 110.81 182.07C112.09 183.9 110.86 186.33 108.66 186.33C107.71 186.33 107.24 186.14 106.85 185.59ZM118 185.96C116.82 185.49 115.72 184.38 114.88 182.83C114.24 181.63 114.17 180.99 114.17 176.33C114.17 171.93 114.26 170.99 114.79 170C116.26 167.25 117.92 166.33 121.46 166.33C123.75 166.33 124.06 166.42 125.39 167.42C127.66 169.14 128.15 170.46 128.28 175.25C128.36 178.42 128.26 179.72 127.82 181.08C127.18 183.05 125.38 185.17 123.76 185.87C122.53 186.4 119.23 186.45 118 185.96ZM134 185.96C132.82 185.49 131.72 184.38 130.88 182.83C130.24 181.63 130.17 180.99 130.17 176.33C130.17 171.93 130.26 170.99 130.79 170C132.26 167.25 133.92 166.33 137.46 166.33C139.75 166.33 140.06 166.42 141.39 167.42C143.66 169.14 144.15 170.46 144.28 175.25C144.36 178.42 144.26 179.72 143.82 181.08C143.18 183.05 141.38 185.17 139.76 185.87C138.53 186.4 135.23 186.45 134 185.96ZM153.87 185.81C153.76 185.52 153.67 184.84 153.67 184.31L153.67 183.33L160.18 183.33C167.3 183.33 167.46 183.38 166.79 185.29L166.48 186.17L160.28 186.26C154.84 186.34 154.05 186.28 153.87 185.81ZM179.78 185.74C178.51 185.05 177.6 183.94 176.87 182.2C176.1 180.36 176.11 172.59 176.88 170.59C178.05 167.58 179.98 166.33 183.5 166.33C186.72 166.33 188.45 167.33 189.88 170C190.79 171.71 190.79 180.27 189.87 182C189.02 183.62 187.72 184.95 186.26 185.7C184.66 186.52 181.27 186.54 179.78 185.74ZM193.73 185.93C193.51 185.71 193.33 184.68 193.33 183.64C193.33 181.5 193.51 181.33 195.81 181.33C197 181.33 197.29 181.47 197.61 182.18C198.57 184.29 197.47 186.33 195.38 186.33C194.69 186.33 193.95 186.15 193.73 185.93ZM203.97 185.58C201.59 183.97 200.67 181.44 200.67 176.5C200.67 169.23 202.75 166.33 208 166.33C210.65 166.33 211.64 166.72 213.22 168.39C216.04 171.35 216 180.15 213.15 183.89C211.9 185.53 210 186.32 207.3 186.33C205.55 186.33 204.87 186.18 203.97 185.58ZM217.73 185.93C217.51 185.71 217.33 185.05 217.33 184.46C217.33 183.29 217.8 182.63 221.38 178.75C223.68 176.25 225.33 173.46 225.33 172.08C225.33 171.64 224.88 170.83 224.32 170.27C223.43 169.38 223.13 169.27 221.97 169.43C221.24 169.53 220.14 169.99 219.53 170.45C218.71 171.08 218.33 171.2 218.05 170.91C217.52 170.38 217.57 169.28 218.18 168.42C219.61 166.37 225.42 165.56 227.69 167.09C229.26 168.15 230.33 169.86 230.33 171.3C230.34 173.82 229.33 175.64 226.05 179.07C223.99 181.21 222.99 182.5 223.12 182.83C223.28 183.24 224.02 183.33 227 183.33C230.6 183.33 230.69 183.35 231.06 184.17C231.37 184.85 231.33 185.11 230.83 185.67C230.27 186.29 229.81 186.33 224.18 186.33C219.92 186.33 218.02 186.22 217.73 185.93ZM241.56 186.11C241.43 185.99 241.33 182.61 241.33 178.59L241.33 171.3L242.92 171.4C244.25 171.48 244.52 171.62 244.6 172.22L244.71 172.94L246.1 172.14C248.1 171 251.01 171.01 252.53 172.17C253.13 172.62 253.71 173 253.82 173C253.93 173 254.61 172.62 255.33 172.17C256.36 171.52 257.09 171.33 258.66 171.33C260.47 171.33 260.8 171.44 261.86 172.42C262.6 173.1 263.15 173.99 263.34 174.83C263.76 176.66 263.75 184.89 263.32 185.69C263.06 186.17 262.62 186.33 261.55 186.33C260.77 186.33 259.95 186.15 259.73 185.93C259.46 185.66 259.33 184.03 259.33 180.75C259.33 176.12 259.31 175.94 258.52 175.15C258.07 174.7 257.53 174.33 257.33 174.33C256.64 174.33 255.02 175.34 254.68 175.98C254.49 176.33 254.33 178.64 254.33 181.1C254.33 186.21 254.23 186.44 251.94 186.27L250.5 186.17L250.33 180.89C250.17 175.79 250.14 175.58 249.35 174.95C248.35 174.14 247.14 174.35 246.08 175.53C245.38 176.32 245.33 176.67 245.33 180.95C245.33 184.07 245.21 185.66 244.93 185.93C244.51 186.35 241.94 186.49 241.56 186.11ZM267.22 186.11C267.1 185.99 267 182.61 267 178.61L267 171.33L268.67 171.33C270.06 171.33 270.33 171.43 270.33 171.94C270.33 172.95 270.66 172.99 271.91 172.14C273.63 170.97 276.87 170.98 278.27 172.17C278.82 172.62 279.36 173 279.47 173C279.59 173 280.27 172.62 281 172.17C282.91 170.96 285.86 170.98 287.32 172.21C289.16 173.76 289.33 174.44 289.33 180.28C289.33 186.3 289.28 186.44 286.94 186.27L285.5 186.17L285.33 181.13C285.17 176.16 285.01 175.45 283.83 174.59C283.21 174.13 282.39 174.33 281.36 175.2L280.33 176.06L280.33 180.64C280.33 184.66 280.26 185.3 279.72 185.78C278.92 186.51 276.48 186.53 276.2 185.81C276.09 185.52 276 183.14 276 180.53C276 176 275.96 175.75 275.23 175.06C274.28 174.16 273.8 174.15 272.42 175L271.33 175.66L271.33 180.25C271.33 185.76 271.1 186.33 268.87 186.33C268.09 186.33 267.34 186.23 267.22 186.11ZM48.89 181.55C50.07 180.32 50.31 179.82 50.51 178.18C50.83 175.64 50.52 172.88 49.77 171.61C48.48 169.4 45.11 168.65 42.97 170.1C41.23 171.26 40.53 173.01 40.54 176.19C40.54 181.21 42.39 183.58 46 183.17C47.23 183.04 47.75 182.74 48.89 181.55ZM121.84 182.93C123.49 182.18 124.13 180.29 124.13 176.17C124.13 173.05 124.02 172.29 123.41 171.11C122.88 170.1 122.41 169.66 121.68 169.5C119.06 168.93 118.33 170.36 118.33 176.11C118.33 180.51 118.54 181.54 119.65 182.65C120.44 183.44 120.66 183.47 121.84 182.93ZM137.84 182.93C139.49 182.18 140.13 180.29 140.13 176.17C140.13 173.05 140.02 172.29 139.41 171.11C138.88 170.1 138.41 169.66 137.68 169.5C135.06 168.93 134.33 170.36 134.33 176.11C134.33 180.51 134.54 181.54 135.65 182.65C136.44 183.44 136.66 183.47 137.84 182.93ZM184.5 182.61C185.94 181.47 186.33 180.09 186.33 176.12C186.33 170.84 185.16 168.8 182.51 169.47C180.95 169.86 180.5 171.36 180.5 176.17C180.5 180.72 180.87 182.17 182.25 182.97C183.11 183.47 183.48 183.41 184.5 182.61ZM209.1 182.66C210.4 181.64 210.83 179.93 210.8 176C210.76 170.92 209.62 168.85 207.2 169.46C205.86 169.8 205.33 170.97 205.11 174.07C204.81 178.23 205.2 181.13 206.22 182.34C207.2 183.5 207.92 183.59 209.1 182.66ZM57.98 181.64C57.78 181.25 57.7 180.57 57.81 180.13L58.02 179.32L64.59 179.41L71.17 179.5L71.27 180.44C71.48 182.24 71.15 182.33 64.47 182.33C58.61 182.33 58.34 182.3 57.98 181.64ZM159.07 180.93C158.83 180.7 158.67 179.55 158.67 178.11C158.67 175.35 158.74 175.41 155.33 175.25L153.5 175.17L153.4 173.75L153.3 172.33L155.42 172.33C158.34 172.33 158.63 172.05 158.74 169L158.83 166.5L159.99 166.39C161.58 166.24 162 166.94 162 169.72C162 172.29 161.95 172.25 165.33 172.41C167.12 172.5 167.17 172.53 167.27 173.53C167.4 174.93 166.85 175.28 164.32 175.4L162.17 175.5L162 177.87C161.91 179.17 161.63 180.48 161.38 180.78C160.84 181.43 159.64 181.51 159.07 180.93ZM57.98 175.64C57.78 175.25 57.7 174.57 57.81 174.13L58.02 173.32L64.59 173.41L71.17 173.5L71.27 174.44C71.48 176.24 71.15 176.33 64.47 176.33C58.61 176.33 58.34 176.3 57.98 175.64ZM357.2 139.8C356.93 139.11 356.91 51.08 357.18 50.65C357.52 50.09 359.24 50.29 359.48 50.91C359.61 51.23 359.69 57.61 359.68 65.09C359.65 76.96 359.71 78.7 360.15 78.87C360.43 78.98 363.28 78.21 366.49 77.16C372.65 75.13 373.41 75.09 373.09 76.78C373 77.24 373.17 77.79 373.5 78.12C374.01 78.63 378.58 78.67 435.64 78.66C503.27 78.65 498.47 78.81 498.49 76.62C498.5 75.59 498.58 75.5 499.5 75.55C500.05 75.58 502.81 76.39 505.63 77.35C509.46 78.66 510.89 79.02 511.3 78.77C511.78 78.46 511.84 76.63 511.9 61.02C511.96 43.45 512.02 42.67 513.14 42.67C513.36 42.67 513.79 42.85 514.11 43.08C514.64 43.47 514.67 45.72 514.67 75.14C514.67 104.19 514.63 106.82 514.12 107.39C513.81 107.72 513.37 108 513.13 108C512.05 108 511.94 106.66 511.98 94.38C512.02 84.33 511.94 82.05 511.55 81.52C511.1 80.89 510.92 80.93 505.38 82.77C502.24 83.81 499.45 84.67 499.17 84.67C498.89 84.67 498.64 84.4 498.61 84.08C498.58 83.76 498.52 83.27 498.48 83C498.44 82.72 498.39 82.31 498.37 82.08C498.34 81.75 485.69 81.68 435.75 81.75C373.43 81.83 373.17 81.84 373.12 82.5C373.09 82.87 373.05 83.43 373.04 83.76C373.02 84.09 372.76 84.45 372.47 84.56C372.18 84.67 369.32 83.88 366.12 82.81C361.23 81.18 360.24 80.94 359.98 81.35C359.8 81.64 359.67 93.5 359.68 110.43C359.68 129.88 359.57 139.23 359.33 139.68C358.9 140.47 357.49 140.55 357.2 139.8ZM36.07 115.93C35.78 115.64 35.67 113.07 35.67 106.46C35.67 101.47 35.76 97.15 35.87 96.86C36.04 96.42 36.76 96.33 40.38 96.33C45.19 96.33 46.44 96.66 48.24 98.4C50.23 100.33 50.16 104.25 48.09 106.67C46.59 108.42 45.14 109.08 42.33 109.32L40.17 109.5L40.07 112.32C39.95 115.63 39.54 116.33 37.68 116.33C37.01 116.33 36.29 116.15 36.07 115.93ZM69.13 115.7C67.76 115.08 67.33 114.5 67.33 113.3C67.33 112.32 68.16 112.19 70.21 112.83C72.62 113.59 74.22 113.34 75.42 112.01C76.46 110.85 76.56 110.13 75.82 109.08C75.04 107.97 74.06 107.57 71.67 107.36L69.5 107.17L69.4 105.79L69.3 104.41L71.48 104.27C73.32 104.16 73.81 103.99 74.66 103.17C75.21 102.64 75.67 101.87 75.67 101.46C75.67 100.55 74.2 99.33 73.11 99.33C72.14 99.33 70.07 100.17 69.28 100.88C68.53 101.56 68 101.2 68 100.01C68 98.47 68.32 98.02 70.03 97.15C72.17 96.07 75.71 96 77.69 97.01C79.2 97.78 80.33 99.39 80.33 100.76C80.33 101.89 79.16 104.29 78.48 104.55C77.68 104.86 77.94 105.8 79 106.4C80.22 107.09 81.33 108.85 81.33 110.1C81.33 112.26 79.16 114.96 76.7 115.82C74.67 116.54 70.85 116.48 69.13 115.7ZM85.34 115.81C83.94 115.2 83.68 114.82 83.67 113.42C83.67 112.15 84.05 112.07 86.33 112.87C89.04 113.81 92.04 112.75 92.5 110.68C92.97 108.52 90.85 107.13 87.54 107.43C84.3 107.73 84.33 107.78 84.34 102.07C84.34 99.37 84.46 96.98 84.61 96.74C84.82 96.42 86.2 96.34 90.36 96.41L95.83 96.5L95.94 97.44C96.13 99.09 95.61 99.33 91.78 99.33L88.3 99.33L88.4 101.75L88.5 104.17L91 104.35C92.38 104.46 93.99 104.8 94.6 105.12C96.65 106.2 97.78 109.1 97.01 111.3C96.46 112.86 94.51 114.92 92.83 115.7C91.16 116.48 87.03 116.54 85.34 115.81ZM100.85 115.59C100.26 114.74 100.17 112.93 100.68 111.98C101.21 110.99 104.1 111.06 104.81 112.07C106.09 113.9 104.86 116.33 102.66 116.33C101.71 116.33 101.24 116.14 100.85 115.59ZM111.5 115.86C109.03 114.76 107.96 112.46 107.74 107.75C107.36 99.66 109.48 96.33 115 96.33C117.65 96.33 118.64 96.72 120.22 98.39C123.04 101.35 123 110.15 120.15 113.89C119.65 114.54 118.63 115.35 117.87 115.7C116.25 116.43 112.98 116.52 111.5 115.86ZM128 115.96C126.82 115.49 125.72 114.38 124.88 112.83C124.24 111.63 124.17 110.99 124.17 106.33C124.17 100.95 124.37 100.02 125.96 98.21C127.72 96.21 132.55 95.62 134.92 97.12C136.61 98.19 137.22 98.94 137.82 100.64C138.54 102.66 138.52 108.99 137.79 111.19C137.17 113.06 135.34 115.19 133.76 115.87C132.53 116.4 129.23 116.45 128 115.96ZM147.89 116.11C147.77 115.99 147.67 115.31 147.67 114.6L147.67 113.32L154.25 113.41L160.83 113.5L160.94 114.44C161.15 116.24 160.82 116.33 154.18 116.33C150.84 116.33 148.01 116.23 147.89 116.11ZM173.78 115.74C172.51 115.05 171.6 113.94 170.87 112.2C170.1 110.36 170.11 102.59 170.88 100.59C172.05 97.58 173.98 96.33 177.5 96.33C180.72 96.33 182.45 97.33 183.88 100C184.79 101.71 184.79 110.27 183.87 112C183.02 113.62 181.72 114.95 180.26 115.7C178.66 116.52 175.27 116.54 173.78 115.74ZM187.73 115.93C187.51 115.71 187.33 114.68 187.33 113.64C187.33 111.5 187.51 111.33 189.81 111.33C191 111.33 191.29 111.47 191.61 112.18C192.57 114.29 191.47 116.33 189.38 116.33C188.69 116.33 187.95 116.15 187.73 115.93ZM198.5 115.86C196.03 114.76 194.96 112.46 194.74 107.75C194.36 99.66 196.48 96.33 202 96.33C204.65 96.33 205.64 96.72 207.22 98.39C210.04 101.35 210 110.15 207.15 113.89C206.65 114.54 205.63 115.35 204.87 115.7C203.25 116.43 199.98 116.52 198.5 115.86ZM213.83 115.71C211.63 114.69 211.17 113.94 211.17 111.31C211.17 109.06 211.19 109.01 212.65 107.52L214.13 106L213.09 104.92C211.22 102.98 210.89 101.17 212.02 98.97C212.53 97.97 213.08 97.46 214.21 96.98C216.23 96.12 220.29 96.1 222.17 96.95C223.75 97.67 224.11 98.09 224.65 99.75C225.01 100.86 224.97 101.19 224.32 102.52C223.92 103.35 223.23 104.27 222.8 104.56C221.71 105.27 221.79 105.76 223.17 106.81C226.67 109.48 225.85 114.03 221.54 115.8C219.72 116.55 215.56 116.5 213.83 115.71ZM242.56 116.11C242.43 115.99 242.33 112.61 242.33 108.59L242.33 101.3L243.92 101.4C245.25 101.48 245.52 101.62 245.6 102.22L245.71 102.94L247.1 102.14C249.1 101 252.01 101.01 253.53 102.17C254.13 102.62 254.71 103 254.82 103C254.93 103 255.61 102.62 256.33 102.17C257.36 101.52 258.09 101.33 259.66 101.33C261.47 101.33 261.8 101.44 262.86 102.42C263.6 103.1 264.15 103.99 264.34 104.83C264.76 106.66 264.75 114.89 264.32 115.69C264.06 116.17 263.62 116.33 262.55 116.33C261.77 116.33 260.95 116.15 260.73 115.93C260.46 115.66 260.33 114.03 260.33 110.75C260.33 106.12 260.31 105.94 259.52 105.15C259.07 104.7 258.53 104.33 258.33 104.33C257.64 104.33 256.02 105.34 255.68 105.98C255.49 106.33 255.33 108.64 255.33 111.1C255.33 116.21 255.23 116.44 252.94 116.27L251.5 116.17L251.33 110.89C251.17 105.79 251.14 105.58 250.35 104.95C249.35 104.14 248.14 104.35 247.08 105.53C246.38 106.32 246.33 106.67 246.33 110.95C246.33 114.07 246.21 115.66 245.93 115.93C245.51 116.35 242.94 116.49 242.56 116.11ZM268.56 116.11C268.43 115.99 268.33 112.61 268.33 108.59L268.33 101.3L269.92 101.4C271.25 101.48 271.52 101.62 271.6 102.22L271.71 102.94L273.1 102.14C275.1 101 278.01 101.01 279.53 102.17C280.13 102.62 280.71 103 280.82 103C280.93 103 281.61 102.62 282.33 102.17C283.36 101.52 284.09 101.33 285.66 101.33C287.47 101.33 287.8 101.44 288.86 102.42C289.6 103.1 290.15 103.99 290.34 104.83C290.76 106.66 290.75 114.89 290.32 115.69C290.06 116.17 289.62 116.33 288.55 116.33C287.77 116.33 286.95 116.15 286.73 115.93C286.46 115.66 286.33 114.03 286.33 110.75C286.33 106.12 286.31 105.94 285.52 105.15C285.07 104.7 284.53 104.33 284.33 104.33C283.64 104.33 282.02 105.34 281.68 105.98C281.49 106.33 281.33 108.64 281.33 111.1C281.33 116.21 281.23 116.44 278.94 116.27L277.5 116.17L277.33 110.89C277.17 105.79 277.14 105.58 276.35 104.95C275.35 104.14 274.14 104.35 273.08 105.53C272.38 106.32 272.33 106.67 272.33 110.95C272.33 114.07 272.21 115.66 271.93 115.93C271.51 116.35 268.94 116.49 268.56 116.11ZM116.1 112.66C117.4 111.64 117.83 109.93 117.8 106C117.76 100.92 116.62 98.85 114.2 99.46C112.86 99.8 112.33 100.97 112.11 104.07C111.81 108.23 112.2 111.13 113.22 112.34C114.2 113.5 114.92 113.59 116.1 112.66ZM131.84 112.93C133.49 112.18 134.13 110.29 134.13 106.17C134.13 103.05 134.02 102.29 133.41 101.11C132.88 100.1 132.41 99.66 131.68 99.5C129.06 98.93 128.33 100.36 128.33 106.11C128.33 110.51 128.54 111.54 129.65 112.65C130.44 113.44 130.66 113.47 131.84 112.93ZM178.5 112.61C179.94 111.47 180.33 110.09 180.33 106.12C180.33 100.86 179.26 98.93 176.65 99.5C174.92 99.88 174.5 101.18 174.5 106.17C174.5 110.72 174.87 112.17 176.25 112.97C177.11 113.47 177.48 113.41 178.5 112.61ZM203.1 112.66C204.4 111.64 204.83 109.93 204.8 106C204.76 100.92 203.62 98.85 201.2 99.46C199.86 99.8 199.33 100.97 199.11 104.07C198.81 108.23 199.2 111.13 200.22 112.34C201.2 113.5 201.92 113.59 203.1 112.66ZM219.97 112.47C221.34 111.32 221.3 110.33 219.82 109.03C218.45 107.83 217.43 107.73 216.21 108.69C215.54 109.22 215.33 109.68 215.34 110.61C215.34 111.99 215.55 112.39 216.5 112.94C217.6 113.56 218.89 113.39 219.97 112.47ZM51.98 111.64C51.78 111.25 51.7 110.57 51.81 110.13L52.02 109.32L58.59 109.41L65.17 109.5L65.27 110.44C65.48 112.24 65.15 112.33 58.47 112.33C52.61 112.33 52.34 112.3 51.98 111.64ZM153.07 110.93C152.83 110.7 152.67 109.55 152.67 108.11C152.67 105.35 152.74 105.41 149.33 105.25L147.5 105.17L147.4 103.75L147.3 102.33L149.42 102.33C152.34 102.33 152.63 102.05 152.74 99L152.83 96.5L153.99 96.39C155.58 96.24 156 96.94 156 99.72C156 102.29 155.95 102.25 159.33 102.41C161.12 102.5 161.17 102.53 161.27 103.53C161.4 104.93 160.85 105.28 158.32 105.4L156.17 105.5L156 107.87C155.91 109.17 155.63 110.48 155.38 110.78C154.84 111.43 153.64 111.51 153.07 110.93ZM44.08 105.08C44.6 104.55 45.11 103.61 45.21 102.95C45.37 101.95 45.25 101.58 44.42 100.65C43.56 99.7 43.21 99.54 41.8 99.52L40.17 99.5L40.07 102.64C40 104.92 40.09 105.86 40.4 106.07C41.16 106.58 43.1 106.06 44.08 105.08ZM51.98 105.64C51.78 105.25 51.7 104.57 51.81 104.13L52.02 103.32L58.59 103.41L65.17 103.5L65.27 104.44C65.48 106.24 65.15 106.33 58.47 106.33C52.61 106.33 52.34 106.3 51.98 105.64ZM219.8 102.97C221.22 101.29 220.68 99.79 218.54 99.44C215.86 99.01 214.65 101.42 216.69 103.14C218.03 104.26 218.75 104.23 219.8 102.97ZM440.33 52.33L440.33 42.33L444.42 42.34C448.03 42.34 448.65 42.43 449.8 43.09C451.92 44.3 452.5 45.35 452.5 47.99C452.5 50.03 452.39 50.41 451.48 51.55C450 53.41 447.99 54.33 445.43 54.33L443.33 54.33L443.33 57.59C443.33 61.36 442.92 62.33 441.31 62.33L440.33 62.33L440.33 52.33ZM447.64 51.35C450.15 50.07 450.35 46.61 448 45.22C447.43 44.88 446.34 44.67 445.2 44.67L443.33 44.67L443.33 48.11C443.33 50.01 443.43 51.66 443.56 51.78C444.01 52.23 446.4 51.98 447.64 51.35Z" fill="#1e2749" fill-rule="evenodd"/>
</svg>
