<?xml version="1.0" encoding="UTF-8"?>
<svg xmlns="http://www.w3.org/2000/svg" viewBox="0 0 2430 983" width="2430" height="983" shape-rendering="geometricPrecision">
<path d="M1009.86 921.28L982.22 920.97L972.57 892.32C967.26 876.56 960.71 856.2 958.01 847.08C938.79 782.2 920.14 702.89 912 651.5C910.34 641.05 908.1 626.88 907.01 620C903.71 599.08 903.91 599.87 901.94 600.2C900.96 600.36 892.67 607.15 883.52 615.27C874.37 623.39 866.43 629.76 865.88 629.43C863.54 627.98 867.29 618.89 874.64 608.13C877.04 604.63 879 601.42 879 601.01C879 599.4 841.09 598.98 639.75 598.37C489.57 597.92 432 598.05 432 598.84C432 599.44 434.88 604.33 438.4 609.72C447.1 623 448.69 626.46 447.04 628.45C444.64 631.34 442.26 630.01 432.37 620.25C426.94 614.88 418.79 607 414.25 602.72C409.71 598.45 406 594.41 406 593.75C406 591.98 424.16 574.39 433.97 566.67C438.79 562.88 443.43 560 444.72 560C445.98 560 447 560.19 447 560.42C447 562.07 442.21 571.02 437.1 578.93C433.74 584.11 431 588.75 431 589.23C431 590.67 876.64 589.76 878.08 588.32C878.98 587.42 878.41 585.64 875.65 580.71C867.56 566.23 865.01 560 867.19 560C868.7 560 877.74 566.93 891.02 578.27C896.03 582.55 900.54 585.78 901.06 585.46C902.38 584.65 902.24 576.83 900.47 551.5C899.62 539.4 898.6 522.52 898.21 514L897.5 498.5L653.25 498.25L409 498L408.97 511.25C408.89 549.92 404.73 571.79 401.98 547.93C401.45 543.29 401.01 530.22 401.01 518.88L401 498.25L281.75 497.69C174.67 497.18 141.1 496.43 139.17 494.5C138.89 494.23 138.94 493.73 139.27 493.4C140.97 491.7 181.34 490.81 285.5 490.19L400.5 489.5L401.08 461.5C401.64 434.34 402.22 428 404.13 428C404.64 428 405.53 429.24 406.11 430.75C407.39 434.1 408.92 458.67 408.97 476.75L409 490L653.25 489.75L897.5 489.5L898.13 460.5C898.92 423.98 901.78 389.34 907.58 346C913.28 303.42 922.78 252.46 929.67 227.5C941.24 185.56 954.15 143.59 965.65 110.5C974.79 84.18 978.68 74.44 982.69 67.75L986.14 62L992.82 61.98C1180.19 61.48 1564.74 62.61 1700.7 64.05C1790.78 65.01 1818 65.69 1818 67C1818 69.55 1700.55 70.8 1348.5 72.02C1020.19 73.14 988.7 73.69 985.82 78.26C984.2 80.84 972.45 113.44 964.83 136.5C938.57 215.97 921.14 296.29 913.05 375.09C910.95 395.49 908.56 435.73 907.49 468.66C906.91 486.62 906.99 487.86 908.69 488.33C909.68 488.61 1090.05 488.99 1309.5 489.17L1708.5 489.5L1709.07 463.5C1709.44 446.97 1710.13 435.75 1710.96 432.7C1712.13 428.39 1712.53 427.92 1714.85 428.2C1718.63 428.64 1719.06 431.74 1719.69 462.75L1720.25 490L1776.37 490.08C1862.15 490.19 1905.64 491.31 1907.79 493.46C1910.74 496.41 1895.88 497.03 1807.34 497.65L1720.19 498.26L1719.84 525.42C1719.54 549.64 1719.3 552.89 1717.68 555.36C1716.26 557.53 1715.57 557.89 1714.5 557C1712.09 555 1711 547.05 1709.88 523.5C1709.28 510.85 1708.62 499.94 1708.42 499.25C1708.14 498.25 1627.18 498 1307.96 498L907.85 498L908.47 513.25C910.66 567.55 912.12 585 914.47 585C916.31 585 922.41 580.26 932.82 570.72C942.24 562.09 946.73 559.3 949.47 560.35C951.59 561.16 950.78 562.89 942.36 575.68C938.31 581.83 935 587.33 935 587.9C935 588.99 1087.58 589.43 1484.7 589.48C1636.12 589.49 1684.18 589.22 1685.08 588.32C1686.34 587.06 1685.72 585.77 1676.73 571C1671.85 562.99 1670.24 559 1671.87 559C1673.94 559 1689.39 571.52 1700.13 581.91C1710.66 592.09 1711.19 592.79 1710 595.01C1707.8 599.12 1682.39 622.42 1674.41 627.65C1668.76 631.35 1670.45 626.17 1679.69 611.45C1683.16 605.92 1686 600.9 1686 600.3C1686 598.69 1610.42 598.31 1251.25 598.13C1068.55 598.03 935 598.34 935 598.85C935 599.33 935.92 600.9 937.04 602.32C940.78 607.08 950 623.37 950 625.23C950 628.2 947.21 628.41 943.23 625.73C941.18 624.36 934.38 618.45 928.12 612.61C921.86 606.78 916.35 602 915.87 602C911.03 602 927.84 702.1 942.65 761.5C948.88 786.49 964.72 840.98 973.46 867.5C974.72 871.35 978.58 883.5 982.04 894.5C985.49 905.5 988.8 914.83 989.4 915.23C990.01 915.64 1148.22 915.98 1341 916C1662.88 916.03 1811.93 916.87 1818.82 918.71C1821.31 919.37 1821.17 919.49 1817 920.34C1812.88 921.17 1077.66 922.03 1009.86 921.28ZM572.53 725.86C561.23 724.14 556.44 720.75 551.47 710.95C542.6 693.45 541.57 657.25 549.38 637.9C554.93 624.17 559.58 620.96 574.96 620.22C592.49 619.37 599.66 623.45 607.05 638.45C611.28 647.03 612.34 655.5 611.71 675.5C610.99 698.5 608.21 708.48 600.07 717.31C593.43 724.51 583.66 727.55 572.53 725.86ZM696.78 725.99C694.18 725.54 689.62 724.06 686.63 722.69C666.65 713.54 659.61 685.5 671.18 661.15C675.33 652.42 680.35 647.61 687.12 645.9C693.95 644.18 711.33 644.13 716.2 645.83C720.55 647.35 725.02 652.13 728.5 659C731.31 664.55 731.68 667.8 729.58 668.61C727.49 669.41 724.48 667.5 717.3 660.81C707.17 651.39 701.46 649.98 692.19 654.59C682.79 659.28 677.7 668.22 676.42 682.3C674.74 700.88 684.86 715 699.86 715C706.92 715 712.13 712.21 719.65 704.39C724.9 698.93 726.3 698 729.29 698C731.56 698 733 698.56 733.4 699.59C735.72 705.65 715.19 724.35 704 726.35C702.62 726.6 699.38 726.44 696.78 725.99ZM1277.41 725.89C1261.97 722.33 1251.37 706.59 1248.86 683.5C1246.57 662.39 1252.28 635.96 1261.22 626.3C1264.5 622.76 1271.76 619.9 1279.06 619.29C1296.91 617.8 1308.93 627.04 1315.71 647.5C1318.11 654.73 1318.37 656.99 1318.41 671C1318.47 688.42 1317.32 695.41 1312.85 704.58C1305.26 720.19 1290.69 728.94 1277.41 725.89ZM1400.78 725.97C1375.07 721.64 1362.21 692.77 1373.52 664.79C1376.84 656.59 1381.92 649.74 1386.21 647.7C1394.35 643.84 1413.56 643.12 1421.38 646.38C1428.72 649.45 1438.25 666.81 1433.58 668.61C1431.49 669.41 1428.48 667.5 1421.3 660.81C1411.17 651.39 1405.46 649.98 1396.19 654.59C1385.73 659.81 1380.7 669.64 1380.65 685C1380.59 700.08 1385.46 709.37 1395.65 713.63C1404.12 717.17 1415.81 713.82 1421.92 706.1C1429.32 696.76 1440.27 694.9 1436.99 703.54C1435.57 707.25 1427.33 715.69 1420.73 720.18C1415.62 723.65 1407.87 727.21 1406.12 726.88C1405.78 726.82 1403.38 726.41 1400.78 725.97ZM470.26 721.99C462.7 720.88 462 720.46 462 716.97C462 707.53 475.66 691.4 495.18 677.78C513.51 664.99 521.01 656.42 520.99 648.28C520.98 638.89 514.79 630.95 506.06 629.09C494.75 626.69 483.93 631.66 479.44 641.31C478.11 644.16 477.02 647.2 477.01 648.06C477 648.92 475.64 650.93 473.98 652.52L470.96 655.41L468.82 653.27C463.73 648.18 469.5 629.13 478.04 622.81C483.98 618.41 508.42 618.26 517.49 622.56C526.22 626.71 531.49 635.73 532.69 648.61C533.21 654.15 532.98 655.36 530.62 659.39C527.48 664.74 518.13 673.14 497.37 689.29C482.43 700.9 477 706.61 477 710.7C477 711.85 477.79 713.14 478.75 713.57C479.71 714 491.56 714.88 505.07 715.52C518.59 716.17 530.43 717.14 531.39 717.68C534.44 719.38 530.94 720.98 521.86 722.02C512.19 723.14 477.97 723.11 470.26 721.99ZM797.28 721.75C795.18 719.03 794.8 715.6 793.99 691.39C793.53 677.58 792.63 664.35 792 661.98C791.36 659.62 789.56 656.41 788 654.84C785.65 652.49 784.31 652 780.33 652.02C774.35 652.05 768.4 654.67 763.74 659.32C759.26 663.81 757.53 670.9 756.04 690.79C754.65 709.37 753.09 719.68 751.44 721.05C749.08 723.01 748.5 715.75 748.5 684C748.5 650.9 749.1 643.68 751.8 644.2C753.23 644.47 754.22 646.44 755.58 651.69C755.78 652.45 758.56 651.49 763.32 649.03C775.86 642.54 790.03 642.58 797.49 649.13C799.29 650.71 801.49 652 802.37 652C803.25 652 806.74 650.55 810.13 648.77C815.67 645.87 817.33 645.5 826.51 645.16C838.46 644.72 844 646.49 848.27 652.13C853.58 659.15 854.5 665.08 854.5 692.54C854.5 715.04 854.32 717.87 852.69 720.35C851.64 721.95 850.16 722.99 849.19 722.8C845.57 722.1 844.76 717.45 843.95 692.59C843.07 665.84 841.94 659.79 836.88 654.73C834.05 651.89 833.67 651.8 826.04 652.15C816.99 652.56 813.9 654.21 810.32 660.54C807.11 666.2 805.86 675.11 805.08 697.63C804.51 714.16 804.09 718.22 802.67 720.38C800.81 723.22 798.81 723.73 797.28 721.75ZM1214.64 721.5C1213.14 720 1212.18 714.24 1211.74 704L1211.5 698.5L1192 697.94C1171.71 697.36 1168 696.6 1168 693.01C1168 686.67 1200.06 636.06 1211.87 623.75C1214.37 621.14 1217.24 619 1218.24 619C1221.62 619 1222.29 623.75 1223.05 653.14C1223.93 687.39 1223.63 686.31 1233.25 690.57C1235.31 691.48 1237 692.83 1237 693.56C1237 695.47 1232.99 698 1229.97 698C1225.08 698 1224.04 699.78 1223.12 709.77C1222.05 721.47 1218.93 725.78 1214.64 721.5ZM1453.88 720.78C1452.26 717.75 1451.34 688.96 1452.16 667.12C1453.03 644.26 1454.43 640.57 1460 646.5C1462.83 649.52 1464.4 649.6 1470.2 647.03C1480.43 642.51 1493.4 643.55 1501.74 649.57C1508.59 654.52 1508.45 654.51 1513.6 650.58C1527.53 639.95 1549.41 642.49 1555.03 655.39C1562.12 671.68 1560.59 722.5 1553.01 722.5C1549.6 722.5 1548.76 717.28 1547.95 691.09C1547.51 676.84 1546.64 663.76 1545.99 661.58C1545.34 659.42 1543.54 656.38 1541.98 654.83C1539.42 652.27 1538.5 652 1532.22 652C1516.72 652 1512.58 660.09 1509.5 696.34C1507.91 715.15 1507.36 718.7 1505.7 720.8C1503.32 723.81 1502.65 719.12 1501.03 688C1499.95 667.09 1498.47 661.24 1492.89 655.66C1489.08 651.84 1488.86 651.77 1482.99 652.19C1475.36 652.75 1469.64 656.51 1466.16 663.27C1463.85 667.77 1463.67 669.34 1462.95 691.76C1462.17 715.84 1461.87 718.13 1459.19 721.25C1457.16 723.62 1455.31 723.45 1453.88 720.78ZM584.6 713.53C590.23 711.85 595.11 707.39 597.46 701.77C600 695.68 600.91 681.86 599.95 663.97C599.47 654.91 598.57 645.78 597.97 643.68C595.81 636.19 584.37 626.97 577.28 627.02C572.94 627.04 566.8 631.09 563.38 636.19C561.67 638.74 559.21 644.58 557.92 649.16C554.7 660.61 554.63 683.53 557.79 695.15C560.2 704.04 564.21 712.44 566.74 713.91C569.33 715.42 578.91 715.22 584.6 713.53ZM1293.83 712.01C1310.14 700.2 1311.72 653.26 1296.42 635.08C1293.18 631.23 1285.16 627 1281.11 627C1277.26 627 1270.18 632.4 1267.3 637.53C1262.51 646.07 1260.52 656.31 1260.51 672.5C1260.5 689.64 1262.38 697.92 1268.24 706.54C1272.39 712.64 1276.81 715 1284.08 715C1288.73 715 1290.41 714.49 1293.83 712.01ZM1207.73 687.36C1209.6 685.96 1210.75 683.9 1211.35 680.9C1212.61 674.53 1211.13 642 1209.58 642C1208.12 642 1192.37 665.99 1186.92 676.54C1180.57 688.81 1181.52 690.24 1195.74 689.74C1203.16 689.47 1205.52 689 1207.73 687.36ZM392.5 403.18C384.14 400.66 380.42 398.52 375.03 393.12C366.65 384.74 363 373.92 363 357.41C363 340.72 366.79 327.15 374.9 314.79C383.33 301.95 393.19 294.54 405.13 292.07C412.57 290.53 429.99 290.52 434.73 292.05C439.87 293.7 450.12 301.1 453.91 305.89C458.43 311.59 459.83 316.57 461 330.94C462.09 344.5 461.35 353.93 458.56 361.83C452.05 380.28 437 396.6 421.39 402.15C413.14 405.08 400.32 405.54 392.5 403.18ZM1717.01 399.51C1715.12 397.23 1716.24 388.68 1722.64 356.5C1727.83 330.4 1732.99 308.86 1736.27 299.56C1739.33 290.88 1744.01 292.58 1743.98 302.37C1743.95 315.25 1730.51 378.26 1724.73 392.65C1722.08 399.23 1719.03 401.95 1717.01 399.51ZM412.53 393.91C427.42 391.16 438.94 380.09 446.05 361.7C450.29 350.72 451.28 341.52 449.49 329.6C446.71 311.09 440.76 304.38 424.95 301.92C417.16 300.72 408.48 301.37 403.21 303.56C398.09 305.69 391.24 311.8 386.53 318.44C376.8 332.18 373.6 342.56 374.18 358.5C374.5 367.13 374.97 369.39 377.62 375C379.3 378.57 381.84 382.87 383.26 384.55C387.5 389.56 397.13 394.02 405.57 394.89C406.15 394.95 409.28 394.51 412.53 393.91ZM1901.01 244.02C1899.22 240.67 1898.04 218.83 1898.06 189C1898.07 158.77 1899.16 140.71 1901.13 138.34C1901.91 137.41 1903.77 137.01 1906.41 137.2C1910.34 137.49 1910.54 137.67 1911.67 142C1912.31 144.47 1912.88 153.7 1912.94 162.5C1913.1 188.13 1914.98 196.59 1921.63 201.67C1925.64 204.72 1927.7 204.41 1934.62 199.72C1937.92 197.48 1940.29 194.82 1941.94 191.53C1944.26 186.9 1944.4 185.49 1944.94 163.08C1945.25 150.11 1945.86 138.94 1946.31 138.25C1947.52 136.37 1955.48 136.67 1957.13 138.65C1958.17 139.91 1958.77 147.95 1959.61 172.21C1960.27 191.29 1961.14 204.54 1961.75 205.15C1962.94 206.34 1965.9 205.03 1970.33 201.35C1977.26 195.58 1979.88 201.81 1973.49 208.88C1968.94 213.92 1965.31 215.36 1958.56 214.8C1954.04 214.42 1952.44 213.73 1949.06 210.67C1946.82 208.65 1944.31 207 1943.47 207C1942.63 207 1938.72 208.69 1934.78 210.75C1927.89 214.36 1927.24 214.5 1917.56 214.5L1907.5 214.5L1908 219.5C1908.28 222.25 1908.5 228.39 1908.5 233.15C1908.5 240.25 1908.16 242.17 1906.6 243.9C1904.21 246.53 1902.38 246.57 1901.01 244.02ZM1879.82 241.28C1873.26 234.29 1865.65 219.04 1862.69 206.97C1859.62 194.41 1858.71 184.09 1859.31 168.59C1859.97 151.67 1862.21 139.58 1866.98 127.22C1872.42 113.09 1881.19 101.79 1884.29 104.89C1885.58 106.18 1884.49 109.61 1877.58 126.16C1872.42 138.52 1869.93 150.97 1869.28 167.62C1868.4 190.26 1871.49 206.36 1880.63 226.79C1883.65 233.55 1885.99 240.07 1885.81 241.28C1885.36 244.47 1882.82 244.47 1879.82 241.28ZM2350.46 242.94C2349.45 241.31 2350.7 237.5 2356.51 224.5C2365.44 204.5 2368.66 187.79 2367.68 166.57C2366.93 150.36 2363.99 138.37 2356.45 120.81C2350.72 107.47 2350.09 105 2352.43 105C2355.41 105 2365.71 120.48 2370.56 132.25C2378.56 151.68 2380.21 182.4 2374.43 204.61C2370.77 218.7 2361.2 237.34 2355.22 242.04C2352.39 244.26 2351.4 244.45 2350.46 242.94ZM97.08 230.6C94.78 227.83 93.93 216.43 93.52 183C93.13 150.33 94.06 128.63 96.01 124.97C97.58 122.04 102.84 121.39 105.28 123.84C107.17 125.72 107.4 127.64 108.14 147.56C109.28 178.28 110.14 181.96 117.53 187.59C121.09 190.31 121.12 190.31 124.77 188.57C130.17 186 135.84 181.21 137.71 177.64C139.04 175.1 139.48 169.93 140.02 150.5C140.39 137.3 141.03 125.71 141.45 124.74C143.1 120.97 151.01 121.32 153.17 125.26C154.02 126.81 154.6 136.74 155.04 157.51C155.73 189.94 156.21 193.01 160.29 190.86C161.51 190.22 164.07 188.41 165.98 186.85C169.84 183.69 171.52 183.3 172.32 185.4C173.87 189.43 169.64 196.03 163.68 198.91C156.29 202.49 148.31 201.15 142.95 195.44C139.86 192.16 137.23 192.36 129.75 196.48C122.82 200.28 118.3 200.94 108.59 199.57L102.69 198.73L103.55 207.12C104.79 219.18 104.36 226.03 102.2 228.93C99.89 232.03 98.61 232.44 97.08 230.6ZM76.4 228.23C70.78 223.62 61.47 205.55 58.14 192.8C50.88 165.03 53.83 130.21 65.54 105.49C69.43 97.28 75.98 89.65 78.68 90.19C81.24 90.7 80.63 93.61 75.43 105.58C61.02 138.75 60.54 177.13 74.13 208.37C81.93 226.32 82.19 227.07 80.94 228.57C79.44 230.38 78.98 230.35 76.4 228.23ZM426.4 227.59C425.46 225.14 427.51 218.94 432.61 208.78C440.73 192.62 441.49 188.28 441.5 158.5C441.5 128.42 441.14 126.54 431.47 106.85C425.85 95.41 424.62 90 427.63 90C434.15 90 448 118.32 452.56 140.96C455.78 156.93 453.12 182.83 446.42 200.86C443.31 209.22 436 220.85 430.66 225.92C427.53 228.89 426.98 229.1 426.4 227.59ZM1490 225.36C1485.02 224.39 1476.69 220.88 1472.52 218.01C1457.12 207.42 1451.02 190.84 1452.29 163.06C1452.98 148.05 1455.23 139.88 1461.08 131.12C1468.12 120.58 1476.59 114.85 1488.16 112.81C1497.51 111.17 1516.77 113.2 1523.68 116.56C1533.77 121.47 1546.73 138.9 1544.03 143.94C1541.17 149.29 1536.33 148.52 1533.11 142.22C1529.97 136.09 1523.26 129.27 1517.71 126.59C1504.87 120.38 1485.95 121.22 1476.51 128.43C1472.68 131.34 1467.73 140.43 1465.56 148.5C1463.06 157.86 1462.48 173.09 1464.28 182.5C1467.5 199.29 1472.67 207.82 1482.21 212.08C1486.77 214.12 1489.09 214.45 1499 214.47C1513.53 214.49 1517.89 213.22 1523.61 207.33C1531.28 199.45 1538.2 182.07 1534.81 179.26C1532.99 177.75 1522.07 176.02 1514.32 176.01C1506.59 176 1503 174.73 1503 172C1503 168.55 1507.37 167.69 1527.24 167.22C1542.6 166.86 1546.08 167.04 1546.51 168.17C1546.81 168.93 1547.15 180.67 1547.27 194.24C1547.5 218.43 1547.46 218.96 1545.31 221.12C1543.24 223.2 1543 223.23 1540.63 221.68C1538.82 220.49 1537.94 218.78 1537.45 215.52C1536.57 209.63 1534.85 209.64 1527.59 215.56C1518.72 222.78 1512.32 225.25 1501.59 225.57C1496.59 225.73 1491.38 225.63 1490 225.36ZM1609.59 224.49C1599.59 220.67 1595 213.58 1595 201.98C1595 187.67 1598.46 184.66 1621.41 179.02C1641.82 174.01 1649.3 169.67 1647.47 163.9C1646.55 161 1641.19 155.15 1637.9 153.45C1636.35 152.65 1632.37 152 1629.01 152C1621.13 152 1616.47 154.35 1607.76 162.71C1604.05 166.26 1600.45 168.99 1599.76 168.76C1596.22 167.6 1599.56 155.71 1604.86 150.64C1609.23 146.44 1617.93 144 1628.48 144C1644.4 144 1653.32 148.4 1655.92 157.55C1656.54 159.72 1657.71 170.05 1658.52 180.5C1660.36 204.25 1661.71 212.69 1664.23 216.09C1665.82 218.25 1665.98 219.16 1665.08 220.86C1662.88 224.96 1660.91 225.06 1653.54 221.41C1649.75 219.54 1646.07 218 1645.37 218C1644.67 218 1640.36 219.65 1635.8 221.66C1626.06 225.95 1616.21 227.01 1609.59 224.49ZM1699.05 224.94C1691.69 223.45 1684.15 219.19 1680.89 214.68C1678.21 210.99 1677.95 209.95 1678.21 204.05C1678.59 195.6 1680.41 195 1684.49 201.99C1689.35 210.3 1697.74 214.88 1708.29 214.96C1714.93 215.01 1720.76 212.54 1723.35 208.59C1728.5 200.72 1721.39 194.03 1701 187.56C1689.75 183.99 1682.03 180.11 1679.66 176.82C1675.72 171.38 1676.49 160.98 1681.41 153.18C1687.44 143.63 1708.15 141.07 1722.22 148.14C1732.81 153.46 1737.34 164.23 1730.75 168.39C1728.39 169.88 1724.2 167.31 1722.01 163.03C1718.3 155.81 1711.65 152 1702.75 152C1694.36 152 1690 156.54 1690 165.28C1690 172.02 1694.15 174.96 1712 180.87C1730.46 186.99 1735 191.16 1735 202C1735 212.27 1729.51 219.71 1719.58 222.91C1711.89 225.38 1704.74 226.09 1699.05 224.94ZM1773.31 224.98C1770.45 224.57 1766.1 223.26 1763.65 222.07C1753.21 217.02 1744.48 202.17 1749.5 198C1752.09 195.85 1756.72 198.65 1760.82 204.85C1765.43 211.81 1769.3 214.09 1777.54 214.76C1789.13 215.69 1798 210.04 1798 201.74C1798 197.05 1794.48 194.09 1784.83 190.64C1780.8 189.21 1773.57 186.63 1768.78 184.93C1763.98 183.23 1758.86 180.89 1757.41 179.75C1749.97 173.89 1750.23 158.05 1757.9 149.99C1765.31 142.2 1780.94 141.15 1794.34 147.54C1802.79 151.56 1807.98 160.44 1805.07 165.88C1803.33 169.12 1801.64 168.49 1796.22 162.55C1789.6 155.31 1784.99 152.32 1779.19 151.53C1773.2 150.7 1766.88 152.99 1764.9 156.69C1764.13 158.12 1763.59 161.29 1763.68 163.75C1763.97 171.17 1767.82 174.07 1786.72 181.08C1803.31 187.24 1809.01 192.39 1808.99 201.22C1808.97 216.96 1792.74 227.76 1773.31 224.98ZM1569.61 221.7C1566.74 219.61 1565.8 202.37 1566.26 160.5C1566.71 119.46 1567.25 114.61 1571.3 115.19C1576.3 115.9 1576.5 117.91 1576.5 167.5C1576.5 202.72 1576.2 214.36 1575.2 217.17C1573.48 222.02 1571.85 223.34 1569.61 221.7ZM506.31 214.36C505.12 211.26 507.86 203.35 532.64 138.5C543.18 110.91 547.63 105.06 555.03 109.02C559.01 111.15 561.9 117.74 581.37 169.09C592.93 199.58 596.7 211.66 595.34 213.82C591.45 220 583.54 209.75 578.5 192C577.48 188.43 576.22 184.93 575.69 184.23C574.95 183.26 569.18 183.03 550.7 183.23L526.68 183.5L523.4 193.44C519.36 205.66 517.44 209.36 513.22 213.09C509.52 216.36 507.24 216.78 506.31 214.36ZM2298.05 214.96C2287.95 212.86 2277.72 205.31 2273.1 196.51C2270.38 191.36 2270.26 186 2272.86 186C2275.66 186 2281.77 190.45 2288.77 197.58C2296.69 205.65 2299.97 207.41 2305.67 206.63C2318.56 204.86 2327 194.69 2327 180.91C2327 165.6 2317.5 154.99 2303.78 155.01C2296.34 155.01 2291.44 156.61 2287.18 160.42C2283.82 163.42 2279.88 166 2278.64 166C2276.77 166 2275 162.28 2275 158.33C2275 153.75 2280.26 120.62 2282.07 113.79C2283.38 108.87 2285.35 108.5 2310.04 108.5C2327.27 108.5 2329.92 108.72 2332.37 110.32C2334.93 112 2335.04 112.31 2333.72 114.32C2331.46 117.75 2326.16 118.91 2307.82 119.95C2298.43 120.49 2290.56 121.1 2290.35 121.32C2290.06 121.6 2286.03 144.23 2286 145.66C2286 145.75 2293.35 145.98 2302.33 146.16C2318.22 146.49 2318.76 146.57 2322.83 149.26C2332.13 155.42 2338.17 167.59 2338.33 180.5C2338.45 190.19 2336.48 196.53 2331.21 203.5C2324.31 212.61 2310.22 217.48 2298.05 214.96ZM611.01 213.51C608.99 211.07 607.75 188.09 608.39 165C609.08 140.15 609.53 137.63 613.25 137.19C618.27 136.6 618.5 138.29 618.5 176.15C618.5 208.81 618.39 210.91 616.6 212.9C614.35 215.38 612.71 215.56 611.01 213.51ZM638.73 212.25C637.04 208.48 637.1 143.74 638.79 139.75C639.69 137.62 640.63 137 642.94 137C646.25 137 648 139.22 648 143.43C648 146.36 649.15 146.73 651.08 144.41C653.98 140.9 662.42 137.02 667.14 137.01C676.34 136.99 673.98 142.14 661.88 148.5C650.81 154.31 649.11 159.31 648.04 189.19C647.44 205.98 646.99 210.37 645.63 212.44C643.41 215.83 640.28 215.75 638.73 212.25ZM1634.73 211.36C1643.28 207.29 1647.98 200.02 1647.99 190.82C1648 185.2 1645.85 183.67 1639.08 184.48C1629.65 185.61 1616.37 188.77 1612.28 190.86C1606.2 193.96 1604.28 200.94 1607.42 208.47C1608.52 211.1 1609.72 212.11 1612.67 212.92C1621.71 215.4 1627.04 215.03 1634.73 211.36ZM2186.3 208.34C2184.86 205.05 2184.56 199.32 2184.2 168.13L2183.78 131.76L2173.92 132.46C2162.31 133.28 2160 132.78 2160 129.47C2160 127.45 2160.81 126.84 2165.18 125.54C2168.03 124.69 2170.82 124 2171.38 124C2173.98 124 2180.38 118.19 2182.59 113.83C2184.26 110.53 2185.82 108.83 2187.59 108.39C2194.38 106.68 2195.24 113.43 2194.83 164.93C2194.51 204.43 2194.43 205.95 2192.44 208.61C2189.41 212.67 2188.16 212.61 2186.3 208.34ZM2239.65 210.17C2237.18 207.44 2237.56 202.35 2240.45 199.45C2243.45 196.45 2244.41 196.41 2247.11 199.11C2249.76 201.76 2249.13 207.63 2245.92 210.25C2243.2 212.48 2241.72 212.46 2239.65 210.17ZM382.45 195.57C380.34 192.35 380.02 186.35 379.7 144L379.5 117.5L376 117.65C374.07 117.73 369.04 117.95 364.81 118.15C356.39 118.53 353.64 117.38 355.59 114.28C356.71 112.51 359.19 111.55 365.27 110.53C369.83 109.77 374.94 105.48 378.47 99.47C381.48 94.33 385.48 92.57 387.6 95.46C389.93 98.66 390.49 108.1 390.49 145C390.5 185.27 390 191.72 386.57 195.72L384.29 198.37L382.45 195.57ZM2026 182.38C2020.16 181.35 2019 180.89 2019 179.59C2019 177.52 2023.8 177.09 2054 176.41C2091.37 175.56 2111.11 177.5 2102.41 181.15C2100.34 182.02 2089.29 182.44 2064 182.6C2044.47 182.72 2027.38 182.62 2026 182.38ZM567.45 169.98C568.81 168.62 568.56 167.3 565.14 157.48C560.12 143.08 552.52 127 550.73 127C548.37 127 534 162.13 534 167.91C534 169.33 534.84 170.15 536.75 170.57C538.26 170.9 539.95 171.35 540.5 171.56C541.05 171.77 547 171.84 553.71 171.72C563.09 171.55 566.28 171.15 567.45 169.98ZM225.5 168.4C223.85 168.17 220.59 167.74 218.25 167.43C211.88 166.6 212.71 164.33 219.75 163.32C227.17 162.26 291.31 162.25 296.31 163.31C300.89 164.28 300.71 166.11 295.93 167.3C292.39 168.18 230.85 169.14 225.5 168.4ZM2028 157.5C2027.17 157.29 2024.36 156.85 2021.75 156.5C2016.19 155.77 2015.35 153.56 2020.25 152.58C2022.04 152.22 2036.78 151.67 2053 151.35C2092.01 150.6 2111.2 152.46 2102.41 156.15C2100.35 157.02 2089.33 157.44 2064.5 157.62C2045.25 157.75 2028.83 157.7 2028 157.5ZM220 142.83C213.8 141.94 210.96 140.71 212.21 139.46C215.66 136 296.36 136.03 299.82 139.49C301.28 140.94 297.33 142.36 289.81 143.08C278.52 144.16 228.06 143.98 220 142.83ZM609.4 119.49C607.66 116.83 608.01 111.89 610.13 109.35C612.69 106.26 619 108.88 619 113.04C619 114.99 613.47 122 611.92 122C611.44 122 610.31 120.87 609.4 119.49Z" fill="#1e2749" fill-rule="evenodd"/>
</svg>
