<?xml version="1.0" encoding="UTF-8"?>
<svg xmlns="http://www.w3.org/2000/svg" viewBox="0 0 346 115" width="346" height="115" shape-rendering="geometricPrecision">
<path d="M185.17 113.75C65.92 113.67 57.81 113.63 57.42 113.1C57.11 112.69 57 110.5 57 104.94L57 97.33L40.54 97.33C27.07 97.33 24.01 97.25 23.71 96.88C23.43 96.55 23.35 89.11 23.41 69.46L23.5 42.5L96.07 42.42C164.76 42.34 168.66 42.3 168.95 41.75C169.12 41.43 169.21 40.01 169.16 38.6C169.05 35.59 169.45 34.68 170.61 35.3C171.32 35.68 171.33 35.85 171.33 42.46C171.33 48.83 171.29 49.27 170.66 49.84C169.62 50.78 169.2 50.04 169.18 47.25L169.17 44.83L97.42 44.75L25.67 44.67L25.67 69.84L25.67 95.01L41.25 94.92L56.83 94.83L57 84L57.17 73.17L188.33 73.17L319.5 73.17L319.67 84L319.83 94.83L331.04 94.92C340.21 94.99 342.31 94.93 342.62 94.55C342.9 94.22 342.98 87.52 342.92 69.46L342.83 44.83L260.07 44.75L177.31 44.67L177.35 49.87C177.39 54.12 177.3 55.18 176.89 55.59C176.61 55.86 176.15 56 175.86 55.89C175.39 55.71 175.33 54.16 175.33 42.01L175.33 28.33L176.33 28.33L177.33 28.33L177.33 34.81C177.33 38.37 177.42 41.52 177.54 41.81C177.72 42.28 185.4 42.33 261.12 42.34C306.98 42.34 344.7 42.47 344.94 42.63C345.31 42.86 345.37 47.64 345.28 69.65C345.17 95.66 345.15 96.4 344.52 96.86C343.99 97.25 341.72 97.33 331.99 97.33L320.1 97.33L319.9 100.82C319.79 102.73 319.79 106.15 319.9 108.42L320.1 112.54L319.17 113.27C318.36 113.91 317.89 113.99 315.37 113.92C313.79 113.87 255.2 113.8 185.17 113.75ZM317.21 110.96C317.58 110.65 317.67 107.41 317.67 93.15C317.67 82.99 317.54 75.63 317.36 75.52C317.2 75.41 259.11 75.33 188.28 75.33L59.5 75.33L59.41 93.04C59.36 103.53 59.45 110.91 59.64 111.13C60.08 111.66 316.57 111.49 317.21 110.96ZM124.08 105.4C123.29 105.28 122.68 103.85 123.21 103.33C123.37 103.17 124.09 103 124.8 102.94C125.74 102.86 126.28 102.59 126.75 101.96C127.85 100.48 127.59 99.18 125.24 94.33C124.05 91.86 123.18 89.71 123.32 89.56C123.46 89.41 124.31 89.34 125.2 89.4C126.8 89.5 126.83 89.52 126.73 90.51C126.67 91.12 127.05 92.46 127.66 93.82C128.55 95.79 128.76 96.05 129.15 95.64C129.89 94.88 131.03 91.09 130.8 90.16C130.61 89.4 130.69 89.33 131.74 89.33C132.37 89.33 132.97 89.41 133.06 89.51C133.16 89.6 132.65 91.14 131.93 92.92C131.21 94.71 130.31 97.05 129.94 98.12C129.56 99.19 129.05 100.47 128.8 100.95C128.54 101.44 128.34 101.99 128.34 102.19C128.33 102.76 126.08 105.24 125.43 105.39C125.1 105.46 124.5 105.47 124.08 105.4ZM134.51 105.22C133.92 104.78 133.92 104.74 134.62 104.05C135.29 103.37 135.33 103.02 135.33 97.78C135.33 93.12 135.25 92.12 134.79 91.62C134.5 91.29 134.34 90.8 134.44 90.53C134.69 89.9 136.86 89.47 137.44 89.95C137.75 90.21 138.13 90.17 138.81 89.82C140 89.2 141.11 89.2 142.32 89.83C143.51 90.44 144.67 91.88 144.67 92.74C144.67 93.72 145.42 93.28 146.07 91.94C147.61 88.7 152.54 88.52 154.15 91.63C155.17 93.61 154.16 94.33 150.36 94.33C147.75 94.33 147.67 94.36 147.67 95.12C147.67 96.22 149 98.06 150.05 98.41C150.93 98.7 152.38 98.25 153.73 97.27C154.62 96.62 154.86 97.25 154.11 98.26C152.84 99.98 151.34 100.74 149.57 100.58C147.65 100.4 146.31 99.28 145.66 97.32C145.15 95.76 144.85 95.67 144.41 96.92C143.56 99.35 140.91 100.99 138.64 100.49L137.67 100.28L137.67 102.1C137.67 103.61 137.79 104 138.42 104.43L139.17 104.94L138.23 105.3C136.95 105.8 135.26 105.76 134.51 105.22ZM78.08 100.45C77.09 100.24 77.13 99.54 78.17 98.86L79 98.32L79 92.62C79 87.04 78.98 86.91 78.17 85.94C76.93 84.47 77.08 84.24 79.08 84.5C81.24 84.79 81.55 85.07 85.59 90.26C87.34 92.51 88.93 94.3 89.13 94.23C89.36 94.16 89.54 92.78 89.59 90.62C89.68 87.36 89.63 87.04 88.85 85.9C88.4 85.22 88.05 84.65 88.09 84.62C88.33 84.48 92.55 84.44 92.78 84.57C92.93 84.66 92.7 85.11 92.28 85.56C91.53 86.36 91.49 86.64 91.33 93.27C91.19 99.2 91.09 100.17 90.64 100.26C90.3 100.33 88.56 98.42 85.71 94.85C83.29 91.81 81.16 89.33 80.98 89.33C80.8 89.33 80.67 91.25 80.67 93.98C80.67 98.4 80.7 98.65 81.4 99.14C81.93 99.52 82.04 99.76 81.78 100.02C81.36 100.44 79.2 100.69 78.08 100.45ZM118.74 100.44C117.74 100.04 117.33 98.38 117.33 94.7C117.33 92.62 117.19 90.95 117 90.83C116.42 90.47 116.66 89.53 117.65 88.39C118.73 87.12 119.7 87.08 119.99 88.29C120.09 88.73 120.6 89.25 121.17 89.5L122.17 89.94L121.08 90.38L120 90.81L120 94.38C120 98.52 120.12 99 121.2 99C122.2 99 122.22 99.47 121.26 100.15C120.53 100.66 119.56 100.77 118.74 100.44ZM174.5 100.35C173.49 99.93 172.46 98.64 172.01 97.22C171.49 95.63 171.81 92.81 172.64 91.54C174.63 88.51 179.22 88.71 180.54 91.89C181.32 93.74 180.72 94.14 176.95 94.28L173.93 94.4L174.14 95.43C174.42 96.87 175.21 97.97 176.23 98.36C177.27 98.75 178.15 98.51 179.56 97.46C180.75 96.57 181 96.5 181 97.05C181 97.71 179.35 99.64 178.33 100.17C177.29 100.71 175.57 100.79 174.5 100.35ZM184 100.42C182.72 100.2 182.47 99.77 183.18 98.99C184.14 97.92 184.22 92.71 183.29 91.52C182.92 91.06 182.71 90.53 182.82 90.35C183.16 89.81 185.38 89.54 186.06 89.96C186.54 90.26 186.89 90.23 187.66 89.84C189.04 89.13 190.33 89.21 191.25 90.08L192.04 90.82L193.34 90.08C195.02 89.11 196.39 89.13 197.56 90.14C198.47 90.92 198.5 91.05 198.61 94.8C198.71 98.29 198.79 98.72 199.43 99.16C200.07 99.61 200.21 99.59 200.9 98.94C201.59 98.29 201.67 97.92 201.67 95.15C201.67 92.83 201.54 91.98 201.17 91.67C200.42 91.04 200.56 90.36 201.52 89.99C202.79 89.51 203.9 89.6 204.13 90.19C204.24 90.48 204.33 92.55 204.33 94.79C204.33 97.52 204.47 99 204.73 99.27C205.45 99.98 204.49 100.47 202.59 100.37C200.16 100.24 199.41 100.24 197.6 100.38C195.68 100.53 194.94 99.99 195.77 99.06C196.22 98.58 196.33 97.77 196.33 95.26C196.33 91.63 196.1 91.23 194.11 91.4L192.83 91.5L192.74 95.12C192.67 97.56 192.77 98.89 193.04 99.22C193.66 99.96 192.92 100.44 191.17 100.44C189.28 100.44 188.65 99.94 189.44 99.06C189.88 98.58 190 97.78 190 95.29C190 93.28 189.85 91.99 189.6 91.73C189 91.13 186.78 91.22 186.54 91.86C186.15 92.85 186.31 98.85 186.73 99.27C187.47 100 185.78 100.72 184 100.42ZM208.96 99.85C208.3 99.41 207.56 98.55 207.3 97.94C206.7 96.52 206.73 93.45 207.35 92.18C208.04 90.77 210.23 89.36 211.74 89.34C214.31 89.32 216.43 91.18 215.33 92.5C214.66 93.31 214.06 93.08 213.17 91.67C212.58 90.73 212.09 90.33 211.55 90.33C209.19 90.33 208.23 95.38 210.19 97.49C211.1 98.47 213.3 98.67 214 97.83C214.23 97.56 214.7 97.33 215.05 97.33C215.62 97.33 215.64 97.42 215.26 98.16C215.02 98.61 214.31 99.36 213.68 99.82C212.2 100.92 210.54 100.93 208.96 99.85ZM220.81 100.35C218.42 99.35 216.92 96.05 217.63 93.38C218.11 91.58 218.42 91.16 220.07 90.12C222.66 88.49 226.17 89.52 227.58 92.32C228 93.14 228.33 94.21 228.33 94.71C228.33 96.17 227.17 98.46 225.95 99.39C224.72 100.33 221.98 100.85 220.81 100.35ZM229.83 100.43C228.74 100.17 228.56 99.77 229.13 98.95C229.88 97.88 229.91 91.83 229.17 91.55C228.46 91.28 228.54 90.42 229.31 90.01C230.16 89.56 231.77 89.57 232.24 90.04C232.51 90.31 232.81 90.27 233.38 89.87C234.92 88.79 236.85 89.43 237.84 91.34C238.18 92 238.33 93.32 238.33 95.58C238.33 97.69 238.48 99.01 238.73 99.27C239.39 99.92 238.54 100.44 236.83 100.44C234.95 100.44 234.32 99.94 235.11 99.06C235.55 98.58 235.67 97.78 235.67 95.29C235.67 93.28 235.52 91.99 235.27 91.73C234.67 91.14 232.78 91.23 232.54 91.86C232.15 92.85 232.31 98.85 232.73 99.27C232.98 99.52 233.02 99.78 232.82 99.96C232.39 100.36 230.66 100.64 229.83 100.43ZM243.17 100.35C241.7 99.75 240.32 97.25 240.35 95.26C240.38 93.32 241.4 91.27 242.84 90.26C243.93 89.49 244.46 89.34 245.83 89.41L247.5 89.5L247.61 88.22C247.68 87.33 247.52 86.73 247.11 86.27C246.52 85.62 246.53 85.58 247.31 84.95C247.81 84.54 248.5 84.34 249.14 84.4L250.17 84.5L250.34 91.33C250.43 95.09 250.62 98.4 250.76 98.69C251.26 99.68 250.02 100.23 246.83 100.44C245.18 100.54 243.53 100.51 243.17 100.35ZM254.09 100.16C253.07 99.44 252.67 97.69 252.67 93.94C252.67 92.14 252.52 90.61 252.33 90.5C252.15 90.39 252 90.06 252 89.77C252 89.35 252.27 89.28 253.38 89.43C254.14 89.53 254.89 89.81 255.04 90.06C255.2 90.3 255.33 92.18 255.33 94.23C255.33 97.16 255.44 98.06 255.86 98.48C256.56 99.18 256.78 99.14 257.97 98.14C258.98 97.29 259 97.21 259 94.35C259 91.93 258.88 91.28 258.33 90.58C257.97 90.11 257.67 89.64 257.67 89.53C257.67 89.22 259.54 89.3 260.48 89.66C261.33 89.98 261.33 90.01 261.33 93.81C261.33 95.98 261.5 98 261.72 98.47C262.41 99.99 260.65 100.95 259.04 99.95C258.56 99.64 258.26 99.68 257.64 100.12C256.65 100.81 255.04 100.82 254.09 100.16ZM266.01 100.08C264.26 99.21 263.28 97.27 263.42 95C263.49 93.99 263.76 92.72 264.02 92.18C264.74 90.71 266.89 89.36 268.53 89.34C271.16 89.32 273.28 91.74 271.56 92.8C270.94 93.18 270.84 93.1 269.31 90.96C268.14 89.32 265.67 91.45 265.67 94.1C265.67 95.54 266.71 97.82 267.51 98.13C268.45 98.48 269.85 98.35 270.52 97.84C271.24 97.3 272.33 97.17 272.33 97.62C272.33 97.78 271.66 98.53 270.84 99.29C269.14 100.85 267.94 101.05 266.01 100.08ZM275.96 100.03C275.23 99.44 275.17 99.13 275.07 95.45C275.01 93.28 274.81 91.1 274.62 90.6C274.32 89.84 274.4 89.54 275.22 88.51C276.36 87.07 277.44 87.02 277.6 88.4C277.67 88.99 277.93 89.33 278.37 89.4C279.25 89.54 279.26 90.09 278.37 90.5C277.68 90.82 277.65 91.01 277.74 94.83L277.83 98.83L278.75 98.94C279.86 99.07 279.92 99.45 278.93 100.15C277.93 100.84 276.91 100.8 275.96 100.03ZM283.81 100.35C281.42 99.35 279.92 96.05 280.63 93.38C281.11 91.58 281.42 91.16 283.07 90.12C285.66 88.49 289.17 89.52 290.58 92.32C291 93.14 291.33 94.26 291.33 94.82C291.32 96.34 290.25 98.4 288.96 99.38C287.72 100.33 284.98 100.85 283.81 100.35ZM292.69 100.37C291.62 100.08 291.5 99.59 292.33 98.84C292.91 98.31 293 97.82 293 95.17C293 92.53 292.91 92.02 292.33 91.5C291.43 90.68 291.49 90.46 292.72 90.03C294.11 89.55 295.24 89.57 295.42 90.08C295.53 90.39 295.75 90.34 296.23 89.92C297.34 88.93 299.33 89.41 299.33 90.66C299.33 91.57 298.42 91.98 297.19 91.63C295.67 91.19 295.33 91.87 295.33 95.45C295.33 97.79 295.46 98.58 295.89 99.06C296.23 99.44 296.33 99.8 296.14 99.97C295.69 100.39 293.62 100.63 292.69 100.37ZM163.89 100.11C163.55 99.77 163.62 97.33 163.98 97.33C164.15 97.33 164.56 97.68 164.9 98.11C165.5 98.88 166.7 99.67 167.23 99.66C167.38 99.66 167.86 99.38 168.29 99.04C169.32 98.25 168.9 97.39 166.88 96.21C163.64 94.31 162.83 92.12 164.69 90.26C165.64 89.31 165.82 89.26 167.54 89.43C169.64 89.65 170.33 90.09 170.33 91.19C170.33 92.43 169.68 92.49 168.72 91.34C168.01 90.5 167.62 90.3 166.83 90.39C166.03 90.48 165.81 90.68 165.73 91.4C165.64 92.15 165.87 92.48 167.01 93.24C171.11 95.99 171.8 97.33 170.14 99.31C169.31 100.29 169.17 100.33 166.69 100.33C165.27 100.33 164.01 100.23 163.89 100.11ZM140.69 98.99C142.78 97.87 142.89 93.01 140.85 91.59C140.24 91.16 138.73 91.31 138.19 91.86C137.79 92.25 137.67 93.09 137.67 95.33C137.67 97.57 137.79 98.41 138.19 98.81C138.79 99.41 139.76 99.48 140.69 98.99ZM224.43 98.75C225.38 97.7 225.73 96.25 225.49 94.35C225.32 92.91 225.04 92.31 224.17 91.43C222 89.27 220.36 90.4 220.34 94.06C220.33 97.45 221.27 99.33 223 99.33C223.49 99.33 224.13 99.07 224.43 98.75ZM287.43 98.75C288.38 97.7 288.73 96.25 288.49 94.35C288.32 92.91 288.04 92.31 287.17 91.43C285 89.27 283.36 90.4 283.34 94.06C283.33 97.45 284.27 99.33 286 99.33C286.49 99.33 287.13 99.07 287.43 98.75ZM247.15 98.26C247.51 97.74 247.67 96.72 247.67 94.8C247.67 92.56 247.55 91.94 246.98 91.21C245.02 88.73 242.54 91.76 243.16 95.88C243.55 98.51 245.96 99.95 247.15 98.26ZM98.73 94.6C98.18 94.05 98.23 93.44 98.86 93.2C99.75 92.86 109.57 92.98 110.52 93.34C111.39 93.67 111.4 93.7 110.83 94.34C110.28 94.95 109.78 95 104.68 95C100.81 95 99.01 94.88 98.73 94.6ZM151.23 92.45C151.57 91.57 150.86 90.83 149.67 90.83C148.47 90.83 147.76 91.57 148.1 92.45C148.25 92.84 148.72 93 149.67 93C150.61 93 151.08 92.84 151.23 92.45ZM177.67 92.49C178.02 92.08 177.98 91.87 177.48 91.31C176.34 90.05 173.87 90.98 174.44 92.45C174.71 93.17 177.09 93.2 177.67 92.49ZM201.72 86.37C201.48 86.22 201.33 85.73 201.39 85.3C201.48 84.63 201.69 84.5 202.66 84.5C203.52 84.5 203.85 84.66 203.94 85.1C204.17 86.29 202.82 87.07 201.72 86.37ZM171.15 25.58C171.03 25.17 170.66 24.53 170.34 24.17C170.01 23.8 169.57 22.94 169.35 22.25C169.13 21.57 168.81 20.92 168.64 20.82C168.47 20.71 168.33 20.28 168.33 19.86C168.33 19.44 168.06 18.73 167.72 18.29C167.02 17.38 165.33 13.78 165.33 13.19C165.33 12.97 164.96 12.46 164.5 12.06C162.99 10.75 163.38 10.43 166.42 10.51C169.69 10.59 169.57 10.57 169.07 11.07C168.47 11.66 168.58 13.15 169.33 14.59C169.7 15.29 170.12 16.53 170.27 17.36C170.44 18.26 170.91 19.21 171.44 19.74C172.5 20.8 172.35 20.99 174.34 16.1C175.8 12.53 175.9 11.94 175.17 11.33C174.89 11.11 174.67 10.8 174.67 10.64C174.67 10.26 178.64 10.36 178.88 10.74C178.99 10.91 178.68 11.46 178.2 11.96C177.72 12.46 177.33 13.14 177.33 13.47C177.33 13.81 176.67 15.67 175.86 17.62C175.05 19.57 174.22 21.73 174.01 22.41C173.79 23.1 173.48 23.74 173.3 23.85C173.13 23.96 172.77 24.56 172.51 25.19C171.96 26.51 171.47 26.65 171.15 25.58Z" fill="#1e2749" fill-rule="evenodd"/>
</svg>
