<?xml version="1.0" encoding="UTF-8"?>
<svg xmlns="http://www.w3.org/2000/svg" viewBox="0 0 598 237" width="598" height="237" shape-rendering="geometricPrecision">
<path d="M87.85 230.37C87.75 230.2 86.54 229.66 85.17 229.16C83.79 228.66 82.29 227.87 81.84 227.41L81 226.58L80.92 202.54L80.83 178.5L70.92 178.41L61 178.32L60.08 179.34L59.17 180.36L55.5 179.1L51.83 177.83L51.83 176.67L51.83 175.52L55.17 174.28C57 173.6 58.77 173.03 59.09 173.02C59.43 173.01 59.99 173.5 60.38 174.17L61.07 175.33L70.63 175.33C77.63 175.33 80.31 175.23 80.6 174.93C80.9 174.64 81 171.15 81 161.31L81 148.08L80.25 147.88C79.84 147.77 75.35 147.67 70.28 147.67L61.07 147.67L60.38 148.83C60 149.48 59.42 150 59.09 150C58.76 150 56.99 149.44 55.16 148.75C51.84 147.5 51.83 147.49 51.83 146.36C51.83 145.24 51.88 145.2 54.5 144.23C55.97 143.69 57.84 143.22 58.66 143.2C59.98 143.17 60.2 143.28 60.59 144.08L61.04 145L70.64 145C78.36 145 80.33 144.91 80.63 144.54C80.9 144.22 80.98 140.34 80.92 130.83L80.83 117.58L70.19 117.61L59.55 117.65L59.12 118.66C58.54 120.05 58.06 120.15 55.97 119.31C54.98 118.91 53.7 118.45 53.12 118.29C51.59 117.85 50.33 116.74 50.33 115.83C50.33 115.18 50.66 114.93 52.25 114.34C53.3 113.95 54.96 113.31 55.94 112.92C58.11 112.03 58.82 112.33 59.47 114.42C59.63 114.96 60.43 115 69.92 115C77.47 115 80.31 114.89 80.6 114.6C81.16 114.04 81.18 87.82 80.62 87.47C80.35 87.3 64.09 87.18 60.95 87.32C60.84 87.33 60.65 87.7 60.53 88.16C60.17 89.59 59.32 89.75 56.96 88.79C55.79 88.32 54.31 87.79 53.67 87.6C52.08 87.14 51.67 86.74 51.67 85.67C51.67 84.85 51.88 84.68 53.75 84.03C54.9 83.63 56.49 83.01 57.28 82.64C59 81.85 59.83 82.03 60.51 83.36L61.02 84.33L70.61 84.33C77.62 84.33 80.31 84.23 80.6 83.93C81.17 83.36 81.17 57.97 80.6 57.4C80.31 57.11 77.55 57 70.28 57L60.35 57L59.85 57.97C59.57 58.5 59.16 59 58.93 59.08C58.71 59.15 56.94 58.67 55.01 58.01C52.03 56.98 51.46 56.67 51.19 55.92C50.85 54.93 51.37 54.01 52.29 53.99C52.59 53.99 53.88 53.54 55.16 52.99C58.16 51.71 58.72 51.73 59.88 53.17L60.83 54.35L157.83 54.34C211.18 54.34 268.75 54.24 285.77 54.11L316.7 53.89L317.34 53.09C317.68 52.65 318.06 51.58 318.17 50.73C318.29 49.87 318.58 48.42 318.82 47.5C319.23 45.96 319.57 44.58 320.42 41.17C320.6 40.43 321.02 38.86 321.35 37.67C321.68 36.47 322.5 33.1 323.18 30.17C323.86 27.23 324.7 23.97 325.04 22.92C325.38 21.86 325.67 20.69 325.67 20.32C325.67 19.94 326.03 19.27 326.48 18.82C327.3 18.01 327.36 18 333.63 18C337.67 18 340.04 17.87 340.18 17.65C340.29 17.46 340.15 16.94 339.86 16.5C339.24 15.55 339.17 13.6 339.72 12.56C339.93 12.16 340.92 11.03 341.92 10.04C343.58 8.41 343.8 8.29 344.55 8.63C345.37 9 345.37 9.03 345.24 12.75C345.16 14.81 345.04 16.8 344.97 17.17C344.84 17.81 345.06 17.84 352.33 18.02C356.46 18.12 359.85 18.23 359.88 18.27C360.28 18.82 360.19 19.47 359.66 20.01C359.02 20.64 358.5 20.67 343.7 20.67C327.26 20.67 328 20.59 328 22.28C328 22.58 327.76 23.28 327.46 23.83C327.17 24.38 326.81 25.66 326.67 26.67C326.42 28.39 324.91 34.77 323.86 38.5C323.6 39.42 323.29 40.69 323.17 41.33C323.05 41.97 322.75 43.17 322.51 44C321.29 48.09 320.26 53.42 320.64 53.65C321.45 54.15 358.48 54.33 457.43 54.33L559.36 54.33L560.04 53.17C560.52 52.36 560.97 52 561.51 52C562.19 52 566.91 53.6 568.33 54.32C568.98 54.64 569.16 56.12 568.6 56.57C568.25 56.86 564.03 58.46 561.59 59.22C561.19 59.35 560.81 59.05 560.31 58.2L559.6 57L550.37 57C543.63 57 541.03 57.11 540.73 57.4C540.16 57.97 540.16 83.36 540.73 83.93C541.02 84.22 543.59 84.33 550.18 84.33C558.52 84.33 559.27 84.29 559.78 83.72C560.09 83.39 560.33 82.94 560.33 82.72C560.33 82.51 560.8 82.33 561.38 82.33C562.78 82.33 568.91 84.63 569.15 85.24C569.4 85.91 567.56 87.67 566.6 87.67C566.17 87.67 565.5 87.89 565.12 88.16C564.12 88.85 561.38 89.74 560.98 89.49C560.8 89.38 560.46 88.83 560.24 88.28L559.83 87.27L550.47 87.25C545.32 87.23 540.94 87.33 540.72 87.47C540.14 87.82 540.17 113.65 540.75 114.44C541.13 114.96 542.01 115 550.33 114.92L559.5 114.83L560 113.76C560.42 112.86 560.69 112.68 561.62 112.67C562.98 112.67 569.01 114.97 569.25 115.59C569.53 116.33 568.03 117.59 566.04 118.3C565.01 118.66 563.51 119.2 562.71 119.49C561.1 120.08 560.54 119.86 560.2 118.52C560.09 118.09 559.82 117.69 559.59 117.62C559.36 117.55 554.97 117.58 549.83 117.67L540.5 117.83L540.41 130.67C540.36 137.72 540.4 143.84 540.5 144.25L540.68 145L551.16 145L561.65 145L562.18 143.97C562.68 143.01 562.82 142.95 564.11 143.1C566.06 143.32 570.68 145.11 571.21 145.84C571.59 146.36 571.58 146.54 571.14 147.03C570.5 147.73 564.28 150.1 563.47 149.95C563.15 149.88 562.64 149.38 562.33 148.83L561.78 147.83L551.14 147.83L540.5 147.83L540.41 160.83C540.36 167.98 540.4 174.17 540.5 174.59L540.68 175.34L551.08 175.25L561.49 175.17L562.16 174.1C562.98 172.79 563.66 172.74 566.23 173.8C567.29 174.24 568.75 174.8 569.46 175.05C571.03 175.6 571.65 176.41 571.14 177.25C570.73 177.91 563.89 180.4 563.2 180.13C562.96 180.04 562.59 179.6 562.39 179.17L562.03 178.37L551.1 178.21C545.09 178.13 539.94 178.07 539.67 178.07C539.39 178.08 495.48 178.15 442.09 178.21L345.01 178.34L344.92 202.48L344.83 226.61L344.04 227.46C343.61 227.92 342.78 228.4 342.21 228.52C341.64 228.65 340.31 229.18 339.26 229.71C336.8 230.94 335.99 230.94 335.27 229.66L334.7 228.67L212.68 228.67C110.7 228.67 90.67 228.74 90.67 229.12C90.67 230.18 88.37 231.2 87.85 230.37ZM334.97 224.58C335.41 223.9 336.02 223.33 336.31 223.33C336.6 223.33 337.79 223.79 338.96 224.34C340.6 225.12 341.19 225.26 341.54 224.96C341.93 224.64 341.99 220.8 341.92 201.54L341.83 178.5L323.17 178.5L304.51 178.5L304.29 180C304.16 180.82 303.9 181.92 303.7 182.44C303.5 182.95 303.33 183.76 303.33 184.23C303.33 184.69 303.12 185.77 302.85 186.62C302.18 188.79 301.04 193.22 300.7 195C300.4 196.59 299.88 198.76 299.16 201.5C298.45 204.19 297.98 206.07 297.62 207.67C296.78 211.36 296.51 212.14 295.75 213.04L294.94 214L278.95 214C268.56 214 262.73 213.88 262.31 213.65C261.53 213.24 261.46 212.15 262.19 211.87C262.48 211.76 269.52 211.67 277.82 211.67C295.44 211.67 294.17 211.93 294.86 208.14C295.09 206.87 295.43 205.38 295.62 204.83C295.81 204.28 296.21 202.71 296.51 201.33C297.34 197.45 298.62 192.02 299.17 190C300.15 186.42 301.67 178.95 301.49 178.64C301.37 178.45 259.35 178.33 192.48 178.33L83.67 178.33L83.67 201.65C83.67 217.03 83.78 225.03 84 225.17C84.19 225.28 85.18 224.99 86.21 224.52C87.24 224.05 88.56 223.67 89.15 223.67C90.03 223.67 90.3 223.86 90.76 224.81L91.3 225.95L212.73 225.89L334.16 225.83L334.97 224.58ZM185.23 216.45C185.1 216.33 185 212.79 185 208.59L185 200.96L186.25 201.06L187.5 201.17L187.67 207.5L187.83 213.83L190.47 214C192.49 214.13 193.18 214.3 193.46 214.75C193.73 215.17 193.73 215.49 193.46 215.92C193.15 216.41 192.49 216.51 189.28 216.59C187.18 216.64 185.36 216.58 185.23 216.45ZM270.86 209.16C269.49 207.69 269.21 206.12 270.02 204.45C270.4 203.68 271.21 202.67 271.83 202.19C272.45 201.72 273.05 201.03 273.17 200.67C273.41 199.89 274.72 199.76 275.3 200.46C275.56 200.77 275.66 202.2 275.59 204.68C275.5 208.24 275.46 208.46 274.67 209.04C274.21 209.38 273.35 209.75 272.77 209.87C271.89 210.04 271.56 209.92 270.86 209.16ZM272.99 206.51C273.45 205.96 273.19 205.33 272.5 205.33C271.9 205.33 271.56 205.9 271.79 206.52C272.03 207.13 272.48 207.13 272.99 206.51ZM477.58 191.67C476.87 191.11 476.67 190.67 476.67 189.69C476.67 188.13 477.37 187.44 479.28 187.14C480.06 187.01 481.03 186.63 481.44 186.29C482.16 185.67 482.16 185.67 481.5 185.15C481 184.76 480.43 184.69 479.25 184.85C477.81 185.04 477.67 185 477.67 184.39C477.67 183.84 477.95 183.66 479.14 183.49C481.08 183.2 482.41 183.52 483.35 184.52C484 185.21 484.14 185.79 484.27 188.19C484.37 190.13 484.29 191.17 484.02 191.44C483.81 191.66 482.85 191.85 481.9 191.87C480.95 191.89 479.79 192.02 479.33 192.15C478.72 192.32 478.24 192.19 477.58 191.67ZM504.5 192.06C503.73 191.88 503.48 191.62 503.39 190.92C503.28 189.91 503.5 189.83 504.89 190.36C506.26 190.88 507.96 190.46 508.4 189.49C508.88 188.43 508.42 187.89 505.95 186.64C503.8 185.56 503.33 184.93 503.33 183.17C503.33 181.54 503.78 180.81 505.04 180.37C506.66 179.81 509.85 179.9 510.48 180.53C511.31 181.36 510.75 181.76 509.09 181.51C507.17 181.22 505.67 181.79 505.67 182.82C505.67 183.7 506.33 184.33 508.21 185.28C509.8 186.08 511.33 187.76 511.33 188.71C511.33 189.06 510.77 189.95 510.08 190.67C509.03 191.78 508.58 192.01 507.17 192.13C506.25 192.22 505.05 192.18 504.5 192.06ZM520.5 192.02C519.12 191.46 518.53 190.38 518.42 188.23C518.29 185.93 518.67 184.93 520.08 183.88C520.9 183.28 521.19 183.24 522.67 183.54C524.81 183.98 525.17 183.62 524.9 181.33C524.71 179.78 524.75 179.66 525.5 179.47C525.94 179.36 526.45 179.37 526.65 179.49C526.87 179.63 527 181.85 527 185.7C527 192.32 526.94 192.5 524.91 191.73C524.13 191.44 523.72 191.46 522.97 191.85C521.93 192.39 521.48 192.42 520.5 192.02ZM531.81 192.03C531.42 191.86 530.7 191.24 530.19 190.63C529.35 189.63 529.28 189.34 529.4 187.42C529.57 184.72 530.42 183.74 532.88 183.45C534.42 183.27 534.65 183.34 535.78 184.33C537.28 185.65 537.64 186.78 536.82 187.68C536.34 188.21 535.79 188.33 533.95 188.33C531.92 188.33 531.67 188.4 531.67 188.98C531.67 190.33 532.68 190.83 535.08 190.68C536.37 190.61 536.68 190.97 535.88 191.63C535.27 192.14 532.66 192.39 531.81 192.03ZM539.75 192.11C539.24 191.91 539.2 190.46 539.69 190.15C540.22 189.82 541.67 190.29 541.67 190.79C541.67 191.03 541.39 191.48 541.06 191.78C540.41 192.37 540.39 192.37 539.75 192.11ZM548.17 192.06C545.14 190.94 544.33 189.68 544.33 186.11C544.33 183.88 544.46 183.24 545.09 182.3C546.17 180.68 547.73 180 550.38 180C552.7 180 553.6 180.48 553.21 181.51C553.05 181.92 552.68 181.98 551.41 181.81C549.15 181.51 547.52 182.24 546.85 183.85C546.19 185.43 546.2 186.69 546.87 188.11C547.66 189.76 548.99 190.42 551.24 190.28C553.2 190.16 553.64 190.46 552.92 191.42C552.45 192.05 549.29 192.47 548.17 192.06ZM558.13 192.12C556.95 191.86 555.63 190.2 555.43 188.72C554.95 185.13 556.36 183.5 559.94 183.5C561.95 183.5 562.1 183.56 563.19 184.75C564.4 186.07 564.69 187.69 564.02 189.45C563.34 191.23 560.33 192.6 558.13 192.12ZM458.28 191.76C458.22 191.62 458.21 188.99 458.27 185.92L458.36 180.33L461.54 180.33C464.38 180.33 464.7 180.39 464.6 180.92C464.53 181.29 464.14 181.53 463.5 181.59C460.47 181.85 460.33 181.93 460.33 183.34C460.33 184.88 460.94 185.33 462.98 185.33C463.95 185.33 464.33 185.47 464.33 185.82C464.33 186.35 463.21 187.1 462.89 186.78C462.79 186.67 462.16 186.69 461.5 186.81C460.3 187.04 460.3 187.04 460.4 188.6L460.5 190.17L462.67 190.33C464.56 190.48 464.83 190.59 464.83 191.17C464.83 191.78 464.58 191.84 461.61 191.93C459.84 191.98 458.34 191.91 458.28 191.76ZM466.67 191.7C466.67 191.54 467.19 190.62 467.83 189.67C468.47 188.71 469 187.81 469 187.67C469 187.52 468.47 186.62 467.83 185.67C467.19 184.71 466.67 183.86 466.67 183.78C466.67 183.7 467.23 183.67 467.92 183.73C468.97 183.82 469.27 184.03 469.83 185.08C470.2 185.77 470.61 186.33 470.75 186.33C470.88 186.33 471.39 185.73 471.87 185C472.61 183.89 472.94 183.67 473.86 183.67L474.95 183.67L473.81 185.37C473.18 186.3 472.67 187.34 472.67 187.67C472.67 188 473.18 189.02 473.8 189.95C474.42 190.87 474.84 191.71 474.74 191.81C474.64 191.92 474.14 192 473.62 192C472.88 192 472.53 191.72 471.93 190.67C471.51 189.94 470.98 189.34 470.75 189.34C470.53 189.33 469.96 189.93 469.5 190.67C468.82 191.74 468.46 192 467.66 192C467.11 192 466.67 191.87 466.67 191.7ZM487.31 191.92C487.3 191.87 487.26 190 487.23 187.75L487.17 183.67L488.02 183.67C488.48 183.67 489.02 183.82 489.21 184.01C489.44 184.24 489.95 184.18 490.81 183.82C492.18 183.25 493.7 183.4 494.34 184.18C494.67 184.58 494.92 184.55 496.02 183.99C497.63 183.17 498.71 183.16 499.7 183.96C500.4 184.53 500.5 184.95 500.66 187.98C500.84 191.55 500.71 192 499.43 192C498.69 192 498.67 191.9 498.67 189.17C498.67 186.78 498.56 186.23 498 185.67C497.63 185.3 497.07 185 496.75 185.01C495.42 185.02 495.17 185.55 495 188.74L494.83 191.83L493.83 191.83L492.83 191.83L492.94 189.97C493.1 187.36 492.52 185.39 491.52 185.14C491.08 185.03 490.41 185.11 490.03 185.32C489.41 185.65 489.33 185.99 489.33 188.45C489.33 191.29 489.05 192 487.93 192C487.6 192 487.32 191.96 487.31 191.92ZM513.67 187.81L513.67 183.62L514.69 183.73L515.72 183.83L515.72 187.58C515.72 189.63 515.62 191.47 515.51 191.66C515.39 191.85 514.93 192 514.48 192L513.67 192L513.67 187.81ZM566.98 191.94C566.97 191.88 566.93 190 566.9 187.75L566.83 183.67L567.85 183.67C568.41 183.67 569.02 183.82 569.21 184.01C569.44 184.24 569.86 184.19 570.53 183.85C571.84 183.16 572.75 183.2 573.77 184.01L574.62 184.68L575.73 184.01C577.12 183.16 578.37 183.15 579.38 183.97C580.09 184.54 580.18 184.94 580.33 188C580.51 191.55 580.31 192.17 579.1 191.94C578.59 191.84 578.49 191.41 578.41 189C578.34 186.6 578.22 186.08 577.62 185.58C575.82 184.07 574.58 185.48 574.7 188.93C574.78 191.55 574.61 192 573.51 192C572.76 192 572.73 191.89 572.62 188.97C572.52 186.44 572.39 185.87 571.85 185.47C571.11 184.93 570.38 184.88 569.67 185.33C569.3 185.55 569.12 186.48 569 188.74C568.83 191.82 568.83 191.83 567.92 191.94C567.41 192 566.99 192 566.98 191.94ZM481.64 189.79C482.48 188.72 482.08 188 480.65 188C479.15 188 478.67 188.33 478.67 189.34C478.67 190.89 480.55 191.17 481.64 189.79ZM523.83 189.92C525.02 188.9 525.11 186.5 524 185.6C521.4 183.49 518.92 187.59 521.34 190.01C522.19 190.86 522.76 190.84 523.83 189.92ZM561.17 189.86C562.33 188.7 562.52 187.55 561.77 186.26C561.27 185.39 560.88 185.15 559.94 185.07C557.44 184.85 556.4 188.07 558.34 190.01C559.22 190.89 560.19 190.84 561.17 189.86ZM534.91 186.59C535.5 186.12 534.88 185.13 533.84 184.86C532.75 184.59 531.67 185.17 531.67 186.02C531.67 187.19 533.72 187.55 534.91 186.59ZM513.5 180.67C513.09 179.38 514.24 178.87 515.51 179.8C516.05 180.19 516.07 180.34 515.7 180.8C515.07 181.56 513.76 181.48 513.5 180.67ZM145.95 174.89C146.22 174.56 146.11 173.77 145.5 171.81C144.44 168.4 144.44 167.44 145.5 166.61L146.33 165.95L146.33 115.85L146.33 65.74L145.5 65.2C144.51 64.55 144.37 62.87 145.17 61.33C145.44 60.8 145.71 59.64 145.75 58.76L145.83 57.17L115.5 57.08C98.82 57.02 84.83 57.07 84.42 57.16L83.67 57.35L83.67 115.94C83.67 161.07 83.76 174.63 84.07 174.93C84.68 175.55 145.44 175.51 145.95 174.89ZM302.11 174.91C302.45 174.67 302.94 173.39 303.3 171.83C303.64 170.37 304.25 167.7 304.66 165.9L305.41 162.63L304.65 161.82C303.44 160.52 303.67 159.36 305.88 155.75C307.46 153.17 308.04 152.48 308.71 152.4C309.18 152.34 309.73 152.51 309.94 152.76C310.16 153.02 310.41 155.2 310.54 157.86C310.78 162.95 310.73 163.11 308.79 163.63C307.92 163.86 307.82 164.09 306.92 168.19C306.39 170.56 305.93 173.1 305.9 173.83L305.83 175.17L323.27 175.25C334.9 175.31 340.92 175.22 341.35 174.99C341.99 174.65 342 173.81 342 116.22C342 71.23 341.91 57.71 341.6 57.4C341.31 57.11 338.41 57 330.62 57C321.45 57 319.98 57.07 319.52 57.52C319.24 57.81 319 58.3 319 58.61C319.01 59.4 318.04 63.77 317.29 66.31C316.49 69.06 316.5 69.81 317.4 71.02L318.13 72.01L317.38 73.42C314.85 78.22 314.36 79.21 314.35 79.59C314.34 79.83 315.15 80.99 316.15 82.17C317.44 83.69 318.14 84.87 318.53 86.22C319.74 90.39 318.24 95.01 314.77 97.84C311.6 100.42 309.14 100.63 305.96 98.59C303.99 97.33 302.16 94.9 301.79 93.03C301.65 92.34 301.28 91.81 300.78 91.58C299.44 90.97 299.2 91.64 299.94 93.89C301.05 97.28 301.17 99.14 300.36 100.45C299.68 101.55 299.67 101.95 299.67 116.33C299.67 130.76 299.68 131.11 300.37 132.22C301.11 133.43 301.08 134.92 300.25 137.76C299.95 138.81 299.98 139.12 300.41 139.56C300.9 140.04 301.02 140.01 301.81 139.23C302.29 138.74 302.67 137.98 302.67 137.5C302.67 136.11 304.17 133.55 305.75 132.25C306.55 131.59 308.03 130.82 309.02 130.53C312 129.67 314.83 130.7 317.34 133.56C319.13 135.6 319.8 137.47 319.82 140.51C319.83 142.87 319.71 143.43 318.74 145.41C316.25 150.47 311.32 152.68 307.7 150.35C305.14 148.71 302.67 145.58 302.67 143.99C302.67 142.93 301.9 142.67 298.91 142.67C297.29 142.67 295.67 142.51 295.31 142.32C294.33 141.8 294.48 140.46 295.58 139.92C296.42 139.51 296.49 139.34 296.39 137.84C296.33 136.94 296.07 135.69 295.81 135.06C295.12 133.41 295.21 132.88 296.33 132.05L297.33 131.31L297.33 116.49L297.33 101.67L296.33 100.78C295.18 99.75 295.15 99.52 295.87 97.21C296.71 94.5 297.25 92.88 297.49 92.27C297.67 91.82 297.45 91.66 296.31 91.44C295.54 91.28 294.75 90.92 294.56 90.62C294.07 89.84 294.53 89 295.45 89C296.61 89 297.09 88.29 296.67 87.19C296.49 86.69 296.33 85.96 296.33 85.56C296.33 85.16 296.11 84.4 295.83 83.88C295.08 82.43 295.22 81.55 296.33 80.72L297.33 79.98L297.33 73.06L297.33 66.15L296.3 65.24C295.63 64.66 295.32 64.12 295.42 63.75C296.52 59.91 297 57.82 296.87 57.46C296.74 57.13 294.9 57.05 288.27 57.1L279.83 57.17L279.67 60.03C279.49 63.01 279.07 64 277.97 64C277.03 64 276.67 62.95 276.67 60.26C276.67 58.79 276.51 57.64 276.27 57.4C275.96 57.09 261.36 57 212.59 57C154.53 57 149.3 57.04 149.1 57.54C148.99 57.84 149.15 59.15 149.45 60.46C150.14 63.38 150.15 64.46 149.5 65C149.06 65.37 149 71.41 149 115.72C149 161.3 149.05 166.1 149.53 166.84C150.12 167.73 150.06 169.18 149.32 172.36C149.08 173.38 148.98 174.47 149.1 174.78C149.3 175.29 154.68 175.33 225.43 175.33C286.06 175.33 301.66 175.25 302.11 174.91ZM537.3 174.87C537.88 174.17 537.83 57.65 537.25 57.28C537.02 57.13 493.67 57.01 440.92 57.01L345 57L345 115.94C345 148.36 345.1 174.99 345.22 175.11C345.34 175.23 388.53 175.33 441.18 175.33C522.37 175.33 536.98 175.26 537.3 174.87ZM277.29 171.78C276.71 171.09 276.47 165.2 276.97 163.92C277.4 162.79 278.42 162.71 279.15 163.74C279.75 164.61 279.89 169.97 279.33 171.01C278.77 172.05 277.81 172.41 277.29 171.78ZM277.33 158.34C276.78 157.99 276.42 152.89 276.81 150.82C277 149.82 277.16 149.67 278 149.67C279.38 149.67 279.67 150.44 279.67 154.14C279.67 156.89 279.57 157.43 279 158C278.25 158.75 278.05 158.79 277.33 158.34ZM327.03 148.49C326.08 147.4 326 147.13 326 144.83C326 142.53 326.07 142.27 327.05 141.16C328.05 140.02 328.2 139.96 329.97 140.04L331.83 140.13L331.93 138.07C332.02 136.31 332.12 136 332.66 136C334.34 136 334.33 135.98 334.33 142.69C334.33 148.61 334.3 149 333.67 149.33C333.2 149.59 332.83 149.57 332.35 149.27C331.82 148.94 331.6 148.94 331.27 149.26C331.05 149.48 330.24 149.67 329.47 149.67C328.28 149.67 327.91 149.49 327.03 148.49ZM314.65 146.85C316.24 145.3 317 143.26 317 140.56C317 137.88 316.44 136.21 315.02 134.63C314.01 133.5 313.58 133.28 312.11 133.11C308.5 132.7 306.46 133.93 305.51 137.09C304.77 139.56 305.01 139.83 307.83 139.69C310.46 139.55 311.98 140.74 310.82 142.01C310.34 142.55 309.79 142.67 307.78 142.67C305.49 142.67 305.33 142.71 305.33 143.39C305.33 144.49 306.92 146.96 308.11 147.71C308.94 148.23 309.6 148.34 311.25 148.25C313.15 148.15 313.45 148.02 314.65 146.85ZM331.07 147.1C332.85 145.39 331.97 141.67 329.79 141.67C328.77 141.67 328.33 142.58 328.33 144.74C328.33 146.51 328.98 148 329.75 148C329.96 148 330.55 147.6 331.07 147.1ZM277.01 144.36C276.57 143.54 276.56 137.99 276.99 136.86C277.4 135.79 278.44 135.73 279.15 136.74C279.52 137.28 279.67 138.31 279.67 140.5C279.67 142.69 279.52 143.72 279.15 144.26C278.51 145.17 277.47 145.22 277.01 144.36ZM282.35 140.19C281.83 139.56 282.18 138.93 284.53 136.27C287.21 133.25 287.93 131.31 286.81 130.19C286.13 129.51 284.71 129.52 283.96 130.21C283.24 130.86 282.33 130.59 282.33 129.73C282.33 128.54 283.4 128 285.71 128C287.65 128 287.97 128.1 288.77 128.93C289.5 129.7 289.67 130.18 289.67 131.56C289.67 133.04 289.48 133.51 288.22 135.21C287.43 136.29 286.53 137.37 286.22 137.62C285.06 138.58 285.55 139 287.81 139C290.04 139 290.68 139.35 289.99 140.18C289.41 140.87 282.92 140.88 282.35 140.19ZM156.67 130.35C156.3 129.62 156 128.78 156 128.47C156 128.17 155.78 127.23 155.51 126.38C153.98 121.56 152.96 117.92 152.9 117.1C152.84 116.31 152.97 116.15 153.77 116.06C155.46 115.87 155.57 116.12 158 125.29C158.57 127.46 158.74 127.11 160.39 120.33C161.42 116.08 161.47 116 162.81 116C163.44 116 164.08 116.19 164.23 116.42C164.68 117.12 165.38 119.1 165.67 120.5C166.08 122.43 167.23 126.34 167.45 126.56C167.72 126.83 168.31 125.22 168.83 122.77C169.07 121.64 169.38 120.53 169.51 120.31C169.65 120.09 169.93 119.07 170.13 118.04C170.48 116.25 170.55 116.16 171.61 116.06C172.21 116 172.92 116.13 173.18 116.34C173.58 116.68 173.58 116.87 173.16 117.68C172.89 118.21 172.66 118.98 172.65 119.4C172.65 119.82 172.43 120.54 172.17 121C171.9 121.46 171.68 122.26 171.68 122.77C171.67 123.29 171.49 124.03 171.28 124.43C171.07 124.83 170.54 126.43 170.12 127.99C169.29 130.99 168.77 131.67 167.31 131.67C165.98 131.67 165.76 131.27 164.49 126.5C163.51 122.84 163.23 122 162.98 122C162.71 122 162.15 123.79 161.02 128.17C160.3 131 159.77 131.67 158.28 131.67C157.53 131.67 157.21 131.41 156.67 130.35ZM277.19 131.14C276.79 130.74 276.67 129.89 276.67 127.39C276.68 123.18 276.82 122.67 278.03 122.67C279.38 122.67 279.67 123.46 279.67 127.14C279.67 129.89 279.57 130.43 279 131C278.2 131.8 277.88 131.83 277.19 131.14ZM281.22 126.44C281.1 126.32 281 125.95 281 125.61C281 125.05 281.37 125 285.98 125C291 125 291.81 125.19 290.99 126.18C290.67 126.56 289.61 126.67 286.01 126.67C283.5 126.67 281.34 126.57 281.22 126.44ZM283.68 120.12C283.31 119.28 283 118.34 283 118.04C283 117.74 282.62 116.4 282.16 115.05C281.71 113.7 281.42 112.47 281.52 112.3C281.62 112.14 282.07 112 282.51 112C283.55 112 284.23 113.06 284.66 115.3C284.84 116.26 285.08 117.19 285.19 117.36C285.49 117.86 286 117.37 286 116.59C286 116.2 286.24 115 286.54 113.94C287.03 112.2 287.18 112 287.98 112C289.09 112 289.66 112.55 289.69 113.65C289.71 114.12 289.99 115.25 290.32 116.17C291.01 118.06 291.07 117.99 291.98 114.41C292.51 112.28 292.59 112.17 293.52 112.17C294.89 112.17 294.92 113 293.69 116.55C293.13 118.16 292.67 119.72 292.67 120.02C292.67 120.76 291.61 121.67 290.74 121.67C289.82 121.67 289 120.46 289 119.11C289 118.03 288.4 116.33 288.02 116.33C287.91 116.33 287.65 117.25 287.43 118.36C286.74 121.99 284.89 122.86 283.68 120.12ZM277.01 117.36C276.57 116.54 276.56 110.99 276.99 109.86C277.4 108.79 278.44 108.73 279.15 109.74C279.52 110.28 279.67 111.31 279.67 113.5C279.67 115.69 279.52 116.72 279.15 117.26C278.51 118.17 277.47 118.22 277.01 117.36ZM276.99 103.81C276.64 102.88 276.55 97.62 276.88 96.42C277.03 95.86 277.32 95.67 278.05 95.67C279.39 95.67 279.75 96.78 279.61 100.61C279.52 103.23 279.4 103.8 278.85 104.19C277.9 104.89 277.36 104.77 276.99 103.81ZM312.12 96.69C314.77 95.55 316.18 92.51 315.93 88.51C315.65 84.2 313.44 81.68 309.93 81.67C306.61 81.66 304.52 83.7 304.51 86.97L304.5 88.83L307.17 88.92C310.63 89.03 311.33 89.2 311.33 89.97C311.33 91.02 310.57 91.3 307.48 91.4L304.5 91.5L304.55 92.62C304.65 94.7 307.48 97.28 309.72 97.32C310.21 97.33 311.29 97.04 312.12 96.69ZM288.4 94.27C288.18 94.05 288 93.37 288 92.77L288 91.67L285.75 91.66C284.51 91.66 283.3 91.53 283.05 91.37C282.5 91.02 282.81 89.24 283.52 88.65C283.78 88.43 284 88.12 284 87.97C284 87.81 284.76 86.41 285.68 84.84C287.31 82.08 287.39 82 288.61 82C289.3 82 290.05 82.18 290.27 82.4C290.53 82.66 290.67 84.04 290.67 86.4C290.67 89.31 290.76 90 291.15 90C292 90 292.13 90.75 291.39 91.36C290.99 91.68 290.67 92.31 290.67 92.75C290.67 93.55 289.76 94.67 289.12 94.67C288.95 94.67 288.62 94.49 288.4 94.27ZM325.03 91.49C324.08 90.4 324 90.13 324 87.83C324 85.53 324.07 85.27 325.05 84.16C326.05 83.02 326.2 82.96 327.97 83.04L329.83 83.13L329.93 81.07C330.02 79.31 330.12 79 330.66 79C332.34 79 332.33 78.98 332.33 85.69C332.33 91.61 332.3 92 331.67 92.33C331.2 92.59 330.83 92.57 330.35 92.27C329.82 91.94 329.6 91.94 329.27 92.26C329.05 92.48 328.24 92.67 327.47 92.67C326.28 92.67 325.91 92.49 325.03 91.49ZM276.99 90.14C276.81 89.67 276.67 88.03 276.67 86.5C276.67 83.26 277.03 82 277.97 82C279.2 82 279.67 83.24 279.67 86.5C279.67 88.69 279.52 89.72 279.15 90.26C278.44 91.27 277.4 91.21 276.99 90.14ZM329.07 90.1C330.85 88.39 329.97 84.67 327.79 84.67C326.77 84.67 326.33 85.58 326.33 87.74C326.33 89.51 326.98 91 327.75 91C327.96 91 328.55 90.6 329.07 90.1ZM287.93 87.75C288.04 85.42 287.68 85.1 286.86 86.82C286.56 87.45 286.17 88.06 285.99 88.17C285.81 88.28 285.67 88.75 285.67 89.21C285.67 89.95 285.79 90.03 286.75 89.94C287.83 89.83 287.83 89.83 287.93 87.75ZM300.94 88.24C301.14 88 301.46 87.08 301.66 86.19C302.16 83.97 303.52 81.78 305.14 80.6C306.96 79.26 307.83 78.92 310 78.69L311.83 78.5L311.72 73.91L311.61 69.32L312.78 68.83C314.03 68.31 314.31 67.65 315.31 62.83C315.54 61.73 315.89 60.11 316.08 59.22C316.37 57.91 316.35 57.54 315.97 57.3C315.71 57.14 311.97 57.04 307.67 57.09C298.65 57.18 299.54 56.67 300.54 61.2L301.13 63.9L300.4 64.83C299.7 65.72 299.67 66.05 299.67 72.92C299.67 79.62 299.71 80.16 300.37 81.22C301.02 82.27 301.04 82.51 300.66 84.43C299.99 87.89 299.91 88.67 300.26 88.67C300.44 88.67 300.75 88.47 300.94 88.24ZM283.22 78.44C283.1 78.32 283 77.95 283 77.61C283 77.05 283.37 77 287.98 77C293 77 293.81 77.19 292.99 78.18C292.67 78.56 291.61 78.67 288.01 78.67C285.5 78.67 283.34 78.57 283.22 78.44ZM277.19 76.93C276.81 76.39 276.67 75.37 276.67 73.18C276.68 69.19 276.83 68.67 278.03 68.67C279.38 68.67 279.67 69.46 279.67 73.14C279.67 75.89 279.57 76.43 279 77C278.15 77.85 277.83 77.84 277.19 76.93ZM283.04 72.92C282.88 72.5 282.59 71.64 282.38 71C282.18 70.36 281.63 68.66 281.17 67.22C280.71 65.78 280.42 64.46 280.52 64.3C280.62 64.13 281.07 64 281.51 64C282.55 64 283.23 65.06 283.66 67.3C283.84 68.26 284.08 69.19 284.19 69.36C284.49 69.86 285 69.37 285 68.59C285 68.2 285.24 67 285.54 65.94C286.03 64.2 286.18 64 286.98 64C288.05 64 288.67 64.55 288.67 65.5C288.67 65.88 288.96 67.01 289.31 68.01C290.03 70.06 290.08 70.01 290.96 66.4C291.48 64.26 291.54 64.17 292.5 64.17C293.89 64.17 293.93 64.99 292.69 68.55C292.13 70.16 291.67 71.72 291.67 72.02C291.67 72.76 290.61 73.67 289.74 73.67C288.82 73.67 288 72.46 288 71.11C288 70.03 287.4 68.33 287.02 68.33C286.91 68.33 286.65 69.25 286.43 70.36C286.22 71.48 285.79 72.68 285.47 73.03C284.67 73.92 283.39 73.86 283.04 72.92ZM56.22 48.44C56.1 48.32 56 44.79 56 40.6L56 32.98L60.25 33.07C64.47 33.17 64.5 33.17 64.61 33.98C64.79 35.23 63.87 35.67 61.1 35.67L58.67 35.67L58.67 37.31C58.67 39.23 58.84 39.33 61.79 39.25C63.36 39.21 63.83 39.32 64.2 39.82C64.6 40.37 64.59 40.54 64.11 41.06C63.68 41.54 63.06 41.67 61.12 41.67L58.67 41.67L58.67 44.77C58.67 46.73 58.52 48.01 58.27 48.27C57.84 48.7 56.58 48.81 56.22 48.44ZM557.7 40.21C557.44 39.89 557.35 37.94 557.41 33.96L557.5 28.17L560.8 28.07C564.25 27.97 565.11 28.23 564.35 29.15C564.05 29.51 563.32 29.67 561.96 29.67L560 29.67L560 31.33L560 33L561.98 33C564.05 33 564.67 33.36 563.99 34.18C563.73 34.5 562.96 34.67 561.79 34.67L560 34.67L560 36.83L560 39L562.31 39C564.69 39 565.36 39.33 564.65 40.18C564.1 40.86 558.26 40.88 557.7 40.21ZM342.67 14.29C342.67 14.13 342.37 14 342 14C341.26 14 341.24 14.04 341.54 14.81C341.7 15.23 341.85 15.26 342.21 14.97C342.46 14.76 342.67 14.45 342.67 14.29Z" fill="#1e2749" fill-rule="evenodd"/>
</svg>
