<?xml version="1.0" encoding="UTF-8"?>
<svg xmlns="http://www.w3.org/2000/svg" viewBox="0 0 680 284" width="680" height="284" shape-rendering="geometricPrecision">
<path d="M163 250.73C162.36 250.67 161.72 250.51 161.59 250.38C161.45 250.25 161.31 245.75 161.27 240.38C161.2 229.56 161.11 230.01 163.42 230.01C164.64 230 165.73 230.7 166.06 231.69C166.16 231.99 166.7 231.75 167.82 230.9C169.1 229.92 169.72 229.67 170.86 229.67C172.65 229.67 173.33 230.5 173.33 232.67C173.33 234.65 172.95 235 171.03 234.77C169.67 234.61 169.34 234.71 168.36 235.53C166.56 237.04 166.33 238 166.33 244.1C166.33 248.89 166.26 249.63 165.75 250.06C164.98 250.73 164.4 250.87 163 250.73ZM137.52 249.93C137.07 249.29 137 247.43 137 236.42L137 223.65L137.77 223.36C138.19 223.2 141.04 223.13 144.1 223.21C148.51 223.33 149.96 223.48 151.08 223.96C155.43 225.83 156.61 230.21 153.69 233.67C152.17 235.48 152.05 235.87 152.97 236.16C154.07 236.51 156.27 239.2 156.67 240.67C157.16 242.49 156.86 244.14 155.66 246.23C153.82 249.45 150.32 250.65 142.77 250.66C138.26 250.67 138.01 250.63 137.52 249.93ZM148.24 246.03C149.94 245.57 151 244.22 151 242.52C151 240.85 150.23 239.51 148.98 238.99C147.7 238.46 143.33 238.29 142.75 238.75C142.47 238.97 142.33 240.12 142.34 242.29C142.34 245.51 142.48 246.12 143.25 246.37C143.98 246.6 146.81 246.41 148.24 246.03ZM180.42 240.66C179.43 240.26 178.51 238.32 178.79 237.22C179.03 236.25 179.97 235.55 185.5 232.22C187.7 230.9 190.17 229.4 191 228.89C191.82 228.38 194.45 226.8 196.83 225.38C199.22 223.95 204.69 220.64 209 218.02C213.31 215.39 219.68 211.51 223.17 209.4C233.16 203.33 234.38 202.54 234.87 201.84C235.26 201.29 235.33 195.5 235.3 166.3C235.28 142.91 235.38 131.2 235.61 130.77C235.82 130.38 237.87 129.3 240.73 128.07C243.35 126.95 247.67 125.06 250.33 123.88C252.99 122.7 260.34 119.48 266.67 116.73C272.99 113.97 280.19 110.79 282.67 109.66C288.05 107.21 293.31 104.93 296.11 103.84C298.22 103.03 304.62 100.19 315.33 95.34C320.98 92.78 321.75 92.45 322.67 92.17C323.12 92.03 323.76 91.69 324.08 91.41C324.63 90.93 324.67 88.38 324.67 46.82C324.67 4.07 324.69 2.72 325.3 1.96C326.25 0.79 328.46 0.86 329.54 2.11L330.33 3.04L330.33 46.99L330.33 90.94L332.58 91.6C333.82 91.97 335.58 92.43 336.5 92.64C339.88 93.4 346.47 95.03 358.17 98.01C370.83 101.23 370.8 101.22 375.5 102.34C380.11 103.44 383.28 104.23 390.17 105.98C393.65 106.86 398.45 108.06 400.83 108.63C403.22 109.21 405.92 109.88 406.83 110.14C407.75 110.39 410.6 111.15 413.17 111.82C415.73 112.49 418.17 113.26 418.58 113.52C420.23 114.6 419.87 117.13 417.92 118.1C416.72 118.7 416.68 118.69 412.1 117.55C409.57 116.92 405.62 115.93 403.33 115.37C401.04 114.8 398.04 114.02 396.67 113.64C395.29 113.25 393.49 112.79 392.67 112.61C391.84 112.43 390.49 112.09 389.67 111.85C388.84 111.61 387.27 111.22 386.17 110.99C385.07 110.76 383.04 110.29 381.67 109.93C374.18 108 352.67 102.56 351.67 102.34C351.02 102.2 349.82 101.91 349 101.7C348.18 101.49 345.62 100.85 343.33 100.28C341.04 99.71 336.92 98.67 334.17 97.97C331.42 97.26 328.66 96.68 328.04 96.68C327.35 96.67 324.83 97.58 321.54 99.04C318.58 100.34 315.45 101.69 314.57 102.04C313.69 102.39 311.51 103.32 309.73 104.12C307.96 104.92 305.52 105.99 304.33 106.51C303.14 107.02 300.82 108.08 299.17 108.85C297.52 109.63 295.12 110.67 293.83 111.17C292.55 111.68 290.52 112.53 289.33 113.08C288.14 113.63 285.14 114.94 282.67 116C273.55 119.92 272.41 120.41 268.17 122.32C256.62 127.53 252.29 129.43 243.33 133.21C242.69 133.48 241.94 133.82 241.67 133.97C241.23 134.21 241.16 138.54 241.09 169.34C241.02 199.23 240.94 204.55 240.53 205.17C240.26 205.57 235.95 208.37 230.94 211.39C225.93 214.41 216.43 220.15 209.83 224.16C203.23 228.16 196.11 232.47 194 233.74C191.89 235.02 189.12 236.72 187.83 237.52C185.14 239.21 181.81 241.01 181.43 240.98C181.29 240.97 180.83 240.82 180.42 240.66ZM146.4 234.32C148.24 233.81 149.67 232.23 149.67 230.72C149.67 228.28 148.09 227.24 144.64 227.4L142.5 227.5L142.4 230.62C142.34 232.63 142.44 233.9 142.69 234.2C143.15 234.75 144.68 234.8 146.4 234.32Z" fill="#1e2749" fill-rule="evenodd"/>
</svg>
