<?xml version="1.0" encoding="UTF-8"?>
<svg xmlns="http://www.w3.org/2000/svg" viewBox="0 0 2430 2191" width="2430" height="2191" shape-rendering="geometricPrecision">
<path d="M2187.67 2161.33C2186.43 2160.1 2186.99 2159 2188.85 2159C2192.22 2159 2194.13 2155.48 2195.19 2147.32C2196.36 2138.26 2195.65 2109.74 2194.16 2105.87C2193.55 2104.3 2191.88 2102.8 2190 2102.15C2183.6 2099.92 2188 2099 2205.12 2099C2224.69 2099 2229.33 2099.88 2234.92 2104.66C2240.42 2109.37 2241.9 2114.35 2239.6 2120.39C2238.66 2122.84 2237.24 2125.38 2236.45 2126.04C2234.16 2127.94 2234.73 2130.11 2238.4 2133.47C2240.32 2135.23 2242.34 2138.42 2243.07 2140.83C2244.19 2144.57 2244.11 2145.62 2242.42 2149.68C2239.76 2156.07 2234.81 2159.81 2227.44 2161.02C2220.76 2162.11 2188.7 2162.36 2187.67 2161.33ZM2222.4 2155.61C2224.24 2154.84 2226.92 2152.66 2228.37 2150.76C2231.93 2146.1 2231.85 2141.7 2228.15 2137.99C2224.92 2134.77 2215.76 2131.7 2210.77 2132.19L2207.5 2132.5L2207.21 2143.44C2207.06 2149.45 2207.16 2154.96 2207.43 2155.69C2208.12 2157.47 2218.07 2157.42 2222.4 2155.61ZM2225.21 2122.14C2229.56 2117.48 2230.11 2113.69 2227.03 2109.76C2224.04 2105.96 2218.96 2104 2212.1 2104L2206 2104L2206 2114.3C2206 2121.18 2206.41 2125.03 2207.25 2125.89C2208.13 2126.8 2210.43 2127.04 2214.96 2126.69C2220.96 2126.23 2221.7 2125.9 2225.21 2122.14ZM1543.25 2106.25C1531.67 2105.84 1531.44 2104.96 1540.56 2095.97C1549.62 2087.04 1557.56 2077.19 1559.95 2071.92C1562.39 2066.55 1562.63 2058.34 1560.44 2055.22C1557.22 2050.61 1549.56 2048.62 1544.68 2051.12C1543.48 2051.74 1540.98 2053.65 1539.12 2055.37L1535.73 2058.5L1536.38 2055C1538.78 2041.98 1555.17 2037.59 1565.57 2047.17C1576.06 2056.84 1572.85 2066.37 1550.61 2091.5C1545.74 2097.01 1545.97 2097.96 1552.25 2098.22C1561.71 2098.6 1564.96 2098.15 1569 2095.88C1571.19 2094.65 1573.24 2093.9 1573.55 2094.22C1574.74 2095.41 1572.62 2102.48 1570.4 2104.69C1567.91 2107.18 1568.41 2107.15 1543.25 2106.25ZM1582.41 2106.08C1582.19 2105.85 1582 2102.57 1582 2098.78L1582 2091.9L1585.34 2094.45C1588 2096.47 1589.83 2097 1594.22 2097C1600.39 2097 1603.99 2094.77 1599.91 2093.47C1596.12 2092.27 1588.8 2084.72 1586.36 2079.5C1581.11 2068.27 1584.98 2053.42 1594.79 2047.15C1610.15 2037.33 1633.86 2042.01 1641.15 2056.3C1647.6 2068.93 1642.29 2085.32 1629.57 2092.07C1627.06 2093.4 1625.15 2094.95 1625.33 2095.5C1625.51 2096.05 1628.84 2096.63 1632.72 2096.79C1639.27 2097.06 1639.94 2096.9 1641.79 2094.54C1644.43 2091.18 1645.62 2091.34 1646.38 2095.12C1648.5 2105.75 1646.76 2107.16 1631.9 2106.78C1618.86 2106.46 1618.9 2106.49 1620.93 2097.44C1621.73 2093.84 1623.39 2090.75 1626.43 2087.19C1641.98 2068.97 1626.92 2038.86 1606.73 2047.8C1601.1 2050.29 1597.43 2055.48 1595.98 2063.02C1594.02 2073.17 1596.5 2082.83 1602.69 2089.18C1605.45 2092.02 1606.47 2094.08 1607.11 2098.12C1607.64 2101.51 1607.57 2103.81 1606.9 2104.63C1605.92 2105.8 1583.46 2107.14 1582.41 2106.08ZM584.28 2075.75C583.75 2075.06 570.13 2043.9 554.01 2006.5C537.89 1969.1 523.68 1936.25 522.43 1933.5C520.24 1928.68 517.3 1921.89 503.39 1889.5C499.85 1881.25 494.96 1870 492.53 1864.5C490.1 1859 483.75 1844.38 478.42 1832C473.09 1819.62 466.27 1803.88 463.27 1797C460.27 1790.12 456.78 1782.03 455.52 1779C454.25 1775.97 450.29 1766.75 446.71 1758.5C422.15 1701.88 415.02 1685.42 400.76 1652.5C391.95 1632.15 381.26 1607.4 377.01 1597.5C372.76 1587.6 367.01 1574.33 364.23 1568C356.45 1550.27 347.73 1530.21 327.94 1484.5C317.94 1461.4 306.62 1435.3 302.8 1426.5C298.97 1417.7 292.55 1402.85 288.52 1393.5C275.25 1362.67 258.3 1323.58 256.22 1319C255.09 1316.53 250.25 1305.39 245.46 1294.25C240.66 1283.11 236.24 1274.01 235.62 1274.02C234.28 1274.04 227.43 1277.84 216.33 1284.74C206.04 1291.13 204.39 1291.67 201.93 1289.44C199.06 1286.84 199.46 1282.31 202.84 1279.15C205.83 1276.37 257.68 1243.85 269.2 1237.54C276.91 1233.32 281.74 1233.02 283.09 1236.69C284.35 1240.13 280.94 1243.46 266.55 1252.81C251.26 1262.74 249 1264.63 249 1267.45C249 1268.61 253.09 1279 258.09 1290.53C263.1 1302.06 268.68 1315.1 270.5 1319.5C272.32 1323.9 274.7 1329.53 275.8 1332C279.49 1340.34 304.18 1397.35 311.53 1414.5C321.19 1437.07 336.14 1471.72 344.75 1491.5C355.04 1515.12 364.15 1536.2 368.96 1547.5C376.87 1566.07 404.91 1630.98 411.43 1645.79C419.57 1664.3 445.89 1725.21 451.49 1738.5C453.81 1744 456.62 1750.53 457.75 1753C458.88 1755.47 461.83 1762.22 464.31 1768C466.79 1773.78 471.76 1785.25 475.35 1793.5C478.94 1801.75 486.23 1818.62 491.56 1831C509.35 1872.32 520.68 1898.45 523.23 1904.02C524.63 1907.06 527.35 1913.36 529.28 1918.02C531.21 1922.69 541.9 1947.42 553.03 1973C564.16 1998.58 576.08 2026.03 579.52 2034C588.39 2054.57 591.83 2062 592.49 2062C593.02 2062 633.99 2041.32 698 2008.76C758.04 1978.21 839.78 1936.57 858.5 1927C915.11 1898.07 929.44 1890.77 963.5 1873.51C983.85 1863.2 1001.12 1854.18 1001.88 1853.47C1003.04 1852.37 1002.89 1851.65 1000.88 1848.84C998.99 1846.19 998.43 1843.94 998.15 1837.95C997.8 1830.26 998.68 1826.9 1002.66 1820.78C1004.23 1818.37 1004.27 1817.64 1003.08 1814.28C1000.16 1806.11 953.64 1697.66 934.53 1654.5C929.17 1642.4 923.99 1630.47 923.01 1628C922.03 1625.53 919.42 1619.45 917.21 1614.5C915 1609.55 909.38 1596.72 904.71 1586C900.05 1575.28 895.29 1564.47 894.15 1562C893 1559.53 887.94 1548.05 882.9 1536.5C877.85 1524.95 871.26 1509.88 868.25 1503C865.24 1496.12 861.53 1487.58 860.02 1484C858.5 1480.42 853.76 1469.62 849.5 1460C842.21 1443.58 835.12 1427.44 827.52 1410C825.72 1405.88 822.62 1398.98 820.63 1394.68C818.63 1390.37 817 1386.66 817 1386.43C817 1386.2 814.69 1380.83 811.87 1374.5L806.75 1363L803.12 1363.01C801.13 1363.02 790.54 1364.15 779.58 1365.51C757.71 1368.24 751.84 1368.52 748.93 1366.96C744.41 1364.54 746.02 1361.89 777.44 1320.2C787.92 1306.29 798.94 1291.5 801.92 1287.33L807.33 1279.77L802.42 1280.39C749.41 1287.06 715.47 1291 710.99 1291C702.76 1291 700.92 1287.93 705.06 1281.13C706.97 1278 723.83 1255.37 746.14 1226C757.51 1211.04 762.35 1204.02 761.74 1203.4C761.49 1203.15 743.33 1205.24 721.39 1208.03C674.03 1214.06 662.06 1214.98 660.19 1212.73C657.15 1209.07 661.64 1202 694.97 1158C721.57 1122.87 721.09 1125.94 699.58 1128.44C692.16 1129.3 683.38 1130 680.06 1130L674.03 1130L671.63 1125.25C670.31 1122.64 662.39 1104.97 654.03 1086C645.67 1067.03 636.78 1047 634.27 1041.5C631.77 1036 627.93 1027.22 625.76 1022C623.58 1016.77 619.87 1008.23 617.51 1003C615.15 997.77 609.39 984.73 604.72 974C600.04 963.27 595.09 952.02 593.72 949C592.34 945.98 589.38 939.18 587.15 933.9C584.91 928.62 581.27 920.38 579.04 915.59C576.82 910.8 575 906.69 575 906.45C575 906.21 564.6 882.28 551.88 853.26C539.16 824.24 525.04 791.95 520.5 781.5C515.96 771.05 511.69 761.31 511.01 759.86C510.01 757.72 508.7 757 504.14 756.1C501.04 755.48 496.09 753.86 493.15 752.49C490.21 751.12 487.08 750 486.2 750C485.32 750 469.72 757.72 451.55 767.15C433.37 776.59 413.1 787.09 406.5 790.5C361.06 813.97 323.1 833.59 288.5 851.51C266.5 862.91 240.18 876.51 230 881.74C219.82 886.97 209.25 892.49 206.5 894.01C203.75 895.53 183.05 906.34 160.5 918.04C109.82 944.34 111.61 943.25 112.29 947.34C112.79 950.37 120.21 968.48 140 1015C145.03 1026.83 151.41 1041.9 154.16 1048.5C156.92 1055.1 165.25 1074.67 172.68 1092C180.11 1109.33 188.01 1127.78 190.22 1133C192.44 1138.22 196.22 1147.11 198.64 1152.75C201.05 1158.38 204.97 1167.61 207.36 1173.25C209.75 1178.89 212.63 1185.53 213.76 1188C214.9 1190.47 217.71 1196.89 220.03 1202.26C222.34 1207.63 224.61 1212.26 225.08 1212.55C226.21 1213.25 228.99 1211.76 249.8 1199.34C273.19 1185.36 287.12 1178 290.18 1178C292.69 1178 296 1180.7 296 1182.74C296 1183.34 294.31 1185.17 292.25 1186.8C282.68 1194.38 178.91 1256.94 160.26 1266.37L155.02 1269.02L153.01 1267.01C151.91 1265.91 151 1263.86 151 1262.46C151 1260.3 153.1 1258.56 165.25 1250.66C173.09 1245.57 185.51 1237.82 192.85 1233.45C200.19 1229.08 207.82 1224.11 209.8 1222.41L213.4 1219.31L209.27 1209.41C206.99 1203.96 201.76 1191.62 197.65 1182C182.48 1146.53 172.01 1121.94 162.55 1099.58C157.21 1086.97 152.02 1074.82 151.01 1072.58C143.12 1055.08 120.31 1000.56 111.48 978.1C108.54 970.62 104.08 959.55 101.57 953.5C99.07 947.45 97.01 941.51 97.01 940.29C97 938.62 98.63 937.14 103.75 934.17C112.45 929.11 248.07 858.48 335 813.74C345.73 808.22 359.35 801.07 365.29 797.85C371.22 794.63 376.28 792 376.54 792C377.65 792 479.68 738.65 481.25 737.25C482.49 736.15 483 734.18 483 730.54C483 719.56 490.47 710.86 501.14 709.39C507.02 708.59 515.8 710.47 520.08 713.46L523.5 715.84L544.5 705.04C556.05 699.1 569.33 692.23 574 689.76C578.67 687.29 590.15 681.34 599.5 676.53C635.47 658.01 652.47 649.24 680 634.98C695.67 626.86 735.27 606.4 768 589.5C800.73 572.61 829.3 557.77 831.5 556.53C833.7 555.29 840.67 551.66 847 548.45C879.69 531.91 991.67 473.66 992.72 472.65C993.68 471.74 993.53 467.86 992.01 454.49C989.1 429 988.08 416.97 988.68 415.4C988.97 414.63 990.52 414 992.11 414C996.48 414 1010.01 423.57 1066.25 466.45C1071.06 470.12 1075.41 472.86 1075.93 472.54C1076.45 472.22 1076.66 470.51 1076.4 468.73C1074.91 458.35 1067.89 401.99 1066.39 388.34C1064.91 374.92 1064.83 371.91 1065.93 370.59C1068.79 367.14 1072.33 368.68 1087.13 379.81C1095.03 385.75 1112.7 399.06 1126.38 409.37C1142.61 421.6 1151.61 427.79 1152.25 427.15C1152.89 426.51 1151.41 411.79 1148.01 384.84C1145.14 362.1 1142.72 339.45 1142.64 334.5L1142.5 325.5L1146 325.25C1150.04 324.97 1149.27 324.45 1191.21 356.08C1224.3 381.04 1227.88 383.52 1229.14 382.26C1229.74 381.66 1229.35 375.52 1228.05 365.4C1226.92 356.66 1226 347.37 1226 344.76L1226 340.03L1231.77 337.11C1234.95 335.51 1245.19 330.84 1254.52 326.73C1263.86 322.62 1279.6 315.57 1289.5 311.06C1299.4 306.55 1310.65 301.47 1314.5 299.76C1321.38 296.71 1324.47 295.33 1342.5 287.21C1347.45 284.99 1360.95 279.02 1372.5 273.95C1384.05 268.88 1395.75 263.64 1398.5 262.3C1401.25 260.95 1405.65 258.99 1408.27 257.93C1413.25 255.93 1502.67 216.43 1514 211.24C1517.58 209.6 1524.78 206.43 1530 204.2C1535.22 201.97 1546.7 196.9 1555.5 192.95C1564.3 188.99 1574.88 184.27 1579 182.47C1634.87 158.09 1678.46 138.73 1680.54 137.38C1681.66 136.65 1683.34 133.56 1684.28 130.52C1688.13 118.02 1695.45 111.77 1706.3 111.72C1716.64 111.67 1724.45 116.48 1728.63 125.46C1732.13 132.97 1731.82 138.85 1727.5 146.57C1725.58 150.01 1724 153.74 1724 154.87C1724 155.99 1728.56 167.39 1734.13 180.2C1751.88 221.01 1757.67 234.26 1762.01 244C1764.34 249.22 1767.49 256.43 1769 260C1770.52 263.57 1772.98 269.2 1774.48 272.5C1775.98 275.8 1779.11 283 1781.45 288.5C1783.8 294 1786.63 300.52 1787.76 303C1790.97 310.07 1822.5 382.01 1841 424.5C1845.79 435.5 1850.63 446.52 1851.76 449C1852.89 451.48 1861.37 470.75 1870.6 491.82C1879.83 512.9 1887.86 530.75 1888.44 531.48C1889.32 532.59 1892.21 532.5 1905.5 530.93C1941.85 526.63 1944.54 526.54 1947.04 529.55C1949.11 532.04 1945.51 537.22 1900.71 596.25C1893.72 605.46 1888 613.66 1888 614.47C1888 615.54 1888.77 615.81 1890.75 615.46C1895.27 614.66 1972.97 605.2 1980 604.59C1986.46 604.03 1990.9 605.17 1991.7 607.59C1992.25 609.25 1981.21 625.37 1963.29 649.06C1931.39 691.23 1930.88 692 1934.65 692C1935.56 692 1954.12 689.78 1975.9 687.07C2032.75 680 2033.99 679.93 2035.44 683.71C2036.36 686.1 2030.99 694.27 2010.63 721.5C2000.76 734.7 1989.15 750.22 1984.84 755.98C1980.53 761.75 1977 767.09 1977 767.86C1977 768.91 1977.94 769.12 1980.75 768.69C1992.41 766.95 2017.03 764.79 2019.17 765.33C2022.24 766.1 2025.63 773.1 2048.51 826C2053.34 837.19 2070.33 875.67 2076.98 890.5C2080.18 897.65 2084.16 906.65 2085.81 910.5C2087.47 914.35 2091.28 923.12 2094.28 930C2097.29 936.88 2103.57 951.27 2108.24 962C2112.91 972.73 2118.55 985.55 2120.76 990.5C2122.97 995.45 2128.48 1008.05 2133.01 1018.5C2137.54 1028.95 2142.07 1039.3 2143.06 1041.5C2144.9 1045.55 2148.91 1054.73 2164.31 1090.08C2169 1100.86 2173.74 1111.66 2174.85 1114.08C2177.04 1118.87 2194.78 1158.92 2201.18 1173.5C2203.35 1178.45 2207.91 1188.12 2211.31 1195C2216.69 1205.86 2217.89 1207.61 2220.5 1208.34C2226.85 1210.11 2236.2 1215.39 2238.64 1218.59C2242.15 1223.2 2244.19 1230.53 2243.41 1235.73C2242.5 1241.79 2236.54 1249.93 2230.77 1252.99C2226.32 1255.35 2226.06 1255.72 2225.54 1260.49C2225.02 1265.19 2222.28 1329.62 2220.02 1390.5C2218.85 1421.71 2217.42 1459.24 2215.94 1497C2214.73 1528.11 2213.36 1524.64 2229.28 1530.88C2256.4 1541.51 2267 1547.18 2267 1551.04C2267 1554.16 2260.99 1557.22 2223.64 1573.11C2204.31 1581.33 2185.57 1589.31 2182 1590.85C2178.42 1592.39 2175.5 1594.27 2175.5 1595.04C2175.5 1596.53 2183.37 1600.12 2228 1619.01C2256.31 1630.99 2266.4 1636.01 2267.39 1638.58C2268.28 1640.88 2263.36 1644.97 2255.82 1648.21C2252.34 1649.71 2246.83 1652.12 2243.57 1653.57C2240.31 1655.03 2227.48 1660.41 2215.07 1665.52C2182.46 1678.96 2174.7 1682.41 2174.28 1683.65C2173.9 1684.8 2180.75 1687.95 2211 1700.53C2245.31 1714.79 2266.08 1724.28 2267.08 1726.16C2268.49 1728.77 2266.7 1731.6 2262.18 1733.91C2258.25 1735.91 2202.29 1759.73 2180.25 1768.77C2176.81 1770.18 2174 1771.89 2174 1772.56C2174 1773.23 2178.84 1775.7 2184.75 1778.05C2199.1 1783.76 2212.95 1790.71 2213.66 1792.57C2214.3 1794.23 2212.78 1855.3 2210.43 1922C2209.58 1945.92 2208.81 1976.69 2208.7 1990.36L2208.5 2015.21L2210.93 2016.86C2221.83 2024.22 2226.03 2034.16 2222.94 2045.28C2219.61 2057.27 2201.99 2065.6 2191.4 2060.2C2185.85 2057.37 2179.35 2050.6 2177.94 2046.19C2177.29 2044.16 2176.43 2042.14 2176.04 2041.71C2175.4 2041.01 2156.33 2038.02 2072 2025.44C2041.74 2020.92 2017.41 2017.26 1976.5 2011.06C1846.41 1991.35 1776.59 1981 1773.66 1981C1769.88 1981 1766.68 1983.97 1757.51 1996C1746.08 2010.99 1735.31 2023.67 1733.35 2024.42C1729.78 2025.79 1728.03 2022.84 1726 2012.05C1725.44 2009.06 1722.51 1988.58 1719.49 1966.55C1716.46 1944.52 1713.76 1925.49 1713.48 1924.25C1712.49 1919.94 1714.09 1918.16 1685.77 1955C1654.03 1996.29 1649.28 2002 1646.64 2002C1642.3 2002 1640.94 1995.87 1634.03 1945C1627.86 1899.65 1628.09 1901 1626.45 1901C1625.32 1901 1612.96 1915.3 1606.45 1924.15C1600.87 1931.72 1576.26 1962.74 1570.92 1968.94C1567.53 1972.86 1563.48 1976.74 1561.91 1977.55C1559.24 1978.93 1558.97 1978.88 1557.64 1976.76C1555.76 1973.78 1553.21 1957.93 1546.01 1904.5C1542.3 1876.93 1542.31 1877 1540.62 1877C1539.88 1877 1535.22 1882.29 1530.26 1888.76C1525.31 1895.23 1519.29 1902.67 1516.88 1905.28L1512.5 1910.04L1501 1908.56C1463.17 1903.7 1406.21 1896.13 1365 1890.48C1350.97 1888.56 1332.75 1886.08 1324.5 1884.96C1316.25 1883.85 1305 1882.27 1299.5 1881.47C1294 1880.66 1254.85 1875.27 1212.5 1869.48C1170.15 1863.69 1116.15 1856.26 1092.5 1852.98C1068.85 1849.69 1048.13 1847 1046.45 1847C1044.26 1847 1042.42 1848.01 1039.95 1850.57C1035.01 1855.67 1031.31 1857.71 1020.8 1861.12C1015.02 1862.99 993.51 1873.16 964 1887.95C895.61 1922.24 774.95 1983.43 710.5 2016.5C640.08 2052.64 590.83 2077 588.2 2077C586.58 2077 584.81 2076.44 584.28 2075.75ZM2181.48 2023.59C2183.47 2021.16 2187.07 2018.25 2189.47 2017.12C2191.88 2015.99 2194.09 2014.66 2194.4 2014.16C2194.92 2013.33 2196.22 1978.07 2199.05 1888.5C2201.63 1806.91 2201.69 1802.6 2200.39 1800.39C2198.93 1797.93 2195.22 1796.09 2173.09 1786.91C2155.46 1779.59 2149.5 1775.79 2149.5 1771.89C2149.5 1768.96 2154.03 1766.64 2188.5 1751.89C2227.84 1735.07 2240.36 1729.42 2240.72 1728.34C2241.14 1727.08 2233.79 1723.69 2197 1708.17C2151.29 1688.89 2149 1687.71 2149 1683.53C2149 1680.25 2152.58 1678.27 2179 1666.97C2199.98 1657.99 2206.18 1655.41 2228.22 1646.46C2234.11 1644.06 2239.93 1641.57 2241.14 1640.92L2243.35 1639.74L2240.67 1638.34C2237.8 1636.83 2202.56 1621.75 2184.5 1614.3C2178.45 1611.81 2170.12 1608.19 2166 1606.27C2161.88 1604.35 2156.63 1601.96 2154.34 1600.96C2150.07 1599.1 2148.41 1596.43 2149.46 1593.13C2150.16 1590.93 2159.05 1586.67 2189 1574.23C2200.82 1569.31 2212.97 1564.16 2216 1562.78C2219.03 1561.39 2224.65 1559.01 2228.5 1557.49C2236.06 1554.5 2243 1551.19 2243 1550.58C2243 1550.37 2235.44 1546.98 2226.19 1543.05C2216.94 1539.12 2207.94 1535.04 2206.19 1533.97C2202.32 1531.61 2202.44 1535.7 2204.49 1475C2207.28 1392.75 2208.01 1372.45 2208.97 1350C2209.51 1337.62 2210.41 1314.67 2210.99 1299C2211.57 1283.33 2212.22 1268.16 2212.44 1265.31C2212.66 1262.45 2212.6 1259.2 2212.31 1258.07C2211.8 1256.12 2202.99 1249 2201.1 1249C2200.6 1249 2174.62 1261.65 2143.35 1277.12C2112.08 1292.58 2075.7 1310.53 2062.5 1317C2033.49 1331.22 1919.74 1387.57 1817.75 1438.25L1743 1475.39L1743.01 1478.94C1743.02 1480.9 1743.69 1488.58 1744.51 1496C1748.17 1529.21 1748.25 1531.19 1746 1533.45L1743.95 1535.49L1738.73 1532.73C1733.18 1529.81 1717.89 1518.74 1682.63 1492.12C1670.69 1483.11 1660.64 1476.03 1660.29 1476.37C1659.94 1476.72 1662.22 1497.59 1665.36 1522.75C1668.49 1547.91 1671.04 1570.11 1671.03 1572.08C1670.99 1576.92 1667.07 1580.81 1663.76 1579.29C1662.52 1578.72 1651.83 1570.94 1640 1562.01C1596.2 1528.93 1583.83 1519.84 1583.32 1520.35C1583.03 1520.64 1585.14 1539.69 1588 1562.69C1594.6 1615.57 1594.91 1619.9 1592.24 1622.3C1589.04 1625.17 1585.81 1623.61 1570.04 1611.62C1531.01 1581.95 1509.38 1565.74 1508.21 1565.27C1507.5 1564.99 1506.71 1564.96 1506.46 1565.2C1506.21 1565.45 1506.93 1573.14 1508.06 1582.29C1509.19 1591.43 1509.97 1601.07 1509.81 1603.71L1509.5 1608.5L1495 1616.02C1445.33 1641.81 1384.71 1673.01 1341.5 1695.01C1326.1 1702.85 1291 1720.73 1263.5 1734.75C1236 1748.77 1200.67 1766.77 1185 1774.76C1104.94 1815.55 1070.41 1833.31 1069.55 1834.11C1068.95 1834.67 1068.95 1835.34 1069.55 1835.92C1070.46 1836.79 1125.16 1844.88 1195 1854.45C1212.88 1856.9 1240.78 1860.74 1257 1862.99C1284.49 1866.79 1343 1874.73 1411.5 1883.95C1427.45 1886.09 1455.74 1889.78 1474.37 1892.14L1508.23 1896.43L1510.37 1893.85C1511.54 1892.43 1516.1 1886.6 1520.5 1880.9C1541.95 1853.07 1545.15 1850.2 1549.43 1854.93C1551.95 1857.71 1552.36 1860.01 1559.03 1908.46C1562.36 1932.64 1565.34 1952.66 1565.64 1952.96C1566.53 1953.82 1574.12 1944.98 1589.61 1925.04C1612.34 1895.79 1625.07 1880.09 1627.77 1877.96C1630.9 1875.5 1634.63 1875.44 1635.9 1877.82C1637.25 1880.33 1639.2 1892.17 1644.49 1930C1650.56 1973.33 1651.15 1977 1652.03 1977C1652.45 1977 1663.71 1962.94 1677.06 1945.75C1711.52 1901.37 1714.47 1898.15 1719.46 1899.4C1722.81 1900.24 1723.11 1901.63 1728.49 1940.5C1734.7 1985.43 1736.87 2000.21 1737.34 2000.67C1737.55 2000.89 1742.18 1995.33 1747.62 1988.32C1761.66 1970.21 1763.9 1968 1768.27 1968C1771.6 1968 1817.03 1974.47 1880 1983.92C2004.04 2002.53 2087.51 2015.1 2125.5 2020.91C2150.25 2024.69 2172.16 2027.83 2174.18 2027.89C2177.38 2027.99 2178.34 2027.42 2181.48 2023.59ZM997 1981.28C992.81 1980.53 992.53 1979.27 995.9 1976.43C999.75 1973.19 1000.55 1971.65 1010.94 1947.5C1022.78 1920 1024.22 1917 1025.67 1917C1027.33 1917 1030.36 1923.02 1039.15 1943.8C1048.89 1966.78 1052.32 1973.3 1056.55 1976.78C1058.54 1978.42 1059.8 1980 1059.34 1980.29C1055.83 1982.45 1034 1982.04 1034 1979.81C1034 1979.25 1035.12 1977.9 1036.5 1976.82C1039.52 1974.45 1039.65 1971.68 1037.04 1965.58L1035.07 1961L1023.49 1961L1011.9 1961L1009.97 1965.25C1007.32 1971.1 1007.35 1976.66 1010.06 1977.52C1011.19 1977.88 1011.94 1978.69 1011.72 1979.33C1011.06 1981.33 1003.12 1982.38 997 1981.28ZM1030.79 1954.75C1032.03 1953.25 1025.33 1936 1023.51 1936C1022.14 1936 1015.98 1950.54 1015.99 1953.75C1016 1955.86 1016.41 1956 1022.88 1956C1027.16 1956 1030.14 1955.53 1030.79 1954.75ZM1671.52 1875.03C1671.19 1874.49 1671.66 1872.92 1672.58 1871.52C1675.07 1867.72 1674.26 1844.4 1671.58 1842.43C1670.49 1841.64 1670 1840.45 1670.36 1839.5C1671.1 1837.56 1677.96 1834.54 1679.02 1835.68C1679.44 1836.13 1679.98 1843.92 1680.21 1853C1680.46 1862.52 1681.12 1870.39 1681.78 1871.6C1682.62 1873.16 1682.62 1873.98 1681.75 1874.85C1680.35 1876.25 1672.36 1876.39 1671.52 1875.03ZM1602.25 1860.34C1600.22 1859.52 1600.82 1858.26 1603.57 1857.57C1608.39 1856.36 1609.29 1851.89 1609.3 1829C1609.31 1806.42 1608.37 1801.48 1603.91 1800.83C1602.67 1800.65 1601.46 1799.89 1601.21 1799.15C1600.85 1798.05 1604.07 1797.87 1619.13 1798.15C1637.03 1798.49 1637.62 1798.57 1642.13 1801.22C1646.97 1804.07 1650 1809.23 1650 1814.63C1650 1818.5 1646.15 1824.63 1641.82 1827.62C1639.72 1829.08 1638 1831.07 1638 1832.05C1638 1834.04 1648.14 1848.02 1652.61 1852.2C1654.2 1853.68 1657.19 1855.6 1659.25 1856.46C1666.08 1859.31 1663.62 1861 1652.63 1861L1645.42 1861L1637.13 1849.61C1627.68 1836.64 1622.74 1831.42 1620.97 1832.52C1620.08 1833.07 1619.94 1835.94 1620.44 1843.38C1621.3 1856.25 1621.46 1856.72 1625.24 1857.55C1628.2 1858.2 1628.27 1858.33 1626.5 1859.62C1625.16 1860.6 1621.56 1860.98 1614.06 1860.92C1608.25 1860.88 1602.94 1860.62 1602.25 1860.34ZM1108.5 1799.75C1135.45 1786 1168.75 1769.01 1182.5 1762C1196.25 1754.98 1231.35 1737.1 1260.5 1722.25C1289.65 1707.41 1332.17 1685.71 1355 1674.03C1377.83 1662.35 1408.88 1646.48 1424 1638.76C1447.56 1626.74 1466.27 1617.04 1491 1604.02C1495.54 1601.63 1496.55 1600.61 1496.8 1598.18C1496.97 1596.57 1495.96 1586.42 1494.55 1575.63C1491.55 1552.59 1491.35 1545.8 1493.57 1543.57C1494.44 1542.71 1495.71 1542 1496.39 1542C1498.08 1542 1509.1 1549.67 1528.45 1564.31C1572.26 1597.44 1578.46 1601.94 1579.21 1601.19C1579.66 1600.74 1577.78 1582.4 1575.05 1560.44C1567.6 1500.63 1567.54 1499 1572.89 1499C1575.88 1499 1593.41 1510.81 1616.15 1528.16C1650.11 1554.07 1655.47 1557.93 1656.28 1557.12C1656.78 1556.62 1656.48 1551.59 1655.58 1545.37C1650.88 1512.79 1646.75 1476.18 1646.63 1466C1646.44 1449.03 1645.2 1448.74 1679 1473.69C1689.72 1481.61 1706.15 1493.9 1715.49 1501C1724.84 1508.1 1732.8 1513.6 1733.19 1513.21C1733.58 1512.82 1733.04 1505.97 1731.98 1498C1730.92 1490.03 1729.93 1480.36 1729.78 1476.53L1729.5 1469.57L1737.5 1465.19C1745.32 1460.9 1944.64 1361 1945.37 1361C1945.57 1361 1979.88 1344.08 2021.62 1323.39C2063.35 1302.71 2106.72 1281.28 2118 1275.77C2152.03 1259.13 2192.42 1238.89 2193.7 1237.84C2194.35 1237.29 2195.42 1234.29 2196.06 1231.17C2197.37 1224.86 2200.42 1217.72 2202.59 1215.93C2203.36 1215.28 2204 1214.3 2204 1213.75C2204 1212.7 2186.26 1171.24 2170.51 1135.5C2159.08 1109.54 2146.34 1080.44 2135.5 1055.5C2122.31 1025.15 2111.02 999.31 2099.48 973C2093.57 959.52 2085.7 941.52 2082 933C2075.49 918.03 2069.67 904.76 2058.52 879.5C2055.61 872.9 2049.5 858.95 2044.94 848.5C2040.39 838.05 2033.09 821.4 2028.74 811.5C2024.38 801.6 2019.43 790.2 2017.75 786.16C2016.06 782.12 2014.02 778.56 2013.21 778.25C2012.41 777.94 2001.57 778.92 1989.12 780.43C1958.5 784.13 1953.62 783.62 1955.32 776.88C1956.06 773.9 1969.34 755.23 1990.1 727.98C2006.78 706.08 2014.14 695.81 2013.58 695.24C2013.38 695.05 2004.51 696.04 1993.86 697.44C1960.88 701.78 1923.74 705.99 1918.45 706C1909.38 706 1908.72 702.24 1915.93 691.7C1924.65 678.97 1943.17 653.94 1966.18 623.81C1967.73 621.78 1969 619.87 1969 619.56C1969 618.46 1962.69 619.07 1923.86 623.91C1868.6 630.8 1870.65 630.65 1868.01 628.01C1863.95 623.95 1863.64 624.45 1896.07 581.43C1920.76 548.68 1924.59 543.26 1923.71 542.38C1923.39 542.06 1914.04 542.82 1902.92 544.08L1882.72 546.37L1880.97 544.22C1880.01 543.03 1871.92 525.51 1862.98 505.28C1854.05 485.05 1845.01 464.68 1842.91 460C1839.28 451.96 1817.72 402.8 1802.98 369C1799.27 360.48 1794.32 349.23 1791.99 344C1789.66 338.77 1786.52 331.57 1785.02 328C1783.51 324.43 1777.91 311.64 1772.56 299.6C1767.21 287.55 1762.41 276.58 1761.89 275.21C1761.37 273.84 1759.18 268.85 1757.03 264.11C1754.88 259.37 1748.97 246.05 1743.9 234.5C1729.9 202.56 1726.54 194.99 1723.74 189C1722.33 185.97 1719.18 179.22 1716.74 174C1711.57 162.92 1709 159.4 1706.7 160.28C1704.85 160.99 1700.88 169.19 1692.06 190.5C1688.64 198.75 1683.89 210.22 1681.51 216C1676.79 227.4 1645.86 304.94 1623.07 362.5C1602 415.71 1588.18 450.48 1584.5 459.5C1582.71 463.9 1575.38 482.35 1568.2 500.5C1561.03 518.65 1548.19 551.05 1539.67 572.5C1531.15 593.95 1517.56 628.15 1509.47 648.5C1501.39 668.85 1493.3 689.33 1491.49 694C1489.69 698.67 1483.63 713.98 1478.02 728C1472.41 742.02 1467.01 755.75 1466.02 758.5C1465.02 761.25 1458.76 776.96 1452.1 793.42C1445.45 809.87 1440 823.94 1440 824.68C1440 825.43 1445.85 833.67 1453 843C1467.12 861.42 1473 870.07 1473 872.4C1473 875.28 1468.84 877 1461.89 877C1455.07 877 1420.84 872.98 1388.2 868.36C1378.14 866.93 1369.64 866.03 1369.32 866.35C1368.8 866.86 1382.6 885.44 1419.52 933.96C1424.73 940.81 1429 947.12 1429 947.99C1429 948.85 1428.3 950.56 1427.44 951.78C1425.17 955.03 1420.01 954.76 1373.5 949C1333.34 944.02 1327 943.43 1327 944.63C1327 946.19 1332.73 954.34 1351.51 979.5C1382.82 1021.45 1385.18 1024.86 1384.48 1027.07C1384.14 1028.14 1382.49 1029.73 1380.81 1030.6C1377.99 1032.06 1376.4 1031.99 1359.13 1029.61C1324.53 1024.85 1281.88 1019.79 1281.29 1020.38C1280.65 1021.02 1281.53 1022.31 1295.54 1041.34C1300.75 1048.39 1305 1055 1305 1056.02C1305 1057.04 1296.18 1082.77 1285.4 1113.19C1274.61 1143.61 1263.42 1175.25 1260.53 1183.5C1257.63 1191.75 1248.19 1218.3 1239.54 1242.5C1230.89 1266.7 1217.99 1302.92 1210.87 1323C1203.74 1343.08 1195.63 1365.8 1192.83 1373.5C1190.03 1381.2 1185.81 1393.12 1183.45 1400C1181.08 1406.88 1176.47 1419.92 1173.2 1429C1167.64 1444.39 1113.51 1595.85 1109.22 1608C1099.84 1634.55 1097.64 1640.75 1094.48 1649.5C1087.68 1668.33 1064.75 1732.58 1050.58 1772.5C1044.73 1789 1038.79 1805.54 1037.38 1809.25L1034.83 1815.99L1037.78 1819.75C1039.4 1821.81 1041.7 1825.41 1042.89 1827.75L1045.04 1832L1052.27 1828.37C1056.25 1826.38 1081.55 1813.5 1108.5 1799.75ZM1631.85 1824.26C1633.24 1823.22 1635.25 1821.21 1636.32 1819.78C1638.84 1816.4 1637.94 1811.09 1634.14 1806.83C1631.93 1804.36 1630.37 1803.65 1626.34 1803.26L1621.3 1802.77L1620.66 1806.64C1619.78 1811.98 1619.84 1825.5 1620.75 1826.43C1621.99 1827.68 1629.14 1826.28 1631.85 1824.26ZM1026.27 1802.36C1027.88 1798.04 1032.47 1785.28 1036.48 1774C1040.48 1762.72 1045.79 1747.88 1048.27 1741C1050.76 1734.12 1056.47 1718.15 1060.96 1705.5C1065.46 1692.85 1071.32 1676.42 1073.98 1669C1076.65 1661.58 1082.26 1645.83 1086.46 1634C1090.66 1622.17 1094.78 1610.7 1095.62 1608.5C1096.46 1606.3 1100.92 1593.92 1105.52 1581C1110.12 1568.08 1118 1546.03 1123.02 1532C1128.04 1517.97 1134.31 1500.42 1136.94 1493C1139.58 1485.58 1146.1 1467.35 1151.43 1452.5C1156.76 1437.65 1164.05 1417.17 1167.63 1407C1171.21 1396.83 1174.99 1386.25 1176.04 1383.5C1177.09 1380.75 1179.93 1372.88 1182.35 1366C1184.78 1359.12 1191.36 1340.67 1196.98 1325C1202.59 1309.33 1208.21 1293.58 1209.45 1290C1210.69 1286.42 1218.72 1263.92 1227.28 1240C1245.56 1188.93 1245 1190.48 1252.93 1168C1256.32 1158.38 1260.94 1145.55 1263.19 1139.5C1265.45 1133.45 1268.11 1126.03 1269.1 1123C1270.1 1119.97 1275.59 1104.46 1281.3 1088.52C1287.11 1072.34 1291.47 1058.68 1291.18 1057.59C1290.9 1056.52 1284.05 1046.79 1275.95 1035.97C1259.54 1014.04 1259 1013.2 1259 1009.54C1259 1005.64 1262.45 1004.76 1272.85 1006.02C1277.61 1006.6 1299.47 1009.31 1321.43 1012.05C1343.39 1014.8 1361.71 1016.69 1362.13 1016.27C1362.91 1015.49 1359.63 1011 1326.56 967.5C1305.47 939.75 1302.5 935.11 1303.45 931.34L1304.11 928.71L1313.48 929.32C1318.63 929.66 1341.36 932.26 1363.99 935.1C1387.57 938.05 1405.51 939.88 1406.01 939.38C1406.5 938.88 1396.62 924.94 1383.19 907.16C1348.72 861.56 1346.5 858.31 1347.65 855.12C1348.57 852.54 1348.71 852.5 1357.54 852.71C1362.47 852.83 1385.4 855.39 1408.5 858.4C1431.6 861.4 1450.85 863.53 1451.27 863.11C1451.69 862.7 1448.44 857.59 1444.05 851.75C1432.2 836.01 1427 827.92 1427 825.21C1427 823.12 1439.22 791.61 1476.72 697C1481.41 685.17 1489.52 664.7 1494.74 651.5C1499.96 638.3 1505.7 623.9 1507.49 619.5C1509.29 615.1 1516.27 597.55 1523 580.5C1529.73 563.45 1543.51 528.7 1553.62 503.27C1563.73 477.85 1572 456.81 1572 456.52C1572 456.22 1573.74 451.82 1575.87 446.74C1578 441.66 1584.8 424.68 1590.99 409C1597.17 393.32 1606.43 369.93 1611.56 357C1616.69 344.07 1624.33 324.73 1628.53 314C1632.73 303.27 1638.57 288.43 1641.51 281C1655.67 245.22 1662.64 227.45 1667.02 216C1669.64 209.12 1674.57 196.3 1677.96 187.5C1690.66 154.6 1691.49 151.61 1688.26 150.58C1685.92 149.84 1682.22 151.11 1666 158.25C1659.12 161.27 1646.53 166.77 1638 170.48C1629.47 174.18 1619.58 178.5 1616 180.07C1612.42 181.64 1598.7 187.61 1585.5 193.34C1572.3 199.07 1559.47 204.71 1557 205.86C1554.53 207.01 1527.75 218.81 1497.5 232.09C1467.25 245.37 1431.92 260.96 1419 266.75C1406.08 272.53 1391.67 278.94 1387 281C1382.33 283.06 1371.84 287.73 1363.7 291.37C1355.55 295.02 1348.69 298 1348.45 298C1348.21 298 1345.19 299.3 1341.75 300.9C1329.46 306.59 1250.46 341.52 1242.62 344.73L1238.73 346.32L1239.37 353.91C1239.71 358.09 1241.16 370.18 1242.59 380.79C1244.97 398.6 1245.05 400.27 1243.59 402.51C1242.71 403.84 1241.16 405.38 1240.14 405.93C1238 407.07 1240.09 408.5 1198 377C1165.71 352.83 1157.06 346.61 1156.5 347.17C1156.28 347.39 1158.55 367.12 1161.55 391C1167.11 435.28 1167.94 446.66 1165.8 448.8C1162.58 452.02 1158.6 450.13 1143 438C1114.28 415.65 1082.26 392 1080.73 392C1079.61 392 1079.96 395.82 1084.12 429.5C1089.43 472.39 1089.96 477.4 1089.98 484.6C1090 490.43 1089.65 492.01 1088 493.5C1086.07 495.25 1085.86 495.21 1080.86 492.11C1075.39 488.71 1025.16 451.55 1016.14 444.23C1009.71 439.02 1003.1 434.56 1002.61 435.1C1002.41 435.32 1003.09 442 1004.11 449.94C1005.13 457.88 1006.08 467.77 1006.23 471.92L1006.5 479.46L997.5 484.27C992.55 486.92 975.45 495.89 959.5 504.21C943.55 512.52 920.6 524.49 908.5 530.8C886.07 542.49 838.93 566.88 811 581.24C779.6 597.38 681.99 648.11 658 660.77C654.42 662.65 642.73 668.71 632 674.24C621.27 679.76 605.98 687.75 598 691.99C590.02 696.23 577.65 702.75 570.5 706.48C558.4 712.79 531.9 727 531.19 727.55C531.01 727.69 530.23 730.54 529.45 733.89C528.67 737.24 526.67 742.38 525.01 745.32C521.46 751.63 521.38 752.61 523.99 758.22C525.73 761.98 563.42 848.23 582.01 891C585.72 899.52 590.83 911.12 593.37 916.76C595.92 922.4 598 927.23 598 927.5C598 927.77 600 932.38 602.44 937.74C604.89 943.11 613.95 963.7 622.58 983.5C631.22 1003.3 640.29 1024 642.73 1029.5C645.18 1035 648.25 1042.05 649.57 1045.17C659.18 1068.01 680.37 1115.72 681.33 1116.67C682.22 1117.57 686.88 1117.3 701.19 1115.52C736.45 1111.12 740 1111.16 740 1115.95C740 1117.95 727.76 1136.12 716.35 1151.05C679.11 1199.79 679.25 1199.59 680.06 1200.4C680.33 1200.66 692.01 1199.33 706.03 1197.44C747.01 1191.89 771 1189 776.06 1189C779.19 1189 781.56 1189.63 783.1 1190.88C785.15 1192.54 785.28 1193.08 784.25 1195.35C783.6 1196.77 773.48 1210.66 761.75 1226.22C731.4 1266.49 725.11 1275.44 726.32 1276.65C726.58 1276.91 733.93 1276.21 742.65 1275.09C751.37 1273.97 769.29 1271.68 782.48 1269.99C821.2 1265.03 829 1264.97 829 1269.63C829 1272.08 820.5 1283.89 781.82 1335.18C775.32 1343.81 770 1351.54 770 1352.37C770 1353.49 770.82 1353.76 773.25 1353.43C782.31 1352.18 805.51 1350 809.76 1350C814.58 1350 814.61 1350.02 816.68 1354.75C817.82 1357.36 824.03 1371.42 830.47 1386C845.98 1421.05 883.5 1506.36 892.27 1526.5C896.1 1535.3 909.82 1566.58 922.76 1596C935.71 1625.42 949.32 1656.47 953.01 1665C985.48 1740.02 1015.64 1806.4 1019.21 1810.74C1021.07 1813.01 1023.28 1810.39 1026.27 1802.36ZM2318.49 1693.75C2318.25 1693.06 2317.92 1689.58 2317.77 1686L2317.5 1679.5L2305.84 1678.86C2299.43 1678.51 2293.69 1677.93 2293.09 1677.56C2289.36 1675.25 2295.22 1664.56 2313.82 1639.75C2318.59 1633.37 2320.97 1631 2322.58 1631C2323.79 1631 2325.02 1631.62 2325.31 1632.37C2325.6 1633.13 2326.16 1642.13 2326.56 1652.37C2327.22 1669.28 2327.45 1671 2329.06 1671C2332.28 1671 2334 1672.18 2334 1674.41C2334 1677.2 2332.21 1679 2329.43 1679C2327.51 1679 2327.18 1679.72 2326.55 1685.25C2326.17 1688.69 2325.14 1692.29 2324.27 1693.25C2322.44 1695.28 2319.14 1695.57 2318.49 1693.75ZM2340 1688C2340 1680.6 2340.91 1679.43 2343.84 1683.05C2345.92 1685.62 2356.11 1686.98 2358.48 1685.01C2359.79 1683.93 2359.42 1683.38 2355.75 1681.01C2346.27 1674.89 2342.99 1668.93 2343.01 1657.78C2343.03 1640.7 2353.77 1630.61 2372 1630.54C2379.33 1630.5 2381.28 1630.89 2386.21 1633.31C2393.55 1636.91 2399.56 1643.68 2401.57 1650.61C2404.25 1659.8 2401.17 1668.79 2392.63 1676.68C2389.76 1679.33 2386.56 1681.98 2385.53 1682.56C2384.33 1683.24 2383.94 1684.09 2384.45 1684.92C2385.79 1687.09 2396.48 1685.84 2399.3 1683.19C2400.58 1681.98 2402.41 1681 2403.36 1681C2404.86 1681 2405.05 1681.9 2404.8 1687.75L2404.5 1694.5L2395 1694.8C2389.78 1694.97 2384.04 1694.84 2382.25 1694.51C2379.17 1693.94 2379 1693.68 2379 1689.52C2379 1683.82 2380.33 1680.49 2384.4 1675.98C2389.39 1670.46 2391.37 1664.35 2390.78 1656.25C2389.73 1641.63 2381.04 1633.57 2368.39 1635.46C2364.72 1636.01 2362.7 1637.06 2359.9 1639.87C2355.59 1644.18 2354.01 1649.03 2354.01 1658C2354.01 1667.06 2355.39 1671.12 2360.48 1677.08C2363.82 1681 2365.1 1683.48 2365.76 1687.37C2366.29 1690.49 2366.27 1692.99 2365.7 1693.75C2365.03 1694.63 2361.11 1695 2352.38 1695L2340 1695L2340 1688ZM2107 1684.9C2107 1684.3 2109.75 1680.81 2113.11 1677.15C2119.83 1669.83 2124.98 1661.69 2124.99 1658.34C2125 1656.07 2119.82 1651 2117.5 1651C2116.76 1651 2114.82 1652.12 2113.18 1653.5C2109.61 1656.5 2109 1656.59 2109 1654.08C2109 1650.82 2110.13 1648.98 2113.07 1647.46C2117.06 1645.4 2121.91 1645.65 2126 1648.13C2130.37 1650.78 2130.97 1651.69 2130.98 1655.8C2131 1659.96 2129.02 1663.86 2122.87 1671.73C2120.19 1675.15 2118 1678.47 2118 1679.1C2118 1680.29 2126.21 1679.88 2130.75 1678.47C2133.85 1677.5 2133.81 1680.89 2130.69 1683.83C2128.61 1685.78 2127.28 1686 2117.69 1686C2110.6 1686 2107 1685.63 2107 1684.9ZM2046.25 1672.34C2044.59 1671.67 2044.65 1670 2046.33 1670C2047.05 1670 2048.74 1668.84 2050.08 1667.42L2052.5 1664.84L2052.5 1641.17C2052.5 1616.06 2052.07 1613.44 2047.83 1612.82C2046.63 1612.64 2045.47 1611.94 2045.24 1611.25C2044.95 1610.34 2046.71 1609.95 2051.67 1609.81C2063.08 1609.48 2077.29 1610.11 2081.2 1611.11C2089.56 1613.24 2095.15 1622.02 2093.07 1629.74C2092.05 1633.53 2087.09 1639.17 2082.54 1641.72C2080.91 1642.63 2080.92 1642.93 2082.83 1646.6C2083.95 1648.74 2087.78 1654.16 2091.34 1658.63C2096.5 1665.11 2098.76 1667.12 2102.42 1668.52C2106.1 1669.93 2106.79 1670.55 2105.88 1671.64C2105.11 1672.57 2102.32 1673 2096.99 1673L2089.23 1673L2083.15 1664.63C2074.32 1652.47 2067.03 1644 2065.41 1644C2064.3 1644 2064 1645.89 2064 1652.88C2064 1664.96 2064.7 1667.92 2067.89 1669.29C2071.52 1670.84 2071.63 1670.99 2069.97 1672.04C2068.46 1672.99 2048.5 1673.24 2046.25 1672.34ZM2316.78 1657.25C2316.93 1649.96 2316.68 1644 2316.22 1644C2315.37 1644 2313.17 1646.95 2304 1660.41C2297.21 1670.37 2297.53 1671.17 2308.23 1670.79L2316.5 1670.5L2316.78 1657.25ZM1675.34 1651.88C1670.93 1650.64 1663.52 1642.08 1661.45 1635.85C1658.93 1628.25 1659.81 1616.97 1663.51 1609.36C1667.53 1601.1 1677.02 1591.81 1683.71 1589.59C1686.57 1588.64 1690.4 1588.01 1692.21 1588.19C1695.49 1588.52 1695.48 1588.53 1689.46 1591.67C1681.35 1595.9 1675.53 1601.88 1673.46 1608.12C1671.56 1613.85 1671.95 1614.8 1675.54 1613.16C1679.73 1611.25 1687.82 1611.73 1691.66 1614.1C1701.27 1620.04 1701.47 1636.38 1692.04 1645.8C1686.52 1651.33 1680.78 1653.41 1675.34 1651.88ZM1705 1644.17C1705 1640.41 1705.31 1637.02 1705.69 1636.65C1706.06 1636.27 1707.61 1637.32 1709.13 1638.98C1711.54 1641.62 1712.56 1642 1717.24 1642C1724.92 1642 1725.94 1640.4 1720.54 1636.82C1709.18 1629.29 1705.44 1617.76 1710.02 1604.43C1713.91 1593.15 1722.56 1587.69 1736.5 1587.74C1752.23 1587.8 1762.81 1594.13 1766.84 1605.9C1770.72 1617.25 1764.46 1631.78 1753.25 1637.42C1751.46 1638.32 1750 1639.44 1750 1639.92C1750 1642.65 1760.33 1642.7 1764.77 1640C1769.71 1636.98 1770.13 1637.33 1769.8 1644.25L1769.5 1650.5L1757.25 1650.78L1745 1651.06L1745 1644.44C1745 1637.93 1745.07 1637.75 1749.42 1633.52C1754.61 1628.48 1755.99 1624.44 1755.99 1614.22C1756 1603.2 1752.73 1596.98 1744.79 1592.9C1740.15 1590.52 1735.65 1590.52 1730.5 1592.88C1723.62 1596.04 1720.66 1601.07 1719.46 1611.65C1718.52 1619.94 1720.86 1627.79 1725.91 1633.33C1730.77 1638.65 1732 1641.06 1732 1645.23C1732 1650.57 1730.91 1651 1717.3 1651L1705 1651L1705 1644.17ZM1684.39 1646.91C1688.35 1643.79 1690 1639.77 1689.98 1633.3C1689.93 1620.69 1682.3 1613.17 1673.58 1617.15C1666.8 1620.24 1668.14 1638.32 1675.74 1646.25C1678.9 1649.54 1680.85 1649.69 1684.39 1646.91ZM2074.04 1636.75C2077.07 1635.22 2079.08 1633.31 2080.31 1630.79C2082.08 1627.18 2082.07 1626.96 2080.16 1622.62C2077.99 1617.73 2075.28 1615.57 2070.11 1614.62C2064.62 1613.61 2064 1614.86 2064 1626.96C2064 1632.85 2064.3 1637.97 2064.67 1638.33C2065.94 1639.61 2069.6 1638.99 2074.04 1636.75ZM1599.5 1460.27C1596.75 1459.6 1595 1458.04 1595 1456.26C1595 1455.02 1596.09 1454.88 1601.57 1455.47C1609.44 1456.31 1612 1454.8 1612 1449.32C1612 1446.47 1611.31 1445.48 1607.5 1442.79C1605.03 1441.04 1603 1439.28 1603 1438.88C1603 1438.47 1604.35 1437.18 1606 1436C1609.83 1433.27 1610.84 1429.58 1608.46 1426.96C1606.33 1424.6 1602.26 1424.43 1599.22 1426.56C1597.16 1428 1597 1427.98 1597 1426.23C1597 1420.68 1606.67 1417.59 1612.37 1421.33C1616.7 1424.16 1617.67 1427.34 1615.46 1431.44C1613.61 1434.87 1613.61 1434.88 1616.3 1440.2C1619.19 1445.91 1619.01 1449.29 1615.53 1454.6C1612.9 1458.6 1604.64 1461.53 1599.5 1460.27ZM1536.25 1446.35C1533.31 1445.71 1533.4 1444.59 1536.52 1443.17C1540.97 1441.15 1541.48 1438.19 1541.45 1414.5C1541.43 1391.05 1540.83 1387.41 1536.88 1386.83C1535.66 1386.65 1534.48 1385.98 1534.28 1385.34C1533.1 1381.77 1567.78 1382.94 1574.21 1386.69C1582.35 1391.45 1584.49 1401.26 1579.02 1408.81C1577.38 1411.08 1574.68 1413.63 1573.02 1414.49C1571.36 1415.35 1570 1416.64 1570 1417.37C1570 1419.38 1579.2 1432.05 1584.53 1437.37C1587.13 1439.97 1590.56 1442.36 1592.15 1442.68C1599.49 1444.15 1594.44 1447 1584.51 1447L1578.16 1447L1571.43 1437.75C1562.17 1425.03 1556.11 1418 1554.42 1418C1553.29 1418 1553 1420.01 1553 1427.93C1553 1440.05 1553.82 1442.58 1558.04 1443.51C1560.27 1444 1560.88 1444.52 1560.14 1445.26C1559.04 1446.36 1540.21 1447.22 1536.25 1446.35ZM1561.58 1411.1C1569.55 1407.48 1572.05 1400.87 1567.97 1394.19C1565.74 1390.52 1560.22 1387.72 1556.15 1388.19L1553.5 1388.5L1553.21 1399.44C1553.06 1405.45 1553.16 1410.96 1553.43 1411.69C1554.12 1413.49 1556.74 1413.3 1561.58 1411.1ZM35.42 1339.1C30.61 1336.92 27.44 1333.2 25.84 1327.86C24.25 1322.57 25.89 1317.55 31.13 1311.58L35.28 1306.88L32.25 1303.69C27.34 1298.52 25.72 1294.39 26.22 1288.35C26.72 1282.37 28.5 1279.81 34.21 1276.89C38.74 1274.58 45.09 1274.47 51.32 1276.59C56.74 1278.44 59.96 1282.31 60.71 1287.85C61.17 1291.27 60.75 1292.11 56.11 1297.19C53.3 1300.27 51 1303.62 51.01 1304.64C51.02 1305.66 52.66 1308.08 54.65 1310C60.87 1315.99 63.51 1324.19 60.88 1329.32C58.54 1333.88 53.5 1338.07 48.6 1339.53C42.23 1341.42 40.39 1341.36 35.42 1339.1ZM93.92 1325.33C90.07 1317.17 86.51 1309.6 86.02 1308.5C76.67 1287.64 72.31 1280.09 68.81 1278.68C67.78 1278.26 67.82 1277.93 69 1277.09C70.68 1275.9 88.46 1275.73 91.37 1276.88C93.09 1277.55 93.03 1277.75 90.62 1279.33C89.18 1280.27 88 1281.82 88.01 1282.77C88.02 1284.67 98.49 1311.16 101.71 1317.43L103.72 1321.35L105.37 1318.83C107.34 1315.84 115.12 1294.7 117.09 1287.04C118.06 1283.26 118.14 1281.55 117.38 1281.29C116.77 1281.09 115.43 1280.28 114.39 1279.48C111.4 1277.2 114.31 1276.03 123 1276.03C132.57 1276.03 134.26 1276.97 130.06 1279.96C125.93 1282.9 120.7 1293.51 113.51 1313.5C107.64 1329.82 103.87 1338.35 101.99 1339.51C101.35 1339.9 98.12 1334.21 93.92 1325.33ZM49.8 1333.51C53.73 1330.2 54.18 1327.88 51.82 1323.1C49.98 1319.38 42.29 1312 40.26 1312C39.76 1312 38.39 1313.02 37.22 1314.26C32.61 1319.17 33.57 1331.62 38.78 1334.45C42.8 1336.62 46.48 1336.31 49.8 1333.51ZM574.49 1327.75C574.25 1327.06 573.92 1323.58 573.77 1320L573.5 1313.5L561.11 1313C545.94 1312.39 545.25 1311.84 549.38 1303.84C552.7 1297.39 565.19 1278.7 571.53 1270.69C575 1266.31 576.66 1264.95 578.31 1265.19C580.44 1265.49 580.52 1266.02 581.38 1285.14L582.27 1304.79L586.13 1305.41C589.07 1305.88 590 1306.49 590 1307.96C590 1310.09 586.48 1313 583.89 1313C582.58 1313 582.08 1314.41 581.52 1319.75C580.74 1327.09 579.78 1329 576.85 1329C575.8 1329 574.74 1328.44 574.49 1327.75ZM596 1322.03C596 1318.16 596.27 1315 596.61 1315C596.94 1315 598.55 1316.12 600.18 1317.5C602.54 1319.49 604.25 1320 608.52 1320C614.26 1320 616.63 1318.36 613.49 1316.56C609.1 1314.05 602.63 1307.21 600.29 1302.59C598.1 1298.27 597.82 1296.65 598.22 1290.55C598.72 1282.79 600.6 1278.23 605.36 1273.16C610.29 1267.93 615.48 1265.73 624.16 1265.21C638.03 1264.38 651.07 1270.3 655.37 1279.37C657.26 1283.35 657.62 1297.23 655.94 1301.68C654.69 1305.02 647.83 1312.3 643.25 1315.14C638.26 1318.24 638.99 1320 645.27 1320C649.28 1320 651.44 1319.39 654.33 1317.42C659.86 1313.66 661.16 1314.63 660.8 1322.24L660.5 1328.5L647.11 1328.78L633.72 1329.06L634.38 1323.44C635.14 1316.97 636.71 1313.52 640.5 1310C645.22 1305.61 646.41 1302.22 646.46 1293C646.51 1282.52 644.07 1276.71 637.8 1272.36C634.27 1269.92 632.71 1269.5 627.04 1269.5C618.8 1269.5 616.13 1271.1 612.62 1278.14C610.4 1282.59 610 1284.7 610.02 1291.95C610.05 1301.91 611.87 1306.94 617.48 1312.55C620.94 1316.01 621.08 1316.41 620.8 1322.33L620.5 1328.5L608.25 1328.78L596 1329.06L596 1322.03ZM573.5 1291.5C573.5 1281.53 573.2 1278.5 572.21 1278.5C570.77 1278.5 554.07 1301.74 554.03 1303.79C554.01 1304.77 556.31 1305 563.75 1304.79L573.5 1304.5L573.5 1291.5ZM51.6 1290.34C52.58 1285.09 50.47 1281.2 45.98 1279.99C41.31 1278.74 37.75 1279.92 35.4 1283.52C33.81 1285.94 33.81 1286.37 35.31 1289.52C36.2 1291.38 38.62 1294.79 40.69 1297.08L44.45 1301.24L47.71 1297.48C49.5 1295.4 51.25 1292.19 51.6 1290.34ZM2293.7 1248.63C2286.03 1246.48 2281.02 1242.17 2276.5 1233.86C2272.73 1226.93 2272.51 1226.03 2272.61 1218.5C2272.74 1208.45 2274.22 1202.9 2278.55 1196.3C2281.4 1191.94 2283.15 1190.52 2289.33 1187.55C2295.63 1184.52 2297.74 1184 2303.73 1184C2307.59 1184 2312.6 1184.65 2314.87 1185.45C2318.59 1186.77 2319.29 1186.74 2322.02 1185.2C2326.03 1182.94 2326.66 1184.02 2327.55 1194.76C2328.38 1204.73 2327.35 1206.76 2323.96 1201.83C2320.52 1196.8 2315.82 1192 2312.8 1190.41C2311.31 1189.64 2307.66 1189 2304.69 1189C2299.03 1189 2293.93 1191.52 2289.86 1196.32C2284.63 1202.5 2282.94 1221.68 2286.86 1230.46C2291.2 1240.18 2296.55 1243.39 2307.52 1242.84C2314.41 1242.49 2314.97 1242.27 2320.48 1237.74C2327.38 1232.05 2330.03 1231.42 2327.31 1236.11C2325.04 1240.01 2318.5 1245.48 2313.67 1247.49C2308.38 1249.7 2299.33 1250.22 2293.7 1248.63ZM894.42 1240.17C891.65 1238.43 888 1232.77 888 1230.21C888 1228.54 885.2 1228 876.62 1228L868.4 1228L860.98 1217.75C852.3 1205.78 846.3 1199 844.37 1199C843.32 1199 843.02 1200.81 843.07 1206.75C843.11 1211.01 843.45 1216.49 843.82 1218.91C844.42 1222.82 844.9 1223.46 848 1224.55L851.5 1225.77L848.5 1226.97C846.6 1227.73 841.76 1228.04 835.31 1227.82C825.94 1227.48 821.56 1226.42 824.82 1225.26C825.54 1225 827.34 1223.75 828.82 1222.48L831.5 1220.18L831.81 1198.34C832.16 1173.95 831.39 1169.03 827.07 1168.01C825.74 1167.7 824.48 1166.94 824.27 1166.32C823.27 1163.32 857.4 1163.95 864.22 1167.05C867.36 1168.48 871.8 1174.76 872.64 1178.93C873.8 1184.77 869.15 1192.11 861.42 1196.62C859.62 1197.67 859.85 1198.25 865.23 1206.12C873.18 1217.76 876.98 1221.9 880.66 1222.93C884.98 1224.13 887.46 1222.21 888.88 1216.56C889.51 1214.08 891.47 1210.39 893.25 1208.37C896.65 1204.49 904.94 1200.03 908.75 1200.01C912.03 1200 911.5 1201.76 907.75 1203.33C904.08 1204.87 897 1212.23 897 1214.5C897 1215.63 898.21 1216 901.9 1216C906.25 1216 907.14 1216.39 909.9 1219.53C913.6 1223.75 913.96 1228.2 911.06 1233.89C907.51 1240.84 900.02 1243.67 894.42 1240.17ZM903.69 1235.83C905.39 1234.22 906 1232.55 906 1229.46C906 1223.72 903.02 1220 898.43 1220L895 1220L895 1226.05C895 1232.71 897.09 1238 899.71 1238C900.62 1238 902.41 1237.02 903.69 1235.83ZM854.77 1190.82C856.58 1189.71 858.76 1187.43 859.63 1185.74C862.8 1179.62 857.36 1170.91 849.46 1169.43C843.7 1168.35 843 1169.7 843 1181.96C843 1187.85 843.33 1193 843.73 1193.4C844.86 1194.53 851.12 1193.07 854.77 1190.82ZM1465 1004.71C1461.8 1003.1 1461.01 998.45 1463.79 997.57C1464.84 997.23 1467.68 997.86 1470.1 998.96C1475.86 1001.57 1481.02 1001.56 1484.39 998.91C1494.27 991.13 1489.88 977.82 1476.5 975.04C1472.4 974.19 1472.74 972.35 1477.47 969.7C1479.65 968.47 1482.47 965.95 1483.72 964.09C1486.87 959.41 1486.67 955.51 1483.08 951.92C1479.2 948.05 1472.95 947.86 1467.64 951.47C1464.07 953.89 1464 953.9 1464 951.85C1464 948.45 1470.88 942.37 1475.64 941.56C1480.79 940.69 1487.09 942.31 1490.73 945.45C1493.12 947.5 1493.5 948.57 1493.5 953.19C1493.5 957.67 1492.96 959.28 1490.25 962.97C1488.46 965.41 1487 967.71 1487 968.1C1487 968.49 1488.6 969.74 1490.55 970.9C1495.37 973.74 1497.39 978.79 1496.71 986.32C1495.89 995.27 1489.81 1002.47 1480.9 1005.03C1476.19 1006.38 1467.99 1006.22 1465 1004.71ZM1508 999.38C1508 992.96 1508.07 992.79 1510.25 993.53C1513.86 994.75 1525.13 995.27 1526.14 994.26C1526.71 993.69 1525.28 992.2 1522.47 990.43C1510.55 982.89 1506.74 967.28 1513.77 954.7C1517.58 947.87 1523.79 943.64 1532.43 942.01C1549.67 938.76 1564.52 945.91 1568.52 959.39C1572.28 972.05 1568.86 981.8 1557.88 989.68C1555.2 991.61 1553 993.6 1553 994.09C1553 995.63 1565.41 995.16 1567.56 993.53C1571.56 990.5 1573 991.52 1573 997.38C1573 1005.03 1572.14 1005.5 1558.1 1005.5L1546.5 1005.5L1546.17 1002.59C1545.57 997.32 1546.94 993.56 1551.48 988.02C1556.89 981.43 1559 975.67 1558.99 967.57C1558.98 959.98 1555.64 952.31 1550.87 948.9C1548.02 946.87 1546.33 946.5 1539.83 946.5C1533.03 946.5 1531.86 946.78 1529.48 949C1524.96 953.22 1522.71 958.8 1522.22 967C1521.63 977.05 1523.21 982.44 1528.21 987.44C1530.42 989.65 1532.62 992.51 1533.11 993.79C1534.38 997.14 1534.21 1003.39 1532.8 1004.8C1532 1005.6 1527.64 1006 1519.8 1006L1508 1006L1508 999.38ZM1282.01 908.83C1282.02 908.1 1284.25 900.54 1286.97 892.03C1290.67 880.48 1291.61 876.36 1290.71 875.74C1289.02 874.6 1279.96 875.82 1277.29 877.56C1276.07 878.35 1274.83 879 1274.54 879C1273.64 879 1273.93 875.49 1275.1 872.15L1276.2 869L1286.02 869C1296.1 869 1299 869.49 1299 871.19C1299 872.79 1289.1 899.88 1286.71 904.83C1284.55 909.3 1281.99 911.49 1282.01 908.83ZM1213.75 895.31C1211.27 894.66 1211.58 893.75 1214.95 891.83C1219.49 889.24 1220.22 884.68 1219.83 861.08C1219.47 839.34 1218.9 836.42 1214.83 835.82C1213.63 835.64 1212.49 834.99 1212.29 834.37C1211.42 831.74 1238.1 831.55 1248.2 834.11C1256.49 836.21 1262.36 845.34 1260.02 852.44C1258.55 856.9 1254.69 861.59 1250.88 863.56C1249.3 864.38 1248 865.43 1248 865.89C1248 867.52 1258.06 881.57 1262.61 886.3C1265.24 889.03 1268.48 891.35 1270.14 891.68C1277.49 893.15 1272.93 896 1263.23 896L1256.32 896L1250.41 887.78C1242.11 876.22 1234.13 867 1232.44 867C1231.28 867 1231.02 868.89 1231.1 876.75C1231.23 889.43 1231.73 891.05 1236.03 892.55L1239.5 893.77L1236.68 894.88C1233.99 895.95 1217.39 896.26 1213.75 895.31ZM1239.28 860.62C1241.05 859.87 1243.83 857.84 1245.45 856.11C1252.17 848.97 1246.27 837.78 1235.67 837.58L1231.5 837.5L1231.21 848.44C1231.06 854.45 1231.16 859.96 1231.43 860.69C1232.08 862.38 1235.23 862.36 1239.28 860.62ZM246.25 805.35C244.29 804.54 244.78 803.17 247.15 802.82C248.33 802.64 250.14 801.37 251.17 799.98C252.87 797.7 253.04 795.38 253.04 774.85C253.04 752.28 252.43 747.39 249.52 746.47C244.37 744.86 244.48 744.94 246.03 743.96C246.84 743.45 257.19 743.02 269.03 743.02C294.11 743 295 743.25 295 750.43C295 753.09 294.41 755.24 293.48 756.02C291.71 757.48 291.78 757.53 289.58 753.21C287.37 748.86 284.71 748 273.4 748L263.93 748L264.22 759.25L264.5 770.5L269.5 770.82C276.89 771.3 281.46 769.61 284.04 765.43C285.24 763.49 286.73 762.08 287.36 762.28C288.93 762.8 289.42 779.35 287.94 782.1C286.84 784.18 286.77 784.16 284.96 781.17C282.47 777.08 280.82 776.38 271.75 775.59L264 774.92L264 778.8C264 780.94 264.29 786.81 264.65 791.85L265.3 801L274.4 801C284.71 800.99 287.83 799.72 292.5 793.59C294.01 791.61 296.09 790 297.14 790C299.26 790 299.12 791.23 296 800.5L294.31 805.5L270.91 805.68C258.03 805.78 246.94 805.63 246.25 805.35ZM1871.2 742.8C1870.54 742.14 1870 740.6 1870 739.37C1870 735.69 1867.39 734 1861.68 733.98C1858.83 733.98 1854.7 733.32 1852.5 732.53C1850.3 731.74 1845.76 731.07 1842.41 731.04L1836.32 731L1830.41 722.77C1820.77 709.34 1815.14 703 1812.85 703C1810.84 703 1810.8 703.3 1811.5 714.25C1812.25 725.98 1812.94 728 1816.21 728C1817.33 728 1817.99 728.53 1817.75 729.25C1817.18 730.97 1792.85 731.04 1792.28 729.33C1792.06 728.68 1792.92 728.01 1794.19 727.83C1795.69 727.61 1797.13 726.2 1798.31 723.79C1799.88 720.58 1800.14 717.29 1800.17 699.63C1800.22 676.15 1799.57 672.74 1794.7 671.04C1789.02 669.06 1793.62 668.03 1808.2 668.02C1823.4 668 1830.64 669.14 1834.49 672.17C1837.63 674.64 1841 681.02 1841 684.5C1841 688.62 1837.25 694.85 1833 697.79C1830.84 699.28 1829.06 701.26 1829.04 702.18C1828.98 704.76 1843.53 723.71 1846.91 725.45C1852.92 728.56 1853.97 727.82 1865.71 712.08C1870.77 705.3 1873.39 703.06 1874.7 704.37C1875.14 704.8 1875.65 710.09 1875.84 716.12C1876.16 726.41 1876.32 727.17 1878.59 728.65C1881.69 730.69 1881.66 732.8 1878.5 734C1876.53 734.75 1876 735.65 1876 738.28C1876 741.28 1874.57 744 1873 744C1872.67 744 1871.86 743.46 1871.2 742.8ZM1868.17 728.35C1869.44 727.19 1870 725.29 1869.98 722.1C1869.97 717.77 1868.7 713.97 1867.62 715.04C1866.63 716.04 1860 727.41 1860 728.12C1860 728.76 1861.76 729.32 1865.42 729.86C1865.93 729.94 1867.17 729.26 1868.17 728.35ZM1820.93 695.54C1824.61 693.64 1829 688.38 1829 685.89C1829 679.24 1822.66 673.01 1815.88 673C1812.61 673 1812.19 673.31 1811.62 676.12C1811.28 677.84 1811 683.24 1811 688.12L1811 697L1814.55 697C1816.5 697 1819.37 696.34 1820.93 695.54ZM2051 640.77C2047.82 639.08 2047.5 634.64 2050.53 634.21C2051.65 634.05 2055.46 634.82 2059 635.92C2065.2 637.85 2065.55 637.86 2068.47 636.16C2072.61 633.74 2076 628.4 2076 624.29C2076 619.77 2069.06 612.17 2063.98 611.13C2059.58 610.23 2059.58 608.76 2063.98 605.8C2068.41 602.81 2072 597.5 2072 593.93C2072 592.4 2070.84 589.77 2069.41 588.08C2067.19 585.43 2066.15 585 2062.05 585C2058.23 585 2056.51 585.61 2053.41 588.07C2048.57 591.92 2047.73 590.28 2051.66 584.65C2055.57 579.04 2060.18 576.74 2066.2 577.39C2073.01 578.12 2076.86 580.47 2078.97 585.19C2081.08 589.9 2080.49 593.24 2076.52 598.97C2075.14 600.97 2074 602.93 2074 603.32C2074 603.71 2075.97 605.94 2078.39 608.27C2083.42 613.13 2084.84 618.17 2083.04 624.85C2081.58 630.28 2076.39 636.86 2071.64 639.32C2066.76 641.84 2054.62 642.69 2051 640.77ZM2094.67 641.33C2093.56 640.22 2093.9 628 2095.04 628C2095.61 628 2097.37 628.95 2098.94 630.12C2100.99 631.63 2103.28 632.23 2106.99 632.23C2114.47 632.23 2115.03 630.87 2109.1 627.07C2092.78 616.59 2092.12 592.85 2107.85 582.24C2123.46 571.71 2148.36 578.28 2154.58 594.56C2155.74 597.6 2156.11 600.98 2155.84 605.87C2155.49 612.02 2154.98 613.51 2151.52 618.53C2148.93 622.29 2145.98 625.12 2142.82 626.86C2135.34 630.98 2136.76 632.75 2147 632.05C2148.93 631.92 2151.93 630.73 2153.68 629.41C2155.43 628.08 2157.35 627 2157.93 627C2159.47 627 2159.31 638.51 2157.75 639.77C2157.06 640.32 2151.1 640.94 2144.5 641.14L2132.5 641.5L2132.74 638C2133.25 630.36 2134.23 627.7 2138.05 623.56C2143.25 617.92 2145 613.41 2145 605.66C2145 595.07 2141.03 587.19 2133.8 583.41C2129.81 581.33 2120.17 581.6 2116.39 583.91C2106.39 590 2105.21 614.28 2114.47 623.27C2116.36 625.1 2118.37 627.85 2118.95 629.37C2120.36 633.08 2120.28 639.32 2118.8 640.8C2117.52 642.08 2095.9 642.56 2094.67 641.33ZM1198.25 574.89C1197.56 574.18 1197 572.73 1197 571.67C1197 570.05 1197.52 569.83 1200.25 570.28C1202.04 570.58 1204.29 571.14 1205.24 571.52C1207.44 572.39 1214 566.13 1214 563.18C1214 559.87 1209.2 555.15 1203.94 553.29C1201.25 552.33 1198.81 550.95 1198.53 550.22C1198.25 549.5 1199.34 546 1200.95 542.45L1203.87 536L1211.44 536C1217.36 536 1219 536.31 1219 537.44C1219 539.43 1215.09 542 1212.03 542.01C1208.08 542.03 1204.88 543.15 1205.29 544.36C1205.49 544.96 1207.64 546.62 1210.08 548.04C1220.93 554.39 1221.99 565.33 1212.46 572.6C1208.38 575.71 1200.31 577.01 1198.25 574.89ZM1134.7 561.36C1133.41 560.07 1133.99 559 1135.98 559C1137.06 559 1138.75 557.78 1139.73 556.3C1141.26 553.95 1141.54 550.66 1141.79 531.55C1142.04 512 1141.87 509.1 1140.29 506C1139.18 503.84 1137.64 502.38 1136.25 502.18C1133.64 501.81 1133.3 500.48 1135.58 499.61C1136.45 499.27 1143.09 499.01 1150.33 499.02C1164.59 499.03 1173.78 500.61 1177.18 503.63C1180.52 506.59 1183.28 513.69 1182.57 517.48C1181.72 522 1176.87 528.4 1173.12 529.95C1171.4 530.66 1170 531.82 1170 532.53C1170 533.23 1173.49 538.46 1177.75 544.15C1184.21 552.78 1186.36 554.92 1190.7 557C1193.56 558.38 1195.77 559.95 1195.62 560.5C1195.47 561.05 1191.49 561.63 1186.78 561.79L1178.21 562.07L1171.42 552.79C1161.71 539.51 1156.78 534 1154.6 534C1152.81 534 1152.73 534.66 1153.28 545.07C1153.89 556.47 1154.78 559 1158.21 559C1159.33 559 1159.99 559.53 1159.75 560.25C1159.3 561.62 1135.98 562.65 1134.7 561.36ZM1165.56 524.53C1170.54 520.72 1171.52 517.65 1169.46 512.25C1168.55 509.87 1166.74 507.22 1165.44 506.37C1162.01 504.12 1155.02 503.36 1153.91 505.1C1153.43 505.87 1153.02 511.4 1153.02 517.38L1153 528.26L1157.49 527.75C1160.24 527.44 1163.37 526.19 1165.56 524.53ZM1015.75 318.2C1008.34 317.72 1008.55 317.3 1025.32 299.06C1040.74 282.3 1042.81 267.5 1030.35 263.09C1025.08 261.23 1021.85 262.18 1016.44 267.16C1012.34 270.94 1012 271.08 1012 268.97C1012 264.79 1016.66 258.34 1021.3 256.1C1026.45 253.6 1030.73 253.44 1035.78 255.55C1047.15 260.3 1049.92 271.3 1042.88 283.68C1041.26 286.52 1035.91 293.27 1030.99 298.68C1026.08 304.08 1022.04 309.12 1022.03 309.88C1021.99 311.97 1040.35 310.92 1044.86 308.58C1049.1 306.38 1050.4 307.51 1048.87 312.06C1046.56 318.93 1045.91 319.2 1032.52 318.83C1025.91 318.65 1018.36 318.36 1015.75 318.2ZM1058.25 318.34C1056.7 317.71 1056.52 305.42 1058.04 304.48C1058.61 304.12 1059.99 305 1061.11 306.42C1062.95 308.75 1063.82 309 1070.01 309C1073.79 309 1077.15 308.57 1077.48 308.04C1077.8 307.51 1076.31 306.18 1074.16 305.08C1068.28 302.08 1062.4 294.85 1060.96 288.84C1055.23 264.94 1076.02 248.34 1102 256.09C1108.14 257.92 1116.09 265.88 1118.32 272.44C1121.72 282.41 1120.04 289.96 1112.7 297.72C1109.89 300.7 1106.33 303.87 1104.79 304.78C1100.15 307.52 1101.25 309 1107.92 309C1112.78 309 1114.38 308.55 1116.82 306.5C1121.31 302.72 1122 303.23 1122 310.38C1122 319.17 1121.52 319.46 1108.22 318.6C1102.33 318.22 1097.16 317.56 1096.75 317.15C1096.33 316.73 1096.28 313.59 1096.64 310.16C1097.21 304.75 1097.68 303.65 1100.27 301.8C1104.97 298.46 1108.22 290.22 1108.22 281.65C1108.22 269.4 1103.68 262.13 1094.33 259.41C1085.58 256.86 1078.47 260.24 1073.95 269.09C1069.6 277.63 1070.65 290.62 1076.31 298.06C1081.93 305.48 1082.73 307.03 1083.39 311.81C1084.29 318.39 1083.12 319.02 1070.06 318.92C1064.25 318.88 1058.94 318.62 1058.25 318.34ZM1689.03 84.04C1688.22 83.53 1687.77 82.95 1688.03 82.75C1688.29 82.56 1689.72 81.64 1691.2 80.71C1695.24 78.18 1695.99 73.6 1695.94 52C1695.88 30.47 1695.07 25.95 1691.07 25.01C1689.74 24.7 1688.48 23.94 1688.28 23.33C1687.71 21.62 1703.7 20.81 1717.67 21.84C1732.2 22.92 1736.8 24.76 1743.46 32.17C1748.95 38.28 1750.51 43.05 1750.43 53.5C1750.38 60.11 1749.91 62.39 1747.73 66.63C1742.26 77.25 1734.32 82.59 1721.86 84.02C1711.22 85.25 1690.95 85.26 1689.03 84.04ZM1724.28 77.65C1728.24 76 1734.38 69.34 1736.63 64.27C1737.69 61.88 1738.32 57.76 1738.35 53C1738.38 46.8 1737.93 44.62 1735.76 40.41C1734.31 37.61 1731.53 33.92 1729.58 32.2C1726 29.06 1717.8 25.99 1713.07 26.02C1707.65 26.05 1707.53 26.47 1707.17 46.21C1706.99 56.27 1707.14 67.76 1707.51 71.75L1708.17 79L1714.62 79C1718.16 79 1722.51 78.39 1724.28 77.65Z" fill="#1e2749" fill-rule="evenodd"/>
</svg>
