<?xml version="1.0" encoding="UTF-8"?>
<svg xmlns="http://www.w3.org/2000/svg" viewBox="0 0 2430 636" width="2430" height="636" shape-rendering="geometricPrecision">
<path d="M1778 621.6C1770.9 616.41 1765.13 609.47 1761.43 601.69C1757.05 592.45 1755.67 584.82 1756.24 573C1756.77 561.98 1760.34 552.01 1766.77 543.52C1771.14 537.77 1779.61 531.01 1782.47 531.01C1784.02 531 1783.36 532.1 1779.32 536.25C1773.19 542.55 1770.33 547.96 1768.44 556.86C1766.79 564.63 1766.53 588.26 1768.01 596.04C1769.56 604.21 1773.58 611.98 1779.26 617.74C1785.55 624.13 1784.76 626.54 1778 621.6ZM1919.17 623.4C1917.57 622.29 1916.98 621.01 1917.19 619.15C1917.61 615.56 1921.69 615.13 1927.02 618.13L1931.05 620.4L1933.27 618.17C1935.46 615.98 1935.5 615.46 1935.5 590.62C1935.5 563.92 1935.19 562 1930.88 562C1929.84 562 1929 561.38 1929 560.62C1929 558.98 1939.05 554.67 1941.68 555.18C1944.3 555.68 1944.6 559.84 1944.01 588.08L1943.5 612.65L1940.75 616.81C1939.24 619.09 1936.22 621.87 1934.04 622.98C1929.29 625.4 1922.31 625.6 1919.17 623.4ZM2392 623.35C2392 622.99 2394.27 620.52 2397.05 617.86C2406.06 609.22 2409.35 598.45 2409.39 577.5C2409.43 557.4 2405.96 546.13 2397.09 537.55C2393.36 533.94 2391.86 530.99 2393.75 531C2395.57 531.01 2401.6 535.51 2406.15 540.25C2413.02 547.42 2417.77 557.47 2419.7 568.95C2421.12 577.37 2421.12 578.97 2419.71 586.16C2418 594.83 2413.99 604.14 2409.14 610.73C2404.27 617.33 2392 626.37 2392 623.35ZM1889.39 603.02C1883.71 600.73 1880.88 592.83 1883.44 586.45C1885.31 581.81 1888.88 579.16 1899.65 574.44L1907.5 571L1907.29 566.75C1907.02 561.16 1903.21 557.51 1898.59 558.42C1894.91 559.14 1893 561.41 1893 565.04C1893 569.55 1888 572.6 1885.2 569.8C1882.93 567.53 1883.85 563.13 1887.42 559.24C1890.79 555.56 1890.99 555.49 1899.29 555.15C1908.56 554.77 1912.91 556.17 1915.19 560.26C1915.96 561.66 1916.63 568.59 1916.97 578.67C1917.26 587.56 1917.78 595.12 1918.12 595.46C1918.46 595.8 1919.93 595.53 1921.38 594.88C1922.82 594.22 1924.31 593.98 1924.68 594.35C1925.74 595.41 1919.87 601.09 1916.02 602.73C1912.59 604.2 1912.51 604.18 1909.81 600.95L1907.08 597.68L1901.15 600.84C1895.03 604.1 1893 604.48 1889.39 603.02ZM1971.64 602.54C1960.66 598.62 1954.98 585.45 1958.44 571.94C1961.4 560.37 1967.91 555 1978.99 555C1993.23 555 2001.94 563.72 2001.97 578C2002 595.74 1986.88 607.97 1971.64 602.54ZM2174.98 601.75C2163.14 595.76 2158.76 579.26 2165.5 566.03C2169.8 557.59 2174.25 555 2184.5 555C2192.08 555 2194.62 555.85 2199.28 559.94C2204.36 564.4 2207 570.67 2206.99 578.24C2206.96 596.59 2189.76 609.23 2174.98 601.75ZM2227 602.88C2220.95 600.48 2215.71 592.91 2214.5 584.85C2213.02 574.96 2218.23 562.43 2226 557.19C2229.12 555.09 2230.41 554.87 2238 555.17L2246.5 555.5L2246.79 552.5C2246.94 550.85 2246.71 547.02 2246.28 544C2245.55 538.95 2245.26 538.47 2242.68 538.18C2237.96 537.63 2239.85 534.84 2246.79 532.12C2251.59 530.24 2253.34 529.94 2254.24 530.84C2255.06 531.66 2255.53 540.92 2255.83 562.26C2256.06 578.89 2256.63 593.51 2257.1 594.75C2257.63 596.16 2258.79 597 2260.19 597C2262.15 597 2262.25 597.18 2260.96 598.43C2259 600.36 2249.09 604.17 2247.93 603.46C2247.42 603.14 2247 602.23 2247 601.44C2247 599.47 2245.14 599.63 2240.5 602C2236.3 604.14 2231.04 604.49 2227 602.88ZM2277.24 602.67C2272.12 599.83 2271.54 597.66 2270.97 579.36C2270.41 561.45 2269.9 559.42 2265.76 558.81C2264.6 558.64 2263.47 557.94 2263.24 557.25C2262.94 556.32 2264.9 556 2270.92 556L2279 556L2279.09 558.75C2280.15 590.32 2280.5 594.16 2282.44 595.58C2285.39 597.74 2288.2 597.31 2293.33 593.91L2298 590.81L2298 576.99C2298 569.38 2297.71 562.42 2297.36 561.51C2297.01 560.59 2295.66 559.44 2294.36 558.95C2289.63 557.15 2291.85 555.91 2299.24 556.21C2306.4 556.5 2306.49 556.54 2307.12 559.5C2307.48 561.15 2307.82 569.39 2307.88 577.82C2308.01 593.78 2308.71 597 2312.09 597C2315.41 597 2313.44 598.59 2306.44 601.56C2299.19 604.64 2298.05 604.26 2298.02 598.75C2298 595.46 2296.97 595.27 2294.4 598.11C2289.85 603.14 2281.9 605.26 2277.24 602.67ZM2329.54 601.73C2319.18 595.86 2315.23 579.65 2320.95 566.47C2326.35 554.02 2344.93 550.49 2353.97 560.2C2356.23 562.62 2356.64 566.96 2354.8 568.8C2353.23 570.37 2348.52 570.34 2347.24 568.75C2346.68 568.06 2345.92 566.03 2345.53 564.24C2343.85 556.36 2332.09 557.37 2328.94 565.66C2327.27 570.04 2327.86 582.1 2329.96 586.73C2333.75 595.08 2343.02 597.56 2349.42 591.94C2351.34 590.25 2353.18 588 2353.52 586.94C2354.25 584.64 2357 584.32 2357 586.54C2357 589.17 2353.33 595.35 2349.84 598.62C2343.74 604.31 2336.15 605.47 2329.54 601.73ZM1789.7 602.37C1788.44 601.11 1788.97 600 1790.83 600C1791.83 600 1793.63 598.96 1794.83 597.69C1796.95 595.42 1797 594.73 1797 567.84C1797 537.91 1797.08 538.33 1791.25 536.55C1786.1 534.98 1789.41 533.94 1798.69 534.21L1808.38 534.5L1818.75 556.5C1824.46 568.6 1829.59 579.74 1830.16 581.25C1830.73 582.76 1831.63 584 1832.16 584C1832.69 584 1834.84 580.29 1836.93 575.75C1844.93 558.41 1850.91 545.29 1853.35 539.75L1855.89 534L1865.44 534C1875.21 534 1877.55 534.98 1871.75 536.64C1867.41 537.89 1867.25 538.96 1867.19 566C1867.14 595.23 1867.4 596.96 1872.26 599.34C1874.32 600.34 1875.76 601.58 1875.45 602.09C1874.83 603.09 1852.11 603.36 1849.59 602.4C1847.56 601.62 1848.54 600 1851.04 600C1855.42 600 1856.15 596.5 1856.74 572.4C1857.18 554.51 1857.03 549.82 1856.04 550.15C1855.35 550.38 1852.2 556.18 1849.03 563.04C1836.18 590.83 1830.02 603.13 1829.19 602.62C1828.71 602.32 1822.97 590.59 1816.43 576.54C1809.89 562.49 1804.17 551 1803.7 551C1803.24 551 1803.01 561.28 1803.18 573.85C1803.52 598.01 1803.82 599.55 1808.32 600.19C1809.52 600.36 1810.5 600.95 1810.5 601.5C1810.5 602.64 1790.79 603.46 1789.7 602.37ZM2007.7 602.37C2006.41 601.08 2006.98 600.22 2009.54 599.58C2010.98 599.22 2012.49 597.85 2013.04 596.41C2014.33 593 2014.27 566.38 2012.96 563.93C2012.37 562.83 2010.88 562 2009.46 562C2004.99 562 2006.77 559.23 2012.67 557.02C2019.91 554.31 2022.4 554.62 2022.82 558.29L2023.14 561.08L2026.61 558.04C2033.99 551.56 2045.01 556.13 2039.66 563.46C2038.63 564.86 2037.62 565.13 2035.41 564.59C2024.53 561.94 2023.91 562.79 2023.67 580.69C2023.47 595.8 2024.07 598.73 2027.56 599.6C2028.95 599.95 2029.92 600.75 2029.71 601.37C2029.3 602.63 2008.88 603.55 2007.7 602.37ZM2069.69 602.36C2068.36 601.03 2069.02 600.25 2071.95 599.66C2077.23 598.6 2077.5 597.02 2077.5 567.4C2077.5 537.99 2077.45 537.7 2071.93 536.48C2064.8 534.92 2070.13 534 2086.37 534C2099.46 534 2104.83 534.38 2108.11 535.54C2120.94 540.07 2124.8 554.27 2115.93 564.34C2110.61 570.39 2105.17 572.42 2096.07 571.77L2089.13 571.28L2088.44 577.74C2088.06 581.29 2088.14 587.42 2088.62 591.35C2089.46 598.16 2089.65 598.55 2092.59 599.5C2098.85 601.52 2096.06 602.5 2083.2 602.78C2076.15 602.93 2070.08 602.74 2069.69 602.36ZM2126.7 602.37C2125.53 601.2 2125.91 600 2127.44 600C2128.24 600 2129.59 599 2130.44 597.78C2131.69 596 2132 592.46 2132 579.98C2132 563.48 2131.61 562 2127.3 562C2123.32 562 2124.79 559.98 2130.65 557.39C2137.98 554.15 2141.31 554.47 2142.01 558.5C2142.52 561.45 2142.55 561.46 2144.01 559.41C2147.59 554.38 2155.84 553.3 2158.59 557.5C2160.11 559.82 2160.11 560.18 2158.53 562.6C2157.15 564.71 2156.32 565.07 2154.16 564.54C2146.48 562.63 2145.76 562.67 2143.88 565.12C2142.32 567.15 2142.04 569.45 2142.02 580.68C2142 594.84 2142.86 598.89 2146.05 599.72C2147.17 600.02 2147.91 600.76 2147.71 601.38C2147.3 602.63 2127.87 603.54 2126.7 602.37ZM2373.31 601.81C2372.1 601.22 2370.8 600.02 2370.4 599.12C2370.01 598.23 2369.42 589.17 2369.1 579L2368.5 560.5L2366 560.17C2361.49 559.56 2361.71 558.25 2367.2 552.76C2370.18 549.78 2373.21 545.9 2373.95 544.13C2375.92 539.37 2377.44 540.85 2378 548.08L2378.5 554.5L2383.5 555C2387.67 555.42 2388.5 555.83 2388.5 557.5C2388.5 559.22 2387.73 559.54 2383.1 559.81L2377.7 560.11L2378.39 577.31C2379.17 596.55 2379.85 598.64 2384.4 595.65C2385.79 594.74 2387.65 594 2388.53 594C2389.88 594 2389.8 594.47 2387.99 597.02C2384.23 602.29 2378.31 604.22 2373.31 601.81ZM1985.63 598.08C1990.32 595.23 1992.37 588.95 1991.8 579.27C1991.05 566.79 1985.78 559 1978.09 559C1970.2 559 1967.65 563.69 1968.15 577.23C1968.58 588.62 1971.46 595.43 1977.04 598.25C1981.36 600.43 1981.79 600.42 1985.63 598.08ZM2192.76 596.74C2195.93 593.79 2197.32 587.7 2196.71 579.5C2195.73 566.42 2190.73 559 2182.88 559C2175.14 559 2172.36 564.69 2173.21 578.82C2174.21 595.54 2184.22 604.71 2192.76 596.74ZM2245.38 593.76C2247.08 591.72 2247.2 590.3 2246.65 579.24C2245.82 562.46 2243.85 559 2235.15 559C2228.13 559 2224.41 565.72 2224.62 578.04C2224.67 581.09 2225.23 585.17 2225.87 587.12C2227.18 591.07 2232.45 596.6 2235.5 597.21C2238.67 597.86 2243.33 596.23 2245.38 593.76ZM1903.66 594.46L1908 591.92L1908 584.52C1908 580.45 1907.54 576.83 1906.97 576.48C1905.64 575.66 1897.94 579.4 1894.6 582.49C1890.92 585.9 1890.94 592.02 1894.63 594.93C1897.97 597.55 1898.42 597.53 1903.66 594.46ZM2099.8 566.6C2104.78 564.01 2107.25 560.42 2107.77 555.04C2108.35 549 2106.82 544.87 2102.74 541.43C2100.18 539.28 2098.91 538.95 2094.12 539.2L2088.5 539.5L2088.22 552.92C2088.01 562.99 2088.26 566.55 2089.22 567.16C2091.23 568.43 2096.84 568.14 2099.8 566.6ZM1937.22 539.44C1934.77 537.73 1934.21 533.19 1936.2 531.2C1939.22 528.18 1945 531.01 1945 535.51C1945 537.53 1941.83 541 1940 541C1939.69 541 1938.44 540.3 1937.22 539.44ZM120.89 499C110.78 492.44 82.7 473.87 58.5 457.73L14.5 428.39L14.24 364.35L13.99 300.32L75.24 259.46C108.93 236.98 137.64 218.42 139.04 218.22C141.02 217.92 153.58 225.82 197.04 254.71C227.54 274.99 255.54 293.57 259.25 296L266 300.42L266 364.07L266 427.73L211.75 463.73C158.84 498.84 145.35 507.67 141.28 509.85C139.58 510.76 136.58 509.16 120.89 499ZM504.89 499C494.78 492.45 466.7 473.88 442.5 457.74L398.5 428.39L398.24 364.33L397.99 300.27L459.24 259.39C505.91 228.24 521.21 218.5 523.5 218.5C525.77 218.5 539.41 227.05 579.5 253.58C608.65 272.88 635.61 290.63 639.42 293.03L646.34 297.39L651.42 294.57C654.21 293.01 678.55 277.79 705.5 260.73C773.89 217.45 768.9 220.45 770.77 221.63C775.25 224.45 773.22 226.42 751.75 240.03C711.24 265.71 652.42 303.31 651.62 304.05C650.33 305.24 650.1 315.71 650.05 374.61L650 427.72L595.75 463.73C542.91 498.8 529.37 507.66 525.28 509.85C523.58 510.76 520.58 509.16 504.89 499ZM200.5 462.3L258.5 423.5L258.76 364.24L259.02 304.97L200.31 265.9C152.38 233.99 141.12 226.9 138.9 227.23C137.41 227.45 110.28 244.91 78.6 266.03L21 304.44L21 364.05L21 423.67L80.25 463.21C122.73 491.55 139.92 502.51 141 501.92C141.82 501.48 168.6 483.65 200.5 462.3ZM584.5 462.3L642.5 423.5L642.5 364.01L642.5 304.51L618 288.11C547.96 241.22 525.53 226.89 522.82 227.26C521.35 227.46 494.24 244.93 462.58 266.07L405 304.5L405 364.09L405 423.67L464.25 463.21C506.73 491.55 523.92 502.51 525 501.92C525.83 501.48 552.6 483.65 584.5 462.3ZM127.83 481.58C118.1 475.71 39.67 423.46 36.25 420.57C32.68 417.55 32.23 415.88 34.48 414.02C35.68 413.02 36.86 413.31 40.73 415.58C48.7 420.25 131.25 475.61 134.98 478.78C138 481.36 138.28 481.96 137.11 483.37C135.22 485.64 134.27 485.46 127.83 481.58ZM509.97 480.36C496.86 472.21 423.63 423.4 420.25 420.56C416.68 417.55 416.23 415.88 418.48 414.02C419.68 413.02 420.85 413.31 424.67 415.55C434.26 421.17 518.57 477.8 520.39 479.84C521.94 481.58 522.05 482.24 521.02 483.48C519.15 485.73 518.17 485.45 509.97 480.36ZM2062.67 477.33C2061.43 476.1 2061.99 475 2063.85 475C2064.86 475 2066.55 474.05 2067.6 472.9C2069.36 470.95 2069.52 468.69 2069.79 442.94C2070.08 416.02 2070.02 415.02 2068.04 413.04C2066.92 411.92 2065.1 411 2064 411C2062.9 411 2062 410.55 2062 410C2062 409.37 2068.6 409 2079.8 409C2096.95 409 2097.8 409.1 2102.8 411.59C2109.67 415.01 2112.29 418.82 2112.82 426.19C2113.34 433.42 2111.9 437.08 2106.77 441.46C2101.83 445.69 2094.9 447.47 2086.92 446.57L2081 445.9L2081 457.39C2081 470.96 2081.71 473.35 2086.18 474.91C2088.83 475.84 2089.2 476.26 2088 477.02C2086.31 478.09 2063.7 478.37 2062.67 477.33ZM1706.25 476.28C1705.56 476.04 1705 474.64 1705 473.18C1705 471.15 1707.5 468.03 1715.73 459.77L1726.47 449L1577.98 448.99C1343.69 448.98 1154.66 448.31 1152.7 447.5C1151.59 447.03 1151.01 445.93 1151.2 444.62L1151.5 442.5L1249 441.9C1302.62 441.56 1431.41 441.23 1535.19 441.15C1662.11 441.05 1724.09 440.67 1724.51 439.98C1724.86 439.42 1720.61 434.36 1715.07 428.73C1705.07 418.57 1703.05 414.96 1706.59 413.6C1708.9 412.72 1712 415.28 1726.25 429.81C1734.52 438.24 1739 443.56 1739 444.94C1739 446.33 1734.28 451.82 1725.25 460.9C1711.46 474.78 1708.57 477.11 1706.25 476.28ZM2094.59 440.54C2102.6 435.28 2103.09 422.15 2095.49 416.17C2093.37 414.5 2091.37 414 2086.87 414L2081 414L2081 427.93C2081 440.33 2081.19 441.91 2082.75 442.36C2085.73 443.22 2091.95 442.26 2094.59 440.54ZM1518.25 432.97C1516.89 432.42 1516 431.21 1516 429.9C1516 427.6 1516 427.6 1526.72 429.61C1529.4 430.12 1530.44 429.72 1532.97 427.19C1536.35 423.8 1536.72 421.3 1534.48 416.97C1532.96 414.02 1528.44 411 1525.55 411C1524.7 411 1524 410.32 1524 409.5C1524 408.68 1524.49 408 1525.1 408C1525.7 408 1527.48 407.08 1529.06 405.96C1532.8 403.3 1534.01 397.77 1531.46 394.96C1529.06 392.31 1523.08 392.36 1519.63 395.07C1517.12 397.05 1517 397.06 1517 395.26C1517 394.22 1518.38 392.05 1520.07 390.44C1522.71 387.91 1523.89 387.51 1528.54 387.55C1532.81 387.59 1534.48 388.1 1536.48 389.98C1539.6 392.91 1539.84 398.37 1537 402C1534.44 405.28 1534.52 405.98 1537.91 409.3C1545.05 416.3 1540.94 428.79 1530.31 432.41C1525.14 434.17 1521.64 434.33 1518.25 432.97ZM2037.04 431.24C2033.68 428.52 2033.09 420.71 2035.83 415.33C2037.93 411.22 2041.72 408 2044.46 408C2046.71 408 2046.39 408.82 2042.44 413.2C2037.73 418.41 2038.01 421.38 2043.27 421.81C2045.97 422.03 2047.5 422.83 2048.67 424.62C2050.21 426.96 2050.18 427.28 2048.3 429.81C2045.75 433.24 2040.37 433.93 2037.04 431.24ZM2129 431.7C2129 430.99 2130.82 428.63 2133.04 426.46C2138.09 421.53 2138.08 418.65 2133 418.17C2128.34 417.73 2127 416.43 2127 412.36C2127 409.7 2127.55 408.71 2129.5 407.82C2132.99 406.23 2139.23 408.2 2140.96 411.43C2144.07 417.24 2139.81 427.98 2133 431.5C2129.46 433.33 2129 433.36 2129 431.7ZM1444.5 419.13C1434.24 416.42 1426.3 409.98 1422.13 401C1418.74 393.68 1417.91 378.79 1420.47 371.1C1423.22 362.82 1429.86 354.71 1436.58 351.42C1444.38 347.6 1456.6 346.92 1465.7 349.8C1471.77 351.72 1471.94 351.72 1473.61 349.88C1476.34 346.87 1477.68 347.65 1478.36 352.64C1479.31 359.54 1479.13 369.8 1478.06 370.46C1477.54 370.79 1476.16 368.9 1475 366.27C1470.84 356.86 1463.74 352.06 1453.91 352.02C1438.7 351.96 1430.1 365.03 1431.23 386.51C1431.79 397.29 1434.02 403.06 1439.51 407.88C1444.65 412.39 1448.84 414 1455.4 414C1462.6 414 1465.06 412.96 1471.92 406.99C1477.25 402.35 1480 400.92 1480 402.77C1480 404.95 1470.35 414.17 1465.68 416.46C1460 419.24 1449.8 420.52 1444.5 419.13ZM239.96 417.45C238.73 415.98 238.45 407.68 238.19 365.57C237.99 332.74 238.24 314.5 238.92 312.72C240.05 309.75 243.4 308.99 244.36 311.49C244.67 312.31 244.96 328.62 245 347.74C245.14 416.45 245.19 414.54 243.21 416.99C241.51 419.08 241.34 419.11 239.96 417.45ZM625 418C623.7 417.2 623.46 410.09 623.21 365.79C623.06 337.58 623.18 313.49 623.48 312.25C624.18 309.42 627.54 309.27 629 312C629.73 313.37 629.98 330.15 629.78 364.96C629.54 408.67 629.29 416.14 628 417.43C626.98 418.45 626.02 418.63 625 418ZM1312.6 417.16C1312.31 416.7 1313.41 415.33 1315.04 414.13C1318.58 411.51 1321.17 406.51 1331.93 381.5C1345.37 350.24 1346.41 348.07 1348 348.04C1349.63 348 1350.45 349.74 1365.59 385.5C1376.55 411.36 1377.16 412.52 1381.18 414.59C1382.77 415.41 1383.8 416.52 1383.47 417.04C1383.15 417.57 1377.51 418 1370.94 418C1360.99 418 1359 417.75 1359 416.5C1359 415.68 1359.62 415 1360.38 415C1361.14 415 1362.35 414.28 1363.09 413.39C1364.21 412.04 1364.06 410.75 1362.11 405.14C1360.84 401.49 1359.34 397.94 1358.78 397.25C1358.05 396.37 1353.91 396 1344.59 396L1331.43 396L1328.66 403.11C1325.09 412.3 1325.36 413.57 1331.31 415.42C1332.31 415.73 1332.85 416.44 1332.5 416.99C1331.75 418.21 1313.34 418.36 1312.6 417.16ZM1391 416.74C1391 416.04 1392.01 415.03 1393.25 414.49C1395.5 413.5 1395.5 413.49 1395.77 384.62C1396.04 354.62 1395.84 353 1391.88 353C1388.05 353 1390.18 350.21 1395.59 348.14C1404.47 344.74 1404.61 344.82 1405.35 353.65C1405.71 357.86 1406.01 372.15 1406.01 385.4C1406.02 398.66 1406.31 410.55 1406.65 411.83C1406.99 413.11 1408.36 414.57 1409.7 415.07C1414.34 416.84 1410.86 418 1400.94 418C1393.6 418 1391 417.67 1391 416.74ZM1489 417.12C1489 416.63 1490.05 415.54 1491.34 414.7C1493.62 413.2 1493.69 412.69 1494.21 394.33C1494.51 383.97 1494.47 370.78 1494.12 365.01C1493.52 354.81 1493.42 354.48 1490.75 353.2C1489.24 352.48 1488 351.58 1488 351.2C1488 350.25 1498.58 346 1500.92 346C1501.94 346 1503.06 346.71 1503.39 347.58C1503.73 348.45 1504 362.35 1504 378.46C1504 394.57 1504.29 409.19 1504.64 410.95C1505.07 413.08 1506.09 414.46 1507.7 415.08C1509.03 415.58 1509.84 416.45 1509.5 417C1508.74 418.24 1489 418.35 1489 417.12ZM1354.06 389.34C1354.85 388.55 1353.92 385.26 1350.72 377.42C1348.28 371.47 1345.86 366.45 1345.35 366.28C1344.56 366.02 1335 387.22 1335 389.22C1335 391.1 1352.19 391.21 1354.06 389.34ZM328 376.16C328 370.11 327.73 364.45 327.39 363.58C326.88 362.26 324.77 362 314.39 362L302 362L302 359.5L302 357L313.96 357C328.06 357 328.6 356.6 327.73 346.97C327.45 343.84 327.45 339.19 327.74 336.64C328.15 332.96 328.65 332 330.13 332C332.18 332 332.44 334.02 332.1 347.5C332.01 351.35 332.3 355.05 332.75 355.72C333.3 356.53 337.55 357.03 345.54 357.22C356.74 357.48 357.5 357.63 357.5 359.5C357.5 361.37 356.67 361.53 345 362L332.5 362.5L332 374.49C331.57 384.88 331.27 386.52 329.75 386.81C328.17 387.11 328 386.08 328 376.16ZM1033.5 344.66C1026.96 342.5 1023.57 340.37 1019.56 335.93C1007.02 322.06 1006.98 298.9 1019.45 284.33C1027.27 275.19 1044.42 271.37 1057.29 275.89L1063.08 277.92L1065.12 275.88C1066.24 274.76 1067.73 274.06 1068.43 274.33C1070.1 274.98 1071.35 294.05 1069.81 295.5C1069.1 296.17 1068.62 296.17 1068.37 295.5C1066.26 290.04 1061.42 283.75 1057.61 281.51C1049.03 276.48 1036.71 277.52 1030.72 283.78C1022.72 292.12 1020.14 313.46 1025.51 326.77C1028.66 334.57 1038.49 341.02 1047.19 340.99C1052.37 340.98 1057.33 338.64 1063.15 333.45C1066.51 330.45 1069.65 328 1070.13 328C1074.4 328 1063.62 339.95 1056.5 343.11C1050.4 345.81 1039.25 346.57 1033.5 344.66ZM1080.38 343.81C1079.98 343.15 1080.11 342.46 1080.68 342.27C1084.08 341.14 1085.4 338.94 1086.02 333.38C1086.7 327.28 1086.26 283.45 1085.49 281.25C1085.26 280.56 1084.13 280 1083 280C1080.49 280 1079.17 277.14 1081.1 275.9C1084.1 273.97 1093.04 271.64 1093.93 272.56C1094.43 273.08 1095.08 287.92 1095.37 305.54C1095.66 323.16 1096.19 338.33 1096.54 339.25C1096.9 340.17 1098.04 341.2 1099.09 341.53C1101.41 342.27 1101.56 343.57 1099.42 344.39C1096.45 345.53 1081.16 345.06 1080.38 343.81ZM35.15 315.75C32.56 313.16 34.21 311.02 44.25 304.02C96.54 267.52 136.43 241 139.01 241C141.39 241 142.55 243.2 141.31 245.41C140.18 247.44 111.15 267.56 63 299.7C36.46 317.42 36.69 317.29 35.15 315.75ZM420.25 316.29C419.56 316.04 419 314.77 419 313.46C419 310.64 420.84 309.3 479.91 269.15C505.41 251.81 522.22 241 523.69 241C527.37 241 527.69 243.78 524.39 247C520.7 250.61 437.23 307.44 425 314.68C423.07 315.82 420.94 316.54 420.25 316.29ZM1381.65 313.17C1380.74 312.17 1380 310.42 1380 309.29C1380 305.91 1382.47 304.67 1387.81 305.38C1392.16 305.96 1392.86 305.76 1395.24 303.26C1396.69 301.74 1398.81 298.31 1399.95 295.64L1402.02 290.78L1393.07 272.37C1387.96 261.86 1382.79 252.63 1381.02 250.86C1379.31 249.15 1378.1 247.56 1378.34 247.33C1379.21 246.45 1392.89 245.76 1395.64 246.45C1398.24 247.1 1398.34 247.28 1396.75 248.44C1395.77 249.16 1395.01 250.99 1395.03 252.61C1395.06 255.84 1404.94 276.36 1406.5 276.45C1407.59 276.5 1416.9 254.56 1416.96 251.79C1416.98 250.84 1416.04 249.56 1414.86 248.93C1411.79 247.28 1414.23 246.03 1420.5 246.03C1426.85 246.03 1429 247.19 1426.25 249.12C1423.67 250.95 1422.33 253.66 1413.97 274.15C1400.96 306 1399.8 308.22 1393.79 312.66C1389.87 315.54 1384.03 315.79 1381.65 313.17ZM1447.34 294C1441.26 292.63 1435.63 286.68 1433.33 279.2C1430.12 268.79 1434.62 254.32 1442.85 248.53C1446.68 245.84 1447.93 245.51 1453.84 245.62C1457.5 245.69 1461.4 245.91 1462.5 246.12C1464.36 246.47 1464.5 245.97 1464.45 238.85C1464.41 230.78 1463.24 228 1459.88 228C1456.05 228 1458.18 225.21 1463.59 223.14C1470.7 220.42 1472.62 220.44 1473.37 223.25C1473.7 224.49 1474.02 235.4 1474.09 247.5C1474.15 259.6 1474.49 273.31 1474.85 277.96C1475.45 285.76 1475.68 286.46 1477.85 286.97C1480.1 287.5 1480.12 287.58 1478.35 289.1C1476.27 290.89 1468.73 294 1466.48 294C1465.67 294 1465 293.35 1465 292.56C1465 290.07 1463.08 289.79 1459.73 291.8C1455.76 294.18 1451.5 294.94 1447.34 294ZM1633.5 293.86C1631.3 293.34 1628.49 293.17 1627.25 293.48C1625.06 294.02 1625 293.83 1625 286.02C1625 277.73 1626.18 275.71 1628.09 280.75C1629.58 284.69 1633.79 288.78 1637.68 290.06C1644.96 292.46 1650.97 284.79 1645.97 279.47C1644.77 278.19 1640.27 275.1 1635.98 272.61C1626.37 267.02 1625 265.2 1625 257.99C1625 253.32 1625.46 251.87 1627.89 248.96L1630.78 245.5L1641.81 245.49L1652.84 245.48L1653.17 248.99C1653.64 254 1653.03 260 1652.03 260C1651.57 260 1650.01 257.98 1648.56 255.52C1645.48 250.25 1643.49 248.99 1638.32 249.02C1633.63 249.03 1632.34 249.8 1631.52 253.05C1630.61 256.7 1633.49 259.84 1642.07 264.52C1646.08 266.71 1650.85 269.9 1652.68 271.62C1655.62 274.38 1656 275.33 1656 279.99C1656 284.72 1655.63 285.6 1652.23 289.01C1648.77 292.46 1642.77 295.13 1639 294.89C1638.17 294.84 1635.7 294.38 1633.5 293.86ZM1203.25 293.26C1200.39 293.01 1199 292.41 1199 291.44C1199 290.65 1199.63 290 1200.41 290C1204.05 290 1207.82 282.74 1224.77 243.08C1229.57 231.84 1234.07 222.47 1234.77 222.24C1235.5 222 1236.82 223.63 1237.92 226.16C1238.96 228.55 1244.87 242.43 1251.05 257C1257.23 271.57 1262.97 284.54 1263.79 285.8C1264.62 287.07 1266.63 288.79 1268.26 289.64C1273.16 292.17 1270.14 293.18 1257.94 293.12C1245.9 293.05 1242.96 292.11 1247.65 289.81C1251.27 288.05 1251.27 284.45 1247.67 276.58L1245.11 271L1231.77 271L1218.43 271L1215.66 278.11C1212.07 287.34 1212.34 288.54 1218.42 290.46C1223.46 292.05 1212.52 294.07 1203.25 293.26ZM1306.25 293.28C1301.34 292.82 1300.84 291.66 1304.75 289.79L1307.5 288.48L1307.77 272.26C1308.03 257.12 1307.92 255.92 1306.02 254.02C1303.48 251.48 1299.99 251.45 1295.09 253.95C1290.52 256.29 1290 258.12 1290.01 271.88C1290.03 286.04 1290.7 289 1294.15 290.2C1295.71 290.75 1296.75 291.6 1296.44 292.1C1295.83 293.08 1275 293.38 1275 292.4C1275 292.07 1276.35 290.54 1278 289L1281 286.2L1280.99 271.85C1280.97 254.69 1280.67 253.21 1277.15 252.81C1272.79 252.3 1274.1 249.79 1280 247.36C1287.87 244.12 1290 244.25 1290 248C1290 251.64 1291.29 251.78 1295.14 248.54C1300.83 243.74 1310.52 244.09 1314.33 249.22C1316.85 252.62 1317.83 259.31 1317.93 273.68C1318.01 286.08 1318.84 289.5 1322.04 290.51C1323.23 290.89 1323.82 291.55 1323.35 291.98C1322.25 292.98 1311.73 293.78 1306.25 293.28ZM1332.25 293.2C1329.36 293.03 1327 292.65 1327 292.35C1327 292.05 1328.35 290.54 1330 289L1333 286.2L1332.99 259.85C1332.98 245.36 1332.7 232.46 1332.36 231.2C1331.95 229.69 1330.75 228.7 1328.87 228.32C1327.29 228.01 1326 227.34 1326 226.83C1326 225.45 1336.09 221.02 1339.25 221.01C1341.89 221 1342 221.21 1342.11 226.25C1342.17 229.14 1342.13 234.75 1342.02 238.72C1341.91 242.69 1342.13 247.31 1342.5 248.99L1343.17 252.06L1346.6 249.04C1350.69 245.46 1353.7 244.56 1359.21 245.3C1365.62 246.16 1368.04 249.31 1369.06 258.12C1369.53 262.18 1369.93 269.38 1369.96 274.12C1370.02 285.74 1370.73 288.8 1373.78 290.39C1375.16 291.11 1375.88 291.95 1375.39 292.26C1373.46 293.45 1354 293.44 1354.01 292.25C1354.01 291.84 1355.36 290.73 1357.01 289.8L1360 288.09L1360 272.05C1360 257.33 1359.83 255.83 1358 254C1356.85 252.85 1354.67 252 1352.87 252C1348.77 252 1343.16 255.53 1342.39 258.58C1341.64 261.56 1342.53 285.87 1343.46 288.16C1343.84 289.07 1345.3 290.11 1346.72 290.47C1353.02 292.05 1343.5 293.85 1332.25 293.2ZM1487.75 293.26C1482.82 292.88 1481.14 290.72 1484.99 289.71C1488.13 288.89 1489 284.81 1489 271C1489 256.53 1488.28 253.54 1484.57 252.61C1483.16 252.25 1482 251.54 1482 251.03C1482 249.95 1490.17 246.14 1494.26 245.31C1496.66 244.82 1497.16 245.15 1498.11 247.89L1499.21 251.03L1502.64 248.01C1504.98 245.96 1507.12 245 1509.38 245C1515.29 245 1518.28 251.29 1513.85 254.39C1511.96 255.72 1511.28 255.73 1508.23 254.45C1503.64 252.53 1503.49 252.56 1500.54 255.74C1498.12 258.35 1498 259.04 1498 270.11C1498 286.03 1498.46 287.88 1502.87 289.72C1506.24 291.13 1506.33 291.28 1504.53 292.6C1502.68 293.96 1498.57 294.12 1487.75 293.26ZM1532.3 293.04C1527.87 291.15 1522.03 283.92 1520.4 278.3C1517.46 268.17 1521.01 254.32 1527.84 249.28C1538.11 241.7 1554.33 244.88 1560.68 255.72C1562.99 259.66 1563.42 261.55 1563.46 268C1563.49 274.55 1563.08 276.44 1560.49 281.52C1556.09 290.13 1551.07 293.39 1541.69 293.72C1537.73 293.86 1533.51 293.55 1532.3 293.04ZM1579.66 291.17C1576.34 287.7 1575.06 280.89 1574.91 266C1574.78 253.16 1574.2 250.88 1570.61 249.15C1566.32 247.08 1568.79 245.86 1576.6 246.2L1583.5 246.5L1584.24 264.91C1584.84 279.97 1585.28 283.65 1586.64 285.16C1589.16 287.94 1594.05 287.47 1598.85 283.99L1603 280.99L1602.9 268.24C1602.78 253.05 1602.3 250.93 1598.56 249.12C1596.11 247.95 1595.94 247.61 1597.35 246.83C1598.25 246.32 1601.81 246.04 1605.25 246.2L1611.5 246.5L1612 265.5C1612.28 275.95 1612.86 285.06 1613.31 285.75C1613.75 286.44 1615.05 287 1616.18 287C1617.99 287 1618.07 287.21 1616.87 288.66C1615.14 290.75 1608.2 293.95 1605.33 293.98C1603.72 293.99 1602.99 293.22 1602.5 291C1601.78 287.71 1599.96 287.14 1597.95 289.57C1595.72 292.24 1591.28 294 1586.74 294C1583.25 294 1581.83 293.43 1579.66 291.17ZM954 280.61C941.08 274.38 911.26 259.8 887.75 248.2C848.79 228.98 845 226.9 845 224.66C845 223.32 845.74 221.93 846.64 221.58C848.48 220.88 860.5 226.34 896 244.02C908.92 250.45 932.34 262.06 948.04 269.8C979.85 285.5 982.53 287.15 980.96 290.07C980.39 291.13 979.38 291.99 978.71 291.97C978.05 291.95 966.92 286.84 954 280.61ZM1546.9 288.55C1552.11 285.86 1553.5 282.48 1553.5 272.5C1553.5 264.63 1553.14 262.77 1550.64 257.68C1547.14 250.55 1543.13 248.11 1537.31 249.57C1531.66 250.98 1529.5 255.42 1529.55 265.5C1529.59 275.72 1531.94 282.86 1536.6 286.95C1540.46 290.34 1542.75 290.7 1546.9 288.55ZM1461.22 286.04C1463.51 284.24 1463.77 283.2 1464.41 273.09C1465.23 260.01 1464.23 255.21 1459.9 251.57C1455.69 248.03 1450.75 248.1 1447.34 251.75C1443.68 255.68 1442.88 258.44 1442.75 267.6C1442.65 274.73 1442.97 276.27 1445.35 280.34C1449.64 287.66 1456.18 290.01 1461.22 286.04ZM807.27 271.97C784.97 267.45 773.44 241.7 783.82 219.6C787.86 211 791.17 207.5 798.83 203.79C804.75 200.92 806.45 200.56 814 200.56C819.59 200.57 824.32 201.19 827.82 202.39L833.15 204.21L835.59 201.92C837.1 200.49 838.38 199.98 838.96 200.56C839.48 201.08 840.04 206.18 840.2 211.9C840.52 222.85 839.4 225.76 837.21 219.7C835.53 215.05 829.26 208.01 825.34 206.37C820.29 204.26 809.69 204.61 804.91 207.05C796.95 211.1 792.61 222.02 792.79 237.5C792.95 251.06 797.4 260.03 806.13 264.38C816.29 269.44 826.47 267.4 834.96 258.62C839.25 254.17 842 252.8 842 255.09C842 255.69 839.19 259 835.75 262.43C831.15 267.02 828.18 269.1 824.5 270.27C817.65 272.45 812.28 272.98 807.27 271.97ZM1241.63 264.52C1242.22 262.98 1233.25 241 1232.04 241C1231.17 241 1222 262.49 1222 264.52C1222 266.69 1240.79 266.7 1241.63 264.52ZM796.48 195.82C796.2 195.09 796.09 178.07 796.24 158L796.5 121.5L798.95 121.5C800.72 121.5 801.6 122.2 802.11 124C803.02 127.3 803.09 187.35 802.18 192.5C801.63 195.62 800.98 196.57 799.23 196.82C798 197 796.76 196.54 796.48 195.82ZM821.33 194.75C820.32 193.17 819.55 130.46 820.46 124.4C821.21 119.42 823.26 117.83 825.72 120.3C827.1 121.67 827.27 126.27 827.12 157.05C827.02 178.46 826.55 192.97 825.94 194.11C824.78 196.27 822.49 196.59 821.33 194.75ZM800.95 97.7C790.04 94.61 781.27 85.46 778.08 73.86C776.08 66.59 776.98 51.55 779.76 45.92C783.08 39.19 788.09 33.81 794.13 30.53C800.97 26.8 812.65 25.88 821.27 28.39C828.83 30.59 836.86 37.94 841.09 46.54C844.1 52.64 844.22 53.36 843.84 62.79C843.49 71.46 843.05 73.46 840.18 79.28C836.52 86.72 830.04 93.14 823.02 96.29C817.5 98.77 807.08 99.43 800.95 97.7ZM819.05 91.97C823.43 89.74 828.19 83.84 830.19 78.17C830.98 75.95 831.49 69.76 831.49 62.5C831.5 51.1 831.34 50.17 828.34 43.82C824.01 34.68 819.61 31.74 810.18 31.65C798.52 31.54 793.67 36.26 790.39 50.91C788.36 59.96 789.04 72.37 792 80.27C794.09 85.85 798.75 91.2 803 92.88C807.28 94.58 814.77 94.16 819.05 91.97Z" fill="#1e2749" fill-rule="evenodd"/>
</svg>
