<?xml version="1.0" encoding="UTF-8"?>
<svg xmlns="http://www.w3.org/2000/svg" viewBox="0 0 281 260" width="281" height="260" shape-rendering="geometricPrecision">
<path d="M115.73 251.27C115.43 250.96 115.33 243.43 115.31 219.52C115.3 202.27 115.18 187.49 115.05 186.67C114.85 185.34 114.73 185.17 114 185.21C113.54 185.24 110.17 185.14 106.5 185.01C100.84 184.8 99.57 184.65 98.07 184.05C96.89 183.57 95.57 183.33 94.07 183.33C92.6 183.32 91.36 183.1 90.44 182.69C89.67 182.34 88.17 181.95 87.11 181.83C86.04 181.7 84.39 181.24 83.44 180.8C82.49 180.36 81.27 180 80.73 180C80.2 180 79.24 179.65 78.61 179.22C77.57 178.51 76.84 178.39 71.35 178.04C63.56 177.53 63.03 177.28 64.99 174.99C65.53 174.35 65.98 173.72 65.99 173.59C65.99 173.45 65.51 173.12 64.92 172.84C64.32 172.57 63.16 171.82 62.33 171.18C61.51 170.54 60.38 169.81 59.83 169.55C59.28 169.3 58.55 168.77 58.2 168.38C57.85 167.99 57.4 167.66 57.2 167.66C56.73 167.66 54 165.13 54 164.7C54 164.52 53.74 164.29 53.42 164.19C52.75 163.98 51.3 162.61 49.83 160.83C49.28 160.16 48.5 159.27 48.08 158.85C47.67 158.43 47.33 157.94 47.33 157.76C47.33 157.57 46.88 156.86 46.33 156.17C45.78 155.47 45.33 154.71 45.33 154.47C45.33 154.23 44.98 153.68 44.54 153.26C44.11 152.84 43.66 151.98 43.54 151.35C43.42 150.72 43.01 149.87 42.64 149.47C42.24 149.05 41.83 147.98 41.67 146.95C41.52 145.97 41.16 144.49 40.87 143.67C40.58 142.84 40.27 141.77 40.18 141.29C40.07 140.74 39.72 140.34 39.25 140.21C38.84 140.1 30.67 140.01 21.1 140C3.93 140 3.69 139.99 3.33 139.32C3.13 138.95 3.06 138.35 3.17 137.99C3.37 137.35 3.78 137.33 20.83 137.33C30.61 137.33 38.64 137.2 39.09 137.03C39.82 136.75 39.92 136.47 40.11 134.15C40.25 132.55 40.57 131.19 40.96 130.54C41.31 129.97 41.69 128.65 41.81 127.62C41.96 126.43 42.33 125.34 42.85 124.64C43.3 124.03 43.67 123.21 43.67 122.81C43.67 122.41 43.91 121.88 44.21 121.63C44.51 121.38 45.04 120.57 45.38 119.84C46.49 117.48 48.03 115.59 52.19 111.5C57.74 106.04 57.21 106.47 60.96 104.41C62.45 103.59 62.72 102.7 61.82 101.52C61.55 101.16 61.33 100.54 61.33 100.14C61.33 99.32 61.88 99.15 65.57 98.81C66.82 98.7 68.51 98.41 69.33 98.16C70.16 97.91 71.87 97.56 73.13 97.37C74.58 97.16 75.69 96.79 76.13 96.38C76.52 96.02 77.55 95.62 78.42 95.49C79.29 95.36 80.39 94.96 80.85 94.59C81.36 94.2 82.53 93.83 83.8 93.67C84.96 93.53 86.32 93.14 86.82 92.81C87.43 92.41 88.6 92.17 90.44 92.07C92.34 91.97 93.49 91.73 94.23 91.28C95.4 90.57 96.69 90.4 102.26 90.21C105.13 90.11 106.17 89.95 106.62 89.54C107.09 89.11 107.96 89 110.76 89C114.04 89 114.33 88.95 114.81 88.26C115.28 87.6 115.33 83.89 115.33 54.95C115.33 22.88 115.34 22.38 115.99 22.17C116.35 22.06 116.95 22.13 117.32 22.33C118 22.69 118 22.83 118 55.3C118 83.81 118.06 87.97 118.5 88.33C118.81 88.59 120.6 88.8 123.41 88.89C126.43 88.99 128.31 89.22 129.33 89.6C131.4 90.38 144.28 90.32 146.83 89.53C148.84 88.9 150.06 88.86 150.6 89.4C151.19 89.99 151.09 90.8 150.3 91.8C149.31 93.06 149.67 93.67 151.44 93.67C152.33 93.67 153.47 93.97 154.37 94.45C155.18 94.88 156.44 95.34 157.17 95.47C157.9 95.61 158.81 96.01 159.19 96.36C159.56 96.71 160.58 97.13 161.45 97.29C162.31 97.45 163.29 97.83 163.62 98.12C163.94 98.42 164.73 98.76 165.36 98.87C165.98 98.99 166.98 99.44 167.56 99.88C168.14 100.31 168.77 100.67 168.95 100.67C169.13 100.67 169.71 101.02 170.22 101.45C170.74 101.89 171.54 102.35 172 102.49C172.46 102.63 173.13 103 173.5 103.32C173.87 103.63 175.26 104.61 176.59 105.48C178.99 107.05 181.74 109.43 185.27 113C187 114.75 188 116.05 189.51 118.52C189.88 119.12 190.45 119.91 190.76 120.25C191.08 120.6 191.33 121.14 191.33 121.44C191.33 121.75 191.64 122.31 192.01 122.68C192.79 123.46 193.33 124.72 193.33 125.75C193.33 126.14 193.67 126.82 194.08 127.26C194.78 128 194.83 128.35 194.83 132.36C194.83 135.85 194.93 136.71 195.33 136.91C195.61 137.05 204.19 137.21 214.41 137.26C231.93 137.35 233.01 137.39 233.31 137.96C233.54 138.39 233.49 138.77 233.13 139.28L232.63 140L214.73 140.03C204.89 140.05 196.46 140.17 196 140.3C195.21 140.51 195.16 140.69 194.97 143.44C194.81 145.79 194.63 146.5 194.05 147.11C193.66 147.53 193.33 148.24 193.33 148.69C193.33 149.13 193.07 149.98 192.75 150.58C190.86 154.07 189.48 156.26 188.08 157.98C187.21 159.05 185.76 160.84 184.85 161.96C183.95 163.08 183.05 164 182.85 164C182.66 164.01 181.81 164.67 180.96 165.49C179.17 167.22 177.13 168.79 174.91 170.18C174.03 170.72 172.77 171.58 172.11 172.08C171.45 172.59 170.72 173 170.5 173C170.27 173 169.69 173.31 169.21 173.69C168.72 174.08 167.8 174.53 167.16 174.71C166.04 175.02 166 175.09 166 176.63C166 179.33 165.87 179.38 157.67 179.85C154.67 180.02 153.51 180.23 152.33 180.82C151.47 181.25 149.88 181.65 148.59 181.77C147.36 181.88 145.98 182.22 145.52 182.52C145 182.86 143.4 183.17 141.11 183.37C139.14 183.54 137.22 183.88 136.85 184.12C135.74 184.84 134.19 185 126.31 185.18C121.99 185.29 118.7 185.5 118.5 185.7C118.28 185.92 118.14 197.17 118.08 218.25C118 247.52 117.94 250.52 117.44 251.06C116.81 251.77 116.29 251.83 115.73 251.27ZM160.58 214.67C159.87 214.11 159.67 213.67 159.67 212.69C159.67 211.13 160.37 210.44 162.28 210.14C163.06 210.01 164.03 209.63 164.44 209.29C165.16 208.67 165.16 208.67 164.5 208.15C164 207.76 163.43 207.69 162.25 207.85C160.81 208.04 160.67 208 160.67 207.39C160.67 206.84 160.95 206.66 162.14 206.49C164.08 206.2 165.41 206.52 166.35 207.52C167 208.21 167.14 208.79 167.27 211.19C167.37 213.13 167.29 214.17 167.02 214.44C166.81 214.66 165.85 214.85 164.9 214.87C163.95 214.89 162.79 215.02 162.33 215.15C161.72 215.32 161.24 215.19 160.58 214.67ZM187.5 215.06C186.73 214.88 186.48 214.62 186.39 213.92C186.28 212.91 186.5 212.83 187.89 213.36C189.26 213.88 190.96 213.46 191.4 212.49C191.88 211.43 191.42 210.89 188.95 209.64C187.89 209.11 186.87 208.38 186.68 208.02C186.3 207.31 186.22 205.35 186.54 204.51C186.91 203.55 188.53 203 190.97 203C192.94 203 193.36 203.1 193.66 203.65C194.13 204.53 193.63 204.78 191.97 204.49C190.21 204.2 188.67 204.82 188.67 205.82C188.67 206.7 189.33 207.33 191.21 208.28C192.8 209.08 194.33 210.76 194.33 211.71C194.33 212.06 193.77 212.95 193.08 213.67C192.03 214.78 191.58 215.01 190.17 215.13C189.25 215.22 188.05 215.18 187.5 215.06ZM203.5 215.02C202.12 214.46 201.53 213.38 201.42 211.23C201.29 208.93 201.67 207.93 203.08 206.88C203.9 206.28 204.19 206.24 205.67 206.54C207.81 206.98 208.17 206.62 207.9 204.33C207.71 202.78 207.75 202.66 208.5 202.47C208.94 202.36 209.45 202.37 209.65 202.49C209.87 202.63 210 204.85 210 208.7C210 215.32 209.94 215.5 207.91 214.73C207.13 214.44 206.72 214.46 205.97 214.85C204.93 215.39 204.48 215.42 203.5 215.02ZM214.81 215.03C214.42 214.86 213.7 214.24 213.19 213.63C212.35 212.63 212.28 212.34 212.4 210.42C212.57 207.7 213.42 206.74 215.93 206.45C217.61 206.25 217.69 206.28 218.99 207.58C220.49 209.08 220.76 210.41 219.69 210.99C219.33 211.18 218.06 211.33 216.86 211.33C214.92 211.33 214.67 211.41 214.67 211.98C214.67 213.33 215.68 213.83 218.08 213.68C219.37 213.61 219.68 213.97 218.88 214.63C218.27 215.14 215.66 215.39 214.81 215.03ZM222.75 215.1C222.24 214.91 222.2 213.46 222.69 213.15C223.3 212.77 224.72 213.31 224.61 213.89C224.47 214.55 223.31 215.31 222.75 215.1ZM231.17 215.06C228.14 213.94 227.33 212.68 227.33 209.11C227.33 206.88 227.46 206.24 228.09 205.3C229.17 203.68 230.73 203 233.38 203C235.7 203 236.6 203.48 236.21 204.51C236.05 204.92 235.68 204.98 234.41 204.81C232.15 204.51 230.52 205.24 229.85 206.85C229.19 208.43 229.2 209.69 229.87 211.11C230.66 212.76 231.99 213.42 234.24 213.28C236.2 213.16 236.64 213.46 235.92 214.42C235.45 215.05 232.29 215.47 231.17 215.06ZM241.13 215.12C239.95 214.86 238.63 213.2 238.43 211.72C237.95 208.13 239.36 206.5 242.94 206.5C244.95 206.5 245.1 206.56 246.19 207.75C247.4 209.07 247.69 210.69 247.02 212.45C246.34 214.23 243.33 215.6 241.13 215.12ZM141.27 214.76C141.21 214.62 141.21 211.99 141.27 208.92L141.38 203.33L144.55 203.33C147.38 203.33 147.7 203.39 147.61 203.92C147.53 204.34 147.12 204.52 146.16 204.59C143.53 204.76 143.33 204.89 143.33 206.33C143.33 207.88 143.93 208.33 145.98 208.33C146.94 208.33 147.33 208.47 147.33 208.81C147.33 209.51 146.7 209.8 145.35 209.73C143.63 209.64 143.27 210 143.4 211.7L143.5 213.17L145.67 213.33C147.56 213.48 147.83 213.59 147.83 214.17C147.83 214.78 147.58 214.84 144.61 214.93C142.84 214.98 141.34 214.91 141.27 214.76ZM149.67 214.7C149.67 214.54 150.19 213.62 150.83 212.67C151.47 211.71 152 210.81 152 210.67C152 210.52 151.47 209.62 150.83 208.67C150.19 207.71 149.67 206.86 149.67 206.78C149.67 206.7 150.23 206.67 150.92 206.73C151.97 206.82 152.27 207.03 152.83 208.08C153.2 208.77 153.61 209.33 153.75 209.33C153.88 209.33 154.39 208.73 154.87 208C155.61 206.89 155.94 206.67 156.86 206.67L157.95 206.67L156.81 208.37C156.18 209.3 155.67 210.34 155.67 210.67C155.67 211 156.18 212.02 156.8 212.95C157.42 213.87 157.84 214.71 157.74 214.81C157.64 214.92 157.14 215 156.62 215C155.88 215 155.53 214.72 154.93 213.67C154.51 212.94 153.98 212.34 153.75 212.34C153.53 212.33 152.96 212.93 152.5 213.67C151.82 214.74 151.46 215 150.66 215C150.11 215 149.67 214.87 149.67 214.7ZM170.31 214.92C170.3 214.87 170.26 213 170.23 210.75L170.17 206.67L171.02 206.67C171.48 206.67 172.02 206.82 172.21 207.01C172.44 207.24 172.95 207.18 173.81 206.82C175.17 206.25 176.7 206.4 177.34 207.17C177.66 207.57 177.91 207.54 178.94 206.99C180.47 206.16 181.71 206.16 182.7 206.96C183.4 207.53 183.5 207.95 183.66 210.98C183.84 214.55 183.71 215 182.43 215C181.69 215 181.67 214.9 181.67 212.17C181.67 209.78 181.56 209.23 181 208.67C180.63 208.3 180.07 208 179.75 208.01C178.42 208.02 178.17 208.55 178 211.74L177.83 214.83L176.83 214.83L175.83 214.83L175.94 212.97C176.1 210.36 175.52 208.39 174.52 208.14C174.08 208.03 173.41 208.11 173.03 208.32C172.41 208.65 172.33 208.99 172.33 211.45C172.33 214.29 172.05 215 170.93 215C170.6 215 170.32 214.96 170.31 214.92ZM196.67 210.81L196.67 206.62L197.69 206.73L198.72 206.83L198.72 210.58C198.72 212.63 198.62 214.47 198.51 214.66C198.39 214.85 197.93 215 197.48 215L196.67 215L196.67 210.81ZM249.98 214.94C249.97 214.88 249.93 213 249.9 210.75L249.83 206.67L250.85 206.67C251.41 206.67 252.02 206.82 252.21 207.01C252.44 207.24 252.86 207.19 253.53 206.85C254.84 206.16 255.75 206.2 256.77 207.01L257.62 207.68L258.73 207.01C260.12 206.16 261.37 206.15 262.38 206.97C263.09 207.54 263.18 207.94 263.33 211C263.51 214.55 263.31 215.17 262.1 214.94C261.59 214.84 261.49 214.41 261.41 212C261.34 209.6 261.22 209.08 260.62 208.58C258.82 207.07 257.58 208.48 257.7 211.93C257.78 214.57 257.61 215 256.48 215C255.68 215 255.67 214.95 255.67 212.17C255.67 209.78 255.56 209.23 255 208.67C254.63 208.3 254.07 208 253.75 208.01C252.42 208.02 252.17 208.55 252 211.74C251.83 214.82 251.83 214.83 250.92 214.94C250.41 215 249.99 215 249.98 214.94ZM164.64 212.79C165.48 211.72 165.08 211 163.65 211C162.15 211 161.67 211.33 161.67 212.34C161.67 213.89 163.55 214.17 164.64 212.79ZM206.75 213.01C208.27 211.81 208.14 209.02 206.53 208.29C204.1 207.18 202.43 210.02 204 212.58C204.76 213.83 205.55 213.95 206.75 213.01ZM244.17 212.86C245.33 211.7 245.52 210.55 244.77 209.26C244.27 208.39 243.88 208.15 242.94 208.07C240.44 207.85 239.4 211.07 241.34 213.01C242.22 213.89 243.19 213.84 244.17 212.86ZM217.91 209.59C218.49 209.13 217.86 208.06 216.85 207.81C215.81 207.55 214.67 208.18 214.67 209.02C214.67 210.19 216.72 210.55 217.91 209.59ZM196.5 203.67C196.09 202.38 197.24 201.87 198.51 202.8C199.05 203.19 199.07 203.34 198.7 203.8C198.07 204.56 196.76 204.48 196.5 203.67ZM114.91 182.31C115.35 181.44 115.43 176.42 115.03 175C114.81 174.23 114.66 174.18 113.12 174.28C112.04 174.35 110.97 174.18 110.13 173.81C109.22 173.4 107.42 173.16 104.05 172.99C100.02 172.78 99.13 172.64 98.36 172.07C97.77 171.64 96.64 171.32 95.14 171.16C93.87 171.03 92.38 170.66 91.83 170.34C91.28 170.02 90.09 169.66 89.19 169.54C88.29 169.43 87.27 169.07 86.92 168.76C86.43 168.32 85.15 168.11 81.23 167.82C78.44 167.61 75.9 167.32 75.58 167.18C74.87 166.87 74.83 165.9 75.49 164.9C76.11 163.95 75.81 162.76 74.88 162.46C74.49 162.34 73.83 161.92 73.43 161.54C73.02 161.15 72.2 160.46 71.61 160C70.72 159.32 67.01 155.64 63.71 152.16C63.36 151.79 62.9 150.87 62.7 150.12C62.5 149.36 62.11 148.56 61.84 148.34C61.57 148.12 61.25 147.39 61.13 146.72C61.02 146.05 60.65 145.05 60.33 144.5C60 143.95 59.63 142.82 59.49 142C59.36 141.17 59.08 140.39 58.88 140.26C58.67 140.12 55.12 140.01 50.98 140.01C41.8 140 41.82 139.99 43.11 142.8C43.59 143.85 44.08 145.46 44.2 146.38C44.34 147.4 44.73 148.43 45.21 149C45.65 149.51 46 150.13 46 150.38C46 150.63 46.31 151.28 46.69 151.83C47.07 152.38 47.52 153.19 47.69 153.62C48.08 154.59 48.93 155.71 51.42 158.61C54.32 161.97 56.5 164.06 58.67 165.53C59.31 165.97 60.36 166.71 61 167.17C61.64 167.63 62.72 168.37 63.39 168.82C64.06 169.27 64.71 169.8 64.82 169.99C65.25 170.67 66.37 170.33 66.93 169.34C67.77 167.87 69.01 167.98 70.66 169.66C71.37 170.39 72.08 171.19 72.23 171.45C72.71 172.26 76.81 175.56 77.67 175.82C78.13 175.96 78.8 176.34 79.17 176.66C79.53 176.98 80.58 177.34 81.5 177.46C82.42 177.58 83.6 177.99 84.12 178.37C84.69 178.79 85.9 179.18 87.14 179.33C88.28 179.47 89.73 179.85 90.36 180.18C91.01 180.52 92.71 180.88 94.33 181.02C95.89 181.16 97.84 181.53 98.67 181.85C99.82 182.3 101.67 182.48 106.74 182.65C110.36 182.78 113.42 182.98 113.56 183.11C113.94 183.49 114.47 183.17 114.91 182.31ZM130.4 182.7C134.66 182.67 135.44 182.58 136.42 182C137.23 181.52 138.45 181.27 140.69 181.12C143.05 180.96 144.21 180.71 145.33 180.12C146.16 179.68 147.41 179.33 148.13 179.33C148.94 179.33 150.25 178.92 151.57 178.25C153.58 177.24 154.67 176.25 158.61 171.86C160.09 170.22 161.78 169.4 162.48 169.99C163.21 170.59 163.13 171.92 162.33 172.41C161.97 172.64 161.67 173.17 161.67 173.59C161.67 174.24 161.79 174.32 162.58 174.14C163.09 174.02 164.06 173.57 164.74 173.13C165.43 172.69 166.21 172.33 166.49 172.33C166.77 172.33 167.31 172.02 167.7 171.64C168.08 171.25 168.94 170.71 169.61 170.44C170.28 170.16 171.1 169.7 171.42 169.41C172 168.9 172.18 168.78 174.31 167.5C174.92 167.13 175.85 166.46 176.38 166C176.91 165.54 177.8 164.79 178.37 164.33C179.74 163.23 183.1 159.87 185.13 157.57C186.82 155.65 187.94 153.99 188.86 152.01C189.16 151.37 189.69 150.48 190.04 150.04C190.38 149.6 190.67 148.9 190.67 148.48C190.67 148.06 191.03 147.28 191.48 146.75C192.5 145.54 193.1 140.81 192.3 140.31C191.61 139.87 178.2 139.92 177.22 140.37C176.34 140.77 175.67 142.51 175.67 144.41C175.67 145.1 175.33 146.07 174.83 146.8C174.38 147.48 174 148.23 174 148.47C174 148.71 173.55 149.47 173 150.17C172.45 150.86 172 151.57 172 151.74C172 151.92 171.32 152.85 170.5 153.82C168.58 156.06 168.56 156.6 170.42 156.73C171.66 156.82 171.83 156.93 171.83 157.63C171.83 158.07 171.61 158.54 171.33 158.69C168.96 159.91 167.32 160.62 166.33 160.83C165.69 160.97 164.46 161.44 163.59 161.87C162.73 162.31 161.63 162.67 161.14 162.67C160.66 162.67 159.82 163.04 159.27 163.5C158.73 163.96 158.08 164.33 157.83 164.33C157.59 164.33 156.96 164.69 156.44 165.12C155.92 165.56 155.03 166.02 154.45 166.14C153.87 166.27 153.14 166.66 152.82 167.02C152.49 167.38 151.9 167.67 151.5 167.67C151.1 167.67 150.09 168.02 149.27 168.46C148.45 168.9 147.11 169.36 146.3 169.5C145.5 169.63 144.38 170.01 143.83 170.34C143.28 170.67 141.8 171.05 140.53 171.18C139.2 171.32 137.73 171.71 137.07 172.1C136.13 172.65 135.1 172.81 131.38 172.98C127.78 173.15 126.64 173.32 125.92 173.79C125.17 174.3 124.48 174.38 121.8 174.28C118.62 174.17 118.57 174.18 118.26 175C117.83 176.16 118.06 182.63 118.55 182.93C118.76 183.06 120.41 183.07 122.22 182.95C124.02 182.83 127.7 182.72 130.4 182.7ZM115.27 165.75C115.42 159.2 115.23 158.4 113.59 158.4C112.97 158.4 111.66 158.16 110.67 157.87C109.3 157.46 107.38 157.33 102.49 157.33C98.71 157.33 95.67 157.18 95.05 156.97C93.8 156.53 93.66 155.57 94.7 154.47C95.26 153.87 95.32 153.6 95.03 153.05C94.83 152.68 94.33 152.28 93.92 152.15C93.5 152.03 92.77 151.53 92.28 151.05C91.79 150.56 90.48 149.27 89.37 148.17C88.25 147.07 87.34 146.04 87.34 145.88C87.33 145.72 86.97 145.16 86.52 144.63C86.07 144.09 85.61 143 85.48 142.16C85.29 140.91 85.11 140.62 84.38 140.41C83.9 140.28 78.7 140.17 72.83 140.17L62.17 140.17L62.07 141.74C61.99 142.89 62.14 143.56 62.62 144.24C62.98 144.75 63.36 145.71 63.48 146.38C63.59 147.05 63.89 147.68 64.15 147.78C64.41 147.88 64.92 148.64 65.29 149.48C65.66 150.32 66.09 151 66.24 151C66.4 151 66.77 151.41 67.07 151.92C67.78 153.13 72.99 158.33 73.49 158.33C73.7 158.33 74.21 158.71 74.6 159.17C75 159.62 75.62 160 75.98 160C76.34 160 76.86 160.33 77.14 160.74C77.82 161.7 78.59 161.11 78.03 160.06C77.56 159.18 77.57 159.15 78.19 158.52C79.11 157.6 80.17 157.9 81.42 159.42C82.07 160.2 83.97 162.22 85.65 163.92C88.05 166.34 88.9 167 89.63 167C90.15 167 91.23 167.35 92.03 167.78C92.84 168.21 94.4 168.66 95.5 168.79C96.6 168.92 98.1 169.3 98.83 169.64C99.74 170.06 101.7 170.38 105 170.65C107.88 170.89 110.12 171.23 110.54 171.5C111.5 172.12 114.05 172.27 114.66 171.75C115.05 171.42 115.18 170.14 115.27 165.75ZM124.83 171.51C126.57 171.02 131.84 170.38 134.2 170.38C134.96 170.37 136.16 170.08 136.87 169.71C137.58 169.35 139.14 168.95 140.32 168.82C141.57 168.68 142.82 168.32 143.32 167.96C143.79 167.62 144.84 167.21 145.67 167.06C146.49 166.9 147.69 166.45 148.33 166.05C148.97 165.66 149.81 165.34 150.19 165.33C150.56 165.33 151.38 164.96 152 164.5C152.62 164.04 153.39 163.67 153.71 163.67C154.02 163.67 154.72 163.3 155.25 162.85C155.78 162.41 156.6 161.95 157.08 161.83C157.89 161.62 160.48 158.61 160.92 157.36C161.02 157.07 161.36 156.53 161.68 156.17C161.99 155.8 162.43 154.94 162.65 154.25C162.87 153.56 163.19 153 163.35 153C163.52 153 163.88 152.55 164.17 152C164.93 150.52 166.21 150.62 166.87 152.21L167.37 153.41L168.22 152.62C168.68 152.19 169.29 151.38 169.57 150.83C169.85 150.28 170.34 149.53 170.67 149.17C170.99 148.8 171.37 148.12 171.5 147.67C171.63 147.21 172.01 146.53 172.34 146.17C172.67 145.8 173.1 144.67 173.28 143.67C173.47 142.66 173.72 141.57 173.84 141.25C174.28 140.14 172.69 139.99 161.74 140.08L151.22 140.17L150.89 141.17C150.71 141.72 150.29 142.52 149.95 142.96C149.61 143.4 149.33 144.02 149.33 144.33C149.33 144.65 149.03 145.29 148.67 145.76C147.71 146.97 147.84 147.33 149.19 147.33C150.71 147.33 151.67 147.85 151.67 148.67C151.67 149.46 150.37 150.16 148.34 150.47C147.52 150.6 146.61 150.91 146.32 151.18C145.65 151.78 141.3 153.3 139.33 153.62C138.51 153.75 137.38 154.19 136.83 154.58C136.28 154.98 135.11 155.47 134.23 155.66C133.35 155.85 132.26 156.25 131.81 156.54C131.3 156.88 129.95 157.13 128.09 157.24C126.27 157.35 124.85 157.61 124.33 157.93C123.81 158.26 122.6 158.48 121.04 158.53C119.4 158.57 118.49 158.74 118.3 159.05C117.89 159.69 117.93 169.24 118.35 170.73C118.67 171.9 118.77 171.97 120.26 172.08C122.05 172.22 122.51 172.16 124.83 171.51ZM114.71 156.12C115.27 155.44 115.48 141.09 114.94 140.43C114.54 139.94 89.12 139.82 88.37 140.3C87.49 140.86 88.17 142.84 90 145.03C92.94 148.57 95.16 150.35 95.98 149.84C96.13 149.75 96.34 149.23 96.45 148.67C96.63 147.76 96.77 147.67 97.98 147.67C98.75 147.67 99.49 147.88 99.74 148.17C100.51 149.07 102.79 151.31 104.63 152.96C106.31 154.47 106.61 154.6 109.02 154.94C110.45 155.14 112.11 155.61 112.72 155.99C114.07 156.81 114.13 156.81 114.71 156.12ZM123.67 155.66C124.67 155.33 126.7 154.95 128.17 154.82C129.94 154.66 131.09 154.37 131.61 153.97C132.03 153.64 133.08 153.27 133.94 153.14C134.8 153.02 135.8 152.66 136.17 152.33C136.53 152.01 137.15 151.65 137.54 151.53C138.36 151.28 140.63 148.68 141.5 147C141.83 146.36 142.36 145.49 142.69 145.07C143.02 144.65 143.38 143.87 143.5 143.35C143.77 142.1 145.53 141.22 147.13 141.51C148.46 141.76 149.1 141.14 148.18 140.47C147.73 140.14 144.41 140.06 132.88 140.11L118.17 140.17L118.17 147.67C118.17 156.43 118.24 156.7 120.41 156.43C121.19 156.33 122.66 155.98 123.67 155.66ZM264.9 151.74C264.5 151.3 264.33 150.52 264.33 149.12C264.33 148.02 264.16 146.96 263.93 146.73C263.71 146.51 262.76 146.33 261.81 146.33C259.79 146.33 259.24 145.87 259.39 144.27C259.5 143.17 259.5 143.17 261.5 143.07C263.93 142.95 264.33 142.53 264.33 140.13C264.33 137.87 264.56 137.33 265.53 137.33C266.68 137.33 267.4 138.61 267.15 140.21C266.84 142.25 267.46 142.8 270.35 143C273.2 143.2 273.84 143.74 272.99 145.25C272.53 146.07 272.25 146.18 270.25 146.33C269.03 146.42 267.84 146.69 267.6 146.93C267.36 147.17 267.17 148.11 267.17 149.01C267.17 150.33 267 150.82 266.31 151.51C265.48 152.33 265.44 152.34 264.9 151.74ZM97.5 150.67C97.61 150.48 97.47 150.33 97.19 150.33C96.9 150.33 96.67 150.48 96.67 150.67C96.67 150.85 96.81 151 96.98 151C97.15 151 97.39 150.85 97.5 150.67ZM240.5 143.87C238.05 142.21 237.51 141.09 237.51 137.67C237.5 133.89 237.94 132.95 240.29 131.61C242.14 130.56 242.24 130.54 247.33 130.41C253.46 130.26 254.33 130.47 254.33 132.09C254.33 133.56 253.72 134.34 252.34 134.62L251.21 134.85L251.19 137.39C251.17 139.69 251.07 140.08 250.13 141.38C249.56 142.18 248.36 143.32 247.47 143.92C246.12 144.81 245.52 145 244 145C242.46 145 241.89 144.82 240.5 143.87ZM245.52 140.98C246.42 140.04 246.5 139.76 246.5 137.55C246.5 134.39 245.88 133.33 244.02 133.33C242.82 133.33 242.69 133.43 242.32 134.53C241.73 136.32 242.03 140.44 242.81 141.3C243.67 142.26 244.37 142.18 245.52 140.98ZM58.99 136.84C59.23 136.56 59.43 135.21 59.47 133.74C59.52 131.79 59.72 130.77 60.27 129.72C60.67 128.95 61 128.13 61 127.91C61 127.23 62.81 123.82 63.77 122.68C64.26 122.1 64.67 121.5 64.67 121.36C64.67 121.22 65.1 120.65 65.62 120.1C66.15 119.55 66.64 118.96 66.71 118.8C67.11 117.85 72.7 113.27 75.62 111.5C77.05 110.63 77.05 110.63 76.18 109.95C75.34 109.29 75.06 108.21 75.63 107.86C75.79 107.76 76.88 107.53 78.04 107.34C79.21 107.16 80.99 106.78 82 106.5C83.01 106.22 84.88 105.89 86.17 105.77C87.49 105.65 88.93 105.29 89.5 104.95C90.09 104.58 91.14 104.34 92.07 104.33C93.17 104.33 93.99 104.1 94.81 103.54C95.74 102.9 96.63 102.69 99.08 102.5C100.78 102.37 102.45 102.11 102.8 101.92C104.11 101.24 107.94 100.67 111.26 100.67L114.68 100.67L115.04 99.75C115.43 98.75 115.26 92.03 114.83 91.32C114.45 90.71 108.11 91.09 106.74 91.8C106.02 92.17 104.16 92.43 100.76 92.64C97.42 92.84 95.4 93.12 94.5 93.51C93.77 93.83 92.1 94.21 90.81 94.35C89.49 94.5 87.95 94.92 87.31 95.29C86.68 95.66 85.35 96.07 84.36 96.2C83.35 96.33 82.04 96.78 81.39 97.22C80.7 97.69 79.75 98 79.02 98C78.24 98 77.39 98.3 76.67 98.83C76.05 99.29 75.24 99.67 74.89 99.67C74.08 99.67 71.26 102.54 69.58 105.07C68.13 107.26 66.89 108.33 65.82 108.33C64.6 108.33 64.26 106.68 65.25 105.56C65.82 104.91 65.81 104.9 64.76 105.11C64.17 105.22 62.97 105.84 62.09 106.48C61.22 107.13 60.09 107.88 59.6 108.16C59.1 108.44 58.34 109.01 57.91 109.42C53.82 113.32 51.33 115.77 51.33 115.92C51.33 116.01 50.85 116.65 50.25 117.34C48.79 119.04 47.91 120.3 47.43 121.41C47.21 121.92 46.88 122.33 46.7 122.33C46.51 122.33 46.19 122.97 45.98 123.75C45.78 124.53 45.34 125.47 45.01 125.83C44.68 126.2 44.31 127.25 44.17 128.16C44.04 129.07 43.67 130.35 43.34 130.99C43.01 131.64 42.63 133.16 42.5 134.38C42.29 136.33 42.34 136.64 42.88 136.95C43.27 137.18 46.27 137.32 51.04 137.32C57.3 137.33 58.65 137.25 58.99 136.84ZM83.48 137.01C83.95 136.83 84.33 136.42 84.34 136.09C84.34 135.77 84.56 135.07 84.84 134.54C85.11 134.01 85.43 132.96 85.55 132.21C85.66 131.45 86.09 130.46 86.51 130C86.92 129.54 87.36 128.84 87.48 128.43C87.6 128.03 88.44 127.03 89.34 126.23C90.24 125.42 90.88 124.66 90.77 124.54C90.65 124.43 90.01 124.33 89.34 124.33C87.9 124.33 87.33 123.85 87.33 122.64C87.33 121.6 87.83 121.33 89.79 121.33C90.56 121.33 92.02 121.04 93.03 120.69C94.04 120.33 96.06 119.93 97.51 119.8C99.03 119.66 100.57 119.31 101.15 118.97C101.71 118.64 103.11 118.27 104.26 118.14C105.41 118.02 106.43 117.79 106.52 117.63C106.83 117.13 109.13 116.68 111.78 116.62C115.38 116.52 115.33 116.62 115.33 109.47C115.33 105.2 115.22 103.66 114.9 103.39C114.32 102.9 105.9 103.06 105.29 103.57C104.63 104.11 100.57 105 98.73 105C97.87 105 96.72 105.24 96.17 105.53C95.62 105.81 94.23 106.27 93.08 106.53C90.37 107.16 88.43 108.17 87.09 109.65C86.51 110.3 85.76 111.13 85.43 111.49C85.1 111.86 84.68 112.4 84.5 112.7C82.75 115.56 81.71 116.67 80.76 116.67C79.68 116.67 79.51 115.95 80.13 114.11C80.82 112.11 80.81 112 79.97 112C79.3 112 78.56 112.47 76.19 114.42C75.58 114.92 74.98 115.33 74.87 115.33C74.6 115.33 70.46 118.61 69.61 119.5C68.13 121.03 65.41 124.55 65.21 125.21C65.08 125.6 64.69 126.18 64.32 126.51C63.96 126.84 63.67 127.35 63.67 127.66C63.67 127.97 63.31 128.92 62.88 129.78C62.35 130.81 62.01 132.24 61.86 133.98C61.65 136.31 61.69 136.65 62.23 136.96C63.01 137.42 82.29 137.46 83.48 137.01ZM114.72 136.78C115.28 136.28 115.33 135.55 115.33 128.09C115.33 123.31 115.2 119.7 115 119.33C114.71 118.79 114.34 118.73 112.08 118.83C110.4 118.91 108.92 119.2 107.83 119.67C106.92 120.07 105.35 120.48 104.36 120.58C102.41 120.79 100.81 121.59 99.24 123.17C98.24 124.16 95.8 127.29 95.17 128.38C94.8 129.01 92.49 130.67 91.99 130.67C91.81 130.67 91.48 130.37 91.26 130C91.03 129.63 90.71 129.33 90.55 129.33C89.92 129.33 88 131.83 88 132.65C87.99 133.12 87.61 134.16 87.15 134.97C86.69 135.78 86.43 136.56 86.57 136.7C87.06 137.16 88.79 137.23 101.47 137.28C112.81 137.33 114.18 137.28 114.72 136.78ZM148.02 136.99C149.02 136.45 148.91 133.89 147.83 132.61C147.38 132.06 147 131.4 147 131.14C147 130.47 145.21 128.67 144.55 128.67C144.24 128.67 144 128.93 144 129.28C144 129.62 143.7 130.17 143.32 130.51C142.66 131.11 142.62 131.09 141.41 129.71C140.73 128.94 139.72 127.71 139.17 126.98C135.39 121.97 133.97 120.87 130.83 120.54C129.68 120.41 128.46 120.05 127.95 119.68C127.23 119.15 126.33 119 122.95 118.88C120.39 118.78 118.68 118.86 118.42 119.07C117.83 119.55 117.82 136.35 118.4 136.93C118.93 137.46 147.05 137.51 148.02 136.99ZM174.54 136.61C175.06 136.09 175.05 135.96 174.39 134.69C174 133.95 173.52 132.33 173.32 131.09C173.1 129.72 172.71 128.56 172.31 128.15C171.96 127.77 171.67 127.22 171.67 126.94C171.67 126.66 171.22 125.86 170.67 125.17C170.12 124.47 169.67 123.79 169.67 123.65C169.67 123.35 163.86 117.51 162.46 116.4C159.97 114.42 158.88 113.67 158.51 113.67C158.29 113.67 157.76 113.29 157.33 112.83C156.9 112.38 156.33 112 156.06 112C155.79 112 154.77 111.6 153.79 111.1C151.93 110.16 151.08 110.24 152.27 111.24C152.65 111.57 153.06 112.38 153.18 113.05C153.37 114.13 153.29 114.35 152.48 114.88C151.59 115.46 151.56 115.46 151.03 114.72C150.24 113.6 146.78 109.34 145.56 107.97C144.68 106.98 144.2 106.74 142.77 106.57C141.82 106.46 140.47 106.08 139.77 105.73C138.97 105.33 137.41 105.01 135.52 104.87C133.38 104.72 132.19 104.45 131.35 103.95C130.3 103.33 129.52 103.24 124.36 103.12C119.89 103.01 118.49 103.08 118.28 103.41C117.81 104.14 117.94 115.87 118.42 116.25C118.65 116.44 120.5 116.6 122.54 116.62C125.31 116.64 126.71 116.81 128.04 117.29C129.03 117.64 130.64 118.02 131.62 118.12C132.6 118.23 133.92 118.62 134.56 118.99C135.19 119.36 136.26 119.67 136.94 119.67C137.61 119.67 139.74 120.04 141.67 120.49C143.59 120.94 145.71 121.39 146.38 121.5C147.05 121.6 147.8 121.92 148.04 122.21C148.41 122.67 148.34 122.86 147.55 123.54C147.05 123.98 146.26 124.33 145.81 124.33C145.37 124.33 145 124.45 145 124.58C145 124.72 145.87 125.74 146.93 126.85C149.45 129.47 151 132.62 151 135.12C151 136.26 151.16 137.01 151.42 137.12C151.65 137.22 156.82 137.27 162.91 137.23C172.76 137.17 174.04 137.11 174.54 136.61ZM192.68 136.79C193.3 136.17 192.51 129.51 191.68 128.35C191.32 127.85 190.92 126.8 190.8 126.02C190.67 125.25 190.29 124.29 189.94 123.89C189.59 123.49 189.05 122.69 188.74 122.1C186.34 117.65 179.42 110.16 176.02 108.34C175.61 108.13 175.03 107.73 174.72 107.45C173.39 106.27 171.54 105 171.15 105C170.91 105 170.27 104.62 169.73 104.17C169.18 103.71 168.59 103.33 168.42 103.33C168.24 103.33 167.44 102.89 166.63 102.34C165.83 101.79 164.92 101.34 164.63 101.34C164.33 101.34 163.7 101.02 163.22 100.65C162.74 100.27 161.78 99.88 161.09 99.77C160.4 99.67 159.31 99.25 158.67 98.83C158.02 98.41 156.8 97.97 155.94 97.85C155.08 97.73 154.03 97.36 153.61 97.03C153.18 96.7 152.05 96.33 151.08 96.2L149.33 95.98L149.33 96.95C149.33 97.49 149.05 98.28 148.69 98.71L148.06 99.5L147.26 98.75C146.82 98.34 146.34 98 146.19 98C146.04 98 145.08 97.28 144.05 96.4C143.01 95.53 141.27 94.35 140.17 93.79C138.34 92.86 137.8 92.75 133.89 92.57C130.5 92.41 129.34 92.23 128.3 91.69C127.14 91.09 126.47 91.02 122.58 91.09L118.17 91.17L118.07 95.17C117.93 101.14 117.28 100.56 124.25 100.73C129.44 100.86 130.36 100.97 131.74 101.61C132.8 102.1 134.3 102.41 136.35 102.55C138.37 102.7 139.81 102.99 140.62 103.41C141.47 103.87 142.94 104.14 145.57 104.33C147.63 104.49 149.81 104.76 150.41 104.96C151.01 105.15 152.6 105.45 153.94 105.63C157.23 106.07 158.24 107 156.63 108.12C155.95 108.6 156.01 109.33 156.73 109.33C156.92 109.33 157.57 109.75 158.17 110.25C158.77 110.75 159.91 111.54 160.7 112C162.51 113.05 168.62 118.24 169.69 119.64C170.14 120.22 170.91 121.14 171.42 121.69C171.92 122.24 172.33 122.89 172.33 123.13C172.33 123.37 172.63 123.83 172.99 124.16C173.36 124.49 173.75 125.25 173.86 125.86C173.97 126.47 174.43 127.45 174.87 128.05C175.32 128.65 175.67 129.59 175.67 130.19C175.67 130.77 175.96 132.15 176.31 133.26C176.66 134.37 176.87 135.59 176.77 135.97C176.64 136.48 176.8 136.75 177.38 136.98C178.51 137.45 192.19 137.27 192.68 136.79ZM128.07 19.27C127.85 19.05 127.67 18.45 127.67 17.94C127.67 17.25 127.86 16.96 128.43 16.82C128.85 16.72 132.46 16.67 136.44 16.73C142.45 16.82 143.75 16.92 144.01 17.33C144.46 18.05 144.42 18.25 143.67 19C143.04 19.63 142.56 19.67 135.73 19.67C130.53 19.67 128.35 19.55 128.07 19.27ZM111.42 18.49C109.15 17.35 108.49 16.46 107.87 13.73C107.41 11.67 107.41 11.33 107.98 9.23C108.32 7.98 108.65 6.92 108.71 6.87C108.78 6.82 109.58 6.37 110.5 5.87C112.58 4.72 113.97 4.58 119.83 4.91L124.5 5.17L124.6 6.55C124.68 7.68 124.56 8.04 123.94 8.47C123.53 8.76 122.75 9 122.22 9C121.25 9 121.25 9.01 121.41 10.71C121.74 14.07 120.74 16.21 118 18.09C115.87 19.54 113.75 19.67 111.42 18.49ZM116.86 13.06C117.41 10.29 116.1 7.33 114.32 7.33C113.2 7.33 112.55 8.31 112.18 10.58C111.82 12.75 112.25 14.53 113.42 15.7L114.45 16.73L115.54 15.45C116.15 14.74 116.74 13.67 116.86 13.06Z" fill="#1e2749" fill-rule="evenodd"/>
</svg>
