<?xml version="1.0" encoding="UTF-8"?>
<svg xmlns="http://www.w3.org/2000/svg" viewBox="0 0 223 168" width="223" height="168" shape-rendering="geometricPrecision">
<path d="M98 158.33C97.17 158.19 95.26 157.91 93.74 157.69C92.22 157.48 90.6 157.17 90.14 156.99C89.67 156.81 88.93 156.67 88.5 156.67C88.06 156.67 85.41 155.91 82.6 155C67.26 149.97 53.85 140.17 44.53 127.17C42.4 124.19 38.71 117.83 37.64 115.3C37.07 113.94 36.46 112.69 36.3 112.52C36.13 112.34 36 111.94 36 111.63C36 111.31 35.78 110.63 35.51 110.11C34.92 108.98 33.25 103.4 32.53 100.17C31.26 94.41 31 91.73 31.01 84.29C31.02 74.42 31.64 70.37 34.56 61.17C39.47 45.72 49.68 32.26 63.6 22.88C67.16 20.49 73.88 16.88 76.83 15.78C81.01 14.22 84.8 13 87 12.5C88.38 12.19 89.98 11.8 90.56 11.62C91.77 11.26 94.95 10.86 101.14 10.28C105.37 9.88 109.15 10.07 116.5 11.02C130.51 12.85 146.13 20.33 156.33 30.11C157.34 31.08 158.43 31.97 158.76 32.09C159.08 32.22 159.46 32.6 159.59 32.95C159.72 33.29 160.76 34.61 161.9 35.87C163.03 37.13 164.45 38.84 165.05 39.67C165.65 40.49 166.64 41.84 167.24 42.67C167.83 43.49 168.93 45.22 169.68 46.5C170.42 47.78 171.17 49.06 171.34 49.33C172.34 50.96 175.04 57.14 176.21 60.5C178.62 67.38 180.33 77.31 180.33 84.33C180.33 93.71 177.82 105.08 173.71 114.33C167.24 128.86 154.61 142.25 139.95 150.1C137.73 151.29 133.58 153.16 132 153.68C131.54 153.83 130.35 154.26 129.35 154.64C127.68 155.27 124.83 156.03 119.83 157.17C114.13 158.48 102.58 159.09 98 158.33ZM112.67 156.33C114.96 156.13 117.73 155.76 118.83 155.51C125.04 154.1 127.82 153.33 129.88 152.45C130.46 152.2 131.09 152 131.27 152C131.46 152 132.04 151.79 132.56 151.52C133.08 151.26 135.47 150.08 137.88 148.89C153.54 141.19 166.44 127.37 172.94 111.33C176.01 103.74 177.72 96.41 178.16 88.92L178.35 85.67L142.86 85.67C118.19 85.67 107.31 85.77 107.15 86.02C107.03 86.22 106.56 86.52 106.09 86.7C105.44 86.94 104.99 86.87 104.11 86.34C102.98 85.68 102.5 85.67 67.81 85.67L32.67 85.67L32.67 87.42C32.67 89.8 33.59 96.78 34.18 98.86C34.45 99.8 34.67 100.84 34.67 101.19C34.67 101.88 36.47 107.83 37.21 109.58C37.46 110.18 37.87 111.15 38.12 111.75C43.58 124.89 52.73 136.12 64.5 144.1C74.75 151.05 86.34 155.28 98 156.32C105.55 156.99 105.05 156.99 112.67 156.33ZM101.82 102.35C100.94 101.99 98.73 99.53 98.32 98.46C97.37 95.96 98.5 92.54 100.76 91.1C103.53 89.34 108.31 89.96 109.97 92.3C112.26 95.51 111.08 99.4 107.01 102.12C106.13 102.71 103.04 102.84 101.82 102.35ZM107.25 100.17C108.15 99.27 109 97.33 109 96.16C109 95.01 108.12 93.34 107.04 92.43C105.96 91.52 102.9 91.37 101.75 92.18C100.09 93.34 99.97 97.46 101.54 99.52C102.94 101.35 105.73 101.67 107.25 100.17ZM156 99.87C156 99.61 156.22 99.32 156.5 99.21C157.28 98.91 157.23 89.74 156.45 89.17C155.3 88.33 156.31 88 160 88C163.83 88 164.05 88.08 165.2 89.84C165.86 90.85 165.53 92.02 164.22 93.26C163.02 94.4 161.97 94.81 161 94.5C160.01 94.19 160.19 93.44 161.32 93.22C161.86 93.11 162.56 92.64 162.87 92.16C163.71 90.88 163.1 89.8 161.37 89.51C160.63 89.38 159.87 89.37 159.68 89.49C159.47 89.62 159.33 91.45 159.33 94.16C159.33 97.76 159.43 98.72 159.85 99.14C160.68 99.97 160.11 100.33 157.98 100.33C156.51 100.33 156 100.21 156 99.87ZM184.49 91.99C184.37 91.78 184.56 91.4 184.93 91.15C185.78 90.55 186.1 88.89 186.07 85.21C186.05 82.61 185.95 82.16 185.28 81.44C184.63 80.76 184.59 80.58 185.01 80.32C185.61 79.94 187.02 79.92 187.58 80.27C187.8 80.42 188.7 81.44 189.58 82.54C190.45 83.64 191.9 85.47 192.8 86.6C193.69 87.73 194.56 88.57 194.71 88.47C194.87 88.37 195 86.82 195 85.02C195 82.52 194.88 81.65 194.5 81.33C193.49 80.49 193.92 80 195.67 80C197.32 80 197.79 80.41 197.01 81.19C196.83 81.37 196.64 83.82 196.59 86.64C196.51 91.2 196.43 91.8 195.89 92.13C195.36 92.45 195.03 92.23 193.61 90.67C192.7 89.66 191.03 87.67 189.9 86.25C188.78 84.83 187.73 83.67 187.57 83.67C187.31 83.67 187.41 90.06 187.7 91.5C187.82 92.08 187.63 92.18 186.28 92.27C185.38 92.33 184.63 92.21 184.49 91.99ZM12.29 90.75C12.27 90.61 12.23 88.25 12.2 85.5C12.17 82.75 12.08 80.2 11.99 79.83C11.86 79.27 12.03 79.15 13.07 79.06L14.31 78.96L16.37 83.14C17.5 85.43 18.55 87.24 18.69 87.15C19.02 86.95 21 82.9 21 82.43C21 82.24 21.22 81.89 21.5 81.67C21.77 81.44 22 80.98 22 80.65C22 79.71 22.94 79 24.17 79C25.43 79 25.91 79.47 25.34 80.15C24.92 80.66 25.02 88.98 25.46 90.18C25.69 90.8 25.57 90.85 24.1 90.84C22.69 90.83 22.51 90.75 22.62 90.16C22.69 89.8 22.81 88.02 22.9 86.21C23.13 81.51 22.68 81.83 19.7 88.42C18.93 90.12 18.52 90.67 18.01 90.67C17.64 90.67 17.33 90.49 17.33 90.28C17.33 89.64 13.94 83 13.61 83C13.34 83 13.42 84.88 13.85 89.05C13.98 90.26 13.9 90.63 13.48 90.8C12.76 91.07 12.34 91.05 12.29 90.75ZM121.07 81.67C120.88 79.26 118.46 74.33 117.48 74.33C117.22 74.33 115.09 76.16 112.75 78.4C110.41 80.64 108.43 82.52 108.34 82.58C107.76 83.02 109.72 83.15 115.05 83L121.17 82.83L121.07 81.67ZM103.67 82.5C103.89 82.22 104.59 82 105.2 82C106.42 82 109.08 79.54 133.33 56C138.74 50.75 146.2 43.55 149.92 40C153.63 36.44 156.67 33.36 156.67 33.16C156.67 32.59 150.27 27.26 146.5 24.69C141.05 20.97 136.36 18.6 129.67 16.18C116.96 11.57 100.62 10.82 87.5 14.23C72.26 18.18 59.66 26.07 49.69 37.89C46.14 42.1 45.26 43.32 42.76 47.5C40.63 51.07 39.19 54.01 37.37 58.45C36.92 59.57 35.86 62.82 35.18 65.17C33.98 69.35 32.67 77.72 32.67 81.14L32.67 83L67.96 83C98.92 83 103.3 82.94 103.67 82.5ZM156.92 59.58C156.99 40.79 156.92 36.33 156.58 36.33C156.34 36.33 155.25 37.25 154.16 38.37C153.06 39.48 147.14 45.21 141 51.09C125.13 66.28 119.33 72.07 119.33 72.73C119.33 73.05 119.72 73.87 120.2 74.57C121.47 76.42 122.59 79.1 122.85 80.91C122.98 81.78 123.15 82.61 123.23 82.75C123.31 82.89 130.9 82.97 140.1 82.92L156.83 82.83L156.92 59.58ZM178.15 82.69C178.41 82.27 177.79 74.29 177.32 72C177.11 70.99 176.65 68.97 176.29 67.5C174.24 59.06 171.35 52.42 166.51 45C164.2 41.46 160.44 36.67 159.97 36.67C159.79 36.67 159.67 45.98 159.67 59.83L159.67 83L168.81 83C174.12 83 178.04 82.87 178.15 82.69ZM60.44 80.66C59.66 80.35 59 79.37 59 78.52C59 77.78 60.24 77.87 60.65 78.64C61.55 80.31 64.15 79.5 64.53 77.44C64.73 76.41 64.64 76.12 63.99 75.59C63.45 75.16 62.94 75.03 62.28 75.18C60.79 75.51 61.04 74.33 62.67 73.41C64.2 72.53 64.49 71.28 63.3 70.65C62.3 70.11 60.45 70.53 60.23 71.34C59.98 72.32 59.33 72.14 59.34 71.08C59.36 69.9 59.89 69.26 61.32 68.75C62.3 68.4 62.71 68.42 63.89 68.87C65.72 69.57 66.26 70.86 65.44 72.58C64.92 73.67 64.93 73.76 65.44 74.06C65.75 74.23 66.23 74.82 66.52 75.37C67.98 78.19 63.65 81.96 60.44 80.66ZM69.99 80.62C68.53 80.11 67.83 78.5 67.87 75.75C67.9 73.57 68.02 73.16 69.03 71.67C70.12 70.07 72.66 68.33 73.89 68.33C74.67 68.33 74.31 68.82 72.42 70.3C71.14 71.31 70.67 71.91 70.67 72.51C70.67 73.23 70.78 73.32 71.49 73.14C72.07 72.99 72.78 73.2 73.81 73.8C74.99 74.5 75.35 74.92 75.52 75.83C76.07 78.73 72.75 81.6 69.99 80.62ZM127.02 80.57C126.58 80.35 126.1 79.72 125.95 79.18C125.65 78.06 125.83 77.71 126.47 78.18C128.61 79.75 128.54 79.73 129.78 79.21C130.74 78.81 131 78.49 131.19 77.47C131.39 76.4 131.31 76.12 130.66 75.59C130.13 75.17 129.6 75.03 128.98 75.17C127.75 75.44 127.38 74.76 128.38 74.07C129.51 73.28 130.67 72.08 130.67 71.71C130.67 71.09 129.61 70.33 128.75 70.33C128.27 70.33 127.54 70.65 127.14 71.03L126.4 71.72L126.18 71.04C125.86 70.03 126.47 69.17 127.82 68.76C129.27 68.31 130.77 68.67 131.89 69.72C132.79 70.56 132.87 71.27 132.18 72.19C131.46 73.13 131.56 73.85 132.48 74.46C133.47 75.11 133.64 74.89 133.89 72.59C133.99 71.62 134.28 70.51 134.53 70.11C134.99 69.37 136.76 68.33 137.56 68.33C138.26 68.33 140.67 69.63 140.67 70.01C140.67 70.6 141.41 70.35 142.2 69.5C143.08 68.54 143.95 68.45 145.35 69.17C147.15 70.11 146.85 72.47 144.82 73.4C143.84 73.85 142.33 73.31 142.33 72.51C142.33 72.23 142.18 72 142 72C141.81 72 141.67 73 141.67 74.35C141.67 78.06 139.87 80.82 137.5 80.73C135.84 80.67 135.15 80.2 134.45 78.68C134.11 77.95 133.75 77.35 133.64 77.34C133.53 77.34 133.24 77.71 133 78.17C131.93 80.16 128.75 81.44 127.02 80.57ZM48.08 79.92C46.99 78.76 46.67 77.52 46.67 74.58C46.67 70.53 48.01 68.33 50.48 68.33C52.54 68.34 54.64 71.12 54.66 73.86C54.67 75.83 53.74 78.69 52.74 79.75C51.58 80.97 49.15 81.06 48.08 79.92ZM55.89 80.18C55.57 79.35 56.02 78.62 56.79 78.73C57.3 78.8 57.5 79.07 57.5 79.67C57.5 80.64 56.22 81.05 55.89 80.18ZM81.39 80.38C81.03 80.15 81.02 79.72 81.35 78.03C81.68 76.38 81.68 75.7 81.34 74.68C80.77 72.94 81.09 72.54 82.86 72.79C83.67 72.9 84.39 72.84 84.51 72.66C84.8 72.18 86.03 72.27 87.12 72.84C88.32 73.46 88.81 73.46 89.33 72.83C89.86 72.19 91.1 72.2 92.34 72.84C93.46 73.42 93.9 74.71 94.06 77.96C94.17 80.23 93.71 81.01 92.55 80.56C92.1 80.39 92 79.85 92 77.74C92 75.38 91.92 75.04 91.18 74.34C90.39 73.6 90.33 73.59 89.48 74.15C88.64 74.7 88.61 74.83 88.72 77.28C88.84 80.12 88.65 80.67 87.52 80.67C86.51 80.67 85.74 79.79 86.28 79.25C86.49 79.04 86.67 77.93 86.67 76.78C86.67 75 86.56 74.63 85.97 74.32C85.59 74.11 84.9 74.04 84.45 74.15C83.65 74.35 83.63 74.43 83.69 77.13C83.73 78.66 83.65 80.08 83.53 80.29C83.25 80.73 82.03 80.78 81.39 80.38ZM52.19 77.48C52.31 76.86 52.35 75.16 52.28 73.71C52.12 70.15 50.91 68.74 49.28 70.22C48.76 70.69 48.67 71.31 48.67 74.4C48.67 77.82 48.71 78.08 49.5 78.86C50.29 79.65 50.36 79.66 51.15 79.14C51.65 78.82 52.07 78.15 52.19 77.48ZM72.34 79.33C73.12 78.91 73.54 76.89 73.07 75.85C72.58 74.79 71.11 74.46 70.26 75.23C69.39 76.02 69.63 78.23 70.68 79.08C71.53 79.77 71.52 79.77 72.34 79.33ZM139.02 78.25C139.59 77.34 139.68 76.72 139.6 74.28C139.51 71.75 139.4 71.28 138.69 70.53C137.71 69.48 137.43 69.46 136.44 70.39C135.73 71.05 135.67 71.4 135.67 74.35C135.67 77.11 135.77 77.7 136.36 78.46C137.29 79.64 138.2 79.57 139.02 78.25ZM144.84 71.65C145.44 70.99 145.44 70.96 144.73 70.25L144 69.52L143.27 70.25C142.56 70.96 142.56 70.99 143.16 71.65C143.49 72.03 143.87 72.33 144 72.33C144.13 72.33 144.51 72.03 144.84 71.65ZM202.42 57.92C201.3 57.56 200.84 56.8 201.19 55.88C201.48 55.14 201.84 55.19 202.56 56.1C203.57 57.37 203.98 57.47 204.86 56.64C206.11 55.46 205.77 54.67 204 54.67C203.09 54.67 201.33 53.05 201.33 52.21C201.33 51.08 202.16 50.16 203.59 49.69C204.71 49.32 205.04 49.34 205.93 49.8C207.26 50.49 207.53 50.95 206.93 51.55C206.5 51.98 206.34 51.93 205.64 51.19C204.61 50.11 203.74 50.09 203.47 51.15C203.19 52.29 203.5 52.63 205.07 52.88C208.36 53.41 208.5 56.05 205.32 57.67C203.88 58.41 203.93 58.4 202.42 57.92ZM178.83 57.7C177.16 56.98 176.32 54.94 176.36 51.7C176.38 49.42 176.76 48.04 177.73 46.7C178.19 46.06 178.61 45.91 180.11 45.88C181.63 45.84 182.09 45.97 182.81 46.64C183.28 47.09 183.82 47.99 184 48.64C184.76 51.4 184.04 55.55 182.55 56.95C181.67 57.78 179.86 58.14 178.83 57.7ZM185.2 57.47C184.8 56.43 184.99 56 185.84 56C186.83 56 187.26 56.79 186.66 57.5C186.13 58.15 185.46 58.14 185.2 57.47ZM190.78 57.49C190.67 57.21 190.83 56.7 191.13 56.37C191.56 55.9 191.7 54.94 191.76 51.97C191.84 47.8 191.97 48.05 189.85 48.39C188.98 48.53 188.72 47.4 189.56 47.14C189.89 47.03 190.56 46.73 191.05 46.47C192.37 45.77 193.58 45.87 193.84 46.7C193.96 47.08 193.96 49.23 193.83 51.48C193.62 55.03 193.67 55.69 194.16 56.44C194.47 56.92 194.63 57.46 194.51 57.65C194.15 58.23 191.01 58.09 190.78 57.49ZM182.07 51.62C182.05 48.5 181.98 48.13 181.32 47.59C180.92 47.27 180.33 47 180 47C178.82 47 178.55 47.89 178.56 51.7C178.57 55.07 178.64 55.42 179.35 56.19L180.13 57.02L181.11 56.04C182.07 55.08 182.09 54.99 182.07 51.62ZM160.89 31.44C160.44 31 160.69 30.01 161.33 29.67C161.7 29.47 162 29.03 162 28.7C162 28.36 162.22 27.89 162.5 27.67C162.77 27.44 163 27.05 163 26.79C163 26.54 163.44 25.4 163.97 24.25C164.51 23.1 165.17 21.6 165.46 20.92C165.97 19.65 167.06 19.19 167.44 20.08C169.41 24.79 171.79 29.91 172.19 30.36C172.68 30.9 172.66 30.98 172.01 31.33C171.62 31.54 170.82 31.66 170.23 31.6C169.26 31.51 169.17 31.4 169.15 30.33C169.13 29.19 168.54 27.71 168.07 27.62C166.89 27.41 164.75 27.45 164.3 27.68C163.57 28.07 163.23 29.51 163.66 30.33C163.94 30.84 163.88 31.04 163.36 31.32C162.63 31.71 161.23 31.78 160.89 31.44ZM167.25 25.92C167.67 25.37 166.84 23.33 166.19 23.33C165.66 23.33 164.84 25.47 165.16 25.99C165.46 26.47 166.85 26.42 167.25 25.92Z" fill="#1e2749" fill-rule="evenodd"/>
</svg>
