<?xml version="1.0" encoding="UTF-8"?>
<svg xmlns="http://www.w3.org/2000/svg" viewBox="0 0 803 444.935" width="803" height="444.935" shape-rendering="geometricPrecision">
<path d="M354.75 425.86C354.74 425.61 354.75 382.19 354.78 329.37L354.83 233.33L353.99 233.12C353.52 233.01 329.36 232.91 300.29 232.9C252.28 232.88 247.43 232.93 247.22 233.45C247.1 233.77 247.34 234.88 247.75 235.92C248.16 236.95 249.53 240.56 250.79 243.94C253.33 250.73 253.34 251.22 251 251.42C249.75 251.52 249.63 251.44 248.97 249.96C248.23 248.29 247.56 246.57 246.53 243.73C246.19 242.78 245.77 242 245.6 242C245.42 242 245.28 281.47 245.28 331.53L245.28 421.07L244.26 422.05C243.69 422.59 242.96 423.04 242.62 423.04C241.86 423.04 231.36 411.06 222.29 399.85C221.18 398.49 219.44 396.37 218.42 395.15C217.4 393.92 213.24 388.41 209.19 382.89C201.76 372.76 200.7 371.64 198.56 371.58C198.06 371.57 196.68 371.26 195.49 370.89C193.6 370.3 193.22 370.02 192.43 368.61C189.4 363.23 188.34 361.2 188.34 360.76C188.34 360.11 189.13 360.12 190.7 360.77C192.29 361.44 194 361.64 194 361.16C194 360.95 193.13 359.39 192.06 357.69C187.05 349.67 180.66 337.93 177.97 331.79C174.27 323.35 171.62 316.75 170.63 313.54C170.29 312.43 169.39 309.64 168.62 307.33C166.66 301.38 164.45 292.14 162.82 283.06C161.23 274.2 160.45 263.14 160.73 253.31C160.99 243.74 161.54 234.15 161.84 233.65C162.45 232.67 160.72 233.06 153.24 235.57C148.78 237.07 145 238.22 144.83 238.12C144.67 238.02 144.54 236.98 144.54 235.81C144.54 234.35 144.37 233.54 143.98 233.23C143.54 232.86 140.93 232.82 131.66 233.03C125.2 233.18 119.83 233.37 119.74 233.46C119.65 233.55 121.97 236.04 124.9 239C130.71 244.85 131.27 245.61 130.67 246.73C130.27 247.49 129.2 248.2 128.46 248.2C128.22 248.2 124.61 244.82 120.43 240.69C113.33 233.66 112.77 233.19 111.64 233.3C110.56 233.41 109.55 234.48 101.3 244.37C93.76 253.4 91.98 255.34 91.14 255.44C89.76 255.59 89.06 254.93 89.06 253.49C89.06 252.46 90.18 250.95 96.73 243.12C100.94 238.07 104.39 233.81 104.39 233.65C104.39 233.26 85.71 232.87 67.09 232.87C54.08 232.87 52.18 232.8 51.67 232.3C50.89 231.52 50.93 229.7 51.74 229.28C52.09 229.1 64.6 228.85 79.55 228.73C97.36 228.58 106.84 228.37 107.09 228.13C107.35 227.87 104.56 224.84 98.26 218.52C90.92 211.16 89.06 209.1 89.06 208.34C89.06 206.65 89.41 206.23 90.82 206.23C92.05 206.23 92.73 206.83 101.69 215.76C106.95 221 111.42 225.19 111.63 225.06C111.83 224.93 115.49 220.64 119.75 215.53C127.03 206.78 127.56 206.23 128.71 206.23C130.11 206.23 131.22 207.5 130.79 208.62C130.65 208.99 127.18 213.31 123.07 218.22C118.96 223.14 115.58 227.42 115.56 227.73C115.53 228.24 117.12 228.34 129.32 228.62C145.3 228.99 144.54 229.13 144.54 225.7C144.54 224 144.63 223.75 145.25 223.75C145.65 223.75 149.38 224.9 153.56 226.31C157.73 227.72 161.3 228.91 161.49 228.96C162.13 229.11 162.73 227.22 163.14 223.75C163.91 217.29 168.49 196.22 170.8 188.52C171.67 185.63 174.66 176.14 175.57 173.37C177.86 166.39 184.02 150.81 187.68 142.72C189.57 138.54 196.44 124.7 197.3 123.35C198.38 121.63 198.26 121.23 196.86 121.87C195.48 122.5 194.97 121.9 195.59 120.35C195.86 119.7 196.2 118.68 196.36 118.08C196.52 117.48 197.05 115.91 197.54 114.61C198.37 112.43 198.62 112.12 200.78 110.72C206.53 107 206.76 106.78 209.16 102.86C211.26 99.43 215.19 93.68 223.73 81.53C226.88 77.06 238.74 61.44 240.66 59.23C241.59 58.17 241.92 58.04 243.58 58.04C244.62 58.04 245.71 58.2 246.01 58.39C246.49 58.7 246.58 68.02 246.74 137.5L246.92 216.26L247.76 214.44C248.22 213.43 248.73 212.37 248.89 212.07C249.25 211.39 251.72 211.14 252.4 211.7C252.91 212.13 252.34 213.98 248.76 223.47C248.02 225.43 247.47 227.4 247.54 227.85L247.65 228.67L300.57 228.73C333.34 228.77 353.73 228.66 354.13 228.45C354.75 228.12 354.78 223.42 354.78 127.92C354.78 20.07 354.87 24.91 352.98 29.84C352.04 32.3 350.96 33.58 349.82 33.58C348.6 33.58 347.85 33.2 347.85 32.59C347.85 32.08 350.06 26.92 353.05 20.44C353.75 18.93 354.42 17.42 354.54 17.06C354.85 16.14 358.81 16.14 359.59 17.06C360.27 17.85 366.46 31.49 366.46 32.19C366.46 33.48 364.33 34.06 363.06 33.12C362.72 32.87 361.9 31.36 361.23 29.77C360.56 28.17 359.82 26.8 359.59 26.73C358.96 26.52 358.97 227.79 359.6 228.42C359.93 228.75 368.29 228.86 395 228.86C429.48 228.85 429.98 228.84 430.7 228.13C431.1 227.72 431.43 227.03 431.43 226.57C431.44 225.27 432.35 222.63 433.53 220.5C435.88 216.25 439.29 213.33 444.38 211.22C446.72 210.24 447.33 210.15 451.51 210.11C456.54 210.08 458.86 210.64 462.74 212.86C467.25 215.43 471.36 221.03 472.38 226C472.68 227.44 473.07 228.31 473.52 228.55C473.95 228.78 478.25 228.87 485.21 228.78L496.22 228.63L503.47 226.19C507.46 224.85 511.03 223.74 511.41 223.75C512.15 223.75 512.4 224.46 512.55 227.03L512.64 228.67L547.2 228.74C574.92 228.8 581.83 228.72 582.15 228.34C582.44 227.99 580.41 225.76 573.6 218.99C567.59 213.01 564.54 209.71 564.27 208.91C563.72 207.24 564.31 206.23 565.84 206.23C566.86 206.23 568.08 207.3 576.55 215.76C581.81 221 586.28 225.23 586.48 225.16C586.68 225.08 589.92 221.33 593.67 216.81C602.45 206.25 602.47 206.23 603.97 206.23C605.46 206.23 606.27 207.52 605.63 208.87C605.41 209.32 601.93 213.63 597.9 218.45C592.95 224.36 590.6 227.45 590.66 227.94C590.75 228.67 591.06 228.67 629.05 228.77C672.69 228.87 669.04 229.15 669.05 225.74C669.05 224.4 669.19 223.74 669.5 223.73C670.49 223.69 690.57 230.52 690.46 230.86C690.4 231.06 688.56 231.84 686.36 232.58C684.16 233.33 679.5 234.92 675.99 236.11C672.49 237.31 669.49 238.21 669.33 238.11C669.17 238.02 669.05 236.97 669.05 235.78C669.05 234.02 668.91 233.56 668.34 233.25C667.25 232.66 594.59 232.73 594.59 233.31C594.59 233.56 597.13 236.32 600.24 239.45C603.77 243 605.9 245.42 605.9 245.88C605.9 247.03 604.31 248.32 603.28 248C602.82 247.86 599.14 244.48 595.11 240.49C588.81 234.24 587.64 233.24 586.68 233.24C585.67 233.24 584.85 234.1 577.76 242.63C567.57 254.9 567.01 255.5 565.69 255.5C564.46 255.5 563.72 254.12 564.19 252.7C564.35 252.23 567.89 247.73 572.07 242.72C576.25 237.7 579.57 233.45 579.45 233.26C579.33 233.06 565.91 232.91 545.85 232.89L512.46 232.85L512.46 234.93C512.46 238.65 512.52 238.64 503.78 235.67L496.22 233.09L485.35 232.95C479.37 232.86 474.07 232.9 473.57 233.02C472.94 233.18 472.68 233.5 472.68 234.11C472.68 234.58 472.36 235.93 471.98 237.11C469.52 244.71 462.39 250.73 454.61 251.78C443.65 253.24 433.16 245.52 431.27 234.61C431.1 233.61 430.82 233.19 430.23 233.05C429.78 232.94 413.65 232.9 394.38 232.95L359.34 233.05L359.31 329.1C359.29 381.92 359.17 425.41 359.04 425.73C358.76 426.48 354.8 426.6 354.75 425.86ZM240.81 330.72C240.88 266.81 240.8 247.44 240.47 247.55C240.01 247.71 239.96 247.8 238.77 250.47C237.99 252.22 236.85 252.93 235.6 252.45C234.53 252.03 234.62 251.08 236.15 246.83C240.95 233.46 240.95 233.47 239.96 233.09C239.64 232.97 228.14 232.87 214.41 232.87L189.44 232.87L189.44 234.99C189.44 238.8 189.92 238.8 178.33 234.88C169 231.73 167.11 230.96 167.56 230.54C167.9 230.23 187.75 223.75 188.39 223.75C189.12 223.75 189.37 224.47 189.52 227.03L189.62 228.67L214.46 228.77C235.15 228.84 239.41 228.78 239.98 228.35C240.65 227.87 240.56 227.55 237.86 220.41C236.31 216.32 235.05 212.61 235.05 212.16C235.06 211.43 235.25 211.34 236.66 211.34C237.54 211.34 238.44 211.55 238.66 211.82C238.99 212.21 241.63 219.17 241.63 219.64C241.63 219.71 241.79 219.67 242 219.55C242.58 219.18 242.49 64.97 241.9 64.98C241.35 64.99 231.07 78.36 225.77 85.96C221.14 92.59 213.14 104.49 212.23 106.11C211.47 107.43 211.48 107.45 213.92 111.51C214.64 112.71 215.74 114.62 216.37 115.75L217.51 117.8L216.02 122.14C214.46 126.69 213.98 127.62 213.46 127.1C213.28 126.92 211.98 124.49 210.57 121.7C209.16 118.9 207.85 116.46 207.66 116.27C207.15 115.75 205.56 117.11 204.49 118.99C201.38 124.45 195.23 136.59 191.95 143.72C190.57 146.72 185.39 159.09 184.35 161.88C183.06 165.31 182.54 166.7 181.98 168.17C181.21 170.21 179.73 174.4 179.06 176.48C178.74 177.48 177.88 180.11 177.15 182.32C176.43 184.53 175.71 186.83 175.56 187.43C175.4 188.03 175.01 189.51 174.67 190.71C170.12 207.14 167.65 220.21 165.63 238.53C165.43 240.33 165.25 247.97 165.23 255.5C165.19 266.66 165.3 270.06 165.82 273.93C167.56 286.9 169.97 297.71 173.49 308.43C175.22 313.72 177.91 320.76 179.54 324.3C180.1 325.51 180.94 327.4 181.42 328.5C182.95 332.01 189.59 344.97 191.8 348.76C192.98 350.77 194.12 352.74 194.34 353.14C194.56 353.54 195 354.28 195.32 354.78C195.64 355.28 197.03 357.47 198.4 359.65C200.9 363.61 200.91 363.61 201.56 362.8C201.92 362.36 202.21 361.69 202.21 361.32C202.21 360.95 202.44 360.11 202.73 359.45C203.01 358.79 203.52 357.26 203.86 356.06C204.96 352.14 205.26 351.47 205.85 351.57C206.15 351.63 207.34 353.5 208.49 355.72L210.56 359.76L210 362.11C208.98 366.35 208.47 368.44 207.86 370.77C207.33 372.86 207.32 373.16 207.83 373.94C209.22 376.05 219.45 389.68 221.98 392.78C230.18 402.83 232.3 405.38 235.96 409.63C238.16 412.19 240.13 414.23 240.34 414.16C240.6 414.07 240.75 387.79 240.81 330.72ZM109.68 299.32L105.67 299.12L105.56 297.38L105.44 295.64L109.42 291.54C117.08 283.65 118.52 281.25 118.32 276.77C118.28 276.03 117.86 275.13 117.19 274.39C116.18 273.25 116.02 273.2 113.45 273.2C111.19 273.2 110.45 273.37 108.7 274.29C107.56 274.89 106.55 275.3 106.46 275.2C106.37 275.11 106.19 274.51 106.06 273.88C105.86 272.99 105.99 272.53 106.65 271.78C108.68 269.46 115.43 268.55 118.82 270.15C121.54 271.42 123.38 274.3 123.37 277.26C123.36 278.49 122.55 281.32 121.85 282.55C120.56 284.81 117.32 288.82 114.65 291.44C110.39 295.64 110.39 295.65 117.67 295.65C124.17 295.65 124.56 295.76 124.56 297.72C124.56 299.41 123.71 299.67 118.46 299.59C115.84 299.55 111.89 299.43 109.68 299.32ZM461.31 299.39L456.32 299.28L456.09 298.35C455.58 296.32 456.01 296.02 459.36 296.02C462.02 296.02 462.48 295.92 462.81 295.31C463.04 294.87 463.19 290.83 463.19 284.71C463.19 276.59 463.09 274.79 462.68 274.63C462.4 274.52 460.98 275.03 459.54 275.76C456.45 277.31 455.79 277.24 455.95 275.33C456.06 274.06 456.26 273.86 459.72 271.7C462.93 269.69 463.59 269.41 465.24 269.39C466.63 269.38 467.18 269.52 467.34 269.95C467.47 270.26 467.57 276.25 467.57 283.25L467.57 295.98L470.39 296.09C473.09 296.19 473.22 296.24 473.56 297.19C473.83 297.98 473.76 298.34 473.23 298.92C472.64 299.57 472.17 299.66 469.42 299.58C467.7 299.54 464.05 299.45 461.31 299.39ZM279.37 298.78C279.26 298.5 279.22 297.8 279.29 297.23L279.41 296.2L282.69 296.02L285.98 295.83L286.07 285.16C286.15 276.74 286.07 274.48 285.71 274.48C285.46 274.48 284.11 275.06 282.71 275.76C281.32 276.46 279.96 277.04 279.7 277.04C279.39 277.04 279.23 276.53 279.23 275.58C279.23 274.13 279.26 274.1 282.9 271.73C286.38 269.46 286.68 269.34 288.47 269.44L290.36 269.55L290.55 282.69C290.66 289.92 290.78 295.87 290.83 295.92C290.87 295.97 292.04 296.02 293.43 296.02C295.25 296.02 296.13 296.18 296.54 296.59C297.25 297.3 297.25 297.48 296.54 298.49C295.98 299.29 295.83 299.3 287.77 299.3C281.03 299.3 279.53 299.21 279.37 298.78ZM438.02 295.7C437.81 295.3 437.64 293.31 437.64 291.29L437.64 287.62L433.85 287.62C429.6 287.62 429.11 287.38 429.31 285.36L429.42 284.15L433.05 284.05C435.05 283.99 436.9 283.76 437.16 283.55C437.49 283.27 437.64 282.04 437.64 279.38C437.64 275.21 437.9 274.72 439.93 275.11C441.41 275.39 441.77 276.39 441.58 279.75C441.33 284.21 441.12 283.97 445.26 283.97C449.37 283.97 450.24 284.34 449.85 285.91C449.49 287.35 448.69 287.62 444.84 287.62L441.41 287.62L441.52 291C441.64 295.06 441.24 296.15 439.57 296.31C438.71 296.39 438.31 296.23 438.02 295.7ZM90.04 289.21C89.9 289.07 89.79 288.33 89.79 287.56L89.79 286.16L95.22 286.16C99.75 286.16 100.73 286.26 101.13 286.74C101.54 287.23 101.53 287.49 101.07 288.29C100.53 289.26 100.53 289.26 95.41 289.36C92.6 289.42 90.18 289.35 90.04 289.21ZM262.31 289.2C262.18 289.07 262.07 288.32 262.07 287.55L262.07 286.14L267.64 286.24L273.2 286.34L273.32 287.37C273.54 289.27 273.05 289.45 267.56 289.45C264.81 289.45 262.45 289.34 262.31 289.2ZM584.94 285.95C584.19 285.2 584.21 283.27 584.98 282.13C585.31 281.64 587.73 279.02 590.36 276.31C595.89 270.6 597.26 268.34 597.3 264.93C597.33 262.4 596.45 261.02 594.37 260.3C592.5 259.66 589.39 260.19 587.31 261.51C586.48 262.03 585.64 262.36 585.45 262.24C585.25 262.12 585.1 261.39 585.1 260.6C585.1 258.79 585.96 257.96 588.87 256.98C596.25 254.48 602.68 258.31 602.15 264.87C601.84 268.78 600.02 271.73 594.04 278.04C591.75 280.47 590.57 281.98 590.7 282.33C590.88 282.78 591.95 282.88 596.95 282.88L603 282.88L603.4 283.77C603.73 284.49 603.69 284.85 603.21 285.6L602.6 286.53L594.06 286.53C586.78 286.53 585.43 286.44 584.94 285.95ZM568.58 283.21C568.03 282.89 567.94 282.25 567.94 278.66L567.94 274.48L564.32 274.48C562.33 274.48 560.44 274.38 560.12 274.26C559.73 274.11 559.55 273.57 559.55 272.62L559.55 271.2L563.13 271.2C565.42 271.2 566.92 271.03 567.31 270.74C567.81 270.37 567.94 269.51 568.02 266.27C568.12 262.36 568.15 262.25 568.98 262.13C569.45 262.06 570.23 262.11 570.71 262.23C571.57 262.44 571.59 262.53 571.59 266.41C571.59 269.23 571.73 270.49 572.07 270.77C572.33 270.99 574.16 271.21 576.13 271.27C580.26 271.39 580.97 271.83 579.86 273.53C579.26 274.45 579.13 274.48 575.41 274.48L571.59 274.48L571.59 278.47C571.59 282.19 571.53 282.51 570.78 283.04C569.84 283.69 569.46 283.72 568.58 283.21ZM663.76 275.39C660.97 274.02 659.5 271.77 658.81 267.78C658.06 263.46 659.31 258.88 661.82 256.77C664.37 254.63 665.48 254.41 673.61 254.41C680.78 254.41 681.05 254.43 681.28 255.15C681.42 255.59 681.27 256.27 680.93 256.8C680.43 257.56 680.06 257.69 678.34 257.69C677.24 257.69 676.35 257.85 676.35 258.05C676.35 258.25 676.88 259.27 677.53 260.33C678.63 262.12 678.71 262.48 678.71 265.54C678.72 269.63 678.53 270.32 676.73 272.58C674.67 275.2 672.18 276.31 668.43 276.29C666.16 276.28 665.2 276.1 663.76 275.39ZM670.75 272.63C673.89 271.45 675.41 267.91 674.56 263.77C673.46 258.43 670.23 256.42 666.13 258.51C663.79 259.71 663.02 261.4 663.03 265.36C663.03 267.78 663.2 268.78 663.79 269.92C665.09 272.43 668.14 273.62 670.75 272.63ZM457.17 246.75C462.56 244.9 468 238.81 468.08 234.51L468.11 233.05L451.78 232.96L435.45 232.86L435.45 233.74C435.45 235.21 437.44 239.63 438.91 241.42C440.76 243.67 442.6 245.09 445.18 246.24C448.89 247.9 453.29 248.09 457.17 246.75ZM467.86 228.42C469.14 227.13 467.11 222.49 463.83 219.21C460.09 215.47 456.31 214.07 450.68 214.32C447.71 214.45 446.98 214.63 444.57 215.8C440.32 217.87 437.37 221.24 435.99 225.62C434.88 229.12 433.61 228.86 451.6 228.86C463.42 228.86 467.53 228.74 467.86 228.42ZM376.11 69.55C375.17 68.12 375.55 67.37 377.34 67.13C378.24 67.01 379.24 66.58 379.71 66.12C380.5 65.33 380.51 65.13 380.62 53.21C380.69 45.21 380.86 40.94 381.12 40.63C381.67 39.97 383.81 40.03 384.5 40.72C385 41.22 385.07 42.73 385.07 51.76C385.07 62.92 384.76 66.29 383.57 67.96C382.55 69.39 380.33 70.45 378.35 70.45C377 70.45 376.59 70.28 376.11 69.55ZM395.33 61.48C394.44 60.98 393.49 60.28 393.22 59.94C390.26 56.2 389.84 48.99 392.25 43.5C393.5 40.67 394.04 40.15 395.73 40.15C397.6 40.15 397.77 40.75 396.6 43.23C395.11 46.37 394.42 50.34 394.89 53C395.42 56.05 396.33 57.72 397.89 58.56C399.19 59.25 399.21 59.25 400.44 58.54C402.36 57.42 402.75 56.25 402.96 51.1L403.14 46.54L404.77 46.42C407.12 46.25 407.34 46.72 407.34 51.81C407.34 56.47 407.77 57.73 409.67 58.75C410.56 59.22 410.8 59.2 411.95 58.58C415.78 56.52 416.49 48.74 413.35 43.13C412.05 40.81 412.14 40.15 413.75 40.15C415.56 40.15 416.34 40.66 417.24 42.43C420.29 48.4 420.14 55.45 416.9 59.46C414.06 62.97 408.54 63.37 405.73 60.26C404.85 59.29 404.19 59.29 403.6 60.26C402.28 62.44 398.08 63.06 395.33 61.48ZM380.9 35.69C380.09 34.53 380.16 32.6 381.04 32.13C382.86 31.16 385.44 32.23 385.44 33.96C385.44 36.03 382.04 37.33 380.9 35.69Z" fill="#1e2749" fill-rule="evenodd"/>
</svg>
