<?xml version="1.0" encoding="UTF-8"?>
<svg xmlns="http://www.w3.org/2000/svg" viewBox="0 0 699 387" width="699" height="387" shape-rendering="geometricPrecision">
<path d="M462.02 369.45C461.32 368.56 461.34 367.67 462.08 366.75C462.33 366.43 464.66 366.33 471.66 366.33C480.04 366.33 480.94 366.39 481.4 366.92C482.33 368 482.34 368.28 481.47 369.31L480.61 370.33L471.66 370.33L462.72 370.33L462.02 369.45ZM453.88 361.39C453.1 360.53 453.17 358.78 454 358.34C454.44 358.1 460.3 357.98 471.71 357.98C490.51 357.98 490.33 357.96 490.33 359.97C490.33 362.02 490.51 362 471.56 362C455.39 362 454.41 361.97 453.88 361.39ZM451.62 353.64C451.44 353.53 451.34 352.57 451.4 351.51L451.5 349.58L459.78 349.64C466.84 349.7 468.17 349.63 468.86 349.18L469.67 348.65L469.68 320.58C469.69 299.02 469.78 292.38 470.09 292C470.32 291.72 474.99 289.25 480.48 286.5C485.97 283.75 490.51 281.33 490.58 281.13C490.64 280.92 490.12 280.6 489.43 280.41C488.74 280.22 485.99 279.29 483.33 278.35C476.31 275.86 473.13 274.74 470.5 273.84C469.22 273.4 465.99 272.27 463.33 271.33C460.68 270.4 457.45 269.27 456.17 268.82C445.8 265.24 445.5 265.12 445.01 264.25C444.65 263.61 444.61 263.14 444.84 262.49C445.11 261.76 445.95 261.28 449.83 259.62C452.4 258.52 455.4 257.21 456.5 256.69C457.6 256.18 460.9 254.74 463.83 253.49C466.77 252.25 469.29 251.12 469.44 250.99C469.74 250.73 469.76 220.98 469.46 220.68C469.36 220.58 407.87 220.5 332.81 220.5L196.35 220.5L195.59 219.74L194.83 218.98L194.75 179.07C194.68 149.86 194.76 138.92 195.04 138.25L195.41 137.33L224 137.33C247.67 137.33 252.65 137.26 252.96 136.88C253.24 136.55 253.31 125.94 253.25 97.3L253.17 58.17L226.12 58.08L199.07 58L198.38 59.16C197.09 61.35 195.79 60.63 192.93 56.17C192.11 54.88 190.62 52.56 189.62 51C188.62 49.44 187.14 47.15 186.34 45.9C185.4 44.44 184.7 43.67 184.36 43.74C184.07 43.8 182.94 45.61 181.81 47.84C180.69 50.03 178.08 55.13 176 59.17C173.93 63.2 171.43 68.06 170.45 69.97C167.87 75.03 166.93 75.82 165.35 74.25C164.93 73.84 162.19 70.2 159.26 66.17C156.33 62.13 153.69 58.65 153.4 58.42C152.99 58.09 147.02 58 126.12 58C105.12 58 99.29 58.09 99.02 58.42C98.83 58.65 98.28 59.33 97.8 59.93C96.51 61.53 94.72 62.33 92.43 62.33C88.45 62.32 86.23 59.86 86.42 55.67C86.62 51.26 88.58 49.34 92.83 49.35C95.74 49.37 97.1 50 98.5 52L99.56 53.5L127.19 53.67C142.4 53.76 155.09 53.96 155.4 54.11C155.71 54.26 156.22 54.79 156.54 55.28C158.14 57.74 166.09 68.33 166.34 68.33C166.49 68.33 167.06 67.47 167.6 66.42C168.14 65.36 170 61.73 171.74 58.33C173.48 54.94 176.59 48.87 178.65 44.83C180.71 40.8 182.64 37.31 182.93 37.08C184.38 35.95 185.52 36.78 188.09 40.83C190.02 43.9 191.76 46.61 194.46 50.75L196.36 53.67L224.44 53.67C245.85 53.67 252.63 53.57 252.93 53.27C253.21 52.99 253.33 51.31 253.33 47.84C253.33 40.36 253.92 39.94 259.67 43.33C261.53 44.43 263.11 45.33 263.19 45.33C263.26 45.33 264.26 45.91 265.41 46.61C266.56 47.31 268.32 48.34 269.33 48.89C270.34 49.45 273.12 51.03 275.5 52.4C282.65 56.53 293.36 62.69 294.46 63.32C299.44 66.13 309.25 71.82 309.58 72.08C309.81 72.26 310.22 72.32 310.49 72.22C310.93 72.05 311.01 69.17 311.08 49.26L311.17 26.5L313.17 26.5L315.17 26.5L315.33 50.9C315.5 74.81 315.51 75.31 316.17 75.81C316.53 76.09 316.93 76.32 317.05 76.32C317.17 76.33 319.16 77.46 321.47 78.83C323.78 80.21 325.73 81.33 325.8 81.33C325.87 81.33 327.83 82.46 330.16 83.83C332.48 85.21 334.43 86.33 334.49 86.33C334.55 86.33 336.12 87.23 337.97 88.33C339.83 89.43 341.4 90.33 341.47 90.33C341.54 90.33 343.5 91.46 345.82 92.83C348.15 94.21 350.11 95.33 350.18 95.33C350.26 95.33 351.05 95.78 351.95 96.33L353.57 97.33L449.07 97.33C539.6 97.33 544.59 97.3 545.07 96.75C545.35 96.43 545.68 95.72 545.81 95.17C546.41 92.63 548.42 91.33 551.78 91.33C554.06 91.33 555.84 91.9 556.72 92.89C558.97 95.46 558.9 99.69 556.54 102.28C554.09 104.98 548.93 105.02 546.53 102.37L545.9 101.67L509.96 101.67L474.01 101.67L473.85 115.75C473.76 123.5 473.6 132.3 473.49 135.33C473.29 141.14 473.13 141.71 471.54 142.2C471.15 142.33 469.63 142.98 468.17 143.67C466.7 144.35 462.95 146 459.83 147.33C453.99 149.82 453.24 150.22 453.41 150.74C453.47 150.91 455.46 151.72 457.84 152.54C463.58 154.52 465.91 155.33 471.67 157.35C474.32 158.28 477.55 159.41 478.83 159.85C480.12 160.29 482.67 161.18 484.5 161.84C492.37 164.64 496.55 166.08 497.26 166.24C498.1 166.43 499 167.52 499 168.35C499 168.64 498.66 169.19 498.25 169.57C497.84 169.95 492.32 172.85 486 176.01C479.68 179.16 474.39 181.92 474.25 182.12C474.11 182.33 474.01 198.38 474.04 217.78C474.08 251.86 474.06 253.09 473.46 253.65C473.11 253.97 470.46 255.24 467.56 256.47C464.66 257.7 461.31 259.16 460.13 259.71C458.94 260.26 456.97 261.14 455.74 261.66C454.51 262.18 453.5 262.81 453.5 263.06C453.5 263.3 454.47 263.84 455.67 264.26C459.64 265.65 466.47 268.04 468.83 268.85C470.12 269.29 472.67 270.18 474.5 270.84C478.49 272.26 485.6 274.74 488.83 275.84C490.12 276.28 492.2 277.02 493.47 277.48C494.73 277.95 496.03 278.33 496.36 278.33C497.16 278.33 499 279.93 498.99 280.61C498.98 280.92 498.75 281.47 498.48 281.83C498.21 282.2 492.62 285.2 486.07 288.5L474.17 294.5L474.08 321.74C474 348.92 474 348.98 474.68 349.34C475.13 349.58 477.99 349.69 482.93 349.66C487.1 349.64 490.69 349.63 490.92 349.64C491.49 349.68 491.49 353.29 490.91 353.52C490.3 353.75 451.99 353.87 451.62 353.64ZM513.12 300.83C512.7 299.75 513.26 299.33 515.1 299.33C517.97 299.33 518 299.26 518 291.71C518 284.41 517.97 284.32 515.46 285.65C513.65 286.61 513 286.39 513 284.84C513 283.73 513.16 283.56 515.58 282C517.97 280.47 518.33 280.34 520.25 280.34L522.33 280.33L522.33 289.43C522.33 296.07 522.44 298.64 522.73 298.93C522.95 299.15 523.86 299.33 524.74 299.33C526.48 299.33 527.09 299.92 526.33 300.84C525.72 301.58 513.4 301.57 513.12 300.83ZM530.56 301.11C530.28 300.83 530.26 279.58 530.54 278.86C530.78 278.21 533.98 278.11 534.6 278.73C534.88 279.02 535 280.97 535 285.4C535 288.85 535.11 291.67 535.25 291.67C535.39 291.67 536.51 290.47 537.75 289L540.01 286.33L542.01 286.33C544.9 286.33 544.9 286.82 542.04 289.84C540.73 291.21 539.67 292.57 539.67 292.86C539.67 293.15 540.77 295.01 542.12 297C543.87 299.57 544.48 300.72 544.22 300.98C544.03 301.17 542.93 301.33 541.79 301.33L539.72 301.33L537.82 298.33C536.77 296.68 535.71 295.33 535.46 295.33C535.11 295.33 535 295.95 535 297.93C535 299.51 534.84 300.69 534.6 300.93C534.18 301.35 530.94 301.5 530.56 301.11ZM546.89 301.11C546.77 300.99 546.67 300.54 546.67 300.11C546.67 299.43 546.83 299.33 547.98 299.33C548.7 299.33 549.38 299.19 549.49 299.02C549.6 298.84 549.16 298.01 548.52 297.17C547.17 295.4 546.82 294.06 546.87 290.83C546.93 286.08 548.52 283.16 552 281.41C554.09 280.36 554.29 280.32 557.5 280.43C562.71 280.62 564.87 281.8 566.68 285.47C567.61 287.37 567.74 287.98 567.77 290.56C567.82 293.8 567.1 295.99 565.45 297.72C564.38 298.84 564.66 299.33 566.36 299.33C567.81 299.33 568.37 299.98 567.66 300.84C567.34 301.23 566.37 301.33 563.13 301.33L559 301.33L559 300.36C559 299.69 559.46 298.84 560.48 297.65C561.3 296.69 562.2 295.23 562.48 294.4C563.09 292.63 563.13 288.65 562.56 287.08C561.65 284.6 559.2 283.11 556.49 283.42C553.26 283.78 551.66 286.22 551.67 290.78C551.68 294.25 552.17 295.62 554.3 298.09C555.94 299.99 556 300.12 555.46 300.71C554.97 301.25 554.38 301.33 551 301.33C548.86 301.33 547.01 301.23 546.89 301.11ZM469.25 215.9C469.57 215.69 469.67 211.73 469.67 197.96C469.67 187.26 469.79 180.05 469.99 179.69C470.16 179.36 474.89 176.81 480.49 174.03C486.09 171.25 490.67 168.83 490.67 168.66C490.67 168.48 490.63 168.33 490.58 168.33C490.54 168.33 488.77 167.73 486.67 166.99C481.63 165.22 474.75 162.82 471.83 161.82C470.55 161.38 468 160.48 466.17 159.82C464.33 159.17 461.78 158.27 460.5 157.84C459.22 157.4 455.99 156.27 453.33 155.33C450.68 154.38 448 153.49 447.38 153.34C445.94 152.97 444.67 151.76 444.67 150.76C444.67 149.95 446.01 148.33 446.67 148.33C446.88 148.33 447.82 147.98 448.77 147.54C449.72 147.11 453.5 145.47 457.17 143.9C460.83 142.32 464.58 140.67 465.5 140.23C466.42 139.79 467.48 139.32 467.87 139.2C469.74 138.62 469.68 139.34 469.59 119.8L469.5 101.83L411.8 101.75L354.09 101.66L351.96 102.77C350.79 103.37 346.76 105.65 343 107.82C339.24 109.99 335.7 112.03 335.13 112.35C334.56 112.67 331.04 114.7 327.3 116.86C323.56 119.01 319.34 121.44 317.92 122.24L315.33 123.71L315.33 152.37L315.33 181.03L314.52 181.85C313.59 182.78 312.76 182.88 311.81 182.19C311.18 181.73 311.16 181 311.08 154.19C311 132.11 310.9 126.67 310.56 126.67C310.32 126.67 308.74 127.49 307.03 128.5C305.32 129.51 303.88 130.33 303.82 130.33C303.76 130.33 301.81 131.46 299.49 132.83C297.17 134.21 295.21 135.33 295.14 135.33C295.07 135.33 293.49 136.23 291.64 137.33C289.79 138.43 288.22 139.33 288.16 139.33C288.1 139.33 286.15 140.46 283.82 141.83C281.5 143.21 279.54 144.33 279.47 144.33C279.39 144.33 277.44 145.46 275.13 146.83C272.83 148.21 270.88 149.33 270.81 149.33C270.73 149.33 269.16 150.23 267.31 151.33C265.45 152.43 263.89 153.33 263.83 153.33C263.77 153.33 262.25 154.2 260.44 155.25C255.73 158.01 255.42 158.13 254.46 157.5C254.02 157.22 253.64 156.95 253.6 156.91C253.56 156.87 253.45 153.38 253.35 149.17L253.17 141.5L226.17 141.5L199.17 141.5L199.08 178.5C199.01 209.35 199.07 215.56 199.45 215.83C200 216.24 468.62 216.3 469.25 215.9ZM336.34 212.24C335.64 211.88 335.15 210.73 333.17 204.82C330.14 195.74 329 191.99 329 191.07C329 190.39 329.15 190.33 331.14 190.33L333.28 190.33L333.79 191.75C335.27 195.86 338.33 205.34 338.33 205.8C338.33 206.66 338.94 206.41 339.51 205.32C339.79 204.77 341.06 201.2 342.32 197.41L344.62 190.5L346.52 190.4C347.57 190.34 348.56 190.43 348.72 190.59C348.97 190.84 347.44 196.06 346.28 198.9C346.07 199.41 345.23 201.78 344.42 204.17C343.6 206.55 342.67 209.25 342.35 210.17C341.98 211.22 341.48 211.98 340.97 212.25C339.93 212.78 337.4 212.77 336.34 212.24ZM313.52 211.8C311.96 211.24 311.68 210.87 311.67 209.42C311.67 208.45 311.77 208.33 312.6 208.33C313.11 208.33 313.7 208.5 313.91 208.71C314.12 208.92 315.33 209.16 316.6 209.25C318.87 209.41 318.94 209.39 320.13 208.29C320.84 207.63 321.42 206.72 321.54 206.08C321.72 205.13 321.6 204.85 320.56 203.87C319.46 202.83 319.17 202.73 316.83 202.61C314.1 202.48 313.68 202.21 313.67 200.6C313.67 199.43 314.48 199 316.73 198.99C318.7 198.98 319.62 198.45 320.42 196.83C321.01 195.65 320.74 194.65 319.62 193.87C318.18 192.86 315.63 193.32 313.6 194.95C312.8 195.59 312.33 195.15 312.33 193.73C312.33 192.4 312.68 192.05 315.12 190.93C316.93 190.09 320.77 190.12 322.73 190.99C324.63 191.83 325.19 192.48 325.68 194.39C326.17 196.37 325.68 198.06 324.3 199.07C323.13 199.95 323.05 200.86 324.12 201.13C324.56 201.24 325.29 201.82 325.75 202.42C328.14 205.56 326.64 209.63 322.38 211.53C320.91 212.19 320.06 212.33 317.71 212.31C316.09 212.3 314.26 212.08 313.52 211.8ZM302.17 205.36L300.5 205.17L300.4 203.8L300.3 202.43L302.57 202.22C306.16 201.88 307.8 201.96 308.59 202.52C309.58 203.21 309.53 204.13 308.46 204.98C307.54 205.7 305.86 205.8 302.17 205.36ZM509.22 180.11C509.1 179.99 509 179.25 509 178.46C509 177.22 509.24 176.75 510.9 174.77C511.94 173.52 513.43 171.81 514.2 170.96C516.07 168.92 517.33 166.37 517.33 164.65C517.33 163.58 517.12 163.07 516.36 162.31C515.05 161 513.54 161.01 511.46 162.32C510.6 162.87 509.77 163.23 509.62 163.14C509.46 163.04 509.33 162.38 509.33 161.67C509.33 160.41 509.38 160.36 511.5 159.36C515.07 157.67 519.22 158.03 521.73 160.24C522.05 160.52 522.48 161.54 522.7 162.51C523.45 165.87 522.04 168.87 517.47 173.66C515.84 175.36 514.99 176.5 515.11 176.82C515.27 177.21 516.14 177.33 519.4 177.41L523.5 177.5L523.61 178.44C523.82 180.26 523.54 180.33 516.18 180.33C512.48 180.33 509.34 180.23 509.22 180.11ZM527.68 179.69C527.31 179 527.17 157.8 527.54 156.86C527.78 156.21 530.98 156.11 531.6 156.73C531.88 157.02 532 158.97 532 163.4C532 166.85 532.11 169.67 532.25 169.67C532.39 169.67 533.51 168.47 534.75 167L537.01 164.33L539.01 164.33C541.9 164.33 541.9 164.82 539.04 167.84C537.73 169.21 536.67 170.56 536.67 170.84C536.67 171.11 537.81 173.05 539.2 175.14C540.65 177.32 541.68 179.2 541.61 179.55C541.52 180.04 541.13 180.19 539.71 180.27C537.51 180.39 537.26 180.19 534.77 176.27C533.75 174.65 532.71 173.33 532.46 173.33C532.1 173.33 532 174.01 532 176.28C532 179.75 531.62 180.33 529.4 180.33C528.38 180.33 527.93 180.17 527.68 179.69ZM543.89 180.11C543.77 179.99 543.67 179.31 543.67 178.61C543.67 177.35 543.68 177.33 544.98 177.33C545.7 177.33 546.38 177.19 546.49 177.02C546.6 176.84 546.16 176.01 545.52 175.17C544.17 173.4 543.82 172.06 543.87 168.83C543.93 164.08 545.52 161.16 549 159.41C551.09 158.36 551.29 158.32 554.5 158.43C559.71 158.62 561.87 159.8 563.68 163.47C564.61 165.37 564.74 165.98 564.77 168.56C564.82 171.82 564.1 173.99 562.42 175.75C561.37 176.85 561.63 177.25 563.5 177.39C564.72 177.49 564.84 177.59 564.93 178.53C565.09 180.17 564.55 180.37 560.12 180.26L556.17 180.17L556.07 178.8C555.98 177.59 556.14 177.22 557.47 175.67C558.29 174.7 559.2 173.23 559.48 172.4C560.09 170.63 560.13 166.65 559.56 165.08C558.65 162.6 556.2 161.11 553.49 161.42C550.26 161.78 548.66 164.22 548.67 168.78C548.68 172.19 549.19 173.68 551.13 175.88C552.71 177.67 553.11 179.09 552.27 179.93C551.84 180.36 544.3 180.52 543.89 180.11ZM263.59 148.6C264.74 147.9 265.74 147.33 265.82 147.33C265.9 147.33 266.76 146.86 267.74 146.29C270.06 144.91 280.09 139.13 282 138.06C282.82 137.6 284.98 136.35 286.78 135.28C288.59 134.21 290.12 133.33 290.19 133.33C290.27 133.33 291.84 132.43 293.69 131.33C295.55 130.23 297.11 129.33 297.17 129.33C297.23 129.33 298.83 128.42 300.72 127.3C302.62 126.18 304.99 124.81 306 124.25C309.07 122.54 310.31 121.69 310.75 121C310.97 120.63 311.47 120.33 311.85 120.33C312.23 120.33 312.98 119.88 313.52 119.32C314.19 118.62 314.7 118.35 315.18 118.47C315.56 118.57 316.37 118.33 317.01 117.94C318.07 117.3 327.77 111.69 330.2 110.32C330.77 109.99 334.3 107.97 338.04 105.82C341.77 103.66 345.51 101.53 346.33 101.08C348.66 99.8 348.89 99.49 347.96 98.91C347.22 98.45 339.02 93.75 336.36 92.26C335.71 91.89 333.92 90.86 332.41 89.96C330.89 89.07 329.59 88.33 329.52 88.33C329.45 88.33 327.51 87.21 325.2 85.83C322.89 84.46 320.93 83.33 320.84 83.33C320.75 83.33 319.68 82.72 318.45 81.97C316.75 80.93 316 80.65 315.29 80.79C314.78 80.89 314.27 80.83 314.16 80.66C314.05 80.48 313.67 80.33 313.31 80.33C312.56 80.33 311.43 79.29 311.02 78.23C310.77 77.57 306.78 75.12 296.86 69.55C295.93 69.02 293.92 67.86 292.41 66.96C290.89 66.07 289.58 65.33 289.5 65.33C289.41 65.33 288.4 64.76 287.26 64.06C285.57 63.03 277.26 58.22 272.17 55.33C271.24 54.81 260.99 48.89 258.93 47.7C258.35 47.36 257.93 47.29 257.76 47.5C257.62 47.68 257.54 71.28 257.59 99.94L257.67 152.05L259.59 150.96C260.64 150.36 262.44 149.3 263.59 148.6ZM268.5 138.92C268.42 138.69 268.31 137.82 268.26 137L268.17 135.5L266.5 135.33C264.98 135.18 264.82 135.09 264.73 134.25C264.63 133.37 264.69 133.33 266.08 133.33C267.94 133.33 268.33 132.91 268.33 130.91L268.33 129.29L269.42 129.4C270.44 129.49 270.51 129.58 270.61 130.99C270.74 132.91 271.12 133.33 272.72 133.33C275.17 133.33 274.71 135.22 272.22 135.4L270.83 135.5L270.73 136.99C270.67 137.81 270.46 138.68 270.27 138.91C269.82 139.45 268.69 139.46 268.5 138.92ZM588.88 114.6C586.31 112.68 586.37 107.44 588.97 105.9C589.6 105.53 590.65 105.33 592.01 105.33C593.97 105.33 594.15 105.4 595.37 106.63C596.58 107.84 596.67 108.05 596.67 109.88C596.66 112.17 595.91 113.66 594.25 114.67C592.75 115.58 590.15 115.55 588.88 114.6ZM599.75 114.58C598.62 113.38 598.33 112.17 598.33 108.63L598.33 105.3L599.75 105.4L601.17 105.5L601.26 109.05C601.37 113.21 601.74 113.9 603.27 112.77C604.13 112.12 604.17 111.95 604.26 108.7L604.36 105.3L605.76 105.4L607.17 105.5L607.17 110.13C607.17 114.11 607.09 114.81 606.61 115.11C606.2 115.37 605.81 115.35 605.19 115.01C604.52 114.65 604.16 114.64 603.49 114.95C602.11 115.57 600.53 115.42 599.75 114.58ZM610.82 114.65C610.29 114.07 610.14 113.33 610.05 110.79C609.95 108.12 609.84 107.61 609.3 107.32C608.47 106.87 608.49 105.6 609.33 105.08C609.7 104.85 610 104.35 610 103.98C610 103.39 610.18 103.31 611.25 103.4C612.18 103.47 612.53 103.67 612.62 104.17C612.77 104.98 613.26 105.32 614.26 105.33C615.91 105.34 615.43 107.2 613.73 107.4C612.85 107.5 612.83 107.56 612.74 110.08C612.63 112.87 612.57 112.77 614.79 113.48C615.35 113.66 615.36 113.74 614.92 114.42C614.2 115.51 611.72 115.64 610.82 114.65ZM593.14 112.31C594.07 111.2 594.25 109.77 593.62 108.56C593.11 107.6 592.69 107.34 591.59 107.34C589.84 107.33 589.1 110.22 590.33 112.25C591.16 113.61 592.02 113.63 593.14 112.31ZM572.92 107.75C572.3 107.05 566 88.3 566 87.15C566 86.37 566.09 86.33 568.14 86.33L570.28 86.33L570.79 87.75C571.82 90.6 574.92 100.2 575.15 101.25C575.45 102.61 575.86 102.88 576.34 101.99C576.54 101.61 577.81 97.97 579.16 93.9L581.62 86.5L583.52 86.4C584.57 86.34 585.56 86.43 585.72 86.59C585.97 86.84 584.44 92.06 583.28 94.9C583.07 95.41 582.26 97.71 581.48 100C578.49 108.73 578.77 108.33 575.67 108.33C573.96 108.33 573.31 108.2 572.92 107.75ZM553.43 100.66C554.64 99.71 555.16 97.98 554.67 96.5C554.18 95.04 553.2 94.33 551.64 94.33C550.32 94.33 549.6 94.92 549.01 96.47C548.57 97.62 549.37 100.46 550.28 100.99C551.18 101.52 552.52 101.38 553.43 100.66ZM79.56 98.11C79.43 97.99 79.33 95.73 79.33 93.09L79.33 88.3L80.75 88.4L82.17 88.5L82.26 92.95C82.32 95.95 82.23 97.56 81.97 97.87C81.57 98.35 79.95 98.51 79.56 98.11ZM84.56 98.11C84.43 97.99 84.33 95.74 84.33 93.11L84.33 88.33L85.43 88.33C86.04 88.33 86.7 88.5 86.9 88.7C87.16 88.96 87.46 88.96 87.98 88.68C88.37 88.47 89.39 88.34 90.25 88.4C91.6 88.49 91.91 88.65 92.57 89.63C93.24 90.63 93.33 91.18 93.33 94.18C93.33 97.86 93.07 98.48 91.6 98.28C90.87 98.17 90.83 98 90.67 94.8C90.5 91.33 90.12 90.33 89.01 90.33C87.76 90.33 87.33 91.4 87.33 94.54C87.33 96.42 87.18 97.68 86.93 97.93C86.51 98.36 84.92 98.48 84.56 98.11ZM66.92 89.75C66.3 89.05 60 70.3 60 69.15C60 68.37 60.09 68.33 62.14 68.33L64.28 68.33L64.79 69.75C65.82 72.6 68.92 82.2 69.15 83.25C69.45 84.61 69.86 84.88 70.34 83.99C70.54 83.61 71.81 79.97 73.16 75.9L75.62 68.5L77.52 68.4C78.57 68.34 79.56 68.43 79.72 68.59C79.97 68.84 78.44 74.06 77.28 76.9C77.07 77.41 76.26 79.71 75.48 82C72.49 90.73 72.77 90.33 69.67 90.33C67.96 90.33 67.31 90.2 66.92 89.75ZM79.68 86.85C79.46 86.59 79.33 85.95 79.39 85.44C79.49 84.58 79.62 84.5 80.83 84.5C82.05 84.5 82.18 84.58 82.27 85.44C82.41 86.58 81.84 87.33 80.83 87.33C80.42 87.33 79.9 87.12 79.68 86.85ZM266.56 73.11C266.43 72.99 266.33 72.54 266.33 72.11L266.33 71.33L271.51 71.33C275.82 71.33 276.72 71.42 276.88 71.84C276.99 72.11 276.89 72.56 276.66 72.84C276.33 73.23 275.3 73.33 271.51 73.33C268.91 73.33 266.68 73.23 266.56 73.11ZM94.43 58.66C95.64 57.71 96.16 55.98 95.67 54.5C95.18 53.03 94.2 52.33 92.62 52.33C91.23 52.33 90.2 53.31 89.84 54.98C89.6 56.06 90.39 58.27 91.24 58.92C92.06 59.53 93.46 59.42 94.43 58.66ZM100.14 40.53C99.73 38.86 100.03 38.51 102 38.4C105.01 38.23 105 38.26 105 30.77C105 23.4 104.97 23.32 102.46 24.65C100.65 25.61 100 25.39 100 23.84C100 22.73 100.16 22.56 102.58 21C104.97 19.47 105.33 19.34 107.25 19.34L109.33 19.33L109.33 28.46C109.33 35.45 109.43 37.67 109.76 37.94C109.99 38.13 110.93 38.34 111.84 38.4C113.38 38.49 113.51 38.57 113.61 39.44C113.82 41.25 113.5 41.33 106.63 41.33L100.35 41.33L100.14 40.53ZM117.68 40.69C117.31 40 117.17 18.8 117.54 17.86C117.78 17.21 120.98 17.11 121.6 17.73C121.88 18.02 122 19.97 122 24.4C122 27.85 122.11 30.67 122.25 30.67C122.39 30.67 123.51 29.47 124.75 28L127.01 25.33L129.01 25.33C131.9 25.33 131.9 25.82 129.04 28.84C127.73 30.21 126.67 31.56 126.67 31.84C126.67 32.11 127.81 34.05 129.2 36.14C130.65 38.32 131.68 40.2 131.61 40.55C131.52 41.04 131.13 41.19 129.71 41.27C127.51 41.39 127.26 41.19 124.77 37.27C123.75 35.65 122.71 34.33 122.46 34.33C122.1 34.33 122 35.01 122 37.28C122 40.75 121.62 41.33 119.4 41.33C118.38 41.33 117.93 41.17 117.68 40.69ZM133.89 41.11C133.77 40.99 133.67 40.31 133.67 39.61C133.67 38.35 133.68 38.33 134.98 38.33C135.7 38.33 136.38 38.19 136.49 38.02C136.6 37.84 136.16 37.01 135.52 36.17C134.17 34.4 133.82 33.06 133.87 29.83C133.93 25.08 135.52 22.16 139 20.41C141.09 19.36 141.29 19.32 144.5 19.43C149.71 19.62 151.87 20.8 153.68 24.47C154.61 26.37 154.74 26.98 154.77 29.56C154.82 32.82 154.1 34.99 152.42 36.75C151.37 37.85 151.63 38.25 153.5 38.39C154.72 38.49 154.84 38.59 154.93 39.53C155.09 41.17 154.55 41.37 150.12 41.26L146.17 41.17L146.07 39.8C145.98 38.59 146.14 38.22 147.47 36.67C148.29 35.7 149.2 34.23 149.48 33.4C150.09 31.63 150.13 27.65 149.56 26.08C148.65 23.6 146.2 22.11 143.49 22.42C140.26 22.78 138.66 25.22 138.67 29.78C138.68 33.19 139.19 34.68 141.13 36.88C142.71 38.67 143.11 40.09 142.27 40.93C141.84 41.36 134.3 41.52 133.89 41.11ZM336.83 32.78C335.23 31.93 334.44 31.05 333.66 29.24C333.03 27.79 332.93 26.93 332.93 23.19C332.93 19.5 333.04 18.55 333.66 17C334.68 14.42 335.71 13.2 337.72 12.2C339.2 11.47 339.91 11.33 342.35 11.33C344.77 11.33 345.39 11.45 346.12 12.02C347.17 12.85 347.24 13.68 346.33 14.5C345.78 15 345.52 15.04 344.82 14.72C343.47 14.11 340.98 14.25 339.73 15.01C338.58 15.71 337.35 17.9 337.34 19.29C337.33 19.96 337.44 20.04 338.08 19.82C338.5 19.68 340.03 19.5 341.5 19.44C343.8 19.34 344.35 19.42 345.5 20.08C348.22 21.63 349.16 25.72 347.53 28.93C346.59 30.77 345.69 31.66 343.76 32.63C342.02 33.5 338.36 33.58 336.83 32.78ZM356.92 32.75C356.3 32.05 350 13.3 350 12.15C350 11.37 350.09 11.33 352.14 11.33L354.28 11.33L354.79 12.75C355.82 15.6 358.92 25.2 359.15 26.25C359.45 27.61 359.86 27.88 360.34 26.99C360.54 26.61 361.81 22.97 363.16 18.9L365.62 11.5L367.52 11.4C368.57 11.34 369.56 11.43 369.72 11.59C369.97 11.84 368.44 17.06 367.28 19.9C367.07 20.41 366.26 22.71 365.48 25C362.49 33.73 362.77 33.33 359.67 33.33C357.96 33.33 357.31 33.2 356.92 32.75ZM321.2 31.81C321.09 31.52 321 30.03 321 28.51C321 25.28 321.05 25.33 317.65 25.33C315.49 25.33 315.33 25.28 315.14 24.53C314.7 22.75 314.97 22.51 317.74 22.33C319.15 22.24 320.45 22.02 320.64 21.83C320.82 21.65 321.02 20.15 321.07 18.5L321.17 15.5L322.83 15.5L324.5 15.5L324.6 18.48C324.65 20.12 324.85 21.65 325.04 21.89C325.25 22.14 326.41 22.34 327.95 22.4L330.5 22.5L330.6 23.53C330.74 24.96 330.17 25.29 327.32 25.4L324.83 25.5L324.74 28.48C324.68 30.12 324.48 31.66 324.28 31.9C323.75 32.53 321.45 32.46 321.2 31.81ZM342.33 29.39C344.26 27.46 344.33 24 342.46 22.78C341.43 22.1 338.91 22.34 337.95 23.21C337.35 23.76 337.29 24.07 337.49 25.81C337.96 29.98 340.14 31.58 342.33 29.39Z" fill="#1e2749" fill-rule="evenodd"/>
</svg>
