<?xml version="1.0" encoding="UTF-8"?>
<svg xmlns="http://www.w3.org/2000/svg" viewBox="0 0 441 257" width="441" height="257" shape-rendering="geometricPrecision">
<path d="M357.77 237.26C357.09 236.36 355.67 233.32 355.67 232.75C355.67 232.43 356 232.01 356.42 231.83C357.11 231.52 357.17 231.26 357.26 228.08L357.36 224.67L356.39 224.67C355.85 224.67 355.23 224.44 355 224.17C354.77 223.89 354.32 223.67 353.99 223.67C353.44 223.67 353.37 223.13 353.18 217.42C352.92 209.48 352.88 206.66 352.99 204.17C353.14 200.79 353.14 200.74 353.15 130.17C353.17 64.26 353.14 61.42 352.55 59.5C351.37 55.68 349.98 53.36 347.15 50.52C344.48 47.84 342.34 46.5 338.67 45.23C337.32 44.76 327.03 44.7 237.83 44.63C144.39 44.57 138.38 44.6 136.5 45.14C129.33 47.22 124.78 51.47 122.19 58.5C121.47 60.45 121.35 66.28 121.33 100.5L121.31 137.83L147.41 137.83L173.5 137.83L173.67 135.67C173.82 133.62 173.88 133.5 174.67 133.5L175.5 133.5L175.76 159.49L176.02 185.47L175 186.49L173.99 187.5L115.97 187.53C59.29 187.56 57.94 187.55 57.14 186.92L56.33 186.28L56.33 163.73C56.33 151.01 56.19 140.96 56.02 140.69C55.78 140.31 54.6 140.24 49.72 140.3C43.22 140.39 42.33 140.21 42.33 138.82L42.33 138L48.93 138C53.62 138 55.65 137.88 55.93 137.6C56.15 137.38 56.33 136.32 56.33 135.24C56.33 133.31 56.34 133.29 57.25 133.39C58.12 133.5 58.17 133.6 58.33 135.67L58.5 137.83L82.65 137.92C95.93 137.97 106.92 137.88 107.07 137.73C107.22 137.58 107.38 118.79 107.43 95.98L107.52 54.5L108.87 50.83C110.68 45.94 112.04 43.52 114.89 40.11C115.68 39.17 116.33 38.23 116.33 38.02C116.33 37.82 116.67 37.52 117.08 37.36C117.5 37.21 118.75 36.39 119.88 35.54C121.25 34.51 122.25 34 122.92 34C123.64 34 124.09 33.75 124.5 33.12L125.08 32.23L233.62 32.47C348.05 32.72 344.57 32.67 348.66 34.15C350.68 34.88 355.07 37.31 355.56 37.97C355.92 38.45 355.97 38.44 356.18 37.92C356.3 37.6 356.61 37.33 356.87 37.33C357.43 37.33 357.47 37.73 356.95 38.25C356.66 38.54 357.02 39.19 358.41 40.9C360.68 43.7 362.04 46.13 363.02 49.17C363.44 50.45 363.94 51.71 364.14 51.97C364.39 52.3 364.55 74.51 364.67 128.13L364.83 203.83L365.59 203.94C366.48 204.07 366.25 204.67 365.31 204.67C364.72 204.67 364.67 204.92 364.67 207.68C364.67 210.49 364.72 210.71 365.42 210.99L366.17 211.3L365.42 211.52C364.7 211.74 364.68 211.87 364.59 217.44L364.5 223.14L363.37 223.9C362.62 224.41 361.74 224.67 360.78 224.67L359.33 224.67L359.33 227.81C359.33 231.51 359.47 232 360.54 232C361.57 232 361.52 232.37 360.05 235.15C358.78 237.55 358.32 237.98 357.77 237.26ZM372.33 223.86C372.33 223.57 372.57 223.33 372.86 223.33C373.45 223.33 373.35 224.05 372.73 224.26C372.51 224.33 372.33 224.15 372.33 223.86ZM374.67 223.85C374.67 223.57 374.82 223.33 375 223.33C375.18 223.33 375.33 223.47 375.33 223.65C375.33 223.82 375.18 224.05 375 224.17C374.82 224.28 374.67 224.14 374.67 223.85ZM377.21 224.1C376.84 223.73 376.98 223.33 377.5 223.33C377.77 223.33 378 223.47 378 223.65C378 224.07 377.48 224.37 377.21 224.1ZM379.33 223.86C379.33 223.57 379.57 223.33 379.86 223.33C380.45 223.33 380.35 224.05 379.73 224.26C379.51 224.33 379.33 224.15 379.33 223.86ZM381.33 223.86C381.33 223.57 381.57 223.33 381.86 223.33C382.45 223.33 382.35 224.05 381.73 224.26C381.51 224.33 381.33 224.15 381.33 223.86ZM383.33 223.86C383.33 223.57 383.57 223.33 383.86 223.33C384.45 223.33 384.35 224.05 383.73 224.26C383.51 224.33 383.33 224.15 383.33 223.86ZM385.55 224.1C385.17 223.73 385.32 223.33 385.83 223.33C386.11 223.33 386.33 223.47 386.33 223.65C386.33 224.07 385.81 224.37 385.55 224.1ZM388.21 224.1C387.84 223.73 387.98 223.33 388.5 223.33C388.77 223.33 389 223.47 389 223.65C389 224.07 388.48 224.37 388.21 224.1ZM390.33 223.86C390.33 223.57 390.57 223.33 390.86 223.33C391.45 223.33 391.35 224.05 390.73 224.26C390.51 224.33 390.33 224.15 390.33 223.86ZM392.33 223.86C392.33 223.57 392.57 223.33 392.86 223.33C393.45 223.33 393.35 224.05 392.73 224.26C392.51 224.33 392.33 224.15 392.33 223.86ZM394.33 223.86C394.33 223.57 394.57 223.33 394.86 223.33C395.45 223.33 395.35 224.05 394.73 224.26C394.51 224.33 394.33 224.15 394.33 223.86ZM396.56 224.12C396.13 223.68 396.34 223.33 397.03 223.33C397.42 223.33 397.66 223.51 397.59 223.73C397.43 224.22 396.87 224.43 396.56 224.12ZM399.21 224.1C398.84 223.73 398.98 223.33 399.5 223.33C399.77 223.33 400 223.47 400 223.65C400 224.07 399.48 224.37 399.21 224.1ZM401.33 223.86C401.33 223.57 401.57 223.33 401.86 223.33C402.15 223.33 402.33 223.51 402.26 223.73C402.05 224.35 401.33 224.45 401.33 223.86ZM403.33 223.86C403.33 223.57 403.57 223.33 403.86 223.33C404.45 223.33 404.35 224.05 403.73 224.26C403.51 224.33 403.33 224.15 403.33 223.86ZM405.33 223.86C405.33 223.57 405.57 223.33 405.86 223.33C406.45 223.33 406.35 224.05 405.73 224.26C405.51 224.33 405.33 224.15 405.33 223.86ZM407.67 223.86C407.67 223.57 407.9 223.33 408.19 223.33C408.78 223.33 408.68 224.05 408.06 224.26C407.84 224.33 407.67 224.15 407.67 223.86ZM362.32 222.19C362.61 221.84 362.66 220.25 362.51 216.27C362.4 213.28 362.32 209.41 362.33 207.67C362.34 205.92 362.32 170.45 362.29 128.83C362.26 69.16 362.16 52.99 361.83 52.33C361.6 51.88 361.3 50.98 361.17 50.33C360.81 48.6 359.07 45.04 357.74 43.33C355.35 40.26 352.29 38 350.51 38C349.91 38 349.67 37.82 349.67 37.38C349.67 36.55 347.69 35.82 343.67 35.18C340.88 34.73 327.54 34.67 232.38 34.66L124.27 34.66L123.05 35.73C122.38 36.31 121.83 37.1 121.83 37.48C121.83 38.04 121.66 38.15 120.9 38.06C120.11 37.96 119.57 38.34 117.55 40.4C113.85 44.16 111.45 48.76 110.31 54.29C109.7 57.27 109.67 59.19 109.67 97.71L109.67 138.02L114.25 137.93L118.83 137.83L119 98.83C119.12 69.91 119.27 59.66 119.56 59.17C119.77 58.8 120.35 57.5 120.84 56.28C122.88 51.25 126.74 47.17 131.83 44.67C136.84 42.22 135.2 42.31 175.67 42.33C214.54 42.36 213.64 42.4 212.49 40.75C211.97 40.01 211.87 40 204.33 40C197.01 40 196.68 39.97 196.33 39.33C196.13 38.96 196.06 38.5 196.18 38.32C196.31 38.11 199.27 37.99 204.19 38.01C208.48 38.03 212.14 37.95 212.33 37.84C212.52 37.72 212.67 37.34 212.67 36.98C212.67 36.04 213.64 36.16 216.16 37.42C217.56 38.11 218.31 38.68 218.25 39C218.2 39.27 217.27 39.98 216.17 40.56C215.08 41.14 214.13 41.78 214.06 41.99C213.97 42.26 230.5 42.35 275.99 42.32C316.5 42.29 338.17 42.4 338.43 42.61C338.65 42.79 339.51 43.2 340.33 43.52C345.23 45.43 350.19 49.73 352.46 54.04C353.18 55.39 354.12 56.89 354.56 57.36L355.36 58.23L355.34 139.91C355.34 184.84 355.42 221.84 355.53 222.13C355.82 222.87 361.71 222.92 362.32 222.19ZM393.52 220C392.19 217.38 392.02 216.33 392.93 216.33C393.85 216.33 394.33 215.65 394.33 214.35C394.32 212.02 394.08 211.67 392.46 211.67C391.66 211.67 391 211.52 391 211.33C391 211.15 391.6 211 392.34 211C394.2 211 394.44 210.25 394.2 205.17C393.97 200.37 393.97 201.18 394.21 195.67C394.32 193.19 394.3 158.14 394.16 117.77L393.92 44.37L393.21 44.27C392.17 44.12 392.14 42.72 393.15 40.83C393.62 39.95 394 38.88 394 38.45C394 37.91 394.19 37.67 394.62 37.67C395.06 37.67 395.64 38.46 396.62 40.42C397.38 41.93 398 43.29 398 43.43C398 43.58 397.55 43.89 396.99 44.12L395.99 44.54L396.04 121.52C396.07 163.86 396.11 202.4 396.14 207.17L396.19 215.83L397.09 216.27C397.59 216.51 398 216.92 398 217.17C398 218 395.98 221.65 395.33 222C394.79 222.29 394.56 222.04 393.52 220ZM83.8 218.03C80.25 215.87 80.17 210.79 83.66 209C85.95 207.83 89.8 208.38 90.67 210C91.23 211.05 90.19 211.23 88.46 210.38C86.68 209.52 86.36 209.51 84.85 210.23C83.2 211.01 82.43 213.01 83.12 214.68C83.86 216.44 84.72 217.06 86.48 217.08C87.65 217.1 88.21 216.92 88.84 216.33C89.87 215.36 89.89 215 88.9 215C88.04 215 87.33 214.43 87.33 213.75C87.33 213.41 87.84 213.33 89.42 213.4L91.5 213.5L91.61 214.6C91.7 215.53 91.48 215.94 90.23 217.19C88.82 218.6 88.67 218.67 86.79 218.67C85.46 218.66 84.5 218.46 83.8 218.03ZM108.52 218.14C108.11 217.72 108 216.81 108 213.62C108 211.42 108.16 209.33 108.35 208.98C108.64 208.43 109.06 208.33 111.16 208.33C112.52 208.33 113.72 208.49 113.84 208.68C114.24 209.33 113.29 209.97 111.76 210.07C108.79 210.26 109.03 212.33 112.02 212.33C112.9 212.33 113.73 212.51 113.86 212.72C114.25 213.33 112.99 214 111.44 214C110.21 214 109.99 214.11 109.81 214.81C109.39 216.47 109.7 216.82 111.73 217C113.92 217.2 114.42 217.53 113.52 218.19C112.61 218.86 109.2 218.82 108.52 218.14ZM156.5 218.28C155.3 217.61 154.28 216.52 153.8 215.38C152.34 211.88 154.84 208.33 158.78 208.33C161.36 208.33 163.87 209.79 163.03 210.8C162.7 211.19 162.38 211.14 160.99 210.46C159.03 209.52 159.04 209.52 157.37 210.19C155.79 210.82 155.17 212.07 155.43 214.06C155.7 216.04 156.83 217.05 158.79 217.08C159.98 217.1 160.54 216.92 161.17 216.33C162.2 215.36 162.22 215 161.23 215C160.39 215 159.67 214.43 159.67 213.77C159.67 213.12 163.45 213.18 164 213.83C164.6 214.55 163.91 216.04 162.29 217.5C161.12 218.55 160.81 218.67 159.08 218.66C158.03 218.65 156.87 218.48 156.5 218.28ZM180.92 218.31C180.41 218.01 180.33 217.4 180.33 213.55C180.33 210.56 180.46 209 180.73 208.73C181.23 208.24 185.87 208.19 186.18 208.68C186.58 209.34 185.62 209.97 184.06 210.07C182.57 210.16 182.5 210.21 182.5 211.17C182.5 212.13 182.56 212.17 184.17 212.27C185.08 212.33 185.98 212.52 186.17 212.71C186.72 213.26 185.35 214 183.77 214L182.33 214L182.33 215.5L182.33 217L184.15 217C186.06 217 186.65 217.38 185.99 218.18C185.51 218.75 181.84 218.84 180.92 218.31ZM198.74 218.15C197.09 216.99 196.49 214.24 197.55 212.66C198.45 211.3 199.04 211 200.82 211C202.74 211 203.75 211.56 204.52 213.03C205.15 214.25 205.67 214.01 205.67 212.5C205.67 211.47 205.78 211.34 206.8 211.15C207.42 211.03 208.74 211.07 209.72 211.22L211.5 211.5L211.67 214.13C211.81 216.42 211.92 216.79 212.54 217.02C212.94 217.17 213.57 217.11 214.04 216.88C214.76 216.52 214.84 216.24 214.93 213.91C215.02 211.42 215.06 211.33 215.85 211.33C216.65 211.33 216.67 211.39 216.67 213.93C216.67 216.33 216.6 216.6 215.69 217.59C214.87 218.49 214.46 218.67 213.27 218.66C210.88 218.65 210 217.52 210 214.43C210 212.48 209.95 212.33 209.25 212.34C207.87 212.35 207.6 212.81 207.38 215.54C207.19 217.87 207.09 218.17 206.5 218.17C205.97 218.17 205.81 217.91 205.73 216.92C205.66 216.1 205.46 215.67 205.15 215.67C204.88 215.67 204.67 215.88 204.67 216.13C204.67 216.39 204.14 217.06 203.49 217.63C202.57 218.44 202 218.67 200.9 218.67C200.12 218.67 199.15 218.43 198.74 218.15ZM47.89 218.11C47.77 217.99 47.67 216.27 47.67 214.29C47.67 210.81 47.64 210.66 46.83 210.14C46.38 209.84 46 209.31 46 208.96C46 208.4 46.27 208.33 48.48 208.33C49.84 208.33 51.04 208.46 51.13 208.61C51.23 208.76 51.76 208.82 52.32 208.74C53.22 208.61 53.33 208.68 53.33 209.43C53.33 210.98 53.57 211.17 55.25 211.06C57.55 210.9 58.37 211.85 58.57 214.9C58.68 216.55 58.59 217.34 58.25 217.8C57.44 218.87 57 218.12 57 215.67C57 213.67 56.9 213.3 56.26 212.85C55.35 212.22 54.97 212.2 54.17 212.79C53.7 213.13 53.5 213.84 53.36 215.71C53.19 217.88 53.09 218.17 52.5 218.17C51.87 218.17 51.83 217.91 51.74 214.08L51.65 210L50.68 210C49.42 210 49.27 210.53 49.37 214.43C49.42 216.14 49.34 217.72 49.21 217.93C48.94 218.37 48.24 218.46 47.89 218.11ZM60.22 218.11C60.1 217.99 60 216.4 60 214.59C60 211.36 60.02 211.29 60.75 211.39C61.45 211.49 61.51 211.68 61.6 214.45C61.66 216.34 61.55 217.57 61.31 217.87C60.88 218.38 60.56 218.45 60.22 218.11ZM62.9 218.12C62.77 217.99 62.67 216.43 62.67 214.64L62.67 211.39L65.2 211.15C67.62 210.93 67.77 210.95 68.58 211.76C70.1 213.28 69.92 219.15 68.38 218.2C68.15 218.06 68 217.04 68 215.67C68 213.67 67.9 213.3 67.26 212.85C66.35 212.22 65.97 212.2 65.17 212.79C64.7 213.13 64.5 213.84 64.36 215.7C64.21 217.55 64.04 218.18 63.65 218.26C63.37 218.31 63.03 218.25 62.9 218.12ZM71.22 218.11C71.1 217.99 71 215.81 71 213.27C71 209.34 71.08 208.62 71.53 208.44C72.32 208.14 72.66 208.93 72.66 211.12L72.67 213.07L73.84 212.03C75.09 210.94 75.53 210.82 76.33 211.33C76.75 211.59 76.63 211.82 75.67 212.64C75.02 213.19 74.4 213.65 74.29 213.65C74.17 213.66 73.97 213.93 73.85 214.24C73.69 214.66 74.06 215.19 75.2 216.18C76.16 217.02 76.68 217.7 76.54 217.94C76.13 218.59 75.36 218.39 74.23 217.33C73 216.18 72.67 216.1 72.67 216.93C72.67 217.88 71.74 218.63 71.22 218.11ZM92.67 217.78C92.67 217.47 93.2 216.09 93.85 214.7C94.5 213.3 95.36 211.45 95.76 210.58C96.85 208.23 97.69 208.42 99 211.33C99.46 212.34 100.3 214.14 100.88 215.33C101.61 216.86 101.82 217.62 101.59 217.92C101 218.64 100.36 218.37 99.87 217.21C99.28 215.8 98.84 215.51 97.17 215.47C95.59 215.43 95.12 215.74 94.5 217.22C94 218.42 92.67 218.82 92.67 217.78ZM103.89 218.11C103.77 217.99 103.67 216.27 103.67 214.29C103.67 210.81 103.64 210.66 102.83 210.14C102.38 209.84 102 209.31 102 208.96C102 208.41 102.27 208.33 104.31 208.33C106.93 208.33 107.53 208.76 106.31 209.75C105.55 210.37 105.52 210.56 105.62 213.67C105.72 216.96 105.4 218.33 104.54 218.33C104.31 218.33 104.01 218.23 103.89 218.11ZM120.22 218.11C120.1 217.99 120 216.19 120 214.1C120 210.37 119.99 210.31 119.17 210C118.66 209.81 118.33 209.42 118.33 209.01C118.33 208.4 118.55 208.33 120.65 208.33C123.31 208.33 123.87 208.77 122.55 209.82C121.69 210.5 121.67 210.63 121.67 214.03C121.67 216.31 121.53 217.67 121.27 217.93C120.81 218.39 120.54 218.43 120.22 218.11ZM124.33 213.48C124.33 208.63 124.33 208.62 125.08 208.73C125.66 208.81 125.86 209.09 125.94 209.92C126.04 210.99 126.06 211 127.83 211C129 211 129.8 211.18 130.13 211.51C131.43 212.81 131.74 217.41 130.57 218.13C129.69 218.68 129.34 217.88 129.34 215.26C129.33 213.35 129.23 212.97 128.65 212.66C127.06 211.8 126 213.11 126 215.96C126 217.53 125.58 218.33 124.77 218.33C124.43 218.33 124.33 217.24 124.33 213.48ZM132.28 215.52C132.25 213.95 132.21 212.4 132.19 212.08C132.18 211.72 132.45 211.46 132.93 211.39C133.69 211.28 133.69 211.31 133.6 214.72C133.51 217.69 133.42 218.17 132.92 218.27C132.4 218.37 132.33 218.05 132.28 215.52ZM135.33 214.86L135.33 211.39L137.49 211.16C140.43 210.84 141.11 211.07 141.8 212.59C142.56 214.28 142.43 217.6 141.57 218.13C140.69 218.68 140.34 217.88 140.34 215.26C140.33 213.35 140.23 212.97 139.65 212.66C138.06 211.8 137 213.11 137 215.96C137 217.53 136.58 218.33 135.77 218.33C135.44 218.33 135.33 217.49 135.33 214.86ZM143.33 213.5C143.33 208.63 143.33 208.62 144.08 208.73C144.75 208.82 144.84 209.05 144.93 210.75C144.99 211.8 145.12 212.67 145.24 212.67C145.35 212.67 145.94 212.28 146.56 211.81C147.3 211.25 147.9 211.03 148.34 211.17C149.28 211.47 149.17 211.74 147.67 212.85C145.94 214.14 145.97 214.88 147.82 216.33C149.44 217.6 149.56 218.11 148.3 218.27C147.76 218.33 147.2 218.07 146.68 217.52C145.7 216.47 145.25 216.45 144.83 217.41C144.65 217.83 144.24 218.21 143.92 218.27C143.38 218.37 143.33 217.97 143.33 213.5ZM165 217.73C165 217.37 165.53 215.97 166.19 214.62C169.68 207.41 169.48 207.45 172.28 213.37C173.56 216.08 174.24 217.9 174.05 218.09C173.46 218.67 172.56 218.16 172.18 217.03C171.75 215.75 171.08 215.4 169.21 215.48C168.11 215.52 167.8 215.71 167.03 216.84C166.03 218.32 165 218.77 165 217.73ZM176.23 218.12C176.11 217.99 176 216.19 176 214.1C176 210.37 175.99 210.31 175.17 210C174.66 209.81 174.33 209.42 174.33 209.01C174.33 208.4 174.55 208.33 176.65 208.33C179.31 208.33 179.87 208.77 178.57 209.81C177.72 210.48 177.69 210.65 177.59 214.33C177.52 217.47 177.41 218.18 176.98 218.26C176.7 218.31 176.36 218.25 176.23 218.12ZM191.23 218.12C190.86 217.75 190.96 209.69 191.35 208.98C191.63 208.44 192.06 208.33 193.83 208.33C195 208.33 196.06 208.49 196.18 208.68C196.53 209.25 195.66 210 194.65 210C193.32 210 192.67 210.32 192.67 210.97C192.67 211.87 193.37 212.33 194.71 212.33C195.4 212.33 196.04 212.46 196.14 212.62C196.45 213.12 195.22 213.94 194 214.06L192.83 214.17L192.67 216.16C192.55 217.61 192.36 218.19 191.98 218.26C191.7 218.31 191.36 218.25 191.23 218.12ZM218.33 214.86L218.33 211.39L220.53 211.15C222.03 210.99 222.96 211.04 223.49 211.33C224.05 211.63 224.43 211.64 224.94 211.37C225.71 210.95 227.65 210.89 228.19 211.26C228.38 211.39 228.79 211.87 229.1 212.32C229.84 213.4 229.9 217.39 229.18 217.99C228.34 218.68 228 218.03 227.99 215.73C227.99 213.26 227.84 212.86 226.77 212.53C225.48 212.13 224.67 213.33 224.67 215.63C224.67 216.93 224.51 217.72 224.18 217.99C223.31 218.71 223 218.01 223 215.35C223 212.78 222.99 212.74 222.08 212.56C220.69 212.27 220 213.29 220 215.64C220 217.5 219.62 218.33 218.77 218.33C218.44 218.33 218.33 217.49 218.33 214.86ZM202.67 216.08C203.5 215.03 203.51 214.29 202.71 213.3C201.44 211.73 198.7 212.62 198.68 214.61C198.64 217.07 201.16 218 202.67 216.08ZM97.83 213.17C97.83 212.81 97.57 212.46 97.25 212.4C96.81 212.31 96.67 212.51 96.67 213.17C96.67 213.83 96.81 214.02 97.25 213.94C97.57 213.87 97.83 213.53 97.83 213.17ZM170.17 213.66C170.43 213.24 170.05 212 169.66 212C169.23 212 168.6 213.29 168.84 213.67C169.1 214.1 169.9 214.09 170.17 213.66ZM302 209.17C302 207.58 302.13 206.67 302.36 206.67C302.6 206.67 302.69 207.4 302.61 208.75L302.5 210.83L305.09 210.93C308.5 211.06 308.14 211.67 304.65 211.67L302 211.67L302 209.17ZM310.33 211.37C310.33 210.95 311.31 210.2 311.55 210.44C311.89 210.78 311.38 211.67 310.84 211.67C310.56 211.67 310.33 211.54 310.33 211.37ZM316 211.14C316 210.85 316.18 210.67 316.4 210.74C317.01 210.95 317.12 211.67 316.53 211.67C316.24 211.67 316 211.43 316 211.14ZM321 211.33C321 211.15 321.3 211 321.67 211C322.03 211 322.33 211.15 322.33 211.33C322.33 211.52 322.03 211.67 321.67 211.67C321.3 211.67 321 211.52 321 211.33ZM325.78 210.96C325.9 210.52 325.99 209.08 326 207.75C326 206.31 326.14 205.33 326.35 205.33C326.91 205.33 326.61 211.41 326.03 211.6C325.68 211.72 325.62 211.55 325.78 210.96ZM330.83 207.83C330.83 205.33 330.96 204 331.19 204C331.66 204 331.64 211.4 331.17 211.55C330.96 211.63 330.83 210.24 330.83 207.83ZM336.78 210.96C336.9 210.52 336.99 209.23 337 208.08C337 206.87 337.14 206 337.35 206C337.91 206 337.61 211.41 337.03 211.6C336.68 211.72 336.62 211.55 336.78 210.96ZM342 208.36C342 206.34 342.13 205 342.33 205C342.53 205 342.67 206.22 342.67 208C342.67 209.65 342.68 211.11 342.69 211.24C342.71 211.37 342.56 211.54 342.36 211.6C342.12 211.68 342 210.61 342 208.36ZM347 211.33C347 211.14 348.01 211 349.35 211C350.84 211 351.63 211.12 351.5 211.33C351.39 211.52 350.33 211.67 349.15 211.67C347.94 211.67 347 211.52 347 211.33ZM357 207.86C357 204.99 357.11 204 357.42 204C357.96 204 357.9 211.42 357.36 211.6C357.12 211.68 357 210.46 357 207.86ZM368.83 205.83C368.83 201.33 368.93 200 369.26 200C369.79 200 369.7 211.38 369.17 211.56C368.95 211.63 368.83 209.57 368.83 205.83ZM374.83 211.33C374.72 211.15 374.94 211 375.31 211C375.69 211 376 211.15 376 211.33C376 211.52 375.78 211.67 375.52 211.67C375.26 211.67 374.95 211.52 374.83 211.33ZM378 211.33C378 211.15 378.16 211 378.35 211C378.55 211 378.61 211.15 378.5 211.33C378.39 211.52 378.23 211.67 378.15 211.67C378.07 211.67 378 211.52 378 211.33ZM382.67 211.17C382.67 210.82 382.89 210.66 383.25 210.73C383.95 210.87 383.91 211.46 383.18 211.61C382.88 211.67 382.67 211.49 382.67 211.17ZM401 211.33C401 211.15 401.83 211 402.85 211C404 211 404.63 211.13 404.5 211.33C404.39 211.52 403.55 211.67 402.65 211.67C401.74 211.67 401 211.52 401 211.33ZM410.78 210.96C410.9 210.52 410.99 209.08 411 207.75C411 206.31 411.14 205.33 411.35 205.33C411.91 205.33 411.61 211.41 411.03 211.6C410.68 211.72 410.62 211.55 410.78 210.96ZM416 208.94C416 206.48 416.08 206.11 416.7 205.72C417.08 205.48 417.48 205.37 417.58 205.47C417.68 205.57 417.51 205.75 417.19 205.87C416.72 206.05 416.64 206.51 416.7 208.78C416.75 210.57 416.64 211.51 416.38 211.59C416.11 211.68 416 210.89 416 208.94ZM422 208.19L422 204.67L420.67 204.67C419.93 204.67 419.33 204.52 419.33 204.33C419.33 203.83 421.65 203.93 422.17 204.46C422.76 205.05 422.95 211.41 422.38 211.6C422.11 211.68 422 210.68 422 208.19ZM320 209.85C320 209.38 320.15 209 320.33 209C320.52 209 320.67 209.29 320.67 209.65C320.67 210 320.52 210.39 320.33 210.5C320.14 210.62 320 210.34 320 209.85ZM389.67 210.33C389.67 210.15 389.9 210 390.19 210C390.47 210 390.61 210.15 390.5 210.33C390.39 210.52 390.15 210.67 389.98 210.67C389.81 210.67 389.67 210.52 389.67 210.33ZM400 210.33C400 210.15 400.16 210 400.35 210C400.55 210 400.61 210.15 400.5 210.33C400.39 210.52 400.23 210.67 400.15 210.67C400.07 210.67 400 210.52 400 210.33ZM405 210.43C405 210.23 405.22 209.98 405.5 209.88C405.87 209.74 406 209.16 406 207.68C406 206.11 405.89 205.67 405.5 205.67C405.22 205.67 405 205.52 405 205.33C405 204.88 405.38 204.93 406.08 205.46C406.5 205.78 406.67 206.38 406.67 207.56C406.67 208.9 406.51 209.37 405.83 210C405.38 210.43 405 210.62 405 210.43ZM60.22 209.78C59.73 209.29 60.01 208.33 60.65 208.33C61.5 208.33 61.83 208.91 61.32 209.51C60.88 210.04 60.56 210.12 60.22 209.78ZM132.2 209.47C131.86 208.57 131.97 208.33 132.78 208.33C133.81 208.33 134.05 208.62 133.64 209.38C133.24 210.14 132.48 210.19 132.2 209.47ZM312 209.52C312 209.23 312.15 209 312.33 209C312.52 209 312.67 209.14 312.67 209.31C312.67 209.49 312.52 209.72 312.33 209.83C312.15 209.95 312 209.81 312 209.52ZM315 209.52C315 209.23 315.15 209 315.33 209C315.52 209 315.67 209.14 315.67 209.31C315.67 209.49 315.52 209.72 315.33 209.83C315.15 209.95 315 209.81 315 209.52ZM373 207.85C373 206.62 373.14 205.67 373.33 205.67C373.52 205.67 373.67 206.55 373.67 207.65C373.67 208.74 373.52 209.72 373.33 209.83C373.12 209.96 373 209.23 373 207.85ZM399.01 207.94C399.02 206.12 399.55 204.99 400.37 205.01C400.71 205.02 400.68 205.14 400.25 205.46C399.83 205.78 399.67 206.38 399.67 207.6C399.67 208.53 399.52 209.39 399.33 209.5C399.13 209.63 399 209.03 399.01 207.94ZM388 206.33C388 204.78 388.14 203.67 388.33 203.67C388.53 203.67 388.67 204.78 388.67 206.33C388.67 207.89 388.53 209 388.33 209C388.14 209 388 207.89 388 206.33ZM313.5 208.33C313.39 208.15 313.54 208 313.83 208C314.13 208 314.28 208.15 314.17 208.33C314.05 208.52 313.9 208.67 313.83 208.67C313.76 208.67 313.61 208.52 313.5 208.33ZM378.78 207.18C378.9 206.87 379 206.29 379 205.91C379 205.4 379.1 205.3 379.36 205.56C379.84 206.04 379.62 207.41 379.03 207.6C378.7 207.71 378.63 207.59 378.78 207.18ZM312 206.19C312 205.9 312.15 205.67 312.33 205.67C312.52 205.67 312.67 205.81 312.67 205.98C312.67 206.15 312.52 206.39 312.33 206.5C312.15 206.61 312 206.47 312 206.19ZM315 206.33C315 206.15 315.16 206 315.35 206C315.55 206 315.61 206.15 315.5 206.33C315.39 206.52 315.23 206.67 315.15 206.67C315.07 206.67 315 206.52 315 206.33ZM350 206.33C350 206.15 350.38 206 350.85 206C351.34 206 351.62 206.14 351.5 206.33C351.39 206.52 351 206.67 350.65 206.67C350.29 206.67 350 206.52 350 206.33ZM348 205.33C348 205.15 348.38 205 348.85 205C349.34 205 349.62 205.14 349.5 205.33C349.39 205.52 349 205.67 348.65 205.67C348.29 205.67 348 205.52 348 205.33ZM108 205.02C107.68 204.8 100.85 204.68 88.62 204.67C72.51 204.67 69.69 204.6 69.35 204.18C69.12 203.91 69.04 203.54 69.16 203.35C69.3 203.11 74.85 203 86.13 203C95.35 203 102.99 202.9 103.11 202.78C103.23 202.66 103.18 202.38 102.99 202.16C102.59 201.68 102.91 200.66 103.45 200.67C103.66 200.67 104.06 200.82 104.33 200.99C104.75 201.26 104.76 201.43 104.42 201.99C103.8 202.98 103.89 203.1 105.08 202.86C107.18 202.45 107.5 202.44 107.72 202.77C107.84 202.96 108.19 202.98 108.55 202.82C109.13 202.57 109.12 202.54 108.46 202.42C107.4 202.24 106 200.59 105.79 199.29C105.54 197.78 106.39 195.78 107.48 195.28C108.08 195.01 109.08 194.98 110.91 195.2L113.5 195.5L113.59 199.25L113.69 203L115.16 203C116.91 203 117.29 202.6 116.13 201.98C114.33 201.02 113.81 198.42 115.03 196.46C115.88 195.07 116.67 194.86 119.85 195.16L122.36 195.39L122.26 198.78C122.17 202.13 122.16 202.17 121.33 202.2C119.61 202.28 119.33 202.34 119.33 202.67C119.33 203.09 130.22 203.12 130.48 202.7C130.58 202.54 130.37 202.33 130.01 202.24C129.1 202 128 200.05 128 198.66C128 196.36 129.44 195 131.87 195C133.26 195 133.82 195.18 134.64 195.86C135.69 196.75 136.06 198.39 135.31 198.85C135.1 198.98 135.04 199.44 135.16 199.91C135.38 200.81 134.3 202.33 133.44 202.33C133.2 202.33 133 202.48 133 202.67C133 203.1 143.22 203.12 143.49 202.69C143.59 202.52 143.38 202.29 143.02 202.17C142.09 201.88 141 199.96 141 198.62C141 196.38 142.46 195 144.82 195C146.74 195 147.75 195.56 148.52 197.03C149.15 198.25 149.67 198.01 149.67 196.5C149.67 195.47 149.78 195.34 150.8 195.15C151.42 195.03 152.74 195.07 153.72 195.22L155.5 195.5L155.67 198.13C155.81 200.42 155.92 200.79 156.54 201.02C156.94 201.17 157.57 201.11 158.04 200.88C158.76 200.52 158.84 200.24 158.93 197.91C159.02 195.42 159.06 195.33 159.85 195.33C160.65 195.33 160.67 195.39 160.67 197.97C160.67 200.56 160.65 200.61 159.5 201.62C158.86 202.19 158.33 202.73 158.33 202.82C158.33 203.08 174.85 203.04 175.11 202.78C175.23 202.66 175.18 202.38 174.99 202.16C174.59 201.68 174.91 200.66 175.45 200.67C175.66 200.67 176.06 200.82 176.33 200.99C176.75 201.26 176.76 201.43 176.42 201.99C176.19 202.36 176 202.73 176 202.83C176 203.12 179.95 203.02 180.13 202.73C180.22 202.58 179.87 202.2 179.34 201.89C177.45 200.78 177.24 197.71 178.93 195.92C179.69 195.11 180.04 195 181.84 195C183.54 195 184 195.13 184.61 195.77C185.66 196.9 185.02 197.38 183.26 196.77C181.47 196.15 180.06 196.47 179.63 197.59C179.25 198.6 179.52 200.13 180.16 200.67C180.79 201.19 182.52 201.19 183.49 200.67C183.93 200.44 184.56 200.35 184.89 200.48C185.43 200.69 185.38 200.82 184.42 201.69C183.82 202.22 183.33 202.73 183.33 202.83C183.33 202.92 184.52 203 185.98 203C188.57 203 189.69 202.6 188.32 202.16C187.37 201.86 186.34 200.07 186.33 198.73C186.33 197.4 187.11 195.81 187.98 195.34C188.96 194.82 191.75 194.93 192.59 195.52C193.55 196.19 194.33 197.71 194.33 198.91C194.33 199.95 192.58 202.33 191.81 202.33C191.55 202.33 191.33 202.48 191.33 202.67C191.33 202.88 194.16 203 199.15 203C207.01 203 207.86 203.13 206.99 204.18C206.64 204.6 200.06 204.68 159.04 204.79C132.89 204.86 110.83 205.01 110 205.13C109.14 205.26 108.29 205.21 108 205.02ZM302 203.19C302 201.95 302.14 201 302.33 201C302.52 201 302.67 201.88 302.67 202.98C302.67 204.07 302.52 205.05 302.33 205.17C302.12 205.3 302 204.56 302 203.19ZM310.88 204.77C310.5 204.39 310.65 204 311.17 204C311.44 204 311.67 204.14 311.67 204.31C311.67 204.73 311.15 205.04 310.88 204.77ZM316 204.5C316 204.22 316.24 204 316.54 204C316.98 204 317.01 204.09 316.67 204.5C316.44 204.78 316.2 205 316.13 205C316.06 205 316 204.78 316 204.5ZM410.88 204.77C410.5 204.39 410.65 204 411.17 204C411.44 204 411.67 204.14 411.67 204.31C411.67 204.73 411.15 205.04 410.88 204.77ZM321 204.3C321 204.14 321.3 204 321.67 204C322.03 204 322.33 204.06 322.33 204.13C322.33 204.2 322.03 204.33 321.67 204.43C321.3 204.53 321 204.47 321 204.3ZM324.5 204.33C324.39 204.15 324.54 204 324.83 204C325.13 204 325.28 204.15 325.17 204.33C325.05 204.52 324.9 204.67 324.83 204.67C324.76 204.67 324.61 204.52 324.5 204.33ZM334 204.33C334 204.15 334.53 204 335.19 204C335.89 204 336.29 204.13 336.17 204.33C336.05 204.52 335.52 204.67 334.98 204.67C334.44 204.67 334 204.52 334 204.33ZM339.67 204.33C339.67 204.15 340.19 204 340.83 204C341.47 204 342 204.15 342 204.33C342 204.52 341.47 204.67 340.83 204.67C340.19 204.67 339.67 204.52 339.67 204.33ZM347 203.25C347 201.65 347.44 200.99 348.48 201.02C349.15 201.03 349.14 201.05 348.42 201.56C347.89 201.92 347.67 202.42 347.67 203.19C347.67 203.8 347.52 204.39 347.33 204.5C347.13 204.63 347 204.14 347 203.25ZM374.67 204.33C374.67 204.15 374.83 204 375.02 204C375.21 204 375.28 204.15 375.17 204.33C375.05 204.52 374.89 204.67 374.81 204.67C374.73 204.67 374.67 204.52 374.67 204.33ZM377.33 204.33C376.91 204.06 376.92 204.01 377.42 204.01C377.74 204 378 204.15 378 204.33C378 204.74 377.96 204.74 377.33 204.33ZM401 204.33C401 204.15 401.83 204 402.85 204C404 204 404.63 204.13 404.5 204.33C404.39 204.52 403.55 204.67 402.65 204.67C401.74 204.67 401 204.52 401 204.33ZM413.67 204.33C413.67 204.15 414.2 204 414.85 204C415.56 204 415.96 204.13 415.83 204.33C415.72 204.52 415.19 204.67 414.65 204.67C414.11 204.67 413.67 204.52 413.67 204.33ZM111.5 202.67C111.62 202.47 111.23 202.33 110.52 202.33C109.87 202.33 109.33 202.48 109.33 202.67C109.33 202.85 109.77 203 110.31 203C110.85 203 111.39 202.85 111.5 202.67ZM155.74 202.82C155.84 202.72 155.49 202.21 154.96 201.68C154.1 200.81 154 200.5 154 198.53C154 196.47 153.95 196.33 153.25 196.34C151.91 196.35 151.6 196.82 151.42 199.21C151.33 200.47 151.11 201.68 150.93 201.9C150.37 202.6 149.67 201.99 149.67 200.8C149.67 200.01 149.51 199.67 149.17 199.67C148.89 199.67 148.67 199.85 148.67 200.07C148.67 200.61 146.98 202.33 146.44 202.33C146.2 202.33 146 202.48 146 202.67C146 203.01 155.4 203.16 155.74 202.82ZM389 202.52C389 202.23 389.15 202 389.33 202C389.52 202 389.67 202.14 389.67 202.31C389.67 202.49 389.52 202.72 389.33 202.83C389.15 202.95 389 202.81 389 202.52ZM125.22 202.11C125.1 201.99 125 200.84 125 199.55C125 197.61 124.88 197.08 124.28 196.44L123.55 195.67L124.28 194.9C124.67 194.47 125 193.71 125 193.2C125 191.83 126.07 192.18 126.38 193.65C126.5 194.28 126.89 195.01 127.22 195.26C127.81 195.71 127.81 195.74 127.12 196.21C126.49 196.64 126.43 196.92 126.58 198.79C126.78 201.33 126.1 202.99 125.22 202.11ZM137.56 202.11C137.43 201.99 137.33 200.79 137.33 199.44C137.33 198.07 137.15 196.7 136.92 196.33C136.59 195.8 136.59 195.53 136.92 195C137.15 194.64 137.33 194.06 137.33 193.72C137.33 192.92 138.36 192 139.26 192C140.31 192 140.54 192.69 139.72 193.36C138.81 194.1 138.81 194.45 139.75 195.12L140.5 195.65L139.81 196.25C139.21 196.77 139.13 197.13 139.26 198.94C139.39 200.61 139.3 201.15 138.82 201.68C138.19 202.37 137.91 202.47 137.56 202.11ZM162.22 202.11C162.1 201.99 162 200.43 162 198.64L162 195.39L164.19 195.15C165.75 194.98 166.62 195.04 167.2 195.35C167.83 195.69 168.1 195.7 168.41 195.39C168.82 194.98 170.92 194.86 171.82 195.21C172.75 195.56 173.33 197.2 173.33 199.44C173.33 201.83 172.77 202.78 171.83 202C171.48 201.71 171.33 200.92 171.33 199.3C171.33 197.36 171.23 196.97 170.67 196.67C170.19 196.41 169.81 196.41 169.33 196.67C168.78 196.97 168.67 197.36 168.67 199.11C168.67 201.59 168.07 202.75 167.19 202.02C166.8 201.69 166.7 201.28 166.85 200.61C167.17 199.12 166.7 197.04 165.95 196.64C165.45 196.37 165.09 196.41 164.48 196.82C163.76 197.29 163.67 197.59 163.67 199.44C163.67 201.72 163.02 202.91 162.22 202.11ZM195.54 202.1C195.43 201.98 195.33 200.43 195.33 198.64L195.33 195.39L197.53 195.15C199.03 194.99 199.96 195.04 200.49 195.33C201.05 195.63 201.43 195.64 201.94 195.37C202.71 194.95 204.65 194.89 205.19 195.26C205.38 195.39 205.79 195.87 206.1 196.32C206.84 197.4 206.9 201.39 206.18 201.99C205.34 202.68 205 202.03 204.99 199.73C204.99 197.26 204.84 196.86 203.77 196.53C202.48 196.13 201.67 197.33 201.67 199.63C201.67 200.93 201.51 201.72 201.18 201.99C200.31 202.71 200 202.01 200 199.35C200 196.77 199.99 196.74 199.08 196.56C197.71 196.29 197.22 197.01 197.06 199.51C196.96 201.14 196.78 201.76 196.34 202C196.02 202.17 195.66 202.22 195.54 202.1ZM70.15 199.49C68.57 196.02 68.42 195.33 69.26 195.33C70.06 195.33 70.45 195.79 71.02 197.42C71.27 198.1 71.6 198.67 71.75 198.67C71.91 198.67 72.34 197.98 72.71 197.15C73.54 195.28 74.52 195.21 75.4 196.96C76.34 198.86 76.54 198.86 77.38 197.03C78.14 195.39 78.21 195.33 79.54 195.33C81.07 195.33 81.38 195.59 82.02 197.42C82.27 198.1 82.6 198.67 82.75 198.67C82.91 198.67 83.34 197.98 83.71 197.15C84.54 195.28 85.52 195.21 86.4 196.96C87.37 198.91 87.58 198.92 88.4 197.05C89.14 195.38 89.21 195.33 90.54 195.33C92.07 195.33 92.38 195.59 93.02 197.42C93.27 198.1 93.6 198.67 93.75 198.67C93.91 198.67 94.34 197.98 94.71 197.15C95.54 195.28 96.52 195.21 97.4 196.96C98.34 198.86 98.54 198.86 99.38 197.03C99.98 195.72 100.33 195.33 100.91 195.33C101.33 195.33 101.67 195.46 101.67 195.61C101.67 195.76 101.09 197.22 100.38 198.86C98.86 202.36 98.21 202.68 97.19 200.42C96.42 198.7 95.87 198.63 95.15 200.15C94.47 201.59 93.75 202.22 93.31 201.78C93.14 201.6 92.55 200.42 92.01 199.14C91.48 197.87 90.86 196.83 90.63 196.83C90.41 196.83 89.75 197.96 89.17 199.33C87.89 202.35 87.18 202.6 86.19 200.42C85.42 198.7 84.87 198.63 84.15 200.15C83.47 201.59 82.75 202.22 82.31 201.78C82.14 201.6 81.55 200.42 81.01 199.14C80.48 197.87 79.86 196.83 79.63 196.83C79.41 196.83 78.75 197.96 78.17 199.33C76.89 202.35 76.18 202.6 75.19 200.42C74.52 198.94 73.79 198.59 73.44 199.58C73.1 200.51 71.99 202 71.63 202C71.44 202 70.78 200.87 70.15 199.49ZM390 201.33C390 201.15 390.38 201 390.85 201C391.34 201 391.62 201.14 391.5 201.33C391.39 201.52 391 201.67 390.65 201.67C390.29 201.67 390 201.52 390 201.33ZM133.91 200.27C134.75 199.57 134.3 199.33 132.14 199.33C130.25 199.33 129.97 199.41 130.06 199.91C130.32 201.24 132.5 201.44 133.91 200.27ZM146.67 200.08C147.5 199.03 147.51 198.29 146.71 197.3C145.44 195.73 142.7 196.62 142.68 198.61C142.64 201.07 145.16 202 146.67 200.08ZM192.25 199.8C192.9 198.43 192.46 197.16 191.15 196.66C189.1 195.88 187.49 197.62 188.35 199.7C189.14 201.6 191.36 201.66 192.25 199.8ZM111.23 200.28C112.83 198.77 111.87 196.52 109.63 196.52C107.93 196.52 107.21 197.33 107.46 198.95C107.56 199.56 107.81 200.27 108.02 200.53C108.61 201.24 110.35 201.1 111.23 200.28ZM120.42 199.77C120.99 198.8 121 198.62 120.53 197.73C119.62 195.96 117.04 195.96 116.31 197.72C115.97 198.55 115.99 198.9 116.45 199.88C116.97 200.96 117.1 201.03 118.4 200.94C119.57 200.85 119.9 200.66 120.42 199.77ZM357 200.33C357 200.15 357.31 200 357.69 200C358.06 200 358.28 200.15 358.17 200.33C358.05 200.52 357.74 200.67 357.48 200.67C357.22 200.67 357 200.52 357 200.33ZM133.19 197.3C133.5 196.79 132.68 196.31 131.67 196.41C131.19 196.46 130.79 196.75 130.73 197.08C130.64 197.55 130.85 197.67 131.79 197.67C132.43 197.67 133.06 197.5 133.19 197.3ZM173.68 184.78C173.89 184.57 173.97 184.09 173.85 183.72C173.67 183.17 173.3 183.01 171.93 182.93C170.78 182.87 170.12 182.65 169.88 182.27C169.39 181.48 169.76 181.23 171.49 181.16C173.68 181.07 173.86 180.79 173.84 177.6L173.83 174.83L172.17 174.66C170.31 174.47 169.67 174.17 169.67 173.52C169.67 172.93 170.41 172.67 172.04 172.67C173.7 172.67 173.89 172.22 173.67 168.77L173.5 166.17L171.87 166C170.83 165.89 170.1 165.63 169.88 165.27C169.39 164.49 169.72 164.26 171.51 164.13C172.35 164.07 173.18 163.93 173.35 163.82C173.53 163.71 173.67 162.29 173.67 160.65L173.67 157.67L172.31 157.67C170.75 157.67 169.67 157.19 169.67 156.49C169.67 155.99 170.4 155.74 172.33 155.59L173.5 155.5L173.5 152.33L173.5 149.17L171.87 149C170.83 148.89 170.1 148.63 169.88 148.27C169.39 147.49 169.72 147.26 171.51 147.13C172.35 147.07 173.18 146.93 173.35 146.82C173.53 146.71 173.67 145.29 173.67 143.65L173.67 140.67L171.75 140.61C166.15 140.46 124.56 140.4 123 140.55L121.17 140.71L121.15 143.86C121.14 146.62 121.2 147 121.71 147C122.03 147 122.69 147.15 123.19 147.34C124.06 147.67 124.07 147.7 123.49 148.34C123.16 148.7 122.54 149 122.12 149C121.43 149 121.33 149.16 121.34 150.25C121.34 152.34 121.98 154 123.38 155.51C124.52 156.75 124.66 157.06 124.34 157.65C123.95 158.37 123.18 158.56 122.83 158C122.72 157.82 122.22 157.66 121.73 157.66C119.5 157.65 118.75 156.87 119.82 155.68C120.21 155.25 120.23 155 119.89 154.32C119.54 153.62 119.19 153.48 117.49 153.33C115.63 153.18 115.49 153.11 115.4 152.27C115.3 151.4 115.36 151.37 117.06 151.27L118.83 151.17L119.04 149.17C119.16 148.07 119.18 146.6 119.08 145.92L118.91 144.67L117.12 144.67C116.14 144.67 115.31 144.52 115.28 144.33C115.12 143.26 115.25 143.16 117 143L118.83 142.83L118.94 141.6L119.04 140.36L114.35 140.43L109.67 140.5L109.67 141.73C109.67 142.75 109.79 142.97 110.42 143.06C111.37 143.2 111.39 144.07 110.46 144.48C109.91 144.72 109.7 145.19 109.54 146.52C109.43 147.46 109.11 148.78 108.84 149.44C108.13 151.14 108.19 151.33 109.43 151.33C110.82 151.33 111.42 151.88 110.97 152.72C110.71 153.21 110.25 153.33 108.59 153.33C106.95 153.33 106.39 153.48 105.77 154.06C104.75 155.02 104.8 155.44 106 155.9C106.55 156.11 107 156.44 107 156.65C107 157.25 105.27 157.74 103.9 157.52C103.06 157.39 102.25 157.5 101.5 157.86C100.19 158.48 99.67 158.28 99.67 157.17C99.67 156.64 100.03 156.17 100.77 155.7C102.77 154.47 106.67 149.97 106.67 148.89C106.67 148.82 105.82 148.77 104.79 148.79C103.37 148.82 102.83 148.7 102.56 148.27C102.01 147.42 102.51 147.17 104.69 147.16C105.76 147.16 106.79 147.01 106.97 146.83C107.18 146.62 107.17 145.93 106.95 144.89C106.66 143.56 106.69 143.19 107.13 142.7C107.77 142 107.82 141.14 107.25 140.77C107.02 140.62 96.33 140.47 83.5 140.42C70.67 140.38 59.79 140.31 59.33 140.26C58.57 140.17 58.5 140.28 58.5 141.49C58.5 142.71 58.58 142.82 59.6 143.03C60.21 143.15 60.79 143.34 60.9 143.45C61.3 143.86 60.22 144.67 59.28 144.67L58.31 144.67L58.4 147.92L58.5 151.17L59.44 151.27C61.15 151.47 60.86 153.33 59.11 153.33C58.31 153.33 58.31 153.34 58.4 156.57L58.5 159.81L59.6 160.03C60.21 160.16 60.79 160.34 60.9 160.45C61.3 160.86 60.22 161.67 59.28 161.67L58.31 161.67L58.4 164.92L58.5 168.17L59.44 168.27C61.15 168.47 60.86 170.33 59.11 170.33C58.31 170.33 58.31 170.34 58.4 173.57L58.5 176.81L59.6 177.03C60.21 177.16 60.79 177.34 60.9 177.45C61.3 177.85 60.22 178.67 59.29 178.67L58.33 178.67L58.33 181.6C58.33 183.21 58.48 184.68 58.66 184.86C59.16 185.36 173.18 185.28 173.68 184.78ZM61.08 182.78C60.85 182.69 60.67 182.34 60.67 182C60.67 181.25 62.19 180.84 63.75 181.18C65.31 181.51 65.44 181.66 64.8 182.37C64.25 182.98 62.15 183.21 61.08 182.78ZM69.57 182.79C69.44 182.66 69.33 182.28 69.33 181.95C69.33 181.21 70.58 180.85 72.23 181.11C73.7 181.35 73.91 181.55 73.45 182.27C73.09 182.85 70.04 183.27 69.57 182.79ZM78.22 182.78C77.7 182.25 78.04 181.34 78.83 181.14C80.63 180.69 81.94 181.6 80.93 182.6C80.51 183.03 78.6 183.15 78.22 182.78ZM85.73 182.6C85.51 182.38 85.33 182.01 85.33 181.79C85.33 181.2 87.97 180.88 89.13 181.32C90.06 181.67 90.07 181.7 89.49 182.34C88.81 183.09 86.39 183.26 85.73 182.6ZM94.42 182.79C93.82 182.54 93.9 181.44 94.53 181.2C95.33 180.89 97.44 180.97 98 181.33C98.39 181.58 98.42 181.78 98.13 182.24C97.77 182.83 95.36 183.18 94.42 182.79ZM102.73 182.6C102.51 182.38 102.33 182.01 102.33 181.79C102.33 181.2 104.97 180.88 106.13 181.32C107.06 181.67 107.07 181.7 106.49 182.34C105.81 183.09 103.39 183.26 102.73 182.6ZM111.42 182.79C110.82 182.54 110.9 181.44 111.53 181.2C112.33 180.89 114.44 180.97 115 181.33C115.39 181.58 115.42 181.78 115.13 182.24C114.77 182.83 112.36 183.18 111.42 182.79ZM119.73 182.6C118.49 181.36 120.91 180.47 123.19 181.34C124.06 181.67 124.07 181.7 123.49 182.34C122.81 183.09 120.39 183.26 119.73 182.6ZM128.42 182.79C127.82 182.54 127.9 181.44 128.53 181.2C129.33 180.89 131.44 180.97 132 181.33C132.39 181.58 132.42 181.78 132.13 182.24C131.77 182.83 129.36 183.18 128.42 182.79ZM136.73 182.6C136.51 182.38 136.33 182.01 136.33 181.79C136.33 181.2 138.97 180.88 140.13 181.32C141.06 181.67 141.07 181.7 140.49 182.34C139.81 183.09 137.39 183.26 136.73 182.6ZM145.42 182.78C144.66 182.48 144.95 181.36 145.83 181.14C146.91 180.87 148.33 181.23 148.33 181.77C148.33 182.77 146.75 183.32 145.42 182.78ZM152.73 182.6C152.03 181.9 152.3 181.41 153.5 181.19C154.95 180.92 157 181.28 157 181.8C157 182.58 156.18 183 154.67 183C153.82 183 152.95 182.82 152.73 182.6ZM161.4 182.6C160.46 181.66 161.17 181 163.11 181C165.46 181.01 166.46 181.88 165.02 182.65C164.14 183.13 161.89 183.09 161.4 182.6ZM65.22 178.44C65.1 178.32 65 177.95 65 177.61C65 177.08 65.29 177 67.15 177C69.37 177 70.01 177.35 69.32 178.18C68.91 178.68 65.66 178.89 65.22 178.44ZM73.7 178.36C73.45 178.2 73.33 177.83 73.44 177.53C73.6 177.13 74.11 177 75.57 177.01C77.9 177.01 78.66 177.37 78.02 178.14C77.54 178.72 74.51 178.88 73.7 178.36ZM81.2 178.14C80.86 177.24 81.3 177 83.33 177C85.39 177 86 177.36 85.32 178.18C84.74 178.88 81.47 178.85 81.2 178.14ZM89.89 178.44C89.77 178.32 89.67 177.95 89.67 177.61C89.67 177.08 89.95 177 91.81 177C94.04 177 94.68 177.35 93.99 178.18C93.58 178.68 90.33 178.89 89.89 178.44ZM98.2 178.14C97.86 177.24 98.3 177 100.33 177C102.39 177 103 177.36 102.32 178.18C101.74 178.88 98.47 178.85 98.2 178.14ZM106.89 178.44C106.77 178.32 106.67 177.95 106.67 177.61C106.67 177.08 106.95 177 108.81 177C111.04 177 111.68 177.35 110.99 178.18C110.58 178.68 107.33 178.89 106.89 178.44ZM115.2 178.14C114.86 177.24 115.3 177 117.33 177C119.39 177 120 177.36 119.32 178.18C118.74 178.88 115.47 178.85 115.2 178.14ZM123.89 178.44C123.77 178.32 123.67 177.95 123.67 177.61C123.67 177.08 123.95 177 125.81 177C128.04 177 128.68 177.35 127.99 178.18C127.58 178.68 124.33 178.89 123.89 178.44ZM132.2 178.14C131.86 177.24 132.3 177 134.33 177C136.39 177 137 177.36 136.32 178.18C135.74 178.88 132.47 178.85 132.2 178.14ZM140.89 178.44C140.77 178.32 140.67 177.95 140.67 177.61C140.67 177.08 140.95 177 142.81 177C145.04 177 145.68 177.35 144.99 178.18C144.58 178.68 141.33 178.89 140.89 178.44ZM148.2 178.14C147.86 177.24 148.3 177 150.33 177C152.39 177 153 177.36 152.32 178.18C151.74 178.88 148.47 178.85 148.2 178.14ZM156.79 178.18C156.46 177.3 157.02 177 159 177C161.05 177 161.67 177.36 160.99 178.18C160.43 178.85 157.05 178.85 156.79 178.18ZM165.56 178.44C165.43 178.32 165.33 177.95 165.33 177.61C165.33 177.08 165.62 177 167.48 177C169.71 177 170.35 177.35 169.65 178.18C169.24 178.68 166 178.89 165.56 178.44ZM61.25 174.44C60.52 174.25 60.48 173.14 61.19 172.87C62.12 172.51 64.19 172.65 64.82 173.11C65.4 173.54 65.39 173.59 64.64 174.11C63.89 174.64 62.52 174.77 61.25 174.44ZM69.72 174.37C69.47 174.21 69.32 173.8 69.39 173.46C69.48 172.97 69.85 172.81 71.07 172.73C71.94 172.68 72.98 172.81 73.39 173.03L74.13 173.42L73.36 174.05C72.56 174.69 70.51 174.88 69.72 174.37ZM78.38 174.37C78.14 174.21 77.99 173.8 78.05 173.46C78.21 172.61 80.9 172.35 81.21 173.15C81.65 174.3 79.64 175.17 78.38 174.37ZM85.92 174.45C85.19 174.24 85.15 173.14 85.86 172.87C87.57 172.21 90.66 173.12 89.78 174.02C89.36 174.44 86.86 174.73 85.92 174.45ZM94.38 174.37C94.14 174.21 93.99 173.8 94.05 173.46C94.15 172.95 94.52 172.82 96.09 172.73C98.14 172.63 98.84 173.15 98 174.17C97.55 174.71 95.13 174.85 94.38 174.37ZM102.92 174.33C102.19 173.88 102.16 173.14 102.86 172.87C104.57 172.21 107.66 173.12 106.78 174.02C106.25 174.55 103.63 174.77 102.92 174.33ZM111.38 174.37C111.14 174.21 110.99 173.8 111.05 173.46C111.15 172.95 111.52 172.82 113.09 172.73C115.14 172.63 115.84 173.15 115 174.17C114.55 174.71 112.13 174.85 111.38 174.37ZM119.92 174.45C119.19 174.24 119.15 173.14 119.86 172.87C121.57 172.21 124.66 173.12 123.78 174.02C123.36 174.44 120.86 174.73 119.92 174.45ZM128.38 174.37C128.14 174.21 127.99 173.8 128.05 173.46C128.15 172.95 128.52 172.82 130.09 172.73C132.14 172.63 132.84 173.15 132 174.17C131.55 174.71 129.13 174.85 128.38 174.37ZM136.92 174.45C136.19 174.24 136.15 173.14 136.86 172.87C138.57 172.21 141.66 173.12 140.78 174.02C140.36 174.44 137.86 174.73 136.92 174.45ZM145.38 174.37C145.14 174.21 144.99 173.8 145.05 173.46C145.21 172.61 147.9 172.35 148.21 173.15C148.65 174.3 146.64 175.17 145.38 174.37ZM152.92 174.31C152.19 173.88 152.16 173.14 152.86 172.87C154.22 172.35 157 172.8 157 173.55C157 174.48 154.13 175.02 152.92 174.31ZM161.34 174.17C160.54 173.21 161.19 172.67 163.12 172.67C165.27 172.67 166.26 173.41 165.17 174.2C164.32 174.82 161.86 174.8 161.34 174.17ZM65.12 169.83C64.7 168.74 65.25 168.33 67.17 168.33C69.15 168.33 69.8 168.87 69 169.84C68.43 170.52 65.38 170.52 65.12 169.83ZM73.79 169.83C73.37 168.74 73.92 168.33 75.83 168.33C77.81 168.33 78.47 168.87 77.66 169.84C77.09 170.52 74.05 170.52 73.79 169.83ZM81.56 170.11C81.43 169.99 81.33 169.54 81.33 169.11C81.33 168.39 81.47 168.33 83.13 168.33C85.16 168.33 86.07 168.95 85.33 169.83C84.91 170.34 82 170.55 81.56 170.11ZM90 169.84C89.21 168.88 89.86 168.33 91.76 168.33C93.77 168.33 94.48 168.77 93.97 169.72C93.55 170.51 90.63 170.6 90 169.84ZM98.56 170.11C98.43 169.99 98.33 169.54 98.33 169.11C98.33 168.39 98.47 168.33 100.13 168.33C102.16 168.33 103.07 168.95 102.33 169.83C101.91 170.34 99 170.55 98.56 170.11ZM107 169.84C106.21 168.88 106.86 168.33 108.76 168.33C110.77 168.33 111.48 168.77 110.97 169.72C110.55 170.51 107.63 170.6 107 169.84ZM115.56 170.11C115.43 169.99 115.33 169.54 115.33 169.11C115.33 168.39 115.47 168.33 117.13 168.33C119.16 168.33 120.07 168.95 119.33 169.83C118.91 170.34 116 170.55 115.56 170.11ZM124 169.84C123.21 168.88 123.86 168.33 125.76 168.33C127.77 168.33 128.48 168.77 127.97 169.72C127.55 170.51 124.63 170.6 124 169.84ZM132.56 170.11C132.43 169.99 132.33 169.54 132.33 169.11C132.33 168.39 132.47 168.33 134.13 168.33C136.16 168.33 137.07 168.95 136.33 169.83C135.91 170.34 133 170.55 132.56 170.11ZM141 169.84C140.21 168.88 140.86 168.33 142.76 168.33C144.77 168.33 145.48 168.77 144.97 169.72C144.55 170.51 141.63 170.6 141 169.84ZM148.57 170.13C148.44 170 148.33 169.54 148.33 169.11C148.33 168.39 148.47 168.33 150.08 168.34C152.24 168.34 152.99 168.73 152.47 169.57C152.09 170.19 149.06 170.61 148.57 170.13ZM157.22 170.11C157.1 169.99 157 169.54 157 169.11C157 168.38 157.13 168.33 159.01 168.33C161.15 168.33 161.82 168.84 161 169.84C160.58 170.34 157.66 170.55 157.22 170.11ZM165.67 169.84C164.88 168.88 165.52 168.33 167.45 168.33C169.49 168.33 170.4 168.95 169.67 169.83C169.11 170.51 166.23 170.51 165.67 169.84ZM61.08 165.78C60.85 165.69 60.67 165.34 60.67 165C60.67 164.25 62.19 163.84 63.75 164.18C65.31 164.51 65.44 164.66 64.8 165.37C64.25 165.98 62.15 166.21 61.08 165.78ZM69.57 165.79C69.44 165.66 69.33 165.28 69.33 164.95C69.33 164.21 70.58 163.85 72.23 164.11C73.7 164.35 73.91 164.55 73.45 165.27C73.09 165.85 70.04 166.27 69.57 165.79ZM78.22 165.78C77.7 165.25 78.04 164.34 78.83 164.14C80.63 163.69 81.94 164.6 80.93 165.6C80.51 166.03 78.6 166.15 78.22 165.78ZM85.73 165.6C85.51 165.38 85.33 165.01 85.33 164.79C85.33 164.2 87.97 163.88 89.13 164.32C90.06 164.67 90.07 164.7 89.49 165.34C88.81 166.09 86.39 166.26 85.73 165.6ZM94.42 165.79C93.82 165.54 93.9 164.44 94.53 164.2C95.33 163.89 97.44 163.97 98 164.33C98.39 164.58 98.42 164.78 98.13 165.24C97.77 165.83 95.36 166.18 94.42 165.79ZM102.73 165.6C102.51 165.38 102.33 165.01 102.33 164.79C102.33 164.2 104.97 163.88 106.13 164.32C107.06 164.67 107.07 164.7 106.49 165.34C105.81 166.09 103.39 166.26 102.73 165.6ZM111.42 165.79C110.82 165.54 110.9 164.44 111.53 164.2C112.33 163.89 114.44 163.97 115 164.33C115.39 164.58 115.42 164.78 115.13 165.24C114.77 165.83 112.36 166.18 111.42 165.79ZM119.73 165.6C119.51 165.38 119.33 165.01 119.33 164.79C119.33 164.2 121.97 163.88 123.13 164.32C124.06 164.67 124.07 164.7 123.49 165.34C122.81 166.09 120.39 166.26 119.73 165.6ZM128.42 165.79C127.82 165.54 127.9 164.44 128.53 164.2C129.33 163.89 131.44 163.97 132 164.33C132.39 164.58 132.42 164.78 132.13 165.24C131.77 165.83 129.36 166.18 128.42 165.79ZM136.73 165.6C136.51 165.38 136.33 165.01 136.33 164.79C136.33 164.2 138.97 163.88 140.13 164.32C141.06 164.67 141.07 164.7 140.49 165.34C139.81 166.09 137.39 166.26 136.73 165.6ZM145.42 165.78C144.66 165.48 144.95 164.36 145.83 164.14C146.91 163.87 148.33 164.23 148.33 164.77C148.33 165.77 146.75 166.32 145.42 165.78ZM152.73 165.6C152.03 164.9 152.3 164.41 153.5 164.19C154.95 163.92 157 164.28 157 164.8C157 165.58 156.18 166 154.67 166C153.82 166 152.95 165.82 152.73 165.6ZM161.4 165.6C160.46 164.66 161.17 164 163.11 164C165.46 164.01 166.46 164.88 165.02 165.65C164.14 166.13 161.89 166.09 161.4 165.6ZM65.22 161.44C65.1 161.32 65 160.95 65 160.61C65 160.08 65.29 160 67.15 160C69.37 160 70.01 160.35 69.32 161.18C68.91 161.68 65.66 161.89 65.22 161.44ZM73.7 161.36C73.45 161.2 73.33 160.83 73.44 160.53C73.6 160.13 74.11 160 75.57 160.01C77.9 160.01 78.66 160.37 78.02 161.14C77.54 161.72 74.51 161.88 73.7 161.36ZM81.2 161.14C80.86 160.24 81.3 160 83.33 160C85.39 160 86 160.36 85.32 161.18C84.74 161.88 81.47 161.85 81.2 161.14ZM89.89 161.44C89.77 161.32 89.67 160.95 89.67 160.61C89.67 160.08 89.95 160 91.81 160C94.04 160 94.68 160.35 93.99 161.18C93.58 161.68 90.33 161.89 89.89 161.44ZM98.2 161.14C97.86 160.24 98.3 160 100.33 160C102.39 160 103 160.36 102.32 161.18C101.74 161.88 98.47 161.85 98.2 161.14ZM106.89 161.44C106.77 161.32 106.67 160.95 106.67 160.61C106.67 160.08 106.95 160 108.81 160C111.04 160 111.68 160.35 110.99 161.18C110.58 161.68 107.33 161.89 106.89 161.44ZM115.2 161.14C114.86 160.24 115.3 160 117.33 160C119.39 160 120 160.36 119.32 161.18C118.74 161.88 115.47 161.85 115.2 161.14ZM123.89 161.44C123.77 161.32 123.67 160.95 123.67 160.61C123.67 160.08 123.95 160 125.81 160C128.04 160 128.68 160.35 127.99 161.18C127.58 161.68 124.33 161.89 123.89 161.44ZM132.2 161.14C131.86 160.24 132.3 160 134.33 160C136.39 160 137 160.36 136.32 161.18C135.74 161.88 132.47 161.85 132.2 161.14ZM140.89 161.44C140.77 161.32 140.67 160.95 140.67 160.61C140.67 160.08 140.95 160 142.81 160C145.04 160 145.68 160.35 144.99 161.18C144.58 161.68 141.33 161.89 140.89 161.44ZM148.2 161.14C147.86 160.24 148.3 160 150.33 160C152.39 160 153 160.36 152.32 161.18C151.74 161.88 148.47 161.85 148.2 161.14ZM156.79 161.18C156.46 160.3 157.02 160 159 160C161.05 160 161.67 160.36 160.99 161.18C160.43 161.85 157.05 161.85 156.79 161.18ZM165.56 161.44C165.43 161.32 165.33 160.95 165.33 160.61C165.33 160.08 165.62 160 167.48 160C169.71 160 170.35 160.35 169.65 161.18C169.24 161.68 166 161.89 165.56 161.44ZM61.25 157.44C60.52 157.25 60.48 156.14 61.19 155.87C62.12 155.51 64.19 155.65 64.82 156.11C65.4 156.54 65.39 156.59 64.64 157.11C63.89 157.64 62.52 157.77 61.25 157.44ZM69.72 157.37C69.47 157.21 69.32 156.8 69.39 156.46C69.48 155.97 69.85 155.81 71.07 155.73C71.94 155.68 72.98 155.81 73.39 156.03L74.13 156.42L73.36 157.05C72.56 157.69 70.51 157.88 69.72 157.37ZM78.38 157.37C78.14 157.21 77.99 156.8 78.05 156.46C78.21 155.61 80.9 155.35 81.21 156.15C81.65 157.3 79.64 158.17 78.38 157.37ZM85.92 157.45C85.19 157.24 85.15 156.14 85.86 155.87C87.57 155.21 90.66 156.12 89.78 157.02C89.36 157.44 86.86 157.73 85.92 157.45ZM94.38 157.37C94.14 157.21 93.99 156.8 94.05 156.46C94.22 155.57 97.89 155.34 98.22 156.2C98.36 156.55 98.21 156.93 97.82 157.21C97.14 157.72 95.08 157.81 94.38 157.37ZM111.38 157.37C111.14 157.21 110.99 156.8 111.05 156.46C111.15 155.95 111.52 155.82 113.09 155.73C115.14 155.63 115.84 156.15 115 157.17C114.55 157.71 112.13 157.85 111.38 157.37ZM128.38 157.37C128.14 157.21 127.99 156.8 128.05 156.46C128.15 155.95 128.52 155.82 130.09 155.73C132.14 155.63 132.84 156.15 132 157.17C131.55 157.71 129.13 157.85 128.38 157.37ZM136.92 157.45C136.19 157.24 136.15 156.14 136.86 155.87C138.57 155.21 141.66 156.12 140.78 157.02C140.36 157.44 137.86 157.73 136.92 157.45ZM145.38 157.37C145.14 157.21 144.99 156.8 145.05 156.46C145.21 155.61 147.9 155.35 148.21 156.15C148.65 157.3 146.64 158.17 145.38 157.37ZM152.92 157.31C152.19 156.88 152.16 156.14 152.86 155.87C154.22 155.35 157 155.8 157 156.55C157 157.48 154.13 158.02 152.92 157.31ZM161.34 157.17C160.54 156.21 161.19 155.67 163.12 155.67C165.27 155.67 166.26 156.41 165.17 157.2C164.32 157.82 161.86 157.8 161.34 157.17ZM65.12 152.83C64.7 151.74 65.25 151.33 67.17 151.33C69.15 151.33 69.8 151.87 69 152.84C68.43 153.52 65.38 153.52 65.12 152.83ZM73.79 152.83C73.37 151.74 73.92 151.33 75.83 151.33C77.81 151.33 78.47 151.87 77.66 152.84C77.09 153.52 74.05 153.52 73.79 152.83ZM81.56 153.11C81.43 152.99 81.33 152.54 81.33 152.11C81.33 151.39 81.47 151.33 83.13 151.33C85.16 151.33 86.07 151.95 85.33 152.83C84.91 153.34 82 153.55 81.56 153.11ZM90 152.84C89.21 151.88 89.86 151.33 91.76 151.33C93.77 151.33 94.48 151.77 93.97 152.72C93.55 153.51 90.63 153.6 90 152.84ZM98.56 153.11C98.43 152.99 98.33 152.54 98.33 152.11C98.33 151.39 98.47 151.33 100.13 151.33C102.16 151.33 103.07 151.95 102.33 152.83C101.91 153.34 99 153.55 98.56 153.11ZM124 152.84C123.21 151.88 123.86 151.33 125.76 151.33C127.77 151.33 128.48 151.77 127.97 152.72C127.55 153.51 124.63 153.6 124 152.84ZM132.56 153.11C132.43 152.99 132.33 152.54 132.33 152.11C132.33 151.39 132.47 151.33 134.13 151.33C136.16 151.33 137.07 151.95 136.33 152.83C135.91 153.34 133 153.55 132.56 153.11ZM141 152.84C140.21 151.88 140.86 151.33 142.76 151.33C144.87 151.33 145.59 151.83 144.78 152.73C144.09 153.49 141.6 153.56 141 152.84ZM148.57 153.13C148.44 153 148.33 152.54 148.33 152.11C148.33 151.39 148.47 151.33 150.08 151.34C152.24 151.34 152.99 151.73 152.47 152.57C152.09 153.19 149.06 153.61 148.57 153.13ZM157.22 153.11C157.1 152.99 157 152.54 157 152.11C157 151.38 157.13 151.33 159.01 151.33C161.15 151.33 161.82 151.84 161 152.84C160.58 153.34 157.66 153.55 157.22 153.11ZM165.67 152.84C164.88 151.88 165.52 151.33 167.45 151.33C169.49 151.33 170.4 151.95 169.67 152.83C169.11 153.51 166.23 153.51 165.67 152.84ZM61.08 148.78C60.85 148.69 60.67 148.34 60.67 148C60.67 147.25 62.19 146.84 63.75 147.18C65.31 147.51 65.44 147.66 64.8 148.37C64.25 148.98 62.15 149.21 61.08 148.78ZM69.57 148.79C69.44 148.66 69.33 148.28 69.33 147.95C69.33 147.21 70.58 146.85 72.23 147.11C73.7 147.35 73.91 147.55 73.45 148.27C73.09 148.85 70.04 149.27 69.57 148.79ZM78.22 148.78C77.7 148.25 78.04 147.34 78.83 147.14C80.63 146.69 81.94 147.6 80.93 148.6C80.51 149.03 78.6 149.15 78.22 148.78ZM85.73 148.6C85.51 148.38 85.33 148.01 85.33 147.79C85.33 147.2 87.97 146.88 89.13 147.32C90.06 147.67 90.07 147.7 89.49 148.34C88.81 149.09 86.39 149.26 85.73 148.6ZM94.42 148.79C93.82 148.54 93.9 147.44 94.53 147.2C95.33 146.89 97.44 146.97 98 147.33C98.39 147.58 98.42 147.78 98.13 148.24C97.77 148.83 95.36 149.18 94.42 148.79ZM111.42 148.79C110.82 148.54 110.9 147.44 111.53 147.2C112.33 146.89 114.44 146.97 115 147.33C115.39 147.58 115.42 147.78 115.13 148.24C114.77 148.83 112.36 149.18 111.42 148.79ZM128.42 148.79C127.82 148.54 127.9 147.44 128.53 147.2C129.33 146.89 131.44 146.97 132 147.33C132.39 147.58 132.42 147.78 132.13 148.24C131.77 148.83 129.36 149.18 128.42 148.79ZM136.73 148.6C136.51 148.38 136.33 148.01 136.33 147.79C136.33 147.2 138.97 146.88 140.13 147.32C141.06 147.67 141.07 147.7 140.49 148.34C139.81 149.09 137.39 149.26 136.73 148.6ZM145.42 148.78C144.66 148.48 144.95 147.36 145.83 147.14C146.91 146.87 148.33 147.23 148.33 147.77C148.33 148.77 146.75 149.32 145.42 148.78ZM152.73 148.6C152.03 147.9 152.3 147.41 153.5 147.19C154.95 146.92 157 147.28 157 147.8C157 148.58 156.18 149 154.67 149C153.82 149 152.95 148.82 152.73 148.6ZM161.4 148.6C160.46 147.66 161.17 147 163.11 147C165.46 147.01 166.46 147.88 165.02 148.65C164.14 149.13 161.89 149.09 161.4 148.6ZM65.22 144.44C65.1 144.32 65 143.95 65 143.61C65 143.08 65.29 143 67.15 143C69.37 143 70.01 143.35 69.32 144.18C68.91 144.68 65.66 144.89 65.22 144.44ZM73.7 144.36C73.45 144.2 73.33 143.83 73.44 143.53C73.6 143.13 74.11 143 75.57 143.01C77.9 143.01 78.66 143.37 78.02 144.14C77.54 144.72 74.51 144.88 73.7 144.36ZM81.2 144.14C80.86 143.24 81.3 143 83.33 143C85.39 143 86 143.36 85.32 144.18C84.74 144.88 81.47 144.85 81.2 144.14ZM89.89 144.44C89.77 144.32 89.67 143.95 89.67 143.61C89.67 143.08 89.95 143 91.81 143C94.04 143 94.68 143.35 93.99 144.18C93.58 144.68 90.33 144.89 89.89 144.44ZM98.2 144.14C97.86 143.24 98.3 143 100.33 143C102.39 143 103 143.36 102.32 144.18C101.74 144.88 98.47 144.85 98.2 144.14ZM123.89 144.44C123.77 144.32 123.67 143.95 123.67 143.61C123.67 143.08 123.95 143 125.81 143C128.04 143 128.68 143.35 127.99 144.18C127.58 144.68 124.33 144.89 123.89 144.44ZM132.2 144.14C131.86 143.24 132.3 143 134.33 143C136.39 143 137 143.36 136.32 144.18C135.74 144.88 132.47 144.85 132.2 144.14ZM140.89 144.44C140.77 144.32 140.67 143.95 140.67 143.61C140.67 143.08 140.95 143 142.81 143C145.04 143 145.68 143.35 144.99 144.18C144.58 144.68 141.33 144.89 140.89 144.44ZM148.2 144.14C147.86 143.24 148.3 143 150.33 143C152.39 143 153 143.36 152.32 144.18C151.74 144.88 148.47 144.85 148.2 144.14ZM156.79 144.18C156.46 143.3 157.02 143 159 143C161.05 143 161.67 143.36 160.99 144.18C160.43 144.85 157.05 144.85 156.79 144.18ZM165.56 144.44C165.43 144.32 165.33 143.95 165.33 143.61C165.33 143.08 165.62 143 167.48 143C169.71 143 170.35 143.35 169.65 144.18C169.24 144.68 166 144.89 165.56 144.44ZM41.94 132.75C41.28 131.97 40.16 129.72 39.89 128.6C39.7 127.85 39.81 127.64 40.58 127.26L41.5 126.82L41.58 87.28L41.67 47.73L40.67 47.38C40.12 47.19 39.67 46.85 39.67 46.63C39.67 46.4 40.14 45.2 40.72 43.94C42.14 40.85 42.77 40.86 44.3 43.97C45.51 46.42 45.5 47.22 44.27 47.39L43.5 47.5L43.41 86.67C43.36 108.21 43.4 126.17 43.5 126.58C43.61 127.05 43.93 127.33 44.35 127.33C45.46 127.33 45.45 128.18 44.32 130.48C43 133.15 42.61 133.53 41.94 132.75ZM414.67 128.76C414.67 128.45 415.22 127.63 415.89 126.94C417.17 125.64 417.18 125.7 415.5 125.18C414.53 124.87 415.02 124.33 416.27 124.33C418.23 124.33 418.93 125.45 417.76 126.74C417.29 127.26 417.27 127.48 417.61 128.03C418.21 128.99 417.82 129.33 416.15 129.33C414.97 129.33 414.67 129.22 414.67 128.76ZM408.13 124.85C408.02 124.58 408.16 123.64 408.44 122.76C408.72 121.88 409.04 120.57 409.16 119.83C409.56 117.36 410.07 116.33 410.9 116.33C411.55 116.33 411.67 116.51 411.67 117.44C411.67 118.48 411.73 118.54 412.63 118.41C413.31 118.31 413.81 118.48 414.32 118.99C414.98 119.64 415.03 119.93 414.82 121.94C414.58 124.29 413.99 125.33 412.91 125.33C412.35 125.33 412.29 125.17 412.46 124.25C413.15 120.65 413.14 120.33 412.29 120.34C411.1 120.35 410.84 120.67 410.39 122.64C410.17 123.64 409.82 124.65 409.62 124.89C409.13 125.48 408.36 125.45 408.13 124.85ZM26.25 89.42C25.62 89.27 25.45 88.17 26 87.83C26.42 87.58 26.43 86.33 26.02 85.68C25.75 85.26 25.62 85.27 25.08 85.76C24.73 86.08 24.18 86.33 23.85 86.33C23.36 86.33 23.29 86.14 23.46 85.25C24.15 81.65 24.14 81.33 23.29 81.34C22.09 81.35 21.77 81.7 21.51 83.33C21.23 85.09 20.53 86.33 19.82 86.33C19.02 86.33 18.89 85.45 19.43 83.75C19.7 82.88 20.03 81.57 20.15 80.83C20.57 78.33 21.07 77.33 21.9 77.33C22.55 77.33 22.67 77.51 22.67 78.44C22.67 79.48 22.73 79.54 23.63 79.41C24.31 79.31 24.81 79.48 25.32 79.99C25.95 80.62 26.01 80.94 25.82 82.5C25.6 84.27 25.6 84.28 26.55 84.39C27.44 84.49 27.5 84.59 27.5 86.03C27.5 86.87 27.69 87.79 27.92 88.07C28.26 88.48 28.26 88.64 27.92 88.9C27.22 89.44 26.86 89.56 26.25 89.42ZM32.88 38.1C32.5 37.73 32.65 37.33 33.17 37.33C33.44 37.33 33.67 37.47 33.67 37.65C33.67 38.07 33.15 38.37 32.88 38.1ZM35.23 38.12C34.79 37.68 35 37.33 35.69 37.33C36.08 37.33 36.33 37.51 36.26 37.73C36.09 38.22 35.54 38.43 35.23 38.12ZM37.33 37.86C37.33 37.57 37.57 37.33 37.86 37.33C38.45 37.33 38.35 38.05 37.73 38.26C37.51 38.33 37.33 38.15 37.33 37.86ZM39.33 37.86C39.33 37.57 39.57 37.33 39.86 37.33C40.45 37.33 40.35 38.05 39.73 38.26C39.51 38.33 39.33 38.15 39.33 37.86ZM41.55 38.1C41.17 37.73 41.32 37.33 41.83 37.33C42.11 37.33 42.33 37.47 42.33 37.65C42.33 38.07 41.81 38.37 41.55 38.1ZM43.83 38C43.72 37.81 43.87 37.57 44.16 37.46C44.8 37.21 45.15 37.48 44.85 37.98C44.57 38.43 44.1 38.43 43.83 38ZM46.33 37.86C46.33 37.57 46.57 37.33 46.86 37.33C47.15 37.33 47.33 37.51 47.26 37.73C47.05 38.35 46.33 38.45 46.33 37.86ZM48.33 37.86C48.33 37.57 48.57 37.33 48.86 37.33C49.15 37.33 49.33 37.51 49.26 37.73C49.05 38.35 48.33 38.45 48.33 37.86ZM50.33 37.86C50.33 37.57 50.57 37.33 50.86 37.33C51.15 37.33 51.33 37.51 51.26 37.73C51.05 38.35 50.33 38.45 50.33 37.86ZM52.55 38.1C52.17 37.73 52.32 37.33 52.83 37.33C53.11 37.33 53.33 37.47 53.33 37.65C53.33 38.07 52.81 38.37 52.55 38.1ZM55.21 38.1C54.84 37.73 54.98 37.33 55.5 37.33C55.77 37.33 56 37.47 56 37.65C56 38.07 55.48 38.37 55.21 38.1ZM57.33 37.86C57.33 37.57 57.57 37.33 57.86 37.33C58.15 37.33 58.33 37.51 58.26 37.73C58.05 38.35 57.33 38.45 57.33 37.86ZM59.33 37.86C59.33 37.57 59.57 37.33 59.86 37.33C60.15 37.33 60.33 37.51 60.26 37.73C60.05 38.35 59.33 38.45 59.33 37.86ZM61.33 37.86C61.33 37.57 61.57 37.33 61.86 37.33C62.15 37.33 62.33 37.51 62.26 37.73C62.05 38.35 61.33 38.45 61.33 37.86ZM63.55 38.1C63.17 37.73 63.32 37.33 63.83 37.33C64.11 37.33 64.33 37.47 64.33 37.65C64.33 38.07 63.81 38.37 63.55 38.1ZM66.21 38.1C65.84 37.73 65.98 37.33 66.5 37.33C66.77 37.33 67 37.47 67 37.65C67 38.07 66.48 38.37 66.21 38.1ZM68.33 37.86C68.33 37.57 68.57 37.33 68.86 37.33C69.15 37.33 69.33 37.51 69.26 37.73C69.05 38.35 68.33 38.45 68.33 37.86ZM70.33 37.86C70.33 37.57 70.57 37.33 70.86 37.33C71.15 37.33 71.33 37.51 71.26 37.73C71.05 38.35 70.33 38.45 70.33 37.86ZM72.33 37.86C72.33 37.57 72.57 37.33 72.86 37.33C73.15 37.33 73.33 37.51 73.26 37.73C73.05 38.35 72.33 38.45 72.33 37.86ZM74.67 37.85C74.67 37.57 74.82 37.33 75 37.33C75.18 37.33 75.33 37.47 75.33 37.65C75.33 37.82 75.18 38.05 75 38.17C74.82 38.28 74.67 38.14 74.67 37.85ZM77.21 38.1C76.84 37.73 76.98 37.33 77.5 37.33C77.77 37.33 78 37.47 78 37.65C78 38.07 77.48 38.37 77.21 38.1ZM79.33 37.86C79.33 37.57 79.57 37.33 79.86 37.33C80.15 37.33 80.33 37.51 80.26 37.73C80.05 38.35 79.33 38.45 79.33 37.86ZM81.33 37.86C81.33 37.57 81.57 37.33 81.86 37.33C82.15 37.33 82.33 37.51 82.26 37.73C82.05 38.35 81.33 38.45 81.33 37.86ZM83.33 37.86C83.33 37.57 83.57 37.33 83.86 37.33C84.15 37.33 84.33 37.51 84.26 37.73C84.05 38.35 83.33 38.45 83.33 37.86ZM85.67 37.85C85.67 37.57 85.82 37.33 86 37.33C86.18 37.33 86.33 37.47 86.33 37.65C86.33 37.82 86.18 38.05 86 38.17C85.82 38.28 85.67 38.14 85.67 37.85ZM88.21 38.1C87.84 37.73 87.98 37.33 88.5 37.33C88.77 37.33 89 37.47 89 37.65C89 38.07 88.48 38.37 88.21 38.1ZM90.33 37.86C90.33 37.57 90.57 37.33 90.86 37.33C91.45 37.33 91.35 38.05 90.73 38.26C90.51 38.33 90.33 38.15 90.33 37.86ZM92.33 37.86C92.33 37.57 92.57 37.33 92.86 37.33C93.45 37.33 93.35 38.05 92.73 38.26C92.51 38.33 92.33 38.15 92.33 37.86ZM94.33 37.86C94.33 37.57 94.57 37.33 94.86 37.33C95.45 37.33 95.35 38.05 94.73 38.26C94.51 38.33 94.33 38.15 94.33 37.86ZM96.67 38C96.67 37.82 96.83 37.67 97.02 37.67C97.21 37.67 97.28 37.82 97.17 38C97.05 38.18 96.89 38.33 96.81 38.33C96.73 38.33 96.67 38.18 96.67 38ZM99.21 38.1C98.84 37.73 98.98 37.33 99.5 37.33C99.77 37.33 100 37.47 100 37.65C100 38.07 99.48 38.37 99.21 38.1ZM101.33 37.86C101.33 37.57 101.57 37.33 101.86 37.33C102.15 37.33 102.33 37.51 102.26 37.73C102.05 38.35 101.33 38.45 101.33 37.86ZM103.33 37.86C103.33 37.57 103.57 37.33 103.86 37.33C104.45 37.33 104.35 38.05 103.73 38.26C103.51 38.33 103.33 38.15 103.33 37.86ZM105.33 37.86C105.33 37.57 105.57 37.33 105.86 37.33C106.45 37.33 106.35 38.05 105.73 38.26C105.51 38.33 105.33 38.15 105.33 37.86ZM110.33 37.85C110.33 37.57 110.48 37.33 110.67 37.33C110.85 37.33 111 37.47 111 37.65C111 37.82 110.85 38.05 110.67 38.17C110.48 38.28 110.33 38.14 110.33 37.85ZM112.33 37.86C112.33 37.57 112.57 37.33 112.86 37.33C113.45 37.33 113.35 38.05 112.73 38.26C112.51 38.33 112.33 38.15 112.33 37.86ZM114.33 37.86C114.33 37.57 114.57 37.33 114.86 37.33C115.45 37.33 115.35 38.05 114.73 38.26C114.51 38.33 114.33 38.15 114.33 37.86ZM123.33 37.86C123.33 37.57 123.57 37.33 123.86 37.33C124.45 37.33 124.35 38.05 123.73 38.26C123.51 38.33 123.33 38.15 123.33 37.86ZM125.33 37.86C125.33 37.57 125.57 37.33 125.86 37.33C126.45 37.33 126.35 38.05 125.73 38.26C125.51 38.33 125.33 38.15 125.33 37.86ZM127.67 37.85C127.67 37.57 127.82 37.33 128 37.33C128.18 37.33 128.33 37.47 128.33 37.65C128.33 37.82 128.18 38.05 128 38.17C127.82 38.28 127.67 38.14 127.67 37.85ZM132.33 37.85C132.33 37.57 132.48 37.33 132.67 37.33C132.85 37.33 133 37.47 133 37.65C133 37.82 132.85 38.05 132.67 38.17C132.48 38.28 132.33 38.14 132.33 37.85ZM134.33 37.86C134.33 37.57 134.57 37.33 134.86 37.33C135.45 37.33 135.35 38.05 134.73 38.26C134.51 38.33 134.33 38.15 134.33 37.86ZM136.33 37.86C136.33 37.57 136.57 37.33 136.86 37.33C137.45 37.33 137.35 38.05 136.73 38.26C136.51 38.33 136.33 38.15 136.33 37.86ZM138.67 37.81C138.67 37.53 138.82 37.39 139.01 37.5C139.19 37.62 139.26 37.85 139.15 38.02C138.87 38.49 138.67 38.4 138.67 37.81ZM305.55 38.1C305.17 37.73 305.32 37.33 305.83 37.33C306.11 37.33 306.33 37.47 306.33 37.65C306.33 38.07 305.81 38.37 305.55 38.1ZM308.21 38.1C307.84 37.73 307.98 37.33 308.5 37.33C308.77 37.33 309 37.47 309 37.65C309 38.07 308.48 38.37 308.21 38.1ZM310.33 37.86C310.33 37.57 310.57 37.33 310.86 37.33C311.15 37.33 311.33 37.51 311.26 37.73C311.05 38.35 310.33 38.45 310.33 37.86ZM312.33 37.86C312.33 37.57 312.57 37.33 312.86 37.33C313.15 37.33 313.33 37.51 313.26 37.73C313.05 38.35 312.33 38.45 312.33 37.86ZM314.33 37.86C314.33 37.57 314.57 37.33 314.86 37.33C315.15 37.33 315.33 37.51 315.26 37.73C315.05 38.35 314.33 38.45 314.33 37.86ZM316.55 38.1C316.17 37.73 316.32 37.33 316.83 37.33C317.11 37.33 317.33 37.47 317.33 37.65C317.33 38.07 316.81 38.37 316.55 38.1ZM319.21 38.1C318.84 37.73 318.98 37.33 319.5 37.33C319.77 37.33 320 37.47 320 37.65C320 38.07 319.48 38.37 319.21 38.1ZM321.33 37.86C321.33 37.57 321.57 37.33 321.86 37.33C322.15 37.33 322.33 37.51 322.26 37.73C322.05 38.35 321.33 38.45 321.33 37.86ZM323.33 37.86C323.33 37.57 323.57 37.33 323.86 37.33C324.15 37.33 324.33 37.51 324.26 37.73C324.05 38.35 323.33 38.45 323.33 37.86ZM325.33 37.86C325.33 37.57 325.57 37.33 325.86 37.33C326.15 37.33 326.33 37.51 326.26 37.73C326.05 38.35 325.33 38.45 325.33 37.86ZM327.67 37.85C327.67 37.57 327.82 37.33 328 37.33C328.18 37.33 328.33 37.47 328.33 37.65C328.33 37.82 328.18 38.05 328 38.17C327.82 38.28 327.67 38.14 327.67 37.85ZM330.21 38.1C329.84 37.73 329.98 37.33 330.5 37.33C330.77 37.33 331 37.47 331 37.65C331 38.07 330.48 38.37 330.21 38.1ZM332.33 37.86C332.33 37.57 332.57 37.33 332.86 37.33C333.15 37.33 333.33 37.51 333.26 37.73C333.05 38.35 332.33 38.45 332.33 37.86ZM334.33 37.86C334.33 37.57 334.57 37.33 334.86 37.33C335.15 37.33 335.33 37.51 335.26 37.73C335.05 38.35 334.33 38.45 334.33 37.86ZM336.33 37.86C336.33 37.57 336.57 37.33 336.86 37.33C337.15 37.33 337.33 37.51 337.26 37.73C337.05 38.35 336.33 38.45 336.33 37.86ZM338.67 37.83C338.67 37.53 338.83 37.33 339.02 37.4C339.22 37.46 339.38 37.66 339.38 37.83C339.38 38.01 339.22 38.2 339.02 38.27C338.83 38.34 338.67 38.14 338.67 37.83ZM341.21 38.1C340.84 37.73 340.98 37.33 341.5 37.33C341.77 37.33 342 37.47 342 37.65C342 38.07 341.48 38.37 341.21 38.1ZM343.33 37.86C343.33 37.57 343.57 37.33 343.86 37.33C344.45 37.33 344.35 38.05 343.73 38.26C343.51 38.33 343.33 38.15 343.33 37.86ZM345.33 37.86C345.33 37.57 345.57 37.33 345.86 37.33C346.45 37.33 346.35 38.05 345.73 38.26C345.51 38.33 345.33 38.15 345.33 37.86ZM347.33 37.86C347.33 37.57 347.57 37.33 347.86 37.33C348.15 37.33 348.33 37.51 348.26 37.73C348.05 38.35 347.33 38.45 347.33 37.86ZM358.55 38.1C358.17 37.73 358.32 37.33 358.83 37.33C359.11 37.33 359.33 37.47 359.33 37.65C359.33 38.07 358.81 38.37 358.55 38.1ZM360.83 38C360.72 37.82 360.87 37.67 361.17 37.67C361.46 37.67 361.61 37.82 361.5 38C361.39 38.18 361.24 38.33 361.17 38.33C361.1 38.33 360.95 38.18 360.83 38ZM363.33 37.85C363.33 37.57 363.48 37.33 363.67 37.33C363.85 37.33 364 37.47 364 37.65C364 37.82 363.85 38.05 363.67 38.17C363.48 38.28 363.33 38.14 363.33 37.85ZM365.33 37.86C365.33 37.57 365.57 37.33 365.86 37.33C366.15 37.33 366.33 37.51 366.26 37.73C366.05 38.35 365.33 38.45 365.33 37.86ZM367.33 37.86C367.33 37.57 367.57 37.33 367.86 37.33C368.45 37.33 368.35 38.05 367.73 38.26C367.51 38.33 367.33 38.15 367.33 37.86ZM369.55 38.1C369.17 37.73 369.32 37.33 369.83 37.33C370.11 37.33 370.33 37.47 370.33 37.65C370.33 38.07 369.81 38.37 369.55 38.1ZM374.33 37.83C374.33 37.53 374.49 37.33 374.69 37.4C374.89 37.46 375.05 37.66 375.05 37.83C375.05 38.01 374.89 38.2 374.69 38.27C374.49 38.34 374.33 38.14 374.33 37.83ZM376.33 37.86C376.33 37.57 376.57 37.33 376.86 37.33C377.15 37.33 377.33 37.51 377.26 37.73C377.05 38.35 376.33 38.45 376.33 37.86ZM378.33 37.86C378.33 37.57 378.57 37.33 378.86 37.33C379.45 37.33 379.35 38.05 378.73 38.26C378.51 38.33 378.33 38.15 378.33 37.86ZM380.55 38.1C380.17 37.73 380.32 37.33 380.83 37.33C381.11 37.33 381.33 37.47 381.33 37.65C381.33 38.07 380.81 38.37 380.55 38.1ZM385.33 37.83C385.33 37.53 385.49 37.33 385.69 37.4C385.89 37.46 386.05 37.66 386.05 37.83C386.05 38.01 385.89 38.2 385.69 38.27C385.49 38.34 385.33 38.14 385.33 37.83ZM387.33 37.86C387.33 37.57 387.57 37.33 387.86 37.33C388.45 37.33 388.35 38.05 387.73 38.26C387.51 38.33 387.33 38.15 387.33 37.86ZM389.33 37.86C389.33 37.57 389.57 37.33 389.86 37.33C390.45 37.33 390.35 38.05 389.73 38.26C389.51 38.33 389.33 38.15 389.33 37.86ZM391.67 37.81C391.67 37.53 391.82 37.39 392.01 37.5C392.19 37.62 392.26 37.85 392.15 38.02C391.87 38.49 391.67 38.4 391.67 37.81ZM396.33 37.83C396.33 37.53 396.49 37.33 396.69 37.4C396.89 37.46 397.05 37.66 397.05 37.83C397.05 38.01 396.89 38.2 396.69 38.27C396.49 38.34 396.33 38.14 396.33 37.83ZM398.33 37.86C398.33 37.57 398.57 37.33 398.86 37.33C399.45 37.33 399.35 38.05 398.73 38.26C398.51 38.33 398.33 38.15 398.33 37.86ZM400.33 37.86C400.33 37.57 400.57 37.33 400.86 37.33C401.15 37.33 401.33 37.51 401.26 37.73C401.05 38.35 400.33 38.45 400.33 37.86ZM402.67 38C402.67 37.82 402.83 37.67 403.02 37.67C403.21 37.67 403.28 37.82 403.17 38C403.05 38.18 402.89 38.33 402.81 38.33C402.73 38.33 402.67 38.18 402.67 38ZM405.17 38C405.05 37.82 405.2 37.67 405.5 37.67C405.8 37.67 405.95 37.82 405.83 38C405.72 38.18 405.57 38.33 405.5 38.33C405.43 38.33 405.28 38.18 405.17 38ZM407.33 37.83C407.33 37.53 407.49 37.33 407.69 37.4C407.89 37.46 408.05 37.66 408.05 37.83C408.05 38.01 407.89 38.2 407.69 38.27C407.49 38.34 407.33 38.14 407.33 37.83ZM409.33 37.86C409.33 37.57 409.57 37.33 409.86 37.33C410.45 37.33 410.35 38.05 409.73 38.26C409.51 38.33 409.33 38.15 409.33 37.86ZM411.33 37.86C411.33 37.57 411.57 37.33 411.86 37.33C412.45 37.33 412.35 38.05 411.73 38.26C411.51 38.33 411.33 38.15 411.33 37.86ZM413.67 38C413.67 37.82 413.83 37.67 414.02 37.67C414.21 37.67 414.28 37.82 414.17 38C414.05 38.18 413.89 38.33 413.81 38.33C413.73 38.33 413.67 38.18 413.67 38ZM188.56 27.11C188.28 26.83 188.26 19.58 188.54 18.86C188.8 18.17 191.99 18.14 193.31 18.82C195.77 20.1 194.66 23.68 191.61 24.3C190.65 24.5 190.5 24.67 190.47 25.55C190.45 26.11 190.33 26.74 190.2 26.95C189.94 27.37 188.91 27.47 188.56 27.11ZM192.34 21.83C193.1 21.01 193.11 20.99 192.48 20.51C191.09 19.46 190.05 20.14 190.47 21.83C190.74 22.89 191.34 22.89 192.34 21.83Z" fill="#1e2749" fill-rule="evenodd"/>
</svg>
