<?xml version="1.0" encoding="UTF-8"?>
<svg xmlns="http://www.w3.org/2000/svg" viewBox="0 0 2430 1204" width="2430" height="1204" shape-rendering="geometricPrecision">
<path d="M132 1155.4C124.19 1153.3 119.49 1149.82 114.91 1142.75C107.16 1130.74 106.22 1120.48 111.8 1108.69C117.22 1097.22 126.74 1090.51 139.21 1089.34C150.38 1088.3 161.75 1093.02 168.86 1101.65C170.52 1103.66 173.47 1108.61 175.41 1112.65L178.95 1120L932.43 1120L1685.91 1120L1690.45 1111.21C1695.94 1100.56 1700.53 1095.89 1710.17 1091.11L1717.5 1087.47L1717.65 857.74C1717.74 731.38 1717.51 627.83 1717.15 627.63C1716.79 627.42 1713.15 627.67 1709.05 628.17C1700.27 629.24 1689.43 632.8 1679 638.02C1669.08 642.98 1663.97 644.4 1662.23 642.66C1659.73 640.16 1662.33 637.86 1674.38 631.94C1702.53 618.11 1727.21 616.13 1753.43 625.59C1766.52 630.31 1780.25 639.17 1778.61 641.83C1777.21 644.09 1772.15 642.96 1763.86 638.55C1753.7 633.15 1738.39 628 1732.46 628L1728.11 628L1728.09 858.01L1728.08 1088.02L1734.49 1090.92C1745.43 1095.88 1753.3 1104.68 1756.41 1115.45L1757.59 1119.5L2000.54 1119.5L2243.49 1119.5L2248.49 1110.17C2257.58 1093.23 2261.82 1090.5 2279 1090.5C2289.2 1090.5 2291.06 1090.78 2295.46 1092.96C2302.09 1096.24 2307.64 1101.98 2310.83 1108.85C2313 1113.52 2313.44 1115.91 2313.42 1122.64C2313.39 1129.75 2312.98 1131.61 2310.16 1137.32C2304.23 1149.37 2293.26 1157.01 2281.93 1156.99C2265.46 1156.96 2255.97 1151.06 2248.59 1136.25L2244.97 1129L2001.07 1129L1757.16 1129L1755.58 1133.75C1750.89 1147.8 1737.75 1157 1722.35 1157C1707.18 1157 1695.52 1148.7 1690.39 1134.25L1688.53 1129L932.47 1129L176.41 1129L175.17 1133.67C173.49 1139.93 159.66 1153.99 153.38 1155.81C147.93 1157.39 138.79 1157.21 132 1155.4ZM149.57 1145.11C154.71 1142.77 160.27 1137.91 163.17 1133.23C164.92 1130.39 165.4 1128.16 165.35 1123.05C165.28 1114.89 162.58 1109.15 156.85 1105.01C152.2 1101.64 147.83 1100.5 140.17 1100.65C130.43 1100.86 124.95 1105 120.56 1115.51C114.84 1129.21 127.13 1146.82 142.5 1146.93C144.15 1146.95 147.33 1146.13 149.57 1145.11ZM2285.38 1145.79C2290.89 1144.18 2301.39 1133.85 2302.33 1129.12C2304.93 1116.03 2298.69 1105.06 2286.61 1101.48C2280.24 1099.59 2276.49 1099.61 2270.67 1101.6C2265.05 1103.51 2260.19 1108.79 2257.72 1115.66C2255.35 1122.28 2255.55 1126.71 2258.49 1132.61C2261.81 1139.27 2265.78 1142.89 2272.2 1145.1C2278.53 1147.29 2280.01 1147.37 2285.38 1145.79ZM112.5 1031.4C111.4 1031.14 109.46 1030.7 108.19 1030.43C106.35 1030.03 105.94 1029.37 106.19 1027.22C106.43 1025.12 107.18 1024.37 109.5 1023.87C113.41 1023.04 170.6 1023.04 174.5 1023.87C176.56 1024.31 177.6 1025.19 177.81 1026.69C178.42 1030.97 175.55 1031.39 144 1031.64C127.78 1031.78 113.6 1031.67 112.5 1031.4ZM2250.53 1031.3C2244.78 1030.81 2242.78 1029.52 2243.2 1026.6C2243.43 1025.05 2244.5 1024.35 2247.5 1023.82C2252.43 1022.95 2306.1 1022.79 2311.19 1023.63C2315.7 1024.38 2316.8 1026.65 2314.01 1029.43C2312.03 1031.42 2310.84 1031.5 2283.72 1031.61C2268.2 1031.68 2253.26 1031.54 2250.53 1031.3ZM1376.57 704.43C1373.47 701.32 1373.4 698.81 1375.97 681C1376.57 676.88 1377.22 660 1377.42 643.5C1377.62 627 1377.83 612.04 1377.89 610.25L1378 607L1383.87 607L1389.74 607L1390.39 612.75C1390.74 615.91 1390.98 626.83 1390.91 637C1390.77 657.49 1391.64 662.79 1395.66 665.95C1400.66 669.88 1407.53 668.26 1413.87 661.66C1418.39 656.96 1418.9 653.59 1418.96 628.25L1419 607L1423.85 607L1428.7 607L1429.41 631.5C1430.28 661.49 1430.84 665.61 1434.49 668.75C1436.94 670.85 1437.45 670.95 1439.36 669.7C1440.54 668.93 1442.09 667.1 1442.8 665.65C1444.11 663 1447 661.97 1447 664.16C1447 664.8 1445.83 667.32 1444.4 669.75C1441.73 674.32 1435.93 677.93 1431.22 677.98C1427.18 678.02 1422.19 675.26 1420.54 672.08C1418.49 668.11 1416.48 668.2 1410.43 672.52C1403.94 677.16 1397.23 679.18 1392.58 677.9C1390.65 677.36 1388.8 676.49 1388.48 675.96C1388.15 675.43 1387.01 675 1385.94 675C1383.57 675 1383.47 677.18 1385.48 685.5C1387.84 695.28 1387.49 699.66 1384.08 703.08C1380.78 706.37 1378.86 706.72 1376.57 704.43ZM148.97 693.35C143.91 688.78 134.99 675.41 131.72 667.5C121.63 643.09 122.16 611.36 133.05 587.26C138.41 575.39 149.67 561 153.6 561C155.37 561 154.14 563.62 147.58 573.79C137.98 588.67 134.95 600.13 134.26 624.14C133.71 643.42 134.5 650.55 138.61 663.41C141.74 673.23 146.04 681.92 151.11 688.71C157.33 697.03 156.07 699.77 148.97 693.35ZM223 695.54C223 694.71 225.09 690.98 227.65 687.26C240.5 668.57 246.27 644.01 244.06 617.45C242.41 597.67 237.15 582.81 226.88 568.88C221.83 562.02 221.03 560 223.37 560C227.56 560 238.15 573.27 244.5 586.5C251.14 600.31 253.41 611.34 253.35 629.5C253.31 642.52 252.95 645.79 250.64 654.3C246.68 668.88 240.56 680.16 231.08 690.33C225.76 696.03 223 697.82 223 695.54ZM2266.23 691.64C2250.85 675.38 2243.48 654.7 2243.55 628C2243.6 610.28 2245.8 600.36 2252.98 585.5C2257.92 575.28 2268.07 561.8 2271.29 561.18C2274.06 560.65 2273.32 562.73 2267.47 571.97C2255.5 590.84 2252.5 603.79 2253.29 633C2253.98 658.46 2256.27 666.85 2267.71 685.79C2274.56 697.14 2273.9 699.76 2266.23 691.64ZM2342 695.35C2342 694.41 2344.19 690.46 2346.87 686.57C2358.11 670.25 2361.78 658.18 2362.71 634.5C2363.67 609.81 2359.03 588.79 2349.55 574.91C2342.24 564.23 2339.73 559.94 2340.37 559.29C2341.33 558.34 2347.26 562.98 2351.74 568.17C2376.36 596.76 2379.54 646.84 2358.76 679.13C2354.78 685.32 2346.63 694.59 2343.88 696.06C2342.38 696.87 2342 696.72 2342 695.35ZM91.01 691.17C88.22 690.33 86.93 687 89.39 687C92.76 687 94.36 677.67 93.33 664.16C92.76 656.69 92.45 655.7 90.35 654.75C86.96 653.2 87.32 650.29 91 649.58C92.65 649.26 95.35 648.74 96.99 648.42C99.56 647.93 100.13 648.22 100.99 650.49C101.55 651.94 102 658.84 102.01 665.82C102.03 682.65 102.61 685.9 105.82 687.12C108.03 687.96 108.16 688.27 106.9 689.53C105.23 691.2 94.71 692.28 91.01 691.17ZM2197.5 690.19C2192.25 687.73 2186.43 681.17 2184.87 675.97C2183.27 670.61 2184.79 662.78 2188.54 657.12C2192.93 650.49 2202.95 646.83 2210.87 648.97C2216.42 650.46 2223.19 657.11 2225.54 663.37C2231.66 679.71 2213.07 697.5 2197.5 690.19ZM2210.91 687.54C2215.08 685.39 2217.2 679.95 2217.77 669.91L2218.27 661.2L2213.5 656.1C2208.26 650.5 2206.47 650.03 2200.09 652.58C2197.26 653.71 2195.83 655.03 2195.07 657.23C2193.67 661.24 2193.7 673.92 2195.12 679.57C2197.13 687.55 2204.1 691.07 2210.91 687.54ZM1226.82 677.61C1216.52 674.83 1210.47 666.07 1207.41 649.5C1204.45 633.48 1206.91 606.76 1212.31 596.36C1214.37 592.38 1220.35 587.66 1225.38 586.02C1227.76 585.25 1232.26 584.93 1236.98 585.21C1246.29 585.74 1250.46 587.95 1254.96 594.75C1260.37 602.93 1262.25 610.71 1262.76 627.17C1263.48 650.25 1260.26 662.58 1251.14 671.7C1243.86 678.98 1237.59 680.51 1226.82 677.61ZM1296.5 678.12C1287.47 675.75 1281.01 669.01 1277.71 658.52C1275.76 652.34 1275.5 649.3 1275.5 633C1275.5 611.92 1276.96 603.79 1282.35 594.86C1286.57 587.86 1291.92 585 1300.79 585C1310.59 585 1314.69 586.62 1321.16 593.04C1325.51 597.36 1327.19 599.92 1328.43 604.08C1332.49 617.74 1332.75 644.11 1328.94 656.41C1326.49 664.32 1320.71 672.5 1315.34 675.64C1310.66 678.39 1301.9 679.54 1296.5 678.12ZM1146.75 675.92C1145.79 675.36 1145 674.02 1145 672.95C1145 671.4 1145.7 671 1148.35 671C1153.16 671 1157.85 669.13 1159.27 666.64C1160.16 665.09 1160.59 655.01 1160.81 630.25C1161.16 591.34 1162.18 595.06 1151.8 597.2C1146.65 598.27 1145.78 598.21 1144.28 596.71C1141.97 594.39 1143.31 593.38 1150.41 592.08C1153.66 591.49 1158.72 589.66 1161.65 588C1164.57 586.35 1167.83 585 1168.89 585C1171.33 585 1171.49 587.09 1171.86 625.74C1172.17 657.67 1172.97 666.77 1175.6 668.7C1176.53 669.38 1179.94 670.23 1183.17 670.6C1189.52 671.32 1190.78 672.11 1188.55 673.96C1185.55 676.45 1150.48 678.09 1146.75 675.92ZM1462.48 676.06C1454.94 675.36 1453 674.64 1453 672.56C1453 671.11 1456.01 670.04 1460.13 670.01C1461.57 670.01 1463.29 669.35 1463.95 668.56C1464.82 667.51 1465.19 656.61 1465.32 627.88L1465.5 588.65L1459.25 587.26C1455.56 586.43 1453 585.34 1453 584.58C1453 582.73 1466.16 582 1499.57 582L1527.83 582L1528.98 587.25C1531.08 596.89 1532.23 610.17 1531.07 611.33C1529.58 612.82 1528.67 611.49 1526.68 604.89C1524.39 597.31 1521.27 592.9 1516.49 590.5C1513.14 588.82 1510.06 588.45 1497.41 588.16L1482.32 587.83L1481.66 600.66C1481.3 607.72 1481.01 616.6 1481 620.39L1481 627.28L1487.24 626.63C1498.24 625.48 1503.89 621.47 1505.49 613.68C1506.34 609.59 1508.39 610.93 1509.18 616.08C1510.04 621.75 1510.01 640.76 1509.12 643.93C1508.03 647.82 1506.18 647.52 1505.45 643.31C1503.97 634.91 1499.46 632 1487.89 632L1480.72 632L1481.46 650.25C1481.86 660.28 1482.4 668.83 1482.65 669.25C1482.91 669.66 1484.55 670 1486.31 670.01C1491.29 670.01 1497 671.92 1497 673.57C1497 674.38 1495.85 675.49 1494.43 676.02C1491.65 677.08 1473.75 677.1 1462.48 676.06ZM1241.74 670.63C1246.66 665.86 1248.92 658.04 1250.17 641.49C1251.47 624.27 1250.16 605.4 1247.2 598.72C1244.53 592.68 1239.86 589 1234.87 589C1228.73 589 1225.52 591.23 1222.33 597.73L1219.5 603.5L1219.5 629C1219.5 652.6 1219.67 655.03 1221.73 661.6C1225.87 674.75 1233.79 678.33 1241.74 670.63ZM1310.56 670.51C1312.37 668.59 1314.89 664.43 1316.15 661.26C1318.33 655.79 1318.45 654.22 1318.48 630.5L1318.5 605.5L1315.5 599.5C1310.14 588.77 1300.92 585.62 1294.58 592.34C1290.55 596.62 1289.22 600.97 1287.87 614.28C1286.5 627.87 1288.03 654.93 1290.62 662.86C1293.12 670.5 1296.92 674 1302.71 674C1306.62 674 1307.73 673.5 1310.56 670.51ZM43.58 663.51C41.42 662.75 38.29 660.75 36.63 659.09C34.01 656.47 33.54 655.17 33.19 649.59C32.84 644.2 33.45 640.83 36.86 629.24C39.11 621.6 41.07 613.8 41.22 611.92C41.49 608.66 41.33 608.49 37.95 608.2C33.65 607.84 32.02 609.41 27.62 618.15C23.84 625.67 21.37 627.2 22.44 621.38C23.45 615.82 28.16 607.87 32 605.25C38.82 600.59 48.6 603.24 50.96 610.37C51.92 613.29 51.54 615.33 47.94 626.61C43.74 639.73 42.22 648.74 43.39 653.44C44.89 659.39 50.88 661.69 56.8 658.59C69.1 652.14 78.29 626.94 72.14 616.51C69.78 612.52 69.33 607.07 71.2 605.2C72.94 603.46 77.53 603.73 79.13 605.66C81.19 608.15 80.61 622.84 78.07 632.47C74.59 645.69 65.61 659.07 57.64 662.93C52.7 665.32 49.08 665.47 43.58 663.51ZM181.94 664.06C177.01 662.55 175.15 660.99 173.96 657.37C172.36 652.53 173.16 646.52 178 626.86C180.2 617.95 181.8 610.47 181.56 610.23C181.33 609.99 178.41 609.48 175.08 609.08C171.76 608.69 168.76 608.09 168.42 607.75C166.95 606.28 169.39 605.21 175.13 604.8C182.9 604.23 184.01 602.96 186.92 591.31C189.66 580.34 191.09 578 195.05 578C196.71 578 198.3 578.63 198.6 579.39C198.89 580.16 198.37 585.22 197.43 590.64C196.5 596.06 195.68 601.15 195.62 601.94C195.54 602.9 197.03 603.67 200 604.23C209.94 606.08 209.74 605.99 207.56 607.58C206.37 608.45 203.18 609 199.35 609L193.08 609L192.07 612.75C183.92 643.07 181.63 659.07 185.33 659.81C189.24 660.6 192.12 658.74 197.56 651.92C202.9 645.23 205.43 643.1 206.61 644.28C207.51 645.17 203.11 652.88 199.28 657.11C193.8 663.17 187.4 665.74 181.94 664.06ZM2140.48 663.61C2136.23 661.75 2131.22 655.7 2130.42 651.45C2129.44 646.19 2130.53 640.14 2134.9 626.57C2137.04 619.93 2139.1 613.04 2139.48 611.25C2140.16 608.02 2140.14 608 2136.2 608C2131.61 608 2130.85 608.73 2126 617.83C2121.53 626.21 2119.43 627.19 2120.35 620.47C2121.19 614.33 2126.06 606.67 2130.45 604.59C2137.65 601.18 2144.94 603.22 2147.51 609.38C2149.08 613.12 2148.72 615.6 2144.79 628C2142.85 634.12 2141.6 640.53 2141.28 646C2140.83 653.66 2140.99 654.77 2142.96 657.25C2148.71 664.49 2160.2 657.2 2167.61 641.6C2169.48 637.66 2171.55 631.88 2172.21 628.75C2173.34 623.35 2173.26 622.77 2170.63 617.26C2168.68 613.19 2167.95 610.27 2168.18 607.48C2168.49 603.56 2168.56 603.5 2172.47 603.5C2175.7 603.5 2176.68 603.97 2177.71 606C2180.95 612.42 2177.92 630.45 2171.35 643.75C2163.14 660.36 2150.98 668.18 2140.48 663.61ZM2298.5 664.05C2291.03 661 2290.58 651.23 2296.78 626.5C2301.27 608.63 2301.38 609.22 2293.5 609.05C2284.59 608.86 2285.06 605.54 2294.1 604.72C2297.49 604.42 2300.91 603.52 2301.7 602.73C2302.49 601.94 2304.26 596.86 2305.64 591.45C2307.01 586.04 2308.57 580.8 2309.1 579.81C2310.31 577.56 2316.52 577.3 2317.35 579.46C2317.94 581.02 2316.81 589.31 2314.89 597.41C2313.84 601.81 2313.91 602.46 2315.55 603.66C2316.56 604.4 2319.25 605 2321.52 605C2326.26 605 2327.46 605.74 2325.87 607.66C2325.15 608.52 2322.5 609 2318.42 609L2312.08 609L2311.07 612.75C2305.77 632.6 2301.94 650.75 2302.2 654.8C2302.48 659.23 2302.68 659.52 2305.55 659.8C2308.99 660.14 2313.37 656.49 2319.08 648.54C2322.6 643.63 2326.24 642.28 2325.25 646.25C2323.39 653.7 2310.54 665.05 2304.09 664.94C2302.11 664.9 2299.6 664.5 2298.5 664.05ZM93.52 636.37C92.53 635.39 92.01 633.52 92.2 631.62C92.45 629.02 92.98 628.45 95.34 628.18C98.24 627.84 102 630.28 102 632.48C102 633.93 97.77 638 96.26 638C95.64 638 94.41 637.27 93.52 636.37ZM1675 590.15C1669.22 589.79 1663.94 589.13 1663.25 588.69C1662.56 588.25 1662 586.84 1662 585.57C1662 582.28 1664.39 582 1692 582C1709.8 582 1716.02 581.69 1716.79 580.75C1717.51 579.89 1717.78 508.29 1717.67 352.52L1717.5 125.55L1710.58 121.76C1697.51 114.62 1692.96 109.52 1690 98.74L1688.3 92.5L1515.48 92L1342.67 91.5L1341.26 84.5C1338.92 72.92 1332.89 63.13 1325.8 59.41C1319.58 56.16 1302.13 58.89 1300.4 63.39C1300.09 64.2 1300.95 66.81 1302.31 69.18C1307.06 77.5 1308.4 83.56 1308.45 97C1308.49 107.33 1308.1 110.76 1306.21 116.79C1303.27 126.13 1297.94 132 1292.38 132C1287.37 132 1281.78 126.36 1279.64 119.16C1275.74 106.01 1276.83 85.09 1282.08 72.52C1285.69 63.89 1285.71 62.64 1282.25 61.07C1275.9 58.16 1261.7 59.02 1260.41 62.38C1260.14 63.08 1260.88 65.87 1262.06 68.57C1266.65 79.13 1267.4 83.07 1267.45 97C1267.51 112.82 1265.93 119.43 1260.65 125.55C1257.41 129.29 1256.93 129.5 1251.52 129.5C1246.38 129.5 1245.57 129.2 1243.38 126.5C1238.79 120.83 1236.5 110.94 1236.53 97C1236.56 83.76 1237.69 77.78 1241.66 69.78C1244.84 63.37 1244.67 61.4 1240.75 59.36C1236.74 57.26 1226.72 57.01 1222.25 58.88C1217.94 60.69 1218.07 62.47 1223.25 72.88L1227.5 81.42L1227.5 96.46C1227.5 115.21 1225.94 121.32 1219.54 127.72C1216.13 131.13 1214.55 132 1211.77 132C1201.76 132 1195.77 118 1195.7 94.5C1195.67 80.71 1196.72 75.6 1201.64 65.79L1204 61.08L1198.82 59.54C1192.31 57.6 1189.68 57.61 1183.1 59.56C1178.8 60.84 1177.97 61.44 1178.57 62.81C1178.97 63.74 1180.86 68.55 1182.77 73.5L1186.24 82.5L1185.7 97C1185.03 115.1 1183.31 121.59 1177.85 126.51C1174.76 129.31 1173.18 130 1169.87 130C1166.47 130 1165.17 129.4 1162.57 126.64C1158.75 122.59 1157.22 117.84 1155.84 105.69C1154.03 89.82 1155.52 79.99 1161.6 67.57C1163.23 64.23 1163.97 61.62 1163.42 61.13C1161.49 59.4 1153.81 57 1150.23 57.01C1145.29 57.01 1139.01 58.81 1138.4 60.39C1138.14 61.08 1139.31 65.11 1141 69.33C1142.74 73.69 1144.55 80.7 1145.17 85.51C1147.78 105.75 1140.71 127.03 1130.52 129.58C1120.4 132.12 1114.99 119.98 1115.01 94.8C1115.02 81.07 1115.97 75.61 1119.88 66.67C1122.54 60.6 1122.53 60.39 1119.52 58.42C1115.37 55.7 1109.27 54.8 1103.33 56.04C1092.48 58.29 1084.21 68.06 1081.91 81.33C1081.23 85.27 1080.33 89.45 1079.91 90.62L1079.15 92.74L954.32 93.37C885.67 93.72 793.69 94.29 749.92 94.63L670.34 95.25L662.45 113.84C654.68 132.15 650.19 140.31 646.75 142.42C644.2 143.98 641.76 142.07 640.36 137.4C639.71 135.26 637.53 127.88 635.51 121C628.49 97.06 614.75 56.92 613.7 57.27C612.57 57.64 611.47 61.06 598.54 104.5C589.49 134.92 586.22 143.59 583.39 144.68C579.5 146.17 577.24 140.36 564.59 96.5C555.78 65.95 552.74 56.75 551.29 56.26C550.05 55.85 551.13 53 535.91 96.9C529.34 115.82 522.78 133.96 521.33 137.2C517.38 146 514.05 146.87 510.51 140.03C509.77 138.59 504.19 121 498.11 100.95C484.18 54.99 483.85 54 482.51 54C481.23 54 480.53 55.94 471.45 84.5C463.17 110.53 454.3 136.51 452.5 140.01C450.57 143.72 448.42 145.27 446.14 144.55C443.82 143.81 441.88 139.3 431.09 109.5C418.37 74.36 412.22 57.88 411.57 57.24C410.38 56.05 409.18 58.65 406.59 68C401.94 84.83 400.88 88.46 399.95 90.75L399.04 93L336.77 93.14C302.52 93.21 252.48 93.55 225.56 93.89L176.63 94.5L175.37 99.44C170.7 117.77 145.55 129.44 128.97 120.99C122.39 117.63 113.56 108.69 110.89 102.69C107.36 94.74 107.63 82.54 111.5 74.71C121.01 55.48 146.37 49.5 163.39 62.48C168.48 66.37 173.54 73.62 175.25 79.5L176.71 84.5L283.83 84.49C377.36 84.48 391.13 84.29 392.35 82.99C393.12 82.17 395.88 73.62 398.48 64C404.69 41.01 406 38 409.8 38C412.33 38 413.13 38.76 415.78 43.75C417.47 46.91 422.88 60.52 427.81 74C432.74 87.47 439.14 104.49 442.03 111.81C447.92 126.69 448.19 126.82 451.76 116.5C454.39 108.93 472.08 54.02 475.12 44C477.96 34.66 478.46 34 482.6 34C485.48 34 486.23 34.53 487.84 37.75C488.87 39.81 491.39 47.12 493.44 54C501.42 80.8 503.36 87.13 509.17 105.3C512.92 117.02 515.62 123.96 516.34 123.73C516.98 123.53 523.22 106.59 530.21 86.09C547.48 35.46 549.41 31.55 554.57 36.71C557.39 39.53 558.84 43.85 570.41 83.83C576.51 104.91 581.95 122.11 582.5 122.05C583.85 121.91 586.58 113.71 596.5 80C609.12 37.13 609.68 35.71 613.8 36.19C617.92 36.67 620.54 43.19 634.14 86.77C643.66 117.29 646.65 125.76 647.56 124.77C648.21 124.07 651.77 116.3 655.48 107.5C659.2 98.7 662.83 90.54 663.56 89.37C664.76 87.44 666.13 87.18 678.69 86.48C686.29 86.06 777.76 85.44 881.98 85.11L1071.45 84.5L1073.56 76.23C1077.32 61.45 1085.94 51.9 1099.14 47.89C1107.81 45.26 1113.68 45.82 1123.22 50.19L1129.94 53.27L1136.22 50.88C1145.18 47.48 1155.74 47.66 1163.25 51.34C1169.93 54.6 1171.54 54.63 1178.78 51.61C1188.24 47.67 1189.77 47.62 1200.74 50.87L1210.75 53.85L1219.62 50.78C1227.86 47.92 1228.94 47.78 1234.63 48.74C1238 49.31 1243.47 50.99 1246.78 52.48L1252.8 55.18L1257.53 53.09C1263.93 50.26 1278.08 50.21 1286 53C1293.14 55.51 1293.17 55.51 1302.27 51.97C1311.25 48.47 1319.08 47.82 1326.5 49.95C1336.13 52.71 1349 69.42 1349 79.16L1349 83.01L1518.21 82.75L1687.41 82.5L1690.77 76.5C1695.25 68.49 1701.23 62.54 1708.41 58.95C1713.34 56.49 1715.53 56 1721.62 56C1735.94 56 1747.36 62.91 1754.27 75.76L1758.17 83L2001.5 83L2244.84 83L2248.02 76.11C2251.97 67.53 2256.58 62.96 2265.23 59.05C2270.87 56.49 2273.21 56 2279.73 56C2290.81 55.99 2296.13 58.12 2303.51 65.49C2310.89 72.87 2313.34 78.93 2313.4 89.97C2313.46 102.94 2306.93 113.51 2294.77 120.1C2288.96 123.25 2287.85 123.5 2279.5 123.49C2269.17 123.48 2265.06 121.86 2257.26 114.68C2251.58 109.45 2248.73 104.98 2246.43 97.7L2244.63 92L2000.98 92L1757.32 92L1756.11 97.4C1753.84 107.55 1747.3 114.97 1734.85 121.51L1728.12 125.04L1728.31 353.27L1728.5 581.5L1752.29 582C1771.96 582.41 1776.24 582.76 1777.02 584C1778.37 586.13 1777.76 587.3 1774.48 588.9C1772.17 590.02 1763.04 590.35 1728.55 590.55C1704.87 590.69 1680.78 590.5 1675 590.15ZM1114.5 311.12C1101.53 307.74 1095.01 296.81 1092.85 274.85C1091.55 261.54 1092.93 244.93 1096.04 236.61C1098.57 229.86 1103.27 223.42 1108.04 220.17C1111.18 218.03 1112.33 217.85 1120.5 218.22C1130.11 218.66 1135.42 220.57 1139.69 225.16C1143.03 228.73 1146.77 237.75 1147.94 245C1150.23 259.24 1148.66 286.46 1145.08 294.55C1139.97 306.11 1125.46 313.97 1114.5 311.12ZM454.5 310.09C451.51 308.75 445.45 302.04 443.12 297.5C439.08 289.61 437.61 280.55 437.59 263.5C437.57 253.47 438.06 245.45 438.9 242C440.95 233.57 445.76 225.27 450.84 221.4C455 218.22 455.78 218 462.89 218.01C472.82 218.01 477.26 219.34 482.15 223.75C491.84 232.51 496.48 252.35 494.09 274.84C492.42 290.61 487.94 300.73 479.7 307.37C476.12 310.25 475.33 310.45 466.2 310.71C460.86 310.86 455.6 310.58 454.5 310.09ZM379.25 307.33C378.01 307.07 377 306.25 377 305.5C377 304.3 380.87 303.15 389.5 301.79C391.45 301.48 391.51 300.6 391.76 265.12L392.03 228.77L387.26 229.58C384.64 230.03 380.7 230.42 378.5 230.45C375.09 230.49 374.45 230.17 374.18 228.25C374 227.01 374 226 374.18 225.99C378.12 225.92 387.29 223.44 392.35 221.07C398.02 218.42 401.71 217.35 402.11 218.25C402.18 218.39 402.51 236.07 402.86 257.54C403.6 302.98 403.2 301.11 412.72 302.98C421.11 304.63 421.57 304.83 420.12 306.28C418.9 307.5 384.3 308.39 379.25 307.33ZM536.75 307.31C533.81 306.54 534.8 304.26 538.36 303.59C543.45 302.64 545.05 300.13 546.18 291.32C547.46 281.35 546.59 229.84 545.06 224.81C544.44 222.78 543.16 220.91 542.22 220.65C541.27 220.39 539.26 219.91 537.75 219.57C536.24 219.24 535 218.28 535 217.46C535 215.25 538.96 214.1 547.73 213.78L555.5 213.5L556 244.17C556.27 261.04 556.78 275.12 557.13 275.46C557.47 275.81 561.64 272.36 566.38 267.8C574.56 259.94 575.01 259.28 575.01 255.27C575 251.54 575.31 250.96 577.6 250.38C580.5 249.66 596.79 250.45 597.7 251.37C598.66 252.33 596.1 254.76 593.43 255.43C587.08 257.02 573 267.23 573 270.25C573 276.99 594.59 304 599.98 304C601.09 304 602 304.43 602 304.96C602 307.22 597.52 308.05 586.77 307.78C576.81 307.53 575.48 307.29 575.17 305.68C574.98 304.67 575.64 302.95 576.64 301.85C578.4 299.9 578.38 299.71 576.09 295.67C574.79 293.38 571.74 288.69 569.31 285.25C564.39 278.28 562.35 277.56 558.45 281.45C556.33 283.58 556 284.81 556.01 290.7C556.03 298.95 557.48 302.13 561.76 303.36C565.66 304.48 565.89 305.71 562.43 307.02C559.91 307.98 540.17 308.2 536.75 307.31ZM609 298C609 292.5 609.32 288 609.7 288C610.09 288 611.82 289.37 613.56 291.06C617.24 294.63 625.29 296.23 634.12 295.16C641.27 294.28 641.11 292.48 633.5 288.23C625.25 283.62 618.69 276.9 615.32 269.61C612.79 264.13 612.5 262.41 612.5 253C612.5 243.37 612.74 242.02 615.43 236.72C620.97 225.79 631.3 218.46 645.27 215.58C654.69 213.63 657.8 213.61 667.34 215.44C681.13 218.08 693.06 225.81 697.71 235.13C700.54 240.82 702.32 252.07 701.47 258.98C699.87 272.06 693.67 280.83 681 287.94C677.43 289.95 674.36 292.36 674.18 293.3C673.89 294.79 674.87 295 682.18 294.98C692.29 294.95 697.48 293.84 700.41 291.08C701.63 289.94 703.4 289 704.35 289C705.88 289 706.04 290.05 705.79 298.25L705.5 307.5L685.1 307.77L664.71 308.04L665.33 301.77C666.35 291.43 667.53 288.85 674.35 281.94C681.86 274.35 684.98 267.33 685.75 256.35C686.61 244.05 682.61 232.49 675.15 225.75C670.33 221.4 665.82 220.01 656.5 220.01C646.72 220.01 642.23 221.51 637.35 226.39C631.43 232.31 629.56 239.09 629.59 254.5C629.63 272.11 632.27 277.79 644.43 286.5C646.87 288.26 647.37 289.54 648.42 296.83C650.07 308.28 650.6 308 627.28 308L609 308L609 298ZM1034.75 307.28C1033.24 307.05 1032 306.26 1032 305.51C1032 304.19 1033.3 303.77 1041.5 302.4C1043.7 302.04 1046.06 301.29 1046.75 300.75C1047.71 299.99 1048 291.46 1048 264.25L1048 228.74L1043.75 229.4C1041.41 229.77 1037.82 230.34 1035.76 230.66C1033.41 231.04 1031.46 230.8 1030.51 230.01C1027.6 227.59 1028.89 226.23 1035.15 225.13C1038.54 224.53 1044.21 222.69 1047.76 221.02C1055.23 217.53 1056.67 217.34 1057.39 219.75C1057.68 220.71 1058.17 237.7 1058.49 257.5C1058.81 277.3 1059.33 294.98 1059.65 296.79C1060.35 300.72 1063.24 302.46 1070.75 303.48C1076.48 304.25 1077.43 305.51 1073.43 307.02C1070.99 307.95 1040.52 308.16 1034.75 307.28ZM1194.75 307.31C1192.18 306.64 1192.62 304.13 1195.43 303.43C1200.91 302.05 1201.38 300.4 1201.82 280.69C1202.29 259.48 1201.61 256.45 1195.99 254.62C1192.32 253.43 1190.81 250.37 1193.15 248.89C1195.24 247.56 1207.4 247.84 1209.25 249.25C1210.15 249.94 1211.03 252.03 1211.19 253.91L1211.5 257.31L1214.66 254.64C1219.19 250.82 1225.5 248.77 1233.21 248.63L1239.92 248.5L1244.79 253.3L1249.67 258.1L1254.46 254.13C1261.93 247.96 1271.73 246.33 1279.67 249.94C1281.97 250.98 1284.53 252.88 1285.37 254.17C1287.05 256.74 1288.51 267.47 1289.55 284.86C1290.46 299.94 1290.83 301.12 1295.44 303.32C1298.38 304.72 1298.99 305.41 1298.08 306.32C1296.75 307.65 1277.81 308.56 1272.41 307.55C1268.43 306.8 1267.84 304.33 1271.43 303.43C1276.87 302.06 1277.47 300.14 1277.84 282.74C1278.25 263.46 1277.65 258.55 1274.47 255.37C1271.68 252.59 1264.62 252.11 1260.2 254.4C1252.73 258.29 1250.94 264.08 1251.1 283.89C1251.22 299.68 1251.59 301.03 1256.42 303.32C1259.37 304.72 1259.99 305.41 1259.08 306.32C1257.75 307.65 1238.81 308.56 1233.41 307.55C1229.43 306.8 1228.84 304.33 1232.43 303.43C1233.76 303.09 1235.67 301.91 1236.68 300.81C1238.32 298.99 1238.5 296.71 1238.5 277.81L1238.5 256.83L1236.01 254.81C1232.83 252.23 1224.27 252.69 1220.21 255.65C1214.5 259.82 1213.48 263.83 1213.66 281.5C1213.83 298.31 1214.72 303 1217.78 303C1218.79 303 1220.49 303.64 1221.56 304.43C1223.43 305.8 1223.4 305.89 1220.68 306.93C1217.98 307.96 1198.35 308.25 1194.75 307.31ZM1308.25 307.29C1304.47 306.57 1305.66 304.31 1310.15 303.71C1315.74 302.96 1318.18 300.26 1319.1 293.8C1319.51 290.88 1319.89 273.55 1319.93 255.27L1320 222.04L1317.25 221.44C1311.17 220.12 1306.62 218.44 1306.29 217.4C1305.83 215.99 1315.17 214.98 1327.9 215.06C1338.81 215.12 1345.57 216.07 1345.36 217.52C1345.28 218.06 1342.75 219.37 1339.74 220.44L1334.26 222.37L1333.63 229.84C1333.28 233.94 1333 241.51 1333 246.65L1333 256L1352.44 256C1365.34 256 1372.11 255.63 1372.55 254.91C1373.36 253.61 1373.07 233.27 1372.15 227.08C1371.51 222.74 1371.4 222.63 1365.75 220.75C1357.92 218.14 1358.24 216.35 1366.7 215.44C1374.14 214.65 1395.44 215.41 1398.39 216.57C1400.22 217.3 1400.22 217.37 1398.45 218.66C1397.44 219.4 1395.92 220 1395.06 220.01C1394.2 220.01 1391.77 220.49 1389.66 221.08L1385.82 222.14L1386.17 259.32C1386.57 301.61 1386.61 301.87 1393.51 303.37C1400.34 304.85 1400.47 304.93 1399.12 306.28C1398.31 307.09 1393.03 307.62 1383.34 307.85C1366.97 308.24 1360 307.55 1360 305.55C1360 303.93 1361.34 303.37 1367.4 302.46C1370.43 302.01 1372.41 301.11 1373.06 299.88C1374.03 298.08 1374.23 268.47 1373.3 264.75C1372.9 263.16 1371.08 263 1352.93 263L1333 263L1333.01 280.25C1333.03 301.16 1333.36 302.13 1340.81 303.4C1346.27 304.33 1347.19 305.93 1342.93 307.12C1340.29 307.86 1311.91 308 1308.25 307.29ZM472.8 302.73C478.43 297.31 480.53 290.48 481.91 273.12C483.54 252.7 479.95 230.79 474 224.85C471.54 222.39 470.38 222 465.5 222C460.62 222 459.46 222.39 457.01 224.84C455.45 226.39 453.47 230.05 452.6 232.97C448.77 245.89 448.21 272.63 451.46 288.16C455.04 305.25 463.9 311.3 472.8 302.73ZM1126.1 304.71C1133.71 299.58 1137.11 287.17 1137.25 264C1137.34 249.02 1135.36 234.53 1132.45 228.91C1130.03 224.23 1126.28 222 1120.8 222C1114.57 222 1112.48 223.13 1110.12 227.78C1106.16 235.58 1104.5 246.46 1104.58 264C1104.68 286.79 1107.62 298.14 1115.03 304.37C1118.87 307.6 1121.68 307.69 1126.1 304.71ZM141.59 261.15C140.47 259.34 139.04 243.49 139.02 232.72C139.01 225.82 138.63 222.8 137.75 222.48C137.06 222.23 128.85 221.62 119.5 221.11C110.15 220.61 101.71 219.89 100.75 219.5C99.32 218.92 98.28 216.39 99.25 215.87C99.39 215.79 108.28 215.46 119 215.12L138.5 214.5L139 194.3C139.37 179.46 139.85 173.75 140.82 172.8C141.9 171.73 142.39 171.85 143.57 173.44C144.62 174.87 145.05 179.06 145.2 189.44C145.31 197.17 145.3 205.07 145.18 207C145.06 208.93 145.2 211.51 145.5 212.75C146.03 214.96 146.32 215 161.77 215.09C179.11 215.18 187.51 215.97 187.47 217.5C187.4 220.12 181.22 221.25 163.62 221.87L145.5 222.5L145.48 237C145.47 244.97 145.36 253.1 145.23 255.06C144.96 259.18 142.71 262.95 141.59 261.15ZM2278.57 260.33C2277.57 257.72 2276.07 239.96 2276.03 230.25L2276 222L2271.75 221.93C2258.82 221.71 2239.93 220.3 2237.51 219.37C2235.97 218.77 2235.39 216.11 2236.75 215.87C2237.16 215.8 2246.05 215.46 2256.5 215.12L2275.5 214.5L2276.14 194.34C2276.49 183.25 2277.08 173.68 2277.45 173.09C2278.47 171.43 2280.69 171.79 2281.58 173.75C2282.02 174.71 2282.56 184.33 2282.78 195.12L2283.18 214.73L2303.63 215.21C2325.69 215.71 2329.56 216.61 2322.47 219.58C2319.6 220.78 2313.95 221.34 2300.9 221.75L2283.21 222.29L2282.85 240.62C2282.55 255.78 2282.21 259.22 2280.88 260.55C2279.4 262.02 2279.22 262.01 2278.57 260.33ZM1297.52 115.62C1300.01 107.22 1300.53 92.55 1298.59 85.01C1295.46 72.84 1291.98 70.93 1288.57 79.51C1286.97 83.56 1286.58 86.96 1286.55 97.5C1286.49 112.05 1287.09 115.99 1290.05 120.86C1292.04 124.11 1292.17 124.16 1294.06 122.44C1295.14 121.47 1296.69 118.4 1297.52 115.62ZM1173.68 116.96C1178.25 107.6 1178.53 83.5 1174.16 75.07C1170.62 68.25 1168.11 70.67 1165 83.92C1163.09 92 1164.18 111.36 1166.88 117.47C1168.09 120.19 1169.5 122.02 1170.23 121.79C1170.93 121.58 1172.48 119.41 1173.68 116.96ZM1214.32 120.2C1221.25 112.54 1221 87.72 1213.85 73.71C1212.78 71.6 1211.35 70.04 1210.7 70.26C1210.04 70.47 1208.42 73.32 1207.11 76.57C1201.91 89.46 1203.93 116.96 1210.39 121.23C1212.02 122.32 1212.52 122.19 1214.32 120.2ZM1256.98 113.25C1259.08 105.94 1259.4 90.06 1257.59 83.01C1255.74 75.83 1253.66 72 1251.6 72C1250.86 72 1249.2 74.36 1247.91 77.25C1245.87 81.85 1245.58 84.1 1245.54 95.5C1245.49 110.13 1246.08 113.99 1249.12 118.97L1251.23 122.43L1253.57 119.71C1254.86 118.22 1256.39 115.31 1256.98 113.25ZM1131.98 116.79C1134.5 112.64 1137 101.62 1137 94.62C1137 84.45 1133.11 70 1130.37 70C1128.71 70 1126.08 75.02 1124.36 81.5C1121.76 91.23 1123.04 112.35 1126.53 117.69C1128.56 120.79 1129.66 120.6 1131.98 116.79ZM149.7 111.79C163 106.06 168.74 90.91 162.43 78.23C158.11 69.58 148.47 65.63 136.89 67.78C126.96 69.63 121.23 75.56 119.54 85.71C117.97 95.11 124.53 107.05 133.5 111.13C138.11 113.24 145.65 113.54 149.7 111.79ZM2288.79 111.09C2298.45 106.11 2304.45 94.56 2302.58 84.56C2301.6 79.34 2292.06 69.36 2286.65 67.9C2281.26 66.44 2272.04 67.43 2267 70C2260.95 73.09 2257.02 80.59 2257.03 89C2257.04 93.13 2257.71 96.96 2258.86 99.51C2260.88 103.94 2266.68 109.51 2271.42 111.58C2276 113.58 2284.43 113.34 2288.79 111.09Z" fill="#1e2749" fill-rule="evenodd"/>
</svg>
