<?xml version="1.0" encoding="UTF-8"?>
<svg xmlns="http://www.w3.org/2000/svg" viewBox="0 0 510 275" width="510" height="275" shape-rendering="geometricPrecision">
<path d="M65.49 242.92C65.4 242.69 65.3 234.17 65.25 224L65.17 205.5L53.5 205.42C42.08 205.34 41.82 205.32 41.25 204.63C40.5 203.72 40.51 202.58 41.28 201.88C41.82 201.39 43.14 201.33 53.21 201.33C61.57 201.33 64.64 201.23 64.93 200.93C65.24 200.62 65.33 181.11 65.33 115.14C65.33 39.26 65.28 29.72 64.83 29.54C64.55 29.44 63.92 29.43 63.41 29.53C62.88 29.63 62.23 29.51 61.85 29.22C61.26 28.79 61.24 28.64 61.63 27.79C61.87 27.26 63.12 23.68 64.4 19.83C65.68 15.99 66.87 12.57 67.04 12.25C67.42 11.56 68.33 11.47 68.33 12.13C68.33 12.38 69.55 16.23 71.03 20.67C72.87 26.18 73.61 28.85 73.38 29.09C73.19 29.27 72.28 29.5 71.35 29.59L69.67 29.75L69.67 70.38C69.67 92.72 69.73 111 69.81 111C70.01 111 70.95 108.93 73 104.04C78.15 91.73 86.75 77.4 95.9 65.9C99.83 60.95 108.53 52.15 112.17 49.44C115.52 46.95 118.36 45.26 120.5 44.49C121.42 44.16 122.32 43.78 122.5 43.64C123.22 43.11 127.12 42.59 129.09 42.75C136.84 43.41 142.81 50 148.34 64C149.76 67.59 150.59 70.05 152.82 77.17C153.68 79.92 154.58 82.77 154.81 83.5C155.04 84.23 155.49 85.73 155.82 86.83C156.14 87.93 156.59 89.43 156.82 90.17C157.04 90.9 157.49 92.4 157.82 93.5C158.14 94.6 158.59 96.1 158.82 96.83C159.37 98.63 159.97 100.63 162.34 108.67C164.6 116.29 164.35 115.51 167.98 126.5C169.44 130.9 170.95 135.32 171.34 136.33C171.73 137.34 172.18 138.54 172.33 139C172.49 139.46 172.94 140.66 173.33 141.67C173.73 142.67 174.17 143.88 174.32 144.33C175.6 148.24 182.96 163.9 186.23 169.67C186.6 170.31 187.55 172.03 188.34 173.5C190.26 177.01 194.77 183.68 198.06 187.83C204.4 195.86 211 199.84 216.04 198.67C218.5 198.11 221.72 196.3 224.28 194.05C229.12 189.81 236.23 180.16 240.73 171.72C241.47 170.31 243.26 166.99 244.69 164.33C246.98 160.07 249.94 154.12 258.75 136C267.03 118.98 285.51 82.61 290.26 74C290.72 73.17 291.5 71.75 292 70.83C295.67 64.09 297.12 61.61 299.29 58.34C305.92 48.35 310.09 45.3 314.59 47.18C320.95 49.84 323.88 62.17 326.83 98.67C327.11 102.24 327.57 107.79 327.84 111C328.11 114.21 328.56 119.61 328.84 123C331.05 149.5 333.96 167.22 337.84 177.83C338.51 179.67 339.14 181.47 339.24 181.83C339.61 183.24 343.72 191.25 344.92 192.87C347.82 196.83 349.28 198.46 351.12 199.86L353.07 201.33L362.07 201.33L371.08 201.33L373.03 200.15C374.11 199.49 376.22 197.81 377.72 196.4C382.94 191.49 386.02 187.71 394.64 175.64C396.72 172.73 401.44 167.91 403.08 167.03C404.83 166.09 406.16 166.26 406.72 167.49C407.25 168.64 406.97 169.09 404.5 171.02C402.75 172.4 400.89 174.64 395.27 182.13C387.74 192.14 383.54 197.23 381.15 199.23C380.34 199.92 379.67 200.67 379.67 200.9C379.67 201.51 460.33 201.54 460.93 200.93C461.15 200.71 461.33 199.81 461.33 198.93C461.33 197.76 461.46 197.33 461.82 197.33C462.45 197.33 478.42 202.65 478.76 202.98C478.91 203.11 478.79 203.43 478.5 203.67C477.95 204.13 462.63 209.33 461.83 209.33C461.5 209.33 461.34 208.79 461.27 207.42L461.17 205.5L416.79 205.42L372.42 205.33L370.54 206.16C368.73 206.96 365.66 207.75 362.78 208.14C360.48 208.46 354.58 207.1 352.47 205.77C351.91 205.41 326.58 205.35 210.81 205.42L69.83 205.5L69.75 223.97C69.69 236.93 69.55 242.57 69.29 242.89C68.81 243.47 65.7 243.49 65.49 242.92ZM205.56 200.83C205.62 200.64 205.15 200.21 204.52 199.87C202.89 198.99 197.37 193.91 195.26 191.33C191.43 186.68 187.5 180.81 184.76 175.67C183.83 173.92 182.45 171.45 181.7 170.17C180.37 167.9 179.69 166.54 176.93 160.69C174.21 154.92 170.86 147.3 170.32 145.67C170.17 145.21 169.73 144.01 169.33 143C168.94 141.99 168.49 140.79 168.33 140.33C168.18 139.88 167.73 138.67 167.35 137.67C166.51 135.49 162.89 124.62 161.36 119.67C160.76 117.74 160.08 115.57 159.84 114.83C159.61 114.1 159.16 112.6 158.83 111.5C158.51 110.4 158.06 108.9 157.82 108.17C157.59 107.43 157.14 105.93 156.83 104.83C156.53 103.73 156.08 102.23 155.85 101.5C155.62 100.77 155.17 99.27 154.85 98.17C154.53 97.07 154.08 95.57 153.85 94.83C153.36 93.26 152.72 91.1 151.32 86.33C149.55 80.29 145.69 68.51 144.5 65.5C140.01 54.16 135.35 48.29 129.83 47.02C128.07 46.62 125.49 47 122.44 48.13C115.48 50.71 103.64 61.93 94.53 74.59C91.5 78.8 87.17 85.51 85.01 89.33C80.88 96.63 76.09 106.73 74.34 111.83C72.34 117.66 71.9 119.14 70.85 123.67C69.93 127.65 69.68 137.28 69.67 169.22C69.67 194.29 69.75 200.98 70.08 201.11C70.94 201.46 205.44 201.17 205.56 200.83ZM345.51 200.99C345.63 200.79 345.05 199.85 344.23 198.89C340.84 194.92 338.23 190.42 335.4 183.67C333.08 178.12 331.84 173.73 329.83 164C327.24 151.42 325.33 134.31 322.83 101.33C320.31 68.02 317.32 52.79 312.96 50.98C312.14 50.64 311.83 50.7 310.5 51.49C307.78 53.08 302.29 60.72 297.38 69.75C294.62 74.81 294.23 75.52 294 75.83C293.87 76.02 292.37 78.87 290.67 82.17C288.97 85.47 286.9 89.44 286.08 91C284.36 94.27 276.47 109.74 270.95 120.67C267.28 127.94 263.64 135.37 257.33 148.5C252.03 159.54 248.23 167.06 246.25 170.44C245.2 172.25 244.33 173.77 244.33 173.83C244.33 174.11 240.06 181.14 238.16 184C235.31 188.26 230.78 193.85 228.27 196.17C226.62 197.7 224.98 198.92 222.38 200.55C222.32 200.59 222.37 200.78 222.49 200.98C222.79 201.47 345.2 201.48 345.51 200.99Z" fill="#1e2749" fill-rule="evenodd"/>
</svg>
