<?xml version="1.0" encoding="UTF-8"?>
<svg xmlns="http://www.w3.org/2000/svg" viewBox="0 0 2430 711" width="2430" height="711" shape-rendering="geometricPrecision">
<path d="M1488.37 662.01C1485.27 660.76 1482.63 656.6 1475.52 641.75C1465.18 620.17 1464.5 617.17 1464.5 593C1464.5 574.27 1464.7 571.85 1466.85 565C1470.03 554.87 1475.35 543.2 1481.34 533.25C1486.16 525.24 1486.42 525 1490.1 525C1492.18 525 1494.13 525.4 1494.43 525.88C1494.73 526.37 1492.79 531.2 1490.12 536.63C1482.19 552.76 1478.53 565.76 1477.14 582.73C1475.21 606.2 1479.77 628.9 1491.1 652.33C1494.75 659.87 1494.92 660.59 1493.33 661.75C1491.38 663.17 1491.26 663.18 1488.37 662.01ZM2361.25 662.34C2359.31 661.55 2359.7 659.92 2364.05 650.63C2370.04 637.86 2375.78 619.43 2377.1 608.8C2377.78 603.29 2378 594.41 2377.63 587C2376.74 568.87 2373.53 556.61 2364.86 538.16C2362.19 532.48 2360 527.19 2360 526.41C2360 524.76 2364.21 524.51 2366.99 526C2372.14 528.75 2384.53 553.91 2388.6 569.88C2392.8 586.31 2391.63 608.43 2385.62 626.27C2381.07 639.78 2370.09 659.81 2366.05 661.97C2364 663.07 2363.22 663.13 2361.25 662.34ZM1685.15 660.69C1684.26 659.61 1684.07 657.71 1684.54 654.56C1685.22 650.04 1685.26 650 1689.16 650C1691.92 650 1693.77 649.32 1695.38 647.71C1697.56 645.53 1697.7 644.48 1698.33 625.55C1698.7 614.62 1699 594.28 1699 580.34L1699 555L1704.25 555.02C1707.14 555.02 1710.12 555.42 1710.88 555.9C1712.03 556.63 1712.16 563.84 1711.69 599.64C1711.37 623.76 1710.65 644.69 1710.05 647.5C1708.1 656.67 1703.21 660.68 1692.84 661.65C1687.75 662.13 1686.19 661.93 1685.15 660.69ZM1635.5 632.06C1628 630.24 1624.21 626.98 1620.92 619.54C1616.68 609.96 1620.57 597.68 1629.5 592.44C1632.59 590.63 1638.01 589.09 1647.23 587.39C1654.53 586.05 1661.4 584.69 1662.5 584.36C1668.07 582.7 1669.47 577.93 1666.04 572.3C1663.17 567.59 1658.66 565.57 1651 565.57C1643.35 565.57 1638.63 567.67 1636.16 572.18C1632.51 578.86 1631.78 579.34 1626.56 578.56L1621.76 577.84L1622.23 573.63C1622.98 566.98 1626.98 561.65 1633.7 558.35C1638.9 555.79 1640.72 555.47 1651.38 555.16C1660.67 554.9 1664.21 555.19 1667.62 556.49C1672.72 558.44 1678.48 564.68 1679.43 569.29C1679.8 571.06 1680.5 584 1681 598.06C1681.5 612.11 1682.38 624.88 1682.97 626.43C1684.51 630.46 1682.84 632 1676.91 632C1671.78 632 1670 630.47 1670 626.07C1670 623.21 1667.9 623.47 1662.28 627.04C1654 632.29 1644.08 634.15 1635.5 632.06ZM1745.5 630.58C1737.84 627.39 1730.98 620.22 1727.98 612.26C1725.26 605.05 1724.25 589.89 1725.94 581.78C1727.55 574.04 1732.36 564.73 1736.28 561.74C1743.62 556.15 1747.29 555 1757.76 555C1766.32 555 1768.28 555.34 1772.74 557.56C1778.77 560.56 1783.84 565.87 1787.71 573.21C1790.39 578.29 1790.5 579.07 1790.5 593C1790.5 606.53 1790.33 607.87 1787.9 613.05C1782.15 625.29 1772.24 632.04 1759 632.7C1752.72 633.01 1750.52 632.67 1745.5 630.58ZM2041.5 630.58C2034.72 627.76 2028.47 621.67 2025.01 614.52C2020.71 605.63 2019.97 585.84 2023.53 575C2025.81 568.06 2031.7 561.02 2038 557.71C2043.27 554.94 2043.95 554.84 2054.5 555.2C2066.79 555.63 2069.4 556.56 2076.48 563.09C2084.78 570.74 2089.23 586.86 2087.04 601.33C2084.22 620.01 2072.13 631.85 2055 632.7C2048.73 633.01 2046.52 632.67 2041.5 630.58ZM2118.17 631.09C2104.38 626.33 2096.02 609.44 2097.31 588.95C2098.7 566.7 2108.87 554.66 2126.27 554.67C2133.59 554.68 2137.54 555.97 2142.87 560.13C2144.17 561.14 2145.63 561.73 2146.12 561.43C2146.6 561.13 2147 553.26 2147 543.94L2147 527L2151.8 527C2154.44 527 2157.14 527.54 2157.8 528.2C2158.7 529.1 2159 541.77 2159 579.05C2159 626.57 2158.92 628.76 2157.1 630.41C2155.82 631.57 2153.94 632.03 2151.35 631.82C2147.82 631.53 2147.47 631.23 2147.19 628.25C2146.8 624.25 2145.89 624.2 2141.19 627.92C2134.61 633.12 2127.05 634.16 2118.17 631.09ZM2193.34 631.57C2187.38 629.7 2183.41 626.55 2180.25 621.18L2177.5 616.5L2177.17 585.75L2176.85 555L2182.22 555C2185.18 555 2188.14 555.54 2188.8 556.2C2189.67 557.07 2190 564.6 2190 583.8C2190 613.1 2190.43 615.46 2196.42 619.11C2200.08 621.35 2207 621.58 2210.8 619.59C2213.93 617.95 2218.17 613.59 2220.1 610C2221.09 608.18 2221.61 600.51 2222.03 581.77C2222.36 567.63 2222.82 555.87 2223.06 555.65C2223.3 555.43 2226.09 555.48 2229.25 555.75L2235 556.25L2235 592.92C2235 620.12 2234.69 629.91 2233.8 630.8C2233.14 631.46 2230.98 632 2229 632C2224.53 632 2223 630.54 2223 626.3C2223 624.49 2222.73 623 2222.41 623C2222.08 623 2219.97 624.59 2217.7 626.52C2210.92 632.33 2201.81 634.21 2193.34 631.57ZM2271.15 631.09C2256.76 626.12 2250 614.02 2250 593.21C2250 580.49 2251.73 573.6 2256.82 566C2262.4 557.66 2268.32 555 2281.28 555C2288.37 555 2292.18 555.46 2294.62 556.63C2302.93 560.57 2312.25 574.19 2308.91 577.51C2308.13 578.28 2305.6 579.21 2303.27 579.58C2299.23 580.22 2298.97 580.1 2297.27 576.89C2296.3 575.04 2293.87 571.84 2291.87 569.76C2288.4 566.17 2287.94 566 2281.77 566C2273.82 566 2269.69 568.41 2266.32 575C2259.79 587.81 2262.45 612.01 2271.08 618.27C2274.73 620.91 2280.77 622.06 2285.5 621.01C2290.44 619.92 2296.1 613.95 2297.9 607.96L2299.15 603.76L2304.13 604.24C2310.93 604.89 2311.58 605.77 2309.59 611.66C2303.85 628.62 2287.68 636.8 2271.15 631.09ZM2336.87 631.87C2331.31 631.07 2327.21 628.58 2325.71 625.08C2325.04 623.51 2324.39 611.47 2324.05 594.5L2323.5 566.5L2319.25 566.19L2315 565.89L2315 560.5L2315 555.11L2319.25 554.81L2323.5 554.5L2323.78 545.48L2324.07 536.47L2328.39 533.73C2330.77 532.23 2333.16 531 2333.71 531C2334.83 531 2336 540.24 2336 549.1L2336 554.9L2341.75 555.2L2347.5 555.5L2347.5 560.5L2347.5 565.5L2341.65 565.8L2335.8 566.11L2336.15 591.14C2336.5 616.05 2336.51 616.19 2338.86 618.09C2340.16 619.14 2342.74 620 2344.59 620C2347.46 620 2348.05 620.41 2348.56 622.75C2348.9 624.26 2349.35 626.1 2349.58 626.82C2350.91 631.09 2345.73 633.14 2336.87 631.87ZM1511.25 631.34C1510.27 630.94 1510 619.63 1510 579.48C1510 551.23 1510.34 527.93 1510.75 527.71C1511.16 527.49 1515.82 527.51 1521.09 527.76L1530.68 528.22L1537.4 549.36C1556.17 608.38 1557.17 611.26 1558.5 609.85C1559.2 609.11 1565.63 590.27 1572.78 568L1585.8 527.5L1594.65 527.5L1603.5 527.5L1603.76 578.39C1603.95 616.11 1603.72 629.64 1602.85 630.68C1602.05 631.64 1600.05 632 1596.59 631.8L1591.5 631.5L1591.24 591.75C1591.09 569.89 1590.59 552 1590.12 552C1589.66 552 1583.55 569.44 1576.55 590.75C1569.51 612.2 1563.12 630.06 1562.23 630.75C1561.34 631.44 1558.67 632 1556.29 632C1552.38 632 1551.83 631.69 1550.52 628.75C1549.31 626.03 1539.56 596.03 1528.27 560.25C1526.72 555.35 1525.12 552 1524.33 552C1523.25 552 1523 559.14 1523 590.8C1523 619.64 1522.69 629.91 1521.8 630.8C1520.62 631.98 1513.71 632.33 1511.25 631.34ZM1805.67 631.33C1805.3 630.97 1805 613.93 1805 593.46L1805 556.26L1809.75 555.72C1812.36 555.43 1814.84 555.4 1815.25 555.65C1815.66 555.91 1816 557.67 1816 559.56C1816 561.45 1816.24 563 1816.54 563C1816.84 563 1818.79 561.2 1820.89 559C1824.52 555.17 1824.96 555 1830.88 555C1837.23 555 1844 557.05 1844 558.98C1844 559.58 1842.85 562.34 1841.44 565.12C1839.61 568.74 1838.45 570 1837.35 569.58C1833.45 568.08 1830.96 567.93 1827.14 568.96C1823.79 569.87 1822.61 570.85 1820.93 574.14C1819.08 577.77 1818.75 580.99 1817.91 603.77C1817.33 619.66 1816.56 629.83 1815.87 630.66C1814.73 632.03 1806.88 632.54 1805.67 631.33ZM1891.67 631.33C1891.3 630.97 1891 607.27 1891 578.68L1891 526.7L1916.53 527.41C1946.84 528.26 1950.02 528.93 1956.95 535.86C1960.78 539.69 1962 541.81 1963.47 547.25C1966.88 559.83 1964.21 571.62 1956.15 579.64C1948.39 587.36 1941.88 588.99 1918.75 588.99L1904 589L1904 608.28C1904 630.85 1903.64 632 1896.61 632C1894.26 632 1892.03 631.7 1891.67 631.33ZM1980.67 631.33C1980.3 630.97 1980 613.59 1980 592.72L1980 554.77L1982.25 555.37C1983.49 555.7 1985.91 555.98 1987.62 555.99C1990.32 556 1990.84 556.43 1991.37 559.12L1992 562.24L1996.12 558.51C2000.2 554.82 2000.3 554.8 2007.6 555.17C2016.34 555.61 2018.57 557.11 2017.53 561.84C2017.16 563.53 2016 566 2014.95 567.34C2013.19 569.57 2012.68 569.69 2008.56 568.81C2001.24 567.25 1995.9 571.19 1993.96 579.58C1993.46 581.73 1993.04 593.67 1993.02 606.1C1993 626.7 1992.84 628.84 1991.17 630.35C1989.36 631.98 1982.01 632.67 1980.67 631.33ZM1654.99 620.33C1662.31 617.34 1666.4 610.93 1667.62 600.54L1668.31 594.75L1664.9 595.24C1657.9 596.26 1641.96 599.99 1638.62 601.38C1634.44 603.13 1633 605.56 1633 610.86C1633 613.69 1633.75 615.74 1635.58 617.92C1639.83 622.96 1646.49 623.79 1654.99 620.33ZM1762.94 621.02C1767.56 619.69 1772.73 614.58 1775.61 608.5C1777.58 604.34 1777.98 601.91 1777.98 594C1777.99 588.77 1777.51 582.78 1776.93 580.68C1774.82 573.08 1764.84 565.04 1757.5 565.04C1753 565.04 1746.59 568.35 1743.66 572.2C1737.78 579.91 1736.3 598.85 1740.79 609C1745.13 618.82 1753.94 623.6 1762.94 621.02ZM2062.1 619.42C2069.71 615.57 2074 605.88 2073.99 592.57C2073.99 581.41 2072.65 577.38 2067.14 571.86C2060.8 565.52 2055.83 564.06 2048.5 566.37C2038.39 569.55 2034.49 577.4 2034.51 594.51C2034.52 603.63 2034.79 605.06 2037.51 610.47C2039.15 613.74 2041.68 617.26 2043.12 618.31C2048.2 621.97 2056.13 622.44 2062.1 619.42ZM2136.2 619.38C2144.67 615.05 2148.81 600.16 2145.91 584.47C2143.66 572.31 2137.42 565.77 2128.07 565.77C2121.21 565.77 2117.17 568.35 2113.55 575.04C2110.73 580.24 2110.59 581.08 2110.56 593C2110.53 604.59 2110.72 605.86 2113.16 610.5C2116.33 616.53 2118.65 618.75 2123.68 620.56C2127.73 622.02 2131.78 621.64 2136.2 619.38ZM1941.24 573.76C1943.65 572.7 1946.06 570.41 1948.06 567.31C1950.75 563.11 1951.1 561.8 1950.76 557C1949.77 542.72 1944.58 540.17 1916.25 540.05L1904 540L1904 558.1L1904 576.2L1920.75 575.8C1933.43 575.5 1938.41 575 1941.24 573.76ZM1125 549.48C1125 543.83 1127.97 539.36 1140.94 525.49C1147.62 518.35 1153.79 511.2 1154.65 509.6C1158.02 503.33 1156.18 496.26 1150.45 493.55C1143.67 490.33 1138.64 492.27 1135 499.52C1132.84 503.83 1132.1 504.5 1129.5 504.5C1126.62 504.5 1126.5 504.33 1126.59 500.21C1126.71 494.3 1131.2 487.96 1136.54 486.17C1141.64 484.46 1151.41 485.08 1156.28 487.44C1161.45 489.93 1165 496.12 1165 502.64C1165 510.24 1161.47 516.02 1148.47 529.74C1142.08 536.46 1137.15 542.43 1137.49 542.98C1137.87 543.59 1143.56 544 1151.62 544L1165.11 544L1164.81 548.25L1164.5 552.5L1144.75 552.77L1125 553.04L1125 549.48ZM1699 534.55L1699 527L1704.25 527.02C1711.67 527.04 1712.16 527.56 1711.8 535.09L1711.5 541.5L1705.25 541.8L1699 542.1L1699 534.55ZM1212.29 533.84C1208.88 533.45 1204.07 532.24 1201.62 531.15C1192.52 527.13 1183.01 515.88 1178.8 504.17C1175.93 496.2 1175.16 473.58 1177.4 463C1180.55 448.08 1189.63 435.42 1201 430.08C1205.82 427.82 1207.8 427.5 1217.02 427.5C1226.85 427.5 1227.97 427.71 1234.02 430.7C1245.3 436.28 1252.95 445.66 1257.17 459.07C1259.18 465.49 1259.5 468.54 1259.48 481.5C1259.46 495.71 1259.3 496.87 1256.58 503.5C1247.34 525.97 1232.5 536.14 1212.29 533.84ZM1042 480.95L1042 428.9L1047.6 429.2L1053.2 429.5L1053.11 449C1053.06 459.73 1053.39 469.07 1053.83 469.77C1054.46 470.75 1059.8 470.98 1077.07 470.77L1099.5 470.5L1099.77 449.7L1100.04 428.91L1106.27 429.2L1112.5 429.5L1112.76 479.89C1112.95 516.26 1112.7 530.65 1111.89 531.64C1111.19 532.48 1108.7 533 1105.4 533L1100.04 533L1099.77 508.75L1099.5 484.5L1077.07 484.23C1061.08 484.04 1054.44 484.29 1053.94 485.1C1053.55 485.73 1053.19 496.34 1053.14 508.68C1053.09 521.02 1052.78 531.54 1052.46 532.06C1052.14 532.58 1049.66 533 1046.94 533L1042 533L1042 480.95ZM417.64 526.73C416.03 525.55 415.86 520.49 415.29 457.33L414.68 389.21L404.59 381.81C399.04 377.74 391.12 372.03 387 369.12C382.88 366.21 368.48 355.94 355 346.31C341.52 336.68 323.52 323.9 315 317.91C306.48 311.92 289.38 299.84 277 291.06C240.61 265.24 233.63 260.37 231.12 259.04C228.97 257.91 228.14 258.21 222.62 262.06C211.46 269.86 175.7 295.24 162.5 304.73C155.35 309.88 140.78 320.25 130.11 327.79C108 343.43 106.15 344.74 75.46 366.5C42.87 389.61 38.29 392.49 36.48 390.99C35.67 390.31 35 388.31 35 386.54C35 383.56 35.97 382.63 48.07 373.91C55.27 368.74 62.15 363.82 63.38 363C64.6 362.18 70.9 357.68 77.38 353C83.86 348.32 90.16 343.82 91.39 343C92.61 342.18 100.5 336.55 108.91 330.5C117.33 324.45 127.65 317.09 131.85 314.15C136.06 311.21 141.75 307.12 144.5 305.07C147.25 303.01 165.04 290.28 184.02 276.79C203.01 263.29 220 251.03 221.77 249.54L225 246.82L225.01 208.16C225.02 186.9 225.3 168.49 225.63 167.25C226.42 164.3 232.54 163.97 233.45 166.83C233.76 167.83 234.19 186.53 234.39 208.37C234.59 230.22 234.92 248.25 235.13 248.45C235.59 248.91 293.94 290.7 318.36 308.07C324.88 312.7 337.03 321.37 345.36 327.32C392.42 360.97 419.16 379.15 420.69 378.56C423.04 377.66 463.85 349.15 505 319.67C515.73 311.98 533.5 299.31 544.5 291.5C555.5 283.69 574.4 270.27 586.5 261.67C598.6 253.08 609.2 246.03 610.06 246.02C611.69 246 620.14 251.42 634.17 261.47C642.12 267.18 696.03 305.56 708.4 314.32C711.64 316.62 716.14 319.86 718.4 321.53C720.65 323.2 730.6 330.38 740.5 337.49C750.4 344.6 765.25 355.35 773.5 361.38C781.75 367.41 792.26 375.04 796.84 378.34C801.43 381.63 805.43 384.97 805.73 385.75C806.04 386.53 805.16 388.3 803.78 389.67L801.29 392.17L796.25 388.83C789.61 384.45 768.15 369.35 732.5 343.99C694.59 317.02 683.03 308.83 680.35 307C679.14 306.18 669.9 299.59 659.82 292.37C649.74 285.15 639.65 277.95 637.39 276.37C635.13 274.79 628.25 269.97 622.1 265.66C615.95 261.35 610.34 258.04 609.64 258.31C608.94 258.58 604.35 261.62 599.43 265.07C572.26 284.16 563.88 290.08 558 294.33C554.42 296.92 546.33 302.65 540 307.07C533.67 311.49 527.38 315.94 526 316.96C524.62 317.98 504.38 332.42 481 349.04C457.62 365.67 435.47 381.52 431.78 384.25L425.05 389.24L424.78 457.2C424.51 523.15 424.44 525.2 422.56 526.58C420.18 528.32 419.83 528.33 417.64 526.73ZM1227.5 519.64C1232.63 517.24 1239.69 510.44 1242.31 505.36C1244.51 501.1 1246.08 494.57 1246.94 486.07C1249.63 459.32 1237.08 440.02 1217 440.02C1196.25 440.02 1185.24 459.51 1188.92 489.75C1190.24 500.67 1192.34 505.91 1197.89 512.17C1206.22 521.57 1217.36 524.38 1227.5 519.64ZM1693 405.86L1693 353.72L1714.25 354.22C1737.62 354.78 1740.76 355.45 1746.68 361.18C1752.23 366.55 1754.48 373.11 1754.49 384C1754.5 392.33 1754.15 394.24 1751.69 399.5C1748.41 406.53 1744.97 410.43 1739.67 413.15C1736.52 414.77 1733.01 415.23 1719.94 415.72L1704.04 416.31L1704.09 436.14C1704.12 447.04 1703.86 456.42 1703.51 456.98C1703.17 457.54 1700.66 458 1697.94 458L1693 458L1693 405.86ZM1351.31 445.24C1351.6 443.73 1353.18 438.23 1354.8 433C1356.43 427.77 1358.08 421.17 1358.46 418.32L1359.17 413.15L1151.79 412.82C953.52 412.51 944.29 412.42 941.64 410.69C939.76 409.45 938.98 408.18 939.19 406.69C939.48 404.62 940.14 404.47 951.5 403.89C958.1 403.55 1051.98 403.21 1160.13 403.14C1329.88 403.02 1356.92 402.8 1357.95 401.56C1359.42 399.79 1357.22 386.98 1353.37 374.78C1351.99 370.4 1351.07 366.59 1351.34 366.32C1352.3 365.37 1431.5 405.64 1431.5 407.08C1431.5 408.36 1361.6 444.2 1353.76 446.93C1350.87 447.94 1350.79 447.89 1351.31 445.24ZM767.5 401.99C764.89 400.85 758.01 396.23 736.31 381.04C726.51 374.19 715.8 366.72 712.5 364.45C703.81 358.46 652.48 322.56 646 317.95C623.77 302.12 618 297.67 618 296.36C618 293.92 619.96 291 621.6 291C622.96 291 639.27 301.56 659.59 315.6C663.49 318.3 673.84 325.43 682.59 331.46C715.95 354.43 765.68 389.36 769.75 392.68C774.36 396.43 775.02 398.77 772.17 401.35C770.11 403.21 770.23 403.19 767.5 401.99ZM1735 400.44C1745.75 394.13 1745.74 374.15 1734.98 368.75C1732.17 367.34 1728.84 367 1717.6 367L1703.69 367L1704.35 379.16C1704.71 385.84 1705 393.99 1705 397.26L1705 403.2L1718.25 402.85C1729.41 402.55 1732.05 402.18 1735 400.44ZM1097 371.83C1087.78 369.21 1082.54 361.45 1082.56 350.45C1082.58 344.54 1083.03 342.62 1085.39 338.6C1088.94 332.53 1094.27 329.98 1109.5 327.03C1122.53 324.5 1125.73 323.37 1127.1 320.81C1128.36 318.46 1126.64 312.48 1123.81 309.36C1119.77 304.93 1108.45 303.93 1102.04 307.45C1100.69 308.19 1098.43 310.98 1097.02 313.65C1094.28 318.84 1092.25 319.81 1087.68 318.07C1084.33 316.79 1084.15 313.6 1087.12 307.71C1090.03 301.91 1091.72 300.2 1097.5 297.14C1102.02 294.75 1103.5 294.51 1113 294.57C1120.87 294.63 1124.43 295.09 1127.21 296.42C1131.63 298.53 1135.85 302.55 1137.25 306C1137.81 307.38 1138.88 321.32 1139.62 337C1140.36 352.68 1141.09 366.62 1141.23 368C1141.47 370.18 1141.06 370.54 1138.11 370.82C1132.55 371.36 1130.23 370.33 1129.5 367C1128.66 363.16 1127.35 363.23 1121.13 367.41C1113.74 372.38 1104.75 374.03 1097 371.83ZM1185.41 371.24C1173.92 367.12 1165.62 359.44 1159.77 347.5C1155.43 338.66 1154.5 333.44 1154.5 318C1154.5 305.34 1154.81 302.56 1156.94 296.06C1161.53 282.04 1171.2 271.16 1182.5 267.3C1185.99 266.11 1190.46 265.62 1197.32 265.69C1206.3 265.79 1207.71 266.08 1213.82 269.08C1231.82 277.94 1241.04 297.19 1239.7 323.13C1238.54 345.53 1228.94 361.62 1212.19 369.21C1203.55 373.13 1192.93 373.94 1185.41 371.24ZM996 319L996 266.91L1002.7 267.2L1009.4 267.5L1014.03 275.5C1016.57 279.9 1022.85 290.7 1027.97 299.5C1033.09 308.3 1040.78 321.57 1045.06 329C1049.33 336.43 1053.43 342.5 1054.16 342.5C1055.25 342.5 1055.55 335.43 1055.76 304.7L1056.02 266.9L1061.76 267.2L1067.5 267.5L1067.5 319L1067.5 370.5L1061 370.76L1054.5 371.03L1050.9 364.76C1022.88 316.03 1010.15 294.55 1009.08 294.19C1008.35 293.95 1007.94 305.86 1007.76 332.17L1007.5 370.5L1001.75 370.8L996 371.1L996 319ZM1255 319L1255 266.9L1261.25 267.2L1267.5 267.5L1268 288.5L1268.5 309.5L1291 309.5L1313.5 309.5L1313.77 288.25L1314.04 267L1320.53 267L1327.02 267L1326.76 318.75L1326.5 370.5L1320.25 370.8L1314 371.1L1314 347.05L1314 323L1291.02 323L1268.04 323L1267.77 346.75L1267.5 370.5L1261.25 370.8L1255 371.1L1255 319ZM1114.51 360.14C1121.95 356.75 1126.16 350.21 1127.33 340.19C1127.7 336.96 1127.45 335.73 1126.35 335.3C1125.53 334.99 1119.38 336.02 1112.68 337.59C1097.81 341.07 1095 343.13 1095 350.52C1095 354.51 1095.5 355.7 1098.4 358.6C1101.24 361.44 1102.52 362 1106.15 361.98C1108.54 361.97 1112.3 361.14 1114.51 360.14ZM1207.3 357.82C1219.93 351.48 1227.02 337.52 1226.99 319.04C1226.94 295.02 1216.84 279.79 1199.94 278.26C1183.34 276.76 1171.18 286.8 1168.06 304.58C1166.68 312.51 1166.71 326.51 1168.12 333.2C1172.62 354.38 1191.05 365.96 1207.3 357.82ZM211.5 155.12C205.78 153.61 200.25 150.07 195.68 144.99C186.31 134.57 183.04 123.47 183.02 101.96C182.99 81.08 187.28 68.51 197.69 59C205.38 51.98 212.04 49.71 223.55 50.19C233.98 50.63 238.94 52.87 245.43 60.05C248.99 63.99 255 75.09 255 77.73C255 79.33 251.3 81.64 247.44 82.44C244.51 83.05 244.28 82.84 241.69 77.24C236.39 65.77 229.05 61.34 217.5 62.66C202.25 64.4 194.97 77.69 195.02 103.7C195.05 116.95 195.92 121.84 199.64 129.7C204.29 139.54 216.32 145.61 225.99 143C233.22 141.05 242.22 130.88 243.96 122.67C244.56 119.82 244.96 119.53 247.89 119.76C249.69 119.91 252.44 120.69 254.02 121.51L256.88 122.99L255.27 127.75C251.6 138.56 243.75 148.49 235.5 152.76C231.58 154.78 228.77 155.4 222.5 155.63C218.1 155.78 213.15 155.55 211.5 155.12ZM269.25 154.34C268.27 153.94 268 142.71 268 102.92L268 52L274 52L280 52L280 102.3C280 140.09 279.7 152.9 278.8 153.8C277.62 154.98 271.68 155.32 269.25 154.34Z" fill="#1e2749" fill-rule="evenodd"/>
</svg>
