<?xml version="1.0" encoding="UTF-8"?>
<svg xmlns="http://www.w3.org/2000/svg" viewBox="0 0 376 200" width="376" height="200" shape-rendering="geometricPrecision">
<path d="M264.48 177.65C249.62 174.97 236.35 165.86 228.87 153.22C228.03 151.78 227.33 150.56 227.33 150.49C227.33 150.42 226.9 149.42 226.37 148.26C223.96 143 222.78 137.91 222.37 131L222.17 127.5L213.08 127.41C204.5 127.33 204 127.36 204 127.93C204 128.62 203.39 129.33 202.81 129.33C202.59 129.33 202.33 128.88 202.22 128.33L202.02 127.33L162.26 127.42L122.5 127.5L122.41 147.71C122.32 168.99 122.32 169.02 120.88 168.47C120.39 168.28 120.33 166.31 120.25 147.88L120.17 127.5L88.83 127.33L57.5 127.17L57.39 126.25L57.29 125.33L88.44 125.33C114.27 125.33 119.65 125.26 119.96 124.88C120.24 124.55 120.31 115.2 120.25 90.13L120.17 55.83L118.61 55.73C116.08 55.57 116.07 55.29 118.52 50.47C120.17 47.23 120.86 46.17 121.34 46.17C122.2 46.17 126.49 54.58 125.96 55.22C125.77 55.45 124.91 55.68 124.06 55.73L122.5 55.83L122.41 89.83C122.36 108.53 122.4 124.17 122.5 124.58L122.68 125.33L162.16 125.33C200.85 125.33 201.65 125.32 201.99 124.69C202.18 124.33 202.31 123.77 202.28 123.44C202.17 122.22 202.34 121.67 202.82 121.67C203.51 121.67 204.1 122.91 203.86 123.85C203.71 124.42 203.84 124.74 204.31 124.99C205.15 125.43 221.15 125.46 221.98 125.01C222.43 124.77 222.69 123.99 222.98 121.93C223.19 120.41 223.82 117.67 224.38 115.84C232.45 89.48 261.26 74.86 289.33 82.88C295.52 84.64 299.48 86.67 307.5 92.19C309.03 93.24 309.36 93.33 311.66 93.33C314 93.34 319.2 93.81 320.92 94.18C321.79 94.37 321.92 95.37 321.16 96.01C320.77 96.33 319.63 96.38 316.49 96.21C313.65 96.06 312.33 96.1 312.33 96.34C312.33 96.54 312.98 97.4 313.77 98.26C316.84 101.6 321.33 108.17 321.33 109.31C321.33 109.71 321.54 110.44 321.79 110.93C322.94 113.19 325.33 121.67 325.33 123.46C325.33 125.28 325.46 125.33 329.43 125.33C333.68 125.33 334.39 125.01 334.13 123.22C333.81 121.05 334.23 121.08 339.15 123.5C342.38 125.09 343.67 125.89 343.6 126.25C343.55 126.54 341.5 127.77 339.05 129L334.61 131.23L334.29 130.37C334.11 129.9 334.03 129.24 334.12 128.89C334.5 127.46 334.14 127.33 329.85 127.33L325.77 127.33L325.55 131.75C325.35 135.85 324.9 138.58 323.84 142.33C322.73 146.25 322.52 146.87 322.15 147.33C321.93 147.61 321.63 148.2 321.5 148.65C321.36 149.1 320.82 150.16 320.29 151.02C319.76 151.87 319.33 152.67 319.33 152.79C319.33 153.26 315.79 158.14 313.86 160.32C308.71 166.16 301.68 171.32 295.33 173.94C294.32 174.36 293.2 174.83 292.83 174.99C292.47 175.15 291.42 175.51 290.5 175.79C289.58 176.08 288.31 176.47 287.67 176.67C282.21 178.37 271.06 178.84 264.48 177.65ZM280.18 175.51C292.27 173.91 302.29 168.9 310.36 160.43C318.14 152.25 322.29 143 323.2 131.79C323.32 130.29 323.33 128.68 323.21 128.2L322.99 127.33L306.87 127.33C292.95 127.33 290.69 127.4 290.33 127.83C290.11 128.11 289.78 128.33 289.6 128.33C289.43 128.33 289.06 128.11 288.79 127.83C288.35 127.4 284.33 127.33 256.66 127.33C239.27 127.33 224.97 127.45 224.9 127.58C224.61 128.08 225.32 136.23 225.86 138.67C227.69 146.92 231.38 153.96 237.16 160.23C241.57 165 248.67 169.95 253.83 171.84C254.75 172.17 255.65 172.55 255.83 172.68C256.15 172.9 259.19 173.82 262.36 174.65C267.15 175.91 274.46 176.26 280.18 175.51ZM200.25 147.4C199.33 147.29 198.91 146.33 199.78 146.33C200.03 146.33 200.48 146.05 200.79 145.71C201.27 145.19 201.34 144.48 201.26 141.29L201.17 137.5L200.17 137.49C198.58 137.47 198.79 136.61 200.63 135.58C202.5 134.54 203.18 134.44 203.46 135.19C203.58 135.48 203.67 138.04 203.67 140.87L203.67 146.02L204.67 146.22C205.69 146.42 205.94 146.79 205.31 147.18C204.92 147.42 201.64 147.57 200.25 147.4ZM286.4 146.43C284.67 146.1 285.16 144.64 288.17 141.17C289.93 139.13 291 137.4 291 136.57C291 136.03 289.62 134.67 289.07 134.67C288.86 134.67 288.14 135.15 287.47 135.73C286.3 136.76 286.24 136.78 285.8 136.17C285.03 135.12 285.31 134.63 287.12 133.87C289.57 132.85 291.86 133.45 292.85 135.36C293.6 136.82 293.09 138.03 290.49 140.99C289.29 142.35 288.35 143.7 288.41 143.98C288.56 144.81 290.3 144.82 291.4 144C291.94 143.6 292.59 143.36 292.86 143.46C293.44 143.69 293.5 145.7 292.93 146.27C292.55 146.65 288.15 146.76 286.4 146.43ZM126.08 144.85C124.87 143.83 124.33 142.07 124.33 139.1C124.33 136.03 125.11 133.79 126.46 132.97C128.15 131.94 129.47 132.13 130.97 133.64C132.08 134.74 132.31 135.24 132.51 136.84C132.86 139.59 132.45 142.28 131.47 143.76C130.12 145.81 127.78 146.28 126.08 144.85ZM129.52 143.64C130.46 142.61 130.63 136.66 129.77 135C128.96 133.44 127.88 133.28 127.19 134.63C126.47 136.02 126.46 141.97 127.18 143.35C127.77 144.5 128.64 144.61 129.52 143.64ZM350.89 131.44C350.35 130.91 350.74 130.05 351.7 129.65C352.26 129.42 353.1 128.67 353.55 127.98C354.23 126.95 354.32 126.55 354.08 125.62C353.87 124.79 353.59 124.47 352.98 124.39C351.74 124.22 351.47 123.77 352.16 123.01C352.76 122.34 354.18 122.12 354.84 122.59C355.03 122.72 355.35 123.21 355.55 123.67L355.91 124.5L356.86 123.42C357.83 122.32 359.38 121.94 359.85 122.69C360.13 123.15 359.15 124.22 358.22 124.46C357.08 124.74 356.26 126.42 356.53 127.91C356.83 129.6 357.23 130.04 358.24 129.78C358.99 129.6 359.04 129.64 358.72 130.23C357.76 132.03 356.12 132.12 355.33 130.42C355.06 129.83 354.69 129.34 354.52 129.34C354.35 129.34 353.73 129.86 353.15 130.5C352.13 131.61 351.37 131.93 350.89 131.44ZM288.39 124.78C288.78 124.43 289 123.77 289 122.95C289 121.9 289.12 121.67 289.65 121.67C290.28 121.67 290.44 122.1 290.78 124.67C290.83 125.1 292.88 125.18 306.54 125.25C319.36 125.32 322.31 125.26 322.62 124.89C322.89 124.56 322.86 123.76 322.5 121.81C321.23 114.99 318.96 109.6 315.22 104.54C312.72 101.16 310.2 98.33 309.68 98.33C309.3 98.33 309.31 98.45 309.99 102.48C310.45 105.13 310.42 107.44 309.93 107.93C309.35 108.52 308.4 108.42 308.2 107.75C307.88 106.7 307.39 102.89 307.15 99.67C306.89 96.14 306.62 95.2 305.56 94.05C303.15 91.44 294 86.65 288.83 85.3C282.84 83.73 282.07 83.62 275.49 83.44C271.25 83.33 268.02 83.4 266.65 83.63C260.69 84.66 261.01 84.58 256.5 86.09C251.05 87.92 244.5 91.78 240.06 95.78C234.17 101.08 229.6 107.95 227.16 115.17C225.81 119.17 224.95 124.5 225.56 125.11C225.68 125.23 239.73 125.33 256.78 125.33C285.16 125.33 287.83 125.29 288.39 124.78ZM313.66 91.08C313.66 90.95 313.62 88.32 313.58 85.25L313.5 79.67L316.77 79.67C320.69 79.67 321.33 79.93 321.33 81.52C321.33 83.09 320.48 83.42 319.52 82.22C318.93 81.48 318.54 81.33 317.22 81.33L315.62 81.33L315.69 85.95C315.73 88.49 315.66 90.74 315.53 90.95C315.27 91.37 313.67 91.48 313.66 91.08ZM115 44.84C114.4 44.11 114.85 43.33 115.86 43.33C116.75 43.33 118.67 41.65 118.67 40.86C118.67 40.14 117.97 36.53 117.62 35.42C117.34 34.52 117.11 34.33 116.31 34.33C115.18 34.33 115.03 33.71 115.94 32.88C116.67 32.22 118.44 32.16 118.95 32.77C119.15 33.01 119.48 34.03 119.67 35.02C119.87 36.02 120.1 37.18 120.19 37.6C120.28 38.03 120.51 38.27 120.71 38.14C121.38 37.73 122.32 35.17 122.33 33.75C122.33 32.58 122.44 32.33 122.97 32.33C124.06 32.33 124.67 32.71 124.67 33.38C124.67 35.01 120.04 42.06 117.59 44.16C116.07 45.46 115.62 45.57 115 44.84Z" fill="#1e2749" fill-rule="evenodd"/>
</svg>
