<?xml version="1.0" encoding="UTF-8"?>
<svg xmlns="http://www.w3.org/2000/svg" viewBox="0 0 680 617" width="680" height="617" shape-rendering="geometricPrecision">
<path d="M6.77 611.06C6.41 610.69 6.35 564.71 6.45 343.23C6.51 196.16 6.55 75.53 6.54 75.17C6.53 74.8 6.51 60.78 6.51 44L6.5 13.5L8.17 13.28C9.08 13.16 159.27 13.05 341.92 13.03C673.07 13.01 674.01 13.01 674.67 13.67C675.33 14.33 675.33 15.23 675.33 312.46C675.33 563.44 675.26 610.64 674.88 610.96C674.16 611.56 7.37 611.66 6.77 611.06ZM337.92 608.85C338.25 608.72 338.33 555.38 338.33 343.7C338.33 197.96 338.24 78.48 338.13 78.19C337.95 77.71 323.14 77.67 173.67 77.67L9.41 77.67L9.21 78.42C9.1 78.83 9.01 198.37 9.01 344.06C9 591.76 9.04 608.96 9.56 609.06C10.46 609.23 337.46 609.02 337.92 608.85ZM671.92 608.85C672.25 608.72 672.32 555.43 672.25 343.26L672.17 77.83L507.25 77.75L342.33 77.67L342.32 102.92C342.21 338.05 342.37 608.82 342.62 608.97C343 609.2 671.31 609.08 671.92 608.85ZM506.08 587.45C505.55 587.23 505.55 586.25 506.07 585.73C506.35 585.45 506.48 583.62 506.49 579.58C506.5 574.54 506.42 573.72 505.89 572.93C505.55 572.44 505.37 571.87 505.49 571.68C505.62 571.47 507.32 571.33 509.83 571.33C513.78 571.33 513.99 571.37 514.97 572.2C516.32 573.33 516.4 575.14 515.17 576.61C514.71 577.15 514.33 577.69 514.33 577.8C514.33 577.91 514.93 578.54 515.67 579.21C516.86 580.28 517 580.58 517 581.96C517 583.91 515.69 585.64 513.31 586.84C511.98 587.52 511.23 587.66 509.09 587.64C507.67 587.63 506.31 587.54 506.08 587.45ZM448.27 576.25L448.17 565.17L445.42 561C442.59 556.71 442.2 555.61 443.31 555.01C444.29 554.49 444.82 554.87 446.16 557.03C446.83 558.12 447.52 558.92 447.69 558.82C447.86 558.71 448 556.13 448 553.06C448 550 448.1 541.76 448.22 534.75L448.44 522L474.67 522C489.09 522 500.98 521.91 501.1 521.79C501.51 521.38 500.63 520.33 499.3 519.65C498.17 519.07 497.98 518.82 498.06 518.07C498.15 517.31 498.35 517.15 499.29 517.06C500.04 516.99 500.64 517.16 501.12 517.6C501.51 517.95 503.13 519.09 504.72 520.12L507.6 522L535.38 522.08C558.63 522.15 563.17 522.24 563.17 522.62C563.17 522.87 562.71 523.25 562.16 523.46C560.83 523.95 556.06 526.64 555.82 527.03C555.71 527.2 555.42 527.33 555.16 527.33C554.91 527.33 554.06 527.76 553.27 528.29C552.48 528.82 550.75 529.83 549.42 530.54C548.09 531.25 546.74 531.99 546.42 532.17C544.79 533.12 539.64 535.99 537.54 537.11C536.24 537.82 534.07 539.06 532.74 539.86C531.4 540.67 530.25 541.33 530.17 541.33C530.1 541.33 529.17 541.84 528.1 542.47C527.04 543.09 524.82 544.34 523.17 545.25C514.99 549.76 502.05 557.14 501.17 557.81C500.62 558.22 499.42 558.98 498.5 559.48C491.13 563.55 488 565.44 488 565.82C488 566.44 488.76 566.66 490.1 566.45C491.45 566.23 492.67 566.78 492.67 567.61C492.67 568.85 492.03 569 486.52 569.02C481.83 569.05 481.04 569.13 480.17 569.69C479.62 570.05 478.72 570.56 478.17 570.85C477.62 571.13 476.42 571.8 475.5 572.34C474.58 572.88 473.16 573.65 472.33 574.04C471.51 574.44 470.61 574.95 470.33 575.18C470.06 575.41 468.75 576.17 467.42 576.88C463.79 578.81 460.59 580.6 457.67 582.32C457.39 582.49 456.94 582.71 456.67 582.82C456.39 582.93 455.87 583.21 455.5 583.43C453.28 584.78 448.69 587.33 448.51 587.33C448.43 587.33 448.32 582.35 448.27 576.25ZM513.05 584.79C513.89 584.03 514.15 581.93 513.55 580.77C513.17 580.02 512.66 579.71 511.32 579.36C509.13 578.8 509.01 578.96 509.01 582.56C509 586 509.41 586.59 511.26 585.82C511.93 585.54 512.73 585.08 513.05 584.79ZM452.73 582.03C454.86 580.86 458.09 578.98 459.61 578.03C460.21 577.65 460.92 577.33 461.17 577.33C461.42 577.33 461.73 577.17 461.85 576.98C461.97 576.78 462.39 576.48 462.78 576.31C463.18 576.14 464.25 575.54 465.17 574.99C466.08 574.44 467.21 573.81 467.67 573.58C468.13 573.35 470.21 572.19 472.28 571C474.35 569.81 477 568.31 478.15 567.67C481.09 566.04 481.19 565.93 482.99 562.32C485.3 557.7 485.33 557.67 486.59 557.67C488.1 557.67 488.27 558.4 487.21 560.36C486.36 561.95 486.07 563.17 486.6 562.94C487.65 562.5 498.88 556.01 500.4 554.97C501.45 554.25 502.39 553.67 502.51 553.67C502.62 553.67 504.62 552.56 506.94 551.22C509.27 549.87 512.44 548.06 514 547.2C515.56 546.34 517.06 545.51 517.33 545.35C517.61 545.19 519.86 543.94 522.33 542.56C527.91 539.46 535.66 535.1 536.33 534.69C536.61 534.52 537.88 533.83 539.17 533.15C540.45 532.48 541.72 531.74 542 531.52C542.27 531.29 543.1 530.82 543.83 530.46C545.02 529.89 549.33 527.48 550.67 526.65C550.94 526.48 551.62 526.14 552.17 525.89C552.72 525.64 553.37 525.19 553.62 524.88C554.05 524.37 552.42 524.33 530.69 524.33L507.3 524.33L504.56 526.06C503.06 527 501.38 528.2 500.82 528.72C499.72 529.74 499.03 529.9 498.4 529.27C497.95 528.82 497.85 527 498.27 527C498.67 527 501.33 524.91 501.33 524.59C501.33 524.45 489.9 524.37 475.92 524.41L450.5 524.5L450.47 541.58C450.45 550.98 450.53 558.67 450.66 558.67C450.98 558.67 453 555.81 453 555.35C453 554.6 454.05 554.59 454.85 555.35C455.3 555.77 455.67 556.23 455.67 556.38C455.67 556.52 454.51 558.33 453.1 560.4L450.54 564.17L450.45 573.58C450.4 578.99 450.49 583 450.66 583C450.82 583 451.76 582.56 452.73 582.03ZM512.75 576.29C513.85 575.13 513.86 575 512.99 573.89C512.19 572.88 510.24 572.38 509.5 573C508.9 573.5 508.81 576.68 509.38 577.25C509.99 577.86 511.75 577.36 512.75 576.29ZM429.53 568.78C429.18 568.68 428.15 568.14 427.24 567.57C425.86 566.73 425.41 566.19 424.62 564.45C423.47 561.91 423.38 559.78 424.34 557.23C425.05 555.32 425.75 554.54 427.77 553.39C428.88 552.75 429.54 552.67 433.19 552.67C436.92 552.67 437.4 552.73 438.02 553.35C438.49 553.83 438.63 554.26 438.48 554.77C438 556.33 437.67 556.39 436.21 555.14C434.85 553.97 434.8 553.95 432.38 554.1C429.68 554.27 428.7 554.78 427.42 556.66C426.29 558.32 426.34 562.16 427.51 564.01C428.8 566.05 431.06 567.32 433.45 567.33C434.67 567.33 435.74 567.13 436.33 566.78C437.3 566.21 438.48 566.38 438.26 567.06C438.18 567.28 437.71 567.77 437.21 568.15C436.45 568.71 435.74 568.84 433.23 568.89C431.54 568.93 429.88 568.87 429.53 568.78ZM513.67 566.44C513.67 566.14 513.91 565.62 514.2 565.3C515.18 564.22 514.47 564 509.9 563.99C505.36 563.99 504.42 563.78 504.77 562.87C504.95 562.41 505.66 562.33 509.45 562.33C514.27 562.33 515.04 562.09 514.14 560.85C512.89 559.15 513.99 558.85 515.75 560.42C516.42 561.01 517.39 561.84 517.9 562.25L518.83 563L516.67 564.99C514.43 567.04 513.67 567.41 513.67 566.44ZM17.42 554.13C16.2 552.91 14.8 550.53 13.98 548.27C12.78 545.01 13.26 539.44 15.01 536C15.89 534.29 17.82 532.33 18.63 532.33C19.52 532.33 19.51 532.4 18.49 534.01C16.55 537.09 16.21 538.49 16.22 543.33C16.22 548.21 16.61 549.75 18.55 552.68C19.37 553.92 19.4 554.08 18.91 554.56C18.42 555.05 18.3 555.02 17.42 554.13ZM34.25 554.81C33.78 554.33 34 553.32 34.97 551.58C35.51 550.62 36.18 549.02 36.47 548.02C37.58 544.23 36.81 537.98 34.89 535.15C33.93 533.74 33.72 532.33 34.46 532.33C35.13 532.33 37.18 534.71 38.12 536.57C39.02 538.35 40 541.89 40 543.34C40 544.99 38.98 548.77 38.11 550.38C37.06 552.31 34.59 555.15 34.25 554.81ZM350.28 553.74C346.51 549.76 345.3 543.79 347.15 538.33C348.35 534.78 350.69 531.68 351.84 532.12C352.14 532.24 352.34 532.45 352.28 532.58C352.22 532.72 351.49 534.17 350.67 535.8L349.17 538.77L349.2 543.13C349.24 547.92 349.82 550.33 351.49 552.51C352.45 553.78 352.51 554.1 351.89 554.62C351.55 554.9 351.18 554.69 350.28 553.74ZM214.44 554.18C209.36 553.22 206.2 549.15 206.78 544.28C207.18 540.9 209.31 538.44 212.83 537.32C214.77 536.7 220.65 536.8 221.96 537.48C223.18 538.11 223.33 539.18 222.36 540.38L221.73 541.16L221.32 540.27C220.77 539.06 219.3 538.53 216.51 538.53C213.37 538.53 211.63 539.44 210.48 541.7C207.5 547.58 212.92 553.87 219.5 552.15C222.46 551.38 223.21 551.54 222.25 552.72C221.77 553.31 219.36 554.2 217.67 554.42C217.03 554.5 215.57 554.39 214.44 554.18ZM372 553.99C372 553.63 372.44 552.54 372.97 551.58C374.36 549.09 375 546.59 375 543.68C375 540.5 374.3 537.77 372.8 535.08C371.66 533.05 371.58 532.33 372.48 532.33C373.21 532.33 375.33 534.94 376.34 537.07C376.86 538.17 377.47 540.1 377.69 541.36C378.05 543.32 378.02 544.02 377.55 546.18C376.9 549.13 376.22 550.58 374.35 552.94C372.93 554.73 372 555.15 372 553.99ZM72.42 554C71.51 553.62 71.47 553.02 72.27 551.96C73.09 550.88 74.33 548.7 74.33 548.33C74.33 548.17 75.01 546.61 75.83 544.85C76.66 543.1 77.33 541.49 77.33 541.27C77.33 541.06 77.53 540.65 77.78 540.36C78.02 540.07 78.4 539.2 78.62 538.42C78.95 537.27 79.17 537 79.81 537C80.84 537 80.95 537.17 82.95 542C83.91 544.29 84.89 546.62 85.14 547.17C85.39 547.72 85.93 548.99 86.34 550C86.75 551.01 87.37 552.03 87.71 552.27C89.12 553.26 88 554.38 85.8 554.18C85.09 554.12 84.23 554.05 83.91 554.03C83.04 553.98 82.83 553.08 83.5 552.33C84.06 551.72 84.06 551.62 83.51 550.43C82.66 548.59 82.17 548.33 79.46 548.33C76.54 548.33 76.11 548.48 75.49 549.69C74.84 550.95 74.87 552 75.58 552.53C76.1 552.91 76.11 553.01 75.66 553.47C75.01 554.14 73.37 554.4 72.42 554ZM131.75 553.81C131.32 553.5 131.3 553.25 131.62 552.33C131.85 551.66 132 548.91 132 545.28C132 539.35 132 539.33 131.17 538.6C129.54 537.19 129.96 537 134.85 537C139.67 537 140.79 537.28 141.81 538.74C142.56 539.81 142.46 541.06 141.5 542.47C140.46 543.99 140.45 544.51 141.45 545.16C144.77 547.34 142.55 552.74 137.83 553.96C136.15 554.4 132.43 554.31 131.75 553.81ZM107.56 553.78C107.43 553.66 107.33 552.4 107.33 550.99C107.33 549.28 107.19 548.29 106.9 548.06C106.65 547.85 105.5 547.74 104.23 547.8C101.79 547.91 100.85 547.52 101.05 546.48C101.16 545.91 101.51 545.82 103.84 545.74C107.16 545.62 107.33 545.43 107.33 541.91L107.33 539.29L108.25 539.39C109.14 539.5 109.17 539.56 109.25 541.83C109.4 545.84 109.25 545.67 112.47 545.67C114.78 545.67 115.3 545.76 115.48 546.23C115.89 547.32 114.84 547.81 112.08 547.82L109.5 547.83L109.4 550.48C109.35 551.94 109.14 553.33 108.94 553.57C108.56 554.04 107.91 554.13 107.56 553.78ZM138.05 551.96C138.86 551.55 140 549.56 140 548.56C140 547.02 138.74 545.99 136.58 545.77L134.67 545.57L134.67 548.77C134.67 551.47 134.76 552.02 135.25 552.3C135.84 552.63 137.02 552.49 138.05 551.96ZM157.13 549.52C157.03 549.26 157 548.77 157.06 548.44C157.16 547.89 157.69 547.82 163 547.74C169.69 547.62 171 547.77 171 548.62C171 549.89 170.41 550 163.76 550C158.45 550 157.28 549.92 157.13 549.52ZM21.87 548.5C21.37 548.04 20.75 547.15 20.48 546.51C19.81 544.9 19.86 541.84 20.58 540.6C21.27 539.42 23.56 538.18 25.67 537.84C27.6 537.52 28 537.17 28 535.8C28 535.03 27.8 534.58 27.33 534.33C26.97 534.14 26.67 533.78 26.67 533.55C26.67 533.07 28.71 532 29.59 532.01C31.06 532.02 31.1 532.24 31.03 539.67C30.96 546.65 30.97 546.76 31.73 547.57C32.49 548.37 32.49 548.4 31.85 548.86C30.86 549.58 28.76 549.47 28.26 548.67C28.03 548.3 27.6 548 27.3 548C27.01 548 26.5 548.3 26.17 548.67C25.26 549.66 23.03 549.58 21.87 548.5ZM353.48 548.86C352.84 548.4 352.85 548.37 353.58 547.59C354.24 546.88 354.33 546.44 354.33 543.83C354.33 541.25 354.24 540.78 353.6 540.1C352.93 539.38 352.91 539.28 353.41 538.78C353.71 538.48 354.71 538.17 355.64 538.08L357.33 537.92L357.33 542.46C357.33 546.66 357.39 547.05 358.05 547.72C358.74 548.41 358.75 548.45 358.15 548.88C357.34 549.48 354.3 549.46 353.48 548.86ZM363.54 547.27C362.06 543.9 361.07 541.5 360.86 540.79C360.74 540.41 360.35 539.82 359.99 539.49C358.72 538.34 359.14 538 361.81 538C364.16 538 365.33 538.43 364.19 538.87C363.46 539.15 363.53 539.89 364.53 542.36C365.58 544.96 365.86 545.29 366.46 544.65C367.23 543.84 368.42 539.95 368.02 539.55C367.82 539.36 367.67 538.93 367.67 538.6C367.67 538.1 367.95 538 369.28 538C370.16 538 370.98 538.09 371.09 538.2C371.2 538.31 370.85 539.11 370.31 539.99C369.77 540.86 369.33 541.73 369.33 541.93C369.33 542.12 369.12 542.7 368.85 543.22C368.59 543.74 367.88 545.22 367.27 546.5C366.34 548.48 366.02 548.85 365.24 548.94C364.41 549.04 364.24 548.87 363.54 547.27ZM432.68 548.27C432.68 548.03 432.9 547.46 433.17 547C434.1 545.38 433.99 545.33 429.08 545.33C424.38 545.32 423.42 545.12 423.77 544.21C423.94 543.77 424.77 543.67 428.74 543.59C433.85 543.49 433.7 543.56 433.15 541.75C432.97 541.16 433.05 541 433.54 541C434.24 541.01 437.33 543.83 437.33 544.45C437.33 544.67 436.47 545.61 435.42 546.53C433.08 548.58 432.66 548.84 432.68 548.27ZM181.08 547.48C180.81 547.28 180.65 546.83 180.72 546.48C180.83 545.87 181.22 545.83 187.54 545.74C193.3 545.67 194.3 545.73 194.67 546.18C195.04 546.61 195.02 546.79 194.59 547.22C194.16 547.65 192.98 547.74 187.82 547.78C183.84 547.82 181.39 547.7 181.08 547.48ZM26.38 546.97C27.36 546.45 28 544.64 28 542.38C28 540.22 27.74 539.83 25.96 539.32C24.43 538.88 23.69 539.2 23.14 540.52C21.97 543.31 23.27 547.13 25.44 547.31C25.59 547.32 26.01 547.17 26.38 546.97ZM80.69 546.65C81.51 546.22 81.5 545.82 80.62 543.53C79.7 541.13 79.01 541.07 78.04 543.31C77.65 544.22 77.33 545.26 77.33 545.63C77.33 546.81 79.28 547.41 80.69 546.65ZM157.58 545.79C157.2 545.68 157 545.28 157 544.64L157 543.67L163.79 543.67C169.08 543.67 170.67 543.77 170.96 544.12C171.24 544.46 171.17 544.71 170.63 545.2C170.01 545.76 169.3 545.84 164.05 545.89C160.81 545.93 157.9 545.88 157.58 545.79ZM138.31 542.81C139.3 541.86 139.4 540.11 138.5 539.46C137.74 538.91 135.85 538.52 135.17 538.79C134.39 539.08 134.46 543.18 135.25 543.63C136.05 544.09 137.34 543.74 138.31 542.81ZM355.07 535.27C354.85 535.05 354.67 534.45 354.67 533.93C354.67 533.09 354.78 533 355.84 533C357.2 533 357.61 533.63 357.05 534.85C356.65 535.72 355.72 535.92 355.07 535.27ZM218.81 530.88C218.59 530.31 219.38 528.66 220.2 527.98C220.7 527.56 219.9 527.48 213.84 527.33C207.75 527.19 206.86 527.1 206.54 526.59C206.31 526.22 206.29 525.91 206.51 525.69C206.7 525.5 209.51 525.34 213.08 525.3C220.4 525.23 221 525.05 219.56 523.35C218.6 522.2 218.38 521 219.13 521C219.69 521 223.78 525.15 223.95 525.88C224.05 526.34 220.97 529.9 219.58 530.94C219.09 531.3 218.96 531.29 218.81 530.88ZM85 530.3C85 529.91 85.4 529.12 85.88 528.55L86.77 527.5L79.8 527.32C75.97 527.22 72.8 527.1 72.75 527.07C72.7 527.03 72.67 526.62 72.67 526.17C72.67 525.18 72.18 525.24 79.59 525.3C83.19 525.34 85.59 525.22 86.02 524.99C86.69 524.63 86.68 524.62 85.85 523.62C84.85 522.44 84.73 521.33 85.59 521.33C86.24 521.33 90.33 525.28 90.33 525.9C90.33 526.44 85.95 531 85.43 531C85.19 531 85 530.68 85 530.3ZM139.33 530.55C139.33 530.3 139.71 529.54 140.17 528.87C140.62 528.19 141 527.57 141 527.49C141 527.41 137.96 527.31 134.25 527.26L127.5 527.17L127.39 526.25L127.29 525.33L132.23 525.26C134.94 525.22 137.86 525.23 138.7 525.27C140.87 525.38 141.34 524.74 140.2 523.23C139.16 521.87 139.1 521.33 140.01 521.33C140.79 521.33 144.67 525.14 144.67 525.91C144.67 526.69 140.69 531 139.97 531C139.62 531 139.33 530.8 139.33 530.55ZM483.16 516.98C483.02 516.77 483.41 515.6 484.01 514.38C484.61 513.16 485.3 511.68 485.55 511.08C485.8 510.49 486.25 509.44 486.54 508.75C486.84 508.06 487.32 506.97 487.6 506.33C487.87 505.69 488.3 504.77 488.55 504.28C488.8 503.8 489 503.17 489 502.9C489 502.44 489.66 502 490.36 502C490.8 502 492.33 504.55 492.33 505.29C492.33 505.63 492.56 506.11 492.83 506.33C493.11 506.56 493.33 507.07 493.33 507.47C493.33 507.87 493.47 508.34 493.63 508.52C493.8 508.69 494.26 509.66 494.67 510.67C495.08 511.68 495.78 513.32 496.24 514.33C497.21 516.48 496.99 517.17 495.31 517.17C494.32 517.17 494.15 517.03 493.84 516C493.65 515.36 493.23 514.35 492.9 513.75L492.32 512.67L489.57 512.67L486.82 512.67L486.05 514.42C485.62 515.38 485.16 516.39 485.02 516.67C484.7 517.29 483.48 517.5 483.16 516.98ZM491.1 510.92C491.61 510.53 491.61 510.38 491.14 509C490.86 508.18 490.4 507.27 490.12 507C489.68 506.56 489.57 506.57 489.14 507.16C488.46 508.08 487.87 510.18 488.11 510.81C488.36 511.45 490.29 511.52 491.1 510.92ZM491.13 497.53C490.91 496.95 491.05 496.54 491.87 495.42L492.41 494.67L487.58 494.67C483.76 494.67 482.66 494.57 482.35 494.18C481.53 493.2 482.33 493 487.17 493C489.8 493 492.04 492.87 492.14 492.71C492.24 492.54 492.03 492.03 491.66 491.57C490.91 490.62 490.79 489.67 491.42 489.67C491.66 489.67 492.82 490.55 494.01 491.63L496.17 493.6L495 494.83C494.36 495.51 493.27 496.51 492.58 497.06C491.54 497.89 491.3 497.97 491.13 497.53ZM441.6 445.25L441.5 433.83L438.9 430.01C436.04 425.81 435.81 424.9 437.57 424.73C438.55 424.64 438.75 424.78 439.7 426.33C440.27 427.27 440.84 427.94 440.96 427.82C441.07 427.71 441.32 419.64 441.5 409.89L441.83 392.17L472.08 392C491.89 391.89 502.34 391.72 502.36 391.5C502.37 391.32 501.58 390.64 500.61 389.99C498.58 388.65 498.14 387.56 499.4 386.98C500.28 386.59 501.26 386.88 502.67 387.97C503.12 388.33 504.62 389.34 506 390.22L508.5 391.83L533.64 392C552.01 392.12 558.81 392.27 558.9 392.55C558.97 392.75 558.31 393.27 557.43 393.69C556.55 394.11 553.95 395.52 551.65 396.81C549.35 398.11 546.88 399.46 546.15 399.82C545.43 400.17 544.61 400.64 544.33 400.86C543.87 401.22 542.29 402.11 537.29 404.82C535.04 406.03 529.77 408.99 528.83 409.57C528.47 409.79 527.94 410.08 527.67 410.21C527.39 410.33 526.18 411 524.98 411.7C523.78 412.39 522.38 413.06 521.88 413.18C520.86 413.44 519.52 414.16 507.17 421.06C502.4 423.72 494.93 427.89 490.57 430.32C486.21 432.76 482.7 434.92 482.76 435.13C482.83 435.33 483.69 435.61 484.67 435.75C486.63 436.04 487.33 436.45 487.33 437.32C487.33 438.23 486.22 439 484.9 439C484.24 439 482.17 438.76 480.3 438.46C476.95 437.93 476.9 437.93 475.54 438.65C472.68 440.15 467.94 442.78 466.06 443.89C465.38 444.29 464.23 444.91 463.5 445.29C462.77 445.66 461.27 446.48 460.17 447.11C459.07 447.75 456.67 449.05 454.83 450C453 450.96 451.3 451.91 451.05 452.11C450.46 452.58 449.62 453.07 447.17 454.34C446.07 454.91 444.72 455.65 444.17 455.99C443.62 456.34 442.84 456.63 442.43 456.64L441.7 456.67L441.6 445.25ZM500.63 456.42C500.61 456.28 500.62 453.19 500.66 449.55L500.73 442.94L499.83 442C499.33 441.48 499.01 440.92 499.11 440.76C499.21 440.6 501.24 440.47 503.63 440.49C508.41 440.52 509.18 440.79 510.41 442.88C510.96 443.82 510.95 443.92 510.35 445.02C508.75 447.91 508.79 447.61 509.9 448.62C511.17 449.78 511.46 450.66 511.18 452.51C511.01 453.64 510.65 454.23 509.49 455.31L508.01 456.67L504.34 456.67C502.32 456.67 500.65 456.55 500.63 456.42ZM506.66 455C507.48 454.56 508.67 452.6 508.67 451.69C508.67 451.28 508.23 450.51 507.69 449.97C506.87 449.16 506.45 449 505.05 449C503.12 449 503.09 449.05 503.01 452.28C502.98 453.48 503.13 454.59 503.36 454.86C503.81 455.4 505.75 455.49 506.66 455ZM445.81 452.03C445.92 451.87 447.07 451.18 448.39 450.5C449.7 449.82 451.24 448.98 451.8 448.64C452.37 448.3 453.66 447.61 454.67 447.11C455.68 446.61 456.88 445.95 457.33 445.64C457.79 445.33 458.96 444.65 459.92 444.13C460.89 443.6 462.24 442.83 462.92 442.42C463.61 442.02 464.47 441.55 464.83 441.38C465.2 441.21 466.77 440.34 468.33 439.45C469.89 438.55 471.54 437.63 472 437.4C474.93 435.9 475.49 435.33 477.07 432.19C479.72 426.92 480.64 426.06 481.81 427.73C482.28 428.41 482.26 428.57 481.49 429.87C480.71 431.22 480.43 432.33 480.87 432.33C481.1 432.33 485.97 429.74 486.5 429.34C486.68 429.2 488.03 428.44 489.5 427.66C490.97 426.88 493.29 425.61 494.67 424.83C496.04 424.06 500.09 421.8 503.67 419.82C509.45 416.61 511.14 415.69 515.66 413.28C516.3 412.94 516.99 412.67 517.2 412.67C517.41 412.67 518.77 412.01 520.21 411.21C521.65 410.41 523.58 409.34 524.5 408.84C525.42 408.33 526.62 407.66 527.17 407.34C527.72 407.02 528.99 406.31 530 405.76C531.01 405.21 532.51 404.39 533.33 403.92C538.91 400.79 541.39 399.42 543 398.58C547.46 396.23 549.49 395.04 549.6 394.7C549.69 394.44 543.99 394.33 529.07 394.33L508.41 394.33L504.41 397C502.22 398.47 500.26 399.67 500.07 399.67C499.5 399.67 498.67 398.67 498.67 398C498.67 397.6 499.38 396.94 500.67 396.14C501.77 395.46 502.67 394.78 502.67 394.62C502.67 394.46 489.62 394.33 473.67 394.33L444.68 394.33L444.59 410.92C444.54 420.04 444.59 427.62 444.69 427.76C444.79 427.9 445.45 427.19 446.15 426.17C447.48 424.23 447.66 424.13 448.69 424.68C449.75 425.25 449.44 426.22 447 429.94L444.67 433.5L444.67 442.92C444.67 450.89 444.74 452.33 445.15 452.33C445.41 452.33 445.71 452.2 445.81 452.03ZM506.64 446.47C508.11 445.23 508.09 443.58 506.58 442.66C505.46 441.98 503.84 441.78 503.53 442.29C503.07 443.02 502.93 446.34 503.33 446.83C503.97 447.6 505.5 447.43 506.64 446.47ZM417.34 438.17C417 437.77 417.23 437.05 418.6 434.26C420.88 429.59 422.33 426.39 422.33 426.03C422.33 425.86 422.58 425.22 422.89 424.61C423.2 424 423.55 423.27 423.68 423C423.8 422.72 424.24 422.5 424.64 422.5C425.52 422.5 426.3 423.87 428.35 429C429.57 432.09 430.7 434.5 431.98 436.77C432.47 437.64 432.46 437.73 431.85 438.18C431.09 438.76 429.56 438.81 428.61 438.3C428.06 438.01 427.98 437.73 428.15 436.82C428.3 436.01 428.16 435.31 427.67 434.35L426.99 433L424.68 433C421.59 433 420.89 433.31 420.36 434.92C420.01 435.97 420.01 436.39 420.34 437.01C420.69 437.67 420.66 437.85 420.15 438.22C419.34 438.81 417.85 438.79 417.34 438.17ZM508.57 434.45C508.86 432.15 508.84 431.11 508.5 430.08C508.34 429.59 508.39 429.33 508.65 429.33C509.18 429.33 513 432.28 513 432.69C513 432.98 509.28 436.04 508.63 436.28C508.44 436.35 508.42 435.61 508.57 434.45ZM502.33 433C502.33 432.82 502.48 432.67 502.67 432.67C502.85 432.67 503 432.82 503 433C503 433.18 502.85 433.33 502.67 433.33C502.48 433.33 502.33 433.18 502.33 433ZM425.94 431.12C426.14 430.76 426.1 430.27 425.82 429.7C425.58 429.22 425.23 428.42 425.04 427.92C424.84 427.41 424.47 427 424.21 427C423.79 427 422.33 429.81 422.33 430.63C422.33 431.64 425.42 432.06 425.94 431.12ZM16.5 420.08C14.31 417.3 13.57 415.17 13.4 411.19C13.26 407.79 13.5 406.41 14.71 403.71C15.66 401.6 17.65 399.33 18.57 399.33C19.55 399.33 19.53 399.84 18.51 401.19C16.71 403.54 16.23 405.45 16.23 410.33C16.23 415.25 16.5 416.41 18.36 419.42C18.92 420.33 19.3 421.29 19.2 421.54C18.85 422.44 17.99 421.97 16.5 420.08ZM31.25 421.81C30.79 421.34 30.99 420.43 31.92 418.79C33.37 416.22 33.7 415.04 33.9 411.75C34.13 408.06 33.45 404.73 31.97 402.33C30.95 400.67 30.71 399.33 31.43 399.33C32.22 399.33 34.27 401.8 35.29 403.95C36.75 407.05 37.23 410.14 36.68 412.94C36.44 414.16 35.82 416 35.31 417.02C34.28 419.09 31.64 422.2 31.25 421.81ZM349.93 420.58C346.49 416.34 345.43 410.93 347.01 405.64C347.86 402.78 350.33 399.33 351.53 399.33C352.51 399.33 352.52 399.54 351.66 400.83C349.55 403.96 348.78 407.81 349.29 412.73C349.63 415.99 350.15 417.56 351.56 419.7C352.42 421 352.42 422 351.55 422C351.29 422 350.56 421.36 349.93 420.58ZM372.25 421.81C371.8 421.35 371.99 420.42 372.84 418.95C375.72 413.95 375.67 406.48 372.72 401.85C372.14 400.94 371.67 400.01 371.67 399.77C371.67 398.9 372.95 399.36 374.12 400.65C375.74 402.45 376.87 404.78 377.54 407.72C378.54 412.11 377.23 416.7 373.9 420.48C373.13 421.35 372.39 421.95 372.25 421.81ZM427.33 417.07C427.33 416.74 427.5 416.3 427.7 416.1C428.57 415.23 427.56 415 422.98 415C419.07 415 418.33 414.92 418.33 414.5C418.33 414.08 419.1 414 423.28 414C426 414 428.32 413.9 428.43 413.79C428.55 413.67 428.35 413.2 427.99 412.74C426.66 411.05 427.53 410.37 429.22 411.79C429.74 412.22 430.5 412.68 430.9 412.8C432.01 413.15 432.25 414.36 431.35 414.99C430.94 415.27 430.04 415.99 429.35 416.58C427.93 417.8 427.33 417.95 427.33 417.07ZM22.91 416.18C21.24 415.6 20.68 415.09 19.95 413.5C17.92 409.03 20.75 405.07 26.02 405.02C28.35 405 29 405.33 29 406.53C29 407.61 28.2 408.15 27.56 407.51C27.28 407.23 26.65 406.85 26.17 406.67C23.72 405.74 22.33 406.86 22.33 409.79C22.33 413.12 23.71 414.82 26.42 414.83C27.42 414.83 28.16 414.99 28.24 415.23C28.57 416.2 24.87 416.86 22.91 416.18ZM353.11 415.82C353 415.52 353.22 414.97 353.62 414.54C354.24 413.89 354.33 413.39 354.33 410.73C354.33 408.03 354.25 407.62 353.67 407.26C352.25 406.37 353.22 405.42 355.71 405.26L357.17 405.17L357.26 409.73C357.35 414.17 357.38 414.32 358.19 414.96C359.01 415.61 359.02 415.63 358.37 415.98C358.01 416.17 356.72 416.33 355.51 416.33C353.83 416.33 353.27 416.21 353.11 415.82ZM360.42 416.11C359.83 415.87 359.9 415.4 360.67 414.42C361.22 413.72 361.33 413.07 361.33 410.66C361.33 408.04 361.26 407.7 360.61 407.27C359.57 406.57 360.02 405.84 361.79 405.35C364.3 404.64 364.33 404.69 364.33 409.76C364.33 414.33 364.51 415 365.71 415C366.83 415 367.33 413.69 367.33 410.77C367.33 408.4 367.24 407.94 366.62 407.36C365.66 406.47 366.02 405.78 367.67 405.33C370.18 404.66 370.16 404.62 370.26 409.66C370.34 413.66 370.43 414.22 371.04 414.88L371.73 415.61L371.05 415.97C370.38 416.33 361.26 416.45 360.42 416.11ZM182.45 414.34C179.5 413.71 177.01 411.88 175.8 409.44C175.34 408.51 175.17 407.44 175.18 405.5C175.18 401.16 176.72 399.04 180.86 397.66C182.72 397.04 183.59 396.95 186.34 397.07C188.65 397.18 189.87 397.39 190.48 397.79C191.5 398.46 191.6 399.66 190.69 400.48C190.08 401.03 190.04 401.02 189.68 400.36C189.21 399.48 187.65 398.82 185.32 398.53C183.73 398.34 183.27 398.42 181.68 399.24C179.46 400.37 178.78 401.27 178.27 403.73C177.04 409.59 182.76 414.25 188.63 412.18C190.06 411.67 191.12 411.8 190.91 412.46C190.84 412.66 190.13 413.18 189.33 413.6C187.69 414.47 184.62 414.8 182.45 414.34ZM71.3 414.08C71.28 413.95 71.29 410.55 71.33 406.54L71.39 399.24L70.45 398.46C69.65 397.8 69.58 397.63 70 397.35C70.66 396.91 77.48 396.91 79.07 397.35C81.71 398.08 82.4 400.55 80.64 402.98C79.56 404.47 79.56 404.55 80.71 405.13C81.11 405.33 81.73 406.07 82.09 406.76C82.96 408.44 82.65 409.99 81.09 411.71C79.18 413.82 77.86 414.33 74.35 414.33C72.69 414.33 71.32 414.22 71.3 414.08ZM121.12 413.84C121.02 413.57 121.31 412.89 121.77 412.35C122.69 411.26 123.49 409.63 126.47 402.83C126.72 402.28 127.11 401.38 127.36 400.83C127.6 400.28 127.96 399.32 128.15 398.7C128.54 397.46 129.31 396.79 130.06 397.08C130.32 397.18 130.96 398.29 131.49 399.55C134.99 407.96 136.69 411.75 137.3 412.53C138.36 413.88 137.76 414.33 134.95 414.33C132.35 414.33 131.7 413.79 133.01 412.72C133.76 412.12 133.76 412.11 133.17 410.57C132.85 409.71 132.34 408.95 132.04 408.86C131.55 408.72 127.07 408.55 126.09 408.63C125.51 408.68 124.67 410.45 124.67 411.61C124.67 412.15 124.89 412.77 125.17 413C126.05 413.73 125.13 414.33 123.12 414.33C121.83 414.33 121.26 414.19 121.12 413.84ZM226.57 413.97C226.25 413.78 225.57 413 225.07 412.23C224.19 410.87 224.17 410.7 224.17 406C224.17 401.72 224.25 401.03 224.85 400C225.86 398.28 227.46 397.33 229.34 397.33C232.58 397.33 233.95 398.54 234.77 402.13C235.23 404.17 235.23 404.74 234.8 407.46C234.25 410.84 233.34 412.6 231.57 413.68C230.39 414.4 227.59 414.56 226.57 413.97ZM230.41 412.75C231.87 411.08 232.15 409.95 232.13 405.63C232.12 402.07 232.02 401.26 231.46 400.3C230.6 398.84 229.22 398.03 228.42 398.53C227.13 399.33 226.7 400.97 226.68 405.19C226.66 409.9 227.21 412.06 228.62 412.83C229.75 413.44 229.8 413.44 230.41 412.75ZM77.15 412.19C78.7 411.55 79.4 410.38 79.27 408.64C79.14 406.9 78.09 406 75.87 405.75L74.33 405.58L74.33 408.9C74.33 410.73 74.43 412.32 74.56 412.44C74.91 412.8 75.94 412.7 77.15 412.19ZM203.5 410.02C202.71 409.87 202.5 409.65 202.5 409L202.5 408.17L209.42 408.08C215.51 408 216.37 408.05 216.55 408.52C216.67 408.81 216.53 409.28 216.24 409.57C215.82 409.99 214.68 410.09 210.11 410.14C207.03 410.18 204.05 410.12 203.5 410.02ZM95.56 407.78C95.25 407.47 95.27 406 95.58 405.99C95.72 405.98 98.82 405.95 102.46 405.91C108.55 405.84 109.12 405.88 109.46 406.44C109.76 406.92 109.7 407.13 109.19 407.52C108.68 407.9 107.19 408 102.16 408C98.65 408 95.68 407.9 95.56 407.78ZM149.22 407.78C148.83 407.39 148.98 406 149.42 405.97C149.65 405.96 152.74 405.95 156.29 405.94C163.15 405.94 163.94 406.11 162.84 407.33C162.27 407.96 161.83 408 155.84 408C152.32 408 149.34 407.9 149.22 407.78ZM130.94 406.26C131 405.95 130.71 404.78 130.31 403.68C129.49 401.43 128.72 401.06 128.02 402.58C127.2 404.37 126.64 406.35 126.85 406.69C126.96 406.88 127.9 406.99 128.94 406.93C130.41 406.86 130.85 406.71 130.94 406.26ZM202.73 405.6C202.51 405.38 202.33 404.93 202.33 404.6C202.33 404.04 202.82 404 209.34 404C215.54 404 216.38 404.06 216.56 404.55C217.03 405.76 215.85 406 209.34 406C204.96 406 203.02 405.88 202.73 405.6ZM77.48 403.25C79.51 401.46 78.68 399.03 76 398.9L74.5 398.83L74.4 400.96C74.34 402.14 74.38 403.3 74.47 403.55C74.74 404.26 76.54 404.08 77.48 403.25ZM354.81 402.21C354.7 401.94 354.66 401.37 354.72 400.94C354.81 400.33 355.04 400.17 355.8 400.17C356.98 400.17 357.67 401.06 357.13 401.92C356.66 402.68 355.06 402.88 354.81 402.21ZM361.61 401.84C361.13 400.78 361.77 399.92 362.94 400.07C364.18 400.22 364.62 401.13 363.85 401.98C363.02 402.9 362.07 402.85 361.61 401.84ZM367.67 402.17C367.43 401.89 367.35 401.32 367.47 400.84C367.75 399.74 369.45 399.64 370.01 400.69C370.73 402.03 368.64 403.34 367.67 402.17ZM80 391.36C80 391.01 80.38 390.27 80.83 389.73C81.29 389.18 81.67 388.65 81.67 388.54C81.67 388.43 78.55 388.31 74.75 388.26L67.83 388.17L67.73 387.25L67.62 386.33L74.46 386.33C79 386.33 81.37 386.21 81.52 385.97C81.64 385.77 81.37 385.21 80.92 384.72C79.44 383.12 79.5 381.86 81.02 382.68C81.9 383.15 85.32 386.72 85.33 387.18C85.34 387.65 80.91 392 80.41 392C80.18 392 80 391.71 80 391.36ZM133.67 391.27C133.67 390.87 134.07 390.12 134.55 389.61C135.23 388.91 135.33 388.64 134.97 388.51C134.71 388.42 131.57 388.3 128 388.25L121.5 388.17L121.39 387.25L121.29 386.33L127.99 386.33C133.73 386.33 134.72 386.26 134.89 385.82C135 385.52 134.78 384.97 134.38 384.54C133.5 383.61 133.43 382.33 134.25 382.35C135.12 382.37 139.11 386.87 138.77 387.45C138.62 387.71 137.65 388.84 136.6 389.96C134.61 392.1 133.67 392.52 133.67 391.27ZM187 391.45C187 391.14 187.38 390.4 187.83 389.8C188.29 389.2 188.67 388.63 188.67 388.52C188.67 388.42 185.69 388.33 182.04 388.33C176.58 388.33 175.34 388.25 175 387.84C174.78 387.56 174.68 387.12 174.78 386.84C174.94 386.43 176.1 386.33 181.71 386.26C185.82 386.2 188.49 386.04 188.56 385.83C188.62 385.65 188.29 385.06 187.83 384.53C186.85 383.39 186.74 382.33 187.59 382.33C188.3 382.33 192.33 386.31 192.33 387.01C192.33 387.28 191.39 388.51 190.24 389.75C188.2 391.94 187 392.57 187 391.45ZM484.17 387.67C483.62 387.52 482.74 387.31 482.22 387.19C481.08 386.93 478 384.13 478 383.35C478 383.04 477.78 382.5 477.51 382.15C476.78 381.18 476.86 377.93 477.66 376.18C478.72 373.85 479.82 372.81 482.25 371.83C484.25 371.02 484.79 370.95 487.07 371.12C489.97 371.34 492.33 372.31 492.33 373.28C492.33 373.6 492.12 374.16 491.86 374.52C491.39 375.16 491.38 375.16 490.61 374.48C488.36 372.49 485.68 372.08 483.09 373.33C480.87 374.4 480.29 375.51 480.28 378.76C480.27 382.2 480.89 383.64 482.96 385.01C484.31 385.91 484.71 386 487.2 386C488.72 386 490.05 385.85 490.17 385.67C490.41 385.27 492 385.22 492 385.61C492 386.33 490.33 387.31 488.52 387.64C486.28 388.05 485.59 388.05 484.17 387.67ZM485.21 367.1C484.81 366.7 485 365.42 485.51 364.99C485.8 364.75 485.98 364.34 485.93 364.06C485.85 363.64 485.01 363.55 480.86 363.53C477.2 363.51 475.85 363.39 475.75 363.08C475.64 362.76 476.69 362.67 480.26 362.67C483.86 362.67 485.01 362.56 485.31 362.2C485.58 361.87 485.59 361.66 485.35 361.51C484.89 361.22 484.9 359.77 485.37 359.48C485.73 359.26 489.75 362.96 489.59 363.36C489.36 363.9 485.4 367.29 485.21 367.1ZM476.67 329.2C476.67 328.76 476.87 328.33 477.12 328.23C477.38 328.13 477.91 327.33 478.31 326.44C478.71 325.56 479.25 324.38 479.5 323.83C479.75 323.28 480.17 322.31 480.44 321.67C480.71 321.02 481.4 319.49 481.97 318.25C482.54 317.01 483 315.77 483 315.5C483 314.95 484.15 313.67 484.64 313.67C484.94 313.67 485.7 315.17 486.83 318C487.16 318.82 487.7 320.1 488.03 320.83C488.36 321.57 489.18 323.44 489.84 325C490.5 326.56 491.28 328.09 491.57 328.41C492.46 329.39 491.57 330.05 489.53 329.93L487.83 329.83L487.82 328.33C487.8 326.83 486.94 325.02 486.21 324.97C486 324.96 484.95 324.89 483.88 324.82C482.8 324.75 481.65 324.83 481.32 325.01C480.57 325.41 479.88 327.42 480.17 328.34C480.51 329.4 479.77 330 478.13 330C476.81 330 476.67 329.92 476.67 329.2ZM485.57 322.96C485.85 322.68 485.84 322.31 485.51 321.54C485.27 320.97 484.91 320.09 484.71 319.58C484.51 319.08 484.16 318.67 483.92 318.67C483.4 318.67 482.33 321.18 482.33 322.42C482.33 323.27 482.43 323.33 483.77 323.33C484.55 323.33 485.37 323.16 485.57 322.96ZM485.67 310.48C485.67 310.19 485.83 309.65 486.03 309.28C486.23 308.91 486.29 308.51 486.17 308.39C486.05 308.27 483.82 308.09 481.23 308C477.07 307.85 476.49 307.76 476.4 307.25C476.29 306.72 476.68 306.67 480.76 306.67C484.62 306.67 485.3 306.59 485.76 306.08C486.13 305.67 486.2 305.33 485.99 304.99C485.82 304.72 485.67 304.23 485.67 303.9C485.67 303.39 485.77 303.36 486.42 303.71C487.47 304.27 490 306.72 490 307.18C490 307.66 486.51 311 486.02 311C485.83 311 485.67 310.77 485.67 310.48ZM471.88 301.06C471.22 300.32 471.15 298.67 471.78 298.67C472.02 298.67 472.81 298.15 473.53 297.51L474.83 296.36L470.67 296.34C468.38 296.33 453.38 296.29 437.33 296.25C408.47 296.17 408.17 296.16 408.17 295.5C408.17 295.01 409.13 294.3 412 292.67C414.11 291.47 416.69 289.93 417.73 289.24C418.78 288.56 419.74 288 419.86 288C419.98 288 421.15 287.35 422.46 286.56C423.76 285.77 425.51 284.79 426.33 284.37C427.16 283.96 428.39 283.29 429.07 282.89C432.67 280.78 433.88 280.09 434.33 279.89C434.61 279.77 435.62 279.22 436.58 278.67C440.8 276.27 440.7 276.39 443.15 271.54C444.42 269.04 445.55 267 445.67 267C445.8 267 446.33 267.37 446.85 267.82L447.81 268.65L446.74 270.68C445.53 272.96 445.6 273.62 446.93 272.73C448.18 271.91 448.91 271.5 450.83 270.5C451.75 270.03 453.25 269.19 454.17 268.64C455.08 268.09 456.28 267.41 456.83 267.14C457.38 266.87 458.28 266.38 458.83 266.05C459.38 265.72 460.88 264.88 462.17 264.19C463.45 263.49 464.72 262.74 465 262.53C465.27 262.31 466.47 261.63 467.67 261.03C468.86 260.42 470.3 259.51 470.87 259.01C471.44 258.52 472.56 257.77 473.37 257.36C474.17 256.94 475.13 256.43 475.5 256.21C475.87 256 477.29 255.18 478.67 254.39C480.04 253.61 481.39 252.82 481.67 252.65C481.94 252.47 482.39 252.23 482.67 252.1C482.94 251.97 485.07 250.77 487.4 249.43C489.73 248.1 491.72 247 491.83 247C491.93 247 492.57 246.65 493.26 246.22C493.94 245.78 496.22 244.46 498.33 243.27C504.22 239.96 505.19 239.41 509.67 236.85C511.96 235.54 514.06 234.36 514.33 234.22C514.61 234.08 515.13 233.79 515.5 233.57C515.87 233.34 517.71 232.28 519.59 231.21C522.4 229.6 523.1 229.33 523.5 229.67C523.92 230.02 524 231.76 524 241.17L524 252.27L525.33 254.38C528.83 259.94 529.26 260.85 528.88 261.83C528.77 262.12 528.27 262.33 527.72 262.33C526.77 262.33 526.16 261.74 525.17 259.86C524.99 259.51 524.65 259.16 524.42 259.08C524.09 258.97 524 262.66 524 276.76C524 294.15 523.98 294.6 523.32 295.44L522.65 296.3L501.59 296.32L480.54 296.35L477.52 298.32C475.86 299.4 474.1 300.6 473.61 300.98C472.54 301.81 472.57 301.81 471.88 301.06ZM475.04 293.17C475.08 292.86 474.47 292.43 472.25 291.17C470.85 290.38 471.11 288 472.6 288C472.85 288 473.95 288.67 475.04 289.5C476.12 290.32 477.09 291 477.19 291C477.29 291 478.26 291.6 479.34 292.34L481.3 293.67L501.24 293.59L521.17 293.5L521.25 275.75C521.3 265.99 521.21 258 521.06 258C520.91 258 520.42 258.76 519.98 259.7C519.55 260.63 518.85 261.66 518.44 261.99C517.56 262.68 516 262.52 516 261.73C516 261.08 518.24 256.43 518.69 256.15C518.86 256.04 519.23 255.48 519.5 254.89C519.76 254.31 520.28 253.46 520.65 253C521.28 252.22 521.32 251.67 521.34 243.83C521.35 239.25 521.35 235.16 521.34 234.75C521.34 234.29 521.13 234 520.81 234C520.36 234 514.29 237.24 509.17 240.22C508.43 240.64 507.61 241.1 507.33 241.22C506.91 241.42 502.17 244.11 500.67 245.01C498.9 246.07 493.66 248.99 492.03 249.83C490.96 250.38 489.88 251 489.63 251.21C489.37 251.42 488.22 252.09 487.07 252.71C480.82 256.06 476.2 258.73 475.33 259.5C474.88 259.91 473.75 260.68 472.84 261.21C471.93 261.73 470.88 262.35 470.51 262.57C470.14 262.79 469.61 263.07 469.33 263.18C469.06 263.29 468.61 263.52 468.33 263.68C468.06 263.84 466.78 264.59 465.5 265.33C464.22 266.08 462.94 266.82 462.67 266.99C462.39 267.15 461.94 267.37 461.67 267.48C461.39 267.59 460.72 267.97 460.17 268.33C459.62 268.69 458.49 269.36 457.67 269.83C456.84 270.29 455.94 270.81 455.67 270.98C455.39 271.15 454.94 271.37 454.67 271.48C454.39 271.58 453.57 272.04 452.83 272.5C452.1 272.95 450.64 273.81 449.58 274.41C447.52 275.57 447.31 276.11 448.86 276.27C449.39 276.33 450.4 276.52 451.08 276.7C452.08 276.96 452.33 277.18 452.33 277.81C452.33 279.31 451.72 279.45 446.21 279.21C441.6 279 441.04 279.04 440.31 279.58C439.86 279.91 438.82 280.53 438 280.94C437.18 281.36 435.86 282.07 435.08 282.52C434.3 282.97 433.03 283.7 432.25 284.15C431.47 284.6 430.16 285.3 429.33 285.72C428.51 286.13 427.61 286.65 427.33 286.86C427.06 287.07 425.93 287.74 424.83 288.34C423.73 288.94 422.01 289.88 421 290.43C418.37 291.86 417.33 292.64 417.33 293.19C417.33 293.6 421.28 293.66 446.17 293.59C464.78 293.53 475.02 293.38 475.04 293.17ZM16.95 286.65C14.5 284.08 13.34 280.89 13.34 276.72C13.33 272.37 14.36 269.38 16.74 266.8C18.1 265.32 18.89 265.02 19.58 265.71C19.87 266 20.21 266 20.94 265.69C21.48 265.47 22.41 265.33 23.01 265.39L24.1 265.5L24.03 268.55C23.96 271.79 24.25 272.48 25.3 271.53C25.67 271.2 26.49 271 27.54 271C28.89 271 29.37 271.17 30.23 271.96C31.67 273.27 32.23 275.23 31.7 277.03C31.29 278.38 28.91 281.33 28.23 281.33C28.04 281.33 27.62 281.58 27.29 281.87C26.49 282.59 22.56 282.59 21.39 281.87C21.11 281.7 21 279.6 21 274.64L21 267.65L20.11 267.31C18.78 266.81 18.39 267.11 17.25 269.58C16.23 271.77 16.2 271.97 16.2 276.58L16.19 281.34L17.76 284.37C18.62 286.04 19.25 287.54 19.15 287.7C18.8 288.27 18.23 288 16.95 286.65ZM33 287.21C33 286.77 33.41 285.69 33.92 284.79C35.31 282.31 35.67 281.09 35.89 277.97C36.14 274.41 35.41 270.77 33.99 268.53C32.92 266.85 32.68 265.33 33.49 265.33C34.05 265.33 36.42 268.2 37.32 269.98C37.65 270.63 38.18 272.35 38.51 273.8C39.01 276.09 39.04 276.74 38.67 278.8C38.17 281.64 36.9 284.27 35.01 286.42C33.44 288.19 33 288.37 33 287.21ZM350.61 287.25C349.31 286.16 347.51 283.11 346.88 280.95C345.8 277.22 346.4 271.83 348.22 268.88C349.42 266.95 351.02 265.33 351.73 265.33C352.56 265.33 352.49 265.73 351.34 267.54C349.63 270.24 349.21 272.04 349.22 276.67C349.23 281.15 349.62 282.69 351.52 285.69C352.3 286.94 352.42 288 351.76 288C351.62 288 351.1 287.66 350.61 287.25ZM366 287.35C366 287 366.31 286.18 366.69 285.53C367.07 284.89 367.75 283.36 368.19 282.13C369.68 278.02 369.12 271.68 366.97 268.3C365.14 265.42 366.03 264.27 368.17 266.75C369.88 268.73 370.91 270.89 371.56 273.86C372.04 276.03 372.06 276.77 371.73 278.72C371.27 281.36 369.97 284.13 368.12 286.42C366.76 288.09 366 288.42 366 287.35ZM353.13 281.86C353.03 281.6 353.26 281.07 353.64 280.69C354.24 280.09 354.33 279.59 354.33 276.85C354.33 274.03 354.26 273.65 353.67 273.33C353.3 273.14 353 272.78 353 272.53C353 271.97 354.6 271.29 356.06 271.22L357.17 271.17L357.33 275.93C357.5 280.66 357.67 281.31 358.79 281.33C358.95 281.33 358.89 281.56 358.67 281.83C358.09 282.53 353.4 282.55 353.13 281.86ZM359.73 282.04C359.39 281.83 359.53 281.52 360.31 280.74C361.3 279.75 361.33 279.62 361.33 276.75C361.33 273.9 361.3 273.76 360.5 273.39C360.04 273.19 359.67 272.86 359.67 272.68C359.67 271.97 362.85 270.83 363.81 271.2C364.25 271.37 364.33 272.11 364.33 275.87C364.33 279.9 364.4 280.4 364.99 280.9C366.09 281.84 365.25 282.33 362.54 282.33C361.24 282.33 359.97 282.2 359.73 282.04ZM27.57 280.25C28.67 279.04 29 278.15 28.99 276.44C28.97 274.02 27.66 272.78 25.53 273.18C24.23 273.43 24 274.07 24 277.54C24 279.22 24.14 279.81 24.67 280.33C25.55 281.21 26.72 281.18 27.57 280.25ZM128.67 277.37C125.38 276.65 122.76 274.21 121.87 271.05C121.2 268.64 121.2 268.32 121.92 266.03C123.15 262.09 126.37 260.19 131.83 260.19C136.8 260.18 138.48 261.03 137.68 263.12C137.32 264.07 136.33 264.33 136.33 263.48C136.33 262.61 133.74 261.68 131.33 261.68C127.02 261.69 124.63 263.95 124.55 268.11C124.48 271.93 126.68 274.63 130.72 275.71C132.05 276.06 132.58 276.04 134.3 275.56C137.9 274.56 138.79 275.09 136.06 276.61C134.53 277.46 130.8 277.84 128.67 277.37ZM227.43 277.44C226.37 277.22 224.76 275.23 224.31 273.59C224.08 272.72 223.98 270.61 224.07 268.17C224.24 263.54 224.72 262.32 226.86 261.07C228.48 260.12 231.21 260.19 232.57 261.21C234.3 262.5 234.83 264.13 234.82 268C234.81 269.92 234.62 272.14 234.39 272.92C233.98 274.33 232.41 276.43 231.37 276.97C230.65 277.35 228.34 277.63 227.43 277.44ZM67.5 277C67.39 276.82 67.67 276.18 68.12 275.59C68.92 274.52 71 270.63 71 270.19C71 270.07 71.52 268.85 72.17 267.48C72.81 266.11 73.33 264.77 73.33 264.51C73.33 264.25 73.47 263.95 73.64 263.85C73.81 263.74 74.2 262.9 74.51 261.98C75.01 260.47 75.16 260.31 75.95 260.4C76.65 260.48 77.02 260.88 77.73 262.33C78.94 264.83 82.67 273.77 82.67 274.2C82.67 274.39 83.11 274.97 83.66 275.49C85.1 276.87 84.55 277.33 81.48 277.33C78.81 277.33 78.22 276.97 79.35 276.05C80.08 275.46 80.09 275.43 79.53 273.76C79.22 272.82 78.74 271.97 78.46 271.86C78.18 271.75 76.62 271.67 75.01 271.67L72.07 271.67L71.54 273.01C70.83 274.77 70.86 275.57 71.65 276.07C72.13 276.37 72.21 276.58 71.94 276.9C71.52 277.41 67.81 277.5 67.5 277ZM178.3 277.08C178.29 276.95 178.3 273.59 178.33 269.62L178.38 262.41L177.46 261.55C176.95 261.08 176.62 260.6 176.74 260.49C176.85 260.37 178.96 260.27 181.44 260.26C185.32 260.24 186.08 260.32 187.05 260.88C189.24 262.16 189.5 264.41 187.65 266.18C186.52 267.27 186.41 267.87 187.28 268.15C188.35 268.49 189.38 269.89 189.54 271.22C189.75 272.96 188.61 274.86 186.54 276.25C184.99 277.29 184.79 277.33 181.63 277.33C179.82 277.33 178.32 277.22 178.3 277.08ZM537.75 276.73C537.66 276.49 537.75 275.92 537.96 275.46C538.19 274.95 538.33 272.4 538.33 268.66C538.33 263.03 538.3 262.67 537.67 262.33C537.3 262.14 537 261.76 537 261.49C537 261.1 537.62 260.99 540.08 260.94C546.12 260.82 546.89 260.98 547.52 262.49C548.14 263.98 547.83 265.39 546.63 266.53C545.49 267.63 545.42 268 546.35 268C546.72 268 547.4 268.37 547.85 268.82C548.53 269.5 548.67 269.96 548.67 271.61C548.67 273.49 548.6 273.65 547.37 274.76C545.26 276.67 543.27 277.38 540.38 277.26C538.73 277.2 537.86 277.02 537.75 276.73ZM230.15 276.13C231.66 275.55 232.55 271.29 232.14 266.62C231.88 263.64 231.08 262.05 229.57 261.52C227.65 260.85 226.68 263.19 226.68 268.5C226.68 272.6 227.17 274.8 228.31 275.72C229.14 276.39 229.35 276.44 230.15 276.13ZM184.37 275.25C187.75 272.99 186.84 268.94 182.93 268.86L181.5 268.83L181.4 271.95C181.27 276.13 181.93 276.87 184.37 275.25ZM543.44 275.21C544.39 274.88 544.94 274.38 545.55 273.31C546.35 271.91 546.36 271.8 545.85 270.74C545.26 269.48 543.67 268.67 541.84 268.67L540.67 268.67L540.67 271.64C540.67 273.9 540.79 274.74 541.19 275.14C541.82 275.77 541.83 275.77 543.44 275.21ZM202.73 272.93C202.17 272.37 202.24 271.44 202.86 271.2C203.15 271.09 206.14 271 209.5 271C212.86 271 215.85 271.09 216.14 271.2C216.84 271.47 216.81 272.1 216.06 272.78C215.54 273.25 214.55 273.33 209.29 273.33C204.95 273.33 203.02 273.22 202.73 272.93ZM95.56 270.78C95.43 270.66 95.33 270.21 95.33 269.78L95.33 269L102.29 269C107.87 269 109.33 269.09 109.64 269.47C109.95 269.84 109.88 270.05 109.28 270.47C108.65 270.91 107.43 271 102.15 271C98.64 271 95.68 270.9 95.56 270.78ZM149.22 270.78C149.1 270.66 149 270.21 149 269.78L149 269L155.75 269.01C159.46 269.01 162.72 269.15 162.99 269.32C163.4 269.58 163.38 269.73 162.85 270.31C162.27 270.96 161.87 271 155.84 271C152.32 271 149.34 270.9 149.22 270.78ZM77.25 269.62C77.53 269.34 77.45 268.77 76.93 267.37C75.68 263.96 75.02 263.81 74.03 266.73C72.97 269.87 73.02 270 75.1 270C76.07 270 77.04 269.83 77.25 269.62ZM202.56 268.78C202.43 268.66 202.33 268.21 202.33 267.78L202.33 267L209.34 267C215.29 267 216.38 267.08 216.55 267.5C216.65 267.78 216.56 268.23 216.33 268.5C215.99 268.91 214.76 269 209.35 269C205.73 269 202.68 268.9 202.56 268.78ZM355.41 268.77C354.66 268.49 354.28 267.4 354.67 266.67C355.34 265.4 357.55 266.13 357.28 267.53C357.14 268.21 355.99 268.98 355.41 268.77ZM361.62 267.87C361.13 266.78 361.75 265.92 362.94 266.07C364.77 266.29 364.73 268.39 362.89 268.61C362.21 268.69 361.92 268.51 361.62 267.87ZM184.15 266.79C184.84 266.53 185.67 264.94 185.67 263.89C185.67 262.94 185.27 262.57 183.61 261.98C181.8 261.35 181.33 261.86 181.33 264.49C181.33 265.62 181.43 266.66 181.56 266.78C181.84 267.06 183.44 267.07 184.15 266.79ZM544.4 266.1C546.27 264.31 545.14 262.22 542.4 262.4L540.83 262.5L540.73 264.29C540.59 266.71 540.75 267 542.22 267C543.12 267 543.73 266.75 544.4 266.1ZM544.33 256.43C544.33 255.9 544.51 255.29 544.73 255.07C544.95 254.85 545.07 254.66 544.98 254.65C544.9 254.64 542.63 254.6 539.94 254.56C537.26 254.53 534.95 254.39 534.82 254.26C534.69 254.13 534.67 253.8 534.78 253.51C534.95 253.08 535.78 253 539.97 253C542.97 253 545.04 252.87 545.17 252.66C545.28 252.48 545.07 251.93 544.69 251.45C543.36 249.76 544.09 249.02 545.64 250.48C546.11 250.93 547.07 251.77 547.76 252.36L549.02 253.42L546.96 255.29C545.83 256.32 544.77 257.22 544.62 257.28C544.46 257.34 544.33 256.96 544.33 256.43ZM79.81 254.97C79.69 254.76 80.05 253.94 80.63 253.12C81.2 252.31 81.67 251.58 81.67 251.5C81.67 251.41 78.55 251.31 74.75 251.26L67.83 251.17L67.83 250.33L67.83 249.5L74.49 249.41C78.15 249.36 81.29 249.18 81.46 249.01C81.65 248.82 81.36 248.24 80.72 247.51C79.45 246.06 79.32 245.18 80.42 245.51C81.3 245.78 85.33 249.63 85.33 250.21C85.33 250.7 80.85 255.33 80.38 255.33C80.19 255.33 79.94 255.17 79.81 254.97ZM133.45 254.82C133.33 254.51 133.68 253.76 134.31 252.98C135.06 252.05 135.24 251.61 134.94 251.5C134.7 251.41 131.57 251.3 128 251.25L121.5 251.17L121.39 250.25L121.29 249.33L128.12 249.33C132.45 249.33 135.04 249.21 135.17 248.99C135.29 248.8 134.92 248.11 134.34 247.46C133.27 246.23 133.18 245.57 134.07 245.4C134.54 245.31 138.13 248.73 138.79 249.9C139 250.28 138.47 251.02 136.63 252.87C135.28 254.23 134.06 255.33 133.91 255.33C133.77 255.33 133.56 255.1 133.45 254.82ZM186.84 255.01C186.6 254.62 187.54 253.04 188.48 252.27C189.51 251.43 188.97 251.35 181.5 251.25C175.29 251.17 174.83 251.12 174.72 250.54C174.66 250.2 174.8 249.79 175.05 249.63C175.3 249.47 178.38 249.34 181.9 249.34C185.88 249.34 188.37 249.21 188.5 248.99C188.62 248.81 188.33 248.19 187.86 247.63C186.75 246.31 186.69 245.19 187.75 245.53C188.65 245.81 192.33 249.5 192.33 250.13C192.33 250.66 187.91 255.33 187.4 255.33C187.2 255.33 186.95 255.19 186.84 255.01ZM464.5 253C464.39 252.82 463.94 252.67 463.5 252.67C463.07 252.67 462.51 252.46 462.26 252.21C462.01 251.96 461.51 251.66 461.15 251.55C460.79 251.43 459.97 250.55 459.33 249.59C458.23 247.93 458.16 247.67 458.13 244.85C458.09 242.46 458.22 241.6 458.75 240.59C459.58 238.98 461.49 237.4 462.91 237.13C463.51 237.02 464.09 236.79 464.19 236.63C464.49 236.14 469.08 236.3 470 236.83C470.46 237.1 471.18 237.32 471.6 237.32C472.32 237.33 472.36 237.45 472.27 239.08C472.19 240.37 472.03 240.83 471.67 240.83C471.39 240.83 471.12 240.51 471.06 240.11C470.93 239.18 470.56 238.9 468.45 238.16C466.81 237.59 466.64 237.58 464.9 238.13C462.92 238.75 462.11 239.46 461.04 241.5C460 243.45 460.13 245.41 461.46 247.82C463.25 251.07 465.74 251.95 470.34 250.97C472.19 250.57 472.67 250.73 472.14 251.57C471.38 252.78 465.09 253.95 464.5 253ZM467.11 231.8C466.99 231.5 467.15 230.84 467.46 230.32C467.76 229.8 467.89 229.31 467.75 229.22C467.6 229.13 465.76 229.09 463.66 229.13C459.63 229.21 458.67 229.11 458.67 228.63C458.67 228.47 460.76 228.33 463.31 228.33C466.11 228.33 468.04 228.2 468.17 227.99C468.29 227.81 468.07 227.15 467.69 226.54C466.91 225.28 466.79 224.33 467.42 224.34C467.85 224.34 471.67 227.9 471.67 228.3C471.67 228.6 467.88 232.33 467.56 232.33C467.43 232.33 467.22 232.09 467.11 231.8ZM498.78 187.11C497.8 187.03 496.99 186.78 496.89 186.54C496.8 186.3 496.84 184.62 496.98 182.8C497.12 180.99 497.17 178.07 497.1 176.33C496.99 173.45 496.9 173.1 496.15 172.49C494.47 171.09 494.97 170.84 499.55 170.76C503.86 170.69 504.89 170.92 506.42 172.26C507.26 172.99 507.2 175.38 506.33 176.17C505.37 177.04 505.51 177.9 506.83 179.15C508.38 180.6 508.44 182.29 507.03 184.24C505.1 186.9 503.41 187.48 498.78 187.11ZM438.56 186.78C438.43 186.66 438.33 176.91 438.33 165.11C438.33 141.24 438.42 142 436.18 145.5C435.18 147.06 434.86 147.33 433.99 147.33C431.97 147.33 432.31 146.43 436.92 139.38L438.33 137.21L438.33 129.27L438.33 121.33L474.98 121.33C496.06 121.33 511.71 121.21 511.81 121.04C511.91 120.87 511.01 120.09 509.82 119.3C507.98 118.08 507.65 117.72 507.73 117.01C507.87 115.85 509.63 115.66 510.92 116.67C511.42 117.05 513.18 118.26 514.83 119.35L517.83 121.32L537.08 121.33C548.02 121.33 556.33 121.46 556.33 121.63C556.33 122.06 554.67 123.16 551.28 124.95C550.12 125.57 548.79 126.33 548.33 126.65C547.88 126.96 546.82 127.56 546 127.97C545.17 128.38 543.94 129.04 543.26 129.44C542.58 129.84 541.08 130.67 539.93 131.29C538.77 131.91 537.6 132.62 537.31 132.87C537.02 133.13 536.57 133.33 536.31 133.33C535.57 133.33 522.57 140.66 521.9 141.46C521.56 141.85 521.07 142.62 520.79 143.17C519.27 146.22 517.31 149.54 516.86 149.83C516.17 150.27 515.2 149.67 515.06 148.71C515 148.31 515.34 147.29 515.81 146.45C516.28 145.61 516.67 144.86 516.67 144.79C516.67 144.4 515.3 144.79 514 145.54C511.46 147.02 503.65 151.35 500.67 152.94C499.11 153.77 497.26 154.81 496.57 155.24C495.87 155.67 494.97 156.17 494.57 156.35C494.16 156.53 493.38 156.95 492.83 157.28C492.28 157.61 490.78 158.46 489.5 159.16C488.22 159.87 486.57 160.78 485.83 161.19C485.1 161.6 483.82 162.28 483 162.7C482.18 163.12 480.6 164 479.5 164.66C478.4 165.31 477.12 166.04 476.67 166.26C476.21 166.49 475.38 166.97 474.83 167.33C474.28 167.7 473.61 168.08 473.33 168.19C473.06 168.29 472.46 168.6 472 168.88C471.54 169.15 470.72 169.59 470.17 169.86C469.62 170.13 468.57 170.7 467.83 171.12C467.1 171.55 465.3 172.54 463.83 173.33C462.37 174.12 460.79 175 460.33 175.3C458.51 176.47 458.15 176.68 457.67 176.86C457.39 176.96 456.94 177.19 456.67 177.36C456.39 177.54 455.72 177.91 455.17 178.18C454.62 178.46 453.7 178.97 453.13 179.31C452.56 179.65 451.06 180.5 449.8 181.19C448.53 181.88 446.9 182.8 446.17 183.22C445.43 183.65 444.23 184.31 443.5 184.68C442.77 185.06 441.51 185.73 440.7 186.18C439.12 187.06 438.9 187.12 438.56 186.78ZM503.92 184.48C504.46 183.86 504.67 183.21 504.67 182.09C504.67 179.94 504.03 179.33 501.78 179.33L500 179.33L500 181.98C500 184 500.13 184.75 500.55 185.17C501.3 185.92 502.94 185.59 503.92 184.48ZM444.33 181.05C444.61 180.9 445.13 180.6 445.5 180.38C445.87 180.17 446.39 179.89 446.67 179.77C446.94 179.64 448.67 178.69 450.5 177.66C452.33 176.63 454.06 175.68 454.33 175.56C454.61 175.44 455.06 175.19 455.33 175.01C455.96 174.59 462.65 170.87 463.33 170.55C463.61 170.43 464.51 169.94 465.33 169.47C466.16 169 467.7 168.14 468.76 167.56C469.82 166.98 471.24 166.17 471.93 165.77C472.61 165.38 473.84 164.72 474.67 164.31C475.49 163.9 476.39 163.38 476.67 163.16C476.94 162.94 478.37 162.12 479.83 161.34C481.3 160.57 483.96 159.11 485.74 158.1C487.53 157.09 489.74 155.87 490.65 155.39C491.56 154.9 495.36 152.79 499.07 150.69C505.61 147.01 506.97 146.26 512.33 143.39C513.7 142.65 514.87 141.89 514.94 141.69C515.01 141.46 514.29 141.33 512.93 141.33C510.52 141.33 510 141 510 139.47C510 138.11 510.83 137.92 514.1 138.54C516.83 139.06 520.38 139.15 520.85 138.7C521.17 138.39 524.65 136.43 529.67 133.73C531.22 132.89 533.1 131.86 533.83 131.44C534.57 131.02 535.39 130.58 535.67 130.46C536.75 129.98 538.89 128.92 539.83 128.39C544.96 125.53 546.02 124.9 546.18 124.64C546.3 124.46 540.5 124.33 531.81 124.33L517.25 124.33L515.21 125.56C514.09 126.24 512.31 127.38 511.26 128.09C509.22 129.47 508.21 129.53 507.82 128.29C507.56 127.46 508.37 126.5 510.1 125.62C510.79 125.26 511.27 124.83 511.16 124.65C511.03 124.45 497.95 124.33 475.81 124.33L440.67 124.33L440.67 131.13C440.67 136.76 440.75 137.99 441.17 138.33C441.44 138.56 441.67 138.92 441.67 139.14C441.67 139.35 442.11 140.04 442.65 140.68C443.2 141.31 443.65 141.96 443.65 142.11C443.66 142.27 444.12 143.03 444.68 143.8C445.24 144.58 445.72 145.65 445.76 146.19C445.83 147.06 445.72 147.18 444.79 147.27C443.94 147.35 443.6 147.18 443.04 146.38C442.65 145.84 442.33 145.28 442.33 145.14C442.33 144.78 441.29 143.67 440.95 143.67C440.79 143.67 440.67 152.52 440.67 163.34L440.67 183.01L442.25 182.17C443.12 181.71 444.06 181.2 444.33 181.05ZM503.16 176.49C503.8 175.84 504.33 175.03 504.33 174.69C504.33 173.81 502.47 172.33 501.35 172.33C500.53 172.33 500.4 172.49 500.21 173.58C499.54 177.64 500.78 178.86 503.16 176.49ZM413.48 168.22C413.37 167.96 413.75 167 414.31 166.09C414.87 165.17 415.33 164.33 415.33 164.21C415.33 164.02 416.05 162.39 418.31 157.5C418.81 156.4 419.51 154.79 419.86 153.92C420.95 151.21 421.68 151.84 424.16 157.65C426.47 163.07 426.28 162.64 427.74 165.55C429.14 168.36 429.01 168.67 426.4 168.67L424.61 168.67L424.83 167.37C424.96 166.57 424.91 165.98 424.69 165.85C424.49 165.73 424.33 165.35 424.33 165C424.33 163.72 423.45 163.33 420.53 163.33C417.92 163.33 417.76 163.38 417.32 164.19C417.07 164.66 416.85 165.83 416.85 166.77L416.83 168.5L415.25 168.6C414.1 168.68 413.61 168.57 413.48 168.22ZM506.19 165.28C506.11 165.03 505.99 164.53 505.93 164.17C505.83 163.54 505.5 163.49 500.5 163.33C496.06 163.19 495.17 163.08 495.17 162.67C495.17 162.25 496.06 162.14 500.5 162C505.72 161.84 505.84 161.82 505.94 161.08C506.09 160.05 506.67 160.14 508.17 161.44C509.67 162.74 509.61 163.13 507.7 164.64C506.73 165.41 506.29 165.59 506.19 165.28ZM422.22 161.65C422.87 161 421.53 157.33 420.64 157.33C420.3 157.33 419.86 157.92 419.46 158.92C419.12 159.79 418.79 160.59 418.74 160.71C418.68 160.83 418.88 161.17 419.18 161.46C419.78 162.07 421.68 162.18 422.22 161.65ZM17.08 153.88C14.6 151.19 13.33 147.72 13.28 143.51C13.25 140.83 14.26 136.96 15.39 135.46C16.8 133.59 18.14 132.33 18.73 132.33C19.56 132.33 19.49 132.73 18.34 134.61C16.51 137.59 16.23 138.76 16.23 143.67C16.23 148.55 16.62 150.1 18.55 153.02C19.34 154.21 19.39 154.42 18.94 154.86C18.5 155.31 18.29 155.2 17.08 153.88ZM350.27 154.07C345.4 148.95 344.99 139.8 349.39 134.36C350.39 133.13 351.29 132.33 351.68 132.33C352.54 132.33 352.5 132.74 351.52 134.3C349.5 137.51 348.8 141.31 349.32 146.35C349.61 149.19 350.81 152.48 351.87 153.36C352.45 153.85 352.46 154.48 351.89 154.95C351.56 155.23 351.18 155.03 350.27 154.07ZM33 154.25C33.01 153.84 33.35 152.9 33.77 152.17C35.49 149.13 35.83 147.71 35.82 143.67C35.81 139.53 35.35 137.59 33.81 135.26C32.16 132.73 33.27 131.68 35.24 133.92C36.65 135.53 37.82 137.96 38.54 140.83C39.04 142.84 39.06 143.43 38.69 145.64C38.19 148.59 36.95 151.21 35.01 153.42C33.46 155.17 33 155.36 33 154.25ZM360 154.33C360 153.96 360.35 153.09 360.78 152.41C362.41 149.82 363 147.55 363 143.88C363 140 362.45 137.68 360.97 135.24C360 133.66 359.71 132.33 360.32 132.33C361.08 132.33 363 134.5 364.09 136.58C366.44 141.07 366.51 146.2 364.27 150.4C362.41 153.89 360 156.11 360 154.33ZM21.27 149.29C19.52 148.65 19.2 145.19 20.76 143.75C21.16 143.37 22.39 142.83 23.47 142.55C26 141.89 26.52 141.41 25.81 140.41C25.06 139.33 23.15 139.39 22.26 140.51C21.74 141.18 21.5 141.28 21.13 140.97C20.36 140.33 20.6 139.72 22 138.8C23.13 138.04 23.59 137.94 25.16 138.07C28.32 138.33 29.33 139.91 29.34 144.57C29.34 146.18 29.48 147.72 29.65 147.99C29.85 148.3 29.83 148.63 29.61 148.91C29.12 149.5 26.84 149.45 26.33 148.83C25.78 148.17 25.44 148.2 24.42 149C23.51 149.72 22.67 149.8 21.27 149.29ZM353 148.88C353 148.64 353.3 148.17 353.67 147.83C354.25 147.31 354.33 146.81 354.33 143.94C354.33 140.71 354.32 140.64 353.47 140.32C352.23 139.85 352.63 139.25 354.63 138.6C357.33 137.72 357.33 137.73 357.33 142.87C357.33 146.92 357.4 147.4 358.01 148.01C358.39 148.39 358.6 148.84 358.49 149.01C358.38 149.19 357.1 149.33 355.65 149.33C353.65 149.33 353 149.22 353 148.88ZM25.51 146.66C25.81 146.32 26.09 145.55 26.12 144.94C26.16 143.94 26.07 143.82 25.15 143.73C24.43 143.66 23.87 143.88 23.23 144.47C22.16 145.46 22.08 146.45 23.02 147.11C23.83 147.68 24.74 147.51 25.51 146.66ZM425.33 146.16C425.33 145.69 425.12 145.23 424.85 145.13C424.58 145.02 422.38 144.92 419.96 144.89C416.88 144.85 415.52 144.71 415.42 144.43C415.32 144.13 416.56 144.05 420.39 144.1L425.5 144.17L425.39 142.92C425.33 142.23 425.41 141.67 425.58 141.67C426.12 141.67 428.67 143.72 428.67 144.16C428.67 144.55 425.97 147 425.53 147C425.42 147 425.33 146.62 425.33 146.16ZM70.62 144.43C68.92 144.17 66.24 142.24 65.18 140.53C64.27 139.05 64.17 138.61 64.17 136.17C64.17 133.72 64.27 133.28 65.18 131.81C65.95 130.56 66.65 129.94 68.16 129.17C70.01 128.22 70.35 128.17 73.99 128.17C77.17 128.17 78.03 128.27 78.79 128.77C79.58 129.29 79.68 129.52 79.49 130.44C79.37 131.02 79.06 131.71 78.81 131.97C78.43 132.38 78.31 132.32 78.03 131.57C77.53 130.27 76.06 129.67 73.36 129.67C69.02 129.67 67 131.57 67 135.67C67 138.99 68.63 141.34 71.75 142.5C72.85 142.91 73.78 143.02 74.83 142.88C75.66 142.76 77.05 142.57 77.92 142.46L79.5 142.24L78.69 143.12C78.25 143.61 77.35 144.15 76.69 144.33C75.53 144.65 72.4 144.71 70.62 144.43ZM169.67 144.35C167.94 144.18 167.84 144.12 167.95 143.33C168.01 142.88 168.14 139.68 168.22 136.23L168.39 129.96L167.36 129.57C166.23 129.15 166.01 128.47 166.92 128.22C168.03 127.91 174.49 128.02 175.78 128.36C176.49 128.56 177.43 129.07 177.87 129.51C179.11 130.75 178.96 131.52 176.92 134.44C176.57 134.95 176.6 135.11 177.17 135.53C179.18 137 179.57 137.82 179.19 139.83C178.57 143.14 174.92 144.87 169.67 144.35ZM114 143.88C114 143.64 114.28 143.18 114.63 142.87C115.19 142.36 117.33 138.4 117.33 137.87C117.33 137.76 117.71 136.89 118.17 135.94C118.62 134.99 119 134.09 119 133.94C119 133.8 119.52 132.56 120.17 131.19C120.81 129.82 121.33 128.54 121.33 128.35C121.33 127.95 122.31 127.89 122.89 128.26C123.11 128.4 124.58 131.58 126.15 135.34C127.88 139.44 129.34 142.45 129.82 142.88C130.4 143.4 130.51 143.69 130.24 143.96C129.76 144.44 125.44 144.45 125.15 143.98C125.03 143.78 125.26 143.27 125.65 142.85C126.37 142.09 126.37 142.06 125.77 140.79L125.16 139.5L121.78 139.41L118.4 139.31L117.8 140.87C117.21 142.42 117.21 142.43 117.96 143.04C119.09 143.95 118.54 144.33 116.15 144.33C114.57 144.33 114 144.21 114 143.88ZM213.72 143.17C212.25 141.5 211.89 139.79 212.1 135.49C212.31 131.02 212.92 129.69 215.24 128.63C217.07 127.8 218.9 128.01 220.33 129.21C221.99 130.61 222.33 131.73 222.33 135.69C222.33 139.72 221.84 141.37 220.08 143.25C219.14 144.26 218.91 144.33 216.9 144.33C214.85 144.33 214.68 144.27 213.72 143.17ZM218.62 142.48C220.04 140.68 220.4 134.73 219.29 131.5C218.5 129.19 216.33 128.78 215.18 130.73C214.34 132.15 214.33 139.53 215.17 141.5C215.49 142.23 215.91 142.94 216.12 143.08C216.88 143.57 217.97 143.31 218.62 142.48ZM174.21 142.46C175.74 141.73 176.33 140.8 176.33 139.12C176.33 137.18 175.25 136.33 172.79 136.33L171 136.33L171 139.44C171 141.16 171.1 142.66 171.22 142.78C171.61 143.17 173.03 143.02 174.21 142.46ZM192.72 140.04C192.47 139.88 192.32 139.47 192.39 139.13C192.5 138.54 192.94 138.49 198.67 138.42C205.11 138.33 206.13 138.51 205.46 139.57C205.14 140.1 204.43 140.18 199.13 140.25C195.85 140.29 192.96 140.2 192.72 140.04ZM91.72 138.04C91.47 137.88 91.32 137.47 91.39 137.13C91.5 136.54 91.95 136.49 97.93 136.41C103.45 136.33 104.38 136.39 104.54 136.83C104.65 137.11 104.56 137.56 104.33 137.84C103.99 138.24 102.84 138.33 98.04 138.33C94.81 138.33 91.96 138.19 91.72 138.04ZM142 137.84C141.78 137.56 141.68 137.11 141.79 136.84C141.95 136.41 142.96 136.33 148.26 136.33C154.94 136.33 155.86 136.53 154.78 137.73C154.29 138.27 153.6 138.33 148.32 138.33C143.5 138.33 142.34 138.24 142 137.84ZM123.6 137.6C124.17 137.03 124.1 136.33 123.32 134.72C122.95 133.95 122.5 132.95 122.33 132.5C121.79 131.07 121.64 131.23 120.19 134.79C119.9 135.5 119.67 136.43 119.67 136.85C119.67 137.5 119.87 137.65 120.92 137.76C121.6 137.83 122.4 137.91 122.68 137.94C122.97 137.97 123.38 137.82 123.6 137.6ZM192.46 135.84C192.35 135.56 192.35 135.11 192.45 134.83C192.61 134.41 193.63 134.33 198.74 134.34C205.09 134.34 206.11 134.53 205.46 135.57C205.13 136.1 204.42 136.18 198.87 136.26C193.55 136.33 192.62 136.27 192.46 135.84ZM355.07 135.6C354.5 135.03 354.57 133.44 355.17 133.21C355.96 132.91 357.33 133.58 357.33 134.27C357.33 134.92 356.36 136 355.79 136C355.61 136 355.29 135.82 355.07 135.6ZM173.49 134.34C175 133.99 175.67 133.27 175.67 131.99C175.67 130.67 174.58 129.88 172.74 129.85L171.17 129.83L171.07 131.8C170.91 134.82 171.01 134.92 173.49 134.34ZM75.22 123.11C74.78 122.67 75.02 122 76.03 120.84L77.07 119.67L70.78 119.66C67.33 119.66 64.29 119.52 64.03 119.36C63.78 119.2 63.66 118.83 63.77 118.53C63.95 118.07 64.81 118 70.3 118C74.14 118 76.71 117.87 76.83 117.67C76.94 117.49 76.58 116.85 76.02 116.25C74.84 114.99 74.72 114.33 75.67 114.33C76.3 114.33 80.17 118.06 80.17 118.67C80.17 119.03 76.07 123.33 75.72 123.33C75.57 123.33 75.34 123.23 75.22 123.11ZM126.9 123.12C126.45 122.67 126.68 122.01 127.69 120.85L128.72 119.68L122.11 119.59C115.54 119.5 115.5 119.5 115.39 118.75L115.29 118L121.75 118C125.31 118 128.32 117.9 128.44 117.78C128.56 117.66 128.29 117.07 127.83 116.47C126.82 115.15 126.76 114.33 127.67 114.33C128.03 114.33 128.33 114.45 128.34 114.58C128.34 114.72 129.18 115.7 130.2 116.77L132.07 118.71L129.95 120.94C127.8 123.2 127.32 123.54 126.9 123.12ZM177.13 122.86C176.92 122.31 177.82 120.81 178.52 120.54C178.78 120.44 179 120.2 179 120.01C179 119.79 176.82 119.66 172.75 119.66C169.31 119.66 166.29 119.52 166.03 119.36C165.78 119.2 165.66 118.83 165.77 118.53C165.95 118.07 166.83 118 172.47 118C176.04 118 179.04 117.87 179.14 117.72C179.23 117.56 178.86 117.01 178.32 116.49C177.31 115.52 177 114.33 177.76 114.33C178.44 114.33 179.49 115.2 180.99 116.99L182.39 118.66L180.28 120.99C178.16 123.33 177.47 123.74 177.13 122.86ZM481.67 117C481.21 116.85 480.36 116.72 479.78 116.7C478.49 116.66 475.75 114.59 474.66 112.83C474.02 111.79 473.91 111.15 473.91 108.5C473.91 105.87 474.02 105.21 474.65 104.19C475.53 102.77 477.13 101.48 478.42 101.16C478.93 101.03 479.42 100.79 479.52 100.63C479.62 100.47 481.05 100.33 482.7 100.33C485.05 100.33 485.98 100.48 487.01 101.01C488.16 101.59 488.33 101.83 488.33 102.8C488.33 103.41 488.11 104.1 487.84 104.33C487.43 104.67 487.29 104.59 487.01 103.86C486.61 102.8 484.2 101.67 482.36 101.67C480.5 101.67 478.34 102.95 477.29 104.69C475.39 107.8 476.35 111.7 479.62 114.21C481.16 115.4 481.18 115.4 483.86 115.24C485.34 115.15 486.87 114.88 487.26 114.63C487.76 114.32 488.09 114.29 488.33 114.53C488.93 115.13 487.28 116.3 485.32 116.67C484.32 116.86 483.27 117.07 483 117.14C482.72 117.2 482.12 117.14 481.67 117ZM483.12 93.67C483.31 92.69 483.28 92.67 481.91 92.59C479.24 92.46 477.83 92.41 475.25 92.37C473.19 92.34 472.67 92.23 472.67 91.83C472.67 91.41 473.43 91.33 477.5 91.33C481.97 91.33 482.36 91.28 482.74 90.67C483.29 89.79 483.96 89.84 485.08 90.83C486.27 91.87 486.24 92.3 484.9 93.6C483.48 94.98 482.85 95 483.12 93.67ZM337.73 73.44C338.3 72.92 338.33 71.49 338.33 44.68C338.33 23.18 338.24 16.37 337.93 16.07C337.35 15.48 9.98 15.48 9.4 16.07C9.1 16.37 9 23.04 9 44.02C9 59.18 9.09 72.05 9.21 72.61L9.41 73.65L13.29 73.75C15.42 73.81 89.16 73.89 177.15 73.92C324.95 73.98 337.17 73.95 337.73 73.44ZM671.79 73.38C672.29 72.83 672.33 70.24 672.25 44.31L672.17 15.83L507.43 15.75C350.77 15.67 342.68 15.69 342.43 16.25C342.28 16.57 342.24 29.58 342.33 45.16L342.5 73.49L343.5 73.71C344.05 73.82 418.02 73.93 507.87 73.95C664.89 73.98 671.27 73.96 671.79 73.38ZM170.93 53.34C169.19 53.02 168.67 52.47 168.67 50.96C168.67 49.91 168.79 49.67 169.31 49.67C169.66 49.67 170.4 50.12 170.95 50.67C172.11 51.83 172.64 51.9 173.7 51.04C174.77 50.18 174.21 49.57 171.69 48.87C169.38 48.22 168.67 47.36 168.67 45.24C168.67 43.45 169.46 42.5 171.41 41.98C172.95 41.57 175.5 41.78 176.22 42.37C176.86 42.9 176.77 44.13 176.06 44.78C175.49 45.3 175.4 45.28 174.65 44.48C173.65 43.42 172.22 43.47 172.06 44.57C171.95 45.38 172.92 45.82 174.38 45.61C174.97 45.53 175.49 45.87 176.42 46.94C177.1 47.73 177.67 48.59 177.67 48.86C177.67 50.02 176.63 51.68 175.44 52.44C173.95 53.39 172.65 53.65 170.93 53.34ZM500.5 53.48C500.32 53.43 499.75 53.3 499.24 53.19C498.18 52.95 497.56 51.72 497.87 50.48C498.14 49.39 498.87 49.46 500 50.67C501.08 51.83 501.63 51.9 502.69 51.05C503.8 50.15 503.33 49.54 501.06 48.9C498.67 48.24 497.67 47.18 497.67 45.33C497.67 43.04 499.56 41.67 502.73 41.67C505.19 41.66 506.24 42.6 505.63 44.26C505.29 45.17 504.85 45.19 503.76 44.33C502.75 43.54 501.39 43.46 501.12 44.17C500.81 44.97 501.6 45.62 503.2 45.86C508.36 46.63 507.41 52.62 502 53.41C501.36 53.5 500.68 53.54 500.5 53.48ZM149.15 52.85C148.52 52.38 148.52 52.33 149.08 51.32C149.57 50.44 149.67 49.39 149.67 44.65L149.67 39.02L148.67 38.5C147.55 37.92 147.36 37.14 148.27 36.85C149.01 36.62 154.98 36.87 155.25 37.14C155.36 37.25 155.06 37.75 154.58 38.25C153.71 39.16 153.71 39.21 153.63 44.95C153.55 51.44 153.51 51.32 155.96 51.33C157.21 51.33 157.57 51.16 158.52 50.12C160.02 48.49 160.84 48.75 160.53 50.76C160.17 53.11 159.64 53.33 154.36 53.33C150.89 53.33 149.64 53.22 149.15 52.85ZM162.08 53.11C161.48 52.87 161.57 52.21 162.33 51.24C162.88 50.55 163 49.89 163 47.61C163 45.19 162.91 44.77 162.33 44.41C161.97 44.18 161.67 43.76 161.67 43.48C161.67 42.9 163.56 42 164.8 42C166.59 42 166.63 42.09 166.43 46C166.25 49.28 166.3 49.74 166.96 51.01C167.97 52.93 167.57 53.34 164.71 53.31C163.49 53.29 162.31 53.21 162.08 53.11ZM181.1 52.69C180.35 51.99 179.88 49.65 180.04 47.42C180.09 46.71 179.93 45.63 179.68 45.03C179.32 44.16 179.31 43.71 179.61 42.86C179.83 42.27 180 41.42 180 40.97C180 39.85 180.81 38.79 181.86 38.52C183.11 38.21 183.62 38.81 183.73 40.76C183.83 42.36 183.89 42.48 184.9 42.74C185.49 42.89 186.07 43.18 186.2 43.39C186.5 43.87 185.15 45 184.3 45C183.73 45 183.67 45.27 183.67 47.52C183.67 49.96 183.69 50.05 184.66 50.6C185.88 51.29 185.94 52.08 184.85 52.79C183.72 53.53 181.95 53.48 181.1 52.69ZM193.89 53.11C193.44 52.66 193.69 51.91 194.51 51.27L195.35 50.61L195.26 44.72C195.17 38.98 195.15 38.83 194.42 38.5C193.27 38 193.46 37.06 194.75 36.85C195.65 36.71 198.48 36.76 200.25 36.95C200.95 37.03 200.71 37.89 199.83 38.47L199 39.02L199 44.65C199 50.23 199.01 50.29 199.87 51.31C201.21 52.91 200.61 53.33 197.01 53.33C195.42 53.33 194.01 53.23 193.89 53.11ZM477.42 53.11C476.86 52.89 476.91 51.65 477.51 50.85C477.89 50.35 478 49.05 477.99 44.85C477.99 41.91 477.88 39.33 477.74 39.13C477.61 38.93 477.16 38.59 476.75 38.37C475.86 37.9 475.77 37.11 476.58 36.87C477.47 36.62 482.81 36.85 483.33 37.16C483.67 37.38 483.55 37.62 482.81 38.22L481.83 38.99L481.72 44.68C481.64 48.77 481.72 50.5 482.01 50.85C482.26 51.14 483.01 51.33 483.92 51.33C485.21 51.33 485.58 51.17 486.55 50.13C487.24 49.41 487.88 49.01 488.17 49.12C488.91 49.41 488.79 51.42 487.98 52.46C487.29 53.33 487.28 53.33 482.56 53.31C479.96 53.29 477.65 53.21 477.42 53.11ZM490.11 52.8C489.99 52.5 490.15 51.84 490.45 51.33C490.85 50.66 491 49.6 491 47.54C491 45.03 490.92 44.65 490.33 44.33C488.71 43.46 489.99 42.35 492.75 42.24L494.5 42.17L494.59 46.49C494.68 50.36 494.76 50.89 495.39 51.56C496.55 52.8 495.76 53.33 492.78 53.33C490.82 53.33 490.27 53.22 490.11 52.8ZM510.13 52.63C509.65 52.1 509.45 51.22 509.3 48.88C509.2 47.21 508.91 45.36 508.66 44.79C508.28 43.89 508.29 43.59 508.78 42.57C509.08 41.93 509.33 40.94 509.33 40.39C509.33 38.85 511.05 37.85 512.31 38.65C512.64 38.85 512.77 39.44 512.72 40.42C512.63 42.02 512.94 42.44 514.44 42.8C515.8 43.13 515.55 44.32 514 44.83L512.83 45.22L512.74 47.61L512.64 50.01L513.82 50.7C515.21 51.52 515.24 51.66 514.23 52.61C513.18 53.59 511.02 53.6 510.13 52.63ZM523.08 53.12C522.41 52.84 522.6 51.98 523.5 51.27C524.33 50.62 524.33 50.62 524.33 44.7L524.33 38.77L523.5 38.39C522.4 37.89 522.44 37.1 523.58 36.87C524.71 36.65 527.51 36.65 528.75 36.88C529.82 37.08 529.95 37.82 529 38.33C528.37 38.67 528.33 39.03 528.33 44.83C528.33 50.8 528.35 50.98 529.08 51.48C529.68 51.9 529.75 52.12 529.46 52.59C529.17 53.05 528.55 53.18 526.3 53.23C524.76 53.26 523.31 53.21 523.08 53.12ZM531.89 53.11C531.44 52.66 531.69 51.91 532.51 51.27L533.35 50.61L533.26 44.72C533.17 38.98 533.15 38.83 532.42 38.5C532 38.32 531.67 37.91 531.67 37.59C531.67 36.91 532.57 36.67 534.67 36.78C535.49 36.83 536.73 36.9 537.42 36.93C538.89 37.01 539.07 37.66 537.83 38.47L537 39.02L537 44.65C537 50.23 537.01 50.29 537.87 51.31C539.21 52.91 538.61 53.33 535.01 53.33C533.42 53.33 532.01 53.23 531.89 53.11ZM163.33 39.67C162.07 38.41 162.87 36.33 164.61 36.33C165.45 36.33 166.67 37.43 166.67 38.18C166.67 38.85 165.18 40.33 164.52 40.33C164.23 40.33 163.7 40.03 163.33 39.67ZM491.55 39.72C490.91 39.01 490.82 37.31 491.4 36.73C492 36.14 493.49 36.25 494.12 36.94C494.92 37.83 494.79 38.85 493.79 39.64C492.71 40.49 492.26 40.51 491.55 39.72Z" fill="#1e2749" fill-rule="evenodd"/>
</svg>
