<?xml version="1.0" encoding="UTF-8"?>
<svg xmlns="http://www.w3.org/2000/svg" viewBox="0 0 860 474.173" width="860" height="474.173" shape-rendering="geometricPrecision">
<path d="M90.78 452.85L89.91 452.24L89.91 425.07L89.91 397.9L91.65 397.13C92.61 396.71 98.64 393.44 105.04 389.88C111.45 386.31 118.18 382.6 120.01 381.62C121.84 380.64 123.95 379.45 124.7 378.99C125.45 378.52 129.85 376.06 134.47 373.52C139.1 370.99 144.81 367.81 147.18 366.46C149.54 365.11 154.29 362.48 157.73 360.6C161.17 358.73 165.75 356.19 167.9 354.96C170.05 353.73 173.04 352.05 174.54 351.24C176.05 350.43 182.03 347.12 187.83 343.88C193.64 340.65 199.18 337.57 200.15 337.04C201.11 336.5 204.02 334.88 206.6 333.44C209.18 331.99 213.31 329.7 215.78 328.35C218.25 327 220.89 325.54 221.65 325.11C222.4 324.69 226.27 322.54 230.25 320.33C234.22 318.12 238.27 315.87 239.24 315.33C240.2 314.78 241.87 313.86 242.95 313.28C244.02 312.7 248.42 310.26 252.72 307.85C257.02 305.44 261.6 302.89 262.89 302.17C264.18 301.46 269.01 298.77 273.64 296.2C278.26 293.62 283.71 290.59 285.75 289.47C287.8 288.35 290.08 287.08 290.84 286.66C291.59 286.23 295.46 284.07 299.44 281.86C303.41 279.65 306.84 277.68 307.04 277.5C307.54 277.03 309.09 277.07 310.02 277.56C310.75 277.95 310.77 278.67 310.77 304.66L310.77 331.35L309.89 332.15C309.41 332.58 308.05 333.46 306.86 334.11C305.68 334.76 301.28 337.22 297.09 339.58C283.89 347.03 271.19 354.2 268.55 355.7C267.16 356.5 262.32 359.24 257.8 361.79C250.48 365.92 241.07 371.26 237.28 373.43C236.53 373.86 234.33 375.08 232.4 376.13C230.46 377.19 228.72 378.21 228.52 378.4C228.31 378.61 228.74 379.38 229.58 380.31C232.8 383.88 234.04 388.94 232.94 394.05C232.62 395.54 232.63 396.18 232.95 396.51C233.57 397.13 249.27 397.2 249.79 396.58C250.05 396.27 249.58 395.93 248.21 395.43C246.14 394.69 245.49 393.94 245.49 392.3C245.49 391.09 246.01 391.04 248.28 392.07C249.47 392.61 250.85 392.85 252.81 392.86C255.52 392.86 255.68 392.81 257.01 391.48C258.21 390.28 258.39 389.85 258.39 388.21C258.39 384.85 256.78 383.67 251.8 383.36C248.8 383.18 248.24 382.85 248.23 381.27C248.23 380.33 249.25 379.98 251.8 380.02C257.04 380.11 259.58 373.56 255.17 371.31C253.33 370.38 252.01 370.47 249.28 371.76C248.27 372.23 247.18 372.52 246.86 372.4C245.92 372.04 246.16 370.33 247.27 369.46C249.65 367.59 256.48 367.38 258.82 369.1C262.26 371.63 262.36 376.43 259.05 379.65C257.53 381.12 257.47 381.27 258.14 381.68C261.56 383.72 262.69 385.31 262.69 388.08C262.69 391.17 260.08 394.59 256.94 395.63C255.55 396.08 255.23 396.74 256.34 396.83C256.71 396.86 260.4 396.93 264.53 396.98C270.41 397.06 272.14 396.97 272.48 396.56C272.82 396.15 272.56 395.81 271.31 395.02C269.38 393.81 268.41 392.33 267.38 389.01C266.28 385.5 266.31 379.36 267.44 375.1C268.17 372.35 268.51 371.72 270.14 370.13C271.76 368.54 272.29 368.27 274.16 368.03C278.62 367.47 282.09 368.61 283.61 371.14C285.27 373.89 285.46 374.91 285.51 381.53C285.56 387.86 285.54 388.02 284.45 390.23C282.94 393.32 281.81 394.55 279.72 395.42C278.26 396.02 277.52 396.63 278.03 396.81C278.09 396.83 285.16 396.92 293.75 397.01C307.49 397.16 309.45 397.26 310.07 397.82C310.73 398.42 310.77 399.91 310.77 425.15L310.77 451.83L309.74 452.64L308.71 453.45L200.18 453.45C102.58 453.45 91.56 453.39 90.78 452.85ZM538.28 453.07C537.77 452.75 537.68 449.16 537.59 425.36L537.48 398.01L546.58 389.51C551.58 384.83 557.26 379.49 559.2 377.65C561.14 375.8 565.01 372.17 567.8 369.58C578.74 359.42 603.65 336.19 608.84 331.31C611.85 328.48 616.85 323.81 619.96 320.91C623.07 318.02 629.75 311.78 634.81 307.03C639.88 302.28 645.17 297.37 646.56 296.1C647.96 294.84 650.78 292.21 652.82 290.27C654.86 288.32 658.91 284.52 661.81 281.82C677.36 267.37 681.76 263.25 689.97 255.44C691.79 253.71 695.12 250.63 697.37 248.6C701.67 244.71 705.5 241.11 717.32 229.82C721.3 226.02 725.17 222.41 725.92 221.8C727.45 220.57 736.08 212.52 745.85 203.24C754.52 195.01 754.93 194.67 756.32 194.67C758.56 194.67 758.5 194.13 758.38 215.9C758.32 226.91 758.23 238.81 758.18 242.35L758.1 248.79L751.29 255.21C747.55 258.74 737.71 267.98 729.44 275.74C709.87 294.09 709.17 294.74 705.01 298.65C703.07 300.48 697.43 305.76 692.49 310.38C687.55 315 681.66 320.55 679.4 322.7C677.14 324.85 672.92 328.81 670.02 331.49C667.12 334.18 662.9 338.14 660.63 340.29C656.8 343.93 648.57 351.66 631.51 367.65C627.64 371.28 624.48 374.5 624.48 374.8C624.48 375.12 625.39 375.7 626.59 376.15C629.44 377.21 631.65 379.51 632.88 382.71C633.73 384.89 633.85 385.83 633.82 389.54C633.8 391.91 633.57 394.35 633.32 394.98C633.06 395.61 632.99 396.26 633.16 396.43C633.69 396.95 645.68 397.04 646.19 396.52C646.52 396.19 646.29 395.96 645.25 395.62C643.43 395.02 641.74 393.04 640.84 390.46C639.84 387.57 639.84 378.36 640.85 375.47C642.79 369.9 645.27 368.07 650.86 368.05C654.81 368.04 656.17 368.36 656.74 369.44C657.42 370.7 656.53 371.49 654.79 371.18C650.97 370.49 649.76 370.51 647.98 371.3C646.91 371.77 645.89 372.59 645.44 373.33C644.59 374.74 643.3 379.43 643.63 379.96C643.75 380.15 644.49 380.04 645.27 379.71C647.42 378.81 653.81 379.1 655.26 380.16C658.11 382.25 658.9 387.59 656.91 391.26C655.85 393.21 654.51 394.47 652.33 395.58C649.84 396.84 651.34 397.13 660.05 397.04C663.7 397 666.93 396.82 667.22 396.63C667.61 396.38 667.41 396.1 666.43 395.52C664.1 394.12 663.02 392.79 662.11 390.16C660.91 386.7 660.83 377.95 661.97 374.3C663.02 370.89 665.54 368.44 668.36 368.05C669.5 367.9 671.48 367.89 672.78 368.04C674.89 368.29 675.32 368.5 676.99 370.13C678.5 371.62 678.95 372.38 679.42 374.3C680.22 377.58 680.13 386.99 679.28 389.25C678.18 392.18 676.52 394.18 674.36 395.19C673.26 395.7 672.36 396.25 672.36 396.39C672.36 397.02 682.25 397.19 718.32 397.15C739.38 397.13 756.91 397.23 757.29 397.38C757.67 397.52 758.11 398.11 758.27 398.67C758.43 399.24 758.56 411.37 758.56 425.64L758.56 451.57L757.46 452.51L756.37 453.45L647.62 453.45C579.78 453.44 538.65 453.3 538.28 453.07ZM306.34 448.71C306.78 448.35 306.85 444.14 306.77 424.77L306.67 401.27L245.22 401.17L183.78 401.07L183.66 402.15C183.57 402.93 183.02 403.57 181.63 404.49C179.64 405.83 178.34 406.08 177.55 405.29C176.8 404.54 176.98 402.72 177.86 402.25C178.29 402.02 178.65 401.66 178.65 401.45C178.65 401.21 163.45 401.1 136.33 401.17L94.01 401.27L94.01 424.53L94.01 447.79L95.38 447.91C96.13 447.99 97.02 448.28 97.34 448.57C97.66 448.87 98.81 449.16 99.88 449.23C100.95 449.29 147.73 449.31 203.82 449.25C278.57 449.18 305.95 449.03 306.34 448.71ZM754.02 448.62C754.34 448.24 754.43 441.64 754.36 424.68L754.26 401.27L675.66 401.17L597.06 401.07L595.24 402.27C593.2 403.62 592.2 403.56 591.51 402.04L591.07 401.07L566.34 401.17L541.6 401.27L541.49 423.94C541.43 436.41 541.48 447.19 541.61 447.88L541.84 449.15L647.71 449.15C736.57 449.15 753.65 449.07 754.02 448.62ZM100.93 447.51C100.3 446.88 100.34 445.04 100.99 444.38C102 443.37 104.68 442.4 105.73 442.67C108.01 443.24 107.3 445.52 104.4 446.99C102.21 448.1 101.61 448.19 100.93 447.51ZM543.98 447.37C542.97 446.36 543.26 445.11 544.83 443.62C546.64 441.91 547.4 441.62 548.65 442.19C550.13 442.87 549.86 444.06 547.75 446.14C545.76 448.1 544.97 448.36 543.98 447.37ZM110.18 441.56C109.58 440.25 109.93 439.59 111.81 438.4C112.95 437.68 113.83 437.42 114.86 437.5C116.16 437.61 116.31 437.74 116.42 438.88C116.53 440 116.34 440.25 114.66 441.31C112.31 442.79 110.78 442.87 110.18 441.56ZM276.24 440.29C276.1 440.15 275.98 434.08 275.98 426.8C275.98 411.92 275.75 412.98 279.01 413.04C281.12 413.08 281.84 413.73 283.65 417.25C284.43 418.78 286 421.61 287.13 423.55C288.26 425.48 290.02 428.71 291.04 430.71C292.18 432.94 293.04 434.21 293.26 433.99C293.53 433.71 293.97 421.01 293.96 413.48C293.96 412.99 294.28 412.8 295.11 412.8C297.48 412.8 297.48 412.81 297.48 426.26C297.48 438.05 297.45 438.53 296.67 439.52C296.09 440.26 295.5 440.55 294.62 440.54C292.65 440.52 291.82 439.59 288.88 434.12C287.96 432.4 286.85 430.38 286.42 429.62C285.98 428.86 284.47 426.14 283.05 423.58C281.64 421.01 280.26 418.84 279.99 418.75C279.61 418.63 279.5 420.88 279.5 429.11C279.5 436.76 279.37 439.74 279.03 440.09C278.53 440.59 276.67 440.73 276.24 440.29ZM552.04 440.09C551.78 439.83 551.57 439.05 551.57 438.37C551.57 437.43 551.91 436.82 552.95 435.9C553.71 435.24 554.49 434.69 554.68 434.69C554.87 434.69 555.29 434.59 555.62 434.47C556.21 434.24 557.83 435.54 557.83 436.24C557.83 436.87 555.44 439.38 554.27 439.99C552.94 440.68 552.65 440.69 552.04 440.09ZM723.08 437.79C722.45 437.42 722.4 436.34 722.4 424.13C722.4 411.22 722.42 410.86 723.19 410.45C724.45 409.78 727.04 410.22 728.05 411.28C728.55 411.79 729.87 413.97 731 416.12C732.12 418.27 733.18 420.21 733.34 420.42C733.5 420.64 734.29 422.05 735.1 423.55C738.26 429.48 739.29 431.17 739.63 430.96C739.83 430.83 739.99 426.46 739.99 421.06C739.99 410.4 740.09 409.89 742.16 410.13L743.31 410.26L743.31 423.51L743.31 436.76L742.26 437.54C740.48 438.87 739.18 437.99 736.71 433.76C733.82 428.81 731.04 423.83 728.66 419.35C727.54 417.25 726.47 415.54 726.27 415.54C726.07 415.54 725.92 420.07 725.92 426.26C725.92 436.91 725.91 437 725.05 437.6C724.04 438.31 723.99 438.31 723.08 437.79ZM120.09 436.96C119.83 436.7 119.62 436 119.62 435.4C119.62 433.43 124.06 431.29 125.67 432.48C126.91 433.4 126.08 435.05 123.71 436.34C121.56 437.52 120.78 437.66 120.09 436.96ZM104.18 434.35C103.53 434.18 102.26 433.65 101.34 433.18C99.87 432.43 99.68 432.18 99.68 430.97C99.68 429.33 100.45 429.19 102.81 430.39C103.91 430.95 105.1 431.17 107 431.16C109.34 431.15 109.81 431.02 111.02 430.02C112.26 428.99 112.38 428.7 112.36 426.91C112.32 424.35 111.72 423.72 107.3 421.51C101.75 418.74 100.46 417.17 100.46 413.16C100.46 410.4 101.2 408.88 103.27 407.32C104.44 406.45 104.94 406.35 108.28 406.35C111.1 406.35 112.3 406.52 113.26 407.04C114.71 407.84 115.32 409.45 114.48 410.29C114.01 410.75 113.6 410.69 111.6 409.87C108.83 408.73 108.38 408.7 106.37 409.51C104.57 410.23 103.77 411.74 104.14 413.71C104.47 415.46 105.49 416.34 109.45 418.3C113.46 420.27 114.46 421.02 115.61 422.9C117.8 426.48 115.97 431.37 111.62 433.61C109.93 434.47 106.1 434.86 104.18 434.35ZM559.77 432.31C558.84 431.58 558.68 431.57 557.34 432.14C555.29 432.99 551.63 432.9 549.14 431.93C546.78 431.01 546.1 430.31 546.1 428.75C546.1 427.43 546.57 427.38 549.03 428.44C550.28 428.97 551.72 429.22 553.6 429.22C556.2 429.22 556.41 429.15 557.67 427.89C558.74 426.82 559 426.25 559 425.01C559 422.81 558.08 421.87 553.79 419.7C548.26 416.91 546.88 415.21 546.88 411.21C546.88 408.81 547.68 406.97 549.22 405.83C552.38 403.49 560.52 404.09 561.18 406.72C561.64 408.57 560.33 409.02 557.69 407.91C554.79 406.7 551.93 407.34 550.93 409.43C549.65 412.12 551.05 414.1 556.01 416.57C561.46 419.29 562.91 420.96 562.91 424.53C562.91 426.39 562.99 426.55 564.07 426.93C566.35 427.72 566.09 429.63 563.42 431.72C561.35 433.33 561.12 433.37 559.77 432.31ZM129.37 431.14C128.58 429.66 129.23 428.57 131.56 427.43C133.32 426.57 133.9 426.45 134.63 426.79C136.04 427.43 136.17 428.74 134.94 429.9C132.8 431.91 130.1 432.51 129.37 431.14ZM139.24 426.4C138.98 426.15 138.77 425.45 138.77 424.87C138.77 423.59 140.15 422.39 142.36 421.72C143.75 421.31 143.97 421.34 144.75 422.12C145.79 423.16 145.51 423.76 143.1 425.6C141.38 426.93 140.04 427.2 139.24 426.4ZM568.07 425.23C566.29 423.45 569.83 418.94 572.49 419.61C574.41 420.09 574.02 422.01 571.55 424.25C569.89 425.75 568.88 426.04 568.07 425.23ZM148.46 420.39C147.88 419.11 148.32 418.36 150.34 417.2C152.32 416.07 154.23 416.04 154.81 417.13C155.4 418.22 154.49 419.58 152.46 420.61C150.31 421.71 149.03 421.64 148.46 420.39ZM576.07 417.56C575.1 416.49 575.27 415.71 576.82 413.99C578.45 412.18 579.23 411.85 580.64 412.39C582.29 413.01 581.99 414.35 579.73 416.46C577.6 418.45 577.03 418.62 576.07 417.56ZM158.37 415.79C156.79 413.89 159.43 411.11 162.6 411.32C164.28 411.43 164.38 411.49 164.38 412.59C164.38 413.49 164.04 413.98 162.81 414.83C160.83 416.21 159.04 416.6 158.37 415.79ZM168.14 410.6C166.79 409.65 167.08 408.28 168.93 406.94C170.74 405.63 172.75 405.39 173.73 406.38C174.45 407.1 174.46 407.16 173.96 408.1C173.54 408.88 171.65 410.16 169.99 410.79C169.22 411.08 168.76 411.04 168.14 410.6ZM584.11 410.39C583.11 409.39 583.55 407.67 585.21 406.09C586.96 404.43 588.23 404.19 589.27 405.34C590.15 406.32 589.85 407.21 588.02 408.98C586.38 410.58 584.85 411.13 584.11 410.39ZM189.02 395.95C190.09 395.39 193.69 393.39 197.02 391.5C200.35 389.62 206.68 386.05 211.09 383.58C215.5 381.11 219.46 378.76 219.89 378.37C220.32 377.98 221.56 377.27 222.63 376.8C223.7 376.33 229.77 373.01 236.11 369.42C242.45 365.83 251.34 360.81 255.85 358.27C260.36 355.73 265.52 352.8 267.3 351.76C269.08 350.72 270.61 349.86 270.71 349.86C270.8 349.86 272.22 349.07 273.85 348.1C275.49 347.14 276.89 346.35 276.97 346.35C277.05 346.35 278.05 345.79 279.19 345.12C281.02 344.03 284.54 342.04 301.39 332.56C303.65 331.29 305.8 329.98 306.18 329.64C306.82 329.07 306.86 327.44 306.86 306.2C306.86 287.17 306.77 283.35 306.32 283.18C305.83 282.99 301.56 285.16 295.14 288.87C293.74 289.68 289.6 291.98 285.95 293.98C282.29 295.98 277.05 298.91 274.29 300.48C271.53 302.06 269.19 303.35 269.09 303.35C268.99 303.35 266.32 304.82 263.16 306.62C260 308.41 256.18 310.56 254.68 311.37C252.29 312.67 247.22 315.48 240.6 319.16C239.53 319.76 238.12 320.56 237.48 320.94C236.83 321.32 235.16 322.24 233.76 322.98C231.06 324.43 218.44 331.44 207.18 337.75C203.42 339.86 197.09 343.39 193.11 345.6C179.72 353.02 166 360.64 157.15 365.58C149.23 369.99 139.74 375.26 119.23 386.62C109.7 391.9 103.03 395.65 102.86 395.81C102.78 395.89 102.81 396.21 102.93 396.51C103.11 396.99 109.15 397.06 145.11 397.02L187.08 396.97L189.02 395.95ZM226.12 396.95C227.78 396.7 228.05 396.52 228.56 395.28C229.33 393.44 229.3 389.26 228.49 386.48C227.7 383.76 225.64 381.53 223.93 381.53C223.25 381.53 220.55 382.81 217.05 384.79C213.88 386.58 210.41 388.54 209.33 389.13C208.26 389.72 206.41 390.78 205.23 391.47C204.04 392.17 201.9 393.39 200.46 394.18C197.71 395.69 197.04 396.3 197.71 396.72C198.29 397.08 223.89 397.28 226.12 396.95ZM594.63 396.58C595.31 396.17 596.45 395.11 608.04 384.09C611.9 380.42 615.58 376.98 616.22 376.45C616.86 375.91 619.51 373.43 622.1 370.95C626.62 366.62 633.69 359.99 641.88 352.4C646.1 348.49 659.31 336.1 670.42 325.63C674.41 321.86 683.03 313.77 689.58 307.65C696.13 301.52 703.25 294.83 705.4 292.79C707.55 290.75 710.55 287.93 712.06 286.54C720.49 278.72 736.2 263.96 743.28 257.22C745.42 255.18 747.55 253.15 748 252.72C748.45 252.29 749.82 251.09 751.03 250.05C752.33 248.94 753.4 247.66 753.63 246.93C753.93 245.97 754.37 205.45 754.11 202.59C754.01 201.55 753.02 202.26 747.85 207.08C741.41 213.09 733.83 220.1 731.29 222.41C730.27 223.33 729.44 224.24 729.44 224.42C729.44 224.73 735.05 235.07 735.68 235.91C735.84 236.13 736.49 237.27 737.14 238.45C739.96 243.66 740.89 245.12 741.31 244.99C741.62 244.88 741.78 241.84 741.85 234.81L741.96 224.78L742.99 224.53C745.28 223.95 745.26 223.83 745.37 238.07C745.49 252.75 745.53 252.53 742.68 252.53C740.78 252.53 740.02 251.73 737.83 247.45C734.76 241.41 728.76 230.87 728.31 230.72C727.99 230.61 727.87 233.44 727.87 240.83C727.87 249.84 727.79 251.19 727.23 251.81C726.57 252.54 724.95 252.78 724.59 252.21C724.49 252.03 724.36 247.24 724.32 241.56C724.28 235.87 724.17 231 724.06 230.73C723.72 229.82 722.99 230.25 720.05 233.09C718.44 234.65 715.28 237.58 713.02 239.62C710.76 241.65 706.53 245.6 703.62 248.41C700.71 251.21 695.87 255.73 692.87 258.46C686.45 264.28 687.86 262.97 675.88 274.2C670.61 279.13 665.07 284.32 663.56 285.73C662.05 287.14 655.63 293.14 649.29 299.07C642.95 305 636.27 311.23 634.45 312.93C626.52 320.28 620.34 326.04 617.25 328.98C615.42 330.72 611.1 334.76 607.65 337.97C585.67 358.41 578.69 364.92 575.22 368.23C573.07 370.29 570.26 372.92 568.97 374.08C567.68 375.24 565.39 377.36 563.89 378.78C562.38 380.21 558.16 384.16 554.5 387.57C544.72 396.69 545.5 395.86 546.05 396.52C546.47 397.02 549.74 397.09 570.26 397.03C585.26 396.99 594.22 396.82 594.63 396.58ZM628.02 396.25C629.49 394.96 630.36 390.38 629.77 386.99C628.88 381.91 626.94 379.88 622.77 379.64C619.51 379.46 618.39 379.96 615.09 383.04C604.04 393.39 601.61 395.76 601.61 396.21C601.61 396.49 601.92 396.79 602.29 396.87C602.67 396.96 608.39 397.05 615.01 397.07C626.83 397.1 627.06 397.09 628.02 396.25ZM277.91 392.63C279.84 391.86 280.97 390.06 281.7 386.61C282.39 383.34 282.38 380.77 281.66 377.01C281 373.58 280.38 372.43 278.6 371.35C276.07 369.8 272.64 370.94 271.54 373.7C270.67 375.87 270.29 383.3 270.86 386.96C271.39 390.35 272.16 391.84 273.81 392.65C275.34 393.4 276 393.4 277.91 392.63ZM652.49 391.37C654.17 389.57 654.74 387.12 654 384.89C653.05 382.01 650.25 381.03 646.37 382.21L644.02 382.92L643.89 384.67C643.62 388.29 645.08 392.02 647.11 392.89C648.81 393.62 650.96 393.01 652.49 391.37ZM673.39 392.27C674.56 391.52 675.78 388.81 676.2 386.02C676.6 383.45 676.19 376.72 675.51 374.42C674.19 369.99 667.87 369.37 666.12 373.5C665.75 374.37 665.31 376.31 665.15 377.81C664.76 381.3 664.76 381.46 665.13 385.44C665.52 389.7 666.72 392.28 668.55 392.83C670.05 393.28 672.22 393.02 673.39 392.27ZM455.05 389.24C454.43 388.92 453.68 387.75 452.83 385.74C450.49 380.24 450.13 378.19 450.15 370.39C450.18 362.96 450.32 362.1 452.46 356.33C453.77 352.8 454.44 351.82 455.54 351.82C457.12 351.82 457.36 352.5 456.48 354.5C455.59 356.5 455.33 357.41 454.18 362.57C453.17 367.07 453.36 375.37 454.58 380C455.67 384.16 456.63 387.11 457.1 387.71C457.38 388.07 457.28 388.43 456.75 388.96C456.11 389.6 455.86 389.64 455.05 389.24ZM485.61 389.48C484.9 389.19 485 388.44 486.06 385.9C489.99 376.56 489.9 363.68 485.83 354.5C484.9 352.4 485.09 351.82 486.73 351.82C487.81 351.82 488.01 352.05 489.21 354.65C489.93 356.21 491 359.25 491.59 361.4C493.75 369.3 492.7 379.69 488.98 387.07C488.58 387.86 487.86 388.79 487.38 389.12C486.46 389.77 486.38 389.79 485.61 389.48ZM30.37 387.1C29.39 385.53 27.79 381.41 26.92 378.2C26.21 375.58 26.2 364.13 26.91 361.2C27.63 358.2 30.05 351.93 30.75 351.23C31.49 350.48 32.6 350.48 33.22 351.22C33.6 351.69 33.53 352.14 32.84 353.56C30.9 357.58 29.48 366.12 29.85 371.56C30.21 376.9 31.64 383.05 33.31 386.5C33.63 387.14 33.61 387.52 33.24 387.96C32.4 388.97 31.34 388.65 30.37 387.1ZM61.76 387.73C61.76 387.27 62.22 385.65 62.78 384.12C64.31 379.9 64.78 377.84 65.3 372.93C65.72 369.06 65.7 367.84 65.15 364.18C64.8 361.85 63.88 358.09 63.11 355.84C61.63 351.49 61.61 350.51 63.02 350.72C64.74 350.96 67.33 356.5 68.65 362.76C69.3 365.81 69.36 373.36 68.76 375.95C66.92 383.9 64.69 388.56 62.72 388.56C62 388.56 61.76 388.35 61.76 387.73ZM474.31 381.82C474.14 381.55 473.97 380.28 473.94 378.99C473.9 377.7 473.85 376.51 473.82 376.35C473.8 376.19 471.33 376.05 468.34 376.05C461.91 376.05 461.43 375.83 461.81 373.07C462.01 371.57 462.84 369.91 465.38 365.89C465.85 365.14 467.49 362.39 469.02 359.79C470.55 357.19 472.07 354.84 472.4 354.56C473.12 353.97 476.23 354.22 477.1 354.95C477.59 355.35 477.69 356.83 477.69 363.78C477.69 371.62 477.74 372.14 478.45 372.52C478.86 372.75 479.64 372.93 480.16 372.93C480.69 372.93 481.23 373.2 481.36 373.54C481.78 374.62 480.9 375.58 479.26 375.86L477.69 376.12L477.69 378.35C477.69 379.73 477.46 380.9 477.08 381.44C476.42 382.39 474.8 382.61 474.31 381.82ZM42.02 380.91C40.2 380.25 39.09 379.08 39.09 377.79C39.09 376.42 39.6 376.35 41.89 377.42C44.07 378.44 47.2 378.72 48.94 378.05C51.65 377.01 53.02 373.96 51.86 371.53C50.97 369.67 49.22 368.87 45.54 368.63L42.41 368.43L42.29 366.97L42.17 365.5L43.9 365.5C46.66 365.5 47.96 365.1 49.48 363.79C50.62 362.8 50.93 362.22 51.1 360.77C51.27 359.18 51.16 358.81 50.16 357.69C49.22 356.64 48.65 356.37 46.99 356.21C45.32 356.05 44.6 356.21 42.85 357.09C40.68 358.19 39.87 358.15 39.87 356.96C39.87 354.37 43.41 353.04 49.55 353.31C51.64 353.4 53.99 355.39 54.94 357.87C55.55 359.46 55.55 359.71 54.93 361.56C54.32 363.41 52.39 365.89 51.57 365.89C50.64 365.89 51.38 366.94 52.76 367.61C55.02 368.69 56.29 370.72 56.29 373.26C56.29 376.66 54.63 379.03 50.94 380.89C49.36 381.69 44.23 381.7 42.02 380.91ZM292.53 374.57C290.23 373.34 289.48 371.92 289.33 368.55C289.21 365.97 289.32 365.33 290.05 364.14C291.2 362.28 292.9 361.44 295.41 361.49C297.94 361.54 299.35 362.2 300.46 363.85C303.66 368.59 300.05 375.32 294.35 375.25C294.03 375.24 293.21 374.94 292.53 374.57ZM687.3 374.75C686.59 374.49 685.55 373.69 684.98 372.97C684.13 371.87 683.93 371.15 683.78 368.6C683.63 365.95 683.72 365.37 684.47 364.15C685.68 362.19 687.3 361.44 690.13 361.5C692.93 361.57 694.08 362.29 695.33 364.73C696.72 367.45 696.31 370.34 694.18 372.76C692.05 375.19 690.08 375.75 687.3 374.75ZM296.66 372.56C298.56 371.59 299.2 370.09 298.96 367.19C298.73 364.45 297.82 363.55 295.29 363.55C292.43 363.55 291.3 365.32 291.75 369.1C292.03 371.43 293.17 372.88 295.05 373.29C295.12 373.31 295.84 372.98 296.66 372.56ZM691.77 372.27C693.02 371.45 693.59 369.69 693.39 367.26C693.15 364.38 692.36 363.55 689.89 363.55C687.78 363.55 686.47 364.46 686.39 365.99C686.24 368.7 686.57 371.23 687.16 371.9C688.45 373.36 689.92 373.48 691.77 372.27ZM473.48 372.21C473.84 371.85 473.98 369.98 473.98 365.39C473.98 357.74 473.67 357.34 471.18 361.69C470.29 363.25 468.66 366.07 467.56 367.96C465.56 371.41 465.24 372.36 465.96 372.6C467.07 372.97 473.03 372.66 473.48 372.21ZM277.17 330.34C276.91 329.87 276.76 325 276.76 317.22C276.76 309.45 276.91 304.58 277.17 304.1C277.71 303.08 281.01 303.04 282.16 304.03C282.87 304.64 286.83 311.52 292.18 321.43C293.2 323.31 294.19 324.75 294.39 324.63C294.59 324.5 294.75 319.83 294.75 313.88L294.75 303.35L296.04 303.35C296.74 303.35 297.54 303.56 297.79 303.81C298.14 304.16 298.26 307.6 298.26 316.84L298.26 329.4L297.36 330.25C296.17 331.37 294.33 331.36 293.29 330.22C292.52 329.37 288.1 321.93 288.1 321.46C288.1 321.34 287.08 319.46 285.84 317.28C284.59 315.1 283.05 312.3 282.42 311.07C280.4 307.16 280.28 307.64 280.28 319.49C280.28 327.27 280.15 330.29 279.81 330.63C279.09 331.35 277.62 331.19 277.17 330.34ZM154.24 223.3C154.18 223.24 142.33 223.15 127.91 223.09C102.92 222.99 101.65 222.95 100.88 222.26L100.07 221.52L100.07 112.6C100.07 19.15 100.15 3.56 100.63 2.91C101.17 2.17 101.91 2.15 128.13 2.15C150.39 2.15 155.18 2.24 155.72 2.69C156.31 3.18 156.36 9.36 156.36 84.6C156.36 147.37 156.47 166.09 156.83 166.45C157.2 166.81 181.66 166.92 264.55 166.92L371.79 166.92L372.73 167.86L373.68 168.81L373.6 195.02L373.51 221.24L372.52 222.23L371.52 223.23L262.93 223.32C203.21 223.37 154.3 223.36 154.24 223.3ZM368.68 218.88C369.38 218.51 369.41 217.49 369.41 195.13C369.41 177.48 369.29 171.65 368.94 171.3C368.58 170.93 344.42 170.83 262.61 170.83L156.75 170.83L156.85 194.77L156.95 218.71L161.25 218.91C169.95 219.3 367.94 219.28 368.68 218.88ZM151.75 218.21C152.16 217.79 152.28 198.11 152.37 112.19C152.48 7.94 152.47 6.68 151.72 6.28C151.21 6 143.29 5.9 127.76 5.96L104.57 6.06L104.47 112C104.41 170.26 104.45 218.15 104.55 218.42C104.83 219.15 151.02 218.94 151.75 218.21ZM122.12 207.03C120.14 206.11 119.62 205.47 119.62 204.01C119.62 202.78 120.61 202.74 122.93 203.87C124.75 204.76 125.47 204.9 127.44 204.76C129.46 204.61 129.98 204.41 131.15 203.27C132.3 202.16 132.52 201.68 132.52 200.25C132.52 198.04 131.66 197.19 127.17 194.93C121.68 192.17 120.01 189.79 120.5 185.42C120.74 183.35 121.7 181.89 123.57 180.8C124.64 180.16 125.6 180.01 128.61 180.01C132.93 180.01 134.6 180.61 134.79 182.2C134.99 183.95 133.99 184.34 131.76 183.38C128.33 181.91 125.12 182.64 124.31 185.09C123.38 187.92 124.54 189.3 130.29 192.14C134.95 194.45 136.41 196.08 136.72 199.27C137.02 202.4 134.62 205.95 131.26 207.36C128.97 208.31 124.54 208.15 122.12 207.03ZM178.26 207.21C176.17 206.36 174.93 204.9 175.31 203.71C175.64 202.66 176.44 202.66 178.12 203.7C179.79 204.73 183.63 205.13 185.29 204.45C187.02 203.73 188.42 201.9 188.42 200.34C188.42 198.41 186.87 196.86 183.19 195.11C177.57 192.44 176.3 190.87 176.3 186.6C176.3 183.71 177.12 181.99 179.02 180.87C182.62 178.74 190.76 179.92 190.76 182.57C190.76 184.01 189.8 184.21 187.18 183.29C182.98 181.83 179.82 183.14 179.82 186.35C179.82 188.5 180.99 189.66 185.49 191.96C189.99 194.28 190.58 194.73 191.59 196.71C193.47 200.4 191.56 205.2 187.45 207.14C185.18 208.2 180.8 208.24 178.26 207.21ZM334.84 207.35C334.31 206.82 334.23 205.06 334.23 194.09C334.23 187.14 334.33 181.17 334.46 180.83C334.64 180.36 335.26 180.21 336.98 180.21C339.55 180.21 339.94 180.47 341.51 183.27C342.08 184.27 343.26 186.33 344.14 187.83C345.01 189.34 346.3 191.71 347 193.11C349.36 197.82 351.34 201.12 351.68 200.93C351.86 200.82 352.02 198.18 352.02 195.06C352.02 191.95 352.07 187.32 352.12 184.78L352.21 180.16L353.87 180.28L355.53 180.4L355.64 193.07C355.72 203.75 355.65 205.88 355.16 206.63C354.39 207.8 353.19 208.14 351.8 207.57C350.64 207.08 350.02 206.22 347.48 201.51C346.67 200.01 345.02 197.11 343.81 195.06C342.6 193.02 341 190.06 340.24 188.49C339.47 186.87 338.67 185.7 338.41 185.79C338.06 185.9 337.92 188.68 337.86 196.22C337.79 205.28 337.7 206.58 337.12 207.23C336.31 208.12 335.65 208.16 334.84 207.35ZM527.07 169.26C526.6 169.07 526.03 168.57 525.8 168.14C525.51 167.6 525.38 151.25 525.38 114.83C525.38 70.08 525.46 62.19 525.94 61.55C526.48 60.8 528.1 60.78 635.21 60.69C755.02 60.58 745.87 60.39 746.39 62.99C746.53 63.68 746.64 87.43 746.63 115.76L746.62 167.28L745.68 168.37L744.75 169.46L636.34 169.53C574.35 169.58 527.56 169.46 527.07 169.26ZM742.14 141.31L742.14 117.47L636.6 117.36C578.55 117.3 530.7 117.34 530.27 117.44C529.5 117.63 529.49 117.91 529.59 141C529.64 153.86 529.77 164.6 529.87 164.87C530.01 165.26 551.46 165.34 636.09 165.26L742.14 165.16L742.14 141.31ZM715.4 154.25C715.07 153.86 714.97 150.16 715.06 140.75C715.18 126.3 715.02 127.06 718 127.05C719.12 127.05 719.91 127.29 720.4 127.79C721.13 128.51 724.35 133.79 724.35 134.26C724.35 134.38 724.76 135.14 725.26 135.95C726.07 137.24 727.18 139.24 731 146.34C731.56 147.38 732.18 148.21 732.39 148.19C732.84 148.13 732.84 148 732.9 136.33L732.95 127.05L734.1 127.05C736.61 127.05 736.47 126.26 736.47 140.38C736.47 152.72 736.44 153.27 735.69 154.02C734.61 155.1 732.53 155.05 731.52 153.92C730.7 153.01 728.89 150.03 726.71 146C724.84 142.56 722.65 138.55 720.96 135.48C720.14 133.99 719.25 132.7 718.98 132.61C718.6 132.49 718.49 134.77 718.49 143.16C718.49 150.96 718.36 153.99 718.02 154.33C717.39 154.97 715.95 154.92 715.4 154.25ZM548.84 154.03C545.11 153.44 543.36 152.23 543.36 150.24C543.36 148.71 543.63 148.66 545.79 149.76C547.48 150.62 551.24 151.16 552.81 150.76C553.31 150.63 554.29 150 554.99 149.36C556.05 148.39 556.26 147.92 556.26 146.49C556.26 144.31 555.34 143.4 550.61 140.95C548.68 139.94 546.77 138.83 546.36 138.46C545.01 137.24 544.15 135 544.15 132.71C544.15 130.09 544.83 128.63 546.75 127.16C548.11 126.13 548.41 126.07 552.2 126.07C555.66 126.07 556.36 126.18 557.31 126.89C558.49 127.76 558.94 129.21 558.26 129.9C557.97 130.19 557.05 130.04 555.14 129.41C552.11 128.4 550.29 128.51 548.91 129.8C546.24 132.29 548.05 135.79 553.14 137.98C558.21 140.16 560.17 142.36 560.17 145.88C560.17 149.48 557.58 152.69 553.75 153.83C551.69 154.45 551.54 154.45 548.84 154.03ZM64.99 133.03C64.25 132.75 64.4 131.35 65.42 128.77C66.93 124.98 68.41 117.43 68.41 113.5C68.41 109.78 66.97 102.92 65.26 98.53C64.61 96.84 64.27 95.45 64.47 95.26C64.66 95.07 65.37 95.03 66.05 95.18C67.06 95.4 67.44 95.81 68.17 97.47C72.59 107.44 73.12 116.78 69.8 126.27C68.14 131.04 66.35 133.54 64.99 133.03ZM33.47 132.03C32.34 130.27 30.8 126.42 29.9 123.14C29.15 120.4 28.75 111.16 29.25 108.09C30.04 103.15 32.75 95.65 33.89 95.21C34.69 94.9 36.36 95.38 36.35 95.91C36.34 96.16 36.01 97.08 35.61 97.97C33.73 102.1 32.64 107.89 32.64 113.75C32.64 119.42 33.46 123.83 35.58 129.5C36.25 131.31 36.33 131.88 35.95 132.34C35.25 133.18 34.11 133.03 33.47 132.03ZM455.31 132.22C454.39 131.18 453.28 128.38 451.65 122.94C451.1 121.08 450.95 119.22 450.96 113.95C450.96 107.91 451.05 106.98 451.99 103.79C453.4 98.99 454.78 95.74 455.58 95.29C456.6 94.72 458.28 95.27 458 96.08C454.89 105.13 454.49 107.2 454.56 113.75C454.62 120.08 454.85 121.48 456.81 127.58C457.86 130.86 458.06 131.95 457.72 132.37C457.1 133.11 456.04 133.05 455.31 132.22ZM486.42 132.28C486.27 131.91 486.62 130.29 487.2 128.64C487.78 127.01 488.5 124.71 488.8 123.53C489.44 120.98 490.37 111.61 490.03 111.06C489.9 110.85 489.63 109.35 489.42 107.71C489.01 104.46 487.78 100.03 486.57 97.41C485.62 95.35 486.02 94.68 487.87 95.22C488.87 95.52 489.27 96.01 490.2 98.12C492.5 103.34 493.42 107.31 493.62 112.78C493.78 117.27 493.68 118.31 492.82 121.77C491.65 126.44 490.49 129.63 489.29 131.41C488.3 132.89 486.82 133.34 486.42 132.28ZM43.93 124.92C43.82 124.62 43.78 123.96 43.85 123.46C43.97 122.63 44.2 122.54 46.5 122.43C47.89 122.37 49.26 122.12 49.53 121.89C49.92 121.57 50.04 119.25 50.04 111.99C50.04 100.99 50.12 101.2 46.6 103.35C44.26 104.78 43.39 104.8 43.39 103.43C43.39 102.19 44.01 101.58 47.33 99.54C50.26 97.75 52.76 97.16 53.36 98.12C53.49 98.33 53.58 103.58 53.57 109.79C53.55 115.99 53.65 121.36 53.78 121.71C53.97 122.19 54.53 122.35 55.97 122.35C58.22 122.35 59.42 122.88 59.42 123.85C59.42 125.34 58.71 125.48 51.31 125.48C45.47 125.48 44.11 125.38 43.93 124.92ZM464.27 125.22C464.13 125.08 464.01 124.3 464.01 123.49C464.01 122.15 464.42 121.56 468.23 117.39C470.56 114.85 472.99 111.99 473.65 111.02C476.81 106.36 476.2 102 472.23 100.81C471.07 100.47 470.44 100.54 468.5 101.23C467.21 101.69 465.87 102.16 465.51 102.28C464.74 102.53 464.22 101.26 464.6 100.04C465.27 97.95 473.1 96.67 475.93 98.19C478.75 99.71 480.25 102.59 479.82 105.68C479.28 109.61 477.99 111.68 472.3 117.8C470.65 119.57 469.49 121.14 469.56 121.51C469.67 122.07 470.43 122.17 475.05 122.27C479.77 122.36 480.46 122.46 480.79 123.09C481.06 123.59 481 124.04 480.58 124.64C480.01 125.45 479.73 125.48 472.26 125.48C468.01 125.48 464.41 125.36 464.27 125.22ZM741.9 112.44C742.22 112.06 742.31 105.3 742.24 88.3L742.14 64.7L636.01 64.7L529.88 64.7L529.78 88.61C529.68 111.14 529.72 112.53 530.36 112.7C530.74 112.8 578.39 112.9 636.26 112.92C724.19 112.96 741.54 112.88 741.9 112.44ZM719.07 100.54C716.89 99.62 716.54 99.35 716.13 98.28C715.71 97.16 716.02 96.16 716.79 96.16C717.1 96.16 718 96.49 718.8 96.9C720.63 97.82 723.2 98.26 724.77 97.92C725.43 97.77 726.58 97.12 727.32 96.48C728.49 95.44 728.65 95.07 728.65 93.42C728.65 91.79 728.49 91.4 727.42 90.5C726.74 89.93 724.82 88.78 723.14 87.93C719.32 86.01 717.45 84.39 716.94 82.55C715.9 78.81 716.99 75.49 719.75 73.91C721.15 73.12 721.94 72.97 724.74 72.97C728.35 72.97 730.23 73.61 731.03 75.11C731.39 75.78 731.33 76.07 730.72 76.68C729.98 77.42 729.94 77.42 728.04 76.59C723.33 74.54 719.38 76.68 720.49 80.7C720.95 82.36 722.25 83.38 726.7 85.6C731.72 88.09 732.53 89.1 732.64 92.97C732.73 96.37 731.03 98.82 727.48 100.43C725.27 101.43 721.31 101.48 719.07 100.54ZM543.83 99.6C543.16 98.93 543.16 73.46 543.83 72.79C544.09 72.53 545.2 72.32 546.31 72.32C548.72 72.32 549.23 72.79 551.37 77.01C552.19 78.62 553.25 80.56 553.71 81.31C554.18 82.06 555.84 85.02 557.4 87.88C558.97 90.75 560.45 93.01 560.7 92.93C561.02 92.82 561.18 89.87 561.25 82.55L561.36 72.32L562.9 72.32C564.33 72.32 564.45 72.41 564.67 73.59C564.8 74.29 564.86 80.16 564.79 86.64C564.68 97.59 564.62 98.49 563.92 99.25C563.51 99.7 562.75 100.07 562.24 100.07C560.23 100.07 559.56 99.32 556.31 93.33C555.4 91.66 553.83 88.84 552.81 87.07C551.79 85.3 550.26 82.49 549.41 80.82C548.56 79.16 547.64 77.79 547.37 77.79C546.99 77.79 546.88 80.18 546.88 88.46C546.88 99.67 546.82 100.07 545.12 100.07C544.67 100.07 544.09 99.86 543.83 99.6ZM118.54 53.23C118.15 52.98 118.07 49.96 118.15 39.46L118.25 26L120.41 25.88C123.54 25.71 123.36 25.47 131.84 41.17C133.65 44.53 135.12 46.81 135.32 46.61C135.51 46.42 135.7 41.76 135.75 36.25C135.81 29.32 135.98 26.09 136.29 25.78C137.01 25.06 139.06 25.7 139.29 26.7C139.39 27.17 139.51 32.97 139.54 39.58L139.6 51.59L138.62 52.57C136.56 54.63 134.58 53.52 132.09 48.95C131.19 47.29 129.08 43.47 127.41 40.46C125.74 37.45 123.94 34.2 123.41 33.24C122.88 32.28 122.25 31.43 122.01 31.35C121.69 31.25 121.57 34.14 121.57 41.73C121.57 51.44 121.52 52.31 120.86 52.91C120.08 53.61 119.31 53.72 118.54 53.23Z" fill="#1e2749" fill-rule="evenodd"/>
</svg>
