<?xml version="1.0" encoding="UTF-8"?>
<svg xmlns="http://www.w3.org/2000/svg" viewBox="0 0 2430 1842" width="2430" height="1842" shape-rendering="geometricPrecision">
<path d="M247.5 1811.16C239.12 1806.05 226.75 1786.96 224.06 1775C222.52 1768.15 222.79 1752.59 224.57 1745.72C227.76 1733.43 236.04 1720.32 245.28 1712.97C253.63 1706.32 254.38 1708.03 247.08 1717.1C237.84 1728.56 234.29 1743.29 235.33 1765.83C236.27 1786.17 238.94 1795.22 246.87 1805C253.55 1813.23 253.4 1813 251.87 1813C251.12 1812.99 249.15 1812.17 247.5 1811.16ZM1086.51 1804.65C1072.72 1790.52 1067.94 1777.45 1069.41 1757.89C1070.76 1739.83 1077.18 1724.63 1087.32 1715.45C1092.76 1710.52 1096.06 1708.73 1095.96 1710.75C1095.94 1711.16 1093.69 1714.42 1090.95 1718C1084.7 1726.15 1082.23 1733.78 1080.78 1749.31C1078.44 1774.52 1085.36 1803.32 1095.1 1808.86C1096.69 1809.76 1097.85 1810.92 1097.68 1811.44C1096.82 1814.09 1094.1 1812.44 1086.51 1804.65ZM1253 1812.12C1253 1811.64 1255.06 1808.6 1257.59 1805.37C1267.76 1792.35 1269.45 1786.02 1269.38 1761C1269.3 1735.53 1268 1730.83 1257.12 1716.75C1254.67 1713.58 1252.94 1710.73 1253.26 1710.41C1255.87 1707.79 1270.17 1722.49 1275.38 1733.14C1280.71 1744.05 1282.34 1751.66 1281.75 1763C1281.11 1775.41 1277.32 1786.89 1270.54 1796.97C1264.48 1805.98 1253 1815.89 1253 1812.12ZM1905.16 1811.63C1903.88 1810.92 1900.73 1808.27 1898.16 1805.75C1884.34 1792.15 1877.1 1767.15 1881.38 1747.87C1884.49 1733.93 1892.33 1720.74 1902.13 1712.99C1904.91 1710.8 1907.59 1709 1908.09 1709C1909.7 1709 1909.06 1711.64 1906.99 1713.51C1903.18 1716.96 1898.08 1725.73 1895.3 1733.61C1892.63 1741.17 1892.51 1742.27 1892.55 1760C1892.61 1785.43 1895.05 1794.56 1904.93 1806.36C1910.27 1812.74 1910.35 1814.51 1905.16 1811.63ZM2090 1810.55C2090 1809.76 2091.24 1808.52 2092.75 1807.79C2098.48 1805.05 2104.88 1790.19 2107.1 1774.5C2110.06 1753.5 2103.86 1724.8 2094.46 1715.96C2091.3 1712.99 2089.57 1713.91 2087.45 1719.68C2083.85 1729.48 2083.02 1731.13 2082.02 1730.51C2081.46 1730.17 2081 1728.9 2081 1727.69C2080.99 1724.35 2077.47 1719.3 2073.79 1717.35C2069.09 1714.85 2060.68 1715.07 2054.5 1717.86C2040.77 1724.04 2030.13 1744.51 2031.24 1762.57C2032.58 1784.25 2051.11 1792.45 2070.11 1779.77C2073.4 1777.57 2076.32 1775.99 2076.59 1776.26C2076.86 1776.53 2074.93 1778.67 2072.29 1781.02C2054.98 1796.41 2031.64 1793.27 2022.36 1774.3C2018.3 1766 2017.85 1754.11 2021.23 1744.39C2026.88 1728.14 2036.08 1718.56 2051.06 1713.34C2058.02 1710.91 2059.26 1710.78 2070.28 1711.4C2078.18 1711.84 2083.35 1711.68 2085.95 1710.9C2089.35 1709.88 2090.38 1710.01 2094.39 1711.95C2108.81 1718.93 2118 1737.85 2118 1760.57C2118 1777.78 2114.49 1789.32 2105.79 1800.72C2099.97 1808.34 2090 1814.55 2090 1810.55ZM417 1809.96C417 1809.39 419.23 1806.01 421.96 1802.45C430.68 1791.08 434.34 1772.34 432.12 1750.45C430.53 1734.73 428.14 1727.67 421.41 1718.8C415.03 1710.39 415.93 1708.61 423.72 1714.21C442.73 1727.86 450.12 1767.07 437.82 1789C430.91 1801.33 417 1815.34 417 1809.96ZM319 1804.47C319 1803.63 320.8 1800.66 323 1797.88C325.2 1795.1 327 1792.26 327 1791.57C327 1788.05 315.28 1786.79 310.09 1789.75C307.32 1791.33 306.76 1791.35 304.36 1790C302.89 1789.17 300.75 1787.22 299.6 1785.67C297.65 1783.04 297.5 1781.53 297.5 1765.28C297.5 1747.97 297.47 1747.72 295.24 1746.89C293.99 1746.43 291.66 1746.32 290.06 1746.64C286.72 1747.31 285.91 1749.82 283.99 1765.5C282.29 1779.42 279.01 1788.86 275.14 1790.92C272.67 1792.24 270.99 1790.46 271.02 1786.55C271.03 1784.87 272.64 1779 274.6 1773.5C277.13 1766.38 278.32 1761.08 278.73 1755.11L279.3 1746.73L276.4 1747.23C274.8 1747.5 271.81 1748.47 269.75 1749.38C266.03 1751.01 266 1751.01 266 1748.76C266.01 1744.79 270.08 1740.95 276.03 1739.32C288.16 1735.98 315.83 1736.68 318.91 1740.39C320.51 1742.32 316.35 1745.65 311.32 1746.47C306.03 1747.33 305 1749.79 304.27 1763.17C303.64 1774.73 304.25 1777.7 307.55 1779.21C309.65 1780.16 310.51 1780 312.98 1778.17C314.62 1776.96 317.37 1776.01 319.21 1776.02C323.5 1776.05 330.55 1779.28 331.92 1781.85C334.87 1787.36 330.67 1799.12 324.16 1803.54C319.95 1806.4 319 1806.57 319 1804.47ZM1165 1804.12C1165 1803.04 1167.03 1799.78 1169.51 1796.87C1172 1793.97 1173.87 1791.12 1173.69 1790.54C1173.5 1789.97 1171.59 1789.28 1169.45 1789C1164.84 1788.41 1162.3 1784.94 1163.36 1780.7C1164.71 1775.33 1173.46 1776.43 1177.11 1782.42C1180.42 1787.85 1179.15 1792.51 1172.28 1800.11C1167.52 1805.38 1165 1806.77 1165 1804.12ZM1975.02 1804.81C1975.03 1804.09 1977.07 1801.53 1979.57 1799.12C1985.2 1793.68 1985.45 1789.97 1980.26 1788.91C1975.87 1788.02 1974 1786.28 1974 1783.08C1974 1779.35 1975.73 1778 1980.48 1778C1985.73 1778 1988.69 1780.13 1989.96 1784.84C1991.12 1789.17 1990.17 1793.55 1987.14 1797.8C1984.75 1801.15 1974.99 1806.8 1975.02 1804.81ZM1919.82 1789.5C1918.87 1787.41 1919.27 1785.19 1922.36 1775.73C1926.37 1763.43 1928.44 1752.88 1927.54 1749.29C1926.82 1746.42 1924.22 1746.34 1919 1749C1914.18 1751.46 1914 1751.46 1914 1749.08C1914 1745.64 1918.83 1741.13 1924.33 1739.44C1931.27 1737.3 1952.82 1736.39 1960.17 1737.93C1970.33 1740.05 1970.1 1744.51 1959.72 1746.5L1954.5 1747.5L1953.33 1756C1951.66 1768.08 1951.72 1774.16 1953.56 1776.78C1955.35 1779.34 1958.75 1779.66 1961.56 1777.53C1968.04 1772.63 1967.2 1781.75 1960.6 1787.92C1957.69 1790.64 1953.03 1791.1 1950.39 1788.92C1949.45 1788.14 1947.8 1785.52 1946.73 1783.11C1945.01 1779.23 1944.82 1776.89 1945.14 1763.11L1945.5 1747.5L1940.75 1747.2C1934.9 1746.82 1934.85 1746.91 1932.68 1763.5C1930.79 1777.96 1928.81 1784.89 1925.39 1788.95C1922.27 1792.65 1921.3 1792.75 1919.82 1789.5ZM373.87 1788.99C367.01 1785.37 362.04 1777.57 359.4 1766.27C357.04 1756.23 357.87 1735.48 360.92 1728C363.88 1720.72 367.28 1716.41 372.83 1712.89C379.09 1708.92 383.57 1709.03 389.14 1713.28C399.64 1721.28 404.44 1732.67 404.41 1749.5C404.39 1768.05 397.25 1783.26 385.86 1789.07C381.17 1791.46 378.51 1791.45 373.87 1788.99ZM1126.9 1789.01C1111.11 1780.66 1104.41 1750.53 1113.21 1727.36C1115.59 1721.07 1123.72 1711.82 1128.42 1710.03C1132.33 1708.54 1140.2 1711.5 1144.87 1716.22C1151.71 1723.13 1157.95 1738.99 1157.99 1749.59C1157.99 1751.84 1157.13 1757.08 1156.07 1761.24C1152.65 1774.6 1145.96 1785.45 1138.93 1789.04C1134.18 1791.46 1131.53 1791.45 1126.9 1789.01ZM1221.5 1789.43C1204.86 1780.82 1198.04 1751.59 1207.06 1727.55C1209.56 1720.89 1216.19 1713.09 1221.48 1710.58C1224.65 1709.07 1225.2 1709.1 1230.35 1711.03C1244.76 1716.42 1254.43 1739.3 1250.46 1758.56C1247.6 1772.37 1240.95 1784 1233.17 1788.74C1228.86 1791.38 1225.63 1791.57 1221.5 1789.43ZM384.01 1782.99C391.07 1777.96 394.39 1759.78 392.15 1738.32C390.33 1720.81 386.33 1713.89 378.97 1715.51C371.89 1717.06 369.55 1727.5 370.27 1754.35C370.78 1773.67 371.75 1778.84 375.54 1782.63C378.43 1785.53 380.34 1785.61 384.01 1782.99ZM1138.45 1781.91C1140.51 1780.1 1142.36 1777.29 1142.91 1775.16C1145.78 1764.01 1144.84 1727.46 1141.52 1721.03C1139.36 1716.86 1134.29 1714.65 1130.17 1716.09C1124.23 1718.16 1121.59 1731.42 1122.18 1756.2C1122.51 1769.66 1122.83 1772.14 1124.92 1776.79C1128.83 1785.54 1132.66 1786.99 1138.45 1781.91ZM1231.39 1782.91C1236.95 1778.54 1237.45 1776.27 1237.83 1753.94C1238.03 1741.82 1237.72 1730.96 1237.08 1727.5C1235.36 1718.18 1229.93 1713.75 1223.51 1716.43C1219.11 1718.27 1217.46 1723.59 1215.95 1740.82C1214.16 1761.31 1216.33 1775.93 1222.06 1782.06C1225.3 1785.54 1227.76 1785.76 1231.39 1782.91ZM175.5 1762.89C160.12 1762.1 161 1762.24 161 1760.52C161 1758.12 165.36 1757.62 186.5 1757.58C207.58 1757.53 216.38 1758.35 215.74 1760.29C214.89 1762.82 196.91 1763.98 175.5 1762.89ZM2264.57 1681.78C2264.35 1681.08 2263.79 1675.55 2263.33 1669.5L2262.5 1658.5L1770.5 1658.53C1301.03 1658.57 1207.14 1658.96 1186.22 1660.96C1178.42 1661.71 1176.65 1662.21 1175.12 1664.1L1173.3 1666.35L1169.72 1664.14C1167.41 1662.71 1163.21 1661.56 1157.82 1660.9C1141.68 1658.9 1000.63 1658.28 528 1658.13C265.38 1658.05 45.55 1657.74 39.5 1657.43C26.96 1656.8 23.7 1656.29 24.43 1655.11C25.53 1653.33 52.88 1652.76 175 1651.98C259.71 1651.43 303.14 1650.8 306.47 1650.07C309.78 1649.34 312.62 1647.85 314.97 1645.59C316.91 1643.73 320.83 1641.04 323.68 1639.62C326.52 1638.2 337.55 1631.94 348.18 1625.71C444.43 1569.25 536.39 1534.75 633.89 1518.52C682.34 1510.46 766.74 1508.92 823 1515.06C837.75 1516.68 871.68 1522.68 891 1527.09C972.19 1545.64 1043.06 1573.16 1124 1617.56C1152.91 1633.42 1161.75 1637.65 1163.09 1636.31C1164.98 1634.42 1165.9 1598.71 1165.95 1524.38L1166 1454.26L1150.25 1453.76C1134.08 1453.24 1131 1452.72 1131 1450.52C1131 1448.62 1135.81 1448 1150.43 1448C1159.34 1448 1163.99 1447.61 1164.8 1446.8C1165.72 1445.88 1166 1409.57 1166 1289.45L1166 1133.31L1150.25 1132.63C1132.89 1131.88 1130 1131.42 1130 1129.4C1130 1127.45 1132.61 1127.03 1150 1126.22L1165.5 1125.5L1165.75 967.41L1166.01 809.31L1152.25 808.68C1144.69 808.34 1137 807.75 1135.16 807.39C1132 806.75 1130.03 804.63 1131.37 803.3C1131.71 802.96 1139.53 802.41 1148.74 802.09L1165.5 801.5L1165.75 641.88L1166.01 482.26L1150.25 481.76C1134.08 481.24 1131 480.72 1131 478.52C1131 476.62 1135.81 476 1150.42 476C1159.34 476 1163.99 475.61 1164.8 474.8C1165.72 473.88 1166 440.66 1166 331.39L1166 189.18L1153.98 188.46C1147.37 188.06 1141.72 187.36 1141.43 186.89C1141.14 186.42 1145.97 176.69 1152.16 165.27C1158.35 153.84 1164.56 142.37 1165.96 139.76C1167.36 137.15 1168.95 135.02 1169.5 135.02C1170.54 135.02 1184.41 159.68 1192.48 175.89C1198.55 188.07 1198.34 188.36 1182.93 188.84L1171.93 189.18L1172.21 712.34C1172.54 1314.96 1173.19 1597.14 1174.23 1595C1174.64 1594.17 1177.71 1583.15 1181.06 1570.5C1212.24 1452.8 1225.94 1403.85 1248.68 1329C1291.37 1188.46 1329.58 1087.2 1373.03 999.5C1406.87 931.19 1438.01 883.62 1471.49 849.13C1500.13 819.62 1527.02 803.34 1556.88 797.43C1568.78 795.07 1593.13 795.87 1605 799.01C1650.06 810.91 1693.59 850.82 1737.49 920.5C1799.82 1019.43 1861.32 1176.12 1925.48 1399.5C1943.14 1461 1976.96 1590.21 1985.94 1630.5L1990.62 1651.5L2126.56 1651.5L2262.5 1651.5L2262.78 1638.25C2262.94 1630.55 2263.46 1625 2264.03 1625C2265.49 1625 2296.48 1642.66 2304.81 1648.24C2308.83 1650.94 2311.95 1653.67 2311.73 1654.32C2311.2 1655.95 2305.78 1659.49 2286.8 1670.63C2265.19 1683.3 2265.06 1683.37 2264.57 1681.78ZM2338.04 1669.07C2337.47 1668 2337 1665.75 2337 1664.07C2337 1661.03 2337.04 1661 2341.98 1661.22C2346.44 1661.41 2347.33 1661.07 2350.57 1657.97C2356.23 1652.52 2358.42 1647.53 2358.45 1640C2358.47 1632.04 2356.46 1628.55 2350.31 1625.92C2347.94 1624.9 2346 1623.62 2346 1623.06C2346 1621.39 2350.66 1618.85 2354.73 1618.31C2359.7 1617.64 2362.89 1620.18 2365 1626.49L2366.58 1631.23L2372.04 1626.26C2378.45 1620.42 2383.37 1617.67 2385.94 1618.48C2388.14 1619.18 2389.15 1623.47 2387.9 1626.76C2387.09 1628.91 2386.6 1629.06 2382.62 1628.47C2377.14 1627.64 2374.29 1629.07 2372.42 1633.55C2370.53 1638.06 2370.62 1648.35 2372.6 1655.07C2374.91 1662.91 2375.74 1663.62 2378.96 1660.54C2381.84 1657.78 2384 1657.25 2384 1659.3C2384 1660.69 2378.1 1666.63 2374.03 1669.35C2368.64 1672.94 2366.2 1670.33 2363.81 1658.41C2363.21 1655.43 2362.22 1653.03 2361.61 1653.06C2361 1653.09 2358.28 1655.85 2355.56 1659.19C2350.17 1665.82 2343.73 1671 2340.89 1671C2339.89 1671 2338.6 1670.13 2338.04 1669.07ZM1131.29 1650.24C1135.57 1649.73 1139.55 1648.85 1140.13 1648.27C1141.76 1646.64 1125.22 1637.33 1084 1616.67C1031.55 1590.37 1007.75 1580.2 966.5 1566.46C920.64 1551.19 868.12 1538.69 832.12 1534.48C783.13 1528.74 709.32 1526.84 678 1530.5C572.13 1542.87 481.42 1572.03 385.8 1624.43C365.72 1635.44 345 1647.93 345 1649.04C345 1650.23 342.53 1650.15 406 1650.97C483.48 1651.98 1122.03 1651.33 1131.29 1650.24ZM1972.4 1651.15C1972.99 1650.21 1943.29 1530.34 1931.48 1486C1876.63 1279.96 1822.31 1123.05 1766.51 1009.5C1721.64 918.2 1680.15 861.73 1636.13 832.06C1627.93 826.53 1611.02 818.56 1604.13 816.98C1589 813.5 1557.93 814.31 1545.32 818.51C1535.35 821.83 1521.76 829.32 1510.4 837.76C1498.54 846.57 1472.75 872.63 1461.17 887.51C1408.31 955.41 1353.39 1069.66 1302.31 1218C1274.33 1299.26 1240.05 1413.74 1216.06 1506C1213.28 1516.72 1208.73 1534.05 1205.97 1544.5C1197.62 1576.05 1182.04 1639.19 1181.39 1644.12L1180.78 1648.74L1185.64 1649.51C1188.31 1649.94 1204.67 1650.59 1222 1650.97C1268.28 1651.97 1971.79 1652.15 1972.4 1651.15ZM318.14 1624.67C316.09 1622.2 315.69 1617.5 317.41 1616.07C319.7 1614.17 322 1616.39 322 1620.5C322 1624.41 319.85 1626.73 318.14 1624.67ZM317.04 1596.07C314.98 1592.22 316.11 1587 319 1587C321.96 1587 323.3 1594.3 320.8 1596.8C319.12 1598.48 318.23 1598.3 317.04 1596.07ZM1979.96 1593.91C1978.33 1589.96 1979.68 1585.5 1982.52 1585.5C1984.14 1585.5 1984.56 1586.29 1984.81 1589.82C1985.1 1593.8 1983.84 1597 1982 1597C1981.58 1597 1980.67 1595.61 1979.96 1593.91ZM317.04 1568.07C314.79 1563.86 316.33 1558.54 319.62 1559.16C321.86 1559.59 322.7 1564.82 321.02 1567.95C319.65 1570.52 318.37 1570.55 317.04 1568.07ZM1980.21 1566.81C1979.55 1566.15 1979 1564.12 1979 1562.3C1979 1559.45 1979.34 1559 1981.48 1559C1983.33 1559 1984.13 1559.67 1984.63 1561.65C1985.68 1565.84 1982.71 1569.31 1980.21 1566.81ZM317.04 1539.07C315.61 1536.41 315.74 1533.74 317.39 1531.48C318.57 1529.86 319.03 1529.78 320.39 1530.91C323.19 1533.23 321.99 1541 318.84 1541C318.41 1541 317.6 1540.13 317.04 1539.07ZM1980.01 1538.01C1979.38 1536.85 1979.02 1534.69 1979.19 1533.2C1979.62 1529.44 1983.1 1529.51 1984.44 1533.3C1986.08 1537.98 1982.2 1542.1 1980.01 1538.01ZM316.98 1510.43C315.07 1505.44 316.22 1499 319.01 1499C321.13 1499 322 1500.93 322 1505.65C322 1509.43 320.52 1513 318.94 1513C318.4 1513 317.51 1511.85 316.98 1510.43ZM1980.42 1509.52C1978.96 1507.29 1978.88 1506.33 1979.9 1502.95C1981.15 1498.77 1981.86 1498.26 1983.8 1500.2C1985.48 1501.88 1985.32 1509.49 1983.57 1510.94C1982.41 1511.9 1981.8 1511.63 1980.42 1509.52ZM1061.75 1498.35C1057.33 1497.58 1058.37 1494.72 1066.25 1485.95C1079.57 1471.14 1083.06 1466.55 1087.04 1458.63C1090.34 1452.09 1091 1449.76 1091 1444.78C1091 1439.36 1090.69 1438.49 1087.75 1435.56C1085.26 1433.08 1083.3 1432.16 1079.37 1431.64C1072.76 1430.77 1069.43 1432.06 1064.79 1437.31L1061.09 1441.5L1061.05 1437.5C1060.98 1430.56 1066.91 1423.72 1075.32 1421.02C1087.51 1417.11 1100.9 1427.92 1100.97 1441.74C1101.03 1451.69 1096.9 1459.04 1081.25 1476.91C1076.71 1482.09 1073 1486.88 1073 1487.55C1073 1490.49 1095.21 1490.1 1100.89 1487.06C1103.78 1485.51 1105 1485.75 1105 1487.87C1105 1490.56 1101.16 1495.03 1097.57 1496.54C1094.4 1497.86 1066.91 1499.25 1061.75 1498.35ZM1981.21 1482.76C1978.36 1479.32 1979.18 1471 1982.37 1471C1984.18 1471 1985 1473.17 1985 1477.96C1985 1482.24 1982.94 1484.84 1981.21 1482.76ZM317.15 1480.75C315.76 1479.36 315.68 1476.05 316.99 1474C318.35 1471.86 321.41 1473.95 321.81 1477.28C322.18 1480.35 319.06 1482.66 317.15 1480.75ZM316.85 1453.58C314.81 1449.1 317.95 1440.61 320.96 1442.47C322.3 1443.31 322.31 1451.55 320.96 1454.07C319.57 1456.67 318.19 1456.5 316.85 1453.58ZM1980.93 1453.42C1979.31 1451.46 1979.18 1445.42 1980.73 1443.87C1982.99 1441.61 1985 1443.72 1985 1448.35C1985 1453.5 1983.03 1455.95 1980.93 1453.42ZM318.03 1425.54C317.36 1424.72 316.73 1422.58 316.65 1420.78C316.52 1417.91 316.81 1417.5 319 1417.5C321.15 1417.5 321.54 1418.01 321.8 1421.09C322.16 1425.37 320.01 1427.92 318.03 1425.54ZM1980.21 1424.81C1979.55 1424.15 1979 1422.12 1979 1420.3C1979 1417.45 1979.34 1417 1981.48 1417C1983.33 1417 1984.13 1417.67 1984.63 1419.65C1985.68 1423.84 1982.71 1427.31 1980.21 1424.81ZM316.45 1395.59C315.54 1390.72 316.67 1387.81 319.34 1388.19C321.05 1388.44 321.56 1389.29 321.81 1392.32C322.36 1398.91 317.62 1401.8 316.45 1395.59ZM1980.04 1395.1C1978.44 1391.24 1979.85 1386.5 1982.58 1386.5C1984.24 1386.5 1984.5 1387.25 1984.5 1391.99C1984.5 1396.23 1984.14 1397.54 1982.89 1397.78C1981.89 1397.98 1980.81 1396.97 1980.04 1395.1ZM316.98 1368.43C315.07 1363.44 316.22 1357 319.01 1357C321.13 1357 322 1358.93 322 1363.65C322 1367.43 320.52 1371 318.94 1371C318.4 1371 317.51 1369.85 316.98 1368.43ZM1981.26 1368.76C1979.31 1366.34 1978.83 1362.83 1980.03 1359.93C1982.27 1354.51 1985 1356.72 1985 1363.96C1985 1368.21 1982.93 1370.86 1981.26 1368.76ZM317.69 1339.36C317.31 1338.98 317.01 1337.5 317.01 1336.08C317.05 1328.87 320.4 1326.31 321.58 1332.59C322.11 1335.41 321.84 1336.6 320.32 1338.12C319.26 1339.19 318.08 1339.74 317.69 1339.36ZM1979.98 1338.48C1978.97 1337.26 1978.95 1336.12 1979.89 1332.97C1981.27 1328.36 1982.64 1327.92 1984.05 1331.63C1985.79 1336.2 1982.58 1341.61 1979.98 1338.48ZM318.21 1311.76C315.16 1308.07 315.64 1300 318.91 1300C321.16 1300 322 1301.88 322 1306.96C322 1311.24 319.94 1313.84 318.21 1311.76ZM1981.29 1311.76C1979.35 1309.26 1978.97 1306.64 1980.05 1303.35C1981.87 1297.84 1985 1299.89 1985 1306.58C1985 1311.13 1982.98 1313.95 1981.29 1311.76ZM1981.21 1283.76C1978.36 1280.32 1979.18 1272 1982.37 1272C1984.18 1272 1985 1274.17 1985 1278.96C1985 1283.24 1982.94 1285.84 1981.21 1283.76ZM316.95 1280.91C314.68 1276.66 317.73 1272.13 320.8 1275.2C323.03 1277.43 321.63 1283 318.84 1283C318.41 1283 317.57 1282.06 316.95 1280.91ZM316.81 1254.48C315.09 1250.7 316.83 1244.59 319.75 1244.18C321.81 1243.89 322 1244.26 322 1248.5C322 1256.14 319.09 1259.49 316.81 1254.48ZM1980.02 1253.05C1978.44 1249.24 1979.86 1244.5 1982.58 1244.5C1984.13 1244.5 1984.56 1245.34 1984.81 1248.82C1985.1 1252.8 1983.84 1256 1982 1256C1981.58 1256 1980.69 1254.67 1980.02 1253.05ZM318.21 1226.76C315.16 1223.07 315.64 1215 318.91 1215C321.16 1215 322 1216.88 322 1221.96C322 1226.24 319.94 1228.84 318.21 1226.76ZM1980.04 1225.07C1978.38 1221.97 1978.75 1216.03 1980.64 1215.31C1984.08 1213.99 1986.75 1222.85 1983.8 1225.8C1982.12 1227.48 1981.23 1227.3 1980.04 1225.07ZM1980.15 1196.68C1977.84 1193.9 1980.61 1185.18 1983.02 1187.64C1984.98 1189.65 1985.1 1193.65 1983.27 1195.92C1981.63 1197.93 1981.27 1198.02 1980.15 1196.68ZM316.56 1194.37C315.56 1190.4 316.83 1186 318.97 1186C321.02 1186 322 1187.9 322 1191.88C322 1196.94 317.7 1198.91 316.56 1194.37ZM1088.01 1176.52C1087.34 1175.7 1086.54 1171.2 1086.25 1166.52L1085.72 1158L1074.08 1158C1057.53 1158 1055.42 1156.08 1060.35 1145.49C1064.75 1136.04 1082 1110.01 1088.34 1103.25C1091.68 1099.69 1095.38 1099.01 1096.5 1101.75C1096.9 1102.71 1097.59 1112.8 1098.04 1124.18C1098.83 1144.33 1099.65 1149 1102.38 1149C1103.1 1149 1104.49 1149.89 1105.48 1150.97C1107.13 1152.8 1107.15 1153.13 1105.66 1155.4C1104.77 1156.75 1103.04 1158 1101.82 1158.18C1099.21 1158.55 1098.24 1161.25 1098.1 1168.53C1098.04 1171.31 1097.3 1174.55 1096.44 1175.78C1094.63 1178.37 1089.89 1178.78 1088.01 1176.52ZM317.04 1167.07C314.79 1162.86 316.33 1157.54 319.62 1158.16C323.07 1158.81 322.4 1169 318.91 1169C318.45 1169 317.6 1168.13 317.04 1167.07ZM1979.41 1167.62C1978.56 1165.4 1980.49 1159.53 1982.18 1159.2C1984.15 1158.82 1985.4 1164.38 1983.96 1167.08C1982.76 1169.31 1980.17 1169.62 1979.41 1167.62ZM1084.8 1147.8C1086.82 1145.78 1086.04 1118 1083.96 1118C1083.07 1118 1065 1145.58 1065 1146.95C1065 1148.76 1083.06 1149.54 1084.8 1147.8ZM317.04 1139.07C314.79 1134.86 316.33 1129.54 319.62 1130.16C321.86 1130.59 322.7 1135.82 321.02 1138.95C319.65 1141.52 318.37 1141.55 317.04 1139.07ZM1979.5 1138.98C1978.67 1136.4 1980.83 1129.78 1982.33 1130.28C1982.96 1130.49 1983.88 1132.09 1984.38 1133.84C1985.11 1136.37 1984.93 1137.42 1983.49 1139.01C1981.22 1141.52 1980.3 1141.52 1979.5 1138.98ZM316.94 1109.89C315.3 1106.83 316.61 1101 318.94 1101C321.95 1101 323.33 1108.27 320.8 1110.8C319.1 1112.5 318.23 1112.3 316.94 1109.89ZM1979.58 1110.25C1978.76 1107.65 1980.42 1102.54 1982.19 1102.2C1984.15 1101.82 1985.4 1107.38 1983.96 1110.08C1982.67 1112.48 1980.31 1112.57 1979.58 1110.25ZM1980.04 1083.07C1978.38 1079.97 1978.75 1074.03 1980.64 1073.31C1984.08 1071.99 1986.75 1080.85 1983.8 1083.8C1982.12 1085.48 1981.23 1085.3 1980.04 1083.07ZM317.04 1082.07C314.79 1077.86 316.33 1072.54 319.62 1073.16C321.86 1073.59 322.7 1078.82 321.02 1081.95C319.65 1084.52 318.37 1084.55 317.04 1082.07ZM1979.98 1054.48C1978.97 1053.26 1978.95 1052.12 1979.89 1048.97C1981.27 1044.36 1982.64 1043.92 1984.05 1047.63C1985.79 1052.2 1982.58 1057.61 1979.98 1054.48ZM317.04 1053.07C314.54 1048.4 317.18 1042.25 320.5 1045C323.21 1047.25 321.92 1055 318.84 1055C318.41 1055 317.6 1054.13 317.04 1053.07ZM317.04 1025.07C314.79 1020.86 316.33 1015.54 319.62 1016.16C323.07 1016.81 322.4 1027 318.91 1027C318.45 1027 317.6 1026.13 317.04 1025.07ZM1979.46 1024.69C1978.33 1020.19 1979.3 1016.53 1981.71 1016.19C1984.4 1015.8 1985.8 1019.84 1984.37 1023.88C1983.14 1027.38 1980.25 1027.86 1979.46 1024.69ZM1980.25 997.85C1977.89 995.49 1978.93 987 1981.57 987C1984.89 987 1986 993.55 1983.25 996.94C1981.85 998.67 1981.25 998.85 1980.25 997.85ZM316.56 995.37C315.71 992 316.8 987 318.38 987C320.49 987 322 989.29 322 992.5C322 997.87 317.75 1000.12 316.56 995.37ZM317.04 968.07C314.79 963.86 316.33 958.54 319.62 959.16C323.07 959.81 322.4 970 318.91 970C318.45 970 317.6 969.13 317.04 968.07ZM1979.58 968.25C1978.76 965.65 1980.42 960.54 1982.2 960.2C1984.12 959.83 1985.17 964.41 1983.92 967.7C1982.89 970.42 1980.37 970.74 1979.58 968.25ZM1979.46 939.69C1978.33 935.19 1979.3 931.53 1981.71 931.19C1984.64 930.77 1985.93 935.26 1983.9 938.85C1981.97 942.28 1980.19 942.61 1979.46 939.69ZM1980.14 912.26C1978.39 909 1978.7 903.05 1980.64 902.31C1982.62 901.55 1985 904.42 1985 907.58C1985 908.79 1984.16 910.81 1983.14 912.08L1981.27 914.38L1980.14 912.26ZM1979.44 882.62C1978.42 878.54 1979.33 874.55 1981.38 874.16C1985.09 873.46 1986.44 880.39 1983.17 883.35C1980.73 885.55 1980.15 885.44 1979.44 882.62ZM1979.44 853.62C1978.36 849.29 1979.31 845.5 1981.48 845.5C1984.18 845.5 1985.75 850.07 1984.2 853.46C1982.74 856.66 1980.22 856.74 1979.44 853.62ZM1066.95 839.18C1061.99 836.03 1056.93 830.64 1054.31 825.74C1051.84 821.11 1051.89 800.87 1054.39 792.53C1057.64 781.7 1068.11 769.17 1077.5 764.87C1081.5 763.05 1091 762.29 1091 763.8C1091 764.24 1089.4 765.18 1087.45 765.88C1082.86 767.54 1071.04 779.38 1068.62 784.73C1065.67 791.28 1066.54 792.09 1076.23 791.83C1085.9 791.57 1088.27 792.68 1092.88 799.63C1101.86 813.18 1097.76 829.65 1083.05 839.13C1077.27 842.86 1072.76 842.87 1066.95 839.18ZM1081.76 832.57L1085.5 829.15L1085.5 818.32C1085.5 805.76 1084.01 802 1077.77 798.76C1074.58 797.11 1073.54 797 1070.49 798C1064.94 799.84 1063.49 802.97 1063.57 812.96C1063.66 823.42 1065.27 829.42 1069 833.16C1072.99 837.14 1076.98 836.96 1081.76 832.57ZM1979.46 825.69C1978.33 821.19 1979.3 817.53 1981.71 817.19C1984.4 816.8 1985.8 820.84 1984.37 824.88C1983.14 828.38 1980.25 828.86 1979.46 825.69ZM1980.14 798.67C1978.2 796.33 1979.07 789.6 1981.38 789.16C1985.08 788.46 1986.27 794.21 1983.21 797.99C1981.62 799.95 1981.27 800.03 1980.14 798.67ZM1979.44 768.62C1978.33 764.2 1979.31 760.53 1981.69 760.19C1983.49 759.93 1984 760.5 1984.53 763.33C1985.66 769.31 1980.86 774.28 1979.44 768.62ZM1980.25 741.85C1978.21 739.81 1978.85 731 1981.04 731C1982.68 731 1985 734.2 1985 736.46C1985 737.74 1984.21 739.75 1983.25 740.94C1981.85 742.67 1981.25 742.85 1980.25 741.85ZM1979.44 711.62C1978.36 707.29 1979.31 703.5 1981.48 703.5C1984.18 703.5 1985.75 708.07 1984.2 711.46C1982.74 714.66 1980.22 714.74 1979.44 711.62ZM1979.44 683.62C1978.42 679.54 1979.33 675.55 1981.38 675.16C1985.09 674.46 1986.44 681.39 1983.17 684.35C1980.73 686.55 1980.15 686.44 1979.44 683.62ZM1980.14 656.26C1978.39 653 1978.7 647.05 1980.64 646.31C1982.62 645.55 1985 648.42 1985 651.58C1985 652.79 1984.16 654.81 1983.14 656.08L1981.27 658.38L1980.14 656.26ZM1979.61 627.42C1978.43 624.34 1978.96 618.95 1980.51 618.36C1982.65 617.54 1985 619.8 1985 622.69C1985 627.73 1981.06 631.19 1979.61 627.42ZM1980.14 599.67C1978.2 597.33 1979.07 590.6 1981.38 590.16C1985.08 589.46 1986.27 595.21 1983.21 598.99C1981.62 600.95 1981.27 601.03 1980.14 599.67ZM1979.44 569.62C1978.36 565.29 1979.31 561.5 1981.48 561.5C1984.18 561.5 1985.75 566.07 1984.2 569.46C1982.74 572.66 1980.22 572.74 1979.44 569.62ZM1980.25 542.85C1978.21 540.81 1978.85 532 1981.04 532C1982.68 532 1985 535.2 1985 537.46C1985 538.74 1984.21 540.75 1983.25 541.94C1981.85 543.67 1981.25 543.85 1980.25 542.85ZM1073.49 518.14C1068.42 515.83 1063.44 510.2 1061.89 505.02C1060.33 499.81 1061.79 494.66 1066.5 488.79C1068.39 486.43 1070.65 483.24 1071.52 481.7C1073.06 478.98 1072.99 478.74 1069.08 472.89C1064.54 466.08 1063.56 462.34 1064.23 454.29C1064.63 449.41 1065.16 448.24 1068.27 445.4C1072.77 441.26 1078.78 439.6 1086.34 440.38C1094.96 441.28 1100.75 444.15 1102.53 448.43C1105.52 455.58 1103.68 462.34 1096.75 469.67L1091.68 475.03L1094.8 478.77C1104.88 490.83 1107.56 496.96 1105.79 503.94C1104.49 509.07 1098.69 515.78 1093.56 518.11C1088.23 520.54 1078.8 520.54 1073.49 518.14ZM1092.06 513.97C1094.5 512.66 1097 507.87 1097 504.5C1097 500.44 1094.62 496.79 1087.94 490.61C1083.21 486.23 1081.16 484.96 1079.18 485.19C1075.92 485.58 1073.37 489.81 1071.86 497.34C1070.91 502.08 1070.99 503.68 1072.36 507.26C1073.27 509.67 1075.19 512.27 1076.74 513.24C1079.85 515.16 1089.01 515.6 1092.06 513.97ZM1979.44 512.62C1978.36 508.29 1979.31 504.5 1981.48 504.5C1984.18 504.5 1985.75 509.07 1984.2 512.46C1982.74 515.66 1980.22 515.74 1979.44 512.62ZM1979.46 484.69C1978.33 480.19 1979.3 476.53 1981.71 476.19C1984.4 475.8 1985.8 479.84 1984.37 483.88C1983.14 487.38 1980.25 487.86 1979.46 484.69ZM1092.48 465.03C1093.34 463.38 1094 459.51 1094 456.16C1094 447.85 1092.39 446.12 1083.88 445.34C1078 444.8 1077.03 444.97 1075.13 446.87C1072.54 449.46 1072.29 455.36 1074.54 460.75C1076.51 465.47 1078.76 467.96 1082.48 469.54C1086.26 471.15 1090.25 469.35 1092.48 465.03ZM1980.14 457.67C1978.2 455.33 1979.07 448.6 1981.38 448.16C1985.08 447.46 1986.27 453.21 1983.21 456.99C1981.62 458.95 1981.27 459.03 1980.14 457.67ZM1140.89 100.25C1140.24 98.58 1140.16 96.52 1140.68 95C1141.41 92.88 1142.32 92.42 1146.71 91.98C1152.51 91.39 1156.02 88.82 1158.96 83C1161.8 77.38 1162.06 73.31 1160.51 59C1158.65 41.85 1157.76 38.86 1153.21 34.49L1149.5 30.93L1151.82 29C1153.1 27.93 1155.69 26.77 1157.58 26.42C1164.01 25.21 1166.36 29.31 1168.47 45.45C1169.31 51.86 1170 59.3 1170 61.99C1170 64.68 1170.39 67.13 1170.88 67.42C1171.8 68 1185.27 48.23 1186.83 44C1187.5 42.17 1187.24 40.2 1185.87 36.7C1183.44 30.49 1184.18 27 1187.95 27C1191.62 27 1194 29.87 1194 34.28C1194 43.18 1171.55 77.34 1153.92 95.25C1145.53 103.78 1142.68 104.88 1140.89 100.25Z" fill="#1e2749" fill-rule="evenodd"/>
</svg>
