<?xml version="1.0" encoding="UTF-8"?>
<svg xmlns="http://www.w3.org/2000/svg" viewBox="0 0 2430 3273" width="2430" height="3273" shape-rendering="geometricPrecision">
<path d="M715.65 3151.52C715.29 3150.6 715 3087.77 715 3011.92L715 2874L761.75 2874.01C787.46 2874.02 815.02 2874.48 823 2875.04C867.02 2878.15 887.47 2885.31 900.15 2902.03C913.23 2919.27 918.57 2945.27 912.54 2962.35C909.43 2971.16 905.52 2977.55 895.28 2990.52C890.73 2996.29 887 3001.64 887 3002.42C887 3003.19 892.15 3007.9 898.44 3012.87C904.73 3017.83 911.77 3024.29 914.09 3027.2C918.93 3033.27 924.12 3043.98 926.12 3052C928.1 3059.95 927.81 3078.84 925.57 3087.5C917.96 3116.98 895.8 3139.09 866.4 3146.55C847.31 3151.39 834.8 3152.22 773.4 3152.74C720.49 3153.18 716.25 3153.09 715.65 3151.52ZM973.3 3066.25C973.77 2985.65 974.52 2961.55 976.83 2952.57C978.02 2947.96 981.79 2945.8 988.77 2945.74C997.94 2945.65 1002.58 2948.82 1007.47 2958.48C1008.59 2960.69 1010.18 2962.62 1011.01 2962.78C1011.85 2962.93 1016.96 2960.38 1022.38 2957.12C1035.49 2949.23 1045.94 2945.76 1056.7 2945.73C1069.32 2945.69 1073.02 2949.44 1072.98 2962.22C1072.93 2975.45 1068.1 2980.45 1047.5 2988.54C1039.8 2991.57 1031.34 2995.63 1028.7 2997.57C1013.48 3008.73 1009.06 3031.06 1009.01 3097C1008.98 3127.37 1007.95 3141.19 1005.3 3146.78C1002.88 3151.88 999.22 3153 984.93 3153L972.8 3153L973.3 3066.25ZM829.5 3115.98C850.14 3114.06 857.08 3110.84 870.31 3097.03C884.77 3081.94 889.45 3069.88 885.47 3057.92C881.06 3044.64 862.39 3033.75 835.18 3028.59C816.32 3025.02 770.13 3024.04 759.83 3027C756.44 3027.97 756.07 3028.46 755.02 3033.28C752.66 3044.12 752.01 3055.41 752.01 3085.75L752 3117L785.25 3117C803.54 3117 823.45 3116.54 829.5 3115.98ZM840.78 2985.64C844.24 2984.74 848.92 2983.06 851.2 2981.9C856.98 2978.95 864.31 2971.1 867.67 2964.27C870.14 2959.23 870.5 2957.37 870.49 2949.5C870.48 2939.03 868.81 2934.92 861.28 2926.87C850.67 2915.53 828.5 2910.6 788 2910.6C770.03 2910.6 765.64 2910.89 761.26 2912.38C758.38 2913.35 755.76 2914.58 755.43 2915.11C753.39 2918.42 752.03 2936.76 752.02 2961.34L752 2988.19L793.25 2987.73C827.07 2987.35 835.63 2986.98 840.78 2985.64ZM839.32 2801.99C830.77 2798.55 830.05 2782.14 829.98 2589C829.95 2506.78 829.66 2436.7 829.33 2433.28L828.73 2427.05L764.11 2389.84C728.58 2369.37 688.02 2346.03 674 2337.97C659.98 2329.91 627.58 2311.26 602 2296.52C576.42 2281.78 525.8 2252.62 489.5 2231.73C453.2 2210.83 416.07 2189.44 407 2184.2C397.93 2178.96 381.73 2169.63 371 2163.47C360.27 2157.31 339.8 2145.53 325.5 2137.29C311.2 2129.05 273.85 2107.56 242.5 2089.53C211.15 2071.5 184.97 2056.25 184.32 2055.63C183.11 2054.48 182.04 1893.82 180.36 1462.92L179.68 1290.33L194.09 1281.97C202.02 1277.38 222.68 1265.46 240 1255.49C257.32 1245.52 305.7 1217.64 347.5 1193.52C389.3 1169.4 435.2 1142.94 449.5 1134.7C463.8 1126.47 552 1075.61 645.5 1021.69C739 967.76 817.37 922.58 819.65 921.29C821.94 919.99 824.3 918.35 824.89 917.63C826.19 916.06 826.67 889.84 828.05 745C829.6 583.16 831.01 551.99 837.11 545.89C839.01 543.99 845.94 543.27 849.46 544.62C853.94 546.34 856.47 559.28 857.95 588.11C859.09 610.2 860.58 713.66 861.5 834.5C861.82 876.3 862.3 912.3 862.57 914.5C862.93 917.52 863.72 918.88 865.78 920.07C867.27 920.94 881.33 929.23 897 938.5C912.67 947.77 929.1 957.45 933.5 960.03C937.9 962.6 961.98 976.75 987 991.48C1029.25 1016.35 1104.62 1060.39 1165 1095.47C1179.03 1103.62 1202.65 1117.37 1217.5 1126.01C1232.35 1134.66 1259.8 1150.63 1278.5 1161.51C1421.28 1244.57 1468.7 1272.71 1488.75 1286.29L1502 1295.26L1502 1668.32L1502 2041.38L1605.77 2145.44C1725.03 2265.02 1743.51 2284.56 1751.43 2299.47C1754.84 2305.88 1754.75 2309.41 1751.08 2313.08C1747.27 2316.88 1744.65 2316.76 1737.5 2312.46C1721.51 2302.83 1705.8 2287.89 1586.95 2169.31C1529.45 2111.94 1481.86 2065 1481.18 2065C1480.51 2065 1454.43 2079.69 1423.23 2097.64C1392.03 2115.6 1357.5 2135.46 1346.5 2141.78C1204.79 2223.23 1135.85 2263.71 1078.5 2299.18C1069.15 2304.96 1048.9 2317.12 1033.5 2326.2C1008.95 2340.67 983.11 2355.62 882.5 2413.54L859.5 2426.79L858.87 2595.14C858.19 2778.32 857.9 2787.56 852.5 2797.99C850.39 2802.09 844.21 2803.96 839.32 2801.99ZM1912.73 2579.49C1878.42 2573.72 1849.82 2553.2 1830.84 2520.74C1811.43 2487.52 1804.42 2437.19 1813.02 2392.64C1822.42 2343.9 1851.23 2311.1 1898.32 2295.53C1912.16 2290.96 1924.78 2289 1940.5 2289C1968.31 2289 1991.57 2296.25 2011.2 2311.04C2029.82 2325.06 2051 2355.85 2051.18 2369.17C2051.29 2376.78 2044.49 2380.92 2031.8 2380.98C2018.76 2381.03 2010.42 2376.92 2007.92 2369.2C2007.27 2367.17 2005.64 2363.32 2004.3 2360.66C1990.41 2332.95 1936.84 2320.63 1900.83 2336.87C1879.83 2346.33 1864.87 2369.05 1856.94 2403.5C1853.92 2416.65 1853.17 2443.75 1855.43 2458.5C1862.49 2504.49 1880.05 2526.56 1919.5 2539C1929.24 2542.07 1947.08 2542.86 1956 2540.61C1970.54 2536.96 1984.67 2527.52 1993.91 2515.3C1996.73 2511.56 2002.24 2502.2 2006.15 2494.5C2015.2 2476.7 2018.77 2471.77 2024.73 2468.89C2030.86 2465.92 2040.94 2465.82 2044.78 2468.69C2049.82 2472.45 2051.42 2475.66 2051.82 2482.87C2052.8 2500.24 2040.29 2525.45 2020.56 2545.85C2006.07 2560.83 1992.14 2568.89 1969.26 2575.55C1951.18 2580.81 1929.57 2582.32 1912.73 2579.49ZM2102 2434.42L2102 2294.8L2119.25 2295.18C2139.47 2295.63 2141.75 2296.4 2151.05 2306.05C2161.97 2317.39 2172.95 2334.28 2236 2436.73C2257.72 2472.03 2275.82 2500.58 2276.23 2500.17C2276.63 2499.77 2277.43 2477.17 2277.99 2449.97C2280.51 2328.16 2280.98 2304.21 2280.99 2299.75L2281 2295L2302.5 2295L2324.01 2295L2323.75 2434.25L2323.5 2573.5L2305.5 2573.49C2284.12 2573.49 2282.93 2573.1 2273 2563.02C2262.19 2552.06 2257.42 2544.91 2191.61 2441C2180.93 2424.14 2148.63 2375.45 2145.61 2371.65C2142.42 2367.65 2141.75 2370.45 2139.9 2395.5C2139.29 2403.75 2138.5 2447.18 2138.14 2492L2137.5 2573.5L2119.75 2573.77L2102 2574.05L2102 2434.42ZM878.15 2382.37C896.49 2371.57 942.33 2344.64 980 2322.52C1041.26 2286.55 1069.13 2270.29 1177 2207.55C1213.05 2186.58 1300.9 2135.75 1394.5 2081.7L1464.5 2041.28L1465.23 1887.89C1465.63 1803.52 1465.85 1637.8 1465.73 1519.62L1465.5 1304.74L1420 1278.25C1361.03 1243.93 1116.34 1101.22 1086.5 1083.76C1073.85 1076.35 1039.88 1056.44 1011 1039.51C908.53 979.41 857.4 950.82 844.08 946.18C841.22 945.18 840.16 945.39 834.95 948.03C817.2 956.98 701.04 1022.73 623 1067.98C612.83 1073.88 596.85 1083.12 587.5 1088.51C578.15 1093.9 566.9 1100.41 562.5 1102.99C558.1 1105.57 548.2 1111.31 540.5 1115.74C526.89 1123.59 389.89 1203.08 327.5 1239.33C310.45 1249.24 288.08 1262.21 277.79 1268.17C248.66 1285.03 214.62 1304.85 213.32 1305.71C212.42 1306.31 211.99 1336.51 211.56 1430C211.25 1497.92 210.77 1579.6 210.5 1611.5C210.23 1643.4 209.77 1741.28 209.49 1829C209.2 1916.72 208.72 1999.12 208.42 2012.09L207.86 2035.69L226.18 2046.17C236.26 2051.93 269.7 2071.19 300.5 2088.97C331.3 2106.75 375.62 2132.32 399 2145.79C422.38 2159.27 447.12 2173.54 454 2177.51C460.88 2181.48 501.82 2205.08 545 2229.96C588.17 2254.84 629.12 2278.47 636 2282.47C642.88 2286.47 660.88 2296.85 676 2305.54C691.12 2314.23 707.33 2323.56 712 2326.27C716.67 2328.98 731.75 2337.68 745.5 2345.59C759.25 2353.51 786.7 2369.39 806.5 2380.89C826.3 2392.4 843.02 2401.85 843.65 2401.9C844.29 2401.96 859.81 2393.17 878.15 2382.37ZM848.84 2308.42C845.12 2306.48 842 2300.99 842 2296.42C842 2292.99 842.73 2291.87 848.75 2286C860.2 2274.85 863.83 2272.6 996 2194.79C1053.47 2160.95 1129.75 2116.03 1165.5 2094.97C1282.85 2025.83 1305.61 2012.84 1337.05 1997.11C1359.98 1985.63 1369.12 1982 1375.11 1982C1378.28 1982 1379.43 1982.68 1382.92 1986.64C1387.58 1991.94 1387.92 1993.8 1384.75 1996.73C1377.51 2003.4 1325.58 2034.81 1245 2081.26C1156.19 2132.46 1111.81 2158.74 1093.5 2170.99C1063.35 2191.16 949.97 2257.22 884.19 2292.95C852.41 2310.21 852.32 2310.25 848.84 2308.42ZM296.23 1987.33C291.58 1985.46 289.32 1969.34 288.01 1928.64C286.75 1889.7 286.74 1454.53 288 1417C289.32 1377.55 290.88 1364.26 294.61 1360.53C295.57 1359.58 297.97 1359 301 1359C312.8 1359 313.56 1365.38 315.11 1477.5C316.37 1568.68 315.59 1906.94 314.04 1939.12C312.37 1973.87 310.79 1982.93 305.79 1986.43C303.64 1987.94 298.86 1988.39 296.23 1987.33ZM1352.5 1356.41C1285.56 1320.74 1106.45 1216.93 1080 1198.46C1067.48 1189.72 1026.93 1165.64 958 1126.02C889.38 1086.57 869.88 1074.78 856.79 1064.83C844.34 1055.37 841.23 1049.76 844.71 1043.05C850.62 1031.66 867.09 1039.08 974.8 1101.68C1030.49 1134.05 1067.71 1156.4 1086 1168.47C1105.95 1181.64 1132.18 1197.36 1179.5 1224.49C1247.41 1263.43 1264.12 1273.07 1288.5 1287.31C1359.86 1329 1383 1345.03 1383 1352.78C1383 1357.67 1375.95 1366 1371.82 1366C1371.09 1366 1362.4 1361.68 1352.5 1356.41ZM812 470.95C776.59 464.61 742.12 443.28 724.82 417C714.69 401.62 709.64 388.92 705.35 368.09C703.17 357.47 702.69 351.96 702.26 332.91C701.72 308.93 702.63 296.54 706.11 280.32C717.38 227.84 750.85 195.3 805.23 184C883.72 167.68 950.9 212.77 966.89 292.5C974.27 329.27 970.6 363.58 955.96 394.83C942.93 422.62 918.17 447.78 890.74 461.07C868.13 472.04 838.69 475.73 812 470.95ZM1008.61 464.42C1007.72 462.11 1007.86 187.19 1008.75 186.71C1009.16 186.49 1019.06 186.52 1030.75 186.78L1052 187.25L1052 244.13L1052 301.01L1115.75 300.76L1179.5 300.5L1179.76 243.75L1180.02 187L1201.51 187L1223.01 187L1222.75 326.25L1222.5 465.5L1201.5 465.5L1180.5 465.5L1180.24 401.25L1179.99 337L1115.99 337L1052 337L1052 400.3C1052 448.2 1051.71 463.89 1050.8 464.8C1049.95 465.65 1043.78 466 1029.41 466C1011.92 466 1009.13 465.79 1008.61 464.42ZM859 430.12C875.09 424.66 887.96 415.85 899.31 402.52C924.14 373.36 933.34 329.13 922.43 291.32C909.44 246.28 872.91 216.85 833.06 219.32C820.74 220.09 813.82 221.98 801.5 227.97C774.67 241.01 756.28 265.05 747.24 298.91C744.92 307.61 744.68 310.36 744.6 328.5C744.53 347.57 744.66 348.99 747.4 359C755.86 389.89 773.32 412.65 798 424.97C812.67 432.3 820.27 433.99 837 433.62C848.03 433.38 850.62 432.97 859 430.12Z" fill="#1e2749" fill-rule="evenodd"/>
</svg>
