<?xml version="1.0" encoding="UTF-8"?>
<svg xmlns="http://www.w3.org/2000/svg" viewBox="0 0 325 139" width="325" height="139" shape-rendering="geometricPrecision">
<path d="M17.45 75.44C17.06 75.36 16.14 74.74 15.41 74.06C14.36 73.08 14.04 72.51 13.86 71.25C13.34 67.69 14.7 64.49 17.42 62.9C18.7 62.15 19.22 62.03 20.81 62.15C22.8 62.31 24.02 63 25.06 64.59C25.48 65.23 25.54 65.59 25.28 65.9C24.75 66.54 24.31 66.44 23.28 65.44C22.57 64.77 21.92 64.52 20.57 64.41C18.84 64.27 18.76 64.3 17.23 65.79C15.68 67.29 15.67 67.33 15.67 69.48C15.67 71.6 15.69 71.66 16.91 72.49C18.57 73.61 19.91 73.57 21.61 72.33C23.04 71.3 24.67 71 24.67 71.77C24.67 72.32 22.88 74.01 21.29 74.95C20.16 75.63 19.1 75.76 17.45 75.44ZM130.83 75.37C129.38 75 128.48 74.45 127.69 73.46C126.15 71.5 127.57 70.45 129.28 72.28C130.49 73.57 132.32 73.89 133.94 73.1C134.82 72.67 135.2 72.25 135.27 71.63C135.39 70.56 134.43 69.86 132.39 69.54C127.51 68.78 125.64 64.76 129.25 62.81C131.09 61.82 133.61 61.96 135.16 63.14C136.53 64.18 137.1 65.28 136.59 65.92C136.06 66.58 135.35 66.4 134.95 65.52C133.91 63.25 128.86 63.73 129.44 66.04C129.64 66.85 130.87 67.38 134.38 68.19C135.66 68.48 137.33 70.24 137.33 71.29C137.32 73.87 133.76 76.1 130.83 75.37ZM13.01 56.23C10.96 55.19 10.5 52.82 12.21 52.04C14.05 51.2 15.14 51.81 14.56 53.35C14.09 54.6 14.43 54.9 15.52 54.18C16.76 53.37 17.63 51.17 18.38 46.9C19.21 42.17 19.14 41.32 17.82 40.67C16.14 39.84 15.44 39.22 14.62 37.83C13.94 36.67 13.83 36.07 13.83 33.17C13.83 30.26 13.94 29.65 14.63 28.44C15.49 26.94 17.96 25.33 19.41 25.33C20.42 25.33 21.33 24.38 21.33 23.33C21.33 22.18 21.98 18.83 22.69 16.33C23.79 12.44 25.44 10.66 28.42 10.14C29.43 9.97 29.91 10.08 30.84 10.71C31.48 11.15 32.08 11.76 32.19 12.07C32.47 12.96 31.73 14.01 30.43 14.55C29.36 15 29.18 14.99 28.7 14.51C28.21 14.02 28.21 13.9 28.73 12.99C29.29 12.01 29.29 12 28.54 12C27.03 12 26.2 13.54 25.36 17.9C24.56 22.06 24.28 24.72 24.6 25.24C24.74 25.46 25.38 25.86 26.01 26.12C28.52 27.17 29.67 29.39 29.67 33.17C29.67 34.55 29.46 36.17 29.22 36.76C28.23 39.12 26.27 40.68 23.51 41.3C22.43 41.54 22.33 41.79 21.65 46.17C20.94 50.73 18.92 54.69 16.72 55.79C15.33 56.49 13.87 56.66 13.01 56.23ZM124.86 55.64C122.98 54 123.4 52.16 125.75 51.78C127.21 51.54 127.69 52.21 126.99 53.52C126.41 54.6 126.78 54.89 127.84 54.19C130.02 52.76 130.69 50.11 132.18 37C133.44 25.92 133.66 24.03 133.99 21.83C134.91 15.75 136.43 12.15 138.63 10.87C140.31 9.9 142.71 9.95 143.81 10.97C145.21 12.29 144.82 13.98 142.96 14.63C142.18 14.9 141.78 14.9 141.45 14.63C140.92 14.19 140.85 13.13 141.33 12.83C141.9 12.48 141.7 12 140.98 12C140.61 12 139.95 12.38 139.52 12.85C138.14 14.33 137.49 18.14 135.49 36.33C135.22 38.81 134.85 41.88 134.67 43.17C133.48 51.69 131.22 55.75 127.27 56.47C126.21 56.66 125.89 56.55 124.86 55.64ZM150.83 49L144.17 48.83L144.17 48L144.17 47.17L197 47.08C226.06 47.03 250.17 47.07 250.58 47.17C251.42 47.37 251.57 48.06 250.88 48.62C250.41 49.02 164.39 49.34 150.83 49ZM62.52 44.42C62.16 44.33 61.34 43.92 60.68 43.51C57.11 41.25 57.07 33.91 60.63 31.87C61.91 31.13 64.38 31.01 65.14 31.65C66.19 32.51 66.67 31.83 66.67 29.49L66.67 27.29L67.75 27.4L68.83 27.5L68.83 35.63C68.83 42.89 68.77 43.8 68.27 44.11C67.86 44.37 67.48 44.35 66.88 44.02C66.17 43.64 65.84 43.66 64.68 44.12C63.93 44.42 63.29 44.65 63.24 44.63C63.2 44.61 62.87 44.52 62.52 44.42ZM269.52 44.42C269.16 44.33 268.34 43.92 267.68 43.51C264.11 41.25 264.07 33.91 267.63 31.87C268.91 31.13 271.38 31.01 272.14 31.65C273.19 32.51 273.67 31.83 273.67 29.49L273.67 27.29L274.75 27.4L275.83 27.5L275.83 35.63C275.83 42.89 275.77 43.8 275.27 44.11C274.86 44.37 274.48 44.35 273.88 44.02C273.17 43.64 272.84 43.66 271.68 44.12C270.93 44.42 270.29 44.65 270.24 44.63C270.2 44.61 269.87 44.52 269.52 44.42ZM291.16 44.36C289.11 43.87 287.67 42.49 287.67 41.02C287.67 40 288.87 40.15 290.22 41.33C291.62 42.56 293.62 42.71 294.67 41.67C296.13 40.21 295.42 39.55 291.13 38.38C288.41 37.63 287.35 36.02 288.01 33.62C288.88 30.47 295.53 30.41 296.96 33.54C297.26 34.2 297.26 34.52 296.97 34.87C296.38 35.59 295.69 35.43 294.67 34.33C293.9 33.51 293.47 33.33 292.24 33.33C290.41 33.33 289.73 33.97 290.26 35.15C290.49 35.65 291.03 36.02 291.73 36.17C294.04 36.65 296.19 37.46 296.92 38.11C297.74 38.85 297.95 40.86 297.32 42.03C296.47 43.62 293.22 44.85 291.16 44.36ZM31.51 44.02C31.39 43.82 32.62 41.38 34.25 38.58C35.88 35.79 37.99 32.13 38.94 30.45C40.23 28.19 40.89 27.35 41.51 27.19C43.31 26.74 43.8 27.62 44.65 32.83C45.14 35.82 45.92 40.29 46.27 42.06C46.61 43.8 46.34 44.33 45.12 44.33C44.51 44.33 44.33 44.1 44.16 43.08C43.55 39.34 43.54 39.33 39.56 39.33C36.38 39.33 36.43 39.3 34.83 42.3C33.98 43.89 33.68 44.18 32.78 44.27C32.2 44.32 31.63 44.21 31.51 44.02ZM74.8 43.32C74.42 43.18 73.85 42.53 73.54 41.88C73.01 40.76 73.02 40.6 73.61 38.93C73.95 37.96 74.55 36.65 74.94 36.01C75.6 34.93 75.61 34.82 75.09 34.24C74.6 33.71 74.59 33.58 75.01 33.32C75.28 33.15 75.76 33.01 76.07 33.01C76.38 33 77.08 32.36 77.62 31.58C78.84 29.83 81.1 27.68 82.74 26.69C84.21 25.82 85.22 26 85.69 27.22C86.1 28.32 86.08 28.55 85.6 28.07C85.02 27.49 83.28 27.6 82.49 28.26C81.44 29.15 79.33 32.04 79.33 32.59C79.33 32.94 79.46 32.98 79.75 32.75C79.98 32.57 80.57 32.33 81.07 32.21C81.57 32.09 82.61 31.39 83.38 30.66C84.73 29.37 85.33 29.05 85.33 29.6C85.33 30 81.8 33.33 81.37 33.33C81.17 33.33 80.26 33.66 79.36 34.05C77.85 34.71 77.59 35 76.35 37.41C74.05 41.91 74.83 43.37 78.08 40.63C80.32 38.74 80.58 39.35 78.39 41.37C76.21 43.38 75.69 43.66 74.8 43.32ZM52.65 42.39C51.97 42.17 51.68 41.64 51.67 40.6C51.67 39.42 52.63 38.89 54.08 39.26C55.88 39.72 55.75 42.05 53.89 42.4C53.48 42.48 52.92 42.48 52.65 42.39ZM259.65 42.39C258.97 42.17 258.68 41.64 258.67 40.6C258.67 39.42 259.63 38.89 261.08 39.26C262.88 39.72 262.75 42.05 260.89 42.4C260.48 42.48 259.92 42.48 259.65 42.39ZM65.27 41.5C68.17 39.06 66.84 33.33 63.37 33.33C61.27 33.33 60.33 34.68 60.33 37.72C60.33 41.59 62.86 43.53 65.27 41.5ZM272.27 41.5C274.23 39.85 274.35 35.98 272.49 34.13C271.43 33.06 269.31 33.03 268.35 34.06C266.63 35.91 267.28 41.58 269.28 42.11C270.55 42.45 271.34 42.29 272.27 41.5ZM25.8 37.58C26.99 36.44 27.32 35.86 27.5 34.6C27.84 32.32 27.17 29.87 25.92 28.82C24.16 27.34 23.88 27.7 23.45 32C23.24 34.11 22.96 36.55 22.82 37.42C22.58 38.97 22.6 39 23.45 39C24.02 39 24.83 38.51 25.8 37.58ZM19.3 38.21C19.5 37.96 19.82 36.12 20 34.13C20.18 32.13 20.41 29.86 20.52 29.08C20.7 27.74 20.66 27.67 19.87 27.67C19.41 27.67 18.51 27.98 17.87 28.36C16.94 28.91 16.6 29.41 16.18 30.82C15.54 33.03 15.54 33.46 16.17 35.59C16.48 36.61 17.03 37.57 17.55 37.98C18.58 38.79 18.79 38.82 19.3 38.21ZM42.7 36.76C43 36.46 43.01 35.91 42.72 34.43C42.51 33.37 42.3 32.14 42.25 31.69C42.09 30.17 41.42 30.64 39.88 33.36C38.26 36.22 38.07 36.86 38.75 37.08C39.59 37.36 42.32 37.15 42.7 36.76ZM101.31 36.26C100.53 35.97 100.4 34.34 101.17 34.32C101.44 34.31 104.37 34.3 107.67 34.3C110.97 34.3 113.89 34.31 114.17 34.32C114.9 34.34 114.82 36.02 114.08 36.21C113.09 36.47 102 36.51 101.31 36.26ZM101.31 31.26C100.53 30.97 100.41 29.34 101.17 29.31C101.44 29.3 104.37 29.29 107.67 29.29C110.97 29.29 113.89 29.3 114.17 29.31C114.81 29.34 114.84 30.96 114.2 31.2C113.48 31.48 102.04 31.53 101.31 31.26ZM294.17 28.34C294.06 28.16 294.13 27.72 294.32 27.36C294.54 26.94 294.55 26.63 294.34 26.51C294.17 26.4 292.27 26.33 290.14 26.36C286.22 26.41 285.69 26.26 285.67 25.1C285.66 24.35 286.51 24.19 290.19 24.29C294.05 24.39 295.01 24.09 294.32 22.99C293.35 21.46 295 21.7 297.19 23.41C298.19 24.19 299 24.91 299 25.02C299 25.37 298.17 26.22 296.63 27.44C295.05 28.71 294.52 28.9 294.17 28.34ZM42.17 22.34C42.06 22.16 42.13 21.72 42.32 21.36C42.54 20.94 42.55 20.63 42.34 20.51C42.17 20.4 40.27 20.33 38.14 20.36C34.22 20.41 33.69 20.26 33.67 19.1C33.66 18.35 34.51 18.19 38.1 18.29C42.06 18.4 42.93 18.12 42.3 16.93C41.64 15.7 42.49 15.45 43.9 16.45C47.57 19.06 47.58 19.08 44.79 21.3C43.02 22.71 42.52 22.91 42.17 22.34ZM81.17 22.34C81.06 22.16 81.13 21.72 81.32 21.36C81.54 20.94 81.55 20.63 81.34 20.51C81.17 20.4 79.27 20.33 77.14 20.36C73.22 20.41 72.69 20.26 72.67 19.1C72.66 18.35 73.51 18.19 77.1 18.29C81.06 18.4 81.93 18.12 81.3 16.93C80.64 15.7 81.49 15.45 82.9 16.45C86.57 19.06 86.58 19.08 83.79 21.3C82.02 22.71 81.52 22.91 81.17 22.34Z" fill="#1e2749" fill-rule="evenodd"/>
</svg>
