<?xml version="1.0" encoding="UTF-8"?>
<svg xmlns="http://www.w3.org/2000/svg" viewBox="0 0 517 350" width="517" height="350" shape-rendering="geometricPrecision">
<path d="M355.07 313.6C354.76 313.29 354.67 297.82 354.67 245.97C354.67 184.97 354.62 178.72 354.14 178.54C353.85 178.42 311.1 178.33 259.14 178.33L164.67 178.33L164.67 180.29C164.67 181.65 164.51 182.38 164.15 182.68C163.38 183.32 163.05 182.73 162.93 180.5L162.83 178.5L155.5 178.5L148.17 178.5L148 181.07C147.83 183.7 147.43 184.57 146.54 184.23C146.15 184.08 146 183.37 145.93 181.27L145.83 178.5L121.92 178.41L98 178.33L98 217C98 253.6 98.03 255.67 98.58 255.67C98.9 255.67 111.64 255.67 126.89 255.67C145.23 255.66 154.91 255.78 155.51 256C156.39 256.34 156.4 256.37 155.83 257.01C155.24 257.65 154.68 257.67 126.62 257.67L98 257.67L98 279.6C98 302.72 97.97 303.11 96.55 302.56C96.04 302.37 96 297.5 95.92 240.43L95.83 178.5L67.08 178.41L38.33 178.33L38.33 177.33L38.33 176.33L66.77 176.33C88.44 176.33 95.3 176.24 95.6 175.93C95.91 175.62 96 160.14 96 108.26C96 46.13 96.04 40.96 96.55 40.77C97.93 40.24 98 41.03 98 56.73C98 64.95 98.07 71.67 98.17 71.67C98.26 71.67 99.28 71.22 100.45 70.67C102.69 69.61 103.98 69.4 104.04 70.08C104.05 70.31 104.09 70.8 104.12 71.17C104.17 71.83 104.44 71.83 125.98 71.92C140.59 71.98 147.91 71.89 148.14 71.66C148.33 71.47 148.49 70.99 148.49 70.58C148.51 69.4 149.48 69.51 152.42 71.02C153.93 71.79 155.23 72.48 155.31 72.55C155.79 72.98 149.5 76.47 148.76 76.19C148.53 76.09 148.33 75.57 148.33 75.02C148.33 74.25 148.15 73.97 147.58 73.83C147.17 73.73 137.31 73.69 125.67 73.74L104.5 73.83L104.4 74.55C104.34 74.94 104.02 75.51 103.68 75.82C103.11 76.34 102.93 76.3 100.75 75.19C99.47 74.53 98.33 74 98.21 74C98.1 74 98 76.62 98 79.83C98 85.17 98.05 85.67 98.58 85.67C98.9 85.67 111.64 85.67 126.89 85.67C145.23 85.66 154.91 85.78 155.51 86C156.39 86.34 156.4 86.37 155.83 87.01C155.24 87.65 154.68 87.67 126.61 87.67L98 87.67L98.08 131.92L98.17 176.17L108.81 176.25C118.77 176.34 119.49 176.3 120.14 175.72C120.52 175.38 124.81 173.41 129.67 171.34C134.52 169.27 139.28 167.22 140.23 166.79C141.18 166.35 142.03 166 142.12 166C142.21 166 143.31 165.54 144.56 164.98C147.58 163.62 147.89 163.49 149.83 162.67C150.75 162.28 151.8 161.83 152.17 161.67C152.53 161.5 153.58 161.05 154.5 160.66C155.42 160.28 156.62 159.75 157.17 159.5C157.72 159.25 158.77 158.8 159.5 158.5C160.23 158.2 161.32 157.73 161.91 157.47C163.28 156.85 164.8 156.2 166.5 155.5C167.23 155.2 168.32 154.73 168.91 154.47C169.5 154.2 170.52 153.76 171.16 153.48C152.31 161.56 187.6 146.43 175.82 151.48C178.64 150.28 179.53 149.89 180.01 149.66C180.29 149.53 191.47 144.73 204.84 139C227.28 129.39 230.93 127.81 233.88 126.48C234.46 126.21 235.01 126 235.11 126C235.21 126 236.31 125.54 237.56 124.98C240.58 123.62 240.89 123.49 242.83 122.67C243.75 122.28 244.8 121.83 245.17 121.67C245.53 121.5 246.58 121.05 247.5 120.67C248.42 120.28 249.47 119.83 249.83 119.67C250.2 119.5 251.25 119.05 252.17 118.66C253.08 118.28 254.32 117.74 254.91 117.47C256.22 116.88 257.72 116.23 259.5 115.5C260.23 115.2 261.32 114.73 261.91 114.47C262.5 114.2 263.52 113.76 264.16 113.48C264.8 113.21 265.85 112.76 266.49 112.48C267.13 112.21 268.18 111.76 268.82 111.48C271.64 110.28 272.53 109.89 273.01 109.66C273.29 109.53 286.04 104.05 301.34 97.5C327.01 86.5 330.91 84.82 333.88 83.48C334.46 83.21 335.01 83 335.11 83C335.21 83 336.31 82.54 337.56 81.98C340.5 80.66 340.85 80.51 342.83 79.66C345.87 78.37 346.82 77.96 348 77.42C348.64 77.13 349.62 76.7 350.17 76.48C350.72 76.25 351.92 75.72 352.83 75.28L354.5 74.5L354.59 63.4C354.66 53.91 354.75 52.28 355.18 52.12C355.45 52.01 355.9 52.11 356.17 52.34C356.6 52.7 356.68 60.36 356.75 114.46L356.83 176.17L368.93 176.25C379.32 176.33 381.05 176.41 381.22 176.84C381.32 177.12 381.22 177.56 381 177.84C380.65 178.26 378.8 178.33 368.63 178.33L356.67 178.33L356.67 245.52C356.67 291.2 356.56 312.92 356.32 313.36C355.92 314.1 355.63 314.16 355.07 313.6ZM458.89 304.77C458.77 304.65 458.67 304.36 458.67 304.11C458.67 303.61 459.53 303.5 459.81 303.96C460.04 304.33 459.19 305.08 458.89 304.77ZM377.79 303.93C377.9 303.51 377.99 301.1 378 298.58C378 295.14 378.1 294 378.42 294C378.74 294 378.81 295.17 378.73 299.03L378.63 304.07L381.07 303.95C382.48 303.88 383.57 303.97 383.67 304.17C383.77 304.37 382.65 304.54 380.71 304.6C377.59 304.69 377.58 304.69 377.79 303.93ZM386.33 304.37C386.33 303.95 387.31 303.2 387.55 303.44C387.89 303.78 387.38 304.67 386.84 304.67C386.56 304.67 386.33 304.54 386.33 304.37ZM391.83 304.33C391.47 303.75 392.01 303.26 392.53 303.69C392.79 303.91 393 304.21 393 304.37C393 304.78 392.09 304.74 391.83 304.33ZM397 304.2C397 303.89 397.23 303.79 397.67 303.9C398.7 304.17 398.81 304.67 397.85 304.67C397.34 304.67 397 304.48 397 304.2ZM401.78 303.67C401.9 303.07 402 301.52 402 300.22C402 298.59 402.11 297.97 402.35 298.21C402.89 298.76 402.61 304.41 402.03 304.6C401.67 304.72 401.61 304.52 401.78 303.67ZM406.83 300.83C406.83 297.65 406.92 297 407.33 297C407.75 297 407.82 297.56 407.73 300.42C407.63 303.98 407.53 304.67 407.09 304.67C406.95 304.67 406.83 302.94 406.83 300.83ZM412.88 302.73C413.04 301.23 412.95 300.47 412.54 299.65C412.24 299.05 412 298.36 412 298.12C412 297.84 411.62 297.67 411 297.67C410.45 297.67 410 297.52 410 297.33C410 297.15 410.61 297 411.35 297C412.1 297 412.62 297.14 412.52 297.3C412.23 297.77 412.68 298.67 413.22 298.67C413.6 298.67 413.67 299.23 413.6 301.56C413.53 303.49 413.36 304.49 413.09 304.58C412.77 304.69 412.72 304.24 412.88 302.73ZM417.93 301.27L417.83 297.83L416.75 297.73C416.15 297.67 415.67 297.48 415.67 297.31C415.67 296.94 418.22 296.89 418.45 297.26C418.54 297.4 418.65 299.07 418.7 300.98C418.77 303.39 418.68 304.5 418.41 304.59C418.14 304.68 418 303.7 417.93 301.27ZM423 304.25C423 303.95 423.6 303.86 425.21 303.95C427.3 304.05 427.47 304.01 428.2 303.11C429.09 302.03 429.26 300.67 428.5 300.67C428.22 300.67 428 300.44 428 300.17C428 299.84 427.67 299.67 427.02 299.67C426.48 299.67 425.95 299.52 425.83 299.33C425.71 299.14 426.04 299 426.62 299C427.84 299 429.67 300.7 429.67 301.83C429.67 302.34 429.21 302.97 428.37 303.64C427.24 304.53 426.81 304.67 425.04 304.67C423.63 304.67 423 304.54 423 304.25ZM433 300.83C433 297.99 433.11 297 433.42 297C433.73 297 433.83 297.99 433.83 300.83C433.83 303.68 433.73 304.67 433.42 304.67C433.11 304.67 433 303.68 433 300.83ZM439.5 304.33C439.38 304.13 439.84 304 440.67 304C441.5 304 441.96 304.13 441.83 304.33C441.72 304.52 441.2 304.67 440.67 304.67C440.14 304.67 439.61 304.52 439.5 304.33ZM444.67 304.19C444.67 303.9 444.48 303.35 444.25 302.98C443.9 302.4 443.92 302.24 444.42 301.96C445.13 301.56 445.16 300.81 444.5 299.55C443.89 298.38 443.87 297.97 444.42 298.08C444.73 298.15 444.82 297.45 444.8 295.42C444.77 293.29 444.87 292.67 445.22 292.67C445.86 292.67 445.72 304.37 445.08 304.58C444.85 304.66 444.67 304.48 444.67 304.19ZM449.92 303.7C449.12 302.93 449 302.55 449 300.84C449 299.16 449.13 298.73 449.9 297.93C450.39 297.42 451.03 297 451.31 297C451.6 297 451.35 297.3 450.75 297.66C449.7 298.3 449.67 298.39 449.67 300.61C449.67 302.99 450.19 304 451.42 304C451.72 304 452.05 304.15 452.17 304.33C452.61 305.06 450.78 304.54 449.92 303.7ZM454 304.33C454 304.15 454.16 304 454.35 304C454.55 304 454.61 304.15 454.5 304.33C454.39 304.52 454.23 304.67 454.15 304.67C454.07 304.67 454 304.52 454 304.33ZM466.86 304.37C466.7 304.11 471.31 303.63 471.62 303.87C471.68 303.92 471.63 304.12 471.51 304.31C471.25 304.74 467.12 304.79 466.86 304.37ZM476.06 303.63C475.11 302.69 475 302.39 475 300.64C475 298.83 475.08 298.64 476.11 297.85C477.74 296.61 480.1 296.66 481.58 297.97C482.54 298.81 482.67 299.12 482.67 300.61C482.67 302.12 482.53 302.43 481.45 303.48C480.41 304.5 480.01 304.67 478.68 304.67C477.39 304.67 476.95 304.49 476.06 303.63ZM486.83 300.83C486.83 298.23 486.95 297 487.21 297C487.69 297 487.65 304.39 487.17 304.55C486.96 304.63 486.83 303.24 486.83 300.83ZM492 301.3C492 298.36 492.07 297.95 492.53 298.13C492.82 298.24 493.23 298.34 493.44 298.34C493.66 298.35 493.55 298.57 493.21 298.83C492.66 299.24 492.6 299.64 492.73 301.99C492.86 304.08 492.79 304.67 492.44 304.67C492.1 304.67 492 303.88 492 301.3ZM498 301.19L498 297.67L496.67 297.67C495.93 297.67 495.33 297.52 495.33 297.33C495.33 296.83 497.65 296.93 498.17 297.46C498.76 298.05 498.95 304.41 498.38 304.6C498.11 304.68 498 303.68 498 301.19ZM480.9 303.42C481.02 303.1 481.32 302.71 481.56 302.57C482.2 302.18 482.15 299.13 481.5 298.88C481.22 298.77 481 298.46 481 298.18C481 297.77 480.57 297.67 478.97 297.67C477.27 297.67 476.84 297.79 476.31 298.42C475.5 299.39 475.38 303 476.17 303C476.44 303 476.67 303.22 476.67 303.5C476.67 304.29 480.61 304.21 480.9 303.42ZM396 302.85C396 302.38 396.15 302 396.33 302C396.52 302 396.67 302.29 396.67 302.65C396.67 303 396.52 303.39 396.33 303.5C396.14 303.62 396 303.34 396 302.85ZM438.42 303.45C438.14 303.34 438 302.53 438 301.07C438 299.14 438.11 298.76 438.9 297.93C439.57 297.23 440.1 297 441.06 297C441.76 297 442.33 297.15 442.33 297.33C442.33 297.52 441.81 297.67 441.17 297.67C439.4 297.67 438.67 298.59 438.67 300.84C438.67 302.17 438.81 302.74 439.16 302.88C439.44 302.98 439.58 303.2 439.48 303.37C439.28 303.69 439.06 303.71 438.42 303.45ZM465.14 302.83C465.02 302.38 464.72 302 464.46 302C463.76 302 463.8 296.48 464.5 296.21C464.77 296.11 465 295.79 465 295.51C465 295.23 465.15 295 465.33 295C465.86 295 465.72 296 465.17 296.21C464.78 296.36 464.67 297 464.67 299.04C464.67 301.15 464.76 301.67 465.17 301.67C465.44 301.67 465.67 301.96 465.67 302.33C465.67 302.78 465.89 303 466.35 303C466.73 303 466.95 303.15 466.83 303.33C466.42 304 465.35 303.68 465.14 302.83ZM388 302.52C388 302.23 388.15 302 388.33 302C388.52 302 388.67 302.14 388.67 302.31C388.67 302.49 388.52 302.72 388.33 302.83C388.15 302.95 388 302.81 388 302.52ZM391 302.35C391 301.98 391.15 301.67 391.33 301.67C391.52 301.67 391.67 301.88 391.67 302.15C391.67 302.41 391.52 302.72 391.33 302.83C391.15 302.95 391 302.73 391 302.35ZM389 301.02C389 300.5 389.21 300.33 389.86 300.33C390.95 300.33 390.85 301.45 389.75 301.61C389.18 301.69 389 301.55 389 301.02ZM454.78 299.96C454.9 299.52 454.99 298.95 455 298.68C455 298.34 455.1 298.3 455.36 298.56C455.84 299.04 455.62 300.41 455.03 300.6C454.68 300.72 454.62 300.55 454.78 299.96ZM388 298.98C388 298.6 388.15 298.39 388.33 298.5C388.52 298.61 388.67 298.92 388.67 299.19C388.67 299.45 388.52 299.67 388.33 299.67C388.15 299.67 388 299.36 388 298.98ZM391 299.19C391 298.9 391.15 298.67 391.33 298.67C391.52 298.67 391.67 298.81 391.67 298.98C391.67 299.15 391.52 299.39 391.33 299.5C391.15 299.61 391 299.47 391 299.19ZM424 298.33C424 298.15 424.38 298 424.85 298C425.34 298 425.62 298.14 425.5 298.33C425.39 298.52 425 298.67 424.65 298.67C424.29 298.67 424 298.52 424 298.33ZM386.89 297.78C386.47 297.36 386.67 297 387.32 297C387.77 297 387.92 297.16 387.79 297.5C387.58 298.03 387.25 298.14 386.89 297.78ZM392 297.5C392 297.22 392.24 297 392.54 297C392.98 297 393.01 297.09 392.67 297.5C392.44 297.77 392.2 298 392.13 298C392.06 298 392 297.77 392 297.5ZM397 297.33C397 297.15 397.34 297 397.75 297.01C398.36 297.01 398.4 297.07 398 297.33C397.35 297.75 397 297.75 397 297.33ZM400.17 297.33C400.05 297.15 400.27 297 400.65 297C401.02 297 401.33 297.15 401.33 297.33C401.33 297.52 401.12 297.67 400.85 297.67C400.59 297.67 400.28 297.52 400.17 297.33ZM423 296.23C423 294.62 423.58 293.84 424.57 294.1C425.09 294.24 425.07 294.29 424.42 294.5C423.81 294.7 423.67 294.99 423.67 296.02C423.67 296.72 423.52 297.39 423.33 297.5C423.13 297.63 423 297.13 423 296.23ZM453.17 297.33C453.05 297.15 453.19 297 453.46 297C453.74 297 454.05 297.15 454.17 297.33C454.28 297.52 454.15 297.67 453.87 297.67C453.6 297.67 453.28 297.52 453.17 297.33ZM489.67 297.33C489.67 297.15 490.19 297 490.83 297C491.47 297 492 297.15 492 297.33C492 297.52 491.47 297.67 490.83 297.67C490.19 297.67 489.67 297.52 489.67 297.33ZM466 294.33C466 294.15 466.46 294 467.02 294C467.61 294 467.95 294.14 467.83 294.33C467.72 294.52 467.26 294.67 466.81 294.67C466.37 294.67 466 294.52 466 294.33ZM471 294C471 293.82 471.15 293.67 471.33 293.67C471.52 293.67 471.67 293.82 471.67 294C471.67 294.18 471.52 294.33 471.33 294.33C471.15 294.33 471 294.18 471 294ZM433 293.47C433 293.21 433.3 293 433.67 293C434.03 293 434.33 293.13 434.33 293.29C434.33 293.46 434.03 293.67 433.67 293.76C433.23 293.88 433 293.77 433 293.47ZM82.73 274.27C82 273.53 82.32 272.9 84.67 270.48C87.02 268.05 87.49 266.96 86.6 266.07C86.08 265.55 84.84 265.56 83.99 266.08C83.43 266.43 83.26 266.41 82.99 266C82.56 265.31 82.58 265.13 83.23 264.49C83.66 264.05 84.22 263.96 85.78 264.07C87.49 264.2 87.88 264.35 88.55 265.19C88.98 265.73 89.33 266.51 89.33 266.92C89.33 267.88 88.09 269.83 86.54 271.32C85.87 271.95 85.33 272.58 85.33 272.73C85.33 272.88 86.22 273 87.31 273C89.44 273 90.16 273.48 89.15 274.22C88.36 274.8 83.3 274.84 82.73 274.27ZM164.85 261.69C164.06 260.86 163.89 260.35 163.75 258.38C163.42 253.81 164.39 252 167.18 252C170.03 252 171.39 254.48 170.88 258.76C170.47 262.29 167.03 263.96 164.85 261.69ZM168.31 260.12C168.83 259.46 169 258.76 169 257.28C169 254.98 168.32 253.67 167.14 253.67C166.05 253.67 165.67 254.59 165.67 257.24C165.67 260.68 166.85 261.97 168.31 260.12ZM70.7 260.36C70.45 260.2 70.33 259.83 70.44 259.53C70.61 259.1 71.21 259 73.74 259.01C77.21 259.01 78.25 259.36 77.19 260.17C76.46 260.73 71.51 260.87 70.7 260.36ZM80.22 260.44C80.1 260.32 80 259.95 80 259.61C80 259.04 80.39 259 85.75 259.01C91.74 259.01 92.8 259.2 92.02 260.14C91.66 260.58 90.68 260.67 86.01 260.67C82.95 260.67 80.34 260.57 80.22 260.44ZM82.33 254C81.48 253.15 81.44 250.63 82.25 249.01C83.01 247.5 84.85 246.27 86.17 246.38C87.49 246.5 87.87 246.23 88.12 244.98C88.3 244.1 88.45 243.97 89.25 244.06C90.3 244.18 90.3 244.17 89.51 247.67C89.2 249.04 88.77 250.99 88.56 251.99C88.09 254.16 87.39 254.65 84.75 254.66C83.44 254.67 82.83 254.5 82.33 254ZM86.31 251.88C87.12 250.56 87.23 248.73 86.5 248.45C85.63 248.12 84.46 248.62 84.06 249.51C83.63 250.44 83.53 252.42 83.89 252.78C84.48 253.37 85.65 252.94 86.31 251.88ZM145 252.13C145 251.64 145.45 250.51 146 249.62C146.55 248.72 147 247.86 147 247.7C147 247.54 147.23 247.22 147.51 246.99C147.94 246.63 148.2 246.69 149.02 247.3L150.01 248.03L153.76 245.46C155.82 244.04 158.05 242.46 158.71 241.94C159.97 240.97 161.45 240.71 161.87 241.39C162.16 241.86 161.43 242.45 155.71 246.36C151.4 249.31 151.2 249.56 151.7 251.31C151.9 252.04 150.45 252.56 147.58 252.81L145 253.03L145 252.13ZM236.23 242.77C235.98 241.88 235.94 235.38 236.18 234.64C236.31 234.22 236.68 234 237.25 234C237.73 234 238.61 233.82 239.21 233.6C240.1 233.28 240.48 233.3 241.21 233.69C243.01 234.65 243.87 237.32 242.96 239.11C242.14 240.71 240.91 241.67 239.68 241.67C238.77 241.67 238.42 241.84 238.16 242.42C237.74 243.37 236.45 243.6 236.23 242.77ZM164.75 241.45C164.44 241.32 164.33 239.97 164.33 236.32L164.33 231.36L165.53 231.14C167.21 230.82 169.38 231.19 170.81 232.03C172.11 232.8 173.33 234.78 173.33 236.11C173.33 237.94 171.71 240.29 169.77 241.29C169.05 241.66 165.55 241.77 164.75 241.45ZM176.07 241.15C172.94 238.95 174.4 233.33 178.1 233.33C179.21 233.33 181.1 234.68 181.47 235.73C181.7 236.4 181.64 236.83 181.21 237.47C180.71 238.24 180.43 238.33 178.66 238.33C177.19 238.33 176.67 238.45 176.67 238.79C176.67 239.71 177.62 240.1 179.36 239.89C180.71 239.73 181.07 239.8 181.24 240.23C181.36 240.55 181.19 240.94 180.82 241.21C179.98 241.84 176.99 241.79 176.07 241.15ZM192.05 240.83C190.14 239.22 190.36 235.25 192.43 233.99C193.02 233.63 193.88 233.34 194.33 233.34C195.44 233.34 197.36 234.53 197.57 235.35C197.8 236.23 197.95 236.18 199.17 234.85C200.52 233.38 201.73 233.08 203.58 233.74C204.96 234.24 205.04 234.23 205.51 233.55C205.78 233.17 206 232.59 206 232.26C206 231.27 207.26 231.55 207.83 232.67C208.13 233.23 208.62 233.67 208.97 233.67C209.31 233.67 209.76 233.87 209.96 234.12C210.42 234.68 209.94 235.17 208.6 235.5C207.74 235.72 207.71 235.8 207.88 237.45C208.12 239.76 208.21 240 208.91 240.01C209.23 240.01 209.72 240.15 209.98 240.31C210.79 240.83 209.77 241.67 208.33 241.67C206.61 241.67 206.2 241.02 206 238.03L205.83 235.5L203.63 235.45C202.42 235.42 201.22 235.53 200.97 235.69C200.34 236.07 200.36 238.73 200.99 239.48C201.37 239.94 201.78 240.03 202.87 239.88C203.85 239.75 204.38 239.83 204.65 240.15C205.65 241.35 201.62 242.23 200.07 241.14C199.66 240.86 199.03 240.05 198.68 239.35L198.03 238.09L195.6 238.25C194.26 238.34 193.1 238.48 193.01 238.56C192.93 238.64 193.02 238.95 193.22 239.27C193.49 239.69 194.06 239.83 195.51 239.83C196.88 239.83 197.49 239.97 197.6 240.3C197.86 241.08 196.65 241.67 194.8 241.67C193.42 241.67 192.84 241.49 192.05 240.83ZM215.77 240.92C214.73 239.78 214.33 238.83 214.33 237.51C214.33 235.91 215.12 234.46 216.32 233.84C217.55 233.21 218.44 233.2 219.63 233.82C221.04 234.54 221.67 235.74 221.67 237.69C221.67 239.19 221.53 239.54 220.53 240.53C219.59 241.48 219.16 241.67 217.92 241.67C216.82 241.67 216.28 241.48 215.77 240.92ZM248.61 241.11C247.87 240.26 247.6 239.21 247.86 238.19C248.11 237.2 248.97 236.63 250.64 236.35C251.27 236.25 251.85 235.96 251.93 235.7C252.06 235.33 251.77 235.27 250.57 235.41C248.83 235.6 248.22 235.34 248.39 234.47C248.66 233.03 252.42 233.06 253.87 234.51C254.58 235.21 254.67 235.6 254.67 237.94C254.67 241.16 254.44 241.41 251.38 241.59C249.53 241.69 249.06 241.61 248.61 241.11ZM256.85 240.93C256.53 240.46 256.33 239.46 256.33 238.27C256.33 237.22 256.16 235.99 255.95 235.53C255.66 234.89 255.67 234.33 256 233.16C256.35 231.91 256.55 231.65 257.12 231.73C257.5 231.79 258 232.21 258.23 232.67C258.46 233.12 258.99 233.58 259.4 233.68C260.6 233.97 260.57 234.97 259.35 235.43C258.32 235.82 258.31 235.86 258.4 237.82C258.49 239.52 258.6 239.85 259.17 239.95C261.16 240.32 260.75 241.67 258.64 241.67C257.71 241.67 257.23 241.47 256.85 240.93ZM262.05 240.83C260.14 239.22 260.36 235.25 262.43 233.99C263.84 233.13 264.98 233.16 266.37 234.09C267.15 234.62 267.6 235.25 267.82 236.13C268.24 237.82 267.57 238.33 264.94 238.33C263.51 238.33 263 238.46 263 238.79C263 239.72 263.94 240.09 265.67 239.86C267.06 239.68 267.38 239.74 267.56 240.2C267.89 241.07 266.76 241.67 264.8 241.67C263.42 241.67 262.84 241.49 262.05 240.83ZM183 238.66C183 237.19 182.83 235.72 182.62 235.38C182.17 234.66 182.4 233.58 183.32 232.08C183.99 231 184 231 186.58 231.04C188.11 231.06 189.27 231.23 189.41 231.45C189.55 231.66 189.66 233.79 189.66 236.18C189.67 240.67 189.49 241.33 188.27 241.33C187.59 241.33 187.6 241.39 187.54 237.95C187.52 236.54 187.39 235.28 187.26 235.15C187.13 235.02 186.57 235.1 186.01 235.33C185.02 235.74 185 235.79 185 238.14C185 240.61 184.68 241.33 183.6 241.33C183.07 241.33 183 241.01 183 238.66ZM211.21 240.58C211.1 240.17 211.01 238.7 211 237.31C211 234.33 211.47 233.36 212.61 233.97C213.27 234.32 213.33 234.62 213.33 237.45C213.33 239.4 213.19 240.68 212.93 240.93C212.29 241.57 211.43 241.4 211.21 240.58ZM223.07 237.59L223.17 233.84L224.33 233.78C224.97 233.74 225.98 233.61 226.57 233.49C227.48 233.3 227.8 233.41 228.66 234.27C229.61 235.23 229.67 235.43 229.67 237.93C229.67 240.7 229.24 241.63 228.17 241.21C227.78 241.07 227.67 240.45 227.67 238.55C227.67 235.79 227.26 235.11 225.84 235.47C224.95 235.69 224.87 235.94 224.99 238.39C225.07 240.22 224.57 241.33 223.64 241.33C223.01 241.33 222.98 241.14 223.07 237.59ZM244.65 241C244.63 240.82 244.62 238.64 244.62 236.17C244.62 233.69 244.63 231.52 244.65 231.33C244.68 230.79 246.24 230.96 246.46 231.53C246.85 232.55 246.69 240.51 246.27 240.93C245.78 241.42 244.67 241.46 244.65 241ZM168.77 239.63C170.44 238.77 171 237.94 171 236.34C171 234.48 170.21 233.47 168.5 233.15C166.46 232.76 166.33 232.96 166.33 236.43C166.33 238.15 166.43 239.66 166.56 239.78C166.89 240.12 167.96 240.04 168.77 239.63ZM219.43 238.62C219.91 237.62 219.95 237.25 219.63 236.54C218.89 234.92 216.87 235 216.5 236.67C215.86 239.6 218.19 241.15 219.43 238.62ZM240.95 238.89C241.9 236.9 240.77 234.94 239 235.5C238.42 235.68 238.33 236 238.33 237.88L238.33 240.04L239.41 239.94C240.22 239.86 240.61 239.59 240.95 238.89ZM252.17 239.33C252.99 238.43 252.43 237.85 251.04 238.16C249.88 238.41 249.52 238.8 249.79 239.52C250.06 240.22 251.47 240.11 252.17 239.33ZM178.96 236.22C179.44 235.63 179.11 235.33 177.96 235.33C176.99 235.33 176.49 235.78 176.83 236.33C177.13 236.82 178.52 236.74 178.96 236.22ZM195.5 236C195.5 235.68 195.11 235.46 194.42 235.4C193.37 235.29 192.94 235.83 193.57 236.46C193.99 236.88 195.5 236.52 195.5 236ZM265.5 236C265.5 235.68 265.11 235.46 264.42 235.4C263.37 235.29 262.94 235.83 263.57 236.46C263.99 236.88 265.5 236.52 265.5 236ZM187.33 233.31C187.33 232.8 187.1 232.67 186.17 232.67C184.77 232.67 184.66 233.14 185.92 233.79C186.97 234.35 187.33 234.22 187.33 233.31ZM211.53 233.09C211.42 232.98 211.33 232.54 211.33 232.11C211.33 231.52 211.52 231.33 212.11 231.33C213.13 231.33 213.38 231.62 213 232.34C212.65 232.98 211.84 233.4 211.53 233.09ZM372.04 229.97C371.19 229.05 370.93 227.78 371.06 225.17C371.16 223.27 371.21 223.16 372.07 223.06C373.13 222.94 373.28 223.34 373.41 226.66C373.49 228.45 373.6 228.85 374.11 228.94C375.4 229.19 376 228.08 376 225.44C376 223.55 376.12 222.93 376.5 222.79C377.62 222.36 378 223.29 378 226.5C378 230.18 377.88 230.34 374.88 230.56C372.98 230.7 372.66 230.64 372.04 229.97ZM380.77 229.92C379.73 228.78 379.33 227.83 379.33 226.51C379.33 224.91 380.12 223.46 381.32 222.84C382.55 222.21 383.44 222.2 384.63 222.82C386.04 223.54 386.67 224.74 386.67 226.69C386.67 228.19 386.53 228.54 385.53 229.53C384.59 230.48 384.16 230.67 382.92 230.67C381.82 230.67 381.28 230.48 380.77 229.92ZM394.26 229.69C393.24 228.78 393.17 228.58 393.17 226.54L393.17 224.35L391.83 224.55C390.04 224.81 389.61 225.43 389.87 227.35C390.11 229.16 389.62 230.33 388.64 230.33C388.01 230.33 387.98 230.14 388.07 226.62L388.17 222.91L390.29 222.83C391.97 222.76 392.51 222.87 392.91 223.33C393.39 223.89 393.47 223.88 394.59 223.13C395.94 222.21 396.97 222.13 398.33 222.83C399.55 223.46 400.33 224.57 400.33 225.67C400.33 226.99 399.74 227.33 397.43 227.33C395.87 227.33 395.33 227.45 395.33 227.79C395.33 228.74 396.28 229.1 398.17 228.88C399.84 228.68 400 228.72 400 229.32C400 230.22 399.02 230.67 397.03 230.67C395.64 230.67 395.15 230.5 394.26 229.69ZM401.75 230.45C401.52 230.35 401.33 229.82 401.33 229.27C401.33 228.44 401.43 228.31 401.92 228.51C403.06 229 404.35 229.07 404.83 228.67C405.46 228.15 405.17 227.67 404.23 227.67C403.1 227.66 401.45 226.49 401.2 225.52C400.92 224.41 401.43 223.47 402.66 222.84C403.97 222.16 404.95 222.21 406.28 223.01C407.22 223.59 407.33 223.77 406.97 224.2C406.64 224.6 406.18 224.66 404.91 224.49C403.44 224.29 403.28 224.33 403.39 224.87C403.46 225.26 404.04 225.62 405 225.9C407.49 226.62 408.05 228.19 406.4 229.77C405.63 230.51 405.17 230.66 403.82 230.64C402.91 230.63 401.98 230.54 401.75 230.45ZM409.43 229.92C407.85 228.18 407.54 225.93 408.63 224.14C409.73 222.34 412.42 221.85 414.18 223.13C414.72 223.53 414.74 223.67 414.35 224.14C414.01 224.56 413.56 224.65 412.53 224.5C410.67 224.25 410.17 224.66 410.17 226.44C410.17 228.55 410.76 229.12 412.7 228.86C413.88 228.7 414.3 228.77 414.44 229.13C415.03 230.66 410.72 231.33 409.43 229.92ZM416.3 229.73C414.29 227.94 414.69 224.03 416.99 222.84C418.22 222.2 419.11 222.2 420.33 222.83C421.55 223.46 422.33 224.57 422.33 225.67C422.33 226.99 421.74 227.33 419.43 227.33C417.87 227.33 417.33 227.45 417.33 227.79C417.33 228.74 418.28 229.1 420.17 228.88C421.84 228.68 422 228.72 422 229.32C422 230.22 421.02 230.67 419.03 230.67C417.65 230.67 417.15 230.49 416.3 229.73ZM433 230C432.48 229.48 432.33 228.89 432.33 227.35C432.33 226.26 432.16 224.99 431.95 224.53C431.66 223.89 431.67 223.33 432 222.16C432.35 220.9 432.55 220.65 433.13 220.73C433.51 220.79 434.02 221.25 434.27 221.75C434.51 222.25 434.98 222.67 435.31 222.67C435.64 222.67 436.09 222.88 436.31 223.14C436.62 223.51 436.54 223.72 435.94 224.14C435.53 224.43 434.99 224.67 434.74 224.67C434.41 224.67 434.33 225.19 434.4 226.73C434.5 228.75 434.52 228.8 435.58 229.07C436.75 229.37 436.9 229.64 436.27 230.27C435.63 230.9 433.75 230.75 433 230ZM441.86 230.14C440.77 229.05 441.2 228.67 443.42 228.75C445.06 228.82 445.5 228.73 445.5 228.35C445.5 228.07 445.06 227.77 444.5 227.65C441.27 226.99 440.33 224.47 442.76 222.99C444.01 222.23 444.7 222.18 446.24 222.74C447.08 223.04 447.34 223.32 447.26 223.82C447.18 224.42 446.97 224.49 445.39 224.39C443.83 224.29 443.62 224.35 443.72 224.88C443.8 225.26 444.38 225.63 445.34 225.9C447.82 226.62 448.39 228.19 446.73 229.77C445.97 230.5 445.49 230.67 444.09 230.67C442.98 230.67 442.2 230.48 441.86 230.14ZM450.07 230.15C447.52 228.36 447.89 223.82 450.67 222.67C451.56 222.3 451.99 222.29 453.13 222.65C454.59 223.11 455.92 223.16 458.33 222.86C459.16 222.76 460.06 222.82 460.33 223C461.11 223.49 460.31 224.47 458.97 224.67L457.83 224.83L457.67 227.3C457.48 230.08 456.91 230.86 455.66 230.07C455.09 229.72 454.85 229.73 454.25 230.16C453.3 230.82 451.02 230.81 450.07 230.15ZM462.3 229.73C460.29 227.94 460.69 224.03 462.99 222.84C464.22 222.2 465.11 222.2 466.33 222.83C467.55 223.46 468.33 224.57 468.33 225.67C468.33 226.99 467.74 227.33 465.43 227.33C463.87 227.33 463.33 227.45 463.33 227.79C463.33 228.74 464.28 229.1 466.17 228.88C467.84 228.68 468 228.72 468 229.32C468 230.22 467.02 230.67 465.03 230.67C463.65 230.67 463.15 230.49 462.3 229.73ZM470.32 229.75C467.75 227.45 469.32 222.34 472.6 222.33C474.41 222.33 476.33 224.05 476.33 225.67C476.33 226.99 475.74 227.33 473.43 227.33C471.87 227.33 471.33 227.45 471.33 227.79C471.33 228.74 472.28 229.1 474.17 228.88C475.84 228.68 476 228.72 476 229.32C476 230.22 475.02 230.67 473.03 230.67C471.66 230.67 471.15 230.49 470.32 229.75ZM360.22 230.11C360.1 229.99 360 227.75 360 225.15C360 219.68 359.79 220 363.44 220.01C366.4 220.01 367.07 220.33 366.19 221.31C365.7 221.84 365.16 222 363.78 222C362.02 222 362 222.01 362 223C362 223.96 362.06 224 363.47 224C365.27 224 366 224.25 366 224.88C366 225.44 364.43 226.11 363.73 225.84C362.53 225.38 362 225.98 362 227.79C362 229.48 361.6 230.33 360.82 230.33C360.61 230.33 360.34 230.23 360.22 230.11ZM368 225.17C368 220.25 368.03 220 368.65 220C369.02 220 369.44 220.26 369.59 220.58C369.9 221.23 369.82 229.48 369.5 230C369.39 230.18 369 230.33 368.65 230.33C368.03 230.33 368 230.06 368 225.17ZM423.54 229.75C423.32 229.03 423.55 223.34 423.81 223.08C423.92 222.97 424.49 222.84 425.08 222.79C425.68 222.74 426.65 222.6 427.24 222.48C428.15 222.29 428.47 222.42 429.34 223.28C430.34 224.29 430.36 224.36 430.26 227.24C430.17 230.11 430.15 230.17 429.33 230.17C428.53 230.17 428.5 230.09 428.4 227.61C428.3 224.79 427.89 224.12 426.5 224.47C425.71 224.67 425.67 224.79 425.67 227.11C425.67 228.55 425.5 229.7 425.27 229.93C424.68 230.52 423.74 230.42 423.54 229.75ZM477.54 229.75C477.32 229.03 477.55 223.34 477.81 223.08C477.92 222.97 478.49 222.84 479.08 222.79C479.68 222.74 480.65 222.6 481.24 222.48C482.15 222.29 482.47 222.42 483.34 223.28C484.34 224.29 484.36 224.36 484.26 227.24C484.17 230.11 484.15 230.17 483.33 230.17C482.53 230.17 482.5 230.09 482.4 227.61C482.3 224.79 481.89 224.12 480.5 224.47C479.71 224.67 479.67 224.79 479.67 227.11C479.67 228.55 479.5 229.7 479.27 229.93C478.68 230.52 477.74 230.42 477.54 229.75ZM384.43 227.62C384.91 226.62 384.95 226.25 384.63 225.54C383.9 223.94 381.88 223.99 381.56 225.63C380.96 228.63 383.18 230.18 384.43 227.62ZM455.26 226.61L455.36 224.44L453.21 224.47C452.02 224.49 450.93 224.62 450.78 224.78C450.33 225.23 450.46 227.85 450.96 228.45C451.31 228.87 451.86 228.98 453.29 228.89L455.17 228.79L455.26 226.61ZM397.62 225.22C398.11 224.63 397.77 224.33 396.61 224.33C395.89 224.33 395.67 224.49 395.67 225C395.67 225.79 397.03 225.94 397.62 225.22ZM419.62 225.22C420.11 224.63 419.77 224.33 418.61 224.33C417.89 224.33 417.67 224.49 417.67 225C417.67 225.79 419.03 225.94 419.62 225.22ZM465.62 225.22C466.11 224.63 465.77 224.33 464.61 224.33C463.89 224.33 463.67 224.49 463.67 225C463.67 225.79 465.03 225.94 465.62 225.22ZM473.62 225.22C474.11 224.63 473.77 224.33 472.61 224.33C471.89 224.33 471.67 224.49 471.67 225C471.67 225.79 473.03 225.94 473.62 225.22ZM146.33 222.67C146.33 222.16 146.51 221.98 146.92 222.06C147.24 222.13 147.5 222.4 147.5 222.67C147.5 222.94 147.24 223.21 146.92 223.27C146.51 223.35 146.33 223.17 146.33 222.67ZM146.33 220C146.33 219.36 146.99 219.1 147.44 219.55C147.69 219.81 147.06 220.67 146.63 220.67C146.46 220.67 146.33 220.37 146.33 220ZM146.33 217.67C146.33 217.03 146.99 216.76 147.44 217.22C147.69 217.47 147.06 218.33 146.63 218.33C146.46 218.33 146.33 218.03 146.33 217.67ZM146.33 215C146.33 214.36 146.99 214.1 147.44 214.55C147.69 214.81 147.06 215.67 146.63 215.67C146.46 215.67 146.33 215.37 146.33 215ZM245.18 215.22C244.25 214.54 244.86 213.98 246.44 214.08C248.22 214.19 248.37 213.34 246.67 212.79C244.24 212.02 244.06 209.27 246.4 208.83C247.7 208.59 249.45 209.15 249.25 209.75C249.18 209.98 248.56 210.21 247.89 210.27C247.1 210.34 246.67 210.54 246.67 210.85C246.67 211.12 246.9 211.33 247.18 211.33C247.98 211.33 249.56 212.25 249.79 212.84C250.09 213.62 249.15 215.21 248.26 215.45C247.02 215.79 245.83 215.7 245.18 215.22ZM347.47 214.11C347.37 213.77 347.18 213.3 347.06 213.07C346.88 212.72 341.27 212.64 317.57 212.66C297.63 212.67 288.11 212.57 287.66 212.33C287.28 212.12 287 211.63 287 211.15L287 210.33L316.77 210.33C347.81 210.33 347.33 210.35 347.33 208.95C347.33 207.93 347.94 207.94 350.24 209.02C351.48 209.6 352.85 210.2 353.27 210.37C354.59 210.88 353.99 211.75 351.43 213.06C348.14 214.73 347.7 214.85 347.47 214.11ZM238.07 213.27C237.79 212.99 237.67 211.36 237.67 208.08L237.67 203.29L238.58 203.39L239.5 203.5L239.67 207.67L239.83 211.83L241.83 211.93C244.07 212.05 244.66 212.38 244.01 213.15C243.48 213.8 238.69 213.89 238.07 213.27ZM146.33 212.67C146.33 212.03 146.99 211.76 147.44 212.22C147.69 212.47 147.06 213.33 146.63 213.33C146.46 213.33 146.33 213.03 146.33 212.67ZM150.67 212.31C149.66 211.78 148.27 211.12 147.58 210.84C146.28 210.32 145.87 209.33 146.96 209.33C147.3 209.33 148.65 208.8 149.95 208.14C152.81 206.72 154.11 206.7 154.27 208.08L154.38 209L183.94 209.01C202.16 209.01 213.69 209.13 214 209.33C214.39 209.58 214.42 209.78 214.13 210.24C213.78 210.8 212.07 210.84 184.13 211C154.84 211.16 154.51 211.17 154.39 211.83C154.06 213.58 153.28 213.68 150.67 212.31ZM146.33 207.67C146.33 207.03 146.99 206.76 147.44 207.22C147.69 207.47 147.06 208.33 146.63 208.33C146.46 208.33 146.33 208.03 146.33 207.67ZM146.33 205C146.33 204.36 146.99 204.1 147.44 204.55C147.69 204.81 147.06 205.67 146.63 205.67C146.46 205.67 146.33 205.37 146.33 205ZM146.33 202.67C146.33 202.03 146.99 201.76 147.44 202.22C147.69 202.47 147.06 203.33 146.63 203.33C146.46 203.33 146.33 203.03 146.33 202.67ZM146.33 200C146.33 199.36 146.99 199.1 147.44 199.55C147.69 199.81 147.06 200.67 146.63 200.67C146.46 200.67 146.33 200.37 146.33 200ZM145.6 175.93C145.82 175.71 146 174.73 146 173.76C146 172.48 146.14 171.92 146.5 171.79C147.44 171.43 148 172.32 148 174.17C148 175.47 148.14 175.98 148.53 176.13C149.57 176.53 162.18 176.36 162.6 175.93C162.84 175.69 163 174.51 163 172.91C163 170.38 163.03 170.29 163.75 170.39C164.44 170.49 164.51 170.71 164.67 173.33L164.83 176.17L259.1 176.25C323.71 176.31 353.58 176.23 354.02 175.99C354.66 175.65 354.67 174.77 354.67 126.29L354.67 76.93L353.76 77.15C352.94 77.36 351.54 77.93 348.83 79.16C348.28 79.41 347.23 79.86 346.5 80.17C345.77 80.47 344.68 80.93 344.09 81.2C342.72 81.81 341.2 82.47 339.5 83.17C338.77 83.47 337.68 83.93 337.09 84.2C336.5 84.47 335.48 84.91 334.84 85.18C332.67 86.12 331.51 86.63 329.25 87.65C328.01 88.21 326.8 88.67 326.57 88.67C326.33 88.67 325.99 88.8 325.82 88.96C325.64 89.13 314.02 94.17 300 100.18C285.97 106.18 273.72 111.44 272.77 111.88C271.82 112.31 270.97 112.67 270.88 112.67C270.79 112.67 269.69 113.13 268.44 113.69C267.19 114.26 265.69 114.93 265.12 115.19C264.54 115.45 263.99 115.67 263.89 115.67C263.79 115.67 262.69 116.13 261.44 116.69C258.5 118.01 258.15 118.16 256.17 119.01C253.62 120.09 252.26 120.67 251.17 121.16C249.13 122.06 247.8 122.63 246.5 123.17C245.77 123.47 244.68 123.93 244.09 124.2C243.5 124.47 242.52 124.89 241.92 125.14C241.32 125.39 240.31 125.83 239.67 126.1C239.03 126.38 237.97 126.83 237.33 127.1C235.47 127.9 233.54 128.74 232.99 129.01C232.71 129.14 219.96 134.61 204.66 141.17C180.16 151.66 175.45 153.69 172.5 155C172.13 155.16 171.08 155.61 170.17 156C169.25 156.39 168.2 156.84 167.83 157C167.47 157.16 166.42 157.61 165.5 158C164.58 158.39 163.53 158.84 163.17 159C162.8 159.16 161.75 159.61 160.83 160C159.92 160.39 158.68 160.93 158.09 161.2C156.78 161.79 155.28 162.44 153.5 163.17C152.77 163.47 151.68 163.93 151.09 164.2C148.98 165.15 145.84 166.5 144.17 167.19C143.07 167.64 141.63 168.27 139.33 169.3C138.51 169.67 134.84 171.25 131.17 172.81C127.51 174.37 124.46 175.8 124.39 175.99C124.22 176.51 145.07 176.46 145.6 175.93ZM41.82 169.85C41.17 169.2 41 168.69 41 167.4C41 165.35 42.01 163.74 43.83 162.88C44.92 162.36 45.33 162.33 46.39 162.64C48.61 163.31 49.28 165.08 47.85 166.52C47.16 167.2 46.71 167.33 45.02 167.33C43.53 167.33 43 167.45 43 167.79C43 168.71 43.94 169.09 45.67 168.86C47.18 168.66 47.33 168.7 47.33 169.31C47.33 170.23 46.36 170.67 44.34 170.67C42.98 170.67 42.47 170.5 41.82 169.85ZM54.42 170.45C54.11 170.32 54 168.94 54 165.14C54 160.25 54.03 160 54.65 160C55.48 160 56.03 160.99 55.77 161.98C55.58 162.7 55.64 162.73 56.87 162.53C60.57 161.93 62.44 166.64 59.64 169.53C58.63 170.56 58.37 170.66 56.68 170.64C55.67 170.63 54.65 170.54 54.42 170.45ZM63.09 169.86C60.29 167.5 61.9 162.33 65.43 162.33C66.67 162.33 68.44 163.7 68.79 164.93C69.27 166.61 68.42 167.33 65.95 167.33C64.52 167.33 64 167.45 64 167.79C64 168.72 64.94 169.09 66.67 168.86C68.06 168.68 68.38 168.74 68.56 169.2C68.89 170.07 67.76 170.67 65.8 170.67C64.43 170.67 63.84 170.49 63.09 169.86ZM70.38 169.82C68.77 167.77 69.99 165.63 72.97 165.27C73.42 165.21 73.85 164.96 73.93 164.7C74.06 164.33 73.77 164.27 72.57 164.41C70.83 164.6 70.22 164.34 70.39 163.47C70.66 162.03 74.42 162.06 75.87 163.51C76.58 164.21 76.67 164.6 76.67 166.94C76.67 170.17 76.44 170.41 73.35 170.59C71.22 170.71 71.05 170.67 70.38 169.82ZM78.2 169.81C77.92 169.06 77.96 163.91 78.26 163.46C78.7 162.78 82.08 162.41 83.77 162.84C84.35 162.99 85.02 162.92 85.5 162.67C86.5 162.13 87.82 162.46 88.86 163.5C89.58 164.21 89.67 164.6 89.67 166.92C89.67 169.62 89.37 170.33 88.27 170.33C87.74 170.33 87.67 170.01 87.67 167.71C87.67 164.79 87.28 164.11 85.84 164.47C85.04 164.67 85 164.79 85 167.11C85 169.61 84.69 170.33 83.6 170.33C83.07 170.33 83 170.01 83 167.71C83 164.86 82.65 164.19 81.27 164.39C80.56 164.49 80.49 164.68 80.4 166.99C80.35 168.35 80.14 169.66 79.94 169.9C79.45 170.5 78.45 170.44 78.2 169.81ZM58.48 168.26C59.23 167.18 59.16 165.11 58.36 164.68C56.87 163.88 55.99 164.46 55.81 166.36C55.73 167.15 55.75 168.08 55.86 168.4C56.13 169.28 57.83 169.19 58.48 168.26ZM74.17 168.33C74.99 167.43 74.43 166.85 73.04 167.16C71.88 167.41 71.52 167.8 71.79 168.52C72.06 169.22 73.47 169.11 74.17 168.33ZM66.5 165C66.5 164.68 66.11 164.46 65.42 164.4C64.37 164.29 63.94 164.83 64.57 165.46C64.99 165.88 66.5 165.52 66.5 165ZM45.93 164.72C46.03 164.41 45.8 164.31 45.15 164.39C44.64 164.45 44.15 164.7 44.07 164.94C43.97 165.25 44.2 165.35 44.85 165.28C45.36 165.22 45.85 164.97 45.93 164.72ZM41.53 157.39C41.16 157.32 41 157.03 41.06 156.56C41.16 155.88 41.38 155.83 44.17 155.74C45.82 155.68 47.5 155.72 47.92 155.82C48.75 156.03 48.93 156.92 48.2 157.2C47.66 157.41 42.4 157.56 41.53 157.39ZM260.25 107.81C258.55 106.95 257.33 106.12 257.33 105.83C257.33 105.56 257.64 105.02 258.02 104.64C258.48 104.18 258.61 103.82 258.4 103.56C258.23 103.34 256.53 101.04 254.63 98.45C245.8 86.42 245.54 85.99 246.92 86.01C247.85 86.01 248.21 86.37 250.48 89.52C257.52 99.28 260.44 103.02 260.78 102.69C261.26 102.2 262.51 102.24 262.93 102.75C263.12 102.98 263.38 104.07 263.51 105.17C263.65 106.27 263.87 107.49 264.02 107.87C264.26 108.51 263.87 109.36 263.35 109.32C263.25 109.31 261.85 108.63 260.25 107.81ZM77.07 101.27C76.35 100.55 76.63 100 79 97.5C81.34 95.03 81.81 93.95 80.93 93.07C80.43 92.57 79.17 92.55 78.27 93.03C77.74 93.32 77.52 93.3 77.3 92.95C76.55 91.78 77.59 91 79.88 91C81.47 91 81.85 91.13 82.69 91.97C83.33 92.61 83.67 93.29 83.67 93.92C83.67 94.96 82.44 96.86 80.71 98.48C80.14 99.02 79.67 99.58 79.67 99.73C79.67 99.88 80.45 100 81.42 100.01C82.38 100.01 83.39 100.16 83.67 100.34C84.1 100.63 84.08 100.75 83.52 101.17C82.7 101.79 77.67 101.87 77.07 101.27ZM181.55 91.24C181.06 90.89 180.99 90.37 181.07 87.99L181.17 85.17L183.09 85.07C184.85 84.98 185.1 85.05 186.01 85.96C187.09 87.04 187.28 88.29 186.55 89.6C185.59 91.34 182.89 92.22 181.55 91.24ZM67.84 89.92C67.76 89.69 67.65 89.13 67.6 88.68C67.52 88 67.25 87.8 66.08 87.57C64.45 87.25 64.17 86.45 65.58 86.15C67.1 85.83 67.49 85.48 67.61 84.36C67.69 83.48 67.84 83.31 68.44 83.4C69.02 83.48 69.19 83.76 69.27 84.75C69.36 85.86 69.48 86 70.27 86.01C70.76 86.01 71.39 86.16 71.67 86.34C72.1 86.63 72.08 86.75 71.52 87.17C71.16 87.44 70.53 87.67 70.1 87.67C69.48 87.67 69.33 87.85 69.33 88.6C69.33 89.94 68.19 90.95 67.84 89.92ZM184.99 89.36C185.79 87.87 185.02 86.33 183.48 86.33C182.72 86.33 182.67 86.45 182.67 88.17C182.67 89.98 182.68 90 183.65 90C184.29 90 184.77 89.77 184.99 89.36ZM175.08 89.39C174.84 89.24 174.35 88.3 173.98 87.31C170.91 79.07 170.97 79.33 172.25 79.33C173.18 79.33 173.31 79.49 174 81.42C174.41 82.56 174.97 84.14 175.26 84.93C175.54 85.72 175.89 86.24 176.04 86.1C176.19 85.95 176.81 84.4 177.41 82.67C178.51 79.52 178.97 78.99 180.17 79.45C180.55 79.6 180.52 79.94 179.99 81.4C179.65 82.37 178.9 84.44 178.35 86C177.16 89.31 176.33 90.18 175.08 89.39ZM165.17 88.92C165.09 88.69 164.98 87.97 164.93 87.33C164.84 86.23 164.76 86.16 163.39 85.97C162.1 85.8 161.35 85.3 161.34 84.59C161.33 84.32 162.29 84.07 163.83 83.92C164.75 83.84 164.85 83.71 165 82.33C165.14 81.11 165.29 80.83 165.83 80.83C166.39 80.83 166.52 81.09 166.6 82.42L166.7 84L167.95 84C168.64 84 169.48 84.2 169.82 84.45C170.4 84.87 170.39 84.92 169.64 85.45C169.21 85.75 168.36 86 167.76 86C166.72 86 166.67 86.06 166.67 87.27C166.67 88.88 165.57 90.09 165.17 88.92ZM74.75 87.78C74.52 87.69 74.33 87.33 74.33 86.99C74.33 86.42 74.75 86.37 79.92 86.27C82.99 86.21 85.77 86.29 86.11 86.44C86.69 86.71 86.69 86.75 86.14 87.36C85.62 87.94 85.09 88 80.37 87.97C77.51 87.96 74.98 87.87 74.75 87.78ZM76.67 82C75.75 81.08 75.75 78.25 76.66 76.75C77.61 75.2 79.24 74.26 80.62 74.47C81.66 74.62 81.77 74.55 82.25 73.32C82.64 72.32 82.95 72 83.53 72C84.59 72 84.78 72.48 84.3 73.92C83.89 75.16 83.12 78.51 82.78 80.59C82.52 82.1 81.56 82.67 79.26 82.67C77.78 82.67 77.18 82.51 76.67 82ZM80.32 80.52C80.54 80.25 80.92 79.28 81.16 78.35C81.6 76.69 81.59 76.66 80.83 76.47C79.61 76.16 78.75 76.6 78.36 77.73C77.96 78.89 77.89 80.44 78.22 80.78C78.62 81.17 79.91 81.01 80.32 80.52ZM294.54 77.81C294.22 76.99 294.29 76.67 294.79 76.67C295.04 76.67 295.64 76.36 296.12 75.98C296.94 75.33 297 75.1 297 72.65C297 70.21 296.94 69.98 296.17 69.47C295.08 68.76 295.11 68.14 296.25 67.6C296.97 67.25 297.14 66.96 297.06 66.24C296.97 65.45 297.07 65.33 297.85 65.33C298.63 65.33 298.71 65.43 298.51 66.08C298.38 66.5 298.29 67.06 298.33 67.33C298.36 67.61 298.46 69.77 298.55 72.13L298.71 76.42L297.79 77.38C296.75 78.47 294.88 78.71 294.54 77.81ZM335.44 77.25C335.54 76.65 335.72 75.76 335.85 75.27C336.07 74.37 335.82 73.57 334.5 70.86C333.86 69.56 333.77 69.51 332.5 69.62C331.77 69.68 331.05 69.8 330.92 69.89C330.78 69.97 330.67 71.05 330.67 72.29C330.67 73.59 330.5 74.7 330.27 74.93C329.74 75.46 328.77 75.45 328.6 74.92C328.44 74.4 328.53 68.36 328.7 68.19C328.77 68.12 330.22 67.98 331.91 67.88C334.95 67.7 334.98 67.71 335.61 68.6C335.95 69.09 336.38 69.95 336.56 70.5C336.74 71.05 337.03 71.5 337.19 71.5C337.36 71.5 337.86 70.72 338.3 69.77C339.15 67.91 339.86 67.38 340.54 68.07C340.94 68.49 340.31 70.28 337.77 76C336.69 78.43 335.1 79.28 335.44 77.25ZM215.07 75.27C214.79 74.99 214.67 73.37 214.67 70.14C214.67 66.13 214.75 65.37 215.19 65.2C215.48 65.09 216.88 65 218.29 65C221.19 65 222.01 65.4 221.11 66.4C220.7 66.85 220.07 67 218.62 67C216.67 67 216.67 67 216.67 68L216.67 69L218.98 69C220.37 69 221.39 69.15 221.53 69.38C221.96 70.07 220.6 70.67 218.58 70.67L216.63 70.67L216.73 72.25L216.83 73.83L219 73.93C221.39 74.05 222 74.36 221.35 75.15C220.81 75.8 215.69 75.89 215.07 75.27ZM227.32 74.75C224.75 72.45 226.32 67.34 229.6 67.33C231.41 67.33 233.33 69.05 233.33 70.67C233.33 71.99 232.74 72.33 230.43 72.33C228.87 72.33 228.33 72.45 228.33 72.79C228.33 73.74 229.28 74.1 231.17 73.88C232.84 73.68 233 73.72 233 74.32C233 75.22 232.02 75.67 230.03 75.67C228.66 75.67 228.15 75.49 227.32 74.75ZM235.19 74.69C233.28 72.7 233.82 68.89 236.16 67.77C237.13 67.31 237.59 67.27 238.59 67.55C239.28 67.74 240.05 67.96 240.31 68.03C240.61 68.12 241.03 67.68 241.41 66.89C242.13 65.41 242.93 65.36 243.6 66.75C243.84 67.26 244.3 67.67 244.62 67.67C244.94 67.67 245.34 67.81 245.52 67.98C245.71 68.18 246.75 68.18 248.25 67.99C250.79 67.67 251.67 67.8 251.67 68.49C251.67 69.12 250.96 69.59 249.83 69.72C248.84 69.83 248.83 69.85 248.73 72.15C248.62 74.83 248.32 75.33 246.88 75.32C246.3 75.32 245.14 75.41 244.29 75.52C242.93 75.7 242.68 75.63 242.21 74.96C241.86 74.45 241.66 73.48 241.66 72.18C241.66 71.07 241.55 70 241.41 69.8C241.13 69.37 236.87 69.35 236.44 69.78C235.98 70.24 236.13 72.86 236.65 73.48C237.04 73.95 237.45 74.03 238.7 73.86C239.88 73.7 240.3 73.77 240.44 74.13C240.76 74.97 239.56 75.67 237.79 75.67C236.38 75.67 235.98 75.51 235.19 74.69ZM253.15 74.64C252.27 73.73 252.17 73.4 252.17 71.45C252.17 69.48 252.26 69.2 253.1 68.47C254.88 66.94 256.79 67.01 258.34 68.67C259.99 70.44 259.92 72.66 258.17 74.52C257.25 75.49 256.86 75.67 255.61 75.67C254.39 75.67 253.95 75.48 253.15 74.64ZM287.71 74.81C287.32 74.31 287 73.48 287 72.96C287 71.44 288.05 70.63 290.47 70.26C290.82 70.21 291.18 69.97 291.26 69.73C291.36 69.42 290.99 69.3 289.95 69.3C289.15 69.31 288.12 69.3 287.67 69.3C286.14 69.29 284.51 69.73 284.08 70.27C283.8 70.62 283.73 71.33 283.87 72.35C284.11 74.16 283.62 75.33 282.64 75.33C282.01 75.33 281.98 75.14 282.07 71.62L282.17 67.9L284.17 67.83C285.27 67.79 286.42 67.89 286.72 68.04C287.07 68.22 287.62 68.14 288.22 67.83C290.17 66.82 293.05 67.54 293.68 69.2C293.86 69.67 294 71.08 294 72.35C294 75.13 293.58 75.52 290.46 75.63C288.59 75.7 288.35 75.63 287.71 74.81ZM301 74.72C298.48 72.2 300.01 67.45 303.37 67.36C304.77 67.32 306.45 68.67 306.82 70.13C307.24 71.82 306.57 72.33 303.94 72.33C302.51 72.33 302 72.46 302 72.79C302 73.72 302.94 74.09 304.67 73.86C306.06 73.68 306.38 73.74 306.56 74.2C306.89 75.07 305.75 75.67 303.74 75.67C302.21 75.67 301.81 75.53 301 74.72ZM308.91 74.75C307.13 72.89 307.42 69.21 309.45 67.98C310.71 67.21 312.03 67.16 313.32 67.82C314.4 68.38 314.76 68.14 315.13 66.56C315.31 65.84 315.52 65.65 316.09 65.73C316.49 65.79 317 66.21 317.23 66.67C317.46 67.12 317.99 67.58 318.4 67.68C319.6 67.97 319.57 68.97 318.35 69.43C317.32 69.82 317.31 69.86 317.4 71.82C317.49 73.52 317.6 73.85 318.17 73.95C320.17 74.32 319.75 75.67 317.63 75.67C315.93 75.67 315.24 74.64 315.12 71.88C315.06 70.76 315.02 69.75 315.01 69.65C315 69.55 313.94 69.47 312.65 69.48C310.95 69.49 310.22 69.64 309.99 70C309.5 70.78 309.61 72.44 310.21 73.3C310.7 73.99 310.95 74.06 312.37 73.89C314.2 73.67 314.69 74.06 313.81 75.02C313.38 75.5 312.79 75.67 311.51 75.67C310.07 75.67 309.65 75.52 308.91 74.75ZM320.9 74.73C319.9 73.69 319.46 71.47 319.93 69.83C320.26 68.65 322.06 67.33 323.33 67.33C325.77 67.33 327.69 70.22 326.94 72.73C326.09 75.59 322.77 76.68 320.9 74.73ZM223 70.17C223 65.25 223.03 65 223.65 65C224.02 65 224.45 65.27 224.63 65.59C224.95 66.2 224.83 74.46 224.49 75.02C224.38 75.19 224 75.33 223.65 75.33C223.03 75.33 223 75.06 223 70.17ZM260.63 74.92C260.51 73.34 260.64 68.25 260.8 68.09C260.91 67.98 261.49 67.84 262.08 67.79C262.68 67.74 263.64 67.6 264.21 67.48C265.06 67.31 265.44 67.44 266.29 68.22C267.27 69.12 267.32 69.3 267.37 71.94C267.43 74.81 267.18 75.48 266.12 75.28C265.59 75.18 265.49 74.79 265.4 72.61C265.3 69.79 264.89 69.12 263.5 69.47C262.71 69.67 262.67 69.79 262.67 72.11C262.67 73.55 262.5 74.7 262.27 74.93C261.74 75.46 260.68 75.45 260.63 74.92ZM276.22 75.11C276.1 74.99 276 73.11 276 70.94L276 67L274.92 66.99C273.53 66.99 272.9 66.58 273.05 65.79C273.16 65.24 273.55 65.16 276.5 65.07C278.34 65.02 280.17 65.06 280.58 65.16C282.14 65.55 281.04 67 279.19 67L278.33 67L278.33 70.77C278.33 73.25 278.2 74.67 277.93 74.93C277.5 75.37 276.58 75.46 276.22 75.11ZM246.13 74.05C246.38 73.66 246.47 69.36 246.24 69.13C246.14 69.02 245.51 69.13 244.86 69.37L243.67 69.8L243.67 71.88C243.67 73.77 243.73 73.97 244.42 74.1C245.71 74.35 245.96 74.34 246.13 74.05ZM256.81 73.26C257.99 71.58 257.12 69.19 255.4 69.4C254.25 69.54 253.78 70.95 254.31 72.71C254.62 73.74 254.85 74 255.49 74C255.94 74 256.52 73.68 256.81 73.26ZM291.51 73.33C292.32 72.43 291.76 71.85 290.37 72.16C289.19 72.42 288.91 72.72 289.2 73.47C289.49 74.21 290.78 74.13 291.51 73.33ZM324.39 73.45C325.26 72.66 325.24 70.15 324.36 69.68C323.45 69.19 322.8 69.25 322.19 69.86C321.12 70.93 321.9 74 323.24 74C323.54 74 324.06 73.75 324.39 73.45ZM230.62 70.22C231.11 69.63 230.77 69.33 229.61 69.33C228.89 69.33 228.67 69.49 228.67 70C228.67 70.79 230.03 70.94 230.62 70.22ZM304.5 70C304.5 69.68 304.11 69.46 303.42 69.4C302.37 69.29 301.94 69.83 302.57 70.46C302.99 70.88 304.5 70.52 304.5 70ZM123.07 66.27C122.79 65.99 122.67 64.36 122.67 61.08L122.67 56.29L123.58 56.39L124.5 56.5L124.67 60.67L124.83 64.83L126.83 64.93C129.07 65.05 129.66 65.38 129.01 66.15C128.48 66.8 123.69 66.89 123.07 66.27Z" fill="#1e2749" fill-rule="evenodd"/>
</svg>
