<?xml version="1.0" encoding="UTF-8"?>
<svg xmlns="http://www.w3.org/2000/svg" viewBox="0 0 560 190" width="560" height="190" shape-rendering="geometricPrecision">
<path d="M22.76 185.7C20.82 184.29 20 182.79 20 180.62C20 177.32 22.37 175 25.76 175C27.34 175 27.83 175.16 29.04 176.09C29.83 176.69 30.78 177.82 31.15 178.59L31.83 180L90.83 179.92L149.83 179.83L149.92 155.75L150 131.67L148.87 131.67C146.73 131.67 142.51 130.17 139.7 128.41C131.09 123.02 127.72 112.21 131.6 102.5C134.2 96 140.95 90.92 148.15 90.04L149.83 89.83L150 68.17L150.17 46.5L151.1 44.84C151.61 43.93 152.35 42.84 152.74 42.42L153.45 41.67L92.55 41.67C34.85 41.67 31.63 41.7 31.44 42.25C31.03 43.38 29.9 44.73 28.57 45.7C26.71 47.04 24.62 47.05 22.76 45.7C20.83 44.3 20 42.78 20 40.67C20 37.33 22.35 35 25.72 35C27.35 35 27.82 35.15 29.04 36.09C29.83 36.69 30.78 37.81 31.15 38.59L31.83 40L132.04 40C211.83 40 232.31 39.92 232.56 39.58C232.72 39.35 233.12 38.27 233.45 37.17C233.77 36.07 234.25 34.47 234.52 33.62C234.78 32.77 235 31.69 235 31.22C235 30.2 235.44 29.87 236.48 30.13C237.08 30.28 237.3 30.63 237.47 31.75C237.6 32.53 237.93 33.92 238.22 34.83C238.87 36.92 239.43 38.89 240.16 41.67C240.48 42.86 240.87 44.18 241.03 44.6C241.2 45.02 241.33 45.66 241.33 46.02C241.33 46.73 241.95 46.91 242.14 46.25C242.2 46.02 242.44 45.16 242.67 44.33C243.4 41.68 244.86 36.48 245.52 34.17C245.78 33.25 246.12 31.98 246.27 31.33C246.7 29.48 248.67 29.68 248.67 31.58C248.67 32.04 248.91 33.18 249.2 34.12C249.78 35.95 250.29 37.73 251.1 40.67C252.49 45.69 252.8 46.62 253.05 46.47C253.2 46.38 253.49 45.67 253.7 44.9C253.9 44.13 254.27 42.82 254.51 42C254.74 41.17 255.18 39.6 255.49 38.5C255.79 37.4 256.24 35.82 256.5 35C256.76 34.17 257.07 32.87 257.19 32.09C257.32 31.31 257.62 30.51 257.87 30.3C258.39 29.87 259.29 30.12 259.47 30.74C259.53 30.98 259.83 31.99 260.12 33C260.69 34.95 261.37 37.34 262.21 40.33C262.5 41.34 262.94 42.84 263.2 43.67C263.46 44.49 263.67 45.43 263.67 45.75C263.67 46.07 263.82 46.33 264.01 46.33C264.52 46.33 264.6 46.08 267.52 35.5C268.97 30.24 269.17 29.83 270.09 30.18C270.58 30.37 270.87 31.24 273.22 39.67C273.5 40.67 273.93 42.17 274.18 43C274.43 43.82 274.68 44.88 274.73 45.33C274.99 47.51 276.3 45.36 276.89 41.76C276.99 41.17 277.26 40.53 277.49 40.34C277.78 40.1 292.94 40.02 326.37 40.08L374.83 40.17L376.56 41.12C378.62 42.26 379.34 42.98 380.57 45.17L381.5 46.83L381.59 68.42L381.69 90L382.8 90C384.93 90 389.16 91.5 391.97 93.26C397.87 96.96 401.67 103.78 401.67 110.67C401.67 117.61 397.72 124.59 391.65 128.4C388.92 130.11 384.61 131.67 382.63 131.67L381.67 131.67L381.67 156.12C381.67 179.38 381.64 180.59 381.06 181.12C380.49 181.63 367.86 181.67 206.05 181.67C40.25 181.67 31.64 181.7 31.44 182.25C31.03 183.38 29.9 184.73 28.57 185.7C26.71 187.04 24.62 187.05 22.76 185.7ZM28.47 183.47C29.75 182.2 30 181.74 30 180.68C30 179.64 29.75 179.17 28.63 178.04C27.41 176.82 27.08 176.67 25.68 176.67C24.32 176.67 23.95 176.83 22.89 177.89C21.83 178.95 21.67 179.32 21.67 180.68C21.67 182.08 21.82 182.41 23.04 183.63C24.17 184.75 24.64 185 25.68 185C26.74 185 27.2 184.75 28.47 183.47ZM379.92 155.75L380 131.67L378.87 131.67C376.73 131.67 372.51 130.17 369.7 128.41C363.65 124.61 360 117.95 360 110.67C360 104.99 362.08 99.89 365.98 95.98C369.13 92.84 373.77 90.57 378.15 90.04L379.83 89.83L379.93 69.33C380.02 50.37 379.98 48.7 379.43 47.04C378.7 44.82 377.07 43.15 374.83 42.3C373.23 41.69 371.52 41.67 326 41.67L278.83 41.67L278.24 43.75C277.91 44.9 277.43 46.53 277.16 47.38C276.89 48.23 276.67 49.29 276.67 49.74C276.67 50.73 275.63 51.76 274.92 51.49C274.64 51.38 274.31 50.68 274.19 49.9C274.07 49.13 273.76 47.82 273.5 47C273.24 46.17 272.8 44.67 272.52 43.67C272.24 42.66 271.8 41.08 271.55 40.17C271.29 39.25 270.9 37.82 270.67 37C270.44 36.17 270.2 35.31 270.14 35.08C269.95 34.42 269.33 34.6 269.33 35.32C269.33 35.68 269.2 36.31 269.03 36.73C268.87 37.16 268.48 38.47 268.16 39.67C267.43 42.44 266.87 44.41 266.22 46.5C265.93 47.42 265.6 48.81 265.47 49.6C265.33 50.5 265.01 51.15 264.6 51.37C263.76 51.82 263 51.21 263 50.09C263 49.63 262.76 48.49 262.46 47.54C261.88 45.67 261.36 43.9 260.52 40.83C260.21 39.73 259.75 38.1 259.48 37.21C259.22 36.32 259 35.38 259 35.13C259 34.13 258.34 34.74 257.98 36.08C257.76 36.86 257.4 38.17 257.16 39C256.92 39.82 256.48 41.4 256.18 42.5C255.87 43.6 255.41 45.25 255.14 46.17C254.88 47.08 254.52 48.5 254.35 49.32C254 51.01 253.15 51.88 252.44 51.29C252.2 51.08 252 50.68 252 50.39C252 50.09 251.79 49.25 251.53 48.51C251.28 47.77 250.81 46.19 250.5 45C250.19 43.81 249.79 42.47 249.61 42.02C249.43 41.57 249.16 40.6 248.99 39.85C248.31 36.75 247.74 35.17 247.3 35.17C247.04 35.17 246.79 35.54 246.73 36C246.68 36.46 246.43 37.51 246.18 38.33C245.72 39.88 245.11 42.02 244.15 45.5C242.83 50.26 242.46 51.16 241.78 51.27C241.05 51.37 241.1 51.51 238.45 42C238.17 40.99 237.73 39.49 237.47 38.67C237.21 37.84 237 36.85 237 36.46C237 35.83 236.12 34.7 235.89 35.04C235.75 35.24 234.99 38.03 234.68 39.48C234.53 40.2 234.13 40.99 233.8 41.23C233.32 41.58 226.08 41.67 195.66 41.67C154.11 41.67 156.18 41.56 153.98 43.81C153.39 44.41 152.63 45.64 152.29 46.54C151.71 48.06 151.67 49.5 151.67 69.08L151.67 90L152.8 90C154.93 90 159.15 91.5 161.97 93.26C167.87 96.96 171.67 103.78 171.67 110.67C171.67 117.61 167.72 124.59 161.65 128.4C158.92 130.11 154.61 131.67 152.63 131.67L151.67 131.67L151.67 155.83L151.67 180L265.75 179.92L379.83 179.83L379.92 155.75ZM23.58 169.31C22.86 168.88 22.82 167.47 23.53 167.2C24.38 166.88 27.32 166.97 28.02 167.35C29.58 168.18 28.06 169.67 25.68 169.66C24.85 169.65 23.9 169.49 23.58 169.31ZM423.5 144.74L420.83 144.64L420.83 139.15C420.83 135.7 420.96 133.68 421.17 133.69C421.35 133.7 421.79 133.83 422.14 133.97C422.72 134.19 422.73 134.24 422.23 134.43C421.8 134.59 421.67 135.07 421.67 136.42C421.67 137.4 421.85 138.38 422.07 138.6C422.38 138.91 422.38 139.09 422.07 139.4C421.45 140.02 421.56 142.85 422.23 143.52C422.68 143.96 423.19 144.04 424.73 143.91C425.8 143.81 426.74 143.85 426.83 143.99C427.19 144.57 426.04 144.83 423.5 144.74ZM434.8 144.41C434.7 144.09 434.48 143.61 434.3 143.33C434.12 143.06 433.89 142.57 433.78 142.25C433.36 140.98 431.77 141.75 430.99 143.59C430.67 144.36 429.8 144.91 429.45 144.56C429.34 144.45 429.8 143.63 430.46 142.72C431.64 141.11 432 140 431.33 140C431.15 140 431 139.79 431 139.52C431 139.26 430.81 138.85 430.58 138.61C430.35 138.36 429.96 137.9 429.71 137.58C429.3 137.06 429.34 137 430.06 137C430.7 137 430.99 137.31 431.49 138.52C432.39 140.7 433.4 140.37 434.87 137.42C434.98 137.19 435.3 137 435.58 137C436.02 137 436.01 137.1 435.54 137.75C435.24 138.16 434.85 138.84 434.67 139.25C434.49 139.66 434.2 140 434.01 140C433.53 140 433.58 140.87 434.1 141.39C434.58 141.89 436 144.15 436 144.42C436 144.93 434.95 144.92 434.8 144.41ZM444.78 144.65C444.56 144.43 444.49 143.15 444.59 141.23L444.75 138.16L443.62 137.6C442.57 137.08 442.55 137.04 443.33 137.03C443.79 137.02 444.49 137.36 444.89 137.78C445.51 138.43 445.63 138.98 445.69 141.46C445.76 144.35 445.48 145.34 444.78 144.65ZM449.97 144.98C449.96 144.9 449.92 142.99 449.89 140.74C449.84 137.26 449.91 136.66 450.33 136.75C450.75 136.83 450.82 137.49 450.76 140.65C450.72 142.74 450.53 144.61 450.34 144.79C450.15 144.98 449.99 145.07 449.97 144.98ZM455.8 144.78C455.55 144.69 455.48 143.88 455.58 142.4C455.78 139.67 455.01 137.9 453.56 137.73C452.15 137.56 452.52 137 454.03 137C456.17 137 456.64 137.81 456.66 141.56C456.67 144.57 456.54 145.04 455.8 144.78ZM460.96 144.77C460.94 144.62 460.95 143.13 460.99 141.45C461.06 138.68 461 138.36 460.39 138.03C460.01 137.83 459.4 137.67 459.02 137.67C458.64 137.67 458.33 137.52 458.33 137.33C458.33 137.15 459 137 459.82 137C461.74 137 461.94 137.38 462.03 141.32C462.08 143.89 462 144.47 461.55 144.73C461.25 144.9 460.98 144.91 460.96 144.77ZM475.98 144.93C475.82 144.21 475.89 136.67 476.06 136.67C477.06 136.67 477.17 137.09 477.11 140.73C477.06 143.72 476.94 144.5 476.52 144.74C476.24 144.9 475.99 144.99 475.98 144.93ZM483.33 144.69C482.88 144.59 482.16 144.2 481.75 143.84C481.1 143.28 481 142.86 481 140.82C481 138.77 481.11 138.35 481.77 137.72C482.59 136.96 485.1 136.69 485.5 137.33C485.62 137.53 485.18 137.67 484.38 137.67C483.22 137.67 482.96 137.82 482.32 138.85C481.76 139.75 481.63 140.34 481.79 141.27C481.89 141.94 482.14 142.55 482.33 142.61C482.51 142.67 482.67 142.93 482.67 143.19C482.67 143.44 483.08 143.74 483.58 143.86C484.09 143.97 484.63 144.09 484.79 144.12C484.94 144.16 484.87 144.35 484.62 144.54C484.37 144.72 483.79 144.79 483.33 144.69ZM487.75 144.72C487.2 144.38 486.84 141.81 487.3 141.52C487.83 141.19 487.75 140.2 487.08 139.01C486.53 138.01 486.53 137.95 487.11 137.62C487.61 137.33 487.7 136.9 487.63 135.05C487.56 133.2 487.64 132.82 488.11 132.73C488.61 132.63 488.67 133.18 488.67 138.62C488.67 141.93 488.55 144.7 488.4 144.79C488.25 144.88 487.96 144.85 487.75 144.72ZM501.89 144.77C501.43 144.32 501.69 143.67 502.33 143.67C502.7 143.67 503 143.8 503 143.96C503 144.4 502.14 145.03 501.89 144.77ZM529.83 144.79C529.63 144.72 529.52 143.11 529.56 140.75C529.61 137.3 529.68 136.83 530.18 136.83C530.69 136.83 530.75 137.26 530.73 140.63C530.71 144.3 530.54 145.06 529.83 144.79ZM534.97 144.77C534.95 144.62 534.96 143.18 535 141.57C535.06 138.38 534.78 137.67 533.46 137.67C533.02 137.67 532.67 137.52 532.67 137.33C532.67 136.72 535.13 136.99 535.98 137.7C536.69 138.29 536.74 138.47 536.38 139.05C536.12 139.47 535.99 140.63 536.03 142.07C536.09 143.96 536 144.47 535.55 144.72C535.25 144.89 534.99 144.91 534.97 144.77ZM540.92 144.81C540.81 144.7 540.8 143.81 540.9 142.84C541 141.87 540.98 140.38 540.86 139.54C540.63 138.06 540.58 137.99 539.31 137.79C538.59 137.68 538 137.45 538 137.29C538 136.84 540.88 136.95 541.26 137.42C541.72 137.97 541.89 144.24 541.46 144.67C541.27 144.86 541.03 144.92 540.92 144.81ZM439.55 144.06C438.91 143.34 438.83 141.97 439.4 141.4C440.06 140.74 440.19 140.93 440.06 142.32C439.95 143.51 440.02 143.66 440.8 143.85C441.28 143.97 441.67 144.21 441.67 144.37C441.67 144.91 440.11 144.68 439.55 144.06ZM465.89 144.44C465.34 143.89 465.79 143.71 467.31 143.89C469.53 144.16 470.53 143.84 471.1 142.71C471.52 141.86 471.51 141.64 471.04 140.85C470.74 140.36 470.09 139.87 469.59 139.77C469.09 139.67 468.51 139.38 468.3 139.13C468.09 138.87 467.7 138.67 467.44 138.67C466.62 138.67 466.12 137.9 465.9 136.29C465.68 134.64 466.25 133.67 467.44 133.67C468.13 133.67 468.16 134.12 467.5 134.67C466.49 135.51 467.2 138 468.45 138C468.75 138 469 138.15 469 138.33C469 138.52 469.29 138.67 469.66 138.67C470.02 138.67 470.84 139.13 471.49 139.7C473.03 141.05 473.05 142.17 471.57 143.6C470.56 144.58 470.29 144.67 468.29 144.67C467.09 144.67 466.01 144.57 465.89 144.44ZM492.9 143.73C492.11 142.91 492 142.53 492 140.62C492 138.78 492.12 138.34 492.77 137.72C493.91 136.66 496.67 136.7 497.77 137.8C498.72 138.76 499.1 139.97 498.63 140.55C498 141.31 497.37 140.7 497.56 139.52C497.71 138.63 497.59 138.32 496.96 137.88C495.98 137.19 494.7 137.18 493.74 137.85C493.1 138.3 493 138.67 493 140.63C493 143.55 493.56 144.16 496.18 144.12C497.17 144.1 497.9 144.22 497.8 144.38C497.71 144.54 496.76 144.67 495.71 144.67C494.04 144.67 493.67 144.54 492.9 143.73ZM509.34 144.18C509.11 143.9 508.75 143.66 508.54 143.66C507.61 143.63 507.03 142.06 506.93 139.27C506.84 136.63 506.89 136.37 507.74 135.26C508.43 134.35 508.99 134 510.02 133.83C511.88 133.52 512.08 133.89 510.4 134.55C508.73 135.21 507.67 136.98 507.67 139.09C507.67 140.72 508.39 141.98 510.03 143.2C511.03 143.95 511.38 144.03 512.95 143.85C514.3 143.7 514.69 143.75 514.59 144.08C514.37 144.75 509.89 144.83 509.34 144.18ZM518.9 143.73C518.13 142.93 518 142.51 518 140.78C518 139.04 518.12 138.63 518.88 137.88C519.64 137.12 520.04 137 521.82 137C523.64 137 523.98 137.11 524.77 137.93C525.53 138.72 525.67 139.16 525.67 140.74C525.67 142.5 525.59 142.68 524.42 143.64C523.4 144.49 522.89 144.67 521.49 144.67C520.06 144.67 519.65 144.52 518.9 143.73ZM523.85 142.99C525.1 141.67 525.17 139.91 524.01 138.58C523.35 137.82 522.94 137.67 521.63 137.67C520.18 137.67 519.99 137.76 519.32 138.85C517.26 142.19 521.18 145.77 523.85 142.99ZM424.67 139C424.67 138.82 424.9 138.67 425.19 138.67C425.47 138.67 425.61 138.82 425.5 139C425.39 139.18 425.15 139.33 424.98 139.33C424.81 139.33 424.67 139.18 424.67 139ZM440 137.33C440 137.15 440.41 137 440.92 137.01C441.63 137.01 441.72 137.08 441.33 137.33C440.68 137.75 440 137.75 440 137.33ZM513.88 134.16C513.73 133.78 513.83 133.65 514.23 133.73C514.82 133.84 514.93 134.41 514.4 134.59C514.22 134.65 513.99 134.45 513.88 134.16ZM475.82 133.64C475.44 133.03 476.15 132.62 477.01 132.94L477.81 133.23L477.09 133.62C476.21 134.09 476.1 134.09 475.82 133.64ZM155 129.37C162.45 127.33 167.51 122.21 169.46 114.76C171.56 106.68 166.84 97.12 159 93.57C156.26 92.33 151.33 91.23 151.33 91.86C151.33 92.48 152.12 93.33 152.7 93.33C153.56 93.33 153.44 94.28 152.52 94.8C152.16 95 151.6 95.47 151.27 95.83C150.68 96.5 150.68 96.5 150.09 95.8C149.76 95.41 149.24 95 148.92 94.89C148.14 94.62 148.17 93.45 148.97 93.25C149.32 93.15 149.77 92.76 149.98 92.37C150.33 91.73 150.27 91.67 149.34 91.67C148.03 91.67 144.59 92.57 142.67 93.41C140.03 94.57 137.09 96.92 135.55 99.09C131.22 105.18 130.49 112.17 133.5 118.83C137.16 126.94 146.73 131.63 155 129.37ZM384.76 129.46C392.26 127.5 397.5 122.26 399.46 114.76C401.56 106.68 396.84 97.12 389 93.57C386.26 92.33 381.33 91.23 381.33 91.86C381.33 92.48 382.12 93.33 382.7 93.33C383.56 93.33 383.44 94.28 382.52 94.8C382.16 95 381.6 95.47 381.27 95.83C380.68 96.5 380.68 96.5 380.09 95.8C379.76 95.41 379.24 95 378.92 94.89C378.14 94.62 378.17 93.45 378.97 93.25C379.32 93.15 379.77 92.76 379.98 92.37C380.33 91.73 380.27 91.67 379.34 91.67C378.03 91.67 374.59 92.57 372.67 93.41C366.12 96.29 361.67 103.28 361.67 110.67C361.67 121.03 370.14 129.74 380.42 129.95C381.66 129.98 383.61 129.76 384.76 129.46ZM148.33 127.5C148.33 126.64 148.35 126.64 150.75 126.74C152.91 126.82 153.17 126.9 153.17 127.5C153.17 128.1 152.91 128.18 150.75 128.26C148.35 128.36 148.33 128.36 148.33 127.5ZM378.33 127.5C378.33 126.64 378.35 126.64 380.75 126.74C382.91 126.82 383.17 126.9 383.17 127.5C383.17 128.1 382.91 128.18 380.75 128.26C378.35 128.36 378.33 128.36 378.33 127.5ZM186.77 115.92C185.58 114.61 185.33 113.78 185.33 111.07C185.33 108.88 185.46 108.24 186.09 107.3C186.74 106.34 187.08 106.15 188.3 106.06C189.51 105.97 189.91 106.11 190.71 106.87C191.24 107.38 191.67 108.05 191.67 108.38C191.67 108.7 191.82 109.05 192 109.17C192.18 109.28 192.33 110.18 192.33 111.17C192.33 112.15 192.18 113.05 192 113.17C191.82 113.28 191.67 113.63 191.67 113.95C191.67 114.27 191.17 115.02 190.57 115.6C189.23 116.9 187.77 117.02 186.77 115.92ZM411.4 115.57C410.81 114.96 410.33 114.21 410.33 113.9C410.33 113.03 411.57 113.21 412.21 114.18C412.98 115.36 414.27 115.18 415.09 113.77C415.66 112.78 415.67 112.63 415.18 111.69C414.77 110.89 414.43 110.67 413.65 110.67C413.11 110.67 412.36 110.85 412 111.07C411.54 111.37 411.25 111.38 410.99 111.13C410.53 110.66 411.14 106.66 411.74 106.28C412.34 105.9 415.74 105.94 416.33 106.34C417.18 106.91 415.79 107.67 413.91 107.67C412.54 107.67 412.3 107.76 412.4 108.25C412.47 108.63 412.91 108.89 413.67 109C415.99 109.33 417.66 111.31 417.2 113.17C417.08 113.64 416.44 114.61 415.79 115.34C414.22 117.08 412.93 117.14 411.4 115.57ZM180.9 116.12C180.77 115.99 180.67 114.5 180.67 112.8L180.67 109.71L179.42 109.6C178.04 109.49 177.47 108.51 178.56 108.11C178.89 107.99 179.59 107.54 180.11 107.11C180.63 106.68 181.34 106.33 181.7 106.33C182.32 106.33 182.35 106.57 182.26 111.25C182.18 115.37 182.08 116.17 181.65 116.26C181.37 116.31 181.03 116.25 180.9 116.12ZM199.84 115.25C198.54 112.32 196.33 106.9 196.33 106.61C196.33 106.43 196.74 106.34 197.25 106.39C198.07 106.49 198.28 106.82 199.48 109.96C200.79 113.4 200.8 113.41 201.4 112.67C201.73 112.26 202 111.72 202 111.47C202 111.23 202.24 110.46 202.54 109.76C202.84 109.07 203.28 108.01 203.53 107.42C203.88 106.6 204.2 106.33 204.83 106.33C205.29 106.33 205.67 106.46 205.67 106.61C205.67 106.86 203.99 110.92 202.81 113.55C202.55 114.13 202.33 114.74 202.33 114.92C202.33 115.34 201.21 116.33 200.72 116.33C200.5 116.33 200.11 115.85 199.84 115.25ZM425.57 116.1C425.13 115.36 421.67 106.99 421.67 106.66C421.67 106.46 422.05 106.34 422.53 106.39C423.42 106.5 423.42 106.51 425.37 111.42C425.85 112.64 426.24 113.22 426.44 113.02C426.62 112.85 427.31 111.31 427.97 109.6C429.05 106.85 429.28 106.5 430.01 106.5C431.1 106.5 431.06 106.69 428.92 111.83C427.5 115.25 426.97 116.19 426.42 116.27C426.04 116.33 425.66 116.25 425.57 116.1ZM25.02 114.54C24.85 114.11 24.54 113.09 24.34 112.29C24.13 111.49 23.67 110.04 23.31 109.07C22.47 106.77 22.49 106.33 23.46 106.33C24.13 106.33 24.35 106.65 24.96 108.44C25.35 109.6 25.67 110.87 25.67 111.27C25.67 111.67 25.8 112 25.96 112C26.5 112 27.06 111.04 27.82 108.76C28.48 106.8 28.7 106.49 29.46 106.39C30.61 106.26 30.59 106.41 29.02 110.17C28.87 110.53 28.49 111.51 28.17 112.33C27.85 113.16 27.46 114.17 27.3 114.58C26.9 115.64 25.42 115.61 25.02 114.54ZM189.87 114.16C190.52 113.16 190.62 109.49 190.02 108.37C189.71 107.8 189.38 107.65 188.56 107.73C187.59 107.82 187.46 107.98 187.05 109.54C186.65 111.03 186.66 111.48 187.14 113.12C187.61 114.74 187.8 115 188.5 115C189.01 115 189.53 114.68 189.87 114.16ZM25.51 59.94C25.43 59.7 25.32 59.05 25.26 58.5C25.18 57.62 25.02 57.49 24 57.39C22.55 57.25 21.94 56.77 22.07 55.86C22.15 55.31 22.47 55.13 23.67 55C25.12 54.84 25.17 54.8 25.27 53.58C25.36 52.45 25.46 52.33 26.33 52.33C27.2 52.33 27.3 52.45 27.4 53.58C27.5 54.8 27.54 54.84 29 55C30.14 55.13 30.52 55.32 30.62 55.81C30.78 56.65 29.81 57.33 28.46 57.33C27.42 57.33 27.37 57.39 27.27 58.75C27.18 59.93 27.04 60.18 26.42 60.27C26 60.33 25.6 60.18 25.51 59.94ZM28.47 43.47C29.75 42.2 30 41.74 30 40.68C30 39.64 29.75 39.17 28.63 38.04C27.41 36.82 27.08 36.67 25.68 36.67C24.32 36.67 23.95 36.83 22.89 37.89C21.83 38.95 21.67 39.32 21.67 40.68C21.67 42.08 21.82 42.41 23.04 43.63C24.17 44.75 24.64 45 25.68 45C26.74 45 27.2 44.75 28.47 43.47ZM246.97 15.69C245.85 14.57 245.67 13.33 246.63 13.33C246.97 13.33 247.5 13.71 247.8 14.17C248.49 15.22 249.34 15.23 250.32 14.19C251.24 13.21 251.06 11.67 250.02 11.67C248.22 11.67 247.77 10.64 249.25 9.93C249.89 9.63 250.17 9.24 250.17 8.66C250.17 7.43 248.54 7.31 247.63 8.48C246.78 9.55 246 9.59 246 8.56C246 7.37 247.64 6 249.07 6C250.02 6 250.48 6.24 251.32 7.2C251.89 7.86 252.32 8.49 252.26 8.61C251.18 10.73 251.19 10.64 251.94 11.44C253.06 12.62 252.87 13.87 251.37 15.37C249.73 17.02 248.4 17.11 246.97 15.69ZM257.75 16.28C257.15 15.69 257.22 15.49 258.18 15.05C258.99 14.69 259.01 14.62 258.52 13.92C258.16 13.42 258 12.41 258 10.72C258 8.31 258.02 8.23 259.23 7.13C260.25 6.2 260.72 6 261.96 6C265.48 6 267.81 9.96 266.16 13.12C265.53 14.34 265.54 14.67 266.24 15.18C267.5 16.1 265.01 17.16 263.19 16.46C262.45 16.18 262.54 15.22 263.37 14.47C265.1 12.9 265.43 10.47 264.17 8.55C263.69 7.83 263.34 7.67 262.18 7.67C261.26 7.67 260.59 7.87 260.25 8.25C258.92 9.73 259.3 13.4 260.91 14.67C261.63 15.23 261.73 15.48 261.45 15.94C261.01 16.64 258.35 16.88 257.75 16.28Z" fill="#1e2749" fill-rule="evenodd"/>
</svg>
