<?xml version="1.0" encoding="UTF-8"?>
<svg xmlns="http://www.w3.org/2000/svg" viewBox="0 0 346 273" width="346" height="273" shape-rendering="geometricPrecision">
<path d="M313.76 263.58C312.28 261.96 311.86 260.63 311.85 257.5C311.84 254.96 311.96 254.26 312.65 252.91C313.17 251.88 313.74 251.24 314.25 251.12C315.47 250.81 315.52 251.19 314.47 253.08C313.64 254.59 313.5 255.19 313.5 257.37C313.5 259.86 313.77 260.78 315.06 262.7C315.5 263.35 315.54 263.66 315.25 263.95C314.72 264.48 314.55 264.44 313.76 263.58ZM327.1 263.79C326.99 263.49 327.1 262.93 327.34 262.54C328.57 260.61 329 259.26 329 257.34C329 255.38 328.19 253.03 327.34 252.5C327.15 252.39 327 251.99 327 251.62C327 250.44 328.38 251.02 329.49 252.67C330.35 253.95 330.51 254.54 330.62 256.77C330.75 259.68 330.2 261.65 328.77 263.35C327.83 264.46 327.41 264.58 327.1 263.79ZM299.14 261.89C299.05 261.64 299.01 260.25 299.07 258.8L299.17 256.17L301.17 256.27C302.78 256.36 303.3 256.53 303.86 257.18C304.39 257.78 304.65 257.88 304.95 257.59C305.16 257.37 305.33 257.02 305.33 256.8C305.33 256.58 305.57 256.31 305.86 256.2C306.64 255.9 308.76 255.97 309.29 256.3C310.06 256.79 309.35 257.36 308.09 257.26C306.38 257.13 306.37 257.84 308.06 258.59C308.85 258.94 309.71 259.48 309.97 259.79C310.38 260.29 310.35 260.48 309.77 261.27C309.2 262.03 308.81 262.18 307.22 262.27C305.69 262.35 305.33 262.27 305.33 261.85C305.33 261.47 305.68 261.33 306.63 261.33C307.34 261.33 308.08 261.13 308.29 260.89C308.67 260.42 308.46 260.27 306.25 259.38C305.75 259.18 305.33 258.86 305.33 258.67C305.33 257.87 304.73 258.42 304.54 259.4C304.42 259.99 303.92 260.89 303.43 261.4C302.7 262.17 302.26 262.33 300.93 262.33C299.89 262.33 299.25 262.17 299.14 261.89ZM320.56 261.25C319.91 260.77 317 253.33 317 252.13C317 251.56 317.19 251.33 317.65 251.33C318.42 251.33 318.81 251.98 319.7 254.69C320.9 258.35 320.96 258.45 321.51 258C321.78 257.77 322 257.39 322 257.15C322 256.92 322.47 255.5 323.04 254.01C323.93 251.68 324.17 251.31 324.79 251.4C325.55 251.51 325.64 252.47 325.03 253.83C324.87 254.2 324.22 255.91 323.59 257.64C322.36 261.02 321.55 261.98 320.56 261.25ZM292.41 260.92C291.94 260.33 289.61 253.73 289.42 252.42C289.31 251.65 289.39 251.33 289.71 251.34C290.64 251.35 291.03 251.95 292.1 255.02C292.71 256.75 293.34 258.15 293.51 258.13C293.92 258.08 294.13 257.64 295.36 254.25C296.16 252.05 296.57 251.33 297.02 251.33C297.36 251.33 297.71 251.47 297.81 251.63C298.02 251.97 295.2 260.19 294.64 260.87C294.16 261.45 292.86 261.47 292.41 260.92ZM302.55 260.48C303.21 259.82 303.35 259.44 303.17 258.74C302.9 257.66 302.47 257.35 301.25 257.34C300.36 257.33 300.33 257.39 300.33 259.11C300.33 261.62 301 262.03 302.55 260.48ZM54.64 247.8C53.88 246.88 53.83 242.42 54.57 241C56.1 238.02 59.82 238.58 60.95 241.97C61.81 244.53 60.96 248.17 59.5 248.17C58.98 248.17 58.86 247.98 58.94 247.33C59.56 242.71 59.2 240.92 57.6 240.73C56.26 240.57 55.92 241.55 56.05 245.12C56.15 247.69 56.09 248.17 55.64 248.26C55.34 248.32 54.89 248.11 54.64 247.8ZM316.52 244.27C316.44 244.03 316.32 243.53 316.26 243.17C316.16 242.5 315.83 242.5 190.05 242.33L63.94 242.17L63.39 240.83C62.76 239.31 62.72 235.42 63.24 224C63.51 218.19 63.48 217.08 63.07 216.6C62.68 216.14 62.61 215.12 62.71 211.6L62.83 207.17L56.69 207.08C50.6 206.99 49.67 206.81 49.67 205.79C49.67 205.42 50.84 205.33 55.95 205.33C61.74 205.33 62.28 205.28 62.81 204.69C63.35 204.09 63.41 202.5 63.58 184.41C63.68 173.62 63.67 164.38 63.54 163.89L63.32 163L55.85 163C51.75 163 48.15 162.91 47.86 162.8C47.24 162.56 47.15 161.34 47.75 161.32C47.98 161.31 51.29 161.31 55.12 161.33C60.93 161.36 62.2 161.28 62.87 160.84L63.67 160.31L63.59 137.07L63.5 113.83L55.5 113.67C47.51 113.5 47.5 113.5 47.39 112.75L47.29 112L55.08 112C60.69 112 62.98 111.89 63.27 111.6C63.57 111.3 63.67 106.47 63.67 91.93C63.67 81.34 63.63 72.64 63.58 72.6C63.54 72.56 59.9 72.45 55.5 72.35L47.5 72.17L47.5 71.33L47.5 70.5L55.14 70.41C60.09 70.35 62.94 70.19 63.22 69.95C63.58 69.66 63.67 67.08 63.67 57.14L63.67 44.69L62.58 44.41C61.99 44.25 61.46 43.9 61.4 43.62C61.35 43.35 61.86 41.97 62.52 40.56C64.17 37.09 64.71 37.1 66.46 40.68C67.54 42.86 67.69 43.41 67.34 43.83C67.11 44.11 66.56 44.33 66.13 44.33L65.33 44.33L65.34 112.42C65.35 172.35 65.41 180.42 65.84 179.85C66.11 179.5 66.34 178.75 66.34 178.19C66.34 177.63 66.65 175.74 67.02 174C67.39 172.26 67.91 169.78 68.18 168.5C69.98 159.89 74.43 145.2 76.65 140.5C76.83 140.13 77.37 138.86 77.85 137.67C79.32 134.06 83.18 126.38 85.4 122.64C93.74 108.6 104.14 99.16 114.83 95.9C117.78 95 120.58 94.57 121.73 94.85C122.34 95 162.28 95.21 210.5 95.31L298.17 95.5L298.27 96.36C298.32 96.84 298.16 97.4 297.9 97.61C297.33 98.09 123.64 98.18 122.73 97.71C122.09 97.37 120.76 97.5 117.67 98.21C104.83 101.13 93.29 112.63 83.59 132.17C82.5 134.37 81.32 136.92 80.96 137.83C80.61 138.75 80.18 139.8 80.01 140.17C78.54 143.33 75.18 153.04 73.84 158C73.52 159.19 73.06 160.84 72.82 161.67C72.3 163.5 71.54 166.67 70.83 170C70.54 171.38 70.16 173.1 69.99 173.83C69.82 174.57 69.37 177.12 69 179.5C68.63 181.88 68.18 184.58 68.01 185.5C67.83 186.42 67.6 188.14 67.48 189.33C67.37 190.53 67.07 193.02 66.81 194.88C66.25 198.85 66.18 201.62 66.66 201.14C66.83 200.97 67.51 198.77 68.15 196.26C74.01 173.37 85.45 154.23 99.38 143.99C102.25 141.87 108.53 138.34 109.42 138.33C109.65 138.33 110.21 138.14 110.67 137.9C111.65 137.39 114.75 136.6 118.67 135.85C121.24 135.36 129.42 135.32 208.83 135.4L296.17 135.5L296.27 136.44C296.33 136.95 296.2 137.59 295.98 137.85C295.64 138.27 283.93 138.34 209.04 138.35C161.44 138.36 121.52 138.49 120.33 138.64C112.62 139.63 106.73 142.08 100.12 147.04C97.31 149.15 92.42 153.96 89.83 157.17C83.42 165.11 77.36 176.79 73.32 188.99C71.09 195.72 68.46 206.24 68.78 207.15C68.87 207.43 71.33 202.66 71.33 202.2C71.33 201.87 74.64 196.16 76.23 193.73C82.18 184.67 89.65 177.64 98.33 172.94C104.1 169.82 109.59 167.98 115.67 167.15C120.72 166.46 121.48 166.5 122.14 167.5L122.68 168.33L206.42 168.42L290.17 168.5L290.27 169.38C290.34 170 290.14 170.43 289.61 170.8C288.92 171.29 281.04 171.33 202.44 171.33C122.43 171.33 115.94 171.29 114.86 170.78C113.76 170.26 113.56 170.26 111.59 170.81C107.98 171.83 102.92 173.76 100.66 174.99C99.47 175.64 98.09 176.38 97.59 176.63C95.71 177.61 90.06 182.09 87.39 184.74C77 195.02 70.15 208.5 66.99 224.88C66.53 227.24 66.72 228.35 67.31 226.85C68.03 225.04 71.92 220.19 74.56 217.82C77.46 215.22 82.52 211.86 85.33 210.68C86.34 210.26 87.92 209.57 88.83 209.15C89.75 208.74 91.4 208.14 92.5 207.83C93.6 207.52 95.17 207.07 96 206.83C96.83 206.58 98.55 206.2 99.83 205.98C101.12 205.76 102.57 205.38 103.07 205.12C103.82 204.74 118.66 204.67 196.14 204.67L288.32 204.67L288.54 205.56C288.72 206.25 288.6 206.58 288.01 207.06C287.28 207.65 284.05 207.67 195.67 207.66C114.79 207.66 103.98 207.72 103.13 208.16C102.6 208.44 101.85 208.66 101.46 208.66C101.07 208.67 99.57 208.98 98.13 209.36C96.68 209.73 94.9 210.19 94.17 210.36C92.3 210.81 91.55 211.1 86.33 213.42C83.77 214.55 79.26 217.53 76.56 219.86C70.78 224.86 67.15 232.06 67.4 238L67.5 240.5L191.67 240.5L315.83 240.5L316.15 239.42C316.33 238.82 316.67 238.33 316.91 238.33C317.55 238.33 321.8 240.52 322.27 241.09C322.78 241.71 322.55 241.9 319.5 243.35C318.22 243.96 317.05 244.51 316.91 244.58C316.78 244.65 316.6 244.51 316.52 244.27ZM40.62 208.94C40.6 208.7 40.61 207.45 40.65 206.17C40.72 204.04 40.65 203.76 39.86 203.03C39.39 202.58 39 202.05 39 201.84C39 201.29 41.65 200.19 42.04 200.57C42.21 200.75 42.31 202.74 42.26 205.03C42.17 209.03 42.14 209.17 41.42 209.27C40.98 209.34 40.65 209.2 40.62 208.94ZM257.75 193.45C257.04 193.16 257.29 192.39 258.25 191.93C259.08 191.54 259.18 191.3 259.27 189.51C259.4 187 259.17 186.1 258.33 185.83C257.31 185.51 257.56 184.56 258.84 183.93C260.83 182.93 261 183.23 261 187.71C261 191.62 261.01 191.69 261.83 192.06C262.83 192.52 262.89 192.86 262.02 193.32C261.37 193.67 258.51 193.75 257.75 193.45ZM267.75 192.92C267.29 192.34 264.67 184.7 264.67 183.95C264.67 183.55 264.91 183.33 265.35 183.33C266.02 183.33 267.02 185.12 267.56 187.28C268.02 189.16 268.7 190.43 269.06 190.08C269.25 189.89 269.89 188.33 270.48 186.62C271.23 184.45 271.74 183.47 272.15 183.39C273.47 183.13 273.41 183.91 271.81 188.22C270 193.1 269.86 193.33 268.83 193.33C268.42 193.33 267.93 193.15 267.75 192.92ZM36.49 164.99C36.37 164.79 37.34 163.52 38.64 162.15C39.94 160.78 41 159.46 41 159.22C41 158.02 39 157.29 37.68 157.99C37.25 158.23 36.96 158.19 36.7 157.87C36.08 157.12 36.63 156.42 38.03 156.2C41.92 155.58 43.93 158.31 41.81 161.37C40.78 162.86 37.91 165.33 37.21 165.33C36.93 165.33 36.61 165.18 36.49 164.99ZM257.08 159.32C255.88 158.84 256.19 158.08 258.52 155.78C260.75 153.57 261.46 152.4 261.12 151.5C260.85 150.8 259.4 150.5 258.29 150.91C257.23 151.31 257 151.18 257 150.14C257 149.5 257.23 149.36 258.65 149.17C260.66 148.89 261.89 149.41 262.75 150.89C263.31 151.86 263.32 152.05 262.87 153.13C262.6 153.77 261.69 154.99 260.86 155.83C260.02 156.67 259.33 157.5 259.33 157.68C259.33 157.85 260.15 158 261.15 158C263.06 158 263.65 158.38 262.99 159.18C262.53 159.74 258.36 159.84 257.08 159.32ZM267.75 158.92C267.29 158.34 264.67 150.7 264.67 149.95C264.67 149.55 264.91 149.33 265.35 149.33C266.02 149.33 267.02 151.12 267.56 153.28C268.02 155.16 268.7 156.43 269.06 156.08C269.25 155.89 269.89 154.33 270.48 152.62C271.23 150.45 271.74 149.47 272.15 149.39C273.47 149.13 273.41 149.91 271.81 154.22C270 159.1 269.86 159.33 268.83 159.33C268.42 159.33 267.93 159.15 267.75 158.92ZM258.51 130.21C257.35 129.37 258.09 128.76 260.07 128.92C261.72 129.06 261.92 129 262.43 128.22C263.15 127.13 262.92 126.58 261.49 125.89C260.13 125.25 259.99 124.43 261.18 124.13C262.29 123.85 262.77 122.94 262.21 122.17C261.8 121.61 260.71 121.56 259 122.03C258.65 122.12 258.5 121.91 258.5 121.33C258.5 120.61 258.7 120.46 260.02 120.21C261.24 119.97 261.8 120.03 262.8 120.51C264.5 121.31 264.93 122.48 264 123.74L263.3 124.69L263.98 125.55C265.02 126.87 264.87 128.2 263.53 129.53C262.55 130.51 262.18 130.67 260.76 130.67C259.86 130.67 258.85 130.46 258.51 130.21ZM269.55 130.25C268.92 129.78 266 122.26 266 121.08C266 120.56 266.2 120.33 266.65 120.33C267.42 120.33 267.7 120.79 268.61 123.51C269.91 127.36 269.96 127.45 270.51 127C270.78 126.77 271 126.39 271 126.15C271 125.92 271.47 124.5 272.04 123.01C272.93 120.68 273.17 120.31 273.79 120.4C274.55 120.51 274.64 121.47 274.03 122.83C273.87 123.2 273.22 124.91 272.59 126.64C271.36 130.02 270.55 130.98 269.55 130.25ZM40.22 117.11C40.09 116.98 40.07 116.42 40.17 115.86C40.38 114.66 40.16 114.3 38.92 113.75C37.77 113.25 37.73 112.41 38.84 112.13C40.72 111.66 40.48 109.67 38.55 109.67C37.95 109.67 37.29 109.85 37.07 110.07C36.54 110.59 35.89 109.98 36.05 109.12C36.14 108.68 36.61 108.41 37.67 108.21C39.53 107.85 41.28 108.49 41.98 109.79C42.41 110.6 42.39 110.77 41.71 111.68L40.97 112.69L41.65 113.55C42.03 114.03 42.33 114.83 42.33 115.33C42.33 116.6 40.91 117.8 40.22 117.11ZM39.39 77.5C38.77 76.78 38.46 76.67 37.53 76.85C36.1 77.12 35 76.55 35 75.54C35 75.08 35.91 73.65 37.22 72.03C39.09 69.74 39.58 69.32 40.3 69.4C41.14 69.5 41.17 69.57 41.26 72.17C41.33 74.19 41.49 74.93 41.91 75.25C42.42 75.64 42.41 75.76 41.75 76.92C40.87 78.47 40.35 78.6 39.39 77.5ZM39.14 74.69C39.81 73.96 39.73 72.88 39 72.76C38.72 72.71 38.22 73.06 37.89 73.52C36.81 75.01 37.92 76.04 39.14 74.69ZM235.58 73.4C234.39 73.16 234.97 72.37 236.41 72.27C238.41 72.12 238.52 71.23 236.62 70.62C234.87 70.06 234.23 68.71 235.2 67.63C235.67 67.11 236.14 66.99 237.48 67.07C238.71 67.14 239.17 67.3 239.17 67.67C239.17 68.03 238.8 68.17 237.86 68.17C236.04 68.17 236.02 68.83 237.82 69.63C239.59 70.41 239.97 71.1 239.29 72.3C238.94 72.94 238.46 73.21 237.49 73.34C236.76 73.44 235.9 73.46 235.58 73.4ZM229.02 72.37C228.57 71.73 228.33 70.88 228.33 69.89C228.33 68.66 228.49 68.26 229.21 67.69C230.09 67 231.74 66.81 233.26 67.21C234.57 67.56 233.86 68.17 232.14 68.17C230.03 68.17 229.67 68.43 229.67 69.97C229.67 71.37 230.45 72.33 231.59 72.33C232.57 72.33 232.85 71.71 232.12 71.17C231.18 70.48 232.01 69.76 233.25 70.19C233.92 70.43 234.2 70.77 234.28 71.49C234.43 72.81 233.63 73.33 231.46 73.33C229.91 73.33 229.63 73.22 229.02 72.37ZM222.56 71.25C221.91 70.77 219 63.33 219 62.13C219 61.56 219.19 61.33 219.65 61.33C220.42 61.33 220.81 61.98 221.7 64.69C222.9 68.35 222.96 68.45 223.51 68C223.78 67.77 224 67.39 224 67.15C224 66.92 224.46 65.51 225.03 64.03C225.83 61.93 226.2 61.33 226.71 61.33C227.61 61.33 227.81 62.09 227.23 63.39C226.97 64 226.23 65.91 225.6 67.64C224.36 71.02 223.55 71.98 222.56 71.25ZM255.94 70.25C255.84 69.2 255.78 69.16 253.96 68.97C251.67 68.72 251.33 68.52 251.33 67.45C251.33 66.55 254.87 62.09 256.02 61.54C257.33 60.91 257.67 61.48 257.67 64.31C257.67 66.68 257.75 67.02 258.36 67.35L259.06 67.72L258.36 68.47C257.98 68.88 257.67 69.51 257.67 69.87C257.67 71.48 256.09 71.83 255.94 70.25ZM262.75 70.92C262.29 70.34 259.67 62.7 259.67 61.95C259.67 61.55 259.91 61.33 260.35 61.33C261.02 61.33 262.02 63.12 262.56 65.28C263.02 67.16 263.7 68.43 264.06 68.08C264.25 67.89 264.89 66.33 265.48 64.62C266.23 62.45 266.74 61.47 267.15 61.39C268.47 61.13 268.41 61.91 266.81 66.22C265 71.1 264.86 71.33 263.83 71.33C263.42 71.33 262.93 71.15 262.75 70.92ZM241.73 68.58C241.83 67.87 242 67.83 245.12 67.74C248.58 67.64 249.71 67.97 248.96 68.88C248.69 69.21 247.64 69.33 245.1 69.33C241.68 69.33 241.62 69.32 241.73 68.58ZM255.36 66.99C256.07 66.61 256.28 64.67 255.6 64.67C254.98 64.67 253.67 66.06 253.67 66.72C253.67 67.4 254.38 67.51 255.36 66.99ZM241.85 66.22C240.64 65.33 241.59 65 245.33 65C249.08 65 250.03 65.33 248.82 66.22C248.42 66.51 247.22 66.67 245.33 66.67C243.45 66.67 242.25 66.51 241.85 66.22ZM86.76 33.58C85.28 31.96 84.86 30.63 84.85 27.5C84.84 24.96 84.96 24.26 85.65 22.91C86.17 21.88 86.74 21.24 87.25 21.12C88.47 20.81 88.52 21.19 87.47 23.08C86.64 24.59 86.5 25.19 86.5 27.37C86.5 29.86 86.77 30.78 88.06 32.7C88.5 33.35 88.54 33.66 88.25 33.95C87.72 34.48 87.55 34.44 86.76 33.58ZM113.1 33.79C112.99 33.49 113.1 32.93 113.34 32.54C114.57 30.61 115 29.26 115 27.34C115 25.38 114.19 23.03 113.34 22.5C113.15 22.39 113 21.99 113 21.62C113 20.44 114.38 21.02 115.49 22.67C116.35 23.95 116.51 24.54 116.62 26.77C116.75 29.68 116.2 31.65 114.77 33.35C113.83 34.46 113.41 34.58 113.1 33.79ZM72.14 32.89C72.05 32.64 72.01 31.25 72.07 29.8L72.17 27.17L74.17 27.28C76.6 27.41 77.48 28.15 77.48 30.05C77.48 30.98 77.23 31.57 76.51 32.32C75.69 33.18 75.29 33.33 73.93 33.33C72.89 33.33 72.25 33.17 72.14 32.89ZM78.33 32.85C78.33 32.47 78.68 32.33 79.6 32.33C81.18 32.33 81.89 31.75 81.07 31.12C80.76 30.88 80.25 30.68 79.94 30.68C79.64 30.67 79.02 30.34 78.57 29.93C77.85 29.3 77.79 29.09 78.11 28.35C78.32 27.88 78.64 27.39 78.83 27.26C79.3 26.92 81.73 26.95 82.29 27.3C83.06 27.79 82.35 28.36 81.09 28.26C79.38 28.13 79.37 28.84 81.06 29.59C81.85 29.94 82.71 30.48 82.97 30.79C83.38 31.29 83.35 31.48 82.77 32.27C82.2 33.03 81.81 33.18 80.22 33.27C78.69 33.35 78.33 33.27 78.33 32.85ZM75.55 31.48C76.21 30.82 76.35 30.44 76.17 29.74C75.9 28.66 75.47 28.35 74.25 28.34C73.36 28.33 73.33 28.39 73.33 30.11C73.33 32.62 74 33.03 75.55 31.48ZM66.92 31.44C66.14 31.23 66.18 30.58 67 29.83C67.56 29.32 67.67 28.81 67.67 26.51C67.67 24.64 67.51 23.59 67.18 23.15C66.16 21.8 66.5 21.33 68.5 21.33C69.51 21.33 70.33 21.47 70.33 21.63C70.33 21.79 70.11 22.35 69.84 22.88C69.11 24.26 69.14 29.24 69.88 30.05C70.94 31.22 69.2 32.03 66.92 31.44ZM90.9 31.12C90.77 30.99 90.67 29.36 90.67 27.49L90.67 24.09L92.84 23.87C94.21 23.73 95.26 23.78 95.69 24.01C96.19 24.28 96.67 24.28 97.41 24.02C98.92 23.5 99.81 23.58 100.79 24.36C101.61 25 101.67 25.22 101.67 27.82C101.67 29.83 101.53 30.69 101.18 30.99C100.31 31.71 100 31.01 100 28.35C100 26.28 99.89 25.7 99.47 25.54C97.71 24.86 96.95 25.83 97.24 28.38C97.44 30.14 96.93 31.33 95.99 31.33C95.39 31.33 95.33 31.1 95.33 28.73C95.33 25.88 95.06 25.33 93.61 25.33C92.53 25.33 92.38 25.73 92.25 29C92.19 30.64 92.04 31.18 91.65 31.26C91.37 31.31 91.03 31.25 90.9 31.12ZM102.46 30.85C102.35 30.56 102.4 30.14 102.57 29.91C102.75 29.69 103.46 27.85 104.15 25.83C105.59 21.67 105.79 21.33 106.83 21.33C107.91 21.33 108.22 21.84 109.73 26.06C111.35 30.58 111.42 31.13 110.43 31.27C109.86 31.35 109.58 31.12 109.21 30.23C108.79 29.21 108.57 29.06 107.28 28.93C105.29 28.73 104.91 28.88 104.33 30.11C103.78 31.28 102.78 31.68 102.46 30.85ZM107.65 26.86C107.96 26.49 107.93 26.16 107.51 25.36C107.22 24.79 106.87 24.33 106.73 24.33C106.35 24.33 105.59 26.6 105.83 27C106.14 27.49 107.19 27.41 107.65 26.86Z" fill="#1e2749" fill-rule="evenodd"/>
</svg>
