<?xml version="1.0" encoding="UTF-8"?>
<svg xmlns="http://www.w3.org/2000/svg" viewBox="0 0 341 201" width="341" height="201" shape-rendering="geometricPrecision">
<path d="M249.36 177.4C249.16 177.33 249 176.97 249 176.59C249 175.96 249.14 175.92 251.03 176.09C253.27 176.29 253.65 176.48 253.04 177.09C252.66 177.47 250.19 177.68 249.36 177.4ZM251.67 173.81C251.67 173.64 251.81 172.98 252 172.35C252.39 170.97 251.78 169.79 250.5 169.47C249.16 169.13 249.47 168.33 250.94 168.33C253.51 168.33 254.48 171.47 252.49 173.34C252.04 173.77 251.67 173.98 251.67 173.81ZM239.1 171.92C238.92 171.69 237.78 169.02 236.55 166C233.65 158.86 233.37 158.33 232.08 157.57C230.13 156.42 230.65 156.04 234.17 156.06C235.92 156.07 237.42 156.2 237.51 156.35C237.6 156.49 237.3 156.91 236.84 157.27C236.38 157.63 236 158.25 236 158.64C236 159.03 236.73 161.04 237.63 163.09C238.53 165.15 239.35 167.11 239.46 167.44C239.59 167.84 239.92 168.01 240.41 167.94C240.97 167.86 241.2 167.55 241.35 166.67C241.46 166.02 241.71 165.2 241.91 164.83C242.12 164.47 242.37 163.9 242.47 163.58C242.56 163.26 242.8 163 242.99 163C243.51 163 243.4 164.2 242.83 164.67C242.56 164.89 242.33 165.4 242.33 165.8C242.33 166.2 242.14 166.81 241.9 167.18C241.66 167.54 241.27 168.66 241.02 169.67C240.58 171.48 240.15 172.33 239.67 172.33C239.53 172.33 239.27 172.15 239.1 171.92ZM85.3 169.15C83.76 167.99 79.11 165.04 78.14 164.59C77.7 164.39 77.25 163.93 77.13 163.56C76.9 162.81 77.63 162.1 79.83 160.94C80.57 160.56 82.4 159.5 83.9 158.6C86.2 157.22 86.75 157.02 87.32 157.33C88.44 157.92 88.16 158.91 86.64 159.68C85.9 160.06 85.35 160.55 85.42 160.77C85.52 161.07 92.5 161.19 114.96 161.25L144.37 161.34L144.27 163.25L144.17 165.17L114.75 165.25C96.4 165.3 85.33 165.46 85.33 165.65C85.33 165.83 86.01 166.37 86.83 166.85C87.66 167.33 88.33 167.85 88.33 167.99C88.33 168.36 87 170 86.7 170C86.56 170 85.93 169.62 85.3 169.15ZM150.79 169.17C149.62 168.68 148.82 167.08 149.14 165.84C149.33 165.07 151.53 163.33 152.32 163.33C152.5 163.33 153.17 162.87 153.81 162.31C154.84 161.4 154.93 161.21 154.6 160.48C154.3 159.83 153.98 159.67 153.01 159.67C151.87 159.67 151.76 159.76 151.48 160.92C151.25 161.84 150.99 162.17 150.5 162.17C149.97 162.17 149.81 161.91 149.73 160.95C149.64 159.9 149.78 159.63 150.73 158.95C152.72 157.53 155.92 158.21 156.68 160.21C156.86 160.67 157 162.6 157 164.5C157 166.55 157.14 168.05 157.35 168.18C157.83 168.47 157.09 169.34 156.38 169.33C156.08 169.32 155.46 169.03 155 168.68C154.25 168.1 154.21 167.95 154.56 167.01C155.04 165.74 154.76 163.67 154.11 163.67C153.59 163.67 151.97 164.63 151.59 165.16C151.45 165.35 151.34 166 151.34 166.61C151.33 167.54 151.5 167.79 152.34 168.1C152.89 168.31 153.29 168.62 153.24 168.79C153.03 169.4 151.79 169.59 150.79 169.17ZM219.33 168.81C218.83 167.52 218.89 167.4 220.37 166.65C221.2 166.22 221.63 165.83 221.44 165.64C221.26 165.46 209.07 165.3 192.15 165.25L163.17 165.17L163.07 163.25L162.97 161.33L191.94 161.33C217.03 161.33 220.97 161.27 221.32 160.84C221.66 160.44 221.53 160.26 220.55 159.79C219.22 159.16 218.96 158.73 219.23 157.67C219.48 156.73 220.35 156.94 223.28 158.67C224.5 159.38 226.17 160.34 227 160.78C227.82 161.23 228.79 161.91 229.14 162.31C229.78 163.01 229.78 163.03 229.13 163.9C228.76 164.38 228.19 164.94 227.85 165.14C227.51 165.34 225.8 166.44 224.05 167.58C222.3 168.73 220.59 169.67 220.26 169.67C219.91 169.67 219.51 169.3 219.33 168.81ZM243.33 161.35C243.33 160.7 243.9 160.12 244.22 160.44C244.48 160.7 244 162 243.64 162C243.47 162 243.33 161.71 243.33 161.35ZM244.33 159.04C244.33 158.65 243.96 158 243.5 157.6C242.08 156.37 242.4 156 244.94 156C246.2 156 247.32 156.1 247.45 156.22C247.74 156.51 246.69 157.67 246.14 157.67C245.9 157.67 245.62 157.95 245.51 158.3C245.4 158.65 245.09 159.12 244.82 159.34C244.42 159.68 244.33 159.62 244.33 159.04ZM137.42 151.42L73.33 151.33L73.33 148.83L73.33 146.33L74.83 146.33C76.21 146.33 76.33 146.4 76.33 147.16C76.33 147.74 76.56 148.04 77.08 148.18C77.5 148.28 109.42 148.32 148.03 148.27C224.47 148.16 219.33 148.3 219.33 146.29C219.33 145.38 219.4 145.33 220.83 145.33C222.24 145.33 222.33 145.39 222.36 146.25C222.41 148.36 220.17 148.2 250.13 148.18C271.52 148.17 277.45 148.26 277.58 148.58C277.66 148.81 277.6 149.55 277.44 150.23L277.15 151.46L239.33 151.48C218.52 151.49 172.66 151.46 137.42 151.42ZM64.16 151.07C63.98 150.94 63.17 149.86 62.36 148.67C61.55 147.47 60.24 145.55 59.45 144.4C58.65 143.24 58 142.08 58 141.82C58 141.56 58.39 141.09 58.88 140.77C59.73 140.21 59.77 140.22 60.51 141.08C60.92 141.56 61.33 142.14 61.4 142.37C61.48 142.6 61.7 142.69 61.9 142.56C62.13 142.42 62.27 139.14 62.31 132.77C62.34 127.5 62.39 123.16 62.43 123.13C62.47 123.1 63.32 123.02 64.33 122.95L66.17 122.83L66.25 132.99C66.3 138.57 66.48 143.28 66.64 143.44C66.81 143.61 67.32 143.08 67.84 142.18C68.6 140.88 68.89 140.65 69.63 140.73C71.06 140.9 70.88 141.97 68.93 144.82C67.96 146.25 66.69 148.16 66.12 149.07C64.82 151.12 64.58 151.37 64.16 151.07ZM73.26 142.27C73.17 141.11 73.17 139.98 73.25 139.75C73.34 139.5 74 139.33 74.88 139.33L76.36 139.33L76.26 141.75L76.17 144.17L74.79 144.27L73.42 144.37L73.26 142.27ZM219.33 141.35L219.33 138.33L220.85 138.33L222.36 138.33L222.26 141.25L222.17 144.17L220.75 144.27L219.33 144.37L219.33 141.35ZM73.33 135.83L73.33 133.33L74.83 133.33L76.33 133.33L76.33 135.43C76.33 137.83 76 138.33 74.43 138.33L73.33 138.33L73.33 135.83ZM219.25 135.1C219.15 133.85 219.13 132.72 219.22 132.58C219.3 132.45 220.05 132.33 220.87 132.33L222.36 132.33L222.26 134.75L222.17 137.17L220.8 137.27L219.43 137.37L219.25 135.1ZM73.33 128.85L73.33 126.33L74.85 126.33L76.36 126.33L76.26 128.75L76.17 131.17L74.75 131.27L73.33 131.37L73.33 128.85ZM219.31 131.02C219.29 130.83 219.27 129.5 219.26 128.08L219.23 125.5L220.8 125.4L222.36 125.3L222.26 128.23L222.17 131.17L220.75 131.27C219.92 131.33 219.32 131.23 219.31 131.02ZM73.26 124.76C73.17 124.42 73.17 123.29 73.26 122.24L73.42 120.33L74.89 120.33L76.36 120.33L76.26 122.75L76.17 125.17L74.79 125.27C73.69 125.35 73.39 125.25 73.26 124.76ZM219.26 123.76C219.17 123.42 219.17 122.29 219.26 121.24L219.42 119.33L220.89 119.33L222.36 119.33L222.26 121.75L222.17 124.17L220.79 124.27C219.69 124.35 219.39 124.25 219.26 123.76ZM62.02 121.08C58.04 119.15 58.3 112.16 62.41 110.51C63.75 109.97 65.32 110.27 65.34 111.08C65.35 111.32 65.56 111.23 65.84 110.85C66.12 110.49 66.33 109.5 66.33 108.61C66.33 107.37 66.18 106.91 65.67 106.59C64.69 105.98 64.85 105.4 66.14 104.78C68.31 103.75 68.33 103.83 68.33 111.64C68.33 118.37 68.36 118.65 69.04 119.12C69.9 119.73 69.65 120.19 68.08 120.85C66.95 121.32 66.83 121.31 66.2 120.68C65.61 120.09 65.58 119.88 65.93 118.9C66.44 117.5 66.45 114.44 65.96 113.03C65.54 111.83 64.58 111.31 63.24 111.57C61.8 111.85 61.5 112.52 61.5 115.47C61.5 118.63 62.11 119.81 63.94 120.16C64.82 120.33 64.97 120.47 64.68 120.82C64.09 121.53 63.15 121.62 62.02 121.08ZM73.44 116.94C73.87 113.55 73.97 113.33 75.22 113.33L76.36 113.33L76.26 115.75L76.17 118.17L74.71 118.27L73.26 118.38L73.44 116.94ZM219.33 115.35L219.33 112.33L220.8 112.33L222.27 112.33L222.38 113.92C222.45 114.79 222.42 116.1 222.33 116.83C222.17 118.13 222.13 118.17 220.75 118.27L219.33 118.37L219.33 115.35ZM73.87 111.61C73.51 111.1 73.33 110.12 73.33 108.59L73.33 106.33L74.8 106.33C76.21 106.33 76.26 106.37 76.39 107.47C76.47 108.09 76.44 109.4 76.35 110.38C76.18 112.01 76.09 112.18 75.28 112.27C74.66 112.34 74.24 112.14 73.87 111.61ZM219.33 108.85L219.33 106.33L220.85 106.33L222.36 106.33L222.26 108.75L222.17 111.17L220.75 111.27L219.33 111.37L219.33 108.85ZM73.33 102.85L73.33 100.33L74.85 100.33L76.36 100.33L76.26 102.75L76.17 105.17L74.75 105.27L73.33 105.37L73.33 102.85ZM219.57 105.13C219.44 105 219.33 103.64 219.33 102.11L219.33 99.33L220.81 99.33C222.54 99.33 222.57 99.4 222.33 102.79L222.17 105.17L220.99 105.27C220.34 105.32 219.7 105.26 219.57 105.13ZM62.46 103.84C62.39 103.65 62.3 99 62.25 93.5C62.18 85.63 62.08 83.5 61.74 83.5C61.5 83.5 61.13 83.86 60.91 84.3C60.08 85.93 58.36 86.07 58.06 84.55C58 84.25 59.07 82.31 60.43 80.25C61.79 78.19 63.08 76.16 63.3 75.75C63.94 74.53 64.79 74.85 66 76.75C66.62 77.71 67.92 79.72 68.89 81.22C70.74 84.05 70.93 84.6 70.27 85.27C69.56 85.97 69.08 85.7 68.03 84C67.47 83.08 66.86 82.33 66.68 82.33C66.48 82.33 66.35 86.32 66.34 92.9C66.33 99.34 66.2 103.6 66 103.8C65.56 104.24 62.62 104.27 62.46 103.84ZM73.33 96.35L73.33 93.33L74.85 93.33L76.36 93.33L76.26 96.25L76.17 99.17L74.75 99.27L73.33 99.37L73.33 96.35ZM219.25 95.58C219.16 94.07 219.15 92.72 219.23 92.58C219.31 92.45 220.04 92.33 220.85 92.33L222.33 92.33L222.33 94.93C222.33 97.84 222.06 98.33 220.48 98.33L219.42 98.33L219.25 95.58ZM73.33 89.33L73.33 86.3L74.75 86.4L76.17 86.5L76.17 89.33L76.17 92.17L74.75 92.27L73.33 92.37L73.33 89.33ZM219.28 90.93C219.2 90.7 219.19 89.56 219.26 88.42L219.39 86.33L220.88 86.33L222.36 86.33L222.26 88.75L222.17 91.17L220.79 91.27C219.88 91.33 219.37 91.22 219.28 90.93ZM73.26 84.76C73.17 84.42 73.17 83.29 73.26 82.24L73.42 80.33L74.89 80.33L76.36 80.33L76.26 82.75L76.17 85.17L74.79 85.27C73.69 85.35 73.39 85.25 73.26 84.76ZM219.33 81.85L219.33 79.33L220.85 79.33L222.36 79.33L222.26 81.75L222.17 84.17L220.75 84.27L219.33 84.37L219.33 81.85ZM73.33 75.89L73.33 72.4L76.25 72C77.85 71.78 80.22 71.3 81.5 70.93C83.11 70.47 84.33 70.32 85.45 70.45C86.68 70.6 87.38 70.49 88.36 69.99C89.7 69.3 91.83 69.13 92.64 69.64C92.95 69.84 93.4 69.73 93.98 69.3C95.01 68.53 98.13 68.07 98.47 68.63C98.91 69.33 100.33 69.05 100.66 68.19C100.91 67.52 101.27 67.35 102.86 67.15C104.61 66.93 104.81 66.98 105.35 67.69C105.84 68.34 106.02 68.4 106.45 68.04C106.73 67.81 107.01 67.29 107.06 66.89C107.15 66.26 107.41 66.15 109.12 66.07C110.63 65.99 111.16 66.09 111.47 66.52C112.03 67.28 113.1 67 113.33 66.02C113.48 65.36 113.86 65.13 115.34 64.79C118.1 64.14 118.33 64.18 118.33 65.31C118.33 65.85 118.49 66.39 118.68 66.51C119.17 66.81 119.94 66.09 120.06 65.23C120.18 64.4 122.01 63.37 123.41 63.35C124.14 63.34 124.42 63.56 124.8 64.48C125.18 65.39 125.42 65.58 125.98 65.44C126.93 65.19 127.1 64.81 126.6 64.02C125.96 63 126.69 62.52 128.9 62.51C130.75 62.5 130.79 62.52 131.07 63.58C131.39 64.81 131.56 64.87 132.58 64.16C133.21 63.71 133.26 63.53 132.92 62.8C132.41 61.66 132.95 61.35 135.43 61.34C136.86 61.33 137.41 61.47 137.55 61.85C137.84 62.59 136.71 63.67 135.63 63.67C134.78 63.67 134.7 63.78 134.6 65.08C134.5 66.48 134.47 66.51 132.68 67.1C130.94 67.68 130.83 67.68 130.43 67.12C130.19 66.8 130 66.2 130 65.79C130 64.88 129.55 64.55 128.66 64.83C128.21 64.98 128 65.34 128 65.98C128 67.2 127.34 67.71 125.5 67.92C124.07 68.08 124 68.05 124 67.23C124 66.19 123.56 65.87 122.48 66.14C121.89 66.29 121.67 66.57 121.67 67.17C121.67 68.17 120.66 68.85 118.79 69.13C117.33 69.34 117 69.07 117 67.64C117 66.4 115.47 67.02 115.28 68.33C115.18 69.07 114.94 69.2 113.25 69.47C111.65 69.72 111.24 69.68 110.73 69.22C109.98 68.55 109 68.49 109 69.13C109 69.88 108.17 70.35 106.44 70.55C105.18 70.7 104.71 70.62 104.36 70.2C103.68 69.38 102.4 69.51 102.27 70.42C102.18 71.06 101.9 71.2 100.35 71.39C99.03 71.55 98.35 71.48 97.86 71.14C97.01 70.54 96.62 70.55 95.81 71.16C95.25 71.59 95.23 71.7 95.67 71.99C95.94 72.17 96.66 72.33 97.27 72.33L98.37 72.33L98.27 74.25L98.17 76.17L95.77 76.26L93.37 76.36L93.27 74.46C93.13 71.83 92.4 71.66 92.27 74.23L92.17 76.17L89.25 76.26L86.33 76.36L86.33 75.01C86.33 73.2 85.42 73.12 85.27 74.92L85.17 76.17L82.79 76.26L80.42 76.36L80.21 75.32C80.05 74.49 79.86 74.31 79.27 74.39C78.8 74.46 78.46 74.8 78.33 75.32C78.21 75.84 77.84 76.21 77.32 76.33C76.66 76.49 76.47 76.78 76.33 77.85C76.17 79.13 76.13 79.17 74.75 79.27L73.33 79.37L73.33 75.89ZM219.22 77.35C219.06 76.54 218.85 76.33 218.17 76.33C217.37 76.33 217.33 76.25 217.33 74.32L217.33 72.3L219.75 72.4L222.17 72.5L222.17 75.33L222.17 78.17L220.8 78.27C219.5 78.36 219.41 78.31 219.22 77.35ZM99.33 74.22C99.33 72.36 99.42 72.05 100 71.9C100.37 71.81 100.75 71.87 100.85 72.03C100.96 72.2 102.01 72.33 103.2 72.33L105.37 72.33L105.27 74.25L105.17 76.17L102.25 76.26L99.33 76.36L99.33 74.22ZM106.33 74.35L106.33 72.33L108.85 72.33L111.37 72.33L111.27 74.25L111.17 76.17L108.75 76.26L106.33 76.36L106.33 74.35ZM113.33 74.35L113.33 72.33L115.85 72.33L118.37 72.33L118.27 74.25L118.17 76.17L115.75 76.26L113.33 76.36L113.33 74.35ZM119.33 74.35L119.33 72.33L121.85 72.33L124.37 72.33L124.27 74.25L124.17 76.17L121.75 76.26L119.33 76.36L119.33 74.35ZM126.33 74.35L126.33 72.33L128.85 72.33L131.37 72.33L131.27 74.25L131.17 76.17L128.75 76.26L126.33 76.36L126.33 74.35ZM132.33 74.35L132.33 72.33L134.85 72.33L137.37 72.33L137.27 74.25L137.17 76.17L134.75 76.26L132.33 76.36L132.33 74.35ZM139.33 74.35L139.33 72.33L141.85 72.33L144.37 72.33L144.27 74.25L144.17 76.17L141.75 76.26L139.33 76.36L139.33 74.35ZM145.33 74.35L145.33 72.33L147.85 72.33L150.37 72.33L150.27 74.25L150.17 76.17L147.75 76.26L145.33 76.36L145.33 74.35ZM152.33 74.35L152.33 72.33L154.85 72.33L157.37 72.33L157.27 74.25L157.17 76.17L154.75 76.26L152.33 76.36L152.33 74.35ZM158.33 74.35L158.33 72.33L160.85 72.33L163.37 72.33L163.27 74.25L163.17 76.17L160.75 76.26L158.33 76.36L158.33 74.35ZM165.33 74.38C165.33 72.54 165.39 72.39 166.19 72.19C167.91 71.76 168.36 69.05 167.32 65.33C166.73 63.22 166.19 62.72 164.38 62.6C163.06 62.51 162.82 62.39 162.73 61.74C162.66 61.26 162.9 60.74 163.39 60.33C164.06 59.77 164.1 59.63 163.67 59.33C163.39 59.14 162.27 59.02 161.17 59.07L159.17 59.17L159.06 58.11C158.98 57.25 159.1 57.02 159.73 56.84C160.15 56.72 161.06 56.39 161.74 56.1C162.88 55.62 163.04 55.62 163.85 56.15C164.69 56.7 164.76 56.7 165.34 56.07C165.95 55.41 168.72 54.78 169.33 55.17C169.52 55.28 169.67 55.81 169.67 56.34C169.67 57.42 168.91 58 167.52 58C166.35 58 166.4 58.95 167.63 60.13C168.43 60.9 168.65 60.97 168.88 60.57C169.06 60.27 169.96 59.99 171.22 59.84C173.16 59.62 173.28 59.65 173.51 60.37C173.86 61.46 172.66 62.33 170.8 62.33C169.07 62.33 168.99 62.62 170.04 64.92C170.63 66.22 170.71 66.82 170.52 68.65C170.39 69.85 170.26 72.03 170.23 73.5L170.17 76.17L167.75 76.26L165.33 76.36L165.33 74.38ZM171.33 74.38L171.33 72.41L172.46 72.27C173.09 72.2 174.22 72.2 174.98 72.27L176.36 72.41L176.27 74.29L176.17 76.17L173.75 76.26L171.33 76.36L171.33 74.38ZM178.33 74.35L178.33 72.33L180.85 72.33L183.37 72.33L183.27 74.25L183.17 76.17L180.75 76.26L178.33 76.36L178.33 74.35ZM184.33 74.35L184.33 72.33L186.85 72.33L189.37 72.33L189.27 74.25L189.17 76.17L186.75 76.26L184.33 76.36L184.33 74.35ZM190.33 74.33L190.33 72.31L193.25 72.4L196.17 72.5L196.17 74.33L196.17 76.17L193.25 76.26L190.33 76.36L190.33 74.33ZM197.33 74.35L197.33 72.33L199.85 72.33L202.37 72.33L202.27 74.25L202.17 76.17L199.75 76.26L197.33 76.36L197.33 74.35ZM204.33 74.35L204.33 72.33L206.85 72.33L209.37 72.33L209.27 74.25L209.17 76.17L206.75 76.26L204.33 76.36L204.33 74.35ZM210.33 74.35L210.33 72.33L212.85 72.33L215.37 72.33L215.27 74.25L215.17 76.17L212.75 76.26L210.33 76.36L210.33 74.35ZM223.48 75.89C223.14 75.01 223.48 72.16 223.92 72.2C224.15 72.22 225.24 72.26 226.35 72.28L228.37 72.33L228.27 74.25L228.17 76.17L225.91 76.27C224.2 76.34 223.61 76.25 223.48 75.89ZM230.33 74.35L230.33 72.33L232.85 72.33L235.37 72.33L235.27 74.25L235.17 76.17L232.75 76.26L230.33 76.36L230.33 74.35ZM236.33 74.35L236.33 72.33L238.85 72.33L241.37 72.33L241.27 74.25L241.17 76.17L238.75 76.26L236.33 76.36L236.33 74.35ZM243.33 74.35L243.33 72.33L245.85 72.33L248.37 72.33L248.27 74.25L248.17 76.17L245.75 76.26L243.33 76.36L243.33 74.35ZM249.33 74.35L249.33 72.33L251.85 72.33L254.37 72.33L254.27 74.25L254.17 76.17L251.75 76.26L249.33 76.36L249.33 74.35ZM256.33 74.35L256.33 72.33L258.85 72.33L261.37 72.33L261.27 74.25L261.17 76.17L258.75 76.26L256.33 76.36L256.33 74.35ZM262.33 74.35L262.33 72.33L264.85 72.33L267.37 72.33L267.27 74.25L267.17 76.17L264.75 76.26L262.33 76.36L262.33 74.35ZM269.33 74.35L269.33 72.33L271.85 72.33L274.37 72.33L274.27 74.25L274.17 76.17L271.75 76.26L269.33 76.36L269.33 74.35ZM275.33 74.35L275.33 72.33L277.85 72.33L280.37 72.33L280.27 74.25L280.17 76.17L277.75 76.26L275.33 76.36L275.33 74.35ZM282.33 74.35L282.33 72.33L284.85 72.33L287.37 72.33L287.27 74.25L287.17 76.17L284.75 76.26L282.33 76.36L282.33 74.35ZM288.33 74.35L288.33 72.33L290.35 72.33L292.37 72.33L292.27 74.25L292.17 76.17L290.25 76.27L288.33 76.37L288.33 74.35ZM176.37 70.41C175.48 69.66 175.2 69.13 174.98 67.7C174.48 64.55 175.97 62.33 178.59 62.33C180.33 62.33 180.38 62.97 178.67 63.53C177.14 64.04 176.67 64.83 176.67 66.88C176.67 68.84 177.49 70 178.87 70C179.92 70 181.05 68.27 181.25 66.39C181.35 65.53 181.58 64.63 181.78 64.38C181.98 64.13 182.3 63.61 182.5 63.21C182.92 62.36 184.33 62.04 184.33 62.79C184.33 63.07 184.2 63.37 184.04 63.47C183.88 63.57 183.66 64.26 183.54 65.01C183.42 65.75 183.15 66.63 182.95 66.96C182.72 67.32 182.66 68.05 182.8 68.78C182.97 69.7 183.23 70.04 183.85 70.2C184.77 70.43 184.92 70.92 184.15 71.22C183.85 71.33 183.3 71.1 182.84 70.68C182.01 69.89 181.06 69.95 180.32 70.85C179.64 71.67 177.61 71.45 176.37 70.41ZM219.33 68.85L219.33 66.33L220.85 66.33L222.36 66.33L222.26 68.75L222.17 71.17L220.75 71.27L219.33 71.37L219.33 68.85ZM136.87 66.05C136.58 65.72 136.33 65.14 136.33 64.75C136.33 64.15 136.57 64.04 138.25 63.93C140.43 63.77 141.33 64.08 141.33 64.97C141.33 65.84 140.73 66.21 138.96 66.44C137.73 66.6 137.31 66.52 136.87 66.05ZM143.34 65.21C142.79 64.66 142.94 63.39 143.58 63.22C145.34 62.74 146.76 62.66 147.19 63.02C147.78 63.51 147.81 64.54 147.25 64.88C146.53 65.33 143.7 65.56 143.34 65.21ZM219.57 65.13C219.44 65 219.33 63.64 219.33 62.11L219.33 59.33L220.81 59.33C222.54 59.33 222.57 59.4 222.33 62.79L222.17 65.17L220.99 65.27C220.34 65.32 219.7 65.26 219.57 65.13ZM150.11 64.75C149.9 64.61 149.62 64.08 149.49 63.59C149.3 62.81 149.39 62.63 150.15 62.34C151.74 61.74 153.6 61.91 154.02 62.71C154.33 63.28 154.29 63.52 153.78 64.01C153.1 64.67 150.72 65.15 150.11 64.75ZM156.33 63.32C156.13 62.95 156.06 62.35 156.17 61.99C156.35 61.43 156.68 61.33 158.37 61.33C159.87 61.33 160.4 61.46 160.56 61.86C160.86 62.65 159.7 63.56 158.1 63.8C156.9 63.97 156.64 63.9 156.33 63.32ZM139.52 63.08C139.42 62.97 139.33 62.33 139.33 61.66C139.33 60.43 139.34 60.42 141.17 60.06C142.18 59.85 143.22 59.77 143.48 59.87C144.85 60.4 143.98 62.33 142.37 62.34C141.89 62.34 141.1 62.55 140.61 62.8C140.12 63.06 139.63 63.18 139.52 63.08ZM146.25 61.47C146.11 61.34 146 60.81 146 60.3C146 59.16 146.04 59.14 148.42 58.85C150.29 58.62 150.33 58.64 150.33 59.42C150.33 59.87 150.07 60.47 149.74 60.77C149.08 61.37 146.64 61.86 146.25 61.47ZM175.64 60.61C175.05 59.52 176.24 58.67 178.35 58.67C179.69 58.67 179.99 58.78 180.18 59.37C180.5 60.37 179.79 60.88 177.77 61.14C176.2 61.33 175.99 61.28 175.64 60.61ZM152.13 59.48C151.87 58.42 152.11 58.19 153.96 57.74C155.56 57.35 156.19 57.47 156.47 58.22C156.78 59.03 156.1 59.9 154.97 60.12C152.95 60.53 152.36 60.39 152.13 59.48ZM181.74 59.94C181.52 59.72 181.33 59.21 181.33 58.81C181.33 58.23 181.59 58.05 182.58 57.88C184.9 57.5 185.57 57.61 185.78 58.41C185.89 58.83 185.8 59.33 185.57 59.54C184.94 60.14 182.22 60.42 181.74 59.94ZM188.22 59.18C187.67 57.74 187.93 57.42 189.85 57.18C191.73 56.94 192.67 57.27 192.67 58.17C192.67 58.88 191.8 59.35 190.09 59.55C188.72 59.71 188.4 59.65 188.22 59.18ZM194.86 58.14C193.79 57.07 194.2 56.43 196.1 56.19C198.08 55.94 198.85 56.13 199.16 56.94C199.69 58.31 196.05 59.33 194.86 58.14ZM201.37 57.88C201.17 57.64 200.91 56.98 200.8 56.43C200.62 55.51 200.69 55.41 201.68 55.21C202.27 55.1 203.32 55 204.02 55C205.03 55 205.34 55.15 205.52 55.73C205.79 56.57 204.7 57.67 203.61 57.67C203.25 57.67 202.68 57.81 202.35 57.99C201.91 58.22 201.63 58.19 201.37 57.88ZM219.33 55.83L219.33 53.33L220.83 53.33L222.33 53.33L222.33 55.43C222.33 57.83 222 58.33 220.43 58.33L219.33 58.33L219.33 55.83ZM207.52 57.08C207.23 56.79 207.3 55.06 207.6 54.87C207.75 54.78 208.62 54.61 209.54 54.48C210.88 54.31 211.33 54.38 211.79 54.84C212.5 55.55 212.36 56.05 211.31 56.54C210.36 56.99 207.79 57.35 207.52 57.08ZM171.81 56.56C171.7 56.28 171.66 55.7 171.72 55.27C171.82 54.62 172.11 54.45 173.6 54.2C175.46 53.88 175.87 54.04 176.06 55.15C176.18 55.9 175.21 56.48 173.25 56.84C172.29 57.02 171.96 56.96 171.81 56.56ZM214.31 55.8C214.11 55.57 214 55.02 214.06 54.6C214.15 53.98 214.46 53.78 215.71 53.53C216.57 53.37 217.5 53.33 217.8 53.44C218.43 53.68 218.52 55.3 217.92 55.47C215.34 56.15 214.65 56.22 214.31 55.8ZM178.03 55.38C177.07 53.6 177.89 52.84 180.53 53.06C181.67 53.15 181.83 53.27 181.83 54C181.83 54.85 181.08 55.39 179.28 55.84C178.59 56.01 178.31 55.91 178.03 55.38ZM184.46 54.42C183.85 54 183.61 52.79 184.08 52.43C184.31 52.24 185.29 52 186.26 51.89C187.91 51.71 188.05 51.75 188.41 52.53C188.71 53.19 188.69 53.45 188.31 53.81C187.75 54.34 185 54.77 184.46 54.42ZM190.56 53.11C190.43 52.99 190.33 52.48 190.33 51.99C190.33 51.14 190.44 51.07 192.08 50.92C193.04 50.82 194.02 50.82 194.25 50.91C194.78 51.11 194.79 52.41 194.27 52.93C193.85 53.35 190.94 53.49 190.56 53.11ZM196.89 52.11C196.77 51.99 196.67 51.48 196.67 50.99C196.67 50.19 196.86 50.04 198.52 49.57C200.67 48.95 201.33 49.1 201.33 50.18C201.33 51.05 201.04 51.3 199.33 51.91C198.02 52.37 197.22 52.44 196.89 52.11ZM219.29 51.94C219.27 51.7 219.23 50.9 219.21 50.17C219.17 48.9 219.11 48.83 218 48.72C216.57 48.59 216 48.15 216 47.16C216 46.5 216.22 46.38 217.79 46.19C218.77 46.06 219.98 46.06 220.47 46.19C221.05 46.33 221.56 46.24 221.93 45.93C222.62 45.35 224.9 44.67 226.15 44.67C226.88 44.67 227.03 44.8 226.94 45.38C226.79 46.41 225.29 47.4 223.89 47.4C222.61 47.4 222.57 47.49 222.25 51.17C222.17 52.09 222.06 52.17 220.75 52.27C219.77 52.34 219.32 52.24 219.29 51.94ZM203.33 50.22C203.33 49.23 203.47 49.06 204.59 48.69C205.29 48.46 206.3 48.33 206.84 48.39C207.65 48.48 207.83 48.66 207.83 49.33C207.83 50.04 207.57 50.25 206.17 50.72C203.63 51.57 203.33 51.52 203.33 50.22ZM209.92 48.8C209.41 47.67 210.07 47.13 212.04 47.06C213.58 47 214.33 47.43 214.33 48.36C214.33 49.18 213.35 49.67 211.68 49.67C210.54 49.67 210.26 49.53 209.92 48.8ZM229.38 46.25C229.17 46.04 229 45.52 229 45.11C229 44.55 229.24 44.29 229.92 44.15C230.42 44.04 231.26 43.79 231.77 43.59C232.52 43.31 232.82 43.34 233.23 43.76C233.52 44.05 233.67 44.51 233.56 44.79C233.12 45.94 230.12 46.99 229.38 46.25ZM235.58 44.81C235.45 44.67 235.33 44.15 235.33 43.66C235.33 42.84 235.47 42.74 236.88 42.55C239.13 42.24 239.27 42.26 239.69 43.04C239.98 43.59 239.96 43.85 239.6 44.21C239.07 44.74 235.97 45.2 235.58 44.81ZM241.88 43.51C241.24 41.85 241.99 41.33 245.04 41.33C246.18 41.33 246.33 41.43 246.33 42.13C246.33 43.21 245.78 43.58 243.79 43.85C242.38 44.04 242.06 43.98 241.88 43.51ZM248.58 42.8C248.21 42.43 248.28 40.74 248.68 40.49C248.86 40.38 249.83 40.2 250.82 40.1C252.58 39.92 252.64 39.94 252.86 40.82C253.01 41.41 252.93 41.87 252.63 42.16C252.1 42.67 248.94 43.16 248.58 42.8ZM218.33 41.87C218.33 41.62 218.56 41.23 218.83 41C219.57 40.39 219.54 35.82 218.8 35.4C217.88 34.89 218.37 33.85 219.59 33.73L220.67 33.62L220.67 37.3C220.67 40.35 220.76 41.02 221.21 41.27C222.12 41.78 221.39 42.33 219.81 42.33C218.78 42.33 218.33 42.2 218.33 41.87ZM254.81 41.23C254.43 40.23 254.82 39.54 255.95 39.25C257.74 38.79 259.15 39.05 259.27 39.86C259.41 40.84 258.67 41.32 256.71 41.56C255.35 41.72 254.97 41.65 254.81 41.23ZM261.49 40.45C261.22 40.17 261 39.53 261 39.02C261 38.13 261.08 38.09 263.03 37.88C265.37 37.64 265.67 37.74 265.67 38.83C265.67 39.76 265.52 39.88 263.5 40.48C262.19 40.88 261.92 40.87 261.49 40.45ZM267.71 38.89C266.83 37.83 267.54 37.08 269.66 36.83C271.92 36.57 272.33 36.73 272.33 37.83C272.33 38.84 272.16 38.94 269.95 39.2C268.53 39.36 268.05 39.3 267.71 38.89ZM274.32 37.98C273.63 36.69 273.93 36.08 275.56 35.53C277.63 34.83 277.95 34.86 278.38 35.8C278.93 37.02 278.32 37.75 276.35 38.19C274.81 38.54 274.61 38.52 274.32 37.98ZM280.75 37.11C280.11 36.86 280.24 35.07 280.92 34.71C282.13 34.06 283.81 33.95 284.5 34.46C285.46 35.18 284.83 36.02 282.8 36.75C281.9 37.07 281.17 37.32 281.17 37.31C281.17 37.29 280.98 37.21 280.75 37.11ZM207.31 36.08C205.58 31.36 202.04 23.69 201.22 22.92C199.8 21.56 200.18 21.16 202.87 21.22C206.86 21.33 206.62 21.24 205.58 22.16C205.08 22.6 204.67 23.25 204.67 23.59C204.67 24.26 208.13 32.6 208.61 33.08C208.99 33.46 210.12 31.78 210.33 30.53C210.56 29.18 211.33 28.99 211.33 30.29C211.33 30.84 211.19 31.38 211.01 31.49C210.83 31.6 210.38 32.69 210 33.9C209.63 35.12 209.15 36.31 208.95 36.56C208.36 37.27 207.68 37.07 207.31 36.08ZM211.51 27.58C211.64 26.99 211.86 26.35 212 26.17C212.15 25.98 212.42 25.27 212.61 24.57C212.92 23.43 212.87 23.24 212.1 22.53C211.63 22.09 211.35 21.57 211.47 21.37C211.71 20.99 215.51 21.06 215.9 21.45C216.02 21.57 215.5 22.2 214.75 22.84C213.97 23.51 213.29 24.43 213.17 24.99C212.92 26.12 211.74 28.67 211.47 28.67C211.36 28.67 211.38 28.18 211.51 27.58Z" fill="#1e2749" fill-rule="evenodd"/>
</svg>
