<?xml version="1.0" encoding="UTF-8"?>
<svg xmlns="http://www.w3.org/2000/svg" viewBox="0 0 500 208" width="500" height="208" shape-rendering="geometricPrecision">
<path d="M265.68 187.02C265.48 186.65 265.33 184.03 265.33 180.88C265.33 175.63 265.36 175.37 266.02 175.16C266.41 175.04 267.03 175.16 267.48 175.45C268.15 175.9 268.34 175.9 268.88 175.49C269.76 174.82 271.97 174.86 272.23 175.55C272.53 176.31 271.91 177.15 270.97 177.26C268.31 177.57 268 178.19 268 183.07C268 186.61 267.69 187.67 266.67 187.67C266.31 187.67 265.87 187.38 265.68 187.02ZM332.78 170.17L332.99 168.67L246.51 168.59C185.35 168.52 159.93 168.4 159.67 168.14C159.42 167.89 159.32 144.82 159.32 89.1C159.33 3.52 159.47 9.25 157.52 9.99C156.33 10.44 156.33 10.44 156.33 9.6C156.33 8.35 159.97 1.33 160.62 1.33C161.02 1.33 161.84 2.59 163.27 5.37C165.57 9.85 165.6 10.54 163.45 10.14L162.33 9.93L162.42 87.55L162.5 165.17L186.48 165.25C200.91 165.3 210.59 165.21 210.77 165.03C210.96 164.84 210.42 164.39 209.37 163.85C206 162.14 201.3 157.01 197.33 150.67C193.44 144.47 185.62 127.48 181.76 116.83C180.76 114.08 179.45 110.48 178.84 108.83C177.2 104.41 174.23 95.42 172.84 90.67C169.4 78.9 164.56 59.02 164.52 56.5C164.5 55.25 164.56 55.16 165.53 55.07C166.09 55.01 166.72 55.16 166.92 55.4C167.29 55.85 168.22 59.5 169.16 64.17C169.46 65.63 169.84 67.36 170.02 68C170.19 68.64 171.01 71.94 171.84 75.33C172.67 78.72 173.56 82.17 173.81 83C174.05 83.82 174.59 85.7 175 87.17C176.5 92.59 180 103.26 182.33 109.5C189.15 127.82 196.46 143.94 201.18 151.03C205.69 157.82 211.05 162.3 215.68 163.13C217.33 163.42 220.4 162.54 222.78 161.1C229.09 157.26 237.06 145.71 240.56 135.33C241.67 132.04 243.74 127.68 244.78 126.45C245.7 125.36 248.09 124.33 249.64 124.34C251.64 124.36 255.52 126.47 260.67 130.35C274.27 140.6 284.57 146.31 306.17 155.56C307.63 156.19 309.74 157.13 310.84 157.65C311.95 158.17 313.82 159 315.01 159.5C318.29 160.87 318.95 161.67 317.72 162.78C316.9 163.52 316.27 163.48 314.23 162.54C313.28 162.1 311.22 161.18 309.67 160.51C308.11 159.83 306.38 159.08 305.83 158.83C305.28 158.59 302.21 157.24 299 155.82C292.98 153.17 280.44 147.02 276.72 144.88C275.55 144.21 274.53 143.67 274.45 143.67C274.37 143.67 273.41 143.07 272.32 142.33C271.23 141.6 269.4 140.37 268.25 139.61C267.1 138.84 264.2 136.75 261.8 134.97C252.54 128.09 248.71 126.39 247.11 128.45C246.29 129.5 244.68 133.01 242.85 137.75C242.02 139.91 241.2 141.93 241.03 142.25C240.86 142.57 240.31 143.66 239.8 144.67C239.3 145.67 238.66 146.95 238.38 147.5C235.38 153.47 227.46 162.37 223.66 164.05C222.67 164.49 222.29 165.33 223.08 165.34C237.45 165.43 332.47 165.29 332.66 165.17C332.81 165.08 332.86 164.4 332.76 163.67C332.66 162.93 332.71 162.33 332.87 162.34C333.22 162.34 341.05 166.28 341.42 166.64C341.57 166.77 341.42 167.12 341.09 167.41C340.51 167.93 333.23 171.67 332.8 171.67C332.68 171.67 332.67 170.99 332.78 170.17ZM131.33 67.33C131.33 59.44 131.42 57.31 131.75 57.42C132.07 57.52 132.17 59.81 132.17 67.33C132.17 74.86 132.07 77.14 131.75 77.25C131.42 77.36 131.33 75.23 131.33 67.33ZM146.33 67.17C146.33 59.4 146.42 57.31 146.75 57.42C147.07 57.52 147.17 59.77 147.17 67.17C147.17 74.56 147.07 76.81 146.75 76.92C146.42 77.03 146.33 74.93 146.33 67.17ZM136.18 74.03C136.05 73.81 136.03 73.13 136.14 72.53C136.31 71.6 136.23 71.39 135.52 71.07C134.02 70.39 133.57 69.27 133.86 66.92C134 65.77 134.08 64.42 134.03 63.92C133.94 62.83 134.56 62.71 135.64 63.58C136.35 64.16 136.36 64.2 135.83 66.45C135.35 68.55 135.35 68.8 135.84 69.56C136.56 70.65 137.05 70.21 137.83 67.76C138.78 64.8 139.46 63.35 139.92 63.34C140.46 63.33 140.44 64.05 139.87 65.41C138.94 67.62 138.62 69.04 138.83 70C139.02 70.84 138.92 71.05 138.19 71.38C137.66 71.63 137.33 72.04 137.33 72.49C137.33 73.48 136.52 74.57 136.18 74.03ZM139.67 69.87C139.67 69.61 139.88 69.32 140.15 69.22C140.59 69.05 142 66.56 142 65.96C142 65.82 142.34 65.18 142.75 64.54C143.31 63.65 143.74 63.36 144.44 63.35C144.96 63.34 145.33 63.45 145.27 63.58C145.2 63.72 144.73 64.73 144.22 65.83C143.72 66.93 142.75 68.4 142.08 69.08C140.86 70.34 139.67 70.73 139.67 69.87ZM149.33 60.62C149.33 59.98 149.47 59.93 150.69 60.09C151.44 60.2 152.13 60.35 152.23 60.45C152.66 60.88 151.84 61.33 150.65 61.33C149.53 61.33 149.33 61.23 149.33 60.62ZM151.4 56.18C151.19 55.71 150.79 55.33 150.51 55.33C150.23 55.33 150 55.11 150 54.83C150 54.5 150.33 54.33 151.01 54.33C152.29 54.33 153.1 55.71 152.28 56.52C151.84 56.97 151.74 56.93 151.4 56.18Z" fill="#1e2749" fill-rule="evenodd"/>
</svg>
