<?xml version="1.0" encoding="UTF-8"?>
<svg xmlns="http://www.w3.org/2000/svg" viewBox="0 0 802 216.175" width="802" height="216.175" shape-rendering="geometricPrecision">
<path d="M96.6 174.62L46.11 174.43L46.02 148.59C45.96 130.65 45.81 122.59 45.53 122.26C45.27 121.94 43.96 121.75 41.62 121.68L38.09 121.58L38.09 120.48L38.09 119.39L46.72 119.29C54.31 119.21 55.42 119.27 55.94 119.79C56.49 120.34 56.49 120.44 55.92 121.07C55.4 121.65 54.76 121.76 51.89 121.76L48.48 121.76L48.57 147L48.67 172.25L118.59 172.34C166.38 172.4 188.74 172.31 189.22 172.05C189.91 171.69 189.93 171.07 189.93 149.63L189.93 127.59L185.76 127.59C182.82 127.59 181.5 127.46 181.3 127.14C181.15 126.88 181.06 125.77 181.12 124.67L181.22 122.66L179.18 120.9C176.53 118.61 174.62 115.99 173.31 112.83C172.32 110.47 172.25 109.95 172.25 105.54C172.25 101.11 172.32 100.61 173.31 98.24C174.99 94.21 176.45 92.42 181.14 88.66C182.49 87.57 182.64 87.29 182.64 85.84C182.64 83.95 182.75 83.9 187.01 83.76L189.75 83.66L189.84 75.54C189.92 69.23 189.84 67.39 189.48 67.28C189.23 67.2 157.23 67.05 118.38 66.95L47.75 66.76L47.84 87.97L47.94 109.18L54.06 109.28C59.08 109.36 60.22 109.48 60.39 109.92C60.5 110.22 60.39 110.71 60.15 111.01C59.76 111.47 57.69 111.55 46.07 111.55L32.44 111.55L32.44 110.46L32.44 109.36L38.39 109.36C42.52 109.36 44.46 109.23 44.77 108.93C45.1 108.6 45.2 103.25 45.2 87.1L45.2 65.7L46.21 65.03C47.17 64.39 49.9 64.37 119.02 64.48L190.84 64.59L191.66 65.35C192.47 66.1 192.48 66.25 192.48 74.98L192.48 83.85L196.03 83.85C201.22 83.86 201.23 83.86 201.23 86.41C201.23 88.4 201.31 88.59 202.41 89.35C205.54 91.49 208.27 94.83 209.91 98.55L210.67 100.25L243.07 100.25C260.89 100.25 275.57 100.15 275.69 100.04C276.08 99.64 274.79 97.16 272.67 94.23C270.71 91.53 267.5 88.36 264.2 85.88C263.29 85.19 262.84 84.56 262.84 83.97C262.84 81.82 264.99 82.86 269.72 87.31C272.98 90.37 276.34 94.78 277.81 97.94L278.89 100.26L297.55 100.16L316.22 100.07L316.66 99.16C316.91 98.66 317.47 97.34 317.91 96.24C321.17 88.09 329.9 82.39 339.11 82.39C343.46 82.39 348.49 84 352.15 86.58L354.44 88.19L355.39 87.52C355.92 87.14 359.93 84.11 364.32 80.78L372.3 74.73L428.48 74.73L484.66 74.73L490.41 71.18C493.57 69.22 496.81 67.21 497.61 66.71C498.41 66.21 503.7 62.95 509.36 59.46C520.34 52.69 523.09 50.98 524.66 49.89C526.77 48.44 528.95 49.61 527.08 51.18C526.59 51.6 521.92 54.56 516.72 57.76L507.26 63.57L507.37 76.17C507.42 83.1 507.54 88.97 507.63 89.22C507.73 89.52 508.82 89.01 510.81 87.7C512.47 86.61 515.96 84.37 518.57 82.71C521.17 81.06 524.52 78.9 526 77.93C528.92 76.01 530.6 75.71 530.6 77.1C530.6 77.92 530.18 78.21 517.47 86.29C512.86 89.22 508.72 91.95 508.27 92.35L507.45 93.09L507.45 106.12C507.45 113.3 507.57 119.24 507.73 119.34C507.88 119.43 512.27 116.9 517.48 113.72C522.69 110.53 527.22 107.92 527.54 107.91C527.87 107.91 528.35 108.16 528.61 108.47C529 108.94 528.96 109.15 528.38 109.7C527.99 110.07 517.92 116.34 505.99 123.63L484.3 136.89L428.52 136.99C397.85 137.04 372.39 137 371.96 136.9C371.53 136.79 367.23 133.75 362.41 130.14C357.59 126.53 353.54 123.58 353.41 123.58C353.28 123.58 352.18 124.19 350.97 124.94C347.05 127.36 343.3 128.44 338.84 128.43C330.19 128.41 322.4 123.52 318.43 115.63L317.48 113.74L298.71 113.74C284.01 113.74 279.92 113.84 279.82 114.19C278.54 118.92 276.1 124.08 273.55 127.48C273.07 128.11 272.68 128.85 272.68 129.1C272.68 129.36 273.37 130.27 274.21 131.13C275.21 132.14 275.62 132.82 275.39 133.05C275.19 133.24 273.89 133.82 272.49 134.34C262.86 137.89 263.2 137.8 263.2 136.75C263.2 136.33 263.43 135.37 263.71 134.62C263.99 133.86 264.49 132.26 264.83 131.05C265.17 129.85 265.59 128.46 265.75 127.96C265.92 127.45 266.16 126.59 266.28 126.04C266.56 124.75 267.25 124.77 268.8 126.13C269.48 126.73 270.23 127.23 270.46 127.23C270.85 127.23 274.14 122.48 274.14 121.91C274.14 121.76 274.36 121.37 274.63 121.06C275.27 120.32 277.42 114.22 277.14 113.95C277.03 113.83 261.74 113.74 243.17 113.74L209.4 113.74L208.21 115.71C206.78 118.06 203.55 121.23 201.14 122.64C199.51 123.59 199.41 123.74 199.41 125.18C199.41 126.03 199.21 126.91 198.97 127.15C198.7 127.42 197.37 127.59 195.51 127.59L192.48 127.59L192.48 150.15L192.48 172.72L191.42 173.85L190.36 174.98L168.73 174.89C156.83 174.84 124.37 174.72 96.6 174.62ZM111.55 146.8C111.55 142.95 111.42 141.09 111.11 140.79C110.79 140.47 107.75 140.35 99.7 140.35C89.16 140.35 88.69 140.32 87.92 139.61L87.13 138.86L87.13 121.19L87.13 103.51L88 103.18C88.48 103 88.99 102.67 89.12 102.46C89.25 102.24 90.59 102.07 92.21 102.07C94.05 102.07 95.19 101.91 95.43 101.62C95.63 101.37 95.96 99.93 96.15 98.43C96.81 93.41 98.91 90.52 102.51 89.66C104.54 89.17 106.71 89.59 109.07 90.92L110.41 91.67L111.25 90.9C112.68 89.6 113.59 89.31 116.31 89.31C118.45 89.31 119.25 89.49 120.71 90.28L122.49 91.25L124.27 90.28C130.03 87.14 137.88 92.31 138.73 99.79L138.99 102.07L142.01 102.07C146.9 102.07 146.55 100.57 146.55 121.28L146.55 138.58L145.6 139.82L144.65 141.07L133.84 141.16L123.03 141.26L122.85 144.87C122.71 147.7 122.54 148.56 122.06 148.86C121.62 149.13 121.29 149.11 120.87 148.75C120.36 148.33 120.3 147.16 120.38 139.3L120.48 130.32L121.58 130.32L122.67 130.32L122.77 133.95C122.83 135.94 123.06 137.79 123.28 138.05C123.82 138.71 142.9 138.75 143.56 138.09C143.89 137.76 144 133.5 144 121.14L144 104.62L140.99 104.61C136.99 104.6 136.34 104.1 136.34 101.1C136.33 96.22 132.39 91.87 127.98 91.87C126.27 91.87 124.67 92.51 124.67 93.21C124.67 93.48 125.06 94.32 125.54 95.07C126.86 97.17 127.33 99.91 126.82 102.58C126.05 106.55 123.85 109.82 122.32 109.24C121.71 109 120.3 106.41 120.3 105.51C120.3 105.19 120.04 104.38 119.73 103.72C119.2 102.61 119.22 102.21 119.92 98.56C121.03 92.84 121.07 93.26 119.22 92.32C117.28 91.34 115.16 91.27 113.7 92.13C112.41 92.89 112.37 93.64 113.54 95.49C114.76 97.42 115.45 101.24 114.91 103.07C114.69 103.82 114.42 104.85 114.31 105.35C114.03 106.69 112.82 108.51 111.74 109.21C110.83 109.8 110.76 109.8 109.95 109.04C109.16 108.29 108.87 107.59 107.97 104.17C107.63 102.88 108.18 96.67 108.82 94.57C109.11 93.62 107.93 92.77 105.62 92.25C101.36 91.29 98.43 94.61 98.43 100.39C98.43 102.27 98.29 102.72 97.45 103.6C96.51 104.58 96.32 104.62 93.07 104.62L89.67 104.62L89.77 121.3L89.86 137.98L100.07 138.08C110.11 138.18 110.29 138.17 110.91 137.4C111.46 136.74 111.55 135.83 111.55 131.2L111.55 125.77L112.45 125.77C112.96 125.77 113.51 126.07 113.73 126.47C114.29 127.53 114.24 151.37 113.67 151.94C113.42 152.18 112.85 152.38 112.39 152.38C111.55 152.38 111.55 152.38 111.55 146.8ZM526.95 140.12C524.54 139.22 522.21 138.33 521.76 138.15C520.55 137.66 520.75 136.52 522.3 135.09L523.67 133.84L522.4 132.45C521.7 131.68 520.25 130.13 519.17 129C517.63 127.39 517.27 126.78 517.46 126.17C517.93 124.69 519.09 125.31 522.4 128.78L525.61 132.15L527.02 130.78C527.8 130.03 528.64 129.41 528.89 129.41C529.41 129.41 530.15 131 530.93 133.79C531.24 134.89 531.84 136.98 532.26 138.42C533.44 142.45 533.29 142.5 526.95 140.12ZM551.63 138.46C551.39 138.21 551.19 137.64 551.19 137.18L551.19 136.34L578.18 136.34C602.83 136.34 605.19 136.39 605.4 136.94C605.52 137.26 605.46 137.8 605.25 138.12C604.92 138.65 602.32 138.72 578.48 138.8C558.24 138.87 551.97 138.79 551.63 138.46ZM490.68 130.17C494.39 127.89 497.79 125.68 498.24 125.28L499.06 124.55L499.06 111.84C499.06 101.45 498.97 99.1 498.57 98.94C498.29 98.84 496.53 99.74 494.65 100.94C492.76 102.15 490 103.88 488.5 104.79L485.78 106.45L424.09 106.45C365.66 106.45 362.4 106.48 362.22 107.09C362.12 107.44 361.86 108.69 361.65 109.88C361.18 112.53 358.86 117.4 357.1 119.45C356.38 120.28 355.81 121.26 355.82 121.63C355.84 122.07 358.52 124.29 363.46 127.96C367.65 131.06 371.45 133.81 371.91 134.06C372.57 134.41 384.65 134.49 428.34 134.42L483.93 134.33L490.68 130.17ZM672.84 127.36C672.7 127.22 672.59 124.51 672.59 121.34L672.59 115.58L673.95 115.6C674.71 115.61 675.83 115.51 676.46 115.37C677.89 115.06 678.97 115.62 679.9 117.13C681.86 120.35 679.63 124.67 676.02 124.67C674.47 124.67 674.45 124.69 674.34 126.04C674.23 127.34 673.48 128 672.84 127.36ZM744.99 127.01C744.67 126.19 744.72 116.56 745.05 116.06C745.19 115.84 745.81 115.64 746.41 115.63C747.01 115.61 748.11 115.49 748.86 115.36C750.09 115.14 750.36 115.25 751.51 116.4C752.66 117.55 752.79 117.87 752.79 119.72C752.79 121.55 752.65 121.9 751.47 123.22C750.31 124.5 749.95 124.67 748.55 124.67C747.04 124.67 746.95 124.73 746.95 125.7C746.95 127.32 745.48 128.3 744.99 127.01ZM756.59 127.12C756.49 126.86 756.46 124.19 756.51 121.2L756.61 115.74L757.89 115.66C758.59 115.61 759.78 115.47 760.53 115.35C761.75 115.14 762.03 115.25 763.17 116.4C764.33 117.55 764.45 117.87 764.45 119.72C764.45 121.55 764.32 121.9 763.13 123.22C761.98 124.5 761.62 124.67 760.22 124.67C758.71 124.67 758.62 124.73 758.62 125.7C758.62 127.25 757.06 128.34 756.59 127.12ZM772.47 126.91C772.47 126.53 772.71 125.66 772.99 124.98C773.48 123.8 773.44 123.57 772.08 120.32C770.44 116.41 770.32 115.56 771.4 115.56C771.98 115.56 772.42 116.16 773.33 118.15C774.63 121.01 774.79 121.01 775.91 118.11C776.7 116.07 777.12 115.56 777.98 115.56C779 115.56 778.85 116.48 777.18 120.33C774.9 125.59 774.58 126.27 773.99 126.95C773.28 127.79 772.47 127.77 772.47 126.91ZM342.92 125.58C353.63 123.19 361.01 112.89 359.43 102.53C358.46 96.18 353.85 89.73 348.51 87.24C341.91 84.16 335.94 84.12 329.73 87.13C326.11 88.88 324.54 90.17 322.4 93.18C318.05 99.28 317.39 107.82 320.74 114.83C322.06 117.61 326.87 122.4 329.72 123.79C334.27 125.99 338.51 126.56 342.92 125.58ZM614.3 123.73C613.7 122.97 613.53 122.24 613.53 120.41C613.53 119.12 613.35 117.73 613.13 117.33C612.84 116.78 612.87 116.16 613.22 114.97C613.64 113.55 613.82 113.36 614.6 113.45C615.22 113.52 615.57 113.84 615.72 114.47C615.86 115.08 616.22 115.42 616.83 115.5C617.32 115.57 617.87 115.77 618.05 115.94C618.56 116.42 617.58 117.38 616.58 117.38C615.75 117.38 615.72 117.48 615.72 120.08C615.72 122.91 615.9 123.22 617.6 123.22C618.09 123.22 618.28 123.42 618.2 123.85C618.11 124.32 617.67 124.52 616.58 124.6C615.31 124.7 614.95 124.56 614.3 123.73ZM638.23 124.03C636.91 123.22 635.96 120.76 636.29 119.02C636.67 116.99 638.2 115.53 640.18 115.3C641.68 115.13 641.95 115.23 643.17 116.38C644.13 117.29 644.52 117.96 644.52 118.72C644.52 120.34 643.93 120.66 640.98 120.66C639.52 120.66 638.32 120.76 638.32 120.87C638.32 121.41 639.14 122.51 639.83 122.88C640.4 123.18 641 123.17 642.21 122.83C644.24 122.27 644.97 122.76 643.82 123.91C642.84 124.89 639.72 124.96 638.23 124.03ZM647.38 123.64C646.41 122.78 646.2 122.29 646.06 120.6C645.79 117.38 647.47 115.2 650.2 115.2C652.76 115.2 655.19 118.41 653.79 119.96C653.28 120.53 652.66 120.66 650.63 120.66C648.49 120.66 648.13 120.75 648.23 121.26C648.29 121.59 648.79 122.2 649.33 122.6C650.24 123.28 650.45 123.3 651.81 122.85C652.99 122.46 653.38 122.46 653.73 122.82C654.55 123.64 652.75 124.67 650.5 124.67C648.86 124.67 648.35 124.5 647.38 123.64ZM693.06 123.76C692.1 122.53 692.03 120.63 692.93 119.82C693.28 119.5 694.47 119 695.55 118.73C696.63 118.45 697.58 118.05 697.65 117.85C697.82 117.31 696.32 117 694.74 117.26C693.65 117.43 693.33 117.35 693.13 116.83C692.76 115.87 693.95 115.2 695.98 115.2C697.38 115.2 697.95 115.4 698.83 116.2C699.87 117.15 699.93 117.36 700.01 120.38C700.05 122.13 699.93 123.72 699.74 123.91C699.54 124.11 698.14 124.38 696.62 124.52C693.91 124.76 693.84 124.74 693.06 123.76ZM702.75 124.28C702.4 124.08 702.11 123.59 702.11 123.2C702.11 122.38 703.04 122.26 704.45 122.9C705.2 123.24 705.55 123.2 706.33 122.69C707.49 121.93 707.27 121.68 704.75 120.86C702.69 120.19 702.11 119.52 702.11 117.77C702.11 116.18 703.87 115.09 706.07 115.32C707.97 115.51 709.02 116.35 708.36 117.14C708.04 117.53 707.59 117.59 706.62 117.37C705.16 117.04 704.3 117.24 704.3 117.9C704.3 118.62 705.12 119.21 706.15 119.21C706.68 119.21 707.55 119.55 708.08 119.96C710.3 121.71 708.41 124.69 705.09 124.66C704.16 124.66 703.1 124.49 702.75 124.28ZM712.24 124.04C711.24 123.42 710.13 121.27 710.13 119.94C710.13 119.54 710.39 118.57 710.71 117.78C711.35 116.2 712.93 115.2 714.81 115.2C716.35 115.2 718.52 117.26 718.52 118.72C718.52 120.34 717.94 120.66 714.98 120.66C713.52 120.66 712.32 120.76 712.32 120.87C712.32 121.41 713.15 122.51 713.83 122.88C714.4 123.18 715 123.17 716.21 122.83C718.24 122.27 718.98 122.76 717.83 123.91C716.85 124.88 713.72 124.96 712.24 124.04ZM726.61 124.24C726.02 123.65 726.06 122.49 726.67 122.49C726.94 122.49 727.66 122.66 728.28 122.88C729.09 123.16 729.62 123.16 730.16 122.87C731.35 122.23 731.05 121.55 729.36 121.06C726.79 120.3 726.17 119.74 726.17 118.16C726.17 116.17 727.17 115.38 729.66 115.38C732 115.38 733.29 116.25 732.35 117.2C731.93 117.62 731.53 117.66 730.61 117.4C729.29 117.02 728.36 117.23 728.36 117.9C728.36 118.64 729.19 119.21 730.27 119.21C731.51 119.21 733.1 120.65 733.1 121.77C733.1 122.2 732.62 123.02 732.04 123.61C731.12 124.52 730.69 124.67 729.01 124.67C727.93 124.67 726.85 124.48 726.61 124.24ZM735.34 123.75C734.66 122.88 734.56 122.29 734.56 119.13C734.56 115.58 734.58 115.51 735.38 115.63C736.15 115.74 736.21 115.96 736.39 119.13C736.52 121.57 736.73 122.62 737.12 122.86C737.87 123.34 737.98 123.32 739.07 122.46C739.94 121.77 740.03 121.48 740.03 119.09C740.04 116.06 740.4 115.17 741.38 115.78C741.92 116.12 742.05 116.81 742.14 119.94C742.19 122.01 742.11 123.82 741.95 123.97C741.8 124.12 740.42 124.36 738.9 124.5C736.18 124.74 736.11 124.73 735.34 123.75ZM619.91 123.49C619.8 123.04 619.76 120.37 619.81 117.57L619.91 112.46L620.82 112.46C621.65 112.46 621.74 112.62 621.84 114.15L621.95 115.85L623.22 115.46C624.23 115.15 624.73 115.19 625.73 115.66C627.2 116.37 627.74 117.85 627.75 121.23C627.75 123.51 627.35 124.31 626.22 124.31C625.64 124.31 625.56 123.95 625.56 121.26C625.56 117.8 625.24 117.26 623.31 117.45L622.1 117.57L621.99 120.46C621.93 122.06 621.7 123.58 621.49 123.84C620.88 124.57 620.13 124.4 619.91 123.49ZM630.3 120L630.3 115.69L632.83 115.72C635.76 115.75 636.64 116.26 635.35 117.16C634.89 117.48 634.15 117.75 633.7 117.75C632.56 117.75 632.16 118.69 632.38 120.86C632.6 123 632.08 124.31 631.02 124.31C630.34 124.31 630.3 124.04 630.3 120ZM682.67 124.07C682.54 123.93 682.43 121.22 682.43 118.03L682.43 112.23L683.43 112.35C684.35 112.45 684.44 112.61 684.55 114.19C684.65 115.84 685.03 116.37 685.53 115.56C685.99 114.82 687.88 115.19 689.07 116.26C690.2 117.26 690.27 117.47 690.39 120.27C690.53 123.41 690.21 124.31 688.95 124.31C688.33 124.31 688.26 124 688.26 121.3C688.25 119.65 688.11 118.08 687.95 117.81C687.75 117.51 687.11 117.38 686.22 117.45L684.8 117.57L684.69 120.46C684.63 122.06 684.41 123.58 684.19 123.84C683.77 124.35 683.06 124.46 682.67 124.07ZM766.59 123.87C766.52 123.61 766.51 120.89 766.57 117.82C766.67 112.3 766.69 112.24 767.48 112.35C768.27 112.46 768.28 112.56 768.28 118.29C768.28 123.96 768.26 124.13 767.51 124.24C767.08 124.3 766.67 124.13 766.59 123.87ZM503.24 122.45C503.96 122.02 504.71 121.38 504.9 121.01C505.12 120.62 505.26 115.16 505.26 107.56C505.26 96.1 505.2 94.78 504.68 94.78C504.09 94.78 502.03 96.07 501.51 96.77C501.35 96.98 501.31 102.97 501.42 110.09C501.52 117.21 501.61 123.08 501.61 123.13C501.62 123.34 502.01 123.17 503.24 122.45ZM677.52 122.32C678.2 121.65 678.42 121.04 678.42 119.84C678.42 117.91 677.95 117.38 676.2 117.38C674.68 117.38 674.41 117.77 674.41 119.94C674.41 123.09 675.74 124.11 677.52 122.32ZM697.14 122.46C698.89 121.09 698.26 120.09 695.9 120.48C694.73 120.68 694.46 120.88 694.46 121.54C694.46 122.41 695.08 123.22 695.76 123.22C695.99 123.22 696.62 122.88 697.14 122.46ZM749.63 122.47C750.87 121.49 751.25 119.52 750.44 118.27C749.93 117.51 749.59 117.36 748.48 117.45L747.14 117.57L747.03 119.88C746.87 123.14 747.71 123.98 749.63 122.47ZM761.39 122.36C762.21 121.66 762.39 121.21 762.39 119.8C762.39 117.69 762.02 117.3 760.22 117.45L758.8 117.57L758.69 120.09C758.55 123.37 759.4 124.08 761.39 122.36ZM198.94 121.03C202.82 119.04 205.87 115.74 207.51 111.73C208.98 108.15 209.01 102.83 207.58 99.65C207.29 99.02 207.06 98.39 207.06 98.26C207.06 97.48 203.82 93.47 202.2 92.25C198.53 89.47 197.36 89.14 191.39 89.14C186.71 89.14 185.9 89.23 184.36 89.94C180.37 91.77 177.52 94.69 175.69 98.79C174.89 100.59 174.8 101.3 174.8 105.55L174.8 110.31L176.23 113.2C178.58 117.95 182.81 121.47 187.01 122.17C187.91 122.32 190.47 122.38 192.69 122.3C196.34 122.17 196.94 122.05 198.94 121.03ZM660.26 120.59C659.4 119.73 659.88 119.57 663.41 119.57C667.16 119.57 667.74 119.73 667.07 120.54C666.54 121.18 660.89 121.22 660.26 120.59ZM642.24 118.21C642.47 117.51 640.52 116.9 639.51 117.35C638.75 117.7 638.43 118.47 638.86 118.9C639.21 119.24 642.09 118.65 642.24 118.21ZM716.08 118.51C716.98 117.61 714.39 116.67 713.27 117.5C712.19 118.28 712.74 119.05 714.32 118.98C715.07 118.94 715.86 118.73 716.08 118.51ZM651.98 118.49C652.1 118.3 651.8 117.88 651.31 117.57C650.18 116.83 648.53 117.17 648.53 118.15C648.53 118.73 648.8 118.84 650.15 118.84C651.04 118.84 651.86 118.68 651.98 118.49ZM551.63 111.48C551.39 111.24 551.19 110.66 551.19 110.2L551.19 109.36L578.18 109.36C602.83 109.36 605.19 109.42 605.4 109.96C605.52 110.29 605.46 110.82 605.25 111.14C604.92 111.68 602.32 111.74 578.48 111.83C558.24 111.9 551.97 111.82 551.63 111.48ZM277.35 110.75C277.89 110.2 277.91 107.08 277.39 104.64L276.99 102.8L244.26 102.8L211.53 102.8L211.3 105.44C211.17 106.9 210.96 108.78 210.85 109.64L210.63 111.19L243.77 111.19C269.06 111.19 277.01 111.08 277.35 110.75ZM316.19 110.91C316.28 110.76 316.27 108.88 316.16 106.72L315.96 102.8L297.98 102.8L280 102.8L280.2 106.54C280.31 108.59 280.46 110.48 280.54 110.73C280.65 111.09 284.53 111.19 298.35 111.19C308.07 111.19 316.09 111.06 316.19 110.91ZM111.94 104.75C112.44 103.44 112.43 98.66 111.93 97.72C111.71 97.31 111.28 96.97 110.99 96.97C110.56 96.97 110.46 97.67 110.46 100.77C110.46 102.86 110.56 104.82 110.68 105.14C111.01 106 111.52 105.84 111.94 104.75ZM123.58 104.81C123.83 104.5 124.12 102.82 124.22 101.07C124.38 98.25 124.31 97.78 123.66 96.97C123.25 96.47 122.83 96.14 122.74 96.24C122.51 96.48 122.32 100.57 122.41 103.26C122.49 105.4 122.78 105.78 123.58 104.81ZM491.7 99.92C494.96 97.84 497.97 95.71 498.38 95.19C499.06 94.33 499.1 93.89 498.92 90.05C498.82 87.74 498.72 82.2 498.71 77.74C498.7 70.76 498.62 69.63 498.15 69.63C497.85 69.63 495.1 71.16 492.04 73.04C488.99 74.92 486.13 76.64 485.69 76.87C485.1 77.17 470.03 77.28 428.95 77.28L373.02 77.28L365.41 82.98C361.22 86.11 357.48 88.98 357.09 89.35C356.39 90.02 356.39 90.05 357.85 92.17C359.44 94.47 361.63 99.36 361.63 100.6C361.63 101.02 361.87 101.94 362.16 102.63L362.69 103.9L424.22 103.81L485.76 103.71L491.7 99.92ZM651.97 102.7C651.86 102.41 651.99 101.29 652.26 100.21C652.67 98.62 652.92 98.22 653.6 98.12C655.07 97.91 655.19 98.56 654.11 100.81C653.06 102.98 652.33 103.63 651.97 102.7ZM614.49 100.61C613.1 100.35 612.45 99.8 612.44 98.84C612.44 98.51 612.71 98.41 613.26 98.53C613.71 98.63 614.57 98.83 615.18 98.96C617.39 99.47 619.34 96.49 617.7 95.13C617.39 94.87 616.23 94.58 615.13 94.49L613.14 94.32L613.24 91.36L613.35 88.4L616.48 88.3C618.83 88.22 619.72 88.32 620.04 88.71C620.71 89.51 619.56 90.2 617.21 90.41C615.72 90.54 615.15 90.75 615.06 91.18C614.9 92.07 615.99 92.96 617.23 92.96C618.74 92.96 620.46 94.7 620.46 96.23C620.46 99.32 617.85 101.24 614.49 100.61ZM625.7 100.7C623.5 100.35 622.04 96.51 622.65 92.71C623.04 90.29 623.5 89.45 624.82 88.77C626.26 88.03 627.25 88.08 628.66 88.95C630.23 89.92 630.83 91.5 630.8 94.6C630.78 97.15 630.2 98.91 629.08 99.84C628.38 100.42 626.67 100.86 625.7 100.7ZM664.69 100.69C663.85 100.63 662.98 100.36 662.76 100.09C662.5 99.77 662.39 97.7 662.46 94L662.56 88.4L663.47 88.4C664.3 88.4 664.39 88.56 664.5 90.16C664.59 91.66 664.7 91.89 665.23 91.66C666.8 90.99 667.73 91.09 668.87 92.04C670.31 93.25 670.89 95.2 670.37 97.07C669.63 99.79 667.85 100.92 664.69 100.69ZM674.23 100.69C672.41 100.32 671.43 98.14 672.29 96.35C672.68 95.53 673.2 95.22 674.96 94.78C676.16 94.48 677.11 94.07 677.06 93.87C677.01 93.67 676.04 93.42 674.9 93.32C672.78 93.14 672.34 92.82 672.94 91.88C673.17 91.51 673.95 91.34 675.47 91.33C677.34 91.32 677.81 91.45 678.58 92.23C679.37 93.02 679.51 93.55 679.65 96.24C679.78 98.67 679.7 99.47 679.27 99.95C678.96 100.29 678.51 100.49 678.26 100.39C678.02 100.3 677.17 100.36 676.38 100.53C675.6 100.7 674.63 100.77 674.23 100.69ZM687.63 100.42C686.42 99.91 686.07 99.27 686.08 97.58C686.09 95.9 686.45 95.54 688.82 94.84C691.77 93.96 691.85 93.32 689 93.32C686.89 93.32 686.76 93.28 686.87 92.52C687.12 90.81 691.18 90.74 692.86 92.42C693.65 93.21 693.73 93.6 693.73 96.58C693.73 99.34 693.63 99.91 693.09 100.19C692.74 100.37 692.27 100.45 692.05 100.37C691.83 100.29 690.99 100.37 690.18 100.55C689.16 100.78 688.39 100.74 687.63 100.42ZM708.79 100.56C707.01 100.07 706.12 98.55 706.12 95.96C706.12 93.49 706.82 92.27 708.66 91.51C710.62 90.7 714.09 91.89 713.13 93.04C712.82 93.42 712.15 93.52 710.69 93.4C708.76 93.24 708.68 93.27 708.29 94.28C707.77 95.65 708.1 97.65 709.01 98.56C709.67 99.21 709.88 99.24 711.26 98.83C713.15 98.26 713.97 98.78 712.85 99.84C711.96 100.69 710.31 100.98 708.79 100.56ZM717.97 100.72C715.87 100.31 714.14 98.2 714.14 96.06C714.14 93.65 716.34 91.14 718.45 91.14C720.39 91.13 722.53 93.09 722.53 94.88C722.53 96.27 721.85 96.6 718.99 96.6C717.53 96.6 716.33 96.75 716.33 96.92C716.33 97.09 716.68 97.68 717.11 98.23C717.92 99.26 718.35 99.3 721.16 98.59C722.01 98.38 722.16 98.46 722.16 99.1C722.16 100.21 719.87 101.1 717.97 100.72ZM726.21 100.63C724.13 100.12 722.98 96.29 724.1 93.61C724.71 92.15 726.43 91.02 727.79 91.2C728.95 91.35 729.82 90.52 729.82 89.24C729.82 88.34 729.95 88.19 730.64 88.29C731.44 88.4 731.46 88.51 731.56 93.83C731.65 98.42 731.57 99.36 731.07 99.91C730.75 100.27 730.26 100.48 730 100.38C729.74 100.28 728.97 100.34 728.3 100.52C727.63 100.7 726.69 100.75 726.21 100.63ZM632.36 100.37C632.23 100.24 632.12 97.53 632.12 94.36C632.12 89.98 632.23 88.59 632.58 88.59C633.6 88.6 634.02 89.28 634.07 91L634.13 92.78L636.5 92.78L638.87 92.78L639.06 90.89C639.28 88.71 639.56 88.27 640.43 88.82C640.96 89.15 641.07 89.98 641.15 94.45C641.24 99.04 641.18 99.75 640.64 100.15C639.54 100.95 639.05 100.06 639.05 97.27L639.05 94.75L636.59 94.86L634.13 94.96L634.08 97.24C634.03 99.82 633.24 101.25 632.36 100.37ZM643.84 100.29C643.11 99.83 643.57 98.79 645.63 96.22C646.62 94.98 647.43 93.83 647.43 93.66C647.43 93.5 646.65 93.31 645.7 93.25C644.22 93.16 643.95 93.02 643.85 92.32C643.74 91.52 643.82 91.5 647 91.5C651.24 91.5 651.38 91.8 648.71 95.24C647.61 96.66 646.7 98.04 646.7 98.31C646.7 98.63 647.21 98.79 648.25 98.8C650.27 98.8 651.03 99.25 650.37 100.04C650.01 100.47 649.21 100.61 647.11 100.61C645.59 100.61 644.11 100.46 643.84 100.29ZM682.46 100.1C682.18 99.77 682.08 97.78 682.15 94L682.25 88.4L683.16 88.4L684.07 88.4L684.17 94.13C684.26 99.45 684.22 99.88 683.57 100.22C683.05 100.5 682.76 100.47 682.46 100.1ZM696.53 100.37C696.39 100.24 696.28 98.17 696.28 95.78L696.28 91.42L697.22 91.66C697.74 91.79 698.72 91.69 699.4 91.44C700.45 91.06 700.84 91.09 701.93 91.61C703.57 92.39 703.94 93.39 703.94 96.98C703.94 99.43 703.84 99.91 703.25 100.23C702.15 100.82 701.79 99.98 701.67 96.59L701.57 93.51L700.11 93.51L698.65 93.51L698.47 96.56C698.32 99.13 698.17 99.7 697.53 100.12C697.11 100.39 696.66 100.51 696.53 100.37ZM627.73 98.45C628.6 97.57 628.98 95.67 628.76 93.32C628.54 91.09 628 90.41 626.43 90.41C624.95 90.41 624.64 91.19 624.68 94.84C624.72 98.52 626.06 100.11 627.73 98.45ZM667.46 98.45C668.37 97.54 668.73 95.61 668.24 94.3C667.89 93.38 667.71 93.29 666.3 93.39L664.75 93.51L664.64 95.82C664.52 98.27 664.9 99.16 666.07 99.16C666.45 99.16 667.07 98.84 667.46 98.45ZM676.85 98.36C678.22 97.07 677.95 96.55 675.96 96.68C674.12 96.79 673.53 97.55 674.42 98.63C675.04 99.37 675.87 99.28 676.85 98.36ZM691.01 98.2C692.14 96.98 691.89 96.6 689.92 96.6C688.18 96.6 687.62 97.23 688.28 98.45C688.8 99.44 689.96 99.33 691.01 98.2ZM728.93 98.26C729.6 97.59 729.82 96.98 729.82 95.78C729.82 93.91 729.34 93.32 727.81 93.32C726.25 93.32 725.81 93.91 725.81 96.01C725.81 98.94 727.22 99.96 728.93 98.26ZM719.96 94.62C720.63 93.81 720.09 93.32 718.52 93.32C717.03 93.32 716.5 93.73 716.83 94.62C717.1 95.31 719.39 95.31 719.96 94.62ZM503.24 92.55C503.96 92.13 504.71 91.48 504.9 91.12C505.12 90.73 505.26 85.4 505.26 78.04C505.26 65.89 505.24 65.62 504.54 65.62C504.14 65.62 503.19 66.06 502.44 66.59L501.07 67.57L501.17 79.99C501.22 86.82 501.34 92.62 501.43 92.87C501.64 93.47 501.72 93.45 503.24 92.55ZM551.63 84.5C551.39 84.26 551.19 83.69 551.19 83.23L551.19 82.39L578.18 82.39C602.83 82.39 605.19 82.44 605.4 82.98C605.52 83.31 605.46 83.84 605.25 84.17C604.92 84.7 602.32 84.77 578.48 84.85C558.24 84.92 551.97 84.84 551.63 84.5ZM306.46 73.4C306.33 73.26 306.22 70.53 306.22 67.33L306.22 61.51L307.49 61.72C308.19 61.83 308.85 61.77 308.97 61.58C309.3 61.04 311.45 61.19 312.34 61.81C315.89 64.3 314.08 70.72 309.81 70.72C308.58 70.72 308.41 70.83 308.41 71.58C308.41 72.05 308.11 72.7 307.74 73.03C307 73.7 306.82 73.75 306.46 73.4ZM339.55 72.79C339.45 72.54 339.6 71.43 339.88 70.34C340.34 68.51 340.47 68.34 341.53 68.24C342.9 68.1 342.92 68.25 341.79 70.81C340.91 72.8 339.89 73.69 339.55 72.79ZM317.11 69.7C316.19 68.87 315.93 68.32 315.79 66.82C315.56 64.42 316.16 62.65 317.49 61.87C320.94 59.83 324.97 63.39 323.77 67.41C322.82 70.58 319.41 71.75 317.11 69.7ZM331.88 70.03C329.22 68.41 329.33 63.22 332.05 61.81C334.27 60.67 336.68 61.36 337.77 63.47C339.02 65.88 338.18 66.71 334.49 66.71C332.66 66.71 332.1 66.83 332.1 67.23C332.1 68.06 333.97 69.34 334.82 69.09C336.94 68.46 337.93 68.44 337.93 69.01C337.93 70.65 333.98 71.31 331.88 70.03ZM350.6 70.35C350.25 70.13 349.96 69.62 349.96 69.2C349.96 68.43 350.61 68.4 352.78 69.09C353.39 69.28 353.85 69.08 354.69 68.24C355.93 67 356.02 66.5 355.22 65.44C354.83 64.91 354.1 64.66 352.59 64.53L350.51 64.34L350.51 61.43L350.51 58.51L353.76 58.4C357.16 58.29 358.08 58.6 357.27 59.59C356.94 59.98 356.14 60.15 354.63 60.15L352.47 60.15L352.58 61.31C352.69 62.38 352.85 62.52 354.52 62.94C356.8 63.51 357.62 64.48 357.62 66.56C357.62 67.8 357.39 68.42 356.58 69.32C355.67 70.34 355.27 70.5 353.39 70.61C352.21 70.68 350.95 70.57 350.6 70.35ZM361.9 70.33C360.41 69.46 359.54 65.96 359.97 62.52C360.3 59.9 361.74 58.33 363.8 58.33C366.54 58.33 368.19 60.65 368.19 64.52C368.19 67.14 367.56 68.85 366.18 69.93C365.1 70.78 363.01 70.97 361.9 70.33ZM381.41 70.48C380.48 70.11 381.02 68.65 382.96 66.26C384.06 64.9 384.96 63.72 384.96 63.63C384.96 63.54 384.18 63.42 383.23 63.36C381.75 63.26 381.48 63.13 381.38 62.43C381.27 61.63 381.35 61.61 384.57 61.61C388.65 61.61 388.74 61.86 385.87 65.45C384.77 66.84 383.87 68.18 383.87 68.43C383.87 68.75 384.48 68.9 385.85 68.9C388 68.9 388.75 69.45 387.68 70.23C387.03 70.71 382.42 70.89 381.41 70.48ZM295.48 69.93C295.39 69.66 295.27 69.04 295.21 68.53C295.11 67.69 294.93 67.61 292.73 67.44C290.37 67.26 290.36 67.26 290.25 66.07C290.15 65.06 290.51 64.45 292.79 61.77C294.98 59.2 295.6 58.68 296.36 58.77C297.26 58.87 297.29 58.95 297.39 62.06C297.49 65 297.57 65.3 298.4 65.85C299.11 66.31 299.21 66.55 298.89 66.94C298.66 67.22 298.26 67.44 297.99 67.44C297.7 67.44 297.47 67.98 297.4 68.81C297.31 69.91 297.13 70.2 296.46 70.29C296.01 70.36 295.57 70.19 295.48 69.93ZM326.27 64.34L326.27 58.33L327.14 58.33C327.62 58.33 328.11 58.59 328.23 58.9C328.36 59.22 328.46 61.73 328.46 64.48C328.46 69.64 328.27 70.36 326.92 70.36C326.32 70.36 326.27 69.89 326.27 64.34ZM369.53 70.11C369.39 69.98 369.28 67.36 369.28 64.28L369.28 58.69L370.19 58.69C371.15 58.69 371.37 59.16 371.56 61.61C371.65 62.88 371.66 62.88 373.6 63C376.09 63.14 376.58 62.72 376.58 60.44C376.58 58.78 376.64 58.65 377.4 58.76C378.21 58.87 378.22 58.94 378.22 64.52C378.22 70.07 378.2 70.18 377.41 70.29C376.65 70.4 376.6 70.25 376.5 67.74L376.39 65.07L373.93 64.96L371.47 64.86L371.47 67.17C371.47 69.4 371.08 70.36 370.18 70.36C369.96 70.36 369.66 70.25 369.53 70.11ZM311.16 68.3C312.41 66.94 312.42 64.42 311.18 63.6C310.62 63.24 309.96 63.12 309.36 63.27C308.44 63.5 308.41 63.61 308.41 66.17C308.41 68.8 308.57 69.16 309.79 69.23C310.05 69.25 310.67 68.83 311.16 68.3ZM321.25 68.03C321.94 67.18 322.09 65.21 321.54 64.18C321.09 63.33 319.54 62.94 318.62 63.43C317.69 63.92 317.31 66.05 317.89 67.46C318.68 69.35 319.98 69.58 321.25 68.03ZM365.43 67.97C365.82 67.38 366 66.23 366 64.36C366 62.09 365.87 61.48 365.27 60.88C364.41 60.02 363.84 59.97 362.88 60.67C362.27 61.11 362.18 61.64 362.18 64.53C362.18 67.57 362.25 67.93 363.01 68.55C363.99 69.34 364.64 69.18 365.43 67.97ZM294.84 65.18C295.38 64.64 295.43 62.34 294.9 62.34C294.32 62.34 292.75 64.26 292.74 64.98C292.73 65.73 294.16 65.87 294.84 65.18ZM336.02 64.25C336.22 63.65 334.46 63.01 333.35 63.29C332.79 63.43 332.47 63.77 332.47 64.22C332.47 64.84 332.69 64.91 334.17 64.82C335.12 64.76 335.94 64.51 336.02 64.25ZM138.53 53.7C134.87 53 133.06 47.43 135.29 43.76C136.74 41.38 140.43 40.64 143.33 42.14C144.66 42.83 144.61 43.98 143.25 43.83C138.34 43.27 138.29 43.27 137.49 44.14C136.84 44.83 136.7 45.43 136.7 47.49C136.7 49.78 136.8 50.09 137.77 51.06C138.99 52.28 139.86 52.38 142.09 51.53C143.24 51.09 143.77 51.03 144.07 51.33C144.52 51.78 143.98 52.65 142.93 53.2C142.13 53.62 139.62 53.9 138.53 53.7ZM168.91 53.59C167.1 52.86 166.39 50.33 167.6 48.91C167.95 48.5 169.11 47.94 170.18 47.68C172.57 47.1 172.64 46.5 170.33 46.41C169.38 46.38 168.39 46.34 168.12 46.32C167.84 46.31 167.69 45.97 167.76 45.5C167.99 43.9 171.75 43.73 173.67 45.24C174.57 45.95 174.62 46.16 174.62 49.4C174.62 53.16 174.52 53.34 172.38 53.45C171.65 53.48 170.74 53.6 170.37 53.71C170 53.81 169.34 53.76 168.91 53.59ZM179.01 53.46C177.33 52.9 176.29 51.1 176.33 48.79C176.34 47.79 176.62 46.62 176.97 46.08C177.81 44.81 179.79 44.02 181.4 44.32C184.38 44.88 184.24 46.76 181.24 46.44C180.31 46.34 179.3 46.42 179.02 46.61C178.2 47.17 178.29 50.42 179.14 51.36C179.86 52.16 181.34 52.39 181.73 51.77C182.06 51.22 183.26 51.32 183.49 51.91C183.97 53.18 181.12 54.17 179.01 53.46ZM213.06 53.56C211.27 53.05 210.26 51.69 210.06 49.53C209.92 48.15 210.05 47.32 210.52 46.44C211.16 45.26 212.96 44.11 214.17 44.11C215.56 44.11 217.18 45.26 217.84 46.71C218.84 48.93 218.38 49.37 214.95 49.5C211.92 49.62 211.5 50.01 212.89 51.4C213.73 52.23 214.47 52.3 216.15 51.72C217.73 51.17 218.49 51.82 217.44 52.82C216.56 53.66 214.56 54 213.06 53.56ZM122.92 53.15C122.32 52.54 122.32 42.61 122.92 42C123.17 41.76 124.19 41.56 125.2 41.56C130.24 41.57 132.95 43.9 132.62 47.94C132.32 51.55 129.82 53.59 125.67 53.59C124.36 53.59 123.17 53.4 122.92 53.15ZM152.26 53.35C152.12 53.21 152.02 51.14 152.02 48.75L152.02 44.4L152.96 44.63C153.48 44.76 154.46 44.69 155.14 44.47C156.13 44.14 156.6 44.18 157.62 44.66C158.78 45.21 158.96 45.21 160.03 44.66C161.49 43.9 163.06 44.22 164.04 45.46C164.65 46.24 164.77 46.94 164.77 49.58C164.77 51.93 164.63 52.89 164.24 53.21C163.28 54.01 162.95 53.24 162.95 50.18C162.95 46.92 162.66 46.3 161.13 46.3C159.62 46.3 159.31 46.93 159.31 49.97C159.31 52.01 159.16 52.89 158.76 53.22C157.67 54.13 157.15 53.05 157.04 49.64C156.93 46.23 156.73 45.95 154.72 46.45C153.88 46.67 153.84 46.8 153.84 49.69C153.84 52.9 153.23 54.31 152.26 53.35ZM185.43 53.35C185.3 53.21 185.19 50.42 185.19 47.15C185.19 41.66 185.24 41.19 185.85 41.19C186.87 41.19 187.38 41.95 187.38 43.49C187.38 44.72 187.47 44.88 188.01 44.62C189.37 44 191.11 44.32 191.99 45.34C192.75 46.22 192.84 46.71 192.84 49.55C192.84 51.92 192.71 52.89 192.31 53.21C191.36 54 191.02 53.24 191.02 50.36C191.02 46.94 190.61 46.19 188.82 46.36L187.56 46.48L187.45 49.39C187.37 51.42 187.17 52.49 186.76 52.94C186.13 53.64 185.82 53.73 185.43 53.35ZM195.79 53.08C195.52 52.75 195.41 51.27 195.47 48.8C195.58 45.04 195.58 45.02 196.49 45.02C197.4 45.02 197.4 45.04 197.51 48.8C197.6 52.35 197.34 53.59 196.49 53.59C196.34 53.59 196.02 53.36 195.79 53.08ZM200.56 53.26C200.24 53.06 200.14 51.82 200.21 48.83L200.32 44.67L201.96 44.57C206.11 44.32 206.05 44.31 206.94 45.34C207.69 46.22 207.79 46.71 207.79 49.55C207.79 51.92 207.65 52.89 207.26 53.21C206.29 54.01 205.97 53.24 205.97 50.15C205.97 46.72 205.65 46.18 203.71 46.36L202.5 46.48L202.4 49.66C202.31 52.27 202.18 52.91 201.65 53.19C201.3 53.38 200.81 53.41 200.56 53.26ZM171.95 51.34C173.33 50.04 173.05 49.52 171.07 49.65C169.74 49.73 169.31 49.91 169.21 50.42C168.88 52.2 170.47 52.73 171.95 51.34ZM128.32 51.22C128.9 50.92 129.63 50.31 129.94 49.86C130.57 48.96 130.69 46.81 130.17 45.47C129.76 44.38 127.75 43.38 125.99 43.38L124.67 43.38L124.67 47.33C124.67 49.5 124.78 51.39 124.92 51.52C125.35 51.95 127.23 51.78 128.32 51.22ZM215.76 47.64C216.34 46.94 215.56 46.3 214.14 46.3C212.93 46.3 211.94 47.09 212.34 47.74C212.68 48.29 215.28 48.21 215.76 47.64ZM290.17 46.1C289.79 45.64 289.84 45.4 290.49 44.71C291.18 43.98 291.27 43.46 291.27 40.39C291.27 37.74 291.14 36.8 290.72 36.45C290.42 36.2 290.18 35.69 290.18 35.32C290.18 34.73 290.46 34.63 292.16 34.63C294.35 34.63 294.93 35.07 294.04 36.05C293.19 36.99 293.2 43.95 294.06 44.89C294.54 45.43 294.57 45.66 294.19 46.11C293.58 46.85 290.78 46.85 290.17 46.1ZM307.92 45.84C306.77 44.7 306.32 42.06 306.92 40.05C307.42 38.39 309.05 37.19 310.79 37.18C312.18 37.18 312.78 36.61 312.78 35.26C312.78 34.39 312.91 34.24 313.6 34.33C314.4 34.45 314.42 34.56 314.52 39.96C314.6 44.17 314.51 45.56 314.14 45.86C313.88 46.08 312.57 46.37 311.25 46.51C308.99 46.74 308.77 46.7 307.92 45.84ZM317.94 45.74C317.26 44.87 317.15 44.27 317.15 41.14C317.15 37.83 317.21 37.55 317.86 37.55C318.92 37.55 319.14 38.15 319.34 41.52C319.57 45.32 320.15 45.96 321.88 44.3C322.93 43.3 322.99 43.09 322.99 40.4C322.99 37.84 323.06 37.55 323.68 37.55C324.06 37.55 324.47 37.81 324.59 38.12C324.91 38.96 324.86 45.86 324.54 46.06C324.39 46.15 323.02 46.34 321.49 46.48C318.78 46.73 318.71 46.72 317.94 45.74ZM328.41 45.63C327.44 44.76 327.22 44.28 327.09 42.62C326.89 40.13 327.39 38.84 328.9 37.89C330.3 37.02 332.9 37.1 333.85 38.05C334.77 38.97 333.89 39.53 331.69 39.41C329.47 39.29 329.2 39.58 329.19 42.01C329.18 44.08 330.2 45.42 331.5 45.05C333.71 44.41 334.29 44.39 334.29 44.92C334.29 45.93 333.02 46.66 331.26 46.66C329.91 46.66 329.32 46.45 328.41 45.63ZM336.71 46C336.28 45.52 336.11 44.65 336.11 42.91C336.11 40.66 335.59 38.64 335.01 38.64C334.87 38.64 335.11 37.91 335.53 37.01C336.1 35.79 336.48 35.39 337.02 35.46C337.47 35.51 337.8 35.86 337.87 36.36C337.95 36.93 338.34 37.27 339.14 37.48C340.78 37.9 340.77 39.14 339.12 39.3L337.93 39.42L337.93 41.87C337.93 44.48 338.29 45.2 339.59 45.2C340.61 45.2 340.94 45.57 340.44 46.17C339.83 46.9 337.43 46.79 336.71 46ZM348.22 46.09C345.56 44.23 345.73 39.17 348.49 37.74C349.98 36.97 351.11 37.05 352.55 38.01C354.24 39.16 354.76 40.29 354.58 42.45C354.46 43.95 354.22 44.44 353.11 45.45C351.62 46.82 349.63 47.08 348.22 46.09ZM387.8 46.23C386.71 45.39 386.36 43.86 386.93 42.49C387.39 41.41 387.69 41.21 389.5 40.8C392.77 40.07 392.76 39.13 389.49 39.28C387.63 39.36 387.51 39.31 387.51 38.5C387.51 36.46 392.93 36.86 394.06 38.99C394.49 39.79 394.58 45.8 394.16 46.06C394.01 46.15 392.66 46.33 391.16 46.47C389.13 46.65 388.26 46.59 387.8 46.23ZM398.16 46.09C397 45.28 396.26 43.65 396.26 41.92C396.26 38.87 398.3 36.92 401.11 37.3C404.22 37.72 404.29 39.81 401.18 39.46C399 39.21 398.45 39.72 398.45 41.97C398.45 43.26 398.65 43.94 399.18 44.47C400.02 45.31 400.59 45.38 401.9 44.78C403.25 44.16 403.95 44.89 403.01 45.92C402.18 46.84 399.37 46.94 398.16 46.09ZM431.29 45.72C429.94 44.58 429.34 42.62 429.78 40.71C430.34 38.27 432.34 36.9 434.69 37.34C436.96 37.76 438.69 40.91 437.38 42.21C437.12 42.47 435.87 42.65 434.28 42.65C431.36 42.65 431.11 42.9 432.55 44.35C433.18 44.98 433.75 45.22 434.29 45.1C437.6 44.34 437.45 44.34 437.45 45.15C437.45 46.17 436.41 46.66 434.23 46.66C432.8 46.66 432.16 46.46 431.29 45.72ZM296.98 46.05C296.69 45.76 296.67 39.5 296.96 38.41C297.13 37.79 297.45 37.62 298.5 37.62C299.24 37.62 300.35 37.51 300.98 37.37C301.92 37.16 302.32 37.3 303.29 38.16C304.37 39.13 304.47 39.4 304.66 42.19C304.88 45.39 304.57 46.3 303.26 46.3C302.64 46.3 302.57 45.99 302.57 43.24C302.57 39.79 302.26 39.25 300.32 39.44L299.11 39.55L299 42.45C298.94 44.05 298.72 45.56 298.5 45.82C298.08 46.34 297.37 46.44 296.98 46.05ZM342.31 41.92C342.31 37.43 342.44 37.07 343.77 37.9C344.18 38.17 344.33 39.06 344.36 41.64C344.42 45.3 344.13 46.3 343.02 46.3C342.35 46.3 342.31 46.03 342.31 41.92ZM356.61 42.01L356.71 37.73L357.98 37.66C358.69 37.61 359.87 37.47 360.62 37.34C361.8 37.14 362.11 37.25 363.09 38.22C364.2 39.33 364.21 39.38 364.1 42.73C364 45.93 363.95 46.12 363.18 46.23C362.39 46.34 362.36 46.25 362.36 43.48C362.36 40.01 361.95 39.26 360.15 39.43L358.89 39.55L358.79 42.45C358.67 45.5 358.34 46.3 357.2 46.3C356.55 46.3 356.51 46.02 356.61 42.01ZM371.63 45.82C371.53 45.55 371.49 43.63 371.55 41.53L371.65 37.73L372.93 37.66C373.63 37.63 374.72 37.49 375.35 37.35C376.14 37.19 376.78 37.3 377.42 37.72C378.26 38.27 378.44 38.28 379.45 37.75C381.11 36.89 382.32 37.04 383.54 38.26C384.6 39.32 384.62 39.4 384.52 42.73C384.41 46.07 384.4 46.11 383.5 46.11C382.61 46.11 382.59 46.04 382.41 42.83L382.23 39.55L380.77 39.55L379.31 39.55L379.2 42.53C379.1 45.59 378.62 46.6 377.51 46.17C377.1 46.02 376.94 45.18 376.86 42.76L376.76 39.55L375.3 39.55L373.84 39.55L373.73 42.45C373.67 44.05 373.45 45.56 373.23 45.82C372.73 46.44 371.86 46.43 371.63 45.82ZM405.2 45.5C405.09 45.04 405.05 42.36 405.1 39.55L405.19 34.45L406.1 34.45C406.91 34.45 407.04 34.63 407.2 36.09C407.33 37.32 407.52 37.69 407.93 37.58C411.6 36.61 413.02 38.19 413.03 43.25C413.03 45.58 412.47 46.58 411.41 46.17C411 46.02 410.85 45.18 410.77 42.76L410.66 39.55L409.02 39.55L407.38 39.55L407.2 42.83C407.03 45.88 406.96 46.12 406.21 46.23C405.61 46.31 405.35 46.12 405.2 45.5ZM415.58 42.09C415.58 38.61 415.68 37.85 416.15 37.67C417.2 37.27 417.53 38.19 417.57 41.64C417.6 45.4 417.35 46.3 416.3 46.3C415.63 46.3 415.58 46.03 415.58 42.09ZM419.96 41.96L419.96 37.56L421.32 37.58C422.08 37.59 423.3 37.49 424.05 37.35C425.24 37.14 425.54 37.24 426.52 38.22C427.63 39.33 427.64 39.38 427.53 42.73C427.43 46.07 427.42 46.11 426.52 46.11C425.63 46.11 425.6 46.04 425.42 42.83L425.24 39.55L423.94 39.44C423.16 39.38 422.46 39.53 422.22 39.83C422 40.1 421.76 41.62 421.7 43.22C421.6 45.91 421.54 46.12 420.78 46.23C419.96 46.35 419.96 46.3 419.96 41.96ZM311.9 44.29C312.69 43.51 312.8 43.1 312.71 41.46L312.6 39.55L311.21 39.44C310.44 39.38 309.58 39.52 309.29 39.76C308.59 40.34 308.62 43.36 309.34 44.39C310.07 45.45 310.78 45.42 311.9 44.29ZM351.62 44.31C352.26 43.67 352.52 43.01 352.52 42.01C352.52 39.97 351.89 39.29 350.13 39.44L348.69 39.55L348.58 41.8C348.48 43.79 348.57 44.11 349.3 44.62C350.39 45.39 350.57 45.36 351.62 44.31ZM391.5 44.31C392.74 43 392.28 42.13 390.52 42.46C389.77 42.6 389.03 42.79 388.88 42.89C388.37 43.21 388.6 44.44 389.24 44.81C390.21 45.37 390.59 45.29 391.5 44.31ZM195.53 42.84C195.4 42.51 195.47 42.07 195.67 41.86C196.27 41.27 197.4 41.67 197.4 42.47C197.4 43.4 195.86 43.7 195.53 42.84ZM434.93 40.82C435.89 40.3 435.81 39.79 434.72 39.37C433.62 38.95 431.99 39.48 431.99 40.24C431.99 41.15 433.69 41.48 434.93 40.82ZM342.31 35.54C342.31 34.89 342.51 34.63 342.99 34.63C343.96 34.63 344.6 35.47 344.05 36.03C343.27 36.8 342.31 36.54 342.31 35.54ZM415.58 35.54C415.58 34.75 415.73 34.6 416.4 34.7C416.94 34.77 417.22 35.06 417.22 35.54C417.22 36.02 416.94 36.31 416.4 36.39C415.73 36.48 415.58 36.33 415.58 35.54Z" fill="#1e2749" fill-rule="evenodd"/>
</svg>
