<?xml version="1.0" encoding="UTF-8"?>
<svg xmlns="http://www.w3.org/2000/svg" viewBox="0 0 547 418" width="547" height="418" shape-rendering="geometricPrecision">
<path d="M303.05 405.66C301.35 405.31 299.06 403.55 297.94 401.75C297.23 400.6 297.17 400.15 297.18 396C297.2 391.87 297.28 391.32 298.11 389.33C300.39 383.88 303.63 381.09 309.1 379.84C311.6 379.27 311.81 379.27 313.94 379.83C316.99 380.64 318.19 381.44 319.34 383.45C320.93 386.23 320.59 388 318.47 388C317.26 388 316.91 387.66 316.35 385.92C315.83 384.31 314.72 383.46 312.52 383C309.75 382.43 306.06 383.63 304.09 385.74C302.12 387.87 300.7 392.05 300.68 395.79C300.65 399.84 301.96 401.82 304.97 402.3C308.7 402.89 311.47 401.59 313.85 398.13C315.1 396.32 315.31 396.16 316.61 396.06C318.42 395.93 318.6 396.43 317.49 398.43C314.48 403.81 308.51 406.8 303.05 405.66ZM285.77 404.93C285.58 404.69 284.5 402.55 283.36 400.17C279.58 392.27 278.51 390.23 277.96 389.89C277.57 389.65 277.06 389.72 276.17 390.14C275.32 390.55 274.82 390.62 274.59 390.39C273.99 389.79 274.54 389.14 276.44 388.18C279.35 386.71 279.41 386.77 282.58 393.33C284.1 396.46 285.33 399.18 285.33 399.37C285.33 399.57 285.52 399.66 285.75 399.58C286.15 399.45 287.04 394.86 288.15 387.17C288.42 385.33 288.88 382.41 289.18 380.67C289.48 378.93 289.86 376.6 290.03 375.5C290.54 372.17 289.8 372.33 303.89 372.33C311.63 372.33 316.28 372.46 316.69 372.68C317.56 373.14 317.56 374.86 316.69 375.32C316.28 375.54 311.62 375.67 303.86 375.67L291.68 375.67L291.53 376.42C291.12 378.43 290.95 379.42 290.51 382.5C290.25 384.33 289.8 387.11 289.52 388.67C289.24 390.22 288.84 392.85 288.64 394.5C288.44 396.15 288.07 398.32 287.81 399.32C287.55 400.32 287.32 401.67 287.3 402.32C287.23 404.69 286.52 405.9 285.77 404.93ZM478.49 369.99C478.38 369.8 478.61 369.09 479.02 368.41C480.14 366.53 481.01 364.99 481.9 363.33L482.7 361.83L275.97 361.75C123.8 361.69 69.12 361.57 68.78 361.29C68.41 360.98 68.33 334.13 68.33 195.96C68.33 46.89 68.28 31 67.81 31C67.53 31 65.62 31.98 63.56 33.17C61.51 34.36 59.78 35.18 59.72 34.99C59.61 34.65 60.4 32.42 61.67 29.5C62.99 26.47 64.33 23.15 64.33 22.94C64.33 22.82 64.78 21.74 65.33 20.55C65.88 19.36 66.33 18.16 66.33 17.88C66.33 17.6 66.46 17.29 66.62 17.2C66.77 17.1 67.16 16.3 67.47 15.43C69.57 9.57 70.14 9.36 71.82 13.83C72.3 15.12 72.84 16.31 73.02 16.48C73.19 16.66 73.33 17.02 73.33 17.29C73.33 17.56 73.77 18.77 74.3 19.97C74.83 21.18 75.74 23.37 76.33 24.83C76.92 26.3 77.66 28.1 77.99 28.83C78.31 29.57 78.76 30.69 78.99 31.33C79.22 31.97 79.65 32.98 79.94 33.58C80.97 35.64 80.07 35.55 76.13 33.18C74.13 31.98 72.31 31 72.08 31C71.75 31 71.67 64.02 71.67 195L71.67 359L276.98 359C417.89 359 482.36 358.89 482.51 358.66C482.62 358.47 481.73 356.66 480.53 354.64C479.32 352.62 478.33 350.82 478.33 350.65C478.33 350.08 479.62 350.32 481.91 351.3C483.15 351.84 485.37 352.74 486.83 353.31C488.3 353.89 489.79 354.52 490.14 354.71C490.49 354.91 491.6 355.36 492.62 355.71C493.63 356.06 494.77 356.54 495.15 356.79C495.53 357.03 496.28 357.34 496.82 357.47C497.36 357.6 498.56 358.06 499.49 358.48C500.41 358.91 501.59 359.42 502.11 359.63C503.08 360.02 503.16 360.6 502.31 361.02C502.05 361.15 500.56 361.74 499 362.33C497.44 362.92 495.39 363.76 494.44 364.2C493.49 364.64 492.6 365 492.46 365C492.32 365 491.6 365.29 490.86 365.64C488.75 366.65 479.48 370.33 479.07 370.33C478.87 370.33 478.61 370.18 478.49 369.99ZM270.05 205.4C266.33 201.61 246.98 182.15 227.05 162.16C207.13 142.17 171.9 106.81 148.75 83.58C123.6 58.35 106.67 41.11 106.67 40.74C106.67 39.93 107.31 39.33 108.18 39.33C108.69 39.33 114.26 44.73 127.01 57.58C149.54 80.29 275.74 207.03 277.33 208.55L278.5 209.66L359.27 209.66C414.31 209.67 440.25 209.78 440.69 210.01C441.42 210.4 441.53 211.33 440.93 211.93C440.62 212.24 421.92 212.33 358.68 212.32L276.83 212.31L270.05 205.4ZM287.25 198.92C287.16 198.69 287.22 197.67 287.37 196.67C287.53 195.66 287.81 193.41 288.01 191.67C288.52 187.12 289.31 181.13 289.68 179.03C289.86 178.03 290 176.67 290 175.99C290 172.76 290.85 171.75 291.87 173.75C292.18 174.35 293.17 176.08 294.09 177.6C296.05 180.87 296.03 180.87 298.35 176.65C299.16 175.16 300.21 173.28 300.67 172.48C301.12 171.69 303.15 168.09 305.17 164.5C307.18 160.91 309.24 157.27 309.74 156.41C310.24 155.54 310.82 154.5 311.04 154.08C311.51 153.2 313.03 153.06 313.68 153.85C314.15 154.42 314.04 154.71 311.92 158.4C311.32 159.45 309.84 162.07 308.62 164.23C307.41 166.4 305.69 169.44 304.82 171C303.94 172.56 302.94 174.36 302.59 175C302.24 175.64 301.78 176.47 301.56 176.83C299.54 180.24 298.97 181.43 299.14 181.88C299.31 182.32 299.97 182.39 303.42 182.33C308.22 182.24 308.33 182.24 308.33 182.64C308.33 182.8 307.19 183.82 305.8 184.89C301.68 188.05 299.75 189.58 293.53 194.58C290.29 197.2 287.59 199.33 287.52 199.33C287.46 199.33 287.33 199.15 287.25 198.92ZM38.16 191.92C38.06 191.5 38.02 188.47 38.07 185.17L38.17 179.17L38.98 179.05C39.45 178.99 39.96 179.16 40.18 179.46C40.53 179.94 40.7 179.92 41.93 179.33C43.82 178.42 45.61 178.47 46.98 179.49L48.09 180.31L49.49 179.49C51.07 178.56 52.5 178.45 54.11 179.12C56.1 179.95 56.42 180.89 56.6 186.41C56.74 190.82 56.69 191.42 56.16 192.01C55.44 192.8 54.48 192.87 54.2 192.14C54.09 191.85 54 189.59 54 187.12C54 182.75 53.98 182.61 53.14 181.78C52.46 181.09 52.08 180.97 51.23 181.13C50.64 181.24 49.83 181.72 49.42 182.18C48.72 182.97 48.67 183.35 48.67 187.29C48.67 191.81 48.37 192.85 47.14 192.62C46.55 192.5 46.49 192.1 46.33 187.38C46.17 182.51 46.13 182.24 45.38 181.64C44.48 180.91 44.14 180.87 42.77 181.35C41.17 181.91 40.67 183.41 40.67 187.7C40.67 189.72 40.51 191.67 40.32 192.02C39.83 192.94 38.4 192.87 38.16 191.92ZM7.9 184.12C7.47 183.69 7.66 183.42 8.68 182.99C10.12 182.4 11.88 180.2 12.53 178.2C12.83 177.27 13.34 175.9 13.66 175.17C13.98 174.43 14.43 173.23 14.66 172.5C14.89 171.77 15.28 170.72 15.52 170.17C15.77 169.62 16.29 168.27 16.69 167.17C17.09 166.07 17.78 164.19 18.23 163C18.69 161.81 19.42 159.79 19.87 158.52C20.69 156.2 21.18 155.33 21.68 155.33C21.93 155.33 23.67 158.69 23.67 159.17C23.67 159.28 24.03 160.15 24.47 161.1C24.91 162.06 25.82 164.18 26.49 165.83C27.15 167.48 28.07 169.62 28.52 170.59C28.97 171.56 29.33 172.54 29.33 172.77C29.33 173 29.54 173.48 29.79 173.84C30.04 174.2 30.36 174.88 30.5 175.33C30.73 176.09 32.2 179.49 33.05 181.2C33.24 181.59 33.98 182.26 34.69 182.7C35.4 183.14 35.94 183.65 35.88 183.83C35.82 184.03 33.61 184.2 30.39 184.26C26.05 184.33 25 184.26 25 183.9C25 183.66 25.49 183.24 26.08 182.98C27.1 182.53 27.17 182.4 27.15 180.83C27.13 179.74 26.81 178.52 26.23 177.3C25.74 176.28 25.33 175.33 25.33 175.2C25.33 175.06 24.95 174.12 24.48 173.09C24.01 172.06 23.42 170.69 23.17 170.03C22.93 169.37 22.35 167.86 21.9 166.67C20.58 163.19 20.36 163.37 18.02 169.83C17.68 170.75 16.95 172.7 16.39 174.17C15.83 175.63 15.04 177.87 14.64 179.15C13.98 181.22 13.95 181.55 14.38 182.31C14.64 182.78 15.2 183.22 15.61 183.28C16.03 183.34 16.31 183.56 16.24 183.78C16.1 184.21 8.31 184.53 7.9 184.12ZM321.17 139.7C318.89 138.97 315.63 135.73 314.88 133.45C313.88 130.38 313.56 127.11 314 124.35C314.73 119.79 316.64 116.91 320.17 115.06C321.66 114.27 322.21 114.18 325.33 114.17C328.68 114.17 328.92 114.22 330.9 115.29C333.01 116.43 334.19 117.76 335.17 120.11C335.83 121.72 335.42 122.34 333.71 122.32C332.61 122.31 332.41 122.16 331.5 120.57C330.15 118.23 328.68 117.5 325.33 117.51C321.19 117.52 319.55 118.74 318.01 122.94C317.35 124.73 317.27 125.41 317.45 127.6C317.96 133.88 320.55 137 325.26 137C326.97 137 327.49 136.84 328.83 135.92C330.38 134.85 332.29 132.11 332.32 130.92C332.33 130.44 332.64 130.33 333.94 130.33C334.83 130.33 335.64 130.42 335.74 130.52C336.03 130.81 335.08 133.64 334.17 135.19C331.7 139.41 326.2 141.32 321.17 139.7ZM374.75 139.59C370.88 138.1 368.73 135.11 367.86 130.01C367.37 127.09 367.37 126.62 367.88 123.85C368.7 119.38 370.24 117.11 373.83 115.1C375.39 114.23 375.75 114.17 379.17 114.18C382.4 114.2 382.99 114.29 384.17 114.99C387.06 116.7 389.51 119.79 389.27 121.44C389.18 122.06 388.95 122.17 387.71 122.17C386.39 122.17 386.19 122.05 385.65 121.06C384.35 118.63 383 117.76 380.09 117.46C377.49 117.19 375.57 117.76 373.89 119.32C372.05 121.01 371.49 122.86 371.52 127.17C371.55 132.36 372.74 134.87 375.9 136.46C377.4 137.22 380.38 137.16 381.98 136.35C383.46 135.59 385 133.75 385.74 131.83C386.25 130.53 386.3 130.5 387.88 130.5C389.46 130.5 389.5 130.52 389.43 131.47C389.39 132 388.96 133.22 388.47 134.19C385.92 139.24 379.96 141.59 374.75 139.59ZM340.25 139.31C339.71 138.99 339.67 138.05 339.67 127C339.67 115.5 339.69 115.01 340.31 114.68C341.11 114.25 343.02 114.23 344.1 114.64C344.73 114.88 345.12 115.59 345.97 118.06C346.56 119.77 347.23 121.84 347.48 122.67C347.95 124.31 349.1 127.65 350 130C350.31 130.82 350.76 132.21 351 133.08C351.41 134.62 351.89 135.11 352.14 134.25C352.21 134.02 352.83 132.11 353.52 130C354.22 127.89 355.06 125.27 355.41 124.17C355.75 123.07 356.32 121.42 356.66 120.5C357.01 119.58 357.54 117.96 357.84 116.9C358.45 114.75 359.02 114.33 361.33 114.33C363.73 114.33 363.67 114 363.67 126.97C363.67 137.78 363.63 138.6 363.06 139.12C362.41 139.7 361.43 139.82 360.76 139.4C360.45 139.2 360.32 136.87 360.26 130.34C360.19 123.67 360.07 121.52 359.75 121.42C359.52 121.34 359.33 121.51 359.33 121.79C359.33 122.08 359.12 122.8 358.87 123.41C358.61 124.01 358.21 125.17 357.98 126C357.75 126.83 357.3 128.17 356.99 129C356.68 129.82 355.84 132.3 355.13 134.5C353.73 138.84 353.18 139.67 351.7 139.67C350.25 139.67 349.45 138.74 348.7 136.17C348.01 133.8 345.35 125.66 344.42 123.08C344.14 122.3 343.78 121.67 343.62 121.67C343.46 121.67 343.33 125.56 343.33 130.32C343.33 138.54 343.3 138.99 342.69 139.32C341.88 139.75 341.01 139.75 340.25 139.31Z" fill="#1e2749" fill-rule="evenodd"/>
</svg>
