<?xml version="1.0" encoding="UTF-8"?>
<svg xmlns="http://www.w3.org/2000/svg" viewBox="0 0 644 218" width="644" height="218" shape-rendering="geometricPrecision">
<path d="M117.73 204.5L116.74 203.67L84.06 203.67C66.09 203.67 51.15 203.58 50.86 203.46C50.57 203.35 50.33 202.98 50.33 202.63C50.33 202.02 51.17 202 82.88 202L115.42 202L116.88 200.54L118.33 199.09L118.33 188.88L118.33 178.67L98.02 178.67C80.01 178.67 77.66 178.61 77.19 178.14C76.73 177.69 76.67 176.1 76.67 165.85L76.67 154.08L74.58 153.88C73.44 153.77 68.24 153.64 63.03 153.59C56.65 153.53 53.4 153.38 53.05 153.12C52.6 152.79 52.5 150.53 52.31 135.72C52.08 119.08 52.06 118.68 51.37 117.81C50.47 116.66 50.47 115.01 51.37 113.86C52.07 112.97 52.08 112.82 51.91 100.73C51.81 94 51.54 74.78 51.31 58L50.87 27.5L49.76 26.42L48.65 25.33L43.99 25.33L39.33 25.33L39.33 24.33L39.33 23.33L43.93 23.33L48.53 23.33L49.77 22.07L51 20.81L51 15.07L51 9.33L51.96 9.33C52.57 9.33 53.01 9.55 53.15 9.91C53.27 10.22 53.34 13 53.3 16.08C53.23 21.53 53.25 21.7 54.01 22.51L54.78 23.33L129.82 23.33C187.75 23.33 204.96 23.24 205.27 22.93C205.49 22.71 205.67 21.63 205.67 20.46C205.67 17.1 205.11 17.33 212.96 17.33C218.9 17.33 220.08 17.42 221.58 17.97C225.87 19.54 228.51 22.4 229.93 27.03L230.59 29.17L234.77 29.26L238.95 29.35L240.14 28.31C241.25 27.34 241.33 27.13 241.33 25.34C241.33 24.04 241.49 23.28 241.83 23C242.11 22.77 242.33 22.3 242.33 21.96C242.33 21.35 244.25 21.33 317.58 21.25L392.83 21.17L392.92 20C393.15 17.09 392.47 17.33 400.28 17.33C405.85 17.33 407.54 17.44 408.86 17.89C412.15 18.99 414.88 21.48 416.52 24.86C417.38 26.62 417.48 27.19 417.49 30.17C417.5 33.17 417.41 33.69 416.55 35.44C415.37 37.84 412.67 40.65 410.48 41.75C408.13 42.94 404.03 43.45 398.4 43.27C395.8 43.19 393.57 43.01 393.44 42.88C393.31 42.75 393.12 41.49 393.02 40.07L392.83 37.5L388.3 37.41L383.76 37.32L383.52 49.34C383.38 55.96 383.32 64.68 383.37 68.72C383.47 75.6 383.43 76.08 382.85 76.41C382.43 76.65 379.18 76.68 372.83 76.52C364.34 76.3 363.38 76.33 362.88 76.83C362.38 77.34 362.33 81.29 362.33 126.46C362.33 165.2 362.25 175.66 361.92 176.1C361.54 176.61 359.76 176.68 341.5 176.81C330.5 176.89 319.96 177.05 318.08 177.17L314.67 177.38L314.67 187.66L314.67 197.95L315.53 198.97C316 199.54 316.5 200.41 316.64 200.92L316.88 201.83L407.96 201.92C470.74 201.98 499.24 201.89 499.69 201.65C500.32 201.32 500.34 200.91 500.25 189.4L500.17 177.5L496.67 177.23C494.74 177.08 484.92 176.85 474.83 176.73L456.5 176.5L456.33 168.5C456.24 164.1 456.06 160.34 455.93 160.14C455.77 159.89 451.92 159.71 444.17 159.57C434.17 159.4 432.48 159.3 431.32 158.79L429.99 158.2L430.01 138.44L430.03 118.68L429.18 117.43C428.11 115.84 428.12 115.45 429.29 113.64L430.25 112.17L430.46 89.5C430.57 77.03 430.76 58.87 430.89 49.13L431.11 31.43L430.02 30.47C428.95 29.51 428.89 29.5 423.89 29.33L418.83 29.17L418.73 28.25L418.62 27.33L423.63 27.33L428.64 27.33L429.85 26.28C431.05 25.22 431.05 25.21 430.87 23.03C430.63 20.08 430.63 20.22 430.91 17C431.1 14.89 431.29 14.15 431.67 14.09C432.77 13.9 433.11 14.55 433.04 16.69C432.99 18.11 433.1 18.86 433.4 19.05C433.64 19.2 466.85 19.33 507.21 19.33C566.11 19.33 580.65 19.25 580.94 18.91C581.13 18.68 581.34 17.81 581.39 16.99L581.5 15.5L588.17 15.4C596.78 15.28 598.43 15.69 601.91 18.82C603.62 20.35 605.5 23.56 605.73 25.33L605.83 26.17L612.4 26.33C619.27 26.51 620.25 26.72 619.32 27.85C618.92 28.33 618.08 28.38 612.53 28.29L606.19 28.18L605.77 30.29C605.19 33.15 603.9 35.37 601.6 37.51C598.27 40.59 597.65 40.76 589.32 40.92C583.47 41.04 582.06 40.98 581.75 40.6C581.54 40.35 581.32 39.1 581.27 37.82L581.17 35.5L576.5 35.41L571.83 35.32L571.91 53.91C571.96 64.13 572.03 72.87 572.08 73.33C572.16 74.11 572.04 74.18 570.17 74.41C569.07 74.55 564.43 74.63 559.87 74.6C552.08 74.55 551.55 74.58 551.12 75.18C550.73 75.71 550.68 82.48 550.8 118.82C550.97 171.03 550.96 167.09 550.89 169.44C550.85 170.98 550.96 171.48 551.44 171.83C552 172.24 552 172.3 551.49 172.59C551.14 172.78 550.86 173.48 550.76 174.44C550.66 175.29 550.4 176.14 550.18 176.32C549.93 176.53 542.2 176.71 529.47 176.8C518.31 176.88 507.67 177.08 505.83 177.23L502.5 177.5L502.41 189.65L502.32 201.81L501.43 202.74L500.54 203.67L407.79 203.67C340.92 203.67 314.98 203.77 314.81 204.03C314.67 204.27 314.16 204.31 313.38 204.14C312.71 204.01 269.37 203.84 217.06 203.78L121.96 203.66L120.86 204.5C119.49 205.54 118.97 205.54 117.73 204.5ZM310.36 201.65C310.71 201.47 311 201.01 311 200.63C311 200.26 311.38 199.46 311.85 198.84L312.7 197.73L312.7 187.82C312.7 182.36 312.58 177.78 312.43 177.64C311.96 177.18 306.2 176.97 286.83 176.73L267.83 176.5L267.74 167.51C267.69 162.43 267.52 158.39 267.34 158.21C267.16 158.03 261.9 157.79 255.33 157.65C245.24 157.45 243.56 157.34 243.05 156.87C242.72 156.58 242.29 156.33 242.09 156.33C241.9 156.33 241.65 156.1 241.54 155.81C241.42 155.52 241.33 147.05 241.33 136.99C241.33 122.27 241.25 118.65 240.9 118.43C240.13 117.97 239.33 116.55 239.33 115.66C239.33 115.19 239.78 114.29 240.32 113.65L241.31 112.5L241.31 73C241.32 51.27 241.21 33.34 241.08 33.16C240.94 32.97 240.4 32.48 239.87 32.07C239 31.4 238.54 31.33 234.68 31.33L230.44 31.33L229.87 33.38C229.24 35.65 227.48 38.53 225.94 39.83C222.7 42.56 219.8 43.29 212.08 43.32C205.85 43.34 205.67 43.24 205.67 39.84C205.67 37.21 205.79 37.27 200.22 37.4L196.28 37.5L196.18 42.5C196.13 45.25 196.07 53.62 196.05 61.11L196 74.72L194.98 75.74L193.95 76.76L184.46 76.53L174.98 76.29L173.81 77.31C173.17 77.87 172.35 78.33 171.99 78.33C171.34 78.33 171.33 78.85 171.33 127.98L171.33 177.63L170.59 178.15C169.94 178.61 166.96 178.67 145.07 178.67L120.3 178.67L120.4 189.09L120.5 199.52L121.74 200.76L122.98 202L216.34 202C280.07 202 309.92 201.89 310.36 201.65ZM53.07 195.15C51.96 194.37 51.33 192.89 51.33 191.04C51.33 189.6 51.49 189.22 52.49 188.15C53.63 186.95 53.7 186.92 55.69 187.07C56.95 187.16 57.83 187.39 58.02 187.69C58.59 188.6 58.13 188.83 56.01 188.71C53.55 188.57 53.35 188.76 53.34 191.19C53.33 193.68 53.81 194.15 56.11 193.91C58.26 193.69 58.85 194.11 57.68 195.05C56.73 195.82 54.11 195.88 53.07 195.15ZM62.68 195.01C61.83 194.17 61.53 192.95 61.78 191.4C62.18 188.91 64.87 188.15 66.72 190L67.73 191.01L68.66 190C69.39 189.22 69.88 189 70.88 189.01C73.48 189.02 73.83 190.55 71.27 190.73L69.83 190.83L69.83 192.33L69.83 193.83L71.17 193.94C71.9 194 72.64 194.18 72.8 194.34C73.37 194.9 72.29 195.67 70.96 195.67C69.69 195.67 69.36 195.45 68.22 193.86C67.77 193.24 67.71 193.26 66.68 194.44C65.41 195.88 63.78 196.11 62.68 195.01ZM59.14 194.9C59.05 194.65 59.02 192.82 59.07 190.81C59.16 187.42 59.21 187.17 59.83 187.17C60.45 187.17 60.51 187.42 60.59 190.79C60.66 193.17 60.56 194.56 60.3 194.87C59.82 195.45 59.36 195.46 59.14 194.9ZM74.15 194.92C74.06 194.67 74.02 192.82 74.07 190.81C74.16 187.42 74.21 187.17 74.83 187.17C75.4 187.17 75.52 187.44 75.67 189.11L75.83 191.06L76.64 190.2C77.14 189.66 77.81 189.33 78.39 189.33C79.55 189.33 79.58 189.65 78.5 190.67C77.43 191.67 77.44 192.57 78.54 193.7C79.01 194.2 79.31 194.77 79.18 194.97C78.79 195.61 77.7 195.36 77.14 194.5C76.46 193.47 75.93 193.44 75.5 194.4C75.09 195.28 74.4 195.56 74.15 194.92ZM65.81 192.9C66.23 191.71 65.74 190.87 64.56 190.73C63.86 190.65 63.65 190.79 63.48 191.48C63.36 191.95 63.36 192.72 63.48 193.19C63.78 194.41 65.35 194.22 65.81 192.9ZM112.41 175.42C113.31 174.08 117.12 167.21 117.96 165.42C118.63 164.01 119.85 163.92 120.43 165.25C121.06 166.68 126.04 175.43 126.6 176.08C127.07 176.63 128.51 176.67 147.89 176.67L168.68 176.67L169.02 175.79C169.23 175.22 169.32 154.93 169.26 116.87L169.17 58.83L123.92 58.75L78.67 58.66L78.67 117.44C78.67 149.77 78.77 176.32 78.89 176.44C79.01 176.57 86.42 176.67 95.34 176.67L111.58 176.67L112.41 175.42ZM123.88 175.83C123.99 175.55 123.89 175.1 123.66 174.83C123.18 174.25 122.04 172.26 120.76 169.75C119.38 167.07 119.22 167.16 116.42 172.33C115.77 173.53 115.11 174.64 114.95 174.82C114.8 174.99 114.67 175.4 114.67 175.73C114.67 176.28 115.06 176.33 119.18 176.33C122.9 176.33 123.72 176.24 123.88 175.83ZM317.8 174.9C318.36 174.49 318.25 174.19 316.15 170.55C314.91 168.4 313.74 166.7 313.55 166.76C313.36 166.83 312.92 167.39 312.57 168.02C312.23 168.65 311.28 170.3 310.47 171.7C308.9 174.4 308.76 174.85 309.42 175.11C310.38 175.5 317.22 175.33 317.8 174.9ZM505.72 174.75C506.05 174.42 505.99 174.14 505.43 173.42C505.05 172.91 504.1 171.26 503.32 169.75C501.84 166.85 501.1 166.35 500.39 167.75C499.95 168.63 498.88 170.52 497.56 172.77C497.04 173.66 496.68 174.56 496.76 174.77C496.98 175.33 505.16 175.31 505.72 174.75ZM306.4 174.58C306.69 174.35 307.5 173.12 308.19 171.83C308.89 170.55 310.03 168.56 310.73 167.41C311.43 166.26 312 165.24 312 165.14C312 165.04 312.46 164.28 313.03 163.46C313.98 162.08 314.05 161.77 313.99 159.4C313.9 155.5 313.92 155.33 314.63 155.33C315.33 155.33 315.66 155.95 315.68 157.28C315.68 158.15 315.7 158.15 317.02 156.75C317.89 155.83 318.64 155.33 319.18 155.33C319.63 155.33 320 155.43 320 155.55C320 155.66 319.4 156.41 318.67 157.21C317.93 158 317.33 158.8 317.33 158.98C317.33 159.16 318.01 160.07 318.84 161.01C319.67 161.94 320.26 162.85 320.15 163.02C319.72 163.72 318.51 163.27 317.42 162C316.07 160.42 315.67 160.33 315.67 161.63C315.67 162.15 315.44 162.77 315.17 163C314.89 163.23 314.67 163.61 314.67 163.84C314.67 164.08 315.57 165.79 316.67 167.64C317.77 169.49 318.67 171.09 318.67 171.19C318.67 171.28 319.19 172.18 319.83 173.18L320.99 175L340.32 175C359.08 175 359.65 174.98 359.99 174.36C360.22 173.92 360.33 158.38 360.33 126.41L360.33 79.11L359 77.75C357.61 76.33 357.39 75.45 357.99 73.86C358.17 73.38 358.54 73 358.81 73C359.08 73 359.53 72.67 359.81 72.26C360.24 71.65 360.33 70.34 360.33 64.74C360.33 60.7 360.19 57.7 359.99 57.31C359.65 56.68 358.79 56.67 314.65 56.67L269.67 56.67L269.67 85.8C269.67 111.38 269.73 114.95 270.17 115.12C270.44 115.23 270.67 115.55 270.67 115.83C270.67 116.12 270.44 116.44 270.17 116.55C269.73 116.71 269.67 120.28 269.67 145.87L269.67 175L287.77 175C301.75 175 305.99 174.91 306.4 174.58ZM494.22 174.25C494.85 173.55 498 168.48 498 168.17C498 168.1 498.54 167.12 499.2 165.99C499.86 164.87 500.34 163.92 500.28 163.88C500.22 163.84 499.73 163.66 499.2 163.49C497.56 162.94 496.83 161.6 496.84 159.11C496.85 157.08 496.92 156.87 497.93 155.97C498.76 155.22 499.33 155 500.42 155C502.63 155.01 503.38 155.31 503.27 156.13C503.18 156.77 502.99 156.82 501.31 156.72C500.06 156.65 499.35 156.76 499.11 157.06C498.5 157.82 498.34 159.16 498.7 160.45C499.13 162.01 500.23 162.53 501.91 161.97C503.54 161.44 504.07 162.02 503 163.16L502.21 164.01L502.94 164.99C503.34 165.53 503.67 166.06 503.67 166.17C503.67 166.28 504.1 166.93 504.63 167.6C505.16 168.28 505.77 169.38 505.98 170.04C506.19 170.71 506.65 171.52 507.01 171.84C507.37 172.17 507.67 172.68 507.67 172.98C507.67 173.27 507.9 173.85 508.19 174.26L508.7 175L528.45 175C543.37 175 548.3 174.9 548.6 174.6C548.91 174.29 549 162.92 549 125.45L549 76.69L548.25 76.3C546.66 75.49 546 74.59 546 73.28C546 71.98 546.36 71.46 548.13 70.23L549 69.64L549 63.32C549 57.05 548.99 57.01 548.25 56.83C547.84 56.73 527.47 56.69 503 56.74L458.5 56.83L458.41 115.5C458.37 147.77 458.4 174.35 458.49 174.58C458.61 174.91 462.44 175 476.1 175L493.55 175L494.22 174.25ZM509 172.33C509 172.15 509.38 172 509.85 172C510.34 172 510.62 172.14 510.5 172.33C510.39 172.52 510 172.67 509.65 172.67C509.29 172.67 509 172.52 509 172.33ZM514 172.33C514 172.15 514.16 172 514.35 172C514.55 172 514.61 172.15 514.5 172.33C514.39 172.52 514.23 172.67 514.15 172.67C514.07 172.67 514 172.52 514 172.33ZM519 172.33C519 172.15 519.16 172 519.35 172C519.55 172 519.61 172.15 519.5 172.33C519.39 172.52 519.23 172.67 519.15 172.67C519.07 172.67 519 172.52 519 172.33ZM529 172.33C529 172.15 529.16 172 529.35 172C529.55 172 529.61 172.15 529.5 172.33C529.39 172.52 529.23 172.67 529.15 172.67C529.07 172.67 529 172.52 529 172.33ZM534 172.33C534 172.15 534.16 172 534.35 172C534.55 172 534.61 172.15 534.5 172.33C534.39 172.52 534.23 172.67 534.15 172.67C534.07 172.67 534 172.52 534 172.33ZM540 172.33C540 172.15 540.16 172 540.35 172C540.55 172 540.61 172.15 540.5 172.33C540.39 172.52 540.23 172.67 540.15 172.67C540.07 172.67 540 172.52 540 172.33ZM545 172.33C545 172.15 545.16 172 545.35 172C545.55 172 545.61 172.15 545.5 172.33C545.39 172.52 545.23 172.67 545.15 172.67C545.07 172.67 545 172.52 545 172.33ZM553 172.33C553 172.15 553.15 172 553.33 172C553.52 172 553.67 172.15 553.67 172.33C553.67 172.52 553.52 172.67 553.33 172.67C553.15 172.67 553 172.52 553 172.33ZM560 172.33C560 172.15 560.16 172 560.35 172C560.55 172 560.61 172.15 560.5 172.33C560.39 172.52 560.23 172.67 560.15 172.67C560.07 172.67 560 172.52 560 172.33ZM567.67 172.33C567.67 172.15 567.9 172 568.19 172C568.47 172 568.61 172.15 568.5 172.33C568.39 172.52 568.15 172.67 567.98 172.67C567.81 172.67 567.67 172.52 567.67 172.33ZM572 172.33C572 172.15 572.16 172 572.35 172C572.55 172 572.61 172.15 572.5 172.33C572.39 172.52 572.23 172.67 572.15 172.67C572.07 172.67 572 172.52 572 172.33ZM586 172.33C586 172.15 586.16 172 586.35 172C586.55 172 586.61 172.15 586.5 172.33C586.39 172.52 586.23 172.67 586.15 172.67C586.07 172.67 586 172.52 586 172.33ZM605.5 172.33C605.39 172.15 605.61 172 606 172C606.39 172 606.61 172.15 606.5 172.33C606.39 172.52 606.16 172.67 606 172.67C605.84 172.67 605.61 172.52 605.5 172.33ZM614 172.33C614 172.15 614.16 172 614.35 172C614.55 172 614.61 172.15 614.5 172.33C614.39 172.52 614.23 172.67 614.15 172.67C614.07 172.67 614 172.52 614 172.33ZM619 172.33C619 172.15 619.16 172 619.35 172C619.55 172 619.61 172.15 619.5 172.33C619.39 172.52 619.23 172.67 619.15 172.67C619.07 172.67 619 172.52 619 172.33ZM625 172.33C625 172.15 625.16 172 625.35 172C625.55 172 625.61 172.15 625.5 172.33C625.39 172.52 625.23 172.67 625.15 172.67C625.07 172.67 625 172.52 625 172.33ZM514 165.33C514 165.15 514.16 165 514.35 165C514.55 165 514.61 165.15 514.5 165.33C514.39 165.52 514.23 165.67 514.15 165.67C514.07 165.67 514 165.52 514 165.33ZM519 165.33C519 165.15 519.16 165 519.35 165C519.55 165 519.61 165.15 519.5 165.33C519.39 165.52 519.23 165.67 519.15 165.67C519.07 165.67 519 165.52 519 165.33ZM560 165.33C560 165.15 560.16 165 560.35 165C560.55 165 560.61 165.15 560.5 165.33C560.39 165.52 560.23 165.67 560.15 165.67C560.07 165.67 560 165.52 560 165.33ZM568 165.33C568 165.15 568.15 165 568.33 165C568.52 165 568.67 165.15 568.67 165.33C568.67 165.52 568.52 165.67 568.33 165.67C568.15 165.67 568 165.52 568 165.33ZM605 165.33C605 165.15 605.38 165 605.85 165C606.34 165 606.62 165.14 606.5 165.33C606.39 165.52 606 165.67 605.65 165.67C605.29 165.67 605 165.52 605 165.33ZM622.67 165.33C622.67 165.15 622.83 165 623.02 165C623.21 165 623.28 165.15 623.17 165.33C623.05 165.52 622.89 165.67 622.81 165.67C622.73 165.67 622.67 165.52 622.67 165.33ZM287 163.73C287 163.4 287.18 162.96 287.39 162.74C287.69 162.45 287.69 162.05 287.39 161.06C286.86 159.3 286.87 159.27 287.92 159.39C288.76 159.49 288.84 159.63 288.94 161.16C289 162.07 289.18 162.98 289.35 163.18C289.79 163.72 289.03 164.33 287.93 164.33C287.26 164.33 287 164.17 287 163.73ZM475.11 163.8C474.97 163.44 475.25 162.99 475.95 162.44C477.25 161.42 477.36 160.33 476.17 160.33C475.65 160.33 475.33 160.14 475.33 159.83C475.33 159.47 475.7 159.33 476.65 159.33C478.34 159.33 479 160.27 478.19 161.51C477.57 162.46 477.52 163.23 478.06 163.41C478.89 163.69 477.9 164.33 476.64 164.33C475.73 164.33 475.25 164.17 475.11 163.8ZM504.84 163.68C504.71 163.47 504.72 161.51 504.85 159.32C505.06 155.82 505.16 155.33 505.67 155.33C506.34 155.33 506.66 155.97 506.68 157.28C506.68 158.15 506.7 158.15 508.02 156.75C508.89 155.83 509.64 155.33 510.18 155.33C510.63 155.33 511 155.43 511 155.55C511 155.66 510.4 156.41 509.67 157.21C508.93 158 508.33 158.81 508.33 159.01C508.33 159.2 509 160.08 509.82 160.96C510.97 162.18 511.22 162.64 510.92 162.94C510.26 163.6 509.52 163.38 508.32 162.18C506.95 160.81 506.67 160.74 506.67 161.78C506.67 162.7 505.19 164.24 504.84 163.68ZM307.22 162.98C306.09 162.1 305.52 160.15 305.81 158.21C306.11 156.2 307.47 155 309.44 155C311.63 155.01 312.38 155.31 312.27 156.13C312.18 156.76 311.99 156.82 310.41 156.72C308.1 156.57 307.67 156.96 307.67 159.14C307.67 161.81 308.6 162.55 311.09 161.9C311.8 161.71 312.06 161.78 312.23 162.21C312.78 163.65 308.85 164.26 307.22 162.98ZM279.56 163.11C279.43 162.99 279.33 161.18 279.33 159.09L279.33 155.29L280.25 155.39C281.04 155.48 281.19 155.68 281.33 156.77L281.5 158.04L282.82 156.69C283.6 155.88 284.44 155.33 284.9 155.33C285.95 155.33 285.87 155.68 284.5 157C282.98 158.48 282.99 159.45 284.54 161.05C285.31 161.83 285.68 162.48 285.56 162.81C285.22 163.69 284.31 163.4 283.09 162C281.71 160.42 281.33 160.34 281.33 161.6C281.33 162.92 280.27 163.82 279.56 163.11ZM468.15 162.92C468.06 162.66 468.02 160.89 468.07 158.98C468.16 155.75 468.22 155.5 468.83 155.5C469.33 155.5 469.53 155.76 469.61 156.5C469.78 158.08 470.13 158.11 471.45 156.67C472.25 155.81 472.98 155.33 473.51 155.33C474.64 155.33 474.55 155.65 473 157.17C472.27 157.88 471.67 158.7 471.67 158.98C471.67 159.27 472.29 160.14 473.04 160.92C473.86 161.78 474.32 162.54 474.21 162.84C473.87 163.72 472.8 163.36 471.71 162C470.35 160.31 469.74 160.28 469.6 161.91C469.5 163.2 468.52 163.88 468.15 162.92ZM560 161.33C560 161.15 560.16 161 560.35 161C560.55 161 560.61 161.15 560.5 161.33C560.39 161.52 560.23 161.67 560.15 161.67C560.07 161.67 560 161.52 560 161.33ZM572 161.33C572 161.15 572.16 161 572.35 161C572.55 161 572.61 161.15 572.5 161.33C572.39 161.52 572.23 161.67 572.15 161.67C572.07 161.67 572 161.52 572 161.33ZM455.96 157.55C456.23 157.22 456.31 151.52 456.25 136.84L456.17 116.58L445.17 116.64L434.17 116.7L433.24 117.62L432.31 118.54L432.02 137.69C431.86 148.22 431.81 156.91 431.89 157C431.98 157.09 436.2 157.33 441.28 157.53C455.05 158.06 455.53 158.06 455.96 157.55ZM267.27 155.6C267.57 155.3 267.67 150.61 267.66 136.52C267.66 126.24 267.55 117.66 267.41 117.45C267.24 117.19 263.94 117.04 256.26 116.95L245.35 116.83L244.49 117.7L243.62 118.56L243.66 136.85C243.67 146.9 243.72 155.17 243.76 155.21C243.88 155.32 258.47 155.89 262.85 155.95C265.59 155.98 266.99 155.87 267.27 155.6ZM96.41 153.3C96 153.15 95.51 152.64 95.34 152.18C95.11 151.57 94.77 151.33 94.14 151.33C93.53 151.33 92.9 150.92 92.09 150C90.7 148.42 90.33 148.34 90.33 149.63C90.33 150.71 89.59 151.5 88.84 151.21C88.43 151.06 88.33 150.3 88.33 147.15L88.33 143.29L89.25 143.39C90.04 143.48 90.19 143.68 90.33 144.77L90.5 146.04L91.82 144.69C92.6 143.88 93.44 143.33 93.9 143.33C94.94 143.33 94.88 143.53 93.33 145.21C92.6 146 92 146.79 92 146.96C92 147.47 94.14 149.96 94.59 149.98C94.82 149.99 95.19 149.62 95.39 149.17C95.94 147.98 98.02 147.97 98.79 149.15C99.47 150.19 99.48 151.31 98.82 152.26C98.09 153.29 97.3 153.64 96.41 153.3ZM76.5 134.5L76.5 117.17L66.67 116.97C56.35 116.76 56.55 116.74 54.8 118.23C54.1 118.83 54.1 118.84 54.32 134.91C54.45 143.76 54.62 151.06 54.7 151.15C54.93 151.38 68.24 151.91 72.67 151.87L76.5 151.83L76.5 134.5ZM97.94 150.75C98.03 149.78 97.95 149.67 97.19 149.67C96.47 149.67 96.33 149.82 96.33 150.61C96.33 151.71 96.6 152.06 97.32 151.93C97.63 151.87 97.87 151.4 97.94 150.75ZM113.07 151.15C111.96 150.37 111.33 148.89 111.33 147.04C111.33 145.6 111.49 145.22 112.49 144.15C113.63 142.95 113.7 142.92 115.69 143.07C116.93 143.16 117.83 143.39 118.01 143.68C118.53 144.53 117.77 144.9 115.8 144.73C113.57 144.55 113.35 144.78 113.34 147.19C113.33 149.84 114.04 150.4 116.72 149.88C118.26 149.59 118.75 150.19 117.68 151.05C116.73 151.82 114.11 151.88 113.07 151.15ZM119.16 150.61C119.06 150.18 119.02 148.41 119.07 146.67C119.16 143.75 119.22 143.5 119.83 143.5C120.33 143.5 120.53 143.76 120.61 144.5C120.78 146.08 121.13 146.11 122.45 144.67C123.25 143.81 123.98 143.33 124.51 143.33C125.64 143.33 125.55 143.65 124 145.17C123.27 145.88 122.67 146.7 122.67 146.99C122.67 147.27 123.33 148.18 124.14 149C125.22 150.1 125.51 150.61 125.26 150.92C124.65 151.66 123.8 151.36 122.71 150C121.35 148.31 120.74 148.28 120.6 149.91C120.48 151.39 119.48 151.87 119.16 150.61ZM76.59 86.2C76.65 65.72 76.78 57.44 77.04 57.12C77.35 56.74 85.35 56.67 123.85 56.67C165.62 56.67 170.34 56.72 170.81 57.19C171.25 57.63 171.33 58.82 171.33 64.99L171.33 72.27L172.4 72.64C172.99 72.85 173.78 73.29 174.15 73.63C174.77 74.19 175.72 74.27 184.02 74.45C190.9 74.61 193.31 74.56 193.6 74.26C193.9 73.97 194 69.13 194 55.13C194 44.82 194.09 36.15 194.2 35.86C194.37 35.41 195.18 35.33 199.66 35.33C203.74 35.33 205 35.23 205.3 34.87C205.56 34.56 205.66 32.95 205.59 29.95L205.5 25.5L129.97 25.42C58.03 25.34 54.41 25.36 53.9 25.92C53.43 26.44 53.36 28.13 53.3 39.67C53.22 54.9 53.58 96.4 53.88 106.17L54.08 112.83L55.42 113.92L56.75 115.01L66.63 114.92L76.5 114.83L76.59 86.2ZM267.29 114.55C267.56 114.23 267.69 105.73 267.75 84.63L267.83 55.17L314.63 55.08C348.94 55.02 361.55 55.1 361.88 55.37C362.24 55.67 362.33 57.51 362.33 64.34C362.33 72.04 362.39 73 362.92 73.6C363.46 74.23 364.02 74.28 371.89 74.44C379.56 74.6 380.33 74.56 380.8 74.03C381.26 73.52 381.34 71.18 381.41 54.48L381.5 35.5L387.17 35.33L392.83 35.17L392.92 29.25L393.02 23.33L318.17 23.33L243.33 23.33L243.33 25.31C243.33 27.05 243.46 27.43 244.33 28.39C245.6 29.77 245.59 30.58 244.32 32.18L243.31 33.46L243.35 73.09L243.39 112.71L244.4 113.86L245.4 115L256.16 115C264.77 115 266.99 114.91 267.29 114.55ZM456.26 84.65L456.34 55L503.42 55.08L550.5 55.17L550.67 63C550.78 68.5 550.96 71.06 551.26 71.58C551.69 72.33 551.71 72.33 560.49 72.33C565.33 72.33 569.38 72.2 569.48 72.04C569.61 71.83 570.1 36.93 570.01 33.75C570 33.43 571.27 33.33 575.29 33.33C579.39 33.33 580.67 33.23 580.97 32.87C581.23 32.56 581.32 30.7 581.26 26.96L581.17 21.5L507.17 21.5L433.17 21.5L433.07 23.39C432.99 24.9 433.1 25.4 433.61 25.89C435.22 27.44 435.26 28.78 433.74 30.41L432.89 31.31L432.6 71.88L432.31 112.44L433.38 113.55L434.46 114.66L444.98 114.75C450.76 114.79 455.65 114.71 455.83 114.57C456.05 114.39 456.2 103.91 456.26 84.65ZM146.96 75.75C146.37 75.25 145.42 74.68 144.87 74.5C143.34 74 142.33 72.26 142.33 70.14C142.33 68.6 142.47 68.23 143.46 67.19C144.44 66.15 144.78 66 146.16 66C147.5 66 147.9 66.16 148.86 67.12C149.61 67.88 150.05 68.69 150.2 69.62C150.41 70.97 150.75 71.34 151.17 70.67C151.45 70.2 153.45 70.25 153.93 70.73C154.58 71.38 154.43 74.14 153.72 74.78C152.73 75.68 151.43 75.49 150.84 74.35C150.56 73.81 150.33 73.13 150.33 72.85C150.33 72.08 149.8 72.22 149.02 73.21C148.08 74.41 148.16 74.91 149.33 75.17C150.49 75.42 150.61 75.83 149.69 76.32C148.69 76.86 148.14 76.74 146.96 75.75ZM93.35 74.69C92.96 73.98 92.9 72.24 93.21 71.08C93.37 70.47 93.65 70.33 94.69 70.33C96.2 70.33 96.67 70.95 96.67 72.93C96.67 73.77 96.45 74.43 96.06 74.78C95.22 75.54 93.77 75.49 93.35 74.69ZM88.07 74.27C87.45 73.65 87.58 73.41 88.67 73.17C89.99 72.88 90.32 72.16 90.23 69.86C90.17 68.27 90.01 67.84 89.33 67.31C88.63 66.77 88.58 66.62 89 66.34C89.65 65.91 90.55 65.91 91.36 66.35C91.92 66.64 92 67.06 92 69.53C92 72.48 91.51 74.06 90.49 74.46C89.62 74.79 88.5 74.7 88.07 74.27ZM333.96 73.75C333.37 73.25 332.42 72.68 331.87 72.5C330.34 72 329.33 70.26 329.33 68.14C329.33 66.6 329.47 66.23 330.46 65.19C331.42 64.17 331.79 64 333.08 64C335.36 64 337.33 65.93 337.33 68.16C337.33 69.07 336.24 71.48 335.67 71.83C335.12 72.17 335.29 73 335.92 73.01C336.24 73.01 336.72 73.16 337 73.34C337.43 73.63 337.41 73.75 336.85 74.17C335.91 74.89 335.19 74.78 333.96 73.75ZM522.62 73.67C522.07 73.12 521.33 72.67 520.98 72.67C520.63 72.67 519.86 72.24 519.27 71.71C518.31 70.85 518.19 70.53 518.06 68.55C517.93 66.39 517.95 66.32 519.09 65.17C520.1 64.16 520.49 64 521.83 64C523.17 64 523.57 64.17 524.53 65.13C526.11 66.71 526.23 69.4 524.8 71.1C523.73 72.38 523.79 72.9 525.07 73.18L526.14 73.42L525.36 74.04C524.3 74.9 523.78 74.83 522.62 73.67ZM95.27 72.72C95.35 71.94 95.24 71.67 94.85 71.67C94.48 71.67 94.33 72 94.33 72.86C94.33 74.37 95.12 74.25 95.27 72.72ZM153.27 72.75C153.36 71.78 153.28 71.67 152.52 71.67C151.81 71.67 151.67 71.82 151.67 72.61C151.67 73.71 151.93 74.06 152.65 73.93C152.96 73.87 153.21 73.4 153.27 72.75ZM147.91 71.97C148.48 70.87 148.44 69.29 147.81 68.41C147.43 67.86 146.96 67.67 145.99 67.67C144.77 67.67 144.67 67.74 144.35 68.93C143.9 70.6 144.44 72.6 145.44 72.98C146.42 73.34 147.41 72.94 147.91 71.97ZM284.33 72.71C284.33 72.36 284.55 71.91 284.81 71.69C285.16 71.4 285.2 71.04 284.97 70.23C284.5 68.6 284.58 68.28 285.42 68.39C286.08 68.49 286.19 68.75 286.38 70.67C286.49 71.86 286.52 72.95 286.44 73.08C286.36 73.22 285.85 73.33 285.31 73.33C284.58 73.33 284.33 73.18 284.33 72.71ZM338.67 72.69C338.67 72.33 338.83 71.94 339.03 71.82C339.26 71.68 339.31 71.01 339.16 69.96C338.96 68.47 339 68.33 339.61 68.33C340.41 68.33 340.78 69.26 340.48 70.48C340.35 70.98 340.43 71.55 340.67 71.83C341.3 72.6 340.81 73.33 339.68 73.33C338.9 73.33 338.67 73.18 338.67 72.69ZM472.33 72.74C472.33 72.42 472.8 71.74 473.36 71.25C474.5 70.25 474.51 69.56 473.39 69.39C472.06 69.2 472.55 68.33 473.99 68.33C475.84 68.33 476.38 69.32 475.32 70.76C474.61 71.71 474.6 71.8 475.15 72.2C476.04 72.84 475.46 73.33 473.81 73.33C472.62 73.33 472.33 73.22 472.33 72.74ZM526.67 72.76C526.67 72.45 527.22 71.63 527.89 70.94C529.17 69.64 529.18 69.7 527.5 69.18C526.53 68.87 527.02 68.33 528.27 68.33C530.15 68.33 531.04 69.66 529.83 70.67C529.24 71.16 529.17 72.22 529.73 72.41C530.61 72.7 529.53 73.33 528.15 73.33C526.97 73.33 526.67 73.22 526.67 72.76ZM278.99 72.16C278.5 71.56 278.53 71.52 279.83 71.1C280.8 70.79 280.84 70.7 281 68.36C281.16 66.07 281.12 65.9 280.33 65.31C279.63 64.77 279.58 64.63 280 64.34C280.65 63.91 281.55 63.91 282.36 64.35C282.92 64.64 283 65.06 283 67.53C283 70.48 282.51 72.06 281.49 72.46C280.55 72.82 279.43 72.68 278.99 72.16ZM467.75 72.45C467.02 72.15 467.3 71.41 468.25 71.18C469.79 70.79 470 70.4 470 68C470 65.85 469.96 65.73 469.14 65.52C468.57 65.38 468.33 65.12 468.4 64.74C468.53 64.05 470.02 63.81 470.98 64.32C471.59 64.65 471.67 65.01 471.67 67.65C471.67 70.35 471.59 70.71 470.8 71.64C469.98 72.62 468.9 72.91 467.75 72.45ZM334.91 69.97C335.48 68.87 335.44 67.29 334.81 66.41C334.17 65.49 331.86 65.34 331.54 66.19C331.18 67.12 331.32 69.85 331.75 70.4C332.65 71.53 334.22 71.31 334.91 69.97ZM523.18 70.52C523.79 69.91 524 69.34 524 68.29C524 66.54 523.27 65.67 521.8 65.67C518.77 65.67 519.05 71 522.1 71.31C522.24 71.32 522.73 70.97 523.18 70.52ZM221.79 40.2C224 39.22 226 37.28 227.23 34.93C228.02 33.4 228.15 32.78 228.16 30.17C228.16 27.76 228.02 26.87 227.45 25.67C226.4 23.49 224.66 21.62 222.62 20.49C220.83 19.5 220.83 19.5 214.25 19.39L207.67 19.27L207.67 30.14L207.67 41L213.82 41C219.6 41 220.09 40.95 221.79 40.2ZM408.89 40.31C411.17 39.33 412.4 38.3 413.79 36.21C417.48 30.65 415.6 23.39 409.67 20.29C408.24 19.54 407.85 19.5 401.67 19.5L395.17 19.5L395.08 30.25L394.99 41L401.13 41C406.61 41 407.45 40.92 408.89 40.31ZM596.83 38.42C599.17 37.61 602.62 34.14 603.42 31.79C605.16 26.68 603.01 21.09 598.29 18.49C596.51 17.51 596.48 17.51 589.92 17.39L583.33 17.26L583.33 27.91C583.33 33.76 583.43 38.66 583.56 38.78C583.68 38.9 586.34 39 589.47 39C594.03 39 595.5 38.89 596.83 38.42ZM30.08 28.45C29.45 28.19 29.59 27.4 30.33 27C30.88 26.71 31 26.3 31 24.7C31 23.05 30.89 22.67 30.25 22.25L29.5 21.75L30.33 21.04C30.79 20.66 31.47 20.38 31.83 20.42C32.44 20.49 32.51 20.79 32.6 23.6C32.69 26.52 32.74 26.71 33.51 27.07C34.5 27.52 34.55 27.86 33.69 28.32C33.03 28.67 30.84 28.75 30.08 28.45Z" fill="#1e2749" fill-rule="evenodd"/>
</svg>
