<?xml version="1.0" encoding="UTF-8"?>
<svg xmlns="http://www.w3.org/2000/svg" viewBox="0 0 2430 1173" width="2430" height="1173" shape-rendering="geometricPrecision">
<path d="M260.69 1106.56C238.37 1100.13 227.25 1082.35 225.13 1049.73C223.12 1018.75 228.66 993.01 239.81 981.52C248.57 972.49 259.03 968.61 273 969.2C281.27 969.55 283.4 970.03 289.5 972.97C303.76 979.83 313 993.02 317.22 1012.5C320.29 1026.64 320.26 1050.92 317.16 1062.5C311.97 1081.9 300.85 1097.5 287.54 1104.05C279.95 1107.79 268.63 1108.85 260.69 1106.56ZM1794.75 1103.32C1791.64 1102.95 1791 1102.49 1791 1100.59C1791 1099.34 1794.78 1081.48 1799.41 1060.9C1813.05 1000.18 1815.39 987.97 1813.72 986.29C1812.11 984.68 1798.05 983.07 1785.3 983.03C1772.61 982.99 1770.16 981.1 1771.47 972.35C1772 968.79 1772.68 967.67 1774.82 966.74C1778.89 964.99 1882.68 965.03 1885.75 966.79C1888.49 968.35 1888.8 973.41 1886.37 976.88C1883.66 980.76 1879 981.89 1858.82 983.6C1848.2 984.5 1839.32 985.4 1839.1 985.6C1838.27 986.36 1829.78 1022.8 1823.01 1054.72C1815.42 1090.44 1812.88 1100.03 1810.44 1102.05C1808.78 1103.43 1800.97 1104.06 1794.75 1103.32ZM278.83 1087.08C283.52 1084.69 290.67 1077.04 292.65 1072.29C298.04 1059.38 298.79 1024.8 294.06 1007.22C291.39 997.31 281.72 988.29 272.66 987.27C263.56 986.24 256.29 990.88 251.94 1000.48C242.88 1020.53 243.29 1058.06 252.79 1077C258.09 1087.57 269.34 1091.93 278.83 1087.08ZM2320.58 974.52C2318.43 973.75 2315.5 971.96 2314.08 970.53C2311.7 968.15 2311.51 967.32 2311.63 959.72C2311.78 950.39 2313.14 942.36 2319.68 912.27C2324.69 889.17 2324.66 888 2318.91 888C2315.22 888 2313.62 885.03 2314.26 879.35C2314.85 874.18 2316.41 872 2319.55 872C2322.4 872 2327.55 867.77 2329.66 863.7C2330.53 862.02 2331.6 857.73 2332.04 854.18C2333.09 845.69 2334.29 844.63 2343.31 844.17C2353.25 843.67 2353.72 844.29 2352.17 855.92C2351.53 860.77 2351 866.14 2351 867.86C2351 871 2351.01 871 2356.46 871C2360.84 871 2362.14 871.38 2362.96 872.93C2365.96 878.52 2361.18 886.02 2353.15 888.34C2345.27 890.62 2343.1 895.87 2336.37 929C2331.27 954.1 2331.76 957.43 2341 960.5C2346.55 962.35 2347.16 963.86 2344.43 969.13C2341.35 975.1 2329.64 977.74 2320.58 974.52ZM2124 964.48C2124 962.39 2129.17 952.36 2139.46 934.5L2148.1 919.5L2110.8 918.89C2090.28 918.56 1666.66 917.93 1169.41 917.5L265.33 916.72L264.66 844.11C264.3 804.17 264 721.55 264 660.5C264 599.45 263.7 466.81 263.33 365.75C262.79 216.8 262.42 182 261.38 182C260.67 182 254.78 185.21 248.3 189.14C232.4 198.76 219.78 205.18 218.76 204.16C217.49 202.89 224.48 183.88 244.56 134C272.52 64.54 271.03 68 272.97 68C275.76 68 286.29 91.77 309.52 150.5C325.83 191.76 329.38 201.57 328.65 203.46C328.1 204.9 327.71 204.91 324.27 203.47C322.2 202.61 312.57 197.42 302.88 191.95C293.18 186.48 284.53 182 283.64 182C282.75 182 281.7 183.21 281.27 184.75C280.02 189.21 280.43 777.96 281.68 781.5L282.75 784.5L284.95 779.5C286.16 776.75 288.91 769.41 291.06 763.19C304.28 724.89 321.11 691.01 343.3 658C385.33 595.48 434.38 551.68 497.38 520.42C529.39 504.54 570.75 490.78 599.03 486.6C631.51 481.8 677.28 481.8 715 486.6C737.79 489.5 771.76 499.46 798.64 511.13C805.16 513.96 813.58 517.56 817.33 519.13C821.09 520.7 825.37 522.82 826.83 523.84C828.3 524.86 834.44 528.52 840.47 531.98C877.2 553 905.56 575.83 936.8 609.5C947.77 621.32 973.09 654.74 979.33 665.62C981.19 668.85 985.33 676 988.54 681.5C991.74 687 998.28 699.6 1003.06 709.5C1017.67 739.74 1025.25 760.61 1036.45 801.36C1043.31 826.34 1046.26 834.57 1047.98 833.51C1048.54 833.17 1049 831.16 1049 829.05C1049 822.94 1051.73 810.19 1056.99 791.69C1079.69 711.87 1105.31 664.68 1158.2 605.31C1164.99 597.69 1196.12 568.75 1199.95 566.5C1200.89 565.95 1205.89 562.3 1211.08 558.39C1230.24 543.93 1259.99 525.44 1277.68 516.99C1297.26 507.64 1326.34 497.43 1350.03 491.6C1370.62 486.52 1381.22 485.11 1408.37 483.81C1434.9 482.55 1474.75 483.8 1492 486.45C1509.56 489.15 1538.52 498 1570.05 510.31C1581.09 514.61 1608.61 528.14 1616 532.89C1660.38 561.43 1670.6 569.39 1697.55 596.41C1730.95 629.89 1755.88 665.52 1778.06 711.48C1788.97 734.1 1794.13 747 1804.99 778.77C1809.74 792.67 1813.93 803.73 1814.31 803.36C1814.69 802.98 1815 795.65 1815.01 787.08C1815.01 769.11 1815.93 764.31 1819.54 763.4C1823.12 762.5 1826.76 763.7 1828.22 766.26C1829.18 767.94 1829.5 776.07 1829.5 799C1829.5 832.47 1829.24 834.16 1823.61 836.86L1820.73 838.24L1821.28 851.87C1821.91 867.68 1824.05 879.75 1827.52 887.22C1828.87 890.13 1829.98 893.5 1829.99 894.73C1830.01 898.58 1833.88 900.05 1846.67 901.04C1861.6 902.19 2146.7 902.3 2147.41 901.15C2147.93 900.3 2128.27 865.17 2122.87 857.32C2120.31 853.6 2119.29 851 2120.38 851C2121.6 851 2202.55 884.41 2235.5 898.51C2257.31 907.84 2259.23 908.81 2258.46 910.07C2256.81 912.74 2217.02 930.62 2178.85 945.85C2156.78 954.66 2126.53 966 2125.1 966C2124.49 966 2124 965.31 2124 964.48ZM1033.82 887.5C1035.12 829.66 1007.16 741.1 966.26 673.5C963.26 668.55 960.02 663.6 959.05 662.5C958.07 661.4 955.4 657.64 953.11 654.14C930.88 620.19 866.33 563.05 826.5 542.05C822.1 539.74 817.83 537.25 817 536.53C814.67 534.5 801.96 528.35 790.18 523.56C737.76 502.22 669.07 492.85 614.5 499.59C586.18 503.09 538.67 517.3 509.27 531.06C457.1 555.48 405.32 599.08 366.79 651C323.43 709.45 297.64 773.9 286.05 852.83C283.91 867.39 282.18 897.43 283.32 900.38C283.89 901.87 314.14 901.98 658.72 901.75L1033.5 901.5L1033.82 887.5ZM1809.33 901.25C1810.03 900.09 1806.28 861.17 1803.97 845.5C1788.21 738.86 1732.08 640.07 1650 574.51C1639.8 566.36 1619.73 552.41 1614 549.5C1612.08 548.52 1607.58 545.81 1604 543.49C1596.96 538.91 1581.39 530.89 1571 526.48C1561.51 522.45 1525.04 510.32 1514 507.51C1480.66 499.05 1436.09 495.17 1403.61 497.91C1389.37 499.1 1368.68 502.55 1354.5 506.09C1341.19 509.41 1299.73 523.68 1287.31 529.21C1268.64 537.53 1242.9 552.97 1224.16 567.08C1194.85 589.17 1156.45 628.14 1140.52 651.99C1138.12 655.57 1134.11 661.2 1131.6 664.5C1119.41 680.53 1097.19 722.22 1086.86 748.45C1068.95 793.9 1060.34 834.5 1056.44 891.75L1055.74 902L1432.31 902C1639.43 902 1809.08 901.66 1809.33 901.25ZM1818.16 714.16C1816.67 712.67 1816.03 710.17 1815.49 703.74C1814.66 693.7 1815.43 648.48 1816.5 645.24C1817.88 641.02 1825.81 641.04 1828.22 645.26C1829.18 646.95 1829.5 655.19 1829.5 678.68C1829.5 708.78 1829.43 709.95 1827.4 712.68C1824.8 716.18 1820.82 716.82 1818.16 714.16ZM1816.85 591.81C1815.92 590.14 1815.45 582.1 1815.18 562.92C1814.79 536 1815.71 523.43 1818.21 521.85C1820.46 520.42 1824.69 520.93 1827.14 522.92L1829.5 524.83L1829.24 548.17C1828.83 584.29 1827.2 593.03 1820.72 593.81C1818.86 594.03 1817.77 593.47 1816.85 591.81ZM1817.29 467.32C1815.77 465 1815.48 461.44 1815.15 440.78C1814.73 414.76 1815.47 401.11 1817.43 398.43C1819.09 396.15 1823.43 397.2 1825.52 400.39C1827.79 403.85 1828.93 416.68 1829.23 442.04C1829.47 462.2 1829.31 464.86 1827.73 467.28C1825.23 471.1 1819.78 471.12 1817.29 467.32ZM1817.31 346.35C1815.66 343.83 1815.5 340.81 1815.5 312.04C1815.5 276.26 1815.55 276 1822.01 276C1825.19 276 1826.3 276.52 1827.73 278.71C1829.33 281.15 1829.5 284.41 1829.5 312.13C1829.5 341.77 1829.43 342.95 1827.4 345.68C1824.39 349.72 1819.72 350.04 1817.31 346.35ZM138.75 230.92C136.12 229.39 136.52 222.43 140.05 207.97C141.73 201.11 144.66 188.07 146.57 179C151.97 153.3 151.4 154.14 162.19 156.02C168.85 157.18 169.56 157.03 177 152.93C181.65 150.37 187.41 150.41 190.04 153.04C192.01 155.01 192.02 155.16 190.29 158.1C188.18 161.67 184.71 164.41 176.5 168.97C165.27 175.2 163.53 178.02 158.48 198.22C151.05 227.88 146.49 235.43 138.75 230.92ZM65.22 182.44C64 181.59 63 179.99 63 178.9C63 177.81 60.73 161.74 57.95 143.21C55.18 124.67 52.19 103.24 51.32 95.58C49.43 78.98 49.42 79 60.04 79C67.47 79 68.96 79.96 70.84 86C72.25 90.52 74.57 108.06 77.31 134.9C78.59 147.43 79.91 156.22 80.5 156.12C81.05 156.03 88.19 143.92 96.36 129.22C113.46 98.46 122.47 84.22 126.78 81.16C130.49 78.51 135.99 78.36 139.03 80.82C141.11 82.51 141.18 82.92 140.03 86.57C137.62 94.18 123.07 120.27 102.34 154.15C91.85 171.29 85.87 179.3 81.59 181.95C77.48 184.49 68.53 184.76 65.22 182.44Z" fill="#1e2749" fill-rule="evenodd"/>
</svg>
