<?xml version="1.0" encoding="UTF-8"?>
<svg xmlns="http://www.w3.org/2000/svg" viewBox="0 0 2430 1795" width="2430" height="1795" shape-rendering="geometricPrecision">
<path d="M191 1332.01L191 901.01L119.75 900.76L48.5 900.5L48.21 892.75L47.92 885L118.26 885C171.64 885 188.89 884.71 189.8 883.8C190.73 882.87 191 800.87 191 520.8C191 190.24 190.86 159 189.4 159C188.53 159 177.16 165.11 164.15 172.57C143.51 184.42 140.46 185.89 140.19 184.14C139.9 182.29 154.63 145.04 185.31 70C192.69 51.94 198.31 39.5 199.09 39.5C200.42 39.5 202.62 44.71 235.15 124.9C255.34 174.68 259.12 184.54 258.31 185.35C257.57 186.1 253.75 184.1 229.95 170.5C218.89 164.17 209.47 159 209.02 159C208.57 159 207.91 165.41 207.55 173.25C207.19 181.09 207.03 344.32 207.2 536L207.5 884.5L297.89 884.76C363.85 884.94 388.65 884.71 389.64 883.88C390.55 883.13 391 880.41 391.01 875.63C391.02 862.78 393.93 857.76 400.41 859.39C404.66 860.45 406.16 864.04 406.86 874.75L407.5 884.5L976.32 884.54C1368.09 884.56 1545.36 884.25 1545.82 883.54C1546.2 882.97 1546.95 880.72 1547.5 878.54C1548.6 874.17 1550.28 873.28 1557.73 873.1C1562.34 872.99 1562.65 873.44 1563.23 881L1563.5 884.5L1820.5 884.53C2144.07 884.57 2276.47 883.93 2278.07 882.33C2278.96 881.44 2276.63 876.59 2268.21 861.83C2255.84 840.15 2252.35 833.32 2253.21 832.45C2254.51 831.16 2393.27 888.88 2396.43 892.03C2396.99 892.6 2395.06 893.97 2391.43 895.59C2372.67 903.93 2254.55 952 2252.81 952C2250.97 952 2252.6 948.67 2265.15 926.85C2272.39 914.27 2277.98 903.64 2277.57 903.24C2275.87 901.53 2114.51 901.22 1185.25 901.11L207 901L207 1330.8C207 1663.76 206.73 1760.87 205.8 1761.8C205.1 1762.5 201.76 1763 197.8 1763L191 1763L191 1332.01ZM469 1184.12L464.5 1183.5L463.87 1146.67C463.53 1126.42 462.85 1109.45 462.36 1108.96C461.87 1108.47 456.76 1107.95 450.99 1107.79L440.5 1107.5L440.18 1104.18C439.74 1099.63 441 1098.49 449.31 1095.99C457.4 1093.55 459.85 1091.69 464.53 1084.46C468.6 1078.17 470.28 1076.76 473.19 1077.17C478.19 1077.89 478.34 1079.51 478.42 1134L478.5 1184.5L476 1184.62C474.62 1184.69 471.48 1184.46 469 1184.12ZM1584.48 1183.96C1583.19 1181.87 1586.27 1168.72 1589.63 1162.01C1594.13 1153.02 1601.48 1146.28 1617.05 1136.88C1637.79 1124.35 1645.12 1115.01 1642.1 1104.93C1640.6 1099.92 1635.74 1094.33 1631.23 1092.45C1626.84 1090.62 1616.93 1090.58 1612.72 1092.37C1607.94 1094.41 1605.1 1098.04 1602.33 1105.66C1599.39 1113.78 1597.61 1116 1594.04 1116C1588.89 1116 1587.64 1114.04 1588.22 1106.88C1589.11 1095.72 1595.15 1086.56 1604.73 1081.85C1608.97 1079.76 1610.9 1079.5 1622 1079.5C1633.35 1079.5 1635.01 1079.74 1640.01 1082.08C1651.61 1087.53 1656.52 1095.57 1656.45 1109C1656.37 1124.16 1651.39 1130.3 1626.29 1146.17C1609.6 1156.72 1600.74 1164.21 1601.2 1167.4C1601.46 1169.23 1602.39 1169.58 1608.5 1170.13C1612.35 1170.47 1624.84 1170.81 1636.25 1170.88L1657 1171L1657 1176.8C1657 1179.99 1656.46 1183.14 1655.8 1183.8C1654.22 1185.38 1585.45 1185.54 1584.48 1183.96ZM2090.46 1157.75C2090.08 1156.76 2116.26 1029.87 2119.66 1016.25C2120.21 1014.01 2120.3 1014 2139.86 1014.05C2150.66 1014.08 2168.74 1014.48 2180.04 1014.93C2203.67 1015.87 2205.63 1016.46 2213.17 1024.85C2218.49 1030.76 2220 1035.26 2219.99 1045.12C2219.96 1059.55 2214.67 1071.63 2203.62 1082.5C2195.48 1090.5 2188.29 1094.41 2178.91 1095.96C2175.38 1096.55 2161.25 1097.52 2147.5 1098.12C2133.75 1098.73 2122.31 1099.4 2122.07 1099.62C2121.83 1099.85 2118.88 1113.18 2115.51 1129.26L2109.39 1158.5L2100.18 1158.79C2093.24 1159 2090.84 1158.75 2090.46 1157.75ZM308.04 1133.05C306.78 1132.25 306.81 1130.99 308.32 1123.31C312.11 1104.11 336.68 988.99 337.08 988.61C337.31 988.39 354.82 988.57 376 989.01C417.73 989.87 419.89 990.15 426.31 995.62C433.53 1001.77 436.9 1009.01 436.94 1018.5C437.01 1033.11 430.84 1047.13 419.73 1057.61C406.86 1069.75 399.72 1071.63 362.3 1072.69C350.1 1073.03 339.7 1073.58 339.2 1073.91C338.69 1074.23 335.73 1086.88 332.61 1102C329.49 1117.12 326.51 1130.51 325.99 1131.75C325.12 1133.81 324.39 1134 317.27 1133.98C313 1133.98 308.84 1133.55 308.04 1133.05ZM1464.04 1133.05C1462.81 1132.27 1464.44 1123.33 1474.72 1074.31C1481.4 1042.52 1487.36 1013.58 1487.99 1010C1488.91 1004.68 1492.83 988.89 1493.36 988.36C1494.06 987.64 1571.36 990.15 1574.2 990.98C1579.52 992.54 1588.42 1000.16 1590.9 1005.29C1593.31 1010.27 1593.75 1021.29 1591.89 1030.2C1588.89 1044.6 1576.84 1060.06 1563.61 1066.48C1554.6 1070.85 1547.16 1071.87 1518.24 1072.69C1504.1 1073.09 1495.66 1073.72 1495.12 1074.41C1494.64 1075.01 1491.65 1088.1 1488.47 1103.5C1485.29 1118.9 1482.26 1132.06 1481.72 1132.75C1480.58 1134.23 1466.29 1134.47 1464.04 1133.05ZM2157.72 1080.02C2179.59 1079 2183.06 1078.03 2189.8 1071.08C2198.17 1062.46 2201.41 1048.64 2197.06 1040.11C2193.93 1033.98 2189.03 1032.06 2173.66 1030.95C2155.3 1029.61 2138.44 1029.75 2137.27 1031.25C2135.34 1033.71 2128 1068.83 2128 1075.59C2128 1081.41 2128.03 1081.42 2157.72 1080.02ZM385.41 1053.98C400.66 1052.5 407.25 1048.25 412.69 1036.37C419.1 1022.37 415.4 1010.07 403.83 1006.95C398.96 1005.64 362.74 1004.03 357.45 1004.89C352.72 1005.66 352.81 1005.42 347.45 1032.7C344.32 1048.57 343.89 1052.17 344.96 1053.45C346.02 1054.72 348.85 1055 360.87 1054.97C368.92 1054.96 379.96 1054.51 385.41 1053.98ZM1551.6 1052.56C1562.56 1049.24 1570.86 1037.96 1571.73 1025.21C1572.13 1019.36 1571.89 1018.06 1569.85 1015.09C1564.39 1007.17 1560 1006.11 1531.01 1005.75L1510.53 1005.5L1508.43 1012C1507.27 1015.58 1504.86 1026.05 1503.07 1035.28C1500.32 1049.47 1500.02 1052.32 1501.15 1053.68C1502.34 1055.11 1505 1055.23 1524.5 1054.7C1540 1054.28 1548.01 1053.65 1551.6 1052.56ZM394.44 822.93L391.5 819.86L391.51 793.18C391.51 773.43 391.84 765.92 392.78 764.26C395.46 759.56 402.97 760.46 405.21 765.74C406.96 769.86 406.93 815.29 405.17 820.26C402.91 826.63 398.93 827.62 394.44 822.93ZM1550.41 823.34C1548.41 822.92 1548.28 822.1 1547.66 805.7C1547.3 796.24 1547 785.01 1547 780.75L1547 773L1554.87 773L1562.74 773L1563.33 781.75C1563.65 786.56 1563.59 797.92 1563.21 807L1562.5 823.5L1557.5 823.64C1554.75 823.71 1551.56 823.58 1550.41 823.34ZM394.61 726.12C391.84 723.06 390.81 712.22 391.16 690.15C391.45 672.39 391.75 669.02 393.26 666.72C395.25 663.69 399.5 662.21 401.9 663.69C405.45 665.89 406.22 669.92 406.71 688.87C407.3 711.23 406.17 722.13 402.91 725.59C400.2 728.48 396.93 728.69 394.61 726.12ZM1547 697.54L1547 673L1555.02 673L1563.04 673L1562.77 697.25L1562.5 721.5L1554.75 721.79L1547 722.08L1547 697.54ZM394.61 628.12C391.84 625.06 390.8 614.22 391.17 592.2C391.52 570.71 391.99 568.14 396.01 565.99C397.47 565.21 398.72 565.32 400.81 566.4C406.27 569.22 406.41 569.8 406.81 590.37C407.25 613.51 406.13 624.16 402.91 627.59C400.2 630.48 396.93 630.69 394.61 628.12ZM1549.36 621.26C1548.59 620.75 1547.97 612.73 1547.47 596.75L1546.74 573L1554.89 573L1563.04 573L1562.77 597.25L1562.5 621.5L1556.5 621.76C1553.2 621.9 1549.98 621.68 1549.36 621.26ZM394.61 530.12C391.84 527.06 390.8 516.22 391.17 494.2C391.52 472.71 391.99 470.14 396.01 467.99C397.47 467.21 398.72 467.32 400.81 468.4C406.27 471.22 406.41 471.8 406.81 492.37C407.25 515.51 406.13 526.16 402.91 529.59C400.2 532.48 396.93 532.69 394.61 530.12ZM1548.69 521.29C1548.42 520.86 1547.87 509.81 1547.47 496.75L1546.74 473L1554.89 473L1563.04 473L1562.77 497.25L1562.5 521.5L1555.84 521.79C1552.17 521.96 1548.95 521.73 1548.69 521.29ZM394.61 432.12C391.84 429.06 390.81 418.22 391.16 396.15C391.45 378.35 391.75 375.02 393.27 372.7C395.55 369.24 399.85 369.1 403.66 372.38L406.43 374.77L406.8 394.13C407.25 417.5 406.14 428.15 402.91 431.59C400.2 434.48 396.93 434.69 394.61 432.12ZM1548.69 421.29C1548.42 420.86 1547.87 409.79 1547.47 396.71L1546.73 372.91L1554.62 373.21L1562.5 373.5L1562.5 397.5L1562.5 421.5L1555.84 421.79C1552.17 421.96 1548.95 421.73 1548.69 421.29ZM394.14 333.45C393.01 332.01 391.83 328.49 391.44 325.38C390.44 317.36 391.38 297.22 392.83 295.77C393.73 294.87 410.12 294.4 457.27 293.92C533.83 293.15 1532.66 293.74 1549.18 294.58C1558.76 295.06 1560.98 295.47 1561.55 296.83C1562.84 299.87 1563.34 319.89 1562.17 321.3C1560.91 322.81 1550.69 322.09 1548.97 320.37C1548.41 319.81 1547.67 317.02 1547.33 314.17L1546.72 309L976.86 309L407 309L407 315.36C407 324.7 405.37 332.19 402.89 334.25C399.89 336.74 396.48 336.42 394.14 333.45ZM56.39 183.58C56.09 182.8 59 167.16 62.85 148.83C73.19 99.65 73.47 98.07 72.17 96.77C71.55 96.15 69.12 95.38 66.77 95.07L62.5 94.5L62.21 89C61.84 82.07 63.14 80.27 69.36 79.11C72.04 78.62 75.11 77.34 76.18 76.27C77.25 75.2 79.37 70.08 80.9 64.91C85.2 50.29 88.34 45.31 95.5 41.74C101.88 38.56 117.56 36.8 120.88 38.9C122.01 39.62 122.04 40.65 121.05 44.81C119.31 52.06 118.16 53.18 111.55 54.07C104.16 55.08 101.54 57.53 98.98 65.8C95.66 76.53 96.5 78.99 103.45 79.01C111.96 79.04 113.54 80.46 111.86 86.55C110.16 92.69 107.26 94.75 99.17 95.55L92.11 96.25L91.13 100.87C79.33 156.7 73.55 182.74 72.75 183.75C71.28 185.6 57.11 185.46 56.39 183.58Z" fill="#1e2749" fill-rule="evenodd"/>
</svg>
