<?xml version="1.0" encoding="UTF-8"?>
<svg xmlns="http://www.w3.org/2000/svg" viewBox="0 0 333 424" width="333" height="424" shape-rendering="geometricPrecision">
<path d="M99.11 417.75C98.77 417.24 98.35 416.55 98.16 416.21C97.95 415.84 96.94 415.33 95.66 414.95C94.47 414.6 92.77 414.1 91.88 413.83C90.99 413.56 90 413.33 89.7 413.33C88.9 413.33 88.33 412.67 88.33 411.72C88.33 410.95 88.41 410.92 89.87 411.12C90.71 411.24 92.02 411.54 92.78 411.79C96.6 413.05 96.85 412.82 95.32 409.47C93.85 406.23 93.45 405.33 92.88 404C92.61 403.36 91.85 401.67 91.19 400.24C90.54 398.82 90 397.59 90 397.52C90 397.37 88.49 394 85.79 388.1C85.36 387.15 85 386.3 85 386.21C85 386.12 84.46 384.88 83.81 383.44C83.15 382.01 82.34 380.23 82.01 379.5C81.67 378.77 80.84 376.89 80.16 375.33C79.47 373.77 78.57 371.75 78.15 370.83C77.74 369.92 76.61 367.37 75.65 365.17C74.69 362.97 72.65 358.34 71.12 354.89C69.59 351.44 68.33 348.56 68.33 348.5C68.33 348.44 67.66 346.95 66.83 345.18C66.01 343.42 65.33 341.91 65.33 341.82C65.33 341.74 64.9 340.73 64.37 339.58C63.84 338.44 62.85 336.22 62.18 334.67C61.51 333.11 60.61 331.08 60.19 330.17C59.77 329.25 59.01 327.52 58.5 326.33C57.19 323.25 55.42 319.37 54.65 317.93C54.29 317.26 54 316.55 54 316.37C54 316.19 53.4 314.74 52.66 313.16C51.93 311.58 50.81 309.05 50.19 307.56C49.56 306.06 48.59 303.89 48.02 302.74C47.46 301.6 47 300.6 47 300.52C47 300.4 42.32 289.81 40.51 285.83C40.09 284.92 38.85 282.07 37.75 279.5C35.61 274.53 34.69 272.47 32.63 268.06C31.92 266.54 31.33 265.21 31.33 265.11C31.33 265.02 31.12 264.46 30.86 263.88C30.6 263.31 29.93 261.81 29.36 260.56C28.8 259.31 28.33 258.24 28.33 258.17C28.33 258.11 27.8 256.88 27.14 255.45C26.49 254.01 25.82 252.53 25.66 252.17C25.49 251.8 24.68 250.03 23.85 248.23C23.01 246.43 22.33 244.82 22.33 244.66C22.33 244.49 22.04 243.79 21.69 243.09C21.33 242.4 20.45 240.48 19.72 238.83C17.2 233.08 14.27 226.49 13.35 224.5C12.85 223.4 12.31 222.12 12.17 221.66C12.03 221.21 11.8 220.68 11.66 220.5C11.52 220.32 10.99 219.19 10.5 218C10 216.81 9.07 214.72 8.45 213.36C7.2 210.67 7.16 210.09 8.17 209.54C8.89 209.15 9.43 208.82 14.67 205.59C16.59 204.4 18.78 203.07 19.53 202.63C21.41 201.53 25.62 198.96 29 196.84C31.48 195.29 37.45 191.64 42.65 188.5C43.56 187.95 46 186.45 48.07 185.18C54.9 180.96 57.45 179.4 62 176.64C64.47 175.14 66.95 173.59 67.5 173.18C68.05 172.77 68.65 172.38 68.83 172.3C69.31 172.11 72.21 170.36 76.83 167.48C80.23 165.36 83.6 163.3 86.5 161.58C86.87 161.36 87.92 160.71 88.83 160.13C90.81 158.88 99.48 153.56 105.33 150.01C107.62 148.62 109.88 147.24 110.33 146.95C111.57 146.17 118.3 142.03 120.73 140.56C121.89 139.86 126.81 136.83 131.67 133.84C144.65 125.84 155.05 119.48 158.83 117.22C160.67 116.13 162.92 114.74 163.83 114.14C164.75 113.53 167.97 111.54 171 109.7C179.24 104.7 188.89 98.79 191.33 97.26C195.04 94.94 199.5 92.2 208.86 86.5C212.46 84.31 217.91 80.97 223 77.83C228.61 74.37 233 71.68 238.33 68.44C240.8 66.93 245 64.36 248.77 62.03C250.83 60.75 254.1 58.75 255.18 58.11C258.75 55.96 265.26 51.95 267 50.82C268.19 50.05 269.69 49.14 270.33 48.79C270.97 48.44 272.4 47.56 273.5 46.84C275.93 45.25 279.04 43.33 279.2 43.33C279.26 43.33 281.68 41.86 284.57 40.06C290.73 36.22 292.06 35.41 295.83 33.17C303.55 28.58 309.35 24.9 309.16 24.71C308.96 24.51 306.33 23.98 303 23.47C302.17 23.34 301.31 23.09 301.08 22.91C300.46 22.42 300.58 21.41 301.28 21.18C301.85 21 307.09 21.83 310.74 22.69C312.05 22.99 312.43 22.97 313.06 22.53C314.69 21.38 316.44 22.26 315.72 23.86C315.05 25.31 315.28 26.2 317.38 30.37C319.5 34.58 319.62 35.38 318.13 35.59C317.64 35.66 317.17 35.02 315.96 32.59C315.11 30.89 314.32 29.23 314.21 28.89C313.86 27.89 313.23 28.42 312 30.74C311.36 31.96 310.25 34.05 309.54 35.39C308.83 36.73 308.14 37.98 308 38.17C307.87 38.35 307.12 39.7 306.33 41.17C305.55 42.63 304.05 45.41 303 47.33C301.96 49.26 300.5 51.96 299.76 53.33C299.02 54.71 298.04 56.51 297.58 57.33C294.98 62 293.67 64.43 293.67 64.58C293.67 64.67 293.16 65.59 292.54 66.62C291.41 68.52 289.11 72.76 287.13 76.61C286.53 77.77 285.9 78.89 285.73 79.11C285.56 79.32 284.82 80.62 284.09 82C283.36 83.38 282.19 85.55 281.5 86.83C280.8 88.12 279.79 89.99 279.24 91C278.7 92.01 277.2 94.78 275.91 97.17C274.63 99.55 273.12 102.33 272.57 103.33C265.31 116.59 261.77 123.11 261.1 124.45C260.66 125.34 259.96 126.61 259.54 127.28C259.12 127.95 257.83 130.3 256.67 132.5C255.52 134.7 253.81 137.85 252.89 139.5C251.97 141.15 250.55 143.77 249.74 145.33C248.92 146.89 247.88 148.84 247.41 149.67C246.94 150.49 246.03 152.14 245.38 153.33C244.74 154.52 243.64 156.55 242.94 157.83C242.24 159.12 241.57 160.39 241.44 160.67C241.32 160.94 240.89 161.69 240.5 162.33C240.1 162.97 238.98 165 238.01 166.83C235.72 171.16 234.31 173.75 234 174.17C233.86 174.35 233.17 175.6 232.46 176.95C230.08 181.47 226.39 188.34 225.17 190.5C224.76 191.23 223.64 193.33 222.68 195.17C220.87 198.61 220.28 199.33 219.3 199.33C218.75 199.33 215.32 200.81 211.89 202.53C209.74 203.6 209.33 203.56 209.33 202.32C209.33 201.53 209.56 201.18 210.37 200.73C211.82 199.94 212.87 199.09 212.65 198.88C212.49 198.71 205.15 199.15 193.83 200C191.45 200.18 187.62 200.41 185.33 200.51C183.04 200.61 180.64 200.76 180 200.84C179.36 200.93 175.16 201.23 170.67 201.51C166.17 201.79 159.12 202.25 155 202.52C150.88 202.8 145.32 203.16 142.67 203.33C122.27 204.64 115.88 205.06 109.17 205.5C104.95 205.78 98.95 206.15 95.83 206.33C92.72 206.51 89.42 206.73 88.5 206.82C87.58 206.91 82.87 207.22 78.03 207.51C73.18 207.8 69.13 208.08 69.03 208.15C68.92 208.21 66.13 208.37 62.83 208.5C59.53 208.63 56.74 208.79 56.63 208.85C56.52 208.92 52.7 209.21 48.13 209.49C29.08 210.67 24.8 210.97 24.3 211.16C23.9 211.32 23.71 212.03 23.56 214.02C23.22 218.41 20.84 222.8 17.75 224.72C16.63 225.41 16.44 225.94 16.98 226.92C17.16 227.24 17.52 228.03 17.79 228.67C18.06 229.31 18.75 230.88 19.34 232.17C19.92 233.45 20.77 235.4 21.23 236.5C22.14 238.66 25.98 247.33 27 249.5C27.34 250.23 28.4 252.63 29.35 254.83C30.31 257.03 31.51 259.77 32.03 260.91C32.56 262.05 33.35 263.85 33.8 264.91C34.24 265.97 35.13 267.96 35.76 269.33C36.39 270.71 37.47 273.11 38.16 274.67C38.85 276.22 39.69 278.1 40.01 278.83C40.34 279.57 41.46 282.12 42.49 284.5C43.53 286.88 44.58 289.28 44.82 289.83C45.36 291.05 49.5 300.31 50.33 302.18C50.67 302.92 51.61 305.1 52.43 307.01C53.25 308.93 54.45 311.62 55.1 313C56.82 316.68 57.86 319 59.91 323.82C60.92 326.2 61.86 328.37 62 328.65C62.77 330.21 65.03 335.28 68.31 342.83C69.19 344.85 70.22 347.18 70.59 348C72.9 353.05 73.47 354.34 74.06 355.83C74.42 356.75 74.84 357.65 74.99 357.83C75.13 358.02 75.37 358.54 75.51 359C75.65 359.46 76.41 361.23 77.21 362.95C78.01 364.66 78.67 366.12 78.67 366.19C78.67 366.26 79.03 367.11 79.47 368.07C81.56 372.62 82.49 374.71 83.56 377.3C84.2 378.84 84.86 380.34 85.02 380.63C85.18 380.93 85.71 382.07 86.19 383.17C87.16 385.36 88.46 388.27 89.16 389.83C89.4 390.38 90.1 391.96 90.69 393.33C91.29 394.71 92.26 396.88 92.84 398.17C93.43 399.45 94.78 402.52 95.84 405C97.92 409.83 98.3 410.51 98.68 410.1C98.81 409.95 99.27 408.71 99.71 407.33C100.36 405.28 100.48 404.26 100.41 401.58C100.32 398.57 100.36 398.33 100.95 398.33C101.3 398.33 101.73 398.52 101.92 398.75C102.27 399.19 102.99 402.43 103.71 406.76C103.94 408.18 104.25 409.53 104.38 409.75C104.64 410.16 105.7 409.9 108.17 408.82C114.01 406.27 115.52 405.89 115.9 406.89C116.2 407.66 115.12 408.44 112.25 409.52C110.92 410.02 109.23 410.69 108.5 411C107.77 411.32 106.61 411.78 105.92 412.02C104.98 412.36 104.4 412.92 103.51 414.36C102.86 415.41 102.33 416.41 102.33 416.58C102.33 417.11 100.74 418.67 100.21 418.67C99.93 418.67 99.44 418.25 99.11 417.75ZM102.04 412C102.43 410.69 102.23 409 101.67 409C101.24 409 100.33 412.19 100.34 413.64L100.36 414.83L101.01 414.05C101.37 413.62 101.83 412.7 102.04 412ZM105.51 406.69C105.38 406.28 105.78 405.17 106.63 403.61C108.01 401.07 108.84 400.5 109.68 401.52C110.07 401.99 110.01 402.32 109.18 403.89C107.9 406.34 107.08 407.33 106.33 407.33C105.99 407.33 105.62 407.04 105.51 406.69ZM111.73 396.27C111.14 395.67 111.21 395.38 112.58 392.75C113.84 390.33 114.43 389.8 115.45 390.19C116.3 390.52 116.11 391.29 114.48 394.08C112.99 396.65 112.5 397.03 111.73 396.27ZM117.73 385.27C117.51 385.05 117.33 384.66 117.33 384.4C117.33 383.6 119.8 379.34 120.37 379.16C121.07 378.93 122 379.3 122 379.81C122 380.45 120.07 384.05 119.27 384.9C118.44 385.78 118.28 385.82 117.73 385.27ZM123.73 374.27C123.51 374.05 123.33 373.66 123.33 373.4C123.33 372.6 125.8 368.34 126.37 368.16C127.03 367.94 128 368.29 128 368.74C128 369.72 124.98 374.67 124.38 374.67C124.25 374.67 123.95 374.49 123.73 374.27ZM129.91 363.29C129.1 362.84 129.19 361.88 130.18 360.31C130.65 359.57 131.17 358.6 131.34 358.15C131.59 357.5 131.88 357.33 132.83 357.33C134.36 357.33 134.34 357.8 132.68 360.64C131.1 363.34 130.7 363.73 129.91 363.29ZM135.73 352.27C135.11 351.64 135.26 351.01 136.63 348.5C137.97 346.02 138.98 345.38 139.63 346.59C140.15 347.57 137.39 352.67 136.34 352.67C136.22 352.67 135.95 352.49 135.73 352.27ZM141.56 341.44C141.15 341.04 141.32 339.83 141.94 338.65C143.7 335.33 144.17 334.83 145.17 335.21C145.95 335.51 145.76 336.82 144.63 338.74C143.05 341.44 142.25 342.14 141.56 341.44ZM147.75 330.45C147.08 330.17 147.26 329.13 148.4 326.8C149.58 324.39 150.3 323.78 151.33 324.33C151.7 324.53 152 324.76 152 324.85C152 325.21 150.17 328.57 149.43 329.58C148.62 330.68 148.49 330.75 147.75 330.45ZM153.51 319.13C153.21 318.83 153.01 318.49 153.07 318.38C154.56 315.16 155.61 313.33 156.04 313.18C156.85 312.89 157.67 313.33 157.67 314.05C157.67 315.11 154.96 319.67 154.33 319.67C154.18 319.67 153.81 319.42 153.51 319.13ZM159.56 308.44C159.09 307.98 159.36 306.76 160.41 304.6C161.36 302.67 161.62 302.37 162.43 302.35C163.67 302.33 163.89 303.06 163.13 304.74C161.86 307.56 160.3 309.18 159.56 308.44ZM213.93 298.75C213.69 298.46 213.7 298.05 213.96 297.42C214.18 296.89 214.37 294.05 214.42 290.77L214.5 285.04L213.51 284.01C212.13 282.57 212.6 282.38 217.48 282.41C221.92 282.43 223.7 282.97 224.39 284.49C224.86 285.53 224.49 287.42 223.66 288.17C222.81 288.94 222.81 289.9 223.67 290.17C224.78 290.52 225.46 292.23 225.37 294.44C225.31 295.88 222.87 298.28 221 298.73C218.85 299.25 214.36 299.27 213.93 298.75ZM165.56 297.44C165.05 296.94 165.4 295.48 166.53 293.47C167.49 291.75 167.88 291.33 168.54 291.33C169.83 291.33 169.87 292.24 168.67 294.46C167.07 297.42 166.28 298.17 165.56 297.44ZM221.42 296.01C223.22 294.01 222.25 291.33 219.54 290.82C217.49 290.43 217.33 290.65 217.33 293.76C217.33 295.53 217.48 296.69 217.75 296.96C218.43 297.66 220.38 297.15 221.42 296.01ZM193.15 291.19C192.63 290.8 192.57 290.59 192.87 290.1C193.2 289.56 193.84 289.5 199.54 289.47C205.87 289.45 207 289.6 207 290.52C207 291.42 205.37 291.67 199.54 291.67C195.06 291.67 193.65 291.56 193.15 291.19ZM220.47 288.25C222.49 286.44 221.61 284.33 218.83 284.33L217.33 284.33L217.33 286.67L217.33 289L218.48 289C219.2 289 219.94 288.72 220.47 288.25ZM171.32 286.15C170.96 285.71 171.11 285.22 172.26 283.06C173.46 280.81 173.75 280.49 174.65 280.4C176 280.26 175.99 280.94 174.62 283.52C172.93 286.69 172.23 287.25 171.32 286.15ZM226.78 281.15C226.65 280.82 226.88 280.41 227.37 280.06C228.13 279.53 227.67 279.49 218.33 279.33L208.5 279.17L208.39 278.42C208.26 277.51 207.55 277.57 218.5 277.53C226.52 277.5 228.45 277.3 227.21 276.6C226.91 276.44 226.67 276.08 226.67 275.82C226.67 275.26 228.03 275.16 228.92 275.65C229.24 275.83 230.36 276.37 231.42 276.84C234.16 278.09 234.02 278.65 230.56 280.32C227.48 281.81 227.07 281.9 226.78 281.15ZM177.11 275.15C177.01 274.87 177.5 273.45 178.21 272C179.42 269.53 179.57 269.37 180.58 269.35C181.42 269.34 181.67 269.47 181.67 269.94C181.67 270.6 179.88 274.14 179.06 275.08C178.44 275.81 177.38 275.84 177.11 275.15ZM183.32 264.15C182.93 263.68 183.05 263.24 184.18 260.97C185.42 258.5 185.56 258.34 186.5 258.42C187.95 258.54 187.9 259.25 186.25 262.04C184.75 264.59 184.08 265.07 183.32 264.15ZM189.16 252.99C189.02 252.53 189.38 251.53 190.27 249.91C191.33 247.98 191.76 247.48 192.46 247.39C193.03 247.33 193.41 247.48 193.54 247.83C193.75 248.35 192.6 250.82 191.26 252.75C190.51 253.83 189.47 253.95 189.16 252.99ZM29.57 242.29C29.05 242 29 241.18 29 233.64C29 222.91 29.21 222.33 33.37 221.83C35.95 221.52 37.79 222.44 38.71 224.51C39.35 225.98 39.35 225.99 38.68 227.31C37.81 229.02 37.82 229.54 38.78 230.16C40.49 231.29 40.81 233.8 39.49 235.75C38.07 237.85 35.32 238.76 33.15 237.85C31.6 237.2 31.22 237.44 31.49 238.9C31.93 241.24 30.91 243.04 29.57 242.29ZM195.4 242.27C194.78 241.65 194.94 241.01 196.28 238.67C197.25 236.99 197.72 236.48 198.39 236.4C199.74 236.24 199.8 237.15 198.61 239.45C196.96 242.62 196.32 243.18 195.4 242.27ZM36.64 235.12C37.44 234.11 37.54 232.42 36.87 231.49C36.55 231.06 35.84 230.8 34.62 230.68C32.89 230.51 32.83 230.46 32.73 229.42C32.63 228.36 32.65 228.33 33.96 228.33C36.02 228.33 36.91 226.62 35.94 224.51C35.53 223.6 34.58 223.2 33.29 223.39C31.89 223.59 31.5 225.02 31.5 229.89C31.5 234.08 31.54 234.32 32.31 235.14C33.46 236.37 35.67 236.36 36.64 235.12ZM201.42 231.45C200.7 231.16 200.95 230 202.17 228C202.81 226.94 203.33 225.9 203.33 225.69C203.33 225.06 205.48 225.4 205.6 226.04C205.73 226.77 202.94 231.48 202.32 231.56C202.05 231.59 201.65 231.54 201.42 231.45ZM17.84 221.61C19.31 219.99 20.33 218.44 20.33 217.82C20.33 217.53 20.5 216.98 20.7 216.6C21.29 215.49 21.64 212.23 21.23 211.71C20.94 211.36 20.14 211.31 17.51 211.49C15.67 211.61 13.38 211.72 12.42 211.72C11.22 211.73 10.67 211.87 10.67 212.16C10.67 212.58 11.47 214.51 13.31 218.5C13.82 219.6 14.35 220.88 14.49 221.34C14.63 221.79 14.97 222.42 15.25 222.74C15.85 223.43 16.41 223.19 17.84 221.61ZM207.42 220.45C206.73 220.17 206.92 219.29 208.24 216.75C209.32 214.69 209.63 214.34 210.38 214.34C210.87 214.33 211.34 214.54 211.43 214.78C211.77 215.65 209.03 220.69 208.25 220.64C208.02 220.63 207.65 220.54 207.42 220.45ZM213.22 209.44C212.77 208.99 213.02 208.11 214.24 205.75C215.22 203.87 215.66 203.34 216.23 203.34C217.65 203.33 217.71 204.32 216.43 206.66C215.78 207.86 215.1 209.02 214.92 209.25C214.56 209.7 213.59 209.81 213.22 209.44ZM24.83 208.66C26.3 208.5 30.12 208.26 33.33 208.14C36.54 208.02 39.27 207.86 39.39 207.79C39.51 207.72 43.26 207.45 47.72 207.18C62.74 206.27 66.81 206.01 71.33 205.66C73.81 205.47 78.31 205.16 81.33 204.96C87.14 204.59 87.87 204.54 96.83 203.98C105.64 203.43 119.16 202.55 127.5 201.98C130.07 201.8 135.69 201.44 140 201.18C147.79 200.7 157 200.11 171.33 199.18C175.46 198.91 181.31 198.54 184.33 198.34C187.36 198.15 190.73 197.91 191.83 197.81C192.93 197.71 194.56 197.57 195.46 197.5C196.99 197.37 198.33 196.63 198.33 195.9C198.33 195.48 200.82 192.44 203.27 189.87C208.72 184.15 217.12 180.12 225.24 179.35C226.93 179.18 228.45 178.96 228.63 178.86C228.95 178.66 230.29 176.35 232.55 172.06C234.48 168.4 235.41 166.69 236.57 164.67C237.14 163.66 238.12 161.86 238.75 160.67C239.38 159.47 241.11 156.28 242.61 153.56C244.11 150.84 245.33 148.57 245.33 148.51C245.33 148.45 245.88 147.45 246.54 146.28C247.21 145.12 248.48 142.79 249.37 141.1C250.27 139.41 252.68 134.99 254.73 131.26C256.78 127.54 259 123.45 259.68 122.17C260.9 119.83 262.45 117.01 263.87 114.5C264.29 113.77 265.33 111.82 266.18 110.17C267.03 108.52 267.84 107.02 267.99 106.83C268.13 106.65 269.87 103.5 271.85 99.83C273.83 96.17 275.82 92.49 276.28 91.67C276.73 90.84 277.73 88.97 278.5 87.5C279.27 86.03 281.14 82.58 282.66 79.83C284.18 77.08 286.09 73.56 286.91 72C287.74 70.44 288.52 69.02 288.66 68.83C288.8 68.65 289.63 67.15 290.51 65.5C291.39 63.85 293.04 60.77 294.18 58.67C295.32 56.56 296.82 53.78 297.51 52.5C298.21 51.22 299.07 49.64 299.43 49C299.8 48.36 300.69 46.71 301.43 45.33C302.16 43.96 303.56 41.37 304.55 39.58C306.45 36.12 306.6 35.67 305.87 35.67C305.62 35.67 305.23 35.44 305 35.17C304.66 34.76 304.84 34.24 306.02 32.25C306.81 30.92 307.68 29.57 307.95 29.25C308.38 28.73 308.37 28.67 307.86 28.67C307.55 28.67 306.81 29.02 306.23 29.46C305.64 29.9 303.29 31.38 301 32.74C298.71 34.11 294.58 36.61 291.83 38.29C289.08 39.97 286.61 41.49 286.33 41.66C286.06 41.82 283.36 43.5 280.33 45.38C277.31 47.26 272.36 50.28 269.33 52.1C266.31 53.92 263.08 55.9 262.17 56.49C260.84 57.36 255.97 60.36 248.33 65.01C248.06 65.17 247.08 65.77 246.17 66.33C245.25 66.9 242 68.89 238.95 70.76C235.89 72.63 231.09 75.58 228.28 77.31C225.47 79.03 221.29 81.59 219 82.99C216.71 84.39 212.81 86.79 210.33 88.31C203.43 92.57 195.8 97.26 192.73 99.14C191.21 100.07 189.56 101.09 189.06 101.41C188.57 101.72 187.75 102.21 187.25 102.5C186.74 102.79 184.12 104.38 181.41 106.05C178.71 107.72 176.09 109.33 175.59 109.63C175.09 109.92 171.42 112.18 167.43 114.63C163.43 117.09 157.92 120.48 155.17 122.17C152.42 123.85 149.27 125.79 148.17 126.47C147.07 127.15 145.87 127.88 145.5 128.1C145.13 128.31 144.25 128.86 143.55 129.31C142.84 129.77 141.99 130.3 141.65 130.49C140.37 131.22 134.19 135 130.83 137.1C129.73 137.79 127.93 138.89 126.83 139.55C124.55 140.92 124.08 141.2 120.28 143.54C110.96 149.27 107.31 151.53 105.83 152.48C104.92 153.07 103.94 153.65 103.67 153.77C103.39 153.89 102.12 154.66 100.83 155.48C99.55 156.3 97.9 157.33 97.17 157.77C96.43 158.2 94.56 159.36 93 160.33C91.44 161.31 89.39 162.57 88.43 163.14C86.32 164.39 78.65 169.09 75.67 170.95C74.47 171.7 70.72 173.99 67.33 176.04C63.94 178.1 59.44 180.86 57.33 182.18C55.23 183.5 51.57 185.76 49.22 187.2C46.87 188.65 44.54 190.09 44.05 190.41C43.57 190.72 42.61 191.28 41.93 191.66C41.26 192.03 39.08 193.35 37.1 194.59C35.12 195.84 32.3 197.58 30.83 198.45C29.37 199.33 26.97 200.81 25.5 201.73C24.03 202.66 22.38 203.66 21.83 203.96C21.28 204.27 19.98 205.07 18.94 205.74C17.89 206.41 16.43 207.28 15.69 207.66C14.94 208.04 14.33 208.57 14.33 208.85C14.33 209.29 14.88 209.33 18.25 209.16C20.4 209.05 23.37 208.83 24.83 208.66ZM87.56 198.44C87.12 198.01 87.34 197.44 88.08 197.09C88.78 196.77 89.49 195.6 90.78 192.67C92.09 189.69 92.7 188.31 93.81 185.89C94.46 184.46 95 183.06 95 182.79C95 182.43 95.3 182.32 96.06 182.4C97.08 182.5 97.2 182.66 98.58 186C99.37 187.92 100.16 189.83 100.33 190.23C100.5 190.63 101.09 191.94 101.65 193.13C102.21 194.33 102.67 195.47 102.67 195.67C102.67 195.87 103.06 196.4 103.54 196.84C105 198.2 104.44 198.67 101.33 198.67C99.12 198.67 98.61 198.57 98.43 198.1C98.31 197.79 98.37 197.49 98.56 197.42C98.75 197.36 99.16 197.12 99.47 196.9C99.99 196.52 99.99 196.4 99.52 195.49C99.24 194.95 99 194.33 99 194.12C99 193.51 98.14 193.33 95.22 193.33L92.49 193.33L91.88 195.05C91.26 196.8 91.42 197.31 92.58 197.33C93.11 197.33 93.12 197.75 92.6 198.27C92.18 198.69 87.95 198.84 87.56 198.44ZM208.38 196.65C209.6 196.48 211.03 196.42 211.55 196.53C212.07 196.63 212.95 196.54 213.5 196.32L214.5 195.93L212.83 195.15C211.92 194.71 211.03 194.35 210.86 194.35C210.18 194.32 209.33 193.17 209.33 192.28C209.33 191.08 209.69 191.09 212.36 192.35C217 194.55 218.82 195.33 219.28 195.33C219.79 195.33 220.75 193.86 223.12 189.45C224.29 187.28 225.72 184.65 226.29 183.6C227.28 181.78 227.29 181.7 226.65 181.5C226.29 181.38 225.5 181.43 224.91 181.61C224.32 181.79 223.16 182.03 222.33 182.15C220.22 182.44 215.81 183.84 214.33 184.7C214.06 184.86 213.38 185.2 212.83 185.46C211.86 185.92 210.58 186.81 207.07 189.43C205.15 190.87 201 195.78 201 196.62C201 197.1 201.35 197.17 203.58 197.08C205 197.02 207.16 196.83 208.38 196.65ZM97.13 190.97C97.54 190.6 96.21 187.17 95.67 187.17C95.43 187.17 95.13 187.39 95 187.67C94.87 187.94 94.5 188.72 94.17 189.4C93.33 191.16 93.63 191.65 95.4 191.43C96.19 191.33 96.97 191.13 97.13 190.97ZM102.12 180.83C102.01 180.55 102.12 180.09 102.36 179.8C102.71 179.37 102.71 179.23 102.31 178.97C102.04 178.8 97.97 178.68 92.95 178.7C88.06 178.73 83.9 178.65 83.7 178.52C83.16 178.19 83.25 177.44 83.86 177.2C84.15 177.09 88.4 177 93.31 177C98.21 177 102.31 176.91 102.42 176.8C102.54 176.69 102.45 176.31 102.24 175.97C101.94 175.49 101.95 175.25 102.27 174.93C102.61 174.59 103 174.66 104.26 175.29C105.13 175.71 106.32 176.3 106.92 176.59C108.49 177.34 108.74 177.75 108.14 178.61C107.86 179.01 107.41 179.33 107.14 179.33C106.87 179.33 105.81 179.78 104.78 180.33C102.64 181.48 102.39 181.52 102.12 180.83ZM181.05 179.03C180.3 178.57 180.74 177.51 181.73 177.4C182.22 177.34 182.76 177.12 182.94 176.9C183.21 176.58 183.52 168.67 183.37 166.21C183.33 165.56 183.38 165.56 180.22 166.22C179.35 166.4 179.29 166.35 179.39 165.5C179.49 164.69 179.77 164.49 181.67 163.85C182.86 163.45 184.16 162.94 184.56 162.73C184.96 162.51 185.53 162.43 185.84 162.55C186.33 162.74 186.37 163.42 186.22 169.26C186.05 175.77 186.22 177.21 187.16 177.51C188.91 178.05 188.83 177.98 188.25 178.56C187.85 178.96 186.91 179.13 184.61 179.21C182.9 179.26 181.3 179.19 181.05 179.03ZM191.01 179.06C190.82 179 190.67 178.59 190.67 178.15C190.67 177.61 191.69 176.27 193.93 173.89C196.1 171.58 197.35 169.97 197.64 169.08C198.26 167.2 197.8 166 196.15 165.21C194.45 164.4 193.36 164.77 192.58 166.42C192.26 167.11 191.85 167.67 191.67 167.67C191.12 167.67 190.93 166.16 191.3 164.78C191.74 163.17 193.22 162.33 195.63 162.33C198.5 162.33 200.31 163.71 200.58 166.11C200.84 168.47 200.17 169.84 197.26 172.87C195.8 174.39 194.67 175.83 194.75 176.07C194.85 176.38 195.79 176.5 198.2 176.5L201.5 176.5L201.43 177.47C201.39 178 201.21 178.59 201.03 178.77C200.73 179.07 191.82 179.33 191.01 179.06ZM204.98 178.58C202.85 177.15 202.5 176.06 202.51 171C202.51 167.01 202.6 166.33 203.26 164.99C204.23 163.03 205.42 162.33 207.8 162.33C209.53 162.33 209.76 162.43 210.98 163.64C212.57 165.23 212.83 166.54 212.59 171.65C212.44 174.75 212.31 175.39 211.54 176.6C210.58 178.12 208.59 179.33 207.06 179.33C206.53 179.33 205.6 179 204.98 178.58ZM208.61 177.08C209.76 176.09 210.25 173.85 210.14 170.03C210.08 168.13 209.88 166.41 209.68 166.22C209.49 166.02 209.33 165.6 209.33 165.28C209.33 164.95 208.89 164.45 208.35 164.18C205.74 162.83 204.66 165.57 205.03 172.58C205.24 176.63 206.82 178.62 208.61 177.08ZM215.49 169.05C213.93 168.09 213.25 166.84 213.5 165.39C213.74 163.98 214.2 163.27 215.23 162.72C217.07 161.74 219.88 162.92 220.45 164.91C221.25 167.71 217.87 170.53 215.49 169.05ZM218.21 166.82C218.99 166.04 219.02 165.91 218.57 165.23C218.21 164.69 217.76 164.5 216.79 164.5C215.62 164.5 215.49 164.59 215.39 165.45C215.28 166.45 216.1 167.67 216.9 167.67C217.16 167.67 217.75 167.28 218.21 166.82ZM295.46 113.93C295.37 113.8 295.54 113.24 295.82 112.69C296.23 111.91 296.33 110.45 296.33 105.71L296.33 99.72L295.45 99.08C294.88 98.66 294.63 98.24 294.76 97.91C295.07 97.09 303.02 97.26 304.75 98.12C306.83 99.16 307.15 101.87 305.37 103.47C304.49 104.26 304.47 104.89 305.32 105.16C306.51 105.54 307.33 106.97 307.33 108.64C307.33 110.57 306.06 112.25 303.75 113.38C302.43 114.03 301.63 114.15 298.89 114.16C297.08 114.17 295.54 114.06 295.46 113.93ZM303.02 111.42C304.39 110.19 304.73 108.07 303.72 107.06C302.92 106.25 300.61 105.49 299.86 105.78C299.44 105.94 299.33 106.55 299.33 108.93C299.33 110.56 299.43 111.99 299.56 112.11C300.12 112.68 302.03 112.29 303.02 111.42ZM302.76 102.95C303.58 101.84 303.61 100.36 302.81 99.78C302.48 99.53 301.56 99.33 300.77 99.33L299.33 99.33L299.33 101.44C299.33 102.61 299.44 103.66 299.57 103.79C300.12 104.35 302.11 103.82 302.76 102.95ZM308.67 96.14C308.67 95.85 309 95.33 309.42 94.98C310.15 94.37 310 94.36 300.41 94.34C292.01 94.33 290.62 94.26 290.45 93.83C289.96 92.53 290.66 92.43 299.87 92.42C308.76 92.4 310.04 92.24 309.07 91.27C307.88 90.08 309.63 90.01 311.89 91.16C312.77 91.61 313.91 92.13 314.42 92.31C316.16 92.95 315.61 93.84 312.53 95.32C309.5 96.78 308.67 96.96 308.67 96.14Z" fill="#1e2749" fill-rule="evenodd"/>
</svg>
