<?xml version="1.0" encoding="UTF-8"?>
<svg xmlns="http://www.w3.org/2000/svg" viewBox="0 0 407 101" width="407" height="101" shape-rendering="geometricPrecision">
<path d="M37.73 88.27C37 87.54 37.32 86.54 38.74 85.1L40.14 83.67L36.11 83.67C32.55 83.67 31.99 83.59 31.21 82.98C30.14 82.13 30.04 80.63 31 79.67C31.66 79 32.11 79 191.62 79L351.58 79L352.46 79.69C353.81 80.75 353.59 82.35 351.98 83.18C351.34 83.51 349.98 83.67 347.79 83.67L344.55 83.67L341.98 86.17C339.26 88.81 338.33 89.11 338.33 87.36C338.33 86.77 338.73 86.08 339.5 85.33C340.14 84.71 340.67 84.08 340.67 83.93C340.67 83.79 338.84 83.67 336.61 83.67L332.55 83.67L329.98 86.17C328.2 87.9 327.24 88.61 326.87 88.47C325.94 88.11 326.26 86.67 327.58 85.21L328.82 83.83L324.69 83.74L320.57 83.65L317.96 86.19C316.52 87.58 315.16 88.66 314.92 88.59C314.14 88.33 314.23 86.65 315.07 85.71C317.03 83.54 317.19 83.67 312.59 83.67L308.44 83.67L306.07 86C303.5 88.53 302.33 88.98 302.33 87.45C302.33 86.93 302.82 85.97 303.52 85.12L304.71 83.67L300.52 83.67L296.34 83.67L293.88 86C291.39 88.36 290.57 88.76 290.2 87.81C289.86 86.91 289.96 86.7 291.38 85.16L292.75 83.67L288.5 83.67L284.26 83.67L281.64 86.22C279.42 88.38 278.94 88.7 278.51 88.34C277.67 87.65 277.92 86.74 279.38 85.16L280.75 83.67L276.52 83.67L272.29 83.67L269.63 86.2C267.44 88.29 266.89 88.66 266.49 88.32C265.67 87.65 265.93 86.73 267.38 85.16L268.75 83.67L264.52 83.67L260.29 83.67L257.63 86.2C255.44 88.29 254.89 88.66 254.49 88.32C253.65 87.63 253.95 86.58 255.4 85.1L256.81 83.67L252.51 83.67L248.21 83.67L245.61 86.21C243.42 88.33 242.91 88.68 242.5 88.33C241.65 87.63 241.94 86.58 243.4 85.1L244.81 83.67L240.51 83.67L236.21 83.67L233.61 86.21C231.42 88.33 230.91 88.68 230.5 88.33C229.68 87.65 229.93 86.53 231.17 85.33C231.81 84.71 232.33 84.08 232.33 83.93C232.33 83.79 230.51 83.67 228.27 83.67L224.21 83.67L221.61 86.21C219.42 88.33 218.91 88.68 218.5 88.33C217.68 87.65 217.93 86.53 219.17 85.33C219.81 84.71 220.33 84.08 220.33 83.93C220.33 83.79 218.51 83.67 216.27 83.67L212.21 83.67L209.64 86.17C207.87 87.9 206.9 88.61 206.54 88.47C205.61 88.11 205.92 86.67 207.24 85.21L208.48 83.83L204.36 83.74L200.24 83.65L197.65 86.16C195.09 88.66 194.32 88.98 193.85 87.76C193.65 87.23 193.94 86.71 195.54 84.75L196.42 83.67L192.28 83.67L188.14 83.67L185.61 86.17C183.1 88.67 182.32 88.99 181.85 87.76C181.65 87.23 181.94 86.71 183.54 84.75L184.42 83.67L180.17 83.67L175.92 83.67L173.36 86.16C171.07 88.39 170.72 88.62 170.19 88.22C169.39 87.64 169.71 86.65 171.24 84.96L172.41 83.67L168.18 83.67L163.96 83.67L161.3 86.2C159.1 88.29 158.56 88.66 158.16 88.32C157.34 87.65 157.6 86.73 159.04 85.16L160.42 83.67L156.19 83.67L151.96 83.67L149.3 86.2C147.1 88.29 146.56 88.66 146.16 88.32C145.32 87.63 145.61 86.58 147.07 85.1L148.47 83.67L144.21 83.67L139.96 83.67L137.34 86.16C134.6 88.77 133.67 89.08 133.67 87.39C133.67 86.82 134.15 86.04 135.07 85.1L136.47 83.67L132.18 83.67L127.88 83.67L125.31 86.17C122.6 88.81 121.67 89.11 121.67 87.36C121.67 86.77 122.07 86.08 122.83 85.33C123.48 84.71 124 84.08 124 83.93C124 83.79 122.17 83.67 119.94 83.67L115.88 83.67L113.31 86.17C110.6 88.81 109.67 89.11 109.67 87.36C109.67 86.77 110.07 86.08 110.83 85.33C111.47 84.71 112 84.08 112 83.93C112 83.79 110.16 83.67 107.91 83.67L103.81 83.67L101.66 85.86C98.99 88.56 98.55 88.83 97.86 88.14C97.11 87.4 97.17 87.23 98.72 85.44L100.11 83.83L96.01 83.74L91.9 83.65L89.32 86.16C87.9 87.54 86.66 88.67 86.56 88.67C86.27 88.67 85.33 87.65 85.33 87.33C85.33 87.17 85.96 86.32 86.72 85.44L88.11 83.83L83.99 83.74L79.87 83.65L77.48 86.02C75.64 87.85 74.91 88.37 74.3 88.28C72.99 88.09 73.16 87 74.74 85.33L76.16 83.83L72.04 83.74L67.93 83.65L65.29 86.16C63.01 88.35 62.57 88.64 61.99 88.33C60.98 87.79 61.2 86.8 62.71 85.16L64.08 83.67L59.88 83.67L55.68 83.67L54.09 85.22C50.72 88.52 50.37 88.78 49.83 88.33C49.01 87.65 49.26 86.73 50.71 85.16L52.08 83.67L47.85 83.67L43.62 83.67L41 86.17C39.56 87.54 38.32 88.67 38.25 88.67C38.19 88.67 37.95 88.49 37.73 88.27ZM368.9 79.77C368.81 79.62 368.56 78.6 368.35 77.5C368.13 76.4 367.66 74.67 367.31 73.64C366.54 71.42 366.51 71 367.15 71C367.41 71 367.71 70.86 367.82 70.69C367.96 70.45 368.12 58.92 368.01 56.12C368.01 55.91 367.7 55.67 367.33 55.57C366.52 55.36 366.49 54.57 367.2 52.63C367.49 51.82 367.98 50.12 368.29 48.83C369.01 45.83 369.66 45.72 370.28 48.5C370.52 49.6 371.02 51.45 371.38 52.61C372.05 54.8 371.88 55.67 370.79 55.67C370.42 55.67 370.33 56.95 370.33 62.69C370.33 69.7 370.52 71 371.51 71C372.14 71 372.13 71.61 371.47 73.19C371.17 73.89 370.69 75.66 370.38 77.12C369.89 79.52 369.34 80.5 368.9 79.77ZM278.09 66.33C277.41 66.05 277.2 65.62 276.92 63.83C276.84 63.34 276.6 63.19 275.99 63.27C272.38 63.74 272.16 63.72 271.25 63C270.57 62.47 270.33 61.99 270.33 61.16C270.33 60.54 270.47 59.95 270.64 59.85C270.81 59.74 270.87 58.84 270.76 57.84C270.58 56.09 270.61 56 271.48 55.68C272.81 55.17 275.08 55.26 275.93 55.85C276.53 56.27 276.6 56.5 276.32 57.02C275.87 57.86 275.19 57.84 274.36 56.96C273.55 56.09 272.67 56.35 272.67 57.45C272.67 58.28 273.21 58.67 274.39 58.67C275.46 58.67 274.97 59.75 273.75 60.07C272.48 60.4 272.27 61.43 273.36 62.02C274.36 62.55 275.35 62.2 277.2 60.67C279.02 59.17 279.48 59.08 280.66 59.99C281.41 60.56 281.55 60.57 282.05 60.12C282.49 59.72 282.57 59.24 282.43 57.86C282.26 56.18 282.29 56.1 283.21 55.74C285.09 54.99 285.91 54.94 286.98 55.49C288.12 56.08 288.23 56.85 287.26 57.46C286.81 57.74 286.54 57.66 285.98 57.06C285.14 56.15 284.5 56.26 284.5 57.32C284.5 58.08 284.87 58.42 286.12 58.81C286.62 58.97 286.66 59.1 286.35 59.48C286.13 59.75 285.63 60.01 285.23 60.06C284.39 60.18 284.1 61.15 284.68 61.85C285.14 62.4 286.86 62.5 287.17 62C287.28 61.82 287.59 61.67 287.86 61.67C288.54 61.67 287.9 62.85 286.95 63.36C286.03 63.85 284.11 63.84 283.5 63.34C282.76 62.72 282.29 63.07 281.7 64.68C281.39 65.51 280.9 66.21 280.59 66.27C280.09 66.37 280.04 66.13 280.22 64.22C280.48 61.46 280.21 60.33 279.29 60.33C278.62 60.33 278.59 60.46 278.73 63.5C278.8 65.24 278.86 66.66 278.85 66.65C278.84 66.63 278.5 66.49 278.09 66.33ZM289.23 66.46C289.11 66.33 289 65.29 289 64.15L289 62.07L290.21 61.85C291.69 61.57 292.34 62.06 291.38 62.73C290.89 63.07 290.68 63.65 290.6 64.85C290.53 66.01 290.35 66.52 289.98 66.59C289.7 66.65 289.36 66.58 289.23 66.46ZM308.9 66.46C308.77 66.33 308.66 65.61 308.66 64.86C308.66 64.11 308.52 63.28 308.34 63C308.07 62.57 307.91 62.58 307.05 63.09C305.69 63.89 303.64 63.84 302.73 62.99C301.82 62.14 301.5 60.93 301.97 60.06C302.17 59.68 302.24 58.74 302.13 57.91C301.95 56.61 302.02 56.36 302.7 55.88C303.73 55.16 306.76 55.14 307.48 55.86C307.87 56.25 307.91 56.54 307.65 57.02C307.24 57.79 306.57 57.85 306 57.17C305.4 56.44 304 56.51 304 57.27C304 58.1 304.65 58.67 305.59 58.67C306.78 58.67 306.42 59.78 305.16 60C304.37 60.14 304.17 60.34 304.17 61C304.17 61.95 305.52 62.61 306.54 62.16C307.24 61.85 311.02 61.65 311.44 61.91C311.59 62 311.42 62.39 311.05 62.79C310.63 63.23 310.34 64.07 310.27 65C310.17 66.43 309.54 67.1 308.9 66.46ZM376.04 65.22C375.75 64.86 375.77 64.25 376.16 62.63C376.43 61.46 376.66 60.02 376.66 59.42C376.67 58.56 376.83 58.31 377.48 58.14C378.86 57.8 379.04 58.22 378.33 60.1C377.96 61.05 377.67 62.45 377.67 63.2C377.67 64.82 376.71 66.02 376.04 65.22ZM293.4 63.62C292.91 62.07 293.08 61.67 294.17 61.67C295.79 61.67 295.95 63.8 294.4 64.63C293.91 64.9 293.75 64.73 293.4 63.62ZM255.81 63.62C254.2 63.19 253.55 62.26 253.81 60.76C253.93 60.07 254.01 58.84 254 58.04C253.96 55.99 254.64 55.33 256.82 55.33C258.75 55.33 259.89 55.94 259.56 56.79C259.24 57.62 258.38 57.82 257.71 57.21C256.81 56.39 256 56.52 256 57.49C256 58.14 256.23 58.37 257.08 58.59C258.45 58.95 258.5 59.77 257.17 60C256.39 60.13 256.14 60.36 256.06 61.06C255.94 62.12 256.79 62.51 258.55 62.18C259.64 61.97 259.69 62 259.34 62.65C259.14 63.02 258.94 63.33 258.9 63.33C258.86 63.33 258.38 63.46 257.83 63.61C257.28 63.77 256.37 63.77 255.81 63.62ZM324.78 63.14C324.67 62.86 324.76 62.27 324.99 61.85C325.41 61.07 325.31 56.75 324.82 54.46C324.62 53.52 324.69 53.41 325.55 53.24C327.36 52.9 327.49 53.21 327.38 57.65C327.3 60.47 327.39 61.84 327.68 62.18C327.99 62.56 327.99 62.77 327.67 63.17C327.11 63.84 325.04 63.82 324.78 63.14ZM313.5 63C313.09 62.34 313.99 61.49 316.06 60.62C317.22 60.13 318.22 59.49 318.27 59.2C318.33 58.9 318.2 58.67 317.97 58.67C316.58 58.67 312.88 56 313.47 55.42C313.7 55.19 316.63 56 316.85 56.36C316.94 56.5 318 57.09 319.2 57.66C320.79 58.41 321.35 58.84 321.27 59.26C321.21 59.61 319.8 60.52 317.67 61.58C313.89 63.47 313.81 63.5 313.5 63ZM261.75 61.45C261.52 61.35 261.33 60.99 261.33 60.64C261.33 60.05 261.61 60 264.98 60C268.74 60 269.7 60.33 268.49 61.22C267.89 61.66 262.71 61.83 261.75 61.45ZM261.75 58.45C261.52 58.35 261.33 57.99 261.33 57.64C261.33 57.05 261.61 57 264.98 57C268.67 57 269.43 57.24 268.65 58.18C268.35 58.55 267.49 58.66 265.21 58.64C263.54 58.63 261.98 58.54 261.75 58.45ZM293.75 58.1C293.16 57.88 293.21 56 293.81 56C294.61 56 295.33 56.39 295.33 56.82C295.33 57.4 294.25 58.28 293.75 58.1ZM175.76 45.96C175.27 45.47 175.61 38.27 176.13 37.92C176.33 37.79 186.13 37.67 197.89 37.67C216.9 37.67 219.34 37.73 219.81 38.19C220.47 38.85 220.57 45.29 219.93 45.93C219.38 46.49 176.31 46.51 175.76 45.96ZM185.44 29.16C184.2 28.64 181.12 27.84 179.08 27.51C176.92 27.15 177.36 26.54 180.25 25.89C181.67 25.57 183.72 24.99 184.8 24.6L186.76 23.88L187.41 24.78L188.06 25.67L197.83 25.67L207.61 25.67L208.23 24.81C208.86 23.96 208.86 23.95 210.35 24.5C212.24 25.19 216.64 26.32 217.44 26.33C217.78 26.33 217.99 26.52 217.92 26.74C217.85 26.96 216.45 27.45 214.81 27.83C213.17 28.22 211.18 28.79 210.38 29.11C209.57 29.43 208.88 29.65 208.84 29.6C208.79 29.54 208.58 29.16 208.37 28.75L207.98 28L197.65 28C189.11 28 187.33 28.08 187.33 28.46C187.33 29.35 186.56 29.64 185.44 29.16ZM277.49 16.98C277.02 16.22 276.9 12.69 277.33 12.17C278.12 11.22 278.33 11.67 278.33 14.31C278.33 16.79 278.01 17.82 277.49 16.98ZM280.34 14.58C280.33 11.62 280.71 10.85 281.34 12.52C281.88 13.94 281.73 15.85 281.01 16.71L280.36 17.5L280.34 14.58ZM190.54 16.3C190.46 16.04 190.31 14.6 190.21 13.08C190.04 10.56 190.07 10.33 190.64 10.33C191.29 10.33 191.65 11.19 191.66 12.73C191.66 13.22 191.82 13.72 192 13.83C192.59 14.2 192.36 15.19 191.51 15.99C190.88 16.58 190.65 16.66 190.54 16.3ZM194.03 14.56C193.54 11.73 193.57 11.11 194.2 10.87C195.06 10.54 195.33 10.95 195.36 12.6C195.37 13.46 195.5 14.47 195.65 14.83C195.91 15.47 195.26 16.67 194.65 16.67C194.51 16.67 194.24 15.72 194.03 14.56ZM255.41 14.67C253.91 13.75 253.46 12.68 254.09 11.49C254.46 10.77 254.49 10.35 254.21 9.61C253.74 8.37 254.23 7.54 255.53 7.39C256.31 7.3 256.42 7.36 256.08 7.71C255.1 8.71 255.83 10.33 257.26 10.33C258.37 10.33 258.02 11.12 256.81 11.34C254.89 11.67 255.75 13.99 257.8 14.01L258.83 14.02L258.05 14.68C257.06 15.5 256.77 15.49 255.41 14.67ZM272.44 14.85C271.86 14.59 271.12 13.98 270.79 13.49C270.24 12.64 270.24 12.52 270.76 11.62C271.2 10.84 271.24 10.49 270.94 9.83C270.39 8.64 271.04 7.33 272.17 7.33C272.93 7.33 272.98 7.41 272.66 8.01C272.12 9.03 272.58 10 273.71 10.22C274.9 10.46 274.8 11.13 273.54 11.27C273.04 11.33 272.55 11.58 272.45 11.83C272.02 12.96 274 14.66 274.91 13.93C275.13 13.75 275.49 13.66 275.71 13.74C275.94 13.81 275.59 14.2 274.94 14.6C273.56 15.45 273.78 15.43 272.44 14.85ZM261.89 12.44C261.77 12.32 261.67 12.02 261.67 11.78C261.67 11.44 262.4 11.33 264.75 11.34C267.97 11.34 269.28 11.71 268.33 12.33C267.78 12.69 262.24 12.79 261.89 12.44ZM197.56 11.79C197.44 11.66 197.33 11.28 197.33 10.94C197.33 10.28 198.16 10.11 198.52 10.7C198.78 11.13 197.9 12.13 197.56 11.79ZM261.82 9.31C261.48 8.77 261.63 8.73 264.67 8.66C268.8 8.57 268.83 8.57 268.33 9.17C267.83 9.77 262.18 9.9 261.82 9.31ZM257.73 8.23C256.81 7.25 256.81 7 257.75 7.01C258.81 7.01 259.42 7.48 259.28 8.18C259.11 9.08 258.55 9.1 257.73 8.23ZM274.55 8.39C273.82 7.58 273.85 7 274.64 7C275.62 7 276.45 7.96 275.97 8.54C275.46 9.15 275.21 9.12 274.55 8.39Z" fill="#1e2749" fill-rule="evenodd"/>
</svg>
