<?xml version="1.0" encoding="UTF-8"?>
<svg xmlns="http://www.w3.org/2000/svg" viewBox="0 0 815 243.018" width="815" height="243.018" shape-rendering="geometricPrecision">
<path d="M669.29 181.28C669.15 181.14 669.04 176.56 669.04 171.09L669.04 161.15L670.11 161.15C670.69 161.15 671.36 161.37 671.58 161.64C671.85 161.96 672.03 165.07 672.09 170.44L672.19 178.74L675.58 178.85C679.33 178.97 680.16 179.38 679.43 180.76C679.05 181.47 678.69 181.52 674.28 181.52C671.67 181.52 669.42 181.41 669.29 181.28ZM684.53 180.77C682.27 179.58 681.26 177.91 681.02 174.98C680.55 169.26 682.79 166.33 687.64 166.33C691.3 166.33 693.14 167.72 693.9 171.06C694.3 172.79 694.28 173.08 693.68 173.74C693.08 174.4 692.54 174.48 688.64 174.48C686.24 174.48 684.18 174.63 684.07 174.81C683.96 174.99 684.09 175.77 684.36 176.55C684.71 177.57 685.24 178.17 686.26 178.69C687.52 179.35 687.86 179.38 689.56 178.97C692.68 178.22 693.29 178.26 693.42 179.21C693.71 181.21 687.44 182.3 684.53 180.77ZM698.79 180.8C698.14 180.4 697.44 179.75 697.22 179.34C696.71 178.39 696.71 175.39 697.23 174.43C697.84 173.28 700.43 172.28 702.8 172.27C705.21 172.26 705.92 171.73 705.39 170.35C704.8 168.78 704.06 168.45 701.73 168.69C697.2 169.18 697.38 169.2 697.38 168.2C697.38 166.71 698.7 166.28 702.89 166.43C706.98 166.56 707.54 166.89 708.3 169.61C708.79 171.38 708.79 179.88 708.3 180.81C707.82 181.69 706.92 181.73 706.01 180.9C705.37 180.32 705.25 180.32 704.03 180.9C702.3 181.73 700.24 181.69 698.79 180.8ZM714.94 180.69C713.07 179.45 712.01 177.07 712.02 174.13C712.02 170.8 712.6 168.97 714.12 167.54C715.29 166.44 715.61 166.34 717.69 166.35C719.1 166.35 720.25 166.56 720.69 166.9C722 167.89 722.39 166.99 722.39 162.93L722.39 159.25L723.78 159.37L725.16 159.48L725.26 169.99C725.33 177.44 725.24 180.65 724.94 181.01C724.31 181.77 723.09 181.64 722.86 180.78C722.62 179.83 721.38 179.83 720.16 180.78C718.88 181.79 716.53 181.75 714.94 180.69ZM737.99 181.01C736.66 180.53 735.35 179.2 735.35 178.32C735.35 177.4 736.42 177.34 738.3 178.15C740.56 179.12 741.87 179.13 743.39 178.21C746.26 176.46 745.74 174.59 741.84 172.62C738.16 170.77 737.35 170.16 736.68 168.76C735.36 165.97 736.27 163.02 738.8 161.87C741.84 160.49 746.53 161.45 747.06 163.56C747.46 165.17 746.72 165.49 744.79 164.56C741.61 163.01 739.28 163.68 739.28 166.15C739.28 167.76 739.79 168.22 743.94 170.33C746.98 171.87 748.32 173.45 748.32 175.48C748.32 179.83 742.84 182.77 737.99 181.01ZM754.06 181.09C751.47 179.66 750.54 177.71 750.54 173.68C750.54 168.59 752.4 166.34 756.61 166.34C759.15 166.33 761.15 167.34 761.52 168.8C761.9 170.32 761.14 170.67 759.48 169.74C757.1 168.4 754.96 168.68 754.05 170.44C753.41 171.67 753.33 175.66 753.92 176.82C755.05 179.03 757.05 179.47 759.24 177.98C761.25 176.62 762.33 177.34 761.27 179.32C760.35 181.05 755.94 182.13 754.06 181.09ZM765.24 181.28C765.1 181.14 764.99 177.72 764.99 173.68L764.99 166.33L766.11 166.33C766.91 166.33 767.32 166.56 767.52 167.1L767.8 167.86L768.49 167.1C769.41 166.07 772.57 166 773.09 166.99C773.68 168.08 772.92 168.93 771.36 168.94C769.88 168.95 769.19 169.35 768.21 170.77C767.7 171.51 767.58 172.55 767.58 176.16C767.58 179.15 767.43 180.78 767.14 181.08C766.65 181.56 765.63 181.67 765.24 181.28ZM778.88 181C777.32 180.32 775.84 178.72 775.33 177.18C775.08 176.42 774.97 174.66 775.07 172.98C775.21 170.55 775.4 169.88 776.24 168.77C777.63 166.95 778.99 166.33 781.66 166.33C785.32 166.33 787.14 167.72 787.96 171.17C788.36 172.83 788.34 173.12 787.76 173.76C787.17 174.4 786.59 174.48 782.48 174.48L777.86 174.48L778.1 175.67C778.67 178.51 780.96 179.79 783.95 178.95C787.03 178.09 787.2 178.08 787.44 178.72C788.23 180.76 782.07 182.41 778.88 181ZM794.51 181.24C794.42 181.09 793.64 178.72 792.79 175.97C791.94 173.22 791 170.23 790.71 169.32C789.84 166.65 789.95 166.27 791.57 166.4C793.09 166.53 793.03 166.39 795.22 174.03C795.58 175.31 796.05 176.29 796.25 176.23C796.63 176.1 796.69 175.93 797.78 171.89C799.26 166.43 799.21 166.52 800.76 166.52C802.32 166.52 802.02 165.91 804.28 173.65C805.02 176.18 805.58 176.94 805.91 175.87C805.98 175.62 806.31 174.49 806.62 173.37C808.58 166.46 808.55 166.53 809.61 166.4C811.65 166.16 811.68 166.36 810.3 170.85C809.59 173.15 808.66 176.21 808.24 177.63C807.81 179.06 807.22 180.52 806.91 180.87C806.27 181.64 804.52 181.73 803.82 181.03C803.55 180.76 802.84 178.68 802.24 176.4C801.17 172.37 800.51 171.37 800.04 173.09C799.92 173.55 799.46 175.35 799.02 177.08C798.59 178.81 797.97 180.52 797.67 180.87C797.11 181.52 794.82 181.79 794.51 181.24ZM703.96 178.36C705.35 177.42 705.99 176.09 705.57 175C705.38 174.51 704.92 174.43 703.13 174.56C699.65 174.81 698.42 176.49 700.33 178.39C701.48 179.54 702.23 179.54 703.96 178.36ZM720.2 178.08C721.83 176.98 722.37 175.84 722.38 173.49C722.39 171.22 721.27 169.6 719.25 168.93C716.03 167.87 714.05 171.69 715.36 176.42C716.05 178.9 717.99 179.57 720.2 178.08ZM690.88 171.73C691.86 170.54 689.73 168.56 687.46 168.56C685.89 168.56 684.23 169.85 684.23 171.07C684.23 172.16 684.53 172.26 687.58 172.26C689.61 172.26 690.56 172.11 690.88 171.73ZM784.91 171.8C785.41 171.18 784.88 169.89 783.83 169.15C782.83 168.45 780.25 168.38 779.4 169.03C778.56 169.68 777.86 171.12 778.1 171.73C778.37 172.44 784.35 172.49 784.91 171.8ZM215.06 160.51C213.47 160.1 210.43 157.78 209.27 156.1C207.07 152.9 207.12 153.4 207.1 132.16C207.09 114.52 207.03 112.62 206.49 112.62C206.17 112.62 203.64 113.37 200.87 114.3C195.49 116.1 195.25 116.09 195.24 114.01L195.23 112.98L161.24 113.08L127.25 113.17L127.07 131.18C126.92 145.68 126.78 149.3 126.37 149.79C125.9 150.36 121.89 150.4 75.6 150.4C37 150.4 25.24 150.3 24.89 149.96C24.55 149.62 24.45 140.69 24.45 112.02C24.45 91.4 24.55 74.26 24.67 73.94C24.88 73.41 29.71 73.35 75.59 73.35C115.74 73.35 126.34 73.45 126.58 73.81C126.75 74.07 126.96 80.11 127.07 87.24L127.25 100.21L129.04 100.32C131.97 100.51 131.88 100.82 131.88 90.01C131.88 84.75 131.98 80.19 132.11 79.86C132.3 79.35 133.43 79.28 140.95 79.28C147.68 79.28 149.66 79.39 149.98 79.77C150.25 80.1 150.43 83.64 150.49 90.24L150.59 100.21L152.38 100.32C155.3 100.51 155.22 100.8 155.22 90.14C155.22 84.35 155.37 80.43 155.6 79.99C155.97 79.32 156.47 79.28 164.68 79.28C169.46 79.28 173.41 79.32 173.45 79.37C173.49 79.42 173.62 84.05 173.73 89.65L173.93 99.84L176.15 99.84L178.37 99.84L178.66 90.02C178.82 84.62 179.02 80 179.11 79.74C179.24 79.39 181.31 79.28 187.76 79.28C195.21 79.28 196.31 79.35 196.76 79.89C197.16 80.37 197.28 82.56 197.32 90.05C197.35 95.3 197.48 99.77 197.62 99.99C197.97 100.57 206.06 100.53 206.64 99.95C206.97 99.62 207.09 95.95 207.09 85.78C207.1 78.23 207.25 71.42 207.43 70.65C208.18 67.42 211.3 64.27 215.05 62.94C217.26 62.17 299.16 62.17 301.36 62.94C303.77 63.79 306.43 66.02 307.85 68.38L309.14 70.54L309.33 85.75L309.51 100.95L345.61 101.04C365.47 101.1 381.86 101 382.03 100.82C382.2 100.65 382.33 94.72 382.32 87.66C382.3 79.27 382.43 74.56 382.68 74.08C383.07 73.36 383.63 73.35 433.56 73.35C472.32 73.35 484.14 73.45 484.48 73.79C484.81 74.12 484.93 77.6 484.93 87.13C484.93 97.19 485.03 100.03 485.39 100.04C485.64 100.04 518.39 100.14 558.17 100.24C609.98 100.38 630.7 100.32 631.24 100.03C631.86 99.7 632 99.26 632 97.6L632 95.58L595.72 95.58C575.77 95.58 559.18 95.48 558.86 95.35C558.34 95.15 558.28 93.78 558.28 83.68L558.28 72.24L661.09 72.24L763.9 72.24L764.26 73.19C764.46 73.72 764.62 78.45 764.62 83.88C764.62 93.18 764.58 93.67 763.85 94.6L763.08 95.58L727.24 95.58L691.41 95.58L691.48 97.71C691.52 98.88 691.58 99.96 691.6 100.12C691.62 100.27 708.3 100.39 728.66 100.39C761.97 100.39 765.74 100.45 766.26 100.98C766.78 101.5 766.84 102.91 766.75 112.36L766.66 123.15L765.73 123.63C764.99 124 757.28 124.08 728.22 124.01C695.91 123.93 691.64 123.98 691.63 124.47C691.62 124.78 691.62 130.73 691.64 137.7C691.66 149.98 691.64 150.4 690.91 151.13C690.17 151.88 689.83 151.89 661.46 151.89C633.47 151.89 632.75 151.87 632.38 151.17C632.13 150.71 632 145.59 632 137.09L632 123.73L558.46 123.73L484.93 123.73L484.93 136.35C484.93 144.34 484.78 149.23 484.54 149.69C484.17 150.39 483.21 150.4 433.63 150.4C393.61 150.4 383.03 150.31 382.79 149.94C382.63 149.69 382.41 143.98 382.31 137.25L382.12 125.03L345.82 125.03L309.51 125.03L309.33 138.74C309.16 151 309.07 152.58 308.47 153.79C307.45 155.84 305.49 157.95 303.33 159.34L301.38 160.59L258.59 160.64C235.05 160.67 215.46 160.61 215.06 160.51ZM302.27 157.25C304.33 155.87 306.22 153.43 306.74 151.5C307 150.53 307.06 145.63 306.93 136.79C306.67 120.13 306.67 106.47 306.93 87.65C307.16 70.71 307.12 70.38 304.31 67.57C301.42 64.68 304.01 64.83 258.05 64.83C229.81 64.83 216.83 64.96 215.82 65.24C213.42 65.9 211.78 67.18 210.6 69.32L209.49 71.31L209.4 109.65C209.35 130.74 209.41 149.03 209.52 150.29C209.85 153.9 212.11 156.81 215.56 158.05C216.64 158.44 225.14 158.51 258.76 158.45L300.62 158.37L302.27 157.25ZM717.94 149.85C713.14 145.04 710.46 142.62 709.94 142.62C709.52 142.62 708.86 142.96 708.49 143.37C708.13 143.77 707.64 144.1 707.42 144.09C706.99 144.07 701.24 132.41 701.26 131.6C701.28 130.91 702.08 131.04 704.01 132.07C704.97 132.58 706.08 132.99 706.48 132.99C706.87 132.99 707.2 133.16 707.2 133.35C707.2 133.55 708.57 134.4 710.25 135.24C714.35 137.28 714.44 137.36 713.51 138.35C713.09 138.79 712.75 139.48 712.75 139.87C712.75 140.32 715.41 143.24 719.63 147.44C723.41 151.21 726.68 154.6 726.89 154.97C727.17 155.48 727.1 155.83 726.62 156.36C726.27 156.75 725.79 157.07 725.57 157.07C725.34 157.07 721.91 153.82 717.94 149.85ZM688.58 149.12C688.94 148.98 689.05 145.05 689.05 131.17L689.05 113.4L687.29 113.29C685.68 113.18 685.52 113.08 685.41 112.18C685.3 111.23 685.38 111.17 687.08 111.06L688.86 110.95L688.96 103.26L689.06 95.58L661.82 95.58L634.59 95.58L634.59 103.05C634.59 109.48 634.67 110.62 635.2 111.2C635.77 111.83 635.77 111.92 635.2 112.55C634.65 113.17 634.59 115 634.59 131.2C634.59 141.08 634.66 149.24 634.74 149.32C634.95 149.54 688 149.33 688.58 149.12ZM124.06 147.68C124.36 147.31 124.45 137.5 124.38 111.47L124.29 75.76L75.67 75.66L27.04 75.57L27.04 111.88L27.04 148.18L75.34 148.18C115.53 148.18 123.71 148.1 124.06 147.68ZM482.26 139.66C482.33 135.08 482.27 127.27 482.13 122.32L481.88 113.31L480.99 112.97C479.83 112.53 479.8 111.08 480.94 110.58C481.73 110.23 481.79 109.94 482.01 105.02C482.14 102.17 482.26 94.38 482.29 87.71L482.33 75.57L433.65 75.57L384.97 75.57L385.03 93.08L385.09 110.58L386.45 110.69C389.19 110.92 389.14 112.99 386.4 112.99L385.02 112.99L384.96 130.24C384.92 139.73 384.98 147.65 385.1 147.84C385.24 148.05 403.84 148.15 433.73 148.09L482.15 148L482.26 139.66ZM640.52 133.36L640.52 123.36L642.31 123.36C644.32 123.36 644.68 123.64 646.19 126.39C646.71 127.34 648.31 130.2 649.75 132.74C651.19 135.28 652.37 137.56 652.37 137.79C652.37 138.03 652.54 138.12 652.74 137.99C652.97 137.85 653.11 134.96 653.11 130.54L653.11 123.32L654.5 123.43L655.89 123.55L655.99 132.77C656.08 140.96 656.02 142.07 655.47 142.68C654.62 143.62 653.03 143.55 652.12 142.53C651.71 142.07 650.73 140.53 649.94 139.11C649.15 137.68 648.16 135.92 647.75 135.19C647.34 134.46 646.34 132.67 645.53 131.21C644.72 129.74 643.93 128.55 643.77 128.55C643.61 128.55 643.48 131.56 643.48 135.24C643.48 139.15 643.32 142.23 643.1 142.65C642.85 143.11 642.32 143.37 641.61 143.37L640.52 143.37L640.52 133.36ZM662.6 142.55C660.83 141.23 660.52 139.91 660.52 133.72L660.52 128.13L661.91 128.25L663.3 128.36L663.48 133.77C663.67 139.33 663.85 139.98 665.4 140.8C666.27 141.27 667.87 140.47 669.18 138.91C670.12 137.79 670.15 137.59 670.15 132.96L670.15 128.18L671.19 128.18C673.02 128.18 673.12 128.54 673.12 135.77C673.12 140.49 672.98 142.61 672.67 142.92C671.95 143.64 670.48 143.46 670.26 142.62C670.02 141.7 669.73 141.7 668.22 142.62C666.57 143.63 664 143.59 662.6 142.55ZM679.66 142.95C678.36 142.19 677.93 140.31 677.93 135.42L677.93 130.79L676.73 130.48C675.79 130.24 675.52 129.97 675.52 129.27C675.52 128.56 675.76 128.33 676.64 128.18C677.66 128 677.76 127.85 677.93 126.14C678.1 124.46 678.21 124.28 679.11 124.17C680.25 124.04 681.09 125.17 680.77 126.4C680.43 127.71 680.88 128.18 682.51 128.18C684.52 128.19 685.3 128.67 684.75 129.56C684.48 129.99 683.72 130.28 682.55 130.4L680.76 130.59L680.86 135.02C680.91 137.45 681.11 139.75 681.31 140.11C681.56 140.58 682.1 140.77 683.14 140.77C684.88 140.77 685.4 141.54 684.4 142.64C683.66 143.46 680.85 143.64 679.66 142.95ZM429.54 139.79C427.83 138.88 427.09 138.12 426.35 136.51C425.76 135.24 425.67 134.02 425.66 127.74C425.65 120.82 425.69 120.44 426.38 120.22C426.78 120.09 427.45 120.17 427.86 120.39C428.58 120.77 428.62 121.13 428.62 127.49C428.62 132.91 428.73 134.42 429.22 135.45C430.73 138.64 435.67 138.66 437.41 135.49C437.95 134.5 438.1 133.04 438.25 127.25L438.43 120.21L439.54 120.29C440.15 120.34 440.84 120.64 441.07 120.95C441.58 121.64 441.37 132.31 440.8 134.8C440 138.34 437.1 140.41 432.97 140.39C431.6 140.38 430.2 140.13 429.54 139.79ZM232.31 132.11C232.02 131.76 231.92 130.07 231.99 127.01C232.09 122.55 232.11 122.43 232.94 122.31C233.41 122.25 234.05 122.4 234.35 122.65C234.77 123 235 123 235.33 122.68C235.89 122.12 239.04 122.12 239.6 122.68C239.93 123.02 240.26 123.02 240.99 122.68C242.7 121.9 245 122.14 245.99 123.19C246.76 124.01 246.89 124.57 247.03 127.65C247.16 130.67 247.09 131.27 246.51 131.91C246.14 132.32 245.49 132.61 245.08 132.55C244.39 132.45 244.3 132.11 244.12 129.1C243.91 125.35 243.71 124.84 242.48 124.84C241.37 124.84 241.17 125.43 241.17 128.58C241.17 130.65 241.02 131.28 240.43 131.88C239.58 132.73 238.75 132.84 238.32 132.16C238.15 131.9 237.93 130.21 237.83 128.4C237.69 125.81 237.51 125.02 237.01 124.7C236.51 124.39 236.22 124.45 235.73 124.93C235.24 125.42 235.09 126.25 235.07 128.57C235.06 131.1 234.94 131.65 234.33 132.1C233.43 132.76 232.85 132.76 232.31 132.11ZM251.91 132.36C251.6 132.24 250.9 131.83 250.34 131.44C248.26 129.98 248.11 125.25 250.08 123.28C251.01 122.35 251.36 122.25 253.7 122.25C256.11 122.25 256.38 122.33 257.44 123.39C258.06 124.02 258.6 124.81 258.63 125.15C258.77 126.93 258.43 129.22 257.89 130.16C256.85 131.96 253.82 133.07 251.91 132.36ZM262.1 131.79C261.23 131.04 261.11 130.64 260.99 128C260.88 125.49 260.74 124.96 260.09 124.52C259.11 123.87 259.1 122.57 260.06 121.97C260.47 121.71 260.8 121.27 260.8 120.98C260.8 120.33 261.95 119.92 262.81 120.25C263.16 120.39 263.6 120.89 263.78 121.37C264.01 121.98 264.41 122.25 265.06 122.25C265.58 122.25 266.11 122.5 266.22 122.81C266.53 123.6 265.69 124.47 264.63 124.47C263.75 124.47 263.73 124.53 263.84 127.16C263.95 129.8 263.96 129.84 265.03 130.03C266.4 130.27 266.61 130.89 265.64 131.86C264.64 132.85 263.3 132.83 262.1 131.79ZM269.8 131.9C268.28 130.97 267.47 129.38 267.47 127.32C267.47 123.58 268.81 122.25 272.62 122.25C274.68 122.25 274.95 122.35 276.16 123.56C277.33 124.73 277.47 125.08 277.47 126.84C277.47 131.18 273.22 133.98 269.8 131.9ZM279.57 132.38C279.43 132.24 279.32 129.91 279.32 127.19L279.32 122.25L280.23 122.25C280.72 122.25 281.23 122.42 281.36 122.62C281.51 122.87 281.84 122.86 282.33 122.6C282.73 122.38 283.6 122.26 284.25 122.32C285.23 122.42 285.44 122.59 285.44 123.35C285.44 124.08 285.2 124.31 284.18 124.51C283.49 124.65 282.79 124.99 282.61 125.27C282.44 125.54 282.3 127.04 282.29 128.58C282.29 130.83 282.15 131.52 281.61 132.01C280.91 132.64 280 132.81 279.57 132.38ZM255.22 129.05C256.09 127.94 256.17 127.14 255.55 125.78C255.06 124.71 253.58 124.17 252.69 124.73C251.95 125.2 251.67 128.74 252.3 129.5C253 130.34 254.37 130.12 255.22 129.05ZM274.21 128.59C274.74 127.52 274.77 127.16 274.37 126.18C274.08 125.49 273.49 124.88 272.87 124.67C271.99 124.36 271.73 124.43 271.13 125.17C270.36 126.12 270.21 128.18 270.83 129.33C271.49 130.57 273.43 130.14 274.21 128.59ZM381.21 121.68C381.49 121.34 381.75 119.62 381.86 117.43L382.04 113.76L380.97 113.33C379.07 112.58 378.79 112.36 378.79 111.68C378.79 111.23 379.18 110.9 379.95 110.7C381.71 110.24 381.99 109.67 381.86 106.63L381.75 103.91L345.63 103.91L309.51 103.91L309.41 106.79C309.3 109.52 309.35 109.71 310.33 110.62L311.36 111.58L310.44 112.32C309.57 113.02 309.51 113.32 309.39 117.12C309.32 119.35 309.36 121.41 309.47 121.71C309.65 122.18 314.46 122.25 345.21 122.25C376.73 122.25 380.79 122.19 381.21 121.68ZM702.64 112.54C707.59 107.6 711.64 103.43 711.64 103.27C711.64 103.12 710.52 102.99 709.15 102.99L706.66 102.99L699.34 110.31L692.01 117.64L692.01 119.33C692.01 121.14 692.19 121.51 693.07 121.51C693.39 121.51 697.69 117.47 702.64 112.54ZM710.7 112.25L719.98 102.99L717.4 102.99L714.83 102.99L706.01 111.77C701.16 116.61 697.2 120.78 697.2 121.04C697.2 121.36 697.84 121.51 699.31 121.51L701.43 121.51L710.7 112.25ZM718.57 112.54C723.52 107.6 727.57 103.43 727.57 103.27C727.57 103.12 726.46 102.99 725.1 102.99L722.64 102.99L713.99 111.58C709.11 116.44 705.35 120.47 705.35 120.84C705.35 121.41 705.67 121.51 707.46 121.51L709.57 121.51L718.57 112.54ZM726.68 112.48C731.65 107.51 735.72 103.34 735.72 103.22C735.72 103.09 734.6 102.99 733.24 102.99L730.75 102.99L721.89 111.83C716.6 117.11 713.13 120.84 713.28 121.09C713.42 121.32 714.46 121.51 715.59 121.51L717.64 121.51L726.68 112.48ZM734.7 112.34L743.9 103.17L741.96 103.06C740.89 102.99 739.67 103.03 739.24 103.14C738.28 103.38 721.28 120.28 721.28 121C721.28 121.37 721.83 121.51 723.39 121.51L725.5 121.51L734.7 112.34ZM742.65 112.54C747.6 107.6 751.65 103.43 751.65 103.27C751.65 103.12 750.53 102.99 749.17 102.99L746.68 102.99L737.82 111.83C732.53 117.11 729.06 120.84 729.21 121.09C729.35 121.32 730.41 121.51 731.56 121.51L733.65 121.51L742.65 112.54ZM750.71 112.25L759.99 102.99L757.41 102.99L754.84 102.99L746.02 111.77C741.17 116.61 737.2 120.78 737.2 121.04C737.2 121.36 737.85 121.51 739.32 121.51L741.43 121.51L750.71 112.25ZM756.91 114.21C762.58 108.56 764.29 106.64 764.47 105.72C764.77 104.07 764.36 102.99 763.42 102.99C762.44 102.99 745.35 119.87 745.35 120.84C745.35 121.41 745.68 121.51 747.46 121.51L749.57 121.51L756.91 114.21ZM760.76 118.31C762.51 116.56 764.09 114.71 764.27 114.21C764.75 112.97 764.71 110.49 764.2 110.18C763.65 109.84 752.95 120.55 753.29 121.1C753.43 121.32 754.46 121.51 755.57 121.51L757.6 121.51L760.76 118.31ZM763.94 120.9C764.77 120.15 764.83 118.6 764.04 118.3C763.32 118.02 761.28 119.9 761.28 120.84C761.28 121.71 763 121.75 763.94 120.9ZM556.01 120.63C556.31 120.27 556.41 117.54 556.34 111.46L556.24 102.8L520.58 102.71L484.93 102.61L484.93 111.88L484.93 121.14L520.26 121.14C549.79 121.14 555.66 121.05 556.01 120.63ZM575.13 111.88L584.39 102.62L581.8 102.62L579.21 102.62L570.22 111.59C565.28 116.52 561.24 120.68 561.24 120.84C561.24 121.01 562.28 121.14 563.56 121.14L565.87 121.14L575.13 111.88ZM583.28 111.88L592.54 102.62L589.76 102.62L586.99 102.62L578.19 111.41C573.35 116.25 569.39 120.42 569.39 120.67C569.39 121 570.09 121.14 571.71 121.14L574.02 121.14L583.28 111.88ZM591.1 111.87L600.41 102.62L597.77 102.62L595.14 102.62L586.15 111.6C581.21 116.54 577.17 120.7 577.17 120.86C577.17 121.01 578.21 121.14 579.48 121.13L581.8 121.13L591.1 111.87ZM599.21 111.88L608.47 102.62L605.69 102.62L602.92 102.62L594.12 111.41C589.28 116.25 585.32 120.42 585.32 120.67C585.32 121 586.02 121.14 587.64 121.14L589.95 121.14L599.21 111.88ZM607.35 111.88L616.62 102.62L613.85 102.62L611.07 102.62L602.27 111.41C597.43 116.25 593.47 120.42 593.47 120.67C593.47 121 594.17 121.14 595.77 121.14L598.07 121.14L607.35 111.88ZM615.14 111.88L624.4 102.62L621.82 102.62L619.23 102.62L610.34 111.41C605.45 116.25 601.39 120.42 601.32 120.68C601.23 121.01 601.84 121.14 603.54 121.14L605.88 121.14L615.14 111.88ZM622.64 112.53C627.38 107.79 631.25 103.63 631.25 103.27C631.25 102.72 630.91 102.62 629.13 102.62L627 102.62L618.2 111.41C613.36 116.25 609.4 120.42 609.4 120.67C609.4 121 610.1 121.14 611.71 121.14L614.02 121.14L622.64 112.53ZM626.52 116.42L631.22 111.69L631.3 109.56C631.35 108.39 631.26 107.32 631.12 107.17C630.85 106.91 617.18 120.33 617.18 120.86C617.18 121.01 618.22 121.14 619.5 121.14L621.82 121.14L626.52 116.42ZM630.61 120.49C630.95 120.11 631.22 119.07 631.26 117.99C631.35 115.41 631.31 115.21 630.8 115.21C630.2 115.21 625.33 120.06 625.33 120.67C625.33 121.45 629.88 121.3 630.61 120.49ZM568.09 111.14L576.61 102.62L573.82 102.62L571.03 102.62L565.02 108.66L559.02 114.71L559.02 117.18C559.02 118.54 559.14 119.66 559.3 119.66C559.45 119.66 563.41 115.82 568.09 111.14ZM698.12 108.91L704.04 102.99L701.49 102.99L698.95 102.99L695.48 106.39L692.01 109.79L692.01 112.32C692.01 113.7 692.05 114.84 692.11 114.84C692.16 114.84 694.87 112.17 698.12 108.91ZM349.79 112.78C349.34 112.47 348.97 111.96 348.97 111.66C348.97 110.9 350.58 110.25 351.74 110.54C353.09 110.89 353.36 111.84 352.32 112.68C351.29 113.51 350.86 113.53 349.79 112.78ZM355.54 112.96C354.74 112.49 354.69 110.92 355.48 110.62C356.56 110.21 357.74 110.39 358.36 111.07C358.93 111.71 358.91 111.8 358.11 112.55C357.17 113.44 356.53 113.54 355.54 112.96ZM367.4 112.96C366.65 112.52 366.55 111.48 367.19 110.84C368.09 109.94 370.83 110.58 370.83 111.68C370.83 112.3 369.42 113.36 368.61 113.35C368.3 113.34 367.75 113.17 367.4 112.96ZM373.33 112.95C372.36 112.4 372.49 110.83 373.53 110.57C374.41 110.34 376.16 110.85 376.52 111.43C377.13 112.41 374.54 113.64 373.33 112.95ZM391.03 112.63C390.2 111.72 390.51 110.86 391.77 110.54C392.9 110.26 394.53 110.9 394.53 111.63C394.53 112.35 393.31 113.36 392.43 113.36C392.02 113.36 391.39 113.03 391.03 112.63ZM397.03 112.97C396.24 112.49 396.19 111.39 396.94 110.77C397.65 110.18 400.05 110.6 400.35 111.37C400.79 112.54 398.32 113.73 397.03 112.97ZM408.89 112.96C408.03 112.46 408.06 111.26 408.96 110.78C410.02 110.21 411.02 110.31 411.96 111.08L412.81 111.76L412 112.56C411.15 113.42 409.94 113.57 408.89 112.96ZM456.47 112.91C455.46 111.91 456.26 110.4 457.8 110.4C458.96 110.4 460.1 111.04 460.1 111.68C460.1 112.93 457.4 113.84 456.47 112.91ZM486.49 112.78C486.04 112.47 485.67 111.96 485.67 111.66C485.67 110.34 489.12 110.06 489.62 111.35C489.88 112.02 488.75 113.36 487.91 113.36C487.58 113.36 486.94 113.1 486.49 112.78ZM492.21 112.68C490.96 111.31 491.94 110.17 494.02 110.56C495.68 110.87 496.07 111.76 494.95 112.68C493.88 113.54 492.99 113.54 492.21 112.68ZM509.99 112.68C509.18 111.79 509.21 111.25 510.09 110.78C511.15 110.21 512.15 110.31 513.1 111.08L513.94 111.76L513.14 112.56C512.16 113.54 510.81 113.59 509.99 112.68ZM522.05 112.78C520.37 111.6 521.71 110.12 524.07 110.57C525.69 110.87 526.07 111.77 524.95 112.68C523.92 113.51 523.13 113.54 522.05 112.78ZM540.03 112.96C539.02 112.37 539.2 110.83 540.31 110.55C542.6 109.97 544.27 111.43 542.74 112.68C541.8 113.44 541 113.52 540.03 112.96ZM552.35 112.88C551.02 112.21 550.96 111.22 552.21 110.75C554.4 109.91 556.2 111.37 554.59 112.68C553.6 113.48 553.55 113.49 552.35 112.88ZM638.11 112.63C637.23 111.64 637.92 110.77 639.59 110.77C641.26 110.77 641.95 111.64 641.07 112.63C640.7 113.03 640.04 113.36 639.59 113.36C639.14 113.36 638.48 113.03 638.11 112.63ZM644.04 112.63C643.15 111.64 643.85 110.77 645.52 110.77C647.18 110.77 647.88 111.64 646.99 112.63C646.63 113.03 645.96 113.36 645.52 113.36C645.07 113.36 644.41 113.03 644.04 112.63ZM650.02 112.68C648.93 111.48 649.46 110.77 651.44 110.77C653.45 110.77 654.04 111.62 652.8 112.75C651.92 113.55 650.78 113.52 650.02 112.68ZM655.95 112.68C655.1 111.74 655.18 111.26 656.22 110.99C657.67 110.63 659.41 111.13 659.41 111.91C659.41 113.29 656.99 113.83 655.95 112.68ZM662.08 112.91C660.85 111.69 662.13 110.59 664.28 111.02C666.1 111.38 665.43 113.36 663.48 113.36C662.95 113.36 662.32 113.16 662.08 112.91ZM668 112.91C666.78 111.69 668.06 110.59 670.21 111.02C672.03 111.38 671.36 113.36 669.41 113.36C668.88 113.36 668.25 113.16 668 112.91ZM673.73 113.11C673.6 112.98 673.49 112.5 673.49 112.04C673.49 111.09 674.52 110.7 676.14 111.02C677.54 111.3 677.78 111.76 676.98 112.64C676.36 113.34 674.26 113.64 673.73 113.11ZM679.66 113.11C679.52 112.98 679.41 112.48 679.41 112C679.41 111.23 679.58 111.14 681.01 111.14C683.01 111.14 683.73 111.74 682.87 112.69C682.28 113.34 680.17 113.62 679.66 113.11ZM313.84 112.66C313.56 112.49 313.4 111.95 313.46 111.46C313.56 110.82 313.86 110.55 314.59 110.47C315.8 110.33 317.11 110.96 317.11 111.69C317.11 112.71 314.93 113.36 313.84 112.66ZM319.79 112.74C319.54 112.64 319.33 112.16 319.33 111.67C319.33 110.59 320.78 110.09 322.14 110.71C324.25 111.67 321.99 113.63 319.79 112.74ZM325.72 112.74C325.06 112.48 325.15 110.89 325.85 110.62C326.94 110.2 328.11 110.39 328.74 111.1C329.35 111.77 329.34 111.83 328.53 112.4C327.7 112.98 326.63 113.11 325.72 112.74ZM331.62 112.66C331.34 112.49 331.18 111.95 331.25 111.46C331.35 110.75 331.62 110.56 332.67 110.47C333.42 110.41 334.27 110.6 334.71 110.93C335.44 111.5 335.44 111.51 334.57 112.25C333.65 113.02 332.45 113.19 331.62 112.66ZM337.26 112.45C337.14 112.16 337.11 111.62 337.18 111.25C337.34 110.38 339.61 110.15 340.63 110.9C341.35 111.43 341.35 111.45 340.66 112.21C339.84 113.13 337.58 113.29 337.26 112.45ZM343.29 112.74C343.15 112.61 343.04 112.11 343.04 111.63C343.04 110.86 343.21 110.77 344.66 110.77C346.73 110.77 347.52 111.55 346.31 112.4C345.46 113 343.74 113.19 343.29 112.74ZM361.2 112.44C360.42 111.5 361.03 110.77 362.59 110.77C364.43 110.77 365.11 111.39 364.28 112.32C363.54 113.13 361.83 113.2 361.2 112.44ZM402.69 112.44C401.87 111.46 402.52 110.77 404.27 110.77C406.28 110.77 407 111.37 406.14 112.32C405.4 113.13 403.33 113.21 402.69 112.44ZM414.61 112.54C413.44 111.37 415.2 110.15 417.12 110.82C418.97 111.46 418.33 112.99 416.21 112.99C415.57 112.99 414.86 112.79 414.61 112.54ZM420.71 112.74C419.72 111.75 421.48 110.12 422.96 110.65C424.35 111.14 424.6 111.57 423.94 112.3C423.33 112.97 421.23 113.26 420.71 112.74ZM426.64 112.74C426.5 112.61 426.39 112.11 426.39 111.63C426.39 110.86 426.56 110.77 427.99 110.77C429.99 110.77 430.71 111.37 429.85 112.32C429.26 112.97 427.15 113.25 426.64 112.74ZM432.57 112.74C431.58 111.75 433.33 110.12 434.82 110.65C436.21 111.14 436.46 111.57 435.79 112.3C435.19 112.97 433.08 113.26 432.57 112.74ZM438.38 112.43C437.97 111.36 438.55 110.77 440.01 110.77C441.85 110.77 442.54 111.39 441.7 112.32C440.95 113.15 438.69 113.23 438.38 112.43ZM444.31 112.43C443.89 111.35 444.47 110.77 445.97 110.77C447.82 110.77 448.76 111.7 447.7 112.47C446.75 113.17 444.58 113.14 444.31 112.43ZM450.24 112.43C449.82 111.35 450.4 110.77 451.9 110.77C453.75 110.77 454.69 111.7 453.63 112.47C452.68 113.17 450.51 113.14 450.24 112.43ZM462.2 112.74C462.07 112.61 461.96 112.11 461.96 111.63C461.96 110.86 462.13 110.77 463.55 110.77C465.55 110.77 466.27 111.37 465.41 112.32C464.82 112.97 462.71 113.25 462.2 112.74ZM468.27 112.46C467.48 111.51 468.08 110.77 469.63 110.77C471.52 110.78 472.28 111.27 471.74 112.14C471.2 113.01 468.91 113.22 468.27 112.46ZM474.19 112.44C473.4 111.49 474.02 110.77 475.61 110.77C477.33 110.77 478.24 111.56 477.52 112.43C476.92 113.15 474.78 113.15 474.19 112.44ZM497.93 112.48C497.12 111.51 497.85 110.77 499.61 110.77C501.38 110.77 502.04 111.45 501.22 112.44C500.65 113.13 498.49 113.16 497.93 112.48ZM503.95 112.43C503.53 111.33 504.11 110.77 505.67 110.77C507.31 110.77 507.94 111.48 507.15 112.44C506.54 113.17 504.23 113.16 503.95 112.43ZM515.85 112.47C514.81 111.72 515.73 110.77 517.5 110.77C519.28 110.77 519.96 111.4 519.13 112.32C518.41 113.12 516.83 113.19 515.85 112.47ZM527.66 112.43C527.25 111.36 527.83 110.77 529.29 110.77C531.13 110.77 531.82 111.39 530.98 112.32C530.23 113.15 527.97 113.23 527.66 112.43ZM533.88 112.67C533.61 112.49 533.44 112.03 533.51 111.65C533.61 111.13 534.02 110.93 535.12 110.85C537.02 110.73 537.87 111.23 537.31 112.14C536.86 112.87 534.69 113.2 533.88 112.67ZM545.77 112.74C544.96 112.42 545.26 111.14 546.22 110.77C547.28 110.37 549.38 110.96 549.38 111.65C549.38 112.75 547.33 113.37 545.77 112.74ZM565.6 102.69L562.91 102.57L560.96 104.65L559.02 106.73L559.02 109.39L559.02 112.05L563.65 107.43L568.29 102.8L565.6 102.69ZM182.26 110.44L195.04 110.21L195.16 108.82C195.29 107.2 195.46 107.17 198.41 108.19C204.77 110.38 206.14 110.78 206.6 110.6C207 110.45 207.09 109.56 207 106.6L206.9 102.8L200.6 102.62L194.3 102.43L194.41 101.13C194.46 100.42 194.55 95.75 194.59 90.76L194.67 81.69L187.88 81.58L181.09 81.48L181.19 91.69C181.27 100.15 181.19 101.98 180.75 102.36C180.37 102.69 179.14 102.77 176.34 102.63L172.45 102.43L172.35 99.28C172.3 97.55 172.09 95.8 171.89 95.39C171.68 94.98 171.48 91.73 171.43 88.17L171.34 81.69L164.63 81.58L157.93 81.48L157.67 91.77C157.53 97.43 157.28 102.19 157.12 102.35C156.96 102.51 154.92 102.59 152.6 102.54L148.37 102.43L148.18 92.06L148 81.69L141.24 81.58L134.48 81.48L134.48 91.61C134.48 98.98 134.35 101.85 134.03 102.17C133.75 102.45 132.37 102.62 130.33 102.62L127.07 102.62L127.07 106.47C127.07 109.22 127.2 110.39 127.53 110.52C128.16 110.77 166.41 110.71 182.26 110.44ZM253.48 110.52C253.14 110.38 253.02 108.59 253.02 103.33L253.02 96.32L254.06 96.32C254.63 96.32 255.3 96.52 255.54 96.76C255.89 97.11 256.08 97.11 256.43 96.76C256.67 96.52 257.66 96.32 258.62 96.32C260.1 96.32 260.5 96.48 261.29 97.42C263.25 99.75 263.02 103.08 260.75 105.35C259.43 106.67 259.19 106.77 257.83 106.55L256.35 106.31L256.35 107.63C256.35 108.53 256.07 109.23 255.45 109.86C254.52 110.78 254.31 110.85 253.48 110.52ZM264.38 110.15C264.25 110.01 264.13 106.85 264.13 103.11L264.13 96.32L265.17 96.32C265.74 96.32 266.41 96.52 266.65 96.76C267 97.11 267.2 97.11 267.54 96.76C267.79 96.52 268.78 96.32 269.75 96.32C272.44 96.32 273.77 98.02 273.76 101.44C273.76 104.62 271.38 107.02 268.72 106.52C267.47 106.29 267.47 106.29 267.47 107.73C267.47 108.65 267.23 109.39 266.79 109.78C266.1 110.4 264.83 110.6 264.38 110.15ZM225.72 106.32C224.84 105.96 224.13 104.88 224.13 103.89C224.13 103.39 224.35 103.32 225.33 103.52C228.33 104.13 228.98 104.16 229.5 103.72C230.54 102.87 230.12 102.03 228.21 101.14C225.54 99.89 224.68 98.84 224.68 96.81C224.68 94.39 225.96 93.35 228.96 93.35C230.67 93.35 231.33 93.52 231.9 94.1C232.78 94.98 232.83 95.34 232.11 95.93C231.73 96.25 231.38 96.26 230.84 95.97C229.71 95.37 227.94 95.48 227.68 96.18C227.35 97.03 228.03 97.71 230.12 98.61C233.47 100.05 234.23 102.16 232.26 104.56C230.73 106.41 227.87 107.18 225.72 106.32ZM237 106.29C235.84 105.61 235.24 103.88 235.24 101.19C235.24 99.25 235.1 98.57 234.68 98.41C233.81 98.07 234.06 96.62 235.23 95.25C236.45 93.82 237.75 93.83 238.39 95.28C238.59 95.75 239.09 96.19 239.5 96.26C240.63 96.46 240.91 96.9 240.45 97.76C240.19 98.24 239.67 98.54 239.1 98.54C238.18 98.54 238.17 98.57 238.4 100.86C238.7 103.89 238.78 104.1 239.68 104.1C240.73 104.1 241.02 105.09 240.23 105.96C239.52 106.75 238.04 106.9 237 106.29ZM245.07 106.42C243.74 106.08 242.55 105.07 242.04 103.85C240.95 101.25 241.75 97.91 243.71 96.9C245.2 96.13 247.98 96.15 249.19 96.95C251 98.13 251.8 101.51 250.45 102.23C250.06 102.44 248.64 102.62 247.3 102.62C244.85 102.62 244.41 102.88 245.42 103.72C245.95 104.16 247.09 104.11 249.41 103.53C250.33 103.3 250.43 103.37 250.43 104.26C250.43 105.06 250.13 105.38 248.85 105.96C247.29 106.67 246.46 106.77 245.07 106.42ZM278.04 106.15C275.92 105.38 275.27 104.34 275.26 101.75C275.25 99.21 276.02 97.33 277.32 96.74C277.83 96.51 279.09 96.32 280.13 96.32C281.81 96.32 282.15 96.46 283.26 97.64C284.22 98.66 284.51 99.29 284.51 100.35C284.51 102.29 284.01 102.62 281.07 102.62C278.85 102.62 278.54 102.7 278.66 103.26C278.78 103.92 279.54 103.99 282.84 103.65C283.72 103.57 283.95 103.69 283.95 104.24C283.95 105.94 280.52 107.05 278.04 106.15ZM286.44 106.25C285.96 105.77 285.82 100.18 286.22 97.77L286.44 96.45L289.34 96.42C291.62 96.39 292.28 96.5 292.45 96.95C292.75 97.72 292.01 98.54 291.02 98.54C289.61 98.54 289.33 99.24 289.33 102.68C289.33 105.51 289.23 105.97 288.61 106.31C287.67 106.81 286.98 106.79 286.44 106.25ZM693.68 105.53C694.41 104.89 695.17 104.06 695.37 103.68C695.71 103.05 695.58 102.99 693.87 102.99L692.01 102.99L692.01 104.84C692.01 105.86 692.09 106.69 692.18 106.69C692.28 106.69 692.95 106.17 693.68 105.53ZM258.74 103.27C259.42 102.3 259.51 99.62 258.87 98.99C258.24 98.35 256.84 98.44 256.58 99.13C256.46 99.45 256.35 100.38 256.35 101.19C256.35 103.87 257.58 104.94 258.74 103.27ZM269.86 103.27C270.52 102.33 270.61 100.31 270.05 99.26C269.62 98.45 268.58 98.32 267.91 98.99C267.25 99.65 267.36 102.62 268.08 103.42C268.87 104.3 269.15 104.27 269.86 103.27ZM560.13 103.17C560.51 102.71 560.46 102.62 559.8 102.62C559.35 102.62 559.02 102.85 559.02 103.17C559.02 103.48 559.16 103.73 559.34 103.73C559.52 103.73 559.87 103.48 560.13 103.17ZM248.02 99.65C248.14 99.45 247.81 99.08 247.27 98.84C246.26 98.38 245.25 98.7 244.95 99.59C244.77 100.13 247.68 100.19 248.02 99.65ZM281.33 99.69C281.66 99.17 280.56 98.47 279.62 98.61C279.16 98.67 278.72 99.02 278.65 99.37C278.55 99.89 278.79 100.02 279.83 100.02C280.55 100.02 281.22 99.87 281.33 99.69ZM661.63 92.97C677.63 92.96 706.53 93.05 725.86 93.17C752.03 93.32 761.13 93.27 761.51 92.95C761.92 92.61 762.03 90.73 762.03 83.49L762.03 74.46L661.26 74.46L560.5 74.46L560.5 83.66C560.5 88.72 560.61 92.97 560.75 93.11C560.89 93.25 577.1 93.28 596.78 93.17C616.45 93.06 645.64 92.97 661.63 92.97ZM646.53 86.37C646.26 86.21 646.06 84.7 645.99 82.41L645.89 78.72L644.59 78.54C643.51 78.38 643.28 78.18 643.18 77.33L643.06 76.31L646.93 76.31C649.92 76.31 650.86 76.43 651.01 76.83C651.27 77.51 650.12 78.54 649.1 78.54C648.33 78.54 648.3 78.69 648.3 82.23C648.3 85.41 648.2 85.97 647.63 86.28C647.26 86.47 646.77 86.52 646.53 86.37ZM653.11 86.4C651.69 85.97 651.1 83.51 652.19 82.61C652.6 82.26 652.64 82.02 652.35 81.66C652.12 81.39 652 80.79 652.06 80.32C652.17 79.55 652.41 79.45 654.36 79.35C656.2 79.26 656.68 79.37 657.42 80.06C658.18 80.78 658.3 81.23 658.3 83.43C658.3 85.14 658.15 86.02 657.83 86.11C657.03 86.37 653.68 86.57 653.11 86.4ZM662.74 86.32C662.44 86.12 661.65 86.06 660.98 86.18L659.78 86.4L659.78 81.01C659.78 77.78 659.93 75.52 660.15 75.39C660.36 75.26 660.85 75.26 661.25 75.38C661.8 75.56 661.99 76.01 662.08 77.35L662.19 79.09L663.72 79.2C665.65 79.34 666.89 80.56 666.89 82.3C666.88 84.17 666.23 85.48 665 86.11C663.71 86.78 663.49 86.8 662.74 86.32ZM668.76 86.42C668.42 86.3 668.3 84.81 668.3 80.7L668.3 75.15L669.32 75.27L670.34 75.39L670.44 80.65C670.53 85.38 670.48 85.94 669.88 86.25C669.52 86.43 669.02 86.51 668.76 86.42ZM673.59 86.08C671.5 85.05 671.08 81.65 672.85 80C673.39 79.49 674.15 79.28 675.38 79.28C676.87 79.28 677.26 79.44 678.08 80.42C679.69 82.33 679.15 83.35 676.53 83.35C675.4 83.35 674.95 83.49 675.06 83.82C675.15 84.07 675.81 84.28 676.56 84.28C678.39 84.28 679.02 84.95 678.12 85.94C677.3 86.85 675.29 86.92 673.59 86.08ZM664.24 83.33C664.73 82.42 664.15 81.5 663.09 81.5C662.2 81.5 661.88 82.08 662.16 83.19C662.44 84.31 663.67 84.4 664.24 83.33ZM655.15 81.87C655.28 81.65 654.91 81.5 654.24 81.5C653.62 81.5 653.11 81.67 653.11 81.87C653.11 82.07 653.52 82.24 654.02 82.24C654.51 82.24 655.02 82.07 655.15 81.87ZM675.89 81.87C676.02 81.67 675.78 81.5 675.36 81.5C674.94 81.5 674.6 81.67 674.6 81.87C674.6 82.07 674.84 82.24 675.13 82.24C675.43 82.24 675.77 82.07 675.89 81.87ZM383.93 66.35C379.01 65.08 376.38 61.62 376.38 56.39C376.38 51.85 378.69 48.09 382.22 46.89C385.53 45.76 391.36 46.42 392.59 48.05C393.22 48.89 393.17 49.99 392.49 50.25C392.19 50.37 391.31 50.17 390.55 49.8C389.79 49.44 388.38 49.07 387.42 48.98C382.44 48.5 379.68 51.02 379.62 56.12C379.56 60.22 381.37 62.8 384.96 63.76C386.3 64.12 386.9 64.1 388.25 63.65L389.9 63.1L390.01 60.47L390.12 57.83L387.83 57.72C385.42 57.6 384.55 57.01 385.02 55.8C385.21 55.3 385.85 55.2 388.71 55.2C390.9 55.2 392.33 55.36 392.61 55.64C393.08 56.12 393.25 63.14 392.81 64.28C392.25 65.75 386.65 67.05 383.93 66.35ZM401.34 66.35C398.04 65.51 396.23 62.54 396.46 58.37C396.63 55.27 397.2 53.99 399.07 52.48C401.8 50.29 406.88 50.96 408.57 53.73C409.65 55.51 409.93 58.06 409.14 58.94C408.57 59.56 407.96 59.64 403.92 59.64C401.03 59.64 399.35 59.78 399.35 60.03C399.35 60.98 400.49 62.98 401.34 63.54C402.06 64.01 402.77 64.11 404.25 63.95C408.7 63.47 408.8 63.48 408.8 64.25C408.8 65.8 404.22 67.09 401.34 66.35ZM415.85 66.41C412.9 65.66 411.42 62.21 412.94 59.64C413.72 58.31 415.55 57.5 418.61 57.15C420.83 56.89 421.03 56.79 421.13 55.92C421.31 54.43 420.02 53.52 417.81 53.59C416.8 53.62 415.48 53.85 414.87 54.1C413.51 54.67 412.86 54.18 413.19 52.86C413.48 51.69 414.09 51.47 417.5 51.25C420.81 51.04 422.42 51.69 423.6 53.72C424.24 54.81 424.38 55.81 424.48 60.07C424.6 64.83 424.56 65.18 423.82 65.92C423.07 66.67 422.98 66.68 422 66.1C421.06 65.54 420.84 65.54 419.23 66.09C417.43 66.7 417.1 66.73 415.85 66.41ZM428.83 66.19C428.3 65.81 428.24 64.84 428.33 58.53C428.43 51.4 428.44 51.31 429.25 51.19C429.72 51.12 430.33 51.39 430.69 51.81C431.32 52.54 431.32 52.54 432.32 51.81C434.27 50.37 437.64 51.52 436.53 53.25C436.25 53.7 435.73 53.87 434.87 53.81C434.18 53.76 433.37 53.93 433.06 54.18C431.55 55.44 431.4 56.01 431.21 61.05C431.04 65.74 430.98 66.06 430.23 66.34C429.74 66.52 429.19 66.46 428.83 66.19ZM447.6 66.44C447.25 66.29 447.14 63.91 447.14 56.28L447.14 46.31L451.31 46.31C456 46.31 457.28 46.78 458.62 48.99C459.6 50.58 459.55 51.7 458.44 53.95L457.51 55.81L458.99 57.37C460.22 58.66 460.48 59.19 460.48 60.42C460.48 63.11 458.72 65.29 455.88 66.13C454.16 66.65 448.63 66.85 447.6 66.44ZM468.44 66.44C467.11 66.12 465.45 65.25 464.87 64.57C462.58 61.91 462.54 55.8 464.79 53.27C467.12 50.66 472.68 50.46 475.42 52.9C477.35 54.61 478.08 58.91 476.93 61.73C476.25 63.36 474.8 65.04 473.44 65.75C472.36 66.32 469.52 66.71 468.44 66.44ZM479.62 66.43C479.2 66.02 479.34 64.74 479.85 64.12C480.12 63.8 481.06 62.41 481.93 61.04L483.52 58.55L481.42 55.21C480.26 53.38 479.42 51.71 479.55 51.5C479.68 51.29 480.26 51.12 480.84 51.12C481.99 51.12 483.1 52.21 484.36 54.57C484.76 55.32 485.28 55.94 485.5 55.94C485.72 55.94 486.59 54.86 487.44 53.53C488.76 51.45 489.12 51.12 490.07 51.12C490.68 51.12 491.28 51.28 491.4 51.48C491.52 51.67 490.68 53.34 489.54 55.19L487.46 58.55L489.53 61.82C490.66 63.62 491.59 65.28 491.59 65.5C491.59 66.11 490.26 66.72 489.55 66.44C489.2 66.31 488.19 65.06 487.3 63.66C486.4 62.27 485.51 61.13 485.31 61.13C485.12 61.13 484.28 62.27 483.44 63.68C482.51 65.24 481.61 66.32 481.11 66.45C480.06 66.73 479.91 66.73 479.62 66.43ZM15.66 63.49C12.15 61.8 10.37 58.64 10.37 54.11C10.37 51.08 11.82 47.73 13.77 46.24C16.58 44.1 21.48 43.56 24.94 45.01C26.68 45.73 27.45 47.17 26.58 48.04C26.04 48.58 25.89 48.59 25.12 48.09C23.44 46.99 20.51 46.49 18.68 46.98C16.33 47.61 15.34 48.35 14.47 50.16C13.55 52.05 13.44 55.95 14.25 57.88C15.4 60.65 18.3 62.19 21.52 61.76C23.82 61.45 24.13 61.01 24 58.2L23.89 55.75L22.11 55.85C19.9 55.96 18.89 55.46 18.89 54.25L18.89 53.32L22.88 53.43L26.86 53.53L26.96 57.75C27.08 62.6 26.93 62.94 24.16 63.88C21.53 64.78 17.98 64.62 15.66 63.49ZM33.9 63.79C31.41 62.2 30.38 60.17 30.38 56.86C30.38 53.55 31.57 51.15 33.83 49.93C35.32 49.13 38.92 49.07 40.38 49.83C41.96 50.64 43.22 52.55 43.51 54.57C43.9 57.3 43.67 57.42 38.29 57.42C33.1 57.42 32.85 57.56 33.92 59.82C34.78 61.64 36.32 62.39 38.5 62.06C43.13 61.37 43.05 61.37 42.92 62.06C42.85 62.42 42.32 63.06 41.74 63.49C40.23 64.62 35.48 64.8 33.9 63.79ZM47.67 64.21C47.53 64.08 47.42 60.66 47.42 56.62L47.42 49.27L48.51 49.27C49.16 49.27 49.75 49.53 49.96 49.91C50.3 50.51 50.39 50.51 51.66 49.91C52.4 49.56 53.83 49.27 54.85 49.27C56.43 49.27 56.89 49.45 58.07 50.54L59.46 51.8L59.58 57.6C59.7 63.76 59.51 64.6 58.01 64.38C57.28 64.28 57.22 63.99 57.05 59.21C56.89 54.81 56.76 54 56.09 53.09C54.99 51.61 53.1 51.49 51.54 52.8L50.38 53.78L50.38 58.68C50.38 61.99 50.24 63.71 49.94 64.01C49.46 64.49 48.07 64.61 47.67 64.21ZM66.15 63.64C65.26 63.12 64.36 62.15 63.81 61.13C63.02 59.65 62.93 59.09 63.06 56.29C63.17 53.72 63.36 52.89 64.05 51.92C66.5 48.48 72.78 48.32 74.96 51.65C75.28 52.14 75.74 53.31 75.98 54.25C76.35 55.75 76.33 56.05 75.75 56.69C75.16 57.34 74.59 57.42 70.72 57.42C68.15 57.42 66.26 57.58 66.12 57.8C65.78 58.35 66.6 60.56 67.41 61.3C68.44 62.23 70.79 62.42 72.78 61.74C74.64 61.11 75.67 61.26 75.5 62.15C75.07 64.31 68.97 65.28 66.15 63.64ZM80.27 64.21C80.13 64.08 80.02 60.66 80.02 56.62L80.02 49.27L81.16 49.27C81.99 49.27 82.36 49.47 82.5 49.99C82.69 50.71 82.7 50.71 83.7 49.97C84.44 49.42 85.15 49.25 86.35 49.34C87.89 49.45 87.98 49.52 87.98 50.57C87.98 51.59 87.86 51.69 86.5 51.86C83.21 52.27 82.61 53.39 82.61 59.1C82.61 62.08 82.46 63.72 82.17 64.01C81.68 64.5 80.66 64.61 80.27 64.21ZM91.99 63.74C91.34 63.34 90.63 62.69 90.41 62.28C89.9 61.33 89.91 58.32 90.42 57.36C91 56.29 93.16 55.48 96.13 55.23C98.45 55.04 98.74 54.93 98.84 54.19C98.92 53.68 98.59 52.99 97.98 52.38C97.1 51.5 96.82 51.43 95.09 51.62C94.03 51.75 92.63 51.95 91.97 52.08C90.83 52.31 90.76 52.26 90.76 51.22C90.76 49.74 91.91 49.27 95.54 49.27C98.96 49.27 100.66 50.14 101.39 52.25C101.94 53.84 102.02 62.76 101.49 63.74C101.02 64.63 100.12 64.66 99.19 63.82C98.52 63.22 98.42 63.22 97.37 63.82C95.89 64.67 93.46 64.63 91.99 63.74ZM108.08 63.52C107.52 63 107.04 62.54 107.01 62.5C106.99 62.46 106.86 60 106.74 57.05L106.51 51.68L105.5 51.56C103.91 51.38 103.61 49.27 105.19 49.27C106.15 49.27 106.62 48.55 106.76 46.86C106.86 45.54 106.99 45.37 107.95 45.26C109.27 45.11 109.64 45.65 109.65 47.7L109.65 49.27L111.52 49.27C112.84 49.27 113.44 49.43 113.6 49.83C113.97 50.8 113 51.49 111.28 51.49L109.65 51.49L109.65 55.96C109.65 61.41 109.89 62.02 111.9 61.68C113.65 61.38 114.15 62.09 113.21 63.54C112.33 64.87 109.52 64.86 108.08 63.52ZM119.1 63.77C116.69 62.27 115.58 60.17 115.58 57.09C115.59 53.42 116.95 50.81 119.35 49.84C121.16 49.12 124.92 49.1 126.3 49.81C130.39 51.93 131.21 58.54 127.85 62.37C126.05 64.42 121.36 65.17 119.1 63.77ZM133.61 64.21C133.47 64.08 133.36 60.66 133.36 56.62L133.36 49.27L134.49 49.27C135.14 49.27 135.7 49.5 135.82 49.83C135.94 50.13 136.25 50.38 136.51 50.38C136.77 50.38 137.18 50.13 137.44 49.83C138.05 49.09 140.9 49.09 141.51 49.82C141.88 50.27 141.86 50.55 141.41 51.24C140.96 51.92 140.59 52.06 139.57 51.95C138.51 51.82 138.14 51.99 137.31 52.97C136.36 54.11 136.33 54.29 136.33 58.86C136.33 62.03 136.18 63.72 135.88 64.01C135.4 64.49 134.01 64.61 133.61 64.21ZM420.03 63.07C420.84 62.39 421.26 61.68 421.32 60.94L421.39 59.83L419.09 59.72C417.18 59.63 416.67 59.74 416.04 60.37C415.13 61.27 415.08 62.15 415.86 63.27C416.68 64.44 418.51 64.36 420.03 63.07ZM455.02 63.59C457.48 62.56 458.03 60.36 456.28 58.61C455.41 57.75 454.92 57.6 452.51 57.48L449.73 57.34L449.73 60.5C449.73 62.68 449.88 63.71 450.19 63.84C451.13 64.22 453.86 64.08 455.02 63.59ZM471.51 63.57C473.58 62.49 474.3 61.32 474.33 58.96C474.38 55.45 472.92 53.72 469.91 53.72C468.15 53.72 466.43 55.35 466.34 57.11C466.23 59.13 466.45 61.26 466.83 61.98C467.23 62.73 469.29 64.09 470.03 64.09C470.3 64.09 470.96 63.85 471.51 63.57ZM96.62 61.72C98.2 60.9 98.98 59.83 98.85 58.66C98.75 57.81 98.52 57.58 97.65 57.48C95.21 57.2 92.61 58.39 92.61 59.78C92.61 60.62 94.1 62.24 94.88 62.24C95.28 62.24 96.06 62 96.62 61.72ZM124.86 61.03C126.61 59.85 127.36 57.4 126.7 55.03C126.07 52.79 124.88 51.86 122.64 51.86C120.53 51.86 119.49 52.7 118.91 54.85C117.57 59.81 121.16 63.53 124.86 61.03ZM406.5 56.71C406.66 56.56 406.61 55.98 406.4 55.43C405.94 54.2 403.85 53.23 402.4 53.57C400.6 54 398.95 55.94 399.66 56.8C400.06 57.28 405.98 57.21 406.5 56.71ZM40.29 54.73C41.28 53.51 39.2 51.49 36.95 51.49C35.25 51.49 33.71 52.81 33.71 54.25C33.71 55.19 33.74 55.2 36.81 55.2C38.85 55.2 40.05 55.04 40.29 54.73ZM72.89 54.73C73.39 54.11 72.87 52.83 71.81 52.09C70.72 51.33 68.57 51.32 67.48 52.09C66.57 52.73 65.81 54.31 66.15 54.86C66.47 55.39 72.45 55.28 72.89 54.73ZM454.89 54.24C455.8 53.47 456.03 52.99 456.03 51.86C456.03 49.8 454.77 48.9 451.9 48.9L449.73 48.9L449.73 51.8C449.73 53.4 449.84 54.81 449.98 54.95C450.11 55.09 451.02 55.2 451.99 55.2C453.34 55.2 454.01 54.98 454.89 54.24ZM44.55 26.43C44.19 26.28 44.08 23.9 44.08 16.27L44.08 6.3L48.04 6.3C53.07 6.3 54.74 6.97 55.96 9.49C58.01 13.72 54.41 18.5 49.18 18.52L47.05 18.52L47.05 21.86C47.05 24.7 46.94 25.3 46.31 25.93C45.55 26.69 45.35 26.75 44.55 26.43ZM63 26.02C60.47 24.73 60.21 23.98 60.08 17.38C59.95 10.95 60.02 10.76 62.05 11.27L62.98 11.5L62.98 16.25C62.98 21.55 63.32 23.04 64.68 23.66C65.76 24.15 66.63 23.82 68.26 22.3C69.27 21.35 69.28 21.32 69.28 16.42L69.28 11.5L70.26 11.25C72.3 10.74 72.41 11.11 72.52 18.59C72.62 24.96 72.58 25.48 71.91 26.08C71.33 26.6 71.03 26.65 70.42 26.32C69.99 26.09 69.65 25.74 69.65 25.55C69.65 24.98 68.64 25.13 67.15 25.93C65.45 26.84 64.64 26.86 63 26.02ZM77.52 26.43C76.91 26.18 76.84 4.62 77.45 4.25C77.66 4.11 78.24 4.11 78.74 4.23L79.65 4.46L79.65 15.18C79.65 25.41 79.61 25.92 78.93 26.29C78.54 26.5 78.16 26.66 78.1 26.64C78.03 26.63 77.77 26.53 77.52 26.43ZM85.3 26.33C83.67 25.92 82.98 25.28 82.98 24.18C82.98 23.33 83.08 23.28 84.19 23.51C87.6 24.22 88.57 24.18 89.49 23.31C89.99 22.85 90.39 22.27 90.39 22.03C90.39 21.36 89.26 20.54 87.33 19.82C84.77 18.86 83.35 17.28 83.35 15.39C83.35 13.55 84.15 12.32 85.8 11.63C88.95 10.31 94.01 12.11 92.2 13.9C91.77 14.33 91.43 14.33 90 13.85C87.6 13.06 86.22 13.6 86.39 15.28C86.49 16.32 86.75 16.59 88.35 17.32C91.67 18.81 92.05 19.08 92.78 20.44C93.49 21.75 93.49 21.81 92.82 23.29C91.69 25.79 88.41 27.12 85.3 26.33ZM99.89 26.13C96.71 25 94.88 21.56 95.37 17.65C95.91 13.34 98.63 10.94 102.67 11.2C106.21 11.44 108.54 13.81 108.54 17.19C108.54 19.43 108.07 19.63 102.83 19.63C98.74 19.63 98.54 19.67 98.54 20.4C98.54 21.42 99.19 22.64 100.16 23.42C101.1 24.18 103.38 24.27 105.76 23.63C107.05 23.29 107.53 23.29 107.87 23.63C108.6 24.36 106.88 25.83 104.78 26.28C102.44 26.78 101.65 26.76 99.89 26.13ZM105.5 16.25C105.57 15.92 105.22 15.18 104.73 14.61C103.99 13.75 103.55 13.58 102.06 13.58C100.58 13.58 100.13 13.75 99.41 14.59C98.93 15.15 98.54 15.93 98.54 16.33C98.54 17.02 98.76 17.06 101.96 16.96C104.78 16.87 105.41 16.75 105.5 16.25ZM51.12 15.38C53.01 14.4 53.83 12.43 53.12 10.57C52.75 9.62 50.94 8.89 48.92 8.89L47.05 8.89L47.05 12.16C47.05 13.96 47.16 15.55 47.29 15.68C47.74 16.13 50.02 15.94 51.12 15.38Z" fill="#1e2749" fill-rule="evenodd"/>
</svg>
