<?xml version="1.0" encoding="UTF-8"?>
<svg xmlns="http://www.w3.org/2000/svg" viewBox="0 0 2430 4994" width="2430" height="4994" shape-rendering="geometricPrecision">
<path d="M1774.73 4869.98C1756.97 4867.18 1749 4861.24 1749 4850.81C1749 4846.87 1749.51 4845.4 1751.59 4843.32C1754.06 4840.85 1754.57 4840.75 1762.34 4841.24C1767.62 4841.57 1773.14 4842.71 1778 4844.47C1803.5 4853.72 1801.99 4853.33 1812 4853.34C1819.26 4853.34 1822.73 4852.86 1826.72 4851.28C1838.1 4846.78 1846.59 4837.86 1851.24 4825.5C1853.2 4820.29 1853.5 4817.66 1853.46 4805.5C1853.43 4793.33 1853.13 4790.75 1851.15 4785.76C1845.84 4772.4 1835.66 4761.57 1822.08 4754.85C1818.46 4753.06 1809.22 4749.71 1801.54 4747.41C1793.86 4745.12 1787.45 4742.85 1787.29 4742.37C1787.14 4741.89 1793.64 4738.17 1801.75 4734.1C1815.16 4727.37 1817.24 4725.96 1824.61 4718.53C1833.67 4709.42 1838 4701.74 1840.05 4691.23C1842.33 4679.49 1837.95 4666.77 1828.28 4657.14C1820.08 4648.96 1812.69 4645.56 1803.03 4645.53C1790.81 4645.48 1785.43 4648.06 1765.01 4663.75C1755.92 4670.74 1754 4671.35 1754.01 4667.25C1754.03 4660.22 1765.82 4643.36 1776.65 4634.86C1796.47 4619.31 1821.34 4616.79 1843.12 4628.13C1852.58 4633.05 1862.52 4642.36 1866.13 4649.68C1868.19 4653.88 1868.5 4655.93 1868.48 4665.5C1868.46 4681.59 1865.3 4690.45 1853.48 4707.6C1846.43 4717.82 1844 4722.16 1844 4724.49C1844 4725.47 1846.42 4727.2 1850.25 4728.98C1857.19 4732.2 1861 4735.31 1866.19 4742C1879.94 4759.72 1885.16 4782.91 1880.02 4803.43C1873.33 4830.12 1860.37 4847.7 1839.67 4858.17C1822.06 4867.06 1791.5 4872.62 1774.73 4869.98ZM1071.02 4797.53C1068.47 4794.45 1067.97 4787.53 1067.99 4755.36C1068.01 4723.34 1068.87 4704.71 1071.07 4689C1072.62 4677.89 1073.72 4675 1076.41 4675C1079.32 4675 1081.91 4680.58 1086.05 4695.82C1091.96 4717.53 1099.63 4731.66 1112.48 4744.55C1127.5 4759.62 1148.32 4769.96 1169.85 4773.06C1182.76 4774.91 1201.5 4773.81 1212.46 4770.55C1240.5 4762.21 1257.97 4742.86 1258.1 4720.01C1258.15 4710.42 1256.74 4704.25 1252.49 4695.5C1248.11 4686.47 1241.72 4678.47 1233.26 4671.43C1223.89 4663.63 1192.26 4642.72 1155.5 4620.01C1120.73 4598.53 1106.24 4588.06 1094.42 4575.84C1080.14 4561.09 1073.75 4549.41 1070.06 4531.28C1060.41 4483.92 1086.68 4439.16 1132.65 4424.67C1145.53 4420.6 1162.12 4418.67 1178.5 4419.33C1195.83 4420.02 1209.7 4422.66 1229.91 4429.11C1257.57 4437.94 1260.13 4437.5 1272.67 4421.78C1279.65 4413.04 1281.26 4413.07 1282.13 4422.01C1282.48 4425.58 1282.82 4448.07 1282.88 4472C1283.01 4523.43 1281.66 4543 1277.97 4543C1276.29 4543 1272.33 4533.48 1268.35 4519.89C1263.92 4504.8 1257.36 4488.88 1252.63 4481.78C1242.71 4466.89 1219.61 4451.1 1196.5 4443.42C1185.73 4439.84 1169.58 4439 1158.54 4441.46C1149.04 4443.57 1135.15 4450.45 1128.42 4456.38C1117.16 4466.31 1111 4479.43 1111 4493.53C1111 4506.67 1115.48 4515.51 1128.98 4529.02C1143.04 4543.08 1161.17 4555.32 1205.98 4580.95C1244.31 4602.88 1259.92 4613.51 1275.74 4628.42C1299.91 4651.2 1309.67 4676.87 1306.11 4708.19C1301.04 4752.72 1268.34 4785 1218.5 4794.69C1211.96 4795.96 1204.71 4796.43 1192 4796.4C1171.59 4796.36 1164.16 4795.21 1136.98 4787.94C1107.51 4780.06 1096.57 4778.51 1089.05 4781.13C1086.41 4782.05 1085.27 4783.45 1083 4788.49C1081.35 4792.18 1078.99 4795.59 1077.2 4796.86C1073.64 4799.39 1072.66 4799.5 1071.02 4797.53ZM1522 4797.35C1495.72 4794.89 1478.54 4790.22 1457.73 4779.86C1411.92 4757.07 1376.47 4712.07 1363.08 4659.73C1354.3 4625.37 1354.28 4588.7 1363.04 4553.88C1368.83 4530.86 1373.75 4519.33 1384.62 4503.26C1405.41 4472.56 1440.22 4441.8 1467.07 4430.43C1497.2 4417.66 1552.02 4415.96 1591 4426.57C1621.58 4434.91 1655.85 4460.29 1677.71 4490.8C1720.54 4550.59 1722.8 4648.48 1682.85 4713.75C1671.87 4731.68 1652.7 4752.33 1635.97 4764.24C1617.48 4777.39 1589.9 4789.19 1566.2 4794.06C1551.49 4797.09 1533.49 4798.43 1522 4797.35ZM1944 4787.94C1927.29 4786.74 1922.59 4785.85 1922.2 4783.79C1921.72 4781.3 1924.94 4780.09 1934.84 4779.07C1947.9 4777.72 1956.83 4773.53 1967.31 4763.83L1971.99 4759.5L1973.13 4670.5C1974.41 4569.51 1973.87 4475.62 1971.96 4467C1971.29 4463.98 1969.74 4459.25 1968.53 4456.5C1963.29 4444.67 1956.18 4440.27 1940.08 4438.88C1934.26 4438.38 1928.6 4437.69 1927.5 4437.36C1921.74 4435.63 1919.8 4428.79 1924.57 4426.97C1930.12 4424.86 1951.58 4424.02 1999 4424.04C2068.23 4424.08 2079.09 4425.37 2074.97 4433.06C2073.1 4436.55 2068.38 4438.06 2057.71 4438.61C2040.55 4439.5 2035.79 4442.46 2032.05 4454.57C2028.86 4464.92 2028 4482.77 2028 4539.15L2028 4592L2108.46 4592C2185.03 4592 2188.98 4591.91 2189.9 4590.19C2190.43 4589.2 2191.68 4584.36 2192.68 4579.44C2194.24 4571.75 2194.49 4565.38 2194.48 4534C2194.44 4476.39 2191.22 4455.3 2180.94 4445.24C2177 4441.4 2170.35 4439 2163.57 4438.99C2155.87 4438.99 2146.94 4437.26 2144.86 4435.37C2142.05 4432.83 2142.42 4428.17 2145.52 4426.99C2151.18 4424.84 2172.09 4424 2219.5 4424.03C2267.95 4424.05 2285.83 4424.8 2292.78 4427.09C2295.72 4428.06 2296.08 4428.56 2295.81 4431.3C2295.35 4435.95 2291.45 4437.69 2278.91 4438.84C2266.84 4439.94 2260.36 4442.55 2255.27 4448.34C2250.96 4453.25 2249.13 4459.7 2247.99 4474.03C2246.42 4493.66 2245.61 4659.89 2246.88 4702C2248.13 4743.56 2249.57 4756.71 2253.77 4765C2257.59 4772.52 2261.49 4774.5 2278.64 4777.62C2292.4 4780.11 2296 4781.24 2296 4783.06C2296 4786.59 2278.4 4788.1 2229.99 4788.71C2202.06 4789.07 2181.31 4788.84 2169.49 4788.06C2147.39 4786.6 2143.62 4785.99 2143.2 4783.8C2142.72 4781.31 2145.92 4780.1 2155.69 4779.07C2177.02 4776.84 2186.06 4768.76 2189.97 4748.44C2192.1 4737.35 2192.84 4703.25 2191.87 4660.5C2191.34 4637.4 2190.72 4617.94 2190.49 4617.25C2190.15 4616.26 2172.94 4616 2108.91 4616L2027.76 4616L2028.32 4680.75C2028.92 4750.77 2029.5 4760.74 2033.2 4764.76C2039.44 4771.56 2052.6 4777.49 2064.87 4779.05C2078.49 4780.77 2078.29 4785.09 2064.5 4787.02C2054.35 4788.44 1960.99 4789.15 1944 4787.94ZM1559.03 4773.18C1580.06 4767.64 1594.85 4759.34 1609.05 4745.09C1629.94 4724.13 1641.4 4698.52 1646.69 4661C1649.19 4643.28 1649.19 4584.43 1646.69 4565.5C1642.11 4530.8 1633.67 4504.61 1620.55 4484.41C1609.9 4468 1592.08 4452.85 1576 4446.53C1560.15 4440.31 1541.52 4437.93 1523.25 4439.8C1507.64 4441.4 1501.6 4443.08 1488.5 4449.48C1455.06 4465.81 1435.56 4496.29 1425.05 4548.66C1420.26 4572.53 1419.53 4580.47 1419.61 4608C1419.67 4628.89 1420.07 4636.03 1421.84 4647.5C1428.61 4691.35 1444.22 4727.22 1466 4749C1478.55 4761.55 1494.5 4770.08 1513 4774.13C1524.33 4776.62 1547.8 4776.13 1559.03 4773.18ZM1178.74 4374.53C1173.64 4372.77 1172.31 4371.49 1171.62 4367.71C1170.89 4363.69 1169.27 4279.86 1168.53 4208.5C1168.23 4178.8 1167.98 4048.97 1167.97 3920C1167.97 3791.03 1167.68 3664.1 1167.33 3637.94L1166.7 3590.39L1152.6 3581.86C1078.75 3537.16 1052.8 3521.45 988.5 3482.49C947.8 3457.83 907.3 3433.32 898.5 3428.01C882.43 3418.32 829.94 3386.55 768.5 3349.33C750.35 3338.34 701.08 3308.51 659 3283.04C616.92 3257.58 574.17 3231.69 564 3225.5C553.83 3219.31 530.65 3205.27 512.5 3194.3C453.36 3158.54 250.86 3035.96 236.5 3027.22C228.8 3022.53 206.53 3009.03 187 2997.21C167.47 2985.39 134.62 2965.51 114 2953.02C93.38 2940.53 72.9 2928.16 68.5 2925.51C64.1 2922.87 59.94 2920.01 59.25 2919.16C57.41 2916.89 57.41 1983.12 59.25 1980.82C59.94 1979.97 90.88 1961.05 128 1938.79C191.87 1900.49 335.6 1814.07 597.5 1656.51C661.3 1618.13 733.52 1574.71 758 1560.03C933.2 1454.95 1164.79 1315.54 1166.17 1314.31C1167.73 1312.93 1167.88 1287.96 1168.3 957.17C1168.81 562.66 1169.17 538.89 1174.67 532.82C1177.2 530.02 1182.57 528.93 1188.03 530.1C1195.16 531.63 1195.91 532.56 1197.52 541.78C1200.83 560.76 1201.21 598.33 1201.7 957.7C1202.06 1226.07 1202.47 1314.14 1203.34 1314.85C1204.38 1315.69 1298.55 1372.36 1580 1541.49C1712.71 1621.24 1806.09 1677.38 2074.5 1838.76L2310.5 1980.65L2310.75 2449.67C2310.99 2895.4 2310.92 2918.76 2309.25 2920.18C2308.29 2921 2296.7 2928.22 2283.5 2936.21C2270.3 2944.21 2238.35 2963.57 2212.5 2979.23C2000.18 3107.86 1925.34 3153.22 1892 3173.48C1881.83 3179.67 1820.17 3217.04 1755 3256.53C1689.83 3296.02 1616.47 3340.47 1592 3355.32C1567.53 3370.16 1538.05 3388.01 1526.5 3394.98C1514.95 3401.95 1460.72 3434.81 1406 3467.99C1272.1 3549.19 1218.82 3581.48 1210.75 3586.34L1204 3590.4L1203.98 3619.45C1203.98 3635.43 1203.32 3748.85 1202.53 3871.5C1201.74 3994.15 1200.78 4153.23 1200.41 4225C1200.04 4296.77 1199.45 4359.52 1199.11 4364.44C1198.5 4373.36 1198.49 4373.38 1195.5 4374.08C1189.01 4375.61 1182.38 4375.79 1178.74 4374.53ZM1207.5 3543.71C1234.39 3528.12 1314.36 3480.56 1368.5 3447.95C1393.8 3432.72 1443.3 3402.94 1478.5 3381.78C1551.61 3337.84 1784.41 3197.14 1840.5 3163C1849.3 3157.65 1903.53 3124.78 1961 3089.97C2018.47 3055.15 2079.22 3018.35 2096 3008.19C2112.78 2998.03 2135.95 2983.99 2147.5 2976.99C2159.05 2969.99 2191 2950.65 2218.5 2934.02C2246 2917.38 2270.3 2902.57 2272.5 2901.1L2276.5 2898.42L2276.75 2449.94L2277 2001.46L2198.25 1954.08C2025.4 1850.09 1829.03 1732 1747.5 1683.02C1700.2 1654.6 1606.6 1598.36 1539.5 1558.03C1308.17 1419.02 1187.92 1347 1187.15 1347C1185.87 1347 1123.35 1383.54 1060.5 1421C882.7 1527.01 704.37 1634 328 1860.5C230.38 1919.25 138.03 1974.78 122.78 1983.91L95.06 2000.5L94.95 2077.5C94.89 2119.85 94.69 2163.5 94.5 2174.5C94.32 2185.5 93.88 2353.12 93.54 2547L92.91 2899.5L179.05 2951.5C275.59 3009.78 280.93 3013.01 424.5 3099.96C651.28 3237.31 792.96 3322.93 897 3385.49C931.92 3406.49 970.17 3429.52 982 3436.66C1011.37 3454.4 1124.69 3521.91 1150.5 3537.04C1185.41 3557.51 1184.26 3556.91 1186.5 3555.75C1187.6 3555.19 1197.05 3549.77 1207.5 3543.71ZM1134.5 3418.86C1094.05 3396.04 1019.01 3350.89 882.5 3267.23C853.35 3249.36 825.67 3232.36 821 3229.45C816.33 3226.54 805.75 3220 797.5 3214.91C727.86 3171.96 703.46 3156.8 585.5 3083.24C354.53 2939.21 227.66 2857.98 223.33 2851.39C218.89 2844.6 228.42 2830 237.3 2830C238.96 2830 243.28 2831.66 246.9 2833.69C265.89 2844.3 429.92 2944.81 563.5 3027.69C750.2 3143.52 915.14 3246.35 991.5 3294.49C1108.15 3368.04 1147.05 3394.29 1153.52 3403.81C1158.87 3411.69 1154.27 3424.07 1146.03 3423.97C1144.64 3423.95 1139.45 3421.66 1134.5 3418.86ZM2156.33 2851.61C2154.58 2850.81 2152.64 2849.2 2152.01 2848.02C2148.5 2841.45 2146.88 2695.46 2147.5 2440C2148.08 2200.1 2150.11 2056.11 2153.02 2048.46C2155.32 2042.41 2167.49 2039.67 2171.74 2044.25C2177.15 2050.08 2178.69 2065.7 2180.11 2129C2181.14 2174.68 2180.79 2453.46 2179.36 2727.79C2178.76 2842.39 2178.62 2850.14 2176.99 2851C2173.7 2852.77 2159.77 2853.18 2156.33 2851.61ZM234.19 2082.65C228.44 2079.46 226.11 2069.34 229.38 2061.72C231.91 2055.8 227.92 2058.48 311.5 2006.48C330.75 1994.5 385.88 1960.4 434 1930.7C482.12 1901.01 528.92 1872.1 538 1866.48C552.77 1857.32 609.86 1822.25 643 1801.98C649.88 1797.78 659.33 1791.95 664 1789.03C668.67 1786.12 691.4 1772.16 714.5 1758.02C737.6 1743.87 781.7 1716.87 812.5 1698.01C872.51 1661.26 894.28 1648.01 978.5 1597.02C1077.37 1537.16 1159.77 1488.47 1183.12 1476.13L1193.74 1470.51L1197.32 1472.21C1203.76 1475.28 1207 1483.23 1204.18 1489.04C1199.69 1498.31 1158.1 1526.33 1042 1598.31C968.63 1643.8 733.57 1788.55 688.5 1816C682.45 1819.69 664.45 1830.71 648.5 1840.49C475.37 1946.72 318.4 2041.18 268.5 2069.19C240.32 2085 239.21 2085.44 234.19 2082.65ZM1783 571.96C1759.98 571.21 1754 570.5 1754 568.53C1754 566.82 1765.92 553.02 1786.43 531C1810 505.68 1812.64 502.69 1823.81 488.69C1841.2 466.89 1852.25 448.3 1858.1 431C1862.17 418.97 1863.2 403.32 1860.61 392.98C1856.56 376.86 1847.2 364.63 1835.25 359.84C1830.28 357.85 1827.74 357.54 1816.5 357.54C1805.24 357.54 1802.73 357.84 1797.71 359.85C1784.49 365.15 1774.37 374.5 1770.64 384.87C1769.68 387.54 1767.59 390.98 1765.99 392.51C1757.26 400.88 1758.13 381.3 1767.28 363.5C1774.64 349.18 1789.01 336.93 1805.6 330.82C1810.58 328.99 1813.68 328.65 1825.5 328.61C1838.15 328.57 1840.29 328.83 1847.63 331.29C1869.93 338.76 1888.49 359.16 1892.02 380.11C1897.6 413.19 1879.06 448.4 1824.36 508.63C1803.65 531.43 1798 538.21 1798 540.26C1798 542.61 1809.58 543.23 1845.5 542.81C1881.7 542.38 1882.13 542.29 1893.92 532.14C1900.83 526.19 1904.38 524.66 1905.26 527.25C1906.43 530.74 1894.25 569.48 1891.26 571.75C1889.43 573.14 1822.94 573.27 1783 571.96ZM1275.39 494.76C1257.76 476.44 1214.99 425.84 1142.48 337.5C1115.81 305.01 1098.94 284.46 1060.06 237.13C1050.4 225.37 1041.74 214.8 1040.82 213.64C1039.89 212.48 1038.92 211.75 1038.66 212.01C1038.4 212.28 1038.82 269.87 1039.59 340L1041 467.5L1044.75 470.73C1056.28 480.66 1064.8 484.5 1078.32 485.87C1089.43 487 1093.81 489.43 1089.18 491.9C1084.37 494.48 1068.33 495.41 1028.5 495.44C980.95 495.47 964 494.03 964 489.94C964 488.49 967.76 487.29 979.77 484.9C993.71 482.14 999.89 479.76 1004.98 475.21C1010.24 470.5 1010.56 469.03 1012.17 442.04C1014.01 411.19 1014.03 215.51 1012.19 198C1009.28 170.23 1004.94 162.45 987.5 153.73C977.62 148.79 968.15 146.09 958.13 145.37C947.37 144.58 943.3 143.04 942.39 139.41C941.52 135.96 942.86 133.84 946.58 132.74C953.41 130.74 1039.95 128.95 1042.55 130.77C1043.13 131.17 1058.85 150.18 1077.47 173C1132.18 240.05 1148.42 259.94 1168 283.91C1178.17 296.37 1202.9 326.69 1222.94 351.29C1248.52 382.67 1259.7 395.7 1260.44 394.96C1261.15 394.25 1261.77 369.84 1262.31 321.2C1263.19 241.88 1262.71 185.73 1261.05 174C1258.86 158.5 1254.26 149.95 1246.5 146.97C1244.85 146.34 1239 145.19 1233.5 144.42C1222.29 142.86 1216.09 140.86 1213.48 137.98C1211.25 135.51 1212.69 133.48 1217.28 132.6C1224.61 131.21 1278.02 130.21 1303.92 130.99C1332.1 131.84 1338.18 132.7 1340.33 136.15C1341.9 138.66 1338.75 142.7 1334.26 143.94C1332.19 144.52 1328.25 145 1325.5 145.01C1318.78 145.04 1308.42 147.32 1302.63 150.04C1296.81 152.78 1294.42 157.01 1292.99 167.09C1291.41 178.19 1290.16 226.87 1289.5 302.5C1288.8 383.51 1287.35 455.77 1286.02 476.73C1285.09 491.25 1283.56 499 1281.47 499.68C1280.91 499.87 1278.17 497.65 1275.39 494.76ZM1385.5 494.83C1364.69 493.83 1355.68 492.33 1355.2 489.81C1354.82 487.8 1357.96 486.82 1372 484.58C1389.05 481.87 1399.9 476.87 1402.56 470.51C1404.97 464.75 1405.98 450.88 1407.12 408C1408.42 359.2 1407.63 190.25 1406.04 176.62C1405.47 171.73 1404.48 165.99 1403.84 163.86C1400.56 152.92 1386.26 145.01 1369.7 144.99C1359.69 144.98 1355 142.47 1355 137.1C1355 134.16 1357.36 133.29 1368.53 132.13C1391.44 129.75 1494.73 130.28 1506.85 132.85C1512.11 133.96 1514.44 136.03 1513.56 138.8C1512.36 142.58 1508.26 144.18 1497.54 145.04C1476.02 146.76 1466.41 153.56 1462.92 169.5C1462.23 172.66 1461.63 197.28 1461.3 236.24C1460.83 292.2 1460.93 298.04 1462.38 298.59C1463.26 298.93 1501 298.82 1546.24 298.35L1628.5 297.5L1628.41 237.5C1628.32 185.71 1628.08 176.47 1626.66 170C1623.09 153.73 1613.23 146.78 1591.19 144.99C1585.86 144.55 1580.7 143.87 1579.72 143.48C1576.44 142.16 1574.66 135.95 1577.12 134.43C1580.25 132.49 1588.4 131.84 1620 131C1655.63 130.06 1719.66 131.16 1727.85 132.86C1733.12 133.96 1735.14 135.76 1734.37 138.71C1733.33 142.65 1729.44 144.17 1717.96 145.09C1704.58 146.17 1697.17 148.77 1691.57 154.38C1686.92 159.04 1685.32 163.37 1683.83 175.39C1683.22 180.29 1682.62 239.41 1682.31 324.65L1681.8 465.8L1689.65 472C1701.74 481.54 1708.34 484.34 1722.7 485.97C1735.02 487.37 1737.82 490.86 1728.37 493.05C1720.03 494.99 1675.95 496.25 1637.5 495.65C1598.96 495.05 1581.71 493.98 1577.94 491.97C1573.2 489.43 1577.45 487.01 1588.6 485.88C1599 484.83 1606.05 482.17 1613 476.69C1619.23 471.78 1623.5 466.1 1625.7 459.8C1628.1 452.96 1628.9 432.28 1628.95 375.75L1629 323L1544.88 323L1460.77 323L1461.3 382.25C1461.84 442.72 1462.33 451.01 1466.04 463.33C1469.15 473.61 1473.93 478.33 1484.39 481.42C1488.85 482.75 1496.5 484.56 1501.39 485.46C1511.92 487.38 1514.62 488.55 1513.03 490.46C1509.31 494.95 1438.38 497.38 1385.5 494.83Z" fill="#1e2749" fill-rule="evenodd"/>
</svg>
