<?xml version="1.0" encoding="UTF-8"?>
<svg xmlns="http://www.w3.org/2000/svg" viewBox="0 0 2430 1984" width="2430" height="1984" shape-rendering="geometricPrecision">
<path d="M644.5 1895.48C637.06 1891.75 632.43 1882.49 631.31 1869.13C630.33 1857.41 633.94 1842.88 639.25 1837.23C640.44 1835.97 643.84 1834.23 646.81 1833.37C651.3 1832.06 652.94 1832 656.56 1833.02C662.88 1834.79 668.49 1840.01 670.85 1846.33C675.27 1858.15 674.44 1876.97 669.08 1886.5C664.22 1895.15 652.42 1899.46 644.5 1895.48ZM658.79 1886.76C663.79 1882.61 666.19 1868.91 664.11 1856.42C662.3 1845.56 660.46 1842.2 655.6 1840.88C652.06 1839.92 651.02 1840.03 648 1841.73C642.2 1844.99 640.74 1849.31 640.68 1863.36C640.63 1876.98 641.81 1882.54 645.58 1886.31C649.35 1890.08 654.58 1890.26 658.79 1886.76ZM2318.55 1887.75C2316.93 1880.19 2307.81 1815.45 2307.67 1810.5L2307.5 1804.5L2311.82 1804.19C2319.52 1803.64 2319.29 1802.9 2324.56 1844.98C2326.52 1860.64 2328.27 1873.6 2328.45 1873.79C2329.01 1874.34 2335.13 1863.71 2350.48 1835.5C2358.56 1820.65 2366.11 1807.49 2367.26 1806.25C2368.85 1804.54 2370.46 1804 2374.01 1804C2376.57 1804 2378.97 1804.3 2379.33 1804.66C2380.19 1805.52 2376.69 1811.95 2352.09 1854.75L2331.83 1890L2325.43 1890C2319.61 1890 2318.99 1889.8 2318.55 1887.75ZM581.75 1865.31C580.79 1865.06 580 1864.36 580 1863.75C580 1863.14 577.52 1845.96 574.49 1825.57C571.45 1805.18 568.7 1786.59 568.37 1784.25L567.77 1780L573.44 1780C578.88 1780 579.15 1780.12 580.45 1783.25C581.2 1785.04 583.44 1799.78 585.44 1816C587.44 1832.22 589.43 1846.38 589.87 1847.45C590.73 1849.58 594.51 1843.27 614.98 1805.5C628.9 1779.82 628.75 1780 635.55 1780C638.94 1780 641 1780.43 641 1781.13C641 1781.75 637.78 1787.94 633.83 1794.88C610.54 1835.9 595.45 1861.78 593.68 1863.75C591.7 1865.95 586.7 1866.6 581.75 1865.31ZM2302.37 1767.68C2302.7 1766.37 2305.92 1760 2309.54 1753.54C2313.16 1747.07 2315.94 1741.61 2315.73 1741.4C2314.45 1740.12 2116.65 1739.7 1257 1739.13L299.5 1738.5L298.84 925.18C298.48 477.85 297.91 110.77 297.57 109.43C297.24 108.09 296.52 107 295.97 107C295.43 107 289.83 109.93 283.54 113.5C277.24 117.08 271.56 120 270.92 120C268.99 120 270.37 115.64 279.78 91.92C295.35 52.67 302.29 36.91 303.88 37.22C305.45 37.52 312.7 54.04 327.48 91C338.25 117.92 338.9 120 336.65 120C335.78 120 329.82 117.06 323.38 113.46C315.38 108.98 311.36 107.24 310.66 107.94C309.98 108.62 309.61 130.52 309.57 172.73L309.5 236.5L321.5 237L333.5 237.5L333.81 241.32C334.32 247.48 333.28 248 320.38 248L309 248L309.25 859.25L309.5 1470.5L320.85 1471.1C328.95 1471.53 332.45 1472.11 333.08 1473.1C334.31 1475.03 334.22 1476.32 332.72 1478.37C331.69 1479.78 329.3 1480.23 320.22 1480.71L309 1481.3L309 1605.54C309 1717.91 309.15 1729.84 310.58 1730.39C311.45 1730.73 378.22 1731 458.96 1731C583.23 1731 605.93 1730.79 606.91 1729.61C607.78 1728.56 608 1697.31 607.78 1605.69L607.5 1483.16L605.25 1480.77C604.01 1479.45 603 1477.14 603 1475.65C603 1474.15 604.01 1471.55 605.25 1469.88L607.5 1466.83L607.78 1199.42C608.04 958.47 607.91 932 606.52 932C605.66 932 599.47 935.14 592.76 938.98C586.05 942.81 580.19 945.59 579.75 945.15C578.82 944.22 580.65 939.1 594.16 905C599.72 890.98 605.1 877.3 606.13 874.62C607.94 869.89 608 860.53 607.93 573.62C607.88 410.75 607.54 271.13 607.16 263.33C606.59 251.76 606.14 248.81 604.67 247.18C603.43 245.82 602.97 243.99 603.18 241.35C603.48 237.7 603.69 237.48 607.19 237.19C609.83 236.97 611.45 237.45 612.87 238.87C613.96 239.96 615.73 241.32 616.8 241.89C617.88 242.47 623.1 251.53 628.51 262.22C721.8 446.45 856.5 639.73 1007.47 806C1032.53 833.59 1052.8 854.7 1091.5 893.5C1130.87 932.97 1159.23 959.3 1161.82 958.8C1162.96 958.58 1164.38 954.44 1166.95 943.82C1168.91 935.75 1170.81 928.86 1171.17 928.49C1171.53 928.13 1179.82 943.96 1189.58 963.67L1207.32 999.5L1217 1009C1222.32 1014.23 1227.98 1019.54 1229.59 1020.81C1231.19 1022.08 1242.62 1031.27 1255 1041.22C1300.58 1077.9 1372.82 1130.11 1424.32 1163.6C1635.61 1301.01 1865.94 1401.82 2115.32 1466.03C2125.67 1468.69 2134.79 1471.41 2135.57 1472.06C2137.31 1473.5 2137.45 1478.15 2135.8 1479.8C2134.87 1480.73 2048.62 1481 1753.69 1481C1420.92 1481 1372.86 1481.18 1373.34 1482.45C1373.65 1483.25 1377.27 1489.77 1381.39 1496.93C1385.5 1504.1 1388.49 1510.2 1388.01 1510.49C1387.54 1510.78 1370.6 1504.27 1350.36 1496.01L1313.56 1481L1052.78 1481C859.27 1481 792 1481.29 792 1482.13C792 1482.76 794.99 1488.63 798.65 1495.19C803.52 1503.93 804.99 1507.41 804.18 1508.22C802.92 1509.48 793.34 1506.05 761 1492.77C734.38 1481.85 723 1476.43 723 1474.69C723 1473.75 730.25 1470.24 743.75 1464.66C776.58 1451.08 803.07 1440.86 804.61 1441.2C805.62 1441.41 804.05 1445.12 799.01 1454.35C795.16 1461.42 792 1468.07 792 1469.14C792 1471.04 793.76 1471.07 900.95 1470.79C977.08 1470.59 1010.23 1470.18 1010.98 1469.42C1011.75 1468.65 1010.23 1465.37 1005.68 1457.92C971.76 1402.49 965.09 1390.73 945.04 1350.97C915.18 1291.75 885.48 1222.79 856.98 1146.5C852.46 1134.4 848.29 1123.6 847.71 1122.5C847.13 1121.4 842.73 1109.03 837.94 1095C833.15 1080.97 822.92 1051.05 815.22 1028.5C807.52 1005.95 800.62 986.15 799.89 984.5C798.13 980.51 791.58 971.72 771.58 946.5C753.04 923.12 749.45 918.22 750.26 917.41C750.56 917.1 757.04 918.22 764.64 919.89C773.5 921.83 778.82 922.58 779.44 921.96C780.5 920.9 776.78 907.11 768.96 883C766.37 875.02 763.93 866.92 763.53 865C763.13 863.08 759.28 849.12 754.97 834C713.49 688.41 671.18 521.62 631.44 347C626.25 324.18 621.76 304.49 621.48 303.25C621.19 302.01 620.51 301 619.96 301C619.3 301 619.06 397.16 619.24 586.75L619.51 872.5L623.13 881.5C625.12 886.45 630.19 898.94 634.4 909.26C644.5 934 648.13 943.97 647.45 945.08C646.84 946.06 640.85 943.24 628.7 936.25C624.41 933.79 620.63 932.03 620.31 932.36C619.98 932.69 619.67 1112.4 619.61 1331.73L619.5 1730.5L899.5 1730.75C1411.17 1731.19 2313.76 1729.64 2315.09 1728.31C2316 1727.4 2314.61 1724.13 2309.01 1714.02C2305.02 1706.81 2302.02 1700.64 2302.35 1700.31C2303.08 1699.59 2304.62 1700.16 2341 1714.56C2385.18 1732.04 2387.26 1732.98 2385.86 1734.67C2385.2 1735.47 2383.05 1736.81 2381.08 1737.65C2363.07 1745.38 2324.33 1761.26 2307.13 1767.97L2301.77 1770.06L2302.37 1767.68ZM516 1564.94L516 1521.85L546.75 1522.56C563.66 1522.94 577.63 1523.37 577.8 1523.51C577.96 1523.65 578.19 1525.73 578.3 1528.13L578.5 1532.5L553.22 1532.77L527.94 1533.03L528.22 1545.77L528.5 1558.5L551 1559L573.5 1559.5L573.81 1563.32C574.36 1569.98 574.3 1570 549.88 1570L528 1570L528 1583.48L528 1596.97L553.25 1597.23L578.5 1597.5L578.5 1602.5L578.5 1607.5L547.25 1607.76L516 1608.03L516 1564.94ZM999 1551.05L999 1508L1004.98 1508L1010.95 1508L1011.23 1525.25L1011.5 1542.5L1031.87 1542.77C1045.44 1542.95 1052.68 1542.68 1053.55 1541.96C1054.5 1541.17 1054.95 1536.62 1055.18 1525.52C1055.36 1517.07 1055.73 1509.93 1056.02 1509.65C1056.3 1509.36 1058.9 1508.82 1061.78 1508.43L1067.02 1507.74L1066.76 1550.62L1066.5 1593.5L1060.77 1593.8L1055.04 1594.1L1054.77 1574.3L1054.5 1554.5L1032.77 1554.23L1011.04 1553.96L1010.77 1573.73L1010.5 1593.5L1004.75 1593.8L999 1594.1L999 1551.05ZM240.31 1533.11C231.06 1528.79 226.45 1517.06 227.24 1499.86C228.03 1482.5 232.63 1473.52 242.02 1470.99C251.53 1468.43 262.74 1474.03 266.52 1483.23C268.75 1488.62 269.64 1506.22 268.11 1514.5C265.39 1529.16 251.62 1538.39 240.31 1533.11ZM253.85 1524.47C258.97 1520.16 260.31 1514.86 259.81 1500.79C259.47 1491.13 258.93 1487.5 257.28 1483.82C255.33 1479.48 254.86 1479.1 250.63 1478.47C245.02 1477.63 239.95 1480.33 237.87 1485.26C235.69 1490.42 236.01 1513.22 238.34 1519.26C241.3 1526.93 248.18 1529.24 253.85 1524.47ZM2198.42 1519.24C2186.53 1514.98 2177.89 1505.03 2173.9 1491C2171.76 1483.48 2172.3 1466.61 2174.92 1459.05C2179.37 1446.2 2186.63 1438.36 2198.41 1433.66C2205.69 1430.75 2219.45 1430.82 2227 1433.81C2234.4 1436.74 2241.74 1442.51 2245.16 1448.08C2248.88 1454.16 2249.15 1457.04 2246.16 1458.58C2242.44 1460.48 2239.06 1458.85 2234.59 1453.01C2228.65 1445.23 2222.9 1442.49 2212.53 1442.52C2203.3 1442.54 2198.36 1444.55 2193.26 1450.36C2187.62 1456.78 2185.59 1463.93 2185.54 1477.52C2185.5 1489.12 2185.61 1489.78 2188.77 1496.19C2192.37 1503.5 2197.83 1508.07 2205.44 1510.12C2210.55 1511.51 2219.69 1510.73 2223.89 1508.56C2231.07 1504.85 2238.27 1494.89 2239.15 1487.48L2239.5 1484.5L2228.62 1483.83C2213.55 1482.89 2213 1482.71 2213 1478.55C2213 1476.16 2213.53 1474.98 2214.75 1474.62C2215.71 1474.34 2224.27 1473.8 2233.77 1473.41L2251.04 1472.72L2250.77 1495.61L2250.5 1518.5L2246.56 1518.5C2242.96 1518.5 2242.56 1518.22 2241.78 1515.25C2240.75 1511.24 2238.03 1510.96 2232.98 1514.32C2223.68 1520.53 2208.17 1522.74 2198.42 1519.24ZM154.97 1502.25C154.95 1501.84 158.85 1482.75 163.64 1459.84L172.35 1418.19L177.71 1417.52C180.66 1417.15 191.84 1417.17 202.55 1417.57L222.02 1418.28L225.61 1422.25C230.2 1427.34 232 1431.71 232 1437.81C232 1444.46 227.32 1453.63 221.04 1459.28C213.93 1465.67 208.55 1467.13 189.84 1467.74C174.9 1468.23 174.16 1468.36 173.73 1470.38C173.48 1471.55 172.04 1478.35 170.53 1485.5C167.06 1502 166.45 1503 159.98 1503C157.24 1503 154.98 1502.66 154.97 1502.25ZM368.25 1480.33C364.77 1479.97 363.9 1479.45 363.4 1477.44C362.05 1472.08 364.79 1470.92 378.38 1471.12C390.01 1471.29 392.44 1471.95 392.8 1475.09C392.97 1476.51 392.47 1478.2 391.7 1478.84C390.18 1480.1 375.13 1481.06 368.25 1480.33ZM427.5 1480.17C423.76 1479.54 423.48 1479.26 423.19 1475.83L422.89 1472.16L428.61 1471.44C436.4 1470.47 451.11 1471.58 452.15 1473.21C453.3 1475.02 453.19 1476.36 451.75 1478.29C450.78 1479.57 448.34 1480.06 441 1480.4C435.77 1480.65 429.7 1480.54 427.5 1480.17ZM485.69 1479.3C483.45 1478.72 481.51 1474.09 482.91 1472.69C484.25 1471.35 502.52 1470.63 507.5 1471.71C510.57 1472.38 511.58 1473.11 511.83 1474.85C512.47 1479.31 510.63 1480.01 498.63 1479.88C492.51 1479.82 486.69 1479.56 485.69 1479.3ZM546.5 1479.34C543.37 1478.47 542 1476.96 542 1474.38L542 1472L554.75 1472.01C561.76 1472.02 568.48 1472.29 569.68 1472.61C572.47 1473.36 573.22 1475.32 571.57 1477.57C570.5 1479.04 568.44 1479.39 559.39 1479.61C553.4 1479.76 547.6 1479.64 546.5 1479.34ZM1328 1464.17C1353.24 1453.15 1384.27 1440.89 1386.16 1441.2C1387.71 1441.46 1386.94 1443.36 1381 1454C1377.16 1460.88 1374.01 1467.28 1374.01 1468.23C1374 1469.2 1374.99 1470.21 1376.25 1470.52C1377.49 1470.83 1536.99 1470.95 1730.7 1470.79C1994.45 1470.57 2083.19 1470.21 2084.05 1469.35C2084.92 1468.48 2083.88 1467.83 2079.85 1466.7C2076.91 1465.87 2066.18 1462.86 2056 1460.01C2018.76 1449.57 1950.05 1427.58 1904.5 1411.52C1745.85 1355.58 1583.71 1276.39 1437 1183.18C1404.98 1162.84 1335.35 1115.78 1323.33 1106.37C1319.02 1102.99 1308.08 1094.7 1299 1087.94C1289.92 1081.18 1272.15 1067.54 1259.5 1057.64C1246.85 1047.74 1234.81 1038.33 1232.74 1036.73C1230.67 1035.13 1224.15 1029.59 1218.24 1024.43C1207.93 1015.41 1204.93 1013.55 1187.89 1005.63C1180.19 1002.05 1137.2 986 1135.3 986C1132.84 986 1124 981.61 1124 980.4C1124 979.6 1126.92 978.21 1131.25 976.94C1145.39 972.81 1150.86 970.87 1151.9 969.62C1152.7 968.65 1139.61 954.97 1097.65 912.92C1031.71 846.84 1003.07 816.56 962.47 770C843.11 633.14 725.6 464.5 644.04 313C636.19 298.43 629.6 286.31 629.38 286.08C627.59 284.14 628.79 291.13 634.98 318.67C682.13 528.64 735.38 737.55 775.88 871.5C777.55 877 781.43 890.04 784.52 900.48C787.6 910.92 790.3 919.64 790.52 919.85C790.73 920.06 795.67 915.8 801.5 910.38C813.2 899.51 814.76 898.36 816.1 899.7C816.64 900.24 815.82 912.62 814.05 930.55C809.6 975.67 809.61 975.58 811.39 983.5C814.17 995.87 847.82 1096.64 851.79 1104.49C852.62 1106.14 855.47 1113.88 858.13 1121.68C864.48 1140.36 883.59 1190 894.82 1217C935.3 1314.31 978.29 1399.35 1013.86 1452.5C1019.01 1460.2 1024.16 1467.52 1025.3 1468.76L1027.37 1471.03L1170.44 1470.76L1313.5 1470.5L1328 1464.17ZM208.03 1454.34C219.56 1449.16 223.48 1434.91 214.64 1430.3C211.12 1428.47 194.09 1427.31 186.77 1428.41L182.37 1429.07L179.59 1441.56C178.06 1448.43 177.08 1454.76 177.42 1455.64C178.38 1458.15 201.79 1457.15 208.03 1454.34ZM247.75 329.93C240.15 325.92 235.66 314.56 235.7 299.48C235.74 284.77 240.22 273 247.15 269.42C249.43 268.24 252.16 267.9 257.01 268.17C266.03 268.68 270.76 271.77 274.65 279.7C277.32 285.14 277.5 286.28 277.5 298C277.5 312.78 276.17 318.27 271.19 324.09C264.76 331.61 255.36 333.95 247.75 329.93ZM263.5 320.7C267.65 316.55 268.99 311.74 268.98 301C268.97 291.72 267.19 282.46 264.68 278.63C262.32 275.04 256.05 274.19 251.7 276.88C246.12 280.32 245.5 282.58 245.5 299.41C245.5 311.87 245.81 315.06 247.25 317.69C251.17 324.87 258.06 326.14 263.5 320.7ZM45.15 301.94C33.79 299.66 25 289.37 25 278.37C25 275.65 25.46 274.92 27.5 274.41C32.65 273.12 34.5 274.5 36.57 281.2C38.74 288.24 42.14 291.34 48.91 292.48C60.17 294.39 72.64 283.74 70.51 274.04C69.02 267.24 63.5 263.33 53.98 262.34C47.32 261.64 45.33 259.82 46.43 255.41C46.93 253.41 47.67 253 50.7 253C58.96 253 67 246.13 67 239.08C67 231.1 60.64 226.34 51.26 227.31C44.14 228.05 41.3 230.07 38.51 236.37C35.73 242.68 34 244.25 30.31 243.82C27.76 243.53 27.47 243.09 27.18 239.07C26.2 225.29 37.72 216.21 54.91 217.2C69.29 218.03 79.03 226.22 78.98 237.45C78.95 243.03 76.44 249.47 73.14 252.4C70.18 255.04 70.45 256.48 74.45 259.53C84.66 267.32 84.38 286.61 73.94 295.4C67.77 300.59 53.99 303.72 45.15 301.94ZM97.33 300.27C90.4 299.78 89.34 298.38 90.86 291.79C92.36 285.29 96.8 277.53 101.69 272.86C103.78 270.86 109.75 266.61 114.95 263.43C131.7 253.15 137.21 246.2 135.03 238.1C133.02 230.63 124.83 225.95 116.22 227.35C110.78 228.24 107.89 230.88 104 238.58C99.85 246.78 95.85 249.8 93.44 246.56C88.5 239.92 96.91 223.62 107.77 218.79C112.91 216.5 123.49 216.17 130 218.1C135.89 219.84 144.1 227.92 145.78 233.62C148.56 243.02 146.4 251.54 139.46 258.47C137.39 260.55 130.02 265.94 123.09 270.45C109.5 279.3 102.55 285.16 103.23 287.21C103.84 289.04 111.16 289.81 128.82 289.91C137.28 289.96 145 290.46 146.07 291.04C148.28 292.22 148.75 297.85 146.8 299.8C145.93 300.67 139.69 300.95 124.05 300.82C112.2 300.71 100.17 300.47 97.33 300.27ZM166.25 300.31C165.01 300.06 164 299.16 164 298.29C164 297.43 167.82 278.56 172.5 256.35C177.18 234.15 181 215.76 181 215.49C181 215.22 192.22 215 205.93 215L230.87 215L234.41 219.33C241.36 227.81 242.48 233.97 238.84 243.71C235.98 251.34 227.54 259.94 220.5 262.38C216.44 263.79 196.56 265.79 184.79 265.97C182.85 266 182.31 267.69 178.56 285.44C177.18 292.01 175.47 297.94 174.77 298.63C173.22 300.14 169.28 300.92 166.25 300.31ZM213.87 252.45C219.7 250.71 225.18 246.4 226.94 242.14C227.59 240.57 227.99 237.32 227.81 234.92C227.55 231.29 226.96 230.2 224.23 228.37C220.23 225.69 206.9 224.31 197.65 225.62L191.5 226.5L188.83 237C185.38 250.59 185.28 253.7 188.25 254.36C192.24 255.24 208.55 254.03 213.87 252.45ZM364.75 246.94C363.76 246.35 363.01 244.72 363.02 243.2C363.05 237.81 363.78 237.53 379.02 237.15L393.11 236.81L392.81 242.15L392.5 247.5L379.5 247.74C371.89 247.87 365.77 247.54 364.75 246.94ZM425.7 246.83C423.24 245.93 422.93 245.35 423.2 242.21C423.46 239.09 423.93 238.5 426.77 237.78C428.56 237.31 435.09 237.06 441.27 237.22L452.5 237.5L452.5 242.5L452.5 247.5L440.5 247.69C433.9 247.79 427.24 247.41 425.7 246.83ZM486.09 247.14C482.94 246.24 481.56 243.91 482.34 240.79C483.13 237.65 486.26 237.03 501.3 237.01L512.1 237L511.8 242.25L511.5 247.5L500 247.67C493.68 247.76 487.42 247.52 486.09 247.14ZM545.19 246.93C542.14 245.99 541.91 245.63 542.19 242.24C542.47 238.95 542.86 238.49 546 237.81C550.2 236.89 568.78 237.89 571.25 239.17C573.5 240.33 573.49 243.25 571.22 245.3C569.01 247.3 550.21 248.48 545.19 246.93ZM600.67 202.33C600.3 201.97 600 182.39 600 158.83L600 116L629.55 116L659.1 116L658.8 121.25L658.5 126.5L635.22 126.77L611.94 127.04L612.22 139.77L612.5 152.5L632.8 153.38L653.1 154.27L652.8 158.38L652.5 162.5L643.5 163.14C638.55 163.5 629.44 163.84 623.25 163.89L612 164L612 182.3C612 195.2 611.65 200.95 610.8 201.8C609.54 203.06 601.81 203.47 600.67 202.33ZM180 129.75C179.99 127.92 195.32 52.6 196.58 48.25C196.85 47.29 202.73 47 221.58 47L246.23 47L249.7 50.75C254.85 56.32 256.4 59.84 256.41 66C256.44 76.08 249.63 87.18 240.32 92.22C233.86 95.72 226.08 97 211.35 97L199.08 97L198.07 100.75C197.52 102.81 195.9 109.89 194.48 116.48C193.06 123.07 191.17 129.26 190.29 130.23C189.23 131.41 187.23 132 184.35 132C180.51 132 180 131.74 180 129.75ZM221.94 85.95C231.36 84.77 233.1 84.08 237.84 79.63C242.09 75.63 244 71.97 244 67.77C244 59.85 238.83 57.56 220.83 57.53C213.87 57.51 207.87 57.8 207.5 58.17C206.6 59.07 202.08 79.77 202.04 83.19C202.01 85.48 202.48 85.93 205.25 86.28C211.4 87.04 213.58 87 221.94 85.95Z" fill="#1e2749" fill-rule="evenodd"/>
</svg>
