<?xml version="1.0" encoding="UTF-8"?>
<!-- Generator: visioncortex VTracer 0.6.12 -->
<svg version="1.1" xmlns="http://www.w3.org/2000/svg" width="500" height="140">
<path d="M0 0 C165 0 330 0 500 0 C500 46.2 500 92.4 500 140 C335 140 170 140 0 140 C0 93.8 0 47.6 0 0 Z " fill="#FEFEFE" transform="translate(0,0)"/>
<path d="M0 0 C2.82 1.35 5.53 2.88 8.25 4.44 C8.64 4.66 8.64 4.66 10.63 5.78 C16.12 8.89 21.57 12.06 27 15.25 C27.35 15.46 27.35 15.46 29.14 16.5 C32.16 18.29 35.15 20.1 38.11 22 C38.98 22.55 39.85 23.11 40.75 23.69 C41.47 24.17 42.18 24.64 42.92 25.14 C45.76 26.32 47.09 25.97 50 25 C52.06 23.86 54.08 22.65 56.06 21.38 C57.21 20.65 58.35 19.93 59.5 19.21 C59.79 19.03 59.79 19.03 61.25 18.1 C64.02 16.36 66.82 14.67 69.62 13 C70.59 12.42 71.55 11.84 72.54 11.25 C75 10 75 10 78 10 C77.93 11.73 77.93 11.73 77 14 C74.75 15.61 72.59 16.97 70.19 18.31 C69.58 18.67 68.97 19.02 68.34 19.38 C67.7 19.75 67.07 20.11 66.42 20.49 C65.78 20.87 65.14 21.25 64.48 21.64 C62 23 62 23 58.97 24.32 C55.57 25.94 52.83 27.5 50 30 C48.45 34.39 48.8 38.45 49.14 43.05 C49.2 45.63 49.26 48.21 49.32 50.79 C49.45 54.16 49.62 57.53 49.79 60.9 C51.04 84.85 51.04 84.85 47.68 90.03 C44.28 93.24 40.35 94.84 35.96 96.3 C33.08 97.33 30.57 98.87 27.96 100.44 C26.1 101.48 24.24 102.52 22.38 103.56 C14.89 107.74 7.55 112.04 0.43 116.8 C-2 118 -2 118 -3.87 117.73 C-6.29 116.9 -8.35 115.82 -10.58 114.55 C-11.48 114.04 -12.38 113.53 -13.31 113 C-14.28 112.44 -15.25 111.89 -16.25 111.31 C-17.25 110.74 -18.26 110.17 -19.29 109.58 C-49.66 92.23 -49.66 92.23 -56 88 C-56.36 85.48 -56.36 85.48 -56.34 82.27 C-56.34 81.06 -56.34 79.86 -56.34 78.63 C-56.32 77.32 -56.31 76.02 -56.29 74.68 C-56.29 73.34 -56.28 71.99 -56.28 70.65 C-56.27 67.12 -56.24 63.58 -56.21 60.05 C-56.18 56.44 -56.16 52.84 -56.15 49.23 C-56.11 42.15 -56.06 35.08 -56 28 C-55.11 27.49 -54.21 26.98 -53.29 26.46 C-47.79 23.33 -42.29 20.2 -36.87 16.92 C-31.35 13.59 -25.74 10.42 -20.12 7.25 C-19.11 6.67 -18.09 6.1 -17.04 5.5 C-4.62 -1.51 -4.62 -1.51 0 0 Z " fill="#FBFCFC" transform="translate(325,15)"/>
<path d="M0 0 C3.69 1 3.69 1 6 2 C6 3.98 6 5.96 6 8 C4.35 7.67 2.7 7.34 1 7 C1 6.34 1 5.68 1 5 C-0.63 5.14 -2.25 5.29 -3.88 5.44 C-4.78 5.52 -5.68 5.6 -6.62 5.68 C-9 6 -9 6 -11 7 C-11.41 9.07 -11.41 9.07 -11.62 11.56 C-11.7 12.39 -11.77 13.22 -11.85 14.07 C-11.88 14.39 -11.88 14.39 -12 16 C-11.01 16 -10.02 16 -9 16 C-9 16.66 -9 17.32 -9 18 C-8.34 18.13 -7.67 18.27 -6.99 18.4 C-4.33 18.93 -1.66 19.47 1 20 C1.93 20.19 2.87 20.37 3.83 20.57 C4.55 20.71 5.26 20.85 6 21 C6 20.34 6 19.68 6 19 C4.35 18.67 2.7 18.34 1 18 C1 17.34 1 16.68 1 16 C3.97 16 6.94 16 10 16 C10 16.99 10 17.98 10 19 C11.65 18.67 13.3 18.34 15 18 C15 12.06 15 6.12 15 0 C17.31 0 19.62 0 22 0 C23 1 23 1 23.06 4.56 C23.04 6.8 23 9.04 22.96 11.27 C22.94 13.18 22.97 15.09 23 17 C23.33 17.33 23.66 17.66 24 18 C24.09 19.34 24.11 20.69 24.1 22.04 C24.09 22.84 24.09 23.65 24.09 24.49 C24.08 25.34 24.07 26.19 24.06 27.06 C24.06 27.92 24.05 28.77 24.05 29.65 C24.04 31.77 24.02 33.88 24 36 C21.71 36.19 19.42 36.38 17.12 36.56 C16.49 36.61 16.49 36.61 13.26 36.88 C10 37 10 37 8 36 C8.08 36.89 8.16 37.77 8.25 38.69 C7.94 42.84 6.99 44.14 4 47 C0.75 47.52 0.75 47.52 -3 47.38 C-3.66 47.36 -4.31 47.34 -4.99 47.31 C-11 47.1 -17.01 46.62 -23 46 C-24.2 40.36 -24.11 34.85 -24.06 29.12 C-24.06 28.15 -24.05 27.18 -24.05 26.17 C-24.04 23.78 -24.02 21.39 -24 19 C-24.66 19 -25.32 19 -26 19 C-26 27.58 -26 36.16 -26 45 C-27.98 45 -29.96 45 -32 45 C-32.01 44.7 -32.01 44.7 -32.06 43.17 C-32.16 40.4 -32.27 37.64 -32.38 34.88 C-32.41 33.92 -32.44 32.97 -32.47 31.99 C-32.68 26.98 -33.06 22.7 -35 18 C-37.94 18.38 -37.94 18.38 -41 19 C-41.33 19.66 -41.66 20.32 -42 21 C-43.65 21.33 -45.3 21.66 -47 22 C-47 29.59 -47 37.18 -47 45 C-48.65 45 -50.3 45 -52 45 C-52 43.35 -52 41.7 -52 40 C-52.5 39.84 -52.5 39.84 -55 39 C-55 36.36 -55 33.72 -55 31 C-56.98 31 -58.96 31 -61 31 C-61 33.64 -61 36.28 -61 39 C-62.32 39 -63.64 39 -65 39 C-65.66 41.31 -66.32 43.62 -67 46 C-70.95 46.18 -73.6 46.09 -77 44 C-77 43.34 -77 42.68 -77 42 C-77.66 42 -78.32 42 -79 42 C-79 43.98 -79 45.96 -79 48 C-80.44 48.05 -81.87 48.09 -83.31 48.12 C-84.11 48.15 -84.91 48.17 -85.74 48.2 C-88 48 -88 48 -91 46 C-90.01 45.67 -89.02 45.34 -88 45 C-88 44.01 -88 43.02 -88 42 C-88.66 42 -89.32 42 -90 42 C-90 42.66 -90 43.32 -90 44 C-94.5 46.25 -98.08 46.17 -103 46 C-103 45.34 -103 44.68 -103 44 C-104.32 43.34 -105.64 42.68 -107 42 C-107 41.01 -107 40.02 -107 39 C-107.66 39 -108.32 39 -109 39 C-109.33 34.71 -109.66 30.42 -110 26 C-111.65 26.33 -113.3 26.66 -115 27 C-115.99 26.67 -116.98 26.34 -118 26 C-118 29.3 -118 32.6 -118 36 C-116.84 35.84 -116.84 35.84 -111 35 C-111 35.99 -111 36.98 -111 38 C-117.62 39.12 -117.62 39.12 -121 38 C-123 34.32 -123.52 31.15 -123 27 C-121.44 24.12 -121.44 24.12 -119 22 C-115.44 21.69 -115.44 21.69 -112 22 C-111.01 22 -110.02 22 -109 22 C-107.68 22 -106.36 22 -105 22 C-105 24.31 -105 26.62 -105 29 C-102.69 29 -100.38 29 -98 29 C-98 26.69 -98 24.38 -98 22 C-96.68 22.33 -95.36 22.66 -94 23 C-94 23.99 -94 24.98 -94 26 C-92.35 26 -90.7 26 -89 26 C-89.66 23.36 -90.32 20.72 -91 18 C-97.07 16.92 -101.1 17.21 -107 19 C-107 17.35 -107 15.7 -107 14 C-101 11.87 -95.35 11.55 -89 12 C-88.34 12.33 -87.68 12.66 -87 13 C-87 13.99 -87 14.98 -87 16 C-86.34 16 -85.68 16 -85 16 C-84.34 18.97 -83.68 21.94 -83 25 C-82.28 24.34 -81.56 23.68 -80.81 23 C-77.78 20.85 -76.6 20.59 -73 21 C-73 18.36 -73 15.72 -73 13 C-70.62 12.81 -70.62 12.81 -68 13 C-67.34 13.99 -66.68 14.98 -66 16 C-65.67 15.53 -65.34 15.05 -65 14.56 C-61.97 12.2 -58.74 11.87 -55 12 C-51.64 13.31 -49.54 14.46 -47 17 C-46.67 16.6 -46.67 16.6 -44.97 14.55 C-41.28 11.38 -39.25 11.29 -34.44 11.12 C-33.14 11.07 -31.84 11.01 -30.5 10.95 C-27 11 -27 11 -23 12 C-22.67 13.32 -22.67 13.32 -21 20 C-20.34 20 -19.68 20 -19 20 C-18.97 19.2 -18.95 18.41 -18.92 17.59 C-18.58 11.2 -18.33 6.84 -14 2 C-9.54 -0.97 -5.23 -0.39 0 0 Z " fill="#F8FCFD" transform="translate(215,40)"/>
<path d="M0 0 C0.17 0.5 0.17 0.5 1 3 C1.99 3.33 2.98 3.66 4 4 C3.67 4.66 3.34 5.32 3 6 C3.99 6 4.98 6 6 6 C6.33 5.34 6.66 4.68 7 4 C7.17 4.16 7.17 4.16 8 5 C8.59 5.04 8.59 5.04 11.55 5.26 C16.59 5.83 20 8.07 24.12 10.88 C25.48 11.77 26.84 12.66 28.2 13.55 C28.84 13.98 29.47 14.4 30.13 14.83 C32.66 16.42 35.3 17.73 38 19 C37.67 20.32 37.34 21.64 37 23 C35.68 22.67 34.36 22.34 33 22 C32.92 22.93 32.83 23.86 32.75 24.81 C32.17 25.86 31.6 26.92 31 28 C28.37 28.75 28.37 28.75 25.19 29.31 C19.55 30.51 19.55 30.51 17.17 32.62 C12.86 39.51 12.65 48.09 12 56 C10.35 56 8.7 56 7 56 C7 55.34 7 54.68 7 54 C4.03 54 1.06 54 -2 54 C-2.23 56.02 -2.46 58.04 -2.68 60.05 C-3 62 -3 62 -4 64 C-14.89 64 -25.78 64 -37 64 C-33.55 61.7 -32.29 61.76 -28.24 61.8 C-27.68 61.81 -27.68 61.81 -24.85 61.82 C-23.68 61.84 -22.52 61.86 -21.31 61.88 C-20.72 61.88 -20.72 61.88 -17.74 61.9 C-14.83 61.93 -11.91 61.96 -9 62 C-9 60.35 -9 58.7 -9 57 C-9.6 57.01 -10.2 57.01 -10.82 57.02 C-13.53 57.04 -16.23 57.05 -18.94 57.06 C-19.88 57.07 -20.83 57.08 -21.8 57.09 C-22.25 57.09 -22.25 57.09 -24.53 57.1 C-24.94 57.1 -24.94 57.1 -27.05 57.11 C-29 57 -29 57 -30 56 C-30.07 53.3 -30.09 50.63 -30.06 47.94 C-30.04 45.32 -30.02 42.7 -30 40 C-24.39 40 -18.78 40 -13 40 C-13 38.68 -13 37.36 -13 36 C-14.07 36.01 -15.14 36.02 -16.25 36.04 C-17.64 36.04 -19.04 36.05 -20.44 36.06 C-21.14 36.07 -21.85 36.08 -22.58 36.09 C-24.39 36.1 -26.19 36.05 -28 36 C-29 35 -29 35 -29.1 32.06 C-29.07 28.71 -29.03 25.35 -29 22 C-23.06 21.67 -17.12 21.34 -11 21 C-11 19.68 -11 18.36 -11 17 C-12.32 16.34 -13.64 15.68 -15 15 C-14.34 15 -13.68 15 -13 15 C-13 14.34 -13 13.68 -13 13 C-12.34 12.67 -11.68 12.34 -11 12 C-11.33 11.34 -11.66 10.68 -12 10 C-8.48 6.11 -8.48 6.11 -6 5.56 C-2.94 4.7 -1.8 2.51 0 0 Z " fill="#FCFDFD" transform="translate(328,24)"/>
<path d="M0 0 C8.58 0 17.16 0 26 0 C26 2.31 26 4.62 26 7 C19.73 7 13.46 7 7 7 C7 10.96 7 14.92 7 19 C11.29 19 15.58 19 20 19 C20 18.34 20 17.68 20 17 C17.36 17 14.72 17 12 17 C12 14.03 12 11.06 12 8 C17.94 8 23.88 8 30 8 C30.33 8.66 30.66 9.32 31 10 C33.56 10.62 33.56 10.62 36 11 C36 11.66 36 12.32 36 13 C36.66 13 37.32 13 38 13 C42.43 20.43 42.43 20.43 43 24 C43.99 24 44.98 24 46 24 C46.27 23.03 46.54 22.06 46.81 21.06 C47.2 20.05 47.6 19.04 48 18 C48.99 17.67 49.98 17.34 51 17 C51.69 14.94 51.69 14.94 52 13 C53.32 13 54.64 13 56 13 C55.67 15.31 55.34 17.62 55 20 C56.98 20.33 58.96 20.66 61 21 C60.34 21.66 59.68 22.32 59 23 C57.87 22.96 56.73 22.92 55.56 22.88 C52 23 52 23 50.26 24.65 C48.65 27.66 48.87 29.39 49.31 32.75 C49.43 33.73 49.55 34.72 49.68 35.73 C49.78 36.48 49.89 37.23 50 38 C51.65 38.33 53.3 38.66 55 39 C55.66 40.98 56.32 42.96 57 45 C54.24 45.38 54.24 45.38 51 45 C48.88 42.38 48.88 42.38 47.12 39 C46.53 37.89 45.93 36.77 45.32 35.62 C44.88 34.76 44.45 33.89 44 33 C43.34 34.32 42.68 35.64 42 37 C41.34 37 40.68 37 40 37 C40 37.99 40 38.98 40 40 C39.34 40 38.68 40 38 40 C37.34 41.65 36.68 43.3 36 45 C31.25 45.12 31.25 45.12 29 44 C29 43.34 29 42.68 29 42 C28.01 42 27.02 42 26 42 C25.67 43.65 25.34 45.3 25 47 C16.75 47 8.5 47 0 47 C0 31.49 0 15.98 0 0 Z " fill="#FBFDFD" transform="translate(44,40)"/>
<path d="M0 0 C0 0.99 0 1.98 0 3 C0.66 3 1.32 3 2 3 C2.66 5.97 3.32 8.94 4 12 C4.72 11.34 5.44 10.68 6.19 10 C9.22 7.85 10.4 7.59 14 8 C14 5.36 14 2.72 14 0 C16.38 -0.19 16.38 -0.19 19 0 C19.66 0.99 20.32 1.98 21 3 C21.33 2.53 21.66 2.05 22 1.56 C25.03 -0.81 28.2 -1.14 32 -1 C34.5 0.25 34.5 0.25 36 2 C36 2.99 36 3.98 36 5 C37.32 5.33 38.64 5.66 40 6 C40 14.58 40 23.16 40 32 C38.35 32 36.7 32 35 32 C35 30.35 35 28.7 35 27 C34.5 26.84 34.5 26.84 32 26 C32 23.36 32 20.72 32 18 C30.02 18 28.04 18 26 18 C26 20.64 26 23.28 26 26 C24.68 26 23.36 26 22 26 C21.34 28.31 20.68 30.62 20 33 C16.05 33.18 13.4 33.09 10 31 C10 30.34 10 29.68 10 29 C9.34 29 8.68 29 8 29 C8 30.98 8 32.96 8 35 C6.56 35.05 5.13 35.09 3.69 35.12 C2.89 35.15 2.09 35.17 1.26 35.2 C-1 35 -1 35 -4 33 C-3.01 32.67 -2.02 32.34 -1 32 C-1 31.01 -1 30.02 -1 29 C-1.66 29 -2.32 29 -3 29 C-3 29.66 -3 30.32 -3 31 C-7.5 33.25 -11.08 33.17 -16 33 C-16 32.34 -16 31.68 -16 31 C-17.32 30.34 -18.64 29.68 -20 29 C-20 28.01 -20 27.02 -20 26 C-20.66 26 -21.32 26 -22 26 C-22.33 21.71 -22.66 17.42 -23 13 C-24.65 13.33 -26.3 13.66 -28 14 C-28.99 13.67 -29.98 13.34 -31 13 C-31 16.3 -31 19.6 -31 23 C-29.84 22.84 -29.84 22.84 -24 22 C-24 22.99 -24 23.98 -24 25 C-30.62 26.12 -30.62 26.12 -34 25 C-36 21.32 -36.52 18.15 -36 14 C-34.44 11.12 -34.44 11.12 -32 9 C-28.44 8.69 -28.44 8.69 -25 9 C-24.01 9 -23.02 9 -22 9 C-20.68 9 -19.36 9 -18 9 C-18 11.31 -18 13.62 -18 16 C-15.69 16 -13.38 16 -11 16 C-11 13.69 -11 11.38 -11 9 C-9.68 9.33 -8.36 9.66 -7 10 C-7 10.99 -7 11.98 -7 13 C-5.35 13 -3.7 13 -2 13 C-2.66 10.36 -3.32 7.72 -4 5 C-10.07 3.92 -14.1 4.21 -20 6 C-20 4.35 -20 2.7 -20 1 C-14.08 -1.11 -5.87 -2.93 0 0 Z " fill="#F4FAFB" transform="translate(128,53)"/>
<path d="M0 0 C2.82 1.35 5.53 2.88 8.25 4.44 C8.64 4.66 8.64 4.66 10.63 5.78 C16.12 8.89 21.57 12.06 27 15.25 C27.35 15.46 27.35 15.46 29.14 16.5 C32.16 18.29 35.15 20.1 38.11 22 C38.98 22.55 39.85 23.11 40.75 23.69 C41.47 24.17 42.18 24.64 42.92 25.14 C45.76 26.32 47.09 25.97 50 25 C52.06 23.86 54.08 22.65 56.06 21.38 C57.21 20.65 58.35 19.93 59.5 19.21 C59.79 19.03 59.79 19.03 61.25 18.1 C64.02 16.36 66.82 14.67 69.62 13 C70.59 12.42 71.55 11.84 72.54 11.25 C75 10 75 10 78 10 C77.93 11.73 77.93 11.73 77 14 C74.75 15.61 72.59 16.97 70.19 18.31 C69.58 18.67 68.97 19.02 68.34 19.38 C67.7 19.75 67.07 20.11 66.42 20.49 C65.78 20.87 65.14 21.25 64.48 21.64 C62 23 62 23 58.97 24.32 C55.57 25.94 52.83 27.5 50 30 C48.45 34.39 48.8 38.45 49.14 43.05 C49.2 45.63 49.26 48.21 49.32 50.79 C49.45 54.16 49.62 57.53 49.79 60.9 C51.04 84.85 51.04 84.85 47.68 90.03 C44.28 93.24 40.35 94.84 35.96 96.3 C33.08 97.33 30.57 98.87 27.96 100.44 C26.1 101.48 24.24 102.52 22.38 103.56 C14.89 107.74 7.55 112.04 0.43 116.8 C-2 118 -2 118 -3.87 117.73 C-6.29 116.9 -8.35 115.82 -10.58 114.55 C-11.48 114.04 -12.38 113.53 -13.31 113 C-14.28 112.44 -15.25 111.89 -16.25 111.31 C-17.25 110.74 -18.26 110.17 -19.29 109.58 C-49.66 92.23 -49.66 92.23 -56 88 C-56.36 85.48 -56.36 85.48 -56.34 82.27 C-56.34 81.06 -56.34 79.86 -56.34 78.63 C-56.32 77.32 -56.31 76.02 -56.29 74.68 C-56.29 73.34 -56.28 71.99 -56.28 70.65 C-56.27 67.12 -56.24 63.58 -56.21 60.05 C-56.18 56.44 -56.16 52.84 -56.15 49.23 C-56.11 42.15 -56.06 35.08 -56 28 C-55.11 27.49 -54.21 26.98 -53.29 26.46 C-47.79 23.33 -42.29 20.2 -36.87 16.92 C-31.35 13.59 -25.74 10.42 -20.12 7.25 C-19.11 6.67 -18.09 6.1 -17.04 5.5 C-4.62 -1.51 -4.62 -1.51 0 0 Z M-9.4 5.86 C-9.96 6.17 -9.96 6.17 -12.8 7.75 C-13.09 7.91 -13.09 7.91 -14.59 8.75 C-16.3 9.71 -18.02 10.66 -19.74 11.61 C-21.5 12.59 -23.26 13.58 -24.99 14.61 C-28.68 16.8 -32.34 18.57 -36.33 20.17 C-41.97 22.62 -47.16 25.06 -51 30 C-54.01 38.68 -52.99 48.23 -52.37 57.25 C-52.17 60.6 -52.08 63.96 -51.98 67.32 C-51.76 73.89 -51.42 80.44 -51 87 C-50.32 87.34 -49.64 87.67 -48.94 88.02 C-48.04 88.47 -47.14 88.91 -46.22 89.37 C-45.33 89.81 -44.45 90.25 -43.53 90.71 C-40.31 92.35 -37.27 94.17 -34.19 96.06 C-32.91 96.83 -31.64 97.6 -30.36 98.37 C-29.68 98.78 -28.99 99.2 -28.28 99.62 C-27.53 100.08 -26.78 100.53 -26 101 C-25.13 101.53 -24.25 102.05 -23.35 102.6 C-20.54 104.29 -17.71 105.96 -14.88 107.62 C-13.97 108.17 -13.07 108.72 -12.15 109.28 C-11.29 109.78 -10.44 110.28 -9.55 110.79 C-8.8 111.24 -8.04 111.69 -7.26 112.15 C-4.34 113.25 -2.95 112.95 0 112 C1.91 111.05 3.78 110.02 5.61 108.94 C6.69 108.31 7.77 107.68 8.87 107.03 C10.01 106.36 11.14 105.69 12.31 105 C14.07 103.97 15.83 102.94 17.59 101.92 C19.32 100.9 21.05 99.89 22.78 98.87 C27.61 96.06 32.48 93.33 37.37 90.62 C39.98 89.16 42.5 87.66 45 86 C45.36 83.63 45.36 83.63 45.34 80.63 C45.34 79.51 45.34 78.39 45.34 77.24 C45.32 76.02 45.31 74.81 45.29 73.55 C45.29 72.31 45.28 71.07 45.28 69.8 C45.27 66.5 45.24 63.2 45.21 59.9 C45.18 56.54 45.16 53.17 45.15 49.81 C45.11 43.21 45.06 36.6 45 30 C44.18 29.59 43.36 29.19 42.52 28.77 C41.44 28.24 40.36 27.7 39.25 27.15 C38.18 26.62 37.12 26.09 36.02 25.55 C32.34 23.66 28.89 21.56 25.44 19.31 C19.24 15.36 12.97 11.57 6.62 7.88 C5.8 7.39 4.97 6.9 4.12 6.4 C3.35 5.96 2.58 5.51 1.79 5.05 C1.11 4.66 0.42 4.26 -0.28 3.85 C-3.93 2.04 -6.08 4.02 -9.4 5.86 Z " fill="#1C1C1C" transform="translate(325,15)"/>
<path d="M0 0 C2.31 0 4.62 0 7 0 C8 1 8 1 8.06 4.56 C8.04 6.8 8 9.04 7.96 11.27 C7.94 13.18 7.97 15.09 8 17 C8.33 17.33 8.66 17.66 9 18 C9.09 19.34 9.11 20.69 9.1 22.04 C9.09 22.84 9.09 23.65 9.09 24.49 C9.08 24.91 9.08 24.91 9.06 27.06 C9.06 27.92 9.05 28.77 9.05 29.65 C9.04 31.77 9.02 33.88 9 36 C6.75 36.2 4.5 36.38 2.25 36.56 C1.62 36.61 1.62 36.61 -1.55 36.88 C-4.39 36.98 -6.34 36.91 -9 36 C-9.08 36.74 -9.16 37.48 -9.25 38.25 C-10.16 41.59 -11.32 42.85 -14 45 C-20.73 47.79 -27.58 45.45 -34 43 C-34 41.02 -34 39.04 -34 37 C-33.67 36.84 -33.67 36.84 -32 36 C-31.38 32.94 -31.38 32.94 -31 30 C-30.34 30 -29.68 30 -29 30 C-29.99 27.69 -30.98 25.38 -32 23 C-30.56 22.95 -29.13 22.91 -27.69 22.88 C-27.29 22.86 -27.29 22.86 -25.26 22.8 C-23 23 -23 23 -20 25 C-19.71 27.6 -19.71 27.6 -19.81 30.62 C-19.84 31.63 -19.87 32.63 -19.89 33.66 C-19.93 34.43 -19.96 35.21 -20 36 C-22.64 36.66 -25.28 37.32 -28 38 C-28 38.66 -28 39.32 -28 40 C-26.58 40.05 -25.17 40.09 -23.75 40.12 C-22.96 40.15 -22.17 40.17 -21.36 40.2 C-18.75 39.98 -17.2 39.39 -15 38 C-14.67 37.34 -14.34 36.68 -14 36 C-14.66 36 -15.32 36 -16 36 C-16 32.04 -16 28.08 -16 24 C-15.01 23.67 -14.02 23.34 -13 23 C-14.32 22.67 -15.64 22.34 -17 22 C-17 21.34 -17 20.68 -17 20 C-17.99 19.67 -18.98 19.34 -20 19 C-16.32 19.6 -12.65 20.25 -9 21 C-9 20.34 -9 19.68 -9 19 C-10.65 18.67 -12.3 18.34 -14 18 C-14 17.34 -14 16.68 -14 16 C-11.03 16 -8.06 16 -5 16 C-5 16.99 -5 17.98 -5 19 C-3.35 18.67 -1.7 18.34 0 18 C0 12.06 0 6.12 0 0 Z " fill="#F4FBFA" transform="translate(230,40)"/>
<path d="M0 0 C4.64 2.16 6.76 4.47 9 9 C9.78 14.91 10.19 21.67 7.44 27.12 C4.62 30.45 2.19 32.78 -2 34 C-6.03 34.31 -9.97 34.24 -14 34 C-14 33.34 -14 32.68 -14 32 C-14.66 32 -15.32 32 -16 32 C-16 31.34 -16 30.68 -16 30 C-16.66 30 -17.32 30 -18 30 C-18 29.34 -18 28.68 -18 28 C-18.66 28 -19.32 28 -20 28 C-20.12 24.6 -20.19 21.21 -20.25 17.81 C-20.28 16.85 -20.32 15.89 -20.35 14.9 C-20.45 7.75 -20.45 7.75 -18.17 3.95 C-12.54 -1.1 -7.28 -0.73 0 0 Z " fill="#C5EDFB" transform="translate(394,52)"/>
<path d="M0 0 C-1.05 2.62 -1.65 3.79 -4.12 5.25 C-4.43 5.37 -4.43 5.37 -6 6 C-6 6.99 -6 7.98 -6 9 C-6.33 9.66 -6.66 10.32 -7 11 C-7.66 11 -8.32 11 -9 11 C-9 11.66 -9 12.32 -9 13 C-8.01 13.66 -7.02 14.32 -6 15 C-6.17 15.83 -6.17 15.83 -7 20 C-9.62 20.19 -12.25 20.38 -14.88 20.56 C-15.62 20.62 -16.37 20.67 -17.14 20.73 C-22.77 21.11 -22.77 21.11 -25 20 C-24.67 24.29 -24.34 28.58 -24 33 C-19.05 33.33 -14.1 33.66 -9 34 C-9 35.32 -9 36.64 -9 38 C-14.61 38 -20.22 38 -26 38 C-25.83 40.64 -25.83 40.64 -25 54 C-19.06 54.33 -13.12 54.66 -7 55 C-7 56.32 -7 57.64 -7 59 C-14.92 59 -22.84 59 -31 59 C-31.66 47.45 -32.32 35.9 -33 24 C-35 25 -35 25 -37 28 C-37 27.34 -37 26.68 -37 26 C-39.31 26.66 -41.62 27.32 -44 28 C-44 26.68 -44 25.36 -44 24 C-42.42 22.53 -42.42 22.53 -40.18 21.16 C-39.77 20.9 -39.77 20.9 -37.69 19.6 C-37.24 19.34 -37.24 19.34 -35 18 C-34.13 17.47 -33.25 16.94 -32.36 16.4 C-29.6 14.75 -26.84 13.12 -24.06 11.5 C-22.2 10.41 -20.34 9.31 -18.47 8.22 C-17.57 7.69 -16.66 7.16 -15.73 6.62 C-13.87 5.51 -12.02 4.38 -10.19 3.22 C-9.3 2.66 -8.41 2.11 -7.5 1.53 C-6.7 1.02 -5.91 0.51 -5.09 -0.01 C-3 -1 -3 -1 0 0 Z " fill="#C1EBF9" transform="translate(324,26)"/>
<path d="M0 0 C2.61 2.61 2.27 3.74 2.32 7.37 C2.34 8.49 2.36 9.61 2.38 10.76 C2.38 11.37 2.38 11.37 2.41 14.45 C2.43 15.69 2.45 16.93 2.47 18.2 C2.52 21.5 2.56 24.8 2.6 28.1 C2.64 31.46 2.69 34.83 2.74 38.19 C2.84 44.79 2.92 51.4 3 58 C3.68 58.34 4.36 58.67 5.06 59.02 C5.51 59.25 5.51 59.25 7.78 60.37 C8.67 60.81 9.55 61.25 10.47 61.71 C13.69 63.35 16.73 65.17 19.81 67.06 C21.09 67.83 22.36 68.6 23.64 69.37 C24.32 69.78 25.01 70.2 25.72 70.62 C26.47 71.08 27.22 71.53 28 72 C28.87 72.53 29.75 73.05 30.65 73.6 C33.46 75.29 36.29 76.96 39.12 78.62 C40.03 79.17 40.93 79.72 41.85 80.28 C42.71 80.78 43.56 81.28 44.45 81.79 C45.2 82.24 45.96 82.69 46.74 83.15 C49.66 84.25 51.05 83.95 54 83 C55.91 82.05 57.78 81.02 59.61 79.94 C60.69 79.31 61.77 78.68 62.88 78.03 C64.01 77.36 65.14 76.69 66.31 76 C67.48 75.31 68.65 74.63 69.82 73.95 C72.14 72.59 74.46 71.24 76.78 69.88 C81 67.42 85.24 65.01 89.5 62.62 C90.14 62.26 90.79 61.9 91.45 61.53 C93.62 60.31 95.78 59.11 98 58 C98.33 47.44 98.66 36.88 99 26 C99.33 25.84 99.33 25.84 101 25 C102.47 36.95 102.09 48.99 102 61 C101.41 61.33 100.83 61.66 100.22 62 C93.14 66 86.07 70 79 74 C78.5 74.29 78.5 74.29 75.95 75.73 C73.11 77.34 70.27 78.95 67.44 80.56 C66.58 81.05 65.72 81.54 64.83 82.04 C61.32 84.04 57.92 86.02 54.66 88.4 C52 90 52 90 50.12 89.75 C47.72 88.9 45.64 87.81 43.42 86.55 C42.52 86.04 41.62 85.53 40.69 85 C40.2 84.72 40.2 84.72 37.75 83.31 C36.75 82.74 35.75 82.17 34.71 81.58 C24.12 75.53 13.59 69.37 3.07 63.19 C1.73 62.42 0.38 61.69 -1 61 C-1.02 53.34 -1.04 45.68 -1.05 38.03 C-1.06 34.47 -1.06 30.91 -1.08 27.36 C-1.09 23.27 -1.09 19.19 -1.1 15.1 C-1.1 14.46 -1.1 14.46 -1.11 11.22 C-1.11 10.04 -1.11 8.86 -1.11 7.64 C-1.12 6.6 -1.12 5.56 -1.12 4.48 C-1 2 -1 2 0 0 Z " fill="#1D1D1D" transform="translate(271,43)"/>
<path d="M0 0 C0.89 0.49 1.79 0.97 2.71 1.48 C3.33 1.81 3.96 2.15 4.6 2.5 C6.76 3.67 8.89 4.88 11.02 6.1 C11.76 6.52 12.5 6.94 13.26 7.38 C15.08 8.41 16.89 9.44 18.71 10.48 C18.71 10.81 18.71 11.14 18.71 11.48 C15.04 11.48 11.37 11.48 7.71 11.48 C7.71 10.82 7.71 10.16 7.71 9.48 C6.72 8.82 5.73 8.16 4.71 7.48 C3.72 7.81 2.73 8.14 1.71 8.48 C1.38 9.47 1.05 10.46 0.71 11.48 C0.05 11.15 -0.61 10.82 -1.29 10.48 C-0.96 9.49 -0.63 8.5 -0.29 7.48 C-3.67 8.76 -6.78 10.22 -9.92 12.02 C-10.35 12.26 -10.35 12.26 -12.54 13.51 C-13 13.78 -13 13.78 -15.29 15.1 C-16.23 15.64 -17.16 16.17 -18.12 16.73 C-38.78 28.64 -38.78 28.64 -43.29 32.48 C-43.29 33.14 -43.29 33.8 -43.29 34.48 C-42.3 34.48 -41.31 34.48 -40.29 34.48 C-37.97 41.46 -39.25 48.58 -41.29 55.48 C-41.95 55.48 -42.61 55.48 -43.29 55.48 C-43.42 56.24 -43.54 57 -43.67 57.79 C-44.29 60.48 -44.29 60.48 -46.29 63.48 C-47.28 63.48 -48.27 63.48 -49.29 63.48 C-49.67 58.37 -49.94 53.28 -50.12 48.16 C-50.19 46.43 -50.29 44.69 -50.42 42.96 C-51.44 29.1 -51.44 29.1 -48 24.9 C-44.5 21.99 -40.51 20.17 -36.36 18.39 C-33.14 16.97 -30.14 15.18 -27.1 13.42 C-24.79 12.15 -22.48 10.87 -20.17 9.6 C-17.83 8.31 -15.5 7.02 -13.16 5.73 C-12.15 5.18 -11.14 4.62 -10.1 4.05 C-8.23 3 -6.38 1.9 -4.57 0.74 C-2.29 -0.52 -2.29 -0.52 0 0 Z " fill="#F1F1F1" transform="translate(323.29296875,18.5234375)"/>
<path d="M0 0 C1.32 0 2.64 0 4 0 C4 15.84 4 31.68 4 48 C2.68 47.67 1.36 47.34 0 47 C0 43.7 0 40.4 0 37 C-1.07 37.02 -2.14 37.04 -3.25 37.06 C-9.93 36.95 -9.93 36.95 -12.48 34.68 C-17.19 27.97 -16.78 20.92 -16 13 C-15.43 9.85 -14.9 8.7 -13 6 C-8.58 3.42 -5.08 2.63 0 3 C0 2.01 0 1.02 0 0 Z " fill="#C1ECFB" transform="translate(359,49)"/>
<path d="M0 0 C0 0.66 0 1.32 0 2 C0.66 2 1.32 2 2 2 C2.33 3.32 2.66 4.64 3 6 C3.66 6 4.32 6 5 6 C5.33 5.01 5.66 4.02 6 3 C6.66 3 7.32 3 8 3 C8 2.34 8 1.68 8 1 C11.71 -0.85 16.05 0.17 20 1 C23.3 3.34 24.27 5.12 25 9 C25.08 10.88 25.11 12.76 25.1 14.64 C25.09 15.71 25.09 16.78 25.09 17.88 C25.08 18.44 25.08 18.44 25.06 21.25 C25.06 22.38 25.05 23.5 25.05 24.66 C25.04 27.44 25.02 30.22 25 33 C23.35 33 21.7 33 20 33 C19.99 32.7 19.99 32.7 19.94 31.17 C19.84 28.4 19.73 25.64 19.62 22.88 C19.59 21.92 19.56 20.97 19.53 19.99 C19.32 14.98 18.94 10.7 17 6 C14.03 6 11.06 6 8 6 C8 6.66 8 7.32 8 8 C7.67 8.16 7.67 8.16 6 9 C5.67 16.92 5.34 24.84 5 33 C3.35 33 1.7 33 0 33 C-0.03 32.39 -0.05 31.78 -0.08 31.15 C-0.19 28.37 -0.31 25.59 -0.44 22.81 C-0.48 21.85 -0.52 20.89 -0.56 19.9 C-0.6 18.97 -0.64 18.04 -0.68 17.08 C-0.72 16.23 -0.76 15.37 -0.79 14.5 C-1.01 11.91 -1.32 9.51 -2 7 C-4.89 5.56 -6.8 5.62 -10 6 C-13.06 8.1 -14.75 9.76 -15.49 13.47 C-15.72 16.43 -15.8 19.35 -15.81 22.31 C-15.84 23.34 -15.86 24.37 -15.89 25.42 C-15.95 27.95 -15.98 30.47 -16 33 C-17.65 33 -19.3 33 -21 33 C-21 22.44 -21 11.88 -21 1 C-19.35 1 -17.7 1 -16 1 C-15.67 1.99 -15.34 2.98 -15 4 C-14.01 3.34 -13.02 2.68 -12 2 C-7.85 -0.41 -4.73 -0.33 0 0 Z " fill="#C2ECFB" transform="translate(432,52)"/>
<path d="M0 0 C2.03 1.05 4.02 2.17 5.97 3.35 C6.25 3.52 6.25 3.52 7.68 4.37 C9.48 5.45 11.27 6.54 13.06 7.62 C14.24 8.33 15.41 9.04 16.59 9.75 C18.34 10.8 20.09 11.85 21.84 12.9 C26.74 15.86 31.7 18.73 36.67 21.57 C39 23 39 23 41 25 C41 25.99 41 26.98 41 28 C40.05 27.96 39.1 27.92 38.12 27.88 C35 28 35 28 33 30 C33.17 30.33 33.17 30.33 34 32 C30.47 30.66 27.22 29.1 23.94 27.24 C22.98 26.7 22.03 26.16 21.04 25.61 C20.04 25.04 19.03 24.46 18 23.88 C16.97 23.29 15.95 22.71 14.89 22.11 C8.28 18.35 1.75 14.48 -4.67 10.39 C-7 9 -7 9 -10 8 C-10.31 5.19 -10.31 5.19 -10 2 C-6.47 -1.13 -4.4 -1.26 0 0 Z " fill="#F6F6F6" transform="translate(284,94)"/>
<path d="M0 0 C1.13 0.1 2.27 0.21 3.44 0.31 C4.43 0.31 5.42 0.31 6.44 0.31 C7.76 0.31 9.08 0.31 10.44 0.31 C10.44 2.62 10.44 4.93 10.44 7.31 C12.75 7.31 15.06 7.31 17.44 7.31 C17.44 5 17.44 2.69 17.44 0.31 C18.43 0.31 19.42 0.31 20.44 0.31 C20.44 1.96 20.44 3.61 20.44 5.31 C21.34 5.25 22.25 5.19 23.19 5.12 C26.85 5.34 27.9 5.74 30.44 8.31 C30.83 11.01 30.83 11.01 30.69 14 C30.65 14.99 30.62 15.99 30.58 17.01 C30.53 17.77 30.49 18.53 30.44 19.31 C28.79 19.64 27.14 19.97 25.44 20.31 C25.44 20.97 25.44 21.63 25.44 22.31 C20.94 24.56 17.36 24.48 12.44 24.31 C12.44 23.65 12.44 22.99 12.44 22.31 C11.12 21.65 9.8 20.99 8.44 20.31 C8.44 19.32 8.44 18.33 8.44 17.31 C7.78 17.31 7.12 17.31 6.44 17.31 C6.11 13.02 5.78 8.73 5.44 4.31 C3.79 4.64 2.14 4.97 0.44 5.31 C-0.55 4.98 -1.54 4.65 -2.56 4.31 C-2.56 7.61 -2.56 10.91 -2.56 14.31 C-1.41 14.15 -1.41 14.15 4.44 13.31 C4.44 14.3 4.44 15.29 4.44 16.31 C-2.19 17.44 -2.19 17.44 -5.56 16.31 C-7.56 12.63 -8.08 9.46 -7.56 5.31 C-5.42 1.36 -4.55 0.4 0 0 Z " fill="#C4EBFA" transform="translate(99.5625,61.6875)"/>
<path d="M0 0 C0.96 0.01 1.92 0.01 2.9 0.02 C3.42 0.02 3.42 0.02 6.04 0.03 C7.13 0.03 8.22 0.04 9.34 0.05 C9.88 0.05 9.88 0.05 12.65 0.06 C15.36 0.08 18.07 0.09 20.78 0.11 C20.78 1.43 20.78 2.75 20.78 4.11 C14.84 4.11 8.9 4.11 2.78 4.11 C2.78 9.06 2.78 14.01 2.78 19.11 C8.06 19.11 13.34 19.11 18.78 19.11 C18.78 20.43 18.78 21.75 18.78 23.11 C13.5 23.11 8.22 23.11 2.78 23.11 C2.78 28.39 2.78 33.67 2.78 39.11 C8.72 39.11 14.66 39.11 20.78 39.11 C21.11 40.76 21.44 42.41 21.78 44.11 C13.53 44.11 5.28 44.11 -3.22 44.11 C-3.25 38.01 -3.27 31.9 -3.28 25.8 C-3.28 23.72 -3.29 21.64 -3.3 19.56 C-3.31 16.58 -3.32 13.6 -3.32 10.62 C-3.33 10.15 -3.33 10.15 -3.34 7.78 C-3.34 6.92 -3.34 6.06 -3.34 5.17 C-3.34 4.41 -3.34 3.65 -3.35 2.87 C-3.16 0.18 -2.68 0.14 0 0 Z " fill="#C3EDFC" transform="translate(47.224853515625,40.886474609375)"/>
<path d="M0 0 C3 0 3 0 6.44 -0.31 C10 0 10 0 12.44 2.12 C14.29 5.54 14.63 7.17 14 11 C12.5 14.38 12.5 14.38 10 17 C6.25 17.88 3.04 17.42 -0.5 16 C-1 15.67 -1.49 15.34 -2 15 C-2.66 15.66 -3.32 16.32 -4 17 C-10.89 17.67 -10.89 17.67 -14.5 15.5 C-16.6 12 -16.85 8.91 -16 5 C-12.1 -1.45 -6.73 -0.47 0 0 Z " fill="#323232" transform="translate(423,17)"/>
<path d="M0 0 C1.44 -0.05 2.87 -0.09 4.31 -0.12 C5.11 -0.15 5.91 -0.17 6.74 -0.2 C9 0 9 0 12 2 C12.29 4.6 12.29 4.6 12.19 7.62 C12.16 8.63 12.13 9.63 12.11 10.66 C12.07 11.43 12.04 12.21 12 13 C9.36 13.66 6.72 14.32 4 15 C4 15.66 4 16.32 4 17 C5.42 17.05 6.83 17.09 8.25 17.12 C8.64 17.14 8.64 17.14 10.64 17.2 C13.25 16.98 14.8 16.39 17 15 C17.33 14.34 17.66 13.68 18 13 C17.34 13 16.68 13 16 13 C16 9.04 16 5.08 16 1 C23.47 -0.35 23.47 -0.35 25.75 1.16 C27.42 3.62 27.3 5.24 27.19 8.19 C27.16 9.09 27.13 9.99 27.11 10.92 C27.07 11.61 27.04 12.29 27 13 C25.68 13 24.36 13 23 13 C22.92 13.74 22.84 14.48 22.75 15.25 C21.84 18.59 20.68 19.85 18 22 C11.27 24.79 4.42 22.45 -2 20 C-2 18.02 -2 16.04 -2 14 C-1.34 13.67 -0.68 13.34 0 13 C0.62 9.94 0.62 9.94 1 7 C1.66 7 2.32 7 3 7 C2.01 4.69 1.02 2.38 0 0 Z " fill="#BFECFA" transform="translate(198,63)"/>
<path d="M0 0 C1.32 0.33 2.64 0.66 4 1 C4 19.48 4 37.96 4 57 C2.35 57 0.7 57 -1 57 C-1 56.34 -1 55.68 -1 55 C-1.66 54.67 -2.32 54.34 -3 54 C-3 37.83 -3 21.66 -3 5 C-3.99 4.67 -4.98 4.34 -6 4 C-5.67 3.34 -5.34 2.68 -5 2 C-3.68 2 -2.36 2 -1 2 C-0.67 1.34 -0.34 0.68 0 0 Z M-9 43 C-8.67 43 -8.34 43 -8 43 C-7.67 46.3 -7.34 49.6 -7 53 C-5.68 53.33 -4.36 53.66 -3 54 C-3 54.66 -3 55.32 -3 56 C-3.99 55.84 -3.99 55.84 -9 55 C-10.03 51.91 -9.97 50.47 -9.56 47.31 C-9.46 46.5 -9.36 45.7 -9.25 44.86 C-9.17 44.25 -9.09 43.63 -9 43 Z " fill="#FDFDFD" transform="translate(366,44)"/>
<path d="M0 0 C3 1.62 3 1.62 5 5 C5.91 11.22 6.26 16.87 3 22.38 C-1.08 24.59 -3.39 24.45 -8 24 C-11 23 -11 23 -12.69 20.75 C-14.63 15.2 -14.23 9.82 -14 4 C-12.68 3.67 -11.36 3.34 -10 3 C-10 2.34 -10 1.68 -10 1 C-6.75 -0.62 -3.51 -0.54 0 0 Z " fill="#FDFEFD" transform="translate(392,57)"/>
<path d="M0 0 C6.27 0 12.54 0 19 0 C19.66 0.66 20.32 1.32 21 2 C20.67 2.99 20.34 3.98 20 5 C17.69 4.84 17.69 4.84 6 4 C6 15.55 6 27.1 6 39 C10.62 39 15.24 39 20 39 C20 40.65 20 42.3 20 44 C13.4 44 6.8 44 0 44 C0 29.48 0 14.96 0 0 Z " fill="#C1EDFC" transform="translate(249,41)"/>
<path d="M0 0 C2.31 0 4.62 0 7 0 C11.43 7.43 11.43 7.43 12 11 C12.99 11 13.98 11 15 11 C15.27 10.03 15.54 9.06 15.81 8.06 C16.2 7.05 16.6 6.04 17 5 C17.99 4.67 18.98 4.34 20 4 C20.69 1.94 20.69 1.94 21 0 C22.32 0 23.64 0 25 0 C24.67 2.31 24.34 4.62 24 7 C24.99 7.16 24.99 7.16 30 8 C29.34 8.66 28.68 9.32 28 10 C26.87 9.96 25.73 9.92 24.56 9.88 C21 10 21 10 19.26 11.65 C17.65 14.66 17.87 16.39 18.31 19.75 C18.43 20.73 18.55 21.72 18.68 22.73 C18.78 23.48 18.89 24.23 19 25 C20.65 25.33 22.3 25.66 24 26 C24.66 27.98 25.32 29.96 26 32 C23.24 32.38 23.24 32.38 20 32 C17.88 29.38 17.88 29.38 16.12 26 C15.53 24.89 14.93 23.77 14.32 22.62 C13.88 21.76 13.45 20.89 13 20 C12.34 21.32 11.68 22.64 11 24 C10.34 24 9.68 24 9 24 C9 24.99 9 25.98 9 27 C8.34 27 7.68 27 7 27 C6.67 27.83 6.67 27.83 5 32 C3.35 32 1.7 32 0 32 C0.33 30.35 0.66 28.7 1 27 C1.66 27 2.32 27 3 27 C3.27 26.07 3.54 25.14 3.81 24.19 C5 21 5 21 6.69 19.44 C8 18 8 18 8 15.81 C6.8 12.44 5.06 9.73 3.06 6.77 C2 5 2 5 2 3 C1.34 3 0.68 3 0 3 C0 2.01 0 1.02 0 0 Z " fill="#BFEEFC" transform="translate(75,53)"/>
<path d="M0 0 C3.69 1 3.69 1 6 2 C6 3.98 6 5.96 6 8 C5.18 7.84 5.18 7.84 1 7 C1 6.34 1 5.68 1 5 C-0.63 5.14 -2.25 5.29 -3.88 5.44 C-4.78 5.52 -5.68 5.6 -6.62 5.68 C-9 6 -9 6 -11 7 C-11.41 9.07 -11.41 9.07 -11.62 11.56 C-11.7 12.39 -11.77 13.22 -11.85 14.07 C-11.9 14.7 -11.95 15.34 -12 16 C-11.01 16 -10.02 16 -9 16 C-9 16.66 -9 17.32 -9 18 C-6.69 18.66 -4.38 19.32 -2 20 C-2 20.66 -2 21.32 -2 22 C-0.02 22.33 1.96 22.66 4 23 C4 23.33 4 23.66 4 24 C2.35 24 0.7 24 -1 24 C-1 27.96 -1 31.92 -1 36 C-0.34 36 0.32 36 1 36 C0.28 37.95 0.28 37.95 -1 40 C-3.06 40.64 -3.06 40.64 -5.44 40.81 C-5.83 40.85 -5.83 40.85 -7.81 41.02 C-10 41 -10 41 -13 40 C-13 39.34 -13 38.68 -13 38 C-10 36 -10 36 -5 36 C-5.33 32.37 -5.66 28.74 -6 25 C-6.93 24.73 -7.86 24.46 -8.81 24.19 C-11.76 23.09 -13.15 22.47 -15 20 C-15 19.34 -15 18.68 -15 18 C-15.66 18 -16.32 18 -17 18 C-18.61 14.79 -18.48 11.48 -18 8 C-13.51 -0.36 -8.78 -0.65 0 0 Z " fill="#C3EDFC" transform="translate(215,40)"/>
<path d="M0 0 C0 0.99 0 1.98 0 3 C1.32 3.33 2.64 3.66 4 4 C4 12.58 4 21.16 4 30 C2.35 30 0.7 30 -1 30 C-1 28.35 -1 26.7 -1 25 C-1.99 24.67 -2.98 24.34 -4 24 C-4 21.36 -4 18.72 -4 16 C-5.98 16 -7.96 16 -10 16 C-10 18.64 -10 21.28 -10 24 C-11.32 24 -12.64 24 -14 24 C-14 18.39 -14 12.78 -14 7 C-12.68 7 -11.36 7 -10 7 C-10 8.98 -10 10.96 -10 13 C-8.35 13 -6.7 13 -5 13 C-5.08 12.29 -5.17 11.58 -5.25 10.85 C-5.36 9.93 -5.46 9.01 -5.56 8.06 C-5.67 7.15 -5.77 6.23 -5.88 5.29 C-5.92 4.53 -5.96 3.78 -6 3 C-5.67 2.67 -5.34 2.34 -5 2 C-5.33 1.34 -5.66 0.68 -6 0 C-3.51 -1.25 -2.59 -0.78 0 0 Z " fill="#BFEBF9" transform="translate(164,55)"/>
<path d="M0 0 C7.92 0.66 15.84 1.32 24 2 C21 4 21 4 17 4 C17 5.65 17 7.3 17 9 C18.16 8.48 19.31 7.97 20.5 7.44 C25.12 5.7 28.21 5.84 33 7 C35.29 10.44 35.18 11.99 35 16 C33.35 16 31.7 16 30 16 C29.67 15.01 29.34 14.02 29 13 C28.01 12.67 27.02 12.34 26 12 C26 14.31 26 16.62 26 19 C23.69 19 21.38 19 19 19 C19 16.69 19 14.38 19 12 C17.68 12 16.36 12 15 12 C14.67 12.66 14.34 13.32 14 14 C13.34 13.01 12.68 12.02 12 11 C8.88 10.81 8.88 10.81 6 11 C6.66 10.67 7.32 10.34 8 10 C8.41 7.68 8.74 5.34 9 3 C7.06 3.31 7.06 3.31 5 4 C4.67 4.99 4.34 5.98 4 7 C3.01 7.33 2.02 7.66 1 8 C0.67 5.36 0.34 2.72 0 0 Z " fill="#F5FBFC" transform="translate(91,50)"/>
<path d="M0 0 C-0.07 1.73 -0.07 1.73 -1 4 C-3.25 5.61 -5.41 6.97 -7.81 8.31 C-8.42 8.67 -9.03 9.02 -9.66 9.38 C-10.3 9.75 -10.93 10.11 -11.58 10.49 C-12.22 10.87 -12.86 11.25 -13.52 11.64 C-16 13 -16 13 -19.01 14.31 C-27.34 18.27 -27.34 18.27 -29.09 22.87 C-29.49 26.42 -29.51 29.8 -29.39 33.37 C-29.4 34.65 -29.4 35.93 -29.41 37.24 C-29.41 40.62 -29.36 43.99 -29.29 47.37 C-29.22 50.82 -29.23 54.27 -29.23 57.72 C-29.22 64.48 -29.13 71.24 -29 78 C-29.33 78 -29.66 78 -30 78 C-30.03 77.36 -30.05 76.72 -30.08 76.06 C-30.19 73.1 -30.32 70.15 -30.44 67.19 C-30.48 66.18 -30.52 65.18 -30.56 64.14 C-30.84 57.4 -31.32 50.71 -32 44 C-32.33 44 -32.66 44 -33 44 C-33.17 40.06 -33.33 36.13 -33.5 32.19 C-33.55 31.07 -33.6 29.95 -33.64 28.79 C-33.69 27.72 -33.73 26.65 -33.78 25.54 C-33.82 24.55 -33.87 23.56 -33.91 22.54 C-33.97 20.7 -34 18.85 -34 17 C-33.02 16.61 -32.04 16.21 -31.03 15.81 C-26.63 13.92 -22.6 11.53 -18.5 9.06 C-16.35 7.78 -14.2 6.5 -12.05 5.22 C-10.7 4.42 -9.36 3.61 -8.02 2.79 C-3.33 0 -3.33 0 0 0 Z " fill="#292C2E" transform="translate(403,25)"/>
<path d="M0 0 C2.96 4.44 2.96 4.44 4 7 C3.67 7.99 3.34 8.98 3 10 C3.99 10 4.98 10 6 10 C8.33 16.98 7.04 24.1 5 31 C4.34 31 3.68 31 3 31 C2.88 31.76 2.75 32.53 2.62 33.31 C2 36 2 36 0 39 C-0.99 39 -1.98 39 -3 39 C-3.07 33.77 -3.13 28.53 -3.16 23.3 C-3.18 21.52 -3.2 19.74 -3.23 17.96 C-3.26 15.4 -3.28 12.85 -3.29 10.29 C-3.31 9.49 -3.32 8.69 -3.34 7.87 C-3.34 5.62 -3.34 5.62 -3 2 C-2.01 1.34 -1.02 0.68 0 0 Z " fill="#C1EDFB" transform="translate(277,43)"/>
<path d="M0 0 C2.5 0.43 4.09 0.91 6.18 2.37 C8.1 6.19 8.42 9.3 8.38 13.55 C8.37 14.7 8.37 15.86 8.36 17.05 C8.34 18.25 8.33 19.45 8.31 20.68 C8.3 21.9 8.29 23.12 8.28 24.37 C8.26 27.37 8.22 30.37 8.18 33.37 C6.53 33.37 4.88 33.37 3.18 33.37 C3.16 32.77 3.14 32.16 3.12 31.54 C3.03 28.77 2.92 26.01 2.81 23.25 C2.78 22.29 2.75 21.34 2.71 20.36 C2.51 15.35 2.13 11.07 0.18 6.37 C-2.75 6.75 -2.75 6.75 -5.82 7.37 C-6.15 8.03 -6.48 8.69 -6.82 9.37 C-9.38 10 -9.38 10 -11.82 10.37 C-11.82 9.38 -11.82 8.39 -11.82 7.37 C-13.14 7.04 -14.46 6.71 -15.82 6.37 C-16.15 5.05 -16.48 3.73 -16.82 2.37 C-13.82 3.37 -13.82 3.37 -11.82 5.37 C-11.18 4.55 -10.54 3.72 -9.88 2.87 C-6.22 -0.11 -4.53 -0.13 0 0 Z " fill="#C2EDFB" transform="translate(179.81640625,51.62890625)"/>
<path d="M0 0 C0 7.92 0 15.84 0 24 C-2.31 24 -4.62 24 -7 24 C-11.43 17.91 -12.02 12.44 -11 5 C-8.16 -0.91 -7.03 0 0 0 Z " fill="#FAFCFC" transform="translate(359,57)"/>
<path d="M0 0 C3.94 0.5 3.94 0.5 5.88 1.88 C8.26 5.52 8.38 8.15 7.94 12.5 C5.88 15.44 5.88 15.44 2.94 17.5 C-1.5 18.04 -3.31 18 -7.06 15.5 C-8.26 11.89 -8.39 9.29 -8.06 5.5 C-6.02 1.5 -4.4 0.19 0 0 Z " fill="#2B2B2B" transform="translate(447.0625,16.5)"/>
<path d="M0 0 C0.77 -0.01 1.55 -0.02 2.34 -0.02 C5.04 0.48 5.91 1.15 7.5 3.38 C8.19 6.44 8.07 9.29 7.5 12.38 C5.04 15.92 3.69 17.16 -0.56 17.94 C-3.5 17.38 -3.5 17.38 -5.88 16 C-8.32 12.05 -8.34 7.9 -7.5 3.38 C-5.38 0.34 -3.61 -0.04 0 0 Z " fill="#19181A" transform="translate(139.5,61.625)"/>
<path d="M0 0 C-0.08 0.36 -0.08 0.36 -0.51 2.21 C-1.09 5.53 -0.94 8.56 -0.74 11.91 C-1 14 -1 14 -2.26 15.75 C-4.73 17.53 -7.09 17.48 -10.06 17.34 C-12 17 -12 17 -14.5 15.5 C-16.6 12 -16.85 8.91 -16 5 C-12.13 -1.4 -6.71 -0.53 0 0 Z " fill="#F2F2F2" transform="translate(423,17)"/>
<path d="M0 0 C0 0.99 0 1.98 0 3 C0.66 3 1.32 3 2 3 C2.54 5.98 3.05 8.96 3.56 11.94 C3.71 12.77 3.87 13.6 4.02 14.46 C4.99 20.26 4.89 25.18 4 31 C3.18 31.16 3.18 31.16 -1 32 C-1 31.01 -1 30.02 -1 29 C-0.34 28.67 0.32 28.34 1 28 C1 24.37 1 20.74 1 17 C-1.97 16.01 -4.94 15.02 -8 14 C-7.67 12.68 -7.34 11.36 -7 10 C-7 10.99 -7 11.98 -7 13 C-5.35 13 -3.7 13 -2 13 C-2.66 10.36 -3.32 7.72 -4 5 C-10.07 3.92 -14.1 4.21 -20 6 C-20 4.35 -20 2.7 -20 1 C-14.08 -1.11 -5.87 -2.93 0 0 Z " fill="#BDE5F1" transform="translate(128,53)"/>
<path d="M0 0 C-1.44 3.61 -3.03 4.94 -6.38 6.85 C-7.27 7.37 -8.16 7.88 -9.09 8.42 C-10.05 8.96 -11.01 9.5 -12 10.06 C-14 11.21 -15.99 12.36 -17.99 13.51 C-18.49 13.8 -18.49 13.8 -21.03 15.26 C-23.84 16.91 -26.6 18.6 -29.36 20.33 C-30.17 20.85 -30.99 21.36 -31.83 21.89 C-33.38 22.86 -34.92 23.85 -36.45 24.84 C-38.25 25.97 -40.12 26.99 -42 28 C-42.99 27.67 -43.98 27.34 -45 27 C-43.48 22.78 -40.87 21.38 -37.1 19.14 C-36.51 18.78 -35.92 18.43 -35.31 18.06 C-33.42 16.93 -31.52 15.81 -29.62 14.69 C-28.39 13.95 -27.15 13.21 -25.91 12.46 C-23.47 11 -21.02 9.55 -18.57 8.11 C-16.2 6.72 -13.85 5.3 -11.51 3.86 C-10.45 3.21 -9.38 2.56 -8.27 1.89 C-7.33 1.31 -6.38 0.73 -5.4 0.13 C-3 -1 -3 -1 0 0 Z " fill="#1D1D1D" transform="translate(324,26)"/>
<path d="M0 0 C4.3 0.59 7.27 2.12 10.97 4.35 C11.25 4.52 11.25 4.52 12.68 5.37 C14.48 6.45 16.27 7.54 18.06 8.62 C19.82 9.68 21.59 10.74 23.35 11.8 C24.51 12.5 25.68 13.2 26.84 13.9 C29.7 15.63 32.57 17.33 35.48 18.98 C36.56 19.59 37.63 20.2 38.75 20.84 C39.71 21.38 40.68 21.91 41.67 22.47 C44 24 44 24 46 27 C43 28 43 28 40.68 27.14 C32.3 22.81 24.17 18.11 16.09 13.25 C14.09 12.05 12.08 10.88 10.06 9.72 C8.87 9.02 7.69 8.32 6.5 7.62 C5.46 7.02 4.42 6.41 3.34 5.79 C1 4 1 4 0.16 1.77 C0.1 1.19 0.05 0.6 0 0 Z " fill="#191919" transform="translate(279,93)"/>
<path d="M0 0 C1.32 0 2.64 0 4 0 C4 15.84 4 31.68 4 48 C2.68 47.67 1.36 47.34 0 47 C0 31.49 0 15.98 0 0 Z " fill="#141617" transform="translate(359,49)"/>
<path d="M0 0 C0.66 0.33 1.32 0.66 2 1 C2 1.99 2 2.98 2 4 C1.34 4 0.68 4 0 4 C0 4.66 0 5.32 0 6 C0.99 6.66 1.98 7.32 3 8 C2.67 9.65 2.34 11.3 2 13 C-0.62 13.19 -3.25 13.38 -5.88 13.56 C-6.25 13.59 -6.25 13.59 -8.14 13.73 C-13.77 14.11 -13.77 14.11 -16 13 C-15.67 17.29 -15.34 21.58 -15 26 C-10.05 26.33 -5.1 26.66 0 27 C-0.33 28.32 -0.66 29.64 -1 31 C-1 30.01 -1 29.02 -1 28 C-6.28 28 -11.56 28 -17 28 C-17.23 24.68 -17.46 21.36 -17.68 18.04 C-18 15 -18 15 -19 13 C-18.34 13 -17.68 13 -17 13 C-17 12.01 -17 11.02 -17 10 C-16.02 9.45 -15.05 8.89 -14.04 8.32 C-12.76 7.59 -11.47 6.86 -10.19 6.12 C-9.54 5.76 -8.9 5.4 -8.24 5.02 C-5.43 3.42 -2.69 1.79 0 0 Z " fill="#D9F3FC" transform="translate(315,33)"/>
<path d="M0 0 C2.6 2.6 2.26 3.71 2.29 7.34 C2.3 8.45 2.31 9.57 2.33 10.71 C2.33 11.92 2.34 13.13 2.34 14.38 C2.36 15.61 2.37 16.85 2.39 18.12 C2.44 22.75 2.48 27.39 2.52 32.02 C2.55 36.56 2.6 41.09 2.66 45.62 C2.66 46.83 2.67 48.04 2.67 49.29 C2.69 50.4 2.7 51.52 2.71 52.66 C2.72 53.65 2.73 54.63 2.73 55.65 C3 58 3 58 5 60 C4 61 4 61 1.44 61.06 C0.63 61.04 -0.17 61.02 -1 61 C-1.02 53.34 -1.04 45.68 -1.05 38.03 C-1.06 34.47 -1.06 30.91 -1.08 27.36 C-1.09 23.27 -1.09 19.19 -1.1 15.1 C-1.1 14.46 -1.1 14.46 -1.11 11.22 C-1.11 10.04 -1.11 8.86 -1.11 7.64 C-1.12 6.6 -1.12 5.56 -1.12 4.48 C-1 2 -1 2 0 0 Z " fill="#020202" transform="translate(271,43)"/>
<path d="M0 0 C-0.92 0.25 -1.85 0.49 -2.8 0.75 C-7.15 2.52 -10.35 4.02 -13 8 C-15.5 17.12 -14.54 27.14 -14.31 36.5 C-14.29 39.16 -14.28 41.82 -14.28 44.48 C-14.25 50.99 -14.16 57.49 -14 64 C-14.33 64 -14.66 64 -15 64 C-15.33 45.52 -15.66 27.04 -16 8 C-16.33 8 -16.66 8 -17 8 C-17.33 27.14 -17.66 46.28 -18 66 C-18.33 66 -18.66 66 -19 66 C-19.28 58.3 -19.49 50.6 -19.62 42.89 C-19.68 39.31 -19.77 35.74 -19.91 32.16 C-20.04 28.71 -20.11 25.25 -20.14 21.8 C-20.17 19.84 -20.26 17.89 -20.36 15.94 C-20.36 12.26 -20.24 9.47 -19 6 C-14.09 1.54 -6.14 -4.09 0 0 Z " fill="#686B6C" transform="translate(288,37)"/>
<path d="M0 0 C1.44 -0.05 2.87 -0.09 4.31 -0.12 C5.11 -0.15 5.91 -0.17 6.74 -0.2 C9 0 9 0 12 2 C12.29 4.6 12.29 4.6 12.19 7.62 C12.16 8.63 12.13 9.63 12.11 10.66 C12.07 11.43 12.04 12.21 12 13 C9.36 13.66 6.72 14.32 4 15 C4 15.66 4 16.32 4 17 C2.35 17 0.7 17 -1 17 C-0.67 17.66 -0.34 18.32 0 19 C2.31 19.73 4.65 20.4 7 21 C7 21.33 7 21.66 7 22 C-0.88 21.12 -0.88 21.12 -2 20 C-2.04 18 -2.04 16 -2 14 C-1.34 13.67 -0.68 13.34 0 13 C0.62 9.94 0.62 9.94 1 7 C1.66 7 2.32 7 3 7 C2.01 4.69 1.02 2.38 0 0 Z " fill="#D1EFF9" transform="translate(198,63)"/>
<path d="M0 0 C-0.66 0.33 -0.66 0.33 -4 2 C-4 2.66 -4 3.32 -4 4 C-5.98 4.33 -7.96 4.66 -10 5 C-10 5.66 -10 6.32 -10 7 C-10.99 7.66 -11.98 8.32 -13 9 C-13.36 11.99 -13.56 14.81 -13.62 17.81 C-13.94 27.72 -13.94 27.72 -15 32 C-16.32 32 -17.64 32 -19 32 C-19.75 28.75 -19.75 28.75 -20 25 C-19.36 24.38 -18.72 23.76 -18.06 23.12 C-15.6 20.59 -15.67 19.8 -15.62 16.38 C-15.69 12.31 -15.69 12.31 -18 10 C-20.32 9.6 -22.66 9.26 -25 9 C-25 8.67 -25 8.34 -25 8 C-23.35 8 -21.7 8 -20 8 C-20 5.36 -20 2.72 -20 0 C-17.62 -0.19 -17.62 -0.19 -15 0 C-14.34 0.99 -13.68 1.98 -13 3 C-12.57 2.53 -12.13 2.05 -11.69 1.56 C-8 -1.85 -4.61 -0.78 0 0 Z " fill="#C6ECF7" transform="translate(162,53)"/>
<path d="M0 0 C0.99 0 1.98 0 3 0 C3.56 0.57 4.13 1.13 4.71 1.72 C8.19 5.19 12.41 7.27 16.69 9.64 C22.79 13.16 22.79 13.16 24 17 C22.31 17.69 22.31 17.69 20 18 C18.32 17.03 16.65 16.02 15 15 C14.07 14.88 13.14 14.75 12.19 14.62 C8.39 13.88 6 12.31 2.83 10.16 C1 9 1 9 -2 8 C-2.12 5.12 -2.12 5.12 -2 2 C-1.34 1.34 -0.68 0.68 0 0 Z " fill="#EFEFEF" transform="translate(276,94)"/>
<path d="M0 0 C1.32 0.33 2.64 0.66 4 1 C4 19.48 4 37.96 4 57 C3.67 57 3.34 57 3 57 C2.67 40.5 2.34 24 2 7 C1.34 7 0.68 7 0 7 C0.33 7.66 0.66 8.32 1 9 C1.13 11.67 1.04 14.32 1 17 C0.01 17 -0.98 17 -2 17 C-2 28.55 -2 40.1 -2 52 C-2.33 52 -2.66 52 -3 52 C-3 36.49 -3 20.98 -3 5 C-3.99 4.67 -4.98 4.34 -6 4 C-5.67 3.34 -5.34 2.68 -5 2 C-3.68 2 -2.36 2 -1 2 C-0.67 1.34 -0.34 0.68 0 0 Z " fill="#BCBFC0" transform="translate(366,44)"/>
<path d="M0 0 C1.32 0 2.64 0 4 0 C4 5.94 4 11.88 4 18 C2.39 18.06 0.78 18.12 -0.88 18.19 C-1.78 18.22 -2.68 18.26 -3.62 18.29 C-4.01 18.24 -4.01 18.24 -6 18 C-8.33 14.51 -8.42 13.1 -8 9 C-6.75 6.62 -6.75 6.62 -5 5 C-3.68 5 -2.36 5 -1 5 C-0.67 3.35 -0.34 1.7 0 0 Z " fill="#282B2E" transform="translate(235,58)"/>
<path d="M0 0 C3 2 3 2 3.68 4.31 C3.99 6.93 4.11 9.44 4.1 12.08 C4.09 13.01 4.09 13.94 4.09 14.9 C4.08 15.86 4.07 16.82 4.06 17.81 C4.06 18.79 4.05 19.77 4.05 20.78 C4.04 23.19 4.02 25.59 4 28 C5.65 28 7.3 28 9 28 C9 20.08 9 12.16 9 4 C9.99 3.67 10.98 3.34 12 3 C12 3.66 12 4.32 12 5 C11.34 5 10.68 5 10 5 C10 12.92 10 20.84 10 29 C8.02 29 6.04 29 4 29 C4 29.66 4 30.32 4 31 C3.34 31 2.68 31 2 31 C2 21.76 2 12.52 2 3 C-0.97 3 -3.94 3 -7 3 C-9.56 5.56 -9.28 6.63 -9.38 10.19 C-9.41 11.22 -9.45 12.24 -9.48 13.3 C-9.51 14.38 -9.54 15.45 -9.56 16.56 C-9.62 18.69 -9.69 20.82 -9.75 22.94 C-9.78 23.89 -9.8 24.83 -9.83 25.81 C-10 28 -10 28 -11 29 C-13 29.04 -15 29.04 -17 29 C-17 28.67 -17 28.34 -17 28 C-15.35 28 -13.7 28 -12 28 C-12.02 27.36 -12.04 26.72 -12.06 26.06 C-12.15 23.14 -12.2 20.23 -12.25 17.31 C-12.27 16.81 -12.27 16.81 -12.35 14.26 C-12.45 6.75 -12.45 6.75 -10.11 2.86 C-6.68 -0.16 -4.52 -0.28 0 0 Z " fill="#EBFAFD" transform="translate(428,57)"/>
<path d="M0 0 C2.31 0 4.62 0 7 0 C11 6.62 11 6.62 11 10 C10.01 9.34 9.02 8.68 8 8 C8.3 8.74 8.6 9.47 8.91 10.23 C9.29 11.21 9.67 12.18 10.06 13.19 C10.45 14.15 10.83 15.11 11.22 16.11 C12.06 19.21 11.89 20.95 11 24 C10.34 24 9.68 24 9 24 C9 24.99 9 25.98 9 27 C8.34 27 7.68 27 7 27 C6.67 27.83 6.67 27.83 5 32 C3.35 32 1.7 32 0 32 C0.33 30.35 0.66 28.7 1 27 C1.66 27 2.32 27 3 27 C3.27 26.07 3.54 25.14 3.81 24.19 C5 21 5 21 6.69 19.44 C8 18 8 18 8 15.81 C6.8 12.44 5.06 9.73 3.06 6.77 C2 5 2 5 2 3 C1.34 3 0.68 3 0 3 C0 2.01 0 1.02 0 0 Z " fill="#C6EDFB" transform="translate(75,53)"/>
<path d="M0 0 C1.32 0 2.64 0 4 0 C4 2.31 4 4.62 4 7 C5.98 7 7.96 7 10 7 C10 4.69 10 2.38 10 0 C10.99 0 11.98 0 13 0 C13 5.61 13 11.22 13 17 C12.01 17 11.02 17 10 17 C10 14.69 10 12.38 10 10 C8.02 10 6.04 10 4 10 C4 12.31 4 14.62 4 17 C2.68 17 1.36 17 0 17 C0 11.39 0 5.78 0 0 Z " fill="#2C2C2C" transform="translate(457,17)"/>
<path d="M0 0 C1.32 0 2.64 0 4 0 C4 2.31 4 4.62 4 7 C5.98 7 7.96 7 10 7 C10 4.69 10 2.38 10 0 C10.99 0 11.98 0 13 0 C13 5.61 13 11.22 13 17 C12.01 17 11.02 17 10 17 C10 14.36 10 11.72 10 9 C8.02 9 6.04 9 4 9 C4 11.64 4 14.28 4 17 C2.68 17 1.36 17 0 17 C0 11.39 0 5.78 0 0 Z " fill="#2F2E2F" transform="translate(150,62)"/>
<path d="M0 0 C8.58 0 17.16 0 26 0 C26 2.31 26 4.62 26 7 C19.73 7 13.46 7 7 7 C7 10.96 7 14.92 7 19 C12.94 18.67 18.88 18.34 25 18 C24.67 19.98 24.34 21.96 24 24 C23.34 24 22.68 24 22 24 C22 22.68 22 21.36 22 20 C16.72 20 11.44 20 6 20 C6 15.05 6 10.1 6 5 C11.94 5 17.88 5 24 5 C24 3.68 24 2.36 24 1 C16.08 1.33 8.16 1.66 0 2 C0 1.34 0 0.68 0 0 Z " fill="#EBFAFD" transform="translate(44,40)"/>
<path d="M0 0 C1.98 0 3.96 0 6 0 C6 5.28 6 10.56 6 16 C5.01 16.33 4.02 16.66 3 17 C3 18.98 3 20.96 3 23 C2.01 22.67 1.02 22.34 0 22 C0 14.74 0 7.48 0 0 Z " fill="#C6EDFA" transform="translate(232,41)"/>
<path d="M0 0 C-0.31 1.86 -0.31 1.86 -1 4 C-3.32 5.65 -5.53 7.05 -8 8.44 C-8.68 8.83 -9.35 9.22 -10.05 9.62 C-12.03 10.76 -14.01 11.88 -16 13 C-16.99 13.56 -17.98 14.12 -19 14.7 C-20.99 15.81 -22.99 16.92 -25 18 C-25 17.01 -25 16.02 -25 15 C-25.66 14.67 -26.32 14.34 -27 14 C-24.31 12.42 -21.63 10.83 -18.94 9.25 C-18.19 8.81 -17.43 8.36 -16.66 7.91 C-15.16 7.02 -13.66 6.14 -12.16 5.27 C-10.76 4.45 -9.37 3.62 -7.98 2.78 C-3.33 0 -3.33 0 0 0 Z " fill="#131313" transform="translate(403,25)"/>
<path d="M0 0 C0.99 0 1.98 0 3 0 C3 2.31 3 4.62 3 7 C5.31 7 7.62 7 10 7 C10 4.69 10 2.38 10 0 C10.99 0 11.98 0 13 0 C13 5.61 13 11.22 13 17 C12.01 17 11.02 17 10 17 C10 14.36 10 11.72 10 9 C7.69 9 5.38 9 3 9 C3 11.31 3 13.62 3 16 C2.01 16 1.02 16 0 16 C0 10.72 0 5.44 0 0 Z " fill="#161718" transform="translate(107,62)"/>
<path d="M0 0 C-0.33 3.3 -0.66 6.6 -1 10 C-3.31 10 -5.62 10 -8 10 C-8 10.66 -8 11.32 -8 12 C-8.99 12 -9.98 12 -11 12 C-11 8.04 -11 4.08 -11 0 C-6.51 -0.9 -4.32 -0.9 0 0 Z " fill="#F1FAFC" transform="translate(240,76)"/>
<path d="M0 0 C6.27 0 12.54 0 19 0 C16 2 16 2 3 2 C2.67 15.53 2.34 29.06 2 43 C2.66 43.33 3.32 43.66 4 44 C2.68 44 1.36 44 0 44 C0 29.48 0 14.96 0 0 Z " fill="#CFECF6" transform="translate(249,41)"/>
<path d="M0 0 C0.33 0 0.66 0 1 0 C2.47 11.95 2.09 23.99 2 36 C0.19 37.06 0.19 37.06 -2 38 C-2.99 37.67 -3.98 37.34 -5 37 C-4.67 36.01 -4.34 35.02 -4 34 C-3.67 33.84 -3.67 33.84 -2 33 C-1.97 32.04 -1.95 31.07 -1.92 30.08 C-1.83 26.51 -1.73 22.95 -1.63 19.38 C-1.58 17.84 -1.54 16.29 -1.5 14.75 C-1.45 12.53 -1.38 10.31 -1.32 8.1 C-1.3 7.4 -1.28 6.71 -1.27 5.99 C-1.11 1.11 -1.11 1.11 0 0 Z " fill="#020101" transform="translate(371,68)"/>
<path d="M0 0 C0 0.99 0 1.98 0 3 C-3.41 5.04 -6.83 7.05 -10.25 9.06 C-11.22 9.64 -12.19 10.22 -13.18 10.82 C-14.12 11.37 -15.05 11.91 -16.02 12.47 C-16.87 12.98 -17.73 13.49 -18.62 14.01 C-21.29 15.12 -22.35 15.03 -25 14 C-24.67 13.34 -24.34 12.68 -24 12 C-23.34 12 -22.68 12 -22 12 C-22 11.34 -22 10.68 -22 10 C-19.09 8.32 -16.17 6.66 -13.25 5 C-12.43 4.52 -11.6 4.05 -10.75 3.55 C-9.95 3.1 -9.15 2.65 -8.33 2.19 C-7.59 1.77 -6.86 1.35 -6.11 0.92 C-4 0 -4 0 0 0 Z " fill="#121212" transform="translate(345,117)"/>
<path d="M0 0 C0.58 0.17 1.16 0.33 1.75 0.5 C4.45 1.1 6.34 0.66 9 0 C9.09 5.15 8.85 9.92 8 15 C7.01 14.34 6.02 13.68 5 13 C5.66 13 6.32 13 7 13 C6.67 12.34 6.34 11.68 6 11 C4.02 11 2.04 11 0 11 C-1.63 7.75 -1.11 4.61 -1 1 C-0.67 0.67 -0.34 0.34 0 0 Z " fill="#E9EAE8" transform="translate(97,65)"/>
<path d="M0 0 C10.65 -0.39 18.46 5.31 27 11 C26.34 11.66 25.68 12.32 25 13 C25.66 13.66 26.32 14.32 27 15 C23.44 14.32 20.71 12.85 17.58 11.06 C16.55 10.48 15.53 9.89 14.47 9.29 C13.41 8.68 12.35 8.07 11.25 7.44 C10.17 6.82 9.09 6.21 7.98 5.57 C5.32 4.05 2.66 2.53 0 1 C0 0.67 0 0.34 0 0 Z " fill="#212121" transform="translate(296,118)"/>
<path d="M0 0 C4.63 0.43 8.3 2.59 12.25 4.88 C12.89 5.23 13.52 5.58 14.18 5.94 C18.88 8.63 18.88 8.63 20 12 C20.66 12.33 21.32 12.66 22 13 C15.22 13.65 11.61 10.45 6.22 6.75 C2.77 4.87 0.86 4.63 -3 5 C-1.12 1.12 -1.12 1.12 0 0 Z " fill="#161616" transform="translate(320,14)"/>
<path d="M0 0 C3.17 -0.22 5.35 -0.35 8.18 1.16 C10 3 10 3 10.43 5.66 C10.39 6.64 10.35 7.62 10.31 8.62 C10.29 9.61 10.26 10.59 10.24 11.6 C10 14 10 14 9 15 C7 15.04 5 15.04 3 15 C2.67 14.34 2.34 13.68 2 13 C3.32 13 4.64 13 6 13 C6 12.01 6 11.02 6 10 C5.01 10 4.02 10 3 10 C3 9.34 3 8.68 3 8 C3.99 8 4.98 8 6 8 C6 7.34 6 6.68 6 6 C4.02 6 2.04 6 0 6 C0 4.02 0 2.04 0 0 Z " fill="#C0E7F4" transform="translate(120,67)"/>
<path d="M0 0 C3.06 0.25 3.06 0.25 6 1 C7.51 4.01 7.18 6.68 7 10 C5 12 5 12 2.5 12.25 C0 12 0 12 -2 10 C-2.27 8.12 -2.27 8.12 -2.25 6 C-2.26 5.3 -2.26 4.6 -2.27 3.88 C-2 2 -2 2 0 0 Z " fill="#F4F6F6" transform="translate(137,64)"/>
<path d="M0 0 C0.53 0.13 0.53 0.13 3.19 0.81 C3.19 1.8 3.19 2.79 3.19 3.81 C0.88 3.81 -1.43 3.81 -3.81 3.81 C-4.94 10.56 -4.94 10.56 -3.81 12.81 C-1.5 12.81 0.81 12.81 3.19 12.81 C3.19 14.13 3.19 15.45 3.19 16.81 C-4.01 17.29 -4.01 17.29 -7.31 15.31 C-9.41 11.82 -9.69 8.71 -8.81 4.81 C-6.05 0.71 -5 -0.25 0 0 Z " fill="#141414" transform="translate(415.8125,17.1875)"/>
<path d="M0 0 C1.07 0.1 2.14 0.21 3.25 0.31 C3.58 1.3 3.91 2.29 4.25 3.31 C3.28 3.29 2.31 3.27 1.31 3.25 C-1.75 3.31 -1.75 3.31 -2.75 4.31 C-2.82 6 -2.83 7.69 -2.81 9.38 C-2.81 9.83 -2.81 9.83 -2.79 12.16 C-2.77 12.87 -2.76 13.58 -2.75 14.31 C-1.59 14.15 -1.59 14.15 4.25 13.31 C4.25 14.3 4.25 15.29 4.25 16.31 C-2.38 17.44 -2.38 17.44 -5.75 16.31 C-7.75 12.63 -8.27 9.46 -7.75 5.31 C-5.54 1.25 -4.68 0.39 0 0 Z " fill="#0F1014" transform="translate(99.75,61.6875)"/>
<path d="M0 0 C0.41 2.07 0.41 2.07 0.62 4.56 C0.7 5.39 0.77 6.22 0.85 7.07 C0.9 7.7 0.95 8.34 1 9 C0.67 7.68 0.34 6.36 0 5 C-0.66 5 -1.32 5 -2 5 C-2 4.34 -2 3.68 -2 3 C-4.25 3.31 -6.5 3.62 -8.75 3.94 C-10 4.11 -11.26 4.29 -12.55 4.46 C-15.1 4.86 -17.52 5.3 -20 6 C-20 4.35 -20 2.7 -20 1 C-14.08 -1.11 -5.87 -2.93 0 0 Z " fill="#C3EDFB" transform="translate(128,53)"/>
<path d="M0 0 C0.66 0 1.32 0 2 0 C2.87 2.99 3.11 5.64 3.06 8.75 C3.05 9.55 3.04 10.35 3.04 11.17 C3.02 11.78 3.01 12.38 3 13 C3.99 13 4.98 13 6 13 C5.28 14.95 5.28 14.95 4 17 C1.94 17.64 1.94 17.64 -0.44 17.81 C-0.83 17.85 -0.83 17.85 -2.81 18.02 C-5 18 -5 18 -8 17 C-8 16.34 -8 15.68 -8 15 C-5 13 -5 13 0 13 C0 8.71 0 4.42 0 0 Z " fill="#F8FAFB" transform="translate(210,63)"/>
<path d="M0 0 C1.26 2.52 1.1 4.31 1.06 7.12 C1.05 8.04 1.04 8.95 1.04 9.88 C1.02 10.58 1.01 11.28 1 12 C0.01 12 -0.98 12 -2 12 C-2.33 8.7 -2.66 5.4 -3 2 C-3.99 2.33 -4.98 2.66 -6 3 C-6.33 5.97 -6.66 8.94 -7 12 C-7.99 12 -8.98 12 -10 12 C-10 8.04 -10 4.08 -10 0 C-3.96 -1.21 -3.96 -1.21 0 0 Z " fill="#28282B" transform="translate(224,64)"/>
<path d="M0 0 C1.32 0 2.64 0 4 0 C3.67 2.31 3.34 4.62 3 7 C3.99 7.16 3.99 7.16 9 8 C8.34 8.66 7.68 9.32 7 10 C5.87 9.96 4.73 9.92 3.56 9.88 C0 10 0 10 -1.88 11.62 C-3.2 14.41 -3.65 16.95 -4 20 C-6 18 -6 18 -6.05 15.76 C-5.95 14.89 -5.85 14.02 -5.75 13.12 C-5.66 12.26 -5.57 11.4 -5.48 10.51 C-5 8.02 -4.25 6.19 -3 4 C-2.34 4 -1.68 4 -1 4 C-0.67 2.68 -0.34 1.36 0 0 Z " fill="#B9E2F1" transform="translate(96,53)"/>
<path d="M0 0 C3 0.12 3 0.12 4 1.12 C4.48 8.49 4.48 8.49 2.5 11.12 C2 11.45 1.51 11.79 1 12.12 C0.18 11.8 0.18 11.8 -4 10.12 C-4.03 8.65 -4.05 7.17 -4.06 5.69 C-4.07 4.86 -4.09 4.04 -4.1 3.19 C-3.94 -0.14 -3.39 0.14 0 0 Z " fill="#F1F1F1" transform="translate(447,19.875)"/>
<path d="M0 0 C0.33 0 0.66 0 1 0 C1.33 2.97 1.66 5.94 2 9 C1.34 9 0.68 9 0 9 C-0.33 10.32 -0.66 11.64 -1 13 C-1.66 12.67 -2.32 12.34 -3 12 C-3.33 12 -3.66 12 -4 12 C-5.03 13.65 -6.03 15.32 -7 17 C-9.97 16.01 -12.94 15.02 -16 14 C-15.67 12.68 -15.34 11.36 -15 10 C-14.31 10.06 -13.63 10.12 -12.92 10.18 C-10.21 10.31 -7.69 10.35 -5 10 C-3 7.81 -3 7.81 -2 5 C-1.61 4.07 -1.22 3.14 -0.81 2.19 C-0.54 1.47 -0.28 0.74 0 0 Z " fill="#FAFAFA" transform="translate(438,23)"/>
<path d="M0 0 C0.48 0.01 0.48 0.01 2.94 0.06 C4.44 3.08 4.12 5.75 3.94 9.06 C1.94 11.06 1.94 11.06 -0.62 11.25 C-3.06 11.06 -3.06 11.06 -4.06 10.06 C-4.16 8.57 -4.19 7.06 -4.19 5.56 C-4.19 4.75 -4.19 3.93 -4.2 3.09 C-3.98 -0.24 -3.42 0.07 0 0 Z " fill="#F6F6F6" transform="translate(429.0625,19.9375)"/>
<path d="M0 0 C0.66 0.16 0.66 0.16 4 1 C4 8.26 4 15.52 4 23 C2.35 23 0.7 23 -1 23 C-1 21.35 -1 19.7 -1 18 C-0.01 18.33 0.98 18.66 2 19 C2 17.02 2 15.04 2 13 C1.34 13 0.68 13 0 13 C0 8.71 0 4.42 0 0 Z " fill="#C3ECFC" transform="translate(164,62)"/>
<path d="M0 0 C6.88 0.88 6.88 0.88 8 2 C8.07 3.85 8.08 5.71 8.06 7.56 C8.05 8.57 8.04 9.59 8.04 10.63 C8.02 11.41 8.01 12.19 8 13 C5.03 13 2.06 13 -1 13 C-1.33 11.35 -1.66 9.7 -2 8 C-1.67 8.16 -1.67 8.16 0 9 C0 9.66 0 10.32 0 11 C1.94 10.69 1.94 10.69 4 10 C4.33 9.01 4.66 8.02 5 7 C3.68 6.67 2.36 6.34 1 6 C2.32 6 3.64 6 5 6 C5 5.01 5 4.02 5 3 C3.02 3 1.04 3 -1 3 C-0.67 2.01 -0.34 1.02 0 0 Z " fill="#191919" transform="translate(202,63)"/>
<path d="M0 0 C5.28 0 10.56 0 16 0 C16 0.66 16 1.32 16 2 C16.82 2.17 16.82 2.17 21 3 C17.9 6.1 15.61 5.99 11.25 6.06 C10.18 6.04 9.1 6.02 8 6 C7.67 5.34 7.34 4.68 7 4 C4.69 3.27 2.35 2.6 0 2 C0 1.34 0 0.68 0 0 Z " fill="#CCEFFC" transform="translate(197,80)"/>
<path d="M0 0 C1.98 0 3.96 0 6 0 C6 2.97 6 5.94 6 9 C5.67 9.16 5.67 9.16 4 10 C4.99 10.33 5.98 10.66 7 11 C3.7 11 0.4 11 -3 11 C-3 9.68 -3 8.36 -3 7 C-2.01 7 -1.02 7 0 7 C0 4.69 0 2.38 0 0 Z " fill="#FBFBFB" transform="translate(461,27)"/>
<path d="M0 0 C0.99 0 1.98 0 3 0 C4.57 3.14 4.35 5.54 4 9 C1.94 11.94 1.94 11.94 -1 14 C-4.81 14.31 -4.81 14.31 -8 14 C-8.66 12.68 -9.32 11.36 -10 10 C-7.03 10.33 -4.06 10.66 -1 11 C-0.67 7.37 -0.34 3.74 0 0 Z " fill="#242424" transform="translate(451,20)"/>
<path d="M0 0 C0.66 0.33 1.32 0.66 2 1 C3.54 1.22 5.08 1.41 6.62 1.56 C7.44 1.65 8.26 1.73 9.1 1.82 C9.73 1.88 10.35 1.94 11 2 C11 3.32 11 4.64 11 6 C8.37 6.05 5.75 6.09 3.12 6.12 C2.38 6.14 1.63 6.16 0.86 6.18 C-1.09 6.19 -3.05 6.1 -5 6 C-5.66 5.34 -6.32 4.68 -7 4 C-1.73 0.78 -1.73 0.78 0 0 Z " fill="#C1E8F7" transform="translate(305,39)"/>
<path d="M0 0 C0.38 0.08 0.38 0.08 2.31 0.5 C5 1 5 1 8 1 C8 1.99 8 2.98 8 4 C8.66 4 9.32 4 10 4 C10.33 5.98 10.66 7.96 11 10 C10.01 10.66 10.01 10.66 5 14 C4.67 10.7 4.34 7.4 4 4 C3.34 4 2.68 4 2 4 C2 3.01 2 2.02 2 1 C1.34 0.67 0.68 0.34 0 0 Z " fill="#F0FAFB" transform="translate(126,52)"/>
<path d="M0 0 C0.99 0 1.98 0 3 0 C3 5.61 3 11.22 3 17 C2.01 17 1.02 17 0 17 C0 14.36 0 11.72 0 9 C-1.65 9 -3.3 9 -5 9 C-5 8.34 -5 7.68 -5 7 C-3.35 7 -1.7 7 0 7 C0 4.69 0 2.38 0 0 Z " fill="#111111" transform="translate(467,17)"/>
<path d="M0 0 C0 0.66 0 1.32 0 2 C0.99 2.16 0.99 2.16 6 3 C6 3.33 6 3.66 6 4 C4.35 4 2.7 4 1 4 C1 7.96 1 11.92 1 16 C0.67 16 0.34 16 0 16 C-0.33 11.71 -0.66 7.42 -1 3 C-1.66 3 -2.32 3 -3 3 C-3.33 3.66 -3.66 4.32 -4 5 C-5.98 4.34 -7.96 3.68 -10 3 C-10 2.34 -10 1.68 -10 1 C-6.22 -0.84 -4.05 -1.16 0 0 Z " fill="#B9DAE5" transform="translate(213,60)"/>
<path d="M0 0 C5.97 1.57 10.83 4.75 16 8 C15.34 8.66 14.68 9.32 14 10 C12.23 9.38 10.46 8.75 8.69 8.12 C7.7 7.78 6.72 7.43 5.7 7.07 C3 6 3 6 0 4 C0 2.68 0 1.36 0 0 Z " fill="#0B0B0B" transform="translate(288,110)"/>
<path d="M0 0 C2.88 0.31 2.88 0.31 6 1 C8.29 4.44 8.18 5.99 8 10 C6.35 10 4.7 10 3 10 C2.67 9.01 2.34 8.02 2 7 C1.01 6.34 0.02 5.68 -1 5 C-0.01 4.67 0.98 4.34 2 4 C1.34 3.67 0.68 3.34 0 3 C0 2.01 0 1.02 0 0 Z " fill="#F5FAFA" transform="translate(118,56)"/>
<path d="M0 0 C0.66 0 1.32 0 2 0 C3.49 2.99 3.18 6.04 3.19 9.31 C3.2 10.63 3.22 11.94 3.23 13.3 C3.02 16.72 2.49 18.95 1 22 C0.67 22 0.34 22 0 22 C0 14.74 0 7.48 0 0 Z " fill="#F4FBFB" transform="translate(274,52)"/>
<path d="M0 0 C0.33 0 0.66 0 1 0 C1 7.59 1 15.18 1 23 C0.34 23 -0.32 23 -1 23 C-1 23.66 -1 24.32 -1 25 C-1.99 25 -2.98 25 -4 25 C-4 22.03 -4 19.06 -4 16 C-3.01 16 -2.02 16 -1 16 C-0.67 10.72 -0.34 5.44 0 0 Z " fill="#F9FEFE" transform="translate(368,59)"/>
<path d="M0 0 C1.5 1.38 1.5 1.38 3 3 C3 3.66 3 4.32 3 5 C1.35 5.33 -0.3 5.66 -2 6 C-2.33 7.65 -2.66 9.3 -3 11 C-2.01 11.33 -1.02 11.66 0 12 C-1.65 13.65 -3.3 15.3 -5 17 C-5.13 14.73 -5.23 12.46 -5.31 10.19 C-5.37 8.92 -5.43 7.66 -5.49 6.36 C-5 3 -5 3 -2.48 1.05 C-1.66 0.7 -0.84 0.36 0 0 Z " fill="#FBFDFE" transform="translate(379,42)"/>
<path d="M0 0 C5 1.34 9.19 3.48 13 7 C13 7.66 13 8.32 13 9 C8.71 9.37 6.66 8.48 3.19 6 C2.4 5.44 1.61 4.89 0.79 4.31 C0.2 3.88 -0.39 3.45 -1 3 C-0.67 2.01 -0.34 1.02 0 0 Z " fill="#131313" transform="translate(297,103)"/>
<path d="M0 0 C2.31 0 4.62 0 7 0 C7 2.64 7 5.28 7 8 C5 8.04 3 8.04 1 8 C0 7 0 7 -0.06 3.44 C-0.04 2.3 -0.02 1.17 0 0 Z " fill="#C9EFFA" transform="translate(326,78)"/>
<path d="M0 0 C0.33 0 0.66 0 1 0 C1 5.28 1 10.56 1 16 C1.99 16 2.98 16 4 16 C4 13.69 4 11.38 4 9 C6.31 9 8.62 9 11 9 C11 11.31 11 13.62 11 16 C10.67 16 10.34 16 10 16 C10 14.02 10 12.04 10 10 C8.35 10 6.7 10 5 10 C5 12.31 5 14.62 5 17 C3.35 17 1.7 17 0 17 C-0.33 12.71 -0.66 8.42 -1 4 C-2.65 4.33 -4.3 4.66 -6 5 C-6.66 4.67 -7.32 4.34 -8 4 C-8 3.34 -8 2.68 -8 2 C-7.01 2.17 -7.01 2.17 -2 3 C-1.67 2.34 -1.34 1.68 -1 1 C-0.67 0.67 -0.34 0.34 0 0 Z " fill="#AFB7BA" transform="translate(106,62)"/>
<path d="M0 0 C2 3 2 3 2 5 C3.65 5.33 5.3 5.66 7 6 C7.66 7.98 8.32 9.96 9 12 C7.02 12 5.04 12 3 12 C-1.06 5.72 -1.06 5.72 -0.75 2.06 C-0.5 1.38 -0.25 0.7 0 0 Z " fill="#C5EDFA" transform="translate(92,73)"/>
<path d="M0 0 C4.99 1.28 7.58 3.17 11 7 C9.31 8.19 9.31 8.19 7 9 C4.44 7.62 4.44 7.62 2 6 C1.01 6 0.02 6 -1 6 C-0.67 4.02 -0.34 2.04 0 0 Z " fill="#F6F6F6" transform="translate(289,103)"/>
<path d="M0 0 C0.99 0 1.98 0 3 0 C3 5.61 3 11.22 3 17 C2.01 17 1.02 17 0 17 C0 14.36 0 11.72 0 9 C-0.66 8.67 -1.32 8.34 -2 8 C-1.34 8 -0.68 8 0 8 C0 5.36 0 2.72 0 0 Z " fill="#1A1B1B" transform="translate(160,62)"/>
<path d="M0 0 C0 0.99 0 1.98 0 3 C-2.08 4.64 -2.08 4.64 -4.81 6.25 C-5.26 6.52 -5.26 6.52 -7.52 7.89 C-10 9 -10 9 -13 8 C-11.72 4.03 -9.29 2.7 -5.85 0.73 C-4 0 -4 0 0 0 Z " fill="#151717" transform="translate(292,45)"/>
<path d="M0 0 C1.98 0 3.96 0 6 0 C6 0.66 6 1.32 6 2 C5.01 2 4.02 2 3 2 C3 2.66 3 3.32 3 4 C3.99 4 4.98 4 6 4 C6 4.99 6 5.98 6 7 C2.37 7.33 -1.26 7.66 -5 8 C-5 6.68 -5 5.36 -5 4 C-4.17 4.33 -4.17 4.33 0 6 C0 4.02 0 2.04 0 0 Z " fill="#F8F7F4" transform="translate(120,73)"/>
<path d="M0 0 C1.65 0.33 3.3 0.66 5 1 C4.01 1.66 3.02 2.32 2 3 C1.81 5.62 1.81 5.62 2 8 C2.82 8.33 2.82 8.33 7 10 C5 12 5 12 2.5 12.31 C2.09 12.26 2.09 12.26 0 12 C-2.31 8.53 -2.34 7.07 -2 3 C-1.34 2.01 -0.68 1.02 0 0 Z " fill="#1E201F" transform="translate(229,64)"/>
<path d="M0 0 C0.33 0 0.66 0 1 0 C2.7 14.78 2.7 14.78 -1 21 C0.32 21.33 1.64 21.66 3 22 C1.69 24 1.69 24 0 26 C-0.99 26 -1.98 26 -3 26 C-3.25 18.61 -3.25 18.61 -2.03 15.66 C-0.78 12.45 -0.58 9.62 -0.38 6.19 C-0.3 5.03 -0.23 3.86 -0.15 2.67 C-0.1 1.79 -0.05 0.91 0 0 Z " fill="#CEEEF9" transform="translate(277,56)"/>
<path d="M0 0 C0.9 0.02 1.8 0.04 2.73 0.05 C3.42 0.08 4.1 0.1 4.81 0.12 C4.81 0.78 4.81 1.45 4.81 2.12 C2.83 2.29 2.83 2.29 -7.19 3.12 C-7.19 4.77 -7.19 6.42 -7.19 8.12 C-6.57 8.43 -5.95 8.74 -5.31 9.06 C-3.94 9.75 -2.56 10.44 -1.19 11.12 C-1.19 12.12 -1.19 13.11 -1.19 14.12 C-2.51 13.8 -3.83 13.47 -5.19 13.12 C-5.19 12.47 -5.19 11.8 -5.19 11.12 C-6.18 11.12 -7.17 11.12 -8.19 11.12 C-8.27 9.67 -8.33 8.21 -8.38 6.75 C-8.41 5.94 -8.44 5.13 -8.48 4.29 C-8.38 3.57 -8.29 2.86 -8.19 2.12 C-4.87 -0.08 -3.84 -0.1 0 0 Z " fill="#EEFBFE" transform="translate(211.1875,44.875)"/>
<path d="M0 0 C3 0.88 3 0.88 6 2 C6.99 2 7.98 2 9 2 C8 5 8 5 6.25 6.25 C3.37 7.21 1.84 7.05 -1 6 C-2.31 3.94 -2.31 3.94 -3 2 C-2.01 1.34 -1.02 0.68 0 0 Z " fill="#F2F2F2" transform="translate(319,121)"/>
<path d="M0 0 C1.65 0.45 3.29 0.91 4.94 1.38 C5.85 1.63 6.77 1.89 7.71 2.15 C10 3 10 3 11 5 C10.05 4.96 9.1 4.92 8.12 4.88 C5 5 5 5 3 7 C3.33 7.66 3.66 8.32 4 9 C0.21 7.55 -3.39 5.85 -7 4 C-6.67 3.01 -6.34 2.02 -6 1 C-3.07 1.98 -1.39 3.11 1 5 C1 4.01 1 3.02 1 2 C0.34 1.67 -0.32 1.34 -1 1 C-0.67 0.67 -0.34 0.34 0 0 Z " fill="#EFEFEF" transform="translate(314,117)"/>
<path d="M0 0 C1.32 0.33 2.64 0.66 4 1 C3.67 1.66 3.34 2.32 3 3 C4.98 3 6.96 3 9 3 C9 5.31 9 7.62 9 10 C7.35 10.33 5.7 10.66 4 11 C2.35 8.02 1.62 5.34 1 2 C0.67 1.34 0.34 0.68 0 0 Z " fill="#D3D4D3" transform="translate(198,63)"/>
<path d="M0 0 C4.11 6.17 4.11 6.17 3.62 9.75 C3.42 10.49 3.21 11.23 3 12 C1.68 11.67 0.36 11.34 -1 11 C-1 10.34 -1 9.68 -1 9 C-1.66 9 -2.32 9 -3 9 C-3.19 5.62 -3.19 5.62 -3 2 C-2.01 1.34 -1.02 0.68 0 0 Z " fill="#BBE6F3" transform="translate(277,43)"/>
<path d="M0 0 C0.99 0.33 1.98 0.66 3 1 C2.83 1.25 2.83 1.25 2 2.5 C0.55 6.14 0.81 9.09 1 13 C1.33 13.66 1.66 14.32 2 15 C-1.96 15 -5.92 15 -10 15 C-9.22 14.38 -8.43 13.76 -7.62 13.12 C-5 11 -5 11 -3 9 C-2.67 9 -2.34 9 -2 9 C-1.34 6.03 -0.68 3.06 0 0 Z " fill="#DCDCDC" transform="translate(407,17)"/>
<path d="M0 0 C1.74 3.48 1.03 7.66 0.96 11.5 C0.92 14.63 1 17.01 2 20 C0.35 20 -1.3 20 -3 20 C-2.89 17.42 -2.76 14.83 -2.62 12.25 C-2.59 11.52 -2.56 10.79 -2.53 10.04 C-2.33 6.26 -2.08 3.22 0 0 Z " fill="#EDF8FD" transform="translate(343,60)"/>
<path d="M0 0 C0 0.99 0 1.98 0 3 C-1.65 3.83 -1.65 3.83 -10 8 C-10.66 7.34 -11.32 6.68 -12 6 C-12 5.34 -12 4.68 -12 4 C-10.57 3.13 -9.13 2.28 -7.69 1.44 C-6.89 0.96 -6.09 0.49 -5.26 -0 C-3 -1 -3 -1 0 0 Z " fill="#1B1B1B" transform="translate(368,104)"/>
<path d="M0 0 C0.33 0 0.66 0 1 0 C1.03 1.9 1.05 3.79 1.06 5.69 C1.07 6.74 1.09 7.8 1.1 8.89 C1.01 11.72 0.65 14.24 0 17 C-1.32 17 -2.64 17 -4 17 C-4.75 13.75 -4.75 13.75 -5 10 C-3.12 7.94 -3.12 7.94 -1 6 C-0.25 2.75 -0.25 2.75 0 0 Z " fill="#BBDEEC" transform="translate(147,68)"/>
<path d="M0 0 C1.65 0.33 3.3 0.66 5 1 C5 3.31 5 5.62 5 8 C2.69 8 0.38 8 -2 8 C-2 5.69 -2 3.38 -2 1 C-1.34 1 -0.68 1 0 1 C0 0.67 0 0.34 0 0 Z " fill="#D0D4D5" transform="translate(112,61)"/>
<path d="M0 0 C0.99 0 1.98 0 3 0 C3 5.28 3 10.56 3 16 C2.01 16 1.02 16 0 16 C0 10.72 0 5.44 0 0 Z " fill="#020303" transform="translate(107,62)"/>
<path d="M0 0 C0.99 0.33 1.98 0.66 3 1 C3 3.97 3 6.94 3 10 C1.35 10 -0.3 10 -2 10 C-2 7.03 -2 4.06 -2 1 C-1.34 0.67 -0.68 0.34 0 0 Z " fill="#C0ECFB" transform="translate(234,75)"/>
<path d="M0 0 C3.16 1.05 5.15 2.68 7.62 4.88 C7.3 5.87 6.96 6.86 6.62 7.88 C2.32 6.31 -1.44 4.19 -5.38 1.88 C-2.38 -0.12 -2.38 -0.12 0 0 Z " fill="#222222" transform="translate(362.375,37.125)"/>
<path d="M0 0 C0.99 0 1.98 0 3 0 C4.61 3.21 4.06 6.44 4 10 C3.01 9.67 2.02 9.34 1 9 C0.67 9.33 0.34 9.66 0 10 C-0.33 10 -0.66 10 -1 10 C-1.03 8.52 -1.05 7.04 -1.06 5.56 C-1.07 4.74 -1.09 3.92 -1.1 3.07 C-1 1 -1 1 0 0 Z " fill="#AFD5E1" transform="translate(218,66)"/>
<path d="M0 0 C0.99 0 1.98 0 3 0 C3 8.25 3 16.5 3 25 C2.67 25 2.34 25 2 25 C1.67 20.38 1.34 15.76 1 11 C0.67 11 0.34 11 0 11 C0 7.37 0 3.74 0 0 Z " fill="#080809" transform="translate(360,49)"/>
<path d="M0 0 C-0.6 0.29 -1.2 0.58 -1.81 0.88 C-4 2 -4 2 -7 4 C-7.51 5.95 -7.51 5.95 -7.69 8.12 C-7.79 9.4 -7.89 10.68 -8 12 C-8.99 11.67 -9.98 11.34 -11 11 C-11.2 7.54 -11.33 4.8 -10 1.56 C-6.81 -0.93 -3.97 -0.26 0 0 Z " fill="#101010" transform="translate(432,18)"/>
<path d="M0 0 C2.31 1.65 4.62 3.3 7 5 C6.34 6.65 5.68 8.3 5 10 C1.64 8.43 -0.38 6.62 -3 4 C-2.01 2.68 -1.02 1.36 0 0 Z " fill="#F7F7F7" transform="translate(268,101)"/>
<path d="M0 0 C1.71 1.62 3.37 3.29 5 5 C5 5.66 5 6.32 5 7 C9.29 6.34 13.58 5.68 18 5 C18 4.34 18 3.68 18 3 C18.66 3 19.32 3 20 3 C20 3.99 20 4.98 20 6 C14.27 8.55 8.16 8.63 2 8 C0 6 0 6 -0.12 2.88 C-0.08 1.93 -0.04 0.98 0 0 Z " fill="#EEFAFD" transform="translate(107,79)"/>
<path d="M0 0 C1.68 0.29 3.34 0.62 5 1 C4.67 2.65 4.34 4.3 4 6 C4.66 6 5.32 6 6 6 C5.67 7.32 5.34 8.64 5 10 C3.35 10.33 1.7 10.66 0 11 C-0.33 10.34 -0.66 9.68 -1 9 C0.32 9 1.64 9 3 9 C3 8.01 3 7.02 3 6 C2.01 6 1.02 6 0 6 C0 5.34 0 4.68 0 4 C0.99 4 1.98 4 3 4 C3 3.34 3 2.68 3 2 C1.68 1.67 0.36 1.34 -1 1 C-0.67 0.67 -0.34 0.34 0 0 Z " fill="#181B21" transform="translate(123,71)"/>
<path d="M0 0 C0.33 0 0.66 0 1 0 C1.37 7.51 1.37 7.51 -0.5 10 C-1 10.33 -1.49 10.66 -2 11 C-2.82 10.67 -2.82 10.67 -7 9 C-6.67 7.68 -6.34 6.36 -6 5 C-6 5.99 -6 6.98 -6 8 C-3.33 5.51 -1.44 3.37 0 0 Z " fill="#ECECEC" transform="translate(450,21)"/>
<path d="M0 0 C0.33 0 0.66 0 1 0 C1 5.28 1 10.56 1 16 C-3 17 -3 17 -6 17 C-5.34 16.36 -4.68 15.72 -4 15.06 C-1.32 10.96 -1.63 7.77 -2 3 C-1.34 3 -0.68 3 0 3 C0 2.01 0 1.02 0 0 Z " fill="#EFEFEF" transform="translate(456,17)"/>
<path d="M0 0 C1.32 0.66 2.64 1.32 4 2 C4 2.66 4 3.32 4 4 C-0.5 6.25 -4.08 6.17 -9 6 C-9 5.01 -9 4.02 -9 3 C-7.97 2.9 -7.97 2.9 -2.85 2.41 C-2.24 2.28 -1.63 2.14 -1 2 C-0.67 1.34 -0.34 0.68 0 0 Z " fill="#C3EDFB" transform="translate(121,80)"/>
<path d="M0 0 C1.65 0 3.3 0 5 0 C4.25 6.62 4.25 6.62 2 10 C-0.31 9.67 -2.62 9.34 -5 9 C-5 8.67 -5 8.34 -5 8 C-3.35 8 -1.7 8 0 8 C0 5.36 0 2.72 0 0 Z " fill="#C3E5EF" transform="translate(142,53)"/>
<path d="M0 0 C0.99 0 1.98 0 3 0 C3.66 2.97 4.32 5.94 5 9 C1.04 9 -2.92 9 -7 9 C-6.34 8.67 -5.68 8.34 -5 8 C-4.67 7.01 -4.34 6.02 -4 5 C-3.01 5.17 -3.01 5.17 2 6 C1.34 5.01 0.68 4.02 0 3 C0 2.01 0 1.02 0 0 Z " fill="#F8FDFD" transform="translate(99,79)"/>
<path d="M0 0 C0.99 0.66 1.98 1.32 3 2 C3.41 5.71 3.48 8.11 1.69 11.44 C0 13 0 13 -3 13 C-2.68 12.44 -2.37 11.88 -2.04 11.3 C-0.93 8.85 -0.61 6.92 -0.38 4.25 C-0.3 3.45 -0.23 2.65 -0.15 1.83 C-0.1 1.22 -0.05 0.62 0 0 Z " fill="#0B1015" transform="translate(144,65)"/>
<path d="M0 0 C0.66 0.33 1.32 0.66 2 1 C2 1.99 2 2.98 2 4 C1.34 4 0.68 4 0 4 C0 4.66 0 5.32 0 6 C-2.71 7.35 -5.01 7.07 -8 7 C-8 6.34 -8 5.68 -8 5 C-6.32 3.68 -6.32 3.68 -4.12 2.31 C-3.41 1.85 -2.69 1.4 -1.95 0.93 C-1.3 0.62 -0.66 0.31 0 0 Z " fill="#F2F2F2" transform="translate(315,33)"/>
<path d="M0 0 C-0.12 1.88 -0.12 1.88 -1 4 C-3.81 5.38 -3.81 5.38 -7 6 C-9.38 5.12 -9.38 5.12 -11 4 C-10.36 3.71 -9.72 3.42 -9.06 3.12 C-7 2 -7 2 -6 0 C-2.49 -1.25 -2.49 -1.25 0 0 Z " fill="#F8F8F8" transform="translate(324,21)"/>
<path d="M0 0 C0 2.31 0 4.62 0 7 C-1.98 7 -3.96 7 -6 7 C-5.67 6.34 -5.34 5.68 -5 5 C-5.99 5 -6.98 5 -8 5 C-8 3.68 -8 2.36 -8 1 C-1.12 0 -1.12 0 0 0 Z " fill="#FDFDFD" transform="translate(106,65)"/>
<path d="M0 0 C0.33 0 0.66 0 1 0 C1.33 2.64 1.66 5.28 2 8 C6.75 8.12 6.75 8.12 9 7 C8.67 7.99 8.34 8.98 8 10 C7.34 10 6.68 10 6 10 C6 10.66 6 11.32 6 12 C3.69 11.67 1.38 11.34 -1 11 C-1.33 10.01 -1.66 9.02 -2 8 C-1.34 8 -0.68 8 0 8 C0 5.36 0 2.72 0 0 Z " fill="#3D3D3D" transform="translate(424,22)"/>
<path d="M0 0 C-0.19 1.81 -0.19 1.81 -1 4 C-3.31 5.81 -3.31 5.81 -6 7 C-8.31 6.69 -8.31 6.69 -10 6 C-9.67 5.34 -9.34 4.68 -9 4 C-8.34 4 -7.68 4 -7 4 C-7 3.34 -7 2.68 -7 2 C-4.35 0.54 -3.11 0 0 0 Z " fill="#0D0D0D" transform="translate(330,125)"/>
<path d="M0 0 C0.33 0.17 0.33 0.17 2 1 C2 1.66 2 2.32 2 3 C5.63 3.33 9.26 3.66 13 4 C13.16 6.54 13.33 9.08 13.49 11.62 C14 14 14 14 17 16 C15.35 15.67 13.7 15.34 12 15 C12 11.7 12 8.4 12 5 C11.38 5.12 11.38 5.12 8.25 5.75 C4.35 6.25 4.35 6.25 1.5 4.19 C0 2 0 2 0 0 Z " fill="#EBF0F1" transform="translate(346,82)"/>
<path d="M0 0 C3.29 1.1 4.46 1.91 6 5 C6.91 4.48 7.81 3.97 8.75 3.44 C12 2 12 2 14.38 2.31 C14.91 2.54 15.45 2.77 16 3 C15.6 3.14 15.6 3.14 13.56 3.88 C11 5 11 5 10 7 C7.44 7.62 7.44 7.62 5 8 C5 7.01 5 6.02 5 5 C3.68 4.67 2.36 4.34 1 4 C0.67 2.68 0.34 1.36 0 0 Z " fill="#D6F2FB" transform="translate(163,54)"/>
<path d="M0 0 C1.65 0.33 3.3 0.66 5 1 C5 3.31 5 5.62 5 8 C3.02 8 1.04 8 -1 8 C-0.67 5.36 -0.34 2.72 0 0 Z " fill="#F0F0F0" transform="translate(462,16)"/>
<path d="M0 0 C-1 3 -1 3 -2 4 C-2.33 4.99 -2.66 5.98 -3 7 C-5.92 5.93 -7.78 5.22 -10 3 C-3.38 -1.12 -3.38 -1.12 0 0 Z " fill="#EDEDED" transform="translate(374,105)"/>
<path d="M0 0 C0.33 0 0.66 0 1 0 C1 4.29 1 8.58 1 13 C1.66 13 2.32 13 3 13 C3.33 12.34 3.66 11.68 4 11 C4.12 16.75 4.12 16.75 3 19 C2.34 19 1.68 19 1 19 C-0.65 15.69 -0.1 12.01 -0.06 8.38 C-0.06 7.57 -0.05 6.77 -0.05 5.95 C-0.04 3.96 -0.02 1.98 0 0 Z " fill="#A6CAD9" transform="translate(163,62)"/>
<path d="M0 0 C1.32 0 2.64 0 4 0 C4.08 3.04 3.98 5.07 3 8 C3.99 8.16 3.99 8.16 9 9 C9 9.33 9 9.66 9 10 C5.62 10.19 5.62 10.19 2 10 C-0.43 6.36 -0.16 4.29 0 0 Z " fill="#E8F7FC" transform="translate(112,72)"/>
<path d="M0 0 C1 3.31 1.1 6.3 1.06 9.75 C1.05 10.73 1.04 11.72 1.04 12.73 C1.02 13.48 1.01 14.23 1 15 C1.99 15 2.98 15 4 15 C4 16.65 4 18.3 4 20 C3.34 20 2.68 20 2 20 C-2 14.17 -1.51 7.86 -1 1 C-0.67 0.67 -0.34 0.34 0 0 Z " fill="#ECF9FD" transform="translate(379,60)"/>
<path d="M0 0 C0.99 0 1.98 0 3 0 C3.66 0.99 4.32 1.98 5 3 C5.68 3.17 6.36 3.33 7.06 3.5 C7.7 3.67 8.34 3.83 9 4 C9.33 4.99 9.66 5.98 10 7 C6.34 7.33 4.6 7.46 1.62 5.19 C0 3 0 3 0 0 Z " fill="#222123" transform="translate(132,72)"/>
<path d="M0 0 C0.99 0.33 1.98 0.66 3 1 C2.67 1.66 2.34 2.32 2 3 C1.86 6.38 1.92 8.77 3 12 C1.68 12.33 0.36 12.66 -1 13 C-1.33 9.04 -1.66 5.08 -2 1 C-1.34 0.67 -0.68 0.34 0 0 Z " fill="#EDEDED" transform="translate(226,64)"/>
<path d="M0 0 C1.32 0 2.64 0 4 0 C3.67 2.31 3.34 4.62 3 7 C3.99 7.16 3.99 7.16 9 8 C8.34 8.66 7.68 9.32 7 10 C3.38 9.62 3.38 9.62 0 9 C0.51 6.83 1 5 2 3 C1.01 3 0.02 3 -1 3 C-0.67 2.01 -0.34 1.02 0 0 Z " fill="#D0E8EF" transform="translate(96,53)"/>
<path d="M0 0 C0.33 0 0.66 0 1 0 C1 2.97 1 5.94 1 9 C0.67 9.16 0.67 9.16 -1 10 C-0.01 10.33 0.98 10.66 2 11 C-1.3 11 -4.6 11 -8 11 C-8 9.68 -8 8.36 -8 7 C-5.36 7 -2.72 7 0 7 C0 4.69 0 2.38 0 0 Z " fill="#EFEFEF" transform="translate(466,27)"/>
<path d="M0 0 C0.66 0 1.32 0 2 0 C3.26 2.52 3.1 4.31 3.06 7.12 C3.05 8.04 3.04 8.95 3.04 9.88 C3.02 10.58 3.01 11.28 3 12 C2.01 12 1.02 12 0 12 C0 8.04 0 4.08 0 0 Z " fill="#1C2428" transform="translate(214,64)"/>
<path d="M0 0 C0.33 0.66 0.66 1.32 1 2 C0.34 2 -0.32 2 -1 2 C-1.06 2.78 -1.12 3.57 -1.19 4.38 C-1.46 5.24 -1.72 6.11 -2 7 C-4.56 8.31 -4.56 8.31 -7 9 C-7 8.34 -7 7.68 -7 7 C-7.99 6.67 -8.98 6.34 -10 6 C-6.7 4.02 -3.4 2.04 0 0 Z " fill="#202121" transform="translate(299,38)"/>
<path d="M0 0 C3.3 0 6.6 0 10 0 C10.33 1.65 10.66 3.3 11 5 C8.69 5 6.38 5 4 5 C4.99 4.01 5.98 3.02 7 2 C6.01 2.33 5.02 2.66 4 3 C2.34 3.35 0.67 3.68 -1 4 C-0.67 2.68 -0.34 1.36 0 0 Z " fill="#F6F6F6" transform="translate(441,34)"/>
<path d="M0 0 C0.33 0 0.66 0 1 0 C1.33 2.97 1.66 5.94 2 9 C1.34 9 0.68 9 0 9 C-0.33 10.32 -0.66 11.64 -1 13 C-1.66 12.67 -2.32 12.34 -3 12 C-2.67 11.34 -2.34 10.68 -2 10 C-2.66 9.67 -3.32 9.34 -4 9 C-2.68 6.03 -1.36 3.06 0 0 Z " fill="#E8E8E8" transform="translate(438,23)"/>
<path d="M0 0 C-0.25 1.86 -0.25 1.86 -1 4 C-2.85 5.27 -2.85 5.27 -5.06 6.25 C-5.43 6.42 -5.43 6.42 -7.29 7.27 C-7.57 7.39 -7.57 7.39 -9 8 C-7.53 2.38 -7.53 2.38 -5.06 0.62 C-3 0 -3 0 0 0 Z " fill="#151515" transform="translate(403,25)"/>
<path d="M0 0 C0.99 0.33 1.98 0.66 3 1 C3 2.98 3 4.96 3 7 C1.19 8.06 1.19 8.06 -1 9 C-1.99 8.67 -2.98 8.34 -4 8 C-3.67 7.01 -3.34 6.02 -3 5 C-2.34 4.67 -1.68 4.34 -1 4 C-0.38 1.94 -0.38 1.94 0 0 Z " fill="#090909" transform="translate(370,97)"/>
<path d="M0 0 C0.99 0 1.98 0 3 0 C3.66 1.32 4.32 2.64 5 4 C2.61 5.89 0.93 7.02 -2 8 C-2.12 5.12 -2.12 5.12 -2 2 C-1.34 1.34 -0.68 0.68 0 0 Z " fill="#EBEBEB" transform="translate(276,94)"/>
<path d="M0 0 C1.32 0 2.64 0 4 0 C4 2.31 4 4.62 4 7 C2.35 6.67 0.7 6.34 -1 6 C-1.04 4.33 -1.04 2.67 -1 1 C-0.67 0.67 -0.34 0.34 0 0 Z " fill="#C2DAE1" transform="translate(231,66)"/>
<path d="M0 0 C0.33 0.99 0.66 1.98 1 3 C0.03 2.98 -0.94 2.96 -1.94 2.94 C-5 3 -5 3 -6 4 C-6.37 6.33 -6.7 8.66 -7 11 C-7.33 11 -7.66 11 -8 11 C-8 8.69 -8 6.38 -8 4 C-8.66 3.67 -9.32 3.34 -10 3 C-7.3 -0.82 -4.38 -0.25 0 0 Z " fill="#282B2A" transform="translate(103,62)"/>
<path d="M0 0 C0.99 0 1.98 0 3 0 C3 0.99 3 1.98 3 3 C4.65 2.67 6.3 2.34 8 2 C5.47 4.8 3.8 6.46 0 7 C0 5.68 0 4.36 0 3 C-1.65 3 -3.3 3 -5 3 C-5 2.67 -5 2.34 -5 2 C-3.35 2 -1.7 2 0 2 C0 1.34 0 0.68 0 0 Z " fill="#EFF9FC" transform="translate(416,50)"/>
<path d="M0 0 C3.37 0.55 5.08 1.05 8 3 C8 3.66 8 4.32 8 5 C8.66 5.33 9.32 5.66 10 6 C6.67 6.23 4.58 6.32 1.62 4.69 C0 3 0 3 0 0 Z " fill="#0E0E0E" transform="translate(332,21)"/>
<path d="M0 0 C0.99 0.33 1.98 0.66 3 1 C2.34 1.66 1.68 2.32 1 3 C0.01 3 -0.98 3 -2 3 C-2 3.66 -2 4.32 -2 5 C-0.35 5 1.3 5 3 5 C1.68 6.32 0.36 7.64 -1 9 C-1.33 8.34 -1.66 7.68 -2 7 C-2.99 7 -3.98 7 -5 7 C-3.75 3.35 -3.33 2.22 0 0 Z " fill="#D0F0FA" transform="translate(349,53)"/>
<path d="M0 0 C2.94 0.38 2.94 0.38 6 1 C7.48 3.96 7.06 6.74 7 10 C6.67 10.16 6.67 10.16 5 11 C4.67 8.36 4.34 5.72 4 3 C2.35 2.67 0.7 2.34 -1 2 C-0.67 1.34 -0.34 0.68 0 0 Z M0 3 C0.99 3.33 1.98 3.66 3 4 C2.01 4 1.02 4 0 4 C0 3.67 0 3.34 0 3 Z " fill="#C5CFD1" transform="translate(137,64)"/>
<path d="M0 0 C-0.19 0.62 -0.37 1.24 -0.56 1.88 C-1 4 -1 4 0 6 C-2.88 5.69 -2.88 5.69 -6 5 C-6.66 4.01 -7.32 3.02 -8 2 C-4.91 0.24 -3.77 0 0 0 Z " fill="#F8F8F8" transform="translate(283,98)"/>
<path d="M0 0 C4.71 -0.33 7.15 0.29 11 3 C11.99 3.66 12.98 4.32 14 5 C8.58 5.41 4.93 4.04 0 2 C0 1.34 0 0.68 0 0 Z " fill="#BDECFC" transform="translate(197,80)"/>
<path d="M0 0 C2.64 0.66 5.28 1.32 8 2 C8 3.98 8 5.96 8 8 C6.35 7.67 4.7 7.34 3 7 C3.33 5.35 3.66 3.7 4 2 C2.68 2 1.36 2 0 2 C0 1.34 0 0.68 0 0 Z " fill="#D2F0FA" transform="translate(213,40)"/>
<path d="M0 0 C2.31 0.33 4.62 0.66 7 1 C7.33 2.65 7.66 4.3 8 6 C7.01 6 6.02 6 5 6 C5 5.01 5 4.02 5 3 C3.02 3 1.04 3 -1 3 C-0.67 2.01 -0.34 1.02 0 0 Z " fill="#292B2D" transform="translate(202,63)"/>
<path d="M0 0 C4.29 0.33 8.58 0.66 13 1 C8 5 8 5 5 5 C5 4.01 5 3.02 5 2 C3.35 2 1.7 2 0 2 C0 1.34 0 0.68 0 0 Z " fill="#EDFBFD" transform="translate(142,51)"/>
<path d="M0 0 C7.75 1.62 7.75 1.62 10 5 C7 6 7 6 3.88 4.75 C1 3 1 3 0 0 Z " fill="#131313" transform="translate(315,115)"/>
<path d="M0 0 C0.66 0 1.32 0 2 0 C1.67 2.97 1.34 5.94 1 9 C-0.65 9.33 -2.3 9.66 -4 10 C-4 9.01 -4 8.02 -4 7 C-3.34 6.67 -2.68 6.34 -2 6 C-1.27 4.02 -0.6 2.02 0 0 Z " fill="#C8EAF4" transform="translate(131,75)"/>
<path d="M0 0 C1.32 0 2.64 0 4 0 C3.94 1.81 3.94 1.81 3 4 C-0.56 5.75 -0.56 5.75 -4 7 C-3.67 5.68 -3.34 4.36 -3 3 C-2.34 3 -1.68 3 -1 3 C-0.67 2.01 -0.34 1.02 0 0 Z " fill="#131718" transform="translate(301,37)"/>
<path d="M0 0 C0.33 1.32 0.66 2.64 1 4 C-0.28 4.06 -1.56 4.12 -2.88 4.19 C-3.59 4.22 -4.31 4.26 -5.05 4.29 C-5.7 4.2 -6.34 4.1 -7 4 C-7.66 3.01 -8.32 2.02 -9 1 C-7.51 0.84 -7.51 0.84 0 0 Z " fill="#252525" transform="translate(418,30)"/>
<path d="M0 0 C0.33 1.32 0.66 2.64 1 4 C-2.75 7 -2.75 7 -5 7 C-5 6.34 -5 5.68 -5 5 C-5.66 4.67 -6.32 4.34 -7 4 C-2.25 1.12 -2.25 1.12 0 0 Z " fill="#151515" transform="translate(299,26)"/>
<path d="M0 0 C4.56 0.44 7.58 0.85 11 4 C7.33 4 3.67 4 0 4 C0 2.68 0 1.36 0 0 Z " fill="#F2F2F2" transform="translate(331,26)"/>
<path d="M0 0 C0.58 0.35 1.15 0.7 1.75 1.06 C4.41 2.17 5.33 1.95 8 1 C8.99 0.67 9.98 0.34 11 0 C10.67 1.65 10.34 3.3 10 5 C6.99 5.93 6.13 6.04 3 5 C3 4.34 3 3.68 3 3 C2.01 2.67 1.02 2.34 0 2 C0 1.34 0 0.68 0 0 Z " fill="#ECECEC" transform="translate(316,130)"/>
<path d="M0 0 C2.97 1.12 5.33 2.22 8 4 C8 4.66 8 5.32 8 6 C5.03 4.88 2.67 3.78 0 2 C0 1.34 0 0.68 0 0 Z M10 0 C10.5 0.33 10.5 0.33 13 2 C12.01 2 11.02 2 10 2 C10 1.34 10 0.68 10 0 Z M8 3 C11 4 11 4 11 4 Z " fill="#E6E6E6" transform="translate(289,108)"/>
<path d="M0 0 C0.99 0.66 1.98 1.32 3 2 C2.67 2.17 2.67 2.17 1 3 C1.99 3.66 2.98 4.32 4 5 C1.35 6.46 0.11 7 -3 7 C-3.33 6.01 -3.66 5.02 -4 4 C-2.68 2.68 -1.36 1.36 0 0 Z " fill="#F2F2F2" transform="translate(365,97)"/>
<path d="M0 0 C1.98 0 3.96 0 6 0 C6 2.31 6 4.62 6 7 C5.34 6.01 4.68 5.02 4 4 C3.67 4.66 3.34 5.32 3 6 C2.34 6 1.68 6 1 6 C0.67 4.02 0.34 2.04 0 0 Z " fill="#E1E1E1" transform="translate(154,71)"/>
<path d="M0 0 C0.66 1.32 1.32 2.64 2 4 C2.99 4 3.98 4 5 4 C4.67 4.66 4.34 5.32 4 6 C3.01 6 2.02 6 1 6 C1.33 7.32 1.66 8.64 2 10 C1.01 9.67 0.02 9.34 -1 9 C-1.1 2.85 -1.1 2.85 -1 1 C-0.67 0.67 -0.34 0.34 0 0 Z " fill="#F1F1F1" transform="translate(97,65)"/>
<path d="M0 0 C1.98 1.55 1.98 1.55 4 4 C4.39 7.45 4.39 7.45 4.25 11.25 C4.21 12.51 4.18 13.78 4.14 15.08 C4.09 16.04 4.05 17.01 4 18 C3.34 18.33 2.68 18.66 2 19 C2.33 14.71 2.66 10.42 3 6 C2.34 6 1.68 6 1 6 C0.67 4.02 0.34 2.04 0 0 Z " fill="#EBFCFE" transform="translate(393,58)"/>
<path d="M0 0 C0.99 1.32 1.98 2.64 3 4 C-0.13 5.86 -2.37 6.2 -6 6 C-6 5.01 -6 4.02 -6 3 C-4.02 2.01 -2.04 1.02 0 0 Z " fill="#212324" transform="translate(276,39)"/>
<path d="M0 0 C-0.19 1.88 -0.19 1.88 -1 4 C-3.56 5.25 -3.56 5.25 -6 6 C-6.66 5.01 -7.32 4.02 -8 3 C-3.38 0 -3.38 0 0 0 Z " fill="#090909" transform="translate(378,40)"/>
<path d="M0 0 C-1.1 2.99 -1.68 3.85 -4.62 5.25 C-5.41 5.5 -6.19 5.74 -7 6 C-7.99 5.01 -8.98 4.02 -10 3 C-6.72 1.24 -3.76 0 0 0 Z " fill="#0F0F0F" transform="translate(319,29)"/>
<path d="M0 0 C-1 3 -1 3 -2.85 4.17 C-3.58 4.5 -4.31 4.84 -5.06 5.19 C-5.8 5.53 -6.53 5.88 -7.29 6.23 C-7.57 6.36 -7.57 6.36 -9 7 C-9 4 -9 4 -7.75 2.38 C-5.27 0.42 -3.12 0 0 0 Z " fill="#EDEDED" transform="translate(359,105)"/>
<path d="M0 0 C0.66 0 1.32 0 2 0 C2 1.32 2 2.64 2 4 C1.34 4 0.68 4 0 4 C0 4.66 0 5.32 0 6 C0.66 6.33 1.32 6.66 2 7 C-1.77 8.26 -3.37 7.37 -7 6 C-7 5.67 -7 5.34 -7 5 C-5.35 5 -3.7 5 -2 5 C-1.34 3.35 -0.68 1.7 0 0 Z " fill="#EDFAFD" transform="translate(82,80)"/>
<path d="M0 0 C1.13 0.02 2.27 0.04 3.44 0.06 C3.77 1.05 4.1 2.04 4.44 3.06 C3.78 3.39 3.78 3.39 0.44 5.06 C-1.21 3.74 -2.86 2.42 -4.56 1.06 C-3.56 0.06 -3.56 0.06 0 0 Z " fill="#E9E9E9" transform="translate(350.5625,25.9375)"/>
<path d="M0 0 C0 1.65 0 3.3 0 5 C-1.65 5.66 -3.3 6.32 -5 7 C-5 6.01 -5 5.02 -5 4 C-5.66 3.67 -6.32 3.34 -7 3 C-1.12 0 -1.12 0 0 0 Z " fill="#1B1B1B" transform="translate(335,121)"/>
<path d="M0 0 C0.99 0 1.98 0 3 0 C3 1.65 3 3.3 3 5 C-4.43 5.29 -4.43 5.29 -8 3 C-4.62 2.38 -4.62 2.38 -1 2 C-0.34 2.66 0.32 3.32 1 4 C0.67 2.68 0.34 1.36 0 0 Z " fill="#CDEEFA" transform="translate(356,81)"/>
<path d="M0 0 C0.66 0 1.32 0 2 0 C2 0.66 2 1.32 2 2 C4.97 1.34 7.94 0.68 11 0 C11 0.99 11 1.98 11 3 C4.38 4.12 4.38 4.12 1 3 C0.67 2.01 0.34 1.02 0 0 Z " fill="#202428" transform="translate(93,75)"/>
<path d="M0 0 C0.99 0 1.98 0 3 0 C3.19 3.31 3.19 3.31 3 7 C2.01 7.99 1.02 8.98 0 10 C0 6.7 0 3.4 0 0 Z " fill="#181414" transform="translate(151,62)"/>
<path d="M0 0 C0.66 0 1.32 0 2 0 C2.23 3.33 2.32 5.42 0.69 8.38 C-1 10 -1 10 -4 10 C-4 9.34 -4 8.68 -4 8 C-3.53 7.57 -3.05 7.13 -2.56 6.69 C-0.59 4.55 -0.38 2.84 0 0 Z " fill="#131313" transform="translate(434,24)"/>
<path d="M0 0 C1.32 0 2.64 0 4 0 C3.67 1.32 3.34 2.64 3 4 C1.02 4.33 -0.96 4.66 -3 5 C-1.12 1.12 -1.12 1.12 0 0 Z " fill="#090909" transform="translate(320,14)"/>
<path d="M0 0 C1.98 0.66 3.96 1.32 6 2 C5.01 3.32 4.02 4.64 3 6 C1.35 5.01 -0.3 4.02 -2 3 C-1.34 2.67 -0.68 2.34 0 2 C0 1.34 0 0.68 0 0 Z " fill="#1C1C1C" transform="translate(292,100)"/>
<path d="M0 0 C2.34 2.13 3.71 4.12 5 7 C3.68 7.33 2.36 7.66 1 8 C1.33 6.68 1.66 5.36 2 4 C1.34 4 0.68 4 0 4 C0 4.66 0 5.32 0 6 C-0.99 6.33 -1.98 6.66 -3 7 C-3 6.34 -3 5.68 -3 5 C-2.34 5 -1.68 5 -1 5 C-0.67 3.35 -0.34 1.7 0 0 Z " fill="#F1FAFC" transform="translate(87,72)"/>
<path d="M0 0 C2.01 0.29 4.01 0.62 6 1 C5.67 2.32 5.34 3.64 5 5 C3.68 5 2.36 5 1 5 C0.34 3.68 -0.32 2.36 -1 1 C-0.67 0.67 -0.34 0.34 0 0 Z " fill="#3C3B3B" transform="translate(201,69)"/>
<path d="M0 0 C0.99 0 1.98 0 3 0 C3 3.63 3 7.26 3 11 C-0.32 6.58 -0.3 5.28 0 0 Z " fill="#111315" transform="translate(160,62)"/>
<path d="M0 0 C0.99 0.33 1.98 0.66 3 1 C2.67 4.3 2.34 7.6 2 11 C0.02 11 -1.96 11 -4 11 C-4 10.67 -4 10.34 -4 10 C-2.35 10 -0.7 10 1 10 C0.67 6.7 0.34 3.4 0 0 Z " fill="#D9DBDA" transform="translate(158,58)"/>
<path d="M0 0 C3.63 0.33 7.26 0.66 11 1 C10.34 2.32 9.68 3.64 9 5 C8.01 5 7.02 5 6 5 C5.67 4.34 5.34 3.68 5 3 C3.36 2.28 1.69 1.61 0 1 C0 0.67 0 0.34 0 0 Z " fill="#ECFCFE" transform="translate(160,52)"/>
<path d="M0 0 C2.64 1.32 5.28 2.64 8 4 C8 4.33 8 4.66 8 5 C5.25 5.69 5.25 5.69 2 6 C-0.38 4.56 -0.38 4.56 -2 3 C-1.34 2.67 -0.68 2.34 0 2 C0 1.34 0 0.68 0 0 Z " fill="#1F1F1F" transform="translate(340,24)"/>
<path d="M0 0 C1.32 0 2.64 0 4 0 C3.67 2.31 3.34 4.62 3 7 C2.01 7 1.02 7 0 7 C0 4.69 0 2.38 0 0 Z " fill="#DEF2FA" transform="translate(364,77)"/>
<path d="M0 0 C-0.33 0.99 -0.66 1.98 -1 3 C-3.31 3.33 -5.62 3.66 -8 4 C-7 1 -7 1 -5.12 -0.25 C-3 -1 -3 -1 0 0 Z " fill="#E7E7E7" transform="translate(299,33)"/>
<path d="M0 0 C0 0.66 0 1.32 0 2 C-2.97 3.65 -5.94 5.3 -9 7 C-9.33 5.68 -9.66 4.36 -10 3 C-8.71 2.5 -7.42 2 -6.12 1.5 C-5.77 1.36 -5.77 1.36 -3.95 0.66 C-2 0 -2 0 0 0 Z " fill="#EBEBEB" transform="translate(398,25)"/>
<path d="M0 0 C0.33 0 0.66 0 1 0 C1.08 0.78 1.16 1.57 1.25 2.38 C2 5 2 5 4.06 6.31 C4.7 6.54 5.34 6.77 6 7 C3.62 8.06 3.62 8.06 1 9 C0.34 8.67 -0.32 8.34 -1 8 C-0.67 5.36 -0.34 2.72 0 0 Z " fill="#E8EBEB" transform="translate(199,70)"/>
<path d="M0 0 C1.32 0.66 1.32 0.66 8 4 C7.34 4.66 6.68 5.32 6 6 C3.56 5.25 3.56 5.25 1 4 C0.67 2.68 0.34 1.36 0 0 Z " fill="#181818" transform="translate(296,114)"/>
<path d="M0 0 C3.3 1.65 6.6 3.3 10 5 C6.19 6.27 4.61 5.65 1 4 C0.67 2.68 0.34 1.36 0 0 Z " fill="#E4E4E4" transform="translate(278,108)"/>
<path d="M0 0 C0.66 0.33 1.32 0.66 2 1 C2.33 1.99 2.66 2.98 3 4 C3.66 4.66 4.32 5.32 5 6 C4 7 4 7 1.44 7.06 C1.04 7.05 1.04 7.05 -1 7 C-0.67 4.69 -0.34 2.38 0 0 Z " fill="#0A0A0A" transform="translate(271,97)"/>
<path d="M0 0 C1.98 0 3.96 0 6 0 C6 0.66 6 1.32 6 2 C5.01 2 4.02 2 3 2 C3 2.66 3 3.32 3 4 C2.34 4 1.68 4 1 4 C0.67 4.66 0.34 5.32 0 6 C0 4.02 0 2.04 0 0 Z " fill="#D3D3CC" transform="translate(120,73)"/>
<path d="M0 0 C0.99 0.33 1.98 0.66 3 1 C3 2.98 3 4.96 3 7 C2.01 7 1.02 7 0 7 C0 4.69 0 2.38 0 0 Z " fill="#DAF3F9" transform="translate(364,54)"/>
<path d="M0 0 C1.32 0.99 2.64 1.98 4 3 C3.67 3.99 3.34 4.98 3 6 C2.18 5.67 2.18 5.67 -2 4 C-2 3.01 -2 2.02 -2 1 C-1.34 0.67 -0.68 0.34 0 0 Z " fill="#1B1B1B" transform="translate(366,39)"/>
<path d="M0 0 C2.76 0.52 5.33 1.11 8 2 C8 2.66 8 3.32 8 4 C6.02 4 4.04 4 2 4 C1.34 2.68 0.68 1.36 0 0 Z " fill="#131313" transform="translate(441,30)"/>
<path d="M0 0 C0.66 0.99 1.32 1.98 2 3 C1.12 6.69 1.12 6.69 0 10 C-0.66 9.34 -1.32 8.68 -2 8 C-1.42 1.42 -1.42 1.42 0 0 Z " fill="#CECECE" transform="translate(412,20)"/>
<path d="M0 0 C2.31 0.33 4.62 0.66 7 1 C7 1.99 7 2.98 7 4 C4.69 3.34 2.38 2.68 0 2 C0 1.34 0 0.68 0 0 Z " fill="#292929" transform="translate(412,17)"/>
<path d="M0 0 C1.65 0 3.3 0 5 0 C5.33 1.65 5.66 3.3 6 5 C4.35 4.67 2.7 4.34 1 4 C0.67 2.68 0.34 1.36 0 0 Z " fill="#FCFCFC" transform="translate(309,117)"/>
<path d="M0 0 C0.99 0 1.98 0 3 0 C3 2.31 3 4.62 3 7 C1.02 7 -0.96 7 -3 7 C-3 6.67 -3 6.34 -3 6 C-1.35 6 0.3 6 2 6 C1.34 5.01 0.68 4.02 0 3 C0 2.01 0 1.02 0 0 Z " fill="#E7F7FD" transform="translate(99,79)"/>
<path d="M0 0 C0 0.66 0 1.32 0 2 C-0.99 2.66 -1.98 3.32 -3 4 C-4.19 6.12 -4.19 6.12 -5 8 C-5.33 8 -5.66 8 -6 8 C-6.25 5.69 -6.25 5.69 -6 3 C-3.96 1.02 -2.88 0 0 0 Z " fill="#C0EAF9" transform="translate(384,53)"/>
<path d="M0 0 C0.82 0.16 0.82 0.16 5 1 C5 1.66 5 2.32 5 3 C5.66 3 6.32 3 7 3 C6.67 3.66 6.34 4.32 6 5 C3.56 4.19 3.56 4.19 1 3 C0.67 2.01 0.34 1.02 0 0 Z " fill="#BCEBFC" transform="translate(390,53)"/>
<path d="M0 0 C0.66 0 1.32 0 2 0 C2 0.66 2 1.32 2 2 C2.99 2 3.98 2 5 2 C4.67 3.32 4.34 4.64 4 6 C3.01 5.67 2.02 5.34 1 5 C0.67 3.35 0.34 1.7 0 0 Z " fill="#F9FAFB" transform="translate(278,43)"/>
<path d="M0 0 C0.66 0.33 1.32 0.66 2 1 C2 2.65 2 4.3 2 6 C-0.5 4.62 -0.5 4.62 -3 3 C-3 2.34 -3 1.68 -3 1 C-2.01 0.67 -1.02 0.34 0 0 Z " fill="#FAFAFA" transform="translate(286,39)"/>
<path d="M0 0 C0.66 0.66 1.32 1.32 2 2 C1.01 3.32 0.02 4.64 -1 6 C-1 5.34 -1 4.68 -1 4 C-3.64 4 -6.28 4 -9 4 C-9 3.67 -9 3.34 -9 3 C-7.89 2.88 -6.77 2.75 -5.62 2.62 C-2 2 -2 2 0 0 Z " fill="#F4F4F4" transform="translate(421,31)"/>
<path d="M0 0 C0.66 0 1.32 0 2 0 C2 1.65 2 3.3 2 5 C-0.49 5.69 -2.38 6 -5 6 C-3.38 3.96 -1.71 1.96 0 0 Z " fill="#E9E9E9" transform="translate(455,28)"/>
<path d="M0 0 C0.66 0 1.32 0 2 0 C2 1.98 2 3.96 2 6 C0.35 6.33 -1.3 6.66 -3 7 C-2.01 4.69 -1.02 2.38 0 0 Z " fill="#E6F8FC" transform="translate(221,76)"/>
<path d="M0 0 C2 3 2 3 2 5 C2.99 5.33 3.98 5.66 5 6 C3.35 6.33 1.7 6.66 0 7 C-0.38 5.01 -0.71 3.01 -1 1 C-0.67 0.67 -0.34 0.34 0 0 Z " fill="#B5D8E7" transform="translate(92,73)"/>
<path d="M0 0 C0.5 0.33 0.5 0.33 3 2 C2.34 4.31 1.68 6.62 1 9 C0.67 9 0.34 9 0 9 C0 6.03 0 3.06 0 0 Z " fill="#030206" transform="translate(144,65)"/>
<path d="M0 0 C1.68 0.29 3.34 0.62 5 1 C3.35 2.69 1.69 4.35 0 6 C-0.33 6 -0.66 6 -1 6 C-1.04 4.33 -1.04 2.67 -1 1 C-0.67 0.67 -0.34 0.34 0 0 Z " fill="#060909" transform="translate(229,64)"/>
<path d="M0 0 C1.5 1.38 1.5 1.38 3 3 C3 3.66 3 4.32 3 5 C2.01 5 1.02 5 0 5 C0 4.34 0 3.68 0 3 C-1.65 3.33 -3.3 3.66 -5 4 C-3.37 2.29 -2.13 1.07 0 0 Z " fill="#E2E2E2" transform="translate(379,42)"/>
<path d="M0 0 C1.98 0 3.96 0 6 0 C3.6 2.9 1.69 3.5 -2 4 C-1.34 2.68 -0.68 1.36 0 0 Z " fill="#090909" transform="translate(300,26)"/>
<path d="M0 0 C0 3 0 3 -2 6 C-2.66 6 -3.32 6 -4 6 C-4.33 4.35 -4.66 2.7 -5 1 C-3.35 0.67 -1.7 0.34 0 0 Z " fill="#FEFEFE" transform="translate(448,23)"/>
<path d="M0 0 C0 0.99 0 1.98 0 3 C-1.81 3.69 -1.81 3.69 -4 4 C-5.75 2.56 -5.75 2.56 -7 1 C-4.51 0.31 -2.62 0 0 0 Z " fill="#E1E1E1" transform="translate(341,19)"/>
<path d="M0 0 C1.88 0.25 1.88 0.25 4 1 C5.25 3.06 5.25 3.06 6 5 C5.01 5 4.02 5 3 5 C2.67 4.34 2.34 3.68 2 3 C1.34 3 0.68 3 0 3 C0 2.01 0 1.02 0 0 Z " fill="#1C2328" transform="translate(141,62)"/>
<path d="M0 0 C0.99 0 1.98 0 3 0 C4.69 2 4.69 2 6 4 C4.35 4 2.7 4 1 4 C0.67 4.66 0.34 5.32 0 6 C0 4.02 0 2.04 0 0 Z " fill="#FEFEFE" transform="translate(412,24)"/>
<path d="M0 0 C0.99 0.33 1.98 0.66 3 1 C2.69 1.54 2.38 2.07 2.06 2.62 C0.82 5.4 0.41 8 0 11 C-0.33 11 -0.66 11 -1 11 C-1.12 3.38 -1.12 3.38 0 0 Z " fill="#E8E8E8" transform="translate(407,17)"/>
<path d="M0 0 C1.32 0.66 2.64 1.32 4 2 C3.36 2.12 2.72 2.25 2.06 2.38 C1.38 2.58 0.7 2.79 0 3 C-0.33 3.66 -0.66 4.32 -1 5 C-1.66 4.01 -2.32 3.02 -3 2 C-2.01 1.34 -1.02 0.68 0 0 Z " fill="#FCFCFC" transform="translate(319,121)"/>
<path d="M0 0 C1.32 0.33 2.64 0.66 4 1 C4.33 2.32 4.66 3.64 5 5 C4.18 4.67 4.18 4.67 0 3 C0 2.01 0 1.02 0 0 Z " fill="#090909" transform="translate(292,113)"/>
<path d="M0 0 C0.99 0.33 1.98 0.66 3 1 C2.67 1.99 2.34 2.98 2 4 C1.01 4.33 0.02 4.66 -1 5 C-1.33 3.68 -1.66 2.36 -2 1 C-1.34 0.67 -0.68 0.34 0 0 Z " fill="#0B0B0B" transform="translate(355,109)"/>
<path d="M0 0 C0 0.99 0 1.98 0 3 C-3 5 -3 5 -5.19 4.62 C-5.79 4.42 -6.38 4.21 -7 4 C-4.69 2.68 -2.38 1.36 0 0 Z " fill="#EBFAFE" transform="translate(399,81)"/>
<path d="M0 0 C0.66 0.33 1.32 0.66 2 1 C2 3.31 2 5.62 2 8 C1.01 8 0.02 8 -1 8 C-0.34 6.68 0.32 5.36 1 4 C0.34 4 -0.32 4 -1 4 C-0.67 2.68 -0.34 1.36 0 0 Z " fill="#9ED1E2" transform="translate(128,73)"/>
<path d="M0 0 C0.33 0.17 0.33 0.17 2 1 C2 1.66 2 2.32 2 3 C3.32 3 4.64 3 6 3 C6 3.66 6 4.32 6 5 C4.35 5 2.7 5 1 5 C0.67 3.35 0.34 1.7 0 0 Z " fill="#0F0E0E" transform="translate(200,71)"/>
<path d="M0 0 C0.33 0.66 0.66 1.32 1 2 C3.06 2.62 3.06 2.62 5 3 C5 4.65 5 6.3 5 8 C3.5 6.62 3.5 6.62 2 5 C2 4.34 2 3.68 2 3 C1.34 3 0.68 3 0 3 C0 2.01 0 1.02 0 0 Z " fill="#D3F0FD" transform="translate(75,53)"/>
<path d="M0 0 C0.66 0.33 1.32 0.66 2 1 C1.67 1.66 1.34 2.32 1 3 C1.66 3.33 2.32 3.66 3 4 C2.34 4.33 2.34 4.33 -1 6 C-1 5.01 -1 4.02 -1 3 C-1.66 2.67 -2.32 2.34 -3 2 C-2.01 1.34 -1.02 0.68 0 0 Z " fill="#272727" transform="translate(379,37)"/>
<path d="M0 0 C0.33 0.66 0.66 1.32 1 2 C-4.62 3.12 -4.62 3.12 -8 2 C-4.77 -0.15 -3.72 -0.2 0 0 Z " fill="#E4E4E4" transform="translate(405,29)"/>
<path d="M0 0 C0.99 0 1.98 0 3 0 C2.67 1.65 2.34 3.3 2 5 C1.01 4.67 0.02 4.34 -1 4 C-0.67 2.68 -0.34 1.36 0 0 Z " fill="#E8E8E8" transform="translate(420,17)"/>
<path d="M0 0 C2.97 0.33 5.94 0.66 9 1 C9 1.66 9 2.32 9 3 C6.36 3 3.72 3 1 3 C0.67 2.01 0.34 1.02 0 0 Z " fill="#D0D0D0" transform="translate(316,119)"/>
<path d="M0 0 C2.92 1.07 4.78 1.78 7 4 C4.69 3.67 2.38 3.34 0 3 C0 2.01 0 1.02 0 0 Z " fill="#E5E5E5" transform="translate(307,113)"/>
<path d="M0 0 C0.99 0.33 1.98 0.66 3 1 C3 1.66 3 2.32 3 3 C3.99 3.33 4.98 3.66 6 4 C4.19 4.69 4.19 4.69 2 5 C0.25 3.56 0.25 3.56 -1 2 C-0.67 1.34 -0.34 0.68 0 0 Z " fill="#EAEAEA" transform="translate(316,110)"/>
<path d="M0 0 C0.66 0.33 1.32 0.66 2 1 C2 1.99 2 2.98 2 4 C1.5 4.33 1.5 4.33 -1 6 C-1.66 5.34 -2.32 4.68 -3 4 C-3 3.34 -3 2.68 -3 2 C-2.01 1.34 -1.02 0.68 0 0 Z " fill="#2A2A2A" transform="translate(359,106)"/>
<path d="M0 0 C1.32 1.65 2.64 3.3 4 5 C2.68 5.33 1.36 5.66 0 6 C-1.12 2.25 -1.12 2.25 0 0 Z " fill="#FEFEFE" transform="translate(289,103)"/>
<path d="M0 0 C3 2 3 2 3.69 4.12 C3.79 4.74 3.89 5.36 4 6 C2.35 5.67 0.7 5.34 -1 5 C-1 2 -1 2 0 0 Z " fill="#F0F0F0" transform="translate(280,88)"/>
<path d="M0 0 C0.99 0.33 1.98 0.66 3 1 C3.33 1.99 3.66 2.98 4 4 C2.68 4.33 1.36 4.66 0 5 C0 3.35 0 1.7 0 0 Z " fill="#FBF9FA" transform="translate(225,72)"/>
<path d="M0 0 C2.62 0.38 2.62 0.38 5 1 C5 1.99 5 2.98 5 4 C2.69 3.34 0.38 2.68 -2 2 C-1.34 1.34 -0.68 0.68 0 0 Z " fill="#EEFCFE" transform="translate(176,57)"/>
<path d="M0 0 C0.99 0.33 1.98 0.66 3 1 C2.67 2.98 2.34 4.96 2 7 C0.68 6.67 -0.64 6.34 -2 6 C-1.34 4.02 -0.68 2.04 0 0 Z " fill="#A6C6D4" transform="translate(278,48)"/>
<path d="M0 0 C0.66 0.33 1.32 0.66 2 1 C2 1.99 2 2.98 2 4 C0.35 3.67 -1.3 3.34 -3 3 C-2.01 2.01 -1.02 1.02 0 0 Z M-2 4 C0 5 0 5 0 5 Z " fill="#E6E6E6" transform="translate(315,33)"/>
<path d="M0 0 C1.98 0 3.96 0 6 0 C6 0.99 6 1.98 6 3 C3.56 2.62 3.56 2.62 1 2 C0.67 1.34 0.34 0.68 0 0 Z " fill="#0A0A0A" transform="translate(343,29)"/>
<path d="M0 0 C0.33 1.32 0.66 2.64 1 4 C0.67 4.17 0.67 4.17 -1 5 C-3.12 4.06 -3.12 4.06 -5 3 C-3.35 2.01 -1.7 1.02 0 0 Z " fill="#DBDBDB" transform="translate(343,120)"/>
<path d="M0 0 C3 1 3 1 5 4 C4.67 4.17 4.67 4.17 3 5 C0.88 4.06 0.88 4.06 -1 3 C-0.67 2.01 -0.34 1.02 0 0 Z " fill="#E2E2E2" transform="translate(308,118)"/>
<path d="M0 0 C0.99 0.33 1.98 0.66 3 1 C3.33 1.99 3.66 2.98 4 4 C2.35 3.67 0.7 3.34 -1 3 C-0.67 2.01 -0.34 1.02 0 0 Z " fill="#090909" transform="translate(297,103)"/>
<path d="M0 0 C1.68 0.29 3.34 0.62 5 1 C5 1.99 5 2.98 5 4 C4.34 4 3.68 4 3 4 C3 3.34 3 2.68 3 2 C1.68 1.67 0.36 1.34 -1 1 C-0.67 0.67 -0.34 0.34 0 0 Z " fill="#292A2F" transform="translate(123,71)"/>
<path d="M0 0 C0.99 0.33 1.98 0.66 3 1 C3 2.32 3 3.64 3 5 C2.01 5 1.02 5 0 5 C0 3.35 0 1.7 0 0 Z " fill="#050306" transform="translate(132,67)"/>
<path d="M0 0 C0.33 0.99 0.66 1.98 1 3 C-3.75 4.12 -3.75 4.12 -6 3 C-6 2.34 -6 1.68 -6 1 C-5.01 1.17 -5.01 1.17 0 2 C0 1.34 0 0.68 0 0 Z " fill="#C5C4C4" transform="translate(104,63)"/>
<path d="M0 0 C1.65 1.65 3.3 3.3 5 5 C4.67 5.66 4.34 6.32 4 7 C2 5.75 2 5.75 0 4 C0 2.68 0 1.36 0 0 Z " fill="#CBEDF8" transform="translate(82,56)"/>
<path d="M0 0 C0.99 0 1.98 0 3 0 C3 0.99 3 1.98 3 3 C1.35 3.66 -0.3 4.32 -2 5 C-1.34 3.35 -0.68 1.7 0 0 Z " fill="#0C0B0B" transform="translate(289,45)"/>
<path d="M0 0 C0.66 0.33 1.32 0.66 2 1 C0.68 2.32 -0.64 3.64 -2 5 C-2.99 4.34 -3.98 3.68 -5 3 C-2.62 1.44 -2.62 1.44 0 0 Z " fill="#E2E2E2" transform="translate(392,34)"/>
<path d="M0 0 C0.99 0.17 0.99 0.17 6 1 C3 3 3 3 0 3 C0 2.01 0 1.02 0 0 Z " fill="#0F0F0F" transform="translate(312,125)"/>
<path d="M0 0 C0.82 0.33 0.82 0.33 5 2 C5 2.66 5 3.32 5 4 C4.01 4.33 3.02 4.66 2 5 C1.34 3.35 0.68 1.7 0 0 Z " fill="#EEEEEE" transform="translate(290,103)"/>
<path d="M0 0 C0.66 0 1.32 0 2 0 C2 1.65 2 3.3 2 5 C1.01 5 0.02 5 -1 5 C-0.67 3.35 -0.34 1.7 0 0 Z " fill="#FCFDFC" transform="translate(114,72)"/>
<path d="M0 0 C0.66 0 1.32 0 2 0 C2.33 0.99 2.66 1.98 3 3 C1.56 5.19 1.56 5.19 0 7 C0 4.69 0 2.38 0 0 Z " fill="#030305" transform="translate(214,64)"/>
<path d="M0 0 C0.66 0 1.32 0 2 0 C2.33 1.65 2.66 3.3 3 5 C2.01 5.33 1.02 5.66 0 6 C0 4.02 0 2.04 0 0 Z " fill="#DAF6FB" transform="translate(210,63)"/>
<path d="M0 0 C0 1.98 0 3.96 0 6 C-0.99 5.67 -1.98 5.34 -3 5 C-3 3.68 -3 2.36 -3 1 C-1 0 -1 0 0 0 Z " fill="#C1E5F4" transform="translate(235,58)"/>
<path d="M0 0 C0.33 0.66 0.66 1.32 1 2 C0.67 2.49 0.67 2.49 -1 5 C-2.32 4.34 -3.64 3.68 -5 3 C-3.35 2.01 -1.7 1.02 0 0 Z " fill="#D7D6D6" transform="translate(289,36)"/>
<path d="M0 0 C2.62 0.94 2.62 0.94 5 2 C4.01 2.66 3.02 3.32 2 4 C0.68 3.01 -0.64 2.02 -2 1 C-1.34 0.67 -0.68 0.34 0 0 Z " fill="#2B2B2B" transform="translate(386,33)"/>
<path d="M0 0 C1.32 0 2.64 0 4 0 C4 0.99 4 1.98 4 3 C3.01 3.33 2.02 3.66 1 4 C0.67 2.68 0.34 1.36 0 0 Z " fill="#141414" transform="translate(290,31)"/>
<path d="M0 0 C0.4 0.01 0.4 0.01 2.44 0.06 C0.79 1.38 -0.86 2.7 -2.56 4.06 C-2.89 3.07 -3.22 2.08 -3.56 1.06 C-2.56 0.06 -2.56 0.06 0 0 Z " fill="#E1E1E1" transform="translate(313.5625,27.9375)"/>
<path d="M0 0 C0.82 0.33 0.82 0.33 5 2 C4.67 2.16 4.67 2.16 3 3 C2.67 3.99 2.34 4.98 2 6 C1.34 4.02 0.68 2.04 0 0 Z " fill="#252525" transform="translate(329,18)"/>
<path d="M0 0 C-0.33 1.32 -0.66 2.64 -1 4 C-2.65 3.67 -4.3 3.34 -6 3 C-2.25 0 -2.25 0 0 0 Z " fill="#DADADA" transform="translate(333,127)"/>
<path d="M0 0 C1.98 0.66 3.96 1.32 6 2 C5.34 2.33 5.34 2.33 2 4 C2 3.34 2 2.68 2 2 C1.34 2 0.68 2 0 2 C0 1.34 0 0.68 0 0 Z " fill="#2F373A" transform="translate(230,72)"/>
<path d="M0 0 C1.65 0.33 3.3 0.66 5 1 C5 1.66 5 2.32 5 3 C3.35 3.33 1.7 3.66 0 4 C-0.33 3.34 -0.66 2.68 -1 2 C-0.67 1.34 -0.34 0.68 0 0 Z " fill="#FCFEFD" transform="translate(224,61)"/>
<path d="M0 0 C0.99 0 1.98 0 3 0 C3.33 0.99 3.66 1.98 4 3 C3.34 3.33 3.34 3.33 0 5 C0 3.35 0 1.7 0 0 Z " fill="#F2F3F3" transform="translate(133,59)"/>
<path d="M0 0 C0 0.66 0 1.32 0 2 C1.32 2.33 2.64 2.66 4 3 C1.12 3.12 1.12 3.12 -2 3 C-2.66 2.34 -3.32 1.68 -4 1 C-2 0 -2 0 0 0 Z " fill="#ABD5DF" transform="translate(302,42)"/>
<path d="M0 0 C0.33 1.32 0.66 2.64 1 4 C0.34 4.33 0.34 4.33 -3 6 C-2.67 4.68 -2.34 3.36 -2 2 C-1.34 2 -0.68 2 0 2 C0 1.34 0 0.68 0 0 Z " fill="#090A0C" transform="translate(300,38)"/>
<path d="M0 0 C0.82 0.33 0.82 0.33 5 2 C4.34 2.66 3.68 3.32 3 4 C2.01 3.34 1.02 2.68 0 2 C0 1.34 0 0.68 0 0 Z " fill="#EAEAEA" transform="translate(350,35)"/>
<path d="M0 0 C0.33 1.32 0.66 2.64 1 4 C0.01 3.84 0.01 3.84 -5 3 C-2.25 0 -2.25 0 0 0 Z " fill="#F8F8F8" transform="translate(398,34)"/>
<path d="M0 0 C0.66 0 1.32 0 2 0 C1.69 1.94 1.69 1.94 1 4 C0.01 4.33 -0.98 4.66 -2 5 C-1.34 3.35 -0.68 1.7 0 0 Z " fill="#090909" transform="translate(396,28)"/>
<path d="M0 0 C0.33 0.66 0.66 1.32 1 2 C0.18 2.5 0.18 2.5 -4 5 C-4.66 4.34 -5.32 3.68 -6 3 C-4.02 2.01 -2.04 1.02 0 0 Z " fill="#E8E8E8" transform="translate(316,21)"/>
<path d="M0 0 C0.66 0 1.32 0 2 0 C2.33 1.32 2.66 2.64 3 4 C2.18 3.67 2.18 3.67 -2 2 C-1.34 1.34 -0.68 0.68 0 0 Z " fill="#222222" transform="translate(351,111)"/>
<path d="M0 0 C0.82 0.17 0.82 0.17 5 1 C4.01 1.33 3.02 1.66 2 2 C1.67 2.66 1.34 3.32 1 4 C0.67 2.68 0.34 1.36 0 0 Z " fill="#222222" transform="translate(279,93)"/>
<path d="M0 0 C0.99 0.33 1.98 0.66 3 1 C2.67 2.32 2.34 3.64 2 5 C1.67 4.34 1.34 3.68 1 3 C0.01 2.34 -0.98 1.68 -2 1 C-1.34 0.67 -0.68 0.34 0 0 Z " fill="#B8DBEA" transform="translate(234,75)"/>
<path d="M0 0 C1.32 0 2.64 0 4 0 C3.67 0.99 3.34 1.98 3 3 C2.01 3 1.02 3 0 3 C0 2.01 0 1.02 0 0 Z " fill="#E3E4E4" transform="translate(203,71)"/>
<path d="M0 0 C1.98 0 3.96 0 6 0 C2.25 3 2.25 3 0 3 C0 2.01 0 1.02 0 0 Z " fill="#EDF4F4" transform="translate(120,70)"/>
<path d="M0 0 C0.83 0.16 0.83 0.16 5 1 C5 1.66 5 2.32 5 3 C3.35 2.67 1.7 2.34 0 2 C0 1.34 0 0.68 0 0 Z " fill="#0F0F0E" transform="translate(99,62)"/>
<path d="M0 0 C2 3 2 3 2 5 C1.01 5 0.02 5 -1 5 C-0.67 3.35 -0.34 1.7 0 0 Z " fill="#D5EFF6" transform="translate(277,43)"/>
<path d="M0 0 C0.66 0.66 1.32 1.32 2 2 C0.35 2.66 -1.3 3.32 -3 4 C-3 3.01 -3 2.02 -3 1 C-2.01 0.67 -1.02 0.34 0 0 Z " fill="#13191C" transform="translate(295,43)"/>
<path d="M0 0 C2.64 0.33 5.28 0.66 8 1 C8 1.33 8 1.66 8 2 C5.69 2.33 3.38 2.66 1 3 C0.67 2.01 0.34 1.02 0 0 Z " fill="#E4E4E4" transform="translate(423,33)"/>
<path d="M0 0 C0.66 0.33 1.32 0.66 2 1 C2 2.32 2 3.64 2 5 C1.34 5 0.68 5 0 5 C0 4.34 0 3.68 0 3 C-0.66 2.67 -1.32 2.34 -2 2 C-1.34 1.34 -0.68 0.68 0 0 Z " fill="#363636" transform="translate(294,28)"/>
<path d="M0 0 C0.66 1.32 1.32 2.64 2 4 C0.68 4 -0.64 4 -2 4 C-1.34 2.68 -0.68 1.36 0 0 Z " fill="#101010" transform="translate(319,15)"/>
<path d="M0 0 C0 0.99 0 1.98 0 3 C-1.32 3 -2.64 3 -4 3 C-4 2.34 -4 1.68 -4 1 C-2 0 -2 0 0 0 Z " fill="#E5E5E5" transform="translate(354,115)"/>
<path d="M0 0 C0.66 1.32 1.32 2.64 2 4 C0.68 3.67 -0.64 3.34 -2 3 C-2 2.34 -2 1.68 -2 1 C-1.34 0.67 -0.68 0.34 0 0 Z " fill="#E1E1E1" transform="translate(294,97)"/>
<path d="M0 0 C1.32 0.33 2.64 0.66 4 1 C3.67 1.66 3.34 2.32 3 3 C2.01 3 1.02 3 0 3 C0 2.01 0 1.02 0 0 Z " fill="#0E0E0E" transform="translate(281,95)"/>
<path d="M0 0 C0.66 0.33 0.66 0.33 4 2 C4 2.66 4 3.32 4 4 C2.68 3.67 1.36 3.34 0 3 C0 2.01 0 1.02 0 0 Z " fill="#BED6DD" transform="translate(121,80)"/>
<path d="M0 0 C0.99 0 1.98 0 3 0 C3 0.99 3 1.98 3 3 C1.68 2.67 0.36 2.34 -1 2 C-0.67 1.34 -0.34 0.68 0 0 Z " fill="#B5C3C1" transform="translate(123,77)"/>
<path d="M0 0 C0.66 0.33 0.66 0.33 4 2 C3.67 2.66 3.34 3.32 3 4 C2.34 4 1.68 4 1 4 C0.67 2.68 0.34 1.36 0 0 Z " fill="#ECFBFD" transform="translate(434,54)"/>
<path d="M0 0 C0.99 0 1.98 0 3 0 C2.34 1.65 1.68 3.3 1 5 C0.67 5 0.34 5 0 5 C0 3.35 0 1.7 0 0 Z " fill="#EDFBFE" transform="translate(197,43)"/>
<path d="M0 0 C0.66 1.32 1.32 2.64 2 4 C1.01 4.33 0.02 4.66 -1 5 C-0.67 3.35 -0.34 1.7 0 0 Z " fill="#EEEFEF" transform="translate(289,40)"/>
<path d="M0 0 C0.99 0.66 1.98 1.32 3 2 C2.34 2.33 2.34 2.33 -1 4 C-1.33 3.01 -1.66 2.02 -2 1 C-1.34 0.67 -0.68 0.34 0 0 Z " fill="#060606" transform="translate(285,35)"/>
<path d="M0 0 C0.66 0.33 1.32 0.66 2 1 C1.67 1.99 1.34 2.98 1 4 C0.01 4 -0.98 4 -2 4 C-1.34 2.68 -0.68 1.36 0 0 Z " fill="#FCFCFC" transform="translate(427,21)"/>
<path d="M0 0 C0.66 0 1.32 0 2 0 C1.67 1.32 1.34 2.64 1 4 C0.01 3.67 -0.98 3.34 -2 3 C-1.34 2.67 -0.68 2.34 0 2 C0 1.34 0 0.68 0 0 Z " fill="#ECECEC" transform="translate(298,23)"/>
<path d="M0 0 C0.66 0 1.32 0 2 0 C1.67 1.32 1.34 2.64 1 4 C0.01 3.34 -0.98 2.68 -2 2 C-1.34 1.34 -0.68 0.68 0 0 Z " fill="#1D1D1D" transform="translate(442,18)"/>
<path d="M0 0 C0.33 0.99 0.66 1.98 1 3 C0.34 3.66 -0.32 4.32 -1 5 C-1.33 3.68 -1.66 2.36 -2 1 C-1.34 0.67 -0.68 0.34 0 0 Z " fill="#EEEEEE" transform="translate(440,17)"/>
<path d="M0 0 C-0.33 0.99 -0.66 1.98 -1 3 C-2.32 2.67 -3.64 2.34 -5 2 C-2 0 -2 0 0 0 Z " fill="#E3E3E3" transform="translate(338,124)"/>
<path d="M0 0 C0.99 0.33 1.98 0.66 3 1 C2.01 1.99 1.02 2.98 0 4 C-0.66 3.34 -1.32 2.68 -2 2 C-1.34 2 -0.68 2 0 2 C0 1.34 0 0.68 0 0 Z " fill="#232323" transform="translate(291,112)"/>
<path d="M0 0 C0.82 0.33 0.82 0.33 5 2 C3.68 2.33 2.36 2.66 1 3 C0.67 2.01 0.34 1.02 0 0 Z " fill="#E1E1E1" transform="translate(302,110)"/>
<path d="M0 0 C1.32 0.33 2.64 0.66 4 1 C4 1.66 4 2.32 4 3 C2.68 2.67 1.36 2.34 0 2 C0 1.34 0 0.68 0 0 Z " fill="#EEEFF1" transform="translate(132,77)"/>
<path d="M0 0 C0.99 0 1.98 0 3 0 C3 0.99 3 1.98 3 3 C1.68 2.34 0.36 1.68 -1 1 C-0.67 0.67 -0.34 0.34 0 0 Z " fill="#EBEBEB" transform="translate(277,35)"/>
<path d="M0 0 C0 0.99 0 1.98 0 3 C-1.32 2.34 -2.64 1.68 -4 1 C-2 0 -2 0 0 0 Z " fill="#DEDEDE" transform="translate(368,107)"/>
<path d="M0 0 C0.66 0.33 1.32 0.66 2 1 C1.67 1.99 1.34 2.98 1 4 C0.34 4 -0.32 4 -1 4 C-0.67 2.68 -0.34 1.36 0 0 Z " fill="#7DABC4" transform="translate(128,73)"/>
<path d="M0 0 C0.66 0.33 1.32 0.66 2 1 C1.67 1.99 1.34 2.98 1 4 C0.34 3.67 -0.32 3.34 -1 3 C-0.67 2.01 -0.34 1.02 0 0 Z " fill="#B0DFF3" transform="translate(128,69)"/>
<path d="M0 0 C0.99 0.99 1.98 1.98 3 3 C2.01 3.33 1.02 3.66 0 4 C-0.33 3.34 -0.66 2.68 -1 2 C-0.67 1.34 -0.34 0.68 0 0 Z " fill="#F2F2F2" transform="translate(378,34)"/>
<path d="M0 0 C0.66 0 1.32 0 2 0 C1.67 0.99 1.34 1.98 1 3 C0.01 2.67 -0.98 2.34 -2 2 C-1.34 1.34 -0.68 0.68 0 0 Z " fill="#E9E9E9" transform="translate(291,28)"/>
<path d="M0 0 C0.99 0.33 1.98 0.66 3 1 C2.67 1.99 2.34 2.98 2 4 C1.34 2.68 0.68 1.36 0 0 Z " fill="#F6F6F6" transform="translate(436,20)"/>
<path d="M0 0 C0.66 0.33 1.32 0.66 2 1 C1.67 1.99 1.34 2.98 1 4 C0.34 3.34 -0.32 2.68 -1 2 C-0.67 1.34 -0.34 0.68 0 0 Z " fill="#EBEBEB" transform="translate(326,122)"/>
<path d="M0 0 C0.99 0.33 1.98 0.66 3 1 C3 1.66 3 2.32 3 3 C2.01 2.67 1.02 2.34 0 2 C0 1.34 0 0.68 0 0 Z " fill="#FCFCFC" transform="translate(285,102)"/>
<path d="M0 0 C0.99 0.33 1.98 0.66 3 1 C2.67 1.66 2.34 2.32 2 3 C1.34 3 0.68 3 0 3 C0 2.01 0 1.02 0 0 Z " fill="#E4E4E4" transform="translate(283,99)"/>
<path d="M0 0 C0.66 0.99 1.32 1.98 2 3 C1.01 3.33 0.02 3.66 -1 4 C-0.67 2.68 -0.34 1.36 0 0 Z " fill="#EDECED" transform="translate(227,73)"/>
<path d="M0 0 C0.66 0 1.32 0 2 0 C2 0.99 2 1.98 2 3 C1.01 2.67 0.02 2.34 -1 2 C-0.67 1.34 -0.34 0.68 0 0 Z " fill="#EEF0EF" transform="translate(140,73)"/>
<path d="M0 0 C0.99 0.33 1.98 0.66 3 1 C2.67 1.66 2.34 2.32 2 3 C1.34 3 0.68 3 0 3 C0 2.01 0 1.02 0 0 Z " fill="#B3CED3" transform="translate(278,48)"/>
<path d="M0 0 C0.99 0.99 1.98 1.98 3 3 C2.01 3 1.02 3 0 3 C0 2.01 0 1.02 0 0 Z " fill="#E8E8E8" transform="translate(357,31)"/>
<path d="M0 0 C0.66 0.33 0.66 0.33 4 2 C3.01 2.33 2.02 2.66 1 3 C0.67 2.01 0.34 1.02 0 0 Z " fill="#DFDFDF" transform="translate(326,21)"/>
<path d="M0 0 C0.5 0.33 0.5 0.33 3 2 C2.01 2.33 1.02 2.66 0 3 C0 2.01 0 1.02 0 0 Z " fill="#F4F4F4" transform="translate(298,120)"/>
<path d="M0 0 C0.99 0.33 1.98 0.66 3 1 C2.34 1.66 1.68 2.32 1 3 C0.67 2.01 0.34 1.02 0 0 Z " fill="#060606" transform="translate(290,32)"/>
<path d="M0 0 C0.99 0.33 1.98 0.66 3 1 C2.34 1.66 1.68 2.32 1 3 C0.67 2.01 0.34 1.02 0 0 Z " fill="#1B1B1B" transform="translate(329,18)"/>
</svg>
