<?xml version="1.0" encoding="UTF-8"?>
<svg xmlns="http://www.w3.org/2000/svg" viewBox="0 0 500 125" width="500" height="125" shape-rendering="geometricPrecision">
<path d="M241.11 106.25C238.34 103.14 237.03 93.26 238.6 87.33C238.97 85.96 239.65 83.97 240.11 82.92C240.88 81.19 241.06 81 241.98 81C243.16 81 243.24 81.35 242.46 83.2C239.98 89.15 240.01 97.67 242.55 104.38C243.04 105.68 243.07 106.02 242.69 106.47C242.11 107.17 241.91 107.14 241.11 106.25ZM261.01 106.52C260.67 106.11 260.83 105.3 261.85 102.14C263.06 98.38 263.1 98.12 263.08 93.55C263.06 89.15 262.99 88.63 262.01 85.83C261.44 84.18 260.88 82.42 260.78 81.92C260.61 81.08 260.68 81 261.61 81C262.71 81 262.93 81.22 263.61 83C265.63 88.29 265.77 89.02 265.78 93.83C265.79 98.04 265.7 98.76 264.88 101.17C263.73 104.58 263.01 105.99 262.13 106.56C261.53 106.95 261.37 106.95 261.01 106.52ZM344.56 106.11C344.43 105.99 344.33 105.39 344.33 104.78C344.33 103.68 344.31 103.67 342.75 103.61C341.29 103.56 340.49 103.5 339.42 103.38C339.18 103.35 339 102.87 339 102.25C339.01 100.66 342.99 94.6 344.24 94.26C345.32 93.97 346.32 94.21 346.37 94.77C346.38 94.99 346.38 96.47 346.37 98.06C346.33 100.77 346.39 100.99 347.17 101.61C348.22 102.44 348.22 102.91 347.17 103.39C346.55 103.67 346.35 104 346.4 104.65C346.43 105.13 346.35 105.7 346.21 105.93C345.94 106.36 344.92 106.48 344.56 106.11ZM19.07 105.6C18.37 104.91 18.62 104.19 20.25 102.15C21.13 101.06 22.14 99.77 22.5 99.29C22.87 98.8 25.19 95.96 27.67 92.97C33.06 86.46 42 75.24 42 74.98C42 74.88 41.28 73.98 40.39 72.98C39.51 71.98 37.98 70.12 37 68.83C36.01 67.55 33.85 64.85 32.18 62.83C28.74 58.66 24.23 53.12 23.01 51.56C22.55 50.98 21.08 49.17 19.74 47.55C17.84 45.26 17.32 44.4 17.4 43.72C17.47 43.05 17.71 42.81 18.35 42.73C19.27 42.63 18.42 41.67 31.22 57.25C34.13 60.78 37.25 64.61 38.17 65.77C43.14 72.05 44.12 73.2 44.77 73.55C45.29 73.83 57.95 73.93 93.64 73.91L141.81 73.89L143.07 72.53C143.77 71.78 145.85 69.22 147.69 66.83C149.54 64.45 152.2 61.02 153.61 59.21C155.01 57.4 156.54 55.37 157 54.69C157.46 54.01 159.01 51.99 160.44 50.21C162.85 47.2 163.12 46.97 164.11 47.06C165.97 47.24 165.64 48.14 161.9 53.08C160 55.6 157.84 58.37 157.09 59.25C152.43 64.74 146.26 72.99 146.45 73.48C146.55 73.76 147.09 73.92 147.81 73.9C148.73 73.88 149.26 74.12 150.12 74.96L151.25 76.05L153.37 73.56C154.54 72.18 156.32 69.97 157.33 68.64C158.34 67.31 160.89 64.18 163.01 61.69C165.12 59.2 167.57 56.23 168.46 55.09C169.36 53.95 170.37 52.93 170.71 52.82C171.65 52.52 172.67 52.97 172.67 53.68C172.67 54.02 170.98 56.38 168.91 58.9C166.84 61.43 164.1 64.83 162.82 66.45C161.55 68.07 159.9 70.11 159.17 71C154.59 76.5 153.33 78.1 153.33 78.4C153.33 78.85 154.31 80.1 160.67 87.84C161.31 88.62 162.58 90.2 163.5 91.35C164.42 92.49 166.6 95.17 168.34 97.3C172.19 101.99 173 103.11 173 103.79C173 104.46 171.8 105.11 171.19 104.76C170.93 104.62 168.57 101.87 165.94 98.65C163.32 95.44 160.62 92.14 159.95 91.32C159.27 90.5 156.52 87.13 153.82 83.83C151.13 80.53 148.73 77.63 148.49 77.38C148.13 77 139.63 76.91 96.62 76.84C68.32 76.8 44.92 76.89 44.62 77.04C44.32 77.19 43.04 78.55 41.79 80.06C40.53 81.56 38.68 83.78 37.67 84.98C36.66 86.18 35.24 87.94 34.5 88.89C33.77 89.83 30.84 93.43 28 96.87C25.16 100.32 22.34 103.78 21.73 104.57C20.63 106.01 19.8 106.33 19.07 105.6ZM359.4 103.75C357.69 100 357.19 97.61 357.18 93.17C357.17 90.97 357.34 88.57 357.55 87.83C359.47 81.17 360.23 79.71 361.6 80.15C362.34 80.38 362.57 81.27 362.04 81.85C361.88 82.02 361.4 83.29 360.96 84.67C360.25 86.91 360.17 87.76 360.19 93C360.2 98.69 360.23 98.91 361.27 101.96C362.1 104.36 362.26 105.19 361.97 105.54C361.15 106.53 360.45 106.04 359.4 103.75ZM387.78 105.48C387.66 105.16 387.82 104.21 388.15 103.37C389.58 99.65 390.02 97.22 390.03 93C390.05 88.71 389.79 87.2 388.29 82.93C387.68 81.18 387.6 80.6 387.91 80.29C388.75 79.45 389.87 80.47 390.77 82.89C392.38 87.22 392.67 88.76 392.67 93.01C392.67 97.5 392 100.7 390.38 104.03C389.45 105.95 388.22 106.63 387.78 105.48ZM422.83 105.02C422.04 104.87 421.81 104.64 421.72 103.88C421.64 103.11 421.99 102.55 423.76 100.72C426.37 98.01 427.12 96.69 426.69 95.56C426.32 94.59 425.17 94.24 423.31 94.54C422.01 94.75 421.95 94.72 422.05 93.96C422.14 93.36 422.5 93.06 423.59 92.71C425.6 92.08 427.07 92.44 428.33 93.88C429.2 94.87 429.33 95.24 429.15 96.12C428.84 97.63 427.59 99.67 425.99 101.26C425.23 102.02 424.71 102.8 424.83 102.99C424.94 103.18 426 103.33 427.17 103.33C429.42 103.33 430.08 103.73 429.23 104.58C428.68 105.13 424.79 105.39 422.83 105.02ZM247.39 101.42C247.04 100.74 246.86 89.08 247.19 88.23C247.51 87.39 248.9 87.53 249.51 88.47C250.23 89.56 250.18 100.09 249.46 101.25C248.89 102.14 247.81 102.23 247.39 101.42ZM254.16 101.25C254.06 100.84 254.02 97.65 254.07 94.17C254.17 87.84 254.17 87.83 254.94 87.72C256.55 87.5 256.67 87.95 256.67 94.56C256.67 98.16 256.52 100.98 256.32 101.36C255.83 102.28 254.4 102.21 254.16 101.25ZM278.4 101.6C278.11 101.31 278 98.7 278 91.93L278 82.67L278.98 82.67C279.52 82.67 280.08 82.85 280.23 83.08C280.38 83.31 280.57 87.02 280.67 91.33L280.83 99.17L284.13 99.33C286.75 99.47 287.5 99.62 287.78 100.06C288.06 100.5 287.99 100.79 287.52 101.31C286.96 101.93 286.51 102 282.85 102C280.14 102 278.67 101.87 278.4 101.6ZM290.07 101.6C289.78 101.32 289.67 99.29 289.67 94.59C289.67 87.42 289.69 87.35 291.5 87.8L292.33 88.01L292.33 94.61C292.33 101.36 292.22 102 291 102C290.71 102 290.29 101.82 290.07 101.6ZM295.12 101.49C294.86 100.82 295.03 100.2 296.83 95.33C301.54 82.59 301.42 82.84 302.46 82.72C302.98 82.66 303.75 82.7 304.15 82.8C304.93 83 304.86 82.83 309.06 94.5C309.98 97.07 310.89 99.48 311.07 99.87C311.66 101.14 311.28 101.83 310 101.83C308.87 101.83 308.82 101.77 308.07 99.68C307.65 98.5 307.16 97.36 306.99 97.15C306.59 96.67 300.2 96.54 299.35 96.99C299.02 97.17 298.59 97.97 298.39 98.77C297.75 101.29 295.7 103.01 295.12 101.49ZM315.01 101.36C314.49 100.39 314.55 81.92 315.07 81.4C315.54 80.92 316.31 80.89 317 81.33C317.74 81.79 317.87 100.13 317.14 101.25C316.54 102.17 315.48 102.22 315.01 101.36ZM322.37 101.54C322.1 101.22 322.02 98.41 322.08 91.96L322.17 82.83L323.03 82.73C323.5 82.68 324.06 82.84 324.27 83.09C324.48 83.34 324.68 85.07 324.74 87.02L324.83 90.5L328.46 90.6C333.28 90.72 333.33 90.68 333.33 86.32C333.33 82.74 333.68 81.96 334.98 82.66C335.36 82.86 335.68 83.21 335.7 83.43C335.71 83.65 335.73 87.71 335.75 92.44C335.76 100.05 335.7 101.11 335.21 101.6C334.78 102.03 334.52 102.07 334.08 101.79C333.59 101.49 333.48 100.8 333.41 97.58C333.34 94.83 333.18 93.62 332.86 93.35C332.56 93.11 331.08 93.01 328.62 93.07L324.83 93.17L324.74 96.99C324.66 99.94 324.52 100.94 324.1 101.4C323.46 102.12 322.88 102.16 322.37 101.54ZM343.99 101.02C344.49 100.09 344.43 97.33 343.92 97.34C343.39 97.36 341.67 100.17 341.67 101.02C341.67 101.92 343.51 101.92 343.99 101.02ZM436.73 100.8C435.87 100.38 434.85 99.77 434.45 99.44C432.25 97.57 431.09 92.01 432.12 88.17C433.23 83.99 435.02 82.33 439.1 81.68C440.56 81.45 441.42 81.53 444.26 82.18C445.62 82.49 447.6 84.61 448.32 86.54C449.08 88.59 449.23 92.24 448.65 94.94C448.19 97.09 445.66 100 443.6 100.75C441.14 101.65 438.53 101.67 436.73 100.8ZM366.7 100.87C366.44 100.55 366.35 98.39 366.41 93.79L366.5 87.17L367.44 87.06C369.24 86.85 369.33 87.19 369.33 93.8C369.33 98.74 369.24 99.99 368.81 100.59C368.23 101.43 367.27 101.56 366.7 100.87ZM373.56 101.11C373.43 100.99 373.33 97.76 373.33 93.94L373.33 87L374.27 87C375.93 87 376 87.3 376 94.22C376 100.23 375.96 100.67 375.36 100.99C374.62 101.38 373.88 101.43 373.56 101.11ZM380.35 100.69C379.98 100 379.85 88.44 380.2 87.53C380.43 86.94 382.17 86.79 382.5 87.33C382.89 87.97 382.72 100.37 382.31 100.86C381.75 101.53 380.75 101.44 380.35 100.69ZM404.37 100.88C404.1 100.55 404.02 97.76 404.08 91.33C404.16 83.09 404.22 82.2 404.75 81.87C405.17 81.6 405.49 81.6 405.92 81.87C406.4 82.17 406.52 82.83 406.59 85.7C406.66 88.48 406.79 89.25 407.24 89.58C407.98 90.14 414.38 90.16 414.93 89.6C415.19 89.34 415.33 88.01 415.33 85.83C415.33 82.51 415.58 81.67 416.54 81.67C416.77 81.67 417.19 81.9 417.48 82.19C417.93 82.64 418 83.95 418 91.47C418 99.89 417.97 100.25 417.31 100.85C416.79 101.33 416.5 101.39 416.06 101.12C415.6 100.83 415.47 100.03 415.33 96.63L415.17 92.5L411 92.5L406.83 92.5L406.74 96.32C406.66 99.28 406.52 100.27 406.1 100.74C405.46 101.45 404.88 101.5 404.37 100.88ZM442.6 98.53C445.23 97.15 446.55 94.11 446.18 90.25C445.89 87.31 445.2 85.77 443.7 84.76C441.74 83.45 437.76 83.86 436.28 85.54C434.73 87.29 434.22 91.85 435.2 95.22C435.9 97.65 437.65 99 440.07 99C440.96 99 442.1 98.79 442.6 98.53ZM305.61 94.24C305.87 93.93 305.69 93 304.97 90.82C303.52 86.41 302.92 85.48 302.46 86.92C302.36 87.24 302.15 87.8 302 88.17C301.14 90.32 300.33 93.02 300.33 93.78C300.33 94.66 300.36 94.67 302.79 94.67C304.39 94.67 305.38 94.52 305.61 94.24ZM247.52 84.81C246.33 83.62 247.25 81.74 248.82 82.13C249.93 82.41 250.29 83.79 249.49 84.68C248.77 85.47 248.22 85.51 247.52 84.81ZM254.4 84.93C253.73 84.26 253.9 82.41 254.65 82.17C256.29 81.65 257.35 83.61 256.06 84.78C255.33 85.44 254.94 85.47 254.4 84.93ZM289.79 84.49C289.34 83.8 289.31 83.48 289.62 82.8C290.09 81.76 291.52 81.8 292.22 82.86C292.62 83.48 292.6 83.67 291.98 84.45C291.11 85.56 290.5 85.57 289.79 84.49ZM380.49 84.11C379.45 83.07 380.01 81.33 381.38 81.33C383.21 81.33 383.46 83.96 381.67 84.43C381.29 84.53 380.77 84.39 380.49 84.11ZM366.46 83.86C366.37 83.6 366.33 82.96 366.39 82.44C366.48 81.65 366.67 81.48 367.58 81.4C368.46 81.31 368.73 81.45 369.03 82.1C369.58 83.3 368.93 84.33 367.64 84.33C367.09 84.33 366.57 84.12 366.46 83.86ZM373.31 83.62C372.78 82.62 373.4 81.33 374.43 81.33C375.39 81.33 376 81.92 376 82.83C376 84.34 374.01 84.93 373.31 83.62ZM472.01 80.69C471.49 79.7 471.59 79.14 472.5 78.06C472.96 77.52 473.33 77 473.33 76.92C473.33 76.84 418.83 76.78 352.21 76.8C250.61 76.82 231 76.75 230.55 76.37C229.92 75.86 229.82 74.49 230.37 74.14C230.57 74.02 285.26 73.92 351.89 73.92C457.41 73.93 473.07 73.86 473.23 73.44C473.34 73.18 473.03 72.55 472.54 72.05C472.04 71.52 471.67 70.75 471.67 70.23C471.67 69.47 471.81 69.33 472.59 69.33C473.3 69.33 474.11 69.93 476.09 71.92C477.62 73.47 478.67 74.79 478.67 75.2C478.67 75.9 473.4 81.33 472.72 81.33C472.52 81.33 472.2 81.04 472.01 80.69ZM263.02 66.92C261.06 62.66 260.83 61.55 260.83 56.17C260.83 50.7 261.21 48.67 262.9 45.13C263.73 43.38 263.94 43.17 264.83 43.17C265.74 43.17 265.82 43.26 265.73 44.16C265.67 44.7 265.41 45.52 265.16 45.99C264.36 47.44 263.62 51.04 263.45 54.33C263.23 58.43 263.9 62.64 265.32 66.14C265.93 67.65 266 68.1 265.67 68.5C264.8 69.55 264.02 69.08 263.02 66.92ZM276.77 68.45C276.65 68.15 276.83 67.21 277.15 66.37C279.65 59.9 279.73 51.42 277.33 45.83C276.43 43.73 276.46 43 277.45 43C278.64 43 279.23 43.91 280.53 47.7C281.64 50.97 281.71 51.43 281.76 55.83C281.8 59.48 281.68 60.94 281.21 62.5C279.77 67.31 277.5 70.35 276.77 68.45ZM328.42 67.5C327.68 67.18 327.33 66.8 327.33 66.32C327.33 65.67 327.45 65.63 328.75 65.86C329.53 66 330.44 66.09 330.78 66.07C331.66 66.02 333 65.07 333 64.49C333 63.62 331.73 62.67 330.56 62.67C329.31 62.67 328.12 61.95 328.46 61.4C328.59 61.19 329.25 60.93 329.93 60.8C331.53 60.52 332.33 59.79 332.33 58.64C332.33 57.48 331.56 57.19 329.31 57.5C327.78 57.71 327.67 57.68 327.67 57.01C327.67 56.51 328.01 56.15 328.82 55.82C330.48 55.12 332.07 55.22 333.37 56.09C334.34 56.75 334.51 57.07 334.6 58.37C334.67 59.43 334.54 60.02 334.18 60.32C333.42 60.95 333.55 61.85 334.5 62.47C335.11 62.87 335.33 63.31 335.33 64.1C335.33 67.01 331.56 68.87 328.42 67.5ZM376.35 67.36C375.78 66.31 375.91 66.04 377.97 63.89C380.42 61.33 381.53 59.32 381.02 58.38C380.55 57.49 379.58 57.22 377.8 57.49C376.47 57.69 376.33 57.64 376.33 57.03C376.33 56.16 377.9 55.33 379.57 55.33C381.3 55.34 382.84 56.35 383.32 57.79C383.65 58.8 383.61 59.19 383.05 60.48C382.68 61.3 381.69 62.71 380.86 63.61C378.68 65.93 378.74 66.11 381.69 66.01C383.47 65.95 384.38 66.64 383.67 67.5C383.35 67.88 382.48 68 379.97 68C377.07 68 376.65 67.93 376.35 67.36ZM270.15 63.52C269.71 62.84 269.63 61.73 269.7 56.61C269.74 53.25 269.92 50.31 270.1 50.08C270.5 49.55 271.74 49.54 272.27 50.07C272.55 50.35 272.67 52.33 272.67 56.85C272.67 62.61 272.61 63.28 272.06 63.78C271.22 64.54 270.77 64.48 270.15 63.52ZM297.01 63.69C294.78 62.79 292.85 60.43 292.32 57.96C291.71 55.07 292.08 50.82 293.12 48.77C294.67 45.72 296.58 44.65 300.41 44.69C303.32 44.72 304.9 45.24 305.8 46.45L306.47 47.34L305.75 48.07C305.05 48.76 305 48.77 304.38 48.21C304.02 47.88 302.9 47.4 301.89 47.14C300.22 46.7 299.91 46.71 298.44 47.26C296.46 47.99 295.53 49.49 294.97 52.85C294.63 54.85 294.66 55.44 295.17 57.17C295.83 59.42 297.61 61.45 299.22 61.76C300.35 61.99 302.96 61.42 303.69 60.79C304.39 60.19 305.48 60.21 306 60.83C306.68 61.65 305.61 62.85 303.5 63.64C301.24 64.48 299 64.5 297.01 63.69ZM310.01 63.68C309.78 63.25 309.69 59.82 309.74 53.93L309.83 44.83L310.82 44.72C312.36 44.55 312.67 45.3 312.67 49.23L312.67 52.67L316.46 52.67C319.52 52.67 320.34 52.56 320.69 52.14C320.99 51.78 321.14 50.55 321.15 48.42C321.16 45.77 321.26 45.18 321.75 44.87C322.18 44.6 322.49 44.6 322.92 44.87C323.45 45.2 323.51 46.1 323.59 54.44C323.67 63.26 323.65 63.65 323.03 63.98C322.18 64.44 321.45 64.13 321.2 63.23C321.1 62.83 321.01 60.98 321 59.12C321 56.35 320.91 55.7 320.47 55.54C320.18 55.42 318.32 55.33 316.33 55.33L312.72 55.33L312.61 59.36C312.51 62.89 312.42 63.45 311.85 63.86C310.97 64.51 310.42 64.45 310.01 63.68ZM339.01 63.69C338.8 63.29 338.67 59.75 338.67 54.5C338.67 49.25 338.8 45.71 339.01 45.31C339.26 44.84 339.71 44.67 340.66 44.67C341.75 44.67 342.1 44.85 342.77 45.75C343.5 46.74 345.93 51.05 348.97 56.73C350.82 60.19 351.06 59.59 350.93 51.73C350.84 45.85 350.89 45.21 351.42 44.87C351.84 44.6 352.16 44.6 352.58 44.87C353.12 45.21 353.17 46.03 353.17 54.17L353.17 63.09L352.25 63.78L351.33 64.46L350.42 63.78C349.91 63.41 349.35 62.81 349.17 62.46C347.22 58.71 341.83 49.33 341.61 49.33C341.46 49.33 341.33 52.31 341.33 55.96C341.33 62.15 341.29 62.63 340.64 63.46C339.82 64.5 339.47 64.55 339.01 63.69ZM358.48 63.91C358.4 63.68 358.36 59.29 358.41 54.16L358.5 44.83L359.56 44.73C361.05 44.59 361.32 45.29 361.23 49.09C361.2 50.84 361.27 52.38 361.39 52.5C361.65 52.76 368.93 52.75 369.36 52.48C369.53 52.38 369.67 50.92 369.67 49.23C369.68 45.4 369.86 44.67 370.81 44.67C372.28 44.67 372.33 44.99 372.33 54.35C372.33 62.85 372.3 63.26 371.66 63.84C371.02 64.42 370.95 64.42 370.41 63.88C369.95 63.42 369.82 62.62 369.77 59.79C369.74 57.85 369.63 56.06 369.53 55.8C369.39 55.44 368.48 55.33 365.37 55.33C361.86 55.33 361.36 55.4 361.19 55.92C361.09 56.24 361.04 58.06 361.07 59.96C361.12 63 361.05 63.47 360.5 63.87C359.72 64.45 358.7 64.47 358.48 63.91ZM175.35 48.84C171.85 47.71 169.91 45.78 168.64 42.18C167.79 39.74 167.76 33 168.61 30.5C169.63 27.46 171.22 25.49 173.63 24.27C175.71 23.21 175.95 23.17 179.48 23.19C183.73 23.23 185.48 23.82 187.53 25.93C189.9 28.36 190.66 30.79 190.66 35.92C190.67 40.45 190.05 42.56 187.91 45.27C185.79 47.95 183.4 49.11 179.69 49.23C177.85 49.29 176.3 49.15 175.35 48.84ZM270.02 46.85C269.8 46.59 269.67 45.95 269.73 45.44C269.82 44.58 269.95 44.5 271.17 44.5C272.38 44.5 272.51 44.58 272.61 45.44C272.74 46.58 272.17 47.33 271.17 47.33C270.75 47.33 270.24 47.12 270.02 46.85ZM180.6 45.99C184.88 45 186.99 41.61 187 35.68C187 32.03 186.43 30.08 184.86 28.39C183.27 26.67 182.14 26.22 179.33 26.2C176.27 26.18 174.57 26.92 173.28 28.83C172.15 30.52 171.96 31.37 171.77 35.6C171.64 38.72 171.71 39.25 172.5 41.34C173.52 44.01 175.01 45.53 176.91 45.84C177.6 45.96 178.32 46.11 178.5 46.17C179.02 46.34 179.08 46.34 180.6 45.99Z" fill="#1e2749" fill-rule="evenodd"/>
</svg>
