<?xml version="1.0" encoding="UTF-8"?>
<svg xmlns="http://www.w3.org/2000/svg" viewBox="0 0 500 136" width="500" height="136" shape-rendering="geometricPrecision">
<path d="M366.67 119.33C366.39 119.15 365.33 119.09 364.26 119.21C362.2 119.43 359.93 118.79 359.1 117.73C356.83 114.87 356.71 111.32 358.78 108.27C359.94 106.56 364.51 106.2 366.87 107.64C368.89 108.87 369.86 112.53 368.85 115.16C368.32 116.57 368.32 116.7 368.87 117.64C369.35 118.45 369.38 118.71 369.02 119.14C368.53 119.73 367.42 119.82 366.67 119.33ZM73.74 119.05C73.42 118.85 73.34 117.37 73.41 112.81L73.5 106.83L76.58 106.74C80.08 106.63 81.34 107.06 82.16 108.66C83.08 110.43 82.83 111.92 81.37 113.37C80.51 114.24 79.76 114.68 79.12 114.7C76.34 114.8 76.51 114.67 76.4 116.66C76.34 117.66 76.13 118.67 75.94 118.91C75.54 119.39 74.39 119.46 73.74 119.05ZM362.75 115.69C363.03 115.29 363.68 115.01 364.49 114.94C365.58 114.85 365.83 114.69 366.03 113.93C366.37 112.66 365.83 110.61 364.98 109.92C364.02 109.14 362.17 109.17 361.37 109.96C360.5 110.83 360.16 113.1 360.69 114.44C361.49 116.45 362 116.76 362.75 115.69ZM79 111.67C80.26 110.41 79.61 109.33 77.6 109.33C76.39 109.33 76.33 109.38 76.33 110.43C76.33 112.31 77.71 112.95 79 111.67ZM93.12 86.94C92.46 86.62 91.67 85.38 91.67 84.65C91.67 84.14 92.86 84.28 93.96 84.92C94.95 85.48 95 85.48 95.67 84.81C96.44 84.04 96.29 83.14 95.33 82.83C95 82.73 94.54 82.42 94.31 82.14C93.98 81.74 94.03 81.51 94.62 80.89C95.01 80.47 95.33 80.02 95.33 79.9C95.33 79.47 94.16 79.66 93.38 80.21C92.68 80.7 92.56 80.7 92.08 80.23C91.61 79.76 91.62 79.63 92.12 78.85C92.61 78.11 92.92 78 94.51 78C96.85 78 97.84 78.82 97.52 80.5C97.39 81.22 97.51 82.01 97.87 82.77C98.41 83.89 98.4 83.98 97.68 85.14C96.52 87.03 94.74 87.73 93.12 86.94ZM378.12 86.94C377.46 86.62 376.67 85.38 376.67 84.65C376.67 84.14 378.21 84.28 378.67 84.83C379.17 85.44 380.05 85.48 380.6 84.93C381.29 84.24 381.04 83.37 380 82.83C378.77 82.2 378.71 81.24 379.85 80.72C380.32 80.51 380.61 80.18 380.5 80C380.19 79.5 378.96 79.6 378.32 80.17C377.65 80.78 376.67 80.49 376.67 79.68C376.67 78.9 377.64 78.07 378.67 77.97C381.45 77.72 382.48 78.41 382.55 80.6C382.58 81.46 382.71 82.58 382.84 83.09C383.17 84.36 382.47 85.86 381.17 86.66C379.98 87.4 379.21 87.47 378.12 86.94ZM70.92 82.84C68.33 81.05 67.28 76.8 68.73 74C69.81 71.9 71.29 71 73.64 71C75.56 71 76.58 71.45 77.74 72.82C78.42 73.62 78.49 74.38 77.93 74.93C77.35 75.51 77.14 75.45 76 74.33C75.21 73.56 74.68 73.33 73.63 73.33C71.75 73.33 71.08 73.8 70.65 75.4C70.09 77.48 70.5 79.47 71.71 80.49C73.21 81.74 74.44 81.61 76.08 80C77.61 78.5 77.74 78.46 78.48 79.19C78.96 79.67 78.95 79.81 78.42 80.73C76.82 83.48 73.28 84.48 70.92 82.84ZM80.89 83.25C80.38 82.88 80.33 82.17 80.41 77L80.5 71.17L81.5 71.17C82.49 71.17 82.5 71.19 82.67 73.33L82.83 75.5L85.11 75.6C86.47 75.66 87.58 75.55 87.85 75.32C88.11 75.11 88.34 74.13 88.4 73.06C88.48 71.56 88.62 71.15 89.1 71.06C90.5 70.79 90.67 71.46 90.67 77.16C90.67 81.96 90.6 82.62 90.06 83.11C88.98 84.09 88.37 83.2 88.26 80.5L88.17 78.17L85.42 78.07L82.67 77.97L82.67 80.27C82.67 82.06 82.53 82.68 82.06 83.11C81.56 83.56 81.35 83.59 80.89 83.25ZM355.93 82.93C353.27 81.39 352.19 76.86 353.74 73.76C354.76 71.72 356.42 70.88 359.06 71.07C360.72 71.19 361.18 71.37 362.17 72.34C363.5 73.62 363.64 74.48 362.63 75.02C362.03 75.34 361.77 75.25 360.87 74.36C359.56 73.1 357.41 72.92 356.35 73.98C354.88 75.45 355.05 78.96 356.66 80.42C358.18 81.79 359.47 81.66 361.03 79.97C363.1 77.72 364.69 79.03 362.84 81.46C361.16 83.66 358.25 84.28 355.93 82.93ZM365.92 83.29C365.4 83 365.33 82.34 365.33 77.14C365.33 72.05 365.4 71.29 365.88 71.1C366.96 70.69 367.49 71.47 367.6 73.59L367.7 75.61L370.04 75.72C372.89 75.86 373.25 75.56 373.4 73C373.48 71.55 373.63 71.15 374.1 71.06C375.5 70.79 375.67 71.45 375.67 77.19C375.67 82.35 375.63 82.65 374.96 83.12C373.75 83.97 373.33 83.48 373.33 81.16C373.33 77.99 373.34 78 370.3 78L367.67 78L367.67 80.28C367.67 82.84 367.04 83.92 365.92 83.29ZM357.88 68.25C357.77 67.84 357.67 64.39 357.67 60.58L357.67 53.67L350.21 53.67C344.01 53.67 342.68 53.58 342.34 53.17C342.11 52.9 342.01 52.45 342.12 52.17C342.28 51.74 343.4 51.67 349.59 51.67C354.81 51.67 356.98 51.55 357.27 51.27C357.55 50.98 357.67 49.04 357.67 44.63C357.67 41.2 357.76 38.15 357.87 37.86C358.13 37.18 359.2 37.18 359.46 37.86C359.58 38.15 359.67 41.38 359.67 45.03L359.67 51.67L366.77 51.67C374.31 51.67 375.22 51.84 374.11 53.06C373.62 53.61 372.9 53.67 366.62 53.67L359.67 53.67L359.67 60.69C359.67 64.89 359.53 67.97 359.32 68.36C358.86 69.22 358.12 69.17 357.88 68.25ZM73.26 61.25L73.17 53.83L65.62 53.74C59.44 53.67 58 53.56 57.66 53.16C57.34 52.77 57.34 52.56 57.67 52.17C58.01 51.75 59.3 51.67 65.36 51.67C72.22 51.67 72.66 51.63 72.99 51.02C73.19 50.64 73.33 47.76 73.33 44C73.33 38.1 73.38 37.63 73.92 37.73C74.44 37.83 74.51 38.46 74.59 44.31C74.65 48.4 74.82 50.95 75.05 51.22C75.33 51.57 77.11 51.67 83 51.67C89.56 51.67 90.65 51.74 91.03 52.2C91.41 52.66 91.38 52.81 90.84 53.2C90.34 53.57 88.55 53.67 82.44 53.67L74.67 53.67L74.67 60.77C74.67 67.65 74.53 68.67 73.61 68.67C73.46 68.67 73.31 65.33 73.26 61.25ZM38.36 62.47C36.52 60.92 37.46 59.53 39.46 60.84C40.34 61.41 41.2 61.21 41.68 60.32C41.93 59.84 41.81 59.57 41.12 59.02C40.64 58.64 40.11 58.33 39.96 58.33C39.4 58.33 39.68 57.15 40.33 56.74C40.7 56.52 41 56.18 41 56C41 55.49 39.74 55.6 38.84 56.2C37.92 56.79 37.33 56.59 37.33 55.67C37.33 54.87 38.86 53.67 39.89 53.67C41 53.67 42.99 54.54 43.06 55.07C43.09 55.3 43.15 56.1 43.19 56.83C43.24 57.57 43.38 58.65 43.51 59.25C43.79 60.56 43.13 61.73 41.57 62.68C40.16 63.54 39.59 63.5 38.36 62.47ZM323.83 62.95C322.92 62.45 322.33 61.66 322.33 60.94C322.33 60.2 323.04 60.17 324.32 60.83C325.19 61.28 325.34 61.26 326.03 60.71C326.93 59.98 326.72 59.13 325.51 58.67C324.5 58.29 324.41 57.32 325.33 56.74C325.7 56.52 326 56.18 326 56C326 55.49 324.74 55.6 323.84 56.2C322.46 57.1 321.79 55.92 322.86 54.5C323.63 53.48 326.33 53.57 327.48 54.64C328.18 55.31 328.3 55.66 328.14 56.53C328.03 57.13 328.13 58.16 328.38 58.82C328.91 60.31 328.42 61.41 326.69 62.58C325.45 63.41 324.83 63.49 323.83 62.95ZM34.37 59.24C34.17 59.03 34 57.79 34 56.43L34 54L31.18 54L28.36 54L28.26 56.38C28.16 58.88 27.69 59.67 26.55 59.23C26.07 59.05 26 58.28 26 53.17C26 48.05 26.07 47.29 26.55 47.1C27.59 46.7 28.16 47.48 28.33 49.53L28.5 51.5L31.17 51.5L33.83 51.5L34 49.34C34.13 47.6 34.28 47.15 34.77 47.06C36.15 46.8 36.33 47.47 36.33 52.9C36.33 55.73 36.19 58.32 36.01 58.65C35.59 59.44 34.84 59.71 34.37 59.24ZM47.25 58.92C43.61 56.82 43.31 49.8 46.76 47.64C47.62 47.1 48.27 46.99 50.08 47.08C52.1 47.18 52.43 47.3 53.49 48.33C54.83 49.62 54.92 50 54.06 50.78C53.26 51.51 53.29 51.52 51.89 50.15C50.8 49.1 50.54 48.99 49.42 49.18C47.47 49.51 46.67 50.63 46.67 53.04C46.67 55.39 47 56.14 48.33 56.83C49.85 57.62 50.64 57.44 52.09 55.99C53.48 54.6 54.18 54.44 54.76 55.36C55.2 56.06 54.27 57.46 52.55 58.72C50.92 59.9 49.05 59.97 47.25 58.92ZM93.42 59.45C93.1 59.32 93 57.74 93 53.14L93 47L96.36 47C99.63 47 99.74 47.03 100.69 47.97C101.4 48.68 101.67 49.27 101.67 50.12C101.67 50.77 101.52 51.39 101.33 51.5C100.8 51.83 100.94 52.87 101.7 54.14C102.3 55.17 102.34 55.47 102 56.51C101.75 57.26 101.09 58.08 100.25 58.69C99.03 59.57 98.66 59.66 96.37 59.64C94.97 59.63 93.65 59.54 93.42 59.45ZM104.35 59.18C104.11 58.9 104.01 57.23 104.07 54.46L104.17 50.19L106.23 50.1C107.38 50.05 108.4 50.17 108.51 50.35C108.79 50.8 108.06 51.66 107.1 52.03C106.38 52.3 106.33 52.5 106.33 55.18C106.33 56.76 106.19 58.32 106.01 58.65C105.57 59.47 104.79 59.72 104.35 59.18ZM311.37 59.24C311.13 58.99 311 56.87 311 52.93L311 47L311.81 47C312.87 47 313.12 47.44 313.33 49.67L313.5 51.5L315.83 51.6C318.63 51.72 319 51.39 319 48.77C319 47.11 319.05 47 319.82 47C321.12 47 321.34 47.91 321.29 53.07C321.24 58.14 320.93 59.33 319.66 59.33C319.07 59.33 319 59.1 319 57.19C319 53.98 319.02 54 315.96 54L313.33 54L313.33 56.02C313.33 57.13 313.19 58.32 313.01 58.65C312.59 59.44 311.84 59.71 311.37 59.24ZM332.17 58.92C330.63 58.02 329.39 55.79 329.11 53.36C328.85 51.21 330.21 48.34 331.86 47.56C333.7 46.68 336.53 46.82 337.88 47.85C339.5 49.08 339.86 49.9 339.14 50.69C338.37 51.55 338.16 51.51 337.11 50.33C336.37 49.49 335.98 49.33 334.69 49.34C333.85 49.34 333 49.45 332.8 49.59C331.53 50.44 331.12 54.28 332.14 55.83C333.35 57.69 335.66 57.68 337.31 55.81C338.39 54.58 339.03 54.39 339.65 55.14C339.95 55.51 339.93 55.84 339.52 56.63C338.14 59.3 334.68 60.38 332.17 58.92ZM380.17 59.19C377.27 57.9 375.62 53.82 376.78 50.82C377.28 49.52 377.93 48.66 379.13 47.74C379.89 47.16 380.53 47 382.16 47C384.53 47 385.96 47.74 387.23 49.63C388.73 51.84 388.65 54.18 386.99 56.79C385.43 59.26 382.57 60.27 380.17 59.19ZM461.29 59.33C460.99 59.15 459.67 57.36 458.35 55.34C457.03 53.32 455.81 51.67 455.64 51.67C455.45 51.67 455.34 53.12 455.36 55.15C455.38 57.06 455.3 58.78 455.18 58.98C454.77 59.65 453.42 59.38 453.21 58.58C452.9 57.44 452.97 47.89 453.29 47.39C453.45 47.14 453.99 46.99 454.54 47.06C455.35 47.15 455.89 47.74 457.99 50.89C459.36 52.94 460.59 54.54 460.74 54.46C460.88 54.37 461 52.84 461.01 51.06C461.01 49.29 461.14 47.63 461.29 47.39C461.45 47.14 461.93 46.99 462.37 47.05L463.17 47.17L463.26 52.8C463.34 57.69 463.28 58.51 462.79 59.05C462.16 59.75 462.04 59.77 461.29 59.33ZM465.64 58.69C463.7 56.75 464.76 54.19 467.68 53.8C469.34 53.58 470.23 52.98 469.84 52.35C469.47 51.74 467.48 51.95 466.83 52.67C465.91 53.69 465 53.54 465 52.36C465 51.03 466.67 50 468.82 50C470.17 50 470.56 50.16 471.53 51.13C472.66 52.26 472.67 52.28 472.67 55.43C472.67 59.09 472.44 59.47 470.41 59.14C469.58 59.01 469 59.07 468.86 59.3C468.4 60.03 466.65 59.7 465.64 58.69ZM474.92 59.31C474.4 59 474.33 58.33 474.33 52.98L474.33 47L477.64 47C480.7 47 481.03 47.06 481.96 47.85C483.31 48.99 483.52 49.82 482.83 51.35C482.27 52.59 482.27 52.65 482.99 53.82C484.21 55.79 483.32 57.98 480.77 59.29C479.87 59.76 475.71 59.77 474.92 59.31ZM389.9 59.13C389.77 59 389.67 56.2 389.67 52.92L389.67 46.96L390.58 47.06C391.37 47.15 391.51 47.33 391.59 48.33C391.63 48.98 391.75 49.99 391.85 50.58L392.03 51.67L394.52 51.67C396.9 51.67 397.03 51.63 397.34 50.81C397.52 50.33 397.58 49.8 397.47 49.62C397.36 49.44 397.36 48.77 397.48 48.15C397.66 47.22 397.85 47 398.5 47C398.96 47 399.46 47.28 399.65 47.64C400.09 48.46 400.11 57.34 399.67 58.48C398.91 60.49 397.21 58.92 397.36 56.34C397.5 53.92 397.6 54 394.67 54C391.65 54 391.75 53.89 391.59 57.33C391.51 58.89 391.4 59.18 390.82 59.26C390.45 59.32 390.03 59.26 389.9 59.13ZM485.56 59.11C485.43 58.99 485.33 56.99 485.33 54.66L485.33 50.43L487.4 50.21C488.97 50.05 489.59 50.11 489.94 50.47C490.35 50.87 490.23 51.06 489.04 51.81L487.67 52.68L487.67 55.6C487.67 57.44 487.52 58.68 487.27 58.93C486.83 59.37 485.91 59.46 485.56 59.11ZM469.26 57.15C470.38 56.36 470.2 55.67 468.87 55.67C467.49 55.67 466.72 56.42 467.33 57.17C467.86 57.8 468.33 57.8 469.26 57.15ZM98.68 56.99C99.79 56.4 100.14 55.37 99.47 54.64C99.03 54.15 98.45 54 96.95 54L95 54L95 55.47C95 56.34 95.17 57.01 95.42 57.11C96.16 57.41 98.03 57.34 98.68 56.99ZM383.46 56.87C388.14 54.92 385.76 47.91 380.92 49.39C377.33 50.5 378.28 56.92 382.09 57.31C382.24 57.32 382.85 57.13 383.46 56.87ZM428.22 57.11C428.1 56.99 428 56.47 428 55.96C428 54.9 427.65 54.61 426.01 54.35C425.03 54.19 424.83 54.02 424.83 53.33C424.83 52.62 425.01 52.48 426 52.4C427.35 52.28 428 51.59 428 50.27C428 49.56 428.16 49.33 428.66 49.33C429.29 49.33 429.47 49.69 429.74 51.5C429.81 51.98 430.17 52.21 431 52.33C431.98 52.47 432.17 52.64 432.17 53.33C432.17 54.06 432 54.18 430.92 54.27C429.75 54.37 429.67 54.45 429.67 55.45C429.67 56.82 428.86 57.75 428.22 57.11ZM480.46 56.64C482.18 55.29 481.22 54 478.48 54L476.67 54L476.67 55.44C476.67 56.24 476.77 56.99 476.89 57.11C477.38 57.6 479.61 57.31 480.46 56.64ZM159.4 56.27C159.12 55.99 159 54.19 159 50.31C159 45.79 159.09 44.67 159.5 44.34C160.56 43.45 161.52 44.24 163.97 48C165.29 50.03 166.51 51.59 166.69 51.49C166.86 51.38 167 49.74 167 47.85C167 44.16 167.28 43.59 168.69 44.35C169.29 44.67 169.33 45.1 169.33 50.35C169.33 56 169.33 56.02 168.54 56.38C168.06 56.59 167.53 56.62 167.22 56.45C166.94 56.29 165.64 54.55 164.34 52.58C163.04 50.61 161.83 49 161.65 49C161.47 49 161.33 50.45 161.33 52.43C161.33 55.78 161.09 56.67 160.17 56.67C159.96 56.67 159.62 56.49 159.4 56.27ZM171.67 56.07C171.24 55.72 170.89 54.96 170.78 54.16C170.53 52.27 171.32 51.39 173.6 51.04C175.47 50.74 176.22 50.3 175.85 49.7C175.48 49.09 173.48 49.29 172.55 50.02C171.56 50.8 171 50.64 171.01 49.56C171.02 48.05 172.2 47.33 174.67 47.33C177.81 47.33 178.37 48.09 178.51 52.53C178.58 54.88 178.49 55.73 178.14 56.02C177.89 56.23 176.48 56.46 175.03 56.53C172.89 56.62 172.24 56.53 171.67 56.07ZM183.5 56.14C182.19 55.48 180.75 53.56 180.3 51.86C179.54 49.05 181.11 45.48 183.56 44.45C185.98 43.44 188.43 44.09 190.39 46.26C191.71 47.72 192.26 49.73 191.85 51.61C191.5 53.18 189.76 55.54 188.52 56.13C187.11 56.8 184.81 56.81 183.5 56.14ZM193.56 56.44C193.43 56.32 193.33 53.54 193.33 50.26L193.33 44.29L194.42 44.4C195.5 44.5 195.5 44.51 195.67 46.67L195.83 48.83L198.16 48.93C200.96 49.05 201.33 48.72 201.33 46.1C201.33 44.37 201.36 44.33 202.3 44.33C202.87 44.33 203.34 44.55 203.46 44.86C203.58 45.15 203.67 47.68 203.67 50.48C203.67 55.11 203.61 55.62 203.01 56.16C201.83 57.23 201.33 56.61 201.33 54.05C201.33 52.6 201.18 51.63 200.92 51.43C200.69 51.25 199.41 51.17 198.08 51.26L195.67 51.41L195.67 53.49C195.67 55.08 195.52 55.69 195.06 56.12C194.41 56.7 193.92 56.81 193.56 56.44ZM175.66 53.84C176.3 53.07 175.68 52.61 174.37 52.88C173.07 53.14 172.65 53.92 173.49 54.54C174.14 55.01 174.89 54.77 175.66 53.84ZM134.06 54.26C133.84 54.04 133.67 53.37 133.67 52.77C133.67 51.85 133.54 51.67 132.92 51.66C131.36 51.65 130.63 51.27 130.73 50.54C130.81 50.03 131.11 49.8 131.83 49.72C133.18 49.57 133.61 49.15 133.73 47.89C133.81 47.09 134.01 46.81 134.57 46.73C135.31 46.62 135.45 46.88 135.74 48.83C135.81 49.3 136.14 49.53 136.84 49.61C137.38 49.67 138.02 49.88 138.26 50.08C138.9 50.6 137.8 51.67 136.62 51.67C135.79 51.67 135.67 51.79 135.67 52.62C135.67 53.8 134.65 54.85 134.06 54.26ZM187.68 53.83C190.37 52.44 190.19 47.69 187.42 46.63C186.23 46.18 183.88 46.54 183.25 47.26C182.52 48.09 182.25 50.13 182.66 51.64C183.3 54.02 185.48 54.96 187.68 53.83ZM277.86 52.17L277.65 51.33L248.35 51.33C232.24 51.33 218.82 51.24 218.53 51.13C218.24 51.02 218 50.64 218 50.3C218 49.68 218.78 49.67 247.42 49.67L276.83 49.67L277.68 48.65L278.52 47.62L280.68 48.3C281.86 48.67 283.7 49.21 284.75 49.49C287.81 50.33 287.31 50.91 282.44 52.14C278.27 53.2 278.12 53.2 277.86 52.17ZM98.82 51.01C99.85 49.88 99.27 49.33 97.01 49.33C95.03 49.33 95 49.35 95 50.28C95 51.52 95.19 51.67 96.84 51.67C97.8 51.67 98.41 51.46 98.82 51.01ZM480.39 51.12C481.66 49.97 481.24 49.61 478.12 49.19C476.58 48.98 476.17 49.41 476.54 50.86C476.71 51.57 476.93 51.67 478.26 51.67C479.21 51.67 480.01 51.46 480.39 51.12ZM93.44 38.85C92.44 38.41 91.67 37.47 91.67 36.69C91.67 36.24 93.22 36.22 93.5 36.67C93.85 37.23 95.62 37.05 95.94 36.42C96.36 35.61 96.08 35.01 95.12 34.65C93.9 34.18 93.82 33.46 94.89 32.52L95.83 31.69L94.9 31.68C94.39 31.67 93.63 31.9 93.2 32.17C92.52 32.62 92.38 32.62 92.02 32.2C91.54 31.61 92.01 30.53 92.99 30.01C94.05 29.44 95.84 29.61 96.82 30.38C97.63 31.02 97.71 31.25 97.52 32.43C97.37 33.38 97.47 33.99 97.86 34.58C98.36 35.35 98.36 35.5 97.8 36.73C97.41 37.61 96.79 38.26 95.95 38.69C95.26 39.04 94.65 39.33 94.6 39.32C94.54 39.31 94.02 39.1 93.44 38.85ZM378.26 38.81C377.37 38.33 376.67 37.39 376.67 36.69C376.67 36.23 378.1 36.23 378.56 36.69C378.76 36.89 379.35 37 379.88 36.94C380.64 36.86 380.85 36.65 380.94 35.92C381.02 35.19 380.87 34.93 380.18 34.67C378.86 34.17 378.75 33.39 379.87 32.48L380.83 31.69L379.83 31.69C379.28 31.69 378.56 31.9 378.22 32.15C376.84 33.2 376.11 31.72 377.35 30.4C378.22 29.46 380.11 29.43 381.58 30.33C382.57 30.93 382.66 31.13 382.63 32.58C382.61 33.45 382.71 34.65 382.84 35.25C383.35 37.58 380.33 39.93 378.26 38.81ZM71.3 34.89C69.21 33.79 68.18 31.85 68.17 29C68.16 25.32 69.7 23.29 72.83 22.82C75.45 22.42 79.15 24.81 78.32 26.36C77.81 27.3 76.73 27.14 75.63 25.96C74.78 25.05 74.49 24.94 73.46 25.11C70.91 25.52 70.04 27.01 70.52 30.16C70.81 32.11 71.93 33.15 73.72 33.15C74.88 33.15 75.21 32.97 76.07 31.91C77.08 30.65 77.9 30.36 78.57 31.04C79.33 31.8 77.91 33.97 75.99 34.97C74.26 35.87 73.12 35.85 71.3 34.89ZM356.17 34.91C352.29 32.74 351.97 25.64 355.65 23.52C358.04 22.15 361.83 22.99 362.99 25.14C363.35 25.82 363.35 26.07 363.01 26.49C362.46 27.15 361.37 27.15 361.12 26.49C360.79 25.64 359.04 24.92 357.84 25.14C356.06 25.48 355.5 26.4 355.5 29.01C355.5 30.94 355.62 31.41 356.29 32.12C357.83 33.75 359.71 33.57 361.27 31.63C361.7 31.1 362.34 30.67 362.7 30.67C364.55 30.67 363.34 33.62 360.98 34.88C359.15 35.86 357.88 35.87 356.17 34.91ZM80.49 34.58C80.39 34.17 80.35 31.43 80.4 28.5L80.5 23.17L81.5 23.17C82.49 23.17 82.5 23.19 82.67 25.33L82.83 27.5L85.11 27.6C86.47 27.66 87.58 27.55 87.85 27.32C88.11 27.11 88.34 26.13 88.4 25.06C88.49 23.35 88.58 23.16 89.3 23.05C89.73 22.99 90.22 23.14 90.37 23.39C90.78 24.03 90.74 33.92 90.32 34.69C89.91 35.47 88.82 35.54 88.54 34.81C88.42 34.52 88.33 33.4 88.33 32.32C88.33 29.93 88.07 29.75 84.92 29.93L82.67 30.06L82.67 32.3C82.67 33.59 82.5 34.7 82.27 34.93C81.62 35.58 80.7 35.4 80.49 34.58ZM365.56 35.11C365.43 34.99 365.33 32.21 365.33 28.94L365.33 23L366.33 23C367.43 23 367.59 23.35 367.75 26L367.83 27.5L370.16 27.6C372.96 27.72 373.33 27.39 373.33 24.77C373.33 23.04 373.36 23 374.3 23C374.87 23 375.34 23.21 375.46 23.53C375.58 23.82 375.67 26.34 375.67 29.13C375.67 34.51 375.42 35.53 374.14 35.28C373.59 35.18 373.49 34.83 373.4 32.84C373.34 31.57 373.16 30.36 372.99 30.15C372.8 29.92 371.73 29.8 370.25 29.85L367.83 29.92L367.67 32.21C367.57 33.47 367.38 34.69 367.23 34.92C366.94 35.36 365.92 35.48 365.56 35.11Z" fill="#1e2749" fill-rule="evenodd"/>
</svg>
