<?xml version="1.0" encoding="UTF-8"?>
<svg xmlns="http://www.w3.org/2000/svg" viewBox="0 0 2430 698" width="2430" height="698" shape-rendering="geometricPrecision">
<path d="M1892.49 643.83C1884.25 639.34 1860.85 626.12 1840.5 614.46C1820.15 602.79 1793.15 587.31 1780.5 580.05C1767.85 572.8 1755.81 565.76 1753.75 564.42L1750 561.97L1750 469.67L1750 377.36L1782.75 358.47C1876.08 304.64 1903.93 289 1906.42 289C1908.41 289 1927.61 298.64 1943 307.36C1968.25 321.67 1997.74 338.58 2027.17 355.63C2044.58 365.71 2059.97 374.48 2061.35 375.11C2063.63 376.15 2065.19 375.49 2077.68 368.22C2104.44 352.66 2194.6 300.61 2202.5 296.18C2206.9 293.71 2211.67 290.87 2213.1 289.88L2215.71 288.07L2216.36 231.29C2217.01 174.3 2217.44 166.01 2219.74 165.25C2222.97 164.18 2223.34 170.13 2223.78 230.11L2224.21 289.72L2231.86 294.05C2236.06 296.43 2256.6 308.25 2277.5 320.32C2343.72 358.56 2377 378.85 2377 381C2377 384.02 2372.51 382.27 2355.8 372.73C2345.74 366.99 2311.44 347.38 2279.58 329.15C2247.73 310.92 2220.68 296 2219.47 296C2218.26 296 2214.18 297.71 2210.39 299.81C2198.5 306.38 2147.9 335.12 2138.87 340.43C2134.13 343.22 2116.53 353.38 2099.77 363L2069.29 380.5L2068.64 434C2068.28 463.43 2067.7 504.26 2067.35 524.75L2066.72 562L2061.61 564.81C2058.8 566.35 2041.42 576.33 2023 586.97C1960.44 623.11 1909.26 652 1907.78 652C1907.62 652 1900.74 648.33 1892.49 643.83ZM410.95 641.17C393.9 631.57 288.42 571.15 278.5 565.31L273.5 562.36L273.5 469.57L273.5 376.77L321 349.33C401.62 302.75 426.59 289 430.59 289C433.11 289 445.88 295.32 461 304.05C478.85 314.35 562.03 361.52 572.61 367.34C579.27 371 585.44 374 586.33 374C588.63 374 641.6 344.46 710 305.03C725.01 296.37 739.86 289 742.28 289C743.7 289 749.74 291.63 755.68 294.84C769.5 302.29 803.19 321.05 804.5 322.02C805.05 322.42 826.42 334.78 852 349.49C877.58 364.19 899.28 376.96 900.23 377.87C901.83 379.39 901.97 383.97 902.05 439.01C902.15 498.38 901.82 504.77 898.74 503.75C896.48 503 896.15 494.98 896.07 438.47L896 382.45L872.75 369.02C774.46 312.26 745.35 296 742.07 296C739.09 296 705.41 314.84 608.5 370.72L589.5 381.68L589 471.95L588.5 562.21L561.5 577.72C456.89 637.79 433.14 651 429.74 651C429.01 651 420.55 646.58 410.95 641.17ZM1969 610.47C2041.36 568.94 2057.81 559.4 2059.42 558.07C2060.84 556.89 2061 547.87 2061 469.89L2061 383.03L2057.25 380.61C2053.05 377.9 1968.11 328.93 1949.5 318.49C1920.05 301.97 1908.72 296 1906.82 296C1904.13 296 1873.77 313.09 1792.25 360.5L1758 380.42L1758 469.69L1758 558.97L1761.75 561.33C1763.81 562.63 1771.8 567.32 1779.5 571.75C1787.2 576.18 1803.4 585.52 1815.5 592.52C1861.91 619.35 1860.91 618.78 1902.48 642.14L1907.46 644.93L1917.98 639.32C1923.77 636.24 1946.72 623.25 1969 610.47ZM442.6 637.64C457.8 630.16 567.8 566.92 579.76 558.79L584.01 555.9L583.76 468.87L583.5 381.85L567 372.3C478.58 321.1 433.54 296 430.11 296C428.86 296 421.23 299.67 413.16 304.16C398.34 312.41 339.5 346.07 322 356.31C316.77 359.37 304.75 366.29 295.27 371.69L278.05 381.5L278.02 469.09L278 556.68L293.38 565.83C310.47 576 320.17 581.65 362.58 606.1C410.82 633.92 427.3 643 429.56 643C430.74 643 436.61 640.59 442.6 637.64ZM1902.46 612.67C1893.83 608.47 1860.08 589.77 1843.5 580.02C1839.1 577.42 1826.28 569.99 1815 563.49C1784.15 545.71 1779 542.27 1779 539.4C1779 537.85 1779.58 537 1780.63 537C1784.58 537 1914.36 613.43 1913.71 615.38C1913.04 617.38 1911.25 616.95 1902.46 612.67ZM425.47 611.64C413.48 605.87 365.83 579.38 337.98 562.99C312.86 548.22 302 540.95 302 538.93C302 537.87 302.56 537 303.25 537C307.14 537.01 420.53 602.55 431.27 611C433.9 613.07 434.84 615 433.22 615C432.79 615 429.31 613.49 425.47 611.64ZM874.69 611.27C869.87 610.77 870.31 608.84 875.5 607.76C882.64 606.28 882.27 608.66 881.82 567.03C881.53 540.4 881.07 528.87 880.22 527.33C879.56 526.14 877.64 524.86 875.95 524.49C873.83 524.02 872.99 523.31 873.21 522.16C873.49 520.7 875.73 520.46 892.01 520.21C902.18 520.04 914.06 520.38 918.41 520.96C933.1 522.9 939.41 529.2 939.23 541.78C939.12 549.83 936.97 553.6 930.24 557.5C927.4 559.15 925.05 560.81 925.03 561.18C925.02 561.55 927.42 562.56 930.38 563.42C942.12 566.84 948.36 580.52 944.04 593.42C942.44 598.22 935.88 605.51 930.87 608.06C928.83 609.11 923.18 610.42 918.33 610.97C909.94 611.93 882.86 612.12 874.69 611.27ZM965.75 610.31C960.49 609.84 960.22 609.52 962.75 606.73C964.23 605.09 964.55 602.31 964.84 588.71C965.03 579.86 964.88 570.19 964.51 567.23C963.91 562.46 963.44 561.6 960.42 559.82C954.39 556.26 956.6 554.04 966.18 554.01C972.87 553.99 976 555.4 976 558.42C976 562.47 977.59 562.3 984.06 557.53C989.08 553.84 991 553 994.46 553C1001.11 553 1004.45 558.47 1000.17 562.35C997.89 564.41 995.61 564.43 989.75 562.43C982.09 559.82 980.27 562.17 978.05 577.52C975.77 593.31 977.16 603.9 981.97 607.26C983.17 608.1 983.76 609.03 983.29 609.32C981.93 610.16 970.97 610.78 965.75 610.31ZM918.96 604.72C921.54 603.39 924.77 600.55 926.49 598.11C929.32 594.08 929.5 593.25 929.5 584.49C929.5 576 929.28 574.93 927.09 572.59C923.36 568.63 915.14 566 906.46 566L899 566L899 582.93C899 605.79 900.21 608.65 909.47 607.6C912.21 607.29 916.48 606 918.96 604.72ZM915.52 558.55C919.7 556.81 924.77 550.74 925.56 546.51C927.2 537.79 923.3 529.28 916.33 526.36C914.53 525.61 909.9 525 906.03 525L899 525L899 543.12L899 561.23L905.75 560.52C909.46 560.12 913.86 559.24 915.52 558.55ZM554.56 543.09C552.71 540.11 551.51 395.16 553.31 393.35C555.34 391.32 556.19 396.55 557.15 417.1C558.48 445.35 557.88 539.72 556.35 542.38C555.61 543.68 555.05 543.9 554.56 543.09ZM2030.63 533.75C2029.48 517.36 2028.78 395.61 2029.83 394.1C2031.9 391.11 2033.81 393.76 2034.55 400.63C2035.39 408.44 2034.34 534.87 2033.4 539.75C2032.3 545.45 2031.3 543.27 2030.63 533.75ZM194.5 501.39C186.99 499.52 185 497.01 185 489.45C185 484.22 185.99 483.88 189.17 488.05C195.88 496.83 196.41 497.24 201.78 497.75C206.65 498.22 207.16 498.04 210.48 494.72C212.68 492.52 214 490.24 214 488.63C214 485.03 209.15 479.91 201.24 475.19C197.53 472.98 192.93 469.53 191 467.53C187.69 464.09 187.5 463.51 187.5 457.02C187.5 449 189.35 445.63 195.42 442.62C199.97 440.36 215.09 439.25 219.25 440.88C221.68 441.82 222 442.47 222 446.41C222 454.42 218.79 459.18 217.39 453.25C215.56 445.52 205.04 440.48 199.22 444.56C197.45 445.8 197 447.09 197 450.92C197 455.39 197.34 456.03 201.82 460.11C204.48 462.53 209.61 466.63 213.23 469.24C223.88 476.91 226.34 484.79 220.87 493.7C217.58 499.05 212.79 501.31 204.1 501.62C199.92 501.76 195.6 501.66 194.5 501.39ZM1078.42 500.64C1076.72 499.87 1074.31 497.94 1073.06 496.37C1071.12 493.91 1070.86 492.67 1071.29 487.79C1072.18 477.87 1076.97 473.78 1093.3 468.97C1103.03 466.11 1105.41 463.62 1104.74 457C1104.5 454.52 1103.57 450.81 1102.7 448.75L1101.1 445L1093.8 445.02C1089.79 445.02 1085.83 445.45 1085.02 445.97C1084.11 446.54 1083.33 449.12 1083.02 452.59C1082.39 459.51 1079.9 462.02 1076.2 459.43C1074.5 458.24 1074 456.89 1074 453.49C1074 449.7 1074.45 448.76 1077.3 446.58C1088.26 438.22 1103.88 438.75 1112.33 447.76C1116.45 452.16 1117.13 456.8 1116.01 473.19C1114.71 492.25 1114.61 491 1117.38 491C1121.66 491 1126 492.23 1126 493.44C1126 494.09 1124.65 495.91 1123.01 497.49C1120.55 499.85 1119.12 500.37 1114.9 500.43C1110.24 500.49 1109.52 500.19 1106.87 497.01C1103.98 493.55 1103.92 493.53 1101.23 495.21C1090.94 501.6 1084.11 503.22 1078.42 500.64ZM1222.63 500.59C1212.36 496.78 1205.96 487.06 1205.21 474.15C1204.39 459.85 1209.5 449.23 1219.93 443.61C1226.52 440.05 1232.9 439.83 1241.42 442.86C1250.33 446.03 1250.4 445.91 1249.73 426.51C1249.43 417.71 1248.89 409.77 1248.53 408.88C1248.18 407.99 1246.11 406.56 1243.94 405.71C1239.57 403.99 1238.76 401.53 1242.28 400.64C1243.54 400.33 1248.94 399.76 1254.28 399.39L1264 398.7L1264.01 442.6C1264.01 469.15 1264.41 487.94 1265.02 490.15C1265.75 492.77 1266.74 493.97 1268.52 494.42C1271.6 495.19 1271.68 496.52 1268.75 498.38C1263.24 501.87 1253.78 501.03 1252.48 496.94C1251.68 494.43 1251.5 494.45 1243.03 498.06C1234.37 501.74 1227.9 502.55 1222.63 500.59ZM1476 500.67L1471.5 499.5L1471.2 492.75C1470.93 486.56 1471.08 486 1472.91 486C1474.23 486 1475.82 487.55 1477.57 490.53C1480.57 495.64 1484.28 498 1489.34 498C1493.81 498 1496.89 495.41 1497.94 490.78C1499.21 485.12 1496.79 481.29 1489 476.64C1475.25 468.45 1473 465.5 1473 455.78C1473.01 449.21 1475.42 444.98 1480.56 442.54C1485.08 440.39 1494.65 439.48 1502.39 440.44L1508 441.14L1508 446.51C1508 452.47 1506.52 457.44 1505.03 456.52C1504.49 456.19 1503.17 453.92 1502.1 451.49C1498.58 443.53 1489.49 440.42 1484.45 445.45C1482.87 447.04 1482 449.05 1482 451.11C1482 454.55 1484.8 457.65 1499.89 470.89C1508.9 478.81 1510.82 482.33 1509.14 487.92C1507.56 493.2 1503.51 497.86 1498.54 500.12C1493.86 502.25 1483.09 502.51 1476 500.67ZM16.38 499.56C15.93 498.38 16.96 496.56 19.71 493.68C26.85 486.19 33.31 475.57 56.97 432.47C66.44 415.2 70.89 408.02 71.97 408.23C73.6 408.54 76.03 417.16 82.03 444C88.14 471.31 94.54 489.81 99.75 495.26C101.41 496.99 102.04 498.36 101.44 498.96C100.07 500.33 80.55 501.27 73.5 500.31C69.21 499.72 67.5 499.07 67.5 498C67.5 496.97 68.88 496.34 71.9 496C78.28 495.27 78.77 493.92 76.81 482.37C75.06 472.07 72.99 468.01 68.91 466.87C67.58 466.5 61.41 466.15 55.19 466.1L43.88 466L38.88 476.45C36.14 482.2 33.63 488.49 33.32 490.43C32.81 493.57 33.04 494.06 35.44 494.98C36.92 495.54 39.65 496 41.51 496C43.36 496 45.15 496.43 45.47 496.95C46.73 498.99 41.01 500.35 29.28 500.8C18.39 501.22 16.97 501.08 16.38 499.56ZM149.5 500.17C144.79 499.38 143.94 496.68 148.24 496.18C153.49 495.58 154 493.44 154 472.21C154 461.57 153.57 452.06 153.04 451.07C152.51 450.08 150.71 448.99 149.04 448.66C146.87 448.22 146 447.48 146 446.04C146 443.45 149.2 442.62 159.5 442.55L167.5 442.5L168 468.29C168.53 495.47 168.62 495.94 173.19 495.98C175.74 496.01 176.31 497.76 174.15 498.92C171.74 500.21 154.82 501.07 149.5 500.17ZM1173.75 500.32C1170.86 499.98 1170 499.44 1170 497.94C1170 496.87 1170.61 496 1171.35 496C1172.08 496 1173.55 495.05 1174.6 493.9C1176.32 491.98 1176.5 490.08 1176.5 473.15C1176.5 456.15 1176.32 454.19 1174.45 451C1172.47 447.63 1172.15 447.49 1165.89 447.21C1153.74 446.66 1151.62 451.19 1151.73 477.46L1151.79 493.42L1154.56 495.8C1156.79 497.72 1157.05 498.36 1155.91 499.09C1154.02 500.31 1133.75 499.78 1133.34 498.5C1133.16 497.95 1134.33 496.75 1135.95 495.83C1139.86 493.6 1140.38 490.29 1139.74 471.65C1139.12 453.79 1138.22 450.56 1133.42 448.97C1126.54 446.7 1129.93 443.67 1140.7 442.45C1147.43 441.69 1148.64 442.48 1149.17 447.93L1149.5 451.35L1154.26 447.22C1159.54 442.64 1163.34 441.53 1171.47 442.21C1175.33 442.53 1177.87 443.43 1180.45 445.39C1187.24 450.58 1187.45 451.32 1188 473.05C1188.53 494.06 1189.01 496 1193.62 496C1196.23 496 1196.7 497.18 1194.75 498.79C1193.32 499.97 1179.36 500.99 1173.75 500.32ZM1314.69 500.34C1311.28 499.75 1310.23 497.53 1312.26 495.21C1317.92 488.77 1327.03 456.47 1333.34 420.45C1334.08 416.22 1333.11 415.15 1327.65 414.13C1309.64 410.76 1336.61 407.57 1363.38 409.89C1377.85 411.15 1380.45 412.05 1383.71 416.9C1389.2 425.05 1384.7 436.98 1373.32 444.45C1369.92 446.68 1367.11 449.03 1367.07 449.67C1367.03 450.32 1368.53 451.35 1370.41 451.97C1372.28 452.59 1375.84 455.26 1378.33 457.92C1381.8 461.64 1383 463.79 1383.52 467.3C1384.6 474.51 1381.83 481.33 1375.06 488.1C1368.31 494.85 1364.93 496.71 1356.16 498.51C1349.33 499.91 1319.73 501.21 1314.69 500.34ZM1437.5 500.38C1431.55 499.53 1429.86 498.91 1430.26 497.71C1430.48 497.05 1432.65 496.27 1435.08 496L1439.5 495.5L1440.3 474.17C1440.89 458.68 1440.8 452.46 1439.98 451.47C1439.35 450.72 1436.84 449.34 1434.39 448.4C1431.94 447.47 1430.1 446.21 1430.3 445.6C1430.8 444.08 1439.32 442.21 1446.25 442.1L1452 442L1452.1 466.25C1452.15 479.59 1452.51 491.62 1452.89 492.99C1453.28 494.37 1454.46 495.63 1455.54 495.8C1459.9 496.5 1460.48 496.95 1458.93 498.48C1457.44 499.94 1443.19 501.2 1437.5 500.38ZM1243.15 493.25C1249.23 487.77 1250 485.12 1250 469.78C1250 459.13 1249.65 455.81 1248.25 453.02C1245.66 447.88 1240.77 445 1234.6 445C1227.95 445.01 1223.89 447.53 1221.03 453.43C1219.01 457.6 1218.83 459.24 1219.15 470.28C1219.58 485.12 1221.83 491.01 1228.5 494.73C1234.49 498.08 1238.21 497.7 1243.15 493.25ZM1352.44 493.33C1361.48 490.37 1369 480.5 1369 471.6C1369 462.37 1358.99 454 1347.96 454C1340.39 454 1340.51 453.75 1335.99 477.49C1333.09 492.72 1333.03 493.55 1334.72 494.82C1336.87 496.44 1345.07 495.75 1352.44 493.33ZM1096.79 493.43C1102.05 489.75 1106.18 474.05 1102.66 471.13C1100.84 469.62 1096.2 470.76 1089.75 474.31C1085.03 476.9 1081.7 483.24 1082.62 487.86C1083.85 494 1091.62 497.06 1096.79 493.43ZM71.23 457C70.91 452.74 66.07 432.73 64.91 430.86C64.25 429.79 63.78 429.92 62.62 431.5C60.15 434.87 49 456.92 49 458.43C49 460.45 51.21 460.82 62 460.65L71.5 460.5L71.23 457ZM1352.85 448.94C1363.81 446.59 1373 437.14 1373 428.21C1373 420.28 1368.17 415.17 1358.69 413.04C1351.52 411.44 1349.4 412.34 1348.08 417.59C1345.77 426.77 1343 442.3 1343 446.07C1343 450.57 1343.96 450.85 1352.85 448.94ZM158.25 425.48C156.68 424.36 156 422.87 156 420.51C156 416.43 158.2 414 161.88 414C165.36 414 167.72 415.8 168.51 419.06C169.75 424.25 162.73 428.64 158.25 425.48ZM1443.22 425.44C1441.6 424.31 1441 422.88 1441 420.14C1441 415.58 1442.42 414 1446.55 414C1452.82 414 1455.29 421.06 1450.37 424.93C1447.21 427.41 1446.14 427.49 1443.22 425.44ZM302.62 401.29C301.01 399.68 302.46 397.68 307.64 394.37C310.74 392.38 328.41 381.89 346.89 371.05C415.32 330.94 437 319.6 437 323.95C437 326.4 395.1 351.41 336 384.24C308.73 399.39 303.43 402.1 302.62 401.29ZM1779 399.62C1779 397.35 1785.72 393.29 1862.5 349.2C1898.61 328.47 1910.24 322.5 1912.7 323.44C1913.92 323.91 1913.98 324.32 1913.01 325.49C1907.74 331.84 1786.4 401 1780.52 401C1779.69 401 1779 400.38 1779 399.62ZM2180.74 139.4C2179.28 137.94 2180.07 137.25 2183.87 136.64C2186 136.3 2188.19 135.45 2188.75 134.76C2189.37 133.98 2189.89 118.22 2190.13 93.5L2190.5 53.5L2186.33 53.2C2182.42 52.91 2178.97 50.7 2180.32 49.35C2182.79 46.88 2228.77 48.62 2235.48 51.43C2246.67 56.12 2252.4 69.66 2246.74 78.06C2245.49 79.91 2242.46 82.95 2239.99 84.82C2237.52 86.7 2235.36 88.81 2235.2 89.52C2235.02 90.24 2236.42 91.31 2238.37 91.96C2243.52 93.66 2251.01 99.78 2252.6 103.59C2254.44 107.99 2254.38 116.53 2252.47 122.13C2250.3 128.51 2246.11 133.11 2239.36 136.53L2233.5 139.5L2207.49 139.82C2193.18 140 2181.14 139.81 2180.74 139.4ZM2269 138.39C2269 138.06 2270.08 136.5 2271.41 134.93C2273.37 132.6 2273.95 130.43 2274.57 123.28C2275.37 113.91 2273.84 93.43 2272.09 90.17C2271.53 89.12 2269.67 87.98 2267.96 87.64C2265.69 87.19 2264.94 86.55 2265.2 85.26C2265.5 83.74 2266.73 83.5 2274.26 83.52C2286.94 83.56 2286.29 82.19 2286.77 109.72C2287.12 129.96 2287.37 132.79 2289.03 135.14C2290.05 136.59 2290.62 138.05 2290.28 138.39C2289.48 139.18 2269 139.19 2269 138.39ZM2225.28 134.65C2233.96 131.01 2238.94 123.41 2238.98 113.72C2239.03 100.29 2233.48 95.98 2214.09 94.38L2205.69 93.69L2206.4 110.5C2207.09 127.04 2208.34 133.33 2211.29 135.2C2213.25 136.45 2221.8 136.11 2225.28 134.65ZM2302 92C2297.72 89.66 2295.75 89.56 2292.01 91.5C2285.98 94.61 2287.36 89.08 2293.69 84.75C2298.47 81.47 2304.09 80.38 2307.94 81.98C2312.46 83.85 2312.98 87.98 2309.23 92.25C2307.31 94.43 2306.38 94.4 2302 92ZM2222.22 87.96C2237.37 83.75 2240.29 62.78 2226.7 55.85C2223.92 54.43 2219.91 53.59 2214.3 53.24L2206 52.72L2206 70.86L2206 89L2212.25 88.99C2215.69 88.99 2220.17 88.52 2222.22 87.96Z" fill="#1e2749" fill-rule="evenodd"/>
</svg>
