<?xml version="1.0" encoding="UTF-8"?>
<svg xmlns="http://www.w3.org/2000/svg" viewBox="0 0 2430 1278" width="2430" height="1278" shape-rendering="geometricPrecision">
<path d="M618.5 1246.4C556.13 1241.62 540.25 1235.31 463 1184.68C416.2 1154.01 390.87 1138.17 350 1114.03C222.18 1038.52 151.03 981.08 105.31 916.5C73.51 871.59 54.53 821.8 42.58 752C32.71 694.34 29.4 649.66 30.32 586.5C31.43 509.5 39.65 443.96 57.65 368.5C69.67 318.14 77.3 296.94 93.31 269.4C138.42 191.84 185.28 134.74 216.33 119.52C228.58 113.51 237.33 111.7 254.5 111.62C275.19 111.52 282.83 113.2 338 130.01C383.96 144 393.07 145.9 418 146.66C446.65 147.54 458.26 144.88 486.5 130.98C503.32 122.69 519.9 112.53 544 95.73C603.9 53.97 623.59 43.28 651.43 37.41C667.6 34.01 688.83 34.99 708.74 40.07C739.69 47.96 769.46 70 864.5 155.41C910.44 196.69 944.02 226.46 945.06 226.83C945.58 227.02 951.52 222.26 958.25 216.26C975.33 201.06 981.76 196 984.04 196C985.12 196 986 196.24 986 196.54C986 197.8 981.39 205.97 977.32 211.92C974.9 215.46 973.06 219.06 973.22 219.92C973.49 221.3 977.32 221.58 1003.51 222.11C1020.01 222.44 1056.22 222.79 1084 222.88C1146.05 223.08 1222.45 224.68 1226.5 225.86L1229.5 226.74L1227 227.31C1221.26 228.61 1200.78 229.08 1112 229.97C997.27 231.13 974.04 231.74 973.3 233.65C973.01 234.41 974.64 237.06 976.96 239.57C981.52 244.52 985.97 253.08 985.99 256.93C986 259.56 989.49 263.24 1004.01 275.92C1034.81 302.82 1069.49 340.41 1080.72 359.06C1106.68 402.17 1120.27 453.5 1123.89 522C1124.96 542.34 1124.28 570.62 1122.42 582.83C1121.56 588.52 1121.09 593.8 1121.39 594.58C1121.85 595.76 1127.1 596 1152.72 596.01C1187.34 596.03 1226.93 597.53 1228.28 598.88C1228.81 599.41 1228.69 600.07 1228.01 600.49C1226.62 601.35 1196.06 602.7 1153.25 603.79C1132.72 604.32 1121.63 604.97 1120.9 605.7C1120.29 606.31 1117.64 616.42 1115.01 628.16C1112.38 639.9 1108.56 655.8 1106.54 663.5C1095.26 706.32 1085.9 745.35 1083.63 759C1080.4 778.46 1079.44 789.52 1077.51 829.5C1073.62 909.64 1069.12 941.32 1055.28 986C1042.66 1026.71 1025.16 1066.9 1012.98 1083.15C998.22 1102.83 962.18 1124.4 900.5 1150.47C872.28 1162.4 863.33 1167.65 847 1181.86C820.3 1205.08 792.52 1221.06 760.82 1231.44C728.39 1242.05 700.63 1245.96 654 1246.46C637.23 1246.63 621.25 1246.61 618.5 1246.4ZM686.23 1238C751.23 1231.79 794.94 1215.04 836.51 1180.4C861.52 1159.57 866.9 1156.4 907 1139C938.68 1125.25 966.49 1111.5 978 1103.88C989.17 1096.5 1004.79 1081.33 1010.85 1072C1023.05 1053.2 1041.83 1008.42 1050.48 977.5C1061.76 937.15 1066.54 899.8 1070.01 825C1072.61 769.03 1073.13 765.89 1094.51 679.63C1108.68 622.4 1112 608.34 1112 605.43C1112 604.19 1086.77 604 925 604C822.15 604 738 604.25 738 604.56C738 604.87 739.91 607.35 742.25 610.06C747.2 615.79 754.18 626.97 753.7 628.39C752.88 630.87 750.29 629.43 738.32 619.81C720.29 605.33 718.08 603.76 716.54 604.35C715.79 604.63 712.39 609.41 708.98 614.96C701.25 627.53 694.25 636.7 681.15 651.38C635.91 702.1 591.87 725.44 551.57 720.07C526.44 716.72 493.46 700.27 478.32 683.54C470.99 675.44 467.36 668.79 464.82 658.83C462.85 651.09 462.78 649.62 463.84 638C464.47 631.12 465.66 609.52 466.49 590C468.83 534.66 469.63 529.28 477.25 517.85C485.85 504.95 534.96 457.19 549.67 447.43C566.09 436.53 591.67 431.2 622.25 432.31L638.01 432.88L655.83 449.73C665.63 459 681.27 473.01 690.58 480.87C710.96 498.09 714.97 502.47 716.17 508.83C720.53 531.87 723 568.71 721.02 581C720.36 585.12 719.58 590.03 719.28 591.9L718.75 595.29L721.12 593.63C722.43 592.71 729.06 587.13 735.85 581.23C750.13 568.83 752.54 567.14 753.97 568.57C755.32 569.92 752.33 575.37 744.89 585.15C741.65 589.4 739 593.58 739 594.44C739 595.84 750.16 595.99 850.75 595.91C998.58 595.79 1106.68 594.67 1110.19 593.21C1115.48 591.02 1115.5 590.79 1115.48 546C1115.45 494.13 1113.86 476.66 1105.92 441C1094.57 390.06 1068.12 345.09 1026.5 305.98C1015.33 295.48 998.74 281.05 976.5 262.47C945.83 236.85 939.29 231.32 924 218.08C903.46 200.3 888.15 186.78 859.4 161C775.82 86.06 755.46 69.66 731.5 57.93C707.75 46.3 690.98 42.45 667.61 43.27C648.92 43.93 641.5 45.96 621.5 55.93C604.65 64.33 594.87 70.45 557.08 96.26C519.95 121.61 502.43 132.62 487.5 139.97C468.47 149.34 457.46 152.22 433.95 153.96C404.25 156.16 386.5 152.96 327 134.65C285.89 122 270.23 118.63 252.5 118.64C229.3 118.65 212.46 126.7 190.15 148.44C167.41 170.6 140.85 206.37 111.39 254.5C85.61 296.63 82.69 303.23 71.36 344.97C41.67 454.31 31.5 562.93 40.52 674.5C41.32 684.4 42.41 696.1 42.94 700.5C43.48 704.9 44.42 713 45.04 718.5C47.7 741.93 54.54 779.04 60.07 800C77.47 865.9 106.36 914.52 159.94 968.05C204.28 1012.36 257.9 1050.99 352.11 1106.52C389.19 1128.38 421.43 1148.59 469 1179.79C486.68 1191.39 513.63 1208.12 524.61 1214.31C553.65 1230.68 576.89 1236.52 624.5 1239.41C634.21 1240 675.08 1239.07 686.23 1238ZM437.83 1017.43C411.5 1012.67 389.12 1000.24 367.04 978.12C351.05 962.1 341.08 944.84 335.49 923.5C331.56 908.53 330.69 900.29 331.26 883.77C331.7 871.16 332.31 866.5 334.8 857C342.9 826 359.19 802.25 385.04 783.72C409.41 766.26 435.7 758.76 467 760.36C499.24 762 526.48 773.57 549.75 795.48C569.62 814.21 583.14 839.98 588.57 869.5C590.65 880.79 590.07 907.18 587.53 916.5C582.66 934.42 576.75 947.66 567.7 960.96C560.74 971.18 542.44 989.21 532 996.14C515.5 1007.09 497.77 1014.29 479.38 1017.49C468.76 1019.35 448.24 1019.32 437.83 1017.43ZM490 1007.72C516.99 1000.53 540.52 984.79 557.42 962.61C563.99 953.98 572.87 937.26 576.41 926.82C579.83 916.71 583 897.86 583 887.58C583 840.38 550.35 793.83 504.47 775.61C491.11 770.3 484.22 768.98 466.4 768.31C439 767.29 425.64 769.96 404.53 780.68C374.94 795.71 350.6 825.11 342.47 855.65C338.25 871.5 338.58 909.93 343.07 924.5C345.93 933.82 353.55 949.05 360.15 958.68C372.05 976.05 393.3 993.51 412.83 1001.98C430.67 1009.72 438.02 1010.99 462.5 1010.56C477.95 1010.29 481.85 1009.89 490 1007.72ZM499.94 941.52C494.21 939.67 488.56 934.1 486.6 928.35C484.92 923.42 485.36 921 487.92 921C489.71 921 492.8 924.03 497.29 930.16C500.91 935.11 507.45 937.67 512.35 936.05C516.88 934.56 522.7 928.1 523.54 923.66C524.75 917.17 518.56 909.01 512.4 909C508.44 909 504 906.87 504 904.98C504 903.63 505.67 902.61 510.47 901.01C518.52 898.33 522 894.65 522 888.82C522 885.6 521.34 884.14 518.68 881.48C512.37 875.17 501.8 875.92 497.37 883C493.98 888.42 491.1 891.17 489.22 890.78C486.49 890.21 487.44 885.68 491.62 879.39C496.35 872.25 499.82 870.66 509.45 871.19C521.29 871.85 527.05 876.23 528.57 885.74C529.34 890.54 528.07 894.84 524.28 900.32L521.63 904.14L525.27 907.48C527.28 909.32 529.16 911.99 529.46 913.41C529.76 914.84 530.21 917.05 530.48 918.33C531.28 922.24 529.22 931.88 526.89 935.15C522.51 941.3 509.12 944.46 499.94 941.52ZM450.67 938.33C449.48 937.15 450.04 930.77 452.38 918.75C453.75 911.72 454.26 907 453.66 907C453.11 907 449.7 908.18 446.1 909.62C430.57 915.84 417.29 911.11 409.82 896.72C406.74 890.78 406.07 876.36 408.52 868.85C414.77 849.78 424.93 840.81 440.5 840.63C449.31 840.52 453.79 842.08 460.55 847.58C463.5 849.99 466.1 851.62 466.32 851.23C466.55 850.83 467.31 848.7 468 846.5C468.69 844.3 469.71 841.94 470.25 841.25C471.65 839.49 475.94 839.69 476.66 841.55C476.98 842.4 474.47 856.24 471.07 872.3C467.67 888.36 463.28 909.15 461.31 918.5C459.35 927.85 457.05 936.29 456.21 937.25C454.67 939.02 451.89 939.56 450.67 938.33ZM441.47 903.58C446.73 901.38 453.88 894.17 457.07 887.86C464.98 872.2 462.54 854.96 451.63 849.31C441.18 843.89 424.66 851.3 419.47 863.74C417.22 869.11 415.8 880.65 416.56 887.37C417.11 892.2 417.86 893.94 420.79 897.19C427.31 904.41 434.31 906.57 441.47 903.58ZM201.5 823.05C171.82 820.1 146.31 807.52 123.47 784.57C111.36 772.4 105.17 763.86 97.99 749.37C88.46 730.15 87.73 726.33 87.6 695.5C87.5 670.17 87.57 669.21 90.29 658.52C98.65 625.58 126.54 592.25 158.55 576.98C180.54 566.48 203.41 562.79 229.6 565.51C252.77 567.91 265.18 572.12 282.14 583.3C304.71 598.19 322.57 618.35 334.13 642C342.23 658.57 342.22 658.5 342.73 694.5L343.19 726.5L336.68 740.19C328.99 756.37 323.24 765.56 313.86 776.64C294.01 800.09 266.13 816.65 238.37 821.49C227.64 823.37 211.52 824.04 201.5 823.05ZM239.5 813.5C275.66 805.95 307.97 780.55 324.89 746.36C333.69 728.59 337.45 712.49 337.33 693C337.06 648.33 310.15 605.32 269.65 584.84C241.56 570.64 206.19 567.89 177 577.64C152.5 585.82 126.52 605.87 112.46 627.44C89.69 662.36 86.59 708.2 104.48 745.5C116 769.52 138.67 792.34 162.5 803.9C174.83 809.87 180.6 811.78 193.46 814.14C205.65 816.37 227.2 816.07 239.5 813.5ZM244.25 744.36C239.1 743.21 239.06 736.56 244.17 729.43C247.53 724.73 252.21 720.71 263.64 712.72C276.88 703.45 280.29 698.44 278.03 691.59C275.81 684.88 268.44 681.02 260.34 682.33C255.1 683.18 252.21 685.52 251.04 689.84C249.68 694.88 246.64 697.77 244.52 696.02C241.12 693.2 243.54 684.71 249.29 679.29C253.13 675.67 257.71 674 263.78 674C276.57 674 286 681.99 286 692.82C286 702.15 280.91 708.65 264.5 720.27C242.22 736.04 242.38 737.84 266.2 739.14C274.51 739.59 282.19 740.24 283.27 740.58C285.02 741.14 285.06 741.36 283.7 742.73C282.48 743.95 278.68 744.31 264.34 744.56C254.53 744.73 245.49 744.64 244.25 744.36ZM204.58 740.24C204.25 739.21 205.11 732.91 206.49 726.24C207.87 719.58 209 713.42 209 712.56C209 710.32 206.09 710.63 199.37 713.6C192.93 716.45 184.74 717.04 179.5 715.02C165.57 709.65 159.19 692.91 163.44 672.86C166.07 660.44 172.83 651.19 182.85 646.28C187.52 644 189.78 643.53 195.99 643.56C204.56 643.6 210.31 645.7 216.31 650.97C219.37 653.65 220.29 654.01 221.51 652.99C222.33 652.31 223 651.01 223 650.1C223 647.02 225.97 644 229 644C230.58 644 232.07 644.34 232.3 644.75C232.54 645.16 231.44 651.12 229.88 658C228.31 664.88 224.15 683.77 220.64 700C213.63 732.4 210.79 741.32 207.33 741.81C205.92 742.01 204.97 741.47 204.58 740.24ZM570.57 712.93C593.48 709.74 619.17 697.62 640.13 680.11C672.78 652.83 697.87 623.43 707.65 601C715.05 584.03 715.92 565.32 711 528.83C709.35 516.59 708 506.06 708 505.44C708 504.83 704.07 501.21 699.26 497.41C683.11 484.63 664.59 468.6 651.6 456.14C644.5 449.34 637.07 443.08 635.1 442.25C626.88 438.77 594.1 439.75 577.6 443.97C566.83 446.73 554.91 452.61 545.2 459.95C535.79 467.07 500.93 500.69 491.29 511.96C484.24 520.19 478.53 530.81 477 538.5C476.46 541.25 475.57 557.9 475.03 575.5C474.5 593.1 473.6 611.77 473.04 617C472.48 622.23 471.73 633.51 471.36 642.08C470.72 657.29 470.76 657.8 473.21 663.08C480.22 678.27 500.88 694.83 526 705.41C544.88 713.37 555.06 715.08 570.57 712.93ZM197.47 706.58C212.45 700.32 221.47 675.58 214.04 661.1C210.63 654.45 203.69 650 196.71 650C191.41 650 182.99 654.85 179 660.19C168.11 674.79 167.52 693.59 177.66 703.19C179.22 704.67 181.62 706.33 183 706.88C186.69 708.34 193.59 708.2 197.47 706.58ZM1293.86 646.75C1281.58 642.44 1272.99 632.82 1268.21 618.02C1263.38 603.04 1264.55 582.45 1270.97 569.41C1274.29 562.67 1281.03 555.83 1288.93 551.19C1293.31 548.61 1294.08 548.5 1307.5 548.53C1326.03 548.56 1329.76 549.64 1337.28 557.14C1343.12 562.96 1348.46 572.39 1347.81 575.75C1347.57 577.02 1346.51 577.5 1343.99 577.5C1340.87 577.5 1340.25 577.01 1337.96 572.79C1332.04 561.82 1325.06 557.82 1310.75 557.2C1303.42 556.87 1299.74 557.18 1295.9 558.44C1280.09 563.61 1275.32 573.86 1276.25 600.68C1276.86 618.42 1278.21 622.36 1286.5 630.67C1291.83 636.01 1293.62 637.13 1299.86 639.03C1315.57 643.8 1328.7 637.34 1336.99 620.77C1343.42 607.93 1342.89 607.18 1326.29 605.86C1312.92 604.79 1309.7 603.45 1310.19 599.19L1310.5 596.5L1330.25 596.23L1350 595.96L1349.94 615.23C1349.86 641.5 1348.6 648.12 1344.22 645.37C1342.96 644.58 1342.42 642.65 1342.2 638.15C1342.04 634.77 1341.63 632 1341.29 632C1340.96 632 1338.07 634.49 1334.87 637.54C1326.83 645.21 1320.02 648.16 1309.12 648.67C1301.96 649.01 1299.37 648.68 1293.86 646.75ZM1455.7 647.61C1453.61 646.84 1450.14 645.03 1447.98 643.6C1440.83 638.87 1440.8 638.76 1440.29 611.73C1439.78 584.73 1440.47 576.73 1443.37 576.17C1447.11 575.45 1447.46 577.42 1448.07 602.79C1448.73 630 1449.23 632.49 1454.94 637.3C1460.78 642.21 1472.88 640.53 1479.17 633.93C1483.99 628.88 1484.7 624.86 1485.43 598.54C1485.76 587.01 1486.43 577.17 1486.94 576.66C1488.29 575.31 1492.67 576.71 1493.47 578.74C1494.55 581.46 1496.24 622.31 1495.73 633.42C1495.35 642.05 1495.01 643.58 1493.15 645.08C1490.46 647.25 1487.18 646.49 1485.75 643.36C1485.16 642.06 1484.19 641 1483.59 641C1482.99 640.99 1479.29 642.62 1475.37 644.6C1467.25 648.72 1461.19 649.65 1455.7 647.61ZM1684.89 647.67C1680.64 646.09 1676.48 643.24 1673.02 639.53C1670.94 637.31 1670.47 635.67 1670.16 629.51C1669.84 623.24 1670.13 621.54 1672.1 618.04C1675.32 612.3 1683.2 608.63 1697.61 606.12C1714.95 603.11 1718.57 600.27 1715.81 591.85C1713.85 585.88 1710 584 1699.72 584C1690.27 584 1685.58 585.74 1683.23 590.15C1679.22 597.63 1673.65 600.45 1672.44 595.61C1671.22 590.77 1680.21 579.08 1686.83 576.88C1692.17 575.1 1707.65 575.39 1712.31 577.34C1718.16 579.81 1722.1 582.99 1723.52 586.4C1724.35 588.4 1725.03 596.96 1725.43 610.5C1726.22 637.12 1726.38 638.16 1730.12 640.93C1732.54 642.72 1732.89 643.43 1731.94 644.57C1729.99 646.93 1723.56 646.34 1720.18 643.5C1716.23 640.17 1713.89 640.34 1704 644.62C1694.29 648.83 1689.89 649.53 1684.89 647.67ZM1936 648.12C1931.3 646.58 1925.5 643.2 1923.03 640.55C1921.1 638.48 1920.41 636.37 1919.85 630.71C1918.94 621.63 1918.81 588.25 1919.65 581.2C1920.25 576.21 1920.45 575.91 1922.88 576.2C1926.37 576.6 1926.85 579.75 1927 603C1927.17 629.21 1928.05 632.96 1935.33 638.4C1940.04 641.91 1951.48 640.15 1957.33 635.02C1962.39 630.58 1963.11 626.9 1964.01 601.14C1964.47 587.83 1965.26 577.34 1965.84 576.76C1967.45 575.15 1971.69 576.75 1972.42 579.24C1973.42 582.67 1975.24 625.38 1974.77 634.68C1974.32 643.8 1973.17 646 1968.86 646C1966.73 646 1965.65 645.33 1964.82 643.5C1964.19 642.12 1963.17 641 1962.56 641C1961.94 641 1958.43 642.59 1954.77 644.54C1947.83 648.22 1940.55 649.61 1936 648.12ZM1379.34 647.04C1368.45 644.45 1362.36 634.59 1364.91 623.73C1367.24 613.84 1375.13 609.06 1394.12 606.04C1401.06 604.94 1407.49 603.75 1408.4 603.4C1410.81 602.48 1412 599.7 1412 595C1412 586.48 1408.24 584 1395.3 584C1384.9 584 1380.58 585.72 1377.73 591C1376.68 592.92 1375 595.36 1373.97 596.42C1372.37 598.07 1371.88 598.15 1370.45 596.96C1368.27 595.15 1369.03 589.18 1371.97 585.04C1377.72 576.96 1386.67 574.3 1402.64 575.91C1417.88 577.44 1418.9 579.38 1420.44 609.97C1421.65 633.88 1421.91 635.04 1427.33 640.76C1430.12 643.71 1430.26 644.16 1428.85 645.58C1426.68 647.75 1421.24 646.59 1415.41 642.73L1410.81 639.69L1404.66 642.78C1394.7 647.78 1387.52 648.99 1379.34 647.04ZM1525.61 645.53C1515.96 641.56 1511 635.61 1511 627.99C1511 623.95 1511.06 623.88 1514.24 624.19C1517 624.45 1517.81 625.19 1519.7 629.18C1522.56 635.23 1528.64 638.98 1536.8 639.72C1546.5 640.6 1554 635.21 1554 627.35C1554 622.11 1549.83 619.37 1534.5 614.52C1518.22 609.36 1513.48 606.2 1511.99 599.51C1510.58 593.18 1513.31 583.72 1517.65 579.84C1520.45 577.34 1527.59 575.79 1536.55 575.75C1546.92 575.7 1550.91 577.09 1555.89 582.49C1560.28 587.26 1561.87 591.39 1560.29 593.9C1558.31 597.05 1556.01 596.18 1550.15 590.07L1544.32 584L1536.61 584C1524.54 584 1521.43 586.49 1522.18 595.56C1522.59 600.48 1525.46 602.52 1538.17 606.94C1561.47 615.04 1567.94 622.35 1562.04 633.92C1559.47 638.96 1552.12 645.35 1547.19 646.82C1540.76 648.75 1532.2 648.24 1525.61 645.53ZM1592.31 646.06C1589.45 645.03 1585.54 642.99 1583.61 641.51C1577.68 636.99 1573.7 625.82 1577.5 624.36C1580.67 623.14 1583.76 624.93 1585.35 628.91C1591.04 643.15 1616.92 643.56 1619.51 629.45C1620.74 622.74 1616.43 619.42 1600.14 614.58C1581.81 609.14 1576.99 605.01 1577.01 594.78C1577.02 588.77 1581.05 580.54 1584.97 578.52C1588.95 576.46 1601.99 575.01 1608.55 575.9C1611.33 576.28 1615.24 577.6 1617.23 578.83C1620.75 581.01 1627 589.13 1627 591.52C1627 592.84 1623.8 596 1622.46 596C1621.97 596 1619.18 593.42 1616.24 590.27L1610.91 584.53L1603.54 584.16C1590.71 583.51 1585.92 586.94 1587.35 595.74C1588.15 600.69 1590.3 602.13 1604.25 607.08C1630.38 616.34 1635.69 625 1623.97 639.23C1617.3 647.31 1603.84 650.21 1592.31 646.06ZM1866.88 646.62C1858.2 643.52 1852.77 638.37 1850.85 631.44C1849.58 626.83 1850.54 624 1853.38 624C1856.44 624 1858.45 625.79 1860.57 630.38C1862.72 635.07 1869.44 639.64 1875.49 640.55C1885.36 642.03 1895.54 631.77 1892.38 623.54C1891.57 621.43 1884.6 617.97 1874.4 614.61C1858.46 609.35 1851 602.87 1851 594.3C1851 588.81 1852.75 585.36 1857.88 580.73C1862.48 576.57 1866.58 575.45 1876.56 575.62C1887.99 575.81 1897.31 581.34 1900.01 589.54C1901.53 594.13 1900.73 596 1897.28 595.98C1893.76 595.97 1892.65 595.2 1890.9 591.59C1888.33 586.26 1884.76 584.53 1875.68 584.21C1865.97 583.87 1863.14 585.03 1861.19 590.17C1860.02 593.24 1860.01 594.25 1861.15 596.62C1863.08 600.63 1867.08 602.98 1880.35 607.9C1889.43 611.27 1893.14 613.22 1896.96 616.65C1905.84 624.63 1905.98 632.33 1897.38 639.9C1889.17 647.13 1876.26 649.97 1866.88 646.62ZM2079.21 646.55C2073.08 645.07 2069.49 642.14 2066.89 636.5C2063.52 629.2 2065.35 619.61 2071.13 614.3C2075.19 610.57 2081.98 608.22 2095 606.05C2109.56 603.63 2112.35 602.14 2112.82 596.52C2112.99 594.44 2112.59 591.43 2111.93 589.82C2110.07 585.34 2106.38 584 2095.95 584C2084.63 584 2080.99 585.48 2078.44 591.13C2076.44 595.57 2073.51 598.13 2071.39 597.32C2069.56 596.62 2069.59 590.69 2071.44 587.13C2073.67 582.8 2080.5 577.17 2084.19 576.61C2093.18 575.24 2096.13 575.13 2103.81 575.92C2110.43 576.59 2112.64 577.24 2114.69 579.13C2119.51 583.58 2120.23 587.01 2121.05 609.5C2121.46 621.05 2122.28 631.71 2122.86 633.2C2123.44 634.68 2125.58 637.74 2127.62 640C2131 643.75 2131.19 644.24 2129.74 645.69C2128.38 647.05 2127.48 647.11 2123.4 646.08C2120.79 645.42 2117.34 643.78 2115.75 642.44C2114.15 641.1 2112.42 640 2111.89 640C2111.37 640 2108.37 641.29 2105.22 642.87C2099.54 645.73 2090.91 648.08 2086.7 647.91C2085.49 647.87 2082.12 647.25 2079.21 646.55ZM2159 647.12C2154.46 645.63 2148.53 642.23 2146.31 639.84C2142.72 635.99 2139.1 626.9 2137.99 618.9C2135.86 603.58 2140.76 587.08 2149.28 580.91C2157.45 574.99 2170.92 573.43 2180.25 577.33C2185.23 579.41 2191.05 584.91 2193.14 589.49C2195.51 594.71 2195.46 596.68 2192.93 598.04C2190.37 599.41 2186 596.94 2186 594.12C2186 591.59 2181.7 587.19 2177.53 585.45C2175.63 584.65 2171.01 584.01 2167.28 584.02C2158.63 584.04 2153.55 586.69 2150 593.03C2147.69 597.16 2147.5 598.48 2147.51 610.5C2147.52 622.71 2147.68 623.82 2150.24 628.69C2151.74 631.54 2154.52 635.06 2156.41 636.5C2166.49 644.19 2176.71 640.91 2185.88 627.06C2188.97 622.39 2190.03 621.5 2192.53 621.5C2201.58 621.5 2191.93 640.04 2180.16 645.26C2175.13 647.49 2163.28 648.53 2159 647.12ZM2225.9 646.5C2219.8 644.55 2213.03 637.29 2209.98 629.45C2206.55 620.64 2206.03 604.56 2208.86 595.23C2212.58 582.98 2217.68 578.15 2229.17 575.97C2235.79 574.71 2247.47 576.18 2252.91 578.95C2260.43 582.79 2267.3 596.86 2266.79 607.4L2266.5 613.5L2241 614.09C2226.97 614.42 2215.39 614.76 2215.25 614.84C2214.25 615.47 2215.42 621.36 2217.38 625.57C2221.19 633.76 2226.46 638.56 2233.16 639.94C2240.62 641.48 2243.82 640.12 2252.93 631.56C2261.97 623.07 2266.57 622.71 2263.94 630.69C2262.21 635.93 2255.79 642.41 2249.73 645.04C2243.13 647.9 2232.32 648.56 2225.9 646.5ZM1646.66 645.52C1645.77 644.62 1644.88 640.93 1644.44 636.27C1643.64 627.8 1644.57 580.29 1645.59 577.64C1645.93 576.74 1647.27 576 1648.56 576C1652.15 576 1652.92 580.53 1654.03 608C1655.16 636.31 1654.71 643.39 1651.64 645.54C1649.04 647.36 1648.5 647.36 1646.66 645.52ZM2321 646.3C2311.38 645.84 2310 645.36 2310 642.51C2310 640.26 2325.96 560.36 2327.78 553.5L2328.57 550.5L2344.47 550.22C2372.09 549.74 2378.13 551.6 2383.4 562.17C2388.32 572.06 2385.82 583.41 2376.94 591.43C2374.77 593.39 2373 595.49 2373 596.09C2373 596.7 2374.74 599.17 2376.87 601.59C2383.88 609.56 2384.85 621 2379.35 631.1C2374.09 640.77 2366.07 644.37 2346.25 645.98C2339.35 646.54 2332.31 646.91 2330.6 646.81C2328.9 646.7 2324.57 646.47 2321 646.3ZM1746.41 644.25C1745.31 641.87 1744.73 589.98 1745.71 582.51C1746.32 577.93 1746.93 576.45 1748.3 576.18C1750.94 575.67 1753 577.84 1753 581.12L1753 583.99L1757.52 580.53C1762.8 576.51 1766.86 575.46 1776.53 575.62C1788.31 575.81 1796.1 581.39 1797.67 590.75C1798.85 597.76 1798.41 639.98 1797.13 643.25C1796.46 644.96 1795.3 646 1794.07 646C1791.38 646 1791.11 643.97 1790.15 616C1789.05 584.19 1788.7 583.56 1772.47 584.16C1764.18 584.46 1762.86 584.78 1760.44 587C1754.68 592.31 1753.81 596.29 1753.11 620.55C1752.63 636.97 1752.11 643.16 1751.11 644.37C1749.35 646.49 1747.42 646.44 1746.41 644.25ZM1993.5 643.75C1992.41 640.39 1991.75 591.57 1992.69 583.5C1993.42 577.16 1993.72 576.47 1995.89 576.16C1998.7 575.76 1999.96 577.39 1999.98 581.45L2000 584.39L2003.25 581.32C2007.82 576.99 2010.16 576 2015.81 576C2025.09 576 2024.84 581.54 2015.46 583.9C2010.51 585.15 2004.69 589.77 2002.33 594.33C2001.11 596.7 2000.62 602.34 2000.13 620.03C1999.66 637.02 1999.16 643.11 1998.13 644.35C1996.22 646.65 1994.37 646.41 1993.5 643.75ZM2038.92 643.29C2038.36 641.8 2037.64 628.64 2037.33 614.04C2037.02 599.44 2036.36 586.72 2035.86 585.77C2035.36 584.82 2033.5 583.67 2031.73 583.21C2029.04 582.52 2028.45 581.85 2028.19 579.19C2027.94 576.67 2028.25 576 2029.69 575.99C2030.68 575.98 2032.61 575.41 2033.97 574.72C2036.17 573.61 2036.55 572.49 2037.57 564.27C2038.2 559.2 2039.34 554.3 2040.1 553.37C2043.67 549.06 2056.37 546.19 2057.61 549.42C2058.57 551.93 2056.14 554.79 2051.81 556.23C2046.93 557.86 2045.7 560.71 2046.2 569.27C2046.53 574.83 2045.84 574.28 2055.25 576.42C2060.62 577.63 2057.33 582.44 2050.37 583.56L2046.3 584.21L2045.74 612.35C2045.42 628.39 2044.72 641.68 2044.11 643.25C2042.76 646.76 2040.25 646.78 2038.92 643.29ZM1394.94 639.1C1402.67 636.69 1407.7 632.88 1410.09 627.62C1412.21 622.95 1412.6 615 1410.8 613.2C1407.82 610.22 1389.12 612.98 1381.34 617.54C1370.41 623.94 1370.23 631.38 1380.83 638.1C1386.22 641.53 1386.96 641.58 1394.94 639.1ZM2100.28 637.3C2109.08 633.34 2112.98 627.41 2112.99 617.95C2113 613.09 2111.52 611.99 2105.05 612.04C2089.66 612.13 2075.53 618.9 2073.49 627.15C2072.96 629.3 2073.52 630.57 2076.42 633.78C2083.53 641.65 2088.84 642.43 2100.28 637.3ZM1701.78 638.45C1710.4 634.86 1717.31 625.07 1716.8 617.19L1716.5 612.5L1710.69 612.2C1703.89 611.85 1690.59 614.15 1685.5 616.57C1683.55 617.49 1681.06 619.38 1679.97 620.76C1677.54 623.86 1677.38 630.12 1679.65 633.59C1683.44 639.37 1694 641.69 1701.78 638.45ZM2359.91 635.5C2369.47 632.54 2373.91 625.26 2372.48 614.88C2371.24 605.84 2365.53 601.74 2351.9 600.1C2337.45 598.37 2329.2 597.87 2328.7 598.7C2327.38 600.91 2320.77 634.95 2321.36 636.49C2321.99 638.14 2323.31 638.24 2338.27 637.73C2349.23 637.35 2356.26 636.63 2359.91 635.5ZM2255.2 603.24L2257.2 601.24L2255.05 596.38C2251.09 587.44 2245.91 583.77 2237 583.6C2227.08 583.42 2220.85 587.87 2216.56 598.19C2215.71 600.23 2215.28 602.57 2215.6 603.39C2216.33 605.31 2222.41 605.84 2239.85 605.5C2251.67 605.28 2253.43 605.02 2255.2 603.24ZM2371.12 586.02C2374.57 581.9 2378.19 572.78 2377.39 570.27C2375.88 565.58 2374.22 563.77 2369.14 561.28C2364.11 558.82 2362.65 558.59 2352.06 558.63C2345.39 558.65 2339.58 559.15 2338.36 559.81C2336.23 560.95 2335.44 563.51 2331.92 580.59C2329.86 590.57 2329.16 590.21 2350.11 589.83L2368.22 589.5L2371.12 586.02ZM1646.8 560.25C1641.7 554.36 1645.45 547.93 1652.42 550.61C1654.89 551.55 1654.43 557.24 1651.69 559.83C1648.89 562.45 1648.71 562.47 1646.8 560.25ZM281.5 472.39C263.54 470.59 243.5 465.31 231.38 459.19C218.26 452.57 197.42 433.66 184.92 417.03C171.4 399.03 163.53 374.81 162.35 347.5C160.67 308.81 173.91 276.25 202.27 249.34C217.56 234.83 237.63 223.39 256.19 218.59C280.5 212.31 309.8 213.28 334 221.16C357.91 228.96 383.31 248.37 398.12 270.17C410.89 288.98 420.3 315.91 421.65 337.5C422.51 351.32 419.35 369.34 412.83 387.83C406.54 405.65 398.78 417.43 383.07 433C362.58 453.3 341.66 465.32 318.55 470.08C309.72 471.9 289.28 473.18 281.5 472.39ZM324.5 461.15C356.77 452.57 390.89 421.22 404.88 387.29C417.4 356.93 416.35 322.53 401.99 292.26C395.47 278.51 388.32 268.36 377.5 257.48C366.17 246.08 356.97 239.2 345.5 233.56C334.51 228.16 330.05 226.66 316.8 223.95C296.31 219.75 278.46 220.24 258.13 225.56C227.35 233.62 196.9 258.33 183 286.5C171.72 309.35 169.21 323.04 170.83 352.8C172.03 374.74 173.47 380.29 182.53 397.94C195.48 423.16 214.6 441.66 240.5 454.04C259.42 463.07 264.47 463.97 294.5 463.57C313.15 463.33 317.72 462.96 324.5 461.15ZM342.4 391.84C341.94 391.1 341.38 379.13 341.16 365.24L340.76 339.98L332.63 340.24C325.22 340.48 324.5 340.33 324.5 338.6C324.5 337.2 325.87 336.26 329.77 334.99C335.85 333 338.32 331.06 340.05 326.88C341.57 323.22 344.07 323.44 345.11 327.33C346.5 332.51 347.16 362.31 346.21 376.81C345.31 390.57 344.24 394.8 342.4 391.84ZM282.25 391.34C280.46 390.61 280.79 385.17 283.41 372C284.67 365.68 285.33 360.35 284.87 360.17C284.41 359.99 281.02 361.05 277.33 362.53C260.84 369.13 245.94 363.07 240.03 347.38C238.16 342.44 237.88 340.07 238.25 332.5C238.95 318.44 244.66 306.24 253.79 299.31C264.92 290.87 281.63 291.59 292.31 300.97C296.48 304.63 298.32 304.14 299.33 299.1C300.38 293.86 306.2 290.74 307.69 294.62C308.27 296.13 305.54 310.22 297.47 347.5C295.68 355.75 292.99 368.57 291.49 376C288.46 390.96 287.07 393.28 282.25 391.34ZM275.07 355.17C288.64 346.57 295.89 328.45 291.63 313.8C287.32 298.98 270.03 295.84 257.1 307.53C250.87 313.16 248.66 319.48 248.21 333C247.85 343.77 247.98 344.72 250.19 348C251.49 349.93 254.73 352.96 257.39 354.75C263.71 359 268.84 359.12 275.07 355.17ZM1302.25 269.54C1293.87 267.64 1286.98 263.73 1281.15 257.56C1272.64 248.56 1269.53 235.95 1270.16 213C1270.52 199.89 1270.66 199.14 1273.95 192.45C1278.36 183.46 1286.69 175 1293.5 172.57C1300.1 170.22 1317.07 169.36 1325.22 170.96C1333.54 172.6 1337.64 174.84 1343.18 180.76C1351 189.13 1354.22 197.79 1350.25 199.83C1346.83 201.59 1342.87 198.75 1340.13 192.56C1336.15 183.57 1326.23 178.53 1312.5 178.53C1292.85 178.53 1282.87 187.88 1279.98 209C1277.75 225.23 1280.78 241.2 1287.88 250.61C1292.91 257.28 1302.9 262.35 1310.91 262.29C1322.67 262.21 1335.67 254.46 1340.46 244.67C1341.92 241.68 1343.38 236.71 1343.7 233.62L1344.28 228L1331.36 228C1316.32 228 1313.67 227.02 1314.19 221.65L1314.5 218.5L1333.22 218.52C1344.5 218.53 1352.34 218.94 1352.95 219.55C1353.55 220.15 1354.07 229.47 1354.23 242.74C1354.47 262.84 1354.33 265.09 1352.73 266.69C1350.21 269.22 1347.64 267.3 1346.96 262.39C1346.38 258.16 1345.38 256 1344 256C1343.51 256 1340.56 258.24 1337.43 260.98C1327.87 269.34 1315.1 272.45 1302.25 269.54ZM1531.7 269.03C1522.41 265.4 1514.9 257.46 1513.47 249.76C1512.11 242.37 1519.02 244 1524.34 252.31C1528.49 258.81 1534.14 262 1541.48 262C1549.89 262 1558 255.73 1558 249.21C1558 244.26 1554.52 242.14 1536.31 236.01C1520.09 230.55 1516 226.42 1516 215.47C1516 208.46 1518.27 204.34 1523.87 201.19C1538.56 192.94 1561.95 199.51 1564.58 212.64C1565.76 218.53 1559.02 219.99 1556 214.5C1551.31 205.98 1534.03 202.26 1526.53 208.16C1524.62 209.66 1524 211.07 1524 213.94C1524 221.17 1529.79 225.42 1546.5 230.47C1562.37 235.26 1566.07 238.75 1566.15 248.97C1566.24 259.79 1561.7 265.16 1549.23 269.01C1541.34 271.45 1537.9 271.45 1531.7 269.03ZM1599.99 270.07C1592.56 267.8 1582.71 259.89 1580.35 254.28C1578.47 249.8 1578.58 245 1580.57 245C1583.43 245 1585.94 247.01 1590.09 252.62C1598.32 263.76 1612.46 265.37 1620.3 256.06C1627.71 247.25 1624.7 243.62 1604.5 237C1591.91 232.87 1587.9 230.86 1584.7 227.05C1581.46 223.2 1580.3 215.17 1582.18 209.55C1587.82 192.67 1623.42 194.07 1629.98 211.43C1630.92 213.92 1630.79 214.65 1629.13 216.31C1626.39 219.06 1622.52 217.92 1621.14 213.97C1618.9 207.55 1601.09 202.95 1593.72 206.88C1590.54 208.58 1588.55 213.07 1589.43 216.58C1590.83 222.16 1597.45 226.11 1613.5 230.94C1627.13 235.05 1630.94 238.34 1631.74 246.68C1632.81 257.83 1627.64 264.87 1615.45 268.87C1608.78 271.06 1604.38 271.4 1599.99 270.07ZM1382.12 268.56C1373.99 265.91 1367.99 258.14 1368.01 250.28C1368.02 246.02 1371.72 237.38 1374.66 234.78C1377.57 232.19 1384.13 230.17 1394.86 228.56C1405.94 226.9 1410.51 225.23 1413.91 221.6C1416.12 219.25 1416.23 218.7 1415.18 215.2C1414.55 213.1 1412.87 210.28 1411.44 208.94C1409.16 206.8 1407.74 206.46 1399.89 206.15C1394.97 205.96 1389.9 206.06 1388.62 206.38C1387.29 206.72 1384.75 209.31 1382.62 212.52C1377.01 220.96 1372.06 222.22 1372.02 215.22C1371.97 208.32 1378.91 200.94 1387.36 198.91C1393.99 197.32 1407.52 197.31 1412.23 198.89C1416.84 200.44 1423.59 207.89 1424.34 212.27C1424.64 214.05 1425.18 224.5 1425.52 235.5C1426.2 256.84 1426.99 261.54 1430.06 262.52C1431.13 262.86 1432 263.69 1432 264.37C1432 268.64 1423.78 269.37 1419.18 265.5C1415.37 262.29 1414.01 262.35 1405.06 266.11C1396.39 269.75 1388.4 270.61 1382.12 268.56ZM1457.89 268.68C1448.27 265.08 1445.26 260.34 1443.94 246.67C1442.93 236.24 1442.69 201.97 1443.61 199.58C1444.43 197.45 1448.61 197.57 1449.49 199.75C1449.88 200.71 1450.57 210.72 1451.01 222C1451.85 243.34 1452.96 250.95 1456.12 257.21C1459.84 264.56 1470.37 264.57 1480.35 257.25C1488 251.63 1488.84 248.82 1490.02 224.83C1491.24 200.23 1491.58 198 1494.14 198C1497.81 198 1498.32 202.17 1498.37 232.5C1498.41 256.06 1498.15 262.06 1496.95 264.49C1494.6 269.28 1492.26 268.93 1490.91 263.57C1490.28 261.06 1489.55 259 1489.3 259C1489.04 259 1486.96 260.52 1484.67 262.38C1482.38 264.23 1478.95 266.54 1477.05 267.51C1472.52 269.81 1462.53 270.42 1457.89 268.68ZM1686.5 268.57C1678.99 265.82 1671.98 255.85 1672.03 248C1672.06 243.07 1675.68 237.16 1680.57 234.06C1685.4 230.99 1688.75 230.09 1704.99 227.46C1710.21 226.61 1715.49 225.26 1716.72 224.45C1721.35 221.41 1720.9 212.77 1715.89 208.56C1713.17 206.27 1711.99 206 1704.64 206C1698.11 206 1695.51 206.46 1691.97 208.25C1687.92 210.3 1687.03 211.38 1683.99 218C1683.61 218.82 1682.12 219.64 1680.68 219.81C1677.35 220.21 1676.28 216.77 1678.03 211.3C1680.69 202.97 1688.37 198.2 1700.59 197.27C1714.88 196.19 1726.66 201.64 1728.39 210.14C1728.77 211.99 1729.52 222.2 1730.05 232.84C1731.17 254.96 1732 259.77 1735.15 262.32C1738.32 264.89 1736.54 267.41 1731.29 267.8C1728.17 268.03 1726.6 267.53 1724.24 265.55C1720.33 262.26 1718.35 262.34 1709.7 266.13C1701.22 269.85 1692.51 270.77 1686.5 268.57ZM1871.99 269.07C1864.91 266.91 1858.04 261.83 1855.41 256.8C1854.63 255.31 1854 252.28 1854 250.05C1854 246.2 1854.15 246 1857.05 246C1859.44 246 1860.46 246.68 1861.8 249.15C1866.79 258.38 1873.97 262.64 1883.06 261.77C1888.71 261.23 1892.36 259 1895.75 254.01C1900.75 246.67 1897.22 242.72 1881.11 237.62C1867.67 233.37 1863.16 231.09 1859.16 226.52C1856.22 223.18 1856 222.42 1856 215.47C1856 208.3 1856.14 207.85 1859.61 204.01C1865.62 197.36 1877.51 195.18 1889.06 198.61C1897.98 201.26 1906.24 211.23 1903.33 215.85C1901.52 218.7 1900.11 218.15 1893.47 211.97L1886.84 205.81L1877.95 206.15C1867.04 206.58 1864.5 208.33 1864.5 215.45C1864.5 221.78 1867.16 224.14 1877.98 227.39C1901.37 234.4 1909.06 241.52 1905.95 253.25C1904.49 258.76 1896.18 267.04 1890.38 268.77C1885.89 270.11 1875.96 270.27 1871.99 269.07ZM1937.99 269.13C1932.57 267.35 1928.88 264.77 1926.42 261.06C1923.06 255.98 1921.84 243.39 1922.22 217.5C1922.5 198.83 1922.54 198.49 1924.68 198.19C1928.54 197.64 1929.28 201.08 1930.1 223.49C1931.13 251.78 1933.28 259.62 1940.65 262.05C1946.48 263.97 1953.52 261.85 1961.14 255.87C1966.87 251.37 1967.78 247.73 1968.97 224.65C1970.23 200.22 1970.58 198 1973.15 198C1976.66 198 1977.19 202.38 1977.31 232.5C1977.41 256.24 1977.16 262.04 1975.95 264.5C1973.8 268.86 1970.81 268.51 1969.69 263.75C1969.2 261.69 1968.35 260 1967.79 260C1967.24 260 1965.15 261.29 1963.14 262.86C1961.14 264.44 1957.95 266.52 1956.05 267.49C1952.2 269.46 1941.86 270.4 1937.99 269.13ZM2082.71 268.53C2076.77 266.26 2073.35 263.35 2071.09 258.68C2068.61 253.57 2068.41 247.35 2070.55 242.23C2074.02 233.93 2079.21 231.08 2095.55 228.52C2107.39 226.66 2113.04 224.39 2115.62 220.45C2117.17 218.09 2117.15 217.67 2115.42 213.82C2112.62 207.6 2109.2 206.01 2098.68 206C2093.84 206 2089.05 206.44 2088.06 206.97C2087.06 207.5 2084.85 210.12 2083.13 212.8C2079.84 217.93 2076 220.74 2073.98 219.49C2072.21 218.39 2073.29 209.82 2075.59 206.76C2080.48 200.24 2087.36 197.84 2101.5 197.73C2111.84 197.64 2116.19 199.18 2120.94 204.58C2125.04 209.25 2125.98 213.58 2126.04 228C2126.07 234.88 2126.45 244.93 2126.89 250.34C2127.63 259.54 2127.87 260.32 2130.56 262.47C2133.05 264.45 2133.26 264.98 2132.1 266.38C2129.99 268.93 2123.7 268.46 2120.18 265.5C2116.3 262.23 2113.62 262.35 2105.56 266.12C2097.64 269.83 2088.59 270.78 2082.71 268.53ZM2162.89 268.62C2143.78 261.79 2134.71 233.46 2145.03 212.86C2150.11 202.73 2157.52 197.9 2169 197.24C2178.86 196.67 2186.09 199.27 2192.36 205.63C2199.63 213 2200.84 218.97 2195.22 219.81C2193.69 220.04 2192.06 218.65 2188.98 214.47C2183.99 207.72 2180.44 206 2171.49 206C2159.95 206 2154.71 210.34 2151.54 222.52C2147.41 238.36 2152.33 254.39 2162.96 259.75C2173.07 264.85 2182.41 260.95 2190.63 248.18C2193.31 244.02 2194.54 242.94 2196.28 243.18C2197.99 243.43 2198.57 244.27 2198.82 246.87C2199.29 251.71 2197.46 255.29 2191.88 260.51C2182.79 269.02 2172.24 271.96 2162.89 268.62ZM2230.33 268.15C2222.69 265.51 2218.55 261.85 2214.97 254.6C2206.25 236.88 2210.05 212 2222.94 202.54C2230.75 196.81 2245.18 195.46 2253.36 199.69C2258.44 202.31 2265.24 209.37 2267.64 214.5C2270.27 220.12 2270.98 232.62 2268.8 234.8C2267.93 235.67 2260.98 236 2243.8 236L2220 236L2220 240.8C2220 248.44 2226.83 257.57 2235.72 261.81C2238.71 263.23 2239.46 263.22 2244.27 261.7C2251.06 259.56 2257.33 254.93 2259.43 250.51C2261.55 246.04 2264.42 244.42 2267.63 245.88C2268.93 246.47 2270 247.46 2270 248.08C2270 250.92 2266.3 256.44 2261.38 260.94C2252.1 269.41 2241.27 271.93 2230.33 268.15ZM1650.79 265.75C1649.34 263.19 1648.89 205.68 1650.29 200.69C1651.37 196.8 1655.04 197.31 1656.18 201.5C1657.16 205.1 1657.35 258.71 1656.39 262.7C1655.09 268.17 1652.86 269.38 1650.79 265.75ZM1749.47 266.5C1749.21 265.68 1748.76 264.24 1748.46 263.32C1747.69 260.9 1747.78 205.67 1748.57 201.49C1749.09 198.69 1749.68 198 1751.55 198C1754.18 198 1755.06 199.05 1755.91 203.2L1756.5 206.08L1760.5 203.17C1765.91 199.24 1771.24 197.64 1779 197.63C1787.71 197.61 1793.32 199.39 1797.38 203.44C1801.7 207.77 1802.15 210.24 1802.89 234C1803.77 262.27 1802.73 270.51 1798.67 267.14C1796.72 265.53 1796.14 261.31 1794.99 240.5C1793.75 218.02 1792.7 212.54 1788.87 208.72C1786.02 205.86 1785.79 205.81 1776.73 206.15C1765.11 206.59 1762.13 208.37 1758.97 216.77C1757.15 221.61 1756.69 225.72 1756.02 243.3C1755.34 261.06 1754.97 264.38 1753.46 266.05C1751.34 268.39 1750.1 268.53 1749.47 266.5ZM1996.31 266.75C1995.33 265.24 1994.61 208.24 1995.49 202.25C1996.03 198.62 1996.47 198 1998.5 198C2001.16 198 2002.04 199.03 2002.91 203.1L2003.5 205.88L2009.35 201.94C2013.97 198.83 2016.13 198 2019.63 198C2027.87 198 2026 203.42 2016.81 206.18C2006.52 209.26 2004.29 215.36 2003.02 243.86C2002.27 260.82 2001.83 264.53 2000.4 266.11C1998.4 268.32 1997.42 268.47 1996.31 266.75ZM2041.45 266.25C2041.02 265.29 2040.41 251.75 2040.09 236.17C2039.54 209.65 2039.38 207.75 2037.56 206.42C2036.49 205.64 2034.86 205 2033.93 205C2031.7 205 2029.75 202.55 2030.18 200.3C2030.37 199.31 2031.98 198.03 2033.76 197.45C2038.58 195.89 2039.31 194.69 2040.13 187.02C2041.02 178.64 2043.02 174.92 2048.15 172.03C2053.22 169.19 2059.36 169.52 2059.81 172.66C2060.04 174.27 2058.96 175.62 2055.57 177.95C2050.17 181.67 2049.33 183.06 2048.45 189.7C2047.68 195.48 2048.08 195.96 2055 197.5C2058.47 198.28 2059.57 199 2059.81 200.69C2060.18 203.25 2058.24 204.48 2052.32 205.46L2048.14 206.15L2047.82 234.83C2047.49 263.96 2046.98 268 2043.57 268C2042.82 268 2041.87 267.21 2041.45 266.25ZM2305.49 266.99C2304.57 265.5 2307.53 259.53 2330.49 216.5C2354.85 170.86 2352.78 174.42 2355.74 173.07C2359.3 171.45 2361.63 171.77 2364.38 174.25C2366.5 176.17 2367.39 179.09 2370.4 194C2376.24 223 2383 259.97 2383 262.87C2383 267.77 2378.83 269.68 2375.69 266.21C2374.73 265.15 2373.2 259.39 2371.91 251.96C2370.72 245.11 2369.47 239.2 2369.12 238.83C2368.78 238.46 2359.53 238.46 2348.57 238.83L2328.64 239.5L2323.07 249.83C2316.31 262.37 2311.79 268 2308.5 268C2307.19 268 2305.84 267.54 2305.49 266.99ZM1405.67 258.41C1411.36 254.9 1415.53 248.08 1416.56 240.59C1417.68 232.44 1415.33 231.88 1395.58 235.63C1386.76 237.3 1380.59 240.03 1379.03 242.94C1377.55 245.71 1377.76 251.64 1379.46 254.93C1383.29 262.32 1396.48 264.07 1405.67 258.41ZM1708.7 259.15C1715.81 255.52 1719.98 248.62 1719.99 240.44C1720.01 234.55 1718.35 233.63 1708.9 234.26C1697.94 235 1687.79 238.18 1684.96 241.77C1683.18 244.03 1682.88 245.49 1683.21 250.21C1683.67 256.64 1685.58 259.48 1690.42 260.98C1695.01 262.41 1704.11 261.5 1708.7 259.15ZM2104.69 259.47C2110.7 256.47 2114.73 251.18 2116.65 243.76C2119.44 233.03 2118.26 232.22 2103.07 234.45C2084.04 237.24 2078.78 240.21 2078.6 248.27C2078.47 253.82 2080.97 257.63 2086.33 260.06C2092.21 262.73 2098.55 262.53 2104.69 259.47ZM965.5 242C965.84 241.45 965.64 241 965.06 241C964.48 241 964 241.45 964 242C964 242.55 964.2 243 964.44 243C964.68 243 965.16 242.55 965.5 242ZM2367.32 229.25C2367.55 228.84 2365.98 218.82 2363.82 207C2360.29 187.73 2358.93 182.68 2357.62 184.07C2356.14 185.64 2335 227 2335 228.34C2335 229.82 2336.75 230 2350.94 230C2359.71 230 2367.08 229.66 2367.32 229.25ZM2260.88 226.65C2262.72 224.42 2259.67 216.27 2255.31 211.8C2250.81 207.2 2242.87 204.43 2237.21 205.49C2227.82 207.25 2220 214.82 2220 222.13C2220 226.55 2220.54 226.8 2231 227.3C2249.6 228.2 2259.78 227.98 2260.88 226.65ZM1649.91 182.26C1648.65 178.96 1649.58 173.1 1651.48 172.37C1654.36 171.26 1657 173.89 1657 177.88C1657 184.21 1651.86 187.39 1649.91 182.26Z" fill="#1e2749" fill-rule="evenodd"/>
</svg>
