<?xml version="1.0" encoding="UTF-8"?>
<svg xmlns="http://www.w3.org/2000/svg" viewBox="0 0 234 207" width="234" height="207" shape-rendering="geometricPrecision">
<path d="M78.75 195.34C78.3 195.15 78 194.73 78 194.31C78 193.66 78.11 193.62 79.25 193.85C81.2 194.26 82.09 194.12 82.74 193.33C83.84 191.96 83.38 190.73 81.63 190.37C80.13 190.06 80.15 189.17 81.67 188.42C84.14 187.18 82.79 185.12 80.05 185.95C78.34 186.46 78.33 186.46 78.33 185.54C78.33 184.56 78.87 184.33 81.17 184.33C84.1 184.33 85.85 186.35 84.49 188.15C83.83 189.02 83.87 189.57 84.67 190.58C85.61 191.77 85.5 192.7 84.23 194.16C83.25 195.3 82.94 195.45 81.32 195.55C80.32 195.61 79.16 195.52 78.75 195.34ZM44.67 190.54C40.89 189.58 38.79 187.3 37.8 183.09C37.15 180.36 37.34 177.56 38.34 174.89C39.25 172.45 40.33 171.19 42.46 170.07C44.02 169.24 44.47 169.17 47.83 169.19C51.01 169.21 51.72 169.32 53.17 170.02C54.57 170.71 54.85 171 54.93 171.86C55.09 173.44 54.3 173.9 52.91 173.05C51.27 172.04 48.07 171.28 46.5 171.53C44.67 171.82 42.75 172.94 42.02 174.15C40.43 176.8 40.29 181.72 41.71 184.56C42.9 186.93 44.56 188.09 47.02 188.27C49.06 188.42 51.56 187.77 52.69 186.79C52.98 186.54 53.62 186.33 54.11 186.33C54.83 186.33 55 186.49 55 187.14C55 189 53.95 189.8 50.5 190.54C48.13 191.06 46.7 191.06 44.67 190.54ZM58.82 189.91C58.73 189.68 58.7 184.99 58.74 179.5L58.83 169.5L60.17 169.5L61.5 169.5L61.67 173.33L61.83 177.17L66.29 177.26C69.23 177.32 70.89 177.23 71.19 176.98C71.51 176.72 71.67 175.54 71.74 173.05L71.83 169.5L73.17 169.5L74.5 169.5L74.67 179.47C74.78 186.13 74.72 189.59 74.49 189.91C74.27 190.21 73.71 190.34 72.99 190.28L71.83 190.17L71.67 185.17L71.5 180.17L66.67 180.17L61.83 180.17L61.74 184.81C61.69 187.54 61.5 189.64 61.28 189.89C60.82 190.45 59.03 190.47 58.82 189.91ZM86.83 164.39C84.82 163.01 84.91 162.46 87.93 157.31C93.22 148.3 96.62 142.47 97.43 141C97.89 140.17 99.41 137.58 100.8 135.23C102.19 132.88 103.33 130.89 103.33 130.8C103.33 130.72 103.68 130.09 104.11 129.41C104.54 128.73 105.42 127.19 106.07 126C106.73 124.81 108.6 121.43 110.24 118.5C111.88 115.57 113.72 112.27 114.32 111.17C114.93 110.07 115.53 109.02 115.66 108.83C116.46 107.73 118.27 104.05 118.1 103.87C117.98 103.76 107.43 103.67 94.65 103.67C74.99 103.67 71.35 103.59 71.02 103.19C70.8 102.92 70.67 101.97 70.73 100.94L70.83 99.17L94.67 99L118.5 98.83L118.43 98.11C118.39 97.72 117.91 96.65 117.38 95.74C116.84 94.83 115.95 93.28 115.41 92.29C113.52 88.88 111.08 84.49 110.16 82.83C104.21 72.19 102.75 69.61 101.64 67.78C100.92 66.61 100.33 65.59 100.33 65.51C100.33 65.43 98.98 63.1 97.33 60.32C95.68 57.54 94.33 55.21 94.33 55.16C94.33 55.1 93.42 53.5 92.29 51.61C87.86 44.11 85.33 39.67 85.33 39.35C85.33 38.88 87.85 37.33 88.61 37.33C89.18 37.33 90.33 38.28 90.33 38.76C90.33 38.87 91.68 41.24 93.33 44.02C94.98 46.8 96.33 49.12 96.33 49.18C96.33 49.25 97.68 51.57 99.33 54.35C100.98 57.13 102.33 59.46 102.33 59.52C102.33 59.58 103.74 62 105.46 64.9C107.18 67.8 108.92 70.77 109.33 71.5C109.73 72.23 111.43 75.16 113.09 78C117.32 85.24 121.27 92.03 123.11 95.2C123.97 96.69 124.94 98.15 125.28 98.45C125.83 98.95 128.55 99 155.02 99.08L184.17 99.17L184.27 100.94C184.33 101.97 184.2 102.92 183.98 103.19C183.64 103.6 179.16 103.67 154.14 103.67L124.69 103.67L121.9 108.42C116.93 116.86 113.08 123.47 112.33 124.83C111.63 126.08 110.23 128.49 102.99 140.83C101.37 143.58 99.5 146.88 98.81 148.17C98.13 149.45 97.39 150.72 97.17 151C96.94 151.27 96.26 152.47 95.64 153.67C95.02 154.86 94.05 156.51 93.48 157.34C92.9 158.17 91.87 160.04 91.18 161.51C89.87 164.3 89.14 165.34 88.53 165.32C88.33 165.32 87.57 164.9 86.83 164.39ZM29.08 117.34C28.64 117.15 28.33 116.73 28.33 116.31C28.33 115.66 28.45 115.62 29.58 115.85C31.53 116.26 32.43 116.12 33.07 115.33C34.18 113.96 33.71 112.73 31.96 112.37C30.42 112.05 30.4 111.3 31.91 110.5C34.47 109.14 33.2 107.1 30.33 107.96C28.9 108.39 28.33 108.25 28.33 107.49C28.33 106.75 29.47 106.33 31.45 106.33C32.93 106.33 33.48 106.5 34.31 107.2C35.42 108.13 35.65 109.33 34.83 110C34.14 110.58 34.21 111.53 35.03 112.64C35.93 113.85 35.68 115.21 34.32 116.51C33.56 117.25 32.97 117.47 31.59 117.55C30.62 117.61 29.5 117.52 29.08 117.34ZM44.67 112.52C41.93 111.76 40.34 110.6 38.94 108.33C38.27 107.24 37.33 103.46 37.33 101.83C37.33 101.12 37.58 99.56 37.88 98.35C38.72 94.99 39.85 93.45 42.5 92.05C44.02 91.25 44.49 91.17 47.83 91.19C51.01 91.21 51.72 91.32 53.17 92.02C54.57 92.71 54.85 93 54.93 93.86C55.09 95.43 54.3 95.9 52.93 95.06C51.19 94 48.11 93.23 46.56 93.48C44.72 93.77 42.76 94.93 42.02 96.15C40.43 98.8 40.29 103.72 41.71 106.56C42.9 108.93 44.56 110.09 47.02 110.27C49.06 110.42 51.56 109.77 52.69 108.79C52.98 108.54 53.62 108.33 54.11 108.33C54.83 108.33 55 108.49 55 109.14C55 111 53.95 111.8 50.5 112.54C48.06 113.07 46.63 113.07 44.67 112.52ZM196.67 112.52C193.93 111.76 192.34 110.6 190.94 108.33C190.27 107.24 189.33 103.46 189.33 101.83C189.33 101.12 189.58 99.56 189.88 98.35C190.72 94.99 191.85 93.45 194.5 92.05C196.02 91.25 196.49 91.17 199.83 91.19C203.01 91.21 203.72 91.32 205.17 92.02C206.57 92.71 206.85 93 206.93 93.86C207.09 95.43 206.3 95.9 204.93 95.06C203.19 94 200.11 93.23 198.56 93.48C196.72 93.77 194.76 94.93 194.02 96.15C192.43 98.8 192.29 103.72 193.71 106.56C194.9 108.93 196.56 110.09 199.02 110.27C201.06 110.42 203.56 109.77 204.69 108.79C204.98 108.54 205.62 108.33 206.11 108.33C206.83 108.33 207 108.49 207 109.14C207 111 205.95 111.8 202.5 112.54C200.06 113.07 198.63 113.07 196.67 112.52ZM8.57 112.13C8.44 112 8.33 107.26 8.33 101.59L8.33 91.3L9.75 91.4L11.17 91.5L11.33 95.33L11.5 99.17L15.95 99.26C18.89 99.32 20.56 99.23 20.86 98.98C21.18 98.72 21.34 97.54 21.41 95.05L21.5 91.5L22.83 91.5L24.17 91.5L24.17 101.83L24.17 112.17L22.83 112.17L21.5 112.17L21.33 107.17L21.17 102.17L16.33 102.17L11.5 102.17L11.33 107.17L11.17 112.17L9.99 112.27C9.34 112.32 8.7 112.26 8.57 112.13ZM210.56 112.11C210.43 111.99 210.33 107.22 210.33 101.51C210.33 90.6 210.37 90.33 211.83 90.33C213.3 90.33 213.33 90.61 213.33 101.33C213.33 108.82 213.23 111.64 212.93 111.93C212.51 112.36 210.92 112.48 210.56 112.11ZM66.08 36.34C65.64 36.15 65.33 35.73 65.33 35.31C65.33 34.66 65.45 34.62 66.58 34.85C68.53 35.26 69.43 35.12 70.07 34.33C71.18 32.96 70.71 31.73 68.96 31.37C67.42 31.05 67.4 30.3 68.91 29.5C71.47 28.14 70.2 26.1 67.33 26.96C65.9 27.39 65.33 27.25 65.33 26.49C65.33 25.75 66.47 25.33 68.45 25.33C69.93 25.33 70.48 25.5 71.31 26.2C72.42 27.13 72.65 28.33 71.83 29C71.14 29.58 71.21 30.53 72.03 31.64C72.93 32.85 72.68 34.21 71.32 35.51C70.56 36.25 69.97 36.47 68.59 36.55C67.62 36.61 66.5 36.52 66.08 36.34ZM81.33 30.52C79.03 29.88 77.82 29.14 76.58 27.59C74.79 25.36 74.33 23.8 74.33 19.91C74.33 14.65 75.67 11.88 79.1 10.09C80.67 9.26 81.16 9.18 84.33 9.18C89.31 9.19 91.67 10.18 91.67 12.27C91.67 13.56 90.87 13.74 89.13 12.84C82.25 9.29 76.89 12.87 77.42 20.65C77.53 22.27 77.84 23.71 78.27 24.53C80.18 28.26 84.16 29.39 88.2 27.34C90.4 26.22 91.26 26.09 91.55 26.83C92.19 28.5 90.68 29.78 87.17 30.54C84.72 31.07 83.29 31.07 81.33 30.52ZM45.15 29.91C45.06 29.68 45.03 24.99 45.08 19.5L45.17 9.5L46.5 9.5L47.83 9.5L47.93 12.98C47.98 14.9 48.19 16.66 48.39 16.9C48.9 17.52 57.1 17.52 57.61 16.9C57.81 16.66 58.02 14.9 58.07 12.98L58.17 9.5L59.32 9.39C61.3 9.2 61.33 9.36 61.33 20.02C61.33 30.57 61.35 30.47 59.27 30.27L58.17 30.17L58 25.17L57.83 20.17L53 20.17L48.17 20.17L48.11 24.77C48.08 27.31 47.97 29.59 47.87 29.86C47.64 30.45 45.38 30.5 45.15 29.91Z" fill="#1e2749" fill-rule="evenodd"/>
</svg>
