<?xml version="1.0" encoding="UTF-8"?>
<svg xmlns="http://www.w3.org/2000/svg" viewBox="0 0 362 151" width="362" height="151" shape-rendering="geometricPrecision">
<path d="M117.33 136.7C116.01 136.34 116.14 135.32 117.74 133.56C120.44 130.57 121 129.75 121 128.77C121 128.24 120.82 127.62 120.6 127.4C119.98 126.78 118.74 126.92 118.51 127.64C118.4 127.99 118.08 128.46 117.8 128.7C117.12 129.26 116.68 128.61 116.67 127.06C116.67 126.26 116.95 125.66 117.68 124.94C118.56 124.06 118.84 123.96 119.93 124.15C122.64 124.63 123.25 124.97 123.81 126.37C124.53 128.18 124.05 129.94 122.31 131.82C120.54 133.74 120.58 134.33 122.46 134.33C124.02 134.33 124.8 134.9 124.61 135.89C124.55 136.21 124.12 136.57 123.66 136.7C122.59 137 118.41 137 117.33 136.7ZM91.33 131.19C90.88 130.95 89.97 130.5 89.31 130.19C87.07 129.13 85.67 125.83 86.1 122.63C86.38 120.52 87.67 118.31 89 117.65C92.16 116.08 93.71 115.93 97.78 116.79C99.02 117.05 100.09 117.12 100.19 116.96C100.43 116.57 105.41 116.94 105.83 117.38C106.06 117.62 105.92 117.9 105.42 118.24C104.64 118.77 104.49 119.69 104.88 121.62L105.08 122.67L107.98 122.67C109.78 122.67 111.02 122.52 111.27 122.27C111.49 122.05 111.67 121.16 111.67 120.31C111.67 119.02 111.55 118.71 111 118.57C110.62 118.47 110.33 118.12 110.33 117.74C110.33 116.42 114.53 116.28 115.97 117.55C116.05 117.61 115.8 118.01 115.42 118.42C114.81 119.07 114.71 119.64 114.64 122.83C114.56 126.83 114.81 128.74 115.57 129.95C115.84 130.38 115.94 130.86 115.78 131.01C115.42 131.37 111.57 131.52 111.06 131.2C110.5 130.86 110.57 129.49 111.17 129C111.51 128.72 111.67 127.96 111.67 126.63L111.67 124.67L108.13 124.67L104.59 124.67L104.73 126.81C104.81 128.21 105.06 129.18 105.43 129.59C106.41 130.67 105.55 131.27 102.84 131.39C100.8 131.49 100.49 131.42 100.39 130.89C100.33 130.56 100.55 129.98 100.89 129.61C101.76 128.64 102 120.06 101.18 118.81C100.45 117.69 99.67 117.76 99.67 118.95C99.67 119.47 99.39 120.15 99.04 120.46C98.45 121 98.38 120.97 97.74 119.87C97.13 118.85 96.86 118.7 95.22 118.49C91.46 118.02 89.52 119.74 89.51 123.55C89.5 125.64 89.51 125.67 91.18 127.34C93.15 129.31 94.43 129.66 97.21 128.99C98.78 128.61 99.1 128.62 99.53 129.06C99.98 129.5 99.97 129.61 99.48 130.02C97.85 131.37 92.99 132.07 91.33 131.19ZM128.17 131.37L126.17 131.17L126.29 125.33C126.4 119.71 126.38 119.47 125.66 118.56C125.1 117.85 125.01 117.52 125.3 117.24C125.8 116.73 129.57 116.56 132.5 116.9C134.77 117.16 134.85 117.2 135.45 118.42C136.05 119.65 136.04 119.7 135.36 121.11C134.47 122.95 134.48 123.02 135.67 124.06C136.43 124.74 136.67 125.22 136.67 126.15C136.67 128.4 135.48 129.92 133 130.83C131.04 131.56 130.54 131.61 128.17 131.37ZM137.43 131.1C137.33 130.84 137.43 130.22 137.66 129.73C137.89 129.24 138.13 127.75 138.2 126.42C138.31 124.29 138.25 123.95 137.66 123.59C136.11 122.62 137.71 120.74 139.75 121.13C140.35 121.25 140.98 121.34 141.17 121.32C143.83 121.17 144.11 121.2 144.45 121.73C144.7 122.12 144.7 122.59 144.47 123.23C144.18 124.03 143.97 124.16 142.99 124.11C142.36 124.08 141.73 124.23 141.59 124.44C141.2 125.06 141.29 128.55 141.73 129.5C142.27 130.69 141.63 131.22 139.39 131.42C138.05 131.54 137.57 131.46 137.43 131.1ZM131.97 128.47C132.79 127.79 133 127.35 133 126.34C133 125.26 132.86 125.02 132.03 124.68C130.4 124 129.85 124.31 129.73 125.97C129.62 127.41 130.17 129.33 130.68 129.33C130.83 129.33 131.41 128.94 131.97 128.47ZM302.83 128.07C302.65 127.89 301.95 127.57 301.28 127.36C299.97 126.94 297.67 124.35 297.67 123.3C297.67 122.97 297.52 122.61 297.33 122.5C297.15 122.39 297 121.64 297 120.84L297 119.4L291.25 116.51C288.09 114.92 284.6 113.17 283.5 112.62C282.4 112.07 281.08 111.41 280.56 111.15C279.08 110.39 277.32 110.56 275.17 111.67C274.09 112.22 273.04 112.67 272.82 112.67C272.61 112.67 272.17 112.97 271.83 113.33C271.5 113.7 270.95 114 270.6 114C270.26 114 269.57 114.27 269.07 114.6C267.67 115.52 267.05 115.86 264 117.34C262.44 118.1 260.94 118.85 260.67 119.02C253.31 123.41 252.85 123.44 246.83 119.83C246.1 119.39 245.28 118.94 245 118.83C243.05 118.03 236.3 114.73 232.04 112.49C230.13 111.49 228.39 110.67 228.16 110.67C227.4 110.67 226.85 109.59 226.82 108.04L226.79 106.5L225.48 106.41C224.76 106.37 223.7 106.25 223.13 106.16L222.09 105.99L222.06 100.26C222.03 96.1 222.14 94.45 222.43 94.27C222.65 94.13 223.45 94.01 224.2 94.01C226.47 94 226.65 93.56 226.7 87.9C226.73 83.57 226.81 82.91 227.39 82.17C227.75 81.71 228.26 81.33 228.51 81.33C229.03 81.33 229.42 81.15 235.33 78.16C237.62 77 240.92 75.35 242.67 74.51C244.41 73.66 246.23 72.75 246.72 72.48C247.2 72.22 247.76 72 247.95 72C248.55 72 251.25 70.03 251.49 69.42C251.61 69.1 251.69 65.38 251.66 61.17C251.58 48.4 251.51 49.27 252.58 49.39L253.5 49.5L253.67 59.67C253.76 65.26 253.95 70.02 254.1 70.25C254.25 70.48 254.6 70.67 254.88 70.67C255.16 70.67 255.78 70.97 256.24 71.33C256.71 71.7 257.31 72 257.58 72C257.84 72 258.46 72.21 258.95 72.48C259.44 72.74 260.58 73.3 261.5 73.72C262.42 74.14 264.52 75.25 266.17 76.19C267.82 77.12 269.58 77.99 270.08 78.12C270.59 78.24 271 78.49 271 78.67C271 78.85 271.22 79 271.49 79C271.76 79 273.35 79.67 275.04 80.5C276.72 81.32 278.34 82 278.64 82C278.94 82 280.98 81.1 283.17 80C285.37 78.91 287.34 78.01 287.54 78C287.75 78 288.11 77.77 288.33 77.5C288.56 77.22 289.01 77 289.33 77C289.65 77 290.29 76.7 290.74 76.34C291.76 75.55 295.95 73.34 296.46 73.33C296.81 73.32 297.41 73.02 301.94 70.58C302.88 70.08 303.92 69.67 304.25 69.67C304.58 69.67 305.63 70.18 306.58 70.81C307.53 71.44 308.66 72.05 309.07 72.17C310.11 72.46 312.06 73.29 312.67 73.69C312.94 73.87 314.07 74.47 315.17 75.02C316.27 75.57 317.99 76.46 319 76.99C320.01 77.53 322.97 78.99 325.58 80.23C328.78 81.76 330.4 82.72 330.55 83.17C330.67 83.53 330.74 86.65 330.71 90.09C330.67 94.23 330.77 96.58 331.02 97.05C331.38 97.71 331.57 97.74 334.21 97.53C336.68 97.32 337.12 97.38 337.93 97.95C338.83 98.59 338.86 98.59 339.62 97.97C340.7 97.1 342.29 97.17 343.5 98.14C344.45 98.89 344.51 99.08 344.62 101.76C344.75 104.98 344.4 106 343.15 106C342.38 106 342.33 105.89 342.27 103.92C342.24 102.77 342.24 101.43 342.27 100.93C342.38 99.35 340.05 98.32 339.35 99.64C339.16 100 339 101.42 339 102.8C339 105.12 338.93 105.36 338.16 105.87C336.73 106.81 336.33 106.09 336.41 102.71L336.47 99.83L335.18 99.41C334.25 99.1 333.79 99.08 333.53 99.34C333.32 99.54 333.17 100.97 333.17 102.6C333.17 104.2 333.05 105.69 332.9 105.92C332.75 106.15 332.19 106.33 331.66 106.33C330.74 106.33 330.7 106.4 330.6 108.08C330.5 109.79 330.47 109.83 328.83 110.72C327.92 111.22 326.86 111.64 326.48 111.65C326.11 111.66 325.63 111.83 325.43 112.04C324.96 112.5 324.12 113 321.17 114.53C319.88 115.19 318.51 115.91 318.11 116.12C317.72 116.33 316.11 117.1 314.53 117.83L311.67 119.17L311.67 120.7C311.67 122.93 309.86 126.38 308.47 126.83C307.9 127.02 307.18 127.38 306.87 127.63C306.19 128.2 303.29 128.51 302.83 128.07ZM307 125.01C310.48 122.13 310.91 119.51 308.28 117.12C306.25 115.28 303 114.71 301.83 116C301.5 116.37 301.04 116.67 300.81 116.67C300.23 116.67 298.67 119.44 298.67 120.49C298.67 121.49 299.85 123.96 300.63 124.6C300.93 124.84 301.64 125.25 302.23 125.51C302.81 125.78 303.38 126.14 303.5 126.33C303.85 126.9 305.43 126.31 307 125.01ZM131.99 120.92C132.65 119.73 132.15 118.87 130.72 118.73C129.68 118.63 129.67 118.65 129.67 120.09C129.67 120.9 129.77 121.66 129.9 121.79C130.38 122.27 131.49 121.81 131.99 120.92ZM257.67 118.35C259.41 117.57 261.06 116.8 261.33 116.65C261.84 116.35 264.55 114.95 268.17 113.09C269.27 112.53 271.8 111.27 273.8 110.28L277.43 108.5L277.55 99.5C277.62 94.55 277.7 90.12 277.73 89.67C277.77 89.21 277.77 87.67 277.73 86.25C277.67 83.97 277.59 83.67 277.04 83.67C276.7 83.67 276.04 83.37 275.58 83C275.11 82.63 274.55 82.33 274.33 82.33C274.11 82.33 273.48 81.96 272.94 81.5C272.39 81.04 271.68 80.67 271.35 80.67C271.02 80.67 270.56 80.44 270.33 80.17C270.11 79.89 269.72 79.67 269.47 79.67C269.06 79.67 266.91 78.71 265.67 77.99C265.39 77.83 263.67 76.93 261.83 75.99C260 75.06 258.27 74.17 258 74.03C257.72 73.88 256.9 73.5 256.17 73.18C255.43 72.85 254.42 72.37 253.92 72.11C253.05 71.66 252.81 71.73 249.25 73.5C247.19 74.52 245.01 75.64 244.41 75.97C243.81 76.31 242.61 76.91 241.74 77.3C240.88 77.69 239.94 78.14 239.67 78.3C239.39 78.46 238.57 78.86 237.83 79.18C237.1 79.5 236.28 79.89 236 80.04C235.72 80.2 235.05 80.55 234.5 80.82C233.95 81.1 233.28 81.45 233 81.61C232.72 81.76 231.67 82.32 230.67 82.84C229.66 83.36 228.72 83.94 228.59 84.14C228.2 84.71 228.29 92.21 228.71 93.85C228.94 94.79 228.96 95.49 228.76 95.75C228.59 95.98 228.5 97.89 228.56 100C228.73 105.8 228.73 106.07 228.49 107.4C228.28 108.54 228.35 108.69 229.38 109.32C230 109.69 230.77 110 231.09 110C231.42 110 231.77 110.22 231.88 110.5C231.98 110.77 232.29 111 232.57 111C233.15 111 238.02 113.33 240.72 114.9C241.76 115.51 242.85 116 243.15 116C243.45 116 243.77 116.22 243.88 116.5C243.98 116.77 244.3 117 244.59 117C245.06 117 248.33 118.47 251.32 120.02C252.62 120.69 252.19 120.8 257.67 118.35ZM30.29 119.41C29.86 119.08 28.68 118.42 27.67 117.93C22.42 115.41 20.63 114.51 18.5 113.32C17.22 112.6 15.94 111.93 15.67 111.82C15.39 111.71 14.72 111.41 14.17 111.16C13.62 110.9 12.75 110.59 12.25 110.47C11.74 110.36 11.25 110.14 11.16 109.98C11.06 109.83 10.03 109.26 8.87 108.71C5.09 106.92 5.31 107.95 5.41 92.87L5.5 79.85L7.17 78.94C8.08 78.45 9.02 78.03 9.24 78.02C9.47 78.01 10.44 77.51 11.41 76.9C12.38 76.3 14.52 75.16 16.17 74.37C17.82 73.58 19.56 72.72 20.05 72.46C20.54 72.21 21.15 72 21.42 72C21.68 72 22.17 71.7 22.5 71.33C22.83 70.97 23.31 70.67 23.57 70.67C24.15 70.67 29.61 67.81 30.41 67.09C30.93 66.63 31 65.59 31.08 56.87L31.17 47.17L31.94 47.06C33.64 46.82 33.67 47 33.67 57.46C33.67 62.8 33.79 67.32 33.92 67.5C34.06 67.68 35.33 68.42 36.76 69.13C38.19 69.85 39.43 70.56 39.53 70.72C39.63 70.87 39.98 71 40.31 71C40.65 71 41.11 71.22 41.33 71.5C41.56 71.77 42.01 72 42.33 72C42.66 72 43.1 72.22 43.32 72.48C43.53 72.74 44.14 73.05 44.67 73.17C45.19 73.28 45.8 73.59 46.02 73.85C46.24 74.12 46.75 74.33 47.17 74.33C47.58 74.33 48.11 74.56 48.33 74.83C48.56 75.11 48.89 75.33 49.06 75.33C49.63 75.33 52.92 77.01 53.34 77.51C53.56 77.78 54.01 78 54.33 78C54.66 78 55.09 78.21 55.3 78.46C55.51 78.71 56.22 79 56.88 79.11C58 79.29 60.15 78.52 62.67 77.03C62.94 76.87 64.44 76.11 66 75.35C67.56 74.59 69.06 73.83 69.33 73.66C69.61 73.5 70.66 72.97 71.67 72.5C72.67 72.03 73.72 71.51 74 71.35C74.27 71.18 75.47 70.57 76.67 69.98C82.59 67.03 82.89 66.92 84.34 67.17C85.07 67.29 85.76 67.54 85.87 67.73C85.99 67.92 86.55 68.28 87.12 68.55C87.7 68.81 89.22 69.62 90.5 70.34C91.78 71.06 93.21 71.81 93.67 72.01C96.16 73.1 104.69 77.43 104.85 77.69C104.95 77.86 105.27 78 105.55 78C105.83 78 106.44 78.3 106.91 78.66C107.83 79.39 109.72 79.31 111.33 78.48C111.79 78.25 112.39 77.96 112.67 77.84C112.94 77.73 113.77 77.27 114.5 76.83C115.23 76.39 117.11 75.41 118.67 74.66C120.22 73.91 122.17 72.96 123 72.56C123.83 72.16 124.86 71.57 125.29 71.25C125.73 70.93 126.38 70.67 126.74 70.67C127.1 70.67 128.18 70.14 129.14 69.5C130.11 68.86 131.09 68.33 131.32 68.33C131.54 68.33 132.11 68.03 132.58 67.67C133.58 66.88 135.13 66.81 136.45 67.5C136.98 67.78 137.57 68 137.76 68C137.95 68 138.57 68.34 139.14 68.76C139.7 69.18 140.99 69.94 142 70.45C143.01 70.96 144.06 71.49 144.33 71.64C144.61 71.78 145.36 72.13 146 72.42C149.07 73.77 152.55 75.4 153 75.69C153.27 75.87 153.96 76.23 154.53 76.49C155.09 76.75 155.75 77.2 155.98 77.48C156.22 77.77 156.62 78 156.88 78C157.13 78 157.9 78.3 158.58 78.67C159.26 79.03 160.01 79.33 160.25 79.33C160.8 79.33 160.78 80.15 160.21 80.63C159.66 81.08 157.83 80.77 157.3 80.13C157.09 79.87 156.7 79.67 156.44 79.67C156.18 79.67 155.34 79.34 154.57 78.94C153.8 78.54 152.88 78.08 152.53 77.9C152.18 77.73 150.78 77.01 149.43 76.3C148.08 75.58 146.77 75 146.52 75C146.28 75 145.9 74.78 145.67 74.51C145.45 74.23 144.56 73.69 143.71 73.3C142.86 72.91 141.12 72.08 139.83 71.46C138.55 70.83 137.33 70.32 137.12 70.32C136.92 70.33 136.57 70.12 136.35 69.85C135.58 68.92 134.19 68.92 132.46 69.83C131.57 70.31 130.69 70.84 130.52 71.02C130.34 71.19 129.95 71.33 129.64 71.33C129.34 71.33 128.71 71.63 128.24 72C127.78 72.37 127.1 72.67 126.74 72.67C126.38 72.67 125.89 72.89 125.67 73.17C125.44 73.44 124.99 73.67 124.68 73.67C124.36 73.67 123.83 73.97 123.5 74.33C123.17 74.7 122.76 75 122.58 75C122.3 75 117.59 77.26 116.33 78C116.06 78.16 115.08 78.63 114.17 79.05C113.25 79.46 112.27 79.99 112 80.22C111.72 80.44 110.82 80.81 110 81.02C108.39 81.45 108.43 81.47 100.5 77.4C99.58 76.93 98.08 76.19 97.17 75.76C96.25 75.33 95.27 74.83 95 74.66C94.72 74.48 93.52 73.87 92.33 73.3C91.14 72.73 88.93 71.66 87.42 70.93C85.91 70.21 84.59 69.47 84.48 69.31C84.07 68.65 82.57 69.07 79.6 70.69C77.9 71.62 76.09 72.46 75.59 72.56C75.09 72.66 74.51 72.95 74.3 73.21C74.09 73.46 73.66 73.67 73.34 73.67C73.03 73.67 72.5 73.97 72.17 74.33C71.83 74.7 71.22 75 70.8 75C70.38 75 69.95 75.14 69.84 75.32C69.74 75.49 68.76 76.08 67.68 76.64C66.59 77.19 65.43 77.79 65.1 77.97C64.77 78.16 63.52 78.76 62.33 79.3C58.59 81 58.95 79.49 58.96 93.27C58.96 99.91 59.04 105.46 59.13 105.61C59.22 105.75 60.16 106.31 61.23 106.84C62.29 107.38 63.36 108.01 63.61 108.24C63.85 108.47 64.33 108.67 64.67 108.67C65.01 108.67 65.39 108.82 65.5 109.01C65.62 109.19 66.19 109.56 66.77 109.83C67.36 110.1 68.06 110.46 68.33 110.64C68.61 110.81 69.73 111.39 70.83 111.92C74.47 113.67 77.66 115.39 77.85 115.7C77.96 115.86 78.48 116 79.02 116C79.67 116 80 116.17 80 116.5C80 116.77 80.25 117 80.57 117C80.88 117 81.71 117.4 82.42 117.89L83.7 118.78L83.03 119.45C82.42 120.06 82.3 120.08 81.76 119.61C81.43 119.33 79.22 118.12 76.83 116.94C72.77 114.91 71.55 114.29 70.33 113.62C70.06 113.47 69.01 112.95 68 112.47C66.99 111.99 64.5 110.78 62.46 109.8C57.88 107.58 57.2 107.54 53.57 109.39C52.06 110.15 50.31 111 49.67 111.27C49.02 111.54 48.27 111.89 48 112.05C47.73 112.21 47.16 112.48 46.74 112.66C46.33 112.84 45.2 113.48 44.23 114.08C43.27 114.68 41.74 115.53 40.82 115.97C39.91 116.41 38.77 116.97 38.28 117.22C37.8 117.46 37.17 117.67 36.89 117.67C36.62 117.67 35.59 118.19 34.62 118.83C32.65 120.13 31.48 120.29 30.29 119.41ZM33 117.5C33.23 117.22 33.69 117 34.02 117C34.35 117 34.7 116.87 34.8 116.72C34.96 116.47 42.65 112.59 48.67 109.73C50.04 109.08 51.39 108.37 51.67 108.15C51.94 107.94 52.84 107.41 53.67 106.98C56.58 105.45 56.33 106.68 56.33 93.43L56.33 81.63L55.26 80.65C54.67 80.11 53.98 79.67 53.73 79.67C53.48 79.67 52.89 79.37 52.42 79C51.96 78.63 51.4 78.33 51.18 78.33C50.63 78.33 48.08 77.07 47.83 76.67C47.72 76.48 47.27 76.33 46.83 76.33C46.4 76.33 45.94 76.17 45.81 75.97C45.69 75.76 45.12 75.38 44.54 75.11C43.97 74.84 42.9 74.26 42.17 73.82C41.43 73.38 40.61 72.93 40.33 72.82C40.06 72.71 39.38 72.42 38.83 72.17C38.28 71.92 37.51 71.62 37.11 71.51C36.72 71.4 36.31 71.09 36.21 70.82C36.11 70.55 35.68 70.33 35.26 70.32C34.84 70.32 34.21 70.09 33.85 69.82C32.76 69 31.21 69.27 28.06 70.82C26.41 71.64 24.66 72.41 24.19 72.52C23.72 72.64 23.25 72.87 23.16 73.02C23.06 73.17 21.9 73.82 20.58 74.45C19.25 75.09 17.6 76 16.9 76.47C16.21 76.95 15.55 77.33 15.45 77.33C14.91 77.33 7.83 80.74 7.59 81.12C7.27 81.62 7.27 105.06 7.59 105.52C7.72 105.71 8.66 106.29 9.67 106.81C10.67 107.33 11.86 108.04 12.29 108.38C12.73 108.72 13.27 109 13.49 109C13.71 109 14.56 109.37 15.36 109.83C16.17 110.28 17.06 110.75 17.33 110.85C17.61 110.96 20.91 112.6 24.67 114.49C28.43 116.38 31.74 117.94 32.04 117.96C32.34 117.98 32.77 117.77 33 117.5ZM298.81 115.83C299.3 115.19 299.86 114.67 300.05 114.67C300.24 114.67 300.78 114.37 301.24 114C303.21 112.45 308.03 113.54 310 115.97C310.83 117 312.39 117.39 312.83 116.67C312.94 116.49 313.74 116 314.6 115.58C315.46 115.16 317.22 114.28 318.5 113.62C319.78 112.96 322.46 111.63 324.44 110.65C329.06 108.39 329.34 108.03 329.19 104.72C329.05 101.56 329.07 101.67 328.67 101.67C328.48 101.67 328.33 102.02 328.33 102.45C328.33 103.32 326.61 105.7 325.72 106.06C324.79 106.44 322.21 106.33 321.4 105.88C320.03 105.13 319.34 103.68 319.34 101.59C319.33 99.95 319.47 99.52 320.29 98.61C321.14 97.65 321.48 97.52 323.41 97.4C325.53 97.26 325.62 97.29 326.96 98.5C327.71 99.19 328.33 99.97 328.33 100.25C328.33 100.61 328.45 100.65 328.75 100.4C329.28 99.96 329.27 85.43 328.74 84.47C328.38 83.84 325.51 82.14 321.67 80.3C318.01 78.54 316.85 77.98 316.33 77.69C316.06 77.53 315.01 77.01 314 76.52C312.99 76.03 310.59 74.83 308.67 73.84C306.74 72.85 304.87 72.04 304.5 72.03C303.32 72 299.36 73.67 298.68 74.48C298.45 74.77 297.9 75 297.48 75C297.05 75 296.61 75.16 296.49 75.35C296.37 75.54 295.35 76.14 294.22 76.69C293.09 77.24 291.94 77.83 291.67 78C291.39 78.17 290.42 78.62 289.5 79.01C287.58 79.81 283.83 81.71 282.25 82.67C281.66 83.03 280.91 83.33 280.61 83.33C280.3 83.33 279.96 83.6 279.86 83.93C279.62 84.68 279.85 108.16 280.1 108.56C280.32 108.91 284.13 110.83 285.25 111.16C285.66 111.28 286 111.52 286 111.69C286 111.86 286.2 112 286.45 112C287.06 112 294.83 116.03 295.48 116.68C295.66 116.86 296.28 117 296.86 117C297.68 117 298.12 116.74 298.81 115.83ZM249.36 106.45C248.96 106.17 248.44 106.02 248.19 106.11C247.95 106.2 247.17 106.15 246.46 105.99C245.64 105.8 244.73 105.82 243.97 106.05C243.01 106.34 242.57 106.3 241.72 105.86C240.75 105.36 240.67 105.18 240.67 103.66C240.67 102.47 240.8 102 241.13 102C242.14 102 242.44 101.08 241.89 99.7C241.49 98.72 241.44 98.11 241.68 97.28C241.86 96.67 242 95.38 242 94.42C242 91.45 244.59 87.39 247.53 85.75C248.21 85.38 249.66 85.17 252.41 85.07C255.97 84.94 256.45 85 257.9 85.7C260.17 86.8 262.68 89.55 263.55 91.9C264.32 93.99 264.75 97.68 264.8 102.67L264.83 105.83L263.87 105.94C262.71 106.08 262.35 105.59 262.34 103.92C262.34 103.23 262.19 102.67 262.01 102.67C261.63 102.67 259.66 104.63 259.13 105.54C258.48 106.66 250.7 107.39 249.36 106.45ZM230.8 105.87C230.7 105.62 231.08 104.66 231.65 103.75C232.88 101.74 232.92 101.02 231.83 99.73C231.38 99.18 231 98.51 231 98.22C231 96.86 233.08 97.2 233.85 98.69C234.51 99.97 235.33 99.87 236 98.42C236.41 97.54 236.69 97.35 237.56 97.34C239.01 97.33 239.16 97.76 238.14 98.97C236.95 100.39 236.69 102.45 237.58 103.43C237.95 103.84 238.42 104.5 238.63 104.9C238.95 105.52 238.9 105.69 238.36 105.99C237.35 106.53 237.11 106.42 236.1 105.01C235.59 104.28 234.93 103.68 234.64 103.67C234.36 103.67 233.79 104.27 233.37 105C232.82 105.99 232.41 106.33 231.8 106.33C231.35 106.33 230.9 106.13 230.8 105.87ZM267.5 106.05C267.41 105.96 267.33 105.47 267.33 104.96L267.33 104.03L269.42 104.22C271.09 104.38 271.61 104.31 271.95 103.89C272.82 102.85 272.27 101.89 270.21 100.82C267.25 99.29 266.28 97.07 267.75 95.23C269.01 93.67 273.96 93.01 274.65 94.31C275.4 95.71 275.14 95.93 272.92 95.77C271.4 95.65 270.66 95.74 270.18 96.1C269.13 96.89 269.94 98.17 272.1 99.12C274.17 100.04 275.33 101.34 275.33 102.75C275.33 103.49 274.98 104.07 273.92 105.04C272.52 106.32 272.46 106.34 270.08 106.28C268.75 106.24 267.59 106.14 267.5 106.05ZM284.07 105.98C282.5 105.36 281.81 101.57 282.82 99.15C283.4 97.77 284.6 97.21 286.58 97.43C288.3 97.62 288.59 97.31 288.73 95.16C288.82 93.64 288.91 93.49 289.73 93.4C290.33 93.33 290.73 93.49 290.94 93.9C291.11 94.23 291.21 96.95 291.15 99.96C291.04 106.31 290.89 106.7 288.86 105.96C287.89 105.62 287.5 105.61 286.99 105.93C286.24 106.4 285.15 106.42 284.07 105.98ZM295.47 105.83C293.97 105.17 293.45 104.14 293.39 101.71C293.34 99.72 293.41 99.53 294.47 98.46C295.39 97.54 295.86 97.33 296.98 97.33C299.4 97.33 301.33 98.83 301.33 100.7C301.33 101.99 300.6 102.41 298.26 102.46C296.54 102.49 296.16 102.6 296.06 103.1C295.85 104.2 296.67 104.76 298.19 104.55C299.08 104.43 299.79 104.51 300.17 104.79C300.73 105.2 300.72 105.26 299.97 105.78C299.03 106.44 296.91 106.46 295.47 105.83ZM311.02 105.57C310.21 105.16 309.25 104.43 308.89 103.94C307.56 102.12 307.89 97.47 309.47 95.72C311.03 93.98 315.27 93.13 316.69 94.28C317.17 94.67 317.37 95.1 317.23 95.45C317.07 95.88 316.56 96 314.87 96C313.69 96 312.48 96.09 312.18 96.21C311.29 96.55 310.67 98.19 310.67 100.18C310.67 101.89 310.77 102.17 311.84 103.24C312.98 104.38 313.06 104.4 314.88 104.17C317.13 103.89 317.72 104.38 316.59 105.58C315.64 106.6 313.08 106.59 311.02 105.57ZM303.33 105.04C303.33 103.93 304.06 103.5 305.02 104.01C306.19 104.64 305.56 106 304.1 106C303.48 106 303.33 105.82 303.33 105.04ZM256.15 104.15C256.53 103.57 256.67 102.77 256.6 101.57C256.51 100.06 256.38 99.78 255.59 99.4C254.92 99.08 254.5 99.06 254.01 99.33C253.42 99.64 253.33 100.02 253.33 102.35L253.33 105L254.46 105C255.3 105 255.73 104.78 256.15 104.15ZM27.47 103.67C25.11 102.55 22 99.31 22 97.97C22 97.67 21.77 97.23 21.5 97C20.78 96.4 20.78 90.6 21.5 90C21.77 89.77 22 89.24 22 88.81C22 88.39 22.15 87.95 22.33 87.83C22.52 87.72 22.67 87.41 22.67 87.14C22.67 86.35 24.53 84.75 26.76 83.61C28.69 82.64 29.05 82.57 31.96 82.63C34.26 82.68 35.48 82.87 36.53 83.35C37.32 83.71 38.11 84 38.3 84C38.48 84 38.75 84.2 38.9 84.45C39.05 84.7 39.48 85.07 39.86 85.27C40.24 85.47 41.04 86.55 41.64 87.68C42.69 89.64 42.73 89.87 42.71 93.32C42.68 96.55 42.58 97.1 41.78 98.65C40.94 100.27 37.94 103.32 37.17 103.34C36.99 103.35 36.23 103.65 35.5 104C33.38 105.02 30.02 104.88 27.47 103.67ZM244.94 103.75C245.03 103.11 244.89 103 244.02 103C243.24 103 243 103.15 243 103.64C243 104.85 244.77 104.95 244.94 103.75ZM251 101.16L251.17 97.83L254.15 97.57C256.85 97.32 257.21 97.36 258.03 97.97C258.82 98.55 258.99 98.58 259.34 98.15C259.57 97.88 260.22 97.54 260.79 97.4C262.26 97.02 262.7 95.28 261.83 93.26C261.06 91.48 259.31 88.67 258.97 88.67C258.83 88.67 258.23 88.25 257.63 87.75C256.59 86.88 256.37 86.83 253.02 86.83C249.58 86.83 249.47 86.86 247.92 87.94C245.57 89.58 244.09 92.02 243.95 94.48C243.82 96.65 243.75 96.55 246.49 97.74C247.8 98.31 248.32 99.43 248.33 101.73C248.33 103.32 248.46 103.72 249.08 104.16C250.55 105.19 250.82 104.77 251 101.16ZM288.1 103.7C288.62 103.18 288.8 100.39 288.34 99.84C287.76 99.14 285.14 99.16 284.87 99.86C284.49 100.85 284.66 103.18 285.17 103.9C285.6 104.51 285.83 104.57 286.73 104.32C287.31 104.15 287.93 103.87 288.1 103.7ZM226.32 103.45C226.93 102.67 226.96 102.48 226.55 101.86C226.29 101.48 225.73 101.17 225.29 101.17C224.68 101.17 224.48 101.37 224.4 102.07C224.29 103.02 224.82 104.33 225.32 104.33C225.48 104.33 225.93 103.93 226.32 103.45ZM325.06 103.92C325.7 103.4 326.4 101.39 326.11 100.88C325.11 99.09 323.74 98.58 322.41 99.52C321.47 100.17 321.36 102.77 322.22 103.72C322.85 104.43 324.3 104.52 325.06 103.92ZM205.79 103.51C203.33 102.38 202.92 97 205.19 95.51C205.88 95.06 206 94.72 206 93.17C206 90.9 206.41 90.04 207.93 89.05C209.01 88.36 209.28 88.31 210.39 88.65C211.44 88.96 211.71 89.23 212.04 90.33C212.42 91.6 212.39 91.7 211.22 93.13C209.87 94.77 209.7 95.69 210.58 96.61C210.9 96.95 211.33 97.51 211.53 97.86C211.86 98.42 211.97 98.44 212.47 98.02C213 97.59 212.98 97.5 212.19 96.76C211.72 96.33 211.33 95.69 211.33 95.35C211.33 94.83 211.69 94.7 213.58 94.52C216.07 94.29 217.61 94.59 218.12 95.41C218.6 96.16 217.83 97 216.67 97C215.89 97 215.67 97.23 215.16 98.55C214.59 100.05 214.59 100.12 215.18 100.55C215.52 100.8 216.11 101 216.5 101C216.89 101 217.48 101.2 217.81 101.44C218.31 101.81 218.35 102.01 218.04 102.6C217.47 103.66 215.56 104.07 213.88 103.49C212.27 102.93 211.26 102.87 210.81 103.32C210.24 103.9 206.92 104.02 205.79 103.51ZM35.47 101.93C37.68 100.54 39.68 98.78 40.45 97.54C41.22 96.29 41.38 90.97 40.69 89.67C39.74 87.88 37.93 86.03 36.42 85.29C34.32 84.26 30.13 84.21 27.95 85.19C26.28 85.94 23.67 88.44 23.67 89.29C23.67 89.61 23.45 90.16 23.18 90.52C22.49 91.43 22.48 95.76 23.17 96.33C23.44 96.56 23.67 97.08 23.67 97.49C23.67 97.96 24.27 98.78 25.29 99.7C27.7 101.88 28.9 102.48 31.33 102.69C32.52 102.8 33.56 102.91 33.64 102.94C33.71 102.97 34.54 102.52 35.47 101.93ZM260.48 101.16C261.42 99.93 261.37 99.33 260.33 99.33C259.58 99.33 259 100.27 259 101.48C259 102.64 259.42 102.55 260.48 101.16ZM209.5 100.66C209.79 100.2 207.94 97.53 207.24 97.39C206.37 97.23 206.48 99.26 207.39 100.23C208.15 101.03 209.15 101.24 209.5 100.66ZM298.64 100.38C299.09 99.54 298.49 99 297.1 99C296.17 99 296 99.12 296 99.78C296 100.79 296.24 101 297.38 101C297.94 101 298.44 100.76 298.64 100.38ZM226.47 97.93C226.85 96.83 226.28 96 225.13 96C224.45 96 224.33 96.16 224.33 97.1C224.33 99.06 225.86 99.66 226.47 97.93ZM209.33 91.65C209.33 91.29 209.18 91 209 91C208.82 91 208.67 91.38 208.67 91.85C208.67 92.34 208.81 92.62 209 92.5C209.18 92.39 209.33 92 209.33 91.65ZM168.12 89.58C165.29 88.04 163.99 85.6 164.03 81.93C164.06 78.86 165.1 76.9 167.35 75.72C169.15 74.77 172.84 74.41 174.94 74.98C176.94 75.52 179.52 78.27 179.96 80.33C180.34 82.08 179.77 84.8 178.71 86.26C177.57 87.84 175.54 89.56 174.37 89.96C172.45 90.59 169.66 90.43 168.12 89.58ZM181.24 90.06C180.37 89.89 180.26 88.93 180.99 87.94C181.61 87.1 181.68 86.53 181.69 82.45C181.69 77.94 181.68 77.89 180.78 76.95C179.9 76.02 179.89 75.99 180.52 75.51C181.39 74.85 184.78 74.83 185.32 75.49C185.64 75.87 185.61 76.13 185.2 76.73C184.59 77.59 184.5 79.4 185.01 80.36C185.31 80.91 185.73 81 187.95 81C189.51 81 190.69 80.84 190.93 80.6C191.57 79.96 191.4 78.06 190.61 77C190.02 76.19 189.97 75.94 190.32 75.51C190.84 74.89 193.57 74.82 194.82 75.39C195.8 75.83 195.86 76.09 195.17 76.67C194.76 77 194.67 78.07 194.67 82.35C194.67 86.59 194.76 87.72 195.17 88.12C195.44 88.39 195.67 88.77 195.67 88.96C195.67 90 191.69 90.5 190.77 89.58C190.28 89.09 190.28 88.94 190.8 87.85C191.16 87.1 191.33 86.06 191.27 85.08L191.17 83.5L187.92 83.4L184.67 83.31L184.68 84.9C184.69 85.78 184.91 87.09 185.17 87.82C185.48 88.71 185.53 89.27 185.3 89.54C184.98 89.92 182.3 90.27 181.24 90.06ZM173.79 87.35C177.05 85.95 177.68 80.95 174.92 78.4C174.34 77.87 173.52 77.57 172.29 77.45C168.79 77.1 167.53 78.34 167.51 82.15C167.5 84.3 167.6 84.65 168.46 85.69C169.39 86.81 171.11 87.96 171.89 87.99C172.1 87.99 172.96 87.71 173.79 87.35ZM275.89 51.17C275.02 50.31 275.21 49.73 276.92 48C279.95 44.93 280.72 43.36 279.81 42.06C279.17 41.15 278.29 41.13 277.49 42.01C276.69 42.89 275.53 42.74 275.39 41.74C275.27 40.86 276.94 39.11 278.22 38.79C279.32 38.51 281.84 39.52 282.66 40.57C283.86 42.09 283.34 44.22 281.22 46.47C279.53 48.25 279.62 48.67 281.67 48.67C283.14 48.67 283.39 48.77 283.73 49.51C284.42 51.01 283.51 51.48 279.71 51.61C277.01 51.71 276.34 51.63 275.89 51.17ZM251.05 45.98C248.82 45.54 247.62 44.65 246.34 42.49C245.26 40.65 245.17 40.31 245.23 38.04C245.28 35.98 245.44 35.34 246.24 34.05C247.39 32.19 249.17 31.12 251.66 30.78C254.06 30.46 255.48 30.56 257.4 31.19C258.84 31.67 259.03 31.66 259.82 31.14C260.49 30.71 261.12 30.62 262.55 30.77C263.57 30.87 264.49 31.04 264.59 31.14C264.69 31.25 264.6 31.91 264.39 32.62C263.89 34.29 263.89 36.43 264.4 36.93C264.63 37.16 265.74 37.33 267.02 37.33C268.71 37.33 269.35 37.2 269.73 36.75C270.6 35.75 270.68 34.62 269.98 33.04C269.54 32.06 269.43 31.44 269.65 31.22C270.2 30.67 273.43 30.56 274.1 31.06C274.66 31.48 274.66 31.58 274.15 32.6C273.33 34.25 273.56 43.63 274.45 44.61C274.79 44.99 274.98 45.43 274.88 45.6C274.61 46.03 271.89 46.36 270.64 46.11C269.33 45.85 269.08 45.19 269.82 43.93C270.46 42.85 270.65 39.85 270.11 39.31C269.92 39.12 268.54 39.01 266.97 39.07L264.17 39.17L264.07 41.09C264 42.42 264.13 43.23 264.48 43.74C265.09 44.61 265.15 45.53 264.62 45.86C264.41 45.99 263.3 46.16 262.15 46.23C260.38 46.34 259.96 46.26 259.44 45.7C258.83 45.05 258.81 45.05 256.5 45.69C254.01 46.38 253.3 46.42 251.05 45.98ZM285.33 45.83C285.08 45.53 285.01 44.91 285.13 44.25C285.24 43.65 285.34 41.02 285.35 38.41C285.37 34.63 285.27 33.52 284.85 32.93C283.5 30.99 284.45 30.56 289.4 30.88C292.76 31.1 292.86 31.13 293.92 32.24C295.19 33.58 295.23 33.88 294.29 35.67L293.58 37.03L294.25 37.77C296.01 39.71 296.11 41.36 294.58 43.37C292.97 45.48 291.88 45.99 288.57 46.17C286.35 46.28 285.65 46.21 285.33 45.83ZM296.48 46.03C296.15 45.71 296.39 44.12 296.84 43.52C297.15 43.11 297.33 42.11 297.33 40.82C297.33 39.19 297.2 38.65 296.67 38.17C295.72 37.31 295.84 36.43 296.98 35.84C298.14 35.24 299.06 35.19 299.56 35.7C299.83 35.96 300.12 35.96 300.61 35.7C301.78 35.07 302.94 35.26 303.54 36.18C304.32 37.37 303.73 38.67 302.41 38.67C301.9 38.67 301.15 38.9 300.74 39.19C299.64 39.96 299.71 42.33 300.87 43.85C301.84 45.13 301.74 45.97 300.59 46.05C298.77 46.17 296.61 46.16 296.48 46.03ZM260.74 38.33C260.71 33.62 260.5 32.67 259.47 32.67C259.22 32.67 258.92 33.03 258.81 33.48C258.7 33.92 258.35 34.52 258.03 34.81C257.49 35.29 257.38 35.26 256.62 34.41C256.17 33.9 255.17 33.28 254.42 33.03C253.02 32.57 252.37 32.71 250 33.96C249.09 34.45 248.5 36.12 248.5 38.23C248.5 40.25 248.53 40.32 250.07 41.79C251.9 43.55 253.15 43.89 255.74 43.35C257.8 42.93 258.55 43.1 258.86 44.07C259.06 44.73 259.1 44.72 259.92 43.9C260.76 43.06 260.77 42.96 260.74 38.33ZM29.43 43.73L27.36 43.64L27.53 37.83C27.7 32.23 27.67 31.98 26.94 30.69C25.92 28.92 26.33 28.52 29.27 28.44C33.02 28.33 34.71 28.66 35.75 29.69C36.8 30.75 37.04 32.95 36.17 33.67C35.62 34.12 35.48 35.33 35.97 35.33C36.13 35.33 36.68 36.03 37.18 36.89L38.09 38.44L37.3 39.9C35.67 42.88 33.52 43.93 29.43 43.73ZM38.56 43.51C37.86 42.82 37.86 42.52 38.54 41.49C38.83 41.04 39.15 39.73 39.24 38.58C39.39 36.66 39.34 36.44 38.54 35.69C38.06 35.25 37.67 34.76 37.67 34.62C37.67 34.03 39.65 33.38 41.52 33.35C42.61 33.33 43.93 33.29 44.45 33.28C45.59 33.23 46.04 33.81 45.92 35.17C45.84 36.11 45.74 36.17 44.28 36.27C42.91 36.36 42.68 36.48 42.4 37.3C41.98 38.49 42.28 41.21 42.88 41.7C43.37 42.11 43.5 43.19 43.08 43.45C42.95 43.53 42 43.7 40.97 43.83C39.47 44.02 39 43.96 38.56 43.51ZM292.04 41.67C292.35 40.19 292.14 39.76 290.8 39.13C288.96 38.26 288.54 38.66 288.78 41.04C288.9 42.15 289.07 43.18 289.17 43.34C289.27 43.5 289.9 43.43 290.58 43.2C291.58 42.85 291.86 42.56 292.04 41.67ZM32.91 41C33.53 41 34.41 39.03 34.19 38.14C33.95 37.17 32.93 36.59 31.73 36.73C30.89 36.83 30.83 36.96 30.73 38.63C30.6 40.95 30.8 41.46 31.75 41.21C32.16 41.1 32.68 41.01 32.91 41ZM290.9 35.61C291.32 35.21 291.67 34.69 291.67 34.45C291.67 33.88 290.59 33.33 289.48 33.33C288.72 33.33 288.62 33.44 288.79 34.08C288.9 34.5 288.99 35.17 289 35.58C289 36.55 289.88 36.57 290.9 35.61ZM33.32 32.9C33.8 32.03 33.79 31.93 33.17 31.47C32.8 31.19 32.13 31.02 31.67 31.07C30.94 31.15 30.82 31.35 30.73 32.61L30.63 34.05L31.72 33.94C32.51 33.86 32.95 33.58 33.32 32.9ZM121.56 2.78C121.19 2.41 121.32 1.21 121.8 0.58C122.33 -0.12 125.67 -0.27 125.67 0.4C125.67 0.71 125.76 0.71 126.07 0.4C126.7 -0.23 128.59 -0.08 129.33 0.67C130.17 1.51 130.18 2.21 129.36 2.65C128.65 3.03 121.92 3.14 121.56 2.78Z" fill="#1e2749" fill-rule="evenodd"/>
</svg>
