<?xml version="1.0" encoding="UTF-8"?>
<svg xmlns="http://www.w3.org/2000/svg" viewBox="0 0 685 312" width="685" height="312" shape-rendering="geometricPrecision">
<path d="M425.42 277.45C425.19 277.35 425 276.92 425 276.47C425 275.71 425.11 275.67 426.96 275.67C428.35 275.67 429.05 275.82 429.36 276.2C429.74 276.66 429.71 276.81 429.17 277.2C428.56 277.65 426.28 277.8 425.42 277.45ZM422.07 271.93C421.53 271.4 421.56 270.45 422.12 270.23C422.37 270.14 424.69 270.14 427.28 270.25C431.37 270.41 432 270.51 432 270.98C432 272.15 431.3 272.33 426.83 272.33C423.88 272.33 422.34 272.2 422.07 271.93ZM418 267.17C417.78 266.9 417.68 266.45 417.79 266.17C417.94 265.76 418.68 265.67 421.6 265.67C424.69 265.67 425.31 265.58 425.78 265.06C426.28 264.51 426.33 263.06 426.33 251.19C426.33 239.47 426.27 237.8 425.77 236.76C425.24 235.63 425.24 235.56 425.85 235.12C426.19 234.86 427.07 234.49 427.78 234.3C428.5 234.11 429.33 233.83 429.63 233.68C429.92 233.53 430.58 233.24 431.08 233.04C431.59 232.84 432 232.54 432 232.36C432 232.19 430.72 231.25 429.15 230.27C422.25 225.98 419.33 224 419.34 223.6C419.35 222.82 419.81 222.44 422 221.42C428.82 218.25 432.03 216.58 431.92 216.26C431.85 216.06 430.46 215.2 428.82 214.35C420.59 210.08 419.67 209.55 419.48 208.94C419.28 208.32 419.81 207.33 420.34 207.33C420.85 207.33 431.67 201.97 431.67 201.72C431.67 201.58 428.88 200.52 425.47 199.37C417.99 196.84 417.02 196.45 416.79 195.85C416.57 195.26 417.23 194 417.76 194C418.46 194 427.48 189.34 427.92 188.76C428.39 188.13 428.52 173.15 428.06 172.42C427.86 172.1 402.68 172.01 310.11 171.99C180.74 171.97 190.79 172.14 191.59 169.92C191.91 169.05 191.93 166.93 191.68 160.64C191.41 153.65 191.2 143.75 191.3 142.42C191.33 142.11 193.64 141.99 201.08 141.92L210.83 141.83L210.83 126.17L210.83 110.5L190.92 110.41L171 110.33L171 120.42C171 129.02 170.92 130.63 170.48 131.26L169.96 132L156.64 132L143.33 132L143.41 146.42L143.5 160.83L147.47 161C151.47 161.17 152.24 161.45 151.16 162.33C150.76 162.67 148.62 162.77 141.96 162.76C134.62 162.75 133.19 162.67 132.76 162.24C131.79 161.27 132.59 161 136.5 161C140.04 161 140.33 160.95 140.81 160.26C141.26 159.62 141.33 157.75 141.33 146.51C141.33 139.35 141.23 133.16 141.12 132.75L140.92 132L128.31 132C116.17 132 115.68 131.98 115.35 131.36C114.93 130.59 114.86 94.4 115.27 93.75C115.47 93.44 118.67 93.32 128.68 93.25L141.83 93.17L141.71 66.17C141.65 51.32 141.53 39.05 141.45 38.92C141.36 38.78 131.32 38.67 119.14 38.67L96.98 38.67L96.64 39.58C95.92 41.49 93.47 43.33 91.67 43.33C89.86 43.33 87.73 41.75 87.02 39.89C86.49 38.49 86.59 37.03 87.33 35.51C88.18 33.75 89.47 33 91.68 33C93.66 33 95.14 33.75 96.13 35.26L96.76 36.22L159.77 36.44C194.42 36.57 246.21 36.67 274.84 36.67L326.91 36.67L327.75 37.92C328.21 38.6 328.96 40.22 329.42 41.5C329.88 42.78 330.81 45.41 331.5 47.33C332.18 49.26 332.85 51.13 333 51.5C333.71 53.29 335.33 57.9 335.33 58.13C335.33 58.28 335.54 58.87 335.8 59.45C336.05 60.03 336.6 61.48 337.01 62.67C338.39 66.64 337.68 66.33 345.42 66.33C350.13 66.32 352.4 66.2 352.94 65.91C353.54 65.59 354.44 63.7 356.86 57.67C358.58 53.36 360 49.57 360 49.26C360 48.9 359.65 48.59 359.08 48.46C358.07 48.21 356.33 47.1 356.33 46.7C356.33 46.55 357.51 45.45 358.95 44.23C360.38 43.02 362.64 40.97 363.96 39.68L366.37 37.33L457.04 37.33C515.21 37.33 547.93 37.22 548.32 37.01C548.65 36.83 549.01 36.32 549.13 35.88C549.24 35.44 549.88 34.59 550.55 34C551.71 32.98 551.88 32.94 554.04 33.06C555.98 33.17 556.45 33.32 557.28 34.12C557.82 34.63 558.52 35.64 558.85 36.36C559.34 37.46 559.38 37.88 559.05 38.96C558.54 40.67 557.54 41.88 555.98 42.68C554.36 43.5 553.31 43.51 551.71 42.69C550.39 42.02 549.76 41.4 549.17 40.21L548.81 39.5L530.49 39.41C520.41 39.36 511.87 39.39 511.5 39.48C510.84 39.64 510.83 39.88 510.92 66.11C511.01 91.03 510.98 92.61 510.42 93.28C510.1 93.67 507.83 94.96 505.39 96.16C502.95 97.36 501 98.5 501.06 98.69C501.16 98.98 509.05 101.88 512.92 103.04C513.52 103.22 514.25 103.73 514.54 104.18C515.46 105.58 514.6 106.31 508.69 109.19C505.74 110.62 503.33 111.91 503.33 112.05C503.33 112.41 504.14 112.89 509.02 115.41C514.31 118.15 514.59 118.33 514.79 119.1C515.19 120.63 514.5 121.19 508.84 123.98C505.1 125.82 503.33 126.86 503.4 127.18C503.45 127.44 505.96 129.2 508.97 131.08C515.09 134.91 515.75 135.66 514.32 137.18C513.9 137.63 513.25 138.08 512.86 138.2C512.48 138.31 511.72 138.61 511.17 138.85C510.62 139.09 509.6 139.52 508.91 139.8L507.66 140.3L507.75 154.73L507.83 169.17L511.76 169.26C514.87 169.33 515.74 169.46 515.89 169.85C515.99 170.12 515.89 170.56 515.66 170.84C515.32 171.25 513.82 171.33 506.29 171.33L497.33 171.33L497.33 170.33L497.33 169.33L501.13 169.33C503.97 169.33 505.02 169.22 505.31 168.87C505.59 168.53 505.68 164.45 505.65 153.82C505.62 142.08 505.7 139.16 506.06 138.83C506.3 138.61 507.66 138.01 509.08 137.5C513.26 136.01 513.26 136.12 509.12 133.52C507.13 132.27 504.26 130.49 502.75 129.58C500.38 128.15 500 127.79 500 127C500 126.2 500.29 125.95 502.42 124.91C503.75 124.27 506.6 122.88 508.75 121.84C510.9 120.79 512.66 119.84 512.66 119.72C512.66 119.6 509.85 118.05 506.41 116.28C500.52 113.25 500.17 113.01 500.17 112.12C500.17 111.22 500.48 111.01 505.98 108.31C509.18 106.73 511.85 105.29 511.91 105.1C511.97 104.91 511.46 104.6 510.76 104.41C507.42 103.48 497.87 100.02 497.42 99.56C497.14 99.28 497 98.82 497.11 98.53C497.22 98.25 499.6 96.87 502.4 95.47C505.21 94.08 507.84 92.62 508.25 92.24L509 91.55L509 65.64C509 42.33 508.95 39.72 508.47 39.54C507.5 39.16 434.39 39.3 434.16 39.68C434.04 39.87 433.8 48.9 433.62 59.76C433.35 75.62 433.2 79.6 432.83 80C432.58 80.27 430.27 81.55 427.69 82.82C425.11 84.1 423 85.3 423 85.49C423.01 85.68 426.18 86.88 430.06 88.17C433.94 89.45 437.43 90.75 437.81 91.05C438.45 91.57 438.46 91.64 437.93 92.22C437.63 92.56 434.74 94.11 431.51 95.67C427.57 97.57 425.68 98.65 425.74 98.97C425.82 99.36 430.26 101.84 437 105.24C439.27 106.39 438.79 106.86 431.76 110.33C428.24 112.08 425.35 113.67 425.35 113.89C425.34 114.1 428.26 116.11 431.83 118.34C435.41 120.58 438.33 122.61 438.33 122.85C438.33 123.33 436.78 124.67 436.22 124.67C436.03 124.67 434.62 125.14 433.1 125.71L430.33 126.76L430.33 158.19L430.33 189.63L429.25 190.43C428.65 190.87 426.55 192.04 424.57 193.02C420.69 194.94 420.26 195.54 422.34 196.16C422.98 196.35 423.65 196.58 423.83 196.69C424.02 196.79 426.68 197.69 429.75 198.69C435.27 200.48 436.13 200.98 435.48 202.04C435.35 202.25 432.49 203.75 429.12 205.39C425.75 207.03 423 208.55 423 208.77C423 208.99 423.71 209.51 424.58 209.92C425.45 210.34 428.27 211.77 430.83 213.11C437.44 216.55 437.56 216.23 427.92 220.83C425.03 222.21 422.67 223.47 422.67 223.64C422.67 223.81 424.13 224.84 425.92 225.93C432.28 229.8 435.17 231.69 435.5 232.17C436.03 232.96 434.81 233.85 431.5 235.07L428.5 236.19L428.41 250.47C428.35 260.74 428.43 264.88 428.7 265.21C428.98 265.55 430.05 265.67 432.72 265.67C435.78 265.67 436.39 265.75 436.56 266.21C437.06 267.5 435.96 267.67 426.98 267.67C419.81 267.67 418.35 267.59 418 267.17ZM335.75 227.45C335.13 227.2 335.25 226.07 335.92 225.87C336.24 225.77 337.55 225.8 338.83 225.93L341.17 226.17L340.42 226.92C339.82 227.51 339.31 227.66 337.92 227.64C336.95 227.63 335.98 227.54 335.75 227.45ZM337.33 224.69C337.33 224.51 337.47 224.29 337.65 224.18C338.09 223.9 339 222 339 221.33C339 221.02 338.7 220.5 338.33 220.17C337.77 219.65 337.53 219.62 336.79 219.96C335.69 220.46 335.43 220.22 335.99 219.19C336.76 217.74 338.78 217.79 340.13 219.29C341.07 220.34 340.66 222.14 339.11 223.72C337.87 224.99 337.33 225.28 337.33 224.69ZM323.42 224.34C322.49 223.95 322.47 223.55 323.33 222.96C324.24 222.32 326.42 214.81 326.43 212.25L326.44 210.33L328.5 210.33C334.32 210.33 336.38 213.72 332.5 216.91C331.35 217.86 331.27 218.04 331.48 219.15C331.79 220.81 332.9 223.33 333.32 223.33C334.01 223.33 333.65 224.02 332.79 224.35C331.36 224.89 330.59 224.11 329.73 221.24C328.99 218.77 328.33 217.76 327.72 218.13C327.55 218.24 327.15 219.3 326.82 220.49C326.34 222.27 326.31 222.74 326.67 223.17C326.96 223.52 326.99 223.81 326.77 224.03C326.28 224.52 324.28 224.7 323.42 224.34ZM366.69 224.37C365.69 224.1 365.48 223.57 366.16 223.01C366.9 222.39 366.91 213.28 366.17 212.67C365.36 212 365.58 211.36 366.82 210.77C368.86 209.8 369 210.19 369 216.97C369 221.11 369.12 222.99 369.4 223.27C370.16 224.03 368.28 224.79 366.69 224.37ZM375.51 223.95C374.02 222.78 373.24 220.56 373.24 217.49C373.23 213.08 374.98 210.33 377.79 210.33C380.17 210.33 382.33 213.75 382.33 217.5C382.33 222.58 378.44 226.25 375.51 223.95ZM389.05 224.31C388.45 224.07 388.33 223.86 388.55 223.41C388.98 222.53 389.1 211.97 388.68 211.55C387.91 210.78 388.33 210.33 389.83 210.33L391.33 210.33L391.33 214.17C391.33 216.28 391.46 218 391.62 218C391.99 218 393.01 216.85 393.48 215.91C393.88 215.09 395.3 214.76 396.21 215.27C396.7 215.54 396.65 215.66 395.8 216.19C394.16 217.21 393.33 218.09 393.33 218.81C393.34 219.19 394.19 220.46 395.23 221.62C397.02 223.63 397.09 223.77 396.5 224.21C396.15 224.46 395.63 224.67 395.34 224.67C394.62 224.67 393.33 223.73 393.33 223.19C393.33 222.65 392.06 221 391.64 221C391.21 221 391.25 222.79 391.69 223.23C391.95 223.49 391.84 223.74 391.29 224.13C390.42 224.73 390.16 224.76 389.05 224.31ZM398.58 224.31C397.97 223.95 397.82 222.8 398.3 222.05C398.52 221.69 398.73 221.68 399.32 221.99C399.72 222.21 400.28 222.3 400.56 222.19C400.97 222.03 400.88 221.78 400.07 220.87C398.62 219.21 398.12 216.81 398.81 214.75C399.54 212.54 400.14 211.77 401.75 211C403.48 210.16 406.9 210.1 408.43 210.87C412.56 212.95 413.59 217.77 410.53 220.64C409.23 221.86 409.4 222.36 411.07 222.26C412.2 222.18 412.5 222.28 412.6 222.77C412.84 223.94 411.73 224.67 409.7 224.66C406.91 224.66 406.33 224.42 406.33 223.31C406.33 222.7 406.79 221.85 407.65 220.86C409.82 218.35 409.91 214.68 407.85 212.49C406.96 211.55 406.51 211.33 405.45 211.33C402.85 211.33 401.67 213.02 401.67 216.73C401.67 218.57 401.83 219.43 402.33 220.25C402.69 220.85 403.14 221.33 403.32 221.33C403.5 221.33 403.9 221.81 404.2 222.4C404.73 223.42 404.72 223.48 404 224.06C403.17 224.74 399.61 224.9 398.58 224.31ZM378.82 222.57C380.49 220.01 379.88 212.1 377.95 211.48C377.04 211.19 376.74 211.52 376.18 213.41C375.29 216.39 375.6 221.44 376.76 222.92C377.27 223.57 378.27 223.4 378.82 222.57ZM347.25 219.64C346.93 219.45 346.67 219.08 346.67 218.82C346.67 218.42 347.54 218.33 351.81 218.33C357.08 218.33 358.13 218.59 356.82 219.55C356.08 220.1 348.16 220.17 347.25 219.64ZM331.41 215.21C332.19 214.25 332.14 213.36 331.28 212.44C330.09 211.17 329.43 211.43 328.85 213.39C328.3 215.22 328.2 216.42 328.54 216.76C328.85 217.07 330.74 216.05 331.41 215.21ZM347.25 216.44C346.93 216.35 346.67 216 346.67 215.64C346.67 215.04 346.95 215 351.81 215C357.08 215 358.13 215.26 356.82 216.22C356.37 216.54 355.06 216.66 352.02 216.63C349.72 216.61 347.57 216.52 347.25 216.44ZM505.06 181.31C504.51 181.09 504.32 180.78 504.39 180.25C504.49 179.6 504.73 179.49 506.18 179.4C507.51 179.32 507.99 179.44 508.46 179.95C509.02 180.57 509.01 180.62 508.28 181.13C507.44 181.72 506.24 181.79 505.06 181.31ZM503.17 176.03C501.31 175.85 501.17 175.77 501.17 175L501.17 174.17L505.84 174.07C509.4 174 510.67 174.09 511.14 174.44C511.75 174.89 511.75 174.92 511.05 175.62C510.43 176.24 509.99 176.33 507.75 176.28C506.33 176.25 504.27 176.13 503.17 176.03ZM140.73 172.62C139.95 172.4 139.66 172.13 139.73 171.73C139.89 170.89 143.91 170.71 144.23 171.53C144.36 171.89 144.21 172.26 143.82 172.55C143.12 173.06 142.32 173.08 140.73 172.62ZM427.9 169.58C428.05 169.35 428.17 159.36 428.17 147.37C428.17 128.34 428.23 125.54 428.67 125.31C428.94 125.16 430.36 124.6 431.82 124.07C433.27 123.54 434.52 122.95 434.58 122.77C434.64 122.59 432.21 120.9 429.18 119.02C426.15 117.14 423.3 115.31 422.84 114.94C421.12 113.6 421.53 113.21 428.21 109.91C431.63 108.22 434.43 106.69 434.42 106.5C434.42 106.15 433.8 105.8 426.91 102.26C423.25 100.38 422.28 99.73 422.11 99.07C421.87 98.1 421.47 98.36 428 95.16C433.91 92.26 434.43 91.98 434.24 91.8C434.16 91.72 431.86 90.9 429.13 89.98C419.66 86.78 418.76 86.35 419.19 85.22C419.31 84.93 421.6 83.61 424.28 82.3C426.97 80.99 429.63 79.57 430.2 79.15L431.24 78.37L431.54 63.27C431.7 54.96 431.83 46.22 431.83 43.83L431.83 39.5L399.52 39.41C381.75 39.37 367.08 39.45 366.93 39.6C366.78 39.75 366.8 40.99 366.98 42.36C367.15 43.72 367.34 46.16 367.4 47.79C367.52 51.36 367.16 51.85 365.15 50.89C364.48 50.57 363.68 50.39 363.37 50.49C363.01 50.6 361.8 53.2 359.91 57.93C358.31 61.93 357 65.38 357 65.59C357 66.24 358.54 66.44 362.15 66.25C364.02 66.16 365.8 66.22 366.11 66.39C366.82 66.79 366.83 68.27 366.12 69.06C365.6 69.62 364.83 69.67 355.5 69.67L345.44 69.67L345.22 88.22C345.1 98.43 345 111.14 345 116.48C345 124.72 344.92 126.3 344.48 126.93L343.96 127.67L307.06 127.66L270.17 127.66L241.07 142.19C224.9 150.27 211.76 156.65 211.49 156.54C211.08 156.39 211 155.29 211 150.09L211 143.83L202.42 143.94C197.7 144 193.72 144.16 193.57 144.3C193.43 144.44 193.44 150.14 193.6 156.98C193.84 167.05 193.98 169.45 194.36 169.69C194.64 169.86 243.81 169.99 311.23 169.99C403.99 170 427.68 169.92 427.9 169.58ZM139.17 167.37C136.6 167.17 136.5 167.14 136.5 166.33L136.5 165.5L141.13 165.41C144.95 165.33 145.9 165.41 146.58 165.86C147.35 166.36 147.37 166.44 146.87 166.94C146.26 167.55 143.51 167.71 139.17 167.37ZM239.82 140.05C253.92 132.97 265.5 127.02 265.55 126.83C265.62 126.54 214.61 100.88 213.9 100.85C213.75 100.84 213.62 112.46 213.62 126.67C213.62 155.77 213.59 153.01 213.92 152.97C214.05 152.95 225.71 147.14 239.82 140.05ZM215.08 146.66C214.2 146.3 214.05 144.85 214.86 144.54C215.15 144.42 217.09 144.33 219.17 144.33C222.21 144.33 223.06 144.44 223.49 144.87C224.82 146.2 223.11 147 219 146.97C217.26 146.97 215.5 146.82 215.08 146.66ZM168.6 129.6C168.9 129.3 169 125.03 169 112.44L169 95.68L168.25 95.5C167.84 95.4 156.17 95.36 142.33 95.41L117.17 95.5L117.08 112.33C117.03 121.59 117.07 129.35 117.15 129.58C117.38 130.18 168.01 130.19 168.6 129.6ZM155.14 125.88C154.95 125.4 155.1 124.57 155.96 121.19C156.17 120.34 156.18 119.66 155.97 119.27C155.71 118.8 155.97 118.25 157.25 116.61C158.91 114.47 160.1 113.78 161.51 114.14C162.42 114.37 162.58 115.05 161.86 115.64C161.54 115.91 161.32 115.92 161.18 115.68C160.7 114.91 159.67 115.34 159.17 116.54C158.9 117.2 158.76 117.88 158.86 118.04C158.97 118.21 158.75 118.98 158.39 119.76C158.02 120.53 157.62 121.77 157.5 122.5C157.08 125.06 155.62 127.14 155.14 125.88ZM538 125.56C538 125.14 538.16 124.64 538.35 124.45C538.77 124.03 539.66 120.74 539.9 118.75C540.06 117.38 540.11 117.33 541.24 117.33C542.2 117.33 542.38 117.44 542.23 117.92C541.88 119.01 540.95 122.16 540.6 123.42C540.07 125.32 540.6 125.78 542.51 125.08C544.09 124.49 544.69 124.69 544.12 125.6C543.83 126.05 543.18 126.18 540.88 126.24C538.09 126.31 538 126.29 538 125.56ZM342.66 125.17C343.03 124.73 342.93 106.79 342.42 82.17L342.17 69.83L333.03 69.74C326.97 69.69 323.74 69.53 323.44 69.29C322.98 68.9 322.86 67.75 323.2 66.86C323.38 66.41 324.19 66.33 328.83 66.33C333.24 66.33 334.33 66.24 334.67 65.83C334.95 65.5 334.97 65.2 334.75 64.92C334.57 64.69 334.09 63.52 333.69 62.33C332.92 60.02 331.11 54.94 330.67 53.83C330.19 52.64 325.69 39.85 325.47 39.08C325.38 38.75 306.89 38.67 234.46 38.67L143.56 38.67L143.8 65.74C143.98 86.08 144.14 92.88 144.44 93.07C144.65 93.21 150.57 93.33 157.57 93.33C169.82 93.33 170.32 93.36 170.65 93.98C170.86 94.36 171 97.32 171 101.26L171 107.89L178.05 108.11C190.35 108.5 210.15 108.39 210.6 107.93C210.88 107.66 211 105.96 211 102.45C211 99.31 211.13 97.29 211.34 97.16C211.53 97.04 224.55 103.37 240.26 111.22L268.83 125.5L305 125.67C324.89 125.76 341.42 125.78 341.74 125.71C342.05 125.65 342.47 125.4 342.66 125.17ZM148.67 125C148.22 124.55 148 123.89 148 122.98C148 120.4 149.58 118.54 152.1 118.18C154.68 117.81 155.51 119.09 153.75 120.73C152.61 121.8 151.58 122.33 150.69 122.33C150.23 122.33 150 122.55 150 122.99C150 123.83 150.92 124.32 152.09 124.1C153.2 123.88 153.29 124.43 152.26 125.15C151.22 125.88 149.47 125.8 148.67 125ZM141.79 124C141.91 123.27 142.23 122.01 142.51 121.2C142.78 120.39 142.91 119.48 142.79 119.17C142.39 118.14 143.91 117.63 144.78 118.49C145.21 118.92 145.32 118.92 145.67 118.49C146.21 117.85 147.63 117.86 147.88 118.5C148.18 119.28 147.37 120 146.21 120.01C145.12 120.01 145.08 120.08 143.31 124.58C143.13 125.04 142.73 125.33 142.3 125.33C141.65 125.33 141.6 125.21 141.79 124ZM526.42 123.34C525.5 122.95 525.46 122.47 526.29 122.02C526.63 121.84 527.07 121.12 527.26 120.43C527.46 119.73 528.08 117.52 528.65 115.5C529.37 112.92 529.62 111.46 529.48 110.58L529.27 109.33L531.22 109.34C537.32 109.34 539.51 112.7 535.5 115.9C534.81 116.45 534.33 117.13 534.33 117.55C534.33 118.62 535.72 122.04 536.23 122.24C536.93 122.51 536.74 122.99 535.79 123.35C534.36 123.89 533.59 123.11 532.73 120.24C531.99 117.77 531.33 116.76 530.72 117.13C530.55 117.24 530.15 118.3 529.82 119.49C529.34 121.27 529.31 121.74 529.67 122.17C529.96 122.52 529.99 122.81 529.77 123.03C529.28 123.52 527.28 123.7 526.42 123.34ZM130.26 121.92C130.17 121.69 130.23 120.38 130.37 119C131.29 110.29 131.41 108.26 131.04 107.46C130.43 106.11 130.57 106 132.83 106C134.02 106 135 106.13 135 106.28C135 106.44 134.79 107 134.53 107.53C134.16 108.29 133.33 114.57 133.33 116.6C133.33 117.42 133.94 116.95 135.06 115.25C135.69 114.29 137.07 112.25 138.13 110.73C139.74 108.39 140.01 107.8 139.83 106.98L139.61 106L141.45 106C143.62 106 144.09 106.45 142.74 107.23C141.8 107.77 135.68 115.59 133.61 118.89C132.55 120.58 131.04 122.33 130.64 122.33C130.51 122.33 130.34 122.15 130.26 121.92ZM152.13 120.37C153.14 119.32 152.88 118.81 151.57 119.31C150.73 119.63 150.19 120.5 150.52 121.03C150.82 121.52 151.16 121.39 152.13 120.37ZM219 116.19C219 114.41 218.72 114 217.49 114C215.96 114 215.33 113.7 215.33 112.96C215.33 112.47 215.58 112.33 216.43 112.33C218.13 112.33 219 111.54 219 109.98C219 109.06 219.14 108.67 219.48 108.67C220.14 108.67 220.44 109.24 220.4 110.45C220.36 111.86 220.86 112.33 222.35 112.33C223.05 112.33 223.72 112.48 223.82 112.65C224.15 113.18 222.49 114.05 221.58 113.82C220.89 113.65 220.72 113.76 220.53 114.49C220.41 114.97 220.4 115.5 220.51 115.68C220.79 116.13 220.05 117.33 219.49 117.33C219.15 117.33 219 116.97 219 116.19ZM534.41 114.21C535.19 113.25 535.14 112.36 534.28 111.44C533.09 110.17 532.43 110.43 531.85 112.39C531.3 114.22 531.2 115.42 531.54 115.76C531.85 116.07 533.74 115.05 534.41 114.21ZM405.31 115.17C405.3 115.08 405.29 113.2 405.29 111C405.29 108.8 405.3 106.85 405.31 106.67C405.34 106.19 406.52 106.26 406.94 106.76C407.33 107.23 407.55 114.38 407.19 114.97C406.97 115.33 405.36 115.5 405.31 115.17ZM391.75 112.33C391 112.02 390.71 111.33 391.32 111.33C391.78 111.33 392.52 109.81 393.11 107.66C393.39 106.65 393.94 104.71 394.33 103.33C394.8 101.7 394.99 100.4 394.86 99.58L394.66 98.33L396.78 98.33C400.65 98.33 402.67 99.51 402.67 101.76C402.67 102.84 402.44 103.3 401.42 104.32C400.73 105 399.98 105.63 399.74 105.7C399.15 105.89 400.51 110.16 401.44 111.02C402.18 111.72 402 112.11 400.77 112.48C399.68 112.81 398.85 111.78 397.99 109.04C397.25 106.7 396.64 105.77 396.07 106.12C395.91 106.23 395.51 107.29 395.18 108.49C394.7 110.27 394.67 110.77 395.01 111.18C395.27 111.49 395.32 111.81 395.14 111.99C394.65 112.46 392.56 112.67 391.75 112.33ZM398.36 104.32C400.33 103.32 400.88 101.54 399.6 100.35C398.41 99.23 397.81 99.48 397.21 101.31C396.68 102.91 396.48 105 396.85 105C396.95 105 397.63 104.69 398.36 104.32ZM184.17 102.92C184.09 102.69 183.98 102.05 183.93 101.5C183.83 100.51 183.81 100.5 181.5 100.33C178.8 100.14 178.22 99.87 178.41 98.86C178.49 98.46 179.88 96.15 181.5 93.72C184.13 89.79 184.55 89.31 185.31 89.4L186.17 89.5L186.26 93.74C186.34 97.57 186.42 98.02 187.01 98.34C187.85 98.79 187.85 99.55 187 100C186.54 100.24 186.33 100.7 186.33 101.45C186.33 102.04 186.15 102.71 185.93 102.93C185.41 103.46 184.35 103.45 184.17 102.92ZM199.88 102.52C199.58 102.07 199.33 101.6 199.33 101.49C199.33 101.32 198.96 100.42 197.67 97.5C197.51 97.13 196.92 95.81 196.35 94.56C195.79 93.31 195.33 92.18 195.33 92.06C195.32 91.94 195.03 91.46 194.67 91C193.56 89.58 193.78 89.33 196.08 89.42L198.17 89.5L198.06 90.68C197.97 91.79 198.27 92.7 199.95 96.4C200.35 97.26 200.67 98.13 200.67 98.34C200.67 98.55 200.91 98.67 201.2 98.61C201.52 98.54 202.07 97.6 202.54 96.33C202.99 95.14 203.59 93.66 203.88 93.04C204.23 92.29 204.34 91.48 204.2 90.62L203.99 89.33L205.44 89.33C207.2 89.33 207.44 89.53 206.83 90.45C206.58 90.85 205.9 92.29 205.33 93.67C204.76 95.04 204.09 96.62 203.86 97.17C203.62 97.72 203.21 98.68 202.96 99.31C202.1 101.44 201.17 103.13 200.8 103.25C200.59 103.31 200.18 102.98 199.88 102.52ZM183.6 97.93C184.15 97.39 184.15 93.23 183.6 93.41C182.92 93.64 180.59 97.31 180.79 97.84C181.02 98.44 183.03 98.51 183.6 97.93ZM580.14 49.24C579.19 48.72 579.01 48.32 579.01 46.67C579 44.14 580.4 42.59 583.02 42.2C586.72 41.66 587.59 45.47 584.45 48.37C583.39 49.35 581.16 49.8 580.14 49.24ZM587.85 49.22C587.28 48.8 587.28 48.68 587.79 46.61C588.1 45.4 588.25 43.98 588.13 43.4C587.95 42.48 588.02 42.34 588.82 42.14C589.43 41.99 589.89 42.08 590.24 42.43C590.7 42.89 590.68 43.16 590.04 45.19C589.41 47.21 589.39 47.51 589.84 48C590.29 48.5 590.27 48.62 589.73 49.11C588.99 49.78 588.65 49.8 587.85 49.22ZM591.31 48.89C590.45 48.13 590.41 47.59 591.16 46.67C591.38 46.39 591.9 45.3 592.32 44.25C592.87 42.85 593.25 42.33 593.72 42.33C594.63 42.33 594.76 42.99 594.18 44.64C593.9 45.43 593.67 46.73 593.67 47.53C593.67 48.62 593.51 49.06 593.02 49.32C592.21 49.75 592.32 49.78 591.31 48.89ZM595.67 49.17C595.24 48.65 595.27 48.36 596.09 45.38C596.36 44.4 596.52 43.34 596.44 43.03C596.26 42.33 597.86 40.67 598.71 40.67C599.19 40.67 599.33 40.91 599.33 41.72C599.33 42.31 599.14 43.02 598.9 43.31C598.21 44.15 597.61 46.26 597.71 47.47C597.87 49.25 596.61 50.3 595.67 49.17ZM583.72 46.65C584.47 45.25 584.51 43.89 583.81 43.31C583.07 42.7 582.33 43.22 581.42 45.01C580.53 46.75 580.48 47.43 581.21 48.16C581.67 48.62 581.84 48.63 582.43 48.24C582.8 47.99 583.39 47.28 583.72 46.65ZM72.36 47.04C72.12 46.59 72.2 45.78 72.67 44.15C73.03 42.91 73.23 41.55 73.13 41.13C72.97 40.51 73.1 40.32 73.78 40.15C74.25 40.03 74.79 40.04 74.98 40.15C75.44 40.44 75.43 41.53 74.96 42.41C74.76 42.79 74.58 43.87 74.58 44.8C74.56 47.21 73.19 48.6 72.36 47.04ZM80.56 47.44C80.18 47.07 80.31 45.7 80.89 43.93C81.43 42.26 81.43 42.22 80.73 41.65C80.06 41.1 80.05 41.06 80.62 40.54C81.28 39.95 82.24 39.85 82.96 40.3C83.29 40.51 83.35 40.95 83.19 41.88C83.07 42.59 82.88 43.92 82.78 44.83C82.55 46.96 81.41 48.3 80.56 47.44ZM76.34 46.61C76.34 46.18 76.56 45.1 76.84 44.2C77.11 43.3 77.33 42.07 77.33 41.47C77.33 40.01 78.5 39.55 79.4 40.66C80.18 41.63 80.17 41.73 78.73 44.67C77.47 47.23 76.33 48.16 76.34 46.61ZM568.16 42.42C568.29 40.26 568.54 37.67 568.7 36.67C569.1 34.22 569.08 31.42 568.67 31.17C568.48 31.05 568.33 30.74 568.33 30.48C568.33 30.11 568.84 30 570.5 30C572.72 30 573.27 30.42 572.21 31.3C571.92 31.54 571.68 32.83 571.53 34.92C571.4 36.71 571.21 38.73 571.11 39.42C570.95 40.41 571.02 40.67 571.44 40.67C571.73 40.67 572.16 40.3 572.4 39.86C572.64 39.42 573.92 37.46 575.24 35.51C577.27 32.52 577.61 31.82 577.45 30.98L577.25 30L579.12 30C580.58 30 581 30.11 581 30.51C581 30.79 580.66 31.17 580.25 31.37C579.84 31.56 579.08 32.27 578.56 32.94C575.7 36.69 571.75 42.12 570.48 44.08C569.65 45.35 568.77 46.33 568.47 46.33C567.98 46.33 567.95 45.92 568.16 42.42ZM60.49 43.98C60.37 43.79 60.36 43.29 60.46 42.88C60.56 42.46 60.89 39.52 61.18 36.33C61.47 33.15 61.77 30.44 61.84 30.32C61.92 30.2 61.76 29.81 61.5 29.47C60.59 28.26 60.87 28 63.11 28C64.27 28 65.32 28.1 65.45 28.23C65.57 28.35 65.39 28.76 65.05 29.14C64.6 29.63 64.36 30.56 64.22 32.33C64.12 33.71 63.93 35.88 63.82 37.17L63.61 39.5L64.31 38.67C64.69 38.21 66.2 36.06 67.66 33.88C69.88 30.56 70.27 29.78 70.11 28.97L69.92 28L71.77 28C74 28 74.4 28.43 72.98 29.29C71.94 29.93 69.81 32.66 65 39.5C61.57 44.38 61.05 44.9 60.49 43.98ZM94.07 39.91C95.15 38.63 95.24 37.4 94.34 36.26C93.34 34.98 91.9 34.49 90.65 35.01C89.34 35.55 88.67 36.54 88.67 37.94C88.67 39.1 89.63 40.65 90.61 41.07C91.65 41.52 93.15 41.02 94.07 39.91ZM556.08 40.08C558.45 37.83 555.94 33.98 552.78 35.02C550.79 35.68 550.07 38.15 551.38 39.82C552.74 41.55 554.44 41.64 556.08 40.08ZM341.83 38.74C341.1 38.45 339.69 37.68 338.69 37.02C337.69 36.37 336.42 35.56 335.86 35.22C332.99 33.5 332 31.73 332 28.35C332 23.87 334.36 21.33 338.51 21.33C342.3 21.33 345.34 24.49 345.33 28.4C345.33 30.58 343.89 33.3 342.16 34.42C341.53 34.83 341.01 35.4 341 35.68C341 36.26 343.08 38.33 343.67 38.33C344.11 38.33 343.95 39.09 343.48 39.19C343.31 39.23 342.57 39.03 341.83 38.74ZM74.56 38.44C74.06 37.94 74.38 37.33 75.15 37.33C76.22 37.33 76.52 37.88 75.7 38.32C74.93 38.73 74.85 38.74 74.56 38.44ZM348 33.86C348 29.6 348.04 29.33 348.65 29.33C349 29.33 349.36 29.45 349.45 29.58C349.53 29.72 349.65 31.71 349.71 34L349.83 38.17L348.92 38.27L348 38.38L348 33.86ZM340.94 33.43C342.1 32.03 342.33 31.2 342.33 28.45C342.33 24.52 340.91 22.33 338.35 22.33C337.44 22.33 336.91 22.57 336.29 23.25C335.03 24.64 334.67 25.8 334.68 28.43C334.7 31.21 335.63 33.55 337 34.26C338.23 34.9 340.03 34.52 340.94 33.43Z" fill="#1e2749" fill-rule="evenodd"/>
</svg>
