<?xml version="1.0" encoding="UTF-8"?>
<svg xmlns="http://www.w3.org/2000/svg" viewBox="0 0 312 255" width="312" height="255" shape-rendering="geometricPrecision">
<path d="M236.08 248.18C226.73 242.51 226.6 242.42 226.74 241.76C226.79 241.5 228.33 240.48 230.17 239.5C233.61 237.66 233.91 237.26 232.85 236C232.62 235.72 231.64 234.15 230.66 232.5C228.22 228.4 225.43 224.1 224.17 222.5C217.88 214.55 214.86 210.95 211.92 207.92L208.44 204.33L192.64 204.33C183.94 204.32 150.06 204.32 117.35 204.32C65.04 204.32 57.77 204.26 57.1 203.82L56.33 203.32L56.25 131.41L56.17 59.5L52 59.33L47.83 59.17L47.9 58.24C47.93 57.73 48.48 56.46 49.11 55.41C49.75 54.36 51.87 50.57 53.83 47C55.79 43.42 57.46 40.44 57.53 40.36C57.73 40.16 59.33 41.72 59.33 42.1C59.33 42.28 59.77 43.14 60.31 44.01C60.84 44.88 62.22 47.37 63.37 49.54C64.51 51.72 66.1 54.6 66.89 55.94C67.69 57.29 68.33 58.52 68.33 58.67C68.33 59.28 67.48 59.4 63.64 59.35L59.67 59.3L59.61 126.57C59.58 163.56 59.54 194.71 59.51 195.77C59.49 196.84 59.58 197.78 59.73 197.87C60.02 198.05 71.02 188.19 81.16 178.67C82.82 177.11 86.88 173.36 90.17 170.34C93.47 167.32 96.99 164.08 98 163.14C101.55 159.83 102.23 159.2 109.75 152.25C113.92 148.39 117.33 145.04 117.33 144.8C117.33 144.57 117.18 144.28 116.99 144.16C116.18 143.66 112.33 138.85 112.33 138.35C112.33 137.93 113.09 137.63 115.58 137.05C126.2 134.62 126.95 134.45 129.41 133.83C130.65 133.51 131.9 133.35 132.19 133.46C132.85 133.72 132.72 134.37 130.83 140.17C130.05 142.55 128.78 146.48 128 148.91C127.23 151.33 126.38 153.49 126.13 153.7C125.75 154.01 125.38 153.77 124.25 152.46C123.48 151.57 122.14 150.09 121.29 149.19L119.75 147.54L118.26 148.85C114.5 152.19 105.75 160.23 105 161.04C104.54 161.54 102.44 163.48 100.33 165.36C98.22 167.24 94.55 170.61 92.17 172.84C89.78 175.07 86.52 178.08 84.92 179.53C83.31 180.97 82 182.34 82 182.57C82 183.15 81.93 183.17 85.06 181.7C86.59 180.99 89.18 179.8 90.83 179.07C92.48 178.34 94.68 177.35 95.72 176.87C96.76 176.4 99.16 175.63 101.05 175.16C102.95 174.69 105.33 174.09 106.33 173.83C107.34 173.56 109.22 173.11 110.5 172.82C116.13 171.57 117.6 171.22 119.17 170.78C121.63 170.08 148.07 170.32 152.83 171.09C158.61 172.02 161.58 172.72 164 173.74C164.46 173.93 165.28 174.2 165.83 174.35C168.97 175.17 172.59 176.72 181.83 181.2C185.7 183.08 193.27 187.31 195.24 188.69C196.25 189.41 204.97 196.74 207.59 199.09L209.74 201.01L228.79 200.92L247.83 200.83L247.93 196.58C248.01 192.72 248.08 192.33 248.63 192.33C248.96 192.33 251.32 193.48 253.87 194.89C256.42 196.29 259.12 197.78 259.87 198.19C267.52 202.34 267.46 202.3 266.1 203.24C265.59 203.6 263.56 204.74 261.6 205.77C259.64 206.81 257.39 208.02 256.6 208.46C255.81 208.89 254.34 209.69 253.33 210.24C252.32 210.78 250.94 211.57 250.25 211.98C248.18 213.23 248 212.93 248 208.34L248 204.33L245.42 204.33C220.07 204.26 213.6 204.28 213.42 204.47C213.3 204.59 214.42 205.92 215.91 207.43C217.4 208.93 219.27 211.02 220.06 212.07C220.85 213.11 222.4 215.11 223.5 216.5C227.04 220.98 227.66 221.81 228.59 223.27C229.09 224.06 230.44 226.14 231.58 227.88C232.73 229.63 233.67 231.14 233.67 231.25C233.67 231.35 234.02 231.9 234.45 232.47C234.88 233.04 235.5 234.03 235.83 234.67C236.15 235.31 236.46 235.88 236.51 235.94C236.59 236.04 237.26 235.73 238.67 234.95C238.94 234.8 239.62 234.45 240.17 234.17C240.72 233.89 241.62 233.38 242.17 233.03C243.53 232.15 244.29 232.17 244.48 233.08C245.08 236.01 245.38 253.06 244.83 253.19C244.65 253.24 240.71 250.98 236.08 248.18ZM45.25 216.4C44.32 216.21 44.57 215.5 45.75 214.98C46.68 214.57 46.85 214.31 46.92 213.17C46.97 212.43 46.82 211.08 46.59 210.17L46.17 208.5L43.98 208.31C42.77 208.21 41.06 208.21 40.16 208.31C38.67 208.48 38.47 208.62 37.63 210C35.18 214.02 34.86 215 35.97 215C37.17 215 37.72 215.36 37.3 215.87C36.72 216.57 30.67 216.53 30.67 215.83C30.67 215.55 31.02 215.18 31.46 215.01C32.53 214.61 34.73 211.37 41.66 200C44.45 195.42 45.39 194.29 46.32 194.4C47.1 194.49 47.19 194.69 47.57 197.17C48.38 202.56 48.62 204.25 49.16 208.33C49.92 214.11 50.01 214.41 51.3 215.02C52.15 215.43 52.29 215.62 51.94 215.9C51.51 216.25 46.38 216.64 45.25 216.4ZM272.33 214.39C271.66 214.16 272.03 213.47 273.17 212.86C273.81 212.51 274.94 211.42 275.69 210.43C276.43 209.45 278.01 207.53 279.19 206.18C280.37 204.83 281.33 203.48 281.33 203.18C281.33 202.61 278.36 196.84 277.23 195.21C276.87 194.69 276.06 194.05 275.45 193.79C274.84 193.53 274.33 193.1 274.33 192.83C274.33 192.42 275.02 192.33 278.36 192.33C281.43 192.33 282.36 192.43 282.25 192.75C282.18 192.98 281.72 193.36 281.23 193.6C280.73 193.84 280.33 194.25 280.33 194.51C280.33 195.13 283.2 200.45 283.6 200.59C284 200.72 288.84 194.4 288.56 194.11C288.44 194 288.02 193.74 287.62 193.53C287.21 193.33 286.82 192.97 286.74 192.74C286.63 192.4 287.38 192.33 290.14 192.41C292.17 192.46 293.69 192.64 293.71 192.83C293.74 193.02 293.23 193.42 292.58 193.74C291.2 194.41 284.67 201.75 284.67 202.64C284.67 203.25 286 205.78 288.7 210.31C289.89 212.33 290.38 212.85 291.25 213.07C292.55 213.41 292.64 213.9 291.49 214.34C290.62 214.67 284.59 214.53 284 214.17C283.41 213.8 283.64 213.41 284.58 213.18C285.08 213.05 285.67 212.8 285.88 212.63C286.26 212.31 286.14 211.15 285.66 210.5C285.53 210.32 284.86 209.08 284.18 207.75C283.39 206.22 282.73 205.33 282.38 205.34C282.08 205.34 281.23 206.18 280.5 207.21C279.77 208.23 278.75 209.6 278.25 210.25C277.19 211.61 277.02 213 277.92 213.01C278.24 213.01 278.72 213.15 279 213.32C279.4 213.58 279.41 213.72 279.07 214.06C278.69 214.44 273.28 214.71 272.33 214.39ZM45.65 206.19C45.97 205.8 45.98 205.19 45.69 203.43C45.49 202.18 45.29 200.65 45.24 200.03C45.2 199.4 45.01 198.83 44.82 198.77C44.42 198.64 40.21 205.86 40.46 206.26C40.55 206.41 41.66 206.57 42.93 206.61C44.65 206.67 45.34 206.56 45.65 206.19ZM203.91 200.45C203.98 200.23 203.02 199.22 201.77 198.2C200.52 197.19 197.97 195.1 196.1 193.58C194.23 192.05 192.06 190.47 191.27 190.05C190.48 189.64 189.44 189.04 188.95 188.73C184.76 186.05 180.68 183.98 171.33 179.76C167.73 178.13 158.81 175.38 155.33 174.84C153.41 174.53 150.67 174.07 149.24 173.81C147.31 173.45 143.57 173.33 134.46 173.33L122.27 173.33L117.88 174.37C101.11 178.32 99.03 178.88 96 180.24C94.99 180.7 92.67 181.75 90.83 182.57C89 183.4 86.25 184.66 84.72 185.37C83.19 186.08 81.88 186.67 81.81 186.67C81.31 186.67 77.44 188.74 75.67 189.96C74.47 190.78 72.84 191.89 72.04 192.44C68.23 195.05 63 199.72 63 200.53C63 200.94 72.72 200.99 133.39 200.92C186.56 200.85 203.81 200.74 203.91 200.45ZM210.92 194.4C210.09 194.24 210.19 193.25 211.13 192.37C211.65 191.88 212.01 191.07 212.15 190.06C212.27 189.2 212.72 186.62 213.16 184.33C214.42 177.76 214.8 174.67 214.4 174.27C214.21 174.08 213.72 173.75 213.3 173.54C212.89 173.34 212.49 172.98 212.42 172.75C212.31 172.43 213.51 172.33 217.72 172.34C222.76 172.34 223.27 172.4 224.5 173.1C227.19 174.62 227.29 177.01 224.77 179.7C223.93 180.6 223.04 181.33 222.79 181.33C221.86 181.33 222.37 182.29 223.49 182.66C224.95 183.14 225.88 184.3 226.16 185.98C226.44 187.63 225.16 190.5 223.48 191.98C221.22 193.96 220.12 194.3 215.62 194.41C213.35 194.46 211.24 194.46 210.92 194.4ZM220.67 191.71C221.81 190.87 222.99 188.72 222.99 187.43C223.01 184.84 221.56 183.67 218.36 183.67C215.96 183.67 215.88 183.77 215.37 187.5C215.18 188.97 214.92 190.58 214.8 191.08C214.63 191.83 214.73 192.05 215.38 192.33C216.5 192.8 219.68 192.43 220.67 191.71ZM221.91 180.26C223.23 178.98 223.89 176.93 223.37 175.77C222.91 174.76 221.74 174.33 219.49 174.33L217.7 174.33L217.48 175.58C217.36 176.27 217.06 177.68 216.8 178.72C216.11 181.49 216.33 181.8 218.79 181.54C220.45 181.37 221 181.14 221.91 180.26ZM54.98 33.26C53.97 32.89 54.21 32.43 55.58 32.1C57 31.77 57.39 30.98 58.08 26.95C58.46 24.73 58.44 24.63 57.06 20.43C55.61 16.01 54.43 14 53.29 14C52.38 14 51.33 13.4 51.33 12.88C51.33 12.36 53.12 11 53.8 11C56.01 11 58.11 14.17 59.63 19.81C60.16 21.77 60.57 22.19 61.06 21.29C64.42 15.15 67.52 11.67 69.6 11.67C71.17 11.67 70.67 13.42 68.89 14.17C66.26 15.29 62.25 21.01 61.31 25C61.16 25.64 60.87 26.87 60.66 27.72C60.46 28.58 60.34 29.85 60.4 30.54C60.49 31.64 60.63 31.83 61.58 32.07C62.67 32.35 62.96 32.78 62.33 33.17C61.84 33.47 55.75 33.55 54.98 33.26Z" fill="#1e2749" fill-rule="evenodd"/>
</svg>
