<?xml version="1.0" encoding="UTF-8"?>
<svg xmlns="http://www.w3.org/2000/svg" viewBox="0 0 1040 187.2" width="1040" height="187.2" shape-rendering="geometricPrecision">
<path d="M517.3 125.89C517.13 125.45 517.43 123.89 517.96 122.44C518.98 119.62 518.9 119.09 516.72 114.16C516.01 112.55 513.02 104.77 512.69 103.64C512.32 102.41 513.23 101.85 514.93 102.28C515.83 102.5 516.35 103.56 518.09 108.72C519.23 112.12 520.38 114.83 520.63 114.74C520.89 114.65 521.97 111.96 523.03 108.75C524.97 102.9 525.78 101.68 527.32 102.28C527.96 102.52 528.09 102.93 527.87 104.01C527.47 106.03 520.57 124.34 519.73 125.62C518.9 126.89 517.73 127.02 517.3 125.89ZM608.4 124.46C607.44 124.11 606.04 122.86 606.04 122.35C606.04 122.12 607.39 122.08 609.04 122.25C611.83 122.53 612.1 122.47 612.82 121.45C613.97 119.81 612.92 118.49 610.24 118.18C608.56 117.99 608.16 117.77 608.16 117C608.16 116.28 608.56 116 609.8 115.82C611.64 115.55 613.04 113.71 612.49 112.28C612.21 111.56 611.78 111.47 609.57 111.7C607.25 111.94 606.98 111.87 606.98 111.07C606.98 108.9 612.07 108.43 614.2 110.4C615.68 111.78 615.83 113.25 614.69 115.25C613.91 116.61 613.92 116.68 615.18 118.18C616.09 119.26 616.38 120 616.16 120.72C615.27 123.65 611.34 125.55 608.4 124.46ZM458.03 118.76C455.95 116.89 455.59 113.76 457.26 111.96C458.53 110.59 461.12 109.68 463.77 109.68C465.71 109.67 466.58 108.99 466.58 107.45C466.58 104.79 463.21 103.69 459.63 105.19C457.69 106 456.86 105.59 457.35 104.05C457.84 102.5 462.2 101.39 465.07 102.09C469.49 103.17 469.89 104.03 469.89 112.42C469.89 117.74 469.75 119.13 469.17 119.61C468.59 120.1 468.28 120.05 467.51 119.35C466.61 118.54 466.47 118.53 464.9 119.28C462.32 120.51 459.78 120.32 458.03 118.76ZM475.66 119.51C475.26 119.11 475.09 116.44 475.09 110.52L475.09 102.11L476.34 102.11C477.03 102.11 477.82 102.43 478.11 102.83C478.58 103.47 478.88 103.44 480.71 102.55C483.1 101.4 485.16 101.58 487.11 103.11C489.21 104.76 489.75 106.82 489.75 113.22C489.75 119.31 489.41 120.35 487.52 119.99C486.77 119.84 486.65 119.1 486.44 113.45C486.15 105.75 485.82 104.95 482.96 104.95C481.39 104.95 480.67 105.22 479.78 106.16C478.72 107.29 478.62 107.81 478.48 113.14C478.39 116.3 478.1 119.16 477.83 119.48C477.21 120.23 476.39 120.24 475.66 119.51ZM495.5 119.46C494.76 118.57 494.66 94.4 495.39 94.16C495.69 94.06 496.45 94.11 497.09 94.27C498.22 94.56 498.25 94.68 498.25 99.05C498.25 103.04 498.63 104.37 499.4 103.12C499.53 102.9 500.59 102.45 501.74 102.13C503.54 101.62 504.06 101.65 505.57 102.37C506.53 102.83 507.83 104.01 508.46 105.01C509.51 106.67 509.6 107.3 509.6 112.66C509.6 117.87 509.5 118.6 508.67 119.35C508.16 119.81 507.42 120.06 507.02 119.91C506.42 119.68 506.29 118.58 506.29 113.53C506.29 108.17 506.18 107.29 505.35 106.24C504.84 105.59 503.88 104.92 503.22 104.75C501.82 104.4 499.45 105.49 498.74 106.81C498.47 107.31 498.25 110.15 498.25 113.11C498.25 117.74 498.13 118.62 497.39 119.29C496.35 120.23 496.15 120.25 495.5 119.46ZM532.45 119.71C531.69 119.22 531.25 117.14 531.74 116.37C531.99 116 532.8 115.81 533.76 115.9C535.02 116.02 535.4 116.29 535.52 117.16C535.68 118.29 534.45 120.08 533.52 120.07C533.23 120.06 532.75 119.9 532.45 119.71ZM547.92 119.63C547.17 119.15 547.2 119.03 550.64 109.44C555.7 95.32 555.39 95.96 557.31 95.96C558.93 95.96 559.93 96.77 560.56 98.56C561.48 101.22 565.8 113.21 566.82 115.96C567.64 118.18 567.72 118.83 567.24 119.41C566.06 120.82 564.82 119.99 563.73 117.06C563.16 115.53 562.35 114.09 561.92 113.85C561.5 113.61 559.18 113.48 556.76 113.55L552.38 113.69L551.67 115.89C551.02 117.91 549.57 120.08 548.88 120.07C548.73 120.06 548.3 119.87 547.92 119.63ZM571.62 119.51C571.21 119.09 571.05 115.54 571.05 106.48L571.05 94.01L572.59 94.16L574.13 94.31L574.25 106.6C574.37 117.74 574.3 118.95 573.57 119.48C572.57 120.21 572.33 120.22 571.62 119.51ZM584.05 119.08C580.34 117.21 578.45 113.42 578.56 108.04C578.69 102.24 580.18 98.98 583.6 97.04C587.03 95.1 594.3 95.82 595.59 98.24C595.97 98.95 595.92 99.31 595.4 99.75C594.84 100.21 594.31 100.17 592.8 99.56C590.37 98.59 586.71 98.58 585.35 99.53C581.23 102.42 581.3 113.37 585.46 116.09C587.43 117.38 590.11 117.48 592.44 116.35C594.75 115.23 595.44 115.12 595.87 115.81C596.4 116.67 595.1 118.26 593.12 119.16C590.49 120.35 586.52 120.31 584.05 119.08ZM600.01 119.76C599.56 119.58 599.42 116.53 599.42 106.8L599.42 94.07L600.51 94.07C602.65 94.07 602.73 94.54 602.73 106.73C602.73 119.7 602.5 120.77 600.01 119.76ZM464.74 116.63C465.99 115.79 466.38 115.18 466.49 113.85C466.59 112.59 466.42 112.08 465.82 111.84C464.63 111.39 460.98 112.03 460.18 112.84C459.2 113.81 459.33 115.65 460.44 116.76C461.66 117.99 462.76 117.96 464.74 116.63ZM560.9 110.61C561.25 110.03 558.43 101.3 557.75 100.88C557.06 100.46 556.92 100.71 555.42 105.22C553.42 111.19 553.39 111.09 557.32 111.09C559.12 111.09 560.73 110.87 560.9 110.61ZM89.94 107.79C89.09 107.27 88.4 106.5 88.4 106.08C88.4 105.46 88.7 105.37 89.94 105.63C90.78 105.81 92.45 106.07 93.64 106.2C95.64 106.43 95.91 106.32 97.08 104.93C99.31 102.29 97.8 99.95 93.57 99.47C91.81 99.27 90.72 98.91 90.55 98.46C90.11 97.31 90.71 96.91 92.88 96.91C94.59 96.91 95.14 96.67 96.16 95.45C97.5 93.86 97.45 92.01 96.03 90.84C95.27 90.23 92.78 90.31 90.41 91.02C89.54 91.29 89.35 91.16 89.35 90.36C89.35 88.56 93.4 87.45 96.72 88.35C98.19 88.75 98.85 89.28 99.67 90.73C100.63 92.44 100.67 92.74 100.07 94.17C99.71 95.02 99.07 96.02 98.64 96.38C97.53 97.29 97.66 98.09 99.07 99.02C103.78 102.1 100.14 108.73 93.74 108.73C92.31 108.72 90.9 108.38 89.94 107.79ZM41.94 101.12C37.84 100.16 34.78 97.31 33.15 92.94C31.73 89.14 31.73 81.83 33.16 77.92C35.28 72.09 39.3 69.3 45.59 69.28C49.41 69.28 51.85 69.98 53.61 71.62C54.99 72.9 55.12 73.64 54.2 74.9C53.6 75.73 53.47 75.7 51.25 74.4C49.33 73.27 48.39 73.04 45.85 73.04C41.73 73.04 39.92 74.12 38.1 77.66C36.91 80 36.72 80.9 36.69 84.49C36.64 89.73 37.49 92.74 39.67 95.03C42.66 98.17 46.64 98.54 51.15 96.1C54.81 94.11 56.16 95.68 53.28 98.56C50.75 101.09 46.19 102.12 41.94 101.12ZM117.71 101.28C114.38 100.98 111.11 99.11 109.18 96.41C107.18 93.6 106.36 90.39 106.36 85.33C106.36 78.76 107.87 74.8 111.56 71.7C113.53 70.03 116.01 69.32 119.84 69.3C123.62 69.27 126.06 69.98 127.83 71.62C129.2 72.89 129.34 73.64 128.45 74.86C127.89 75.64 127.7 75.61 125.52 74.39C123.59 73.31 122.66 73.09 120.04 73.14C118.17 73.16 116.3 73.49 115.43 73.94C112.08 75.67 109.98 82.5 111.03 88.23C111.35 89.96 112.03 92.19 112.54 93.19C114.77 97.56 120.26 98.88 125.16 96.22C127.7 94.84 129.05 94.87 129.05 96.32C129.05 99.26 123.3 101.77 117.71 101.28ZM142.53 101.19C135.99 99.59 132.84 94.61 132.74 85.73C132.66 78.01 134.72 73.27 139.24 70.82C143.83 68.32 151.19 68.56 155.24 71.34C159.1 74 160.71 77.92 160.71 84.62C160.71 91.12 159.48 94.35 155.63 97.95C152.23 101.13 147.28 102.35 142.53 101.19ZM175.15 101.22C174.37 101.02 172.95 100.44 171.99 99.94C163.05 95.28 163.34 74.43 172.4 70.55C176.23 68.9 180.02 68.43 183.25 69.18C187.21 70.1 188.87 71.09 190.71 73.62C193.14 76.98 193.97 80.31 193.74 85.86C193.53 91.1 192.69 93.4 189.74 96.85C187.31 99.69 184.06 101.21 179.92 101.42C178.08 101.52 175.93 101.43 175.15 101.22ZM201.29 101.31C200.84 101.2 200.36 100.71 200.2 100.23C200.05 99.74 200.03 95.02 200.17 89.74C200.31 84.45 200.42 77.72 200.43 74.78L200.44 69.44L202.45 69.58L204.45 69.73L204.59 75.85C204.68 80.03 204.9 82.1 205.3 82.35C206.34 83.01 217.75 82.8 218.33 82.11C218.62 81.75 218.9 78.95 218.98 75.61L219.11 69.73L220.47 69.57C221.21 69.49 222.02 69.61 222.25 69.85C222.92 70.51 222.78 99.74 222.1 100.55C221.8 100.91 221 101.15 220.33 101.07L219.11 100.93L218.87 93.84L218.64 86.75L211.66 86.61L204.69 86.48L204.69 93.32C204.69 99.86 204.64 100.2 203.64 100.9C203.06 101.31 202.48 101.61 202.34 101.58C202.2 101.55 201.73 101.43 201.29 101.31ZM60.32 100.42C59.95 99.44 59.95 71.21 60.32 70.24C60.75 69.12 63.65 69.25 64.27 70.41C64.54 70.91 64.76 73.89 64.76 77.02L64.76 82.73L71.37 82.73C77.41 82.73 78.01 82.65 78.46 81.81C78.73 81.31 78.95 78.32 78.95 75.17L78.95 69.43L80.72 69.58L82.49 69.73L82.62 84.8C82.75 100.95 82.7 101.34 80.4 101.07L79.18 100.93L78.95 93.84L78.71 86.75L71.74 86.61L64.76 86.48L64.76 92.77C64.76 97.7 64.6 99.29 64.03 100.11C63.15 101.36 60.76 101.56 60.32 100.42ZM983.15 100.9C982.45 100.17 982.84 97.17 984.97 86.61C986.17 80.7 987.35 74.71 987.59 73.3C987.84 71.88 988.27 70.44 988.55 70.1C989.26 69.25 999.42 69.27 1002.29 70.14C1007.44 71.69 1009.75 75.09 1009.74 81.1C1009.73 87.52 1007.76 92.26 1003.41 96.31C999.42 100.02 997.33 100.74 989.65 101.03C986.27 101.16 983.35 101.1 983.15 100.9ZM663.62 100.34C660.09 100.2 659.47 100.06 659.22 99.29C658.89 98.23 664.48 70.03 665.21 69.16C665.57 68.72 667.29 68.55 671.21 68.56C675.61 68.56 677.11 68.75 678.71 69.47C680.89 70.46 682.62 72.78 682.61 74.69C682.59 76.44 681.05 79.46 679.37 81.04C678.56 81.81 677.89 82.63 677.89 82.88C677.89 83.12 678.62 84.13 679.52 85.12C680.41 86.11 681.28 87.66 681.45 88.56C682.03 91.61 678.86 96.81 675.29 98.68C673.61 99.56 669.44 100.72 668.44 100.59C668.05 100.54 665.88 100.43 663.62 100.34ZM380.29 97.82C380.11 97.53 380.77 95.78 381.74 93.92C384.1 89.4 396.14 68 396.74 67.25C397.27 66.58 400.77 66.46 401.74 67.07C402.4 67.49 404.17 76.48 406.12 89.25C406.92 94.53 407.08 96.7 406.72 97.29C406.17 98.16 403.83 98.64 403.21 98.01C402.99 97.79 402.58 96.14 402.29 94.33C402 92.52 401.54 90.76 401.26 90.43C400.73 89.78 391.3 89.55 389.15 90.12C388.45 90.31 387.63 91.28 386.85 92.83C384.86 96.82 383.52 98.33 381.97 98.33C381.22 98.33 380.46 98.1 380.29 97.82ZM150.12 96.96C154.18 95.12 156.23 90.95 156.19 84.62C156.13 76.74 152.98 72.84 146.67 72.81C140.17 72.78 137.13 76.73 137.1 85.25C137.09 88.95 138.11 92.97 139.52 94.76C141.82 97.68 146.43 98.64 150.12 96.96ZM183.29 96.86C187.36 94.89 189.07 91.31 189.08 84.75C189.1 76.4 185.08 72.21 177.77 72.96C174.62 73.28 173.26 74.25 171.68 77.28C170.07 80.34 169.67 86.89 170.85 90.93C172.6 96.94 177.9 99.47 183.29 96.86ZM830.73 97.08C826.92 95.73 823.96 90.85 823.96 85.92C823.96 83.55 825.72 76.37 826.84 74.16C830.01 67.88 837.26 64.26 843.76 65.7C848.26 66.71 850.4 69.17 848.29 70.93C847.68 71.43 847.25 71.36 845.74 70.51C843.23 69.1 838.12 69.08 835.83 70.48C832.77 72.34 830.51 76.3 829.36 81.81C828.11 87.8 829.38 91.5 833.29 93.22C835.29 94.11 835.73 94.14 837.89 93.61C839.2 93.28 840.97 92.59 841.82 92.08C844.72 90.33 845.96 92.58 843.41 94.96C840.67 97.52 834.76 98.51 830.73 97.08ZM995.23 96.88C1001.02 95.27 1005.47 88.55 1005.49 81.41C1005.49 78.12 1004.23 75.69 1001.81 74.33C1000.27 73.47 999.19 73.27 995.93 73.27L991.93 73.27L991.35 75.99C990.2 81.31 989.8 83.25 988.23 91.33C987.85 93.34 987.53 95.52 987.53 96.18C987.53 97.34 987.63 97.38 990.48 97.38C992.11 97.38 994.24 97.15 995.23 96.88ZM672.59 95.93C674.4 95.3 676.45 92.69 676.79 90.58C677.34 87.18 674.91 85.56 669.23 85.56L665.73 85.56L665.17 88.52C664.86 90.14 664.41 92.13 664.16 92.92C663.13 96.25 663.3 96.44 667.42 96.44C669.46 96.44 671.79 96.21 672.59 95.93ZM966.27 93.16C965.55 91.8 965.65 91.42 967.2 89.65C967.98 88.77 968.62 87.91 968.62 87.75C968.62 87.59 943.89 87.45 913.66 87.45C883.44 87.44 858.23 87.31 857.64 87.16C856.18 86.76 855.68 84.69 856.84 83.84C857.55 83.31 867.43 83.2 912.9 83.2C943.51 83.2 968.2 83.02 968.34 82.79C968.48 82.57 968.19 82.02 967.7 81.57C967.21 81.13 966.56 80.15 966.24 79.38C965.57 77.76 966.22 76.58 967.79 76.58C968.91 76.58 976.65 83.97 976.65 85.05C976.65 86.06 968.6 94.07 967.58 94.07C967.13 94.07 966.54 93.66 966.27 93.16ZM358.8 92.65C358.2 91.53 358.84 90.05 360.53 88.73C361.15 88.24 361.53 87.66 361.38 87.43C361.23 87.19 337.11 87.01 304.29 87.02C273.03 87.03 247.08 86.89 246.61 86.71C246 86.48 245.81 85.98 245.91 84.91C246.03 83.69 246.3 83.4 247.47 83.19C248.25 83.06 274.02 83 304.74 83.06C365.44 83.19 363.15 83.28 360.21 80.67C359.24 79.8 358.8 78.97 358.8 78C358.8 76.71 358.94 76.58 360.34 76.6C361.6 76.61 362.56 77.27 365.77 80.34C367.92 82.38 369.67 84.44 369.67 84.9C369.67 86.09 361.65 93.57 360.35 93.59C359.78 93.59 359.08 93.17 358.8 92.65ZM630.46 93.28C629.76 92.58 630.22 90.28 631.33 88.96C631.98 88.19 632.51 87.46 632.51 87.34C632.51 87.22 586.37 87.11 529.97 87.11C473.58 87.1 427.2 86.95 426.92 86.77C426.63 86.6 426.4 85.72 426.4 84.83L426.4 83.2L452.52 83.13C466.88 83.08 512.99 83.03 554.98 83.01C596.97 82.98 631.61 82.78 631.95 82.56C632.45 82.24 632.39 81.95 631.66 81.14C630.06 79.38 629.58 78.1 630.15 77.05C631.06 75.35 632.48 75.97 636.39 79.77C638.46 81.79 640.37 83.82 640.62 84.29C641 85 640.38 85.86 636.95 89.37C633.08 93.32 631.47 94.29 630.46 93.28ZM805.15 93.03C804.22 92.11 804.49 90.9 806.02 89.16C806.8 88.26 807.28 87.44 807.08 87.33C806.88 87.22 782.91 87.09 753.82 87.05C724.74 87 700.75 86.85 700.52 86.71C699.99 86.38 699.98 83.81 700.51 83.48C700.74 83.34 724.62 83.18 753.58 83.12C786.5 83.06 806.47 82.85 806.85 82.56C807.32 82.21 807.13 81.76 805.98 80.58C804.09 78.63 804.18 76.89 806.16 76.66C807.29 76.54 808.11 77.09 811.13 79.97C816.42 85.04 816.41 84.82 811.66 89.59C807.72 93.55 806.38 94.26 805.15 93.03ZM400.6 84.15C400.56 81.35 399.45 73.55 398.98 72.8C398.78 72.47 398.4 72.34 398.13 72.5C397.43 72.94 390.95 84.93 390.95 85.8C390.95 86.43 391.65 86.52 395.79 86.41L400.64 86.27L400.6 84.15ZM674.01 81.24C677.32 79.64 678.93 75.26 676.95 73.27C676.16 72.49 675.37 72.33 672.28 72.33L668.56 72.33L668.08 74.34C666.56 80.66 666.52 80.94 667.06 81.6C667.89 82.6 671.61 82.4 674.01 81.24ZM766.76 77.63C761.38 76.96 758.25 72.6 758.25 65.77C758.25 57.24 762.12 52.94 769.25 53.54C772.9 53.84 774.74 54.65 775.11 56.13C775.58 58.02 774.66 58.39 772.32 57.26C769.91 56.09 767.85 55.99 765.6 56.92C763.84 57.66 763.25 58.52 762.25 61.83C761.38 64.7 761.39 66.15 762.33 69.42C763.27 72.71 763.65 73.2 766.14 74.3C768.34 75.28 770.92 75 772.96 73.57C774.36 72.59 775.09 72.59 775.47 73.58C776.26 75.65 770.9 78.14 766.76 77.63ZM335.95 77.21C335.23 76.49 335.79 75.41 338.5 72.26C340.08 70.42 341.57 68.4 341.81 67.76C342.71 65.41 340.5 63.72 337.85 64.73C336.78 65.14 336.49 65.09 336.25 64.45C335.81 63.29 337.4 62.4 339.92 62.4C345.67 62.4 346.29 67.36 341.2 72.64C340.16 73.72 339.45 74.84 339.63 75.12C339.8 75.4 341.07 75.64 342.44 75.64C345.19 75.64 345.82 75.94 345.03 76.89C344.48 77.56 336.58 77.84 335.95 77.21ZM736.35 77.21C736.18 77.04 736.04 71.71 736.04 65.38C736.04 55.15 736.12 53.83 736.81 53.56C738.56 52.89 739.1 54.02 739.35 58.9L739.58 63.58L744.02 63.72C749.98 63.9 750.22 63.68 750.22 58.04L750.22 53.83L751.52 53.98C752.69 54.11 752.85 54.36 753.13 56.49C753.3 57.79 753.46 62.7 753.49 67.39C753.53 76.68 753.28 77.76 751.14 77.45C750.01 77.29 749.98 77.19 749.91 72.56C749.87 69.96 749.81 67.57 749.79 67.25C749.76 66.81 748.37 66.65 744.55 66.65L739.35 66.65L739.35 71.52C739.35 74.68 739.15 76.59 738.78 76.96C738.16 77.58 736.85 77.71 736.35 77.21ZM779.51 76.46C779.34 68.29 779.3 55.37 779.44 54.77C779.68 53.68 782.27 53.25 783.55 54.09C784.12 54.46 785.45 56.43 786.51 58.46C789.4 64 793.19 70.22 793.59 70.08C793.79 70.02 794.05 66.4 794.18 62.05L794.42 54.13L795.84 54.13L797.25 54.13L797.38 64.9C797.46 71.78 797.33 76 797.01 76.6C796.32 77.88 794.13 77.81 792.9 76.46C792.36 75.88 791.45 74.44 790.88 73.27C788.63 68.7 783.13 59.09 782.76 59.09C782.54 59.09 782.36 62.98 782.36 67.74C782.36 76.69 782.19 77.53 780.38 77.53C779.82 77.53 779.52 77.16 779.51 76.46ZM471.07 75.79C470.55 75.68 469.45 75.23 468.61 74.81C467.19 74.08 467.04 74.08 466.15 74.89C465.63 75.36 464.87 75.62 464.46 75.47C463.82 75.22 463.75 73.64 463.86 62.77L463.98 50.35L465.4 50.35L466.82 50.35L466.95 54.36C467.11 59.72 467.1 59.69 469.37 58.59C471.7 57.46 473.14 57.43 475.32 58.47C480.46 60.92 480.65 71.54 475.62 74.96C473.99 76.07 473.08 76.23 471.07 75.79ZM486.62 75.24C483.96 73.99 482.65 71.27 482.65 66.96C482.65 61.91 484.23 59.35 488.22 57.95C492.36 56.48 497.26 59.43 497.96 63.82C498.5 67.15 497.73 67.6 491.59 67.6C488.64 67.6 486.37 67.8 486.19 68.08C485.71 68.86 486.89 71.79 488 72.56C489.17 73.38 493.15 73.51 494.52 72.77C495.6 72.2 497.44 72.63 497.19 73.4C496.43 75.67 489.94 76.79 486.62 75.24ZM503.45 75.76C502.26 75.31 502.19 74.86 502.27 68.41C502.39 57.85 502.35 58.15 503.63 58.15C504.25 58.15 505 58.44 505.3 58.8C505.75 59.35 506.11 59.31 507.58 58.56C509.81 57.42 511.81 57.44 513.71 58.6C516.14 60.08 516.69 61.71 517 68.43C517.27 74.1 517.23 74.51 516.32 75.32C515.52 76.03 515.17 76.09 514.31 75.63C513.31 75.09 513.28 74.89 513.59 70.51C513.95 65.45 513.42 62.05 512.14 61.11C510.83 60.15 508.85 60.41 507.27 61.73L505.82 62.96L505.82 68.62C505.82 73.78 505.4 76.17 504.5 76.07C504.32 76.05 503.84 75.91 503.45 75.76ZM539.31 75.08C535.81 73.51 534.18 67.71 535.86 62.78C536.7 60.31 537.99 58.98 540.28 58.21C545.31 56.52 549.71 59.09 550.53 64.19C551.04 67.36 550.58 67.6 544.05 67.6C537.74 67.6 537.71 67.62 539.39 70.92C540.47 73.04 541.67 73.52 544.7 73.07C548.7 72.48 549.51 72.52 549.68 73.36C550.13 75.62 543.12 76.78 539.31 75.08ZM567.39 75.6C566.36 75.21 566.33 74.99 566.33 69.01C566.33 63.08 566.28 62.78 565.17 61.67C563.67 60.17 561.59 60.16 559.85 61.65C558.55 62.77 558.52 62.9 558.29 69.09L558.05 75.4L556.64 75.4L555.22 75.4L555.22 66.89L555.22 58.38L556.37 58.22C557.04 58.13 557.76 58.37 558.07 58.8C558.56 59.46 558.8 59.44 560.44 58.61C563.8 56.89 567.08 57.82 568.66 60.93C569.5 62.56 569.64 63.71 569.64 68.94C569.64 75.51 569.36 76.34 567.39 75.6ZM579.06 75.68C575.55 74.56 573.89 71.9 573.89 67.39C573.89 62.18 575.74 59.07 579.6 57.77C581.67 57.07 585.18 57.96 586.96 59.62C588.38 60.96 589.65 65 589.02 66.18C588.36 67.42 587.52 67.6 582.36 67.6C577.7 67.6 577.67 67.61 577.67 68.76C577.67 71.94 579.66 73.51 583.17 73.11C588.06 72.54 588.31 72.55 588.31 73.22C588.31 75.03 582.17 76.66 579.06 75.68ZM520.47 73.91C520.47 72.57 521.22 71.02 523.78 67.06C525.6 64.25 527.09 61.73 527.09 61.46C527.09 61.2 525.95 60.98 524.53 60.98C521.23 60.98 520.47 60.66 520.47 59.28C520.47 58.16 520.52 58.15 525.32 58.15C527.98 58.16 530.46 58.35 530.82 58.57C531.83 59.22 531.21 60.73 527.57 66.39C525.75 69.23 524.25 71.82 524.25 72.13C524.25 72.96 525.41 73.27 528.52 73.27C531.42 73.27 532.29 73.79 531.33 74.95C530.89 75.47 529.54 75.64 525.61 75.64L520.47 75.64L520.47 73.91ZM880.04 74.57C879.89 73.99 879.76 68.92 879.75 63.32C879.74 52.19 880.01 50.87 882.01 51.95C882.92 52.43 883.03 52.95 883.16 57.09L883.29 61.69L887.95 61.83C890.91 61.91 892.84 61.77 893.25 61.43C893.69 61.07 893.94 59.5 894.03 56.57L894.16 52.24L895.46 52.09C896.18 52 896.78 52 896.8 52.09C896.82 52.17 896.94 56.92 897.07 62.64C897.32 74.02 897.07 75.81 895.23 75.55C894.21 75.41 894.16 75.19 894.03 70.08L893.9 64.76L888.48 64.76L883.05 64.76L883.05 69.63C883.05 72.79 882.86 74.7 882.49 75.07C881.58 75.98 880.35 75.73 880.04 74.57ZM906.58 74.43C904.33 72.95 903.63 71.82 902.71 68.24C901.76 64.53 901.77 62.61 902.77 59C904.3 53.53 907.95 51.17 914.15 51.66C918.01 51.96 920.43 53.51 922.05 56.71C923.04 58.66 923.24 59.73 923.24 63.02C923.24 67.58 922.71 69.48 920.75 71.99C918.61 74.72 916.4 75.64 912.03 75.61C908.95 75.59 908.06 75.39 906.58 74.43ZM928.28 75.32C928.11 75.15 927.96 69.85 927.96 63.55C927.96 53.81 928.07 52.06 928.67 51.83C929.74 51.42 930.78 51.98 931.04 53.12C931.17 53.67 931.32 55.83 931.39 57.91L931.51 61.69L935.94 61.83C941.89 62.01 942.15 61.78 942.15 56.23C942.15 52.85 942.29 52.05 942.91 51.81C944.81 51.08 944.98 52.09 944.98 63.58C944.98 72.74 944.86 74.67 944.28 75.16C943.89 75.48 943.26 75.62 942.88 75.47C942.33 75.26 942.15 74.08 942.04 70.1L941.91 65L936.59 64.87L931.27 64.73L931.27 69.62C931.27 72.79 931.07 74.7 930.71 75.07C930.09 75.69 928.78 75.82 928.28 75.32ZM473.62 72.5C476.04 70.81 476.85 65.39 475.1 62.53C473.59 60.05 470.48 59.88 468.2 62.16C467.2 63.16 467.05 63.74 467.05 66.7C467.05 69.97 467.11 70.14 468.74 71.68C470.61 73.44 471.96 73.67 473.62 72.5ZM914.88 72.74C916.61 71.85 918.55 69.81 919.26 68.13C920.12 66.08 920.12 60.61 919.26 58.56C918.11 55.82 916.49 54.68 913.38 54.46C908.02 54.07 905.78 56.71 905.76 63.39C905.74 68.8 906.84 71.32 909.76 72.61C911.52 73.39 913.52 73.44 914.88 72.74ZM267.44 71.54C266.28 71.06 265.56 70.41 265.38 69.65C264.95 67.96 265.46 67.77 268.01 68.68C272.11 70.14 274.35 69.53 275.88 66.56C276.59 65.2 276.58 65.03 275.73 63.87C275.22 63.19 273.14 61.77 271.09 60.71C267.99 59.11 267.19 58.45 266.29 56.74C264.95 54.22 264.94 53.43 266.17 51C267.67 48.06 271.27 47.01 275.67 48.23C278.08 48.9 278.8 49.87 277.76 51.02C277.04 51.82 276.82 51.84 275.69 51.25C272.71 49.7 268.98 50.98 268.98 53.55C268.98 55.32 270.29 56.66 273.68 58.37C278.76 60.93 280.59 63.84 279.2 67.15C277.4 71.45 272.04 73.45 267.44 71.54ZM288.2 71.38C284.95 69.76 284.08 68.54 282.89 63.98C282.06 60.8 282.05 59.05 282.86 56.02C284.29 50.65 286.59 48.39 291.12 47.92C297.18 47.28 300.73 48.95 302.61 53.32C303.84 56.2 303.83 63.28 302.59 65.95C301.5 68.3 298.57 71.08 296.45 71.79C294.02 72.6 290.27 72.41 288.2 71.38ZM314.39 71.71C309.98 70.31 307.42 65.15 307.87 58.6C308.26 52.85 310.65 49.35 314.98 48.18C319.05 47.08 324.82 48.66 325.15 50.96C325.36 52.41 324.08 52.77 322.11 51.84C316.66 49.23 312.8 51.18 311.53 57.2C310.39 62.57 312.23 67.36 315.98 68.79C318.08 69.6 318.22 69.59 320.91 68.61C324.53 67.29 325.34 67.3 325.15 68.66C325.05 69.38 324.22 70.15 322.64 71.02C320.07 72.41 317.32 72.65 314.39 71.71ZM329.37 71.73C328.72 71.23 328.58 69.54 328.42 59.85C328.32 53.64 328.33 48.04 328.45 47.41C328.63 46.46 328.9 46.3 330.14 46.42L331.62 46.56L331.74 58.66C331.86 69.88 331.81 70.8 331 71.53C330.3 72.17 329.99 72.21 329.37 71.73ZM295.92 68.43C298.83 66.95 300.15 64.26 300.16 59.8C300.16 56.01 299.05 52.99 297.21 51.79C295.21 50.47 291.67 50.32 289.44 51.46C286.74 52.84 285.84 55.29 286.08 60.59C286.29 65.13 287.01 66.89 289.26 68.41C291.29 69.77 293.27 69.78 295.92 68.43ZM493.91 64.67C494.75 63.83 494.59 62.52 493.53 61.45C492.38 60.31 489.02 60.17 487.54 61.21C486.29 62.09 485.67 64.29 486.53 64.83C487.49 65.44 493.26 65.31 493.91 64.67ZM546.35 64.51C547.22 63.9 547.31 63.61 546.87 62.67C546.16 61.1 543.63 59.82 542.04 60.22C540.22 60.67 538.91 62.18 538.91 63.82L538.91 65.24L542.11 65.24C544.23 65.24 545.67 64.99 546.35 64.51ZM584.79 64.75C586.03 64.09 585.95 63.07 584.55 61.67C583.75 60.87 582.86 60.51 581.68 60.51C579.42 60.51 578.4 61.11 577.66 62.9C577.15 64.14 577.16 64.45 577.72 64.8C578.64 65.38 583.68 65.34 584.79 64.75Z" fill="#1e2749" fill-rule="evenodd"/>
</svg>
