<?xml version="1.0" encoding="UTF-8"?>
<svg xmlns="http://www.w3.org/2000/svg" viewBox="0 0 2430 483" width="2430" height="483" shape-rendering="geometricPrecision">
<path d="M527.5 387.09C522.72 386.3 521 385.35 521 383.51C521 380.96 531.93 380.5 590.5 380.58C651.57 380.65 656.45 380.98 652.69 384.74C651.78 385.65 648.45 386.71 645.27 387.11C638.07 388.01 532.96 387.99 527.5 387.09ZM289.89 364.33C289.03 363.32 281.64 350.8 273.46 336.5C265.29 322.2 251.13 297.45 241.99 281.5C213.07 231.05 194.48 197.83 190.42 189.37C186.98 182.19 188.75 177.99 192.8 183.75C198.95 192.51 240.26 262.87 277.78 328.5C286.27 343.35 293.73 356.02 294.36 356.65C295.19 357.48 322.03 358.11 392 358.93C445.08 359.55 490.88 360.38 493.78 360.78C499.8 361.6 500.63 363.09 495.8 364.38C493.98 364.86 447.27 365.46 391.98 365.71C295.46 366.15 291.4 366.09 289.89 364.33ZM529.96 365.04C526.36 364.68 522.87 364.04 522.21 363.63C519.81 362.15 521.03 360.09 524.75 359.3C526.81 358.86 555.5 358.51 588.5 358.51C651.72 358.52 656.59 358.84 652.76 362.67C651.78 363.65 648.23 364.56 643.34 365.07C634.09 366.04 539.45 366.02 529.96 365.04ZM676.22 365.01C664.99 364.4 660.24 363.2 662.79 361.63C665.23 360.12 701.22 358.99 781 357.93C828.58 357.29 867.81 356.48 868.19 356.13C868.91 355.48 870.44 352.85 892.47 314.5C906.53 290.01 945.2 222.89 960.3 196.75L969.4 181L1031.45 181.07C1089.21 181.14 1102.9 181.56 1104.67 183.34C1105.8 184.47 1103.52 186.09 1099.37 187.1C1096.25 187.87 1022.28 189.67 981.5 189.98L972.5 190.05L966 201.74C962.42 208.17 956.09 219.29 951.91 226.46C947.74 233.63 928.45 267.18 909.05 301C889.64 334.82 873.07 363.29 872.23 364.25C870.78 365.89 865.21 365.99 779.6 365.84C729.49 365.75 682.97 365.38 676.22 365.01ZM2295.2 358.33C2291.31 358.06 2288.71 357.41 2288.4 356.61C2287.46 354.15 2292.27 343.66 2296.38 339.2C2298.65 336.75 2303.2 332.92 2306.5 330.7C2324.5 318.6 2329.22 311.13 2324.55 302.1C2322.54 298.2 2319.6 297 2312.18 297.01C2303.74 297.03 2302.75 297.56 2299.56 303.64C2296.23 310 2292.39 313.24 2290.93 310.92C2289.55 308.73 2289.82 306.93 2292.37 301.46C2295.48 294.77 2299.65 291.42 2306.69 289.96C2314.14 288.41 2321.23 289.92 2326.33 294.12C2331.32 298.24 2333.14 302.11 2333.14 308.63C2333.14 318.24 2329.32 322.86 2311.9 334.29C2298.47 343.1 2292.37 351.21 2298.25 352.43C2299.49 352.68 2306.84 353.08 2314.58 353.3C2322.33 353.53 2329.53 354.2 2330.58 354.79C2332.38 355.79 2332.33 355.92 2329.79 356.89C2326.72 358.06 2304.75 358.97 2295.2 358.33ZM529 345.35C522.48 344.62 521 344.02 521 342.06C521 338.95 530.04 338.49 589.5 338.61C642.62 338.71 652.9 339.2 653.73 341.7C654.91 345.24 650.85 345.5 591 345.62C558.83 345.68 530.92 345.56 529 345.35ZM1688.3 329.95C1681.24 328.56 1675.35 324.42 1672.41 318.8C1670.61 315.35 1670.6 306.9 1672.39 302.61C1675.23 295.8 1681.66 292.68 1699.5 289.45C1710.4 287.48 1716.56 284.95 1717.48 282.06C1718.35 279.32 1715.27 273.29 1711.61 270.56C1709.47 268.96 1707.04 268.43 1700.68 268.19C1690.47 267.8 1684.17 270.42 1682.44 275.77C1679.88 283.7 1674.42 283.94 1674.59 276.1C1674.65 273.1 1675.48 270.97 1677.64 268.31C1682.49 262.31 1686.96 260.59 1698.88 260.15C1711.84 259.67 1715.58 260.73 1720.8 266.4C1725.6 271.61 1725.59 271.57 1726.7 299.84L1727.5 320.17L1730.25 322.54C1731.76 323.84 1733 325.36 1733 325.92C1733 327.33 1729.6 329 1726.7 329C1723.83 329 1719 325.48 1719 323.4C1719 320.47 1715.89 320.83 1710.74 324.35C1706.49 327.26 1695.37 331.36 1693.04 330.89C1692.74 330.83 1690.61 330.41 1688.3 329.95ZM1836.34 329.95C1827.95 328.31 1819.42 321.87 1815.61 314.29C1813.22 309.54 1811.8 293.44 1813.02 284.84C1815.54 267.06 1823.87 259.84 1841.84 259.84C1850.54 259.84 1855.86 261.54 1860.19 265.68C1864.94 270.23 1865.99 268.55 1866.09 256.28C1866.22 240.14 1867.01 235.57 1869.71 235.19C1871.41 234.94 1872.11 235.52 1872.71 237.69C1873.15 239.23 1873.5 259.47 1873.5 282.65C1873.5 322.66 1873.4 324.9 1871.6 326.89C1869.31 329.42 1867.46 328.35 1866.48 323.93C1866.13 322.32 1865.4 321 1864.87 321C1864.33 321 1860.92 322.79 1857.28 324.99C1853.65 327.18 1849.06 329.24 1847.09 329.57C1845.11 329.9 1842.83 330.31 1842 330.47C1841.17 330.63 1838.63 330.39 1836.34 329.95ZM2014.31 329.14C2001.74 324.8 1995.78 317.87 1995.16 306.87C1994.83 301.06 1995.04 299.92 1996.52 299.35C1999.23 298.32 2001.21 300.17 2004.49 306.79C2010.37 318.66 2016.26 322.5 2028.5 322.44C2037.94 322.39 2043.26 320.14 2047.69 314.34C2050.17 311.09 2050.5 309.81 2050.5 303.41C2050.5 292.38 2048.21 290.49 2028.01 284.82C2015.05 281.18 2006.52 277.18 2002.21 272.72C1999.54 269.96 1998.72 268.06 1997.88 262.68C1995.45 247.08 2002.32 235.24 2014.78 233.53C2022.44 232.48 2038.26 232.67 2041.24 233.85C2047.54 236.36 2056.8 247.3 2058.37 254.11C2059.22 257.82 2055.94 260.73 2052.37 259.43C2050.48 258.75 2049.36 257.18 2048.15 253.5C2046.81 249.45 2045.59 247.89 2041.74 245.32C2033.36 239.72 2023.06 238.87 2015 243.11C2008.01 246.79 2005 250.72 2005 256.16C2005 265.53 2009.5 269.05 2029.79 275.55C2046.88 281.03 2050.58 282.74 2055.03 287.18C2059.46 291.62 2061.23 296.32 2061.19 303.58C2061.12 314.92 2053.91 324.65 2042.36 328.97C2035.25 331.63 2021.75 331.71 2014.31 329.14ZM2101.89 328.65C2088.04 322.95 2079.69 312.65 2075.42 296C2073.23 287.46 2073.93 270.02 2076.79 261.95C2081.39 248.98 2088.07 240.59 2097.5 235.96C2102.04 233.73 2103.7 233.5 2115.5 233.51C2136.31 233.53 2144.47 237.52 2152.97 251.85C2158.85 261.75 2160.39 269.03 2159.54 282.83C2158.76 295.56 2157.16 302.8 2153.59 309.77C2150.96 314.9 2144.57 321.47 2139 324.76C2128.01 331.26 2112.25 332.91 2101.89 328.65ZM2200.43 328.7C2187.92 323.92 2180.25 314.67 2175.39 298.46C2172.87 290.05 2172.85 269.78 2175.37 261.53C2179.05 249.43 2185.52 240.8 2194.2 236.4C2204.7 231.08 2222.12 231.01 2233 236.25C2238.7 239 2245.65 245.37 2247.94 249.96C2251.99 258.04 2251.35 262 2246 262C2242.87 262 2241.57 260.72 2240.6 256.69C2239.65 252.7 2232.73 245.58 2227.2 242.89C2223.49 241.09 2220.82 240.61 2214.5 240.63C2198.18 240.67 2189.02 248.32 2184.49 265.69C2182.73 272.45 2182.54 286.72 2184.11 294.2C2187.62 310.89 2198.26 321.63 2212.36 322.72C2224.78 323.68 2234.85 317.2 2241.52 303.96C2244.75 297.55 2245.35 296.91 2247.79 297.19C2250.29 297.48 2250.52 297.88 2250.75 302.5C2251.24 312.16 2242.02 323.15 2229.34 328.04C2220.54 331.43 2208.33 331.71 2200.43 328.7ZM1744.79 326.75C1743.82 325.06 1743.5 317.2 1743.5 295C1743.5 278.77 1743.85 264.26 1744.27 262.75C1744.83 260.74 1745.68 260 1747.41 260C1749.94 260 1751 261.65 1751 265.58C1751 268.49 1752.09 268.66 1754.42 266.09C1757.87 262.28 1765.96 259.61 1774.04 259.63C1780.43 259.64 1782.37 260.08 1786.86 262.52C1789.77 264.1 1793.04 266.66 1794.14 268.2C1797.2 272.49 1798.21 282.28 1797.84 303.87C1797.54 321.01 1797.26 323.96 1795.65 326.41C1793.95 329.01 1793.67 329.1 1792.19 327.62C1790.84 326.27 1790.47 322.31 1789.93 303.75C1789.23 279.12 1788.31 274.28 1783.64 270.35C1780.8 267.96 1780.1 267.84 1770.92 268.16C1763.04 268.44 1760.8 268.86 1759.08 270.43C1755.4 273.76 1754.18 281.09 1753.6 303.38C1753.17 319.88 1752.73 324.76 1751.51 326.63C1749.55 329.62 1746.46 329.67 1744.79 326.75ZM2269.89 326.94C2268.77 324.97 2268.5 316.47 2268.5 282.5C2268.5 259.4 2268.85 239.26 2269.27 237.75C2269.69 236.24 2270.69 235 2271.48 235C2275.08 235 2275.47 238.63 2275.83 275.94C2276.22 315.7 2275.79 323.81 2273.06 327.18L2271.27 329.38L2269.89 326.94ZM1706.62 319.48C1712.13 316.25 1715.69 310.99 1717.19 303.84C1718.76 296.36 1718.08 295 1712.78 295C1705.61 295.01 1690.09 297.91 1685.96 300.02C1681.2 302.45 1680 304.53 1680 310.36C1680 313.98 1680.56 315.41 1682.91 317.75C1688.67 323.52 1698.51 324.23 1706.62 319.48ZM1852 320.25C1861.92 315.03 1866.99 303.42 1865.15 290.13C1863.32 276.88 1858.52 270.41 1848.71 267.95C1838.43 265.36 1828.97 269.03 1824.33 277.39C1821.66 282.21 1821.5 283.19 1821.5 294.5C1821.5 304.89 1821.79 307.04 1823.66 310.5C1829.84 321.96 1841.28 325.89 1852 320.25ZM2129.3 320.19C2134.5 317.89 2142.9 310.04 2145.47 305.07C2149.83 296.62 2151.23 278.3 2148.44 266.02C2144.82 250.12 2132.97 240.87 2116 240.69C2099.84 240.52 2089.24 249.95 2085.44 267.86C2082.52 281.64 2084.02 295.83 2089.44 305.62C2097.68 320.49 2114.61 326.69 2129.3 320.19ZM1250.18 219.92C1238.48 217.89 1226.67 210.75 1221.1 202.34C1215.71 194.21 1213.61 185.4 1213.61 171C1213.61 156.75 1215.21 149.13 1220.17 139.83C1223.9 132.84 1228.43 128.61 1235.82 125.23C1242.48 122.17 1259.54 120.97 1267.85 122.96C1279.3 125.71 1290.11 135.84 1295.74 149.11C1298.23 154.99 1298.45 156.59 1298.47 169C1298.5 180.55 1298.17 183.47 1296.19 189.19C1288.68 210.93 1270.06 223.36 1250.18 219.92ZM1348.17 219.99C1336.31 218.23 1324.22 209.29 1318.52 198.05C1310.5 182.21 1310.27 160.71 1317.94 144.32C1321.74 136.2 1329.57 127.9 1336.3 124.85C1340.99 122.73 1342.81 122.51 1355 122.63C1374.83 122.81 1381.73 125.96 1389.99 138.59C1397.21 149.64 1398.4 154.66 1397.67 170.91C1396.98 186.17 1396.02 191.16 1392.38 198.46C1389.24 204.74 1385.93 208.33 1379.39 212.57C1370.01 218.65 1358.17 221.46 1348.17 219.99ZM1150.19 218.5C1136.28 214.6 1125.2 200 1122.72 182.28C1121.45 173.26 1123.12 151.97 1125.69 144.36C1127.78 138.15 1137.5 128.37 1145.41 124.5C1150.96 121.78 1151.39 121.73 1164.36 122.23C1180.04 122.82 1182.59 123.76 1189.99 131.58C1196.39 138.36 1199.67 145.23 1198.12 148.63C1195.9 153.51 1192.58 151.42 1185.76 140.85C1180.57 132.81 1174.08 129.7 1162.63 129.75C1148.31 129.82 1139.81 135.29 1134.9 147.62C1132.77 152.94 1132.55 155.07 1132.53 170C1132.5 184.85 1132.73 187.06 1134.76 192.08C1137.71 199.37 1142.51 204.86 1149.14 208.53C1153.84 211.14 1155.48 211.5 1162.5 211.48C1168.91 211.47 1171.39 211 1175 209.13C1182.23 205.37 1186.67 200.4 1189.57 192.81C1191.78 187.04 1192.54 186 1194.55 186C1198.71 186 1200.01 190.83 1197.89 198.44C1196.25 204.38 1186.13 214.05 1178.5 216.98C1170.85 219.93 1157.79 220.62 1150.19 218.5ZM1416.76 215.25C1415.91 213.27 1415.56 200.69 1415.54 170.5C1415.5 125.48 1415.65 124 1420.41 124C1424.95 124 1425.48 126.05 1425.85 145.17L1426.19 163.03L1451.35 162.77L1476.5 162.5L1477 144.3C1477.32 132.76 1477.91 125.68 1478.63 124.97C1479.25 124.35 1481.05 123.99 1482.62 124.17C1484.89 124.43 1485.62 125.13 1486.13 127.5C1486.48 129.15 1486.82 148.63 1486.88 170.78C1487.01 215.02 1486.68 218 1481.66 218C1480.31 218 1478.84 217.21 1478.38 216.25C1477.92 215.29 1477.31 204.82 1477.02 193L1476.5 171.5L1451.35 171.23L1426.2 170.97L1425.85 192.38C1425.53 211.74 1425.32 213.99 1423.6 215.9C1420.95 218.82 1418.19 218.55 1416.76 215.25ZM1269.77 207.9C1281.62 202.14 1288.01 190.18 1288.78 172.3C1289.29 160.55 1287.27 151.94 1282.09 143.79C1272.06 128.02 1246.5 125.1 1233.11 138.2C1225.45 145.68 1222.49 156.66 1223.25 174.72C1223.82 188.42 1225.58 194.08 1231.28 200.57C1241.43 212.13 1255.55 214.82 1269.77 207.9ZM1368.59 208.71C1371.39 207.29 1375.99 203.6 1378.82 200.51C1386 192.65 1388.22 185.43 1388.2 170C1388.17 154.06 1385.92 146.96 1378.53 139.58C1371.74 132.78 1364.85 130 1354.83 130C1344.42 130 1340.39 131.54 1333.91 137.97C1327.31 144.52 1324.41 151.23 1322.81 163.66C1319.87 186.44 1329.79 205.13 1348 211.12C1352.75 212.69 1363.16 211.47 1368.59 208.71ZM173 162.31C170.05 161.24 166.23 158.41 161.93 154.09C156.36 148.5 155.11 146.58 153.68 141.43C150.48 129.9 151.81 114.14 156.8 104.38C161.29 95.6 167.86 92.52 182 92.58C193.2 92.62 197.84 94.48 202.99 100.99C209.06 108.65 213.15 124.97 209.71 127.82C208.6 128.75 202 129.14 185.09 129.29L162 129.49L162 134.57C162 138.57 162.65 140.64 165.06 144.27C168.1 148.86 175.44 154.57 179.68 155.63C183.6 156.62 188.85 153.99 195.9 147.52C199.69 144.05 203.78 140.89 204.99 140.5C208.29 139.45 209.42 141.19 208.08 145.26C204.04 157.49 185.1 166.69 173 162.31ZM51.85 158.87C50.79 157 50.43 146.96 50.17 111.75L49.84 67L54.47 67C58.13 67 59.58 67.53 61.44 69.53C63.84 72.12 69.41 85.68 84.12 124.71C88.72 136.92 92.78 146.6 93.15 146.21C93.51 145.82 99.08 131.1 105.53 113.5C111.97 95.9 118.58 78.66 120.2 75.2C123.49 68.18 125.74 66.71 132.44 67.2L136.5 67.5L136.5 111.55C136.5 152.03 136.36 155.81 134.73 158.3C132.41 161.84 129.27 161.82 127.88 158.25C127.26 156.66 126.45 141.6 125.97 122.66C125.23 93.11 124.85 87.69 123.64 89.08C123.44 89.31 118.66 102.1 113.01 117.5C99.33 154.85 96.06 161.11 91.07 159.52C88.05 158.56 82.84 146.9 70.86 114.26C65.16 98.72 60.23 86.01 59.9 86.01C59.57 86 58.97 99.68 58.58 116.4C57.79 149.68 57.11 157.31 54.76 159.67C53.34 161.09 53.07 161.01 51.85 158.87ZM200.3 119.75C201.83 118.61 201.85 118.02 200.52 113C199.55 109.31 198.15 106.76 196.28 105.26C190.17 100.34 178.44 98.53 171.48 101.44C165.06 104.13 159.61 116.21 163.2 119.8C164.92 121.52 197.98 121.48 200.3 119.75Z" fill="#1e2749" fill-rule="evenodd"/>
</svg>
