<?xml version="1.0" encoding="UTF-8"?>
<svg xmlns="http://www.w3.org/2000/svg" viewBox="0 0 403 195" width="403" height="195" shape-rendering="geometricPrecision">
<path d="M263.42 150.11C263.19 150.02 263 149.44 263 148.82C263 147.17 262.34 146.97 257.08 147C254.56 147.02 245.97 146.95 238 146.85C230.03 146.76 206.4 146.6 185.5 146.51C164.6 146.41 141.12 146.26 133.33 146.18C125.54 146.09 104.39 145.92 86.33 145.81C68.27 145.69 53.39 145.49 53.25 145.37C53.12 145.24 52.97 137.65 52.92 128.49L52.83 111.83L49.74 111.78C45.84 111.72 45.6 111.63 45.73 110.25L45.83 109.17L53.43 109.08C61.8 108.98 63.11 109.14 63.28 110.29C63.5 111.84 62.83 112.09 58.95 111.93C55.55 111.79 55.37 111.82 55.2 112.48C55.11 112.86 55.03 119.87 55.03 128.06C55.03 139.37 55.13 142.98 55.43 143.09C55.65 143.18 60.56 143.29 66.33 143.35C81.66 143.51 86.64 143.59 95 143.78C99.12 143.87 120.46 143.99 142.41 144.05C173.4 144.12 182.42 144.05 182.73 143.74C183.31 143.16 183.48 103.8 182.91 103.44C182.69 103.31 179.57 103.19 175.98 103.18C168.99 103.17 168.19 102.99 168.4 101.53C168.5 100.84 168.57 100.83 183.89 100.75C193.4 100.69 199.6 100.79 200.14 100.99C201.05 101.34 201.27 102.26 200.6 102.93C200.31 103.22 198.14 103.33 192.93 103.33L185.67 103.33L185.67 123.66L185.67 143.99L186.42 144.14C186.83 144.23 202.84 144.39 222 144.49C241.16 144.6 257.81 144.77 259 144.87C260.22 144.98 261.57 144.9 262.08 144.7C262.99 144.35 263 144.33 263 141.17L263 138L266.34 138C269.02 138 269.73 138.1 269.88 138.5C270.24 139.45 269.35 140 267.45 140C265.43 140 265.01 140.44 265.54 141.96C265.81 142.73 266.07 142.85 267.66 143C269.26 143.15 269.5 143.27 269.67 144C269.83 144.68 270.09 144.85 271.14 144.94C272.88 145.08 273.19 144.67 272.36 143.29C271.39 141.71 271.47 141.33 272.81 141.33C273.69 141.33 274.11 141.55 274.64 142.3C275.02 142.83 275.33 143.43 275.33 143.63C275.33 144.36 275.93 143.98 276.83 142.67C277.6 141.56 277.95 141.33 278.88 141.33C279.5 141.33 280 141.41 280 141.51C280 141.6 279.62 142.28 279.15 143.02C278.69 143.76 278.41 144.52 278.54 144.73C278.84 145.21 285.9 144.83 286.55 144.29C286.91 143.99 286.92 143.81 286.6 143.42C286.3 143.06 285.71 142.97 284.4 143.08C283.09 143.19 282.56 143.1 282.43 142.78C282.06 141.81 283.02 141.33 285.32 141.33C287.24 141.33 287.66 141.44 288.29 142.12C288.7 142.56 289.15 143.34 289.29 143.87C289.47 144.56 289.78 144.86 290.38 144.93C291.46 145.06 291.92 144.48 292.06 142.83C292.18 141.35 292.87 140.97 294.17 141.67C294.72 141.96 295.1 141.97 295.6 141.7C296.63 141.15 298.54 141.26 299.18 141.9C299.72 142.43 299.81 142.43 300.74 141.9C301.97 141.19 304.44 141.15 305 141.83C305.22 142.1 305.6 142.89 305.84 143.58C306.25 144.79 306.32 144.84 308.01 144.94C310.07 145.06 310.86 144.56 309.56 143.97C307.47 143.01 307.65 139.28 309.84 138.23C312.35 137.03 316.24 137.71 315.92 139.29C315.84 139.73 315.45 139.81 313.82 139.73C312.53 139.66 311.62 139.78 311.23 140.08C310.24 140.81 311.08 142.14 313.06 142.99C313.96 143.38 315 144 315.37 144.37C315.82 144.82 316.38 145.01 317.1 144.94C318.14 144.84 318.17 144.78 318.27 143.08C318.35 141.65 318.48 141.33 318.98 141.33C319.72 141.33 320.38 140.61 320.06 140.12C319.94 139.93 319.5 139.59 319.08 139.37C318.11 138.86 318.03 137.33 318.99 137.33C319.35 137.33 319.8 137.04 319.99 136.68C320.22 136.25 320.31 130.03 320.25 117.93L320.17 99.83L313.35 99.74C307.53 99.67 306.45 99.57 305.92 99.09C305.58 98.79 305.35 98.23 305.4 97.85C305.5 97.17 305.65 97.17 321 97.07C329.52 97.02 336.84 97.06 337.25 97.16C338.2 97.39 338.26 98.66 337.36 99.48C336.77 100.01 336.1 100.04 330.08 99.86L323.44 99.65L323.24 121.05C323.12 132.82 323.12 142.58 323.22 142.75C323.32 142.92 323.83 142.65 324.34 142.16C325.15 141.38 325.49 141.28 327.05 141.38C328.03 141.44 329.02 141.37 329.25 141.22C329.5 141.07 329.67 140.23 329.67 139.13L329.67 137.29L330.92 137.4L332.17 137.5L332.26 143.54C332.36 150.52 332.29 150.73 329.99 150.04C329.06 149.76 328.48 149.74 328.02 149.99C326.58 150.76 325.28 150.41 323.83 148.85C322.77 147.71 322.28 147.41 321.72 147.55C321.19 147.69 321 148 321 148.71C321 149.42 320.78 149.78 320.19 150.05C318.96 150.61 318.33 150.2 318.33 148.84C318.33 147.77 318.25 147.67 317.37 147.67C316.7 147.67 316.02 148.06 315.08 149C313.79 150.29 313.67 150.33 311.52 150.33C308.77 150.33 308 149.97 308 148.65C308 147.78 307.89 147.67 307 147.67C306.11 147.67 306 147.78 306 148.67C306 149.42 305.79 149.78 305.19 150.05C303.96 150.61 303.33 150.2 303.33 148.85C303.33 147.89 303.19 147.64 302.53 147.48C301.1 147.12 300.51 147.42 300.4 148.56C300.27 149.89 299.59 150.47 298.5 150.2C297.82 150.03 297.67 149.79 297.67 148.87C297.67 147.61 296.97 147.22 295.28 147.56C294.51 147.71 294.33 147.93 294.33 148.67C294.33 150.78 292.11 150.84 291.94 148.73C291.84 147.57 291.77 147.5 290.67 147.5C289.6 147.5 289.49 147.59 289.4 148.56C289.25 150.04 288.59 150.52 287.39 150.03C286.72 149.75 286.2 149.74 285.54 149.98C283.95 150.59 282.78 150.41 282.02 149.46C281.64 148.97 281.33 148.31 281.33 147.99C281.33 147.4 280.71 147 279.8 147C279.03 147 278.86 147.96 279.5 148.67C280.29 149.54 279.91 150.33 278.72 150.33C277.96 150.33 277.57 150.05 276.87 149C276.39 148.27 275.85 147.67 275.67 147.67C275.49 147.67 275.09 148.08 274.78 148.58C274 149.84 273.34 150.33 272.44 150.33C271.51 150.33 271.38 149.21 272.2 148.3C272.49 147.97 272.64 147.57 272.54 147.39C272.43 147.22 270.83 147.06 268.98 147.04C265.96 147.01 265.63 147.07 265.73 147.59C265.82 148.05 266.26 148.19 267.94 148.27C270.15 148.37 270.8 148.87 270 149.84C269.69 150.21 268.87 150.33 266.71 150.31C265.13 150.29 263.65 150.21 263.42 150.11ZM335.51 149.3C334.36 148.29 334.33 148.2 334.33 145.82C334.33 143.54 334.4 143.32 335.36 142.36C336.25 141.47 336.62 141.33 338.18 141.33C339.71 141.33 340.15 141.48 341.16 142.37C342.04 143.15 342.33 143.67 342.33 144.47C342.33 146.02 341.82 146.33 339.27 146.33C337.08 146.33 337 146.36 337 147.15C337 148.28 338.06 148.78 339.84 148.52C341.51 148.27 342.02 148.72 341.15 149.69C340.7 150.19 340.12 150.33 338.63 150.33C336.94 150.33 336.54 150.2 335.51 149.3ZM344.4 149.93C343.58 149.11 344.18 147.67 345.35 147.67C345.65 147.67 346.17 147.97 346.5 148.33C347.08 148.98 347.08 149.02 346.5 149.67C345.82 150.42 344.99 150.53 344.4 149.93ZM351.36 149.31C349.64 148.07 349 146.64 349 144.08C349 139.87 351.43 137.56 355.63 137.74C357.98 137.84 358.83 138.46 358.14 139.56C357.86 140 357.37 140.11 355.91 140.04C354.88 139.99 353.73 140.12 353.36 140.32C351.86 141.12 351.17 144.22 352.06 146.16C352.65 147.45 354.47 148.45 355.76 148.19C357.95 147.76 358.16 147.79 358.28 148.65C358.45 149.86 357.53 150.33 354.99 150.33C353.04 150.33 352.59 150.21 351.36 149.31ZM361.47 149.2C360.39 148.13 360.33 147.94 360.33 145.73C360.33 143.48 360.37 143.37 361.51 142.37C362.57 141.44 362.91 141.33 364.88 141.33C366.92 141.33 367.14 141.41 368.2 142.47C369.23 143.5 369.33 143.77 369.32 145.55C369.31 147.67 369 148.27 367.29 149.53C366.46 150.15 365.78 150.33 364.4 150.33C362.8 150.33 362.48 150.21 361.47 149.2ZM372.07 150.05C371.75 149.85 371.67 148.73 371.74 145.64L371.83 141.5L372.77 141.39C373.29 141.33 373.91 141.46 374.17 141.67C374.5 141.94 374.81 141.95 375.29 141.69C376.27 141.16 378.08 141.26 378.97 141.88C379.69 142.39 379.82 142.39 380.68 141.88C381.92 141.15 383.75 141.19 384.71 141.97C385.43 142.55 385.51 142.9 385.61 146.11C385.72 149.42 385.69 149.63 385 150C383.65 150.72 383.33 150.24 383.33 147.42C383.33 144.37 382.83 143.33 381.35 143.33C380.15 143.33 380 143.75 380 147.03C380 149.52 379.95 149.7 379.19 150.05C377.62 150.77 377.33 150.31 377.33 147.05C377.33 143.76 377.05 143.21 375.44 143.39L374.5 143.5L374.4 146.48C374.35 148.12 374.14 149.66 373.95 149.9C373.54 150.39 372.71 150.46 372.07 150.05ZM285.96 148.22C286.44 147.63 286.11 147.33 284.94 147.33C283.51 147.33 283.75 148.54 285.21 148.64C285.42 148.65 285.75 148.47 285.96 148.22ZM312.82 147.98C313.01 147.78 312.41 147.67 311.23 147.67C310.19 147.67 309.33 147.81 309.33 147.98C309.33 148.66 312.12 148.66 312.82 147.98ZM328.98 147.46C329.73 146.49 329.84 145.51 329.34 144.19C329.07 143.49 328.8 143.33 327.79 143.33C326.32 143.33 325.69 144.03 325.68 145.68C325.66 148.13 327.61 149.19 328.98 147.46ZM366.31 147.46C367.13 146.41 367.2 145.1 366.48 144.07C366.1 143.52 365.63 143.33 364.66 143.33C363.17 143.33 362.67 143.94 362.67 145.74C362.67 148.2 364.89 149.25 366.31 147.46ZM297.26 144.61C297.83 144.04 297.13 143.33 296 143.33C295.01 143.33 294.14 144.09 294.49 144.65C294.78 145.13 296.77 145.09 297.26 144.61ZM303.18 144.65C303.56 144.02 302.6 143.29 301.53 143.4C300.75 143.48 300.47 143.69 300.39 144.25C300.3 144.92 300.43 145 301.62 145C302.36 145 303.06 144.84 303.18 144.65ZM339.67 144.5C340.26 143.79 339.53 143 338.28 143C337.73 143 337.23 143.21 337.12 143.5C336.79 144.37 337.27 145 338.28 145C338.82 145 339.44 144.77 339.67 144.5ZM169.42 126.43C168.33 126.29 167.96 125.53 168.63 124.82C168.79 124.64 169.03 123.22 169.16 121.64C169.35 119.26 169.3 118.72 168.86 118.35C168.57 118.11 168.33 117.59 168.33 117.18C168.33 116.62 168.64 116.34 169.63 116.01C170.34 115.78 171.09 115.69 171.3 115.81C171.54 115.96 171.67 117.51 171.67 120.16C171.67 124.26 171.67 124.28 172.58 124.97C173.48 125.65 173.48 125.68 172.85 126.17C172.22 126.65 171.63 126.7 169.42 126.43ZM159.17 122.67C157.03 122.28 155.71 121.39 154.44 119.47C153.28 117.73 153.25 117.6 153.4 115.21C153.55 112.95 153.66 112.63 154.85 111.21C156.17 109.63 157.07 109.19 159.67 108.83C161.46 108.58 165.71 109.21 166.07 109.77C166.5 110.44 166.36 112.56 165.87 112.97C165.4 113.36 164.86 112.88 163.83 111.19C163.44 110.54 161.47 110.17 159.92 110.46C158.26 110.77 157.65 112.05 157.58 115.41C157.52 117.71 157.64 118.4 158.26 119.58C158.93 120.85 159.15 121 160.26 121.04C162.21 121.1 162.71 120.99 163.7 120.26C164.62 119.57 165.84 119.65 165.6 120.38C165.36 121.07 162.84 122.6 161.67 122.76C161.02 122.84 159.9 122.8 159.17 122.67ZM196.79 121.44C196.64 120.85 196.81 120.48 197.46 119.97C198.29 119.32 198.33 119.13 198.33 116.17C198.33 113.78 198.21 112.93 197.81 112.52C197.52 112.24 197.16 112 197.01 112C196.46 112 196.33 110.89 196.79 110.18C197.44 109.19 200.91 108.31 201.36 109.02C201.52 109.29 201.66 111.85 201.66 114.71L201.67 119.92L202.53 120.49C203.34 121.02 203.36 121.09 202.84 121.66C202.38 122.16 201.8 122.27 199.63 122.25C197.14 122.22 196.97 122.17 196.79 121.44ZM205.4 121.93C204.68 121.21 204.93 120.39 205.92 120.27L206.83 120.17L206.93 115.35L207.02 110.54L206.09 109.8C204.77 108.73 205.35 108.41 208.83 108.32C216.3 108.11 217.13 108.34 216.93 110.62C216.82 112.02 215.75 112.56 215.44 111.37C215.24 110.61 214.92 110.48 212.42 110.16L210.67 109.94L210.67 111.97C210.67 113.73 210.75 114 211.29 114C211.64 114 212.11 113.77 212.33 113.5C212.56 113.22 213.1 113 213.54 113C214.28 113 214.33 113.13 214.33 114.79C214.33 116.93 213.59 117.92 212.8 116.84C212.54 116.49 212.33 116.08 212.33 115.94C212.33 115.79 211.96 115.67 211.5 115.67C210.7 115.67 210.67 115.74 210.67 117.84C210.67 119.83 210.73 120.04 211.47 120.32C212.52 120.72 212.82 121.25 212.32 121.85C211.8 122.47 206.01 122.54 205.4 121.93ZM331.25 118.32C330.41 117.81 330.51 117.47 332 115.92C332.73 115.16 333.33 114.28 333.33 113.98C333.33 113.68 333.76 112.99 334.28 112.44C335.35 111.32 335.89 109.04 335.33 107.99C334.9 107.19 333.15 107.1 332.12 107.82C330.73 108.8 330.56 107.21 331.92 105.94C334.12 103.88 335.47 103.83 337.51 105.71C338.83 106.93 339 107.25 339 108.52C339 109.31 338.85 110.05 338.66 110.17C338.31 110.39 336.06 113.79 335.77 114.54C335.65 114.85 336.14 114.99 337.55 115.07C339.5 115.17 339.5 115.17 339.39 116.17C339.19 118.04 338.35 118.49 334.91 118.59C333.14 118.64 331.58 118.53 331.25 118.32ZM341.42 118.45C340.77 118.18 340.92 117.46 341.75 116.92C342.47 116.44 342.5 116.23 342.5 111.55L342.5 106.67L341.58 106.35C341.08 106.18 340.67 105.8 340.67 105.52C340.67 105.09 341.18 104.99 343.58 104.97C345.19 104.95 347.49 104.89 348.71 104.83C351.41 104.71 352.36 105.13 352.76 106.65C353 107.59 352.95 107.88 352.46 108.24C351.95 108.61 351.73 108.53 350.83 107.67C349.93 106.79 349.56 106.67 347.9 106.67C345.85 106.67 345.87 106.64 346.21 108.75C346.46 110.22 347.02 110.34 347.96 109.14C348.41 108.57 348.89 108.32 349.4 108.39C350.08 108.49 350.18 108.71 350.26 110.36C350.34 111.81 350.22 112.4 349.71 113.03L349.06 113.83L348.26 113.08C347.34 112.22 346.49 112.11 346.22 112.82C345.82 113.86 346.41 116.68 347.13 117.2C347.82 117.69 347.82 117.71 347.19 118.18C346.56 118.65 342.4 118.84 341.42 118.45ZM295.22 112.44C294.56 111.78 295.72 109.82 297.25 109.03C297.66 108.82 298 108.41 298 108.12C298 107.84 298.25 107.18 298.55 106.67C298.85 106.16 299.01 105.5 298.9 105.21C298.59 104.41 297.08 104.16 296.38 104.79C295.48 105.6 295 105.45 295 104.36C295 103.09 296.46 102 298.17 102C299.12 102 299.65 102.25 300.53 103.13C301.75 104.35 301.97 105.33 301.17 106C300.89 106.23 300.67 106.61 300.67 106.86C300.67 107.1 300.48 107.42 300.25 107.57C299.77 107.87 299 109.16 299 109.65C299 109.86 299.3 109.85 299.81 109.62C301.47 108.86 302.3 110.29 301.15 111.93C300.69 112.58 300.34 112.67 298.04 112.67C296.61 112.67 295.34 112.57 295.22 112.44ZM285.5 109.12C284.02 108.34 281.99 106.31 281.46 105.09C280.72 103.36 280.87 100.56 281.82 98.69C282.52 97.32 282.97 96.9 284.71 96.03C287.09 94.84 289.92 94.6 290.69 95.53C290.97 95.87 291.44 96 292 95.88C293.21 95.64 293.6 95.99 293.85 97.53C294.11 99.18 293.42 100.04 292.54 99.15C292.24 98.86 292 98.49 292 98.34C292 97.93 289.73 96.67 288.99 96.67C288.64 96.67 287.75 96.98 287.02 97.36C285.53 98.14 285 99.36 285.01 102C285.02 104.56 285.54 106.08 286.73 107.07C288.11 108.21 289.12 108.24 290.39 107.17C291.49 106.24 293.33 106.02 293.33 106.81C293.33 107.07 292.68 107.82 291.88 108.48C290.58 109.55 290.24 109.67 288.47 109.65C287.35 109.65 286.07 109.41 285.5 109.12ZM18.44 106.05C17.59 105.79 16.33 104.29 16.33 103.52C16.33 103.23 16.7 102.82 17.14 102.62C17.83 102.3 18.15 102.4 19.46 103.34C21.18 104.57 21.78 104.41 22.18 102.61C22.36 101.8 22.23 101.43 21.49 100.66C21 100.14 20.16 99.54 19.63 99.32C18.37 98.8 18.24 97.33 19.45 97.33C20.52 97.33 21.36 96.34 21.1 95.36C20.91 94.64 20.78 94.6 19.12 94.77C17.87 94.9 17.33 94.83 17.33 94.56C17.34 93.81 18.66 92 19.25 91.95C22.44 91.67 22.74 91.71 23.5 92.53C24.45 93.56 24.69 94.73 24.24 96.2C23.94 97.18 24 97.55 24.64 98.69C25.51 100.24 25.4 101.73 24.32 103.1C23.96 103.56 23.67 104.06 23.67 104.2C23.67 104.35 23.26 104.88 22.77 105.4C22.06 106.14 21.59 106.33 20.52 106.3C19.78 106.28 18.84 106.17 18.44 106.05ZM31.45 104.58C31.14 103.99 30.47 102.22 29.97 100.67C28.48 96.08 28.16 95.36 27.05 94.07C25.5 92.27 25.74 91.85 28.34 91.77C31.57 91.68 32.67 91.91 32.67 92.67C32.67 93.02 32.37 93.47 32 93.67C31.16 94.11 31.14 95.33 31.95 96.37C32.29 96.81 32.66 97.54 32.78 98C33.09 99.21 33.54 99.79 33.96 99.52C34.17 99.4 34.33 99.01 34.33 98.67C34.33 98.32 34.48 97.95 34.67 97.83C34.85 97.72 35 97.33 35 96.96C35 96.6 35.24 95.83 35.54 95.26C36.04 94.3 36.04 94.18 35.54 93.82C35.24 93.6 35 93.11 35 92.71C35 92.07 35.18 92 36.77 92C37.74 92 38.81 92.2 39.15 92.45C39.73 92.87 39.69 92.97 38.58 94.2C37.93 94.93 37.08 96.4 36.7 97.48C36.32 98.56 35.74 99.76 35.4 100.14C35.07 100.52 34.52 101.73 34.19 102.83C33.25 105.98 32.45 106.49 31.45 104.58ZM40.31 105.32C40.01 105.13 39.85 104.26 39.95 103.27C39.99 102.76 40.62 102.71 46.21 102.71C50.09 102.72 52.54 102.59 52.76 102.37C53 102.14 53.15 92.85 53.23 73.77C53.29 58.24 53.45 45.44 53.59 45.34C53.72 45.25 62.01 45.24 72 45.33C89.09 45.49 90.23 45.46 91.23 44.9C92.07 44.42 92.68 44.34 94.24 44.52C95.82 44.69 96.28 44.63 96.64 44.2C96.96 43.81 97.68 43.66 99.29 43.65C100.57 43.65 101.85 43.44 102.33 43.17C102.79 42.9 103.99 42.68 105 42.67C106.01 42.65 107.21 42.43 107.67 42.17C108.12 41.9 109.35 41.68 110.4 41.68C111.44 41.67 112.39 41.52 112.5 41.33C112.61 41.15 113.75 41 115.04 41C116.43 41 117.75 40.8 118.31 40.51C118.83 40.24 120.13 39.94 121.21 39.85C125.81 39.43 128.01 39.07 128.51 38.66C128.84 38.38 129.8 38.24 131.06 38.27C132.62 38.31 133.26 38.18 133.91 37.66C134.42 37.26 135.26 37 136.03 37C136.73 37 137.68 36.83 138.14 36.62C139.91 35.81 140.69 37.9 139.16 39.34C138.24 40.2 136.34 40.61 131.85 40.89C130.37 40.98 128.9 41.26 128.53 41.53C128.16 41.79 127.36 42 126.75 42C126.15 42 124.87 42.27 123.91 42.61C122.88 42.96 121.6 43.16 120.79 43.07C119.85 42.98 119.12 43.12 118.53 43.51C117.84 43.96 117.25 44.04 115.74 43.87C114.29 43.7 113.65 43.77 113.16 44.15C112.75 44.46 111.74 44.65 110.46 44.66C109.06 44.66 108.28 44.82 108 45.17C107.72 45.51 106.96 45.67 105.61 45.67C104.35 45.67 103.34 45.86 102.81 46.21C102.17 46.63 101.53 46.71 100.02 46.55C98.42 46.39 97.92 46.46 97.28 46.96C96.85 47.3 95.67 47.7 94.67 47.85C93.66 48 84.4 48.11 74.08 48.1L55.33 48.07L55.25 63.95C55.12 87.89 55.19 90.32 56 91.07C56.84 91.86 56.84 92.36 55.99 93.44C55.38 94.22 55.32 94.7 55.41 98.56L55.5 102.82L57.33 102.83C71.01 102.94 71.63 102.98 72 103.66C72.28 104.18 72.21 104.46 71.66 105.01C70.97 105.7 70.78 105.7 55.78 105.6C47.43 105.55 40.47 105.42 40.31 105.32ZM198.96 94.19C198.89 94.12 192.16 93.96 184 93.84C174.34 93.68 169.02 93.48 168.73 93.25C168.49 93.05 168.34 92.5 168.4 92.03L168.5 91.17L175.47 91.08C179.93 91.02 182.61 90.85 182.89 90.62C183.52 90.09 183.55 49.84 182.92 49.44C182.69 49.29 180.47 49.16 178 49.16C163.82 49.13 139.45 48.56 139.08 48.26C138.85 48.07 138.67 47.5 138.67 46.99C138.67 46.47 138.85 45.99 139.08 45.91C139.53 45.76 163.12 45.86 195.37 46.16C212.67 46.31 215.4 46.27 216.45 45.83C217.22 45.51 218.13 45.4 218.93 45.53C219.76 45.66 220.65 45.54 221.47 45.2C222.18 44.91 223.34 44.67 224.07 44.67C224.91 44.67 225.72 44.41 226.28 43.97C226.98 43.42 227.43 43.32 228.57 43.49C229.45 43.63 230.26 43.55 230.74 43.29C231.52 42.86 233.64 42.47 237.17 42.12C238.4 42 239.42 41.69 239.83 41.32C240.27 40.93 241.26 40.66 242.67 40.53C248.23 40.05 249.19 39.92 249.48 39.64C249.66 39.47 250.49 39.33 251.34 39.33C252.53 39.33 253.05 39.15 253.63 38.54C254.3 37.82 254.75 37.73 258.43 37.51C261.69 37.31 262.64 37.14 263.3 36.62C263.89 36.16 264.4 36.03 265.08 36.19C265.75 36.33 266.24 36.22 266.66 35.84C267.42 35.15 268.45 35.29 268.61 36.11C269 38.15 267.29 39.57 265.22 38.93C264.11 38.59 263.96 38.62 263.34 39.42C262.82 40.08 262.27 40.31 260.92 40.46C256.19 40.95 254.65 41.21 254.28 41.59C254.05 41.82 253.09 42 252.15 42C250.85 42 250.29 42.16 249.82 42.68C249.35 43.2 248.83 43.35 247.52 43.32C245.08 43.27 240.95 43.79 240.11 44.26C239.7 44.49 238.65 44.67 237.76 44.67C236.86 44.67 235.95 44.85 235.72 45.08C235.49 45.31 234.56 45.51 233.65 45.52C232.48 45.55 231.86 45.73 231.56 46.14C231.25 46.56 230.54 46.76 228.98 46.85C224.67 47.1 222.69 47.4 222.31 47.86C222.09 48.12 221.36 48.33 220.67 48.33C219.94 48.33 219.23 48.55 218.99 48.85C218.61 49.3 216.63 49.36 202.43 49.31C193.55 49.29 186.25 49.32 186.19 49.38C186.13 49.45 186.03 58.8 185.96 70.17L185.83 90.83L193.05 90.92C200.96 91.02 201.49 91.15 200.73 92.82C200.39 93.57 199.24 94.46 198.96 94.19ZM314.5 90.67C305.85 90.5 305.83 90.5 305.73 89.76L305.62 89.01L312.89 88.92L320.17 88.83L320.17 69.5L320.17 50.17L318.5 50.11C314.41 49.96 290.18 49.69 280.41 49.68L269.65 49.67L269.28 48.86C269.08 48.41 269 47.7 269.11 47.27L269.3 46.5L295.72 46.61C311.66 46.68 322.38 46.85 322.74 47.04C323.3 47.34 323.33 48.53 323.33 68.13L323.33 88.9L325.88 89.12C327.29 89.24 330.43 89.33 332.86 89.33C337.23 89.33 338.23 89.57 337.37 90.43C336.95 90.85 328.46 90.94 314.5 90.67ZM105.17 37.25C104.46 36.85 104.54 35.55 105.33 34.83C105.88 34.34 106 33.81 106 31.82C106 30.09 105.86 29.3 105.5 29C104.73 28.36 104.9 27.53 105.99 26.73C107.15 25.87 108.18 25.79 108.46 26.53C108.58 26.82 108.67 28.83 108.67 31.01C108.67 33.28 108.81 35.05 109 35.17C109.55 35.51 109.38 36.95 108.75 37.29C108.04 37.67 105.88 37.65 105.17 37.25ZM237.17 34.75C234.56 34.55 234.25 33.29 236.34 31.41C237.84 30.07 239.14 27.77 238.94 26.8C238.83 26.27 238.56 26.18 237.24 26.27C235.79 26.36 235.67 26.31 235.67 25.6C235.68 24.55 236.02 24.1 237.11 23.69C238.7 23.08 239.67 23.27 240.7 24.37C241.98 25.74 241.97 27.12 240.67 29.03C239.37 30.96 239.37 31.48 240.68 31.21C241.94 30.96 242.21 31.51 241.67 33.16C241.26 34.4 240.46 35.04 239.44 34.94C239.11 34.91 238.09 34.82 237.17 34.75ZM97.33 34.1C97.06 34 96.58 33.69 96.26 33.42C95.91 33.11 95.38 33 94.86 33.13C93.77 33.4 93.33 32.6 93.33 30.36C93.33 29.18 93.47 28.67 93.78 28.67C94.28 28.67 95.47 29.9 95.76 30.72C96.01 31.43 98.37 31.85 99.31 31.35C100.49 30.72 99.99 29 98.63 29C98.31 29 97.71 28.69 97.28 28.32C96.85 27.95 96.02 27.35 95.44 27C93.76 26 93.23 23.44 94.2 21.01C94.61 19.98 94.98 19.61 95.83 19.38C97.2 19 101.22 19.29 101.62 19.8C101.78 20 101.99 20.72 102.09 21.39C102.23 22.3 102.13 22.74 101.7 23.14C100.85 23.91 100.44 23.79 100.05 22.66C99.5 21.08 96.91 20.38 96.49 21.7C96.19 22.63 97.34 23.82 99.63 24.95C102 26.12 102.78 27.19 102.81 29.31C102.83 30.76 102.69 31.11 101.67 32.18C99.9 34.01 98.63 34.57 97.33 34.1ZM228.82 31.11C228.28 30.81 227.31 30.48 226.67 30.37L225.5 30.16L225.4 28.08C225.35 26.94 225.42 26 225.58 26C225.73 26 226.49 26.68 227.28 27.52C228.58 28.9 228.83 29.03 230.07 28.93C231.63 28.82 232.39 28.02 231.81 27.11C231.61 26.8 231.24 26.45 230.98 26.33C227.87 24.91 226.41 23.71 225.88 22.15C225.43 20.82 225.43 20.48 225.87 18.97C226.53 16.77 227.73 16.18 230.89 16.52C233.57 16.81 234 17.19 233.67 19.01C233.41 20.4 232.7 21.47 232.45 20.83C232 19.68 231.38 18.87 230.59 18.39C229.71 17.87 229.64 17.88 228.94 18.58C228.27 19.25 228.25 19.38 228.69 20.2C228.96 20.72 229.8 21.36 230.66 21.74C232.18 22.38 233.67 23.54 233.67 24.07C233.67 24.23 233.99 24.79 234.38 25.32C235.31 26.58 235.06 27.4 233.08 29.54C231.26 31.5 230.23 31.87 228.82 31.11Z" fill="#1e2749" fill-rule="evenodd"/>
</svg>
