<?xml version="1.0" encoding="UTF-8"?>
<svg xmlns="http://www.w3.org/2000/svg" viewBox="0 0 2430 590" width="2430" height="590" shape-rendering="geometricPrecision">
<path d="M206.38 562.56C206.06 561.72 207.98 558.53 210.97 554.94C215.13 549.94 216.05 548.17 215.8 545.63C215.55 543.01 215.03 542.45 212.63 542.17C211.05 541.99 209.27 542.33 208.68 542.92C207.16 544.44 206 544.26 206 542.5C206 540.04 209.79 537 212.87 537C216.72 537 221 540.49 221 543.64C221 546.6 219.72 549.21 215.86 554.14C211.8 559.31 212.1 560.26 217.5 559.45C222.2 558.74 223.52 560.08 220.8 562.8C219.01 564.59 207.09 564.39 206.38 562.56ZM178.76 555C169.41 552.19 164 544.16 164 533.12C164 521.08 170.3 513.44 181.14 512.33C194.86 510.92 203.92 519.2 203.98 533.18C204.01 540.32 203.05 542.83 198.29 548.1C192.32 554.73 185.67 557.08 178.76 555ZM119.75 554.36C117.42 553.69 117.54 553.15 120.5 550.82C122.95 548.89 123 548.6 123 534.86C123 520 122.39 517.48 118.44 515.98C117.1 515.47 116 514.36 116 513.52C116 512.35 117.23 512 121.42 512L126.85 512L138.17 525.89C144.4 533.53 149.84 539.58 150.25 539.33C150.66 539.08 151 534.39 151 528.9C151 519.56 150.84 518.75 148.48 516.39C145.18 513.09 146.05 512 151.98 512C159.43 512 160.58 512.74 157.52 515.57C155.01 517.89 155 517.98 155 535.39C155 546.66 154.62 553.12 153.94 553.54C152.42 554.48 149.98 552.06 138.73 538.5C133.25 531.9 128.43 526.37 128.01 526.21C127.6 526.05 127.47 531.23 127.72 537.71C128.13 548.01 128.45 549.72 130.24 551.28C131.36 552.25 132 553.33 131.66 553.67C130.84 554.49 121.97 555.01 119.75 554.36ZM190.73 547.77C195.86 542.81 197.24 534.84 194.67 525.03C192.71 517.54 183.94 513.55 178.22 517.56C174.16 520.4 172.58 524.86 172.58 533.5C172.58 542.36 174.06 546.33 178.71 549.99C182.29 552.8 186.31 552.06 190.73 547.77ZM135.95 490.9C135.15 489.41 134.48 477.22 133.89 453.69C133.42 434.44 132.91 418.6 132.76 418.48C132.62 418.36 128.22 415.67 123 412.5C117.78 409.33 110.8 405.04 107.5 402.97C104.2 400.91 87.1 390.32 69.5 379.45C51.9 368.59 34.98 357.99 31.91 355.92L26.31 352.14L25.66 340.82C25.3 334.59 25.01 305.15 25 275.39L25 221.27L43.75 209.78C54.06 203.45 73.3 191.61 86.5 183.46C99.7 175.31 115.45 165.6 121.5 161.89L132.5 155.15L133.13 144.83C133.47 139.15 133.86 125.28 133.99 114C134.29 86.76 134.86 81.59 137.59 81.2C142.14 80.55 142.34 81.99 142.81 119.51L143.26 154.89L164.88 168.11C191.35 184.3 227.94 206.97 241.78 215.74L252.06 222.25L251.78 286.1C251.51 348.46 251.45 349.99 249.5 351.85C246.67 354.56 203.69 381.62 155.4 411.11L143.3 418.5L142.58 453C141.88 487.06 141.38 491.74 138.32 492.74C137.67 492.95 136.6 492.12 135.95 490.9ZM148.35 405.33C158.96 398.76 166.17 394.33 209 368.05C226.32 357.42 241.21 348.11 242.09 347.35C243.5 346.13 243.68 339.55 243.7 286.43L243.73 226.87L241.61 225.56C240.45 224.84 232.88 220.15 224.78 215.14C198.6 198.91 148.64 168.46 143.4 165.52L138.29 162.66L130.4 166.98C123.6 170.69 87.73 192.58 46.74 218.01L34.98 225.31L35.24 286.89L35.5 348.47L83 377.67C109.12 393.73 131.85 407.77 133.5 408.87C135.15 409.98 137.11 410.9 137.85 410.94C138.59 410.97 143.31 408.45 148.35 405.33ZM130 388.16C120.11 382.36 90.97 364.31 67.19 349.26C47.55 336.81 45.91 335.56 46.19 333.13C46.45 330.91 46.95 330.53 49.4 330.71C54.08 331.05 137.85 382.24 140.45 386.35C141.14 387.45 140.89 388.47 139.55 389.94C138.53 391.07 137.42 391.99 137.1 391.98C136.77 391.97 133.57 390.25 130 388.16ZM1985.53 375.25C1983.44 373.19 1980.34 368.57 1978.65 365C1975.95 359.29 1975.58 357.47 1975.62 350C1975.68 338.25 1979.75 329.56 1987.37 324.92C1992.7 321.67 1993.48 322.7 1989.44 327.64C1984.84 333.25 1983 339.69 1983 350.17C1983 360.73 1984.56 367.13 1988.53 372.9C1991.55 377.29 1991.96 379 1990 379C1989.63 379 1987.62 377.31 1985.53 375.25ZM2028 377.69C2028 376.96 2029.34 375.09 2030.98 373.52C2035.75 368.95 2037.5 362.99 2037.47 351.5C2037.44 339.78 2035.46 332.78 2030.97 328.47C2027.86 325.49 2027.09 323 2029.29 323C2031.69 323 2039.89 332.47 2042.57 338.34C2044.64 342.9 2045.24 345.76 2045.26 351.34C2045.29 360.29 2042.66 366.32 2035.47 373.75C2030.44 378.94 2028 380.23 2028 377.69ZM2109 373.06C2109 371.5 2109.81 371.05 2113.15 370.81C2115.86 370.61 2117.68 369.87 2118.4 368.67C2119.32 367.15 2118.94 366.37 2116.06 363.94L2112.62 361.04L2114.81 358.7C2118.85 354.4 2116.61 350.49 2111.44 352.85C2109.31 353.82 2109 353.71 2109 352.01C2109 347.55 2117.92 346.42 2120.62 350.54C2121.98 352.62 2122.07 353.55 2121.11 355.66C2120.16 357.75 2120.22 358.69 2121.47 360.59C2125.63 366.94 2120.36 375 2112.05 375C2109.7 375 2109 374.56 2109 373.06ZM2141.84 366.57C2135.69 364.22 2133.2 362.05 2130.55 356.72C2123.8 343.19 2130.55 326.39 2143.5 324.45C2152.69 323.07 2159.78 325.54 2163.9 331.56C2168 337.54 2169.19 342.52 2168.03 348.81C2165.58 362.04 2152.76 370.73 2141.84 366.57ZM1996.66 366.29C1995.29 365.94 1994.99 365.26 1995.48 363.66C1998.37 354.2 1998.33 344.45 1995.4 343.32C1992.84 342.34 1993.96 339.92 1997.69 338.35C2003.16 336.07 2004 337.77 2004 351.13C2004 361.03 2004.17 362.01 2006.17 363.4L2008.33 364.92L2005.6 365.96C2002.8 367.03 1999.91 367.13 1996.66 366.29ZM2014.75 366.36C2012.63 365.75 2012.56 364.16 2014.53 361.56C2015.51 360.27 2016 357.21 2016 352.46C2016 346.58 2015.64 344.99 2014 343.5C2011.23 340.99 2011.47 340.12 2015.44 338.46C2021.96 335.74 2022.97 337.54 2022.99 351.92C2023 359.28 2023.36 361.74 2024.66 363.18C2025.57 364.19 2026.05 365.29 2025.71 365.62C2024.88 366.45 2016.92 366.99 2014.75 366.36ZM2066.04 366.11C2064.82 365.29 2065.04 364.76 2067.29 362.99L2070 360.85L2070 344.91L2070 328.96L2067.5 327.82C2062.57 325.57 2065.19 323.99 2073.83 324.02C2080.87 324.03 2083.24 325.21 2080.15 327.14C2078.28 328.31 2078 329.4 2078 335.63C2078 343.78 2078.21 344 2086.15 344C2093.77 344 2095 342.95 2095 336.42C2095 331.82 2094.57 330.48 2092.41 328.32C2089.07 324.98 2090.42 324.03 2098.5 324.03C2106.09 324.03 2108.12 325.1 2104.85 327.39C2102.61 328.96 2102.48 329.67 2102.17 342.68C2101.77 359.08 2102.32 362.8 2105.31 363.95C2107.45 364.77 2107.43 364.82 2104.68 365.9C2100.09 367.7 2091 367 2091 364.84C2091 364.33 2091.93 362.66 2093.07 361.12C2095.2 358.23 2096.24 349.91 2094.67 348.33C2094.21 347.88 2090.28 347.35 2085.92 347.15L2078 346.79L2078 354.34C2078 360.97 2078.27 362.07 2080.19 363.42C2081.39 364.26 2082.09 365.25 2081.73 365.61C2080.6 366.74 2067.57 367.15 2066.04 366.11ZM2152.01 361.75C2153.83 360.51 2156.22 358.28 2157.32 356.79C2161.45 351.21 2160.34 335.55 2155.49 330.99C2154.05 329.64 2151.35 328.57 2148.61 328.26C2144.61 327.81 2143.76 328.08 2141.16 330.69C2133.78 338.07 2135.01 356.99 2143.19 361.97C2147.36 364.52 2147.97 364.5 2152.01 361.75ZM1060.26 341.75C1060.53 340.51 1062.84 332.9 1065.38 324.83C1067.92 316.77 1070 309.62 1070 308.95C1070 307.17 1057.66 308.33 1054.5 310.41C1052.06 312.01 1052 311.99 1052 309.47C1052 308.06 1052.69 305.56 1053.54 303.92L1055.09 300.93L1065.79 301.22C1075.91 301.48 1076.52 301.62 1076.81 303.66C1077.18 306.26 1066.71 338.54 1064.46 341.75C1063.6 342.99 1062.18 344 1061.33 344C1060.23 344 1059.91 343.33 1060.26 341.75ZM1084.25 343.39C1083.56 343.08 1083 341.69 1083 340.29C1083 337.76 1083.05 337.75 1089.1 338.43C1096.63 339.28 1099 337.73 1099 331.92C1099 329.03 1098.38 327.66 1096.37 326.07C1094.92 324.93 1093.1 324 1092.33 324C1089.31 324 1089.81 320.89 1093.38 317.42C1095.37 315.49 1097 313.03 1097 311.95C1097 309.47 1093.58 306 1091.13 306C1090.11 306 1088.13 306.9 1086.73 308C1085.33 309.1 1083.92 310 1083.59 310C1082.08 310 1083.25 306.03 1085.45 303.65C1087.49 301.45 1088.77 301 1093.03 301C1097.4 301 1098.6 301.44 1101.19 304.03C1104.44 307.28 1104.56 309.26 1101.91 315.72C1100.7 318.66 1100.78 319.14 1102.88 321.37C1110.4 329.38 1102.98 342.93 1090.68 343.65C1087.83 343.81 1084.94 343.7 1084.25 343.39ZM1171 342.9C1171 342.3 1173.25 334.73 1176 326.1C1178.75 317.46 1181 310.08 1181 309.7C1181 308.24 1167.47 308.98 1165.22 310.56C1163.19 311.98 1163 311.97 1163 310.42C1163 309.49 1163.52 306.99 1164.16 304.87L1165.32 301L1175.08 301C1186.19 301 1188 301.44 1188 304.14C1188 306.86 1177.34 338.84 1175.49 341.66C1173.91 344.06 1171 344.87 1171 342.9ZM1201.31 342.54C1197.98 341.08 1195 336.58 1195 332.98C1195 330.42 1196.55 327.27 1199.29 324.26C1201.14 322.23 1201.19 321.86 1199.79 320.26C1197.42 317.57 1195 312.35 1195 309.95C1195 308.77 1196.53 306.27 1198.4 304.4C1201.27 301.53 1202.51 301 1206.33 301C1212.53 301 1215.62 302.37 1217.45 305.91C1219.69 310.23 1219.42 311.53 1215.38 316L1211.77 320L1215.28 323.89C1220.05 329.17 1220.79 332.99 1217.93 337.62C1214.37 343.38 1207.75 345.34 1201.31 342.54ZM1020 341.34C1020 340.42 1022.71 336.62 1026.03 332.89C1036.6 321 1039.44 313.44 1035 309C1032.33 306.33 1029.05 306.48 1024.64 309.47C1021.14 311.85 1021 311.86 1021 309.92C1021 307.11 1023.6 302.37 1025.54 301.62C1028.45 300.51 1035.04 300.97 1037.99 302.49C1046.8 307.05 1045.86 315.33 1035.02 328.69C1032.26 332.1 1030 335.42 1030 336.06C1030 337.31 1039.22 336.89 1043.9 335.44C1046.14 334.74 1046.25 334.88 1045.57 337.59C1044.27 342.74 1043.59 343 1031.38 343C1021.43 343 1020 342.79 1020 341.34ZM1132 341.46C1132 340.61 1134.9 336.59 1138.44 332.53C1145.64 324.27 1149.01 318.45 1148.98 314.29C1148.97 310.94 1148.21 309.67 1145.32 308.15C1142.14 306.48 1140.72 306.7 1136.52 309.55C1134.46 310.95 1132.52 311.86 1132.23 311.56C1131.32 310.66 1135.24 302.94 1137.11 301.94C1139.78 300.51 1146.74 300.82 1149.99 302.49C1158.8 307.05 1157.86 315.33 1147.02 328.78C1144.26 332.21 1142 335.51 1142 336.13C1142 337.29 1151.38 336.85 1155.75 335.47C1157.54 334.91 1158 335.15 1158 336.66C1158 337.7 1157.3 339.56 1156.44 340.78C1154.99 342.85 1154.13 343 1143.44 343C1133.8 343 1132 342.76 1132 341.46ZM1223 342.12C1223 341.63 1224.12 340.49 1225.5 339.59C1228 337.96 1228 337.94 1228 321.64L1228 305.32L1225.5 304.18C1220.81 302.05 1222.78 301 1231.5 301C1240.15 301 1241.62 301.76 1237.95 304.32C1236.19 305.55 1235.94 306.64 1236.2 311.93L1236.5 318.11L1242.33 312.54C1247.57 307.54 1248.09 306.68 1247.5 303.99L1246.84 301L1254 301C1262.04 301 1262.63 301.95 1257.01 305.76C1252.02 309.14 1243 317.93 1243 319.41C1243 321.23 1261.38 338.81 1264.53 340.01C1269.19 341.78 1266.05 343 1256.82 343C1247.92 343 1247.78 342.96 1248.36 340.75C1248.82 338.96 1247.77 337.31 1243.25 332.75C1240.12 329.59 1237.21 327 1236.78 327C1236.35 327 1236 329.68 1236 332.96C1236 337.93 1236.34 339.11 1238.03 340.01C1239.14 340.61 1239.79 341.53 1239.47 342.05C1238.73 343.25 1223 343.31 1223 342.12ZM220.31 339.75C219.35 338.26 218.55 244.21 219.46 239.36C220.03 236.32 220.42 236 223.55 236L227 236L227 287.3C227 325.87 226.7 338.9 225.8 339.8C224.24 341.36 221.34 341.34 220.31 339.75ZM1212.44 338.07C1214.73 335.54 1213.91 333.29 1208.93 328.45C1205.01 324.64 1204.82 324.57 1203.43 326.44C1201.5 329.06 1201.58 336.44 1203.57 338.43C1205.73 340.59 1210.33 340.4 1212.44 338.07ZM1114.25 331.34C1113.56 331.06 1113 330.03 1113 329.05C1113 326.86 1118.23 325.8 1124.65 326.68C1129.32 327.32 1130.38 329.19 1127.07 330.96C1125.11 332.01 1116.54 332.26 1114.25 331.34ZM1998.67 329.33C1998.3 328.97 1998 327.36 1998 325.77C1998 323.2 1998.31 322.9 2000.74 323.18C2004.06 323.57 2005.04 326.77 2002.42 328.68C2000.39 330.17 1999.63 330.3 1998.67 329.33ZM2016.81 327.47C2015.33 324.23 2016.86 322.5 2020.43 323.39C2023.45 324.15 2023.73 326.03 2021.17 328.35C2018.73 330.56 2018.16 330.44 2016.81 327.47ZM2170.26 321.47C2166.6 318.9 2164.76 308.4 2166.96 302.61C2167.48 301.23 2169.26 299.4 2170.91 298.55C2180.76 293.45 2190.6 301.86 2187.78 312.96C2185.72 321.07 2176.26 325.67 2170.26 321.47ZM2174.67 313.58C2174.34 312.71 2173.37 312 2172.53 312C2170.92 312 2170.57 313.73 2171.64 316.5C2172.2 317.97 2172.44 317.99 2173.77 316.66C2174.6 315.83 2175 314.45 2174.67 313.58ZM2181.8 316.8C2183.73 314.87 2183.26 312 2181 312C2179.44 312 2179 312.67 2179 315C2179 318.2 2179.85 318.75 2181.8 316.8ZM1212.42 308.68C1211.37 305.23 1209.96 304 1207.08 304C1201.43 304 1200.04 310.28 1204.73 314.63L1207.47 317.16L1210.28 314.01C1212.33 311.72 1212.91 310.27 1212.42 308.68ZM2182.41 304.28C2180.87 301.85 2179 301.54 2179 303.72C2179 306.31 2181.1 308.3 2182.43 306.97C2183.13 306.27 2183.12 305.42 2182.41 304.28ZM2174.04 305.46C2174.94 304.36 2175.01 303.61 2174.24 302.84C2172.81 301.41 2171 302.65 2171 305.06C2171 307.39 2172.29 307.56 2174.04 305.46ZM1381.5 302.03C1374.76 300.47 1369.09 296.02 1367.07 290.68C1365.32 286.08 1365.79 274.06 1367.9 269.42C1371.58 261.32 1377.6 258.69 1391.13 259.29C1401.49 259.75 1401.8 259.99 1401.93 267.69C1402.02 272.93 1400.56 273.98 1398.56 270.12C1395.98 265.13 1392.37 263 1386.5 263C1382.28 263 1380.8 263.47 1378.8 265.47C1373.99 270.28 1372.38 283.26 1375.75 289.98C1377.85 294.16 1383.26 298 1387.05 298C1388.56 298 1392.14 296.43 1395 294.5C1402.92 289.17 1404.65 290.06 1398.25 296.18C1392.51 301.67 1387.51 303.41 1381.5 302.03ZM535 299.55C535 298.7 535.44 298 535.99 298C537.21 298 541.34 289.87 548.58 273.25C551.63 266.24 554.53 260.09 555.02 259.59C556.8 257.79 558.91 261.33 566.07 278.1C570.68 288.9 574.22 295.82 575.75 297.02C579.41 299.89 577.65 301 569.44 301C561.88 301 560.23 300.02 563.62 297.53C565.11 296.45 565.07 295.95 563.18 291.67C561.13 287.04 561.07 287 556.31 287.01C553.66 287.02 550.52 287.29 549.31 287.61C545.79 288.56 543.31 298 546.58 298C547.45 298 547.98 298.56 547.75 299.25C547.5 300.02 544.99 300.61 541.17 300.8C536.14 301.04 535 300.81 535 299.55ZM898.46 299.94C898.1 299.35 898.52 298.08 899.4 297.11C900.72 295.66 901 292.68 901 280.31C901 266.78 900.8 265.01 899 262.73C897.9 261.33 897 259.86 897 259.47C897 259.08 902.51 258.95 909.25 259.19C922.51 259.66 926.11 260.78 929.91 265.61C932.7 269.16 932.54 272.2 929.36 275.98L926.72 279.12L929.86 282.36C935.71 288.39 932.74 297.59 924.19 299.97C919.25 301.34 899.31 301.31 898.46 299.94ZM1834.47 299.95C1834.03 299.25 1834.41 298.35 1835.36 297.82C1836.78 297.02 1837 294.62 1837 279.99C1837 264.09 1836.88 263.01 1835 262C1833.9 261.41 1833 260.43 1833 259.82C1833 258.04 1857.59 259.37 1862.46 261.42C1870.98 264.98 1874.48 271.08 1873.76 281.12C1873.16 289.52 1870.89 293.56 1864.54 297.49C1859.93 300.34 1859.01 300.52 1847.44 300.83C1838.64 301.07 1835.01 300.82 1834.47 299.95ZM2370.5 300C2370.16 299.45 2371.15 297.92 2372.69 296.59L2375.5 294.17L2375.5 279.5C2375.5 265.49 2375.4 264.74 2373.25 263C2368.86 259.45 2370.33 259 2386.39 259L2401.77 259L2402.27 262.25C2402.54 264.04 2402.37 266.25 2401.88 267.18C2401.11 268.66 2400.66 268.51 2398.08 265.93C2395.5 263.35 2394.45 263 2389.21 263L2383.27 263L2382.64 267.64C2381.35 277.02 2381.34 277 2387.35 277C2391.42 277 2393.12 276.52 2394.5 275C2397.36 271.84 2398 272.58 2398 279C2398 285.08 2397.25 286.21 2395 283.5C2394.15 282.47 2391.87 282 2387.76 282L2381.77 282L2382.19 288.57C2382.67 296.25 2383.4 296.96 2390.72 296.98C2395.1 297 2396.48 296.52 2399.35 294C2401.23 292.35 2403.27 291 2403.88 291C2405.61 291 2405.2 294.16 2403.01 297.75L2401.03 301L2386.07 301C2377.2 301 2370.87 300.59 2370.5 300ZM494.67 299.33C493.15 297.82 494.31 295.75 500.11 289.54L506.23 283L416.86 282.87C367.71 282.79 320.52 282.46 312 282.12C297.37 281.53 296.5 281.39 296.5 279.5C296.5 277.6 297.38 277.47 314.5 276.87C324.4 276.53 370.84 276.19 417.69 276.12C470.59 276.05 503.11 275.64 503.47 275.05C503.8 274.52 501.8 271.59 499.03 268.53C493.78 262.73 492.55 259 495.9 259C497.89 259 517 276.96 517 278.84C517 280.19 497.63 300 496.3 300C495.77 300 495.03 299.7 494.67 299.33ZM855 297.39C855 295.64 856.71 292.92 860.16 289.14L865.33 283.5L860.41 283.27C857.71 283.14 798.26 282.92 728.3 282.77C597.36 282.49 596.15 282.45 599.79 278.81C600.69 277.91 632.57 277.53 731.74 277.25C803.66 277.04 863.11 276.67 863.84 276.43C864.75 276.13 863.52 274.06 860.09 270.11C855.13 264.38 853.28 259 856.27 259C856.97 259 862.24 263.72 868 269.5L878.46 280L875.98 282.33C861.69 295.81 856.97 300 856.06 300C855.48 300 855 298.83 855 297.39ZM1323 297.43C1323 295.66 1324.78 292.98 1328.65 288.93L1334.3 283L1162.9 282.87C985.57 282.73 952.94 282.34 952.29 280.37C952.08 279.75 952.72 278.91 953.71 278.49C954.69 278.08 1040.1 277.54 1143.5 277.3C1246.9 277.07 1332.16 276.65 1332.97 276.38C1333.92 276.07 1334.07 275.64 1333.38 275.2C1332.8 274.81 1330.22 272.12 1327.66 269.22C1322.73 263.62 1321.43 259 1324.8 259C1327.1 259 1344 277.61 1344 280.16C1344 281.57 1325.78 300 1324.38 300C1323.56 300 1323 298.95 1323 297.43ZM1790 297.43C1790 295.67 1791.75 293.02 1795.5 289.09L1800.99 283.33L1614.25 282.63C1511.54 282.24 1425.74 281.6 1423.58 281.21C1417.95 280.18 1418.02 278.38 1423.71 277.66C1426.35 277.32 1511.75 276.77 1613.5 276.44C1715.25 276.11 1799.12 275.64 1799.88 275.4C1800.81 275.11 1799.4 273.01 1795.63 269.05C1790.25 263.41 1788.39 259 1791.39 259C1793.07 259 1812 277.65 1812.01 279.32C1812.02 280.7 1792.39 300 1790.96 300C1790.43 300 1790 298.84 1790 297.43ZM2319 297.93C2319 296.78 2321.45 293.28 2324.5 290.09L2330 284.32L2132.75 283.53C1918.78 282.68 1899.5 282.39 1899.5 280C1899.5 278.69 1907.44 278.42 1962.5 277.89C1997.15 277.56 2093.76 277.22 2177.19 277.14C2312.35 277.02 2333.45 276.7 2329.26 274.84C2328.84 274.65 2326.36 272.16 2323.75 269.29C2319.08 264.18 2317.6 260 2320.44 260C2322.52 260 2334.39 270.33 2338.49 275.69L2341.96 280.24L2340.02 282.7C2336.97 286.58 2321.64 299.99 2320.25 299.99C2319.56 300 2319 299.07 2319 297.93ZM920.66 295.07C928.45 290.31 924.48 283.17 913.25 281.73L909 281.19L909 289.1L909 297L913.25 297C915.68 296.99 918.85 296.17 920.66 295.07ZM1856.28 295.63C1866.82 291.14 1869.16 275.96 1860.62 267.42C1857.02 263.82 1850.47 262.14 1847.07 263.96C1845.11 265.01 1845 265.9 1845 281.04L1845 297L1849.03 297C1851.25 297 1854.51 296.38 1856.28 295.63ZM558.66 282.45C559.31 280.75 556.2 273 554.87 273C553.82 273 550 280.42 550 282.46C550 284.64 557.82 284.62 558.66 282.45ZM921.47 275.03C925.98 270.05 922.21 264.01 914.08 263.23L909 262.75L909 269.87L909 277L914.35 277C918.39 277 920.12 276.52 921.47 275.03ZM1511.73 273.4C1509.93 271.59 1511.15 270 1514.35 270C1517.37 270 1521 267.61 1521 265.61C1521 265.21 1519.55 263.56 1517.78 261.94L1514.55 259L1516.78 257.44C1520.87 254.58 1518.44 248.62 1514.13 250.93C1511.49 252.34 1511 252.28 1511 250.56C1511 248.69 1514.85 246 1517.53 246C1521.64 246 1523.49 248.46 1523.69 254.17C1523.79 257.1 1524.17 261.13 1524.53 263.13C1525.09 266.22 1524.77 267.21 1522.35 269.83C1519.56 272.84 1513.29 274.95 1511.73 273.4ZM430 271.24C430 270.22 431.61 267.84 433.59 265.95C438.61 261.12 441.36 255.55 439.99 252.99C438.79 250.74 434.13 250.27 432.2 252.2C431.27 253.13 431 252.92 431 251.26C431 248.78 434.48 246 437.59 246C440.8 246 445 249.75 445 252.61C445 255.68 441.91 261.87 439.11 264.4C435.26 267.88 436.34 269.35 442.16 268.57L447.32 267.89L445.79 270.19C444.47 272.19 443.3 272.54 437.13 272.79C430.76 273.06 430 272.89 430 271.24ZM1155 271.7C1155 270.99 1156.79 268.66 1158.97 266.53C1163.01 262.59 1166 257.5 1166 254.58C1166 253.69 1164.88 252.45 1163.5 251.82C1161.47 250.89 1160.67 250.99 1159.18 252.34C1156.79 254.5 1156 254.44 1156 252.07C1156 249.9 1160.43 246 1162.88 246C1163.77 246.01 1165.96 246.9 1167.75 247.99C1172.25 250.73 1172.06 254.15 1167 261.38C1164.8 264.52 1163 267.58 1163 268.18C1163 268.9 1164.54 269.06 1167.5 268.66C1172.16 268.02 1173.4 269.2 1170.8 271.8C1169.08 273.52 1155 273.43 1155 271.7ZM1607 271.86C1607 271.24 1608.81 268.77 1611.01 266.37C1616.29 260.65 1618.78 255.47 1617.36 253.2C1615.87 250.82 1612.19 250.51 1609.92 252.57C1608.09 254.23 1608 254.22 1608 252.23C1608 249.05 1612.84 245.72 1616.42 246.43C1623.98 247.95 1624.75 253.49 1618.56 261.92C1613.77 268.45 1613.9 269.39 1619.5 268.55C1624.3 267.83 1624.58 268.04 1622.96 271.07C1622.08 272.71 1620.82 273 1614.46 273C1609.55 273 1607 272.61 1607 271.86ZM1689 271.44C1689 270.53 1691.03 267.54 1693.51 264.78C1698.36 259.39 1699.89 255.64 1698.3 253.1C1697.01 251.05 1693.31 250.49 1691.42 252.07C1689.34 253.8 1688.47 252.45 1689.8 249.53C1691.98 244.75 1700.07 245.09 1702.87 250.08C1704.75 253.43 1703.85 256.73 1699.5 262.43C1694.74 268.67 1694.92 269.34 1701.2 268.47L1706.41 267.76L1704.84 270.13C1703.46 272.2 1702.36 272.54 1696.13 272.79C1690.06 273.04 1689 272.84 1689 271.44ZM645.49 261.75C644.06 252.22 646.39 248.1 649.41 254.8C652.48 261.6 659.72 264.06 663.83 259.69C667.77 255.49 666.68 253.75 655.34 246.17C645.18 239.37 642.84 234.47 646.67 227.98C649.23 223.65 651.61 222.89 661.51 223.21L670.5 223.5L670.82 227.4C671.43 234.87 669.01 238.78 667.02 233.54C665.38 229.25 662.33 227 658.12 227C650.01 227 650.07 232.95 658.24 238.08C671.6 246.48 674.93 250.66 672.98 256.57C670.63 263.67 660.81 267.74 652.58 265.03C649.81 264.11 648.58 264.1 647.53 264.97C646.39 265.92 646.02 265.34 645.49 261.75ZM698.75 265.26C692.65 264.88 691.83 263.95 694.75 260.72C697.14 258.07 697.16 244.73 694.77 242.34C692.61 240.18 688.42 241.29 687.63 244.24C686.37 248.94 686.94 260.71 688.49 261.99C690.96 264.04 689.2 265 682.94 265C676.76 265 675.28 263.67 678.5 261C679.61 260.08 680 257.61 680 251.41C680 244.09 679.75 242.94 678 242C675.07 240.43 675.56 238.35 679.15 237.1C683.47 235.59 685.96 235.72 686.63 237.49C687.14 238.8 687.45 238.8 689.32 237.49C691.93 235.66 697.01 235.56 699.36 237.28C701.41 238.78 702.9 244.48 703.08 251.5C703.14 254.25 703.52 257.62 703.9 259L704.61 261.5L706.22 259C707.11 257.62 710.32 249.53 713.34 241C716.37 232.47 719.15 224.71 719.53 223.75C720.08 222.34 721.4 222.01 726.36 222.06C729.74 222.09 734.3 222.44 736.5 222.84L740.5 223.57L737.75 225.4C735.16 227.12 735 227.67 735 234.62L735 242L742.38 242C751.7 242 752.46 241.24 751.49 232.9C750.93 228.07 750.37 226.65 748.89 226.26C747.85 225.99 747 225.2 747 224.52C747 222.95 753.28 222.05 759.44 222.75L764.09 223.27L761.8 225.71C759.6 228.05 759.5 228.84 759.5 244.16C759.5 258.57 759.68 260.29 761.35 261.51C764.52 263.84 762.22 265 754.44 265C746.62 265 745.42 264.16 748.96 261.16C750.49 259.86 750.98 257.98 751.21 252.5L751.5 245.5L743.25 245.21L735 244.92L735 253.05C735 260.4 735.2 261.24 737.04 261.72C741.61 262.92 738.04 264.51 730.17 264.79C721.62 265.09 720.3 264.35 724.5 261.59C726.99 259.96 727 259.92 727 243.95C727 230.01 726.79 227.86 725.36 227.31C722.88 226.36 721.78 228.51 716.03 245.5C710.92 260.61 708.07 266.2 705.68 265.81C705.03 265.71 701.91 265.46 698.75 265.26ZM780.5 264.43C772.57 260.31 769 254.34 769 245.18C769 230.38 776.68 222.42 790.5 222.88C793.8 222.99 798.17 223.11 800.21 223.14C804.36 223.21 804.9 224.04 805.16 230.82C805.39 236.54 803.66 238.18 801.61 234.2C799.03 229.23 795.38 227 789.79 227C785.69 227 784.36 227.49 782 229.84C778.43 233.41 776.62 239.95 777.32 246.77C778 253.37 780.97 258.29 785.63 260.5C790.2 262.66 794.29 261.91 799.18 257.98C802.83 255.05 805 254.23 805 255.8C805 257.25 797.54 263.86 794.68 264.94C790.62 266.47 783.97 266.23 780.5 264.43ZM1058.46 264.93C1058.03 264.24 1055.6 264.1 1051.53 264.53C1045.71 265.16 1045.14 265.04 1043.63 262.88C1042.73 261.6 1042 258.84 1042 256.74C1042 253.27 1042.41 252.68 1046.58 250.21C1053.88 245.9 1056.41 243.52 1055.7 241.66C1054.63 238.87 1050.69 239.67 1048.75 243.08C1046.48 247.07 1043.62 246.69 1043.19 242.34C1042.78 238.05 1045.84 236 1052.67 236C1056.66 236 1058.49 236.53 1060.44 238.25C1062.7 240.24 1063.08 241.54 1063.66 249.38C1064.21 256.85 1064.61 258.35 1066.16 258.75C1068.73 259.43 1068.47 260.43 1064.92 263.41C1061.64 266.17 1059.53 266.67 1058.46 264.93ZM1121.98 263.75C1115.28 260.36 1111.86 254.78 1111.25 246.23C1110.48 235.54 1113.84 227.73 1120.56 224.54C1125.13 222.37 1135.47 222.58 1140.68 224.94C1143.32 226.14 1145.91 228.42 1147.68 231.1C1150.23 234.94 1150.5 236.19 1150.5 244C1150.5 251.99 1150.28 252.94 1147.62 256.43C1140.71 265.49 1130.93 268.28 1121.98 263.75ZM1175 263.4C1175 260.65 1185.19 229.46 1187.63 224.75C1188.89 222.31 1189.59 222.01 1193.78 222.09C1196.37 222.14 1200.75 222.48 1203.5 222.85L1208.5 223.53L1205.75 225.38C1203.16 227.12 1203 227.67 1203 234.66L1203 242.08L1211.25 241.79L1219.5 241.5L1219.79 234.8C1220.07 228.58 1219.91 227.99 1217.54 226.44C1216.15 225.52 1215 224.37 1215 223.88C1215 223.4 1219.16 223 1224.24 223L1233.48 223L1230.85 225.44C1228.67 227.46 1228.09 229.11 1227.5 235.04C1227.1 238.98 1227.09 246.44 1227.48 251.61C1228.07 259.47 1228.51 261.2 1230.12 262.07C1231.19 262.63 1231.79 263.53 1231.47 264.05C1230.75 265.21 1215 265.33 1215 264.17C1215 263.72 1216.14 262.27 1217.54 260.96C1219.83 258.81 1220.05 257.94 1219.79 252.04L1219.5 245.5L1211.25 245.21L1203 244.92L1203 251.88C1203 259.8 1203.59 262 1205.69 262C1206.5 262 1206.98 262.56 1206.75 263.25C1206.15 265.06 1191 265.57 1191 263.78C1191 263.07 1191.91 261.91 1193.02 261.22C1194.94 260.02 1195.03 259.09 1194.77 243.73C1194.52 228.39 1194.39 227.5 1192.55 227.5C1190.92 227.5 1189.64 230.21 1184.97 243.5C1179.67 258.61 1176.55 266 1175.47 266C1175.21 266 1175 264.83 1175 263.4ZM1248.46 264.12C1240.33 260.43 1236.34 252.42 1237.29 241.75C1238.4 229.44 1245.95 222.67 1258.27 222.95C1261.69 223.02 1266.17 223.11 1268.21 223.15C1272.15 223.21 1272.37 223.5 1273.5 230C1273.89 232.21 1273.63 234.16 1272.8 235.28C1271.59 236.92 1271.35 236.8 1269.68 233.71C1267.3 229.28 1263.21 227 1257.67 227C1254 227 1252.6 227.55 1250.18 229.97C1244.53 235.62 1243.6 248.14 1248.3 255.12C1253.35 262.62 1260.83 263.72 1267.4 257.95C1269.25 256.33 1271.55 255 1272.51 255C1274.02 255 1273.92 255.44 1271.77 258.23C1266.29 265.33 1256.54 267.79 1248.46 264.12ZM812.36 263.49C812.04 262.66 812.36 261.27 813.07 260.41C814.01 259.29 814.39 254.6 814.44 243.84C814.5 230.02 814.35 228.73 812.52 227.4C810.04 225.57 811.34 223.05 815.48 221.67C820.44 220.02 821 222.09 821 241.86C821 256.47 821.26 259.63 822.6 261.11C824.98 263.74 823.47 265 817.91 265C814.39 265 812.77 264.56 812.36 263.49ZM996.71 264.38C995.53 263.2 995.91 262 997.46 262C1000.25 262 1001 258.12 1000.99 243.82L1000.98 229.5L997.49 227.24C995.57 226 994 224.54 994 223.99C994 223.45 996.59 223.01 999.75 223.02L1005.5 223.03L1016 235.9C1021.77 242.98 1026.84 248.57 1027.25 248.33C1027.66 248.08 1028 243.2 1028 237.48C1028 228.09 1027.8 226.97 1026 226C1022.28 224.01 1023.97 223 1031 223C1035.4 223 1038 223.41 1038 224.09C1038 224.7 1037.1 225.42 1036 225.71C1034.17 226.19 1034 227.09 1033.96 236.37C1033.91 247.34 1033.13 261.74 1032.47 263.75C1032.25 264.44 1031.65 265 1031.14 265C1030.64 265 1025.17 258.93 1019 251.5C1012.83 244.07 1007.38 238 1006.89 238C1005.9 238 1005.65 257.92 1006.61 260.42C1006.94 261.29 1007.88 262 1008.69 262C1009.5 262 1009.98 262.56 1009.75 263.25C1009.3 264.61 997.93 265.59 996.71 264.38ZM1069.48 263.97C1069.13 263.41 1069.89 262.09 1071.17 261.05C1073.43 259.22 1073.5 258.73 1073.34 244.49C1073.2 231.49 1072.97 229.67 1071.34 228.49C1064.25 223.38 1064.28 223.07 1072.01 222.73L1077.33 222.5L1087.58 235C1093.22 241.88 1098.44 247.5 1099.17 247.5C1100.19 247.5 1100.48 245.2 1100.43 237.57C1100.36 228.53 1100.16 227.52 1098.18 226.2C1095.14 224.18 1095.45 223.35 1099.5 222.69C1106.21 221.6 1113.71 224.22 1108.09 225.69C1106.32 226.15 1106.16 227.48 1105.84 244.34C1105.65 254.33 1105.12 263.09 1104.65 263.82C1103.47 265.64 1101.73 263.97 1089.73 249.5C1084.25 242.9 1079.33 237.34 1078.8 237.14C1078.19 236.91 1077.95 241.16 1078.16 248.47C1078.45 258.46 1078.77 260.36 1080.35 261.52C1081.37 262.26 1081.9 263.35 1081.54 263.93C1080.7 265.3 1070.32 265.33 1069.48 263.97ZM1280.47 263.96C1280.12 263.38 1280.43 262.19 1281.16 261.3C1282.16 260.11 1282.5 255.59 1282.5 243.78C1282.5 229.66 1282.3 227.75 1280.75 226.88C1278.08 225.38 1278.64 224.05 1282.63 222.38C1285.3 221.26 1286.56 221.16 1287.38 221.98C1288.09 222.68 1288.68 229.94 1289 241.63C1289.43 257.62 1289.74 260.34 1291.22 261.42C1292.52 262.37 1292.65 262.95 1291.77 263.83C1290.32 265.28 1281.35 265.38 1280.47 263.96ZM1576.18 262.4C1569.33 258.99 1565.97 253.47 1565.24 244.46C1564.03 229.38 1573.97 219.54 1588.46 221.47C1597.54 222.67 1602.59 227.5 1605.06 237.33C1607.59 247.36 1602.32 258.25 1592.68 262.91C1586.96 265.68 1582.49 265.55 1576.18 262.4ZM1722.5 263.79C1713.85 260.77 1708.86 253.11 1708.83 242.78C1708.81 235.46 1710.09 231.6 1713.81 227.66C1717.33 223.95 1720.45 222.41 1726.2 221.58C1739.12 219.7 1748.93 228.55 1748.98 242.13C1749.01 249.32 1747.22 253.46 1741.82 258.69C1735.45 264.87 1729.83 266.35 1722.5 263.79ZM371.75 263.38C369.6 262.73 369.52 261.64 371.5 260C372.72 258.99 373 255.73 373 242.5C373 226.78 372.93 226.19 370.75 224.67C366.79 221.89 370.24 220.83 381 221.53C393.28 222.32 397.67 223.51 401.16 227C404.63 230.47 404.87 234.63 401.83 238.49C400.08 240.71 399.89 241.56 400.85 242.87C406.65 250.87 406.91 251.99 404.04 256.7C400.92 261.82 397.19 263.13 384.63 263.54C378.51 263.74 372.71 263.67 371.75 263.38ZM410.45 262.93C410.09 262.34 410.74 260.84 411.9 259.61C413.66 257.74 414 256.12 414 249.72C414 243.09 413.73 241.93 412 241C407.31 238.49 411.55 234.83 418.86 235.1C420.86 235.17 423.4 234.93 424.5 234.57C425.67 234.18 427.33 234.52 428.5 235.39C431.26 237.45 429.41 240.34 424.9 241L421.5 241.5L421.21 250.77C420.97 258.43 421.2 260.14 422.49 260.63C423.7 261.1 423.79 261.55 422.9 262.62C421.53 264.28 411.44 264.53 410.45 262.93ZM1465.46 262.93C1465.1 262.35 1464.96 261.78 1465.15 261.68C1469.7 259.3 1469.49 260.19 1469.77 242.63L1470.05 225.97L1467.52 225.01C1463.52 223.49 1464.56 222.29 1470.52 221.54C1475.92 220.87 1482 221.53 1482 222.79C1482 223.14 1480.85 224.34 1479.45 225.46C1477.01 227.4 1476.92 227.82 1477.58 234.25L1478.28 241L1485.44 241C1489.68 241 1493.09 240.51 1493.8 239.8C1496.3 237.3 1494.51 225.79 1491.43 224.61C1488.48 223.48 1490.18 222.21 1495.52 221.54C1498.56 221.16 1502.44 221.16 1504.15 221.53L1507.25 222.21L1504.62 224.65C1502.01 227.07 1502 227.14 1502 242.54C1502 256.95 1502.14 258.14 1504.12 260.12C1506.93 262.93 1505.29 263.97 1498 263.97C1490.15 263.97 1489.01 262.97 1492.34 259.01C1494.42 256.53 1495 254.79 1495 250.98C1495 248.31 1494.57 245.85 1494.05 245.53C1493.53 245.21 1489.48 244.67 1485.05 244.32L1477 243.7L1477 248.73C1477 256.27 1478.04 260.2 1480.17 260.76C1481.63 261.14 1481.79 261.54 1480.9 262.62C1479.51 264.29 1466.46 264.55 1465.46 262.93ZM1529.46 262.93C1529.1 262.35 1528.96 261.78 1529.15 261.68C1533.72 259.29 1533.5 260.24 1533.5 242.68C1533.5 227.24 1533.36 225.98 1531.5 224.61C1529.96 223.47 1529.77 222.86 1530.68 221.94C1532.49 220.1 1552.71 222.42 1556 224.84C1565.28 231.66 1560.26 243.95 1547.55 245.54L1542 246.23L1542 253.21C1542 259.35 1542.24 260.25 1544 260.71C1546.4 261.34 1546.59 262.56 1544.42 263.39C1541.74 264.42 1530.16 264.06 1529.46 262.93ZM1626.63 261.25C1627.27 258.66 1638.02 226.54 1639.52 222.75C1640.1 221.29 1641.42 221.02 1647.36 221.12C1651.29 221.18 1655.85 221.54 1657.5 221.9L1660.5 222.56L1657.71 224.42C1655.03 226.21 1654.93 226.58 1655.21 233.39L1655.5 240.5L1662.37 240.8C1671.38 241.19 1673.35 239.68 1672.44 233.06C1672.1 230.55 1670.92 227.23 1669.82 225.67C1668.72 224.12 1668.11 222.56 1668.45 222.22C1669.3 221.37 1682.75 221.41 1683.6 222.27C1683.98 222.64 1683.33 223.75 1682.17 224.72C1680.41 226.2 1679.94 228.04 1679.39 235.6C1679.03 240.6 1679.06 248.19 1679.46 252.47C1680.07 258.95 1680.51 260.32 1682.12 260.74C1683.63 261.14 1683.79 261.54 1682.9 262.62C1681.56 264.23 1669.47 264.57 1668.51 263.02C1668.18 262.48 1668.83 260.8 1669.95 259.27C1672.19 256.22 1673.58 248.23 1672.22 246.23C1671.71 245.48 1668.01 244.71 1663.18 244.33L1655 243.7L1655 251.3C1655 258.03 1655.25 259.07 1657.25 260.47C1660.54 262.79 1658.04 263.97 1649.81 263.98C1642.34 264 1640.8 263.01 1644.51 260.59C1647 258.96 1647 258.94 1647 242.45C1647 228.49 1646.76 225.85 1645.46 225.35C1644.61 225.02 1643.66 225.01 1643.35 225.32C1643.04 225.63 1639.94 233.82 1636.45 243.52C1632.97 253.22 1629.59 261.79 1628.94 262.58C1627.03 264.87 1625.91 264.22 1626.63 261.25ZM1912.4 259.34C1910.39 257.32 1907.56 253.16 1906.12 250.09C1903.87 245.29 1903.5 243.16 1903.5 235C1903.5 226.43 1903.8 224.91 1906.5 219.54C1909.63 213.34 1915.65 207.57 1918.38 208.16C1919.64 208.43 1919.25 209.41 1916.5 212.87C1911.87 218.7 1911.01 222.36 1911.03 236C1911.04 248.08 1912.25 252.69 1916.97 258.69C1918.89 261.13 1918.89 263 1916.97 263C1916.48 263 1914.42 261.35 1912.4 259.34ZM1941 261.65C1941 260.92 1941.95 259.45 1943.11 258.4C1948.15 253.85 1949.47 249.3 1949.49 236.5C1949.5 223.23 1947.96 217.19 1943.47 212.98C1942.11 211.7 1941 210.05 1941 209.33C1941 204.06 1952.8 215.96 1955.57 224.03C1959.94 236.72 1957 249.99 1947.94 258.46C1942.96 263.12 1941 264.02 1941 261.65ZM1137.83 258.25C1141.2 255.02 1141.84 253.7 1142.45 248.7C1144.16 234.73 1139.86 227 1130.39 227C1125.41 227 1123.11 228.54 1120.94 233.33C1117.27 241.41 1118.92 253.12 1124.5 258.7C1129.07 263.27 1132.72 263.15 1137.83 258.25ZM1589.71 259.04C1596.02 255.19 1598.86 243.97 1596.02 234.08C1594.06 227.23 1587.08 223.5 1580.75 225.91C1572.3 229.12 1570.85 250.05 1578.53 257.73C1582.29 261.49 1585.14 261.82 1589.71 259.04ZM1735.57 256.59C1740.32 251.63 1741.66 246.91 1740.51 239.17C1739.38 231.59 1737.47 228.09 1733.57 226.46C1728.32 224.27 1725.21 224.64 1722 227.84C1716.57 233.28 1715.51 246.2 1719.81 254.64C1723.69 262.23 1729.48 262.95 1735.57 256.59ZM391.45 258.58C397.8 255.93 398.63 249.41 393 246.5C391.37 245.66 388 244.69 385.52 244.35L381 243.73L381 251.86L381 260L384.53 260C386.47 260 389.59 259.36 391.45 258.58ZM1054.07 258.96C1056.63 257.59 1056.85 251 1054.33 251C1051.89 251 1049 253.97 1049 256.49C1049 260.06 1050.58 260.83 1054.07 258.96ZM2157.37 255.79C2156.53 252.83 2155.99 252.45 2152.05 252C2149.63 251.72 2147.49 251 2147.29 250.38C2147.09 249.77 2149.3 245.72 2152.21 241.38C2159.25 230.89 2161.03 230.78 2162.53 240.76C2163.67 248.33 2165.12 251.23 2166.59 248.86C2167.04 248.13 2169.95 239.88 2173.06 230.52C2176.18 221.16 2179.33 212.21 2180.08 210.62L2181.44 207.75L2190.26 208.25C2195.12 208.53 2199.4 209.07 2199.78 209.45C2200.16 209.83 2199.51 210.89 2198.33 211.82C2196.73 213.07 2196.01 215.09 2195.5 219.75C2195.12 223.19 2195.11 226 2195.48 226C2195.85 226 2198.83 223.44 2202.11 220.31C2207.35 215.32 2208 214.28 2207.46 211.81L2206.84 209L2213.92 209C2217.81 209 2221 209.41 2221 209.92C2221 210.42 2219.31 211.87 2217.25 213.13C2211.77 216.48 2203 225.02 2203 227C2203 229.07 2220.76 246.47 2223.88 247.46C2228.65 248.98 2225.29 250.5 2216.55 250.79L2207.76 251.08L2208.38 248.61C2208.89 246.57 2208 245.09 2203.22 240.07C2195.67 232.13 2194.53 232.15 2195.44 240.22C2196.25 247.3 2196.53 248 2198.64 248C2199.48 248 2199.98 248.56 2199.75 249.25C2199.26 250.73 2183 251.61 2183 250.16C2183 249.65 2184.12 248.49 2185.5 247.59C2187.98 245.97 2188 245.81 2188 231.54C2188 217.17 2187.06 211.48 2184.79 212.24C2184.14 212.45 2180.85 220.31 2177.5 229.69C2171.08 247.62 2168.81 252.23 2166.75 251.48C2164.95 250.82 2163.62 252.07 2162.47 255.49C2161.04 259.72 2158.54 259.87 2157.37 255.79ZM2116.5 250.11C2108.56 246.45 2104.99 239.96 2105.02 229.28C2105.05 221.03 2107.4 215.27 2112.13 211.9C2115.06 209.81 2116.61 209.5 2124 209.52C2130.14 209.53 2133.39 210.02 2135.71 211.27C2142.07 214.72 2146.3 226.28 2144.56 235.52C2143.73 239.93 2136.12 248.6 2131.28 250.64C2126.86 252.51 2121.26 252.31 2116.5 250.11ZM2241.5 250.11C2233.56 246.45 2229.99 239.96 2230.02 229.28C2230.07 213.82 2238.45 207.04 2254.52 209.45C2265.86 211.15 2273.5 226.74 2268.65 238.28C2267.09 241.98 2259.2 249.59 2255.43 251.03C2251.51 252.52 2245.92 252.15 2241.5 250.11ZM1922.03 249.75C1922.05 249.06 1922.72 247.63 1923.53 246.56C1924.53 245.24 1925 242.14 1925 236.93C1925 230.1 1924.75 229.07 1922.75 227.65L1920.5 226.05L1922.92 223.98C1924.35 222.75 1926.4 222.02 1927.92 222.2C1930.25 222.47 1930.56 223.03 1931.15 228C1931.51 231.03 1931.85 236.48 1931.9 240.13C1931.97 244.68 1932.47 247.14 1933.49 247.99C1935.96 250.04 1934.2 251 1927.94 251C1923.84 251 1922.01 250.61 1922.03 249.75ZM1974 250.12C1974 249.63 1975.12 248.49 1976.5 247.59C1979 245.96 1979 245.94 1979 229.64L1979 213.32L1976.5 212.18C1970.97 209.66 1975.44 208.17 1986.46 208.84C1991.56 209.15 1992.02 209.72 1989.01 211.99C1986.89 213.59 1986.59 214.54 1986.79 219.1C1986.91 221.98 1987.27 224.6 1987.58 224.91C1987.89 225.22 1990.6 222.92 1993.6 219.79C1998.05 215.16 1998.95 213.66 1998.46 211.69C1997.93 209.6 1998.27 209.2 2001.03 208.64C2004.65 207.92 2012 208.86 2012 210.05C2012 210.48 2010.31 211.87 2008.25 213.13C2002.74 216.5 1994 225.02 1994 227.03C1994 229.33 2011.97 246.44 2015.77 247.77C2017.92 248.52 2019.41 248.48 2021.13 247.63C2023.46 246.46 2023.5 246.17 2023.77 230.26L2024.05 214.08L2021.52 212.42C2017.44 209.75 2018.57 208.89 2025.72 209.2L2032.45 209.5L2038.3 222.5C2041.51 229.65 2044.54 235.91 2045.03 236.41C2045.55 236.94 2048.61 231.79 2052.44 223.97C2056.03 216.64 2059.36 210.24 2059.85 209.75C2061.01 208.59 2069.6 208.26 2070.67 209.34C2071.13 209.8 2070.49 210.99 2069.25 212C2067.1 213.74 2067 214.47 2067.01 228.66C2067.02 236.82 2067.29 244.47 2067.61 245.66C2068.52 249.06 2072.1 249.45 2074.75 246.44C2077.87 242.9 2078.02 232.02 2075 229C2072.32 226.32 2072.48 224.56 2075.55 223.16C2079.2 221.5 2083 221.68 2083 223.52C2083 224.87 2083.28 224.86 2085.42 223.46C2086.86 222.52 2089.37 222 2091.57 222.19C2097.34 222.67 2098.99 225.69 2099.69 237.06C2100.01 242.25 2100.7 247.04 2101.22 247.71C2102.94 249.88 2100.97 251 2095.44 251C2089.7 251 2088.37 249.59 2091.59 246.92C2092.87 245.86 2093.12 243.97 2092.84 237.35C2092.45 227.92 2091.42 226.12 2087.26 227.58C2084.69 228.48 2084.45 229.05 2083.76 235.94C2083.19 241.62 2083.36 244.02 2084.49 246.29C2085.3 247.91 2085.72 249.64 2085.42 250.12C2085.13 250.6 2078.16 251 2069.94 251C2058.6 251 2055 250.7 2055 249.74C2055 249.05 2055.9 247.92 2057 247.23C2058.8 246.11 2059 244.9 2059 234.99C2059 228.95 2058.66 224.02 2058.25 224.04C2057.84 224.06 2054.71 229.91 2051.31 237.04C2047.9 244.17 2044.62 250 2044.02 250C2043.43 250 2040.37 244.63 2037.22 238.06C2034.07 231.49 2031.16 226.09 2030.75 226.06C2030.34 226.03 2030 230.79 2030 236.64C2030 245.62 2030.27 247.48 2031.75 248.56C2033.36 249.74 2033.3 249.89 2031 250.46C2029.62 250.8 2021.97 250.94 2014 250.79C1999.79 250.51 1999.5 250.46 1999.5 248.29C1999.5 245.64 1989.56 234 1987.3 234C1984.75 234 1986.31 245.96 1989.13 248.1C1991.03 249.53 1991.08 249.76 1989.54 250.35C1986.98 251.33 1974 251.13 1974 250.12ZM2274 250.16C2274 249.65 2275.12 248.49 2276.5 247.59C2279 245.95 2279 245.95 2279 229.5L2279 213.04L2276.5 212.41C2275.12 212.07 2274 211.16 2274 210.39C2274 209.31 2275.91 209 2282.5 209C2290.94 209 2292.91 209.91 2289 212C2287.27 212.92 2287 214.09 2287 220.58L2287 228.08L2294.75 227.79L2302.5 227.5L2302.79 220.31C2303.05 213.92 2302.86 212.99 2301.04 212.02C2297.07 209.9 2299.04 209 2307.67 209L2316.35 209L2313.92 211.58C2311.57 214.09 2311.5 214.6 2311.5 230.16C2311.5 244.58 2311.68 246.3 2313.35 247.51C2316.52 249.84 2314.22 251 2306.44 251C2298.63 251 2296.91 249.79 2301.04 247.21C2302.84 246.08 2303.05 245.08 2302.79 238.71L2302.5 231.5L2294.75 231.21L2287 230.92L2287 239.05C2287 246.4 2287.2 247.24 2289.04 247.72C2290.16 248.01 2290.91 248.76 2290.71 249.38C2290.26 250.75 2274 251.5 2274 250.16ZM2129.66 245.9C2134.55 242.88 2136 239.36 2136 230.52C2136 217.95 2132.6 213 2123.95 213C2116.63 213 2113 218.2 2113 228.7C2113 236.12 2114.76 241.61 2118.27 245.12C2121.71 248.56 2124.99 248.79 2129.66 245.9ZM2156.81 244.25C2157.2 240.22 2155.97 240.08 2153.72 243.9C2151.48 247.69 2151.55 248.2 2154.25 247.82C2155.97 247.57 2156.57 246.74 2156.81 244.25ZM2256.63 243.63L2261 239.26L2261 231.1C2261 218.2 2257.7 213 2249.5 213C2241.86 213 2238 218.29 2238.01 228.72C2238.01 236.45 2239.46 241.21 2242.93 244.92C2247.23 249.53 2251.1 249.16 2256.63 243.63ZM50.2 244.8C48.45 243.05 48.73 239.65 50.75 238.35C68.56 226.79 108.13 202.45 126.3 191.87C138.65 184.68 144 183.18 144 186.92C144 189.24 139.92 192.5 125.5 201.7C98.56 218.88 53.58 246 52.02 246C51.68 246 50.86 245.46 50.2 244.8ZM1549.31 239.2C1550.89 237.54 1552 235.26 1552 233.65C1552 230.31 1547.69 226 1544.35 226C1542.1 226 1542 226.3 1542 233.33C1542 237.37 1542.3 240.97 1542.67 241.33C1544.08 242.74 1546.73 241.89 1549.31 239.2ZM393.55 237.55C396.74 234.35 396.64 232.49 393.08 228.92C390.7 226.54 389.3 226 385.58 226L381 226L381 233L381 240L386.05 240C390.07 240 391.59 239.5 393.55 237.55ZM1926.04 213.55C1924.1 211.21 1925.21 208.54 1928.26 208.18C1931.76 207.78 1932.91 210.33 1930.47 213.04C1928.34 215.38 1927.63 215.46 1926.04 213.55ZM163.32 60.8C159.09 57.75 157 53.08 157 46.72C157.01 33.46 169.8 27.31 177.98 36.62C179.7 38.58 180.93 40.71 180.72 41.34C180 43.54 175.48 44.97 169.25 44.99C163.97 45 163 45.27 163 46.75C163.01 49.73 166.81 54.91 169.48 55.58C171.86 56.18 172.91 55.72 178.59 51.54C180.69 49.99 181.46 51.77 179.93 54.63C178.09 58.07 173.08 61.84 169.42 62.54C167.33 62.94 165.6 62.45 163.32 60.8ZM104 60.74C104 60.05 104.96 58.88 106.13 58.15C108.19 56.86 108.24 56.31 107.8 40.93C107.43 27.92 107.04 24.7 105.67 23.19C103.03 20.28 103.6 19.88 110.03 20.2L116.06 20.5L122.28 33.74C125.7 41.03 128.95 46.86 129.5 46.71C130.05 46.56 133.43 40.6 137 33.47C143.14 21.21 143.69 20.46 147 19.78C148.93 19.38 151.81 19.32 153.42 19.64L156.34 20.23L153.92 22.06C151.56 23.84 151.49 24.27 151.18 40.34C150.87 56.57 150.9 56.82 153.18 58.43C155.14 59.81 155.27 60.2 154 61.01C152.14 62.2 139.31 62.31 138.59 61.15C138.3 60.68 139.17 59.25 140.53 57.97C142.85 55.79 143 55.01 143 45.33C143 39.65 142.63 35 142.18 35C141.73 35 138.98 40.15 136.07 46.45C133.16 52.74 129.93 58.66 128.9 59.59C127.09 61.23 126.81 60.84 121.26 49.18C118.09 42.52 115.16 37.05 114.75 37.03C114.34 37.02 114 41.74 114 47.53C114 56.05 114.29 58.17 115.53 58.65C116.7 59.1 116.79 59.55 115.9 60.62C114.39 62.44 104 62.54 104 60.74ZM172.43 40.11C173.36 38.61 170.27 36.84 167.32 37.18C165.61 37.37 164.39 38.18 164.19 39.25C163.91 40.68 164.58 41 167.87 41C170.08 41 172.13 40.6 172.43 40.11Z" fill="#1e2749" fill-rule="evenodd"/>
</svg>
