<?xml version="1.0" encoding="UTF-8"?>
<svg xmlns="http://www.w3.org/2000/svg" viewBox="0 0 563 356" width="563" height="356" shape-rendering="geometricPrecision">
<path d="M256.18 346.09C255.63 346.01 254.69 345.5 254.08 344.97C253.47 344.44 252.75 344 252.48 344C252.2 344 251.67 343.47 251.29 342.83C250.91 342.19 250.46 341.67 250.3 341.67C250.13 341.67 249.4 340.37 248.66 338.79C247.41 336.07 247.33 335.72 247.33 332.77C247.33 329.99 247.44 329.4 248.33 327.5C248.88 326.32 249.33 325.21 249.33 325.02C249.33 324.83 249.68 324.45 250.11 324.17C250.54 323.89 251.09 323.29 251.33 322.84C251.57 322.38 252.09 321.91 252.47 321.8C252.85 321.68 253.76 321.15 254.48 320.62L255.8 319.67L262.06 319.67L268.32 319.67L268.87 320.51C269.32 321.2 269.39 321.93 269.26 324.5C269.16 326.31 268.91 327.87 268.67 328.16C267.92 329.07 267.01 328.76 266.44 327.42C266.16 326.73 265.53 325.7 265.04 325.13C264.56 324.56 263.91 323.77 263.59 323.38C263.09 322.76 262.66 322.67 260.47 322.67L257.94 322.67L256.11 324.42C254.49 325.98 254.23 326.43 253.79 328.34C252.91 332.27 252.89 333.08 253.68 336.47L254.43 339.71L256.7 341.52C258.91 343.29 259.02 343.33 261.07 343.32C263.13 343.32 263.19 343.29 264.75 341.7C265.63 340.81 266.5 339.61 266.7 339.04C267.03 338.1 267.2 338 268.49 338L269.91 338L269.36 339.67C268.82 341.34 266.5 344 265.58 344C265.35 344 264.92 344.43 264.63 344.95C264.28 345.57 263.71 345.97 263 346.12C261.85 346.35 257.82 346.33 256.18 346.09ZM171.75 343.62C171.07 342.93 171.27 341.46 172.2 340.35C172.68 339.79 173.28 338.61 173.54 337.74C173.8 336.88 174.34 335.92 174.73 335.62C175.26 335.22 175.51 334.55 175.69 333.01C175.87 331.47 176.15 330.71 176.77 330.05C177.38 329.41 177.68 328.62 177.85 327.19C178.03 325.7 178.3 325.03 178.94 324.43C179.57 323.85 179.85 323.14 180.06 321.59C180.39 319.21 181.01 318.09 182.17 317.8C183.77 317.4 184.55 317.87 184.96 319.48C185.17 320.29 185.63 321.46 185.98 322.06C186.34 322.67 186.79 323.9 186.99 324.8C187.19 325.7 187.64 326.82 187.98 327.3C188.32 327.78 188.78 328.85 188.99 329.67C189.21 330.49 189.67 331.66 190.02 332.25C190.36 332.85 190.85 334.12 191.11 335.09C191.36 336.05 191.96 337.42 192.45 338.13C192.94 338.84 193.33 339.62 193.33 339.86C193.33 340.1 193.86 340.7 194.5 341.19C195.82 342.2 195.93 342.66 195.06 343.45C194.18 344.24 185.65 344.27 184.86 343.48C184.03 342.65 184.23 342.07 185.68 341.16C187.02 340.31 187.03 340.29 186.81 338.73C186.36 335.56 186.3 335.51 182.33 335.41C177.81 335.29 176.65 335.8 176.2 338.1C175.83 339.94 176.52 341.33 177.8 341.33C178.24 341.33 178.92 341.6 179.32 341.92L180.05 342.52L179.33 343.17C178.73 343.71 178.02 343.85 175.38 343.94C173.1 344.02 172.05 343.93 171.75 343.62ZM211.25 343.64C210.93 343.45 210.67 342.95 210.67 342.53C210.67 341.92 211.01 341.61 212.32 341.07C213.58 340.55 214.04 340.16 214.24 339.44C214.58 338.22 214.58 323.12 214.24 321.91C214.06 321.26 213.54 320.77 212.5 320.26C211.69 319.87 210.94 319.31 210.83 319.03C210.37 317.85 211.53 317.67 219.59 317.67L227.38 317.67L229 319.06C231.88 321.54 231.97 324.27 229.27 327.2C228.54 327.99 227.51 328.72 226.96 328.84C225.37 329.19 225.83 330.13 227.7 330.34C228.99 330.49 229.46 330.77 230.78 332.16C232.31 333.79 232.33 333.84 232.33 336.05C232.33 339.39 232.23 339.57 228.46 342.82L227.09 344L219.46 343.99C214.9 343.98 211.6 343.84 211.25 343.64ZM224.1 341.03C225.71 340.41 227.8 334.53 226.65 333.82C226.46 333.71 225.94 333.02 225.48 332.31C224.66 331.01 224.64 331 222.52 331C219.17 331 219.33 330.75 219.33 335.85C219.33 340.07 219.37 340.32 220.07 340.81C220.9 341.39 222.86 341.5 224.1 341.03ZM183.69 332.32C184.58 331.84 184.51 331.33 183.16 328.66C181.67 325.69 180.9 325.53 180.35 328.08C180.14 329.03 179.66 330.15 179.27 330.57C178.7 331.17 178.65 331.41 178.98 331.8C179.64 332.61 182.56 332.93 183.69 332.32ZM224.23 326.93C225.6 325.55 225.94 323.96 225.22 322.23C224.59 320.75 223.53 320.26 221.19 320.4L219.5 320.5L219.41 323.88C219.33 326.71 219.4 327.36 219.88 327.83C220.78 328.73 222.85 328.3 224.23 326.93ZM217.41 307.15C216.67 306.63 216.67 306.63 216.67 295.36C216.67 288.04 216.54 283.73 216.3 283.05L215.93 282L200.82 282C189.09 282 185.65 282.09 185.44 282.42C185.29 282.65 185.09 287.81 185 293.88C184.85 304.15 184.79 304.98 184.2 305.63C183.36 306.56 181.64 306.56 180.8 305.63C180.21 304.98 180.15 304.15 180 294.02C179.87 285.45 179.74 282.98 179.38 282.55C178.96 282.05 176.31 282 147.67 282C116.56 282 116.42 282 115.54 281.31L114.67 280.62L114.67 256.51C114.67 228.17 115.12 230.97 110.45 230.62C108.83 230.49 100.8 230.38 92.62 230.36C78.75 230.34 77.69 230.29 76.99 229.73C76.21 229.1 75.98 227.3 76.47 225.75L76.71 225.02L94.99 224.92C112.42 224.84 113.3 224.8 113.97 224.2C114.64 223.59 114.67 223.26 114.67 216.17C114.67 209.07 114.64 208.74 113.97 208.13C113.3 207.53 112.38 207.49 96.1 207.33L78.94 207.17L77.95 206.05C76.82 204.79 76.86 203.73 78.07 202.43L78.76 201.69L95.91 201.59L113.06 201.5L113.86 200.56C114.66 199.64 114.67 199.55 114.67 192.53C114.67 184.86 114.44 183.49 113.1 182.98C112.64 182.8 105.17 182.67 95.86 182.67C80.37 182.67 79.41 182.63 78.88 182.06C78.3 181.41 78.13 178.84 78.62 178.06C78.85 177.7 82.01 177.62 95.03 177.64C104 177.65 111.76 177.52 112.49 177.35C114.59 176.85 114.67 176.6 114.66 169.85C114.66 166.54 114.54 163.66 114.4 163.44C113.77 162.43 112.06 162.33 95.81 162.33L79.32 162.33L78.66 161.25C77.87 159.95 77.81 158.42 78.52 157.41L79.04 156.67L95.36 156.67C112.75 156.67 113.47 156.6 114.31 155.05C114.53 154.63 114.67 151.66 114.67 147.05L114.67 139.72L113.79 139.02C112.93 138.35 112.6 138.33 96.43 138.33C85.77 138.33 79.73 138.21 79.31 137.99C78.35 137.47 77.64 135.87 77.88 134.71C78.29 132.61 77.55 132.7 96.13 132.6L113.06 132.5L113.86 131.56C114.66 130.64 114.67 130.55 114.67 123.67C114.67 117.79 114.59 116.63 114.14 116.19C113.68 115.73 111.64 115.67 96.73 115.66C80.06 115.66 77.55 115.52 76.92 114.55C76.7 114.2 76.55 111.09 76.75 110.93C76.8 110.9 85.03 110.78 95.05 110.68C112.35 110.51 113.3 110.47 113.97 109.87C114.64 109.25 114.67 108.94 114.67 100.83C114.67 91.95 114.48 90.54 113.23 90.2C112.83 90.1 105.03 90.01 95.9 90L79.3 90L78.44 89.14C77.71 88.41 77.61 88.08 77.77 86.9C77.87 86.14 78.22 85.33 78.54 85.1C79 84.76 82.81 84.67 96.16 84.67C111.03 84.67 113.28 84.6 113.93 84.15C114.66 83.63 114.67 83.53 114.67 75.17C114.67 66.8 114.66 66.7 113.93 66.19C113.28 65.73 111.16 65.67 97.57 65.67C87.88 65.67 81.72 65.54 81.34 65.34C80.57 64.92 79.87 62.9 80.14 61.84C80.61 59.94 80.05 60 96.67 60C105.6 60 112.31 59.87 112.8 59.68C114.57 59.01 114.67 58.33 114.67 46.39L114.67 35.42L115.92 35.21C116.6 35.1 163.22 35.01 219.5 35.01C300.08 35.01 322 35.1 322.6 35.42L323.36 35.83L323.43 93.43C323.49 144.21 323.56 151.06 324 151.34C324.3 151.53 331.44 151.66 341.67 151.67C354.61 151.67 359.03 151.78 359.64 152.09C360.09 152.31 360.65 152.99 360.89 153.58C361.31 154.59 361.27 154.72 360.36 155.75L359.39 156.83L341.88 157C328.13 157.13 324.27 157.26 323.93 157.6C323.58 157.95 323.48 169.58 323.42 219.25L323.33 280.46L322.61 281.23L321.88 282L292.68 282C270.4 282 263.37 282.09 263.07 282.4C262.77 282.69 262.67 285.56 262.67 293.23C262.67 303.22 262.64 303.7 262 304.33C261.24 305.1 258.41 305.27 257.73 304.6C257.44 304.31 257.33 301.63 257.33 294.64C257.33 289.38 257.24 284.61 257.12 284.03C256.72 281.99 256.78 282 238.69 282C222.88 282 222.35 282.02 222.01 282.64C221.79 283.05 221.67 287.46 221.67 294.66L221.67 306.03L220.85 306.85C219.9 307.79 218.5 307.91 217.41 307.15ZM317.72 276.12C318.31 275.58 318.33 271.48 318.33 158.18C318.33 67.33 318.24 40.71 317.93 40.4C317.62 40.09 295.14 40 218.77 40L120 40L120 158.11C120 223.07 120.1 276.32 120.22 276.44C120.34 276.57 164.7 276.67 218.78 276.67C309.81 276.67 317.16 276.63 317.72 276.12ZM269.81 272.69C269.43 272.53 268.87 272.02 268.57 271.56C268.27 271.1 267.73 270.63 267.38 270.51C267.03 270.4 266.56 269.88 266.34 269.35C266.12 268.82 265.65 268.12 265.3 267.81C264.79 267.34 264.67 266.77 264.67 264.84C264.67 262.72 264.76 262.36 265.5 261.67C265.96 261.24 266.33 260.69 266.33 260.45C266.33 260.21 266.75 259.76 267.25 259.44C267.75 259.13 268.49 258.49 268.88 258.02C269.58 257.2 269.73 257.17 273.46 257.17C277.23 257.17 277.35 257.19 278.24 258.09C278.75 258.59 279.75 259.5 280.47 260.12C281.59 261.07 281.81 261.48 282.01 263.03C282.14 264.02 282.14 265.65 282 266.64C281.79 268.22 281.58 268.61 280.3 269.76C279.49 270.48 278.41 271.46 277.89 271.95C277.02 272.77 276.7 272.84 273.72 272.91C271.95 272.95 270.19 272.86 269.81 272.69ZM178.92 270.31C177.33 269.38 179.49 266.75 182.6 265.81C183.57 265.52 184.54 264.99 184.76 264.63C184.99 264.26 185.7 263.9 186.4 263.78C188.24 263.49 188.79 262.7 188.59 260.66C188.5 259.72 188.26 258.8 188.06 258.59C187.61 258.15 184.27 257.66 183.34 257.9C182.79 258.04 182.67 258.35 182.67 259.53C182.67 260.71 182.51 261.09 181.84 261.53C180.98 262.09 179.6 261.97 178.75 261.27C178.04 260.67 178.29 259.18 179.37 257.55C180.98 255.11 181.27 255 185.79 255L189.77 255L191.38 256.75C193.43 258.98 193.67 259.97 192.54 261.66C192.07 262.37 191.3 263.23 190.82 263.56C190.34 263.89 189.49 264.65 188.92 265.25C188.36 265.85 187.69 266.33 187.45 266.33C186.9 266.33 186.86 267.2 187.39 267.53C187.6 267.67 188.85 267.8 190.16 267.83C191.47 267.86 192.72 267.99 192.94 268.13C193.52 268.49 193.42 269.49 192.72 270.12C192.2 270.59 191.22 270.67 185.81 270.66C182.15 270.65 179.26 270.5 178.92 270.31ZM223.73 270.27C223 269.53 223.26 268.35 224.25 267.93C226.18 267.1 226.33 266.79 226.33 263.61C226.33 260.69 226.32 260.65 225.42 260.29C223.75 259.63 223.5 259.44 223.39 258.7C223.23 257.6 223.93 257 225.36 257C226.4 257 226.79 256.81 227.39 256C228.23 254.86 229.3 254.71 230.11 255.6C230.55 256.09 230.67 257.17 230.74 261.67L230.83 267.15L232.32 267.7C234.24 268.41 234.68 269.06 233.85 269.98C233.28 270.61 232.85 270.67 228.68 270.67C225.59 270.67 224.01 270.54 223.73 270.27ZM275.9 268.96C278.31 266.73 278.26 262.63 275.8 260.7C275.17 260.21 274.43 260 273.28 260C271.84 260 271.5 260.15 270.41 261.24C269.2 262.44 269.17 262.55 269.17 264.89L269.17 267.31L270.65 268.69C272.02 269.97 272.24 270.06 273.59 269.91C274.48 269.81 275.37 269.44 275.9 268.96ZM158.44 261.66C157.32 261.22 157.09 260.45 156.96 256.83L156.83 253.5L158.09 253.54C159.38 253.58 160.67 254.42 160.67 255.23C160.67 255.48 161.48 256.5 162.46 257.51C164.22 259.29 164.3 259.33 166.15 259.33C168.26 259.33 169.61 258.77 170.64 257.46C171.78 256.01 171.55 254.64 169.88 252.87C168.62 251.53 168.26 251.33 167.06 251.33C166.03 251.33 165.42 251.1 164.59 250.38C163.99 249.86 162.97 249.33 162.31 249.21C160.7 248.92 158.82 246.93 158.3 244.99C158 243.85 157.99 242.87 158.26 241.04C158.6 238.77 158.72 238.52 160.03 237.38C160.81 236.71 161.68 236.06 161.97 235.94C162.91 235.54 173.31 235.63 174.11 236.05C175.23 236.64 175.32 236.96 175.33 240.03C175.33 242.46 175.23 242.99 174.68 243.49C173.68 244.39 172.4 243.92 171.77 242.4C171.49 241.72 170.57 240.53 169.72 239.75C168.22 238.37 168.12 238.33 165.92 238.33C163.79 238.33 163.63 238.39 163.33 239.19C163.15 239.66 163 240.73 163 241.57C163 242.94 163.15 243.24 164.6 244.66C166.06 246.1 166.37 246.25 168.11 246.4C169.41 246.51 170.32 246.79 170.93 247.29C171.43 247.69 172.28 248.23 172.83 248.49C173.38 248.76 174.36 249.52 175 250.19C176.13 251.37 176.17 251.5 176.17 253.97C176.17 256.47 176.14 256.56 174.83 258.1C174.1 258.96 173.2 259.75 172.83 259.85C172.46 259.95 171.91 260.47 171.6 261.02L171.03 262L165.1 261.98C161.84 261.97 158.84 261.83 158.44 261.66ZM203.67 261.57C202.92 261.19 202.81 260.87 202.58 258.49C202.07 253.04 202 253.49 203.42 253.54C204.77 253.58 205.85 254.32 206.21 255.46C206.33 255.85 207.19 256.89 208.12 257.78L209.82 259.4L212.11 259.27C214.26 259.15 214.48 259.06 215.54 257.91C217.22 256.07 217.12 254.62 215.19 252.75C213.94 251.55 213.51 251.33 212.35 251.33C211.3 251.33 210.76 251.12 210.09 250.45C209.6 249.96 208.59 249.43 207.85 249.27C207.03 249.08 206.02 248.49 205.27 247.77C203.64 246.18 203.17 244.26 203.62 241.01C203.93 238.76 204.05 238.52 205.37 237.38C206.14 236.71 207.02 236.06 207.31 235.94C207.6 235.82 210.28 235.7 213.27 235.69C217.52 235.67 218.91 235.78 219.68 236.18L220.67 236.68L220.67 239.83C220.67 242.78 220.62 243.02 219.88 243.5C218.79 244.21 217.52 243.7 217.05 242.34C216.85 241.77 216.02 240.64 215.21 239.82C213.73 238.34 213.7 238.33 211.38 238.33C210.08 238.33 208.94 238.49 208.82 238.69C208.7 238.89 208.52 239.92 208.42 240.98C208.24 243.01 208.31 243.15 210.24 244.71C210.61 245.01 210.98 245.45 211.06 245.68C211.14 245.93 212.15 246.22 213.49 246.38C215.24 246.59 215.99 246.85 216.65 247.49C217.13 247.94 217.96 248.48 218.51 248.68C219.05 248.88 219.99 249.65 220.58 250.39C221.57 251.61 221.67 251.95 221.67 253.99C221.67 256.13 221.6 256.34 220.3 257.96C219.55 258.9 218.62 259.75 218.22 259.85C217.82 259.95 217.24 260.47 216.93 261.02L216.36 262L210.43 262C206.33 261.99 204.24 261.86 203.67 261.57ZM247.16 261.68C245.95 261.19 245.74 260.56 245.62 257L245.5 253.5L246.76 253.54C248.05 253.58 249.33 254.42 249.33 255.23C249.33 255.48 250.14 256.5 251.13 257.51C252.9 259.31 252.95 259.33 254.88 259.33C257.19 259.33 258.69 258.56 259.52 256.97C260.28 255.5 259.94 254.28 258.34 252.68C257.22 251.55 256.78 251.33 255.66 251.33C254.65 251.33 254.09 251.1 253.32 250.38C252.73 249.81 251.79 249.33 251.01 249.21C250.1 249.06 249.35 248.62 248.52 247.75C246.91 246.06 246.53 244.65 246.83 241.47C247.07 238.91 247.1 238.84 248.62 237.43C249.47 236.64 250.48 235.91 250.86 235.8C251.25 235.7 254.05 235.67 257.08 235.73C263.99 235.86 264 235.86 264 239.74C264 242.47 263.72 243.45 262.84 243.78C261.95 244.13 260.7 243.4 260.22 242.25C259.97 241.64 259.12 240.51 258.33 239.74C256.92 238.36 256.85 238.33 254.61 238.33C252.46 238.33 252.3 238.39 251.99 239.19C251.81 239.66 251.67 240.73 251.67 241.57C251.67 242.94 251.82 243.24 253.27 244.66C254.72 246.1 255.04 246.25 256.78 246.4C258.08 246.51 258.99 246.79 259.6 247.29C260.09 247.69 260.97 248.23 261.53 248.49C265.17 250.16 266.15 255.1 263.44 258.13C262.76 258.88 261.86 259.62 261.44 259.78C261.01 259.93 260.67 260.19 260.67 260.36C260.67 260.53 260.37 260.97 260 261.33C259.38 261.95 258.9 262 253.58 261.98C250.42 261.97 247.53 261.83 247.16 261.68ZM131.33 240.4C130.03 239.97 130.01 238.25 131.29 236.48C131.82 235.76 132.36 234.79 132.5 234.33C132.74 233.52 134.35 230.67 135.89 228.32C136.32 227.66 136.67 226.91 136.67 226.65C136.67 226.38 136.98 225.66 137.35 225.05C137.73 224.43 137.94 223.83 137.82 223.71C137.71 223.6 135.76 223.41 133.49 223.3C129.26 223.1 128.33 222.81 128.33 221.66C128.33 220.74 129.13 220.58 134.5 220.42C139.68 220.25 142.2 220.6 142.55 221.51C142.8 222.16 141.42 226.18 140.46 227.6C140.02 228.24 139.67 228.96 139.67 229.21C139.67 229.46 139.16 230.23 138.54 230.92C137.92 231.6 137.31 232.65 137.19 233.23C137.06 233.82 136.51 234.85 135.98 235.53C135.44 236.2 135 237.09 135 237.5C135 239.02 132.69 240.85 131.33 240.4ZM131.17 216.78C129.84 216.42 128.44 215.02 127.32 212.95C126.27 210.99 126.18 210.61 126.17 207.82C126.17 205.1 126.27 204.59 127.31 202.32C128 200.83 129.06 199.23 129.95 198.34C131.4 196.88 131.5 196.84 133.86 196.72C136.41 196.59 138.67 197.1 138.67 197.81C138.67 198.74 137.35 199.41 135.21 199.58C133.3 199.73 132.92 199.89 131.95 200.89C131.06 201.81 130.92 202.13 131.21 202.59C131.5 203.05 132.06 203.17 133.9 203.17C136.23 203.17 137.33 203.6 137.33 204.51C137.33 204.75 137.72 205.22 138.19 205.56C139.27 206.35 139.69 208.17 139.43 210.95C139.24 212.96 139.12 213.2 137.53 214.88C135.91 216.58 135.74 216.67 133.83 216.81C132.73 216.89 131.53 216.88 131.17 216.78ZM134.05 213.42C134.32 213.1 134.82 212.2 135.15 211.42C135.73 210.08 135.74 209.93 135.19 208.2C134.57 206.23 134.27 206 132.31 206C131.19 206 130.98 206.12 130.79 206.87C130.56 207.81 130.82 211.81 131.17 212.73C131.29 213.04 131.79 213.44 132.28 213.62C133.5 214.07 133.5 214.07 134.05 213.42ZM127.77 192.5C126.97 191.94 126.17 189.9 126.46 189.15C126.74 188.43 128.15 188.56 130 189.5C131.93 190.48 133.36 190.57 134.07 189.75C134.34 189.43 134.83 188.42 135.15 187.5C135.73 185.85 135.73 185.82 134.95 184.17L134.16 182.5L131.38 182.33C127.64 182.11 127.49 181.91 127.55 177.4C127.57 175.25 127.74 173.81 128 173.5C128.33 173.1 129.4 173 133.5 173C138.85 173 139.54 173.19 139.27 174.56C139.08 175.59 137.67 175.99 134.25 176L131 176L131 177.48C131 178.29 131.17 179.06 131.37 179.19C131.57 179.31 132.75 179.43 133.98 179.46C136.21 179.5 136.25 179.52 137.76 181.07C139.5 182.87 139.91 184.36 139.51 187.54C139.3 189.22 139.1 189.58 137.48 191.2L135.68 193L132.08 193C129.42 193 128.3 192.87 127.77 192.5ZM135 169.08C133.7 168.65 133.33 167.92 133.33 165.79C133.33 163.21 133.05 163 129.59 163C126.34 163 125.86 162.64 125.86 160.25C125.86 158.53 125.95 158.32 127.69 156.3C128.7 155.13 130.12 153.44 130.85 152.54C131.57 151.65 132.39 150.65 132.67 150.33C132.94 150 133.79 149.63 134.56 149.51C135.71 149.32 136.07 149.4 136.64 149.97C137.27 150.6 137.33 151.06 137.33 154.98L137.33 159.29L138.33 160C139.62 160.91 139.62 161.87 138.34 162.6C137.39 163.14 137.34 163.28 137.34 165.27C137.33 166.43 137.18 167.66 136.99 168.01C136.57 168.81 135.66 169.3 135 169.08ZM132.59 159.48C133.94 158.54 133.41 156.33 131.83 156.33C130.75 156.33 129.79 159.39 130.75 159.78C131.47 160.07 131.83 160.01 132.59 159.48ZM367.86 151.27C367.57 150.86 366.7 150.22 365.92 149.85C364.89 149.36 364.31 148.78 363.83 147.78C363.47 147.02 362.9 146.11 362.57 145.75C362.25 145.39 361.84 144.26 361.68 143.23C361.51 142.21 361.15 141.02 360.86 140.59C360.53 140.08 360.28 138.55 360.13 136.13C359.93 132.91 359.99 132.18 360.61 130.31C360.99 129.13 361.41 127.34 361.53 126.33C361.65 125.31 362.08 123.99 362.5 123.33C362.92 122.69 363.51 121.62 363.82 120.96C364.19 120.14 364.78 119.57 365.66 119.17C366.37 118.85 367.26 118.23 367.64 117.79C368.5 116.8 370.56 116.71 371.67 117.6L372.41 118.21L371.35 119.1C370.76 119.6 370.1 120 369.87 120C369.53 120 367.98 121.87 366.87 123.64C366.7 123.9 366.26 125.33 365.88 126.81C365.35 128.91 365.2 130.56 365.2 134.33C365.2 142.51 366.85 146.96 370.77 149.36C372.37 150.33 372.53 150.96 371.33 151.57C370 152.24 368.45 152.11 367.86 151.27ZM398.08 151.59C396.94 151.04 397.18 150.24 398.82 149.08C400.52 147.88 401.13 146.45 400.18 145.92C398.85 145.18 398.33 144.33 398.33 142.9C398.33 142.11 398.51 141.29 398.73 141.07C398.95 140.85 399.93 140.67 400.9 140.67C402.58 140.67 402.71 140.73 403.66 142.05C404.84 143.67 404.96 145.2 404.02 146.4C403.67 146.85 403.27 147.64 403.14 148.15C403.01 148.66 402.5 149.32 402.01 149.6C401.52 149.88 400.87 150.54 400.57 151.06C400 152.05 399.33 152.19 398.08 151.59ZM432.75 151.66C431.6 151.2 431.8 150.09 433.18 149.28C433.83 148.9 434.6 148.13 434.89 147.56C435.41 146.55 435.41 146.53 434.21 145.57C433.13 144.7 433 144.44 433 143.03C433 141.09 433.4 140.67 435.26 140.67C437.1 140.67 437.75 141.02 438.63 142.51C439.5 143.99 439.52 145.13 438.69 146.3C438.33 146.8 437.94 147.63 437.81 148.15C437.68 148.67 437.15 149.32 436.62 149.63C436.1 149.92 435.67 150.28 435.67 150.42C435.67 150.84 434.36 152 433.92 151.98C433.69 151.97 433.16 151.82 432.75 151.66ZM465.08 151.59C463.94 151.04 464.18 150.24 465.82 149.08C467.52 147.88 468.13 146.45 467.18 145.92C465.89 145.2 465.33 144.33 465.33 143.02C465.33 141.25 466 140.67 468.01 140.67C469.48 140.67 469.72 140.78 470.55 141.87C471.44 143.03 471.53 143.07 473.25 142.92C476.08 142.69 476.02 142.87 476.21 133.97C476.31 129.68 476.26 125.27 476.11 124.18L475.83 122.19L474.28 121.75C472.57 121.27 472.03 120.5 472.83 119.69C473.27 119.25 474.57 119.15 480.93 119.07C487.97 118.98 488.58 119.02 489.67 119.64C490.31 120 491.48 120.62 492.27 121.01C493.06 121.4 493.87 122.08 494.07 122.52C494.27 122.96 494.71 123.41 495.05 123.52C495.4 123.63 495.92 124.19 496.22 124.77C496.51 125.36 496.96 125.95 497.2 126.09C497.93 126.52 498.33 128.65 498.33 132.17C498.33 137.12 498.06 137.76 494.28 141.7C492.99 143.04 492.13 143.67 491.58 143.67C491.12 143.67 490.29 144.12 489.69 144.7L488.61 145.73L480.32 145.63L472.03 145.52L471.2 146.3C470.74 146.73 470.27 147.53 470.15 148.08C470.02 148.68 469.56 149.28 468.97 149.62C468.44 149.92 468 150.33 468 150.53C468 151.05 466.87 152 466.31 151.98C466.05 151.97 465.5 151.79 465.08 151.59ZM500.58 151.64C499.6 151.07 499.92 150.32 501.99 148.37C503.53 146.93 504.23 145.93 505.07 144C506.15 141.51 506.16 141.47 506.27 135.19C506.39 128.52 506.25 127.43 504.76 124.04C504.03 122.38 501.68 119.67 500.97 119.67C500.79 119.67 500.48 119.3 500.28 118.84C499.75 117.68 500.4 117 502.04 117C503.55 117 504.22 117.51 508.14 121.67C508.57 122.12 509.11 123.1 509.34 123.83C509.56 124.57 509.97 125.42 510.24 125.73C511 126.6 511.41 131.31 511.2 136.64C511.04 140.83 510.91 141.63 510.22 142.97C509.78 143.81 509.31 144.88 509.17 145.33C508.93 146.1 507.42 148.1 506.15 149.33C505.87 149.61 505.17 150.32 504.59 150.92C503.79 151.75 503.27 152 502.36 151.99C501.7 151.98 500.9 151.83 500.58 151.64ZM129.17 147.84C128.98 147.78 128.41 147.63 127.89 147.52C126.07 147.11 125.36 143.33 127.11 143.33C127.53 143.33 128.21 143.71 128.6 144.17C129.24 144.89 129.6 145 131.45 145C134.18 145 134.79 144.42 134.82 141.79C134.84 139.64 134.27 139 132.34 139C131.02 139 130.33 138.52 130.33 137.61C130.33 136.88 131.31 136.33 132.59 136.33C134.01 136.33 134.74 135.34 134.77 133.38C134.78 132.46 134.6 131.48 134.36 131.19C133.74 130.45 131.26 130.52 129.67 131.33C128.95 131.7 128.05 132 127.67 132C126.3 132 126.38 130.1 127.81 128.56C128.61 127.7 128.75 127.67 132.32 127.67C135.41 127.67 136.08 127.76 136.51 128.25C139.47 131.67 139.76 132.61 138.47 134.51C137.98 135.23 137.51 136.35 137.43 136.99C137.29 138.01 137.41 138.27 138.3 138.93C139.23 139.61 139.33 139.86 139.32 141.43C139.31 143.18 139 144 137.9 145.19C137.57 145.54 137.04 146.18 136.73 146.6C136.42 147.02 135.57 147.5 134.83 147.68C133.57 147.97 129.88 148.07 129.17 147.84ZM348.08 145.32C346.71 144.77 346.77 144 348.29 142.7L349.69 141.5L349.6 136.51L349.5 131.51L348.08 130.73C346.93 130.09 346.67 129.77 346.67 128.99C346.67 128.18 346.89 127.93 348.15 127.38C349.39 126.83 349.68 126.51 349.98 125.41C350.26 124.37 351 120.81 351 120.51C351 120.29 353.83 117.6 354.34 117.33C354.68 117.15 356.02 117 357.33 117C359.39 117 359.8 117.1 360.5 117.8C361.49 118.8 361.88 120.18 361.34 120.82C361.13 121.08 360.43 121.47 359.81 121.68C358.82 122 358.51 121.96 357.54 121.36C356.93 120.98 356.26 120.67 356.05 120.67C355.25 120.67 354.64 122.66 354.74 124.92C354.83 127.07 354.87 127.16 355.83 127.47C356.38 127.65 357.36 128 358 128.25L359.17 128.71L358.23 129.52C357.72 129.96 356.9 130.43 356.4 130.54C354.7 130.95 354.67 131.06 354.67 136.68L354.67 141.95L356.06 142.73C357.74 143.66 357.92 144.08 357.02 144.98C356.4 145.6 355.94 145.66 352.58 145.65C350.52 145.63 348.49 145.49 348.08 145.32ZM371.42 145.34C370.11 144.79 370.44 143.53 372.16 142.52C373.68 141.63 374.38 140.65 374.81 138.83C374.94 138.28 375.36 137.59 375.74 137.29C376.26 136.89 376.51 136.2 376.69 134.67C376.87 133.12 377.15 132.38 377.79 131.71C378.42 131.06 378.7 130.31 378.87 128.87C379.05 127.36 379.32 126.7 380.05 125.95C380.59 125.4 381 124.61 381 124.14C381 122.45 381.76 120.29 382.52 119.79C382.94 119.51 383.78 119.34 384.38 119.39C385.39 119.49 385.53 119.66 386.19 121.5C386.58 122.6 387.14 123.95 387.45 124.5C387.75 125.05 388 125.82 388 126.2C388 126.59 388.39 127.64 388.87 128.53C389.35 129.43 389.96 130.88 390.22 131.76C390.48 132.63 390.98 133.83 391.32 134.42C391.67 135.02 392.06 136.09 392.19 136.82C392.32 137.54 392.86 138.81 393.38 139.63C393.91 140.46 394.33 141.31 394.33 141.53C394.33 141.74 394.86 142.32 395.5 142.81C396.85 143.84 396.96 144.42 395.93 145.15C394.98 145.81 386.71 145.91 386.07 145.27C385.36 144.56 385.58 143.07 386.42 142.82C387.7 142.42 388.35 141.66 387.99 140.98C387.81 140.65 387.67 139.91 387.67 139.33C387.67 137.15 387.38 137 383.24 137C378.43 137 377.48 137.46 377.26 139.89C377.06 142.02 377.36 142.51 379.12 142.95C380.84 143.39 381.22 144.03 380.28 144.89C379.72 145.39 378.96 145.51 375.88 145.58C373.84 145.62 371.83 145.51 371.42 145.34ZM408.06 145.13C406.99 144.39 407.23 143.31 408.57 142.86C409.17 142.66 409.99 142.16 410.41 141.74C411.16 140.99 411.17 140.89 411.17 132.17C411.17 122.45 411.26 122.87 408.97 121.74C408.29 121.39 407.79 120.88 407.73 120.44C407.55 119.2 409.33 118.94 417.21 119.06L424.25 119.17L425.8 120.67C427.65 122.46 428.2 124.03 427.67 126C427.22 127.65 425.55 129.61 424.07 130.23C422.39 130.93 422.75 131.78 424.82 132.02C425.81 132.14 426.52 132.4 426.62 132.69C426.7 132.95 427.29 133.64 427.92 134.22C429.03 135.24 429.07 135.35 429.06 137.78C429.05 139.16 428.88 140.6 428.68 140.97C428.48 141.34 427.27 142.55 425.99 143.66L423.65 145.67L416.23 145.67C409.98 145.67 408.7 145.58 408.06 145.13ZM447.45 145.08C445.26 143.87 443.67 142.64 443.67 142.17C443.67 141.9 443.3 141.44 442.85 141.15C442.4 140.85 441.85 140.06 441.63 139.39C441.41 138.72 440.88 137.51 440.45 136.7C439.79 135.47 439.67 134.74 439.67 132.2C439.67 129.65 439.79 128.92 440.46 127.66C440.89 126.84 441.36 125.79 441.5 125.33C441.83 124.24 443.8 122.01 445.17 121.17C445.77 120.8 446.68 120.2 447.2 119.83C448.03 119.24 448.77 119.16 454.09 119.06C461.87 118.93 461.67 118.81 461.67 123.27C461.67 125.67 461.53 126.71 461.15 127.26C460.38 128.35 459.39 128.21 458.85 126.92C458.6 126.32 457.97 125.29 457.45 124.62C456.93 123.95 456.34 123.14 456.15 122.81C455.89 122.38 455.24 122.18 453.74 122.07C451 121.87 450.22 122.11 448.52 123.69C446.83 125.24 446.53 125.91 445.87 129.51C445.42 131.94 445.43 132.45 445.96 135.17C446.65 138.73 446.95 139.35 448.59 140.57C449.27 141.08 450.13 141.77 450.49 142.1C451.03 142.58 451.63 142.67 453.66 142.6C455.87 142.51 456.2 142.41 456.49 141.77C456.66 141.37 457.16 140.88 457.59 140.69C458.02 140.49 458.6 139.77 458.89 139.08C459.52 137.58 459.83 137.35 461.29 137.34C462.23 137.33 462.36 137.43 462.16 137.92C462.02 138.24 461.84 138.91 461.75 139.4C461.66 139.95 460.87 140.97 459.71 142.01C458.68 142.95 457.38 144.16 456.83 144.69C455.85 145.65 455.77 145.67 452.17 145.67C449.3 145.67 448.27 145.54 447.45 145.08ZM422.56 140.33C423.65 138.17 424 135.91 423.32 135.49C423.13 135.37 422.6 134.69 422.15 133.97L421.32 132.67L419.06 132.67C417.75 132.67 416.63 132.83 416.4 133.07C415.84 133.63 415.85 141.71 416.41 142.28C416.68 142.55 417.63 142.66 419.15 142.6L421.47 142.5L422.56 140.33ZM488.45 141.67C489.08 141.12 489.71 140.67 489.85 140.67C490.41 140.67 491.33 139.53 491.33 138.83C491.33 138.43 491.71 137.39 492.17 136.53C493.26 134.48 493.25 132.47 492.12 128.99C491.22 126.2 490.47 125.2 487.57 122.92C486.52 122.09 486.15 122 483.7 122L481 122L481 131.81C481 137.2 481.09 141.85 481.2 142.14C481.37 142.57 481.97 142.67 484.36 142.67C487.16 142.67 487.37 142.62 488.45 141.67ZM385.12 133.27C385.36 132.88 385.2 132.23 384.49 130.79C382.73 127.2 381.88 126.76 381.51 129.25C381.38 130.12 380.97 131.33 380.6 131.94C379.79 133.26 380.05 133.66 381.9 133.99C383.44 134.25 384.67 133.98 385.12 133.27ZM421.05 128.32C422.49 126.81 422.69 125.6 421.84 123.56C421.28 122.22 420.3 121.87 417.66 122.06L416.17 122.17L416.07 125.45C416.01 127.59 416.11 128.9 416.36 129.2C416.59 129.47 417.37 129.67 418.26 129.67C419.59 129.67 419.92 129.51 421.05 128.32ZM127.33 121.57C126.71 121.25 126.47 120.84 126.4 119.9C126.3 118.72 126.48 118.44 129.4 115.38C134.86 109.65 134.67 109.93 134.67 107.56C134.67 106.38 134.49 105.29 134.27 105.07C133.61 104.41 131.53 104.61 129.62 105.5C127.4 106.53 127.08 106.53 126.62 105.53C126.33 104.88 126.38 104.47 126.88 103.46C127.67 101.85 128.77 101.54 132.98 101.75C135.96 101.91 136.17 101.96 136.89 102.87C137.31 103.4 137.89 104.11 138.19 104.45C139.57 106.02 139.54 108.75 138.12 110.44C137.69 110.96 137.33 111.56 137.33 111.78C137.33 111.99 136.13 113.43 134.67 114.98C133.2 116.52 132 117.97 132 118.19C132 118.81 132.83 119 135.51 119C138.42 119 139.67 119.39 139.67 120.31C139.67 121.71 138.53 122 133.18 122C129.82 121.99 127.89 121.85 127.33 121.57ZM129 97.92C127.71 97.24 127.88 95.97 129.35 95.28C131.32 94.35 131.36 94.22 131.26 88.82C131.16 83.53 131.28 83.85 129.17 82.93C128.44 82.61 128.17 82.26 128.17 81.66C128.17 81.08 128.46 80.69 129.17 80.33C129.72 80.05 130.71 79.49 131.37 79.08C132.7 78.26 133.98 78.12 134.6 78.73C134.89 79.02 135 81.3 135 86.88C135 92.66 135.1 94.7 135.41 94.9C135.64 95.05 136.5 95.39 137.33 95.67C139.09 96.25 139.27 96.95 137.83 97.64C136.44 98.31 130.11 98.52 129 97.92ZM128.87 74.33C127.53 73.92 126.1 72.47 125.07 70.5C124.24 68.92 124.2 68.58 124.23 64.17C124.26 59.55 124.27 59.48 125.38 57.33C126.3 55.57 126.72 55.09 127.67 54.77C130.13 53.93 134.45 54.45 134.82 55.63C134.93 55.96 135.45 56.62 135.97 57.09C136.86 57.88 136.95 58.18 137.17 61.14C137.3 62.9 137.31 65.72 137.18 67.42L136.94 70.5L135.22 72.39C133.61 74.16 133.39 74.29 131.67 74.45C130.66 74.54 129.4 74.49 128.87 74.33ZM132.11 71.07C133.13 69.93 133.39 61.61 132.51 58.09C132.33 57.37 132.16 57.31 130.57 57.4L128.83 57.5L128.59 60.33C128.31 63.73 128.62 70.67 129.08 71.25C129.58 71.87 131.48 71.76 132.11 71.07Z" fill="#1e2749" fill-rule="evenodd"/>
</svg>
