<?xml version="1.0" encoding="UTF-8"?>
<svg xmlns="http://www.w3.org/2000/svg" viewBox="0 0 500 161" width="500" height="161" shape-rendering="geometricPrecision">
<path d="M205.99 137.46C205.79 136.95 205.69 133.07 205.74 127.88L205.83 119.17L207.36 119.07C208.35 119 209.03 119.13 209.27 119.42C209.47 119.67 209.68 121.29 209.74 123.02L209.83 126.17L212.8 126.26C214.62 126.32 215.91 126.22 216.14 126C216.34 125.8 216.57 124.18 216.67 122.4L216.83 119.17L218.27 119.06C220.72 118.89 220.67 118.67 220.67 128.49C220.67 136.53 220.62 137.27 220.06 137.78C219.2 138.55 217.45 138.5 217.01 137.69C216.82 137.33 216.67 135.62 216.67 133.88C216.67 131.4 216.55 130.6 216.12 130.17C215.83 129.87 215.36 129.71 215.1 129.81C214.83 129.92 213.5 130 212.14 130L209.67 130L209.67 133.62C209.67 137.68 209.35 138.33 207.38 138.33C206.54 138.33 206.25 138.15 205.99 137.46ZM375.5 135.72C371.91 134.52 370.22 131.45 370.26 126.17C370.3 120.82 372.03 118.09 376.17 116.84C378.33 116.19 380.32 116.2 382.72 116.87C386.42 117.91 388.35 121.05 388.32 126.02C388.3 130.44 385.94 134.41 382.69 135.49C380.29 136.29 377.47 136.38 375.5 135.72ZM381.5 132.02C383.18 131.08 383.99 129.23 383.99 126.29C384 123.22 383.24 121.24 381.7 120.3C379.6 119.03 376.44 119.82 375.21 121.94C374.31 123.5 374.11 127.06 374.78 129.38C375.39 131.46 375.99 132.14 377.67 132.6C379.02 132.98 380.1 132.81 381.5 132.02ZM87.73 119.27C87.44 118.97 87.33 115.58 87.33 106.08L87.33 93.29L88.42 93.4L89.5 93.5L89.59 106.17C89.67 117.78 89.63 118.87 89.11 119.25C88.4 119.77 88.24 119.77 87.73 119.27ZM129.22 118.78C129.1 118.66 129 112.73 129 105.61L129 92.67L129.77 92.67C130.19 92.67 130.71 92.85 130.93 93.07C131.51 93.64 131.51 118.03 130.93 118.6C130.5 119.04 129.58 119.13 129.22 118.78ZM212.17 117.01C211.91 116.58 211.89 91.44 212.16 91.01C212.47 90.51 213.21 90.59 213.81 91.19C214.27 91.65 214.33 93.26 214.33 103.88C214.33 111.63 214.21 116.28 213.99 116.69C213.63 117.37 212.51 117.56 212.17 117.01ZM254.15 116.92C254.06 116.69 254.03 110.73 254.08 103.67C254.16 92.13 254.22 90.83 254.71 90.74C255.01 90.68 255.5 90.88 255.79 91.17C256.27 91.65 256.33 93.12 256.33 104.12C256.33 113.33 256.23 116.64 255.93 116.93C255.41 117.46 254.36 117.45 254.15 116.92ZM296.22 116.44C296.1 116.32 296 110.4 296 103.28C296 90.74 296.02 90.33 296.64 90.33C298.41 90.33 298.33 89.75 298.33 103.3C298.33 112.63 298.23 115.97 297.93 116.27C297.5 116.7 296.58 116.8 296.22 116.44ZM416.1 115.92C415.72 115.33 415.64 91.45 416.01 90.47C416.38 89.49 417.5 89.4 417.99 90.31C418.21 90.72 418.33 95.36 418.33 103.09C418.33 114.43 418.29 115.27 417.72 115.78C417 116.44 416.47 116.48 416.1 115.92ZM458.21 115.4C458.12 115.25 458.01 109.36 457.98 102.32L457.91 89.5L459.04 89.5L460.17 89.5L460.25 101.97C460.33 113.22 460.29 114.5 459.79 115.05C459.2 115.7 458.49 115.85 458.21 115.4ZM373.88 114.83C373.38 114.33 373.33 113.17 373.41 103.55L373.5 92.83L374.23 92.73C375.6 92.53 375.7 93.39 375.6 104.16C375.51 112.95 375.43 114.38 374.96 114.85C374.47 115.34 374.38 115.34 373.88 114.83ZM379.22 114.25C378.97 113.27 378.97 94.4 379.22 93.42C379.42 92.6 380.29 92.43 380.93 93.07C381.51 93.64 381.51 114.03 380.93 114.6C380.29 115.24 379.42 115.06 379.22 114.25ZM38.74 91.06C38.42 90.85 38.34 88.7 38.41 81.48L38.5 72.17L40.33 72.08C42.62 71.97 43.64 72.48 44.53 74.18C44.91 74.9 45.8 76.55 46.5 77.83C47.2 79.12 48.21 81.05 48.74 82.13C49.33 83.32 49.83 83.97 50.01 83.79C50.18 83.62 50.36 80.94 50.41 77.83L50.5 72.17L51.46 72.06C51.98 72 52.77 72.04 53.21 72.15L54 72.35L54 81.15L54 89.95L53.12 90.64C52.05 91.49 50.81 91.52 49.55 90.75C48.62 90.18 48.21 89.49 44.1 81.58C43.07 79.61 42.1 78 41.95 78C41.79 78 41.67 80.75 41.67 84.12C41.67 89.62 41.61 90.29 41.06 90.78C40.4 91.37 39.43 91.49 38.74 91.06ZM85.02 88.78C82.73 87.59 81.5 86.04 80.85 83.51C79.49 78.25 81.09 73.01 84.68 71.01C86.69 69.89 91.2 69.8 92.97 70.84C94.48 71.72 94.99 73.16 94.1 74.04C93.47 74.68 93.44 74.68 91.85 73.97C89.95 73.13 87.7 73.23 86.61 74.21C84.76 75.86 84.17 79.86 85.28 83.16C85.72 84.49 86.1 84.97 87.17 85.57C88.84 86.51 89.7 86.52 91.92 85.6C93.45 84.97 93.74 84.93 94.14 85.35C94.42 85.65 94.53 86.24 94.43 86.91C94.18 88.48 92.49 89.37 89.33 89.57C87.07 89.71 86.66 89.63 85.02 88.78ZM129.13 88.99C124.47 88.01 122.09 84.29 122.4 78.46C122.51 76.34 122.75 75.35 123.49 73.89C124.7 71.5 125.46 70.81 127.77 69.99C130.87 68.9 134.29 69.26 135.88 70.85C136.82 71.78 136.88 72.67 136.08 73.63L135.5 74.34L133.83 73.51C131.84 72.53 131.08 72.48 129.46 73.25C126.39 74.71 125.78 82.11 128.52 84.69C129.6 85.7 132.26 85.77 134.33 84.84C135.72 84.21 135.75 84.21 136.2 84.83C138.03 87.33 133.61 89.92 129.13 88.99ZM169.2 88.31C167.23 87.82 165.75 86.77 164.86 85.22C162.78 81.59 162.9 75.25 165.12 71.85C166.47 69.8 170.13 68.45 173.3 68.84C175.65 69.13 176.61 69.59 177.19 70.72C177.82 71.93 177.79 72.45 177.06 73.11C176.5 73.62 176.37 73.61 175.16 73C173.47 72.13 170.69 72.1 169.66 72.94C167.77 74.47 167.08 79.41 168.37 82.24C169.65 85.07 171.45 85.8 174.31 84.68C176.6 83.77 177.27 83.81 177.53 84.84C177.8 85.9 177.01 87.14 175.6 87.87C174.31 88.53 171 88.76 169.2 88.31ZM205.65 87.32C204.99 86.66 204.97 86.33 205.07 78C205.13 72.75 205.3 69.23 205.5 69.03C205.69 68.84 206.67 68.59 207.67 68.48C209.38 68.28 209.57 68.33 210.46 69.21C210.98 69.74 211.77 70.92 212.2 71.83C212.63 72.75 213.88 75.14 214.97 77.16C216.5 79.95 217.02 80.67 217.2 80.2C217.33 79.87 217.33 77.38 217.21 74.67C217.09 71.97 217.08 69.51 217.2 69.21C217.45 68.55 219.98 68.45 220.6 69.07C220.89 69.36 221 71.82 221 78.05C221 86.54 220.99 86.63 220.26 87.15C219.37 87.77 217 87.83 216.27 87.25C215.78 86.86 213.46 82.78 210.51 77.08C209.82 75.75 209.12 74.67 208.96 74.67C208.8 74.67 208.67 77.42 208.67 80.78C208.67 86.28 208.61 86.95 208.06 87.45C207.24 88.19 206.48 88.14 205.65 87.32ZM251.5 86.78C248.94 85.43 247.64 83.43 247.03 79.92C246.52 76.9 247.04 73.87 248.52 71.36C249.72 69.31 250.73 68.64 253.73 67.88C255.45 67.45 255.84 67.46 257.88 68.01C260.3 68.66 261 69.26 261 70.69C261 72.12 260.2 72.55 258.81 71.89C255.96 70.53 253.49 71.07 252.18 73.33C251.25 74.93 251.2 79.96 252.1 81.6C253.34 83.87 255.89 84.58 258.33 83.33C259.05 82.97 259.88 82.67 260.16 82.67C260.81 82.67 261.27 83.83 261.06 84.93C260.69 86.88 254.12 88.16 251.5 86.78ZM293.29 86.66C291.95 85.96 290.45 84.33 289.93 83.02C289.04 80.76 288.67 77.83 289.01 75.83C289.99 70.21 292.37 67.88 297.15 67.89C300.15 67.9 301.44 68.21 302.32 69.15C303.21 70.1 303.36 71.62 302.61 72.1C302.19 72.37 301.72 72.31 300.68 71.84C298.95 71.06 296.3 71.08 295.23 71.88C294.06 72.77 293.33 74.87 293.33 77.37C293.33 80.24 293.8 81.59 295.25 82.92C296.68 84.22 298.33 84.35 300.33 83.33C301.99 82.49 302.55 82.49 303.02 83.36C303.67 84.58 303.13 85.59 301.34 86.5C299.2 87.58 295.19 87.67 293.29 86.66ZM376.83 86.69C374.23 86.24 372.37 84.75 371 82.02C370.4 80.83 370.24 79.93 370.22 77.52C370.14 70.75 373.22 67.13 379 67.19C381.93 67.22 384.33 68.57 384.33 70.18C384.33 71.39 383.48 71.87 382.22 71.37C379.54 70.28 378.77 70.22 377.22 70.97C375.34 71.88 374.67 73.48 374.67 77.02C374.67 82.34 377.19 84.4 381.71 82.78C383.63 82.1 384.33 82.33 384.33 83.64C384.33 84.94 382.77 86.13 380.4 86.63C379.43 86.83 378.53 86.98 378.4 86.96C378.27 86.94 377.57 86.81 376.83 86.69ZM329.4 86.27C329.11 85.98 329 83.48 329 77.12C329 67.06 328.92 67.33 331.79 67.33C333.27 67.33 333.67 67.47 334.39 68.25C335.22 69.15 336.98 72.19 339.33 76.8C339.97 78.07 340.65 79.04 340.83 78.97C341.04 78.88 341.12 76.96 341.04 73.81C340.9 68 341.08 67.33 342.82 67.33C345.02 67.33 345.04 67.44 344.93 76.84C344.84 84.58 344.78 85.32 344.2 85.97C343.5 86.74 341.87 86.9 340.59 86.31C340.17 86.12 339.38 85.11 338.84 84.06C338.29 83.02 337.53 81.72 337.14 81.17C336.76 80.62 335.73 78.78 334.85 77.08C333.98 75.39 333.13 74 332.97 74C332.8 74 332.67 76.65 332.67 79.93C332.67 86.39 332.59 86.67 330.83 86.67C330.26 86.67 329.62 86.49 329.4 86.27ZM413.31 85.42C410.85 84.17 409.58 82.25 409.01 78.89C408.67 76.89 408.66 75.91 408.97 74.26C409.81 69.76 411.58 67.74 415.5 66.82C417.79 66.28 418.01 66.28 419.71 66.84C422.01 67.59 422.67 68.18 422.67 69.51C422.67 71.06 421.96 71.54 420.8 70.78C419.46 69.9 416 69.93 414.99 70.83C413.8 71.9 413.33 73.43 413.33 76.33C413.33 80.57 414.42 82.32 417.27 82.66C418.39 82.8 419.28 82.68 420.41 82.22C422.21 81.49 423 81.65 423 82.75C423 85.84 417.26 87.42 413.31 85.42ZM455.17 84.76C451.73 82.84 450.14 78.33 451.12 73.3C452.01 68.74 454.22 66.57 458.39 66.14C462.87 65.69 466.21 67.88 464.53 70.18C464.07 70.81 464.04 70.8 462.58 70.08C459.92 68.74 457.16 69.41 455.94 71.69C455.05 73.34 455.09 77.95 456.01 79.85C457.19 82.3 460.22 82.99 462.94 81.43C463.77 80.95 464.02 80.93 464.47 81.3C465.1 81.83 465.16 83.01 464.58 83.71C463.56 84.94 462.16 85.46 459.5 85.58C457.08 85.68 456.68 85.61 455.17 84.76ZM16.75 82.78C16.52 82.69 16.33 82.17 16.33 81.64L16.33 80.67L23.63 80.67C30.26 80.67 30.95 80.72 31.15 81.25C31.3 81.63 31.13 82.03 30.65 82.41C30.01 82.93 29.16 83 23.55 82.97C20.04 82.96 16.98 82.87 16.75 82.78ZM60.67 81.67C58.99 81.51 58.82 81.43 58.73 80.63C58.65 79.95 58.81 79.71 59.4 79.55C60.72 79.19 73.66 79.31 74.36 79.68C75.09 80.07 75.19 80.76 74.58 81.26C74.13 81.63 63.66 81.94 60.67 81.67ZM101.46 81.19C101.36 80.93 101.33 80.37 101.39 79.94L101.5 79.17L108.8 79.17C115.29 79.17 116.13 79.23 116.45 79.73C116.72 80.16 116.66 80.45 116.18 80.98C115.6 81.63 115.21 81.67 108.6 81.67C102.88 81.67 101.61 81.58 101.46 81.19ZM143.07 80.93C142.85 80.71 142.67 80.23 142.67 79.85C142.68 78.29 142.84 78.26 150.14 78.31C153.93 78.34 157.25 78.45 157.52 78.55C158.25 78.83 158.09 80.23 157.26 80.81C156.65 81.24 155.36 81.33 149.99 81.33C145.36 81.33 143.35 81.22 143.07 80.93ZM184.75 80.45C184.52 80.35 184.33 79.84 184.33 79.3L184.33 78.32L191.75 78.41C198.77 78.5 199.16 78.53 199.28 79.14C199.54 80.48 198.58 80.67 191.69 80.64C188.1 80.63 184.98 80.54 184.75 80.45ZM225.92 79.31C225.25 78.92 225.12 77.35 225.75 77.3C225.98 77.28 229.51 77.23 233.6 77.18C240.77 77.1 241.04 77.12 241.39 77.78C241.69 78.34 241.62 78.56 241.01 79.06C240.34 79.6 239.54 79.67 233.38 79.66C229.33 79.65 226.26 79.51 225.92 79.31ZM268.25 79.31C267.93 79.12 267.67 78.62 267.67 78.19C267.67 77.46 267.81 77.41 270.58 77.22C272.85 77.07 279.79 77.12 282.55 77.31C283.26 77.36 283.32 78.34 282.66 79.01C282.05 79.62 281.54 79.67 275.42 79.66C271.57 79.65 268.59 79.51 268.25 79.31ZM315 79.02L309.5 78.83L309.4 77.78L309.3 76.72L315.23 76.61C322.8 76.47 324.13 76.6 324.27 77.53C324.48 79.06 323.07 79.28 315 79.02ZM354.83 78.34C350.93 78.17 350.83 78.15 350.72 77.37C350.66 76.93 350.81 76.45 351.05 76.29C351.3 76.14 354.51 76.01 358.19 76.01C363.5 76 365.01 76.1 365.52 76.48C366.16 76.96 366.16 76.97 365.5 77.61C364.7 78.38 361.14 78.63 354.83 78.34ZM430.07 77.93C429.5 77.37 429.57 76.5 430.22 75.96C430.98 75.33 444.12 75.08 444.85 75.68C445.51 76.23 445.46 77.12 444.72 77.78C444.2 78.26 443.17 78.33 437.29 78.33C432.43 78.33 430.35 78.22 430.07 77.93ZM469.73 77.93C469.03 77.23 469.27 76.4 470.25 76.19C470.75 76.09 474.05 76.03 477.58 76.05C484.45 76.11 485.09 76.26 484.34 77.65C483.99 78.31 483.71 78.33 477.05 78.33C472.12 78.33 470.02 78.22 469.73 77.93ZM386.73 77.27C386.51 77.05 386.33 76.68 386.33 76.45C386.33 75.5 387.71 75.32 394.37 75.41C400.22 75.49 401.14 75.57 401.44 76.06C401.7 76.46 401.67 76.76 401.36 77.14C400.98 77.59 399.91 77.67 394.03 77.67C389.11 77.67 387.02 77.55 386.73 77.27ZM44.55 69.08C44.28 68.64 44.18 43.52 44.45 43.08C44.84 42.45 45.93 42.58 46.32 43.31C46.54 43.72 46.67 48.31 46.67 55.9C46.67 66.18 46.59 67.96 46.15 68.59C45.63 69.33 44.85 69.57 44.55 69.08ZM87.4 68.04C87.07 67.84 86.98 64.99 86.98 55.14C86.98 48.19 86.98 42.31 86.99 42.08C87 41.55 88.41 41.54 88.93 42.07C89.23 42.36 89.33 45.62 89.33 54.68L89.33 66.88L88.58 67.59C88.12 68.02 87.66 68.2 87.4 68.04ZM129 54.17L129 41L129.77 41C131.32 41 131.33 41.07 131.33 54.17C131.33 67.26 131.32 67.33 129.77 67.33L129 67.33L129 54.17ZM253.56 66.11C253.43 65.99 253.33 60.05 253.33 52.92L253.33 39.96L254.42 40.06L255.5 40.17L255.59 52.6C255.64 60.79 255.56 65.25 255.33 65.68C254.99 66.32 254 66.56 253.56 66.11ZM165.73 65.27C165.44 64.97 165.33 62.07 165.33 54.29C165.33 48.48 165.42 43.48 165.54 43.19C165.82 42.46 166.91 42.53 167.32 43.31C167.54 43.72 167.67 47.77 167.67 54.17C167.67 60.57 167.54 64.62 167.32 65.02C166.93 65.76 166.32 65.85 165.73 65.27ZM171.26 56.25C171.14 44.15 171.22 42.67 171.96 42.67C173.28 42.67 173.33 43.09 173.33 54.17C173.33 65.26 173.28 65.67 171.95 65.67C171.41 65.67 171.36 64.97 171.26 56.25ZM295.56 65.44C295.43 65.32 295.33 59.39 295.33 52.26L295.33 39.29L296.42 39.4L297.5 39.5L297.59 52.13C297.65 61.17 297.57 64.88 297.3 65.21C296.9 65.69 295.93 65.82 295.56 65.44ZM337.2 65.05C336.95 64.64 336.9 39.43 337.16 39.02C337.47 38.51 338.21 38.59 338.81 39.19C339.27 39.65 339.33 41.27 339.33 51.97C339.33 63.42 339.29 64.27 338.72 64.78C338.06 65.38 337.47 65.49 337.2 65.05ZM416.01 64.02C415.59 63.24 415.54 39.38 415.96 38.72C416.12 38.47 416.66 38.33 417.2 38.39L418.17 38.5L418.25 50.97C418.33 62.22 418.29 63.5 417.79 64.05C417.07 64.84 416.45 64.83 416.01 64.02ZM457.73 63.93C457.44 63.64 457.33 60.21 457.33 50.6L457.33 37.67L458.3 37.67C458.87 37.67 459.34 37.88 459.46 38.19C459.58 38.48 459.67 44.15 459.67 50.79C459.67 61.17 459.59 62.96 459.15 63.59C458.56 64.44 458.3 64.5 457.73 63.93ZM39.25 43.31C38.72 43 38.67 42.2 38.67 34.18C38.67 29.34 38.76 25.15 38.87 24.86C39.02 24.48 39.52 24.33 40.7 24.33C42.62 24.33 42.63 24.34 42.75 28.83L42.83 31.83L45.7 31.93C49.3 32.05 49.44 31.91 49.52 28.22C49.6 24.01 49.46 24.33 51.27 24.33C52.15 24.33 53.05 24.51 53.27 24.73C53.56 25.02 53.67 27.52 53.67 33.88C53.67 42.54 53.66 42.63 52.93 43.15C51.91 43.86 50.8 43.8 49.99 42.99C49.38 42.38 49.32 41.98 49.44 39.17C49.52 37.24 49.43 35.9 49.22 35.68C49.02 35.49 47.49 35.33 45.77 35.33L42.67 35.33L42.67 38.98C42.67 42.37 42.61 42.67 41.93 43.15C41.08 43.74 40.1 43.8 39.25 43.31ZM168.67 37.36C164.55 36.87 162.27 34.24 161.82 29.49C161.4 24.95 162.59 21.03 164.9 19.42C166.93 17.99 170.58 17.38 173.29 18.02C175.87 18.62 177.46 19.7 178.56 21.58C179.45 23.09 179.5 23.37 179.5 27.33L179.5 31.5L178.17 33.5C176.04 36.68 173.09 37.88 168.67 37.36ZM330.52 36.36C330.41 36.19 330.32 31.97 330.31 26.98C330.3 19.84 330.38 17.84 330.73 17.6C331.33 17.19 333.7 17.52 334.04 18.06C334.2 18.3 334.33 19.97 334.33 21.76L334.33 25.02L337.58 24.93L340.83 24.83L341 21.5C341.09 19.67 341.29 17.98 341.44 17.75C341.8 17.19 343.72 17.22 344.5 17.79C345.08 18.22 345.12 18.8 345.08 27.03C345.04 34.97 344.98 35.86 344.45 36.24C343.71 36.79 341.79 36.79 341.44 36.25C341.29 36.02 341.09 34.18 341 32.17L340.83 28.5L337.58 28.4L334.33 28.31L334.33 31.94C334.33 35.03 334.24 35.64 333.72 36.12C333.08 36.7 330.83 36.87 330.52 36.36ZM173.8 32.67C175 31.49 175.13 31.2 175.31 29.11C175.42 27.86 175.4 26.01 175.27 25C175.08 23.5 174.85 23.01 173.99 22.28C172.7 21.2 171.19 20.88 169.34 21.29C166.77 21.87 166.01 23.3 166 27.5C166 30.31 166.39 31.83 167.41 32.92C168.48 34.07 169.28 34.34 171 34.14C172.16 33.99 172.8 33.66 173.8 32.67Z" fill="#1e2749" fill-rule="evenodd"/>
</svg>
