<?xml version="1.0" encoding="UTF-8"?>
<svg xmlns="http://www.w3.org/2000/svg" viewBox="0 0 2430 1938" width="2430" height="1938" shape-rendering="geometricPrecision">
<path d="M1109.73 1902.97C1081.84 1895.96 1055.29 1852.78 1031.98 1776.5C999.36 1669.73 973.16 1492.91 960.55 1294.5C959.72 1281.3 958.79 1267.58 958.5 1264C958.21 1260.42 957.09 1240.38 956.02 1219.46C952.71 1154.94 951.5 1136.17 950.6 1135.27C949.91 1134.58 931.48 1133.35 894 1131.51C847.06 1129.21 782.73 1125.33 751.2 1122.91L723.9 1120.81L716.2 1127.72C685.99 1154.85 666.77 1170.47 662.1 1171.67C658.64 1172.57 656.44 1170.78 656.82 1167.4C657.33 1162.95 662.68 1156.58 678.45 1141.62C695.17 1125.78 699.05 1121.27 697.03 1120.02C694.94 1118.73 682.63 1117.14 654.01 1114.46C561.46 1105.82 460.66 1090.29 381 1072.38C284.26 1050.65 220.87 1025.18 195.63 997.91C188.19 989.89 184.24 982.43 182.73 973.61C180.48 960.53 186.92 944.85 199.21 933.46C214.71 919.1 241.77 904.76 278.24 891.6C295.71 885.29 337.63 872.65 350 869.97C351.93 869.55 358 868.06 363.5 866.66C374.81 863.78 378.14 863.06 415 855.51C539.07 830.11 705.73 812.31 897 804.04C909.38 803.5 926.35 802.77 934.73 802.41C944.07 802 950.3 801.31 950.83 800.62C951.3 800.01 952.23 788.25 952.89 774.5C953.55 760.75 954.51 742.08 955.02 733C955.52 723.92 956.41 707.5 956.98 696.5C957.56 685.5 958.25 673.12 958.51 669C958.78 664.88 959.47 653.17 960.04 643C960.62 632.83 961.77 615.73 962.59 605C965.54 566.65 965.53 567.97 963 562.97C960.49 558.01 955.25 551.12 940.96 534C929.01 519.68 918.58 506.02 916.44 501.88C914.34 497.82 915.76 494 919.38 494C924.04 494 930.85 500.21 950.88 522.75C954.91 527.29 960.02 532.43 962.23 534.18C968.67 539.28 968.24 540.76 972.02 500C986.25 346.56 1015.89 193.99 1046.71 115.5C1058.87 84.52 1074.92 56.57 1086.42 46.33C1103.93 30.75 1121.1 28.04 1138.66 38.09C1164.24 52.73 1191.16 106.72 1212.66 186.5C1216.76 201.72 1225.36 238.01 1227.6 249.5C1228.45 253.9 1230 261.14 1231.03 265.6C1233.63 276.78 1239.18 308.65 1244.96 345.5C1262.22 455.46 1275.38 597.44 1282.46 750C1284.56 795.18 1285.01 801.08 1286.35 801.51C1286.98 801.71 1304.38 802.59 1325 803.47C1492.49 810.55 1641.04 824.61 1764 845.01C1804.02 851.65 1818.69 854.47 1854.5 862.38C1964.89 886.76 2034.07 917.86 2049.93 950.23C2055.38 961.35 2055.83 969.89 2051.6 981.76C2046.08 997.25 2025.75 1014.25 1996 1028.26C1937.57 1055.77 1837.85 1080.34 1711 1098.47C1701.38 1099.85 1690.35 1101.43 1686.5 1101.98C1603.23 1113.91 1473.61 1124.93 1332.5 1132.07C1308.85 1133.27 1288.56 1134.61 1287.41 1135.04C1284.98 1135.96 1285.62 1128.33 1280.98 1212C1277.1 1282 1276.49 1291.85 1274.02 1325C1267.78 1408.88 1260.48 1479.35 1250.53 1552C1245 1592.36 1231.01 1673.3 1226.51 1691C1225.74 1694.03 1224.19 1701 1223.07 1706.5C1216.05 1740.86 1201.98 1788.45 1189.84 1818.91C1166.05 1878.61 1136.44 1909.68 1109.73 1902.97ZM1115.93 1859C1117.07 1830.03 1118.49 1808.19 1119.6 1802.75C1120.09 1800.33 1120.61 1800 1123.97 1800C1126.68 1800 1127.98 1800.51 1128.46 1801.75C1129.57 1804.61 1130.96 1830.27 1130.99 1848.5C1131.01 1864.48 1132.26 1881.6 1133.49 1882.83C1134.43 1883.76 1142.65 1875.04 1148.35 1867.08C1155.55 1857 1164.14 1841.93 1169.71 1829.57C1180.47 1805.7 1194.5 1762.3 1203.04 1726.5C1204.75 1719.35 1206.99 1710.12 1208.01 1706C1209.04 1701.88 1210.35 1696.03 1210.92 1693C1211.5 1689.97 1213.1 1682.1 1214.48 1675.5C1215.86 1668.9 1217.89 1658.78 1218.99 1653C1220.09 1647.22 1221.67 1639.12 1222.5 1635C1226.04 1617.3 1234.92 1559.69 1239.53 1524.5C1249.59 1447.68 1255.76 1380.56 1262.51 1274.5C1263.35 1261.3 1264.46 1242.85 1264.98 1233.5C1265.49 1224.15 1266.9 1198.9 1268.11 1177.38C1269.32 1155.86 1270.03 1137.52 1269.69 1136.63C1269.11 1135.13 1256.6 1135 1117.5 1135L965.94 1135L966.47 1141.25C966.94 1146.86 968 1165.05 969.52 1193.5C971.07 1222.73 974.1 1274.31 975.01 1287C975.59 1294.97 977.18 1317.92 978.56 1338C989.02 1490.67 1010.33 1638.09 1036.09 1736C1043.37 1763.69 1044.62 1767.96 1050.94 1787C1064.44 1827.61 1079.7 1858.88 1093.22 1873.66C1098.39 1879.31 1113.11 1890.32 1114.07 1889.26C1114.45 1888.84 1115.29 1875.22 1115.93 1859ZM1118.84 1741.75C1118.15 1740.5 1117.36 1733.94 1117.05 1727C1116.35 1711.04 1117.47 1644.08 1118.49 1641.7C1119.04 1640.4 1120.13 1639.98 1122.36 1640.2C1125.23 1640.48 1125.57 1640.92 1126.81 1646C1128.62 1653.42 1129.62 1716.8 1128.14 1730C1127.21 1738.27 1126.73 1739.79 1124.48 1741.75C1123.05 1742.99 1121.48 1744 1120.98 1744C1120.48 1744 1119.52 1742.99 1118.84 1741.75ZM1118.87 1585.35C1116.39 1582.37 1116.08 1492.64 1118.52 1484.95C1118.94 1483.62 1120.04 1483 1121.97 1483C1124.27 1483 1125.02 1483.62 1125.95 1486.25C1127.95 1491.91 1128.93 1508.62 1128.96 1537.5C1128.99 1570.52 1128.06 1581.25 1124.85 1584.66C1122.25 1587.42 1120.74 1587.6 1118.87 1585.35ZM1119.25 1428.75C1117.22 1426.18 1116.84 1418.67 1116.87 1380.67C1116.89 1345.03 1117.23 1334.7 1118.59 1328.19C1119.28 1324.85 1124.02 1325.52 1125.78 1329.22C1127.88 1333.61 1128.93 1350.59 1128.96 1380.5C1128.99 1413.52 1128.06 1424.25 1124.85 1427.66C1122.39 1430.28 1120.72 1430.6 1119.25 1428.75ZM593.65 1373.97C582.27 1372.89 579.11 1368.96 588.48 1367.55C594.66 1366.63 598.6 1363.06 600.52 1356.67C603.65 1346.29 605.14 1289.68 602.94 1264.66C601.32 1246.2 597.8 1239 590.39 1239C586.18 1239 581.96 1235.69 583.8 1233.82C585.28 1232.32 622.56 1231.29 633.41 1232.45C644.18 1233.61 644.67 1235.76 634.89 1238.95C630.66 1240.33 629.39 1241.26 628.58 1243.59C627.94 1245.42 627.55 1267.41 627.53 1303C627.5 1367.09 627.19 1364.46 634.96 1366.71C640.62 1368.34 642.69 1370.19 640.71 1371.83C637.55 1374.44 611.21 1375.65 593.65 1373.97ZM1119.25 1271.75C1117.15 1269.1 1116.79 1261.08 1116.9 1218.63C1117.01 1173.31 1117.29 1169.95 1121.09 1169.22C1121.96 1169.05 1123.7 1169.74 1124.94 1170.75C1126.85 1172.3 1127.37 1174.1 1128.18 1182.05C1129.5 1194.89 1128.64 1262.33 1127.09 1267.24C1125.54 1272.17 1121.45 1274.52 1119.25 1271.75ZM1268.39 1119.18C1268.67 1118.73 1269.63 1098.37 1270.53 1073.93C1272.26 1027.16 1272.84 934.22 1271.64 896C1270.32 853.71 1268.96 818.62 1268.63 818.3C1268.45 818.12 1258.23 817.22 1245.9 816.3C1227.01 814.88 1207.38 814.62 1120.5 814.63C1051.91 814.64 1009.32 815.06 993.01 815.89C979.54 816.58 968.41 817.25 968.28 817.39C967.82 817.85 967.07 832.52 965.81 866C963.52 926.34 964.6 1074.32 967.6 1112.75L968.17 1120L1118.03 1120C1200.45 1120 1268.11 1119.63 1268.39 1119.18ZM950.75 967.75L951.01 817L944.25 817.01C894.02 817.06 722.74 828.55 638 837.56C553.05 846.59 463.11 860.12 405.5 872.53C399.45 873.84 389.84 875.84 384.15 876.99C357.38 882.39 310.88 895.19 283 904.82C258.84 913.17 232.07 925.91 222.25 933.73C204.45 947.9 193.23 962.34 198.45 964.34C200.95 965.3 218.13 966.08 256.28 966.96C281.05 967.53 293.51 968.18 294.43 968.94C297.82 971.76 292.73 977.48 285.44 979.05C282.72 979.64 262.66 980.37 240.75 980.69C218.08 981.01 201 981.65 201 982.16C201 984.06 214.85 996.77 222.5 1001.9C238.63 1012.69 268.41 1025.69 301.5 1036.39C368.82 1058.14 471.21 1078.1 589 1092.42C663.57 1101.49 697.55 1104.15 699.45 1101.08C699.68 1100.7 694.68 1094.34 688.33 1086.95C667.3 1062.44 660.94 1052.93 662.62 1048.54C663 1047.56 664.49 1047 666.73 1047C669.78 1047 671.37 1048.09 678.74 1055.25C683.42 1059.79 693.75 1070.82 701.7 1079.76C709.65 1088.7 718.19 1097.41 720.66 1099.11C730.76 1106.06 741.66 1108.05 783 1110.51C847.19 1114.34 934.04 1118.77 942 1118.64L950.5 1118.5L950.75 967.75ZM1350 1116C1432.19 1111.58 1454.9 1110.21 1490.5 1107.51C1663.32 1094.4 1810.29 1071.95 1910.34 1043.36C1972.05 1025.73 2012.01 1007.06 2029.8 987.55C2039.77 976.6 2041.8 968.47 2037.04 958.5C2033.87 951.88 2020.61 938.65 2010.5 932.03C1987.32 916.85 1945.22 900.57 1894.09 887C1873.47 881.53 1841.83 874.26 1824.5 871C1821.75 870.48 1816.12 869.39 1812 868.58C1776.54 861.6 1730.93 854.2 1691.5 849.02C1682.7 847.86 1672.58 846.5 1669 845.99C1596.78 835.75 1452.96 823.84 1337.5 818.55C1319.35 817.71 1300.34 816.76 1295.25 816.42L1286 815.81L1286 967.41L1286 1119L1290.25 1118.99C1292.59 1118.99 1319.47 1117.65 1350 1116ZM1120.35 1111.29C1118.41 1106.66 1116.71 1065.47 1117.18 1034.71C1117.44 1017.56 1117.76 1013.76 1119 1012.98C1120.72 1011.91 1123.86 1012.61 1125.87 1014.52C1128.08 1016.61 1128.89 1029.36 1128.93 1062.5C1128.97 1096.92 1128.04 1110.19 1125.39 1113.12C1122.97 1115.8 1122.1 1115.49 1120.35 1111.29ZM2227.25 1038.88C2225.46 1038.36 2224 1037.27 2224 1036.45C2224 1035.63 2227.26 1032.87 2231.25 1030.32C2247.61 1019.84 2287 976.21 2287 968.57C2287 963.99 2263.24 929.74 2250.92 916.58C2245.1 910.36 2242.18 908.51 2230.25 903.48C2223.74 900.74 2224.49 898.44 2232.15 897.64C2248.01 895.98 2288.71 897.37 2290.97 899.64C2291.95 900.63 2286.8 904 2284.32 904C2280.22 904 2278 905.78 2278 909.06C2278 914.47 2291.01 937.25 2299.07 945.97L2302.28 949.43L2306.81 944.47C2313.51 937.11 2326.02 921.25 2329.88 915.21C2333.06 910.23 2333.16 909.83 2331.58 908.08C2330.65 907.06 2327.91 905.67 2325.47 904.99C2316.03 902.35 2317.54 898.64 2328.54 897.46C2338.32 896.41 2364.69 897.29 2366.11 898.71C2367.91 900.51 2365.52 902.87 2359.03 905.75C2355.25 907.42 2350.66 911 2344.19 917.34C2334.1 927.21 2309 957.82 2309 960.25C2309 961.06 2309.83 962.8 2310.84 964.12C2311.85 965.43 2318.43 975.05 2325.47 985.5C2340.3 1007.51 2352.84 1023.91 2357.93 1027.94C2359.89 1029.5 2363.42 1031.35 2365.76 1032.05C2380.82 1036.56 2364.4 1040.67 2335 1039.75C2325.93 1039.46 2317.23 1038.73 2315.68 1038.11C2312.11 1036.7 2312.45 1033.92 2316.31 1032.89C2323.71 1030.91 2323.73 1027.21 2316.41 1012.91C2307.42 995.34 2297.54 981 2294.42 981C2293.16 981 2285.54 989.4 2275.82 1001.5C2268.68 1010.38 2262.03 1022.52 2262.01 1026.69C2262 1030.41 2264.94 1033 2269.16 1033C2270.66 1033 2272.12 1033.39 2272.42 1033.87C2273.56 1035.71 2269.09 1038 2262.45 1038.96C2253.86 1040.2 2231.64 1040.15 2227.25 1038.88ZM1155.52 979.93C1139.99 978.55 1135.38 976.36 1136.19 970.7C1136.46 968.81 1137.35 968.4 1142.5 967.78C1150.34 966.85 1219.75 966.67 1230.32 967.56C1240.29 968.4 1241.5 969.13 1239.46 973.07C1237.32 977.21 1234.81 978.18 1222.5 979.63C1210.49 981.05 1170.22 981.23 1155.52 979.93ZM1312.25 979.97C1296.35 978.44 1293 976.82 1293 970.68C1293 968.4 1293.46 968.18 1299.75 967.49C1308.59 966.52 1385.04 966.72 1391.5 967.74C1395.48 968.36 1396.56 968.94 1396.8 970.59C1397.33 974.3 1393.86 977.15 1386.93 978.7C1379.16 980.45 1326.52 981.33 1312.25 979.97ZM1645.77 979.87C1612.94 978.87 1608.58 977.9 1609.19 971.75C1609.44 969.24 1610.09 968.47 1612.5 967.82C1616.57 966.72 1668.3 966.21 1690.22 967.05C1704.19 967.59 1708.48 968.08 1710.47 969.39C1713.59 971.43 1713.63 972.46 1710.7 975.4C1706.12 979.97 1688.59 981.17 1645.77 979.87ZM42.87 978.69C39.22 978 35.51 976.84 34.62 976.1C32.89 974.66 32.42 970.48 33.88 969.57C36.77 967.79 54.01 966.9 87.5 966.81C131.08 966.7 136 967.16 136 971.41C136 974.62 133.15 976.82 127.42 978.06C119.79 979.7 50.98 980.21 42.87 978.69ZM366.5 979C353.52 977.83 350.05 976.21 350.02 971.29C349.99 967.29 355.3 966.78 396 966.85C442.54 966.94 451.91 967.71 453.39 971.57C454.17 973.61 450.88 976.63 446.31 978.07C441.72 979.52 380.23 980.24 366.5 979ZM524.5 979.01C510.11 977.93 507 976.67 507 971.92C507 967.22 510.45 966.88 556.32 966.94C606.87 967.01 611.52 967.46 610.81 972.22C610.36 975.23 605.85 978.18 600.31 979.09C594.6 980.03 537.39 979.97 524.5 979.01ZM989.5 978.95C980.24 977.73 978 976.59 978 973.08C978 971.45 978.38 969.88 978.84 969.6C982.55 967.3 1035.72 965.63 1062.73 966.96C1078.65 967.75 1081.36 968.55 1080.8 972.31C1080.2 976.33 1076.18 977.87 1063.5 978.95C1049.7 980.13 998.42 980.13 989.5 978.95ZM1467 978.89C1455.87 977.92 1453.28 976.97 1452.42 973.54C1451.39 969.44 1452.5 968.26 1458.18 967.42C1465.79 966.3 1533.88 966.81 1543.96 968.06C1552.94 969.17 1555 970.11 1555 973.1C1555 975.87 1551.33 977.7 1543.31 978.91C1535.03 980.16 1481.38 980.15 1467 978.89ZM2091 979C2084.17 978.08 2080.23 976.29 2079.42 973.74C2078.39 970.5 2081.12 969.02 2090.06 967.95C2099.2 966.86 2172.08 966.55 2177.57 967.58C2181.7 968.35 2183.38 970.22 2182.49 973.04C2181.35 976.61 2175.59 978.19 2160.5 979.07C2143.47 980.07 2098.59 980.02 2091 979ZM673.43 978.01C666.24 976.95 664 975.53 664 972C664 969.45 664.5 968.94 667.85 968.04C670.2 967.41 688.63 966.96 715.1 966.89C762.23 966.77 767 967.19 767 971.38C767 975.08 763.77 977.1 756.32 978.06C748.16 979.11 680.66 979.07 673.43 978.01ZM829.76 978.04C822.73 977.09 820.8 975.65 821.2 971.65C821.44 969.26 822.13 968.45 824.5 967.79C828.46 966.67 915.65 966.63 919.42 967.74C925.39 969.5 925.38 973.92 919.41 977C916.98 978.25 909.81 978.53 876 978.66C853.73 978.75 832.92 978.47 829.76 978.04ZM1774.5 977.93C1768.58 977.05 1765 974.62 1765 971.51C1765 968.3 1768.23 967.57 1785.36 966.95C1806.41 966.19 1858.64 966.75 1863.65 967.79C1870.44 969.2 1870.76 973.87 1864.26 976.78C1860.96 978.26 1855.61 978.49 1820.5 978.65C1798.5 978.75 1777.8 978.43 1774.5 977.93ZM1931.89 978.02C1925.21 977.16 1924.18 976.61 1922.9 973.23C1922.14 971.25 1922.28 970.29 1923.49 969.08C1924.87 967.7 1930.79 967.46 1971.34 967.21C2020.88 966.91 2025.18 967.25 2025.79 971.56C2026.25 974.73 2023.09 976.78 2015.99 977.93C2008.74 979.11 1940.9 979.17 1931.89 978.02ZM1121.23 956.75C1119.04 954.07 1118.02 939.9 1117.37 903.45C1116.66 863.97 1117.02 856.59 1119.65 855.58C1122.16 854.62 1126.3 857.27 1127.32 860.5C1128.76 865.08 1129.41 936.38 1128.1 946.16C1126.79 955.87 1124.01 960.16 1121.23 956.75ZM992.5 800.94C998.55 800.45 1028.61 799.73 1059.3 799.36C1108.9 798.76 1115.19 798.51 1115.88 797.09C1116.31 796.22 1116.72 775.7 1116.79 751.5C1116.93 705.94 1117.24 700.23 1119.6 699.32C1122.5 698.21 1125.79 699.96 1126.97 703.24C1128.41 707.26 1129.91 732.21 1129.96 753.09C1129.98 761.67 1130.29 775.43 1130.65 783.69L1131.3 798.69L1181.4 799.31C1208.95 799.66 1238.03 800.49 1246 801.17C1253.97 801.84 1262.53 802.42 1265 802.45L1269.5 802.5L1269.29 788.5C1269.17 780.8 1268.61 765.73 1268.02 755C1258.14 572.47 1248.57 466.32 1232.43 360C1228.84 336.39 1222.37 298.51 1219.53 284.5C1218.2 277.9 1216.38 268.68 1215.49 264C1213.62 254.09 1212.52 249.16 1206.5 223.5C1185.84 135.43 1158.76 70.83 1135.38 53.81C1124 45.53 1117.89 44.85 1106.87 50.64C1090.49 59.25 1075.46 82.11 1060.29 121.5C1056.58 131.13 1045.78 163.24 1043.46 171.5C1022.56 246.22 1008.96 317.35 995.55 422.04C988.32 478.56 983.17 533.57 984.72 537.78C985.47 539.81 986.69 539.01 1001.52 526.81C1021.3 510.54 1031.05 504 1035.56 504C1038.58 504 1042 506.07 1042 507.89C1042 510.86 1030.86 521.67 1010 538.95C993.93 552.27 985.31 560.6 983 565.07C980.51 569.87 979.38 579.12 977.03 614C973.3 669.29 972.02 690.48 969.55 737.5C968.19 763.35 966.81 788.73 966.47 793.9L965.86 803.31L973.68 802.57C977.98 802.17 986.45 801.44 992.5 800.94ZM1118.55 642.75C1117.2 638.44 1116.91 629.59 1116.92 592.03C1116.93 546.34 1117.28 540.36 1119.99 539.5C1123.36 538.43 1126.82 540.69 1127.92 544.68C1130.16 552.78 1131.25 574.69 1130.71 600.45C1129.96 636.36 1128.42 644 1121.95 644C1120.29 644 1118.76 643.44 1118.55 642.75ZM774 603.51C773.17 603.3 770.81 602.86 768.75 602.52C765.93 602.06 765 601.43 765 599.98C765 598.5 766.3 597.68 770.59 596.43C779.76 593.76 779.42 595.93 779.81 538.27C780.16 487.56 779.51 474.09 776.56 471.13C775.67 470.23 773.09 469.04 770.82 468.47C766.93 467.51 763.85 464.81 765.15 463.51C767.84 460.83 813.54 460.46 820.84 463.07C823.78 464.12 824 464.43 822.69 465.74C821.88 466.55 819.02 467.62 816.35 468.11C813.53 468.62 810.79 469.85 809.81 471.03C804.82 477.05 802.76 499.78 803.49 540.59C804.02 570.2 805.21 583.44 807.92 589.54C809.56 593.26 810.49 594.01 816.06 596.14C829.41 601.24 824.17 603.24 796.5 603.6C784.95 603.75 774.83 603.71 774 603.51ZM1119.52 487.03C1117.84 484.31 1116.95 463.51 1117.01 428.5C1117.05 407.6 1117.4 388.75 1117.79 386.61C1119.11 379.35 1124.14 379.14 1126.59 386.24C1129.4 394.36 1131.15 454.86 1129.08 472.66C1128.08 481.28 1125.37 487.38 1122.34 487.81C1121.16 487.98 1119.89 487.62 1119.52 487.03ZM1118.87 326.35C1117.1 324.22 1116.25 288.75 1117.12 253.44C1117.77 226.82 1118.34 223.62 1122.31 224.19C1127.78 224.97 1128.92 235.6 1128.6 283C1128.35 321.06 1127.94 324.89 1123.96 327.02C1121.42 328.38 1120.46 328.25 1118.87 326.35ZM1299.75 202.34C1294.86 201.74 1295.05 199.99 1300.29 197.5C1307.49 194.08 1308.16 191.63 1307.75 170C1307.45 154.13 1307.1 150.68 1305.26 145.71C1300.02 131.51 1262.67 74.89 1257.73 73.65C1256.45 73.33 1253.63 71.49 1251.45 69.56C1248.17 66.65 1247.75 65.89 1249 65.05C1251.04 63.67 1294.36 63.69 1299.34 65.08C1303 66.09 1303.1 66.23 1301.51 67.99C1300.59 69.01 1298.18 70.23 1296.17 70.7C1292.95 71.46 1292.46 71.97 1292.18 74.9C1291.6 80.85 1297.11 91.48 1314.42 117.82L1324.48 133.13L1326.49 130.61C1330.28 125.84 1347.13 98.77 1351.07 91.13C1357.78 78.09 1357.64 73.26 1350.46 69.77C1347.99 68.57 1346.13 67.12 1346.32 66.54C1346.51 65.97 1348.65 65.2 1351.08 64.82C1356.73 63.96 1379.82 63.99 1387 64.87L1392.5 65.55L1386.87 68.8C1383.77 70.59 1379.01 74.41 1376.3 77.28C1364.65 89.6 1341.79 123.67 1333.66 140.82C1330.6 147.29 1330.49 147.98 1330.16 163.17C1329.67 186.23 1331.86 193.83 1340.38 198.61C1342.75 199.94 1343.77 201.03 1343.05 201.47C1341.72 202.29 1305.29 203.03 1299.75 202.34ZM1118.04 167.63C1116.76 163.73 1116.4 93.06 1117.6 78.35C1118.31 69.62 1119.73 66.61 1122.86 67.21C1127.66 68.14 1129.29 85.45 1128.83 130.5C1128.52 160.12 1128.35 162.8 1126.5 166.5C1125.03 169.44 1123.8 170.58 1121.85 170.81C1119.59 171.07 1119.02 170.59 1118.04 167.63Z" fill="#1e2749" fill-rule="evenodd"/>
</svg>
