<?xml version="1.0" encoding="UTF-8"?>
<svg xmlns="http://www.w3.org/2000/svg" viewBox="0 0 432 238" width="432" height="238" shape-rendering="geometricPrecision">
<path d="M84.94 228.96C83.34 228.09 81.68 226.49 80.66 224.83C79.92 223.65 79.83 223.13 79.84 220.17C79.84 217.35 79.96 216.63 80.59 215.48C81.43 213.95 82.95 212.47 84.67 211.49C86.41 210.5 91.26 210.55 93.34 211.58C99.27 214.5 100.52 222.17 95.83 226.85C93.72 228.96 91.92 229.67 88.77 229.64C86.84 229.63 85.85 229.45 84.94 228.96ZM92.26 227.33C98.07 224.31 98.63 217.06 93.32 213.66C91.75 212.65 91.35 212.55 89.05 212.54C86.09 212.53 85.04 212.97 83.24 214.96C81.73 216.63 81.2 218.52 81.45 221.31C81.63 223.16 81.82 223.65 82.93 224.96C84.8 227.16 86.39 227.97 88.91 227.99C90.35 228 91.37 227.8 92.26 227.33ZM346.25 223.55C344.44 222.87 343.55 222.21 342.26 220.6C340.47 218.36 340 217.04 340.01 214.28C340.02 210.33 341.69 207.53 345.07 205.8C347.15 204.74 351.18 204.67 353.37 205.66C357.47 207.5 359.93 212.07 358.99 216.08C358.76 217.05 358.43 218.12 358.24 218.48C357.6 219.71 354.84 222.4 353.51 223.08C351.8 223.96 348.01 224.2 346.25 223.55ZM353.26 221.2C355.68 219.66 356.9 217.84 357.19 215.33C357.47 212.93 356.95 211.12 355.48 209.41C351.99 205.32 345.46 205.79 342.75 210.32C341.04 213.18 341.25 216.23 343.37 219.25C344.14 220.34 346.44 221.92 347.54 222.11C349.4 222.42 352 222.01 353.26 221.2ZM83.2 220.14C83.09 219.85 83.08 219.47 83.19 219.3C83.29 219.14 85.85 219 88.88 219L94.38 219L94.27 219.75C94.17 220.49 94.08 220.5 88.79 220.59C84.09 220.67 83.38 220.61 83.2 220.14ZM349.06 219.26C348.84 219.04 348.67 218.15 348.67 217.27C348.67 215.54 348.56 215.45 346 215.26C345.08 215.19 344.81 215.01 344.73 214.42C344.63 213.74 344.76 213.67 346.09 213.67C348.02 213.67 348.67 212.96 348.67 210.87C348.67 209.42 348.73 209.3 349.42 209.39C350.03 209.48 350.18 209.74 350.26 210.83C350.44 213.56 350.51 213.67 352.3 213.67C353.24 213.67 354.07 213.85 354.28 214.11C354.9 214.85 354.03 215.33 352.1 215.33L350.33 215.33L350.33 217.13C350.33 219.05 349.78 219.98 349.06 219.26ZM87.06 205.73C86.15 205.05 85.06 204.28 84.66 204C84.25 203.72 81.45 201.7 78.44 199.5C75.43 197.3 70.54 193.73 67.57 191.57C56.71 183.68 54.16 181.77 53.72 181.23C53.33 180.77 53.4 180.35 54.13 178.42C54.61 177.17 55 175.97 55 175.75C55 175.54 55.21 174.86 55.47 174.26C55.73 173.66 56.42 171.59 57.02 169.67C57.62 167.74 58.3 165.69 58.55 165.12C58.8 164.54 59 163.78 59 163.43C59 163.08 59.14 162.66 59.31 162.48C59.49 162.31 59.77 161.57 59.95 160.83C60.13 160.1 60.46 158.97 60.68 158.33C60.91 157.69 61.28 156.64 61.5 156C61.72 155.36 62.09 154.31 62.32 153.67C62.54 153.02 62.85 152.05 63 151.5C63.15 150.95 63.44 150.01 63.64 149.42C63.84 148.82 64.16 147.85 64.36 147.25C64.56 146.65 64.85 145.72 65 145.17C65.41 143.67 66.01 142 66.7 140.42L67.32 139L84.41 139.04C93.81 139.07 103.73 139.18 106.46 139.29L111.41 139.5L112.08 141.67C112.45 142.86 112.93 144.36 113.16 145C114.14 147.77 114.42 148.63 115.06 150.83C115.43 152.12 115.92 153.69 116.15 154.33C116.98 156.62 117.39 157.87 118.15 160.33C118.58 161.71 119.07 163.21 119.25 163.67C119.43 164.12 119.83 165.32 120.12 166.33C120.42 167.34 121.57 170.92 122.68 174.28C123.87 177.89 124.61 180.65 124.49 181.04C124.38 181.39 123.88 181.94 123.39 182.26C122.9 182.57 120.7 184.13 118.5 185.73C116.3 187.33 112.67 189.95 110.44 191.57C106 194.77 96.95 201.34 92.62 204.5C91.12 205.6 89.63 206.6 89.31 206.73C88.92 206.88 88.18 206.55 87.06 205.73ZM94.09 201.25C96.9 199.19 100.89 196.3 102.94 194.83C104.99 193.37 108.82 190.59 111.45 188.67C114.09 186.74 117.7 184.12 119.48 182.84C122.1 180.96 122.68 180.39 122.55 179.84C122.2 178.44 121.68 176.75 120.87 174.33C119.55 170.44 117.24 163.32 115.5 157.83C114.63 155.08 113.74 152.31 113.51 151.67C113.28 151.02 112.91 149.97 112.68 149.33C112.45 148.69 112.15 147.64 112 147C111.65 145.48 111.06 143.79 110.38 142.33L109.83 141.17L104.33 140.92C101.31 140.78 92.01 140.71 83.68 140.75L68.53 140.83L68.13 141.67C67.68 142.62 67.07 144.38 66.67 145.83C66.52 146.38 66.21 147.36 65.98 148C64.85 151.22 64.43 152.5 59.06 169.17C58.24 171.73 57.36 174.31 57.11 174.88C56.87 175.46 56.66 176.21 56.65 176.55C56.65 176.89 56.43 177.54 56.17 178C55.9 178.46 55.69 179.28 55.69 179.83C55.68 180.66 55.97 181.04 57.35 182C58.27 182.64 61.45 184.93 64.43 187.09C77.51 196.6 81.12 199.22 82.27 200.09C83.94 201.35 88.82 204.94 88.9 204.98C88.93 204.99 91.27 203.31 94.09 201.25ZM348.48 201.69C347.94 201.35 345.81 199.82 343.74 198.29C341.67 196.75 338.1 194.15 335.81 192.5C333.52 190.85 328.57 187.25 324.82 184.5C321.07 181.75 317.1 178.86 316 178.08C313.81 176.53 313.53 175.75 314.5 173.88C314.78 173.35 315 172.72 315 172.47C315 172.23 315.21 171.53 315.46 170.93C315.71 170.33 316.18 168.93 316.5 167.83C316.81 166.73 317.26 165.31 317.49 164.67C318.53 161.74 318.74 161.09 319.03 159.91C319.2 159.21 319.47 158.39 319.63 158.07C319.89 157.55 321.31 153.22 325.6 139.83C326.42 137.27 327.15 134.98 327.2 134.75C327.29 134.42 331.99 134.33 349.32 134.33L371.32 134.33L371.8 135.08C372.07 135.5 372.38 136.28 372.5 136.83C372.62 137.38 372.91 138.36 373.14 139C373.8 140.78 374.3 142.29 375.03 144.67C375.4 145.86 375.85 147.28 376.04 147.83C376.22 148.38 376.68 149.81 377.06 151C377.44 152.19 377.94 153.69 378.17 154.33C378.39 154.97 379.29 157.75 380.16 160.5C381.03 163.25 381.93 166.02 382.17 166.67C383.18 169.39 385 175.37 385 175.96C385 176.33 384.44 177.01 383.68 177.55C382.95 178.07 380.38 179.92 377.97 181.67C375.56 183.41 371.46 186.36 368.87 188.23C366.29 190.1 363.49 192.12 362.67 192.72C361.84 193.32 358.99 195.38 356.33 197.29C353.68 199.2 351.04 201.11 350.48 201.54C349.48 202.3 349.46 202.3 348.48 201.69ZM352.6 197.85C354.19 196.67 355.95 195.39 356.5 195C358.44 193.64 364.88 188.97 368.83 186.06C371.03 184.45 373.96 182.35 375.33 181.4C376.71 180.45 378.96 178.8 380.33 177.73C383.06 175.62 383.24 175.16 382.33 172.67C382.1 172.03 381.72 170.97 381.5 170.33C381.28 169.69 380.91 168.64 380.68 168C380.46 167.36 380.14 166.27 379.97 165.57C379.8 164.88 379.53 164.05 379.38 163.74C379.22 163.42 378.86 162.42 378.58 161.5C377.52 158.03 374.91 149.79 374.51 148.67C373.47 145.75 373.26 145.1 373 144.17C372.74 143.22 372.5 142.49 371.63 139.92C371.43 139.32 371.19 138.46 371.09 138C370.99 137.54 370.68 136.9 370.4 136.58C369.93 136.04 368.5 136 349.33 136L328.76 136L326.67 142.42C325.52 145.95 324.4 149.36 324.17 150C323.95 150.64 323.58 151.69 323.35 152.33C323.13 152.97 322.83 153.95 322.69 154.51C322.55 155.06 322.26 155.84 322.05 156.24C321.84 156.63 321.67 157.23 321.66 157.56C321.66 157.89 321.44 158.6 321.16 159.12C320.89 159.65 320.67 160.37 320.67 160.73C320.67 161.08 320.49 161.7 320.28 162.1C320.07 162.49 319.78 163.27 319.64 163.83C319.4 164.8 319.05 165.85 318.15 168.33C317.49 170.14 316 175.13 316 175.5C316 175.68 318.26 177.48 321.02 179.5C323.78 181.52 326.63 183.62 327.35 184.17C328.08 184.72 330.81 186.71 333.42 188.6C336.03 190.48 340.57 193.81 343.5 195.99C346.43 198.16 349.03 199.96 349.26 199.97C349.5 199.99 351 199.03 352.6 197.85ZM9.36 186.1C6.7 182.09 6.65 176.32 9.24 172.66C9.84 171.8 10.43 171.35 10.92 171.34C11.33 171.34 11.67 171.4 11.67 171.47C11.67 171.55 11.26 172.41 10.75 173.39C9.97 174.92 9.82 175.65 9.72 178.57C9.6 182.05 10.08 184.44 11.25 186.24C11.51 186.64 11.63 187.13 11.51 187.32C11.07 188.03 10.37 187.63 9.36 186.1ZM26 186.98C26 186.6 26.18 185.96 26.41 185.56C27.93 182.83 28.34 179.25 27.5 176.08C27.17 174.84 26.62 173.44 26.28 172.95C25.5 171.83 25.5 171.33 26.28 171.33C27.66 171.33 29.52 174.56 29.95 177.71C30.39 180.87 29.76 183.54 28.05 185.81C26.56 187.78 26 188.1 26 186.98ZM269.74 186.67C267.71 184.09 266.79 179.41 267.66 176.08C268.25 173.84 269.97 171.33 270.92 171.33C271.33 171.33 271.67 171.4 271.67 171.47C271.67 171.55 271.26 172.41 270.75 173.39C269.97 174.92 269.82 175.65 269.72 178.57C269.6 182.05 270.08 184.44 271.25 186.24C271.75 187 271.58 187.68 270.9 187.65C270.68 187.64 270.16 187.2 269.74 186.67ZM287 186.97C287 186.58 287.22 185.87 287.49 185.38C288.36 183.8 289 181.35 289 179.59C289 177.54 288.13 174.18 287.28 172.95C286.5 171.83 286.5 171.33 287.28 171.33C288.73 171.33 290.68 174.83 290.92 177.87C291.22 181.57 290.8 183.42 289.14 185.66C287.59 187.77 287 188.13 287 186.97ZM18.78 183.65C18.02 183.55 16.85 183.04 16.17 182.53C10.73 178.38 13.6 171 20.66 171C23.38 171 25 171.68 25 172.83C25 173.99 24.14 174.25 23.21 173.38C22.6 172.8 22.04 172.67 20.29 172.67C18.32 172.67 18.03 172.76 17.08 173.69C15.06 175.67 15.49 179.54 17.93 181.28C19.08 182.1 22.34 182.29 23.82 181.61C25.05 181.05 25.27 181.55 24.25 182.57C23.27 183.55 21.12 183.98 18.78 183.65ZM274.17 183.47C273.96 183.39 273.88 181.39 273.95 178.11C274.07 172.96 274.06 172.88 273.29 172.3C272.86 171.98 272.6 171.62 272.71 171.51C272.82 171.4 274.62 171.28 276.7 171.24C280.12 171.17 280.66 171.25 282.12 171.96C286.64 174.19 286.2 179.71 281.26 182.87C280.19 183.55 279.62 183.66 277.26 183.64C275.74 183.63 274.35 183.55 274.17 183.47ZM281.28 180.84C283 178.89 283.26 176.68 282.05 174.43C281.26 172.95 276.7 171.84 276.65 173.12C276.62 174.08 276.6 181.53 276.63 181.75C276.65 181.89 277.48 182 278.47 182C280.1 182 280.36 181.9 281.28 180.84ZM116.68 178.12C116.31 177.28 116 176.38 116 176.14C116 175.89 115.79 175.2 115.54 174.59C115.29 173.99 114.82 172.6 114.5 171.5C114.19 170.4 113.74 168.97 113.51 168.33C112.53 165.6 112.26 164.78 112 163.83C111.85 163.28 111.56 162.38 111.36 161.83C111 160.84 108.4 152.7 107.42 149.5C107.14 148.58 106.71 147.35 106.46 146.76C105.62 144.71 106.87 143.82 107.88 145.75C108.19 146.35 108.55 147.28 108.69 147.83C108.83 148.38 109.13 149.36 109.35 150C109.58 150.64 109.95 151.69 110.17 152.33C110.39 152.97 111.06 155.07 111.66 157C112.25 158.92 112.93 161.02 113.17 161.67C113.4 162.31 114.08 164.41 114.67 166.33C115.26 168.26 115.95 170.33 116.21 170.93C116.46 171.53 116.67 172.24 116.67 172.5C116.67 172.76 116.87 173.47 117.13 174.07C118.34 176.96 118.75 178.67 118.33 179.17C117.68 179.95 117.41 179.78 116.68 178.12ZM59.84 179.02C59.59 178.61 59.87 177.42 60.9 174.5C61.35 173.22 61.84 171.72 62 171.17C62.15 170.62 62.43 169.72 62.63 169.17C63.1 167.82 65.53 160.31 67.49 154.17C68.37 151.42 69.28 148.64 69.52 148C69.76 147.36 70.04 146.43 70.14 145.94C70.35 144.96 71.59 144.33 72 145C72.21 145.33 71.12 149.16 69.3 154.5C69.11 155.05 68.43 157.15 67.77 159.17C67.12 161.18 66.4 163.36 66.17 164C65.95 164.64 65.58 165.69 65.35 166.33C65.13 166.97 64.8 168.1 64.62 168.83C64.44 169.57 64.15 170.31 63.98 170.48C63.81 170.66 63.67 171.14 63.67 171.56C63.67 171.97 63.46 172.8 63.21 173.41C62.54 175.02 61.96 176.72 61.75 177.67C61.45 179.11 60.37 179.87 59.84 179.02ZM320.22 174.44C319.91 174.13 319.95 172.86 320.28 172.48C320.44 172.31 321.13 170.37 321.82 168.17C322.52 165.97 323.27 163.64 323.49 163C323.72 162.36 324.09 161.31 324.32 160.67C324.54 160.02 324.87 158.9 325.05 158.17C325.23 157.43 325.51 156.69 325.69 156.52C325.86 156.34 326 155.85 326 155.41C326 154.98 326.17 154.3 326.39 153.9C326.6 153.51 326.88 152.73 327.02 152.17C327.26 151.23 327.46 150.62 328.51 147.67C328.74 147.02 329.32 145.21 329.81 143.62C330.3 142.04 330.91 140.47 331.16 140.12C331.6 139.54 331.66 139.53 332.2 140.07C332.73 140.59 332.74 140.74 332.27 141.9C331.42 144.01 330.99 145.33 329.68 149.83C329.4 150.79 329.06 151.8 328.15 154.33C327.92 154.97 327.03 157.75 326.17 160.5C325.31 163.25 324.41 166.02 324.17 166.67C323.93 167.31 323.47 168.73 323.15 169.83C321.97 173.85 321.06 175.28 320.22 174.44ZM377.4 174.27C377.18 174.05 377 173.6 377 173.28C377 172.95 376.79 172.2 376.54 171.59C375.85 169.94 375.3 168.29 374.99 167C374.74 165.93 373.51 162.14 372.51 159.33C372.28 158.69 371.59 156.59 370.99 154.67C370.39 152.74 369.25 149.22 368.47 146.83C367.68 144.45 366.94 141.94 366.82 141.25C366.62 140.14 366.67 140 367.28 140C368.06 140 368.32 140.33 368.68 141.79C368.82 142.36 369.13 143.36 369.35 144C369.58 144.64 369.95 145.69 370.17 146.33C370.39 146.97 370.85 148.4 371.18 149.5C371.51 150.6 371.95 151.95 372.16 152.5C372.38 153.05 372.78 154.25 373.06 155.17C374.22 158.92 376.76 166.91 377.15 168C377.38 168.64 377.77 169.69 378.01 170.33C378.54 171.75 378.63 174.4 378.15 174.56C377.96 174.62 377.63 174.49 377.4 174.27ZM332.8 73.46C323.47 68.79 315.61 64.72 315.33 64.4C314.9 63.91 314.85 61.47 314.93 46L315.03 28.17L332.26 19.58C341.74 14.85 349.72 10.99 350 11C350.27 11 358.38 14.95 368 19.77L385.5 28.54L385.59 46.08L385.67 63.63L384.59 64.43C383.66 65.11 352.49 80.86 350.47 81.67C349.92 81.89 346.24 80.18 332.8 73.46ZM71.93 80.09C71.64 79.76 71.01 78.67 70.51 77.67C70.01 76.66 69.11 74.93 68.49 73.83C67.88 72.73 66.99 71.08 66.52 70.17C66.04 69.25 64.69 66.7 63.5 64.5C62.32 62.3 60.97 59.75 60.49 58.83C59.53 56.99 58.18 54.48 56.07 50.61C55.3 49.21 54.67 47.74 54.67 47.36C54.67 46.69 55.07 45.85 57.55 41.39C58.13 40.35 59.22 38.3 59.97 36.83C60.72 35.37 62.08 32.82 62.98 31.17C63.88 29.52 65.01 27.42 65.49 26.5C65.97 25.58 67.25 23.18 68.34 21.17C69.43 19.15 70.72 16.71 71.22 15.75L72.11 13.99L90.1 14.08C106.86 14.16 108.11 14.21 108.38 14.75C108.54 15.07 108.81 15.6 108.98 15.92C109.15 16.24 109.91 17.7 110.65 19.17C111.4 20.63 112.55 22.81 113.21 24C114.39 26.12 115.44 28.1 118.63 34.17C119.5 35.82 120.82 38.29 121.57 39.67C122.32 41.04 123.39 43.02 123.95 44.07C124.52 45.11 125.17 46.28 125.4 46.65C125.73 47.18 125.74 47.47 125.44 47.92C125.22 48.24 124.39 49.77 123.58 51.33C122.77 52.89 121.56 55.18 120.89 56.42C118.03 61.69 117.14 63.35 115.48 66.53C114.52 68.39 113.21 70.86 112.56 72.03C111.92 73.21 110.64 75.59 109.72 77.33L108.04 80.5L90.24 80.59C73.61 80.67 72.41 80.63 71.93 80.09ZM366.58 71.66C375.76 67.07 383.43 63.11 383.64 62.87C383.9 62.55 383.98 57.63 383.92 46.02L383.83 29.62L383 29.18C379.22 27.15 350.3 13 349.93 13C349.66 13 342.07 16.69 333.05 21.19L316.66 29.39L316.75 46.43L316.83 63.47L333.17 71.69C342.15 76.21 349.59 79.93 349.7 79.96C349.81 79.98 357.4 76.25 366.58 71.66ZM106.93 78.58C107.11 78.35 107.91 76.97 108.69 75.5C109.47 74.03 110.67 71.78 111.36 70.5C112.04 69.22 113 67.42 113.48 66.5C113.97 65.58 115.25 63.18 116.35 61.17C117.44 59.15 118.79 56.6 119.35 55.5C119.91 54.4 120.76 52.82 121.22 52C121.69 51.17 122.43 49.81 122.87 48.96L123.66 47.41L122.1 44.46C121.24 42.83 119.83 40.15 118.95 38.5C118.08 36.85 116.97 34.75 116.49 33.83C116.02 32.92 115.13 31.27 114.53 30.17C112.73 26.87 109.4 20.61 108.5 18.83C108.04 17.92 107.4 16.83 107.08 16.41L106.49 15.66L89.86 15.75L73.22 15.83L72.67 16.83C71.49 18.95 69.16 23.31 67.42 26.65C66.43 28.57 65.17 30.93 64.64 31.9C62.39 35.99 61.67 37.32 60.17 40.17C59.3 41.82 58.16 43.95 57.63 44.9C56.69 46.59 56.37 48.45 56.96 48.81C57.13 48.91 57.68 49.78 58.19 50.75C58.7 51.71 59.55 53.32 60.08 54.33C63.42 60.68 64.36 62.44 65.62 64.74C67.71 68.57 69.11 71.21 70.54 74C71.24 75.38 72.16 77.06 72.58 77.75L73.34 79L89.96 79C102.86 79 106.66 78.91 106.93 78.58ZM348.75 76.58C348.34 76.35 341.71 73.02 334.01 69.17C321.83 63.07 320.01 62.07 320.01 61.42C320 60.99 320.2 60.67 320.47 60.67C320.86 60.67 348.85 74.56 350.25 75.44C350.56 75.64 350.57 75.88 350.32 76.35C349.92 77.11 349.76 77.13 348.75 76.58ZM74.22 76.44C74.1 76.32 74 75.95 74 75.61C74 75.03 74.7 75 89.65 75C100.16 75 105.36 75.11 105.51 75.35C105.63 75.54 105.54 75.91 105.32 76.18C104.98 76.59 102.62 76.67 89.68 76.67C81.3 76.67 74.34 76.57 74.22 76.44ZM379.21 62.43C378.87 62.09 378.96 31.4 379.3 31.19C379.47 31.08 379.85 31.09 380.14 31.2C380.61 31.38 380.67 33.03 380.67 46.69C380.67 61.28 380.64 61.99 380.04 62.31C379.7 62.49 379.33 62.55 379.21 62.43ZM176.2 58.14C176.07 57.8 176.69 56.77 177.95 55.22C180.17 52.5 180.47 51.88 179.99 50.98C179.57 50.2 177.93 50.11 177.33 50.83C176.7 51.6 176.33 51.43 176.33 50.37C176.33 47.75 180.91 47.7 181.99 50.32C182.54 51.65 182.03 53.01 180.28 54.85C178.53 56.68 178.62 57 180.83 57C182.12 57 182.67 57.13 182.67 57.43C182.67 58.38 181.83 58.67 179.14 58.67C176.95 58.67 176.36 58.56 176.2 58.14ZM155 53.94C152.31 53.18 150.33 50.5 150.33 47.64C150.33 45.77 151.51 43.49 152.91 42.62C154.25 41.79 157.96 41.43 160.17 41.9C161.29 42.15 161.52 42.34 161.61 43.12C161.78 44.61 160.59 45.65 160.18 44.36C159.95 43.64 158.4 43 156.87 43C154.68 43 152.67 45.16 152.67 47.5C152.67 48.52 153.68 50.61 154.55 51.38C155.69 52.4 157.83 52.83 159.31 52.34C160.71 51.88 161.81 52.07 161.59 52.75C161.42 53.27 158.5 54.28 157.17 54.28C156.62 54.27 155.64 54.12 155 53.94ZM162.68 53.58C162.68 53.35 162.9 52.79 163.17 52.33C163.86 51.12 163.86 43.91 163.17 43.33C162.1 42.45 162.59 42 164.61 42C166.83 42 167.22 42.21 166.48 43.02C166.12 43.42 165.99 44.1 166.06 45.21L166.17 46.83L169 46.83L171.83 46.83L171.94 45.38C172.01 44.38 171.87 43.74 171.49 43.32C170.68 42.42 171.16 42 173 42C174.67 42 175.36 42.44 174.7 43.1C174.11 43.69 174.21 52.01 174.82 52.88C175.49 53.83 175.21 54 172.94 54C170.91 54 170.43 53.55 171.52 52.65C171.89 52.34 172 51.73 171.93 50.36L171.83 48.5L169 48.5L166.17 48.5L166.07 50.24C166 51.39 166.14 52.24 166.48 52.76C166.77 53.2 166.9 53.65 166.78 53.78C166.35 54.2 162.67 54.03 162.68 53.58ZM9.36 51.1C7.38 48.11 6.8 44.1 7.84 40.54C8.42 38.54 10.09 36.33 11.02 36.33C11.83 36.33 11.84 36.27 10.75 38.39C9.97 39.92 9.82 40.65 9.72 43.57C9.6 47.05 10.08 49.44 11.25 51.24C11.51 51.64 11.63 52.13 11.51 52.32C11.07 53.03 10.37 52.63 9.36 51.1ZM27 51.97C27 51.58 27.22 50.87 27.49 50.38C28.36 48.8 29 46.35 29 44.59C29 42.54 28.13 39.18 27.28 37.95C26.5 36.83 26.5 36.33 27.28 36.33C28.63 36.33 30.4 39.33 31 42.65C31.57 45.81 30.52 49.49 28.4 51.75C27.37 52.85 27 52.91 27 51.97ZM269.74 51.67C266.73 47.86 266.55 40.98 269.36 37.57C269.92 36.89 270.67 36.33 271.02 36.33C271.83 36.33 271.84 36.27 270.75 38.39C269.97 39.92 269.82 40.65 269.72 43.57C269.6 47.05 270.08 49.44 271.25 51.24C271.75 52 271.58 52.68 270.9 52.65C270.68 52.64 270.16 52.2 269.74 51.67ZM283 51.98C283 51.6 283.18 50.96 283.41 50.56C284.93 47.83 285.34 44.25 284.5 41.08C284.17 39.84 283.62 38.44 283.28 37.95C282.5 36.83 282.5 36.33 283.28 36.33C284.73 36.33 286.55 39.62 286.98 43.01C287.4 46.35 286.45 49.56 284.4 51.75C283.38 52.84 283 52.91 283 51.98ZM126.22 51.44C126.1 51.32 126 50.95 126 50.61C126 50.03 126.56 50 137.11 50C143.22 50 148.32 50.09 148.43 50.21C148.55 50.33 148.49 50.7 148.31 51.04C147.99 51.63 147.38 51.67 137.21 51.67C131.29 51.67 126.34 51.57 126.22 51.44ZM13.33 48.34C12.92 48.07 12.91 47.92 13.26 47.43C13.5 47.1 14.21 45.71 14.85 44.33C16.51 40.78 16.84 40.04 17.6 38.17C18.3 36.45 19.22 35.88 19.91 36.73C20.1 36.97 20.82 38.52 21.5 40.17C22.18 41.82 22.95 43.64 23.21 44.22C23.46 44.79 23.67 45.41 23.67 45.59C23.67 45.77 23.98 46.31 24.37 46.8C24.93 47.51 24.99 47.78 24.66 48.18C24.15 48.79 22.33 48.81 21.52 48.23C21.03 47.86 20.99 47.67 21.32 47.14C21.61 46.67 21.62 46.25 21.37 45.58C21.03 44.71 20.92 44.67 18.73 44.67C16.62 44.67 16.41 44.73 15.99 45.52C15.62 46.21 15.61 46.5 15.95 47.05C16.28 47.56 16.28 47.83 15.98 48.19C15.53 48.73 14.08 48.81 13.33 48.34ZM274.37 48.36C274 48.13 273.92 47.03 273.97 42.97C274.04 38 274.03 37.86 273.28 37.29C272.86 36.97 272.59 36.63 272.69 36.53C272.8 36.43 274.38 36.3 276.22 36.26C280 36.16 281.05 36.5 281.69 38.06C282.05 38.91 282.01 39.16 281.38 40.01C280.62 41.03 280.44 42 281 42C281.58 42 282.6 44.01 282.41 44.78C282.13 45.91 281.09 47.22 279.87 47.98C278.69 48.71 275.29 48.95 274.37 48.36ZM279.23 46.28C280.78 44.81 279.86 42.67 277.68 42.67L276.47 42.67L276.53 44.75C276.57 45.9 276.61 46.87 276.63 46.92C276.79 47.3 278.62 46.85 279.23 46.28ZM126.22 45.44C126.1 45.32 126 44.95 126 44.61C126 44.03 126.56 44 137.15 44C144.53 44 148.37 44.12 148.51 44.35C148.63 44.54 148.54 44.91 148.32 45.18C147.98 45.59 146.18 45.67 137.18 45.67C131.28 45.67 126.34 45.57 126.22 45.44ZM19.85 42.57C20.04 42.07 19.12 39.67 18.74 39.67C18.37 39.67 17.29 42.32 17.51 42.69C17.8 43.16 19.66 43.06 19.85 42.57ZM278.82 40.35C279.61 39.47 279.26 38.08 278.13 37.65C277.66 37.47 277.16 37.4 277.02 37.49C276.67 37.7 276.26 40.29 276.51 40.69C276.85 41.23 278.2 41.03 278.82 40.35ZM320 32C318.74 31.22 320.23 30.32 334.51 23.19C348.5 16.2 350.5 15.39 350.5 16.67C350.5 17.32 320.59 32.36 320 32ZM74.2 20.14C74.09 19.85 74 19.47 74 19.31C74 18.96 105.09 18.87 105.43 19.21C105.55 19.33 105.49 19.7 105.31 20.04C104.99 20.64 104.28 20.67 89.69 20.67C76.06 20.67 74.38 20.61 74.2 20.14Z" fill="#1e2749" fill-rule="evenodd"/>
</svg>
