<?xml version="1.0" encoding="UTF-8"?>
<svg xmlns="http://www.w3.org/2000/svg" viewBox="0 0 2430 2305" width="2430" height="2305" shape-rendering="geometricPrecision">
<path d="M2324.5 2231.35C2293.93 2213.72 2140.88 2122.04 1957.5 2011.5C1836.94 1938.83 1766.07 1896.43 1740.23 1881.49L1731.96 1876.71L1711.23 1889.19C1546.53 1988.34 1154.88 2222.26 1136.41 2232.5L1131.33 2235.32L1123.41 2230.99C1083.61 2209.18 916.66 2110.04 692 1974.81C556.37 1893.16 520.96 1871.65 518.5 1869.39C516.66 1867.71 516.02 1865.68 515.35 1859.39C514.12 1848 514.29 1195.01 515.52 1187.5L516.51 1181.51L537.5 1168.65C568.16 1149.88 685.66 1079.21 906.5 946.71C1013.75 882.37 1102.29 828.98 1103.25 828.08C1105.25 826.21 1114.11 835.17 921 643.98C713.76 438.8 691.54 416.43 683.76 405.15C681.14 401.34 680.83 400.16 681.25 395.71C681.81 389.89 684.43 387.09 691.17 385.07C694.76 383.99 695.51 384.11 699.31 386.38C706.09 390.43 731.86 414.93 791.48 474.03C925.87 607.23 1087.63 766.51 1117.28 794.83C1127.67 804.75 1130.38 806.86 1131.78 806.1C1134.75 804.47 1185.49 754.61 1313 628C1526.73 415.79 1554 389.12 1560.87 385.57C1567.16 382.31 1576.39 387.22 1579.56 395.51C1581.16 399.7 1581.16 400.11 1579.54 402.58C1577.12 406.27 1495.72 489.06 1449.35 535C1308.98 674.05 1157 825.32 1157 826C1157 826.44 1161.16 829.39 1166.25 832.56C1184.01 843.62 1237.81 876.48 1278 900.8C1318.18 925.13 1339.56 938.01 1487 1026.71C1623.29 1108.7 1736.7 1178.01 1743.71 1183.59C1746.04 1185.45 1746.43 1186.7 1747.26 1195.09C1747.81 1200.57 1748.47 1339.57 1748.85 1527.94L1749.5 1851.38L1794.51 1878.44C1819.26 1893.32 1884.29 1932.46 1939.01 1965.4C1993.73 1998.35 2065.05 2041.29 2097.5 2060.83C2279.46 2170.37 2336.8 2205.28 2342.02 2209.67C2347.7 2214.45 2348.29 2223.12 2343.33 2229.01C2341.29 2231.44 2334.28 2236.07 2332.79 2235.98C2332.63 2235.97 2328.9 2233.89 2324.5 2231.35ZM1422.85 2026.59C1582.72 1930.67 1714.31 1851.32 1715.26 1850.26C1716.91 1848.44 1716.99 1831.02 1716.75 1523.97L1716.5 1199.6L1443.86 1036.05C1144.11 856.24 1131.94 849 1129.64 849C1127.64 849 1109.53 859.79 851 1015.03C734.12 1085.21 616.8 1155.65 590.28 1171.57L542.06 1200.5L542.03 1524.63C542 1818.52 542.15 1848.88 543.58 1850.06C548.28 1853.97 1129.72 2201.91 1130.84 2201.49C1131.58 2201.22 1262.98 2122.51 1422.85 2026.59ZM1587.41 1754.02C1585.16 1752.88 1582.28 1750.98 1581.01 1749.79L1578.69 1747.63L1579.4 1508.57C1579.78 1377.08 1580.42 1267.07 1580.8 1264.1C1581.36 1259.78 1582.06 1258.28 1584.33 1256.6C1589.75 1252.57 1603.23 1254.68 1605.65 1259.95C1607.59 1264.18 1608.82 1656.73 1607.07 1715.5C1606.17 1746.16 1605.65 1748.98 1600.2 1752.86C1595.68 1756.07 1592.12 1756.39 1587.41 1754.02ZM564.5 416.38C531.89 411.68 505.9 399.37 483.73 378.1C462.88 358.1 450.34 338.17 440.99 310.22C435.45 293.64 434.69 285.22 435.24 246.26C435.69 214.23 435.76 213.3 438.39 204.6C455.97 146.41 502.21 103.69 558.74 93.42C569.41 91.48 596.17 91.26 610.45 92.98C629.55 95.29 648 102.45 666 114.54C708.79 143.28 732.21 182.56 737.94 235.21C742.33 275.51 730.8 321.92 709.31 350.5C700.96 361.6 679.1 383.63 668.93 391.2C654.28 402.11 639.12 408.83 618.5 413.56C607.94 415.99 604.15 416.35 587 416.56C576.27 416.7 566.15 416.62 564.5 416.38ZM98.5 410C86.4 409.73 75.94 409.14 75.25 408.69C73.37 407.47 73.75 403.21 75.83 402.09C76.84 401.55 82.13 400.4 87.58 399.54C104.93 396.81 111.94 391.56 115.66 378.5C117.2 373.12 117.41 364.32 117.76 293.39C118.13 216.04 116.85 134.78 115.12 126.2C113.32 117.29 103.4 111.52 86.91 109.79C81.18 109.19 75.94 108.26 75.25 107.73C74.56 107.19 74 105.03 74 102.92C74 99.29 74.19 99.05 77.75 98.39C79.81 98 109.85 97.64 144.5 97.59L207.5 97.5L207.8 101.55C208.22 107.32 206.4 108.46 194.74 109.77C179.5 111.47 169.72 117.09 166.85 125.79C165.96 128.48 165.52 144.96 165.25 185.59L164.88 241.67L214.6 242.34C282.22 243.24 305.78 243.17 306.45 242.08C307.38 240.58 305.1 133.96 304.02 128.5C303.21 124.39 302.15 122.67 298.03 118.83C291.74 112.95 285 110.39 273.03 109.33C262.5 108.39 261.3 107.53 262.4 101.66L263.09 98L301.8 98C323.08 98 352.99 97.7 368.25 97.34L396 96.68L396 101.78C396 104.72 395.48 107.2 394.78 107.64C394.11 108.05 389.05 108.94 383.53 109.62C372.65 110.94 366.33 113.17 361.21 117.48C355.79 122.04 354.97 124.74 353.85 141.81C352.58 161.23 353.38 374.27 354.76 381.3C356.58 390.6 364.49 395.87 381.43 399.09C393.53 401.39 396 402.36 396 404.86C396 409.23 394.36 409.47 361.1 410C343.72 410.27 315.06 410.27 297.4 410C263.68 409.47 262 409.23 262 404.91C262 402.28 264.41 401.31 275.36 399.55C286.99 397.68 292.72 395.16 297.57 389.79C302.86 383.93 304.06 380.11 305.02 366.09C306.01 351.7 307.01 270.16 306.27 265.25L305.77 262L234.36 262L162.94 262L163.52 297.25C164.29 344.47 165.81 379.26 167.29 383.74C169.62 390.8 180.55 396.72 196.82 399.74C205.34 401.32 208.34 403 207.79 405.87C207.13 409.27 201.3 409.8 160.46 410.15C138.48 410.34 110.6 410.27 98.5 410ZM606.57 395.94C609.83 395.36 617.06 392.68 622.64 389.98C645.24 379.04 660.56 362.04 671.18 336.12C680.72 312.84 682.58 296.68 681.69 245C681.08 209.86 680.22 202.85 674.35 184.68C662.1 146.75 642.73 124.44 614 115.18C585.39 105.97 557.78 109.57 535.58 125.4C528.81 130.24 516.96 142.28 512.3 149.08C504.53 160.4 496.73 179.8 493.65 195.5C489.92 214.46 489.5 220.51 489.5 254.5C489.51 291.76 490.03 296.78 496.12 318C501.52 336.82 507.58 349.99 516.83 362.99C528.35 379.19 547.2 393.17 561.27 395.95C567.49 397.17 599.68 397.17 606.57 395.94ZM2007.73 357.03C1995.99 354.89 1982.26 348.98 1972.5 341.87C1961.3 333.7 1949.2 319.41 1942.98 307.01C1933.53 288.16 1930.67 274.88 1930.57 249.5C1930.49 228.38 1931.64 219.07 1936.22 203.51C1946.17 169.72 1970.92 144.39 2001.26 136.94C2011.91 134.32 2029.46 133.36 2038.54 134.9C2064.19 139.24 2087.03 154.94 2096.86 175C2103.8 189.15 2109.31 216.51 2106.02 220.48C2104.91 221.81 2096.24 222 2034.78 222L1964.81 222L1965.51 232.75C1966.41 246.64 1968.15 254.92 1972.37 265.4C1980.07 284.49 1997.63 305.28 2012 312.33C2023.82 318.12 2035.57 319.43 2049.41 316.5C2068.36 312.49 2081.73 300.55 2093.4 277.25C2096.62 270.81 2097.34 270 2099.86 270C2103.6 270 2106 272.82 2106 277.22C2106 282.25 2102.46 293.11 2097.77 302.5C2084.11 329.82 2065.13 347.22 2040.5 354.98C2032.67 357.44 2015.81 358.5 2007.73 357.03ZM1521.7 351.13C1512.7 350.43 1511.05 349.59 1511.02 345.73C1511 343.42 1513.57 342.42 1524.5 340.46C1538.35 337.99 1547.23 333.32 1550.66 326.7C1553.46 321.3 1553.96 301.7 1553.99 195C1554.03 95.94 1553.57 77.97 1550.79 68.69C1549.27 63.62 1543.98 58.15 1537.74 55.22C1534.03 53.48 1518.85 50 1514.94 50C1512.85 50 1511 46.53 1511 42.62L1511 38.37L1547.75 38.71C1567.96 38.89 1588.27 39.3 1592.87 39.62L1601.23 40.2L1606.5 51.35C1609.39 57.48 1614.47 68.35 1617.78 75.5C1670.88 190.22 1693.1 237.47 1705.72 262.5L1711.77 274.5L1714.07 270.61C1720.76 259.27 1746.92 203.42 1794.21 99.5C1808.48 68.15 1820.8 41.48 1821.6 40.24L1823.06 37.98L1866.78 38.24L1910.5 38.5L1910.8 43.09C1910.99 46.07 1910.62 48.07 1909.72 48.81C1908.97 49.44 1905.01 50.22 1900.93 50.54C1878.41 52.33 1873.29 56.33 1870.93 74C1869.38 85.59 1868.55 249.88 1869.83 291.61C1870.75 321.34 1870.98 324.04 1872.96 327.92C1876.58 335.02 1885.95 339.44 1901.76 341.5C1910.8 342.68 1913.79 347.41 1907.28 350.23C1905.22 351.12 1889 351.44 1845 351.46C1793.92 351.5 1785.08 351.29 1782.51 349.99C1779.34 348.39 1778.44 346.38 1779.89 344.12C1780.39 343.34 1785.3 341.88 1791.06 340.8C1802.67 338.61 1808.32 336.01 1815.41 329.57L1820.31 325.12L1820.67 223.31C1820.86 167.31 1821.16 116.44 1821.33 110.25C1821.49 104.06 1821.33 99 1820.96 99C1820.6 99 1812.51 115.99 1802.99 136.75C1727.03 302.4 1709.21 340.04 1703.48 346.84C1702.02 348.58 1700 350 1698.99 350C1694.65 350 1687.92 336.37 1626.3 202.75C1601.26 148.44 1580.42 104 1579.99 104C1579.57 104 1578.93 105.15 1578.58 106.55C1578.22 107.95 1577.98 157.78 1578.04 217.27L1578.14 325.45L1583.32 330.23C1590.36 336.74 1594.56 338.57 1607.92 340.91C1614.2 342.01 1619.96 343.53 1620.71 344.28C1622.55 346.12 1621.33 348.91 1618.11 350.21C1615.08 351.45 1535.54 352.2 1521.7 351.13ZM2056.5 204C2057.75 201.98 2053.82 185.39 2050.41 178.27C2044.45 165.82 2033.6 157.26 2019 153.49C2010.49 151.29 2005.83 151.92 1996.44 156.56C1982.55 163.43 1974.98 172.34 1968.58 189.37C1964.76 199.55 1965.2 202.97 1970.5 204.28C1974.57 205.28 2055.87 205.01 2056.5 204Z" fill="#1e2749" fill-rule="evenodd"/>
</svg>
