<?xml version="1.0" encoding="UTF-8"?>
<svg xmlns="http://www.w3.org/2000/svg" viewBox="0 0 860 222.818" width="860" height="222.818" shape-rendering="geometricPrecision">
<path d="M44.54 178.08C38.32 175.79 35.29 171.72 33.81 163.69C33.23 160.58 33.18 159.5 33.53 157.83C33.77 156.7 34.08 154.99 34.23 154.03C34.38 153.07 34.62 152.02 34.78 151.69C36.75 147.43 37.85 145.61 39.18 144.41C42.3 141.59 48.47 139.76 51.82 140.65C52.78 140.91 53.92 141.12 54.35 141.12C55.56 141.12 59.72 143.36 60.21 144.26C60.79 145.35 60.54 147.4 59.76 147.89C59.27 148.19 58.69 148 57.29 147.08C56.25 146.39 54.21 145.57 52.57 145.18C49.57 144.48 48.97 144.54 45.21 145.92C43.64 146.49 41.92 148.39 40.8 150.76C39.58 153.34 38.58 159.68 39.11 161.5C39.31 162.22 39.48 163.51 39.49 164.37C39.49 165.96 41.2 169.88 42.52 171.34C44.87 173.93 49.78 175 53.59 173.76C54.75 173.38 56.47 172.55 57.41 171.93C59.63 170.45 60.36 170.6 60.52 172.54C60.67 174.31 59.74 175.52 57.27 176.79C53.75 178.59 47.63 179.22 44.54 178.08ZM489.03 170.83C488.35 170.15 488.25 169.52 488.25 165.98C488.25 162.64 488.14 161.88 487.63 161.68C487.29 161.55 400.68 161.45 295.16 161.45L103.32 161.45L102.01 164.02C97.62 172.66 87.17 173.75 81.65 166.13C79.84 163.63 79.22 161.44 79.45 158.31C79.74 154.13 81.76 151.03 85.58 148.84C87.48 147.75 88.09 147.61 90.87 147.59C93.55 147.57 94.34 147.73 96.25 148.67C98.74 149.89 101.14 152.37 102.37 154.98C102.81 155.92 103.34 156.8 103.55 156.92C103.75 157.05 190.17 157.27 295.59 157.41C466.82 157.64 487.32 157.6 487.76 157.07C488.15 156.6 488.23 149.11 488.15 121.53L488.05 86.59L415.05 86.49L342.06 86.39L341.09 88.3C336.8 96.78 327.04 104.97 311.55 113.09C301.62 118.3 285.25 124.55 273.44 127.64C270.43 128.43 267 129.34 265.82 129.66C261.09 130.96 245.6 134.07 244.33 133.98C242.03 133.82 241.97 132.77 243.86 126C246.44 116.76 246.82 115.12 246.55 114.42C246.31 113.79 241.69 113.76 174.09 113.85L101.88 113.95L100.7 116.29C96.69 124.15 88.09 126.07 82 120.45C77.05 115.89 76.59 108.77 80.93 103.83C81.64 103.02 83.12 101.84 84.21 101.22C85.99 100.2 86.56 100.08 89.63 100.08C92.52 100.07 93.37 100.23 94.98 101.04C97.44 102.29 99.27 104.19 100.83 107.12C101.51 108.4 102.28 109.46 102.54 109.46C102.79 109.47 135.43 109.49 175.07 109.51C235.52 109.54 247.21 109.46 247.65 109.01C248.44 108.18 249.76 96.52 250.04 87.76C250.36 77.93 249.74 70.01 247.78 58.64C247.54 57.24 247.17 55.88 246.96 55.61C246.65 55.22 231.55 55.12 173.81 55.12L101.05 55.12L100.11 57.17C99.01 59.56 95.47 63.23 93.23 64.3C92.13 64.83 90.8 65.05 88.74 65.06C86.13 65.07 85.56 64.93 83.59 63.8C79.66 61.54 77.43 58.2 77.1 54.06C76.76 49.79 78.38 46.14 81.68 43.75C84.26 41.88 85.67 41.44 89.03 41.44C91.85 41.44 92.26 41.55 94.57 42.9C97.16 44.42 98.86 46.33 100.12 49.11C100.52 50.01 101.13 50.84 101.47 50.97C101.81 51.1 134.23 51.21 173.52 51.21C228.55 51.21 245.05 51.1 245.41 50.74C246.13 50.02 246.02 49.36 244.1 42.79C242 35.61 241.98 34.65 243.89 34.47C244.62 34.4 246.82 34.63 248.78 34.98C252 35.56 255.24 36.3 267.77 39.31C272.75 40.51 284.57 44.12 289.66 45.99C309.98 53.48 326.07 62.27 334.08 70.26C337.79 73.97 341.42 78.96 341.86 80.97L342.11 82.09L415.08 81.99L488.05 81.9L488.16 77.09C488.27 72.36 488.28 72.28 489.26 71.91C489.87 71.68 505.58 71.54 530.39 71.54C573.07 71.54 574.7 71.6 581.8 73.46C585.23 74.35 591.31 76.84 594.57 78.69C608.13 86.35 617.43 99.36 619.77 113.95C620.12 116.1 620.48 118.23 620.58 118.69L620.75 119.52L692.39 119.53C734.62 119.53 764.31 119.39 764.7 119.18C765.07 118.98 765.56 118.17 765.78 117.36C766.41 115.11 768.68 112.34 770.97 111.03C772.83 109.96 773.35 109.85 776.52 109.85C779.22 109.85 780.37 110.02 781.63 110.63C785.34 112.42 788 115.83 788.87 119.91C790.03 125.34 785.03 131.98 778.76 133.32C773.53 134.44 768.52 131.28 765.55 124.99L764.86 123.52L692.74 123.62L620.62 123.72L619.93 128.02C618.48 137.08 615.68 143.58 610.09 150.89C603.3 159.77 592.17 167 580.91 169.86C574.18 171.57 572.95 171.61 530.4 171.61C490.33 171.61 489.8 171.6 489.03 170.83ZM577.18 166.63C592.76 163 604.69 154.2 611.4 141.38C622.26 120.62 614.98 96.14 594.07 83.11C589.33 80.15 581.56 77.28 575.35 76.18C573.68 75.88 559.87 75.68 532.71 75.57L492.55 75.4L492.52 77.87C492.21 104.43 492.23 156.91 492.55 157.76C492.84 158.5 492.82 159.71 492.5 161.82C492.25 163.47 492.16 165.48 492.32 166.28L492.59 167.75L533.12 167.6C572.62 167.45 573.75 167.43 577.18 166.63ZM93.73 166.7C95.41 166 97.06 164.53 98.17 162.73C100.71 158.63 97.81 152.79 92.66 151.63C89.37 150.89 85.78 152.61 84.2 155.67C83.2 157.59 83.31 161.38 84.4 163.15C86.55 166.63 90.4 168.09 93.73 166.7ZM808.27 144.7C807.72 144.1 807.62 142.97 807.62 137.19L807.62 130.4L803.24 121.59C800.83 116.74 798.35 111.95 797.72 110.94C796.12 108.36 796.43 107.82 799.48 107.97L801.91 108.09L803.95 112.19C805.07 114.45 806.83 118.19 807.87 120.5C808.91 122.81 809.94 124.65 810.16 124.58C810.6 124.44 811.17 123.35 815.04 115.26C816.55 112.11 817.78 109.35 817.78 109.12C817.78 108.89 818.12 108.52 818.54 108.3C819.41 107.83 823.12 107.75 823.39 108.19C823.58 108.49 822.47 110.8 816.09 123.38L812.7 130.08L812.7 136.97C812.7 143.33 812.64 143.91 811.92 144.64C810.94 145.61 809.12 145.65 808.27 144.7ZM37.42 128.71C36.8 128.02 36.75 126.52 36.75 110.99C36.75 101.65 36.86 93.62 36.99 93.13C37.23 92.26 37.3 92.25 44.21 92.25C49.77 92.25 51.53 92.39 52.86 92.9C56.94 94.48 58.75 97.04 58.75 101.25C58.75 104.15 57.99 106.02 56.25 107.43C54.73 108.65 54.79 109.7 56.42 110.38C58.91 111.42 61.37 115.53 61.37 118.64C61.37 122.51 58.12 126.86 54.14 128.31C52.14 129.04 50.79 129.19 44.94 129.31C38.6 129.44 38.04 129.4 37.42 128.71ZM256.24 127.69C259.9 126.92 263.41 126.12 264.06 125.93C264.7 125.73 267.69 124.91 270.7 124.11C276.82 122.49 283.69 120.34 289.27 118.3C299.2 114.68 314.26 107.41 320.94 103.02C330.39 96.8 338.14 88.08 338.14 83.67C338.14 81.55 335.83 77.87 332.33 74.38C323.65 65.75 310.72 58.38 291.23 50.96C279.76 46.59 274.26 44.96 257.22 40.89C251.58 39.55 247.89 38.91 247.58 39.22C247.44 39.36 247.88 41.37 248.56 43.68C249.7 47.51 251.6 55.94 252.55 61.37C253.99 69.54 254.58 87.23 253.72 95.97C252.64 106.89 250.71 117.55 248.44 125.21C247.88 127.1 247.54 128.83 247.68 129.06C247.81 129.28 248.3 129.38 248.76 129.28C249.22 129.17 252.59 128.46 256.24 127.69ZM780.9 128.08C783.05 126.6 784.95 123.46 784.95 121.38C784.95 120.67 784.46 119.18 783.87 118.05C783.01 116.41 782.38 115.78 780.69 114.88C777.7 113.29 775.47 113.34 772.99 115.05C768.8 117.93 768.07 123.23 771.38 126.74C774.25 129.79 777.7 130.28 780.9 128.08ZM51.67 124.74C53.07 124.28 54.69 122.81 55.46 121.31C56.22 119.82 56 116.75 55.02 115.3C53.43 112.94 51.98 112.4 46.76 112.25C43.16 112.14 42.05 112.22 41.78 112.64C41.4 113.24 41.32 121.43 41.68 123.61L41.92 125.06L44.32 125.17C48.07 125.35 50.2 125.23 51.67 124.74ZM93.79 118.31C98.76 115.03 98.96 108.58 94.21 105.38C92.24 104.05 89.25 103.62 87.03 104.36C85.2 104.96 82.69 107.83 82.16 109.94C81.34 113.15 83.21 117.04 86.39 118.74C88.71 119.98 91.52 119.82 93.79 118.31ZM50.28 107.48C52.56 106.37 53.55 104.59 53.55 101.57C53.55 99.41 53.44 99.1 52.23 97.88L50.9 96.55L46.17 96.55L41.44 96.55L41.44 100.41C41.44 106.05 41.74 107.81 42.76 108.01C45.21 108.49 48.69 108.25 50.28 107.48ZM32.32 71.28C31.79 70.75 32.09 69.25 33.46 65.45C34.24 63.32 34.97 61.22 35.08 60.79C35.2 60.36 35.43 59.83 35.59 59.61C35.75 59.4 36.06 58.61 36.28 57.85C36.49 57.1 37.14 55.25 37.7 53.75C38.68 51.16 39.75 48.19 42.6 40.09C44.92 33.52 44.52 34.01 47.57 34.02C49.04 34.02 50.46 34.17 50.74 34.34C51.02 34.52 51.66 35.88 52.17 37.37C52.68 38.85 54.27 43.32 55.7 47.3C57.13 51.28 58.63 55.5 59.03 56.68C59.44 57.86 60.32 60.33 61 62.15C63.66 69.27 63.88 70.03 63.45 70.7C62.93 71.53 59.72 71.79 59.11 71.05C58.88 70.77 57.99 68.6 57.16 66.25L55.63 61.96L47.69 61.96L39.74 61.96L38.93 64.37C38.48 65.7 37.98 66.92 37.82 67.08C37.66 67.24 37.53 67.67 37.53 68.04C37.53 68.9 36.56 70.78 35.89 71.2C35.28 71.59 32.68 71.64 32.32 71.28ZM92.54 59.96C94.44 58.86 95.99 56.79 96.6 54.56C97.43 51.5 95.44 47.76 92.13 46.16C85.1 42.76 78.09 50.77 82.35 57.35C84.83 61.17 88.73 62.17 92.54 59.96ZM53.16 57.07C53.84 56.71 53.76 56.33 51.73 50.53C50.55 47.14 49.22 43.35 48.79 42.1C48.35 40.85 47.8 39.9 47.55 39.98C47.31 40.05 46.56 41.69 45.9 43.61C41.43 56.6 41.37 56.79 41.9 57.12C42.63 57.59 52.28 57.54 53.16 57.07Z" fill="#1e2749" fill-rule="evenodd"/>
</svg>
