<?xml version="1.0" encoding="UTF-8"?>
<svg xmlns="http://www.w3.org/2000/svg" viewBox="0 0 494 395" width="494" height="395" shape-rendering="geometricPrecision">
<path d="M155.56 367.44C155.43 367.32 155.33 353.44 155.33 336.6C155.33 309.67 155.27 305.96 154.83 305.79C153.7 305.35 152.66 306.14 149.67 309.66C147.96 311.68 146.37 313.33 146.13 313.33C145.71 313.33 144.67 312.1 144.67 311.6C144.67 311.47 145.72 310.17 147 308.71C148.28 307.26 149.33 305.98 149.33 305.87C149.33 305.76 148.07 305.67 146.52 305.67L143.71 305.67L140.32 309.5C138.46 311.61 136.82 313.33 136.68 313.33C136.3 313.33 135.33 312.16 135.33 311.7C135.33 311.48 136.39 310.03 137.68 308.48L140.03 305.67L137.58 305.67C136.12 305.67 134.97 305.51 134.73 305.27C134.09 304.63 134.26 298.05 135.05 293C135.43 290.52 135.77 288.05 135.79 287.5L135.83 286.5L93.67 286.33C70.47 286.24 51.46 286.12 51.42 286.08C51.37 286.04 51.33 285.38 51.33 284.61L51.33 283.22L71.46 283.45C87.7 283.63 91.65 283.59 91.94 283.24C92.29 282.82 90.89 280.29 87.45 275.08C86.13 273.09 86.11 272.21 87.35 272.07C88.07 271.98 88.45 272.33 89.83 274.33C90.72 275.62 91.58 276.64 91.74 276.59C91.9 276.53 92.03 261.79 92.02 243.33C92 179.81 91.62 43.16 91.47 42.42C91.39 42 91.19 41.67 91.03 41.67C90.87 41.67 90.13 42.64 89.38 43.83C88.02 46 87.26 46.46 86.4 45.6C85.68 44.88 85.97 44.12 88.5 40C89.88 37.77 91 35.8 91 35.64C91 35.47 82.64 35.3 71.25 35.25L51.5 35.17L51.5 33.83L51.5 32.5L102.8 32.42C137.93 32.36 154.23 32.22 154.52 31.98C154.75 31.79 155.04 30.85 155.16 29.9C155.43 27.79 155.84 26.36 156.85 24.13C159.73 17.72 164.52 13.77 171.63 11.96C176.28 10.77 178.67 11.29 178.67 13.5C178.67 15.42 179.19 16.18 182.48 19.02C184.23 20.53 185.67 22.02 185.67 22.33C185.67 22.64 185.39 23.15 185.05 23.45C184.36 24.08 184.16 23.97 181.04 21.26C178.93 19.45 178.67 19.56 178.67 22.25C178.67 25.08 178.97 25.55 182.91 29C185.97 31.68 185.99 31.7 185.46 32.52C185.16 32.97 184.71 33.33 184.44 33.33C184.18 33.33 182.92 32.43 181.64 31.33C180.36 30.23 179.17 29.33 178.99 29.33C178.44 29.33 178.59 36.55 179.16 37.6C179.42 38.09 180.99 39.62 182.63 41C185.61 43.49 186.16 44.38 185.27 45.27C184.57 45.96 184.02 45.72 181.64 43.67C180.36 42.57 179.17 41.67 178.99 41.67C178.44 41.67 178.61 45.64 179.21 46.62C179.51 47.1 181.07 48.62 182.69 50C184.3 51.38 185.63 52.7 185.64 52.94C185.68 53.64 185.02 54.67 184.53 54.67C184.28 54.67 183.01 53.77 181.69 52.67C180.38 51.57 179.16 50.67 178.99 50.67C178.81 50.67 178.66 51.6 178.65 52.75C178.64 54.56 178.51 54.98 177.67 55.97C176.75 57.04 176.63 57.09 175.1 56.87C171.34 56.35 170.28 56.04 167.47 54.65C165.13 53.5 163.91 52.6 161.7 50.43C160.16 48.91 158.81 47.67 158.7 47.67C158.48 47.67 158.58 260.95 158.81 261.54C158.88 261.75 159.37 262.02 159.89 262.14C165.34 263.47 171.74 271.2 174.66 280C175.06 281.19 175.56 282.34 175.77 282.56C176.07 282.86 203.38 283.01 291.24 283.19C392.12 283.41 406.34 283.37 406.5 282.95C406.61 282.67 405.66 280.76 404.34 278.61C401.79 274.42 401.41 273 402.84 273C403.52 273 403.99 273.48 405.3 275.48C406.5 277.32 407.01 277.86 407.29 277.58C407.57 277.3 407.67 264.57 407.67 229.75L407.67 182.29L408.92 182.4L410.17 182.5L410.33 230.33L410.5 278.17L412.19 275.67C413.49 273.73 414.07 273.14 414.77 273.06C416.46 272.86 416.2 273.82 413.21 278.82L410.33 283.61L410.33 325.24C410.33 357.17 410.24 366.96 409.93 367.27C409.42 367.78 408.11 367.78 407.8 367.28C407.67 367.06 407.59 363.57 407.63 359.53C407.71 352.13 407.61 351 406.85 351C406.63 351 404.56 352.14 402.25 353.53C397.9 356.16 396.94 356.4 396.49 354.97C396.2 354.07 396.72 353.53 399.4 351.94C400.66 351.19 401.63 350.52 401.56 350.45C401.49 350.37 379.54 350.26 352.8 350.19C326.05 350.11 272.62 349.88 234.06 349.66C195.51 349.44 163.86 349.37 163.73 349.5C163.6 349.64 163.77 349.91 164.1 350.12C169.01 353.19 169.7 353.93 168.33 354.67C167.71 355 167.07 354.72 163.37 352.52C161.04 351.14 158.87 350 158.55 350C158.03 350 157.98 350.66 158.01 358.36C158.03 364.35 157.93 366.85 157.65 367.19C157.24 367.68 155.95 367.84 155.56 367.44ZM401.8 347.72C402.05 347.32 401.38 346.78 398.87 345.32C396.75 344.08 396.2 343.13 397.03 342.13C397.57 341.48 398.59 341.73 400.42 342.97C401.2 343.5 402.73 344.5 403.83 345.2C404.93 345.9 405.93 346.62 406.05 346.79C406.17 346.96 406.48 347.01 406.75 346.91C407.09 346.78 407.3 345.98 407.43 344.28C407.72 340.55 407.72 288.22 407.42 287.79C407.23 287.5 377.54 287.31 292.21 287.02C228.99 286.81 177.17 286.72 177.07 286.82C176.97 286.92 177.21 288.92 177.61 291.25C178.01 293.59 178.43 297.49 178.55 299.92C178.81 305.22 178.61 305.67 175.97 305.67L174.38 305.67L171.12 309.5C169.32 311.61 167.67 313.33 167.44 313.33C167.05 313.33 166 312.09 166 311.61C166 311.48 167.07 310.13 168.39 308.6L170.78 305.83L168.39 305.74C167.07 305.68 165.78 305.76 165.53 305.9C165.27 306.05 163.69 307.74 162.02 309.66C160.34 311.59 158.75 313.28 158.48 313.43C157.76 313.84 157.76 346 158.48 346C158.75 346 160.83 344.88 163.11 343.5C167.01 341.15 168.68 340.55 169.17 341.33C169.54 341.93 168.74 342.81 166.46 344.33C165.22 345.16 164.15 346 164.09 346.21C163.89 346.83 174.93 346.98 235.5 347.16C303.7 347.37 392.81 347.72 392.89 347.79C393.19 348.02 401.66 347.95 401.8 347.72ZM290.5 341.33L286.83 341.17L286.74 334.23L286.65 327.29L287.74 327.4L288.83 327.5L288.92 333.14C288.98 336.51 289.16 338.96 289.37 339.21C289.6 339.49 290.77 339.68 292.61 339.74C295.19 339.82 295.5 339.9 295.5 340.46C295.5 341.37 294.62 341.52 290.5 341.33ZM161.35 306.25C161.65 305.73 161.52 305.67 160.05 305.67C158.86 305.67 158.35 305.81 158.2 306.19C157.92 306.93 157.95 309.17 158.25 309.47C158.48 309.7 160.66 307.45 161.35 306.25ZM154.93 302.6C155.22 302.32 155.33 300.38 155.33 295.99L155.33 289.78L154.49 289.33C154.02 289.08 153.34 288.38 152.97 287.79L152.3 286.69L146.06 286.6C142.64 286.54 139.59 286.61 139.3 286.74C138.91 286.91 138.56 288.08 138.07 290.9C137.26 295.52 136.56 302.23 136.84 302.68C137.15 303.18 154.44 303.1 154.93 302.6ZM175.95 301.83C176.22 299.65 174.84 289.6 173.98 287.42C173.68 286.68 173.6 286.67 167.5 286.67L161.32 286.67L159.66 288.41L158 290.15L158 296.05C158 299.29 158.09 302.19 158.2 302.48C158.39 302.95 159.39 303 167.12 302.92L175.83 302.83L175.95 301.83ZM136.79 283.25C137.04 282.84 137.51 281.75 137.83 280.83C141.35 270.75 146.95 263.84 153 262.15C153.46 262.03 154.1 261.69 154.42 261.41C154.97 260.92 155 255.19 154.96 149.2C154.94 87.76 154.82 37.05 154.71 36.5L154.49 35.5L124.58 35.41C104.08 35.36 94.67 35.44 94.67 35.68C94.67 35.87 95.32 37.03 96.12 38.26C100 44.23 100.08 44.39 99.69 45.24C99.08 46.59 98.04 46.09 96.42 43.67C95.63 42.47 94.83 41.45 94.65 41.39C94.28 41.26 94.22 158.43 94.56 229.97L94.78 276.77L95.64 275.78C96.11 275.24 96.98 274.09 97.58 273.23C98.36 272.1 98.87 271.67 99.46 271.67C100.8 271.67 100.8 272.61 99.46 274.62C96.89 278.5 94.67 282.38 94.67 283.01C94.67 283.64 95.03 283.66 108.92 283.75C116.75 283.8 126.13 283.88 129.74 283.92C136.24 284 136.32 283.99 136.79 283.25ZM152.16 283.15C152.35 282.78 153.06 281.79 153.75 280.95L155 279.43L155 272.05L155 264.67L154.22 264.67C152.3 264.67 148.37 267.48 146.09 270.47C143.31 274.12 139.63 282.22 140.14 283.56C140.28 283.93 141.47 284 146.07 283.92C151.47 283.84 151.83 283.79 152.16 283.15ZM172.27 282.08C172.49 280.53 169.81 274.75 167.26 271.26C164.71 267.78 160.86 264.67 159.1 264.67C158.76 264.67 158.67 266.25 158.67 272.46L158.67 280.25L160.17 281.63L161.67 283.02L166.92 282.93C172.08 282.83 172.17 282.82 172.27 282.08ZM416.89 194.11C416.77 193.99 416.67 190.84 416.67 187.11L416.67 180.33L419.68 180.33C423.49 180.33 424.99 180.98 425.79 182.99C426.28 184.23 426.29 184.46 425.82 185.58C425.54 186.26 425.05 187.1 424.74 187.45C423.9 188.39 421.69 189.32 420.25 189.33L419 189.33L419 191.43C419 192.62 418.83 193.71 418.6 193.93C418.16 194.37 417.24 194.46 416.89 194.11ZM422.69 186.36C423.81 185.24 423.99 183.72 423.08 182.93C422.44 182.37 420.23 181.93 419.48 182.22C418.85 182.46 418.79 186.86 419.42 187.11C420.54 187.57 421.76 187.29 422.69 186.36ZM73.9 156.12C73.77 155.99 73.67 152.83 73.67 149.09L73.67 142.29L74.75 142.4L75.83 142.5L75.92 148.14C75.98 151.51 76.16 153.96 76.37 154.21C76.6 154.49 77.77 154.68 79.61 154.74C82.25 154.82 82.5 154.89 82.5 155.5C82.5 156.13 82.25 156.17 78.32 156.26C76.01 156.31 74.03 156.25 73.9 156.12ZM174.83 34.17C174.83 12.91 175.16 14.82 171.74 15.86C169.13 16.66 167.1 17.7 165.12 19.27C163.42 20.62 160.97 23.85 160.5 25.35C160.36 25.8 160.13 26.32 159.98 26.51C159.83 26.7 159.47 27.97 159.19 29.34C156.98 39.94 162.65 49.73 172.67 52.6C175.01 53.28 174.83 54.79 174.83 34.17Z" fill="#1e2749" fill-rule="evenodd"/>
</svg>
