<?xml version="1.0" encoding="UTF-8"?>
<svg xmlns="http://www.w3.org/2000/svg" viewBox="0 0 643 536" width="643" height="536" shape-rendering="geometricPrecision">
<path d="M187.74 510.94C187.22 510.42 187.22 508.92 187.73 508.4C187.98 508.15 189.18 508 190.85 508C194.92 508 194.67 508.74 194.67 496.71C194.67 487.88 194.6 486.62 194.14 486.45C193.85 486.33 192.41 486.84 190.92 487.59C189.43 488.33 188.01 488.86 187.77 488.76C187.53 488.67 187.33 488.1 187.33 487.48C187.33 486.21 187.76 485.83 192.25 483.04C194.68 481.53 195.2 481.33 196.83 481.33L198.67 481.33L198.67 494.1C198.67 503.8 198.77 507.01 199.08 507.43C199.4 507.84 200.15 508 202.13 508.07C205.22 508.18 205.87 508.68 204.99 510.25L204.47 511.17L196.31 511.26C190.24 511.32 188.04 511.24 187.74 510.94ZM214.45 510.34C212.14 509.01 210.79 507.29 209.91 504.5C209.26 502.46 209.17 501.45 209.17 496.5C209.18 491.55 209.28 490.54 209.93 488.53C210.85 485.71 211.68 484.32 213.09 483.26C214.97 481.85 216.79 481.33 219.85 481.33C222.19 481.33 222.97 481.47 224.28 482.14C227.57 483.81 229.03 486.15 229.83 491.07C230.47 495.04 230.46 497.35 229.79 500.94C229.13 504.47 228.28 506.37 226.51 508.3C224.55 510.44 222.31 511.33 218.91 511.33C216.49 511.33 215.97 511.21 214.45 510.34ZM253.49 510.99C253.25 510.6 252.44 508.38 248.07 496.17C247.35 494.15 246.04 490.55 245.17 488.17C244.29 485.78 243.51 483.27 243.42 482.58L243.26 481.33L245.09 481.33C247.17 481.33 247.38 481.5 248.14 483.83C248.44 484.75 248.83 485.8 249 486.17C249.31 486.8 253.07 497.63 254.88 503.08C255.35 504.5 255.85 505.67 255.99 505.67C256.55 505.67 256.99 504.52 260.14 495C261.92 489.59 263.69 484.3 264.07 483.25L264.76 481.33L266.71 481.33C268.37 481.33 268.67 481.42 268.67 481.94C268.67 482.62 267.46 486.53 266.97 487.43C266.66 488 266.02 489.77 263.54 497C262.88 498.93 262.19 500.8 262.01 501.17C261.83 501.53 261.37 502.81 260.98 504C258.8 510.69 258.33 511.33 255.63 511.33C254.57 511.33 253.61 511.18 253.49 510.99ZM221.02 507.49C222.87 506.84 223.53 506.23 224.62 504.17C225.48 502.53 225.5 502.37 225.5 496.17C225.5 490.08 225.47 489.77 224.67 488.17C223.28 485.4 220.61 484.16 217.89 485.02C216.11 485.57 215.22 486.38 214.27 488.29C213.55 489.74 213.5 490.23 213.5 496.17L213.5 502.5L214.5 504.5C215.32 506.14 215.77 506.63 217 507.24C218.81 508.12 219.17 508.15 221.02 507.49ZM286.45 502.34C284.4 501.17 283.53 499.86 282.97 497.11C282.42 494.43 282.91 490.26 283.99 488.51C284.92 487.01 287.74 485.34 289.35 485.34C290 485.33 290.71 485.15 290.93 484.93C291.24 484.63 291.33 477.14 291.33 453.26L291.33 421.99L290.58 421.68C290.17 421.51 288.48 420.9 286.83 420.32C279.76 417.84 278.67 417.35 278.67 416.67C278.67 416.36 278.97 415.83 279.33 415.5C279.7 415.17 280 414.71 280 414.49C280 414.26 277.65 412.22 274.78 409.95C271.91 407.69 267.67 404.34 265.36 402.52C263.05 400.7 259.82 398.14 258.17 396.84C256.52 395.54 253.65 393.28 251.8 391.82C249.95 390.36 246.15 387.37 243.36 385.17C240.57 382.97 238.07 381.12 237.81 381.06C237.41 380.97 237.33 381.96 237.33 387.27C237.33 394.17 237.25 394.48 235.44 394.27L234.5 394.17L234.33 377.83L234.17 361.5L200.7 361.42C176.64 361.35 167.1 361.23 166.78 360.96C166.41 360.65 166.33 352.5 166.33 313.13L166.33 265.67L165.18 264.92C164.13 264.24 163.79 263.72 163.21 261.92C163.03 261.37 160.82 261.33 122.87 261.33C100.79 261.33 82.48 261.42 82.19 261.54C81.9 261.65 81.67 261.93 81.67 262.15C81.67 262.38 81.12 263.28 80.46 264.16C78 267.37 72.98 268.37 69.45 266.34C67.4 265.17 66.53 263.86 65.97 261.11C65.64 259.54 65.63 258.4 65.9 256.35C66.34 252.98 67.24 251.53 69.7 250.16C71.28 249.29 71.82 249.17 74.17 249.17C77.25 249.18 79.01 249.9 80.38 251.73C81.48 253.19 82.33 255.41 82.33 256.8C82.33 257.52 82.52 258 82.86 258.13C83.15 258.24 101.17 258.33 122.9 258.33L162.42 258.33L164.29 256.42L166.17 254.5L166.33 206.5L166.5 158.5L199.97 158.42C224.02 158.35 233.56 158.23 233.88 157.96C234.25 157.66 234.33 154.66 234.33 141.99C234.33 128.09 234.39 126.38 234.86 126.2C235.71 125.88 236.25 125.97 236.81 126.52C237.26 126.97 237.33 128.26 237.33 135.52C237.33 140.72 237.46 144 237.65 144C237.83 144 241.69 141.55 246.24 138.56C250.78 135.57 255.85 132.24 257.5 131.17C260.31 129.34 265.77 125.74 283.33 114.17C287.27 111.57 290.69 109.21 290.92 108.94C291.25 108.53 291.32 102.21 291.25 78.97L291.17 49.51L289.97 49.32C288.26 49.04 285.84 47.53 285.06 46.25C283.93 44.43 283.49 41.44 283.89 38.38C284.33 35.07 285.18 33.63 287.45 32.32C288.97 31.45 289.48 31.34 291.93 31.34C296.22 31.33 298.36 32.67 299.77 36.26C301.41 40.42 299.32 46.99 295.93 48.34C295.33 48.58 294.76 48.84 294.67 48.92C294.57 48.99 294.42 62.88 294.33 79.77L294.17 110.48L290.15 113.16C287.94 114.63 284.41 116.95 282.32 118.31C278.77 120.62 271.84 125.17 256.67 135.17C244.87 142.93 238.72 146.95 238.03 147.32C237.34 147.68 237.33 147.87 237.33 159.67L237.33 171.65L242.08 174.77C244.7 176.49 249.53 179.67 252.83 181.83C256.13 183.99 260.71 186.99 263 188.5C265.29 190.01 267.32 191.3 267.5 191.37C267.83 191.5 272.29 194.39 277.78 198.04C279.4 199.12 280.86 200 281.01 200C281.16 200 281.59 199.61 281.96 199.14C283.07 197.72 283.8 198.17 287.11 202.32C288.79 204.42 291.07 206.83 292.17 207.68L294.17 209.22L294.34 231.69C294.43 244.05 294.55 254.2 294.59 254.25C294.63 254.3 294.86 254.33 295.1 254.33C295.74 254.33 297.2 256.01 297.57 257.17L297.89 258.17L341.73 258.25L385.57 258.34L386.2 259.04C386.81 259.71 386.84 260.68 386.9 283.93C386.96 303.15 387.06 308.2 387.4 308.52C387.64 308.75 389.18 309.49 390.83 310.17C399.83 313.87 400.12 314.07 398.63 315.48C398.19 315.89 397.01 316.56 396 316.97C394.99 317.37 393.87 317.84 393.5 318C393.13 318.16 390.96 319.06 388.67 320C384.92 321.53 383.75 322.02 381.5 323C381.13 323.16 380.49 323.39 380.06 323.51C379.61 323.64 379.34 323.93 379.4 324.24C379.49 324.7 381.64 325.7 389.33 328.89C389.97 329.16 390.8 329.51 391.17 329.67C391.53 329.83 393.18 330.52 394.83 331.21C400.94 333.75 400.89 334.17 394.13 337.03C391.95 337.95 389.87 338.84 389.5 339C389.13 339.16 386.66 340.19 384 341.29C381.34 342.39 379.17 343.46 379.17 343.67C379.17 344 380.37 344.56 386 346.9C386.64 347.16 387.47 347.51 387.83 347.67C388.2 347.83 390.38 348.73 392.67 349.68C397.81 351.8 399.14 352.49 399.27 353.12C399.4 353.76 397.63 355.04 395.33 355.96C394.32 356.37 393.2 356.83 392.83 356.99C387.92 359.07 381.57 361.68 380.57 362.03C378.64 362.71 379 363.38 382 364.61C382.46 364.8 383.56 365.27 384.46 365.65C385.35 366.02 386.28 366.33 386.52 366.33C386.76 366.33 387.08 366.52 387.23 366.75C387.38 366.98 387.57 383.14 387.67 402.67L387.83 438.17L398.65 438.25C408.12 438.33 409.53 438.41 410.06 438.89C410.83 439.58 410.83 440.09 410.05 440.78C409.49 441.29 407.45 441.33 385.81 441.25L362.18 441.17L361.85 440.22C361.21 438.4 361.61 438.33 373.33 438.33C381.08 438.33 383.97 438.23 384.27 437.93C384.86 437.34 384.85 369.52 384.25 368.99C384.02 368.78 381.51 367.61 378.67 366.39L373.5 364.16L373.5 363.03C373.5 361.82 373.47 361.84 381.17 358.66C390.06 354.98 392.83 353.72 392.83 353.33C392.83 353.1 391.93 352.53 390.83 352.08C389.73 351.62 388.31 351.04 387.67 350.77C387.02 350.51 386.2 350.15 385.83 349.99C385.47 349.83 382.77 348.69 379.83 347.47C376.9 346.25 374.24 345.02 373.92 344.74C373.6 344.46 373.33 343.88 373.33 343.44C373.33 342.53 373.06 342.67 383.83 338.17C386.77 336.95 389.62 335.75 390.17 335.51C390.72 335.27 391.49 334.98 391.89 334.86C392.28 334.74 392.79 334.42 393.01 334.16C393.33 333.77 393.29 333.64 392.79 333.47C392.45 333.36 391.87 333.15 391.5 332.99C391.13 332.83 388.43 331.71 385.5 330.49C382.57 329.27 379.87 328.14 379.5 327.99C379.13 327.83 378.01 327.37 377 326.96C374.24 325.84 373.28 325.08 373.4 324.11C373.52 323.13 373.89 322.91 379.33 320.67C381.62 319.72 384.02 318.73 384.67 318.45C385.95 317.9 386.02 317.88 389.83 316.31C391.3 315.71 392.69 315.05 392.93 314.83C393.37 314.44 393.23 314.36 389.33 312.77C388.69 312.5 387.85 312.13 387.46 311.94C387.07 311.75 386.25 311.5 385.63 311.37C384.73 311.19 384.42 310.91 384.1 309.99C383.8 309.13 383.7 302.8 383.7 285.41C383.69 272.52 383.6 261.83 383.49 261.66C383.37 261.45 367.68 261.33 340.37 261.33L297.44 261.33L297.07 262.16C296.86 262.61 296.16 263.32 295.52 263.74L294.35 264.5L294.26 287.83L294.17 311.17L293.33 311.28C292.88 311.35 292.41 311.54 292.31 311.71C292.21 311.87 290.91 312.72 289.43 313.59C287.31 314.83 274.23 322.8 270.15 325.33C268.29 326.49 255.91 334.06 252.93 335.87C251.15 336.95 249.62 338.03 249.52 338.28C249.41 338.53 249.58 339.15 249.88 339.66C250.89 341.37 250.71 341.48 244.67 342.86C243.29 343.18 241.12 343.7 239.83 344.01L237.5 344.58L237.41 360.5C237.35 372.07 237.43 376.55 237.71 376.88C238.03 377.27 244.73 382.61 253.32 389.33C255.63 391.14 260.02 394.6 266 399.33C268.43 401.26 271.29 403.51 272.34 404.33C273.4 405.16 275.93 407.15 277.97 408.75C280 410.35 281.81 411.67 281.98 411.67C282.15 411.67 282.59 411.28 282.96 410.81C283.37 410.29 283.89 409.99 284.28 410.06C284.69 410.13 286.21 412.08 288.39 415.33C291.17 419.49 292.09 420.61 293.09 421.09L294.33 421.67L294.34 453.42C294.34 470.88 294.45 485.33 294.59 485.54C294.72 485.74 295.28 486.14 295.83 486.42C299.74 488.43 300.53 496.3 297.23 500.46C294.93 503.37 289.8 504.27 286.45 502.34ZM159.2 500.81C158.82 499.81 158.99 498.41 159.53 498.2C160.35 497.89 169.44 497.97 169.96 498.3C170.5 498.65 170.66 499.92 170.26 500.75C170.01 501.27 169.39 501.33 164.69 501.33C160.18 501.33 159.38 501.26 159.2 500.81ZM292.56 500.98C295.11 500.01 296.34 497.72 296.33 493.93C296.32 490.68 295.56 488.97 293.67 487.93C291.98 487.01 289.13 487.24 287.59 488.41C285.26 490.19 284.67 495.17 286.39 498.57C287.59 500.96 290.06 501.92 292.56 500.98ZM378.33 456.7C377.38 456.44 376.96 454.77 377.72 454.29C378.38 453.88 393.91 453.93 394.69 454.35C395.74 454.91 395.49 455.97 394.18 456.52C393.28 456.89 391.45 456.99 386.09 456.97C382.28 456.95 378.79 456.83 378.33 456.7ZM370.25 448.81C369.26 448.27 369.05 447.31 369.79 446.7C370.12 446.43 374.73 446.35 386.34 446.41C401.46 446.49 402.45 446.54 402.8 447.1C403.1 447.6 403 447.85 402.23 448.52L401.3 449.33L386.23 449.32C373.53 449.31 371.02 449.23 370.25 448.81ZM429.83 360.58C429.73 360.17 429.69 357.28 429.74 354.17L429.83 348.5L431.17 348.5L432.5 348.5L432.59 353.65C432.66 357.26 432.81 358.88 433.09 359.06C433.32 359.21 434.29 359.33 435.26 359.33C437.14 359.33 437.78 359.89 437 360.84C436.68 361.22 435.8 361.33 433.3 361.33C430.17 361.33 430 361.3 429.83 360.58ZM468.74 360.94C468.22 360.42 468.22 358.92 468.73 358.4C468.98 358.15 470.18 358 471.85 358C475.92 358 475.67 358.74 475.67 346.71C475.67 337.88 475.6 336.62 475.14 336.45C474.85 336.33 473.41 336.84 471.92 337.59C470.43 338.33 469.01 338.86 468.77 338.76C468.53 338.67 468.33 338.1 468.33 337.48C468.33 336.21 468.76 335.83 473.25 333.04C475.68 331.53 476.2 331.33 477.83 331.33L479.67 331.33L479.67 344.1C479.67 353.8 479.77 357.01 480.08 357.43C480.4 357.84 481.15 358 483.13 358.07C486.22 358.18 486.87 358.68 485.99 360.25L485.47 361.17L477.31 361.26C471.24 361.32 469.04 361.24 468.74 360.94ZM495.45 360.34C493.14 359.01 491.79 357.29 490.91 354.5C490.26 352.46 490.17 351.45 490.17 346.5C490.18 341.55 490.28 340.54 490.93 338.53C491.85 335.71 492.68 334.32 494.09 333.26C495.97 331.85 497.79 331.33 500.85 331.33C503.19 331.33 503.97 331.47 505.28 332.14C508.57 333.81 510.03 336.15 510.83 341.07C511.47 345.04 511.46 347.35 510.79 350.94C510.13 354.47 509.28 356.37 507.51 358.3C505.55 360.44 503.31 361.33 499.91 361.33C497.49 361.33 496.97 361.21 495.45 360.34ZM516.73 359.93C516.51 359.71 516.33 359.14 516.33 358.67C516.33 357.32 516.92 357 519.38 357C520.62 357 521.71 356.87 521.8 356.72C521.9 356.56 521.52 356 520.95 355.47C517.49 352.19 516.04 347.02 517 341.35C517.71 337.11 519.26 334.41 521.98 332.65C524.65 330.92 526.73 330.36 530.5 330.34C534.07 330.33 536.06 330.86 538.62 332.47C545.02 336.51 545.77 348.91 539.98 354.85C538.13 356.74 538.24 357 540.93 357C543.41 357 544 357.32 544 358.67C544 360.21 543.56 360.33 538.26 360.33L533.32 360.33L532.97 359.42C532.35 357.79 532.86 356.72 535.45 354.21C538.84 350.93 539.44 349.31 539.27 344C539.16 340.8 539.01 339.92 538.37 338.67C536.88 335.78 535.54 334.76 532.25 334C529.31 333.32 525.86 334.23 523.88 336.21C522.03 338.07 521.59 339.45 521.42 344.09C521.2 349.88 521.73 351.35 525.2 354.64C526.56 355.92 527.68 357.23 527.71 357.56C527.77 358.61 527.62 359.15 527.08 359.75C526.63 360.25 525.92 360.33 521.85 360.33C518.63 360.33 517.01 360.21 516.73 359.93ZM233.93 357.93C234.23 357.63 234.33 353.62 234.33 341.91L234.33 326.3L235.75 326.4L237.17 326.5L237.26 334.28C237.31 338.55 237.47 342 237.63 341.94C237.79 341.88 239.45 339.98 241.33 337.72C243.21 335.46 244.98 333.52 245.26 333.42C245.59 333.29 246.11 333.65 246.72 334.41L247.68 335.6L254.85 331.22C258.8 328.81 265.36 324.79 269.43 322.28C273.5 319.78 279.71 315.99 283.22 313.86C286.73 311.72 289.99 309.67 290.47 309.3L291.33 308.62L291.33 286.65L291.33 264.68L290 263.79C288.36 262.71 287.84 261.11 288.12 258C288.29 256.15 288.45 255.72 289.24 255.09C291.55 253.25 291.33 255.6 291.33 232.05C291.33 212.2 291.29 210.74 290.75 210.26C290.08 209.66 287.23 208.33 286.63 208.33C286.41 208.33 285.46 208.11 284.53 207.83C283.6 207.56 281.86 207.05 280.67 206.71C278.82 206.18 278.49 205.96 278.4 205.26C278.34 204.81 278.53 204.25 278.82 204.01C279.1 203.78 279.33 203.42 279.32 203.21C279.31 203 276.75 201.18 273.61 199.17C270.48 197.15 267.45 195.12 266.88 194.65C266.3 194.18 265.01 193.26 264 192.61C260.95 190.63 246.44 181.09 241.98 178.12C239.67 176.59 237.68 175.33 237.56 175.33C237.43 175.33 237.33 179.89 237.33 185.46C237.33 196.51 237.34 196.49 235.44 196.27L234.5 196.17L234.33 178.83L234.17 161.5L201.75 161.42L169.33 161.33L169.33 207.8C169.33 233.37 169.42 254.52 169.54 254.81C169.65 255.1 169.93 255.33 170.17 255.33C170.4 255.33 171.06 255.86 171.63 256.51C172.56 257.57 172.66 257.9 172.63 259.76C172.59 262.69 172.32 263.36 170.76 264.5L169.37 265.5L169.35 311.69C169.34 337.1 169.43 357.99 169.56 358.11C169.68 358.23 184.12 358.33 201.66 358.33C226 358.33 233.63 358.24 233.93 357.93ZM502.02 357.49C503.87 356.84 504.53 356.23 505.62 354.17C506.48 352.53 506.5 352.37 506.5 346.17C506.5 340.08 506.47 339.77 505.67 338.17C504.28 335.4 501.61 334.16 498.89 335.02C497.11 335.57 496.22 336.38 495.27 338.29C494.55 339.74 494.5 340.23 494.5 346.17L494.5 352.5L495.5 354.5C496.32 356.14 496.77 356.63 498 357.24C499.81 358.12 500.17 358.15 502.02 357.49ZM403.56 357.11C403.28 356.83 403.26 328.58 403.54 327.86C403.86 327.02 414.19 327.1 416.56 327.96C419.86 329.17 421.33 330.83 421.83 333.95C422.28 336.71 420.5 340.21 417.97 341.52C416.72 342.16 416.75 342.64 418.13 344.1C418.83 344.85 419.84 346.72 420.81 349.07C421.67 351.14 422.69 353.56 423.08 354.44C424.06 356.62 423.7 357.17 421.31 357.17L419.53 357.17L417.46 352.03C416.32 349.21 415.1 346.51 414.76 346.03C413.82 344.74 411.46 343.7 409.45 343.68C408.19 343.67 407.68 343.8 407.54 344.19C407.42 344.48 407.33 347.38 407.33 350.63C407.33 354.78 407.21 356.65 406.93 356.93C406.51 357.35 403.94 357.49 403.56 357.11ZM442.84 353.12C442.51 352.8 442.34 352.17 442.4 351.54L442.5 350.5L452.16 350.5L461.82 350.5L462.15 351.45C462.44 352.27 462.38 352.49 461.71 353.03C460.98 353.62 460.27 353.67 452.15 353.67C444.5 353.67 443.31 353.6 442.84 353.12ZM442.73 343.93C442.51 343.71 442.33 343.14 442.33 342.67C442.33 342.19 442.51 341.62 442.73 341.4C443.25 340.88 460.72 340.83 461.69 341.35C462.47 341.76 462.51 342.59 461.81 343.59C461.3 344.33 461.22 344.33 452.21 344.33C445.6 344.33 443.02 344.22 442.73 343.93ZM414.18 339.71C416.27 338.76 417.33 337.28 417.33 335.33C417.33 333.15 416.27 331.89 413.85 331.19C411.42 330.48 407.81 330.48 407.54 331.19C407.15 332.21 407.31 339.51 407.73 339.93C408.37 340.57 412.6 340.42 414.18 339.71ZM43.56 275.11C43.43 274.99 43.33 272.73 43.33 270.09L43.33 265.3L44.75 265.4L46.17 265.5L46.26 269.95C46.32 272.95 46.23 274.56 45.97 274.87C45.57 275.35 43.95 275.51 43.56 275.11ZM48.56 275.11C48.43 274.99 48.33 272.74 48.33 270.11L48.33 265.33L49.43 265.33C50.04 265.33 50.7 265.5 50.9 265.7C51.16 265.96 51.46 265.96 51.98 265.68C52.37 265.47 53.39 265.34 54.25 265.4C55.6 265.49 55.91 265.65 56.57 266.63C57.24 267.63 57.33 268.18 57.33 271.18C57.33 274.86 57.07 275.48 55.6 275.28C54.87 275.17 54.83 275.01 54.67 271.76C54.54 269.1 54.37 268.23 53.91 267.76C53.37 267.22 53.24 267.22 52.41 267.68C51.53 268.17 51.5 268.3 51.4 271.33C51.35 273.05 51.14 274.66 50.95 274.9C50.57 275.35 48.94 275.5 48.56 275.11ZM32.49 269.99C32.25 269.6 31.44 267.38 27.07 255.17C26.35 253.15 25.04 249.55 24.17 247.17C23.29 244.78 22.51 242.27 22.42 241.58L22.26 240.33L24.09 240.33C26.17 240.33 26.38 240.5 27.14 242.83C27.44 243.75 27.83 244.8 28 245.17C28.31 245.8 32.07 256.63 33.88 262.08C34.35 263.5 34.85 264.67 34.99 264.67C35.55 264.67 35.99 263.52 39.14 254C40.92 248.59 42.69 243.3 43.07 242.25L43.76 240.33L45.71 240.33C47.37 240.33 47.67 240.42 47.67 240.94C47.67 241.62 46.46 245.53 45.97 246.43C45.66 247 45.02 248.77 42.54 256C41.88 257.92 41.19 259.8 41.01 260.17C40.83 260.53 40.37 261.81 39.98 263C37.8 269.69 37.33 270.33 34.63 270.33C33.57 270.33 32.61 270.18 32.49 269.99ZM75.99 264.75C77.83 263.82 78.88 261.96 79.11 259.18C79.41 255.68 79.11 254.45 77.61 252.95C76.37 251.7 76.27 251.67 73.95 251.67C71.94 251.67 71.4 251.79 70.5 252.48C68.26 254.18 67.7 259.23 69.39 262.57C70.67 265.13 73.43 266.04 75.99 264.75ZM43.68 263.85C43.46 263.59 43.33 262.95 43.39 262.44C43.49 261.58 43.62 261.5 44.83 261.5C46.05 261.5 46.18 261.58 46.27 262.44C46.41 263.58 45.84 264.33 44.83 264.33C44.42 264.33 43.9 264.12 43.68 263.85ZM199.74 57.94C199.22 57.42 199.22 55.92 199.73 55.4C199.98 55.15 201.18 55 202.85 55C206.92 55 206.67 55.74 206.67 43.71C206.67 34.88 206.6 33.62 206.14 33.45C205.85 33.33 204.41 33.84 202.92 34.59C201.43 35.33 200.01 35.86 199.77 35.76C199.53 35.67 199.33 35.1 199.33 34.48C199.33 33.21 199.76 32.83 204.25 30.04C206.68 28.53 207.2 28.33 208.83 28.33L210.67 28.33L210.67 41.1C210.67 50.8 210.77 54.01 211.08 54.43C211.4 54.84 212.15 55 214.13 55.07C217.22 55.18 217.87 55.68 216.99 57.25L216.47 58.17L208.31 58.26C202.24 58.32 200.04 58.24 199.74 57.94ZM226.45 57.34C224.14 56.01 222.79 54.29 221.91 51.5C221.26 49.46 221.17 48.45 221.17 43.5C221.18 38.55 221.28 37.54 221.93 35.53C222.85 32.71 223.68 31.32 225.09 30.26C226.97 28.85 228.79 28.33 231.85 28.33C234.19 28.33 234.97 28.47 236.28 29.14C239.57 30.81 241.03 33.15 241.83 38.07C242.47 42.04 242.46 44.35 241.79 47.94C241.13 51.47 240.28 53.37 238.51 55.3C236.55 57.44 234.31 58.33 230.91 58.33C228.49 58.33 227.97 58.21 226.45 57.34ZM265.49 57.99C265.25 57.6 264.44 55.38 260.07 43.17C259.35 41.15 258.04 37.55 257.17 35.17C256.29 32.78 255.51 30.27 255.42 29.58L255.26 28.33L257.09 28.33C259.17 28.33 259.38 28.5 260.14 30.83C260.44 31.75 260.83 32.8 261 33.17C261.31 33.8 265.07 44.63 266.88 50.08C267.35 51.5 267.85 52.67 267.99 52.67C268.55 52.67 268.99 51.52 272.14 42C273.92 36.59 275.69 31.3 276.07 30.25L276.76 28.33L278.71 28.33C280.37 28.33 280.67 28.42 280.67 28.94C280.67 29.62 279.46 33.53 278.97 34.43C278.66 35 278.02 36.77 275.54 44C274.88 45.92 274.19 47.8 274.01 48.17C273.83 48.53 273.37 49.81 272.98 51C270.8 57.69 270.33 58.33 267.63 58.33C266.57 58.33 265.61 58.18 265.49 57.99ZM170.77 54.92C170.62 54.69 170.42 52.7 170.33 50.5L170.17 46.5L166.25 46.41C162.45 46.31 162.34 46.29 162.14 45.52C162.03 45.09 161.99 44.38 162.06 43.95C162.16 43.19 162.27 43.16 165.88 43.07C168.4 43.01 169.72 42.84 169.96 42.55C170.15 42.32 170.35 40.33 170.41 38.15L170.5 34.17L171.74 34.06C174.13 33.87 174.3 34.16 174.41 38.76L174.5 42.83L178.3 43C182.55 43.19 183.1 43.48 182.48 45.23L182.15 46.17L178.24 46.26L174.33 46.35L174.33 50.1C174.33 54.5 173.99 55.33 172.17 55.33C171.55 55.33 170.92 55.15 170.77 54.92ZM233.02 54.49C234.87 53.84 235.53 53.23 236.62 51.17C237.48 49.53 237.5 49.37 237.5 43.17C237.5 37.08 237.47 36.77 236.67 35.17C235.28 32.4 232.61 31.16 229.89 32.02C228.11 32.57 227.22 33.38 226.27 35.29C225.55 36.74 225.5 37.23 225.5 43.17L225.5 49.5L226.5 51.5C227.32 53.14 227.77 53.63 229 54.24C230.81 55.12 231.17 55.15 233.02 54.49ZM291.34 46.61C292.18 45.98 292.48 45.93 293.47 46.24C294.51 46.56 294.69 46.51 295.44 45.71C296.93 44.11 297.33 42.89 297.33 39.93C297.32 36.68 296.56 34.97 294.67 33.93C292.98 33.01 290.13 33.24 288.59 34.41C285.49 36.77 285.72 44.32 288.95 46.52C289.61 46.97 290.2 47.33 290.26 47.33C290.31 47.33 290.8 47.01 291.34 46.61Z" fill="#1e2749" fill-rule="evenodd"/>
</svg>
