<?xml version="1.0" encoding="UTF-8"?>
<svg xmlns="http://www.w3.org/2000/svg" viewBox="0 0 2430 1503" width="2430" height="1503" shape-rendering="geometricPrecision">
<path d="M731 1410.86L731 1342.72L755.75 1343.3C782.89 1343.93 790.68 1345.07 799.14 1349.67C815.08 1358.35 820.27 1379.82 810.98 1398.69C807.36 1406.04 801.05 1411.97 792.81 1415.75C789.62 1417.22 787 1418.75 787 1419.16C787 1419.58 791.45 1426.16 796.89 1433.8C813.28 1456.81 826.25 1476.78 825.55 1477.92C824.82 1479.11 815.72 1479.34 809.65 1478.34C805.24 1477.61 803.4 1475.35 784.54 1447.5C778.58 1438.7 772.16 1429.59 770.28 1427.25L766.87 1423L758.43 1423L750 1423L750 1449.8C750 1469.31 749.67 1476.93 748.8 1477.8C748.06 1478.54 744.42 1479 739.3 1479L731 1479L731 1410.86ZM781.07 1405.81C786.12 1403.61 791.75 1398.39 794.26 1393.59C795.89 1390.47 796.4 1387.71 796.4 1382C796.4 1373.77 795.09 1370.27 790.34 1365.86C784.3 1360.25 781.67 1359.55 765.25 1359.17L750 1358.82L750 1383.52L750 1408.23L763.75 1407.8C773.17 1407.5 778.63 1406.87 781.07 1405.81ZM127 1399.44C107.48 1395.25 90.78 1380.75 83.15 1361.39C76.37 1344.16 76.27 1319.57 82.92 1301.91C90.1 1282.84 106.09 1267.89 123.5 1263.97C130.01 1262.51 148.44 1262.54 155.75 1264.03C176.75 1268.29 193.82 1285.92 200.16 1309.85C202.74 1319.59 203 1339.1 200.69 1349.73C198.71 1358.81 192.6 1371.89 187.09 1378.8C173.66 1395.67 148.94 1404.16 127 1399.44ZM157.57 1380.13C168.9 1374.77 176.89 1364.33 180.65 1350C183.06 1340.84 183.03 1319.67 180.6 1311.54C173.9 1289.09 158.59 1277.89 136.5 1279.29C124.87 1280.02 117.79 1283 110.85 1290.08C106.94 1294.07 104.52 1297.64 103 1301.67C95.66 1321.07 96.86 1349.61 105.64 1364.64C109.01 1370.4 117.03 1377.64 123.26 1380.54C127.85 1382.68 129.92 1382.98 140 1382.99C150.6 1383 151.98 1382.77 157.57 1380.13ZM1998.94 1370.25C1995.66 1365.09 1994.47 1361.67 1995.42 1360.14C1995.97 1359.25 2059.24 1321.13 2085.26 1306.02C2091.18 1302.58 2096.27 1299.37 2096.57 1298.88C2096.89 1298.37 1897.73 1297.92 1624.81 1297.8C1365.04 1297.7 1091.53 1297.51 1017 1297.4C942.48 1297.28 740.79 1297.15 568.81 1297.09L256.11 1297L255.81 1292.75C255.5 1288.52 255.48 1288.5 251.25 1288.19L247 1287.89L246.98 1123.19C246.97 1032.61 246.8 916.42 246.59 865C246.39 813.58 246.18 633.24 246.11 464.25C246.05 295.26 245.64 157 245.21 157C244.77 157 236.12 171.06 225.98 188.25C203.63 226.13 185.42 255.89 183.16 258.23C181.57 259.87 181.11 259.74 174.74 255.93C171.03 253.71 168 251.49 168 251C168 250.51 178.97 231.75 192.37 209.31C205.77 186.86 225.16 154.32 235.46 137C245.75 119.67 254.4 105.28 254.67 105C255.64 104.03 259.34 109.72 276.44 138.46C297.46 173.81 337.62 240.98 340.85 246.21C342.15 248.3 342.99 250.57 342.73 251.26C342.46 251.94 339.24 254.07 335.56 256L328.89 259.5L326.67 256.77C324.87 254.54 304.32 220.54 271.1 164.79C268.57 160.54 266.16 157.05 265.75 157.04C265.34 157.02 265 406.41 265 711.25L265 1265.5L513.25 1017.25C649.79 880.71 761.92 769 762.44 769C762.95 769 764.4 769.97 765.66 771.15C768.12 773.46 768.6 773.04 769.2 768L769.5 765.5L1579 765.5L2388.5 765.5L2388.8 773.48C2389.04 780.13 2388.8 781.67 2387.36 782.73C2385.95 783.75 2230.2 784 1582.06 784L778.5 784L775.71 787.49C773.62 790.11 771.88 791.16 768.76 791.65C764.94 792.27 761.93 794.95 731.55 824.85C659.82 895.46 279 1276.57 279 1277.75C279 1278.75 327.25 1279 519.4 1279L759.8 1279L761.85 1275.53C765.4 1269.51 772.64 1269.61 776.49 1275.73L778.5 1278.92L1437.69 1278.96C1800.25 1278.98 2097.12 1278.62 2097.4 1278.16C2097.69 1277.7 2083.65 1268.85 2066.21 1258.5C2003.22 1221.13 1995 1215.94 1995.01 1213.63C1995.02 1210.26 2000.77 1201 2002.85 1201C2004.79 1201 2019.26 1209.4 2083.5 1247.79C2141.13 1282.23 2149 1287.07 2149 1288.05C2149 1288.83 2137.89 1295.6 2076.5 1332.2C2035.83 1356.45 2003.95 1375 2002.96 1375C2002.41 1375 2000.6 1372.86 1998.94 1370.25ZM2226.67 1342.33C2226.3 1341.97 2226 1318.95 2226 1291.19L2226 1240.71L2232.69 1241.34C2236.38 1241.68 2240.01 1242.59 2240.78 1243.35C2241.54 1244.11 2242.42 1247.5 2242.72 1250.87C2243.03 1254.24 2243.63 1257 2244.06 1257C2244.49 1257 2245.74 1255.54 2246.85 1253.75C2249.88 1248.87 2254.96 1244.36 2260 1242.08C2265.05 1239.8 2276.7 1239.23 2280.19 1241.1C2282.07 1242.11 2282.19 1242.79 2281.58 1248.81C2281.21 1252.44 2280.42 1256 2279.83 1256.71C2279.11 1257.57 2276.03 1258.01 2270.63 1258.02C2257.8 1258.06 2252.26 1261.58 2247.07 1273.03C2245.18 1277.21 2245.04 1279.52 2245.02 1308.32C2245.01 1327.6 2244.61 1339.86 2243.96 1341.07C2243.08 1342.72 2241.82 1343 2235.13 1343C2230.84 1343 2227.03 1342.7 2226.67 1342.33ZM765.23 1251.33C763.48 1250.63 761 1245.6 761 1242.77C761 1238.43 763.67 1236 768.45 1236C774.36 1236 777.4 1238.55 777.4 1243.5C777.4 1249.52 770.98 1253.65 765.23 1251.33ZM764.03 1214.18C760.19 1210.35 759.98 1205.93 763.45 1202.45C766.9 1199.01 771.35 1199.19 775.08 1202.92C778.72 1206.57 778.77 1209.14 775.25 1212.95C771.06 1217.49 767.7 1217.85 764.03 1214.18ZM765.23 1180.33C763.43 1179.61 761 1174.57 761 1171.55C761 1167.87 764.31 1165 768.57 1165C773.36 1165 775.58 1166.35 776.87 1170.07C779.22 1176.8 772.09 1183.09 765.23 1180.33ZM765.36 1144.85C760.62 1142.51 759.66 1135.25 763.57 1131.34C765.72 1129.19 766.76 1128.86 769.82 1129.35C774.66 1130.12 778.39 1134.27 777.51 1137.89C776.18 1143.39 769.79 1147.04 765.36 1144.85ZM763.07 1107.37C758.57 1101.64 761.63 1094 768.42 1094C773.22 1094 774.86 1094.82 776.54 1098.07C778.64 1102.14 778.37 1103.78 775.08 1107.08C771.16 1111 766.03 1111.12 763.07 1107.37ZM764.91 1073.72C762.71 1072.02 761 1068.57 761 1065.79C761 1057.43 773.1 1055.56 776.83 1063.33C780.13 1070.23 770.87 1078.29 764.91 1073.72ZM766.27 1038.9C760.94 1036.93 759.39 1029.52 763.45 1025.45C767.5 1021.41 774.03 1022.21 776.54 1027.07C778.55 1030.97 778.39 1032.39 775.51 1035.8C772.82 1039 769.52 1040.11 766.27 1038.9ZM763.45 1001.55C758.23 996.32 761.37 988 768.57 988C773.25 988 775.46 989.28 776.94 992.86C777.95 995.29 777.88 996.33 776.57 998.87C773.67 1004.48 767.62 1005.72 763.45 1001.55ZM763.92 966.08C761.84 964 761 962.18 761 959.77C761 955.05 762.88 952.96 767.74 952.31C771.42 951.81 772.26 952.1 774.95 954.8C778.89 958.73 778.8 961.4 774.6 965.6C770.43 969.77 767.73 969.89 763.92 966.08ZM765.23 932.33C763.43 931.61 761 926.57 761 923.55C761 919.74 764.3 917 768.89 917C774.33 917 777.4 919.7 777.4 924.5C777.4 930.52 770.98 934.65 765.23 932.33ZM763.92 895.08C758.67 889.83 760.88 882.52 768.08 881.37C770.94 880.91 772.22 881.28 774.49 883.24C778.53 886.72 778.4 891.36 774.15 895.16C770.11 898.77 767.59 898.75 763.92 895.08ZM763.07 859.37C758.4 853.42 761.63 846 768.89 846C774.26 846 777.4 848.71 777.4 853.34C777.4 861.2 767.72 865.27 763.07 859.37ZM765.36 825.83C760.62 823.54 759.66 816.25 763.57 812.34C765.72 810.19 766.76 809.86 769.82 810.35C773.91 811 778 814.9 778 818.16C778 820.74 771.81 827.02 769.35 826.93C768.33 826.9 766.54 826.4 765.36 825.83ZM58.67 175.33C58.3 174.97 58 144.3 58 107.18L58 39.7L85.25 40.31C114.55 40.96 121.88 41.98 129.6 46.51C134.84 49.57 139.62 55.01 142.27 60.9C145.35 67.76 145.28 80.7 142.12 87.73C139.52 93.52 133.37 99.75 127.1 102.95C124.84 104.1 123 105.39 123 105.81C123 106.24 124.91 107.1 127.25 107.74C136.88 110.35 145.43 118.68 148.01 127.97C150.71 137.71 147.76 151.92 141.23 160.5C137.17 165.84 128.97 171.39 122.61 173.1C120.47 173.68 114.85 174.56 110.11 175.06C100.15 176.11 59.66 176.32 58.67 175.33ZM101.58 160.07C115.53 159.17 118.62 158.21 123.14 153.34C127.22 148.94 129.22 144.14 129.73 137.55C130.13 132.3 129.81 130.78 127.32 126.04C125.04 121.72 123.43 120.07 119.57 118.08C114.97 115.72 113.59 115.55 95.84 115.16L77 114.76L77 137.21C77 149.56 77.3 159.97 77.67 160.33C78.53 161.19 85.32 161.12 101.58 160.07ZM108.67 98.87C115.07 97.66 122.26 91.76 124.09 86.23C125.97 80.56 125.62 72.17 123.29 66.91C119.43 58.2 114.02 56.4 89.75 55.75L77 55.41L77 77.54C77 89.71 77.29 99.95 77.64 100.31C78.51 101.18 102.28 100.08 108.67 98.87Z" fill="#1e2749" fill-rule="evenodd"/>
</svg>
