<?xml version="1.0" encoding="UTF-8"?>
<svg xmlns="http://www.w3.org/2000/svg" viewBox="0 0 349 246" width="349" height="246" shape-rendering="geometricPrecision">
<path d="M131.2 213.14C131.09 212.85 131 211.22 131 209.51C131 206.99 130.9 206.37 130.47 206.2C130.18 206.09 118.75 206 105.06 205.99C91.37 205.99 79.97 205.87 79.73 205.71C79.38 205.49 79.3 201.47 79.32 184.93C79.35 164.61 79.26 162.67 78.24 162.67C77.33 162.67 75.03 160.6 74.33 159.16L73.61 157.67L66.33 157.67C60.05 157.67 58.97 157.59 58.51 157.13C58.21 156.83 58.01 156.26 58.07 155.88C58.16 155.18 58.33 155.16 65.83 155L73.49 154.83L74.22 153.3C75.01 151.63 76.71 150 77.65 150C78.84 150 79.16 149.05 79.22 145.44C79.27 141.72 79.54 141 80.89 141C82.58 141 86.03 138.53 85.52 137.69C85.36 137.45 81.07 137.33 71.84 137.33C58.69 137.33 58.37 137.32 58.17 136.67C58.05 136.3 58.05 135.85 58.16 135.67C58.3 135.45 63.07 135.33 71.62 135.33C86.83 135.33 86.99 135.31 84.71 133.24C83.96 132.57 82.97 131.94 82.51 131.84C82.05 131.75 81.29 131.59 80.82 131.49C80.31 131.39 79.85 130.97 79.65 130.46C79.26 129.43 79.19 19 79.58 18.64C80.27 17.99 246.76 17.72 247.53 18.36C247.92 18.68 248 21.13 248 32.66C248 46.09 247.98 46.58 247.34 47.16C246.75 47.7 246.09 47.74 240.59 47.63L234.5 47.5L234.41 59C234.36 65.32 234.4 70.84 234.5 71.25C234.68 71.99 234.73 72 240.69 72C244.2 72 246.98 72.14 247.36 72.35C247.97 72.68 248 73.16 248 83.61C248 91.66 248.11 94.64 248.4 94.93C248.7 95.24 253.85 95.33 269.53 95.33C291.47 95.33 291.32 95.32 290.23 96.8C289.88 97.28 287.63 97.34 269 97.42L248.17 97.5L248.08 107.97C248.02 114.93 247.87 118.59 247.63 118.88C247.35 119.22 245.49 119.34 239.88 119.41L232.5 119.5L232.41 131.1C232.35 138.93 232.44 142.91 232.68 143.37C233.03 144.01 233.33 144.04 240.01 143.97C245.23 143.92 247.11 144.01 247.49 144.33C247.93 144.69 248 146.79 248 160.47C248 172.26 247.9 176.3 247.6 176.6C247.3 176.9 241.37 177 222.96 177C209.63 177 198.48 177.09 198.19 177.2C197.73 177.38 197.67 178.91 197.67 190.96C197.67 202.69 197.6 204.62 197.15 205.26L196.63 206L178.1 206L159.57 206L158.13 207.33C156.97 208.4 156.43 208.67 155.41 208.67C154.18 208.67 152.76 207.97 152.23 207.1C151.78 206.36 150.32 206.65 147.58 208.05C147.26 208.21 146.28 208.58 145.41 208.88C144.54 209.17 142.56 209.9 141 210.5C132.11 213.92 131.56 214.07 131.2 213.14ZM135.44 210.63C136.39 210.25 137.77 209.7 138.5 209.42C139.23 209.14 140.28 208.72 140.83 208.49C141.38 208.26 143.18 207.59 144.83 207C147.77 205.94 148.67 205.48 148.67 205.03C148.67 204.91 147.8 204.52 146.75 204.18C145.7 203.83 144.46 203.37 144 203.14C143.54 202.92 142.57 202.51 141.83 202.22C135.52 199.78 134.23 199.33 133.5 199.33L132.67 199.33L132.67 204.81C132.67 210.26 132.79 211.33 133.39 211.33C133.57 211.33 134.49 211.02 135.44 210.63ZM156.75 206.06C158.03 204.96 157.1 203.67 155.01 203.67C154.23 203.67 153.89 203.87 153.59 204.54C153.23 205.32 153.28 205.49 154.1 206.19C155.05 207.01 155.69 206.98 156.75 206.06ZM130.14 204.01C130.98 203.69 131 203.6 131.01 200.59C131.01 198.89 131.14 197.29 131.31 197.03C131.74 196.35 132.09 196.46 144.33 201.16C145.89 201.76 148.12 202.58 149.28 202.99L151.4 203.73L152.28 202.91C153.97 201.35 157.21 201.51 158.58 203.23L159.32 204.17L176.75 204.25C190.37 204.31 194.35 204.24 195 203.91L195.83 203.48L195.92 190.82C196 179.22 195.96 178.13 195.44 177.75C195.01 177.43 191.49 177.33 180.6 177.33L166.33 177.33L166.33 157.73C166.33 142.93 166.24 138.04 165.93 137.73C165.63 137.43 156.55 137.33 127.13 137.33C106 137.33 88.48 137.42 88.19 137.54C87.9 137.65 87.67 137.94 87.67 138.18C87.67 139.41 83.65 142.67 82.14 142.67C81.17 142.67 81 143.22 81 146.31C81 149.15 81.2 149.51 83.25 150.32C86.65 151.66 88.02 156.69 85.81 159.7C84.8 161.08 82.75 162.67 81.98 162.67C81.66 162.67 81.31 162.9 81.2 163.19C81.09 163.48 81 172.7 81 183.68C81 202.33 81.04 203.66 81.58 203.97C82.36 204.43 128.95 204.46 130.14 204.01ZM245.72 174.78C246.3 174.26 246.33 173.39 246.33 160.7C246.33 153.26 246.23 146.83 246.12 146.41L245.92 145.65L239.21 145.74L232.5 145.83L232.33 150L232.17 154.17L230.75 154.27L229.33 154.37L229.33 131.35L229.33 108.33L230.83 108.33L232.33 108.33L232.33 112.6C232.33 115.47 232.46 117 232.73 117.27C233.02 117.55 234.93 117.67 239.21 117.67C245.05 117.67 245.32 117.64 245.8 116.95C246.23 116.34 246.3 113.4 246.32 95.83C246.34 82.93 246.23 75.1 246.02 74.55L245.68 73.67L240.18 73.67C233.75 73.67 234.38 73.13 234.25 78.67L234.17 82.17L232.25 82.27L230.33 82.37L230.33 59.35L230.33 36.33L232.33 36.33L234.33 36.33L234.33 40.63C234.33 43.66 234.46 45.02 234.75 45.26C234.98 45.45 237.48 45.65 240.32 45.72L245.47 45.83L245.88 45.02C246.33 44.13 246.55 22.14 246.13 20.46L245.9 19.57L163.79 19.76C118.63 19.86 81.53 20.04 81.34 20.16C81.11 20.3 81 37.84 81 74.66C81 123.57 81.05 129 81.52 129.48C81.81 129.76 82.37 130 82.77 130.01C84.12 130.02 86.53 131.85 87.31 133.44C87.7 134.27 88.26 135.03 88.54 135.14C88.82 135.24 106.17 135.33 127.08 135.33C162 135.33 165.16 135.29 165.72 134.78C166.3 134.26 166.33 133.17 166.33 113.78L166.33 93.33L172.72 93.33C178.2 93.33 179.2 93.25 179.72 92.78C180.3 92.26 180.33 91.29 180.33 75.78L180.33 59.33L198.67 59.33L217.01 59.33L218.78 58.33C220.62 57.3 221.93 57.09 223.01 57.67C224.2 58.31 224.33 57.19 224.33 46.52L224.33 36.33L225.84 36.33L227.34 36.33L227.25 59.25L227.17 82.17L225.75 82.27L224.33 82.37L224.33 73.71C224.33 68.95 224.24 64.81 224.13 64.52C223.96 64.09 223.61 64.03 222.32 64.2C221 64.37 220.49 64.28 219.54 63.69C218.89 63.29 218.28 62.68 218.17 62.33C218.04 61.94 217.54 61.61 216.9 61.5C216.31 61.39 208.33 61.35 199.17 61.4L182.5 61.5L182.42 95.46C182.35 120.28 182.43 129.55 182.71 129.88C183.01 130.25 186.56 130.33 202.6 130.33C220.29 130.33 222.17 130.28 222.72 129.78C223.29 129.27 223.33 128.48 223.33 118.78L223.33 108.33L224.84 108.33L226.34 108.33L226.25 131.25L226.17 154.17L224.75 154.27L223.33 154.37L223.33 143.75C223.33 135.94 223.23 133.03 222.93 132.73C222.63 132.43 217.4 132.33 201.43 132.33L180.33 132.33L180.33 114.21C180.33 99.18 180.25 96.02 179.87 95.7C179.56 95.44 177.7 95.35 173.96 95.41L168.5 95.5L168.42 134.96C168.35 163.85 168.43 174.55 168.71 174.88C169.02 175.26 175.49 175.33 207.1 175.33C242 175.33 245.16 175.29 245.72 174.78ZM50.84 162.02C50.73 161.83 50.24 161.67 49.77 161.67C49.29 161.67 48.21 161.25 47.36 160.75C46.51 160.25 45.1 159.46 44.21 159C41.26 157.47 39.97 155.23 40.47 152.53C40.59 151.91 41 151 41.39 150.51C42.26 149.4 45.25 148 46.73 148C47.81 148.01 50.67 149.2 51.67 150.07C54.29 152.32 53.77 156.23 50.57 158.31C49.89 158.75 49.33 159.29 49.33 159.52C49.33 160.1 50.63 160.86 52.1 161.14C52.86 161.28 53.32 161.53 53.25 161.77C53.08 162.28 51.13 162.48 50.84 162.02ZM49.36 157.31C51.61 155.71 51.6 151.87 49.35 150.09C49.06 149.87 47.84 149.68 46.61 149.68C44.6 149.67 44.31 149.75 43.7 150.53C42.32 152.29 42.39 155.22 43.86 156.97C45.16 158.51 47.47 158.66 49.36 157.31ZM41.03 138.28C40.26 137.99 40.08 137.33 40.78 137.33C41.03 137.33 41.48 137.05 41.79 136.71C42.27 136.19 42.34 135.46 42.26 131.97L42.17 127.84L41.25 127.4C40.75 127.16 40.33 126.82 40.33 126.65C40.33 126.26 39.98 126.31 43.57 126.13C46.17 125.99 46.87 126.08 48.13 126.65C50.73 127.83 51.39 129.76 49.84 131.6C48.79 132.85 47.08 133.67 45.53 133.67L44.33 133.67L44.33 135.33C44.33 136.82 44.42 137.01 45.17 137.2C46.04 137.42 46.24 137.81 45.65 138.18C45.12 138.5 41.83 138.58 41.03 138.28ZM238.75 138.43C238.03 138.17 238.29 137.39 239.25 136.93L240.17 136.49L240.17 132.67L240.17 128.85L238.75 128.57C236.57 128.14 237 127 239.34 127C241.02 127 242.08 127.64 245.41 130.72C247.5 132.65 248.85 133.67 249.17 133.54C249.54 133.4 249.67 132.8 249.67 131.19C249.67 129.11 249.62 128.99 248.67 128.5C247.48 127.88 247.39 127.41 248.42 127.16C249.37 126.93 256.49 127.18 256.94 127.47C257.13 127.58 258.29 129.32 259.52 131.34C260.75 133.35 261.88 135 262.03 135C262.19 135 262.58 134.59 262.9 134.08C263.22 133.58 263.68 133.05 263.91 132.9C264.14 132.75 264.33 132.35 264.33 132C264.33 131.66 264.47 131.29 264.65 131.18C264.82 131.07 265.43 130.17 266 129.17C266.85 127.68 267.24 127.32 268.16 127.15C269.38 126.92 270.67 127.2 270.67 127.7C270.67 127.87 270.29 128.19 269.83 128.39C269.01 128.77 269 128.83 269 132.73C269 136.62 269.01 136.69 269.83 137.06C271.96 138.03 269.39 138.84 265.67 138.38C265 138.29 265.36 137.31 266.17 137C266.97 136.69 267 136.58 267 133.67C267 131.34 266.9 130.67 266.54 130.67C265.98 130.67 264.33 132.75 264.33 133.46C264.33 133.73 264.18 134.06 263.99 134.17C263.81 134.29 263.27 135.13 262.81 136.04C262.25 137.15 261.79 137.67 261.44 137.6C260.94 137.51 259.04 134.68 257.63 131.92C257.27 131.23 256.76 130.67 256.49 130.67C256.09 130.67 256 131.24 256 133.67C256 136.56 256.03 136.7 256.83 137.06C258.37 137.76 257.7 138.41 255.3 138.56C254.25 138.62 253.6 138.49 253.34 138.17C252.86 137.59 253.17 137 253.95 137C255.08 137 255.33 136.28 255.33 133.08C255.33 131.36 255.18 129.68 255 129.34C254.59 128.57 253.1 128.22 251.48 128.53L250.24 128.76L250.46 133C250.78 139.07 250.68 139.1 245.97 134.2C243.93 132.07 242.05 130.33 241.8 130.33C241.43 130.33 241.33 131.05 241.33 133.66C241.33 136.93 241.35 136.99 242.17 137.2C243.04 137.41 243.24 137.81 242.66 138.17C242.23 138.44 239.3 138.64 238.75 138.43ZM276.5 138.2C275.95 137.96 275.1 137.6 274.62 137.4C272.34 136.48 271.03 132.88 272.17 130.64C272.83 129.34 274.25 128.03 275.02 128.01C275.3 128.01 275.69 127.85 275.88 127.66C276.06 127.47 276.96 127.23 277.86 127.13C279.18 126.98 279.86 127.11 281.33 127.79C284.33 129.18 285.33 130.43 285.33 132.76C285.33 134.7 283.64 136.73 281.08 137.86C279.01 138.77 277.95 138.85 276.5 138.2ZM291.02 138.38C289.6 137.97 289.86 137.39 291.56 137.17C293.59 136.91 294.14 136.61 294.27 135.71C294.36 135.1 293.95 134.79 291.44 133.65C288.29 132.2 287.35 131.36 287.34 129.93C287.33 128.19 290.48 126.56 292.44 127.31C293.72 127.8 293.29 128.27 291.34 128.53C288.6 128.89 288.79 130.42 291.74 131.64C295.76 133.3 297.26 134.65 296.47 135.9C295.36 137.66 292.73 138.86 291.02 138.38ZM287.33 136.33C287.33 135.6 287.45 135 287.58 135.01C287.72 135.01 288.27 135.46 288.8 136L289.76 136.98L288.86 137.32C287.47 137.85 287.33 137.76 287.33 136.33ZM281.79 135.67C283.55 133.73 283.46 131.5 281.57 129.42C280.98 128.77 280.55 128.67 278.47 128.67C276.19 128.67 276.01 128.72 275.2 129.69C274.5 130.52 274.33 131.07 274.33 132.55C274.33 135.77 275.47 136.97 278.54 136.99C280.51 137 280.63 136.95 281.79 135.67ZM47.56 131.28C48.46 130.43 48.55 129.45 47.81 128.41C47.41 127.83 46.97 127.67 45.81 127.67L44.33 127.67L44.33 129.61C44.33 130.68 44.43 131.66 44.56 131.78C45.04 132.26 46.83 131.97 47.56 131.28ZM294.2 129.36C293.51 128.61 293.74 128 294.7 128C295.55 128 295.89 128.92 295.27 129.54C294.85 129.96 294.71 129.94 294.2 129.36ZM298.74 103.41C298.03 103.18 298.3 102.38 299.25 101.93C299.98 101.58 300.19 101.23 300.27 100.2C300.36 99.15 300.14 98.56 299.11 97.04C297.25 94.32 295.77 92.76 294.8 92.52C294.24 92.38 293.99 92.12 294.07 91.74C294.16 91.26 294.59 91.16 296.58 91.14C299.32 91.11 300.16 91.43 299.25 92.13C298.93 92.37 298.67 92.75 298.67 92.97C298.67 93.61 301.4 97.03 301.8 96.9C302 96.83 302.83 95.93 303.63 94.9L305.09 93.02L304.3 92.35C303.27 91.49 303.81 91.07 305.98 91.05C307.95 91.04 308.63 91.4 308.02 92.14C307.78 92.43 307.3 92.67 306.95 92.67C306.24 92.67 303.33 95.48 303.33 96.16C303.33 96.39 303.11 96.77 302.83 97C302.48 97.29 302.33 98.07 302.33 99.68C302.33 101.93 302.34 101.95 303.33 102.17C304.36 102.39 304.61 102.79 303.96 103.19C303.55 103.44 299.37 103.62 298.74 103.41ZM239.18 64.25C238.45 63.85 238.54 63.5 239.5 63.06C240.32 62.69 240.33 62.62 240.33 58.73C240.33 54.83 240.32 54.77 239.5 54.39C239.04 54.19 238.67 53.86 238.67 53.67C238.67 53.24 238.33 53.3 242.08 53.13C244.91 53 245.5 53.07 246.72 53.7C249.33 55.03 249.94 56.54 248.62 58.4C247.72 59.67 245.6 60.65 243.75 60.66C242.36 60.67 242.33 60.69 242.33 61.83C242.33 62.79 242.48 63.02 243.17 63.2C244.04 63.42 244.24 63.81 243.65 64.18C243.1 64.52 239.75 64.57 239.18 64.25ZM250.51 64.22C249.82 63.71 250.08 63 250.95 63C252.09 63 252.33 62.29 252.33 59.02C252.32 55.6 252.19 55.15 250.96 54.54C249.55 53.84 249.96 53.16 251.77 53.22C252.65 53.25 253.57 53.35 253.81 53.45C254.05 53.54 255.26 55.27 256.5 57.31C257.74 59.34 258.88 61 259.03 61C259.19 61 259.58 60.59 259.9 60.08C260.22 59.58 260.68 59.05 260.91 58.9C261.14 58.75 261.33 58.35 261.33 58C261.33 57.66 261.47 57.29 261.65 57.18C261.82 57.07 262.42 56.18 262.98 55.2C263.84 53.7 264.2 53.37 265.18 53.19C267.33 52.78 268.49 53.64 266.83 54.39C266.01 54.77 266 54.83 266 58.73C266 62.62 266.01 62.69 266.83 63.06C267.74 63.47 267.88 63.83 267.29 64.19C266.86 64.46 263.38 64.62 262.75 64.4C262.04 64.16 262.29 63.33 263.17 63C263.97 62.69 264 62.58 264 59.67C264 57.34 263.9 56.67 263.54 56.67C262.98 56.67 261.33 58.75 261.33 59.46C261.33 59.73 261.18 60.06 260.99 60.17C260.81 60.29 260.27 61.13 259.81 62.04C259.25 63.15 258.79 63.67 258.44 63.6C257.94 63.51 256.04 60.68 254.63 57.92C254.27 57.23 253.76 56.67 253.49 56.67C253.09 56.67 253 57.24 253 59.67C253 62.56 253.03 62.7 253.83 63.06C254.83 63.52 254.89 63.86 254.02 64.32C253.12 64.81 251.24 64.75 250.51 64.22ZM273.03 63.91C269.58 62.46 268.15 59.31 269.62 56.42C270.18 55.33 270.74 54.86 272.52 53.99C274.37 53.09 274.98 52.95 276.28 53.11C278.25 53.35 280.22 54.31 281.5 55.66C282.38 56.58 282.5 56.95 282.5 58.67C282.5 60.46 282.4 60.74 281.33 61.84C278.88 64.4 275.92 65.13 273.03 63.91ZM288.08 64.32C286.6 63.72 287.57 63.01 289.9 63C290.99 63 292.18 61.89 291.78 61.25C291.67 61.07 290.29 60.34 288.71 59.62C285.61 58.2 284.69 57.35 284.67 55.92C284.67 55.23 285 54.76 286.05 54C287.52 52.94 288.4 52.79 289.87 53.35C291.06 53.8 290.59 54.22 288.5 54.57C287.02 54.82 286.83 54.94 286.83 55.67C286.83 56.52 287.19 56.75 291.66 58.82C292.57 59.24 293.26 59.86 293.58 60.53C294.03 61.46 294.02 61.66 293.54 62.39C292.94 63.3 290.45 64.68 289.46 64.65C289.12 64.63 288.5 64.49 288.08 64.32ZM284.67 62.32L284.67 60.97L285.87 61.88C286.98 62.73 287.02 62.83 286.47 63.23C286.14 63.47 285.6 63.67 285.27 63.67C284.79 63.67 284.67 63.4 284.67 62.32ZM279.13 61.67C280.88 59.73 280.8 57.5 278.9 55.42C278.31 54.77 277.88 54.67 275.8 54.67C273.52 54.67 273.35 54.72 272.53 55.69C271.83 56.52 271.67 57.07 271.67 58.55C271.67 61.77 272.8 62.97 275.88 62.99C277.85 63 277.97 62.95 279.13 61.67ZM223.56 61.14C223.82 60.44 222.72 59.33 221.76 59.33C219.65 59.33 218.86 61.22 220.58 62.12C221.37 62.54 221.61 62.54 222.43 62.12C222.95 61.85 223.45 61.41 223.56 61.14ZM246.23 58.28C247.94 56.67 246.68 54.7 243.92 54.68L242.33 54.67L242.33 56.61C242.33 57.68 242.43 58.66 242.56 58.78C243.09 59.31 245.48 58.98 246.23 58.28ZM291.75 55.57C290.8 55.14 290.79 54.47 291.72 54.22C292.64 53.98 293 54.2 293 55C293 55.83 292.66 55.99 291.75 55.57Z" fill="#1e2749" fill-rule="evenodd"/>
</svg>
