<?xml version="1.0" encoding="UTF-8"?>
<svg xmlns="http://www.w3.org/2000/svg" viewBox="0 0 743 303.955" width="743" height="303.955" shape-rendering="geometricPrecision">
<path d="M574.39 229.78C573.34 229.23 572.88 227.91 573.33 226.74C573.49 226.3 578.98 220.49 585.52 213.83C592.06 207.16 597.45 201.52 597.51 201.28C597.59 200.95 596.71 200.87 593.66 200.93C588.59 201.02 588.32 200.88 588.32 198.23C588.32 197.13 588.36 196.19 588.41 196.15C588.45 196.12 591.76 196 595.75 195.9L603.01 195.71L623.33 155.19C637.03 127.84 643.51 114.58 643.25 114.41C643.04 114.27 599.72 114.16 546.99 114.16L451.11 114.15L449.67 115.48C447.93 117.08 446.03 117.66 443.25 117.44C440.95 117.26 439.31 116.53 437.99 115.11L437.09 114.15L341.64 114.15C250.97 114.15 246.2 114.18 246.22 114.74C246.23 115.07 255.23 133.27 266.23 155.19L286.22 195.04L292.95 195.13C297.22 195.19 299.85 195.36 300.13 195.59C301.26 196.53 300 198.87 298.59 198.43C298.07 198.26 297.79 198.44 297.39 199.22C297.1 199.77 296.6 200.31 296.26 200.42C295.92 200.52 295.48 201.18 295.28 201.88C295.08 202.57 294.45 204.36 293.9 205.84C293.34 207.33 292.54 209.53 292.12 210.74C291.7 211.95 290.9 214.15 290.35 215.64C289.79 217.12 289.13 218.91 288.88 219.61C288.63 220.3 288.2 221.44 287.94 222.14C287.67 222.84 287.37 223.79 287.27 224.25C287.17 224.72 286.77 225.6 286.39 226.21C285.77 227.23 285.58 227.32 284.28 227.23L282.85 227.12L282.87 225.77C282.89 225.03 283.14 223.89 283.45 223.24C283.75 222.59 284.32 221.07 284.71 219.86C285.11 218.65 285.56 217.36 285.73 216.99C285.9 216.62 286.35 215.33 286.74 214.12C287.13 212.91 287.59 211.62 287.77 211.25C288.15 210.41 289.54 206.67 290.68 203.36C291.4 201.3 291.46 200.82 291.08 200.58C290.35 200.11 287.84 200.22 286.51 200.78C285.84 201.06 284.49 201.29 283.5 201.29C281.7 201.29 281.69 201.29 281.06 202.73C280.7 203.53 280.15 205.01 279.83 206.02C279.51 207.04 279.11 208.18 278.94 208.55C278.76 208.92 278.19 210.44 277.66 211.92C277.14 213.41 276.01 216.53 275.17 218.85C274.32 221.17 273.52 223.45 273.38 223.91C273.25 224.38 272.85 225.33 272.5 226.02C271.9 227.21 271.75 227.29 270.33 227.29C269.26 227.29 268.75 227.13 268.61 226.76C268.39 226.21 268.97 224.03 269.71 222.56C269.95 222.1 270.48 220.73 270.89 219.52C271.91 216.51 273.54 211.99 276.41 204.2C276.88 202.93 277.18 201.75 277.08 201.58C276.98 201.42 274.86 201.29 272.36 201.29L267.83 201.29L267.2 202.55C266.85 203.25 266.23 204.81 265.83 206.01C265.43 207.22 264.96 208.51 264.78 208.88C264.61 209.26 264.1 210.62 263.65 211.92C263.2 213.22 262.4 215.43 261.89 216.82C261.38 218.21 260.46 220.76 259.86 222.49C258.31 226.92 257.98 227.35 256.23 227.22C255.16 227.15 254.79 226.97 254.7 226.47C254.57 225.79 255.18 223.64 255.9 222.22C256.14 221.76 256.33 221.23 256.33 221.06C256.33 220.78 257.53 217.41 259.7 211.59C262.64 203.67 263.13 202.21 262.96 201.78C262.72 201.14 258.27 201.07 257.77 201.71C257.59 201.94 257.09 203.12 256.67 204.33C255.6 207.36 253.91 212.05 252.64 215.47C252.06 217.05 251.2 219.45 250.74 220.82C249.54 224.37 249.07 225.15 248.01 225.36C246.77 225.59 245.53 225.08 245.53 224.34C245.54 223.72 246.32 221.29 246.84 220.28C247.01 219.96 247.42 218.78 247.76 217.67C248.1 216.55 248.48 215.48 248.62 215.29C248.75 215.1 249.25 213.81 249.72 212.42C251.37 207.53 252.47 204.49 252.74 204.06C252.89 203.82 253.14 203.19 253.29 202.65C253.5 201.91 253.45 201.63 253.07 201.48C252.42 201.23 245.25 201.23 244.32 201.48C243.82 201.62 243.41 202.28 242.9 203.76C242.51 204.91 241.86 206.68 241.47 207.7C241.07 208.72 240.66 209.86 240.57 210.24C240.47 210.61 239.93 212.13 239.37 213.61C238.81 215.1 238.12 216.92 237.85 217.67C237.58 218.41 237.14 219.52 236.88 220.13C236.62 220.74 236.41 221.46 236.41 221.74C236.41 222.7 235.03 224.95 234.27 225.24C233.85 225.4 233.08 225.45 232.55 225.35C231.66 225.18 231.61 225.09 231.76 223.77C231.85 223 232.16 221.84 232.46 221.2C232.76 220.56 233.32 219.04 233.72 217.83C234.11 216.63 234.57 215.33 234.73 214.96C234.9 214.59 235.44 213.15 235.93 211.76C236.73 209.48 237.92 206.22 239.12 203.02C239.47 202.08 239.46 201.84 239.07 201.59C238.31 201.11 230.13 201.21 229.77 201.71C229.6 201.94 229.18 202.97 228.85 203.99C228.51 205.01 228.04 206.3 227.79 206.86C227.55 207.42 227.05 208.78 226.68 209.9C226.31 211.01 225.29 213.82 224.42 216.15C223.54 218.47 222.67 220.9 222.49 221.55C221.84 223.83 220.95 225.17 219.98 225.36C218.74 225.59 217.5 225.08 217.5 224.34C217.51 223.71 218.18 221.64 218.58 221.01C218.71 220.81 219.2 219.52 219.66 218.14C220.67 215.16 222.41 210.31 223.9 206.35C225.34 202.5 225.57 201.71 225.35 201.48C225.1 201.23 217.22 201.23 216.29 201.48C215.8 201.61 215.41 202.24 214.97 203.59C214.63 204.64 214.15 205.96 213.92 206.52C213.68 207.08 213.11 208.6 212.66 209.9C212.2 211.2 211.41 213.4 210.89 214.79C210.38 216.19 209.47 218.74 208.86 220.46C208.26 222.19 207.53 223.95 207.25 224.39C206.27 225.88 203.65 225.68 203.65 224.11C203.65 223.35 203.83 222.75 204.69 220.7C205.02 219.94 206.38 216.12 207.58 212.6C208.03 211.3 208.61 209.7 208.87 209.05C210.89 204.02 211.52 201.89 211.05 201.6C210.45 201.22 202.62 201.2 202.03 201.57C201.79 201.72 201.25 202.82 200.81 204.02C200.38 205.21 199.93 206.41 199.82 206.69C199.4 207.68 196.83 214.98 196.49 216.15C196.3 216.8 196.03 217.48 195.89 217.67C195.75 217.85 195.15 219.45 194.55 221.21C193.95 222.98 193.26 224.62 193.02 224.87C192.47 225.45 190.27 225.53 189.74 225C189.3 224.56 189.36 224.34 191.64 218C192.31 216.15 193.29 213.41 193.82 211.92C194.35 210.44 195.27 207.93 195.86 206.35C197.59 201.77 197.63 201.54 197.05 200.96C196.66 200.57 195.63 200.42 192.78 200.37C190.72 200.34 188.81 200.22 188.55 200.12C188.2 199.99 188.11 199.37 188.18 197.66L188.28 195.38L192.49 195.28C195.67 195.21 196.83 195.06 197.26 194.67C197.57 194.39 198.55 192.69 199.43 190.88C200.32 189.08 201.32 187.41 201.67 187.17C202.02 186.92 202.3 186.39 202.3 185.98C202.3 185.58 210.21 169.45 219.88 150.14C229.54 130.84 237.37 114.84 237.28 114.6C237.14 114.23 221.06 114.15 144.93 114.15C55.86 114.15 52.73 114.13 51.99 113.53C50.95 112.68 50.95 110.89 51.99 110.05C52.74 109.44 58.67 109.42 244.65 109.42C393.45 109.42 436.64 109.33 436.95 109.02C437.17 108.8 437.36 108.28 437.36 107.88C437.36 107.47 437.59 106.59 437.87 105.92C438.65 104.05 440.35 103.34 444.01 103.35C448.81 103.36 450.37 104.42 451.18 108.24L451.4 109.25L549.95 109.34C629.78 109.41 648.61 109.51 649.11 109.86C649.46 110.1 659.36 129.52 671.12 153L692.51 195.71L697.95 195.88C704.05 196.07 704.5 196.23 704.5 198.2C704.49 199.37 703.73 200.19 689.21 214.71C678.16 225.75 673.72 229.99 673.17 229.99C671.95 229.99 671.06 228.83 671.06 227.25C671.06 225.87 671.18 225.74 683.28 213.58C690 206.82 695.43 201.24 695.36 201.17C695.28 201.11 690.96 201.14 685.76 201.25L676.3 201.45L662.28 215.56C649.63 228.29 648.16 229.66 647.19 229.66C645.27 229.65 644.42 227.39 645.65 225.58C645.98 225.11 651.36 219.57 657.62 213.27C663.87 206.97 668.92 201.7 668.83 201.55C668.73 201.41 665.36 201.29 661.33 201.29L654 201.29L648.43 206.86C644.54 210.75 642.63 212.43 642.1 212.43C641.62 212.43 641.34 212.64 641.34 213C641.34 213.78 639.68 215.47 638.92 215.47C638.51 215.47 638.3 215.72 638.3 216.23C638.3 217.4 626.67 229.24 625.25 229.52C623.24 229.91 622.13 227.78 623.25 225.67C624.08 224.11 631.99 216.49 633.09 216.2C633.74 216.02 634.12 215.68 634.19 215.2C634.29 214.52 640.78 207.29 644.67 203.51C645.61 202.59 646.3 201.72 646.21 201.57C646.11 201.41 642.48 201.29 638.13 201.29L630.23 201.29L627.29 204.33C625.67 206 624.15 207.36 623.9 207.36C623.65 207.36 623.44 207.54 623.44 207.75C623.44 208.28 617.73 214.06 616.97 214.31C616.63 214.41 616.35 214.73 616.35 215C616.35 215.28 615.9 215.76 615.34 216.08C614.79 216.39 614.33 216.85 614.33 217.09C614.33 217.33 613.87 217.79 613.31 218.1C612.76 218.42 612.3 218.88 612.3 219.12C612.3 219.8 603.16 228.94 601.73 229.69L600.45 230.36L599.45 229.36C598.38 228.28 598.24 227.55 598.89 226.39C599.11 225.99 604.58 220.33 611.03 213.8C617.49 207.27 622.77 201.79 622.77 201.61C622.77 201.41 619.24 201.29 613.71 201.29L604.64 201.29L590.94 215.22C583.41 222.88 576.81 229.4 576.28 229.71C575.43 230.2 575.21 230.21 574.39 229.78ZM655.94 195.86C672.79 195.85 686.65 195.74 686.73 195.6C686.81 195.47 686.15 193.92 685.26 192.16C684.37 190.4 683.08 187.82 682.39 186.43C665.94 153.32 647.94 117.53 647.74 117.53C647.6 117.53 640.23 132.08 631.36 149.87C613.95 184.81 612.6 187.52 610.39 191.78C608.22 195.97 608.13 195.84 613.06 195.99C615.33 196.06 619.02 196.06 621.25 195.99C623.48 195.92 639.09 195.86 655.94 195.86ZM280.18 194.74C280.41 194.12 242.27 117.86 241.73 117.87C241.5 117.88 233.71 133.08 224.44 151.66C215.16 170.23 207.29 185.68 206.96 185.98C206.62 186.28 206.35 186.92 206.35 187.41C206.34 188.35 204.73 191.41 203.85 192.14C203.53 192.41 203.31 193.11 203.31 193.9L203.31 195.21L241.65 195.21C273.94 195.21 280.03 195.13 280.18 194.74ZM68.34 97.63C66.63 96.59 66.19 95.68 66.21 93.22C66.22 90.64 66.72 89.84 68.95 88.83C70 88.35 71.17 88.16 73.02 88.15C75.25 88.15 75.68 88.05 75.98 87.49C77.22 85.17 74.23 83.28 70.66 84.13C69.78 84.34 68.76 84.7 68.39 84.93C67.38 85.54 66.87 85.19 66.87 83.88C66.87 82.83 67.02 82.64 68.31 82.06C69.36 81.58 70.51 81.41 72.61 81.4C75.97 81.39 77.42 81.96 78.61 83.73C79.36 84.85 79.38 85.1 79.29 91.5L79.2 98.11L78.21 98.22C77.58 98.29 77.12 98.15 76.93 97.8C76.56 97.14 75.42 97.13 74.3 97.77C73.03 98.5 69.63 98.41 68.34 97.63ZM234.88 97.88C234.79 97.63 234.75 92.04 234.8 85.44L234.89 73.46L236.13 73.35C237.98 73.2 238.23 73.91 238.01 78.73C237.91 80.91 237.91 82.78 238.01 82.88C238.11 82.98 238.83 82.68 239.61 82.22C241.26 81.25 244.61 81.07 246.14 81.87C248.89 83.3 250.28 86.98 249.73 91.4C249.43 93.81 247.79 96.51 246.03 97.5C244.13 98.58 241.46 98.55 239.5 97.43C237.69 96.4 237.5 96.39 237.36 97.35C237.28 97.93 237 98.13 236.15 98.22C235.47 98.28 234.99 98.15 234.88 97.88ZM442.54 97.76C441.1 97.12 439.52 95.12 439.08 93.36C438.87 92.56 438.71 90.94 438.71 89.77C438.71 84.12 441.14 81.39 446.14 81.39C450.25 81.39 452.58 83.22 451.08 85.27C450.64 85.88 450.59 85.87 449.56 85.14C447.93 83.98 446.53 83.67 444.88 84.12C444.1 84.34 443.25 84.84 442.99 85.24C441.76 87.11 441.71 92.25 442.91 94.08C444.08 95.86 446.64 96.14 449.03 94.74C450.71 93.75 451.54 93.81 451.54 94.91C451.54 96.14 450.87 96.95 449.29 97.63C447.5 98.4 444.15 98.46 442.54 97.76ZM643.16 97.64C640.32 95.9 639.04 91.44 640.03 86.73C640.45 84.7 641.6 82.99 643.16 82.04C644.67 81.12 648.2 81.15 649.74 82.09C651.68 83.27 651.81 82.98 651.81 77.84L651.81 73.25L653.25 73.35L654.68 73.46L654.77 85.41C654.84 94.19 654.76 97.48 654.46 97.83C653.89 98.53 652.35 98.26 652.21 97.43C651.98 96.19 651.55 96.15 649.81 97.22C647.7 98.52 644.89 98.69 643.16 97.64ZM74.2 95.25C75.67 94.35 76.39 93.15 76.27 91.8L76.16 90.68L73.41 90.68C70.09 90.68 69.23 91.2 69.23 93.24C69.23 95.6 71.87 96.67 74.2 95.25ZM245.16 94.04C246.78 92.19 247 88.05 245.59 85.64C244.32 83.46 240.9 83.4 238.88 85.51C238 86.43 237.93 86.7 237.88 89.55C237.83 92.58 237.84 92.62 238.97 93.87C241.03 96.15 243.25 96.21 245.16 94.04ZM649.33 94.72C651.3 93.57 651.81 92.46 651.81 89.36C651.81 86.91 651.77 86.79 650.64 85.69C648.49 83.6 645.56 83.43 644.09 85.29C643.27 86.34 642.9 88.9 643.2 91.49C643.64 95.29 646.12 96.6 649.33 94.72Z" fill="#1e2749" fill-rule="evenodd"/>
</svg>
