<?xml version="1.0" encoding="UTF-8"?>
<svg xmlns="http://www.w3.org/2000/svg" viewBox="0 0 2430 2430" width="2430" height="2430" shape-rendering="geometricPrecision">
<path d="M1154.86 2323.81L1152.22 2322.91L1151.63 2302.7C1150.57 2266.06 1149.98 2050.7 1149.92 1680.77C1149.89 1480.16 1149.56 1315.85 1149.18 1315.63C1148.81 1315.41 959.27 1314.95 728 1314.62C298.6 1313.99 144.43 1313.35 121.67 1312.08C109.04 1311.38 107.03 1310.75 107.03 1307.5C107.03 1303.76 108.42 1303.52 133.21 1302.84C146.57 1302.48 380.25 1301.89 652.5 1301.52C924.75 1301.15 1148.06 1300.67 1148.75 1300.45C1149.71 1300.15 1150 1293.63 1150 1272.27L1150 1244.47L843.25 1244.21C523.43 1243.94 474.08 1243.5 471.51 1240.94C469.59 1239.01 468.68 1233.9 469.94 1232C471.53 1229.58 528.84 1229.09 853.5 1228.71L1149.5 1228.36L1149.77 1204.27L1150.04 1180.19L681.27 1180.13C423.45 1180.1 189.82 1179.76 162.1 1179.38C114.94 1178.74 111.58 1178.58 109.85 1176.85C108.68 1175.68 108 1173.56 108 1171.1L108 1167.19L113.25 1166.55C116.14 1166.19 350.02 1165.66 632.99 1165.38C989.76 1165.01 1147.86 1164.53 1148.74 1163.8C1149.75 1162.96 1150.02 1090.93 1150.1 799.63C1150.23 320.31 1150.97 157.26 1153 155.98C1154.93 154.76 1160.07 154.76 1162 155.98C1164.54 157.58 1164.89 278.2 1165.04 1197.5C1165.19 2077.8 1164.67 2317.06 1162.61 2321.12C1161.18 2323.91 1158.2 2324.95 1154.86 2323.81ZM1290.37 2324C1288.24 2323.15 1288.24 2323.11 1287.39 2260.33C1286.28 2179.2 1286.53 249.45 1287.65 196L1288.5 155.5L1292.08 155.2C1294.47 155 1296.44 155.54 1298.05 156.84L1300.44 158.77L1300.77 350.14C1300.95 455.39 1301.19 681.67 1301.3 853L1301.5 1164.5L1814 1165.1C2095.88 1165.44 2328.97 1166.07 2332 1166.51C2335.03 1166.95 2337.83 1167.8 2338.23 1168.4C2339.81 1170.75 2338.97 1174.88 2336.54 1176.79C2334.16 1178.66 2330.96 1178.75 2241.29 1179.47C2190.25 1179.87 1957.78 1180.22 1724.68 1180.23L1300.86 1180.25L1301.56 1203.88C1301.95 1216.87 1302.46 1227.72 1302.71 1228C1302.96 1228.28 1322.59 1228.55 1346.33 1228.6C1411.23 1228.76 1600.36 1229.96 1643 1230.49C1663.62 1230.74 1714.47 1231.19 1756 1231.48C1797.53 1231.77 1835.23 1232.28 1839.79 1232.6C1850.32 1233.34 1851.41 1232.63 1850.45 1225.6C1850.06 1222.83 1848.44 1216.5 1846.84 1211.53C1845.23 1206.56 1843.5 1200.66 1842.99 1198.42C1842.48 1196.18 1841.78 1193.59 1841.43 1192.67C1841 1191.55 1841.3 1191 1842.35 1191C1843.22 1191 1859.35 1198.85 1878.21 1208.44C1925.72 1232.6 1936.5 1238.34 1936.5 1239.5C1936.5 1241.63 1842.74 1288.07 1841.32 1286.65C1840.96 1286.29 1842.57 1279.97 1844.89 1272.61C1847.22 1265.25 1849.38 1256.7 1849.7 1253.61L1850.28 1248L1845.89 1247.8C1843.48 1247.69 1835.42 1247.57 1828 1247.53C1820.58 1247.5 1795.6 1247.12 1772.5 1246.7C1725.65 1245.85 1661.38 1245.39 1447.88 1244.39L1302.25 1243.7L1301.52 1271.27C1301.11 1286.43 1301.08 1299.32 1301.45 1299.92C1301.94 1300.71 1434.43 1301.01 1774.81 1301.02C2194.6 1301.02 2324.46 1301.58 2332.5 1303.42C2333.6 1303.67 2335.77 1304.15 2337.32 1304.48C2339.9 1305.02 2340.08 1305.35 2339.46 1308.29C2339.08 1310.05 2338.32 1312.06 2337.76 1312.75C2336.96 1313.75 2231.99 1314 1818.92 1314L1301.09 1314L1301.05 1779.25C1301.03 2035.14 1300.71 2261.53 1300.35 2282.34C1299.77 2314.84 1299.46 2320.43 1298.09 2322C1296.07 2324.32 1293.1 2325.09 1290.37 2324ZM2131.39 2287.58C2130.53 2285.32 2131.49 2184.71 2132.4 2182.75C2133.45 2180.49 2141.18 2180.32 2143.37 2182.51C2144.2 2183.34 2145.18 2186.02 2145.55 2188.46C2146.61 2195.55 2145.65 2285.76 2144.5 2286.82C2143.95 2287.33 2140.9 2288.03 2137.72 2288.38C2133.18 2288.89 2131.83 2288.71 2131.39 2287.58ZM2201.25 2288.35C2200.01 2288.08 2198.52 2286.97 2197.94 2285.89C2194.76 2279.94 2163 2187.26 2163 2183.92C2163 2181.06 2163.11 2181 2168.31 2181C2171.23 2181 2174.35 2181.56 2175.25 2182.25C2177.36 2183.86 2180.49 2191.95 2192.99 2228C2207.37 2269.48 2206.97 2268.47 2208.53 2266.85C2209.97 2265.37 2212.51 2258.31 2226.6 2216.68C2235.98 2188.99 2238.28 2183.16 2240.39 2181.77C2241.74 2180.87 2248.24 2180.77 2250.42 2181.61C2251.29 2181.94 2252 2183.01 2252 2183.99C2252 2184.97 2246.64 2201.23 2240.09 2220.13C2220.8 2275.83 2217.84 2283.98 2216.13 2286.09C2214.45 2288.15 2206.14 2289.41 2201.25 2288.35ZM106 2194.57C106 2163.57 106.39 2142.11 106.98 2140.57C108.33 2137.01 114.04 2136.95 117.55 2140.45L120 2142.91L120 2193.48L120 2244.05L117.43 2245.02C116.02 2245.56 112.87 2246 110.43 2246L106 2246L106 2194.57ZM148.23 2193.75C148.5 2165.01 149.05 2140.71 149.46 2139.75C150.51 2137.31 157.05 2137.41 160.14 2139.91L162.5 2141.83L162.5 2192.49C162.5 2250.45 163.27 2246 153.19 2246L147.75 2246L148.23 2193.75ZM191.12 2195.25C191.18 2167.34 191.53 2143.15 191.89 2141.5C192.51 2138.67 192.82 2138.5 197.29 2138.56C199.89 2138.6 202.58 2139.18 203.26 2139.86C205.31 2141.91 205.71 2154.37 205.18 2200.33L204.69 2244.17L202.28 2245.08C200.95 2245.59 197.87 2246 195.43 2246L191 2246L191.12 2195.25ZM1217.25 1985.75C1216.7 1985.06 1215.91 1978.42 1215.48 1971C1215.05 1963.58 1214.43 1693.12 1214.1 1370L1213.5 782.5L1207.5 782.72C1200.77 782.97 1188.19 785.93 1180.21 789.14C1177.31 790.3 1174.65 790.98 1174.31 790.64C1173.49 789.82 1176.74 782.85 1200.02 735.4C1210.84 713.35 1220.21 694.99 1220.84 694.6C1222.4 693.63 1269.79 788.61 1268.43 789.97C1267.81 790.59 1264.12 789.85 1257.98 787.86C1248.94 784.93 1236.01 782.11 1231.3 782.03L1229.1 782L1229.09 1330.25C1229.08 1631.79 1228.76 1902.08 1228.38 1930.91C1227.73 1979.97 1227.57 1983.43 1225.84 1985.16C1223.74 1987.26 1218.73 1987.61 1217.25 1985.75ZM1824.67 1156.33C1824.3 1155.97 1824 1154.44 1824 1152.95C1824 1149.84 1825.84 1149.04 1833.05 1149.01C1835.55 1149.01 1838.14 1148.46 1838.8 1147.8C1840.13 1146.47 1840.49 1120.06 1839.35 1106.65C1838.61 1097.9 1838.02 1097.51 1831.5 1101.53C1829.3 1102.88 1826.7 1103.99 1825.72 1103.99C1823.18 1104 1822.52 1101.39 1824.35 1098.59C1826.48 1095.34 1840.05 1087 1843.21 1087C1848.18 1087 1848.42 1088.22 1849.5 1119.4L1850.5 1148.5L1856.21 1149.01C1859.35 1149.29 1862.43 1150.03 1863.05 1150.65C1864.83 1152.43 1863.74 1155.34 1860.99 1156.11C1857.76 1157.01 1825.54 1157.21 1824.67 1156.33ZM1785.75 1108.39C1785.44 1073.38 1785.79 1040.1 1786.56 1033.25L1787.14 1028L1791.38 1028C1798.96 1028 1799.4 1028.86 1800.11 1045.16C1800.89 1063.03 1799.95 1133.91 1798.93 1134.55C1798.51 1134.8 1795.43 1135.3 1792.09 1135.65L1786 1136.28L1785.75 1108.39ZM1388 816.25C1388.01 811.6 1390.38 807.65 1398.93 798.02C1402.61 793.89 1407.06 788.64 1408.8 786.37C1412.42 781.67 1416.98 772.39 1416.99 769.7C1417.01 766.6 1414.03 761.99 1410.7 759.96C1406.62 757.47 1402.37 757.48 1396.86 759.98C1390.64 762.8 1388 762.65 1388 759.45C1388 751.25 1407.3 746.58 1418.6 752.05C1424.16 754.74 1426.95 759.89 1426.97 767.5C1427.01 777.82 1422.92 785.27 1409.06 800.16C1404.63 804.93 1401 809.31 1401 809.91C1401 810.63 1404.68 811 1411.75 811.01C1426.53 811.03 1429.88 811.67 1430.63 814.65C1431.88 819.65 1430.44 820 1408.38 820L1388 820L1388 816.25ZM1354 786.05C1352.7 785.2 1352.5 778.24 1352.5 733.46C1352.5 683.52 1352.56 681.8 1354.44 680.42C1356.96 678.57 1362.46 678.6 1364.32 680.46C1366.4 682.55 1367.19 704.35 1366.81 749.5L1366.5 786.5L1361 786.76C1357.97 786.9 1354.83 786.58 1354 786.05ZM160.22 185.51C160.37 156.17 160.87 131.8 161.31 131.35C161.76 130.9 163.99 130.59 166.26 130.65C169.23 130.72 170.89 131.38 172.19 132.99C173.88 135.08 174 138.48 174 185.49C174 224.51 173.72 235.98 172.75 236.74C172.06 237.28 168.9 237.98 165.72 238.3L159.93 238.86L160.22 185.51ZM202.31 237.38C201.5 235.26 202.58 134.85 203.44 132.84C204.4 130.57 208.13 129.8 211.87 131.1C214.3 131.95 215.21 133.05 216.04 136.15C217.44 141.35 216.94 235.5 215.5 236.82C214.95 237.33 211.89 238 208.69 238.31C204.1 238.75 202.77 238.55 202.31 237.38ZM2213.5 238.17C2212.74 237.41 2213.05 141.16 2213.82 136C2214.46 131.76 2214.7 131.48 2217.93 131.17C2219.82 130.99 2222.93 131.14 2224.84 131.5L2228.31 132.15L2227.73 184.21C2227.4 212.84 2226.77 236.6 2226.32 237.02C2225.36 237.9 2214.23 238.9 2213.5 238.17Z" fill="#1e2749" fill-rule="evenodd"/>
</svg>
