<?xml version="1.0" encoding="UTF-8"?>
<!-- Generator: visioncortex VTracer 0.6.12 -->
<svg version="1.1" xmlns="http://www.w3.org/2000/svg" width="680" height="218">
<path d="M0 0 C224.4 0 448.8 0 680 0 C680 71.94 680 143.88 680 218 C455.6 218 231.2 218 0 218 C0 146.06 0 74.12 0 0 Z " fill="#FEFEFE" transform="translate(0,0)"/>
<path d="M0 0 C0.66 0 1.32 0 2 0 C2.67 1.29 3.34 2.58 4 3.88 C4.37 4.59 4.74 5.31 5.12 6.05 C6 8 6 8 6 10 C6.66 10 7.32 10 8 10 C8 10.99 8 11.98 8 13 C7.01 13 6.02 13 5 13 C5 34.45 5 55.9 5 78 C5.66 77.84 5.66 77.84 9 77 C9.14 76.36 9.29 75.72 9.44 75.06 C10 73 10 73 11 72 C13.89 71.9 16.76 71.87 19.65 71.89 C20.1 71.89 20.1 71.89 22.4 71.89 C25.41 71.89 28.43 71.89 31.44 71.9 C33.53 71.9 35.61 71.91 37.69 71.91 C43.19 71.91 48.68 71.92 54.18 71.93 C59.78 71.94 65.39 71.95 70.99 71.95 C81.99 71.96 93 71.98 104 72 C104 73.65 104 75.3 104 77 C99.66 78.1 95.51 78.05 91.07 77.88 C90.7 77.87 90.7 77.87 88.81 77.81 C86.43 77.73 84.06 77.65 81.69 77.56 C80.07 77.51 78.46 77.46 76.84 77.4 C72.89 77.28 68.95 77.14 65 77 C63.88 82.62 63.88 82.62 65 86 C65.02 88.44 64.98 90.85 64.88 93.29 C64.87 93.65 64.87 93.65 64.81 95.43 C64.73 97.68 64.65 99.94 64.56 102.19 C64.51 103.72 64.46 105.24 64.4 106.77 C64.28 110.51 64.14 114.26 64 118 C63.01 118 62.02 118 61 118 C61 120.64 61 123.28 61 126 C65.62 126 70.24 126 75 126 C74.99 124.67 74.99 123.34 74.98 121.98 C74.97 117.07 74.95 112.16 74.95 107.26 C74.94 105.13 74.93 103 74.92 100.87 C74.91 97.82 74.91 94.77 74.9 91.72 C74.9 90.77 74.89 89.81 74.89 88.82 C74.89 87.94 74.89 87.06 74.89 86.15 C74.88 85.37 74.88 84.59 74.88 83.79 C75 82 75 82 76 81 C78.74 80.84 81.45 80.74 84.19 80.68 C85.01 80.66 85.83 80.64 86.68 80.62 C89.3 80.56 91.93 80.5 94.56 80.44 C96.34 80.39 98.12 80.35 99.9 80.31 C104.26 80.2 108.63 80.1 113 80 C112.98 79.04 112.95 78.07 112.93 77.08 C112.91 75.81 112.89 74.55 112.88 73.25 C112.85 72 112.83 70.74 112.8 69.45 C112.98 66.27 113.31 64.63 115 62 C115.99 62 116.98 62 118 62 C118 62.66 118 63.32 118 64 C117.34 64 116.68 64 116 64 C116 64.99 116 65.98 116 67 C116.99 67 117.98 67 119 67 C119.16 66.5 119.16 66.5 120 64 C122.97 64.33 125.94 64.66 129 65 C129.66 62.69 130.32 60.38 131 58 C130.34 57.67 129.68 57.34 129 57 C130.65 57 132.3 57 134 57 C133.67 58.24 133.34 59.48 133 60.75 C131.7 66.5 131.82 72.14 132 78 C138.88 75.25 138.88 75.25 140 73 C142.32 72.59 144.66 72.26 147 72 C147 72.99 147 73.98 147 75 C147.66 75 148.32 75 149 75 C149 76.65 149 78.3 149 80 C154.61 80.33 160.22 80.66 166 81 C166.33 81.99 166.66 82.98 167 84 C168.65 84 170.3 84 172 84 C172.33 82.35 172.66 80.7 173 79 C173.82 78.84 173.82 78.84 178 78 C178.33 76.68 178.66 75.36 179 74 C180.32 74.33 181.64 74.66 183 75 C184.12 78.31 184.12 78.31 185 82 C184.34 82.99 183.68 83.98 183 85 C179.88 85.19 179.88 85.19 177 85 C177.33 83.35 177.66 81.7 178 80 C177.01 80 176.02 80 175 80 C175.12 80.6 175.12 80.6 175.75 83.62 C176.22 87.24 176.03 87.95 174.19 91.38 C172 94 172 94 170 96 C169.29 97.98 168.61 99.98 168 102 C167.67 101.01 167.34 100.02 167 99 C166.34 99 165.68 99 165 99 C165 99.66 165 100.32 165 101 C163.68 101.33 162.36 101.66 161 102 C161 102.66 161 103.32 161 104 C155.72 104 150.44 104 145 104 C145 100.37 145 96.74 145 93 C145.54 92.98 145.54 92.98 148.25 92.85 C149.64 92.78 151.04 92.7 152.44 92.62 C153.14 92.59 153.85 92.56 154.58 92.53 C156.39 92.43 158.2 92.22 160 92 C160.33 91.34 160.66 90.68 161 90 C158.69 89.67 156.38 89.34 154 89 C154 88.34 154 87.68 154 87 C149.71 87 145.42 87 141 87 C141.33 87.66 141.66 88.32 142 89 C142.08 90.38 142.11 91.75 142.1 93.13 C142.1 93.86 142.09 94.58 142.09 95.33 C142.08 96.25 142.07 97.18 142.06 98.12 C142.04 101.05 142.02 103.98 142 107 C149.26 107 156.52 107 164 107 C164 108.98 164 110.96 164 113 C156.74 113 149.48 113 142 113 C142.33 119.93 142.66 126.86 143 134 C149.1 134.61 154.59 135.12 160.62 135.06 C161.83 135.05 163.04 135.04 164.29 135.04 C165.18 135.02 166.08 135.01 167 135 C168.12 139.75 168.12 139.75 167 142 C166.01 142 165.02 142 164 142 C163.67 143.32 163.34 144.64 163 146 C161.68 145.67 160.36 145.34 159 145 C159.66 145 160.32 145 161 145 C161 144.34 161 143.68 161 143 C154.4 143 147.8 143 141 143 C141 144.32 141 145.64 141 147 C144.63 146.67 148.26 146.34 152 146 C151.67 147.32 151.34 148.64 151 150 C145.67 150 140.33 150 135 150 C135 149.34 135 148.68 135 148 C135.66 147.67 136.32 147.34 137 147 C137.62 144.94 137.62 144.94 138 143 C137.34 143 136.68 143 136 143 C134.95 139.85 134.9 137.61 134.94 134.31 C134.95 133.32 134.96 132.32 134.96 131.3 C134.97 130.92 134.97 130.92 135 129 C134.34 129 133.68 129 133 129 C133 130.98 133 132.96 133 135 C132.34 135 131.68 135 131 135 C130.67 136.98 130.34 138.96 130 141 C128.68 141 127.36 141 126 141 C125.67 140.01 125.34 139.02 125 138 C124.34 138.66 123.68 139.32 123 140 C119.37 140.12 119.37 140.12 116 140 C115.34 138.02 114.68 136.04 114 134 C113.26 134.64 112.51 135.28 111.75 135.94 C109.19 137.86 107.95 138.26 105 139 C104.67 139.99 104.34 140.98 104 142 C72.65 142 41.3 142 9 142 C9 152.89 9 163.78 9 175 C9.66 175.33 10.32 175.66 11 176 C10.34 176.99 9.68 177.98 9 179 C24.68 179.17 24.68 179.17 104 180 C104 181.32 104 182.64 104 184 C73.31 184 42.62 184 11 184 C10.83 184.33 10.83 184.33 10 186 C10.66 186.33 11.32 186.66 12 187 C12 187.66 12 188.32 12 189 C11.01 189 10.02 189 9 189 C9 195.6 9 202.2 9 209 C6.03 210.65 3.06 212.3 0 214 C-1.23 210.3 -1.13 206.9 -1.12 203.05 C-1.12 202.64 -1.12 202.64 -1.12 200.56 C-1.12 197.81 -1.12 195.05 -1.11 192.3 C-1.11 190.33 -1.11 188.36 -1.11 186.39 C-1.11 181.03 -1.11 175.67 -1.1 170.31 C-1.1 164.71 -1.09 159.12 -1.09 153.52 C-1.09 142.91 -1.08 132.31 -1.07 121.71 C-1.06 109.64 -1.06 97.57 -1.05 85.5 C-1.04 60.66 -1.02 35.83 -1 11 C-2.32 11.33 -3.64 11.66 -5 12 C-3.69 7.77 -2.06 3.93 0 0 Z " fill="#DFF5FD" transform="translate(263,2)"/>
<path d="M0 0 C0.66 0 1.32 0 2 0 C2.67 1.29 3.34 2.58 4 3.88 C4.37 4.59 4.74 5.31 5.12 6.05 C6 8 6 8 6 10 C6.66 10 7.32 10 8 10 C8 10.99 8 11.98 8 13 C7.01 13 6.02 13 5 13 C5 34.45 5 55.9 5 78 C5.66 77.84 5.66 77.84 9 77 C9.14 76.36 9.29 75.72 9.44 75.06 C10 73 10 73 11 72 C13.89 71.9 16.76 71.87 19.65 71.89 C20.1 71.89 20.1 71.89 22.4 71.89 C25.41 71.89 28.43 71.89 31.44 71.9 C33.53 71.9 35.61 71.91 37.69 71.91 C43.19 71.91 48.68 71.92 54.18 71.93 C59.78 71.94 65.39 71.95 70.99 71.95 C81.99 71.96 93 71.98 104 72 C104 73.65 104 75.3 104 77 C99.66 78.1 95.51 78.05 91.07 77.88 C90.7 77.87 90.7 77.87 88.81 77.81 C86.43 77.73 84.06 77.65 81.69 77.56 C80.07 77.51 78.46 77.46 76.84 77.4 C72.89 77.28 68.95 77.14 65 77 C63.88 82.62 63.88 82.62 65 86 C65.02 88.44 64.98 90.85 64.88 93.29 C64.87 93.65 64.87 93.65 64.81 95.43 C64.73 97.68 64.65 99.94 64.56 102.19 C64.51 103.72 64.46 105.24 64.4 106.77 C64.28 110.51 64.14 114.26 64 118 C63.01 118 62.02 118 61 118 C61 120.64 61 123.28 61 126 C75.19 126 89.38 126 104 126 C104.33 127.32 104.66 128.64 105 130 C74.64 130 44.28 130 13 130 C13 128.68 13 127.36 13 126 C21.58 126 30.16 126 39 126 C38 117 38 117 35.31 113.88 C29.77 109.73 23.24 106.92 17 104 C17 103.34 17 102.68 17 102 C16.01 102 15.02 102 14 102 C12.51 97.52 12.28 93.01 13.88 88.56 C15 87 15 87 17 86 C24.1 85.07 29.62 87.02 36 90 C35.81 87.12 35.81 87.12 35 84 C32.44 82.62 32.44 82.62 30 82 C30 81.34 30 80.68 30 80 C27.44 80.09 24.88 80.19 22.31 80.31 C21.59 80.34 20.87 80.36 20.13 80.38 C15.66 80.61 12.66 81.17 9 84 C8.83 84.33 8.83 84.33 8 86 C7.34 86 6.68 86 6 86 C6 86.99 6 87.98 6 89 C5.34 89 4.68 89 4 89 C4 105.17 4 121.34 4 138 C4.66 138 5.32 138 6 138 C6 138.66 6 139.32 6 140 C7.98 140.33 9.96 140.66 12 141 C12 140.01 12 139.02 12 138 C42.69 138 73.38 138 105 138 C104.67 139.32 104.34 140.64 104 142 C72.65 142 41.3 142 9 142 C9 152.89 9 163.78 9 175 C9.66 175.33 10.32 175.66 11 176 C10.34 176.99 9.68 177.98 9 179 C24.68 179.17 24.68 179.17 104 180 C104 181.32 104 182.64 104 184 C73.31 184 42.62 184 11 184 C10.83 184.33 10.83 184.33 10 186 C10.66 186.33 11.32 186.66 12 187 C12 187.66 12 188.32 12 189 C11.01 189 10.02 189 9 189 C9 195.6 9 202.2 9 209 C6.03 210.65 3.06 212.3 0 214 C-1.23 210.3 -1.13 206.9 -1.12 203.05 C-1.12 202.64 -1.12 202.64 -1.12 200.56 C-1.12 197.81 -1.12 195.05 -1.11 192.3 C-1.11 190.33 -1.11 188.36 -1.11 186.39 C-1.11 181.03 -1.11 175.67 -1.1 170.31 C-1.1 164.71 -1.09 159.12 -1.09 153.52 C-1.09 142.91 -1.08 132.31 -1.07 121.71 C-1.06 109.64 -1.06 97.57 -1.05 85.5 C-1.04 60.66 -1.02 35.83 -1 11 C-2.32 11.33 -3.64 11.66 -5 12 C-3.69 7.77 -2.06 3.93 0 0 Z " fill="#FCFEFE" transform="translate(263,2)"/>
<path d="M0 0 C1.65 0 3.3 0 5 0 C4.67 1.24 4.34 2.48 4 3.75 C2.7 9.5 2.82 15.14 3 21 C9.88 18.25 9.88 18.25 11 16 C13.32 15.59 15.66 15.26 18 15 C18 15.99 18 16.98 18 18 C18.66 18 19.32 18 20 18 C20 19.65 20 21.3 20 23 C25.61 23.33 31.22 23.66 37 24 C37.16 24.5 37.16 24.5 38 27 C39.65 27 41.3 27 43 27 C43.33 25.35 43.66 23.7 44 22 C45.65 21.67 47.3 21.34 49 21 C49.33 19.68 49.66 18.36 50 17 C50.66 17.16 50.66 17.16 54 18 C55.12 21.31 55.12 21.31 56 25 C55.67 25.5 55.67 25.5 54 28 C50.88 28.19 50.88 28.19 48 28 C48.33 26.35 48.66 24.7 49 23 C48.01 23 47.02 23 46 23 C46.25 24.2 46.5 25.39 46.75 26.62 C47.22 30.24 47.03 30.95 45.19 34.38 C43 37 43 37 41 39 C40.29 40.98 39.61 42.98 39 45 C38.67 44.01 38.34 43.02 38 42 C37.34 42 36.68 42 36 42 C36 42.66 36 43.32 36 44 C34.68 44.33 33.36 44.66 32 45 C32 45.66 32 46.32 32 47 C26.72 47 21.44 47 16 47 C16 43.37 16 39.74 16 36 C17.07 35.95 18.14 35.9 19.25 35.85 C20.64 35.78 22.04 35.7 23.44 35.62 C24.14 35.59 24.85 35.56 25.58 35.53 C27.39 35.43 29.2 35.22 31 35 C31.17 34.67 31.17 34.67 32 33 C29.69 32.67 27.38 32.34 25 32 C25 31.34 25 30.68 25 30 C20.71 30 16.42 30 12 30 C12.17 30.33 12.17 30.33 13 32 C13.08 33.38 13.11 34.75 13.1 36.13 C13.1 36.86 13.09 37.58 13.09 38.33 C13.08 39.25 13.07 40.18 13.06 41.12 C13.04 44.05 13.02 46.98 13 50 C20.26 50 27.52 50 35 50 C35 51.98 35 53.96 35 56 C27.74 56 20.48 56 13 56 C13.33 62.93 13.66 69.86 14 77 C20.1 77.61 25.59 78.12 31.62 78.06 C32.23 78.06 32.23 78.06 35.29 78.04 C36.18 78.02 37.08 78.01 38 78 C39.12 82.75 39.12 82.75 38 85 C37.01 85 36.02 85 35 85 C34.84 85.66 34.84 85.66 34 89 C33.34 88.84 33.34 88.84 30 88 C30.66 88 31.32 88 32 88 C32 87.34 32 86.68 32 86 C25.4 86 18.8 86 12 86 C12 87.32 12 88.64 12 90 C15.63 89.67 19.26 89.34 23 89 C22.83 89.66 22.83 89.66 22 93 C16.67 93 11.33 93 6 93 C6 92.34 6 91.68 6 91 C6.66 90.67 7.32 90.34 8 90 C8.62 87.94 8.62 87.94 9 86 C8.34 86 7.68 86 7 86 C5.95 82.85 5.9 80.61 5.94 77.31 C5.95 76.32 5.96 75.32 5.96 74.3 C5.98 73.54 5.99 72.78 6 72 C5.34 72 4.68 72 4 72 C4 73.98 4 75.96 4 78 C3.34 78 2.68 78 2 78 C1.67 79.98 1.34 81.96 1 84 C-0.32 84 -1.64 84 -3 84 C-3.33 83.01 -3.66 82.02 -4 81 C-4.33 81.33 -4.33 81.33 -6 83 C-9.62 83.12 -9.62 83.12 -13 83 C-14.01 78.78 -14.35 76.7 -12.38 72.75 C-9.99 69.98 -8.35 68.43 -5 67 C-1.69 66.81 -1.69 66.81 1 67 C1.66 64.69 2.32 62.38 3 60 C2.01 59.67 1.02 59.34 0 59 C1.65 58.34 3.3 57.68 5 57 C5 50.4 5 43.8 5 37 C3.68 37 2.36 37 1 37 C0.83 35.84 0.83 35.84 0 30 C-2.31 29.31 -2.31 29.31 -5 29 C-6.75 30 -6.75 30 -8 32 C-8.69 35.69 -8.69 35.69 -9 39 C-9.54 38.28 -10.07 37.56 -10.62 36.81 C-12.47 34.62 -14.05 33.07 -16.25 31.31 C-17.16 30.55 -18.06 29.79 -19 29 C-19 28.34 -19 27.68 -19 27 C-23.29 26.34 -27.58 25.68 -32 25 C-32 24.67 -32 24.34 -32 24 C-30.08 23.83 -28.17 23.67 -26.25 23.5 C-25.18 23.41 -24.12 23.31 -23.02 23.22 C-20.68 23.05 -18.34 23 -16 23 C-16.02 22.04 -16.05 21.07 -16.07 20.08 C-16.08 19.45 -16.08 19.45 -16.12 16.25 C-16.15 15 -16.17 13.74 -16.2 12.45 C-16.02 9.27 -15.69 7.63 -14 5 C-13.01 5 -12.02 5 -11 5 C-11 5.66 -11 6.32 -11 7 C-11.66 7 -12.32 7 -13 7 C-13 7.99 -13 8.98 -13 10 C-12.01 10 -11.02 10 -10 10 C-9.67 9.01 -9.34 8.02 -9 7 C-6.03 7.33 -3.06 7.66 0 8 C0.66 5.69 1.32 3.38 2 1 C1.34 0.67 0.68 0.34 0 0 Z " fill="#FBFCFC" transform="translate(392,59)"/>
<path d="M0 0 C0.66 0 1.32 0 2 0 C2.84 1.62 3.67 3.25 4.5 4.88 C4.96 5.78 5.43 6.68 5.91 7.62 C7 10 7 10 7 12 C6.01 12 5.02 12 4 12 C4 53.58 4 95.16 4 138 C4.66 138 5.32 138 6 138 C6 138.66 6 139.32 6 140 C7.98 140.33 9.96 140.66 12 141 C12 140.01 12 139.02 12 138 C42.69 138 73.38 138 105 138 C104.67 139.32 104.34 140.64 104 142 C72.65 142 41.3 142 9 142 C9 152.89 9 163.78 9 175 C9.66 175.33 10.32 175.66 11 176 C10.34 176.99 9.68 177.98 9 179 C24.68 179.17 24.68 179.17 104 180 C104 181.32 104 182.64 104 184 C73.31 184 42.62 184 11 184 C10.83 184.33 10.83 184.33 10 186 C10.66 186.33 11.32 186.66 12 187 C12 187.66 12 188.32 12 189 C11.01 189 10.02 189 9 189 C9 195.6 9 202.2 9 209 C6.03 210.65 3.06 212.3 0 214 C-1.23 210.3 -1.13 206.9 -1.12 203.05 C-1.12 202.64 -1.12 202.64 -1.12 200.56 C-1.12 197.81 -1.12 195.05 -1.11 192.3 C-1.11 190.33 -1.11 188.36 -1.11 186.39 C-1.11 181.03 -1.11 175.67 -1.1 170.31 C-1.1 164.71 -1.09 159.12 -1.09 153.52 C-1.09 142.91 -1.08 132.31 -1.07 121.71 C-1.06 109.64 -1.06 97.57 -1.05 85.5 C-1.04 60.66 -1.02 35.83 -1 11 C-2.32 11.33 -3.64 11.66 -5 12 C-3.69 7.77 -2.06 3.93 0 0 Z " fill="#E0E2E3" transform="translate(263,2)"/>
<path d="M0 0 C2.73 3.34 3.37 5.72 3 10 C3.99 10 4.98 10 6 10 C6 8.35 6 6.7 6 5 C7.65 5.33 9.3 5.66 11 6 C10.67 7.26 10.34 8.52 10 9.81 C8.36 17.22 8.07 23.97 11 31 C11 31.99 11 32.98 11 34 C10.01 34 9.02 34 8 34 C7.84 34.33 7.84 34.33 7 36 C5.68 34.68 4.36 33.36 3 32 C2.67 34.31 2.34 36.62 2 39 C-5.77 42.66 -14.09 43.47 -22.4 40.98 C-23.26 40.66 -24.12 40.33 -25 40 C-25 40.66 -25 41.32 -25 42 C-26.15 42.16 -26.15 42.16 -32 43 C-32.33 43.99 -32.66 44.98 -33 46 C-32.5 46.16 -32.5 46.16 -30 47 C-30 46.01 -30 45.02 -30 44 C-28 45 -28 45 -26 47 C-26.33 47.99 -26.66 48.98 -27 50 C-27.6 50.03 -28.21 50.05 -28.83 50.08 C-34.09 50.45 -36.42 50.91 -40 55 C-42.75 55.75 -42.75 55.75 -45 56 C-45 54.68 -45 53.36 -45 52 C-44.68 51.91 -44.68 51.91 -43.06 51.44 C-42.38 50.96 -41.7 50.49 -41 50 C-40.59 47.68 -40.25 45.34 -40 43 C-41.24 42.96 -42.48 42.93 -43.76 42.89 C-45.4 42.82 -47.05 42.75 -48.69 42.69 C-49.5 42.66 -50.32 42.64 -51.16 42.62 C-55.83 42.41 -59.27 42.12 -63 39 C-63.79 35.07 -63.18 33.32 -61.25 29.81 C-57.78 25.47 -57.78 25.47 -55 24 C-51.75 23.81 -51.75 23.81 -49 24 C-48.67 22.84 -48.67 22.84 -47 17 C-47.66 16.67 -48.32 16.34 -49 16 C-47.35 15.67 -45.7 15.34 -44 15 C-42.88 22.62 -42.88 22.62 -44 26 C-43.34 26 -42.68 26 -42 26 C-42.33 26.66 -42.66 27.32 -43 28 C-43.66 27.67 -44.32 27.34 -45 27 C-44.62 28.94 -44.62 28.94 -44 31 C-43.34 31.33 -42.68 31.66 -42 32 C-42 32.99 -42 33.98 -42 35 C-41.34 35.33 -40.68 35.66 -40 36 C-40.66 36 -41.32 36 -42 36 C-41.67 37.32 -41.34 38.64 -41 40 C-40.01 40 -39.02 40 -38 40 C-38.33 39.01 -38.66 38.02 -39 37 C-38.5 37.16 -38.5 37.16 -36 38 C-36 38.66 -36 39.32 -36 40 C-32.7 40 -29.4 40 -26 40 C-26 39.34 -26 38.68 -26 38 C-26.66 38 -27.32 38 -28 38 C-28.51 36.75 -29.01 35.5 -29.5 34.25 C-29.78 33.55 -30.06 32.86 -30.34 32.14 C-31 30 -31 30 -31 26 C-31.66 26 -32.32 26 -33 26 C-33.4 11.56 -33.4 11.56 -31 5 C-30.01 4.67 -29.02 4.34 -28 4 C-28 3.34 -28 2.68 -28 2 C-27.34 2 -26.68 2 -26 2 C-26 1.01 -26 0.02 -26 -1 C-16.37 -4.13 -9.14 -5.02 0 0 Z " fill="#FBFDFE" transform="translate(498,102)"/>
<path d="M0 0 C3.62 2.41 5.42 5.03 7 9 C7.52 12 7.52 14.9 7.44 17.94 C7.44 18.7 7.45 19.46 7.46 20.24 C7.4 25.75 6.17 29.94 4 35 C3.34 35 2.68 35 2 35 C2 35.66 2 36.32 2 37 C0.57 38.25 0.57 38.25 -1.31 39.56 C-1.93 40 -2.54 40.43 -3.18 40.88 C-8.49 44.14 -15 43.54 -21 43 C-24.04 41.97 -26.26 40.72 -29 39 C-29 38.34 -29 37.68 -29 37 C-29.66 37 -30.32 37 -31 37 C-35.66 27.42 -36.58 18.58 -33.19 8.37 C-26.57 -4.83 -12.33 -5.94 0 0 Z " fill="#C4EDFB" transform="translate(541,101)"/>
<path d="M0 0 C3.28 1.37 6.35 2.7 8 6 C9.32 6 10.64 6 12 6 C12 5.34 12 4.68 12 4 C13.32 3.67 14.64 3.34 16 3 C16 2.34 16 1.68 16 1 C18.59 -0.29 20.55 -0.17 23.44 -0.19 C24.41 -0.2 25.37 -0.22 26.37 -0.23 C29 0 29 0 32 2 C32 2.66 32 3.32 32 4 C32.66 4 33.32 4 34 4 C34 4.66 34 5.32 34 6 C34.66 6 35.32 6 36 6 C37.53 11.43 38.24 16.1 38.2 21.78 C38.19 22.48 38.19 23.18 38.19 23.9 C38.18 26.1 38.15 28.3 38.12 30.5 C38.11 32.01 38.11 33.51 38.1 35.02 C38.08 38.68 38.04 42.34 38 46 C35.36 46 32.72 46 30 46 C29.99 45 29.97 43.99 29.96 42.96 C29.9 39.22 29.82 35.48 29.74 31.75 C29.7 30.13 29.68 28.52 29.65 26.9 C29.62 24.58 29.57 22.25 29.51 19.93 C29.51 19.21 29.5 18.49 29.49 17.75 C29.37 13.38 28.75 10.45 26 7 C23.52 6.51 23.52 6.51 20.81 6.69 C20.36 6.71 20.36 6.71 18.08 6.82 C17.39 6.88 16.71 6.94 16 7 C16 7.66 16 8.32 16 9 C15.19 9.71 14.38 10.42 13.54 11.16 C10.3 14.78 10.35 16.68 10.29 21.49 C10.28 22.19 10.26 22.89 10.25 23.62 C10.2 25.85 10.2 28.08 10.19 30.31 C10.16 31.83 10.14 33.35 10.11 34.87 C10.05 38.58 10.02 42.29 10 46 C7.69 46 5.38 46 3 46 C2.98 45.05 2.96 44.09 2.94 43.11 C2.86 39.57 2.78 36.03 2.68 32.49 C2.64 30.96 2.61 29.43 2.58 27.9 C2.53 25.7 2.47 23.49 2.41 21.29 C2.4 20.61 2.39 19.92 2.38 19.22 C2.27 15.62 2.06 14.08 0 11 C0 9.68 0 8.36 0 7 C-1.54 6.81 -3.08 6.67 -4.62 6.56 C-5.05 6.52 -5.05 6.52 -7.23 6.32 C-10.87 7.21 -12.49 8.53 -14.8 11.46 C-17.47 17.11 -16.85 23.73 -16.81 29.88 C-16.83 32.03 -16.85 34.18 -16.87 36.34 C-16.89 38.27 -16.89 40.21 -16.89 42.15 C-17 45 -17 45 -18 46 C-20.33 46.04 -22.67 46.04 -25 46 C-25.03 39.75 -25.04 33.5 -25.05 27.26 C-25.06 25.13 -25.07 23 -25.08 20.87 C-25.09 17.82 -25.09 14.77 -25.1 11.72 C-25.1 10.77 -25.11 9.81 -25.11 8.82 C-25.11 7.94 -25.11 7.06 -25.11 6.15 C-25.12 5.37 -25.12 4.59 -25.12 3.79 C-25 2 -25 2 -24 1 C-22.33 0.96 -20.67 0.96 -19 1 C-18.67 2.65 -18.34 4.3 -18 6 C-17.37 5.57 -16.74 5.13 -16.09 4.69 C-10.41 0.99 -6.8 -1.11 0 0 Z " fill="#C2EDFC" transform="translate(584,98)"/>
<path d="M0 0 C15.75 0 15.75 0 22 2 C22 2.66 22 3.32 22 4 C22.66 4 23.32 4 24 4 C28.06 7.4 29.66 12.2 30.28 17.33 C30.4 19.77 30.41 22.18 30.38 24.62 C30.39 25.44 30.4 26.26 30.41 27.11 C30.38 33.64 28.98 37.82 24.5 42.75 C18.89 47.8 14.54 48.14 7.19 48.06 C6.03 48.05 4.86 48.04 3.67 48.04 C2.79 48.02 1.91 48.01 1 48 C0.67 46.68 0.34 45.36 0 44 C3.46 43.84 3.46 43.84 21 43 C21 42.01 21 41.02 21 40 C14.07 39.67 7.14 39.34 0 39 C0 26.13 0 13.26 0 0 Z " fill="#FCFEFD" transform="translate(346,89)"/>
<path d="M0 0 C0 4.62 0 9.24 0 14 C7.26 14 14.52 14 22 14 C22 15.98 22 17.96 22 20 C14.74 20 7.48 20 0 20 C0.17 23.47 0.17 23.47 1 41 C7.1 41.61 12.59 42.12 18.62 42.06 C19.83 42.05 21.04 42.04 22.29 42.04 C23.18 42.02 24.08 42.01 25 42 C26.12 46.75 26.12 46.75 25 49 C24.01 49 23.02 49 22 49 C21.67 50.32 21.34 51.64 21 53 C19.68 52.67 18.36 52.34 17 52 C17.66 52 18.32 52 19 52 C19 51.34 19 50.68 19 50 C12.4 50 5.8 50 -1 50 C-1 51.32 -1 52.64 -1 54 C0.81 53.84 0.81 53.84 10 53 C9.67 54.32 9.34 55.64 9 57 C3.67 57 -1.67 57 -7 57 C-7 56.34 -7 55.68 -7 55 C-6.67 54.84 -6.67 54.84 -5 54 C-4.38 51.94 -4.38 51.94 -4 50 C-4.66 50 -5.32 50 -6 50 C-7.05 46.85 -7.1 44.61 -7.06 41.31 C-7.05 40.32 -7.04 39.32 -7.04 38.3 C-7.02 37.54 -7.01 36.78 -7 36 C-7.66 36 -8.32 36 -9 36 C-9 37.98 -9 39.96 -9 42 C-9.66 42 -10.32 42 -11 42 C-11.33 43.98 -11.66 45.96 -12 48 C-13.32 48 -14.64 48 -16 48 C-16.17 47.5 -16.17 47.5 -17 45 C-17.66 45.66 -18.32 46.32 -19 47 C-22.62 47.12 -22.62 47.12 -26 47 C-27.01 42.78 -27.35 40.7 -25.38 36.75 C-22.99 33.98 -21.35 32.43 -18 31 C-14.69 30.81 -14.69 30.81 -12 31 C-11.67 29.84 -11.67 29.84 -10 24 C-10.99 23.67 -11.98 23.34 -13 23 C-12.2 22.73 -11.39 22.46 -10.56 22.19 C-10.14 21.99 -10.14 21.99 -8 21 C-7.14 18.41 -6.82 16.66 -6.68 13.99 C-6.64 13.23 -6.6 12.47 -6.56 11.69 C-6.52 10.91 -6.48 10.12 -6.44 9.31 C-6.39 8.52 -6.35 7.72 -6.31 6.9 C-6.2 4.93 -6.1 2.97 -6 1 C-3.92 0.45 -2.16 0 0 0 Z " fill="#C5EDFB" transform="translate(405,95)"/>
<path d="M0 0 C1.29 0.01 2.58 0.02 3.9 0.03 C4.25 0.03 4.25 0.03 5.98 0.04 C8.17 0.05 10.36 0.08 12.55 0.1 C14.04 0.11 15.52 0.12 17.01 0.13 C20.65 0.15 24.29 0.19 27.93 0.23 C27.93 2.54 27.93 4.85 27.93 7.23 C19.35 7.23 10.77 7.23 1.93 7.23 C1.93 13.83 1.93 20.43 1.93 27.23 C9.19 27.23 16.45 27.23 23.93 27.23 C23.93 28.88 23.93 30.53 23.93 32.23 C17 32.23 10.07 32.23 2.93 32.23 C2.93 39.82 2.93 47.41 2.93 55.23 C11.51 55.23 20.09 55.23 28.93 55.23 C28.93 57.21 28.93 59.19 28.93 61.23 C27.93 62.23 27.93 62.23 24.88 62.34 C23.53 62.34 22.18 62.33 20.83 62.32 C20.48 62.32 20.48 62.32 18.68 62.32 C16.41 62.31 14.14 62.3 11.86 62.29 C10.33 62.28 8.79 62.28 7.25 62.28 C3.48 62.26 -0.3 62.25 -4.07 62.23 C-5.38 59.6 -5.21 57.65 -5.22 54.71 C-5.22 53.55 -5.23 52.4 -5.24 51.21 C-5.24 49.96 -5.24 48.7 -5.24 47.41 C-5.24 46.77 -5.24 46.77 -5.25 43.54 C-5.26 40.83 -5.26 38.12 -5.26 35.41 C-5.26 31.93 -5.27 28.45 -5.29 24.97 C-5.3 21.66 -5.3 18.35 -5.3 15.04 C-5.31 13.79 -5.32 12.54 -5.32 11.25 C-5.32 10.09 -5.32 8.94 -5.32 7.75 C-5.32 6.73 -5.32 5.71 -5.32 4.66 C-4.93 0.81 -3.76 0.28 0 0 Z " fill="#C4EDFB" transform="translate(64.07275390625,81.77294921875)"/>
<path d="M0 0 C0.66 0 1.32 0 2 0 C2.86 1.62 3.72 3.25 4.56 4.88 C5.04 5.78 5.51 6.68 6 7.62 C6.17 8.01 6.17 8.01 7 10 C6.67 10.66 6.34 11.32 6 12 C5.01 11.67 4.02 11.34 3 11 C3 77 3 143 3 211 C1.68 211 0.36 211 -1 211 C-1 145 -1 79 -1 11 C-2.32 11.33 -3.64 11.66 -5 12 C-3.69 7.77 -2.06 3.93 0 0 Z " fill="#272727" transform="translate(263,2)"/>
<path d="M0 0 C1.12 7.62 1.12 7.62 0 11 C0.66 11 1.32 11 2 11 C1.67 11.66 1.34 12.32 1 13 C0.34 12.67 -0.32 12.34 -1 12 C-0.62 13.94 -0.62 13.94 0 16 C0.66 16.33 1.32 16.66 2 17 C2 17.99 2 18.98 2 20 C2.66 20.33 3.32 20.66 4 21 C3.34 21 2.68 21 2 21 C2.33 22.32 2.66 23.64 3 25 C3.99 25 4.98 25 6 25 C5.67 24.01 5.34 23.02 5 22 C5.99 22.33 6.98 22.66 8 23 C8 23.66 8 24.32 8 25 C11.3 25 14.6 25 18 25 C18 24.34 18 23.68 18 23 C17.34 23 16.68 23 16 23 C15.47 21.76 14.95 20.5 14.44 19.25 C14.15 18.55 13.86 17.86 13.56 17.14 C12.92 14.7 13.2 13.36 14 11 C14.99 11.99 15.98 12.98 17 14 C17 13.01 17 12.02 17 11 C17.99 11 18.98 11 20 11 C23 16.75 23 16.75 23 19 C23.99 19 24.98 19 26 19 C26 19.66 26 20.32 26 21 C26.33 20.93 26.33 20.93 27.98 20.6 C28.85 20.42 29.72 20.24 30.62 20.06 C31.53 19.88 32.44 19.69 33.38 19.5 C35.43 19.11 37.49 18.79 39.56 18.5 C39.96 18.42 39.96 18.42 42 18 C42.33 17.34 42.66 16.68 43 16 C44 17 44 17 44.06 20.06 C44.04 21.03 44.02 22 44 23 C42.35 23.33 40.7 23.66 39 24 C38.83 24.5 38.83 24.5 38 27 C35.96 27.05 33.92 27.09 31.88 27.12 C30.74 27.15 29.6 27.17 28.43 27.2 C24.94 27 22.24 26.25 19 25 C19 25.66 19 26.32 19 27 C16.69 27.33 14.38 27.66 12 28 C11.67 28.99 11.34 29.98 11 31 C11.99 31.33 12.98 31.66 14 32 C14 31.01 14 30.02 14 29 C16 30 16 30 18 32 C17.67 32.99 17.34 33.98 17 35 C16.4 35.03 15.79 35.05 15.17 35.08 C9.91 35.45 7.58 35.91 4 40 C1.25 40.75 1.25 40.75 -1 41 C-1 39.68 -1 38.36 -1 37 C-0.68 36.91 -0.68 36.91 0.94 36.44 C1.62 35.96 2.3 35.49 3 35 C3.41 32.68 3.75 30.34 4 28 C2.76 27.96 1.52 27.93 0.24 27.89 C-1.4 27.82 -3.05 27.75 -4.69 27.69 C-5.5 27.66 -6.32 27.64 -7.16 27.62 C-11.83 27.41 -15.27 27.12 -19 24 C-19.79 20.07 -19.18 18.32 -17.25 14.81 C-13.78 10.47 -13.78 10.47 -11 9 C-7.75 8.81 -7.75 8.81 -5 9 C-4.34 6.69 -3.68 4.38 -3 2 C-3.66 1.67 -4.32 1.34 -5 1 C-2 0 -2 0 0 0 Z " fill="#C2EDFC" transform="translate(454,117)"/>
<path d="M0 0 C12.9 -0.86 12.9 -0.86 16.75 2.38 C21.35 7.75 20.5 14.32 20.19 21.09 C19.78 25.2 18.43 27.7 16 31 C11.05 32.87 5.17 32.63 0 32 C-4.01 28.85 -5 24.91 -6 20 C-6.51 14.59 -5.71 10.14 -4 5 C-3.34 5 -2.68 5 -2 5 C-1.34 3.35 -0.68 1.7 0 0 Z " fill="#FCFDFD" transform="translate(520,105)"/>
<path d="M0 0 C4.95 0 9.9 0 15 0 C15 0.99 15 1.98 15 3 C11.37 3 7.74 3 4 3 C4 5.64 4 8.28 4 11 C7.3 11 10.6 11 14 11 C14 11.99 14 12.98 14 14 C10.7 14 7.4 14 4 14 C4.66 15.11 5.32 16.23 6 17.38 C8 20.75 8 20.75 8 23 C10.15 22.03 11.77 21.25 13.38 19.5 C16.59 16.53 20.32 16.06 24.56 15.69 C29.89 16.17 32.1 18.05 35.75 21.88 C39.32 26.83 39.13 31.24 39.13 37.23 C39.13 37.91 39.13 38.59 39.14 39.29 C39.14 40.72 39.13 42.14 39.13 43.57 C39.12 45.76 39.13 47.95 39.14 50.14 C39.14 51.52 39.13 52.91 39.13 54.3 C39.13 55.56 39.13 56.82 39.13 58.12 C39 61 39 61 38 62 C35.67 62.04 33.33 62.04 31 62 C30.98 61.06 30.96 60.12 30.94 59.16 C30.86 55.66 30.77 52.16 30.68 48.66 C30.64 47.15 30.61 45.64 30.58 44.12 C30.53 41.94 30.47 39.77 30.41 37.59 C30.38 36.28 30.35 34.97 30.32 33.62 C30.01 30.1 29.27 27.28 28 24 C24.37 24 20.74 24 17 24 C16.67 24.99 16.34 25.98 16 27 C13.52 27.03 11.04 27.05 8.56 27.06 C7.86 27.07 7.15 27.08 6.42 27.09 C4.61 27.1 2.81 27.05 1 27 C0 26 0 26 -0.11 23.5 C-0.11 22.42 -0.1 21.33 -0.1 20.21 C-0.09 19.05 -0.09 17.88 -0.09 16.67 C-0.08 15.44 -0.07 14.21 -0.06 12.94 C-0.06 11.7 -0.05 10.47 -0.05 9.19 C-0.04 6.13 -0.02 3.06 0 0 Z " fill="#C6EDFB" transform="translate(217,82)"/>
<path d="M0 0 C2.64 0 5.28 0 8 0 C8.16 0.33 8.16 0.33 8.95 1.98 C11.36 6.9 13.83 11.53 17 16 C17.66 15.01 18.32 14.02 19 13 C19.66 13 20.32 13 21 13 C21.25 12.34 21.5 11.68 21.75 11 C23.32 7.24 25.15 3.63 27 0 C29.31 0 31.62 0 34 0 C33.48 3.84 32.74 5.37 30 8 C28.81 10.69 28.81 10.69 28 13 C27.34 13 26.68 13 26 13 C25.86 13.8 25.71 14.61 25.56 15.44 C25 18 25 18 24 19 C24.32 24.51 25.86 27.54 29 32 C29 32.99 29 33.98 29 35 C29.62 35.25 30.24 35.5 30.88 35.75 C33.42 37.24 34.03 38.25 35 41 C35 42.32 35 43.64 35 45 C32.36 45 29.72 45 27 45 C24 39.25 24 39.25 24 37 C23.34 37 22.68 37 22 37 C20.74 34.09 20 32.2 20 29 C19.34 29 18.68 29 18 29 C18 28.34 18 27.68 18 27 C17.01 27 16.02 27 15 27 C14.74 27.68 14.49 28.37 14.23 29.07 C12.81 32.45 11.13 35.6 9.38 38.81 C9.05 39.41 8.73 40.01 8.39 40.62 C7.6 42.08 6.8 43.54 6 45 C3.69 45 1.38 45 -1 45 C-0.83 44.01 -0.83 44.01 0 39 C0.5 38.84 0.5 38.84 3 38 C3.68 36 4.34 34 5 32 C5.87 30.67 6.77 29.36 7.69 28.06 C9.73 24.93 10.01 24.19 9.88 20.25 C9.73 19.71 9.73 19.71 9 17 C8.91 16.6 8.91 16.6 8.44 14.56 C8.29 14.05 8.15 13.53 8 13 C7.34 13 6.68 13 6 13 C5.34 11.02 4.68 9.04 4 7 C3.34 7 2.68 7 2 7 C2 6.34 2 5.68 2 5 C1.34 5 0.68 5 0 5 C0 3.35 0 1.7 0 0 Z " fill="#C2EDFB" transform="translate(102,99)"/>
<path d="M0 0 C0.37 0.01 0.37 0.01 2.24 0.04 C4.06 0.08 5.87 0.13 7.69 0.19 C7.69 0.85 7.69 1.51 7.69 2.19 C8.49 2.33 9.3 2.48 10.12 2.62 C12.69 3.19 12.69 3.19 13.69 4.19 C13.73 6.19 13.73 8.19 13.69 10.19 C11.35 9.65 9.23 9.01 7 8.12 C2.49 6.85 -2.98 6.02 -7.31 8.19 C-8.36 11.34 -8.41 13.58 -8.38 16.88 C-8.37 17.87 -8.36 18.86 -8.35 19.89 C-8.34 20.65 -8.32 21.41 -8.31 22.19 C-7.32 22.19 -6.33 22.19 -5.31 22.19 C-5.31 22.85 -5.31 23.51 -5.31 24.19 C-4.93 24.29 -4.93 24.29 -3 24.81 C3.93 27.4 12.46 30.91 16.69 37.19 C17.07 40.24 16.99 43.13 16.69 46.19 C14.05 46.19 11.41 46.19 8.69 46.19 C8.03 43.55 7.37 40.91 6.69 38.19 C5.64 37.92 4.58 37.65 3.5 37.38 C0.03 36.29 -2.3 35.15 -5.31 33.19 C-6.56 32.52 -7.81 31.85 -9.06 31.19 C-12.31 29.19 -12.31 29.19 -13.31 26.19 C-14.3 25.86 -15.29 25.53 -16.31 25.19 C-16.31 24.2 -16.31 23.21 -16.31 22.19 C-16.97 22.19 -17.63 22.19 -18.31 22.19 C-18.31 17.9 -18.31 13.61 -18.31 9.19 C-17.65 9.19 -16.99 9.19 -16.31 9.19 C-16.31 8.2 -16.31 7.21 -16.31 6.19 C-15.65 6.19 -14.99 6.19 -14.31 6.19 C-13.98 5.2 -13.65 4.21 -13.31 3.19 C-9.15 -0.23 -5.15 -0.18 0 0 Z " fill="#C3EDFC" transform="translate(285.3125,81.8125)"/>
<path d="M0 0 C6.31 6.72 4.16 20.01 4.06 28.69 C4.05 30.18 4.04 31.68 4.04 33.18 C4.01 36.8 3.98 40.43 3.94 44.06 C1.96 44.06 -0.02 44.06 -2.06 44.06 C-2.06 42.41 -2.06 40.76 -2.06 39.06 C-2.72 39.23 -2.72 39.23 -6.06 40.06 C-6.06 40.72 -6.06 41.38 -6.06 42.06 C-9.48 43.2 -12.15 43.16 -15.75 43.12 C-16.34 43.12 -16.34 43.12 -19.32 43.1 C-20.23 43.09 -21.13 43.07 -22.06 43.06 C-22.06 42.4 -22.06 41.74 -22.06 41.06 C-22.72 41.06 -23.38 41.06 -24.06 41.06 C-23.73 40.07 -23.4 39.08 -23.06 38.06 C-18.77 38.06 -14.48 38.06 -10.06 38.06 C-9.73 37.4 -9.4 36.74 -9.06 36.06 C-8.07 36.06 -7.08 36.06 -6.06 36.06 C-6.06 35.4 -6.06 34.74 -6.06 34.06 C-5.07 34.06 -4.08 34.06 -3.06 34.06 C-3.06 30.1 -3.06 26.14 -3.06 22.06 C-7.35 22.06 -11.64 22.06 -16.06 22.06 C-16.06 21.07 -16.06 20.08 -16.06 19.06 C-11.77 19.06 -7.48 19.06 -3.06 19.06 C-3.37 17.31 -3.68 15.56 -4 13.75 C-4.17 12.76 -4.35 11.78 -4.53 10.76 C-5.06 8.06 -5.06 8.06 -6.06 5.06 C-11.34 5.06 -16.62 5.06 -22.06 5.06 C-22.06 5.72 -22.06 6.38 -22.06 7.06 C-24.37 7.39 -26.68 7.72 -29.06 8.06 C-29.06 6.41 -29.06 4.76 -29.06 3.06 C-20.02 -2.78 -10.26 -3.14 0 0 Z " fill="#C1EDFB" transform="translate(174.0625,99.9375)"/>
<path d="M0 0 C1.32 0.33 2.64 0.66 4 1 C5.12 4.31 5.12 4.31 6 8 C5.34 8.99 4.68 9.98 4 11 C0.88 11.19 0.88 11.19 -2 11 C-1.67 9.35 -1.34 7.7 -1 6 C-1.99 6 -2.98 6 -4 6 C-3.75 7.2 -3.5 8.39 -3.25 9.62 C-2.78 13.24 -2.97 13.95 -4.81 17.38 C-7 20 -7 20 -9 22 C-9.71 23.98 -10.39 25.98 -11 28 C-11.33 27.01 -11.66 26.02 -12 25 C-12.66 25 -13.32 25 -14 25 C-14 25.66 -14 26.32 -14 27 C-15.32 27.33 -16.64 27.66 -18 28 C-18 28.66 -18 29.32 -18 30 C-23.28 30 -28.56 30 -34 30 C-34 26.37 -34 22.74 -34 19 C-29.05 18.67 -24.1 18.34 -19 18 C-18.67 17.01 -18.34 16.02 -18 15 C-17.01 14.67 -16.02 14.34 -15 14 C-15.99 13.67 -16.98 13.34 -18 13 C-18 12.34 -18 11.68 -18 11 C-19.98 11.16 -19.98 11.16 -30 12 C-29.67 10.68 -29.34 9.36 -29 8 C-29.66 7.67 -30.32 7.34 -31 7 C-30.67 6.01 -30.34 5.02 -30 4 C-30 4.66 -30 5.32 -30 6 C-24.39 6.33 -18.78 6.66 -13 7 C-12.67 7.99 -12.34 8.98 -12 10 C-10.35 10 -8.7 10 -7 10 C-6.67 8.35 -6.34 6.7 -6 5 C-4.35 4.67 -2.7 4.34 -1 4 C-0.67 2.68 -0.34 1.36 0 0 Z " fill="#FDFDFD" transform="translate(442,76)"/>
<path d="M0 0 C0 0.33 0 0.66 0 1 C-4.29 1 -8.58 1 -13 1 C-13 1.99 -13 2.98 -13 4 C-8.71 4 -4.42 4 0 4 C0 7.96 0 11.92 0 16 C-0.99 16 -1.98 16 -3 16 C-3 16.66 -3 17.32 -3 18 C-3.99 18 -4.98 18 -6 18 C-6.33 18.99 -6.66 19.98 -7 21 C-11.29 21 -15.58 21 -20 21 C-20.33 21.66 -20.66 22.32 -21 23 C-20.34 23 -19.68 23 -19 23 C-19 23.66 -19 24.32 -19 25 C-15.7 25 -12.4 25 -9 25 C-9 25.33 -9 25.66 -9 26 C-20.78 27.03 -20.78 27.03 -24.75 23.75 C-27.87 19.88 -27.72 15.57 -27.44 10.78 C-26.84 6.97 -26.1 5.35 -23 3 C-15.78 -0.87 -7.97 -0.31 0 0 Z " fill="#C8EEFB" transform="translate(171,118)"/>
<path d="M0 0 C-0.05 0.35 -0.05 0.35 -0.29 2.12 C-0.34 2.57 -0.34 2.57 -0.62 4.88 C-0.74 5.78 -0.86 6.68 -0.98 7.62 C-0.98 8.4 -0.99 9.19 -1 10 C-0.34 10.66 0.32 11.32 1 12 C1.12 15.62 1.12 15.62 1 19 C2.32 19 3.64 19 5 19 C5 20.65 5 22.3 5 24 C5.95 24.06 6.9 24.12 7.88 24.19 C8.91 24.46 9.94 24.72 11 25 C12.38 27.56 12.38 27.56 13 30 C13.33 28.02 13.66 26.04 14 24 C14.99 24 15.98 24 17 24 C16.53 28.15 16.01 30.99 13 34 C12.01 34 11.02 34 10 34 C10 31.69 10 29.38 10 27 C8.02 27 6.04 27 4 27 C4.33 29.31 4.66 31.62 5 34 C4.34 34 3.68 34 3 34 C3 33.34 3 32.68 3 32 C1.35 32.66 -0.3 33.32 -2 34 C-2 32 -2 32 0 30 C0 29.34 0 28.68 0 28 C-1.65 28.33 -3.3 28.66 -5 29 C-5.33 27.68 -5.66 26.36 -6 25 C-7.32 25 -8.64 25 -10 25 C-10.33 24.01 -10.66 23.02 -11 22 C-11.56 22.52 -12.11 23.03 -12.69 23.56 C-15 25 -15 25 -17.69 24.75 C-20 24 -20 24 -21 23 C-21.59 18.8 -21.2 17.29 -18.75 13.75 C-15.48 10.48 -13.86 9.08 -9.25 8.88 C-8.51 8.92 -7.76 8.96 -7 9 C-6.34 6.69 -5.68 4.38 -5 2 C-5.66 1.67 -6.32 1.34 -7 1 C-4.54 -0.23 -2.72 -0.07 0 0 Z " fill="#F9FCFA" transform="translate(399,167)"/>
<path d="M0 0 C2.57 2.57 2.54 4.48 3 8 C3.99 8.33 4.98 8.66 6 9 C6.25 11.94 6.47 14.87 6.69 17.81 C6.76 18.65 6.83 19.48 6.91 20.34 C6.96 21.14 7.02 21.94 7.07 22.77 C7.1 23.14 7.1 23.14 7.25 25.01 C6.92 27.61 6.01 28.39 4 30 C3.34 30.33 2.68 30.66 2 31 C2.66 31.33 3.32 31.66 4 32 C3.67 34.31 3.34 36.62 3 39 C-0.01 40 -2.87 40.49 -6 41 C-7.34 41.32 -8.67 41.66 -10 42 C-9.5 40.84 -9.01 39.69 -8.5 38.5 C-5.4 29.27 -6.59 18.49 -8 9 C-8.4 3.64 -8.4 3.64 -6.81 1.12 C-4.38 -0.38 -2.81 -0.36 0 0 Z " fill="#FCFEFD" transform="translate(391,87)"/>
<path d="M0 0 C2.97 0 5.94 0 9 0 C9 3.3 9 6.6 9 10 C8.67 9.01 8.34 8.02 8 7 C6.39 7.26 4.79 7.53 3.19 7.81 C2.29 7.96 1.4 8.11 0.48 8.27 C-2.22 9.06 -3.15 9.97 -5 12 C-5.66 12 -6.32 12 -7 12 C-7.33 23.22 -7.66 34.44 -8 46 C-10.31 46 -12.62 46 -15 46 C-15 31.15 -15 16.3 -15 1 C-12.69 1 -10.38 1 -8 1 C-8 2.65 -8 4.3 -8 6 C-7.34 6 -6.68 6 -6 6 C-6 5.34 -6 4.68 -6 4 C-3 2 -3 2 0 2 C0 1.34 0 0.68 0 0 Z " fill="#C2EDFB" transform="translate(208,98)"/>
<path d="M0 0 C4.29 0 8.58 0 13 0 C12.34 4.29 11.68 8.58 11 13 C11.66 12.34 12.32 11.68 13 11 C12.67 12.65 12.34 14.3 12 16 C11.34 16 10.68 16 10 16 C10.12 17.3 10.25 18.6 10.38 19.94 C10.44 20.67 10.51 21.4 10.59 22.15 C10.72 22.76 10.86 23.37 11 24 C11.66 24.33 12.32 24.66 13 25 C13 25.99 13 26.98 13 28 C13.33 28.33 13.66 28.66 14 29 C12.8 31.49 11.55 33.68 10 36 C10.5 36.16 10.5 36.16 13 37 C12.18 37.16 12.18 37.16 8 38 C8 38.66 8 39.32 8 40 C7.01 40 6.02 40 5 40 C5 37.36 5 34.72 5 32 C3.68 31.34 2.36 30.68 1 30 C1 29.34 1 28.68 1 28 C0.01 28.33 -0.98 28.66 -2 29 C-4.92 27.05 -6.36 26.04 -8 23 C-8.13 19.4 -7.86 17.08 -5.57 14.21 C-2.54 11.37 -0.77 10.08 3.44 9.62 C4.28 9.75 5.13 9.87 6 10 C6.66 8.02 7.32 6.04 8 4 C6.68 4 5.36 4 4 4 C3.67 3.34 3.34 2.68 3 2 C2.01 1.34 1.02 0.68 0 0 Z M1 25 C1.66 25.66 2.32 26.32 3 27 C3 26.34 3 25.68 3 25 C2.34 25 1.68 25 1 25 Z " fill="#F7F8F6" transform="translate(385,8)"/>
<path d="M0 0 C2.64 0 5.28 0 8 0 C8 15.51 8 31.02 8 47 C5.03 47 2.06 47 -1 47 C-1.02 40.63 -1.04 34.26 -1.05 27.88 C-1.06 25.71 -1.07 23.55 -1.08 21.38 C-1.09 18.26 -1.09 15.15 -1.1 12.04 C-1.1 11.07 -1.11 10.09 -1.11 9.09 C-1.11 8.19 -1.11 7.29 -1.11 6.36 C-1.12 5.56 -1.12 4.77 -1.12 3.95 C-1 2 -1 2 0 0 Z " fill="#BCEDFD" transform="translate(315,81)"/>
<path d="M0 0 C0.82 0.16 0.82 0.16 5 1 C5 1.66 5 2.32 5 3 C7.58 3.08 10.17 3.14 12.75 3.19 C13.48 3.21 14.21 3.24 14.96 3.26 C20.56 3.34 20.56 3.34 22.95 1.5 C25.42 -0.31 26.65 -0.37 29.68 -0.34 C30.14 -0.34 30.14 -0.34 32.47 -0.34 C33.45 -0.32 34.44 -0.31 35.45 -0.29 C35.96 -0.29 35.96 -0.29 38.53 -0.28 C41.77 -0.26 45.01 -0.23 48.25 -0.19 C50.45 -0.17 52.65 -0.16 54.84 -0.15 C60.23 -0.11 65.61 -0.06 71 0 C71 1.98 71 3.96 71 6 C50.21 6 29.42 6 8 6 C8 7.32 8 8.64 8 10 C7.01 9.84 7.01 9.84 2 9 C2 8.34 2 7.68 2 7 C1.34 7 0.68 7 0 7 C0 4.69 0 2.38 0 0 Z " fill="#F3FBFD" transform="translate(267,133)"/>
<path d="M0 0 C5.61 0.33 11.22 0.66 17 1 C16.01 1.33 15.02 1.66 14 2 C13.67 2.99 13.34 3.98 13 5 C11.35 5 9.7 5 8 5 C8 17.87 8 30.74 8 44 C5.36 44 2.72 44 0 44 C0 29.48 0 14.96 0 0 Z " fill="#C1EDFC" transform="translate(338,84)"/>
<path d="M0 0 C30.03 0 60.06 0 91 0 C91.16 0.66 91.16 0.66 92 4 C61.64 4 31.28 4 0 4 C0 2.68 0 1.36 0 0 Z " fill="#202224" transform="translate(276,128)"/>
<path d="M0 0 C30.03 0 60.06 0 91 0 C91 1.32 91 2.64 91 4 C60.64 4 30.28 4 -1 4 C-0.67 2.68 -0.34 1.36 0 0 Z " fill="#2A2A2A" transform="translate(276,74)"/>
<path d="M0 0 C30.03 0 60.06 0 91 0 C91 1.32 91 2.64 91 4 C60.64 4 30.28 4 -1 4 C-0.67 2.68 -0.34 1.36 0 0 Z " fill="#1A1A1A" transform="translate(276,26)"/>
<path d="M0 0 C0.94 3.69 0.94 3.69 1 7 C-1.33 6.46 -3.45 5.82 -5.69 4.94 C-9.86 3.76 -13.69 3.31 -18 4 C-20.5 5.88 -21.62 7.24 -23 10 C-23.66 10 -24.32 10 -25 10 C-25 15.28 -25 20.56 -25 26 C-25.66 26 -26.32 26 -27 26 C-27 26.99 -27 27.98 -27 29 C-27.99 28.67 -28.98 28.34 -30 28 C-30 27.34 -30 26.68 -30 26 C-30.99 26 -31.98 26 -33 26 C-33.4 11.56 -33.4 11.56 -31 5 C-30.01 4.67 -29.02 4.34 -28 4 C-28 3.34 -28 2.68 -28 2 C-27.34 2 -26.68 2 -26 2 C-26 1.01 -26 0.02 -26 -1 C-16.67 -4.04 -8.76 -5.36 0 0 Z " fill="#C5EEFB" transform="translate(498,102)"/>
<path d="M0 0 C29.7 0 59.4 0 90 0 C90 0.33 90 0.66 90 1 C83.07 1 76.14 1 69 1 C69.16 1.5 69.16 1.5 70 4 C83.59 4.37 83.59 4.37 90 2 C90.99 1.67 91.98 1.34 93 1 C92.34 2.65 91.68 4.3 91 6 C92.98 6 94.96 6 97 6 C94.46 8.64 92.45 9.22 88.91 9.32 C87.22 9.31 85.52 9.29 83.83 9.25 C82.9 9.24 81.97 9.23 81.02 9.22 C77.95 9.19 74.89 9.13 71.83 9.07 C69.7 9.05 67.58 9.02 65.46 8.99 C59.87 8.92 54.28 8.83 48.69 8.74 C42.98 8.65 37.28 8.58 31.57 8.5 C20.38 8.35 9.19 8.18 -2 8 C-2 7.67 -2 7.34 -2 7 C18.79 7 39.58 7 61 7 C61 5.02 61 3.04 61 1 C40.87 1 20.74 1 0 1 C0 0.67 0 0.34 0 0 Z " fill="#B7CFD8" transform="translate(277,132)"/>
<path d="M0 0 C4.29 0.33 8.58 0.66 13 1 C12.67 1.99 12.34 2.98 12 4 C11.86 6.34 11.77 8.69 11.72 11.04 C11.7 11.72 11.68 12.4 11.66 13.1 C11.58 16.02 11.52 18.93 11.45 21.84 C11.4 23.97 11.34 26.1 11.28 28.23 C11.27 28.86 11.27 28.86 11.19 32.09 C11 35 11 35 10 36 C7.69 36 5.38 36 3 36 C2.67 25.11 2.34 14.22 2 3 C1.34 2.67 0.68 2.34 0 2 C0 1.34 0 0.68 0 0 Z " fill="#BFECFB" transform="translate(217,108)"/>
<path d="M0 0 C30.69 0 61.38 0 93 0 C93 0.99 93 1.98 93 3 C62.31 3 31.62 3 0 3 C0 2.01 0 1.02 0 0 Z " fill="#121314" transform="translate(275,140)"/>
<path d="M0 0 C30.36 0 60.72 0 92 0 C92 0.99 92 1.98 92 3 C61.64 3 31.28 3 0 3 C0 2.01 0 1.02 0 0 Z " fill="#0B0B0B" transform="translate(275,183)"/>
<path d="M0 0 C0.95 0.01 1.91 0.02 2.89 0.03 C3.4 0.03 3.4 0.03 6.01 0.05 C6.55 0.06 6.55 0.06 9.29 0.1 C10.37 0.11 11.46 0.12 12.58 0.13 C15.28 0.15 17.97 0.19 20.66 0.23 C21.79 4.98 21.79 4.98 20.66 7.23 C19.67 7.23 18.68 7.23 17.66 7.23 C17.33 8.55 17 9.87 16.66 11.23 C15.34 10.9 14.02 10.57 12.66 10.23 C13.32 10.23 13.98 10.23 14.66 10.23 C14.66 9.57 14.66 8.91 14.66 8.23 C8.06 8.23 1.46 8.23 -5.34 8.23 C-5.34 9.55 -5.34 10.87 -5.34 12.23 C-3.52 12.06 -3.52 12.06 5.66 11.23 C5.33 12.55 5 13.87 4.66 15.23 C-0.67 15.23 -6.01 15.23 -11.34 15.23 C-11.34 14.57 -11.34 13.91 -11.34 13.23 C-10.68 12.9 -10.02 12.57 -9.34 12.23 C-8.71 10.16 -8.71 10.16 -8.34 8.23 C-9 8.23 -9.66 8.23 -10.34 8.23 C-10.34 7.57 -10.34 6.91 -10.34 6.23 C-9.02 6.23 -7.7 6.23 -6.34 6.23 C-6.34 5.57 -6.34 4.91 -6.34 4.23 C-2.34 0.23 -2.34 0.23 0 0 Z " fill="#C4ECF8" transform="translate(409.33837890625,136.77294921875)"/>
<path d="M0 0 C0.05 1.6 0.09 3.21 0.12 4.81 C0.15 5.71 0.17 6.6 0.2 7.52 C0 10 0 10 -2 13 C-6.33 15.42 -10.16 15.31 -15 15 C-18 13 -18 13 -18.88 9.12 C-19.11 6.36 -19.07 5.16 -17.94 2.56 C-13.14 -1.31 -5.87 -0.1 0 0 Z " fill="#FAFDFD" transform="translate(170,123)"/>
<path d="M0 0 C-1.31 8.41 -2.86 17.06 -6 25 C-6.99 25.33 -7.98 25.66 -9 26 C-9.33 25.01 -9.66 24.02 -10 23 C-10.66 23.66 -11.32 24.32 -12 25 C-15.62 25.12 -15.62 25.12 -19 25 C-20.01 20.78 -20.35 18.7 -18.38 14.75 C-15.99 11.98 -14.35 10.43 -11 9 C-7.69 8.81 -7.69 8.81 -5 9 C-4.34 6.69 -3.68 4.38 -3 2 C-3.99 1.67 -4.98 1.34 -6 1 C-3.92 0.45 -2.16 0 0 0 Z " fill="#4E4D50" transform="translate(398,117)"/>
<path d="M0 0 C0.29 4.93 -0.68 8.47 -2.44 13.06 C-3.95 17.04 -5.31 20.79 -6 25 C-6.99 25 -7.98 25 -9 25 C-9.33 24.34 -9.66 23.68 -10 23 C-10.58 23.52 -11.15 24.03 -11.75 24.56 C-14 26 -14 26 -16.19 25.75 C-18 25 -18 25 -19 24 C-19.45 20.13 -19.15 18.27 -17.25 14.81 C-13.78 10.47 -13.78 10.47 -11 9 C-7.75 8.81 -7.75 8.81 -5 9 C-4.34 6.69 -3.68 4.38 -3 2 C-3.66 1.67 -4.32 1.34 -5 1 C-2 0 -2 0 0 0 Z " fill="#3E3941" transform="translate(454,117)"/>
<path d="M0 0 C1.65 0 3.3 0 5 0 C3.3 8.13 3.3 8.13 1.94 12.06 C0.77 15.72 0.4 19.18 0 23 C-0.99 23.33 -1.98 23.66 -3 24 C-3.33 23.01 -3.66 22.02 -4 21 C-4.56 21.52 -5.11 22.03 -5.69 22.56 C-8 24 -8 24 -10.69 23.75 C-13 23 -13 23 -14 22 C-14.59 17.8 -14.2 16.29 -11.75 12.75 C-8.48 9.48 -6.86 8.08 -2.25 7.88 C-1.51 7.92 -0.76 7.96 0 8 C0.66 5.69 1.32 3.38 2 1 C1.34 0.67 0.68 0.34 0 0 Z " fill="#2A2528" transform="translate(392,168)"/>
<path d="M0 0 C4.95 0 9.9 0 15 0 C15 0.99 15 1.98 15 3 C11.37 3 7.74 3 4 3 C4 5.64 4 8.28 4 11 C7.3 11 10.6 11 14 11 C14 11.99 14 12.98 14 14 C10.7 14 7.4 14 4 14 C4 17.3 4 20.6 4 24 C7.96 24 11.92 24 16 24 C16 24.99 16 25.98 16 27 C13.52 27.03 11.04 27.05 8.56 27.06 C7.86 27.07 7.15 27.08 6.42 27.09 C4.61 27.1 2.81 27.05 1 27 C0 26 0 26 -0.11 23.5 C-0.11 22.42 -0.1 21.33 -0.1 20.21 C-0.09 19.05 -0.09 17.88 -0.09 16.67 C-0.08 15.44 -0.07 14.21 -0.06 12.94 C-0.06 11.7 -0.05 10.47 -0.05 9.19 C-0.04 6.13 -0.02 3.06 0 0 Z " fill="#181B1E" transform="translate(217,82)"/>
<path d="M0 0 C0.99 0 1.98 0 3 0 C3.33 2.64 3.66 5.28 4 8 C3.34 8 2.68 8 2 8 C2.09 10.61 2.19 13.21 2.31 15.81 C2.34 16.55 2.36 17.29 2.38 18.05 C2.65 23.55 2.65 23.55 4.54 26.01 C5.02 26.34 5.5 26.66 6 27 C5.67 27.66 5.34 28.32 5 29 C4.34 29 3.68 29 3 29 C3 29.66 3 30.32 3 31 C1.35 30.67 -0.3 30.34 -2 30 C-2 26.37 -2 22.74 -2 19 C-2.66 19 -3.32 19 -4 19 C-4 20.98 -4 22.96 -4 25 C-4.66 25 -5.32 25 -6 25 C-6.33 26.98 -6.66 28.96 -7 31 C-7.66 30.67 -8.32 30.34 -9 30 C-8.73 29.08 -8.47 28.16 -8.2 27.22 C-6.36 20.83 -4.58 14.45 -3 8 C-2.67 7.01 -2.34 6.02 -2 5 C-3.65 5.33 -5.3 5.66 -7 6 C-5.68 5.34 -4.36 4.68 -3 4 C-3 3.34 -3 2.68 -3 2 C-2.01 2 -1.02 2 0 2 C0 1.34 0 0.68 0 0 Z " fill="#BAE5F6" transform="translate(400,112)"/>
<path d="M0 0 C0.33 0.99 0.66 1.98 1 3 C0.01 3 -0.98 3 -2 3 C-2 24.45 -2 45.9 -2 68 C-1.34 67.84 -1.34 67.84 2 67 C2.33 65.68 2.66 64.36 3 63 C3.99 63 4.98 63 6 63 C5.67 63.99 5.34 64.98 5 66 C35.36 66 65.72 66 97 66 C92.63 68.18 89.55 68.25 84.82 68.16 C84 68.16 83.18 68.15 82.33 68.14 C80.55 68.13 78.77 68.11 76.99 68.09 C74.17 68.05 71.35 68.03 68.53 68.02 C60.51 67.97 52.49 67.9 44.47 67.81 C39.57 67.75 34.66 67.72 29.75 67.7 C27.89 67.69 26.02 67.67 24.15 67.64 C21.53 67.6 18.92 67.59 16.31 67.58 C15.54 67.56 14.77 67.54 13.97 67.52 C9.01 67.54 6.51 68.5 3 72 C2.34 71.34 1.68 70.68 1 70 C0.34 70.16 0.34 70.16 -3 71 C-3 48.23 -3 25.46 -3 2 C-2.01 2 -1.02 2 0 2 C0 1.34 0 0.68 0 0 Z " fill="#F5F6F5" transform="translate(270,12)"/>
<path d="M0 0 C1.32 0.33 2.64 0.66 4 1 C3.67 2.98 3.34 4.96 3 7 C3.99 7.33 4.98 7.66 6 8 C5.34 9.32 4.68 10.64 4 12 C4.68 11.84 5.36 11.67 6.06 11.5 C9.42 10.93 12.6 10.93 16 11 C16 11.66 16 12.32 16 13 C17.32 13.33 18.64 13.66 20 14 C20 14.33 20 14.66 20 15 C16.37 15 12.74 15 9 15 C9 14.34 9 13.68 9 13 C4.71 13 0.42 13 -4 13 C-3.67 14.98 -3.34 16.96 -3 19 C-4.98 19.33 -6.96 19.66 -9 20 C-9 25.61 -9 31.22 -9 37 C-9.66 37 -10.32 37 -11 37 C-11 31.39 -11 25.78 -11 20 C-11.66 20 -12.32 20 -13 20 C-12.67 19.01 -12.34 18.02 -12 17 C-11.34 17 -10.68 17 -10 17 C-9.67 15.35 -9.34 13.7 -9 12 C-9.66 11.67 -10.32 11.34 -11 11 C-9.68 11 -8.36 11 -7 11 C-3.13 9.38 -1.35 8.53 1 5 C0.62 2.31 0.62 2.31 0 0 Z " fill="#B6DCEC" transform="translate(408,76)"/>
<path d="M0 0 C1.65 0 3.3 0 5 0 C4.38 2.73 3.75 5.46 3.12 8.19 C2.95 8.96 2.78 9.73 2.6 10.52 C1.67 14.5 0.67 18.25 -1 22 C-1.66 22 -2.32 22 -3 22 C-3.33 21.34 -3.66 20.68 -4 20 C-4.56 20.52 -5.11 21.03 -5.69 21.56 C-8 23 -8 23 -10.69 22.75 C-13 22 -13 22 -14 21 C-13.84 16.86 -13.37 14.51 -10.94 11.12 C-7.11 8.36 -4.67 8.24 0 8 C0.66 5.69 1.32 3.38 2 1 C1.34 0.67 0.68 0.34 0 0 Z " fill="#2F2A30" transform="translate(392,59)"/>
<path d="M0 0 C-0.6 2.38 -1.2 4.75 -1.81 7.12 C-1.98 7.79 -2.14 8.46 -2.31 9.14 C-3.42 13.4 -4.88 17.11 -7 21 C-7.99 20.67 -8.98 20.34 -10 20 C-10.99 20.66 -11.98 21.32 -13 22 C-17.54 21.46 -17.54 21.46 -19 20 C-19 16.53 -18.78 13.99 -16.58 11.2 C-13.53 8.38 -11.77 7.08 -7.56 6.62 C-6.72 6.75 -5.87 6.87 -5 7 C-4.34 5.02 -3.68 3.04 -3 1 C-3.99 0.67 -4.98 0.34 -6 0 C-2.25 -1.12 -2.25 -1.12 0 0 Z " fill="#484344" transform="translate(396,11)"/>
<path d="M0 0 C2 4 2 4 2 8 C8.88 5.25 8.88 5.25 10 3 C12.32 2.59 14.66 2.26 17 2 C17 8.83 17 8.83 14.19 12.12 C12.12 13.9 10.57 15.12 8 16 C5.75 15.62 5.75 15.62 4 15 C4 13.35 4 11.7 4 10 C2.68 10 1.36 10 0 10 C0 10.66 0 11.32 0 12 C0.66 12.33 1.32 12.66 2 13 C0.35 13.33 -1.3 13.66 -3 14 C-3 13.01 -3 12.02 -3 11 C-4.32 11 -5.64 11 -7 11 C-7 11.66 -7 12.32 -7 13 C-9.64 12.34 -12.28 11.68 -15 11 C-14.67 10.01 -14.34 9.02 -14 8 C-13.28 8.23 -12.56 8.45 -11.81 8.69 C-8.24 9.08 -6.86 8.04 -4 6 C-4 6.99 -4 7.98 -4 9 C-3.34 9 -2.68 9 -2 9 C-1.34 6.03 -0.68 3.06 0 0 Z " fill="#F6FAF9" transform="translate(393,72)"/>
<path d="M0 0 C0.66 0 1.32 0 2 0 C1.67 1.65 1.34 3.3 1 5 C1.66 5 2.32 5 3 5 C2.67 5.66 2.34 6.32 2 7 C1.34 6.67 0.68 6.34 0 6 C0.38 7.94 0.38 7.94 1 10 C1.66 10.33 2.32 10.66 3 11 C3 11.99 3 12.98 3 14 C3.66 14.33 4.32 14.66 5 15 C4.34 15 3.68 15 3 15 C3.33 16.32 3.66 17.64 4 19 C4.99 19 5.98 19 7 19 C6.67 18.01 6.34 17.02 6 16 C6.99 16.33 7.98 16.66 9 17 C10.26 20.77 9.37 22.37 8 26 C7.67 26 7.34 26 7 26 C7 24.02 7 22.04 7 20 C5.68 20 4.36 20 3 20 C3 20.66 3 21.32 3 22 C-2.28 21.67 -7.56 21.34 -13 21 C-13 20.34 -13 19.68 -13 19 C-10.5 17.38 -10.5 17.38 -8 16 C-8 16.99 -8 17.98 -8 19 C-7.01 19 -6.02 19 -5 19 C-4.92 17.91 -4.83 16.81 -4.75 15.69 C-4.08 10.16 -2.04 5.15 0 0 Z " fill="#E9F5F8" transform="translate(453,123)"/>
<path d="M0 0 C2.64 0 5.28 0 8 0 C8 15.51 8 31.02 8 47 C7.34 47 6.68 47 6 47 C6 32.48 6 17.96 6 3 C4.35 3.33 2.7 3.66 1 4 C0.67 18.19 0.34 32.38 0 47 C-0.33 47 -0.66 47 -1 47 C-1.03 40.63 -1.04 34.26 -1.05 27.88 C-1.06 25.71 -1.07 23.55 -1.08 21.38 C-1.09 18.26 -1.09 15.15 -1.1 12.04 C-1.1 11.07 -1.11 10.09 -1.11 9.09 C-1.11 8.19 -1.11 7.29 -1.11 6.36 C-1.12 5.56 -1.12 4.77 -1.12 3.95 C-1 2 -1 2 0 0 Z " fill="#DCF4FD" transform="translate(315,81)"/>
<path d="M0 0 C1.98 0 3.96 0 6 0 C6 2.31 6 4.62 6 7 C6.66 7.33 7.32 7.66 8 8 C7.67 9.65 7.34 11.3 7 13 C3.56 14.15 0.6 14 -3 14 C-3.33 13.01 -3.66 12.02 -4 11 C-4.66 11 -5.32 11 -6 11 C-6.33 11.66 -6.66 12.32 -7 13 C-7.98 9.95 -7.98 8.05 -7 5 C-7.66 5 -8.32 5 -9 5 C-9.33 5.66 -9.66 6.32 -10 7 C-9.43 4.13 -9.14 3.14 -7 1 C-6.01 1 -5.02 1 -4 1 C-3.67 1.99 -3.34 2.98 -3 4 C-3.99 4.33 -4.98 4.66 -6 5 C-6 5.66 -6 6.32 -6 7 C-4.35 6.34 -2.7 5.68 -1 5 C-1 5.66 -1 6.32 -1 7 C-0.34 7 0.32 7 1 7 C0.67 4.69 0.34 2.38 0 0 Z " fill="#F8F7F5" transform="translate(403,194)"/>
<path d="M0 0 C1.32 0.33 2.64 0.66 4 1 C5.12 4.31 5.12 4.31 6 8 C5.67 8.5 5.67 8.5 4 11 C0.88 11.19 0.88 11.19 -2 11 C-1.67 9.35 -1.34 7.7 -1 6 C-1.99 6 -2.98 6 -4 6 C-3.75 7.2 -3.5 8.39 -3.25 9.62 C-2.81 13.14 -2.96 13.93 -4.69 17.25 C-8.84 22.19 -8.84 22.19 -11 24 C-11.99 24 -12.98 24 -14 24 C-14 23.34 -14 22.68 -14 22 C-13.01 21.67 -12.02 21.34 -11 21 C-11 17.7 -11 14.4 -11 11 C-10.01 10.67 -9.02 10.34 -8 10 C-7.71 9.17 -7.42 8.35 -7.12 7.5 C-6.75 6.67 -6.38 5.85 -6 5 C-3.38 4.19 -3.38 4.19 -1 4 C-0.67 2.68 -0.34 1.36 0 0 Z " fill="#F3F3EE" transform="translate(442,76)"/>
<path d="M0 0 C0.82 0.16 0.82 0.16 5 1 C5 1.66 5 2.32 5 3 C7.58 3.08 10.17 3.14 12.75 3.19 C13.48 3.21 14.21 3.24 14.96 3.26 C19.46 3.32 21.6 2.86 25 0 C27.36 -0.29 27.36 -0.29 29.75 -0.19 C30.55 -0.16 31.35 -0.13 32.17 -0.11 C32.78 -0.07 33.38 -0.04 34 0 C34 0.66 34 1.32 34 2 C33.34 2 32.68 2 32 2 C31.67 3.32 31.34 4.64 31 6 C23.41 6 15.82 6 8 6 C8 7.32 8 8.64 8 10 C7.01 9.84 7.01 9.84 2 9 C2 8.34 2 7.68 2 7 C1.34 7 0.68 7 0 7 C0 4.69 0 2.38 0 0 Z " fill="#C8EEFB" transform="translate(267,133)"/>
<path d="M0 0 C0.33 0 0.66 0 1 0 C1 6.27 1 12.54 1 19 C8.26 19 15.52 19 23 19 C24 21 24 21 24 28 C16.74 27.67 9.48 27.34 2 27 C2 33.6 2 40.2 2 47 C9.92 47 17.84 47 26 47 C26 47.33 26 47.66 26 48 C17.75 48 9.5 48 1 48 C1 40.41 1 32.82 1 25 C7.93 25 14.86 25 22 25 C22 23.35 22 21.7 22 20 C14.74 20 7.48 20 0 20 C0 13.4 0 6.8 0 0 Z " fill="#E4F8FD" transform="translate(66,89)"/>
<path d="M0 0 C0.33 0 0.66 0 1 0 C1 11.88 1 23.76 1 36 C1.66 36 2.32 36 3 36 C2.67 37.32 2.34 38.64 2 40 C2.99 40 3.98 40 5 40 C5.33 30.1 5.66 20.2 6 10 C6.99 10 7.98 10 9 10 C8.88 14.68 8.76 19.36 8.63 24.04 C8.58 25.64 8.54 27.23 8.5 28.83 C8.45 31.11 8.38 33.4 8.32 35.68 C8.31 36.04 8.31 36.04 8.27 37.86 C8.11 42.89 8.11 42.89 7 44 C4.69 44 2.38 44 0 44 C0 29.48 0 14.96 0 0 Z " fill="#D0EDF5" transform="translate(559,100)"/>
<path d="M0 0 C0.33 0 0.66 0 1 0 C1.99 6.54 2.12 12.9 2.06 19.5 C2.06 20.51 2.05 21.53 2.05 22.57 C2.04 25.05 2.02 27.52 2 30 C3.32 30 4.64 30 6 30 C6 20.1 6 10.2 6 0 C6.66 0 7.32 0 8 0 C8.02 4.4 8.04 8.79 8.05 13.19 C8.06 14.69 8.07 16.18 8.08 17.68 C8.09 19.83 8.09 21.97 8.1 24.12 C8.1 25.41 8.11 26.71 8.11 28.04 C8 31 8 31 7 32 C4.69 32 2.38 32 0 32 C0 21.44 0 10.88 0 0 Z " fill="#CDF2F8" transform="translate(220,112)"/>
<path d="M0 0 C2.97 0.33 5.94 0.66 9 1 C8.67 1.66 8.34 2.32 8 3 C6.35 3 4.7 3 3 3 C2.67 3.99 2.34 4.98 2 6 C2.99 6.33 3.98 6.66 5 7 C5 6.01 5 5.02 5 4 C7 5 7 5 9 7 C8.67 7.99 8.34 8.98 8 10 C7.4 10.03 6.79 10.05 6.17 10.08 C0.91 10.45 -1.42 10.91 -5 15 C-7.75 15.75 -7.75 15.75 -10 16 C-10 14.68 -10 13.36 -10 12 C-9.68 11.91 -9.68 11.91 -8.06 11.44 C-6 10 -6 10 -5.25 6.38 C-5.17 5.26 -5.08 4.15 -5 3 C-5.66 3 -6.32 3 -7 3 C-7 2.34 -7 1.68 -7 1 C-5.68 1 -4.36 1 -3 1 C-2.67 2.65 -2.34 4.3 -2 6 C-1.34 4.02 -0.68 2.04 0 0 Z " fill="#EEF0EF" transform="translate(463,142)"/>
<path d="M0 0 C0.33 0.99 0.66 1.98 1 3 C-1.97 2.67 -4.94 2.34 -8 2 C-7.67 3.32 -7.34 4.64 -7 6 C-8.98 6 -10.96 6 -13 6 C-13.33 17.22 -13.66 28.44 -14 40 C-14.66 40 -15.32 40 -16 40 C-16.1 35.53 -16.17 31.07 -16.22 26.6 C-16.24 25.08 -16.27 23.57 -16.3 22.05 C-16.35 19.86 -16.37 17.68 -16.39 15.49 C-16.41 14.17 -16.43 12.86 -16.45 11.51 C-15.93 7.47 -14.9 5.81 -12 3 C-11.34 3 -10.68 3 -10 3 C-10 2.34 -10 1.68 -10 1 C-6.62 -0.04 -3.52 -0.08 0 0 Z " fill="#ECFBFE" transform="translate(610,104)"/>
<path d="M0 0 C-0.33 0.99 -0.66 1.98 -1 3 C-4.3 3 -7.6 3 -11 3 C-11 4.32 -11 5.64 -11 7 C-9.19 6.84 -9.19 6.84 0 6 C-0.33 7.32 -0.66 8.64 -1 10 C-6.33 10 -11.67 10 -17 10 C-17 9.34 -17 8.68 -17 8 C-16.34 7.67 -15.68 7.34 -15 7 C-14.38 4.94 -14.38 4.94 -14 3 C-14.66 3 -15.32 3 -16 3 C-16 2.34 -16 1.68 -16 1 C-15.62 1.02 -15.62 1.02 -13.69 1.12 C-8.04 0.86 -6.19 -1.02 0 0 Z " fill="#6F7376" transform="translate(415,142)"/>
<path d="M0 0 C0.66 0 1.32 0 2 0 C2.33 4.62 2.66 9.24 3 14 C3.66 14 4.32 14 5 14 C4.67 15.65 4.34 17.3 4 19 C3.34 19 2.68 19 2 19 C1.67 19.66 1.34 20.32 1 21 C-0.32 20.67 -1.64 20.34 -3 20 C-3 18 -3 18 -2 17 C-2.31 15 -2.31 15 -3 13 C-3.66 12.67 -4.32 12.34 -5 12 C-4.34 12 -3.68 12 -3 12 C-2.67 10.02 -2.34 8.04 -2 6 C-1.34 6 -0.68 6 0 6 C0 4.02 0 2.04 0 0 Z " fill="#F9FCFC" transform="translate(396,131)"/>
<path d="M0 0 C4.95 0 9.9 0 15 0 C15 0.99 15 1.98 15 3 C11.37 3 7.74 3 4 3 C4 5.64 4 8.28 4 11 C7.3 11 10.6 11 14 11 C14 11.33 14 11.66 14 12 C10.37 12 6.74 12 3 12 C2.67 11.01 2.34 10.02 2 9 C1.67 14.61 1.34 20.22 1 26 C0.67 26 0.34 26 0 26 C0 17.42 0 8.84 0 0 Z " fill="#303232" transform="translate(217,82)"/>
<path d="M0 0 C5.28 0 10.56 0 16 0 C16 1.98 16 3.96 16 6 C10.72 6 5.44 6 0 6 C0 4.02 0 2.04 0 0 Z " fill="#FAFDFD" transform="translate(322,133)"/>
<path d="M0 0 C0.33 0.66 0.66 1.32 1 2 C6.61 2.33 12.22 2.66 18 3 C18.33 3.99 18.66 4.98 19 6 C21.06 6.69 21.06 6.69 23 7 C19.49 8.6 16.86 9.22 13 9 C13 8.34 13 7.68 13 7 C11.02 7.17 11.02 7.17 1 8 C1.33 6.68 1.66 5.36 2 4 C1.34 3.67 0.68 3.34 0 3 C0 2.01 0 1.02 0 0 Z " fill="#C3EBF8" transform="translate(411,80)"/>
<path d="M0 0 C-0.33 0.99 -0.66 1.98 -1 3 C-1.66 3 -2.32 3 -3 3 C-3.33 3.99 -3.66 4.98 -4 6 C-5.32 5.67 -6.64 5.34 -8 5 C-8.33 5.99 -8.66 6.98 -9 8 C-9.66 7.67 -10.32 7.34 -11 7 C-10.67 6.01 -10.34 5.02 -10 4 C-10.33 4.16 -10.33 4.16 -12 5 C-13.54 5.07 -15.08 5.08 -16.62 5.06 C-17.03 5.06 -17.03 5.06 -19.1 5.04 C-19.41 5.03 -19.41 5.03 -21 5 C-21 3.68 -21 2.36 -21 1 C-13.97 0.15 -7.08 -0.12 0 0 Z " fill="#F6F8F6" transform="translate(425,144)"/>
<path d="M0 0 C1.32 0.66 2.64 1.32 4 2 C3.45 5.37 2.95 7.08 1 10 C0.34 10 -0.32 10 -1 10 C-1.33 10.99 -1.66 11.98 -2 13 C-3.65 13 -5.3 13 -7 13 C-6.12 6.25 -6.12 6.25 -5 4 C-4.34 4 -3.68 4 -3 4 C-3 3.34 -3 2.68 -3 2 C-2.01 1.34 -1.02 0.68 0 0 Z " fill="#DEE7ED" transform="translate(444,127)"/>
<path d="M0 0 C2.29 -0.05 4.58 -0.09 6.88 -0.12 C7.51 -0.14 7.51 -0.14 10.74 -0.2 C14 0 14 0 16 2 C15.67 2.66 15.34 3.32 15 4 C14.03 4.12 13.06 4.25 12.06 4.38 C9 5 9 5 7.62 7.06 C7.42 7.7 7.21 8.34 7 9 C6.01 9 5.02 9 4 9 C0 3.86 0 3.86 0 0 Z " fill="#FAFDFC" transform="translate(221,96)"/>
<path d="M0 0 C2.94 0.12 2.94 0.12 6 1 C7.38 3.56 7.38 3.56 8 6 C8.33 4.02 8.66 2.04 9 0 C9.99 0 10.98 0 12 0 C11.53 4.15 11.01 6.99 8 10 C7.01 10 6.02 10 5 10 C5 7.69 5 5.38 5 3 C3.02 3 1.04 3 -1 3 C-0.67 5.31 -0.34 7.62 0 10 C-0.66 10 -1.32 10 -2 10 C-2 9.34 -2 8.68 -2 8 C-3.65 8.66 -5.3 9.32 -7 10 C-7 9.34 -7 8.68 -7 8 C-6.34 7.67 -5.68 7.34 -5 7 C-4.38 4.94 -4.38 4.94 -4 3 C-4.66 3 -5.32 3 -6 3 C-6 2.34 -6 1.68 -6 1 C-5.6 1.01 -5.6 1.01 -3.56 1.06 C-1 1 -1 1 0 0 Z " fill="#6A6A74" transform="translate(404,191)"/>
<path d="M0 0 C0.99 0.33 1.98 0.66 3 1 C2.59 6.19 1.91 9.41 -2 13 C-4.75 13.31 -4.75 13.31 -7 13 C-6.59 7.73 -5.71 4.82 -2 1 C-1.34 0.67 -0.68 0.34 0 0 Z " fill="#F3F3F1" transform="translate(388,127)"/>
<path d="M0 0 C0.56 0.27 1.11 0.54 1.69 0.81 C1.4 4.59 1.17 7.14 -1.06 10.25 C-3.72 12.1 -5.14 12.16 -8.31 11.81 C-8.06 7.51 -7.66 5.27 -5 1.81 C-2.31 -0.19 -2.31 -0.19 0 0 Z " fill="#F5F3ED" transform="translate(389.3125,177.1875)"/>
<path d="M0 0 C0.38 2.12 0.38 2.12 0 5 C-1.7 7.37 -3.57 9.38 -6 11 C-7.32 11 -8.64 11 -10 11 C-10.25 5.38 -10.25 5.38 -8 2 C-7.34 2 -6.68 2 -6 2 C-6 1.34 -6 0.68 -6 0 C-3.51 -1.25 -2.59 -0.78 0 0 Z " fill="#EFF4F3" transform="translate(391,69)"/>
<path d="M0 0 C2.17 0.51 4 1 6 2 C5.67 4.31 5.34 6.62 5 9 C1.99 10 -0.87 10.49 -4 11 C-5.34 11.32 -6.67 11.64 -8 12 C-6.12 6.25 -6.12 6.25 -5 4 C-2.36 4.33 0.28 4.66 3 5 C1.68 4.67 0.36 4.34 -1 4 C-0.67 2.68 -0.34 1.36 0 0 Z " fill="#F7F7F4" transform="translate(389,117)"/>
<path d="M0 0 C0.66 0 1.32 0 2 0 C2.86 1.62 3.72 3.25 4.56 4.88 C5.04 5.78 5.51 6.68 6 7.62 C6.17 8.01 6.17 8.01 7 10 C6.67 10.66 6.34 11.32 6 12 C2.37 12 -1.26 12 -5 12 C-3.69 7.77 -2.06 3.93 0 0 Z " fill="#0D0D0D" transform="translate(263,2)"/>
<path d="M0 0 C2 2 2 2 2 5 C2.66 5 3.32 5 4 5 C3.25 10.75 3.25 10.75 1 13 C-1.6 13.2 -1.6 13.2 -4.62 13.12 C-5.13 13.12 -5.13 13.12 -7.66 13.07 C-8.43 13.05 -9.21 13.02 -10 13 C-10 12.34 -10 11.68 -10 11 C-7.5 9.38 -7.5 9.38 -5 8 C-5 8.99 -5 9.98 -5 11 C-4.01 11 -3.02 11 -2 11 C-1.93 10.37 -1.93 10.37 -1.56 7.19 C-1.26 4.57 -0.84 2.53 0 0 Z " fill="#CEEEF3" transform="translate(450,131)"/>
<path d="M0 0 C4.94 3.7 5.92 6.06 7 12 C7.23 14.77 7.3 17.53 7.31 20.31 C7.32 21.01 7.32 21.7 7.33 22.41 C7.28 26.09 7.02 28.87 5 32 C3.8 29.6 3.89 28.11 3.9 25.43 C3.9 24.98 3.9 24.98 3.91 22.71 C3.92 21.78 3.93 20.84 3.94 19.88 C3.94 18.93 3.95 17.99 3.95 17.01 C3.96 14.67 3.98 12.34 4 10 C3.34 10 2.68 10 2 10 C1.34 6.7 0.68 3.4 0 0 Z " fill="#CFF0F9" transform="translate(378,92)"/>
<path d="M0 0 C0.99 0.33 1.98 0.66 3 1 C2.76 5.23 2.6 7.37 -0.38 10.5 C-1.24 10.99 -2.11 11.49 -3 12 C-3.99 11.67 -4.98 11.34 -6 11 C-5.76 6.77 -5.6 4.63 -2.62 1.5 C-1.76 1 -0.89 0.51 0 0 Z " fill="#EAEDE4" transform="translate(386,19)"/>
<path d="M0 0 C0.37 0.01 0.37 0.01 2.24 0.04 C4.06 0.08 5.87 0.13 7.69 0.19 C7.69 0.85 7.69 1.51 7.69 2.19 C8.49 2.33 9.3 2.48 10.12 2.62 C12.69 3.19 12.69 3.19 13.69 4.19 C13.73 6.19 13.73 8.19 13.69 10.19 C12.7 9.86 11.71 9.53 10.69 9.19 C11.35 9.19 12.01 9.19 12.69 9.19 C12.36 7.54 12.03 5.89 11.69 4.19 C9.71 4.19 7.73 4.19 5.69 4.19 C5.69 3.53 5.69 2.87 5.69 2.19 C3.29 2.47 0.9 2.76 -1.5 3.06 C-1.84 3.1 -1.84 3.1 -3.54 3.3 C-7.42 3.79 -10.76 4.55 -14.31 6.19 C-13.31 3.19 -13.31 3.19 -11.27 1.51 C-7.47 -0.19 -4.07 -0.14 0 0 Z " fill="#CEEEFA" transform="translate(285.3125,81.8125)"/>
<path d="M0 0 C1.11 3.33 0.95 5.63 0 9 C-0.33 9.5 -0.33 9.5 -2 12 C-2.99 12 -3.98 12 -5 12 C-5 13.98 -5 15.96 -5 18 C-3.68 18.33 -2.36 18.66 -1 19 C-0.67 21.64 -0.34 24.28 0 27 C0.66 27 1.32 27 2 27 C1.67 27.66 1.34 28.32 1 29 C-1.87 27.57 -2.58 25.54 -4.12 22.75 C-4.66 21.8 -5.2 20.84 -5.76 19.86 C-7.04 16.91 -7.43 15.16 -7 12 C-6.34 11.34 -5.68 10.68 -5 10 C-4.38 7.88 -4.38 7.88 -4 6 C-3.34 6 -2.68 6 -2 6 C-1.34 4.02 -0.68 2.04 0 0 Z " fill="#EDFBFD" transform="translate(132,106)"/>
<path d="M0 0 C1.32 0.33 2.64 0.66 4 1 C3.67 2.98 3.34 4.96 3 7 C3.99 7.33 4.98 7.66 6 8 C4 11 4 11 1.84 11.73 C1.43 11.81 1.43 11.81 -0.62 12.19 C-1.44 12.35 -2.26 12.5 -3.1 12.67 C-3.73 12.78 -4.35 12.89 -5 13 C-5.33 14.98 -5.66 16.96 -6 19 C-8.19 16.81 -8.28 15.89 -9 13 C-9.66 12.34 -10.32 11.68 -11 11 C-9.68 11 -8.36 11 -7 11 C-3.13 9.38 -1.35 8.53 1 5 C0.62 2.31 0.62 2.31 0 0 Z " fill="#577483" transform="translate(408,76)"/>
<path d="M0 0 C0.66 0.33 1.32 0.66 2 1 C1.67 2.98 1.34 4.96 1 7 C0.01 7 -0.98 7 -2 7 C-2.33 8.32 -2.66 9.64 -3 11 C-4.32 10.67 -5.64 10.34 -7 10 C-6.34 10 -5.68 10 -5 10 C-4.67 8.68 -4.34 7.36 -4 6 C-5.65 6 -7.3 6 -9 6 C-9.33 4.35 -9.66 2.7 -10 1 C-7.98 1.03 -5.96 1.07 -3.95 1.1 C-2 1 -2 1 0 0 Z " fill="#B7E1ED" transform="translate(429,137)"/>
<path d="M0 0 C0 1.32 0 2.64 0 4 C-0.66 4 -1.32 4 -2 4 C-1.98 4.39 -1.98 4.39 -1.88 6.38 C-2 9 -2 9 -4 11 C-3.34 11.66 -2.68 12.32 -2 13 C-3 14 -3 14 -5.56 14.06 C-6.37 14.04 -7.17 14.02 -8 14 C-7.83 13.7 -7.83 13.7 -7 12.19 C-6 10 -6 10 -6 7 C-6.66 7 -7.32 7 -8 7 C-8 5.35 -8 3.7 -8 2 C-2.25 0 -2.25 0 0 0 Z " fill="#F6F7F5" transform="translate(408,24)"/>
<path d="M0 0 C0.66 0.33 1.32 0.66 2 1 C1.2 1.89 0.39 2.77 -0.44 3.69 C-2.7 6.38 -3.68 8.42 -4 12 C-3.07 11.69 -2.14 11.38 -1.19 11.06 C0.88 10.38 2.94 9.69 5 9 C5 9.66 5 10.32 5 11 C0 15.07 0 15.07 -3.81 14.81 C-6 14 -6 14 -7 13 C-7.41 10.05 -7.56 7.9 -5.95 5.3 C-4.15 3.11 -2.56 1.28 0 0 Z " fill="#544A4B" transform="translate(385,177)"/>
<path d="M0 0 C3.31 0.56 3.31 0.56 6.31 2.56 C4.99 2.56 3.67 2.56 2.31 2.56 C2.31 3.22 2.31 3.88 2.31 4.56 C0.81 6.75 0.81 6.75 -1.69 8.56 C-4.51 8.61 -6.89 8.12 -9.69 7.56 C-4.95 0.75 -4.95 0.75 0 0 Z " fill="#F0FAFC" transform="translate(577.6875,103.4375)"/>
<path d="M0 0 C7.75 -0.12 7.75 -0.12 10 1 C10 1.99 10 2.98 10 4 C10.99 4.33 11.98 4.66 13 5 C12.34 5.66 11.68 6.32 11 7 C6.9 6.53 2.95 5.16 -1 4 C-0.67 2.68 -0.34 1.36 0 0 Z " fill="#BCEBFB" transform="translate(604,99)"/>
<path d="M0 0 C0.66 0.33 1.32 0.66 2 1 C2.04 3 2.04 5 2 7 C1 8 1 8 -1.41 8.02 C-2.45 7.97 -3.49 7.93 -4.57 7.88 C-5.69 7.83 -6.82 7.78 -7.97 7.73 C-8.57 7.7 -8.57 7.7 -11.56 7.56 C-12.75 7.51 -13.94 7.46 -15.16 7.4 C-18.11 7.27 -21.05 7.14 -24 7 C-24 12.94 -24 18.88 -24 25 C-24.33 25 -24.66 25 -25 25 C-25 18.73 -25 12.46 -25 6 C-16.75 6 -8.5 6 0 6 C0 4.02 0 2.04 0 0 Z " fill="#ECFCFE" transform="translate(92,83)"/>
<path d="M0 0 C1.98 0 3.96 0 6 0 C6 2.31 6 4.62 6 7 C6.66 7.33 7.32 7.66 8 8 C6.75 9.5 6.75 9.5 5 11 C3.68 11 2.36 11 1 11 C1 9.68 1 8.36 1 7 C0.69 4.66 0.36 2.33 0 0 Z " fill="#D9E0DE" transform="translate(403,194)"/>
<path d="M0 0 C0.99 0 1.98 0 3 0 C3 0.66 3 1.32 3 2 C2.34 2 1.68 2 1 2 C1 2.99 1 3.98 1 5 C1.99 5 2.98 5 4 5 C4.33 4.01 4.66 3.02 5 2 C6.32 2.33 7.64 2.66 9 3 C8.62 3.29 8.62 3.29 6.69 4.75 C1.94 8.73 0.51 11.97 -1 18 C-1.33 18 -1.66 18 -2 18 C-2.05 15.75 -2.09 13.5 -2.12 11.25 C-2.15 10 -2.17 8.74 -2.2 7.45 C-2.02 4.27 -1.69 2.63 0 0 Z " fill="#F9F9F1" transform="translate(378,64)"/>
<path d="M0 0 C-0.33 1.98 -0.66 3.96 -1 6 C-4 7 -4 7 -6.94 7.31 C-10.5 8.11 -11.6 9.35 -14 12 C-14.66 12 -15.32 12 -16 12 C-15.67 10.68 -15.34 9.36 -15 8 C-14.01 8 -13.02 8 -12 8 C-12 7.01 -12 6.02 -12 5 C-11.34 4.67 -10.68 4.34 -10 4 C-9.67 3.01 -9.34 2.02 -9 1 C-8.34 1 -7.68 1 -7 1 C-7 1.66 -7 2.32 -7 3 C-6.01 3.33 -5.02 3.66 -4 4 C-4 3.01 -4 2.02 -4 1 C-2 0 -2 0 0 0 Z " fill="#F3F1EB" transform="translate(393,12)"/>
<path d="M0 0 C2.97 0.33 5.94 0.66 9 1 C8.67 1.66 8.34 2.32 8 3 C6.35 3 4.7 3 3 3 C2.67 3.66 2.34 4.32 2 5 C-0.44 7.62 -0.44 7.62 -3 10 C-3.66 10 -4.32 10 -5 10 C-5 7.69 -5 5.38 -5 3 C-5.66 3 -6.32 3 -7 3 C-7 2.34 -7 1.68 -7 1 C-5.68 1 -4.36 1 -3 1 C-2.67 2.65 -2.34 4.3 -2 6 C-1.34 4.02 -0.68 2.04 0 0 Z " fill="#949794" transform="translate(463,142)"/>
<path d="M0 0 C0 3.01 -0.52 4.87 -1.5 7.69 C-1.64 8.09 -1.64 8.09 -2.34 10.14 C-2.56 10.75 -2.78 11.37 -3 12 C0.78 10.91 3.47 10.09 6 7 C6 11 6 11 4.44 12.75 C1.19 14.41 -1.41 14.21 -5 14 C-6.05 9.61 -6.36 7.68 -4.19 3.62 C-2 1 -2 1 0 0 Z " fill="#4E4446" transform="translate(384,128)"/>
<path d="M0 0 C6.27 0 12.54 0 19 0 C19 0.99 19 1.98 19 3 C12.73 3 6.46 3 0 3 C0 2.01 0 1.02 0 0 Z " fill="#B8EDFC" transform="translate(407,110)"/>
<path d="M0 0 C0.66 0 1.32 0 2 0 C1.53 4.98 0.09 8.07 -3 12 C-3.66 12 -4.32 12 -5 12 C-5.66 13.32 -6.32 14.64 -7 16 C-8.43 13.65 -9.09 12.52 -8.62 9.75 C-8.42 9.17 -8.21 8.59 -8 8 C-7.34 8 -6.68 8 -6 8 C-6 7.34 -6 6.68 -6 6 C-4.68 6 -3.36 6 -2 6 C-1.86 5.2 -1.71 4.39 -1.56 3.56 C-1 1 -1 1 0 0 Z " fill="#F5FCFE" transform="translate(126,100)"/>
<path d="M0 0 C1.46 2.65 2 3.89 2 7 C1.34 7 0.68 7 0 7 C0 12.61 0 18.22 0 24 C-0.66 24 -1.32 24 -2 24 C-2 18.39 -2 12.78 -2 7 C-2.66 7 -3.32 7 -4 7 C-3.67 6.01 -3.34 5.02 -3 4 C-2.34 4 -1.68 4 -1 4 C-0.67 2.68 -0.34 1.36 0 0 Z " fill="#CAEDF5" transform="translate(399,89)"/>
<path d="M0 0 C0.33 0 0.66 0 1 0 C1.49 25.22 1.49 25.22 -2.57 29.75 C-3.04 30.17 -3.52 30.58 -4 31 C-4.66 28.69 -5.32 26.38 -6 24 C-4.68 24.33 -3.36 24.66 -2 25 C-2.02 23.7 -2.04 22.4 -2.06 21.06 C-2.08 19.71 -2.07 18.35 -2 17 C-1.67 16.67 -1.34 16.34 -1 16 C-0.76 13.31 -0.58 10.64 -0.44 7.94 C-0.42 7.56 -0.42 7.56 -0.31 5.64 C-0.2 3.76 -0.1 1.88 0 0 Z " fill="#BFEBFA" transform="translate(382,104)"/>
<path d="M0 0 C1.32 0.33 2.64 0.66 4 1 C4 1.66 4 2.32 4 3 C9.61 3 15.22 3 21 3 C21 3.33 21 3.66 21 4 C16.71 4 12.42 4 8 4 C8 5.32 8 6.64 8 8 C7.01 7.84 7.01 7.84 2 7 C2 6.34 2 5.68 2 5 C1.34 5 0.68 5 0 5 C0 3.35 0 1.7 0 0 Z " fill="#C1E8F1" transform="translate(267,135)"/>
<path d="M0 0 C0.99 0.33 1.98 0.66 3 1 C2.34 1 1.68 1 1 1 C1 1.66 1 2.32 1 3 C0.76 3.21 0.76 3.21 -0.44 4.25 C-2.59 6.66 -2.65 8.85 -3 12 C0.46 10.75 3.15 9.32 6 7 C6 7.99 6 8.98 6 10 C1.13 14.08 1.13 14.08 -2.81 13.81 C-5 13 -5 13 -6 12 C-5.83 7.51 -5.43 5.49 -2.44 2.06 C-1.63 1.38 -0.83 0.7 0 0 Z " fill="#483F42" transform="translate(384,68)"/>
<path d="M0 0 C2 2 2 2 2 5 C5.63 5 9.26 5 13 5 C13 5.66 13 6.32 13 7 C9.7 7.33 6.4 7.66 3 8 C2.88 9.13 2.75 10.27 2.62 11.44 C2.42 12.61 2.21 13.79 2 15 C1.67 15.16 1.67 15.16 0 16 C0 10.72 0 5.44 0 0 Z " fill="#232225" transform="translate(218,89)"/>
<path d="M0 0 C0.66 0 1.32 0 2 0 C1.86 5.62 -0.66 8.43 -4.21 12.46 C-6 14 -6 14 -9 14 C-9 13.34 -9 12.68 -9 12 C-8.01 11.67 -7.02 11.34 -6 11 C-6 7.7 -6 4.4 -6 1 C-5.01 1 -4.02 1 -3 1 C-2.34 2.32 -1.68 3.64 -1 5 C-0.67 3.35 -0.34 1.7 0 0 Z " fill="#898A8A" transform="translate(437,86)"/>
<path d="M0 0 C3.96 0 7.92 0 12 0 C11.67 1.65 11.34 3.3 11 5 C10.39 4.92 9.77 4.83 9.14 4.75 C8.33 4.64 7.52 4.54 6.69 4.44 C5.89 4.33 5.09 4.23 4.26 4.12 C2 4 2 4 -1 5 C-0.67 3.35 -0.34 1.7 0 0 Z " fill="#FDFDFD" transform="translate(302,133)"/>
<path d="M0 0 C2 4 2 4 1.56 6.62 C0 9 0 9 -3.62 10.31 C-4.74 10.54 -5.85 10.77 -7 11 C-7 11.66 -7 12.32 -7 13 C-9.64 12.34 -12.28 11.68 -15 11 C-14.67 10.01 -14.34 9.02 -14 8 C-13.28 8.23 -12.56 8.45 -11.81 8.69 C-8.24 9.08 -6.86 8.04 -4 6 C-4 6.99 -4 7.98 -4 9 C-3.34 9 -2.68 9 -2 9 C-1.34 6.03 -0.68 3.06 0 0 Z " fill="#F2F0EA" transform="translate(393,72)"/>
<path d="M0 0 C0.99 0 1.98 0 3 0 C3 0.66 3 1.32 3 2 C3.66 2 4.32 2 5 2 C5.66 3.98 6.32 5.96 7 8 C4.36 7.34 1.72 6.68 -1 6 C-1.33 7.32 -1.66 8.64 -2 10 C-2.99 10 -3.98 10 -5 10 C-3.67 6.41 -2.23 3.12 0 0 Z " fill="#EAFAFD" transform="translate(117,126)"/>
<path d="M0 0 C0.66 0.33 1.32 0.66 2 1 C3.16 4.47 3.07 7.36 3 11 C-0.63 11 -4.26 11 -8 11 C-8 10.34 -8 9.68 -8 9 C-5.36 9 -2.72 9 0 9 C0 8.01 0 7.02 0 6 C-0.99 5.67 -1.98 5.34 -3 5 C-2.01 4.67 -1.02 4.34 0 4 C0 2.68 0 1.36 0 0 Z " fill="#F1F9FD" transform="translate(168,107)"/>
<path d="M0 0 C1.65 0 3.3 0 5 0 C4.67 1.32 4.34 2.64 4 4 C4.66 4 5.32 4 6 4 C6 4.66 6 5.32 6 6 C6.66 6 7.32 6 8 6 C8 6.66 8 7.32 8 8 C5.36 8 2.72 8 0 8 C0 5.36 0 2.72 0 0 Z " fill="#F7F7F7" transform="translate(221,85)"/>
<path d="M0 0 C-0.19 0.97 -0.37 1.94 -0.56 2.94 C-0.71 3.95 -0.85 4.96 -1 6 C0.88 7.88 4.04 7.39 6.56 7.56 C7.76 7.65 8.96 7.73 10.19 7.82 C11.12 7.88 12.05 7.94 13 8 C9.26 10.5 6.56 9.9 2.25 9.12 C1.08 8.92 -0.09 8.72 -1.3 8.51 C-2.19 8.34 -3.08 8.17 -4 8 C-4 6.35 -4 4.7 -4 3 C-4.66 2.67 -5.32 2.34 -6 2 C-3 0 -3 0 0 0 Z " fill="#EDF8FA" transform="translate(416,74)"/>
<path d="M0 0 C1.32 0.33 2.64 0.66 4 1 C5.12 4.31 5.12 4.31 6 8 C5.67 8.5 5.67 8.5 4 11 C0.88 11.19 0.88 11.19 -2 11 C-2 10.34 -2 9.68 -2 9 C-1.34 9 -0.68 9 0 9 C0.66 6.36 1.32 3.72 2 1 C1.34 0.67 0.68 0.34 0 0 Z " fill="#989993" transform="translate(442,76)"/>
<path d="M0 0 C0.66 0 1.32 0 2 0 C2.33 4.62 2.66 9.24 3 14 C3.66 14 4.32 14 5 14 C4.67 15.32 4.34 16.64 4 18 C2.68 16.68 1.36 15.36 0 14 C0.66 14 1.32 14 2 14 C1.34 12.68 0.68 11.36 0 10 C-0.66 10 -1.32 10 -2 10 C-2 8.68 -2 7.36 -2 6 C-1.34 6 -0.68 6 0 6 C0 4.02 0 2.04 0 0 Z " fill="#E9F3F5" transform="translate(396,131)"/>
<path d="M0 0 C2 1.12 2 1.12 4 3 C4.25 6.19 4.25 6.19 4 9 C4.66 9 5.32 9 6 9 C5.67 10.32 5.34 11.64 5 13 C4.34 13 3.68 13 3 13 C3 12.34 3 11.68 3 11 C2.34 11 1.68 11 1 11 C0.64 9.54 0.29 8.08 -0.06 6.62 C-0.16 6.22 -0.16 6.22 -0.66 4.16 C-1 2 -1 2 0 0 Z " fill="#BCECFD" transform="translate(108,101)"/>
<path d="M0 0 C4 8 4 8 4 12 C4.66 12 5.32 12 6 12 C6 12.66 6 13.32 6 14 C3.67 14.38 1.34 14.71 -1 15 C-2 14 -2 14 -2.06 11.44 C-2.04 10.63 -2.02 9.83 -2 9 C-1.34 9.66 -0.68 10.32 0 11 C0 7.37 0 3.74 0 0 Z " fill="#F0F8F9" transform="translate(466,128)"/>
<path d="M0 0 C0.66 0.33 1.32 0.66 2 1 C1.67 1.66 1.34 2.32 1 3 C0.77 8.54 0.77 8.54 2 11 C-0.31 11.33 -2.62 11.66 -5 12 C-5.31 8.81 -5.31 8.81 -5 5 C-2.5 2.06 -2.5 2.06 0 0 Z " fill="#E2DDD3" transform="translate(435,132)"/>
<path d="M0 0 C2.31 0 4.62 0 7 0 C7 1.98 7 3.96 7 6 C4.69 6 2.38 6 0 6 C0 4.02 0 2.04 0 0 Z " fill="#BFECFB" transform="translate(315,133)"/>
<path d="M0 0 C2.31 0 4.62 0 7 0 C5.8 2.49 4.55 4.68 3 7 C3.99 7.33 4.98 7.66 6 8 C5 9 5 9 2.44 9.06 C1.63 9.04 0.83 9.02 0 9 C0.66 7.02 1.32 5.04 2 3 C1.34 3 0.68 3 0 3 C0 2.01 0 1.02 0 0 Z " fill="#BBB8B9" transform="translate(392,37)"/>
<path d="M0 0 C1.04 3.13 0.93 3.99 0 7 C1.32 7.33 2.64 7.66 4 8 C3.67 8.66 3.34 9.32 3 10 C3.66 10.33 4.32 10.66 5 11 C5 11.66 5 12.32 5 13 C5.66 13 6.32 13 7 13 C6.67 13.99 6.34 14.98 6 16 C6 15.34 6 14.68 6 14 C4.35 14.33 2.7 14.66 1 15 C0.88 14.36 0.75 13.72 0.62 13.06 C0.42 12.38 0.21 11.7 0 11 C-0.66 10.67 -1.32 10.34 -2 10 C-1.34 6.7 -0.68 3.4 0 0 Z " fill="#D2D8DB" transform="translate(393,181)"/>
<path d="M0 0 C0.33 0 0.66 0 1 0 C1.14 1.07 1.29 2.15 1.44 3.25 C2.34 9.3 2.34 9.3 3 11 C3.99 11.33 4.98 11.66 6 12 C5.34 12 4.68 12 4 12 C4.33 13.32 4.66 14.64 5 16 C4.34 15.67 3.68 15.34 3 15 C3 14.34 3 13.68 3 13 C2.34 13 1.68 13 1 13 C0.67 12.01 0.34 11.02 0 10 C-0.33 10.16 -0.33 10.16 -2 11 C-1.12 3.38 -1.12 3.38 0 0 Z " fill="#F7FAF8" transform="translate(396,61)"/>
<path d="M0 0 C0.33 0 0.66 0 1 0 C1 5.28 1 10.56 1 16 C0.34 16 -0.32 16 -1 16 C-1 17.32 -1 18.64 -1 20 C-1.99 19.67 -2.98 19.34 -4 19 C-3.45 15.63 -2.95 13.92 -1 11 C-0.59 8.3 -0.59 8.3 -0.38 5.31 C-0.3 4.32 -0.23 3.32 -0.15 2.3 C-0.1 1.54 -0.05 0.78 0 0 Z " fill="#CEEFFC" transform="translate(540,117)"/>
<path d="M0 0 C0.99 0.33 1.98 0.66 3 1 C2.67 3.31 2.34 5.62 2 8 C-1.33 9.11 -4.53 9.54 -8 10 C-8 8.35 -8 6.7 -8 5 C-5.03 5.33 -2.06 5.66 1 6 C0.67 4.02 0.34 2.04 0 0 Z " fill="#F8F9F4" transform="translate(448,118)"/>
<path d="M0 0 C2.31 0.33 4.62 0.66 7 1 C7.62 3.88 7.62 3.88 8 7 C7.34 7.66 6.68 8.32 6 9 C6 7.68 6 6.36 6 5 C4.35 5.33 2.7 5.66 1 6 C0.67 4.02 0.34 2.04 0 0 Z " fill="#F6F5F4" transform="translate(448,112)"/>
<path d="M0 0 C2.31 0.33 4.62 0.66 7 1 C6.74 3.34 6.41 5.68 6 8 C5.67 8.16 5.67 8.16 4 9 C3.71 8.2 3.42 7.39 3.12 6.56 C2 4 2 4 0 3 C0 2.01 0 1.02 0 0 Z " fill="#F3EDE3" transform="translate(387,168)"/>
<path d="M0 0 C0.66 1.32 1.32 2.64 2 4 C-0.88 6.4 -3.56 8.47 -7 10 C-7.99 9.34 -8.98 8.68 -10 8 C-10 7.34 -10 6.68 -10 6 C-7.69 5.01 -5.38 4.02 -3 3 C-3 3.66 -3 4.32 -3 5 C-2.34 5 -1.68 5 -1 5 C-0.67 3.35 -0.34 1.7 0 0 Z " fill="#F1F2F1" transform="translate(390,27)"/>
<path d="M0 0 C0.33 0.66 0.66 1.32 1 2 C-0.32 2.33 -1.64 2.66 -3 3 C-3 3.66 -3 4.32 -3 5 C-5.31 5 -7.62 5 -10 5 C-10 3.68 -10 2.36 -10 1 C-6.7 0.67 -3.4 0.34 0 0 Z " fill="#EDF3F3" transform="translate(414,144)"/>
<path d="M0 0 C3.67 3.08 4.57 5.25 5 10 C2.36 10 -0.28 10 -3 10 C-3 9.01 -3 8.02 -3 7 C-1.35 7.33 0.3 7.66 2 8 C1.34 5.36 0.68 2.72 0 0 Z " fill="#D2EFFA" transform="translate(132,134)"/>
<path d="M0 0 C2.57 2.57 2.54 4.48 3 8 C2.34 8 1.68 8 1 8 C0.34 9.32 -0.32 10.64 -1 12 C-1.99 11.67 -2.98 11.34 -4 11 C-3.34 11 -2.68 11 -2 11 C-1.93 10.37 -1.93 10.37 -1.56 7.19 C-1.26 4.57 -0.84 2.53 0 0 Z " fill="#90BBD0" transform="translate(450,131)"/>
<path d="M0 0 C2.17 0.51 4 1 6 2 C5.67 4.31 5.34 6.62 5 9 C4.01 9 3.02 9 2 9 C2.33 8.01 2.66 7.02 3 6 C1.68 5.67 0.36 5.34 -1 5 C0.32 5 1.64 5 3 5 C1.68 4.67 0.36 4.34 -1 4 C-0.67 2.68 -0.34 1.36 0 0 Z " fill="#EDE8DF" transform="translate(389,117)"/>
<path d="M0 0 C0.99 0 1.98 0 3 0 C2.91 2.27 2.8 4.54 2.69 6.81 C2.63 8.08 2.57 9.34 2.51 10.64 C2 14 2 14 0.46 15.95 C-0.02 16.3 -0.5 16.64 -1 17 C-1 16.01 -1 15.02 -1 14 C-1.66 13.67 -2.32 13.34 -3 13 C-2.5 12.34 -2.01 11.68 -1.5 11 C0.48 7.03 0.22 4.4 0 0 Z " fill="#F3F7F7" transform="translate(438,82)"/>
<path d="M0 0 C3.53 0.46 6.2 1.69 9.36 3.3 C7.36 4.3 7.36 4.3 4.93 3.87 C0.06 3.1 -4.72 3.23 -9.64 3.3 C-6.65 -0.26 -4.44 -0.13 0 0 Z " fill="#E5FAFD" transform="translate(286.63671875,87.6953125)"/>
<path d="M0 0 C2 3 2 3 2 5 C0.35 5 -1.3 5 -3 5 C-3 4.34 -3 3.68 -3 3 C-4.98 3.17 -4.98 3.17 -15 4 C-15 3.34 -15 2.68 -15 2 C-14 1.94 -13 1.88 -11.97 1.82 C-10.68 1.73 -9.39 1.65 -8.06 1.56 C-6.77 1.48 -5.49 1.4 -4.16 1.32 C-1 1 -1 1 0 0 Z " fill="#BDEEFD" transform="translate(427,84)"/>
<path d="M0 0 C-1 3 -1 3 -3.81 4.75 C-6.96 5.99 -7.97 6.28 -11 5 C-10.67 4.01 -10.34 3.02 -10 2 C-6.4 0.48 -3.95 0 0 0 Z " fill="#CCE9F2" transform="translate(408,82)"/>
<path d="M0 0 C5.94 0 11.88 0 18 0 C18.33 2.31 18.66 4.62 19 7 C18.34 6.67 17.68 6.34 17 6 C17 5.34 17 4.68 17 4 C16.34 4 15.68 4 15 4 C15 3.01 15 2.02 15 1 C10.05 1 5.1 1 0 1 C0 0.67 0 0.34 0 0 Z " fill="#D3D3D3" transform="translate(217,81)"/>
<path d="M0 0 C2.31 2.5 2.31 2.5 4 5 C3.67 5.17 3.67 5.17 2 6 C2 5.34 2 4.68 2 4 C-2.29 3.34 -6.58 2.68 -11 2 C-11 1.67 -11 1.34 -11 1 C-3.04 -0.48 -3.04 -0.48 0 0 Z " fill="#F0F9FE" transform="translate(371,82)"/>
<path d="M0 0 C0.99 0.33 1.98 0.66 3 1 C4.26 4.77 3.37 6.37 2 10 C1.67 10 1.34 10 1 10 C1 8.02 1 6.04 1 4 C-0.32 4 -1.64 4 -3 4 C-3 4.66 -3 5.32 -3 6 C-3.66 6 -4.32 6 -5 6 C-5 5.01 -5 4.02 -5 3 C-4.34 3 -3.68 3 -3 3 C-2.67 2.34 -2.34 1.68 -2 1 C-2 1.66 -2 2.32 -2 3 C-1.01 3 -0.02 3 1 3 C0.67 2.01 0.34 1.02 0 0 Z " fill="#EFF2EE" transform="translate(459,139)"/>
<path d="M0 0 C0.33 0 0.66 0 1 0 C1.22 5.44 1.1 9.87 -1 15 C-1.66 15 -2.32 15 -3 15 C-2.67 11.7 -2.34 8.4 -2 5 C-1.34 5 -0.68 5 0 5 C0 3.35 0 1.7 0 0 Z " fill="#26232D" transform="translate(392,128)"/>
<path d="M0 0 C0.99 0 1.98 0 3 0 C3 2.97 3 5.94 3 9 C0.69 8.67 -1.62 8.34 -4 8 C-4 7.34 -4 6.68 -4 6 C-3.01 5.67 -2.02 5.34 -1 5 C-0.67 3.35 -0.34 1.7 0 0 Z " fill="#F8F7EF" transform="translate(429,88)"/>
<path d="M0 0 C0.99 0.33 1.98 0.66 3 1 C2.81 3.31 2.81 3.31 2 6 C-0.56 7.81 -0.56 7.81 -3 9 C-3 6.69 -3 4.38 -3 2 C-2.01 2 -1.02 2 0 2 C0 1.34 0 0.68 0 0 Z " fill="#EEF2EE" transform="translate(396,87)"/>
<path d="M0 0 C3 0 3 0 6 1 C6 4.3 6 7.6 6 11 C5.34 10.67 4.68 10.34 4 10 C3.38 7.44 3.38 7.44 3 5 C2.01 4.67 1.02 4.34 0 4 C-0.33 3.01 -0.66 2.02 -1 1 C-0.67 0.67 -0.34 0.34 0 0 Z " fill="#F4F9F9" transform="translate(442,72)"/>
<path d="M0 0 C0 1.32 0 2.64 0 4 C-0.66 4.66 -1.32 5.32 -2 6 C-5.62 5.62 -5.62 5.62 -9 5 C-8.19 3.06 -8.19 3.06 -7 1 C-4 0 -4 0 0 0 Z " fill="#F9F8F9" transform="translate(410,74)"/>
<path d="M0 0 C1.65 0 3.3 0 5 0 C4.93 0.32 4.93 0.32 4.56 1.94 C3.83 5.94 3.41 9.96 3 14 C2.01 14 1.02 14 0 14 C0.66 9.51 1.7 5.33 3 1 C2.01 0.67 1.02 0.34 0 0 Z " fill="#AEBFC7" transform="translate(394,167)"/>
<path d="M0 0 C-0.33 1.32 -0.66 2.64 -1 4 C-3.97 4 -6.94 4 -10 4 C-10.33 3.01 -10.66 2.02 -11 1 C-9.54 0.83 -8.08 0.67 -6.62 0.5 C-5.81 0.41 -5 0.31 -4.16 0.22 C-2 0 -2 0 0 0 Z " fill="#95979A" transform="translate(415,148)"/>
<path d="M0 0 C0.33 0 0.66 0 1 0 C1 2.31 1 4.62 1 7 C-2.27 8.88 -5.28 9.49 -9 10 C-9 9.34 -9 8.68 -9 8 C-7.02 6.63 -4.95 5.5 -2.85 4.32 C-1 3 -1 3 0 0 Z " fill="#F3F9F5" transform="translate(377,133)"/>
<path d="M0 0 C0.66 0.33 1.32 0.66 2 1 C1.67 1.56 1.34 2.11 1 2.69 C-0.16 5.37 -0.38 7.11 0 10 C0.99 10.66 1.98 11.32 3 12 C1.12 12.62 1.12 12.62 -1 13 C-3 11 -3 11 -3.31 8.19 C-2.97 4.68 -2.01 2.85 0 0 Z " fill="#231721" transform="translate(438,130)"/>
<path d="M0 0 C0.25 6.62 0.25 6.62 -2 10 C-2.66 10 -3.32 10 -4 10 C-3.34 7.69 -2.68 5.38 -2 3 C-3.98 3 -5.96 3 -8 3 C-5.23 1.15 -3.36 0 0 0 Z " fill="#F0FBFB" transform="translate(138,96)"/>
<path d="M0 0 C2.31 0 4.62 0 7 0 C7 0.66 7 1.32 7 2 C8.32 2.33 9.64 2.66 11 3 C11 3.33 11 3.66 11 4 C7.37 4 3.74 4 0 4 C0.66 3.34 1.32 2.68 2 2 C1.34 1.34 0.68 0.68 0 0 Z " fill="#94ABB4" transform="translate(417,87)"/>
<path d="M0 0 C1.32 0 2.64 0 4 0 C4.12 2.38 4.12 2.38 4 5 C3.34 5.66 2.68 6.32 2 7 C2.66 7.66 3.32 8.32 4 9 C3 10 3 10 0.44 10.06 C-0.37 10.04 -1.17 10.02 -2 10 C-1.71 9.44 -1.42 8.89 -1.12 8.31 C0.04 5.92 1.03 3.48 2 1 C1.34 0.67 0.68 0.34 0 0 Z " fill="#959392" transform="translate(402,28)"/>
<path d="M0 0 C-0.99 3.3 -1.98 6.6 -3 10 C-3.66 10 -4.32 10 -5 10 C-5.33 10.66 -5.66 11.32 -6 12 C-5.33 8.19 -4.27 4.65 -3 1 C-3.99 0.67 -4.98 0.34 -6 0 C-2.25 -1.12 -2.25 -1.12 0 0 Z " fill="#2A2A33" transform="translate(396,11)"/>
<path d="M0 0 C0.99 0 1.98 0 3 0 C3.99 2.97 4.98 5.94 6 9 C5.34 9 4.68 9 4 9 C4 8.34 4 7.68 4 7 C2.35 7.66 0.7 8.32 -1 9 C-1 8.34 -1 7.68 -1 7 C-0.34 6.67 0.32 6.34 1 6 C1.62 3.94 1.62 3.94 2 2 C1.34 2 0.68 2 0 2 C0 1.34 0 0.68 0 0 Z " fill="#766D6B" transform="translate(398,192)"/>
<path d="M0 0 C0.66 0.66 1.32 1.32 2 2 C1.34 2 0.68 2 0 2 C-0.33 4.64 -0.66 7.28 -1 10 C-1.99 10 -2.98 10 -4 10 C-3.38 3.48 -3.38 3.48 -1.44 1.06 C-1.2 0.89 -1.2 0.89 0 0 Z " fill="#DDE9F1" transform="translate(385,179)"/>
<path d="M0 0 C2.64 0.33 5.28 0.66 8 1 C8 1.99 8 2.98 8 4 C7.01 4 6.02 4 5 4 C5 3.34 5 2.68 5 2 C4.34 2 3.68 2 3 2 C3 2.66 3 3.32 3 4 C3.66 4.66 4.32 5.32 5 6 C3.35 6.33 1.7 6.66 0 7 C0 4.69 0 2.38 0 0 Z " fill="#FAFBFA" transform="translate(392,161)"/>
<path d="M0 0 C2 1 2 1 4 3 C3.67 3.99 3.34 4.98 3 6 C0.69 6 -1.62 6 -4 6 C-3.67 4.68 -3.34 3.36 -3 2 C-2.01 2.33 -1.02 2.66 0 3 C0 2.01 0 1.02 0 0 Z " fill="#959393" transform="translate(468,146)"/>
<path d="M0 0 C1.38 1.29 2.71 2.63 4 4 C4 4.66 4 5.32 4 6 C6.31 6 8.62 6 11 6 C11 6.33 11 6.66 11 7 C7.37 7 3.74 7 0 7 C0 4.69 0 2.38 0 0 Z " fill="#CEE4EE" transform="translate(221,99)"/>
<path d="M0 0 C-2.62 4.88 -2.62 4.88 -6 6 C-6.12 5.36 -6.25 4.72 -6.38 4.06 C-6.48 3.72 -6.48 3.72 -7 2 C-7.66 1.67 -8.32 1.34 -9 1 C-6.04 -0.48 -3.26 -0.06 0 0 Z " fill="#FCFCFC" transform="translate(272,0)"/>
<path d="M0 0 C0.82 0.16 0.82 0.16 5 1 C4.67 3.31 4.34 5.62 4 8 C2.68 7.67 1.36 7.34 0 7 C0.66 7 1.32 7 2 7 C2.33 5.68 2.66 4.36 3 3 C2.01 3 1.02 3 0 3 C0 2.01 0 1.02 0 0 Z " fill="#39424A" transform="translate(422,140)"/>
<path d="M0 0 C1.32 0.33 2.64 0.66 4 1 C4 1.66 4 2.32 4 3 C4.99 3.33 5.98 3.66 7 4 C6.34 4.66 5.68 5.32 5 6 C2.38 5.62 2.38 5.62 0 5 C0 3.35 0 1.7 0 0 Z " fill="#BEEBFD" transform="translate(267,135)"/>
<path d="M0 0 C4.29 0 8.58 0 13 0 C13 0.33 13 0.66 13 1 C10.69 1.5 10.69 1.5 -1 4 C-0.67 2.68 -0.34 1.36 0 0 Z " fill="#EDFAFE" transform="translate(475,97)"/>
<path d="M0 0 C0.99 0 1.98 0 3 0 C3.12 2.38 3.12 2.38 3 5 C2.34 5.66 1.68 6.32 1 7 C1.66 7.33 2.32 7.66 3 8 C1.68 8 0.36 8 -1 8 C-1.12 2.25 -1.12 2.25 0 0 Z " fill="#F7F7F7" transform="translate(272,181)"/>
<path d="M0 0 C-0.33 0.99 -0.66 1.98 -1 3 C-3.31 3 -5.62 3 -8 3 C-8 2.34 -8 1.68 -8 1 C-8.66 0.67 -9.32 0.34 -10 0 C-6.72 -1.64 -3.57 -0.52 0 0 Z " fill="#7C8991" transform="translate(415,142)"/>
<path d="M0 0 C0.66 0 1.32 0 2 0 C2 1.98 2 3.96 2 6 C1.34 6 0.68 6 0 6 C-0.33 7.98 -0.66 9.96 -1 12 C-1.66 11.67 -2.32 11.34 -3 11 C-2.01 7.37 -1.02 3.74 0 0 Z " fill="#D0DEE5" transform="translate(394,131)"/>
<path d="M0 0 C0.66 0 1.32 0 2 0 C1.52 5 -0.03 7.98 -3 12 C-4.42 7.75 -2.76 5.57 -0.88 1.69 C-0.59 1.13 -0.3 0.57 0 0 Z " fill="#E9F9FC" transform="translate(126,100)"/>
<path d="M0 0 C2.29 -0.05 4.58 -0.09 6.88 -0.12 C7.51 -0.14 7.51 -0.14 10.74 -0.2 C14 0 14 0 16 2 C15.67 2.66 15.34 3.32 15 4 C13.68 4 12.36 4 11 4 C11 3.34 11 2.68 11 2 C7.37 1.67 3.74 1.34 0 1 C0 0.67 0 0.34 0 0 Z " fill="#EEF1F3" transform="translate(221,96)"/>
<path d="M0 0 C0.25 2.31 0.25 2.31 0 5 C-2 6.81 -2 6.81 -4 8 C-3.67 5.69 -3.34 3.38 -3 1 C-3.99 0.67 -4.98 0.34 -6 0 C-3.51 -1.25 -2.59 -0.78 0 0 Z " fill="#E8E1D6" transform="translate(391,69)"/>
<path d="M0 0 C0 1.65 0 3.3 0 5 C-3.3 5 -6.6 5 -10 5 C-7 3 -7 3 -4 3 C-4 2.34 -4 1.68 -4 1 C-2 0 -2 0 0 0 Z " fill="#EDFCFC" transform="translate(172,139)"/>
<path d="M0 0 C0.41 0.45 0.82 0.91 1.25 1.38 C3 3 3 3 7 5 C4.03 5.66 1.06 6.32 -2 7 C-2 5.68 -2 4.36 -2 3 C-1.34 3 -0.68 3 0 3 C0 2.01 0 1.02 0 0 Z " fill="#EFEFEF" transform="translate(274,129)"/>
<path d="M0 0 C2.64 0 5.28 0 8 0 C8.66 1.65 9.32 3.3 10 5 C9.01 4.67 8.02 4.34 7 4 C6.67 3.34 6.34 2.68 6 2 C4.68 2 3.36 2 2 2 C2 2.99 2 3.98 2 5 C1.34 5 0.68 5 0 5 C0 3.35 0 1.7 0 0 Z " fill="#D3EFF9" transform="translate(102,99)"/>
<path d="M0 0 C2 2 2 2 2 5 C5.63 5 9.26 5 13 5 C13 5.33 13 5.66 13 6 C12.23 6.06 11.46 6.12 10.66 6.18 C9.66 6.27 8.66 6.35 7.62 6.44 C7.13 6.48 7.13 6.48 4.6 6.68 C2 7 2 7 0 8 C0 5.36 0 2.72 0 0 Z " fill="#040303" transform="translate(218,89)"/>
<path d="M0 0 C1.65 0.33 3.3 0.66 5 1 C4.26 1.58 3.51 2.16 2.75 2.75 C0.34 4.72 -1.84 6.76 -4 9 C-4 7.35 -4 5.7 -4 4 C-2.68 3.67 -1.36 3.34 0 3 C0 2.01 0 1.02 0 0 Z " fill="#EFEBDD" transform="translate(382,66)"/>
<path d="M0 0 C1.54 2.41 2.1 3.5 1.54 6.36 C1.24 7.15 0.94 7.94 0.62 8.75 C0.33 9.55 0.03 10.35 -0.27 11.17 C-0.51 11.78 -0.75 12.38 -1 13 C-1.66 13 -2.32 13 -3 13 C-2.34 8.51 -1.3 4.33 0 0 Z " fill="#D2DFE6" transform="translate(395,11)"/>
<path d="M0 0 C0.33 1.32 0.66 2.64 1 4 C-2.73 4.88 -6.17 5.09 -10 5 C-9.67 3.68 -9.34 2.36 -9 1 C-9 1.66 -9 2.32 -9 3 C-2.25 2.25 -2.25 2.25 0 0 Z " fill="#DBD8CF" transform="translate(388,139)"/>
<path d="M0 0 C0.66 0 1.32 0 2 0 C2 2.64 2 5.28 2 8 C0.68 7.67 -0.64 7.34 -2 7 C-1.12 2.25 -1.12 2.25 0 0 Z " fill="#CAEDF4" transform="translate(397,124)"/>
<path d="M0 0 C1.65 0 3.3 0 5 0 C5.33 0.66 5.66 1.32 6 2 C4.56 4.62 4.56 4.62 3 7 C0.64 4.64 0.51 3.22 0 0 Z " fill="#C2DEDE" transform="translate(376,128)"/>
<path d="M0 0 C2.31 0 4.62 0 7 0 C7.33 0.99 7.66 1.98 8 3 C5.36 3 2.72 3 0 3 C0 2.01 0 1.02 0 0 Z " fill="#B9EEFE" transform="translate(524,99)"/>
<path d="M0 0 C1.32 0.33 2.64 0.66 4 1 C3.67 2.98 3.34 4.96 3 7 C3.99 7.33 4.98 7.66 6 8 C5.34 8.66 4.68 9.32 4 10 C4 9.34 4 8.68 4 8 C2.68 8 1.36 8 0 8 C0.19 7.05 0.37 6.1 0.56 5.12 C1 2 1 2 0 0 Z " fill="#7D8F93" transform="translate(408,76)"/>
<path d="M0 0 C0.99 0 1.98 0 3 0 C3.37 4.55 3.37 4.55 1.5 6.81 C1 7.2 0.51 7.6 0 8 C0 7.01 0 6.02 0 5 C-0.66 5 -1.32 5 -2 5 C-2 4.34 -2 3.68 -2 3 C-1.34 3 -0.68 3 0 3 C0 2.01 0 1.02 0 0 Z " fill="#EAE6E1" transform="translate(441,77)"/>
<path d="M0 0 C1.65 0 3.3 0 5 0 C4.69 1.88 4.69 1.88 4 4 C3.5 4.33 3.5 4.33 1 6 C0.34 5.34 -0.32 4.68 -1 4 C-0.34 4 0.32 4 1 4 C0.67 2.68 0.34 1.36 0 0 Z " fill="#F9F8F7" transform="translate(378,176)"/>
<path d="M0 0 C1.32 0 2.64 0 4 0 C4 2.97 4 5.94 4 9 C3.34 9 2.68 9 2 9 C2 6.69 2 4.38 2 2 C1.34 2 0.68 2 0 2 C0 1.34 0 0.68 0 0 Z " fill="#4F5058" transform="translate(456,143)"/>
<path d="M0 0 C1.32 0.33 2.64 0.66 4 1 C4 1.66 4 2.32 4 3 C5.32 3 6.64 3 8 3 C8 3.99 8 4.98 8 6 C4.66 5.4 2.54 4.26 0 2 C0 1.34 0 0.68 0 0 Z " fill="#CBEFFA" transform="translate(272,108)"/>
<path d="M0 0 C0.66 0 1.32 0 2 0 C2.99 2.31 3.98 4.62 5 7 C2.5 6.17 0.33 5.21 -2 4 C-1.34 2.68 -0.68 1.36 0 0 Z " fill="#232323" transform="translate(263,2)"/>
<path d="M0 0 C0.99 0 1.98 0 3 0 C2.57 4.75 1.67 6.92 -2 10 C-1.86 9.46 -1.71 8.93 -1.56 8.38 C-0.91 5.6 -0.45 2.81 0 0 Z " fill="#AFB3B2" transform="translate(413,191)"/>
<path d="M0 0 C0.66 0.33 1.32 0.66 2 1 C1.45 4.37 0.95 6.08 -1 9 C-1.66 9 -2.32 9 -3 9 C-2.44 5.66 -1.65 2.97 0 0 Z " fill="#E7E6DE" transform="translate(446,128)"/>
<path d="M0 0 C0.5 0 0.5 0 3.04 0.03 C3.81 0.04 4.58 0.05 5.38 0.06 C5.71 0.72 6.03 1.38 6.38 2.06 C3.08 1.73 -0.23 1.4 -3.62 1.06 C-3.62 1.72 -3.62 2.38 -3.62 3.06 C-4.95 3.06 -6.26 3.06 -7.62 3.06 C-7.62 2.4 -7.62 1.74 -7.62 1.06 C-4.98 -0.26 -2.95 -0.03 0 0 Z " fill="#D5F2FC" transform="translate(607.625,97.9375)"/>
<path d="M0 0 C2.06 0.44 2.06 0.44 4 1 C3.74 3.34 3.41 5.68 3 8 C2.67 8.16 2.67 8.16 1 9 C1.04 8.05 1.08 7.1 1.12 6.12 C1 3 1 3 -1 1 C-0.67 0.67 -0.34 0.34 0 0 Z " fill="#E4DCCF" transform="translate(387,177)"/>
<path d="M0 0 C0.66 0.99 1.32 1.98 2 3 C1.34 4.32 0.68 5.64 0 7 C-0.33 6.34 -0.66 5.68 -1 5 C-1.99 5.66 -2.98 6.32 -4 7 C-4.99 6.34 -5.98 5.68 -7 5 C-6.36 4.88 -5.72 4.75 -5.06 4.62 C-4.38 4.42 -3.7 4.21 -3 4 C-2.67 3.34 -2.34 2.68 -2 2 C-1.34 2 -0.68 2 0 2 C0 1.34 0 0.68 0 0 Z " fill="#848891" transform="translate(445,135)"/>
<path d="M0 0 C1.65 0.33 3.3 0.66 5 1 C5 1.99 5 2.98 5 4 C4.34 4 3.68 4 3 4 C2.67 4.66 2.34 5.32 2 6 C0.35 5.67 -1.3 5.34 -3 5 C-3 4.67 -3 4.34 -3 4 C-1.35 4 0.3 4 2 4 C2 3.34 2 2.68 2 2 C1.34 2 0.68 2 0 2 C0 1.34 0 0.68 0 0 Z " fill="#C3D9E0" transform="translate(470,138)"/>
<path d="M0 0 C0.99 0.33 1.98 0.66 3 1 C2.38 7.52 2.38 7.52 0.44 9.94 C-0.04 10.29 -0.51 10.64 -1 11 C-0.44 7.66 0.35 4.97 2 2 C1.34 2 0.68 2 0 2 C0 1.34 0 0.68 0 0 Z " fill="#EEE8DE" transform="translate(388,127)"/>
<path d="M0 0 C0.99 0.33 1.98 0.66 3 1 C2.67 1.66 2.34 2.32 2 3 C3.32 2.67 4.64 2.34 6 2 C5.67 3.65 5.34 5.3 5 7 C4.67 6.01 4.34 5.02 4 4 C3.34 4 2.68 4 2 4 C1.67 4.66 1.34 5.32 1 6 C0.67 4.02 0.34 2.04 0 0 Z " fill="#F6F6F1" transform="translate(426,97)"/>
<path d="M0 0 C2.08 3.66 2.08 3.66 1.38 6.69 C0 9 0 9 -2.12 9.81 C-2.74 9.87 -3.36 9.94 -4 10 C-3.34 9.67 -2.68 9.34 -2 9 C-1.37 6.93 -1.37 6.93 -0.88 4.44 C-0.71 3.61 -0.54 2.78 -0.37 1.93 C-0.25 1.3 -0.12 0.66 0 0 Z " fill="#B1BDC8" transform="translate(393,72)"/>
<path d="M0 0 C0.33 0 0.66 0 1 0 C0.67 2.31 0.34 4.62 0 7 C-0.99 7 -1.98 7 -3 7 C-3.33 6.01 -3.66 5.02 -4 4 C-3.34 4 -2.68 4 -2 4 C-1.34 2.68 -0.68 1.36 0 0 Z " fill="#ECE2D6" transform="translate(393,60)"/>
<path d="M0 0 C0.99 0 1.98 0 3 0 C2.65 3.24 2.44 4.62 -0.06 6.81 C-0.7 7.2 -1.34 7.6 -2 8 C-1.34 5.36 -0.68 2.72 0 0 Z " fill="#F3F7F8" transform="translate(427,144)"/>
<path d="M0 0 C1.11 3.33 0.84 5.62 0 9 C-0.66 9 -1.32 9 -2 9 C-2 6.36 -2 3.72 -2 1 C-1.34 0.67 -0.68 0.34 0 0 Z " fill="#101621" transform="translate(448,133)"/>
<path d="M0 0 C1.06 1.88 1.06 1.88 2 4 C1.67 4.66 1.34 5.32 1 6 C-1.56 6.62 -1.56 6.62 -4 7 C-3.67 6.01 -3.34 5.02 -3 4 C-2.34 4 -1.68 4 -1 4 C-0.67 2.68 -0.34 1.36 0 0 Z " fill="#A0B4B2" transform="translate(399,89)"/>
<path d="M0 0 C0.33 0 0.66 0 1 0 C1 2.31 1 4.62 1 7 C-0.65 7 -2.3 7 -4 7 C-2.68 4.69 -1.36 2.38 0 0 Z " fill="#F3F6F6" transform="translate(407,29)"/>
<path d="M0 0 C0.99 0.16 0.99 0.16 6 1 C6 1.66 6 2.32 6 3 C4.02 3.33 2.04 3.66 0 4 C0 2.68 0 1.36 0 0 Z " fill="#EFFBFE" transform="translate(490,132)"/>
<path d="M0 0 C0.99 0.33 1.98 0.66 3 1 C2.67 3.31 2.34 5.62 2 8 C0.68 8 -0.64 8 -2 8 C-1.34 7.34 -0.68 6.68 0 6 C0.12 2.88 0.12 2.88 0 0 Z " fill="#EAE7D3" transform="translate(448,118)"/>
<path d="M0 0 C0.33 0 0.66 0 1 0 C1.37 7.51 1.37 7.51 -0.5 10 C-0.75 10.16 -0.75 10.16 -2 11 C-1.12 3.38 -1.12 3.38 0 0 Z " fill="#A7C0CD" transform="translate(396,61)"/>
<path d="M0 0 C0.33 0.66 0.66 1.32 1 2 C-0.32 2 -1.64 2 -3 2 C-3 2.99 -3 3.98 -3 5 C-4.32 4.67 -5.64 4.34 -7 4 C-6 2 -6 2 -2.94 0.88 C-2.45 0.73 -2.45 0.73 0 0 Z " fill="#F1F7F3" transform="translate(471,144)"/>
<path d="M0 0 C0.66 0.99 1.32 1.98 2 3 C1.12 6.19 1.12 6.19 0 9 C-0.66 9 -1.32 9 -2 9 C-1.12 2.25 -1.12 2.25 0 0 Z " fill="#D4EEF7" transform="translate(383,131)"/>
<path d="M0 0 C-0.75 4.75 -0.75 4.75 -3 7 C-3 5.35 -3 3.7 -3 2 C-3.99 1.67 -4.98 1.34 -6 1 C-3.92 0.45 -2.16 0 0 0 Z " fill="#26272E" transform="translate(398,117)"/>
<path d="M0 0 C0.66 0.33 1.32 0.66 2 1 C1.67 2.32 1.34 3.64 1 5 C0.34 5 -0.32 5 -1 5 C-1.33 5.99 -1.66 6.98 -2 8 C-1.12 1.12 -1.12 1.12 0 0 Z " fill="#CBDDE3" transform="translate(382,22)"/>
<path d="M0 0 C0.33 0.66 0.66 1.32 1 2 C1.66 2.33 2.32 2.66 3 3 C3 3.99 3 4.98 3 6 C2.34 6 1.68 6 1 6 C0.67 6.66 0.34 7.32 0 8 C-0.98 4.95 -0.98 3.05 0 0 Z " fill="#F1F1F1" transform="translate(396,199)"/>
<path d="M0 0 C0 1.65 0 3.3 0 5 C-1.65 5 -3.3 5 -5 5 C-5 4.34 -5 3.68 -5 3 C-1.42 0 -1.42 0 0 0 Z " fill="#F1F7F3" transform="translate(445,139)"/>
<path d="M0 0 C0.69 2.49 1 4.38 1 7 C0.01 7 -0.98 7 -2 7 C-2.12 4.62 -2.12 4.62 -2 2 C-1.34 1.34 -0.68 0.68 0 0 Z " fill="#F9F8F6" transform="translate(441,133)"/>
<path d="M0 0 C0.99 0.33 1.98 0.66 3 1 C1.68 3.64 0.36 6.28 -1 9 C-2.26 5.23 -1.37 3.63 0 0 Z " fill="#EDFAFD" transform="translate(106,128)"/>
<path d="M0 0 C0.99 0.33 1.98 0.66 3 1 C3.33 3.64 3.66 6.28 4 9 C1.81 6.81 1.72 5.89 1 3 C0.34 2.34 -0.32 1.68 -1 1 C-0.67 0.67 -0.34 0.34 0 0 Z " fill="#323B4A" transform="translate(398,86)"/>
<path d="M0 0 C0.82 0.17 0.82 0.17 5 1 C5 1.66 5 2.32 5 3 C6.32 3.33 7.64 3.66 9 4 C7.35 4.33 5.7 4.66 4 5 C3.9 4.36 3.79 3.72 3.69 3.06 C3.46 2.38 3.23 1.7 3 1 C2.01 0.67 1.02 0.34 0 0 Z " fill="#BBD6DB" transform="translate(425,83)"/>
<path d="M0 0 C1.32 0 2.64 0 4 0 C4 1.32 4 2.64 4 4 C2.68 4 1.36 4 0 4 C0 2.68 0 1.36 0 0 Z " fill="#E7E7E7" transform="translate(367,74)"/>
<path d="M0 0 C0.66 0 1.32 0 2 0 C1.25 5.75 1.25 5.75 -1 8 C-1.04 5.67 -1.04 3.33 -1 1 C-0.67 0.67 -0.34 0.34 0 0 Z " fill="#1D1925" transform="translate(389,24)"/>
<path d="M0 0 C0.82 0.16 0.82 0.16 5 1 C4.67 2.32 4.34 3.64 4 5 C2.68 4.67 1.36 4.34 0 4 C0 2.68 0 1.36 0 0 Z M1 1 C2 3 2 3 2 3 Z " fill="#F2F1ED" transform="translate(399,188)"/>
<path d="M0 0 C0.33 0 0.66 0 1 0 C1 2.31 1 4.62 1 7 C0.01 7 -0.98 7 -2 7 C-1.12 1.12 -1.12 1.12 0 0 Z " fill="#C8D7E2" transform="translate(396,174)"/>
<path d="M0 0 C-1.25 1.5 -1.25 1.5 -3 3 C-4.32 3 -5.64 3 -7 3 C-7 2.34 -7 1.68 -7 1 C-3.38 -1.12 -3.38 -1.12 0 0 Z " fill="#B8B8B8" transform="translate(460,153)"/>
<path d="M0 0 C1.65 0 3.3 0 5 0 C5 0.99 5 1.98 5 3 C3.35 3 1.7 3 0 3 C0 2.01 0 1.02 0 0 Z " fill="#0A0A0A" transform="translate(362,27)"/>
<path d="M0 0 C1.98 0 3.96 0 6 0 C5.67 0.5 5.67 0.5 4 3 C2.68 2.67 1.36 2.34 0 2 C0 1.34 0 0.68 0 0 Z " fill="#EDECE7" transform="translate(393,149)"/>
<path d="M0 0 C0 3.52 -0.82 4.37 -3 7 C-3.33 6.01 -3.66 5.02 -4 4 C-2.68 2.68 -1.36 1.36 0 0 Z " fill="#463E4C" transform="translate(384,128)"/>
<path d="M0 0 C1.32 0 2.64 0 4 0 C4 0.99 4 1.98 4 3 C2.35 3 0.7 3 -1 3 C-0.67 2.01 -0.34 1.02 0 0 Z " fill="#FDFDF9" transform="translate(388,123)"/>
<path d="M0 0 C0.66 0 1.32 0 2 0 C1.45 3.37 0.95 5.08 -1 8 C-1.12 2.25 -1.12 2.25 0 0 Z " fill="#F0FAFC" transform="translate(374,120)"/>
<path d="M0 0 C0.66 0 1.32 0 2 0 C2.62 2.88 2.62 2.88 3 6 C2.34 6.66 1.68 7.32 1 8 C1 6.68 1 5.36 1 4 C0.34 3.67 -0.32 3.34 -1 3 C-0.34 3 0.32 3 1 3 C0.67 2.01 0.34 1.02 0 0 Z " fill="#DCE2E9" transform="translate(453,113)"/>
<path d="M0 0 C1.32 0 2.64 0 4 0 C4 0.66 4 1.32 4 2 C3.34 2.33 3.34 2.33 0 4 C-0.66 3.34 -1.32 2.68 -2 2 C-1.34 1.34 -0.68 0.68 0 0 Z " fill="#BBEDFD" transform="translate(232,102)"/>
<path d="M0 0 C0 0.66 0 1.32 0 2 C-1.98 2 -3.96 2 -6 2 C-6 1.34 -6 0.68 -6 0 C-3.51 -1.25 -2.59 -0.78 0 0 Z " fill="#6F706D" transform="translate(446,85)"/>
<path d="M0 0 C0.66 1.32 1.32 2.64 2 4 C2.66 4 3.32 4 4 4 C4 4.66 4 5.32 4 6 C2.68 6 1.36 6 0 6 C0 4.02 0 2.04 0 0 Z " fill="#C9D6DE" transform="translate(381,74)"/>
<path d="M0 0 C0.66 0 1.32 0 2 0 C2 1.65 2 3.3 2 5 C1.34 4.67 0.68 4.34 0 4 C-0.99 4.33 -1.98 4.66 -3 5 C-3 4.34 -3 3.68 -3 3 C-2.34 3 -1.68 3 -1 3 C-0.67 2.01 -0.34 1.02 0 0 Z " fill="#847F73" transform="translate(386,27)"/>
<path d="M0 0 C0.66 0 1.32 0 2 0 C2 1.32 2 2.64 2 4 C0.68 4.33 -0.64 4.66 -2 5 C-1.12 1.12 -1.12 1.12 0 0 Z " fill="#F8FCF4" transform="translate(387,20)"/>
<path d="M0 0 C-0.33 1.98 -0.66 3.96 -1 6 C-1.66 5.67 -2.32 5.34 -3 5 C-3.62 2.94 -3.62 2.94 -4 1 C-2 0 -2 0 0 0 Z " fill="#DBD0BE" transform="translate(393,12)"/>
<path d="M0 0 C1.06 1.88 1.06 1.88 2 4 C1.67 4.66 1.34 5.32 1 6 C0.01 5.67 -0.98 5.34 -2 5 C-1.34 3.35 -0.68 1.7 0 0 Z " fill="#E2EBEE" transform="translate(383,123)"/>
<path d="M0 0 C0.66 0 1.32 0 2 0 C2.66 1.98 3.32 3.96 4 6 C3.01 6 2.02 6 1 6 C0.67 4.02 0.34 2.04 0 0 Z " fill="#EAF7FD" transform="translate(108,112)"/>
<path d="M0 0 C1.65 0 3.3 0 5 0 C3.25 3.88 3.25 3.88 1 5 C1.33 3.68 1.66 2.36 2 1 C1.34 0.67 0.68 0.34 0 0 Z " fill="#95999A" transform="translate(394,37)"/>
<path d="M0 0 C0.99 0 1.98 0 3 0 C3.33 1.32 3.66 2.64 4 4 C3.01 4.33 2.02 4.66 1 5 C0.67 3.35 0.34 1.7 0 0 Z " fill="#E0E0E0" transform="translate(366,25)"/>
<path d="M0 0 C0.99 0.33 1.98 0.66 3 1 C3 2.32 3 3.64 3 5 C2.34 5 1.68 5 1 5 C1 4.34 1 3.68 1 3 C0.34 2.67 -0.32 2.34 -1 2 C-0.67 1.34 -0.34 0.68 0 0 Z " fill="#FBFEF6" transform="translate(386,179)"/>
<path d="M0 0 C1.65 1.32 3.3 2.64 5 4 C3.68 4.33 2.36 4.66 1 5 C0.67 3.35 0.34 1.7 0 0 Z " fill="#2C2B36" transform="translate(436,138)"/>
<path d="M0 0 C0.99 0.33 1.98 0.66 3 1 C2.34 2.65 1.68 4.3 1 6 C0.34 5.34 -0.32 4.68 -1 4 C-0.62 1.88 -0.62 1.88 0 0 Z " fill="#FCFEFB" transform="translate(387,128)"/>
<path d="M0 0 C1.65 0.99 3.3 1.98 5 3 C3.68 3.33 2.36 3.66 1 4 C0.67 2.68 0.34 1.36 0 0 Z " fill="#CAEDF6" transform="translate(293,112)"/>
<path d="M0 0 C0.99 0.66 1.98 1.32 3 2 C3 2.66 3 3.32 3 4 C1.35 4 -0.3 4 -2 4 C-1.34 2.68 -0.68 1.36 0 0 Z " fill="#F2FAFD" transform="translate(536,108)"/>
<path d="M0 0 C0.82 0.17 0.82 0.17 5 1 C5 1.99 5 2.98 5 4 C3.35 3.67 1.7 3.34 0 3 C0 2.01 0 1.02 0 0 Z " fill="#C1E2EF" transform="translate(397,84)"/>
<path d="M0 0 C0.66 0.33 1.32 0.66 2 1 C1.34 2.32 0.68 3.64 0 5 C-0.66 5 -1.32 5 -2 5 C-1.12 1.12 -1.12 1.12 0 0 Z " fill="#E8E8E8" transform="translate(274,74)"/>
<path d="M0 0 C0.99 0 1.98 0 3 0 C2.34 1.98 1.68 3.96 1 6 C0.67 6 0.34 6 0 6 C0 4.02 0 2.04 0 0 Z " fill="#F7F5F1" transform="translate(391,40)"/>
<path d="M0 0 C0.66 0.99 1.32 1.98 2 3 C1.67 3.66 1.34 4.32 1 5 C-0.32 4.67 -1.64 4.34 -3 4 C-2.34 4 -1.68 4 -1 4 C-0.67 2.68 -0.34 1.36 0 0 Z " fill="#959296" transform="translate(425,143)"/>
<path d="M0 0 C1.65 0 3.3 0 5 0 C4.67 1.32 4.34 2.64 4 4 C2.68 2.68 1.36 1.36 0 0 Z " fill="#F5F3E5" transform="translate(396,145)"/>
<path d="M0 0 C0.99 0 1.98 0 3 0 C2.67 1.65 2.34 3.3 2 5 C1.34 4.34 0.68 3.68 0 3 C0 2.01 0 1.02 0 0 Z " fill="#F7FDFB" transform="translate(438,82)"/>
<path d="M0 0 C1.32 0.33 2.64 0.66 4 1 C3.67 2.32 3.34 3.64 3 5 C2.67 4.34 2.34 3.68 2 3 C1.34 3 0.68 3 0 3 C0 2.01 0 1.02 0 0 Z " fill="#CCCAC7" transform="translate(400,28)"/>
<path d="M0 0 C0.66 1.32 1.32 2.64 2 4 C1.34 4.33 1.34 4.33 -2 6 C-1.34 4.02 -0.68 2.04 0 0 Z " fill="#8AA0B0" transform="translate(390,27)"/>
<path d="M0 0 C0.66 0.33 1.32 0.66 2 1 C1.34 2.32 0.68 3.64 0 5 C0 4.34 0 3.68 0 3 C-0.66 3 -1.32 3 -2 3 C-2 2.34 -2 1.68 -2 1 C-1.34 0.67 -0.68 0.34 0 0 Z " fill="#EAEAEA" transform="translate(261,1)"/>
<path d="M0 0 C0.66 0.33 1.32 0.66 2 1 C2 2.65 2 4.3 2 6 C1.86 5.68 1.86 5.68 1.12 4.06 C0 2 0 2 -2 1 C-1.34 0.67 -0.68 0.34 0 0 Z " fill="#DDDDDD" transform="translate(265,0)"/>
<path d="M0 0 C1.32 0 2.64 0 4 0 C4 0.99 4 1.98 4 3 C3.01 3 2.02 3 1 3 C0.67 2.01 0.34 1.02 0 0 Z " fill="#161616" transform="translate(363,183)"/>
<path d="M0 0 C0.66 0.99 1.32 1.98 2 3 C1.34 4.32 0.68 5.64 0 7 C-1.12 2.25 -1.12 2.25 0 0 Z " fill="#5F6A64" transform="translate(445,135)"/>
<path d="M0 0 C0.99 0 1.98 0 3 0 C2.34 1.65 1.68 3.3 1 5 C0.67 5 0.34 5 0 5 C0 3.35 0 1.7 0 0 Z " fill="#EEFDFE" transform="translate(109,123)"/>
<path d="M0 0 C0.99 0.99 1.98 1.98 3 3 C2.67 3.17 2.67 3.17 1 4 C0.01 3.34 -0.98 2.68 -2 2 C-1.34 1.34 -0.68 0.68 0 0 Z " fill="#CFCEC7" transform="translate(407,76)"/>
<path d="M0 0 C0.66 0 1.32 0 2 0 C1.67 1.32 1.34 2.64 1 4 C0.34 3.67 -0.32 3.34 -1 3 C-0.67 2.01 -0.34 1.02 0 0 Z " fill="#EEE7D4" transform="translate(407,194)"/>
<path d="M0 0 C0.33 0.99 0.66 1.98 1 3 C0.01 3.33 -0.98 3.66 -2 4 C-2 3.01 -2 2.02 -2 1 C-1.34 0.67 -0.68 0.34 0 0 Z " fill="#3B4444" transform="translate(391,188)"/>
<path d="M0 0 C0.82 0.16 0.82 0.16 5 1 C2 3 2 3 0 3 C0 2.01 0 1.02 0 0 Z " fill="#F8F5EF" transform="translate(392,165)"/>
<path d="M0 0 C0.66 0 1.32 0 2 0 C1.34 1.65 0.68 3.3 0 5 C-0.56 3.06 -0.56 3.06 -1 1 C-0.67 0.67 -0.34 0.34 0 0 Z " fill="#F5F1DC" transform="translate(388,133)"/>
<path d="M0 0 C0.5 0.33 0.5 0.33 3 2 C2.34 2.66 1.68 3.32 1 4 C0.34 3.67 -0.32 3.34 -1 3 C-0.67 2.01 -0.34 1.02 0 0 Z " fill="#BDC3CA" transform="translate(445,82)"/>
<path d="M0 0 C2 3 2 3 2 5 C1.01 4.67 0.02 4.34 -1 4 C-0.67 2.68 -0.34 1.36 0 0 Z " fill="#EEEEE8" transform="translate(389,14)"/>
<path d="M0 0 C0.99 0.33 1.98 0.66 3 1 C2.67 1.66 2.34 2.32 2 3 C1.01 3 0.02 3 -1 3 C-0.67 2.01 -0.34 1.02 0 0 Z " fill="#050505" transform="translate(265,9)"/>
<path d="M0 0 C0.66 0 1.32 0 2 0 C1.34 1.32 0.68 2.64 0 4 C-0.33 3.01 -0.66 2.02 -1 1 C-0.67 0.67 -0.34 0.34 0 0 Z " fill="#F1E9E6" transform="translate(381,177)"/>
<path d="M0 0 C0.99 0 1.98 0 3 0 C2.34 1.32 1.68 2.64 1 4 C0.67 2.68 0.34 1.36 0 0 Z " fill="#B1E0F6" transform="translate(449,137)"/>
<path d="M0 0 C0.33 0.66 0.66 1.32 1 2 C1.66 2.33 2.32 2.66 3 3 C1.68 3.33 0.36 3.66 -1 4 C-0.67 2.68 -0.34 1.36 0 0 Z " fill="#3A3A3A" transform="translate(259,10)"/>
<path d="M0 0 C0.33 0.99 0.66 1.98 1 3 C0.01 3 -0.98 3 -2 3 C-1.34 2.01 -0.68 1.02 0 0 Z " fill="#D3D9DB" transform="translate(444,139)"/>
<path d="M0 0 C0.66 0.99 1.32 1.98 2 3 C1.01 3.33 0.02 3.66 -1 4 C-0.67 2.68 -0.34 1.36 0 0 Z " fill="#D4E8EC" transform="translate(383,131)"/>
<path d="M0 0 C0.99 0.33 1.98 0.66 3 1 C2.34 1.66 1.68 2.32 1 3 C0.34 2.34 -0.32 1.68 -1 1 C-0.67 0.67 -0.34 0.34 0 0 Z " fill="#F5F7F6" transform="translate(445,72)"/>
<path d="M0 0 C0.66 0 1.32 0 2 0 C1.67 0.99 1.34 1.98 1 3 C0.34 3 -0.32 3 -1 3 C-0.67 2.01 -0.34 1.02 0 0 Z " fill="#F2F3EA" transform="translate(401,32)"/>
<path d="M0 0 C0.66 0.66 1.32 1.32 2 2 C1.01 2.33 0.02 2.66 -1 3 C-0.67 2.01 -0.34 1.02 0 0 Z " fill="#B0B3B8" transform="translate(409,81)"/>
</svg>
